<svg id="a6b16db2-d870-4f9d-91be-42008acd54ed" data-name="Layer 1" xmlns="http://www.w3.org/2000/svg" width="265.71" height="468.57" viewBox="0 0 265.71 468.57">
  <defs>
    <style>
      .be0a3354-81cd-4bb1-9ae2-dae9e94709dd {
        fill: #3b3be0;
      }
    </style>
  </defs>
  <path class="be0a3354-81cd-4bb1-9ae2-dae9e94709dd" d="M134.17,13.85A116.14,116.14,0,0,0,71,32.54a30.21,30.21,0,0,0-28.05-19h0A30.21,30.21,0,0,0,12.69,43.74v381.1A30.22,30.22,0,0,0,42.9,455.05h0a30.21,30.21,0,0,0,30.21-30.21V240.21a116.1,116.1,0,0,0,61.06,17.3C199.81,257.51,253,203,253,135.68S199.81,13.85,134.17,13.85Zm-3,184.78A63,63,0,0,1,73.11,160V111.39a63,63,0,1,1,58.08,87.24Z"/>
</svg>
