<svg id="ee115155-693b-4646-b729-dc25a40ad74c" data-name="Layer 1" xmlns="http://www.w3.org/2000/svg" width="265.71" height="468.57" viewBox="0 0 265.71 468.57">
  <defs>
    <style>
      .baec076b-c33d-46d5-a266-455e5436e607 {
        fill: #fff;
      }
    </style>
  </defs>
  <g>
    <path class="baec076b-c33d-46d5-a266-455e5436e607" d="M134.17,5.85A124.19,124.19,0,0,0,73.93,21.44,38.21,38.21,0,0,0,4.69,43.74v381.1a38.21,38.21,0,1,0,76.42,0V253.62a124.41,124.41,0,0,0,53.06,11.89c70,0,126.85-58.24,126.85-129.83S204.12,5.85,134.17,5.85Zm0,251.66a116.1,116.1,0,0,1-61.06-17.3V424.84A30.21,30.21,0,0,1,42.9,455.05h0a30.22,30.22,0,0,1-30.21-30.21V43.74A30.21,30.21,0,0,1,42.9,13.53h0A30.21,30.21,0,0,1,71,32.54a116.14,116.14,0,0,1,63.22-18.69C199.81,13.85,253,68.4,253,135.68S199.81,257.51,134.17,257.51Z"/>
    <path class="baec076b-c33d-46d5-a266-455e5436e607" d="M131.19,72.74a63,63,0,0,0-58.08,38.65V160a63,63,0,1,0,58.08-87.23Zm0,117.89a54.85,54.85,0,0,1-50.08-32.32V113.05a55,55,0,1,1,50.08,77.58Z"/>
  </g>
</svg>
