<svg id="eaacf6e9-5486-483b-8d06-6ce2e7094c76" data-name="Layer 1" xmlns="http://www.w3.org/2000/svg" width="265.71" height="468.57" viewBox="0 0 265.71 468.57">
  <defs>
    <style>
      .aade6f2b-0bef-4b2e-a64d-fb4d909212c0 {
        fill: #f4406f;
      }
    </style>
  </defs>
  <path class="aade6f2b-0bef-4b2e-a64d-fb4d909212c0" d="M134.17,13.85A116.14,116.14,0,0,0,71,32.54a30.21,30.21,0,0,0-28.05-19h0A30.21,30.21,0,0,0,12.69,43.74v381.1A30.22,30.22,0,0,0,42.9,455.05h0a30.21,30.21,0,0,0,30.21-30.21V240.21a116.1,116.1,0,0,0,61.06,17.3C199.81,257.51,253,203,253,135.68S199.81,13.85,134.17,13.85Zm-3,184.78A63,63,0,0,1,73.11,160V111.39a63,63,0,1,1,58.08,87.24Z"/>
</svg>
