<svg id="aff23514-1327-4f28-bcfb-474b982bcc99" data-name="Layer 1" xmlns="http://www.w3.org/2000/svg" width="248.36" height="252.96" viewBox="0 0 248.36 252.96">
  <defs>
    <style>
      .e9b184e5-7d86-4d58-9d95-ce1ece4cecd0 {
        fill: #999;
      }
    </style>
  </defs>
  <path class="e9b184e5-7d86-4d58-9d95-ce1ece4cecd0" d="M208.8,11.25h-1.87c-11.12,0-19.17,6.75-22,16.87-15.82-10.95-35.22-17.28-57.53-17.28a115.64,115.64,0,0,0,0,231.28c22.26,0,41.63-6.3,57.43-17.2,2.61,10.23,10.09,16.51,22.14,16.51h1.87c15.34,0,27.84-9.48,27.84-25.42V36.67C236.64,21.7,224.19,11.25,208.8,11.25ZM127.36,187.34a60.86,60.86,0,1,1,56.37-83.82v45.92A60.87,60.87,0,0,1,127.36,187.34Z"/>
</svg>
