<svg id="f0fe2ec8-b620-4405-bd85-dbab55309146" data-name="Layer 1" xmlns="http://www.w3.org/2000/svg" width="248.36" height="252.96" viewBox="0 0 248.36 252.96">
  <defs>
    <style>
      .a7dfe4df-e253-45e5-aab5-5909414c933d {
        fill: #ff52d2;
      }
    </style>
  </defs>
  <path class="a7dfe4df-e253-45e5-aab5-5909414c933d" d="M184,27.54c-15.66-10.58-34.76-16.7-56.66-16.7a115.64,115.64,0,0,0,0,231.28c21.9,0,41-6.11,56.66-16.69,0,0,52.57-24.23,52.57-59.9,0-33.48,0-101.4,0-126.87,0-25-23.5-30.65-38.64-25.86C187.87,16,184,27.54,184,27.54Zm-56.66,159.8a60.86,60.86,0,1,1,56.37-83.82v45.92A60.87,60.87,0,0,1,127.37,187.34Z"/>
</svg>
