<svg id="a057d3b8-3dab-45de-b7ce-1fb75c2ef89f" data-name="Layer 1" xmlns="http://www.w3.org/2000/svg" width="248.36" height="252.96" viewBox="0 0 248.36 252.96">
  <defs>
    <style>
      .ffdc7b02-cd24-4d30-98f1-fa26b054dfea {
        fill: #fff;
      }
    </style>
  </defs>
  <g>
    <path class="ffdc7b02-cd24-4d30-98f1-fa26b054dfea" d="M127.36,65.62a60.86,60.86,0,1,0,56.37,83.82V103.52A60.87,60.87,0,0,0,127.36,65.62Zm48.37,82.2a52.86,52.86,0,1,1,0-42.68Z"/>
    <path class="ffdc7b02-cd24-4d30-98f1-fa26b054dfea" d="M208.8,3.26h-1.87c-10.8,0-19.91,4.9-25.46,13.27C165.41,7.44,147.25,2.84,127.36,2.84a123.64,123.64,0,0,0,0,247.28c19.77,0,37.83-4.55,53.82-13.53,5.34,8.27,14.31,12.84,25.75,12.84h1.87c20.77,0,35.84-14.06,35.84-33.42V36.67C244.64,17.62,229.23,3.26,208.8,3.26ZM236.64,216c0,15.94-12.5,25.42-27.84,25.42h-1.87c-12.05,0-19.53-6.28-22.14-16.51-15.8,10.9-35.17,17.2-57.43,17.2a115.64,115.64,0,0,1,0-231.28c22.31,0,41.71,6.33,57.53,17.28,2.87-10.12,10.92-16.87,22-16.87h1.87c15.39,0,27.84,10.45,27.84,25.42Z"/>
  </g>
</svg>
