<svg id="bddc909d-6bb2-4569-97a9-25f11e53b9f0" data-name="Layer 1" xmlns="http://www.w3.org/2000/svg" width="248.36" height="252.96" viewBox="0 0 248.36 252.96">
  <defs>
    <style>
      .b14c89ad-5bba-4c04-b20d-59e47bb63ee1 {
        fill: #3b3be0;
      }
    </style>
  </defs>
  <path class="b14c89ad-5bba-4c04-b20d-59e47bb63ee1" d="M208.8,11.26h-1.87c-11.12,0-19.17,6.74-22,16.86-15.82-10.95-35.22-17.28-57.53-17.28a115.64,115.64,0,0,0,0,231.28c22.26,0,41.63-6.3,57.43-17.2,2.61,10.23,10.09,16.51,22.14,16.51h1.87c15.34,0,27.84-9.48,27.84-25.42V36.67C236.64,21.7,224.19,11.26,208.8,11.26ZM127.36,187.34a60.86,60.86,0,1,1,56.37-83.82v45.92A60.87,60.87,0,0,1,127.36,187.34Z"/>
</svg>
