<svg id="e3020e4d-ff64-49c7-9e27-c5bd039d4902" data-name="Layer 1" xmlns="http://www.w3.org/2000/svg" width="257.14" height="471.43" viewBox="0 0 257.14 471.43">
  <defs>
    <style>
      .ae6c92e6-3bbd-4df0-81ae-7d1729ade559 {
        fill: #ff0;
      }
    </style>
  </defs>
  <path class="ae6c92e6-3bbd-4df0-81ae-7d1729ade559" d="M214.94,21.1A110.55,110.55,0,0,0,161.78,7c-31,0-60,14.43-83.72,41.72l-.1.12C77,49.92,54.87,76.86,54.87,116.14v87.5H42a37.35,37.35,0,0,0,0,74.69H54.87v149a37.13,37.13,0,1,0,74.26,0v-149h15a37.35,37.35,0,0,0,0-74.69h-15V116.43a52.79,52.79,0,0,1,5.24-17.83c6-11.92,15.91-18.82,29.47-20.53a28.74,28.74,0,0,1,3.27-.17c4.5,0,12.53.86,15.71,6.67.67,1.23,1.32,2.47,2,3.72,5.37,10.28,12.71,24.36,32.71,24.36h0a56.8,56.8,0,0,0,13.77-1.87c11.6-2.89,19.21-11.86,20.89-24.62C254.83,65.78,241.64,35.87,214.94,21.1ZM229.33,103c-27.22,6.77-32.16-8.89-39.5-22.29s-27.08-10.58-27.08-10.58c-39.22,4.93-41.62,46-41.62,46v95.5h23a29.35,29.35,0,0,1,0,58.69h-23v157a29.13,29.13,0,1,1-58.26,0v-157H42a29.35,29.35,0,0,1,0-58.69H62.87v-95.5c0-36.83,21.23-62.22,21.23-62.22C126.63,5,177,9.27,211.06,28.11S256.56,96.24,229.33,103Z"/>
</svg>
