<svg id="b634ceaa-172b-4da6-a9aa-f72e2906ee8c" data-name="Layer 1" xmlns="http://www.w3.org/2000/svg" width="257.14" height="471.43" viewBox="0 0 257.14 471.43">
  <defs>
    <style>
      .b1dca423-c420-4acc-8fa9-1704d6ec5b1d {
        fill: #3b3be0;
      }
    </style>
  </defs>
  <path class="b1dca423-c420-4acc-8fa9-1704d6ec5b1d" d="M211.51,27.92c-34.07-18.83-84.43-23.06-127,25.82,0,0-21.23,25.39-21.23,62.21v95.51h-.37v58.69h.37v157a29.14,29.14,0,0,0,58.27,0v-157h.2a19.17,19.17,0,0,1-.36-3.7V114.77a20.72,20.72,0,0,1,2.09-9.15C127,93.12,136.7,73.3,163.19,70c0,0,19.75-2.82,27.09,10.58s12.27,29.06,39.5,22.29S245.58,46.76,211.51,27.92Z"/>
</svg>
