<svg id="fc9285e6-696b-4372-bc12-a5b649c9a57e" data-name="Layer 1" xmlns="http://www.w3.org/2000/svg" width="257.14" height="471.43" viewBox="0 0 257.14 471.43">
  <defs>
    <style>
      .b24bf1fb-2ccf-493d-89fc-bd8e2f6818e0 {
        fill: #ef4bbc;
      }
    </style>
  </defs>
  <path class="b24bf1fb-2ccf-493d-89fc-bd8e2f6818e0" d="M211.05,27.92C177,9.09,126.62,4.86,84.09,53.74c0,0-21.23,25.39-21.23,62.21v95.51H42a29.35,29.35,0,1,0,0,58.69H62.86v157a29.13,29.13,0,0,0,58.26,0v-157h23a29.35,29.35,0,1,0,0-58.69h-23V116s2.4-41,41.62-46c0,0,19.75-2.82,27.08,10.58s12.28,29.06,39.5,22.29S245.12,46.76,211.05,27.92Z"/>
</svg>
