<svg id="a6e1377a-7c40-4b1e-9cab-b8f98e460480" data-name="Layer 1" xmlns="http://www.w3.org/2000/svg" width="385" height="254" viewBox="0 0 385 254">
  <defs>
    <style>
      .ba2ea3bb-94db-4209-a3ff-da61f58441ec {
        fill: #3b3be0;
      }
    </style>
  </defs>
  <path class="ba2ea3bb-94db-4209-a3ff-da61f58441ec" d="M220.1,96.44V19.21c-19.92,6.17-28,15.72-28,15.72C142.81-4.83,73.21,22.42,66.24,25.3a28.38,28.38,0,0,0-51.13,17V212.07a28.41,28.41,0,1,0,56.81,0V95.3c1.92-11,20.15-28.39,55.51-27.1s36.06,25,36.07,26.6V212.07a28.41,28.41,0,0,0,28.41,28.41h0a28.41,28.41,0,0,0,28.41-28.41V102.63c0-.9,0-1.92,0-3A19.72,19.72,0,0,1,220.1,96.44Z"/>
</svg>
