<svg id="b810c4d1-2213-487f-b945-8e334bf787e9" data-name="Layer 1" xmlns="http://www.w3.org/2000/svg" width="385" height="254" viewBox="0 0 385 254">
  <defs>
    <style>
      .a36e843d-9992-4405-bad3-209959f280b5 {
        fill: #ff0;
      }
    </style>
  </defs>
  <path class="a36e843d-9992-4405-bad3-209959f280b5" d="M364.49,53.22c-14.56-23.36-39.09-38.13-72.93-43.9a205.29,205.29,0,0,0-34.17-3.07c-36,0-56.32,11.52-65.35,18.49-18.09-12.66-40-19.08-65.2-19.08-25.48,0-47.63,6.65-58,10.34a36,36,0,0,0-25-10,36.44,36.44,0,0,0-36.4,36.4V212.22a36.41,36.41,0,0,0,72.81,0V96.27c1.84-7.08,16.37-20,43.82-20,1.11,0,2.26,0,3.4.06,27.33,1,28.34,16.87,28.36,18.7V212.22a36.41,36.41,0,0,0,72.81,0V102.86c0-.46,0-.94,0-1.45.06-5.87.14-13.18,8-19.3,4.62-3.6,14.08-5.84,24.67-5.84s21,2.19,29.2,6.18c13.67,6.65,14.74,13.64,14.82,14.9a2.57,2.57,0,0,0,0,.76V212.22a36.41,36.41,0,0,0,72.81,0V106.85C378.64,95.68,377.48,74,364.49,53.22Zm5.67,53.45V212.22a28.39,28.39,0,0,1-28.4,28.4h0a28.4,28.4,0,0,1-28.41-28.4V98.11s1.51-12.73-19.3-22.86-50.52-8.62-62.29.55-10.95,21-11.09,27V212.22a28.39,28.39,0,0,1-28.4,28.4h0a28.4,28.4,0,0,1-28.41-28.4V95c0-1.6-.75-25.32-36.07-26.61S74.2,84.43,72.28,95.44V212.22a28.41,28.41,0,0,1-56.81,0V42.43a28.38,28.38,0,0,1,51.13-17c7-2.88,76.57-30.12,125.87,9.63,0,0,25.47-30.18,97.75-17.86S371.26,82.37,370.16,106.67Z"/>
</svg>
