<svg id="abb7d7a7-dcde-40fa-964d-3d2fa63615f1" data-name="Layer 1" xmlns="http://www.w3.org/2000/svg" width="385" height="254" viewBox="0 0 385 254">
  <defs>
    <style>
      .b28c683b-a5cb-4751-b1f1-e9fe57d49a68 {
        fill: #ef4bbc;
      }
    </style>
  </defs>
  <path class="b28c683b-a5cb-4751-b1f1-e9fe57d49a68" d="M220.1,96.44V19.21c-19.92,6.17-28,15.72-28,15.72C142.81-4.83,73.21,22.42,66.24,25.3a28.38,28.38,0,0,0-51.13,17V212.07a28.41,28.41,0,1,0,56.81,0V95.3c1.92-11,20.15-28.39,55.51-27.1s36.06,25,36.07,26.6V212.07a28.41,28.41,0,0,0,28.41,28.41h0a28.41,28.41,0,0,0,28.41-28.41V102.63c0-.9,0-1.92,0-3A19.72,19.72,0,0,1,220.1,96.44Z"/>
</svg>
