<svg id="f8bfa738-26ac-42ce-889e-1db80fcb9772" data-name="Layer 1" xmlns="http://www.w3.org/2000/svg" width="385" height="254" viewBox="0 0 385 254">
  <defs>
    <style>
      .f61b83a9-10dd-4909-bdae-eb41e42a1e12 {
        fill: #f4406f;
      }
    </style>
  </defs>
  <path class="f61b83a9-10dd-4909-bdae-eb41e42a1e12" d="M289.86,17.07c-72.28-12.32-97.74,17.86-97.74,17.86C142.81-4.83,73.21,22.42,66.24,25.3a28.38,28.38,0,0,0-51.13,17V212.07a28.41,28.41,0,1,0,56.81,0V95.3c1.92-11,20.15-28.39,55.51-27.1s36.06,25,36.07,26.6V212.07a28.41,28.41,0,0,0,28.41,28.41h0a28.41,28.41,0,0,0,28.41-28.41V102.63c.13-6-.69-17.8,11.08-27s41.48-10.68,62.29-.55S313,98,313,98v114.1a28.41,28.41,0,0,0,28.41,28.41h0a28.41,28.41,0,0,0,28.41-28.41V106.53C370.9,82.23,362.14,29.39,289.86,17.07Z"/>
</svg>
