<svg xmlns="http://www.w3.org/2000/svg" xmlns:xlink="http://www.w3.org/1999/xlink" viewBox="0 0 180 180"><defs><style>.cls-1{isolation:isolate;}.cls-2{opacity:0.5;}.cls-3{fill:#8d04af;}.cls-4{fill:#c638f4;}.cls-5{fill:#890370;opacity:0.33;}.cls-10,.cls-6{fill:#ff8af1;}.cls-6{opacity:0.19;}.cls-7{fill:#f1ff8f;opacity:0.2;mix-blend-mode:lighten;}.cls-8{fill:url(#linear-gradient);}.cls-9{fill:#720082;}.cls-10{opacity:0.22;}.cls-11{fill:#fff;}.cls-12{fill:#f2ea55;opacity:0.44;}.cls-13{opacity:0.6;}.cls-14{fill:#ff0;}</style><linearGradient id="linear-gradient" x1="88.52" y1="168.54" x2="88.96" y2="6.87" gradientUnits="userSpaceOnUse"><stop offset="0" stop-color="#ff5e0b"/><stop offset="1" stop-color="#ff420a"/></linearGradient></defs><g class="cls-1"><g id="Layer_1" data-name="Layer 1"><rect class="cls-2" x="12.5" y="13.76" width="157.52" height="157.52" rx="33.84"/><rect class="cls-3" x="9.98" y="8.72" width="157.52" height="157.52" rx="33.84"/><rect class="cls-4" x="11.78" y="10.52" width="153.92" height="153.92" rx="33.07"/><path class="cls-5" d="M155.73,139.6c-3.39,4.22-7.19,11-13.11,14.8s-25.38,4.65-52,3.38-34.68.85-46.53-1.27-17.34-10.15-24.53-21.57c-3.19-5.06-5.79-4.3-7.71-1.89a33.07,33.07,0,0,0,33,31.39h87.78A33.08,33.08,0,0,0,165,138.38C163.59,133.34,158.15,136.57,155.73,139.6Z"/><path class="cls-6" d="M132.63,10.52H44.85A33.08,33.08,0,0,0,11.78,43.59v60c14.19-8.45,67-33.52,153.92-1.83V43.59A33.08,33.08,0,0,0,132.63,10.52Z"/><path class="cls-7" d="M132.63,10.52H44.85A33.06,33.06,0,0,0,16.33,26.86a14.46,14.46,0,0,0-.14,7.32c2.52,10.09,5.77-9,18.38-13.69s24.15-3.61,67-3.25,47.57,4.33,53.34,15.14C160,41.92,162.87,48.93,165.7,44v-.41A33.08,33.08,0,0,0,132.63,10.52Z"/><rect class="cls-8" x="23.59" y="22.34" width="130.29" height="130.29" rx="27.99"/><rect class="cls-9" x="21.43" y="20.18" width="134.62" height="134.62" rx="28.92"/><rect class="cls-3" x="23.59" y="22.34" width="130.29" height="130.29" rx="27.99"/><rect class="cls-10" x="27.3" y="27.76" width="122.87" height="122.87" rx="26.4"/><path class="cls-11" d="M137.81,13.3c0,.57-17.43,1-38.93,1S60,13.87,60,13.3s17.43-1,38.93-1S137.81,12.72,137.81,13.3Z"/><path class="cls-11" d="M143.85,13.82c0,.52-.93.93-2.08.93s-2.08-.41-2.08-.93.93-.94,2.08-.94S143.85,13.3,143.85,13.82Z"/><path class="cls-5" d="M165.5,135c-5.2,14-13.45,22.85-22.53,24.61-12.78,2.47-73.79,5.36-101.82,1.65-17.4-2.3-25.59-17-29.3-27.8a33.07,33.07,0,0,0,33,31h87.78A33.06,33.06,0,0,0,165.5,135Z"/><path class="cls-12" d="M120.29,157.38c0,1.11-13.51,2-30.18,2s-30.17-.91-30.17-2,13.51-2,30.17-2S120.29,156.26,120.29,157.38Z"/><path class="cls-13" d="M110.32,101.34a11.41,11.41,0,0,1,2.06-1.67,9.67,9.67,0,0,1,8.44-.59,10.91,10.91,0,0,1,6.72,8.87,10.75,10.75,0,0,1-1.61,6.72,14.37,14.37,0,0,1-2.36,2.69c-.68.67-1.12,1.51-1.77,2.22A39.87,39.87,0,0,1,92.19,132.1a39.76,39.76,0,0,1-30-15.19,43.59,43.59,0,0,1-8.69-24.18,41,41,0,0,1,5.2-22.84,40.76,40.76,0,0,1,17.11-15.5A40.09,40.09,0,0,1,99.49,50.3,39.8,39.8,0,0,1,121.8,62.45c2.83,3,5.37,6.58,5.43,10.67a9.93,9.93,0,0,1-13.9,9.26c-3.77-1.65-6.13-5.41-9.38-7.95-6.26-4.91-15.91-4.54-22.12.43s-8.73,13.9-6.55,21.55c2.49,8.69,11.37,15.48,20.34,14.39a19.51,19.51,0,0,0,11.62-6.06C108.29,103.64,109.24,102.41,110.32,101.34Z"/><path class="cls-14" d="M109.32,99.34a11.41,11.41,0,0,1,2.06-1.67,9.67,9.67,0,0,1,8.44-.59,10.91,10.91,0,0,1,6.72,8.87,10.75,10.75,0,0,1-1.61,6.72,14.37,14.37,0,0,1-2.36,2.69c-.68.67-1.12,1.51-1.77,2.22A39.87,39.87,0,0,1,91.19,130.1a39.76,39.76,0,0,1-30-15.19,43.59,43.59,0,0,1-8.69-24.18,41,41,0,0,1,5.2-22.84,40.76,40.76,0,0,1,17.11-15.5A40.09,40.09,0,0,1,98.49,48.3,39.8,39.8,0,0,1,120.8,60.45c2.83,2.95,5.37,6.58,5.43,10.67a9.93,9.93,0,0,1-13.9,9.26c-3.77-1.65-6.13-5.41-9.38-7.95-6.26-4.91-15.91-4.54-22.12.43s-8.73,13.9-6.55,21.55c2.49,8.69,11.37,15.48,20.34,14.39a19.51,19.51,0,0,0,11.62-6.06C107.29,101.64,108.24,100.41,109.32,99.34Z"/></g></g></svg>