<svg xmlns="http://www.w3.org/2000/svg" xmlns:xlink="http://www.w3.org/1999/xlink" viewBox="0 0 180 180"><defs><style>.cls-1{isolation:isolate;}.cls-2{opacity:0.5;}.cls-3{fill:#8d04af;}.cls-4{fill:#c638f4;}.cls-5{fill:#890370;opacity:0.33;}.cls-10,.cls-6{fill:#ff8af1;}.cls-6{opacity:0.19;}.cls-7{fill:#f1ff8f;opacity:0.2;mix-blend-mode:lighten;}.cls-8{fill:url(#linear-gradient);}.cls-9{fill:#720082;}.cls-10{opacity:0.22;}.cls-11{fill:#fff;}.cls-12{fill:#f2ea55;opacity:0.44;}.cls-13{opacity:0.6;}.cls-14{fill:#ff0;}</style><linearGradient id="linear-gradient" x1="88.52" y1="168.54" x2="88.96" y2="6.87" gradientUnits="userSpaceOnUse"><stop offset="0" stop-color="#ff5e0b"/><stop offset="1" stop-color="#ff420a"/></linearGradient></defs><g class="cls-1"><g id="Layer_1" data-name="Layer 1"><rect class="cls-2" x="12.5" y="13.76" width="157.52" height="157.52" rx="33.84"/><rect class="cls-3" x="9.98" y="8.72" width="157.52" height="157.52" rx="33.84"/><rect class="cls-4" x="11.78" y="10.52" width="153.92" height="153.92" rx="33.07"/><path class="cls-5" d="M155.73,139.6c-3.39,4.22-7.19,11-13.11,14.8s-25.38,4.65-52,3.38-34.68.85-46.53-1.27-17.34-10.15-24.53-21.57c-3.19-5.06-5.79-4.3-7.71-1.89a33.07,33.07,0,0,0,33,31.39h87.78A33.08,33.08,0,0,0,165,138.38C163.59,133.34,158.15,136.57,155.73,139.6Z"/><path class="cls-6" d="M132.63,10.52H44.85A33.08,33.08,0,0,0,11.78,43.59v60c14.19-8.45,67-33.52,153.92-1.83V43.59A33.08,33.08,0,0,0,132.63,10.52Z"/><path class="cls-7" d="M132.63,10.52H44.85A33.06,33.06,0,0,0,16.33,26.86a14.46,14.46,0,0,0-.14,7.32c2.52,10.09,5.77-9,18.38-13.69s24.15-3.61,67-3.25,47.57,4.33,53.34,15.14C160,41.92,162.87,48.93,165.7,44v-.41A33.08,33.08,0,0,0,132.63,10.52Z"/><rect class="cls-8" x="23.59" y="22.34" width="130.29" height="130.29" rx="27.99"/><rect class="cls-9" x="21.43" y="20.18" width="134.62" height="134.62" rx="28.92"/><rect class="cls-3" x="23.59" y="22.34" width="130.29" height="130.29" rx="27.99"/><rect class="cls-10" x="27.3" y="27.76" width="122.87" height="122.87" rx="26.4"/><path class="cls-11" d="M137.81,13.3c0,.57-17.43,1-38.93,1S60,13.87,60,13.3s17.43-1,38.93-1S137.81,12.72,137.81,13.3Z"/><path class="cls-11" d="M143.85,13.82c0,.52-.93.93-2.08.93s-2.08-.41-2.08-.93.93-.94,2.08-.94S143.85,13.3,143.85,13.82Z"/><path class="cls-5" d="M165.5,135c-5.2,14-13.45,22.85-22.53,24.61-12.78,2.47-73.79,5.36-101.82,1.65-17.4-2.3-25.59-17-29.3-27.8a33.07,33.07,0,0,0,33,31h87.78A33.06,33.06,0,0,0,165.5,135Z"/><path class="cls-12" d="M120.29,157.38c0,1.11-13.51,2-30.18,2s-30.17-.91-30.17-2,13.51-2,30.17-2S120.29,156.26,120.29,157.38Z"/><path class="cls-13" d="M120.32,68.56V42.24a7.45,7.45,0,0,0-7.45-7.45h0a7.44,7.44,0,0,0-6.73,4.29,30,30,0,1,0-.72,51.68v31.37h.29l-.08.11a3.16,3.16,0,0,0-.27,1c-.9,4.77-5.1,8.56-9.85,9.6a17.28,17.28,0,0,1-13.72-3.33,28.07,28.07,0,0,0-4.87-3.44c-3.38-1.51-7.94-.2-9.48,3.16a7.83,7.83,0,0,0,.39,6.74,15.46,15.46,0,0,0,4.65,5.14,31.43,31.43,0,0,0,16.29,6.07,33.83,33.83,0,0,0,12.17-1.31,27.41,27.41,0,0,0,16.33-12.78,24.2,24.2,0,0,0,3-8.57,10,10,0,0,0,.06-2.56ZM90.6,79.92a15.21,15.21,0,1,1,14.82-18.58v6.75A15.2,15.2,0,0,1,90.6,79.92Z"/><path class="cls-14" d="M119.32,66.56V40.24a7.45,7.45,0,0,0-7.45-7.45h0a7.44,7.44,0,0,0-6.73,4.29,30,30,0,1,0-.72,51.68v31.37h.29l-.08.11a3.16,3.16,0,0,0-.27,1c-.9,4.77-5.1,8.56-9.85,9.6a17.28,17.28,0,0,1-13.72-3.33,28.07,28.07,0,0,0-4.87-3.44c-3.38-1.51-7.94-.2-9.48,3.16a7.83,7.83,0,0,0,.39,6.74,15.46,15.46,0,0,0,4.65,5.14,31.43,31.43,0,0,0,16.29,6.07,33.83,33.83,0,0,0,12.17-1.31,27.41,27.41,0,0,0,16.33-12.78,24.2,24.2,0,0,0,3-8.57,10,10,0,0,0,.06-2.56ZM89.6,77.92a15.21,15.21,0,1,1,14.82-18.58v6.75A15.2,15.2,0,0,1,89.6,77.92Z"/></g></g></svg>