<svg id="Layer_1" data-name="Layer 1" xmlns="http://www.w3.org/2000/svg" viewBox="0 0 512 512"><defs><style>.cls-1{fill:#ff5dad;}</style></defs><path class="cls-1" d="M355,114.84l-.11-.09,0,0C315.37,81.5,264.21,65.4,205.14,65.5H138.05a43.57,43.57,0,0,0-29.37,11.28A45.76,45.76,0,0,0,99.8,87.27a32,32,0,0,0-4.74,16.52V415a27.49,27.49,0,0,0,6.4,17.45,35.52,35.52,0,0,0,9.84,8.12,45.67,45.67,0,0,0,23.09,5.92H207.1c58.06.12,108.7-16.29,148-49.84l.16-.14a173.44,173.44,0,0,0,46.32-62.17C412,310.6,417,284.25,417,256c0-28.56-5-55.12-15.38-79A170.93,170.93,0,0,0,355,114.84ZM307.21,344c-25.71,22.26-57.48,33.6-99.44,33.74h-9.33l-.49.49c-2.08,0-4.56,0-7.35,0-6.81,0-15.8-.07-26.91-.21q-.12-33.1-.43-115.62V133.67c19.13-.06,34.16-.22,45.17-.48,43.9.15,75.88,11.53,100.17,33.05a105.38,105.38,0,0,1,27.61,38.37c6.12,14.61,9.38,31.45,9.39,51.13,0,19-3.34,35.34-9.64,49.75S320.3,332.54,307.21,344Zm14.85,17,2.16,2.47h0Z"/></svg>