<svg id="Layer_1" data-name="Layer 1" xmlns="http://www.w3.org/2000/svg" viewBox="0 0 512 512"><defs><style>.cls-1{fill:#ff0;isolation:isolate;}</style></defs><path class="cls-1" d="M413.72,386,310,256,413.72,126a42.2,42.2,0,1,0-66-52.64L256,188.35l-91.75-115a42.2,42.2,0,1,0-66,52.64L202,256,98.29,386a42.2,42.2,0,1,0,66,52.64l91.75-115,91.75,115a42,42,0,0,0,33,15.88h0a42.21,42.21,0,0,0,33-68.52Zm-11.66,53a34.19,34.19,0,0,1-48.05-5.4L256,310.82,158,433.63A34.2,34.2,0,1,1,104.54,391L212.25,256,104.54,121A34.2,34.2,0,1,1,158,78.37l98,122.81L354,78.37A34.19,34.19,0,1,1,407.46,121L299.75,256,407.46,391A34.19,34.19,0,0,1,402.06,439Z"/></svg>