<svg id="Layer_1" data-name="Layer 1" xmlns="http://www.w3.org/2000/svg" viewBox="0 0 512 512"><defs><style>.cls-1{fill:#ff5dad;}</style></defs><path class="cls-1" d="M374.68,121.11c-32.32-36.74-73.66-56-119.6-55.79-45.41-.23-86.33,19.13-118.3,55.88-32.27,36.46-49.18,83.06-49,134.8-.19,51.78,16.83,98.41,49.26,134.84,32.11,36.73,73.08,56.07,118.49,55.84,45.93.23,87.23-19,119.41-55.84,32.42-36.43,49.45-83.06,49.26-134.84.2-51.8-16.94-98.46-49.53-134.89m-42.09,222c-21.71,24.48-45.8,35.83-76.82,36.06-30.31-.22-54.24-11.51-76.18-36.11C158,318.22,148,290.86,147.78,256c.2-34.89,10.14-62.27,31.62-87.14C201.18,144.3,225,133,255.31,132.8c31,.23,55.22,11.59,77.09,36.11C354,193.79,364,221.16,364.22,256,364,290.89,354.08,318.28,332.59,343.14Z"/></svg>