<svg id="Layer_1" data-name="Layer 1" xmlns="http://www.w3.org/2000/svg" viewBox="0 0 512 512"><defs><style>.cls-1{fill:#92ff9f;isolation:isolate;}</style></defs><path class="cls-1" d="M493.12,71.07a42.68,42.68,0,0,0-21.68-12,47.52,47.52,0,0,0-11.07-1.34h-.45A40.64,40.64,0,0,0,435,66.38a43.77,43.77,0,0,0-13.9,20.11L356.41,277.43,294.36,94.84C292,88.05,289,80.78,283.45,73.55a42.77,42.77,0,0,0-11.51-10.38,37.53,37.53,0,0,0-19.15-5.46h-.32a33.08,33.08,0,0,0-14.71,3.51,34.71,34.71,0,0,0-13.32,11.9,42.54,42.54,0,0,0-4.82,10,27.41,27.41,0,0,0-1.15,4.58c-.48,2.88-1.07,5.66-1.75,8.27L154.9,277.23,91.6,86.62A42.11,42.11,0,0,0,78.41,66.5a39.84,39.84,0,0,0-25-9h-.55a48.24,48.24,0,0,0-12.72,1.79l-.24.07a45,45,0,0,0-20.82,12A39.12,39.12,0,0,0,8.3,98.64a41.64,41.64,0,0,0,2.1,13.21L115.17,422a43.75,43.75,0,0,0,8.3,18.42,36.56,36.56,0,0,0,28.79,14.06h.46A42.7,42.7,0,0,0,180,445.1,41.63,41.63,0,0,0,193.85,422l61.48-180.19L316.93,421a41.26,41.26,0,0,0,9.67,20.32,37.55,37.55,0,0,0,13.93,9.8A39.42,39.42,0,0,0,355.37,454h.21c7.06,0,17.43-1.53,26.7-8.75a41,41,0,0,0,14.54-23.18L501,112.75a41.75,41.75,0,0,0,2.75-14.63A39.14,39.14,0,0,0,493.12,71.07Zm.29,39L389.1,419.9a33.15,33.15,0,0,1-11.69,19,35.24,35.24,0,0,1-22,7.1,31.74,31.74,0,0,1-11.87-2.25,29.66,29.66,0,0,1-10.94-7.68,33.69,33.69,0,0,1-7.89-17L255.3,217.16,186.14,419.89a33.67,33.67,0,0,1-11.25,19,34.83,34.83,0,0,1-22.46,7.6,28.53,28.53,0,0,1-22.65-11,35.86,35.86,0,0,1-6.87-15.59L18,109.29a33.83,33.83,0,0,1-1.69-10.77A31.27,31.27,0,0,1,24.78,77a37.15,37.15,0,0,1,17.28-10h0A40.71,40.71,0,0,1,52.92,65.5a31.92,31.92,0,0,1,20.33,7.11A34.1,34.1,0,0,1,84,89.07L154.8,302.3l69.58-204c.76-2.87,1.43-6,2-9.26a19.66,19.66,0,0,1,.84-3.36,34.28,34.28,0,0,1,3.92-8.19,26.66,26.66,0,0,1,10.24-9.16,25.28,25.28,0,0,1,11.25-2.65A29.36,29.36,0,0,1,267.74,70a34.88,34.88,0,0,1,9.42,8.51c4.59,6,7.21,12.06,9.65,19l0,.08,69.58,204.74L428.65,89.25l.06-.18A35.68,35.68,0,0,1,440,72.64a32.61,32.61,0,0,1,20.35-6.93,39.33,39.33,0,0,1,9.22,1.12,35.13,35.13,0,0,1,17.79,9.8A31.1,31.1,0,0,1,495.71,98,34.73,34.73,0,0,1,493.41,110.09Z"/></svg>