<svg id="Layer_1" data-name="Layer 1" xmlns="http://www.w3.org/2000/svg" viewBox="0 0 512 512"><defs><style>.cls-1{fill:#fff;}</style></defs><path class="cls-1" d="M407.73,85.34a39.34,39.34,0,0,0-16.54-21.57A42.56,42.56,0,0,0,368.3,57.5H144A44.88,44.88,0,0,0,128.88,60a39.07,39.07,0,0,0-21.27,17.9,45.06,45.06,0,0,0-5.44,22.19V410.76c.09,11.34,3.38,21.08,9.79,29a39.85,39.85,0,0,0,15,11.21,44.64,44.64,0,0,0,15.69,3.53c.92,0,1.6,0,2.07,0h.07a41.83,41.83,0,0,0,17.79-3.9,40.22,40.22,0,0,0,19.83-21,55.18,55.18,0,0,0,3.92-21.35V295.7H314.52a49.13,49.13,0,0,0,13.86-1.91A39.42,39.42,0,0,0,350.19,278a42,42,0,0,0,6.89-23.6A48.39,48.39,0,0,0,355,240a40,40,0,0,0-16.5-21.88A42.93,42.93,0,0,0,315,211.59L186.28,212V142.13h182a43.7,43.7,0,0,0,15.17-2.57,39.42,39.42,0,0,0,21.1-18.09,45.4,45.4,0,0,0,5.25-21.93A46.75,46.75,0,0,0,407.73,85.34Zm-10.21,32.38A31.26,31.26,0,0,1,380.83,132a36.4,36.4,0,0,1-12.53,2.11h-190V220L315,219.59H315a35.13,35.13,0,0,1,19.17,5.28,31.92,31.92,0,0,1,13.14,17.45,40.38,40.38,0,0,1,1.75,12.1,34.06,34.06,0,0,1-5.53,19.13,31.7,31.7,0,0,1-17.37,12.55,41.27,41.27,0,0,1-11.68,1.6H178.28V408.25A47,47,0,0,1,175,426.59a32.23,32.23,0,0,1-15.79,16.76,33.72,33.72,0,0,1-14.48,3.15c-.4,0-1,0-1.74,0a36.13,36.13,0,0,1-12.86-2.88,31.85,31.85,0,0,1-11.92-8.93c-6.45-7.92-8-16.75-8-24.09V100.08a37.16,37.16,0,0,1,4.46-18.37,31.39,31.39,0,0,1,16.85-14.15A37.25,37.25,0,0,1,144,65.5H368.3A34.81,34.81,0,0,1,387,70.58a31.35,31.35,0,0,1,13.08,17.11,38.47,38.47,0,0,1,1.75,11.87A37.44,37.44,0,0,1,397.52,117.72Z"/></svg>