<svg id="Layer_1" data-name="Layer 1" xmlns="http://www.w3.org/2000/svg" viewBox="0 0 512 512"><defs><style>.cls-1{fill:#92ff9f;isolation:isolate;}</style></defs><path class="cls-1" d="M388.13,376.49a44.76,44.76,0,0,0-22.49-5.64H298.38V141.15h67.79a46.38,46.38,0,0,0,14.61-2.26,39.39,39.39,0,0,0,21.56-17.16A43.39,43.39,0,0,0,408.27,99a44.66,44.66,0,0,0-2.4-14.81A38.9,38.9,0,0,0,388.29,63a44.09,44.09,0,0,0-22.13-5.54H146.35a48.45,48.45,0,0,0-14.08,2,39.27,39.27,0,0,0-21.84,16.12,41.93,41.93,0,0,0-6.7,23.49,45.13,45.13,0,0,0,2.42,15,39.24,39.24,0,0,0,17.73,21.48,44.79,44.79,0,0,0,22.48,5.63h67.27v229.7H146.35A47.81,47.81,0,0,0,131.88,373a39.84,39.84,0,0,0-21.83,16.77A43.27,43.27,0,0,0,103.73,413a43.8,43.8,0,0,0,2.57,15.18,39.44,39.44,0,0,0,18.11,21.13,44.88,44.88,0,0,0,22,5.26H365.65a48,48,0,0,0,14.08-2,39.32,39.32,0,0,0,21.83-16.11,41.92,41.92,0,0,0,6.71-23.5,45.51,45.51,0,0,0-2.42-15A39.38,39.38,0,0,0,388.13,376.49Zm6.74,55.58a31.8,31.8,0,0,1-17.39,12.82,40.45,40.45,0,0,1-11.84,1.66H146.36a37.49,37.49,0,0,1-18.2-4.32,31.28,31.28,0,0,1-14.32-16.72A36.51,36.51,0,0,1,111.73,413a35.39,35.39,0,0,1,5.14-19,31.76,31.76,0,0,1,17.36-13.31,39.77,39.77,0,0,1,12.13-1.79h75.27V133.15H146.36a36.9,36.9,0,0,1-18.58-4.62,31.53,31.53,0,0,1-14-17,37.66,37.66,0,0,1-2-12.46,34.41,34.41,0,0,1,5.4-19.11,31.73,31.73,0,0,1,17.39-12.82,40.79,40.79,0,0,1,11.84-1.66h219.8A36.27,36.27,0,0,1,384.4,70a31.13,31.13,0,0,1,13.89,16.79,36.84,36.84,0,0,1,2,12.27,35.89,35.89,0,0,1-4.84,18.65,31.44,31.44,0,0,1-17.09,13.58,38.41,38.41,0,0,1-12.18,1.88H290.38v245.7h75.26a37,37,0,0,1,18.58,4.62,31.57,31.57,0,0,1,14,17,37.48,37.48,0,0,1,2,12.47A34.45,34.45,0,0,1,394.87,432.07Z"/></svg>