<svg id="Layer_1" data-name="Layer 1" xmlns="http://www.w3.org/2000/svg" viewBox="0 0 512 512"><defs><style>.cls-1{fill:#e7395e;}</style></defs><path class="cls-1" d="M387,70.58a34.81,34.81,0,0,0-18.7-5.08H144a37.25,37.25,0,0,0-12.49,2.06,31.39,31.39,0,0,0-16.85,14.15,37.16,37.16,0,0,0-4.46,18.37V410.56c0,7.34,1.54,16.17,8,24.09a31.85,31.85,0,0,0,11.92,8.93,36.13,36.13,0,0,0,12.86,2.88c.77,0,1.34,0,1.74,0a33.72,33.72,0,0,0,14.48-3.15A32.23,32.23,0,0,0,175,426.59a47,47,0,0,0,3.33-18.34V287.7H314.5a41.27,41.27,0,0,0,11.68-1.6,31.7,31.7,0,0,0,17.37-12.55,34.06,34.06,0,0,0,5.53-19.13,40.38,40.38,0,0,0-1.75-12.1,31.92,31.92,0,0,0-13.14-17.45A35.13,35.13,0,0,0,315,219.59H315L178.28,220v-85.9h190A36.4,36.4,0,0,0,380.83,132a31.26,31.26,0,0,0,16.69-14.3,37.44,37.44,0,0,0,4.31-18.16,38.47,38.47,0,0,0-1.75-11.87A31.35,31.35,0,0,0,387,70.58Z"/></svg>