<svg id="Layer_1" data-name="Layer 1" xmlns="http://www.w3.org/2000/svg" viewBox="0 0 512 512"><defs><style>.cls-1{fill:#ff5dad;}</style></defs><path class="cls-1" d="M232.34,141.48a102,102,0,0,1,42.39-8.66c16.82,0,31.41,3.25,44.74,9.54s25.51,15.81,36.93,29.3l.16.19.2.23a37.77,37.77,0,0,0,10.58,8.45,32.16,32.16,0,0,0,15.07,3.79,39,39,0,0,0,12.33-1.9A31.71,31.71,0,0,0,412,168.74a36.27,36.27,0,0,0,4.89-18.86,34.49,34.49,0,0,0-8.53-22.42l-.07-.09c-17.39-20.12-37.53-35.8-60.08-46.25S300.85,65.48,274.73,65.5c-24.65,0-48.14,4.68-69.69,14.2S164,103.48,147,121.82c-34.27,36.53-52,82.6-51.81,133.66-.18,51,17.4,97.19,51.43,134,17,18.54,36.37,33,57.91,42.59s45,14.4,69.72,14.38c26,0,50.64-5.14,73.09-15.63s42.27-25.95,59.58-45.88c5.31-5.48,9.13-14.26,8.93-22.35a38.29,38.29,0,0,0-2-12.62,31.8,31.8,0,0,0-14.12-17.14,37.35,37.35,0,0,0-18.81-4.68,32.42,32.42,0,0,0-14.48,3.42,35.42,35.42,0,0,0-10.77,8.43l-.27.31.19-.21c-11.41,13.18-23.58,22.47-36.83,28.65s-27.79,9.33-44.48,9.34a100.69,100.69,0,0,1-42-8.63c-12.73-5.74-24.63-14.38-36-26.62-22.41-24.49-33.12-52.21-33.3-87.67.18-35.06,10.85-62.61,33.3-87.14C207.6,155.86,219.52,147.22,232.34,141.48Zm158,.76Zm-.92,227.39.05-.06-.05.06Z"/></svg>