<svg id="Layer_1" data-name="Layer 1" xmlns="http://www.w3.org/2000/svg" viewBox="0 0 512 512"><defs><style>.cls-1{fill:#92ff9f;isolation:isolate;}</style></defs><path class="cls-1" d="M413.12,66.7A42,42,0,0,0,354,72.13L256,190,158,72.13a42,42,0,0,0-64.53,53.66L218.11,275.73V413A42,42,0,0,0,302,413V265.93L418.56,125.79A42,42,0,0,0,413.12,66.7Zm-.71,54L294,263V413a34,34,0,0,1-67.93,0V272.81c-.07-.1-.16-.17-.24-.27L99.59,120.67A34,34,0,0,1,104,72.85h0a34,34,0,0,1,47.83,4.4L256,202.54,360.18,77.25A34,34,0,0,1,408,72.85h0A34,34,0,0,1,412.41,120.67Z"/></svg>