<svg id="Layer_1" data-name="Layer 1" xmlns="http://www.w3.org/2000/svg" viewBox="0 0 512 512"><defs><style>.cls-1{isolation:isolate;}.cls-2{fill:#92ff9f;}</style></defs><g class="cls-1"><path class="cls-2" d="M427.51,253.69c.2-52.22-16.34-99.41-47.88-136.69l-.07-.08c-.53-.64-1.08-1.27-1.62-1.89l-.24-.28c-32.63-38-74.45-58.16-120.94-58.16h-1.52c-46.5,0-88.32,20.11-120.9,58.11-32.81,37.62-50,85.68-49.85,138.93-.2,53.33,17,101.39,49.8,138.94,32.62,38.05,74.29,58.17,120.51,58.17h1A152.05,152.05,0,0,0,330.94,431l10,11.39c5.24,6.29,14.83,13,26.15,13h.34A37.16,37.16,0,0,0,380.84,453c7.86-2.84,15.19-9.55,19.12-17.44a48,48,0,0,0,5.09-22.33c.17-10.44-4.05-22-10.78-29.42l-5-5.8a193.89,193.89,0,0,0,23.87-43.73C422.69,309.8,427.53,282.67,427.51,253.69ZM379,378.39l9.29,10.74c5.05,5.56,8.94,15,8.77,24.05a40.67,40.67,0,0,1-4.2,18.75c-3.24,6.49-9.2,11.59-14.79,13.59a29.51,29.51,0,0,1-10.62,1.89c-8.27.13-15.92-4.77-20.37-10.16l.12.14-14.6-16.59a145.13,145.13,0,0,1-77,21.94c-44.14.22-84-18.95-115.18-55.37C108.84,351.24,92.29,305,92.49,253.66c-.2-51.33,16.36-97.57,47.88-133.7C171.61,83.51,211.6,64.37,256,64.59c44.39-.22,84.38,18.92,115.63,55.37h0c31.51,36.14,48.08,82.37,47.88,133.7,0,27.71-4.53,53.9-13.83,77.73A186.46,186.46,0,0,1,379,378.39Z"/><path class="cls-2" d="M256.23,131.5c-29.82.22-53.21,11.46-74.5,35.81-21,24.67-30.74,51.8-30.93,86.35.19,34.57,9.9,61.69,30.93,86.36,21.32,24.39,44.58,35.58,74,35.8a92.36,92.36,0,0,0,32.46-5.74l-3.71-4.29a34.61,34.61,0,0,1-6.52-10,36.41,36.41,0,0,1-2.93-14.36,40.66,40.66,0,0,1,4.19-18.72A28.33,28.33,0,0,1,294,309.13a29.29,29.29,0,0,1,10.62-1.89,24.77,24.77,0,0,1,11.87,3,28.9,28.9,0,0,1,8.76,7.45l12,13.71a117.23,117.23,0,0,0,14.84-26.73c5.94-15.09,9-31.81,9-51-.19-34.59-9.86-61.74-30.74-86.4C309.31,143,286,131.73,256.23,131.5Zm88.5,170.24a107.69,107.69,0,0,1-8.24,16.59l-5.07-5.77a36.91,36.91,0,0,0-11.06-9.34,33.11,33.11,0,0,0-15.59-4h-.12a37.27,37.27,0,0,0-13.4,2.39c-7.84,2.85-15.16,9.55-19.13,17.52a48.11,48.11,0,0,0-5.05,22.29A44.48,44.48,0,0,0,270.65,359a42.53,42.53,0,0,0,3.73,6.86,87.73,87.73,0,0,1-18.55,2c-27.25-.2-48.24-10.39-68.05-33-19.86-23.31-28.8-48.35-29-81.08.18-32.82,9.12-57.86,29-81.18,19.8-22.62,40.91-32.81,68.44-33,27.49.23,48.52,10.4,68.17,33,19.74,23.33,28.63,48.39,28.81,81.19C353.18,271.57,350.41,287.3,344.73,301.74Z"/></g></svg>