<svg id="Layer_1" data-name="Layer 1" xmlns="http://www.w3.org/2000/svg" viewBox="0 0 512 512"><defs><style>.cls-1{fill:#92ff9f;isolation:isolate;}</style></defs><path class="cls-1" d="M403.44,391.42a43.54,43.54,0,0,0-11.83-12.83l-.19-.13L217.57,256.32l174.1-122.75.58-.44a43.52,43.52,0,0,0,11.8-13.87,40.88,40.88,0,0,0,4.75-19.2,46.84,46.84,0,0,0-2.3-14.84,39.74,39.74,0,0,0-17.32-21.74,44,44,0,0,0-23.05-6c-8.7.07-16.71,2.78-24.47,8.29L187.17,174.85V99.55a44,44,0,0,0-2.17-14,39.15,39.15,0,0,0-15.14-20.21A41.46,41.46,0,0,0,158,59.81l.08-.6-8-1-.47,0-9-.9v.64a42,42,0,0,0-11.88,2.45,38.74,38.74,0,0,0-20.72,17.91A44,44,0,0,0,103,99.55V412.66a44.72,44.72,0,0,0,2.24,14.27,39.32,39.32,0,0,0,16.25,20.8,43.33,43.33,0,0,0,21.42,6.45h.18c.84,0,1.59.05,2.27.05a46.52,46.52,0,0,0,14.29-2.16,39.18,39.18,0,0,0,21.46-16.79,43.13,43.13,0,0,0,6-22.63v-74.9L341.8,446.55a42,42,0,0,0,24.33,8.18h.34a41.63,41.63,0,0,0,22.62-6.61,46.25,46.25,0,0,0,19.9-36.6A39.19,39.19,0,0,0,403.44,391.42Zm-6.68,36.2a33.48,33.48,0,0,1-50.53,12.26l.18.13L179.17,322.34v90.31a35.16,35.16,0,0,1-4.91,18.52,31.21,31.21,0,0,1-17,13.26,38.38,38.38,0,0,1-11.91,1.8c-.57,0-1.22,0-1.95,0h-.16a35.53,35.53,0,0,1-17.53-5.26,31.24,31.24,0,0,1-12.85-16.46A37,37,0,0,1,111,412.65V99.55A36.55,36.55,0,0,1,115.16,82,30.65,30.65,0,0,1,131.47,67.9a35.24,35.24,0,0,1,12.21-2.08,44.49,44.49,0,0,1,5,.3h0l.19,0,.25,0h0A35.61,35.61,0,0,1,165.36,72a31.45,31.45,0,0,1,12,16,36.36,36.36,0,0,1,1.79,11.52V190.3l167.1-118a34.34,34.34,0,0,1,19.93-6.82,36.48,36.48,0,0,1,18.94,4.91,31.84,31.84,0,0,1,13.74,17.29,38.88,38.88,0,0,1,1.92,12.4,33,33,0,0,1-3.8,15.41,35.18,35.18,0,0,1-9.65,11.32l-.43.33L203.67,256.33l183,128.58.19.14a36,36,0,0,1,9.69,10.48A31.21,31.21,0,0,1,401,411.46,34.33,34.33,0,0,1,396.76,427.62Z"/></svg>