<svg id="Layer_1" data-name="Layer 1" xmlns="http://www.w3.org/2000/svg" viewBox="0 0 512 512"><defs><style>.cls-1{fill:#ff0;isolation:isolate;}</style></defs><path class="cls-1" d="M415.9,84.71a39.17,39.17,0,0,0-15.54-20.29,44,44,0,0,0-20.47-7l-.84-.08-.82,0c-.71,0-1.47,0-2.28,0a47.18,47.18,0,0,0-14.32,2.12A39.39,39.39,0,0,0,340,76,42.9,42.9,0,0,0,333.8,99v187.6L172,77.88a41.17,41.17,0,0,0-15.35-13.76,43.12,43.12,0,0,0-15.42-4.53l0-.57-8.51.42h-.08a49.44,49.44,0,0,0-7.56,1v0l-.56.09-.26.06A40.69,40.69,0,0,0,107,69.28,37.44,37.44,0,0,0,96.64,83.85a40.72,40.72,0,0,0-2.79,15,48.42,48.42,0,0,0,.29,5.17V411.75a43.73,43.73,0,0,0,2.55,15,39.08,39.08,0,0,0,17.92,20.9,45,45,0,0,0,21.73,5.2,47.86,47.86,0,0,0,13.93-2A38.93,38.93,0,0,0,171.86,435a41.48,41.48,0,0,0,6.64-23.24V222.64L342.24,437.06a48,48,0,0,0,13.06,11.81,40.45,40.45,0,0,0,20.59,5.86h.24a40.78,40.78,0,0,0,13-2.17l.23.47,5.12-2.68c.7-.34,1.39-.71,2.07-1.09h0L397,449l.47-.27,7.28-4.29-.42-.64a39.9,39.9,0,0,0,8.95-11.42,44,44,0,0,0,4.87-20.65V98.94A44.15,44.15,0,0,0,415.9,84.71Zm-5.75,327a36.24,36.24,0,0,1-4,16.94,32.67,32.67,0,0,1-12.78,13.16h0l-.38.21-.18.1h0a34.11,34.11,0,0,1-16.77,4.57,32.24,32.24,0,0,1-16.61-4.68,40.14,40.14,0,0,1-10.93-9.91l-.11-.15L170.5,199V411.74a34,34,0,0,1-5.33,18.86A31.3,31.3,0,0,1,148,443.24a39.77,39.77,0,0,1-11.69,1.64,37,37,0,0,1-18-4.26,30.87,30.87,0,0,1-14.12-16.49,36.07,36.07,0,0,1-2.1-12.39V103.6a40.42,40.42,0,0,1-.29-4.72,32.66,32.66,0,0,1,2.23-12.09,29.65,29.65,0,0,1,8.1-11.44A32.5,32.5,0,0,1,126,68.42l.95-.15h-.28a43.48,43.48,0,0,1,6.67-.87h.06l.43,0v0c.76,0,1.52-.08,2.24-.08A36.68,36.68,0,0,1,153,71.23a33.41,33.41,0,0,1,12.51,11.31L341.8,309.92V99a35,35,0,0,1,5.06-18.77A31.36,31.36,0,0,1,364,67a39.17,39.17,0,0,1,12-1.77c.67,0,1.32,0,1.93,0l.62,0,.62.06A36.47,36.47,0,0,1,396,71.12,31.46,31.46,0,0,1,408.3,87.21,36.59,36.59,0,0,1,410.15,99Z"/></svg>