<svg id="Layer_1" data-name="Layer 1" xmlns="http://www.w3.org/2000/svg" viewBox="0 0 512 512"><defs><style>.cls-1{fill:#e7395e;}</style></defs><path class="cls-1" d="M401.13,69.59a39.58,39.58,0,0,0-18.3-4.09H128.64a41.51,41.51,0,0,0-11.93,1.65A32,32,0,0,0,99.15,79.87a34.59,34.59,0,0,0-5.57,19.38A36.69,36.69,0,0,0,95.78,112a31.47,31.47,0,0,0,14.56,16.72,38.4,38.4,0,0,0,18.3,4.26h92.3V412.93a35.86,35.86,0,0,0,1.92,11.81,31.41,31.41,0,0,0,12.48,16A36.78,36.78,0,0,0,252,446.31l.28,0c1.29.11,2.56.17,3.85.17a36.5,36.5,0,0,0,11.77-1.86,30.54,30.54,0,0,0,16.5-13.36A34.8,34.8,0,0,0,289,413.45V133h93.87c7.36,0,16.37-1.43,24.48-8.25a31.19,31.19,0,0,0,8.76-12.44,37.47,37.47,0,0,0,0-26.12A31.48,31.48,0,0,0,401.13,69.59Z"/></svg>