<svg id="Layer_1" data-name="Layer 1" xmlns="http://www.w3.org/2000/svg" viewBox="0 0 512 512"><defs><style>.cls-1{isolation:isolate;}.cls-2{fill:#92ff9f;}</style></defs><g class="cls-1"><path class="cls-2" d="M389.44,369.63l.05-.06-.05.06Z"/><path class="cls-2" d="M403.57,325.9a45.1,45.1,0,0,0-22.68-5.7h-.2a40.33,40.33,0,0,0-17.89,4.26,43.15,43.15,0,0,0-13.2,10.3l-.27.31c-10.4,12-21.53,20.65-34,26.47s-25.88,8.59-41.1,8.6a92.82,92.82,0,0,1-38.69-7.93c-12.06-5.44-23-13.53-33.34-24.72-21.12-23.08-31-49.23-31.2-82.23.17-32.71,10.08-58.7,31.17-81.75,10.38-11.2,21.32-19.3,33.44-24.73a94.32,94.32,0,0,1,39.12-8c15.35,0,28.87,2.89,41.32,8.76s23.8,14.9,34.24,27.24l.16.18.35.4a45.54,45.54,0,0,0,12.76,10.18,40.24,40.24,0,0,0,18.7,4.74h.17A47,47,0,0,0,397.19,190a39.6,39.6,0,0,0,21.67-17.26,43.73,43.73,0,0,0,6-22.8,42.2,42.2,0,0,0-10.47-27.74l-.08-.1c-18.37-21.24-39.48-37.49-62.75-48.28S302.41,57.5,274.88,57.5h-.28c-26,0-50.46,5-72.78,14.89s-42.72,24.62-60.7,44c-35.5,37.84-54.16,86-54,139.1C87,308.56,105.48,356.8,140.67,394.93c17.92,19.58,38.3,34.55,60.55,44.49s46.84,15.08,72.86,15.08h.28c27.38,0,53.06-5.51,76.31-16.38,23-10.69,43.86-26.75,62.11-47.73,6.93-7.24,11.24-18.14,11-27.85a46,46,0,0,0-2.45-15.06A39.58,39.58,0,0,0,403.57,325.9ZM406.88,385c-17.31,19.93-37.26,35.49-59.58,45.88s-47.12,15.65-73.09,15.63c-24.68,0-48.19-4.73-69.72-14.38s-41-24.05-57.91-42.59c-34-36.86-51.61-83-51.43-134C95,204.42,112.69,158.35,147,121.82,164,103.48,183.49,89.21,205,79.7s45-14.22,69.69-14.2c26.13,0,50.91,5.13,73.44,15.62s42.69,26.13,60.08,46.25l.07.09a34.49,34.49,0,0,1,8.53,22.42A36.27,36.27,0,0,1,412,168.74a31.72,31.72,0,0,1-17.21,13.68,39.08,39.08,0,0,1-12.34,1.9,32.16,32.16,0,0,1-15.07-3.79,37.77,37.77,0,0,1-10.58-8.45l-.2-.23-.16-.19c-11.42-13.49-23.63-23-36.93-29.3s-27.92-9.52-44.74-9.54a102,102,0,0,0-42.39,8.66c-12.82,5.74-24.74,14.38-36.05,26.6-22.45,24.53-33.12,52.08-33.3,87.14.18,35.46,10.89,63.18,33.3,87.67,11.33,12.24,23.23,20.88,36,26.62a100.69,100.69,0,0,0,42,8.63c16.69,0,31.21-3.18,44.48-9.34s25.42-15.47,36.83-28.65l-.19.21.28-.31a35.25,35.25,0,0,1,10.76-8.43,32.42,32.42,0,0,1,14.48-3.42,37.35,37.35,0,0,1,18.81,4.68A31.8,31.8,0,0,1,413.78,350a38.29,38.29,0,0,1,2,12.62C416,370.73,412.19,379.51,406.88,385Z"/></g></svg>