<svg id="Layer_1" data-name="Layer 1" xmlns="http://www.w3.org/2000/svg" viewBox="0 0 512 512"><defs><style>.cls-1{fill:#e7395e;}</style></defs><path class="cls-1" d="M396,71.12a36.47,36.47,0,0,0-16.85-5.73l-.62-.06-.62,0c-.61,0-1.26,0-1.93,0A39.48,39.48,0,0,0,364,67a31.36,31.36,0,0,0-17.12,13.14A35,35,0,0,0,341.8,99v211L165.46,82.54A33.41,33.41,0,0,0,153,71.23a36.66,36.66,0,0,0-16.87-3.9c-.72,0-1.48,0-2.24.07v0l-.43,0h-.06a43.48,43.48,0,0,0-6.67.87H127l-.95.15a32.5,32.5,0,0,0-13.83,6.93,29.65,29.65,0,0,0-8.1,11.44,32.66,32.66,0,0,0-2.23,12.09,40.42,40.42,0,0,0,.29,4.72V411.74a36.07,36.07,0,0,0,2.1,12.39,30.87,30.87,0,0,0,14.12,16.49,37,37,0,0,0,18,4.26A39.72,39.72,0,0,0,148,443.24a31.3,31.3,0,0,0,17.15-12.64,34,34,0,0,0,5.33-18.86V199L348.44,432l.11.15a40.14,40.14,0,0,0,10.93,9.91,32.24,32.24,0,0,0,16.61,4.68,34.11,34.11,0,0,0,16.77-4.57h0l.18-.1.38-.21h0a32.67,32.67,0,0,0,12.78-13.16,36.24,36.24,0,0,0,4-16.94V99a36.59,36.59,0,0,0-1.85-11.74A31.46,31.46,0,0,0,396,71.12Z"/></svg>