<svg id="Layer_1" data-name="Layer 1" xmlns="http://www.w3.org/2000/svg" viewBox="0 0 512 512"><defs><style>.cls-1{fill:#0267ff;}</style></defs><path class="cls-1" d="M396.58,395.43A36,36,0,0,0,386.89,385l-.19-.14-183-128.58L386.92,127l.43-.33A35.22,35.22,0,0,0,397,115.37a32.94,32.94,0,0,0,3.8-15.4,38.88,38.88,0,0,0-1.92-12.4,31.84,31.84,0,0,0-13.74-17.29,36.46,36.46,0,0,0-18.94-4.91,34.3,34.3,0,0,0-19.93,6.82l-167.1,118V99.45a36.27,36.27,0,0,0-1.79-11.52,31.41,31.41,0,0,0-12-16.05,35.38,35.38,0,0,0-16.24-5.81h0l-.25,0-.19,0h0a42.25,42.25,0,0,0-5-.3,35.24,35.24,0,0,0-12.21,2.08,30.61,30.61,0,0,0-16.31,14.08A36.55,36.55,0,0,0,111,99.45v313.1a37,37,0,0,0,1.85,11.81,31.27,31.27,0,0,0,12.85,16.46,35.53,35.53,0,0,0,17.53,5.26h.16c.73,0,1.38,0,1.95,0a38.38,38.38,0,0,0,11.91-1.8,31.19,31.19,0,0,0,17-13.27,35.1,35.1,0,0,0,4.91-18.51V322.23L346.41,439.9l-.18-.12A35,35,0,0,0,401,411.35,31.17,31.17,0,0,0,396.58,395.43Z"/></svg>