<svg id="Layer_1" data-name="Layer 1" xmlns="http://www.w3.org/2000/svg" viewBox="0 0 512 512"><defs><style>.cls-1{fill:#999;}</style></defs><path class="cls-1" d="M366.16,133.15a38.41,38.41,0,0,0,12.18-1.88,31.44,31.44,0,0,0,17.09-13.58A35.89,35.89,0,0,0,400.27,99a36.84,36.84,0,0,0-2-12.27A31.13,31.13,0,0,0,384.4,70a36.27,36.27,0,0,0-18.24-4.53H146.36a40.79,40.79,0,0,0-11.84,1.66,31.73,31.73,0,0,0-17.39,12.82A34.49,34.49,0,0,0,111.73,99a37.66,37.66,0,0,0,2,12.46,31.53,31.53,0,0,0,14,17,36.9,36.9,0,0,0,18.58,4.62h75.27v245.7H146.36a39.77,39.77,0,0,0-12.13,1.79A31.76,31.76,0,0,0,116.87,394a35.39,35.39,0,0,0-5.14,19,36.51,36.51,0,0,0,2.11,12.55,31.28,31.28,0,0,0,14.32,16.72,37.49,37.49,0,0,0,18.2,4.32H365.64a40.45,40.45,0,0,0,11.84-1.66,31.8,31.8,0,0,0,17.39-12.82,34.45,34.45,0,0,0,5.4-19.11,37.48,37.48,0,0,0-2-12.47,31.57,31.57,0,0,0-14-17,37,37,0,0,0-18.58-4.62H290.38V133.15Z"/></svg>