<svg id="Layer_1" data-name="Layer 1" xmlns="http://www.w3.org/2000/svg" viewBox="0 0 512 512"><defs><style>.cls-1{fill:#ff5dad;}</style></defs><path class="cls-1" d="M443.36,396.88,295.68,86.48h0a41.08,41.08,0,0,0-4.15-7.17,33.67,33.67,0,0,0-11.45-10,31.63,31.63,0,0,0-7.57-2.84,33.22,33.22,0,0,0-7.69-.89,32.4,32.4,0,0,0-9.93,1.53,33,33,0,0,0-12.72,7.59,40.31,40.31,0,0,0-7.76,10.37L68.3,396l-.14.27a38.4,38.4,0,0,0-2.72,7.06,32.28,32.28,0,0,0-1.17,8.54,39.17,39.17,0,0,0,1.92,12.43A32.33,32.33,0,0,0,71.31,434a31.24,31.24,0,0,0,6.2,6,32.94,32.94,0,0,0,10.92,5.17,40,40,0,0,0,10.41,1.3,35.35,35.35,0,0,0,9.08-1.16,33.16,33.16,0,0,0,12.84-6.69,36.1,36.1,0,0,0,8.43-10.5l0,.06,51.29-94.26H338l43.75,92.5a30.82,30.82,0,0,0,12.23,13.83,34.51,34.51,0,0,0,10.46,4.16,45.14,45.14,0,0,0,9.81,1A40.62,40.62,0,0,0,425,444a32.23,32.23,0,0,0,8.86-3.88,29.43,29.43,0,0,0,12.25-15.81,33.53,33.53,0,0,0,1.61-10.4,35.11,35.11,0,0,0-1.38-9.71A38.08,38.08,0,0,0,443.36,396.88ZM305.9,266.3H215.24l47.87-88.82Z"/></svg>