<svg id="Layer_1" data-name="Layer 1" xmlns="http://www.w3.org/2000/svg" viewBox="0 0 512 512"><defs><style>.cls-1{fill:#ff5dad;}</style></defs><path class="cls-1" d="M381.39,237.3l-2.38-1q-47.26-17.13-94.52-33.76c-14.59-6-24.08-12.77-29.35-19-5.28-6.38-7.22-11.68-7.37-19.58a18.8,18.8,0,0,1,2.58-9.88c1.78-3.07,4.88-6.59,10.27-10.36l.12-.09c10.23-7.15,22.1-10.93,38.18-11,20.48,0,36.21,2.79,47,7.22s16.59,9.81,20.59,16.78h0A34.17,34.17,0,0,0,377,168.46a30.67,30.67,0,0,0,17.36,5.37,37,37,0,0,0,12.16-2,30.88,30.88,0,0,0,16.65-13.76,36,36,0,0,0,4.5-18.1,40.39,40.39,0,0,0-2.18-12.78,24,24,0,0,0-1.73-3.91c-11-19.78-28.5-35-49.84-44.31s-46.4-13.48-75-13.5c-27.27-.08-53.09,7.57-75.11,22.59l.09-.06c-13,8.7-23.71,19.64-30.94,32.7a87.73,87.73,0,0,0-10.77,43.13c-.07,20,5.54,39.32,16.74,55.4s27.22,28.79,46.74,38.51l2.37,1q47.18,17.1,94.39,34.18c14.72,6,24.33,12.79,29.61,18.88,5.28,6.26,7.07,11.21,7.23,18.58,0,9.18-1.6,16.21-4.19,21.84a37.15,37.15,0,0,1-11.88,14.39l-.19.15c-10.18,7.77-24.36,12.5-45.32,12.56-18.45,0-38.94-4.6-61.69-14.7-20-9.23-35.73-19.59-47.38-30.64-5-5.06-13.4-9.54-22.31-9.41A35.71,35.71,0,0,0,174,326.7a30.61,30.61,0,0,0-16.33,14.06,36.58,36.58,0,0,0-4.19,17.69,35.07,35.07,0,0,0,8.53,22.91l1.51,1.59c17.84,17,40,31.19,66.07,42.83h0l0,0,.2.09h0c29.41,13.49,58.84,20.63,87.82,20.62,32,.07,61-8,84.22-25.25a102.15,102.15,0,0,0,32.36-39.12c7.25-15.5,10.59-32.87,10.58-51.31a95,95,0,0,0-16.78-55.13C416.91,259.65,400.88,247,381.39,237.3ZM235,107.06l0,0-.09.06Z"/></svg>