<svg id="Layer_1" data-name="Layer 1" xmlns="http://www.w3.org/2000/svg" viewBox="0 0 512 512"><defs><style>.cls-1{fill:#ff5dad;}</style></defs><path class="cls-1" d="M371.63,120C340.38,83.51,300.39,64.37,256,64.59c-44.4-.22-84.39,18.92-115.63,55.37-31.52,36.13-48.08,82.37-47.88,133.7-.2,51.34,16.35,97.58,47.88,133.71,31.21,36.42,71,55.59,115.18,55.37a145.13,145.13,0,0,0,77-21.94l14.6,16.59-.12-.14c4.45,5.39,12.1,10.29,20.37,10.16a29.51,29.51,0,0,0,10.62-1.89c5.59-2,11.55-7.1,14.79-13.59a40.67,40.67,0,0,0,4.2-18.75c.17-9.06-3.72-18.49-8.77-24.05L379,378.39a186.46,186.46,0,0,0,26.69-47c9.3-23.83,13.85-50,13.83-77.73.2-51.33-16.37-97.56-47.88-133.7M181.73,340c-21-24.67-30.74-51.79-30.93-86.36.19-34.55,9.9-61.68,30.93-86.35C203,143,226.41,131.72,256.23,131.5c29.8.23,53.08,11.44,74.23,35.76,20.88,24.66,30.55,51.81,30.74,86.4,0,19.21-3.09,35.93-9,51a117.23,117.23,0,0,1-14.84,26.73l-12-13.71a28.9,28.9,0,0,0-8.76-7.45,24.77,24.77,0,0,0-11.87-3A29.08,29.08,0,0,0,294,309.13a28.33,28.33,0,0,0-14.78,13.62,40.66,40.66,0,0,0-4.19,18.72A36.41,36.41,0,0,0,278,355.83a34.61,34.61,0,0,0,6.52,10l3.71,4.29a92.36,92.36,0,0,1-32.46,5.74C226.31,375.6,203.05,364.41,181.73,340Z"/></svg>