<svg id="Layer_1" data-name="Layer 1" xmlns="http://www.w3.org/2000/svg" viewBox="0 0 512 512"><defs><style>.cls-1{fill:#fff;}</style></defs><path class="cls-1" d="M406.22,398.31a39.39,39.39,0,0,0-16.1-21.83,42.11,42.11,0,0,0-23.49-6.71H189.05V296H317a46.27,46.27,0,0,0,14.6-2.26A39.35,39.35,0,0,0,353.1,276.6,43.44,43.44,0,0,0,359,253.9a47.88,47.88,0,0,0-2.14-14.48,39.89,39.89,0,0,0-16.76-21.81,43.23,43.23,0,0,0-23.2-6.33H188.52V142.23h177.6a44.27,44.27,0,0,0,15.18-2.57,39.49,39.49,0,0,0,21.13-18.12,45.6,45.6,0,0,0,5.26-22,47.18,47.18,0,0,0-2.1-14.21A39.44,39.44,0,0,0,389,63.77a42.66,42.66,0,0,0-22.91-6.27H145.37a43.67,43.67,0,0,0-15.61,2.76,39.55,39.55,0,0,0-21,18.62,46.71,46.71,0,0,0-5,21.77V411.89a47.63,47.63,0,0,0,2.14,14.45,39.82,39.82,0,0,0,16.76,21.83,43.26,43.26,0,0,0,23.21,6.33H366.64a44.74,44.74,0,0,0,14.78-2.4,38.89,38.89,0,0,0,21.25-17.57,44.24,44.24,0,0,0,5.54-22.15A48.48,48.48,0,0,0,406.22,398.31Zm-10.54,32.33a31.21,31.21,0,0,1-16.8,13.88,37.29,37.29,0,0,1-12.25,2H145.9a35.43,35.43,0,0,1-19-5.14A31.77,31.77,0,0,1,113.58,424a39.82,39.82,0,0,1-1.79-12.13V100.65a38.64,38.64,0,0,1,4.14-18.15,31.4,31.4,0,0,1,16.59-14.74,36,36,0,0,1,12.85-2.26H366.11a34.82,34.82,0,0,1,18.72,5.09,31.41,31.41,0,0,1,13.11,17.13,39.19,39.19,0,0,1,1.75,11.88,37.6,37.6,0,0,1-4.33,18.2,31.24,31.24,0,0,1-16.71,14.31,36.28,36.28,0,0,1-12.54,2.12H180.52v85.05H316.94a35.42,35.42,0,0,1,19,5.15,31.76,31.76,0,0,1,13.29,17.34A39.57,39.57,0,0,1,351,253.91a35.85,35.85,0,0,1-4.84,18.64,31.44,31.44,0,0,1-17.09,13.58A38.07,38.07,0,0,1,316.94,288H181.05v89.76H366.63a34.43,34.43,0,0,1,19.11,5.41,31.7,31.7,0,0,1,12.8,17.38,40.48,40.48,0,0,1,1.67,11.84A36.4,36.4,0,0,1,395.68,430.64Z"/></svg>