<svg id="Layer_1" data-name="Layer 1" xmlns="http://www.w3.org/2000/svg" viewBox="0 0 512 512"><defs><style>.cls-1{fill:#999;}</style></defs><path class="cls-1" d="M495.71,98a31.1,31.1,0,0,0-8.33-21.37,35.13,35.13,0,0,0-17.79-9.8,39.33,39.33,0,0,0-9.22-1.12A32.61,32.61,0,0,0,440,72.64a35.68,35.68,0,0,0-11.31,16.43l-.06.18L356.42,302.32,286.84,97.58l0-.08c-2.45-6.94-5.07-13-9.66-19A34.88,34.88,0,0,0,267.74,70a29.36,29.36,0,0,0-15.13-4.27,25.28,25.28,0,0,0-11.25,2.65,26.66,26.66,0,0,0-10.24,9.16,34.67,34.67,0,0,0-3.92,8.19,19.66,19.66,0,0,0-.84,3.36c-.55,3.31-1.22,6.39-2,9.26l-69.58,204L84,89.07A34.2,34.2,0,0,0,73.25,72.61,31.92,31.92,0,0,0,52.92,65.5,40.71,40.71,0,0,0,42.11,67h0A37.15,37.15,0,0,0,24.78,77,31.22,31.22,0,0,0,16.3,98.53,33.5,33.5,0,0,0,18,109.29L122.91,419.92a35.86,35.86,0,0,0,6.87,15.59,28.53,28.53,0,0,0,22.65,11,34.83,34.83,0,0,0,22.46-7.6,33.64,33.64,0,0,0,11.25-19L255.3,217.17,324.7,419a33.69,33.69,0,0,0,7.89,17,29.66,29.66,0,0,0,10.94,7.68A31.74,31.74,0,0,0,355.4,446a35.24,35.24,0,0,0,22-7.1,33.15,33.15,0,0,0,11.69-19L493.41,110.09A34.73,34.73,0,0,0,495.71,98Z"/></svg>