<svg id="Layer_1" data-name="Layer 1" xmlns="http://www.w3.org/2000/svg" viewBox="0 0 512 512"><defs><style>.cls-1{isolation:isolate;}.cls-2{fill:#ff0;}</style></defs><g class="cls-1"><path class="cls-2" d="M215.24,266.3H305.9l-42.79-88.82Zm13.4-8,34.07-63.22,30.46,63.22Z"/><path class="cls-2" d="M454.05,402a46.79,46.79,0,0,0-3.53-8.74L302.91,83.05l-3.4-7.12-.45.2q-.51-.76-1.05-1.5a41.58,41.58,0,0,0-14.19-12.4,40,40,0,0,0-9.46-3.56,41.66,41.66,0,0,0-9.59-1.1,40.84,40.84,0,0,0-12.29,1.9,41.4,41.4,0,0,0-15.83,9.42,48.36,48.36,0,0,0-9.3,12.4L61.24,392.23l-.23.46a46.18,46.18,0,0,0-3.29,8.54,40.49,40.49,0,0,0-1.45,10.65,47.1,47.1,0,0,0,2.32,14.94,40.83,40.83,0,0,0,6.4,12,39.34,39.34,0,0,0,7.8,7.56,41.08,41.08,0,0,0,13.58,6.44,48.09,48.09,0,0,0,12.47,1.57h0A43.22,43.22,0,0,0,109.94,453a41.14,41.14,0,0,0,16-8.32,43.78,43.78,0,0,0,10.29-12.76l49-90.05H332.88l41.55,87.86a38.93,38.93,0,0,0,15.36,17.32,42.67,42.67,0,0,0,12.86,5.11,52.34,52.34,0,0,0,11.56,1.22,48.6,48.6,0,0,0,12.9-1.64,40.27,40.27,0,0,0,11-4.84,37.44,37.44,0,0,0,15.58-20.09,41.86,41.86,0,0,0,2-12.87A43.55,43.55,0,0,0,454.05,402Zm-7.93,22.31a29.43,29.43,0,0,1-12.25,15.81A32.23,32.23,0,0,1,425,444a40.62,40.62,0,0,1-10.81,1.36,45.14,45.14,0,0,1-9.81-1,34.51,34.51,0,0,1-10.46-4.16,30.82,30.82,0,0,1-12.23-13.83L338,333.88H180.45l-51.29,94.26,0-.06a36.1,36.1,0,0,1-8.43,10.5,33.16,33.16,0,0,1-12.84,6.69,35.35,35.35,0,0,1-9.08,1.16,40,40,0,0,1-10.41-1.3A32.75,32.75,0,0,1,77.51,440a31.24,31.24,0,0,1-6.2-6,32.33,32.33,0,0,1-5.12-9.65,39.17,39.17,0,0,1-1.92-12.43,32.28,32.28,0,0,1,1.17-8.54,38.4,38.4,0,0,1,2.72-7.06l.14-.27L234.41,85.06a40.08,40.08,0,0,1,7.76-10.37,33,33,0,0,1,12.72-7.59,32.4,32.4,0,0,1,9.93-1.53,33.22,33.22,0,0,1,7.69.89,31.63,31.63,0,0,1,7.57,2.84,33.67,33.67,0,0,1,11.45,10,41.08,41.08,0,0,1,4.15,7.17h0l147.68,310.4a38.08,38.08,0,0,1,3,7.35,35.11,35.11,0,0,1,1.38,9.71A33.53,33.53,0,0,1,446.12,424.34Z"/></g></svg>