<svg id="Layer_1" data-name="Layer 1" xmlns="http://www.w3.org/2000/svg" viewBox="0 0 512 512"><defs><style>.cls-1{fill:#0267ff;}</style></defs><path class="cls-1" d="M384.5,382.92a38.3,38.3,0,0,0-18.35-4.28H178.93V98.81A36.08,36.08,0,0,0,177,87.05a30.93,30.93,0,0,0-12.88-16.2A35.61,35.61,0,0,0,147,65.77h0c-1-.07-2.06-.12-3.14-.12a37.15,37.15,0,0,0-11.77,1.82A30.74,30.74,0,0,0,115.4,80.74a34.8,34.8,0,0,0-4.71,18.07V413a36.14,36.14,0,0,0,2.18,12.61,31.16,31.16,0,0,0,14.47,16.55,37.67,37.67,0,0,0,18,4.18H366.15a42.06,42.06,0,0,0,12-1.64,32.13,32.13,0,0,0,17.62-12.78,34.64,34.64,0,0,0,5.59-19.43,36.69,36.69,0,0,0-2.21-12.81A31.49,31.49,0,0,0,384.5,382.92Z"/></svg>