<svg id="Layer_1" data-name="Layer 1" xmlns="http://www.w3.org/2000/svg" viewBox="0 0 512 512"><defs><style>.cls-1{fill:#92ff9f;isolation:isolate;}</style></defs><path class="cls-1" d="M410.46,211.83H256.25c-27.34,0-47.18,18.95-47.18,46.43s19.84,46.44,47.18,46.44h94a116.85,116.85,0,0,1-22.92,28.46C305.75,351.89,282.58,361,256.51,361c-30.28,0-55.39-10-76.75-30.68s-31.54-44.89-31.54-73.81,10.28-52.74,31.44-73.14c21.53-20.76,46.75-30.86,77.1-30.86,33.33,0,60,11.61,81.46,35.48,8.49,11.2,21.71,17.61,36.35,17.61,27.34,0,47.18-19.84,47.18-47.18a48.21,48.21,0,0,0-9.22-28l-1-1.41-1.13-1.31c-40.37-46.48-92.06-70-153.63-70-55.32,0-103.44,19.44-143,57.82C74,154.38,53.85,201.66,53.85,256c0,54.69,20,102,59.5,140.67,39.49,38.28,87.57,57.69,142.9,57.69,40.06,0,76.53-10.91,108.61-32.45a44.64,44.64,0,0,0,11.6,19.43c8.64,8.4,20.71,13,34,13,27.64,0,47.69-19.83,47.69-47.15V257.47C458.15,230.44,438.1,211.83,410.46,211.83Zm39.7,195.38c0,23.05-16.33,39.15-39.7,39.15-23.16,0-39.4-15.83-39.68-38.57-33.24,25.64-71.63,38.57-114.53,38.57-53.17,0-99.38-18.65-137.33-55.44C81,353.82,61.85,308.46,61.85,256c0-52.11,19.33-97.47,57.47-134.82,38.06-36.89,84.27-55.54,137.44-55.54,59.15,0,108.81,22.64,147.59,67.3l.88,1,.78,1.09a40.19,40.19,0,0,1,7.74,23.37c0,23.07-16.11,39.18-39.18,39.18-12.36,0-23.18-5.31-30.16-14.69-23.12-25.83-51.81-38.4-87.65-38.4-32.53,0-59.56,10.83-82.66,33.1-22.8,22-33.88,47.79-33.88,78.9s11.1,57.2,33.95,79.53c22.92,22.14,49.89,33,82.34,33,28.12,0,53-9.77,76.15-29.88,13.83-12.78,23.89-26.82,30.35-42.42H256.25c-23.07,0-39.18-16.21-39.18-39.44s16.11-39.43,39.18-39.43H410.46c23.37,0,39.7,15.89,39.7,38.64Z"/></svg>