<svg id="Layer_1" data-name="Layer 1" xmlns="http://www.w3.org/2000/svg" viewBox="0 0 512 512"><defs><style>.cls-1{fill:#ff5dad;}</style></defs><path class="cls-1" d="M320.52,278.18A99.91,99.91,0,0,0,356.94,252l.4-.47c17.69-20.87,26.88-47.12,26.73-75,.15-27.9-9-54.15-26.73-75l-.56-.65c-20.28-22.7-49-35-80.46-35.56H162.43a39.9,39.9,0,0,0-12.09,1.78A31.62,31.62,0,0,0,133.06,80.3a35.36,35.36,0,0,0-5.14,19V413a35.81,35.81,0,0,0,2,12.17,30.62,30.62,0,0,0,13.9,16.44,36.22,36.22,0,0,0,17.8,4.31c6.86,0,15.42-1.27,23.32-7.79a30.22,30.22,0,0,0,8.61-12,34.29,34.29,0,0,0,2.31-12.6V319.68L311.72,436.17l0,0c5.33,5.56,14.32,10.63,24.23,10.52.61,0,1.11,0,1.49,0l.35,0a36.44,36.44,0,0,0,21.7-8.77l2.3-2.28c4-4.6,7.76-10.11,9.51-17.94a27.69,27.69,0,0,0,.61-5.75,28.94,28.94,0,0,0-4.17-14.78,37.31,37.31,0,0,0-7.39-8.79l-.12-.1L244.69,286.7h30.5C291.28,286.71,306.59,284,320.52,278.18ZM273.9,132.73c14.6.82,22.73,4.87,30.31,13.22,6.81,8.18,10.18,17.06,10.32,30.57-.15,14-3.58,22.73-10.14,30.37l-.33.38a30.88,30.88,0,0,1-11.74,8.8c-4.59,2-10.33,3.18-17.83,3.19h-79l.35-86.53ZM330.43,421.9h0l.11.11Z"/></svg>