<svg id="Layer_1" data-name="Layer 1" xmlns="http://www.w3.org/2000/svg" viewBox="0 0 512 512"><defs><style>.cls-1{fill:#ff0;isolation:isolate;}</style></defs><path class="cls-1" d="M430.34,72.83A38.56,38.56,0,0,0,406,58.63a41,41,0,0,0-7.59-.73H398a35.47,35.47,0,0,0-23.68,9.17,41.24,41.24,0,0,0-11.4,18L255.25,316.2,148.83,84A41.07,41.07,0,0,0,136,65.75a36.5,36.5,0,0,0-21.85-7.86v-.77l-7.28,1.22c-.66.09-1.32.2-2,.33h0A37.55,37.55,0,0,0,80.9,73.38c-7.33,9.86-8.35,21.07-8.31,26.82V413.45a47.8,47.8,0,0,0,2.07,14.22,38.83,38.83,0,0,0,15,20.71,38.21,38.21,0,0,0,19.91,6.45h.28c.72,0,1.41,0,2.08,0h0c11-.05,19.91-3.39,27.36-10.21a39,39,0,0,0,10.08-15.55A46.79,46.79,0,0,0,152,413.45v-128l67.26,144.85.18.37a45.53,45.53,0,0,0,12.68,16.32,36.24,36.24,0,0,0,22.09,7.92h.58a38.31,38.31,0,0,0,21.7-6.77,44.47,44.47,0,0,0,14.58-17.46l.19-.39q41-87.75,68.2-146.12V413.46A46.71,46.71,0,0,0,362,428.77c2.79,8.6,9.44,16.81,17,21a40.21,40.21,0,0,0,20.26,5.14h.14c7.21-.09,16.68-1.18,26.18-8.88a38.11,38.11,0,0,0,10.89-15.17,43.92,43.92,0,0,0,3-16.32V100.81C439.52,90.42,436.2,80.21,430.34,72.83Zm1.07,341.66A36.14,36.14,0,0,1,429,427.85a30.15,30.15,0,0,1-8.54,12c-7.43,6-14.82,7-21.2,7.05a32.27,32.27,0,0,1-16.39-4.12c-5.8-3.17-11.1-9.72-13.28-16.5a39.2,39.2,0,0,1-2.05-12.79V248Q337.4,312.59,284,426.85l-.14.31A36.52,36.52,0,0,1,272,441.49a30.46,30.46,0,0,1-17.41,5.37,28,28,0,0,1-17.4-6.14,38.17,38.17,0,0,1-10.51-13.59l-.16-.32L144,249.17V413.45a38.73,38.73,0,0,1-2.13,13,31.23,31.23,0,0,1-8,12.34c-7.33,6.72-15.38,8.06-22,8.09l-1.79,0h-.23a29.58,29.58,0,0,1-27.62-21.48,40,40,0,0,1-1.73-11.91V100.2c0-6.69,1.54-15.07,6.73-22a29.81,29.81,0,0,1,18.81-11.58h0a36.45,36.45,0,0,1,6.87-.69A28.73,28.73,0,0,1,131,72a33.25,33.25,0,0,1,10.43,15L255.2,335.28,370.35,88a33.59,33.59,0,0,1,9.28-15,27.7,27.7,0,0,1,18.72-7.11,33.79,33.79,0,0,1,6.25.61h0A30.65,30.65,0,0,1,424,77.77c5.58,7,7.44,15.91,7.37,23Z"/></svg>