<svg id="Layer_1" data-name="Layer 1" xmlns="http://www.w3.org/2000/svg" viewBox="0 0 512 512"><defs><style>.cls-1{fill:#e7395e;}</style></defs><path class="cls-1" d="M379.34,109.49C346,70.25,303.35,49.63,256,49.86c-47.36-.23-90,20.39-123.34,59.63C99,148.41,81.38,198.2,81.58,253.48c-.2,55.29,17.45,105.09,51.08,144,33.3,39.22,75.78,59.87,122.86,59.63a153.66,153.66,0,0,0,82.18-23.62l15.57,17.86-.13-.15c4.75,5.81,12.91,11.08,21.73,10.94a31,31,0,0,0,11.33-2c6-2.16,12.32-7.64,15.77-14.64a44.15,44.15,0,0,0,4.48-20.19c.18-9.76-4-19.91-9.35-25.9l-9.91-11.57a201.26,201.26,0,0,0,28.47-50.61c9.91-25.67,14.77-53.87,14.76-83.71.2-55.28-17.47-105.07-51.08-144m-202.57,237c-22.42-26.56-32.78-55.77-33-93,.2-37.21,10.56-66.43,33-93,22.71-26.22,47.67-38.32,79.47-38.55,31.8.24,56.62,12.32,79.18,38.5,22.27,26.56,32.59,55.8,32.79,93,0,20.69-3.29,38.7-9.63,55a126.2,126.2,0,0,1-15.83,28.78l-12.84-14.76a30.9,30.9,0,0,0-9.35-8,26.32,26.32,0,0,0-12.65-3.24,30.93,30.93,0,0,0-11.33,2c-6,2.16-12.33,7.66-15.77,14.66a44.18,44.18,0,0,0-4.47,20.17,39.55,39.55,0,0,0,3.13,15.46,37.17,37.17,0,0,0,6.95,10.73l3.95,4.62A97.66,97.66,0,0,1,255.76,385C224.33,384.8,199.52,372.75,176.77,346.48Z"/></svg>