<svg id="Layer_1" data-name="Layer 1" xmlns="http://www.w3.org/2000/svg" viewBox="0 0 512 512"><defs><style>.cls-1{isolation:isolate;}.cls-2{fill:#92ff9f;}</style></defs><g class="cls-1"><path class="cls-2" d="M255.31,132.8c-30.32.23-54.13,11.5-75.91,36.06C157.92,193.73,148,221.11,147.78,256c.2,34.86,10.19,62.22,31.81,87.09,21.94,24.6,45.87,35.89,76.18,36.11,31-.23,55.11-11.58,76.82-36.06C354.08,318.28,364,290.89,364.22,256c-.2-34.84-10.19-62.21-31.82-87.09C310.53,144.39,286.32,133,255.31,132.8Zm71.27,205.07c-20.26,22.82-42.1,33.1-70.81,33.33-28.11-.22-49.76-10.52-70.18-33.4C165.17,314.29,156,289,155.78,256.05c.19-33.13,9.33-58.39,29.64-81.92,20.26-22.82,41.81-33.1,69.89-33.33,28.74.23,50.67,10.53,71.09,33.4C346.83,197.72,356,223,356.22,256,356,289.08,346.89,314.34,326.58,337.87Z"/><path class="cls-2" d="M380.69,115.83C347,77.55,303.85,57.32,255.86,57.32h-1.57c-47.46,0-90.18,20.27-123.5,58.58-33.57,37.93-51.2,86.38-51,140.07-.2,53.79,17.53,102.27,51.24,140.14,33.5,38.32,76.28,58.57,123.73,58.57h1.58c48,0,91.12-20.25,124.59-58.52,33.75-37.93,51.48-86.41,51.28-140.13C432.42,202.22,414.58,153.72,380.69,115.83Zm-5.74,275c-32.18,36.8-73.48,56.07-119.41,55.84-45.41.23-86.38-19.11-118.49-55.84C104.62,354.41,87.6,307.78,87.79,256c-.19-51.74,16.72-98.34,49-134.8,32-36.75,72.89-56.11,118.3-55.88,45.94-.22,87.28,19.05,119.6,55.8h0c32.59,36.42,49.73,83.08,49.53,134.88C424.4,307.78,407.37,354.41,375,390.84Z"/></g></svg>