<svg id="Layer_1" data-name="Layer 1" xmlns="http://www.w3.org/2000/svg" viewBox="0 0 512 512"><defs><style>.cls-1{fill:#fff;}</style></defs><path class="cls-1" d="M276.18,132.85h-82.5v87.56h83a43.66,43.66,0,0,0,17.87-3.35,35,35,0,0,0,12.79-9.75l.14-.16.16-.18c7.1-8.24,10.49-16.95,10.65-30.33-.16-13.8-3.61-22.65-10.59-30.79C299.43,137,291.06,133.14,276.18,132.85Zm25.47,68.85-.36.41a27.12,27.12,0,0,1-9.93,7.62,36,36,0,0,1-14.65,2.68h-75V140.85H276.1c13.58.28,19.54,3.85,25.67,10.34,6,7.06,8.41,14.21,8.55,25.44C310.17,187.59,307.73,194.64,301.65,201.7Z"/><path class="cls-1" d="M365.34,95.66l-.16-.19c-21.39-24.54-52.15-38-86.62-38H160.18c-7.2,0-18,1.08-28.35,9.44a38,38,0,0,0-11.14,15.23,41.89,41.89,0,0,0-3,15.74V413.06a45.37,45.37,0,0,0,2.14,14.15,38.84,38.84,0,0,0,16.65,21.29,42.41,42.41,0,0,0,21.31,6c1.12.06,2.07.09,3,.09h0a43.33,43.33,0,0,0,14.62-2.41,38.83,38.83,0,0,0,20.89-17.5,43.77,43.77,0,0,0,5.34-21.62V297.42h75.11c17.72,0,34.16-3.22,48.84-9.55a109.69,109.69,0,0,0,39.64-29.13c19.13-21.73,29.16-50.05,29-81.8C394.43,145.45,384.41,117.32,365.34,95.66Zm-6.08,157.79a102.52,102.52,0,0,1-36.78,27.07c-14.08,6.07-29.56,8.91-45.77,8.9h-83V413.05a35.87,35.87,0,0,1-4.36,17.79,30.64,30.64,0,0,1-16.45,13.76,35.78,35.78,0,0,1-12.05,2q-1.33,0-2.67-.09a34.36,34.36,0,0,1-17.51-4.85,30.94,30.94,0,0,1-13.14-16.82,37.79,37.79,0,0,1-1.77-11.77V97.83a33.94,33.94,0,0,1,2.38-12.75,30.36,30.36,0,0,1,8.77-12c8-6.42,16.45-7.59,23.35-7.64H277.42c31.94-.3,61.38,12,81.72,35.31l0,0,.09.11c18.11,20.56,27.15,47.28,27,76C386.42,205.91,377.44,232.81,359.26,253.45Z"/></svg>