<svg id="Layer_1" data-name="Layer 1" xmlns="http://www.w3.org/2000/svg" viewBox="0 0 512 512"><defs><style>.cls-1{isolation:isolate;}.cls-2{fill:#ff0;}</style></defs><g class="cls-1"><path class="cls-2" d="M384.86,229.94c8.77-18.63,13.3-37.48,13.47-56.05h.17l-.22-4.95c0-1.06-.08-2.14-.15-3.22v-.19c-1.23-27.48-13.64-54-34.92-74.7C342.32,69.66,314.83,58,285.76,58H157.44c-7.44.06-18.55,1.1-29.19,9.47A38.72,38.72,0,0,0,116.64,83,43,43,0,0,0,113.5,99.4V411.57a45.57,45.57,0,0,0,2.6,15.51,39.63,39.63,0,0,0,18.33,21.5A46.48,46.48,0,0,0,157,454h20.55c6.46,0,13.62-.09,21.26-.27,7.47-.17,15.11-.25,22.7-.25,19,0,40.29-.18,63.36-.52a107.73,107.73,0,0,0,43.78-9.11,113.18,113.18,0,0,0,36.65-26.34h0l.18-.19c21.2-21.93,32.81-49.92,32.7-78.85,0-.76,0-1.46,0-2.06a118.5,118.5,0,0,0-11.82-50.94l.07,0-1.37-2.63q-1.11-2.24-2.31-4.45l-.32-.6a150.08,150.08,0,0,0-13.78-21.48,139.89,139.89,0,0,0,16.15-26.19Zm-7.31-3.24a128.47,128.47,0,0,1-19.24,29.5,140.48,140.48,0,0,1,17.14,25.46h0l.06.1.12.23h0c9.39,17.29,14.57,35.74,14.55,54.41,0,.59,0,1.27,0,2,.13,27.39-11,53.25-30.55,73.45h0v0l-.15.15h0a105.77,105.77,0,0,1-34.05,24.51A100.36,100.36,0,0,1,284.78,445h0q-35,.53-63.29.52c-7.81,0-15.45.09-22.88.25q-11.69.28-21.08.27H157a38.47,38.47,0,0,1-18.78-4.48,31.84,31.84,0,0,1-14.54-17.07,37.63,37.63,0,0,1-2.16-12.89V99.4A34.92,34.92,0,0,1,124,86.05a31,31,0,0,1,9.19-12.32c8.25-6.49,16.94-7.67,24.27-7.73H285c27.39-.22,53.19,10.79,72.6,30.51h0c19.52,18.94,31.4,43.22,32.57,69.38h0c.13,2.26.21,4.52.21,6.8,0,18.17-4.48,36.32-12.72,53.84Z"/><path class="cls-2" d="M309.58,302.85l-.15-.19a36.12,36.12,0,0,0-11.82-10.27,28.12,28.12,0,0,0-13.16-3H189.34v88.24h95.11a26.44,26.44,0,0,0,11.71-2.72A45.27,45.27,0,0,0,309.1,365c8.94-10,12-18.28,12.18-28.37-.13-13.88-3.75-23.9-11.55-33.61Zm-6.35,56.74a38,38,0,0,1-10.49,8.1,18.46,18.46,0,0,1-8.29,1.95H197.34V297.4H284.4a19.93,19.93,0,0,1,9.55,2.11,28.64,28.64,0,0,1,9.21,8.12l.33.41c6.82,8.49,9.66,16.78,9.79,28.58C313.16,343.78,311.38,350.44,303.23,359.59Z"/><path class="cls-2" d="M297.92,136.14a29.94,29.94,0,0,0-13-2.82H190.38v87.62l94.34-.42h.51l1.56,0a26.76,26.76,0,0,0,12.78-2.91c3.64-1.91,7.29-4.91,11.12-10l.23-.32.29-.35c6.82-8.56,10.48-18.62,10.59-33.71-.17-10.49-3.14-18.34-11.24-27.45A41.28,41.28,0,0,0,297.92,136.14Zm7.1,65.78-.41.5-.31.43a25.83,25.83,0,0,1-8.38,7.68,18.84,18.84,0,0,1-9.13,2l-1.27,0-.67,0-86.47.39V141.32h86.55a21.74,21.74,0,0,1,9.58,2.06,33.53,33.53,0,0,1,10.12,7.82c6.52,7.35,9,13.36,9.17,22.12C313.69,185.78,311.05,194.36,305,201.92Z"/></g></svg>