<svg id="Layer_1" data-name="Layer 1" xmlns="http://www.w3.org/2000/svg" viewBox="0 0 512 512"><defs><style>.cls-1{fill:#0267ff;}</style></defs><path class="cls-1" d="M387.46,76.92a30.42,30.42,0,0,0-16.13-9.81,42.38,42.38,0,0,0-11.26-1.61,32.75,32.75,0,0,0-20.31,6.83,34.91,34.91,0,0,0-11.43,16.74l.05-.15L256.21,301.39,184.39,87.94l-.11-.32A32.94,32.94,0,0,0,173,72,31.79,31.79,0,0,0,154,65.82a40.43,40.43,0,0,0-9.82,1.27l-.56.15a38.54,38.54,0,0,0-16.41,8.81,29.87,29.87,0,0,0-6.89,9.73,29.47,29.47,0,0,0-2.48,11.91,37.37,37.37,0,0,0,1.2,9.15l.49,1.65L225,421.82h0A39,39,0,0,0,234,437.44a30.13,30.13,0,0,0,21.43,9.05c.94,0,1.57,0,1.95-.06l1.45-.13a32.52,32.52,0,0,0,10.68-3.11,26.83,26.83,0,0,0,9.74-8.27,31.35,31.35,0,0,0,4-6.55,52.67,52.67,0,0,0,2.52-6.74l105.93-312h0A40.37,40.37,0,0,0,394.21,96,29.61,29.61,0,0,0,387.46,76.92Z"/></svg>