<svg id="Layer_1" data-name="Layer 1" xmlns="http://www.w3.org/2000/svg" viewBox="0 0 512 512"><defs><style>.cls-1{fill:#fff;}</style></defs><path class="cls-1" d="M364.91,371.62H227.35L396.71,125.41A41.58,41.58,0,0,0,364.91,57H147.09a41.62,41.62,0,0,0,0,83.23H285.5L118.42,383.13A42.06,42.06,0,0,0,148,455q1.8,0,3.6-.15H364.91a41.62,41.62,0,0,0,0-83.23Zm0,75.23H151.28a33.75,33.75,0,0,1-26.76-58.47l176.2-256.15H147.09a33.62,33.62,0,0,1,0-67.23H364.91a33.58,33.58,0,0,1,25.44,55.53L212.14,379.62H364.91a33.62,33.62,0,0,1,0,67.23Z"/></svg>