<svg id="Layer_1" data-name="Layer 1" xmlns="http://www.w3.org/2000/svg" viewBox="0 0 512 512"><defs><style>.cls-1{fill:#999;}</style></defs><path class="cls-1" d="M382.24,68A33,33,0,0,0,369.5,65.5a38.54,38.54,0,0,0-4.94.33h0l-.36,0-.13,0h0a34.15,34.15,0,0,0-10.93,3.23,31.1,31.1,0,0,0-14.06,14,36.9,36.9,0,0,0-3.64,16.53V287.26c0,15.79-2.33,29.16-6.57,40.46a78.49,78.49,0,0,1-18.68,28.93l-.28.28c-15.09,15-31.35,21.85-54.17,22.09-22.39-.24-38.48-7-53.63-22.07-15.91-16.67-24.34-38.4-24.5-70.21V99.15a37.67,37.67,0,0,0-1.84-11.92A31,31,0,0,0,162.4,70.42a35.13,35.13,0,0,0-18.27-4.75,37.67,37.67,0,0,0-11.92,1.84A31,31,0,0,0,115.4,80.88a35.13,35.13,0,0,0-4.75,18.27V286.74c-.19,47.24,14.56,88.66,44.63,119l.22.23c26.73,26.68,61.73,40.76,100,40.54,38.24.21,73.32-13.84,100.37-40.42l.13-.14c30.56-30,45.57-71.37,45.37-118.68V99.67c-.06-6.71-1.1-14.88-7.28-22.82A29.83,29.83,0,0,0,382.24,68Z"/></svg>