<svg id="Layer_1" data-name="Layer 1" xmlns="http://www.w3.org/2000/svg" viewBox="0 0 512 512"><defs><style>.cls-1{fill:#0267ff;}</style></defs><path class="cls-1" d="M404.6,66.13h0a33.79,33.79,0,0,0-6.25-.61,27.7,27.7,0,0,0-18.72,7.11,33.59,33.59,0,0,0-9.28,15L255.2,334.9,141.42,86.65a33.25,33.25,0,0,0-10.43-15,28.73,28.73,0,0,0-18-6.12,35.64,35.64,0,0,0-6.87.69h0A29.76,29.76,0,0,0,87.32,77.77c-5.18,7-6.78,15.36-6.73,22V413.07A40,40,0,0,0,82.32,425a29.58,29.58,0,0,0,27.62,21.48h.23l1.8,0c6.58,0,14.63-1.37,22-8.09a31.23,31.23,0,0,0,8-12.34,38.77,38.77,0,0,0,2.13-13V248.79l82.48,177.64.16.32a38.17,38.17,0,0,0,10.51,13.59,28.06,28.06,0,0,0,17.4,6.14A30.46,30.46,0,0,0,272,441.11a36.47,36.47,0,0,0,11.91-14.34l.14-.3q53.38-114.32,83.45-178.82V413.07a39.2,39.2,0,0,0,2.05,12.79c2.18,6.78,7.48,13.32,13.28,16.5a32.27,32.27,0,0,0,16.39,4.12c6.38-.08,13.77-1,21.2-7.05a30.22,30.22,0,0,0,8.54-12,36.14,36.14,0,0,0,2.46-13.36V100.34c.07-7-1.79-15.94-7.36-23A30.7,30.7,0,0,0,404.6,66.13Z"/></svg>