<svg id="Layer_1" data-name="Layer 1" xmlns="http://www.w3.org/2000/svg" viewBox="0 0 512 512"><defs><style>.cls-1{isolation:isolate;}.cls-2{fill:#ff0;}</style></defs><g class="cls-1"><path class="cls-2" d="M365.67,382.41,265.9,294.7h9.36c17.58,0,33.85-3.07,48.33-9.13a107.14,107.14,0,0,0,39.34-28.27l.51-.6c18.89-22.27,28.79-50,28.63-80.14.16-30.22-9.74-58-28.68-80.3l-.65-.74c-21.45-24-52.09-37.59-86.31-38.23h-114A47.75,47.75,0,0,0,148,59.41a39.68,39.68,0,0,0-21.76,16.7,43.19,43.19,0,0,0-6.32,23.14V413a43.69,43.69,0,0,0,2.47,14.77,38.87,38.87,0,0,0,17.67,20.87,44.19,44.19,0,0,0,21.64,5.27c11.31-.06,20.59-3.2,28.41-9.64A38.14,38.14,0,0,0,201,429a42.46,42.46,0,0,0,2.86-15.52V339.08l100.4,101,1.61,1.68a42.09,42.09,0,0,0,29.69,13h.32c.75,0,1.35,0,1.81,0l.44,0a44.5,44.5,0,0,0,26.58-10.76l.18-.15,2.69-2.67.21-.24a48.11,48.11,0,0,0,11.26-21.49,35.82,35.82,0,0,0,.79-7.41A37.16,37.16,0,0,0,374.57,393,45.52,45.52,0,0,0,365.67,382.41Zm5.6,35.27c-1.75,7.83-5.55,13.34-9.51,17.94l-2.3,2.28a36.44,36.44,0,0,1-21.7,8.77l-.35,0c-.38,0-.88,0-1.49,0-9.91.11-18.9-5-24.23-10.52l0,0L195.9,319.68v93.83a34.29,34.29,0,0,1-2.31,12.6,30.22,30.22,0,0,1-8.61,12c-7.9,6.52-16.46,7.76-23.32,7.79a36.22,36.22,0,0,1-17.8-4.31A30.62,30.62,0,0,1,130,425.17a35.81,35.81,0,0,1-2-12.17V99.25a35.36,35.36,0,0,1,5.14-19,31.6,31.6,0,0,1,17.29-13.24,39.79,39.79,0,0,1,12.08-1.78H276.32c31.43.59,60.18,12.86,80.46,35.56l.56.65c17.69,20.87,26.88,47.12,26.73,75,.15,27.89-9,54.14-26.73,75l-.4.47a99.91,99.91,0,0,1-36.42,26.18c-13.93,5.83-29.24,8.53-45.33,8.52h-30.5L360.2,388.26l.12.1a37.31,37.31,0,0,1,7.39,8.79,28.94,28.94,0,0,1,4.17,14.78A27.69,27.69,0,0,1,371.27,417.68Z"/><path class="cls-2" d="M292.32,216.07a30.88,30.88,0,0,0,11.74-8.8l.33-.38c6.56-7.64,10-16.35,10.14-30.37C314.39,163,311,154.13,304.21,146c-7.58-8.35-15.71-12.41-30.31-13.22H195.81l-.35,86.53h79C282,219.25,287.73,218,292.32,216.07Zm-88.82-4.81.28-70.53h69.89c13.14.77,19,4.43,24.51,10.47,5.8,7,8.23,14.38,8.35,25.32-.13,11.23-2.51,18.52-8.19,25.14l-.38.43a22.83,22.83,0,0,1-8.78,6.62,37.3,37.3,0,0,1-14.69,2.55Z"/><polygon class="cls-2" points="330.43 421.9 330.55 422 330.44 421.89 330.43 421.9"/></g></svg>