<svg id="Layer_1" data-name="Layer 1" xmlns="http://www.w3.org/2000/svg" viewBox="0 0 512 512"><defs><style>.cls-1{fill:#ff5dad;}</style></defs><path class="cls-1" d="M385.74,383.18a34.43,34.43,0,0,0-19.11-5.41H181.05V288H316.94a38.07,38.07,0,0,0,12.17-1.88,31.44,31.44,0,0,0,17.09-13.58A35.85,35.85,0,0,0,351,253.91a39.57,39.57,0,0,0-1.79-12.14A31.76,31.76,0,0,0,336,224.43a35.42,35.42,0,0,0-19-5.15H180.52V134.23H366.11a36.28,36.28,0,0,0,12.54-2.12,31.24,31.24,0,0,0,16.71-14.31,37.6,37.6,0,0,0,4.33-18.2,39.19,39.19,0,0,0-1.75-11.88,31.41,31.41,0,0,0-13.11-17.13,34.82,34.82,0,0,0-18.72-5.09H145.37a36,36,0,0,0-12.85,2.26A31.4,31.4,0,0,0,115.93,82.5a38.64,38.64,0,0,0-4.14,18.15V411.87A39.82,39.82,0,0,0,113.58,424a31.77,31.77,0,0,0,13.3,17.36,35.43,35.43,0,0,0,19,5.14H366.63a37.29,37.29,0,0,0,12.25-2,31.21,31.21,0,0,0,16.8-13.88,36.4,36.4,0,0,0,4.53-18.24,40.48,40.48,0,0,0-1.67-11.84A31.7,31.7,0,0,0,385.74,383.18Z"/></svg>