<svg id="Layer_1" data-name="Layer 1" xmlns="http://www.w3.org/2000/svg" viewBox="0 0 512 512"><defs><style>.cls-1{fill:#0267ff;}</style></defs><path class="cls-1" d="M117.81,364.47s2.3,62.27,65.78,78.13c0,0,.94.22,1.4.33a93.89,93.89,0,0,0,17.13,3.2h0c2.85.26,5.74.4,8.66.4,51.66,0,93.54-41.69,93.54-93.12q0-3.89-.32-7.71L301.35,133H359.7c19.22,0,34.81-13.95,34.81-31.15V96.61c0-11.78-7.32-22-18.12-27.33v-.06a38.67,38.67,0,0,0-12.06-3.53h-.55a39.23,39.23,0,0,0-4.08-.22H158.11a38.89,38.89,0,0,0-5.43.38,34.67,34.67,0,0,0-8.58,1.83A31.38,31.38,0,0,0,127.7,81a36.69,36.69,0,0,0-5,17.39l0,1.1a36.52,36.52,0,0,0,1.89,11.94,31,31,0,0,0,13.59,16.75,34.51,34.51,0,0,0,15.57,4.52,40.17,40.17,0,0,0,4.41.26H233s-.47,213.14-.45,213.35c0,0-.3,15.15-.29,15.22-1.45,10.53-6.15,23.15-19.89,26.75-8.13,1.13-17.93-4.48-18-4.55l-.34-.25a23.8,23.8,0,0,1-9-17.23v0c0-.47-.46-4.43-.56-5.87l-.26-9v0A39,39,0,0,0,183,343h0c-3.73-15.11-16.16-26.06-30.63-25.63l-5.13.15c-17,.51-30.32,16.49-29.77,35.7Z"/></svg>