<svg id="Layer_1" data-name="Layer 1" xmlns="http://www.w3.org/2000/svg" viewBox="0 0 512 512"><defs><style>.cls-1{fill:#ff0;isolation:isolate;}</style></defs><path class="cls-1" d="M417,85.22a39.34,39.34,0,0,0-16.86-21.55,43.26,43.26,0,0,0-22.76-6.08,46.92,46.92,0,0,0-14.52,2.2,39.5,39.5,0,0,0-21.66,16.95,43.6,43.6,0,0,0-6.1,22.89V214.22H176.91V99.62a46.54,46.54,0,0,0-2.18-14.4,39.31,39.31,0,0,0-16.85-21.55,43.37,43.37,0,0,0-22.77-6.08,46.9,46.9,0,0,0-14.51,2.2A39.5,39.5,0,0,0,98.94,76.74a43.51,43.51,0,0,0-6.11,22.89V412.91a45,45,0,0,0,2.31,14.56,38.89,38.89,0,0,0,17.28,21.26,43.41,43.41,0,0,0,22.21,5.68,47.44,47.44,0,0,0,14.12-2,39.55,39.55,0,0,0,21.67-16.3,42.24,42.24,0,0,0,6.49-23.18V298.82H335.09V412.91a44.93,44.93,0,0,0,2.31,14.56,38.83,38.83,0,0,0,17.27,21.26,43.41,43.41,0,0,0,22.19,5.68h0a47.54,47.54,0,0,0,14.12-2,39.58,39.58,0,0,0,21.67-16.3,42.22,42.22,0,0,0,6.49-23.18V99.61A46.43,46.43,0,0,0,417,85.22Zm-5.82,327.67a34.67,34.67,0,0,1-5.23,18.88,31.52,31.52,0,0,1-17.22,12.94,39.71,39.71,0,0,1-11.84,1.7,35.75,35.75,0,0,1-18.25-4.63A31.09,31.09,0,0,1,345,425a37,37,0,0,1-1.91-12.09V290.82H168.91V412.89a34.5,34.5,0,0,1-5.23,18.88,31.52,31.52,0,0,1-17.22,12.94,39.71,39.71,0,0,1-11.84,1.7,35.78,35.78,0,0,1-18.25-4.63A31.09,31.09,0,0,1,102.74,425a37.53,37.53,0,0,1-1.91-12.09V99.63a35.63,35.63,0,0,1,5-18.78A31.59,31.59,0,0,1,123,67.42a38.82,38.82,0,0,1,12.14-1.83,35.18,35.18,0,0,1,18.64,5A31.38,31.38,0,0,1,167.1,87.61a38.43,38.43,0,0,1,1.81,12V222.22H343.09V99.63a35.53,35.53,0,0,1,5-18.78,31.6,31.6,0,0,1,17.18-13.43,38.87,38.87,0,0,1,12.14-1.83A35.23,35.23,0,0,1,396,70.53a31.43,31.43,0,0,1,13.34,17.08,39,39,0,0,1,1.81,12Z"/></svg>