<svg id="Layer_1" data-name="Layer 1" xmlns="http://www.w3.org/2000/svg" viewBox="0 0 512 512"><defs><style>.cls-1{isolation:isolate;}.cls-2{fill:#ff0;}</style></defs><g class="cls-1"><polygon class="cls-2" points="324.22 363.54 324.22 363.53 322.06 361.06 324.22 363.54"/><path class="cls-2" d="M308.6,166.24c-24.29-21.52-56.27-32.9-100.17-33.05-11,.26-26,.42-45.17.48v128.8q.3,82.54.43,115.62c11.11.14,20.1.21,26.91.21,2.79,0,5.27,0,7.34,0l.5-.49h9.33c42-.14,73.73-11.48,99.44-33.74,13.09-11.49,22.42-24.14,28.75-38.54s9.63-30.75,9.64-49.75c0-19.68-3.27-36.52-9.39-51.13A105.38,105.38,0,0,0,308.6,166.24Zm20,136C322.71,315.77,314,327.46,302,338c-24.9,21.55-54.84,31.65-94.2,31.78H195.13l-.52.52h-4c-5.08,0-11.42,0-18.94-.12q-.14-34.29-.4-107.71V141.64c15.53-.08,27.77-.23,37.25-.45,40.38.16,71.38,10.31,94.75,31a97.71,97.71,0,0,1,25.57,35.5c5.89,14.07,8.76,29.79,8.77,48C337.59,273.28,334.66,288.51,328.64,302.27Z"/><path class="cls-2" d="M408.91,173.84a178.64,178.64,0,0,0-48.69-65.09l-.19-.15c-40.32-33.91-92.23-51.1-154.3-51.1H137.44a51.56,51.56,0,0,0-34.16,13.37A54.26,54.26,0,0,0,93,83.13a40,40,0,0,0-5.9,20.66V414.94a35.38,35.38,0,0,0,8.27,22.66,43.51,43.51,0,0,0,11.94,9.89,53.39,53.39,0,0,0,26.93,7h73.55c61,0,112.31-17.41,152.58-51.78l.16-.14c21.37-18.44,37.67-40.32,48.43-65,10.64-24.37,16-51.8,16-81.55C425,225.92,419.56,198.27,408.91,173.84Zm-7.32,160.51a173.44,173.44,0,0,1-46.32,62.17l-.16.14c-39.31,33.55-90,50-148,49.84H134.39a45.67,45.67,0,0,1-23.09-5.92,35.52,35.52,0,0,1-9.84-8.12A27.55,27.55,0,0,1,95.05,415V103.79A32.13,32.13,0,0,1,99.8,87.27a45.76,45.76,0,0,1,8.88-10.49A43.57,43.57,0,0,1,138.05,65.5h67.09c59.07-.1,110.23,16,149.74,49.22l0,0,.11.09A170.93,170.93,0,0,1,401.57,177C412,200.88,417,227.44,417,256,417,284.25,412,310.6,401.59,334.35Z"/></g></svg>