<svg id="Layer_1" data-name="Layer 1" xmlns="http://www.w3.org/2000/svg" viewBox="0 0 512 512"><defs><style>.cls-1{fill:#ff0;isolation:isolate;}</style></defs><path class="cls-1" d="M423.57,83.38a39.73,39.73,0,0,0-18.88-20.95,47.65,47.65,0,0,0-21.86-4.93H128.63a49.56,49.56,0,0,0-14.14,2,39.72,39.72,0,0,0-22,16,42.5,42.5,0,0,0-6.92,23.83,44.18,44.18,0,0,0,2.67,15.46,39.64,39.64,0,0,0,18.4,21.12,45.86,45.86,0,0,0,22,5.16h84.3V412.93a44,44,0,0,0,2.34,14.37A39.68,39.68,0,0,0,231,447.47a44.41,44.41,0,0,0,20.26,6.81l.32,0c1.52.12,3,.19,4.52.19h0a44.52,44.52,0,0,0,14.23-2.25,38.31,38.31,0,0,0,21-17,42.51,42.51,0,0,0,5.61-21.8V141h85.9c11.87,0,21.55-3.36,29.62-10.15a39,39,0,0,0,11.06-15.66,45.58,45.58,0,0,0,0-31.81Zm-7.5,28.93a31.19,31.19,0,0,1-8.76,12.44c-8.11,6.82-17.12,8.22-24.48,8.25H289V413.45a34.8,34.8,0,0,1-4.55,17.83,30.54,30.54,0,0,1-16.5,13.36,36.5,36.5,0,0,1-11.77,1.86c-1.29,0-2.56-.06-3.85-.17l-.28,0a36.78,36.78,0,0,1-16.67-5.58,31.45,31.45,0,0,1-12.48-16,35.86,35.86,0,0,1-1.92-11.81V133h-92.3a38.4,38.4,0,0,1-18.3-4.26A31.47,31.47,0,0,1,95.78,112a36.69,36.69,0,0,1-2.2-12.77,34.59,34.59,0,0,1,5.57-19.38,32,32,0,0,1,17.56-12.72,41.51,41.51,0,0,1,11.93-1.65H382.83a39.61,39.61,0,0,1,18.3,4.09,31.48,31.48,0,0,1,14.94,16.6,37.47,37.47,0,0,1,0,26.12Z"/></svg>