<svg id="Layer_1" data-name="Layer 1" xmlns="http://www.w3.org/2000/svg" viewBox="0 0 512 512"><defs><style>.cls-1{fill:#fff;}</style></defs><path class="cls-1" d="M384.39,64.63v-.3L380,62.1a46.36,46.36,0,0,0-14.66-4.34l-.52-.07h-.68c-1.52-.14-3-.22-4.48-.22H158.11a47.85,47.85,0,0,0-6.33.43,42.79,42.79,0,0,0-10.26,2.21A39.31,39.31,0,0,0,120.8,76.93a44.56,44.56,0,0,0-6.12,21v.11l0,1.41a44.49,44.49,0,0,0,2.28,14.41,38.68,38.68,0,0,0,17.25,21.21A42,42,0,0,0,153,140.66a46.78,46.78,0,0,0,5.08.29H225c-.39,173.84-.45,200.69-.42,205.19h0c-.18,9.16-.25,13-.27,14.68-1.58,10.84-6.1,17.42-13.44,19.57-.23,0-.48,0-.74,0-4.13,0-9.32-2.32-11.32-3.39A15.78,15.78,0,0,1,193,365.76l0-.35,0-.13c0-.39-.09-1-.16-1.64-.12-1.17-.3-2.9-.35-3.7l-.26-8.89a47,47,0,0,0-1.38-9.93c-4.61-18.69-20.07-31.73-37.58-31.73h-1.06l-5.13.15c-21.37.64-38.21,20.35-37.53,43.92l.31,11.3a99.61,99.61,0,0,0,9.88,36.31c8.51,17.55,26.16,40.34,62,49.28l1,.24h0l.32.07a102.33,102.33,0,0,0,18.42,3.42c3.16.29,6.32.44,9.39.44,56,0,101.54-45.36,101.54-101.12,0-2.65-.11-5.37-.33-8.08L309.45,141H359.7c23.6,0,42.81-17.56,42.81-39.15V96.61C402.51,83.77,395.68,71.91,384.39,64.63Zm10.12,37.17c0,17.2-15.59,31.15-34.81,31.15H301.35L304,345.7q.31,3.82.32,7.71c0,51.43-41.88,93.12-93.54,93.12-2.92,0-5.81-.14-8.66-.4h0a93.62,93.62,0,0,1-17.12-3.2c-.47-.11-1.45-.35-1.41-.33-63.48-15.86-65.78-78.13-65.78-78.13l-.3-11.22c-.55-19.21,12.77-35.19,29.77-35.7l5.13-.15C166.88,317,179.31,327.92,183,343h0a39,39,0,0,1,1.15,8.25v0l.26,9c.1,1.44.54,5.4.56,5.87v0a23.8,23.8,0,0,0,9,17.23l.34.25c.08.07,9.88,5.68,18,4.55,13.74-3.6,18.44-16.22,19.89-26.75,0-.07.29-15.22.29-15.22,0-.21.45-213.35.45-213.35h-74.9a40.17,40.17,0,0,1-4.41-.26,34.51,34.51,0,0,1-15.57-4.52,31,31,0,0,1-13.59-16.75,36.52,36.52,0,0,1-1.89-11.94l0-1.1a36.69,36.69,0,0,1,5-17.39,31.38,31.38,0,0,1,16.4-13.31,34.67,34.67,0,0,1,8.58-1.83,38.89,38.89,0,0,1,5.43-.38H359.7a39.23,39.23,0,0,1,4.08.22h.55a38.67,38.67,0,0,1,12.06,3.53v.06c10.8,5.29,18.12,15.55,18.12,27.33Z"/></svg>