<svg id="Layer_1" data-name="Layer 1" xmlns="http://www.w3.org/2000/svg" viewBox="0 0 512 512"><defs><style>.cls-1{fill:#92ff9f;isolation:isolate;}</style></defs><path class="cls-1" d="M406.63,397a39.78,39.78,0,0,0-18.44-21.17,45.89,45.89,0,0,0-22-5.18H186.93V98.8a43.58,43.58,0,0,0-2.31-14.28A38.87,38.87,0,0,0,168.29,64a43.22,43.22,0,0,0-20.81-6.23c-1.33-.09-2.49-.13-3.64-.13a44.9,44.9,0,0,0-14.18,2.2A38.59,38.59,0,0,0,108.49,76.7a42.45,42.45,0,0,0-5.8,22.11V413a43.81,43.81,0,0,0,2.65,15.3,39.34,39.34,0,0,0,18.33,21,45.37,45.37,0,0,0,21.67,5.07H366.16a49.68,49.68,0,0,0,14.15-2,39.82,39.82,0,0,0,22.06-16,42.58,42.58,0,0,0,6.94-23.88A44.18,44.18,0,0,0,406.63,397Zm-10.91,34.94a32.13,32.13,0,0,1-17.62,12.78,42.06,42.06,0,0,1-12,1.64H145.34a37.67,37.67,0,0,1-18-4.18,31.16,31.16,0,0,1-14.47-16.55A36.14,36.14,0,0,1,110.69,413V98.81a34.8,34.8,0,0,1,4.71-18.07,30.74,30.74,0,0,1,16.69-13.27,37.1,37.1,0,0,1,11.77-1.82c1.08,0,2.12,0,3.13.12h0a35.61,35.61,0,0,1,17.16,5.08A30.93,30.93,0,0,1,177,87.05a36.08,36.08,0,0,1,1.9,11.76V378.64H366.15a38.3,38.3,0,0,1,18.35,4.28,31.49,31.49,0,0,1,14.6,16.77,36.69,36.69,0,0,1,2.21,12.81A34.64,34.64,0,0,1,395.72,431.93Z"/></svg>