<svg id="Layer_1" data-name="Layer 1" xmlns="http://www.w3.org/2000/svg" viewBox="0 0 512 512"><defs><style>.cls-1{fill:#e7395e;}</style></defs><path class="cls-1" d="M359.18,100.77l0,0c-20.34-23.34-49.78-35.61-81.72-35.31H160.23c-6.9,0-15.37,1.22-23.35,7.64a30.36,30.36,0,0,0-8.77,12,33.94,33.94,0,0,0-2.38,12.75V413.05a37.79,37.79,0,0,0,1.77,11.77,30.94,30.94,0,0,0,13.14,16.82,34.36,34.36,0,0,0,17.51,4.85q1.33.09,2.67.09a35.78,35.78,0,0,0,12.05-2,30.64,30.64,0,0,0,16.45-13.76,35.87,35.87,0,0,0,4.36-17.79V289.42h83c16.21,0,31.69-2.83,45.77-8.9a102.52,102.52,0,0,0,36.78-27.07c18.18-20.64,27.16-47.54,27-76.55.15-28.74-8.89-55.46-27-76Zm-64.6,116.29a43.66,43.66,0,0,1-17.87,3.35h-83V132.85h82.5c14.88.29,23.25,4.16,31.55,13,7,8.14,10.43,17,10.59,30.79-.16,13.38-3.55,22.09-10.65,30.33l-.16.18-.14.16A35,35,0,0,1,294.58,217.06Z"/></svg>