<svg id="Layer_1" data-name="Layer 1" xmlns="http://www.w3.org/2000/svg" viewBox="0 0 512 512"><defs><style>.cls-1{fill:#92ff9f;isolation:isolate;}</style></defs><path class="cls-1" d="M400.35,72.13A38,38,0,0,0,385.3,60.8a40.81,40.81,0,0,0-14.17-3l-.1-.51-7.37.84-.47.06-9,1.2.2.82a40.19,40.19,0,0,0-4.73,2,39.37,39.37,0,0,0-17.78,17.75,44.66,44.66,0,0,0-4.44,20V287.5c0,14.25-2,26.92-6.05,37.64a71,71,0,0,1-16.83,26.07l-.29.29c-13.66,13.61-28.18,19.52-48.53,19.75-20.21-.23-34.1-5.93-47.91-19.66-15-15.77-22.08-36.32-22.22-64.62V99.37A45.41,45.41,0,0,0,183.38,85a38.8,38.8,0,0,0-16.94-21.27,42.67,42.67,0,0,0-22.33-5.84,45.25,45.25,0,0,0-14.34,2.22A38.8,38.8,0,0,0,108.5,77.08a42.63,42.63,0,0,0-5.85,22.31V286.94c-.2,50.38,16,93.48,46.95,124.66l.25.25c28.1,28.06,64.32,42.89,104.75,42.89h1.71C296.67,454.74,333,440,361.46,412l.17-.18C393.07,381,409.57,338,409.35,287.5V99.84C409.29,92.83,408.29,82.33,400.35,72.13Zm1,215.37c.2,47.3-14.81,88.71-45.37,118.68l-.13.13c-27.05,26.59-62.13,40.63-100.37,40.42-38.25.22-73.25-13.85-100-40.54l-.23-.23c-30.07-30.32-44.82-71.74-44.63-119V99.39a35.2,35.2,0,0,1,4.75-18.27,30.94,30.94,0,0,1,16.81-13.37,37.11,37.11,0,0,1,11.92-1.84,35.13,35.13,0,0,1,18.27,4.75,31,31,0,0,1,13.37,16.8,37.77,37.77,0,0,1,1.84,11.93V287c.16,31.81,8.59,53.55,24.5,70.22,15.15,15.09,31.25,21.83,53.63,22.06,22.82-.23,39.08-7,54.17-22.09l.28-.27A78.64,78.64,0,0,0,328.88,328c4.23-11.31,6.56-24.68,6.56-40.46V99.91a36.9,36.9,0,0,1,3.64-16.53,31.13,31.13,0,0,1,14.06-14,34.38,34.38,0,0,1,10.93-3.22h.13l.36,0h0a40.44,40.44,0,0,1,4.94-.32,33.13,33.13,0,0,1,12.74,2.45,30,30,0,0,1,11.83,8.89c6.18,8,7.22,16.12,7.28,22.83Z"/></svg>