<svg id="Layer_1" data-name="Layer 1" xmlns="http://www.w3.org/2000/svg" viewBox="0 0 512 512"><defs><style>.cls-1{isolation:isolate;}.cls-2{fill:#92ff9f;}</style></defs><g class="cls-1"><path class="cls-2" d="M191.83,107.08l0,0-.11.08Z"/><path class="cls-2" d="M391.46,271.13c-11.43-16.44-28.14-30.22-49.67-41l-.21-.11-2.81-1.2-.21-.08c-31-11.23-62.75-22.58-94.4-33.72-15.92-6.56-23.16-13.22-26.07-16.63-4-4.86-5.37-8.4-5.5-14.45a10.89,10.89,0,0,1,1.52-5.89c1.48-2.52,4.14-5.14,7.94-7.79l.1-.07c9.37-6.55,19.74-9.5,33.6-9.57H256c22.77,0,36.29,3.6,43.59,6.6,10.46,4.37,14.22,9,16.73,13.39l4.15,7.22.54-.34a40,40,0,0,0,8.14,7.49,38.86,38.86,0,0,0,21.63,6.83h.35a44.81,44.81,0,0,0,14.7-2.38A38.65,38.65,0,0,0,387,162a44,44,0,0,0,5.5-22,48.65,48.65,0,0,0-2.59-15.29,32.52,32.52,0,0,0-2.33-5.28c-11.73-21.06-30.27-37.57-53.61-47.73-21.67-9.52-47.25-14.16-78.17-14.18h-.42a139.86,139.86,0,0,0-79.22,24h0c-14.52,9.75-25.74,21.65-33.33,35.35a96.12,96.12,0,0,0-11.78,47c-.08,22.07,6.2,42.81,18.16,60,11.44,16.54,28.18,30.37,49.75,41.12l.21.11,2.79,1.19.21.08,94.24,34.12c16.14,6.61,23.46,13.22,26.41,16.61,3.93,4.67,5.18,7.84,5.31,13.46,0,7.38-1.15,13.4-3.44,18.36a29,29,0,0,1-9.52,11.45l-.16.13c-9.57,7.3-22.81,10.87-40.48,10.92s-37.44-4.71-58.37-14C197.53,348.81,182.37,339,171,328.31c-5.61-5.68-15.76-11.7-27.52-11.7h-.4a43.35,43.35,0,0,0-14.93,2.55A38.81,38.81,0,0,0,107.45,337a44.05,44.05,0,0,0-5.11,21.33,43.24,43.24,0,0,0,10.55,28.32l.09.1,1.73,1.83.14.13c18.05,17.24,41,32.16,68.34,44.34h0l.25.11c30.85,14.14,61.47,21.31,91.05,21.31h.43c34.83,0,64.64-9,88.55-26.8a110.74,110.74,0,0,0,34.86-42.18c7.53-16.09,11.35-34.5,11.33-54.67C409.75,308.9,403.45,288.24,391.46,271.13Zm-.37,111a102.15,102.15,0,0,1-32.36,39.12c-23.2,17.25-52.19,25.32-84.22,25.25-29,0-58.41-7.13-87.82-20.62h0l-.2-.09,0,0h0C160.37,414.14,138.22,400,120.38,383l-1.52-1.59a35.11,35.11,0,0,1-8.52-22.91,36.58,36.58,0,0,1,4.19-17.69,30.61,30.61,0,0,1,16.33-14.06,35.47,35.47,0,0,1,12.27-2.09c8.91-.13,17.35,4.35,22.31,9.41,11.65,11.05,27.34,21.41,47.38,30.64,22.75,10.1,43.23,14.7,61.69,14.7,20.95-.06,35.14-4.79,45.31-12.56l.2-.15a37.15,37.15,0,0,0,11.88-14.39c2.59-5.63,4.18-12.66,4.19-21.84-.16-7.37-1.95-12.32-7.23-18.58C323.58,305.75,314,299,299.25,293l-94.4-34.18-2.36-1c-19.52-9.72-35.58-22.38-46.74-38.51s-16.81-35.37-16.74-55.4a87.73,87.73,0,0,1,10.77-43.13c7.23-13.06,17.94-24,30.94-32.7l-.09.06c22-15,47.84-22.67,75.11-22.59,28.57,0,53.58,4.11,75,13.5s38.83,24.53,49.84,44.31a24,24,0,0,1,1.73,3.91A40.39,40.39,0,0,1,384.46,140a36,36,0,0,1-4.5,18.1,30.88,30.88,0,0,1-16.65,13.76,37,37,0,0,1-12.16,2,30.67,30.67,0,0,1-17.36-5.37,34.2,34.2,0,0,1-10.5-11.82h0c-4-7-9.76-12.26-20.59-16.78s-26.49-7.25-47-7.22c-16.08.08-28,3.86-38.18,11l-.12.09c-5.39,3.77-8.49,7.29-10.27,10.36a18.8,18.8,0,0,0-2.58,9.88c.15,7.9,2.09,13.2,7.37,19.58,5.26,6.19,14.76,13,29.35,19q47.25,16.62,94.52,33.76l2.38,1c19.49,9.74,35.52,22.35,46.68,38.39a94.88,94.88,0,0,1,16.77,55.13C401.67,349.26,398.34,366.63,391.09,382.13Z"/></g></svg>