<svg id="Layer_1" data-name="Layer 1" xmlns="http://www.w3.org/2000/svg" viewBox="0 0 512 512"><defs><style>.cls-1{fill:#ff5dad;}</style></defs><path class="cls-1" d="M396,70.53a35.23,35.23,0,0,0-18.64-4.94,38.87,38.87,0,0,0-12.14,1.83,31.6,31.6,0,0,0-17.18,13.43,35.53,35.53,0,0,0-5,18.78V222.22H168.91V99.63a38.43,38.43,0,0,0-1.81-12,31.38,31.38,0,0,0-13.33-17.07,35.19,35.19,0,0,0-18.65-5A38.81,38.81,0,0,0,123,67.42,31.59,31.59,0,0,0,105.8,80.85a35.63,35.63,0,0,0-5,18.78V412.89A37.53,37.53,0,0,0,102.74,425a31.09,31.09,0,0,0,13.63,16.8,35.78,35.78,0,0,0,18.25,4.63,39.71,39.71,0,0,0,11.84-1.7,31.52,31.52,0,0,0,17.22-12.94,34.5,34.5,0,0,0,5.23-18.88V290.82H343.09V412.89A37,37,0,0,0,345,425a31.09,31.09,0,0,0,13.63,16.8,35.75,35.75,0,0,0,18.25,4.63,39.71,39.71,0,0,0,11.84-1.7,31.52,31.52,0,0,0,17.22-12.94,34.67,34.67,0,0,0,5.23-18.88V99.63a39,39,0,0,0-1.81-12A31.43,31.43,0,0,0,396,70.53Z"/></svg>