<svg id="Layer_1" data-name="Layer 1" xmlns="http://www.w3.org/2000/svg" viewBox="0 0 512 512"><defs><style>.cls-1{fill:#ff0;isolation:isolate;}</style></defs><path class="cls-1" d="M402.21,96.15a37.44,37.44,0,0,0-8.62-24.37,38.52,38.52,0,0,0-20.26-12.41,50.06,50.06,0,0,0-13.25-1.87h-.44A40.89,40.89,0,0,0,334.82,66a43,43,0,0,0-14,20.31L256.25,276.41,191.84,85a41.08,41.08,0,0,0-14-19.41,39.68,39.68,0,0,0-23.53-7.77h-.38a48.5,48.5,0,0,0-11.82,1.53l-.77.2a46.86,46.86,0,0,0-19.67,10.67A37.77,37.77,0,0,0,113,82.54a37.25,37.25,0,0,0-3.16,15.18,44.66,44.66,0,0,0,1.44,11l0,.18.58,2L217.37,424.34a47.08,47.08,0,0,0,10.83,18.59,38.46,38.46,0,0,0,26.61,11.57h.76c1.08,0,1.85-.05,2.28-.07H258l1.6-.14.3,0A40,40,0,0,0,273,450.39a34.5,34.5,0,0,0,12.63-10.62,39.86,39.86,0,0,0,4.79-7.89l.08-.18a59.49,59.49,0,0,0,2.86-7.6L399.26,112.16l2.65-7.8-.48-.15A45.43,45.43,0,0,0,402.21,96.15Zm-10.52,13.44-105.93,312a52.67,52.67,0,0,1-2.52,6.74,31.35,31.35,0,0,1-4,6.55,26.83,26.83,0,0,1-9.74,8.27,32.52,32.52,0,0,1-10.68,3.11l-1.45.13c-.38,0-1,.06-1.95.06A30.13,30.13,0,0,1,234,437.44,39,39,0,0,1,225,421.82h0L119.48,108.49l-.49-1.65a37.37,37.37,0,0,1-1.2-9.15,29.5,29.5,0,0,1,2.48-11.91,30,30,0,0,1,6.89-9.73,38.65,38.65,0,0,1,16.41-8.81l.56-.15A40.43,40.43,0,0,1,154,65.82,31.79,31.79,0,0,1,173,72a32.94,32.94,0,0,1,11.26,15.65l.11.32,71.82,213.45L328.38,88.92l-.05.15a34.91,34.91,0,0,1,11.43-16.74,32.82,32.82,0,0,1,20.31-6.83,42.38,42.38,0,0,1,11.26,1.61,30.42,30.42,0,0,1,16.13,9.81A29.62,29.62,0,0,1,394.21,96a40.35,40.35,0,0,1-2.53,13.58Z"/></svg>