<svg id="Layer_1" data-name="Layer 1" xmlns="http://www.w3.org/2000/svg" viewBox="0 0 512 512"><defs><style>.cls-1{fill:#999;}</style></defs><path class="cls-1" d="M410.46,217.83H256.25c-23.07,0-39.18,16.21-39.18,39.43s16.11,39.44,39.18,39.44H363c-6.46,15.6-16.52,29.64-30.35,42.42-23.11,20.11-48,29.88-76.16,29.88-32.44,0-59.41-10.82-82.33-33-22.85-22.33-33.95-48.35-33.95-79.53s11.08-56.92,33.88-78.9c23.1-22.27,50.13-33.1,82.66-33.1,35.84,0,64.53,12.57,87.65,38.4,7,9.38,17.8,14.69,30.16,14.69,23.07,0,39.18-16.11,39.18-39.18A40.19,40.19,0,0,0,406,135.05l-.78-1.09-.88-1c-38.78-44.66-88.44-67.3-147.59-67.3-53.17,0-99.38,18.65-137.44,55.54C81.18,158.53,61.85,203.89,61.85,256c0,52.46,19.16,97.82,57.07,134.92,38,36.79,84.15,55.44,137.33,55.44,42.9,0,81.29-12.93,114.53-38.57.28,22.74,16.52,38.57,39.68,38.57,23.37,0,39.69-16.1,39.69-39.15V256.47C450.15,233.72,433.83,217.83,410.46,217.83Z"/></svg>