<svg id="Layer_1" data-name="Layer 1" xmlns="http://www.w3.org/2000/svg" viewBox="0 0 512 512"><defs><style>.cls-1{fill:#e7395e;}</style></defs><path class="cls-1" d="M377.63,226.7l.07-.17c8.25-17.52,12.73-35.67,12.72-53.84,0-2.28-.07-4.54-.21-6.8h0c-1.17-26.16-13-50.44-32.57-69.38h0C338.23,76.79,312.43,65.78,285.05,66H157.58c-7.33.06-16,1.24-24.27,7.73a31.14,31.14,0,0,0-9.19,12.32,34.92,34.92,0,0,0-2.54,13.35V411.56a37.87,37.87,0,0,0,2.16,12.89,31.84,31.84,0,0,0,14.54,17.07A38.47,38.47,0,0,0,157.06,446h20.55q9.4,0,21.08-.27,11.15-.24,22.89-.25,28.29,0,63.28-.52h0a100.36,100.36,0,0,0,40.62-8.42,105.77,105.77,0,0,0,34-24.51h0l.15-.15v0h0c19.58-20.2,30.68-46.06,30.55-73.45,0-.74,0-1.42,0-2,0-18.67-5.16-37.12-14.55-54.41h0l-.12-.23-.06-.1h0a140.48,140.48,0,0,0-17.14-25.46A128.47,128.47,0,0,0,377.63,226.7ZM321.36,336.64c-.15,10.09-3.24,18.38-12.17,28.37a45.41,45.41,0,0,1-12.94,9.91,26.51,26.51,0,0,1-11.72,2.72H189.42V289.4h95.11a28.09,28.09,0,0,1,13.16,3,36.12,36.12,0,0,1,11.82,10.27l.15.19.15.18C317.61,312.74,321.23,322.76,321.36,336.64ZM190.46,133.32h94.59A29.93,29.93,0,0,1,298,136.14a41.28,41.28,0,0,1,12.64,9.69c8.1,9.11,11.07,17,11.24,27.45-.11,15.09-3.77,25.15-10.59,33.71l-.28.35-.24.32c-3.83,5.08-7.48,8.08-11.12,10a26.73,26.73,0,0,1-12.78,2.91l-1.56,0h-.51l-94.34.42Z"/></svg>