<svg id="Layer_1" data-name="Layer 1" xmlns="http://www.w3.org/2000/svg" viewBox="0 0 251.38 251.43"><defs><style>.cls-1{fill:#999;}</style></defs><path class="cls-1" d="M191,27.89C160.25,8,120.05,4.28,85.57,16.58,63.34,24.51,43.24,39,29.84,58.38,17.22,76.69,10.83,99,10.72,121.25c-.22,45.17,27,89.53,67.61,109.26,31.61,15.35,70.07,15,101.84.28a111,111,0,0,0,22-13.43c7.16-5.63,15-12.45,19.88-20.22,4.31-6.82,6.39-15.54,3.48-23.06-1.75-4.53-5.15-8.26-8.92-11.33-7.58-6.19-15.07-6.51-24.8-7.6-2-.23-6.08-.21-11.68,6.58-13.36,16.19-34.93,24.35-55.84,22.61a60,60,0,0,1-48.81-34.71l0-.08,124.89-.84c13.27-.09,30.72-.86,37.56-14.57,2.09-4.19,2.59-9,2.73-13.65C241.72,83.9,221.7,47.79,191,27.89ZM75,94.5S87.34,67,126.05,67s52,27.82,52,27.82S75,94.36,75,94.5Z"/></svg>