<svg id="Layer_1" data-name="Layer 1" xmlns="http://www.w3.org/2000/svg" viewBox="0 0 251.38 251.43"><defs><style>.cls-1{fill:#ff0;}</style></defs><path class="cls-1" d="M126.05,67C87.34,67,75,94.5,75,94.5s103,.28,103,.28S164.77,67,126.05,67ZM91.56,86.48C98.32,80.74,109.28,75,126.05,75s28.1,5.89,35.09,11.75C141.87,86.63,110.62,86.52,91.56,86.48Z"/><path class="cls-1" d="M195.32,21.18C175.46,8.31,151.79,1.5,126.89,1.5a130.5,130.5,0,0,0-44,7.55C58.3,17.82,37.12,33.73,23.25,53.84c-13.12,19-20.41,43-20.53,67.37-.23,48.62,28.74,95.44,72.11,116.5a124.93,124.93,0,0,0,54.29,12.21,130.3,130.3,0,0,0,54.41-11.87,119.15,119.15,0,0,0,23.59-14.4c7.06-5.55,15.91-13.1,21.69-22.23,6.17-9.76,7.73-21.06,4.18-30.23-2.06-5.31-5.76-10.1-11.32-14.64q-.9-.74-1.8-1.38c9.82-2,19.77-6.62,25.18-17.47,2.86-5.73,3.41-11.79,3.56-17C249.78,82,228.87,42.91,195.32,21.18Zm45.3,99.31c-.14,4.67-.64,9.46-2.73,13.65-6.84,13.71-24.29,14.48-37.56,14.57l-124.89.84,0,.08a60,60,0,0,0,48.81,34.71c20.91,1.74,42.48-6.42,55.84-22.61,5.6-6.79,9.64-6.81,11.68-6.58,9.73,1.09,17.22,1.41,24.8,7.6,3.77,3.07,7.17,6.8,8.92,11.33,2.91,7.52.83,16.24-3.48,23.06-4.92,7.77-12.72,14.59-19.88,20.22a111,111,0,0,1-22,13.43c-31.77,14.71-70.23,15.07-101.84-.28C37.7,210.78,10.5,166.42,10.72,121.25c.11-22.24,6.5-44.56,19.12-62.87C43.24,39,63.34,24.51,85.57,16.58,120.05,4.28,160.25,8,191,27.89S241.72,83.9,240.62,120.49Zm-66.87,36.4c-10.3,12.33-26.69,19.68-43.89,19.68-1.64,0-3.29-.07-4.9-.2-13.59-1.13-26.61-8.33-35.3-18.92Z"/></svg>