<svg id="Layer_54" data-name="Layer 54" xmlns="http://www.w3.org/2000/svg" viewBox="0 0 256 256"><defs><style>.cls-1{opacity:0.5;}.cls-2{fill:#fff;}.cls-3,.cls-37{fill:#febf32;}.cls-3{stroke:#7c4100;stroke-miterlimit:10;stroke-width:2px;}.cls-4{fill:#ba7648;}.cls-5{fill:#d0a384;}.cls-6{fill:#d1a385;}.cls-7{fill:#e7d0c1;}.cls-8{fill:#434444;}.cls-9{fill:#a2480a;}.cls-10{fill:#fcfcfc;}.cls-11{fill:#f22f08;}.cls-12{fill:#cbcbcb;}.cls-13{fill:#f29555;}.cls-14{fill:#d12205;}.cls-15{fill:#00aff2;}.cls-16{fill:#ab5b23;}.cls-17{fill:#ad1804;}.cls-18{fill:#833a08;}.cls-19{fill:#b7b7b7;}.cls-20{fill:#d5d5d5;}.cls-21{fill:#3d3e3e;}.cls-22{fill:#696969;}.cls-23{fill:#ac5b23;}.cls-24{fill:#b2b2b2;}.cls-25{fill:#f19349;}.cls-26{fill:#d3d3d3;}.cls-27{fill:#9b5514;}.cls-28{fill:#ffa300;}.cls-29{fill:#b0702c;}.cls-30{fill:#a76623;}.cls-31{fill:#084251;}.cls-32{fill:#74948d;}.cls-33{fill:#91905f;}.cls-34{fill:#4ba8de;}.cls-35{fill:#8bb9be;}.cls-36{fill:#7ca19f;}</style></defs><path class="cls-1" d="M121.91,242.43a14.93,14.93,0,0,1-8.15-2.54,22.89,22.89,0,0,1-6.43-6.56,42.51,42.51,0,0,1-5-10.59,66,66,0,0,1-2.49-10.4c-.31-1.92-.55-3.91-.72-5.94l-.3-.05,0-5.5v-8.42l.24-.07c0-.16,0-.31,0-.46s0-.48.06-.71,0-.44.06-.65,0-.43.07-.63a5.61,5.61,0,0,1,.12-.85V189c.06-.58.12-1.17.21-1.75.13-.85.28-1.7.44-2.55l.14-.81c.14-.79.29-1.6.49-2.47.31-1.32.6-2.52,1-3.78l.16-.52c.23-.77.46-1.54.73-2.3.6-1.72,1.24-3.28,1.93-4.77a35.3,35.3,0,0,1,3-5.36,30,30,0,0,1,2.06-2.64c.4-.45.89-1,1.46-1.52a16.78,16.78,0,0,1,7.49-4.22c.45-.11.87-.19,1.23-.25a6.31,6.31,0,0,1,1.57-.19h1.39a6.53,6.53,0,0,1,1.53.18,16.29,16.29,0,0,1,7.84,3.73l.63-.31.14-.06V48.79a6.64,6.64,0,0,1-1.43-4.14c0-.25,0-.51,0-.76a7.05,7.05,0,0,1,0-1.63,7.37,7.37,0,0,1,.35-1.52c0-.15,0-.29.08-.43l-.21-.76c-.33-1.2-.67-2.44-1-3.74-.22-1-.43-1.88-.6-2.8l0-.16c-.1-.56-.23-1.27-.3-2.06a6.13,6.13,0,0,1-.15-1.26l0-.15V26.26l.11-.29a9.46,9.46,0,0,1,.93-3.1,7.37,7.37,0,0,1,6-4.1l.31,0a6,6,0,0,1,1.47-.17h.69a23,23,0,0,1,3.08.16,23.4,23.4,0,0,1,4,.91,6.73,6.73,0,0,1,2,1.06s2.82,2.81,2,6.26c-.47,2.61-2.44,13.39-2.49,13.67a6.83,6.83,0,0,1,.6,2.84,6.6,6.6,0,0,1-.38,2.22,6.82,6.82,0,0,1-.08,1.74,6.68,6.68,0,0,1-.58,1.77V160.57a19.09,19.09,0,0,1,2.12,1.58,27.63,27.63,0,0,1,6.33,8.11,48.84,48.84,0,0,1,4.25,11.17,67.64,67.64,0,0,1,1.77,10.21,77.27,77.27,0,0,1,.35,10,69.23,69.23,0,0,1-2.55,17.14,44.06,44.06,0,0,1-5.28,12,23.55,23.55,0,0,1-6.8,7.1,15.4,15.4,0,0,1-8.56,2.65h-.34a15.35,15.35,0,0,1-6.8-1.81,19,19,0,0,1-1.67,1.2,14.87,14.87,0,0,1-8.17,2.49Z"/><path class="cls-2" d="M116.91,237.43a14.93,14.93,0,0,1-8.15-2.54,22.89,22.89,0,0,1-6.43-6.56,42.51,42.51,0,0,1-5-10.59,66,66,0,0,1-2.49-10.4c-.31-1.92-.55-3.91-.72-5.94l-.3-.05,0-5.5v-8.42l.24-.07c0-.16,0-.31,0-.46s0-.48.06-.71,0-.44.06-.65,0-.43.07-.63a5.61,5.61,0,0,1,.12-.85V184c.06-.58.12-1.17.21-1.75.13-.85.28-1.7.44-2.55l.14-.81c.14-.79.29-1.6.49-2.47.31-1.32.6-2.52,1-3.78l.16-.52c.23-.77.46-1.54.73-2.3.6-1.72,1.24-3.28,1.93-4.77a35.3,35.3,0,0,1,3-5.36,30,30,0,0,1,2.06-2.64c.4-.45.89-1,1.46-1.52a16.78,16.78,0,0,1,7.49-4.22c.45-.11.87-.19,1.23-.25a6.31,6.31,0,0,1,1.57-.19h1.39a6.53,6.53,0,0,1,1.53.18,16.29,16.29,0,0,1,7.84,3.73l.63-.31.14-.06V43.79a6.64,6.64,0,0,1-1.43-4.14c0-.25,0-.51,0-.76a7.05,7.05,0,0,1,0-1.63,7.37,7.37,0,0,1,.35-1.52c0-.15,0-.29.08-.43l-.21-.76c-.33-1.2-.67-2.44-1-3.74-.22-1-.43-1.88-.6-2.8l0-.16c-.1-.56-.23-1.27-.3-2.06a6.13,6.13,0,0,1-.15-1.26l0-.15V21.26l.11-.29a9.46,9.46,0,0,1,.93-3.1,7.37,7.37,0,0,1,6-4.1l.31,0a6,6,0,0,1,1.47-.17h.69a23,23,0,0,1,3.08.16,23.4,23.4,0,0,1,4,.91,6.73,6.73,0,0,1,2,1.06s2.82,2.81,2,6.26c-.47,2.61-2.44,13.39-2.49,13.67a6.83,6.83,0,0,1,.6,2.84,6.6,6.6,0,0,1-.38,2.22,6.82,6.82,0,0,1-.08,1.74,6.68,6.68,0,0,1-.58,1.77V155.57a19.09,19.09,0,0,1,2.12,1.58,27.63,27.63,0,0,1,6.33,8.11,48.84,48.84,0,0,1,4.25,11.17,67.64,67.64,0,0,1,1.77,10.21,77.27,77.27,0,0,1,.35,10,69.23,69.23,0,0,1-2.55,17.14,44.06,44.06,0,0,1-5.28,12,23.55,23.55,0,0,1-6.8,7.1,15.4,15.4,0,0,1-8.56,2.65h-.34a15.35,15.35,0,0,1-6.8-1.81,19,19,0,0,1-1.67,1.2,14.87,14.87,0,0,1-8.17,2.49Z"/><path class="cls-3" d="M150.87,187.24a62.86,62.86,0,0,0-1.61-9.32,43,43,0,0,0-3.71-9.8,21.75,21.75,0,0,0-5-6.4,10.79,10.79,0,0,0-4.23-2.33V159q0-58.29,0-116.56a1.08,1.08,0,0,0,0-.18.25.25,0,0,1,.2-.3.78.78,0,0,0,.21-1.32c-.06-.05-.17-.06-.17-.16a.79.79,0,0,0,.34-1.1c-.08-.15-.05-.18.08-.26a.78.78,0,0,0,0-1.35,2.06,2.06,0,0,0-.33-.17c-.25-.09-.3-.25-.25-.51l.87-4.74q1-5.7,2.08-11.41c0-.22.06-.42.38-.35a1.3,1.3,0,0,0-.35-.21,17.06,17.06,0,0,0-3-.69,21.7,21.7,0,0,0-2.79-.11c-.13,0-.28,0-.4.05l-1,.13a1.4,1.4,0,0,0-1.19.84,4,4,0,0,0-.36,1.44c0,.14,0,.28,0,.42v.93c.06.17,0,.36,0,.53s0,.23,0,.34,0,.24,0,.35.05.43.07.64c0,.57.16,1.13.26,1.69.16.85.35,1.69.55,2.54.29,1.27.64,2.54,1,3.8.24.88.53,1.74.8,2.61,0,.07.06.11-.06.16a.76.76,0,0,0-.43,1.15c0,.08.05.15-.06.2a.72.72,0,0,0-.4.66.89.89,0,0,0,.41.8.8.8,0,0,0-.41.8.74.74,0,0,0,.44.67l1,.55a.41.41,0,0,1,0,.16.41.41,0,0,0,0-.16c0,.16,0,.33,0,.49V159a.23.23,0,0,0,0-.14.23.23,0,0,1,0,.14v0h-.45c-.12,0-.24,0-.35,0a10.12,10.12,0,0,0-2.87.8,12.62,12.62,0,0,0-3.71,2.64c-.16.15-.23.11-.33,0a17.42,17.42,0,0,0-2.71-3,10.29,10.29,0,0,0-5.57-2.65c-.11-.08-.23,0-.35,0h-1c-.12,0-.24,0-.35,0-.41.07-.81.13-1.22.23a10.87,10.87,0,0,0-4.82,2.79c-.37.34-.72.72-1.06,1.1a25,25,0,0,0-1.63,2.09,29.68,29.68,0,0,0-2.52,4.46c-.64,1.38-1.2,2.79-1.71,4.23-.3.85-.55,1.72-.81,2.59-.35,1.12-.62,2.26-.89,3.4-.21.91-.36,1.83-.53,2.75s-.32,1.72-.44,2.59c-.11.7-.17,1.42-.25,2.13-.08.09,0,.19,0,.29l0,.22c-.08.09,0,.2,0,.3l0,.28c-.07.09,0,.2,0,.3h0v.33c-.08.1,0,.22,0,.34v.34c-.08.11,0,.23,0,.35s0,.26,0,.39,0,.28,0,.41,0,.3,0,.45,0,.35,0,.52,0,.38,0,.57,0,.43,0,.64,0,.6,0,.89h0v.57h0v0s0,0,0,0v1h0v0s0,0,0,0v1.49s0,0,0,0v0h0v1s0,0,0,0v0h0v.57h0a75.86,75.86,0,0,0,.91,10,61.82,61.82,0,0,0,2.26,9.47,36.92,36.92,0,0,0,4.31,9.11,16.83,16.83,0,0,0,4.73,4.89,8.67,8.67,0,0,0,9.91,0A15.6,15.6,0,0,0,126,226c.16-.21.23-.19.39,0a13.14,13.14,0,0,0,2.18,1.83,9.67,9.67,0,0,0,5.21,1.77,9.47,9.47,0,0,0,5.48-1.67,17.7,17.7,0,0,0,5.06-5.35,38,38,0,0,0,4.54-10.41,63.91,63.91,0,0,0,2.32-15.67A70.89,70.89,0,0,0,150.87,187.24ZM129.35,168v0s0,0,0,0Zm-.3-.53Zm-1.74,55.93h0l0,0ZM135,229h0Zm-3.13-69.21h0Z"/><path class="cls-3" d="M99.84,191a2.76,2.76,0,0,0,0-.64A1.73,1.73,0,0,0,99.84,191Z"/><path class="cls-3" d="M130.64,23.91a1.9,1.9,0,0,0,0-.53C130.62,23.56,130.56,23.74,130.64,23.91Z"/><path class="cls-3" d="M130.6,22.45c0-.14,0-.28,0-.42C130.56,22.16,130.61,22.31,130.6,22.45Z"/><path class="cls-4" d="M99.78,194.88v-1.49a.06.06,0,0,1,.09,0,4.29,4.29,0,0,1,0,1.43A.08.08,0,0,1,99.78,194.88Z"/><path class="cls-5" d="M99.83,193.39h0v-1a.06.06,0,0,1,.09,0A1.33,1.33,0,0,1,99.83,193.39Z"/><path class="cls-6" d="M99.78,194.88h0a1.32,1.32,0,0,1,0,.94.08.08,0,0,1-.09,0Z"/><path class="cls-7" d="M99.83,192.41h0v-.57h0A.47.47,0,0,1,99.83,192.41Z"/><path class="cls-7" d="M99.78,195.85h0a.47.47,0,0,1,0,.57h0Z"/><path class="cls-8" d="M133.63,19.57a21.7,21.7,0,0,1,2.79.11,17.06,17.06,0,0,1,3,.69,1.3,1.3,0,0,1,.35.21c-.32-.07-.34.13-.38.35q-1,5.7-2.08,11.41l-.87,4.74c-.05.26,0,.42.25.51a2.06,2.06,0,0,1,.33.17.78.78,0,0,1,0,1.35c-.13.08-.16.11-.08.26a.79.79,0,0,1-.34,1.1c0,.1.11.11.17.16a.78.78,0,0,1-.21,1.32.25.25,0,0,0-.2.3,1.08,1.08,0,0,1,0,.18q0,58.28,0,116.56v.4a.3.3,0,0,1,.07.24c0,.1,0,.21,0,.31q0,.74,0,1.47c0,.08,0,.17,0,.25V177a5.77,5.77,0,0,0,0,.72c0,6.13,0,12.26,0,18.39,0,1.39-.12,2.79-.26,4.18-.17,1.91-.45,3.8-.8,5.68-.33,1.69-.74,3.37-1.23,5a40.09,40.09,0,0,1-1.85,5,27.91,27.91,0,0,1-4.1,6.67,3.34,3.34,0,0,0-.44.48.8.8,0,0,1-.2.21c-.07.05-.15.15-.24.08s0-.18,0-.25c.44-.75.82-1.53,1.2-2.31a42.16,42.16,0,0,0,2.38-6.16,59,59,0,0,0,1.55-6.26c.26-1.4.49-2.8.67-4.21.15-1.17.28-2.34.37-3.51.06-.69.11-1.38.14-2.08.05-1.2.12-2.41.11-3.62a.45.45,0,0,1,0-.16,1.15,1.15,0,0,0,0-.32v-4.65a1,1,0,0,0,0-.34,3.38,3.38,0,0,1,0-.55c.08-3.64.06-7.28.06-10.92,0-.14,0-.29,0-.43,0-5.87,0-11.74,0-17.61a2.26,2.26,0,0,0,0-.45.63.63,0,0,1,0-.27.27.27,0,0,1,.08-.24v0a.45.45,0,0,0,0-.28V41.16a.7.7,0,0,0,0-.29l-1-.55a.74.74,0,0,1-.44-.67.81.81,0,0,1,.41-.8.89.89,0,0,1-.41-.8.72.72,0,0,1,.4-.66c.11,0,.09-.12.06-.2a.76.76,0,0,1,.43-1.15c.12,0,.08-.09.06-.16-.27-.87-.56-1.73-.8-2.61-.35-1.26-.7-2.53-1-3.8-.2-.85-.39-1.69-.55-2.54-.1-.56-.21-1.12-.26-1.69,0-.21,0-.43-.07-.64s0-.24,0-.35l0-.34c0-.17,0-.36,0-.53v-.93c0-.14,0-.28,0-.42a4,4,0,0,1,.36-1.44,1.4,1.4,0,0,1,1.19-.84l1-.13C133.36,19.57,133.5,19.64,133.63,19.57Z"/><path class="cls-9" d="M133.86,194.87c0,1.06,0,2.12-.08,3.17-.08,1.55-.2,3.1-.37,4.65q-.34,3.24-1,6.43-.52,2.63-1.29,5.19a42.89,42.89,0,0,1-3.17,7.87c-.2.4-.43.78-.67,1.23.37-.24.53-.62.85-.83.08.1,0,.19-.05.28-.18.32-.35.64-.54.95s-.54.87-.83,1.29a.29.29,0,0,0,0,.43,11.58,11.58,0,0,0,4.71,3.07,6.37,6.37,0,0,0,2.21.37,1.74,1.74,0,0,1,.39.05h.12c.06,0,.15,0,.17.08s-.08.11-.11.15a9.18,9.18,0,0,0,3.08-.69,12.24,12.24,0,0,0,3.47-2.27,22.45,22.45,0,0,0,4.57-6.15,42.05,42.05,0,0,0,3.39-8.79,56.9,56.9,0,0,0,1.49-7.3c.19-1.3.31-2.61.43-3.91a76.67,76.67,0,0,0,.21-8.16c0-1.17-.11-2.33-.21-3.5-.16-1.91-.38-3.8-.7-5.69a55.14,55.14,0,0,0-1.86-7.71,41.23,41.23,0,0,0-2.47-6.14,26.05,26.05,0,0,0-3.49-5.27,14.3,14.3,0,0,0-4.1-3.32,8.92,8.92,0,0,0-1.32-.54c-.13,0-.28-.07-.37-.2v-.23a10.79,10.79,0,0,1,4.23,2.33,21.75,21.75,0,0,1,5,6.4,43,43,0,0,1,3.71,9.8,62.86,62.86,0,0,1,1.61,9.32,70.89,70.89,0,0,1,.32,9.21,63.91,63.91,0,0,1-2.32,15.67,38,38,0,0,1-4.54,10.41,17.7,17.7,0,0,1-5.06,5.35,9.47,9.47,0,0,1-5.48,1.67,9.67,9.67,0,0,1-5.21-1.77A13.14,13.14,0,0,1,126.4,226c-.16-.17-.23-.19-.39,0a15.6,15.6,0,0,1-4.06,3.92,8.67,8.67,0,0,1-9.91,0,16.83,16.83,0,0,1-4.73-4.89,36.92,36.92,0,0,1-4.31-9.11,61.82,61.82,0,0,1-2.26-9.47,75.86,75.86,0,0,1-.91-10V191c.06-.21,0-.43,0-.64v-.57c.07-.17,0-.35,0-.52v-.45c.06-.13,0-.27,0-.41l0-.39c.06-.11,0-.24,0-.35v-.34c.07-.11,0-.23,0-.34v-.33c0-.1,0-.21,0-.3l0-.28c.06-.09,0-.2,0-.3l0-.22c.06-.09,0-.2,0-.29.08-.71.14-1.43.25-2.13.12-.87.28-1.73.44-2.59s.32-1.84.53-2.75c.27-1.14.54-2.28.89-3.4.26-.87.51-1.74.81-2.59.51-1.44,1.07-2.85,1.71-4.23a29.68,29.68,0,0,1,2.52-4.46,25,25,0,0,1,1.63-2.09c.34-.38.69-.76,1.06-1.1a10.87,10.87,0,0,1,4.82-2.79c.41-.1.81-.16,1.22-.23.11,0,.24,0,.35,0h1c.11.06.24,0,.35,0a10.29,10.29,0,0,1,5.57,2.65,17.42,17.42,0,0,1,2.71,3c.1.15.17.19.33,0a12.62,12.62,0,0,1,3.71-2.64,10.12,10.12,0,0,1,2.87-.8c.11,0,.24,0,.35,0h.45v.23c-.15.12-.33.08-.5.09a10.88,10.88,0,0,0-1.68.31.24.24,0,0,1,.23,0c0,.16-.13.17-.23.2a11.32,11.32,0,0,0-4.73,2.95c-.19.19-.22.32-.06.54.29.38.53.81.79,1.22.47.81.91,1.63,1.32,2.48.05.1.18.22,0,.34-.19,0-.22-.22-.3-.3.26.48.49,1,.72,1.55a54.89,54.89,0,0,1,3.47,12c.29,1.67.53,3.34.71,5a28,28,0,0,1,.2,3c0,.07,0,.15,0,.22v.51c0,.63,0,1.27,0,1.9v.43c0,.11-.06.11-.11,0a.56.56,0,0,1-.05-.34c0-.83,0-1.65-.07-2.48-.08-1.35-.19-2.69-.34-4-.24-2.11-.57-4.21-1-6.29a51.86,51.86,0,0,0-3.36-10.53,28.2,28.2,0,0,0-4.19-6.78,12.87,12.87,0,0,0-4-3.28,7.54,7.54,0,0,0-3.52-.83,7.38,7.38,0,0,0-1.24.16,7.73,7.73,0,0,0-2.26.66,12.08,12.08,0,0,0-3.16,2.19,22,22,0,0,0-4.16,5.61,44.68,44.68,0,0,0-3.81,10,66.9,66.9,0,0,0-1.65,8.87c-.16,1.34-.27,2.68-.37,4-.2,2.58-.19,5.17-.15,7.76,0,1.22.11,2.45.2,3.67.19,2.44.49,4.86.92,7.27a60,60,0,0,0,1.77,7.38,43.27,43.27,0,0,0,2.64,6.6,24.29,24.29,0,0,0,3.6,5.43,12.28,12.28,0,0,0,4.46,3.35,9.3,9.3,0,0,0,1.16.39,8,8,0,0,0,5.88-.85,14.49,14.49,0,0,0,4.4-4,28.82,28.82,0,0,0,3.47-6,52.82,52.82,0,0,0,3.6-12.12c.38-2,.65-4.06.85-6.11.12-1.27.21-2.54.28-3.81.06-1.07.12-2.14.11-3.22,0-.11-.07-.29.16-.29A3.25,3.25,0,0,1,133.86,194.87Z"/><path class="cls-10" d="M133.86,40.87a.78.78,0,0,1,0,.34V158.73c0,.1,0,.2,0,.3V41.36C133.85,41.2,133.86,41,133.86,40.87Z"/><path class="cls-10" d="M99.88,190.31a2.76,2.76,0,0,1,0,.64A1.73,1.73,0,0,1,99.88,190.31Z"/><path class="cls-10" d="M130.61,23.38a2.36,2.36,0,0,1,0,.53A1.35,1.35,0,0,1,130.61,23.38Z"/><path class="cls-10" d="M99.94,189.22a1.8,1.8,0,0,1,0,.52C99.91,189.57,99.84,189.39,99.94,189.22Z"/><path class="cls-10" d="M130.64,22l0,.42C130.61,22.31,130.56,22.16,130.64,22Z"/><path class="cls-10" d="M133.63,19.57a1.1,1.1,0,0,1-.4.05C133.35,19.53,133.5,19.59,133.63,19.57Z"/><path class="cls-10" d="M100,188.36a.94.94,0,0,1,0,.41C100,188.64,99.91,188.49,100,188.36Z"/><path class="cls-10" d="M100.11,186.94a.8.8,0,0,1,0,.34C100.08,187.16,100,187,100.11,186.94Z"/><path class="cls-10" d="M117.87,156.86a.69.69,0,0,1-.35,0C117.64,156.83,117.76,156.78,117.87,156.86Z"/><path class="cls-10" d="M100.05,187.62a.69.69,0,0,1,0,.35C100,187.85,100,187.73,100.05,187.62Z"/><path class="cls-10" d="M116.51,156.82a.69.69,0,0,1-.35,0C116.27,156.78,116.39,156.83,116.51,156.82Z"/><path class="cls-10" d="M133.41,159.05a.7.7,0,0,1-.35,0C133.17,159,133.29,159.06,133.41,159.05Z"/><path class="cls-10" d="M130.66,24.25a.69.69,0,0,1,0,.35C130.62,24.49,130.67,24.37,130.66,24.25Z"/><path class="cls-10" d="M100.16,186.31a.52.52,0,0,1,0,.3C100.13,186.51,100.09,186.4,100.16,186.31Z"/><path class="cls-10" d="M100.28,185.22a.7.7,0,0,1,0,.29C100.24,185.41,100.2,185.31,100.28,185.22Z"/><path class="cls-10" d="M100.22,185.73a.5.5,0,0,1,0,.3C100.19,185.93,100.14,185.82,100.22,185.73Z"/><path class="cls-11" d="M134,229.1a7.08,7.08,0,0,0-1.13-.1,9.54,9.54,0,0,1-3.81-1.46,13.63,13.63,0,0,1-2.45-2,.23.23,0,0,1,0-.35c.31-.45.61-.92.91-1.37a2,2,0,0,1,.53-.44,17.17,17.17,0,0,0,3.93-3.82,27.86,27.86,0,0,0,3.63-6.42,43.86,43.86,0,0,0,2.66-9.2c.22-1.2.39-2.41.52-3.62s.2-2.29.26-3.44c.08-1.6.06-3.2,0-4.79,0-1.22-.13-2.43-.26-3.64-.17-1.68-.42-3.35-.75-5a41.12,41.12,0,0,0-1.44-5.44,5.79,5.79,0,0,1-.25-.93v-.26q0-7.57,0-15.14v-.26c.15-.07.24,0,.34.1a12.1,12.1,0,0,1,1.38,1.1,22.13,22.13,0,0,1,4.22,5.44,41,41,0,0,1,3.77,9.38,58.35,58.35,0,0,1,1.58,7.74c.2,1.41.34,2.83.44,4.26s.14,2.6.17,3.9c0,.64.07,1.28,0,1.91-.06,1.32-.07,2.64-.15,4-.12,1.84-.29,3.66-.55,5.48a57.83,57.83,0,0,1-1.43,7,48.91,48.91,0,0,1-1.88,5.63,31.07,31.07,0,0,1-3.67,6.72,16.77,16.77,0,0,1-3.91,3.93,9,9,0,0,1-1.79,1s0,0,0,0h0s.1,0,.1.07a.68.68,0,0,1-.62.07A.85.85,0,0,0,134,229.1Z"/><path class="cls-12" d="M128.76,221.2a46,46,0,0,0,2.14-5.31,60.31,60.31,0,0,0,2.22-9.19,76,76,0,0,0,.86-7.82c.09-1.48.15-2.95.15-4.42V41c.52.28,1,.57,1.47.78s.54.45.54.92q0,76.08,0,152.18a57.65,57.65,0,0,1-.6,8.19,51.57,51.57,0,0,1-2.06,9,32.79,32.79,0,0,1-4.4,8.94c-.08.1-.15.2-.23.29S128.74,221.27,128.76,221.2Z"/><path class="cls-13" d="M135.06,229h-.26l1-.57a14,14,0,0,0,3.61-3.06,24.81,24.81,0,0,0,3.24-4.8,37.76,37.76,0,0,0,2.12-4.78,50.14,50.14,0,0,0,1.67-5.61c.37-1.53.66-3.07.91-4.62.18-1.08.32-2.17.44-3.26.08-.75.13-1.5.19-2.26.09-1.33.14-2.67.18-4,0-.69,0-1.37,0-2.05,0-1.12,0-2.24-.11-3.36-.05-1-.13-1.91-.23-2.86-.17-1.61-.38-3.22-.66-4.82s-.66-3.38-1.1-5.05a45.89,45.89,0,0,0-2.13-6.24,33.17,33.17,0,0,0-2.81-5.3,20.6,20.6,0,0,0-3.21-3.76,7.94,7.94,0,0,0-1.61-1.2v-1.48c.13-.11.25,0,.38,0a11.77,11.77,0,0,1,4.06,2.53,22.15,22.15,0,0,1,4.37,5.85,40.29,40.29,0,0,1,3.15,7.77,57.9,57.9,0,0,1,1.66,7.38c.24,1.55.43,3.1.56,4.67.11,1.39.18,2.77.24,4.16,0,1.15.06,2.3,0,3.45s-.06,2.17-.14,3.25c-.1,1.4-.23,2.8-.4,4.2q-.36,2.93-1,5.79a47.83,47.83,0,0,1-2.35,7.67,33,33,0,0,1-3,5.76,18.83,18.83,0,0,1-4,4.5,10.09,10.09,0,0,1-4.5,2.13C135.33,229.05,135.18,229.1,135.06,229Z"/><path class="cls-14" d="M136.37,177.05c.4,1,.72,2.1,1,3.17s.61,2.38.83,3.59c.18,1,.34,2,.48,3s.21,1.9.3,2.85a56.13,56.13,0,0,1,.14,6.74c0,1.15-.13,2.3-.24,3.45a55.65,55.65,0,0,1-.89,5.74c-.26,1.25-.59,2.49-.95,3.71a41.75,41.75,0,0,1-1.75,4.72,30.67,30.67,0,0,1-2,3.79,21.22,21.22,0,0,1-3.65,4.41,13.13,13.13,0,0,1-2.12,1.58c.17-.31.34-.63.51-.93a.72.72,0,0,0,.13-.28,31.45,31.45,0,0,0,2.42-3.45,36.61,36.61,0,0,0,3.34-7.68,51.69,51.69,0,0,0,1.75-7.6c.21-1.36.36-2.73.49-4.1.21-2.41.22-4.83.22-7.24q0-7.56,0-15.12Z"/><path class="cls-12" d="M133,19.91a10.69,10.69,0,0,1,2-.1,14.51,14.51,0,0,1,3.34.51s0,0,.09.05l-1.72.17a12.6,12.6,0,0,0-3,.64,2.73,2.73,0,0,0-.87.47,1,1,0,0,0-.38.93,59.07,59.07,0,0,0,2,9.66c.44,1.61.93,3.2,1.45,4.78,0,.06,0,.12.06.23a18.69,18.69,0,0,0-1.7-.9,1.66,1.66,0,0,1-1-1.19c-.77-2.61-1.51-5.22-2-7.89a20.53,20.53,0,0,1-.49-5.07.67.67,0,0,1,.05-.31.3.3,0,0,1,.09.29,24.7,24.7,0,0,0,.46,4.62.07.07,0,0,0,0,.05c-.11-.7-.22-1.4-.26-2.11a18,18,0,0,1,0-3.28A1.69,1.69,0,0,1,132.78,20a3.64,3.64,0,0,1,.93-.06C133.47,19.89,133.22,20,133,19.91Z"/><path class="cls-15" d="M135,32.82c-.18-.65-.37-1.31-.55-2A65.5,65.5,0,0,1,133,24.21c-.08-.55-.13-1.1-.21-1.65a.77.77,0,0,1,.39-.79,5.21,5.21,0,0,1,1.83-.69c.62-.14,1.25-.22,1.88-.31.23,0,.26,0,.22.25-.69,3.94-1.36,7.87-2.05,11.8Z"/><path class="cls-16" d="M135.06,229a7.46,7.46,0,0,0,2.4-.66,13.49,13.49,0,0,0,4.62-3.59,25.67,25.67,0,0,0,3.8-6,44,44,0,0,0,2.76-7.63,60.47,60.47,0,0,0,1.29-6.12c.18-1.1.32-2.21.43-3.32.12-1.29.22-2.57.29-3.86q.14-2.53.09-5.07c0-1.22-.08-2.43-.17-3.64a64.55,64.55,0,0,0-1.88-11.55,44.83,44.83,0,0,0-2.61-7.34,28.85,28.85,0,0,0-3.2-5.41,14.51,14.51,0,0,0-5.13-4.43,4.23,4.23,0,0,0-1.38-.5v-.29a10.89,10.89,0,0,1,4,2.21,20.71,20.71,0,0,1,4.48,5.54,37,37,0,0,1,3,6.58,54,54,0,0,1,2,7.49c.24,1.26.44,2.52.59,3.78.13,1.09.26,2.18.34,3.27s.13,1.95.18,2.93c.09,1.77.06,3.55,0,5.33,0,1.11-.1,2.23-.2,3.34-.06.7-.12,1.4-.19,2.09-.1,1-.25,1.95-.4,2.92-.2,1.3-.45,2.59-.73,3.88a53.69,53.69,0,0,1-1.75,6.06c-.44,1.25-.94,2.46-1.5,3.66a31.15,31.15,0,0,1-2.33,4.14,21,21,0,0,1-2,2.51,14,14,0,0,1-2.53,2.22,9.36,9.36,0,0,1-4.05,1.65,6.63,6.63,0,0,1-1.26.11c.06-.14.23-.09.3-.21l-.3,0c.2-.11.42,0,.63,0S134.93,229.09,135.06,229Z"/><path class="cls-12" d="M138.13,20.67c.28,0,.55,0,.83-.05s.22.05.19.22c-.15.85-.31,1.7-.46,2.55l-1.53,8.32q-.45,2.53-.94,5.08c-.32-.93-.64-1.86-.88-2.82a1.18,1.18,0,0,1,0-.56L137,25.16c.27-1.38.56-2.76.81-4.14C137.82,20.82,137.88,20.65,138.13,20.67Z"/><path class="cls-17" d="M133.86,159.49a.4.4,0,0,1,0,.28q0,8.8,0,17.6a2.26,2.26,0,0,1,0,.26,1.61,1.61,0,0,0,0,.31v7.66a.53.53,0,0,1,0,.32c-.13-.09-.12-.21-.13-.32-.27-2.35-.62-4.69-1.11-7a52.71,52.71,0,0,0-3.18-10.18.66.66,0,0,1-.1-.43c.19-.09.22.09.29.18a20.73,20.73,0,0,1,1.39,2.26,36.69,36.69,0,0,1,2.7,6.28,1.71,1.71,0,0,1,.09.3.58.58,0,0,1,0,.26c0-2,0-3.94,0-5.89,0-3.73,0-7.46,0-11.19a4.36,4.36,0,0,1,0-.62A.16.16,0,0,1,133.86,159.49Z"/><path class="cls-18" d="M129.34,168c.25.61.5,1.21.74,1.82a53.28,53.28,0,0,1,2.35,7.69c.32,1.39.6,2.78.83,4.18.16,1,.28,2,.42,3.06a11.06,11.06,0,0,0,.18,1.13V178c0-.11,0-.23,0-.33,0,.22,0,.44,0,.65q0,3.24,0,6.46c0,1.42,0,2.83,0,4.25a2.21,2.21,0,0,1-.1-.92c-.06-.75-.13-1.51-.2-2.26s-.21-1.67-.31-2.5c-.15-1.1-.33-2.19-.54-3.28-.15-.82-.33-1.65-.51-2.47a50.7,50.7,0,0,0-1.44-5.17,37.8,37.8,0,0,0-1.86-4.69c-.12-.25-.23-.51-.37-.82.26.17.32.44.52.57A.68.68,0,0,1,129.34,168Z"/><path class="cls-19" d="M138.13,20.67c-.25,0-.24.25-.27.42l-.66,3.37c-.37,1.9-.75,3.8-1.12,5.7-.25,1.27-.5,2.54-.74,3.81a1.88,1.88,0,0,1-.17-.57,11.36,11.36,0,0,1,.26-1.83q.49-2.88,1-5.76c.27-1.55.53-3.1.81-4.65,0-.11,0-.23.1-.32s.21-.12.33-.13Z"/><path class="cls-12" d="M136.47,41.73a.8.8,0,0,1-.6-.09c-.94-.52-1.88-1-2.82-1.53-.48-.26-.52-.63-.11-1a.13.13,0,0,1,.14-.08,9,9,0,0,1,1.49.74l1.63.88a.91.91,0,0,1,.54.85C136.72,41.67,136.61,41.71,136.47,41.73Z"/><path class="cls-12" d="M136.47,40.25a.69.69,0,0,1-.52-.08l-2.9-1.55c-.48-.26-.52-.64-.11-1a.13.13,0,0,1,.14-.08,2.3,2.3,0,0,1,.71.33c.78.41,1.55.85,2.33,1.25a1,1,0,0,1,.62.9C136.72,40.18,136.61,40.23,136.47,40.25Z"/><path class="cls-12" d="M136.88,38.92a.57.57,0,0,1-.54,0l-3-1.6a.54.54,0,0,1,0-1,.16.16,0,0,1,.15-.07c.71.31,1.36.73,2,1.08l1,.56a.75.75,0,0,1,.48.87C137,38.83,137,38.91,136.88,38.92Z"/><path class="cls-20" d="M133,19.91h.85a9.38,9.38,0,0,0-1.06.18,2.31,2.31,0,0,0-1.13.55,1.2,1.2,0,0,0-.35.79,9.75,9.75,0,0,0,0,2.29c.05.38,0,.76.05,1.14.06.63.1,1.26.18,1.88a.46.46,0,0,1,0,.2c-.16-.83-.32-1.66-.44-2.49a24.24,24.24,0,0,1-.12-2.56,2.25,2.25,0,0,1,.08-.58c.23-.95.64-1.29,1.69-1.39Z"/><path class="cls-21" d="M137.34,20.84c-.14.87-.28,1.74-.43,2.61q-.67,3.87-1.34,7.74c-.13.74-.27,1.47-.4,2.21a.59.59,0,0,1,0-.5c.29-1.68.6-3.36.89-5s.58-3.43.87-5.14c.11-.63.23-1.25.34-1.87C137.25,20.7,137.28,20.67,137.34,20.84Z"/><path class="cls-22" d="M133.46,36.27l-.13,0c-.05,0-.1-.1,0-.13a.7.7,0,0,1,.53,0l3.07,1.66A.67.67,0,0,1,137,39c-.11.06-.16.06-.11-.08l.12-.13c.16-.46.09-.63-.33-.86l-2.81-1.52A1.47,1.47,0,0,0,133.46,36.27Z"/><path class="cls-22" d="M136.47,40.25c.07-.08.2-.1.23-.23a.66.66,0,0,0-.41-.8l-2.82-1.52a.84.84,0,0,0-.41-.11l-.12,0c-.08-.07-.09-.12,0-.14a.75.75,0,0,1,.55,0c1,.55,2.06,1.09,3.08,1.66a.64.64,0,0,1,.12,1A.17.17,0,0,1,136.47,40.25Z"/><path class="cls-22" d="M136.47,41.73c.07-.08.2-.09.23-.22a.68.68,0,0,0-.43-.82c-.92-.48-1.83-1-2.75-1.48a1.29,1.29,0,0,0-.46-.14l-.12,0c-.08-.07-.09-.13,0-.15a.87.87,0,0,1,.55,0c1,.55,2.06,1.1,3.08,1.66a.65.65,0,0,1,.12,1.05C136.63,41.78,136.56,41.8,136.47,41.73Z"/><path class="cls-23" d="M131.91,159.79c-.14-.11-.31,0-.52-.09a7.68,7.68,0,0,1,2.47-.42v.21l0,0a.48.48,0,0,1-.36.12,6.16,6.16,0,0,0-1.29.17C132.09,159.82,132,159.86,131.91,159.79Z"/><path class="cls-18" d="M133.86,194.87v-.57a.44.44,0,0,1-.09-.29V192.2a.39.39,0,0,1,.09-.29c0-.8,0-1.61,0-2.41.06.07,0,.16,0,.24v4.89C133.91,194.71,133.93,194.8,133.86,194.87Z"/><path class="cls-24" d="M128.76,221.2l.07.07-.22.33A.67.67,0,0,1,128.76,221.2Z"/><path class="cls-11" d="M115.13,230.71a7.52,7.52,0,0,1-2.19-.86,15.31,15.31,0,0,1-4.88-4.63,33.18,33.18,0,0,1-4-7.79,55.74,55.74,0,0,1-2.38-8.49c-.32-1.57-.58-3.15-.77-4.74-.16-1.32-.31-2.64-.4-4-.08-1.05-.13-2.11-.18-3.16-.08-1.82-.06-3.63,0-5.45,0-1.44.12-2.88.25-4.32.11-1.16.22-2.32.37-3.48s.38-2.56.62-3.84a56.41,56.41,0,0,1,2.16-8.19,35.31,35.31,0,0,1,4.15-8.48,19.36,19.36,0,0,1,2-2.49,12.1,12.1,0,0,1,3.76-2.78,7.21,7.21,0,0,1,2.28-.66c-.06.26-.36.22-.5.41a10.07,10.07,0,0,1,1.92.79,12,12,0,0,1,2.64,1.88,23,23,0,0,1,4.77,6.54,43.4,43.4,0,0,1,3.34,9,61.75,61.75,0,0,1,1.35,6.6c.22,1.4.37,2.81.49,4.22.11,1.2.18,2.41.24,3.61,0,.67,0,1.33,0,2s.07,1.2.05,1.79c-.07,1.31-.05,2.61-.12,3.91a76.19,76.19,0,0,1-1.44,11.17,50.53,50.53,0,0,1-3.47,10.86,27.17,27.17,0,0,1-3.85,6.28,13.65,13.65,0,0,1-4.58,3.72A5.53,5.53,0,0,1,115.13,230.71Z"/><path class="cls-13" d="M115.13,230.71c.44-.19.91-.31,1.35-.5a11.43,11.43,0,0,0,2.55-1.55c.25-.2.5-.41.73-.63a20.57,20.57,0,0,0,3.48-4.3,35.78,35.78,0,0,0,2.41-4.69c.61-1.43,1.13-2.89,1.6-4.38a54.28,54.28,0,0,0,1.52-6c.24-1.18.45-2.36.62-3.55.14-1,.26-2,.36-3s.17-1.83.23-2.74c0-.68.07-1.37.12-2.05s0-1.54.06-2.3a13.07,13.07,0,0,0,0-1.77c-.05-.8,0-1.61-.05-2.42,0-1-.08-2-.18-3-.11-1.2-.23-2.39-.37-3.58a62,62,0,0,0-1.45-7.78,45.31,45.31,0,0,0-2.41-7.19,31.94,31.94,0,0,0-3-5.45,19.4,19.4,0,0,0-3-3.39,11.45,11.45,0,0,0-4-2.4l-.63-.19c.24-.18.53-.24.74-.42a6.82,6.82,0,0,1,4,.33,10.74,10.74,0,0,1,3.48,2.23,21.57,21.57,0,0,1,4.19,5.49,43.09,43.09,0,0,1,4,10A60.89,60.89,0,0,1,133,182c.23,1.46.41,2.93.54,4.4.1,1.12.17,2.24.23,3.35,0,.66,0,1.32.05,2,0,.07,0,.14,0,.19v2.39a3.23,3.23,0,0,0,0,.93c0,1.45-.12,2.9-.22,4.35-.09,1.3-.21,2.59-.37,3.88a65,65,0,0,1-1.08,6.51,58.73,58.73,0,0,1-1.64,6,36.43,36.43,0,0,1-4,8.54,16.56,16.56,0,0,1-4.92,5.08,8.3,8.3,0,0,1-5.28,1.35A4.41,4.41,0,0,1,115.13,230.71Z"/><path class="cls-11" d="M131.91,159.79l.23,0a4.77,4.77,0,0,1,1.36.21.61.61,0,0,1,.35.19v11.3c-.13,0-.16-.08-.21-.15a24.09,24.09,0,0,0-2.46-3.46,16.37,16.37,0,0,0-3.28-2.94,1.31,1.31,0,0,1-.28-.24l-1-1.44c-.06-.1,0-.14,0-.19a12.36,12.36,0,0,1,2.84-2.25A9.66,9.66,0,0,1,131.91,159.79Z"/><path class="cls-14" d="M127.62,164.65a13.75,13.75,0,0,1,2,1.53,22.42,22.42,0,0,1,4,4.89c.07.12.09.29.24.37v5.9c-.12-.11-.1-.24-.14-.36-.52-1.54-1.1-3-1.77-4.53a32.37,32.37,0,0,0-2.11-3.83,3.14,3.14,0,0,0-.49-.66l-.29-.51A21.59,21.59,0,0,0,128,165.3Z"/><path class="cls-20" d="M134.48,156.57v-.31c0-4.92,0-9.84,0-14.77-.11-13.77,0-27.55-.06-41.33-.08-13.6,0-27.21-.06-40.82,0-2.13,0-4.26,0-6.39,0-.1-.05-.23.1-.33.06.49.14,1,.18,1.42.09.9.16,1.81.23,2.71,0,.29,0,.59.05.88,0,.61,0,1.23.07,1.85.07,1,.09,2.05.13,3.07,0,.53,0,1.06,0,1.59.08.84,0,1.68.07,2.51,0,.67,0,1.35,0,2,.08,1.76,0,3.52.07,5.28.09,2.63,0,5.27.05,7.9s.1,5.52,0,8.28c-.08,3.93,0,7.86-.06,11.79,0,2.25,0,4.5,0,6.74-.07,1.84,0,3.67-.06,5.5-.07,1.6,0,3.2-.05,4.8s0,3-.06,4.53c-.07,1.35,0,2.71-.06,4.05s0,2.46-.06,3.68,0,2.49,0,3.74,0,2.24-.06,3.36,0,2.19-.06,3.28,0,2.22-.05,3.33,0,1.94-.06,2.91,0,2-.06,3,0,1.93-.06,2.88S134.58,155.62,134.48,156.57Z"/><path class="cls-25" d="M133.85,160.14a17,17,0,0,0-1.71-.4,8.89,8.89,0,0,1,1.7-.22C133.85,159.72,133.85,159.93,133.85,160.14Z"/><path class="cls-26" d="M133.06,39.07a.53.53,0,0,1,.44.06l3,1.62a.51.51,0,0,1,.21.76c-.1-.1,0-.23-.08-.35-.09-.28-.33-.37-.55-.49C135.07,40.13,134.09,39.56,133.06,39.07Z"/><path class="cls-26" d="M133.06,37.59a.56.56,0,0,1,.44,0l3,1.62a.51.51,0,0,1,.21.76s0,0,0-.06a.79.79,0,0,0-.51-.75l-2.85-1.54A2.25,2.25,0,0,0,133.06,37.59Z"/><path class="cls-26" d="M133.46,36.27a.54.54,0,0,1,.43.09l2.94,1.58a.51.51,0,0,1,.17.85.81.81,0,0,0-.55-.9C135.44,37.37,134.45,36.81,133.46,36.27Z"/><path class="cls-27" d="M127.06,194.64c0,1.05,0,2.11-.07,3.16-.08,1.38-.2,2.76-.37,4.14a48.21,48.21,0,0,1-1.51,7.43,28.46,28.46,0,0,1-3.71,8.26,12.36,12.36,0,0,1-3.55,3.58,6.57,6.57,0,0,1-3.94,1.08,7.08,7.08,0,0,1-3.92-1.56,14.74,14.74,0,0,1-3.66-4.35,28.5,28.5,0,0,1-2.48-5.59,44.54,44.54,0,0,1-1.51-6c-.26-1.44-.47-2.9-.61-4.36-.09-.94-.16-1.89-.19-2.84s-.11-2.16-.09-3.24c0-1.39,0-2.78.16-4.16a52.34,52.34,0,0,1,1.6-9.55,32.07,32.07,0,0,1,2.75-7.08,16.63,16.63,0,0,1,3.26-4.37A7.74,7.74,0,0,1,113.5,167a6.15,6.15,0,0,1,3.22.46,10.18,10.18,0,0,1,3.92,3.14,19.82,19.82,0,0,1,2.39,3.81,35.55,35.55,0,0,1,2.32,6.33,50.05,50.05,0,0,1,1.07,5.12c.18,1.19.33,2.38.42,3.59.07.94.13,1.89.18,2.84C127.06,193.08,127,193.86,127.06,194.64Z"/><path class="cls-28" d="M124.55,179.62c.28,1.07.58,2.12.81,3.2.34,1.56.61,3.13.8,4.71.16,1.34.28,2.69.34,4s.13,2.65.09,4c0,1.89-.15,3.79-.37,5.68a48.2,48.2,0,0,1-1.61,8.17,28.1,28.1,0,0,1-3.54,7.88,11.37,11.37,0,0,1-3.74,3.69,5.88,5.88,0,0,1-6.3-.09,12.11,12.11,0,0,1-3.84-4,27.84,27.84,0,0,1-3.06-6.79,45.33,45.33,0,0,1-1.51-6.52c-.23-1.5-.41-3-.52-4.52-.08-1.12-.13-2.24-.16-3.36a.13.13,0,0,1,0-.12c.28-.37.6-.71.91-1.05.69-.75,1.37-1.51,2.1-2.23.08-.07.15-.24.31-.1a5,5,0,0,1,0,1.1c0,.27,0,.54,0,.8,0,.67,0,1.33,0,2a28.89,28.89,0,0,0,.71,5.86,18,18,0,0,0,1.71,4.71,8.1,8.1,0,0,0,2,2.53,3.52,3.52,0,0,0,4.77-.06,9.34,9.34,0,0,0,2.41-3.42,23.38,23.38,0,0,0,1.76-6.78,29.27,29.27,0,0,0,.17-5,26,26,0,0,0-1.24-7.15,14,14,0,0,0-1.15-2.7,1.72,1.72,0,0,1-.18-.42c0-.19.15-.25.28-.33,1.34-.78,2.7-1.52,4.11-2.17,1.16-.54,2.33-1,3.52-1.5a1.31,1.31,0,0,1,.44-.12C124.54,179.5,124.5,179.58,124.55,179.62Z"/><path class="cls-29" d="M124.55,179.62l-.06-.11a.87.87,0,0,1-.18-.39,31.59,31.59,0,0,0-2.07-5,16.55,16.55,0,0,0-3.27-4.47,7.88,7.88,0,0,0-2.86-1.78,5.73,5.73,0,0,0-4.89.53,10.57,10.57,0,0,0-3,2.7,23.19,23.19,0,0,0-3.43,6.39,43.06,43.06,0,0,0-2.27,9.36c-.18,1.34-.3,2.68-.4,4s-.1,2.85-.11,4.28a.74.74,0,0,1-.07.44v.12l-.22.17a4.62,4.62,0,0,1,0-.91c0-.63,0-1.26,0-1.89a27.74,27.74,0,0,1,.12-2.88c.14-1.78.35-3.55.66-5.31a45,45,0,0,1,1.75-6.88,26.81,26.81,0,0,1,2.84-5.91,14.16,14.16,0,0,1,2-2.52,8.11,8.11,0,0,1,3.71-2.18,6,6,0,0,1,4,.41,10.15,10.15,0,0,1,3.55,2.92,20.28,20.28,0,0,1,2.57,4.16,33.19,33.19,0,0,1,1.69,4.35C124.75,179.43,124.54,179.47,124.55,179.62Z"/><path class="cls-30" d="M101.72,193.05v2.8a.21.21,0,0,1-.06-.18v-2.44C101.66,193.16,101.66,193.09,101.72,193.05Z"/><path class="cls-28" d="M102,195.56c0-1.06,0-2.13,0-3.2.06-1.3.14-2.61.28-3.91a49.66,49.66,0,0,1,1-6.19,39,39,0,0,1,1.74-5.6,23,23,0,0,1,2.82-5.23,10.59,10.59,0,0,1,3.75-3.35,5.84,5.84,0,0,1,5.84.27,11.37,11.37,0,0,1,3.45,3.35,25.19,25.19,0,0,1,3,6,13.84,13.84,0,0,1,.58,1.79,47.64,47.64,0,0,0-5.62,2.47c-.86.45-1.69.94-2.54,1.41a.39.39,0,0,0-.18.18.11.11,0,0,1-.08,0c-.31-.35-.53-.76-.83-1.12a5.53,5.53,0,0,0-1.75-1.48,3.38,3.38,0,0,0-3.66.28,6.6,6.6,0,0,0-1.89,2.08,18.11,18.11,0,0,0-2.23,6c-.13.68-.27,1.36-.34,2a1.1,1.1,0,0,0,0,.31.81.81,0,0,1,0,.31.2.2,0,0,1-.08.1c-.67.59-1.23,1.28-1.85,1.92C102.87,194.54,102.46,195.1,102,195.56Z"/><path class="cls-31" d="M105.2,192.13V192c.11,0,.14-.27.32-.12a2.32,2.32,0,0,1,0,.87,28.92,28.92,0,0,0-.09,3.22,27,27,0,0,0,1.3,8,13.06,13.06,0,0,0,2,3.89,5.24,5.24,0,0,0,1.76,1.55,3,3,0,0,0,3.2-.15,6.16,6.16,0,0,0,1.74-1.71,15.2,15.2,0,0,0,2.12-4.78,26.07,26.07,0,0,0,.83-4.72,28.18,28.18,0,0,0,.12-3.56,29.56,29.56,0,0,0-.94-6.68A17,17,0,0,0,116,184a.79.79,0,0,1-.14-.34c0-.12.08-.18.21-.14l.05,0a21.51,21.51,0,0,1,2.48,8.5,30.29,30.29,0,0,1-.7,10.48,16.38,16.38,0,0,1-2,4.85,7,7,0,0,1-1.69,1.91,3.59,3.59,0,0,1-4.71-.08,8.71,8.71,0,0,1-2.17-2.84,20.93,20.93,0,0,1-1.92-6.24,29.9,29.9,0,0,1-.37-4.91,22.75,22.75,0,0,1,.13-2.74C105.2,192.38,105.19,192.26,105.2,192.13Z"/><path class="cls-32" d="M116.1,183.55a.22.22,0,0,0-.18.12.06.06,0,0,1-.08,0c-.31-.4-.57-.85-.91-1.23a4.22,4.22,0,0,0-2.73-1.63,1.47,1.47,0,0,0-.59,0,3.73,3.73,0,0,0-2.14,1.06,10.84,10.84,0,0,0-2.58,4.19,21.13,21.13,0,0,0-.87,3c0,.08,0,.17-.11.22s-.17.08-.26,0a18.6,18.6,0,0,1,.68-2.64,14.5,14.5,0,0,1,1.78-3.75,5.84,5.84,0,0,1,2.28-2.1,3.42,3.42,0,0,1,3.53.29,6.76,6.76,0,0,1,2.07,2.25A1.63,1.63,0,0,0,116.1,183.55Z"/><path class="cls-32" d="M105.65,189.33l.25-.05c.09.11,0,.23,0,.35-.13.69-.24,1.37-.33,2.06a.24.24,0,0,1-.11.15c-.11,0-.15.18-.28.17l.05-.27c.06-.1,0-.21,0-.31A10.7,10.7,0,0,1,105.65,189.33Z"/><path class="cls-33" d="M105.31,191.43c0,.11,0,.22,0,.31A.48.48,0,0,1,105.31,191.43Z"/><path class="cls-34" d="M105.49,191.84l.05-.11a1.07,1.07,0,0,1,.25-.31c1.21-1.12,2.42-2.25,3.7-3.3a58.11,58.11,0,0,1,5.27-3.84c.28-.18.56-.36.85-.53.08-.05.15-.12.26-.08h0a18.65,18.65,0,0,1,2.12,6.05,28.63,28.63,0,0,1,.5,6.33,25,25,0,0,1-1.87,9.42,9.66,9.66,0,0,1-2.16,3.27,3.4,3.4,0,0,1-4.91.23,9.55,9.55,0,0,1-2.51-3.72,22.72,22.72,0,0,1-1.56-6.18,30.73,30.73,0,0,1-.2-4.89C105.35,193.4,105.43,192.62,105.49,191.84Z"/><path class="cls-35" d="M115.87,183.67a53.28,53.28,0,0,0-5.56,3.89c-1.08.86-2.14,1.75-3.15,2.69l-1.62,1.48a17,17,0,0,1,.31-2.14l.05-.31a25.59,25.59,0,0,1,.68-2.57,13.81,13.81,0,0,1,1.93-3.88,5.32,5.32,0,0,1,2.31-1.91,2,2,0,0,1,.77-.16,1.67,1.67,0,0,1,.63,0,3.37,3.37,0,0,1,1.83.75A6.77,6.77,0,0,1,115.87,183.67Z"/><path class="cls-36" d="M112.22,180.76h-.63A.77.77,0,0,1,112.22,180.76Z"/><path class="cls-37" d="M107.51,195.25a9.49,9.49,0,0,1,.87-4.12,3,3,0,0,1,.89-1.13,1.31,1.31,0,0,1,1.62,0,3.3,3.3,0,0,1,1,1.43,8.94,8.94,0,0,1,.69,3.22,10.23,10.23,0,0,1-.64,4.42,3.84,3.84,0,0,1-.92,1.4,1.34,1.34,0,0,1-2,0,4.66,4.66,0,0,1-1.21-2.26A10.63,10.63,0,0,1,107.51,195.25Z"/></svg>