<svg id="Layer_54" data-name="Layer 54" xmlns="http://www.w3.org/2000/svg" viewBox="0 0 256 256"><defs><style>.cls-1{opacity:0.5;}.cls-2{fill:#fff;}.cls-3{fill:#99070e;}.cls-21,.cls-3,.cls-4{stroke:#99040b;}.cls-11,.cls-13,.cls-14,.cls-15,.cls-18,.cls-20,.cls-21,.cls-3,.cls-4,.cls-5,.cls-7,.cls-8,.cls-9{stroke-miterlimit:10;}.cls-11,.cls-13,.cls-3,.cls-4,.cls-8,.cls-9{stroke-width:2px;}.cls-21,.cls-4{fill:#c70304;}.cls-5{fill:#e0991c;stroke:#935c0c;}.cls-6{fill:#cd1f20;}.cls-7{fill:#934012;}.cls-20,.cls-7{stroke:#820d18;}.cls-8{fill:#b45215;}.cls-13,.cls-8{stroke:#72320e;}.cls-20,.cls-9{fill:#c55d1e;}.cls-9{stroke:#843103;}.cls-10{fill:#ae4f13;}.cls-11,.cls-13{fill:#d5a654;}.cls-11{stroke:#724600;}.cls-12{fill:#c19348;}.cls-14{fill:#e3d0d1;}.cls-14,.cls-18{stroke:#aa1b4b;}.cls-15{fill:#6b0609;stroke:#231f20;}.cls-16{fill:#440306;}.cls-17{fill:#e7c0d4;}.cls-18{fill:#dc562b;}.cls-19{fill:#cc4723;}.cls-21{stroke-width:0.5px;}</style></defs><path class="cls-1" d="M107.3,220.87a6,6,0,0,1-4.08-1.6A6,6,0,0,1,98.66,217a7.73,7.73,0,0,1-.78-1.2,6.06,6.06,0,0,1-1.64-1.48,8.59,8.59,0,0,1-1.64-6.51,20.11,20.11,0,0,1-7.94,4.54c-.41.1-.8.19-1.2.26a5.88,5.88,0,0,1-2.68,1.8,5.79,5.79,0,0,1-1.88.31,6,6,0,0,1-4.08-1.6,6,6,0,0,1-4.56-2.32,8.59,8.59,0,0,1-.79-1.2,6.14,6.14,0,0,1-1.63-1.47,8.44,8.44,0,0,1-.72-9.16,7.82,7.82,0,0,1,1.79-2.57c3.62-4.68,10.75-7.59,15-8.88,1.36-1.56,3.9-4.56,5.88-6.89l1.63-1.91c-1.14-.74-2.45-1.61-4-2.64-28.92-8.37-33.45-31.1-33.66-43.42-3.35-4.11-.8-10.55,2.59-19.11,1.15-2.89,2.4-6.07,3.18-8.62-.67.06-1.33.09-2,.09-5.91,0-7.85-3.08-8.48-4.92a6.75,6.75,0,0,1,.5-5.48l-1.12.25-.25,0a11,11,0,0,1-2.17.22,7,7,0,0,1-6.38-3.48,6.75,6.75,0,0,1,.38-7l.27-.44a17,17,0,0,1,10.85-8.47A27.82,27.82,0,0,1,57.57,75,18.14,18.14,0,0,1,60,69.07c.29-.45.6-.89.94-1.32,0-5.34.77-16.72,8.44-19.6A9.85,9.85,0,0,1,71,47.71a16,16,0,0,1,7.32-6.9A9.2,9.2,0,0,1,82.07,40,7.82,7.82,0,0,1,88,42.61a8,8,0,0,1,.94,1.25,12.74,12.74,0,0,1,3.86-.62,11.31,11.31,0,0,1,5.66,1.5,8.83,8.83,0,0,1,4.72,7.11,12,12,0,0,1-2.82,8,11,11,0,0,1,1,8.09,10.31,10.31,0,0,1-3.56,5.3,32.27,32.27,0,0,1,3.79,7.17,57.09,57.09,0,0,1,3.09,12.17c.47,1.32,2.59,6.64,7.3,9.74,3,2,6.33,3.88,9.3,5.57,4.25,2.42,7.08,4,8.67,5.8a25.14,25.14,0,0,0,4.5.42,22.22,22.22,0,0,0,3.08-.22A82.44,82.44,0,0,0,149,111.29a51.18,51.18,0,0,1,6.15-1.5C159.55,93.9,168.8,72,186.53,71.1l1.36,0c9.05,0,15.65,5,18.19,13.66a26.5,26.5,0,0,1,1.76,7.38c9.64,10.58,12.81,29.47,11.2,37a6,6,0,0,1-4.76,4.65,5.92,5.92,0,0,1-1.1.1h-.37a44.5,44.5,0,0,1,1.24,17.11,6,6,0,0,1-10.88,2.59,37,37,0,0,0-4.39-4.87c.52,9.8-3.33,19.36-4.32,20.79a6.09,6.09,0,0,1-5,2.57c-4.24,0-5.59-3.51-6.4-5.6-3-7.71-8-17.88-17.53-18.43a55.88,55.88,0,0,1-21.3,23.15c3.38,9.18,3.45,11,3.48,12.09a9.18,9.18,0,0,1-2.47,6.73,11.18,11.18,0,0,1-6,3.17c-1.49,1.15-2.83,2.21-4.05,3.16a9.31,9.31,0,0,1,2.56,2.73,8.75,8.75,0,0,1,1.15,2,9.08,9.08,0,0,1-.83,9.83,6,6,0,0,1-6.61,2,5.9,5.9,0,0,1-2.34-1.42,18.54,18.54,0,0,0-4.24-.59,8.18,8.18,0,0,0-1,0c-2,2.32-6,6.32-11,7.62-.4.1-.8.19-1.2.26a5.88,5.88,0,0,1-2.68,1.8A6.06,6.06,0,0,1,107.3,220.87Zm4.14-28.07a7.62,7.62,0,0,1,.64,1l.25-.08c1.36-1.56,3.91-4.56,5.89-6.9l1.62-1.9-1.26-.82a11.34,11.34,0,0,1-5.65,2.85l-4.05,3.16A9.31,9.31,0,0,1,111.44,192.8Z"/><path class="cls-2" d="M102.3,215.87a6,6,0,0,1-4.08-1.6A6,6,0,0,1,93.66,212a7.73,7.73,0,0,1-.78-1.2,6.06,6.06,0,0,1-1.64-1.48,8.59,8.59,0,0,1-1.64-6.51,20.11,20.11,0,0,1-7.94,4.54c-.41.1-.8.19-1.2.26a5.88,5.88,0,0,1-2.68,1.8,5.79,5.79,0,0,1-1.88.31,6,6,0,0,1-4.08-1.6,6,6,0,0,1-4.56-2.32,8.59,8.59,0,0,1-.79-1.2,6.14,6.14,0,0,1-1.63-1.47,8.44,8.44,0,0,1-.72-9.16,7.82,7.82,0,0,1,1.79-2.57c3.62-4.68,10.75-7.59,15-8.88,1.36-1.56,3.9-4.56,5.88-6.89l1.63-1.91c-1.14-.74-2.45-1.61-4-2.64-28.92-8.37-33.45-31.1-33.66-43.42-3.35-4.11-.8-10.55,2.59-19.11,1.15-2.89,2.4-6.07,3.18-8.62-.67.06-1.33.09-2,.09-5.91,0-7.85-3.08-8.48-4.92a6.75,6.75,0,0,1,.5-5.48l-1.12.25-.25,0a11,11,0,0,1-2.17.22,7,7,0,0,1-6.38-3.48,6.75,6.75,0,0,1,.38-7l.27-.44a17,17,0,0,1,10.85-8.47A27.82,27.82,0,0,1,52.57,70,18.14,18.14,0,0,1,55,64.07c.29-.45.6-.89.94-1.32,0-5.34.77-16.72,8.44-19.6A9.85,9.85,0,0,1,66,42.71a16,16,0,0,1,7.32-6.9A9.2,9.2,0,0,1,77.07,35,7.82,7.82,0,0,1,83,37.61a8,8,0,0,1,.94,1.25,12.74,12.74,0,0,1,3.86-.62,11.31,11.31,0,0,1,5.66,1.5,8.83,8.83,0,0,1,4.72,7.11,12,12,0,0,1-2.82,8,11,11,0,0,1,1,8.09,10.31,10.31,0,0,1-3.56,5.3,32.27,32.27,0,0,1,3.79,7.17A57.09,57.09,0,0,1,99.67,87.6c.47,1.32,2.59,6.64,7.3,9.74,3,2,6.33,3.88,9.3,5.57,4.25,2.42,7.08,4,8.67,5.8a25.14,25.14,0,0,0,4.5.42,22.22,22.22,0,0,0,3.08-.22A82.44,82.44,0,0,0,144,106.29a51.18,51.18,0,0,1,6.15-1.5C154.55,88.9,163.8,67,181.53,66.1l1.36,0c9.05,0,15.65,5,18.19,13.66a26.5,26.5,0,0,1,1.76,7.38c9.64,10.58,12.81,29.47,11.2,37a6,6,0,0,1-4.76,4.65,5.92,5.92,0,0,1-1.1.1h-.37a44.5,44.5,0,0,1,1.24,17.11,6,6,0,0,1-10.88,2.59,37,37,0,0,0-4.39-4.87c.52,9.8-3.33,19.36-4.32,20.79a6.09,6.09,0,0,1-5,2.57c-4.24,0-5.59-3.51-6.4-5.6-3-7.71-8-17.88-17.53-18.43a55.88,55.88,0,0,1-21.3,23.15c3.38,9.18,3.45,11,3.48,12.09a9.18,9.18,0,0,1-2.47,6.73,11.18,11.18,0,0,1-6,3.17c-1.49,1.15-2.83,2.21-4.05,3.16a9.31,9.31,0,0,1,2.56,2.73,8.75,8.75,0,0,1,1.15,2,9.08,9.08,0,0,1-.83,9.83,6,6,0,0,1-6.61,2,5.9,5.9,0,0,1-2.34-1.42,18.54,18.54,0,0,0-4.24-.59,8.18,8.18,0,0,0-1,0c-2,2.32-6,6.32-11,7.62-.4.1-.8.19-1.2.26a5.88,5.88,0,0,1-2.68,1.8A6.06,6.06,0,0,1,102.3,215.87Zm4.14-28.07a7.62,7.62,0,0,1,.64,1l.25-.08c1.36-1.56,3.91-4.56,5.89-6.9l1.62-1.9-1.26-.82a11.34,11.34,0,0,1-5.65,2.85l-4.05,3.16A9.31,9.31,0,0,1,106.44,187.8Z"/><path class="cls-3" d="M153,119.82S163.28,85,176.77,80.33s19.38,8.34,19.38,8.34,1.36-17.39-14.31-16.58S156.67,98.09,153,119.82Z"/><path class="cls-4" d="M155.21,119c0-.28,9.32-30.52,28.79-33.42s25.9,29.16,24.18,37.22c0,0-8.33-12.68-23.73-9.87s-27.89,17-27.89,17Z"/><path class="cls-4" d="M154.51,131.64s11.65-16.7,31.93-14.66,16.67,28.12,16.67,28.12-18.93-27.35-46.64-11.41Z"/><path class="cls-4" d="M154.51,135.44c.24-.18,14.73-12.78,26.77-4.58s3.89,29.22,3.26,30.12-7.16-29.28-30.79-23.27Z"/><path class="cls-4" d="M153.75,122.1s10.32-34.78,23.82-39.49S197,90.94,197,90.94s1.36-17.39-14.31-16.57S157.46,100.36,153.75,122.1Z"/><path class="cls-5" d="M98.69,171c-.32.13-14.2,16.71-14.4,16.71S72.47,191,70,196.14c0,0-.75,1.49,1.69,1.83,0,0-.4,2.51,3.33,2,0,0,.48,2.78,5.16,1.56S89,194.64,89,194.64s2.72-2.1,10.4-.2c.5.12,4.34-2.52.61-4.76s-11.69.41-9.51-1.56,16.91-13.38,16.91-13.38S106.5,167.88,98.69,171Z"/><path class="cls-6" d="M75,199.92a6.91,6.91,0,0,1,1.26-1.79,16.14,16.14,0,0,1,1.61-1.48c.28-.24.58-.45.86-.68a9.1,9.1,0,0,1,.93-.59,8.29,8.29,0,0,1,2.08-.73l0,.07a6.78,6.78,0,0,1-.84.7c-.29.23-.58.43-.88.63-.57.41-1.23.7-1.82,1.1a15.06,15.06,0,0,0-1.71,1.26A7.31,7.31,0,0,0,75,200Z"/><path class="cls-6" d="M71.86,198a6.78,6.78,0,0,1,1.25-1.79,16.25,16.25,0,0,1,1.62-1.49l.86-.68a7.56,7.56,0,0,1,.93-.58,7.91,7.91,0,0,1,2.08-.73l0,.07a7.79,7.79,0,0,1-.84.7c-.29.22-.58.42-.88.62-.57.42-1.23.71-1.82,1.1a15.06,15.06,0,0,0-1.71,1.26A7.61,7.61,0,0,0,71.93,198Z"/><path class="cls-6" d="M71.86,198.51s.57-2.17,2-1S75,199.46,75,199.46s-2.92,1.36-3,2.62A3.11,3.11,0,0,1,71.86,198.51Z"/><path class="cls-6" d="M75.77,200.11s.57-2.17,2-1,1.06,1.94,1.06,1.94-2.92,1.36-3,2.61A3.1,3.1,0,0,1,75.77,200.11Z"/><path class="cls-6" d="M102.15,192.38s-.57-2.17-2-1-1,1.94-1,1.94S102,194.69,102,196A3.14,3.14,0,0,0,102.15,192.38Z"/><path class="cls-6" d="M69.54,196.57s.48-1.74,1.65-.77.82,1.57.82,1.57-2.36,1.06-2.4,2.07A2.5,2.5,0,0,1,69.54,196.57Z"/><path class="cls-7" d="M67.58,151.44S94.75,172,98.82,172.5s6.52,2.85,6.79,3.67c0,0,4.89-.14,4.76-3.94s-8.85-24.86-8.85-24.86"/><path class="cls-8" d="M57.35,119.47c0,.65-8.88,45.37,45.46,48.5s58.82-48.5,58.82-48.5.27-7.88-7.2-3.67-63.58-.13-70.64-8.28S58,108.2,57.35,119.47Z"/><path class="cls-9" d="M59.29,115c0,.65-10.82,45.22,43.52,48.34s58.82-48.49,58.82-48.49.14-8.11-7.2-3.67c-18.87,11.41-63.58-.14-70.64-8.29S59.91,103.77,59.29,115Z"/><path class="cls-4" d="M62.19,65.68c-.33-.07-1-14.93,4.33-16.92a2.48,2.48,0,0,1,3.13,1s1.24-6.31,6.13-8.49S79.65,49,79.65,49s5.64-6.93,10.8-4-3,9.37-3,9.37,11,9.85-7.29,12.16Z"/><path class="cls-10" d="M110.8,113.67c.68.14,10.46,6.25,21.87,4.62s17.93-5.57,21.19-3.8-5.7,30.29-28.12,34.36-33.41-8.83-35-22.41S110.8,113.67,110.8,113.67Z"/><path class="cls-11" d="M111.5,110.23c.68.14,10.46,6.25,21.87,4.62s17.93-5.57,21.19-3.8-5.7,30.29-28.12,34.37S93,136.59,91.4,123,111.5,110.23,111.5,110.23Z"/><path class="cls-12" d="M59.44,78.63s-2.28-9,7.66-14.13c0,0,10.55-2.09,20.79,10.66,0,0,2.73,4.34,4.27,15.75,0,0,5.17,8.91,12.6,13.8s16.93,9.42,16.84,10.59-2,3.9-15.21,2.36c0,0,7.33,14.4-8.52,8.6,0,0-1.08-.09-.54,2.08s-2.61,14.19-13.12-1.91c0,0,.45,11-5.25,12.77s-12.95-9.06-13.22-20c0,0-3.72,4.17-6.89,1.91s5.57-15,5.54-22.27S59.44,78.63,59.44,78.63Z"/><path class="cls-13" d="M58.36,76.27a12.24,12.24,0,0,1,1.72-9,12.43,12.43,0,0,1,12.08-5.42,21.69,21.69,0,0,1,9.74,3.82A25.14,25.14,0,0,1,91,77.56,51.4,51.4,0,0,1,93.8,89s2.44,8.51,9.87,13.4,16.93,9.42,16.84,10.6-2,3.89-15.21,2.35c0,0,7.33,14.4-8.51,8.61,0,0-1.09-.09-.55,2.08s-2,17.89-12.5,1.79c0,0,.91,11.61-4.8,13.33s-13.49-9.41-13.76-20.37c0,0-6.16,5.7-9.33,3.44s7.48-20.47,7.45-27.71S58.36,76.27,58.36,76.27Z"/><ellipse class="cls-14" cx="77.07" cy="73.8" rx="6.27" ry="6.5"/><circle class="cls-15" cx="77.5" cy="75.72" r="4.22"/><circle class="cls-16" cx="77.5" cy="75.72" r="2.24"/><circle class="cls-17" cx="78.46" cy="74.19" r="0.97"/><ellipse class="cls-14" cx="62.19" cy="72.87" rx="3.83" ry="6.05"/><ellipse class="cls-15" cx="62.66" cy="74.64" rx="2.8" ry="3.92"/><ellipse class="cls-16" cx="62.66" cy="74.64" rx="1.48" ry="2.08"/><ellipse class="cls-17" cx="63.3" cy="73.22" rx="0.64" ry="0.9"/><path class="cls-6" d="M74.6,90c.63,5.35-2.09,10.68-6.33,10.37-5.61-.41-9-6.35-9-11.73s3.73-9.76,8-9.76S73.49,80.72,74.6,90Z"/><path class="cls-18" d="M60.7,82.54s-4,5.9-7.77,8.84,2.56,3.3,7.77,1.52,11.91-9.28,12.08-11.52Z"/><path class="cls-19" d="M60.82,83.46s-2.64,4.91-5.56,7.15,1.55,2.08,5.56.72,9.17-7.06,9.3-8.76Z"/><path class="cls-18" d="M72.77,81.28c.2.2-2.51,6-11.14,4.55S52.26,82,44.11,84c0,0-3.09.61-1.94-1.22s2.75-5.1,7.51-6.29a27.42,27.42,0,0,1,9.68-.4S68.05,76.77,72.77,81.28Z"/><path class="cls-5" d="M125.09,177.2c-.32.13-14.2,16.71-14.4,16.71s-11.82,3.26-14.33,8.42c0,0-.75,1.5,1.69,1.84,0,0-.4,2.51,3.33,2,0,0,.48,2.78,5.16,1.56s8.83-6.86,8.83-6.86,2.72-2.11,10.4-.2c.5.12,4.34-2.52.61-4.76s-11.69.41-9.51-1.56,16.91-13.38,16.91-13.38S132.9,174.08,125.09,177.2Z"/><path class="cls-6" d="M101.35,206.12a7,7,0,0,1,1.26-1.79,15,15,0,0,1,1.61-1.48c.28-.24.58-.46.86-.68a7.65,7.65,0,0,1,.93-.59,8.29,8.29,0,0,1,2.08-.73l0,.07a7.79,7.79,0,0,1-.84.7c-.29.22-.58.43-.88.63-.57.41-1.23.7-1.82,1.1a15.06,15.06,0,0,0-1.71,1.26,7.31,7.31,0,0,0-1.45,1.54Z"/><path class="cls-6" d="M98.26,204.19a6.79,6.79,0,0,1,1.26-1.8,16.14,16.14,0,0,1,1.61-1.48c.28-.24.58-.45.86-.68a7.56,7.56,0,0,1,.93-.58,7.93,7.93,0,0,1,2.08-.74l0,.07a7.9,7.9,0,0,1-.84.71c-.29.22-.58.42-.88.62-.57.42-1.23.71-1.82,1.1a15.06,15.06,0,0,0-1.71,1.26,7.61,7.61,0,0,0-1.45,1.55Z"/><path class="cls-6" d="M98.26,204.71s.57-2.17,2-1,1.06,1.93,1.06,1.93-2.92,1.36-3,2.62A3.11,3.11,0,0,1,98.26,204.71Z"/><path class="cls-6" d="M102.17,206.31s.57-2.18,2-1,1.06,1.94,1.06,1.94-2.92,1.36-3,2.61A3.1,3.1,0,0,1,102.17,206.31Z"/><path class="cls-6" d="M128.55,198.58s-.57-2.17-2-1-1,1.93-1,1.93,2.88,1.36,2.91,2.62A3.14,3.14,0,0,0,128.55,198.58Z"/><path class="cls-6" d="M95.94,202.77s.48-1.74,1.65-.77.82,1.57.82,1.57-2.36,1.06-2.4,2.07A2.5,2.5,0,0,1,95.94,202.77Z"/><path class="cls-20" d="M94,157.64s27.17,20.51,31.24,21.06,6.52,2.85,6.79,3.66c0,0,4.89-.13,4.76-3.93s-8.85-24.86-8.85-24.86"/><ellipse class="cls-21" cx="60.45" cy="77.75" rx="0.67" ry="2.01" transform="translate(-23.12 129.86) rotate(-84.08)"/></svg>