<svg id="Layer_54" data-name="Layer 54" xmlns="http://www.w3.org/2000/svg" viewBox="0 0 256 256"><defs><style>.cls-1{opacity:0.5;}.cls-13,.cls-2,.cls-20,.cls-6{fill:#fff;}.cls-3{fill:#e8e8e8;}.cls-10,.cls-19,.cls-20,.cls-23,.cls-24,.cls-3,.cls-4{stroke:#161616;}.cls-10,.cls-13,.cls-14,.cls-19,.cls-20,.cls-23,.cls-24,.cls-25,.cls-26,.cls-3,.cls-4,.cls-6{stroke-miterlimit:10;}.cls-19,.cls-20,.cls-25,.cls-26,.cls-3,.cls-4{stroke-width:0.78px;}.cls-10,.cls-24,.cls-4{fill:#6b1230;}.cls-5{fill:#020206;}.cls-13,.cls-26,.cls-6{stroke:#111;}.cls-6{stroke-width:0.96px;}.cls-7{fill:#8e8e8d;}.cls-8{fill:#282828;}.cls-9{fill:#5b031e;}.cls-10{stroke-width:0.92px;}.cls-11{fill:#726f70;opacity:0.53;}.cls-12{fill:#bfbfbf;}.cls-13,.cls-14{stroke-width:0.86px;}.cls-14,.cls-17{fill:#519fe2;}.cls-14{stroke:#030d54;}.cls-15{fill:#00001e;}.cls-16{fill:#fafaff;}.cls-18{fill:#ededed;}.cls-19{fill:#181818;}.cls-21{fill:#918e8f;opacity:0.68;}.cls-22{fill:#383838;}.cls-23{fill:#efefef;}.cls-23,.cls-24{stroke-width:1.16px;}.cls-25,.cls-26{fill:none;}.cls-25{stroke:#232323;}</style></defs><path class="cls-1" d="M190.74,245.42a29.82,29.82,0,0,1-7.44-.95,6,6,0,0,1-4.34-6.61c.85-6.07,5.49-9.82,7.85-11.36L181.89,190a109.61,109.61,0,0,1-13.27-7.8c.61,2.12,1.06,3.58,1.07,3.61a6,6,0,0,1-1.12,5.65c-.19.26-2.52,3.83-9.91,26.19l-1,3.1c-.68,2.07-1.25,3.86-1.68,5.21a9.54,9.54,0,0,1-.2,8.71,11.26,11.26,0,0,1-4.67,6.42,5.8,5.8,0,0,1-1.17.58,22.74,22.74,0,0,1-7.9,1.42,20.74,20.74,0,0,1-8.2-1.58,6,6,0,0,1-3.38-6.75,16.8,16.8,0,0,1,7.63-11.17c.56-2.2,1.56-5.93,3.36-12.43,1.11-4,2.3-8.23,3.39-12.09l3-10.64a89.41,89.41,0,0,1-4.79-8.76l-.19-.31a6.62,6.62,0,0,1-.6-1.33l-.86-1.85a77.28,77.28,0,0,1-18.08,2c-1.4,0-2.83,0-4.26-.1-.07.13-.13.26-.2.38a14.59,14.59,0,0,1-1.07,1.75l-.26,8a5.84,5.84,0,0,1-.05,1.62l-1.13,35.82a9.15,9.15,0,0,1,1.21,5.23,21.77,21.77,0,0,1-1.77,6.65,6.07,6.07,0,0,1-1.41,2c-2.82,2.63-6.72,4-11.59,4a28.83,28.83,0,0,1-6.6-.78,6,6,0,0,1-4.39-4.59,24.37,24.37,0,0,1-6,.72,23.34,23.34,0,0,1-5.83-.68,6,6,0,0,1-4.42-5.26c-.58-6.57,3.93-11.38,7.51-13.75l-.82-24.88c-.24-1.36-1-5.92-1.94-11.22-.33-1.93-.66-3.91-1-5.87-.62-3.72-1.13-6.78-1.51-9.17a12.31,12.31,0,0,1-2.07-2.38,26.81,26.81,0,0,1-2.38-3.58c-1.26-1.75-3.27-5.66-4.41-13.76l0-.2c-.09-.67-.19-1.41-.27-2.2-1.23-8.91-.8-17.68-.38-26.17.13-2.64.27-5.36.35-8L61.7,94.25a13.6,13.6,0,0,1-2.13,1.42,11.83,11.83,0,0,1-3,1.19,12.19,12.19,0,0,1-2.05.41,16.5,16.5,0,0,1-1.82.1,10.5,10.5,0,0,1-6.33-1.85,7.56,7.56,0,0,1-1.86-1.84,1.21,1.21,0,0,1-.1-.16,8.08,8.08,0,0,1-1.32-3.12,9.85,9.85,0,0,1-2.66-1.31A13.17,13.17,0,0,1,35,86.64a8.51,8.51,0,0,1-3.51-4.87,7,7,0,0,1-.31-1.24,6.28,6.28,0,0,1,.9-4.5,5.88,5.88,0,0,1,.81-1,11.08,11.08,0,0,1-.46-3.38c0-.06,0-.25,0-.25,0-.24,0-.47.06-.71s.05-.42.09-.66l.06-.31c.05-.26.12-.55.2-.84v0A11.42,11.42,0,0,1,34.11,66l.22-.37c.09-.15.2-.29.3-.44s.33-.46.53-.71l.2-.24c.2-.24.41-.47.63-.7,0,0,.24-.26.3-.31l.1-.1a12,12,0,0,1,2.15-1.75l.43-.26.17-.09A8.84,8.84,0,0,1,42.79,60,15.66,15.66,0,0,1,44,57.82a13,13,0,0,1,.27-2c.11-.45.23-.88.37-1.28a26.79,26.79,0,0,1,.32-3.74q-.09-.49-.18-1.08a19.35,19.35,0,0,1-9.52-12.52,6,6,0,0,1,2.88-6.42,15.4,15.4,0,0,1,7.82-2,20,20,0,0,1,4.6.57,9.32,9.32,0,0,1,1.62-1.17l.38-.35a15.94,15.94,0,0,1,4.64-2.61,45,45,0,0,1,1.43-5.42,6,6,0,0,1,3-3.5,6,6,0,0,1,2.67-.63,5.86,5.86,0,0,1,1.94.33,22.43,22.43,0,0,1,10.63,8.6c1.63.49,3.06,1,3.08,1A31,31,0,0,1,85.12,28c.5.3,1,.61,1.45.94A6.21,6.21,0,0,1,88,30.38l.44.33a64.8,64.8,0,0,1,6.21,6l0,.06A51,51,0,0,1,100,43.72a18.28,18.28,0,0,1,1.3,2.21l.06.12c.44.83.79,1.55,1.09,2.24a5.86,5.86,0,0,1,1,1.49l2.09,4.68c.08.17.14.34.2.5a6,6,0,0,1,1.43,4,27.25,27.25,0,0,0,.3,3.72,30.19,30.19,0,0,0,2,6.25,6.75,6.75,0,0,0,.4.59l.94,1a5.93,5.93,0,0,1,1.5,2.93c.21.36.58,1,1,1.84l2.15,3.79a5.83,5.83,0,0,1,.6,1.47c.84,1.71,1.6,3.38,2.27,5,.87,2.07,1.58,4,2.11,5.71a.42.42,0,0,1,0,.1c.34,1.12.61,2.16.82,3.14l2.06,2.08a21.44,21.44,0,0,0,2.26,1.54l6.9,2.8a60.92,60.92,0,0,0,9.23,1.9l4.75.44c.81,0,1.6.08,2.39.09a54.28,54.28,0,0,0,8.78-.75l.21,0,3.28-.81,1.57-.36a41.41,41.41,0,0,1,10.59-1.4l1.63,0h0c.22,0,.44,0,.66,0h.06c6.85.44,12.54,2.78,16.91,6.94l.29.25a28,28,0,0,1,3.35,3.5c.55.24,1.23.53,2,.89l.1.05c.55.26,1.25.6,2,1l.09.05c1.24.63,2.51,1.35,3.72,2.1a2.61,2.61,0,0,1,.28.17c.7.43,1.41.9,2.09,1.38a39.35,39.35,0,0,1,5.34,4.42,28.09,28.09,0,0,1,1.92,2.12l.07.09a22.42,22.42,0,0,1,3.38,5.52c.21.48.4,1,.58,1.46a3.62,3.62,0,0,1,.13.35c.24.66.48,1.4.7,2.14l0,.1a49.86,49.86,0,0,1,1.34,5.95l0,.13c.09.57.17,1.14.24,1.7a.52.52,0,0,0,0,.14c.1.83.18,1.68.25,2.53,4.67,2.81,7.42,6.45,8.18,10.88.85,4.9.22,7.15-.76,9.79l-.09.27a6,6,0,0,1,.55,8.41,5.82,5.82,0,0,1-1.06,1,6.84,6.84,0,0,1-3.8,1.25h-.73a12.74,12.74,0,0,1-6.12-2.31A46,46,0,0,1,210,166.8a20,20,0,0,1-5.37-7.82,13.68,13.68,0,0,1-.86-3.53c-.38,1.12-.7,1.92-.88,2.33a48.41,48.41,0,0,0-1.64,5.82c0,.23-.07.46-.1.69l-.17,3a11.55,11.55,0,0,0,.53,1.27,8.91,8.91,0,0,0,.85,1.38C204,172,205,175.63,205.5,180.8c0,0,.05.61.05.61l0,.58c0,.28,0,.57,0,.86s0,1,0,1a34.4,34.4,0,0,1-.26,5.21.68.68,0,0,0,0,.14l0,.83a5.91,5.91,0,0,1,.19,2.3l-.27,2.32-.36,19.44v4.12c0,.18,0,.37,0,.55a6.12,6.12,0,0,1-.1.86l-.06,3.56a18.4,18.4,0,0,1,1.39,3.36,12,12,0,0,1,.5,2.64,7.87,7.87,0,0,1-1.21,5.26c-.1.16-.2.31-.31.46a12.12,12.12,0,0,1-1.86,5.83,5.91,5.91,0,0,1-1.75,1.77A19.21,19.21,0,0,1,190.74,245.42Z"/><path class="cls-2" d="M185.74,240.42a29.82,29.82,0,0,1-7.44-.95,6,6,0,0,1-4.34-6.61c.85-6.07,5.49-9.82,7.85-11.36L176.89,185a109.61,109.61,0,0,1-13.27-7.8c.61,2.12,1.06,3.58,1.07,3.61a6,6,0,0,1-1.12,5.65c-.19.26-2.52,3.83-9.91,26.19l-1,3.1c-.68,2.07-1.25,3.86-1.68,5.21a9.54,9.54,0,0,1-.2,8.71,11.26,11.26,0,0,1-4.67,6.42,5.8,5.8,0,0,1-1.17.58,22.74,22.74,0,0,1-7.9,1.42,20.74,20.74,0,0,1-8.2-1.58,6,6,0,0,1-3.38-6.75,16.8,16.8,0,0,1,7.63-11.17c.56-2.2,1.56-5.93,3.36-12.43,1.11-4,2.3-8.23,3.39-12.09l3-10.64a89.41,89.41,0,0,1-4.79-8.76l-.19-.31a6.62,6.62,0,0,1-.6-1.33l-.86-1.85a77.28,77.28,0,0,1-18.08,2c-1.4,0-2.83,0-4.26-.1-.07.13-.13.26-.2.38a14.59,14.59,0,0,1-1.07,1.75l-.26,8a5.84,5.84,0,0,1-.05,1.62l-1.13,35.82a9.15,9.15,0,0,1,1.21,5.23,21.77,21.77,0,0,1-1.77,6.65,6.07,6.07,0,0,1-1.41,2c-2.82,2.63-6.72,4-11.59,4a28.83,28.83,0,0,1-6.6-.78,6,6,0,0,1-4.39-4.59,24.37,24.37,0,0,1-6,.72,23.34,23.34,0,0,1-5.83-.68,6,6,0,0,1-4.42-5.26c-.58-6.57,3.93-11.38,7.51-13.75l-.82-24.88c-.24-1.36-1-5.92-1.94-11.22-.33-1.93-.66-3.91-1-5.87-.62-3.72-1.13-6.78-1.51-9.17a12.31,12.31,0,0,1-2.07-2.38,26.81,26.81,0,0,1-2.38-3.58c-1.26-1.75-3.27-5.66-4.41-13.76l0-.2c-.09-.67-.19-1.41-.27-2.2-1.23-8.91-.8-17.68-.38-26.17.13-2.64.27-5.36.35-8L56.7,89.25a13.6,13.6,0,0,1-2.13,1.42,11.83,11.83,0,0,1-3,1.19,12.19,12.19,0,0,1-2.05.41,16.5,16.5,0,0,1-1.82.1,10.5,10.5,0,0,1-6.33-1.85,7.56,7.56,0,0,1-1.86-1.84,1.21,1.21,0,0,1-.1-.16,8.08,8.08,0,0,1-1.32-3.12,9.85,9.85,0,0,1-2.66-1.31A13.17,13.17,0,0,1,30,81.64a8.51,8.51,0,0,1-3.51-4.87,7,7,0,0,1-.31-1.24,6.28,6.28,0,0,1,.9-4.5,5.88,5.88,0,0,1,.81-1,11.08,11.08,0,0,1-.46-3.38c0-.06,0-.25,0-.25,0-.24,0-.47.06-.71s.05-.42.09-.66l.06-.31c0-.26.12-.55.2-.84v0A11.42,11.42,0,0,1,29.11,61l.22-.37c.09-.15.2-.29.3-.44s.33-.46.53-.71l.2-.24c.2-.24.41-.47.63-.7,0,0,.24-.26.3-.31l.1-.1a12,12,0,0,1,2.15-1.75l.43-.26.17-.09A8.84,8.84,0,0,1,37.79,55,15.66,15.66,0,0,1,39,52.82a13,13,0,0,1,.27-2c.11-.45.23-.88.37-1.28a26.79,26.79,0,0,1,.32-3.74q-.09-.49-.18-1.08a19.35,19.35,0,0,1-9.52-12.52,6,6,0,0,1,2.88-6.42,15.4,15.4,0,0,1,7.82-2,20,20,0,0,1,4.6.57,9.32,9.32,0,0,1,1.62-1.17l.38-.35a15.94,15.94,0,0,1,4.64-2.61,45,45,0,0,1,1.43-5.42,6,6,0,0,1,3-3.5,6,6,0,0,1,2.67-.63,5.86,5.86,0,0,1,1.94.33,22.43,22.43,0,0,1,10.63,8.6c1.63.49,3.06,1,3.08,1A31,31,0,0,1,80.12,23c.5.3,1,.61,1.45.94A6.21,6.21,0,0,1,83,25.38l.44.33a64.8,64.8,0,0,1,6.21,6l0,.06A51,51,0,0,1,95,38.72a18.28,18.28,0,0,1,1.3,2.21l.06.12c.44.83.79,1.55,1.09,2.24a5.86,5.86,0,0,1,1,1.49l2.09,4.68c.08.17.14.34.2.5a6,6,0,0,1,1.43,4,27.25,27.25,0,0,0,.3,3.72,30.19,30.19,0,0,0,2,6.25,6.75,6.75,0,0,0,.4.59l.94,1a5.93,5.93,0,0,1,1.5,2.93c.21.36.58,1,1,1.84l2.15,3.79a5.83,5.83,0,0,1,.6,1.47c.84,1.71,1.6,3.38,2.27,5,.87,2.07,1.58,4,2.11,5.71a.42.42,0,0,1,0,.1c.34,1.12.61,2.16.82,3.14l2.06,2.08a21.44,21.44,0,0,0,2.26,1.54l6.9,2.8a60.92,60.92,0,0,0,9.23,1.9l4.75.44c.81,0,1.6.08,2.39.09a54.28,54.28,0,0,0,8.78-.75l.21,0,3.28-.81,1.57-.36a41.41,41.41,0,0,1,10.59-1.4l1.63,0h0c.22,0,.44,0,.66,0h.06c6.85.44,12.54,2.78,16.91,6.94l.29.25a28,28,0,0,1,3.35,3.5c.55.24,1.23.53,2,.89l.1.05c.55.26,1.25.6,2,1l.09.05c1.24.63,2.51,1.35,3.72,2.1a2.61,2.61,0,0,1,.28.17c.7.43,1.41.9,2.09,1.38a39.35,39.35,0,0,1,5.34,4.42,28.09,28.09,0,0,1,1.92,2.12l.07.09a22.42,22.42,0,0,1,3.38,5.52c.21.48.4,1,.58,1.46a3.62,3.62,0,0,1,.13.35c.24.66.48,1.4.7,2.14l0,.1a49.86,49.86,0,0,1,1.34,5.95l0,.13c.09.57.17,1.14.24,1.7a.52.52,0,0,0,0,.14c.1.83.18,1.68.25,2.53,4.67,2.81,7.42,6.45,8.18,10.88.85,4.9.22,7.15-.76,9.79l-.09.27a6,6,0,0,1,.55,8.41,5.82,5.82,0,0,1-1.06,1,6.84,6.84,0,0,1-3.8,1.25h-.73a12.74,12.74,0,0,1-6.12-2.31A46,46,0,0,1,205,161.8a20,20,0,0,1-5.37-7.82,13.68,13.68,0,0,1-.86-3.53c-.38,1.12-.7,1.92-.88,2.33a48.41,48.41,0,0,0-1.64,5.82c0,.23-.07.46-.1.69l-.17,3a11.55,11.55,0,0,0,.53,1.27,8.91,8.91,0,0,0,.85,1.38C199,167,200,170.63,200.5,175.8c0,0,.05.61.05.61l0,.58c0,.28,0,.57,0,.86s0,1,0,1a34.4,34.4,0,0,1-.26,5.21.68.68,0,0,0,0,.14l0,.83a5.91,5.91,0,0,1,.19,2.3l-.27,2.32-.36,19.44v4.12c0,.18,0,.37,0,.55a6.12,6.12,0,0,1-.1.86l-.06,3.56a18.4,18.4,0,0,1,1.39,3.36,12,12,0,0,1,.5,2.64,7.87,7.87,0,0,1-1.21,5.26c-.1.16-.2.31-.31.46a12.12,12.12,0,0,1-1.86,5.83,5.91,5.91,0,0,1-1.75,1.77A19.21,19.21,0,0,1,185.74,240.42Z"/><g id="z"><path class="cls-3" d="M50.61,33s-8.08-5.81-14.53-2.1c0,0,1.74,8.41,10.59,9.83L53.33,38Z"/><path class="cls-4" d="M39.18,32.61A20.53,20.53,0,0,0,49.3,38l-3.06,1.31A9.91,9.91,0,0,1,39.18,32.61Z"/><path class="cls-2" d="M57.17,78.16a11.24,11.24,0,0,1,6.94-4.25L74.54,77l7.13-5.55,3.57-9.89L71.68,36.12l-.9-1.57s-14-6.76-24.11,8.3a54.09,54.09,0,0,0-1.05,7.73l-.28,3.73s-2.54,3.42-2.61,5Z"/><path class="cls-5" d="M50.6,44.78s.55,6.83-1.3,9.53a18.13,18.13,0,0,0,4.61-12.1S51.34,40.56,50.6,44.78Z"/><path class="cls-6" d="M50.49,47s-1.75-.92-1.19-4.52a9.46,9.46,0,0,0-3.18,3.41s-1.29-4,0-6.94a18.16,18.16,0,0,1,5.3-1.72l-5.18-1.15s.17-5.3,4.36-8l2.73,2.65-1.91-3.5a10.78,10.78,0,0,1,6.09-2.24l10.42-.38S74.1,26,78.08,28.83c0,0-.33,3.36-1.33,4.2,0,0,2.43-1.58,2.87-2.68,0,0,9,7.39,12.47,15.56l-3.64,3.32,4.52-2,2.1,4.69a40.81,40.81,0,0,1-4.2,3.68,10.51,10.51,0,0,0,5.3-1.75s-.18,10.9,5.21,15.77l-2,2.42,2.54-.87s8.88,15,8.88,22.65c0,0-7.8-10.09-9.53-13.89-1.63-3.6-12.15-10-12.15-10L82.05,50,73.51,36.67l-6.93-5.59-6.91,3.2s-3.33,0-5.43,7.21C54.24,41.49,52,45.91,50.49,47Z"/><path class="cls-7" d="M139.33,163s7.28,15.64,10.06,19.4c0,0-10.54,36.85-11.15,40.48,0,0,1.21.37,5,1.09A18.39,18.39,0,0,1,145,227.4a4.84,4.84,0,0,0-.61-5.64S155.21,187.1,159,182.61c0,0-5-13-4.12-23.27l-3.27-3.27Z"/><path class="cls-7" d="M82.31,218.65l1.89-1.35-1-28.61s-5.12-29.35-5.39-32.62l15.25,4.41,2.56,14s-4.59,19-4.86,23.48l-1.35,17.54s1.22,3.51.54,5.13C90,220.67,83.66,218.78,82.31,218.65Z"/><path d="M82.31,218.65s-6.24,3.24-5.75,8.75a19,19,0,0,0,11.14-.85s2.65-1.38,2.3-5.88Z"/><path d="M99.31,223.72s-5.74,1.07-6.62,8.21c0,0,8.41,2.15,12.61-1.76a16.47,16.47,0,0,0,1.28-4.74Z"/><path d="M138.24,222.85s-5.37,1.06-6.93,8.2a16.34,16.34,0,0,0,11.54,0s2.21-1.43,2.18-3.65l-1.82-3.46Z"/><path d="M185.88,226.05s-5.29,2.75-6,7.64c0,0,8.12,2.25,13.3-1.17,0,0,1.85-2.9.29-5.12Z"/><path class="cls-2" d="M61.76,61.19l-.3-21.32L70,33.52S81.42,38,87.52,56.91c0,0,17.3,29.81,25.42,38s30.65,11.14,41.4,8.41,20.41-4.65,29.6,3.39,14.56,27.94,8.05,44.55a35.42,35.42,0,0,0-1.16,20.43s3.78,6.08,3.56,12.05l-.67,36s4.47,6.49-.23,7.61l-7.61-1.35,2.31-2.18L182.4,181s-25-13.55-31-22.73c0,0-14.3,10.71-41.69,8.57a10.09,10.09,0,0,1-2.85,6.13l-1.57,49.5a10.48,10.48,0,0,1,1.28,3l-7.27-1.71-6.42-59.49s-4.18-.61-6.22-2c0,0-10.06.34-14.39-11.24S69.19,122.68,70,103.5c.71-16.53-6.16-25.95-8.07-28.23A1.37,1.37,0,0,1,61.69,74l.85-2.7-.78-10.09"/><path class="cls-8" d="M44.51,85.44a7.72,7.72,0,0,0,7.11,0c3.9-2,4.24-6.77,7.34-9.4s2.86-7.34,1-8.6-5.5-.92-5.5-.92-3.44-1.72-5.28-6.87-9.4,1.94-9.4,1.94-2.34-2.41-5.5,2.53a5.13,5.13,0,0,0,0,5.5s-.23,3.9-1.72,5S36,79.25,41,78.44a3.86,3.86,0,0,1,2.64,3.33A8.65,8.65,0,0,0,44.51,85.44Z"/><path class="cls-9" d="M43.56,78.35s7.62-1.64,9.92-8.73h.68s4.05,9.51-4.43,13.8c0,0-4.88,1.84-4.7-3.41A2.72,2.72,0,0,0,43.56,78.35Z"/><path class="cls-10" d="M45.34,68.94s1.56-1.38,2.65-.77,1.42-2-.68-2S45.34,68.94,45.34,68.94Z"/><path class="cls-11" d="M38.17,63.68s4.33-3.78,8.66-3.59c0,0,.88.36,1.61,2.42s2.72,4.66,7.08,4.36a6.93,6.93,0,0,1-4.3-3.38c-1.62-2.86-1.33-5.3-4.39-5.72s-6.19,3.21-7,3.82c0,0-1.61-1.68-4.28.92s-2.38,5.37-1.22,7.11c0,0-.84-4.26,2-6.44S38.17,63.68,38.17,63.68Z"/><path class="cls-12" d="M60.09,67.89s9.35,2.59,13.85-.32a11.41,11.41,0,0,0,4.85-8.2s3.12,8-3.55,12.67S62.83,76.4,62.83,76.4L62,75.32a1.06,1.06,0,0,0-1.3-.35,8.89,8.89,0,0,0-2.83,2.47l2.33-5.6Z"/><path class="cls-5" d="M58.3,67.2s3.4,3.53-1,8.59-3.34,8.67-8.41,9.11-4.08-2.22-4.36-3-.79-3.26-1.9-3.56c0,0-2.25-.42-.41.8,0,0,1.54.86,1.72,4.62s6.32,2.65,7.72,1.71,3.17-2.55,5.55-7.28c0,0,3-2.73,3.82-5.22S61.39,67.62,58.3,67.2Z"/><path class="cls-5" d="M33.47,73.87s.09,3.45,8.53,2.91,11.33-6.84,11.33-6.84S52.07,77.39,41,78.44c0,0-6.83.91-8.64-3.39C32.32,75.05,31.45,73.72,33.47,73.87Z"/><path class="cls-5" d="M42.73,70.34s-.23-5.9,4.27-6.27a3,3,0,0,1,2.51,2.13,3.36,3.36,0,0,0-4.17-.75A5.64,5.64,0,0,0,42.73,70.34Z"/><ellipse class="cls-13" cx="62.7" cy="52.5" rx="5.49" ry="4.46" transform="translate(-6.31 96.36) rotate(-72.38)"/><ellipse class="cls-14" cx="62.7" cy="52.5" rx="3.15" ry="2.56" transform="translate(-6.31 96.36) rotate(-72.38)"/><ellipse class="cls-15" cx="62.58" cy="52.98" rx="2.16" ry="1.76" transform="translate(3.84 110.19) rotate(-84.5)"/><ellipse class="cls-16" cx="62.14" cy="51.27" rx="0.68" ry="0.65"/><ellipse class="cls-16" cx="62.54" cy="54.73" rx="0.44" ry="0.41"/><path class="cls-13" d="M47.94,49.33s-2-.92-2.86,2.77c0,0-.67,2.93.73,5a7.53,7.53,0,0,0,2.54-4.59S48.67,50,47.94,49.33Z"/><path class="cls-17" d="M46.29,52.64A3.64,3.64,0,0,0,47,55.37c.17.23,1.19-2.8,1.19-2.8l0-2S46.74,50.39,46.29,52.64Z"/><path class="cls-15" d="M48.19,51.27A1.58,1.58,0,0,0,46.83,53c0,1.57.68,2,.68,2a7.48,7.48,0,0,0,.84-2.49c.07-1.09.07-1.24.07-1.24"/><ellipse class="cls-16" cx="47.49" cy="51.68" rx="0.5" ry="0.62"/><path class="cls-5" d="M55.52,61.75S64.76,63.14,69,55.38a19.07,19.07,0,0,0,1.91-14.45s6,9.39-.91,18.48C64.11,67.2,55.52,61.75,55.52,61.75Z"/><path class="cls-5" d="M60.09,44s5.62-3.08,7.43,2.34c0,0,0-4.1-3.41-5.42C61.33,39.87,60.09,44,60.09,44Z"/><path class="cls-5" d="M45.74,48.63s1.07-2.18,2.68.26c0,0-.2-2.86-1.61-2.44C45.6,46.82,45.74,48.63,45.74,48.63Z"/><path class="cls-5" d="M61.76,66.68s9-1.7,11.57-6.8a27.31,27.31,0,0,0,2.34-15.1s2.74,3.3.66,14.16S61.76,66.68,61.76,66.68Z"/><path class="cls-5" d="M56.89,35.42S58.58,44,55.05,48.89c0,0,5-7.37,4.55-14.72C59.6,34.17,56.63,33.55,56.89,35.42Z"/><path class="cls-5" d="M62.83,76.4s4.1-.78,8.91-2.23c2-.6,4.11-1.31,6.11-2.13,0,0,.28,6.13-11.39,10.81C66.46,82.85,63.85,77.39,62.83,76.4Z"/><path class="cls-5" d="M88.1,57.77s-4.95,16.95-15.82,26c0,0,5.65-.26,12.46-7.42S92.87,66.2,92.87,66.2Z"/><path class="cls-18" d="M38.17,78.46s1.26,2.91,8.18.54,7.56-6.75,7.56-6.75l-1-1s-1.43,3.86-5,5.22S41.22,78.65,38.17,78.46Z"/><path class="cls-18" d="M45.05,80.89s1.17,2.06,4.46.6a8.38,8.38,0,0,0,4.75-6.55c.07-1.65.14-2.47.14-2.47l.59.18s.53,4.3-1.53,7.28-2.84,3.43-4.61,3.8S45.06,83.25,45.05,80.89Z"/><path class="cls-5" d="M50.6,28.14,57.89,36a33.79,33.79,0,0,0-2.84,4.17l-6.83-9.72S49.39,28.27,50.6,28.14Z"/><path class="cls-5" d="M57.51,25.05l-2,.3s.66,7.6,2.37,9.2l1.71-.38Z"/><path class="cls-5" d="M70,34.07s2.54-5.13,2.8-7.92l4.21,2s-1.52,6.38-3.51,8.53Z"/><path class="cls-5" d="M77.85,39.8a31.3,31.3,0,0,0,7.39-4s4.56,5.4,5.7,7.75l1.15,2.36L85.52,52S80.69,41.61,77.85,39.8Z"/><path class="cls-5" d="M96.17,53.85A12.83,12.83,0,0,1,89,59.37l5.61,9.57a41.65,41.65,0,0,0,4.46-2.26S95.87,59.94,96.17,53.85Z"/><path class="cls-5" d="M100.25,68.41,96.68,72a34.71,34.71,0,0,0,5.55,8.61l3-3.61-3.32-5.87L99.37,72l2-2.42Z"/><polygon class="cls-5" points="104.89 84.58 107.79 82.85 109.73 88.08 108.1 89.06 104.89 84.58"/><path class="cls-19" d="M206.41,143.94s-5.28,6,2.65,13.49,9.77,6,9.77,6-3-2.29-2.07-5.26,1.84-3.64,1-8.31-5.56-7-8.07-8.14C209.73,141.74,206.76,141.65,206.41,143.94Z"/><path class="cls-20" d="M187.53,110.69s15.09,5.5,19.16,15.13S209.57,147,209.57,147s-3.56-2.62-3.39-6.75c.16-3.82-.12-12-10.52-18.49-.84-.52-1.73-1-2.7-1.52Z"/><path class="cls-21" d="M66.46,82.85a37.61,37.61,0,0,1,3.24,19.29c0,16.72-3.22,33.29,2.8,49.94a27,27,0,0,0,2.68,4.35,12.61,12.61,0,0,0,4.14,3.89c11.72,5.35,20.2,5.08,31.83,6.53,12.36.73,27.09-.13,40.26-8.62l-6-8.12s-17.88,14.12-53.56,4.21c0,0-12.15-7.63-13.63-39.79,0,0-1.17-27.24-5.26-35.16Z"/><path class="cls-2" d="M110.79,139.6s3.39,26.54-3.92,33.33l-1.57,49.5s1.41,2,1.28,3l-7.27-1.71-6.42-59.49-2.86-26Z"/><path class="cls-2" d="M138.24,140.58s12.53,16.76,13.17,17.65,6.72,10.15,31,22.73l5.79,42.91-2.31,2.18,7.61,1.35s2.69-.6,2.14-2.82a25.78,25.78,0,0,0-1.91-4.79l.67-36s1.32-8.09-1.76-15.08c0,0-3.59-4-3.84-12.6,0,0,3.32-11.22,3.72-14.24s-38.92-10.62-38.92-10.62Z"/><path class="cls-5" d="M117.66,98.36s5.82,24.41-6.09,44.27c0,0,16.1-19.35,14-41.08Z"/><path class="cls-5" d="M136,103.74s3.85,19.72-5.58,36.83c0,0,10.77-16.58,10.62-36.36Z"/><path class="cls-5" d="M146.87,104.28s5.06,20.38-1.21,34c0,0,6-10.84,6.55-22.71s-2.31-11.45-2.31-11.45Z"/><path class="cls-5" d="M112.79,167.05s7.84-8.08,10.28-27.88c0,0,2.06,16.72-5.14,27.9Z"/><path class="cls-5" d="M125.88,166.68s14.42-13,16.09-39c0,0,.54,27.06-10.15,38.19Z"/><path class="cls-5" d="M70,98.36s13.36-3.07,17.39-9.85c0,0-8.65,14.19-17.72,17.15Z"/><path class="cls-5" d="M96.68,72A22.88,22.88,0,0,1,85.24,83.73S97.35,80.39,99.08,76Z"/><path class="cls-5" d="M69.18,91.71s9-1.07,11.45-5.41c0,0-4.12,6.91-10.83,9.47Z"/><path class="cls-5" d="M103.63,82s-.14,22.64-26.52,30.41c0,0,15.83,0,25.43-11.42s4.77-13,4.77-13Z"/><path class="cls-5" d="M69.18,121.15s7.71,8.41,26.49-4.7c0,0-9.25,13.25-26.77,12.23Z"/><path class="cls-5" d="M110.44,92.1s.21,21.54-12.29,31.11c0,0,13.66-9.27,16.81-26.56Z"/><path class="cls-5" d="M69.87,140.57s16.85,1,27.43-10.95c0,0-5.51,12.26-26.22,17.54C71.08,147.16,69.46,142.47,69.87,140.57Z"/><path class="cls-5" d="M110.82,163.51s-4.49,8.6-13.52,9.21c0,0,7.09.85,11.63-2.82A42.27,42.27,0,0,0,110.82,163.51Z"/><path class="cls-5" d="M114,114.44s2.3,20.4-12.12,29.15c0,0,13.19-2.83,14.42-21.44C116.29,122.15,116,114.28,114,114.44Z"/><path class="cls-5" d="M75.43,156.78s10.61-3.32,13.5-7.91c0,0,3.63,6.46-7.57,12.34C81.36,161.21,76.65,159.5,75.43,156.78Z"/><path class="cls-5" d="M95.14,185.06s-1.2-3.31,4.5-6.37,6.94,5.22,6.94,5.22-2.52-5.32-6.94-3S95.14,185.06,95.14,185.06Z"/><path class="cls-5" d="M96.16,194.5s.6-4.29,6.4-4.29c3.76,0,3.59,5.49,3.59,5.49s-1.89-4.64-5-3.42A54.13,54.13,0,0,0,96.16,194.5Z"/><path class="cls-5" d="M148.61,154.45s7.93-40,40.61-41.1l3.08,6.37s-13.64-3-26.85,10.22S148.61,154.45,148.61,154.45Z"/><path class="cls-5" d="M156.61,163.94s-1.12-17,16.89-31c0,0-15.65,22.14-13.7,33.72Z"/><path class="cls-5" d="M157.52,102.54s5.65,9.27,4.09,18c0,.22-.09.44-.14.65-2,8.87,5.34-10.41.41-19.52Z"/><path class="cls-5" d="M167,171.93s3.07-29.62,26.38-24.77c0,0-20.68,1.05-22.9,27Z"/><path class="cls-5" d="M194.28,128.13s-16.8-.15-23.83,20.13c0,0,10.49-16.74,24.14-17.8Z"/><path class="cls-5" d="M167.9,101s7.19,4.28,4.82,11.92c0,0,5.13-7.13,0-11.61L170,101Z"/><path class="cls-5" d="M92,156.07s4.71,6,19.24,4.33c0,0-4.73,5.33-18.54,2"/><path class="cls-5" d="M177.25,178s1.44-11.6,12.59-14.52l.28-4.78S172.91,164.92,177.25,178Z"/><path class="cls-5" d="M183.52,189.27s.06-11.82,11-12.84l.14,2.88S185.85,182.81,183.52,189.27Z"/><path class="cls-5" d="M185.05,200.58s3.38-5.42,8.3-2.65c0,0-8.25,3-7.84,6.09Z"/><path class="cls-5" d="M193.92,209.05s-1.76-3.74-5.62-.76c0,0,5.76,1.82,5.62,5.24Z"/><path class="cls-5" d="M97.74,209.18a7.72,7.72,0,0,1,8.09-3.54s-4.3-3.67-8.48-.11Z"/><path class="cls-5" d="M143,170.62a12.3,12.3,0,0,0,12.06-3.94s-2.45,7.38-10.28,7.5L143,171.25"/><path class="cls-5" d="M148.17,180.47s8-.49,8.84-4l1.21,4S149.4,182.65,148.17,180.47Z"/><path class="cls-5" d="M146.73,191.73s4.17,1.44,8.93-2.46c0,0-2.3,5-10,6.43Z"/><path class="cls-5" d="M194.59,186.66s-8.88,1.16-9.54,5.07c0,0,7.23-4.25,9.23-2.46Z"/><path class="cls-5" d="M145.36,150.11s-2.28-6.82,3.67-14.3c0,0-2.95,13.25-2.05,16.47"/><path class="cls-5" d="M81.25,177.07s1.19-5.71,8.78-6.64c0,0-4.45-3.87-9.79.7Z"/><path class="cls-5" d="M85.14,183.66s6.34.06,7.76,2.94l.92-4.15S90.8,178.73,85.14,183.66Z"/><path class="cls-5" d="M83.46,195s2.2-5.38,8.22-2.54c0,0-4.1-4.78-8.32-.75Z"/><path class="cls-5" d="M142.23,207.76s2.46,4.83,5.75,3L146.92,214S142,210.62,142.23,207.76Z"/><path class="cls-5" d="M83.79,205s2.64-3.39,6.72-3.08c0,0-6.71,3.39-6.63,5.87Z"/><path class="cls-5" d="M91,146.63l.64,4.85a27.18,27.18,0,0,0,17.4,3S93.13,153.85,91,146.63Z"/><path class="cls-5" d="M195.66,121.71s-.82-4.58,2.42-5.46l-2-1.29s-2.94,1.16-2.69,5.41Z"/><path class="cls-5" d="M199.39,124.45s-.63-4.27,3.2-4.46l1.56,1.72s-3.66.73-3.39,4Z"/><path class="cls-5" d="M204.15,130.37s.1-3.41,3.08-3.18l.68,2.05a2.48,2.48,0,0,0-3.22,2.11Z"/><path class="cls-5" d="M206.12,137.13s1.42-1.74,3.2-.95l-.25-1.74S205.66,134.65,206.12,137.13Z"/><path class="cls-5" d="M206.56,142.77a2.86,2.86,0,0,1,3.17-1.35v-1.07s-3.4,0-3.36,1.78Z"/><path class="cls-22" d="M206.45,143.9s-2.26,8.72,5.35,14.19c0,0,4.31,4.79,7.07,5.32,0,0-1.43,1.4-7.73-4.18S202.81,149.48,206.45,143.9Z"/><path class="cls-5" d="M190.68,112s-1.55.9-1.27,1.94l1.92,2.14s.26-2.75,1.25-3.14Z"/><path class="cls-23" d="M69.75,38C72,20.91,59.28,16.58,59.28,16.58c-5.19,15.76,2.69,20,2.69,20"/><path class="cls-24" d="M68,37.24s-4.7-1.16-5.66-9.13-.48-7.68-.48-7.68,5.47,5.18,6.14,8.4S68.69,36.18,68,37.24Z"/><path class="cls-25" d="M70,34.07s6.06,2.71,9.51,7.4,9.33,18,11.18,21.16,13.21,21,20,29.71,18.42,10.3,26.1,11.61c0,0,11.29,1.52,22-1.68,0,0,15.35-4.91,24.72,4.12a38.37,38.37,0,0,1,11,21.26,41.88,41.88,0,0,1-2.33,22.91s-3,8.22-2.42,12.94a25.1,25.1,0,0,0,2.79,5.17c1.48,1.83,2.6,9.92,1.76,15.08l-.67,36s4.56,6.79-.23,7.61l-7.61-1.35,2.31-2.18L182.4,181s-31.31-13.2-40.42-37.91"/><path class="cls-25" d="M151.41,158.23s-13.76,11.33-41.69,8.57"/><path class="cls-25" d="M139.8,164s5.17,12.54,9.59,18.4l-11.15,40.48,5,1.09L145,227.4s2.37-2.09-.61-5.64c0,0,11.07-35.67,14.55-39.15,0,0-4.91-15.6-4.22-20.45"/><path class="cls-25" d="M110.79,142.63s3.31,22.38-3.92,30.3l-1.57,49.5s1.47,1.64,1.28,3l-7.27-1.71-9.17-84.55"/><path class="cls-25" d="M92.89,164.23s-4.21-.6-6.22-2c-1.53-1-8,1.26-13.27-8.48,0,0-5.59-5.91-4.07-34.13S69.1,84.86,62,75.32c0,0-.93-1.32-3.81,1.46"/><path class="cls-25" d="M78.41,159.78l4.84,28.91,1,28.61-1.89,1.35,7.69,2a7.35,7.35,0,0,0-.54-5.13s1.15-24.3,5.15-35.49"/><path class="cls-25" d="M62,75.32s16.16-2,16.5-12.61"/><path class="cls-25" d="M46,45.61a20.39,20.39,0,0,0-.42,5"/><path class="cls-25" d="M45,54.73s-2.19,2.53-2.25,4.6"/><path class="cls-26" d="M42.92,79.93c.69.56,1,3.8,1,3.8s-.34,3.13,5,2.57,8.32-8.14,8.32-8.14c1.82-1.32,4.64-5.3,4.29-7.82s-1.91-3.76-5.22-3.85-4.32-2-5.54-4c-1.44-2.43-.65-4.37-3.62-4.64-3.49-.32-7.27,3.77-7.27,3.77-.46-.57-2.09-1.73-4.91,1.62a5.18,5.18,0,0,0-.59,6.41s0,3.16-.9,3.95-1.69.26-1.09,1.48,1.74,3,6.24,3.47c0,0,7.4.2,11.69-3.71,3.61-3.28,3.08-5.53,3.08-5.53L52.1,69l2.46.6"/><path class="cls-26" d="M53.48,69.62s1.62.12,1.57,4.29-1.87,7.7-4.75,9.37-4.94.1-5.25-1.59l-.38-2.19"/></g></svg>