<svg id="Layer_54" data-name="Layer 54" xmlns="http://www.w3.org/2000/svg" xmlns:xlink="http://www.w3.org/1999/xlink" viewBox="0 0 256 256"><defs><style>.cls-1,.cls-2{fill:none;}.cls-2{clip-path:url(#clip-path);}.cls-3{opacity:0.5;}.cls-4{fill:#fff;}.cls-5,.cls-6{fill:#606060;stroke:#723e00;stroke-miterlimit:10;stroke-width:2px;}.cls-15,.cls-5{opacity:0.3;}.cls-7{fill:#39aa35;}.cls-8{fill:#008f3c;}.cls-9{clip-path:url(#clip-path-4);}.cls-10{fill:url(#radial-gradient);}.cls-11{fill:url(#radial-gradient-2);}.cls-12{fill:url(#radial-gradient-3);}.cls-13{fill:#ff8b00;}.cls-14{fill:#b95133;}.cls-15{fill:#8c4600;}</style><clipPath id="clip-path"><polygon class="cls-1" points="174.55 2.06 174.33 2.15 174.65 2.28 174.55 2.06"/></clipPath><clipPath id="clip-path-4"><polygon class="cls-2" points="174.81 1.42 175.03 1.32 174.71 1.2 174.81 1.42"/></clipPath><radialGradient id="radial-gradient" cx="-1705.43" cy="674.47" r="27.28" gradientTransform="translate(-364.11 1856.73) rotate(124.74)" gradientUnits="userSpaceOnUse"><stop offset="0" stop-color="#fff"/><stop offset="0.16" stop-color="#fcfcfc"/><stop offset="0.29" stop-color="#f2f2f2"/><stop offset="0.41" stop-color="#e1e1e1"/><stop offset="0.52" stop-color="#c9c9c9"/><stop offset="0.63" stop-color="#aaa"/><stop offset="0.73" stop-color="#858585"/><stop offset="0.83" stop-color="#585858"/><stop offset="0.93" stop-color="#252525"/><stop offset="0.99"/></radialGradient><radialGradient id="radial-gradient-2" cx="-1691.11" cy="683.35" r="19.99" xlink:href="#radial-gradient"/><radialGradient id="radial-gradient-3" cx="-1687.23" cy="687.99" r="24.95" xlink:href="#radial-gradient"/></defs><path class="cls-3" d="M96.81,188.75c-14-8.21-24.63-15.29-31.73-21.06l-2.86-2.34c-1.2-1-2.44-2-3.69-3L57,161c-1.16-1-2.19-1.94-3.16-2.87-6.12-5.84-9.68-11.28-11.19-17.1a27,27,0,0,1,.59-16.45c-6.71-3.79-13.51-7.27-20.47-10.79A104.86,104.86,0,0,0,9,107.69l-5.72-2,2.12-5.66A34.73,34.73,0,0,1,9,93.34l1.23-1.89a34,34,0,0,1-4-4.72l-3-4.45,4.17-3.39a46,46,0,0,1,5.1-3.72L16,73l3.21,2.64a21.77,21.77,0,0,1,1.95,1.83l.3-.2a35.17,35.17,0,0,1,3.72-2.2l.41-.21a19,19,0,0,1,3.76-1.5l2.55-.66,2.19,1.47a22.14,22.14,0,0,1,5.47,5.94l.54.77A136.51,136.51,0,0,0,53.31,96.47c2,2,3.81,3.87,5.49,5.52a30.43,30.43,0,0,1,19.14-6.6c8.76.12,17.73,3,28.25,9.23,5.13,3,9.87,6.34,14.46,9.55l2.58,1.81c15.33,10.65,29.93,22.61,44.06,34.17l.32.27c4.32,3.53,26.06,22.34,46.62,42.38,41,39.93,40.54,48.95,40.36,52.8a8.94,8.94,0,0,1-4,7.21c-4.65,3.14-10.63,1.86-15,.93-.68-.15-1.3-.29-1.84-.38-15.84-2.73-89.34-36.61-137-64.6Z"/><path class="cls-4" d="M95,181.91c-14-8.21-24.63-15.29-31.73-21.07,0,0-2.17-1.78-2.86-2.33-1.19-1-2.43-2-3.68-3l-1.57-1.34c-1.16-1-2.2-1.95-3.16-2.87-6.13-5.85-9.69-11.28-11.2-17.1a27.06,27.06,0,0,1,.59-16.45c-6.7-3.79-13.5-7.27-20.46-10.8a107.44,107.44,0,0,0-13.73-6.08l-5.73-2,2.13-5.66A34.92,34.92,0,0,1,7.2,86.5l1.24-1.9a32.83,32.83,0,0,1-4-4.72l-3-4.45L5.55,72a48.47,48.47,0,0,1,5.11-3.72l3.55-2.16,3.22,2.64a23.17,23.17,0,0,1,1.95,1.82l.29-.19a34.36,34.36,0,0,1,3.73-2.21l.41-.2a18.49,18.49,0,0,1,3.76-1.51l2.55-.65,2.18,1.47a22,22,0,0,1,5.47,5.93c.18.27.36.52.54.77A136.67,136.67,0,0,0,51.54,89.62c2,2,3.81,3.87,5.48,5.53a30.44,30.44,0,0,1,19.15-6.6c8.75.11,17.72,3,28.24,9.23,5.13,3,9.87,6.33,14.46,9.55l2.58,1.8c15.33,10.66,29.94,22.62,44.06,34.18l.33.26c4.31,3.54,26,22.34,46.61,42.38,41,39.94,40.54,49,40.36,52.8a9,9,0,0,1-4,7.22c-4.66,3.14-10.64,1.85-15,.92-.67-.14-1.3-.28-1.84-.37-15.84-2.74-89.34-36.61-137-64.61Z"/><polygon class="cls-5" points="174.55 2.06 174.33 2.15 174.65 2.28 174.55 2.06"/><polygon class="cls-5" points="175.03 1.32 174.71 1.2 174.81 1.42 175.03 1.32"/><path class="cls-6" d="M162.12,148.11c-14.37-11.77-28.76-23.56-44-34.16C106,105.5,91.56,94.61,76.1,94.41c-7.53-.09-14.23,3.37-19.18,8.8-3.28-3.12-6.49-6.34-9.58-9.5A141,141,0,0,1,33.55,77.45c-1.29-1.79-2.68-4-4.53-5.26a16.12,16.12,0,0,0-3,1.28,29.62,29.62,0,0,0-3.11,1.85c1.53,5.56,11,15.17,13.64,17.84l4.51,4.46c-5.11-4.28-10.22-8.55-15.18-13-2.76-2.46-5.44-5-8.21-7.41-1.39-1.22-2.54-2.74-3.95-3.9a40.39,40.39,0,0,0-4.46,3.26c2,2.93,5.79,6.18,8,8.15,5.37,4.9,11.05,9.65,16.88,14.07l2.32,1.73C26.85,94.76,17.49,90,12.11,89.7a29.51,29.51,0,0,0-3,5.59,113.13,113.13,0,0,1,14.49,6.4c7,3.54,14,7.12,20.81,11q2.3,1.31,4.58,2.64c-.06.12-.12.24-.17.36a21.56,21.56,0,0,0-2.33,17,26.26,26.26,0,0,0,5.47,10c.42.51.86,1,1.3,1.49,4,4.41,9,8.21,13.07,11.58h0l.08.07C99.74,183.34,214.1,237.48,233,240.74c3.36.57,9.41,2.5,12.59.36C258.89,232.15,172.22,156.38,162.12,148.11Z"/><path class="cls-7" d="M68.61,127.53c-1-.71-2.08-1.43-3.16-2.1-6.92-4.4-13.88-8.74-21-12.76-6.83-3.86-13.83-7.44-20.81-11a113.13,113.13,0,0,0-14.49-6.4,29.51,29.51,0,0,1,3-5.59c5.38.32,14.74,5.06,24.31,10.84L34.1,98.81c-5.83-4.42-11.51-9.17-16.88-14.07-2.18-2-6-5.22-8-8.15a40.39,40.39,0,0,1,4.46-3.26c1.41,1.16,2.56,2.68,3.95,3.9,2.77,2.43,5.45,5,8.21,7.41,5,4.43,10.07,8.7,15.18,13l-4.51-4.46C33.85,90.49,24.43,80.88,22.9,75.32A29.62,29.62,0,0,1,26,73.47a16.12,16.12,0,0,1,3-1.28c1.85,1.24,3.24,3.47,4.53,5.26A141,141,0,0,0,47.34,93.71c4.56,4.67,9.38,9.5,14.32,13.87,2.37,2.1,4.84,4.08,7.18,6.19,1.89,1.7,4.15,4.66,6.49,5.83.53.27,0,.57-.39.45-1.56-.57-3.07-1.22-4.56-1.93.24.69-.39,1.14-1.17,1.34.05.06.12.11.17.16,1.12,1.14.69,2-.23,2.37a2,2,0,0,1,.36,1.45,22.77,22.77,0,0,0,2.09,1.14c3.26,1.54.14,3.73-1.88,3.27A4.58,4.58,0,0,1,68.61,127.53Z"/><path class="cls-8" d="M60.8,122.22c-5.38-3.35-10.78-6.66-16.29-9.77-6.83-3.86-13.83-7.44-20.82-11A105.25,105.25,0,0,0,9.44,95.13l.27-.67c3.88,1.43,7.7,2.13,11.56,3.65a131.06,131.06,0,0,1,14.64,7A175.52,175.52,0,0,1,61.16,121.7C61.48,122,61.1,122.2,60.8,122.22Z"/><path class="cls-8" d="M9.61,76.63a7.54,7.54,0,0,1,.67-.58c8.66,6.74,16.54,14.11,25.07,21,5.87,4.77,11.91,9.31,18,13.8,5.3,3.91,11.24,7.29,16.18,11.61.59.51-.58,1-1,.76-12.35-6.2-25.49-17.65-36.34-26.15C23.31,90.15,12,80.28,9.61,76.63Z"/><path class="cls-8" d="M41.79,98.39c-6.29-6.7-16.85-17.17-18.6-23a3.3,3.3,0,0,0,.49-.34c14.32,16,30.9,29.47,46.58,44.11.48.45-.49.89-.86.65C59.56,113.55,50.65,106,41.79,98.39Z"/><g class="cls-9"><path class="cls-10" d="M34.61,84.27c-2.39-2.4-6.07-6.35-7.33-10a9.87,9.87,0,0,1,1.64-.48C35.66,81.11,41.85,89,48.78,96.31c.23.22-.25.4-.41.26C43.59,92.64,39,88.63,34.61,84.27Z"/></g><g class="cls-9"><path class="cls-11" d="M44.46,102.94c-.58-.39-1.15-.8-1.74-1.19-1.5-1.25-3-2.57-4.53-3.78-3.22-2.5-6.52-4.87-9.73-7.4s-6-4.93-9.06-7.44c-2.46-2.07-4.55-4.52-6.87-6.69.62-.45,1.26-.88,1.92-1.3a44,44,0,0,0,3.8,3.66,5.09,5.09,0,0,0,.53.51c3.37,3.1,6.72,6.2,10.2,9.2,5.79,5,11.63,10,17.33,15.12.18.16-.12.34-.31.31A13.09,13.09,0,0,0,44.46,102.94Z"/></g><g class="cls-9"><path class="cls-12" d="M13.13,91.22a97.25,97.25,0,0,1,12.18,4.64c2.16,1.79,4.33,3.56,6.36,5.48-1.83-.9-3.72-1.76-5.61-2.56-1.48-.63-3-1.26-4.52-1.82a70.89,70.89,0,0,0-9-3.16,2.34,2.34,0,0,1-.39-.25A6.76,6.76,0,0,1,13.13,91.22Z"/></g><path class="cls-13" d="M66.34,155.75c-7.26-6-17.31-13.33-19.84-23.06C44,123.16,49,114,54.36,106.39c5.06-7.23,12.82-12.08,21.74-12,15.46.2,29.86,11.09,42,19.54,15.25,10.6,29.64,22.39,44,34.16,10.1,8.27,96.77,84,83.46,93-3.18,2.14-9.23.21-12.59-.36-18.89-3.26-133.25-57.4-166.57-84.92Z"/><path class="cls-14" d="M77,136c3.06-7.1,8-13.13,13.33-18.63,3.42-3.48,8.39-8.88,13.62-9.34.13,0,.26.12.11.21-11.26,6-18.7,17.94-25.58,28.15C78,136.93,76.6,136.83,77,136Z"/><path class="cls-14" d="M80.4,160.71a62.69,62.69,0,0,1,12.95-21.07c.13-.14.53,0,.38.15a114.08,114.08,0,0,0-6.58,10.09c-2,3.63-3.15,7.58-5.51,11C81.41,161.28,80.15,161.36,80.4,160.71Z"/><path class="cls-14" d="M88.75,161.58a21.37,21.37,0,0,1,2.43-4.32c1-1.5,2.43-2.7,3.11-4.44.06-.12.38-.16.33,0a10.59,10.59,0,0,1-1.8,3.4c-1.18,1.74-1.95,3.7-3.06,5.49C89.56,162.08,88.54,162.09,88.75,161.58Z"/><path class="cls-14" d="M114,154.7a74,74,0,0,1,18.6-20.83c.2-.17.74-.06.48.24-6.29,6.78-12,13.94-18,21C114.78,155.49,113.7,155.29,114,154.7Z"/><path class="cls-14" d="M131.67,144.86c1.92-2.61,4.81-4.18,7.07-6.4.08-.06.3-.05.23.09a23.88,23.88,0,0,1-6.12,6.78C132.49,145.62,131.19,145.51,131.67,144.86Z"/><path class="cls-14" d="M143.19,197a42.47,42.47,0,0,1,2.7-6.52c1.05-2.24,2.66-4.16,3.61-6.43.07-.16.49-.16.45.07a36.84,36.84,0,0,1-2.45,6.62,43.84,43.84,0,0,1-2.9,6.48C144.3,197.66,143,197.69,143.19,197Z"/><path class="cls-14" d="M180.66,183.17c1-1.53,2.16-3.34,3.86-4.19h0a.82.82,0,0,0,.23-.12h0l.06,0h0c.21-.07.59,0,.44.29a26.6,26.6,0,0,1-1.62,2.13c-.54.78-1.12,1.51-1.72,2.26C181.58,184,180.23,183.89,180.66,183.17Z"/><path class="cls-14" d="M189.75,197.37c.91-1.59,8.43-11.14,9.68-9.82a.13.13,0,0,1-.05-.11l0-.07c.17-.47,1.08-.25.82.13a76.09,76.09,0,0,1-9.41,10.26C190.49,198.11,189.39,198,189.75,197.37Z"/><path class="cls-14" d="M196.24,222.61c.41-2.63,3-4.17,4.12-6.42,0-.12.32-.11.31.06a8.45,8.45,0,0,1-1.13,3.16c-.67,1.21-1,2.64-2.14,3.52C197.09,223.17,196.13,223.28,196.24,222.61Z"/><path class="cls-14" d="M204,225.85c.1-1.88,1.37-3.53,2.23-5.16.7-1.32,2.25-4.19,3.23-4.42-.07,0-.15,0-.08-.13a1.88,1.88,0,0,0,.16-.23c.11-.17.6-.2.54.09a25.32,25.32,0,0,1-1.91,5c-.73,1.81-1.34,3.78-2.89,5C205,226.27,204,226.48,204,225.85Z"/><path class="cls-15" d="M245.57,241.08c-3.18,2.14-9.23.21-12.59-.36-18.89-3.27-133.25-57.4-166.57-84.92,0,0,0,0-.07-.05-7.26-6-17.31-13.33-19.84-23.06-2.47-9.53,1.44-15.51,3.36-18.8C49.86,113.89,75.31,169.06,245.57,241.08Z"/></svg>