<svg id="Layer_54" data-name="Layer 54" xmlns="http://www.w3.org/2000/svg" viewBox="0 0 256 256"><defs><style>.cls-1{opacity:0.5;}.cls-1,.cls-10,.cls-11,.cls-6{isolation:isolate;}.cls-10,.cls-2{fill:#fff;}.cls-3{fill:#c42e00;stroke:#5b0000;}.cls-3,.cls-7,.cls-9{stroke-miterlimit:10;stroke-width:2px;}.cls-4{fill:#fff6cc;}.cls-5{fill:#e03822;}.cls-6{fill:#47332f;opacity:0.42;}.cls-7{fill:#dda824;stroke:#8e5b00;}.cls-8{fill:#cc900a;}.cls-9{fill:#ffc23b;stroke:#8c7400;}.cls-10{opacity:0.55;}.cls-11{font-size:47.32px;fill:#f21100;font-family:MyriadPro-Regular, Myriad Pro;}.cls-12{letter-spacing:0em;}.cls-13{letter-spacing:0em;}</style></defs><path class="cls-1" d="M133.61,244.66c-4,0-8-.07-11.87-.21a5.2,5.2,0,0,1-1-.13c-19.94-.82-52-4-59.78-15.95-1.39-2.12-4.27-6.54-3.14-70,.43-24.22,1.73-62.77,3.17-68.6,2.47-10,10.45-13.14,15.22-15a27.34,27.34,0,0,0,2.63-1.12l.11-.28a11.17,11.17,0,0,1-1.33-.48,6,6,0,0,1-4.27-5.74v-35c0-.2,0-.41,0-.61,0-5.84,6.37-7,9.08-7.52,2.89-.53,6.93-1,12-1.4,10.19-.8,23.7-1.24,38-1.24s27.86.44,38.05,1.24c5.09.39,9.14.87,12,1.4,2.72.5,9.08,1.68,9.08,7.52V67.13a6,6,0,0,1-4.29,5.75,13.49,13.49,0,0,1-1.33.48c0,.23.08.43.12.58.67.31,1.81.69,2.69,1l.73.25c4.35,1.4,13.31,4.32,15.91,14.28,1.51,5.74,2.56,44.11,2.9,68.5.88,62.88-1.58,68.21-2.39,70-2.91,6.22-11.65,10.45-27.51,13.31-12.21,2.21-28.12,3.42-44.79,3.42Z"/><path class="cls-2" d="M128.61,239.66c-4,0-8-.07-11.87-.21a5.2,5.2,0,0,1-1-.13c-19.94-.82-52-4-59.78-15.95-1.39-2.12-4.27-6.54-3.14-70,.43-24.22,1.73-62.77,3.17-68.6,2.47-10,10.45-13.14,15.22-15a27.34,27.34,0,0,0,2.63-1.12l.11-.28a11.17,11.17,0,0,1-1.33-.48,6,6,0,0,1-4.27-5.74v-35c0-.2,0-.41,0-.61,0-5.84,6.37-7,9.08-7.52,2.89-.53,6.93-1,12-1.4,10.19-.8,23.7-1.24,38.05-1.24s27.86.44,38.05,1.24c5.09.39,9.14.87,12,1.4,2.72.5,9.08,1.68,9.08,7.52V62.13a6,6,0,0,1-4.29,5.75,13.49,13.49,0,0,1-1.33.48c0,.23.08.43.12.58.67.31,1.81.69,2.69,1l.73.25c4.35,1.4,13.31,4.32,15.91,14.28,1.51,5.74,2.56,44.11,2.9,68.5.88,62.88-1.58,68.21-2.39,70-2.91,6.22-11.65,10.45-27.51,13.31-12.21,2.21-28.12,3.42-44.79,3.42Z"/><path class="cls-3" d="M194.08,86.19c-2.66-10.81-15.31-9.69-17.92-13.57-2.07-3.07-1.29-10.87-1.29-10.87L130.2,55.21h0L81,61.75s-.26,7.43-2.29,10.5c-2.61,3.9-14.23,3.13-16.9,13.94-2,8.26-5.68,126.47-.83,133.9,11.85,18.16,126.15,17.87,134,0C198.64,211.51,196.12,94.45,194.08,86.19Z"/><path class="cls-4" d="M187.31,129a9,9,0,0,0-3.09-8.46c-3.62-3.3-9.44-4.91-15.09-5-2.58-.06-5.8-.18-6.77-2a5.22,5.22,0,0,1-.32-2.38c-.14-3-2.69-5.6-5.93-7.23a36.84,36.84,0,0,0-10.85-3c-5.3-.86-10.67-1.47-16.06-1.81V99l-.37,0-.38,0v.06a151.43,151.43,0,0,0-16.06,1.81,37.89,37.89,0,0,0-10.84,3c-3.21,1.63-5.77,4.27-5.91,7.23a5.22,5.22,0,0,1-.32,2.38c-1,1.8-4.21,1.89-6.77,2-5.65.14-11.44,1.75-15.08,5a9.1,9.1,0,0,0-3.1,8.46H70.2L81.67,189.8H176L187.46,129Z"/><path class="cls-5" d="M171.8,186.73H85.89a.8.8,0,0,1-.78-.63L74.64,130.74a.89.89,0,0,1,.06-.49,9.12,9.12,0,0,1,3.15-7.92c3.19-2.89,8.38-4.64,14.26-4.82,2-.05,4.82-.14,5.51-1.37a2.92,2.92,0,0,0,.17-1.26v-.58c.14-2.75,2.32-5.45,5.82-7.26a35.43,35.43,0,0,1,10.1-2.86c4.73-.78,9.58-1.32,14.46-1.64a.68.68,0,0,1,.34-.06l.29,0,.28,0a.72.72,0,0,1,.35.06c4.88.32,9.72.86,14.46,1.64A34.43,34.43,0,0,1,154,107c3.5,1.78,5.68,4.51,5.83,7.26v.58a2.52,2.52,0,0,0,.2,1.26c.69,1.26,3.47,1.32,5.5,1.37,5.88.15,11.08,1.93,14.26,4.82a9.16,9.16,0,0,1,3.16,7.92.74.74,0,0,1,0,.49L172.51,186.1A.67.67,0,0,1,171.8,186.73Zm-85.25-1.58h84.61l10.25-54.24a.76.76,0,0,1-.06-.52,7.46,7.46,0,0,0-2.58-6.94c-2.9-2.64-7.72-4.24-13.23-4.39-2.55,0-5.71-.14-6.85-2.21a4,4,0,0,1-.38-2v-.49c-.11-2.15-2-4.42-5-5.94a33,33,0,0,0-9.64-2.69c-4.76-.78-9.63-1.32-14.57-1.64a.34.34,0,0,1-.17,0h-.26c-.06,0-.11,0-.17,0A142.35,142.35,0,0,0,114,105.7a33.94,33.94,0,0,0-9.64,2.69c-3,1.49-4.85,3.79-5,5.94v.49a4,4,0,0,1-.38,2c-1.11,2-4.3,2.13-6.85,2.21-5.51.15-10.33,1.75-13.22,4.39a7.45,7.45,0,0,0-2.59,6.94,1.14,1.14,0,0,1,0,.52Z"/><path class="cls-6" d="M194.6,86c-2.78-10.64-16.12-9.52-18.87-13.34-2.16-3-1.35-10.67-1.35-10.67l-47-6.4-11.67,1.61L151,62s-.06.66-.12,1.66l-70.36-.11-.8,7.89,73.17,1.83c3.62,3.16,15.69,2.7,18.33,12.77,2.12,8.12,4.79,125.92.86,134.36-3.61,7.71-27.94,12.1-55.16,13.05,35.14,1.23,73.89-3.16,78.51-13.05C199.39,211.92,196.72,94.11,194.6,86Z"/><path class="cls-7" d="M74.3,26.84V62.12h.23c2.55,1.93,25.27,3.45,52.89,3.45s50.37-1.52,52.9-3.45h.22V26.84Z"/><path class="cls-8" d="M164.83,26.84V62.12h-.23c-2.3,1.75-21.06,3.16-45,3.42,2.58,0,5.19,0,7.89,0,27.65,0,50.34-1.52,52.89-3.45h.23V26.84Z"/><ellipse class="cls-9" cx="127.42" cy="26.5" rx="53.15" ry="4.16"/><path class="cls-10" d="M81.9,37.92c.2,5.56.43,11.15.63,16.72a4.07,4.07,0,0,0,.23,1.46,3.1,3.1,0,0,0,.86,1.12,13.26,13.26,0,0,0,4.16,2.52c1.52.55,3.5.52,4.27-1.26a7.26,7.26,0,0,0,.38-2.64c0-6.05,0-12.22-1.32-18C90.45,35,89,31.69,86.37,31.75,83.59,31.83,81.76,34.53,81.9,37.92Z"/><path class="cls-5" d="M167.72,174.25H89.33a2.5,2.5,0,0,1-2.5-2.49h0a2.5,2.5,0,0,1,2.5-2.5h78.39a2.5,2.5,0,0,1,2.5,2.5h0A2.46,2.46,0,0,1,167.72,174.25Z"/><path class="cls-5" d="M169.39,167.94H87.69a.86.86,0,0,1-.86-.86h0a.87.87,0,0,1,.86-.86h81.7a.86.86,0,0,1,.86.86h0A.86.86,0,0,1,169.39,167.94Z"/><path class="cls-10" d="M72.49,81.75c-2.29,1.86-3.13,5-3.47,7.88-.63,5.2-.17,10.47.29,15.67a14.09,14.09,0,0,0,.91,4.5,4.57,4.57,0,0,0,3.42,2.78,4.32,4.32,0,0,0,3.84-2,8.92,8.92,0,0,0,1.38-4.27c.4-3.79-.35-7.6-.32-11.42s1-7.92,4-10.27c1.2-1,2.67-1.55,3.76-2.61S88,79.13,87,78a3.07,3.07,0,0,0-1.34-.89C82.85,76,82,77.7,79.8,78.79,77.42,80,74.67,80,72.49,81.75Z"/><path class="cls-10" d="M68.73,184.84a191.51,191.51,0,0,1-.2,20.33c-.34,5.77-.66,12.4,3.47,16.44,2.67,2.61,6.63,3.44,10.36,3.84a10,10,0,0,0,4.42-.25A3.75,3.75,0,0,0,89.39,222c0-1.66-1.5-3-3-3.67s-3.27-.91-4.7-1.75a9.07,9.07,0,0,1-4-6,31.41,31.41,0,0,1-.43-7.32,127.88,127.88,0,0,0-1.72-21.94c-.26-1.55-.63-3.21-1.86-4.19C69.08,173.51,68.65,182.86,68.73,184.84Z"/><text class="cls-11" transform="translate(85.2 157.53)">J<tspan class="cls-12" x="17.51" y="0">A</tspan><tspan class="cls-13" x="46.28" y="0">M</tspan></text></svg>