<svg id="Layer_54" data-name="Layer 54" xmlns="http://www.w3.org/2000/svg" viewBox="0 0 256 256"><defs><style>.cls-1,.cls-10,.cls-11,.cls-12,.cls-13,.cls-14,.cls-16,.cls-17,.cls-18,.cls-19,.cls-2,.cls-20,.cls-23,.cls-3,.cls-4,.cls-5,.cls-6,.cls-7,.cls-8,.cls-9{fill-rule:evenodd;}.cls-1{opacity:0.5;}.cls-2{fill:#fff;}.cls-3{fill:#541914;stroke:#331500;}.cls-10,.cls-12,.cls-14,.cls-20,.cls-3,.cls-6{stroke-miterlimit:10;}.cls-4{fill:#39130f;}.cls-5{fill:#24803f;}.cls-11,.cls-6{fill:#267f3f;}.cls-6{stroke:#20441f;}.cls-7{fill:#cb862a;}.cls-8{fill:#8a5f25;}.cls-9{fill:#e9a322;}.cls-10,.cls-14,.cls-19{fill:#36ae4a;}.cls-10{stroke:#1d6131;}.cls-10,.cls-12,.cls-14{stroke-width:2px;}.cls-12{fill:#ec2024;stroke:#5d3111;}.cls-13{fill:#321d0f;opacity:0.22;}.cls-14{stroke:#1a8240;}.cls-15{fill:#279a47;}.cls-16{fill:#09a0ce;}.cls-17{fill:#151616;}.cls-18{fill:#299546;}.cls-20,.cls-23{fill:#65bb4a;}.cls-20{stroke:#278c43;}.cls-21{fill:#831618;}.cls-22{fill:#7c4723;}.cls-24{fill:#f2787a;}</style></defs><path class="cls-1" d="M232.63,242.2a32.29,32.29,0,0,1-18.6-5.32,7.66,7.66,0,0,1-.56.75,6.7,6.7,0,0,1-5.22,2.5c-3.34,0-5.84-2.31-7.64-4.34-3.69-4.12-22.65-25.45-40.5-47.2a123.43,123.43,0,0,1-45.05-24l-.5,0h0l-.27.15a7.34,7.34,0,0,1-3.7,1.06h-.32a6.37,6.37,0,0,1-5.43-3.6,6.28,6.28,0,0,1-1.4-1.11,6.31,6.31,0,0,1-4.46-5.32,6.39,6.39,0,0,1-2.74-3.18,6.34,6.34,0,0,1-1.32-1.21,6.19,6.19,0,0,1-3.25-8.88L85,136.05,25,104l5-10,29.09,13.42L48.78,80.86l-43.2-43,7.74-8.07L33.63,48.6c6.84-14.54,3.31-24.78,3.13-25.27l10-4.88c8.37,13.62,1.45,32.05-2.36,40.12l16.1,14.89L73.46,104C73,93.26,76.82,84.9,81.9,79.32A34.79,34.79,0,0,1,78.58,77c-1.14,2-3,4.09-6.31,4.09a7.3,7.3,0,0,1-1.61-.19,6.88,6.88,0,0,1-1.16-.39c-1.69-.69-2.81-2.13-4-4.21-.87-1.47-3.76-6.66-4.35-11.81a32.77,32.77,0,0,1-.19-3.68c0-11,6-19.92,16.9-25.07l.8-.36a9.79,9.79,0,0,1,3.63-4.24,32.18,32.18,0,0,1,18.06-5.37c16.14,0,32.53,11.56,35.35,21.13,1.52,5.17,3.08,13.22,4.46,20.32.45,2.32.88,4.57,1.3,6.6,1.74,2.92,2.83,6.47,4.19,10.83a143.44,143.44,0,0,0,14,32.56c1.53,2.64,3.1,5.3,4.64,7.89,5.57,9.42,9.22,15.68,10.72,20a44.32,44.32,0,0,1,3.4,5.05c.67,1.21,2.5,4.47,1.74,7.84,5.41,3.65,12.53,8.32,19.64,12.46,26.14-1.48,44.3-11.55,44.49-11.65l10.8-6.09-2.59,12.12-3.07,14.37-2.51,1.18a141.61,141.61,0,0,1-17.29,6.83,7.14,7.14,0,0,1,1,5.91l0,.12a25.66,25.66,0,0,1,4.93,4.82c7,5.68,9.57,10.37,8.06,14.75a7.39,7.39,0,0,1-1.06,2l.37.32c7.6,6.68,10.61,12.21,9.48,17.42-1.09,5-5.52,8-13.18,9.14a47.11,47.11,0,0,1-6.58.48Z"/><path class="cls-2" d="M228,237.55a32.39,32.39,0,0,1-18.6-5.32c-.21.32-.4.55-.55.74a6.74,6.74,0,0,1-5.23,2.51c-3.34,0-5.84-2.32-7.64-4.34-3.69-4.13-22.65-25.46-40.5-47.21a123.27,123.27,0,0,1-45-24l-.5,0h0l-.26.15a7.3,7.3,0,0,1-3.7,1.06h-.33a6.38,6.38,0,0,1-5.43-3.59,6.63,6.63,0,0,1-1.4-1.12,6.32,6.32,0,0,1-4.46-5.32A6.37,6.37,0,0,1,91.54,148a6.67,6.67,0,0,1-1.32-1.22,6.27,6.27,0,0,1-4-6.46,6.08,6.08,0,0,1,.77-2.41l-6.66-6.49-59.95-32,5-10,29.09,13.42L44.12,76.2l-43.2-43,7.74-8.07L29,43.94c6.84-14.54,3.31-24.78,3.14-25.26l10-4.88c8.37,13.61,1.45,32-2.36,40.11L55.85,68.8,68.8,99.32c-.46-10.72,3.36-19.08,8.44-24.66a33,33,0,0,1-3.32-2.28c-1.14,2-3,4.09-6.31,4.09A6.75,6.75,0,0,1,66,76.28a7.84,7.84,0,0,1-1.16-.38c-1.69-.7-2.81-2.13-4-4.22C59.93,70.21,57,65,56.45,59.88a33,33,0,0,1-.19-3.69c0-11,6-19.91,16.9-25.06l.8-.37a9.81,9.81,0,0,1,3.64-4.24,32.14,32.14,0,0,1,18.05-5.37c16.14,0,32.54,11.56,35.35,21.13,1.52,5.17,3.08,13.22,4.46,20.33.45,2.32.88,4.56,1.3,6.59C138.5,72.12,139.6,75.67,141,80a143.25,143.25,0,0,0,14,32.56c1.53,2.64,3.11,5.3,4.64,7.89,5.57,9.42,9.22,15.68,10.72,20a44.32,44.32,0,0,1,3.4,5.05c.67,1.21,2.5,4.47,1.74,7.84,5.41,3.65,12.54,8.32,19.64,12.47,26.14-1.49,44.3-11.56,44.49-11.66l10.8-6.08-2.58,12.11-3.08,14.37-2.5,1.18a142.38,142.38,0,0,1-17.3,6.83,7.19,7.19,0,0,1,1,5.91s0,.08,0,.12a26,26,0,0,1,4.93,4.82c7,5.68,9.58,10.38,8.06,14.75a7.39,7.39,0,0,1-1.06,2c.12.11.24.22.37.32,7.6,6.68,10.62,12.21,9.48,17.42-1.09,5-5.52,8-13.18,9.14a47.16,47.16,0,0,1-6.58.49Z"/><path class="cls-3" d="M110.25,152.73,83.64,126.84,23,94.45,78.46,120s28.09,12.49,38.77,23S110.25,152.73,110.25,152.73Z"/><path class="cls-4" d="M73.28,63.57s2.5-8.2,6.11-12,4.25,9.9,4.25,9.9Z"/><path class="cls-5" d="M96.33,73.18c-5.94-5.61-33.13,10.58-16.89,44.46,3.66,7.63,6.78,11.31,8,7.91a26.53,26.53,0,0,0,1.17-7.44s-.06,13.72,5.25,14.65,3.88-9.24,3.88-9.24,1.39,14.56,8.3,15.4,3.89-9.24,3.89-9.24,2.15,16.45,9.41,19.5S122,138.62,122,138.62s4.65,10.52,9.17,10.86-5.68-15.31-14.31-30.23c-15.9-27.5-14.08-40.71-20.48-46.07Z"/><path class="cls-6" d="M162.68,151.34c1.5.8,35.62,25.78,52.15,29.69,0,0,12.6,7.46.69,7.5,0,0,21.63,11.27,6.67,14.84s-20.07-7.22-20.07-7.22,3.74,12-2.08,6.58-38.71-38.79-46.78-54.82S162.68,151.34,162.68,151.34Z"/><path class="cls-7" d="M107.41,135.3a21.86,21.86,0,0,0-6.14-1,7.32,7.32,0,0,0-5.53,2.46,3.37,3.37,0,0,0-.79,1.94,2,2,0,0,0,1,1.79,2.43,2.43,0,0,0,2.51-.47c.72-.55,1.27-1.29,2-1.83,1.76-1.32,4.24-1.21,6.29-.44a44.92,44.92,0,0,1,5.77,3.16c.66.36,1.54.67,2.12.19a1.45,1.45,0,0,0,.43-.87c.24-1.46-.86-2.81-2.09-3.61-2.5-1.61-5.63-1.82-8.6-2"/><path class="cls-8" d="M92,140.44a1,1,0,0,0-.19.44.71.71,0,0,0,.66.7,2,2,0,0,0,1-.26c1-.48,6.45-3.48,4.44-4.87S92.73,139.27,92,140.44Z"/><path class="cls-9" d="M110.07,137.23a21.23,21.23,0,0,0-6.15-1,7.21,7.21,0,0,0-5.52,2.46,3.39,3.39,0,0,0-.8,1.93,2,2,0,0,0,1,1.79,2.44,2.44,0,0,0,2.52-.46c.71-.55,1.26-1.3,2-1.84,1.75-1.31,4.23-1.21,6.29-.44a46.77,46.77,0,0,1,5.76,3.16c.67.36,1.54.68,2.12.19a1.46,1.46,0,0,0,.44-.87c.23-1.46-.86-2.81-2.1-3.61-2.5-1.61-5.62-1.82-8.59-2"/><path class="cls-8" d="M94.6,142.36a1.07,1.07,0,0,0-.19.44.71.71,0,0,0,.66.7,1.87,1.87,0,0,0,1-.26c1-.48,6.46-3.48,4.44-4.87S95.38,141.19,94.6,142.36Z"/><path class="cls-9" d="M112.37,140.12a21.86,21.86,0,0,0-6.14-1,7.28,7.28,0,0,0-5.53,2.46,3.37,3.37,0,0,0-.79,1.94,2,2,0,0,0,.94,1.79,2.44,2.44,0,0,0,2.52-.47c.72-.55,1.27-1.29,2-1.83,1.75-1.32,4.24-1.21,6.29-.44a45.53,45.53,0,0,1,5.77,3.15c.66.37,1.54.68,2.11.19A1.36,1.36,0,0,0,120,145c.24-1.45-.86-2.8-2.1-3.6-2.49-1.62-5.62-1.82-8.59-2"/><path class="cls-8" d="M96.91,145.26a1,1,0,0,0-.2.43.71.71,0,0,0,.66.7,1.9,1.9,0,0,0,1-.25c1-.48,6.45-3.48,4.44-4.87S97.68,144.09,96.91,145.26Z"/><path class="cls-10" d="M233.76,231.53c-23.11,3.31-29.45-13.59-29.54-13.83.06.29,3.93,18.71-4.1,9.71-7-7.79-42.07-47.4-61.84-74.47-3.25-4.45-6.08-8.56-8.31-12.13-14.51-23.29,20.5,3.08,20.5,3.08.76.49,7.06,6,16,13.23,16.87,13.73,43.14,33.93,59.23,39.34,0,0,18.14,13.14,0,11.52C225.7,208,257.05,228.19,233.76,231.53Z"/><path class="cls-11" d="M166.47,157.12l-8.74-1.42c-6.23-1-13-3-19.45-2.76-3.25-4.45-6.08-8.56-8.31-12.13-14.51-23.29,20.5,3.08,20.5,3.08C151.23,144.38,157.53,149.84,166.47,157.12Z"/><path class="cls-12" d="M102.59,66l-2,10.26s-1.47-.19-3.81-.69a77.62,77.62,0,0,1-14.12-4.4c-4.33-1.84-8.5-5.61-9.42-7.62l.45-.19c6.67-2.9,9.8-5.74,10.74-9.31,0-.2,0-.2-.16-.16,1.76-2.13,4.25-5.18,5.85-7.26Z"/><path class="cls-13" d="M102.61,66.31l-2,10.27s-10.1,5.35-12.45,4.85c-1-5.12,5-15.46,1.13-19a1.56,1.56,0,0,0-.78-.46,1.66,1.66,0,0,0-1,.32,17.71,17.71,0,0,1-10.8,2,11.62,11.62,0,0,1-3-.64c6.66-2.9,9.79-5.74,10.73-9.31,0-.2,0-.2-.16-.16,1.77-2.13,4.25-5.17,5.86-7.26Z"/><path class="cls-14" d="M140.57,145.48c0,2.81-14.7,5.68-20.22,2.77s1.51-6.67-2.68-6.11c-.91.12-1.8.2-2.68.24-20.63.92-35.07-19.51-36.25-33.2-.08-.9-.34-3.41-.36-6.13v-.34A47,47,0,0,1,84,79.76a86.58,86.58,0,0,1,6.37-10.05c.92-1.28,1.89-2.57,2.89-3.9-4.79-9.63-1.93-9-5.27-15.06S74.59,35.2,80.67,31.19C99.16,19,123,34.9,125.63,43.86c2.87,9.74,6,30.81,7.78,35.15.87,2.15,20.64,50.93,27.72,59a66.38,66.38,0,0,1,7.74,10.18C177.13,163,140.57,140.93,140.57,145.48Z"/><ellipse class="cls-15" cx="98.2" cy="42.77" rx="11.75" ry="13.52"/><path class="cls-2" d="M102.66,32.65c-5.23-2.87-11.31-.44-13.6,5.44s.07,13,5.3,15.85,11.28.42,13.58-5.51-.09-12.94-5.28-15.78Z"/><path class="cls-16" d="M96.82,36.35c-3.64.75-5.9,4.73-5,8.9s4.5,6.94,8.14,6.2,5.9-4.73,5-8.9-4.49-6.94-8.13-6.2Z"/><path class="cls-17" d="M97.43,39.45c-2.13.44-3.46,2.78-3,5.26s2.65,4.08,4.78,3.64a4.28,4.28,0,0,0,3-5.23,4.29,4.29,0,0,0-4.82-3.67Z"/><path class="cls-2" d="M94.49,44.69a1.57,1.57,0,0,0-1.13,2,1.5,1.5,0,1,0,2.91-.59,1.58,1.58,0,0,0-1.78-1.36Z"/><path class="cls-18" d="M128.29,68.83c-6.41-5.5-35.37,13.14-16.87,45.38,4.17,7.25,4.76,10.42,5.81,7.33a21.51,21.51,0,0,0,.81-6.83s.65,12.7,6.17,13.85,3.51-8.36,3.51-8.36,2.19,13.56,9.35,14.7,3.51-8.36,3.51-8.36,3.09,15.35,10.72,18.56,2.15-9.64,2.15-9.64,5.34,10,10,10.54-6.66-14.48-16.32-28.75C129.34,90.94,130.52,78.8,123.66,73.5Z"/><path class="cls-19" d="M116.34,51.52a54.28,54.28,0,0,1-8.53,5.56,18.26,18.26,0,0,1-9.86,2c-2.07-.23-8.08-.72-8-3.68.08-2.68,5-4,7-4.67a28.53,28.53,0,0,1,9.84-1.38,27.4,27.4,0,0,1,4.86.63C112.24,50.13,116.11,51.69,116.34,51.52Z"/><path class="cls-12" d="M86.86,57.23c-3.4,1.42-3.14,1.11-10.88,3.4-6.38,1.9-5.8,10.9-8.67,10.21L67,70.75a6.57,6.57,0,0,1-1.41-1.92A27.48,27.48,0,0,1,62,59.24a26.43,26.43,0,0,1-.16-3.05c0-8.66,4.56-15.69,13.7-20,1-.46,2-.88,3.06-1.28l.38.55L80,37c1.43,2.22,2.74,4.52,3.95,6.88,1.36,2.65,3.67,6.05,6.71,6.31C101,51.07,89.44,56.16,86.86,57.23Z"/><path class="cls-20" d="M129.68,69.31c-6-5.6-33.14,10.58-16.9,44.47,3.66,7.62,6.79,11.31,8,7.91a26.79,26.79,0,0,0,1.16-7.44s-.06,13.71,5.25,14.64,3.88-9.24,3.88-9.24,1.39,14.56,8.3,15.4,3.89-9.24,3.89-9.24,2.15,16.45,9.41,19.5,2.64-10.56,2.64-10.56,4.65,10.52,9.17,10.86-5.68-15.31-14.3-30.22c-15.91-27.51-14.09-40.72-20.48-46.08Z"/><path class="cls-7" d="M115.06,143.8a21.31,21.31,0,0,0-6.2-.56,7.25,7.25,0,0,0-5.34,2.85,3.43,3.43,0,0,0-.65,2,1.94,1.94,0,0,0,1.07,1.71,2.42,2.42,0,0,0,2.48-.64c.68-.6,1.17-1.38,1.85-2,1.66-1.44,4.14-1.52,6.25-.9a45.93,45.93,0,0,1,6,2.74c.68.31,1.58.56,2.12,0a1.4,1.4,0,0,0,.37-.9c.13-1.46-1.06-2.73-2.35-3.44-2.61-1.43-5.74-1.41-8.71-1.36"/><path class="cls-8" d="M100,150a1.21,1.21,0,0,0-.16.45.72.72,0,0,0,.71.65,1.84,1.84,0,0,0,1-.33c1-.55,6.19-3.94,4.08-5.18S100.7,148.82,100,150Z"/><path class="cls-9" d="M117.84,145.53a21.61,21.61,0,0,0-6.2-.57,7.26,7.26,0,0,0-5.33,2.86,3.34,3.34,0,0,0-.65,2,2,2,0,0,0,1.07,1.71,2.43,2.43,0,0,0,2.48-.64c.67-.6,1.17-1.38,1.85-2,1.65-1.44,4.14-1.51,6.24-.89a46,46,0,0,1,6,2.73c.69.32,1.58.57,2.12,0a1.41,1.41,0,0,0,.38-.9c.13-1.47-1.06-2.74-2.35-3.44-2.61-1.44-5.74-1.42-8.72-1.36"/><path class="cls-8" d="M102.79,151.77a.94.94,0,0,0-.16.45.72.72,0,0,0,.71.65,2,2,0,0,0,1-.33c1-.55,6.19-3.94,4.08-5.18S103.48,150.54,102.79,151.77Z"/><path class="cls-9" d="M120.35,148.25a21.67,21.67,0,0,0-6.2-.57,7.29,7.29,0,0,0-5.34,2.86,3.43,3.43,0,0,0-.65,2,1.94,1.94,0,0,0,1.07,1.71,2.42,2.42,0,0,0,2.48-.64c.68-.6,1.17-1.38,1.85-2,1.66-1.44,4.14-1.51,6.25-.89a45.93,45.93,0,0,1,6,2.74c.68.31,1.58.56,2.12,0a1.4,1.4,0,0,0,.37-.9c.13-1.47-1.06-2.73-2.35-3.44-2.61-1.43-5.74-1.41-8.71-1.36"/><path class="cls-8" d="M105.3,154.49a1.08,1.08,0,0,0-.17.45.73.73,0,0,0,.71.65,2,2,0,0,0,1-.33c1-.55,6.19-3.94,4.08-5.18S106,153.26,105.3,154.49Z"/><ellipse class="cls-21" cx="76.6" cy="43.29" rx="1.85" ry="0.95" transform="translate(-10.84 33.47) rotate(-23.07)"/><path class="cls-22" d="M128.71,58a15.82,15.82,0,0,1-2.14,5.52,11.28,11.28,0,0,1-.83,1.25c-.29.4-.56.83-.88,1.22s-.66.77-1,1.14a9.1,9.1,0,0,1-1.06,1.09,27.19,27.19,0,0,1-10.45,6.09l-2.93.74a9.51,9.51,0,0,1-1.49.27l-1.49.19a35,35,0,0,1-6,.19A57,57,0,0,1,94.63,75c-1.9-.5-3.78-1-5.61-1.71,2-.2,3.88-.2,5.78-.25l2.82-.21c.94-.09,1.87,0,2.79-.22,1.84-.26,3.68-.37,5.46-.79a54.32,54.32,0,0,0,5.29-1.26,37.11,37.11,0,0,0,9.64-4.69c.79-.47,1.43-1.11,2.19-1.64s1.39-1.19,2-1.85A27.58,27.58,0,0,0,128.71,58Z"/><path class="cls-23" d="M115.72,141.58c-20.63.93-34.79-18.71-36-32.4-.08-.9-.35-3.41-.36-6.13v-.34A46.92,46.92,0,0,1,85,79.76c4.68-1.41,12,2.22,11,12-1.35,13.6,1.65,39.48,17.43,49.18C114.43,141.49,115,141.11,115.72,141.58Z"/><polygon class="cls-18" points="142.8 147.62 225.71 207.98 142.15 151 142.8 147.62"/><polygon class="cls-18" points="142.8 150.01 204.22 217.7 138.28 152.94 142.8 150.01"/><path class="cls-24" d="M64.43,55.13c-.75,7.94,1.28,12.24,3,15a11.33,11.33,0,0,1-1.67-2.23A23.41,23.41,0,0,1,62.85,59a21.16,21.16,0,0,1-.06-2.75c0-8.66,4.09-15,13.23-19.32a20.06,20.06,0,0,1,2.19-1s.62.86,1,1.39C74.29,39.34,65.41,44.59,64.43,55.13Z"/><path class="cls-3" d="M111.71,153.6s53,52.47,128.16,17.06l2.5-11.66s-55.79,31.67-116.58-5.53C125.79,153.47,116.55,143.44,111.71,153.6Z"/><polyline class="cls-3" points="69.83 116.05 51.17 72.09 4.86 29.25 48.91 73.08 65.1 114.85"/><path class="cls-3" d="M32.84,55.13s13.67-23.51,4.51-38.41c0,0,6,15.66-6.93,36.17L33,57.23"/></svg>