<svg id="Layer_54" data-name="Layer 54" xmlns="http://www.w3.org/2000/svg" viewBox="0 0 256 256"><defs><style>.cls-1{opacity:0.5;}.cls-2{fill:#fff;}.cls-3{fill:#ffe400;}.cls-4{fill:#f0c318;}.cls-5{fill:#ffcc05;}.cls-6{fill:#fceb75;stroke:#a38c31;stroke-width:0.81px;}.cls-10,.cls-13,.cls-21,.cls-23,.cls-25,.cls-6,.cls-8{stroke-miterlimit:10;}.cls-7{fill:#fdcb08;}.cls-21,.cls-23,.cls-25,.cls-8{fill:none;}.cls-21,.cls-25,.cls-8{stroke:#6c3314;}.cls-8{stroke-width:0.77px;}.cls-9{fill:#020202;}.cls-10,.cls-13{fill:#4ca5dc;stroke:#0c2735;}.cls-10{stroke-width:0.76px;}.cls-11,.cls-12{fill:#f9f9f9;}.cls-12{opacity:0.58;}.cls-13{stroke-width:0.57px;}.cls-14{fill:#f37a20;}.cls-15{fill:#e56f25;}.cls-16{fill:#a45125;}.cls-17{fill:#3f150b;}.cls-18{fill:#f6aeb7;}.cls-19{fill:#e17b7a;}.cls-20{fill:#bb5427;}.cls-21,.cls-23{stroke-width:0.96px;}.cls-22{fill:#f5841f;}.cls-23{stroke:#7d3e21;}.cls-24{fill:#b55a27;}.cls-25{stroke-width:0.76px;}.cls-26{fill:#d76d27;}</style></defs><path class="cls-1" d="M154.47,242.64a8.21,8.21,0,0,1-2.06-.27,9.83,9.83,0,0,1-5-3.07,42.21,42.21,0,0,1-3.59-4.82l-.11-.17a38.87,38.87,0,0,0-2.64-3.42,16.52,16.52,0,0,1-3.25.33,13.5,13.5,0,0,1-1.42-.07,7.23,7.23,0,0,1-1.63-.22,7.48,7.48,0,0,1-4.49-2.79,8.19,8.19,0,0,1-1,.47,10.26,10.26,0,0,1-3.77.72,10.45,10.45,0,0,1-5.35-1.5,6.46,6.46,0,0,0-3.46-1,15.28,15.28,0,0,0-5.09,1.1l-1.81.67a42.62,42.62,0,0,1-8.57,2.52,6.06,6.06,0,0,1-1.17.16h-.15c-.3,0-.6,0-.9,0a7.1,7.1,0,0,1-6.37-3.6,7.42,7.42,0,0,1-.39-6.6c0-.09-.07-.18-.1-.26-1.39-3.53.23-7.58,3.83-9.63a14.15,14.15,0,0,1,7.31-1.67h1.16q3.43,0,6.87.14l.85,0c0-.22,0-.44,0-.65-.17-.27-.36-.61-.55-1-1.08-2.29-2-4.61-2.78-6.85-7.7-4.15-13-11.13-16.12-21.28l0-.13a44.68,44.68,0,0,1-7.26-19.19c-1.18-9.57.94-18,6.29-25.15a17.67,17.67,0,0,1,4.1-4,15.33,15.33,0,0,1-5.26-2.64,8,8,0,0,1-.74-.64c-2.23-1.75-5.32-5.4-4.41-11.81a31.55,31.55,0,0,1,4.27-11.55,39.79,39.79,0,0,0,1.88-3.65c-1.33-.51-2.6-1-3.86-1.42a40.09,40.09,0,0,1-13.37,2.94l-.72,0a16.18,16.18,0,0,1-13-5.78,11.91,11.91,0,0,1-1.66-13.08,16.39,16.39,0,0,1,12.5-9.34A26.29,26.29,0,0,1,76,74.16a26.74,26.74,0,0,1,5.39.56,14.15,14.15,0,0,1,5.37-8.36,6.34,6.34,0,0,1-2.2-2.11l-1.77-2.8,1.41-3.05a6.52,6.52,0,0,1,.38-.68,54.41,54.41,0,0,1,1.07-6.66,32.18,32.18,0,0,1,1.78-3.4A6.47,6.47,0,0,1,88.93,46a7.24,7.24,0,0,1,.82-.54A16.57,16.57,0,0,1,101,36.56l-6.89-2.2,6.4-6.92a14.58,14.58,0,0,1,10.88-4.94,16.61,16.61,0,0,1,3.45.37l.91-4.51,6.93,3.27c3.58,1.68,7.54,4.05,9.75,8.79a12.48,12.48,0,0,1,.66,1.75,30.55,30.55,0,0,1,13.43,7.11,32.7,32.7,0,0,1,8.31,12.66,44.26,44.26,0,0,1,3.41,18.48,27,27,0,0,1-1.1,6.71,26.16,26.16,0,0,1-6.81,23.12,32.5,32.5,0,0,1-7.39,5.59l-.47.27c-.8.46-1.59.83-2.28,1.15-.48.23-1.16.54-1.48.75a15.84,15.84,0,0,0-.88,3.42c-.08.45-.17.9-.26,1.34a33.22,33.22,0,0,0-.82,10.23,17.17,17.17,0,0,0,.84,3.9,20.26,20.26,0,0,1,12.68,4.89,40.81,40.81,0,0,1,6.53,7c2.88,3.68,5.73,7.5,8.61,11.54a64.56,64.56,0,0,1,9.75-15.48,17.45,17.45,0,0,1,2.47-2.31,7.94,7.94,0,0,1,5-1.83,7.26,7.26,0,0,1,3.49.9,6.71,6.71,0,0,1,1,.65,7.31,7.31,0,0,1,2.95-.63,7.16,7.16,0,0,1,3.07.69c1.9.9,4.17,2.89,4.18,7.23v.11c0,.44,0,.87,0,1.29a9.94,9.94,0,0,1,1,.37,8.09,8.09,0,0,1,3.59,3.18l1.59.46v8.82l-.56.74c0,.24-.09.51-.16.79a73.19,73.19,0,0,1-6.61,16.05c-3.41,6.51-7.17,13.38-12.2,19.47-8,9.71-18.8,15.94-32,18.51-.59.12-1.24.24-2,.35a12.12,12.12,0,0,0,.32,1.93,24.43,24.43,0,0,0,1,2.93l.15.38s.11.13.51.28a21.79,21.79,0,0,0,4.6,1l.88.13a49.49,49.49,0,0,1,7.82,1.71,16.63,16.63,0,0,1,2.34,1l.13.07a7,7,0,0,1,3.84,7.55,7.59,7.59,0,0,1-.47,1.6,7.08,7.08,0,0,1-7,8.48,7.86,7.86,0,0,1-2-.25l-.54-.14A7.13,7.13,0,0,1,154.47,242.64Zm-26.2-28.7a11.71,11.71,0,0,1,4.21,3.54c.5-.41,1-.76,1.43-1.06a69,69,0,0,0-4.27-5.85l-.5,1.06a11.59,11.59,0,0,0-.68,1.63C128.4,213.48,128.34,213.71,128.27,213.94Z"/><path class="cls-2" d="M149.47,237.64a8.21,8.21,0,0,1-2.06-.27,9.83,9.83,0,0,1-5-3.07,42.21,42.21,0,0,1-3.59-4.82l-.11-.17a38.87,38.87,0,0,0-2.64-3.42,16.52,16.52,0,0,1-3.25.33,13.5,13.5,0,0,1-1.42-.07,7.23,7.23,0,0,1-1.63-.22,7.48,7.48,0,0,1-4.49-2.79,8.19,8.19,0,0,1-1,.47,10.26,10.26,0,0,1-3.77.72,10.45,10.45,0,0,1-5.35-1.5,6.46,6.46,0,0,0-3.46-1,15.28,15.28,0,0,0-5.09,1.1l-1.81.67a42.62,42.62,0,0,1-8.57,2.52,6.06,6.06,0,0,1-1.17.16h-.15c-.3,0-.6,0-.9,0a7.1,7.1,0,0,1-6.37-3.6,7.42,7.42,0,0,1-.39-6.6c0-.09-.07-.18-.1-.26-1.39-3.53.23-7.58,3.83-9.63a14.15,14.15,0,0,1,7.31-1.67H99.4q3.43,0,6.87.14l.85,0c0-.22,0-.44,0-.65-.17-.27-.36-.61-.55-1-1.08-2.29-2-4.61-2.78-6.85-7.7-4.15-13-11.13-16.12-21.28l0-.13a44.68,44.68,0,0,1-7.26-19.19c-1.18-9.57.94-18,6.29-25.15a17.67,17.67,0,0,1,4.1-4,15.33,15.33,0,0,1-5.26-2.64,8,8,0,0,1-.74-.64c-2.23-1.75-5.32-5.4-4.41-11.81A31.55,31.55,0,0,1,84.57,99.9a39.79,39.79,0,0,0,1.88-3.65c-1.33-.51-2.6-1-3.86-1.42a40.09,40.09,0,0,1-13.37,2.94l-.72,0a16.18,16.18,0,0,1-13-5.78,11.91,11.91,0,0,1-1.66-13.08,16.39,16.39,0,0,1,12.5-9.34A26.29,26.29,0,0,1,71,69.16a26.74,26.74,0,0,1,5.39.56,14.15,14.15,0,0,1,5.37-8.36,6.34,6.34,0,0,1-2.2-2.11l-1.77-2.8,1.41-3.05a6.52,6.52,0,0,1,.38-.68,54.41,54.41,0,0,1,1.07-6.66,32.18,32.18,0,0,1,1.78-3.4A6.47,6.47,0,0,1,83.93,41a7.24,7.24,0,0,1,.82-.54A16.57,16.57,0,0,1,96,31.56l-6.89-2.2,6.4-6.92a14.58,14.58,0,0,1,10.88-4.94,16.61,16.61,0,0,1,3.45.37l.91-4.51,6.93,3.27c3.58,1.68,7.54,4.05,9.75,8.79a12.48,12.48,0,0,1,.66,1.75,30.55,30.55,0,0,1,13.43,7.11,32.7,32.7,0,0,1,8.31,12.66,44.26,44.26,0,0,1,3.41,18.48,27,27,0,0,1-1.1,6.71,26.16,26.16,0,0,1-6.81,23.12,32.5,32.5,0,0,1-7.39,5.59l-.47.27c-.8.46-1.59.83-2.28,1.15-.48.23-1.16.54-1.48.75a15.84,15.84,0,0,0-.88,3.42c-.08.45-.17.9-.26,1.34a33.22,33.22,0,0,0-.82,10.23,17.17,17.17,0,0,0,.84,3.9,20.26,20.26,0,0,1,12.68,4.89,40.81,40.81,0,0,1,6.53,7c2.88,3.68,5.73,7.5,8.61,11.54a64.56,64.56,0,0,1,9.75-15.48,17.45,17.45,0,0,1,2.47-2.31,7.94,7.94,0,0,1,5-1.83,7.26,7.26,0,0,1,3.49.9,6.71,6.71,0,0,1,1,.65,7.31,7.31,0,0,1,2.95-.63,7.16,7.16,0,0,1,3.07.69c1.9.9,4.17,2.89,4.18,7.23v.11c0,.44,0,.87,0,1.29a9.94,9.94,0,0,1,1,.37,8.09,8.09,0,0,1,3.59,3.18l1.59.46v8.82l-.56.74c0,.24-.09.51-.16.79a73.19,73.19,0,0,1-6.61,16.05c-3.41,6.51-7.17,13.38-12.2,19.47-8,9.71-18.8,15.94-32,18.51-.59.12-1.24.24-2,.35a12.12,12.12,0,0,0,.32,1.93,24.43,24.43,0,0,0,1,2.93l.15.38s.11.13.51.28a21.79,21.79,0,0,0,4.6,1l.88.13a49.49,49.49,0,0,1,7.82,1.71,16.63,16.63,0,0,1,2.34,1l.13.07a7,7,0,0,1,3.84,7.55,7.59,7.59,0,0,1-.47,1.6,7.08,7.08,0,0,1-7,8.48,7.86,7.86,0,0,1-2-.25l-.54-.14A7.13,7.13,0,0,1,149.47,237.64Zm-26.2-28.7a11.71,11.71,0,0,1,4.21,3.54c.5-.41,1-.76,1.43-1.06a69,69,0,0,0-4.27-5.85l-.5,1.06a11.59,11.59,0,0,0-.68,1.63C123.4,208.48,123.34,208.71,123.27,208.94Z"/><path class="cls-3" d="M101.85,130.35S91.44,126.89,87,142.94c-4.58,16.73,8.79,33.12,8.79,33.12Z"/><path class="cls-3" d="M162.51,158s4.51-18.09,13.29-25.11S169.65,158,169.65,158s10.55-25.09,14.94-25.09c5.9,0-8.79,29.1-8.79,30.1s9.89-22.56,14.94-21.07c2.24.66-2.12,16.29-23.33,45.63l-10.06-4.48.84-23.06A6.32,6.32,0,0,0,162.51,158Z"/><path class="cls-3" d="M111.65,101.8s-7,17.06-15.82,43.15c-8.18,24.3-4.25,48.79,33.67,49.67,0,0,40.56,2.65,41.91-14.55L153.83,151,133.62,131.9s-14.94-5-5.27-33.11Z"/><path class="cls-4" d="M127.44,99.57s-4.11,12.13-2.34,20.25S131.34,130,131.34,130l-9.09,5.45s-5.36-16.83.31-33.15A46.74,46.74,0,0,0,127.44,99.57Z"/><path class="cls-5" d="M93.35,173.46s15.87,17.21,33.5,17.64c6.11.14,15.87.88,21.71-5L170.2,168l4.73,2s15.81-15,15.81-28.1c0,0,3.59,1.8-2.16,14.45S177.09,180,170.06,185.8c0,0-13.23,12.35-30.86,13.23C133,199.34,98.64,197.27,93.35,173.46Z"/><path class="cls-6" d="M163.22,159.89a94.81,94.81,0,0,0,12.14,10.65c4.4,3,4.84,10.54-10.1,4.52,0,0,14.94,7,0,7l-6.15-1s18.89,9.53-10.55,5c0,0-11.86-1.51-18-12.55L142.34,158Z"/><path class="cls-7" d="M123.07,154s-4.39-22.08,7-25.09c0,0,7.91-5,23.73,18.07,0,0,7.91,12,11.43,15s7.91,12-7.91,9c0,0,10.54,10-7,6,0,0,4.39,16.06-16.6.95C133.72,178,125.71,171,123.07,154Z"/><path class="cls-3" d="M110.2,105.22a42.54,42.54,0,0,0,16.68-5.59c12.14-7,22.16-11.92,18.68-28.31,0,0,3.89-7.25-1.51-22s-16.68-16.76-22.56-17.27c0,0,3.21-5.59-6.49-10.16,0,0-.38,3.05,2.56,7.11,0,0-7.85-10.67-17.66-3.05,0,0,9.81,2.54,11.29,4.57,0,0-7.36-2-9.82,3.56,0,0,5.89.51,7.85,1.53a5.07,5.07,0,0,0-4.9,2.54s-13.74-6.1-15.7,10.16l1,10.16-.49,5.08s-11.28,4.57-5.4,13.21L105.3,103.7Z"/><path class="cls-4" d="M144.75,52.66s1.76,15.47-2.17,18c0,0,2.72,21.71-27.09,30.42l-1,3.2s8-1.61,13.88-5.67c0,0,10.31-5.59,12.76-8.64s7.08-7.26,4-18.62C145.14,71.36,149.37,66.16,144.75,52.66Z"/><path class="cls-8" d="M90.69,41.52c6-7.68,13.63-3.36,13.63-3.36a5.07,5.07,0,0,1,4.9-2.54c-1.47-1-7.85-1.53-7.85-1.53,2.46-5.59,9.82-3.56,9.82-3.56-2-2-11.29-4.57-11.29-4.57,8.83-7.62,17.44,2.73,17.44,2.73A10.19,10.19,0,0,1,115,21.9c9.7,4.57,6.49,10.16,6.49,10.16s14.71,0,21.28,14.22c7.23,15.67,2.79,25,2.79,25a29.29,29.29,0,0,1,.47,9C143.09,93,133.94,94.93,128.85,98.62S114,104.74,114,104.74l-5.32-3.33L84.32,77.51A8.1,8.1,0,0,1,82.09,71c.34-4.29,6.26-7,6.26-7l1-7.45s-.26-2.55-.62-6.82C88.75,49.64,88.42,44.42,90.69,41.52Z"/><path class="cls-9" d="M123,49.33s4.41.51,6.87-3a6.86,6.86,0,0,1-4.91,4.07s-2,.51-2.45,0S123,49.33,123,49.33Z"/><path class="cls-9" d="M123.94,52.89s5.4.51,7.36-1.52c0,0-.49,3-6.38,2.54Z"/><path class="cls-9" d="M125.41,55.94a5.07,5.07,0,0,0,5.4,1.52,4.43,4.43,0,0,1-5.4-.51Z"/><ellipse class="cls-4" cx="115.83" cy="60.16" rx="9.26" ry="15.43"/><ellipse class="cls-9" cx="117.07" cy="60.26" rx="8.83" ry="14.99"/><ellipse class="cls-2" cx="117.07" cy="61.27" rx="7.85" ry="13.46"/><ellipse class="cls-10" cx="118.59" cy="64.96" rx="7.62" ry="5.98" transform="translate(36.16 172.14) rotate(-81.15)"/><ellipse cx="118.59" cy="64.96" rx="5.59" ry="4.39" transform="translate(36.16 172.14) rotate(-81.15)"/><ellipse class="cls-11" cx="122.18" cy="66.34" rx="1.3" ry="1.56" transform="translate(31.19 171.45) rotate(-77.62)"/><ellipse class="cls-12" cx="120.4" cy="60.13" rx="2.13" ry="2.5" transform="translate(35.47 164.53) rotate(-77.41)"/><ellipse class="cls-4" cx="95.36" cy="57.16" rx="14.79" ry="6.16" transform="translate(13.53 132.42) rotate(-73.54)"/><path class="cls-9" d="M93.42,47.64s-4.66.49-6.51-3c0,0,.43,3,4.29,3.93,0,0,1.93.49,2.54,0S93.42,47.64,93.42,47.64Z"/><path class="cls-9" d="M92.07,51.11s-5.68.5-7.32-1.47c0,0-.08,3,6.11,2.46Z"/><path class="cls-9" d="M90.15,54.08a6.61,6.61,0,0,1-6,1.47A5.11,5.11,0,0,0,90,55.07Z"/><ellipse class="cls-9" cx="94.48" cy="58.04" rx="14.79" ry="6.16" transform="translate(12.05 132.2) rotate(-73.54)"/><ellipse class="cls-2" cx="94.15" cy="58.98" rx="13.28" ry="5.48" transform="translate(10.82 132.46) rotate(-73.47)"/><ellipse class="cls-13" cx="94.4" cy="61.62" rx="6.99" ry="3.6" transform="translate(11.64 138.16) rotate(-75.9)"/><ellipse cx="94.4" cy="61.62" rx="5.13" ry="2.65" transform="translate(11.64 138.16) rotate(-75.9)"/><ellipse class="cls-12" cx="96.37" cy="57.53" rx="2" ry="1.48" transform="translate(34.96 151.48) rotate(-87.66)"/><ellipse class="cls-11" cx="96.73" cy="62.57" rx="1.1" ry="0.8" transform="translate(13.54 142.26) rotate(-76.66)"/><path class="cls-14" d="M125.84,80.37c-.59-4.88-6-4.75-11.79-4.37s-11.16-8.12-13.32-10.25-6.6-1.25-10.91,4.75S80.31,77,80.31,77s-11.79-4.5-18.39.62-1.65,10.74-1.65,10.74c3.43,3.75,9.39,2.87,12.18,2.63s6.59-3.13,10-2.63,11.41,3.87,11.41,3.87c-.13,6.75-16.51,24.64.25,27.61,16.24,2.87,19.58-11.75,21.35-20.12S126.76,88,125.84,80.37Z"/><path class="cls-15" d="M63,90.3s-.86-5.15,8.81-5.66,22.39,6.49,29.27,4.52,13.78-3.3,16.45-9.85a2.53,2.53,0,0,1,3.44-1,8.6,8.6,0,0,0,4.41.49s1.11,1.55-.18,5.86-7.6,7.9-9.11,13-2.53,12.88-6.43,17.1-5.9,5.75-14,5.5-9.5-4.58-9.55-6.35.34-5.34,3.36-10.8S93.75,94,93.88,92.23c0,0-11.18-4.35-12.64-4.31A46.65,46.65,0,0,1,71.86,91C67,92,63.43,90.62,63,90.3Z"/><path class="cls-16" d="M119.76,80.72A29.14,29.14,0,0,1,107.26,89C99.41,91.5,97,92,89.11,89.47s-12.26-4.57-21.58-3c0,0-.85,1.16,1.29.84s12.09.08,17.42,2.16,6.68,3.52,12.13,3.06,14.21-4.37,16.95-6.49a55.53,55.53,0,0,0,5.13-4.58Z"/><path class="cls-17" d="M96.85,92.46s-1.42,8.5-5.13,14.12,1,10.78,7.51,9.19,8.75-5.16,13.22-20.15c0,0,2.29-8.8,6.09-12.18C118.54,83.44,106.75,93,96.85,92.46Z"/><path class="cls-8" d="M67.49,87.3S80,86.69,85,89l8.9,3.27s4.76.66,7.64-.17,13.31-3.78,18.93-10.65l-1.88-1.9s3.19,2.34,2.93,3.1"/><path class="cls-8" d="M77.35,76.1s7.79,3.34,11,3.34"/><path class="cls-18" d="M94.93,99.75s2.25-3.61,7.06-1.64a7.56,7.56,0,0,1,9.63-1,49.62,49.62,0,0,1-2.41,7.86c-1.6,3.93-4,9.83-10.43,10.81s-8.82-3-8-6.88S93.5,106.31,94.93,99.75Z"/><path class="cls-19" d="M95.72,99s3.87-.65,4.15,1.41l1.47-1.77s8.2-2.24,7.06,8l1.88-4.79,1.34-3.68.28-.81a5.92,5.92,0,0,0-3.75-1.76,7.13,7.13,0,0,0-5.77,2l-.39.5A5.47,5.47,0,0,0,95.72,99Z"/><path class="cls-8" d="M96.85,92.46s-2.38,10.28-4.69,13.43-2.81,8.36,2.34,9.81a10.79,10.79,0,0,0,12.41-5.53s2.55-5.69,5.25-13.58a67.7,67.7,0,0,1,5.16-12"/><path class="cls-8" d="M94.75,99.89A6.25,6.25,0,0,1,102,98.11"/><path class="cls-8" d="M99.17,101.41s2.75-4.63,6.37-5.59a6.79,6.79,0,0,1,6.08,1.3"/><path class="cls-20" d="M86.17,111.32a9.38,9.38,0,0,0,9.55,6.34s6.11,1.24,10.07-2.28c3.43-3,5.84-7.35,8.07-16.88a27.27,27.27,0,0,1,9.9-14.87l2.14-1.69s-.28,4.84-3.57,7.2-6.46,8.32-6.84,12-2.77,13.31-9.18,17.11-15.61,3.85-19.59-1.77A5.88,5.88,0,0,1,86.17,111.32Z"/><path class="cls-8" d="M93.88,92.23a35.08,35.08,0,0,1-4.06,10.15c-3.16,5.38-4.39,10.21-3.58,13.12.65,2.37,4.34,5.27,8.51,5.37s16.59.82,20.43-17.83a22.5,22.5,0,0,1,8.13-14.76s4.48-5,1.82-10c0,0-2.14-4.11-9.93-2.34-6,1.35-14.23-10.22-14.23-10.22s-3.57-4.19-9.43,2.67S83.22,78.29,76,75.79c0,0-8.13-2.27-13.45,1.39s-6,9.88.49,13.12,18.56-2.16,18.56-2.16"/><path class="cls-9" d="M111.79,41.41s1.85-4.27,8.23-4.27,8.83,6.1,8.83,6.1-3.07-5.3-8.4-5.45S112.4,41.11,111.79,41.41Z"/><path class="cls-9" d="M91.07,42.07a6.39,6.39,0,0,1,6.15-3.91c4.77,0,6.61,5.58,6.61,5.58s-2.3-4.85-6.29-5S91.52,41.79,91.07,42.07Z"/><path class="cls-8" d="M107.51,40.44s-3.93,1.53-3.19-2.28"/><path class="cls-17" d="M99.41,93.54s-12.26,16.25-2.93,22.52c0,0-10-.07-4.92-10.33A91.14,91.14,0,0,0,97,92.52Z"/><path class="cls-5" d="M101,130.35s-5.45,15-6.61,19.83-2.28,16.64-.4,23.27c0,0-4.71-7.92-5.81-11.69C86.16,155,92,127.79,101,130.35Z"/><path class="cls-21" d="M92.9,172.14c-7.15-10.64-9.37-23.18-4.18-33.87S101,130.35,101,130.35"/><path class="cls-22" d="M119.76,196.28s.38,3.65-2,9.4-1.79,6.38-.9,7.06,5.85,2.87,5.75,4.65c0,0-.08,1.36-4,.38-3.3-.84-1.89-2.47-8.69-1.9-5.64.47-7.72,2.92-14.63,4.23-6.06,1.15-.78-4.07-.78-4.07l.1-1.31s-3.65.21-1.62-2.45,14.89-.32,18.5-1.36c0,0,1.93-1.52,1.36-6.59a24.42,24.42,0,0,0-4.76-12.9S115.68,195.81,119.76,196.28Z"/><path class="cls-5" d="M112.62,202.1s.12-1.31,1.89-.42,1.86.27,2.69-.31a1.19,1.19,0,0,1,1.77.75s1.63-4.19.79-5.84a59,59,0,0,0-8.78-3.42c-3.53-.88-2.56-1-2.56-1S111.86,199.91,112.62,202.1Z"/><path class="cls-3" d="M123.84,158s4.25,10,11,10,0-10,0-10,6.5,7,11.45,5-2-10.5-2-10.5,9.62,5.54,13.14.46c0,0-.82-3.1-10.08-14.6s-15.92-12.12-21.56-7.48S120.21,153,123.84,158Z"/><path class="cls-23" d="M128.35,128.89s8.85-5.1,18.92,9.49c0,0,7,8.71,10.74,14.67a51.18,51.18,0,0,0,8.29,10s5.77,7-1.59,8.48c0,0-5.6.52-7.36-.49,0,0,4.05,3.77,2.9,5.9s-9.93.12-9.93.12,1.43,5.82-1.92,7.43-16.05-4.3-21.81-17.46C122.2,157,115.16,136.92,128.35,128.89Z"/><path class="cls-21" d="M105.25,119.23s-.88.89-4.14,10.47c-3.46,10.22-11.73,33.62-7.34,45.14,0,0,3.54,11.41,12.36,15.81,0,0,15,8.83,31.7,8.41a49,49,0,0,0,30-11.05s6.17-4.41,12.85-15.87c7-12.08,14.42-26.89,10-30.2,0,0-4.09-3.32-16.13,23.14,0,0,11-21.43,11.38-30.11s-11.73,10.27-16.26,22.84c0,0,10.47-20.94,8.7-25.35s-14.11,15-16.13,26.23"/><path class="cls-21" d="M128.21,99.18s-4,10.35-2.88,20c0,0,1,7,4.12,9.22"/><path class="cls-22" d="M123.32,195.5s8.08,8.15,11.1,13.27c0,0,2.57,4.78,1.4,5.7s-5.46,3-5.87,4.39,1.71,1.77,5.44.91c0,0,2.44-.75,3-.12a31.2,31.2,0,0,1,4.74,5.54c1.4,2.4,3.55,6.36,6.2,6.45,0,0,1.16,0,.94-2.14-.24-2.33,1.53-6,7.11-4.18a3.08,3.08,0,0,0,2.3.06c.86-.52-.61-3-1.88-3.48,0,0,2.12,0,2.52-1.25s-4.89-2.65-10.69-3.3-7.79-2.43-8.58-3.77a19,19,0,0,1-2.82-8.78c-.09-3.92,1.18-6,2.71-8.41l3.53-2.65L137.43,192h-9.7l-7-.88Z"/><path class="cls-5" d="M131.37,204.48s-.11-1,1.65-.16a1.94,1.94,0,0,0,2.65-.88s1.68-1.76,2.6,0a9.6,9.6,0,0,1,1.74-5.5,20.71,20.71,0,0,1,4.48-4.2l.88-1.76-6.69-.56-4.77.56-10.43-.88-4-.45,2.72,5,3.7,2.55A55,55,0,0,1,131.37,204.48Z"/><path class="cls-24" d="M150.27,229s.14-4.62,5.56-4.07a83.63,83.63,0,0,0-8.7-3s-1.76,0-.88.88A43.42,43.42,0,0,1,150.27,229Z"/><path class="cls-24" d="M94.52,216a6,6,0,0,1,3.23-1.13,8,8,0,0,0-3.13-.18Z"/><path class="cls-25" d="M157.82,221.9a48.23,48.23,0,0,0-7.6-2.15"/><path class="cls-26" d="M138.08,219.44s5.47,5.29,7.92,9.86c0,0,1.15,2.32,3.35,2.34l.72-.38a12.89,12.89,0,0,1-4.7-4c-1.77-2.65-5-7-5-7S137.84,217.8,138.08,219.44Z"/><path class="cls-26" d="M146,221.9s-.63-.83,1.13-.83,12.66,4.07,12.66,4.07l-.83.49-2.14-.56-7-2.23Z"/><path class="cls-26" d="M92.72,220s8.71-4.22,14.36-4.67,7.83-.52,12.92,1.72c0,0,1.83,1.06,2.58-.11,0,0,.26,1.07-2.58,1.27l-2.6-.88a31.93,31.93,0,0,0-3.7-1.38,30.73,30.73,0,0,0-8.38.86C103,217.55,94.74,221.61,92.72,220Z"/><path class="cls-26" d="M92.72,213.21s1.51.81,5.92.81c0,0,1.76,0,0,.87l-2.16-.25-3.13,0S92.09,214.15,92.72,213.21Z"/><path class="cls-26" d="M131.85,204.57a26.76,26.76,0,0,1,4.72,6.8c1.74,3.53-1,4-1,4s-5.82,3.8-5.53,4.32l-.13-.81a16.69,16.69,0,0,1,3.61-2.83l3-2-1.22-3.36Z"/><path class="cls-26" d="M119,202.12s-2.53,2.23-3.58,7.49c-.88,4.41,6.85,6.71,6.85,6.71a4.83,4.83,0,0,0-2-1.65c-1.36-.65-3.62-1.8-3.82-2.55s-.95.17-.13-2.49,2.71-7.26,2.71-7.26Z"/><path class="cls-25" d="M122.58,194.26s6.92,7.42,8.79,10.22c1.28,1.92,3.8,5,4.49,7.69,0,0,.69,1.85,0,2.3-1,.58-5.41,3.05-5.87,4.39s1.55,1.27,3.19,1.3,4.2-1.28,5.13-.62a39.21,39.21,0,0,1,5.11,6c1.11,1.68,3.45,5.15,4.48,5.62s2.9,1.33,2.41-2.19c0,0-3.5-5.74-4.2-6.39,0,0-1.14-1.09,2.34-.3,0,0,9.36,3.11,10,3.26,1.48.35,2-.9.59-2.29a10.25,10.25,0,0,1-1.21-1.38s2.87-.16,2.48-1.6-8.57-2.71-10.65-3-7.14-1.12-8.58-3.77-4.59-9.89-.81-16l3-4.21"/><path class="cls-25" d="M120,196.53s-.38,5.34-1.39,6.79-2.26,6.11-2.52,7.3,1,2.65,3.43,3.69,3.34,2.78,3.06,3.08c-.58.6-2.34,1.74-5.76-.36-2.75-1.69-7.86-1.62-12.36.11s-7.26,2.76-10.29,3.13-1.08-2.54-1.08-2.54a7.16,7.16,0,0,1,4.66-2.83c3.09-.44-3.77-.2-3.77-.2s-2.32-.29-1.26-2,4.57-1.72,5.91-1.73,11,.22,11,.22a2.64,2.64,0,0,0,2.92-2.15c.61-2.48.7-6.68-.23-7.67s-3.82-9.23-3.82-9.23"/><path class="cls-26" d="M148.89,219.31l8.93,2.59s1.94,0,1.8-.43S149.78,218.43,148.89,219.31Z"/></svg>