<svg id="Layer_54" data-name="Layer 54" xmlns="http://www.w3.org/2000/svg" viewBox="0 0 256 256"><defs><style>.cls-1{opacity:0.5;}.cls-2{fill:#fff;}.cls-3,.cls-9{fill:#ecd6ad;}.cls-3{stroke:#000;stroke-miterlimit:10;stroke-width:2px;}.cls-4{fill:#f4882f;}.cls-5{fill:#c7672b;}.cls-6{fill:#e5872f;}.cls-7{fill:#f1e5bb;}.cls-8{fill:#ed944a;}.cls-10{fill:#cc5831;}.cls-11{fill:#951607;}.cls-12{fill:#e6e7e8;}.cls-13{fill:#1d4a23;}.cls-14{fill:#64a02a;}.cls-15{fill:#8bb93c;}.cls-16{fill:#e2ef95;}.cls-17{fill:#f1b416;}.cls-18{fill:#fae452;}.cls-19{fill:#f9d136;}.cls-20{fill:#ed7272;}.cls-21{fill:#f4a4a4;}.cls-22{fill:#d61f16;}.cls-23{fill:#a51f13;}.cls-24{fill:#f42121;}.cls-25{fill:#b81f21;}.cls-26{fill:#c5f37c;}.cls-27{fill:#4a9e00;}.cls-28{fill:#98d54f;}.cls-29{fill:#bae34c;}.cls-30{fill:#4db034;}.cls-31{fill:#6dbf31;}.cls-32{fill:#adda2b;}.cls-33{fill:#d6f781;}.cls-34{fill:#f1b4b8;}.cls-35{fill:#9d639f;}.cls-36{fill:#f5b1f8;}.cls-37{fill:#b76eb7;}.cls-38{fill:#f79afc;}.cls-39{fill:#d27cd0;}.cls-40{fill:#b26eb2;}</style></defs><path class="cls-1" d="M117.07,187.9l-1.64,0h-.19c-.08,0-1.84,0-3.92-.12l-.75,0a19.16,19.16,0,0,1-5.56-.65l-.36-.12c-4.6-1.26-47.89-15.31-61.33-19.68a6.58,6.58,0,0,1-.83-.34,10.57,10.57,0,0,1-1.26-.76,7.94,7.94,0,0,1-3.89-6.69c0-1,.16-8.83.21-11.54,0-.26,0-.53-.06-.8a6,6,0,0,1,1.76-4.29,14.29,14.29,0,0,1,6.93-3.41,23,23,0,0,1-2.07-2.93h-.93a6.14,6.14,0,0,1-1.54-.2l-.34-.09a2.14,2.14,0,0,1-.34-.09q-.27-.07-.54-.18a5.7,5.7,0,0,1-1-.45,6.34,6.34,0,0,1-1.53-1.13c-.13-.13-.25-.27-.37-.41a7.49,7.49,0,0,1-.49-.62,7.08,7.08,0,0,1-.85-1.67,6.34,6.34,0,0,1-.26-.92,7.52,7.52,0,0,1-.13-2.18,9.22,9.22,0,0,1,.78-3,5,5,0,0,1,.29-.62,18.46,18.46,0,0,1,2.64-3.77l.08-.1c.23-.26.44-.49.66-.72l.35-.36c.25-.25.46-.47.69-.69l.93-.88.68-.6c.4-.38.73-.65.95-.83l.28-.21c.12-.1.22-.19.33-.27l-.88-.28a6.65,6.65,0,0,1-.83-.35c-2.44-1.22-5-3.79-5-7.36v-.21c0-.76.14-7.14.22-11.63,0-.13,0-.26,0-.39a6,6,0,0,1,1.75-4.44c.68-.68,3.32-3,8.68-3.74,2.57-.39,43.23-7.69,80.4-14.38l.69-.13.36,0c.14,0,3.29-.39,7.35-.48h3.07l1.61.06a41.36,41.36,0,0,1,7.57,1l.38.09c8,2,49.65,12.89,51.42,13.35,17.2,4.37,18.29,4.9,18.88,5.19,3.54,1.7,4.65,4.12,4.95,5.88a6,6,0,0,1,.17,1.4v13.33a6.33,6.33,0,0,1-.16,1.37c-.29,1.24-1.37,3.93-5.29,5.63a2.83,2.83,0,0,1-.2.28,11.57,11.57,0,0,1,2.4,4.88,5.94,5.94,0,0,1,0,3,6,6,0,0,1,.41,3.74l-.06.28a6,6,0,0,1-.08.95,6.51,6.51,0,0,1-.31,4.07,6.1,6.1,0,0,1-1.06,1.79,12.11,12.11,0,0,1-2.53,3.86,8.83,8.83,0,0,1,1.33.51,10,10,0,0,1,3.26,2.39,7.34,7.34,0,0,1,1.63,2.89,6.72,6.72,0,0,1,.23,2.48v12.9a6.33,6.33,0,0,1-.16,1.37c-.36,1.5-1.87,5.16-8.23,6.56-3.45.76-84.78,13.83-94,15.32a6,6,0,0,1-1,.07l-.61,0C119.53,187.85,118.31,187.9,117.07,187.9Z"/><path class="cls-2" d="M112.07,182.9l-1.64,0h-.19c-.08,0-1.84,0-3.92-.12l-.75,0a19.16,19.16,0,0,1-5.56-.65l-.36-.12c-4.6-1.26-47.89-15.31-61.33-19.68a6.58,6.58,0,0,1-.83-.34,10.57,10.57,0,0,1-1.26-.76,7.94,7.94,0,0,1-3.89-6.69c0-1,.16-8.83.21-11.54,0-.26,0-.53-.06-.8a6,6,0,0,1,1.76-4.29,14.29,14.29,0,0,1,6.93-3.41,23,23,0,0,1-2.07-2.93h-.93a6.14,6.14,0,0,1-1.54-.2l-.34-.09a2.14,2.14,0,0,1-.34-.09q-.27-.07-.54-.18a5.7,5.7,0,0,1-1-.45,6.34,6.34,0,0,1-1.53-1.13c-.13-.13-.25-.27-.37-.41a7.49,7.49,0,0,1-.49-.62,7.08,7.08,0,0,1-.85-1.67,6.34,6.34,0,0,1-.26-.92,7.52,7.52,0,0,1-.13-2.18,9.22,9.22,0,0,1,.78-3,5,5,0,0,1,.29-.62,18.46,18.46,0,0,1,2.64-3.77l.08-.1c.23-.26.44-.49.66-.72l.35-.36c.25-.25.46-.47.69-.69l.93-.88.68-.6c.4-.38.73-.65.95-.83l.28-.21c.12-.1.22-.19.33-.27l-.88-.28a6.65,6.65,0,0,1-.83-.35c-2.44-1.22-5-3.79-5-7.36v-.21c0-.76.14-7.14.22-11.63,0-.13,0-.26,0-.39a6,6,0,0,1,1.75-4.44c.68-.68,3.32-3,8.68-3.74,2.57-.39,43.23-7.69,80.4-14.38l.69-.13.36,0c.14,0,3.29-.39,7.35-.48h3.07l1.61.06a41.36,41.36,0,0,1,7.57,1l.38.09c8,2,49.65,12.89,51.42,13.35,17.2,4.37,18.29,4.9,18.88,5.19,3.54,1.7,4.65,4.12,4.95,5.88a6,6,0,0,1,.17,1.4v13.33a6.33,6.33,0,0,1-.16,1.37c-.29,1.24-1.37,3.93-5.29,5.63a2.83,2.83,0,0,1-.2.28,11.57,11.57,0,0,1,2.4,4.88,5.94,5.94,0,0,1,0,3,6,6,0,0,1,.41,3.74l-.06.28a6,6,0,0,1-.08,1,6.51,6.51,0,0,1-.31,4.07,6.1,6.1,0,0,1-1.06,1.79,12.11,12.11,0,0,1-2.53,3.86,8.83,8.83,0,0,1,1.33.51,10,10,0,0,1,3.26,2.39,7.34,7.34,0,0,1,1.63,2.89,6.72,6.72,0,0,1,.23,2.48v12.9a6.33,6.33,0,0,1-.16,1.37c-.36,1.5-1.87,5.16-8.23,6.56-3.45.76-84.78,13.83-94,15.32a6,6,0,0,1-1,.07l-.61,0C114.53,182.85,113.31,182.9,112.07,182.9Z"/><path class="cls-3" d="M214.09,94.62h0c-.16-.63-1.06-1.18-1.65-1.45-1.13-.55-17.79-4.78-17.79-4.78S150.07,76.66,143,75s-17.48-.43-17.48-.43-77.47,14-81.31,14.54-5.3,2-5.3,2a.14.14,0,0,0,.08,0c0,.63-.19,11.25-.19,12.35s1.72,2,1.72,2l6.31,2a4.2,4.2,0,0,0-.58,1.56h0v0h0v.28a3.71,3.71,0,0,0,.94,2.39,25.79,25.79,0,0,0-2.86,3.33c.07,0,.19,0,.27,0-.51.35-.94.71-1.41,1.06h0c-.16.12-.28.24-.43.35s-.08.08-.12.08c-.2.16-.39.32-.59.51l0,0a20.74,20.74,0,0,0-4.66,5.25h0c-.08.12-.12.24-.2.36v0a.83.83,0,0,1-.16.31v0a.89.89,0,0,0-.07.27v0a.59.59,0,0,0,0,.28v0c0,.07,0,.15,0,.23v.35s0,.12,0,.16,0,0,0,.08,0,.08.07.16,0,0,0,.07,0,.08.08.12,0,0,0,.08.08.08.12.08,0,0,.08,0,.07,0,.11.08.08,0,.12,0a1.16,1.16,0,0,0,.16,0s.08,0,.12,0a.21.21,0,0,1,.15,0,.24.24,0,0,1,.16,0h.9a11.21,11.21,0,0,0,1.33-.27c1.46-.43,2.91-.79,4.32-1.14a5.56,5.56,0,0,1-.08.82c.35.4.7.75,1.1,1.14a.54.54,0,0,1,.19-.23,2.59,2.59,0,0,1,3.14-.55,2.2,2.2,0,0,1,1.33-.16s.08.08.12.08a1.53,1.53,0,0,1,.67,1.45,10.23,10.23,0,0,0-1.89,1.72,2.18,2.18,0,0,1-1.72-.39c-1-.78-2.59-.62-3.92-.55a16.13,16.13,0,0,0,3.61,4.67,1.93,1.93,0,0,1,.94-.39l-.08,1.72c-.08,1.92,1.25,3.77,3.6,5.33l-7.88,1.38c-3.8.54-5.29,2-5.29,2a.14.14,0,0,0,.08,0c0,.63-.2,11.26-.2,12.35s1.73,2,1.73,2,58.49,19,61.08,19.6l.59.12v.08a20.64,20.64,0,0,0,4.74.39c2,.12,3.65.12,3.65.12h.31a35.23,35.23,0,0,0,4.78-.12c.63,0,1.06,0,1.06,0s90.33-14.5,93.7-15.25,3.69-2.07,3.69-2.07V146.06a.68.68,0,0,0,0-.4h0c-.16-.62-1.06-1.17-1.65-1.45s-7.37-2.11-12.35-3.41a4.67,4.67,0,0,0,.08-.78l.12-2.86a5.59,5.59,0,0,1-1.34,3.33h0a5.69,5.69,0,0,0,1.34-3.33v0l.7.35.32-.24a2.63,2.63,0,0,1,1.92-.47,9.76,9.76,0,0,0,.78-1.37,2.41,2.41,0,0,1,3.45-1.06c1.53.87,2.67-1,3.33-2.66a4.26,4.26,0,0,1-1.49-.55h.67a.3.3,0,0,0,.2,0h.08c.07,0,.15,0,.23,0a.15.15,0,0,0,.12,0,.15.15,0,0,0,.12,0,.13.13,0,0,0,.11,0s.08,0,.08,0,.08,0,.12,0,0,0,.08,0a.14.14,0,0,0,.08,0s0,0,.07,0,0,0,.08,0l0,0s0,0,.08,0l0,0,.08-.08a0,0,0,0,1,0,0s0,0,0-.08v0a.83.83,0,0,0-.08-.78h0s0-.12-.08-.16h0a.78.78,0,0,1-.12-.19h0a9.4,9.4,0,0,0-1-1.1,3.22,3.22,0,0,0,.94-1,1,1,0,0,1,.16.28,1,1,0,0,0,.12.19,4,4,0,0,0-.16-.74,4.59,4.59,0,0,0,.28-.79s-.08.12-.16.2a2.09,2.09,0,0,1-.24.31,3.48,3.48,0,0,0-1.72-1.72,15,15,0,0,1-3.45-2.39,9.77,9.77,0,0,1,3,.51,3.72,3.72,0,0,1,2.19-.91c-.43-1.68-1.33-3.6-3-2.86a2.3,2.3,0,0,1-3.29-1.25s0-.12,0-.16a13.1,13.1,0,0,0,1.33-.51v-2.67c.24-.11.47-.19.71-.31,1.33-.67,3.45-1.84,3.45-3.65v-.11a.76.76,0,0,1,.27,0c3.38-.75,3.69-2.08,3.69-2.08V95.05A1.73,1.73,0,0,1,214.09,94.62Zm-163.21.94-5.06-1.72Zm-2.7,36h0c.27,2.43,2.78,4.74,6.74,6.51h0C50.92,136.29,48.41,134,48.18,131.59Zm2.27,14.9-5.06-1.73Zm162.43.35a7.35,7.35,0,0,1-2,1s-39.88,6.74-66.61,11.29l67.12-11.64A4.78,4.78,0,0,0,212.88,146.84Zm-2.2-20a2.31,2.31,0,0,1-1.84.27l-.67-.55.2-.08A2.43,2.43,0,0,1,210.68,126.85Zm-37.52-23.49c-.08,0-.16,0-.23,0l38.93-6.74a7.72,7.72,0,0,0,1.45-.67,7.35,7.35,0,0,1-2,1S193.2,100,173.16,103.36Z"/><path class="cls-4" d="M38.49,142.1s1.49-1.49,5.3-2,81.31-14.55,81.31-14.55,10.43-1.25,17.48.43,51.67,13.41,51.67,13.41,16.67,4.24,17.8,4.78,3.37,2-.55,3.38l-92,16s-8.19,1-12.43.55S40,143.55,38.49,142.1Z"/><path class="cls-5" d="M110,164a70.46,70.46,0,0,0,10.78-.86c4.51-.86,90.1-15.33,90.1-15.33s2.74-.86,2.74-2.27v13.72s-.27,1.33-3.69,2.08-93.69,15.25-93.69,15.25-4.83.23-6.16.15Z"/><path class="cls-6" d="M38.57,142.1s2,.7,5,2c6.39,2.62,57.87,18.62,59.28,18.89s5.68,1.45,7.17,1l.08,12.78a66.3,66.3,0,0,1-9-.66c-2.58-.63-61.08-19.61-61.08-19.61s-1.72-.86-1.72-2S38.57,142.1,38.57,142.1Z"/><path class="cls-7" d="M42.57,142.29s1.41-1.37,5.06-1.88,77.51-13.29,77.51-13.29,10-1.18,16.7.39,49.24,12.27,49.24,12.27,15.88,3.88,17,4.39,3.22,1.81-.55,3.1l-87.74,14.59s-7.8.9-11.84.5S44,143.66,42.57,142.29Z"/><path class="cls-8" d="M101.65,162.68A31.54,31.54,0,0,0,110,164c3.45-.16,6.9-.35,8.27-.51v12.74a31.6,31.6,0,0,1-8.19.55c-4.94-.19-7-.08-8.39-.51Z"/><path class="cls-9" d="M141.8,127.51c-.2-.12,49.28,12.27,49.28,12.27s15.88,3.88,17,4.39,3.22,1.81-.55,3.1l-87.74,14.59S170.65,142.57,141.8,127.51Z"/><path class="cls-10" d="M199.86,137.08c-.24,6.66-14,11.56-30.7,11s-30.07-6.55-29.83-13.22,14-11.56,30.7-10.93S200.13,130.41,199.86,137.08Z"/><path class="cls-11" d="M169.16,148c-16.7-.63-30.07-6.55-29.83-13.22l-.12,2.87c-.23,6.66,13.09,12.58,29.8,13.21s30.46-4.28,30.69-11l.12-2.86C199.62,143.74,185.86,148.64,169.16,148Z"/><path class="cls-12" d="M156.3,133.78c-.35,1-1.76.48-4.11-.23s-3.22-3-2.9-4,1.76-.23,4.11.47S156.66,132.8,156.3,133.78Z"/><path class="cls-12" d="M175.59,128.69c0,1.06-.31,2.35-2.66,1.8-2.55-.59-6.12-1.1-6.08-2.15s1.25-2.44,3.68-2.32S175.63,127.63,175.59,128.69Z"/><path class="cls-12" d="M178,138.1c-.11.74-3.49,1.84-5,1.64-2.27-.27-4-1.33-3.84-2.31s2.12-1.57,4.39-1.29S178.14,137.12,178,138.1Z"/><path class="cls-12" d="M193.86,132.65c0,.7-2.12,1.68-4.94,1.57s-5.37-1.26-5.33-2,2.35-1.18,5.18-1.06S193.9,131.94,193.86,132.65Z"/><path class="cls-12" d="M181.55,133a1.84,1.84,0,0,1-1.92,1.8c-1.37,0-3.45-1-3.45-1.68s1.33-.36,2.55-1.1S181.55,132.37,181.55,133Z"/><path class="cls-12" d="M149.6,140.41c0,.78,1.53,2,3.53,2.12s4.43-1.57,4.47-2.35-2.35-1-4.32-1.06S149.6,139.63,149.6,140.41Z"/><path class="cls-12" d="M161.64,133.47c0,.79,1.56.71,3.56.79s4,.15,4-.67A2.74,2.74,0,0,0,166.5,131C164.5,131,161.67,132.69,161.64,133.47Z"/><path class="cls-12" d="M183.16,128.77c0,.74-1.26,1.29-2.75,1.25s-2.66-.7-2.66-1.45,1.25-1.29,2.74-1.25S183.16,128,183.16,128.77Z"/><path class="cls-12" d="M197.12,136.33c0,.75-1.26,1.3-2.75,1.26s-2.66-.71-2.66-1.45,1.88-1.73,3.37-1.65A1.89,1.89,0,0,1,197.12,136.33Z"/><path class="cls-12" d="M150,137c0,.94-1.72,1-3.8.94s-4.31-1.8-4.27-2.74,2.31-.71,4.39-.67S150,136.06,150,137Z"/><path class="cls-12" d="M163.63,127c.44,1.06-.43,2.35-2,2.86s-3.13.08-3.56-1,.43-2.35,2-2.86S163.2,125.9,163.63,127Z"/><path class="cls-10" d="M96.91,132.8c-.2,5.38-11.29,9.34-24.74,8.83s-24.23-5.26-24-10.67,11.29-9.33,24.74-8.82S97.1,127.43,96.91,132.8Z"/><path class="cls-11" d="M72.17,141.66c-13.49-.5-24.23-5.25-24-10.66l-.08,2.31c-.2,5.38,10.55,10.16,24,10.63s24.54-3.45,24.74-8.82l.08-2.32C96.71,138.21,85.62,142.14,72.17,141.66Z"/><path class="cls-12" d="M61.78,130.18c-.27.78-1.41.39-3.33-.2a3,3,0,0,1-2.31-3.21c.27-.79,1.41-.2,3.33.39S62.06,129.39,61.78,130.18Z"/><path class="cls-12" d="M77.35,126.06c0,.86-.24,1.88-2.16,1.45s-4.9-.86-4.9-1.72,1-2,2.94-1.88S77.38,125.2,77.35,126.06Z"/><path class="cls-12" d="M79.27,133.63c-.08.63-2.83,1.49-4,1.33-1.85-.23-3.22-1.06-3.1-1.88s1.69-1.26,3.53-1S79.38,132.84,79.27,133.63Z"/><path class="cls-12" d="M92.09,129.24c0,.55-1.69,1.37-4,1.25s-4.32-1-4.32-1.57,1.89-.94,4.2-.86S92.09,128.69,92.09,129.24Z"/><path class="cls-12" d="M82.13,129.55A1.46,1.46,0,0,1,80.6,131c-1.1,0-2.78-.82-2.78-1.33s1.05-.28,2-.9S82.17,129,82.13,129.55Z"/><path class="cls-12" d="M66.09,129.9c0,.63,1.26.59,2.87.63s3.25.12,3.25-.51a2.25,2.25,0,0,0-2.2-2.08C68.41,127.9,66.13,129.28,66.09,129.9Z"/><path class="cls-12" d="M91.38,135.59c0,.82-1.69,1.41-3.72,1.33s-3.65-.78-3.61-1.61,1-1.84,3.06-1.76S91.42,134.76,91.38,135.59Z"/><path class="cls-12" d="M83.42,126.1c0,.59-1,1.06-2.23,1S79,126.53,79,125.94s1-1,2.24-1S83.46,125.51,83.42,126.1Z"/><path class="cls-12" d="M94.67,132.22c0,.58-1,1.05-2.23,1s-2.16-.59-2.16-1.18,1.53-1.37,2.71-1.33S94.71,131.59,94.67,132.22Z"/><path class="cls-12" d="M83,138.33c0,.59-1,.43-2.19.39s-2.16-.58-2.16-1.17,1-1.06,2.23-1A2.41,2.41,0,0,1,83,138.33Z"/><path class="cls-12" d="M67.7,124.69c.35.86-.35,1.88-1.57,2.31a2.31,2.31,0,0,1-2.9-.78c-.35-.86.35-1.88,1.57-2.31S67.35,123.83,67.7,124.69Z"/><path class="cls-10" d="M143.76,146.06c-.24,5.92-12.47,10.31-27.33,9.76S89.69,150,89.89,144.06s12.47-10.31,27.33-9.77S144,140.14,143.76,146.06Z"/><path class="cls-11" d="M116.43,155.82c-14.86-.55-26.74-5.8-26.54-11.76l-.08,2.54c-.23,5.92,11.65,11.22,26.54,11.77s27.09-3.81,27.33-9.77l.08-2.54C143.56,152,131.33,156.37,116.43,155.82Z"/><path class="cls-12" d="M105,143.15c-.31.87-1.56.44-3.68-.19s-2.86-2.71-2.55-3.57,1.57-.2,3.69.39S105.3,142.29,105,143.15Z"/><path class="cls-12" d="M122.16,138.61c0,.94-.28,2.07-2.36,1.6-2.23-.51-5.41-1-5.41-1.92s1.14-2.15,3.26-2.07S122.2,137.67,122.16,138.61Z"/><path class="cls-12" d="M127.45,142.45a1.66,1.66,0,0,1-1.73,1.61c-1.21,0-3.09-.91-3-1.49s1.17-.32,2.27-1S127.49,141.86,127.45,142.45Z"/><path class="cls-12" d="M109.73,142.88c0,.71,1.41.63,3.17.71s3.57.11,3.61-.59a2.44,2.44,0,0,0-2.43-2.28C112.32,140.65,109.77,142.17,109.73,142.88Z"/><path class="cls-12" d="M128.86,138.69c0,.66-1.14,1.17-2.43,1.09s-2.39-.62-2.35-1.29,1.13-1.18,2.43-1.1S128.9,138,128.86,138.69Z"/><path class="cls-12" d="M111.53,137.08c.39.94-.39,2.08-1.76,2.55s-2.79.07-3.18-.87.39-2.07,1.77-2.54S111.14,136.14,111.53,137.08Z"/><path class="cls-13" d="M61.66,137c.08,0,.12,0,.2,0,.12-.24.27-.43.39-.71a2.05,2.05,0,0,1,3.18-.39,2.09,2.09,0,0,1,2,.2h.35a2.14,2.14,0,0,1,1.06-.32c2.74,0,5.21.94,5.68,3.26a16.67,16.67,0,0,0,1.81.86,1.91,1.91,0,0,1,1,1.69V142a20.49,20.49,0,0,0,2.7.51,16.31,16.31,0,0,0,5.21-.75v-.11a1.76,1.76,0,0,1,.79-1.45,1.73,1.73,0,0,1,.19-2.51,9.35,9.35,0,0,1,2.08-1.34,2.11,2.11,0,0,1,2.79.71,2,2,0,0,1,0,2,1.8,1.8,0,0,1,.51,1.29,1.91,1.91,0,0,1,.74,1.41,10,10,0,0,1,2.47,1.06c2.55,1.57,3.1,3.37,6.35,3.45a34.35,34.35,0,0,1,9.45-2,5.38,5.38,0,0,1-2.16-1.17,3.5,3.5,0,0,1-2.35.35c-1.8-.24-1.84-2.78-.39-3.57a12.52,12.52,0,0,1,1.69-.7,1.39,1.39,0,0,1,.54-.16c.44-.12.83-.24,1.26-.39a2,2,0,0,1,2.51,1.88c1.29.74,3.37.55,4.74.9a1.83,1.83,0,0,1,1.37,2.16H118a2.24,2.24,0,0,1,2.16,1.57c1.64,4.15,8.9,2.19,12,.82a2.71,2.71,0,0,1,1.73-.2c.08-.08.19-.15.27-.23l-1.29-1.18a1.92,1.92,0,0,1,.47-3.06c.12-.07.23-.15.39-.23a1.78,1.78,0,0,1,.59-1.53l0,0a2.17,2.17,0,0,1,.9-.47s0-.08.08-.12c1.61-2,5.1-.08,3.49,2-.12.16-.2.36-.32.55a2,2,0,0,1-1,1.69s0,0-.08,0c.19.19.43.43.62.66a30.36,30.36,0,0,1,8.83.08,2.08,2.08,0,0,1,1.92,3,5.15,5.15,0,0,0,1.41-.55,3.07,3.07,0,0,1,1.84-.16,2.1,2.1,0,0,1,1.61-.11,1.78,1.78,0,0,1,1.29-.28,2.43,2.43,0,0,1,2.24-1,3.69,3.69,0,0,1,.39-.27c1.29-4.39,4.9-7.18,9.8-7.57a2.15,2.15,0,0,1,2.19,2.16,6.54,6.54,0,0,1,0,1.72,1.56,1.56,0,0,1,.66.83c.08.11.16.19.24.31a2.41,2.41,0,0,1,.39,1.45v.12a11.93,11.93,0,0,1,3.37.23c.31-.39.71-.78,1.06-1.17a4.24,4.24,0,0,1,2.27-3.49,2,2,0,0,1,1.41-.2,10,10,0,0,0,1.38-1.8c1.29-2.35,4.51-.55,4.11,1.65v0a11.56,11.56,0,0,1,4.75-.75,2.9,2.9,0,0,1,2.39,1.49l.39-.24a1.74,1.74,0,0,1,1.49-.27,5.7,5.7,0,0,1,2.2-.12,20,20,0,0,1,1.64-1.92,9.08,9.08,0,0,1-3-1.33c-2.07-1.45,0-4.82,2.12-3.37a5,5,0,0,0,2.31,1,0,0,0,0,1,0,0,2.17,2.17,0,0,1,1.77-1,8.64,8.64,0,0,1,3.25.66c1-1.92,2.94-3.05,5.41-4.15A3.6,3.6,0,0,0,211.5,126s-.07.12-.15.2a2.11,2.11,0,0,1-2.79.7,5.9,5.9,0,0,0-3.84-.55c-2.59.51-3.61-3.21-1-3.72a10.45,10.45,0,0,1,5.26.27,3.77,3.77,0,0,1,2.19-.9c-.43-1.68-1.33-3.6-3-2.86a2.3,2.3,0,0,1-3.29-1.25c-1.69-5-3.33-.43-5.69-2.16-.39-.31-.78-.59-1.17-.9l-1.14.23a2.23,2.23,0,0,1-2.74-1.49s0-.07-.08-.11l-1.22.35a2.21,2.21,0,0,1-2.74-2.63c1-4.66-2.32-2.11-3.53-1.6a10.74,10.74,0,0,1-1.8.58,7.19,7.19,0,0,1-1.18,1.65,4.25,4.25,0,0,1-3,3.1s0,.08-.08.08a2,2,0,0,1-3.45-1.38,2.69,2.69,0,0,1,.2-.94,2.1,2.1,0,0,1,1.49-1.37,1.65,1.65,0,0,1,.74-.16c.39-.19.2-.86.47-1.29,0-.08.08-.12.12-.2a1.77,1.77,0,0,1-.74-1.21c-1-1.73-2.16-1.84-3.45-.32a2.28,2.28,0,0,1-3.85-1.49c-.23-1.41-.78-2.11-1.6-2.15-.91,3.06-3.3,4.55-7.06,4.78a2.15,2.15,0,0,1-2-3.06,2.34,2.34,0,0,1-2.59-1.21,2.39,2.39,0,0,1-.74.12h-.16a2,2,0,0,1-2.23.62c-.91-.27-1.81-.58-2.71-.86a2.1,2.1,0,0,1-1.61-2.08v-.19a2.27,2.27,0,0,1-2.82-.87c-.55-.9-1.84-.11-2.59.63a1.75,1.75,0,0,1-.35,1.14c-.16.19-.35.39-.51.59-.31,1.09-.47,2.27-.74,3.33a6.83,6.83,0,0,1-5.69,5.25c-1.29.2-3-.55-2.82-2.08.47-3.52,2.59-5.48,4.78-8-1.88-1.26-4.27-1.53-5.84.86a2.29,2.29,0,0,1-4.16-.79,1.56,1.56,0,0,1-.43.08,6.55,6.55,0,0,1-.82,1.57,2.32,2.32,0,0,1-4.12-.51,4.69,4.69,0,0,1,0-3.8,2.24,2.24,0,0,1-.47-.51s0-.08-.08-.12a2.18,2.18,0,0,1-1.25.39,9.45,9.45,0,0,1-.16,1.45,2.34,2.34,0,0,1-3.33,1.3c-.08,0-.12-.08-.2-.08a5.56,5.56,0,0,1-3.45,3c-2.11.7-4.9.55-6.54-1a4.22,4.22,0,0,1-1.06-2.94c-2.2,2-5.8,2.23-9.49-.16a3,3,0,0,1-.63-.59c-.15,0-.31,0-.47,0-.55,4.28-2.9,8.12-8.39,6.39-1.21-.39-2.19-1.92-1.33-3.09a1.31,1.31,0,0,1-.47-.24c-1.22,2.08-3.69,3.37-7.06,3a3.27,3.27,0,0,1-1.06-.31c-.54,1.64-1.88,2.82-4.43,2.47-1.76-.24-3-.79-3.76-2.12-.47,1.72-2,2.94-4.7,3.1a4.52,4.52,0,0,1-.24,1,2,2,0,0,1,1.8.08,13.6,13.6,0,0,0,4.67,1.33c2.59.47,1.41,4.19-1.18,3.76A21.65,21.65,0,0,1,67.5,115a4.29,4.29,0,0,1-3.72,0,4.18,4.18,0,0,1-2.08.59A6.44,6.44,0,0,1,57,114c-.79,1.29-3,1.84-3.88.35a7.39,7.39,0,0,1,0,1.33,2.37,2.37,0,0,1-3.41,1.88,2.52,2.52,0,0,1-3.06-.74,1,1,0,0,0-.16-.28c-.43.36-.82.71-1.21,1.06a5.93,5.93,0,0,1-.44,2.59,2.54,2.54,0,0,1-1.68,1.49,6,6,0,0,1-.2.67,2.27,2.27,0,0,1-.59.9,20.88,20.88,0,0,0,3.45,0A7.82,7.82,0,0,1,50.69,125c2,1.53-.94,4.28-2.94,2.75-1-.79-2.59-.63-3.92-.55a16.37,16.37,0,0,0,3.6,4.66,2,2,0,0,1,2.2-.15,4.43,4.43,0,0,0,3.06.7,20.27,20.27,0,0,0,3.6-1.53c2.39-1.05,4.39,2.28,2,3.34-1.25.55-2.51,1.21-3.8,1.68a16.35,16.35,0,0,0,1.84.59,2.3,2.3,0,0,1,3.06-.94"/><path class="cls-14" d="M204.49,126.81a6.16,6.16,0,0,0,3.92-.32,2.08,2.08,0,0,1,2.7.9.87.87,0,0,0,.12.2,3.27,3.27,0,0,0-2-2.74c-2.31-1.3-4.12-2.51-4.86-4.51a9.21,9.21,0,0,1-3.33.43,1.92,1.92,0,0,1-1.65-1.1v0a5.87,5.87,0,0,0-2.43.83c-2.28,1.33-4-2.2-1.69-3.49a9.88,9.88,0,0,1,3.14-1.14,20.15,20.15,0,0,1-2-3.06,2.34,2.34,0,0,1-3,.43,9.35,9.35,0,0,0-1.41-.94c-.08.12-.12.24-.2.39a2.38,2.38,0,0,1-3.45,1.06,18,18,0,0,0-2.51-1.29,7.48,7.48,0,0,0,0,.82c.12,2.24-3.33,3.84-4.27,1.37-.74-1.92-3.57-4.5-5.29-7a11.15,11.15,0,0,1-3.37,0v.11a2.69,2.69,0,0,1-.59,1.41l-.28.28a1.64,1.64,0,0,1-.78.78,5.27,5.27,0,0,1-.16,1.73,2.32,2.32,0,0,1-2.47,2c-5.17-.75-8.5-4.16-8.93-9.18a5.47,5.47,0,0,1,0-.7l-.78-.71c-.9-.86-2.08-2.82-2.82-1a2.42,2.42,0,0,1-3.45,1.06,3.82,3.82,0,0,0-1.34-.63,2.22,2.22,0,0,1-2.27,2.87,30.54,30.54,0,0,1-8.78-.51c-.24.19-.47.43-.71.62,0,0,0,0,.08,0a2,2,0,0,1,.82,1.77,2.14,2.14,0,0,0,.24.59c1.37,2.11-2.35,3.76-3.72,1.72,0,0,0-.08-.08-.12a1.81,1.81,0,0,1-.83-.55l0,0a1.68,1.68,0,0,1-.43-1.56c-.11-.08-.23-.2-.35-.28a1.87,1.87,0,0,1-.08-3.06c.47-.39,1-.74,1.45-1.09l-.23-.24a2.63,2.63,0,0,1-1.69-.31c-2.94-1.57-9.92-4-12.07,0a2.38,2.38,0,0,1-2.36,1.41.23.23,0,0,1-.15,0,2,2,0,0,1-1.65,2c-1.37.27-3.45,0-4.82.59a2.13,2.13,0,0,1-2.75,1.72l-1.21-.47a3.52,3.52,0,0,1-.51-.19,9.44,9.44,0,0,1-1.61-.83,2,2,0,0,1,.86-3.53,3.31,3.31,0,0,1,2.28.51,5.83,5.83,0,0,1,2.31-1,32.37,32.37,0,0,1-9.17-2.58c-3.26-.12-4,1.64-6.78,3a12.42,12.42,0,0,1-2.59.9,1.92,1.92,0,0,1-.9,1.37,1.82,1.82,0,0,1-.67,1.25,2,2,0,0,1-.2,2,2.13,2.13,0,0,1-2.82.51A7.72,7.72,0,0,1,88,107.71a1.71,1.71,0,0,1,.12-2.51,1.81,1.81,0,0,1-.59-1.49.14.14,0,0,1,0-.11,16.72,16.72,0,0,0-5.1-1.1,23.21,23.21,0,0,0-2.74.31v.08l0,.28a2,2,0,0,1-1.18,1.6c-.66.2-1.25.51-1.88.75-.75,2.27-3.33,3-6,2.86a1.89,1.89,0,0,1-1.8-1.57,2.15,2.15,0,0,0-.12-.7,2.09,2.09,0,0,1-1.88-1.18,6.49,6.49,0,0,0-4.94,1.22c-.78.62-1.45.39-2.35.43a14.73,14.73,0,0,0-3.57.66c1.25.55,2.39,1.3,3.57,1.92,2.23,1.22-.16,4.43-2.39,3.22a18.75,18.75,0,0,0-3.38-1.77,4.66,4.66,0,0,0-3.13.51,2,2,0,0,1-2.16-.31,18.3,18.3,0,0,0-4.15,4.39c1.33.16,2.86.39,4-.27,2.2-1.37,4.79,1.53,2.59,2.94a8.06,8.06,0,0,1-5,1.33,26.48,26.48,0,0,0-3.45-.16,2,2,0,0,1,.47.94,3.94,3.94,0,0,1,.08.67,2.34,2.34,0,0,1,1.49,1.61,5.68,5.68,0,0,1,.12,2.59c.35.39.71.74,1.1,1.13a.62.62,0,0,1,.19-.23A2.64,2.64,0,0,1,49,125.2a2.24,2.24,0,0,1,3.18,2.08,8,8,0,0,1-.16,1.33c1.06-1.41,3.17-.75,3.8.59a6.66,6.66,0,0,1,4.82-1.34,3.73,3.73,0,0,1,2,.71,4.43,4.43,0,0,1,3.69.31A23.15,23.15,0,0,1,71,128c2.59-.27,3.3,3.53.71,3.81a15.05,15.05,0,0,0-4.78,1,2.08,2.08,0,0,1-1.81,0c0,.35.08.66.12,1,2.71.35,4.08,1.64,4.31,3.37a4.79,4.79,0,0,1,4-1.88c2.59-.16,3.77,1,4.12,2.78a2.44,2.44,0,0,1,1.1-.24c3.45-.15,5.72,1.3,6.66,3.45A3.52,3.52,0,0,1,86,141c-.74-1.22.47-2.71,1.73-3,5.68-1.33,7.52,2.62,7.56,6.94a2,2,0,0,0,.47.08,3.05,3.05,0,0,1,.71-.55c4-2.12,7.53-1.69,9.49.47a4.32,4.32,0,0,1,1.45-2.86c1.8-1.46,4.62-1.42,6.62-.59a5.17,5.17,0,0,1,3.06,3.25c.08,0,.16,0,.2-.08,1.21-.59,3,.12,3.17,1.53a8.77,8.77,0,0,1,0,1.45,2.73,2.73,0,0,1,1.22.47s0-.08.08-.11a2,2,0,0,1,.54-.48,4.81,4.81,0,0,1,.44-3.8,2.33,2.33,0,0,1,4.15-.23,5.28,5.28,0,0,1,.63,1.6l.43.12a2.32,2.32,0,0,1,4.23-.51c1.3,2.47,3.69,2.39,5.73,1.26-1.88-2.59-3.73-4.71-3.77-8.24,0-1.53,1.81-2.15,3.06-1.88a6.32,6.32,0,0,1,5,5.61c.16,1.1.16,2.27.35,3.37a4.7,4.7,0,0,1,.43.63,1.42,1.42,0,0,1,.2,1.13c.63.79,1.84,1.65,2.47.79a2.37,2.37,0,0,1,2.94-.67v-.19a2.28,2.28,0,0,1,1.88-2c.94-.24,1.84-.44,2.79-.67a2.07,2.07,0,0,1,2.15.78h0a.3.3,0,0,1,.16,0,2.46,2.46,0,0,1,.74.16,2.5,2.5,0,0,1,2.75-1,2.26,2.26,0,0,1,2.35-2.9c3.69.47,5.88,2.12,6.39,5.21.86,0,1.49-.66,1.88-2a2.34,2.34,0,0,1,4-1.25c1.1,1.57,2.24,1.53,3.49-.08a2.08,2.08,0,0,1,.9-1.18c0-.07-.08-.11-.12-.19-.23-.47,0-1.1-.31-1.33a1.71,1.71,0,0,1-.74-.2,1.9,1.9,0,0,1-1.3-1.45,2.43,2.43,0,0,1-.08-.94,2.13,2.13,0,0,1,3.61-1.14s0,.08.08.12a4,4,0,0,1,2.43,2.59,1.37,1.37,0,0,1,.43-.08c2.39-.16,4.59-1.57,7.06-1.22a4.51,4.51,0,0,1,1.37.43,1.91,1.91,0,0,1,.78.16c.4.12.79.28,1.18.43,0,0,0-.08.08-.12a2.41,2.41,0,0,1,2.94-1.29,8.09,8.09,0,0,0,1.1.31c.39-.27.82-.54,1.29-.82,1.22-.74,2.08-.08,2.9.31.12-.07.2-.15.32-.23a2.57,2.57,0,0,1,1.92-.47,10.38,10.38,0,0,0,.78-1.37,2.39,2.39,0,0,1,3.45-1.06c1.53.86,2.67-1,3.33-2.67a3.41,3.41,0,0,1-2.07-1.06,10.32,10.32,0,0,1-5.26-.07C200.53,129.79,202,126.14,204.49,126.81Z"/><path class="cls-15" d="M197.19,121.55c-2-1.13-3.68-2.19-4.35-4a8,8,0,0,1-2.94.4,1.89,1.89,0,0,1-1.49-.95v0a4.94,4.94,0,0,0-2.15.74c-2,1.18-3.53-1.92-1.53-3.1a8,8,0,0,1,2.78-1,18.64,18.64,0,0,1-1.8-2.7,2.07,2.07,0,0,1-2.67.39,8.4,8.4,0,0,0-1.25-.82c0,.11-.12.23-.16.35a2.11,2.11,0,0,1-3.06.94c-.7-.43-1.49-.78-2.23-1.14a4.7,4.7,0,0,0,0,.75c.11,2-2.9,3.41-3.81,1.21-.66-1.68-3.17-4-4.74-6.23a8.27,8.27,0,0,1-3,0v.12a2.54,2.54,0,0,1-.51,1.25l-.23.24a1.47,1.47,0,0,1-.67.7,5.14,5.14,0,0,1-.12,1.53,2,2,0,0,1-2.19,1.77c-4.59-.63-7.57-3.61-8-8.08a3.33,3.33,0,0,1,0-.63c-.24-.19-.47-.39-.71-.62-.82-.75-1.88-2.47-2.51-.87a2.1,2.1,0,0,1-3,.94,5.59,5.59,0,0,0-1.18-.58,2,2,0,0,1-2,2.54,27.21,27.21,0,0,1-7.8-.39,7.74,7.74,0,0,1-.63.55,0,0,0,0,1,0,0,1.7,1.7,0,0,1,.74,1.57,3.89,3.89,0,0,0,.2.51c1.22,1.84-2.08,3.37-3.29,1.53,0,0,0-.08-.08-.12a1.79,1.79,0,0,1-.75-.47l0,0a1.49,1.49,0,0,1-.4-1.37c-.11-.08-.19-.16-.31-.24a1.71,1.71,0,0,1-.12-2.74c.43-.36.86-.67,1.26-1l-.24-.24a2.53,2.53,0,0,1-1.49-.23c-2.63-1.37-8.82-3.49-10.7.08a2.15,2.15,0,0,1-2.08,1.29.3.3,0,0,1-.16,0,1.75,1.75,0,0,1-1.45,1.8c-1.21.28-3.09,0-4.27.55a1.9,1.9,0,0,1-2.43,1.57l-1.1-.39a1.19,1.19,0,0,1-.47-.2,7.72,7.72,0,0,1-1.41-.7,1.74,1.74,0,0,1,.74-3.14,2.87,2.87,0,0,1,2,.43,5.37,5.37,0,0,1,2-.9,28.09,28.09,0,0,1-8.15-2.27c-2.9-.08-3.57,1.49-6,2.74a7.74,7.74,0,0,1-2.27.78,1.8,1.8,0,0,1-.79,1.22,1.7,1.7,0,0,1-.59,1.14,1.77,1.77,0,0,1-.15,1.76,1.9,1.9,0,0,1-2.51.47A7.57,7.57,0,0,1,89.38,107a1.54,1.54,0,0,1,.08-2.24,1.66,1.66,0,0,1-.55-1.33v-.12a15.46,15.46,0,0,0-4.51-.94,16.32,16.32,0,0,0-2.43.32v0l0,.24a1.66,1.66,0,0,1-1,1.41c-.59.2-1.13.43-1.68.67-.67,2-2.94,2.7-5.33,2.55a1.72,1.72,0,0,1-1.61-1.38,1.71,1.71,0,0,0-.12-.62,1.87,1.87,0,0,1-1.69-1.06,5.66,5.66,0,0,0-4.35,1.1c-.7.54-1.29.35-2.07.39a11.28,11.28,0,0,0-3.14.62c1.1.48,2.15,1.14,3.17,1.69,2,1.1-.11,3.92-2.11,2.86a15.88,15.88,0,0,0-3-1.53,4.15,4.15,0,0,0-2.79.47,1.75,1.75,0,0,1-1.92-.27,16.56,16.56,0,0,0-3.64,3.92c1.17.12,2.55.35,3.53-.27,1.92-1.26,4.27,1.33,2.31,2.58A7.29,7.29,0,0,1,52,117.32,19.77,19.77,0,0,0,49,117.2a2.4,2.4,0,0,1,.43.82,3.09,3.09,0,0,1,.08.59A2.18,2.18,0,0,1,50.8,120a5,5,0,0,1,.12,2.32c.32.35.63.66,1,1,0-.08.12-.16.16-.24a2.29,2.29,0,0,1,2.78-.51,2,2,0,0,1,2.82,1.84,3.94,3.94,0,0,1-.15,1.18,2,2,0,0,1,3.37.51,6,6,0,0,1,4.27-1.22,3.75,3.75,0,0,1,1.81.63,4.06,4.06,0,0,1,3.29.24,18.36,18.36,0,0,1,4.12-.83c2.31-.27,2.94,3.1.62,3.38a11.83,11.83,0,0,0-4.23.94,1.7,1.7,0,0,1-1.61,0c0,.31.08.58.12.86,2.39.27,3.61,1.45,3.84,3a4.29,4.29,0,0,1,3.53-1.69c2.31-.15,3.37.94,3.65,2.43a3.81,3.81,0,0,1,1-.23c3-.16,5.09,1.14,6,3a2.59,2.59,0,0,1,.43-.16c-.67-1.1.39-2.39,1.49-2.67,5-1.21,6.7,2.32,6.74,6.12.16,0,.27,0,.43.08a2.7,2.7,0,0,1,.63-.51c3.53-1.92,6.66-1.57,8.43.35a4.06,4.06,0,0,1,1.25-2.55,6.07,6.07,0,0,1,5.88-.54,4.49,4.49,0,0,1,2.75,2.86s.11,0,.19-.08c1.1-.55,2.75.08,2.83,1.33a9.38,9.38,0,0,1,0,1.3,1.78,1.78,0,0,1,1,.43s0-.08.08-.08a4.48,4.48,0,0,1,.47-.43,4.22,4.22,0,0,1,.36-3.37,2.07,2.07,0,0,1,3.68-.24,6.5,6.5,0,0,1,.59,1.45.74.74,0,0,1,.39.12,2.06,2.06,0,0,1,3.76-.47c1.14,2.19,3.3,2.11,5.1,1.06-1.68-2.32-3.33-4.16-3.41-7.3,0-1.37,1.57-1.92,2.71-1.68a5.57,5.57,0,0,1,4.46,4.94c.16,1,.16,2,.32,3,.16.19.27.39.39.55a1.52,1.52,0,0,1,.2,1c.58.66,1.64,1.45,2.19.66a2.08,2.08,0,0,1,2.59-.62V141a2.09,2.09,0,0,1,1.65-1.77c.82-.19,1.64-.39,2.47-.62a1.75,1.75,0,0,1,1.92.7h.11a1.93,1.93,0,0,1,.67.12,2.24,2.24,0,0,1,2.43-.94,2,2,0,0,1,2.08-2.59c3.29.39,5.25,1.84,5.72,4.59.75,0,1.3-.59,1.65-1.84a2.07,2.07,0,0,1,3.53-1.14c1,1.37,2,1.37,3.06-.12a1.89,1.89,0,0,1,.78-1.06l-.12-.15c-.19-.44,0-1-.27-1.18a1.38,1.38,0,0,1-.67-.16,1.69,1.69,0,0,1-1.17-1.25,2.89,2.89,0,0,1-.08-.82,1.86,1.86,0,0,1,3.17-1l.08.07a3.53,3.53,0,0,1,2.31,2.91,6.07,6.07,0,0,1,.91,1.52,11.79,11.79,0,0,1,1.53.59c1,.51,3.72,2.94,3.29-1.21a2.05,2.05,0,0,1,2.66-2.2l1.06.35s0-.07.08-.11a2.15,2.15,0,0,1,2.59-1.18,5.35,5.35,0,0,0,1,.28c.35-.24.74-.48,1.14-.71,2.27-1.37,3.25,2.78,5.25-1.57a2.12,2.12,0,0,1,3.06-.94c1.37.75,2.35-.9,2.94-2.39a3.12,3.12,0,0,1-1.85-.94,9.44,9.44,0,0,1-4.66,0c-2.24-.59-.94-3.84,1.29-3.25a5.51,5.51,0,0,0,3.45-.32,1.81,1.81,0,0,1,2.39.79c0,.07.08.11.12.19C198.88,123,198.41,122.22,197.19,121.55Z"/><path class="cls-16" d="M137.33,145.82c-2.28,1.45-5.1-.86-6.78-2.08a1.83,1.83,0,0,0-1.34-.31c-.39,0-1.21,1.18-1.64.82a3.13,3.13,0,0,0-3.53-.9c-1.69.55-2.47,2.55-2.51,4.08a.41.41,0,0,0,.82,0,3.88,3.88,0,0,1,2-3.41c1.41-.79,2.16.55,3,1.09,1,.67,1.8-1.37,3.06-.51,2,1.42,4.9,3.38,7.41,1.77C138.27,146.09,137.76,145.55,137.33,145.82Z"/><path class="cls-17" d="M40.34,125.12C28.22,128.53,48.1,104,83.34,102c63.36-3.57,71.79-18.82,72-6.08.12,9.1,23.68,8.75,52,29.92C229,142,157.79,111.91,125,143.63,106.24,161.82,103.46,107.36,40.34,125.12Z"/><path class="cls-18" d="M43.35,122.49c-5,1.14-4.58-1.76-.15-6.19-7.1,5.68-8.67,10.47-2.86,8.82,63.12-17.8,65.9,36.7,84.64,18.54.39-.35.78-.7,1.14-1C106.79,158.72,105,108.54,43.35,122.49Z"/><path class="cls-18" d="M128,141s-.08,0-.08.08c31.72-25.72,92.13-2.79,82.33-12.75C201,130.45,148.35,118.69,128,141Z"/><path class="cls-19" d="M47.82,114.38c5.61-3.65,20.74-10.12,22.51-8.43.94.9-13,4.9-13.21,5.68s.7,1.3,2.39,1.14,7-1.68,5.8-.63c-1,.87-12.59,5.14,5.76,5.22,1.92,1.25-12.7.39-19.09,2-6.59,1.64,1-1,3.06-2.43,1.88-1.26-6.86,2.11-8.86,2.27s1.57-1.61,4-2.74c2.27-1.06.07-1.49-2.59-.63S45.16,116.14,47.82,114.38Z"/><path class="cls-20" d="M150.15,118.26c0,2.74,2.82,4.55,4.59,5.57a22.88,22.88,0,0,0,7,2.47,67,67,0,0,0,14.51,1.49c14.39,0,26-4.28,26-9.57s-10.66-10.31-25.05-10.31a21,21,0,0,0-6.67.86c-.5.2-.62.47-.58.75h0c.11.62,1.13,1.33.51,1.41a3.17,3.17,0,0,1-.87,0,21.29,21.29,0,0,0-5.29-.63C156.07,110.46,150.15,114.65,150.15,118.26Z"/><path class="cls-21" d="M170.42,110.22h-.16c-.27-.35-.55-.74-.27-1.1C170.26,109.67,170.93,110.18,170.42,110.22Z"/><path class="cls-21" d="M154.74,123.12a24.55,24.55,0,0,0,7,2.51,67,67,0,0,0,14.51,1.49c14.07,0,25.52-4.12,26-9.21,0,.11,0,.23,0,.35,0,5.29-11.64,9.57-26,9.57a67.63,67.63,0,0,1-14.51-1.49,24.09,24.09,0,0,1-7-2.51c-1.77-1-4.59-2.83-4.59-5.57a1,1,0,0,1,0-.35C150.38,120.46,153.05,122.14,154.74,123.12Z"/><path class="cls-22" d="M154.74,123.83a23.67,23.67,0,0,0,7,2.51,67.63,67.63,0,0,0,14.51,1.49c14.39,0,26-4.28,26-9.57v4.08c0,5.29-11.64,9.56-26,9.56a67,67,0,0,1-14.51-1.49,24.9,24.9,0,0,1-7-2.47c-1.77-1-4.59-2.82-4.59-5.56V118.3C150.15,121,153,122.77,154.74,123.83Z"/><path class="cls-23" d="M196.65,119.83c.58-1.53,1.17-2.39-.32-3.81a18.23,18.23,0,0,0-5.25-3c-1.77-.75-4.71-1.65-6-2a32.85,32.85,0,0,0-7.57-.94,34.7,34.7,0,0,0-3.88.07,23.19,23.19,0,0,1,5.49-.31,31.78,31.78,0,0,1,7.57.94,59,59,0,0,1,6,2c1.45.63,3.8,1.53,5.25,3s.86,2.27.31,3.8-2.15,1.92-4.51,2.59a6.34,6.34,0,0,1-1.05.08C194.72,121.67,196.1,121.24,196.65,119.83Z"/><path class="cls-23" d="M155.87,114.77c1.14-.9,3.37-1.41,5.06-1.92a17.76,17.76,0,0,1,1.8-.39c-.11,0-.19,0-.31.08-1.69.47-3.92,1-5.06,1.92s-3.13,3.45,0,5.84a18.65,18.65,0,0,0,9.73,3.88,63.38,63.38,0,0,0,10.54,1,51.77,51.77,0,0,0,7.92-.47,14.63,14.63,0,0,1,1.61-.2,16.44,16.44,0,0,1-3.1.51,51.24,51.24,0,0,1-7.92.47,63.8,63.8,0,0,1-10.54-1,18.55,18.55,0,0,1-9.77-3.92C152.74,118.22,154.74,115.67,155.87,114.77Z"/><path class="cls-23" d="M168.34,116c-.94-.75-3-2.2-4.27-1.22s1.6,1.53,2.15,1.57a9.88,9.88,0,0,0,2.12-.35Z"/><path class="cls-23" d="M168.34,118c-1.22-.2-4.82-1.34-5.41.43-.67,2.08,2.55,1.37,3.33.9s1.37-.9,2.08-1.33Z"/><path class="cls-23" d="M169.75,119.91c-.94.43-2.74,1-2.63,2.35.12,1.65,1.61.35,2-.39a8.16,8.16,0,0,0,.63-2Z"/><path class="cls-23" d="M187,115.75c.79,0,3,.31,3-.9s-1.61-.94-2.2-.47a2.09,2.09,0,0,0-.82,1.37Z"/><path class="cls-23" d="M185.32,114.65c.54-.55,1.68-3.06,0-2.7-1.22.27-.4,2,0,2.7Z"/><path class="cls-23" d="M182.18,113.83a2.53,2.53,0,0,0,.82-2,1,1,0,0,0-1.21-.78c-1.38.39-.24,2.15.31,2.78Z"/><path class="cls-23" d="M179.28,113.32c.31-1-.47-2.78-1.73-2s1.06,1.72,1.73,2Z"/><path class="cls-21" d="M168.61,115.48c-.94-.75-3.05-2.2-4.27-1.22s1.61,1.53,2.16,1.57a10.33,10.33,0,0,0,2.11-.35Z"/><path class="cls-21" d="M168.61,117.51c-1.21-.19-4.82-1.33-5.41.44-.66,2.07,2.55,1.37,3.34.9s1.33-.94,2.07-1.34Z"/><path class="cls-21" d="M170,119.44c-.94.39-2.75,1-2.63,2.35.12,1.64,1.61.35,2-.39a8.63,8.63,0,0,0,.63-2Z"/><path class="cls-21" d="M187.2,115.28c.78,0,3,.31,3-.9s-1.61-.94-2.2-.47a2.21,2.21,0,0,0-.82,1.37Z"/><path class="cls-21" d="M185.59,114.18c.55-.55,1.69-3.06,0-2.7-1.22.27-.43,2,0,2.7Z"/><path class="cls-21" d="M182.45,113.36a2.57,2.57,0,0,0,.83-2,1,1,0,0,0-1.22-.78c-1.37.39-.23,2.15.31,2.78Z"/><path class="cls-21" d="M179.51,112.85c.32-1-.47-2.82-1.72-2s1.1,1.72,1.72,2Z"/><path class="cls-21" d="M183.79,119.12c0-1-.2-1.06-.79-1.49s-1-.35-1.8-.7a6.28,6.28,0,0,0-2.28-.67c-.86-.08-1,.08-1.76,0a15.1,15.1,0,0,1-1.65-.24c-.58-.07-.78.2-.51.91s-.19.86.28,1.25.19.2,1,.59a7,7,0,0,0,1.61.59,14.53,14.53,0,0,0,2,.31,3.5,3.5,0,0,0,2-.12,3.89,3.89,0,0,1,1.41-.27C183.75,119.32,183.79,119.12,183.79,119.12Z"/><path class="cls-23" d="M169.52,110.93a3.09,3.09,0,0,0,.86,0c.63-.08-.39-.75-.51-1.41Z"/><path class="cls-23" d="M154.7,123.79a0,0,0,0,1,0,0c.47.27,1,.55,1.49.78v4.08a10.62,10.62,0,0,1-1.49-.79s-.08,0-.16-.07C154.62,126.45,154.66,125.12,154.7,123.79Z"/><path class="cls-23" d="M152.27,122.14c0,1.29-.08,2.63-.16,4a5.08,5.08,0,0,1-2-3.76v-4.08A5.42,5.42,0,0,0,152.27,122.14Z"/><path class="cls-24" d="M181.12,127.63l1.41-.12c0,1.37,0,2.71,0,4.08l-1.37.12"/><path class="cls-20" d="M148.85,125.51c0,2.83-2.94,4.59-4.78,5.61a24.87,24.87,0,0,1-7.13,2.43,67.31,67.31,0,0,1-14.82,1.29c-14.7-.23-26.54-4.78-26.47-10.15s11.06-10.35,25.76-10.12a22.07,22.07,0,0,1,6.82,1c.51.2.63.47.59.79h0c-.12.63-1.18,1.33-.55,1.41a3.39,3.39,0,0,0,.9,0,23.25,23.25,0,0,1,5.41-.55C142.93,117.48,148.93,121.83,148.85,125.51Z"/><path class="cls-21" d="M128.31,117h.16c.27-.36.55-.79.27-1.14C128.47,116.42,127.76,116.93,128.31,117Z"/><path class="cls-21" d="M144.11,130.37A24.57,24.57,0,0,1,137,132.8a67.32,67.32,0,0,1-14.82,1.3c-14.39-.24-26-4.59-26.43-9.8,0,.11,0,.23,0,.39-.08,5.41,11.76,10,26.43,10.15a69.6,69.6,0,0,0,14.82-1.29,24.87,24.87,0,0,0,7.13-2.43c1.84-1,4.71-2.82,4.78-5.61v-.39C148.58,127.75,145.88,129.39,144.11,130.37Z"/><path class="cls-22" d="M144.11,131.12a24.87,24.87,0,0,1-7.13,2.43,67.31,67.31,0,0,1-14.82,1.29c-14.71-.23-26.51-4.78-26.43-10.15l-.08,4.15c-.07,5.42,11.77,10,26.43,10.16a69.6,69.6,0,0,0,14.82-1.29,24.59,24.59,0,0,0,7.13-2.44c1.81-1,4.71-2.78,4.75-5.6l.07-4.16C148.82,128.3,145.91,130.1,144.11,131.12Z"/><path class="cls-25" d="M104.28,128.81c-2.39-.75-4-1.18-4.55-2.75s-1.17-2.43.35-3.88,3.92-2.31,5.41-2.94c1.81-.75,4.83-1.61,6.2-2a32.24,32.24,0,0,1,7.76-.82c1.88,0,5.41,0,6.31.7,1.34,1,.2,2.32-1.21,3.18a10.69,10.69,0,0,1-5.49.7,10.84,10.84,0,0,0-4.9.51,6.27,6.27,0,0,0-2.82,2,2.27,2.27,0,0,0-.47,2,1,1,0,0,1-.51,1.45,22,22,0,0,1-2.79,1.45A5.61,5.61,0,0,1,104.28,128.81Z"/><path class="cls-23" d="M101.38,126.37c-.55-1.56-1.18-2.43.35-3.88s3.92-2.31,5.41-2.94c1.8-.74,4.86-1.6,6.2-2a32.19,32.19,0,0,1,7.76-.82,34.91,34.91,0,0,1,4,.12,24,24,0,0,0-5.57-.39,32.42,32.42,0,0,0-7.76.82,49.72,49.72,0,0,0-6.2,2c-1.49.63-3.88,1.49-5.41,2.94s-.94,2.31-.35,3.88,2.2,2,4.55,2.74a9.8,9.8,0,0,0,1.06.12C103.3,128.3,101.89,127.83,101.38,126.37Z"/><path class="cls-23" d="M143.09,121.87c-1.14-.94-3.41-1.53-5.13-2a15.84,15.84,0,0,0-1.85-.43c.12,0,.24,0,.32.07,1.72.51,4,1.1,5.13,2s3.14,3.57,0,6a19,19,0,0,1-10,3.84,66.39,66.39,0,0,1-10.79.87,49.94,49.94,0,0,1-8.11-.63,16.42,16.42,0,0,0-1.65-.24,25.26,25.26,0,0,0,3.14.59,53.19,53.19,0,0,0,8.11.63,63.6,63.6,0,0,0,10.79-.86,18.8,18.8,0,0,0,10-3.84C146.23,125.43,144.23,122.81,143.09,121.87Z"/><path class="cls-23" d="M130.31,122.85c1-.79,3.14-2.2,4.39-1.18s-1.64,1.53-2.23,1.57a8.24,8.24,0,0,1-2.16-.39Z"/><path class="cls-23" d="M130.27,124.92c1.26-.19,5-1.25,5.53.51.67,2.12-2.59,1.38-3.41.87s-1.37-.94-2.12-1.38Z"/><path class="cls-23" d="M109.89,124.69c-1.14-.71-3.53-1.57-4.55-.12-1.14,1.65,2,1.57,2.74,1.3a5,5,0,0,0,1.81-1.18Z"/><path class="cls-23" d="M111.34,122.34c-.79,0-3.06.27-3.06-1s1.64-.94,2.27-.47a3,3,0,0,1,.79,1.45Z"/><path class="cls-23" d="M113,121.28c-.55-.55-1.68-3.14,0-2.75,1.22.28.39,2,0,2.75Z"/><path class="cls-23" d="M116.2,120.49a2.54,2.54,0,0,1-.79-2,1.06,1.06,0,0,1,1.26-.79c1.41.39.19,2.24-.39,2.82Z"/><path class="cls-23" d="M119.22,120c-.32-1,.51-2.86,1.76-2s-1.1,1.69-1.76,2Z"/><path class="cls-21" d="M130.08,122.38c1-.79,3.13-2.2,4.39-1.18s-1.65,1.53-2.24,1.57a10.31,10.31,0,0,1-2.15-.39Z"/><path class="cls-21" d="M130,124.45c1.25-.19,4.94-1.25,5.52.55.67,2.12-2.58,1.37-3.41.87a24.32,24.32,0,0,0-2.11-1.42Z"/><path class="cls-21" d="M129.21,128.41a7.05,7.05,0,0,1-.58-2h0c.94.44,2.78,1.14,2.66,2.43"/><path class="cls-21" d="M109.65,124.18c-1.14-.71-3.53-1.57-4.55-.12-1.13,1.61,2,1.57,2.79,1.26a4.64,4.64,0,0,0,1.76-1.14Z"/><path class="cls-21" d="M111.1,121.87c-.82,0-3.06.27-3.06-1s1.65-.94,2.28-.47a3.3,3.3,0,0,1,.78,1.45Z"/><path class="cls-21" d="M112.75,120.81c-.55-.55-1.69-3.14,0-2.75,1.25.24.39,2,0,2.75Z"/><path class="cls-21" d="M116,120a2.5,2.5,0,0,1-.78-2,1.06,1.06,0,0,1,1.25-.79c1.41.39.2,2.24-.39,2.82Z"/><path class="cls-21" d="M118.94,119.51c-.31-1,.51-2.86,1.77-2s-1.1,1.73-1.77,2Z"/><path class="cls-21" d="M114.51,125.87c0-1,.2-1.06.82-1.49s1.06-.36,1.89-.71a6.9,6.9,0,0,1,2.31-.67c.9-.08,1.06.12,1.8,0l1.65-.19c.55-.08.78.19.51.94s.2.9-.28,1.29-.23.2-1,.59a5.59,5.59,0,0,1-1.65.55c-.71.19-1,.12-2.12.31a4,4,0,0,1-2.08-.16,5.48,5.48,0,0,0-1.45-.31C114.55,126.06,114.51,125.87,114.51,125.87Z"/><path class="cls-23" d="M129.21,117.71a3.39,3.39,0,0,1-.9,0c-.63-.08.43-.78.55-1.41Z"/><path class="cls-23" d="M144.15,131.08a.14.14,0,0,1-.08,0c-.51.27-1,.55-1.57.78l-.07,4.16a15.25,15.25,0,0,0,1.56-.79,1.44,1.44,0,0,1,.16-.07Z"/><path class="cls-23" d="M146.62,129.43c0,1.34,0,2.67.08,4a5.12,5.12,0,0,0,2.08-3.8l.07-4.16A5.13,5.13,0,0,1,146.62,129.43Z"/><path class="cls-26" d="M156.34,120.77c0,1.72-2,2.82-3.29,3.45a19,19,0,0,1-5,1.53,55.43,55.43,0,0,1-10.43.94c-10.35,0-18.7-2.67-18.7-5.92s8.39-5.92,18.7-5.92S156.34,117.51,156.34,120.77Z"/><path class="cls-27" d="M137.64,115.12c10.2,0,18.47,2.59,18.7,5.81v-.16c0-3.29-8.39-5.92-18.7-5.92s-18.7,2.66-18.7,5.92v.16C119.18,117.71,127.45,115.12,137.64,115.12Z"/><path class="cls-28" d="M156.11,119.83c-.16,1.61-2,2.66-3.3,3.25a18.18,18.18,0,0,1-5,1.53,54.62,54.62,0,0,1-10.43.94c-9.29,0-17-2.15-18.47-5v.2c0,3.29,8.39,5.92,18.7,5.92a55.43,55.43,0,0,0,10.43-.94,19,19,0,0,0,5-1.53c1.25-.63,3.29-1.77,3.29-3.45A2.17,2.17,0,0,0,156.11,119.83Z"/><path class="cls-29" d="M148.82,120.77c0,1-1.22,1.68-2,2.08a11.74,11.74,0,0,1-3,.94,33.14,33.14,0,0,1-6.24.55c-6.15,0-11.17-1.57-11.17-3.53s5-3.53,11.17-3.53S148.82,118.85,148.82,120.77Z"/><path class="cls-27" d="M153.05,124.26a19,19,0,0,1-5,1.53,55.14,55.14,0,0,1-10.43.94c-10.35,0-18.7-2.67-18.7-5.92v2.51c0,3.29,8.39,5.92,18.7,5.92A55.43,55.43,0,0,0,148,128.3a19,19,0,0,0,5-1.53c1.25-.63,3.29-1.77,3.29-3.45v-2.51C156.34,122.49,154.3,123.59,153.05,124.26Z"/><path class="cls-30" d="M125.14,127.71a44.92,44.92,0,0,0,10.15,1.49v-2.51a44.92,44.92,0,0,1-10.15-1.49Z"/><path class="cls-31" d="M148.46,128.22a19.69,19.69,0,0,0,3.92-1.18v-2.51a19.69,19.69,0,0,1-3.92,1.18Z"/><path class="cls-32" d="M142.39,118.53c-.08,0-2.32,1.57-3,.12S142.39,118.53,142.39,118.53Z"/><path class="cls-32" d="M140.15,123.12c-.08,0-2.31,1.57-3,.12S140.15,123.12,140.15,123.12Z"/><path class="cls-32" d="M143.44,118.61c0,.08-2.07,1.81-.54,2.63S143.44,118.61,143.44,118.61Z"/><path class="cls-32" d="M141.8,121c0,.08-2.08,1.81-.55,2.63S141.8,121,141.8,121Z"/><path class="cls-32" d="M132.31,118.22c0,.08.16,2.59-1.61,2.24S132.31,118.22,132.31,118.22Z"/><path class="cls-32" d="M131.8,120.73c0,.08.16,2.59-1.61,2.23S131.8,120.73,131.8,120.73Z"/><path class="cls-32" d="M135.21,118c0,.07.51,2.54,2.12,1.88S135.21,118,135.21,118Z"/><path class="cls-32" d="M146.07,119.63c0,.08.51,2.55,2.12,1.88S146.07,119.63,146.07,119.63Z"/><path class="cls-32" d="M143.6,122.85c0-.08.39-2.55,2-2S143.6,122.85,143.6,122.85Z"/><path class="cls-32" d="M137.21,121.83c0-.08.39-2.55,2-2S137.21,121.83,137.21,121.83Z"/><path class="cls-32" d="M135.6,123.24c-.07,0-2-1.84-2.94-.47S135.6,123.24,135.6,123.24Z"/><path class="cls-32" d="M135.84,121.87s-1.14-2.4-2.55-1.41S135.84,121.87,135.84,121.87Z"/><path class="cls-33" d="M142.07,118.26c-.08,0-2.31,1.57-3,.12S142.07,118.26,142.07,118.26Z"/><path class="cls-33" d="M139.84,122.85c-.08,0-2.32,1.56-3,.11S139.84,122.85,139.84,122.85Z"/><path class="cls-33" d="M143.13,118.34c0,.08-2.08,1.8-.55,2.62S143.13,118.34,143.13,118.34Z"/><path class="cls-33" d="M141.52,120.65c0,.08-2.07,1.8-.55,2.63S141.52,120.65,141.52,120.65Z"/><path class="cls-33" d="M132,118c0,.07.15,2.58-1.61,2.23S132,118,132,118Z"/><path class="cls-33" d="M131.49,120.46c0,.07.15,2.58-1.61,2.23S131.49,120.46,131.49,120.46Z"/><path class="cls-33" d="M134.9,117.67c0,.08.51,2.55,2.11,1.88S134.9,117.67,134.9,117.67Z"/><path class="cls-33" d="M145.72,119.36c0,.08.51,2.55,2.12,1.88S145.72,119.36,145.72,119.36Z"/><path class="cls-33" d="M143.29,122.57c0-.08.39-2.55,2-2S143.29,122.57,143.29,122.57Z"/><path class="cls-33" d="M136.9,121.55c0-.08.39-2.55,2-2S136.9,121.55,136.9,121.55Z"/><path class="cls-33" d="M135.29,123c-.08,0-2-1.84-2.94-.47S135.29,123,135.29,123Z"/><path class="cls-33" d="M135.53,121.59s-1.14-2.39-2.55-1.41S135.53,121.59,135.53,121.59Z"/><path class="cls-26" d="M210.17,110.61c0,1.81-2.12,3-3.45,3.65a19.35,19.35,0,0,1-5.25,1.61,57.64,57.64,0,0,1-11,1c-10.9,0-19.68-2.79-19.68-6.24s8.82-6.23,19.68-6.23S210.17,107.16,210.17,110.61Z"/><path class="cls-27" d="M190.45,104.66c10.74,0,19.45,2.7,19.68,6.11v-.16c0-3.45-8.82-6.23-19.68-6.23s-19.68,2.78-19.68,6.23v.16C171,107.4,179.75,104.66,190.45,104.66Z"/><path class="cls-28" d="M209.9,109.6c-.16,1.68-2.16,2.78-3.45,3.45a19,19,0,0,1-5.26,1.6,56.74,56.74,0,0,1-11,1c-9.81,0-17.92-2.27-19.45-5.25v.2c0,3.45,8.82,6.23,19.68,6.23a57.64,57.64,0,0,0,11-1,20.47,20.47,0,0,0,5.25-1.61c1.33-.66,3.45-1.84,3.45-3.64A1.59,1.59,0,0,0,209.9,109.6Z"/><path class="cls-29" d="M202.21,110.61c0,1.06-1.25,1.77-2.08,2.16a11,11,0,0,1-3.13,1,33.46,33.46,0,0,1-6.55.59c-6.51,0-11.76-1.69-11.76-3.73s5.25-3.72,11.76-3.72S202.21,108.54,202.21,110.61Z"/><path class="cls-30" d="M177.28,117.91a49,49,0,0,0,10.7,1.56v-2.66a45,45,0,0,1-10.7-1.57v2.67Z"/><path class="cls-31" d="M201.86,118.46a19.81,19.81,0,0,0,4.16-1.22v-2.67a19.23,19.23,0,0,1-4.16,1.22Z"/><path class="cls-32" d="M195.51,108.22c-.08,0-2.43,1.65-3.14.12S195.51,108.22,195.51,108.22Z"/><path class="cls-32" d="M193.12,113.08c-.08,0-2.43,1.65-3.14.12S193.12,113.08,193.12,113.08Z"/><path class="cls-32" d="M196.61,108.34c0,.08-2.16,1.92-.55,2.75S196.61,108.34,196.61,108.34Z"/><path class="cls-32" d="M194.88,110.77c0,.08-2.16,1.92-.55,2.75S194.88,110.77,194.88,110.77Z"/><path class="cls-32" d="M184.84,108c0,.08.16,2.7-1.68,2.35S184.84,108,184.84,108Z"/><path class="cls-32" d="M184.3,110.58c0,.07.15,2.7-1.69,2.35S184.3,110.58,184.3,110.58Z"/><path class="cls-32" d="M187.9,107.64c0,.07.51,2.66,2.24,2S187.9,107.64,187.9,107.64Z"/><path class="cls-32" d="M199.31,109.4c0,.08.51,2.67,2.24,2S199.31,109.4,199.31,109.4Z"/><path class="cls-32" d="M196.76,112.81c0-.08.43-2.7,2.16-2S196.76,112.81,196.76,112.81Z"/><path class="cls-32" d="M190,111.71c0-.08.43-2.7,2.16-2S190,111.71,190,111.71Z"/><path class="cls-32" d="M188.29,113.2c-.07,0-2.15-2-3.09-.51S188.29,113.2,188.29,113.2Z"/><path class="cls-32" d="M188.57,111.79c-.08,0-1.18-2.51-2.67-1.49S188.57,111.79,188.57,111.79Z"/><path class="cls-33" d="M195.16,108c-.08,0-2.44,1.65-3.14.12S195.16,108,195.16,108Z"/><path class="cls-33" d="M192.8,112.77c-.08,0-2.43,1.65-3.13.12S192.8,112.77,192.8,112.77Z"/><path class="cls-33" d="M196.29,108c0,.08-2.15,1.92-.55,2.74S196.29,108,196.29,108Z"/><path class="cls-33" d="M194.53,110.5c0,.08-2.16,1.92-.55,2.74S194.53,110.5,194.53,110.5Z"/><path class="cls-33" d="M184.53,107.64c0,.07.16,2.7-1.68,2.35S184.53,107.64,184.53,107.64Z"/><path class="cls-33" d="M184,110.3c0,.08.16,2.71-1.68,2.35S184,110.3,184,110.3Z"/><path class="cls-33" d="M187.59,107.36c0,.08.51,2.67,2.23,2S187.59,107.36,187.59,107.36Z"/><path class="cls-33" d="M199,109.12c0,.08.51,2.67,2.23,2S199,109.12,199,109.12Z"/><path class="cls-33" d="M196.41,112.5c0-.08.43-2.71,2.16-2S196.41,112.5,196.41,112.5Z"/><path class="cls-33" d="M189.71,111.44c0-.08.43-2.71,2.15-2S189.71,111.44,189.71,111.44Z"/><path class="cls-33" d="M188,112.89c-.08,0-2.16-2-3.1-.51S188,112.89,188,112.89Z"/><path class="cls-33" d="M188.26,111.48c-.08,0-1.18-2.51-2.67-1.49S188.26,111.48,188.26,111.48Z"/><path class="cls-26" d="M114.83,120.89c0,1.8-2.12,3-3.45,3.64a18.64,18.64,0,0,1-5.26,1.61,56.84,56.84,0,0,1-11,1c-10.89,0-19.68-2.78-19.68-6.23s8.82-6.24,19.68-6.24S114.83,117.44,114.83,120.89Z"/><path class="cls-27" d="M95.14,114.93c10.75,0,19.45,2.7,19.69,6.11v-.15c0-3.45-8.83-6.24-19.69-6.24s-19.68,2.79-19.68,6.24V121C75.7,117.67,84.4,114.93,95.14,114.93Z"/><path class="cls-28" d="M114.55,119.87c-.16,1.68-2.16,2.78-3.45,3.45a19,19,0,0,1-5.25,1.6,56.84,56.84,0,0,1-11,1c-9.8,0-17.92-2.27-19.45-5.25v.2c0,3.45,8.83,6.23,19.69,6.23a56.74,56.74,0,0,0,11-1,20,20,0,0,0,5.26-1.61c1.33-.66,3.45-1.84,3.45-3.64A1.54,1.54,0,0,0,114.55,119.87Z"/><path class="cls-29" d="M106.91,120.89c0,1-1.26,1.76-2.08,2.15a11,11,0,0,1-3.14,1,33.4,33.4,0,0,1-6.55.59c-6.5,0-11.76-1.69-11.76-3.72s5.26-3.73,11.76-3.73S106.91,118.81,106.91,120.89Z"/><path class="cls-27" d="M111.37,124.53a18.58,18.58,0,0,1-5.25,1.61,56.84,56.84,0,0,1-11,1c-10.89,0-19.68-2.78-19.68-6.23v2.66c0,3.45,8.82,6.24,19.68,6.24a57.64,57.64,0,0,0,11-1,19.33,19.33,0,0,0,5.25-1.65c1.34-.67,3.46-1.84,3.46-3.65v-2.66C114.83,122.69,112.71,123.87,111.37,124.53Z"/><path class="cls-30" d="M81.93,128.18a49.65,49.65,0,0,0,10.71,1.57v-2.67a45.13,45.13,0,0,1-10.71-1.57Z"/><path class="cls-31" d="M106.51,128.73a19.64,19.64,0,0,0,4.16-1.22v-2.66a19.61,19.61,0,0,1-4.16,1.21Z"/><path class="cls-32" d="M100.16,118.49c-.08,0-2.43,1.65-3.13.12S100.16,118.49,100.16,118.49Z"/><path class="cls-32" d="M97.77,123.36c-.08,0-2.43,1.64-3.14.11S97.77,123.36,97.77,123.36Z"/><path class="cls-32" d="M101.26,118.61c0,.08-2.16,1.92-.55,2.75S101.26,118.61,101.26,118.61Z"/><path class="cls-32" d="M99.54,121c0,.08-2.16,1.92-.55,2.75S99.54,121,99.54,121Z"/><path class="cls-32" d="M89.5,118.22c0,.08.16,2.71-1.69,2.35S89.5,118.22,89.5,118.22Z"/><path class="cls-32" d="M89,120.85c0,.08.16,2.7-1.69,2.35S89,120.85,89,120.85Z"/><path class="cls-32" d="M92.56,117.91c0,.08.51,2.66,2.23,2S92.56,117.91,92.56,117.91Z"/><path class="cls-32" d="M104,119.67c0,.08.51,2.67,2.24,2S104,119.67,104,119.67Z"/><path class="cls-32" d="M101.42,123.08c0-.08.43-2.7,2.15-2S101.42,123.08,101.42,123.08Z"/><path class="cls-32" d="M94.67,122c0-.07.44-2.7,2.16-2S94.67,122,94.67,122Z"/><path class="cls-32" d="M93,123.47c-.08,0-2.16-2-3.1-.51S93,123.47,93,123.47Z"/><path class="cls-32" d="M93.26,122.06s-1.17-2.51-2.66-1.49S93.26,122.06,93.26,122.06Z"/><path class="cls-33" d="M99.81,118.22c-.08,0-2.43,1.65-3.14.12S99.81,118.22,99.81,118.22Z"/><path class="cls-33" d="M97.46,123c-.08,0-2.43,1.65-3.14.12S97.46,123,97.46,123Z"/><path class="cls-33" d="M101,118.3c0,.08-2.16,1.92-.55,2.74S101,118.3,101,118.3Z"/><path class="cls-33" d="M99.22,120.77c0,.08-2.15,1.92-.55,2.74S99.22,120.77,99.22,120.77Z"/><path class="cls-33" d="M89.19,117.91c0,.08.15,2.7-1.69,2.35S89.19,117.91,89.19,117.91Z"/><path class="cls-33" d="M88.64,120.57c0,.08.15,2.71-1.69,2.35S88.64,120.57,88.64,120.57Z"/><path class="cls-33" d="M92.24,117.63c0,.08.51,2.67,2.24,2S92.24,117.63,92.24,117.63Z"/><path class="cls-33" d="M103.65,119.4c0,.07.51,2.66,2.24,2S103.65,119.4,103.65,119.4Z"/><path class="cls-33" d="M101.06,122.77c0-.08.44-2.71,2.16-2S101.06,122.77,101.06,122.77Z"/><path class="cls-33" d="M94.36,121.71c0-.08.43-2.71,2.16-2S94.36,121.71,94.36,121.71Z"/><path class="cls-33" d="M92.64,123.16c-.08,0-2.16-2-3.1-.51S92.64,123.16,92.64,123.16Z"/><path class="cls-33" d="M92.91,121.75s-1.18-2.51-2.67-1.49S92.91,121.75,92.91,121.75Z"/><path class="cls-34" d="M130.78,112c11.84,3.13,20.62,8,19.68,10.89s-11.33,2.63-23.17-.5a79.08,79.08,0,0,1-11.64-4,25.28,25.28,0,0,1-5.26-2.87c-1.25-.94-3.25-2.54-2.74-4C108.59,108.65,118.94,108.85,130.78,112Zm-17.17,3.8a19.39,19.39,0,0,0,4.35,2.35,66.43,66.43,0,0,0,9.65,3.29c9.8,2.59,18.34,2.79,19.17.44s-6.47-6.39-16.27-9-18.35-2.79-19.17-.43C110.9,113.71,112.55,115,113.61,115.83Z"/><path class="cls-35" d="M130,114.42c-8.75-2.32-16.55-2.71-18.66-1.1a1.43,1.43,0,0,1,0-.82c.78-2.36,9.37-2.16,19.17.43s17.05,6.62,16.27,9a1.64,1.64,0,0,1-.51.66C145.44,120.18,138.7,116.73,130,114.42Z"/><path class="cls-2" d="M127.41,122c11,2.9,20.27,3.06,21.17.36s-6.94-7.14-17.92-10-20.27-3.06-21.17-.35c-.51,1.53,1.57,3.05,2.55,3.8a22.6,22.6,0,0,0,4.82,2.63A71.17,71.17,0,0,0,127.41,122Zm3.14-9.33c10.35,2.75,18.42,7.14,17.6,9.57s-10.27,2.15-20.62-.59a75,75,0,0,1-10.47-3.57,24.52,24.52,0,0,1-4.7-2.55c-1.42-1-2.79-2.31-2.4-3.45C110.75,109.67,120.2,110,130.55,112.69Z"/><path class="cls-36" d="M121.65,122.77c-.75-.24-1.49-.51-2.24-.75l.63-1.88c.74.28,1.49.51,2.23.75Z"/><path class="cls-36" d="M118,121.47c-1-.39-2-.78-3-1.21a1.36,1.36,0,0,1-.35-.16l.63-1.88c.11,0,.23.12.35.16,1,.43,2,.82,3,1.21Z"/><path class="cls-37" d="M141.8,118.81a56.48,56.48,0,0,0-11.8-4.43,57.25,57.25,0,0,0-13.25-2.08l.51-1.49a57.88,57.88,0,0,1,13.25,2.08,56.48,56.48,0,0,1,11.8,4.43Z"/><path class="cls-38" d="M127.37,122.18c11.25,3,21.13,3.18,22.07.43s-7.45-7.41-18.7-10.39-21.13-3.17-22.07-.43c-.51,1.53,1.61,3.14,2.63,3.88a25.31,25.31,0,0,0,5,2.75A81.71,81.71,0,0,0,127.37,122.18Zm3.29-9.8c11.14,2.94,19.45,7.53,18.55,10.19s-10.67,2.39-21.8-.55a81.14,81.14,0,0,1-11-3.76,26.13,26.13,0,0,1-5-2.71c-1.52-1.13-3-2.47-2.54-3.72C109.77,109.16,119.53,109.44,130.66,112.38Z"/><path class="cls-39" d="M139.56,117.71a63.16,63.16,0,0,0-9.56-3.33l-2.79-.71.51-1.49c.91.2,1.85.43,2.79.67a63.16,63.16,0,0,1,9.56,3.33Z"/><path class="cls-40" d="M132.62,106.93c-.19,2,2.32,3.49,3.89,4.39a25.86,25.86,0,0,0,6.42,2.43,79.82,79.82,0,0,0,13.73,2.39c13.68,1.3,25.13-.74,25.68-4.51l5.21.51-.35,3c-.55,4.63-14.47,7.06-31,5.49a102.83,102.83,0,0,1-16.59-2.9,31.11,31.11,0,0,1-7.76-2.94c-1.92-1.1-5-2.94-4.7-5.37l.35-3Z"/><path class="cls-34" d="M158.5,100.89c16.58,1.57,29.6,6.59,29.05,11.18s-14.47,7.05-31.05,5.48a101.62,101.62,0,0,1-16.58-2.9,30.79,30.79,0,0,1-7.77-2.94c-1.92-1.1-5-2.94-4.7-5.37C128,101.79,141.88,99.32,158.5,100.89Zm-22,10.43a25.94,25.94,0,0,0,6.43,2.43,79.82,79.82,0,0,0,13.73,2.39c13.72,1.3,25.2-.74,25.67-4.55s-10.31-8-24-9.25-25.21.75-25.68,4.55C132.39,108.89,134.94,110.42,136.54,111.32Z"/><path class="cls-35" d="M158,104.73c-12.27-1.17-22.78.36-25.17,3.41a2.27,2.27,0,0,1-.24-1.25c.47-3.8,12-5.84,25.68-4.55s24.47,5.45,24,9.25a2.6,2.6,0,0,1-.51,1.18C180.18,109.32,170.3,105.91,158,104.73Z"/><path class="cls-2" d="M156.58,117c15.37,1.45,27.83-.82,28.34-5.21s-11.09-8.94-26.5-10.39-27.83.82-28.38,5.22c-.32,2.43,2.86,4.23,4.39,5.09a29.52,29.52,0,0,0,7.09,2.67A90.35,90.35,0,0,0,156.58,117Zm1.8-15.05c14.55,1.37,26.43,5.84,26,9.8s-13.13,6.08-27.67,4.71a92.47,92.47,0,0,1-14.9-2.59,29.91,29.91,0,0,1-6.94-2.63c-2.16-1.21-4.31-2.74-4.12-4.59C131.17,102.77,143.84,100.62,158.38,102Z"/><path class="cls-36" d="M149.05,119.75c-1.06-.16-2.12-.35-3.17-.55l.35-3.06c1.06.2,2.12.39,3.17.55Z"/><path class="cls-36" d="M143.8,118.77c-1.41-.31-2.86-.63-4.28-1a4.08,4.08,0,0,1-.51-.16l.36-3a2.77,2.77,0,0,1,.51.15c1.41.39,2.82.71,4.27,1Z"/><path class="cls-37" d="M174.93,108.26a69.69,69.69,0,0,0-16.9-3.53,69.16,69.16,0,0,0-18.19.44l.27-2.4a68,68,0,0,1,18.19-.43,69,69,0,0,1,16.9,3.53Z"/><path class="cls-38" d="M156.54,117.28c15.76,1.49,29-.9,29.56-5.33s-11.88-9.25-27.64-10.74-29.05.9-29.56,5.33c-.31,2.47,2.94,4.31,4.51,5.21a32,32,0,0,0,7.41,2.79A96.68,96.68,0,0,0,156.54,117.28Zm1.88-15.8c15.6,1.49,27.88,6.16,27.37,10.43s-13.61,6.55-29.21,5.1a91.54,91.54,0,0,1-15.64-2.75,32,32,0,0,1-7.34-2.74c-2.31-1.3-4.62-2.9-4.39-4.94C129.72,102.3,142.82,100,158.42,101.48Z"/><path class="cls-39" d="M171.67,107.2A80.39,80.39,0,0,0,158,104.73c-1.33-.11-2.63-.19-3.88-.27l.27-2.39c1.26.08,2.59.15,3.88.27A76.68,76.68,0,0,1,172,104.81Z"/><path class="cls-40" d="M66.52,114.81c.24,1.18,2.24,1.72,3.49,2a25.19,25.19,0,0,0,4.83.47,68.34,68.34,0,0,0,9.8-.63c9.56-1.29,17-4.19,16.7-6.51l3.64-.47.32,1.85c.47,2.82-8.55,6.35-20.19,7.92a80.83,80.83,0,0,1-11.84.78,26.43,26.43,0,0,1-5.84-.59c-1.53-.35-4-1-4.2-2.47l-.31-1.84Z"/><path class="cls-34" d="M83.07,107.36c11.64-1.57,21.44-.55,21.91,2.27s-8.54,6.36-20.19,7.92a79.48,79.48,0,0,1-11.84.79,26.43,26.43,0,0,1-5.84-.59c-1.53-.35-4-1-4.19-2.47C62.37,112.46,71.43,108.93,83.07,107.36ZM70,116.85a24.88,24.88,0,0,0,4.83.47,68.34,68.34,0,0,0,9.8-.63c9.6-1.29,17.09-4.23,16.7-6.55s-8.51-3.17-18.11-1.88-17.1,4.24-16.71,6.55C66.72,116,68.72,116.53,70,116.85Z"/><path class="cls-39" d="M67.07,117.75a29.17,29.17,0,0,0,5.85.59,79.66,79.66,0,0,0,11.84-.79,61.57,61.57,0,0,0,16.15-4.11l.31,1.84c-3.65,1.69-9.49,3.21-16.15,4.12a79.47,79.47,0,0,1-11.84.78,26.43,26.43,0,0,1-5.84-.59c-.24,0-.47-.12-.75-.19l-.31-1.85A6.94,6.94,0,0,0,67.07,117.75Z"/><path class="cls-35" d="M83.46,109.71c-8.58,1.18-15.48,3.61-16.54,5.81a1.31,1.31,0,0,1-.4-.71c-.39-2.31,7.06-5.25,16.71-6.55s17.72-.47,18.11,1.88a1.18,1.18,0,0,1-.16.79C99.42,109.09,92,108.58,83.46,109.71Z"/><path class="cls-2" d="M84.72,117.2c10.78-1.45,18.85-4.66,18.38-7.33s-9.25-3.61-20-2.2S64.21,112.34,64.68,115c.24,1.49,2.75,2.07,4,2.35a23.47,23.47,0,0,0,5.33.51A68.61,68.61,0,0,0,84.72,117.2ZM83.19,108c10.19-1.37,19.13-.51,19.52,1.92s-7.84,5.57-18,6.94a73,73,0,0,1-10.67.7,22,22,0,0,1-5.21-.51c-1.69-.39-3.45-1-3.65-2.07C64.76,112.57,73,109.4,83.19,108Z"/><path class="cls-37" d="M95.65,109.28a56.12,56.12,0,0,0-12.19.43,54.77,54.77,0,0,0-12.35,3l-.23-1.45a54.77,54.77,0,0,1,12.35-3,56.08,56.08,0,0,1,12.19-.43Z"/><path class="cls-38" d="M84.76,117.36c11-1.49,19.64-4.9,19.21-7.61s-9.81-3.68-20.86-2.19-19.64,4.9-19.17,7.6c.27,1.49,2.82,2.12,4.07,2.39a27.71,27.71,0,0,0,5.57.55A75.4,75.4,0,0,0,84.76,117.36Zm-1.65-9.65c10.94-1.45,20.19-.55,20.62,2.08s-8.08,5.92-19,7.41A75,75,0,0,1,73.5,118,22.39,22.39,0,0,1,68,117.4c-1.8-.43-3.68-1-3.92-2.28C63.66,112.5,72.21,109.2,83.11,107.71Z"/><path class="cls-39" d="M93.22,109.12a64.4,64.4,0,0,0-9.76.59c-.94.12-1.84.28-2.7.43l-.24-1.45c.86-.15,1.8-.31,2.71-.43a64.33,64.33,0,0,1,9.76-.59Z"/><path class="cls-4" d="M38.92,91.13s1.49-1.49,5.3-2,81.31-14.54,81.31-14.54S136,73.29,143,75s51.67,13.41,51.67,13.41,16.67,4.23,17.8,4.78,3.38,2-.55,3.37l-92,16s-8.19,1-12.43.55S40.38,92.62,38.92,91.13Z"/><path class="cls-5" d="M110.47,113.08a70.38,70.38,0,0,0,10.78-.86c4.51-.86,89.86-15.68,89.86-15.68s3-.51,3-1.92v13.72s-.27,1.33-3.68,2.08-93.7,15.25-93.7,15.25-4.83.23-6.16.16Z"/><path class="cls-6" d="M39,91.17s2,.7,5,2c6.39,2.63,57.87,18.62,59.28,18.9s5.68,1.45,7.17,1l.08,12.78a65.13,65.13,0,0,1-9-.67c-2.58-.63-61.08-19.6-61.08-19.6s-1.72-.87-1.72-2S39,91.17,39,91.17Z"/><path class="cls-7" d="M43,91.33S44.37,90,48,89.44s77.51-13.29,77.51-13.29,10-1.17,16.7.4,49.24,12.27,49.24,12.27,15.88,3.88,17,4.39,3.21,1.8-.55,3.09l-87.74,14.59s-7.8.9-11.84.51S44.41,92.7,43,91.33Z"/><path class="cls-8" d="M102.08,111.75a31.54,31.54,0,0,0,8.39,1.33c3.45-.15,6.9-.35,8.28-.51v12.71a32.27,32.27,0,0,1-8.2.55c-4.94-.2-7-.08-8.39-.51Z"/><path class="cls-9" d="M142.23,76.55c-.2-.12,49.24,12.27,49.24,12.27s15.88,3.88,17,4.39,3.21,1.8-.55,3.09l-87.74,14.59S171.08,91.64,142.23,76.55Z"/></svg>