<svg xmlns="http://www.w3.org/2000/svg" viewBox="0 0 256 256"><defs><style>.cls-1{isolation:isolate;}.cls-2,.cls-23{opacity:0.5;}.cls-10,.cls-3{fill:#fff;}.cls-15,.cls-3{mix-blend-mode:screen;}.cls-4{fill:#2352af;stroke:#02024f;}.cls-12,.cls-4{stroke-miterlimit:10;}.cls-5{fill:#f2f2f2;}.cls-6{fill:#d8d8d8;}.cls-7{fill:#fcfcfc;}.cls-8{fill:#c7c8c3;}.cls-9{fill:#d8d9d4;}.cls-11{fill:#2b6c9c;}.cls-12{fill:#f2c144;stroke:#a56e00;stroke-width:2px;}.cls-13,.cls-16,.cls-20{fill:#f28f1c;}.cls-13,.cls-19,.cls-20,.cls-21,.cls-23,.cls-24{mix-blend-mode:multiply;}.cls-14,.cls-15,.cls-17,.cls-21{fill:#fcd051;}.cls-16,.cls-17,.cls-21,.cls-22{opacity:0.6;}.cls-18,.cls-19{fill:#6ab42d;}.cls-20{opacity:0.4;}.cls-24{fill:#ffad05;}</style></defs><g class="cls-1"><g id="Layer_54" data-name="Layer 54"><path class="cls-2" d="M131.7,189.43a200.46,200.46,0,0,1-48-5.57h-.19c-.74,0-1.49,0-2.24-.07h-.14c-.53,0-1.15-.09-1.77-.16l-.1,0a26.1,26.1,0,0,1-7-1.83l-.12-.05c-.52-.22-1-.47-1.54-.74l-.18-.1c-.54-.3-1-.57-1.42-.85l-.35-.24c-.43-.29-.81-.58-1.18-.87-29.34-10.77-46.15-27.9-46.15-47.1,0-15.72,11.44-30.28,32.21-41C72.57,81,97.91,75.13,125,74.31a9.35,9.35,0,0,1,1.28-.53c.55-.19,1.07-.35,1.59-.5l1.44-.57a22.05,22.05,0,0,1,7.85-1.28,62.27,62.27,0,0,1,6.24.41c1.59.16,3.09.31,4.4.33h2.35c4.81,0,10.26,0,15.33,1.63,2.83.88,6.14,1.93,9.47,3.13A23.06,23.06,0,0,1,180.53,80c38,9.58,61.53,29.38,61.53,51.82C242.06,164.13,193.58,189.43,131.7,189.43Z"/><path class="cls-3" d="M126.7,184.43a200.46,200.46,0,0,1-48-5.57h-.19c-.74,0-1.49,0-2.24-.07h-.14c-.53,0-1.15-.09-1.77-.16l-.1,0a26.1,26.1,0,0,1-7-1.83l-.12-.05c-.52-.22-1-.47-1.54-.74l-.18-.1c-.54-.3-1-.57-1.42-.85l-.35-.24c-.43-.29-.81-.58-1.18-.87-29.34-10.77-46.15-27.9-46.15-47.1,0-15.72,11.44-30.28,32.21-41C67.57,76,92.91,70.13,120,69.31a9.35,9.35,0,0,1,1.28-.53c.55-.19,1.07-.35,1.59-.5l1.44-.57a22.05,22.05,0,0,1,7.85-1.28,62.27,62.27,0,0,1,6.24.41c1.59.16,3.09.31,4.4.33h2.35c4.81,0,10.26,0,15.33,1.63,2.83.88,6.14,1.93,9.47,3.13A23.06,23.06,0,0,1,175.53,75c38,9.58,61.53,29.38,61.53,51.82C237.06,159.13,188.58,184.43,126.7,184.43Z"/><ellipse class="cls-4" cx="126.7" cy="126.82" rx="104.36" ry="51.61"/><path class="cls-5" d="M226.06,126.82C226.06,154,181.57,176,126.7,176s-99.37-22-99.37-49.14S71.82,77.68,126.7,77.68,226.06,99.68,226.06,126.82Z"/><path class="cls-6" d="M193.83,126.82c0,18.33-30.06,33.2-67.13,33.2s-67.14-14.87-67.14-33.2,30.06-33.2,67.14-33.2S193.83,108.48,193.83,126.82Z"/><ellipse class="cls-7" cx="126.7" cy="126.82" rx="62.25" ry="30.79"/><path class="cls-6" d="M64,125.46C64,114,75.63,104,93.39,98c-20.21,5.73-33.83,16.5-33.83,28.84,0,18.33,30.06,33.2,67.14,33.2a119.94,119.94,0,0,0,37.69-5.72,123.76,123.76,0,0,1-33.3,4.36C94,158.66,64,143.8,64,125.46Z"/><path class="cls-8" d="M193.83,126.82a17.43,17.43,0,0,0-1.36-6.69C186.2,105,159.14,93.62,126.7,93.62c-16.46,0-31.53,2.93-43.21,7.79,11-3.9,24.48-6.19,39.05-6.19,37.07,0,67.13,14.86,67.13,33.2,0,10.2-9.3,19.32-23.93,25.41C182.74,147.81,193.83,138,193.83,126.82Z"/><path class="cls-9" d="M135.75,77.7s.7,0,2,0,3.19.13,5.59.32a182.39,182.39,0,0,1,19.43,2.59,152.6,152.6,0,0,1,24.87,6.84,113.87,113.87,0,0,1,12,5.29,85.94,85.94,0,0,1,10.57,6.35,49.94,49.94,0,0,1,8.07,7.2,33.87,33.87,0,0,1,5.12,7.56,26.49,26.49,0,0,1,2.64,14,27.18,27.18,0,0,1-1,5.61,34,34,0,0,1-1.59,4.26,27.56,27.56,0,0,1-1.39,2.7c-.38.61-.57.94-.57.94l.49-.95c.32-.63.74-1.54,1.2-2.72a31.1,31.1,0,0,0,2.11-9.85,26.75,26.75,0,0,0-.5-6.6,29.56,29.56,0,0,0-2.53-7.26,34.47,34.47,0,0,0-5.15-7.43,49.25,49.25,0,0,0-8-7.07,84.78,84.78,0,0,0-10.36-6.3A112,112,0,0,0,186.9,88c-4.1-1.55-8.28-2.92-12.4-4.08s-8.19-2.1-12-2.87a183.43,183.43,0,0,0-19.17-2.82C138.53,77.77,135.75,77.7,135.75,77.7Z"/><path class="cls-10" d="M27.66,131.16a15.84,15.84,0,0,0,1,3.73,34.61,34.61,0,0,0,5.7,9.48,49.38,49.38,0,0,0,5.82,5.95,70.16,70.16,0,0,0,8.23,6.13,92.26,92.26,0,0,0,10.65,5.85,121.14,121.14,0,0,0,12.74,5.12,130.59,130.59,0,0,0,14.28,4c5,1.09,10,1.94,15,2.55s9.95,1,14.66,1.25,9.21.3,13.36.25c8.28-.1,15.16-.58,19.91-1,2.37-.23,4.23-.44,5.49-.6l1.93-.24-1.91.28c-1.25.18-3.08.43-5.46.69s-5.26.54-8.61.78-7.16.45-11.33.53a205.67,205.67,0,0,1-28.34-1.31c-5.08-.61-10.24-1.44-15.27-2.53A135.53,135.53,0,0,1,71,168a123,123,0,0,1-12.84-5.23,93.3,93.3,0,0,1-10.71-6,56.37,56.37,0,0,1-13.81-12.3,31.19,31.19,0,0,1-5.23-9.61,18,18,0,0,1-.66-2.77C27.67,131.5,27.66,131.16,27.66,131.16Z"/><path class="cls-11" d="M126.7,79.19c-51.91,0-94,20.81-94,46.49s42.09,46.48,94,46.48,94-20.81,94-46.48S178.61,79.19,126.7,79.19Zm0,91.13c-50.25,0-91-20.14-91-45s40.74-45,91-45,91,20.15,91,45S176.94,170.32,126.7,170.32Z"/><path class="cls-12" d="M197.14,122.67a18.88,18.88,0,0,0-2.54-8.14c-1.74-3.28-6.89-16.57-8.43-19.72a30.84,30.84,0,0,0-4.12-7.07c-2.14-2.46-5.28-4.39-7.89-6.3A26.31,26.31,0,0,0,168,77.58c-3.07-1.1-6.12-2.07-9.23-3-5-1.55-10.8-1.29-16-1.36s-11.3-1.73-16.29.16c-.51.19-1,.39-1.57.62s-1.09.32-1.65.51c-2.46.83-4.39,3.87-5.75,5.88-2.27,3.35-3.92,7.09-6,10.56-4.56,7.7-11.37,14-17.17,20.72-5.13,5.95-9.73,12.33-14.45,18.6-2.38,3.16-4.63,6.46-6.75,9.8-2.25,3.54-4.7,7-6.82,10.6-3.25,5.56-6.46,12-1.35,17.46,4.41,4.71,11.87,5.26,17.87,4.49A79,79,0,0,1,96.34,172c4.41.2,8.7,1.42,13.12,1.59,8.07.32,16.61-1.26,24.45-3a63.6,63.6,0,0,0,10.85-3c4.29-1.77,8.88-3.74,13.5-4.39,7.52-1.07,15.37-2.56,21.21-7.94.42-.4.86-.82,1.29-1.25a31.45,31.45,0,0,0,2.79-2.11,56.08,56.08,0,0,0,6-6.55c1.69-2,2.31-4.46,3.33-6.81,1.25-2.85,2.82-5.55,4-8.44C197.76,127.82,197.21,125.12,197.14,122.67Z"/><path class="cls-13" d="M66.28,168.22l0-.06c3-3.09,6.84-4,11-4,2.47,0,5,.19,7.43.08a40.29,40.29,0,0,0,7.83-1.52c5.1-1.26,10.42-1.13,15.64-.86s11.62,1.58,16.85,1.16A53.22,53.22,0,0,0,153,152.13a135.67,135.67,0,0,0,13.86-12,114.51,114.51,0,0,1,10.23-9.35A36,36,0,0,0,187,118.86a18.38,18.38,0,0,0,1.76-8.71,71.41,71.41,0,0,1,.1-7.88,41.72,41.72,0,0,0-2.68-7.46,30.84,30.84,0,0,0-4.12-7.07c-2.14-2.46-5.28-4.39-7.89-6.3A26.31,26.31,0,0,0,168,77.58c-3.07-1.1-6.12-2.07-9.23-3-5-1.55-10.8-1.29-16-1.36s-11.3-1.73-16.29.16c-.51.19-1,.39-1.57.62s-1.09.32-1.65.51c-2.46.83-4.39,3.87-5.75,5.88-2.27,3.35-3.92,7.09-6,10.56-4.56,7.7-11.37,14-17.17,20.72-5.13,5.95-9.73,12.33-14.45,18.6-2.38,3.16-4.63,6.46-6.75,9.8-2.25,3.54-4.7,7-6.82,10.6-3.25,5.56-6.46,12-1.35,17.46.27.29.55.56.84.82A1.7,1.7,0,0,1,66.28,168.22Z"/><path class="cls-14" d="M197.14,122.67a18.88,18.88,0,0,0-2.54-8.14c-1.07-2-2.49-3.8-3.54-5.76a8.65,8.65,0,0,0,.82,4.72,18.91,18.91,0,0,1,2.45,6.08c.24,1.51-.57,6.82-2.93,6.81-.79,0-1.44-.34-2.26,0-1.16.48-3.82,2.1-2.32,3.78.1.12,1.68,1.84,2.06,1.62a2.4,2.4,0,0,1,1.06-.44c.52,0,1.44.8,1.2,1.39-.35.88-1.19,1.27-1.74,2-.89,1.17.45,2,.36,3.09a3.74,3.74,0,0,1-.39,1.61,27.38,27.38,0,0,0-2.37,4.83c-.78,2.25-2,4.94-4.84,4.06-3.52-1.1-3.77,4.76-6,6.21-1.28.83-2.3.53-3.73.38-1.85-.19-3.71.56-5.54,1.06a13.58,13.58,0,0,0-1.34.84l-1,.74a9.7,9.7,0,0,1-.94,1.28,7.64,7.64,0,0,1-2,1.44,7.37,7.37,0,0,1-3.77.55h0a6.08,6.08,0,0,1-2.23-.18,14.41,14.41,0,0,1-1.6-.56c-2.27-.56-4.55-1.14-6.8-.66l-.17,0a9.35,9.35,0,0,0-2.87,2.38v0a3.78,3.78,0,0,1-.18,1.33,4.33,4.33,0,0,1-2.45,2.37c-1.23.64-2.75.21-4.17.06-.65.15-1.29.28-1.93.41-4.22.87-8.5,1.44-12.72,2.29a2.28,2.28,0,0,0-1.21,1.12,1.43,1.43,0,0,1-.35.42,13.4,13.4,0,0,1-5.7,2.2,11.37,11.37,0,0,1-5.84-.5c-1-.4-1.52-1.39-2.41-1.74l-.2-.07a6.83,6.83,0,0,0-4.42-.06c-2.42.95-4.43.79-7,.36s-4.87-.63-7.3-.9c-2.59-.28-5.45-.75-8-.31a39,39,0,0,0-5.78,1.78,20.89,20.89,0,0,1-4,1,27.16,27.16,0,0,0,12.37,1A79,79,0,0,1,96.34,172c4.41.2,8.7,1.42,13.12,1.59,8.07.32,16.61-1.26,24.45-3a63.6,63.6,0,0,0,10.85-3c4.29-1.77,8.88-3.74,13.5-4.39,7.52-1.07,15.37-2.56,21.21-7.94.42-.4.86-.82,1.29-1.25a31.45,31.45,0,0,0,2.79-2.11,56.08,56.08,0,0,0,6-6.55c1.69-2,2.31-4.46,3.33-6.81,1.25-2.85,2.82-5.55,4-8.44C197.76,127.82,197.21,125.12,197.14,122.67Z"/><path class="cls-14" d="M69.28,167.09a3.48,3.48,0,0,1,2-2.37c3-1.43,6.31-.61,9.47-.65,5.24,0,10.22-2.45,15.34-3.31,5.35-.9,11-.45,16.36-.13,5.6.34,11.16.85,16.73,0a49.94,49.94,0,0,0,14.74-4.69,62.18,62.18,0,0,0,12.67-8.45c4.23-3.63,7.73-7.94,11.65-11.88s8.64-7,12.71-10.85a25.48,25.48,0,0,0,7.67-13.8,27.45,27.45,0,0,0-.43-11.07,36.6,36.6,0,0,0-2-5.06,30.84,30.84,0,0,0-4.12-7.07c-2.14-2.46-5.28-4.39-7.89-6.3A26.31,26.31,0,0,0,168,77.58c-3.07-1.1-6.12-2.07-9.23-3-5-1.55-10.8-1.29-16-1.36s-11.3-1.73-16.29.16c-.51.19-1,.39-1.57.62s-1.09.32-1.65.51c-2.46.83-4.39,3.87-5.75,5.88-2.27,3.35-3.92,7.09-6,10.56-4.56,7.7-11.37,14-17.17,20.72-5.13,5.95-9.73,12.33-14.45,18.6-2.38,3.16-4.63,6.46-6.75,9.8-2.25,3.54-4.7,7-6.82,10.6-3.25,5.56-6.46,12-1.35,17.46a13.57,13.57,0,0,0,4.63,3.17C70.52,170.19,69.1,168.54,69.28,167.09Z"/><path class="cls-15" d="M195.22,123.59a.44.44,0,0,0-.44.09c-1.88,1.18-1.45,4.52-4.48,3.17-1-.44-1.86.69-2.09,1.56-.42.6-.36,1.32,1,1.72s3.8,0,2.77,2.75a3.3,3.3,0,0,1-1.3,1.91c-1.36,1-1,2.55,0,3.59a.33.33,0,0,0,.38,0,4.47,4.47,0,0,0,1.84-2.36c.7-1.78,1.62-3.51,2.28-5.28C195.64,129.55,196.77,124.42,195.22,123.59Z"/><path class="cls-15" d="M190.67,140.16c-.78-.28-1.64,1.14-1.93,1.64a5.62,5.62,0,0,0-.37.78,3.92,3.92,0,0,0-.36,1c-.14.55-.19,2,.77,1.65s1.29-1.23,1.63-2a10.37,10.37,0,0,0,.58-1.87C191.09,140.93,191.18,140.35,190.67,140.16Z"/><path class="cls-15" d="M184.34,149.85c-1.13-2-4.14-1-4.94.9-.85,1.47-1.13,3.05-2.52,4.25-2.42,2.11-5.6.61-8.4,1.49-1.46.45-3.84,1.4-4.42,3-1.4,3.8,7.92-.53,8.55-.79,2.07-.9,4.87-2.06,6.38-3.83a9.05,9.05,0,0,1,3.52-2.86,3.68,3.68,0,0,0,1.76-1.59A.58.58,0,0,0,184.34,149.85Z"/><path class="cls-15" d="M152.69,160.86c-2.22-1.37-4.92-1.54-6.83.45-1.16,1.2-3.71,5.42-.46,5.44,1.56,0,3.33-1.11,4.7-1.73s3.56-.75,4.86-1.79C156.48,162,154.71,161.3,152.69,160.86Z"/><path class="cls-15" d="M139.65,167.33c-.19-1.3-2.57-1-4-.7-1.92-.42-4,.8-6.07,1.35s-5.7,0-6.82,2.33a.29.29,0,0,0,0,.24c.87,1.21,3.3.5,4.46.21,1.71-.43,3.43-.87,5.16-1.23s3.26-.18,4.87-.43C138.26,168.94,139.86,168.8,139.65,167.33Z"/><path class="cls-15" d="M107.57,170.73a6.93,6.93,0,0,0-1.88-.68,1.76,1.76,0,0,0-1.58-.19c-.73.33-2.18.83-2,1.88.1.73,1.22.88,1.79,1a5.73,5.73,0,0,0,3.59,0A1.09,1.09,0,0,0,107.57,170.73Z"/><path class="cls-15" d="M86.28,169.62a9.52,9.52,0,0,0-3.24-.34c-2.55-.27-7.36,1.43-8.32,1.94-.13.07-.37.27-.24.44.75,1,3.77.87,4.89.82,2.17-.08,5.41.07,7.32-1C87.89,170.73,87.55,170,86.28,169.62Z"/><path class="cls-16" d="M179.47,140.11c-.17-1.24-2.63-2.75-1.07-3.77a1.94,1.94,0,0,0-.61-3.54c-.45-.49-1.57-.3-2.31.23a6.46,6.46,0,0,0-2.14,2.79c-.6,2-3.25,3.75-5.09,4.55-2.07.9-4.09,2.75-4.43,5.09a2.5,2.5,0,0,0,3.5,2.43,3.1,3.1,0,0,0,1.45-2.23,2.25,2.25,0,0,0-.11-1c-.31-1.77,2.49-1.72,3.42-1.64,2.57.22,4.59,1.75,6.68-.71A3,3,0,0,0,179.47,140.11Z"/><path class="cls-16" d="M191.76,117.37c-.27-.67-.68-2.62-1.77-2.4s-1.62,1.44-1.78,2.34a7.07,7.07,0,0,0-.1,1.89,1.76,1.76,0,0,1-.09.62,6,6,0,0,0-.93,1.3c-.52,1-.72,1.89.24,2.68.69.57,1.82,0,2.46-.38a5.44,5.44,0,0,0,2.44-2.51C192.72,119.77,192.19,118.43,191.76,117.37Z"/><path class="cls-16" d="M185.24,124.74c-1.08,0-1.79,1.38-2.27,2.17a21.28,21.28,0,0,1-1.94,2.41.57.57,0,0,0-.11.11c-1,.93-1.75,2.1-1,3.34a2.35,2.35,0,0,0,3.39.64,4.56,4.56,0,0,0,1.5-3.34,8.81,8.81,0,0,1,.43-2.41c.27-.49.59-1,.84-1.46C186.47,125.41,186.14,124.7,185.24,124.74Z"/><path class="cls-16" d="M162.1,152.48C162,151,161,149,159.35,148.86c-1.45-.1-2.63,1.42-3.41,2.65a12.9,12.9,0,0,1-4,2.51,12.3,12.3,0,0,0-2.1,1.16c-.58.39-1.65,1.22-1.24,2.06.28.57,1.29.4,1.74.38a15.58,15.58,0,0,1,4.26.76c2,.42,4.18.76,5.81-.63C161.74,156.61,162.27,154.14,162.1,152.48Z"/><path class="cls-17" d="M144,159c-1-.52-2.33-.06-3.42.44-.45.09-.89.19-1.33.32a3.47,3.47,0,0,0-2.37,1.52c-.49.86.14,1.46.86,1.83a4.57,4.57,0,0,0,3.65-.23C142.18,162.6,145.81,159.92,144,159Z"/><path class="cls-16" d="M125.43,164.24s0,0,0-.05c-1.91-.81-3.71-1.87-5.84-1.76a13.56,13.56,0,0,0-5.62,1.25c-2.82,1.57-1.79,4,1.29,3.92a15.12,15.12,0,0,0,2.4-.44,18.6,18.6,0,0,1,4.22,0,6,6,0,0,0,3.4-.78C126.52,165.45,126.24,164.75,125.43,164.24Z"/><path class="cls-16" d="M105.68,164.11c-.34-1-1.55-1.31-2.63-1.32a2.52,2.52,0,0,0-2.5-.38A29.93,29.93,0,0,0,97,163.93c-.74.36-4.32,2.58-2.27,3.64,3.18,1.65,7.07.93,10-.88A2.06,2.06,0,0,0,105.68,164.11Z"/><path class="cls-17" d="M184.29,137.76a3.5,3.5,0,0,0-2.47,1.52l-.15.11a2.16,2.16,0,0,0-1,2.43c.2.67.65,1.34.91,2a1.29,1.29,0,0,0,.91.8c1.05.07,2-.91,2.49-1.69C186,141.49,187.25,137.66,184.29,137.76Z"/><path class="cls-17" d="M91.3,163.7a4.78,4.78,0,0,0-2,.3,5.21,5.21,0,0,0-1.17.4,2,2,0,0,0-1,.74,1.08,1.08,0,0,0,.46,1.69,5.07,5.07,0,0,0,4.75-.85C93.26,165.06,92.47,163.82,91.3,163.7Z"/><path class="cls-18" d="M184.71,128l-.13.1a12.53,12.53,0,0,1-.15,2.29,6,6,0,0,1-.24,1.06,5.48,5.48,0,0,0,1.25.27,8.29,8.29,0,0,0,1-3.63.67.67,0,0,0-.12-.2A3.47,3.47,0,0,0,184.71,128Z"/><path class="cls-19" d="M186.28,127.87a3.45,3.45,0,0,0-.91,0,33.77,33.77,0,0,1-.48,3.77,3.65,3.65,0,0,0,.55.08,8.29,8.29,0,0,0,1-3.63A.67.67,0,0,0,186.28,127.87Z"/><path class="cls-18" d="M190.79,132.11a.32.32,0,0,0,0,.09,6.52,6.52,0,0,1,.73,1.07,2.91,2.91,0,0,1,.27.56,3.57,3.57,0,0,0,.65-.32,4.87,4.87,0,0,0-.84-1.95.35.35,0,0,0-.13-.05A2,2,0,0,0,190.79,132.11Z"/><path class="cls-19" d="M191.44,131.51a2.33,2.33,0,0,0-.41.31,20.42,20.42,0,0,1,1.11,1.84,2.34,2.34,0,0,0,.27-.15,4.87,4.87,0,0,0-.84-1.95A.35.35,0,0,0,191.44,131.51Z"/><path class="cls-18" d="M183.38,137.17a.42.42,0,0,0,0-.12,5,5,0,0,1-1.25-.37,2.55,2.55,0,0,1-.55-.31,6.56,6.56,0,0,0-.35,1,3.6,3.6,0,0,0,1.86,1.17.46.46,0,0,0,.14-.07A4.53,4.53,0,0,0,183.38,137.17Z"/><path class="cls-19" d="M183.2,138.47a4.53,4.53,0,0,0,.15-.75,13.91,13.91,0,0,1-2-.8,3.81,3.81,0,0,0-.13.45,3.6,3.6,0,0,0,1.86,1.17A.46.46,0,0,0,183.2,138.47Z"/><path class="cls-18" d="M166.73,143.62a.94.94,0,0,0-.12.09,10.81,10.81,0,0,1-.13,2,5.6,5.6,0,0,1-.21,1,4.87,4.87,0,0,0,1.12.24,7.59,7.59,0,0,0,.85-3.25.52.52,0,0,0-.1-.18A3.2,3.2,0,0,0,166.73,143.62Z"/><path class="cls-19" d="M168.14,143.52a3.73,3.73,0,0,0-.82,0,31.53,31.53,0,0,1-.43,3.38,4.61,4.61,0,0,0,.5.07,7.59,7.59,0,0,0,.85-3.25A.52.52,0,0,0,168.14,143.52Z"/><path class="cls-18" d="M172.17,147.32a.24.24,0,0,0,0,.08,5.83,5.83,0,0,1,.66,1,3.29,3.29,0,0,1,.23.5,2.94,2.94,0,0,0,.59-.29,4.33,4.33,0,0,0-.76-1.74.27.27,0,0,0-.11-.05A1.7,1.7,0,0,0,172.17,147.32Z"/><path class="cls-19" d="M172.76,146.78a1.64,1.64,0,0,0-.37.28,16.37,16.37,0,0,1,1,1.65,2,2,0,0,0,.25-.14,4.33,4.33,0,0,0-.76-1.74A.27.27,0,0,0,172.76,146.78Z"/><path class="cls-18" d="M165.54,151.85a.61.61,0,0,0,0-.11,4.11,4.11,0,0,1-1.12-.33,1.75,1.75,0,0,1-.49-.28,6,6,0,0,0-.31.9,3.29,3.29,0,0,0,1.66,1.05.33.33,0,0,0,.13-.07A3.82,3.82,0,0,0,165.54,151.85Z"/><path class="cls-19" d="M165.38,153a4.81,4.81,0,0,0,.13-.66,12.75,12.75,0,0,1-1.8-.72,2.64,2.64,0,0,0-.12.4,3.29,3.29,0,0,0,1.66,1.05A.33.33,0,0,0,165.38,153Z"/><path class="cls-18" d="M150,158.3s-.08,0-.11.09a11.59,11.59,0,0,1-.13,2,5.76,5.76,0,0,1-.22,1,5,5,0,0,0,1.12.24,7.6,7.6,0,0,0,.86-3.25.78.78,0,0,0-.11-.18A3.2,3.2,0,0,0,150,158.3Z"/><path class="cls-19" d="M151.36,158.2a3.64,3.64,0,0,0-.81,0,31.53,31.53,0,0,1-.43,3.38,4.13,4.13,0,0,0,.49.07,7.6,7.6,0,0,0,.86-3.25A.78.78,0,0,0,151.36,158.2Z"/><path class="cls-18" d="M129.4,165.63s0,.05,0,.08a6.29,6.29,0,0,1,.66,1,2.57,2.57,0,0,1,.24.5,2.86,2.86,0,0,0,.58-.29,4.23,4.23,0,0,0-.75-1.74.31.31,0,0,0-.12,0A1.87,1.87,0,0,0,129.4,165.63Z"/><path class="cls-19" d="M130,165.09a1.93,1.93,0,0,0-.36.28c.34.55.7,1.08,1,1.65a1.16,1.16,0,0,0,.24-.14,4.23,4.23,0,0,0-.75-1.74A.31.31,0,0,0,130,165.09Z"/><path class="cls-18" d="M122.76,170.16s0-.07,0-.1a4.81,4.81,0,0,1-1.12-.33,2.51,2.51,0,0,1-.5-.28,6.68,6.68,0,0,0-.31.89,3.28,3.28,0,0,0,1.67,1,.37.37,0,0,0,.12-.07A3.54,3.54,0,0,0,122.76,170.16Z"/><path class="cls-19" d="M122.6,171.32a4.54,4.54,0,0,0,.14-.66,13.37,13.37,0,0,1-1.81-.72,3,3,0,0,0-.12.4,3.28,3.28,0,0,0,1.67,1A.37.37,0,0,0,122.6,171.32Z"/><path class="cls-18" d="M108.67,165.87l-.14,0a11.28,11.28,0,0,1-.85,1.87,5.19,5.19,0,0,1-.54.81,4.55,4.55,0,0,0,1,.62,7.53,7.53,0,0,0,2-2.73.78.78,0,0,0,0-.21A3.07,3.07,0,0,0,108.67,165.87Z"/><path class="cls-19" d="M110,166.27a3.27,3.27,0,0,0-.75-.3c-.52,1-1,2.05-1.6,3a2.7,2.7,0,0,0,.44.24,7.53,7.53,0,0,0,2-2.73A.78.78,0,0,0,110,166.27Z"/><path class="cls-18" d="M86.85,165.42l0,.06a6.4,6.4,0,0,1,.27,1.13,3.21,3.21,0,0,1,.05.55,2.35,2.35,0,0,0,.65-.06,4.35,4.35,0,0,0-.09-1.9l-.09-.08A1.66,1.66,0,0,0,86.85,165.42Z"/><path class="cls-19" d="M87.59,165.12a1.71,1.71,0,0,0-.44.13,17.59,17.59,0,0,1,.34,1.9l.28-.05a4.35,4.35,0,0,0-.09-1.9Z"/><path class="cls-18" d="M79,167.29s0-.07,0-.1a4.26,4.26,0,0,1-.92-.71,2.33,2.33,0,0,1-.37-.44,6.05,6.05,0,0,0-.61.73,3.35,3.35,0,0,0,1.19,1.57.3.3,0,0,0,.13,0A3.6,3.6,0,0,0,79,167.29Z"/><path class="cls-19" d="M78.47,168.32a3.72,3.72,0,0,0,.37-.57,11.82,11.82,0,0,1-1.43-1.31,2.91,2.91,0,0,0-.26.33,3.35,3.35,0,0,0,1.19,1.57A.3.3,0,0,0,78.47,168.32Z"/><path class="cls-20" d="M176.41,135.86c.28-1,0-1.73-1.2-1.4s-1.28,1.42-1.37,2.41a3.31,3.31,0,0,1-1,1.72c-1.14.82-2.72,1.53-3.52,2.74-.49.73.44,1.11,1,1,1.59-.2,3-1.2,4.53-.27a1.81,1.81,0,0,0,2.55-.92C178.51,139.33,175.92,137.63,176.41,135.86Z"/><path class="cls-20" d="M183.83,130c-.23-.54-.85-.49-1.29-.33a.2.2,0,0,0-.08,0h0c-.85.37-2,1.38-2,2.43a1.29,1.29,0,0,0,.83,1.05,1.64,1.64,0,0,0,1.43-.27A2.49,2.49,0,0,0,183.83,130Z"/><path class="cls-20" d="M175.77,144.74l-.08,0c-.47.08-.89.19-1.08.23a1.75,1.75,0,0,0-1.13,2.15,2.49,2.49,0,0,0,2.13,1.53c2,.31,4.74-.51,5-2.86C180.91,143.28,177,144.32,175.77,144.74Z"/><path class="cls-20" d="M122.83,164.07a5,5,0,0,0-2.16-.56,7.55,7.55,0,0,0-1.45-.18c-1,0-2.44-.07-3.21.76-.63.68-.18,1.37.46,1.78.86.53,2.17.27,3.12.25a14.63,14.63,0,0,1,1.87,0,1.72,1.72,0,0,0,1.4-.19A1.11,1.11,0,0,0,122.83,164.07Z"/><path class="cls-20" d="M134.12,161.73a5.58,5.58,0,0,0-2.43-.1,2.85,2.85,0,0,0-1.45.33c-.25.13-.54.47-.39.77.62,1.23,3,1.29,4.12,1.17.54-.06,1.3-.28,1.39-.91C135.48,162.12,134.83,161.91,134.12,161.73Z"/><path class="cls-20" d="M102.14,163.51a4.4,4.4,0,0,0-2.35.52l-.2.1a5.78,5.78,0,0,0-3.2,1.31c-.67.8.3,1.42,1,1.67a6.26,6.26,0,0,0,3.92,0c.9-.32,2-1,2.2-2S103.08,163.63,102.14,163.51Z"/><path class="cls-13" d="M81.05,165.09a13.92,13.92,0,0,0-7.12.83l-.52.09a1.86,1.86,0,0,0-1,3c1,.89,2.91-.1,4.12-.65a5.6,5.6,0,0,0,1.69-.58,14.79,14.79,0,0,1,3.94-.31,1.24,1.24,0,0,0,1.14-.65C84.25,165.55,81.61,165.14,81.05,165.09Z"/><path class="cls-20" d="M157.19,151a6.71,6.71,0,0,0-1.71,2.86,3.26,3.26,0,0,0-1,.81c-1.39,1.89,1.89,2.92,3.26,2.7,2.06-.33,3.06-3.06,3-4.85C160.78,150.3,158.82,149.63,157.19,151Z"/><path class="cls-14" d="M117.23,168.17a4.55,4.55,0,0,0-2.08-.17,3.42,3.42,0,0,1-1.77-.14,2,2,0,0,0-1.46-.36.62.62,0,0,0-.27.11,1.67,1.67,0,0,0-1.4,1.76c0,1,1.08,1.61,1.92,1.86a6.5,6.5,0,0,0,3.64-.35c.88-.25,1.58-.42,1.93-1.36A1,1,0,0,0,117.23,168.17Z"/><path class="cls-14" d="M111,162.88c-.28-.47-1-.55-1.52-.58a7.13,7.13,0,0,0-1.88.48.82.82,0,0,0-.28-.06,1.44,1.44,0,0,0-1.16.89c-.55,1.24,2.52,1.11,3,.94C110,164.32,111.74,164.09,111,162.88Z"/><path class="cls-21" d="M168,85.81c-.57-2.08-1-3.89-2.78-5.31s-4-2-5.89-2.79c-2.25-1-4.15-2.89-6.64-3.28a22.49,22.49,0,0,0-7.31.49c-3.25.53-5.95-.16-9.08-.76-2.36-.46-4.88.71-7.22,1A10,10,0,0,0,124.59,77a15,15,0,0,0-2.76,2c-2.62,2.21-2.58,5.21-4.47,7.86-1.08,1.53-2.46,2.76-3.48,4.35-.9,1.42-1.71,2.89-2.68,4.26a78.56,78.56,0,0,1-8.33,10.29,66.2,66.2,0,0,0-6.94,8c-2.57,3.65-3.5,7.94-6.3,11.43-2.46,3.06-4.71,6.24-7.14,9.31-2.12,2.7-5.12,5.29-6.51,8.48-.63,1.45-1.25,4.07.67,4.93a4.65,4.65,0,0,0,3.27.05c3.29-.75,2.44,2.15,3.94,3.63a6.59,6.59,0,0,0,6.79,1.57,12.75,12.75,0,0,0,3.16-2.32,13.68,13.68,0,0,1,1.92-1.46c1-.59,2.34,1.37,2.87,1.95,1.65,1.82,4,.44,5.4-.85s2.4-2.47,4.7-1.73a11.53,11.53,0,0,1,4.9,3.26c4.76,4.92,12.29.64,16.81-2.5,1.15-.8,2.31-1.64,3.79-.77a3.12,3.12,0,0,0,2.37.36c1.76-.32,3.67-2,4.91-3.21a11.21,11.21,0,0,0,2.15-2.61c1-1.69,2-5.11,4.79-4.47A8,8,0,0,0,154,138c1.61-1,3.33-2.58,3.71-4.5.22-1.13,0-2.35.25-3.46a20.75,20.75,0,0,0,2.84-.76c1.92-.65,3.75-2.61,4.89-4.22a17.63,17.63,0,0,0,1.59-2.76,6.93,6.93,0,0,0,.41-1.54l0-.06c.85-1.26,1.22-2.42,2.76-3.06a5.73,5.73,0,0,0,2.11-1.22,9,9,0,0,0,2.33-4.9,35.86,35.86,0,0,0,.81-6.68c0-2.46.84-4.84.8-7.3C176.42,91.42,169.47,91.09,168,85.81Z"/><g class="cls-22"><path class="cls-21" d="M134.48,81.43a20.39,20.39,0,0,0,3.19.7c1,.15,3.43.54,3.73,1.76s-.59,2-1.26,2.71C138.91,88,137.81,89.29,138,91c.51,1.86,1.35,3.94.81,5.09-1.39,2.9-5.68,3-5.88,6.56-.13,2.44-.65,7.43,1.19,9.35,2.48,2.59,4.38-3.34,5.43-5,.61-1,1.46-2.09,2.79-1.82s3.53,1.68,3.1,3.24c-.58,2.13,2.07,1.8,3.64,2a5,5,0,0,1,3.06,1.27c1.74,1.7,4.54,3.51,5.23-.47.3-1.73-.53-2.42-1.18-3.84s-1-3.63.47-4.82c.65-.52,1.41-.85,2.1-1.32,1.79-1.23,1.64-3.57.53-5.16-1.88-2.68-6.74-5.09-5.23-8.95.76-1.94,5.52-3.64,4.77-5.89-1-3-4.25-3.44-7-3.51-2.53-.07-5.07.24-7.6.06-2.7-.18-5.55-1-8.25-.55C133.69,77.66,131.41,80.41,134.48,81.43Z"/><path class="cls-21" d="M164.38,91.68c-3.83-.3-2.21,3.22-1.19,4.22,1.36,1.35,3.18,2.28,4.45,3.72,1.65,1.89.52,3.85.52,6a.83.83,0,0,1-.87.73,6.14,6.14,0,0,0-3.61,1.42c-.7,1-.65,2.17,1,3a14.78,14.78,0,0,1,2.55,1.49c1.48,1.15,1.16,3,1.67,4.6s2.57-.55,2.93-1a8.39,8.39,0,0,0,1.53-3.25,40.64,40.64,0,0,0,.64-4.67c.29-2.77.8-5.93-1.1-8.28-1.47-1.83-3.27-3.52-4.87-5.25C167.12,93.41,165.83,91.79,164.38,91.68Z"/><path class="cls-21" d="M161.56,117.65a10.73,10.73,0,0,0-4.28.55,22.82,22.82,0,0,0-6.3,3.1c-1,.69-2.62,2.15-3.94,1.62a1.7,1.7,0,0,1-1.11-2.53c.4-.86,1.65-2.25,1.54-3.23a2.37,2.37,0,0,0-3.43-1.82c-2.95,1.11-2.36,4.3-2.19,7,.39,1.85-1.23,5.06,1.55,5.37,3.45.4,5.91-3.94,9-4.91,2.28-.72,4.25.45,3.93,3-.21,1.66-.79,3.28-.95,4.94-.06.62-.24,2,.86,1.84,2.54-.38,3-2.45,2.9-4.5-.08-1.65-.17-3,1-4.21,1-1.07,2.54-1.47,3.63-2.45C165.56,119.82,163.14,117.78,161.56,117.65Z"/><path class="cls-21" d="M145,130.37a30.58,30.58,0,0,0-5.58,3.12c-.61.38-2.61,1.84-3.36.77-1.28-1.84-1.49-3.67-4.11-4.24-3.6-.78-3.77,1.5-5.4,3.68a2.34,2.34,0,0,1-2.44,1.09,4.36,4.36,0,0,1-2.2-1.36c-.34-.38-.65-.85-1-1.2a2.06,2.06,0,0,0-1,2.25,4.48,4.48,0,0,1-1.59,3.09,7.54,7.54,0,0,1-2.63,3.6,6,6,0,0,1-3.17.94,20.17,20.17,0,0,0-2.2,0q-4.55,2.28-1.83,3.86c2.1,1,4.41-.24,6.47.84,2.7,1.4,5.11,4.08,8.47,3.55,3.14-.5,4.94-2.94,7.23-4.86a14.09,14.09,0,0,1,5.19-2.77c3.89-1.2,9.2-2.62,11.65-6.15C148.92,134.44,148.92,128.93,145,130.37Z"/><path class="cls-21" d="M125.24,86.42c-.43-1.9,1.27-2.91,1.59-4.66.23-1.28,0-4.11-2-3.38A8.57,8.57,0,0,0,122,80.16c-1.34,1.21-3.17,2.89-3.58,4.74a.86.86,0,0,1-.76.57,11.87,11.87,0,0,0-.55,1.59,21.72,21.72,0,0,1-1.77,5,12.88,12.88,0,0,1-3.14,4.24c-1.62,1.3-3.47,2.36-4.7,4.08-1.36,1.89-2.52,3.84-4,5.64a38.66,38.66,0,0,0-3.85,5.25,27.76,27.76,0,0,1-6.31,7.43c-1.84,1.66-2.89,3.61-4.37,5.52-1.15,1.48-2.49,2.82-3.56,4.36-1.26,1.82-1.77,4-3,5.8a23.07,23.07,0,0,1-2.7,3c-1.32,1.4-3,3.12-3.47,5-.39,1.67.74,3.82,2.81,2.54a6.84,6.84,0,0,1,1.18-.66c2.35-.94,3.62.42,5.11,2.07,1.73,1.91,4.89,2.1,6.24-.52a22.94,22.94,0,0,0,1.3-3.53c.52-1.62,1.34-3.53,3-4.24,2.24-.94,4.35.15,6.49.87,4.09,1.37,7.25.07,8.54-4.19.82-2.68,2.25-7.31-.38-9.44-1.94-1.56-4.62-2.29-6.33-4.13-4-4.31,3.77-6.73,4.65-10.2a13.59,13.59,0,0,1,3.64-6.5c2-2.11,2.56-4.46,4-6.87a5,5,0,0,1,4.29-2.77,9.4,9.4,0,0,1,3.31.63,5.45,5.45,0,0,0,2.25.35c1.09-.19,5.36-2,4.62-3.88C130,89.4,125.84,89,125.24,86.42Z"/></g><path class="cls-15" d="M186.19,98.27a7.88,7.88,0,0,0-1.56-3.16,12.37,12.37,0,0,1-1.37-3.42,4.58,4.58,0,0,0-1.9-2.6A2.71,2.71,0,0,0,180,87.83c-.35-.89-1.61-1.69-2.13-2.21-1.65-1.65-3.39-3.15-5.69-3.65a.4.4,0,0,0-.41.22c-.76.22-1.32,1-1.21,2.39a3,3,0,0,0,1.24,1.89c1.24,1.09,2.5,2,2.73,3.79.32,2.46.65,4,3.47,4.18.62,0,1.59.26,2.09-.19a9.59,9.59,0,0,0,.75,1c1.08,1.29,1,2.28,1,3.93a2.24,2.24,0,0,0,.21,1.09c.65,1.09,1.63,2.5,3.11,1.83S186.41,99.58,186.19,98.27Z"/><path class="cls-15" d="M187.3,106.66a16.67,16.67,0,0,0,.37-1.71,2.81,2.81,0,0,0-1.45-2.52c-.64-.37-1.14.35-1.38,1a2.35,2.35,0,0,0-1,.83c-.81,1.31.27,3.44-1.7,4.18-1.64.61-3.37,2.15-3,4,.65,3.73-3.8,4.92-3.53,8.48.14,1.83,1.68,2.57,3.15,1.26a10.16,10.16,0,0,0,2.5-3.28c.65-1.33,2.74-1.78,3.86-2.66,1.63-1.29,2.58-4.46,2.44-6.45C187.47,108.79,187.29,107.73,187.3,106.66Z"/><path class="cls-15" d="M182.6,103.35a8.08,8.08,0,0,0-.74-1,3,3,0,0,1-.23-1.34,1.73,1.73,0,0,0-.87-1.31c-1.74-1.16-2.12,4.51-2.14,5a3.91,3.91,0,0,0,.63,3c.63.71,2.05,0,2.55-.55a4.23,4.23,0,0,0,.8-3.86Z"/><path class="cls-15" d="M175.59,123.37a2.72,2.72,0,0,0-3.3,1.2,3.52,3.52,0,0,0-.4.8,3.3,3.3,0,0,0-.18,3.29c1,1.56,2.73-.24,3.56-.84,1.15-.83,3-1.4,3.32-3S176.34,123.7,175.59,123.37Z"/><path class="cls-15" d="M168.65,128a2.56,2.56,0,0,0-2.33,1.2c-1.48.82-3.3,2.72-3.64,4.34-.55,2.69-2.2,3.52-4.17,4.91l-.1.09a3.51,3.51,0,0,0-2.52,2.52c-1,2.77-4.78,1.08-7,2-2.35,1-1.34,4.33-3.5,5.47-1.94,1-4.24,1.54-6.06,2.75-.7.46-.9,1.17-1.4,1.8a4,4,0,0,1-4,.82c-.47-.65-.17-.45-.79-1-.86-.76-2.57-.27-3.25.46-.89,1-1.44,1.84-2.9,2.19a35.28,35.28,0,0,1-4.35.27c-1.57.17-3,.53-4.63.57a3.94,3.94,0,0,0-2.18.52c-2.56,1.79,3.77,3,5,2.79a18.78,18.78,0,0,1,5.55-.43,16.5,16.5,0,0,0,3.64.22,40.71,40.71,0,0,0,7.93-2.11c2.54-.8,4.2-3,6.89-3.36,2.44-.34,4.39-2.67,6.18-4.13,1.1-.89,2.64-1,3.76-1.81a12.65,12.65,0,0,0,2.58-2.37c.69-.92,1.07-2.71,2-3.34a1,1,0,0,0,.34-.39,19.36,19.36,0,0,0,2.61-2c1.5-1.35,1.89-4,3.7-4.91,1.53-.8,4.63-1.24,5-3.41C171.33,129.77,170.8,128.1,168.65,128Z"/><path class="cls-15" d="M171.3,124.52a1.55,1.55,0,0,0-1.2-.88,1.37,1.37,0,0,0-1.43,1,1.5,1.5,0,0,0,.11,1.53l.15.13a.73.73,0,0,0,.81.48A1.78,1.78,0,0,0,171.3,124.52Z"/><path class="cls-15" d="M115,158.3s-.47-.8-.5-.85a3.24,3.24,0,0,0-.92-.81,2.52,2.52,0,0,0-2-.44c-1.06.16-2.7,2.25-1.61,3.2a4.35,4.35,0,0,0,4.05.45,1.58,1.58,0,0,0,.83-1.23h0a.16.16,0,0,0,.15-.09l.09-.16C115.16,158.31,115.1,158.26,115,158.3Z"/><path class="cls-15" d="M103.62,157a2.21,2.21,0,0,0-1.3-1.76A20.59,20.59,0,0,0,99,153.11c-2.26-.89-4.6-.05-6.79.78a7.12,7.12,0,0,0-2.38,1.24c-.79.73-1.39,2.14-2.61,2.16-3.06,0-6.07.44-9.12.45-1,0-2.13-.08-3.17-.17-2.47-.22-1.12-2.44-1.33-3.9-.17-1.2-1.43-2.47-2.7-1.9a6.33,6.33,0,0,0-1.62,1.52c-1,1-2.19,1.77-3.16,2.82-1.81,2-.19,4.2-2,6.1s2.43,6.23,4.34,4.2a2.68,2.68,0,0,0,.93-1.56c.54-2.3,3.2-2.78,5.14-2.86s3.77-.48,5.73-.05c1.19.26,2.35.52,3.55.73.83.15,2-.49,2.83-.78A46,46,0,0,1,92,160.32,23.42,23.42,0,0,0,95.46,159a5.41,5.41,0,0,1,.77-.27c.85-.09,1.71,0,2.6,0s1.43.94,2.29.85C102.26,159.41,103.9,158.37,103.62,157Z"/><path class="cls-15" d="M111.11,152.6a3.13,3.13,0,0,0-2.47-1.38,8.25,8.25,0,0,0-4.1.48,3.26,3.26,0,0,0-.38.18l-.06,0a.31.31,0,0,0-.11.09,1.74,1.74,0,0,0-.91,1.37c0,1.92,2.27,5.66,4.57,4.16C108.84,156.76,112.13,154.4,111.11,152.6Z"/><path class="cls-15" d="M82.72,153.59c-.51-1.4-1.89-1.83-3.15-2.37a3.84,3.84,0,0,0-5.27,3c0,.23.08.3.22.29a2.69,2.69,0,0,0,.17.87c.44,1.15,2,1.21,3,1.23a7.11,7.11,0,0,0,3.81-.65C82.36,155.46,83.11,154.66,82.72,153.59Z"/><path class="cls-14" d="M170.4,146.41c-.27-.23-.65,0-.8.27a.55.55,0,0,0-.08.36.2.2,0,0,0,0,.15C169.89,147.83,171,146.85,170.4,146.41Z"/><path class="cls-14" d="M100.28,125.68a4.56,4.56,0,0,0-.79-2.1,5.4,5.4,0,0,0-1.74-3.76c-2.4-2-4,.87-4.9,3.7a7.11,7.11,0,0,0-1.16,2.16,3.52,3.52,0,0,1-.35.7c-1.66,1-2.59,2.74-3.88,4.2-1,1.16-2.24,2.3-2.58,3.77q-.09.22-.18.48c-.85,2.69,1.55,4.36,3.66,2.54a8.71,8.71,0,0,0,1.23-1.48c1.75-2.38,3-1.33,5.29-1.64a5.91,5.91,0,0,0,4.55-2.79C100.4,130,100.4,127.4,100.28,125.68Z"/><path class="cls-14" d="M90.27,139.7c-.8-.79-2,0-2.63.59a2.43,2.43,0,0,0-.43.63,2.79,2.79,0,0,0-.79,1.78c0,.92.84,1.29,1.64,1.18a3.15,3.15,0,0,0,2.15-1.63C90.6,141.56,90.93,140.35,90.27,139.7Z"/><path class="cls-14" d="M102.69,140.51a4.79,4.79,0,0,0-7.51,1.39,3.78,3.78,0,0,0-.37,2,2.15,2.15,0,0,0,.76,2.36c1.35,1,3.29.52,4.8.36C103.6,146.3,105.17,142.83,102.69,140.51Z"/><path class="cls-14" d="M117.26,133.44c-.45-.82-1.72-1.21-2.54-1.49a1.68,1.68,0,0,0-2.06,1.26,4.88,4.88,0,0,0-.16,1.47c0,.17.44,1.49.72,1.29l-.06,0a1.86,1.86,0,0,0-1.14.38,3.79,3.79,0,0,0-1.57,2.39c-.14.89,1.07,1.16,1.68,1.26a4.77,4.77,0,0,0,3.18-.69,3.55,3.55,0,0,0,1.73-2.47C117.29,135.69,117.9,134.63,117.26,133.44Z"/><path class="cls-14" d="M130,140.29a4.79,4.79,0,0,0-5.61-1.94,11.83,11.83,0,0,0-2.62.93,14.31,14.31,0,0,0-3,2.69l-.1.11a4,4,0,0,0-1.31.41,2.08,2.08,0,0,0-.84,2c.28,2.27,2.42,2.57,4.23,2.55,3,0,4.86.17,7.24-1.93C129.1,144.13,131,142,130,140.29Z"/><path class="cls-14" d="M107.72,140.11h0a2.24,2.24,0,0,0-.43.33l0,0a.93.93,0,0,0-.27.85.63.63,0,0,0,.79.51,1.33,1.33,0,0,0,1-1.1c0-.05,0-.1,0-.15C108.83,139.89,108.22,139.78,107.72,140.11Z"/><path class="cls-14" d="M136.5,137.94a2.51,2.51,0,0,0-3-.12,4.47,4.47,0,0,0-1.07.86c-.74.54-1.35,1.21-1,2.24.63,1.84,3.77.53,4.71-.32C136.93,139.93,137.44,138.66,136.5,137.94Z"/><path class="cls-14" d="M164.63,99.58c-1.76-.85-3.15-.26-4.26,1.26l-.65.87a5.18,5.18,0,0,0-1.18,1.24c-.61.9-1.29,2.46-.48,3.44,1.17,1.39,2.71.49,4-.1.75-.34,1.55-.47,2.28-.79a3.18,3.18,0,0,0,1.44-2C166.24,102.11,166.08,100.27,164.63,99.58Z"/><path class="cls-14" d="M165.73,112.53c-.09-.66-.83-1.09-1.4-1.3a9.48,9.48,0,0,0-1.76-.36,2,2,0,0,0-1.78.38,2.29,2.29,0,0,0-.88,2.47,1.56,1.56,0,0,0,0,1.91,3.24,3.24,0,0,0,2.47.87,3.56,3.56,0,0,0,3.08-2.22A3.86,3.86,0,0,0,165.73,112.53Z"/><path class="cls-14" d="M151.51,116.21a1.54,1.54,0,0,0-1.06.31,1.7,1.7,0,0,0-.45.15c-.68.38-1.28,1.38-.74,2.09.34.45,1.12.23,1.52,0a2.43,2.43,0,0,0,1.37-1.73A.7.7,0,0,0,151.51,116.21Z"/><path class="cls-14" d="M154.42,93.66a3.6,3.6,0,0,1-2.15-2.74,7.7,7.7,0,0,0-.48-2,1.61,1.61,0,0,0-2-.89c-1.34.6-5,2.24-4.67,4.34a1.73,1.73,0,0,0,1.5,1.6c.76.22,2.58.67,1.82,1.91a11.44,11.44,0,0,0-1.11,1.6c-1.38,3.55,3.11,2.65,5.1,3.24a2.35,2.35,0,0,0,1.75-.1l.38,0a2.42,2.42,0,0,0,2.19-1.43C158,97.11,156.24,94.7,154.42,93.66Z"/><path class="cls-14" d="M154.1,82.15v0a1,1,0,0,0-1.12-.47s0,0,0,0A2.2,2.2,0,0,0,151.44,83a1.11,1.11,0,0,0,.48,1.48.61.61,0,0,0,.18,0,1,1,0,0,0,1.3-.3l.35-.43a.09.09,0,0,1,0,0A1.58,1.58,0,0,0,154.1,82.15Z"/><path class="cls-14" d="M112.81,100.16c-.84-1.71-2.65-.59-3.9,1.15a7.44,7.44,0,0,0-1.48,2.4,6.11,6.11,0,0,1-1.45,2.81c-.73.69-1.84,1-2.62,1.72-1.18,1-1.8,2.34-1.1,3.8s3.55.18,4.18-.6a8.41,8.41,0,0,0,1.33-3.08c.45-1.38,2-2.46,3-3.45S113.6,101.76,112.81,100.16Z"/><path class="cls-14" d="M125.23,88.27a2.77,2.77,0,0,0-.94-1.3c-1.47-1.45-.79-2.54.17-4.09.62-1,1.26-4.57-1.07-3.51a3.63,3.63,0,0,0-1.73,1.77,3.85,3.85,0,0,0-1,1.74c-.14,1.26.41,2.19-.93,3.34a7.41,7.41,0,0,0-1.14,1.36,3.45,3.45,0,0,0-.58,3.19c.39,1,2,1.15,2.82,1.33a3.31,3.31,0,0,0,3.45-.78A3.76,3.76,0,0,0,125.23,88.27Z"/><path class="cls-14" d="M116.21,93.15a1,1,0,0,0-.73.3,1.39,1.39,0,0,0-.55.55.69.69,0,0,0,0,.86.76.76,0,0,0,.94-.1,1.23,1.23,0,0,0,.75-.73C116.8,93.65,116.67,93.18,116.21,93.15Z"/><path class="cls-14" d="M131.71,81.91a2.07,2.07,0,0,0-.59.38,1.78,1.78,0,0,0-.74.23c-1,.58-2.08,1.88-1.86,3.12.3,1.64,1.63,1.93,3.07,2.28,1.59.39.31,3.36,2.46,3.44a3.5,3.5,0,0,0,3.21-2.42,7.13,7.13,0,0,0,.44-2.24c0-.38-.11-.73-.1-1.11,0,0,.72-.6.79-.72C140.37,81.66,133.38,81.15,131.71,81.91Z"/><path class="cls-14" d="M141.52,78.34a2.06,2.06,0,0,0-1.93-.16l-.32.14h-.11a1.92,1.92,0,0,0-1.42,1.18,1.62,1.62,0,0,0,.39,1.72,2.33,2.33,0,0,0,1.88.31C141.32,81.38,143,79.36,141.52,78.34Z"/><path class="cls-14" d="M140.11,97.52a5.76,5.76,0,0,0-2.74,1.59,4.44,4.44,0,0,0-1.85,1.44,13.94,13.94,0,0,0-2,6.92c-.17,1.94,1.28,2.53,2.74,1.63a6.07,6.07,0,0,0,1.94-2.12c.34-.54.93-2.81,1-2.82,1.58-.33,3.66-2.13,3.81-3.83A2.45,2.45,0,0,0,140.11,97.52Z"/><path class="cls-14" d="M143.07,93.48c0-.3-.28-.46-.59-.52-.58-.12-1.25.72-1,1.27-.1.39,0,.85.5.88A1.24,1.24,0,0,0,143.12,94,1.07,1.07,0,0,0,143.07,93.48Z"/><path class="cls-14" d="M141,116.15c-.79-3.21-4.09-2.51-6.22-1l-.17.07c-1.2.46-2.38,1.16-2.52,2.54a2.7,2.7,0,0,0,1.48,2.81c.87.43,1.4.39,1.93,1a1.24,1.24,0,0,0,.1.2.36.36,0,0,0,.15.15l.08.14c.3.55.72,1.45,1.47,1.49,1.24.09,2.26-1.25,2.83-2.19A6.62,6.62,0,0,0,141,116.15Zm-7.33,3a1.21,1.21,0,0,1-.44-.73,2.34,2.34,0,0,0,1,1A2.3,2.3,0,0,1,133.7,119.19Zm3.34,1.74-.14-.15v0a1.34,1.34,0,0,0,.55-.13,1.14,1.14,0,0,0,0,.26A1.75,1.75,0,0,1,137,120.93Z"/><path class="cls-14" d="M144.7,109.71a2.09,2.09,0,0,0-2.88-.95,2,2,0,0,0-.9,1.33,2.9,2.9,0,0,0-.41.74,2.44,2.44,0,0,0,1.12,3,2.18,2.18,0,0,0,3.24-.56A3.67,3.67,0,0,0,144.7,109.71Z"/><path class="cls-14" d="M155,128c0-1.5-1.47-4.09-3.37-3a3.71,3.71,0,0,0-1.18,1h0a2.53,2.53,0,0,0-1.4,1.75c-.16,1.11.51,1.7.74,2.73.09.43-.33,1-.55,1.3a3,3,0,0,0-.42,1.61,2.6,2.6,0,0,0,.92,2.15c1.43,1.24,3.32-.6,4.06-1.71A10,10,0,0,0,155,128Z"/><path class="cls-14" d="M159.41,121a.77.77,0,0,0-.52-.68c-.83-.33-1.8.47-2,1.27a1.35,1.35,0,0,0-.14.79.87.87,0,0,0,.83.77,2.17,2.17,0,0,0,1.49-.67A1.46,1.46,0,0,0,159.41,121Z"/><path class="cls-14" d="M167.31,86.05c-.47-2.29-3.18-3.9-5.06-2a4.61,4.61,0,0,0-.71,1A4.1,4.1,0,0,0,160.07,87c-.52,2.36,2.38,3.18,4.16,3.23C166.67,90.25,167.77,88.28,167.31,86.05Z"/><g class="cls-23"><path class="cls-24" d="M143.84,98.58h0a3.33,3.33,0,0,0-1.1.15l-.14.09a12.47,12.47,0,0,1-.14,2.29,6.28,6.28,0,0,1-.24,1.07c.22.06.46.13.7.18h0l.27,0a1.33,1.33,0,0,0,.28,0,8.41,8.41,0,0,0,1-3.63,1.28,1.28,0,0,0-.11-.2A3.4,3.4,0,0,0,143.84,98.58Z"/><path class="cls-24" d="M150.41,104.25a4.66,4.66,0,0,0-.84-2l-.12,0a1.39,1.39,0,0,0-.31.23.27.27,0,0,0-.08.07h0a1.74,1.74,0,0,0-.25.29l0,.08a7.57,7.57,0,0,1,.74,1.07,3.2,3.2,0,0,1,.26.56l.38-.16h0A1.75,1.75,0,0,0,150.41,104.25Z"/><path class="cls-24" d="M141.35,107.79a5,5,0,0,1-1.24-.36,2.38,2.38,0,0,1-.55-.32c-.08.18-.15.37-.22.56h0a3.19,3.19,0,0,0-.13.44,3.6,3.6,0,0,0,1.86,1.17.33.33,0,0,0,.13-.07,4.27,4.27,0,0,0,.15-.71v0h0a5.46,5.46,0,0,0,0-.56S141.37,107.83,141.35,107.79Z"/><path class="cls-24" d="M106.37,126h0a2.84,2.84,0,0,0-1,.14,1.25,1.25,0,0,0-.12.08,12.34,12.34,0,0,1-.14,2.11,5.1,5.1,0,0,1-.22,1l.64.17h0l.24.05.26,0a7.69,7.69,0,0,0,.88-3.33.86.86,0,0,0-.11-.19A2.73,2.73,0,0,0,106.37,126Z"/><path class="cls-24" d="M111.53,129.41a1.86,1.86,0,0,0-.28.21l-.07.06,0,0h0a1.18,1.18,0,0,0-.23.27.19.19,0,0,0,0,.08,6.53,6.53,0,0,1,.67,1,4,4,0,0,1,.25.51,2.52,2.52,0,0,0,.34-.15h0l.25-.15a4.28,4.28,0,0,0-.77-1.79A.31.31,0,0,0,111.53,129.41Z"/><path class="cls-24" d="M104.09,134.51a4.13,4.13,0,0,1-1.15-.34,2.33,2.33,0,0,1-.51-.28c-.07.16-.14.33-.2.51h0a3.71,3.71,0,0,0-.12.41,3.31,3.31,0,0,0,1.71,1.08.27.27,0,0,0,.12-.06,3.69,3.69,0,0,0,.14-.66v0h0a3,3,0,0,0,0-.51S104.1,134.54,104.09,134.51Z"/><path class="cls-24" d="M148.12,86.71a7.56,7.56,0,0,0,.86-3.25,1.74,1.74,0,0,0-.11-.18,2.6,2.6,0,0,0-.4,0h0a2.93,2.93,0,0,0-1,.14,1.25,1.25,0,0,0-.12.08,11.64,11.64,0,0,1-.13,2,5.76,5.76,0,0,1-.22,1,6.45,6.45,0,0,0,.63.16h0l.23,0Z"/><path class="cls-24" d="M127.49,90.18a1.56,1.56,0,0,0-.27.2l-.07.06,0,0h0a2.85,2.85,0,0,0-.23.26.31.31,0,0,1,0,.08,6.2,6.2,0,0,1,.66,1,3.27,3.27,0,0,1,.24.5l.34-.14h0l.24-.14a4.11,4.11,0,0,0-.76-1.75Z"/><path class="cls-24" d="M120.25,95.14a4,4,0,0,1-1.12-.33,2.51,2.51,0,0,1-.5-.28c-.06.16-.13.33-.19.5h0a2.91,2.91,0,0,0-.12.39A3.3,3.3,0,0,0,120,96.48l.12-.07a4.26,4.26,0,0,0,.13-.64s0,0,0,0h0a2.74,2.74,0,0,0,0-.49A.36.36,0,0,0,120.25,95.14Z"/><path class="cls-24" d="M133,133.74h0a2.68,2.68,0,0,0-.87-.2l-.12,0a9.92,9.92,0,0,1-.75,1.66,5,5,0,0,1-.48.72c.15.11.31.23.47.33h0a3.72,3.72,0,0,0,.38.22,6.78,6.78,0,0,0,1.73-2.42.57.57,0,0,0,0-.18A3.18,3.18,0,0,0,133,133.74Z"/><path class="cls-24" d="M142.37,113.11a1.73,1.73,0,0,0-.37.11h0l-.26.14-.05.06a6.09,6.09,0,0,1,.25,1,3.74,3.74,0,0,1,0,.49l.32,0h0a1,1,0,0,0,.25,0,4,4,0,0,0-.08-1.68A.27.27,0,0,0,142.37,113.11Z"/><path class="cls-24" d="M133.69,113.93c-.11.11-.21.23-.32.35h0a2,2,0,0,0-.22.29,2.86,2.86,0,0,0,1,1.39l.12,0a4.58,4.58,0,0,0,.31-.49h0c.06-.13.13-.26.18-.4s0-.06,0-.09a4.53,4.53,0,0,1-.82-.62A2.08,2.08,0,0,1,133.69,113.93Z"/></g><path class="cls-18" d="M142.71,98.17a1,1,0,0,0-.13.09,12.53,12.53,0,0,1-.15,2.29,5.21,5.21,0,0,1-.24,1.06,5.59,5.59,0,0,0,1.25.27,8.42,8.42,0,0,0,1-3.63.67.67,0,0,0-.12-.2A3.48,3.48,0,0,0,142.71,98.17Z"/><path class="cls-19" d="M144.28,98.05a3.46,3.46,0,0,0-.91,0,36.29,36.29,0,0,1-.48,3.77,3.84,3.84,0,0,0,.55.08,8.42,8.42,0,0,0,1-3.63A.67.67,0,0,0,144.28,98.05Z"/><path class="cls-18" d="M148.79,102.29a.32.32,0,0,0,0,.09,7.84,7.84,0,0,1,.74,1.07,4.13,4.13,0,0,1,.26.56,3.57,3.57,0,0,0,.65-.32,4.87,4.87,0,0,0-.84-2,.29.29,0,0,0-.13,0A1.87,1.87,0,0,0,148.79,102.29Z"/><path class="cls-19" d="M149.44,101.69a2.33,2.33,0,0,0-.41.31,19.26,19.26,0,0,1,1.11,1.85,2.4,2.4,0,0,0,.27-.16,4.87,4.87,0,0,0-.84-2A.29.29,0,0,0,149.44,101.69Z"/><path class="cls-18" d="M141.38,107.35a.53.53,0,0,0,0-.12,5,5,0,0,1-1.25-.37,2.19,2.19,0,0,1-.55-.31,7,7,0,0,0-.35,1,3.6,3.6,0,0,0,1.86,1.17.37.37,0,0,0,.14-.07A4.48,4.48,0,0,0,141.38,107.35Z"/><path class="cls-19" d="M141.2,108.65a4.53,4.53,0,0,0,.15-.75,13.91,13.91,0,0,1-2-.8,3.81,3.81,0,0,0-.13.45,3.6,3.6,0,0,0,1.86,1.17A.37.37,0,0,0,141.2,108.65Z"/><path class="cls-18" d="M105.33,125.6l-.12.09a11.45,11.45,0,0,1-.13,2.11,6.21,6.21,0,0,1-.22,1A4.62,4.62,0,0,0,106,129a7.68,7.68,0,0,0,.87-3.34.69.69,0,0,0-.1-.19A3.23,3.23,0,0,0,105.33,125.6Z"/><path class="cls-19" d="M106.78,125.49a3.37,3.37,0,0,0-.84,0,33.23,33.23,0,0,1-.44,3.47,4.46,4.46,0,0,0,.51.07,7.68,7.68,0,0,0,.87-3.34A.69.69,0,0,0,106.78,125.49Z"/><path class="cls-18" d="M110.93,129.4s0,0,0,.08a6.68,6.68,0,0,1,.68,1,2.66,2.66,0,0,1,.24.51,2.78,2.78,0,0,0,.6-.29,4.4,4.4,0,0,0-.78-1.8l-.11,0A1.67,1.67,0,0,0,110.93,129.4Z"/><path class="cls-19" d="M111.53,128.85a1.69,1.69,0,0,0-.38.28,17.38,17.38,0,0,1,1,1.7,2,2,0,0,0,.25-.14,4.4,4.4,0,0,0-.78-1.8Z"/><path class="cls-18" d="M104.11,134.06a.35.35,0,0,0,0-.11,4.74,4.74,0,0,1-1.15-.34,2.43,2.43,0,0,1-.51-.29,5.89,5.89,0,0,0-.32.92,3.36,3.36,0,0,0,1.72,1.08.37.37,0,0,0,.12-.07A4.08,4.08,0,0,0,104.11,134.06Z"/><path class="cls-19" d="M103.94,135.25a4.81,4.81,0,0,0,.14-.68,14.12,14.12,0,0,1-1.86-.74c0,.14-.09.27-.12.41a3.36,3.36,0,0,0,1.72,1.08A.37.37,0,0,0,103.94,135.25Z"/><path class="cls-18" d="M147.46,82.82l-.12.09a10.81,10.81,0,0,1-.13,2,5.82,5.82,0,0,1-.21,1,4.87,4.87,0,0,0,1.12.24A7.45,7.45,0,0,0,149,82.9a.52.52,0,0,0-.1-.18A3.2,3.2,0,0,0,147.46,82.82Z"/><path class="cls-19" d="M148.87,82.72a3.72,3.72,0,0,0-.82,0,29.18,29.18,0,0,1-.43,3.38,4.61,4.61,0,0,0,.5.07A7.45,7.45,0,0,0,149,82.9.52.52,0,0,0,148.87,82.72Z"/><path class="cls-18" d="M126.9,90.15a.31.31,0,0,0,0,.08,6.82,6.82,0,0,1,.66,1,4.66,4.66,0,0,1,.24.5,2.62,2.62,0,0,0,.58-.29,4.39,4.39,0,0,0-.76-1.74.21.21,0,0,0-.11,0A1.76,1.76,0,0,0,126.9,90.15Z"/><path class="cls-19" d="M127.49,89.62a1.59,1.59,0,0,0-.37.27,16.51,16.51,0,0,1,1,1.66,2.07,2.07,0,0,0,.25-.15,4.39,4.39,0,0,0-.76-1.74A.21.21,0,0,0,127.49,89.62Z"/><path class="cls-18" d="M120.27,94.68a.38.38,0,0,0,0-.1,4.73,4.73,0,0,1-1.11-.33,2.26,2.26,0,0,1-.5-.28,5.51,5.51,0,0,0-.31.89,3.24,3.24,0,0,0,1.67,1,.39.39,0,0,0,.11-.06A3.61,3.61,0,0,0,120.27,94.68Z"/><path class="cls-19" d="M120.1,95.85a3.62,3.62,0,0,0,.14-.67,12.07,12.07,0,0,1-1.8-.72,3,3,0,0,0-.12.4,3.24,3.24,0,0,0,1.67,1A.39.39,0,0,0,120.1,95.85Z"/><path class="cls-18" d="M132.09,133l-.12,0a10.69,10.69,0,0,1-.75,1.65,4.75,4.75,0,0,1-.48.72,4.26,4.26,0,0,0,.85.55,6.51,6.51,0,0,0,1.72-2.41.4.4,0,0,0,0-.19A2.78,2.78,0,0,0,132.09,133Z"/><path class="cls-19" d="M133.28,133.33a2.93,2.93,0,0,0-.66-.26,28,28,0,0,1-1.42,2.65l.39.21a6.51,6.51,0,0,0,1.72-2.41A.4.4,0,0,0,133.28,133.33Z"/><path class="cls-18" d="M141.71,112.81l0,.06a5.61,5.61,0,0,1,.24,1,2,2,0,0,1,0,.49,2.62,2.62,0,0,0,.57-.06,3.67,3.67,0,0,0-.08-1.68.23.23,0,0,0-.07-.07A1.72,1.72,0,0,0,141.71,112.81Z"/><path class="cls-19" d="M142.37,112.55a1.74,1.74,0,0,0-.39.11c.11.56.24,1.12.3,1.68l.24,0a3.67,3.67,0,0,0-.08-1.68A.23.23,0,0,0,142.37,112.55Z"/><path class="cls-18" d="M134.81,114.47a.17.17,0,0,0,0-.1,3.77,3.77,0,0,1-.82-.62,2.08,2.08,0,0,1-.32-.39,5.29,5.29,0,0,0-.53.64,2.81,2.81,0,0,0,1,1.39.25.25,0,0,0,.12,0A3.38,3.38,0,0,0,134.81,114.47Z"/><path class="cls-19" d="M134.31,115.38a2.93,2.93,0,0,0,.32-.51,11.47,11.47,0,0,1-1.26-1.16,2,2,0,0,0-.22.29,2.81,2.81,0,0,0,1,1.39A.25.25,0,0,0,134.31,115.38Z"/><path class="cls-15" d="M124.33,140.17a2.7,2.7,0,0,0-3.06.64,2.42,2.42,0,0,0-.81,1.87,1.11,1.11,0,0,0,1,1.08,1.7,1.7,0,0,0,.39,0,4.53,4.53,0,0,0,.49.08,2.46,2.46,0,0,0,2.06-.95C125.05,142.11,125.4,140.76,124.33,140.17Z"/><path class="cls-15" d="M98.19,123.88a2.37,2.37,0,0,0-.94-2c-.85-.52-1.8.7-2,1.36a4.11,4.11,0,0,0-.07,2c0,.78.13,1.79.8,2.11.83.4,1.64-.29,2-1A5.51,5.51,0,0,0,98.19,123.88Z"/><path class="cls-15" d="M105.07,109.31a.71.71,0,0,0-.85-.28,1.62,1.62,0,0,0-1.22,1,.81.81,0,0,0,1.15,1.07,1.87,1.87,0,0,0,.94-1A1,1,0,0,0,105.07,109.31Z"/><path class="cls-15" d="M121.76,88.15a1.45,1.45,0,0,0-.07-.35c-.13-.37-.57-.43-.9-.38a1.74,1.74,0,0,0-1.38,1.69c0,.42.42.64.77.67a1.77,1.77,0,0,0,1.55-.87A.68.68,0,0,0,121.76,88.15Z"/><path class="cls-15" d="M121.71,90.06a1.19,1.19,0,0,0-1.37.81c-.18.49.11,1.13.72.95a1.46,1.46,0,0,0,1-.62C122.26,90.78,122.28,90.26,121.71,90.06Z"/><path class="cls-15" d="M138.22,100.38a1.3,1.3,0,0,0-.89-.06c-.94.23-2,1.35-1.55,2.38a.66.66,0,0,0,.5.41.63.63,0,0,0,.47.34c1,.3,2-1.22,2-2.07A1,1,0,0,0,138.22,100.38Z"/><path class="cls-15" d="M151.31,90.2a1.36,1.36,0,0,0-.62-.54,1.61,1.61,0,0,0-1.16.1,2.49,2.49,0,0,0-1.33,1.3,1.71,1.71,0,0,0-.23,1,1.11,1.11,0,0,0,.73.87l.16,0a1.21,1.21,0,0,0,1.07,0,2.53,2.53,0,0,0,1.17-1.07A1.75,1.75,0,0,0,151.31,90.2Z"/><path class="cls-15" d="M164.91,86.28a1.31,1.31,0,0,0-.61-.53,1.54,1.54,0,0,0-1.17.1,2.56,2.56,0,0,0-1.33,1.3,1.78,1.78,0,0,0-.22,1,1.07,1.07,0,0,0,.73.86l.15,0a1.21,1.21,0,0,0,1.07,0A2.58,2.58,0,0,0,164.71,88,1.76,1.76,0,0,0,164.91,86.28Z"/><path class="cls-15" d="M161.85,93.85a.81.81,0,0,0-.39-.34,1,1,0,0,0-.75.06,1.6,1.6,0,0,0-.85.83,1.12,1.12,0,0,0-.15.65.71.71,0,0,0,.47.55l.1,0a.74.74,0,0,0,.68,0,1.62,1.62,0,0,0,.76-.68A1.14,1.14,0,0,0,161.85,93.85Z"/><path class="cls-14" d="M173.21,106.29a1.77,1.77,0,0,0-.83-.72,2.14,2.14,0,0,0-1.57.13,3.37,3.37,0,0,0-1.8,1.76,2.47,2.47,0,0,0-.31,1.35,1.47,1.47,0,0,0,1,1.17l.21,0a1.64,1.64,0,0,0,1.44.06,3.39,3.39,0,0,0,1.59-1.45A2.36,2.36,0,0,0,173.21,106.29Z"/><path class="cls-15" d="M151.31,95.1a1.71,1.71,0,0,0-1.55,1.15c-.19.52,0,1.29.66,1.29A1.7,1.7,0,0,0,152,96.39C152.16,95.87,152,95.1,151.31,95.1Z"/></g></g></svg>