<svg id="Layer_54" data-name="Layer 54" xmlns="http://www.w3.org/2000/svg" xmlns:xlink="http://www.w3.org/1999/xlink" viewBox="0 0 512 256"><defs><style>.cls-1{opacity:0.5;}.cls-2,.cls-31,.cls-32,.cls-5{fill:#fff;}.cls-3{fill:#7c0079;stroke:#3a0d0d;stroke-miterlimit:10;stroke-width:2px;}.cls-4{fill:#bc2424;}.cls-5{opacity:0.6;}.cls-6{fill:gray;}.cls-31,.cls-6{opacity:0.26;}.cls-7{fill:#2b2b2b;}.cls-8{fill:url(#_30);}.cls-9{fill:url(#_30-2);}.cls-10{fill:url(#_30-3);}.cls-11{fill:url(#_30-4);}.cls-12{fill:#ad1e1e;}.cls-13{fill:#a01818;}.cls-14{fill:#911414;}.cls-15{fill:#ce2929;}.cls-16{fill:#e84242;}.cls-17{fill:url(#_32);}.cls-18{fill:#bf2121;}.cls-19{fill:url(#_32-2);}.cls-20{fill:url(#_32-3);}.cls-21{fill:url(#_30-5);}.cls-22{fill:url(#_30-6);}.cls-23{fill:url(#_30-7);}.cls-24{fill:url(#_30-8);}.cls-25{fill:#323232;}.cls-26{fill:#282828;}.cls-27{fill:#191a1c;}.cls-28{fill:#1c1c1c;}.cls-29{fill:#dd3636;}.cls-30{fill:#3a0d0d;}.cls-32{opacity:0.68;}</style><linearGradient id="_30" x1="-2665.08" y1="-257.78" x2="-2666.14" y2="-258.2" gradientTransform="matrix(0.58, -0.27, -0.35, -0.77, 1814.63, -784.51)" gradientUnits="userSpaceOnUse"><stop offset="0" stop-color="#e52a21"/><stop offset="0.29" stop-color="#fb423c"/><stop offset="0.68" stop-color="#ed332d"/><stop offset="1" stop-color="#e52a21"/></linearGradient><linearGradient id="_30-2" x1="-2485.87" y1="-113.99" x2="-2486.94" y2="-114.41" gradientTransform="matrix(0.64, 0.02, 0.03, -0.85, 1878.92, 81.69)" xlink:href="#_30"/><linearGradient id="_30-3" x1="-2448.76" y1="200.13" x2="-2449.82" y2="199.72" gradientTransform="matrix(0.38, 0.51, 0.69, -0.5, 932.04, 1479.14)" xlink:href="#_30"/><linearGradient id="_30-4" x1="-2411.45" y1="77.61" x2="-2412.51" y2="77.19" gradientTransform="matrix(0.54, 0.34, 0.45, -0.72, 1480.13, 1000.65)" xlink:href="#_30"/><linearGradient id="_32" x1="-957.63" y1="-22.5" x2="-943.5" y2="-6.75" gradientTransform="matrix(-0.87, -0.49, -0.49, 0.87, -459.67, -369.57)" gradientUnits="userSpaceOnUse"><stop offset="0" stop-color="#fb423c"/><stop offset="0.29" stop-color="#fb423c"/><stop offset="0.68" stop-color="#fb423c"/><stop offset="1" stop-color="#ef3531"/></linearGradient><linearGradient id="_32-2" x1="-821.79" y1="58.65" x2="-793.23" y2="72" xlink:href="#_32"/><linearGradient id="_32-3" x1="-866.57" y1="-8.33" x2="-874.31" y2="2.36" xlink:href="#_32"/><linearGradient id="_30-5" x1="-2430.45" y1="179.44" x2="-2431.47" y2="179.04" gradientTransform="matrix(0.45, 0.45, 0.61, -0.6, 1163.23, 1318.9)" xlink:href="#_30"/><linearGradient id="_30-6" x1="-2807.28" y1="-278.39" x2="-2808.34" y2="-278.81" gradientTransform="matrix(0.27, 0.62, 0.78, -0.34, 1100.96, 1767.44)" xlink:href="#_30"/><linearGradient id="_30-7" x1="-1093.21" y1="1815.63" x2="-1094.27" y2="1815.22" gradientTransform="matrix(0.63, -0.13, -0.17, -0.83, 1317.74, 1476.78)" xlink:href="#_30"/><linearGradient id="_30-8" x1="-517.59" y1="2530.93" x2="-518.66" y2="2530.51" gradientTransform="matrix(0.59, -0.27, -0.35, -0.77, 1582.07, 1940.86)" xlink:href="#_30"/></defs><path class="cls-1" d="M244.76,254.47a21.8,21.8,0,0,1-21.82-21.82,21.91,21.91,0,0,1,3.46-11.78,8.64,8.64,0,0,1,12-2.64,8.71,8.71,0,0,1,3.82,5.44,8.61,8.61,0,0,1-1.21,6.59,4.37,4.37,0,0,0-.68,2.35,4.45,4.45,0,0,0,4.47,4.51,4.52,4.52,0,0,0,4.52-4.51v-17h0V202l1.16-.24V134.49h-1a250.68,250.68,0,0,0-30.46,1.87,6.06,6.06,0,0,1-.79.89,6.46,6.46,0,0,1-4.22,1.74h-.16a6.18,6.18,0,0,1-5.62-3.54,196.78,196.78,0,0,0-55.69-8h-1.16a6.53,6.53,0,0,1-4.89,2.21,6.45,6.45,0,0,1-2.18-.38,6.26,6.26,0,0,1-3.28-2.82l-17.21-3a6.64,6.64,0,0,1-2.64,1l-.39.05h-.49a6.41,6.41,0,0,1-3.67-1.15,6.29,6.29,0,0,1-2.13-7.72,6.41,6.41,0,0,1,1.74-2.3c.21-.18.81-.73,1.63-1.48l8-7.33v.11l7-6.36c5.11-4.65,8.92-8.07,12.34-11.09,4-3.5,7.71-6.69,11.07-9.46a120.27,120.27,0,0,1,9.93-7.57c1.35-.92,2.76-1.79,4.26-2.63a43.13,43.13,0,0,1,12.76-5,57.59,57.59,0,0,1,10.26-1.2c2.93-.16,6.25-.35,11.13-1,2-.26,4.06-.56,6.09-.91A100.51,100.51,0,0,1,205.59,45c-2.63-9.64-3.22-17.79-1.75-24.22C206.08,11,212.26,7.92,215.74,7a14.13,14.13,0,0,1,3.79-.52C234,6.45,239.92,28,241.85,35a97.49,97.49,0,0,1,3.22,17.81l.35,0a45.31,45.31,0,0,1,5.08.79l.73-11.44.15-.55a7,7,0,0,1,6.15-5.39l.44,0,.43,0A7,7,0,0,1,264.66,42l.08.42.75,11.29,1.59-.17c1.77-.17,3.6-.25,5.43-.25,1,0,2,0,3,.07A97.64,97.64,0,0,1,278.78,35c1.93-7.07,7.81-28.59,22.31-28.59a14.2,14.2,0,0,1,3.8.52c3.48,1,9.65,4,11.89,13.76,1.48,6.43.89,14.58-1.75,24.22a98.42,98.42,0,0,1-5.73,15.81l1.07.17c4,.62,6.89.89,9.43,1.11h.3l1.53.07a50.11,50.11,0,0,1,14.54,3.05,44.41,44.41,0,0,1,5.33,2.38,57.61,57.61,0,0,1,5.38,3.32c1.58,1.09,3.3,2.36,5.27,3.88l1.35,1.06,1.29,1,.39.32c.79.64,1.59,1.28,2.4,2,4.09,3.39,7.82,6.72,11.4,10.18.52.49,1,1,1.51,1.48l10.13,10.3,7,7.14L398,118.82c.56.6,1,1.12,1.34,1.47l3.69,4.18-2,2a6.35,6.35,0,0,1-.8,1.88,6.24,6.24,0,0,1-5.27,2.88h0a6.24,6.24,0,0,1-2.65-.58,6.56,6.56,0,0,1-2.11-1.57,39.89,39.89,0,0,0-4.62-.27,37.83,37.83,0,0,0-12.38,2.05c-1.09.38-2.17.81-3.23,1.29a6.25,6.25,0,0,1-6.14,5.17,6.31,6.31,0,0,1-4.76-2.15A176.59,176.59,0,0,0,334,133.4c-2.25,0-4.54,0-6.79.13A177.37,177.37,0,0,0,299,136.91a6.36,6.36,0,0,1-2.32,2.5,6.26,6.26,0,0,1-8.15-1.45c-.12-.15-.22-.29-.32-.44-7.54-1.18-15.19-2-22.84-2.51v56.82l9.67,9.68h-8.41c0,.08-.09.16-.13.24l.16,0V215.4h0v17.24a21.8,21.8,0,0,1-21.83,21.82Z"/><path class="cls-2" d="M239.84,249.55A21.81,21.81,0,0,1,221.48,216a8.64,8.64,0,0,1,12-2.64,8.66,8.66,0,0,1,3.81,5.44,8.56,8.56,0,0,1-1.2,6.59,4.37,4.37,0,0,0-.68,2.35,4.45,4.45,0,0,0,4.47,4.51,4.53,4.53,0,0,0,4.52-4.51v-17h0V197l1.16-.24V129.57h-1A250.68,250.68,0,0,0,214,131.44a6.7,6.7,0,0,1-.79.89,6.46,6.46,0,0,1-4.22,1.74h-.16a6.18,6.18,0,0,1-5.62-3.54,196.78,196.78,0,0,0-55.69-8h-1.16a6.6,6.6,0,0,1-2.55,1.77,6.48,6.48,0,0,1-2.34.44,6.41,6.41,0,0,1-2.18-.38A6.32,6.32,0,0,1,136,121.5l-17.2-3a6.64,6.64,0,0,1-2.64,1l-.39,0h-.49a6.39,6.39,0,0,1-3.67-1.15,6.29,6.29,0,0,1-2.13-7.72,6.41,6.41,0,0,1,1.73-2.3c.22-.18.82-.73,1.64-1.48l8-7.33,0,.11,7-6.37c5.11-4.65,8.92-8.06,12.34-11.08,4-3.5,7.71-6.69,11.07-9.46a120.27,120.27,0,0,1,9.93-7.57c1.35-.92,2.76-1.79,4.26-2.63a43.13,43.13,0,0,1,12.76-5,57.59,57.59,0,0,1,10.26-1.2c2.93-.16,6.25-.35,11.12-1,2-.26,4.07-.56,6.1-.91A100.51,100.51,0,0,1,200.67,40c-2.64-9.64-3.23-17.79-1.75-24.22,2.24-9.76,8.42-12.81,11.9-13.76a14.13,14.13,0,0,1,3.79-.52c14.5,0,20.39,21.52,22.32,28.59a97.49,97.49,0,0,1,3.22,17.81l.35,0a45.31,45.31,0,0,1,5.08.79l.73-11.44.15-.55a7,7,0,0,1,6.15-5.39l.44,0,.43,0A7,7,0,0,1,259.74,37l.08.41.75,11.3,1.59-.17c1.77-.17,3.6-.25,5.43-.25,1,0,2,0,3,.07a97.59,97.59,0,0,1,3.26-18.27c1.94-7.07,7.82-28.59,22.32-28.59a14.2,14.2,0,0,1,3.8.52c3.48,1,9.65,4,11.89,13.76,1.48,6.43.89,14.58-1.75,24.22a99.39,99.39,0,0,1-5.73,15.81l1.07.17c4,.62,6.88.89,9.43,1.11h.3l1.53.07a52.68,52.68,0,0,1,5.7.67,50,50,0,0,1,8.84,2.39,42.88,42.88,0,0,1,5.33,2.38A58.94,58.94,0,0,1,342,66c1.58,1.09,3.3,2.36,5.26,3.88.44.33.9.69,1.36,1.06l1.28,1,.4.32c.79.64,1.59,1.28,2.4,2,4.08,3.39,7.82,6.72,11.4,10.17l1.51,1.49,10.13,10.3,7,7.14,10.4,10.63c.56.6,1,1.12,1.34,1.47l3.69,4.18-2,2a6.13,6.13,0,0,1-.8,1.88,6.23,6.23,0,0,1-5.27,2.89h0a6.31,6.31,0,0,1-4.76-2.16,42.22,42.22,0,0,0-4.62-.26,37.83,37.83,0,0,0-12.38,2,32.92,32.92,0,0,0-3.23,1.29,6.24,6.24,0,0,1-.88,2.27,6.17,6.17,0,0,1-5.27,2.9,6.37,6.37,0,0,1-2.67-.59,6.46,6.46,0,0,1-2.09-1.57,177.82,177.82,0,0,0-25-1.77c-2.25,0-4.54,0-6.79.13A176.23,176.23,0,0,0,294,132a6.36,6.36,0,0,1-2.32,2.5,6.26,6.26,0,0,1-8.15-1.45c-.12-.15-.22-.29-.32-.44-7.54-1.18-15.19-2-22.84-2.52v56.83l9.67,9.68h-8.42l-.12.23.16,0v13.63h0v17.24a21.8,21.8,0,0,1-21.83,21.82Z"/><path class="cls-3" d="M390.39,119.89a.72.72,0,0,0-.18-.36l-.21-.23,0,0c-.3-.34-.74-.82-1.28-1.4l-.13-.15h0l-.09-.1c-.71-.75-1.25-1.28-1.56-1.6l-3.15-3.21-12.32-12.56-5.87-6-2.85-2.89L361.37,90c-.47-.48-.94-.94-1.41-1.39-3.77-3.64-7.5-6.92-11.09-9.89-.89-.75-1.78-1.46-2.66-2.17l-1.31-1-1.28-1c-1.71-1.32-3.38-2.56-5-3.68a50.42,50.42,0,0,0-4.81-3,38,38,0,0,0-4.61-2.06,43.54,43.54,0,0,0-7.78-2.1,44.28,44.28,0,0,0-5.06-.59c-.58,0-1-.05-1.32-.06h-.45l.45,0q.45,0,1.32.09c.82.06,1.93.18,3.27.38-3.95-.51-7.85-.54-15.08-1.67-3.3-.51-6.36-1.11-9.15-1.74a83.85,83.85,0,0,0,9-21.63c2.54-9.31,2.83-16.34,1.69-21.34-1.24-5.39-4.14-8.42-7.7-9.39-6.87-1.87-13.57,4.61-18.86,23.94a83.55,83.55,0,0,0-3.24,23.23,55.34,55.34,0,0,0-13.61-.46c-3,.27-5,.73-7.6.92L254,38.26s-.2-.95-.9-1-.89,1-.89,1l-1.1,17.16h0c-5.16-.2-6.56-1.15-11.11-1.58a44.49,44.49,0,0,0-5.47-.07,85.19,85.19,0,0,0-3.25-22.09c-5.28-19.33-12-25.81-18.86-23.94-3.56,1-6.46,4-7.69,9.39-1.15,5-.86,12,1.69,21.34a86.52,86.52,0,0,0,8.16,20.2c-3.89.88-8.65,1.79-14.13,2.49-10.9,1.39-14.62.68-20.85,2.07a37.84,37.84,0,0,0-11.11,4.4c-1.24.7-2.55,1.5-3.92,2.43a115.22,115.22,0,0,0-9.44,7.2c-3.39,2.8-7,5.93-10.92,9.34s-8,7.12-12.28,11-7.57,6.93-13.5,12.24l-1.54,1.37v0c-.91.83-1.58,1.43-1.81,1.63a.43.43,0,0,0-.14.17.38.38,0,0,0,.12.49.51.51,0,0,0,.37.07.64.64,0,0,0,.36-.17l1.38-1.24,25.23,4.47c-.56.76-1,1.32-1.13,1.52a.73.73,0,0,0-.1.19.35.35,0,0,0,.21.43.53.53,0,0,0,.37,0,.75.75,0,0,0,.31-.25c.47-.63.94-1.25,1.4-1.88a202.31,202.31,0,0,1,65.52,9.49c-.2.75-.34,1.3-.4,1.51a.43.43,0,0,0,0,.22.33.33,0,0,0,.34.32.53.53,0,0,0,.34-.15.77.77,0,0,0,.2-.35l.44-1.64a255.7,255.7,0,0,1,38.5-2.33l3.07.08v77.87c-.71.08-1.15.17-1.15.17V206h0v21.66a10.4,10.4,0,1,1-20.79,0,10.24,10.24,0,0,1,1.64-5.59,2.76,2.76,0,0,0-4.66-3,16,16,0,0,0-2.52,8.6,15.92,15.92,0,1,0,31.83,0V206h0v-4.21h0a12,12,0,0,0-1.29-.17v-7.83a6,6,0,0,1,1.18,0c.09.2.22.34.38.34s.48-.35.48-.84-.17-.84-.48-.84c-.16,0-.29.12-.38.31a4.81,4.81,0,0,1-1.18.09v-2.18h1.33l-.93-.93h-.4V123.87a253.92,253.92,0,0,1,33.09,3.46c.25.9.44,1.57.5,1.82a.55.55,0,0,0,.09.19.34.34,0,0,0,.46.11.52.52,0,0,0,.21-.3.72.72,0,0,0,0-.41c-.14-.53-.29-1.05-.43-1.58a182.37,182.37,0,0,1,68.7-2.43c.72.79,1.25,1.38,1.43,1.6a.55.55,0,0,0,.17.13.34.34,0,0,0,.46-.11.54.54,0,0,0,.06-.36.72.72,0,0,0-.18-.37l-1.14-1.27a42.84,42.84,0,0,1,8.43-4,44.94,44.94,0,0,1,21.88-1.76l.17.18c.65.72,1.12,1.25,1.29,1.45a.6.6,0,0,0,.17.13.36.36,0,0,0,.47-.11A.56.56,0,0,0,390.39,119.89Zm-102.9,6.93h0q-3.51-13.09-7-26.21h0Q284,113.72,287.49,126.82Zm-22-26.6c-1.86,0-3.73,0-5.62,0C261.77,100.18,263.64,100.19,265.5,100.22Zm7.51.15q-3.19-.09-6.46-.14C268.72,100.26,270.88,100.31,273,100.37Zm69.4,5.23-1.53-.22Zm3.35.51-1.78-.28Zm2.74.47.72.14c-.69-.13-1.36-.25-2-.36Zm-68.82-6c-1.78-.07-3.58-.12-5.39-.18C276.1,100.46,277.9,100.51,279.68,100.58Zm60.41,4.7,1.85,2.1-1.85-2.1Zm16.44,2.93,3.16.74C358.63,108.69,357.57,108.45,356.53,108.21ZM350,106.87c.83.15,1.66.31,2.47.48Zm3.23.63c.88.19,1.76.37,2.63.57Zm10,2.36c-1.16-.31-2.31-.6-3.44-.88C361,109.27,362.13,109.56,363.26,109.86Zm9,2.62-1.81-.56Zm-2.85-.88-1.85-.55Zm13.81,4.78-1.06-.41Zm-2.43-.93-1.09-.41Zm-2.49-.92-1.2-.42Zm-2.55-.89c-.83-.29-1.66-.57-2.51-.84C374.05,113.07,374.89,113.35,375.71,113.64Zm9.91,3.71-1.14-.46Zm-254.13-8.84-2.2.43Zm-4.8,1-1.9.41Zm-4.89,1.13-1.33.32Zm23.83-4.35-1.89.24Zm-4.88.66-1.92.28Zm-4.66.74L134,108C134.68,107.91,135.39,107.8,136.09,107.68Zm14.44-1.94-1.71.17Zm38.28-11.45,0,0c.19-.3.36-.6.56-.88l.65-.95Zm34.18,6.9c-1.4.09-2.8.17-4.18.27C220.2,101.36,221.59,101.28,223,101.19Zm8.49-.44-4.34.21Zm8.71-.32-4.54.15Zm4.17-.11,2.09,0c1.66,0,3.31-.06,5-.08h0C249,100.22,246.69,100.27,244.36,100.32Zm10.14-.15c1.26,0,2.52,0,3.76,0-1.24,0-2.5,0-3.76,0ZM363.74,110c1,.26,1.92.53,2.87.8C365.65,110.51,364.69,110.25,363.74,110Zm23,7.82,1.2.5h0Z"/><path class="cls-4" d="M304.42,38.47c-3.6,13.15-9.31,23.91-14.75,28.84-2.56,2.32-5.06,3.36-7.26,2.76-6.86-1.88-8.14-19.07-2.86-38.39s12-25.81,18.86-23.94c3.56,1,6.46,4,7.7,9.39C307.25,22.13,307,29.16,304.42,38.47Z"/><path class="cls-5" d="M300.48,40.09c-2.81,9.4-7.06,17.09-11.07,20.81-.92-.5-1.86-1-2.8-1.45-2.27-1.12-4.6-2.15-7-3.09-.83-5.38,0-13.3,2.5-21.75,4.25-14.26,9.34-18.95,14.41-17.44h0C301.62,18.7,304.73,25.86,300.48,40.09Z"/><path class="cls-6" d="M300.48,40.09c-2.81,9.4-7.06,17.09-11.07,20.81-.92-.5-1.86-1-2.8-1.45,1.34-1.86,3.14-4.35,5.55-7.66,8.67-11.91,6.16-27.65,4.41-34.61C301.62,18.7,304.73,25.86,300.48,40.09Z"/><path class="cls-4" d="M206.37,38.47c3.59,13.15,9.3,23.91,14.75,28.84,2.56,2.32,5,3.36,7.25,2.76,6.86-1.88,8.15-19.07,2.86-38.39s-12-25.81-18.86-23.94c-3.56,1-6.46,4-7.69,9.39C203.53,22.13,203.82,29.16,206.37,38.47Z"/><path class="cls-5" d="M210.31,40.09c2.81,9.4,7.05,17.09,11.06,20.81.92-.5,1.86-1,2.8-1.45,2.28-1.12,4.6-2.15,7-3.09.82-5.38,0-13.3-2.5-21.75-4.26-14.26-9.35-18.95-14.42-17.44h0C209.16,18.7,206.05,25.86,210.31,40.09Z"/><path class="cls-6" d="M210.31,40.09c2.81,9.4,7.05,17.09,11.06,20.81.92-.5,1.86-1,2.8-1.45-1.34-1.86-3.13-4.35-5.55-7.66-8.67-11.91-6.15-27.65-4.41-34.61C209.16,18.7,206.05,25.86,210.31,40.09Z"/><path class="cls-7" d="M254,38.26s-.2-.95-.9-1h0c-.64.05-.89,1-.89,1L251,56.94h4.22Z"/><path class="cls-8" d="M357.46,123.83a.8.8,0,0,1-.13.45.51.51,0,0,1-.4.24c.83.91,1.43,1.58,1.62,1.81a.55.55,0,0,0,.17.13.34.34,0,0,0,.46-.11.54.54,0,0,0,.06-.36.72.72,0,0,0-.18-.37C358.52,125,358,124.43,357.46,123.83Z"/><path class="cls-9" d="M288.22,126.42a.79.79,0,0,1-.31.35.57.57,0,0,1-.47,0c.33,1.18.58,2,.65,2.34a.55.55,0,0,0,.09.19.34.34,0,0,0,.46.11.52.52,0,0,0,.21-.3.72.72,0,0,0,0-.41Z"/><path class="cls-10" d="M143.45,116.57a.79.79,0,0,1-.47,0,.54.54,0,0,1-.32-.34c-.72,1-1.25,1.71-1.44,2a.73.73,0,0,0-.1.19.35.35,0,0,0,.21.43.53.53,0,0,0,.37,0,.75.75,0,0,0,.31-.25Z"/><path class="cls-11" d="M210,125.34a.9.9,0,0,1-.44.14.55.55,0,0,1-.43-.2c-.3,1.19-.53,2-.61,2.34a.43.43,0,0,0,0,.22.33.33,0,0,0,.34.32.53.53,0,0,0,.34-.15.77.77,0,0,0,.2-.35C209.6,126.88,209.8,126.11,210,125.34Z"/><path class="cls-12" d="M287.63,127.33a255.75,255.75,0,0,0-78.62-1.2l7.81-24.55c11-.76,22.54-1.26,34.66-1.39,10-.1,19.72.06,29,.42Z"/><path class="cls-13" d="M142.4,116.63a202.95,202.95,0,0,1,66.61,9.5l7.81-24.55q-14.13.26-29.18,1.09c-12.53.72-24.58,1.73-36.11,3Z"/><path class="cls-13" d="M280.46,100.61l7.17,26.72a182.8,182.8,0,0,1,69.64-2.58l-17.19-19.48a143.78,143.78,0,0,0-59.62-4.66Z"/><path class="cls-14" d="M116.35,112l26.05,4.61,9.13-11c-5.5.52-11.45,1.29-17.77,2.44S121.66,110.58,116.35,112Z"/><path class="cls-14" d="M357.27,124.75a43,43,0,0,1,9.08-4.38,45.05,45.05,0,0,1,22.58-1.64,185.07,185.07,0,0,0-48.85-13.46Z"/><path class="cls-15" d="M219.77,57.41A190.37,190.37,0,0,0,182,105.06a206.11,206.11,0,0,0-65.66,7c15-14.23,28.4-25.83,39.27-34.85,8.56-7.12,14.67-11.88,23.93-13.94,6.23-1.38,9.95-.68,20.85-2.07A154.79,154.79,0,0,0,219.77,57.41Z"/><path class="cls-16" d="M284,57a145,145,0,0,1,38.91,46.81,184.79,184.79,0,0,1,66.07,14.92,454.66,454.66,0,0,0-41.29-40.56c-8-6.81-14.22-11.51-23.24-13.76-6.21-1.56-9.84-1-19.86-2.57A137.52,137.52,0,0,1,284,57Z"/><path class="cls-17" d="M315,63c.3,0,.74,0,1.32.06a44.28,44.28,0,0,1,5.06.59,43.54,43.54,0,0,1,7.78,2.1,38,38,0,0,1,4.61,2.06,50.42,50.42,0,0,1,4.81,3c1.63,1.12,3.3,2.36,5,3.68l1.28,1,1.31,1c.88.71,1.77,1.42,2.66,2.17,3.59,3,7.32,6.25,11.09,9.89.47.45.94.91,1.41,1.39l1.4,1.42,2.85,2.89,5.87,6,12.32,12.56L387,116c.31.32.85.85,1.56,1.6s1.16,1.26,1.5,1.64l-.65.59c-.33-.38-.84-1-1.48-1.62s-1.26-1.29-1.55-1.59l-3.15-3.21-12.3-12.59-5.84-6L362.22,92l-1.39-1.44c-.45-.47-.92-.93-1.38-1.38-3.73-3.65-7.42-7-11-10L345.86,77l-1.29-1c-.43-.35-.85-.69-1.28-1-1.68-1.34-3.33-2.59-4.93-3.73a51.53,51.53,0,0,0-4.73-3A37.25,37.25,0,0,0,329.09,66a45,45,0,0,0-7.7-2.23,46.26,46.26,0,0,0-5-.68q-.87-.08-1.32-.09l-.45,0Z"/><path class="cls-18" d="M118.38,109.86c5.93-5.31,9.18-8.31,13.5-12.24s8.4-7.6,12.28-11,7.53-6.54,10.92-9.34a115.22,115.22,0,0,1,9.44-7.2,50.85,50.85,0,0,1,7.81-4.39,40.72,40.72,0,0,1,5.31-2l1.42-.37.49-.12-.48.13c-.32.09-.8.21-1.42.4a42,42,0,0,0-5.27,2,52.15,52.15,0,0,0-7.71,4.5c-2.87,2-6,4.46-9.31,7.3s-7,6-10.8,9.46-7.91,7.18-12.18,11.12c-4.44,4.1-7.83,7.27-13.44,12.31l-2.31,2.07-.51-.68Z"/><path class="cls-19" d="M180.84,106.12l.55-1,.57-1,1.16-1.94c.38-.64.77-1.28,1.14-1.91l.57-.94.28-.48.3-.45,2.33-3.62.57-.88c.19-.29.37-.59.58-.87l1.17-1.7,2.3-3.3.58-.8.58-.77,1.15-1.54,1.13-1.51c.19-.24.37-.49.55-.74s.37-.49.56-.72l2.24-2.77c.73-.9,1.43-1.79,2.14-2.64s1.41-1.66,2.09-2.45c1.37-1.58,2.69-3,3.94-4.4,2.5-2.7,4.74-5,6.59-6.78s3.32-3.19,4.32-4.11l1.54-1.4-1.51,1.43c-1,.94-2.43,2.34-4.26,4.18s-4,4.13-6.47,6.87c-1.23,1.37-2.53,2.85-3.88,4.44-.67.8-1.36,1.62-2.06,2.47s-1.38,1.75-2.1,2.66l-2.2,2.79c-.19.24-.37.48-.55.73l-.54.75-1.11,1.51L194,86.78l-.57.79c-.2.26-.39.52-.57.79-.74,1.09-1.49,2.2-2.26,3.32l-1.16,1.7c-.2.28-.37.58-.56.88l-.57.88c-.75,1.19-1.51,2.4-2.29,3.62l-.29.46-.28.47-.55,1c-.38.63-.75,1.27-1.13,1.91l-1.14,1.94c-.27.46-.48.85-.56,1l-.55,1Z"/><path class="cls-20" d="M285.42,58.15c.95.76,2.35,1.88,4.11,3.39a144.18,144.18,0,0,1,14,13.72c2.76,3.1,5.64,6.61,8.52,10.55.36.49.73,1,1.09,1.49s.72,1,1.08,1.53l.54.78.53.79L316.38,92c1.41,2.18,2.84,4.45,4.2,6.83.18.29.35.59.52.89l.51.9,1,1.83c.25.46.59,1.09,1,1.87l-.64.48-.15-.3c-.49-.93-.72-1.4-.88-1.68-.34-.61-.67-1.22-1-1.83l-.5-.9-.51-.9c-1.34-2.37-2.74-4.64-4.13-6.82l-1.05-1.61-.52-.8-.54-.78c-.35-.51-.71-1-1.05-1.54l-1.07-1.49c-2.83-4-5.66-7.49-8.37-10.61a148.48,148.48,0,0,0-13.77-13.91c-1.73-1.53-3.11-2.68-4.05-3.46L284,57Z"/><path class="cls-21" d="M182.28,105.11a.88.88,0,0,1-.46,0,.53.53,0,0,1-.34-.23c-.6,1-1,1.82-1.17,2.08a.53.53,0,0,0-.07.21.34.34,0,0,0,.26.39.53.53,0,0,0,.36-.07.73.73,0,0,0,.28-.3Z"/><path class="cls-22" d="M117.54,111.79a1,1,0,0,1-.45-.15.64.64,0,0,1-.25-.44c-.91.84-1.58,1.44-1.81,1.64a.43.43,0,0,0-.14.17.38.38,0,0,0,.12.49.51.51,0,0,0,.37.07.64.64,0,0,0,.36-.17Z"/><path class="cls-23" d="M323.06,103.2a.83.83,0,0,1-.22.41.54.54,0,0,1-.45.14c.6,1.08,1,1.86,1.17,2.13a.53.53,0,0,0,.14.17.35.35,0,0,0,.47,0,.58.58,0,0,0,.14-.35.69.69,0,0,0-.1-.39C323.83,104.6,323.44,103.9,323.06,103.2Z"/><path class="cls-24" d="M388.61,117.73a.89.89,0,0,1-.13.45.6.6,0,0,1-.41.25c.82.91,1.42,1.57,1.62,1.81a.6.6,0,0,0,.17.13.36.36,0,0,0,.47-.11.56.56,0,0,0,.06-.37.72.72,0,0,0-.18-.36Z"/><path class="cls-25" d="M254,192.81a4.54,4.54,0,0,0,1.9-.09v1.11a5.83,5.83,0,0,0-1.9,0Z"/><polygon class="cls-25" points="253.79 189.75 254.9 189.75 255.84 190.68 253.79 190.68 253.79 189.75"/><path class="cls-25" d="M256.54,193.3c0,.49-.22.84-.48.84s-.49-.4-.49-.84.22-.84.49-.84S256.54,192.86,256.54,193.3Z"/><path class="cls-26" d="M250.25,201.81a15.9,15.9,0,0,1,5.54,0A13.14,13.14,0,0,1,250.25,201.81Z"/><rect class="cls-7" x="251.4" y="97.27" width="3.1" height="109.64"/><path class="cls-27" d="M255.79,206v-4.21a17.34,17.34,0,0,1-5.54,0V206A8.86,8.86,0,0,0,255.79,206Z"/><path class="cls-28" d="M250.26,206v21.73a10.4,10.4,0,1,1-19.15-5.59,2.76,2.76,0,0,0-4.66-3,16,16,0,0,0-2.52,8.6,15.92,15.92,0,1,0,31.83,0V206A9,9,0,0,1,250.26,206Z"/><path class="cls-29" d="M182,105.06a585.92,585.92,0,0,1,140.85-1.25,208.91,208.91,0,0,0-22.42-32.1c-9.59-11.27-14.36-14.35-19.57-15.83a53.1,53.1,0,0,0-18.17-1.43c-4.34.4-6.58,1.17-11.64,1S244.5,54.27,240,53.84a45.14,45.14,0,0,0-15.23,1.47c-7.66,2.33-12.44,7.63-17.58,13.93A313.05,313.05,0,0,0,182,105.06Z"/><circle class="cls-30" cx="232.56" cy="69.59" r="4.53" transform="translate(125.84 287.61) rotate(-80.58)"/><path class="cls-2" d="M234.71,67.92a1.43,1.43,0,1,1-1.43-1.44A1.43,1.43,0,0,1,234.71,67.92Z"/><path class="cls-2" d="M235.66,71.26a.48.48,0,1,1-.47-.48A.48.48,0,0,1,235.66,71.26Z"/><circle class="cls-30" cx="275.99" cy="69.59" r="4.53" transform="matrix(0.16, -0.99, 0.99, 0.16, 162.15, 330.46)"/><path class="cls-2" d="M278.14,67.92a1.43,1.43,0,1,1-1.43-1.44A1.43,1.43,0,0,1,278.14,67.92Z"/><path class="cls-2" d="M279.09,71.26a.48.48,0,1,1-.47-.48A.48.48,0,0,1,279.09,71.26Z"/><path class="cls-30" d="M252.43,77.45c.89,1.7,0,6.72,0,6.72s-4.09-2.45-5-4.16-.49-3.66.87-4.37S251.55,75.74,252.43,77.45Z"/><path class="cls-30" d="M257.7,79.94c-.81,1.74-5.29,4.14-5.29,4.14s-.57-4.74.24-6.48,2.59-2.64,4-2S258.51,78.19,257.7,79.94Z"/><path class="cls-30" d="M290.36,79.34a31.6,31.6,0,0,0-3.91-.44,34.69,34.69,0,0,0-3.95,0,26.77,26.77,0,0,0-3.9.58,17.72,17.72,0,0,0-3.68,1.38h0a.24.24,0,0,1-.32-.11.25.25,0,0,1,.1-.32,17.56,17.56,0,0,1,3.76-1.53,25.67,25.67,0,0,1,4-.72,34,34,0,0,1,4-.14,34.56,34.56,0,0,1,4,.34.47.47,0,0,1,.4.54.48.48,0,0,1-.54.41h0Z"/><path class="cls-30" d="M288.63,86a29,29,0,0,0-6.29-1.87,21,21,0,0,0-3.26-.29,14.66,14.66,0,0,0-3.24.4h0a.24.24,0,0,1-.29-.18.25.25,0,0,1,.16-.29,14.8,14.8,0,0,1,3.36-.53,22.52,22.52,0,0,1,3.39.17,30.94,30.94,0,0,1,3.32.66,27.17,27.17,0,0,1,3.24,1,.48.48,0,0,1-.35.89h0Z"/><path class="cls-30" d="M218.58,80.2a32.9,32.9,0,0,1,4-.71,36.36,36.36,0,0,1,4-.25,27.43,27.43,0,0,1,4,.35,17.78,17.78,0,0,1,3.89,1.17.25.25,0,0,1,.12.32.23.23,0,0,1-.31.12h0a17.06,17.06,0,0,0-3.78-1,26,26,0,0,0-3.94-.21,32.59,32.59,0,0,0-3.94.36,30.55,30.55,0,0,0-3.85.8h0a.48.48,0,1,1-.26-.92Z"/><path class="cls-30" d="M220.72,86.74a27.61,27.61,0,0,1,3.13-1.35,30.18,30.18,0,0,1,3.24-1,23.87,23.87,0,0,1,3.36-.49,15.43,15.43,0,0,1,3.39.22.25.25,0,0,1,.2.28.26.26,0,0,1-.27.2h0a14.3,14.3,0,0,0-3.27-.09,20.94,20.94,0,0,0-3.22.59,28,28,0,0,0-6.08,2.45h0a.48.48,0,0,1-.65-.18.49.49,0,0,1,.19-.65Z"/><circle class="cls-31" cx="241.68" cy="83.44" r="3.78"/><path class="cls-31" d="M269.84,83.46a3.78,3.78,0,1,1-3.78-3.78A3.79,3.79,0,0,1,269.84,83.46Z"/><path class="cls-32" d="M250.47,89.34s-1.23,4.16.73,4.53,1.72-2.57,1.72-2.57.28,3.13,2.2,2.69c1.59-.37.24-4.41.24-4.41Z"/><path class="cls-30" d="M247.25,85.87c.16.18.37.42.58.62a5.83,5.83,0,0,0,.66.55,6.16,6.16,0,0,0,1.44.84,8.15,8.15,0,0,0,3.27.59,11.48,11.48,0,0,0,3.42-.53,8.05,8.05,0,0,0,1.56-.69,6.07,6.07,0,0,0,.73-.47c.23-.16.47-.38.65-.52l.12-.1a.62.62,0,0,1,1,.72,4.76,4.76,0,0,1-.58,1,6.54,6.54,0,0,1-.74.84A7.5,7.5,0,0,1,257.5,90a9.61,9.61,0,0,1-4.28,1,8.07,8.07,0,0,1-4.35-1.13,6.65,6.65,0,0,1-1.72-1.49,7.34,7.34,0,0,1-.63-.94,5.2,5.2,0,0,1-.44-1.07.64.64,0,0,1,.44-.78.63.63,0,0,1,.64.18Z"/></svg>