<svg id="Layer_54" data-name="Layer 54" xmlns="http://www.w3.org/2000/svg" viewBox="0 0 256 256"><defs><style>.cls-1{opacity:0.5;}.cls-2{fill:#fff;}.cls-3{fill:#d75819;}.cls-4{fill:#912600;}</style></defs><path class="cls-1" d="M130.5,229.77a99.29,99.29,0,1,1,70.19-29.08A98.62,98.62,0,0,1,130.5,229.77Z"/><path class="cls-2" d="M125.5,224.77A99.26,99.26,0,0,1,55.31,55.31,99.26,99.26,0,1,1,195.69,195.69,98.62,98.62,0,0,1,125.5,224.77Z"/><circle class="cls-3" cx="125.5" cy="125.5" r="92.86"/><path class="cls-2" d="M189.56,58.68c-1.92,4.58-8.51,18.63-26.16,41.31-.7.9-1.35,1.8-2,2.66-.24.29-.45.61-.65.9-.41.53-.82,1.11-1.23,1.68-.25.33-.45.7-.7,1l-1,1.52c-.24.33-.45.69-.7,1.06s-.61.94-.9,1.39a9.52,9.52,0,0,0-.65,1.07c-.29.45-.57.9-.82,1.35s-.41.7-.61,1.06-.5.86-.74,1.27-.37.7-.57,1.07-.45.9-.66,1.23a10.59,10.59,0,0,0-.53,1c-.21.41-.41.82-.57,1.19s-.29.69-.45,1l-.54,1.15c-.12.32-.24.61-.41,1s-.28.74-.45,1.11l-.37.94c-.12.32-.28.77-.4,1.06a8.28,8.28,0,0,0-.33.9c-.13.37-.29.78-.37,1.07s-.21.57-.29.86l-.32,1c-.09.29-.17.53-.25.82s-.21.69-.29,1-.12.53-.2.78l-.25,1c0,.25-.12.45-.16.7s-.12.65-.21,1l-.12.62c0,.36-.12.69-.16,1a2.11,2.11,0,0,1-.08.53c-.09.49-.17,1-.21,1.43v.05c-.08.49-.12.94-.16,1.39a1.14,1.14,0,0,0,0,.37,6.69,6.69,0,0,0-.09.9,1.54,1.54,0,0,0,0,.45c0,.24,0,.49,0,.73v1.11l0,.45v1.51a1.14,1.14,0,0,0,0,.37,2.07,2.07,0,0,1,0,.49v.25c-5.15.25-10.72.37-16.66.41V33.05c-.91,0-1.83,0-2.74,0L124,33V147c-5.93,0-11.46-.16-16.66-.41v-.25a1.61,1.61,0,0,1,0-.45,1.09,1.09,0,0,0,0-.36v-3.12c0-.24,0-.49,0-.73a1.54,1.54,0,0,0,0-.45c0-.29,0-.62-.08-.9a1.14,1.14,0,0,0,0-.37c0-.45-.09-.9-.17-1.39v-.05c0-.45-.12-.94-.2-1.43,0-.16,0-.33-.08-.53s-.13-.66-.17-1l-.12-.62c-.08-.33-.12-.65-.21-1s-.12-.45-.16-.7l-.24-1c0-.25-.13-.49-.21-.78a10.08,10.08,0,0,0-.29-1c-.08-.29-.16-.53-.24-.82a9.32,9.32,0,0,0-.33-1c-.12-.33-.2-.58-.29-.86s-.24-.7-.36-1.07-.21-.61-.33-.9-.25-.74-.41-1.1l-.37-1c-.16-.36-.29-.73-.45-1.1s-.29-.66-.41-1-.33-.78-.49-1.15-.33-.66-.45-1a30.77,30.77,0,0,0-1.11-2.21c-.2-.33-.41-.82-.65-1.23s-.37-.7-.57-1.07-.45-.86-.7-1.27-.41-.69-.61-1.06-.54-.9-.82-1.35a9.58,9.58,0,0,0-.66-1.07c-.29-.45-.57-.94-.9-1.39s-.45-.74-.7-1.06c-.32-.49-.65-1-1-1.52-.24-.33-.45-.69-.69-1-.41-.57-.82-1.15-1.23-1.68-.21-.29-.41-.61-.66-.9-.65-.86-1.31-1.76-2-2.66C70.09,75.55,63.83,61.18,62.48,57.7l-3.32,3.19c2.38,5.53,9.25,19.49,26.45,41.56,17,21.94,17.85,38.15,17.44,43.89-59.45-3.4-69.68-19.62-69.8-19.82l-.61.32c0,1.84.09,3.66.22,5.47,6.48,5.61,24.26,15.66,69.82,18.28-.24,7.33-3.35,39.55-39.59,43.15l.08,1c1.09,1,2.21,2,3.34,2.89,36.21-5.38,40-38.77,40.39-46.8,5.32.25,11,.37,17.07.41v67.5l1.52,0c.93,0,1.86,0,2.78-.05V151.21q9.09-.06,17.07-.41c.37,7.94,4.09,40.78,39.33,46.62q2.16-1.8,4.22-3.72c-36-3.76-39.08-35.82-39.33-43.15,42.72-2.45,61-11.46,68.48-17.19.16-2,.25-4,.28-6-2.94,3.35-17.44,16-69.13,19-.41-5.74.37-22,17.44-43.89,16.34-21,23.38-34.64,26-40.66"/><path class="cls-4" d="M125.5,218.77a93.28,93.28,0,1,1,65.95-27.32A92.7,92.7,0,0,1,125.5,218.77Zm0-185.72A92.45,92.45,0,1,0,218,125.5,92.55,92.55,0,0,0,125.5,33.05Z"/></svg>