<svg id="Layer_54" data-name="Layer 54" xmlns="http://www.w3.org/2000/svg" viewBox="0 0 256 256"><defs><style>.cls-1{opacity:0.5;}.cls-2{fill:#fff;}.cls-3{fill:#3f3f3f;}.cls-4{fill:#7f7f7f;}.cls-5{fill:#7c7c7c;}.cls-6{fill:#818181;}.cls-7{fill:#b9b9b9;}.cls-8{fill:#bebebe;}.cls-9{fill:#c1c1c1;}.cls-10{fill:#633702;}.cls-11{fill:#d75b05;}.cls-12{fill:#fe8800;}.cls-13{fill:#feba00;}.cls-14{fill:#d84400;}.cls-15{fill:#d94800;}.cls-16{fill:#d74300;}.cls-17{fill:#fe8b00;}.cls-18{fill:#de7401;}</style></defs><path class="cls-1" d="M69,233.46a26.7,26.7,0,0,1-8.55-1.41l-.61,1.13L54,229l-7.21-5.12.79-.93a27.21,27.21,0,0,1-4.1-7.61,6.54,6.54,0,0,1,.91-6.14l67.42-94.68a54.21,54.21,0,0,1-3.23-6.36,56.16,56.16,0,0,1-3.91-31.31,55.31,55.31,0,0,1,5.76-17.24l.19-.36a22.45,22.45,0,0,1,1.17-2,64,64,0,0,1,3.75-6,56.87,56.87,0,0,1,12.33-12.58,56.19,56.19,0,0,1,22.93-10.07,57.89,57.89,0,0,1,10.83-1,56.23,56.23,0,0,1,18.83,3.29,56.42,56.42,0,0,1,36.84,61.3A55.61,55.61,0,0,1,212.05,109c-.27.55-.56,1.1-.85,1.64l-1.88,3.42-1.09,1.54-4.81,6.13-.63.73a33.06,33.06,0,0,1-3,3.23A55.5,55.5,0,0,1,181,138a56.37,56.37,0,0,1-20.73,4,58.36,58.36,0,0,1-8.09-.58c-1.07-.15-2.15-.33-3.26-.56l-.43.61q-10.61,14.88-21.19,29.77a7,7,0,0,1-5.44,3l-2.36.14c0,.2.21,4.92.21,4.92a6.94,6.94,0,0,1-1.29,4.39q-4.2,5.88-8.37,11.76a7.56,7.56,0,0,1-2.51,2.23l-9.75,5.39c.13,1.23.58,5.81.58,5.81a6.7,6.7,0,0,1-1.21,4.68c-.71,1-1.42,2-2.13,3-1.48,2.08-3,4.24-4.59,6.35a25.75,25.75,0,0,1-15.81,9.92A27.26,27.26,0,0,1,69,233.46Z"/><path class="cls-2" d="M64,228.46a26.7,26.7,0,0,1-8.55-1.41l-.61,1.13L49,224l-7.21-5.12.79-.93a27.21,27.21,0,0,1-4.1-7.61,6.54,6.54,0,0,1,.91-6.14l67.42-94.68a54.21,54.21,0,0,1-3.23-6.36,56.16,56.16,0,0,1-3.91-31.31,55.31,55.31,0,0,1,5.76-17.24l.19-.36a22.45,22.45,0,0,1,1.17-2,64,64,0,0,1,3.75-6,56.87,56.87,0,0,1,12.33-12.58,56.19,56.19,0,0,1,22.93-10.07,57.89,57.89,0,0,1,10.83-1,56.23,56.23,0,0,1,18.83,3.29,56.42,56.42,0,0,1,36.84,61.3A55.61,55.61,0,0,1,207.05,104c-.27.55-.56,1.1-.85,1.64l-1.88,3.42-1.09,1.54-4.81,6.13-.63.73a33.06,33.06,0,0,1-3,3.23A55.5,55.5,0,0,1,176,133a56.37,56.37,0,0,1-20.73,4,58.36,58.36,0,0,1-8.09-.58c-1.07-.15-2.15-.33-3.26-.56l-.43.61q-10.61,14.88-21.19,29.77a7,7,0,0,1-5.44,3l-2.36.14c0,.2.21,4.92.21,4.92a6.94,6.94,0,0,1-1.29,4.39q-4.2,5.88-8.37,11.76a7.56,7.56,0,0,1-2.51,2.23l-9.75,5.39c.13,1.23.58,5.81.58,5.81a6.7,6.7,0,0,1-1.21,4.68c-.71,1-1.42,2-2.13,3-1.48,2.08-3,4.24-4.59,6.35a25.75,25.75,0,0,1-15.81,9.92A27.26,27.26,0,0,1,64,228.46Z"/><path class="cls-3" d="M198.37,107.07l-1.67,2.35a.1.1,0,0,1-.09-.12,10.56,10.56,0,0,1,1.11-1.7,1.58,1.58,0,0,1,.51-.58A.1.1,0,0,1,198.37,107.07Z"/><path class="cls-4" d="M52.47,219.08,51,218a.1.1,0,0,1,.11-.09,4.16,4.16,0,0,1,1.43,1A.1.1,0,0,1,52.47,219.08Z"/><path class="cls-5" d="M198.37,107.07a.12.12,0,0,0-.05,0,.47.47,0,0,1,.28-.5.1.1,0,0,1,.13,0Z"/><path class="cls-6" d="M196.63,109.38l.07,0-.36.5a.09.09,0,0,1-.09-.1A.49.49,0,0,1,196.63,109.38Z"/><path class="cls-7" d="M198.73,106.57l0,0,0,0a.35.35,0,0,1,.3-.43s0,0,.05,0Z"/><path class="cls-8" d="M196.28,109.88l.06,0-.25.36h0l0,0A.28.28,0,0,1,196.28,109.88Z"/><path class="cls-9" d="M51,218l0,.06-.36-.25a.16.16,0,0,0,0-.07A.29.29,0,0,1,51,218Z"/><path class="cls-8" d="M52.47,219.08l0-.06a.28.28,0,0,1,.36.25l0,.06Z"/><path class="cls-10" d="M200.45,54.28a50.45,50.45,0,0,0-74-15.8,50.27,50.27,0,0,0-11,11.25,58.3,58.3,0,0,0-3.52,5.63,41.69,41.69,0,0,0-3.56,8.23c-.15.45-.28.9-.42,1.36a53.88,53.88,0,0,0-1.66,8.35,51.44,51.44,0,0,0,.21,13.12,48.62,48.62,0,0,0,1.21,5.73,49.28,49.28,0,0,0,3.71,9.7,47,47,0,0,0,3.44,5.79.54.54,0,0,1,0,.74c-.24.3-.45.62-.67.92a.64.64,0,0,0-.1.33c-.1.16-.2.32-.31.47L66.17,176.92Q55.24,192.3,44.29,207.65a.65.65,0,0,0-.15.67,21,21,0,0,0,6.51,9.37L51,218l1.5,1.07.36.25c.56.31,1.1.65,1.68.93A21.14,21.14,0,0,0,68.4,222a20,20,0,0,0,12.23-7.67c2.28-3,4.42-6.17,6.63-9.25a.78.78,0,0,0,.11-.57q-.47-4.68-.94-9.35a.49.49,0,0,1,.29-.58l12.89-7.12a1.53,1.53,0,0,0,.52-.46l8.37-11.76a.93.93,0,0,0,.19-.64c-.15-3.45-.29-6.9-.45-10.35,0-.34,0-.47.41-.49,2.62-.15,5.23-.33,7.85-.48a1,1,0,0,0,.88-.5q11.82-16.64,23.68-33.26c.1-.15.21-.28.31-.42a1.21,1.21,0,0,0,.39-.39,9.51,9.51,0,0,1,.77-1,.64.64,0,0,1,.51,0,56.21,56.21,0,0,0,7,1.39,50.57,50.57,0,0,0,12.95,0,49.78,49.78,0,0,0,6.93-1.41,50.82,50.82,0,0,0,10.29-4.11A53.92,53.92,0,0,0,186,120c1-.7,1.92-1.43,2.84-2.19a39.14,39.14,0,0,0,4.34-4.2c1-1.1,1.94-2.24,2.87-3.39l.25-.36.35-.5,1.69-2.36.36-.5.3-.43a50.08,50.08,0,0,0,7.39-19.8A50,50,0,0,0,200.45,54.28Zm-18.59,14.2c-.15.43-.41.8-.58,1.22a14.16,14.16,0,0,1-9,6.41,14.87,14.87,0,0,1-18.16-16.75A14.16,14.16,0,0,1,157,52.62a13.71,13.71,0,0,1,7-3.92,15.16,15.16,0,0,1,18.15,10.66A14.88,14.88,0,0,1,181.86,68.48Z"/><path class="cls-11" d="M111.91,55.36c-.4.83-.81,1.67-1.21,2.51a52.4,52.4,0,0,0-2.27,5.8A6.67,6.67,0,0,0,108,65a58.54,58.54,0,0,0-2,8.55,50.69,50.69,0,0,0-.39,10.73,51.47,51.47,0,0,0,.62,5.12,50.3,50.3,0,0,0,3.15,10.67,49.13,49.13,0,0,0,4.8,8.81.53.53,0,0,1,.14.4l-.23.32a47.17,47.17,0,0,1-5-8.85,50.18,50.18,0,0,1-3.5-28,49.17,49.17,0,0,1,5.14-15.37A19.57,19.57,0,0,1,111.91,55.36Z"/><path class="cls-11" d="M185.86,120a58.09,58.09,0,0,0,4.71-3.85c.81-.75,1.6-1.52,2.36-2.32.07-.07.12-.17.23-.18a26.07,26.07,0,0,1-2.56,2.8,49.57,49.57,0,0,1-16.83,11,50.12,50.12,0,0,1-25.79,3,51.8,51.8,0,0,1-6.61-1.4,7.87,7.87,0,0,1,1.2-1.6c0,.38-.31.61-.5.89s-.19.34.15.43a50.11,50.11,0,0,0,23.08.67,48.61,48.61,0,0,0,8.89-2.74,49.88,49.88,0,0,0,7.94-4.14c1.22-.78,2.4-1.61,3.56-2.45C185.76,120.12,185.84,120.07,185.86,120Z"/><path class="cls-12" d="M130.23,122.07a52.17,52.17,0,0,0,10.69,4.9c.27.09.71.08.78.3s-.28.51-.46.75Q129.11,145.09,117,162.14a.91.91,0,0,1-.78.43l-8.25.52c-.36,0-.48.09-.46.5.17,3.62.31,7.25.47,10.87a.84.84,0,0,1-.17.57q-4.08,5.72-8.14,11.44A1.57,1.57,0,0,1,99,187l-13.1,7.25a.46.46,0,0,0-.27.54l1,9.61a.79.79,0,0,1-.09.54c-2.14,3-4.16,6.07-6.44,9-4.8,6.08-11.15,8.54-18.82,7.68a9.19,9.19,0,0,1-1.63-.31.59.59,0,0,1,.15-.44c.09-.15.2-.29.3-.43l69.47-97.56C129.74,122.52,129.88,122.18,130.23,122.07Z"/><path class="cls-13" d="M58.83,221a19.05,19.05,0,0,1-6.2-2.78c-.48-.32-.93-.69-1.4-1a.58.58,0,0,1,.14-.45c.1-.16.21-.31.32-.46l70.46-99c.2-.28.33-.63.71-.74.86.71,1.71,1.44,2.59,2.13,1.24,1,2.53,1.86,3.84,2.73.3.11.32.3.17.55a4.76,4.76,0,0,1-.31.47L59.43,220.41C59.26,220.64,59.14,220.92,58.83,221Z"/><path class="cls-13" d="M48.34,214.34a20,20,0,0,1-3.41-6,.38.38,0,0,1,.06-.41,2.27,2.27,0,0,0,.18-.25q35.08-49.26,70.16-98.54a.61.61,0,0,0,.1-.14c.17-.33.31-.29.51,0a47.17,47.17,0,0,0,4.12,4.91.8.8,0,0,1-.18.49l-.3.43L49.19,213.66a3.76,3.76,0,0,1-.45.6C48.64,214.36,48.52,214.51,48.34,214.34Z"/><path class="cls-12" d="M120.49,114.35l2.1,2a.77.77,0,0,1-.18.48l-.33.47L51.72,216.14a4.91,4.91,0,0,1-.47.63c-.15.18-.32.26-.5,0a13.57,13.57,0,0,1-2-2,.64.64,0,0,1,.15-.44c.1-.16.22-.31.33-.47L119.61,115a4.19,4.19,0,0,1,.45-.59C120.18,114.31,120.31,114.15,120.49,114.35Z"/><path class="cls-14" d="M58.83,221l70.39-98.88c.14-.2.46-.4.07-.67a5.16,5.16,0,0,1,.94.6l-.31.43Q95,171.59,60,220.71l-.36.5A3.19,3.19,0,0,1,58.83,221Z"/><path class="cls-15" d="M120.49,114.35c-.1,0-.2,0-.27.06s-.14.19-.2.29L48.94,214.52l-.2.28a1.48,1.48,0,0,1-.4-.46.21.21,0,0,0,.27-.08l.25-.36q35.43-49.76,70.85-99.5l.35-.51Z"/><path class="cls-16" d="M50.75,216.8c.16.1.29.1.4-.09s.15-.21.22-.32l70.81-99.45c.13-.19.28-.37.41-.56l.27.23-.28.39L51.51,216.82l-.28.39C51.06,217.08,50.86,217,50.75,216.8Z"/><path class="cls-17" d="M114.29,109.31a46.52,46.52,0,0,1-3.52-5.87,49.34,49.34,0,0,1-3.41-8.63,48.11,48.11,0,0,1-1.5-6.81,50.09,50.09,0,0,1,2-22.79.93.93,0,0,1,.1-.2c0-.09.06-.07.11,0A50.59,50.59,0,0,0,115,107.61a.58.58,0,0,1,0,.83C114.7,108.71,114.51,109,114.29,109.31Z"/><path class="cls-17" d="M185.86,120c.06.2-.13.23-.24.31a49.18,49.18,0,0,1-8,5,50.07,50.07,0,0,1-16.06,4.93,45,45,0,0,1-6.25.42,49.16,49.16,0,0,1-8-.61A52.52,52.52,0,0,1,142,128.9c-.25-.07-.34-.15-.15-.4s.48-.66.71-1c1.62.39,3.24.82,4.88,1.1a50.42,50.42,0,0,0,31.85-4.67A51.94,51.94,0,0,0,185.86,120Z"/><path class="cls-18" d="M108,65l-.11,0a2.82,2.82,0,0,1,.51-1.34Z"/><path class="cls-11" d="M139.19,103.3l-11-7.82a4.44,4.44,0,0,1-1.38-5.63,4.49,4.49,0,0,1,6.6-1.61l21.87,15.58a4.46,4.46,0,0,1-4.19,7.8,4.42,4.42,0,0,1-1-.51Q144.69,107.2,139.19,103.3Z"/><path class="cls-13" d="M185.5,38.62a49.71,49.71,0,1,0,10.89,69.95A49.69,49.69,0,0,0,185.5,38.62Zm-3.64,29.86c-.15.43-.41.8-.58,1.22a14.16,14.16,0,0,1-9,6.41,14.87,14.87,0,0,1-18.16-16.75A14.16,14.16,0,0,1,157,52.62a13.71,13.71,0,0,1,7-3.92,15.16,15.16,0,0,1,18.15,10.66A14.88,14.88,0,0,1,181.86,68.48Z"/><path class="cls-2" d="M182.58,59.2a15,15,0,0,0-8.1-9.47,15.77,15.77,0,0,0-6.89-1.6,16.7,16.7,0,0,0-3.76.44,14.7,14.7,0,0,0-7.37,4l-.12.13-.1.13a14.06,14.06,0,0,0-3.07,6.83,14.58,14.58,0,0,0,3.52,12A15.69,15.69,0,0,0,172,76.52,15,15,0,0,0,181.43,70l.19-.3.11-.27.05-.08a7.37,7.37,0,0,0,.5-1.09A14.47,14.47,0,0,0,182.58,59.2Zm-5.69,6.14a5,5,0,0,1-.31.67l0,.06-.07.16-.12.19a9.3,9.3,0,0,1-5.82,4,10.27,10.27,0,0,1-2.27.26A9.67,9.67,0,0,1,161,67.45,9,9,0,0,1,158.83,60a8.78,8.78,0,0,1,1.91-4.24l.06-.08.07-.07a9.18,9.18,0,0,1,4.57-2.52,10.42,10.42,0,0,1,2.33-.27,9.73,9.73,0,0,1,4.28,1,9.33,9.33,0,0,1,5,5.87A9,9,0,0,1,176.89,65.34Z"/><path class="cls-17" d="M159.17,50.35a13.89,13.89,0,0,1,6.54-3.24A14.65,14.65,0,0,1,178,49.91a15,15,0,0,1,4.67,17.23l-.1.19c-.21-.1-.12-.28-.08-.42a15.1,15.1,0,0,0,0-7,15.28,15.28,0,0,0-11.4-11.41,15.08,15.08,0,0,0-11.34,1.75,1.45,1.45,0,0,1-.51.26C159,50.55,159,50.45,159.17,50.35Z"/><path class="cls-11" d="M159.17,50.35a.06.06,0,0,0,0,0,.22.22,0,0,0,0,.08c.25-.16.51-.33.77-.47a15.68,15.68,0,0,1,6.16-1.92,15.14,15.14,0,0,1,8.14,1.44,15.46,15.46,0,0,1,8.35,17.39c0,.14-.11.27,0,.42a9.37,9.37,0,0,1-1.28,2.37,17.06,17.06,0,0,0,1.07-3.5c.88-5.68-.72-10.51-5.11-14.26a15,15,0,0,0-20,.56l-.18.12A10.48,10.48,0,0,1,159.17,50.35Z"/><path class="cls-17" d="M144.15,96.4c3.66,2.6,7.3,5.23,11,7.8a4.06,4.06,0,0,1-4.3,6.87c-.28-.16-.55-.32-.81-.5L128.54,95.28a4.07,4.07,0,0,1-1.46-5,4,4,0,0,1,6-1.77Z"/></svg>