<svg id="Layer_54" data-name="Layer 54" xmlns="http://www.w3.org/2000/svg" viewBox="0 0 512 256"><defs><style>.cls-1{opacity:0.5;}.cls-2{fill:#fff;}.cls-3{fill:none;stroke:#282828;stroke-miterlimit:10;stroke-width:2px;}.cls-4{fill:#747474;}.cls-5{fill:#525250;}.cls-6{fill:#5e5e5e;}.cls-7{fill:#3a3a3a;}.cls-8{fill:#2d2d2d;}.cls-9{fill:#474546;}.cls-10{fill:#8c8c8c;}.cls-11{fill:#5c5c5c;}.cls-12{fill:#3c1615;}.cls-13{fill:#fe9498;}.cls-14{fill:#dc7272;}.cls-15{fill:#323031;}.cls-16{fill:#595a5c;}.cls-17{fill:#421c1b;}.cls-18{fill:#050102;}.cls-19{fill:#323232;}</style></defs><path class="cls-1" d="M285.3,211.65a41.45,41.45,0,0,1-14.87-2.7c-5.12-2-6.63-4.78-5.39-10.06.35-1.45.75-2.84,1.14-4.19a46,46,0,0,0,1.42-5.86c.38-2.57.17-4.32-.71-5.86-.74-1.29-1.57-2.55-2.45-3.88-.57-.87-1.14-1.74-1.69-2.62l-2.08-2.65c-1.87.41-3.72.7-5.53,1-1.36.22-2.64.43-3.92.68-.87.17-1.66.32-2.29.51-.05.21-.13.57-.22,1.19-.1.78-.16,1.63-.22,2.53s-.14,2-.28,3.07c-.57,4.31-1.64,6.47-6.5,7.9a37.29,37.29,0,0,1-10.46,1.55,34.26,34.26,0,0,1-15.88-4,6.49,6.49,0,0,1-.72-.43,26.13,26.13,0,0,1-8.74-7.14,7.51,7.51,0,0,1-1-1.72,6.22,6.22,0,0,1,.47-7l1.26-1.82c.89-1.29,1.8-2.63,2.75-4a3.64,3.64,0,0,0,.8-1.54,24.06,24.06,0,0,1,1.43-4.65,16.19,16.19,0,0,1-2.33.94,13.61,13.61,0,0,1-4.07.65,12,12,0,0,1-9.55-4.83,18.77,18.77,0,0,1-1.91-3c-1.37.12-2.78.2-4.23.2-.62,0-1.25,0-1.87,0-5.62-.32-10.78-2.07-15.57-3.85-.75-.27-1.43-.57-2.09-.86l-.58-.25a61.52,61.52,0,0,1-7.07-2.9l-5.67-2.3-.15,0a9.58,9.58,0,0,1-1.74-.74L150,141.39a72.26,72.26,0,0,0-10.21-.75,53.07,53.07,0,0,0-16.52,2.48c-.51.26-1,.49-1.44.7a12.6,12.6,0,0,0-1.59.83,10.33,10.33,0,0,1-5,5.42l-.18.08-.18.07a8.39,8.39,0,0,1-3.06.57,8.5,8.5,0,0,1-6.76-3.33,5.87,5.87,0,0,1-1.17-4,18.36,18.36,0,0,1-3.09-2.94,7,7,0,0,1,3.38-11.62,14.38,14.38,0,0,1,4.4-.79,10,10,0,0,1,2.7.37c4.91-3.38,9.11-6.06,13.11-8.36l.23-.14a42.29,42.29,0,0,1,6-3,18.89,18.89,0,0,1,9-2,36.65,36.65,0,0,1,4.35.28c3.48.4,6.86,1.07,10.14,1.72,2.64.53,5.15,1,7.68,1.39a41.86,41.86,0,0,0,5.71.54,12.42,12.42,0,0,0,3.66-.49,6.17,6.17,0,0,0,1.28-.62c0-.13.15-.77.15-.77a85.44,85.44,0,0,1,5.15-16.16,7.53,7.53,0,0,1,.58-1.09,30.59,30.59,0,0,1,4.15-7.13,17.26,17.26,0,0,1,4.2-4.51,12.21,12.21,0,0,1,3.3-2.23,38.61,38.61,0,0,1,4.88-8.54,14.49,14.49,0,0,1,3.4-4,4.89,4.89,0,0,0,1.36-2.58,23.5,23.5,0,0,1,4-7.63c3.53-4.48,7.45-5.42,10.12-5.42a13.93,13.93,0,0,1,8.08,2.82,32.84,32.84,0,0,1,7.48,7.61l0,0a48,48,0,0,1,6.16,2.8,22.59,22.59,0,0,1,11.64-5.09,16.75,16.75,0,0,1,1.87-.11,16.5,16.5,0,0,1,10.8,4.15,21.15,21.15,0,0,1,2.61,2.42,146.68,146.68,0,0,1,31.12-16.69,89,89,0,0,1,28.7-6.21c.84,0,1.67,0,2.49,0a55.37,55.37,0,0,1,25.85,6.24,9.62,9.62,0,0,1,1.14.73,44.92,44.92,0,0,1,9.6,6.9,70.57,70.57,0,0,1,19,28.65,11.06,11.06,0,0,0,3.19,4.8,11.82,11.82,0,0,1,1.23,1.26,8.94,8.94,0,0,1,1.77,1.46,22,22,0,0,1,2.1,1.37,12.27,12.27,0,0,0,1.34.87,14.86,14.86,0,0,0,6.87,2.07h.12a5,5,0,0,0,.56,0c-8-3.87-13.27-10.78-15.34-20.18-1.89-8.54,1.24-16.61,8.17-21.07a35.46,35.46,0,0,1,4.24-2.21l.93-.42A61.67,61.67,0,0,0,403,55.65a12,12,0,0,1,1.74-1.35l.36-.36.37-.38a5.45,5.45,0,0,1,5.16-3.69A5.21,5.21,0,0,1,412,50a5.4,5.4,0,0,1,4,4.46,22.05,22.05,0,0,1-1.37,16.23A19.84,19.84,0,0,1,410,76.94c.18.38.4.78.63,1.17.9,1.59,2,3.13,3.09,4.76.78,1.15,1.6,2.33,2.38,3.57a11.68,11.68,0,0,1,.55,12.15,19,19,0,0,1-.31,15.33c-2.34,4.62-6.81,7.72-12.59,8.73a34,34,0,0,1-5.86.5h0a58.23,58.23,0,0,1-13.67-2l-.49-.12a124.51,124.51,0,0,1-2.34,20,119,119,0,0,1-3.13,12.74,104.79,104.79,0,0,1,8.37,22.37,45.12,45.12,0,0,1,1.52,14.46v.11c-.21,2.79-.47,6.23-2.5,9.48a9.5,9.5,0,0,1-2.24,3c-3.78,4-8.49,5.13-12.19,5.7a30.21,30.21,0,0,1-4.54.33,45.64,45.64,0,0,1-7.48-.69,37.43,37.43,0,0,1-12-3.77,6.17,6.17,0,0,1-2.73-9.33l.57-1a24.15,24.15,0,0,0,2.56-5.69,5.94,5.94,0,0,0-1.12-5.59,57.57,57.57,0,0,0-4.46-4.95c-.18.38-.35.75-.49,1.13a12.56,12.56,0,0,0-.05,7.89,25.38,25.38,0,0,1,.58,8.42c-.2,2.69-1.48,6.3-6.38,8.36a26.65,26.65,0,0,1-9.85,2.59l-.18,0a61.5,61.5,0,0,1-7.23.44,54.4,54.4,0,0,1-6.3-.36,14.73,14.73,0,0,1-1.72-.28,10.58,10.58,0,0,1-5.58-2.76,16.48,16.48,0,0,1-3.24,3.31,22.48,22.48,0,0,1-12.25,4.49C288,211.59,286.64,211.65,285.3,211.65Zm16.48-35.47c.5,1.5,1.08,3,1.68,4.59.47,1.21.93,2.43,1.37,3.65l0,.12a59.79,59.79,0,0,1-.35-7.7C303.58,176.64,302.67,176.42,301.78,176.18ZM220.44,148l.11-.09h-.07Z"/><path class="cls-2" d="M280.3,206.65a41.45,41.45,0,0,1-14.87-2.7c-5.12-2-6.63-4.78-5.39-10.06.35-1.45.75-2.84,1.14-4.19a46,46,0,0,0,1.42-5.86c.38-2.57.17-4.32-.71-5.86-.74-1.29-1.57-2.55-2.45-3.88-.57-.87-1.14-1.74-1.69-2.62l-2.08-2.65c-1.87.41-3.72.7-5.53,1-1.36.22-2.64.43-3.92.68-.87.17-1.66.32-2.29.51-.05.21-.13.57-.22,1.19-.1.78-.16,1.63-.22,2.53s-.14,2-.28,3.07c-.57,4.31-1.64,6.47-6.5,7.9a37.29,37.29,0,0,1-10.46,1.55,34.26,34.26,0,0,1-15.88-4,6.49,6.49,0,0,1-.72-.43,26.13,26.13,0,0,1-8.74-7.14,7.51,7.51,0,0,1-1-1.72,6.22,6.22,0,0,1,.47-7l1.26-1.82c.89-1.29,1.8-2.63,2.75-4a3.64,3.64,0,0,0,.8-1.54,24.06,24.06,0,0,1,1.43-4.65,16.19,16.19,0,0,1-2.33.94,13.61,13.61,0,0,1-4.07.65,12,12,0,0,1-9.55-4.83,18.77,18.77,0,0,1-1.91-3c-1.37.12-2.78.2-4.23.2-.62,0-1.25,0-1.87,0-5.62-.32-10.78-2.07-15.57-3.85-.75-.27-1.43-.57-2.09-.86l-.58-.25a61.52,61.52,0,0,1-7.07-2.9l-5.67-2.3-.15,0a9.58,9.58,0,0,1-1.74-.74L145,136.39a72.26,72.26,0,0,0-10.21-.75,53.07,53.07,0,0,0-16.52,2.48c-.51.26-1,.49-1.44.7a12.6,12.6,0,0,0-1.59.83,10.33,10.33,0,0,1-5,5.42l-.18.08-.18.07a8.39,8.39,0,0,1-3.06.57,8.5,8.5,0,0,1-6.76-3.33,5.87,5.87,0,0,1-1.17-4,18.36,18.36,0,0,1-3.09-2.94,7,7,0,0,1,3.38-11.62,14.38,14.38,0,0,1,4.4-.79,10,10,0,0,1,2.7.37c4.91-3.38,9.11-6.06,13.11-8.36l.23-.14a42.29,42.29,0,0,1,6-3,18.89,18.89,0,0,1,9-2,36.65,36.65,0,0,1,4.35.28c3.48.4,6.86,1.07,10.14,1.72,2.64.53,5.15,1,7.68,1.39a41.86,41.86,0,0,0,5.71.54,12.42,12.42,0,0,0,3.66-.49,6.17,6.17,0,0,0,1.28-.62c0-.13.15-.77.15-.77a85.44,85.44,0,0,1,5.15-16.16,7.53,7.53,0,0,1,.58-1.09,30.59,30.59,0,0,1,4.15-7.13,17.26,17.26,0,0,1,4.2-4.51,12.21,12.21,0,0,1,3.3-2.23,38.61,38.61,0,0,1,4.88-8.54,14.49,14.49,0,0,1,3.4-4,4.89,4.89,0,0,0,1.36-2.58,23.5,23.5,0,0,1,4-7.63c3.53-4.48,7.45-5.42,10.12-5.42a13.93,13.93,0,0,1,8.08,2.82,32.84,32.84,0,0,1,7.48,7.61l0,0a48,48,0,0,1,6.16,2.8,22.59,22.59,0,0,1,11.64-5.09,16.75,16.75,0,0,1,1.87-.11,16.5,16.5,0,0,1,10.8,4.15,21.15,21.15,0,0,1,2.61,2.42,146.68,146.68,0,0,1,31.12-16.69,89,89,0,0,1,28.7-6.21c.84,0,1.67,0,2.49,0a55.37,55.37,0,0,1,25.85,6.24,9.62,9.62,0,0,1,1.14.73,44.92,44.92,0,0,1,9.6,6.9,70.57,70.57,0,0,1,19,28.65,11.06,11.06,0,0,0,3.19,4.8,11.82,11.82,0,0,1,1.23,1.26,8.94,8.94,0,0,1,1.77,1.46,22,22,0,0,1,2.1,1.37,12.27,12.27,0,0,0,1.34.87,14.86,14.86,0,0,0,6.87,2.07h.12a5,5,0,0,0,.56,0c-8-3.87-13.27-10.78-15.34-20.18-1.89-8.54,1.24-16.61,8.17-21.07a35.46,35.46,0,0,1,4.24-2.21l.93-.42A61.67,61.67,0,0,0,398,50.65a12,12,0,0,1,1.74-1.35l.36-.36.37-.38a5.45,5.45,0,0,1,5.16-3.69A5.21,5.21,0,0,1,407,45a5.4,5.4,0,0,1,4,4.46,22.05,22.05,0,0,1-1.37,16.23A19.84,19.84,0,0,1,405,71.94c.18.38.4.78.63,1.17.9,1.59,2,3.13,3.09,4.76.78,1.15,1.6,2.33,2.38,3.57a11.68,11.68,0,0,1,.55,12.15,19,19,0,0,1-.31,15.33c-2.34,4.62-6.81,7.72-12.59,8.73a34,34,0,0,1-5.86.5h0a58.23,58.23,0,0,1-13.67-2l-.49-.12a124.51,124.51,0,0,1-2.34,20,119,119,0,0,1-3.13,12.74,104.79,104.79,0,0,1,8.37,22.37,45.12,45.12,0,0,1,1.52,14.46v.11c-.21,2.79-.47,6.23-2.5,9.48a9.5,9.5,0,0,1-2.24,3c-3.78,4-8.49,5.13-12.19,5.7a30.21,30.21,0,0,1-4.54.33,45.64,45.64,0,0,1-7.48-.69,37.43,37.43,0,0,1-12-3.77,6.17,6.17,0,0,1-2.73-9.33l.57-1a24.15,24.15,0,0,0,2.56-5.69,5.94,5.94,0,0,0-1.12-5.59,57.57,57.57,0,0,0-4.46-4.95c-.18.38-.35.75-.49,1.13a12.56,12.56,0,0,0-.05,7.89,25.38,25.38,0,0,1,.58,8.42c-.2,2.69-1.48,6.3-6.38,8.36a26.65,26.65,0,0,1-9.85,2.59l-.18,0a61.5,61.5,0,0,1-7.23.44,54.4,54.4,0,0,1-6.3-.36,14.73,14.73,0,0,1-1.72-.28,10.58,10.58,0,0,1-5.58-2.76,16.48,16.48,0,0,1-3.24,3.31,22.48,22.48,0,0,1-12.25,4.49C283,206.59,281.64,206.65,280.3,206.65Zm16.48-35.47c.5,1.5,1.08,3,1.68,4.59.47,1.21.93,2.43,1.37,3.65l0,.12a59.79,59.79,0,0,1-.35-7.7C298.58,171.64,297.67,171.42,296.78,171.18ZM215.44,143l.11-.09h-.07Z"/><path class="cls-3" d="M408.69,86.68l0-.08a3.29,3.29,0,0,0-.15-.4,7.09,7.09,0,0,0-.79-1.43c-2-3.3-6.17-9.63-6.18-9.66a24.49,24.49,0,0,1-1.26-2.54,4.78,4.78,0,0,1,.78-3.73A13.48,13.48,0,0,0,405.35,64c4-6.87.73-14,.73-14v0c0,.24-.32,3.55-13.08,10.12a19,19,0,0,0-4.67,2.23A10.76,10.76,0,0,0,383.25,68a11.91,11.91,0,0,0-.58,7.7s1.1,8,4.33,11.61h0a19.71,19.71,0,0,0,5.53,5.41h0a21.51,21.51,0,0,0,4.48,2.3,17.92,17.92,0,0,0,3.29,1c.07.23.13.44.18.65.21,1.47.25,4.4-2.36,6.08a9.5,9.5,0,0,1-1.52.7c-2,.67-5,.8-9.38-.11,0,0-10.29-3.93-15.63-12.95-.54-1.34-1.23-2.9-1.95-4.45-.13-.36-.27-.73-.41-1.09,0,0,0,0,0-.07v0A49.77,49.77,0,0,0,361,70.52a51.68,51.68,0,0,0-9.91-10.17c-7.76-6.56-39.2-27.06-92.95,13.79-4.5-6.35-9.18-8.22-13.29-8-6.42,0-11.53,5.08-12.53,6.15a46.23,46.23,0,0,0-10.6-4.94c-7.56-10.64-13.19-8.57-13.19-8.57-6.68,1.48-8.16,11.72-8.16,11.72a8.9,8.9,0,0,0-1.92,1.7,34.16,34.16,0,0,0-8.17,13.21C176.88,91,174.48,113,174.48,113c-1.33,5.55-8.66,6.24-10.57,6.33a125.27,125.27,0,0,0-17.82-3.66c-.14-.09-.17,0-.17,0a69.09,69.09,0,0,0-9-.58c-1.38,0-2.4,0-3.08.1h0c-.66,0-1,.1-1,.1-2.48.4-6.12,2.21-9.83,4.44a0,0,0,0,0-.06,0c-2.81,1.69-5.67,3.61-8.11,5.32-.33,0-.28.2-.28.2-3.22,2.28-5.67,4.15-6.24,4.6a14.37,14.37,0,0,0-4.3-.75c-3-.14-2.81,1.53-2.81,1.53h0c-.17,1.84,5,5.5,5,5.5.84.64.12,2.09-.25,2.72l-.19.29c4.32,4.77,7.3-3.12,7.3-3.12,6.25-7,30.53-5.37,30.53-5.37,6.26.15,20.56,7,20.56,7A69.57,69.57,0,0,0,178.9,143a39.9,39.9,0,0,0,5.41.89c6.43.63,9.62-.67,9.62-.67,3.72,14.3,14.89,5.07,14.89,5.07s4.32-10.28,4.62-11a54,54,0,0,0,11.21.65c6.46-.12,10.14-1.52,11.89-2.45.85-.36,1.3-.61,1.3-.61l6,4c-28.26.84-32,23-32,23L206.18,170l-.58.47a1,1,0,0,0,0,.3l0,0,.06.16-.06.08c.08.09.16.17.23.26a5.42,5.42,0,0,0,.55.74,13.68,13.68,0,0,0,1.73,1.76,27.38,27.38,0,0,0,4.71,3.69c.53.63,2,1.66,5.36,2.53,10.62,3.58,20.65-.64,20.65-.64v-.05l.08,0-.07-.22c.12-9.52,2.53-12.31,3.91-13.12h0a113.88,113.88,0,0,0,16.41-3,7.84,7.84,0,0,1,1.68,1.64,121.28,121.28,0,0,1,7.68,12.58,8.75,8.75,0,0,1,.4,1.47c.34,3.34-.87,9.81-1.81,14.16a24.44,24.44,0,0,0-1,4.42l.07,0c0,.13-.07.2-.07.2,12.53,6,21.39,3.64,25.71,1.55a11.49,11.49,0,0,0,2.95-1.79l.05,0c2.66-1.79,3.38-4.61,3.26-7.39,0-.19,0-.38,0-.58,0,0,0-.43-.16-1.15-.05-.36-.12-.72-.2-1.07a24.24,24.24,0,0,0-3-7.86s-4.19-10.71-2.76-15.9c4,1.73,12.76,3.93,14,4.25-1.69,2.37.35,12.2.73,14,0,.12,0,.21,0,.31-.92,1.1-1.43,3.37-1.72,5.71h0a16.49,16.49,0,0,0-.29,3.47c-.14,2.29-.06,4-.06,4a11.11,11.11,0,0,0,4.37,1.31h.05c5.8.74,13.78-.48,13.78-.48,5.4.23,8-1.58,9.18-3.94h0v0a4.79,4.79,0,0,0,.49-1.32,12.39,12.39,0,0,0,.07-5.24,13.3,13.3,0,0,0-.76-3.09s-.8-8.39,2.83-13.85a9,9,0,0,1,2.77-2.62,152.23,152.23,0,0,0,10.61,11.17l.53.73a2.47,2.47,0,0,0,.06.29,22.83,22.83,0,0,1-1.54,11.39c-1.11,2.32-3,4.86-2.71,5l.13.07-.13.16c16.14,7.19,24.56,4.3,28.15,1.93a10.19,10.19,0,0,0,1.26-1l.15-.14.4-.39,0-.06c.22-.22.41-.45.6-.68l.31-.39,0,0c2.78-3.44,3.46-8.41,3-13.8,0-.61-.09-1.23-.17-1.88,0,0-.15-1-.48-2.75,0-.17-.06-.34-.1-.51-1.09-5.47-3.84-16.76-9.25-25.41a41.37,41.37,0,0,0,2.78-10c1.89-7.76,3.9-19,3.16-29.92,18.71,5.61,24,3.18,24,3.18,14.49-1.86,9.42-16.17,8.26-19A6.21,6.21,0,0,0,408.69,86.68ZM259.1,73.63l-.83.64-.07-.1Z"/><g id="e"><path class="cls-4" d="M106.19,136.16s-12.42-8.86,2-5.94c0,0,21.27-15.11,25.65-14.81,0,0,12.08.18,29.6,4.18,0,0,7.27.84,10.69-4.18,0,0,3-23,16.18-29.81,0,0,6.08-12.76,10.09-15.14,0,0,1.48-10.24,8.16-11.72,0,0,5.64-2.08,13.21,8.61,0,0,8.46,3.56,10.39,5.34,0,0,12.92-14.84,25.68,1.93,0,0,29.54-24.27,61-24.27,0,0,30.15-3.56,47,27.71,0,0,5.8,11.54,6.74,15.13,0,0,10.86,11.83,19.47,11.08,0,0,10.86,0,8.24-8.24,0,0-18-3-17.41-24.34a10.67,10.67,0,0,1,8.05-10.11c1.12-.37,13.1-5.86,15.16-11.35,0,0,4.31,12.66-5.62,19,0,0-3.74,1.5,7.49,16.1,0,0,2.63,3.31-1.68,7.83,0,0,8.05,17.45-8,19.51,0,0-5.24,2.43-24-3.19,0,0-1.54,31.39-6,40,0,0,17.76,33.25,6.47,45,0,0-7.32,10.25-30.34,0,0,0,6.49-8.16,4.19-16.94,0,0-7.11-10-11.09-11.93,0,0-6.9,3.35-5.65,16.74,0,0,5.44,14-9,13.39,0,0-13.6,2.09-18.2-.84,0,0-.42-8.16,2.09-13-.21-2.3-2.3-11.09-.63-14.43,0,0-10.25-2.51-14.43-4.4,0,0-2.22,7.19,3.86,17.8,0,0,6.22,11.59-.71,16.26,0,0-10.46,9.05-28.71.28,0,0,4.81-14.42,2.41-20.36,0,0-6.36-12.3-9.33-14.14a113.88,113.88,0,0,1-16.41,3s-4.1,1.13-4,13.43c0,0-19.79,8.34-33.23-8.34l6.23-8.91s4.95-22.34,32.38-23.05l-6.37-4.24s-8.61,4.94-24.4,2.41c-.3.74-4.62,11-4.62,11s-11.17,9.23-14.89-5.07c0,0-9.84,4-29.79-5.51,0,0-14.3-6.85-20.56-7,0,0-24.28-1.64-30.53,5.37,0,0-3,7.89-7.3,3.12C105.75,139.17,107.28,137,106.19,136.16Z"/><path class="cls-5" d="M106.32,138.75s4.32.76,4.83-4.49c0,0,20.91-11.51,43.35-3.81,0,0,18.6,9.86,30.9,10.46,0,0,17.84,3.38,20.13-11.81l1.95,1s1.08,10.95-12.6,12.77c0,0-9,4-24.5-2.69,0,0-20.86-9.44-26-9.64,0,0-24.84-1.5-31.33,5.31,0,0-2.64,8.05-7.3,3.13Z"/><path class="cls-5" d="M284.42,132.3a18.33,18.33,0,0,1,2.1,5.42s2.1,1.78,2.1-1.82c0,0,9.43,14.22,29.52-16.18,0,0,0,11.22,3.84,16.18,0,0-.7,9.15,13.63,26.8,0,0-16.13,12.82-42.88,0,0,0-14.08-6.49-21.45-5.33,0,0-8.52,6.41-27.57,8.24,0,0-4.72.07-4.88,13.53,0,0-1.79-3-4.25-3.8,0,0,3.35-7.63,3.79-11.67C238.37,163.67,280.55,161.9,284.42,132.3Z"/><path class="cls-6" d="M285.1,159.71s-.29,12.76,4,23.19c0,0,1,10.46-.85,17.27,0,0,10.4-1.82,9.8-10.95a25.62,25.62,0,0,0-3.38-10.08s-4.65-11.89-2.49-16.68A55.51,55.51,0,0,0,285.1,159.71Z"/><path class="cls-6" d="M327,166.77s0,5.76-1.19,7.14c0,0-4.32,8.34.6,21l.06.44s5.93-.88,6.31-6.63a19.13,19.13,0,0,0-1-6.56s-1.16-12.19,5.65-16.73l.07-.07a15.41,15.41,0,0,1-1.95-2.64S327.53,166.49,327,166.77Z"/><path class="cls-6" d="M360.43,69.8s10.34,12.44,6.72,49.92a93.69,93.69,0,0,1-3.79,18.38s-3.46,11.1,2.47,21.61a74.33,74.33,0,0,1,3.95,37.84s10.44-1.6,8.38-19.46c0,0-2.42-16.92-9.9-28.78,0,0,7.39-20.67,6-40C374.25,109.28,373.61,84.64,360.43,69.8Z"/><path class="cls-6" d="M373.52,101.83s14,10.14,24.55,6c.59-.19,10-3.14,5.5-12.77l-3.29.73s3.28,11-13.08,7.55c0,0-14.51-5.54-18-18.56Z"/><path class="cls-7" d="M400.28,95.8s5,0,6-2.84c0,0,5.45-3.88.73-9.09,0,0-6.75-10-7-12.32,0,0-.39-2.6,2.93-4.49,0,0,6.58-5.05,3.16-17.07,0,0,.21,3.85-16.46,11.81,0,0-11,3.27-5.81,18.34A20.51,20.51,0,0,0,400.28,95.8Z"/><path class="cls-8" d="M404.34,94.92c6.76-2.94,4.18-8.72,4.18-8.72-1.11-2.26-7-11.09-7-11.09-3.94-5.12,1.89-8.53,1.89-8.53C410.21,59,406.08,50,406.08,50c.43,12.39-7.43,18.7-7.43,18.7-4.61,4.86,7,17.14,7,17.14,1.62,11.68-11.43,7.42-11.43,7.42l-1.7-.5S399.81,97.9,404.34,94.92Z"/><path class="cls-9" d="M387,87.34s-5.27-18.55,6-27.21c0,0-13.07,3.71-10.34,15.6C382.67,75.73,383.77,83.68,387,87.34Z"/><path class="cls-10" d="M257.84,74.38S310.77,41.2,353,62.12C353,62.12,320.58,26.49,257.84,74.38Z"/><path class="cls-10" d="M323.28,126.41s-4.37,18.39,22.58,43.34c0,0,11.79,12.27,1.65,25.58l-3.12-1.05s5.69-7.38,4.19-16.95C348.58,177.33,311.59,143.52,323.28,126.41Z"/><path class="cls-10" d="M309.08,167.89s-.13,11.33.56,13.41l-.57,14.95s-3.89-.79-4.42-1.56c0,0-.24-10.22,2.09-13,0,0-2.79-12.27-.63-14.43C306.11,167.29,308.39,167.79,309.08,167.89Z"/><path class="cls-10" d="M262.69,161.55s11.86,14.06,8,28.44l-2,8.36-2.5-1.11s3.92-15.39,2.65-19.66c0,0-6.64-12.46-9.57-14.85Z"/><path class="cls-10" d="M250.37,131.23l-5.66,9.88s-24.19.91-31.35,22.77l-4.27,10.58s-3.13-2.32-3.49-3.67l6.23-8.91s3.82-22.37,32.38-23Z"/><path class="cls-10" d="M230,75.17S206.74,59.9,193.81,86.45c0,0-10.22,2.21-12.72,22.18,0,0,.71,25.51-39.06,9.81,0,0-13.21-2.06-34.14,13.21a6.94,6.94,0,0,0-6.67-1s-.37-3,7-.67c0,0,17.32-13.54,24.66-14.7,0,0,10.09-1.58,30.59,4.07,0,0,9.51.06,11-6.34,0,0,2.4-22,15.83-27.65,0,0,9.89-32.81,41.85-12.91,0,0,13.53-15.55,25.68,1.92,0,0,12.12,14,34.39,12.42,0,0-12.23,8.59-35.62-10.6,0,0-11.13-22.74-32.42,7.26Z"/><path class="cls-10" d="M230.5,75.17S207.26,59.9,194.33,86.45c0,0-10.23,2.21-12.72,22.18,0,0,.71,25.51-39.07,9.81,0,0-13.2-2.06-34.14,13.21a6.94,6.94,0,0,0-6.67-1s-.36-3,7-.67c0,0,17.33-13.54,24.67-14.7,0,0,10.08-1.58,30.58,4.07,0,0,9.51.06,11.05-6.34,0,0,2.39-22,15.82-27.65,0,0,9.89-32.81,41.86-12.91,0,0,13.53-15.55,25.68,1.92,0,0,12.11,14,34.38,12.42,0,0-12.22,8.59-35.61-10.6,0,0-11.13-22.74-32.42,7.26Z"/><path class="cls-11" d="M214.25,134.66s24.28,3.66,21.3-10.44c0,0,2,11.9,14.82,7l-6.16,7.61-6.37-4.25S232,140,213.44,137Z"/><path class="cls-12" d="M195.55,142.73s11.64-.72,11.93-12.67l3.11,1.17s-2.07,18.21-9,17.65C201.63,148.88,196.43,149.4,195.55,142.73Z"/><path class="cls-13" d="M209.93,135.26s-13.84,8.61-13.43,10.63c0,0,3.57,6.54,9.1.91C205.6,146.8,210,140.17,209.93,135.26Z"/><path class="cls-13" d="M225.29,99.72s1.84-22.62,22.91-23.33c0,0,22.06,21.63,41.29,15.69,0,0-.6,15.88-16.74,16.76,0,0-2.87,17.14-14.15,14.15,0,0-6.4,15-19.45,7.51,0,0-5.31-3.31-4-12.15,0,0-1.66-7.19-6.08-9.07C229.08,109.28,224.45,104.17,225.29,99.72Z"/><path class="cls-14" d="M228.8,109c-2.09-4.47,1.75-28.92,18.94-28.23A24.83,24.83,0,0,1,258.84,89s14.33,11.45,28.86,8.7c0,0,.76,0,.82-.17A16.16,16.16,0,0,1,272.9,109s-2.18,17.51-14.15,14.15c0,0-6.11,16.07-19.95,7.07,0,0-5.32-4.48-3.58-11,0,0-2-7.65-5.64-9.22h0Z"/><path class="cls-14" d="M203.17,68.65s.33-8.76,7-6.32a10.27,10.27,0,0,1,4,3.72A18.59,18.59,0,0,0,203.17,68.65Z"/><path class="cls-15" d="M199.32,92.14s1.51-4.17,14.12-.35c0,0-6.44-5.94-11-4.89C202.46,86.9,198.1,88,199.32,92.14Z"/><path class="cls-16" d="M198.48,101.59S200,88,209.34,96.3c0,0,1.28,1.22,1.22,5.7l-8-1.15-1.49.54Z"/><path class="cls-2" d="M198,107.08s5.36,7,12.76.35c0,0,.05-6.3-1.15-7.64,0,0-2.58-6.76-7.54-3.08a10.76,10.76,0,0,0-3.68,5.41S198,105.25,198,107.08Z"/><ellipse class="cls-17" cx="204.64" cy="103.33" rx="4.54" ry="5.09"/><ellipse class="cls-18" cx="204.65" cy="103.24" rx="2.66" ry="2.96"/><circle class="cls-2" cx="203.01" cy="101.3" r="1.02"/><circle class="cls-2" cx="206.5" cy="104.67" r="0.41"/><path class="cls-2" d="M205.6,170.44s-.29,1.55,5.06,5.33C210.66,175.77,214.68,162.79,205.6,170.44Z"/><path class="cls-2" d="M212.55,177c.1.57,2.26,3.13,12.51,4.11C225.06,181.14,223.94,161.63,212.55,177Z"/><path class="cls-2" d="M228.24,180.53s5.46-11,10.59-1.49l.08.25A32.73,32.73,0,0,1,228,181.13C228.1,181.06,228.24,180.53,228.24,180.53Z"/><path class="cls-2" d="M266.12,197.24s1.29-10.17,5-6.58a21.66,21.66,0,0,1,2.13,8.92v.34A53.37,53.37,0,0,1,266.12,197.24Z"/><path class="cls-2" d="M274.59,200.17s1-8.72,5-9.32c0,0,3.82-1,7.4,7a10.57,10.57,0,0,1,.95,2.34A24.34,24.34,0,0,1,274.59,200.17Z"/><path class="cls-2" d="M290.73,199.45s-1.1-6.44,1.75-7.77c0,0,2.93-2,5.47,0C298,191.68,297.51,197.2,290.73,199.45Z"/><path class="cls-2" d="M304.65,194.69s0-6.68.35-7.22c0,0,4.25-1.36,5.74,4.66,0,0,.51,3.41.27,3.87l0,.19S307.11,196.28,304.65,194.69Z"/><path class="cls-2" d="M312.15,196.19s2.42-8.31,7.33-5.89c0,0,2.2,1.43,3,5.26C322.44,195.56,313.78,196.69,312.15,196.19Z"/><path class="cls-2" d="M323.83,195.33c.21-.32-.16-7.23,8.73-5.15,0-.16-.13,4-6.07,5.15a14.47,14.47,0,0,1-2.71.22A1.88,1.88,0,0,1,323.83,195.33Z"/><path class="cls-2" d="M344.39,194.28c-.35-.23,3.14-4.75,3.49-7.26,0,0,4.62.82,5.69,9.31v1.22S346.62,195.7,344.39,194.28Z"/><path class="cls-2" d="M355.31,197.55s2.65-9.64,7.63-8.22c0,0,4.17,2,5.09,8.22l.08.59a27.58,27.58,0,0,1-12.95-.18Z"/><path class="cls-2" d="M369.78,197.55s-2.45-8.74,7.69-8C377.47,189.53,375.63,196.35,369.78,197.55Z"/><path class="cls-2" d="M206.5,96.51a8.75,8.75,0,0,1,3.42,5.36s-.79-.15-.89-.32l-.44-.75-.49-.86-.53-.92s-.15,0-.54-.94A8.46,8.46,0,0,1,206.5,96.51Z"/><path class="cls-19" d="M202.93,127.46c1.26.39,2.42.83,3.57,1.27l3.43,1.27c1.14.42,2.27.82,3.43,1.21s2.34.73,3.58,1.22a10.66,10.66,0,0,1-3.89.31,14.63,14.63,0,0,1-3.81-.86,16.61,16.61,0,0,1-3.46-1.77A11.39,11.39,0,0,1,202.93,127.46Z"/><path class="cls-19" d="M174.15,115.08a13.76,13.76,0,0,1,3.36,1,13.61,13.61,0,0,1,3.05,1.84c.48.37.94.77,1.4,1.19a5.46,5.46,0,0,1,1.08,1.49,6,6,0,0,1,.62,3.61l-.19,0c-.88-.92-1.43-1.8-2.13-2.61s-1.12-1.76-1.86-2.55a16.68,16.68,0,0,0-5.38-3.81Z"/><path class="cls-19" d="M160.14,118.36a6.55,6.55,0,0,1,3.2,1.06,8.6,8.6,0,0,1,2.48,2.44A7.57,7.57,0,0,1,167.3,125a9.12,9.12,0,0,1,0,1.73,6.88,6.88,0,0,1-.41,1.71l-.2,0A8.07,8.07,0,0,1,166,127a14.25,14.25,0,0,1-.6-1.44,12.45,12.45,0,0,1-.45-1.43l-.19-.73c-.09-.23-.19-.46-.29-.69a8.56,8.56,0,0,0-1.7-2.45,6.54,6.54,0,0,0-2.61-1.65Z"/><path class="cls-19" d="M145.9,115.46a7.48,7.48,0,0,1,2.11,1.23,8,8,0,0,1,1.65,1.9,4.71,4.71,0,0,1,1,2.36,3.81,3.81,0,0,1-.71,2.51h-.2a6.69,6.69,0,0,1-.62-1.11c-.18-.35-.29-.68-.43-1-.26-.64-.25-1.35-.48-2a9.38,9.38,0,0,0-2.42-3.67Z"/><path class="cls-19" d="M133.87,115.08a3.55,3.55,0,0,1,1.9,1,5,5,0,0,1,1.18,1.86,3.92,3.92,0,0,1,.46,2.13,3.4,3.4,0,0,1-1,2l-.2,0a3.58,3.58,0,0,1-.49-1,4.35,4.35,0,0,1-.26-.91,10.11,10.11,0,0,1,0-1.74,5.09,5.09,0,0,0-.43-1.66,3.46,3.46,0,0,0-1.15-1.38Z"/><path class="cls-19" d="M122.93,119.62a4.4,4.4,0,0,1,1.58-.06,3.53,3.53,0,0,1,1.59.68,2.23,2.23,0,0,1,1.1,1.51,1.91,1.91,0,0,1-.71,1.71h-.2a4.29,4.29,0,0,1-.61-.65c-.18-.17-.28-.35-.4-.48s-.13-.63-.32-1a4.07,4.07,0,0,0-2-1.54Z"/><path class="cls-19" d="M114.28,125a3.41,3.41,0,0,1,1.15-.28,2.7,2.7,0,0,1,1.28.24c.42.16,1,.42,1.11,1a1.36,1.36,0,0,1-.52,1.44l-.2,0c-.59-.29-.84-.44-1.06-.54s-.08-.35-.24-.57a3.64,3.64,0,0,0-1.51-1.07Z"/><path class="cls-19" d="M201.37,94.68a3.38,3.38,0,0,1,2-1.8,4.42,4.42,0,0,1,2.85,0,5.51,5.51,0,0,1,2.26,1.55,8.74,8.74,0,0,1,.73,1.1,6.64,6.64,0,0,1,.45,1.25,10.46,10.46,0,0,1-1.16-.57c-.35-.2-.71-.37-1-.57a14.44,14.44,0,0,0-1.91-.87A7,7,0,0,0,201.37,94.68Z"/><path class="cls-10" d="M174.7,116a16.72,16.72,0,0,1,5,3,8.32,8.32,0,0,1,2,2.21,5.76,5.76,0,0,1,.77,2.91l-.14,0c-.75-.72-1.27-1.44-1.88-2.13s-1-1.5-1.62-2.19a21.37,21.37,0,0,0-4.17-3.75Z"/><path class="cls-10" d="M161.58,119.82a11.27,11.27,0,0,1,3.44,3.69,7.28,7.28,0,0,1,1.08,2.33,5.35,5.35,0,0,1-.09,2.6l-.15,0a11.86,11.86,0,0,1-1.2-2.18c-.32-.71-.44-1.49-.72-2.24a14.06,14.06,0,0,0-1-2.14,10.36,10.36,0,0,0-1.41-2Z"/><path class="cls-10" d="M145.89,116.38a4.94,4.94,0,0,1,1.69,1.22,8.4,8.4,0,0,1,1.18,1.75,5,5,0,0,1,.72,2,4,4,0,0,1-.45,2.11h-.15a4.22,4.22,0,0,1-.52-.94,7.34,7.34,0,0,1-.36-.9c-.23-.59-.18-1.23-.36-1.83A7.28,7.28,0,0,0,147,118a5.35,5.35,0,0,0-1.15-1.53Z"/><path class="cls-10" d="M133.88,116a2.79,2.79,0,0,1,1.21,1,5.71,5.71,0,0,1,.66,1.47,3.33,3.33,0,0,1,.25,1.58,2.73,2.73,0,0,1-.8,1.46l-.15,0a3.83,3.83,0,0,1-.55-1.47,6.2,6.2,0,0,1,.06-1.36,4.7,4.7,0,0,0-.15-1.35,2.78,2.78,0,0,0-.6-1.23Z"/><path class="cls-10" d="M123.38,120.3a1.64,1.64,0,0,1,1.22.26,5.18,5.18,0,0,1,1,.79c.26.3.62.57.69,1a1.9,1.9,0,0,1-.2,1.3l-.14,0a2.52,2.52,0,0,1-1-.72c-.23-.26-.22-.63-.33-1a4.61,4.61,0,0,0-.44-.89,1.49,1.49,0,0,0-.7-.66Z"/><path class="cls-10" d="M114.72,125.69a2.82,2.82,0,0,1,1.46.15c.24.09.59.13.71.45a.89.89,0,0,1-.25,1l-.15,0a5.68,5.68,0,0,0-.78-.12c-.15,0-.12-.25-.23-.41a9.06,9.06,0,0,0-.81-1Z"/><path class="cls-14" d="M247.74,80.74a118.9,118.9,0,0,0,10.1,7.07c9.28,5.82,22.79,12.5,30.94,8.39,0,0-.6,6.41-5.7,9.29a12,12,0,0,0-2.85-3.19,25.94,25.94,0,0,0-3.8-2.6c-1.68-.85-17.85-5.89-18-6.1s-3.89-3.75-3.89-3.75l-1.73-2Z"/><path class="cls-13" d="M232.82,89.46s10.12-12.59,25.58-1.3c0,0-1-1.87-1.37-2.39a6.89,6.89,0,0,0-1.51-1.7c-.59-.41,1.34.65-1.47-1.11s-2.92-1.84-3.68-2.23-3.27-1.39-3.27-1.39a2.54,2.54,0,0,0-2.1-.26,19.72,19.72,0,0,0-3.86.9c-1.87.7-.58-1.22-3.5,1.46s-2.87,2.46-3.34,3.28a20.05,20.05,0,0,1-1.48,2.06l-1.14,2.14Z"/></g></svg>