<svg id="Layer_54" data-name="Layer 54" xmlns="http://www.w3.org/2000/svg" viewBox="0 0 256 256"><defs><style>.cls-1{opacity:0.5;}.cls-2{fill:#fff;}.cls-3{fill:#252820;stroke:#181915;}.cls-10,.cls-11,.cls-12,.cls-14,.cls-16,.cls-17,.cls-20,.cls-3,.cls-4,.cls-7{stroke-miterlimit:10;}.cls-4{fill:#c1a381;stroke:#6b4e2d;}.cls-12,.cls-20,.cls-4,.cls-7{stroke-width:2px;}.cls-5{fill:#d1b293;}.cls-6{fill:#af8f72;}.cls-7{fill:#bab0a8;stroke:#51473f;}.cls-8{fill:#8e847c;}.cls-9{fill:#cec4be;}.cls-10{fill:#5b2424;}.cls-10,.cls-17{stroke:#702828;}.cls-11{fill:#edd9d6;}.cls-11,.cls-14,.cls-16,.cls-20{stroke:#2b3a16;}.cls-12{fill:#cfc5bc;stroke:#6c4e2d;}.cls-13{fill:#9d938a;}.cls-14{fill:#89817a;}.cls-15{fill:#181411;}.cls-16{fill:#7a6b67;}.cls-17,.cls-19{fill:#f7ebeb;}.cls-18{fill:#280d0d;}.cls-20{fill:#c4a939;}.cls-21{fill:#e2c754;}.cls-22{fill:#efda81;}</style></defs><path class="cls-1" d="M119,247.5c-6.53,0-8.68-2.9-9.32-5.34a33,33,0,0,0-.81-3.14,7,7,0,0,1,3.49-6.51,18.34,18.34,0,0,0,2.64-4.76l.06-.14c-.08-2,0-4.33.06-7.07.15-5.15.35-12-.6-16.85-2.64-3.34-3.35-9.06-3.79-12.68-.12-.92-.32-2.25-.68-4.17-.07,1.32-.12,2.62-.17,3.82-.44,10.56-.79,16.23-3.17,19.56-1.15,1.61-1.47,3.4-2,6.69-.13.86-.27,1.78-.45,2.76a7.54,7.54,0,0,1,1.1,4,6.51,6.51,0,0,1,0,.77,13.46,13.46,0,0,1-2.73,9.26,7.37,7.37,0,0,1-4.55,3.67l-9.56,2.53a6.7,6.7,0,0,1-1.78.24,6.92,6.92,0,0,1-5.91-3.31,6.8,6.8,0,0,1-.82-2,7,7,0,0,1-.55-.76,6.76,6.76,0,0,1-.37-6.56,22,22,0,0,1,6.58-8l1.15-10.06c-1.31-3.23-1.29-7.64-1-11,.15-6.44-3.33-21.22-6.1-30.62l-.6-.62-1.5-.08-.7,0c-.41,0-.84-.05-1.28-.05s-1.18,0-1.75.08l-.21,0c-.72.05-1.47.1-2.24.1-5.85,0-9.49-3.75-9.49-9.77a23.13,23.13,0,0,1,4.27-12.91,21.93,21.93,0,0,1-1.75-2.12,19.29,19.29,0,0,1-2.42.16c-5.32,0-9.86-2.25-12.21-5.63-2.92-1-6.06-3.44-7.33-9.38-.07-.35-.18-.73-.29-1.12a14.41,14.41,0,0,1-.56-7.6,11.61,11.61,0,0,1,2-4.21c-.11-.45-.22-.93-.33-1.43-.64-2.77-1.69-7.41-4.61-16.49-.06-.18-.12-.36-.17-.54a32.79,32.79,0,0,1-11.3,2.09,25.93,25.93,0,0,1-11.06-2.36,7.16,7.16,0,0,1-1.85-11.68C21.85,77.1,28.3,72.92,33.54,70.49,20.64,53.9,21.35,30,22.43,19.53a6.72,6.72,0,0,1,13.3-.5l0,.24c2,14.22,7,26.14,14.49,34.76a5.42,5.42,0,0,0,1.85-.74c4.32-3,8.34-4.46,12.31-4.46a16.07,16.07,0,0,1,5.61,1,35.51,35.51,0,0,1,4.83,2.29c.74.4,1.79,1,2.64,1.33,5.36-5.48,12.94-16,16.6-33.72l.06-.25a6.68,6.68,0,0,1,6.54-5.18,6.86,6.86,0,0,1,2.08.33,6.25,6.25,0,0,1,4.65,6.19c.33,7.78,0,23.16-6,37a20.64,20.64,0,0,1,5.63-.83,16.54,16.54,0,0,1,4.31.56c9.91,2.66,10.24,11.61,10.4,15.91,0,.59,0,1.18.08,1.73,0,.14,0,.26,0,.37,2,1,7.21,2.18,11.82,2.68l.2,0,.2,0a113.66,113.66,0,0,0,19.76,1.78c12.42,0,22.25-2.16,30.15-3.9,5.4-1.19,10.07-2.21,14.18-2.21a22,22,0,0,1,2.62.15,29,29,0,0,1,6.39,1.47l.4-.61,5,3.26a35.07,35.07,0,0,1,9,9.12c.33.47.66,1,1,1.46C230.11,99.64,239,120,239.3,156l.29,0c.16,3.18.52,6.44,2,8.69a24,24,0,0,0,1.91,2.39,21.21,21.21,0,0,1,4.68,7.41,18.88,18.88,0,0,1,.72,6.56,37.34,37.34,0,0,1-12,25.68l-9.68-6.49a11,11,0,0,0,0-7.27l-1.43,3.17c-3.64,8.07-6,16.41-8.52,25.21l1.9,2.73-1.66,3.21a8.49,8.49,0,0,1-3.44,3.56,14.89,14.89,0,0,1-13.93,11.73l-.23,0h-2.57a7.28,7.28,0,0,1-6.25-3.51,6.46,6.46,0,0,1-1.52-8.23,77.66,77.66,0,0,1,6.83-9.59l.72-1.35c4-7.5,13.53-30.73,5.45-38.79-1.48-1.48-2.9-2.94-4.25-4.35l-4.11,9.11c-3.49,7.74-5.85,15.71-8.22,24.09l.32.43,2.07,3-1.66,3.21a8.5,8.5,0,0,1-3.45,3.55,14.91,14.91,0,0,1-13.91,11.73l-.24,0h-2.57a7.28,7.28,0,0,1-6.25-3.51,6.45,6.45,0,0,1-1.51-8.23,72.37,72.37,0,0,1,5.92-8.46l0-.41.85-1.6c4-7.5,13.53-30.73,5.46-38.79-1.47-1.46-2.93-3-4.42-4.52-4.79,1.83-9.81,3.38-15.42,3.38a30.19,30.19,0,0,1-4.66-.37,35.12,35.12,0,0,0-5.55-.42c-1.14,0-2.32,0-3.54.14-.1,1-.21,1.92-.31,2.88-.32,3-.61,6-.68,8.89,0,1.32,0,2.65,0,4,0,5.15,0,11-2.16,16.48-.21,2.87-.81,11.67-.8,18.8l.12.42-.1.84c0,1.3,0,2.45.12,3.43a9.93,9.93,0,0,1,2,3,7.46,7.46,0,0,1,.62,3,6.52,6.52,0,0,1-.65,5.86,6.29,6.29,0,0,1-1.7,1.71,10.63,10.63,0,0,1-.59,1.6,11.88,11.88,0,0,1-8.11,6.72A26.55,26.55,0,0,1,119,247.5Zm105.22-82.35c.37-.87.76-1.7,1.14-2.5,0-2.55-.13-5.36-.3-8.36a61.06,61.06,0,0,0-1.8,9.6Z"/><path class="cls-2" d="M114,242.5c-6.53,0-8.68-2.9-9.32-5.34a33,33,0,0,0-.81-3.14,7,7,0,0,1,3.49-6.51,18.34,18.34,0,0,0,2.64-4.76l.06-.14c-.08-2,0-4.33.06-7.07.15-5.15.35-12-.6-16.85-2.64-3.34-3.35-9.06-3.79-12.68-.12-.92-.32-2.25-.68-4.17-.07,1.32-.12,2.62-.17,3.82-.44,10.56-.79,16.23-3.17,19.56-1.15,1.61-1.47,3.4-2,6.69-.13.86-.27,1.78-.45,2.76a7.54,7.54,0,0,1,1.1,4,6.51,6.51,0,0,1,0,.77,13.46,13.46,0,0,1-2.73,9.26,7.37,7.37,0,0,1-4.55,3.67l-9.56,2.53a6.7,6.7,0,0,1-1.78.24,6.92,6.92,0,0,1-5.91-3.31,6.8,6.8,0,0,1-.82-2,7,7,0,0,1-.55-.76,6.76,6.76,0,0,1-.37-6.56,22,22,0,0,1,6.58-8l1.15-10.06c-1.31-3.23-1.29-7.64-1-11,.15-6.44-3.33-21.22-6.1-30.62l-.6-.62-1.5-.08-.7,0c-.41,0-.84-.05-1.28-.05s-1.18,0-1.75.08l-.21,0c-.72.05-1.47.1-2.24.1-5.85,0-9.49-3.75-9.49-9.77a23.13,23.13,0,0,1,4.27-12.91,21.93,21.93,0,0,1-1.75-2.12,19.29,19.29,0,0,1-2.42.16c-5.32,0-9.86-2.25-12.21-5.63-2.92-1-6.06-3.44-7.33-9.38-.07-.35-.18-.73-.29-1.12a14.41,14.41,0,0,1-.56-7.6,11.61,11.61,0,0,1,2-4.21c-.11-.45-.22-.93-.33-1.43-.64-2.77-1.69-7.41-4.61-16.49-.06-.18-.12-.36-.17-.54a32.79,32.79,0,0,1-11.3,2.09,25.93,25.93,0,0,1-11.06-2.36A7.16,7.16,0,0,1,9.36,79.18C16.85,72.1,23.3,67.92,28.54,65.49,15.64,48.9,16.35,25,17.43,14.53a6.72,6.72,0,0,1,13.3-.5l0,.24c2,14.22,7,26.14,14.49,34.76a5.42,5.42,0,0,0,1.85-.74c4.32-3,8.34-4.46,12.31-4.46a16.07,16.07,0,0,1,5.61,1,35.51,35.51,0,0,1,4.83,2.29c.74.4,1.79,1,2.64,1.33,5.36-5.48,12.94-16,16.6-33.72l.06-.25A6.68,6.68,0,0,1,95.7,9.33a6.86,6.86,0,0,1,2.08.33,6.25,6.25,0,0,1,4.65,6.19c.33,7.78,0,23.16-6,37a20.64,20.64,0,0,1,5.63-.83,16.54,16.54,0,0,1,4.31.56c9.91,2.66,10.24,11.61,10.4,15.91,0,.59,0,1.18.08,1.73,0,.14,0,.26,0,.37,2,1,7.21,2.18,11.82,2.68l.2,0,.2,0a113.66,113.66,0,0,0,19.76,1.78c12.42,0,22.25-2.16,30.15-3.9,5.4-1.19,10.07-2.21,14.18-2.21a22,22,0,0,1,2.62.15,29,29,0,0,1,6.39,1.47l.4-.61,5,3.26a35.07,35.07,0,0,1,9,9.12c.33.47.66,1,1,1.46C225.11,94.64,234,115,234.3,151l.29,0c.16,3.18.52,6.44,2,8.69a24,24,0,0,0,1.91,2.39,21.21,21.21,0,0,1,4.68,7.41,18.88,18.88,0,0,1,.72,6.56,37.34,37.34,0,0,1-12,25.68l-9.68-6.49a11,11,0,0,0,0-7.27l-1.43,3.17c-3.64,8.07-6,16.41-8.52,25.21l1.9,2.73-1.66,3.21a8.49,8.49,0,0,1-3.44,3.56,14.89,14.89,0,0,1-13.93,11.73l-.23,0h-2.57a7.28,7.28,0,0,1-6.25-3.51,6.46,6.46,0,0,1-1.52-8.23,77.66,77.66,0,0,1,6.83-9.59l.72-1.35c4-7.5,13.53-30.73,5.45-38.79-1.48-1.48-2.9-2.94-4.25-4.35l-4.11,9.11c-3.49,7.74-5.85,15.71-8.22,24.09l.32.43,2.07,3-1.66,3.21a8.5,8.5,0,0,1-3.45,3.55,14.91,14.91,0,0,1-13.91,11.73l-.24,0h-2.57a7.28,7.28,0,0,1-6.25-3.51,6.45,6.45,0,0,1-1.51-8.23,72.37,72.37,0,0,1,5.92-8.46l0-.41.85-1.6c4-7.5,13.53-30.73,5.46-38.79-1.47-1.46-2.93-3-4.42-4.52-4.79,1.83-9.81,3.38-15.42,3.38a30.19,30.19,0,0,1-4.66-.37,35.12,35.12,0,0,0-5.55-.42c-1.14,0-2.32,0-3.54.14-.1,1-.21,1.92-.31,2.88-.32,3-.61,6-.68,8.89,0,1.32,0,2.65,0,4,0,5.15,0,11-2.16,16.48-.21,2.87-.81,11.67-.8,18.8l.12.42-.1.84c0,1.3,0,2.45.12,3.43a9.93,9.93,0,0,1,2,3,7.46,7.46,0,0,1,.62,3,6.52,6.52,0,0,1-.65,5.86,6.29,6.29,0,0,1-1.7,1.71,10.63,10.63,0,0,1-.59,1.6,11.88,11.88,0,0,1-8.11,6.72A26.55,26.55,0,0,1,114,242.5Zm105.22-82.35c.37-.87.76-1.7,1.14-2.5,0-2.55-.13-5.36-.3-8.36a61.06,61.06,0,0,0-1.8,9.6Z"/><path class="cls-3" d="M91.68,217.29c-.11,0,0-.19.11-.22a2.3,2.3,0,0,1,2.22.45,1.47,1.47,0,0,1,0,2.1,1.87,1.87,0,0,1-1.11.32,2.53,2.53,0,0,1-2-.69A1.36,1.36,0,0,1,91,217.3"/><path class="cls-4" d="M76.64,68.17,76,68.6C52.1,84.2,73.13,56.12,73.13,56.12,73.49,55.46,89,44.74,95,16v-.06a.73.73,0,0,1,1.44.11C96.94,28,95.85,55.42,76.64,68.17Z"/><path class="cls-5" d="M76.54,67.63c-.22.15-.34.83-.55,1-.49-.92-1-1.93-1.44-3C74.36,65.14,98,44.5,96,15.69c0,0,0,.52,0,.5.17-.84.44-1,.44-.16C96.52,27.8,95.75,54.88,76.54,67.63Z"/><path class="cls-4" d="M39.89,68.38l.62.47c22.75,17,3.58-12.29,3.58-12.29C43.78,55.88,29,44.25,24.84,15.18v0a.72.72,0,0,0-1.43,0C22.17,27,21.61,54.51,39.89,68.38Z"/><path class="cls-6" d="M23.4,15.15C22.61,26.89,21.74,54,40,67.85c.21.16.29.85.49,1,.54-.89,1.08-1.87,1.61-2.95.21-.41-21.93-22.42-18.23-51.06"/><path class="cls-7" d="M206,79.9c1,.76,28.13,21.35,21.11,96.66l-1-5.47s3.92-61.2-20.16-85.85Z"/><path class="cls-3" d="M172.73,207.86s1.88,12.22-8.87,13.06h-2.34a1.18,1.18,0,0,1-1.09-1.77l.49-.74-1.35.44a.48.48,0,0,1-.62-.66,73.09,73.09,0,0,1,6.84-9.49c5.66-6.86,10.57.17,10.57.17S174.72,212.05,172.73,207.86Z"/><path class="cls-3" d="M160.92,218.41c.91-2.6,3.26-5.44,5.26-7.45"/><path class="cls-7" d="M197.07,100a32.2,32.2,0,0,1-3.75,7.66c-7.78,12.61-11.54,26.8-12.66,41.26a4.46,4.46,0,0,0,.07,1.46,4.55,4.55,0,0,0,.85,1.47l4.16,5.48c1.86,2.46,3.81,5.21,3.43,8.19a11.67,11.67,0,0,1-1.1,3.25q-2.19,4.85-4.36,9.68c-4.51,10-7.2,20.32-10.17,30.78a8.52,8.52,0,0,1-6.84,0l-.76-.34c-.08,0-.17-.09-.15-.16s.07,0,.11,0l-.11-1.15s17.47-32.81,4.39-45.86a264.45,264.45,0,0,1-18.93-21.11c-2.38-2.94-4.18-5.23-5.41-6.67-3.45-4-13.44-2.34-15.8-1.17l61.34-47.48c2.14,1.92,4.34,3.92,5.46,6.48A12.11,12.11,0,0,1,197.07,100Z"/><path class="cls-8" d="M177,186.19c-2.7,7.89-4.73,16.47-9.62,23l-.77-.34c-.08,0-.16-.09-.14-.16s.07,0,.1,0l-.11-1.15s17.47-32.81,4.4-45.86a263,263,0,0,1-18.94-21.11c1.37-.47,2.79-.28,4.25-.47,15.44-2,40.82.13,16.51,16.3-3.9,2.59,6.38,7.2,7.46,11.89C181.48,174.27,178.94,180.38,177,186.19Z"/><path class="cls-3" d="M80.47,226.25a.8.8,0,0,1-.93-1.12,15,15,0,0,1,8-7.63l3.55-1.36-.22,7.36Z"/><path class="cls-3" d="M82,229.07A.93.93,0,0,1,81,227.75a14.92,14.92,0,0,1,7.85-7.36l2.24-.86c.62-.23,1.59-3.17,1.57-2.51l1.84,3.13a7.36,7.36,0,0,1-1.88,5.23c-.16.16-.1.9-1.11,1.19Z"/><path class="cls-3" d="M115.63,224.92s-2.37,6.14-5.07,7.69,3.14,5.06,10.79-.14l.85-7.56s3.76,2.53,2.83.31-5.19-4-5.19-4Z"/><path class="cls-3" d="M116,227.32s-2.37,6.14-5.07,7.69c-1.92,1.09,2.37,2.2,7.75.91a6,6,0,0,0,3.89-8.61h0s3.76,2.52,2.82.31-5.19-4-5.19-4Z"/><path class="cls-7" d="M101.26,166c-3.3,7.14-1.42,31.59-4.39,35.72s-2.59,8.59-3.9,14.16a5.38,5.38,0,0,1-4.68,4.47,1.7,1.7,0,0,1-1.46-.46,1.77,1.77,0,0,1-.53-1.48L88,203.92a1.85,1.85,0,0,0-.25-1.17c-1.42-2.18-.91-8.28-.84-9v-.14c.28-9.76-6.2-33.12-8.19-38.31-.35-.91,3.24-.23,5-.1a4.33,4.33,0,0,0,.71,0C90.46,154.43,104,160.19,101.26,166Z"/><path class="cls-8" d="M91.52,204.17a29.43,29.43,0,0,1-1.06,5.15l-2.82,10.57a1.75,1.75,0,0,1-.54-1.48l1.66-14.49a1.73,1.73,0,0,0-.25-1.17c-1.42-2.18-.91-8.28-.84-9v-.14c.28-9.76-6.19-33.12-8.19-38.31-.35-.91,3.24-.23,5-.1,0,.27.1.52.15.73,1.65,7,3,14,4.3,21.07.71,3.9,1.39,7.8,2.07,11.71a40.59,40.59,0,0,1,.74,6.12c0,1.63-.13,3.27-.15,4.91C91.57,201.23,91.65,202.7,91.52,204.17Z"/><path class="cls-7" d="M210,121.68c-.64,16.32-4.31,31-15.88,28.27-22.79-5.43-35,11.21-51.68,8.53s-34.72,6.36-34.72,6.36c-28.42,10-40.15-23.43-40.33-28.79s-5.26-24.26-5.26-24.26C59.79,105.51,62.42,99.1,66,94c.81-1.17,1.68-2.27,2.54-3.3a54.37,54.37,0,0,1,7.53-7.32c6.18-17.74,20-27.28,28.71-24.94,6.55,1.77,5.71,7.89,6,12.31a6.66,6.66,0,0,0,1,3.59c2.72,3.52,16.17,5,16.17,5,35.6,6.3,55.95-5.47,67-4.13S207.59,83,207.59,83,210.68,103.36,210,121.68Z"/><path class="cls-8" d="M110.5,71.37a9.79,9.79,0,0,0-1.64-6c-1-1.66-3.44-1.79-5.38-1.89a12.31,12.31,0,0,0-5.62,1.32c-6.74,3-12,9-15.07,15.83C81.19,84.11,80,88,77,90.45a18.46,18.46,0,0,1-5.74,2.8c-1.75.61-3.5,1.23-5.26,1.81.79-1.17,1.65-2.27,2.5-3.3a53.5,53.5,0,0,1,7.4-7.32C82,66.7,96.07,56.81,104.64,59.15c6.44,1.77,5.52,7.8,5.86,12.22Z"/><path class="cls-8" d="M210.28,121.22c-.64,16.32-4.31,31-15.89,28.27-22.79-5.43-35,11.21-51.68,8.53S108,164.38,108,164.38C79.58,174.43,67.85,141,67.67,135.6s-5.27-24.27-5.27-24.27c-2.82-7.7,1.79-15.61,6.46-21.13,1.79,5,1.57,11.77,2.84,16.37,2.15,7.86,5.7,15.26,8.08,23,2.2,7.21,3.72,15.39,9.74,19.92,5.09,3.82,12.09,3.89,18.31,2.57s12.15-3.87,18.44-4.76c9.9-1.41,20.12,1.32,29.92-.63,7.48-1.48,14.39-5.64,22-6,4.42-.22,8.9.86,13.24,0,5.7-1.16,10.24-5.55,13.51-10.37C206.91,127.39,208.55,124.27,210.28,121.22Z"/><path class="cls-3" d="M203.52,218.56s1.88,12.22-8.87,13.06h-2.34a1.18,1.18,0,0,1-1.09-1.77l.49-.74-1.35.44a.48.48,0,0,1-.62-.66,73.09,73.09,0,0,1,6.84-9.49c5.66-6.86,10.57.17,10.57.17S205.51,222.75,203.52,218.56Z"/><path class="cls-3" d="M191.71,229.11c.91-2.6,3.26-5.44,5.26-7.45"/><path class="cls-7" d="M204.31,78.33a29.45,29.45,0,0,1,7.41,7.58c5.85,8.19,10.43,20.33,10,30.59-.56,14.58-8.38,28.18-9.5,42.64a4.14,4.14,0,0,0,.06,1.45,4.66,4.66,0,0,0,.86,1.47l4.15,5.49c1.87,2.45,3.82,5.21,3.44,8.19a12,12,0,0,1-1.1,3.25l-4,8.89-.36.78c-4.5,10-7.2,20.32-10.16,30.79a8.86,8.86,0,0,1-7.61-.36c-.08,0-.16-.09-.14-.17s.07,0,.11,0l-.11-1.14s17.47-32.81,4.39-45.86-20.89-23.77-24.35-27.78-13.43-2.35-15.79-1.18"/><path class="cls-9" d="M211.48,159.14a4.14,4.14,0,0,0,.06,1.45,4.47,4.47,0,0,0,.86,1.47l4.15,5.49c1.86,2.45,3.82,5.21,3.43,8.19a11.64,11.64,0,0,1-1.09,3.25c-1.34,3-2.68,5.92-4,8.89a77.09,77.09,0,0,0,1.51-7.89c.58-5.8-1.58-10.46-7.1-19.16s2.85-21.76,7.1-45.85a42.34,42.34,0,0,0-5.45-29.07c5.85,8.19,10.43,20.33,10,30.59C220.42,131.08,212.6,144.68,211.48,159.14Z"/><path class="cls-7" d="M130,136.06q-2.33,15.1-3.93,30.32c-.33,3.12-.64,6.24-.72,9.37-.17,6.48.58,13.28-2.1,19.19,0,0-1,12-.88,21.07,0,0,0,.05,0,.07,0,1.94.09,3.73.22,5.24a0,0,0,0,1,0,0h0a15.09,15.09,0,0,0,.66,3.65s-5,3.21-6.65.45,1.18-20.1-1.7-30.11c0,0-1.91.41-3.2-10.06s-9.38-40.77-9.38-40.77"/><path class="cls-9" d="M121.39,215.87c-.3-6.24-.88-16-1.69-18.37-1.21-3.54,3-8.88,2.67-19.9-.29-8.59,5.26-31.33,6-41.06l.6-.62q-2.31,15.12-3.93,30.33c-.33,3.11-.64,6.23-.72,9.36-.17,6.49.58,13.28-2.09,19.2C122.28,194.81,121.31,206.8,121.39,215.87Z"/><path class="cls-3" d="M227.91,154.56l.52-1.35c-.59,3.46-2.52,6.52-3.85,9.77-2.09,5.13-2.61,11.12-.27,16.14.82,1.76,2,3.35,2.81,5.09a17.09,17.09,0,0,1,.67,13.11,31.43,31.43,0,0,0,10.07-21.52,12.8,12.8,0,0,0-.43-4.45c-1.06-3.28-4.06-5.5-5.92-8.4-2.19-3.4-2.7-7.58-2.91-11.62"/><path class="cls-8" d="M74.55,126.68s5-10.87,4.91-42.08l3-6.13s5.37,45.61-4.84,51.6h0L73,128.23"/><ellipse class="cls-10" cx="65.04" cy="118.02" rx="2.05" ry="3.04"/><path class="cls-11" d="M86.31,102.67c0,19.73-6.6,35.73-14.73,35.73s-14.73-16-14.73-35.73a71.27,71.27,0,0,1,3.61-23.44,92.78,92.78,0,0,0-1.62,20.56c.51,19.73,6.23,35.62,12.76,35.5S83,119.08,82.51,99.35c-.35-13.34-3.07-24.92-6.82-31C81.82,72.68,86.31,86.4,86.31,102.67Z"/><path class="cls-12" d="M77.57,68.85s9.71-2.2,26.68,15.07a1.36,1.36,0,0,1-.37,2.17c-3.54,1.71-12.85,4.4-25.56-5.66L77.57,68"/><path class="cls-13" d="M102.36,85.75a.61.61,0,0,0,.1-1.2,23.64,23.64,0,0,1-11.68-6.67c-4.73-5.21-11.61-6.62-14.35-7a.61.61,0,0,0-.6.93C78.07,75.47,86.63,87.34,102.36,85.75Z"/><path class="cls-12" d="M42.51,68.31s-10.57-2.21-29,15.23a1.16,1.16,0,0,0,.29,1.89c3.58,1.69,13.63,4.71,27.47-5.21a1.18,1.18,0,0,0,.49-.87l.78-11.88"/><path class="cls-13" d="M15.44,85.14a.49.49,0,0,1,0-1c3.44-.72,9.1-2.51,13.35-6.82,6.52-6.64,16.82-7.11,16.82-7.11S36.05,87.52,15.44,85.14Z"/><path class="cls-7" d="M79.24,89.44c-7.35,23.42-13.06,25.41-13.06,25.47s-2.79.08-6.31,0h0C54.4,114.66,47.19,114,46,112c-2-3.27-.88-4.64-6.52-22.19C32.18,67.21,42,67,42.91,61.21c1-6.46.5-5.82,0-6.35,2.54.76,5.87-.42,7.63-1.65C56.85,48.83,60.68,49.67,63,50.5c3.59,1.3,7.31,4.36,10.65,4.36.87,0,1.3,1.43,3.93,7.38A36,36,0,0,1,79.24,89.44Z"/><path class="cls-8" d="M60.23,116c-5.46-.2-12.68-.86-13.89-2.85-2-3.27,0-5.9-6.05-22.93C32.53,68.36,42,68,42.91,62.22c1-6.46,1.41-6.26.9-6.78,3,.5,6.16-1.3,7.92-2.23.17,1.24,1,6,.91,7.53-.17,6.45-7.7,8.17-4.93,13.54.94,1.83,3.51,6.1,4.18,10,.77,4.51-4.75,13.26-3.32,17.6,1.77,5.32,4.55,11,9.81,12.93A3.46,3.46,0,0,1,60.23,116Z"/><ellipse class="cls-14" cx="57.11" cy="126.51" rx="7.93" ry="5.02"/><ellipse class="cls-15" cx="57.11" cy="123.03" rx="7.93" ry="5.02"/><path class="cls-16" d="M55.15,114.29c3,.3,5.71-1.54,8.49-2.65,1.18-.47,2.63-.77,3.62,0a3.29,3.29,0,0,1,.89,1.33c1.47,3.43.85,7.36.21,11a3.25,3.25,0,0,1-1,2.15c-1.07.79-2.54,0-3.74-.57a11.34,11.34,0,0,0-6-1c-3.09.31-6,1.89-9.09,1.89-3.38,0-4.5-2.28-5.12-5.19-.38-1.82-1.37-4.13-.9-6C44.22,108.58,51.36,113.91,55.15,114.29Z"/><ellipse class="cls-15" cx="48.48" cy="118.53" rx="2.17" ry="3.22" transform="translate(-22.35 11.84) rotate(-11.34)"/><ellipse class="cls-15" cx="64.36" cy="118.29" rx="3.22" ry="2.35" transform="matrix(0.17, -0.98, 0.98, 0.17, -63.32, 161.09)"/><path class="cls-17" d="M78,82.9c-.66,4.37-3.12,6.1-5.66,6.1-3.12,0-5.26.48-5.71-4.23-.6-6.22,3.5-9.42,6.62-9.42S78.59,79.09,78,82.9Z"/><ellipse class="cls-18" cx="72.74" cy="82.62" rx="3.53" ry="4.36"/><ellipse class="cls-19" cx="73.64" cy="79" rx="0.9" ry="1.12"/><path class="cls-17" d="M38.54,82.69c.66,4.36,3.12,6.1,5.66,6.1,3.13,0,5.27.47,5.72-4.24.59-6.22-3.51-9.42-6.63-9.42S38,78.87,38.54,82.69Z"/><ellipse class="cls-18" cx="43.81" cy="82.4" rx="3.53" ry="4.36"/><ellipse class="cls-19" cx="42.91" cy="78.78" rx="0.9" ry="1.12"/><path class="cls-20" d="M78.39,152.4c0,2.51-.86,3.4-2.25,3.67a16.88,16.88,0,0,1-3.81,0c-.52,0-1.07-.06-1.63-.06-.76,0-1.48.05-2.17.1-3.19.21-5.52.46-5.52-3.67,0-5,3.44-12.29,7.69-12.29a4,4,0,0,1,1.63.36C75.8,142,78.39,148,78.39,152.4Z"/><path class="cls-21" d="M78.08,152.3c0,2.42-1.17,3.12-2.49,3.38-.65-.05-1.33-.09-2-.09-.53,0-1,0-1.54,0a14.44,14.44,0,0,1-3.61-.18c-1.32-.26-2.11-.9-2.11-3.32,0-4.21,1.71-10.21,5-11.67C75.64,141.69,78.08,148.09,78.08,152.3Z"/><ellipse class="cls-22" cx="75.4" cy="147.99" rx="1.72" ry="3.69" transform="translate(-27.62 17.71) rotate(-11.34)"/><ellipse class="cls-15" cx="70.82" cy="139.16" rx="2.32" ry="1.31"/><ellipse class="cls-15" cx="70.82" cy="136.69" rx="1.31" ry="2.32"/></svg>