<svg id="Layer_54" data-name="Layer 54" xmlns="http://www.w3.org/2000/svg" viewBox="0 0 512 256"><defs><style>.cls-1,.cls-7{opacity:0.5;}.cls-2{fill:#fff;}.cls-3{fill:#a4d4e8;}.cls-3,.cls-5,.cls-8{stroke:#007771;stroke-miterlimit:10;stroke-width:2px;}.cls-4,.cls-9{fill:#a2def9;}.cls-5{fill:#d8f0f6;}.cls-6{fill:#bfe7fb;}.cls-7{fill:#b5dff2;}.cls-7,.cls-9{isolation:isolate;}.cls-11,.cls-8{fill:#93c4d6;}.cls-9{opacity:0.6;}.cls-10{fill:#5bcbf5;}.cls-12{fill:#d1eaf1;}</style></defs><path class="cls-1" d="M214,219c-26.14,0-49.26-3.17-63.08-5.06-3.68-.51-6.59-.91-8.55-1.1-7.43-.75-13.75-4.46-16.9-9.92a12,12,0,0,1-1.34-9.79h0c-3.33-.81-8.77-2.82-8.88-8.37-.12-6.11,6.24-9.39,17.28-13,5.57-1.82,11.06-3.21,13-3.68-.28-15.36,2.27-40.89,20.95-50.16C175.09,85,200.68,47.22,272.62,47a126.14,126.14,0,0,1,48.47,11.42c22.46,10.5,50.08,33,54.06,80.25,0,.1,0,.19,0,.29l.77,22.12.14,4.92a11.06,11.06,0,0,0,2.24,1.09L379,167c.89-.07,2.1-.17,3.54-.17a27.3,27.3,0,0,1,19.53,8c5.37,5.17,5,10.22,4.27,12.78-2.09,7.53-11.2,11.21-14.23,11.9-2.37.55-23.12,4.55-27.8,4.55-3.3,0-12,1.47-14.06,2.53-3.42,2.63-13.53,7.54-18.69,9-6.06,1.78-38.53,3-41.16,3l-3.78,0c-4.18,0-11.15-.07-20-.07-16.36,0-32,.14-46.64.42C218,219,216,219,214,219Z"/><path class="cls-2" d="M209,214c-26.14,0-49.26-3.17-63.08-5.06-3.68-.51-6.59-.91-8.55-1.1-7.43-.75-13.75-4.46-16.9-9.92a12,12,0,0,1-1.34-9.79h0c-3.33-.81-8.77-2.82-8.88-8.37-.12-6.11,6.24-9.39,17.28-13,5.57-1.82,11.06-3.21,13-3.68-.28-15.36,2.27-40.89,20.95-50.16C170.09,80,195.68,42.22,267.62,42a126.14,126.14,0,0,1,48.47,11.42c22.46,10.5,50.08,33,54.06,80.25,0,.1,0,.19,0,.29l.77,22.12.14,4.92a11.06,11.06,0,0,0,2.24,1.09L374,162c.89-.07,2.1-.17,3.54-.17a27.3,27.3,0,0,1,19.53,8c5.37,5.17,5,10.22,4.27,12.78-2.09,7.53-11.2,11.21-14.23,11.9-2.37.55-23.12,4.55-27.8,4.55-3.3,0-12,1.47-14.06,2.53-3.42,2.63-13.53,7.54-18.69,9-6.06,1.78-38.53,3-41.16,3l-3.78,0c-4.18,0-11.15-.07-20-.07-16.36,0-32,.14-46.64.42C213,214,211,214,209,214Z"/><path class="cls-3" d="M142.61,168.77s-41.16,9.8-20.58,13.85c0,0,4.62,3.38,2.94,7.09s2.94,11.14,13,12.16,41.57,6.75,76.85,6.07,65.93-.33,70.55-.33,34.85-1.35,39.47-2.7,14.28-6.08,16.8-8.11,13.85-3.71,17.63-3.71,23.52-3.72,26.46-4.39,15.54-6.42,7.14-14.52-17.22-6.08-19.74-6.08-6.3-2.7-6.3-2.7Z"/><path class="cls-4" d="M364.94,156.29l-.77-22.12C356.9,47.77,267.63,48,267.63,48c-99.08.31-106.12,74.18-104,108.45.23,4.18.61,7.81,1,10.6,23.44,2,59.64,3.32,100.17,3.32,40.77,0,77.05-1.31,100.48-3.32Z"/><path class="cls-5" d="M364.94,156.29l-.77-22.12C356.9,47.77,267.63,48,267.63,48c-99.08.31-106.12,74.18-104,108.45.23,4.18.61,7.81,1,10.6,23.44,2,59.64,3.32,100.17,3.32,40.77,0,77.05-1.31,100.48-3.32Z"/><path class="cls-6" d="M233.06,170.29c.08-7.73-.47-27.53-8.74-41.15-6-9.9-14.08-12.22-20-12.37l-32.64.07-.39,53.45Z"/><path class="cls-5" d="M233.06,170.29c.08-7.73-.47-27.53-8.74-41.15-6-9.9-14.08-12.22-20-12.37l-32.64.07-.39,53.45Z"/><path class="cls-7" d="M224.39,129.07c-4.48-7.43-10.13-10.6-15.08-11.68.31.07.7.3,1,.38a28.18,28.18,0,0,1,3.63,2,17.26,17.26,0,0,1,2.79,2.94,19.12,19.12,0,0,1,1.78,2.48,4.15,4.15,0,0,1,.92,2.32c-.07.62-.92.77-1.47.93a3.45,3.45,0,0,0-.92.23,7.73,7.73,0,0,1,2.32.23,3.48,3.48,0,0,1,2.09,2.4,59.56,59.56,0,0,1,3.71,14.08c0,.07,0,.23-.08.23a45.14,45.14,0,0,1-5.8,2.4,9,9,0,0,1,4.64.93c1.39.61.93,1.31,1.24,2.7.69,3.64,1.62,7.58.93,11.3-.24,1.39-16.63,3.86-16.94,2.7-.62-2.39-1.32-4.72-2.09-7-.78-2.63-1.7-5.1-1.78-7.89a.83.83,0,0,1,.08-.23c2-.62,4.33-.46,6.11-1.62a19.19,19.19,0,0,0-4.72.08c-1.24.07-2.94.23-3.87-.47a4.1,4.1,0,0,1-1.47-2.71c-.39-1.31-.7-2.7-1-4.1-.39-1.78-1.32-3.48-1.78-5.33-.31-.93-.62-1.94-.93-2.94-.08-.31-.31-.62-.23-.93.23-.93,1.62-1.47,2.32-1.78a39.19,39.19,0,0,1,4-1.08c-2.71-.93-5.88.62-8.59-.78a8,8,0,0,1-2.7-2.63,25.87,25.87,0,0,0-3.33-3.09,29.28,29.28,0,0,0-13.61-6.19H172.1l-.38,53.45h61.72C233.21,162.48,232.59,142.83,224.39,129.07Z"/><path class="cls-5" d="M201.73,170.29c.08-7.73-.46-27.53-8.74-41.15-10.44-17.32-27.46-11.45-27.46-11.45-18.41,7.74-20,36.05-18.64,52.53h54.84Z"/><path class="cls-4" d="M190.82,170.29c.08-5.8-.38-20.49-5.88-30.63-7-12.92-18.41-8.51-18.41-8.51C154.16,136.88,153,158.07,154,170.29Z"/><path class="cls-8" d="M190.44,170.29c.07-5.57-.31-20.11-5.8-30-6.89-12.61-18-8.28-18-8.28-12.14,5.57-13.22,26.3-12.22,38.37h36.05Z"/><path class="cls-9" d="M217.74,128.06a17.91,17.91,0,0,0-12.68-11.45l-2.32.23C211.71,118,217.74,128.06,217.74,128.06Z"/><path class="cls-9" d="M226.41,148c2.63-.62,4.1-1.09,4.1-1.09l-14.93,1a51,51,0,0,0-4.41-18c8.27-.7,12.37-2.17,12.37-2.17L199,129.37a20.72,20.72,0,0,0-14.38-12.84l-2.63.31c9.51,1.09,16.08,11.14,16.94,12.53l-6.5.39a140.7,140.7,0,0,0,17,.23c3.32,5.19,5.33,14.86,5.87,17.95L199,149c1.47.31,3,.39,4.48.62l4.88,19.73a112,112,0,0,0-3-19.65,78.19,78.19,0,0,0,19.65-1.63l3.71,15A89,89,0,0,0,226.41,148Z"/><polygon class="cls-4" points="147.27 163.1 153.69 163.41 153.69 161.79 147.27 163.1"/><polygon class="cls-4" points="148.28 149.72 154.31 152.04 154.78 150.49 148.28 149.72"/><polygon class="cls-4" points="152.69 131 159.42 137.96 158.65 138.97 152.69 131"/><polygon class="cls-4" points="167.93 118.47 168.24 130.69 169.94 130.38 167.93 118.47"/><polygon class="cls-4" points="179.84 133.55 181.08 134.71 187.03 127.52 179.84 133.55"/><polygon class="cls-4" points="187.65 146.47 188.04 147.63 196.24 144.38 187.65 146.47"/><polygon class="cls-4" points="190.51 160.63 190.67 161.79 199.33 160.7 190.51 160.63"/><path class="cls-10" d="M156,126.9a32.4,32.4,0,0,0-2.33,3.09c.93,1.24,1.94,2.4,2.94,3.64a29,29,0,0,1,13.15-12.84C169.71,120.79,162.59,119.24,156,126.9Z"/><path class="cls-10" d="M151.61,149.33A53.59,53.59,0,0,1,155,136.8c-1.08-1-2.17-2.09-3.17-3.17a53.61,53.61,0,0,0-3.71,14.62A30.92,30.92,0,0,0,151.61,149.33Z"/><path class="cls-10" d="M150.68,161.71a87.69,87.69,0,0,1,.46-9.44c-1.08-.31-2.32-.62-3.4-.93a105.7,105.7,0,0,0-.39,10.91A11.11,11.11,0,0,0,150.68,161.71Z"/><path class="cls-10" d="M147.58,164.8c.08,1.78.24,3.41.39,4.88l3.17-.39s-.23-1.94-.38-4.87A24.53,24.53,0,0,1,147.58,164.8Z"/><path class="cls-10" d="M169.71,111.27S177.52,51.64,264.08,49c0,0-20,2.08-34.43,7,0,0-8.89,2.48-10.44,4.1l7.74.08L213.72,62S199,69.74,194.07,76.08l15,3.17-16.63-.77S184,88.69,180.61,98.67l6.89.69-8.12.7-4,10.6Z"/><path class="cls-10" d="M363.24,145.62a2.1,2.1,0,0,1,.39-.08A1,1,0,0,1,363.24,145.62Z"/><path class="cls-10" d="M335.86,78.4a4.59,4.59,0,0,1,.7-.08A2.31,2.31,0,0,0,335.86,78.4Z"/><path class="cls-10" d="M317.6,151.58a324.93,324.93,0,0,0,45.64-6c-1.62.31-7.89,1.47-20.73,2.79.47-11.22-.08-22.05-.23-24.52,5.72-.78,11.29-1.78,16.63-2.94,0,0-33.42,5.57-131,4.33,0,0,3,.31,8.12.62l1,20.5L238.86,126c11,.7,29.16,1.63,49.58,1.39l1.32,19.5,1-19.65A436.1,436.1,0,0,0,339.65,124c1.7,5.88,2.63,21.19,2.78,24.13-19.41,1.94-53.76,4-108.68,3.33,0,0,11.53.77,28.86,1.08l.69,17.33,1-17.25c14.39.23,32.56.08,51.05-1.08l.62,17.09Z"/><path class="cls-10" d="M192.06,98.59s6.58-14.62,9.83-18.33c8.81.77,22.74,2,39.14,2.7-.47,2.63-2.09,11.14-1.78,18.8,0,0,1.93-13.54,4-18.8,12.68.47,26.92.7,41.23.31l3.17,18.26-.93-18.33a326.81,326.81,0,0,0,39.37-3.33c.78,1.39,6.73,11.91,9.13,19.34,0,0-2.09-11.61-7-19.73,2.63-.38,5.11-.77,7.58-1.31-1.08.23-3.63.62-7.81,1.08v-.08l-.62.08c-16.71,1.93-58.09,4.72-135.68-.31,0,0,2.4.31,6.58.7C197.86,81,193.69,90.08,192.06,98.59Z"/><path class="cls-10" d="M222,78.4s6.49-13.92,11-18.64c8.12.69,18.41,1.39,29.55,1.62l1,18.64L264,61.38a255.56,255.56,0,0,0,29.63-1.31c2.08,2.39,8.81,10.67,11.21,17.48,0,0-3.17-11.91-8.58-17.79,4.48-.62,9-1.32,13.3-2.17,0,0-24.52,4.64-93.6.31,0,0,5.8.93,15.09,1.7A56.64,56.64,0,0,0,222,78.4Z"/><path class="cls-10" d="M255.1,49.47l-1.62.08s-4.1,5.1-5.57,10.28C247.91,59.91,252.24,52.18,255.1,49.47Z"/><path class="cls-10" d="M278.77,59.53c-1.47-5.19-5.57-10.29-5.57-10.29l-1.62-.08C274.52,51.87,278.77,59.53,278.77,59.53Z"/><path class="cls-10" d="M262.22,104.62l.7,17.64L264,104.62c15.08.08,31-.23,46.57-1.24.69,1.94,2.47,7.58,4.1,19.42,0,0-.47-13.38-1.94-19.49,6.81-.47,13.62-1.09,20.19-1.94,5.57-.46,13.15-1.62,16.79-1.78,1-.07,1.7,0,2.39,0a71.18,71.18,0,0,1,6.11,19s-1.62-11.61-4.79-18.65c.62.24.93.39,1.08.62l-1.31-2.94c-3.72.78-15.09,2.4-19.81,3.1-25.06,2.16-74.64,4.33-157-1,0,0,15.08,1.7,37.75,3.1-.31,1.47-2,9.9-1.71,15.62l4.1-15.55C229.89,103.85,245.59,104.47,262.22,104.62Z"/><path class="cls-10" d="M355.12,100.52l.23.62C355.43,101.06,355.43,100.83,355.12,100.52Z"/><path class="cls-11" d="M156.4,162.33l30.17-1S168.31,164.11,156.4,162.33Z"/><path class="cls-11" d="M157.64,151.73,187,151C187,150.8,169.32,153.28,157.64,151.73Z"/><path class="cls-11" d="M160.19,139.12l21.12-.62A83.26,83.26,0,0,1,160.19,139.12Z"/><path class="cls-11" d="M166.15,139.12a24.25,24.25,0,0,0-3.33,12.38s-1.08-8.05,1.94-12.38Z"/><path class="cls-11" d="M180.54,138.66A24.24,24.24,0,0,0,177.21,151s-1.08-8,1.93-12.37Z"/><path class="cls-11" d="M171.64,138.89s2.09-5.11,4.49-6.73c0,0-2.94,3.33-3.41,6.73Z"/><path class="cls-11" d="M169.24,151.88a70.32,70.32,0,0,0,0,10.52l.93-10.59Z"/><path class="cls-11" d="M162.36,162.71l-.23,6.81s-1.32-6.88-1.09-6.88C161.2,162.48,162.36,162.71,162.36,162.71Z"/><path class="cls-11" d="M177.91,162.09l-.24,7.43s-1.31-7.5-1.08-7.58S177.91,162.09,177.91,162.09Z"/><path class="cls-11" d="M184.71,150.88c0,.23-1.23,6.42-1.08,10.44,0,0-.77-7.11-.31-10.29Z"/><path class="cls-12" d="M132.75,190.27s19.27-5.17,27.92-4.5,14.8,2,19,1.58,35.19-3.15,37.7-1.8L216,183.74s40.49-3.15,47.19-2.25,47.48-.9,51.11-1.35,53.62-3.6,57.53-4.95,2.51-3.3,1.4-5c0,0,6.23,0,7.54,4.81s-27.19,10.5-27.19,10.5-36.67,5.25-36.11,8.11c0,0-3.91,1.65-21.79,3.3s-42.07,2.4-45.43,4.2-50.82,1.35-58.64.6-29.6-1.2-35.75-5l-12.1-2.55C140.19,193.42,132,192.37,132.75,190.27Z"/></svg>