<svg id="Layer_54" data-name="Layer 54" xmlns="http://www.w3.org/2000/svg" viewBox="0 0 256 256"><defs><style>.cls-1{opacity:0.5;}.cls-2,.cls-3,.cls-4{fill:#fff;}.cls-3,.cls-4{stroke:#1f4f00;stroke-miterlimit:10;stroke-width:2px;}.cls-107,.cls-3{opacity:0.2;}.cls-5{fill:#bfbfbf;}.cls-6{fill:#969797;}.cls-7{fill:#c0bfbf;}.cls-8{fill:#e4e3e3;}.cls-9{fill:#e4e5e5;}.cls-10{fill:#3e1d06;}.cls-11{fill:#2d2d2d;}.cls-12{fill:#80b54e;}.cls-13{fill:#0b4712;}.cls-14{fill:#6da541;}.cls-15{fill:#5c8c31;}.cls-16{fill:#052d05;}.cls-17{fill:#6ca441;}.cls-18{fill:#5b8b31;}.cls-19{fill:#9b5e34;}.cls-20{fill:#593113;}.cls-21{fill:#683919;}.cls-22{fill:#7b441f;}.cls-23{fill:#547c29;}.cls-24{fill:#fefefe;}.cls-25{fill:#7a441e;}.cls-26{fill:#2e2d2d;}.cls-27{fill:#062e05;}.cls-28{fill:#062d05;}.cls-29{fill:#537b29;}.cls-30{fill:#6ca340;}.cls-31{fill:#673817;}.cls-32{fill:#072d05;}.cls-33{fill:#547b29;}.cls-34{fill:#537828;}.cls-35{fill:#56822d;}.cls-36{fill:#547a29;}.cls-37{fill:#623515;}.cls-38{fill:#633515;}.cls-39{fill:#542c10;}.cls-40{fill:#994333;}.cls-41{fill:#a24b3b;}.cls-42{fill:#7e3935;}.cls-43{fill:#833832;}.cls-44{fill:#7a3b34;}.cls-45{fill:#7b3831;}.cls-46{fill:#7c322c;}.cls-47{fill:#7d3934;}.cls-48{fill:#883736;}.cls-49{fill:#9c483c;}.cls-50{fill:#793931;}.cls-51{fill:#9e4a3d;}.cls-52{fill:#9c4635;}.cls-53{fill:#984132;}.cls-54{fill:#7b342c;}.cls-55{fill:#adb79d;}.cls-56{fill:#813832;}.cls-57{fill:#7a3631;}.cls-58{fill:#acb89d;}.cls-59{fill:#76332c;}.cls-60{fill:#773631;}.cls-61{fill:#823b36;}.cls-62{fill:#883832;}.cls-63{fill:#adb79c;}.cls-64{fill:#8e3938;}.cls-65{fill:#7d332c;}.cls-66{fill:#88312d;}.cls-67{fill:#8ba391;}.cls-68{fill:#a24a3b;}.cls-69{fill:#afbda5;}.cls-70{fill:#9fc3b4;}.cls-71{fill:#acad9b;}.cls-72{fill:#8f2e2e;}.cls-73{fill:#963538;}.cls-74{fill:#983538;}.cls-75{fill:#a7beb3;}.cls-76{fill:#b7c5b0;}.cls-77{fill:#95b7a7;}.cls-78{fill:#9eb6a9;}.cls-79{fill:#943733;}.cls-80{fill:#8e3633;}.cls-81{fill:#913733;}.cls-82{fill:#9a3839;}.cls-83{fill:#973839;}.cls-84{fill:#993839;}.cls-85{fill:#9d393a;}.cls-86{fill:#942f2e;}.cls-87{fill:#9d2f2f;}.cls-88{fill:#902f2e;}.cls-89{fill:#93302e;}.cls-90{fill:#8f2f2d;}.cls-91{fill:#932f2e;}.cls-92{fill:#97302e;}.cls-93{fill:#9a3537;}.cls-94{fill:#97a137;}.cls-95{fill:#b2c3a4;}.cls-96{fill:#b5c8b0;}.cls-97{fill:#b5ccb0;}.cls-98{fill:#b2cbae;}.cls-99{fill:#8e3432;}.cls-100{fill:#ae3d3a;}.cls-101{fill:#155918;}.cls-102{fill:#7fb54e;}.cls-103{fill:#5b8e2f;}.cls-104{fill:#ffeee3;}.cls-105{fill:#f43247;}.cls-106{fill:#4e2d18;}.cls-107{fill:#ffaec1;}</style></defs><g class="cls-1"><path d="M236.23,139.05l-2.48-.17L232.12,137a6.56,6.56,0,0,1-1.62-4.67,8.18,8.18,0,0,1,0-1.4,7.78,7.78,0,0,1,0-1.45,7.32,7.32,0,0,1,0-1.32,6.68,6.68,0,0,1,1.49-4.69l1.5-1.84,2.76-.38h.95l.56.09,5,.86v16.08l-5.79.8Z"/><path d="M105.82,217.22C80,217.22,57,210.77,44.14,200c-22.7-19.12-25-39.12-25.1-40l-.77-7.41,6.06.68,3.53.07h1.49c.79,0,1.87,0,3.2,0l49.31-14.72c0-.18-.07-.36-.1-.54a83,83,0,0,1-1.19-8.76,86.26,86.26,0,0,1-.19-11.5c.12-2.42.35-4.92.72-7.62a65.85,65.85,0,0,1,13.34-32,79.15,79.15,0,0,1,12.13-12.47c-.12-.17-.23-.35-.34-.54a12.08,12.08,0,0,1-1.68-6.74,6.43,6.43,0,0,1,6-6.37,15.4,15.4,0,0,1,1.69-.09c.84,0,1.61.06,2.29.1l.26,0c1.17.08,2.29.19,3.38.33a11.91,11.91,0,0,1,6.57-5.93,14.6,14.6,0,0,1,5.23-1,13.32,13.32,0,0,1,4,.62,12.21,12.21,0,0,1,3.9,2l2-.77.41.37c.77-.25,1.55-.49,2.37-.73,1.56-.46,2.88-.8,4.15-1.07l2.27-.48.13,0a10.22,10.22,0,0,1,3.54-1l.28,0c1.06-.15,2.13-.28,3.2-.4l.19,0c.42,0,.85-.07,1.27-.1l.44,0c1.39-.1,2.81-.16,4.21-.16.79,0,1.57,0,2.35,0,2.18.1,4.16.26,6.06.51a69.17,69.17,0,0,1,6.93,1.29l.11,0c2,.52,3.75,1,5.36,1.57,2.46.85,4.66,1.69,6.72,2.59,1.39.61,2.89,1.28,4.37,2,2.41,1.25,4.54,2.44,6.49,3.65a89.28,89.28,0,0,1,7.4,5.13c1.18.92,2.32,1.86,3.37,2.75,2.56,2.17,4.87,4.52,6.84,6.54.75.78,1.54,1.65,2.45,2.75l.53.62c.59.7,1.19,1.4,1.75,2.13l.56.71c.6.77,1.2,1.53,1.77,2.32.84,1.17,1.83,2.57,2.79,4.09.5.79,1,1.57,1.47,2.36l.34.55c.08.14.16.28.23.42.42.64.73,1.23,1,1.73l.25.46c1.09,2,2.14,4.07,3.11,6.22a88.29,88.29,0,0,1,4.09,10.89c.61,2,1.17,4.17,1.65,6.3s.82,4.13,1.09,5.84.47,3.5.63,5.12c.06.61.1,1.22.14,1.83l0,.53c.15,2.23.21,4.57.18,7a12.16,12.16,0,0,1-.07,1.41,28.8,28.8,0,0,1-.13,3.06l0,.37c-.1,1.26-.24,2.55-.4,3.85-.34,2.68-.79,5.29-1.32,7.76-.47,2.15-1.07,4.44-1.85,7-.5,1.64-1.08,3.2-1.63,4.7l0,.1a74.54,74.54,0,0,1-3.18,7.17,4.44,4.44,0,0,1-.24.45,6.77,6.77,0,0,1-1.14,1.54c-.17.32-.33.6-.46.83l-.12.19c-1.36,2.41-2.58,4.36-3.83,6.15s-2.33,3.23-3.46,4.61c-.7.86-1.43,1.7-2.15,2.54l-.38.44c-.26.3-.54.59-.82.88a6.9,6.9,0,0,1-1.38,1.94c-1.55,1.57-3.13,3-4.7,4.38l-1.74,1.44-.81.65a6.68,6.68,0,0,1-2.11,1.19c-1.24.91-2.61,1.84-4.19,2.85-1.26.8-2.54,1.56-3.81,2.25l-.43.24c-.89.48-1.79,1-2.77,1.46a6.58,6.58,0,0,1-1.87,1.25c-1.14.51-2.47,1.09-3.87,1.63s-3.25,1.24-5.2,1.83a7.14,7.14,0,0,1-2.08.31h-.14c-1.22.34-2.33.62-3.48.88-1.54.35-3.38.75-5.33,1l-.87.13c-.6.1-1.27.21-2,.28l-.74.08-.3,0a6.2,6.2,0,0,1-1.6.43,8.22,8.22,0,0,1-.83.11c-1.8.12-3.54.12-5.23.13H164c-1.39,0-2.69-.08-3.79-.16-1.3-.09-2.67-.22-4.07-.38l-.71-.11A143.43,143.43,0,0,1,105.82,217.22Z"/></g><path class="cls-2" d="M231.23,134.05l-2.48-.17L227.12,132a6.56,6.56,0,0,1-1.62-4.67,8.18,8.18,0,0,1,0-1.4,7.78,7.78,0,0,1,0-1.45,7.32,7.32,0,0,1,0-1.32,6.68,6.68,0,0,1,1.49-4.69l1.5-1.84,2.76-.38h.95l.56.09,5,.86v16.08l-5.79.8Z"/><path class="cls-2" d="M100.82,212.22C75,212.22,52,205.77,39.14,195c-22.7-19.12-25-39.12-25.1-40l-.77-7.41,6.06.68,3.53.07h1.49c.79,0,1.87,0,3.2,0l49.31-14.72c0-.18-.07-.36-.1-.54a83,83,0,0,1-1.19-8.76,86.26,86.26,0,0,1-.19-11.5c.12-2.42.35-4.92.72-7.62a65.85,65.85,0,0,1,13.34-32,79.15,79.15,0,0,1,12.13-12.47c-.12-.17-.23-.35-.34-.54a12.08,12.08,0,0,1-1.68-6.74,6.43,6.43,0,0,1,6-6.37,15.4,15.4,0,0,1,1.69-.09c.84,0,1.61.06,2.29.1l.26,0c1.17.08,2.29.19,3.38.33a11.91,11.91,0,0,1,6.57-5.93,14.6,14.6,0,0,1,5.23-1,13.32,13.32,0,0,1,4,.62,12.21,12.21,0,0,1,3.9,2l2-.77.41.37c.77-.25,1.55-.49,2.37-.73,1.56-.46,2.88-.8,4.15-1.07l2.27-.48.13,0a10.22,10.22,0,0,1,3.54-1l.28,0c1.06-.15,2.13-.28,3.2-.4l.19,0c.42,0,.85-.07,1.27-.1l.44,0c1.39-.1,2.81-.16,4.21-.16.79,0,1.57,0,2.35,0,2.18.1,4.16.26,6.06.51a69.17,69.17,0,0,1,6.93,1.29l.11,0c2,.52,3.75,1,5.36,1.57,2.46.85,4.66,1.69,6.72,2.59,1.39.61,2.89,1.28,4.37,2,2.41,1.25,4.54,2.44,6.49,3.65a89.28,89.28,0,0,1,7.4,5.13c1.18.92,2.32,1.86,3.37,2.75,2.56,2.17,4.87,4.52,6.84,6.54.75.78,1.54,1.65,2.45,2.75l.53.62c.59.7,1.19,1.4,1.75,2.13l.56.71c.6.77,1.2,1.53,1.77,2.32.84,1.17,1.83,2.57,2.79,4.09.5.79,1,1.57,1.47,2.36l.34.55c.08.14.16.28.23.42.42.64.73,1.23,1,1.73l.25.46c1.09,2,2.14,4.07,3.11,6.22a88.29,88.29,0,0,1,4.09,10.89c.61,2,1.17,4.17,1.65,6.3s.82,4.13,1.09,5.84.47,3.5.63,5.12c.06.61.1,1.22.14,1.83l0,.53c.15,2.23.21,4.57.18,7a12.16,12.16,0,0,1-.07,1.41,28.8,28.8,0,0,1-.13,3.06l0,.37c-.1,1.26-.24,2.55-.4,3.85-.34,2.68-.79,5.29-1.32,7.76-.47,2.15-1.07,4.44-1.85,7-.5,1.64-1.08,3.2-1.63,4.7l0,.1a74.54,74.54,0,0,1-3.18,7.17,4.44,4.44,0,0,1-.24.45,6.77,6.77,0,0,1-1.14,1.54c-.17.32-.33.6-.46.83l-.12.19c-1.36,2.41-2.58,4.36-3.83,6.15s-2.33,3.23-3.46,4.61c-.7.86-1.43,1.7-2.15,2.54l-.38.44c-.26.3-.54.59-.82.88a6.9,6.9,0,0,1-1.38,1.94c-1.55,1.57-3.13,3-4.7,4.38l-1.74,1.44-.81.65a6.68,6.68,0,0,1-2.11,1.19c-1.24.91-2.61,1.84-4.19,2.85-1.26.8-2.54,1.56-3.81,2.25l-.43.24c-.89.48-1.79,1-2.77,1.46a6.58,6.58,0,0,1-1.87,1.25c-1.14.51-2.47,1.09-3.87,1.63s-3.25,1.24-5.2,1.83a7.14,7.14,0,0,1-2.08.31h-.14c-1.22.34-2.33.62-3.48.88-1.54.35-3.38.75-5.33,1l-.87.13c-.6.1-1.27.21-2,.28l-.74.08-.3,0a6.2,6.2,0,0,1-1.6.43,8.22,8.22,0,0,1-.83.11c-1.8.12-3.54.12-5.23.13H159c-1.39,0-2.69-.08-3.79-.16-1.3-.09-2.67-.22-4.07-.38l-.71-.11A143.43,143.43,0,0,1,100.82,212.22Z"/><path class="cls-3" d="M231.64,122.26a.58.58,0,0,0,0,.82.16.16,0,0,0-.08.06,1.61,1.61,0,0,0,.08,1.29.16.16,0,0,0-.08.06,1.91,1.91,0,0,0,.07,1.39.13.13,0,0,0-.06.05,2.46,2.46,0,0,0,0,1.37.12.12,0,0,0,.07,0,.49.49,0,0,0,0,.72h.09v-5s0,0-.06,0h.06v-.82Z"/><path class="cls-4" d="M231.41,126.69q0-3.25-.18-6.51c0-.72-.08-1.45-.15-2.16-.16-1.59-.33-3.18-.58-4.76-.3-1.83-.62-3.66-1-5.47-.45-2-1-4-1.55-5.89a81.49,81.49,0,0,0-3.8-10.15c-.89-2-1.85-3.9-2.9-5.78a17,17,0,0,0-1.31-2.22.66.66,0,0,0,0-.15c-.59-.95-1.17-1.91-1.77-2.85-.82-1.29-1.7-2.55-2.59-3.79-.7-1-1.46-1.91-2.2-2.86s-1.42-1.72-2.13-2.58-1.41-1.64-2.17-2.42C207,67,204.88,64.88,202.62,63c-1-.88-2.08-1.75-3.15-2.58a82.48,82.48,0,0,0-6.91-4.79c-2-1.22-4-2.34-6.07-3.41-1.31-.67-2.67-1.28-4-1.87-2.06-.9-4.15-1.69-6.26-2.41-1.61-.55-3.25-1-4.9-1.43-2.09-.49-4.2-.9-6.33-1.18-1.85-.24-3.7-.38-5.55-.46a47.4,47.4,0,0,0-5.84.1c-.5,0-1,0-1.5.1-1.07.13-2.15.25-3.22.4a4.3,4.3,0,0,0-2.43.72h-.05l-3.31.7c-1.26.27-2.5.61-3.73,1-1.72.5-3.41,1.06-5.09,1.68a1.6,1.6,0,0,1-.64.17h0c0-.09.15-.17,0-.31a21.56,21.56,0,0,0-2.5,1h0c-.11-.09-.09-.21-.09-.33-.15-.07-.19-.24-.27-.36a6.15,6.15,0,0,0-3.56-2.83,8,8,0,0,0-5.32.27,6,6,0,0,0-3.43,3.25,9,9,0,0,0-.68,2.38c-.07.51-.11,1-.17,1.55l-1.94-.41a52.75,52.75,0,0,0-6.26-.79,19,19,0,0,0-3.2-.06c-.53.06-.64.15-.66.67a6.23,6.23,0,0,0,.87,3.45,2.4,2.4,0,0,0,.62.69.41.41,0,0,0,.59,0,4.77,4.77,0,0,1,1.79-.77,12.71,12.71,0,0,1,4.52,0c.79.11,1.57.25,2.35.37,0,.28-.21.29-.35.37-2.62,1.64-5.17,3.38-7.63,5.25A75.85,75.85,0,0,0,94.18,76.9,59.54,59.54,0,0,0,82.05,106c-.32,2.36-.56,4.72-.68,7.1a81.44,81.44,0,0,0,.18,10.71A74.39,74.39,0,0,0,82.66,132c.37,2,.8,3.89,1.31,5.8l-55.3,16.51,0,.05c-3.83.09-6,0-6,0l.12.27c-1.85-.12-2.83-.23-2.83-.23s1.89,18.23,23,36c19.62,16.53,68.42,22.19,107.33,6.85h.18a2.24,2.24,0,0,0,1.28.56c1.26.15,2.53.27,3.79.35s2.4.15,3.61.14c2.1,0,4.2,0,6.29-.12.14,0,.27,0,.41-.06s.15-.2.14-.34c.93,0,1.85-.16,2.77-.24s1.76-.26,2.64-.38c1.61-.22,3.2-.55,4.79-.91s3-.75,4.53-1.18h0a.76.76,0,0,0,.77.09c1.61-.48,3.2-1.07,4.77-1.67,1.2-.47,2.39-1,3.57-1.51.26-.12.34-.25.18-.5.41-.18.83-.34,1.23-.53,1.11-.53,2.17-1.13,3.24-1.71s2.33-1.33,3.47-2a62.51,62.51,0,0,0,5.14-3.61c.19.2.36.18.57,0,.82-.67,1.65-1.34,2.46-2,1.51-1.28,3-2.63,4.35-4,.2-.2.32-.39.19-.66.52-.66,1.16-1.21,1.72-1.85.81-1,1.64-1.89,2.43-2.86,1.12-1.37,2.17-2.79,3.18-4.24,1.28-1.83,2.44-3.74,3.54-5.68a8.23,8.23,0,0,0,.72-1.42.24.24,0,0,0,.11-.21h0a2.39,2.39,0,0,0,.43-.84c.28.22.28.22.43,0l.14-.27a69.45,69.45,0,0,0,2.92-6.61h0c.54-1.45,1.08-2.9,1.53-4.38.65-2.15,1.25-4.31,1.72-6.51q.78-3.6,1.23-7.24c.15-1.19.28-2.38.37-3.58a23.35,23.35,0,0,0,.14-3.24h0A7.81,7.81,0,0,0,231.41,126.69ZM141.74,61.91h0ZM115,66.36h0Zm-2.27-.24h-.07v0Zm92.69,59h0Zm-79.66-64ZM107.3,70.68h0Zm107.54,48Zm-85.56-58.1Z"/><path class="cls-5" d="M231.73,125.89v1.45a.11.11,0,0,1-.16,0,2.46,2.46,0,0,1,0-1.37A.11.11,0,0,1,231.73,125.89Z"/><path class="cls-6" d="M231.73,125.89h-.09a1.86,1.86,0,0,1-.08-1.41.13.13,0,0,1,.17,0Z"/><path class="cls-7" d="M231.73,124.44h-.09a1.64,1.64,0,0,1-.08-1.3.13.13,0,0,1,.17,0Z"/><path class="cls-8" d="M231.73,123.09h-.09a.59.59,0,0,1,0-.83h.09Z"/><path class="cls-9" d="M231.64,127.34h.09v.73h-.09A.5.5,0,0,1,231.64,127.34Z"/><path class="cls-10" d="M131,50.06c0,.12,0,.24.09.33.37.29.34.73.45,1.12a3.47,3.47,0,0,1,.11.56,7.37,7.37,0,0,1,0,.94,6.34,6.34,0,0,1-4.57,5.3,12.07,12.07,0,0,1-2.14.49,16.44,16.44,0,0,1-2.53,0c-.48-.05-.6,0-.57.54a27.14,27.14,0,0,0,.29,2.83c.08.51.08.52.52.32.63-.31,1.31-.52,1.95-.82a.35.35,0,0,1,.14-.06,5.78,5.78,0,0,1,.81-.24c.71-.19,1.43-.36,2.16-.48.36-.06.73,0,1.09-.08a5,5,0,0,1,1.64.28,1.76,1.76,0,0,1,.9.69,1.81,1.81,0,0,1,.3,1.35,7.47,7.47,0,0,1-.34,1.14,10.6,10.6,0,0,1-2.09,2.67,18.23,18.23,0,0,1-1.37,1.27,25.11,25.11,0,0,1-4.57,3,8.37,8.37,0,0,0-1.08.54,22.06,22.06,0,0,1-3.93,1.45l-1.26.24-.16,0-.17,0a6.59,6.59,0,0,1-2.42-.18,2.81,2.81,0,0,1-.86-.53,2.39,2.39,0,0,1-.24-2.48,10.45,10.45,0,0,1,1.4-2.15c.58-.57,1.14-1.17,1.76-1.69a7.58,7.58,0,0,1,.76-.64,15.45,15.45,0,0,1,1.33-1,.57.57,0,0,0,.26-.84c-.06-.25-.12-.5-.19-.75-.16-.64-.33-1.27-.45-1.92a27.82,27.82,0,0,1-.38-2.85.7.7,0,0,0-.71-.77,1.25,1.25,0,0,1-.68-.31c-.78-.12-1.56-.26-2.35-.37a12.71,12.71,0,0,0-4.52,0,4.77,4.77,0,0,0-1.79.77.41.41,0,0,1-.59,0,2.4,2.4,0,0,1-.62-.69,6.23,6.23,0,0,1-.87-3.45c0-.52.13-.61.66-.67a19,19,0,0,1,3.2.06,52.75,52.75,0,0,1,6.26.79l1.94.41c.06-.53.1-1,.17-1.55a9,9,0,0,1,.68-2.38,6,6,0,0,1,3.43-3.25,8,8,0,0,1,5.32-.27,6.19,6.19,0,0,1,3.56,2.83C130.84,49.82,130.88,50,131,50.06Z"/><path class="cls-11" d="M116.28,57.44l.66.18A16.74,16.74,0,0,1,114.88,59c-.24.16-.45.31-.4.64-1,.77-2.06,1.37-3.06,2.11q-.84.63-1.71,1.23a1.45,1.45,0,0,0-1.12.41c-.87.71-1.77,1.37-2.62,2.1-.1.09-.32.15-.1.33-.08.35-.38.52-.62.72a70.21,70.21,0,0,0-5.78,5.4,63.77,63.77,0,0,0-6.12,7.4l-.08.12a.85.85,0,0,1-.14.19c-1.53,1.12-2.27,2.83-3.2,4.39a54.83,54.83,0,0,0-4.88,10.82c-.55,1.68-1,3.39-1.44,5.13a.65.65,0,0,0,.16.64,16.13,16.13,0,0,1-.4,2.29,84.18,84.18,0,0,0-1.1,8.67,71.88,71.88,0,0,0-.17,8.17,78.72,78.72,0,0,0,2.2,16c.36,1.46.71,2.92,1.17,4.35a.47.47,0,0,1,0,.17.18.18,0,0,1-.07.15c-.22.08-.44.25-.68,0A75.78,75.78,0,0,1,82.66,132a74.39,74.39,0,0,1-1.11-8.14,81.44,81.44,0,0,1-.18-10.71c.12-2.38.36-4.74.68-7.1A59.54,59.54,0,0,1,94.18,76.9,75.85,75.85,0,0,1,108.3,63.06c2.46-1.87,5-3.61,7.63-5.25C116.07,57.73,116.32,57.72,116.28,57.44Z"/><path class="cls-12" d="M175,112.74a12.94,12.94,0,0,0-1.32.36l-.29.06c-.11.07-.26,0-.35.1h0c-.08.08-.23,0-.31.11h0c-.09.09-.24,0-.32.11h-.09c-.09.07-.23,0-.32.09h0a8,8,0,0,0-1.08.34c-.09,0-.2,0-.27.08h0a8.35,8.35,0,0,0-1.07.35c-.1,0-.21,0-.28.07h0c-.09.08-.24,0-.32.1h0a7.58,7.58,0,0,0-.77.24.48.48,0,0,0-.26.09c-.1.06-.23,0-.32.09h0a5.82,5.82,0,0,1-.6.14c-.34-.17-.47-.53-.7-.8a16.82,16.82,0,0,0-4.7-3.6,14.1,14.1,0,0,1-3.52-2.43,13.13,13.13,0,0,1-2-2.76,57.28,57.28,0,0,1-2.85-6.88,19.67,19.67,0,0,0-4.23-6.5c-1.78-1.85-3.56-3.7-5.3-5.58a47.61,47.61,0,0,1-6-7.8,12,12,0,0,1-.84-1.54,1.09,1.09,0,0,1,0-.25,20.42,20.42,0,0,1,.63-5.56.87.87,0,0,1,.3-.58c.29-.12.5,0,.72.18a70.76,70.76,0,0,1,7.66,5.55,33.85,33.85,0,0,1,4.1,4c.39.44.64,1,1,1.43a6.94,6.94,0,0,0,3,1.92c1.07.4,2.17.69,3.26,1a11.7,11.7,0,0,1,4.75,2.86c1.28,1.23,2.59,2.42,3.83,3.7s2.62,2.39,3.87,3.66a33.57,33.57,0,0,1,5.61,7.78c1.4,2.61,2.43,5.38,3.6,8.08a20.55,20.55,0,0,0,3.67,5.91,8.08,8.08,0,0,0,2.75,1.7,34.53,34.53,0,0,1,3.92,1.77,4.21,4.21,0,0,1,2.12,3.36,12.81,12.81,0,0,1-.12,2.77c0,.23-.08.45-.34.53a29.17,29.17,0,0,1-3.49-.3,49.37,49.37,0,0,1-5.13-1,1.15,1.15,0,0,1-.61-.26,5.77,5.77,0,0,1-.17-1.43,52.71,52.71,0,0,0-1.74-8.73c-.34-1.2-.72-2.37-1.07-3.56-.06-.2-.13-.22-.31-.23a1.47,1.47,0,0,0-.56.1c-.62.19-1.25.37-1.87.59C175.76,112.37,175.36,112.56,175,112.74Z"/><path class="cls-13" d="M171.74,170.11a15.89,15.89,0,0,1,1.12-2,65.85,65.85,0,0,0,3.38-6.09,22.07,22.07,0,0,0,1-2.92q1.07-3.25,1.94-6.57c.36-1.38.72-2.76,1.05-4.15s.64-2.84.91-4.27c0-.19.07-.37.11-.56.27,0,.35.26.46.45a17,17,0,0,0,5,5.14c1.7,1.2,3.46,2.34,5.17,3.54a6.8,6.8,0,0,1,2.42,3.27,16.72,16.72,0,0,1,.93,4.6,45.3,45.3,0,0,0,.77,6.35,10.63,10.63,0,0,0,1,2.59,47.68,47.68,0,0,1,2.93,6.67q.84,2.34,1.73,4.66a.3.3,0,0,1,0,.16,1,1,0,0,1-.39.33,67,67,0,0,1-11.24,5.53c-.92.34-1.84.69-2.77,1a.4.4,0,0,1-.32-.19,28,28,0,0,1-2.49-3.87,10.27,10.27,0,0,0-1.8-2.39,19.57,19.57,0,0,1-3.4-3.88,9.3,9.3,0,0,0-3.76-3.52,12.82,12.82,0,0,1-2.18-1.47,5.77,5.77,0,0,1-1.54-2A.62.62,0,0,1,171.74,170.11Z"/><path class="cls-14" d="M201.67,180.89a13.82,13.82,0,0,1-.81-1.95c-.74-2-1.43-4-2.29-6-.54-1.25-1.12-2.48-1.78-3.67a10.2,10.2,0,0,1-1-2.87c-.23-1.19-.33-2.39-.44-3.59a33.84,33.84,0,0,0-.72-5.57,7.92,7.92,0,0,0-2.14-3.94,9,9,0,0,0-1.11-.84l-4.74-3.24a22.06,22.06,0,0,1-2.6-2.12,14.78,14.78,0,0,1-2.44-3.07c-.09-.16-.21-.31-.31-.47.12-.87.28-1.73.37-2.6a18.44,18.44,0,0,0,.14-2.68c0-1.56.12-3.1.17-4.65s0-3,0-4.5c0-1.23-.15-2.45-.12-3.67l2.72.57c.88.19,1.78.33,2.68.46a27.9,27.9,0,0,0,3.17.32,4.79,4.79,0,0,0,.76.1.37.37,0,0,1,.12.3,26.58,26.58,0,0,0-.4,3.07,5.55,5.55,0,0,0,2.68,5.11c.69.46,1.4.89,2.11,1.32a9,9,0,0,1,3.18,3.12,61.78,61.78,0,0,1,2.9,5.6,71.41,71.41,0,0,0,3.58,7.23,7.8,7.8,0,0,1,.92,5.64c-.24,1.24-.61,2.44-.93,3.66a12.48,12.48,0,0,0-.43,2.49,5.31,5.31,0,0,0,1.28,3.89,18.56,18.56,0,0,1,2.41,3.79,14.36,14.36,0,0,1,1.23,2.67.7.7,0,0,1-.32.56,66.72,66.72,0,0,1-7.27,5.36C202.1,180.85,201.92,181,201.67,180.89Z"/><path class="cls-14" d="M171.74,170.11a6.68,6.68,0,0,0,2.09,2.65c.57.42,1.17.78,1.78,1.15a11.32,11.32,0,0,1,2.63,1.89,5.21,5.21,0,0,1,.78,1.08,9.87,9.87,0,0,0,1.42,2c.66.73,1.33,1.44,2,2.13a12,12,0,0,1,2.33,3.07,31.74,31.74,0,0,0,2.28,3.57c.11.37-.21.4-.41.46-1.51.46-3,.92-4.58,1.28a60,60,0,0,1-6.09,1.16l-.16,0a8.46,8.46,0,0,1-1-.85,38,38,0,0,1-4.5-4.82c-1.35-1.69-2.66-3.42-4-5.14-.13-.17-.33-.31-.3-.57s0-.25.12-.37c1.6-2.26,3.1-4.58,4.57-6.92C171.07,171.26,171.34,170.65,171.74,170.11Z"/><path class="cls-13" d="M166,179.12l2.71,3.51a61.21,61.21,0,0,0,4.33,5.18c.69.72,1.46,1.36,2.19,2a2.8,2.8,0,0,1,.53.56.79.79,0,0,1-.6.25c-2.35.29-4.72.46-7.09.55a84.38,84.38,0,0,1-9.27-.33.55.55,0,0,1-.47-.18,6,6,0,0,1-.9-1.36.78.78,0,0,1-.11-.58,1.67,1.67,0,0,1,.37-.42c.95-1,1.91-1.89,2.85-2.85s2-2.19,3-3.31c.8-.88,1.42-1.89,2.15-2.82C165.8,179.25,165.87,179.13,166,179.12Z"/><path class="cls-15" d="M158.39,190.61l.29.23a.45.45,0,0,1,.31.16,42.33,42.33,0,0,0,4.34,3.56,10.3,10.3,0,0,1,2.46,2.6,1,1,0,0,1,.25.61c0,.14.13.32-.14.34s-.27,0-.41.06c-2.09.14-4.19.11-6.29.12-1.21,0-2.41,0-3.61-.14s-2.53-.2-3.79-.35a2.24,2.24,0,0,1-1.28-.56,3.38,3.38,0,0,1-1.57-2.07l2-1.31a38.92,38.92,0,0,0,4.4-3.38.52.52,0,0,1,.3-.18c.09-.05.19-.12.28-.1A8.06,8.06,0,0,1,158.39,190.61Z"/><path class="cls-16" d="M149,195.17a7.76,7.76,0,0,0,1.57,2.07,9.74,9.74,0,0,1-1.87-.21c-.77-.11-1.53-.28-2.31-.42a1.22,1.22,0,0,1,.54-.4Z"/><path class="cls-17" d="M158.39,190.61a18.72,18.72,0,0,1-2.11-.27,4.17,4.17,0,0,0-.61,0,13.55,13.55,0,0,1,1.67-1.54A7.5,7.5,0,0,0,158.39,190.61Z"/><path class="cls-13" d="M209.78,174.86a43.69,43.69,0,0,0-2.07-4.17,20.59,20.59,0,0,0-1.76-2.48,5.64,5.64,0,0,1-1.09-4.14,29,29,0,0,1,1-4.22,14.25,14.25,0,0,0,.52-3.1,7.24,7.24,0,0,0-1.09-4c-.88-1.47-1.61-3-2.34-4.56-1.19-2.51-2.25-5.08-3.67-7.47a10.19,10.19,0,0,0-2-2.66,16.17,16.17,0,0,0-2.33-1.62,13,13,0,0,1-2.6-1.87,5.28,5.28,0,0,1-1.54-3.57,15.26,15.26,0,0,1,.41-3.74c0-.34.23-.46.55-.45s.55,0,.83,0a33.62,33.62,0,0,0,8.72-.72,30,30,0,0,0,3.34-.91,1.51,1.51,0,0,1,.66-.11,11.42,11.42,0,0,1,2,1.47,7.73,7.73,0,0,1,2.61,4.59c.31,1.31.63,2.61,1,3.91a12.9,12.9,0,0,0,5,7.29,25.59,25.59,0,0,1,2.68,2.19,8,8,0,0,1,2.32,5.23c.18,1.8.05,3.62.4,5.41a13.92,13.92,0,0,0,1.39,4c.11.19.27.37.16.62a2.39,2.39,0,0,1-.43.84c-.07.06,0,.15-.11.21h0a58,58,0,0,1-6.23,8.23,69.2,69.2,0,0,1-5.56,5.54,1.33,1.33,0,0,1-.61.37A.15.15,0,0,1,209.78,174.86Z"/><path class="cls-14" d="M219.92,83.75A16,16,0,0,1,221.23,86c1.05,1.88,2,3.81,2.9,5.78a81.49,81.49,0,0,1,3.8,10.15c.59,1.94,1.1,3.91,1.55,5.89.4,1.81.72,3.64,1,5.47.25,1.58.42,3.17.58,4.76.07.71.1,1.44.15,2.16q.21,3.25.18,6.51a7.81,7.81,0,0,1-.09,1.18c-.24,0-.27-.19-.34-.34-.58-1.32-1.24-2.61-1.8-4a5.83,5.83,0,0,1-.48-2.26c0-1.06,0-2.13,0-3.2a8.55,8.55,0,0,0-2.62-6.42c-1.39-1.46-2.88-2.82-4.35-4.2a10.7,10.7,0,0,1-1.6-1.82.85.85,0,0,1-.17-.48,30.77,30.77,0,0,0-.7-8,.4.4,0,0,1-.15-.34.74.74,0,0,0,0-.44A43.29,43.29,0,0,0,214.9,86a54.16,54.16,0,0,0-6.06-8.75,64.32,64.32,0,0,0-6.4-6.6,70,70,0,0,0-8.13-6.23,64.36,64.36,0,0,0-15.85-7.63A51.82,51.82,0,0,0,168,54.54a41.68,41.68,0,0,0-5.47-.28,32.79,32.79,0,0,0-13.19,2.92c-.92.44-1.76,1-2.67,1.48-.19.05-.38.06-.57.12A64.85,64.85,0,0,0,133.82,61a9.8,9.8,0,0,1-1.68.49,2.2,2.2,0,0,1-1.16-.75c0-.2.17-.29.31-.39a8.55,8.55,0,0,1,3.12-1.48,18.42,18.42,0,0,0,4.06-1.53,41,41,0,0,1,13.78-4.06c1.3-.14,2.61-.17,3.92-.26s2.79,0,4.18,0a59,59,0,0,1,6.63.65c1.35.19,2.71.29,4.07.38,2.19.14,4.38.14,6.56.23,1.16.05,2.31,0,3.46,0a7.14,7.14,0,0,1,3.34.79,32.3,32.3,0,0,1,5.15,3.36c1.78,1.37,3.49,2.82,5.26,4.2A13.43,13.43,0,0,0,200,65.18a15.39,15.39,0,0,1,6.12,3,6.33,6.33,0,0,1,1.54,2c.68,1.3,1.25,2.65,2,3.9A23,23,0,0,0,215.25,80c1.28,1,2.6,1.89,3.83,2.92A5.13,5.13,0,0,1,219.92,83.75Z"/><path class="cls-13" d="M220.22,105.6a32.61,32.61,0,0,0,3.54,3.61,23,23,0,0,1,3.82,4.18,7.82,7.82,0,0,1,1.24,4.1c0,1.08,0,2.17,0,3.26a7.2,7.2,0,0,0,.68,3.25c.59,1.24,1.15,2.5,1.73,3.75a.38.38,0,0,0,.1.12,23.35,23.35,0,0,1-.14,3.24c-.09,1.2-.22,2.39-.37,3.58q-.45,3.65-1.23,7.24c-.47,2.2-1.07,4.36-1.72,6.51-.45,1.48-1,2.93-1.53,4.38-.24,0-.22-.23-.25-.39a125.52,125.52,0,0,0-5.68-16.89c-.33-.82-.61-1.65-.94-2.46a13,13,0,0,1-.61-3.55,22.38,22.38,0,0,0-1.62-7.18,13.61,13.61,0,0,0-1.92-3,1.5,1.5,0,0,1-.43-.7.83.83,0,0,1,.27-.48,20.41,20.41,0,0,0,3.63-6.5,21.28,21.28,0,0,0,1.11-5.24C219.92,106.14,219.85,105.78,220.22,105.6Z"/><path class="cls-13" d="M219.92,83.75c-.84-.66-1.67-1.34-2.52-2s-1.92-1.39-2.84-2.14a21,21,0,0,1-6-7.28c-.29-.61-.61-1.21-.89-1.82a7.09,7.09,0,0,0-2.47-2.85,15.19,15.19,0,0,0-5.2-2.35,14.34,14.34,0,0,1-5.46-2.73c-2.21-1.73-4.33-3.58-6.63-5.2a24.29,24.29,0,0,0-3.61-2.22,6.48,6.48,0,0,0-3.24-.73,20,20,0,0,1-2.32.07c-1.57-.08-3.14,0-4.71-.1-1.24,0-2.48-.1-3.71-.2-1.39-.11-2.78-.26-4.16-.46-1.09-.16-2.18-.28-3.28-.37-1.43-.12-2.86-.16-4.29-.22s-3,0-4.49.11c-1,0-2.09.18-3.13.32a39.55,39.55,0,0,0-5.6,1.19,45.4,45.4,0,0,0-7,2.77A19.23,19.23,0,0,1,134.44,59,8.14,8.14,0,0,0,131,60.74a.17.17,0,0,1-.25.13c-.46-.24-1-.09-1.49-.3,0-.34.27-.41.46-.56a21.5,21.5,0,0,1,4.81-2.6,110.33,110.33,0,0,0,11.76-5.77A46.47,46.47,0,0,1,153.91,48a17.32,17.32,0,0,1,4.49-1,19.8,19.8,0,0,1,3.35.24,20.31,20.31,0,0,0,8.46-.59,5.83,5.83,0,0,1,1.1-.24c1.65.42,3.29.88,4.9,1.43,2.11.72,4.2,1.51,6.26,2.41,1.35.59,2.71,1.2,4,1.87,2.06,1.07,4.1,2.19,6.07,3.42a80.07,80.07,0,0,1,6.91,4.78c1.07.83,2.11,1.7,3.15,2.58,2.26,1.92,4.35,4,6.41,6.14.76.78,1.47,1.59,2.17,2.42s1.45,1.7,2.13,2.58,1.5,1.89,2.2,2.86c.89,1.24,1.77,2.5,2.59,3.79.6.94,1.18,1.9,1.77,2.85A.66.66,0,0,1,219.92,83.75Z"/><path class="cls-14" d="M214.94,118.65c.38.49.77,1,1.13,1.47a13.28,13.28,0,0,1,2.3,5.21,29.57,29.57,0,0,1,.62,4.49,16.3,16.3,0,0,0,1.33,5.17c1.51,3.77,3,7.55,4.21,11.43.64,2.07,1.28,4.15,1.73,6.27a.54.54,0,0,0,.07.13,69.45,69.45,0,0,1-2.92,6.61l-.14.27c-.15.26-.15.26-.43,0-.19-.51-.51-.94-.71-1.43a15,15,0,0,1-1.21-5.56,22.26,22.26,0,0,0-.44-4.67,7.54,7.54,0,0,0-2.61-4.05c-.89-.77-1.85-1.43-2.76-2.17a12.26,12.26,0,0,1-3.8-5.26,40.68,40.68,0,0,1-1.33-4.71c-.22-.83-.45-1.66-.72-2.48a5.54,5.54,0,0,0-1.47-2.28,24.89,24.89,0,0,0-2.39-2,.14.14,0,0,1,0-.14,1.26,1.26,0,0,1,.58-.33,23.71,23.71,0,0,0,7-4.2c.66-.58,1.25-1.23,1.86-1.86A.11.11,0,0,1,214.94,118.65Z"/><path class="cls-14" d="M171.31,46.47a9.83,9.83,0,0,1-1.86.59,17.65,17.65,0,0,1-6.14.52c-1.32-.09-2.64-.26-4-.38a9.51,9.51,0,0,0-2.06.12,23.21,23.21,0,0,0-6.17,2c-2.35,1.07-4.6,2.34-6.85,3.61-1.85,1-3.77,2-5.69,2.84s-3.78,1.68-5.68,2.51a15.47,15.47,0,0,0-3.62,2.26.33.33,0,0,1-.14.1,3.36,3.36,0,0,1-1.34,0c-.17-.27,0-.5.09-.73a10.6,10.6,0,0,1,1.72-2.62A17.24,17.24,0,0,1,133.39,54a9,9,0,0,1,2-1,24.84,24.84,0,0,0,6.17-3.42c.65-.46,1.27-.94,1.91-1.41l.13-.08a1.14,1.14,0,0,0,.23-.15,19.87,19.87,0,0,1,2.52-1.75h.05a4.3,4.3,0,0,1,2.43-.72c1.07-.15,2.15-.27,3.22-.4.5-.05,1-.06,1.5-.1a47.4,47.4,0,0,1,5.84-.1c1.85.08,3.7.22,5.55.46C167.11,45.57,169.22,46,171.31,46.47Z"/><path class="cls-16" d="M166,197.77a9.85,9.85,0,0,0-1.9-2.36c-.84-.74-1.74-1.42-2.63-2.09a18.1,18.1,0,0,1-2.83-2.48.56.56,0,0,1,.63-.1,8,8,0,0,0,1.69.15,17,17,0,0,0,2.26.14c1.12-.06,2.23.18,3.35.09s2.13,0,3.2-.11c.9-.06,1.81-.1,2.71-.19,1.09-.12,2.18-.27,3.26-.41h.1a11.4,11.4,0,0,1,1.81,1.59c.92.83,1.8,1.7,2.73,2.52.16.14.38.26.35.53-1.5.43-3,.84-4.53,1.18s-3.18.69-4.79.91c-.88.12-1.76.3-2.64.38S167,197.77,166,197.77Z"/><path class="cls-16" d="M187.28,187.83a.54.54,0,0,1,.34-.21c1.44-.48,2.85-1,4.25-1.58.71-.29,1.41-.62,2.11-.95s1.28-.59,1.91-.9c2-1,3.89-2.05,5.77-3.2,0,0,.08,0,.09,0a20.27,20.27,0,0,1,1.39,2.55c-1.65,1.3-3.38,2.48-5.14,3.61-1.14.72-2.29,1.4-3.47,2s-2.13,1.18-3.24,1.71c-.4.19-.82.35-1.23.53-.18,0-.27-.12-.37-.24-.76-1-1.52-1.95-2.25-2.94C187.33,188.16,187.21,188,187.28,187.83Z"/><path class="cls-15" d="M187.28,187.83c.48.76,1.06,1.44,1.6,2.15a16.77,16.77,0,0,0,1.18,1.49c.16.25.08.38-.18.5-1.18.53-2.37,1-3.57,1.51-1.57.61-3.16,1.19-4.77,1.67a.76.76,0,0,1-.77-.09c-.59-.63-1.26-1.16-1.88-1.75-1-1-2.07-1.86-3-2.89,2.29-.36,4.58-.78,6.83-1.36,1.32-.34,2.64-.75,3.95-1.12.18-.05.39-.08.42-.32Z"/><path class="cls-15" d="M203.14,183.57a18.32,18.32,0,0,1-1.48-2.58.31.31,0,0,0,0-.1,1.24,1.24,0,0,0,.51-.23c1.58-1,3.14-2.09,4.64-3.23.94-.72,1.84-1.48,2.76-2.22a.55.55,0,0,0,.2-.35l.09,0a4.83,4.83,0,0,1,.84,2c.13.27,0,.46-.19.66-1.4,1.41-2.84,2.76-4.35,4-.81.69-1.64,1.36-2.46,2C203.5,183.75,203.33,183.77,203.14,183.57Z"/><path class="cls-16" d="M146.39,46.15c-.52.5-1.16.85-1.72,1.3-.26.2-.54.37-.8.56-.05.07-.15,0-.2.11h0c-2.23.88-4.52,1.61-6.71,2.59-1.59.71-3.18,1.41-4.75,2.18-.21.11-.4.28-.67.2v-1a11.69,11.69,0,0,1,1.86-2.33.34.34,0,0,1,.14,0h.07a1.6,1.6,0,0,0,.64-.17c1.68-.62,3.37-1.18,5.09-1.68,1.23-.36,2.47-.7,3.73-1Z"/><path class="cls-16" d="M210.71,176.84a17.78,17.78,0,0,1-.84-2,6.61,6.61,0,0,0,1.45-1.23c.84-.79,1.75-1.52,2.51-2.38.94-1.08,2-2.08,2.89-3.16,1.31-1.53,2.53-3.12,3.74-4.72.57-.76,1.07-1.56,1.6-2.34.07-.1.12-.21.24-.26a8.23,8.23,0,0,1-.72,1.42c-1.1,1.94-2.26,3.85-3.54,5.68-1,1.45-2.06,2.87-3.18,4.24-.79,1-1.62,1.91-2.43,2.86C211.87,175.63,211.23,176.18,210.71,176.84Z"/><path class="cls-18" d="M133.51,49.77a26.31,26.31,0,0,0-1.74,2.06.77.77,0,0,1-.22.22,11.9,11.9,0,0,0-.43-1.66,21.56,21.56,0,0,1,2.5-1c.15.14,0,.22,0,.31h0A.57.57,0,0,1,133.51,49.77Z"/><path class="cls-16" d="M222.3,160.79a.22.22,0,0,1,.11-.21A.24.24,0,0,1,222.3,160.79Z"/><path class="cls-19" d="M121.85,57.58c.09-.38.05-.78.16-1.16,0-.17.12-.23.28-.22h.31a5.86,5.86,0,0,0,4.7-1.56,3.73,3.73,0,0,0,.58-.72,1.55,1.55,0,0,0,.1-1.53,3.62,3.62,0,0,0-3-2.11,2.37,2.37,0,0,0-2.11,1.17,8.75,8.75,0,0,0-1,2.48,22.77,22.77,0,0,0-.66,3.76,17.59,17.59,0,0,0,.38,5.12,12.21,12.21,0,0,0,.81,2.66.69.69,0,0,1-.32,1,2.11,2.11,0,0,1-.94.26.52.52,0,0,1-.54-.38,31.2,31.2,0,0,1-1.13-3.11,29,29,0,0,1-.91-4.23,11.74,11.74,0,0,1-.1-1.18,41,41,0,0,1-.13-4.29,8.42,8.42,0,0,1,1.18-4,5.6,5.6,0,0,1,3.07-2.25,7.31,7.31,0,0,1,2.17-.41,6,6,0,0,1,4.35,1.46,5.31,5.31,0,0,1,1.65,2.58,4.57,4.57,0,0,1-.86,4.32,6.51,6.51,0,0,1-4.38,2.39,12.46,12.46,0,0,1-3.45,0A.58.58,0,0,1,121.85,57.58Z"/><path class="cls-20" d="M128.72,61.17a3.5,3.5,0,0,1,1.85.33,1.44,1.44,0,0,1,.73,1.6,5.54,5.54,0,0,1-1.18,2.33,18,18,0,0,1-2.75,2.7A25.32,25.32,0,0,1,124,70.44a21.72,21.72,0,0,1-6.1,2.47,7.72,7.72,0,0,1-2.35.26A3.48,3.48,0,0,1,114,72.8a1.28,1.28,0,0,1-.7-1.13,3.79,3.79,0,0,1,1-2.49A10.38,10.38,0,0,1,116,67.29a22.56,22.56,0,0,1,2.83-2.23c.1-.07.2-.24.34,0a.24.24,0,0,1-.08.39,11.66,11.66,0,0,0-1.69,1.27,9.36,9.36,0,0,0-2.43,2.77,1.78,1.78,0,0,0-.14,1c0,.4.39.69.89.81A4.81,4.81,0,0,0,117.9,71a18.46,18.46,0,0,0,4.8-2,23.93,23.93,0,0,0,3.51-2.36,8.41,8.41,0,0,0,2.49-2.84,1.7,1.7,0,0,0,.15-1,1,1,0,0,0-.94-.81,6.16,6.16,0,0,0-2.63.28,14.83,14.83,0,0,0-2.41.89c-.1,0-.2.07-.3.11s-.24.11-.31,0a.27.27,0,0,1,.15-.39c.3-.09.56-.27.85-.38a20.49,20.49,0,0,1,3.42-1.14A6.85,6.85,0,0,1,128.72,61.17Z"/><path class="cls-21" d="M123.06,65.82c-.18-.48-.36-1-.53-1.45,0-.12-.06-.27-.11-.39s0-.29.18-.36L124,63a13.36,13.36,0,0,1,2.47-.7,4.63,4.63,0,0,1,1.39,0,.85.85,0,0,1,.72,1.28,4.72,4.72,0,0,1-1,1.46,20.22,20.22,0,0,1-5,3.77,22,22,0,0,1-3.8,1.72A7.17,7.17,0,0,1,116,71a1.77,1.77,0,0,1-.46-.07.84.84,0,0,1-.53-1.2,4.3,4.3,0,0,1,.81-1.31A17.49,17.49,0,0,1,119,65.72a.49.49,0,0,1,.34-.13,4.37,4.37,0,0,1,.34,1c.12.32-.21.38-.33.56s-.26.26-.17.45a.38.38,0,0,0,.45.19,5.27,5.27,0,0,0,3.26-1.35C123,66.24,123.17,66.08,123.06,65.82Z"/><path class="cls-19" d="M107.51,53.4c1.31.05,2.61.15,3.91.28,1.66.18,3.31.42,4.94.75l.91.21c.2,0,.27.14.32.34a8.58,8.58,0,0,1,.08,1.6c0,.31-.23.24-.41.21-.71-.13-1.41-.29-2.12-.42a17.87,17.87,0,0,0-4.31-.37,7,7,0,0,0-3.12.81c-.4.23-.45.21-.71-.16a4.84,4.84,0,0,1-.71-1.82,4.26,4.26,0,0,1-.13-1.13c0-.21.1-.3.32-.3Z"/><path class="cls-13" d="M131.55,53.09q4.17-2.1,8.52-3.79c1-.39,2.07-.73,3.1-1.1a1.12,1.12,0,0,1,.51-.08,8.51,8.51,0,0,1-1.26,1,33.45,33.45,0,0,1-5,3.15,12.87,12.87,0,0,1-1.71.72,11.79,11.79,0,0,0-3.94,2.32,16.82,16.82,0,0,0-3.22,3.62,4.87,4.87,0,0,0-.76,1.63.29.29,0,0,1-.15.19,7.63,7.63,0,0,1-1.89.37c-.2-.21-.08-.42,0-.62a7.85,7.85,0,0,1,1.33-2.31,6.53,6.53,0,0,0,4-3.46A8.29,8.29,0,0,0,131.55,53.09Z"/><path class="cls-15" d="M114.47,59.59c-.22-.31-.23-.33,0-.49a24.38,24.38,0,0,1,2.44-1.48l.26,0c.53.12.52.12.59.68.12,1,.26,2,.39,3a3.33,3.33,0,0,1-.87.66h-.15l-.07,0-.12-.08c-.84-.68-1.6-1.45-2.42-2.15A.22.22,0,0,1,114.47,59.59Z"/><path class="cls-13" d="M122,62.3c-.17-.84-.19-1.69-.3-2.54a7.48,7.48,0,0,1,0-.82c0-.27.14-.36.39-.37s.6.12.92.11c.67,0,1.34,0,2,0a.58.58,0,0,1,0,.54,8.51,8.51,0,0,0-.23,2.14.45.45,0,0,1-.14.33h0a.76.76,0,0,0-.59,0l-1.45.55C122.46,62.34,122.25,62.48,122,62.3Z"/><path class="cls-16" d="M126.88,54.36a2.46,2.46,0,0,1-1,.81,5.61,5.61,0,0,1-3.43.71c-.32,0-.37-.1-.29-.44a1.31,1.31,0,0,1,.14-.59.89.89,0,0,1,.38-.34l3.94-2a.51.51,0,0,1,.45-.08.57.57,0,0,1,.21.41A2.24,2.24,0,0,1,126.88,54.36Z"/><path class="cls-13" d="M117.14,62h.1a4.71,4.71,0,0,1,1.4,1.34,2.83,2.83,0,0,1,.17.71,1.13,1.13,0,0,1-.55.46c-.55.32-1.08.68-1.61,1a.61.61,0,0,1-.3,0c-.72-.34-1.47-.64-2.19-1a.24.24,0,0,1,0-.14,1.49,1.49,0,0,1,.54-.6c.66-.52,1.32-1,2-1.55C116.8,62.13,116.93,62,117.14,62Z"/><path class="cls-16" d="M113.32,70.27a5.42,5.42,0,0,0-.23,1.2,1.93,1.93,0,0,0,.43,1.28.42.42,0,0,1-.22.27,24.3,24.3,0,0,0-2.36,1.82.56.56,0,0,1-.41.18c-.54-.17-.68-.63-.75-1.11a3.21,3.21,0,0,1,0-1.07.45.45,0,0,1,.12-.21c1-.81,2-1.51,3-2.27A.39.39,0,0,1,113.32,70.27Z"/><path class="cls-22" d="M117.87,57.54A15,15,0,0,1,116,57.2c-.88-.13-1.76-.3-2.64-.41a18,18,0,0,0-2.84-.07,6.09,6.09,0,0,0-2.84.84c-.39.23-.58.2-.86-.18a4.18,4.18,0,0,1-.66-1.21,6.59,6.59,0,0,1-.4-2.32,1.45,1.45,0,0,1,0-.3s0,0,.12-.08a2.32,2.32,0,0,1,0,.64A5.21,5.21,0,0,0,107,57c.23.3.33.33.64.14a7,7,0,0,1,2.84-.85,15.36,15.36,0,0,1,3.89.21c1.09.14,2.15.39,3.23.6.34.06.43,0,.38-.32a16.1,16.1,0,0,1-.07-3.18,10,10,0,0,1,.2-1.32.06.06,0,0,1,.1,0c-.06.62-.13,1.25-.19,1.88a2.48,2.48,0,0,0,0,.72,9.23,9.23,0,0,1,.09,1.74,2.61,2.61,0,0,1,0,.79C118.13,57.56,118,57.63,117.87,57.54Z"/><path class="cls-16" d="M114.25,73.18a3.91,3.91,0,0,0,1.31.21c.43,0,.86,0,1.29,0a.21.21,0,0,1,0,.24,15.49,15.49,0,0,1-1.18,1.8l-.16.07a7,7,0,0,1-2.83.25c-.18-.07-.17-.22-.09-.34A14.22,14.22,0,0,1,114.25,73.18Z"/><path class="cls-23" d="M113.32,70.27c-.82.52-1.58,1.13-2.37,1.7l-1,.68c-.15-.27,0-.49.13-.72a10.78,10.78,0,0,1,2-2.89,2.13,2.13,0,0,0,.42-.52,1.17,1.17,0,0,1,.51-.22,6.67,6.67,0,0,1,1.08-.22.62.62,0,0,1,.53.11A16,16,0,0,0,113.32,70.27Z"/><path class="cls-22" d="M121.61,57.24c0,.56,0,.56.55.67a5.08,5.08,0,0,0,1,0,12.47,12.47,0,0,0,2.92-.18,7.54,7.54,0,0,0,2.83-1.3,5.23,5.23,0,0,0,2.17-3.59,8.65,8.65,0,0,0,0-1.14c-.06-.11-.08-.21.1-.2a8.08,8.08,0,0,0,.11.86A5.27,5.27,0,0,1,130,56a7.41,7.41,0,0,1-4.46,2.36,11.36,11.36,0,0,1-2.47.1c-.41,0-.82-.11-1.23-.11s-.34,0-.35.33,0,.75,0,1.13c0,.22.2.46-.11.62,0-.46-.07-.92-.08-1.37a11,11,0,0,1,.18-2.14C121.76,57,121.64,57.11,121.61,57.24Z"/><path class="cls-16" d="M118.28,73.08c1-.31,2-.64,3-1a5.08,5.08,0,0,1,1-.42,1.4,1.4,0,0,1,0,1.2,1,1,0,0,1-.54.46c-.91.44-1.83.87-2.79,1.23-.18.06-.39.18-.57,0C118.25,74,118,73.55,118.28,73.08Z"/><path class="cls-16" d="M123.27,71.1l1.69-1a33.55,33.55,0,0,0,2.87-2c.34,0,.49.24.57.53a1.48,1.48,0,0,1-.61.74,37.06,37.06,0,0,1-3.67,2.56.7.7,0,0,1-.48.16A1.15,1.15,0,0,1,123.27,71.1Z"/><path class="cls-24" d="M122.62,53.71a11.67,11.67,0,0,1,.62-1.4A1.88,1.88,0,0,1,126,51.5c.2.1.38.23.57.34s0,.27-.12.34c-1.15.61-2.32,1.19-3.5,1.75C122.79,54,122.57,54,122.62,53.71Z"/><path class="cls-23" d="M114.25,73.18c-.4.72-.93,1.36-1.39,2a2.34,2.34,0,0,0-.26.43.28.28,0,0,1-.14.1,2.52,2.52,0,0,1-1.88-.67.22.22,0,0,1,0-.16A29.59,29.59,0,0,1,113.13,73l.39-.24A4.5,4.5,0,0,0,114.25,73.18Z"/><path class="cls-14" d="M124.72,61.37A7.38,7.38,0,0,1,125,59c0-.1,0-.21,0-.31l1.38-.3c.23,0,.45-.13.68-.2a10.25,10.25,0,0,1-.82,1.49,5.89,5.89,0,0,0-.54,1.39.27.27,0,0,1-.09.12C125.34,61.29,125.07,61.52,124.72,61.37Z"/><path class="cls-22" d="M121.61,56.09a7.17,7.17,0,0,1,.32-1.66,12.06,12.06,0,0,1,1-2.7,2.17,2.17,0,0,1,2.66-1.11,3.27,3.27,0,0,1,2.23,2.05,1,1,0,0,1-.09,1,2.77,2.77,0,0,0-1.46-2.26,2.47,2.47,0,0,0-1.83-.37,1.71,1.71,0,0,0-1.19.82,8.87,8.87,0,0,0-1.13,2.87,10.4,10.4,0,0,0-.34,1.66s-.05.09-.08.13C121.59,56.39,121.73,56.21,121.61,56.09Z"/><path class="cls-25" d="M117.87,57.54c.17,0,.22-.13.21-.28s0-.44,0-.66c.15.16.1.36.09.54a10.54,10.54,0,0,0,.13,2,24.36,24.36,0,0,0,.64,3.28,32.94,32.94,0,0,0,1.37,4,.94.94,0,0,0,.89.67l-.28.11c-.59.14-.75.06-1-.51a30,30,0,0,1-1.63-5.79,17.12,17.12,0,0,1-.26-2.14A2.73,2.73,0,0,0,117.87,57.54Z"/><path class="cls-23" d="M118.28,73.08l.12,1.44a.11.11,0,0,1,0,.15,13.23,13.23,0,0,1-2.39.74.31.31,0,0,1-.29-.06,13,13,0,0,1,.86-1.44c.1-.17.27-.3.29-.52h0a.52.52,0,0,1,.11-.1C117.4,73.28,117.82,73.07,118.28,73.08Z"/><path class="cls-26" d="M122.62,53.71c0,.08-.06.23.13.19a.76.76,0,0,0,.18-.09l3.41-1.7c.11,0,.29-.06.24-.27l.52.63-4.77,2.38Z"/><path class="cls-27" d="M114.7,68.19a8.71,8.71,0,0,0-1.69.24.23.23,0,0,1,.06-.28,9.17,9.17,0,0,1,2.21-1.81c.39,0,.81-.16,1.14.2Z"/><path class="cls-16" d="M129.16,66.87c.29-.43.72-.74,1-1.15a13.48,13.48,0,0,0,.86-1.27,1,1,0,0,1,.18-.18.59.59,0,0,1,.7.28c0,.21-.08.36-.17.53a12.13,12.13,0,0,1-1.21,1.66.87.87,0,0,1-.61.35C129.66,67.08,129.35,67.18,129.16,66.87Z"/><path class="cls-20" d="M123.06,65.82c.19.21.08.37-.07.54a4.45,4.45,0,0,1-1.65,1.09,7.41,7.41,0,0,1-1.53.43,1,1,0,0,1-.3,0c-.24,0-.48,0-.56-.28s.1-.38.22-.55.42-.25.47-.51a.54.54,0,0,1,.09.12c.31.75.42.84,1.18.69a3.28,3.28,0,0,0,1.87-1A1,1,0,0,0,123.06,65.82Z"/><path class="cls-23" d="M129.16,66.87a2.28,2.28,0,0,0,.82.1.15.15,0,0,1,.07.12c-.15.42-.53.64-.81,1l-.67.69c-.12,0-.18,0-.22-.12a3.14,3.14,0,0,0-.52-.51Z"/><path class="cls-28" d="M116.63,65.51c.09-.21.29-.29.46-.4l1.72-1a2.44,2.44,0,0,0,.1.24.34.34,0,0,1-.16.5c-.54.36-1,.75-1.58,1.12A.64.64,0,0,1,116.63,65.51Z"/><path class="cls-29" d="M123.27,71.1l.4.94a.09.09,0,0,1,0,.13,10.45,10.45,0,0,1-1.55.82.09.09,0,0,1,0-.08s0,0,0,0a7.56,7.56,0,0,0,.12-1.25A3.57,3.57,0,0,1,123.27,71.1Z"/><path class="cls-27" d="M131.55,63.16a2,2,0,0,0-.3-1.38l.09-.1.18-.11a.63.63,0,0,1,.62-.09,1.29,1.29,0,0,1,.39,1.35A.94.94,0,0,1,131.55,63.16Z"/><path class="cls-29" d="M131.55,63.16a3.9,3.9,0,0,0,.93-.36l.05.06a4.57,4.57,0,0,1-.45,1.74.16.16,0,0,1-.21,0c-.18-.18-.43-.19-.64-.3A7.05,7.05,0,0,1,131.55,63.16Z"/><path class="cls-30" d="M118.64,63.35a9.86,9.86,0,0,1-1.4-1.34,2.62,2.62,0,0,1,.94-.64C118.33,62,118.49,62.69,118.64,63.35Z"/><path class="cls-28" d="M122,62.3a1.61,1.61,0,0,0,.68-.19c.53-.21,1.06-.4,1.58-.62.24-.11.33,0,.41.2a.76.76,0,0,1-.43.25,15.6,15.6,0,0,0-1.88.8.25.25,0,0,1-.21,0A1,1,0,0,1,122,62.3Z"/><path class="cls-23" d="M116.63,65.51c.17.15.41.21.54.41l-.75.62a4,4,0,0,0-1.24-.09c-.11.07-.19,0-.23-.08a14.09,14.09,0,0,0,1.47-.94Z"/><path class="cls-31" d="M121.4,60.43c.18-.18.06-.41.11-.62a.41.41,0,0,1,.09.34,16.16,16.16,0,0,0,.84,4.61,1,1,0,0,1,.1.44h0a3.06,3.06,0,0,1-.46-1.12A17.4,17.4,0,0,1,121.4,60.43Z"/><path class="cls-27" d="M129.18,60.55h.1a5.14,5.14,0,0,1,1.35.11.2.2,0,0,1,.19.19.37.37,0,0,1-.32.32l-1.64-.3C128.88,60.67,129.05,60.63,129.18,60.55Z"/><path class="cls-32" d="M125.66,61.07l.07,0a17.1,17.1,0,0,1,2-.4.22.22,0,0,1,0,.3c-.21.21-.49.11-.73.18-.48.15-1,.23-1.46.34A.36.36,0,0,1,125.66,61.07Z"/><path class="cls-33" d="M130.5,61.16a1.22,1.22,0,0,1,.32-.32l.19-.1c.41.14.68.49,1.08.65a.05.05,0,0,1,0,.08c-.23,0-.41.19-.63.23l-.11.08h-.08C131.08,61.48,130.76,61.36,130.5,61.16Z"/><path class="cls-34" d="M127.73,61v-.3l.09-.11a.19.19,0,0,0,.22.08,3.43,3.43,0,0,1,1.15-.07,1,1,0,0,1-.32.31A3.08,3.08,0,0,1,127.73,61Z"/><path class="cls-35" d="M126.88,54.36c.1-.51.29-1,.43-1.48a.71.71,0,0,1,.07.9A1.47,1.47,0,0,1,126.88,54.36Z"/><path class="cls-36" d="M125.66,61.07a1,1,0,0,1-.12.4,3.37,3.37,0,0,1-.83.21v-.31Z"/><path class="cls-37" d="M118.19,52.26h-.1a9.32,9.32,0,0,1,.41-1.55c.09,0,.14,0,.1.1Z"/><path class="cls-38" d="M131.23,51.54c-.08,0-.09.12-.1.2-.18-.16-.07-.39-.13-.58s-.17-.58-.26-.87A2.51,2.51,0,0,1,131.23,51.54Z"/><path class="cls-39" d="M118.6,50.81l-.1-.1c.17-.28.21-.64.52-.83h0A3.66,3.66,0,0,1,118.6,50.81Z"/><path class="cls-22" d="M121.61,57.24c0-.12,0-.24-.11-.32s0-.38.1-.53c.11.08,0,.23.11.32S121.76,57.08,121.61,57.24Z"/><path class="cls-31" d="M122.64,65.41a.43.43,0,0,1,0,.7v-.7Z"/><path class="cls-22" d="M121.71,56.71c-.13-.08-.1-.2-.11-.32v-.3c.15.11.08.28.1.42Z"/><path class="cls-39" d="M119,49.88l0-.14c.1.08,0,.1,0,.14Z"/><path class="cls-31" d="M122.54,65.2a.23.23,0,0,1,.1.21h0c-.09,0-.1-.12-.1-.21Z"/><path class="cls-16" d="M117,73.29l-.11.1Z"/><path class="cls-16" d="M85.45,140.29a3.57,3.57,0,0,1-.5-1.4c-.45-1.58-.85-3.18-1.2-4.79-.3-1.41-.59-2.82-.79-4.24-.12-.82-.3-1.62-.38-2.44s-.17-1.53-.25-2.3c-.12-1-.13-2.09-.29-3.12,0-.07,0-.14,0-.21-.13-2.15-.1-4.3-.1-6.45,0-1,.08-2.1.13-3.15s.15-2.32.29-3.48c.25-2,.51-3.94.89-5.89.15-.77.33-1.54.44-2.32,0-.19.17-.25.29-.33a6,6,0,0,0,2-2.27A45.26,45.26,0,0,0,88,92.66a17,17,0,0,1,2.4-4.73A8.76,8.76,0,0,1,94,85.4,32.32,32.32,0,0,0,97.33,84a.39.39,0,0,1,.39,0c.18.24,0,.42-.12.6a60.06,60.06,0,0,0-3.46,8.34,61,61,0,0,0-2.33,10.42c0,.29-.11.58-.13.87a1.09,1.09,0,0,1-.05.17c-1.68,2.46-2.18,5.3-2.59,8.16-.33,2.29-.74,4.56-1,6.86a34.79,34.79,0,0,0-.21,5.31A43.84,43.84,0,0,0,90.06,136a23,23,0,0,1,.83,2.55c0,.11-.08.15-.16.2h0c-.09.09-.24,0-.32.1h0c-.06.07-.15,0-.24.06a2.17,2.17,0,0,0-.24.07.2.2,0,0,1-.11,0l-.12,0-.18.07c-.14.11-.32.06-.46.15h0c-.09.09-.23,0-.32.1h0c-.08.08-.18,0-.27.06a2,2,0,0,0-.26.09,5,5,0,0,1-.51.16h0c-.08.1-.23,0-.32.11h0c-.07.07-.16.05-.24.06l-.24.07a.27.27,0,0,1-.12,0l-.12.05a1.27,1.27,0,0,1-.18.06,3.69,3.69,0,0,1-.56.19l-.2,0C85.66,140.29,85.57,140.39,85.45,140.29Z"/><path class="cls-15" d="M97.66,83.93a29.4,29.4,0,0,1-3.59,1.58,8.56,8.56,0,0,0-3.25,2.15,11.29,11.29,0,0,0-1.85,3c-.68,1.52-1.18,3.09-1.75,4.64-.3.81-.63,1.61-1,2.39a6.09,6.09,0,0,1-2.54,2.84c-.33,0-.33,0-.27-.25.33-1.39.69-2.77,1.1-4.13a55.89,55.89,0,0,1,2.34-6.34,57.6,57.6,0,0,1,3.66-7c.25-.41.51-.81.76-1.23A5.89,5.89,0,0,1,93,79.6l.11-.11.1-.1h0A12.06,12.06,0,0,1,95,77.79a53.21,53.21,0,0,1,11.38-6.89,1.28,1.28,0,0,1,.87-.24c.11.26-.11.37-.24.51A66,66,0,0,0,100.23,80a37.48,37.48,0,0,0-2.08,3.58A.58.58,0,0,1,97.66,83.93Z"/><path class="cls-16" d="M107.3,70.68c-.28.12-.58.21-.85.35-2.27,1.08-4.51,2.23-6.67,3.53a46.12,46.12,0,0,0-4.37,3.11l-2.19,1.72A5.49,5.49,0,0,1,94.16,78c.88-1.17,1.79-2.31,2.76-3.41.62-.71,1.27-1.4,1.89-2.11S100.26,71,101,70.22c1.12-1.1,2.27-2.16,3.47-3.17.47-.4.93-.81,1.39-1.22a.63.63,0,0,1,.52-.16,35.77,35.77,0,0,1,5.28.23c.39.11.41.31.16.6-.38.45-.87.78-1.28,1.19-.89.88-1.78,1.77-2.66,2.66l-.1.1-.11.09A.5.5,0,0,1,107.3,70.68Z"/><path class="cls-16" d="M117.14,62l-3,2.38c-.16.13-.32.06-.48,0-1.2-.43-2.41-.83-3.62-1.21-.15,0-.3-.09-.35-.26.14-.28.43-.4.66-.56,1.23-.89,2.48-1.76,3.76-2.59a1,1,0,0,1,.36-.18c.91.72,1.74,1.51,2.58,2.31l.09.09Z"/><path class="cls-15" d="M109.69,62.92l3.52,1.15a3.91,3.91,0,0,0,.93.31.19.19,0,0,1,0,.08,8.71,8.71,0,0,1-1.15,1c-.22.21-.48.35-.37.71a.82.82,0,0,1-.77-.15,46.38,46.38,0,0,0-6-.22l-.39,0a3.34,3.34,0,0,1,.82-.74c.82-.68,1.67-1.31,2.5-2A.81.81,0,0,1,109.69,62.92Z"/><path class="cls-16" d="M93.22,79.39l-.1.1Z"/><path class="cls-40" d="M139.55,123.63a23.22,23.22,0,0,1-3,.93l0-.07s0-.07.06-.09a11.35,11.35,0,0,1,2.87-.87A.23.23,0,0,1,139.55,123.63Z"/><path class="cls-41" d="M126.27,127.75a12.55,12.55,0,0,1-2.06.63.08.08,0,0,1-.14,0,.18.18,0,0,1,.1-.17,7.34,7.34,0,0,1,2.07-.59A.1.1,0,0,1,126.27,127.75Z"/><path class="cls-42" d="M150.72,120.2a14.21,14.21,0,0,1-1.56.51.17.17,0,0,1,0-.15,3.67,3.67,0,0,1,1.44-.52A.22.22,0,0,1,150.72,120.2Z"/><path class="cls-43" d="M162.63,116.55l-1.12.34a1.1,1.1,0,0,1-.54.09v-.07c.3-.31.74-.31,1.1-.48a.68.68,0,0,1,.54,0A.09.09,0,0,1,162.63,116.55Z"/><path class="cls-44" d="M153.73,119.27l-1.47.49c-.07,0-.14-.07-.11-.17a4.26,4.26,0,0,1,1.42-.48A.22.22,0,0,1,153.73,119.27Z"/><path class="cls-45" d="M159.32,117.51a8.42,8.42,0,0,1-1.46.51.17.17,0,0,1,0-.15,3,3,0,0,1,1.47-.5A.1.1,0,0,1,159.32,117.51Z"/><path class="cls-46" d="M135.92,124.77a3.81,3.81,0,0,1-1.36.4c-.05,0-.09,0-.13,0,.17-.34.55-.27.82-.42a1,1,0,0,1,.55-.07A.23.23,0,0,1,135.92,124.77Z"/><path class="cls-47" d="M157.86,117.91V118l-1.25.39c-.08,0-.14-.08-.1-.18A1.85,1.85,0,0,1,157.86,117.91Z"/><path class="cls-48" d="M153.73,119.27l-.11-.09a2.25,2.25,0,0,1,1.32-.46c.05,0,.06.07,0,.13A3.82,3.82,0,0,1,153.73,119.27Z"/><path class="cls-49" d="M145.24,121.88a5.15,5.15,0,0,1-1.35.41l0-.07a1.75,1.75,0,0,1,1.27-.45A.2.2,0,0,1,145.24,121.88Z"/><path class="cls-50" d="M165.12,115.76l-1.16.38c-.07,0-.13-.07-.1-.17a2.33,2.33,0,0,1,1.12-.37A.17.17,0,0,1,165.12,115.76Z"/><path class="cls-49" d="M146.59,121.46a5.29,5.29,0,0,1-1.35.42l0,0a1.56,1.56,0,0,1,1.26-.47A.23.23,0,0,1,146.59,121.46Z"/><path class="cls-51" d="M148.25,120.94a5.42,5.42,0,0,1-1.35.42l0-.07a1.7,1.7,0,0,1,1.27-.45A.2.2,0,0,1,148.25,120.94Z"/><path class="cls-52" d="M142.55,122.7a4.59,4.59,0,0,1-1.35.41l0-.06a1.81,1.81,0,0,1,1.27-.45A.23.23,0,0,1,142.55,122.7Z"/><path class="cls-53" d="M140.9,123.21a4.6,4.6,0,0,1-1.35.42l0,0a1.59,1.59,0,0,1,1.26-.48A.31.31,0,0,1,140.9,123.21Z"/><path class="cls-54" d="M131.24,126.2a4.46,4.46,0,0,1-1.05.4c-.07,0-.13-.07-.11-.17a2.18,2.18,0,0,1,.89-.33.42.42,0,0,1,.22.05Z"/><path class="cls-55" d="M170.81,113.88a3.08,3.08,0,0,1,1.15-.31,3.93,3.93,0,0,1-1.15.4s0,0,0-.06S170.8,113.88,170.81,113.88Z"/><path class="cls-56" d="M162.63,116.55v-.1c.25-.38.64-.39,1-.42,0,0,0,.08,0,.13A5.68,5.68,0,0,1,162.63,116.55Z"/><path class="cls-57" d="M128.55,127a4.94,4.94,0,0,1-1.05.4.19.19,0,0,1,0-.15,1.54,1.54,0,0,1,1.06-.38A.09.09,0,0,1,128.55,127Z"/><path class="cls-58" d="M169.47,114.29a3,3,0,0,1,1.14-.31,4,4,0,0,1-1.15.41s0,0,0-.07A.05.05,0,0,1,169.47,114.29Z"/><path class="cls-59" d="M132.9,125.69a5.68,5.68,0,0,1-1,.39.15.15,0,0,1,0-.14,1.55,1.55,0,0,1,1.06-.39A.09.09,0,0,1,132.9,125.69Z"/><path class="cls-52" d="M143.59,122.39a3,3,0,0,1-1,.31l0,0a1,1,0,0,1,.95-.37A.23.23,0,0,1,143.59,122.39Z"/><path class="cls-60" d="M127.31,127.45a5,5,0,0,1-.85.29.2.2,0,0,1,0-.13.24.24,0,0,1,.07-.12,1.61,1.61,0,0,1,.68-.19A.2.2,0,0,1,127.31,127.45Z"/><path class="cls-51" d="M149.16,120.59v.12a4.86,4.86,0,0,1-.91.23l0,0c.17-.33.5-.32.8-.38A.31.31,0,0,1,149.16,120.59Z"/><path class="cls-61" d="M151.65,119.88c-.21.19-.49.19-.73.29a.13.13,0,0,1,0-.12c.1-.19.3-.2.46-.27l.2,0a.22.22,0,0,1,.13,0A.08.08,0,0,1,151.65,119.88Z"/><path class="cls-62" d="M160.45,117.19a1.58,1.58,0,0,1-.83.21v-.07c.1-.18.3-.18.46-.25l.2-.06a.22.22,0,0,1,.19,0A.08.08,0,0,1,160.45,117.19Z"/><path class="cls-63" d="M168.12,114.71a1.53,1.53,0,0,1,.83-.21,2.08,2.08,0,0,1-.83.3s-.05,0,0-.06S168.11,114.71,168.12,114.71Z"/><path class="cls-64" d="M156,118.54a1.06,1.06,0,0,1-.73.2v-.06c.1-.18.29-.18.45-.24l.19,0a.19.19,0,0,1,.12,0A.08.08,0,0,1,156,118.54Z"/><path class="cls-65" d="M129.58,126.72c-.21.19-.49.18-.73.29a.15.15,0,0,1,0-.13c.11-.2.31-.21.5-.26a.41.41,0,0,1,.21,0Z"/><path class="cls-66" d="M133.93,125.37a1,1,0,0,1-.72.21l0-.07c.1-.17.29-.17.45-.24l.19,0a.19.19,0,0,1,.12,0A.08.08,0,0,1,133.93,125.37Z"/><path class="cls-67" d="M165.12,115.76l-.12-.1a.59.59,0,0,1,.62-.25.09.09,0,0,1,0,.13C165.5,115.7,165.28,115.67,165.12,115.76Z"/><path class="cls-40" d="M135.92,124.77l-.14,0c.16-.34.42-.36.73-.23l0,0A1.39,1.39,0,0,1,135.92,124.77Z"/><path class="cls-68" d="M124.08,128.37h.13a1.57,1.57,0,0,1-.72.23l0-.05A.41.41,0,0,1,124.08,128.37Z"/><path class="cls-69" d="M167,115c.21,0,.4-.15.62-.09a.86.86,0,0,1-.63.2l0-.06Z"/><path class="cls-70" d="M167,115.12c-.09.13-.23.11-.36.1s-.08,0-.06-.09a.28.28,0,0,1,.42,0Z"/><path class="cls-71" d="M167.6,114.92c.08-.15.21-.11.34-.12s.06,0,.09,0A.46.46,0,0,1,167.6,114.92Z"/><path class="cls-72" d="M129.89,126.61c-.07.13-.19.11-.31.11h0a.13.13,0,0,1,0-.08.12.12,0,0,1,0,0,.37.37,0,0,1,.33-.1.13.13,0,0,1,0,.08S129.9,126.61,129.89,126.61Z"/><path class="cls-73" d="M151.65,119.88v-.08a.25.25,0,0,1,.3-.15s0,0,0,.08,0,0,0,0S151.76,119.88,151.65,119.88Z"/><path class="cls-52" d="M140.9,123.21l-.14,0c.08-.25.24-.2.41-.12l0,0C141.12,123.21,141,123.2,140.9,123.21Z"/><path class="cls-74" d="M156,118.54v-.08a.25.25,0,0,1,.3-.15s0,0,0,.07,0,.05,0,.05S156.12,118.54,156,118.54Z"/><path class="cls-75" d="M166.62,115.23h0c-.09.16-.23.11-.37.1v-.08A.24.24,0,0,1,166.62,115.23Z"/><path class="cls-76" d="M169,114.5c.07-.14.2-.1.32-.1C169.2,114.55,169.06,114.5,169,114.5Z"/><path class="cls-77" d="M166.25,115.32c-.06.17-.19.11-.31.11v-.08a.19.19,0,0,1,.32,0Z"/><path class="cls-78" d="M165.64,115.54v-.08c.09-.13.19-.11.31,0h0C165.88,115.58,165.75,115.53,165.64,115.54Z"/><path class="cls-79" d="M163.67,116.16v-.08a.12.12,0,0,1,.2,0l.09.09Z"/><path class="cls-80" d="M161,117c-.07.13-.2.11-.31.1V117a.19.19,0,0,1,.31,0Z"/><path class="cls-81" d="M159.32,117.51v-.09c.08-.11.18-.11.3,0v0C159.56,117.53,159.43,117.5,159.32,117.51Z"/><path class="cls-82" d="M156.31,118.43v-.07a.12.12,0,0,1,.2,0l.1.08Z"/><path class="cls-83" d="M155,118.85a.22.22,0,0,0,0-.08c.08-.12.18-.11.3,0h0C155.2,118.88,155.08,118.85,155,118.85Z"/><path class="cls-84" d="M152,119.77v-.06c0-.09.12-.09.2,0l.1.09Z"/><path class="cls-85" d="M150.92,120.07v.1l-.2,0-.1-.08A.2.2,0,0,1,150.92,120.07Z"/><path class="cls-51" d="M146.9,121.36c-.08.09-.2.08-.31.1l0,0c.05-.18.17-.17.31-.1Z"/><path class="cls-49" d="M143.89,122.29c-.08.1-.2.08-.3.1l0,0c.06-.19.18-.18.32-.1Z"/><path class="cls-86" d="M134.45,125.16h.11c-.08.12-.2.1-.32.1l0-.06a.13.13,0,0,1,.07-.09A.16.16,0,0,1,134.45,125.16Z"/><path class="cls-87" d="M133.93,125.37s0-.05,0-.08a.2.2,0,0,1,.11-.09.23.23,0,0,1,.2.07h0C134.17,125.39,134.05,125.37,133.93,125.37Z"/><path class="cls-88" d="M132.9,125.69v-.09a.19.19,0,0,1,.3,0h0C133.14,125.71,133,125.68,132.9,125.69Z"/><path class="cls-89" d="M131.86,126v.11h-.31V126A.21.21,0,0,1,131.86,126Z"/><path class="cls-90" d="M131.55,126.09c-.07.14-.2.11-.31.11h0a.1.1,0,0,1,0-.14.23.23,0,0,1,.29,0Z"/><path class="cls-91" d="M129.89,126.61v-.07a.12.12,0,0,1,.2,0l.1.09Z"/><path class="cls-92" d="M128.85,126.9V127l-.3,0V127A.21.21,0,0,1,128.85,126.9Z"/><path class="cls-93" d="M127.31,127.45l-.1-.09a.21.21,0,0,1,.3,0v.12Z"/><path class="cls-94" d="M173,113.26c.08-.14.22-.1.35-.1A.41.41,0,0,1,173,113.26Z"/><path class="cls-94" d="M172.68,113.37c.07-.13.2-.11.31-.11C172.92,113.38,172.8,113.37,172.68,113.37Z"/><path class="cls-94" d="M172.36,113.47a.31.31,0,0,1,.32-.11C172.6,113.48,172.48,113.47,172.36,113.47Z"/><path class="cls-95" d="M172,113.57c.07-.15.2-.1.32-.09A.3.3,0,0,1,172,113.57Z"/><path class="cls-96" d="M170.81,113.88V114l-.2,0C170.64,113.89,170.72,113.88,170.81,113.88Z"/><path class="cls-97" d="M169.47,114.29a.38.38,0,0,1,0,.1h-.2A.2.2,0,0,1,169.47,114.29Z"/><path class="cls-98" d="M168,114.81h-.09c0-.1.1-.09.18-.09v.09l-.05,0Z"/><path class="cls-99" d="M160.45,117.19v-.1a.14.14,0,0,1,.2,0h0C160.62,117.18,160.54,117.19,160.45,117.19Z"/><path class="cls-100" d="M126.46,127.63v.11h-.19v-.09A.14.14,0,0,1,126.46,127.63Z"/><path class="cls-101" d="M205.39,125.08a.28.28,0,0,1,0,.09,2.61,2.61,0,0,0-1.19.29,32.08,32.08,0,0,1-4.84,1.13c-.76.12-1.53.17-2.29.25s-1.58,0-2.37.1a4.93,4.93,0,0,1-1.43.07,12.41,12.41,0,0,0-1.49-.09.5.5,0,0,0-.56.31v-.3a1.67,1.67,0,0,0,.15-.76,8.43,8.43,0,0,0-.07-3.28,3.85,3.85,0,0,0-1.89-2.41,20.71,20.71,0,0,0-3.1-1.43c-.55-.23-1.1-.49-1.65-.72a7.14,7.14,0,0,1-2.77-2.28,25.09,25.09,0,0,1-3.21-5.77c-1-2.35-1.93-4.72-3.1-7a33,33,0,0,0-7.44-9.71c-1.46-1.3-2.83-2.68-4.24-4-1-.9-1.87-1.83-2.9-2.65a10.13,10.13,0,0,0-3.16-1.72c-1.19-.4-2.4-.74-3.59-1.14a6.94,6.94,0,0,1-3-1.87,4.81,4.81,0,0,1-.44-.57,13.59,13.59,0,0,0-1.89-2.32,50.26,50.26,0,0,0-6.52-5.49q-1.92-1.41-3.94-2.67c-.19-.12-.39-.22-.58-.33s-.27-.05-.25-.24A26.32,26.32,0,0,1,139,67a2.43,2.43,0,0,1,.29-.49.33.33,0,0,1,.13-.07,7.5,7.5,0,0,1,1.92.59,28.83,28.83,0,0,1,6.16,3.49,78.85,78.85,0,0,0,7.06,4.79,7.12,7.12,0,0,0,1.1.56,5.09,5.09,0,0,1,2.68,2.68,19.16,19.16,0,0,0,1.31,2.34,10.12,10.12,0,0,0,3.2,2.58c1.16.65,2.37,1.19,3.55,1.81a13.49,13.49,0,0,1,4.28,3.92c1.73,2.24,3.23,4.64,4.94,6.89a16.84,16.84,0,0,0,3.09,3.33,2.14,2.14,0,0,0,.62.36,31,31,0,0,1,8.87,5.44,7.19,7.19,0,0,1,1.38,1.67l1.2,1.75a15.73,15.73,0,0,0,2.11,2.13c1,.93,2,1.87,2.88,2.89.73.83,1.53,1.59,2.29,2.4a66.21,66.21,0,0,1,6.2,7.67C204.58,124.25,205.07,124.59,205.39,125.08Z"/><path class="cls-13" d="M160.65,117.08h-.2l-.19,0-.12.06a1.58,1.58,0,0,0-.52.21l-.3,0a14.71,14.71,0,0,0-1.46.49,5.87,5.87,0,0,0-1.35.42l-.2,0-.31.1h-.09l-.12.07a1.39,1.39,0,0,0-.52.21l-.3,0-1.35.41c-.49.17-1,.28-1.46.49l-.2,0-.31.09h-.09l-.12.06a1.67,1.67,0,0,0-.52.21l-.3.05-1.46.47h-.07a1.61,1.61,0,0,1-.43-.92,23.47,23.47,0,0,0-4.37-8.09c-.73-.89-1.5-1.76-2.24-2.64a13.78,13.78,0,0,1-2.85-6.19,35.94,35.94,0,0,0-2.87-8.5,28.12,28.12,0,0,0-4.54-6.64c-1-1.11-2.23-2-3.16-3.27a22.37,22.37,0,0,1-3.08-5.71c-.76-2-1.28-4-1.89-6.07a.43.43,0,0,1,0-.4V72A29.94,29.94,0,0,0,127,69.8a5.84,5.84,0,0,0,1.34-1.19l.2.11c.18-.06.29.07.41.16,1.54,1.13,3.16,2.16,4.6,3.42a11.46,11.46,0,0,1,3.18,4.15,4,4,0,0,1,.18.59l0,.17a2,2,0,0,1,.13.76,30.87,30.87,0,0,0,1.51,8.89,49.82,49.82,0,0,0,9.36,16.74A67.16,67.16,0,0,0,161.59,116c.21.14.52.22.51.58A7.79,7.79,0,0,0,161,117C160.85,117,160.73,117,160.65,117.08Z"/><path class="cls-101" d="M162.1,116.55c-.08-.17-.24-.24-.38-.34-1.58-1.1-3.14-2.23-4.62-3.45-1-.79-1.92-1.61-2.86-2.44-1.49-1.32-2.88-2.74-4.24-4.17a57.49,57.49,0,0,1-7.66-10.39,46.67,46.67,0,0,1-3-6.39,40.9,40.9,0,0,1-1.72-5.72c-.21-1-.35-1.92-.47-2.89a26.3,26.3,0,0,1-.18-3.55c.55.86,1,1.76,1.58,2.6a45.92,45.92,0,0,0,3.82,5c1.41,1.59,2.88,3.12,4.34,4.66s2.77,2.88,4.06,4.42A15.74,15.74,0,0,1,153,97.65c.84,1.91,1.47,3.91,2.29,5.82a14.63,14.63,0,0,0,3.09,4.86,11.19,11.19,0,0,0,2.43,1.73,25.24,25.24,0,0,1,3.88,2.47A8.81,8.81,0,0,1,167,115v.11c-.12,0-.28-.08-.36.11-.13,0-.27,0-.36.1s-.25,0-.31.1a.54.54,0,0,0-.31,0l-.64.2a11.6,11.6,0,0,0-1.13.39l-.2,0a5,5,0,0,0-1,.37Z"/><path class="cls-14" d="M136.92,77c-.32-.61-.63-1.22-1-1.82a11.3,11.3,0,0,0-2.52-2.86c-1.38-1.22-3-2.2-4.43-3.3l-.45-.34c0-.22.18-.32.3-.46A16.15,16.15,0,0,0,130,67.07c.4-.21.77,0,1.13.13a30,30,0,0,1,5.35,2.59c.41.24.9.37,1.17.8l.23.2c-.25.11-.26.35-.31.56-.18.94-.39,1.87-.51,2.82A21.14,21.14,0,0,0,136.92,77Z"/><path class="cls-101" d="M214.94,118.65h-.1c-.62-.29-.92-.91-1.35-1.39a21,21,0,0,1-1.87-2.86c-1.38-2.11-2.94-4.08-4.52-6a66,66,0,0,1-4.65-6,24.55,24.55,0,0,1-2.95-7.48,3.75,3.75,0,0,0-2.78-3,24.94,24.94,0,0,0-6.31-1,4,4,0,0,1-2.83-1,6.51,6.51,0,0,1-1.34-2.13c-.45-1-.77-2.15-1.15-3.22a11.07,11.07,0,0,0-9.62-7.83,40.89,40.89,0,0,1-4.81-.66,14.75,14.75,0,0,1-6.3-3.44c-1.77-1.57-3.39-3.3-5.12-4.91a13.9,13.9,0,0,0-3.72-2.41,39.18,39.18,0,0,0-12.33-3.16,3.77,3.77,0,0,0-.95,0,.8.8,0,0,1-.52-.13c0-.31.23-.24.38-.23a1.2,1.2,0,0,0,1-.46A16.54,16.54,0,0,1,145.82,59c.12-.09.28-.14.32-.31s.36-.06.54-.1a7.26,7.26,0,0,1,2.46-.08c1.39.08,2.72.49,4.08.7a18.62,18.62,0,0,0,5.82.08,15,15,0,0,1,7.71.95c1.61.62,3.18,1.34,4.75,2.06a39.57,39.57,0,0,0,5.5,2,14.44,14.44,0,0,1,5.81,3.49,41.76,41.76,0,0,0,9.11,6.59,51.08,51.08,0,0,1,4.78,2.57,4.23,4.23,0,0,1,1.58,1.8c.28.62.61,1.2.93,1.79a6.7,6.7,0,0,0,4.47,3.41,15,15,0,0,1,2.27.72,6.64,6.64,0,0,1,3.33,2.83c.49.81.95,1.64,1.43,2.46a10.17,10.17,0,0,0,2,2.43,5.15,5.15,0,0,0,2.14,1.1,10.23,10.23,0,0,1,2.55,1,3.44,3.44,0,0,1,1.72,1.91l.09.28a.12.12,0,0,1,0,.14.37.37,0,0,0,.08.33,8.08,8.08,0,0,1,.13,2.55,17.1,17.1,0,0,0-.09,3.2,5.44,5.44,0,0,0,.52,1.82,1.12,1.12,0,0,1,.19.59l.19.32a1.13,1.13,0,0,0-.19.63,17.41,17.41,0,0,1-.55,3.59,24.07,24.07,0,0,1-1.12,3.36,20.24,20.24,0,0,1-2.26,4C215.73,117.66,215.33,118.15,214.94,118.65Z"/><path class="cls-12" d="M219.1,96.48a4.74,4.74,0,0,0-3-2.48,13.08,13.08,0,0,0-1.38-.45,6.18,6.18,0,0,1-3.32-2.35,25.38,25.38,0,0,1-1.88-3,10.46,10.46,0,0,0-1.19-1.76,6.7,6.7,0,0,0-2.94-1.86c-.86-.28-1.74-.53-2.61-.82A5.65,5.65,0,0,1,200,81.92a12.9,12.9,0,0,1-1.33-2c-.21-.42-.42-.84-.61-1.26a3.53,3.53,0,0,0-1.26-1.47,28,28,0,0,0-3.25-1.82A48.74,48.74,0,0,1,187.73,72a40.64,40.64,0,0,1-4-3.24,35.2,35.2,0,0,0-2.87-2.44,13.6,13.6,0,0,0-4.48-2.09,33.5,33.5,0,0,1-5.23-1.94A53.81,53.81,0,0,0,166,60.09a16.16,16.16,0,0,0-4.35-.82,16.52,16.52,0,0,0-3.44.26,12.37,12.37,0,0,1-3.1,0c-1.71-.14-3.39-.53-5.09-.84a11.22,11.22,0,0,0-2.32-.14c-.32,0-.65,0-1,0A21.57,21.57,0,0,1,151,56.31,29.83,29.83,0,0,1,157,54.66c1-.16,1.93-.28,2.91-.35a37.36,37.36,0,0,1,4-.18c1,0,2.09.09,3.13.18.79.06,1.57.15,2.36.24,1.06.13,2.13.33,3.19.54a53.68,53.68,0,0,1,7.45,2,51.07,51.07,0,0,1,4.93,2c.87.41,1.77.78,2.62,1.22,2.07,1.07,4.09,2.2,6.06,3.45s3.65,2.45,5.4,3.79c.89.69,1.77,1.41,2.62,2.16s1.55,1.41,2.33,2.11c.62.56,1.23,1.12,1.78,1.72.91,1,1.83,2,2.71,3,1.16,1.34,2.25,2.73,3.29,4.16.83,1.14,1.59,2.33,2.33,3.53A53.52,53.52,0,0,1,216.59,89c.52,1.08,1,2.2,1.38,3.33s.82,2.45,1.16,3.69a1.76,1.76,0,0,1,.06.46l-.05,0Z"/><path class="cls-13" d="M146.14,58.67c.06,0,.22,0,.12.13a2.12,2.12,0,0,1-.44.35,13.71,13.71,0,0,0-2.65,2.27,1.22,1.22,0,0,1-1.17.47,1.08,1.08,0,0,0-.31,0c-.25.21-.56.14-.84.14a30.83,30.83,0,0,0-5.76.31,18.07,18.07,0,0,0-2.06.47.7.7,0,0,1-.55,0V62.8a2.1,2.1,0,0,0-.41-1.33.31.31,0,0,1,0-.08c1.39-.44,2.8-.84,4.22-1.18,2.05-.48,4.11-.89,6.18-1.19A22.33,22.33,0,0,1,146.14,58.67Z"/><path class="cls-102" d="M220,105.28a4.88,4.88,0,0,1-.87-2.39,20.81,20.81,0,0,1,.11-3.35,19.55,19.55,0,0,0,0-2.42c.09-.07.11,0,.12.07.21,1,.38,2.08.54,3.13a34,34,0,0,1,.19,4.62A.39.39,0,0,1,220,105.28Z"/><path class="cls-102" d="M219.2,96.79a.29.29,0,0,1,0-.09.18.18,0,0,1,0-.22h0C219.32,96.58,219.33,96.68,219.2,96.79Z"/><path class="cls-12" d="M143.27,62.09a16.71,16.71,0,0,1,2.82.34,39,39,0,0,1,6.56,1.62,23.63,23.63,0,0,1,4.93,2.26,10.35,10.35,0,0,1,1.72,1.32c1.28,1.23,2.55,2.48,3.82,3.71a21.51,21.51,0,0,0,4,3.18,14,14,0,0,0,4.6,1.67c1.2.22,2.42.29,3.64.42a11.27,11.27,0,0,1,6.42,2.7,11.93,11.93,0,0,1,3.43,5.21c.38,1.07.69,2.17,1.14,3.21a8.47,8.47,0,0,0,1,1.71,3.2,3.2,0,0,0,2.24,1.24,20.82,20.82,0,0,0,2.37.17,22.4,22.4,0,0,1,4.66.87l.25.08a3.6,3.6,0,0,1,2.76,2.9,33.19,33.19,0,0,0,1.74,5.24,21.87,21.87,0,0,0,3.24,5.09c2,2.45,4,4.83,5.84,7.38a39.21,39.21,0,0,1,2.31,3.55,15.06,15.06,0,0,0,1.81,2.32l.3.36c0,.19-.15.3-.26.42a21.89,21.89,0,0,1-4.69,3.84,25,25,0,0,1-4.22,2.06l-.28.12a3.53,3.53,0,0,1-1.14-1.1,66,66,0,0,0-4.09-5.33c-.51-.61-1-1.21-1.57-1.79-.82-.88-1.66-1.76-2.49-2.63l-1.83-1.9c-1-1-2-1.94-3-2.88a8.07,8.07,0,0,1-1-1.41c-.31-.43-.6-.88-.91-1.32a8.9,8.9,0,0,0-2.17-2.2c-1.41-1-2.77-2-4.26-2.93a18.77,18.77,0,0,0-3.27-1.54,4.33,4.33,0,0,1-1.55-1,24.56,24.56,0,0,1-3.23-3.82c-1.45-2-2.78-4.08-4.3-6A13.58,13.58,0,0,0,167.2,86a29.62,29.62,0,0,0-2.77-1.5,18.29,18.29,0,0,1-3.68-2.2,7.37,7.37,0,0,1-2-2.59A12.11,12.11,0,0,0,157,76.83a1.31,1.31,0,0,0-.44-.34,43,43,0,0,1-7.66-4.8A44.84,44.84,0,0,0,143.12,68a18,18,0,0,0-3-1.24l-.68-.23c-.14-.18,0-.32.07-.47a21.19,21.19,0,0,1,2.58-3.73C142.43,61.93,142.85,62,143.27,62.09Z"/><path class="cls-13" d="M143.67,48.12a.19.19,0,0,1,.2-.11A.2.2,0,0,1,143.67,48.12Z"/><path class="cls-11" d="M133.51,49.77l.11-.11Z"/><path class="cls-13" d="M117.14,62l-.09-.09A.11.11,0,0,1,117.14,62Z"/><path class="cls-14" d="M112.7,66.12c-.08-.11-.22-.08-.42-.14a11.49,11.49,0,0,1,1.88-1.52,14.11,14.11,0,0,1,2.26,1s0,.08,0,.09c-.43.36-.8.82-1.43.83-.54.3-1.07,0-1.61,0A.83.83,0,0,1,112.7,66.12Z"/><path class="cls-13" d="M97.66,83.93c.1-.18.35-.19.45-.38.42-.57,1-1,1.43-1.56a57.78,57.78,0,0,1,4.38-4.61c1.34-1.22,2.79-2.32,4.22-3.42.42-.33.83-.68,1.27-1,.15-.1.26-.3.49-.2A4.56,4.56,0,0,0,110,74.3c.12.29.25.57.6.63V75a9.7,9.7,0,0,1-1.22,1.18,72.89,72.89,0,0,0-7.89,8.68,21.09,21.09,0,0,0-2.22,3.67c-.85,1.81-1.86,3.54-2.83,5.29a10.37,10.37,0,0,0-1.4,3.81,10.26,10.26,0,0,1-1.91,4.53c-.38.58-.8,1.12-1.19,1.69-.09.14-.17.31-.39.28a13,13,0,0,1,.23-1.88c.19-1.26.45-2.5.69-3.74.29-1.45.67-2.88,1.08-4.3a58.23,58.23,0,0,1,2.15-6c.15-.38.31-.76.5-1.13.5-1,.89-2.06,1.48-3C97.73,84,97.71,84,97.66,83.93Z"/><path class="cls-14" d="M109.9,72.78c-1.23.88-2.4,1.86-3.6,2.78a37.15,37.15,0,0,0-4.71,4.33c-1,1-1.9,2.1-2.85,3.14a1.68,1.68,0,0,1-.63.52c-.09-.06-.06-.14,0-.22a65.41,65.41,0,0,1,3.64-5.79c.78-1.09,1.58-2.16,2.43-3.19.44-.55.88-1.1,1.35-1.62.6-.68,1.25-1.32,1.79-2l.32-.21.11-.08h0a24.09,24.09,0,0,1,4.47-1.82.35.35,0,0,1,.39,0c.11.18-.08.23-.15.31A13.14,13.14,0,0,0,110.75,71a5.82,5.82,0,0,0-.75,1.62Z"/><path class="cls-14" d="M119.1,129.91l-.19,0-2.38.73c-.14.07-.31.06-.43.17a16.12,16.12,0,0,0-1.95.56,4.67,4.67,0,0,0-1.05.37,2.87,2.87,0,0,0-1,.32l-.37,0c-.25-.18-.24-.48-.29-.74-.38-2-.6-4.06-.91-6.09a39.52,39.52,0,0,0-1.38-6,11.87,11.87,0,0,1-.34-4.56c.2-2.53.92-5,1.3-7.48a14.09,14.09,0,0,0-.17-5.6,18.4,18.4,0,0,1-.39-4.92,43,43,0,0,1,1.29-8.89A52.18,52.18,0,0,1,114.18,78c.32-.71.66-1.41,1-2.09a1.19,1.19,0,0,1,.41-.51l.07,0c.81-.17,1.59-.43,2.37-.67a1.12,1.12,0,0,1,.31-.05c.22.21.15.48.15.73,0,2.35-.12,4.69-.29,7s-.36,4.88-.72,7.3a5.86,5.86,0,0,0,1,3.87,17.61,17.61,0,0,1,1,1.82,6.25,6.25,0,0,1-.22,5.59,7.43,7.43,0,0,0-.67,2,5.24,5.24,0,0,0,.71,3.42,30.76,30.76,0,0,0,2.66,3.76,14.11,14.11,0,0,1,1.18,1.88,5,5,0,0,1,.28,4c-.34,1-.68,2.07-1,3.1a8.62,8.62,0,0,0-.45,2.12,3.21,3.21,0,0,0,.94,2.48A32.29,32.29,0,0,0,126,127a1,1,0,0,1,.44.61v.07l-.19,0a20.72,20.72,0,0,0-2.19.71,1.33,1.33,0,0,0-.62.19,19,19,0,0,0-2,.56,5,5,0,0,0-1,.37A5,5,0,0,0,119.1,129.91Z"/><path class="cls-13" d="M115.63,75.37c-.33.76-.76,1.46-1.12,2.21a55.25,55.25,0,0,0-3.27,9.08,50.83,50.83,0,0,0-1.1,5c-.15,1-.25,1.91-.37,2.86s-.09,1.76-.14,2.63a22.27,22.27,0,0,0,.11,2.58c.07,1.16.46,2.25.61,3.4a11.75,11.75,0,0,1,0,2.78c-.21,2.18-.77,4.3-1.16,6.45a18.36,18.36,0,0,0-.33,4.62,9.6,9.6,0,0,0,.46,2.48,30,30,0,0,1,1.19,5.12l.93,6.33c.06.39.15.77.23,1.16-.15.17-.4.14-.56.29l-.3,0c0,.06-.15,0-.2.08l-.11,0c0,.07-.14,0-.2.08l-.2,0-.12.06c-.08,0-.17,0-.21.12l-.3,0a5.33,5.33,0,0,0-1,.36l-.31.05-.62.2h-.1l-.11.06a1.81,1.81,0,0,0-.52.2l-.3.05a5.45,5.45,0,0,0-1,.37c-.1,0-.24,0-.31.12h-.31c0,.07-.14,0-.2.09l-.1,0h-.1l-.12.07a1.39,1.39,0,0,0-.52.21l-.3,0c-.06.06-.15,0-.21.08l-.1,0c-.06.07-.15,0-.21.08l-.19,0-.12.06c-.08,0-.17,0-.22.12l-.3,0a5.57,5.57,0,0,0-1,.36l-.3.05c-.14.06-.32,0-.42.17h-.22a1.53,1.53,0,0,1-.49-1,11.71,11.71,0,0,1,0-4.93,27.23,27.23,0,0,1,.81-3.32,16.65,16.65,0,0,0,.74-5.05,35.5,35.5,0,0,0-.31-4.48c-.15-1.18-.22-2.37-.29-3.56a36.35,36.35,0,0,1,1.6-11.11c1.17-4.46,2.54-8.86,3.45-13.39a26.45,26.45,0,0,1,2.92-7.22c1-1.84,2.16-3.57,3.33-5.31a2.24,2.24,0,0,1,.58-.65.17.17,0,0,0,.1,0A11.89,11.89,0,0,0,115.63,75.37Z"/><path class="cls-13" d="M112.59,68.61a21.92,21.92,0,0,0-3,1c-.51.2-1,.43-1.52.64a.79.79,0,0,1-.39.11.61.61,0,0,1,.18-.25c.91-.91,1.81-1.84,2.75-2.73.36-.34.75-.66,1.1-1,.1-.1.22-.19.11-.35.28,0,.55.15.83.07l2.27.23a.32.32,0,0,0,.21.1c-.62.55-1.31,1-1.89,1.62a1,1,0,0,0-.28.36C112.91,68.58,112.69,68.46,112.59,68.61Z"/><path class="cls-13" d="M126.46,127.56a35,35,0,0,1-4-4.16,3,3,0,0,1-.61-2.24,9.68,9.68,0,0,1,.53-2.31c.3-.88.58-1.77.9-2.64a5.25,5.25,0,0,0-.66-4.91c-.7-1.09-1.54-2.07-2.3-3.12a14.07,14.07,0,0,1-1.42-2.39,5.13,5.13,0,0,1,.11-4.49,10.92,10.92,0,0,0,.83-2.28,5.62,5.62,0,0,0-.38-3.43,16.7,16.7,0,0,0-1-1.88,10.4,10.4,0,0,1-1-2.25,4.68,4.68,0,0,1-.06-1.9c.18-1.11.29-2.22.39-3.33s.19-2,.27-2.93c.06-.61.11-1.23.13-1.85,0-.91.08-1.83.14-2.74.09-1.36.07-2.72.06-4.08l0-.11a6.64,6.64,0,0,0,1.45-.54,14.9,14.9,0,0,0,2.27-1.11l0,.1a1.26,1.26,0,0,1,.11.91,32.1,32.1,0,0,0,0,5c.06.91.09,1.83.1,2.74a12.12,12.12,0,0,0,1.68,6c.79,1.37,1.55,2.76,2.25,4.19a13.1,13.1,0,0,1,1.29,4.92c.12,2.05.25,4.1.18,6.15a38.55,38.55,0,0,1-.48,6,5.88,5.88,0,0,0,.57,3.91,32.74,32.74,0,0,0,2.82,4.45c1.1,1.53,2.31,3,3.28,4.59a15.18,15.18,0,0,1,1.25,2.44c.07.19.18.38.06.59s-.56.15-.8.32h-.2c-.06.06-.15,0-.21.09l-.1,0h-.1l-.11.07a1.39,1.39,0,0,0-.53.22l-.3,0a6.44,6.44,0,0,0-1,.37c-.11,0-.24,0-.32.12h-.3c-.05.07-.15,0-.21.08a6.16,6.16,0,0,0-.94.33l-.2,0-.31.08c-.05.06-.14,0-.2.08a1.7,1.7,0,0,0-.53.2l-.3,0a6.4,6.4,0,0,0-1,.36l-.3,0Z"/><path class="cls-14" d="M112.5,75.66a15.19,15.19,0,0,1-1,1.6,51.2,51.2,0,0,0-3.64,6.19A26.36,26.36,0,0,0,105.56,90c-.45,2.3-1,4.56-1.68,6.82s-1.33,4.6-1.9,6.92q-.65,2.72-1.07,5.47a12.81,12.81,0,0,0-.14,1.65c0,1.11,0,2.23,0,3.35,0,.92.17,1.85.26,2.77s.17,1.65.23,2.47c0,.58,0,1.17.07,1.75a16.73,16.73,0,0,1-.11,2.12,38.4,38.4,0,0,1-1.24,5.48,15.42,15.42,0,0,0-.46,3.88,7.85,7.85,0,0,0,.6,3.07c-.58.23-1.2.33-1.76.61a4.51,4.51,0,0,0-1.35.42l-.3,0-1.46.49-.61.12a1.24,1.24,0,0,1-.33-.69,76.87,76.87,0,0,1-3-14.46q-.3-2.85-.43-5.72c0-1.31-.09-2.62-.06-3.93.06-2.55.2-5.1.51-7.63a3.61,3.61,0,0,1,.25-.72s0-.07,0-.1a18.47,18.47,0,0,0,3-5.06A8.53,8.53,0,0,0,95,97.53a9,9,0,0,1,.88-2.74c.6-1.27,1.34-2.46,2-3.68.47-.85.93-1.7,1.32-2.58A21.63,21.63,0,0,1,102,84c1-1.27,2-2.47,3.11-3.66,1.3-1.44,2.69-2.78,4.07-4.13.38-.37.79-.72,1.18-1.08a.56.56,0,0,1,.27-.15A3.14,3.14,0,0,0,112.5,75.66Z"/><path class="cls-13" d="M137.65,70.59c-1.13-.63-2.24-1.28-3.39-1.88a19.25,19.25,0,0,0-3.81-1.58,1.4,1.4,0,0,0-.45-.06s0-.06,0-.1a.42.42,0,0,0,.31-.15,9,9,0,0,0,1.58-2.25h.2c.15-.12.3,0,.45,0,1.93.56,3.92,1,5.86,1.52.33.1.73.1.94.46a14.63,14.63,0,0,1-.61,1.41,18.71,18.71,0,0,0-.78,2.17C137.89,70.3,137.87,70.51,137.65,70.59Z"/><path class="cls-14" d="M135.25,124.84a15.67,15.67,0,0,0-2.21-4.13c-1.36-1.95-2.87-3.79-4.15-5.8a17.55,17.55,0,0,1-1.6-3.07,5.18,5.18,0,0,1-.18-2.89,24.72,24.72,0,0,0,.32-2.71,55.81,55.81,0,0,0,.16-6.2,34,34,0,0,0-.39-5.14,10.7,10.7,0,0,0-.85-2.6c-.52-1.14-1.13-2.25-1.75-3.34a32.66,32.66,0,0,1-1.84-3.7,7.65,7.65,0,0,1-.41-1.81c-.07-.58-.09-1.17-.13-1.75-.14-2.25-.23-4.51-.18-6.77,0-.65.07-1.3.1-2a4.24,4.24,0,0,1,1.52-.82c.45,1.52.89,3,1.37,4.55a23,23,0,0,0,3.73,7.57,14.9,14.9,0,0,0,1.76,1.88,24,24,0,0,1,2.73,3A27.5,27.5,0,0,1,136.38,94a35.69,35.69,0,0,1,2.94,8.64,14,14,0,0,0,3.14,6.54A39.07,39.07,0,0,1,146.2,114a24.87,24.87,0,0,1,2.65,5.82l.24.79a5.33,5.33,0,0,0-.87.32,4.51,4.51,0,0,0-1.35.42c-.11,0-.23,0-.31.09a5.29,5.29,0,0,0-1.35.42,4.54,4.54,0,0,0-1.34.42c-.12,0-.23,0-.32.1a2.86,2.86,0,0,0-1,.31,5.27,5.27,0,0,0-1.35.41c-.14,0-.3,0-.41.12a5.52,5.52,0,0,0-1.25.4,16.66,16.66,0,0,0-1.95.56,4.85,4.85,0,0,0-1.05.37,1.46,1.46,0,0,0-.73.23Z"/><path class="cls-10" d="M131.33,61.78l.11-.08Z"/><path class="cls-14" d="M139.32,66.55c-1.08-.4-2.21-.64-3.32-.93-1.31-.35-2.64-.62-3.93-1a.35.35,0,0,1,0-.39,6.26,6.26,0,0,0,.4-1.34,15.5,15.5,0,0,1,3.3-.76,37.63,37.63,0,0,1,5.91-.19c.28.16.59.06.89.09s.48-.05.69.1h-.1a1.19,1.19,0,0,0-1.17.55,23.49,23.49,0,0,0-2,2.76,4.67,4.67,0,0,0-.59,1.13Z"/><path class="cls-15" d="M91.56,104.25c-.12,1-.24,2.07-.33,3.11-.09,1.24-.12,2.47-.21,3.7a35.57,35.57,0,0,0,0,4.5c0,1,0,2,.15,3,.08.62.1,1.26.14,1.9s.11,1,.17,1.58l.12,1.17c.12,1.06.29,2.11.46,3.16.22,1.33.48,2.66.79,4s.6,2.54.94,3.8c.28,1,.6,2,.9,3a1.09,1.09,0,0,1,0,.26,3.79,3.79,0,0,1-.93.32l-1.46.49-.2,0c-.42.1-.82.3-1.26.37a66.8,66.8,0,0,1-2.1-6.8,39.28,39.28,0,0,1-.8-4.46,32.78,32.78,0,0,1-.27-4.42,34.28,34.28,0,0,1,.36-4.52c.28-1.75.5-3.51.77-5.25a40.52,40.52,0,0,1,1.11-5.56A11.55,11.55,0,0,1,91.56,104.25Z"/><path class="cls-13" d="M107.73,70.39c0,.06,0,.08-.11.08Z"/><path class="cls-103" d="M20,154.39s45.29,5.12,101.07-16.93S193,103.39,193,103.39s19.14,56.68-34,90c-40,20-94.89,14.78-116-3S20,154.39,20,154.39Z"/><path class="cls-104" d="M22.72,154.35s49,1.08,98.36-16.89S192,104.39,192,104.39s8.64,39.94-9,64S136,206.78,84,197.62C35.12,186.94,22.72,154.35,22.72,154.35Z"/><path class="cls-105" d="M28.67,154.26,189,106.39s8.72,40.92-13,64S119,202,82.17,190.49,32.21,163,28.67,154.26Z"/><path class="cls-106" d="M135.65,163.8s-1.3,5.2-.32,6.75c1.28,2,4.6.41,4.63-1.16C140,166.45,135.65,163.8,135.65,163.8Z"/><path class="cls-106" d="M141.31,148.39s-.05,4.67,1.1,5.78c1.49,1.44,4-.59,3.68-1.92C145.54,149.75,141.31,148.39,141.31,148.39Z"/><path class="cls-106" d="M105.61,170.13s-2.06,4.69-1.39,6.3c.88,2.1,4.27,1.12,4.55-.35C109.29,173.32,105.61,170.13,105.61,170.13Z"/><path class="cls-106" d="M114.49,157.86s-.73,5.07.35,6.44c1.41,1.79,4.41-.06,4.29-1.55C118.89,160,114.49,157.86,114.49,157.86Z"/><path class="cls-106" d="M83.9,160s-.58,4,.28,5.1c1.12,1.42,3.49-.05,3.39-1.23C87.39,161.67,83.9,160,83.9,160Z"/><path class="cls-106" d="M156.28,156s.24,4.46,1.4,5.45c1.51,1.29,3.76-.8,3.4-2.06C160.4,157.08,156.28,156,156.28,156Z"/><path class="cls-107" d="M44.67,156.59s55.29-7.23,73-12.55c14.84-4.45,56.78-24.83,56.78-24.83s-5.86,28.85-38.84,41.48C87.1,179.26,44.67,156.59,44.67,156.59Z"/></svg>