<svg id="Layer_54" data-name="Layer 54" xmlns="http://www.w3.org/2000/svg" xmlns:xlink="http://www.w3.org/1999/xlink" viewBox="0 0 256 256"><defs><style>.cls-1,.cls-7{fill:#6fef1b;}.cls-1,.cls-11{stroke:#006b08;}.cls-1,.cls-11,.cls-12,.cls-14,.cls-15,.cls-17,.cls-18,.cls-4,.cls-5,.cls-6{stroke-miterlimit:10;}.cls-2{opacity:0.5;}.cls-3{fill:#fff;}.cls-4{fill:#cc854a;stroke:#594200;}.cls-19,.cls-5,.cls-6{fill:#843907;}.cls-5{stroke:#513800;}.cls-6{stroke:#493b00;}.cls-8{clip-path:url(#clip-path);}.cls-9{fill:#61db12;}.cls-10{fill:#7efc2b;}.cls-11{fill:none;}.cls-12{fill:#e0d32f;stroke:#5e6300;}.cls-13{fill:#d1c024;}.cls-14,.cls-17{fill:#ff394c;}.cls-14{stroke:#910000;}.cls-15{fill:#fffa48;stroke:#877d00;}.cls-16{fill:#e5da1a;}.cls-17{stroke:#8e000e;}.cls-18{fill:#f4b70b;stroke:#333;}.cls-20{fill:#a0643c;}.cls-21{fill:#8e5833;}</style><clipPath id="clip-path"><path class="cls-1" d="M195.44,100.41c3.64,8.49,15.7,12.16,21.84,9.1,9.7-4.86,7.88-13.35,7.88-13.35a16,16,0,0,0,16.38-9.1c5.46-10.92-.6-29.12-6.67-32.15a13.11,13.11,0,0,0-11.53,0s1.22-14.56-10.91-17-17.9,1.52-20.63,4.86-2.43,10.92-2.43,10.92-.91-4-13.34-5.46-15.23,12.28-15.17,18.2,2.73,17.89,16.38,15.16c-.3.3-12.74,4.85-4.85,18.2C182.73,117.3,195.44,100.41,195.44,100.41Z"/></clipPath></defs><path class="cls-2" d="M146.7,224.94c-14.52,0-29.64-.34-39.76-.63-5.63-.16-10.39-.32-13.74-.45l-3.94-.16-1.09,0a6.07,6.07,0,0,1-6-6v-6h6c.21,0,.47,0,.78-.08-4-.23-8.22-.37-12.49-.37-3.47,0-6.49.1-9,.3-4.42.35-10.83.56-17.58.56-5.66,0-16.54-.15-25.79-1.12-7-.74-17.7-1.86-17.7-9.67,0-5.64,5-8.57,24.11-14.26,8.47-2.52,17.8-4.92,24.42-6.56V149.54L37.74,136.48l23.55-16.7V100.41l-10.65-12L129.18,43l32.15,18.78a23.29,23.29,0,0,1,5.51-9.57,17.05,17.05,0,0,1,12.34-5.05,20.38,20.38,0,0,1,2.57.16,48.7,48.7,0,0,1,7.54,1.47,19.67,19.67,0,0,1,3.05-5.32,19.11,19.11,0,0,1,13.16-7l1.15-.1c1.54-.15,3-.22,4.46-.22,7.8,0,13.8,2.18,17.83,6.47a19.38,19.38,0,0,1,4.87,10h0c6.68,0,12,2.46,14.3,6.62,1.1,1.65,4.06,6.89,6,17.39.58,3.18,1.94,14.17-4.69,22.49A22.39,22.39,0,0,1,236,107a17,17,0,0,1-3.71,7.54,21.37,21.37,0,0,1-16.22,7.19,21.7,21.7,0,0,1-7.4-1.29l.17,7.49,7.85,5.53L209.16,141l.75,32.12c2.87.18,5.47.44,7.59.76,3.05.45,10.17,1.53,10.17,7.7a6.38,6.38,0,0,1-.79,3.21c5,2.89,5,5.94,5,7.4a7.24,7.24,0,0,1-.89,3.46c4,1.91,6.95,4.91,6.95,9.89,0,10.08-13.59,11.51-29.34,13.17-7.28.77-15.54,1.64-19.11,3.23-2.05.91-6.84,3-42.82,3Z"/><path class="cls-3" d="M141.7,219.94c-14.52,0-29.64-.34-39.76-.63-5.63-.16-10.39-.32-13.74-.45l-3.94-.16-1.09,0a6.07,6.07,0,0,1-6-6v-6h6c.21,0,.47,0,.78-.08-4-.23-8.22-.37-12.49-.37-3.47,0-6.49.1-9,.3-4.42.35-10.83.56-17.58.56-5.66,0-16.54-.15-25.79-1.12-7-.74-17.7-1.86-17.7-9.67,0-5.64,5-8.57,24.11-14.26,8.47-2.52,17.8-4.92,24.42-6.56V144.54L32.74,131.48l23.55-16.7V95.41l-10.65-12L124.18,38l32.15,18.78a23.29,23.29,0,0,1,5.51-9.57,17.05,17.05,0,0,1,12.34-5.05,20.38,20.38,0,0,1,2.57.16,48.7,48.7,0,0,1,7.54,1.47,19.67,19.67,0,0,1,3.05-5.32,19.11,19.11,0,0,1,13.16-7l1.15-.1c1.54-.15,3-.22,4.46-.22,7.8,0,13.8,2.18,17.83,6.47a19.38,19.38,0,0,1,4.87,10h0c6.68,0,12,2.46,14.3,6.62,1.1,1.65,4.06,6.89,6,17.39.58,3.18,1.94,14.17-4.69,22.49A22.39,22.39,0,0,1,231,102a17,17,0,0,1-3.71,7.54,21.37,21.37,0,0,1-16.22,7.19,21.7,21.7,0,0,1-7.4-1.29l.17,7.49,7.85,5.53L204.16,136l.75,32.12c2.87.18,5.47.44,7.59.76,3.05.45,10.17,1.53,10.17,7.7a6.38,6.38,0,0,1-.79,3.21c5,2.89,5,5.94,5,7.4a7.24,7.24,0,0,1-.89,3.46c4,1.91,6.95,4.91,6.95,9.89,0,10.08-13.59,11.51-29.34,13.17-7.28.77-15.54,1.64-19.11,3.23-2.05.91-6.84,3-42.82,3Z"/><path class="cls-4" d="M59.56,179.27s-52.17,12.13-52.17,17S46.82,201.71,62,200.5s46.11,1.21,46.11,4.24-21.84,7.89-24.87,7.89,88,3.64,98.87-1.21,44.89-3,44.89-10.92-21.23-6.67-21.83-9.1,15.77-.61,15.77-4.25-18.81-9.1-52.17-7.88S59.56,179.27,59.56,179.27Z"/><ellipse class="cls-5" cx="195.44" cy="176.54" rx="21.23" ry="2.73"/><polygon class="cls-6" points="199.08 175.63 192.41 175.63 194.23 97.37 197.26 97.37 199.08 175.63"/><path class="cls-7" d="M195.44,100.41c3.64,8.49,15.7,12.16,21.84,9.1,9.7-4.86,7.88-13.35,7.88-13.35a16,16,0,0,0,16.38-9.1c5.46-10.92-.6-29.12-6.67-32.15a13.11,13.11,0,0,0-11.53,0s1.22-14.56-10.91-17-17.9,1.52-20.63,4.86-2.43,10.92-2.43,10.92-.91-4-13.34-5.46-15.23,12.28-15.17,18.2,2.73,17.89,16.38,15.16c-.3.3-12.74,4.85-4.85,18.2C182.73,117.3,195.44,100.41,195.44,100.41Z"/><g class="cls-8"><path class="cls-9" d="M187.55,38.53c1.82,0,39.43-3.64,39.43-3.64l16.38,33.36L244,98l-36.4,15.77L197,103.06s7.59,6.45,16.08,2.2,9.71-9.71,9.71-11.53c4.24-.6,17-3.64,16.38-17s-6.68-18.2-17.6-19.41c0,0-1.21-15.78-14.55-15.78s-17.6,12.14-17.6,12.14Z"/><path class="cls-10" d="M193,61s1.22-7.89,14-6.07,6.67,15.77,6.67,15.77,10.92-2.43,11.52,7.89-9.7,10.92-9.7,10.92-.1,10.7-12.18,9.9S193,86.45,193,86.45s-17.59,7.89-22.44-3.64,6.67-13.34,6.67-13.34S173,62.8,179.67,56.73,193,61,193,61Z"/></g><path class="cls-11" d="M195.44,100.41c3.64,8.49,15.7,12.16,21.84,9.1,9.7-4.86,7.88-13.35,7.88-13.35a16,16,0,0,0,16.38-9.1c5.46-10.92-.6-29.12-6.67-32.15a13.11,13.11,0,0,0-11.53,0s1.22-14.56-10.91-17-17.9,1.52-20.63,4.86-2.43,10.92-2.43,10.92-.91-4-13.34-5.46-15.23,12.28-15.17,18.2,2.73,17.89,16.38,15.16c-.3.3-12.74,4.85-4.85,18.2C182.73,117.3,195.44,100.41,195.44,100.41Z"/><polygon class="cls-12" points="62.29 88.58 62.29 121.94 184.22 121.94 184.22 88.58 124.16 51.57 62.29 88.58"/><polygon class="cls-13" points="62.59 88.88 62.59 93.73 124.16 54.61 183.91 93.73 183.91 88.88 124.16 51.57 62.59 88.88"/><polygon class="cls-14" points="55.01 84.94 59.86 90.4 124.16 51.57 187.86 91 192.71 84.94 124.16 44.9 55.01 84.94"/><polygon class="cls-15" points="55.92 133.16 55.92 187.76 192.41 187.76 191.19 133.16 123.86 84.63 55.92 133.16"/><polygon class="cls-16" points="56.22 132.86 56.22 137.71 124.16 88.58 190.59 137.41 190.59 132.56 124.16 84.94 56.22 132.86"/><polygon class="cls-17" points="42.88 131.65 50.46 137.41 55.92 133.16 124.16 84.94 191.19 133.16 195.44 136.2 202.42 129.22 124.16 74.02 42.88 131.65"/><rect class="cls-18" x="109" y="137.71" width="31.54" height="49.74"/><rect class="cls-19" x="104.45" y="137.41" width="4.25" height="50.35"/><rect class="cls-19" x="140.84" y="137.41" width="4.25" height="50.35"/><rect class="cls-19" x="104.45" y="133.77" width="40.64" height="3.64"/><rect class="cls-20" x="72.92" y="141.37" width="15.82" height="25.12"/><circle class="cls-21" cx="125.03" cy="117.19" r="7.99"/></svg>