<svg id="Layer_54" data-name="Layer 54" xmlns="http://www.w3.org/2000/svg" viewBox="0 0 512 256"><defs><style>.cls-1{opacity:0.5;}.cls-10,.cls-2{fill:#fff;}.cls-3{fill:#f90d1e;stroke:#720000;}.cls-10,.cls-3,.cls-8{stroke-miterlimit:10;stroke-width:2px;}.cls-4{fill:#fc732d;}.cls-5{fill:#ffda00;}.cls-6{fill:#90d812;}.cls-7{fill:#28b3dd;}.cls-8{fill:#ac29b7;stroke:#66006b;}.cls-9{fill:#2f5bc9;}.cls-10{stroke:#666;}</style></defs><path class="cls-1" d="M155.85,200.36a21.93,21.93,0,0,1-11.57-3.13,42.84,42.84,0,0,1-11.49,1.52h-.6c-2.51,0-7.88-.35-12-2.93a44,44,0,0,1-9.74,1.25c-.56,0-1.12,0-1.68,0-4.46-.26-11-1-16.5-3.94a12,12,0,0,1-6.58-8.68,10.7,10.7,0,0,1,3.43-9.25c4.42-4.27,10.13-6.41,17-6.41l1.28,0a9.31,9.31,0,0,1,5.77-2.68,19.07,19.07,0,0,1,3.9-3.05A150.28,150.28,0,0,1,266.48,28.92c77.44,0,142.22,59.23,149.58,135.73a9.22,9.22,0,0,1,1.53,1.09h.65c6,0,11,1.89,14.87,5.63a9.86,9.86,0,0,1,3.2,8.53,11,11,0,0,1-6.05,8c-4.74,2.59-10.36,3.18-14.16,3.39-.48,0-1,0-1.6,0a36.32,36.32,0,0,1-7.84-1,21.48,21.48,0,0,1-10.23,2.38h-.52a37,37,0,0,1-9.35-1.18,19.29,19.29,0,0,1-9.83,2.52,18.92,18.92,0,0,1-7.65-1.69,22,22,0,0,1-6.68,1,23.89,23.89,0,0,1-3.31-.23l-.11,0A24.35,24.35,0,0,1,350.3,190a48,48,0,0,1-7.92.63,72.47,72.47,0,0,1-12.09-1.11c-5.15-.87-11.1-2.2-16.21-5.5L314,184a12.37,12.37,0,0,1-5.83-10.52,11.09,11.09,0,0,1,5.73-9.2,15.63,15.63,0,0,1,5.1-2c-.46-1.4-1-2.78-1.54-4.13a55.29,55.29,0,0,0-101.84,0c-.36.85-.69,1.71-1,2.58a21,21,0,0,1,4.74,3.11c3.78.16,7.78.72,11.24,2.9a12.5,12.5,0,0,1,6.08,10.56,13.48,13.48,0,0,1-6.53,11.18c-5.85,3.78-12.85,5.35-18.93,6.39a87.45,87.45,0,0,1-14.36,1.34,52.57,52.57,0,0,1-9.63-.83,27.06,27.06,0,0,1-10.41,3.85,26.22,26.22,0,0,1-3.9.29,24.44,24.44,0,0,1-8.05-1.31A21.71,21.71,0,0,1,155.85,200.36Z"/><path class="cls-2" d="M150.85,195.36a21.93,21.93,0,0,1-11.57-3.13,42.84,42.84,0,0,1-11.49,1.52h-.6c-2.51,0-7.88-.35-12-2.93a44,44,0,0,1-9.74,1.25c-.56,0-1.12,0-1.68,0-4.46-.26-11-1-16.5-3.94a12,12,0,0,1-6.58-8.68,10.7,10.7,0,0,1,3.43-9.25c4.42-4.27,10.13-6.41,17-6.41l1.28,0a9.31,9.31,0,0,1,5.77-2.68,19.07,19.07,0,0,1,3.9-3.05A150.28,150.28,0,0,1,261.48,23.92c77.44,0,142.22,59.23,149.58,135.73a9.22,9.22,0,0,1,1.53,1.09h.65c6,0,11,1.89,14.87,5.63a9.86,9.86,0,0,1,3.2,8.53,11,11,0,0,1-6.05,8c-4.74,2.59-10.36,3.18-14.16,3.39-.48,0-1,0-1.6,0a36.32,36.32,0,0,1-7.84-1,21.48,21.48,0,0,1-10.23,2.38h-.52a37,37,0,0,1-9.35-1.18,19.29,19.29,0,0,1-9.83,2.52,18.92,18.92,0,0,1-7.65-1.69,22,22,0,0,1-6.68,1,23.89,23.89,0,0,1-3.31-.23l-.11,0A24.35,24.35,0,0,1,345.3,185a48,48,0,0,1-7.92.63,72.47,72.47,0,0,1-12.09-1.11c-5.15-.87-11.1-2.2-16.21-5.5L309,179a12.37,12.37,0,0,1-5.83-10.52,11.09,11.09,0,0,1,5.73-9.2,15.63,15.63,0,0,1,5.1-2c-.46-1.4-1-2.78-1.54-4.13a55.29,55.29,0,0,0-101.84,0c-.36.85-.69,1.71-1,2.58a21,21,0,0,1,4.74,3.11c3.78.16,7.78.72,11.24,2.9a12.5,12.5,0,0,1,6.08,10.56,13.48,13.48,0,0,1-6.53,11.18c-5.85,3.78-12.85,5.35-18.93,6.39a87.45,87.45,0,0,1-14.36,1.34,52.57,52.57,0,0,1-9.63-.83,27.06,27.06,0,0,1-10.41,3.85,26.22,26.22,0,0,1-3.9.29,24.44,24.44,0,0,1-8.05-1.31A21.71,21.71,0,0,1,150.85,195.36Z"/><path class="cls-3" d="M129.16,174.22a132.29,132.29,0,1,1,264.58,0h12a144.27,144.27,0,1,0-288.54,0Z"/><path class="cls-4" d="M384.91,122.89A133.93,133.93,0,0,0,127.6,175h12.12a120.7,120.7,0,0,1,9.56-47.4,122.39,122.39,0,0,1,26.09-38.7A121.71,121.71,0,0,1,383.22,175h12.12A131.09,131.09,0,0,0,384.91,122.89Z"/><path class="cls-5" d="M151.48,175.12a110,110,0,1,1,220,0h12.16A122.18,122.18,0,0,0,214,62.61a122.89,122.89,0,0,0-65,65,121.11,121.11,0,0,0-9.59,47.53h12.1Z"/><path class="cls-6" d="M362.9,132.25a110,110,0,0,0-211.46,42.8h12.15a97.95,97.95,0,1,1,195.89,0h12.15A109,109,0,0,0,362.9,132.25Z"/><path class="cls-7" d="M175.7,175a85.18,85.18,0,0,1,25.16-60.67,86.36,86.36,0,0,1,27.28-18.44,85.58,85.58,0,0,1,94.06,18.44,86.25,86.25,0,0,1,18.44,27.28A84.8,84.8,0,0,1,347.36,175h12.16a98.12,98.12,0,0,0-59.86-90.31A98,98,0,0,0,163.52,175H175.7Z"/><path class="cls-8" d="M200.31,174.64a61.29,61.29,0,0,1,85-56.45A61.51,61.51,0,0,1,318,150.84a61.05,61.05,0,0,1,4.78,23.8h12.12a72.93,72.93,0,0,0-5.71-28.53,72.17,72.17,0,0,0-15.75-23.3,74.34,74.34,0,0,0-23.31-15.76,73.09,73.09,0,0,0-80.35,15.76A74.26,74.26,0,0,0,194,146.11a72.57,72.57,0,0,0-5.71,28.53h12Z"/><path class="cls-9" d="M339,141.31A83.78,83.78,0,0,0,321,114.57a84.77,84.77,0,0,0-26.74-18.08A83.9,83.9,0,0,0,202,114.57a84.57,84.57,0,0,0-18.07,26.74A83.13,83.13,0,0,0,177.35,174h11.92A71.83,71.83,0,0,1,194.89,146,71.09,71.09,0,0,1,210.4,123a72.89,72.89,0,0,1,22.95-15.51A72,72,0,0,1,312.46,123,72.87,72.87,0,0,1,328,146,71.44,71.44,0,0,1,333.58,174h11.93A81.49,81.49,0,0,0,339,141.31Z"/><path class="cls-9" d="M340.94,140.54a84.13,84.13,0,0,0-161.68,32.73h11.93a71.4,71.4,0,0,1,21.12-51,73.23,73.23,0,0,1,22.95-15.51,72,72,0,0,1,79.11,15.51,73.23,73.23,0,0,1,15.51,23,71.57,71.57,0,0,1,5.61,28.08h11.93A81.32,81.32,0,0,0,340.94,140.54Z"/><path class="cls-9" d="M337.8,140.15a83.75,83.75,0,0,0-18.07-26.74A84.81,84.81,0,0,0,293,95.33a83.87,83.87,0,0,0-92.2,18.08,84.6,84.6,0,0,0-18.08,26.74,83.13,83.13,0,0,0-6.58,32.73h11.93a71.66,71.66,0,0,1,5.62-28.08,70.93,70.93,0,0,1,15.51-22.94c6.68-6.64,15.24-10.36,23.8-14a73,73,0,0,1,56.16,0c8.61,3.63,15.46,7.3,22.09,14a73.07,73.07,0,0,1,15.51,22.94,71.62,71.62,0,0,1,5.62,28.08h11.92A81.32,81.32,0,0,0,337.8,140.15Z"/><path class="cls-10" d="M312.33,174c4.08,2.63,9.18,3.81,14,4.62,6.66,1.13,13.75,1.61,20.36,0,.37.32.8.59,1.12.86a18.17,18.17,0,0,0,7.2,2.79,15.59,15.59,0,0,0,9.51-1.5,12.77,12.77,0,0,0,7.25,2.36,12.22,12.22,0,0,0,8.75-3.22,28,28,0,0,0,10.95,1.88c2.53,0,7.09-.59,8.76-2.9.37.11.7.16,1.07.27a31.86,31.86,0,0,0,9.51,1.18c3.86-.22,8.21-.81,11.65-2.69,2.9-1.55,4.19-4.4,1.5-7-3.92-3.81-9.23-4.4-14.39-3.65v-.16a2.8,2.8,0,0,0-3.54-2.2,3.15,3.15,0,0,0-.92.53c-.91-3.92-8.7-6.55-11.92-6.82-2.84-.21-6.82-.05-8.64,2.58a8.81,8.81,0,0,0-.7,1.24,4.05,4.05,0,0,0-4.73-.33,3.41,3.41,0,0,0-.21-2.41c-1.34-2.85-5.05-3.87-8-3.87a10.11,10.11,0,0,0-5.64,1.51,4.06,4.06,0,0,0-.7-1.67,11.29,11.29,0,0,0-7.36-4.35c-2.79-.38-6,0-7.62,2.52a7,7,0,0,0-1.13,4.35,5.37,5.37,0,0,0-2.69.6,5.89,5.89,0,0,0-2.68,3c-3.87-5.69-17.61-4.72-22.23,1.18h-.33c-2.79.06-6.12.17-8.48,1.67C307.77,166.86,308.57,171.48,312.33,174Z"/><path class="cls-10" d="M222.38,166.86c-2.9-1.83-6.87-2-10.2-2h-.43c-5.53-7-22-8.22-26.58-1.4a7.06,7.06,0,0,0-3.23-3.6,6,6,0,0,0-3.16-.69,8.49,8.49,0,0,0-1.35-5.21c-2-3-5.8-3.49-9.13-3a13.07,13.07,0,0,0-8.8,5.21,6.26,6.26,0,0,0-.86,2,11.89,11.89,0,0,0-6.71-1.83c-3.5,0-8,1.23-9.56,4.62a3.9,3.9,0,0,0-.27,2.9,4.93,4.93,0,0,0-5.69.43,10,10,0,0,0-.81-1.45c-2.2-3.12-6.93-3.33-10.36-3.06-3.87.32-13.16,3.49-14.24,8.16a4,4,0,0,0-1.12-.65,3.39,3.39,0,0,0-4.25,2.69.2.2,0,0,1,0,.16c-6.17-.91-12.57-.16-17.24,4.35-3.17,3.12-1.66,6.5,1.83,8.38,4.13,2.25,9.34,2.95,14,3.22a39,39,0,0,0,11.39-1.45l1.28-.32c1.94,2.79,7.42,3.49,10.48,3.49a34,34,0,0,0,13.1-2.26c2.63,2.69,6.66,3.87,10.47,3.87a15.5,15.5,0,0,0,8.65-2.85c3.33,2,7.89,2.37,11.38,1.83a21,21,0,0,0,8.65-3.33,10.81,10.81,0,0,0,1.34-1c7.89,2,16.33,1.34,24.33,0,5.69-1,11.81-2.36,16.7-5.53C226.36,175.61,227.27,170,222.38,166.86Z"/></svg>