<svg id="Layer_54" data-name="Layer 54" xmlns="http://www.w3.org/2000/svg" viewBox="0 0 256 256"><defs><style>.cls-1{opacity:0.5;}.cls-2{fill:#fff;}.cls-3{fill:#4c2915;stroke:#1e0f02;}.cls-10,.cls-11,.cls-19,.cls-22,.cls-23,.cls-3{stroke-width:0.94px;}.cls-22,.cls-24,.cls-25,.cls-26,.cls-27,.cls-31,.cls-32,.cls-4{fill:#f7b777;}.cls-15,.cls-22,.cls-23,.cls-24,.cls-25,.cls-26,.cls-27,.cls-31,.cls-32,.cls-4,.cls-6{stroke:#935c2b;}.cls-15,.cls-4,.cls-6{stroke-width:1.41px;}.cls-11,.cls-14,.cls-5{fill:#4c0808;}.cls-6{fill:#3d0505;}.cls-10,.cls-13,.cls-7{fill:#f9f4f4;}.cls-33,.cls-8{fill:#cc7a36;}.cls-9{fill:#e08c4c;}.cls-10,.cls-13{stroke:#471e1e;}.cls-11,.cls-14{stroke:#300d0d;}.cls-12,.cls-15,.cls-23{fill:none;}.cls-12{stroke:#4c0808;stroke-width:0.73px;}.cls-12,.cls-28,.cls-29,.cls-30{stroke-miterlimit:10;}.cls-13,.cls-14{stroke-width:0.83px;}.cls-16{fill:#1c3a04;}.cls-17{fill:#599327;}.cls-18{fill:#6b2f18;}.cls-19{fill:#b52626;stroke:#300202;}.cls-20{fill:#771313;}.cls-21{fill:#e55a5a;}.cls-24{stroke-width:1.07px;}.cls-25{stroke-width:1.09px;}.cls-26{stroke-width:1.5px;}.cls-27{stroke-width:1.26px;}.cls-28{fill:#fba919;stroke:#562f0b;}.cls-28,.cls-29,.cls-30{stroke-width:0.83px;}.cls-29{fill:#fed982;stroke:#684a00;}.cls-30{fill:#50534e;stroke:#2b2a2a;}.cls-31{stroke-width:0.66px;}.cls-32{stroke-width:0.67px;}.cls-33{opacity:0.39;}</style></defs><path class="cls-1" d="M142.23,240.53a7.42,7.42,0,0,1-6.75-4.53,5.9,5.9,0,0,1-.78-2.33c-1.07-4.84,0-12.19.44-13.51a2.28,2.28,0,0,0-.1.36l0-.15c.31-1.69,1-5.61,7-18.21a76,76,0,0,1,3.34-9.55c1-2.54,2.46-6.35,3.25-8.76l-.12-.12c-.17.51-.36,1-.56,1.54-4,10-18.79,17.55-29.28,17.55-.58,0-1.15,0-1.7-.07-8.19-.67-15-6.51-19.59-10.37-1.06-.91-2.06-1.76-2.68-2.19a2,2,0,0,0-1.3-.34c-2,0-4.85,1.28-5.8,1.69a6.61,6.61,0,0,0-3,3.19c-.21.79-.25,1.71,1.54,3.22l.12.08a26.68,26.68,0,0,0,5.75,3.11c1,.27,9.68,2.8,10.18,8.56a7.83,7.83,0,0,1-2.32,5.87,9.14,9.14,0,0,1-6.69,3.2h-.77a11.34,11.34,0,0,1-6.27-2l-.24-.17a35.11,35.11,0,0,1-4.66-3.7L81,212.6l-.27-.29c-7.39-6.81-10.86-13.81-10.06-20.25.48-3.81,2.72-9.25,10.7-13.53a23.84,23.84,0,0,1,11.35-3.19c6.83,0,11.67,3.77,15.56,6.8s6.58,5,10.37,5a17.28,17.28,0,0,0,6.29-1.39c4.86-1.92,7.93-4.43,9.13-7.44s.49-6.15-.33-8.42a111.81,111.81,0,0,1-11.2-8.45,44.36,44.36,0,0,0-4.78,6.87,6,6,0,0,1-5.23,3.06q-.3,0-.6,0c-11.25-1.13-28.08-3.69-34.21-4.64-2,.26-3,.44-3.42.52-.22.07-.45.13-.68.18a5.85,5.85,0,0,1-.15,2.12,6,6,0,0,1-3.4,4l-2.36,1a6.12,6.12,0,0,1-2.41.5,6,6,0,0,1-5.55-3.7L59,169.53a17,17,0,0,1-3.36-7,11.89,11.89,0,0,1-2.57-3.59,4.22,4.22,0,0,1-.18-.45A9.62,9.62,0,0,1,53.6,150l.06-.09a9.46,9.46,0,0,1,1.22-3.69,10.27,10.27,0,0,1,4.66-7.76,8.88,8.88,0,0,1,5.16-1.62,10.25,10.25,0,0,1,2.31.27,21.82,21.82,0,0,1,4.75-1.38,15.48,15.48,0,0,1-2-8,6.54,6.54,0,0,1,.06-.89,9.14,9.14,0,0,1,1.49-3.76,16.88,16.88,0,0,1-.49-1.82,6,6,0,0,1-4.59-6.16c0-.41.06-.81.1-1.2a5.77,5.77,0,0,1-.6-.78c-1.82-2.81-.71-5.29.36-7.7a.61.61,0,0,1,.07-.14c-1.29-2.68-.14-5.27.38-6.42,4.91-11,21.22-14,23.07-14.25l.13,0a50,50,0,0,1,6.81-.48c12.44,0,20.32,5,24.65,9.12a242.54,242.54,0,0,0-1.41-26.85C114.3,64.15,111.2,59.81,112,55c0-.19.07-.37.11-.55-14-14.41-20.86-24.57-21.17-25a6,6,0,0,1,5-9.35h8.16a6,6,0,0,1,4.74,2.32c.93,1.2,1.88,2.38,2.84,3.56,2.75,3.33,7.1,8.32,13,14.4a10.27,10.27,0,0,1,4.11-1h.51a8.61,8.61,0,0,1,6.69,2.8,5.44,5.44,0,0,1,.68.23,8.9,8.9,0,0,1,5.79,6.95A8.31,8.31,0,0,1,145,56.61a8,8,0,0,1-.65,2.08q2,1.73,4.08,3.41a319.39,319.39,0,0,0,54.27,35.43l2.64,1.3a6,6,0,0,1,3.38,5.4v8.37a6,6,0,0,1-8.64,5.38A320.64,320.64,0,0,1,140,79.81a176.53,176.53,0,0,0,6,17.56c1.57,3,1.2,6.9,1,8.44a6,6,0,0,1-2.75,4.18,7.29,7.29,0,0,1-.67,1,6.06,6.06,0,0,1-3.68,2.27,30.4,30.4,0,0,0-2.15,7.2,33.94,33.94,0,0,0,3.13,13.91c.58-4.58,1.78-7.64,3.69-9.56a7.5,7.5,0,0,1,5.34-2.3,6.86,6.86,0,0,1,2.23.37,5.65,5.65,0,0,1,.67.29c2.1,1,6.08,3,11.17,22.94,2.59-4.5,5.35-7.81,8.23-9.88a15.67,15.67,0,0,1,6.41-3c.2,0,.39-.07.59-.09a9.14,9.14,0,0,1,1.16-.07,8.65,8.65,0,0,1,5.86,2.2,10.76,10.76,0,0,1,3.3,7,26.8,26.8,0,0,1,.11,2.9,18.71,18.71,0,0,1-2.56,9.9c-.29.45-.75,1.12-1.34,2a34.68,34.68,0,0,1-2.41,3.32c-3.73,5.07-12.23,16.42-15.35,19.08a12.16,12.16,0,0,1,.72,8.6,5.93,5.93,0,0,1-1.81,2.84,6.57,6.57,0,0,1-.57,1,6.09,6.09,0,0,1-2.35,1.92c-1.35,2.64-3.3,6.37-6.13,11.69l-.54,2.95a72.47,72.47,0,0,1-1.7,13.72c-1.55,5.78-3.34,11.7-6.71,15.21a5.75,5.75,0,0,1-.79.77,9.78,9.78,0,0,1-3.91,2.13A7.44,7.44,0,0,1,142.23,240.53ZM84.16,150.91a27.63,27.63,0,0,0,9,1.48,30.34,30.34,0,0,0,5.72-.56,16.85,16.85,0,0,1-2.16-4v0h0a23.09,23.09,0,0,1-5.19-1.93A16,16,0,0,1,85.66,147a14.88,14.88,0,0,1-1.89-.13,5.46,5.46,0,0,1-1-.22A17.55,17.55,0,0,1,84.16,150.91Z"/><path class="cls-2" d="M137.23,235.53a7.42,7.42,0,0,1-6.75-4.53,5.9,5.9,0,0,1-.78-2.33c-1.07-4.84,0-12.19.44-13.51a2.28,2.28,0,0,0-.1.36l0-.15c.31-1.69,1-5.61,7-18.21a76,76,0,0,1,3.34-9.55c1-2.54,2.46-6.35,3.25-8.76l-.12-.12c-.17.51-.36,1-.56,1.54-4,10-18.79,17.55-29.28,17.55-.58,0-1.15,0-1.7-.07-8.19-.67-15-6.51-19.59-10.37-1.06-.91-2.06-1.76-2.68-2.19a2,2,0,0,0-1.3-.34c-2,0-4.85,1.28-5.8,1.69a6.61,6.61,0,0,0-3,3.19c-.21.79-.25,1.71,1.54,3.22l.12.08a26.68,26.68,0,0,0,5.75,3.11c1,.27,9.68,2.8,10.18,8.56a7.83,7.83,0,0,1-2.32,5.87,9.14,9.14,0,0,1-6.69,3.2h-.77a11.34,11.34,0,0,1-6.27-2l-.24-.17a35.11,35.11,0,0,1-4.66-3.7L76,207.6l-.27-.29c-7.39-6.81-10.86-13.81-10.06-20.25.48-3.81,2.72-9.25,10.7-13.53a23.84,23.84,0,0,1,11.35-3.19c6.83,0,11.67,3.77,15.56,6.8s6.58,5,10.37,5a17.28,17.28,0,0,0,6.29-1.39c4.86-1.92,7.93-4.43,9.13-7.44s.49-6.15-.33-8.42a111.81,111.81,0,0,1-11.2-8.45,44.36,44.36,0,0,0-4.78,6.87,6,6,0,0,1-5.23,3.06q-.3,0-.6,0c-11.25-1.13-28.08-3.69-34.21-4.64-2,.26-3,.44-3.42.52-.22.07-.45.13-.68.18a5.85,5.85,0,0,1-.15,2.12,6,6,0,0,1-3.4,4l-2.36,1a6.12,6.12,0,0,1-2.41.5,6,6,0,0,1-5.55-3.7L54,164.53a17,17,0,0,1-3.36-7,11.89,11.89,0,0,1-2.57-3.59,4.22,4.22,0,0,1-.18-.45A9.62,9.62,0,0,1,48.6,145l.06-.09a9.46,9.46,0,0,1,1.22-3.69,10.27,10.27,0,0,1,4.66-7.76,8.88,8.88,0,0,1,5.16-1.62,10.25,10.25,0,0,1,2.31.27,21.82,21.82,0,0,1,4.75-1.38,15.48,15.48,0,0,1-2-8,6.54,6.54,0,0,1,.06-.89,9.14,9.14,0,0,1,1.49-3.76,16.88,16.88,0,0,1-.49-1.82,6,6,0,0,1-4.59-6.16c0-.41.06-.81.1-1.2a5.77,5.77,0,0,1-.6-.78c-1.82-2.81-.71-5.29.36-7.7a.61.61,0,0,1,.07-.14c-1.29-2.68-.14-5.27.38-6.42,4.91-11,21.22-14,23.07-14.25l.13,0a50,50,0,0,1,6.81-.48c12.44,0,20.32,5,24.65,9.12a242.54,242.54,0,0,0-1.41-26.85C109.3,59.15,106.2,54.81,107,50c0-.19.07-.37.11-.55-14-14.41-20.86-24.57-21.17-25a6,6,0,0,1,5-9.35h8.16a6,6,0,0,1,4.74,2.32c.93,1.2,1.88,2.38,2.84,3.56,2.75,3.33,7.1,8.32,13,14.4a10.27,10.27,0,0,1,4.11-1h.51a8.61,8.61,0,0,1,6.69,2.8,5.44,5.44,0,0,1,.68.23,8.9,8.9,0,0,1,5.79,6.95A8.31,8.31,0,0,1,140,51.61a8,8,0,0,1-.65,2.08q2,1.73,4.08,3.41a319.39,319.39,0,0,0,54.27,35.43l2.64,1.3a6,6,0,0,1,3.38,5.4v8.37a6,6,0,0,1-8.64,5.38A320.64,320.64,0,0,1,135,74.81a176.53,176.53,0,0,0,6,17.56c1.57,3,1.2,6.9,1,8.44a6,6,0,0,1-2.75,4.18,7.29,7.29,0,0,1-.67,1,6.06,6.06,0,0,1-3.68,2.27,30.4,30.4,0,0,0-2.15,7.2,33.94,33.94,0,0,0,3.13,13.91c.58-4.58,1.78-7.64,3.69-9.56a7.5,7.5,0,0,1,5.34-2.3,6.86,6.86,0,0,1,2.23.37,5.65,5.65,0,0,1,.67.29c2.1,1,6.08,3,11.17,22.94,2.59-4.5,5.35-7.81,8.23-9.88a15.67,15.67,0,0,1,6.41-3c.2,0,.39-.07.59-.09a9.14,9.14,0,0,1,1.16-.07,8.65,8.65,0,0,1,5.86,2.2,10.76,10.76,0,0,1,3.3,7,26.8,26.8,0,0,1,.11,2.9,18.71,18.71,0,0,1-2.56,9.9c-.29.45-.75,1.12-1.34,2a34.68,34.68,0,0,1-2.41,3.32c-3.73,5.07-12.23,16.42-15.35,19.08a12.16,12.16,0,0,1,.72,8.6,5.93,5.93,0,0,1-1.81,2.84,6.57,6.57,0,0,1-.57,1,6.09,6.09,0,0,1-2.35,1.92c-1.35,2.64-3.3,6.37-6.13,11.69l-.54,2.95a72.47,72.47,0,0,1-1.7,13.72c-1.55,5.78-3.34,11.7-6.71,15.21a5.75,5.75,0,0,1-.79.77,9.78,9.78,0,0,1-3.91,2.13A7.44,7.44,0,0,1,137.23,235.53ZM79.16,145.91a27.63,27.63,0,0,0,9,1.48,30.34,30.34,0,0,0,5.72-.56,16.85,16.85,0,0,1-2.16-4v0h0a23.09,23.09,0,0,1-5.19-1.93A16,16,0,0,1,80.66,142a14.88,14.88,0,0,1-1.89-.13,5.46,5.46,0,0,1-1-.22A17.55,17.55,0,0,1,79.16,145.91Z"/><g id="m"><path class="cls-3" d="M132.51,158.82s11.92,18.66-10.35,27.48-23.37-18-42.94-7.48c-19.95,10.7,5.42,28,5.42,28s3.86,2.8,6.08-1.26C92.12,203,70.35,200,74,187.75a12.68,12.68,0,0,1,6.26-6.7c4.58-2,9.27-3.35,13-.78s11.17,10.84,19.32,11.51S134.25,186,137.43,178a21.57,21.57,0,0,0,0-16.08Z"/><path class="cls-3" d="M64.24,149.51a21.86,21.86,0,0,0,10,.87,34.48,34.48,0,0,0,26.74.59s5.15-4.75,5.77-9.7a24.53,24.53,0,0,1,2.48-8.25l2.6-2.1c6.3-2.95,9-31.19,9-31.19,3.45-10-.57-43.49-.57-43.49-.58-5.49,5.6,1.89,5.6,1.89-.12,11.59,9,35.39,9.81,37s.37,4.79.37,4.79a2,2,0,0,0-1.23-1.84c.49,2-1.59,5.76-1,3.8s-.61-2.08-.61-2.08c-5.4,6-6.5,15.33-6.5,15.33a40.94,40.94,0,0,0,13.86,30.46l.86-8c-.09-15.35,3.66-14,3.66-14,5.91,2.94,12,37.51,12,37.51l-1.78,3.78s.56-1.82,1.57-4.53c2.52-6.84,7.81-19.34,13.87-22.75,8.47-4.76,7.08,7.19,5.58,10.15-.94,1.86-15.27,19.78-17.57,22.17s-5.17-10.22-5.17-10.22l-5.75-16.34c.27,3.32-3.49,13.55-3.49,13.55,4.88,4.49,12.65,19.43,12.65,19.43,1.8,2,.9,5.09.9,5.09a2.41,2.41,0,0,0-.8-2.3c.6,1.9-1.09,5.58-.66,3.79a4.23,4.23,0,0,0,0-2.64c-.62,1.85-10.11,19.61-10.11,19.61-3.92,18-10.73,29.47-9.49,19s5.48-16.83,6.1-20.34,8.34-20.49,7.1-21.73c-2.6-2.6-14.65-15.06-14.65-15.06-6.39-2.89-17.33-12.79-17.33-12.79-4.33.41-10.52,11.43-10.52,11.43-13.62-1.36-36-4.93-36-4.93-9.77.69-9.38.23-10.82-2.24"/><path class="cls-4" d="M116.31,142.52s-4.4-7.61,1.91-11,19.54,12.18,23.66,18-1.18,11.74-6.61,9.25S119.67,148.1,116.31,142.52Z"/><path class="cls-4" d="M78.67,131.52s-7.91,0-7.91-8.71a2.38,2.38,0,0,1,3.43-2c3,1.14,5.74,4,6,6S78.67,131.52,78.67,131.52Z"/><path class="cls-5" d="M76.79,123.17s-3.12-1.83-3.85.46,2.54,6.21,6.64,6.69,2-3.08,2-3.08Z"/><path class="cls-3" d="M115.25,96.37s-8-13.75-29.7-10.76c0,0-14.8,2.37-18.53,10.76-2.39,5.38,4.84-5.49,18.33-6A20.3,20.3,0,0,0,66.57,103C63.63,109.53,69,98,78,95.38s-10,1.19-10.76,15.14a21.3,21.3,0,0,1,3-5.15A9.85,9.85,0,0,1,75,102s-5.7,3.2-5.5,9.38a16.36,16.36,0,0,1,2.11-3.6s-1.39,7.58,2,11.56c0,0,3.18,5.78,5.38,7.57,0,0-.4,5.58.59,8.37,0,0,4.39.8,7.58-1.59,0,0,7.91,6.06,22.72-1.59a17.5,17.5,0,0,0,9.76-18.14S127.6,101.75,115.25,96.37Z"/><path class="cls-4" d="M86.26,114.52s-4.67-12.09,2.16-16c8.08-4.68,17.72,6.9,20.83,12.07,0,0-4-11,3.71-13.63s13.46,8.71,6.67,17a20.08,20.08,0,0,1-9.2,19.73c-11.64,7.57-21.2,2.35-23.28,0a10.86,10.86,0,0,1-7.59,2.27s-1.52-1.73-.58-9c0,0-11.16-9.82-4.09-17.13C79.13,105.35,86.26,114.52,86.26,114.52Z"/><path class="cls-6" d="M87.3,133.32c-.53.6,8.4,1.1,12.1-1.31a12.29,12.29,0,0,0,4.83-9.3,9.27,9.27,0,0,1-2.69,1s-6.83.17-8.6,1.55C88.82,128.52,88.73,131.7,87.3,133.32Z"/><path class="cls-7" d="M88.86,130.61a2.62,2.62,0,0,0,1.08.9c.54.15,5.21-2.55,6.36-4l-.55-.66,1-.89.51.75S99,125,99.06,124c0,0-4.06.09-5.1.78s-2.68,1-3.66,3S88.86,130.61,88.86,130.61Z"/><path class="cls-8" d="M88.16,133.82s8.63,3.72,16.07.63a21.7,21.7,0,0,0,13.07-21l-.23-1.35s1,1.46,3.21.5l-.65,1.29s.86,6.53-1.35,10.48-4.46,8.57-11.89,11.43-12.31,1.68-14.54.67S87,134.37,88.16,133.82Z"/><path class="cls-9" d="M91.11,102a7.84,7.84,0,0,1,6.48-.5c3.74,1.28,7.39,9,4.88,13.46-2,3.49-7.47,4.55-10.36,1.74S87.1,104.47,91.11,102Z"/><path class="cls-9" d="M80.23,125.43a4.94,4.94,0,0,0,6.46-2.34c1.66-2.89-.85-8.55-2.78-10.37-3.31-3.1-5.77-2.83-8.08.2Z"/><path class="cls-8" d="M115.42,136.61s11.14,16.2,27.07,20.23c0,0-3.49,8.2-18.62-5.66C114.82,142.89,113.94,138.15,115.42,136.61Z"/><ellipse class="cls-10" cx="94.64" cy="109.78" rx="6.73" ry="8.19" transform="translate(-38.7 52.96) rotate(-26.16)"/><ellipse class="cls-11" cx="97.51" cy="110.81" rx="2.99" ry="3.43" transform="translate(-17.94 18.84) rotate(-10.11)"/><circle class="cls-2" cx="98.79" cy="109.71" r="0.84"/><circle class="cls-2" cx="98.79" cy="111.8" r="0.36"/><path class="cls-12" d="M87.55,123s-3.46.92-.57,3.45"/><ellipse class="cls-5" cx="87.71" cy="125.05" rx="0.64" ry="0.86" transform="translate(-62.72 98.59) rotate(-44.98)"/><path class="cls-12" d="M89.15,122.28s1.52-3.24,3.49.06"/><ellipse class="cls-5" cx="91.11" cy="122.81" rx="0.64" ry="0.86" transform="translate(-53.73 73.77) rotate(-34.73)"/><ellipse class="cls-13" cx="80.23" cy="118.09" rx="5.75" ry="7.52" transform="translate(-39.75 40.71) rotate(-22.99)"/><ellipse class="cls-14" cx="82.73" cy="118.71" rx="2.52" ry="3.2" transform="translate(-21.48 18.33) rotate(-11.2)"/><ellipse class="cls-2" cx="83.67" cy="117.55" rx="0.7" ry="0.78" transform="translate(-6.77 5.13) rotate(-3.37)"/><ellipse class="cls-2" cx="83.91" cy="119.48" rx="0.3" ry="0.34" transform="translate(-6.88 5.14) rotate(-3.37)"/><path class="cls-5" d="M112.7,109.71s-2.65-7.27,1.1-9.91c2.55-1.81,8.32.64,6.76,7.94-1.46,6.86-3.61,4.77-3.19,2,0,0,.35-2-1.38-1.94C114.86,107.9,113.43,113,112.7,109.71Z"/><path class="cls-15" d="M110.43,118.73a7,7,0,0,1-4.31-1.34l1.94,1.07c-.06.54-2,3-3.83,4.25s-7.28,1.42-9.49,1.84a7.37,7.37,0,0,0-5,4.19,54.67,54.67,0,0,1-2.63,4.9s.51,2,6.06,3.36a21.59,21.59,0,0,0,18.69-4.39c5.74-4.82,8.6-10.78,7.73-18.7a22.74,22.74,0,0,0,1.93-3.1"/><path class="cls-16" d="M90.9,21.05s34.4,51.1,106.83,86.55V99.23S138.16,71.31,99.06,21.05Z"/><path class="cls-17" d="M95.75,21.05c2.7,5.63,17.11,17.39,17.11,17.39,35.05,36.37,84.87,65.61,84.87,65.61V99.23C134.56,68.57,99.06,21.05,99.06,21.05Z"/><path class="cls-18" d="M70.19,93.51a36.27,36.27,0,0,1,21.38-7.09,31.61,31.61,0,0,1,20.33,7.52s-6.07,2.6-6.62,6.59c-.61,4.45-6.28-9.1-18.13-3.25,0,0-5.67,3.85-4.42,10.32,0,0-6.34-2.46-9.89,1.31,0,0-.31-2.74.59-3.55a6.25,6.25,0,0,0-2.67,2.24A14.28,14.28,0,0,1,77.49,101s-3.89-.83-8.11,4.37c0,0,2.62-6.78,14.29-11.49a19,19,0,0,0-13.3,5.36c-6.19,5.87,3.29-8.41,17.5-8.5C87.87,90.73,82.76,87,70.19,93.51Z"/><path class="cls-18" d="M125.39,62s2.69,19.49,8,29.87c0,0,2.23,5,.36,6.23s-6.89,10.77-7.58,14.22S128.3,98,127.91,90.05,123.16,64.19,125.39,62Z"/><path class="cls-18" d="M78.05,152a35.32,35.32,0,0,0,23.15-.7s4.39-2.36,6.07-9.26c0,0,1.67,8.17-5.39,12.43S79.07,153.35,78.05,152Z"/><path class="cls-18" d="M124.76,118.71s-1.5,8.19,5.66,16.07S125.28,127.74,124.76,118.71Z"/><path class="cls-18" d="M144.94,124.19s4.56,2.59,10.26,29.43c0,0,1.75,6.78-1.47-1.2s-6.28-25.61-9.42-25.44C142.6,127.07,143.34,124.65,144.94,124.19Z"/><path class="cls-18" d="M142.49,158.82A4,4,0,0,0,144,157.6s10.73,15.32,12.31,19S147.62,196,147.62,196s6.69-15.19,6.59-17.49S144,160,142.49,158.82Z"/><path class="cls-19" d="M98.53,130.16a.64.64,0,0,0-.54.19c-1,.87-3.25,3.74-.69,10.31,3.17,8.16,8.42,2.49,5.94-2.23a16,16,0,0,1-1.32-9.87s-.77-.54-2.07.75C99.07,130.09,98.7,130.2,98.53,130.16Z"/><path class="cls-20" d="M98.93,130.27s-1.73,2.37-.12,6.77-.87-5,1.06-7.37Z"/><path class="cls-21" d="M100,130s-1.64,1.8-.13,8.79,2.79,4.33,3.15,3.2a5.64,5.64,0,0,0-.39-3.62c-.41-.86-2.14-6.25-1.43-8.74C101.2,129.67,101.06,128.81,100,130Z"/><path class="cls-18" d="M84.24,177.27s6.2-2.7,14,4.42,14,7.62,18.58,6.9,12.67-4,16.3-9.32c0,0-3.27,8-16.16,10.53-10.32,2-20.29-8.47-22.21-9.89s-6.84-3.63-13.74-.86S82.47,177.7,84.24,177.27Z"/><path class="cls-22" d="M153.59,159.43a2.06,2.06,0,0,1,.94,1.43,6.77,6.77,0,0,0,.6-2.82,4.61,4.61,0,0,1,.54,1.68,7,7,0,0,0,1-3.72,3.89,3.89,0,0,1,0,2.46,18.66,18.66,0,0,0,.76-3.4l.64,3.07s5.2-16.66,12.62-22,7.84,1.72,7.84,1.72a19.24,19.24,0,0,1,.09,2.28,13.6,13.6,0,0,1-1.61,6.76c-2.17,3.38-16,21.68-17.85,23-2.06,1.4-2.83,1.87-3.45-.62S153.59,159.43,153.59,159.43Z"/><path class="cls-8" d="M155.8,168.86s7.07-23.32,14.3-31c4-4.22,9.16-2.54,8.08,4.24,0,0,.38,3.54-4.63,9.67s-12.89,18.1-16.07,18.86C157.48,170.6,156.25,171.68,155.8,168.86Z"/><line class="cls-23" x1="158.38" y1="157.25" x2="156.25" y2="164.05"/><path class="cls-22" d="M165.46,148.72a64.41,64.41,0,0,1,9.28-14.52"/><path class="cls-22" d="M177.19,134.84a127.11,127.11,0,0,0-8.59,15.7"/><path class="cls-22" d="M170.89,151.74s7.21-10.36,7.71-11.59"/><path class="cls-24" d="M77.24,200.21a2.9,2.9,0,0,0-.58-1.56,1.91,1.91,0,0,1,1.47,1.07s.63-1.14-.25-1.77c0,0,4.48,3.13,7.61,4s5.72,2.73,5.77,3.28a3.86,3.86,0,0,1-3.06,2.56c-1.51,0-3.08.06-7.86-4.33Z"/><path class="cls-25" d="M143,198.8s-.27,1.84.2,2.29c0,0,0-1.61.34-1.77,0,0,.4,1.65,1.53,2.11a2.93,2.93,0,0,1,.48-2.08,4.48,4.48,0,0,0,.66,1.89s.29-2.71.83-2.35l-.71,3.92s-.22,7.94-1.52,12.81-3.5,12.89-7.15,13.86-2.11-11.4-1.75-12.51C136.14,216.07,135.88,213.54,143,198.8Z"/><path class="cls-22" d="M136.84,229.34s3-8.56,3.15-11.2"/><path class="cls-22" d="M139.32,228.45s2.31-6.76,2.22-7.76"/><path class="cls-8" d="M141.56,204.09s-4.41,13.58-5.9,23.89c0,0-1.07-9.16,1.74-16.18,2-5,5.14-11.44,5.14-11.44Z"/><line class="cls-22" x1="135.46" y1="227.59" x2="138.41" y2="215.66"/><path class="cls-4" d="M118.17,50.94s-4.64-3.88-5.27,0,6.24,6.14,9.26,6.14C122.16,57.08,125.29,57,118.17,50.94Z"/><path class="cls-26" d="M119.31,45.58s.58-5.11,4.74-5.29c3.12-.14,3.77,2.19,1.31,4.61C125.36,44.9,117.33,54.67,119.31,45.58Z"/><path class="cls-26" d="M123.18,47.8s3.65-5.95,6.28-4.91c2.92,1.15,2.72,4.16-.25,5.84C129.21,48.73,119,56.07,123.18,47.8Z"/><path class="cls-27" d="M126.77,50.93s4.06-4.11,6-2.74c2.21,1.52,1.52,3.92-1.24,4.7C131.57,52.89,121.87,56.82,126.77,50.93Z"/><path class="cls-8" d="M113.51,50.15s4.23,5.13,8.93,6.41c0,0-.26,1.18-5.77-1.21C111.85,53.26,113.29,50.47,113.51,50.15Z"/><path class="cls-8" d="M119.75,49.22s1.92-7,5-8.62a4.21,4.21,0,0,0-4.46,2.68C118.73,46.54,119.11,49.09,119.75,49.22Z"/><path class="cls-8" d="M122.84,51.28s5.37-6.55,7.31-7.69c0,0-1.19-1.46-3.51.55S121.42,51.07,122.84,51.28Z"/><path class="cls-8" d="M125.81,53.68s3.36-4.61,6.59-5.41c0,0-2.65-.89-6.34,4.12C126.06,52.39,125.35,53.41,125.81,53.68Z"/><path class="cls-28" d="M60.94,160.78s.24-8.35,8.27-22.34a4,4,0,0,0-.27-1.89S57,137,55.65,150.33c0,0,.27,8.08,3.48,10.85Z"/><path class="cls-29" d="M59.76,161a18.32,18.32,0,0,1,2.61-16.21c5.31-7.53,6.82-7.3,6.82-7.3l0,.91s-3.88,7.13-5.7,11.8a53.06,53.06,0,0,0-2.57,10.54Z"/><polygon class="cls-30" points="59.13 161.18 60.31 164.04 62.66 163.01 60.95 160.78 59.13 161.18"/><polygon class="cls-30" points="68.94 136.55 70.33 136.35 70.77 138 69.21 138.44 68.94 136.55"/><path class="cls-31" d="M65.85,156.48a10.84,10.84,0,0,1-4-.74s.94-3.24,1.66-5.53S65,146,65,146s1.45-2.93,2.2-4.16a5.77,5.77,0,0,1,3.39,2c2.31,3.31,2.61,3,2.93,4.57.37,1.82,2.65,2.83,2.65,2.83l-4-1.18L74.08,153,71.7,153l1.52,2.6s-5.15.66-5.71.91A3.73,3.73,0,0,1,65.85,156.48Z"/><path class="cls-8" d="M62.06,155.65l.72-2.41a2.51,2.51,0,0,0,1.28.2,1.32,1.32,0,0,0,.73-2S63.91,150,63.7,150l.45-1.21a2.28,2.28,0,0,0,2.07-.61c1.11-.94.61-1.81-.54-3.22l.17-.33s.65.35,1.4-.79a1.81,1.81,0,0,0-.06-1.72l.07-.1a8,8,0,0,1,1,.31,3.78,3.78,0,0,1,1.87,1.17s.15,2-2.45,2.19c0,0,1.68,2.15-.68,3.18,0,0,2.13-4.86,2.34-3.72.12.62,1.92,1.91,1.77,2.47-1,3.78-5.09,6-5.75,6.44a3.37,3.37,0,0,0-.86,2.21S62.34,156.06,62.06,155.65Z"/><path class="cls-32" d="M55.69,151.06s1.2-1.33,6.91,1.89c0,0,1.13.85,1.94,0s-.28-2.74-3.26-4.89c-3.26-2.35-9.49-1.81-7.69,3.46a5.77,5.77,0,0,0,2.47,2.54Z"/><path class="cls-32" d="M64.46,144.14s3.74,2.86,2.35,4c-2.19,1.84-6.32-.83-6.32-.83a7.15,7.15,0,0,0-5.7-.14A3.61,3.61,0,0,1,56.33,143C58.83,141.4,63.39,143.25,64.46,144.14Z"/><path class="cls-32" d="M66.23,141.56s2.06,2.08,1,3.09-3.88-1.17-3.88-1.17-4.75-2.32-7.22-.35c0,0-1.24-2.54,1.87-4.72S66.23,141.56,66.23,141.56Z"/><path class="cls-8" d="M63.16,153.1s-5.36-3.22-7.47-2.25c0,0-.18.38.24,2.91,0,0-.74-.09-1.52-1.58a2.1,2.1,0,0,1,2-3,11.85,11.85,0,0,1,7.21,3.31S64.72,153.49,63.16,153.1Z"/><path class="cls-8" d="M55,146.94a2.65,2.65,0,0,1,.16-1.94c.5-.83,5.31-.69,8.49,1.57,3.76,2.66.47,2.21.12,2a9.88,9.88,0,0,1-3.37-1.31C58.45,146.08,55,146.94,55,146.94Z"/><path class="cls-8" d="M56.21,142.86a3,3,0,0,1,.33-1.89c.52-.94,5.78-1.33,10.13,3.27,0,0,.34,1.47-3.06-.74C61.63,142.22,57.63,141.84,56.21,142.86Z"/><path class="cls-8" d="M71.51,152.82A10.42,10.42,0,0,1,65.4,154l-1.49,1.42.55.84s2.38.47,3.15,0a53.87,53.87,0,0,1,5.35-.79Z"/><path class="cls-33" d="M62.59,153.09c-5.34-3.05-6.69-1.92-6.69-1.92-.06.27.4,3.16.4,3.16s3.24-2.09,5.94.18Z"/><path class="cls-31" d="M73.57,149.06s-.28-3.49-1.51-5.37-3-4-4.38-3.07a5.58,5.58,0,0,0-1.9,4.52s-.45,3-1.66,4.27c0,0,.24,2.36,2.83,1.2a4.5,4.5,0,0,0,2.28-3.33s.81.12.83-1.23C70.06,146.05,70.37,150.4,73.57,149.06Z"/><path class="cls-8" d="M65.54,150.79c1.14-1,2.8-2.31,2.72-4a6.45,6.45,0,0,0,.88-2c0-.63,1.83.18,4.41,4.07,0,0-2.47,2.09-3.6-3.2,0,0,.18,1.29-.81,1.49a4.17,4.17,0,0,1-1.25,2.57A4.58,4.58,0,0,1,65.54,150.79Z"/></g></svg>