<svg id="Layer_54" data-name="Layer 54" xmlns="http://www.w3.org/2000/svg" xmlns:xlink="http://www.w3.org/1999/xlink" viewBox="0 0 256 256"><defs><style>.cls-1{opacity:0.5;}.cls-1,.cls-2,.cls-40{isolation:isolate;}.cls-2,.cls-34{fill:#fff;}.cls-3,.cls-5{fill:#6bad02;}.cls-3{stroke:#134c00;stroke-miterlimit:10;}.cls-4{fill:#194000;}.cls-6{fill:url(#radial-gradient);}.cls-7{fill:url(#radial-gradient-2);}.cls-8{fill:#204900;}.cls-9{fill:#f2e300;}.cls-10{fill:#c38d00;}.cls-11{fill:#2b6802;}.cls-12{fill:#146a02;}.cls-13{fill:url(#linear-gradient);}.cls-14{fill:url(#radial-gradient-3);}.cls-15{fill:url(#radial-gradient-4);}.cls-16{fill:url(#radial-gradient-5);}.cls-17{fill:url(#radial-gradient-6);}.cls-18{fill:url(#radial-gradient-7);}.cls-19{fill:#1b5904;}.cls-20{fill:url(#radial-gradient-8);}.cls-21{fill:url(#radial-gradient-9);}.cls-22{fill:url(#radial-gradient-10);}.cls-23{fill:#71af20;}.cls-24{fill:#5b0000;}.cls-25{fill:#f26b92;}.cls-26{fill:url(#radial-gradient-11);}.cls-27{fill:#e04b4b;}.cls-28{fill:#e2e2e2;}.cls-29{fill:#666;}.cls-30{fill:#c1c1c1;}.cls-31{fill:#000100;}.cls-32{fill:#e5e5e5;}.cls-33{fill:#1d4096;}.cls-35{fill:url(#radial-gradient-12);}.cls-36{fill:#9bd133;}.cls-37{fill:#0b4200;}.cls-38{fill:#246004;}.cls-39{fill:#231f20;}.cls-40{opacity:0.2;}</style><radialGradient id="radial-gradient" cx="782.86" cy="69.29" r="112.46" gradientTransform="translate(-723.78 71.56) scale(1 1.13)" gradientUnits="userSpaceOnUse"><stop offset="0" stop-color="#317e00"/><stop offset="1" stop-color="#1e5900"/></radialGradient><radialGradient id="radial-gradient-2" cx="810.07" cy="2469.23" r="112.46" gradientTransform="matrix(1, 0, 0, -1, -764.42, 2477.8)" xlink:href="#radial-gradient"/><linearGradient id="linear-gradient" x1="733.92" y1="-185.04" x2="739.63" y2="-179.62" gradientTransform="translate(-660.57 177.74) rotate(4)" gradientUnits="userSpaceOnUse"><stop offset="0" stop-color="#9bd182"/><stop offset="0.29" stop-color="#5c7c4d"/><stop offset="0.55" stop-color="#2b3924"/><stop offset="0.74" stop-color="#0c100a"/><stop offset="0.83"/><stop offset="1"/></linearGradient><radialGradient id="radial-gradient-3" cx="749.28" cy="-214.63" r="78.29" gradientTransform="translate(-660.57 177.74) rotate(4)" gradientUnits="userSpaceOnUse"><stop offset="0" stop-color="#266900"/><stop offset="1" stop-color="#0d4800"/></radialGradient><radialGradient id="radial-gradient-4" cx="850.72" cy="2315.15" r="78.29" gradientTransform="matrix(1, 0, 0, -1, -764.42, 2477.8)" xlink:href="#radial-gradient-3"/><radialGradient id="radial-gradient-5" cx="746.15" cy="-210.25" r="77.17" gradientTransform="translate(-660.57 177.74) rotate(4)" xlink:href="#radial-gradient"/><radialGradient id="radial-gradient-6" cx="850.71" cy="2315.16" r="78.29" gradientTransform="matrix(1, 0, 0, -1, -764.42, 2477.8)" xlink:href="#radial-gradient-3"/><radialGradient id="radial-gradient-7" cx="747.19" cy="-212.46" r="77.17" gradientTransform="translate(-660.57 177.74) rotate(4)" xlink:href="#radial-gradient"/><radialGradient id="radial-gradient-8" cx="747.78" cy="-210.83" r="77.17" gradientTransform="translate(-660.57 177.74) rotate(4)" xlink:href="#radial-gradient"/><radialGradient id="radial-gradient-9" cx="850.73" cy="2315.15" r="78.28" gradientTransform="matrix(1, 0, 0, -1, -764.42, 2477.8)" xlink:href="#radial-gradient-3"/><radialGradient id="radial-gradient-10" cx="850.72" cy="2315.15" r="78.29" gradientTransform="matrix(1, 0, 0, -1, -764.42, 2477.8)" xlink:href="#radial-gradient-3"/><radialGradient id="radial-gradient-11" cx="742.59" cy="-140.67" r="26.69" gradientTransform="translate(-660.57 177.74) rotate(4)" gradientUnits="userSpaceOnUse"><stop offset="0" stop-color="#f5b8b8"/><stop offset="1" stop-color="#f99"/></radialGradient><radialGradient id="radial-gradient-12" cx="707.31" cy="-181.05" r="16.17" gradientTransform="translate(-660.57 177.74) rotate(4)" gradientUnits="userSpaceOnUse"><stop offset="0" stop-color="#91d700"/><stop offset="0.09" stop-color="#7ebb00"/><stop offset="0.36" stop-color="#496c00"/><stop offset="0.58" stop-color="#213200"/><stop offset="0.75" stop-color="#090e00"/><stop offset="0.83"/><stop offset="1"/></radialGradient></defs><path class="cls-1" d="M135.49,244.68a6.1,6.1,0,0,1-5-2.79l-.17-.24-.14-.25a7.25,7.25,0,0,1-.55-1.29,31.55,31.55,0,0,1-7.37,1.23,6.43,6.43,0,0,1-5.43-2.32,6.14,6.14,0,0,1-1-5.32,10,10,0,0,1,1.08-2.68,5.8,5.8,0,0,1-2.86-4.2,6.08,6.08,0,0,1,2-5.4,15.06,15.06,0,0,1,3.19-2.33q-1.66-.42-3.27-.9a8.94,8.94,0,0,1-1.28,4.31c-2.55,4.11-7.49,4.11-9.6,4.11-.37,0-1.35,0-2.55-.07-1.73-.06-4.1-.14-5.48-.14h-.59c-2.29.07-6.14,1.39-9.23,2.44l-.78.27c-3.25,1.12-5.6,1.93-7.64,1.93a5.82,5.82,0,0,1-5.3-3,7.41,7.41,0,0,1-.28-6c0-.12.09-.25.14-.37-2.59,0-8.61-.19-9.12-5.55l0-.22V215l.12-.51c1.39-6.22,9.57-10,16.46-10.92A32.37,32.37,0,0,1,80,190.9c-4.68-9.66-6-21.24-3.89-34.44a105.06,105.06,0,0,1,8.48-27.27c-2.34-1.73-4.46-3.43-5.9-4.59L77,123.29a117,117,0,0,1-13.64-8.37l-.78-.14-.78.07a14.53,14.53,0,0,1-6.17,1.29c-.81,0-1.54,0-2.15-.11-3.55,2.37-6.62,3.53-9.35,3.53a7.09,7.09,0,0,1-7.44-7.28,6.49,6.49,0,0,1-1.59-2.84,8.13,8.13,0,0,1,1.62-6.87l.86-1.21.74-1c2.4-5.79,10.12-7.78,13.61-8.39a18.94,18.94,0,0,1,4.42-1.38c1.44-4.31,3.64-7.18,6.55-8.54a7.61,7.61,0,0,1,1.47-.54,19.82,19.82,0,0,1-3.48-7,15.85,15.85,0,0,1-3.69-10.09c-2.25-5.87-1.85-10.9,1.15-13.9a8.4,8.4,0,0,1,6-2.29,10.73,10.73,0,0,1,1.79.16,18.77,18.77,0,0,1,8.38-1.8c.44,0,.89,0,1.35,0a24.89,24.89,0,0,1,8.3,1.82,10.14,10.14,0,0,1,1.41-2.59A10.47,10.47,0,0,1,88,43.57c.12-.74.29-1.49.49-2.24A25.72,25.72,0,0,1,89.73,38l.08-.19.24-.5c.12-.26.25-.52.38-.78l.07-.11c.34-.65.7-1.28,1.09-1.88a22,22,0,0,1,3.53-12.82c2.78-4.14,6.78-6.42,11.25-6.42l.9,0a17.94,17.94,0,0,1,8.09,2.84,20.59,20.59,0,0,1,3.42-.28c.3,0,.6,0,.9,0h.16a15.57,15.57,0,0,1,2.26.32,15.58,15.58,0,0,1,8.08-2.44c.29,0,.59,0,.88,0,3.7.25,8.75,2.17,12.59,9.6a28.84,28.84,0,0,1,12.21,11.28,30.34,30.34,0,0,1,4.62,17.48c3,5.72,3.36,16.82-.91,25.87a25.45,25.45,0,0,1-6,8.18,30.83,30.83,0,0,0-2.49,9.63c6.82,7.54,16.42,25.32,14.32,37a26.94,26.94,0,0,1-1.4,5.05l1.3,2c.86,1.34,1.73,2.68,2.57,4.06a8.05,8.05,0,0,1-.31-2.84c.35-3.65,3.28-5.42,6.33-6.3-2.84-2.6-5.76-6.34-5.1-10.35.46-2.82,2.46-4.55,5-5.66-2-3.2-2.57-6.34-1.71-9.41.7-2.55,2.67-4.19,5.87-4.89-1.5-2.88-2.5-6.07-1.87-8.89.25-1.12,1.52-4.88,7.43-4.88a16.6,16.6,0,0,1,3,.27c.26-5,1.7-8.24,4.28-9.5a6.13,6.13,0,0,1,2.39-.61h.22c2.77,0,5.38,1.94,7.33,4.06,1.7-2,4.11-3.86,7-3.86a6.12,6.12,0,0,1,2.13.37c4.28,1.47,4.81,6.54,4.72,10.22q.57.51,1.11,1c6.74,6.86,9.59,17.14,9.43,24.29a17.81,17.81,0,0,1,0,1.86c-.67,4.08-5,15.78-5,15.78s-3.19-10.85-4.28-14.46c-.13-.46-.56-1.82-.56-1.82-1.66-5.32-7.5-11-9.78-11.07a.84.84,0,0,0-.16.08c-1.12,1.34.36,9.23,1.44,15l0,.22c2.09,11.14,4.95,26.39,4,46.15-.7,14.63-8.33,28-21.5,37.59a73.07,73.07,0,0,1-24.08,11.19,9.06,9.06,0,0,1,1.13,5.36c-.25,2.15-1.43,5.14-5.67,7.37a28.47,28.47,0,0,1-6.28,2.29c-3.85,1-7.78,2.1-15.22,8.72A5.13,5.13,0,0,1,135.49,244.68Zm-51.88-142A81.6,81.6,0,0,1,98,104.47l.92-1.6A20.12,20.12,0,0,1,91,100.54l-.13-.07a10.33,10.33,0,0,1-5.44-8,11.51,11.51,0,0,1,.79-5.66l-2.9,1.38-2.64-1.84-.12-.12a20.37,20.37,0,0,1-4.43-5,20.35,20.35,0,0,1-3.47,3A8.3,8.3,0,0,1,74.53,88a9.38,9.38,0,0,1-1,6.44l-.09.16-.1.17A15.61,15.61,0,0,1,71,97.56a32.26,32.26,0,0,1,9.28,3.51l1.55.83Z"/><path class="cls-2" d="M131.55,240.74a6.1,6.1,0,0,1-5-2.8l-.17-.23-.14-.26a6.68,6.68,0,0,1-.55-1.29,31.65,31.65,0,0,1-7.38,1.24,6.42,6.42,0,0,1-5.43-2.33,6.17,6.17,0,0,1-1-5.32,10.23,10.23,0,0,1,1.09-2.67,5.78,5.78,0,0,1-2.87-4.2,6.08,6.08,0,0,1,2-5.4,14.57,14.57,0,0,1,3.2-2.33q-1.66-.43-3.27-.9a9,9,0,0,1-1.29,4.3c-2.54,4.11-7.49,4.11-9.6,4.11-.37,0-1.34,0-2.54-.07-1.73-.06-4.1-.14-5.48-.14h-.6c-2.29.08-6.13,1.39-9.22,2.45l-.79.27c-3.25,1.12-5.59,1.93-7.63,1.93a5.8,5.8,0,0,1-5.3-3,7.37,7.37,0,0,1-.28-6c0-.12.08-.25.13-.38-2.59,0-8.61-.18-9.11-5.54l0-.22v-.87l.11-.51c1.4-6.22,9.58-10,16.46-10.92A32.34,32.34,0,0,1,76,187c-4.69-9.66-6-21.23-3.9-34.44a105,105,0,0,1,8.49-27.26c-2.35-1.73-4.46-3.43-5.91-4.59-.63-.51-1.35-1.09-1.65-1.31A119.28,119.28,0,0,1,59.4,111l-.78-.15-.78.07a14.3,14.3,0,0,1-6.16,1.3,21.49,21.49,0,0,1-2.15-.12c-3.55,2.38-6.62,3.54-9.36,3.54a7.09,7.09,0,0,1-7.43-7.29,6.36,6.36,0,0,1-1.59-2.83,8.12,8.12,0,0,1,1.62-6.87l.85-1.21.75-1C36.77,90.63,44.48,88.65,48,88a18.62,18.62,0,0,1,4.42-1.38C53.83,82.35,56,79.48,59,78.11a7.77,7.77,0,0,1,1.46-.54,20.07,20.07,0,0,1-3.48-7,15.89,15.89,0,0,1-3.68-10.08c-2.26-5.88-1.86-10.9,1.15-13.9a8.33,8.33,0,0,1,6-2.29,10.72,10.72,0,0,1,1.79.15,18.71,18.71,0,0,1,8.38-1.79l1.34,0a25.1,25.1,0,0,1,8.3,1.83A10.21,10.21,0,0,1,81.62,42a10.51,10.51,0,0,1,2.46-2.34,21.51,21.51,0,0,1,.49-2.24A24,24,0,0,1,85.79,34l.08-.19.24-.5c.12-.25.24-.51.38-.77l.06-.12c.34-.65.71-1.27,1.09-1.87a22.1,22.1,0,0,1,3.54-12.82C94,13.6,98,11.32,102.42,11.32l.9,0a17.78,17.78,0,0,1,8.09,2.84,20.71,20.71,0,0,1,3.43-.29l.9,0h.16a17.34,17.34,0,0,1,2.26.33,15.48,15.48,0,0,1,8.07-2.44c.3,0,.59,0,.89,0,3.69.25,8.75,2.16,12.59,9.59a28.79,28.79,0,0,1,12.2,11.29,30.31,30.31,0,0,1,4.62,17.47c3,5.72,3.37,16.82-.9,25.88a25.67,25.67,0,0,1-6,8.17,30.62,30.62,0,0,0-2.49,9.64c6.81,7.54,16.42,25.31,14.31,37a27.15,27.15,0,0,1-1.4,5l1.31,2c.86,1.33,1.73,2.68,2.57,4.05a8,8,0,0,1-.32-2.83c.35-3.65,3.29-5.42,6.34-6.3-2.85-2.6-5.77-6.34-5.1-10.36.46-2.82,2.46-4.55,5-5.65-2-3.2-2.56-6.35-1.71-9.41.71-2.56,2.68-4.19,5.87-4.89-1.5-2.88-2.5-6.07-1.86-8.9.24-1.11,1.52-4.88,7.42-4.88a16.74,16.74,0,0,1,3,.28c.26-5,1.69-8.24,4.28-9.51a6.26,6.26,0,0,1,2.38-.61h.23c2.76,0,5.37,1.93,7.32,4,1.71-1.94,4.11-3.85,7-3.85a6.35,6.35,0,0,1,2.13.36c4.27,1.47,4.8,6.55,4.71,10.22.38.34.75.69,1.12,1.06,6.73,6.86,9.59,17.13,9.43,24.28a16.07,16.07,0,0,1,0,1.87c-.66,4.08-5,15.78-5,15.78s-3.18-10.86-4.27-14.47l-.56-1.82c-1.67-5.32-7.5-11-9.79-11.07a.67.67,0,0,0-.15.09c-1.12,1.33.36,9.23,1.44,15l0,.22c2.08,11.14,4.94,26.4,4,46.15-.69,14.64-8.33,28-21.5,37.59a72.72,72.72,0,0,1-24.07,11.19,9.19,9.19,0,0,1,1.13,5.37c-.25,2.14-1.43,5.14-5.67,7.36a28.72,28.72,0,0,1-6.28,2.3c-3.86,1-7.78,2.1-15.23,8.71A5.05,5.05,0,0,1,131.55,240.74Zm-51.89-142A79.86,79.86,0,0,1,94,100.53c.31-.55.62-1.08.91-1.61a20.06,20.06,0,0,1-7.84-2.33L87,96.53a10.38,10.38,0,0,1-5.45-8,11.56,11.56,0,0,1,.8-5.65L79.4,84.23l-2.64-1.84-.12-.12a20.09,20.09,0,0,1-4.42-5,20.66,20.66,0,0,1-3.47,2.94A8.31,8.31,0,0,1,70.58,84a9.39,9.39,0,0,1-1,6.43l-.09.17-.11.16a16,16,0,0,1-2.37,2.82,32,32,0,0,1,9.28,3.51l1.55.83Z"/><path class="cls-3" d="M77.5,103.46C70.23,98.28,64.12,97.72,62,98c.46-1.85-4.27-6.45-6.58-6.74a12,12,0,0,0-6,1.38c-1.58.24-10.8,1.89-11.07,7.24-2.8,1.55-4.39,6,.07,6-2.68,3.6,0,8.65,9.75,1.45.66-.3,6.67,1.88,10.64-3,2.87,3.07,9.11,6.94,16.65,11,1.19.66,12.35,10.64,19,12.53,1.68-3.38,3.37-18.87,3.4-21.58C97.86,106.27,85.2,103,77.5,103.46Z"/><path class="cls-4" d="M38.48,105.94a40.64,40.64,0,0,1,9-4.89,32.79,32.79,0,0,0-9.18,4.6Z"/><path class="cls-4" d="M38.42,100A29.05,29.05,0,0,1,47,97.35s-5.28.43-8.69,2.31Z"/><path class="cls-4" d="M58.7,104.16l.2.26A4.29,4.29,0,0,0,60,102,6.27,6.27,0,0,1,58.7,104.16Z"/><path class="cls-5" d="M64.25,82.73c-2.54-1.49-5.71.26-7.5,6.41-.49,1.75-3.43,3.27-2.38,8L62,98a26.48,26.48,0,0,0-.3-4.36c-.36-2.11,2.35-3.4,3.67-5.52C66.3,86.55,66,83.74,64.25,82.73Z"/><path class="cls-4" d="M64.32,82.55A3.45,3.45,0,0,0,61,82.38c-1.29.6-3.1,2.25-4.39,6.71a5,5,0,0,1-.86,1.49,6.53,6.53,0,0,0-1.19,6.47A6.8,6.8,0,0,1,56,90.78a5.83,5.83,0,0,0,.93-1.62c1-3.37,2.48-5.68,4.2-6.48a3.19,3.19,0,0,1,4.25,1.48,3.26,3.26,0,0,1,.27.87,4.31,4.31,0,0,1-.39,3,11.29,11.29,0,0,1-1.76,2c-1.12,1.12-2.21,2.18-2,3.63a24.13,24.13,0,0,1,.3,4.33h.3a24.8,24.8,0,0,0-.3-4.39c-.23-1.26.73-2.22,1.85-3.31a10.81,10.81,0,0,0,1.79-2.08A4.68,4.68,0,0,0,65.94,85,3.6,3.6,0,0,0,64.32,82.55Z"/><path class="cls-4" d="M77.4,103.6a9.2,9.2,0,0,1,1.79,2.54,6.17,6.17,0,0,0-1.59-2.81Z"/><path class="cls-6" d="M88.44,106.67c-.93-.07-1.72.36-1.75,1s.69,1.19,1.62,1.29,1.72-.36,1.75-1S89.36,106.74,88.44,106.67Z"/><path class="cls-7" d="M93.36,105.86c-.92-.1-1.72.33-1.75.92s.66,1.16,1.59,1.26,1.72-.33,1.75-.93S94.29,105.91,93.36,105.86Z"/><path class="cls-5" d="M82.86,182.89c-3.54,4.13-2.45,17.05,2.14,22.4-6.31-2.77-18.63,1.56-19.72,6.38.23,2,10.21.17,14.8,1.45-4,1.76-7.14,6.84-6.15,8.6s12-4.07,18.34-4.3,12.36,1.32,14.11-1.55-1.16-9.75-3.54-12.82C99.34,198,86.39,180.12,82.86,182.89Z"/><path class="cls-8" d="M74.83,222.38a1.18,1.18,0,0,1-1.13-.5,3,3,0,0,1,0-2.31,12.65,12.65,0,0,1,5.48-6.35,29.07,29.07,0,0,0-4.76-.33c-.86,0-4.09.07-4.82.07-2.78,0-4.56-.2-4.66-1.26v-.11c.93-4.13,9.09-7.47,15.23-7.47a12.54,12.54,0,0,1,3.9.53c-4.1-5.85-5-17.78-1.49-22a1.46,1.46,0,0,1,1.13-.39c4.74.68,17,17.18,19.39,20.62,2.22,2.84,5.45,10.07,3.54,13.15-1,1.65-3.31,1.88-5.59,1.88-1,0-6.9-.27-8.78-.2-3.08.1-7.24,1.55-10.91,2.81C78.56,221.52,76.15,222.38,74.83,222.38Zm-.4-10.08a23,23,0,0,1,5.72.53l.82.23-.79.33a11.89,11.89,0,0,0-5.91,6.38,2.29,2.29,0,0,0-.07,1.81.75.75,0,0,0,.59.17c1.23,0,3.61-.83,6.38-1.79,3.7-1.28,7.9-2.74,11.1-2.84,1.92-.06,3.77,0,5.55.1,1.16.07,2.25.1,3.27.1,2.91,0,4.36-.46,5.09-1.59,1.59-2.54-1-9.21-3.5-12.45-6.54-9.38-15.43-20.35-18.9-20.35a1.09,1.09,0,0,0-.66.19c-3.47,4.13-2.25,16.85,2.18,22l.86,1-1.22-.53a11.61,11.61,0,0,0-4.66-.82c-6.44,0-13.78,3.5-14.64,6.93.2.7,3.11.7,4.07.7.69,0,1.45,0,2.24,0S73.6,212.3,74.43,212.3Z"/><path class="cls-8" d="M73.17,210.88s-.72-3.07-2.94-3.8l.2-.6C73,207.34,73.17,210.88,73.17,210.88Z"/><path class="cls-8" d="M81.53,210.12s.1-4.07-2.21-5.42l.3-.53C82.29,205.69,81.53,210.12,81.53,210.12Z"/><path class="cls-8" d="M77.65,215.11l-.37-.5a16.69,16.69,0,0,1,11.8-3.47A18.68,18.68,0,0,0,77.65,215.11Z"/><path class="cls-8" d="M81.34,218.69a7.09,7.09,0,0,0-4.13-3.27l.2-.6A5.94,5.94,0,0,1,81.34,218.69Z"/><path class="cls-8" d="M82.82,202.45l.56-.23c.93,2.28,5.06,6.35,5.13,6.38S83.81,204.86,82.82,202.45Z"/><path class="cls-5" d="M162.52,158.84s1.52-8.19,4.39-8.92,7.47,6.34,7.76,7.27C172.56,160.06,164.56,161.91,162.52,158.84Z"/><path class="cls-8" d="M162.53,159.12c.06-.33,1.34-8.74,4.35-9.5a2.05,2.05,0,0,1,.49-.06c3,0,7.34,6.57,7.63,7.53Zm.33-.35a4.59,4.59,0,0,0,3.73,1.36c2.94,0,6.45-1.36,7.8-3-.59-1.25-4.46-7-7-7a1.5,1.5,0,0,0-.37,0c-2.19.57-3.71,6.24-4.17,8.55Z"/><path class="cls-5" d="M177.05,151.67c-3-2.44-8.69-9.32-8.46-12.06S179,137,179,137C180,139.61,179.83,149.62,177.05,151.67Z"/><path class="cls-8" d="M176.85,151.9c-2.74-2.28-8.82-9.28-8.55-12.36.26-2.74,8.13-2.94,10.57-2.94Zm1.92-14.67c-4.66,0-9.71.76-9.88,2.38-.23,2.54,5.16,9.09,8.13,11.63,2.35-2.1,2.72-11.07,1.75-14Z"/><path class="cls-5" d="M179.1,133c-3.07-1.13-9.81-6.65-9.32-9.72s12.3-3.67,12.3-3.67C182,122.93,180.73,132.74,179.1,133Z"/><path class="cls-8" d="M179,133.33c-2.87-1.05-10.07-6.67-9.51-10.07.53-3.24,11.33-3.87,12.55-3.94ZM181.74,120c-3.4.2-11.29,1.16-11.66,3.4-.46,2.75,5.92,8.13,9,9.35C180.29,132.21,181.58,124.08,181.74,120Z"/><path class="cls-5" d="M180.42,120.68c-2.14-1.75-8.85-6.91-7.46-11.86.72-2.61,10-1.23,10-1.23C183,109.51,182.27,120,180.42,120.68Z"/><path class="cls-8" d="M180,120.68c-2.38-1.92-8.69-7-7.3-12,.33-1.18,2.15-1.81,5.39-1.81a41.71,41.71,0,0,1,5,.36s-.17,12.79-2.48,13.68Zm-2-13.18c-2.84,0-4.56.49-4.79,1.35-1.25,4.59,4.83,9.48,7.11,11.33l.1.07c1.32-1.06,2.18-9.29,2.21-12.46-1.54-.17-3.08-.26-4.63-.28Z"/><path class="cls-5" d="M182.08,105.53c-1.33-1.42-5.75-7.57-5-10.74.4-1.82,7.47-.93,9.42,1.52C187.39,100.72,183.5,105.53,182.08,105.53Z"/><path class="cls-8" d="M182.08,105.81l-.24-.1c-1.28-1.39-5.84-7.66-5.08-11,.16-.76,1.15-1.19,2.8-1.19,2.52,0,5.85,1,7.14,2.61,0,0-.76,6.11-2.28,8A3.58,3.58,0,0,1,182.08,105.81Zm-2.52-11.7c-1.25,0-2.11.3-2.21.73-.66,3,3.5,8.86,4.82,10.34A4.25,4.25,0,0,0,184,103.7c1.35-1.66,2.74-4.56,2.18-7.27-1.16-1.42-4.3-2.32-6.58-2.32Z"/><path class="cls-5" d="M187.79,94.68c-.63-3.08-.2-10,1.22-10.64s5.72,3.37,6.88,6.87C195.27,94,188.62,95.07,187.79,94.68Z"/><path class="cls-8" d="M188.39,95.07a2.45,2.45,0,0,1-.9-.33c-.59-2.91-.29-10.14,1.39-11a1.42,1.42,0,0,1,.53-.13c2,0,5.75,4,6.77,7.17C196.18,90.81,190.37,95.07,188.39,95.07Zm-.33-.66c.06,0,.16,0,.33,0,1.91,0,6.6-1.18,7.17-3.53-1-3-4.63-6.64-6.15-6.64-.1,0-.17,0-.26,0C188,84.86,187.49,91.21,188.06,94.41Z"/><path class="cls-5" d="M198.43,89.36c.63-1.23,3.57-5.79,5.72-5.09s1,9.58,1,9.58C204.19,93.85,198.76,91.5,198.43,89.36Z"/><path class="cls-8" d="M205.18,94.11c-1.09,0-6.7-2.37-7-4.72l0-.2c.43-.89,3.17-5.35,5.55-5.35a1.54,1.54,0,0,1,.56.1c2.31.76,1.36,9,1.22,9.91Zm-6.41-4.72c.4,1.75,4.76,3.83,6.18,4.1.4-3.34.5-8.49-.86-9a1.09,1.09,0,0,0-.36-.06c-1.76,0-4.16,3.4-5,4.92Z"/><path class="cls-5" d="M216,114.93c.2-11.07-8.23-29.67-24.35-24.91-15.56,4.59-14.6,42.32-15.2,55.21s-6.51,13.28-11.43,13.08c-1.65-12.06-11.66-19.76-17-34.43S138,94.44,146.42,79.11c-10.44-.39-41.33,7.57-41.33,7.57C104.7,99,82.16,121.07,77,153.29s11.43,52.9,49.1,58.94,74-14.4,75.53-45.72c2-40.18-12.43-61.92-2-65.92C205.24,98.44,213.86,108,216,114.93Z"/><path class="cls-8" d="M139.43,213.62h0a85.93,85.93,0,0,1-13.31-1.06c-37.47-6-54.55-26.53-49.33-59.3,3-19,11.93-34.23,19.06-46.49,4.93-8.43,8.83-15.1,9-20.09v-.23l.23-.07c.3-.06,31.06-8,41.43-7.56l.5,0-.23.43c-8.06,14.73-4,28.88,1.65,44.5,2.38,6.61,5.68,11.67,8.86,16.59,3.66,5.68,7.16,11.07,8.12,17.68.37,0,.7,0,1.06,0,4.79,0,9.28-1.55,9.78-12.82.07-1.45.1-3.2.17-5.22.43-16.12,1.22-46.12,15.23-50.29a17.76,17.76,0,0,1,5.12-.79,15.88,15.88,0,0,1,11.56,5.12c5.72,5.82,8.2,14.9,8.06,20.85l0,1.88-.56-1.81c-2-6.35-9.15-14.41-14.37-14.41a4.32,4.32,0,0,0-1.59.3c-5.15,2-3.86,8.92-1.72,20.38,2,10.94,4.89,25.94,3.93,45.27-.62,13.21-7.59,25.27-19.56,34C170.84,209,155.54,213.62,139.43,213.62Zm-34-126.68c-.26,5.13-4.16,11.77-9.05,20.16-7.14,12.19-16,27.39-19,46.29C72.23,185.77,89.15,206,126.25,212A84.78,84.78,0,0,0,139.47,213c34.06,0,60.69-20,62-46.52.93-19.27-1.88-34.2-3.93-45.1-2.22-11.77-3.57-18.9,2.08-21.08a4.73,4.73,0,0,1,1.82-.33c5,0,11.63,6.93,14.3,13.15-.36-5.75-2.81-13.49-7.86-18.64a15.33,15.33,0,0,0-11.1-5,17.78,17.78,0,0,0-4.92.76c-13.62,4-14.38,33.74-14.81,49.7-.06,2-.1,3.76-.16,5.22-.53,11.83-5.55,13.41-10.41,13.41-.46,0-.89,0-1.35,0h-.27l0-.27c-.89-6.57-4.23-11.69-8.06-17.67-3.21-5-6.48-10-8.92-16.72-5.65-15.63-9.72-29.8-1.85-44.57C135.75,79.28,108.16,86.22,105.4,86.94Z"/><path class="cls-9" d="M196.22,151.67c1.55,18.73-7.27,38.39-33.37,36.54-23.56-1.65-42.79-14.93-50.06-43.91-4.49-18,10.24-41.46,11.2-62a37.84,37.84,0,0,0-18.57,4.33c-.39,12.29-22.93,34.39-28,66.61s11.43,52.9,49.1,58.94,73.39-14.83,75-45.79c2.14-38-12.22-61.57-2.06-66C185.08,102.11,194.53,131.12,196.22,151.67Z"/><path class="cls-10" d="M114.08,104.49c-5.52,0-11.43-1.69-13.85-4.27l.37-.68c3.14,3.37,12.75,5.64,18.73,3.56l.2.6A18,18,0,0,1,114.08,104.49Z"/><path class="cls-10" d="M114.9,118.41c-15.36-.63-20.22-7.88-20.42-8.21l.41-.72c0,.06,5,7.71,20,8.3Z"/><path class="cls-10" d="M103.67,133.76c-11.86,0-17.94-6.77-18-6.84l.36-.75c.1.1,9,10.27,25.81,5.91l.16.59A33.56,33.56,0,0,1,103.67,133.76Z"/><path class="cls-10" d="M95.71,162.69a38.24,38.24,0,0,1-18.94-4.77l.09-.88c.2.13,18.45,12,39.47-1l.33.53A39.79,39.79,0,0,1,95.71,162.69Z"/><path class="cls-10" d="M93.18,189.57a44,44,0,0,1-10.13-.93l-.64-.89c.26.07,26.63,7.3,45.46-14.41l.46.4C116.92,186.92,102.76,189.57,93.18,189.57Z"/><path class="cls-10" d="M117.05,210.33l-1.17-.33c.17,0,18.82-1.65,29.41-25.5l.56.26C135.09,209,117.25,210.3,117.05,210.33Z"/><path class="cls-10" d="M156.78,211.42l-1,.18c.13-.07,12.06-8.88,13.58-23.49l.63.07C168.51,203.08,156.91,211.35,156.78,211.42Z"/><path class="cls-10" d="M183.79,198.91l-.78.59a21.79,21.79,0,0,0,2.27-17.57l.59-.16C188.85,192.14,183.86,198.84,183.79,198.91Z"/><path class="cls-10" d="M197.71,181.74l-.44.82c0-.06.83-7.1-3.7-12.65l.47-.4A16.75,16.75,0,0,1,197.71,181.74Z"/><path class="cls-10" d="M201.52,165c0-.07-2.56-5.5-5.63-6.66l.23-.56c3.3,1.25,5.33,5.72,5.46,5.95Z"/><path class="cls-10" d="M201.46,150.79a11.44,11.44,0,0,0-6.37-5.36l.17-.59a9.68,9.68,0,0,1,6.15,5Z"/><path class="cls-10" d="M200,135.65s-4.13-3.37-6.77-3.47l0-.63c2.84.1,6.39,3.07,6.58,3.23Z"/><path class="cls-10" d="M197.93,123.65s-3.43-3.7-6.14-3.7v-.63c3,0,5.8,3.26,6,3.42Z"/><path class="cls-5" d="M151.15,145.13s16.85,4.19,18.57,19.66-5.45,31.75-19.4,34.76c-.19,5.65.73,12.42,3.37,14.76s6.35,6.35.63,9.42-10.44.93-22.73,11.86c-1.85,0-1.42-4.26,0-6.51-2.87,1.06-13.61,4.36-14.7,2.91s2.77-6.34,6.74-8.39c-1.69.16-8.3.36-8.59-1.55s10.73-7.31,18.93-6.12c-15.56-8.49-19.76-24.51-17-38.13,3.63-18.5,20.85-24,20.85-24Z"/><path class="cls-8" d="M130.4,235.16c-.69-1.25-.3-3.76.53-5.52-2.88,1-13,4.23-14.27,2.55a1.53,1.53,0,0,1-.17-1.36c.43-1.85,2.94-4.92,5.91-6.84-2.41.1-7.33,0-7.63-1.88a1.59,1.59,0,0,1,.63-1.29c2.21-2.24,10.47-5.68,17.21-5.32-15.43-9.15-18.4-25.37-16-37.73a30.84,30.84,0,0,1,7.73-15.23,30,30,0,0,1,13.51-8.36c-.16.07-17.05,5.62-20.65,23.72-2.44,12.46.69,28.95,16.92,37.8l1.48.83L134,216.3c-6.81-1-15.83,2.67-18.14,5-.46.46-.46.69-.43.76.23,1.42,5.58,1.55,8.26,1.32l1.59-.13-1.42.72c-3.24,1.66-6.28,5.19-6.71,7.08a1.09,1.09,0,0,0,.06.85c.8,1.06,10-1.38,14.34-3l.86-.33-.49.76c-1.06,1.65-1.52,4.49-.93,5.61a.7.7,0,0,0,.53.43c8.49-7.53,13.48-8.88,17.48-10a25.26,25.26,0,0,0,5.22-1.85c1.75-.93,2.71-2,2.84-3.24.23-2.08-1.88-4.23-3.5-5.69-2.88-2.54-3.67-9.68-3.47-15l.23-.29c14.54-3.14,20.72-20.09,19.13-34.43-1.65-15.07-18.17-19.33-18.34-19.4a23.35,23.35,0,0,1,9.52,4c4.29,3.07,8.62,7.93,9.42,15.36,1.58,14.54-4.66,31.69-19.4,35-.16,5.55.76,12.06,3.27,14.3,1.72,1.52,4,3.83,3.74,6.21-.17,1.42-1.23,2.68-3.18,3.7a24.52,24.52,0,0,1-5.32,1.92c-4.16,1.12-8.88,2.38-17.31,9.91C131.83,235.92,131.27,236.37,130.4,235.16Z"/><path class="cls-8" d="M123.53,221.55a3.57,3.57,0,0,0-2.22-3.44l.24-.56A3.34,3.34,0,0,1,123.53,221.55Z"/><path class="cls-8" d="M130.2,219.44s-.53-2.42-2.24-3.11l.23-.56C130.18,216.59,130.2,219.44,130.2,219.44Z"/><path class="cls-8" d="M122.14,224.92l-.36-.5a41.93,41.93,0,0,1,6-3.33,28.44,28.44,0,0,1,6.08-2C133.77,219.14,125.68,222.41,122.14,224.92Z"/><path class="cls-8" d="M131.26,230.54l-.53-.3a23.51,23.51,0,0,1,7.63-8.26,5.73,5.73,0,0,1,3.47-1C141.77,221,135.8,222.67,131.26,230.54Z"/><path class="cls-8" d="M124.78,229a5.1,5.1,0,0,0-3.66-3.44l.1-.59C124.39,225.55,124.78,229,124.78,229Z"/><path class="cls-8" d="M130.7,226.41s-1-3.74-3.6-4.36l.13-.6C130.2,222.18,130.7,226.41,130.7,226.41Z"/><path class="cls-8" d="M137.93,228.59a6.28,6.28,0,0,0-4-2.12l0-.62A5.41,5.41,0,0,1,137.93,228.59Z"/><path class="cls-8" d="M141.47,224.82a4.08,4.08,0,0,0-3.83-1.68l0-.6A3.64,3.64,0,0,1,141.47,224.82Z"/><path class="cls-11" d="M150,201.23C149.94,192,147.3,187,147.3,187s3.27,4.89,3.33,14.27Z"/><path class="cls-12" d="M144.24,188.48a2.88,2.88,0,1,1-2.84-3.37A3.15,3.15,0,0,1,144.24,188.48Z"/><path class="cls-12" d="M150.92,175.13a3,3,0,0,1-1.75,4.19,3,3,0,0,1-3.54-2.87,5.7,5.7,0,0,1,1.75-4.2A5.36,5.36,0,0,1,150.92,175.13Z"/><path class="cls-12" d="M140.58,165a1.87,1.87,0,1,1-1.85-1.88A1.89,1.89,0,0,1,140.58,165Z"/><path class="cls-12" d="M154.92,162.51a1.51,1.51,0,0,1-1.42,1.58,1.59,1.59,0,0,1,0-3.17A1.52,1.52,0,0,1,154.92,162.51Z"/><path class="cls-12" d="M162.52,180.2a2.36,2.36,0,1,1,0-.1Z"/><path class="cls-5" d="M132.32,97.65a6,6,0,0,1,7.36-3.3c5.32,1.55,18.84,24.11,16.79,35.55s-9.38,11.92-14.67,11-14.27-3.53-15.83-5.45c0,3.4-3.93,5.39-5,5.75.27,3.93-1.78,9.38-5,2.91-.36,1.52-3.23,5.12-4.39,5.48-1.65-.86-2.31-4-2.51-5.78-.86,1.68-3.73,2.77-3.73,2.77-2.35-3.83-1.69-11.49,2.34-16.68s12.49-6.11,12.89-6.11c2-2,9.74-3.08,12.85-2.71-5.68-6.18-3.11-15.23-3.11-15.23Z"/><path class="cls-8" d="M111.57,150l-.1-.06c-1.62-.86-2.31-3.64-2.55-5.22a9.5,9.5,0,0,1-3.43,2.21l-.23.1-.14-.2c-2.31-3.77-1.91-11.53,2.38-17.05,4-5.09,11.86-6.11,13-6.21,2-1.92,8.79-2.94,12.26-2.78-5.09-6.21-2.09-14.8-2.09-14.8s-2.44,9,3,15l.57.59-.83-.09c-3-.34-10.71.66-12.59,2.61l-.1.09h-.13c-.07,0-8.59.76-12.65,6s-4.5,12.52-2.48,16.12c.69-.3,2.67-1.22,3.34-2.51l.46-.89.13,1c.23,2.15,1,4.69,2.25,5.48a12.14,12.14,0,0,0,4.06-5.22l.2-.82.36.76c1,2,1.95,3,2.68,2.77,1.06-.26,1.88-3,1.72-5.55V141l.23-.06c1-.34,4.79-2.28,4.79-5.46v-.86l.53.7c1.45,1.82,10.37,4.43,15.63,5.32,8.09,1.39,12.75-2.12,14.3-10.77,2-11.34-11.5-33.74-16.55-35.22a6.71,6.71,0,0,0-7.57,2.87s2.22-5.09,7.73-3.47c5.32,1.55,19.13,24,17,35.92q-2.43,13.42-15,11.26c-4.33-.76-12.92-3.07-15.53-5.09-.43,2.94-3.53,4.76-5,5.29.1,2.31-.6,5.52-2.18,5.95-1,.26-2-.56-3.08-2.48-.82,1.82-3.27,4.66-4.36,5Z"/><path class="cls-8" d="M145.24,124.51a33.3,33.3,0,0,0-15.5-3.1l0-.63A29.43,29.43,0,0,1,145.24,124.51Z"/><path class="cls-8" d="M124.42,125.8a6,6,0,0,0-5.48-1.45l-.1-.6A5.35,5.35,0,0,1,124.42,125.8Z"/><path class="cls-8" d="M126,137.2l-.56-.23c1.09-2.68-.86-5.95-.89-5.95S127.21,134.22,126,137.2Z"/><path class="cls-8" d="M121.28,142.35h-.63a8.73,8.73,0,0,0-1.78-5.85A7,7,0,0,1,121.28,142.35Z"/><path class="cls-8" d="M116.33,145.46a15.66,15.66,0,0,1-1.56-8.79,19.57,19.57,0,0,0,2.08,8.49Z"/><path class="cls-8" d="M109,145.36c-.9-7.07,1.42-10.14,1.42-10.14s-1.69,3.2-.8,10.07Z"/><path class="cls-12" d="M139.35,115.36c.24,1.32-.26,2.54-1.12,2.71s-1.75-.79-2-2.12.26-2.54,1.12-2.71S139.12,114,139.35,115.36Z"/><path class="cls-12" d="M144.57,109.11a1.71,1.71,0,1,1-1.68-2A1.87,1.87,0,0,1,144.57,109.11Z"/><path class="cls-12" d="M147.22,104.46A1.21,1.21,0,1,1,146,103,1.36,1.36,0,0,1,147.22,104.46Z"/><path class="cls-12" d="M142.53,113.74c0,.76-.47,1.39-1,1.39s-1-.63-1-1.39.46-1.39,1-1.39S142.53,113,142.53,113.74Z"/><path class="cls-5" d="M151.48,51.43c1.78-10.87-6.58-23.46-15.33-26.14-5-11.6-12.72-9.28-17.12-5.71a13.21,13.21,0,0,0-8.59-.2C96.1,8.74,90.52,27.6,93.1,32.86s1.12,4.13-3.17,9.81c-2.65,0-7.14,2.31-5,9.48,0,0,9.41,9.39,13.38,20.55-2.68,8-12.69,7.34-12,15.33.43,4.8,7.66,6.91,14.63,5.85,7.54-1.15,16.82-10.27,27.06-8.55C156.4,88.73,156.24,56.51,151.48,51.43Z"/><path class="cls-5" d="M91.58,89c-4-2.11.92-7.8,2.91-9.25-2.22.92-9.06,6-5.59,9.94,3,3.44,10.94,1.92,13.88-.52C99.08,90.51,95.31,91,91.58,89Z"/><path class="cls-13" d="M91.81,40.52c-.53.6-1.12,1.32-1.82,2.22-2.64,0-7.13,2.31-5,9.48l.1.1c-.69-3-.26-8.69,5.65-8.76,1.52-.63,1.85-1.09,1.36-2.31C92,41,91.91,40.77,91.81,40.52Z"/><path class="cls-14" d="M136,79.64a1.41,1.41,0,1,0-.17,2.74,1.53,1.53,0,0,0,1.79-1.25A1.58,1.58,0,0,0,136,79.64Z"/><path class="cls-15" d="M144.18,71.78c-1.92-.89-4.1.23-5.26,2.71s-.79,5,1.13,5.88,4.39-.36,5.55-2.84S146.09,72.67,144.18,71.78Z"/><path class="cls-16" d="M141.9,66.54c-1,.89-1.36,2.11-.83,2.68s1.75.33,2.74-.57,1.36-2.08.83-2.67S142.89,65.66,141.9,66.54Z"/><path class="cls-17" d="M151.08,66.69c-1.09-.3-2.28.66-2.71,2.15s.14,2.94,1.19,3.24,2.28-.66,2.71-2.15S152.14,67,151.08,66.69Z"/><path class="cls-18" d="M150.75,57.31c-.86-.53-2.28.26-3.17,1.78s-1,3.14-.1,3.64,2.28-.27,3.17-1.79S151.61,57.8,150.75,57.31Z"/><path class="cls-19" d="M148.28,44.36a2,2,0,1,0-.3,4,2,2,0,0,0,2.15-1.85h0a2,2,0,0,0-1.76-2.14Z"/><path class="cls-20" d="M140.16,39.58c-1.19.63-1.49,2.48-.63,4.13s2.55,2.48,3.74,1.85,1.48-2.48.62-4.13S141.38,39,140.16,39.58Z"/><path class="cls-21" d="M152.77,62.66a3.55,3.55,0,0,0,.86,2.78,32.31,32.31,0,0,0,.23-5.29A3.47,3.47,0,0,0,152.77,62.66Z"/><path class="cls-22" d="M144.64,31.11a4.12,4.12,0,0,0-.4.33c-1.38,1.42-1,4.13,1,6.08a5.5,5.5,0,0,0,4.52,1.78A28,28,0,0,0,144.64,31.11Z"/><path class="cls-4" d="M147.88,35.2c-3-5-7.4-8.72-11.63-10-2.38-5.45-5.55-8.36-9.45-8.62-3.4-.23-6.31,1.68-7.8,2.87a12.15,12.15,0,0,0-3.47-.79,16.25,16.25,0,0,0-5.09.6A14.61,14.61,0,0,0,103,16.07a8.72,8.72,0,0,0-7.9,4.3c-2.74,4.1-3.4,10-2.14,12.59,1.88,3.86,1.61,4.16-.47,6.44-.69.79-1.58,1.75-2.64,3.14a5.69,5.69,0,0,0-4.46,2.28c-.93,1.22-1.75,3.5-.6,7.4v0l0,0c.1.09,9.38,9.48,13.35,20.45-1.23,3.6-3.94,5.38-6.55,7.13-3,2-5.81,3.84-5.41,8.2a5.66,5.66,0,0,0,3.1,4.36,15.32,15.32,0,0,0,6.61,1.82A24.11,24.11,0,0,0,101,94c2.91-.46,6.11-2.08,9.48-3.79,4.86-2.52,10.34-5.32,16-4.93.5,0,1,.1,1.52.17s1.26.13,1.85.16h0c12.79.86,18.71-5.81,21.45-11.56,4.09-8.69,3-19.69.3-22.7C152.44,46.3,151.05,40.44,147.88,35.2Zm5.85,25.28a30.09,30.09,0,0,1-2.68,13.45c-2.68,5.68-8.52,12.25-21.15,11.4h0c-.59,0-1.22-.1-1.81-.17s-1-.13-1.52-.16c-5.78-.4-11.3,2.44-16.19,5-3.34,1.72-6.51,3.34-9.39,3.8A22.79,22.79,0,0,1,96,94c-5.45-.36-9.15-2.71-9.45-5.91-.36-4.2,2.25-5.92,5.29-7.93,2.54-1.69,5.42-3.6,6.67-7.34v-.06C94.65,62,85.63,52.71,85.1,52.15c-.89-3-.69-5.42.56-7.1A5.68,5.68,0,0,1,90,42.87h.07l0-.07a38.38,38.38,0,0,1,2.68-3.17c2.11-2.31,2.48-2.74.49-6.77C92,30.38,92.7,24.6,95.41,20.57A8.39,8.39,0,0,1,103,16.4a14.72,14.72,0,0,1,7.34,3.14h0l.07,0a15.11,15.11,0,0,1,5-.63,11.33,11.33,0,0,1,3.44.79l.06,0,.07-.07c1.42-1.15,4.3-3.07,7.67-2.87,3.76.26,6.87,3.14,9.21,8.52l0,.07.06,0c4.2,1.26,8.53,5,11.53,9.91,3.18,5.19,4.53,11,3.7,16.06v.07l0,.06C152.67,52.91,153.59,56.45,153.73,60.48Z"/><path class="cls-4" d="M115.23,24.2a24.08,24.08,0,0,1,3.87-4.49l-.16-.23A15,15,0,0,0,115.23,24.2Z"/><path class="cls-4" d="M104.3,24c1.06-1.55,3.63-3.93,6.18-4.46l-.07-.29A10.27,10.27,0,0,0,104.3,24Z"/><path class="cls-23" d="M138.11,31.47s-1.29-4.36-2-6.18Z"/><path class="cls-4" d="M136,25.36c.66,1.78,2,6.14,2,6.18s-1-4.5-1.68-6.28Z"/><path class="cls-23" d="M149.46,49.64l2,1.79A8.83,8.83,0,0,0,149.46,49.64Z"/><path class="cls-4" d="M149.4,49.77a7.57,7.57,0,0,1,2,1.76l.23-.2A5.48,5.48,0,0,0,149.4,49.77Z"/><path class="cls-4" d="M128,85.46l.07-.3A7.73,7.73,0,0,1,125,83.48,6.16,6.16,0,0,0,128,85.46Z"/><path class="cls-24" d="M126.17,56.81l-.46.33a42.43,42.43,0,0,1-21,14.9c-3.77,5.22-14,11.5-12,13.71,3,3.44,21.41-1.68,26.5-7.79,4.92-5.92,9.68-15.56,9.64-21.54C127.89,56.51,127,56.65,126.17,56.81Z"/><path class="cls-25" d="M108.13,75.46c.36-2-2.64-2.71-5-1.45C98.62,78.73,91,83.82,92.67,85.77c3,3.43,21.41-1.69,26.5-7.8a46.71,46.71,0,0,0,4-5.72C119.66,69.9,112,72.37,108.13,75.46Z"/><path class="cls-26" d="M105.79,77.49c1.78-4.42-2.58-3.27-4.43-1.78-4.43,4.2-10.18,8.33-8.69,10,3,3.44,21.41-1.68,26.5-7.79,1.38-1.65,1.88-3.31,1.12-4.17C117.18,70.17,108.59,75.68,105.79,77.49Z"/><path class="cls-27" d="M104,79s2.25-1.88,4.23-3.46l-.16-.24A49.36,49.36,0,0,0,104,79Z"/><path class="cls-27" d="M108.3,75.13a1.46,1.46,0,0,0-.33-1,2.8,2.8,0,0,0-2.09-.92,5.42,5.42,0,0,0-2.57.46,1.24,1.24,0,0,1,0,.33,5.13,5.13,0,0,1,2.58-.53,2.79,2.79,0,0,1,1.88.79,1.26,1.26,0,0,1,.24,1.09l-.07.4.3-.26c2.74-2.22,8-4.37,11.92-4.1a6.38,6.38,0,0,1,2.78.76l.13.06.17-.23a6.07,6.07,0,0,0-3-.89C116.26,70.92,111.17,72.94,108.3,75.13Z"/><path class="cls-28" d="M102.35,81.36a13.4,13.4,0,0,0-2,5.15,45.09,45.09,0,0,0,8.53-2.34C105.07,81.1,102.35,81.36,102.35,81.36Z"/><path class="cls-29" d="M102.81,81.23a2,2,0,0,0-.49,0h-.07l0,.06a13.61,13.61,0,0,0-2.08,5.22h0l.29,0a1.85,1.85,0,0,1,0-.23,13.31,13.31,0,0,1,1.91-4.76h.38a10.92,10.92,0,0,1,5.71,2.61l.17.14.33-.1-.07,0A11,11,0,0,0,102.81,81.23Z"/><path class="cls-28" d="M113.88,76a18.58,18.58,0,0,0-.59,6.24,19.39,19.39,0,0,0,5.88-4.3c.29-.33.56-.69.82-1A17.12,17.12,0,0,0,113.88,76Z"/><path class="cls-29" d="M115.66,75.88c-1-.07-1.75,0-1.78,0h-.1l0,.1a19.2,19.2,0,0,0-.6,6.31h0l.3-.1a1,1,0,0,0,0-.23,17.36,17.36,0,0,1,.59-5.78,16.51,16.51,0,0,1,5.72.83l.26.1a.29.29,0,0,0,.13-.27l-.06,0A15.44,15.44,0,0,0,115.66,75.88Z"/><path class="cls-30" d="M120,77.11s0,0,.07,0,0-.06.06-.09l.14-.17-.14,0A.91.91,0,0,1,120,77.11Z"/><path class="cls-4" d="M129,56.25l-.17,0c-.85.1-1.78.23-2.67.4h0l-.5.36,0,0a42.14,42.14,0,0,1-20.92,14.83h0l0,0A45.23,45.23,0,0,1,98,78.49c-3.6,3.17-6.71,5.91-5.45,7.33a4.53,4.53,0,0,0,3.17,1.12h0c6.38.43,19.43-4,23.56-8.92,4.79-5.75,9.71-15.39,9.71-21.64ZM119,77.86c-4.06,4.89-17,9.25-23.29,8.82a4.19,4.19,0,0,1-2.94-1c-1.06-1.23,2.08-4,5.45-6.94a45.85,45.85,0,0,0,6.58-6.58,42.47,42.47,0,0,0,21-14.93l.33-.23.13-.14c.83-.16,1.59-.29,2.38-.39v.16c-.13,6.15-5.05,15.76-9.65,21.25Z"/><path class="cls-31" d="M98.55,28.17c-6.31-.57-15,16.15-6.11,21.24C102.71,48.12,102.58,28.54,98.55,28.17Z"/><path class="cls-32" d="M97.92,28.54C92,28.58,84,44.47,92.21,49.42,101.69,48.09,101.66,28.5,97.92,28.54Z"/><path class="cls-33" d="M97.49,33.39c-1.85-.1-3.73,2.14-4.19,5s.62,5.25,2.44,5.35,3.73-2.15,4.23-5S99.34,33.5,97.49,33.39Z"/><path d="M97.14,35.7c-1.22-.07-2.48,1.35-2.77,3.24s.46,3.43,1.68,3.53,2.48-1.35,2.78-3.24S98.35,35.81,97.14,35.7Z"/><path class="cls-34" d="M98.88,38.38a.9.9,0,0,1-1.72-.53.9.9,0,1,1,1.72.53Z"/><path d="M97.92,28.36c-3.24,0-7.23,4.73-8.79,10.28-1.35,4.92-.26,8.89,3,10.87l0,0h.07c6.34-.86,8.36-9.58,8.16-15.2C100.27,30.71,99.31,28.36,97.92,28.36ZM92.24,49.25c-3.11-1.92-4.13-5.75-2.81-10.51,1.49-5.35,5.45-10,8.49-10H98c1.15.07,2,2.35,2.11,5.69C100.3,39.83,98.35,48.37,92.24,49.25Z"/><path class="cls-5" d="M93.59,43.69a10.28,10.28,0,0,0-4.37.28.46.46,0,0,1-.58-.29.3.3,0,0,1,0-.1h0a.47.47,0,0,0-.51-.42l-.12,0A5.86,5.86,0,0,0,85.6,45a6.36,6.36,0,0,0-1,4.75c.2,1.19,2.88,1.85,6.38,2,10,.53,7.76-4.19,7.76-4.19S98.09,44.22,93.59,43.69Z"/><path class="cls-4" d="M93.63,43.56a7.85,7.85,0,0,0-6.91,1.82,9.15,9.15,0,0,1,6.84-1.59c4.3.86,5.09,3.8,5.09,3.84S98.09,44.36,93.63,43.56Z"/><path class="cls-28" d="M74.46,69.07a14.09,14.09,0,0,0,5.42,9.55s5.09-4.5,4.33-8.43S74.46,69.07,74.46,69.07Z"/><path class="cls-29" d="M81,68a22.25,22.25,0,0,0-6.57,1l-.1,0v.13a14.42,14.42,0,0,0,5.48,9.65l.1.06.1-.06c.2-.2,5.12-4.6,4.36-8.56C84.08,68.81,83,68.08,81,68ZM79.88,78.39a14,14,0,0,1-5.25-9.25A20.91,20.91,0,0,1,81,68.21c1.82.13,2.88.79,3.11,2C84.74,73.73,80.54,77.79,79.88,78.39Z"/><path class="cls-28" d="M61.18,65.67a14.37,14.37,0,0,0,4.63,10.64s5.58-3.57,4.75-7.17S61.18,65.67,61.18,65.67Z"/><path class="cls-29" d="M62.78,65.57c-.92-.07-1.59-.07-1.59-.07h-.13v.13A14.59,14.59,0,0,0,65.75,76.4l.07.07.1-.07c.23-.13,5.68-3.66,4.79-7.3C70.07,66.46,65.44,65.77,62.78,65.57Zm3.07,10.57a14.37,14.37,0,0,1-4.49-10.31,13.5,13.5,0,0,1,1.42.07c2.11.13,7,.76,7.67,3.33.74,3.14-3.92,6.41-4.61,6.91Z"/><path class="cls-28" d="M113,64.94a9.31,9.31,0,0,0,7.47,3.14s1.58-5.16,0-7.17S113,64.94,113,64.94Z"/><path class="cls-29" d="M119.76,60.35c-2.25-.17-6.67,4.29-6.84,4.49l-.1.1.1.1a9.49,9.49,0,0,0,6.54,3.2,9.37,9.37,0,0,0,1.06,0h.1l0-.1c.07-.19,1.62-5.25,0-7.3A1.36,1.36,0,0,0,119.76,60.35Zm.63,7.6h-.93a9.19,9.19,0,0,1-6.24-3c.66-.66,4.59-4.43,6.54-4.3a.93.93,0,0,1,.7.37c1.35,1.75.14,6.21-.07,6.94Z"/><path class="cls-28" d="M100.14,71.09c.79,3.5,5.74,6.24,5.74,6.24s4.5-6.87,3.74-9.65S100.14,71.09,100.14,71.09Z"/><path class="cls-29" d="M108.63,66.87C106.15,66.7,100.3,70.8,100,71l-.07.07,0,.09c.8,3.54,5.62,6.25,5.82,6.35l.13.06.07-.13c.19-.3,4.52-7,3.76-9.78A1.2,1.2,0,0,0,108.63,66.87Zm-2.81,10.31c-.76-.43-4.76-2.94-5.52-6,.73-.5,6.08-4.17,8.33-4a.81.81,0,0,1,.82.59c.7,2.44-3.06,8.45-3.63,9.37Z"/><path class="cls-28" d="M87.08,71.88c.63,4.82,6.08,6.64,6.08,6.64S97,74.75,96.5,71.28Z"/><path class="cls-29" d="M96.63,71.16l-9.71.63L87,72c.63,4.85,6.11,6.74,6.18,6.77l.1,0,.07-.06c.16-.17,3.89-3.87,3.4-7.37Zm-3.5,7.21c-.69-.27-5.22-2.12-5.88-6.35l9.12-.59c.36,3.09-2.74,6.43-3.24,6.92Z"/><path class="cls-5" d="M107,44.09s-7.37-5.88-17.12,4.66c-3.14-.66-7.76-.13-9,1.65-5-3.1-13.68-4-18.07-.53-1.36-.79-3.84-.89-5,.23-1.49,1.49-1.75,4.83.33,9.65-.66,4.5,3.24,14.84,19.23,11.9,3.83,2.94,30.79,7.63,47.87-14,.13-.17.5-.73.63-.89l-6.44,2Z"/><path class="cls-35" d="M57.88,50.1c-1.49,1.49-1.75,4.83.33,9.65.13-3.14,2.11-7.89,4.66-9.91C61.51,49.11,59,49,57.88,50.1Z"/><path class="cls-5" d="M79.39,55.19c-4.36,1.06-6.55,7.44-6.55,7.44-.33,4.26,1.43,4.62,4.5,4.39,4-.26,7-7.2,6.37-5.45,0,0,1.66-2.78.57-4.82C83.55,55.42,81.4,54.7,79.39,55.19Z"/><path class="cls-36" d="M79.39,55.19c-4.36,1.06-6.55,7.44-6.55,7.44,1.43-2.12,4.46-6.31,7.54-6.51,4-.27,3.9,3.7,3.3,5.45,0,0,1.65-2.78.56-4.82C83.55,55.42,81.4,54.7,79.39,55.19Z"/><path class="cls-4" d="M96.6,73.7c-9.71,1.25-17.31-.83-19.06-2.15l-.07,0H77.4c-8.65,1.62-13.34-.79-15.72-3.1a10.62,10.62,0,0,1-3.34-8.62v0l0,0c-1.85-4.33-2-7.86-.37-9.52,1.09-1.09,3.51-1,4.83-.23l.1,0,.06-.07c2-1.59,5.09-2.38,8.72-2.18a20,20,0,0,1,9.19,2.71l.13.06L81,50.4c1.12-1.68,5.65-2.24,8.82-1.58l.07,0,.06-.07c5-5.38,9.32-6.37,12.06-6.24a9,9,0,0,1,4.83,1.58,7.78,7.78,0,0,0-4.8-1.88c-2.8-.13-7.23.86-12.25,6.28-3.21-.66-7.64-.1-9,1.62a20.19,20.19,0,0,0-9.22-2.68c-3.63-.2-6.77.6-8.82,2.18-1.45-.79-3.93-.82-5.08.33-1.72,1.72-1.62,5.35.29,9.78a10.87,10.87,0,0,0,3.44,8.82,14.12,14.12,0,0,0,9.12,3.67,28.18,28.18,0,0,0,6.8-.46c1.42,1.06,5.22,2.11,10.15,2.44A46.7,46.7,0,0,0,96.63,74a43,43,0,0,0,29.18-16.75l-.23-.17A42.64,42.64,0,0,1,96.6,73.7Z"/><path class="cls-4" d="M81,50.27l-.17.23c3.34,2.18,6.38,6.64,6.41,6.68S84.44,52.48,81,50.27Z"/><path class="cls-4" d="M90,48.62l-.07.3a15.27,15.27,0,0,1,7.8,5.18A14.13,14.13,0,0,0,90,48.62Z"/><path class="cls-4" d="M79.3,55c-4.36,1-6.48,7.5-6.48,7.5s2.35-6.21,6.55-7.24c1.95-.46,4,.2,4.72,1.49,1,2-.43,4.76-.43,4.76s1.79-2.78.7-4.93C83.6,55.23,81.37,54.5,79.3,55Z"/><path class="cls-37" d="M81.34,58.36C79.88,57.18,76.18,62,77,64.58,77.4,65.83,83,59.72,81.34,58.36Z"/><path class="cls-38" d="M77,64.58c.13.39.76.06,1.52-.63-1.19-1.42.26-5.22,2.57-5.72C79.52,57.64,76.21,62.16,77,64.58Z"/><path class="cls-4" d="M81.43,58.28a1.12,1.12,0,0,0-.56-.23c-.69,0-1.62.59-2.51,1.68-1.09,1.39-2,3.44-1.52,4.89a.36.36,0,0,0,.33.27c1,.06,3.6-2.84,4.36-4.79C82,59,81.73,58.5,81.43,58.28ZM81.27,60c-.79,2-3.4,4.66-4.06,4.59,0,0-.07,0-.07-.06-.43-1.33.46-3.34,1.45-4.63.8-1,1.66-1.62,2.25-1.59a.72.72,0,0,1,.4.17c.39.32.23,1,0,1.51Z"/><path class="cls-4" d="M77.47,71.83A17.54,17.54,0,0,0,81.83,70a27.06,27.06,0,0,1-4.43,1.49Z"/><path class="cls-4" d="M127.21,56.42a30.07,30.07,0,0,0-7.7,2.34c.1,0,10.28-3.86,17.78-1.72C137.27,57,134.27,55.26,127.21,56.42Z"/><path class="cls-31" d="M123.59,27.74c-6.34,1.09-10.27,13.21-5.51,21.11,1.55.43,4.82,1.78,8,1.35,2.22-.29,3.67.1,4.79-2.41C135.09,38.45,130.07,26.61,123.59,27.74Z"/><path class="cls-32" d="M123.49,28.73c-6.34,1.09-10.17,12.22-5.38,20.09,1.55.43,4.82,1.78,8,1.35,2.21-.3,3.56-.49,4.69-3C134,38.14,130,27.6,123.49,28.73Z"/><path class="cls-33" d="M124.39,34.58c-2.48.23-4.4,3.17-4.3,6.6s2.18,6,4.63,5.79,4.39-3.18,4.33-6.61S126.88,34.34,124.39,34.58Z"/><path d="M124.49,37.35c-1.66.13-2.94,2-2.88,4.26s1.49,3.94,3.14,3.8,2.94-2,2.87-4.26S126.14,37.22,124.49,37.35Z"/><path class="cls-34" d="M127.06,39.56A1.06,1.06,0,1,1,125,39.3h0a1.09,1.09,0,0,1,1.19-.92,1,1,0,0,1,.93,1.16Z"/><path class="cls-39" d="M124.78,28.54a6.5,6.5,0,0,0-1.32.07c-2.54.43-4.82,2.48-6.24,5.62A16.14,16.14,0,0,0,118,48.9l0,.06.07,0c.26.07.62.2,1,.3a22.84,22.84,0,0,0,5,1.13h0a15.59,15.59,0,0,0,2,0c2.18-.3,3.63-.46,4.82-3.1,1.89-5.29,1.39-11.47-1.19-15.43A6.49,6.49,0,0,0,124.78,28.54Zm5.88,18.57c-1.12,2.48-2.44,2.64-4.59,2.94a9.36,9.36,0,0,1-2,0,21.67,21.67,0,0,1-5-1.09c-.36-.13-.66-.19-.95-.29a15.84,15.84,0,0,1-.7-14.38c1.39-3,3.57-5,6-5.45a5.33,5.33,0,0,1,1.26-.06A6.33,6.33,0,0,1,129.48,32c2.54,3.88,3,10,1.18,15.15Z"/><path class="cls-5" d="M123.86,46.21c-6.58-.2-9.12,3-9.12,3l9.88,4.06,7.47-3.11S130.43,46.44,123.86,46.21Z"/><path class="cls-4" d="M123.86,46.07c-6.58-.19-9.09,3.14-9.09,3.14s2.68-3,9.09-2.84,8.19,3.67,8.23,3.7S130.43,46.27,123.86,46.07Z"/><path class="cls-40" d="M80.25,70.81s13.18,4,29.2-3c0,0,10.87-6.69,12.78-9.86a25.3,25.3,0,0,1,3-.79s-4.3,7.14-14.83,12.45-26.1,5.91-32.61,2.17A18.51,18.51,0,0,0,80.25,70.81Z"/><path class="cls-40" d="M58.34,59.75s-1.26,7.17,7.07,11.1c0,0,7.18,3.25,16.3-.84,0,0-10.39.12-15.23-2A14.36,14.36,0,0,1,58.34,59.75Z"/></svg>