<svg id="Layer_54" data-name="Layer 54" xmlns="http://www.w3.org/2000/svg" viewBox="0 0 256 256"><defs><style>.cls-1{opacity:0.5;}.cls-2{fill:#fff;}.cls-3,.cls-5{fill:#5118aa;}.cls-3,.cls-4{stroke:#7a00ba;stroke-miterlimit:10;stroke-width:2px;}.cls-4,.cls-6{fill:#935dd8;}.cls-7{fill:#6532b7;}.cls-8{fill:#bdebf9;}</style></defs><path class="cls-1" d="M81.24,240.5c-5.84,0-10.29-1.39-13.23-4.14s-4.22-6.82-3.36-11.36a13.87,13.87,0,0,1,3.95-7.4,25.9,25.9,0,0,1-6.57.84,26.71,26.71,0,0,1-16.2-5.62A31.25,31.25,0,0,1,34.2,182.35c3.82-19,19.13-29.55,33.06-36a33.14,33.14,0,0,1-4.41-.74c-2.32-.53-23.55-5.79-29.8-20.43a45.76,45.76,0,0,1-2.64-28.28A34.63,34.63,0,0,1,36,84.63a7.32,7.32,0,0,1-1.51.16,6.88,6.88,0,0,1-5.17-2.39c-3.1-3.49-2.7-9.24-2.51-10.92,1.57-13.87,9.13-22.09,20.75-22.55l1.57,0c11.42,0,18.67,5.29,21.55,15.73,3.49,12.71-3.43,21.67-8.49,28.22-2.85,3.68-5.54,7.16-5.45,9.92.35,11.33,8.33,13.7,15,13.7,5.89,0,11.07-2.09,13-4.07.93-1.7,1.19-10.43-4-26.05-.31-.94-.63-1.87-.94-2.81-4.53-13.53-9.66-28.88.61-45.41C91,21,117.89,20.5,120.92,20.5h.25c24.44.6,41,17.23,42.33,32.31,1.06,11.67-3.38,23.52-7.3,34-2.72,7.26-5.79,15.47-4.72,19.23.16.32.27.6.36.82a5.62,5.62,0,0,1,.54.55,3,3,0,0,0,1,.16l.86-.13a13.7,13.7,0,0,0,3.46-4.38c.65-1.12,1.36-2.53,2.12-4,3.95-7.77,9.36-18.42,20-18.42a15.67,15.67,0,0,1,2.45.2,14.06,14.06,0,0,1,9.62,5.73c4.39,6.3,2.64,15.33,1.37,21.92a26.83,26.83,0,0,1-1.08,3.85c5.08-3.56,10.84-6.91,18-6.91,9.8,0,24.07,8.47,24.24,23.8,0,5.9.16,23.79-20.51,28.05a30.32,30.32,0,0,1-6.19.67h0c-10.38,0-15.89-6.06-17.11-12.4-5.38,3.59-12,5.42-19.86,5.45h-.2a73.6,73.6,0,0,1-21.2-3.56A45.24,45.24,0,0,0,167,157.46l6.78,2.06c12.13,3.68,18.82,5.7,25.49,10.59,10.39,7.67,24,27.73,16.41,48.91-3.82,10.7-15.72,15.93-25.81,16.36l-.89,0c-11.31,0-24.27-9.21-26.68-19-2.53-10.46,4.72-21.86,8-26.3l.14-.21.23-.27a6.21,6.21,0,0,1,4.6-2.28c-19.41-3.82-34-8.83-45.28-15.64,2.86,3.48,6.19,7.84,7.62,14.57a43.27,43.27,0,0,1-2.77,25.87c-8.11,18.21-30.25,18.21-39.71,18.21H92.23l.58,1.71,1.8,5.18a23.24,23.24,0,0,1-7.74,2.8A36.47,36.47,0,0,1,81.24,240.5Zm98.74-51c1.92,2.27,1.52,4.68,1.05,7.47-.54,3.2-2,11.71,1.23,14a3.13,3.13,0,0,0,.37.23,13.72,13.72,0,0,0,6.44,1.78,6.7,6.7,0,0,0,4.83-1.69l.07-.08a4.38,4.38,0,0,0,.4-.5,5.12,5.12,0,0,0,.83-2.63v-.16a10.56,10.56,0,0,0-.56-3.62l-.31-.75v-.13l-.18-.46c-4-9.84-8.93-13.24-15.37-14.83Zm-92.46,1.45a22.71,22.71,0,0,1-7.46,20.51c3-1,6.18-1.72,9.24-2.45,13.38-3.18,19-5.4,18.87-10.86v-.46c-.32-5-3.23-8.07-8-12.62-4.19-4.05-9-8.64-10.13-15.73-.13-.82-.24-1.6-.31-2.34-1.62.44-3.3.82-5,1.14a62.53,62.53,0,0,0-12.16,3.46c.77.36,1.45.73,1.85,1l.32.18a25.89,25.89,0,0,1,12.7,17.92A2.93,2.93,0,0,1,87.52,190.94ZM58,192.43a5.62,5.62,0,0,0,4,2.11,5.33,5.33,0,0,0,2.38-.63l.13-.07A5,5,0,0,0,67,191.49c1.5-3.16-.49-8.54-1.65-10.36a5.82,5.82,0,0,1-2.36-4,20.56,20.56,0,0,0-5.17,6.06c-1.44,2.72-1.76,5.39-.9,7.53l.12.29a5.3,5.3,0,0,0,.88,1.32ZM45.79,69.85c-1.14.78-2.43,3.42-3.44,7.11-.14.48-.28.94-.43,1.36C46,74.69,47,72.4,47.24,71.5c.1-.48,0-.62-.05-.72A3,3,0,0,0,45.79,69.85Z"/><path class="cls-2" d="M76.24,235.5c-5.84,0-10.29-1.39-13.23-4.14s-4.22-6.82-3.36-11.36a13.87,13.87,0,0,1,4-7.4,25.9,25.9,0,0,1-6.57.84,26.71,26.71,0,0,1-16.2-5.62A31.25,31.25,0,0,1,29.2,177.35c3.82-19,19.13-29.55,33.06-36a33.14,33.14,0,0,1-4.41-.74c-2.32-.53-23.55-5.79-29.8-20.43a45.76,45.76,0,0,1-2.64-28.28A34.63,34.63,0,0,1,31,79.63a7.32,7.32,0,0,1-1.51.16,6.88,6.88,0,0,1-5.17-2.39c-3.1-3.49-2.7-9.24-2.51-10.92,1.57-13.87,9.13-22.09,20.75-22.55l1.57,0c11.42,0,18.67,5.29,21.55,15.73,3.49,12.71-3.43,21.67-8.49,28.22C54.3,91.53,51.61,95,51.7,97.77c.35,11.33,8.33,13.7,15,13.7,5.89,0,11.07-2.09,13-4.07.93-1.7,1.19-10.43-4-26.05-.31-.94-.63-1.87-.94-2.81-4.53-13.53-9.66-28.88.61-45.41C86,16,112.89,15.5,115.92,15.5h.25c24.44.6,41,17.23,42.33,32.31,1.06,11.67-3.38,23.52-7.3,34-2.72,7.26-5.79,15.47-4.72,19.23.16.32.27.6.36.82a5.62,5.62,0,0,1,.54.55,3,3,0,0,0,1,.16l.86-.13A13.7,13.7,0,0,0,152.66,98c.65-1.12,1.36-2.53,2.12-4,3.95-7.77,9.36-18.42,20-18.42a15.67,15.67,0,0,1,2.45.2,14.06,14.06,0,0,1,9.62,5.73c4.39,6.3,2.64,15.33,1.37,21.92a26.83,26.83,0,0,1-1.08,3.85c5.08-3.56,10.84-6.91,18-6.91,9.8,0,24.07,8.47,24.24,23.8,0,5.9.16,23.79-20.51,28.05a30.32,30.32,0,0,1-6.19.67h0c-10.38,0-15.89-6.06-17.11-12.4-5.38,3.59-12,5.42-19.86,5.45h-.2a73.6,73.6,0,0,1-21.2-3.56A45.24,45.24,0,0,0,162,152.46l6.78,2.06c12.13,3.68,18.82,5.7,25.49,10.59,10.39,7.67,24,27.73,16.41,48.91-3.82,10.7-15.72,15.93-25.81,16.36l-.89,0c-11.31,0-24.27-9.21-26.68-19-2.53-10.46,4.72-21.86,8-26.3l.14-.21.23-.27a6.21,6.21,0,0,1,4.6-2.28c-19.41-3.82-34-8.83-45.28-15.64,2.86,3.48,6.19,7.84,7.62,14.57a43.27,43.27,0,0,1-2.77,25.87c-8.11,18.21-30.25,18.21-39.71,18.21H87.23l.58,1.71,1.8,5.18a23.24,23.24,0,0,1-7.74,2.8A36.47,36.47,0,0,1,76.24,235.5Zm98.74-51c1.92,2.27,1.52,4.68,1.05,7.47-.54,3.2-2,11.71,1.23,14a3.13,3.13,0,0,0,.37.23,13.72,13.72,0,0,0,6.44,1.78,6.7,6.7,0,0,0,4.83-1.69l.07-.08a4.38,4.38,0,0,0,.4-.5,5.12,5.12,0,0,0,.83-2.63v-.16a10.56,10.56,0,0,0-.56-3.62l-.31-.75v-.13l-.18-.46c-4-9.84-8.93-13.24-15.37-14.83Zm-92.46,1.45a22.71,22.71,0,0,1-7.46,20.51c3-1,6.18-1.72,9.24-2.45,13.38-3.18,19-5.4,18.87-10.86v-.46c-.32-5-3.23-8.07-8-12.62-4.19-4.05-9-8.64-10.13-15.73-.13-.82-.24-1.6-.31-2.34-1.62.44-3.3.82-5,1.14a62.53,62.53,0,0,0-12.16,3.46c.77.36,1.45.73,1.85,1l.32.18a25.89,25.89,0,0,1,12.7,17.92A2.93,2.93,0,0,1,82.52,185.94ZM53,187.43a5.62,5.62,0,0,0,4,2.11,5.33,5.33,0,0,0,2.38-.63l.13-.07A5,5,0,0,0,62,186.49c1.5-3.16-.49-8.54-1.65-10.36a5.82,5.82,0,0,1-2.36-4,20.56,20.56,0,0,0-5.17,6.06c-1.44,2.72-1.76,5.39-.9,7.53l.12.29a5.3,5.3,0,0,0,.88,1.32ZM40.79,64.85c-1.14.78-2.43,3.42-3.44,7.11-.14.48-.28.94-.43,1.36C41,69.69,42,67.4,42.24,66.5c.1-.48,0-.62-.05-.72A3,3,0,0,0,40.79,64.85Z"/><path class="cls-3" d="M106.61,135.11a31.14,31.14,0,0,0,10,17.53s-2.09,2.76-1.63,8.06c.63,7.39,9.56,10.81,11.9,21.83a37.5,37.5,0,0,1-2.38,22.25c-8,17.9-34.31,14.11-40.7,14.86a29.12,29.12,0,0,0-6.26,1.29c-2.8,1-4,2.59-1.38,4.84s10.36,1.46,10.36,1.46a17.44,17.44,0,0,1-5.64,2c-3.26.54-17.32,1.75-15.44-8.14,2.88-15.07,44-7.72,43.62-28v-.54c-.76-14.11-16.28-17.83-18.16-29.14-1.25-7.6.92-10.35.92-10.35"/><path class="cls-4" d="M205.12,106.27c-8.89,0-15.52,7-23.08,11.77-9.6,6-17.07,10.77-26.71,5.26-.05,0-.09,0-.13-.08,1.59-.55,3.59-1.51,7.6-5.76,3.34-3.55,9.77-18.58,9.89-18.58V99c1,7.14.08,8.14.08,8.14s-2.38-.91-5.26,5.26-.91,9.6,2.55,8.68c1.17-.29,2.8-1.66,4.47-3.63a43.82,43.82,0,0,0,6.38-10.31h0a22.91,22.91,0,0,0,1.55-4.76c1.67-8.64,3.5-19.15-6.18-20.74S161.84,93.87,157.75,101c-4.93,8.55-8.89,7.43-8.89,7.43a7.87,7.87,0,0,1-6-2.13c-9.52-10.19,11.81-35.82,9.8-57.94-1.12-12.6-16-26.46-36.56-27,0,0-26.3-.38-35.73,14.86s-3.8,29,.92,43.28,6.55,27.84,2.71,31.85c-7.93,8.43-37.4,11.06-38.15-13.4C45.46,86.36,64.67,78.22,60,61.19c-1.75-6.35-5.51-11.86-17.24-11.4C32.11,50.21,28.52,59,27.6,67.16c-.67,5.72,2.17,10.14,4.09,3.25,2.63-9.6,6.3-11.27,8.89-11.6h.17c3.59-.21,15.19,6-.71,19.58-11.65,9.89-11.81,27-6.56,39.27s25.8,17,25.8,17c8.89,2.17,25.34-.33,25.34-.33h0a31.18,31.18,0,0,1-12.27,9c-15.62,6.13-33.52,15.86-37.4,35.14a25.17,25.17,0,0,0,9.43,24.63,20.49,20.49,0,0,0,24.71.54c.38-.25.75-.54,1.08-.79a16.9,16.9,0,0,0,6.56-16c-2-12.48-14.53-16.11-12.73-15.4s10,16.65-1.84,22.62c-.83.42-7.22,4-13.48-2.71a10.34,10.34,0,0,1-2-3.13h0c-4.3-9.85,4.55-25.76,32.06-30.89,21.37-4,26.34-16.15,26.55-16.82-.09.42,1.42.42,5.63,6,12.52,16.69,34.15,25,62.11,30.39,8.56,1.62,16.16,5.42,21.62,18.82.21.54.42,1,.59,1.55h0s0,.08,0,.16c4.3,13.57-8.39,20.37-20.41,13.86-10.35-5.63-2.38-25.55-4.72-22.83h0c-.16.25-9.35,12.23-7.09,21.54,1.83,7.43,12.89,14.86,21.62,14.48s17.82-4.88,20.53-12.48c6.73-18.7-6.38-36.31-14.35-42.2-6.89-5.05-14-6.68-30.52-11.77-21.37-6.55-29.3-22.58-31.18-27.17-.29-.76-.46-1.21-.46-1.26.42.25,38.86,21.08,57,3.26,10.31-10.14,27-22.5,28.72-8.35,1,8.35-4.84,14.53-10.73,15a8.17,8.17,0,0,1-3.25-.34,4.81,4.81,0,0,1-1.09-.5h0l-.5-.37a0,0,0,0,1,0,0c-2.21-2.05-.29-5.72.33-6.31,4.34-4.17,9.69-4.38,2.55-4-15.07.79-14.65,22.7,6,18.45C220,144,223.57,136,223.49,124.26S212.14,106.27,205.12,106.27Z"/><path class="cls-5" d="M180.91,107.15h0a41.72,41.72,0,0,1-6.38,10.31c-1.67,2-3.3,3.33-4.47,3.63-3.46.91-5.47-2.55-2.55-8.69s5.26-5.25,5.26-5.25.92-1.05-.08-8.14a.37.37,0,0,0,.08-.17c3.64-5.8,5.81-7.18,5.81-7.18s3.5-1.92,3.79,3.63A40.31,40.31,0,0,1,180.91,107.15Z"/><path class="cls-6" d="M174.53,117.46c-1.67,2-3.3,3.33-4.47,3.63-3.46.91-5.47-2.55-2.55-8.69s5.26-5.25,5.26-5.25C177.45,108.11,176.36,113,174.53,117.46Z"/><path class="cls-5" d="M194.85,213.79c-4.34,6.18-9.18,9.52-20.57,5.43-8.69-3.13-13.07-14.94-4.18-30.72h0c2.38-2.72-5.63,17.2,4.72,22.83,12,6.51,24.71-.29,20.41-13.86h0C195.73,198.81,198.86,208.07,194.85,213.79Z"/><path class="cls-6" d="M100.14,213.33c-12.23,7.35-18.28,4.85-22.58,7.64-2.79,1.05-4,2.59-1.37,4.84s10.35,1.47,10.35,1.47a17.29,17.29,0,0,1-5.64,2c-3.25.54-17.32,1.75-15.44-8.14,2.88-15.07,44-7.72,43.62-28C109.08,193.05,112.37,206,100.14,213.33Z"/><path class="cls-5" d="M70.17,202.9C55.73,207.57,47.8,194,46.63,188.25a11.15,11.15,0,0,0,2,3.13c6.26,6.68,12.65,3.13,13.48,2.71,11.81-6,3.63-21.91,1.84-22.62s10.72,2.88,12.73,15.4A17,17,0,0,1,70.17,202.9Z"/><path class="cls-5" d="M90.88,121.25c-.42,1.13-.75,2.3-1.21,3.43a71.6,71.6,0,0,1-3.13,7,8.92,8.92,0,0,1-2,2.8s-16.45,2.5-25.34.33c0,0-20.54-4.72-25.8-17S28.35,88.45,40,78.55C55.9,65,44.3,58.77,40.71,59c2.21-.21,4.55-.34,6.59.83a6.83,6.83,0,0,1,3.17,4.93c.8,4.5-1.54,8.59-4.21,12-1.51,1.92-13.82,10.1-12.07,26.5,1.3,12,3.55,16.95,14.15,22,9,4.26,25,3.38,30,1.84a29.44,29.44,0,0,0,11.82-6.64c.21-.21.62-.84.92-.46S91,121,90.88,121.25Z"/><path class="cls-5" d="M204.12,140.87a8,8,0,0,1-4.8-2.13,3.54,3.54,0,0,0,1.09.5,7.51,7.51,0,0,0,3.25.34c5.89-.46,11.73-6.68,10.73-15-1.71-14.15-18.37-1.79-28.72,8.35-18.16,17.82-56.56-3-57-3.26a27.84,27.84,0,0,1-.62-8.43c.37-4.63,21.7,14.19,36.52,12.57,16.61-1.8,34.6-18.29,39.86-18.83,6.6-.67,14.2-.42,13,11.6C216.18,138.74,206.75,141.16,204.12,140.87Z"/><path class="cls-7" d="M155.37,123.3c.16.12-12.86-10.6-14.28-19.91.5.79.34,1.58,1.92,3-.46-1.33,3.88,10.4,12.73,16.66C155.66,123,155.45,123.17,155.37,123.3Z"/><path class="cls-8" d="M168.56,86s5.05-5,10.27-1.79c7,4.34-.09,2.34-2.42,1.12C174.65,84.31,169.35,85.65,168.56,86Z"/><path class="cls-8" d="M191.85,113.07s6.39-3.13,12.52-3.46c5.89-.34,11.56,2.84,11.06,2.29-.92-1-6.51-4.05-11.52-3.88C198.4,108.65,191.85,113.07,191.85,113.07Z"/><path class="cls-8" d="M147.35,154.9s-11.48-7.14-15.82-13.82-6.88-16.74-6.93-15.69c-.45,11.64.88,12.23,5.06,18A41.6,41.6,0,0,0,147.35,154.9Z"/><path class="cls-8" d="M180.41,167.71s9.73,6.76,13.78,11,5.88,6.47,5.55,5.8c-3.72-8-5.8-8.35-9.52-11.9C183.29,167.13,180.41,167.71,180.41,167.71Z"/><path class="cls-8" d="M75.94,213.92s-5.47,1-7.52,3.75a7.29,7.29,0,0,0-1.21,5.81s-.37-1.92,3.13-5.51S75.94,213.92,75.94,213.92Z"/><path class="cls-8" d="M84.66,138.12s-3.13,4-25.09,14.23c-22.41,10.52-20,23.42-20,23.42s1.33-7.27,10.64-15.32,22.29-11.4,28.22-15.57S84.66,138.12,84.66,138.12Z"/><path class="cls-8" d="M46.3,108.56s7.89,15.91,30.64,9.69c21.83-6-3.68,8.47-19.33,2.79C48.39,117.71,46.3,108.56,46.3,108.56Z"/><path class="cls-8" d="M43.5,51.88s10.94.5,14.07,8.18c2.13,5.22-.08,8.64-.38,9C57.19,69,59.41,58.22,43.5,51.88Z"/><path class="cls-7" d="M93.38,29.17s4.55,2.38-2.08,5.18S87.29,28.63,93.38,29.17Z"/><path class="cls-7" d="M101.1,32.14s2.59,1.92-2.79,3.29S97,31.3,101.1,32.14Z"/><path class="cls-7" d="M160.67,111s3.09.83-1,3.88S156.66,111.65,160.67,111Z"/><path class="cls-7" d="M118.72,128.64s3-2.59,3.21,4.93S116.63,133.69,118.72,128.64Z"/><path class="cls-7" d="M203.79,204.28s3.09-.92,1.12,3.84S200.74,207,203.79,204.28Z"/><path class="cls-7" d="M96.3,208.12s1.92,1.42-3.08,2.54S92.84,207.57,96.3,208.12Z"/><path class="cls-7" d="M84.45,212s1.8,1.63-2.38,2.25S81.4,211.08,84.45,212Z"/><path class="cls-7" d="M91.55,212.29s.87.54-1.55,1.21S89.92,212.17,91.55,212.29Z"/><path class="cls-7" d="M84.66,36.44s2.34.2-.71,3.34S81.7,37.6,84.66,36.44Z"/><path class="cls-7" d="M137.54,90.82s-5.3,1.72-2.46-5.38S142.6,86.65,137.54,90.82Z"/><path class="cls-7" d="M142.51,76s-2.21.83-1-2.68S144.6,74,142.51,76Z"/><path class="cls-7" d="M31.52,63.78s-2.21.83-1-2.68S33.61,61.73,31.52,63.78Z"/><path class="cls-7" d="M29.44,66.61s-1.13.55-.55-1.75S30.48,65.28,29.44,66.61Z"/><path class="cls-7" d="M135,115.45s-1.05,1.55-1.92-1.21S135.37,113.16,135,115.45Z"/><path class="cls-7" d="M200,212.5s-1.75.67-.84-2.09S201.62,210.87,200,212.5Z"/><path class="cls-7" d="M204.83,200.27s-1.25,1.38-1.75-2.17S205.54,197.81,204.83,200.27Z"/><path class="cls-7" d="M97.14,134.32s-1.71.67-.84-2.09S98.77,132.65,97.14,134.32Z"/><path class="cls-7" d="M95.43,124.93s-1.71.66-.84-2.09S97.06,123.3,95.43,124.93Z"/><path class="cls-7" d="M137.8,79.64s-1.59.54-.76-1.8S139.3,78.26,137.8,79.64Z"/><path class="cls-7" d="M146.64,65.4s-1.75.67-.83-2.12S148.31,63.78,146.64,65.4Z"/><path class="cls-7" d="M144.77,117s-.59,2.72-2.72,0S144.31,113.82,144.77,117Z"/><path class="cls-7" d="M156.2,163.54s.25,2.88-3.63.29S154.37,160.36,156.2,163.54Z"/><path class="cls-7" d="M167.47,164s.84,3-3.84,1S164.93,161,167.47,164Z"/><path class="cls-7" d="M120.1,141.25s-1.59,2.25-2.47-1.13S120.93,138.2,120.1,141.25Z"/><path class="cls-7" d="M148,123.3s-.5,1.79-2.21-.59S147.69,121,148,123.3Z"/><path class="cls-7" d="M125.9,144.71s-.92,1.63-2-1.08S126.15,142.42,125.9,144.71Z"/><path class="cls-7" d="M40.75,109.82s-1.21,1.42-1.76-1.42S41.37,107.6,40.75,109.82Z"/><path class="cls-7" d="M222.11,128.39s-1.5,1.09-1.38-1.79S223.28,126.39,222.11,128.39Z"/><path class="cls-7" d="M139.92,111.82s-2.38,3.26-3.75-2.25S141.05,107.19,139.92,111.82Z"/><path class="cls-7" d="M92.17,136.2s-4.8,1.5-2.21-4.8S96.72,132.44,92.17,136.2Z"/><path class="cls-7" d="M40,96s-3.8,1.25-1.76-4S43.67,92.87,40,96Z"/><path class="cls-7" d="M89.42,145.63s-4,.46-.92-4.3S93.59,143.33,89.42,145.63Z"/><path class="cls-7" d="M40.54,191.38s-2.42,3.21-3.76-2.26S41.71,186.74,40.54,191.38Z"/><path class="cls-7" d="M45,197.26s-1.08,1.67-2.17-1.54S45.26,194.68,45,197.26Z"/><path class="cls-7" d="M132,108.56s-1.71,2.47-2.79-1.5S132.79,105.14,132,108.56Z"/><path class="cls-7" d="M37.78,102.85s-2.42,1.62-2-2.17S39.7,100.09,37.78,102.85Z"/><path class="cls-7" d="M221,123.05s-2.42,1.63-2-2.17S223,120.25,221,123.05Z"/><path class="cls-7" d="M135.79,102.47s-4.13,2.3-2.84-4.63C134.16,91.41,141,98.46,135.79,102.47Z"/><path class="cls-7" d="M91.17,36.6s3.59,1.26-1.34,4.26S86.54,37,91.17,36.6Z"/><path class="cls-7" d="M111.5,30.76s1.83,1.79-3.13,2.29S108.08,29.67,111.5,30.76Z"/><path class="cls-7" d="M97.1,38.06s1.21.71-1.21,1.59S95.22,37.9,97.1,38.06Z"/><path class="cls-7" d="M81.7,45.08s1.37-.25.12,2S80.19,46.16,81.7,45.08Z"/><path class="cls-7" d="M115.76,28.67s.83,1.09-1.72,1S114.09,27.84,115.76,28.67Z"/><path class="cls-7" d="M114.17,24.75s.67.71-1.46.75S112.83,24.29,114.17,24.75Z"/><path class="cls-7" d="M104.9,34.35s.75.58-1.29,1S103.48,34.1,104.9,34.35Z"/><path class="cls-7" d="M164.22,103.85s1,0-.55,1.58S162.88,104.43,164.22,103.85Z"/><path class="cls-7" d="M165,107.35s1.75.21-.21,2.09S162.88,107.94,165,107.35Z"/><path class="cls-7" d="M170.6,167.59s.55,1.67-2,.71S169.14,166,170.6,167.59Z"/><path class="cls-7" d="M99.39,28.67s1.38.8-1.87,1.92S97.06,28.59,99.39,28.67Z"/><path class="cls-7" d="M109.2,25s4.34,4.42-3.5,5S102.82,22,109.2,25Z"/><path class="cls-8" d="M102.36,152.68c1,.63.87,6.85-4.93,5C92.09,156,97.77,146.8,102.36,152.68Z"/><path class="cls-7" d="M99.39,152c2.13-.05,3.47,4.75,0,4.8C95.05,156.82,96.22,152,99.39,152Z"/><path class="cls-8" d="M112.83,150.47c1,.63.88,6.85-4.84,5C102.73,153.81,108.28,144.59,112.83,150.47Z"/><path class="cls-7" d="M109.91,149.76c2.09,0,3.42,4.76,0,4.8C105.65,154.6,106.78,149.76,109.91,149.76Z"/><path class="cls-8" d="M101,163.24c.46,1-3,5.77-6.55,1.34C91.25,160.49,100.69,156.27,101,163.24Z"/><path class="cls-7" d="M99.14,161.16c1.67,1.08.13,5.51-2.63,3.67C93.17,162.62,96.68,159.49,99.14,161.16Z"/><path class="cls-8" d="M103.4,174c-.75.84-6.51-.46-3.76-5.51C102.15,163.87,109.7,170.88,103.4,174Z"/><path class="cls-7" d="M104.57,171.43c-.33,2-5,2.33-4.43-1C100.85,166.5,105.15,168.5,104.57,171.43Z"/><path class="cls-8" d="M111.71,176.81c.46,1-3,5.76-6.43,1.34C102.11,174,111.33,169.84,111.71,176.81Z"/><path class="cls-7" d="M109.83,174.72c1.63,1.09.12,5.51-2.59,3.68C103.94,176.18,107.41,173.05,109.83,174.72Z"/><path class="cls-8" d="M116,183.11c.46,1-3,5.76-6.42,1.34C106.36,180.36,115.59,176.18,116,183.11Z"/><path class="cls-7" d="M114.09,181.07c1.62,1.08.12,5.51-2.59,3.67C108.2,182.53,111.67,179.4,114.09,181.07Z"/><path class="cls-8" d="M116.22,191.5c-.21.88-5.14,2.26-5.31-2.29C110.75,185,119.6,186.87,116.22,191.5Z"/><path class="cls-7" d="M115.92,189.25c.63,1.5-2.79,3.59-3.8,1.08C111,187.33,115.09,187,115.92,189.25Z"/><path class="cls-8" d="M112.25,159.53c.83.75-.42,6.47-5.34,3.76C102.36,160.78,109.16,153.31,112.25,159.53Z"/><path class="cls-7" d="M109.7,158.36c1.92.34,2.3,5-.91,4.38C104.9,162,106.82,157.78,109.7,158.36Z"/><path class="cls-8" d="M114.84,166.71c.75.71-.38,6.18-5,3.59C105.7,167.92,112,160.74,114.84,166.71Z"/><path class="cls-7" d="M112.5,165.62c1.75.34,2.13,4.8-.83,4.22C108.08,169.13,109.83,165,112.5,165.62Z"/><path class="cls-8" d="M120.18,172.85c.84.75-.42,6.47-5.34,3.75C110.29,174.1,117.05,166.58,120.18,172.85Z"/><path class="cls-7" d="M117.63,171.68c1.92.33,2.3,5-.91,4.38C112.83,175.35,114.75,171.09,117.63,171.68Z"/><path class="cls-8" d="M124.48,179.73c.83.75-.42,6.47-5.34,3.76C114.59,181,121.39,173.47,124.48,179.73Z"/><path class="cls-7" d="M122,178.56c1.92.34,2.29,5-.92,4.39C117.18,182.24,119.1,178,122,178.56Z"/><path class="cls-8" d="M126.07,187.66c.75.67-.38,5.72-4.72,3.3C117.34,188.75,123.31,182.15,126.07,187.66Z"/><path class="cls-7" d="M123.81,186.62c1.71.29,2,4.38-.79,3.88C119.6,189.88,121.27,186.12,123.81,186.62Z"/><path class="cls-8" d="M125.65,195.18c.75.71-.38,6-5,3.46C116.51,196.35,122.81,189.42,125.65,195.18Z"/><path class="cls-7" d="M123.31,194.13c1.75.3,2.13,4.59-.83,4.05C118.89,197.51,120.64,193.55,123.31,194.13Z"/><path class="cls-8" d="M116.8,195.39c.71.62-.38,5.55-4.59,3.21C108.28,196.51,114.13,190,116.8,195.39Z"/><path class="cls-7" d="M114.59,194.43c1.67.29,2,4.29-.8,3.75C110.5,197.56,112.12,193.92,114.59,194.43Z"/><path class="cls-8" d="M168.81,209c-.17.63-2.8.55-2.42-2.88C166.68,203,170.94,206.28,168.81,209Z"/><path class="cls-7" d="M168.89,207.28c.17,1.25-1.75,2.09-2,0C166.55,204.74,168.68,205.4,168.89,207.28Z"/><path class="cls-8" d="M190.18,217.22c-.63.29-2.46-1.84.54-4.14C193.44,211,193.89,216.92,190.18,217.22Z"/><path class="cls-7" d="M191.6,216c-.88,1-2.88.13-1.42-1.62C192,212.21,193,214.42,191.6,216Z"/><path class="cls-8" d="M173.4,214c.13.8-3.42,2.55-4.93-1.5C167.14,208.87,174.69,209.54,173.4,214Z"/><path class="cls-7" d="M172.52,212.08c.92,1.25-1.12,3.51-2.67,1.38C168,210.87,171.19,210.12,172.52,212.08Z"/><path class="cls-8" d="M174.36,215.3c-.29-.8,3.3-3.13,5.68.66C182.25,219.47,173.78,220,174.36,215.3Z"/><path class="cls-7" d="M175.7,217.13c-1.26-1.12.58-3.71,2.71-1.83C181,217.55,177.57,218.84,175.7,217.13Z"/><path class="cls-8" d="M187.72,216.46c.62.51-1,4.51-4.8,2.93C179.45,217.84,185.8,212.25,187.72,216.46Z"/><path class="cls-7" d="M185.71,215.8c1.55.12,1.38,3.34-1.21,3.13C181.41,218.59,183.42,215.5,185.71,215.8Z"/><path class="cls-8" d="M123.06,202.69c.5.83-1.59,5.76-5,2.5C115,202.19,121.77,196.55,123.06,202.69Z"/><path class="cls-7" d="M121.27,201.23c1.46.63.87,4.88-1.59,3.8C116.76,203.73,119.1,200.23,121.27,201.23Z"/><path class="cls-8" d="M115.05,202.27c.29.71-2,4.39-4.18,1.38C108.87,200.9,114.92,197.22,115.05,202.27Z"/><path class="cls-7" d="M113.84,200.9c1,.66,0,4-1.76,2.83C110,202.36,112.33,199.81,113.84,200.9Z"/><path class="cls-8" d="M117,211c-.42.75-4.47,1.67-3.17-2.38C115,205,120.93,207.16,117,211Z"/><path class="cls-7" d="M117.51,209c0,1.34-3.13,3-3.13.71C114.42,207,117.59,207,117.51,209Z"/><path class="cls-8" d="M83.57,133.23c-.58.8-6.3.67-4.46-3.88C80.82,125.22,89.13,129.69,83.57,133.23Z"/><path class="cls-7" d="M84.28,130.94c0,1.63-4.46,2.67-4.38-.09C80,127.51,84.41,128.47,84.28,130.94Z"/><path class="cls-8" d="M75.43,134.57c-.5.71-5.55.58-3.92-3.42C73,127.51,80.32,131.44,75.43,134.57Z"/><path class="cls-7" d="M76.06,132.57c0,1.46-3.92,2.37-3.84-.09C72.26,129.56,76.14,130.39,76.06,132.57Z"/><path class="cls-8" d="M67.71,134.57c-.54.67-5.8.54-4.13-3.26C65.17,127.85,72.8,131.61,67.71,134.57Z"/><path class="cls-7" d="M68.38,132.65c0,1.38-4.09,2.25-4-.08C64.41,129.77,68.51,130.56,68.38,132.65Z"/><path class="cls-8" d="M58.9,134c-.79.3-5.21-1.92-2-4C59.86,128,64.67,133.82,58.9,134Z"/><path class="cls-7" d="M60.37,132.82c-.67,1-4.55,0-3.43-1.67C58.32,129.14,61.45,131.31,60.37,132.82Z"/><path class="cls-8" d="M50.1,130.73c-.75-.38-1.55-3.84,2.33-2.59C56,129.31,53.81,134.23,50.1,130.73Z"/><path class="cls-7" d="M52.06,131.23c-1.29-.08-2.88-2.8-.67-2.67C54.06,128.77,54,131.4,52.06,131.23Z"/><path class="cls-8" d="M42,122.8c.54.62,0,4.13-3.13,1.54C36,121.92,39.87,118.21,42,122.8Z"/><path class="cls-7" d="M40.41,121.63c1.21.54,1.63,3.67-.37,2.71C37.62,123.17,38.62,120.75,40.41,121.63Z"/><path class="cls-8" d="M47.38,126.22c.71.42,1.63,3.8-2.08,2.3C41.87,127.14,43.71,122.59,47.38,126.22Z"/><path class="cls-7" d="M45.51,125.59c1.25.17,2.83,2.88.75,2.59C43.75,127.81,43.63,125.26,45.51,125.59Z"/><path class="cls-8" d="M34,118c-.42-.63.16-3.76,2.75-1C39.12,119.38,35.66,122.38,34,118Z"/><path class="cls-7" d="M35.36,119.21c-1-.63-1.21-3.51.46-2.42C37.83,118.08,36.82,120.21,35.36,119.21Z"/><path class="cls-8" d="M32.73,110.19c.25-.5,3.09.5,2.34,3.51C34.36,116.5,30.1,111.9,32.73,110.19Z"/><path class="cls-7" d="M32.44,111.78c0-1.21,2.13-1.25,2.17.75C34.7,115,32.48,113.57,32.44,111.78Z"/><path class="cls-8" d="M129.86,128.27c.21,1,5.43,2.92,5.47-1.8C135.37,122.09,126.19,123,129.86,128.27Z"/><path class="cls-7" d="M130.07,126c-.58,1.5,3,4.09,4,1.59C135.25,124.47,130.91,123.67,130.07,126Z"/><path class="cls-8" d="M137.46,132.15c.21.83,4.8,2.59,4.84-1.59C142.34,126.72,134.25,127.51,137.46,132.15Z"/><path class="cls-7" d="M137.67,130.1c-.54,1.3,2.63,3.59,3.51,1.38C142.22,128.81,138.38,128.1,137.67,130.1Z"/><path class="cls-8" d="M144.81,135.07c.25.83,5,2.67,4.92-1.38C149.65,129.94,141.34,130.48,144.81,135.07Z"/><path class="cls-7" d="M144.93,133.07c-.5,1.25,2.84,3.54,3.68,1.46C149.61,132,145.64,131.15,144.93,133.07Z"/><path class="cls-8" d="M153.74,138c.58.54,5.43.21,3.34-2.92C155.12,132.23,148.61,135.7,153.74,138Z"/><path class="cls-7" d="M152.86,136.41c.21,1.16,4.14,1.71,3.72-.21C156.12,133.86,152.45,134.65,152.86,136.41Z"/><path class="cls-8" d="M163.3,138.2c.83-.08,2.84-2.88-1.17-3.21C158.5,134.69,158.62,139.91,163.3,138.2Z"/><path class="cls-7" d="M161.34,137.91c1.21.42,3.63-1.46,1.58-2.17C160.46,134.9,159.5,137.32,161.34,137.91Z"/><path class="cls-8" d="M177.07,136c.8-.25,2.3-3.8-1.75-3.3C171.56,133.11,172.73,138.87,177.07,136Z"/><path class="cls-7" d="M175.07,136.07c1.29.21,3.38-2.38,1.17-2.71C173.61,132.94,173.11,135.82,175.07,136.07Z"/><path class="cls-8" d="M185.92,126.76c-.67.34-1.46,3.38,2.13,2.34C191.35,128.1,189.39,123.76,185.92,126.76Z"/><path class="cls-7" d="M187.72,126.35c-1.21,0-2.67,2.42-.63,2.33C189.51,128.6,189.55,126.22,187.72,126.35Z"/><path class="cls-8" d="M167.47,135.49c-.79.21-2.29,3.55,1.67,3.21C172.82,138.37,171.77,132.86,167.47,135.49Z"/><path class="cls-7" d="M169.43,135.45c-1.25-.26-3.33,2.17-1.16,2.54C170.81,138.49,171.35,135.78,169.43,135.45Z"/><path class="cls-8" d="M179.66,131c-.79.5-1.71,4,2.55,2.17C186.13,131.44,183.71,127,179.66,131Z"/><path class="cls-7" d="M181.79,130.19c-1.42.25-3.13,3.13-.71,2.67C184,132.27,184,129.73,181.79,130.19Z"/><path class="cls-8" d="M194,124.34c.58-.37,1.17-3.13-2-1.79C189.18,123.8,191.06,127.43,194,124.34Z"/><path class="cls-7" d="M192.43,124.93c1-.17,2.26-2.47.5-2.13C190.76,123.17,190.85,125.22,192.43,124.93Z"/><path class="cls-8" d="M198.53,119.58c0-.41-2.38-.5-2.72,1.76C195.48,123.38,199.86,121.5,198.53,119.58Z"/><path class="cls-7" d="M198.24,120.71c.37-.79-1.13-1.46-1.76-.08C195.69,122.26,197.69,121.92,198.24,120.71Z"/><path class="cls-8" d="M203.54,117.12c0-.42-2.17-1-3,1.13C199.74,120.17,204.46,119.25,203.54,117.12Z"/><path class="cls-7" d="M203,118.16c.55-.7-.79-1.66-1.71-.5C200.2,119.12,202.24,119.21,203,118.16Z"/><path class="cls-8" d="M208.71,116c.13-.37-1.92-1.46-3.17.46C204.37,118.21,209.17,118.29,208.71,116Z"/><path class="cls-7" d="M208,116.91c.67-.58-.41-1.79-1.58-.83C205.08,117.25,207,117.79,208,116.91Z"/><path class="cls-8" d="M31.23,105.93c-.08-.58,1.29-2.67,2.25.09C34.32,108.61,31,109.65,31.23,105.93Z"/><path class="cls-7" d="M31.77,107.27c-.5-.79.25-2.92,1.09-1.63C33.82,107.23,32.48,108.44,31.77,107.27Z"/><path class="cls-8" d="M33.53,96.84c0,.62-1.84,2.37-2.17-.55C31,93.58,34.49,93.2,33.53,96.84Z"/><path class="cls-7" d="M33.28,95.42c.33.83-.84,2.83-1.38,1.37C31.23,95,32.78,94.08,33.28,95.42Z"/><path class="cls-8" d="M31,100.72c-.08-.63,1.46-2.63,2.26.21C34,103.56,30.56,104.43,31,100.72Z"/><path class="cls-7" d="M31.48,102.05c-.46-.79.42-2.92,1.17-1.58C33.53,102.14,32.15,103.3,31.48,102.05Z"/><path class="cls-8" d="M34.19,89.49c.38-.13,1.47,1.67-.37,2.92S31.94,89.2,34.19,89.49Z"/><path class="cls-7" d="M33.32,90.2c.54-.67,1.75.29.83,1.38C33.07,92.87,32.48,91.12,33.32,90.2Z"/><path class="cls-8" d="M36.49,84.77c.38-.12,1.46,1.67-.38,2.92S34.24,84.48,36.49,84.77Z"/><path class="cls-7" d="M35.61,85.48c.55-.67,1.76.29.84,1.38C35.36,88.15,34.78,86.44,35.61,85.48Z"/><path class="cls-8" d="M39.5,80.93c.33,0,.75,1.88-1.09,2.59C36.74,84.15,37.74,80.14,39.5,80.93Z"/><path class="cls-7" d="M38.58,81.39c.62-.46,1.33.71.33,1.46C37.66,83.77,37.66,82.06,38.58,81.39Z"/><path class="cls-8" d="M42.71,78.14c.33,0,.63,1.71-1.17,2.12S41,77.26,42.71,78.14Z"/><path class="cls-7" d="M41.83,78.43c.63-.34,1.3.75.25,1.33C40.79,80.39,40.87,78.89,41.83,78.43Z"/><path class="cls-8" d="M113.54,212.37c.42.3-1,3.34-3.59,2.47C107.53,214,112.42,209.54,113.54,212.37Z"/><path class="cls-7" d="M112.17,212.08c1.08,0,.79,2.3-1,2.34C108.91,214.42,110.54,212,112.17,212.08Z"/><path class="cls-8" d="M108.37,210.66c.37.42-1.42,3.59-4,2.17C102,211.58,107.57,207.28,108.37,210.66Z"/><path class="cls-7" d="M107,210.08c1.13.12.5,2.71-1.34,2.46C103.36,212.21,105.32,209.83,107,210.08Z"/><path class="cls-8" d="M102,215.71c-.5.34-3.13-.25-1-2.38C102.9,211.46,105.53,214.46,102,215.71Z"/><path class="cls-7" d="M103,214.67c-.46.83-2.79.92-2-.46C101.9,212.54,103.69,213.42,103,214.67Z"/><path class="cls-8" d="M106.24,217c-.54.29-3.47-.21-1.17-1.92S110.2,216,106.24,217Z"/><path class="cls-7" d="M107.32,216.13c-.5.67-3.13.75-2.25-.38C106.11,214.42,108.12,215.13,107.32,216.13Z"/><path class="cls-8" d="M100.85,218.3c-.45.17-2.58-.54-.58-1.67C102.11,215.59,104,217.88,100.85,218.3Z"/><path class="cls-7" d="M101.77,217.67c-.46.51-2.46.3-1.67-.54C101.1,216.17,102.52,217,101.77,217.67Z"/><path class="cls-8" d="M97.47,217.26c-.5.16-2.75-.84-.5-2.09C99.06,214,100.9,217,97.47,217.26Z"/><path class="cls-7" d="M98.56,216.59c-.54.54-2.67.17-1.75-.75C98,214.71,99.44,215.75,98.56,216.59Z"/><path class="cls-8" d="M75.06,184.28c.21.54-1.09,3.17-2.55.8C71.18,183,74.81,180.53,75.06,184.28Z"/><path class="cls-7" d="M74.27,183.2c.66.54.12,3-1,2C71.93,184.07,73.26,182.32,74.27,183.2Z"/><path class="cls-8" d="M71.68,184.2c0,.54-2,2.42-2.67-.13C68.38,181.74,72.55,180.82,71.68,184.2Z"/><path class="cls-7" d="M71.26,183c.46.71-.75,2.67-1.54,1.46C68.8,183,70.59,181.9,71.26,183Z"/><path class="cls-8" d="M73.22,179.73c.25.29.09,2.34-1.46,1.17C70.38,179.82,72.14,177.35,73.22,179.73Z"/><path class="cls-7" d="M72.43,179.23c.58.21.83,1.92-.13,1.59C71.13,180.36,71.59,178.9,72.43,179.23Z"/><path class="cls-8" d="M70.38,179.86c.17.33-.66,2.08-1.75.58S70.09,177.39,70.38,179.86Z"/><path class="cls-7" d="M69.8,179.15c.5.33.17,1.92-.63,1.33C68.17,179.77,69.09,178.61,69.8,179.15Z"/><path class="cls-8" d="M110.29,209.28c-.54.51-3.8-.5-1.5-3.63C110.83,202.77,114.38,207.45,110.29,209.28Z"/><path class="cls-7" d="M111.29,207.66c-.46,1.25-3.26,1.33-2.5-.75C109.75,204.4,112,205.82,111.29,207.66Z"/><path class="cls-8" d="M69.55,201.69c.83-.21,2.75-4.13-1.25-3.84C64.58,198.1,64.92,204.65,69.55,201.69Z"/><path class="cls-7" d="M67.59,201.65c1.25.33,3.59-2.42,1.54-3C66.59,198,65.71,201.23,67.59,201.65Z"/><path class="cls-8" d="M64.12,198.27c.67-.05,2.84-3.14-.37-3.76C60.82,193.92,60,199.94,64.12,198.27Z"/><path class="cls-7" d="M62.58,197.81c.92.58,3.25-1.42,1.67-2.38C62.41,194.34,61.16,197,62.58,197.81Z"/><path class="cls-8" d="M57.49,200.19c.66.16,3.67-2.09.79-3.68C55.65,195.09,53,200.56,57.49,200.19Z"/><path class="cls-7" d="M56.15,199.31c.71.83,3.51-.38,2.34-1.75A1.46,1.46,0,0,0,56.15,199.31Z"/><path class="cls-8" d="M61.87,203.32c.67.16,3.67-2.09.79-3.68C60,198.18,57.4,203.65,61.87,203.32Z"/><path class="cls-7" d="M60.53,202.44c.71.83,3.51-.38,2.34-1.75C61.41,199.06,59.41,201.23,60.53,202.44Z"/><path class="cls-8" d="M74.22,195.51c.46-.58-.21-4.09-3-1.63C68.63,196.09,72.47,199.94,74.22,195.51Z"/><path class="cls-7" d="M72.8,196.64c1.09-.5,1.3-3.51-.5-2.67C70.09,195,71.18,197.39,72.8,196.64Z"/><path class="cls-8" d="M74.47,191.59c.38.21,2.34-2,.71-3.68C73.72,186.37,71.8,191.75,74.47,191.59Z"/><path class="cls-7" d="M73.76,190.67c.38.88,2.13-.21,1.51-1.63C74.52,187.29,73.18,189.37,73.76,190.67Z"/><path class="cls-8" d="M70.51,190.88c.46.16,2.42-2.38.37-3.88C69,185.62,67.46,191.46,70.51,190.88Z"/><path class="cls-7" d="M69.55,190c.5.84,2.38-.54,1.5-1.92C70,186.45,68.71,188.83,69.55,190Z"/><path class="cls-8" d="M69.63,192.46c.21-.62-1.75-2.75-3.46.09C64.62,195.22,69.63,196.3,69.63,192.46Z"/><path class="cls-7" d="M68.71,193.84c.84-.79-.08-3-1.46-1.67C65.54,193.8,67.46,195.05,68.71,193.84Z"/><path class="cls-8" d="M179.62,107.73c.46-.46.29-3.72-2.21-2C175.11,107.4,177.74,111.44,179.62,107.73Z"/><path class="cls-7" d="M178.37,108.48c.92-.25,1.42-3-.09-2.5C176.41,106.56,177,108.94,178.37,108.48Z"/><path class="cls-8" d="M176,105.85c.21-.37-.71-2.25-2.13-.71S175.53,108.44,176,105.85Z"/><path class="cls-7" d="M175.28,106.56c.62-.33.29-2-.71-1.46C173.36,105.81,174.36,107.1,175.28,106.56Z"/><path class="cls-8" d="M181.46,96.5c.16.67-1.72,3.3-3.22.29C176.91,94,181.58,92.24,181.46,96.5Z"/><path class="cls-7" d="M180.66,95.08c.75.8-.16,3.38-1.42,2C177.7,95.5,179.54,93.87,180.66,95.08Z"/><path class="cls-8" d="M180.45,99.88c.51,0,1.59,2.88-1,3.84C177.2,104.64,177.62,98.59,180.45,99.88Z"/><path class="cls-7" d="M179.2,100.51c.8-.67,2.21,1.08.88,2.21C178.45,104.1,178,101.47,179.2,100.51Z"/><path class="cls-8" d="M175.78,100.88a1.56,1.56,0,0,1-1,2.59C173.07,103.85,173.82,99.67,175.78,100.88Z"/><path class="cls-7" d="M174.86,101.18c.63-.38,1.55,1,.5,1.67C174.07,103.6,173.9,101.72,174.86,101.18Z"/><path class="cls-8" d="M176.11,99.17c-.12.5-2.33,1-2.17-1.63C174.11,95.12,177.82,96.67,176.11,99.17Z"/><path class="cls-7" d="M176.11,97.88c.21.88-1.37,1.92-1.67.42C174.07,96.46,175.86,96.5,176.11,97.88Z"/><ellipse class="cls-2" cx="93.97" cy="75.34" rx="5.09" ry="6.85"/><ellipse class="cls-2" cx="131.62" cy="75.34" rx="5.09" ry="6.85"/><circle cx="93.97" cy="75.34" r="4.22"/><path class="cls-2" d="M96.6,73.88a1,1,0,1,1-1.92,0,.94.94,0,0,1,1-1A1,1,0,0,1,96.6,73.88Z"/><circle cx="131.53" cy="75.38" r="4.22"/><path class="cls-2" d="M134.16,73.88a1,1,0,1,1-1-1A1,1,0,0,1,134.16,73.88Z"/><path d="M88,67.78a.53.53,0,0,1-.25,0,.47.47,0,0,1-.17-.58c.08-.13,2-3.3,7.22-2.59a.43.43,0,0,1,.38.5.44.44,0,0,1-.51.38c-4.59-.63-6.34,2.12-6.34,2.17A.52.52,0,0,1,88,67.78Z"/><path d="M137.54,67.78a.59.59,0,0,0,.26,0,.47.47,0,0,0,.16-.58c-.08-.13-2-3.3-7.22-2.59a.42.42,0,0,0-.37.5.43.43,0,0,0,.5.38c4.59-.63,6.34,2.12,6.34,2.17A.38.38,0,0,0,137.54,67.78Z"/><path d="M113.08,89.86c-3.79,0-8-2.17-8.55-7a.48.48,0,0,1,1-.13c.42,4.26,4.21,6.18,7.59,6.18h.13c3.38,0,6.93-2,7.22-6.18a.49.49,0,0,1,.5-.45.5.5,0,0,1,.46.5c-.33,4.8-4.47,7-8.18,7.09C113.21,89.86,113.13,89.86,113.08,89.86Z"/></svg>