<svg xmlns="http://www.w3.org/2000/svg" viewBox="0 0 256 256"><defs><style>.cls-1{isolation:isolate;}.cls-2{opacity:0.5;}.cls-3{fill:#fff;}.cls-4{fill:#645ca8;}.cls-5{fill:#8054a0;stroke:#3c286f;}.cls-10,.cls-13,.cls-15,.cls-5,.cls-7{stroke-miterlimit:10;}.cls-10,.cls-5{stroke-width:2px;}.cls-6{fill:#f5aecd;}.cls-7{fill:#f5d072;}.cls-13,.cls-15,.cls-7{stroke:#70645a;}.cls-8{fill:#dbb45c;}.cls-12,.cls-8,.cls-9{mix-blend-mode:multiply;}.cls-9{fill:#773c19;}.cls-10{fill:#d0802a;stroke:#5a3513;}.cls-11{fill:#214080;}.cls-12{fill:#c8b1d5;}.cls-13,.cls-16{fill:#f6fbfd;}.cls-14{fill:#451f16;}.cls-15{fill:#7b6747;}</style></defs><g class="cls-1"><g id="Layer_54" data-name="Layer 54"><path class="cls-2" d="M103.42,169.27c-7.64,0-15.48-4.46-20-11.37a20.48,20.48,0,0,1-3.29-8.74l-1.49,0c-19.76,0-25.74-15.94-26.15-25.36-.55-12.49-3-17-4.94-18.59-6.26-5.09-11.58-12.94-16.28-24-2.73-6.42-2.59-12.67.37-17.14,2-3,6.21-6.66,14.82-6.66a49.67,49.67,0,0,1,12.59,1.92,85.13,85.13,0,0,1,22,9.56c-.16-.77-.29-1.55-.4-2.34-3-4.18-2.14-11.06-1.7-13.51,1.65-9.19,6.3-10.56,8.93-10.56a7.08,7.08,0,0,1,2.64.51c2.39.94,6.32,3.89,5.75,13-.14,2.29-.69,6.64-2.75,9.85a38.06,38.06,0,0,0,5.39,13.37,23.68,23.68,0,0,1,4.71-2,49.33,49.33,0,0,1,1.31-18.37A13.56,13.56,0,0,1,106,51c.49-1.21,5-11.83,12.26-11.83a7.12,7.12,0,0,1,5.07,2.1c2,2,3.72,5.7,1,12.34-.36.88-3,6.92-7.32,9.83a37,37,0,0,0-.63,12.6c.65.08,1.28.18,1.89.31a22.12,22.12,0,0,1,5.15,1.72c3.69-11.07,9.66-23.49,19.09-31.82,9.7-8.57,23.87-18.79,36.25-18.79a18.31,18.31,0,0,1,11.44,3.69C204.37,42,189.13,70.5,189,70.79c-1.53,2.81,1,12.37,2.29,17.5a85.59,85.59,0,0,1,2,8.71c1.43,10.18-1.47,22.78-13.09,29.17,5.32,10.38,1.63,21.17-9.44,27.53a29.58,29.58,0,0,1-13.92,3.59h0a21.91,21.91,0,0,1-9.54-2.06,6.74,6.74,0,0,1-6,3.72,7,7,0,0,1-2.91-.64A6.89,6.89,0,0,1,132,163h-.13a6.67,6.67,0,0,1-4.51-1.76,10.54,10.54,0,0,1-2.53.29c-.65,0-1.4,0-2.3-.11a14.91,14.91,0,0,1-3.07-.57,20.67,20.67,0,0,1-2.28,2.65A19.35,19.35,0,0,1,103.42,169.27Z"/><path class="cls-3" d="M98.42,164.27c-7.64,0-15.48-4.46-20-11.37a20.48,20.48,0,0,1-3.29-8.74l-1.49,0c-19.76,0-25.74-15.94-26.15-25.36-.55-12.49-3-17-4.94-18.59C36.31,95.15,31,87.3,26.29,76.24c-2.73-6.42-2.59-12.67.37-17.14,2-3,6.21-6.66,14.82-6.66a49.67,49.67,0,0,1,12.59,1.92,85.13,85.13,0,0,1,22,9.56c-.16-.77-.29-1.55-.4-2.34-3-4.18-2.14-11.06-1.7-13.51,1.65-9.19,6.3-10.56,8.93-10.56a7.08,7.08,0,0,1,2.64.51c2.39.94,6.32,3.89,5.75,13-.14,2.29-.69,6.64-2.75,9.85a38.06,38.06,0,0,0,5.39,13.37,23.68,23.68,0,0,1,4.71-2,49.33,49.33,0,0,1,1.31-18.37A13.56,13.56,0,0,1,101,46c.49-1.21,5-11.83,12.26-11.83a7.12,7.12,0,0,1,5.07,2.1c2,2,3.72,5.7,1,12.34-.36.88-3,6.92-7.32,9.83a37,37,0,0,0-.63,12.6c.65.08,1.28.18,1.89.31a22.12,22.12,0,0,1,5.15,1.72c3.69-11.07,9.66-23.49,19.09-31.82,9.7-8.57,23.87-18.79,36.25-18.79a18.31,18.31,0,0,1,11.44,3.69C199.37,37,184.13,65.5,184,65.79c-1.53,2.81,1,12.37,2.29,17.5a85.59,85.59,0,0,1,2,8.71c1.43,10.18-1.47,22.78-13.09,29.17,5.32,10.38,1.63,21.17-9.44,27.53a29.58,29.58,0,0,1-13.92,3.59h0a21.91,21.91,0,0,1-9.54-2.06,6.74,6.74,0,0,1-6,3.72,7,7,0,0,1-2.91-.64A6.89,6.89,0,0,1,127,158h-.13a6.67,6.67,0,0,1-4.51-1.76,10.54,10.54,0,0,1-2.53.29c-.65,0-1.4,0-2.3-.11a14.91,14.91,0,0,1-3.07-.57,20.67,20.67,0,0,1-2.28,2.65A19.35,19.35,0,0,1,98.42,164.27Z"/><path class="cls-4" d="M227.06,233l.66-1.38.62-1.4h0a.24.24,0,0,1,.36-.14.37.37,0,0,1,.09.44l-.62,1.43c-.33.69-.65,1.38-.65,1.38a.26.26,0,0,1-.37.14.4.4,0,0,1-.09-.46Z"/><path class="cls-4" d="M229.43,227.39l.48-1.49c.2-.74.41-1.49.41-1.49v0c.05-.17.19-.26.32-.21a.33.33,0,0,1,.16.39l-.42,1.54c-.24.75-.47,1.49-.47,1.49-.06.17-.21.26-.34.2a.34.34,0,0,1-.14-.41Z"/><path class="cls-4" d="M230.92,221.36s0-.2.06-.49.07-.68.11-1.07c0-.77.07-1.55.07-1.55h0c0-.18.11-.33.25-.33a.27.27,0,0,1,.25.31h0s0,.8-.07,1.61c0,.4-.08.81-.12,1.1s-.06.49-.06.49a.29.29,0,0,1-.29.28A.29.29,0,0,1,230.92,221.36Z"/><path class="cls-4" d="M231,215.19s0-.19-.08-.47-.12-.65-.2-1-.18-.73-.26-1l-.14-.44v0a.38.38,0,0,1,.15-.43.24.24,0,0,1,.34.17h0l.14.46c.09.28.17.66.27,1s.17.78.21,1.06.07.48.07.48a.36.36,0,0,1-.2.4C231.13,215.47,231,215.37,231,215.19Z"/><path class="cls-4" d="M229.21,209.54s-.32-.65-.63-1.31-.69-1.25-.69-1.25h0a.41.41,0,0,1,.07-.48.23.23,0,0,1,.37.07h0l.7,1.29.64,1.32a.41.41,0,0,1-.1.47A.23.23,0,0,1,229.21,209.54Z"/><path class="cls-4" d="M226.36,204.65s-.42-.55-.85-1.09l-.89-1h0a.4.4,0,0,1,0-.49.24.24,0,0,1,.39,0h0l.92,1.05.85,1.09a.42.42,0,0,1,0,.49A.24.24,0,0,1,226.36,204.65Z"/><path class="cls-4" d="M222.7,200.73l-1-.81-1-.73h0a.41.41,0,0,1-.09-.49.27.27,0,0,1,.39-.15h0l1.08.77,1,.82a.39.39,0,0,1,.08.48C223,200.78,222.83,200.84,222.7,200.73Z"/><path class="cls-4" d="M218.42,197.93l-1.15-.53-1.16-.45h0a.37.37,0,0,1-.17-.46c0-.2.22-.31.37-.25h0l1.19.48,1.15.53a.39.39,0,0,1,.16.47C218.73,197.9,218.57,198,218.42,197.93Z"/><path class="cls-4" d="M213.75,196.24l-1.22-.26-1.21-.2h0a.37.37,0,0,1-.25-.43c0-.2.19-.35.35-.32h0l1.25.2,1.22.27a.36.36,0,0,1,.22.43C214.06,196.13,213.91,196.27,213.75,196.24Z"/><path class="cls-4" d="M208.87,195.57l-1.24,0-1.23,0h0a.34.34,0,0,1-.3-.39.36.36,0,0,1,.31-.39h0l1.27,0,1.24,0c.17,0,.29.18.28.39A.37.37,0,0,1,208.87,195.57Z"/><path class="cls-4" d="M203.93,195.82l-1.25.2-1.22.24h0c-.18,0-.34-.12-.36-.34a.43.43,0,0,1,.29-.47h0l1.26-.24,1.24-.18c.18,0,.33.13.34.35A.42.42,0,0,1,203.93,195.82Z"/><path class="cls-4" d="M199,196.89l-1.22.39-1.2.42h0a.33.33,0,0,1-.42-.3.49.49,0,0,1,.26-.55h0l1.24-.42,1.22-.37c.18-.06.36.08.39.31A.46.46,0,0,1,199,196.89Z"/><path class="cls-4" d="M194.21,198.69l-2.39,1.05c-.2.09-.4,0-.46-.28a.53.53,0,0,1,.25-.59h0l2.39-1h0a.33.33,0,0,1,.44.28A.51.51,0,0,1,194.21,198.69Z"/><path class="cls-4" d="M189.39,200.74l-2.42.91c-.2.08-.41-.07-.46-.33a.53.53,0,0,1,.28-.6h0l2.43-.89c.2-.08.4.07.45.32A.53.53,0,0,1,189.39,200.74Z"/><path class="cls-4" d="M184.51,202.48l-2.45.74c-.21.07-.42-.1-.46-.37a.54.54,0,0,1,.31-.61h0l2.45-.72c.22-.06.42.1.46.37A.52.52,0,0,1,184.51,202.48Z"/><path class="cls-4" d="M179.57,203.87l-2.48.53c-.23,0-.43-.14-.46-.43a.55.55,0,0,1,.37-.61h0l2.48-.51c.22,0,.42.14.45.43A.55.55,0,0,1,179.57,203.87Z"/><path class="cls-4" d="M174.58,204.81l-1.25.16-1.26.11c-.24,0-.44-.2-.45-.51a.57.57,0,0,1,.43-.59h0l1.23-.1,1.25-.14c.24,0,.43.19.44.49A.53.53,0,0,1,174.58,204.81Z"/><path class="cls-4" d="M169.54,205.18H168.3l-1.27-.08a.51.51,0,0,1-.4-.6.52.52,0,0,1,.49-.54h0l1.22.08,1.24,0a.49.49,0,0,1,.41.57A.52.52,0,0,1,169.54,205.18Z"/><path class="cls-4" d="M164.52,204.76l-1.22-.27-1.23-.36a.59.59,0,0,1-.33-.71c.07-.33.33-.53.58-.45h0l1.16.36,1.22.28a.56.56,0,0,1,.34.68A.51.51,0,0,1,164.52,204.76Z"/><path class="cls-4" d="M159.67,203.12l-.35-.2-.36-.21-.42-.27c-.28-.2-.56-.38-.76-.55l-.33-.27a.7.7,0,0,1-.13-.85.45.45,0,0,1,.68-.21h0l0,0,.31.25c.18.15.44.33.7.51l.38.25c.11.08.24.15.34.21l.35.2a.66.66,0,0,1,.21.8A.46.46,0,0,1,159.67,203.12Z"/><path class="cls-4" d="M155.5,199.52l-.24-.36c-.07-.11-.16-.24-.25-.4l-.29-.5a9.85,9.85,0,0,1-.45-1c-.12-.27-.19-.45-.19-.45a.76.76,0,0,1,.22-.88.44.44,0,0,1,.69.23h0l0,0,.16.4c.09.25.25.55.4.86q.12.23.24.42c0,.07.07.14.11.2l.12.18.25.37a.77.77,0,0,1-.08.89A.43.43,0,0,1,155.5,199.52Z"/><path class="cls-4" d="M153.29,193.71l0-.48c0-.28-.06-.72-.09-1.13s0-.83,0-1.14v-.51a.66.66,0,0,1,.54-.69.57.57,0,0,1,.52.65h0v0s0,.19,0,.48,0,.66,0,1,0,.72.07,1l0,.48a.69.69,0,0,1-.44.77C153.59,194.3,153.33,194.07,153.29,193.71Z"/><path class="cls-4" d="M153.51,187.18s0-.19.09-.48.14-.7.22-1.1c.19-.79.4-1.56.4-1.56a.57.57,0,0,1,.7-.47.72.72,0,0,1,.34.87h0s-.21.74-.39,1.49c-.08.37-.17.72-.22,1l-.09.49c-.08.37-.37.61-.66.54A.66.66,0,0,1,153.51,187.18Z"/><path class="cls-4" d="M155.2,181l.56-1.45.11-.29L156,179l.19-.45.18-.45a.55.55,0,0,1,.78-.34.8.8,0,0,1,.23,1h0l-.19.45c-.06.13-.13.28-.2.45l-.11.26-.09.24c-.29.72-.57,1.44-.57,1.44a.53.53,0,0,1-.75.36A.76.76,0,0,1,155.2,181Z"/><path class="cls-4" d="M157.68,175.24l.7-1.35.74-1.35a.53.53,0,0,1,.83-.23.86.86,0,0,1,.14,1h0l-.73,1.3-.7,1.34a.53.53,0,0,1-.82.24A.85.85,0,0,1,157.68,175.24Z"/><path class="cls-4" d="M160.68,169.9l1.61-2.5a.55.55,0,0,1,.88-.15.93.93,0,0,1,.07,1.1h0l-1.63,2.48a.54.54,0,0,1-.86.14A.91.91,0,0,1,160.68,169.9Z"/><path class="cls-4" d="M164,164.93l1.77-2.35a.55.55,0,0,1,.9-.05,1,1,0,0,1,0,1.13h0L164.91,166a.55.55,0,0,1-.89.05A1,1,0,0,1,164,164.93Z"/><path class="cls-4" d="M167.64,160.28l1.88-2.21a.55.55,0,0,1,.91,0,1,1,0,0,1-.06,1.17h0l-1.88,2.19a.55.55,0,0,1-.91,0A1,1,0,0,1,167.64,160.28Z"/><path class="cls-4" d="M171.47,155.91l2-2.07a.57.57,0,0,1,.94.09,1,1,0,0,1-.12,1.19h0l-2,2a.56.56,0,0,1-.92-.09A1,1,0,0,1,171.47,155.91Z"/><path class="cls-4" d="M175.47,151.81l2-1.94a.58.58,0,0,1,1,.16,1,1,0,0,1-.16,1.21h0l-2,1.92a.58.58,0,0,1-.94-.15A1,1,0,0,1,175.47,151.81Z"/><path class="cls-4" d="M179.63,148l2.11-1.81a.6.6,0,0,1,1,.22,1,1,0,0,1-.22,1.23h0l-2.13,1.79a.6.6,0,0,1-.95-.23A1,1,0,0,1,179.63,148Z"/><path class="cls-4" d="M183.93,144.41l2.18-1.66a.62.62,0,0,1,1,.29,1.08,1.08,0,0,1-.28,1.25h0l-2.2,1.65a.61.61,0,0,1-.95-.3A1.06,1.06,0,0,1,183.93,144.41Z"/><path class="cls-4" d="M188.36,141.14l2.25-1.51a.65.65,0,0,1,1,.37,1.08,1.08,0,0,1-.35,1.25h0L189,142.75a.64.64,0,0,1-1-.38A1.08,1.08,0,0,1,188.36,141.14Z"/><path class="cls-4" d="M192.94,138.18l2.32-1.32a.67.67,0,0,1,1,.47,1.1,1.1,0,0,1-.42,1.25h0l-2.33,1.3a.65.65,0,0,1-.95-.46A1.1,1.1,0,0,1,192.94,138.18Z"/><path class="cls-4" d="M197.66,135.63l1.19-.55,1.22-.54a.69.69,0,0,1,.93.59,1.08,1.08,0,0,1-.51,1.22h0l-1.17.5-1.19.55c-.39.19-.81-.06-.94-.56A1.08,1.08,0,0,1,197.66,135.63Z"/><path class="cls-4" d="M202.54,133.6l1.22-.4,1.26-.36c.42-.12.82.21.89.73a1.05,1.05,0,0,1-.62,1.16h0l-1.2.34-1.22.39c-.41.13-.81-.18-.89-.69A1,1,0,0,1,202.54,133.6Z"/><path class="cls-4" d="M207.57,132.31l.39-.06.88-.09c.31,0,.65,0,.89-.06l.41,0a.83.83,0,0,1,.76.94,1,1,0,0,1-.78,1h0l-.37,0c-.22,0-.51,0-.82,0l-.84.09-.38.05c-.43.06-.79-.33-.82-.86A1,1,0,0,1,207.57,132.31Z"/><path class="cls-4" d="M212.71,132.17l1.23.15,1.28.24a.93.93,0,0,1,.62,1.12c-.08.54-.49.92-.91.84h-.05l-1.16-.22-1.24-.16a1,1,0,0,1,.23-2Z"/><path class="cls-4" d="M217.73,133.29l.36.15c.21.07.53.22.84.36.6.3,1.18.65,1.18.65a1.12,1.12,0,0,1,.33,1.34.76.76,0,0,1-1.07.48h0s-.52-.32-1.06-.59l-.75-.33-.37-.15a1,1,0,0,1-.46-1.25C216.87,133.41,217.32,133.12,217.73,133.29Z"/><path class="cls-4" d="M222.32,136.25l.08.09c0,.06.12.12.21.24a9.81,9.81,0,0,1,.65.85,8.37,8.37,0,0,1,.55.95l.23.46h0a1.2,1.2,0,0,1-.32,1.39.69.69,0,0,1-1.09-.33h0a8.68,8.68,0,0,0-.61-1.12c-.18-.25-.37-.51-.51-.67a1.65,1.65,0,0,0-.2-.23l-.07-.09a1.2,1.2,0,0,1,0-1.42A.69.69,0,0,1,222.32,136.25Z"/><path class="cls-4" d="M224.88,142.17s0,.2,0,.49,0,.8,0,1.23c0,.11,0,.21,0,.32v.32c0,.19,0,.34,0,.52s-.07.56-.07.56a.92.92,0,0,1-.93.9,1,1,0,0,1-.67-1.13h0v-.05l0-.42c0-.12,0-.31.05-.49l0-.14v-.38c0-.36,0-.7,0-.94s0-.49,0-.49h0a1,1,0,0,1,.73-1.15C224.45,141.23,224.84,141.61,224.88,142.17Z"/><path class="cls-4" d="M223.92,148.92l-.17.45c-.05.14-.11.29-.19.48l-.25.57c-.18.36-.35.73-.49,1l-.24.45a.74.74,0,0,1-1.13.33,1.16,1.16,0,0,1-.21-1.42h0l0,0,.21-.4c.13-.23.28-.56.44-.88l.2-.47a4.07,4.07,0,0,0,.18-.44l.18-.45a.78.78,0,0,1,1.09-.53A1.11,1.11,0,0,1,223.92,148.92Z"/><path class="cls-4" d="M220.9,154.51l-.88,1.17-1,1.18a.7.7,0,0,1-1.16,0,1.25,1.25,0,0,1,.05-1.48h0l0,0,.88-1.06c.45-.58.89-1.17.89-1.17a.71.71,0,0,1,1.16-.07A1.25,1.25,0,0,1,220.9,154.51Z"/><path class="cls-4" d="M217.07,159l-1,1-1,1a.72.72,0,0,1-1.17-.18,1.29,1.29,0,0,1,.21-1.49h0v0l1-.94,1-1a.71.71,0,0,1,1.16.15A1.27,1.27,0,0,1,217.07,159Z"/><path class="cls-4" d="M212.91,162.92l-2.1,1.82h0a.72.72,0,0,1-1.16-.25,1.3,1.3,0,0,1,.26-1.5h0l2.12-1.81h0a.72.72,0,0,1,1.16.26A1.27,1.27,0,0,1,212.91,162.92Z"/><path class="cls-4" d="M208.7,166.55l-1.06.93-1.06.9a.72.72,0,0,1-1.17-.26,1.28,1.28,0,0,1,.26-1.51h0l1.06-.9,1-.91h0a.73.73,0,0,1,1.18.25A1.31,1.31,0,0,1,208.7,166.55Z"/><path class="cls-4" d="M204.34,170.12l-1.12.78-1.16.76a.76.76,0,0,1-1.15-.45,1.29,1.29,0,0,1,.42-1.48h0l0,0,1.1-.71,1.12-.78a.75.75,0,0,1,1.15.41A1.31,1.31,0,0,1,204.34,170.12Z"/><path class="cls-4" d="M199.71,173.07l-2.34,1.25a.78.78,0,0,1-1.12-.57,1.29,1.29,0,0,1,.51-1.46h0l2.34-1.24a.78.78,0,0,1,1.11.58A1.25,1.25,0,0,1,199.71,173.07Z"/><path class="cls-4" d="M194.94,175.49l-2.42,1a.82.82,0,0,1-1.09-.7,1.27,1.27,0,0,1,.6-1.42h0l2.42-1a.82.82,0,0,1,1.08.7A1.26,1.26,0,0,1,194.94,175.49Z"/><path class="cls-4" d="M190,177.45l-2.44.81c-.48.16-.95-.2-1-.79a1.23,1.23,0,0,1,.68-1.37h0l2.44-.81c.48-.16,1,.2,1.05.79A1.22,1.22,0,0,1,190,177.45Z"/><path class="cls-4" d="M185.09,179l-2.46.63c-.49.12-.94-.27-1-.88a1.19,1.19,0,0,1,.74-1.32h0l2.47-.62c.48-.12.93.27,1,.87A1.19,1.19,0,0,1,185.09,179Z"/><path class="cls-4" d="M180.1,180.16l-2.49.44c-.48.09-.91-.33-1-.95a1.18,1.18,0,0,1,.8-1.27h0l2.49-.44c.48-.09.92.34,1,.95A1.17,1.17,0,0,1,180.1,180.16Z"/><path class="cls-4" d="M175.08,181l-2.5.27c-.49,0-.9-.41-.91-1a1.12,1.12,0,0,1,.85-1.21h0l2.49-.27c.49,0,.9.41.92,1A1.13,1.13,0,0,1,175.08,181Z"/><path class="cls-4" d="M170,181.42l-2.5.09c-.49,0-.87-.47-.86-1.09a1.1,1.1,0,0,1,.9-1.16h0l2.5-.09a1,1,0,0,1,.86,1.1A1.08,1.08,0,0,1,170,181.42Z"/><path class="cls-4" d="M165,181.51l-2.48-.1a1,1,0,0,1-.82-1.16,1.06,1.06,0,0,1,1-1.09h0l2.49.1a1,1,0,0,1,.81,1.16A1.06,1.06,0,0,1,165,181.51Z"/><path class="cls-4" d="M160,181.21l-2.47-.3a1,1,0,0,1-.75-1.23,1,1,0,0,1,1-1h0l2.47.3a1,1,0,0,1,.75,1.23A1,1,0,0,1,160,181.21Z"/><path class="cls-4" d="M155,180.49l-2.44-.52a1.08,1.08,0,0,1-.67-1.3c.1-.6.57-1,1.05-.91l2.44.51a1.1,1.1,0,0,1,.68,1.3c-.11.61-.58,1-1.06.92Z"/><path class="cls-4" d="M150.08,179.3l-2.38-.78a1.1,1.1,0,0,1-.58-1.35c.14-.6.63-1,1.09-.81l2.39.78a1.12,1.12,0,0,1,.58,1.35c-.14.6-.63,1-1.1.81Z"/><path class="cls-4" d="M145.28,177.57l-1.16-.52-1.17-.57a1.17,1.17,0,0,1-.45-1.42c.19-.57.7-.86,1.14-.64h0l1.11.54,1.16.51a1.15,1.15,0,0,1,.49,1.4.88.88,0,0,1-1.14.69Z"/><path class="cls-4" d="M140.65,175.21l-1.1-.69-1.11-.76a1.2,1.2,0,0,1-.3-1.47.81.81,0,0,1,1.18-.46h0l1,.71,1.1.68a1.2,1.2,0,0,1,.34,1.46.82.82,0,0,1-1.17.52Z"/><path class="cls-4" d="M136.3,172.1l-1-.89-1-1a1.27,1.27,0,0,1-.12-1.51.75.75,0,0,1,1.2-.24l0,0,.93.89,1,.88a1.27,1.27,0,0,1,.17,1.51.77.77,0,0,1-1.2.3Z"/><path class="cls-4" d="M132.4,168.12l-.85-1.1-.85-1.22a1.28,1.28,0,0,1,.11-1.51.72.72,0,0,1,1.19.05l0,0,.76,1.09.85,1.1a1.29,1.29,0,0,1,0,1.53.72.72,0,0,1-1.2,0Z"/><path class="cls-4" d="M129.19,163.21l-.64-1.31c-.3-.72-.61-1.44-.61-1.44a1.28,1.28,0,0,1,.36-1.46.73.73,0,0,1,1.13.38l0,.05s.28.64.55,1.28l.64,1.31a1.29,1.29,0,0,1-.29,1.49.73.73,0,0,1-1.16-.3Z"/><path class="cls-4" d="M127,157.48l-.13-.46-.06-.25-.06-.25a5.68,5.68,0,0,1-.13-.58c-.1-.41-.16-.81-.21-1.12l-.08-.51A1.14,1.14,0,0,1,127,153c.46-.13.89.22,1,.78v0s0,.18.06.45.11.63.18,1c0,.16.08.34.12.52s.05.17.07.25l0,.19.12.46a1.21,1.21,0,0,1-.52,1.38.76.76,0,0,1-1.06-.6Z"/><path class="cls-4" d="M126.1,151s0-.2,0-.5,0-.73.07-1.15c.07-.83.19-1.65.19-1.65.08-.57.51-1,.95-.9a1,1,0,0,1,.67,1.16h0s-.1.74-.16,1.49c0,.36,0,.71,0,1l0,.49a1,1,0,0,1-.85,1.07.91.91,0,0,1-.8-1Z"/><path class="cls-5" d="M162.72,143.49c-4.89,2.81-18.62,6.47-24.65-5.57-.3-.61-.6-1.22-.89-1.85,8.88,9.57,15.1,2.27,11.62-7.83,4.45,6,14,9.62,16.15,3.72,3.42-12.53-9.38-18.43-19.75-21.11,9.5,1.15,20.12,4.41,24.53,12.9C175.09,134,167.61,140.69,162.72,143.49Z"/><path class="cls-6" d="M159.84,139c-4.31,2.39-19.49,7.32-24.71-5.19-.22-.53,1.14-1.05.88-1.58-4.58-9.35-8-20.83-8.53-21.57a77.94,77.94,0,0,1,15.58.13c8.37,1,17.72,3.72,21.61,10.92C169.39,130.4,164.14,136.6,159.84,139Z"/><path class="cls-5" d="M112.54,146.11a18,18,0,0,1-4.55,8.12c-11.92,11.69-31.17-4.58-26.13-16,2.82-6.43,11.12-13.5,17.87-18.47-6.88,6.59-15.2,17.15-10.77,26.72,3.67,6.19,11.23-.92,11.23-.92s-.91,6.42,4.59,7.11C108,153,110.81,149.26,112.54,146.11Z"/><path class="cls-6" d="M113.72,143.36a16.41,16.41,0,0,1-4.1,7.43c-10.74,10.71-28.1-4.19-23.55-14.69,2.55-5.89,10-12.37,16.11-16.93,4.77-3.57,8.68-6,8.68-6S117.14,131,113.72,143.36Z"/><path class="cls-5" d="M178.71,62.93c3.72-6.87,11-25.79,2.84-32s-22.85-.37-40.07,14.84S119.55,93,119.55,93.59a24,24,0,0,0,.53,9.38c.79-10.17,3.68-30.68,14.36-44.73,14.72-19.36,24.89-22.7,33.62-19.39s6.7,25.75-7.41,34.5c10.18-2.1,17,4.54,11,12.24s-25.94,15-26.57,15-16.48,5.51-22.79,7.69a18.14,18.14,0,0,0,5.78,5.85c55.72,17.34,55.24-13.83,54.19-21.3S175,69.79,178.71,62.93Zm-5.94,43.43c-.61,7.07-10.35,18.72-48.2,3a282.77,282.77,0,0,1,29.28-9.2C167.14,97,173.38,99.3,172.77,106.36Z"/><path class="cls-6" d="M119.79,109.17s-.06-32.23,15-52S160.14,34,169.06,37.4s6.83,26.28-7.57,35.21c10.39-2.14,17.4,4.63,11.27,12.49s-26.48,15.32-27.11,15.32S119.79,109.17,119.79,109.17Z"/><path class="cls-6" d="M124.57,109.82s16-6.58,29.29-10,19.53-.94,18.92,6.73S162.43,126.89,124.57,109.82Z"/><path class="cls-5" d="M61.15,121.4c2-7.4,42.51-7.09,50.61-7.08.57-.74,1.06-1.4,1.45-1.94-22,2.45-57.56.28-58.75-9.6-1.22-10.11,6-8,6-8S38,82.47,41.71,74.69s12.14-9.86,33.28.72c18.71,9.37,35.44,31,39,35.81.28-.41.42-.64.42-.64S89.6,70.12,52.52,60.15C30.44,54.24,28,64.87,31.81,73.89s8.48,16.76,14.54,21.7,6.88,16.82,7.16,23,4.07,22,24.54,19.33c8.84-1.14,16.84-6.4,23.07-12C77.86,143.15,59.26,128.39,61.15,121.4Z"/><path class="cls-6" d="M116.7,113S97.27,85.52,75.2,74.44s-30.82-8.89-34.74-.74,19.61,21,19.61,21-7.59-2.21-6.31,8.38S93.9,115.82,116.7,113Z"/><path class="cls-6" d="M113.16,114.3c-.69.16-49.71-2.63-53.42,7.57C56.85,129.82,84.68,148.33,113.16,114.3Z"/><path class="cls-7" d="M132.47,147.16c-3.19,1.51-8,1-13-1.33a41.11,41.11,0,0,1-15.61-13c-8.63-11.75-.92-20.38-.92-20.38l14.32-5a12.64,12.64,0,0,1,6.39,1.26,20,20,0,0,1,6.46,4.79C136.51,120.55,139.08,144,132.47,147.16Z"/><path class="cls-8" d="M132.47,147.16c-3.19,1.51-8,1-13-1.33,9.74,2.41,13.61-.44,12.47-13.72-1.28-15.05-13-18.72-13-18.72l2.55-5.4c2,.88,6.4,3.15,8.65,5.58C136.51,120.55,139.08,144,132.47,147.16Z"/><path class="cls-9" d="M113.43,117.16c-5.62,2.19-11.5,1.41-15.18-1.57a9.87,9.87,0,0,1-3-4.11C92.83,105.36,97.12,98,104.8,95a16.79,16.79,0,0,1,11.52-.43,10.68,10.68,0,0,1,6.69,6.11C125.4,106.78,121.11,114.17,113.43,117.16Z"/><path class="cls-10" d="M125.5,95.4c.18,11-6.61,19.46-18.91,20.38a23.53,23.53,0,0,1-11-1.86,17.68,17.68,0,0,1-4.24-2.61c-3.4-2.9-4.64-6.79-1.8-10.47a10.66,10.66,0,0,1,.91-1s-5.5-17.8,10.83-22a23.83,23.83,0,0,1,10.79-.54C121,79.07,125.36,87.19,125.5,95.4Z"/><path class="cls-11" d="M107.33,82.6a.42.42,0,0,1-.39-.26c-.06-.17-6.58-17.42,1.12-33a.41.41,0,0,1,.55-.18.41.41,0,0,1,.19.55C101.26,65,107.65,81.87,107.71,82a.41.41,0,0,1-.23.53A.4.4,0,0,1,107.33,82.6Z"/><path class="cls-11" d="M106.78,53.92c3,1.23,10.09-10.64,7.34-13.4S102.74,52.27,106.78,53.92Z"/><path class="cls-11" d="M93.68,84.94a.43.43,0,0,1-.29-.13c-.13-.13-13-13.35-12.12-30.71a.41.41,0,0,1,.43-.4.42.42,0,0,1,.39.44c-.84,17,11.76,30,11.89,30.09a.42.42,0,0,1,0,.59A.4.4,0,0,1,93.68,84.94Z"/><path class="cls-11" d="M81.92,58.81c3.25-.06,5-13.78,1.4-15.21S77.56,58.91,81.92,58.81Z"/><path class="cls-12" d="M117.34,90.57c0,4.28-2.55,7.75-5.69,7.75S106,94.85,106,90.57s2.55-7.74,5.69-7.74S117.34,86.3,117.34,90.57Z"/><path class="cls-12" d="M102.48,92.31c0,4.27-2.55,7.74-5.69,7.74s-5.69-3.47-5.69-7.74,2.54-7.75,5.69-7.75S102.48,88,102.48,92.31Z"/><path class="cls-12" d="M125.5,95.4c.18,11-6.61,19.46-18.91,20.38a23.53,23.53,0,0,1-11-1.86c16.59,1.92,28-3.13,26.81-18.88-.83-10.85-6.42-15.71-10.32-17.8C121,79.07,125.36,87.19,125.5,95.4Z"/><path class="cls-13" d="M114.79,82.6c4.33.12,7.83,4.47,7.8,9.45s-3.6,8.69-7.93,8.58-7.8-4.24-7.76-9.22S110.47,82.49,114.79,82.6Z"/><path class="cls-14" d="M116.26,95.5A4.62,4.62,0,0,1,111.65,91a4.44,4.44,0,0,1,4.48-4.51A4.62,4.62,0,0,1,120.74,91,4.44,4.44,0,0,1,116.26,95.5Z"/><path class="cls-3" d="M112.88,90.61a1.26,1.26,0,0,1-1.31-1,.94.94,0,0,1,.94-1.09,1.26,1.26,0,0,1,1.31,1A.94.94,0,0,1,112.88,90.61Z"/><path class="cls-13" d="M94.15,84.3c4.33.11,7.83,4.47,7.79,9.44s-3.6,8.7-7.92,8.58-7.81-4.24-7.77-9.22S89.82,84.18,94.15,84.3Z"/><path class="cls-14" d="M95.61,97.2A4.64,4.64,0,0,1,91,92.66a4.46,4.46,0,0,1,4.49-4.52,4.64,4.64,0,0,1,4.61,4.54A4.46,4.46,0,0,1,95.61,97.2Z"/><path class="cls-3" d="M92.23,92.3a1.24,1.24,0,0,1-1.3-1,.94.94,0,0,1,.94-1.1,1.26,1.26,0,0,1,1.3,1A.94.94,0,0,1,92.23,92.3Z"/><path class="cls-15" d="M127.67,118.63a12.25,12.25,0,0,0-4,1.29,4.16,4.16,0,0,0-2.19,3.43.73.73,0,0,0,.17.52.69.69,0,0,0,.35.15,6.4,6.4,0,0,0,7.07-3.37,8.24,8.24,0,0,0,.51-1.47c.31-1.2,1.19-6.2-.51-6.66S127.72,117.56,127.67,118.63Z"/><path class="cls-15" d="M102.21,128.43a12.66,12.66,0,0,1,3.42,1c1.14.49,2.07,1.35,2.05,2.31a.42.42,0,0,1-.16.35.86.86,0,0,1-.32.1c-2.58.45-5.5-.55-6.63-2.27a4.44,4.44,0,0,1-.48-1c-.29-.81-.72-3.53.18-4.64S100,124.3,102.21,128.43Z"/><path class="cls-15" d="M105,134.93a12,12,0,0,1,3.58,0,3,3,0,0,1,2.68,1.7.41.41,0,0,1,0,.4.65.65,0,0,1-.28.2c-2.31,1.22-5.41,1.11-7-.28a5.1,5.1,0,0,1-.77-.85c-.54-.72-1.8-3.32-1.3-4.7S101.54,131.45,105,134.93Z"/><path class="cls-15" d="M132,124.48a12.31,12.31,0,0,0-4,1.28,4.18,4.18,0,0,0-2.19,3.44.78.78,0,0,0,.17.52.85.85,0,0,0,.35.15,6.4,6.4,0,0,0,7.07-3.37,8.52,8.52,0,0,0,.51-1.47c.31-1.2,1.19-6.2-.5-6.66C131.5,117.87,132,123.41,132,124.48Z"/><path class="cls-15" d="M135.13,133.8c-1.19.43-6.52.56-4.07,6.6s5.56,9.6,6.12,6.26-5-6.61-2.05-7.67S136.65,133.27,135.13,133.8Z"/><path class="cls-15" d="M113.05,142.06s-2.88,7.73,5,8.39-1.12-2.49-1.63-3.07.48-2.84.48-2.84Z"/><path class="cls-14" d="M96.79,103.08c0-.17,7.74,3.71,12.86.49a.57.57,0,0,1,.82.74c-2.37,4.58-8,12.42-13.66-1.42"/><path class="cls-16" d="M99.75,104.65c0-.05,5,1.39,7.51.31.25-.11.09-.21,0,0-.76,1.69-4.67,4.36-7.51-.31"/><ellipse class="cls-3" cx="156.39" cy="55.63" rx="6.13" ry="5.13" transform="translate(22.95 154.36) rotate(-56.08)"/><ellipse class="cls-3" cx="61.41" cy="80.52" rx="5.13" ry="6.13" transform="matrix(0.5, -0.87, 0.87, 0.5, -39.03, 93.44)"/><ellipse class="cls-3" cx="96.79" cy="140.85" rx="4.86" ry="4.07" transform="translate(-72.68 162.96) rotate(-62.94)"/><ellipse class="cls-3" cx="147.42" cy="127.74" rx="4.07" ry="4.86" transform="translate(-45.41 157.19) rotate(-49.59)"/></g></g></svg>