<svg id="Layer_54" data-name="Layer 54" xmlns="http://www.w3.org/2000/svg" viewBox="0 0 256 256"><defs><style>.cls-1{opacity:0.5;}.cls-2{fill:#fff;}.cls-3{fill:#00f979;}.cls-3,.cls-9{stroke:#00bc55;}.cls-3,.cls-4,.cls-6,.cls-7,.cls-9{stroke-miterlimit:10;stroke-width:2px;}.cls-4{fill:#df7ecc;stroke:#b700a6;}.cls-5{fill:#f009bb;}.cls-6{fill:#ee09bb;stroke:#af0096;}.cls-7{fill:#af1599;stroke:#9e0097;}.cls-8{fill:#7c056d;}.cls-9{fill:#00fa7b;}.cls-10,.cls-12{fill:#232323;}.cls-10,.cls-11{opacity:0.21;}.cls-13{opacity:0.47;}.cls-14{fill:#f2f4f4;}.cls-15{fill:#bd049e;}.cls-16{fill:#097789;}</style></defs><path class="cls-1" d="M123.44,247.45l0-.48a111.78,111.78,0,0,1-12-1.61c-2.37-.43-4.69-1-6.84-1.47a11.65,11.65,0,0,1-2.81-1,151.05,151.05,0,0,1-24.67-16.7,117.07,117.07,0,0,1-14.78-14.5A77.92,77.92,0,0,1,50.42,193a57.39,57.39,0,0,1-4.35-14.85c-.06-.42-.11-.84-.16-1.26l-.49-.4V163.92l.65-.23c2-14.09,8.93-25.7,20.49-34.55a118.35,118.35,0,0,1,33.25-17.9c.37-3.09.65-6.34.86-9.86.14-2.37.19-4.84.24-7,.06-3.21,0-6.74-.22-10.8-.17-3.17-.46-6.4-.86-9.61-.33-2.62-.72-5.64-1.34-8.48-.28-1.32-.62-2.65-1-4-.31-1.24-.63-2.48-.91-3.73a79.39,79.39,0,0,0-4.71-14.1,81.24,81.24,0,0,0-5.44-10.37A7.67,7.67,0,0,1,83,27a7.77,7.77,0,0,1,4.32-7.35,33.93,33.93,0,0,1,5.1-2A73.73,73.73,0,0,1,103,15.29a132,132,0,0,1,18.21-1.62c3.69-.08,7-.12,10.1-.12,4,0,7.6.06,11.12.2a86,86,0,0,1,18.77,2.63,69.31,69.31,0,0,1,7.07,2.3,12,12,0,0,1,1.17.53,7.71,7.71,0,0,1,4.14,6.9,7.62,7.62,0,0,1-4.24,7,42,42,0,0,0-4.12,6,64.46,64.46,0,0,0-6.89,17.61,85.35,85.35,0,0,0-1.73,9.5,89.51,89.51,0,0,0-.48,13.65c.14,3,.38,5.82.73,8.52a113.27,113.27,0,0,0,3.29,16c.54,2,1.14,3.92,1.78,5.88a112.74,112.74,0,0,1,31.33,16.34c2.28,1.66,4.57,3.42,6.8,5.26a40.36,40.36,0,0,1,13.54,21.22,56.76,56.76,0,0,1,1.53,7.89l.46.07v13.31l-.49.05c-.14,1.14-.31,2.3-.53,3.5a66.26,66.26,0,0,1-5.66,17.1,91.78,91.78,0,0,1-13.73,20.35A144.22,144.22,0,0,1,175.6,233.8c-3.67,2.9-7.54,5.74-11.84,8.67a9.35,9.35,0,0,1-3.12,1.37c-3.55.84-7.39,1.69-11.38,2.27-2.38.35-4.56.61-6.6.78v.49l-6.06.07Z"/><path class="cls-2" d="M118.44,242.45l0-.48a111.78,111.78,0,0,1-12-1.61c-2.37-.43-4.69-1-6.84-1.47a11.65,11.65,0,0,1-2.81-1,151.05,151.05,0,0,1-24.67-16.7,117.07,117.07,0,0,1-14.78-14.5A77.92,77.92,0,0,1,45.42,188a57.39,57.39,0,0,1-4.35-14.85c-.06-.42-.11-.84-.16-1.26l-.49-.4V158.92l.65-.23c2-14.09,8.93-25.7,20.49-34.55a118.35,118.35,0,0,1,33.25-17.9c.37-3.09.65-6.34.86-9.86.14-2.37.19-4.84.24-7,.06-3.21,0-6.74-.22-10.8-.17-3.17-.46-6.4-.86-9.61-.33-2.62-.72-5.64-1.34-8.48-.28-1.32-.62-2.65-1-4.05-.31-1.24-.63-2.48-.91-3.73a79.39,79.39,0,0,0-4.71-14.1,81.24,81.24,0,0,0-5.44-10.37A7.67,7.67,0,0,1,78,22a7.77,7.77,0,0,1,4.32-7.35,33.93,33.93,0,0,1,5.1-2A73.73,73.73,0,0,1,98,10.29a132,132,0,0,1,18.21-1.62c3.69-.08,7-.12,10.1-.12,4,0,7.6.06,11.12.2a86,86,0,0,1,18.77,2.63,69.31,69.31,0,0,1,7.07,2.3,12,12,0,0,1,1.17.53,7.71,7.71,0,0,1,4.14,6.9,7.62,7.62,0,0,1-4.24,7,42,42,0,0,0-4.12,6,64.46,64.46,0,0,0-6.89,17.61,85.35,85.35,0,0,0-1.73,9.5,89.51,89.51,0,0,0-.48,13.65c.14,3,.38,5.82.73,8.52a113.27,113.27,0,0,0,3.29,16c.54,2,1.14,3.92,1.78,5.88a112.74,112.74,0,0,1,31.33,16.34c2.28,1.66,4.57,3.42,6.8,5.26a40.36,40.36,0,0,1,13.54,21.22,56.76,56.76,0,0,1,1.53,7.89l.46.07v13.31l-.49.05c-.14,1.14-.31,2.3-.53,3.5a66.26,66.26,0,0,1-5.66,17.1,91.78,91.78,0,0,1-13.73,20.35A144.22,144.22,0,0,1,170.6,228.8c-3.67,2.9-7.54,5.74-11.84,8.67a9.35,9.35,0,0,1-3.12,1.37c-3.55.84-7.39,1.69-11.38,2.27-2.38.35-4.56.61-6.6.78v.49l-6.06.07Z"/><path class="cls-3" d="M64.6,128.86c20-14.89,70.42-42.71,126,3a33.94,33.94,0,0,1,10.71,15.7C206.63,164,207.48,196.84,154,233l-3.12.72a107.33,107.33,0,0,1-48.69-.07L99.43,233S37.1,201.65,46.66,156.56A46.76,46.76,0,0,1,64.6,128.86Z"/><path class="cls-4" d="M184,127.38c3.65,3.12-28.15,11.69-56.62,11.69s-65.49-7.52-61.69-10.48a98.17,98.17,0,0,1,60.83-20.65C155,107.94,176,120.48,184,127.38Z"/><path class="cls-5" d="M179.2,124c3.7,2.17-24,8.69-52.95,8.69s-57.4-6.66-53.72-8.87c11-6.64,26-15.91,54.93-15.91S171,119.22,179.2,124Z"/><path class="cls-6" d="M84.9,23.14s36.44,12.66,74.34,0c0,0-28.5,30.52-7.62,88.2,0,0-25.2,20.61-52.25.47C99.37,111.81,108.93,60,84.9,23.14Z"/><path class="cls-7" d="M84.13,19.9c5.67-2.74,18.31-5.53,37.32-5.44,11.15,0,25.56-.64,39.16,4.82a1.56,1.56,0,0,1,0,2.9c-9.53,3.57-40.9,12.53-76.27.6A1.56,1.56,0,0,1,84.13,19.9Z"/><path class="cls-8" d="M103.49,20.65c6.22-1.93,20-4.77,38,.11,1.52.41,1.48,2-.06,2.39a84.5,84.5,0,0,1-37.81-.21C102.18,22.6,102.08,21.08,103.49,20.65Z"/><path class="cls-9" d="M95.54,46.2s15.37,11.67,51.63-.2L145,57.33S120.29,68.8,98.62,58.5Z"/><path class="cls-10" d="M85.49,21.68s11.92,4.89,20.71,4.69c0,0-21.49-8.1,9.86-10.06C116.06,16.31,93,14.07,85.49,21.68Z"/><g class="cls-11"><path class="cls-12" d="M79.79,136.23c8.74,1.52,17.53,2.54,26.33,3.22a243,243,0,0,0,26.43.61c4.4-.11,8.8-.42,13.17-.86s8.74-1.06,13.08-1.8,8.63-1.75,12.89-2.88,8.45-2.58,12.63-4.08a102.49,102.49,0,0,1-25.12,8.95,143.17,143.17,0,0,1-26.56,3.26,177.78,177.78,0,0,1-26.71-1.19A154.55,154.55,0,0,1,79.79,136.23Z"/></g><g class="cls-11"><path class="cls-12" d="M106.09,29.61c4.16.38,8.31.56,12.46.68s8.29.06,12.42-.17l3.09-.2,3.09-.3c1-.08,2-.22,3.07-.37s2.05-.26,3.07-.45l3.05-.56c1-.16,2-.46,3-.68,2-.38,4-1.12,6-1.64A54.1,54.1,0,0,1,143.53,30a77.1,77.1,0,0,1-12.47,1.7,96,96,0,0,1-12.58-.19A77.34,77.34,0,0,1,106.09,29.61Z"/></g><g class="cls-13"><path class="cls-14" d="M134.08,15.38c2.07.07,4.13.25,6.19.51s4.1.57,6.14,1a58.78,58.78,0,0,1,6.06,1.48c1,.32,2,.66,3,1.08a8.89,8.89,0,0,1,2.87,1.81L159,22l-.91.4a21.29,21.29,0,0,1-3.7,1.12q-1.84.42-3.69.69c-1.24.2-2.48.33-3.71.46s-2.49.2-3.73.25c2.43-.53,4.86-1,7.26-1.63,1.19-.29,2.38-.61,3.56-.95a26.4,26.4,0,0,0,3.36-1.21l-.2,1.12a8.3,8.3,0,0,0-2.42-1.34c-.92-.37-1.88-.68-2.85-1-1.94-.61-3.93-1.08-5.91-1.59C142.1,17.32,138.09,16.43,134.08,15.38Z"/></g><path class="cls-15" d="M99.45,111.34s22,17.71,52.25-.35a23.83,23.83,0,0,1,4.77,1.58s-34.4,22.61-60.21-.15Z"/><g class="cls-13"><path class="cls-14" d="M154.21,115.79a76.84,76.84,0,0,1,18.62,5.79,63.6,63.6,0,0,1,16.65,10.8,41.11,41.11,0,0,1,11.39,16.92,37.05,37.05,0,0,1,2,10.26,43.88,43.88,0,0,1-.81,10.32,59.77,59.77,0,0,1-2.94,9.76,73.81,73.81,0,0,1-4.41,9,107.43,107.43,0,0,1-11.54,16,164.31,164.31,0,0,1-28.92,26c8.82-9.46,17.57-18.86,25.16-29a126.52,126.52,0,0,0,10.19-15.85A64.34,64.34,0,0,0,196,168.69a35.71,35.71,0,0,0-.64-17.59,34.1,34.1,0,0,0-3.65-8.11,48.32,48.32,0,0,0-5.57-7.2,60.19,60.19,0,0,0-6.9-6.21,76.55,76.55,0,0,0-7.79-5.34A109.45,109.45,0,0,0,154.21,115.79Z"/></g><path class="cls-16" d="M98.92,58.85s.34,7,3.42,1.39Z"/><path class="cls-16" d="M105.59,61.39l-3.42-1.2s.34,7,3.42,1.39"/><path class="cls-16" d="M109.22,62.17l-3.63-.78s.34,7,3.42,1.39"/><path class="cls-16" d="M112.91,62.76l-3.74-.54s.79,6.15,3.42,1.39"/><path class="cls-16" d="M116.58,63.05l-3.67-.29s1.54,5.66,3.42,1.42"/><path class="cls-16" d="M116.58,63s2.33,6.7,3.62,0"/><path class="cls-16" d="M120.26,63s2.36,6.49,3.65-.22"/><path class="cls-16" d="M144.68,57.72s-.34,7-3.42,1.39Z"/><path class="cls-16" d="M137.87,60.2l3.47-1.1s-.34,7-3.42,1.39"/><path class="cls-16" d="M134.39,61.14l3.55-1s-.27,7.18-3.34,1.57"/><path class="cls-16" d="M130.84,61.88l3.67-.78s0,6.28-3.35,1.62"/><path class="cls-16" d="M127.17,62.46l3.67-.58s-.19,5.65-3.24,1.74"/><path class="cls-16" d="M127.28,62.44s-1.23,7.18-3.41.38"/><g class="cls-13"><path class="cls-14" d="M148.78,31.1a.46.46,0,0,1,.51.33,1.79,1.79,0,0,1,0,.65,10.24,10.24,0,0,1-.25,1.25c-.22.82-.48,1.61-.73,2.41-.51,1.59-1,3.16-1.49,4.75-1,3.16-1.75,6.36-2.41,9.58a102.58,102.58,0,0,0-2,19.53c0,3.28.08,6.56.33,9.84s.64,6.54,1.08,9.81c1,6.53,2.33,13,3.87,19.51a97.82,97.82,0,0,1-6.11-19.11,93.75,93.75,0,0,1-2.09-20.07,89.86,89.86,0,0,1,.69-10.1,77.53,77.53,0,0,1,2-9.93A73.53,73.53,0,0,1,145.51,40c.66-1.54,1.35-3.07,2.08-4.57.36-.75.73-1.5,1.06-2.25A8.55,8.55,0,0,0,149.1,32a1.46,1.46,0,0,0,.08-.58A.39.39,0,0,0,148.78,31.1Z"/></g><path class="cls-10" d="M88.06,25.18l18,5.34s12.3,44.66,3.07,93c0,0-42.72.84-45.3,41.56a59.37,59.37,0,0,0,17.53,45.72l24.23,24.12-6.37-1.39s-64.8-32-50.08-84.42c0,0,16.11-29.36,53.32-37C102.48,112.05,109.81,60.56,88.06,25.18Z"/></svg>