<svg id="Layer_54" data-name="Layer 54" xmlns="http://www.w3.org/2000/svg" xmlns:xlink="http://www.w3.org/1999/xlink" viewBox="0 0 256 256"><defs><style>.cls-1{opacity:0.5;}.cls-2{fill:#fff;}.cls-3{fill:#e8a962;}.cls-4{fill:url(#Mahogany);}.cls-5{opacity:0.4;}.cls-6{fill:#42210b;}.cls-7{fill:url(#Mahogany-2);}.cls-8{fill:url(#Mahogany-3);}.cls-9{fill:url(#Mahogany-4);}.cls-10{fill:url(#Mahogany-5);}.cls-11{fill:url(#Mahogany-6);}.cls-12{fill:url(#Mahogany-7);}.cls-13{fill:url(#Mahogany-8);}.cls-14{fill:url(#Mahogany-9);}.cls-15{fill:url(#Mahogany-10);}.cls-16{fill:url(#Mahogany-11);}.cls-17{fill:url(#Mahogany-12);}.cls-18,.cls-22{fill:#ffa962;}.cls-19{fill:url(#Mahogany-13);}.cls-20{fill:#754c24;}.cls-21{fill:url(#Mahogany-14);}.cls-22,.cls-25,.cls-26{stroke:#9b4d07;}.cls-22,.cls-25,.cls-26,.cls-27{stroke-miterlimit:10;}.cls-23{fill:url(#Mahogany-15);}.cls-24{fill:#603813;}.cls-25{fill:#eda954;}.cls-26,.cls-27{fill:#ed9d54;}.cls-27{stroke:#7c3e00;}.cls-28{opacity:0.47;}.cls-29{fill:url(#Steel);}.cls-30{opacity:0.67;}.cls-31{fill:url(#Pewter);}.cls-32{fill:url(#Steel-2);}.cls-33{fill:url(#Pewter-2);}.cls-34{fill:url(#Steel-3);}.cls-35{fill:url(#Pewter-3);}.cls-36{fill:url(#Steel-4);}.cls-37{fill:url(#Pewter-4);}.cls-38{fill:url(#Steel-5);}.cls-39{fill:url(#Pewter-5);}.cls-40{fill:url(#Steel-6);}.cls-41{fill:url(#Pewter-6);}.cls-42{fill:url(#Steel-7);}.cls-43{fill:url(#Pewter-7);}.cls-44{fill:url(#Steel-8);}.cls-45{fill:url(#Pewter-8);}.cls-46{fill:url(#Steel-9);}.cls-47{fill:url(#Pewter-9);}.cls-48{fill:url(#Steel-10);}.cls-49{fill:url(#Pewter-10);}.cls-50{fill:url(#Steel-11);}.cls-51{fill:url(#Pewter-11);}.cls-52{fill:url(#Steel-12);}.cls-53{fill:url(#Pewter-12);}.cls-54{fill:url(#Steel-13);}.cls-55{fill:url(#Pewter-13);}.cls-56{fill:url(#Steel-14);}.cls-57{fill:url(#Pewter-14);}.cls-58{fill:url(#Steel-15);}.cls-59{fill:url(#Pewter-15);}.cls-60{fill:url(#Steel-16);}.cls-61{fill:url(#Pewter-16);}.cls-62{fill:url(#Steel-17);}.cls-63{fill:url(#Pewter-17);}.cls-64{fill:url(#Steel-18);}.cls-65{fill:url(#Pewter-18);}.cls-66{fill:url(#Steel-19);}.cls-67{fill:url(#Pewter-19);}.cls-68{fill:url(#Steel-20);}.cls-69{fill:url(#Pewter-20);}.cls-70{fill:url(#Steel-21);}.cls-71{fill:url(#Pewter-21);}.cls-72{fill:url(#Steel-22);}.cls-73{fill:url(#Pewter-22);}.cls-74{fill:url(#Steel-23);}.cls-75{fill:url(#Pewter-23);}.cls-76{fill:url(#Steel-24);}.cls-77{fill:url(#Pewter-24);}.cls-78{fill:url(#Steel-25);}.cls-79{fill:url(#Pewter-25);}.cls-80{fill:url(#Steel-26);}.cls-81{fill:url(#Pewter-26);}.cls-82{fill:url(#Steel-27);}.cls-83{fill:url(#Pewter-27);}.cls-84{fill:url(#Steel-28);}.cls-85{fill:url(#Pewter-28);}.cls-86{fill:url(#Steel-29);}.cls-87{fill:url(#Pewter-29);}.cls-88{fill:url(#Steel-30);}.cls-89{fill:url(#Pewter-30);}.cls-90{fill:url(#Steel-31);}.cls-91{fill:url(#Pewter-31);}.cls-92{fill:url(#Steel-32);}.cls-93{fill:url(#Pewter-32);}.cls-94{opacity:0.3;}</style><linearGradient id="Mahogany" x1="38.5" y1="-1393.73" x2="89.37" y2="-1393.73" gradientTransform="translate(-1310.92 4.87) rotate(94.01)" gradientUnits="userSpaceOnUse"><stop offset="0" stop-color="#7d3c11"/><stop offset="0.25" stop-color="#bd7550"/><stop offset="0.45" stop-color="#8b4419"/><stop offset="0.63" stop-color="#66200a"/><stop offset="0.79" stop-color="#9e4e2d"/><stop offset="0.98" stop-color="#692f03"/></linearGradient><linearGradient id="Mahogany-2" x1="18.67" y1="-1391.95" x2="56.26" y2="-1391.95" xlink:href="#Mahogany"/><linearGradient id="Mahogany-3" x1="-12.33" y1="-1390.13" x2="23.61" y2="-1390.13" xlink:href="#Mahogany"/><linearGradient id="Mahogany-4" x1="-81.32" y1="-1386.42" x2="-22.67" y2="-1386.42" xlink:href="#Mahogany"/><linearGradient id="Mahogany-5" x1="58.55" y1="-1395.48" x2="121.27" y2="-1395.48" xlink:href="#Mahogany"/><linearGradient id="Mahogany-6" x1="-46.64" y1="-1388.32" x2="-1.36" y2="-1388.32" xlink:href="#Mahogany"/><linearGradient id="Mahogany-7" x1="127.8" y1="-72.11" x2="180.98" y2="-72.11" gradientTransform="matrix(0.07, 1, 1, -0.07, 236.84, 4.87)" xlink:href="#Mahogany"/><linearGradient id="Mahogany-8" x1="107.87" y1="-69.92" x2="147.13" y2="-69.92" gradientTransform="matrix(0.07, 1, 1, -0.07, 236.84, 4.87)" xlink:href="#Mahogany"/><linearGradient id="Mahogany-9" x1="78.49" y1="-67.73" x2="114.2" y2="-67.73" gradientTransform="matrix(0.07, 1, 1, -0.07, 236.84, 4.87)" xlink:href="#Mahogany"/><linearGradient id="Mahogany-10" x1="11.53" y1="-63.31" x2="67.42" y2="-63.31" gradientTransform="matrix(0.07, 1, 1, -0.07, 236.84, 4.87)" xlink:href="#Mahogany"/><linearGradient id="Mahogany-11" x1="148.12" y1="-74.3" x2="213.85" y2="-74.3" gradientTransform="matrix(0.07, 1, 1, -0.07, 236.84, 4.87)" xlink:href="#Mahogany"/><linearGradient id="Mahogany-12" x1="44.87" y1="-65.66" x2="87.91" y2="-65.66" gradientTransform="matrix(0.07, 1, 1, -0.07, 236.84, 4.87)" xlink:href="#Mahogany"/><linearGradient id="Mahogany-13" x1="124.1" y1="126.56" x2="147.81" y2="126.56" gradientTransform="matrix(1, 0, 0, 1, 0, 0)" xlink:href="#Mahogany"/><linearGradient id="Mahogany-14" x1="210.89" y1="114.29" x2="226.52" y2="114.29" gradientTransform="matrix(1, 0, 0, 1, 0, 0)" xlink:href="#Mahogany"/><linearGradient id="Mahogany-15" x1="203.08" y1="-1169" x2="229" y2="-1169" gradientTransform="matrix(0.91, 0, 0, -1, -82.05, -1044.4)" xlink:href="#Mahogany"/><linearGradient id="Steel" x1="-1368.74" y1="52.42" x2="-1366.95" y2="53.33" gradientTransform="matrix(-1, 0, 0, 1, -1332.28, 0)" gradientUnits="userSpaceOnUse"><stop offset="0" stop-color="#e5e2df"/><stop offset="0" stop-color="#ded9d6"/><stop offset="0.04" stop-color="#cfccc9"/><stop offset="0.11" stop-color="#a8a8a8"/><stop offset="0.21" stop-color="#6a7072"/><stop offset="0.26" stop-color="#465053"/><stop offset="0.37" stop-color="#878d8f"/><stop offset="0.46" stop-color="#b7babb"/><stop offset="0.53" stop-color="#d5d6d6"/><stop offset="0.57" stop-color="#e0e0e0"/><stop offset="0.63" stop-color="#d6d7d8"/><stop offset="0.73" stop-color="#bcbfc2"/><stop offset="0.86" stop-color="#92989e"/><stop offset="0.88" stop-color="#8b9298"/><stop offset="1" stop-color="#d1d3d4"/><stop offset="1" stop-color="#a7a9ac"/></linearGradient><linearGradient id="Pewter" x1="-141.51" y1="-262.02" x2="-140.63" y2="-262.02" gradientTransform="matrix(0, 1, 1, 0, 297.15, 194.14)" gradientUnits="userSpaceOnUse"><stop offset="0.03" stop-color="#9b9b98"/><stop offset="0.13" stop-color="#a4a5a7"/><stop offset="0.22" stop-color="#aeb0b7"/><stop offset="0.35" stop-color="#9fa3aa"/><stop offset="0.61" stop-color="#788187"/><stop offset="0.72" stop-color="#657076"/><stop offset="1" stop-color="#8b949a"/></linearGradient><linearGradient id="Steel-2" x1="-1368.75" y1="64.56" x2="-1366.96" y2="65.46" xlink:href="#Steel"/><linearGradient id="Pewter-2" x1="-129.37" y1="-262.01" x2="-128.5" y2="-262.01" xlink:href="#Pewter"/><linearGradient id="Steel-3" x1="-1359.52" y1="65.92" x2="-1357.73" y2="66.82" xlink:href="#Steel"/><linearGradient id="Pewter-3" x1="-128.01" y1="-271.25" x2="-127.14" y2="-271.25" xlink:href="#Pewter"/><linearGradient id="Steel-4" x1="-1359.5" y1="54.94" x2="-1357.72" y2="55.84" xlink:href="#Steel"/><linearGradient id="Pewter-4" x1="-138.99" y1="-271.26" x2="-138.12" y2="-271.26" xlink:href="#Pewter"/><linearGradient id="Steel-5" x1="-1456.41" y1="28.36" x2="-1453.18" y2="29.99" xlink:href="#Steel"/><linearGradient id="Pewter-5" x1="-165.4" y1="-175.43" x2="-163.82" y2="-175.43" xlink:href="#Pewter"/><linearGradient id="Steel-6" x1="-1456.43" y1="50.29" x2="-1453.2" y2="51.93" xlink:href="#Steel"/><linearGradient id="Pewter-6" x1="-143.47" y1="-175.41" x2="-141.89" y2="-175.41" xlink:href="#Pewter"/><linearGradient id="Steel-7" x1="-1439.75" y1="52.75" x2="-1436.52" y2="54.38" xlink:href="#Steel"/><linearGradient id="Pewter-7" x1="-141.01" y1="-192.09" x2="-139.43" y2="-192.09" xlink:href="#Pewter"/><linearGradient id="Steel-8" x1="-1439.73" y1="32.91" x2="-1436.5" y2="34.54" xlink:href="#Steel"/><linearGradient id="Pewter-8" x1="-160.85" y1="-192.11" x2="-159.27" y2="-192.11" xlink:href="#Pewter"/><linearGradient id="Steel-9" x1="171.2" y1="27.21" x2="174.43" y2="28.85" gradientTransform="translate(-44.08)" xlink:href="#Steel"/><linearGradient id="Pewter-9" x1="-166.55" y1="-1803.04" x2="-164.97" y2="-1803.04" gradientTransform="translate(-1673.51 194.14) rotate(90)" xlink:href="#Pewter"/><linearGradient id="Steel-10" x1="171.18" y1="49.14" x2="174.41" y2="50.78" gradientTransform="translate(-44.08)" xlink:href="#Steel"/><linearGradient id="Pewter-10" x1="-144.62" y1="-1803.02" x2="-143.03" y2="-1803.02" gradientTransform="translate(-1673.51 194.14) rotate(90)" xlink:href="#Pewter"/><linearGradient id="Steel-11" x1="187.87" y1="51.6" x2="191.09" y2="53.23" gradientTransform="translate(-44.08)" xlink:href="#Steel"/><linearGradient id="Pewter-11" x1="-142.16" y1="-1819.71" x2="-140.58" y2="-1819.71" gradientTransform="translate(-1673.51 194.14) rotate(90)" xlink:href="#Pewter"/><linearGradient id="Steel-12" x1="187.89" y1="31.76" x2="191.11" y2="33.39" gradientTransform="translate(-44.08)" xlink:href="#Steel"/><linearGradient id="Pewter-12" x1="-162" y1="-1819.73" x2="-160.42" y2="-1819.73" gradientTransform="translate(-1673.51 194.14) rotate(90)" xlink:href="#Pewter"/><linearGradient id="Steel-13" x1="-1456.17" y1="-1073.11" x2="-1452.94" y2="-1071.48" gradientTransform="translate(-1332.28 -867.45) rotate(180) scale(1 1.02)" xlink:href="#Steel"/><linearGradient id="Pewter-13" x1="-1266.87" y1="-175.67" x2="-1265.29" y2="-175.67" gradientTransform="translate(297.15 -1064.91) rotate(-90) scale(1.02 1)" xlink:href="#Pewter"/><linearGradient id="Steel-14" x1="-1456.04" y1="-1051.14" x2="-1452.82" y2="-1049.51" gradientTransform="translate(-1332.28 -867.45) rotate(180) scale(1 1.02)" xlink:href="#Steel"/><linearGradient id="Pewter-14" x1="-1244.9" y1="-175.79" x2="-1243.32" y2="-175.79" gradientTransform="translate(297.15 -1064.91) rotate(-90) scale(1.02 1)" xlink:href="#Pewter"/><linearGradient id="Steel-15" x1="-1440.32" y1="-1045.84" x2="-1437.1" y2="-1044.21" gradientTransform="translate(-1332.28 -867.45) rotate(180) scale(1 1.02)" xlink:href="#Steel"/><linearGradient id="Pewter-15" x1="-1239.6" y1="-191.52" x2="-1238.02" y2="-191.52" gradientTransform="translate(297.15 -1064.91) rotate(-90) scale(1.02 1)" xlink:href="#Pewter"/><linearGradient id="Steel-16" x1="-1440.56" y1="-1064.29" x2="-1437.33" y2="-1062.65" gradientTransform="translate(-1332.28 -867.45) rotate(180) scale(1 1.02)" xlink:href="#Steel"/><linearGradient id="Pewter-16" x1="-1258.05" y1="-191.28" x2="-1256.46" y2="-191.28" gradientTransform="translate(297.15 -1064.91) rotate(-90) scale(1.02 1)" xlink:href="#Pewter"/><linearGradient id="Steel-17" x1="169.44" y1="-1073.02" x2="172.66" y2="-1071.39" gradientTransform="matrix(1, 0, 0, -1.02, -44.08, -867.45)" xlink:href="#Steel"/><linearGradient id="Pewter-17" x1="-1266.78" y1="-1801.27" x2="-1265.2" y2="-1801.27" gradientTransform="matrix(0, -1.02, -1, 0, -1673.51, -1064.91)" xlink:href="#Pewter"/><linearGradient id="Steel-18" x1="168.99" y1="-1050.17" x2="172.21" y2="-1048.54" gradientTransform="matrix(1, 0, 0, -1.02, -44.08, -867.45)" xlink:href="#Steel"/><linearGradient id="Pewter-18" x1="-1243.93" y1="-1800.82" x2="-1242.35" y2="-1800.82" gradientTransform="matrix(0, -1.02, -1, 0, -1673.51, -1064.91)" xlink:href="#Pewter"/><linearGradient id="Steel-19" x1="187.03" y1="-1043.02" x2="190.26" y2="-1041.39" gradientTransform="matrix(1, 0, 0, -1.02, -44.08, -867.45)" xlink:href="#Steel"/><linearGradient id="Pewter-19" x1="-1236.78" y1="-1818.87" x2="-1235.2" y2="-1818.87" gradientTransform="matrix(0, -1.02, -1, 0, -1673.51, -1064.91)" xlink:href="#Pewter"/><linearGradient id="Steel-20" x1="187.36" y1="-1063.51" x2="190.58" y2="-1061.88" gradientTransform="matrix(1, 0, 0, -1.02, -44.08, -867.45)" xlink:href="#Steel"/><linearGradient id="Pewter-20" x1="-1257.27" y1="-1819.19" x2="-1255.68" y2="-1819.19" gradientTransform="matrix(0, -1.02, -1, 0, -1673.51, -1064.91)" xlink:href="#Pewter"/><linearGradient id="Steel-21" x1="256.39" y1="48.7" x2="258.6" y2="49.81" gradientTransform="translate(-44.08)" xlink:href="#Steel"/><linearGradient id="Pewter-21" x1="-145.19" y1="-1887.47" x2="-144.1" y2="-1887.47" gradientTransform="translate(-1673.51 194.14) rotate(90)" xlink:href="#Pewter"/><linearGradient id="Steel-22" x1="256.38" y1="63.69" x2="258.58" y2="64.8" gradientTransform="translate(-44.08)" xlink:href="#Steel"/><linearGradient id="Pewter-22" x1="-130.2" y1="-1887.45" x2="-129.11" y2="-1887.45" gradientTransform="translate(-1673.51 194.14) rotate(90)" xlink:href="#Pewter"/><linearGradient id="Steel-23" x1="267.78" y1="65.37" x2="269.99" y2="66.48" gradientTransform="translate(-44.08)" xlink:href="#Steel"/><linearGradient id="Pewter-23" x1="-128.52" y1="-1898.86" x2="-127.43" y2="-1898.86" gradientTransform="translate(-1673.51 194.14) rotate(90)" xlink:href="#Pewter"/><linearGradient id="Steel-24" x1="267.8" y1="51.81" x2="270" y2="52.92" gradientTransform="translate(-44.08)" xlink:href="#Steel"/><linearGradient id="Pewter-24" x1="-142.08" y1="-1898.87" x2="-141" y2="-1898.87" gradientTransform="translate(-1673.51 194.14) rotate(90)" xlink:href="#Pewter"/><linearGradient id="Steel-25" x1="62.73" y1="-1518.7" x2="64.93" y2="-1517.58" gradientTransform="matrix(0.97, -0.25, -0.2, -0.75, -146.82, -940.98)" xlink:href="#Steel"/><linearGradient id="Pewter-25" x1="-1712.69" y1="-1694.24" x2="-1711.61" y2="-1694.24" gradientTransform="matrix(-0.2, -0.75, -0.97, 0.25, -1761.88, -674.8)" xlink:href="#Pewter"/><linearGradient id="Steel-26" x1="65.07" y1="-1501.57" x2="67.28" y2="-1500.45" gradientTransform="matrix(0.97, -0.25, -0.2, -0.75, -146.82, -940.98)" xlink:href="#Steel"/><linearGradient id="Pewter-26" x1="-1695.57" y1="-1696.59" x2="-1694.48" y2="-1696.59" gradientTransform="matrix(-0.2, -0.75, -0.97, 0.25, -1761.88, -674.8)" xlink:href="#Pewter"/><linearGradient id="Steel-27" x1="79.43" y1="-1498.33" x2="81.63" y2="-1497.21" gradientTransform="matrix(0.97, -0.25, -0.2, -0.75, -146.82, -940.98)" xlink:href="#Steel"/><linearGradient id="Pewter-27" x1="-1692.33" y1="-1710.94" x2="-1691.24" y2="-1710.94" gradientTransform="matrix(-0.2, -0.75, -0.97, 0.25, -1761.88, -674.8)" xlink:href="#Pewter"/><linearGradient id="Steel-28" x1="75.96" y1="-1516.07" x2="78.17" y2="-1514.96" gradientTransform="matrix(0.97, -0.25, -0.2, -0.75, -146.82, -940.98)" xlink:href="#Steel"/><linearGradient id="Pewter-28" x1="-1710.07" y1="-1707.47" x2="-1708.99" y2="-1707.47" gradientTransform="matrix(-0.2, -0.75, -0.97, 0.25, -1761.88, -674.8)" xlink:href="#Pewter"/><linearGradient id="Steel-29" x1="-1313.68" y1="-1057.47" x2="-1311.48" y2="-1056.35" gradientTransform="matrix(-0.97, -0.25, 0.2, -0.75, -1024.48, -940.98)" xlink:href="#Steel"/><linearGradient id="Pewter-29" x1="-1251.46" y1="-317.83" x2="-1250.38" y2="-317.83" gradientTransform="matrix(0.2, -0.75, 0.97, 0.25, 590.57, -674.8)" xlink:href="#Pewter"/><linearGradient id="Steel-30" x1="-1311.34" y1="-1040.34" x2="-1309.14" y2="-1039.22" gradientTransform="matrix(-0.97, -0.25, 0.2, -0.75, -1024.48, -940.98)" xlink:href="#Steel"/><linearGradient id="Pewter-30" x1="-1234.34" y1="-320.17" x2="-1233.25" y2="-320.17" gradientTransform="matrix(0.2, -0.75, 0.97, 0.25, 590.57, -674.8)" xlink:href="#Pewter"/><linearGradient id="Steel-31" x1="-1296.99" y1="-1037.1" x2="-1294.78" y2="-1035.98" gradientTransform="matrix(-0.97, -0.25, 0.2, -0.75, -1024.48, -940.98)" xlink:href="#Steel"/><linearGradient id="Pewter-31" x1="-1231.1" y1="-334.53" x2="-1230.01" y2="-334.53" gradientTransform="matrix(0.2, -0.75, 0.97, 0.25, 590.57, -674.8)" xlink:href="#Pewter"/><linearGradient id="Steel-32" x1="-1300.45" y1="-1054.84" x2="-1298.25" y2="-1053.73" gradientTransform="matrix(-0.97, -0.25, 0.2, -0.75, -1024.48, -940.98)" xlink:href="#Steel"/><linearGradient id="Pewter-32" x1="-1248.84" y1="-331.06" x2="-1247.76" y2="-331.06" gradientTransform="matrix(0.2, -0.75, 0.97, 0.25, 590.57, -674.8)" xlink:href="#Pewter"/></defs><path class="cls-1" d="M129.21,238.14a6,6,0,0,1-2.68-.63L27.08,188a6,6,0,0,1-3.32-5.58l-.22-16.94a6.12,6.12,0,0,1,.34-2.05l-.76-84.1a5.93,5.93,0,0,1-.69-2.72L22.2,58.35a6,6,0,0,1,4.34-5.84,6.2,6.2,0,0,1,.89-.3l2.36-.62,3.77-1.06a6.86,6.86,0,0,1,.79-.32A6,6,0,0,1,35.61,50L38,49.28a6.3,6.3,0,0,1,1.2-.49,6.43,6.43,0,0,1,1.38-.24l88.91-25.13a5.92,5.92,0,0,1,3.16,0L234,50a6,6,0,0,1,4.47,5.87V56c0,.26-1,121.33-1,121.33l0,3.07a6,6,0,0,1-3.28,5.3L132,237.45A5.93,5.93,0,0,1,129.21,238.14Z"/><path class="cls-2" d="M124.21,233.14a6,6,0,0,1-2.68-.63L22.08,183a6,6,0,0,1-3.32-5.58l-.22-16.94a6.12,6.12,0,0,1,.34-2.05l-.76-84.1a5.93,5.93,0,0,1-.69-2.72L17.2,53.35a6,6,0,0,1,4.34-5.84,6.2,6.2,0,0,1,.89-.3l2.36-.62,3.77-1.06a6.86,6.86,0,0,1,.79-.32A6,6,0,0,1,30.61,45L33,44.28a6.3,6.3,0,0,1,1.2-.49,6.43,6.43,0,0,1,1.38-.24l88.91-25.13a5.92,5.92,0,0,1,3.16,0L229,45a6,6,0,0,1,4.47,5.87V51a5.08,5.08,0,0,1,0,.78l0,.8-.87,102.66a5.84,5.84,0,0,1,.21,1.72l-.36,15.37,0,3.07a6,6,0,0,1-3.28,5.3L127,232.45A5.93,5.93,0,0,1,124.21,233.14Z"/><polygon class="cls-3" points="124.51 194.12 25.56 157.61 25.41 137.91 124.82 161.06 124.51 194.12"/><path class="cls-4" d="M124.52,193,25.76,157l-.14-18.42,99.19,23.55,0-2.18L25.4,137.26l-.2,0,.16,21,99.14,37Z"/><g class="cls-5"><path class="cls-6" d="M112,184.08c-1-.4-2-.76-2.89-1.09l-2.65-.94c-5-3.79-10.61-3.19-15.35-4.84,4.74,2.27,9.72,2.11,15.14,4.85Z"/><path class="cls-6" d="M118.6,175c2,.56,4,1.05,6.08,1.55v.06C122.71,176.15,120.7,175.63,118.6,175Z"/><path class="cls-6" d="M124.77,166.42v.1c-2.39-.64-4.73-1.24-7-1.84C120.06,165.22,122.4,165.82,124.77,166.42Z"/><path class="cls-6" d="M73.57,171.8l8.93,3c-4.42-1.57-8.65-3.09-12.71-4.51-2.84-1-5.61-1.92-8.3-2.83Z"/><path class="cls-6" d="M26.5,143.91c4.76,1.37,5.85,1.7,7,2l2.17.59a16.51,16.51,0,0,0,3.86,1.6,12,12,0,0,1-3.37-1.48,18.62,18.62,0,0,0-2.36-.74Z"/><path class="cls-6" d="M83.94,168.56c3.2,3.1,7.77,3.38,11.34,3.28-4.15.52-8.14-1.37-11.77-3.71a6.94,6.94,0,0,0-1.87-.79l-5.37-1.63,5.62,1.83A6.64,6.64,0,0,1,83.94,168.56Z"/><path class="cls-6" d="M83.51,174.53c-2.69-.95-5.34-1.9-7.83-2.76-1.81-.62-3.47-1.15-5.15-1.7Z"/><path class="cls-6" d="M80.09,161.68l-12-3.53a12.57,12.57,0,0,1-1.84-.63l-2-.87a30.75,30.75,0,0,0,4,1.69c1.31.41,2.67.82,4.14,1.26C73.35,159.88,75.35,160.39,80.09,161.68Z"/><path class="cls-6" d="M73.46,152.81l6.21,1.48c-1.49-.4-3-.83-4.38-1.16-2.23-.55-4.3-1-6.37-1.54Z"/><path class="cls-6" d="M56.05,163.52a2.87,2.87,0,0,0,0,.86c.07.31.37.52.58.81a4.18,4.18,0,0,0,1,.46l.82.27c.16,0,0-.06-.07-.11l-1.27-.44c-.37-.2-.69-.44-1-.66a.49.49,0,0,1-.15-.53A5.22,5.22,0,0,0,56.05,163.52Z"/><path class="cls-6" d="M103.59,182a2.27,2.27,0,0,0,1.1.62c-1.94-2-3.87-2-5.76-2a4.13,4.13,0,0,1,3.06.66C102.52,181.44,103.06,181.69,103.59,182Z"/><path class="cls-6" d="M49.71,151.14c2.59-1.57,5.74,1.29,8,3.83a1.44,1.44,0,0,0,.8.6,1.19,1.19,0,0,1-.64-.45c-2-2.58-4.8-4.85-7.23-4.16A4.51,4.51,0,0,0,49.71,151.14Z"/><path class="cls-6" d="M53.94,162.3a1.19,1.19,0,0,0,.74-1A5.47,5.47,0,0,1,48.2,163a7,7,0,0,0,5.11-.29A6.3,6.3,0,0,0,53.94,162.3Z"/><path class="cls-6" d="M38.68,143.84l2.07.58c.37.1,1.51.37,1.5.36s-.29-.12-.47-.2Z"/><path class="cls-6" d="M28.87,155.92c.43.17.84.34,1.43.56l1.39.48c.11,0,0-.06-.05-.1Z"/></g><polygon class="cls-3" points="25.41 137.84 25.26 118 125.13 127.47 124.82 160.91 25.41 137.84"/><path class="cls-7" d="M124.83,159.81,25.6,137.24l-.14-18.57,99.66,9.92,0-2.2L25.05,117.33l.16,21.1.2,0L124.81,162Z"/><g class="cls-5"><path class="cls-6" d="M49.41,122.46c.4.08.79.15,1.17.2l1.11.15c2.22,2.07,4.9.09,7.36.35-2.46-.83-4.84.62-7.27-.41Z"/><path class="cls-6" d="M39.29,131.16c2.47.06,4.66-.49,7.68,0-3-.36-5.86-.09-8.58-.25l-.53,0c-.38-1-.86-1.1-1.34-1.68-2.56-.41-4.8,2.67-7.28-.43l-.4-.07-3.51-.62,3.58.69a1.63,1.63,0,0,1,.46.25c2.35,2.85,4.59-.23,7.16.68a1.44,1.44,0,0,1,1.22,1.23,1.55,1.55,0,0,0,.48.13c.35.05.7.08,1,.1Z"/><path class="cls-6" d="M36.81,137.09l10.52,2.06c-2.66-.58-5.3-1.19-7.74-1.69-4.37-.89-8.45-1.69-12.34-2.47Z"/><path class="cls-6" d="M69.94,123.56,64,123.07c2.82.32,5.74.66,8.76,1,2.24.23,4.56.41,6.93.62Z"/><path class="cls-6" d="M114.26,148.65a34.13,34.13,0,0,1-4-.91,16.06,16.06,0,0,0-5.23-1.87,22.73,22.73,0,0,1,6,2l3.69.71c1.75.34,3.48.71,10.13,2.06v0C120.25,149.77,116.91,149.16,114.26,148.65Z"/><path class="cls-6" d="M63.13,129.85c-1.87-2.33-4.38-1.49-6.22-.59,2.15-1.44,4.35-.56,6.49.92a2.32,2.32,0,0,0,1.14.37l3.51.43-3.66-.58A2.32,2.32,0,0,1,63.13,129.85Z"/><path class="cls-6" d="M63.38,123.66c1.66.2,3.39.42,5.07.59,1.28.13,2.48.2,3.74.3Z"/><path class="cls-6" d="M65.53,136.09c4.33.79,6.38,1.18,8.52,1.56a6.53,6.53,0,0,1,1.48.37l1.65.65a17.23,17.23,0,0,0-3.28-1.21c-1-.2-2.05-.41-3.14-.61C70.1,136.72,68.69,136.55,65.53,136.09Z"/><path class="cls-6" d="M29.9,135.08l-3.33-.63c.74.18,1.45.37,2.24.54,1.06.22,2.18.42,3.29.64Z"/><path class="cls-6" d="M28,131.15c.78.18,1.23.31,1.66.38l.38.07.38.07c1.11.16,2,1.8,3.13.53-.89.82-2,.12-2.85-.46a2.4,2.4,0,0,0-.49-.21Z"/><path class="cls-6" d="M70,144.52l-4.22-.8c1,.23,2,.49,2.93.68,1.57.33,3.09.62,4.67.93Z"/><path class="cls-6" d="M40.92,138.28l-1.54-.39c-.27-.06-1.08-.22-1.08-.21a2,2,0,0,0,.33.16Z"/><path class="cls-6" d="M39.84,133.39c-.55-.16-.9,0-1.59-.13,1,.41,2.45.23,3.52.42l-.81-.12Z"/><path class="cls-6" d="M84.89,127.89a4.15,4.15,0,0,0,0-1.1c-.07-.39-.37-.57-.57-.88a2.87,2.87,0,0,0-1-.24l-.79-.07c-.15,0,0,.08.06.13l1.25.12a8.09,8.09,0,0,1,1,.51c.17.09.19.33.15.65S84.9,127.62,84.89,127.89Z"/><path class="cls-6" d="M52.94,122.15c-.2-.22-.2-.22-.49-.25.88,1.22,1.75.75,2.64.27a1.06,1.06,0,0,1-1.43.22A5.07,5.07,0,0,1,52.94,122.15Z"/><path class="cls-6" d="M91.68,143.09c-2.92,2.58-6.24-.75-8.49-3.63-.38-.54-.58-.57-.77-.61.14,0,.32.06.62.44,2,3,4.88,5.54,7.57,4.21A5.51,5.51,0,0,0,91.68,143.09Z"/><path class="cls-6" d="M31.14,136.14a2.7,2.7,0,0,0-.48,0s.72.17.95.21l1.6.28Z"/><path class="cls-6" d="M87.07,128.83a2.32,2.32,0,0,0-.78,1.61c1.68-3.17,4.24-5,7.3-4.64a8,8,0,0,0-5.84,2.25C87.5,128.31,87.28,128.57,87.07,128.83Z"/><path class="cls-6" d="M106.25,152.54l-3.06-.75c-.52-.12-2.12-.43-2.11-.43a4,4,0,0,0,.65.27Z"/><path class="cls-6" d="M123.75,129.42c-.87-.13-1.67-.26-2.83-.4-.6-.08-2.57-.27-2.61-.26-.22,0,0,.09.08.15Z"/><path class="cls-6" d="M26.62,131.26l-.81-.07,2,.38.77.09Z"/><path class="cls-6" d="M30.57,131.54a2.14,2.14,0,0,0-.51-.25l-3.6-.68,0,.08,3.59.61a2.19,2.19,0,0,1,.52.25Z"/><path class="cls-6" d="M26.44,129H26s.67.14.89.17l1.5.2Z"/></g><polygon class="cls-3" points="125.13 128.22 25.25 116.64 25.09 96.66 125.44 94.4 125.13 128.22"/><path class="cls-8" d="M125.14,127.1,25.44,116,25.3,97.34l100.13-1.81,0-2.22L25.09,96h-.2l.16,21.25,100.07,12Z"/><g class="cls-5"><path class="cls-6" d="M112.45,121.21c-1-.14-2-.25-2.93-.36l-2.68-.27c-5-2.57-10.73-.5-15.53-1,4.8,1.08,9.83-.38,15.32,1Z"/><path class="cls-6" d="M119.13,110.25c2,0,4.1,0,6.16,0v.07C123.3,110.35,121.27,110.33,119.13,110.25Z"/><path class="cls-6" d="M125.39,99.88v.1c-2.42,0-4.79,0-7.09-.06C120.62,99.89,123,99.88,125.39,99.88Z"/><path class="cls-6" d="M48.76,113.89a6.1,6.1,0,0,1-6.6-4.38l-.71-.06-.71-.08c-2.33-.26-4.6-.71-6.76-1.16L31.19,108c-.2,0-.87,0-1.32,0l3,.18a19.74,19.74,0,0,1,3.32.44,24.94,24.94,0,0,0,5.39.89,1.09,1.09,0,0,1,.79.41c2,3.09,6.4,5.91,8.78,1.67Z"/><path class="cls-6" d="M73.6,118.65l9,.77c-4.46-.46-8.73-.91-12.83-1.3-2.86-.28-5.66-.5-8.36-.74Z"/><path class="cls-6" d="M26.2,102.48c4.78.16,5.87.21,7,.23l2.18,0a13.42,13.42,0,0,0,3.89.63,9.58,9.58,0,0,1-3.4-.64,17.34,17.34,0,0,0-2.37-.14Z"/><path class="cls-6" d="M84.07,112.67c3.23,2.33,7.85,1.43,11.46.4-4.2,1.61-8.23.72-11.9-.73a5.66,5.66,0,0,0-1.88-.31l-5.43-.27,5.68.41A5.06,5.06,0,0,1,84.07,112.67Z"/><path class="cls-6" d="M83.63,118.86c-2.71-.27-5.39-.55-7.9-.78-1.83-.17-3.5-.27-5.2-.4Z"/><path class="cls-6" d="M80.18,106.66c-6.47-.26-9.28-.39-12.08-.49a11.31,11.31,0,0,1-1.86-.16l-2-.38a25.2,25.2,0,0,0,4,.69l4.18.21C73.38,106.57,75.39,106.58,80.18,106.66Z"/><path class="cls-6" d="M73.49,99.35l6.27-.1c-1.5,0-3.07-.06-4.42,0-2.26,0-4.34.06-6.43.09Z"/><path class="cls-6" d="M55.93,114.77a2.77,2.77,0,0,0,0,.85c.07.3.38.44.58.69a3.79,3.79,0,0,0,1,.2l.82.06c.16,0,0-.06-.07-.1l-1.28-.11a8.84,8.84,0,0,1-1-.41c-.17-.07-.2-.25-.16-.5A4.18,4.18,0,0,0,55.93,114.77Z"/><path class="cls-6" d="M103.93,121.23a1.8,1.8,0,0,0,1.12.35c-2-1.5-3.91-1-5.83-.57a3.86,3.86,0,0,1,3.1-.11C102.86,121,103.4,121.1,103.93,121.23Z"/><path class="cls-6" d="M49.55,103.81c2.6-2.27,5.78-.18,8.06,1.83a1.05,1.05,0,0,0,.8.4.92.92,0,0,1-.65-.29c-2-2.11-4.83-3.69-7.28-2.36A5.61,5.61,0,0,0,49.55,103.81Z"/><path class="cls-6" d="M53.81,114.07a1.67,1.67,0,0,0,.74-1.23A6.88,6.88,0,0,1,48,116.28a7.87,7.87,0,0,0,5.14-1.61C53.4,114.47,53.61,114.27,53.81,114.07Z"/><path class="cls-6" d="M38.44,99.25l2.09,0c.37,0,1.51,0,1.5,0a4.18,4.18,0,0,0-.47-.08Z"/><path class="cls-6" d="M28.58,114.07c.43.06.84.13,1.44.2.31,0,1.36.13,1.39.12s0,0-.05-.08Z"/></g><polygon class="cls-3" points="125.76 59.92 24.93 74.55 24.77 54.29 126.09 25.31 125.76 59.92"/><path class="cls-9" d="M125.77,58.78,25.12,73.86,25,54.92,126.07,26.47l0-2.28L24.77,53.63l-.21,0V75.86L125.75,61Z"/><g class="cls-5"><path class="cls-6" d="M42.33,56.27l1.43-.6c.15-.05.26,0,.29.08-.26.87.81.61.82,1.1a12.06,12.06,0,0,1,10.25-5l.8-.21c3-.76,6.21-1.42,9.57-1.93l5.05-1.29,5.35-1.37-8.84,2.15c-1.4.34-2.77.68-4.39.92a44.25,44.25,0,0,0-6.43,1.23l-.89.24c-4.13-1.4-7.54,4.53-11.24,3.71l-.54.18L42,56a18.41,18.41,0,0,1-5.37,1,18.47,18.47,0,0,0-3,.6l-6.07,1.54,5.86-1.39a18.27,18.27,0,0,1,3-.55,25.36,25.36,0,0,0,2.8-.26A28.46,28.46,0,0,0,42.33,56.27Z"/><path class="cls-6" d="M112.91,56.14c-1,.13-2,.26-3,.4l-2.71.44c-5.11-1.28-10.86,2.33-15.71,3.15,4.85-.17,9.94-3,15.5-3Z"/><path class="cls-6" d="M119.69,43.17c2.07-.49,4.15-1.06,6.24-1.63v.07C123.92,42.16,121.85,42.69,119.69,43.17Z"/><path class="cls-6" d="M44,60.82a5,5,0,0,0,1.21-.1c.72-2.63,1.44-4.79,2.93-6.15,2.66-2.19,5.81-3,8.06-1.69a1.67,1.67,0,0,0,.56,0,69.1,69.1,0,0,1,8.84-1.48c2-.28,3.64-.67,5.23-1.05l14.76-3.5a5.92,5.92,0,0,1,1.73-.19,7.34,7.34,0,0,0-2.11.26c-6,1.4-11.74,2.69-17.13,4a35.82,35.82,0,0,1-4.7.75,41.16,41.16,0,0,0-6.19,1.09c-.25.06-.52.11-.8.15-4.43-2.37-9.74,2-11.54,7.88,0-1,1.45-1.3,1.08-2.7-.36,1.07-.35,2.55-1.46,2.82A.85.85,0,0,1,44,60.82Z"/><path class="cls-6" d="M126,30.92V31c-2.45.62-4.86,1.25-7.18,1.83C121.19,32.2,123.6,31.56,126,30.92Z"/><path class="cls-6" d="M39.88,60.15c.56-.11,1.1-.25,1.63-.39.27-.08.54-.16.73.08.52,2.38,3.38,5.25,4.1,2.63.72-4.13,1.82-8.91,5.27-9.26-3.82.95-4.17,6-5.63,9.33-1.08,2.19-2.88-1.37-3.92-3l-.79.22a17.86,17.86,0,0,1-7.46.71l-3.21.75a24.48,24.48,0,0,1,3.71-.61c1.19,0,2.31-.07,3.28-.15S39.37,60.24,39.88,60.15Z"/><path class="cls-6" d="M48.58,65.55c-2.59,1-5.46.48-6.64-2.71l-.72.12-.72.11c-2.34.35-4.62.49-6.8.61l-2.8.55c-.21,0-.88.23-1.33.35l3-.61a19.26,19.26,0,0,1,3.34-.42A25.1,25.1,0,0,0,41.35,63a.85.85,0,0,1,.8.21c2,2.61,6.44,4.32,8.84-.63Z"/><path class="cls-6" d="M73.63,63.83l9.1-1.61c-4.51.72-8.81,1.39-13,2.07-2.89.48-5.71,1-8.44,1.46Z"/><path class="cls-6" d="M25.88,59.91c4.81-1.1,5.91-1.34,7.05-1.62l2.2-.54A13,13,0,0,0,39,57.36a9.3,9.3,0,0,1-3.42.26,16.72,16.72,0,0,0-2.39.48Z"/><path class="cls-6" d="M43.17,65.77a6,6,0,0,0,6.93.52c2.72-2,2.32-6.06,2.7-8.2.79-3.29,4.47-.44,5.13,2.74.11.7.4.73.7.72s.6,0,.9-.09c.61-.08,1.23-.14,1.84-.2-.61,0-1.23,0-1.84.05-.3,0-.6,0-.9,0a.64.64,0,0,1-.42-.12,5,5,0,0,0-3.41-4.63c-.8-.34-2.39.53-2,1.48a9.59,9.59,0,0,1-1.93,7.56,5.9,5.9,0,0,1-7.26.44Z"/><path class="cls-6" d="M84.21,55c3.26,1.53,7.93-.62,11.58-2.62a16.84,16.84,0,0,1-12,2.41,5.32,5.32,0,0,0-1.9.18l-5.48,1.17L82.11,55A4.79,4.79,0,0,1,84.21,55Z"/><path class="cls-6" d="M83.76,61.38c-2.73.45-5.44.87-8,1.3-1.85.31-3.53.65-5.24,1Z"/><path class="cls-6" d="M80.28,49.86c-6.53,1.45-9.38,2.07-12.2,2.71a10.88,10.88,0,0,1-1.87.33l-2,.14a24.64,24.64,0,0,0,4.07-.37l4.21-.89C73.41,51.58,75.44,51.06,80.28,49.86Z"/><path class="cls-6" d="M73.52,44.2l6.33-1.78c-1.52.38-3.1.76-4.46,1.13-2.28.62-4.39,1.21-6.49,1.8Z"/><path class="cls-6" d="M55.81,64.55a2.74,2.74,0,0,0,0,.85c.07.29.38.35.59.55a3.81,3.81,0,0,0,1-.07l.83-.15c.16-.06,0-.06-.07-.09l-1.3.23a8,8,0,0,1-1-.15c-.17,0-.2-.2-.16-.46A6.57,6.57,0,0,0,55.81,64.55Z"/><path class="cls-6" d="M104.29,58.42a1.59,1.59,0,0,0,1.14,0c-2-1-4,0-5.91,1a4.36,4.36,0,0,1,3.13-.94C103.2,58.45,103.75,58.42,104.29,58.42Z"/><path class="cls-6" d="M49.38,55.08c2.62-3,5.82-1.71,8.12-.27a.82.82,0,0,0,.81.19.75.75,0,0,1-.66-.11c-2-1.62-4.86-2.49-7.33-.48A8,8,0,0,0,49.38,55.08Z"/><path class="cls-6" d="M53.67,64.4A2.33,2.33,0,0,0,54.42,63c-1.59,2.87-3.93,4.8-6.58,5.23a10.52,10.52,0,0,0,5.19-3C53.26,64.91,53.47,64.65,53.67,64.4Z"/><path class="cls-6" d="M38.19,53.39c.67-.16,1.31-.3,2.1-.5.38-.09,1.53-.42,1.52-.42a2.58,2.58,0,0,0-.47,0Z"/><path class="cls-6" d="M28.27,71.06c.44,0,.85-.09,1.45-.18.32,0,1.37-.23,1.4-.24s0,0-.05-.07Z"/></g><polygon class="cls-3" points="124.22 226.09 25.71 177.61 25.56 158.04 124.52 193.39 124.22 226.09"/><path class="cls-10" d="M124.22,225,25.91,177.07l-.14-18.29,98.74,35.71,0-2.16-99-34.93-.2-.07-.6,20.29,99.44,49.52Z"/><g class="cls-5"><path class="cls-6" d="M42.87,170.94l1.41.32a.37.37,0,0,1,.28.26c-.26.67.8,1.09.8,1.56,2.87-1.72,6.62-.76,10.07,1.65l.79.3c3,1.15,6.09,2.51,9.37,4.11l5,1.91,5.22,2-8.64-3.44c-1.37-.55-2.71-1.08-4.3-1.86a54.56,54.56,0,0,0-6.3-2.83l-.87-.32c-4.06-3.92-7.41-.37-11-3.46l-.53-.17q-.8-.24-1.59-.51a23.32,23.32,0,0,1-5.28-2.41,22,22,0,0,0-3-1.3l-6-2.32L34,166.78a21.78,21.78,0,0,1,3,1.36c.89.52,1.8,1,2.76,1.5S41.77,170.54,42.87,170.94Z"/><path class="cls-6" d="M111.78,214.59c-1-.51-2-1-2.87-1.43l-2.63-1.26c-5-4.37-10.55-4.47-15.27-6.69,4.72,2.83,9.66,3.28,15.06,6.67Z"/><path class="cls-6" d="M118.34,206.43c2,.8,4,1.54,6,2.29v.06C122.43,208.07,120.43,207.3,118.34,206.43Z"/><path class="cls-6" d="M44.54,176.37a7.13,7.13,0,0,0,1.19.65c.71-2.07,1.42-3.69,2.88-4.07a8.82,8.82,0,0,1,7.91,3.41,2.6,2.6,0,0,0,.55.4,89.79,89.79,0,0,1,8.66,4.1c1.91.95,3.56,1.61,5.11,2.24l14.42,5.82a8.82,8.82,0,0,1,1.68.89,10.72,10.72,0,0,0-2.06-1.05c-5.9-2.42-11.45-4.72-16.73-6.87a45.89,45.89,0,0,1-4.59-2.21,52,52,0,0,0-6.07-2.81c-.25-.1-.51-.22-.79-.36-4.34-5-9.55-4.14-11.32.36,0-.94,1.42-.34,1.06-1.92-.36.8-.35,2.23-1.43,1.8A1.81,1.81,0,0,1,44.54,176.37Z"/><path class="cls-6" d="M124.47,198.69v.1c-2.37-.93-4.7-1.81-7-2.69C119.79,196.92,122.12,197.8,124.47,198.69Z"/><path class="cls-6" d="M40.46,173.13c.54.24,1.08.45,1.6.64a1.13,1.13,0,0,1,.72.54c.5,2.6,3.33,7.14,4,5.08.71-3.51,1.79-7.4,5.18-5.59-3.75-1.47-4.1,3.19-5.54,5.43-1.06,1.42-2.82-3.11-3.85-5.35l-.78-.29a25.88,25.88,0,0,1-7.34-4l-3.17-1.29A28.52,28.52,0,0,1,35,170.07c1.18.69,2.28,1.37,3.23,1.9S40,172.89,40.46,173.13Z"/><path class="cls-6" d="M49,183.74A9.85,9.85,0,0,1,42.48,177l-.71-.33-.7-.34c-2.3-1.13-4.55-2.41-6.7-3.67l-2.76-1.22c-.2-.09-.86-.33-1.31-.49l3,1.3a25.18,25.18,0,0,1,3.3,1.68,35.87,35.87,0,0,0,5.33,2.88,1.8,1.8,0,0,1,.79.7c2,3.78,6.33,8.16,8.69,4.92Z"/><path class="cls-6" d="M73.56,197.66l8.88,4.1c-4.4-2.1-8.61-4.13-12.65-6-2.83-1.34-5.59-2.59-8.26-3.83Z"/><path class="cls-6" d="M26.66,164.13c4.74,2,5.82,2.42,7,2.87l2.17.86a19,19,0,0,0,3.85,2.07A14.09,14.09,0,0,1,36.26,168a20.35,20.35,0,0,0-2.35-1Z"/><path class="cls-6" d="M43.69,180.57c1.71,2.45,4.23,4.58,6.82,4.82,2.67-.23,2.27-4.36,2.65-6.17.77-2.66,4.38,2.36,5,5.82a1.3,1.3,0,0,0,.68,1.12c.29.18.59.33.89.48.59.3,1.2.62,1.8,1-.6-.39-1.21-.76-1.8-1.1-.3-.16-.6-.32-.89-.51a1.44,1.44,0,0,1-.41-.38c-.1-2.65-1.73-4.87-3.34-6.55-.79-.83-2.35-1-2,.17.4,3.14-.37,5.27-1.9,6-2.24.4-5.14-1.44-7.13-4.1C44,181,43.84,180.77,43.69,180.57Z"/><path class="cls-6" d="M83.88,195.74c3.18,3.47,7.73,4.31,11.28,4.66-4.13,0-8.1-2.37-11.72-5.14a7.89,7.89,0,0,0-1.85-1L76.24,192l5.59,2.51A7.2,7.2,0,0,1,83.88,195.74Z"/><path class="cls-6" d="M83.45,201.6c-2.67-1.27-5.32-2.55-7.79-3.7-1.81-.85-3.46-1.57-5.13-2.33Z"/><path class="cls-6" d="M80,188.44l-11.91-5a14.62,14.62,0,0,1-1.84-.85l-2-1.11a36.2,36.2,0,0,0,4,2.18l4.12,1.76C73.34,185.82,75.32,186.58,80,188.44Z"/><path class="cls-6" d="M73.44,178.83l6.19,2.24c-1.48-.58-3-1.2-4.36-1.7-2.22-.83-4.28-1.56-6.34-2.32Z"/><path class="cls-6" d="M56.1,187.28a2.85,2.85,0,0,0,0,.85c.07.31.37.56.57.88a4.92,4.92,0,0,0,1,.58l.81.37c.16,0,0-.06-.07-.12l-1.27-.59c-.37-.25-.69-.53-1-.78a.53.53,0,0,1-.15-.55A3.59,3.59,0,0,0,56.1,187.28Z"/><path class="cls-6" d="M103.42,211.46a2.81,2.81,0,0,0,1.1.74,8.08,8.08,0,0,0-5.73-2.71,4.42,4.42,0,0,1,3,1Q102.63,211,103.42,211.46Z"/><path class="cls-6" d="M49.79,174.2c2.58-1.23,5.72,2,8,4.8a1.64,1.64,0,0,0,.8.7,1.43,1.43,0,0,1-.64-.52c-2-2.82-4.78-5.42-7.2-5A5.52,5.52,0,0,0,49.79,174.2Z"/><path class="cls-6" d="M54,185.8a1,1,0,0,0,.73-.92c-1.56,1.76-3.85,2.15-6.45.92a7,7,0,0,0,5.09.35A5.41,5.41,0,0,0,54,185.8Z"/><path class="cls-6" d="M38.79,165.59c.66.27,1.29.53,2.07.83.37.15,1.5.56,1.5.55s-.29-.16-.47-.26Z"/><path class="cls-6" d="M29,176.34c.43.23.83.45,1.42.74l1.38.65c.12,0,0-.06,0-.1Z"/></g><polygon class="cls-3" points="25.09 96.59 24.94 76.48 125.76 60.04 125.44 94.25 25.09 96.59"/><path class="cls-11" d="M125.45,93.12,25.29,95.93l-.14-18.82,100.6-15.92,0-2.26-101,16.92.17,21.4h.2l100.33-1.86Z"/><g class="cls-5"><path class="cls-6" d="M39.05,86.2c2.49-.59,4.69-1.71,7.73-2-3.06.43-5.9,1.43-8.63,2l-.53.11c-.39-.94-.87-.9-1.35-1.37-2.58.25-4.83,4-7.33,1.46l-.4,0L25,86.69l3.59-.22a1.24,1.24,0,0,1,.46.13c2.37,2.29,4.62-1.43,7.2-1.16a1.06,1.06,0,0,1,1.23.93,1.6,1.6,0,0,0,.49,0l1-.17Z"/><path class="cls-6" d="M36.56,92.87l10.59-.63c-2.69.1-5.34.16-7.79.29-4.4.22-8.5.47-12.41.69Z"/><path class="cls-6" d="M69.93,70.49l-6,1.05c2.85-.42,5.79-.83,8.84-1.3,2.27-.35,4.61-.77,7-1.18Z"/><path class="cls-6" d="M114.75,84.49a32.42,32.42,0,0,1-4,.11,13.9,13.9,0,0,0-5.3-.55,20,20,0,0,1,6.11.46l3.73-.24c1.79-.11,3.54-.18,10.27-.53v0C120.81,84.07,117.42,84.32,114.75,84.49Z"/><path class="cls-6" d="M63.07,78.66c-1.89-1.88-4.42-.37-6.27,1,2.16-2,4.38-1.71,6.54-.75a2.06,2.06,0,0,0,1.15.07L68,78.54l-3.69.36A1.84,1.84,0,0,1,63.07,78.66Z"/><path class="cls-6" d="M63.32,72.3c1.68-.23,3.41-.46,5.11-.72,1.29-.2,2.5-.45,3.77-.67Z"/><path class="cls-6" d="M65.49,84.39c4.37-.32,6.44-.46,8.6-.63a6.15,6.15,0,0,1,1.49,0l1.66.24a14.08,14.08,0,0,0-3.31-.38l-3.17.19C70.1,83.84,68.68,84,65.49,84.39Z"/><path class="cls-6" d="M29.61,92.62l-3.35.23c.74,0,1.46,0,2.25,0,1.06,0,2.19-.13,3.31-.2Z"/><path class="cls-6" d="M27.67,89.13c.78,0,1.24,0,1.67,0l.38,0,.38,0c1.12-.13,2,1.31,3.15-.28-.9,1.07-2,.65-2.86.28a1.66,1.66,0,0,0-.5-.08Z"/><path class="cls-6" d="M70,91.8l-4.25.28c1,0,2,0,2.94-.06,1.6-.08,3.13-.18,4.72-.28Z"/><path class="cls-6" d="M40.7,93H39.14l-1.08.06a1,1,0,0,0,.33.08Z"/><path class="cls-6" d="M39.61,88.33c-.56,0-.91.23-1.6.28,1.05.14,2.46-.41,3.54-.49l-.81.08Z"/><path class="cls-6" d="M85,71A4.79,4.79,0,0,0,85,69.88c-.07-.37-.37-.48-.58-.74a2.51,2.51,0,0,0-1,0l-.8.13c-.16.07,0,.08.06.12l1.26-.21a7.75,7.75,0,0,1,1,.26c.17.05.2.28.16.62A7.72,7.72,0,0,0,85,71Z"/><path class="cls-6" d="M52.8,73.49c-.2-.18-.2-.18-.5-.13.89,1,1.77.3,2.66-.41-.59.67-.89.71-1.43.59A4.4,4.4,0,0,1,52.8,73.49Z"/><path class="cls-6" d="M91.9,84.71c-3,3.39-6.32.87-8.59-1.49-.38-.45-.58-.43-.77-.41.14,0,.32,0,.62.28,2,2.51,4.93,4.37,7.65,2.31A7.39,7.39,0,0,0,91.9,84.71Z"/><path class="cls-6" d="M30.86,93.38a4,4,0,0,0-.48.11l.95,0c.58,0,1.07-.09,1.61-.14Z"/><path class="cls-6" d="M87.23,71.38a3.15,3.15,0,0,0-.78,1.85c1.69-3.67,4.28-6.15,7.38-6.64-2.22.35-4.4,2.08-5.91,3.82C87.67,70.74,87.45,71.06,87.23,71.38Z"/><path class="cls-6" d="M106.63,90.55l-3.09,0-2.14.11a3.19,3.19,0,0,0,.66.11Z"/><path class="cls-6" d="M124.36,62.39c-.88.09-1.7.17-2.87.33-.6.08-2.6.4-2.65.42-.22.08,0,.09.09.13Z"/><path class="cls-6" d="M26.31,89.59l-.81.14,2-.13c.26,0,.51-.06.77-.09Z"/><path class="cls-6" d="M30.28,88.85a1.61,1.61,0,0,0-.51-.12L26.15,89l0,.09,3.61-.32a1.94,1.94,0,0,1,.52.11Z"/><path class="cls-6" d="M26.13,87.29c-.19,0-.39.09-.45.12s.67,0,.89-.06l1.51-.19Z"/></g><polygon class="cls-3" points="124.69 193.06 226.38 154.35 226.55 134.38 125.11 159.22 124.69 193.06"/><path class="cls-12" d="M124.68,194.15l101.9-39.22.18-21.25-.2,0-101.44,24.4,0,2.22L226.34,135.1l-.16,18.67L124.71,191.93Z"/><g class="cls-5"><path class="cls-6" d="M137.71,182.56c1-.42,2-.8,3-1.15l2.73-1c5.17-3.95,10.9-3.41,15.78-5.16-4.89,2.39-10,2.28-15.57,5.17Z"/><path class="cls-6" d="M131.15,173.36c-2.07.59-4.14,1.13-6.24,1.66v.07C126.93,174.58,129,174,131.15,173.36Z"/><path class="cls-6" d="M125,164.67v.1c2.45-.68,4.84-1.32,7.16-2C129.87,163.39,127.47,164,125,164.67Z"/><path class="cls-6" d="M177.19,169.48,168,172.69c4.54-1.67,8.88-3.28,13.05-4.79,2.91-1.05,5.76-2,8.51-3Z"/><path class="cls-6" d="M225.43,140.46c-4.86,1.46-6,1.8-7.12,2.13l-2.21.63a17.33,17.33,0,0,1-3.95,1.68,12.58,12.58,0,0,0,3.45-1.55,18.57,18.57,0,0,1,2.41-.78Z"/><path class="cls-6" d="M166.64,166.31c-3.31,3.21-8,3.55-11.63,3.5,4.24.47,8.34-1.51,12.08-3.95A7,7,0,0,1,169,165l5.51-1.74-5.76,1.94A6.68,6.68,0,0,0,166.64,166.31Z"/><path class="cls-6" d="M167,172.41c2.76-1,5.49-2,8-2.93,1.86-.67,3.56-1.22,5.28-1.81Z"/><path class="cls-6" d="M170.66,159.24c6.56-2,9.41-2.9,12.25-3.75a13.88,13.88,0,0,0,1.88-.67l2-.91a32.64,32.64,0,0,1-4.09,1.77L178.48,157C177.55,157.31,175.51,157.87,170.66,159.24Z"/><path class="cls-6" d="M177.52,150.14l-6.34,1.59c1.52-.43,3.1-.89,4.47-1.24,2.28-.6,4.39-1.12,6.51-1.65Z"/><path class="cls-6" d="M195.19,160.79a2.69,2.69,0,0,1-.06.87c-.07.32-.38.54-.59.84a4.4,4.4,0,0,1-1,.48l-.84.29c-.16,0,0-.06.07-.11l1.31-.47c.38-.21.71-.46,1.05-.69.17-.11.2-.3.16-.54A3.92,3.92,0,0,1,195.19,160.79Z"/><path class="cls-6" d="M146.35,180.28a2.54,2.54,0,0,1-1.14.65c2-2,4-2.09,5.93-2.15a4.29,4.29,0,0,0-3.14.72Q147.17,179.86,146.35,180.28Z"/><path class="cls-6" d="M201.74,148.11c-2.63-1.56-5.86,1.39-8.19,4a1.43,1.43,0,0,1-.82.62,1.22,1.22,0,0,0,.66-.46c2.08-2.65,4.92-5,7.4-4.33A5.71,5.71,0,0,1,201.74,148.11Z"/><path class="cls-6" d="M197.35,159.52a1.19,1.19,0,0,1-.75-1,5.52,5.52,0,0,0,6.61,1.69A7.11,7.11,0,0,1,198,160,5.48,5.48,0,0,1,197.35,159.52Z"/><path class="cls-6" d="M213,140.56c-.67.2-1.32.4-2.12.62l-1.52.39a2.5,2.5,0,0,1,.47-.21Z"/><path class="cls-6" d="M223,152.68l-1.47.59-1.41.5c-.12,0,0-.05,0-.1Z"/></g><polygon class="cls-3" points="226.55 134.31 226.72 114.36 125.53 125.32 125.11 159.07 226.55 134.31"/><path class="cls-13" d="M125.1,160.19,226.55,135l.2-.05.18-21.22L125.55,124.24l0,2.2,101-11.4-.16,18.66L125.13,158Z"/><g class="cls-5"><path class="cls-6" d="M212.45,127.78c-2.52.09-4.74-.43-7.81.11,3.1-.41,6-.18,8.72-.37l.54,0c.39-1,.87-1.11,1.36-1.71,2.61-.45,4.87,2.62,7.4-.54l.41-.07,3.57-.68-3.64.75a1.61,1.61,0,0,0-.47.26c-2.4,2.9-4.66-.17-7.27.79a1.48,1.48,0,0,0-1.25,1.25,1.63,1.63,0,0,1-.49.14c-.35,0-.71.09-1.06.12Z"/><path class="cls-6" d="M215,133.72,204.23,136c2.72-.63,5.4-1.28,7.88-1.82,4.45-1,8.6-1.83,12.57-2.67Z"/><path class="cls-6" d="M181.41,120.6l6-.59c-2.87.36-5.82.75-8.88,1.1-2.28.27-4.62.48-7,.73Z"/><path class="cls-6" d="M136.1,146.49a36.77,36.77,0,0,0,4-1,16.79,16.79,0,0,1,5.34-2,23.72,23.72,0,0,0-6.15,2.1l-3.76.77c-1.79.36-3.55.76-10.33,2.23v0C130,147.71,133.4,147,136.1,146.49Z"/><path class="cls-6" d="M188.25,126.8c1.92-2.36,4.46-1.55,6.32-.68-2.17-1.41-4.41-.5-6.59,1a2.56,2.56,0,0,1-1.17.38l-3.56.49,3.72-.64A2.39,2.39,0,0,0,188.25,126.8Z"/><path class="cls-6" d="M188.05,120.6c-1.68.22-3.43.46-5.14.66-1.3.15-2.51.24-3.79.35Z"/><path class="cls-6" d="M185.75,133.12c-4.4.86-6.48,1.28-8.66,1.69a6.93,6.93,0,0,0-1.51.4l-1.68.68a18,18,0,0,1,3.34-1.27l3.2-.66C181.11,133.82,182.54,133.62,185.75,133.12Z"/><path class="cls-6" d="M222,131.59l3.39-.69c-.75.19-1.48.4-2.28.58-1.07.24-2.21.46-3.35.7Z"/><path class="cls-6" d="M224,127.6c-.79.2-1.25.33-1.69.41l-.38.07-.39.08c-1.13.18-2.05,1.84-3.19.58.91.81,2,.09,2.9-.5a1.86,1.86,0,0,1,.5-.22Z"/><path class="cls-6" d="M181.1,141.69l4.3-.87c-1,.25-2.05.53-3,.74-1.61.35-3.16.66-4.77,1Z"/><path class="cls-6" d="M210.75,135l1.58-.42c.28-.07,1.1-.24,1.1-.23a1.73,1.73,0,0,1-.34.17Z"/><path class="cls-6" d="M211.87,130c.57-.17.92,0,1.62-.15-1.06.43-2.49.26-3.58.47l.82-.14Z"/><path class="cls-6" d="M166.21,125.16a5.38,5.38,0,0,1,.06-1.11c.08-.39.39-.57.59-.89a2.76,2.76,0,0,1,1-.25l.8-.09c.15,0,0,.08-.07.13l-1.26.14a9.23,9.23,0,0,0-1,.53c-.17.09-.2.33-.17.65A7,7,0,0,1,166.21,125.16Z"/><path class="cls-6" d="M198.64,118.93a.55.55,0,0,1,.5-.26c-.9,1.24-1.78.78-2.68.31a1.06,1.06,0,0,0,1.44.19A4,4,0,0,0,198.64,118.93Z"/><path class="cls-6" d="M220.72,132.68a3.39,3.39,0,0,1,.48,0s-.73.19-1,.24c-.59.12-1.09.2-1.63.3Z"/><path class="cls-6" d="M164,126.13a2.27,2.27,0,0,1,.77,1.61c-1.66-3.17-4.23-4.91-7.33-4.55a7.93,7.93,0,0,1,5.88,2.16C163.57,125.61,163.79,125.87,164,126.13Z"/><path class="cls-6" d="M144.16,150.32c1-.27,2-.52,3.12-.8.54-.13,2.16-.47,2.16-.47a3.81,3.81,0,0,1-.67.28Z"/><path class="cls-6" d="M126.89,127.25c.88-.14,1.69-.28,2.86-.44.61-.09,2.6-.3,2.65-.3.22,0,0,.1-.09.15Z"/><path class="cls-6" d="M225.32,127.69l.83-.08-2,.41c-.27,0-.52.07-.78.11Z"/><path class="cls-6" d="M221.3,128a2.38,2.38,0,0,1,.52-.25l3.66-.75v.09l-3.66.67a1.86,1.86,0,0,0-.52.25Z"/><path class="cls-6" d="M225.51,125.36c.19,0,.39,0,.46,0s-.68.15-.91.18c-.55.09-1,.15-1.52.22Z"/></g><polygon class="cls-3" points="125.52 126.07 226.73 113 226.9 93.09 125.94 92.41 125.52 126.07"/><path class="cls-14" d="M125.51,127.16l101.42-13.53.18-21.19h-.2L126,91.32l0,2.2,100.76.24-.16,18.61L125.54,125Z"/><g class="cls-5"><path class="cls-6" d="M132,108c-2.06.08-4.13.09-6.2.1v.06C127.75,108.19,129.79,108.15,132,108Z"/><path class="cls-6" d="M125.87,97.83v.1c2.43-.07,4.82-.1,7.12-.17C130.67,97.76,128.28,97.79,125.87,97.83Z"/><path class="cls-6" d="M177.75,115.73l-9.12.9c4.52-.52,8.84-1,13-1.49,2.9-.32,5.73-.58,8.47-.86Z"/><path class="cls-6" d="M225.79,98.88c-4.84.24-5.94.3-7.1.34l-2.2.07a13.58,13.58,0,0,1-3.93.69A9.9,9.9,0,0,0,216,99.3a17.21,17.21,0,0,1,2.4-.18Z"/><path class="cls-6" d="M167.25,109.91c-3.29,2.38-7.95,1.54-11.57.58,4.21,1.53,8.29.59,12-.91a5.82,5.82,0,0,1,1.9-.34l5.48-.35-5.73.49A5.25,5.25,0,0,0,167.25,109.91Z"/><path class="cls-6" d="M167.61,116.09c2.74-.31,5.46-.63,8-.9,1.85-.19,3.54-.32,5.26-.47Z"/><path class="cls-6" d="M171.25,103.87c6.53-.36,9.37-.53,12.19-.67a11.74,11.74,0,0,0,1.88-.19l2-.41a26.13,26.13,0,0,1-4.08.75l-4.21.27C178.11,103.68,176.08,103.72,171.25,103.87Z"/><path class="cls-6" d="M178.08,96.51h-6.32c1.52,0,3.1-.1,4.46-.12,2.27,0,4.37,0,6.47,0Z"/><path class="cls-6" d="M195.67,111.59a2.54,2.54,0,0,1-.06.85c-.07.3-.38.45-.59.69a4,4,0,0,1-1.05.22l-.83.08c-.16,0,0-.07.07-.1l1.3-.13c.38-.12.71-.29,1.05-.43.17-.07.19-.26.16-.5A4.19,4.19,0,0,1,195.67,111.59Z"/><path class="cls-6" d="M147.06,118.76a1.75,1.75,0,0,1-1.13.36c2-1.52,4-1.08,5.9-.65a4,4,0,0,0-3.13-.07C148.15,118.5,147.61,118.62,147.06,118.76Z"/><path class="cls-6" d="M202.19,100.56c-2.62-2.21-5.84-.08-8.15,2a1.08,1.08,0,0,1-.82.41,1,1,0,0,0,.66-.3c2.06-2.13,4.9-3.74,7.37-2.46A7.17,7.17,0,0,1,202.19,100.56Z"/><path class="cls-6" d="M197.82,110.86a1.6,1.6,0,0,1-.74-1.22,6.82,6.82,0,0,0,6.57,3.34,7.92,7.92,0,0,1-5.2-1.54A7.1,7.1,0,0,1,197.82,110.86Z"/><path class="cls-6" d="M213.43,95.87l-2.11.08H209.8a2.57,2.57,0,0,1,.47-.09Z"/><path class="cls-6" d="M223.36,110.47c-.44.08-.85.15-1.46.23-.32,0-1.38.15-1.41.14s0,0,0-.08Z"/></g><polygon class="cls-3" points="126.36 58.56 227.09 71.24 227.26 51.4 126.78 25.07 126.36 58.56"/><path class="cls-15" d="M126.35,59.64l100.72,13.5.4-22.34-.2,0L126.1,24.19l0,1.82,101,26-.16,18.56L126.37,57.45Z"/><g class="cls-5"><path class="cls-6" d="M209.68,53.62c-.47-.19-.94-.38-1.43-.56-.14,0-.26,0-.29.09.26.83-.81.6-.82,1.08a11.9,11.9,0,0,0-10.22-4.67l-.8-.18c-3-.7-6.18-1.28-9.53-1.72l-5-1.17-5.31-1.24L185,47.19c1.39.31,2.76.61,4.37.82a45.15,45.15,0,0,1,6.41,1.09l.89.22c4.13-1.43,7.5,4.29,11.2,3.43l.54.16,1.61.48a18.32,18.32,0,0,0,5.37.87,19.06,19.06,0,0,1,3,.54l6.07,1.4-5.86-1.26a18.7,18.7,0,0,0-3-.48,25.35,25.35,0,0,1-2.8-.21A28.43,28.43,0,0,1,209.68,53.62Z"/><path class="cls-6" d="M139.23,54.66c1,.11,2,.23,3,.35s1.82.25,2.69.38c5.12-1.33,10.79,2.1,15.62,2.81-4.84-.08-9.87-2.75-15.41-2.7Z"/><path class="cls-6" d="M132.75,42.19c-2.05-.45-4.1-1-6.17-1.48v.07C128.57,41.28,130.61,41.76,132.75,42.19Z"/><path class="cls-6" d="M208,58.1a5.2,5.2,0,0,1-1.21-.09c-.71-2.56-1.42-4.65-2.9-5.95-2.64-2.09-5.79-2.81-8-1.51a1.72,1.72,0,0,1-.56.06,67.62,67.62,0,0,0-8.81-1.29c-1.95-.24-3.63-.6-5.21-.94l-14.67-3.16a6.42,6.42,0,0,0-1.72-.15,7.81,7.81,0,0,1,2.1.22c6,1.25,11.66,2.42,17,3.55a37.46,37.46,0,0,0,4.68.65,40.57,40.57,0,0,1,6.17,1c.25,0,.52.1.8.13,4.44-2.38,9.72,1.81,11.49,7.5,0-1-1.45-1.25-1.07-2.63.36,1,.35,2.49,1.45,2.74A1.06,1.06,0,0,0,208,58.1Z"/><path class="cls-6" d="M126.71,30.46v.1c2.41.55,4.78,1.12,7.08,1.64C131.48,31.61,129.1,31,126.71,30.46Z"/><path class="cls-6" d="M212.12,57.37c-.56-.1-1.1-.22-1.63-.36-.27-.07-.54-.14-.73.09-.53,2.34-3.42,5.19-4.12,2.65-.7-4-1.78-8.67-5.22-9,3.81.86,4.14,5.83,5.58,9,1.07,2.12,2.89-1.39,3.94-3l.79.2a18.25,18.25,0,0,0,7.47.58l3.22.68a23.14,23.14,0,0,0-3.73-.54c-1.19,0-2.31,0-3.28-.1S212.63,57.44,212.12,57.37Z"/><path class="cls-6" d="M203.38,62.79c2.59.89,5.47.39,6.67-2.76l.72.11.71.1c2.35.29,4.63.4,6.82.47l2.81.5c.2,0,.87.21,1.32.32l-3-.54a19.72,19.72,0,0,0-3.35-.37,25.06,25.06,0,0,1-5.43-.42.91.91,0,0,0-.81.22C207.78,63,203.36,64.76,201,60Z"/><path class="cls-6" d="M178.32,61.52l-9.08-1.42c4.5.63,8.8,1.21,12.93,1.81,2.89.42,5.7.87,8.43,1.29Z"/><path class="cls-6" d="M226.15,56.9c-4.82-1-5.92-1.21-7.07-1.46L216.89,55a13.49,13.49,0,0,1-3.92-.32,9.34,9.34,0,0,0,3.42.19,18.93,18.93,0,0,1,2.39.44Z"/><path class="cls-6" d="M208.8,62.92a6.19,6.19,0,0,1-7,.62c-2.71-1.93-2.28-5.88-2.65-8-.77-3.19-4.47-.36-5.15,2.76-.12.69-.41.72-.7.72s-.6,0-.91-.08c-.61-.06-1.22-.12-1.84-.16a16.29,16.29,0,0,1,1.85,0c.3,0,.6,0,.9,0a.65.65,0,0,0,.42-.13,5,5,0,0,1,3.44-4.57c.81-.35,2.39.48,2,1.41a9.1,9.1,0,0,0,1.88,7.36,6,6,0,0,0,7.28.31Z"/><path class="cls-6" d="M167.86,53c-3.27,1.54-7.9-.47-11.51-2.36a16.88,16.88,0,0,0,12,2.15,5.46,5.46,0,0,1,1.89.14l5.46,1L170,53A4.75,4.75,0,0,0,167.86,53Z"/><path class="cls-6" d="M168.22,59.3c2.73.38,5.44.75,8,1.13,1.85.28,3.53.58,5.24.86Z"/><path class="cls-6" d="M171.85,48c6.49,1.3,9.32,1.85,12.13,2.43a11.81,11.81,0,0,0,1.87.29l2,.1a25.62,25.62,0,0,1-4.06-.29l-4.19-.8C178.68,49.57,176.65,49.09,171.85,48Z"/><path class="cls-6" d="M178.64,42.4l-6.28-1.61c1.5.34,3.08.68,4.43,1,2.26.55,4.35,1.1,6.45,1.63Z"/><path class="cls-6" d="M196.15,61.93a2.69,2.69,0,0,1-.05.84c-.08.28-.38.35-.59.54a3.66,3.66,0,0,1-1-.05l-.82-.13c-.17-.06,0-.06.07-.09l1.29.2a8.09,8.09,0,0,0,1-.16c.17,0,.2-.2.16-.46A4.31,4.31,0,0,1,196.15,61.93Z"/><path class="cls-6" d="M147.78,56.74a1.54,1.54,0,0,1-1.13.07c2-1,4-.07,5.87.85a4.27,4.27,0,0,0-3.11-.86C148.87,56.75,148.33,56.74,147.78,56.74Z"/><path class="cls-6" d="M202.64,52.58c-2.6-2.88-5.81-1.57-8.11-.13a.88.88,0,0,1-.82.2.8.8,0,0,0,.66-.12c2.06-1.61,4.88-2.5,7.33-.59A7.05,7.05,0,0,1,202.64,52.58Z"/><path class="cls-6" d="M198.29,61.75a2.22,2.22,0,0,1-.74-1.41c1.57,2.79,3.9,4.64,6.55,5a10.27,10.27,0,0,1-5.17-2.86C198.69,62.25,198.49,62,198.29,61.75Z"/><path class="cls-6" d="M213.83,50.74l-2.1-.45c-.37-.08-1.52-.38-1.51-.38a2.3,2.3,0,0,1,.47,0Z"/><path class="cls-6" d="M223.73,67.86c-.44,0-.85-.07-1.45-.15l-1.41-.21c-.11,0,0,0,0-.07Z"/></g><polygon class="cls-3" points="124.28 226.23 226.21 174.8 226.38 154.79 124.7 192.31 124.28 226.23"/><path class="cls-16" d="M124.2,227.14l102.2-51.79.19-21.28-.21.07L124.71,191.21l0,2.22,101.47-37.89-.16,18.7L124.29,225.1Z"/><g class="cls-5"><path class="cls-6" d="M208.63,168.19l-1.45.34c-.15.06-.26.13-.29.28.26.67-.82,1.12-.83,1.61-2.93-1.73-6.78-.69-10.33,1.81-.27.11-.53.22-.81.32-3,1.22-6.25,2.66-9.63,4.35l-5.09,2-5.38,2.14,8.9-3.65c1.4-.57,2.79-1.14,4.42-2a58.6,58.6,0,0,1,6.48-3l.89-.34c4.18-4.07,7.59-.48,11.33-3.69l.54-.18,1.63-.55a24,24,0,0,0,5.42-2.53,24.55,24.55,0,0,1,3-1.37l6.13-2.45-5.92,2.46a22.91,22.91,0,0,0-3,1.43c-.92.55-1.85,1.08-2.84,1.57S209.75,167.76,208.63,168.19Z"/><path class="cls-6" d="M137.33,214.09c1-.54,2-1.05,3-1.52l2.73-1.34c5.18-4.6,10.93-4.77,15.82-7.14-4.9,3-10,3.53-15.61,7.12Z"/><path class="cls-6" d="M130.76,205.7c-2.07.85-4.16,1.65-6.26,2.44v.07C126.52,207.45,128.59,206.63,130.76,205.7Z"/><path class="cls-6" d="M206.88,173.77a7.26,7.26,0,0,1-1.22.69c-.71-2.12-1.43-3.76-2.92-4.13a9.18,9.18,0,0,0-8.13,3.6,3,3,0,0,1-.57.41,92.41,92.41,0,0,0-8.91,4.32c-2,1-3.67,1.7-5.27,2.37L165,187.2a9.07,9.07,0,0,0-1.73.94A10.82,10.82,0,0,1,165.4,187c6.08-2.57,11.8-5,17.23-7.28a51.25,51.25,0,0,0,4.74-2.33,54.94,54.94,0,0,1,6.24-3c.25-.11.52-.23.81-.38,4.48-5.21,9.82-4.36,11.61.22,0-1-1.46-.33-1.08-2,.36.82.34,2.28,1.46,1.83A1.75,1.75,0,0,0,206.88,173.77Z"/><path class="cls-6" d="M124.63,197.76v.11c2.45-1,4.86-1.93,7.18-2.87C129.47,195.88,127.06,196.82,124.63,197.76Z"/><path class="cls-6" d="M211.08,170.4c-.55.25-1.1.48-1.64.68a1.19,1.19,0,0,0-.74.56c-.53,2.67-3.45,7.37-4.16,5.27-.71-3.6-1.79-7.57-5.27-5.67,3.85-1.56,4.18,3.21,5.64,5.5,1.08,1.44,2.91-3.23,4-5.54l.8-.31a27,27,0,0,0,7.53-4.16l3.26-1.37a31.1,31.1,0,0,0-3.76,1.83c-1.21.72-2.34,1.44-3.32,2S211.61,170.15,211.08,170.4Z"/><path class="cls-6" d="M202.25,181.4a10.32,10.32,0,0,0,6.74-7l.73-.35.73-.36c2.36-1.19,4.67-2.54,6.88-3.85l2.83-1.29c.21-.1.89-.34,1.34-.52l-3,1.37a26.72,26.72,0,0,0-3.39,1.77,36.94,36.94,0,0,1-5.48,3,1.88,1.88,0,0,0-.81.73c-2.08,3.9-6.54,8.47-8.95,5.16Z"/><path class="cls-6" d="M176.92,196.07l-9.19,4.35c4.55-2.23,8.9-4.38,13.08-6.41,2.92-1.42,5.77-2.75,8.53-4.07Z"/><path class="cls-6" d="M225.25,161c-4.86,2.06-6,2.54-7.13,3l-2.22.9a20.07,20.07,0,0,1-4,2.17,14.3,14.3,0,0,0,3.45-2,24.53,24.53,0,0,1,2.42-1.08Z"/><path class="cls-6" d="M207.74,178.07c-1.77,2.54-4.37,4.76-7,5.05-2.74-.21-2.3-4.45-2.68-6.31-.77-2.72-4.51,2.48-5.2,6.05a1.38,1.38,0,0,1-.71,1.16c-.3.19-.61.34-.92.5-.61.32-1.23.66-1.86,1,.63-.42,1.25-.8,1.87-1.16.3-.17.61-.34.91-.54a1.39,1.39,0,0,0,.42-.39c.12-2.73,1.82-5,3.48-6.78.82-.86,2.42-1,2,.15-.43,3.23.35,5.41,1.91,6.18,2.3.39,5.29-1.54,7.34-4.31C207.44,178.49,207.59,178.28,207.74,178.07Z"/><path class="cls-6" d="M166.33,194.21c-3.31,3.63-8,4.55-11.65,5,4.25-.06,8.35-2.55,12.11-5.46a7.78,7.78,0,0,1,1.91-1.06l5.53-2.43-5.78,2.66A8.44,8.44,0,0,0,166.33,194.21Z"/><path class="cls-6" d="M166.7,200.27c2.76-1.35,5.5-2.7,8.05-3.93,1.87-.9,3.57-1.67,5.3-2.47Z"/><path class="cls-6" d="M170.37,186.64l12.28-5.29a14.36,14.36,0,0,0,1.88-.9l2-1.16a39.31,39.31,0,0,1-4.1,2.29l-4.25,1.87C177.28,183.85,175.23,184.66,170.37,186.64Z"/><path class="cls-6" d="M177.25,176.67l-6.37,2.38c1.53-.61,3.12-1.27,4.49-1.79,2.29-.88,4.4-1.67,6.52-2.46Z"/><path class="cls-6" d="M195,185.13a3.05,3.05,0,0,1,0,.88c-.08.33-.39.59-.6.91a5.15,5.15,0,0,1-1.05.62l-.84.39c-.16,0,0-.07.07-.13l1.31-.62c.38-.26.71-.55,1.05-.82a.54.54,0,0,0,.16-.56A5.43,5.43,0,0,1,195,185.13Z"/><path class="cls-6" d="M146,210.73a2.9,2.9,0,0,1-1.15.79,8.57,8.57,0,0,1,6-2.89,4.7,4.7,0,0,0-3.15,1.12C147.1,210.05,146.55,210.38,146,210.73Z"/><path class="cls-6" d="M201.51,171.62c-2.63-1.23-5.87,2.12-8.2,5a1.73,1.73,0,0,1-.82.72,1.45,1.45,0,0,0,.66-.54c2.08-2.92,4.93-5.61,7.41-5.25A4.86,4.86,0,0,1,201.51,171.62Z"/><path class="cls-6" d="M197.11,183.59a1,1,0,0,1-.74-1c1.59,1.8,3.94,2.17,6.62.87a7.08,7.08,0,0,1-5.23.42A5,5,0,0,1,197.11,183.59Z"/><path class="cls-6" d="M212.82,162.67l-2.12.88-1.53.58a2.76,2.76,0,0,1,.48-.27Z"/><path class="cls-6" d="M222.81,173.54c-.44.24-.86.47-1.46.78l-1.42.68c-.12,0,0-.06,0-.11Z"/></g><polygon class="cls-3" points="226.9 93.02 227.07 73.14 126.36 58.68 125.94 92.26 226.9 93.02"/><path class="cls-17" d="M125.93,93.37l101,.3h.2l0-21.19L126.37,57.6l0,2.19,100.52,14-.15,18.6L126,91.14Z"/><g class="cls-5"><path class="cls-6" d="M212.86,83c-2.51-.54-4.72-1.61-7.78-1.85,3.09.37,5.93,1.32,8.68,1.82l.54.09c.39-.93.87-.9,1.36-1.37,2.59.21,4.85,3.84,7.37,1.33l.41,0,3.55.22-3.62-.16a1.18,1.18,0,0,0-.47.14c-2.39,2.29-4.65-1.34-7.25-1a1.09,1.09,0,0,0-1.24.94,1.59,1.59,0,0,1-.49,0c-.35,0-.7-.09-1-.16Z"/><path class="cls-6" d="M215.34,89.51l-10.67-.46c2.71,0,5.38.07,7.85.16,4.43.15,8.57.34,12.52.5Z"/><path class="cls-6" d="M182,68l6,.93c-2.86-.36-5.8-.72-8.84-1.13-2.27-.31-4.61-.68-7-1Z"/><path class="cls-6" d="M136.86,82.46a32.59,32.59,0,0,0,4,0,14.12,14.12,0,0,1,5.31-.62,20,20,0,0,0-6.12.55l-3.74-.18c-1.78-.08-3.53-.13-10.27-.37v0C130.8,82.14,134.18,82.34,136.86,82.46Z"/><path class="cls-6" d="M188.76,75.9c1.91-1.88,4.44-.44,6.29.91-2.16-2-4.39-1.61-6.56-.64a2,2,0,0,1-1.16.09l-3.55-.41,3.7.3A1.94,1.94,0,0,0,188.76,75.9Z"/><path class="cls-6" d="M188.56,69.65c-1.68-.2-3.42-.4-5.11-.63-1.3-.17-2.51-.39-3.78-.59Z"/><path class="cls-6" d="M186.27,81.58c-4.38-.25-6.45-.35-8.62-.49a6.31,6.31,0,0,0-1.5,0l-1.67.26a14.41,14.41,0,0,1,3.32-.43l3.19.14C181.65,81.11,183.08,81.28,186.27,81.58Z"/><path class="cls-6" d="M222.35,89.15l3.38.17c-.75,0-1.48,0-2.27,0-1.07,0-2.21-.09-3.34-.14Z"/><path class="cls-6" d="M224.31,85.67c-.78,0-1.25,0-1.68,0l-.38,0-.39,0c-1.12-.1-2,1.33-3.17-.22.9,1,2,.61,2.88.23a1.77,1.77,0,0,1,.5-.09Z"/><path class="cls-6" d="M181.64,89l4.28.21c-1,0-2,0-3,0-1.6,0-3.14-.13-4.74-.2Z"/><path class="cls-6" d="M211.17,89.72c.51,0,1,0,1.57,0l1.09,0a1.11,1.11,0,0,1-.34.08Z"/><path class="cls-6" d="M212.28,85.06c.56,0,.91.21,1.62.25-1.06.16-2.48-.36-3.57-.42l.82.06Z"/><path class="cls-6" d="M166.83,68.72a4.54,4.54,0,0,1,0-1.09c.08-.37.39-.47.59-.74a2.71,2.71,0,0,1,1,0l.8.11c.15.06,0,.08-.07.11L168,67a6.59,6.59,0,0,0-1,.27c-.17,0-.2.28-.16.61S166.83,68.45,166.83,68.72Z"/><path class="cls-6" d="M159.76,82.31c2.92,3.3,6.33.76,8.63-1.6.39-.45.6-.43.79-.42-.14,0-.32,0-.63.29-2.05,2.51-5,4.38-7.71,2.4A6.7,6.7,0,0,1,159.76,82.31Z"/><path class="cls-6" d="M221.09,89.92a5,5,0,0,1,.49.1s-.73,0-1,0l-1.62-.1Z"/><path class="cls-6" d="M164.62,69.14a3,3,0,0,1,.77,1.79c-1.65-3.57-4.21-6-7.29-6.38,2.21.31,4.37,2,5.85,3.64C164.19,68.51,164.42,68.83,164.62,69.14Z"/><path class="cls-6" d="M144.88,88.3c1,0,2,0,3.11,0,.54,0,2.15.07,2.14.08a3.89,3.89,0,0,1-.66.11Z"/><path class="cls-6" d="M127.71,61c.87.07,1.68.14,2.84.27.61.07,2.59.35,2.64.37.22.07,0,.09-.09.13Z"/><path class="cls-6" d="M225.68,86.1l.82.12-2-.09c-.26,0-.51-.06-.77-.09Z"/><path class="cls-6" d="M221.68,85.43a1.61,1.61,0,0,1,.51-.12l3.65.17v.09l-3.65-.26a1.66,1.66,0,0,0-.52.12Z"/><path class="cls-6" d="M225.87,83.82a2.41,2.41,0,0,1,.46.12l-.91,0-1.52-.16Z"/></g><polygon class="cls-18" points="147.81 31.54 147.12 214.7 125.05 226 126.1 26.01 147.81 31.54"/><path class="cls-19" d="M147.15,31.35,147,214.44l-21.1,10.44,1.06-198.65-.86-.24v.48l-.68.19L124.1,226.23l.13.9,23-11.85.61-183.74Z"/><g class="cls-5"><path class="cls-6" d="M144.3,44.79c0,1.21-.05,2.37-.06,3.49s0,2.22,0,3.3c-1.44,6.22.3,14.13.29,20.92.45-6.73-.85-13.7-.24-20.65Z"/><path class="cls-6" d="M136.91,35.32c0-2.32-.09-4.63-.15-6.92h0C136.86,30.61,136.91,32.9,136.91,35.32Z"/><path class="cls-6" d="M129.92,26.46l.07,0c0,2.72-.05,5.45-.08,8.14C130,46.14,129.85,43.41,129.92,26.46Z"/><path class="cls-6" d="M145,100.68c0-4.86,0-9.92-.06-15,0,7.24-.07,14.49-.08,21.79,0,5.31,0,10.65,0,16C144.93,116.25,145,109,145,100.68Z"/><path class="cls-6" d="M132,218.92c.15-15.67.2-19.1.21-22.61l0-6.55a104,104,0,0,0,.63-11.37,74.92,74.92,0,0,1-.64,9.92c-.11,1.92-.12,4.32-.14,7.14C132.11,201.08,132.08,208.36,132,218.92Z"/><path class="cls-6" d="M139.79,83.12c1.6-4.93.72-11.92-.18-17.21,1.35,6.2.88,12.21-.05,17.9a19.24,19.24,0,0,0-.16,3l0,9.13c0-3.13,0-6.25.07-9.53A15.75,15.75,0,0,1,139.79,83.12Z"/><path class="cls-6" d="M144.46,84.07c0,4.31-.05,8.71-.05,12.93,0,3.17,0,6.1.05,9.14Z"/><path class="cls-6" d="M135.21,89.29c-.08,11.31-.12,16.49-.15,21.81,0,1.13,0,2.32-.1,3.63s-.2,2.65-.29,4c.25-2.8.48-5.46.51-8s.06-5.11.09-7.86C135.28,101.2,135.25,97.59,135.21,89.29Z"/><path class="cls-6" d="M129.1,101.09c0-3.6,0-7.44,0-11.27,0,2.63-.09,5.42-.09,7.86,0,4.16,0,8.1,0,12.14C129,107.24,129.05,104.67,129.1,101.09Z"/><path class="cls-6" d="M143.08,135.16a1.14,1.14,0,0,0,.74-.22c.25-.18.35-.85.54-1.31a15.65,15.65,0,0,0,.09-2.22V129.7c0-.34,0,0-.08.15v2.7c-.06.8-.18,1.51-.27,2.24,0,.36-.21.45-.42.4A1.55,1.55,0,0,0,143.08,135.16Z"/><path class="cls-6" d="M144.82,55.36A3.44,3.44,0,0,0,145,54c-.88,2.37-.44,5,0,7.58a9.79,9.79,0,0,1-.27-4.11Q144.73,56.38,144.82,55.36Z"/><path class="cls-6" d="M133.22,151.55c-2.24-5.83-.24-13.54,1.59-18.87a4.29,4.29,0,0,0,.35-1.8,4,4,0,0,1-.24,1.44c-1.93,4.78-3.43,11.46-2.12,17C132.92,150.14,133.06,150.86,133.22,151.55Z"/><path class="cls-6" d="M142.61,139.87c-.24-.72-.69-1.52-1.15-1.45,2.26,3.13,3.58,8.13,3.57,14.26a37.25,37.25,0,0,0-1.85-11.49C143,140.71,142.8,140.28,142.61,139.87Z"/><path class="cls-6" d="M128.48,182.15c0-1.91.07-3.71.1-5.94,0-1,0-4.18,0-4.16s-.06.81-.09,1.32C128.49,176.27,128.48,179.18,128.48,182.15Z"/><path class="cls-6" d="M144.64,205.58c0-1.36.05-2.63.07-4.45,0-1,0-4.12,0-4.19,0-.34-.06.05-.08.18C144.63,199.89,144.63,202.66,144.64,205.58Z"/></g><polygon class="cls-20" points="37.29 67.32 39.26 68.12 39.84 174.22 34.97 170.06 37.29 67.32"/><polygon class="cls-18" points="227.47 50.8 226.21 174.8 211.47 181.16 212.11 46.78 227.47 50.8"/><path class="cls-21" d="M226.52,50.56,225,174.74l-13,5.76.71-133.56-.59-.17v.36l-.47.15-.74,134,.08.55L225,174.74l1.5-124.18Z"/><g class="cls-5"><path class="cls-6" d="M216.24,146.27c-.05-.78-.1-1.58-.15-2.38,0-.25,0-.44.11-.51.5.32.52-1.47.83-1.54-1.85-4.37-2.12-10.37-1.41-15.85,0-.39,0-.79,0-1.19,0-4.41.14-9,.36-13.59,0-2.22,0-4.45,0-6.68l0-6.73c0,3.77-.07,7.55-.11,11.31,0,1.88,0,3.75-.14,6-.2,3.1-.28,6.18-.29,9.26v1.32c-1.56,6.57,1.56,11.39.44,17.67l0,.9c0,.9,0,1.81.05,2.72a84.61,84.61,0,0,1-.28,9.52c-.12,1.62-.13,3.6-.14,5.58,0,3.94,0,7.87,0,11.78,0-3.75.08-7.52.12-11.41,0-1.95,0-3.93.17-5.6s.24-3.34.31-5.09S216.25,148.17,216.24,146.27Z"/><path class="cls-6" d="M224.47,60.58c0,.9-.06,1.75-.07,2.58s0,1.63,0,2.42c-1,4.55.11,10.26,0,15.14.35-4.83-.48-9.87,0-14.94Z"/><path class="cls-6" d="M219.47,53.63c0-1.74-.29-2.91-.32-4.62l.26.17C219.45,50.82,219.48,51.82,219.47,53.63Z"/><path class="cls-6" d="M214.72,47.78v.68c0,2,0,2.71,0,4.71C214.72,61.68,214.65,60.38,214.72,47.78Z"/><path class="cls-6" d="M222.78,134.72c.25,4-.38,8.73-2.48,11.19,0,.41,0,.81,0,1.22s0,.81,0,1.22c-.12,4.05-.36,8.14-.61,12.16,0,1.74,0,3.49-.07,5.24,0,.39,0,1.65,0,2.51l.06-5.7c0-1.91.06-3.86.23-6.16.26-2.82.41-6.09.45-9.51a4.15,4.15,0,0,1,.24-1.39c1.85-3.78,3.36-11,.8-14.2Z"/><path class="cls-6" d="M224.54,100.56c0-3.37,0-6.91.06-10.47-.06,5.08-.14,10.13-.2,15.17,0,3.64-.06,7.28-.09,10.91C224.38,111.26,224.46,106.33,224.54,100.56Z"/><path class="cls-6" d="M215.76,177.07c.12-9.6.16-11.72.18-13.9,0-1.36,0-2.73,0-4.09a64.41,64.41,0,0,0,.43-7.16,47.56,47.56,0,0,1-.43,6.25c-.07,1.2-.08,2.7-.1,4.46C215.84,166.12,215.81,170.62,215.76,177.07Z"/><path class="cls-6" d="M221.19,88.26c1.09-3.48.54-8.47,0-12.26A35.82,35.82,0,0,1,221,88.75a13.83,13.83,0,0,0-.12,2.13l0,6.38c0-2.18.06-4.36.1-6.66A11.84,11.84,0,0,1,221.19,88.26Z"/><path class="cls-6" d="M224.3,88.94c-.05,3-.1,6.12-.13,9.06,0,2.2,0,4.23,0,6.33Z"/><path class="cls-6" d="M218.12,92.59C218,100.45,218,104,218,107.66c0,.77,0,1.59-.08,2.47s-.13,1.8-.2,2.7c.17-1.9.33-3.7.36-5.43s.06-3.49.09-5.39C218.13,100.87,218.12,98.36,218.12,92.59Z"/><path class="cls-6" d="M214.07,100.75V92.94c0,1.83-.06,3.77-.07,5.46,0,2.87,0,5.58,0,8.34C214,105,214,103.22,214.07,100.75Z"/><path class="cls-6" d="M223.06,124a.73.73,0,0,0,.48-.13c.16-.13.23-.57.36-.88a12.44,12.44,0,0,0,.07-1.48c0-.6,0-1.12,0-1.15,0-.22,0,0,0,.1,0,.6,0,1.21,0,1.81s-.13,1-.19,1.49c0,.25-.14.3-.28.26A1,1,0,0,0,223.06,124Z"/><path class="cls-6" d="M224.74,68.34a2.84,2.84,0,0,0,.12-1,11.52,11.52,0,0,0-.06,5.51,7.52,7.52,0,0,1-.16-3C224.66,69.33,224.7,68.84,224.74,68.34Z"/><path class="cls-6" d="M216.65,134.65c-1.42-3.85-.12-8.9,1.07-12.43A2.85,2.85,0,0,0,218,121a2.67,2.67,0,0,1-.16,1c-1.26,3.15-2.24,7.55-1.41,11.23A14,14,0,0,0,216.65,134.65Z"/><path class="cls-6" d="M222.73,127.11c-.16-.48-.44-1-.74-1,1.44,2.1,2.26,5.42,2.22,9.45a25.5,25.5,0,0,0-1.12-7.59C223,127.67,222.85,127.38,222.73,127.11Z"/><path class="cls-6" d="M213.6,154.21c0-1.21.05-2.35.07-3.76,0-.66,0-2.66,0-2.65s0,.52-.06.84C213.61,150.49,213.6,152.33,213.6,154.21Z"/><path class="cls-6" d="M223.62,169.22c0-.84,0-1.62.07-2.76,0-.59,0-2.56,0-2.6,0-.21,0,0-.06.1C223.65,165.69,223.63,167.42,223.62,169.22Z"/></g><polygon class="cls-22" points="23.93 53.02 25.05 177.48 39.15 183.61 38.51 49.24 23.93 53.02"/><g class="cls-5"><path class="cls-6" d="M34.38,148.73c0-.79.1-1.58.14-2.38,0-.25,0-.44-.1-.51-.5.32-.52-1.47-.83-1.54,1.85-4.38,2.12-10.38,1.41-15.85,0-.4,0-.8,0-1.2,0-4.41-.14-9-.36-13.59,0-2.22,0-4.44,0-6.68s0-4.48,0-6.73c0,3.78.07,7.56.11,11.32,0,1.88,0,3.75.14,6,.2,3.1.28,6.18.29,9.26v1.32c1.56,6.57-1.56,11.39-.45,17.67,0,.3,0,.6,0,.9l-.06,2.72a84.3,84.3,0,0,0,.29,9.51c.11,1.62.12,3.61.13,5.58,0,3.95,0,7.87.06,11.79,0-3.76-.08-7.52-.12-11.41,0-2,0-3.93-.17-5.6s-.25-3.35-.31-5.1S34.37,150.63,34.38,148.73Z"/><path class="cls-6" d="M26.15,63c0,.89.06,1.75.07,2.58s0,1.63,0,2.42c1,4.54-.11,10.26-.05,15.14-.35-4.84.48-9.88,0-15Z"/><path class="cls-6" d="M31.15,56.08c0-1.73,0-3.46.07-5.17h0C31.16,52.57,31.14,54.28,31.15,56.08Z"/><path class="cls-6" d="M35.9,49.53l0,0c0,2,0,4.07.07,6.07C35.9,64.14,36,62.13,35.9,49.53Z"/><path class="cls-6" d="M26.08,103c0-3.38,0-6.92-.07-10.47.07,5.08.15,10.13.21,15.17,0,3.64.06,7.28.08,10.9C26.23,113.71,26.16,108.78,26.08,103Z"/><path class="cls-6" d="M34.86,179.52c-.12-9.59-.16-11.71-.18-13.89l0-4.1a66.87,66.87,0,0,1-.42-7.15,47.56,47.56,0,0,0,.43,6.25c.07,1.2.08,2.7.1,4.45C34.78,168.58,34.81,173.07,34.86,179.52Z"/><path class="cls-6" d="M29.43,90.72c-1.1-3.48-.54-8.47,0-12.27a35.88,35.88,0,0,0,.13,12.76,13.76,13.76,0,0,1,.12,2.13l0,6.38c0-2.18-.06-4.36-.1-6.66A11.7,11.7,0,0,0,29.43,90.72Z"/><path class="cls-6" d="M26.32,91.4c0,3,.1,6.12.13,9.06,0,2.2,0,4.23,0,6.33Z"/><path class="cls-6" d="M32.5,95c.09,7.87.13,11.44.17,15.08,0,.77,0,1.58.07,2.47s.14,1.8.21,2.7c-.17-1.9-.33-3.71-.36-5.43s-.06-3.5-.09-5.39C32.49,103.33,32.5,100.82,32.5,95Z"/><path class="cls-6" d="M36.55,103.21V95.4c0,1.83.06,3.77.07,5.46,0,2.87,0,5.58,0,8.34C36.6,107.44,36.58,105.67,36.55,103.21Z"/><path class="cls-6" d="M27.56,126.43a.72.72,0,0,1-.48-.13c-.16-.12-.23-.56-.36-.87a12.44,12.44,0,0,1-.07-1.48c0-.6,0-1.13,0-1.15,0-.22,0,0,.05.1,0,.6,0,1.21,0,1.81s.13,1,.19,1.49c0,.24.14.3.28.26A1.27,1.27,0,0,1,27.56,126.43Z"/><path class="cls-6" d="M25.88,70.8a2.86,2.86,0,0,1-.12-1,11.56,11.56,0,0,1,.06,5.52,7.7,7.7,0,0,0,.16-3C26,71.79,25.92,71.29,25.88,70.8Z"/><path class="cls-6" d="M34,137.11c1.42-3.85.12-8.91-1.07-12.43a3.11,3.11,0,0,1-.24-1.2,3,3,0,0,0,.17,1c1.26,3.15,2.23,7.54,1.41,11.22Q34.12,136.44,34,137.11Z"/><path class="cls-6" d="M27.89,129.57c.15-.49.44-1,.74-1-1.44,2.1-2.27,5.42-2.22,9.45a25.39,25.39,0,0,1,1.12-7.59C27.65,130.13,27.77,129.84,27.89,129.57Z"/><path class="cls-6" d="M37,156.67c0-1.21-.05-2.35-.07-3.76,0-.66,0-2.66,0-2.65s0,.51.06.84C37,153,37,154.79,37,156.67Z"/><path class="cls-6" d="M27,171.68c0-.84-.05-1.63-.07-2.76,0-.59,0-2.56,0-2.61,0-.21,0,0,.05.11C27,168.15,27,169.87,27,171.68Z"/></g><path class="cls-23" d="M122.84,224.34l2-198.14L103.91,32l1.31,184-.65-.26,0,.94-.26-1.32L102.54,31.61v-.74l23.57-6.68L124.22,225Z"/><polygon class="cls-22" points="123.5 226.23 124.46 24.66 102.53 30.87 104.59 216.66 123.5 226.23"/><g class="cls-5"><path class="cls-6" d="M109.81,85.4c-.08,1.27-.15,2.55-.22,3.84,0,.38,0,.68.14.75.72-.72.72,2.09,1.16,2.08-2.58,7.46-3,16.56-2,24.52v1.75c0,6.4.15,12.9.42,19.43v18.34c0-5.08-.06-10.24-.09-15.43,0-2.61,0-5.24-.16-8.4-.25-4.41-.34-8.83-.34-13.29,0-.64,0-1.28,0-1.92-2.06-9.38,2.21-17.54.68-26.92,0-.48,0-1,0-1.43,0-1.43.07-2.88.09-4.33a147.62,147.62,0,0,0-.35-15.24C109,66.56,109,63.28,109,60q0-10,0-20.16c0,6.5.08,12.93.12,19.48,0,3.25,0,6.53.22,9.2s.32,5.33.41,8.14S109.83,82.36,109.81,85.4Z"/><path class="cls-6" d="M120.15,209.11c0-1.16,0-2.27,0-3.34s0-2.12,0-3.15c-1.35-6.62.41-13.44.45-20.07.39,6.75-.94,12.91-.4,19.84Z"/><path class="cls-6" d="M113.31,213.64c0,2.05-.09,4.06-.15,6l0,0C113.26,217.79,113.3,215.79,113.31,213.64Z"/><path class="cls-6" d="M107.52,217.41l0,0c0-2.31,0-4.62-.06-6.92C107.54,200.68,107.46,203,107.52,217.41Z"/><path class="cls-6" d="M119.44,101.42c.5-6.69-.39-14.4-3.64-17.48,0-.67,0-1.34,0-2l0-2c-.11-6.79-.41-13.66-.74-20.45,0-3.05,0-6.12,0-9.21,0-.69.06-3,.09-4.54V55.82c0,3.34,0,6.71.25,10.58.36,4.68.53,10.15.53,15.89a6.13,6.13,0,0,0,.35,2.21c2.82,5.43,5.09,16.93,1,22.86Z"/><path class="cls-6" d="M121.29,154.5c-.06,4.94-.13,10.05-.19,15.12,0-7.28.05-14.64.1-22.12,0-5.48.12-11,.18-16.64C121.35,138.44,121.32,145.92,121.29,154.5Z"/><path class="cls-6" d="M109.3,33.91c.13,16.67.17,20.27.18,24,0,2.29,0,4.57,0,6.85.34,3.28.55,7.4.56,11.51a82.43,82.43,0,0,0-.57-10c-.1-1.94-.11-4.45-.12-7.38C109.35,52.92,109.33,45.21,109.3,33.91Z"/><path class="cls-6" d="M116.09,170.71c1.48,5.22.61,11.62-.25,16.29,1.29-5.38.88-11.28,0-17a18.44,18.44,0,0,1-.14-2.95c0-2.93.05-5.88.07-8.84,0,3.05,0,6.08,0,9.24A16.33,16.33,0,0,0,116.09,170.71Z"/><path class="cls-6" d="M120.61,171.11c0-4.31,0-8.72,0-13,0-3.21.08-6.19.13-9.29Z"/><path class="cls-6" d="M112,163.71c0-10.7-.07-15.65-.08-20.75,0-1.09,0-2.24-.08-3.51s-.18-2.57-.26-3.86c.22,2.73.42,5.31.44,7.75s0,4.9.06,7.53C112.05,152.46,112,155.89,112,163.71Z"/><path class="cls-6" d="M106.8,151.71v10.21c0-2.37-.08-4.91-.09-7.12,0-3.79,0-7.4,0-11.12C106.73,146.06,106.76,148.43,106.8,151.71Z"/><path class="cls-6" d="M119.6,118.68a1.09,1.09,0,0,1,.76.15c.26.17.35.87.55,1.35a22.14,22.14,0,0,1,.08,2.34c0,.94,0,1.77,0,1.81,0,.36-.06,0-.09-.15l0-2.86c-.06-.85-.18-1.59-.27-2.35,0-.38-.2-.46-.43-.38A1.7,1.7,0,0,1,119.6,118.68Z"/><path class="cls-6" d="M120.74,199.31a3.79,3.79,0,0,1,.14,1.42c-.84-2.7-.4-5,.05-7.32a8.53,8.53,0,0,0-.3,3.85C120.65,198,120.68,198.63,120.74,199.31Z"/><path class="cls-6" d="M110.31,103.39c-2,6.16-.23,13.44,1.39,18.53a4.49,4.49,0,0,1,.31,1.75,4.11,4.11,0,0,0-.22-1.41c-1.71-4.53-3-10.89-1.86-16.61C110,104.86,110.16,104.11,110.31,103.39Z"/><path class="cls-6" d="M119.16,113.76c-.24.8-.7,1.7-1.16,1.68,2.31-3.62,3.73-9.24,3.78-15.93a45.8,45.8,0,0,1-2,12.77C119.56,112.82,119.36,113.31,119.16,113.76Z"/><path class="cls-6" d="M106.19,74.18c0,1.91.06,3.7.09,5.91,0,1,0,4.15,0,4.14s-.06-.78-.08-1.28C106.2,80.07,106.19,77.16,106.19,74.18Z"/><path class="cls-6" d="M121.84,39.66c0,1.58,0,3.05,0,5.18,0,1.11,0,4.79,0,4.88,0,.4-.06,0-.09-.15C121.78,46.34,121.81,43.09,121.84,39.66Z"/></g><path class="cls-24" d="M125.62,53.53,23.86,71.15,23.2,53.3,124.49,24.66h0L23.42,53.24l-.22.06.23,18.22.67.67L125.61,55Z"/><polygon class="cls-25" points="125.62 54.13 23.43 71.53 23.2 53.28 125.82 24.27 125.62 54.13"/><g class="cls-5"><path class="cls-6" d="M42,54.78l1.49-.59c.15,0,.27,0,.3.06-.27.76.85.49.85.92a13.94,13.94,0,0,1,10.57-4.76l.82-.22c3.08-.78,6.33-1.48,9.73-2.06l5.09-1.31,5.34-1.37-8.86,2.19c-1.41.34-2.8.69-4.44,1a52.76,52.76,0,0,0-6.55,1.33l-.91.24c-4.25-1-7.75,4.27-11.59,3.72l-.56.18-1.68.52A22.78,22.78,0,0,1,36,55.7a22.23,22.23,0,0,0-3.16.67L26.36,58l6.2-1.5a22.47,22.47,0,0,1,3.16-.62c1-.08,1.92-.18,2.94-.36S40.8,55.09,42,54.78Z"/><path class="cls-6" d="M118.66,40.56c1.94-.48,3.9-1,5.86-1.56v0C122.63,39.58,120.69,40.09,118.66,40.56Z"/><path class="cls-6" d="M124.5,30.21v.09c-2.29.57-4.55,1.17-6.74,1.72C120,31.41,122.22,30.81,124.5,30.21Z"/><path class="cls-6" d="M74,59.88l9.06-1.8c-4.48.82-8.78,1.6-12.93,2.38-2.91.55-5.77,1.13-8.54,1.67Z"/><path class="cls-6" d="M24.63,58.74c5.1-1.2,6.26-1.46,7.47-1.76l2.32-.58a16,16,0,0,0,4.1-.52,11.37,11.37,0,0,1-3.58.38,21.67,21.67,0,0,0-2.52.54Z"/><path class="cls-6" d="M84.47,51.82c3.23,1.16,7.8-.86,11.35-2.7A19,19,0,0,1,84,51.65a6.69,6.69,0,0,0-1.88.24l-5.44,1.23,5.69-1.18A5.32,5.32,0,0,1,84.47,51.82Z"/><path class="cls-6" d="M84.08,57.32c-2.71.5-5.4,1-7.92,1.47-1.85.36-3.54.73-5.26,1.08Z"/><path class="cls-6" d="M80.54,47.64c-6.5,1.5-9.35,2.15-12.19,2.82a14.42,14.42,0,0,1-1.89.36l-2,.2a28.51,28.51,0,0,0,4.11-.49l4.23-.94C73.7,49.39,75.73,48.85,80.54,47.64Z"/><path class="cls-6" d="M73.76,43.06l6.31-1.75c-1.51.38-3.08.76-4.44,1.13-2.28.61-4.38,1.2-6.5,1.78Z"/><path class="cls-6" d="M55.94,61.36a2.09,2.09,0,0,0,.05.74c.08.24.39.28.6.44a4,4,0,0,0,1.07-.11l.85-.17c.16-.06,0,0-.07-.07l-1.33.26c-.38,0-.72-.05-1.06-.07-.17,0-.2-.17-.17-.4A3.59,3.59,0,0,0,55.94,61.36Z"/><path class="cls-6" d="M104.11,53.9a1.67,1.67,0,0,0,1.09,0c-1.93-.76-3.83.16-5.69,1.07a4.78,4.78,0,0,1,3-.93C103.06,54,103.58,53.93,104.11,53.9Z"/><path class="cls-6" d="M49.27,53.43c2.69-2.72,6-1.74,8.35-.6a.94.94,0,0,0,.83.14.9.9,0,0,1-.67-.08c-2.1-1.3-5-1.94-7.54-.09A9,9,0,0,0,49.27,53.43Z"/><path class="cls-6" d="M53.74,61.33A2,2,0,0,0,54.5,60a10.36,10.36,0,0,1-6.75,4.89A12,12,0,0,0,53.09,62C53.33,61.8,53.54,61.56,53.74,61.33Z"/><path class="cls-6" d="M37.62,52.44c.7-.17,1.37-.32,2.2-.53.39-.1,1.59-.43,1.58-.44a3.77,3.77,0,0,0-.49.06Z"/><path class="cls-6" d="M27.21,68.49c.46-.07.9-.13,1.54-.24.33,0,1.45-.27,1.48-.28s0,0-.05-.06Z"/></g><polygon class="cls-26" points="125.82 53.5 226.22 68.73 227.47 50.8 126.1 24.19 125.82 53.5"/><path class="cls-24" d="M125.82,54.66,226.74,69.55l.75-18-.2-.05L127.66,25.1h0l99.83,26.43L226.75,69,125.83,53.21Z"/><g class="cls-5"><path class="cls-6" d="M133.32,40.7c-2-.45-4-1-6-1.48v.06C129.22,39.78,131.22,40.25,133.32,40.7Z"/><path class="cls-6" d="M127.51,30.56v.09l6.94,1.63C132.19,31.7,129.86,31.14,127.51,30.56Z"/><path class="cls-6" d="M178.22,58.8l-9-1.55c4.46.7,8.73,1.37,12.83,2,2.87.46,5.68,1,8.39,1.42Z"/><path class="cls-6" d="M226.11,56.7c-4.84-1-5.94-1.26-7.09-1.53l-2.2-.5a15.51,15.51,0,0,1-3.92-.42,11,11,0,0,0,3.43.3,21.6,21.6,0,0,1,2.39.46Z"/><path class="cls-6" d="M167.92,51.19c-3.26,1.18-7.83-.7-11.39-2.44A19.26,19.26,0,0,0,168.36,51a6.61,6.61,0,0,1,1.88.19l5.41,1.1-5.66-1A5.51,5.51,0,0,0,167.92,51.19Z"/><path class="cls-6" d="M168.21,56.53c2.71.43,5.39.85,7.9,1.27,1.83.3,3.5.63,5.2.93Z"/><path class="cls-6" d="M171.92,47.07,184,49.59a12.62,12.62,0,0,0,1.86.32l2,.16a29.25,29.25,0,0,1-4-.4l-4.17-.84C178.7,48.65,176.69,48.17,171.92,47.07Z"/><path class="cls-6" d="M178.74,42.55l-6.24-1.61c1.5.35,3.06.7,4.4,1,2.24.56,4.32,1.1,6.4,1.63Z"/><path class="cls-6" d="M196,59.84a2.26,2.26,0,0,1-.06.72c-.08.23-.39.28-.59.43a4,4,0,0,1-1-.08l-.82-.14c-.17-.06,0-.05.07-.07l1.29.22a8.53,8.53,0,0,0,1-.1c.17,0,.2-.16.16-.38A4.41,4.41,0,0,1,196,59.84Z"/><path class="cls-6" d="M148,53.58a1.74,1.74,0,0,1-1.12,0c2-.78,3.91.09,5.8.94a4.92,4.92,0,0,0-3.07-.85C149.06,53.63,148.53,53.6,148,53.58Z"/><path class="cls-6" d="M202.58,52.11c-2.58-2.55-5.8-1.56-8.11-.42a1,1,0,0,1-.82.14.82.82,0,0,0,.66-.08c2.07-1.29,4.9-2,7.33-.22A9.86,9.86,0,0,1,202.58,52.11Z"/><path class="cls-6" d="M198.14,59.77a1.9,1.9,0,0,1-.73-1.23,9.64,9.64,0,0,0,6.51,4.54,11.19,11.19,0,0,1-5.15-2.65Q198.43,60.1,198.14,59.77Z"/><path class="cls-6" d="M213.8,51l-2.1-.46-1.52-.39s.29,0,.48,0Z"/><path class="cls-6" d="M223.59,66c-.45,0-.86-.1-1.46-.19-.32,0-1.39-.22-1.41-.23s0,0,.05-.06Z"/></g><polygon class="cls-24" points="24.55 161.19 24.55 160.39 24.89 160.04 124.47 196.38 124.48 197.1 124.47 198.79 24.55 161.19"/><polygon class="cls-25" points="24.76 177.47 24.54 160.39 124.48 197.1 124.21 226.95 24.76 177.47"/><g class="cls-5"><path class="cls-6" d="M99,205.27l-1.94-.56c-.19-.08-.34-.18-.38-.37.35-.83-1-1.46-1-2.07-3.67,1.94-8.06.49-11.76-2.46l-.81-.36c-2.9-1.32-5.79-2.8-8.62-4.41l-3.93-1.76-3.76-1.68,6.44,3c1.12.52,2.25,1,3.62,1.83a49.07,49.07,0,0,0,6,3.13l.88.39c4.36,4.77,8.33.71,13,4.87l.71.27,2.21.85a41.79,41.79,0,0,1,8,4.09,47.52,47.52,0,0,0,5,2.51l11.69,5.29L113,212.55a50,50,0,0,1-5.08-2.59c-1.44-.9-2.87-1.76-4.36-2.55S100.55,205.93,99,205.27Z"/><path class="cls-6" d="M38.24,175.43c2.39.74,4.51.89,7.44,2.15-3-1.16-5.68-1.72-8.3-2.61l-.52-.17c-.37-1-.83-1.16-1.29-1.79-2.47-1-4.61.91-7-2.37l-.38-.17L24.84,169l3.42,1.57a2.08,2.08,0,0,1,.44.33c2.26,3,4.4,1.07,6.87,2.55a1.94,1.94,0,0,1,1.18,1.37,2.32,2.32,0,0,0,.47.24c.34.14.67.26,1,.38Z"/><path class="cls-6" d="M35.87,179.71l10.19,4.7c-2.59-1.25-5.15-2.5-7.51-3.61-4.21-2-8.13-3.78-11.85-5.51Z"/><path class="cls-6" d="M68.24,177.62l-5.89-2.09c2.8,1.06,5.69,2.18,8.69,3.3,2.24.84,4.55,1.65,6.92,2.51Z"/><path class="cls-6" d="M113.22,212.24c-1.64-.75-3-1.38-4.1-2a25.85,25.85,0,0,0-5.38-3.2,36.16,36.16,0,0,1,6.2,3.55l3.82,1.74,10.54,4.91v0C119.43,215.05,116,213.5,113.22,212.24Z"/><path class="cls-6" d="M61.51,181a6,6,0,0,0-6.12-2.26c2.1-.61,4.27.76,6.39,2.62a3.33,3.33,0,0,0,1.13.64l3.47,1.37-3.62-1.54A3.39,3.39,0,0,1,61.51,181Z"/><path class="cls-6" d="M61.74,175.85c1.64.64,3.35,1.31,5,1.94,1.27.47,2.46.87,3.71,1.31Z"/><path class="cls-6" d="M63.9,187c4.3,1.92,6.33,2.84,8.46,3.78a9.83,9.83,0,0,1,1.48.75l1.64,1a24.1,24.1,0,0,0-3.27-2l-3.13-1.44C68.43,188.87,67,188.31,63.9,187Z"/><path class="cls-6" d="M29.22,176.1,26,174.65c.7.35,1.39.71,2.14,1.07,1,.48,2.09,1,3.16,1.45Z"/><path class="cls-6" d="M27.37,172.29c.74.36,1.18.59,1.59.77l.36.16.37.16c1.06.45,1.93,2.07,3,1.32-.86.43-1.93-.46-2.73-1.18a3.77,3.77,0,0,0-.48-.31Z"/><path class="cls-6" d="M68.38,195.48l-4.18-1.91c1,.48,2,1,2.89,1.44,1.57.74,3.08,1.42,4.66,2.15Z"/><path class="cls-6" d="M39.84,181.87l-1.5-.77c-.25-.13-1-.49-1-.48a2.09,2.09,0,0,0,.32.23Z"/><path class="cls-6" d="M38.78,177.46c-.53-.29-.87-.26-1.53-.56a24.48,24.48,0,0,0,3.4,1.34l-.78-.33Z"/><path class="cls-6" d="M83.2,185.61a3.56,3.56,0,0,0,0-1c-.07-.35-.38-.59-.58-.92a4.7,4.7,0,0,0-1-.5l-.79-.29c-.16,0,0,.08.06.13l1.26.46a11.09,11.09,0,0,1,1,.74c.17.12.2.33.16.6A4.81,4.81,0,0,0,83.2,185.61Z"/><path class="cls-6" d="M51.48,171.65a.75.75,0,0,0-.48-.35,2.11,2.11,0,0,0,2.58,1c-.57.27-.86.16-1.39-.21C52,171.93,51.72,171.8,51.48,171.65Z"/><path class="cls-6" d="M90.09,200.64c-3,1.34-6.31-2.49-8.58-5.63-.38-.57-.58-.66-.77-.74a1.34,1.34,0,0,1,.62.56c2,3.13,4.93,6.18,7.65,5.84A5.48,5.48,0,0,0,90.09,200.64Z"/><path class="cls-6" d="M30.42,177.33a3.29,3.29,0,0,0-.46-.14l.91.44c.55.26,1,.46,1.54.68Z"/><path class="cls-6" d="M85.4,187a1.32,1.32,0,0,0-.79,1.15c1.69-2.23,4.28-3,7.38-1.86a7.73,7.73,0,0,0-5.91.23C85.83,186.72,85.61,186.88,85.4,187Z"/><path class="cls-6" d="M105,213.17c-1-.52-2-1-3.14-1.58l-2.16-1a7.79,7.79,0,0,0,.66.43Z"/><path class="cls-6" d="M123,198.38c-.91-.37-1.74-.73-2.94-1.2l-2.73-1c-.22-.05,0,.08.09.15Z"/><path class="cls-6" d="M26.08,172l-.78-.28,1.88.85c.25.12.49.2.73.3Z"/><path class="cls-6" d="M29.86,173.32a3.15,3.15,0,0,0-.49-.34l-3.44-1.57v.08l3.44,1.5a3.94,3.94,0,0,1,.5.35Z"/><path class="cls-6" d="M25.9,170l-.43-.12.85.39,1.43.58Z"/></g><polygon class="cls-24" points="226.77 158.2 226.8 156.85 124.52 196.31 124.5 197.03 124.52 198.7 226.77 158.2"/><polygon class="cls-27" points="226.35 175.32 226.79 157.35 124.83 196.9 124.79 226.59 226.35 175.32"/><g class="cls-5"><path class="cls-6" d="M212,173.5c-2.54.82-4.77,1-7.87,2.4,3.12-1.27,6-1.91,8.79-2.9l.55-.19a6.32,6.32,0,0,1,1.39-1.9c2.64-1.16,4.9.84,7.49-2.66l.41-.19,3.61-1.64-3.68,1.73a2.6,2.6,0,0,0-.48.36c-2.45,3.24-4.71,1.24-7.36,2.85a2.12,2.12,0,0,0-1.26,1.46,3.06,3.06,0,0,1-.51.26c-.35.15-.71.29-1.06.41Z"/><path class="cls-6" d="M214.48,177.91,203.67,183c2.74-1.34,5.44-2.7,8-3.9l12.69-6Z"/><path class="cls-6" d="M180.69,176.45l6.08-2.29c-2.89,1.16-5.87,2.37-9,3.58-2.3.91-4.66,1.79-7.08,2.71Z"/><path class="cls-6" d="M135.48,212c1.6-.76,3-1.39,4-2a25.56,25.56,0,0,1,5.31-3.24,35.79,35.79,0,0,0-6.12,3.59L135,212.1c-1.78.83-3.53,1.68-10.25,4.9v0C129.42,214.82,132.8,213.26,135.48,212Z"/><path class="cls-6" d="M187.6,179.81a6.36,6.36,0,0,1,6.37-2.46c-2.18-.59-4.45.87-6.64,2.84a3.74,3.74,0,0,1-1.18.67l-3.59,1.48,3.75-1.66A3.54,3.54,0,0,0,187.6,179.81Z"/><path class="cls-6" d="M187.4,174.48c-1.7.69-3.47,1.42-5.19,2.1-1.31.51-2.53.95-3.82,1.43Z"/><path class="cls-6" d="M185.09,186c-4.42,2-6.51,3-8.7,4a9.62,9.62,0,0,0-1.51.79l-1.68,1.08a25.88,25.88,0,0,1,3.35-2.08l3.21-1.51C180.43,188,181.87,187.38,185.09,186Z"/><path class="cls-6" d="M221.59,174l3.43-1.6c-.76.39-1.5.78-2.31,1.18l-3.39,1.59Z"/><path class="cls-6" d="M223.62,169.94c-.8.4-1.27.66-1.71.86l-.39.18-.39.17c-1.15.49-2.09,2.22-3.23,1.45.92.44,2.07-.53,2.94-1.29a3.17,3.17,0,0,1,.5-.34Z"/><path class="cls-6" d="M180.44,194.74l4.31-2c-1,.5-2.05,1.06-3,1.51-1.61.77-3.16,1.49-4.78,2.25Z"/><path class="cls-6" d="M210.24,180.24c.52-.27,1-.53,1.6-.83.27-.14,1.1-.53,1.1-.52a3.36,3.36,0,0,1-.34.25Z"/><path class="cls-6" d="M211.41,175.63c.57-.32.92-.29,1.63-.62a26.66,26.66,0,0,1-3.62,1.47l.84-.36Z"/><path class="cls-6" d="M158.41,200.22c3,1.32,6.35-2.59,8.66-5.79.38-.59.59-.68.79-.77a1.44,1.44,0,0,0-.64.58c-2,3.2-5,6.31-7.73,6A5.51,5.51,0,0,1,158.41,200.22Z"/><path class="cls-6" d="M220.3,175.31a4.21,4.21,0,0,1,.49-.17s-.73.38-1,.49l-1.65.75Z"/><path class="cls-6" d="M163.18,186.39a1.3,1.3,0,0,1,.78,1.16c-1.69-2.25-4.29-3-7.41-1.77a7.71,7.71,0,0,1,5.94.13A6,6,0,0,1,163.18,186.39Z"/><path class="cls-6" d="M225,169.62l.84-.33-2,1c-.27.13-.53.22-.79.33Z"/></g><path class="cls-28" d="M34.64,53.12a.61.61,0,0,0,.45.6c.32.07.65-.22.65-.66s-.35-.72-.68-.62A.66.66,0,0,0,34.64,53.12Z"/><path class="cls-29" d="M34.64,53.1a.63.63,0,0,0,.46.61.62.62,0,0,0,.67-.67.57.57,0,0,0-.7-.62A.69.69,0,0,0,34.64,53.1Z"/><polygon class="cls-30" points="35.43 52.83 35.43 53.32 35.08 53.52 34.8 53.3 34.79 52.91 35.06 52.65 35.43 52.83"/><polygon class="cls-31" points="35.45 52.8 35.45 53.31 35.09 53.51 34.81 53.29 34.8 52.9 35.08 52.63 35.45 52.8"/><path class="cls-28" d="M34.65,65.25a.62.62,0,0,0,.45.61.6.6,0,0,0,.65-.66c0-.46-.34-.72-.68-.62A.66.66,0,0,0,34.65,65.25Z"/><path class="cls-32" d="M34.66,65.24a.57.57,0,1,0,1.12-.06.57.57,0,0,0-.7-.62A.66.66,0,0,0,34.66,65.24Z"/><polygon class="cls-30" points="35.44 64.96 35.44 65.46 35.09 65.66 34.81 65.44 34.8 65.05 35.07 64.79 35.44 64.96"/><polygon class="cls-33" points="35.46 64.94 35.46 65.44 35.11 65.65 34.82 65.42 34.81 65.03 35.09 64.77 35.46 64.94"/><path class="cls-28" d="M25.41,66.61a.63.63,0,0,0,.45.61.6.6,0,0,0,.66-.66c0-.46-.35-.73-.68-.62A.67.67,0,0,0,25.41,66.61Z"/><path class="cls-34" d="M25.42,66.6a.62.62,0,0,0,.46.6.6.6,0,0,0,.66-.66c0-.46-.35-.73-.69-.62A.67.67,0,0,0,25.42,66.6Z"/><polygon class="cls-30" points="26.2 66.32 26.21 66.82 25.86 67.02 25.58 66.8 25.57 66.41 25.84 66.15 26.2 66.32"/><polygon class="cls-35" points="26.22 66.3 26.23 66.8 25.87 67.01 25.59 66.78 25.58 66.39 25.86 66.13 26.22 66.3"/><path class="cls-28" d="M25.4,55.63a.63.63,0,0,0,.45.61.6.6,0,0,0,.66-.66c0-.46-.35-.72-.68-.62A.67.67,0,0,0,25.4,55.63Z"/><path class="cls-36" d="M25.41,55.62a.63.63,0,0,0,.46.61.61.61,0,0,0,.66-.67c0-.46-.35-.73-.69-.62A.67.67,0,0,0,25.41,55.62Z"/><polygon class="cls-30" points="26.19 55.34 26.2 55.84 25.85 56.04 25.57 55.82 25.56 55.43 25.83 55.17 26.19 55.34"/><polygon class="cls-37" points="26.21 55.32 26.22 55.82 25.86 56.03 25.58 55.8 25.57 55.41 25.84 55.15 26.21 55.32"/><path class="cls-28" d="M120.84,29.61a1.11,1.11,0,0,0,.81,1.1,1.09,1.09,0,0,0,1.19-1.19c0-.83-.63-1.31-1.24-1.12A1.2,1.2,0,0,0,120.84,29.61Z"/><path class="cls-38" d="M120.85,29.59a1.12,1.12,0,0,0,.82,1.09,1.1,1.1,0,0,0,1.21-1.21,1,1,0,0,0-1.26-1.11A1.24,1.24,0,0,0,120.85,29.59Z"/><polygon class="cls-30" points="122.27 29.09 122.28 29.99 121.64 30.35 121.13 29.95 121.11 29.25 121.61 28.78 122.27 29.09"/><polygon class="cls-39" points="122.3 29.05 122.31 29.96 121.67 30.33 121.15 29.92 121.13 29.22 121.63 28.74 122.3 29.05"/><path class="cls-28" d="M120.86,51.55a1.1,1.1,0,0,0,.81,1.09,1.08,1.08,0,0,0,1.19-1.19c0-.82-.63-1.31-1.24-1.12A1.22,1.22,0,0,0,120.86,51.55Z"/><path class="cls-40" d="M120.87,51.52a1.12,1.12,0,0,0,.82,1.1,1.11,1.11,0,0,0,1.21-1.21c0-.83-.64-1.32-1.26-1.12A1.24,1.24,0,0,0,120.87,51.52Z"/><polygon class="cls-30" points="122.29 51.02 122.3 51.92 121.66 52.28 121.15 51.88 121.13 51.18 121.63 50.71 122.29 51.02"/><polygon class="cls-41" points="122.32 50.98 122.33 51.89 121.69 52.26 121.17 51.85 121.15 51.15 121.65 50.67 122.32 50.98"/><path class="cls-28" d="M104.17,54a1.13,1.13,0,0,0,.82,1.1,1.09,1.09,0,0,0,1.18-1.2c0-.82-.63-1.3-1.23-1.11A1.21,1.21,0,0,0,104.17,54Z"/><path class="cls-42" d="M104.19,54a1.12,1.12,0,0,0,.82,1.09,1.09,1.09,0,0,0,1.2-1.21c0-.82-.63-1.31-1.25-1.11A1.23,1.23,0,0,0,104.19,54Z"/><polygon class="cls-30" points="105.6 53.48 105.61 54.38 104.98 54.74 104.47 54.34 104.45 53.64 104.94 53.17 105.6 53.48"/><polygon class="cls-43" points="105.64 53.44 105.64 54.35 105 54.72 104.49 54.31 104.47 53.61 104.97 53.13 105.64 53.44"/><path class="cls-28" d="M104.15,34.16a1.13,1.13,0,0,0,.82,1.1,1.09,1.09,0,0,0,1.18-1.2c0-.82-.63-1.3-1.23-1.11A1.21,1.21,0,0,0,104.15,34.16Z"/><path class="cls-44" d="M104.17,34.14a1.12,1.12,0,0,0,.82,1.09,1.09,1.09,0,0,0,1.2-1.21c0-.82-.63-1.31-1.25-1.11A1.23,1.23,0,0,0,104.17,34.14Z"/><polygon class="cls-30" points="105.58 33.64 105.59 34.54 104.96 34.9 104.45 34.5 104.43 33.8 104.92 33.33 105.58 33.64"/><polygon class="cls-45" points="105.61 33.6 105.62 34.51 104.98 34.88 104.47 34.47 104.45 33.77 104.95 33.29 105.61 33.6"/><path class="cls-28" d="M130.42,28.47a1.12,1.12,0,0,1-.82,1.09,1.09,1.09,0,0,1-1.19-1.19c0-.82.63-1.31,1.24-1.12A1.22,1.22,0,0,1,130.42,28.47Z"/><path class="cls-46" d="M130.4,28.44a1.12,1.12,0,0,1-.82,1.09,1.1,1.1,0,0,1-1.21-1.2c0-.83.64-1.32,1.26-1.12A1.24,1.24,0,0,1,130.4,28.44Z"/><polygon class="cls-30" points="128.99 27.94 128.98 28.84 129.61 29.2 130.12 28.8 130.14 28.1 129.65 27.63 128.99 27.94"/><polygon class="cls-47" points="128.96 27.9 128.94 28.81 129.59 29.18 130.1 28.77 130.12 28.07 129.62 27.59 128.96 27.9"/><path class="cls-28" d="M130.4,50.4a1.12,1.12,0,0,1-.82,1.09,1.08,1.08,0,0,1-1.19-1.19c0-.82.63-1.31,1.24-1.12A1.23,1.23,0,0,1,130.4,50.4Z"/><path class="cls-48" d="M130.38,50.37a1.12,1.12,0,0,1-.82,1.1,1.11,1.11,0,0,1-1.21-1.21c0-.83.64-1.32,1.26-1.12A1.25,1.25,0,0,1,130.38,50.37Z"/><polygon class="cls-30" points="128.97 49.87 128.96 50.77 129.59 51.14 130.1 50.73 130.12 50.03 129.63 49.56 128.97 49.87"/><polygon class="cls-49" points="128.94 49.83 128.93 50.74 129.57 51.11 130.08 50.71 130.1 50 129.6 49.52 128.94 49.83"/><path class="cls-28" d="M147.08,52.85a1.13,1.13,0,0,1-.81,1.1,1.09,1.09,0,0,1-1.19-1.19c0-.83.63-1.31,1.24-1.12A1.2,1.2,0,0,1,147.08,52.85Z"/><path class="cls-50" d="M147.06,52.83a1,1,0,1,1-2-.12c0-.82.64-1.31,1.25-1.11A1.23,1.23,0,0,1,147.06,52.83Z"/><polygon class="cls-30" points="145.65 52.33 145.64 53.23 146.27 53.59 146.78 53.19 146.8 52.49 146.31 52.02 145.65 52.33"/><polygon class="cls-51" points="145.62 52.29 145.61 53.2 146.25 53.57 146.76 53.16 146.78 52.46 146.28 51.98 145.62 52.29"/><path class="cls-28" d="M147.1,33a1.13,1.13,0,0,1-.81,1.1,1.09,1.09,0,0,1-1.19-1.19c0-.83.63-1.31,1.24-1.12A1.2,1.2,0,0,1,147.1,33Z"/><path class="cls-52" d="M147.08,33a1,1,0,1,1-2-.12c0-.82.64-1.31,1.25-1.11A1.22,1.22,0,0,1,147.08,33Z"/><polygon class="cls-30" points="145.67 32.49 145.66 33.39 146.29 33.75 146.8 33.35 146.82 32.65 146.33 32.18 145.67 32.49"/><polygon class="cls-53" points="145.64 32.45 145.63 33.36 146.27 33.73 146.78 33.32 146.81 32.62 146.3 32.14 145.64 32.45"/><path class="cls-28" d="M120.6,222.74a1.12,1.12,0,0,1,.81-1.11c.59-.12,1.19.4,1.19,1.21s-.63,1.34-1.24,1.14A1.24,1.24,0,0,1,120.6,222.74Z"/><path class="cls-54" d="M120.61,222.77a1.13,1.13,0,0,1,.82-1.11,1.11,1.11,0,0,1,1.21,1.23c0,.84-.64,1.33-1.26,1.13A1.26,1.26,0,0,1,120.61,222.77Z"/><polygon class="cls-30" points="122.03 223.28 122.04 222.36 121.4 221.99 120.89 222.4 120.87 223.12 121.37 223.59 122.03 223.28"/><polygon class="cls-55" points="122.06 223.32 122.07 222.4 121.43 222.02 120.91 222.43 120.89 223.15 121.39 223.63 122.06 223.32"/><path class="cls-28" d="M120.47,200.4a1.13,1.13,0,0,1,.82-1.11c.58-.12,1.18.4,1.18,1.21s-.63,1.33-1.24,1.14A1.26,1.26,0,0,1,120.47,200.4Z"/><path class="cls-56" d="M120.49,200.42a1.13,1.13,0,0,1,.82-1.11c.59-.12,1.2.41,1.2,1.23s-.63,1.34-1.25,1.14A1.27,1.27,0,0,1,120.49,200.42Z"/><polygon class="cls-30" points="121.9 200.93 121.91 200.02 121.28 199.65 120.77 200.06 120.75 200.77 121.24 201.25 121.9 200.93"/><polygon class="cls-57" points="121.93 200.97 121.94 200.05 121.3 199.68 120.79 200.09 120.77 200.8 121.27 201.29 121.93 200.97"/><path class="cls-28" d="M104.75,195a1.14,1.14,0,0,1,.81-1.11c.59-.12,1.19.4,1.19,1.21s-.63,1.33-1.24,1.14A1.24,1.24,0,0,1,104.75,195Z"/><path class="cls-58" d="M104.76,195a1.14,1.14,0,0,1,.83-1.11c.59-.12,1.2.41,1.2,1.23s-.64,1.34-1.25,1.14A1.28,1.28,0,0,1,104.76,195Z"/><polygon class="cls-30" points="106.18 195.54 106.19 194.63 105.56 194.26 105.05 194.67 105.03 195.38 105.52 195.86 106.18 195.54"/><polygon class="cls-59" points="106.21 195.58 106.22 194.66 105.58 194.28 105.07 194.69 105.04 195.41 105.55 195.9 106.21 195.58"/><path class="cls-28" d="M105,213.77a1.13,1.13,0,0,1,.81-1.11c.59-.12,1.19.4,1.19,1.21s-.63,1.33-1.24,1.13A1.22,1.22,0,0,1,105,213.77Z"/><path class="cls-60" d="M105,213.79a1.13,1.13,0,0,1,.82-1.11,1.11,1.11,0,0,1,1.21,1.23c0,.84-.64,1.33-1.26,1.13A1.25,1.25,0,0,1,105,213.79Z"/><polygon class="cls-30" points="106.42 214.3 106.43 213.38 105.79 213.02 105.28 213.43 105.26 214.14 105.76 214.62 106.42 214.3"/><polygon class="cls-61" points="106.45 214.34 106.46 213.42 105.82 213.04 105.3 213.45 105.28 214.17 105.78 214.66 106.45 214.34"/><path class="cls-28" d="M128.65,222.65a1.14,1.14,0,0,0-.81-1.11c-.59-.12-1.19.4-1.19,1.21s.63,1.33,1.24,1.14A1.24,1.24,0,0,0,128.65,222.65Z"/><path class="cls-62" d="M128.63,222.68a1.13,1.13,0,0,0-.82-1.12,1.11,1.11,0,0,0-1.2,1.23c0,.84.64,1.34,1.25,1.14A1.25,1.25,0,0,0,128.63,222.68Z"/><polygon class="cls-30" points="127.22 223.18 127.21 222.27 127.84 221.9 128.35 222.31 128.37 223.02 127.88 223.5 127.22 223.18"/><polygon class="cls-63" points="127.19 223.22 127.18 222.3 127.82 221.93 128.33 222.34 128.35 223.05 127.85 223.54 127.19 223.22"/><path class="cls-28" d="M128.2,199.41a1.13,1.13,0,0,0-.82-1.11c-.58-.12-1.18.4-1.18,1.21s.63,1.33,1.24,1.14A1.24,1.24,0,0,0,128.2,199.41Z"/><path class="cls-64" d="M128.18,199.44a1.15,1.15,0,0,0-.82-1.12,1.12,1.12,0,0,0-1.2,1.23c0,.85.64,1.34,1.25,1.14A1.25,1.25,0,0,0,128.18,199.44Z"/><polygon class="cls-30" points="126.77 199.94 126.76 199.03 127.39 198.66 127.9 199.07 127.92 199.78 127.43 200.26 126.77 199.94"/><polygon class="cls-65" points="126.74 199.99 126.73 199.06 127.37 198.69 127.88 199.1 127.9 199.81 127.4 200.3 126.74 199.99"/><path class="cls-28" d="M146.25,192.14a1.13,1.13,0,0,0-.82-1.11c-.59-.12-1.19.4-1.19,1.21s.63,1.33,1.24,1.14A1.27,1.27,0,0,0,146.25,192.14Z"/><path class="cls-66" d="M146.23,192.16a1.13,1.13,0,0,0-.82-1.11,1.11,1.11,0,0,0-1.21,1.23c0,.84.64,1.34,1.26,1.14A1.27,1.27,0,0,0,146.23,192.16Z"/><polygon class="cls-30" points="144.81 192.67 144.81 191.76 145.44 191.39 145.95 191.8 145.97 192.51 145.47 192.99 144.81 192.67"/><polygon class="cls-67" points="144.78 192.71 144.77 191.79 145.41 191.41 145.93 191.82 145.95 192.54 145.45 193.03 144.78 192.71"/><path class="cls-28" d="M146.57,213a1.15,1.15,0,0,0-.81-1.11c-.59-.12-1.19.4-1.19,1.22s.63,1.33,1.24,1.13A1.24,1.24,0,0,0,146.57,213Z"/><path class="cls-68" d="M146.55,213a1.12,1.12,0,0,0-.82-1.11c-.59-.12-1.2.41-1.2,1.23s.64,1.33,1.25,1.13A1.24,1.24,0,0,0,146.55,213Z"/><polygon class="cls-30" points="145.14 213.51 145.13 212.59 145.76 212.22 146.27 212.63 146.29 213.35 145.8 213.83 145.14 213.51"/><polygon class="cls-69" points="145.11 213.55 145.1 212.63 145.74 212.25 146.25 212.66 146.28 213.38 145.77 213.86 145.11 213.55"/><path class="cls-28" d="M214.56,49.55a.76.76,0,0,1-.55.75.74.74,0,0,1-.82-.81c0-.57.43-.9.85-.77A.82.82,0,0,1,214.56,49.55Z"/><path class="cls-70" d="M214.55,49.54a.76.76,0,0,1-.56.74.74.74,0,0,1-.82-.82c0-.57.43-.9.85-.77A.86.86,0,0,1,214.55,49.54Z"/><polygon class="cls-30" points="213.59 49.19 213.58 49.81 214.01 50.06 214.36 49.78 214.37 49.3 214.03 48.98 213.59 49.19"/><polygon class="cls-71" points="213.56 49.17 213.56 49.79 213.99 50.04 214.35 49.76 214.36 49.28 214.02 48.95 213.56 49.17"/><path class="cls-28" d="M214.55,64.55a.76.76,0,0,1-.56.74.74.74,0,0,1-.81-.81c0-.56.43-.9.85-.77A.85.85,0,0,1,214.55,64.55Z"/><path class="cls-72" d="M214.54,64.53a.78.78,0,0,1-.56.75.76.76,0,0,1-.83-.83c0-.57.44-.9.86-.76A.84.84,0,0,1,214.54,64.53Z"/><polygon class="cls-30" points="213.57 64.19 213.56 64.8 214 65.05 214.34 64.77 214.36 64.3 214.02 63.97 213.57 64.19"/><polygon class="cls-73" points="213.55 64.16 213.54 64.78 213.98 65.03 214.33 64.75 214.35 64.27 214 63.95 213.55 64.16"/><path class="cls-28" d="M226,66.22a.75.75,0,0,1-.55.75.74.74,0,0,1-.82-.81c0-.57.43-.9.85-.77A.82.82,0,0,1,226,66.22Z"/><path class="cls-74" d="M225.94,66.21a.76.76,0,0,1-.56.74.74.74,0,0,1-.82-.82c0-.57.43-.9.85-.77A.85.85,0,0,1,225.94,66.21Z"/><polygon class="cls-30" points="224.97 65.86 224.97 66.48 225.4 66.73 225.75 66.45 225.76 65.97 225.43 65.65 224.97 65.86"/><polygon class="cls-75" points="224.95 65.84 224.95 66.46 225.38 66.71 225.74 66.43 225.75 65.95 225.41 65.63 224.95 65.84"/><path class="cls-28" d="M226,52.66a.77.77,0,0,1-.56.75.74.74,0,0,1-.81-.82c0-.56.43-.89.84-.76A.84.84,0,0,1,226,52.66Z"/><path class="cls-76" d="M226,52.65a.77.77,0,0,1-.57.74.75.75,0,0,1-.82-.82c0-.57.44-.9.86-.77A.86.86,0,0,1,226,52.65Z"/><polygon class="cls-30" points="224.99 52.3 224.98 52.92 225.41 53.17 225.76 52.89 225.78 52.41 225.44 52.09 224.99 52.3"/><polygon class="cls-77" points="224.97 52.28 224.96 52.9 225.4 53.15 225.75 52.87 225.76 52.39 225.42 52.06 224.97 52.28"/><path class="cls-28" d="M213,179.62a.64.64,0,0,0-.69-.42.68.68,0,0,0-.63.81.69.69,0,0,0,1.32-.39Z"/><path class="cls-78" d="M212.94,179.63a.65.65,0,0,0-.69-.42.7.7,0,0,0-.64.83.66.66,0,0,0,1,.36A.69.69,0,0,0,212.94,179.63Z"/><polygon class="cls-30" points="212.07 180.13 211.94 179.67 212.31 179.38 212.7 179.5 212.81 179.85 212.55 180.18 212.07 180.13"/><polygon class="cls-79" points="212.05 180.16 211.93 179.69 212.3 179.4 212.69 179.51 212.8 179.87 212.53 180.2 212.05 180.16"/><path class="cls-28" d="M211.86,166.19a.64.64,0,0,0-.68-.42.68.68,0,0,0-.63.82.69.69,0,0,0,1.31-.4Z"/><path class="cls-80" d="M211.85,166.21a.63.63,0,0,0-.69-.42.7.7,0,0,0-.63.83.69.69,0,0,0,1.32-.41Z"/><polygon class="cls-30" points="210.99 166.71 210.86 166.25 211.23 165.96 211.62 166.07 211.73 166.43 211.46 166.75 210.99 166.71"/><polygon class="cls-81" points="210.97 166.74 210.84 166.27 211.22 165.97 211.61 166.09 211.72 166.45 211.45 166.78 210.97 166.74"/><path class="cls-28" d="M225.12,160.14a.65.65,0,0,0-.69-.42.68.68,0,0,0-.62.82.65.65,0,0,0,1,.36A.67.67,0,0,0,225.12,160.14Z"/><path class="cls-82" d="M225.11,160.16a.64.64,0,0,0-.69-.42.68.68,0,0,0-.63.83.65.65,0,0,0,1,.35A.67.67,0,0,0,225.11,160.16Z"/><polygon class="cls-30" points="224.24 160.66 224.12 160.2 224.49 159.9 224.88 160.02 224.98 160.38 224.72 160.7 224.24 160.66"/><polygon class="cls-83" points="224.23 160.68 224.1 160.22 224.47 159.92 224.87 160.04 224.97 160.4 224.71 160.73 224.23 160.68"/><path class="cls-28" d="M225.23,174.31a.63.63,0,0,0-.68-.42.68.68,0,0,0-.63.82.65.65,0,0,0,1,.35A.64.64,0,0,0,225.23,174.31Z"/><path class="cls-84" d="M225.23,174.32a.64.64,0,0,0-.69-.41.69.69,0,0,0-.64.82.65.65,0,0,0,1,.36A.68.68,0,0,0,225.23,174.32Z"/><polygon class="cls-30" points="224.36 174.82 224.23 174.37 224.6 174.07 224.99 174.19 225.1 174.54 224.84 174.87 224.36 174.82"/><polygon class="cls-85" points="224.34 174.85 224.22 174.39 224.59 174.09 224.98 174.21 225.09 174.56 224.82 174.89 224.34 174.85"/><path class="cls-28" d="M37.79,181.79a.64.64,0,0,1,.68-.42.68.68,0,0,1,.63.82.69.69,0,0,1-1.31-.4Z"/><path class="cls-86" d="M37.79,181.81a.64.64,0,0,1,.69-.42.69.69,0,0,1,.64.83.66.66,0,0,1-1,.35A.67.67,0,0,1,37.79,181.81Z"/><polygon class="cls-30" points="38.66 182.31 38.79 181.85 38.42 181.55 38.03 181.67 37.92 182.03 38.19 182.35 38.66 182.31"/><polygon class="cls-87" points="38.68 182.33 38.8 181.87 38.43 181.57 38.04 181.69 37.93 182.04 38.2 182.38 38.68 182.33"/><path class="cls-28" d="M38.87,168.37a.63.63,0,0,1,.68-.42.67.67,0,0,1,.63.81.65.65,0,0,1-1,.36A.66.66,0,0,1,38.87,168.37Z"/><path class="cls-88" d="M38.88,168.38a.63.63,0,0,1,.69-.41.68.68,0,0,1,.63.82.69.69,0,0,1-1.32-.41Z"/><polygon class="cls-30" points="39.75 168.88 39.87 168.42 39.5 168.13 39.11 168.25 39 168.6 39.27 168.93 39.75 168.88"/><polygon class="cls-89" points="39.76 168.91 39.89 168.45 39.52 168.15 39.12 168.26 39.01 168.62 39.28 168.95 39.76 168.91"/><path class="cls-28" d="M25.61,162.32a.65.65,0,0,1,.69-.42.67.67,0,0,1,.62.81.65.65,0,0,1-1,.36A.66.66,0,0,1,25.61,162.32Z"/><path class="cls-90" d="M25.62,162.33a.65.65,0,0,1,.69-.42.7.7,0,0,1,.64.83.66.66,0,0,1-1,.36A.69.69,0,0,1,25.62,162.33Z"/><polygon class="cls-30" points="26.49 162.83 26.62 162.37 26.25 162.08 25.86 162.2 25.75 162.55 26.01 162.88 26.49 162.83"/><polygon class="cls-91" points="26.5 162.86 26.63 162.4 26.26 162.1 25.86 162.21 25.76 162.57 26.02 162.9 26.5 162.86"/><path class="cls-28" d="M25.5,176.48a.64.64,0,0,1,.68-.42.68.68,0,0,1,.63.82.69.69,0,0,1-1.31-.4Z"/><path class="cls-92" d="M25.5,176.5a.65.65,0,0,1,.69-.42.69.69,0,0,1,.64.83.66.66,0,0,1-1,.35A.67.67,0,0,1,25.5,176.5Z"/><polygon class="cls-30" points="26.37 177 26.5 176.54 26.13 176.25 25.74 176.36 25.63 176.72 25.9 177.04 26.37 177"/><polygon class="cls-93" points="26.39 177.03 26.52 176.56 26.14 176.26 25.75 176.38 25.64 176.74 25.91 177.07 26.39 177.03"/><polygon class="cls-94" points="226.45 175.48 125.45 226.48 125.62 23.58 227.46 50.32 226.45 175.48"/></svg>