<svg id="Layer_54" data-name="Layer 54" xmlns="http://www.w3.org/2000/svg" viewBox="0 0 256 256"><defs><style>.cls-1{opacity:0.5;}.cls-2{fill:#fff;}.cls-3{fill:#183f06;}.cls-4{fill:#487412;}.cls-5{fill:#4d7918;}.cls-6{fill:#20470c;}.cls-7{fill:#244b10;}.cls-8{fill:#274d12;}.cls-9{fill:#274d13;}.cls-10{fill:#254b15;}.cls-11{fill:#294e1a;}.cls-12{fill:#345a1d;}.cls-13{fill:#375c22;}.cls-14{fill:#365c1d;}.cls-15{fill:#31571c;}.cls-16{fill:#284e19;}.cls-17{fill:#355b1f;}.cls-18{fill:#6f805a;}.cls-19{fill:#325623;}.cls-20{fill:#375c20;}.cls-21{fill:#776a3e;}.cls-22{fill:#aec5b3;}.cls-23{fill:#abdd52;}.cls-24{fill:#9aa98f;}.cls-25{fill:#c1d8bd;}.cls-26{fill:#a5b29b;}.cls-27{fill:#5c9e16;}.cls-28{fill:#71b226;}.cls-29{fill:#1c4207;}.cls-30{fill:#1c4307;}.cls-31{fill:#487512;}.cls-32{fill:#467211;}.cls-33{fill:#a9db51;}.cls-34{fill:#aadc51;}.cls-35{fill:#a7da50;}.cls-36{fill:#4e7d16;}.cls-37{fill:#28530b;}.cls-38{fill:#244e0c;}.cls-39{fill:#7c922e;}.cls-40{fill:#93c848;}.cls-41{fill:#78aa3a;}.cls-42{fill:#5e8d2c;}.cls-43{fill:#376418;}.cls-44{fill:#3e7810;}.cls-45{fill:#357621;}.cls-46{fill:#4a8219;}.cls-47{fill:#83af3c;}.cls-48{fill:#56912d;}.cls-49{fill:#aadc52;}.cls-50{fill:#a9dc51;}.cls-51{fill:#a8db51;}.cls-52{fill:#a0d44d;}.cls-53{fill:#97cd48;}.cls-54{fill:#8ec644;}.cls-55{fill:#5ba12d;}.cls-56{fill:#609526;}.cls-57{fill:#89c040;}.cls-58{fill:#87bb3d;}.cls-59{fill:#76b439;}.cls-60{fill:#76a933;}.cls-61{fill:#73891f;}.cls-62{fill:#98d74f;}.cls-63{fill:#8ac745;}.cls-64{fill:#77a32f;}.cls-65{fill:#88b73b;}.cls-66{fill:#28500e;}.cls-67{fill:#8fbd42;}.cls-68{fill:#7aa838;}.cls-69{fill:#1b4207;}.cls-70{fill:#1a4207;}.cls-71{fill:#26500c;}.cls-72{fill:#1f4708;}.cls-73{fill:#467412;}.cls-74{fill:#1a4107;}.cls-75{fill:#254c10;}.cls-76{fill:#234c0c;}.cls-77{fill:#2d5316;}.cls-78{fill:#2f5812;}.cls-79{fill:#33571e;}.cls-80{fill:#30551a;}.cls-81{fill:#44682b;}.cls-82{fill:#aadd52;}.cls-83{fill:#92c848;}.cls-84{fill:#617b23;}.cls-85{fill:#89bf43;}.cls-86{fill:#87dc52;}.cls-87{fill:#5a892a;}.cls-88{fill:#3a6719;}.cls-89{fill:#5fad3b;}.cls-90{fill:#8e9f34;}.cls-91{fill:#326217;}.cls-92{fill:#739a32;}.cls-93{fill:#597f25;}.cls-94{fill:#87b33e;}.cls-95{fill:#9cbe43;}.cls-96{fill:#a3d54e;}.cls-97{fill:#9dcd4b;}.cls-98{fill:#8fc044;}.cls-99{fill:#709f34;}.cls-100{fill:#88b941;}.cls-101{fill:#6c9b32;}.cls-102{fill:#396418;}.cls-103{fill:#548126;}.cls-104{fill:#618b2b;}.cls-105{fill:#527d1d;}.cls-106{fill:#88b93c;}.cls-107{fill:#9acf4a;}.cls-108{fill:#72a12d;}.cls-109{fill:#87ba3d;}.cls-110{fill:#5f8d21;}.cls-111{fill:#70a22e;}.cls-112{fill:#8bba3d;}.cls-113{fill:#8dc544;}.cls-114{fill:#70a831;}.cls-115{fill:#83c946;}.cls-116{fill:#8fc144;}.cls-117{fill:#669831;}.cls-118{fill:#487420;}.cls-119{fill:#92c245;}.cls-120{fill:#73a236;}.cls-121{fill:#568226;}.cls-122{fill:#8cbc42;}.cls-123{fill:#386217;}.cls-124{fill:#45701e;}.cls-125{fill:#afccbc;}.cls-126{fill:#7d955d;}.cls-127{fill:#30511d;}</style></defs><path class="cls-1" d="M115.34,243.89a6.14,6.14,0,0,1-5.21-2.91,11.06,11.06,0,0,1-1.41-2.81c-.54-1.51-1-3-1.35-4.43l-6.55,3.92,2-12.65c.06-.43.14-.84.22-1.25s.13-.69.17-1a49.8,49.8,0,0,0,.33-7.24,109.83,109.83,0,0,0-.85-12c-.42-3.49-1-7-1.67-10.61a32.59,32.59,0,0,1-10.06,1.76H90.5a30.78,30.78,0,0,1-16.14-4.61,40.6,40.6,0,0,1-11.62-10.8A59.35,59.35,0,0,1,54,162.07a71.51,71.51,0,0,1-3.07-13.8c-.31-2.58-.44-5.11-.54-7.28-.16-3.64-.36-6.93-.6-10.07-.23-2.93-.44-5.31-.69-7.47a94.63,94.63,0,0,0-3.44-17.82,39.45,39.45,0,0,0-6.36-12.39,6.45,6.45,0,0,1-1.64-2,6.24,6.24,0,0,1-1-1.8,8.32,8.32,0,0,1-.5-2.34,10.65,10.65,0,0,1,.73-2.35c1-2.1,3-2.65,5.27-2.65l4.95.9a136.47,136.47,0,0,1,44.47,18.28A89.3,89.3,0,0,1,98,89.9a119,119,0,0,1,14.75-18,177.42,177.42,0,0,1,34.94-27.19,214.11,214.11,0,0,1,43.5-20,192.05,192.05,0,0,1,22.5-6c.11-.09,6.47-1.56,6.47-1.56,2.51,0,3.45.75,4.34,3.11a6.1,6.1,0,0,1-1.15,6.22c-.15.18-.31.35-.46.51-.44.58-.89,1.15-1.34,1.72-.73.91-1.41,1.78-2,2.65a65.86,65.86,0,0,0-9.15,18.75A118,118,0,0,0,207,64.12c-.67,3.65-1.24,7.47-1.75,11.68-.41,3.43-.77,7-1.09,10.92-.4,4.9-.7,9.29-.9,13.41l-.16,3.12c-.11,2.44-.23,4.89-.37,7.33a101.46,101.46,0,0,1-1.13,10.16,109.25,109.25,0,0,1-4,16.64,90.5,90.5,0,0,1-12.14,24.53,63.84,63.84,0,0,1-14.21,14.73A47.84,47.84,0,0,1,154,184.8a43.79,43.79,0,0,1-10.1,1.18h0c-1.17,0-2.36,0-3.54-.13a50.06,50.06,0,0,1-15.42-3.8c-.14.7-.27,1.4-.41,2.1-.62,3.08-1.13,5.84-1.54,8.44,0,.21-.08.4-.12.56-.07.64-.16,1.23-.25,1.72,0,.28-.1.56-.13.84-.17,1.27-.35,2.54-.53,3.81l-.16,1.07c0,.12,0,.23-.05.34a7.49,7.49,0,0,1-.13,1.06,7.35,7.35,0,0,1-.13,1,6.79,6.79,0,0,1-.13,1.1,7.1,7.1,0,0,1-.13,1.16v0a9.22,9.22,0,0,1-.13,1.19,7.57,7.57,0,0,1-.12,1.24s0,.07,0,.11a7.74,7.74,0,0,1-.11,1.29c0,.1,0,.2,0,.3a6.06,6.06,0,0,1-.11,1.59,7.73,7.73,0,0,1-.11,1.18c0,.11,0,.22,0,.33a11.39,11.39,0,0,1-.1,1.33,5.68,5.68,0,0,1,0,.59,10.08,10.08,0,0,1-.1,1.74q0,.34,0,.69a18.3,18.3,0,0,1-.11,2.46v.34c0,.61,0,1.22,0,1.84a90,90,0,0,0,.35,10.18,2.56,2.56,0,0,1,0,.39,7.07,7.07,0,0,1,.13,1,7.64,7.64,0,0,1,.14,1.07l.28,1.41a6.12,6.12,0,0,1-2.21,7.16l-1.56,1.1Z"/><path class="cls-2" d="M110.34,238.89a6.14,6.14,0,0,1-5.21-2.91,11.06,11.06,0,0,1-1.41-2.81c-.54-1.51-1-3-1.35-4.43l-6.55,3.92,2-12.65c.06-.43.14-.84.22-1.25s.13-.69.17-1a49.8,49.8,0,0,0,.33-7.24,109.83,109.83,0,0,0-.85-12c-.42-3.49-1-7-1.67-10.61a32.59,32.59,0,0,1-10.06,1.76H85.5a30.78,30.78,0,0,1-16.14-4.61,40.6,40.6,0,0,1-11.62-10.8A59.35,59.35,0,0,1,49,157.07a71.51,71.51,0,0,1-3.07-13.8c-.31-2.58-.44-5.11-.54-7.28-.16-3.64-.36-6.93-.6-10.07-.23-2.93-.44-5.31-.69-7.47a94.63,94.63,0,0,0-3.44-17.82,39.45,39.45,0,0,0-6.36-12.39,6.45,6.45,0,0,1-1.64-2,6.24,6.24,0,0,1-1-1.8,8.32,8.32,0,0,1-.5-2.34,10.65,10.65,0,0,1,.73-2.35c1-2.1,3-2.65,5.27-2.65l4.95.9A136.47,136.47,0,0,1,86.55,96.29,89.3,89.3,0,0,1,93,84.9a119,119,0,0,1,14.75-18,177.42,177.42,0,0,1,34.94-27.19,214.11,214.11,0,0,1,43.5-20,192.05,192.05,0,0,1,22.5-6c.11-.09,6.47-1.56,6.47-1.56,2.51,0,3.45.75,4.34,3.11a6.1,6.1,0,0,1-1.15,6.22c-.15.18-.31.35-.46.51-.44.58-.89,1.15-1.34,1.72-.73.91-1.41,1.78-2,2.65a65.86,65.86,0,0,0-9.15,18.75,118,118,0,0,0-3.39,14c-.67,3.65-1.24,7.47-1.75,11.68-.41,3.43-.77,7-1.09,10.92-.4,4.9-.7,9.29-.9,13.41l-.16,3.12c-.11,2.44-.23,4.89-.37,7.33a101.46,101.46,0,0,1-1.13,10.16,109.25,109.25,0,0,1-4,16.64,90.5,90.5,0,0,1-12.14,24.53,63.84,63.84,0,0,1-14.21,14.73A47.84,47.84,0,0,1,149,179.8a43.79,43.79,0,0,1-10.1,1.18h0c-1.17,0-2.36,0-3.54-.13a50.06,50.06,0,0,1-15.42-3.8c-.14.7-.27,1.4-.41,2.1-.62,3.08-1.13,5.84-1.54,8.44,0,.21-.08.4-.12.56-.07.64-.16,1.23-.25,1.72,0,.28-.1.56-.13.84-.17,1.27-.35,2.54-.53,3.81l-.16,1.07c0,.12,0,.23-.05.34a7.49,7.49,0,0,1-.13,1.06,7.35,7.35,0,0,1-.13,1,6.79,6.79,0,0,1-.13,1.1,7.1,7.1,0,0,1-.13,1.16v0a9.22,9.22,0,0,1-.13,1.19,7.57,7.57,0,0,1-.12,1.24s0,.07,0,.11a7.74,7.74,0,0,1-.11,1.29c0,.1,0,.2,0,.3a6.06,6.06,0,0,1-.11,1.59,7.73,7.73,0,0,1-.11,1.18c0,.11,0,.22,0,.33a11.39,11.39,0,0,1-.1,1.33,5.68,5.68,0,0,1,0,.59,10.08,10.08,0,0,1-.1,1.74q0,.34,0,.69a18.3,18.3,0,0,1-.11,2.46v.34c0,.61,0,1.22,0,1.84a90,90,0,0,0,.35,10.18,2.56,2.56,0,0,1,0,.39,7.07,7.07,0,0,1,.13,1,7.64,7.64,0,0,1,.14,1.07l.28,1.41a6.12,6.12,0,0,1-2.21,7.16l-1.56,1.1Z"/><path class="cls-3" d="M100.3,179.44a44.47,44.47,0,0,1-5.24,2.44,27.63,27.63,0,0,1-9.2,1.78,24.69,24.69,0,0,1-13.39-3.73,35.14,35.14,0,0,1-9.92-9.25,53.8,53.8,0,0,1-7.87-15.49,65.06,65.06,0,0,1-2.81-12.64c-.28-2.27-.4-4.55-.51-6.83q-.22-5.13-.61-10.26-.28-3.85-.7-7.68a99.57,99.57,0,0,0-3.69-19,45.72,45.72,0,0,0-7.43-14.37,2.89,2.89,0,0,0-.83-.84c-.33-.19-.17-.64-.47-.83a.13.13,0,0,1,0-.18,5.28,5.28,0,0,0,2.72,1.19,130.72,130.72,0,0,1,48.53,21.29c.12.09.25.17.38.25a.84.84,0,0,0,.19-.36A76.73,76.73,0,0,1,98,88.21a113.76,113.76,0,0,1,14-17.1,172.25,172.25,0,0,1,33.78-26.26,207.7,207.7,0,0,1,42.28-19.5,184.87,184.87,0,0,1,22.7-6,1.91,1.91,0,0,0,.82-.37l1.78-1.36c.14,0,.17,0,.14.14-1.27,1.7-2.65,3.32-3.89,5.06a72.07,72.07,0,0,0-10,20.43A122.64,122.64,0,0,0,196.05,58c-.73,4-1.32,8-1.8,12-.45,3.71-.81,7.42-1.12,11.15-.37,4.53-.69,9.06-.92,13.6-.17,3.47-.32,6.94-.52,10.4a96,96,0,0,1-1.07,9.56,101.38,101.38,0,0,1-3.79,15.72,85.51,85.51,0,0,1-11.33,22.92,58.06,58.06,0,0,1-12.89,13.38A41.39,41.39,0,0,1,147.56,174a37.66,37.66,0,0,1-11.78.9A46.55,46.55,0,0,1,118,169.55c-.74-.38-1.47-.78-2.23-1.19a6.76,6.76,0,0,0-.41,1.51c-.37,1.56-.72,3.12-1.08,4.68-.27,0-.24-.24-.28-.41a25.76,25.76,0,0,1,.65-3.26c.21-1,.44-2,.7-3a1.15,1.15,0,0,1,.31-.7c.27-.13.36.17.54.24a47.16,47.16,0,0,0,19,6.39A36.17,36.17,0,0,0,153.21,171a44.44,44.44,0,0,0,12.12-7.72,64,64,0,0,0,12-14.45,87,87,0,0,0,8.56-18.65,99.35,99.35,0,0,0,4.21-18.81q.49-4,.68-8.06c.12-2.74.24-5.48.39-8.22.2-3.41.39-6.83.66-10.24.4-4.86.82-9.71,1.4-14.54a164.76,164.76,0,0,1,4.13-22.81,81.56,81.56,0,0,1,6.59-17.41,61,61,0,0,1,4.73-7.67c.12-.15.29-.23.4-.38s0-.06.08-.06,0,0-.07,0-.26.22-.37.35c-1,1-2.1,1.73-3.15,2.59-3.14,2.58-6.25,5.19-9.29,7.89s-5.74,5.22-8.57,7.89-5.67,5.51-8.42,8.35-5.67,6-8.38,9.1c-1.12,1.3-2.24,2.59-3.45,4a25.39,25.39,0,0,1,6.46-1.86,24.86,24.86,0,0,1,6.89-.23c.26,0,.53,0,.67.32a.21.21,0,0,1-.1.18,1.65,1.65,0,0,1-.66.09c-1,0-2-.19-3.08-.13a2.92,2.92,0,0,0-.72.06,29.21,29.21,0,0,0-5.58.88,28.38,28.38,0,0,0-3.79,1.33,4.82,4.82,0,0,0-2.09,1.64.43.43,0,0,1-.2.07.26.26,0,0,1-.23-.16.75.75,0,0,1,.21-.6c1.64-2,3.29-4.06,5-6,1.86-2.2,3.8-4.33,5.71-6.47.58-.66,1.19-1.29,1.79-1.93,2.54-2.75,5.17-5.4,7.86-8,1.77-1.7,3.54-3.41,5.39-5l1.84-1.62a10.12,10.12,0,0,0,.85-.75,5.17,5.17,0,0,0,.73-.6l.08,0,.15,0,.1,0c-.07,0-.08,0-.14,0a.49.49,0,0,1-.17,0,.25.25,0,0,1-.1-.24c.06-.24.25-.35.42-.49,2.55-1.92,4.87-4.11,7.33-6.13s5-4.05,7.5-6c-4,.8-7.92,1.78-11.84,2.84-3.27.88-6.5,1.87-9.71,2.94q-8.48,2.82-16.68,6.37c-3.72,1.61-7.39,3.3-11,5.13a208.9,208.9,0,0,0-19.44,11.13,190.36,190.36,0,0,0-18.23,13.46,147.57,147.57,0,0,0-12.38,11.73A104.36,104.36,0,0,0,97.68,90a69.65,69.65,0,0,0-9.26,21.09,49.36,49.36,0,0,0-1.3,8.65c-.07,1.27-.12,2.54-.1,3.81a43.92,43.92,0,0,0,1.82,11.55,49.41,49.41,0,0,0,10.24,18.17,73.44,73.44,0,0,0,12,11c.21.15.41.33.64.48.22-.17.13-.58.47-.66.17,0,.21.18.24.32a6.26,6.26,0,0,1-.62,2.48c-.27.08-.27-.13-.33-.28.18-.71-.17-1.11-.72-1.5a76.14,76.14,0,0,1-10.07-8.74c-.84-.86-1.61-1.79-2.43-2.68a4.14,4.14,0,0,1-.43-.56,5.37,5.37,0,0,1-.44-.53,4.72,4.72,0,0,0-.41-.48A51.66,51.66,0,0,1,90.55,142c-.58-1.2-1.1-2.43-1.58-3.68-.2-.7-.54-1.36-.71-2.07a42.09,42.09,0,0,1-1.93-9.28,46.82,46.82,0,0,1-.09-7.49,53.84,53.84,0,0,1,2.45-12.65,1,1,0,0,0-.46-1.32A131.74,131.74,0,0,0,74.47,97a133,133,0,0,0-22.7-9.54c-3.48-1.1-7-2-10.57-2.79l-.74-.17c1.36,1,2.7,2.13,4,3.23.74.59,1.45,1.21,2.17,1.82A.91.91,0,0,1,47,90c0,.31-.25.2-.39.28a.58.58,0,0,1-.26,0,8.84,8.84,0,0,1-1.91-1.47c-1.24-1-2.54-2-3.74-3.09a1.24,1.24,0,0,1-.27-.29s0-.1,0,0,.06,0,.07.07a1.85,1.85,0,0,0,.36.38,28.34,28.34,0,0,1,2.71,4.36,56.51,56.51,0,0,1,5.21,14.81,127.15,127.15,0,0,1,2.13,14c.32,3.21.6,6.42.79,9.64.14,2.48.29,4.95.39,7.43a66.24,66.24,0,0,0,3.82,20.38,50.32,50.32,0,0,0,9.35,16.32,32.06,32.06,0,0,0,9,7.25,24.07,24.07,0,0,0,9.16,2.73A26.79,26.79,0,0,0,97.5,180c.7-.33,1.38-.68,2.06-1,.2-.1.38-.24.62-.15S100.48,179.2,100.3,179.44Z"/><path class="cls-4" d="M100.3,179.44a1,1,0,0,0-.13-.55,1.34,1.34,0,0,1-.33-.71c-.72-2.83-1.47-5.65-2.29-8.46a3.64,3.64,0,0,0-1.17-1.78,30.78,30.78,0,0,0-9.84-5.5,35.55,35.55,0,0,0-8.2-1.91,20.36,20.36,0,0,0-9,.84c-.24.09-.6.36-.75,0s.25-.51.52-.62a17.34,17.34,0,0,1,5.63-1.28,35.51,35.51,0,0,1,16.59,3.19,32.66,32.66,0,0,1,4.83,2.68c-.33-1-.61-1.86-.91-2.73-1.17-3.31-2.43-6.59-3.71-9.87a7.17,7.17,0,0,0-2.4-3.21A32.77,32.77,0,0,0,80.82,145a36.61,36.61,0,0,0-8.49-2.09,21.12,21.12,0,0,0-9.57.82c-.24.09-.59.36-.74,0s.25-.51.52-.61a18.32,18.32,0,0,1,6.11-1.27,35.38,35.38,0,0,1,15.15,2.9,32.74,32.74,0,0,1,5.6,3c-1.2-2.74-2.46-5.37-3.78-8-1.2-2.35-2.47-4.66-3.75-7a5.07,5.07,0,0,0-1.37-1.4,24.16,24.16,0,0,0-12.57-5,12.55,12.55,0,0,0-5.73.51,1.16,1.16,0,0,1-.32.08c-.18,0-.38.06-.46-.14s.11-.35.27-.45a1.17,1.17,0,0,1,.3-.14,13.25,13.25,0,0,1,5.24-.86,22,22,0,0,1,5.53.73,27.17,27.17,0,0,1,6.7,2.69c-.7-1.26-1.43-2.39-2.16-3.51-2.36-3.64-4.86-7.17-7.46-10.64a7.63,7.63,0,0,0-3-2.34,20,20,0,0,0-3.84-1.38c-.19,0-.4-.05-.5-.27s.16-.22.29-.27a10.63,10.63,0,0,1,3.8,1.13,4.82,4.82,0,0,0,1.55.65.58.58,0,0,1,.29,0,6.11,6.11,0,0,1,1.44,1.6,161,161,0,0,1,12.45,18.69c1.88,3.28,3.66,6.61,5.29,10,2.69,5.64,5.13,11.38,7.24,17.25a182.77,182.77,0,0,1,5.65,18.74,35.35,35.35,0,0,1,1,4.57c0,.16,0,.37-.28.38-.27-1.15-.53-2.3-.8-3.44C100.4,179.78,100.35,179.61,100.3,179.44Z"/><path class="cls-5" d="M101.24,183.39c.15-.11.11-.27.13-.41.36.1.33.43.39.69,1.06,4.88,1.84,9.8,2.44,14.75a113.45,113.45,0,0,1,.78,16.17,20.42,20.42,0,0,1-.35,3.4c-.08.24-.11.49-.18.73,0,.09.09.07.06,0s0-.34.06-.51a6.66,6.66,0,0,1,.31-1.32c.07-.14.08-.42.38-.25a1.47,1.47,0,0,1,0,1.55c-.13-.05-.09-.18-.12-.27a.32.32,0,0,1,0-.23.38.38,0,0,1-.06.23c-.22.68-.44,1.38-.67,2.06a1.65,1.65,0,0,1-.66.93c.13-.86.31-1.65.42-2.45a57.59,57.59,0,0,0,.37-8.09,115.66,115.66,0,0,0-.9-12.61q-.86-7.09-2.35-14.08A3.16,3.16,0,0,1,101.24,183.39Z"/><path class="cls-6" d="M105.29,218.22a5.13,5.13,0,0,0-.12-1.61.33.33,0,0,1,0-.2,4.64,4.64,0,0,0,0-.53c-.07-2.39.21-4.76.28-7.14a1.9,1.9,0,0,1,.26-1.06c.35-.07.31.21.34.39a7.73,7.73,0,0,1,0,.83c0,2.83-.33,5.65-.28,8.48a2.06,2.06,0,0,0,.25,1,12.82,12.82,0,0,1,1.06,3c.8,2.8,1.55,5.63,2.31,8.44a1.91,1.91,0,0,0,.15.58,2.46,2.46,0,0,0,.07.29,3.32,3.32,0,0,0-.15-.54,4.06,4.06,0,0,1-.08-.69,1.12,1.12,0,0,1,.11-.51.14.14,0,0,1,.19,0l0,.22c.12.22,0,.48.11.7l.55,2.77c0,.13,0,.17-.15.14a4.63,4.63,0,0,1-.82-1.57c-.73-2-1.24-4.15-1.82-6.25-.49-1.82-.94-3.65-1.57-5.43A2.62,2.62,0,0,0,105.29,218.22Z"/><path class="cls-7" d="M109.66,228.89h-.13a.13.13,0,0,1-.18,0,.89.89,0,0,1-.12-.42,2.21,2.21,0,0,0-.13-.76,11.71,11.71,0,0,1-.26-2.42c-.28-4-.16-8-.15-12a17.63,17.63,0,0,1,.16-1.77,3,3,0,0,0,.11-.58c0-.3,0-.6,0-.9a5.7,5.7,0,0,1,0-1,3.67,3.67,0,0,0,.09-1.19,3.64,3.64,0,0,1,0-.74c0-.11,0-.21.07-.31a7.3,7.3,0,0,0,0-.81,1.35,1.35,0,0,1,.1-.63.18.18,0,0,1,.18-.08.19.19,0,0,1,.09.18v.22a4.23,4.23,0,0,1,0,.87,1.56,1.56,0,0,1,0,.61.52.52,0,0,0,0,.3,4.71,4.71,0,0,1,0,1.06,1.62,1.62,0,0,1,0,.62.47.47,0,0,0,0,.31,8.16,8.16,0,0,1,0,1.31,3.69,3.69,0,0,1,0,.88c-.16.76,0,1.53-.1,2.29s0,1.71,0,2.56a98.37,98.37,0,0,0,.38,10.86c0,.24,0,.49,0,.73s0,.48.09.7Z"/><path class="cls-8" d="M114.14,174.14c0,.14,0,.31.13.41-.22,1.14-.44,2.28-.67,3.42-.57,2.88-1.11,5.77-1.58,8.67a3.54,3.54,0,0,1-.11.44c-.28,0-.26-.24-.31-.41a35.24,35.24,0,0,1,.65-4.22c.46-2.55.94-5.09,1.51-7.61C113.82,174.58,113.79,174.25,114.14,174.14Z"/><path class="cls-9" d="M111.76,186.65c0,.15,0,.32.15.43-.06,1-.29,1.9-.41,2.86-.21,1.6-.45,3.2-.68,4.81,0,.17-.07.34-.1.51s0,.57-.12.83l0,.35a.23.23,0,0,1-.22.05.28.28,0,0,1-.14-.18,10.11,10.11,0,0,1,.21-2.33c.29-2.19.6-4.38,1-6.55C111.45,187.15,111.39,186.79,111.76,186.65Z"/><path class="cls-10" d="M110.33,196.45h.13a1,1,0,0,1,0,.7l0,.35c-.12.23,0,.49-.1.72l0,.34c-.14.27,0,.57-.11.85a1.07,1.07,0,0,1,0,.47c-.13.26,0,.56-.1.82l0,.36c-.13.28,0,.59-.1.86a.9.9,0,0,1,0,.46c-.42-.12-.24-.49-.3-.75a2.81,2.81,0,0,1,0-.65,2.16,2.16,0,0,0,.09-.72,3.15,3.15,0,0,1,0-.52,2.25,2.25,0,0,0,.07-.82,4.69,4.69,0,0,1,.18-1.49,2.85,2.85,0,0,0,.12-.71A.39.39,0,0,1,110.33,196.45Z"/><path class="cls-11" d="M109.78,201.55c.08.27-.09.58.14.83v.14c-.11.27,0,.57-.09.84a1.06,1.06,0,0,1,0,.47c-.12.25,0,.51-.06.76a1.59,1.59,0,0,1,0,.38l0,.44q-.06.09-.12,0v-.13a.71.71,0,0,1-.12-.18,2.55,2.55,0,0,1-.06-.73,3.14,3.14,0,0,1,0-.61,2,2,0,0,0,.08-.41,4.69,4.69,0,0,0,0-.53C109.55,202.39,109.29,201.88,109.78,201.55Z"/><path class="cls-12" d="M109.16,213.9c0-.67,0-1.33,0-2a.4.4,0,0,1,.12-.29A12.51,12.51,0,0,1,109.16,213.9Z"/><path class="cls-13" d="M109.29,210.73v-1.49s.07,0,.11,0A5,5,0,0,1,109.29,210.73Z"/><path class="cls-12" d="M109.42,208.49v-1.23a.07.07,0,0,1,.11,0A3.64,3.64,0,0,1,109.42,208.49Z"/><path class="cls-14" d="M109.56,206.52l0-1c0-.05.07-.05.11,0A2.31,2.31,0,0,1,109.56,206.52Z"/><path class="cls-15" d="M110.08,200.7c0-.28-.11-.57.1-.82A1.75,1.75,0,0,1,110.08,200.7Z"/><path class="cls-15" d="M110,201.92c0-.29-.12-.59.1-.86A1.67,1.67,0,0,1,110,201.92Z"/><path class="cls-16" d="M110.6,196.09c0-.28-.11-.58.12-.83A1.7,1.7,0,0,1,110.6,196.09Z"/><path class="cls-17" d="M109.82,203.36c0-.28-.11-.58.09-.84A1.72,1.72,0,0,1,109.82,203.36Z"/><path class="cls-12" d="M109.69,204.64c0-.27-.12-.56.1-.81l0,.82Z"/><path class="cls-15" d="M110.21,199.41c0-.29-.11-.59.11-.85A1.66,1.66,0,0,1,110.21,199.41Z"/><path class="cls-18" d="M213.49,17.78l-.14-.14a.73.73,0,0,1,.39-.3.11.11,0,0,1,0,.17C213.68,17.62,213.62,17.74,213.49,17.78Z"/><path class="cls-19" d="M110.48,197.15l0-.7h.12A1.31,1.31,0,0,1,110.48,197.15Z"/><path class="cls-20" d="M109.79,229.81c-.2-.21-.12-.46-.11-.7A1.13,1.13,0,0,1,109.79,229.81Z"/><path class="cls-19" d="M110.35,198.22c0-.24-.11-.5.1-.72A1.26,1.26,0,0,1,110.35,198.22Z"/><path class="cls-20" d="M109.65,228.75c-.19-.21-.11-.46-.09-.7A1.2,1.2,0,0,1,109.65,228.75Z"/><path class="cls-21" d="M37.66,82.59l0,.18c-.13,0-.17-.16-.24-.25a.09.09,0,0,1,0-.1s0,0,0,0A.4.4,0,0,1,37.66,82.59Z"/><path class="cls-22" d="M110.19,232.72c.1,0,.12-.08.15-.14s.18.21,0,.3S110.21,232.84,110.19,232.72Z"/><path class="cls-23" d="M109.69,204.64a.06.06,0,0,1,.07,0,.27.27,0,0,1-.05.32C109.71,204.86,109.7,204.75,109.69,204.64Z"/><path class="cls-24" d="M213.75,17.51v-.17c0-.06.08-.09.11,0S213.82,17.47,213.75,17.51Z"/><path class="cls-25" d="M105.06,218c0-.09,0-.22.07-.22s.07.13,0,.22h-.11Z"/><path class="cls-26" d="M37.39,82.37v.15c-.08,0-.15-.1-.11-.18S37.36,82.31,37.39,82.37Z"/><path class="cls-12" d="M109.65,205.54h-.11v-.14h.12Z"/><path class="cls-12" d="M109.52,207.26h-.11l.11-.13Z"/><path class="cls-12" d="M109.39,209.24h-.11l.11-.13Z"/><path class="cls-27" d="M181.42,60.36a8.27,8.27,0,0,0-2.21-.23,27.65,27.65,0,0,0-10.08,1.54c-.66.23-1.3.51-2.11.83.26-.34.42-.58.6-.79,1.41-1.59,2.79-3.21,4.22-4.79s2.84-3.11,4.26-4.66c3.38-3.68,6.91-7.19,10.48-10.68,2.07-2,4.2-4,6.34-5.94,1.55-1.43,3.13-2.82,4.72-4.2,1.89-1.64,3.79-3.26,5.72-4.85q2.67-2.19,5.37-4.34c.14,0,.17,0,.15.14-.84,1.29-1.72,2.55-2.52,3.86a70.8,70.8,0,0,0-4.42,8.46,82.59,82.59,0,0,0-3.17,8.5c-1.09,3.47-2,7-2.73,10.56-.53,2.48-1,5-1.39,7.48-.27,1.62-.45,3.26-.71,4.88-.31,1.92-.49,3.86-.75,5.79-.19,1.45-.29,2.92-.43,4.38-.12,1.17-.28,2.34-.36,3.52,0,.73-.12,1.44-.17,2.17-.1,1.46-.24,2.92-.36,4.38-.06.7-.07,1.4-.12,2.1-.06.94-.14,1.88-.18,2.82-.08,1.86-.21,3.72-.29,5.58,0,.7-.07,1.4-.1,2.1-.09,2-.16,4-.28,6-.1,1.48-.22,3-.4,4.45-.24,2.06-.52,4.12-.87,6.17-.53,3.11-1.19,6.19-2,9.24a93.65,93.65,0,0,1-3.7,11.17q-1.67,4.15-3.74,8.13a73.69,73.69,0,0,1-7,11,66,66,0,0,1-4.39,5.08,49.75,49.75,0,0,1-9.74,8,38.81,38.81,0,0,1-13.39,5.29c-1.42.26-2.86.43-4.3.55a31.47,31.47,0,0,1-4.34.07,40,40,0,0,1-6.25-.81,49.71,49.71,0,0,1-12.92-4.77l-1.85-1a1.91,1.91,0,0,1,0-1.29c1.09-4.36,2.36-8.68,3.5-13a7.43,7.43,0,0,1,2.92-3.84,55.65,55.65,0,0,1,28.07-11,31.32,31.32,0,0,1,13.15,1.26c.29.1.57.21.85.33a25.24,25.24,0,0,0-7.95-2,42.87,42.87,0,0,0-7.43-.07,54,54,0,0,0-11.69,2.14,57.59,57.59,0,0,0-7.84,2.9,47.54,47.54,0,0,0-7.22,4.09c-.2.14-.41.42-.69.2s-.08-.5,0-.74c1.19-3.84,2.56-7.62,3.95-11.39,1.27-3.41,2.64-6.79,4-10.17a7.86,7.86,0,0,1,2.48-2.85,41.47,41.47,0,0,1,10.17-6.28,56.36,56.36,0,0,1,14.64-4.46,48.8,48.8,0,0,1,8.45-.66,27.63,27.63,0,0,1,9.32,1.79,29.12,29.12,0,0,0-8.6-2,44.46,44.46,0,0,0-4.47-.1,48.89,48.89,0,0,0-9.71,1.24,56.41,56.41,0,0,0-14,5,45.4,45.4,0,0,0-5.18,3.13,1.71,1.71,0,0,1-.27.2c-.15.08-.33.2-.48,0s-.06-.3,0-.44c.26-.68.56-1.34.86-2,2-4.38,4.08-8.72,6.3-13,1.63-3.11,3.29-6.21,5-9.25a7.63,7.63,0,0,1,2.07-2.09,38.43,38.43,0,0,1,18.55-7.79,23.65,23.65,0,0,1,9.55.37c.27.07.54.17.82.25a3.27,3.27,0,0,1,.39.15,11.37,11.37,0,0,0-1.24-.46c-.5-.15-1-.3-1.53-.41s-1-.22-1.49-.28a25.3,25.3,0,0,0-4.26-.31,40.28,40.28,0,0,0-13.77,2.94,32.9,32.9,0,0,0-5.39,2.74l-.11.07c-.19.09-.4.32-.59.11s0-.41.12-.59c1.2-2,2.45-4,3.72-6q5.18-8.07,11-15.71c.67-.89,1.34-1.8,2.08-2.64a8,8,0,0,1,2.25-1.58,28.21,28.21,0,0,1,9.82-3.28,37.54,37.54,0,0,1,4.86-.17,15.2,15.2,0,0,1,5.92,1.51,14.72,14.72,0,0,0-4.83-1.61C181.86,60.53,181.6,60.54,181.42,60.36Z"/><path class="cls-27" d="M112.17,164.14a1.13,1.13,0,0,0-.13.43.82.82,0,0,1-.22.46c-.9-.68-1.8-1.34-2.68-2-1.8-1.4-3.53-2.89-5.2-4.44-1.32-1.23-2.57-2.52-3.79-3.85a58.06,58.06,0,0,1-5.27-6.65,47.08,47.08,0,0,1-5.72-11.38,43.18,43.18,0,0,1-1.75-7c-.22-1.41-.37-2.82-.46-4.25a39.54,39.54,0,0,1-.08-4.07c0-1.51.17-3,.34-4.52a51.17,51.17,0,0,1,1.42-7.28,60.21,60.21,0,0,1,2.81-8.14A80.23,80.23,0,0,1,97,90.75q2.35-3.8,5.06-7.37c1.35-1.79,2.77-3.51,4.21-5.23a138.09,138.09,0,0,1,10.25-10.7c1.77-1.7,3.63-3.31,5.5-4.91q4.78-4.08,9.85-7.79,5.44-4,11.17-7.58,4.09-2.56,8.31-5c2.53-1.42,5.08-2.78,7.66-4.1,3.24-1.68,6.54-3.23,9.86-4.72q4.53-2,9.17-3.85c2.8-1.09,5.62-2.11,8.47-3.09a186.19,186.19,0,0,1,17.93-5.16c1.71-.41,3.42-.76,5.13-1.14a3.24,3.24,0,0,1,.45,0c-.68.55-1.28,1-1.89,1.52-1.82,1.41-3.6,2.87-5.38,4.34-2.09,1.73-4.16,3.5-6.21,5.29-.63.54-1.32,1-2,1.53a1.61,1.61,0,0,0-.22.23c-.32.59-.93.85-1.42,1.25-2.5,2-5,4.1-7.39,6.25s-4.74,4.3-7.06,6.51c-1.57,1.49-3.11,3-4.6,4.53-1.11,1.16-2.24,2.3-3.33,3.47-.15.16-.27.4-.53.31s-.22-.35-.23-.56a8.06,8.06,0,0,0-.1-1.77,24.66,24.66,0,0,0-4.3-11.18,24.1,24.1,0,0,1,3.8,10.28,34.79,34.79,0,0,1,0,3.54,2.8,2.8,0,0,1-.75,1.68c-3.28,3.53-6.39,7.22-9.42,11-2.36,2.91-4.64,5.89-6.86,8.91-.13.18-.25.42-.49.39s-.27-.38-.3-.6c-.13-1.08-.14-2.18-.35-3.26,0-.13-.05-.26-.08-.38A36.38,36.38,0,0,0,144.86,59a35.1,35.1,0,0,1,5.6,14.79,46.62,46.62,0,0,1,.15,4.73,2.62,2.62,0,0,1-.54,1.65q-6.25,8.85-11.71,18.22c-1,1.71-1.94,3.44-2.91,5.17a2.53,2.53,0,0,1-.12.23c-.1.14-.2.33-.4.29s-.22-.26-.22-.42c0-.55-.12-1.09-.14-1.64a48,48,0,0,0-2-11.65A61.77,61.77,0,0,0,125,74.05c-.47-.72-.92-1.45-1.41-2.15q1.26,2,2.4,4c.76,1.37,1.46,2.76,2.12,4.17a55.1,55.1,0,0,1,4.71,15,63.1,63.1,0,0,1,.52,10.9,7.38,7.38,0,0,1-1.05,3.68c-1.27,2.18-2.26,4.51-3.35,6.79q-1.95,4.11-3.71,8.29c-1.15,2.72-2.26,5.44-3.3,8.19a4,4,0,0,1-.28.67c-.08.14-.12.37-.36.31s-.25-.24-.27-.42c0-.35,0-.7,0-1a49.44,49.44,0,0,0-.65-6.54,50.67,50.67,0,0,0-1.76-7.69,64.27,64.27,0,0,0-5-11.76,83.26,83.26,0,0,0-4.91-8,79.93,79.93,0,0,1,4.57,8.19,60.86,60.86,0,0,1,5.37,16.41,40.23,40.23,0,0,1,.7,8,7.47,7.47,0,0,1,.07,1.83,3.65,3.65,0,0,0-.05,1,38.67,38.67,0,0,1-.27,4.81,19.26,19.26,0,0,1-.88,4.56c-2.2,6.45-4,13-5.64,19.63C112.47,163.42,112.5,163.85,112.17,164.14Z"/><path class="cls-28" d="M62.57,110.6c.87.27,1.76.5,2.62.81a14.6,14.6,0,0,1,3.57,1.8A8,8,0,0,1,70.3,115c2.57,3.36,5,6.83,7.27,10.39.78,1.21,1.56,2.42,2.27,3.68-.18.16-.26,0-.36,0a25.53,25.53,0,0,0-8.74-3.14,26.11,26.11,0,0,0-2.94-.27,14.07,14.07,0,0,0-5.79.81.89.89,0,0,0-.55.32c.06.2.19.15.31.1a12.48,12.48,0,0,1,2.48-.61c.24,0,.48-.06.72-.07a22.57,22.57,0,0,1,10.19,1.9,23.16,23.16,0,0,1,6,3.69,6.28,6.28,0,0,1,1.34,1.92q2.61,4.62,4.91,9.4c.78,1.63,1.52,3.3,2.28,4.94-.15.17-.26,0-.35,0a29.22,29.22,0,0,0-6.18-3.32A33.35,33.35,0,0,0,78.07,143a39.05,39.05,0,0,0-5.49-.91,30.77,30.77,0,0,0-4.07-.09,17.89,17.89,0,0,0-6,1.26c-.2.08-.48.11-.49.49.7-.18,1.34-.44,2-.63a19.49,19.49,0,0,1,6.58-.58A34.61,34.61,0,0,1,78.45,144a37.28,37.28,0,0,1,7,2.93A21.66,21.66,0,0,1,89.9,150a2.35,2.35,0,0,0,.32.23A3.62,3.62,0,0,1,91.45,152c1.31,3.28,2.61,6.56,3.75,9.9.41,1.22.81,2.45,1.25,3.65-.17.12-.27,0-.37-.07A34.56,34.56,0,0,0,86,160.92a40.49,40.49,0,0,0-5.45-1.11,11.72,11.72,0,0,0-2.29-.17,2.67,2.67,0,0,1-1.05-.08,1.17,1.17,0,0,0-.46,0,24.54,24.54,0,0,0-6.53,1c-.43.15-.86.33-1.28.51-.13.06-.3.11-.28.3s.16.07.24,0a16.4,16.4,0,0,1,5-1.08,18.38,18.38,0,0,1,2-.1,41,41,0,0,1,4.56.47,38,38,0,0,1,6.22,1.64,31.94,31.94,0,0,1,9,4.83c.31.24.6.51.91.76a3.52,3.52,0,0,1,1.13,1.86c.88,2.94,1.64,5.91,2.41,8.88a2.06,2.06,0,0,1,0,.26c-1.29.65-2.56,1.35-3.9,1.91a29.19,29.19,0,0,1-7.45,2.09,23.32,23.32,0,0,1-12.56-1.64,28.86,28.86,0,0,1-7.9-5,38.75,38.75,0,0,1-6.18-7,55.84,55.84,0,0,1-7.8-16.89,67.43,67.43,0,0,1-1.79-8.42c-.21-1.41-.36-2.82-.45-4.25-.12-1.75-.2-3.5-.27-5.25-.1-2.28-.24-4.56-.39-6.83s-.31-4.33-.53-6.49c-.26-2.48-.53-5-.87-7.44-.48-3.45-1.06-6.88-1.88-10.27a54.3,54.3,0,0,0-4.86-13.17c-.81-1.51-1.73-3-2.68-4.38a.16.16,0,0,1,0-.2c1.18.86,2.29,1.82,3.43,2.74.79.64,1.54,1.35,2.37,1.94a9.14,9.14,0,0,1,2,1.63c.6.51,1.21,1,1.75,1.57,3,2.68,5.9,5.48,8.74,8.33a20.73,20.73,0,0,0,1.41,1.55c1.39,1.39,2.65,2.89,4,4.3l.11.15a8.87,8.87,0,0,0,.86,1c.51.55,1,1.14,1.48,1.68.15.16.34.35.2.57s-.4.13-.6.06A17.19,17.19,0,0,0,62,110.06a13.08,13.08,0,0,0-7.12,1,11.08,11.08,0,0,1,5.9-.82A4.82,4.82,0,0,1,62.57,110.6Z"/><path class="cls-28" d="M47.06,90.16c-.94-.89-2-1.7-3-2.52-1.36-1.11-2.72-2.21-4.06-3.39,1,.22,2,.43,3,.66a122.86,122.86,0,0,1,13.3,3.92C59.8,90,63.17,91.4,66.5,92.9c3,1.37,6,2.84,9,4.44a128.17,128.17,0,0,1,13.23,8.25c.43.32.44.32.28.8a59,59,0,0,0-2.09,8.68c-.21,1.36-.35,2.74-.46,4.11s-.12,2.77-.11,4.15a42.7,42.7,0,0,0,1.51,10.84c.18.67.39,1.34.59,2-.19.4,0,.81-.07,1.22a2.31,2.31,0,0,1-.1.83c-.4.2-.43-.18-.53-.36-1.15-2.06-2.3-4.1-3.52-6.11q-2.74-4.5-5.78-8.81a2.61,2.61,0,0,1-.45-1.4,20.23,20.23,0,0,1,3.46-12.1,23,23,0,0,0-3.71,8.8,18.4,18.4,0,0,0-.24,2c0,.24,0,.59-.33.65s-.39-.23-.53-.42q-2.34-3.15-4.81-6.18c-1.49-1.81-3-3.61-4.6-5.33-.33-.35-.6-.76-.95-1.09A1.1,1.1,0,0,1,66,107c0-.77,0-1.54,0-2.31a15.56,15.56,0,0,1,2.36-6.44,16.07,16.07,0,0,0-2.61,6.51,3.79,3.79,0,0,0-.09,1.11c0,.28.11.66-.21.77s-.48-.23-.68-.43c-1.32-1.31-2.64-2.62-4-4-2.71-2.75-5.62-5.29-8.57-7.76-1.35-1.12-2.74-2.19-4.11-3.28A4.8,4.8,0,0,1,47.06,90.16Z"/><path class="cls-23" d="M109.78,201.55a3.85,3.85,0,0,0-.13,1.31,1.52,1.52,0,0,0-.05.56.45.45,0,0,1,0,.28l0,.61a2.63,2.63,0,0,0,0,.79.29.29,0,0,1,0,.18l0,.63a3.31,3.31,0,0,0,0,.89.38.38,0,0,1,0,.19l0,.76c-.13.4,0,.82-.09,1.22l0,1a4.24,4.24,0,0,0-.05.94.94.94,0,0,1,0,.41,105.54,105.54,0,0,0,.26,16.49c.11.22,0,.47.1.69l0,.36c.09.17,0,.36,0,.53s.17.45-.18.52c-.63-1.85-1.07-3.75-1.59-5.63-.46-1.64-.87-3.3-1.44-4.92a2.91,2.91,0,0,0-.62-1.21c-.18-.17-.11-.36-.11-.55,0-2.66.2-5.3.32-8,0-.21,0-.43,0-.65a.93.93,0,0,0,0-.52,17.9,17.9,0,0,1,0-2.74,5,5,0,0,1,0-.67,2.47,2.47,0,0,0,.09-.94v-.21a3.36,3.36,0,0,1,.06-.63,2.9,2.9,0,0,0,.07-.93,4.48,4.48,0,0,1,0-.64,2.64,2.64,0,0,0,.08-1c.12-.61.12-1.24.18-1.86a2.25,2.25,0,0,0,.09-.73,2.56,2.56,0,0,1,0-.62,2,2,0,0,0,.09-.69,2,2,0,0,1,0-.49,1.77,1.77,0,0,0,.08-.46,2.81,2.81,0,0,1,0-.29,2,2,0,0,1,0-.48,1.88,1.88,0,0,0,.07-.58A3.14,3.14,0,0,1,107,194a1.86,1.86,0,0,0,.08-.62c.12-1.17.29-2.33.43-3.5a2.51,2.51,0,0,0,.1-.6,2,2,0,0,1,0-.49,1.64,1.64,0,0,0,.09-.44c0-.06,0-.12,0-.18a2,2,0,0,1,0-.35,1.31,1.31,0,0,0,.08-.43v-.19a2.38,2.38,0,0,1,.06-.37,2.53,2.53,0,0,0,.06-.61c.52-3.42,1.07-6.83,1.71-10.23.29-1.6.6-3.19.92-4.78.08-.5.25-1,.31-1.48.22-.68.3-1.39.47-2.08a1.3,1.3,0,0,1,.3-.7,21,21,0,0,0,.56-2.47,33.57,33.57,0,0,1,1.12-5c1-4,2.15-8,3.4-12,1.77-5.58,3.65-11.11,5.82-16.55,1.86-4.64,3.81-9.23,5.91-13.77q2.91-6.3,6.21-12.42,3.51-6.44,7.37-12.66c1.94-3.1,3.95-6.15,6-9.18,2.27-3.35,4.66-6.62,7.13-9.83,2.19-2.84,4.43-5.65,6.75-8.39,2.15-2.54,4.35-5,6.59-7.5,2.43-2.69,4.94-5.3,7.5-7.86,2-2,4-3.91,6-5.78,2.67-2.43,5.38-4.83,8.17-7.13a.8.8,0,0,1,.58-.26c.1,0,.18.08.14.21L189,38.31a230.55,230.55,0,0,0-23.65,25.55c-.11.13-.2.29-.3.43a6.12,6.12,0,0,1-1.28,1.82c-1.88,2.36-3.67,4.79-5.43,7.24q-4,5.49-7.6,11.19c-2,3.2-4,6.47-5.89,9.74-1.42,2.44-2.78,4.92-4.13,7.41-1.68,3.08-3.26,6.22-4.8,9.37-2,4.2-3.93,8.48-5.76,12.77q-2.86,6.72-5.34,13.57c-1.64,4.51-3.11,9.07-4.54,13.65-1.56,5-2.91,10-4.2,15.08-.09.35,0,.76-.35,1-.39,1.21-.62,2.46-.9,3.69s-.55,2.17-.69,3.28a25.36,25.36,0,0,0-.65,2.87c-.62,3-1.16,6-1.67,9,0,.22,0,.44-.06.66a25,25,0,0,0-.5,2.83c-.32,2.15-.61,4.3-.9,6.44a4.71,4.71,0,0,0,0,.53l0,.23c-.12.22,0,.47-.1.68a8.18,8.18,0,0,0-.16,1.56c-.13.26,0,.56-.11.82l0,.49c-.1.22,0,.47-.09.7Z"/><path class="cls-28" d="M98.34,153.56l1.65,1.78a67.64,67.64,0,0,0,7,6.64c1.38,1.15,2.79,2.26,4.26,3.3.38.27.6.54.39,1,0,0,0,.13,0,.19a20.7,20.7,0,0,1-.51,2.72,2.71,2.71,0,0,1-.83,1.59,54.58,54.58,0,0,1-6.61,5.92c-.25.19-.48.47-.86.38a.9.9,0,0,1-.34-.62c-1.12-4.64-2.42-9.24-3.95-13.76a10.84,10.84,0,0,1-.39-2.53,3,3,0,0,0-.1-1,4.17,4.17,0,0,1,0-.71c0-1.4,0-2.79,0-4.19C98,154,97.91,153.67,98.34,153.56Z"/><path class="cls-29" d="M115.73,167.17a29.7,29.7,0,0,1,.72-3.07,282.33,282.33,0,0,1,12.47-37.72,268.53,268.53,0,0,1,16-32.61,251.68,251.68,0,0,1,17-25.55c.93-1.23,1.89-2.44,2.83-3.65a3.57,3.57,0,0,1,.27-.28l.13.15c.24.28.24-.17.4-.14a23.45,23.45,0,0,1,4.9-2.34,22.64,22.64,0,0,1,6.14-1.35,7.9,7.9,0,0,1,1.09-.12h.53a3,3,0,0,1,.43,0,6.59,6.59,0,0,0,1.66.08,1.39,1.39,0,0,1,.41,0c.22,0,.46.06.68-.07v-.13c.23,0,.48-.06.68.12-.26,0-.13.32-.32.34s-.5-.06-.75,0c-.81,0-1.62,0-2.44,0a25.78,25.78,0,0,0-9.2,2c-.89.37-1.75.82-2.62,1.24a9.88,9.88,0,0,0-3.61,3c-3.84,5.07-7.54,10.25-11,15.58-1.66,2.53-3.26,5.1-4.83,7.69a3.93,3.93,0,0,0-.17.37l1.31-.78a40.09,40.09,0,0,1,13.94-4.88,26.4,26.4,0,0,1,3.07-.32c.66,0,1.31-.11,2-.09a24.37,24.37,0,0,1,6.74.93c.63.2,1.23.47,1.85.71a.28.28,0,0,1,.21.22c-.21.18-.38,0-.56,0a17.59,17.59,0,0,0-4.08-1,28.51,28.51,0,0,0-4.8-.08,30.16,30.16,0,0,0-5.25.81,39.07,39.07,0,0,0-10,3.77,34.18,34.18,0,0,0-6.32,4.36,5.23,5.23,0,0,0-1.11,1.46l-3.23,5.89c-1.73,3.14-3.33,6.34-4.89,9.56-1.38,2.86-2.74,5.74-4,8.67.15.11.25,0,.34-.08a46.73,46.73,0,0,1,9.25-5.14,56.43,56.43,0,0,1,9-3q3.15-.75,6.38-1.18a44.77,44.77,0,0,1,8-.34,27,27,0,0,1,9.89,2.18c.1,0,.21.08.3.13a.15.15,0,0,1,.08.22.18.18,0,0,1-.17,0,2.35,2.35,0,0,1-.37-.14,23.93,23.93,0,0,0-5.45-1.43,33.17,33.17,0,0,0-6.37-.35c-1.31.06-2.61.18-3.92.34a52,52,0,0,0-7.22,1.38,57.34,57.34,0,0,0-8.69,3,49.43,49.43,0,0,0-8.45,4.69,29.31,29.31,0,0,0-4.22,3.57,2.45,2.45,0,0,0-.51.83c-1.74,4.22-3.43,8.45-5,12.75-.93,2.56-1.81,5.13-2.69,7.7-.22.66-.4,1.33-.6,2,.22.1.3,0,.41-.1a45.87,45.87,0,0,1,8.5-4.73,59.17,59.17,0,0,1,10.56-3.42c1.71-.38,3.43-.66,5.17-.9a43.79,43.79,0,0,1,8-.36,27.41,27.41,0,0,1,10.4,2.26c.14.06.14.06.34.35-.18.11-.34,0-.49-.06a25.24,25.24,0,0,0-6.3-1.54,34,34,0,0,0-5.52-.21c-1.28.06-2.57.18-3.86.34a52,52,0,0,0-6.89,1.33,58.82,58.82,0,0,0-8.27,2.82,49.18,49.18,0,0,0-9.16,5,31.63,31.63,0,0,0-4,3.33,1.93,1.93,0,0,0-.51.83c-.82,2.75-1.62,5.51-2.35,8.28q-.77,2.9-1.5,5.79a3.47,3.47,0,0,0-.21,1.36C115.83,167.49,115.91,167.25,115.73,167.17Z"/><path class="cls-30" d="M190.88,36.2c-1,.75-1.94,1.58-2.89,2.39q-5.51,4.72-10.68,9.81-7.55,7.38-14.37,15.43a235.71,235.71,0,0,0-18.38,24.73q-6.21,9.59-11.45,19.7a240.4,240.4,0,0,0-16,38.67q-2.67,8.49-4.71,17.13a.69.69,0,0,1-.13.37c0-.12,0-.23-.15-.29.23-1.41.63-2.77,1-4.15,1.07-4.21,2.24-8.41,3.55-12.56.52-1.62,1-3.25,1.59-4.86a10.32,10.32,0,0,0,.45-2.25c.05-.45.14-.9.17-1.36.32,0,.24.26.26.45s0,.39-.13.54c.19-.13.09-.35.14-.52.36-1.22.82-2.4,1.25-3.6a4.71,4.71,0,0,0,.27-1.54,47.8,47.8,0,0,0-.5-7.06,6.79,6.79,0,0,1,0-.78c.06-.21,0-.51.32-.55a20.35,20.35,0,0,1,.39,2.79,39.33,39.33,0,0,1,.29,4.85.32.32,0,0,0,.15.31,1.29,1.29,0,0,0,.27-.55c1-2.75,2.14-5.47,3.28-8.18q1.2-2.85,2.48-5.67c1.47-3.21,3-6.4,4.59-9.55a2.63,2.63,0,0,1,.21-.41,6,6,0,0,0,1-3.67c0-1.91.05-3.82,0-5.73,0-1.22-.18-2.44-.34-3.66a48.09,48.09,0,0,0-1.2-6.31,55.61,55.61,0,0,0-2.66-7.77,73.15,73.15,0,0,0-5.55-10.46,3.84,3.84,0,0,1-.21-.4s0-.08,0-.12c.74.36,3.87,5.49,6.08,10a56,56,0,0,1,4,11.1,54.18,54.18,0,0,1,1.56,11.75,10.34,10.34,0,0,0,1-1.62c1.85-3.35,3.79-6.63,5.79-9.88s4-6.37,6.16-9.49c.77-1.13,1.55-2.24,2.34-3.34a1.32,1.32,0,0,0,.3-.85c0-1.27,0-2.55,0-3.82a9.07,9.07,0,0,1-.11-1.38c.13-.11,0-.37.2-.42a.21.21,0,0,1,.16.13,28.16,28.16,0,0,1,.23,4.88,1.35,1.35,0,0,0,.2-1c0-1.16-.24-2.31-.27-3.47a.89.89,0,0,1,.27-.48,5.58,5.58,0,0,1,.26,1.34c.17.93.08,1.88.29,2.8.17,0,.24-.11.31-.21,2.07-2.91,4.27-5.73,6.5-8.52q2.36-3,4.83-5.82c1.69-2,3.38-3.92,5.16-5.81a2.46,2.46,0,0,0,.63-1.51c.13-1.17-.09-2.32,0-3.48.13-.11,0-.36.19-.43a.19.19,0,0,1,.16.12c.17.44,0,.91.16,1.35.08.74,0,1.48,0,2.11,0-.41,0-.92,0-1.44.1-.26,0-.58.25-.8.2.25.11.55.12.83,0,.45,0,.9,0,1.33.26.07.31-.07.39-.17s.2-.24.31-.35c2.28-2.33,4.5-4.73,6.87-7,1.57-1.5,3.13-3,4.73-4.47,1.85-1.68,3.72-3.34,5.62-5,2.06-1.77,4.14-3.51,6.31-5.15a1,1,0,0,1,.17-.1l.13.13s.06.06,0,.09,0,0,0,0h0a8.56,8.56,0,0,1-.89.7,3.75,3.75,0,0,1-.8.69A9.82,9.82,0,0,1,190.88,36.2Z"/><path class="cls-31" d="M98.19,158.6v.65c.16.3,0,.64.12.93a13.05,13.05,0,0,0,.53,3c1.51,4.38,2.73,8.85,3.82,13.36a.84.84,0,0,0,.28.57,4.52,4.52,0,0,1,.23.71c.71,3.41,1.44,6.81,2,10.26a40.76,40.76,0,0,1,.61,4.55c0,.21,0,.45-.23.58-.36-.14-.33-.48-.37-.77-.52-3.87-1.19-7.73-2-11.55a162.18,162.18,0,0,0-4.35-16.36,157.91,157.91,0,0,0-6.17-16c-1.9-4.26-4-8.39-6.32-12.45a152.74,152.74,0,0,0-11.06-16.85c-2.69-3.58-5.57-7-8.56-10.35-2.5-2.78-5.16-5.41-7.82-8-1.23-1.21-2.52-2.38-3.85-3.49-.44-.52-1-.86-1.49-1.36l-1-.84-.13-.1a1,1,0,0,1-.18-.17.38.38,0,0,1-.11-.3.22.22,0,0,1,.17-.14c1,.75,1.92,1.59,2.87,2.4,3.53,3,6.73,6.34,10,9.61a2.8,2.8,0,0,0,.26.21,5.5,5.5,0,0,0,.06-1c0-.26-.08-.54.13-.76a5.09,5.09,0,0,1,.18.67,2.87,2.87,0,0,1-.05.93,2.55,2.55,0,0,0-.06-1.42c0-.34.12-.48.46-.3,0,.76,0,1.53,0,2.3a1.18,1.18,0,0,0,.34.88q2.52,2.78,4.92,5.65c2,2.38,3.85,4.82,5.76,7.38a5.11,5.11,0,0,0,.2-.92A19.66,19.66,0,0,1,79,113.57a24.15,24.15,0,0,1,2.43-4.36,2.52,2.52,0,0,1,.21-.25s.08,0,.13,0c.14.19,0,.33-.1.46a26,26,0,0,0-2.71,5.77,15.66,15.66,0,0,0-.79,4.9c0,.59,0,1.18,0,1.78a1.4,1.4,0,0,0,.3.85q2.4,3.38,4.6,6.88c1.16,1.84,2.27,3.7,3.36,5.58.6,1,1.17,2.1,1.76,3.15.54.38.65,1,1,1.55a145,145,0,0,1,7.49,16.54,35.8,35.8,0,0,1,.39-4.06.31.31,0,0,1,.14-.21.94.94,0,0,1,.36.43,7.48,7.48,0,0,1-.12,1.95c-.12,1,0,2-.18,2.95-.09.6.3,1.13.45,1.7.07.25.2.48.25.74a1.08,1.08,0,0,0,.1.51c0-.09-.06-.15-.07-.23,0-.24-.06-.47-.07-.71S97.73,158.76,98.19,158.6Z"/><path class="cls-28" d="M97.16,152.12,96.71,157c-.44-1.09-.84-2.07-1.23-3.06-.68-1.73-1.42-3.44-2.18-5.14-1.07-2.4-2.19-4.78-3.38-7.13-.31-.6-.64-1.2-1-1.8,0-.53-.27-1.09.13-1.59l1.07,2.46a50.26,50.26,0,0,0,6.65,10.9Z"/><path class="cls-32" d="M52.29,94.38l-.12.13c-.07.08-.15,0-.22,0,.13.07.21.21.33.29l.15.09h0c.41.28.71.7,1.13,1,.49.44,1,.87,1.46,1.35,1.86,1.74,3.65,3.54,5.4,5.39,2.71,2.86,5.31,5.84,7.76,8.93.14.18.29.35.22.59l-.13.16a17.11,17.11,0,0,0-4.57-1.79l-.71-.14a3.37,3.37,0,0,0-.9-.12,4.29,4.29,0,0,0-1.24-.13,4.12,4.12,0,0,1,1.16.11c.26.07.55,0,.78.15l.06.09a.28.28,0,0,1-.27.12,10.29,10.29,0,0,1-1.76-.17,11.1,11.1,0,0,0-6.15.9l-.24.11c-.07,0-.13,0-.17,0a.14.14,0,0,1,.07-.21,11.6,11.6,0,0,1,1.42-.69,12.5,12.5,0,0,1,3.79-.69,19.12,19.12,0,0,1,6.15.84,8.86,8.86,0,0,0,1.28.45c.13-.19,0-.26-.1-.35-.48-.54-1-1.07-1.46-1.61a.56.56,0,0,1-.19-.33c-.17-.4-.57-.61-.79-1h0c-1.3-1.51-2.65-3-4-4.43-3.23-3.45-6.65-6.71-10.15-9.88-1.13-1-2.21-2-3.36-2.9-.14-.12-.35-.22-.28-.47s.29,0,.44,0c.56.23.89.75,1.36,1.1,1.26.94,2.48,1.94,3.71,2.92A1.08,1.08,0,0,1,52.29,94.38Z"/><path class="cls-33" d="M177.72,60.61a27.61,27.61,0,0,0-12.1,3.82l-.13,0a.16.16,0,0,1-.21,0,4.24,4.24,0,0,1,1.95-1.67A25.94,25.94,0,0,1,175,60.6a17.15,17.15,0,0,1,1.76-.13,3.17,3.17,0,0,1,.87,0C177.75,60.47,177.77,60.53,177.72,60.61Z"/><path class="cls-34" d="M97.81,160a16.93,16.93,0,0,0-.59-1.6,2.45,2.45,0,0,1-.18-1.35c.14-1,.06-2.1.22-3.14a5.5,5.5,0,0,1,.26-1.4l.43.51a6.56,6.56,0,0,1,.08,2.21,13.59,13.59,0,0,0,0,2.21c.07.66-.1,1.31-.06,2C97.9,159.63,98.19,159.94,97.81,160Z"/><path class="cls-35" d="M89.1,138.28c0,.37,0,.74,0,1.11,0,.17,0,.35-.12.48-.28-.52-.55-1.05-.82-1.57,0-.65,0-1.31,0-2,0-.2.1-.2.25-.15C88.62,136.89,89,137.55,89.1,138.28Z"/><path class="cls-36" d="M97.94,159.51a57.83,57.83,0,0,1,0-6.45l.39.5c-.21.19-.14.45-.14.68,0,1.45,0,2.91,0,4.36-.25.29-.07.63-.14.94C98,159.58,98,159.57,97.94,159.51Z"/><path class="cls-37" d="M46.62,90.16A5.8,5.8,0,0,0,48,91.4c.79.69,1.58,1.36,2.36,2.06a.15.15,0,0,1-.13.13c-.84-.72-1.68-1.44-2.5-2.18a7,7,0,0,1-1.2-1.1Z"/><path class="cls-38" d="M111,169.29a16.71,16.71,0,0,1,.64-2.8c0,.15,0,.31.12.41a22.35,22.35,0,0,1-.62,2.81C111,169.61,111.12,169.4,111,169.29Z"/><path class="cls-39" d="M177.73,60.5l-.93,0a1.07,1.07,0,0,1,.63-.1,24.58,24.58,0,0,1,3.32.13c.05,0,.07,0,.05.07a.05.05,0,0,1-.05,0l-.39,0a6.45,6.45,0,0,1-1.7,0l-.42,0C178.09,60.49,177.88,60.62,177.73,60.5Z"/><path class="cls-40" d="M190.88,36.2a19.94,19.94,0,0,1,1.88-1.56c.14-.06.16,0,.13.12-.6.55-1.18,1.12-1.83,1.61Z"/><path class="cls-41" d="M192.89,34.76l-.13-.12.8-.66a.12.12,0,0,1,.19,0A4.78,4.78,0,0,1,192.89,34.76Z"/><path class="cls-42" d="M193.75,34l-.19,0c.3-.23.52-.56.92-.66A1.71,1.71,0,0,1,193.75,34Z"/><path class="cls-43" d="M194.61,33.19a.59.59,0,0,1,.48-.36,1.08,1.08,0,0,1-.48.49s-.05-.06,0-.09S194.6,33.19,194.61,33.19Z"/><path class="cls-44" d="M208.88,22.39l-.15-.14c.08-.15.24-.2.39-.27h0A.42.42,0,0,1,208.88,22.39Z"/><path class="cls-45" d="M180.75,60.61a.2.2,0,0,0,0-.11h.67C181.23,60.71,181,60.6,180.75,60.61Z"/><path class="cls-46" d="M40.68,85.63l0,.2a.46.46,0,0,1-.24-.42h0A.37.37,0,0,1,40.68,85.63Z"/><path class="cls-47" d="M165.28,64.43l.21,0a.53.53,0,0,1-.13.13c-.06.05-.14.13-.21.06s0-.14,0-.22Z"/><path class="cls-48" d="M194.61,33.19v.13h-.13v-.14Z"/><path class="cls-44" d="M209.12,22l.06-.05a0,0,0,0,0,0,0s0,0,0,0Z"/><path class="cls-46" d="M40.42,85.41l-.05,0s0,0,.05,0Z"/><path class="cls-23" d="M68.39,112.15a32.74,32.74,0,0,0-2.08-2.62c-2.77-3.33-5.67-6.54-8.74-9.59-.89-.88-1.76-1.77-2.64-2.66,0-.12,0-.19.15-.14,2,1.66,3.87,3.44,5.71,5.27s3.68,3.66,5.42,5.58q4.37,4.8,8.34,9.93,3.47,4.52,6.61,9.28,3.51,5.34,6.56,11a156.16,156.16,0,0,1,9.59,21.37,160,160,0,0,1,5.19,17.52c.9,3.78,1.62,7.59,2.26,11.42.25,1.55.46,3.12.69,4.68a6,6,0,0,1,.44,2.29c.2,1.47.3,2.95.48,4.42,0,.46,0,.93,0,1.39a2.91,2.91,0,0,0-.12,1c0,.21,0,.43,0,.64a2.29,2.29,0,0,0-.11.82v.22a4.86,4.86,0,0,1,0,.66c-.18.86-.06,1.74-.23,2.6,0,.17,0,.35-.13.5-.23,2.8-.36,5.6-.43,8.41-.07.13,0,.3-.1.42a.5.5,0,0,0,0,.12,16.91,16.91,0,0,0-.53,1.71c-.12,0-.18,0-.13-.13a73.46,73.46,0,0,0,.26-9.73c0-1.88-.18-3.76-.34-5.64-.13-1.51-.26-3-.45-4.52-.24-2-.51-4-.82-6q-.54-3.57-1.28-7.11a15.33,15.33,0,0,0-.51-2.23,18.33,18.33,0,0,0-.47-2.32q-1.75-7.66-4.18-15.14-2.66-8.18-6-16.07c-1.55-3.58-3.21-7.12-5-10.59q-3.51-6.8-7.61-13.24-3.89-6.09-8.29-11.79A13.85,13.85,0,0,0,68.39,112.15Z"/><path class="cls-49" d="M79.61,160a24.49,24.49,0,0,1,4.34.67,37,37,0,0,1,9.18,3.34,31,31,0,0,1,3,1.82,1.65,1.65,0,0,1,.76,1c.07.31.19.62.33,1.09a34.77,34.77,0,0,0-18-7.82C79.26,159.85,79.45,160,79.61,160Z"/><path class="cls-50" d="M78.94,143.56a26,26,0,0,1,4,1.34,32.07,32.07,0,0,1,6.48,3.47A2.62,2.62,0,0,1,90.53,150c-.24,0-.35-.13-.47-.24a27.5,27.5,0,0,0-7-4.32,45,45,0,0,0-4.49-1.7C78.59,143.38,78.78,143.52,78.94,143.56Z"/><path class="cls-51" d="M80.78,131a24.44,24.44,0,0,0-9.25-4.49c-.17,0-.33-.1-.5-.15,0-.11,0-.19.14-.11a8,8,0,0,1,1.92.4,23.82,23.82,0,0,1,6.44,2.71,3.3,3.3,0,0,1,1.41,1.5C81,131,80.92,131.09,80.78,131Z"/><path class="cls-52" d="M63,110.33a13.52,13.52,0,0,1,4.4,1.33,2.49,2.49,0,0,1,.88.65c-.2.27-.36,0-.5-.06a19.81,19.81,0,0,0-3.14-1.35,8.87,8.87,0,0,0-1.78-.42l0,0C62.84,110.33,62.84,110.26,63,110.33Z"/><path class="cls-53" d="M78.94,143.56c-.14,0-.3,0-.4.13L75.91,143c0-.25.13-.18.27-.13A13.06,13.06,0,0,1,78.94,143.56Z"/><path class="cls-54" d="M79.61,160c-.14,0-.3,0-.4.13-.66,0-1.31-.18-2-.13-.06-.07,0-.13,0-.17a2.6,2.6,0,0,1,.88,0C78.63,160,79.14,159.81,79.61,160Z"/><path class="cls-55" d="M78.15,159.9l-.93,0a2.94,2.94,0,0,1-1.32,0l-.37,0A7.68,7.68,0,0,1,78.15,159.9Z"/><path class="cls-56" d="M72.48,142.5a13.92,13.92,0,0,0-1.58-.2,3.67,3.67,0,0,1,1.71.08A.3.3,0,0,1,72.48,142.5Z"/><path class="cls-57" d="M73.66,142.51a6.35,6.35,0,0,1,1.44.15c0,.13,0,.2-.15.13a9.14,9.14,0,0,1-1.28-.16s0,0,0-.08S73.65,142.51,73.66,142.51Z"/><path class="cls-58" d="M75,142.79l.15-.13a4.84,4.84,0,0,1,1.08.24.3.3,0,0,0-.27.13A3.15,3.15,0,0,1,75,142.79Z"/><path class="cls-59" d="M69.57,126.15c-.4,0-.78-.19-1.19-.18a1.74,1.74,0,0,1,1.19,0c.05,0,.06.06.05.08S69.59,126.15,69.57,126.15Z"/><path class="cls-60" d="M73.66,142.51a.49.49,0,0,0,0,.12,9.41,9.41,0,0,0-1.19-.13l.13-.12C73,142.43,73.33,142.26,73.66,142.51Z"/><path class="cls-61" d="M75.9,159.92h1.32a.5.5,0,0,0,0,.12C76.79,160,76.33,160.18,75.9,159.92Z"/><path class="cls-62" d="M71.17,126.29l-.14.11-.66-.13s-.05,0,0-.08,0,0,0,0C70.63,126.17,70.92,126.1,71.17,126.29Z"/><path class="cls-63" d="M70.36,126.15v.12l-.8-.12V126C69.84,126.05,70.12,126,70.36,126.15Z"/><path class="cls-64" d="M80.78,131l.16-.14.1.07c.06.07.14.15.09.22s-.19,0-.27-.06S80.81,131.07,80.78,131Z"/><path class="cls-65" d="M104.51,218.19l.13.13a.89.89,0,0,1-.2.53C104.41,218.63,104.33,218.41,104.51,218.19Z"/><path class="cls-66" d="M105.72,207.66a21.68,21.68,0,0,1,.24-3.21c.32.38-.09.84.13,1.22a28.68,28.68,0,0,1-.23,3.34C105.76,208.56,106,208.09,105.72,207.66Z"/><path class="cls-67" d="M109.29,229.93c.18-.14.08-.36.13-.54,0,0,.09,0,.1.05l0,.73c0,.12.12.29-.14.29C109.39,230.28,109.26,230.13,109.29,229.93Z"/><path class="cls-68" d="M109.42,230.46c.12-.07.12-.19.14-.29a1.11,1.11,0,0,1,.1.75C109.48,230.78,109.48,230.61,109.42,230.46Z"/><path class="cls-20" d="M109.52,229.44l-.1-.05v-.51h.11Z"/><path class="cls-5" d="M105.19,216.49a.46.46,0,0,1,.1-.42C105.32,216.22,105.34,216.38,105.19,216.49Z"/><path class="cls-12" d="M109.16,209a3.14,3.14,0,0,1,.09-1.22C109.24,208.16,109.38,208.58,109.16,209Z"/><path class="cls-14" d="M109.29,206.86a1.92,1.92,0,0,1,.1-1c0,.31,0,.63,0,1C109.36,206.9,109.32,206.9,109.29,206.86Z"/><path class="cls-13" d="M109,211a2,2,0,0,1,.09-1c0,.32,0,.64,0,1C109.1,211,109.07,211,109,211Z"/><path class="cls-20" d="M109.39,228.52a1.09,1.09,0,0,1-.1-.69C109.48,228,109.39,228.29,109.39,228.52Z"/><path class="cls-12" d="M109,211h.1c0,.14,0,.29-.1.39Z"/><path class="cls-12" d="M109.29,206.86h.11l-.11.13Z"/><path class="cls-12" d="M109.42,205.28v-.13c0-.06.07-.06.11,0a.62.62,0,0,0,0,.13Z"/><path class="cls-15" d="M109.94,199.74a1.54,1.54,0,0,1,.11-.82C110,199.2,110.16,199.49,109.94,199.74Z"/><path class="cls-15" d="M109.82,200.93a1.13,1.13,0,0,1,.09-.7C109.91,200.46,110,200.72,109.82,200.93Z"/><path class="cls-19" d="M110.21,197.36a1.07,1.07,0,0,1,.1-.68C110.31,196.91,110.41,197.16,110.21,197.36Z"/><path class="cls-14" d="M109.53,205.15h-.11a1.62,1.62,0,0,1,.1-.84Z"/><path class="cls-17" d="M109.56,203.44a.84.84,0,0,1,.09-.58v.57C109.63,203.49,109.6,203.5,109.56,203.44Z"/><path class="cls-12" d="M109.56,203.44h.1a.26.26,0,0,1-.11.27Z"/><path class="cls-3" d="M181,60.87a.31.31,0,0,1,.22-.11,3.38,3.38,0,0,0,.45,0c.38,0-.21-.19,0-.24a2.34,2.34,0,0,1,.38,0,11.51,11.51,0,0,1,3.6,1c.51.2,1,.48,1.47.73a.36.36,0,0,1,.26.43c-.7-.28-1.34-.64-2-.87a16,16,0,0,0-2.16-.58C182.51,61,181.77,61,181,60.87Z"/><path class="cls-30" d="M120.48,125.9c-.19.15-.11.36-.14.55-.3-.06-.26-.32-.3-.52A61.17,61.17,0,0,0,114.59,109c-.39-1-1-2-1.41-2.93a6,6,0,0,0-.47-.86,1.89,1.89,0,0,0-.19-.3c0-.15-.14-.27-.18-.41,0,0,0,0,0,0,.13.16.15.36.28.51l.15.22c.16.25.27.53.42.8.5,1.07,1.1,2.09,1.53,3.19a52.82,52.82,0,0,1,3.75,11.37,51.77,51.77,0,0,1,1.2,9.46,30.33,30.33,0,0,1,0,4.86c0,.22,0,.5-.28.61a8.25,8.25,0,0,1-.06-2.67c-.14-1.29-.05-2.59-.15-3.88-.13-1.74-.32-3.48-.59-5.21a57.53,57.53,0,0,0-2.57-10.1c-.6-1.74-1.3-3.45-2-5.13a84.17,84.17,0,0,0-5.55-10.23.36.36,0,0,1-.1-.33c.24-.07.33.14.43.28.65,1,1.32,1.91,2,2.89a75.63,75.63,0,0,1,5,9,63.23,63.23,0,0,1,3.64,10c.48,1.75.82,3.53,1.16,5.32C120.48,125.63,120.47,125.77,120.48,125.9Z"/><path class="cls-69" d="M150.43,73.4c0,.15,0,.3-.13.4a32.66,32.66,0,0,0-1.49-6.38,38.94,38.94,0,0,0-3.53-7.4l-.63-1c-.05-.09-.14-.18,0-.31s.33.23.44.4c.82,1.19,1.57,2.43,2.27,3.7a34.26,34.26,0,0,1,2.6,5.88,32.5,32.5,0,0,1,1.11,4.26,2.23,2.23,0,0,1,0,.45c0,.15,0,.31-.13.42-.36-.23-.31-.64-.37-1s-.1-.55-.16-.81a12.09,12.09,0,0,0-.36-1.69c-.12-.31-.15-.65-.28-1s-.3-.85-.38-1.29-.27-.7-.39-1-.2-.49-.29-.73a.24.24,0,0,1-.06-.11s0-.06.05-.07c-.16.12.05.16.05.24a6.55,6.55,0,0,0,.27.74l.39,1.06c.09.44.27.86.39,1.29s.15.65.27,1c.18.63.27,1.28.43,1.92,0,.21,0,.43.06.64A.53.53,0,0,1,150.43,73.4Z"/><path class="cls-70" d="M169.16,51.77c0,.15,0,.31-.13.41a25.45,25.45,0,0,0-1-4.48,28.16,28.16,0,0,0-2.82-5.85.77.77,0,0,1-.19-.42c.19-.13.27,0,.36.15A28,28,0,0,1,166.92,44a24,24,0,0,1,2.87,8.34,5.78,5.78,0,0,1,0,.72c0,.27.1.57-.12.81a.28.28,0,0,1-.12-.16c-.05-.22,0-.46-.13-.66a1.8,1.8,0,0,1,0-.4,5.78,5.78,0,0,0-.11-1c-.07-.46-.17-.93-.25-1.39-.12-.3-.1-.63-.24-.89,0,.09.07.18.09.28a6.3,6.3,0,0,0,.18.75C169.09,50.87,169.41,51.31,169.16,51.77Z"/><path class="cls-71" d="M119.29,132.87c0,.68,0,1.36,0,2,0,.21-.07.45.12.62a1.21,1.21,0,0,1,.19,1,14.18,14.18,0,0,1-.39,2.83c0,.09-.08.12-.18.1,0-.18.06-.4-.13-.54.07-.87.16-1.73.2-2.59s0-1.87.07-2.81C119.18,133.33,119.11,133.08,119.29,132.87Z"/><path class="cls-72" d="M50.18,93.59l.13-.13a14.2,14.2,0,0,1,1.42,1.26c.79.73,1.63,1.4,2.36,2.19,1,1.09,2.23,2,3.22,3.1s2.16,2.17,3.16,3.34c0,.12,0,.17-.13.13a8.24,8.24,0,0,1-1.05-1.08C57.85,101,56.44,99.49,55,98.09s-3-2.94-4.62-4.3A1.08,1.08,0,0,1,50.18,93.59Z"/><path class="cls-37" d="M60.34,103.48l.13-.13c.7.59,1.24,1.34,1.89,2s1.13,1.27,1.68,1.91c.16.18.39.3.38.59a.86.86,0,0,1-.16-.1Z"/><path class="cls-37" d="M64.42,107.83c.34.26.73.48.79,1C64.92,108.49,64.55,108.27,64.42,107.83Z"/><path class="cls-73" d="M65.74,105.46c-.21-.19-.09-.45-.13-.67a5,5,0,0,1,.33-1.8,16.29,16.29,0,0,1,2.27-4.85l.23-.31c.06-.08.14-.11.22,0a.14.14,0,0,1,0,.18l-.2.34a14.79,14.79,0,0,0-2.22,5.77c0,.19-.08.38-.12.58-.3,0-.42.11-.39.4A.32.32,0,0,1,65.74,105.46Z"/><path class="cls-74" d="M111,169.29c.15.1.1.28.14.42a6.28,6.28,0,0,1-.29,1.42c-.09.06-.2.07-.29.14s-.15.17-.22.25a49.15,49.15,0,0,1-6.33,5.65c-.28.21-.52.49-.92.45a.33.33,0,0,1-.14-.55,51.78,51.78,0,0,0,7.51-6.68A2.47,2.47,0,0,0,111,169.29Z"/><path class="cls-75" d="M110.46,171.13c.13-.22.26,0,.39,0-.19,1-.37,2.06-.58,3.08q-.93,4.77-1.66,9.56c-.13.84-.27,1.69-.41,2.53-.11.17,0,.38-.1.55l0,.37a.32.32,0,0,0,0,.23.76.76,0,0,1,0,.33l0,.35c-.13,0-.18,0-.23-.15a1.6,1.6,0,0,1,0-.49,1.74,1.74,0,0,1,0-.39,1.77,1.77,0,0,0,.08-.56,2.57,2.57,0,0,1,0-.4,1.55,1.55,0,0,0,.06-.61c.14-1.79.49-3.55.79-5.32.49-2.85,1-5.7,1.61-8.52C110.33,171.5,110.55,171.36,110.46,171.13Z"/><path class="cls-76" d="M106.09,205.67c-.24-.38,0-.81-.13-1.22l0-.62a.47.47,0,0,0,.05-.28,2.68,2.68,0,0,1,0-.69l0-.61c.14-.31,0-.66.1-1v-1.39a2.85,2.85,0,0,1,.07-1.09,4.21,4.21,0,0,0,0-.5c0-.09,0-.19,0-.29a2.4,2.4,0,0,0,.08-.76,2,2,0,0,1,0-.48c0-.1,0-.19.06-.28a3.75,3.75,0,0,0,0-.58,2.6,2.6,0,0,1,.05-.39,2.56,2.56,0,0,0,.08-.78.68.68,0,0,1,.13-.39.15.15,0,0,1,.19,0,.65.65,0,0,1,0,.31,1.31,1.31,0,0,1,0,.52l0,.5c-.07.1,0,.22-.05.34a.86.86,0,0,1,0,.35l0,.5c-.11.22,0,.47-.09.7l0,.61c-.11.23,0,.48-.09.7a11.38,11.38,0,0,1-.17,1.94c-.14.31,0,.65-.1,1l0,.62c-.14.31,0,.65-.1,1l0,.61a.49.49,0,0,0,0,.29,3.16,3.16,0,0,1,0,.81Z"/><path class="cls-77" d="M107,194.6v-.27a1,1,0,0,1-.18-.73,2.22,2.22,0,0,1,.06-.44,2,2,0,0,0,.07-.73,10,10,0,0,1,.29-2.37,2.07,2.07,0,0,0,.13-.7,1.55,1.55,0,0,1,0-.29,2.13,2.13,0,0,0,.09-.67.76.76,0,0,1,.11-.38.13.13,0,0,1,.18,0l.12.12v.15c-.08.14,0,.3-.09.44l0,.48c-.1.18,0,.39-.1.56-.07,1.23-.28,2.44-.43,3.66-.09.18,0,.39-.09.57l0,.61C107.1,194.66,107.07,194.66,107,194.6Z"/><path class="cls-78" d="M106.26,203.35c0-.33-.12-.67.1-1A2.12,2.12,0,0,1,106.26,203.35Z"/><path class="cls-78" d="M106.12,205.06v-1a.07.07,0,0,1,.11,0A2,2,0,0,1,106.12,205.06Z"/><path class="cls-78" d="M106.39,201.76c0-.32-.12-.66.1-1A1.94,1.94,0,0,1,106.39,201.76Z"/><path class="cls-79" d="M106.79,197.55c0-.24-.1-.49.09-.7A1.13,1.13,0,0,1,106.79,197.55Z"/><path class="cls-79" d="M106.66,198.86c0-.23-.1-.48.09-.7A1.13,1.13,0,0,1,106.66,198.86Z"/><path class="cls-79" d="M107,194.6h.11a.84.84,0,0,1-.09.56Z"/><path class="cls-79" d="M107.18,194c0-.2-.08-.4.09-.57A.87.87,0,0,1,107.18,194Z"/><path class="cls-80" d="M108.1,186.85c0-.19-.07-.39.1-.55A.76.76,0,0,1,108.1,186.85Z"/><path class="cls-80" d="M107.7,189.76c0-.19-.07-.4.1-.56A.83.83,0,0,1,107.7,189.76Z"/><path class="cls-80" d="M107.84,188.72c0-.16,0-.32.09-.44A.58.58,0,0,1,107.84,188.72Z"/><path class="cls-81" d="M106.92,196.35v-.43c0-.06.06-.06.09,0A.48.48,0,0,1,106.92,196.35Z"/><path class="cls-80" d="M108,187.78v-.43s.06,0,.1,0A.55.55,0,0,1,108,187.78Z"/><path class="cls-79" d="M107,195.92h-.09a.26.26,0,0,1,.1-.26Z"/><path class="cls-66" d="M106.22,204.09h-.11l.11-.14A.15.15,0,0,1,106.22,204.09Z"/><path class="cls-77" d="M108.06,187.35H108l.11-.13Z"/><path class="cls-36" d="M98.32,160.18c-.24-.28-.08-.62-.12-.93C98.42,159.54,98.29,159.87,98.32,160.18Z"/><path class="cls-23" d="M153.32,138.14a54.11,54.11,0,0,0-16.22,3.17,51.63,51.63,0,0,0-13.3,6.86c-1.06.78-2,1.66-3,2.53-.13,0-.2,0-.17-.17.23-.77.47-1.55.7-2.33.09-.33.36-.48.61-.66a44.69,44.69,0,0,1,7.91-4.55,57.59,57.59,0,0,1,14.05-4.32,38.49,38.49,0,0,1,5.87-.66c1.13-.1,2.25,0,3.38,0C153.22,138,153.33,138,153.32,138.14Z"/><path class="cls-23" d="M159.66,110.84a56.26,56.26,0,0,0-24.8,9,32.38,32.38,0,0,0-4,3.15c-.13,0-.18,0-.16-.15s.22-.48.29-.73a4.11,4.11,0,0,1,1.84-2.28A51.19,51.19,0,0,1,144.2,114a58.47,58.47,0,0,1,11.56-3,19.44,19.44,0,0,1,2.94-.32c.27-.11.56,0,.83-.09l1,0c.2,0,.43-.19.55.13l-.76,0C160.12,110.85,159.88,110.73,159.66,110.84Z"/><path class="cls-82" d="M167,85.13a38.55,38.55,0,0,0-21.49,8.58c-.12,0-.18,0-.14-.12s.32-.53.47-.8a4.53,4.53,0,0,1,2.29-2.35,38.41,38.41,0,0,1,11.19-4.5,35.16,35.16,0,0,1,6.77-1,3.62,3.62,0,0,1,.87,0A.1.1,0,0,1,167,85.13Z"/><path class="cls-83" d="M153.32,138.14c-.18-.18-.42-.11-.63-.11l-3,0a1.33,1.33,0,0,1,.71-.1,48.43,48.43,0,0,1,5.9.14c0,.12,0,.17-.12.12Z"/><path class="cls-84" d="M167,85l-.92,0a.55.55,0,0,1,.37-.1,16.25,16.25,0,0,1,3.43.21,10,10,0,0,1-1.71,0C167.83,85,167.42,85.17,167,85Z"/><path class="cls-85" d="M161.1,110.71c-.15-.17-.37-.07-.55-.13a3.47,3.47,0,0,1,1.36-.09c.12.1.3,0,.41.12A2.81,2.81,0,0,1,161.1,110.71Z"/><path class="cls-86" d="M162.32,110.61c-.14,0-.3,0-.41-.12a20.55,20.55,0,0,1,2.22,0v.09Z"/><path class="cls-87" d="M156.22,138.17l.12-.12,1.46.13s0,0,0,.07,0,0,0,0A4.07,4.07,0,0,1,156.22,138.17Z"/><path class="cls-88" d="M165.32,110.48c.46-.1.87.19,1.33.17a2.16,2.16,0,0,1-1.33-.06s0,0,0-.07S165.31,110.48,165.32,110.48Z"/><path class="cls-3" d="M178.66,60.64h1.7A2.67,2.67,0,0,1,178.66,60.64Z"/><path class="cls-89" d="M165.32,110.48a.2.2,0,0,1,0,.11h-1.19v-.09Z"/><path class="cls-90" d="M167,85c.39,0,.8-.11,1.17.1H167A.31.31,0,0,0,167,85Z"/><path class="cls-91" d="M157.81,138.29s0-.08,0-.11c.27,0,.51.15.79.16C158.32,138.42,158.05,138.53,157.81,138.29Z"/><path class="cls-92" d="M130.74,122.84l.16.15c-.05.15-.17.23-.32.35A.5.5,0,0,1,130.74,122.84Z"/><path class="cls-85" d="M159.53,110.62a1.14,1.14,0,0,1-.83.09A1.39,1.39,0,0,1,159.53,110.62Z"/><path class="cls-93" d="M145.4,93.59l.14.12a.39.39,0,0,1-.06.11c0,.07-.14.16-.21.12s0-.18,0-.27S145.37,93.61,145.4,93.59Z"/><path class="cls-85" d="M159.66,110.84c.21-.19.45-.1.68-.09A1,1,0,0,1,159.66,110.84Z"/><path class="cls-94" d="M120.59,150.53l.17.17c0,.1-.13.23-.21.18S120.5,150.64,120.59,150.53Z"/><path class="cls-95" d="M177.73,60.5c.17,0,.37-.08.51.11h-.52A.41.41,0,0,0,177.73,60.5Z"/><path class="cls-23" d="M119.15,139.47c.09-1.08.19-2.16.27-3.23,0-.24,0-.48,0-.72a46.9,46.9,0,0,0-.1-7.68,55.29,55.29,0,0,0-2.54-12.72c-.6-1.88-1.3-3.72-2.08-5.53-.06-.14-.1-.29-.16-.43s-.11-.29.14-.27a55.13,55.13,0,0,1,3.38,8.19,53.14,53.14,0,0,1,2.18,9.06,1.6,1.6,0,0,0,.1.31l.33,3.2a49.76,49.76,0,0,1,.24,5.18,2,2,0,0,1-.18.76l-1.44,4C119.17,139.64,119.11,139.6,119.15,139.47Z"/><path class="cls-49" d="M133.17,97.27a46.8,46.8,0,0,0-1.79-8.93c-.35-1.2-.76-2.38-1.15-3.57,0-.13-.12-.28.13-.27a47.65,47.65,0,0,1,2.38,6.9,51.78,51.78,0,0,1,1.55,8.2c.18,1.61.23,3.24.29,4.86a1.32,1.32,0,0,1-.13.64c-.31.57-.62,1.15-1,1.72-.12-1.5.09-3,0-4.47s-.11-3-.25-4.54C133.17,97.64,133.26,97.45,133.17,97.27Z"/><path class="cls-96" d="M150.55,72l.41,1.84c.13,1.24.26,2.47.35,3.71a1.51,1.51,0,0,1-.6,1.38,42.92,42.92,0,0,0-.18-5.47c-.07-.13,0-.29-.08-.42l0-.62C150.4,72.23,150.23,72,150.55,72Z"/><path class="cls-97" d="M169.66,53.77l0,.13c0,.52,0,1,0,1.56a.53.53,0,0,1-.38.6c.11-.94.06-1.86.08-2.78,0-.2-.2-.45.13-.56l.05.38C169.67,53.31,169.55,53.55,169.66,53.77Z"/><path class="cls-98" d="M130.36,84.5c-.1.06-.11.17-.13.27L129,81.87c-.06-.14,0-.16.13-.13A26.07,26.07,0,0,1,130.36,84.5Z"/><path class="cls-99" d="M129.17,81.74l-.13.13a12.74,12.74,0,0,1-.78-1.73s.09-.06.13,0A15.76,15.76,0,0,1,129.17,81.74Z"/><path class="cls-100" d="M169.53,52.72c-.17.15-.08.37-.13.56a5.6,5.6,0,0,1-.14-1.47c0-.14,0-.17.14-.15A5.39,5.39,0,0,1,169.53,52.72Z"/><path class="cls-101" d="M169.4,51.66l-.14.15-.1,0a9.77,9.77,0,0,0-.15-1.43c0-.13,0-.16.13-.11Z"/><path class="cls-102" d="M127.86,79.35a2.31,2.31,0,0,1-.45-.95,3,3,0,0,1,.59.95C128,79.41,127.91,79.41,127.86,79.35Z"/><path class="cls-103" d="M127.86,79.35H128l.39.79h-.13A1.75,1.75,0,0,1,127.86,79.35Z"/><path class="cls-104" d="M119.15,139.47l.14.13a.49.49,0,0,1-.2.44c-.12-.18,0-.37,0-.54Z"/><path class="cls-27" d="M133.17,97.27a.59.59,0,0,1,.08.54A.64.64,0,0,1,133.17,97.27Z"/><path class="cls-27" d="M150.45,73a.43.43,0,0,1,.08.42l-.1,0Z"/><path class="cls-105" d="M105.6,192.57a11.9,11.9,0,0,1,.3,2.06c.14,1.12.31,2.24.36,3.37a5.38,5.38,0,0,0,.2.79c-.07.37-.15.73-.23,1.1a4.48,4.48,0,0,1-.21-1.54c-.14-1.37-.32-2.73-.45-4.1a4.58,4.58,0,0,1-.12-1.1C105.65,193,105.54,192.76,105.6,192.57Z"/><path class="cls-106" d="M78,117.85a27.25,27.25,0,0,0-.15,3.61c0,.09.07.25-.12.22s-.08-.09-.12-.14a6.93,6.93,0,0,0,0-1.82c0-.68.2-1.32.26-2C78,117.7,78.07,117.71,78,117.85Z"/><path class="cls-107" d="M55.08,97.14l-.15.14c-.54-.38-.94-.91-1.45-1.32,0-.12,0-.18.13-.13A12.18,12.18,0,0,1,55.08,97.14Z"/><path class="cls-108" d="M65.74,105.46v-.39c.2.17.12.4.12.61,0,.45,0,.9,0,1.37-.25,0-.23-.17-.25-.31C65.56,106.3,65.81,105.9,65.74,105.46Z"/><path class="cls-109" d="M53.61,95.83l-.13.13a4.8,4.8,0,0,1-1.06-1A3.7,3.7,0,0,1,53.61,95.83Z"/><path class="cls-33" d="M77.63,119.72a3.14,3.14,0,0,1,0,1.82.65.65,0,0,1-.09-.49A9.92,9.92,0,0,0,77.63,119.72Z"/><path class="cls-110" d="M78,117.85l-.12-.11a4.7,4.7,0,0,1,.3-1.08A2.83,2.83,0,0,1,78,117.85Z"/><path class="cls-111" d="M52.3,94.89a4.56,4.56,0,0,1-.85-.75c.41,0,.5.31.72.37l.12.24a.12.12,0,0,1,0,.09S52.31,94.89,52.3,94.89Z"/><path class="cls-112" d="M97.94,159.51l.11,0,0,.78c0,.14.1.29-.15.25l-.12-.53C98,159.9,97.89,159.68,97.94,159.51Z"/><path class="cls-36" d="M97.93,160.57c.12,0,.13-.15.15-.25a.33.33,0,0,1,.11.29c0,.09,0,.25-.09.25S98,160.7,97.93,160.57Z"/><path class="cls-113" d="M52.3,94.89v-.14a.25.25,0,0,1,.14.16A.19.19,0,0,1,52.3,94.89Z"/><path class="cls-114" d="M62.06,110.32c-.45,0-.87-.18-1.33-.17.45,0,.9-.2,1.32,0,.05,0,.06,0,.05.08S62.07,110.32,62.06,110.32Z"/><path class="cls-115" d="M62.06,110.32s0-.08,0-.12c.32,0,.65-.08.93.13l-.12.11Z"/><path class="cls-78" d="M106.22,201.28c0,.33.12.66-.1,1A2,2,0,0,1,106.22,201.28Z"/><path class="cls-78" d="M106.09,202.86l0,.84a.07.07,0,0,1-.12,0A1.52,1.52,0,0,1,106.09,202.86Z"/><path class="cls-66" d="M106,203.7h.12l-.12.13A.15.15,0,0,1,106,203.7Z"/><path class="cls-116" d="M114.68,108.89c-.11,0-.12.16-.14.27L113.06,106a.09.09,0,0,1,.15,0A28.16,28.16,0,0,1,114.68,108.89Z"/><path class="cls-117" d="M113.21,106h-.15a1.86,1.86,0,0,1-.38-.77l0,0A1.79,1.79,0,0,1,113.21,106Z"/><path class="cls-118" d="M112.17,104.27a.8.8,0,0,1,.4.63.1.1,0,0,1,0,.17,1.67,1.67,0,0,1-.39-.8Z"/><path class="cls-117" d="M112.56,105.07v-.17a.36.36,0,0,1,.15.28l0,0Z"/><path class="cls-118" d="M112.17,104.27c-.06,0-.12-.12-.09-.13s.06.08.09.13Z"/><path class="cls-119" d="M150.55,72c-.16.1-.11.28-.14.42a15,15,0,0,1-.4-2c-.06-.14,0-.18.13-.16A9.07,9.07,0,0,1,150.55,72Z"/><path class="cls-120" d="M149.47,68l.41,1.3s0,.13-.13.14a6.07,6.07,0,0,1-.39-1.32C149.29,68,149.36,68,149.47,68Z"/><path class="cls-121" d="M149.47,68l-.11.12a4.24,4.24,0,0,1-.39-1.06c-.05-.14,0-.16.13-.12Z"/><path class="cls-122" d="M149.75,69.47l.13-.14.26.93-.13.15A3.27,3.27,0,0,1,149.75,69.47Z"/><path class="cls-123" d="M149.1,67l-.13.12a1.3,1.3,0,0,1-.26-.8h0A1.78,1.78,0,0,1,149.1,67Z"/><path class="cls-123" d="M148.71,66.29c-.06,0-.12-.12-.09-.13s.06.09.09.13Z"/><path class="cls-124" d="M169.14,50.23l-.13.11a3.08,3.08,0,0,1-.23-1C169.05,49.56,169,49.93,169.14,50.23Z"/><path class="cls-27" d="M169.66,53.77a.87.87,0,0,1-.08-.67A.91.91,0,0,1,169.66,53.77Z"/><path class="cls-125" d="M110.48,171.54l-.17-.16.15-.25C110.67,171.26,110.57,171.4,110.48,171.54Z"/><path class="cls-80" d="M107.71,188a.92.92,0,0,1,.09-.59l0,.59Z"/><path class="cls-80" d="M108,186.16a.9.9,0,0,1,.1-.58C108.08,185.78,108.15,186,108,186.16Z"/><path class="cls-80" d="M107.84,187.08a.9.9,0,0,1,.09-.58C108,186.7,108,186.91,107.84,187.08Z"/><path class="cls-126" d="M106.46,198.79c-.32-.2-.22-.51-.2-.79l.22.27A.92.92,0,0,1,106.46,198.79Z"/><path class="cls-79" d="M106.52,198a1.54,1.54,0,0,1,.09-.85C106.62,197.46,106.73,197.77,106.52,198Z"/><path class="cls-79" d="M106.78,195.52a1.58,1.58,0,0,1,.1-.83C106.88,195,107,195.27,106.78,195.52Z"/><path class="cls-79" d="M106.91,194.34a1.61,1.61,0,0,1,.11-.84v.83Z"/><path class="cls-81" d="M106.65,196.58a1.2,1.2,0,0,1,.09-.7l0,.69C106.73,196.62,106.69,196.62,106.65,196.58Z"/><path class="cls-79" d="M106.65,196.58h.11l-.11.14Z"/><path class="cls-127" d="M107.57,189.06a1.27,1.27,0,0,1,.1-.72C107.66,188.58,107.78,188.85,107.57,189.06Z"/><path class="cls-79" d="M107,193.15a1.28,1.28,0,0,1,.11-.72C107.14,192.67,107.25,192.93,107,193.15Z"/><path class="cls-80" d="M107.44,190a1.39,1.39,0,0,1,.1-.7C107.53,189.52,107.64,189.77,107.44,190Z"/></svg>