<svg xmlns="http://www.w3.org/2000/svg" viewBox="0 0 256 256"><defs><style>.cls-1{isolation:isolate;}.cls-2{opacity:0.5;}.cls-11,.cls-3{fill:#fff;}.cls-4{fill:none;stroke:#7c0079;stroke-miterlimit:10;stroke-width:2px;}.cls-5{fill:#ff80d8;}.cls-6{fill:#e54acf;}.cls-7{fill:#2b2b2b;}.cls-8{fill:#3aaa35;}.cls-9{fill:#bf009b;}.cls-10{fill:#ff50da;}.cls-11{opacity:0.26;}.cls-12,.cls-13{fill:#c1272d;}.cls-13{opacity:0.22;mix-blend-mode:multiply;}.cls-14{fill:#b3b3b3;opacity:0.42;}</style></defs><g class="cls-1"><g id="Layer_54" data-name="Layer 54"><path class="cls-2" d="M116.16,248.5a20,20,0,0,1-19.92-19.91v-5.44a8.79,8.79,0,0,1,17.57,0v5.43a2.37,2.37,0,0,0,2.36,2.35h2.7a2.39,2.39,0,0,0,2.36-2.35V202.09h.86V136.82l-.57-.38-.22-.44A29.93,29.93,0,0,0,102,128.64h-1.2l-1,0c-8.88.39-18,4.53-22.75,10.83l-5,6-6.16-6.31c1.16.31-.16-.21-.16-.21-.3-.38-.6-.74-.92-1.1l-.06-.07c-.3-.33-.61-.65-.92-1l-.16-.15q-.48-.48-1-.93a29.87,29.87,0,0,0-19.82-7.13c-.77,0-1.61,0-2.58.11l-.31,0a29.09,29.09,0,0,0-18.85,8.87l-1.94,2.12-.31,0L8.09,150.49l1.62-11.34H9.62l.87-5.42.15-1.06C10.9,130.9,17,90.8,49.09,61.39a30.94,30.94,0,1,1,55.05-27.76l2.31-.47c-.83-2.91-1.91-7.11.68-10.74a9,9,0,0,1,6.1-3.58,10.7,10.7,0,0,1,1.5-.11,11.88,11.88,0,0,1,6.42,1.89l.06-1.35c0-.69.25-6.77,8.75-6.77a11.79,11.79,0,0,1,4.53.78h3.95l.33,7a14.53,14.53,0,0,1,2.88-1.17,10.5,10.5,0,0,1,4.49-.32,9.27,9.27,0,0,1,5,2.3c3.92,3.65,2.64,8.81,2.22,10.51q-.15.62-.33,1.23c.66.13,1.32.25,2,.39a30.93,30.93,0,1,1,55.55,27c33.29,29.56,39.44,70.61,39.7,72.41l2.7,19.09-13.06-14.19a29.22,29.22,0,0,0-19.21-8.85l-.2,0-.76-.05c-.51,0-1,0-1.52,0A30.11,30.11,0,0,0,198,136.1a23.8,23.8,0,0,0-3.06,3.39l-5.88,9-3.25-4.95L183,139.46v0c-.33-.44-.68-.87-1-1.29-4.8-5.56-12.13-9-20.21-9.46l-1.37,0-.54,0h-.18a29.66,29.66,0,0,0-21,8.33l-.83.89v64.24h1v26.49a20,20,0,0,1-19.92,19.92Z"/><path class="cls-3" d="M111.16,243.5a20,20,0,0,1-19.92-19.91v-5.44a8.79,8.79,0,0,1,17.57,0v5.43a2.37,2.37,0,0,0,2.36,2.35h2.7a2.39,2.39,0,0,0,2.36-2.35V197.09h.86V131.82l-.57-.38-.22-.44A29.93,29.93,0,0,0,97,123.64h-1.2l-1,0c-8.88.39-18,4.53-22.75,10.83l-5,6-6.16-6.31c1.16.31-.16-.21-.16-.21-.3-.38-.6-.74-.92-1.1l-.06-.07c-.3-.33-.61-.65-.92-1l-.16-.15q-.48-.48-1-.93a29.87,29.87,0,0,0-19.82-7.13c-.77,0-1.61,0-2.58.11l-.31,0a29.09,29.09,0,0,0-18.85,8.87l-1.94,2.12-.31,0L3.09,145.49l1.62-11.34H4.62l.87-5.42.15-1.06C5.9,125.9,12,85.8,44.09,56.39A30.94,30.94,0,1,1,99.14,28.63l2.31-.47c-.83-2.91-1.91-7.11.68-10.74a9,9,0,0,1,6.1-3.58,10.7,10.7,0,0,1,1.5-.11,11.88,11.88,0,0,1,6.42,1.89l.06-1.35c0-.69.25-6.77,8.75-6.77a11.79,11.79,0,0,1,4.53.78h3.95l.33,7.05a14.53,14.53,0,0,1,2.88-1.17,10.5,10.5,0,0,1,4.49-.32,9.27,9.27,0,0,1,5,2.3c3.92,3.65,2.64,8.81,2.22,10.51q-.15.62-.33,1.23c.66.13,1.32.25,2,.39a30.93,30.93,0,1,1,55.55,27c33.29,29.56,39.44,70.61,39.7,72.41l2.7,19.09-13.06-14.19a29.22,29.22,0,0,0-19.21-8.85l-.2,0-.76,0c-.51,0-1,0-1.52,0A30.11,30.11,0,0,0,193,131.1a23.8,23.8,0,0,0-3.06,3.39l-5.88,9-3.25-4.95L178,134.46v0c-.33-.44-.68-.87-1-1.29-4.8-5.56-12.13-9-20.21-9.46l-1.37,0-.54,0h-.18a29.66,29.66,0,0,0-21,8.33l-.83.89v64.24h1v26.49a20,20,0,0,1-19.92,19.92Z"/><path class="cls-4" d="M197.48,56.35a24.93,24.93,0,1,0-43.43-21q-5.3-1.29-11-2.21a9.91,9.91,0,0,1-1.56-3c-.18-1.07.58-3,1.05-4.92s.65-3.61-.46-4.65a3.38,3.38,0,0,0-1.83-.78,4.67,4.67,0,0,0-1.94.16c-3.43,1-7.51,5.12-10,7.94l-.61-13.59h0c0-.42-1.23-.77-2.74-.77s-2.75.35-2.75.77v0l-.64,14.2c-2.78-3.28-8.48-9.33-12.43-8.72A3.06,3.06,0,0,0,107,20.91c-1.64,2.29,1.23,7.22.9,9.21a11,11,0,0,1-1.74,3.27c-3.88.66-7.62,1.45-11.19,2.38A24.93,24.93,0,1,0,52.26,57.24C18.1,85.39,11.85,126.61,11.58,128.51l0,0s0,.06,0,.09h.07a34.93,34.93,0,0,1,22.78-10.8l.35,0c1-.08,2-.13,3-.13a36,36,0,0,1,23.78,8.63c.43.37.84.76,1.24,1.15l.15.15c.41.41.8.82,1.18,1.25l.09.09c.4.45.78.91,1.15,1.38v0c.38.47.73,1,1.08,1.45h0l.26.37.13.19h.17a161.16,161.16,0,0,1,6.14-32.7,199.87,199.87,0,0,0-6.14,32.7h.07c5.46-8.37,15.61-14.14,27.37-14.65l.68,0,.63,0h.4a35.71,35.71,0,0,1,24.93,9.7h0c.37.37.74.75,1.09,1.13l.19.2.65.75v73.68h-.86v20.49a8.38,8.38,0,0,1-8.36,8.35h-2.71a8.36,8.36,0,0,1-8.35-8.35v-5.43a2.79,2.79,0,0,0-5.57,0v5.43a14,14,0,0,0,13.92,13.92h2.71a14,14,0,0,0,13.93-13.92V203.09h-1V130.71l.12-.16.41-.51.31-.39.49-.57c.24-.28.49-.55.75-.82l.48-.52a35.66,35.66,0,0,1,25.27-10.11h.1c.42,0,.83,0,1.24,0l0,0c10.43.34,19.63,4.81,25.48,11.57h0c.45.53.89,1.07,1.3,1.62s.65.9.95,1.36A164.18,164.18,0,0,0,181,109.92a160.64,160.64,0,0,1,2.86,22.4h.2l.21-.3h0a29.69,29.69,0,0,1,4.6-5.32,35.86,35.86,0,0,1,24.25-9.05c.6,0,1.2,0,1.79,0h0c.39,0,.76,0,1.14.07a35.07,35.07,0,0,1,23.18,10.78C239,126.93,232.75,84.64,197.48,56.35Z"/><path class="cls-5" d="M54.35,59.22a86.07,86.07,0,0,1,41-20.17,24.93,24.93,0,1,0-41,20.17Z"/><path class="cls-6" d="M58,54.21A66.63,66.63,0,0,1,89.67,38.63,19.25,19.25,0,1,0,58,54.21Z"/><path class="cls-5" d="M194.6,59.22a86,86,0,0,0-41-20.17,24.93,24.93,0,1,1,41,20.17Z"/><path class="cls-6" d="M190.94,54.21a66.58,66.58,0,0,0-31.66-15.58,19.25,19.25,0,1,1,31.66,15.58Z"/><path class="cls-7" d="M126.05,103.89c-.35.47-.69,1-1,1.45l-.08-.12-.08.12c-.32-.5-.66-1-1-1.46-.21-.28-.42-.55-.64-.81l-.14-.18v100.2h3.75V102.88c-.14.17-.28.33-.41.51S126.17,103.72,126.05,103.89Z"/><path class="cls-8" d="M121.13,38.84h0c0,.38.71.71,1.77.91a13.54,13.54,0,0,0,2,.17h0a12.26,12.26,0,0,0,2-.17c1.09-.19,1.81-.53,1.81-.91V38.8l-1.1-24.52h0c0-.42-1.23-.77-2.74-.77s-2.75.35-2.75.77v0l-1.1,24.51v0Z"/><path class="cls-9" d="M122.23,203.09v20.49a8.38,8.38,0,0,1-8.36,8.35h-2.71a8.36,8.36,0,0,1-8.35-8.35v-5.43a2.79,2.79,0,0,0-5.57,0v5.43a14,14,0,0,0,13.92,13.92h2.71a14,14,0,0,0,13.93-13.92V203.09h-5.57Z"/><path class="cls-10" d="M127,130.55l.41-.51.31-.39.49-.57c.24-.28.49-.55.75-.82l.48-.52a35.66,35.66,0,0,1,25.27-10.11h.1c.42,0,.83,0,1.24,0l0,0c10.43.34,19.63,4.81,25.48,11.57h0c.45.53.89,1.07,1.3,1.62s.65.9.95,1.36c-4.29-77.82-55.53-99.89-57.22-100.73a4.3,4.3,0,0,1-2.17,0l-.77.38c-6.27,3.38-48,21.21-56.53,100.49h.07c5.46-8.37,15.61-14.14,27.37-14.65l.68,0,.63,0h.4a35.73,35.73,0,0,1,24.93,9.7h0c.37.37.74.75,1.09,1.13l.19.2c.31.34.61.68.9,1l.29.36a1.15,1.15,0,0,0,.14.17c.21.27.43.54.63.82.33.45.65.9.95,1.37h.13v0l0,0h.13c.3-.46.62-.92.94-1.36Z"/><path class="cls-6" d="M123.6,31.84l.76-.39c-28.53,1.33-49.95,9.75-66,21.13l0,0-.1.07h0c-1,.71-2,1.44-2.93,2.18l-.27.21c-.92.71-1.82,1.42-2.71,2.15l-.05,0C18.11,85.34,11.86,126.6,11.58,128.51l0,0a.29.29,0,0,0,0,.09h.07a34.93,34.93,0,0,1,22.78-10.8l.35,0c1-.08,2-.13,3-.13a36,36,0,0,1,23.78,8.63c.43.37.84.76,1.24,1.15l.15.15c.41.41.8.82,1.18,1.25l.09.09c.4.45.78.91,1.15,1.38v0c.38.47.73,1,1.08,1.45h0l.26.37.13.19h.17S71.11,58.14,123.6,31.84Z"/><path class="cls-6" d="M126.49,31.45l.05,0h0S179.3,54.38,183.9,132.32h.2l.21-.3h0a29.69,29.69,0,0,1,4.6-5.32,35.86,35.86,0,0,1,24.25-9.05c.6,0,1.2,0,1.79,0h0c.39,0,.76,0,1.15.07a35.06,35.06,0,0,1,23.17,10.78C238.93,126.18,225.54,36.07,126.49,31.45Z"/><path d="M172,83.19a38.56,38.56,0,0,0-4.71-.53,42.17,42.17,0,0,0-4.77,0,30.81,30.81,0,0,0-4.7.71,19.87,19.87,0,0,0-4.43,1.66h0a.29.29,0,0,1-.28-.5,21.36,21.36,0,0,1,4.54-1.86,32.78,32.78,0,0,1,4.81-.87,44.13,44.13,0,0,1,4.88-.17,40.32,40.32,0,0,1,4.88.41.57.57,0,0,1,.48.65.58.58,0,0,1-.65.49h0Z"/><path d="M169.91,91.2a32.84,32.84,0,0,0-3.72-1.34,34.32,34.32,0,0,0-3.86-.91,26,26,0,0,0-3.94-.34,17.15,17.15,0,0,0-3.91.48h0a.29.29,0,0,1-.35-.21.29.29,0,0,1,.2-.34,17.46,17.46,0,0,1,4.05-.65,26.56,26.56,0,0,1,4.09.2,35.83,35.83,0,0,1,4,.8,31.73,31.73,0,0,1,3.91,1.26.57.57,0,0,1,.32.74.58.58,0,0,1-.75.33h0Z"/><path d="M85.44,84.3a40.3,40.3,0,0,1,4.82-.87,44.23,44.23,0,0,1,4.88-.3,33.1,33.1,0,0,1,4.87.41A21.5,21.5,0,0,1,104.7,85a.29.29,0,0,1-.23.53h0a20.44,20.44,0,0,0-4.57-1.23A30.07,30.07,0,0,0,95.15,84a41.28,41.28,0,0,0-9.4,1.4h0A.57.57,0,0,1,85,85a.58.58,0,0,1,.39-.71Z"/><path d="M88,92.17a34.51,34.51,0,0,1,3.77-1.62,35.81,35.81,0,0,1,3.91-1.17,27.67,27.67,0,0,1,4.05-.6,18.09,18.09,0,0,1,4.09.27.28.28,0,0,1-.09.56h0a17.31,17.31,0,0,0-3.94-.11,25.85,25.85,0,0,0-3.89.72,34,34,0,0,0-7.33,3h0a.58.58,0,1,1-.56-1Z"/><circle class="cls-11" cx="113.3" cy="88.18" r="4.55" transform="translate(-14.63 23.02) rotate(-10.9)"/><circle class="cls-11" cx="142.69" cy="88.18" r="4.55" transform="translate(-14.1 28.58) rotate(-10.9)"/><ellipse cx="127.58" cy="80.31" rx="4.76" ry="4.14"/><path d="M133.72,93.14a9.09,9.09,0,0,1-3.27-.87,6.87,6.87,0,0,1-1.47-1,6.54,6.54,0,0,1-1.17-1.39,8.67,8.67,0,0,1-1.25-3.37,11.78,11.78,0,0,1-.17-1.77c0-.3,0-.6,0-.89a8.64,8.64,0,0,1,.09-1l.78,1.64-.78-.61,1.77-1.32c0,.37,0,.64,0,1s0,.6,0,.9a11.81,11.81,0,0,1-.26,1.77,9.55,9.55,0,0,1-1.39,3.33A7.45,7.45,0,0,1,123.94,92a9.34,9.34,0,0,1-3.33,1,.42.42,0,0,1-.14-.82h0a8.22,8.22,0,0,0,2.81-1.2,5.93,5.93,0,0,0,1.9-2.21A7.94,7.94,0,0,0,126,85.9a12.31,12.31,0,0,0,0-1.49c0-.25,0-.49-.07-.74a4,4,0,0,0-.11-.68,1.16,1.16,0,0,1,.85-1.4,1.27,1.27,0,0,1,.55,0l.37.09,1,.24a1.16,1.16,0,0,1,.86,1.41.65.65,0,0,1,0,.13l0,.1c0,.14-.12.4-.17.62s-.09.46-.12.69a9.55,9.55,0,0,0-.1,1.41,6.86,6.86,0,0,0,.51,2.7,5.18,5.18,0,0,0,.7,1.17,5.81,5.81,0,0,0,1,1,7.94,7.94,0,0,0,2.71,1.21h0a.41.41,0,0,1,.3.5A.41.41,0,0,1,133.72,93.14Z"/><path d="M152.33,71.57a15.44,15.44,0,0,0-2.81-4.43,6.8,6.8,0,0,0-1.9-1.34l-.51-.19a3.27,3.27,0,0,0-.54-.13,5.81,5.81,0,0,0-1.11-.13,7.23,7.23,0,0,0-4.41,1.54,15.2,15.2,0,0,0-3.45,4l0,.06a.77.77,0,0,1-1.4-.57,11.41,11.41,0,0,1,3.11-5.5A8.93,8.93,0,0,1,142.09,63a8.75,8.75,0,0,1,3.38-.67,8,8,0,0,1,3.46.83,8.69,8.69,0,0,1,2.64,2.23,10.84,10.84,0,0,1,1.56,2.84,11,11,0,0,1,.69,3.07.76.76,0,0,1-.71.82.78.78,0,0,1-.76-.46Z"/><path d="M152.38,67.15a10.81,10.81,0,0,0,1.56.25,9.62,9.62,0,0,0,1.61,0,5.16,5.16,0,0,0,1.52-.33,3.27,3.27,0,0,0,1.22-.86l0,0a.41.41,0,0,1,.58,0,.41.41,0,0,1,.09.52,4.33,4.33,0,0,1-1.38,1.41,6.75,6.75,0,0,1-1.78.75,11,11,0,0,1-1.86.33,12.06,12.06,0,0,1-1.91,0,1,1,0,0,1-1-1.1,1,1,0,0,1,1.11-1l.18,0Z"/><path d="M150.31,63.83a9.41,9.41,0,0,0,1.56.25,8.66,8.66,0,0,0,1.61,0,5.17,5.17,0,0,0,1.52-.34,3.32,3.32,0,0,0,1.22-.85l0,0a.41.41,0,0,1,.58,0,.4.4,0,0,1,.09.52,4.23,4.23,0,0,1-1.39,1.4,6.58,6.58,0,0,1-1.77.76,10.06,10.06,0,0,1-1.86.32,12,12,0,0,1-1.91,0,1,1,0,0,1,.14-2.08l.18,0Z"/><path d="M99.46,72.09a11.4,11.4,0,0,1,2.25-5.9A8.69,8.69,0,0,1,104.35,64a8,8,0,0,1,3.46-.83,8.57,8.57,0,0,1,3.38.67A8.77,8.77,0,0,1,114,65.66a11.29,11.29,0,0,1,3.11,5.5.77.77,0,0,1-1.4.57l0-.06a15.25,15.25,0,0,0-3.45-4,7.22,7.22,0,0,0-4.41-1.53,5.81,5.81,0,0,0-1.11.13,3.25,3.25,0,0,0-.54.12l-.51.2a6.8,6.8,0,0,0-1.9,1.34A15.23,15.23,0,0,0,101,72.4l0,.06a.77.77,0,0,1-1,.39A.75.75,0,0,1,99.46,72.09Z"/><path d="M101.23,70a12,12,0,0,1-1.91,0,10.06,10.06,0,0,1-1.86-.32,6.78,6.78,0,0,1-1.78-.76,4.29,4.29,0,0,1-1.38-1.4.42.42,0,0,1,.15-.57A.41.41,0,0,1,95,67l0,0a3.3,3.3,0,0,0,1.22.86,5.5,5.5,0,0,0,1.52.33,8.66,8.66,0,0,0,1.61,0A9.59,9.59,0,0,0,100.9,68h0a1,1,0,0,1,.52,2Z"/><path d="M103.3,66.71a12,12,0,0,1-1.91,0,10.09,10.09,0,0,1-1.86-.33,6.43,6.43,0,0,1-1.78-.75,4.29,4.29,0,0,1-1.38-1.4.42.42,0,0,1,.15-.57.41.41,0,0,1,.52.09l0,0a3.24,3.24,0,0,0,1.22.85,5.17,5.17,0,0,0,1.52.34,8.66,8.66,0,0,0,1.61,0,10.81,10.81,0,0,0,1.56-.25h0a1,1,0,0,1,.52,2Z"/><path class="cls-12" d="M144.93,38.12a2.42,2.42,0,0,1-1.33,1.49l-.08,0c-3.11,1.55-11.38-2.74-15.28-5a4.86,4.86,0,0,1-3.43,1,5,5,0,0,1-3.1-1.35c-3.6,2.08-12.59,6.94-15.87,5.3a2.5,2.5,0,0,1-1.35-1.36c-.89-2.41,3.08-6.13,3.42-8.17s-2.54-6.92-.9-9.21a3.06,3.06,0,0,1,2.14-1.14c4.11-.63,10.15,6,12.77,9.13a4.89,4.89,0,0,1,3.46-1,5,5,0,0,1,2.31.74c2.32-2.76,6.84-7.61,10.58-8.67a4.67,4.67,0,0,1,1.94-.16,3.38,3.38,0,0,1,1.83.78c1.11,1,.91,2.84.46,4.65s-1.23,3.85-1.05,4.92c.28,1.69,3.05,4.53,3.49,6.82A2.61,2.61,0,0,1,144.93,38.12Z"/><path class="cls-13" d="M144.93,38.12c-2.42-4.5-20.2-6.75-15.07-6.75,4.8,0,10.91-8.89,12.18-10.82,1.11,1,.91,2.84.46,4.65s-1.23,3.85-1.05,4.92c.28,1.69,3.05,4.53,3.49,6.82A2.61,2.61,0,0,1,144.93,38.12Z"/><path class="cls-13" d="M122.4,31.37c-2.61,1.49-14.69,3-17.91,6.92-.89-2.41,3.08-6.13,3.42-8.17s-2.54-6.92-.9-9.21C109.76,23.48,119.23,32.07,122.4,31.37Z"/><ellipse class="cls-12" cx="125.1" cy="31.78" rx="4.35" ry="4.14"/><ellipse class="cls-13" cx="125.1" cy="31.78" rx="4.35" ry="4.14"/><circle class="cls-14" cx="126.76" cy="80.54" r="2.42"/></g></g></svg>