<svg id="Layer_54" data-name="Layer 54" xmlns="http://www.w3.org/2000/svg" viewBox="0 0 512 256"><defs><style>.cls-1{opacity:0.5;}.cls-2{fill:#fff;}.cls-3,.cls-6{fill:#ff0;}.cls-10,.cls-11,.cls-3,.cls-4,.cls-5{stroke:#000;stroke-miterlimit:10;}.cls-10,.cls-11,.cls-3{stroke-width:1.31px;}.cls-4{fill:gray;}.cls-4,.cls-5{stroke-width:1.41px;}.cls-5{fill:#c6c6c6;}.cls-7{fill:#e2dc10;}.cls-8{fill:#bbb628;}.cls-9{fill:#ff3;}.cls-10{fill:#7d7a1b;}.cls-11{fill:#3e3d0d;}.cls-12{fill:#ddd700;}.cls-13{fill:#f0f066;}.cls-14{fill:#ffc;}</style></defs><path class="cls-1" d="M372.72,180.4c-7.44,0-15.4-3.67-20.73-6.43a31.44,31.44,0,0,1-4.3-2.72l0,0c-.43.15-1.08.41-2,.85s-2,1-3.09,1.68c-3.22,1.87-7.22,4.2-12,4.2a14.57,14.57,0,0,1-5.14-.94c-4.27-1.6-6.4-4.81-7.8-6.93l-.6-.89-.11-.07-.52-.73a1.12,1.12,0,0,0-.38-.31,11.39,11.39,0,0,0-3.87-.51l-.95,0c-1.48.12-3,.21-4.47.27-.92.06-2,.12-3.09.12a20,20,0,0,1-3.55-.28,12.74,12.74,0,0,1-1.89-.47l-.18-.06-.07,0a10.26,10.26,0,0,1-6.37-6.31,15.34,15.34,0,0,1,.05-10.42h-7.11c-2.66,5.69-6.45,9.6-10.81,11-2.42,1-5.63,1.48-10,1.48-4.18,0-8.57-.42-11.78-.72l-1.79-.17c-2.12-.19-4.3-.31-6.61-.44A108.62,108.62,0,0,1,227.67,160c-6.89-1.4-14.26-2.84-21.49-3.93a184.67,184.67,0,0,0-23.53-1.66c-7.48-.19-14.54-.38-21.33-1.68-.75-.14-2-.34-3.45-.56-6.58-1-17.55-2.72-26.35-6.26a26,26,0,0,1-6.18-2.78c-.06,0-4.65-3-6.61-6.49-.15-.23-.28-.45-.41-.67a9.14,9.14,0,0,1,.08-9.81,27.2,27.2,0,0,1,4.38-5.36c.23-.23.44-.43.59-.6A128.26,128.26,0,0,0,135,105.29a71.25,71.25,0,0,1,8.45-9.7c1.63-1.66,3.18-3.22,4.54-4.8,5.41-6.23,10.18-9.84,18.61-9.84a36.73,36.73,0,0,1,3.77.2c6.49.63,13.55,2,16.67,7.17a10.61,10.61,0,0,1,.67,1.35,19.82,19.82,0,0,0,2.65.2,12,12,0,0,0,1.21-.06c1.71-.15,3.41-.22,5.2-.22A108.2,108.2,0,0,1,212.05,91a98.74,98.74,0,0,0,13.77,1.27,45.91,45.91,0,0,0,5.81-.35,37.2,37.2,0,0,1,4.74-.28,96.5,96.5,0,0,1,12.73,1.14c3,.4,5.88.78,8.47.91l1.09,0c4.57.2,11.36.5,16.37,3.26,3.88,1.44,7.06,5,9.38,10.54l3.92.63,3.36.73,3.46.42,2.69.48c1,.22,2,.49,2.9.78a11.58,11.58,0,0,1,5.77,4.32,12.53,12.53,0,0,1,6.54,6.26c2.14,4.74,1.94,10.69,1.39,14.86-.12.93-.36,2.08-.67,3.47a37.44,37.44,0,0,0,0,5.85v0a2,2,0,0,0,.14.76,4,4,0,0,0,2.05.38,15.27,15.27,0,0,0,6.91-2c2.17-1.17,4-2.33,5.8-3.44,4.71-2.95,9.16-5.74,15.38-5.74a28.21,28.21,0,0,1,11.05,2.59,15.76,15.76,0,0,0,5.34,1.58c1.22,0,2.66-.74,5.82-2.41l.24-.13a17.92,17.92,0,0,1,8.4-1.81,34.58,34.58,0,0,1,16.55,4.41c9.06,5.55,9.41,13.08,8.82,17.07-1.67,11.17-14.24,21-22.53,23.17a20,20,0,0,1-5,.6Z"/><path class="cls-2" d="M367.37,175.05c-7.44,0-15.4-3.67-20.73-6.43a31.44,31.44,0,0,1-4.3-2.72l0,0c-.44.16-1.09.41-2,.85s-2,1-3.09,1.68c-3.22,1.87-7.22,4.2-12,4.2a14.57,14.57,0,0,1-5.14-.94c-4.27-1.6-6.39-4.81-7.8-6.93l-.6-.89-.11-.07-.51-.73a1,1,0,0,0-.39-.3,11.08,11.08,0,0,0-3.86-.52l-1,0c-1.48.12-3,.21-4.46.27-.93.06-2,.12-3.1.12a19.85,19.85,0,0,1-3.54-.28,12.56,12.56,0,0,1-1.9-.47l-.17-.06-.08,0a10.24,10.24,0,0,1-6.37-6.31,15.4,15.4,0,0,1,.05-10.42h-7.11c-2.66,5.69-6.45,9.6-10.81,11-2.42,1-5.63,1.49-10,1.49-4.18,0-8.57-.42-11.78-.73l-1.79-.17c-2.12-.18-4.3-.31-6.61-.44a110.16,110.16,0,0,1-15.78-1.65c-6.88-1.41-14.26-2.85-21.49-3.94A188.27,188.27,0,0,0,177.3,149c-7.47-.19-14.53-.38-21.32-1.68-.76-.14-2-.34-3.46-.56-6.58-1-17.55-2.72-26.35-6.26a26,26,0,0,1-6.18-2.78c-.06,0-4.65-3-6.6-6.49-.16-.23-.29-.45-.42-.67a9.15,9.15,0,0,1,.08-9.8,27.26,27.26,0,0,1,4.38-5.36c.23-.24.44-.44.59-.61a126.34,126.34,0,0,0,11.6-14.86,72.57,72.57,0,0,1,8.45-9.7c1.63-1.66,3.18-3.22,4.54-4.8,5.41-6.23,10.19-9.84,18.61-9.84a36.73,36.73,0,0,1,3.77.2c6.49.63,13.55,2,16.67,7.17a9.43,9.43,0,0,1,.67,1.35,20,20,0,0,0,2.65.2c.41,0,.82,0,1.21,0,1.71-.16,3.41-.23,5.2-.23a108.2,108.2,0,0,1,15.31,1.38,98.88,98.88,0,0,0,13.77,1.27,45.8,45.8,0,0,0,5.81-.35,39.2,39.2,0,0,1,4.74-.27,96.34,96.34,0,0,1,12.73,1.13c3,.4,5.88.79,8.47.91l1.09,0c4.57.21,11.36.51,16.37,3.26,3.88,1.45,7.06,5,9.38,10.54l3.92.63,3.36.73,3.46.42,2.69.48a28.39,28.39,0,0,1,2.9.79,11.45,11.45,0,0,1,5.77,4.31,12.59,12.59,0,0,1,6.55,6.26c2.13,4.74,1.93,10.7,1.38,14.86-.12.93-.36,2.08-.67,3.47a37.46,37.46,0,0,0,0,5.85v0a1.9,1.9,0,0,0,.13.76,4.08,4.08,0,0,0,2.05.38,15.24,15.24,0,0,0,6.91-2c2.17-1.17,4-2.33,5.8-3.44,4.71-2.95,9.17-5.74,15.38-5.74a28,28,0,0,1,11,2.6,15.91,15.91,0,0,0,5.34,1.57c1.22,0,2.67-.74,5.82-2.41l.24-.12a17.83,17.83,0,0,1,8.4-1.82,34.47,34.47,0,0,1,16.55,4.42c9.06,5.55,9.41,13.07,8.82,17.06-1.66,11.17-14.24,21-22.53,23.17a19.93,19.93,0,0,1-5,.6Z"/><path class="cls-3" d="M251.89,94.92c-7.83-.39-17.11-2.77-24.79-1.82-14.77,1.84-26.18-3.3-40.32-2-8.47.75-14.42-4.28-22.84,1a86.46,86.46,0,0,0-16.5,13.78c-4.56,5.15-8.93,9.72-15.28,13.36-3.73,2.15-16.66,2.49-13.45,8.07,5.54,9.65,32.27,12.37,38.51,13.57,12.63,2.42,27.06.66,44.59,3.29,7.24,1.09,14.58,2.52,21.83,4,7,1.41,14.65,1.37,21.64,2,6.74.59,26.66,3.13,21.56-4.59-3.68-5.58-.49-11.89-.83-18.71-.38-7.7,3.48-17,3.7-24.31S257.49,95.2,251.89,94.92Z"/><path class="cls-3" d="M164.34,82.38c-8-.79-11.3,1.12-16.73,7.39-4,4.63-9.12,8.9-12.53,13.9a134.85,134.85,0,0,1-12.2,15.62c-1.3,1.41-5.56,5.17-4.45,7.18,1,1.8,9.29-.15,11.18.55,4.75,1.74,13.2,9.14,14.23,7.86,3.24-4,9-12.64,12.2-17.06,4.29-6,8.59-12,12.87-17.68,2.23-3,9.22-10.21,7.08-13.76C174.23,83.44,167.38,82.68,164.34,82.38Z"/><path class="cls-4" d="M255.28,125.06c0,14.71,3.41,25.05,9.27,25.05s11.94-10.34,11.94-25.05-4.75-27.52-10.6-27.52S255.28,110.34,255.28,125.06Z"/><path class="cls-5" d="M271.47,110.81c-5.58.93-6.15,11.48-5.91,16.42.33,6.85,4.15,11.22,8.49,11.22h17.33c7.29,0,9.72-24.42,2-27C287.09,109.45,277.84,109.75,271.47,110.81Z"/><path class="cls-4" d="M298.08,125c0,7-3.41,13.62-6.7,13.62s-3.14-6.64-3.14-13.62.68-13.63,4-13.63S298.08,118,298.08,125Z"/><path class="cls-6" d="M290.29,132.23c1.9,6.23,4.68,7.17,2.83,13.26-5.16,17,10.06,7.36,19.84,11.07,4.71,1.79,4.83,7.21,9.38,8.92,5.48,2.06,10.38-2.57,15.19-4.77,7.53-3.44,6.47-.9,12.15,2s14.51,7,21,5.3c9.23-2.4,27-19,11.91-28.2-4.54-2.78-14-4.74-18.4-2.39-6.5,3.44-8.79,4.75-17.09,1.2-12.11-5.19-15.43.34-26.48,6.32-8.32,4.5-18.5,3.93-18.85-4.71a36.66,36.66,0,0,1,.7-10.78c1.36-6.67-3.88-14.92-11.28-13.44C288.15,116.66,288.36,125.91,290.29,132.23Z"/><path class="cls-7" d="M135.15,106.91a85.32,85.32,0,0,1,7.64-11.76c1.45-1.36,6.56,6.09,8,5.87,1.58-.25,7-.7,7.35,1.54.52,3.54-5.11,3-5.94,4.35-2.09,3.32-6.92,10.62-8.08,14.92-1.6,5.91-11.57,5.91-5.23,1.68,1.2-.79.84-2-1.76-2.33a98.18,98.18,0,0,0-14.24-.05C118.41,122,133.53,111.21,135.15,106.91Z"/><path class="cls-7" d="M182.36,92.39c.81.31,3.33,6,1,9.39s-6.12,3.76-9.11,5.45c-2.55,1.44-8.55,10.42-8.55,10.42-1.3.74.86-7.45,2.77-10.17a23.46,23.46,0,0,1,8.41-7.77C180.78,97.62,178.3,90.8,182.36,92.39Z"/><path class="cls-8" d="M227.87,136c-3.19,1.53-29.28.65-20.57,1.8,7.3,1,22.12,1.39,26.48-2.34,2.71-2.32,9.44-7.17,12.83-8.75,2.67-1.24,7.68-.35,8-2.48.41-2.59.05-3.67-5-1.62C241.76,125.85,235.48,132.33,227.87,136Z"/><path class="cls-8" d="M205.28,136c-2.81.09-6.52-5.41-9.53-6-3.92-.81-16.88,3.67-20.82,4.6-5.13,1.22-16.32.48-20.14.68-.78,0-11.89.68-12,1.46-.51,4.36,12.73-.91,19.22-.43,3.8.29,11.87,1.25,15.63.34S189.25,131,193.13,131c1.92,0,5.16,2,6.49,3.15A7.64,7.64,0,0,0,205.28,136Z"/><path class="cls-7" d="M156.2,91.16c2.23,1,10.06.74,10,3,0,.45-4.14,1.28-5.18.19-.87-.91-5.56-.68-7-1.54-1.87-1.11-5.11.21-6-.56-.76-.63,1.79-1,2.71-1.24A9.6,9.6,0,0,1,156.2,91.16Z"/><path class="cls-7" d="M156.61,84.86c2.19,0,3.13,2,5,2.48,2.7.75,4.26.14,6.86,0,4.29-.22,3.27,2.27-.09,2.63-1.9.2-3.29-1-5.2-.82-1.13.12-4.1.11-4.55-.7-1.29-2.31-5.36.31-6.23-.72C151.3,86.48,154.24,84.9,156.61,84.86Z"/><path class="cls-9" d="M148,125.88c-2.59-1.49,3.66-8.37,5.53-10.51,1.36-1.56,3-3.62,4.21-5.24.92-1.28,1.77-2.42,2.73-3.82,1.35-2,2.21-2.37,2.68-4.61s1.34-2.93,2.9-4.83c1.12-1.35,1.71-3.3,3.07-4.51.77-.68,1.94-.86,2.7-1.59s.45-2,1.82-2.12c3.09-.19-1.48,3.56-1.89,4.12a31.91,31.91,0,0,1-3.14,3.92c-2.5,2.53-3.45,6.56-5.69,9.33-.95,1.17-2.71,2.58-3.48,4.1-.93,1.84-1,3.5-2.5,5.19-1.34,1.48-3.1,2.44-4.22,4.17a32.7,32.7,0,0,1-2.83,4.08C149.21,124.35,149,126.43,148,125.88Z"/><path class="cls-10" d="M127.18,127.39c3,.18,10.21,2.8,10.93,6.25.48,2.27-8.63,2.24-14.61-1.51-1.71-1.07-5.61-4.54-4.23-5.06C121.06,126.38,125.43,127.28,127.18,127.39Z"/><path class="cls-11" d="M128.6,127.5c1.61.63,11.13,4.57,9.51,6.14-2.31,2.24,4.28,3.14,5.68,1.26,2.48-3.29-12-8.63-13.84-8.92-1.53-.25-10.65-2.72-11.18-.82C117.88,128.29,127,126.89,128.6,127.5Z"/><path class="cls-7" d="M253.68,110.31c-4.13,1.57-6.73,8-10,10-2.69,1.63-6.6,2.86-8.54,4.69a8.06,8.06,0,0,1-3.93,2.05c2.33-4,1.17-10.5,1.88-13.34,1.42-5.68,13.21-14.28,6.66-18.78-2.16-1.48-12.59-1.62-15.06-1.31-3.44.45-6.92.06-8.35.46.29.76,12.19,2.28,14,4.73,2.45,3.29-5.44,8.77-4.67,11.18,2.72,8.46-4.13,14.17-7.86,15.87-1.61.73-14.18-4.19-15.75-3.62s-8.66-.26-12.27,0-29.06,7.23-26.2,9.77c1.43,1.28,24.39-7.22,31-6,2.56.47,11.38,7,21.58,7.67.22.12,9,.64,10.6,0,6.15-2.5,23.62-15.94,24.2-16.23,1.19-.59,3.75-1,4.29-2.36C256.1,113,258,108.69,253.68,110.31Z"/><path class="cls-12" d="M288.87,122.2c-.25,1.87,0,8.09,1.3,11.39.75,1.9,4,6.69,3.56,8.47a39.63,39.63,0,0,1-1,4.46c-1.54,3.76-1.22,8.76,3.22,9.35a60.5,60.5,0,0,0,9.46-.23c4.08-.33,9.19.56,10.79,3.33a9.56,9.56,0,0,0-.76-3c-.79-.75-11.31-.54-14.6-5.37-2.76-4.05,1.21-17.25,1.68-20.84.3-2.22.81-7.6-.85-11.28a5.73,5.73,0,0,0-3.55-3,9.32,9.32,0,0,0-3.81-.49C288.22,116.14,289.43,118.16,288.87,122.2Z"/><path class="cls-13" d="M134.47,113.94c1.16-1,2.91-1.66,3.87-3s.84-2.85,1.54-4.34c.8-1.72,3.62-7,5.71-7,.3,1.76-.71,4.76-1.37,6.33-.45,1.06-1.64,1.78-2,3-.25.94.47,2.73.15,3.42-1,2.05-4.92,2-6.53,3.41-.81.74-1,2-2.33,1.83a1.33,1.33,0,0,1-1.13-1.82Z"/><path class="cls-14" d="M298.81,120.76a2.19,2.19,0,0,1,.52-2.86c.46-.23,1.57-.24,2.31,1.19s.3,2.62-.16,2.86A2.2,2.2,0,0,1,298.81,120.76Z"/><path class="cls-5" d="M273.36,110.63s-8.55,12.82.69,27.82"/><path class="cls-5" d="M277.7,110.14a27.15,27.15,0,0,0,.41,28.31"/><path class="cls-5" d="M281.83,110a27.43,27.43,0,0,0,.34,28.49"/><path class="cls-5" d="M286,110.1a27.21,27.21,0,0,0,.41,28.35"/></svg>