<svg id="Layer_54" data-name="Layer 54" xmlns="http://www.w3.org/2000/svg" viewBox="0 0 256 256"><defs><style>.cls-1{opacity:0.5;}.cls-2{fill:#fff;}.cls-3{fill:#d17127;stroke:#994811;}.cls-3,.cls-5,.cls-6{stroke-miterlimit:10;}.cls-4{fill:#96400f;}.cls-5{fill:#d36c26;}.cls-5,.cls-6{stroke:#96400f;}.cls-6{fill:#f58d3c;}.cls-7{fill:#ffd1ad;}.cls-8{fill:#984e16;}.cls-9{fill:#e27933;}.cls-10{fill:#572906;}.cls-11{fill:#fffffe;}.cls-12{fill:#300808;}.cls-13{fill:#872727;}</style></defs><path class="cls-1" d="M82.92,248.56a15.8,15.8,0,0,1-5-.79h-.1a10.38,10.38,0,0,1-7.77-3.49,6.22,6.22,0,0,1-1-1.6,11.33,11.33,0,0,1-.75-3.7c-4.78.78-9.24,1.5-10.52,1.75a16.7,16.7,0,0,1-5.77,1,15.68,15.68,0,0,1-5-.79H47a10.41,10.41,0,0,1-7.77-3.48,5.76,5.76,0,0,1-1-1.61c-1.82-4.44.06-10.74,2.58-14.71,3-4.7,7.35-7.43,12.32-7.7.35,0,.74,0,1.15,0a121.37,121.37,0,0,1,14.11,1.47c6.3.86,13.44,1.84,18.44,1.84.89,0,1.6,0,2.16-.07a28.34,28.34,0,0,0-4.16-5.55l-.13-.14A69.69,69.69,0,0,1,74,195.6a50.84,50.84,0,0,1-7.45-20.32.28.28,0,0,0,0-.09c-.12-.74-.22-1.49-.32-2.25a14.55,14.55,0,0,1-5.85,1.25,13.45,13.45,0,0,1-9.48-3.88,6.4,6.4,0,0,1-.66-.82,17.13,17.13,0,0,1-2.19-13.93,16.38,16.38,0,0,1,6.52-9.45,123.72,123.72,0,0,1-6.45-12.31c-1.17-2.4-2.78-5.72-3.85-7.69l-1.75.06c-1.13,0-2.33.08-3.53.08-11.06,0-13.94-4.86-14.41-8.94a8.77,8.77,0,0,1,2-6.65c3.51-4.24,10.07-5,12-5.19.57,0,1.13-.06,1.67-.06a19.21,19.21,0,0,1,4.61.55,9.07,9.07,0,0,1,5.79-3.64,7.4,7.4,0,0,1,1.14-.09,6.7,6.7,0,0,1,5.28,2.52c2.39,3,1.55,6.65.82,9.88,0,.16-.08.34-.12.53,1.87,2.4,6,7.36,10.08,12.06A12.84,12.84,0,0,0,71,125c.28-.93.53-1.76.75-2.4a66.93,66.93,0,0,0,1.83-9.31c-.34,0-.69,0-1,0a20.75,20.75,0,0,1-3.79-.36c-6.77-1.25-8.92-4.71-9.53-7.39a8.13,8.13,0,0,1-.13-3C54,100.3,49.18,96.06,48.36,88.7a8.66,8.66,0,0,1-1.64-6.11,7.73,7.73,0,0,1,3.87-5.71,8.2,8.2,0,0,1,4.12-1.12,8.07,8.07,0,0,1,1.39.12,10.36,10.36,0,0,1,1.12-.12c2.6-.13,2.91-.42,3.08-2.81.06-1,.08-2,.1-3.13.08-4.18.19-9.6,3.2-14.48-1.31-2.8-2.7-6.25-4.15-10.31-7.46-20.85-5.85-26.56-3-29.62A8.64,8.64,0,0,1,62.86,13c3,0,13.1,1.16,19.41,16.06a39.72,39.72,0,0,1,3,16.53l.5,0q.15-3.09.57-6.38C88.54,22.89,98.23,12,111.07,11.45h.24a6,6,0,0,1,3.19.92c2.39,1.5,7.39,6.75,2.15,23a110,110,0,0,1-10.23,23c3.91,9.18,2.93,21.52,1.88,28.59a13.48,13.48,0,0,1-1.6,4.64c.15,4,.15,8.39,0,13.17-.45,15.35,5.86,20.8,21.1,33.95l1.39,1.2c15.21,13.14,15.51,30.32,15,36.87a38.12,38.12,0,0,0,7.64,5.12l.21.12c4.24,2.38,9.3,3.53,15.47,3.53,9,0,19.23-2.46,29.17-4.85,3.51-.85,7.14-1.72,10.71-2.48,9.07-1.94,15.95-2.93,20.44-2.93a17.85,17.85,0,0,1,4.22.42,7.23,7.23,0,0,1,3.91,2.3,6,6,0,0,1,1.3,4.88c-.45,2.53-1.37,7.78-24.69,19a314.74,314.74,0,0,1-45,17.19,78.15,78.15,0,0,1-22.14,3.33h0q-3.24,0-6.42-.3c1.47,3.21,3.5,7.91,1.2,12.48-1.49,2.95-4.29,4.88-8.33,5.73-3.49.73-9.27,1.52-15.38,2.35s-15.4,2.1-17.41,2.82a27.7,27.7,0,0,1-9.64,2.05c-.33,0-.61,0-.85.07A17,17,0,0,1,82.92,248.56ZM110.35,223a74.55,74.55,0,0,0,7.82.54c.66,0,1.22,0,1.67-.05a28.11,28.11,0,0,0-4.13-5.5l-.13-.15c-1.1-1.2-2.15-2.43-3.18-3.71-.48,0-1,0-1.46,0-1.13,0-2.27-.05-3.41-.13l.46,1A21,21,0,0,1,110.35,223Z"/><path class="cls-2" d="M77.92,243.56a15.8,15.8,0,0,1-5-.79h-.1a10.38,10.38,0,0,1-7.77-3.49,6.22,6.22,0,0,1-1-1.6,11.33,11.33,0,0,1-.75-3.7c-4.78.78-9.24,1.5-10.52,1.75a16.7,16.7,0,0,1-5.77,1,15.68,15.68,0,0,1-5-.79H42a10.41,10.41,0,0,1-7.77-3.48,5.76,5.76,0,0,1-1-1.61c-1.82-4.44.06-10.74,2.58-14.71,3-4.7,7.35-7.43,12.32-7.7.35,0,.74,0,1.15,0a121.37,121.37,0,0,1,14.11,1.47c6.3.86,13.44,1.84,18.44,1.84.89,0,1.6,0,2.16-.07a28.34,28.34,0,0,0-4.16-5.55l-.13-.14A69.69,69.69,0,0,1,69,190.6a50.84,50.84,0,0,1-7.45-20.32.28.28,0,0,0,0-.09c-.12-.74-.22-1.49-.32-2.25a14.55,14.55,0,0,1-5.85,1.25,13.45,13.45,0,0,1-9.48-3.88,6.4,6.4,0,0,1-.66-.82,17.13,17.13,0,0,1-2.19-13.93,16.38,16.38,0,0,1,6.52-9.45,123.72,123.72,0,0,1-6.45-12.31c-1.17-2.4-2.78-5.72-3.85-7.69l-1.75.06c-1.13,0-2.33.08-3.53.08-11.06,0-13.94-4.86-14.41-8.94a8.77,8.77,0,0,1,2-6.65c3.51-4.24,10.07-5,12-5.19.57,0,1.13-.06,1.67-.06a19.21,19.21,0,0,1,4.61.55,9.07,9.07,0,0,1,5.79-3.64,7.4,7.4,0,0,1,1.14-.09,6.7,6.7,0,0,1,5.28,2.52c2.39,3,1.55,6.65.82,9.88,0,.16-.08.34-.12.53,1.87,2.4,6,7.36,10.08,12.06A12.84,12.84,0,0,0,66,120c.28-.93.53-1.76.75-2.4a66.93,66.93,0,0,0,1.83-9.31c-.34,0-.69,0-1,0a20.75,20.75,0,0,1-3.79-.36c-6.77-1.25-8.92-4.71-9.53-7.39a8.13,8.13,0,0,1-.13-3C49,95.3,44.18,91.06,43.36,83.7a8.66,8.66,0,0,1-1.64-6.11,7.73,7.73,0,0,1,3.87-5.71,8.2,8.2,0,0,1,4.12-1.12,8.07,8.07,0,0,1,1.39.12,10.36,10.36,0,0,1,1.12-.12c2.6-.13,2.91-.42,3.08-2.81.06-1,.08-2,.1-3.13.08-4.18.19-9.6,3.2-14.48-1.31-2.8-2.7-6.25-4.15-10.31-7.46-20.85-5.85-26.56-3-29.62A8.64,8.64,0,0,1,57.86,8c3,0,13.1,1.16,19.41,16.06a39.72,39.72,0,0,1,3,16.53l.5,0q.15-3.09.57-6.38C83.54,17.89,93.23,7,106.07,6.45h.24a6,6,0,0,1,3.19.92c2.39,1.5,7.39,6.75,2.15,23a110,110,0,0,1-10.23,23c3.91,9.18,2.93,21.52,1.88,28.59a13.48,13.48,0,0,1-1.6,4.64c.15,4,.15,8.39,0,13.17-.45,15.35,5.86,20.8,21.1,33.95l1.39,1.2c15.21,13.14,15.51,30.32,15,36.87a38.12,38.12,0,0,0,7.64,5.12l.21.12c4.24,2.38,9.3,3.53,15.47,3.53,9,0,19.23-2.46,29.17-4.85,3.51-.85,7.14-1.72,10.71-2.48,9.07-1.94,15.95-2.93,20.44-2.93a17.85,17.85,0,0,1,4.22.42,7.23,7.23,0,0,1,3.91,2.3,6,6,0,0,1,1.3,4.88c-.45,2.53-1.37,7.78-24.69,19a314.74,314.74,0,0,1-45,17.19,78.15,78.15,0,0,1-22.14,3.33h0q-3.24,0-6.42-.3c1.47,3.21,3.5,7.91,1.2,12.48-1.49,2.95-4.29,4.88-8.33,5.73-3.49.73-9.27,1.52-15.38,2.35s-15.4,2.1-17.41,2.82a27.7,27.7,0,0,1-9.64,2.05c-.33,0-.61,0-.85.07A17,17,0,0,1,77.92,243.56ZM105.35,218a74.55,74.55,0,0,0,7.82.54c.66,0,1.22,0,1.67-.05a28.11,28.11,0,0,0-4.13-5.5l-.13-.15c-1.1-1.2-2.15-2.43-3.18-3.71-.48,0-1,0-1.46,0-1.13,0-2.27-.05-3.41-.13l.46,1A21,21,0,0,1,105.35,218Z"/><path class="cls-3" d="M68.61,152.16s-6,26.22,15.55,49.8c0,0,10.74,11,4.6,14.66s-32.48-2.56-40.29-2.15-10.93,11.08-9.67,14.15A4.46,4.46,0,0,0,43,229.88a10,10,0,0,0,8.09.1c1-.38,35.73-5.69,43.68-7.36s3.49-8.1,2-12a31.51,31.51,0,0,1,.67-26.8c6.16-13,7.14-29.44-1.23-37.54"/><path class="cls-4" d="M43.23,230a12.32,12.32,0,0,1-.28-5.2,10,10,0,0,1,.77-2.55A7.68,7.68,0,0,1,45.2,220a9.49,9.49,0,0,1,4.69-2.56,13.88,13.88,0,0,1,5.25-.21v.1a33.72,33.72,0,0,0-5,1.06,11.53,11.53,0,0,0-4.38,2.2,6.75,6.75,0,0,0-1.45,2,9.43,9.43,0,0,0-.87,2.36,11.87,11.87,0,0,0-.12,5.07Z"/><path class="cls-5" d="M42.72,109s1.26-5.3,3.91-5.72-.56,7,0,8.51,13.76,16.75,13.76,16.75,4.94,1.67,12.2-6.7l7.35-3.35-8.85,22.42s-12.32,1.44-15.39-1.63-10.89-22.19-13-23.72-16.47,2.09-17.16-3.91c-.35-3,4.31-4.85,8.51-5.16A11.38,11.38,0,0,1,42.72,109Z"/><path class="cls-6" d="M226.33,176.84c-1.11,6.33-34.05,22.14-65.5,31.45-25.19,7.45-42.52-.51-48.42-4a24.11,24.11,0,0,1-2.23-1.44c-16.23,1.84-28.39-7.56-28.39-7.56-8.49-5.95-12.62-15.56-14.28-26h0c-3.35-21.06,3.44-45.44,4.94-49.8,2.23-6.51,6-40.38,6.14-40.77s.24-.6.37-.88c6.31-14.53,15.45-3.47,15.45-3.47s1.85,6.42,1.3,25.16,8.19,25.73,24.56,39.87S133,173.32,133,173.32c1.71,4.11,11.14,8.92,11.14,8.92,16.56,9.3,38.7,1.3,59.54-3.17,15.24-3.26,20.33-2.95,22-2.54C226.2,176.68,226.33,176.84,226.33,176.84Z"/><path class="cls-7" d="M92.87,177.21c-3.39,2.47-16.87,8.28-25-7.87h0c-3.35-21.06,3.44-45.44,4.93-49.8,2.23-6.51,6-40.38,6.14-40.77s.25-.6.37-.88c5.44-1.66,13.34-2.73,11.73,5.79-2.42,12.79-12.58,46.1-8.9,63.4S96.71,174.42,92.87,177.21Z"/><path class="cls-7" d="M226.12,176.93c-1.12,6.31-34.06,21.71-65.42,31-25.12,7.43-42.41-.51-48.29-4,2-5.88,5.18-13.38,8.21-13.83.58-.08,13.36,8.16,36,6.49,22-1.62,50.88-6.59,68.35-20C226,176.66,226.12,176.93,226.12,176.93Z"/><path class="cls-6" d="M71.75,53.36s5.79-13.26,0-26.94-15-12.91-15.91-11.93S53.61,19.86,60.1,38s9.21,17,9.42,17A2.41,2.41,0,0,0,71.75,53.36Z"/><path class="cls-8" d="M68.78,51.05s2.26-8.78-1.43-22S57.93,14.7,56.89,16.58,61.62,40.45,68.78,51.05Z"/><path class="cls-6" d="M97.37,81.06c-.83,5.53-7.61,8.48-13.2,11.3S75,103.9,64.86,102s-1.23-8.35-1.23-8.35-15.37-.5-14.35-13.47a3.14,3.14,0,0,1,.42-2.14,3.32,3.32,0,0,1,2.84-1.32c3.91-.21,8.28-1.52,8.74-8.4s-1.1-15,7.92-19.81a8.87,8.87,0,0,1,1.89-.91c2.69-1,8.3-2.13,17.08.53C101.1,52.08,98.19,75.52,97.37,81.06Z"/><path class="cls-9" d="M71.09,47.64c-2.9,2.07-5.77,6-6.23,13.46-.91,14.9-2,19.57-15.16,17a3.32,3.32,0,0,1,2.84-1.32c3.91-.21,8.28-1.52,8.74-8.4s-1.1-15,7.92-19.81A8.87,8.87,0,0,1,71.09,47.64Z"/><path class="cls-10" d="M50.49,82.48A6.37,6.37,0,0,0,53,83.61a7.89,7.89,0,0,0,5-1.37,2.9,2.9,0,0,0,1.64-1.76,2,2,0,0,0-1.62-2.11,6.13,6.13,0,0,0-2.88.15c-1.55.32-2.22-.08-3.42-1a2.82,2.82,0,0,0-3.13-.51C46.14,78.53,49.05,81.49,50.49,82.48Z"/><ellipse class="cls-11" cx="82.68" cy="65.66" rx="6.61" ry="7.07"/><ellipse class="cls-12" cx="82.96" cy="65.8" rx="4.37" ry="4.7"/><ellipse class="cls-11" cx="85.13" cy="62.74" rx="1.15" ry="1.23" transform="translate(-14.77 97.44) rotate(-55.54)"/><ellipse class="cls-11" cx="66.31" cy="65.82" rx="4.47" ry="6.4"/><ellipse class="cls-12" cx="67.82" cy="65.95" rx="2.96" ry="4.25"/><ellipse class="cls-11" cx="68.78" cy="62.16" rx="0.81" ry="1.07" transform="translate(-7.06 8.84) rotate(-7)"/><path class="cls-13" d="M64.26,93.87s-1.89.68-2.42,3.93c-.37,2.28,8.79,2,10.7,1.12s7.14-3.41,8.46-7C81,91.9,71.19,97,64.26,93.87Z"/><path d="M51.93,84a17.89,17.89,0,0,0,3.61,4.62,19.15,19.15,0,0,0,4.76,3.33,23.09,23.09,0,0,0,5.49,1.8,24.44,24.44,0,0,0,5.79.28l1.44-.1,1.43-.26a19.39,19.39,0,0,0,2.78-.76,21.79,21.79,0,0,0,5.06-2.8A23.61,23.61,0,0,0,86.45,86a24.85,24.85,0,0,0,3.16-5,22.87,22.87,0,0,1-6.85,9.65,20,20,0,0,1-5.21,3,20.67,20.67,0,0,1-2.91.85l-1.49.29c-.5.06-1,.09-1.51.13a25.73,25.73,0,0,1-6-.39,20.53,20.53,0,0,1-5.69-2A18.08,18.08,0,0,1,51.93,84Z"/><path d="M86.73,79.76a4,4,0,0,1,1.6-.26,4.88,4.88,0,0,1,1.61.4,3,3,0,0,1,1.38,1,2.59,2.59,0,0,1,.5,1.61l-.09,0c-.48-.34-.8-.69-1.17-1a10,10,0,0,0-1-1,4,4,0,0,0-1.31-.6,3.71,3.71,0,0,0-1.48-.15Z"/><path class="cls-6" d="M88.64,55.71s-.12-.25-.3-.75c-.74-2.07-2.51-8.51-1-19.91,1.86-14.14,9.77-22.24,19-22.61,0,0,4,2.51-.37,16.1S95.24,53,92.54,55.15,88.64,55.71,88.64,55.71Z"/><path class="cls-8" d="M90.45,32.92c2.47-11.82,7.61-17.5,15.07-17.8,0,0,2.1,1.58-1.44,12.58S94.36,48.78,92.17,50.52,88.54,42,90.45,32.92Z"/><path class="cls-6" d="M85.84,123.06c.14.42,5,18.43-.55,20.94s-26.38-1-31.4,1.53-7.26,10.19-3.63,15.63c0,0,5.72,6,13.81-2.65,0,0,.56-3.49-6-2.79,0,0-3.77-3.63-.28-5.3s25.82,7.12,39.08,3.91c0,0,4.47,1.25,4.47-12.84V125.72"/><path class="cls-6" d="M97.43,159.77s-3.91,25.4,17.58,49c0,0,10.75,11,4.61,14.66s-33.22-3.07-41-2.66-10.19,11.59-8.93,14.66a4.41,4.41,0,0,0,4.18,1.25,10,10,0,0,0,8.1.11c1-.38,6.14-.11,9.63-1.78s26.09-3.91,34.05-5.58,3.49-8.1,1.95-12a31.52,31.52,0,0,1,.68-26.8c6.16-13,7.14-29.45-1.24-37.54"/><path class="cls-4" d="M81.89,236.78a17.79,17.79,0,0,1-.16-4.89,10.59,10.59,0,0,1,1.63-4.69,6.05,6.05,0,0,1,4.23-2.78,8.21,8.21,0,0,1,4.9.82l0,.1a12.93,12.93,0,0,0-4.69.06A6.26,6.26,0,0,0,84,227.66,9.94,9.94,0,0,0,82.23,232a17.07,17.07,0,0,0-.24,4.79Z"/><path class="cls-4" d="M74.08,236.77a31.07,31.07,0,0,1,.24-5.19,18.25,18.25,0,0,1,1.38-5.08,7.51,7.51,0,0,1,3.7-3.89,8,8,0,0,1,5.28-.37l0,.1a11.23,11.23,0,0,0-4.82,1.17,8.12,8.12,0,0,0-3.42,3.35,17.41,17.41,0,0,0-1.61,4.8,31.17,31.17,0,0,0-.63,5.11Z"/></svg>