<svg id="Layer_54" data-name="Layer 54" xmlns="http://www.w3.org/2000/svg" viewBox="0 0 512 256"><defs><style>.cls-1{opacity:0.5;}.cls-15,.cls-2{fill:#fff;}.cls-3{fill:none;stroke:#542c00;stroke-width:2px;}.cls-15,.cls-3{stroke-miterlimit:10;}.cls-4{fill:#dd6d22;}.cls-5{fill:#e2cfb7;}.cls-6{fill:#ede0cd;}.cls-7{fill:#f2e9dd;}.cls-8{fill:#e87f31;}.cls-9{fill:#ce6117;}.cls-10{fill:#d3bca3;}.cls-11{fill:#aa9579;}.cls-12{fill:#f49a9a;}.cls-13{fill:#fca7a7;}.cls-14{fill:#fc9149;}.cls-15{stroke:#000;stroke-width:0.25px;}.cls-16{fill:#2b2a2a;}.cls-17{fill:#3a3a3a;}.cls-18{fill:#fcfcfc;}.cls-19{fill:#323232;}.cls-20{fill:#4f4f4f;}</style></defs><path class="cls-1" d="M165.94,241.38c-.27,0-.55,0-.83,0l-1.47-.05c-1,0-1.9-.07-2.77-.13a17.68,17.68,0,0,1-5-1,10,10,0,0,1-3.78-2.42,8,8,0,0,1-.77-.89l-1.43.13a44.75,44.75,0,0,1-4.47.31,14.76,14.76,0,0,1-3.33-.34,10.1,10.1,0,0,1-4.07-1.88,9.23,9.23,0,0,1-1.92-2.07,8.59,8.59,0,0,1-.7-1.22,12.79,12.79,0,0,1-1.1-6.33,10.62,10.62,0,0,1,.13-1.21,9.66,9.66,0,0,1,4.1-6.36,10.83,10.83,0,0,1,1.86-1.06,12,12,0,0,1,1.88-.67,12.73,12.73,0,0,1,2.43-.41q.07-1,.12-2c.07-1.55.09-3.14.07-4.74,0-.85,0-1.75-.08-2.67-.07-1.44-.18-2.91-.32-4.35-.1-1-.22-2-.37-3.11-.07-.53-.15-1.06-.23-1.6-.18-1.12-.37-2.23-.59-3.31-.11-.57-.23-1.13-.35-1.7-.26-1.17-.54-2.34-.85-3.48-.55-2.07-1.19-4.14-1.9-6.16-.26-.76-1.24-3.49-1.24-3.49-.5-1.39-1-2.87-1.59-4.42-.31-.91-.64-1.84-1-2.79a153.24,153.24,0,0,1-6.39-16c-.24-.74-.48-1.48-.71-2.21-.67-2.16-1.29-4.33-1.83-6.46-.35-1.39-.67-2.79-1-4.16s-.55-2.73-.78-4.06c-.11-.66-.22-1.32-.32-2-.2-1.29-.37-2.59-.51-3.88a80.47,80.47,0,0,1,.79-24,68.86,68.86,0,0,1,2.32-8.85c.08-.25.16-.5.25-.76-.3-.12-.61-.25-.9-.39s-.6-.3-.85-.44a11.32,11.32,0,0,1-1.85-1.27,6,6,0,0,1-1.76-2.65c-.19-.16-.37-.34-.54-.51a14.58,14.58,0,0,1-2-2.55c-.17-.28-.32-.55-.46-.81a11.56,11.56,0,0,1-.67-1.49,9.22,9.22,0,0,1-.41-1.41c0-.22-.08-.43-.1-.63a14.22,14.22,0,0,1-1.9-5.47,11.7,11.7,0,0,1-.1-1.42c0-.19,0-.41,0-.62s0-.41,0-.6,0-.41,0-.58a6.17,6.17,0,0,1,3.36-5.5,25.32,25.32,0,0,1-.68-6.93,21.44,21.44,0,0,1,.39-3.08A20.76,20.76,0,0,1,122,57.35c.18-.32.36-.64.56-1,1.06-22.86,14.18-36.77,21.27-36.77a7.55,7.55,0,0,1,.83.05,6.34,6.34,0,0,1,5.52,5.27,8,8,0,0,1,.1,1.1,59,59,0,0,0,.64,6.93c.12.91.26,1.83.4,2.75l.3,1.86c.26,1.54.53,3.06.79,4.47.19,1,.37,2,.55,2.86,1.08,0,2.22.06,3.38.1l3.17.14c2.13.11,4.29.25,6.23.4l.32,0c.26-.86.54-1.8.83-2.79.16-.55.33-1.11.49-1.69.76-2.65,1.4-5.06,1.91-7.19.14-.57.28-1.15.4-1.72s.25-1.11.36-1.65.2-1,.29-1.51c.12-.68.22-1.32.28-1.92a7.93,7.93,0,0,1,.22-1.12,6.35,6.35,0,0,1,6-4.68H177a8,8,0,0,1,4.28,1.34,15,15,0,0,1,1.35,1,22,22,0,0,1,3.1,3.09l.21.26c.48.58.89,1.12,1.28,1.67s.93,1.37,1.38,2.09.9,1.56,1.33,2.37a43.46,43.46,0,0,1,2.4,5.57c.37,1,.71,2.12,1,3.21s.59,2.3.83,3.47a57,57,0,0,1,1.08,12c0,.89-.05,1.79-.1,2.7.17.34.32.67.46,1a20.79,20.79,0,0,1,1.61,9.14A25,25,0,0,1,195.82,77a6.07,6.07,0,0,1,1.2,1c1.87,2.06,1.65,4.43,1.5,6a15.65,15.65,0,0,1-.31,2,14.07,14.07,0,0,1-1.2,3.25,14.85,14.85,0,0,1-1.26,2,9,9,0,0,1-.7,2,12.58,12.58,0,0,1-.82,1.41A14,14,0,0,1,193,96.22a14.26,14.26,0,0,1-2.22,2,6,6,0,0,1-1.9,2.37,9.26,9.26,0,0,1-1.43.86c.18.47.37,1,.57,1.44l.15.36c.33,1,.63,1.93.89,3,.23.91.43,1.86.62,2.91l.09.52a2.53,2.53,0,0,0,.13.22c.13.22.27.43.41.64a12,12,0,0,0,.94,1.13,11.84,11.84,0,0,0,1.15,1.06,15.66,15.66,0,0,0,1.35,1l.06,0c.86-.07,1.73-.13,2.59-.18s1.66-.06,2.48-.06h.28c.84,0,1.68,0,2.49.09a31.15,31.15,0,0,1,7.79,1.43,28.76,28.76,0,0,1,4.35,1.84,34.54,34.54,0,0,1,3.64,2.2,50.48,50.48,0,0,0,6.67-1.45c1.56-.69,3.28-1.35,5.11-2,.8-.27,1.62-.54,2.46-.79s1.63-.49,2.48-.72c1.3-.35,2.64-.68,4-1l2.07-.43A96.32,96.32,0,0,1,255.75,111l2.06,0h.46a44.28,44.28,0,0,1,5.94.42,41.53,41.53,0,0,1,14.46-26.75,40.43,40.43,0,0,1,4.64-3.38l.45-.28c.33-.2.69-.41,1.08-.62.65-.36,1.4-.72,2.21-1.09s1.52-.65,2.29-.95c1.11-.43,2.25-.82,3.29-1.14s2.69-.81,3.8-1.1c4.31-1.11,5.29-1.11,5.76-1.11a6.15,6.15,0,0,1,2.77.67c.85-.3,1.7-.58,2.53-.82s1.69-.45,2.52-.63a33.57,33.57,0,0,1,6.64-.76h.28c.56,0,1.1,0,1.6,0a20.65,20.65,0,0,1,7.76,1.79,6,6,0,0,1,2.86,3.12l1.41.09h.06a6,6,0,0,1,9.29,1.43,10,10,0,0,1,1,2.72h.64l.9,0a5.92,5.92,0,0,0,.77-.1l.66-.14a18.79,18.79,0,0,0,2.87-.86c.17-.08.51-.26,1-.55l1-.59a7.19,7.19,0,0,1,3.62-1.07A6.06,6.06,0,0,1,357.53,82c.14.22.28.45.4.68a6.14,6.14,0,0,1,2.6-3.35,6,6,0,0,1,2.57-5.47c-.14-.64-.25-1.18-.34-1.58s-.15-.64-.21-.93a6,6,0,0,1,2.24-5.94.69.69,0,0,0-.05-.13c-.21-.51-.45-1-.7-1.52a59.6,59.6,0,0,0-3.78-6s-1.05-1.55-1.31-1.92a6.86,6.86,0,0,1-1.2-2.93,6.12,6.12,0,0,1,1.37-4.83A6,6,0,0,1,363.71,46a5.69,5.69,0,0,1,.72,0,37.39,37.39,0,0,1,4,.67l1.32.34a24.66,24.66,0,0,1,3.79,1.39c.63.3,1.25.62,1.84,1a6.4,6.4,0,0,1,1.15-.11,6,6,0,0,1,3.18.91c.79.5,1.6,1.07,2.47,1.74a31,31,0,0,1,3.41,3.1c.56.6,1.1,1.23,1.62,1.87A33,33,0,0,1,390,61c.48.83.94,1.72,1.46,2.81A37.41,37.41,0,0,1,393,67.48c.26.72.5,1.48.72,2.25a45.59,45.59,0,0,1,1.12,4.92c.08.46.15.93.22,1.39a5.83,5.83,0,0,1,1.78,2.26A16.54,16.54,0,0,1,398.14,84c0,.41.05.82.05,1.23,0,.7,0,1.44,0,2.19l0,.46.26.23a6,6,0,0,1,1.77,5.63,20.44,20.44,0,0,1-.74,2.44c-.18.49-.4,1.05-.68,1.66s-.61,1.33-1,2c-.24.45-.51.94-.81,1.44a33.33,33.33,0,0,1-2.12,3.1A34.54,34.54,0,0,1,392,107.6a6.21,6.21,0,0,1-.74,2.75l-.05.09a35.33,35.33,0,0,1-6,7.51l0,0a43.82,43.82,0,0,1-5.05,4.24,38.39,38.39,0,0,1-8.55,4.59c-1,.39-2.06.73-3.11,1l-.58.16a6,6,0,0,1-2,2.5,15.52,15.52,0,0,1-4.18,2l-.87.28c-.6.19-1.23.36-1.88.52-.95.24-2,.46-3.05.66-1.43.27-2.93.5-4.47.68s-3.18.34-4.77.43c-1.41.08-2.81.12-4.15.12-.67,0-1.32,0-2,0l-1.23,0a43.49,43.49,0,0,1-6.26-.75,5.93,5.93,0,0,1-3.09.86h-.15l-2.95-.08-2.35-.08-1.3-.05c-5.26-.21-12.41-1.9-17.13-5.89h-.34c-1.68,0-2.85-.6-5.14-1.84a17.18,17.18,0,0,0-8.21-2.09h-.25a18.73,18.73,0,0,0-2.46.22,17.17,17.17,0,0,0-3.36.89c.42.92.8,1.87,1.14,2.86a49.68,49.68,0,0,1,1.77,6.71c1.18,6,1.92,12,2.52,17.19l.26,2.28c.28,2.47.56,4.91.87,7.3a114.31,114.31,0,0,0,2,11.55c.2.89.43,1.77.67,2.63a47.65,47.65,0,0,0,1.64,4.9c.31.78.64,1.54,1,2.27,7.18,15.11,8.06,23.84,8,31,0,1.3-.13,2.83-.32,4.53-.13,1.1-.29,2.29-.48,3.55l-.18,1.17c-.13.8-.27,1.58-.41,2.34s-.27,1.5-.41,2.21-.28,1.4-.41,2-.26,1.26-.38,1.81a10.22,10.22,0,0,1-2.35,4.66,10.34,10.34,0,0,1-3.72,2.65c-.32.13-.63.25-1,.35a10.21,10.21,0,0,1-3,.46h-7.59a8.51,8.51,0,0,1-8.17-6.14,13.38,13.38,0,0,1-.33-1.38,11.65,11.65,0,0,1,3.5-11.29,14,14,0,0,1,3.57-2.3l.41-.17.29-.11.15-.07.32-.12a8.53,8.53,0,0,0,.29-2.24,10.69,10.69,0,0,0-.07-1.12,8.77,8.77,0,0,0-.21-1.21,13.88,13.88,0,0,0-1.81-4.25,19.92,19.92,0,0,0-2.88-3.16l-.71-.67-1.16-1.07-1.31-1.18-.91-.8c-.9-.8-1.85-1.62-2.83-2.48l-2-1.76a13.72,13.72,0,0,1,.28,5.2,19.66,19.66,0,0,1-1.57,5.06c-.15.37-.29.69-.42,1-.6,1.55-1.11,2.95-1.55,4.28a52.9,52.9,0,0,0-1.61,6,58.7,58.7,0,0,0-.92,6.46l0,.54a15.49,15.49,0,0,1-.34,2.94,8.8,8.8,0,0,1-2.52,4.52,9.05,9.05,0,0,1-5.86,2.31l-2.79.17-.81.06c-.88.06-1.88.13-2.94.13h-.3a13.87,13.87,0,0,1-7-1.75,11.07,11.07,0,0,1-3-2.59,10.83,10.83,0,0,1-1.11-1.7,10.13,10.13,0,0,1-.9-2.42,9.16,9.16,0,0,1-.24-1.63,9.69,9.69,0,0,1,1.2-5.21,11,11,0,0,1,1.33-1.93,12.47,12.47,0,0,1,3.24-2.66c.3-.17.6-.32.89-.47l1.07-.46.61-3.07c.32-1.62.63-3.14,1-5.2.08-.45.18-.9.28-1.36l.14-.7a9.73,9.73,0,0,0,.22-1.49.67.67,0,0,1-.06-.12,5.5,5.5,0,0,0-.45-.62c-.65-.8-1.4-1.61-2.2-2.46l-.92-1c-.46-.5-.89-1-1.33-1.51l-.57-.67a16.07,16.07,0,0,0-1.34-1.39,58,58,0,0,1-4.2-4.1,53.08,53.08,0,0,1-4.42-5.42c-.61-.84-1.2-1.71-1.75-2.59s-1-1.62-1.47-2.45c-.75-1.33-1.44-2.69-2.06-4-1,.52-2,1.05-3,1.57L222,181.93c-2.11,1.14-4.28,2.32-6.46,3.45A48.62,48.62,0,0,1,193,191a50.29,50.29,0,0,1-7.61-.58c0,.35,0,.7,0,1.05-.07,3.48-.39,6.8-.7,10l-.12,1.18c-.21,2.26-.48,4.55-.78,6.8-.37,2.75-.8,5.45-1.27,8.05-.23,1.23-.46,2.39-.69,3.47s-.47,2.13-.7,3.06-.46,1.83-.68,2.6a28.59,28.59,0,0,1-1.08,3.14c-.21.5-.41,1-.59,1.46l-.06.14c-.21.52-.41,1-.61,1.51a23.12,23.12,0,0,1-1.08,2.22,14.66,14.66,0,0,1-1.08,1.67,11.41,11.41,0,0,1-6.08,4.15A14.5,14.5,0,0,1,165.94,241.38Z"/><path class="cls-2" d="M160.94,236.38c-.27,0-.55,0-.83,0l-1.47-.05c-1,0-1.9-.07-2.77-.13a17.68,17.68,0,0,1-5-1,10,10,0,0,1-3.78-2.42,8,8,0,0,1-.77-.89l-1.43.13a44.75,44.75,0,0,1-4.47.31,14.76,14.76,0,0,1-3.33-.34,10.1,10.1,0,0,1-4.07-1.88,9.23,9.23,0,0,1-1.92-2.07,8.59,8.59,0,0,1-.7-1.22,12.79,12.79,0,0,1-1.1-6.33,10.62,10.62,0,0,1,.13-1.21,9.66,9.66,0,0,1,4.1-6.36,10.83,10.83,0,0,1,1.86-1.06,12,12,0,0,1,1.88-.67,12.73,12.73,0,0,1,2.43-.41q.07-1,.12-2c.07-1.55.09-3.14.07-4.74,0-.85,0-1.75-.08-2.67-.07-1.44-.18-2.91-.32-4.35-.1-1-.22-2-.37-3.11-.07-.53-.15-1.06-.23-1.6-.18-1.12-.37-2.23-.59-3.31-.11-.57-.23-1.13-.35-1.7-.26-1.17-.54-2.34-.85-3.48-.55-2.07-1.19-4.14-1.9-6.16-.26-.76-1.24-3.49-1.24-3.49-.5-1.39-1-2.87-1.59-4.42-.31-.91-.64-1.84-1-2.79a153.24,153.24,0,0,1-6.39-16c-.24-.74-.48-1.48-.71-2.21-.67-2.16-1.29-4.33-1.83-6.46-.35-1.39-.67-2.79-1-4.16s-.55-2.73-.78-4.06c-.11-.66-.22-1.32-.32-2-.2-1.29-.37-2.59-.51-3.88a80.47,80.47,0,0,1,.79-24,68.86,68.86,0,0,1,2.32-8.85c.08-.25.16-.5.25-.76-.3-.12-.61-.25-.9-.39s-.6-.3-.85-.44a11.32,11.32,0,0,1-1.85-1.27,6,6,0,0,1-1.76-2.65c-.19-.16-.37-.34-.54-.51a14.58,14.58,0,0,1-2-2.55c-.17-.28-.32-.55-.46-.81a11.56,11.56,0,0,1-.67-1.49,9.22,9.22,0,0,1-.41-1.41c0-.22-.08-.43-.1-.63a14.22,14.22,0,0,1-1.9-5.47,11.7,11.7,0,0,1-.1-1.42c0-.19,0-.41,0-.62s0-.41,0-.6,0-.41,0-.58a6.17,6.17,0,0,1,3.36-5.5,25.32,25.32,0,0,1-.68-6.93,21.44,21.44,0,0,1,.39-3.08A20.76,20.76,0,0,1,117,52.35c.18-.32.36-.64.56-1,1.06-22.86,14.18-36.77,21.27-36.77a7.55,7.55,0,0,1,.83.05,6.34,6.34,0,0,1,5.52,5.27,8,8,0,0,1,.1,1.1,59,59,0,0,0,.64,6.93c.12.91.26,1.83.4,2.75l.3,1.86c.26,1.54.53,3.06.79,4.47.19,1,.37,2,.55,2.86,1.08,0,2.22.06,3.38.1l3.17.14c2.13.11,4.29.25,6.23.4l.32,0c.26-.86.54-1.8.83-2.79.16-.55.33-1.11.49-1.69.76-2.65,1.4-5.06,1.91-7.19.14-.57.28-1.15.4-1.72s.25-1.11.36-1.65.2-1,.29-1.51c.12-.68.22-1.32.28-1.92a7.93,7.93,0,0,1,.22-1.12,6.35,6.35,0,0,1,6-4.68H172a8,8,0,0,1,4.28,1.34,15,15,0,0,1,1.35,1,22,22,0,0,1,3.1,3.09l.21.26c.48.58.89,1.12,1.28,1.67s.93,1.37,1.38,2.09.9,1.56,1.33,2.37a43.46,43.46,0,0,1,2.4,5.57c.37,1,.71,2.12,1,3.21s.59,2.3.83,3.47a57,57,0,0,1,1.08,12c0,.89-.05,1.79-.1,2.7.17.34.32.67.46,1a20.79,20.79,0,0,1,1.61,9.14A25,25,0,0,1,190.82,72a6.07,6.07,0,0,1,1.2,1c1.87,2.06,1.65,4.43,1.5,6a15.65,15.65,0,0,1-.31,2,14.07,14.07,0,0,1-1.2,3.25,14.85,14.85,0,0,1-1.26,2,9,9,0,0,1-.7,2,12.58,12.58,0,0,1-.82,1.41A14,14,0,0,1,188,91.22a14.26,14.26,0,0,1-2.22,2,6,6,0,0,1-1.9,2.37,9.26,9.26,0,0,1-1.43.86c.18.47.37,1,.57,1.44l.15.36c.33,1,.63,1.93.89,3,.23.91.43,1.86.62,2.91l.09.52a2.53,2.53,0,0,0,.13.22c.13.22.27.43.41.64a12,12,0,0,0,.94,1.13,11.84,11.84,0,0,0,1.15,1.06,15.66,15.66,0,0,0,1.35,1l.06,0c.86-.07,1.73-.13,2.59-.18s1.66-.06,2.48-.06h.28c.84,0,1.68,0,2.49.09a31.15,31.15,0,0,1,7.79,1.43,28.76,28.76,0,0,1,4.35,1.84,34.54,34.54,0,0,1,3.64,2.2,50.48,50.48,0,0,0,6.67-1.45c1.56-.69,3.28-1.35,5.11-2,.8-.27,1.62-.54,2.46-.79s1.63-.49,2.48-.72c1.3-.35,2.64-.68,4-1l2.07-.43A96.32,96.32,0,0,1,250.75,106l2.06,0h.46a44.28,44.28,0,0,1,5.94.42,41.53,41.53,0,0,1,14.46-26.75,40.43,40.43,0,0,1,4.64-3.38l.45-.28c.33-.2.69-.41,1.08-.62.65-.36,1.4-.72,2.21-1.09s1.52-.65,2.29-.95c1.11-.43,2.25-.82,3.29-1.14s2.69-.81,3.8-1.1c4.31-1.11,5.29-1.11,5.76-1.11a6.15,6.15,0,0,1,2.77.67c.85-.3,1.7-.58,2.53-.82s1.69-.45,2.52-.63a33.57,33.57,0,0,1,6.64-.76h.28c.56,0,1.1,0,1.6,0a20.65,20.65,0,0,1,7.76,1.79,6,6,0,0,1,2.86,3.12l1.41.09h.06a6,6,0,0,1,9.29,1.43,10,10,0,0,1,1,2.72h.64l.9,0a5.92,5.92,0,0,0,.77-.1l.66-.14a18.79,18.79,0,0,0,2.87-.86c.17-.08.51-.26,1-.55l1-.59a7.19,7.19,0,0,1,3.62-1.07A6.06,6.06,0,0,1,352.53,77c.14.22.28.45.4.68a6.14,6.14,0,0,1,2.6-3.35,6,6,0,0,1,2.57-5.47c-.14-.64-.25-1.18-.34-1.58s-.15-.64-.21-.93a6,6,0,0,1,2.24-5.94.69.69,0,0,0-.05-.13c-.21-.51-.45-1-.7-1.52a59.6,59.6,0,0,0-3.78-6s-1.05-1.55-1.31-1.92a6.86,6.86,0,0,1-1.2-2.93,6.12,6.12,0,0,1,1.37-4.83A6,6,0,0,1,358.71,41a5.69,5.69,0,0,1,.72,0,37.39,37.39,0,0,1,4,.67l1.32.34a24.66,24.66,0,0,1,3.79,1.39c.63.3,1.25.62,1.84,1a6.4,6.4,0,0,1,1.15-.11,6,6,0,0,1,3.18.91c.79.5,1.6,1.07,2.47,1.74a31,31,0,0,1,3.41,3.1c.56.6,1.1,1.23,1.62,1.87A33,33,0,0,1,385,56c.48.83.94,1.72,1.46,2.81A37.41,37.41,0,0,1,388,62.48c.26.72.5,1.48.72,2.25a45.59,45.59,0,0,1,1.12,4.92c.08.46.15.93.22,1.39a5.83,5.83,0,0,1,1.78,2.26A16.54,16.54,0,0,1,393.14,79c0,.41.05.82.05,1.23,0,.7,0,1.44,0,2.19l0,.46.26.23a6,6,0,0,1,1.77,5.63,20.44,20.44,0,0,1-.74,2.44c-.18.49-.4,1.05-.68,1.66s-.61,1.33-1,2c-.24.45-.51.94-.81,1.44a33.33,33.33,0,0,1-2.12,3.1A34.54,34.54,0,0,1,387,102.6a6.21,6.21,0,0,1-.74,2.75l-.05.09a35.33,35.33,0,0,1-6,7.51l0,0a43.82,43.82,0,0,1-5.05,4.24,38.39,38.39,0,0,1-8.55,4.59c-1,.39-2.06.73-3.11,1l-.58.16a6,6,0,0,1-2,2.5,15.52,15.52,0,0,1-4.18,2l-.87.28c-.6.19-1.23.36-1.88.52-.95.24-2,.46-3.05.66-1.43.27-2.93.5-4.47.68s-3.18.34-4.77.43c-1.41.08-2.81.12-4.15.12-.67,0-1.32,0-2,0l-1.23,0a43.49,43.49,0,0,1-6.26-.75,5.93,5.93,0,0,1-3.09.86h-.15l-2.95-.08-2.35-.08-1.3-.05c-5.26-.21-12.41-1.9-17.13-5.89h-.34c-1.68,0-2.85-.6-5.14-1.84a17.18,17.18,0,0,0-8.21-2.09h-.25a18.73,18.73,0,0,0-2.46.22,17.17,17.17,0,0,0-3.36.89c.42.92.8,1.87,1.14,2.86a49.68,49.68,0,0,1,1.77,6.71c1.18,6,1.92,12,2.52,17.19l.26,2.28c.28,2.47.56,4.91.87,7.3a114.31,114.31,0,0,0,2,11.55c.2.89.43,1.77.67,2.63a47.65,47.65,0,0,0,1.64,4.9c.31.78.64,1.54,1,2.27,7.18,15.11,8.06,23.84,8,31,0,1.3-.13,2.83-.32,4.53-.13,1.1-.29,2.29-.48,3.55l-.18,1.17c-.13.8-.27,1.58-.41,2.34s-.27,1.5-.41,2.21-.28,1.4-.41,2-.26,1.26-.38,1.81a10.22,10.22,0,0,1-2.35,4.66,10.34,10.34,0,0,1-3.72,2.65c-.32.13-.63.25-1,.35a10.21,10.21,0,0,1-3,.46h-7.59a8.51,8.51,0,0,1-8.17-6.14,13.38,13.38,0,0,1-.33-1.38,11.65,11.65,0,0,1,3.5-11.29,14,14,0,0,1,3.57-2.3l.41-.17.29-.11.15-.07.32-.12a8.53,8.53,0,0,0,.29-2.24,10.69,10.69,0,0,0-.07-1.12,8.77,8.77,0,0,0-.21-1.21,13.88,13.88,0,0,0-1.81-4.25,19.92,19.92,0,0,0-2.88-3.16l-.71-.67-1.16-1.07-1.31-1.18-.91-.8c-.9-.8-1.85-1.62-2.83-2.48l-2-1.76a13.72,13.72,0,0,1,.28,5.2,19.66,19.66,0,0,1-1.57,5.06c-.15.37-.29.69-.42,1-.6,1.55-1.11,2.95-1.55,4.28a52.9,52.9,0,0,0-1.61,6,58.7,58.7,0,0,0-.92,6.46l0,.54a15.49,15.49,0,0,1-.34,2.94,8.8,8.8,0,0,1-2.52,4.52,9.05,9.05,0,0,1-5.86,2.31l-2.79.17-.81.06c-.88.06-1.88.13-2.94.13h-.3a13.87,13.87,0,0,1-7-1.75,11.07,11.07,0,0,1-3-2.59,10.83,10.83,0,0,1-1.11-1.7,10.13,10.13,0,0,1-.9-2.42,9.16,9.16,0,0,1-.24-1.63,9.69,9.69,0,0,1,1.2-5.21,11,11,0,0,1,1.33-1.93,12.47,12.47,0,0,1,3.24-2.66c.3-.17.6-.32.89-.47l1.07-.46.61-3.07c.32-1.62.63-3.14,1-5.2.08-.45.18-.9.28-1.36l.14-.7a9.73,9.73,0,0,0,.22-1.49.67.67,0,0,1-.06-.12,5.5,5.5,0,0,0-.45-.62c-.65-.8-1.4-1.61-2.2-2.46l-.92-1c-.46-.5-.89-1-1.33-1.51l-.57-.67a16.07,16.07,0,0,0-1.34-1.39,58,58,0,0,1-4.2-4.1,53.08,53.08,0,0,1-4.42-5.42c-.61-.84-1.2-1.71-1.75-2.59s-1-1.62-1.47-2.45c-.75-1.33-1.44-2.69-2.06-4-1,.52-2,1.05-3,1.57L217,176.93c-2.11,1.14-4.28,2.32-6.46,3.45A48.62,48.62,0,0,1,188,186a50.29,50.29,0,0,1-7.61-.58c0,.35,0,.7,0,1.05-.07,3.48-.39,6.8-.7,10l-.12,1.18c-.21,2.26-.48,4.55-.78,6.8-.37,2.75-.8,5.45-1.27,8.05-.23,1.23-.46,2.39-.69,3.47s-.47,2.13-.7,3.06-.46,1.83-.68,2.6a28.59,28.59,0,0,1-1.08,3.14c-.21.5-.41,1-.59,1.46l-.06.14c-.21.52-.41,1-.61,1.51a23.12,23.12,0,0,1-1.08,2.22,14.66,14.66,0,0,1-1.08,1.67,11.41,11.41,0,0,1-6.08,4.15A14.5,14.5,0,0,1,160.94,236.38Z"/><path class="cls-3" d="M389.28,87.52l-3,.84c-.16,0-.08.13-.26.16,1.08-3.37,1.81-9.43.31-12.75a11.82,11.82,0,0,0-1.82,2.62c.06-10.59-3.59-22.24-13-28.08.53,1.59,1,3.23,1.67,4.77-4-5.3-8-7.33-14.52-8.07-.13,0,8.33,11.44,8.18,19.83a7.71,7.71,0,0,1-3-1.3,2.56,2.56,0,0,0-.48-.33c.05.22.1.47.17.74.39,1.73,1.34,6.25,1.89,11h0c-.74-.71-2.76-2.93-4-3.11.9,2.64-.13,9.73,0,10.48a8.61,8.61,0,0,0-.68-2.08c-.29-.59-2.14-3.37-2.17-2.67-.21,4.45-8.29,5.13-10.82,6.55,0-2.08.82-4.06-.34-5.83-.11-.16-2,1.12-3.23,1.67a23.46,23.46,0,0,1-6.55,1.63c-3,.11-6-.33-8.72.18.89-1.66,1.76-4.06.71-5.91-.06-.11-.81,1.75-4.42,1.58-3.08-.14-8.54-.87-12.13-.68.8-2.26,4.54-2.71,5.44-3.16,0,0-8.62-4.36-23,3.6A8,8,0,0,1,297.27,76c.2-.27-5.65,1.11-7.84,1.9-1.26.62-5.59,2-7.53,3.18l-.4.25A35.54,35.54,0,0,0,265,114a34.26,34.26,0,0,0-14.06-2c-11.58.38-22.43,3-29.79,6.36a47.91,47.91,0,0,1-10.44,1.94c-.47-.37-1-.74-1.44-1.09a24.63,24.63,0,0,0-6.65-3.41,27.9,27.9,0,0,0-8.46-1.23c-1.62,0-3.24.08-4.85.22l-1.81.17h0a20,20,0,0,1-7-5.9,15.42,15.42,0,0,1-1.29-2.18c0-.06-.28-1.14-.36-1.62a29.68,29.68,0,0,0-1.26-5A51.68,51.68,0,0,1,174.87,92q.4,0,.81,0a10.45,10.45,0,0,0,1.66-.13,7.31,7.31,0,0,0,3-1.08,12.29,12.29,0,0,1-2.58-.61c5.81-.86,7.28-5.27,7.12-5.22a9.4,9.4,0,0,1-2.3.65,9.39,9.39,0,0,0,4.78-6,8.63,8.63,0,0,0,.19-2.59,11.6,11.6,0,0,1-2.92,1.47,5.16,5.16,0,0,0,.3-.83c.19-.65-.16-2.41-.3-2.25a13.16,13.16,0,0,1-3,2c2.14-3.47,4.38-8.08,4.6-12.5A14.84,14.84,0,0,0,184,56.39c1.89-22.61-9.73-34.14-12.06-34.1-.28,0-.36.18-.4.52-.87,7.41-5.51,21.9-6.26,24.21A197,197,0,0,0,143,45.9c-.51-2.38-3.66-17.27-3.78-24.73,0-.33-.07-.51-.35-.55-2.31-.28-15,10-15.43,32.71a14.9,14.9,0,0,0-3,8.25c-.22,4.42,1.54,9.24,3.33,12.9a7.48,7.48,0,0,1-2.85-2.25c-.12-.16-.64,1.55-.53,2.22a5.36,5.36,0,0,0,.23.85,11.25,11.25,0,0,1-2.76-1.76,8.58,8.58,0,0,0-.07,2.59c.37,2.8,2.53,5.83,1.92,5.54-.15-.08.87,4.46,6.56,5.9a12.11,12.11,0,0,1-2.62.35,8.27,8.27,0,0,0,4.52,1.68,20.22,20.22,0,0,0,3.3,0l.44,0a60.14,60.14,0,0,0-3.16,7.65,61.41,61.41,0,0,0-2.12,8.08c-2.85,14.83-1.25,34.37,10.4,59.42,1.42,4.16,2.8,7.88,3.88,10.94.79,2.25,1.47,4.46,2,6.61,5.37,20.2,1.89,36,1.89,36a8,8,0,0,0-2.71-1.32,6.08,6.08,0,0,0-1.22-.18,6.41,6.41,0,0,0-3.88,1.07h0a3.75,3.75,0,0,0-1.69,2.95c-.11,2.4.43,3.82,1.44,4.61,1.85,1.46,5.27.86,9.09.52a6.54,6.54,0,0,0,4.79-2.15s0,.06,0,.08c-.43,2.38-.08,3.85.81,4.77,1.64,1.7,5.1,1.56,8.94,1.73,5.93.27,6.55-3.62,8.41-8,1.33-3.13,4.75-25.35,4.75-25.35a99.8,99.8,0,0,0,.75-14.4c-.08-1.7-.15-3.31-.19-4.83a43.69,43.69,0,0,0,33.69-2.76c6-3.12,12-6.59,18.11-9.46.13.4.26.81.38,1.21a37,37,0,0,0,1.31,3.59A49.21,49.21,0,0,0,240.45,188a52.15,52.15,0,0,1,3.69,4c1.14,1.23,2.32,2.43,3.37,3.73a7.37,7.37,0,0,1,1.83,3.89,20.27,20.27,0,0,1-.73,5.29c-.67,3.57-1.1,5.56-1.79,9.13a22.64,22.64,0,0,0-.43,3,9.62,9.62,0,0,0-3.8.93,5.87,5.87,0,0,0-3,3,3.5,3.5,0,0,0-.25,1.52,4.17,4.17,0,0,0,.93,2.33c2.15,2.67,6,2.11,9,1.93l2.77-.17a3.22,3.22,0,0,0,2.14-.71c1.07-1,.91-2.82,1-4.15a61.28,61.28,0,0,1,4.47-18.39,21.54,21.54,0,0,0,1.63-4.71,9,9,0,0,0-.74-4.71,46,46,0,0,0-2.16-4.26,39.14,39.14,0,0,1-2-4.43,40.25,40.25,0,0,1-2.51-11.66l.27.26c10.62,11.91,26.34,23,29.71,28.36,3.53,5.64,3.45,10.88,2.28,14.32a10.07,10.07,0,0,1-1.32,2.63l-1.12.32c-.38.11-1.73.64-1.82.68-4.42,2-4.06,5.69-3.44,7.85a2.48,2.48,0,0,0,2.4,1.79h7.59a4.26,4.26,0,0,0,4.18-3.37c.93-4.32,2.39-11.8,2.46-16.49.11-6.92-.84-14.6-7.37-28.36s-5.82-31.48-9.38-49.53c-1.17-5.91-2.9-10-5.29-12.84A23.11,23.11,0,0,1,298.47,117a8.64,8.64,0,0,0,2.3,1.09,9.38,9.38,0,0,1-.19-4.49c1,1.45,1.95,3.16,3,4.55,3,3.88,10.18,5.66,14.83,5.85,3.51.13,6.5.2,6.5.2-1.35-.27-2.84-2.36-3.57-3.69a53.19,53.19,0,0,0,6.31,2.58c9.27,2.54,26,.15,29.69-2.49.39-.28-3.25-.66-4.38-2.16a16,16,0,0,1,3.26-.3c10.4.59,18.81-8.85,19.74-9.49a29.52,29.52,0,0,0,5-6.22c.18-.3-2.29.38-4.56.91-.13,0-.6.18-.46.11C388.66,96.75,389.28,87.52,389.28,87.52Zm-228.64,85c.57,2.72,1.12,5.21,1.57,7.37.48,2.33.85,4.61,1.13,6.82,2.61,20.73-3,36-3,36a7.85,7.85,0,0,0-2.51-1.67,5.49,5.49,0,0,0-1.19-.35,6.36,6.36,0,0,0-4,.54h0a4.24,4.24,0,0,0-.95.66c.56-1.43.88-3.14,1.37-4.94.91-3.28,1.79-13.58,1.32-25.75h0c-.18-4.61-.55-9.5-1.19-14.37-.36-2.71-.8-5.42-1.33-8.07,0-.24-.7-1.23-.14-.71,2.31,2.15,6.76,2.42,8.86,4.52"/><path class="cls-4" d="M389.28,87.52l-3,.84c-.16,0-.08.13-.26.16,1.08-3.37,1.81-9.43.31-12.75a11.82,11.82,0,0,0-1.82,2.62c.06-10.59-3.59-22.24-13-28.08.53,1.59,1,3.23,1.67,4.77-4-5.3-8-7.33-14.52-8.07-.13,0,8.33,11.44,8.18,19.83a7.71,7.71,0,0,1-3-1.3,2.56,2.56,0,0,0-.48-.33c.05.22.1.47.17.74.39,1.73,1.34,6.25,1.89,11h0c-.74-.71-2.76-2.93-4-3.11.9,2.64-.13,9.73,0,10.48a8.61,8.61,0,0,0-.68-2.08c-.29-.59-2.14-3.37-2.17-2.67-.21,4.45-8.29,5.13-10.82,6.55,0-2.08.82-4.06-.34-5.83-.11-.16-2,1.12-3.23,1.67a23.46,23.46,0,0,1-6.55,1.63c-3,.11-6-.33-8.72.18.89-1.66,1.76-4.06.71-5.91-.06-.11-.81,1.75-4.42,1.58-3.08-.14-8.54-.87-12.13-.68.8-2.26,4.54-2.71,5.44-3.16,0,0-8.62-4.36-23,3.6A8,8,0,0,1,297.27,76c.2-.27-5.65,1.11-7.84,1.9-1.26.62-5.59,2-7.53,3.18l-.4.25A35.54,35.54,0,0,0,265,114a34.26,34.26,0,0,0-14.06-2c-11.58.38-22.43,3-29.79,6.36a47.91,47.91,0,0,1-10.44,1.94c-.47-.37-1-.74-1.44-1.09a24.63,24.63,0,0,0-6.65-3.41,27.9,27.9,0,0,0-8.46-1.23c-1.62,0-3.24.08-4.85.22l-1.81.17h0a20,20,0,0,1-7-5.9,15.42,15.42,0,0,1-1.29-2.18c0-.06-.28-1.14-.36-1.62a29.68,29.68,0,0,0-1.26-5A51.68,51.68,0,0,1,174.87,92q.4,0,.81,0a10.45,10.45,0,0,0,1.66-.13,7.31,7.31,0,0,0,3-1.08,12.29,12.29,0,0,1-2.58-.61c5.81-.86,7.28-5.27,7.12-5.22a9.4,9.4,0,0,1-2.3.65,9.39,9.39,0,0,0,4.78-6,8.63,8.63,0,0,0,.19-2.59,11.6,11.6,0,0,1-2.92,1.47,5.16,5.16,0,0,0,.3-.83c.19-.65-.16-2.41-.3-2.25a13.16,13.16,0,0,1-3,2c2.14-3.47,4.38-8.08,4.6-12.5A14.84,14.84,0,0,0,184,56.39c1.89-22.61-9.73-34.14-12.06-34.1-.28,0-.36.18-.4.52-.87,7.41-5.51,21.9-6.26,24.21A197,197,0,0,0,143,45.9c-.51-2.38-3.66-17.27-3.78-24.73,0-.33-.07-.51-.35-.55-2.31-.28-15,10-15.43,32.71a14.9,14.9,0,0,0-3,8.25c-.22,4.42,1.54,9.24,3.33,12.9a7.48,7.48,0,0,1-2.85-2.25c-.12-.16-.64,1.55-.53,2.22a5.36,5.36,0,0,0,.23.85,11.25,11.25,0,0,1-2.76-1.76,8.58,8.58,0,0,0-.07,2.59c.37,2.8,2.53,5.83,1.92,5.54-.15-.08.87,4.46,6.56,5.9a12.11,12.11,0,0,1-2.62.35,8.27,8.27,0,0,0,4.52,1.68,20.22,20.22,0,0,0,3.3,0l.44,0a60.14,60.14,0,0,0-3.16,7.65,61.41,61.41,0,0,0-2.12,8.08c-2.85,14.83-1.25,34.37,10.4,59.42,1.42,4.16,2.8,7.88,3.88,10.94.79,2.25,1.47,4.46,2,6.61,5.37,20.2,1.89,36,1.89,36a8,8,0,0,0-2.71-1.32,6.08,6.08,0,0,0-1.22-.18,6.41,6.41,0,0,0-3.88,1.07h0a3.75,3.75,0,0,0-1.69,2.95c-.11,2.4.43,3.82,1.44,4.61,1.85,1.46,5.27.86,9.09.52a6.54,6.54,0,0,0,4.79-2.15s0,.06,0,.08c-.43,2.38-.08,3.85.81,4.77,1.64,1.7,5.1,1.56,8.94,1.73,5.93.27,6.55-3.62,8.41-8,1.33-3.13,4.75-25.35,4.75-25.35a99.8,99.8,0,0,0,.75-14.4c-.08-1.7-.15-3.31-.19-4.83a43.69,43.69,0,0,0,33.69-2.76c6-3.12,12-6.59,18.11-9.46.13.4.26.81.38,1.21a37,37,0,0,0,1.31,3.59A49.21,49.21,0,0,0,240.45,188a52.15,52.15,0,0,1,3.69,4c1.14,1.23,2.32,2.43,3.37,3.73a7.37,7.37,0,0,1,1.83,3.89,20.27,20.27,0,0,1-.73,5.29c-.67,3.57-1.1,5.56-1.79,9.13a22.64,22.64,0,0,0-.43,3,9.62,9.62,0,0,0-3.8.93,5.87,5.87,0,0,0-3,3,3.5,3.5,0,0,0-.25,1.52,4.17,4.17,0,0,0,.93,2.33c2.15,2.67,6,2.11,9,1.93l2.77-.17a3.22,3.22,0,0,0,2.14-.71c1.07-1,.91-2.82,1-4.15a61.28,61.28,0,0,1,4.47-18.39,21.54,21.54,0,0,0,1.63-4.71,9,9,0,0,0-.74-4.71,46,46,0,0,0-2.16-4.26,39.14,39.14,0,0,1-2-4.43,40.25,40.25,0,0,1-2.51-11.66l.27.26c10.62,11.91,26.34,23,29.71,28.36,3.53,5.64,3.45,10.88,2.28,14.32a10.07,10.07,0,0,1-1.32,2.63l-1.12.32c-.38.11-1.73.64-1.82.68-4.42,2-4.06,5.69-3.44,7.85a2.48,2.48,0,0,0,2.4,1.79h7.59a4.26,4.26,0,0,0,4.18-3.37c.93-4.32,2.39-11.8,2.46-16.49.11-6.92-.84-14.6-7.37-28.36s-5.82-31.48-9.38-49.53c-1.17-5.91-2.9-10-5.29-12.84A23.11,23.11,0,0,1,298.47,117a8.64,8.64,0,0,0,2.3,1.09,9.38,9.38,0,0,1-.19-4.49c1,1.45,1.95,3.16,3,4.55,3,3.88,10.18,5.66,14.83,5.85,3.51.13,6.5.2,6.5.2-1.35-.27-2.84-2.36-3.57-3.69a53.19,53.19,0,0,0,6.31,2.58c9.27,2.54,26,.15,29.69-2.49.39-.28-3.25-.66-4.38-2.16a16,16,0,0,1,3.26-.3c10.4.59,18.81-8.85,19.74-9.49a29.52,29.52,0,0,0,5-6.22c.18-.3-2.29.38-4.56.91-.13,0-.6.18-.46.11C388.66,96.75,389.28,87.52,389.28,87.52Zm-228.64,85c.57,2.72,1.12,5.21,1.57,7.37.48,2.33.85,4.61,1.13,6.82,2.61,20.73-3,36-3,36a7.85,7.85,0,0,0-2.51-1.67,5.49,5.49,0,0,0-1.19-.35,6.36,6.36,0,0,0-4,.54h0a4.24,4.24,0,0,0-.95.66c.56-1.43.88-3.14,1.37-4.94.91-3.28,1.79-13.58,1.32-25.75h0c-.18-4.61-.55-9.5-1.19-14.37-.36-2.71-.8-5.42-1.33-8.07,0-.24-.7-1.23-.14-.71,2.31,2.15,6.76,2.42,8.86,4.52"/><path class="cls-5" d="M386.3,88.36c-.16,0-.08.13-.26.16,1.08-3.37,1.81-9.43.31-12.75a11.82,11.82,0,0,0-1.82,2.62c.06-10.59-3.59-22.24-13-28.08.53,1.59,1,3.23,1.67,4.77-4-5.3-8-7.33-14.52-8.07-.13,0,7.94,10.74,8.18,19.83a7.71,7.71,0,0,1-3-1.3,2.56,2.56,0,0,0-.48-.33s.07.26.17.74c.39,1.73,1.34,6.25,1.89,11h0c-.74-.71-2.76-2.93-4-3.11.16,2.92.51,6-.53,8.5-3.31,1.42-6.6,3.13-7.31,3.42-17,7,0,34,20,23,.36-.19,1.75-5.21,2.22-5.3,12.78-5.7,13.4-15.93,13.4-15.93Zm-13.41,6.71Z"/><path class="cls-6" d="M361.53,89.88a9.15,9.15,0,0,1-1.48,4.06c-.13.17-.25.34-.39.49l.13,0c.29-.08.67-.2,1.09-.35,1.05-.39,2.42-1,3.63-1.45a14.07,14.07,0,0,1,2.7-1h0l0,.12a7.46,7.46,0,0,1-1.05,2.6A19,19,0,0,1,364.3,97a10.2,10.2,0,0,0-.86,1.59c.61-.83.19-.17-.74,1.27,8.87-5,11-11.72,10.92-12.33h0v0h0c.07.5.6,4.57-.73,7.51h0c.62-.52,1.25-1,1.86-1.58a35.6,35.6,0,0,0,3.11-3A19.14,19.14,0,0,0,380,87.62l.07-.12a16.11,16.11,0,0,0,1.33-2.75A13.59,13.59,0,0,0,382,82.6c0-.08,0-.15,0-.23a8.33,8.33,0,0,1-.88.37l-.35.13c-1.1.43-2.71,1-3.83,1.4l-.56.18-.19.06-.16,0-.14,0-.1,0c-.09,0-.14,0-.12,0,.19-.33.36-.67.53-1a27.86,27.86,0,0,0,1.12-2.64l.18-.54c.12-.36.24-.73.34-1.1s.2-.74.29-1.11.17-.74.24-1.12c.1-.56.19-1.13.26-1.7a25.39,25.39,0,0,0-.41-8.51l0-.1c0-.11-.05-.23-.08-.35a15.15,15.15,0,0,0-1.4-4v0a.2.2,0,0,1,0,.07,8.38,8.38,0,0,1-1.15,3.07,14.29,14.29,0,0,1-1.8,2.92h0c0-.56,0-1.11-.08-1.64a23,23,0,0,0-1.61-7c-.16-.4-.34-.78-.52-1.16a20.72,20.72,0,0,0-5.65-7A28.79,28.79,0,0,0,362,49.14l-1.3-.73-1.05-.56-.83-.42c4.36,6.5,6.8,11.32,8,19.41a7.71,7.71,0,0,1-3-1.3c2.28,1.86,3.08,7.19,3.71,8.86,2-7.28,1.59-13.33-3-22.4-.3-.6,8.57,7.29,7.46,22.66,4.9-2.88,4.58-8.62,4.65-8.29,2,9.62-5.19,20.54-5,19.89,1.36-4.62-.11-9.85-1.47-15.13-.19,4.5-4.39,13.5-4.38,13.11a50.19,50.19,0,0,0-.38-7.31h0c-.74-.71-2.76-2.93-4-3.11a12.81,12.81,0,0,1-.53,8.5,10.09,10.09,0,0,1,.53,2A15.77,15.77,0,0,1,361.53,89.88Zm1.41-.91a48.44,48.44,0,0,0,.52-11.41,11.8,11.8,0,0,1,.64,1.75c.27.88.37,1.82.58,2.71a52,52,0,0,1,.48,5.61A14,14,0,0,0,368,84.42c0-.06,0-.12.05-.18s0,.12-.05.18a8.9,8.9,0,0,1-.73,1.88,15.85,15.85,0,0,1-3.38,4.46A20,20,0,0,1,362.27,92C362.51,91,362.75,90,362.94,89Z"/><path class="cls-7" d="M365.87,84.24c0,.39,4.19-8.61,4.38-13.11,1.36,5.28,2.83,10.51,1.47,15.13-.19.65,7-10.27,5-19.89-.07-.33.25,5.41-4.65,8.29,1.11-15.37-7.76-23.26-7.46-22.66,4.6,9.07,5,15.12,3,22.4-.63-1.67-1.43-7-3.71-8.86a2.56,2.56,0,0,0-.48-.33s.07.26.17.74c.39,1.73,1.34,6.25,1.89,11A50.19,50.19,0,0,1,365.87,84.24Z"/><path class="cls-7" d="M367.29,86.3a8.9,8.9,0,0,0,.73-1.88,14,14,0,0,1-2.86,3.21,52,52,0,0,0-.48-5.61c-.21-.89-.31-1.83-.58-2.71a11.8,11.8,0,0,0-.64-1.75A48.44,48.44,0,0,1,362.94,89c-.19,1-.43,2-.67,3a20,20,0,0,0,1.64-1.22A15.85,15.85,0,0,0,367.29,86.3Z"/><path class="cls-8" d="M370,104.15l-.15,0h0c.31-.13.62-.26.93-.41,6.87-3.29,11.78-12.07,11.25-12.2t0,0h0s-3.54,2.53-5.28,3.71l-.21.14a38.83,38.83,0,0,1-6.09,3.48,27.15,27.15,0,0,1-6.36,1.9c-.7.12-1.42.23-2.18.32l-2,.22a25,25,0,0,0,3.29-3c.39-.42.78-.88,1.15-1.35a19,19,0,0,0,1.84-2.71,11.08,11.08,0,0,0,1.05-2.6l0-.12h0a17.71,17.71,0,0,0-2.7,1c-1.21.49-2.58,1.06-3.63,1.45-.43.16-.81.29-1.09.37l-.16,0,0,0c.14-.15.26-.32.39-.49a10.54,10.54,0,0,0,1.48-4.06,15.77,15.77,0,0,0,0-5.57,8.61,8.61,0,0,0-.68-2.08c-.29-.59-2.14-3.37-2.17-2.67-.21,4.45-8.29,5.13-10.82,6.55,0-2.08.82-4.06-.34-5.83-.11-.16-2,1.12-3.23,1.67a23.46,23.46,0,0,1-6.55,1.63c-3,.11-6-.33-8.72.18.89-1.66,1.76-4.06.71-5.91-.06-.11-.81,1.75-4.42,1.58-3.08-.14-8.54-.87-12.13-.68.8-2.26,4.54-2.71,5.44-3.16,0,0-8.62-4.36-23,3.6A8,8,0,0,1,297.27,76c.2-.27-5.65,1.11-7.84,1.9-1.26.62-2.47,1.25-3.63,1.92a41.27,41.27,0,0,0-5.91,4.07,34.77,34.77,0,0,0-4.47,4.45c-.2.23-.39.47-.58.71a19.54,19.54,0,0,0-1.67,2.63,11.47,11.47,0,0,1-1.32,1.89l-.06.06h0c4.36-3.62,8.4-5.63,17.6-5.68.57,0-15.61,3.59-18.87,15.69,2.23-2.36,5.73-3.44,8.91-3.94l1.06-.16a10.4,10.4,0,0,0-4.66,5.53c-.12.36,7.14-4.26,14-.71a8.36,8.36,0,0,1,1.41,1.12,14.29,14.29,0,0,0-8.31.36,17.44,17.44,0,0,0-8,5.94,20.66,20.66,0,0,0-1.7,2.56c0,.14.07.22.07.22,11.43-7,23.27-1.9,24.36-1.41-.46-.21-.94-.46-1.41-.73h0c.5.27,1,.53,1.51.78l.31.16h0a1.09,1.09,0,0,0-.11-.27c-.23-.49-.79-1.5-1.12-2.22-.61-1.3-1.79-4-1.81-5.73,2.54,4.34,7.73,8.45,11.61,11.14a56.7,56.7,0,0,0,9.23,4.13,19.14,19.14,0,0,1-2.73-5.45,13.35,13.35,0,0,1-.63-3.59h0c.06.07.13.13.19.19a15.38,15.38,0,0,0,2.3,1.77c1.11.72,2.29,1.39,3.35,2.17a12.68,12.68,0,0,0,2.15,1.24,41.18,41.18,0,0,0,7.86,2.57c2.38.57,4.68,1,6.44,1.23.72.1,1.35.18,1.85.22a93.28,93.28,0,0,0,9.81,0h.05a0,0,0,0,0,0,0l-.71-.43c-1.27-.76-2.66-1.56-4-2.44a26.37,26.37,0,0,1-4.27-3.29,14.09,14.09,0,0,1-1.88-2.21h0l.48.18a33.35,33.35,0,0,0,3.95,1.23,47.07,47.07,0,0,0,5.3.95,66.35,66.35,0,0,0,7.62.55,44.16,44.16,0,0,0,10.44-1.05,36.12,36.12,0,0,0,9.76-3.78c.95-.53,1.89-1.12,2.82-1.76a29.52,29.52,0,0,0,5-6.22c.18-.3-2.29.38-4.56.91a4.46,4.46,0,0,1-.46.11l-1.38.2c-.71.09-1.34.16-2.1.23Z"/><path class="cls-4" d="M243.53,218.78l.63-.1-.24.12a3.18,3.18,0,0,0-1.74,3.38,1.42,1.42,0,0,0,0,.2v.05a.57.57,0,0,0,0,.14v.06l.06.18h0l.06.17,0,0,.06.13,0,0,.08.17h0c0,.05,0,.1.08.14l0,0,.08.13,0,0a.58.58,0,0,0,.11.15h0l.11.14,0,0,.12.13h0l.14.13h0l.14.13h0c.15.12.3.24.46.35h0a3.05,3.05,0,0,0,.54.14,2.31,2.31,0,0,0,.37,0,2.65,2.65,0,0,1-.49-.74,3.94,3.94,0,0,1,.12-3.24,2.6,2.6,0,0,1,2-1.71,2.44,2.44,0,0,0-1.24,1.42c-.37,1.37.08,3.56,1.33,3.6.56,0,1.11.11,1.66.13s1.34.16,2,.22a3.74,3.74,0,0,0,1.76-.06,2.59,2.59,0,0,0,.66-.34h0l.1-.14,0,0,.07-.12,0,0s.05-.11.08-.16v0l.06-.13,0,0,.06-.14v0s0-.11.05-.17l0,0,0-.14,0-.05c0-.06,0-.12,0-.18a18.73,18.73,0,0,0,.22-2.47c.05-1,.12-2,.23-2.91a36.44,36.44,0,0,1,2.35-9.53c1.25-3.5,2.74-7.19,1.49-10.91a24.39,24.39,0,0,0-2.45-4.73c-1-1.63-1.93-3.3-2.82-5-1.75-3.29-3.17-6.73-4.92-10a21.59,21.59,0,0,0-6.49-7.82c-2.53-1.76-5.85-2.82-8.89-1.93a9.23,9.23,0,0,0-4.42,2.88A49.21,49.21,0,0,0,240.45,188a50.21,50.21,0,0,1,3.69,4c1.14,1.23,2.32,2.43,3.37,3.73a7.37,7.37,0,0,1,1.83,3.89,20.27,20.27,0,0,1-.73,5.29c-.67,3.57-1.1,5.56-1.79,9.13a22.64,22.64,0,0,0-.43,3,9.62,9.62,0,0,0-3.8.93,5.87,5.87,0,0,0-3,3,3.5,3.5,0,0,0-.25,1.52A5.64,5.64,0,0,1,243.53,218.78Z"/><path class="cls-9" d="M253.14,172.65c-3.66-4.28-6.61-8.65-8-12.88-.8.08-1.6.18-2.38.31-1.45.23-2.87.53-4.28.89a68.11,68.11,0,0,0-11.17,4l-1.39.64c.13.4.26.81.38,1.21a37,37,0,0,0,1.31,3.59,9.23,9.23,0,0,1,4.42-2.88c3-.89,6.36.17,8.89,1.93a21.59,21.59,0,0,1,6.49,7.82c1.75,3.28,3.17,6.72,4.92,10,.89,1.68,1.84,3.35,2.82,5a24.39,24.39,0,0,1,2.45,4.73c1.25,3.72-.24,7.41-1.49,10.91a36.44,36.44,0,0,0-2.35,9.53c-.11,1-.18,1.94-.23,2.91a18.73,18.73,0,0,1-.22,2.47c0,.06,0,.12,0,.18l0,.05,0,.14,0,0c0,.06,0,.12-.05.17v0l-.06.14,0,0-.06.13v0c0,.05-.05.11-.08.16l0,0-.07.12,0,0-.1.14h0a2.59,2.59,0,0,1-.66.34,3.74,3.74,0,0,1-1.76.06c-.67-.06-1.33-.2-2-.22s-1.1-.11-1.66-.13c-1.25,0-1.7-2.23-1.33-3.6a2.44,2.44,0,0,1,1.24-1.42,2.6,2.6,0,0,0-2,1.71,3.94,3.94,0,0,0-.12,3.24,2.65,2.65,0,0,0,.49.74,2.31,2.31,0,0,1-.37,0,3.05,3.05,0,0,1-.54-.14h0c-.16-.11-.31-.23-.46-.35h0l-.14-.13h0l-.14-.13h0L243,224l0,0-.11-.14h0a.58.58,0,0,1-.11-.15l0,0-.08-.13,0,0s0-.09-.08-.14h0l-.08-.17,0,0-.06-.13,0,0-.06-.17h0l-.06-.18v-.06a.57.57,0,0,1,0-.14v-.05a1.42,1.42,0,0,1,0-.2,3.18,3.18,0,0,1,1.74-3.38l.24-.12-.63.1a5.64,5.64,0,0,0-4.18,3.73,4.17,4.17,0,0,0,.93,2.33c2.15,2.67,6,2.11,9,1.93l2.77-.17a3.22,3.22,0,0,0,2.14-.71c1.07-1,.91-2.82,1-4.15a61.28,61.28,0,0,1,4.47-18.39,21.54,21.54,0,0,0,1.63-4.71,9,9,0,0,0-.74-4.71,46,46,0,0,0-2.16-4.26,39.14,39.14,0,0,1-2-4.43,40.25,40.25,0,0,1-2.51-11.66l0,0A6.39,6.39,0,0,1,253.14,172.65Zm4.5,18.52.25.11-.25-.11-.36-.17Z"/><path class="cls-5" d="M214.66,164.75c-3,1.24-5.91,3-9,4s-5.85,2.2-9,3a61.84,61.84,0,0,1-9,2,29.52,29.52,0,0,1-9,0c-1-.17-3-1.66-4-2L174,174.3c0,.55.07,3.43.07,3.51a43.69,43.69,0,0,0,33.69-2.76c6-3.12,12-6.59,18.11-9.46l1.39-.64C226.66,160.75,217.51,163.58,214.66,164.75Z"/><path class="cls-10" d="M186.65,175.18a71.23,71.23,0,0,0,9.61-1.87q4.73-1.2,9.35-2.73t9.14-3.4c2.85-1.17,5.74-2.69,8.86-3a5.68,5.68,0,0,1,3.68.72,68.11,68.11,0,0,1,11.17-4c1.41-.36,2.83-.66,4.28-.89.78-.13,1.58-.23,2.38-.31a2.09,2.09,0,0,1-.08-.23c-.6-1.85-1.09-3.56-1.49-5.14-.89-.1-1.79-.17-2.68-.22l-.3,0H240l-.38,0h-4.27l-.21,0h-.4l-.45,0h-.16l-.46,0h-.14l-.23,0-.25,0h-.13l-.48.06h-.12l-.24,0-.26,0h-.1l-.25,0-.26,0h-.09l-.27,0-.25,0-.08,0-.53.08h-.07l-.54.1h-.06l-.26.05-.29,0h0l-.55.11h0l-.56.12h0l-.57.12h0l-.3.07-.26.07h0l-.57.15h0l-.27.07-.31.08h0l-.58.16h0l-.27.08-.31.09h0l-.31.1-.27.08h0l-.57.19h0l-.57.19h0l-.58.21h0l-.15.05-.13.05a84.24,84.24,0,0,0-10.11,4.7l-2.16,1.13-1,.5c-2.27,1.19-4.55,2.35-6.86,3.44-3.41,1.62-6.87,3.15-10.38,4.53-.88.34-1.77.67-2.68,1a20.69,20.69,0,0,1-7.54,1.23c-.36,0-.73-.06-1.09-.1a12.36,12.36,0,0,1-4.47-1.45,11.1,11.1,0,0,1-1.16-.77c0,.12,0,.25,0,.37v1.15c0,.12,0,.24,0,.36v0c0,.39,0,.79,0,1.19h0a19.86,19.86,0,0,0,3.05.73A34.1,34.1,0,0,0,186.65,175.18Z"/><path class="cls-8" d="M212.34,122.88c-2.49,1.71-4.38,2.42-6.58,4.48-1.16-3.82-2.85-6.46-6.46-8.13-4.15-1.92-10-2.21-14.1-.37-2.08.93-4.63,3.44-6.21,5.08.12-1.94.29-4-.54-5.78-2.4-5.18-7-6.21-11.19-5.74-.18.49-.35,1-.5,1.48a20.36,20.36,0,0,0-.33,5.21,16.45,16.45,0,0,1-1.87-4.74,29.41,29.41,0,0,1-1.18,3c-3,5.52-3.5,16.13-3.5,16.13a22.94,22.94,0,0,1-1.62-3.78h0c0,.11-.08.48-.1.56s-.12.75-.14.84-.12.78-.13.84a2,2,0,0,1,0,.24c0,.11,0,.22,0,.33s-.07.53-.08.58-.07.49-.08.6-.08.64-.1.72a1.5,1.5,0,0,1,0,.22c0,.15-.06.52-.07.56s-.11,1-.12,1.05-.09,1-.1,1.06-.11,1.33-.11,1.39,0,.12,0,.18a.57.57,0,0,1,0,.13s0,.25,0,.3v.78c0,.09,0,.18,0,.27s0,.24,0,.37v.12s0,.51,0,.7a1.34,1.34,0,0,1,0,.2c0,.14,0,.28,0,.41a2.44,2.44,0,0,0,0,.27v1c0,.09,0,.18,0,.27v.62c0,.15,0,.29,0,.44V145c0,.13,0,.25,0,.38v.6c0,.09,0,.19,0,.28v.53c0,.19,0,.38,0,.57v.21c0,.13,0,.26,0,.39s0,.26,0,.39h0c0,.25,0,.51,0,.77v.24l0,.54v.27a2.45,2.45,0,0,1,0,.27c0,.1,0,.19,0,.28v.24c0,.26.05.52.07.78,0,.49.1,1,.15,1.47.08.74.18,1.48.29,2.22s.23,1.48.36,2.22h0c.06.41.11.82.17,1.23.18,1.23.36,2.44.56,3.62l.27,1.58c.13.74.47,2.57.5,2.75.37,2,.76,3.9,1.14,5.7h0c.57,2.72,1.12,5.21,1.57,7.37.48,2.33.85,4.61,1.13,6.82,2.61,20.73-3,36-3,36a7.85,7.85,0,0,0-2.51-1.67,5.49,5.49,0,0,0-1.19-.35,6.36,6.36,0,0,0-4,.54h0a5,5,0,0,0-.33,4.76l0,.06.08.13,0,.06a3.85,3.85,0,0,1,.8-3.53l.17-.2a3.13,3.13,0,0,1,1.79-.82l.11,0,.41-.07h.13l.27,0h.13a2.36,2.36,0,0,1,.9.17l.2.09.1.05c.09.06-5-.36-3.27,4.28a.91.91,0,0,0,.07.14,2.31,2.31,0,0,0,.57.64l.23.19s0-.08,0-.12a3.81,3.81,0,0,1-.07-.75,3.4,3.4,0,0,1,0-.45,5.09,5.09,0,0,1,.58-2,.83.83,0,0,1,.12-.16,2.49,2.49,0,0,1,.31-.23l.07,0a.51.51,0,0,1,.16-.09,1.78,1.78,0,0,1,.39-.17h0a.41.41,0,0,1,.16,0h0a3.72,3.72,0,0,0-.66,1.3,5.57,5.57,0,0,0,0,1.63,2.42,2.42,0,0,0,.13.56,3.16,3.16,0,0,0,1.47,1.55l.27.15h0l.38.17a3.75,3.75,0,0,0,.88.2h.17l.52,0h.47a5.42,5.42,0,0,0,1.4-.16,2.06,2.06,0,0,0,.35-.12l.07,0a3.51,3.51,0,0,0,.88-.55,3.94,3.94,0,0,0,.71-.8,16.94,16.94,0,0,0,1.39-3c.44-1.08.86-2.17,1.25-3.27q1.17-3.3,2-6.69a108.29,108.29,0,0,0,2.14-25.91c-.07-1.33-.15-2.65-.24-4-.36-5.42-1-10.81-1.54-16.21a56.51,56.51,0,0,1,.13-15.37c.13-.7.27-1.41.44-2.11a24.45,24.45,0,0,1,5.09-10.36l.18-.21c.29-.32.58-.63.89-.93l.29-.28a19,19,0,0,1,2.2-1.8l.45-.31-.15.3c0,.06-.45,1-.46,1s-.49,1.23-.49,1.24l-.21.58s-.17.5-.18.52-.09.28-.13.42-.21.68-.21.7c-.07.25-.15.5-.22.76,0,0-.06.27-.1.39h0v0c0,.13-.07.26-.1.39h0l-.21.86v0l-.09.41v0c-.07.3-.13.61-.19.92v0l-.09.45v0l-.18,1v0c0,.16-.06.32-.08.49v.12c0,.24-.08.47-.11.71l-.12.82v.05l-.06.47v.08h0a1.37,1.37,0,0,1,0,.19v.05c0,.07,0,.14,0,.21h0a1.49,1.49,0,0,0,0,.21v0a1.64,1.64,0,0,0,0,.22h0c0,.08,0,.15,0,.23h0c0,.08,0,.16,0,.25h0l0,.5h0c.16,3.63,1.39,7.17,4.76,9.5,7.26,5.05,25.77-5.75,41.21-7.49,9.86-1.12,15.65-2.59,18.55-5.37a15,15,0,0,0,2.14-5c.12-.7.21-1.13.21-1.13h0q0,.6,0,1.32c.63,3.75,4.95,24.76,24.53,37.91,5.39,3.63,9.78,8.41,13,10.54,9.57,6.39,5.65-5.75,3.34-13.51l-.32-.72,0-.1-.3-.69-.06-.12c-.1-.23-.2-.46-.29-.69l-.05-.11c-.11-.24-.21-.47-.3-.71l0-.06c-.1-.23-.2-.47-.29-.7l0-.07c-.1-.23-.19-.47-.29-.7l-.05-.12-.27-.69-.05-.13c-.09-.23-.19-.46-.27-.7l0-.1c-.1-.24-.19-.49-.28-.73h0l-.27-.73,0-.11-.24-.7-.05-.13-.24-.7,0-.12c-.08-.25-.15-.49-.23-.73l0-.07c-.08-.24-.15-.48-.22-.72l0-.07c-.08-.24-.15-.49-.22-.73l0-.13-.2-.71,0-.14c-.07-.24-.13-.48-.19-.73l0-.1c-.06-.25-.13-.51-.18-.77a54.09,54.09,0,0,1-.83-15.19c.28-5,.68-10.13,0-15.17-.62-4.55-2-10.45-4.9-14a30.77,30.77,0,0,0-5.37-4.69c-.48-.19-.95-.37-1.43-.54a34.26,34.26,0,0,0-14.06-2c-11.58.38-22.43,3-29.79,6.36-2,.9-3.74,1.77-5.13,2.5A24.48,24.48,0,0,0,212.34,122.88ZM242,140.62Z"/><path class="cls-4" d="M127.34,103.45l.42-1,0-.08c.13-.33.27-.66.41-1,0,0,3.92-6.61,8.27-8.62A41.92,41.92,0,0,0,130.15,119h0c0-.08,0-.19,0-.31h0a.49.49,0,0,1,0-.12h0s0-.09,0-.14h0a.77.77,0,0,0,0-.15h0s0-.11,0-.16h0a1,1,0,0,0,0-.17v0a1.11,1.11,0,0,1,0-.17v0l0-.18v0l0-.19h0l0-.21h0c0-.07,0-.14,0-.21v0a1.55,1.55,0,0,0,0-.21v0a1.7,1.7,0,0,1,0-.22v0c0-.07,0-.14,0-.22v0a2,2,0,0,1,.05-.24h0c0-.08,0-.16,0-.24v0c0-.08,0-.16,0-.24v0l.06-.24v0l.06-.25v0c0-.09.05-.18.07-.27v0a2.5,2.5,0,0,0,.07-.26v0a2.68,2.68,0,0,0,.07-.27l0,0c0-.09,0-.18.07-.27l0-.06c0-.09,0-.18.08-.27v0l.09-.29v0l.09-.28v0l.09-.29,0-.06.09-.28,0-.07c0-.09.07-.19.1-.28l0-.06.11-.3v0c0-.1.08-.2.11-.3v0l.12-.31,0-.06.12-.3,0-.06.12-.3,0-.06.13-.31,0,0c.05-.1.09-.2.14-.31v0l.14-.32,0,0a2.92,2.92,0,0,0,.14-.31l0-.06.15-.3,0-.07.15-.31,0,0,.17-.32v0l.16-.31,0,0,.17-.31,0,0,.18-.31,0-.06.18-.3,0,0,.2-.32v0l.2-.31,0,0,.2-.31,0-.05c.07-.1.14-.2.2-.3l0,0,.21-.3,0,0,.22-.3,0,0,.23-.3v0l.24-.3,0,0,.24-.28,0-.06.24-.27.05,0,.25-.27,0,0,.55-.57,0,0,.65-.59.29-.25,0,0,.31-.25h0l-5.39,2.32s0,0,0-.06a6.68,6.68,0,0,1,.21-.73,41.75,41.75,0,0,1,1.82-4.19.54.54,0,0,0,.07-.13l.13-.25c.25-.47.48-.88.7-1.22a2.75,2.75,0,0,1,.19-.28l.18-.28.09-.13.37-.56,0,0,0,0,.36-.5.08-.12.2-.27.19-.27.07-.08.18-.25.18-.24.07-.09.41-.54,0,0,0-.05.41-.51,0,0,.44-.54,0,0,0,0,.46-.53,0-.05a6.31,6.31,0,0,0-3.21-2.81,4.11,4.11,0,0,1,3.12.62c-1.78-1.72-4.28-2.16-6.71-2.68a59.18,59.18,0,0,0-5.24,11.48,61.41,61.41,0,0,0-2.12,8.08c.17-.44.34-.88.52-1.32C127.2,103.8,127.27,103.62,127.34,103.45Z"/><path class="cls-10" d="M171.44,99.58a10,10,0,0,0-1.15-2.11c-.89-3.47-3.43-7.34-4.92-7.25-.55,0-26.71.53-26.71.53-.6-.16.07.54.83,1.41-.05.06-.1.13-.16.19l0,.05,0,0-.41.54-.07.09-.18.24-.18.25-.07.08-.19.27-.2.27-.08.12-.36.5,0,0,0,0-.37.56-.09.13-.18.28a2.75,2.75,0,0,0-.19.28c-.22.34-.45.75-.7,1.22l-.13.25a.54.54,0,0,1-.07.13,41.75,41.75,0,0,0-1.82,4.19,6.68,6.68,0,0,0-.21.73q0,.08,0,.06l5.39-2.32h0l-.31.25,0,0-.29.25,0,0-.28.25-.05,0-.27.25,0,0-.27.28h0l-.27.28,0,0-.25.27-.05,0-.24.27,0,.06-.24.28,0,0-.24.3v0l-.23.3,0,0-.22.3,0,0-.21.3,0,0c-.06.1-.13.2-.2.3l0,.05-.2.31,0,0-.2.31v0l-.2.32,0,0-.18.3,0,.06-.18.31,0,0-.17.31,0,0-.16.31v0l-.17.32,0,0-.15.31,0,.07-.15.3,0,.06a2.92,2.92,0,0,1-.14.31l0,0-.14.32v0c-.05.11-.09.21-.14.31l0,0-.13.31,0,.06-.12.3,0,.06-.12.3,0,.06-.12.31v0c0,.1-.07.2-.11.3v0l-.11.3,0,.06c0,.09-.06.19-.1.28l0,.07-.09.28,0,.06-.09.29v0l-.09.28v0l-.09.29v0c0,.09,0,.18-.08.27l0,.06c0,.09-.05.18-.07.27l0,0a2.68,2.68,0,0,1-.07.27v0a2.5,2.5,0,0,1-.07.26v0c0,.09,0,.18-.07.27v0l-.06.25v0l-.06.24v0c0,.08,0,.16,0,.24v0c0,.08,0,.16,0,.24h0a2,2,0,0,0-.05.24v0c0,.08,0,.15,0,.22v0a1.7,1.7,0,0,0,0,.22v0a1.55,1.55,0,0,1,0,.21v0c0,.07,0,.14,0,.21h0l0,.21h0l0,.19v0l0,.18v0a1.11,1.11,0,0,0,0,.17v0a1,1,0,0,1,0,.17h0s0,.11,0,.16h0a.77.77,0,0,1,0,.15h0s0,.09,0,.14h0a.49.49,0,0,0,0,.12h0c0,.12,0,.23,0,.31h0v.07h0v.11h0v0h0v0h0a23.75,23.75,0,0,1,4.39-3.93l0,.06-.2.37h0l-.25.48,0,0,0,0a1.63,1.63,0,0,0-.11.23l-.12.22,0,0,0,0a2.4,2.4,0,0,0-.11.23l-.12.23v0l0,0c-.39.82-.74,1.65-1.05,2.5-.09.22-.17.44-.24.67l0,.06c0,.17-.11.33-.16.5v0l0,0a2545297957899.28,2545297957899.28,0,0,1-.16.5v.05c-.14.46-.27.93-.39,1.39s-.23.94-.32,1.41h0a31.56,31.56,0,0,0-.34,11h0c0,.18.05.36.08.54.07.43,1.6-3,2.68-4.07-.83,7-.79,18.67,3.54,22.84,0,0,.35-4,.57-5,1.47,6.43,7.91,16,7.83,15.7a9.1,9.1,0,0,1,.14-4.51c.05-.16.09-.32.14-.46a29,29,0,0,0,6,7.37c2.31,2.15,6.76,2.42,8.86,4.52-.38-1.8-.77-3.71-1.14-5.7,0-.18-.68-3.8-.77-4.33-.2-1.18-.38-2.39-.56-3.62-.06-.41-.11-.82-.17-1.23h0q-.19-1.11-.36-2.22c-.1-.67-.22-1.5-.26-2-.19-2.13-.5-8.51-.5-8.53v-.09c0-.15,0-.29,0-.44v-.62c0-.09,0-.18,0-.27v-1a2.44,2.44,0,0,1,0-.27c0-.13,0-.27,0-.41a1.34,1.34,0,0,0,0-.2c0-.19,0-.66,0-.7s0-.37,0-.49.12-1.79.12-1.85.16-1.77.16-1.82.13-1.26.15-1.37.06-.53.08-.68l.09-.71s.06-.46.08-.58.1-.74.11-.83.29-1.81.3-1.88l0-.18,0-.19a1.85,1.85,0,0,0,0-.23l.06-.33h0a22.94,22.94,0,0,0,1.62,3.78s.51-10.61,3.5-16.13a29.41,29.41,0,0,0,1.18-3,16.45,16.45,0,0,0,1.87,4.74,20.36,20.36,0,0,1,.33-5.21c.15-.5.32-1,.5-1.48,1-2.61,2.24-5,1.77-7.48,1.07,1.3,3,4.66,3.13,4.36A13.4,13.4,0,0,0,171.44,99.58Z"/><path class="cls-5" d="M157.12,150.82v-.12c0-.09,0-.18,0-.28a2.45,2.45,0,0,0,0-.27v-.27l0-.54v-.24c0-.26,0-.52,0-.77h0c0-.13,0-.26,0-.39s0-.26,0-.39v-.21c0-.19,0-.38,0-.57v-.53c0-.09,0-.19,0-.28v-.6c0-.13,0-.25,0-.38-.76-1.95-1.52-3.9-2.2-5.88-2.15-6.28-3.54-13.2-1.75-19.7a25,25,0,0,0-4.22,9.09c-.1.44-.7-3.9-.63-5.79a80.67,80.67,0,0,1,.6-8.93,17,17,0,0,1,2.09-6.22,15.54,15.54,0,0,0-5.31,6.06c-.16.33-.3-3.22,0-4.71.35-1.71.37-4.85.91-6.51a9.2,9.2,0,0,0,4.45.68c6.6.67,6.72-1.34,8.19-3.27a28.34,28.34,0,0,1-7.55-.19h0s-4.54,2.31-7.75-.66a4.36,4.36,0,0,1,0-.51,6,6,0,0,1-.93-1,61.08,61.08,0,0,0-2.85,7.9l5.63-2.51.05,0c-4,4.54-5.49,10.7-6,16.6a28.88,28.88,0,0,0,.35,6.4,11.06,11.06,0,0,1,4.23-4.73c-1.92,6.15-1,12.66.56,18.8.47,1.87,2.15,5.83,2.19,5.47a20,20,0,0,1,2.63-7.88,31.91,31.91,0,0,0,3,14.48c.65,1.38,3,4.1,2.89,3.7a9,9,0,0,1,.42-6.73l1.26,2.71c0-.26,0-.52-.07-.78Z"/><path class="cls-8" d="M136.69,218.89a1.88,1.88,0,0,0-.06.31c0,.1,0,.21,0,.31a3.55,3.55,0,0,0,0,.46,4.9,4.9,0,0,0,.05.77c0,.1,0,.21,0,.31s.05.2.08.3.08.26.13.4a.3.3,0,0,1,0,.1,4.05,4.05,0,0,0,.42.76v0l0,0,.1.13h0l0,0a.54.54,0,0,1,0-.11,4,4,0,0,1-.15-.45,2.29,2.29,0,0,1-.07-.36l0-.2c0-.12,0-.24,0-.36a1.93,1.93,0,0,1,0-.24,2,2,0,0,1,0-.23,2.14,2.14,0,0,1,.06-.35l.09-.34a3.71,3.71,0,0,1,.22-.55,4.36,4.36,0,0,1,.23-.42c0-.07.09-.14.14-.21a1.78,1.78,0,0,1,.34-.38,3.6,3.6,0,0,1,1.32-.68l.1,0,.4-.13.37-.08.15,0,.23,0a2.35,2.35,0,0,1,.69.07l.21.06.1,0s-.44,0-1,.22a4.7,4.7,0,0,0-.65.24l-.19.09-.19.11-.09.05-.27.19-.12.11a1.7,1.7,0,0,0-.19.19l-.07.09a.83.83,0,0,0-.13.18,1.18,1.18,0,0,0-.11.19,1,1,0,0,0-.09.21c0,.12-.07.23-.1.36l0,.26c0,.13,0,.27,0,.42a4.6,4.6,0,0,0,.18.81,4.85,4.85,0,0,0,.22.55c.06.13.12.27.19.4l0,.07.05.07a2.55,2.55,0,0,0,.73.6l.18.11,0-.12a1.72,1.72,0,0,1-.07-.21c0-.12,0-.23-.07-.35l0-.17c0-.07,0-.15,0-.22a1.77,1.77,0,0,1,0-.23v-.48c0-.08,0-.16,0-.25s0-.09,0-.13a2.3,2.3,0,0,1,0-.26.51.51,0,0,1,0-.13l.06-.3c0-.17.1-.34.16-.5l.06-.1a.18.18,0,0,1,0-.07l.06-.07.13-.14.08-.07.06-.05.15-.11h0l.24-.15.08,0,0,0h0l.08,0,.06,0h0l-.24.5c0,.06-.05.11-.07.17l-.06.16a1.21,1.21,0,0,0-.05.18.29.29,0,0,0,0,.09l0,.18s0,.07,0,.1v.2a2.93,2.93,0,0,0,0,.41,4,4,0,0,0,.09.5c0,.17.07.34.11.5a.74.74,0,0,1,0,.14,2.52,2.52,0,0,0,.86,1.18l.12.09.18.12.29.17.39.17.29.11h0l.24.07.16,0,.19,0,.26,0h.22a1.77,1.77,0,0,0,.23,0h.18l.52,0h0c.3,0,.61-.07.91-.13a4.37,4.37,0,0,0,.62-.17l.27-.1.09,0,.25-.12.07,0h0a3.79,3.79,0,0,0,.4-.3,3.31,3.31,0,0,0,.68-.76,2.93,2.93,0,0,0,.27-.46v0a2.59,2.59,0,0,0,.14-.29l.06-.15c.11-.28.21-.56.29-.84a.56.56,0,0,0,0-.12l.08-.29,0-.11c.12-.45.23-.9.34-1.34s.26-1,.38-1.53.19-.78.27-1.17l.15-.71.18-.86c.17-.85.32-1.71.46-2.58,0-.29.09-.57.13-.86s.09-.58.13-.87c.08-.58.15-1.15.22-1.73.07-.86.12-1.72.17-2.56l0-.85c0-.32,0-.64,0-1V204a1.93,1.93,0,0,0,0-.24c0-.48,0-.95,0-1.42,0-.16,0-.32,0-.47V201c0-.62,0-1.23,0-1.84,0-.15,0-.31,0-.46l-.06-1.79v0c0-.34-.08-.67-.14-1l-.12-.73c-.14-.81-.28-1.62-.45-2.42-.06-.24-.11-.48-.17-.72-.16-.64-.33-1.28-.52-1.91s-.38-1.27-.59-1.9c-.37-1.1-.78-2.2-1.23-3.28-.12-.3-.25-.61-.39-.92q-.69-1.6-1.47-3.18c-.34-.68-.87-1.68-1.55-2.94l-1.23-2.31a183,183,0,0,1-8.9-19.19c-.09-.24-.18-.47-.26-.71-.18-.47-.36-.94-.53-1.42-1-2.62-1.85-5.33-2.61-8.08a65.85,65.85,0,0,1-1.74-11.57c0-.32,0-.63,0-.94,0-.46,0-.9,0-1.33a30.1,30.1,0,0,1,.47-5.59c.05-.23.11-.45.16-.67s.05-.18.07-.27,0-.18.07-.28c.07-.28.16-.58.26-.9h0c.09-.47.2-.94.32-1.41s.25-.93.39-1.39v-.05a2545297957899.28,2545297957899.28,0,0,0,.16-.5l0,0v0c.05-.17.11-.33.16-.5l0-.06c.07-.23.15-.45.24-.67.31-.85.66-1.68,1.05-2.5l0,0v0l.12-.23a2.4,2.4,0,0,1,.11-.23l0,0,0,0,.12-.23a2.26,2.26,0,0,1,.11-.22l0,0,0,0,.25-.48h0v0h0v0c.07-.12.14-.24.2-.36l0-.06a23.75,23.75,0,0,0-4.39,3.93h0v0h0v0h0v-.11h0V119h0a41.92,41.92,0,0,1,6.32-26.28c-4.35,2-8.24,8.57-8.27,8.62s-.28.65-.41,1l0,.08-.42,1c-.07.17-.14.35-.2.52-.18.44-.35.88-.52,1.32-2.85,14.83-1.25,34.37,10.4,59.42,1.42,4.16,2.8,7.88,3.88,10.94.79,2.25,1.47,4.46,2,6.61,5.37,20.2,1.89,36,1.89,36a8,8,0,0,0-2.71-1.32,6.08,6.08,0,0,0-1.22-.18,6.41,6.41,0,0,0-3.88,1.07h0a6.51,6.51,0,0,0-.3.88Z"/><path class="cls-11" d="M151.47,99.6h0a7.35,7.35,0,0,0,7,.81,4,4,0,0,0,.15-.49,8.84,8.84,0,0,1-.88.25A6,6,0,0,1,152.27,99a4,4,0,0,1-.72-.89,3.88,3.88,0,0,1-.8.82,6,6,0,0,1-5.61.64c-.29-.1-.57-.21-.85-.33a4.26,4.26,0,0,0,.1.49A7.31,7.31,0,0,0,151.47,99.6Z"/><path class="cls-12" d="M175.42,49.36A19.73,19.73,0,0,1,180.05,52a36.28,36.28,0,0,0-4.93-16.41.52.52,0,0,0-.94.12C172.76,40.55,168,47.11,168,47.11l.17.33A36,36,0,0,1,175.42,49.36Z"/><path class="cls-13" d="M174.18,35.72a.52.52,0,0,1,.94-.12A36.28,36.28,0,0,1,180.05,52q.45.35.87.72a56.05,56.05,0,0,0-.75-8.41,43.68,43.68,0,0,0-2.56-9.09A34.35,34.35,0,0,0,175.54,31c-.2-.33-.4-.67-.61-1s-.42-.66-.65-1l-.33-.46c-.07.28-.15.55-.22.83s-.23.86-.35,1.29-.24.85-.37,1.28l-.37,1.27-.39,1.28-.4,1.27-.41,1.26q-.81,2.53-1.67,5c-.29.83-.58,1.67-.88,2.51s-.6,1.66-.93,2.49C168,47.11,172.76,40.55,174.18,35.72Z"/><path class="cls-14" d="M169.77,42.11q.85-2.52,1.67-5l.41-1.26.4-1.27.39-1.28L173,32c.13-.43.25-.86.37-1.28s.24-.86.35-1.29.15-.55.22-.83l.33.46c.23.32.44.65.65,1s.41.66.61,1a34.35,34.35,0,0,1,2.07,4.22,43.68,43.68,0,0,1,2.56,9.09,56.05,56.05,0,0,1,.75,8.41,14.71,14.71,0,0,1,1.13,1.1,45.63,45.63,0,0,0-.21-9.77,39.74,39.74,0,0,0-.93-4.84c-.2-.8-.44-1.59-.69-2.38s-.54-1.56-.86-2.33a32.84,32.84,0,0,0-2.2-4.45c-.43-.71-.89-1.41-1.39-2.08-.24-.34-.5-.67-.77-1l-.2-.24-.2-.24-.21-.24-.22-.23L173,24.73l-.34,1.71c-.08.43-.17.86-.26,1.28s-.19.86-.28,1.29l-.3,1.29-.29,1.28-.61,2.58-.62,2.58q-.63,2.58-1.21,5.17c-.38,1.73-.76,3.46-1.12,5.2.33-.83.63-1.66.93-2.49S169.48,42.94,169.77,42.11Z"/><ellipse class="cls-15" cx="167.6" cy="74.06" rx="6.16" ry="7.73"/><path class="cls-16" d="M168.81,70.79a2.33,2.33,0,0,0-3.87.59,4.46,4.46,0,0,0,.44,5.11,2.34,2.34,0,0,0,3.87-.59A4.46,4.46,0,0,0,168.81,70.79Zm.35,4.45a1.67,1.67,0,0,1-2.78.43,3.2,3.2,0,0,1-.32-3.67,1.68,1.68,0,0,1,2.78-.43A3.2,3.2,0,0,1,169.16,75.24Z"/><path class="cls-17" d="M168.84,71.57a1.68,1.68,0,0,0-2.78.43,3.2,3.2,0,0,0,.32,3.67,1.67,1.67,0,0,0,2.78-.43A3.2,3.2,0,0,0,168.84,71.57Zm.07,3a.77.77,0,0,1-1.27.2,1.48,1.48,0,0,1-.15-1.68.77.77,0,0,1,1.28-.2A1.47,1.47,0,0,1,168.91,74.58Z"/><path class="cls-6" d="M167.49,73.1a1.48,1.48,0,0,0,.15,1.68.77.77,0,0,0,1.27-.2,1.47,1.47,0,0,0-.14-1.68A.77.77,0,0,0,167.49,73.1Z"/><circle class="cls-18" cx="166.13" cy="71.68" r="0.81"/><path class="cls-12" d="M135.33,33.75a.52.52,0,0,0-.92-.21,36.27,36.27,0,0,0-6.56,15.83,19.71,19.71,0,0,1,4.87-2.17A35,35,0,0,1,140.17,46l.2-.32S136.25,38.7,135.33,33.75Z"/><path class="cls-13" d="M139.08,40.55q-.6-2.58-1.16-5.18l-.28-1.3-.26-1.31c-.09-.43-.18-.87-.26-1.3l-.25-1.31-.24-1.31-.21-1.32c0-.28-.09-.56-.14-.85l-.38.43-.74.9c-.24.31-.48.62-.71.94a33.94,33.94,0,0,0-2.48,4,43.23,43.23,0,0,0-3.46,8.78,55.3,55.3,0,0,0-1.6,8.3c.3-.22.62-.43.94-.63a36.27,36.27,0,0,1,6.56-15.83.52.52,0,0,1,.92.21c.92,5,5,12,5,12-.24-.85-.46-1.71-.67-2.57S139.28,41.42,139.08,40.55Z"/><path class="cls-14" d="M128.51,41.7A43.23,43.23,0,0,1,132,32.92a33.94,33.94,0,0,1,2.48-4c.23-.32.47-.63.71-.94l.74-.9.38-.43c.05.29.09.57.14.85l.21,1.32.24,1.31.25,1.31c.08.43.17.87.26,1.3l.26,1.31.28,1.3q.56,2.6,1.16,5.18c.2.87.4,1.73.62,2.59s.43,1.72.67,2.57c-.19-1.76-.38-3.52-.59-5.28s-.44-3.52-.68-5.27l-.35-2.63-.35-2.62-.17-1.31c0-.44-.11-.87-.16-1.31L137.92,26c0-.43-.09-.87-.13-1.3l-.16-1.74-1.31,1.17-.24.22-.23.21-.23.22-.23.22c-.3.3-.58.6-.86.91-.56.62-1.09,1.27-1.59,1.93A33,33,0,0,0,130.3,32c-.39.73-.75,1.48-1.09,2.23s-.64,1.52-.93,2.29a39.47,39.47,0,0,0-1.41,4.73,45.49,45.49,0,0,0-1.2,9.7c.39-.34.81-.67,1.24-1A55.3,55.3,0,0,1,128.51,41.7Z"/><path class="cls-8" d="M127.05,75.86c-.42-.75-.88-1.48-1.37-2.19-.15-.21,3.4.62,5,1.34l.14.06h0c-4.43-6.81-3.49-13.75,4.15-15.39,12.92-2.78,13.13,16.58,13.13,18a88.67,88.67,0,0,1-1.21,10.12l-.13.19,0,.07.43-.1a18.45,18.45,0,0,1,2.49,0,6.77,6.77,0,0,1,0-1.35c.07-1.08.13-2.16.19-3.25.12-2.17.2-4.35.17-6.53A37.05,37.05,0,0,0,148,64c-.19-.48-.39-1-.62-1.44a9.24,9.24,0,0,1,2.24,1.82,28.46,28.46,0,0,0-.15-9.39A14,14,0,0,1,152,57.38a57.2,57.2,0,0,1,1.91-6.13v.14a56.26,56.26,0,0,1,1.24,6.15A14.14,14.14,0,0,1,158,55.46a28.74,28.74,0,0,0-1.09,9.32,9.22,9.22,0,0,1,2.41-1.58c-.27.45-.52.91-.76,1.38A36.9,36.9,0,0,0,155.12,77c-.26,2.17-.39,4.34-.5,6.52-.05,1.08-.09,2.17-.13,3.25a7.62,7.62,0,0,1-.14,1.34,16.47,16.47,0,0,1,2.47.28l.42.15a.43.43,0,0,1,0-.07l-.1-.2A88.26,88.26,0,0,1,157,78.11c.14-1.39,2.31-20.63,14.88-16.57,7.44,2.41,7.68,9.4,2.58,15.74h0l.15,0a19.32,19.32,0,0,1,5.15-.83c-.56.66-1.09,1.34-1.59,2,1.05-.31,2.11-.58,3.14-.94l.28-.1c2.14-3.47,4.38-8.08,4.6-12.5A14.84,14.84,0,0,0,184,56.39c1.89-22.61-9.73-34.14-12.06-34.1-.28,0-.36.18-.4.52-.87,7.41-5.51,21.9-6.26,24.21A197,197,0,0,0,143,45.9c-.51-2.38-3.66-17.27-3.78-24.73,0-.33-.07-.51-.35-.55-2.31-.28-15,10-15.43,32.71a14.9,14.9,0,0,0-3,8.25c-.22,4.42,1.54,9.24,3.33,12.9l.26.13C125,75.07,126,75.45,127.05,75.86Zm42-33.95q.58-2.59,1.21-5.17l.62-2.58.61-2.58.29-1.28.3-1.29c.09-.43.19-.86.28-1.29s.18-.85.26-1.28l.34-1.71,1.18,1.3.22.23.21.24.2.24.2.24c.27.33.53.66.77,1,.5.67,1,1.37,1.39,2.08a32.84,32.84,0,0,1,2.2,4.45c.32.77.6,1.55.86,2.33s.49,1.58.69,2.38a39.74,39.74,0,0,1,.93,4.84,45.63,45.63,0,0,1,.21,9.77,14.71,14.71,0,0,0-1.13-1.1q-.42-.37-.87-.72a19.73,19.73,0,0,0-4.63-2.65,36,36,0,0,0-7.29-1.92l-.17-.33C168.32,45.37,168.7,43.64,169.08,41.91Zm-42.21-.63a39.47,39.47,0,0,1,1.41-4.73c.29-.77.6-1.53.93-2.29s.7-1.5,1.09-2.23a33,33,0,0,1,2.64-4.21c.5-.66,1-1.31,1.59-1.93.28-.31.56-.61.86-.91l.23-.22.23-.22.23-.21.24-.22,1.31-1.17.16,1.74c0,.43.08.87.13,1.3l.15,1.31c.05.44.11.87.16,1.31l.17,1.31.35,2.62.35,2.63c.24,1.75.47,3.51.68,5.27s.4,3.52.59,5.28l-.2.32a35,35,0,0,0-7.45,1.17,19.71,19.71,0,0,0-4.87,2.17c-.32.2-.64.41-.94.63s-.85.64-1.24,1A45.49,45.49,0,0,1,126.87,41.28Z"/><path class="cls-14" d="M154.49,86.8c0-1.08.08-2.17.13-3.25.11-2.18.24-4.35.5-6.52a36.9,36.9,0,0,1,3.4-12.45c.24-.47.49-.93.76-1.38a9.22,9.22,0,0,0-2.41,1.58A28.74,28.74,0,0,1,158,55.46a14.14,14.14,0,0,0-2.78,2.08,56.26,56.26,0,0,0-1.24-6.15v-.14A57.2,57.2,0,0,0,152,57.38,14,14,0,0,0,149.47,55a28.46,28.46,0,0,1,.15,9.39,9.24,9.24,0,0,0-2.24-1.82c.23.47.43,1,.62,1.44a37.05,37.05,0,0,1,2.13,12.74c0,2.18,0,4.36-.17,6.53-.06,1.09-.12,2.17-.19,3.25a6.77,6.77,0,0,0,0,1.35c1.42,0,3.17.13,4.58.23A7.62,7.62,0,0,0,154.49,86.8Z"/><ellipse class="cls-15" cx="138.43" cy="72.59" rx="6.16" ry="7.73"/><path class="cls-16" d="M139.63,69.32a2.33,2.33,0,0,0-3.87.59,4.45,4.45,0,0,0,.45,5.11,2.34,2.34,0,0,0,3.87-.59A4.48,4.48,0,0,0,139.63,69.32Zm.35,4.45a1.68,1.68,0,0,1-2.78.43,3.22,3.22,0,0,1-.32-3.67,1.68,1.68,0,0,1,2.78-.43A3.2,3.2,0,0,1,140,73.77Z"/><path class="cls-17" d="M139.66,70.1a1.68,1.68,0,0,0-2.78.43,3.22,3.22,0,0,0,.32,3.67,1.68,1.68,0,0,0,2.78-.43A3.2,3.2,0,0,0,139.66,70.1Zm.08,3a.77.77,0,0,1-1.28.2,1.46,1.46,0,0,1-.14-1.68.77.77,0,0,1,1.27-.2A1.47,1.47,0,0,1,139.74,73.11Z"/><path class="cls-6" d="M138.32,71.63a1.46,1.46,0,0,0,.14,1.68.77.77,0,0,0,1.28-.2,1.47,1.47,0,0,0-.15-1.68A.77.77,0,0,0,138.32,71.63Z"/><circle class="cls-18" cx="136.95" cy="70.2" r="0.81"/><path class="cls-14" d="M142.23,57.23a7.22,7.22,0,0,0-3.64-4C128,48.8,123.06,59,124.73,64.31,125.48,56.6,133.29,51.94,142.23,57.23Z"/><path class="cls-16" d="M139,63.79a9.3,9.3,0,0,1,1.18,0,11.55,11.55,0,0,1,1.31.22.66.66,0,0,0,.27-1.3,7.09,7.09,0,0,0-2.9-.22,7.51,7.51,0,0,0-2.78.82,7.83,7.83,0,0,0-3.41,3.9.2.2,0,0,0,.35.18,7.73,7.73,0,0,1,3.6-3A8.44,8.44,0,0,1,139,63.79Z"/><path class="cls-16" d="M173.47,69.25a7.25,7.25,0,0,0-5.68-5.32,7.13,7.13,0,0,0-2.91-.07.68.68,0,0,0-.59.73.69.69,0,0,0,.73.59,11.69,11.69,0,0,1,1.32-.08,6.67,6.67,0,0,1,1.18.14,7.87,7.87,0,0,1,2.3.85,7.68,7.68,0,0,1,3.29,3.31A.2.2,0,0,0,173.47,69.25Z"/><path class="cls-19" d="M173.28,69.55a.22.22,0,0,1-.2-.14,7.68,7.68,0,0,0-3.27-3.29,8,8,0,0,0-2.29-.85,6.18,6.18,0,0,0-2.11-.09l-.39,0H165a.69.69,0,0,1-.09-1.38,7.17,7.17,0,0,1,2.91.07,7.33,7.33,0,0,1,5.71,5.35.23.23,0,0,1-.13.28Zm-7.08-4.48h.14a7.26,7.26,0,0,1,1.19.14,7.92,7.92,0,0,1,2.31.86,7.61,7.61,0,0,1,3.29,3.31.17.17,0,0,0,.22.09.16.16,0,0,0,.09-.21h0a7.72,7.72,0,0,0-3-4.2,7.47,7.47,0,0,0-2.68-1.1,7.08,7.08,0,0,0-2.89-.07.65.65,0,0,0-.57.69.66.66,0,0,0,.65.57H165l.38,0C165.66,65.09,165.93,65.07,166.2,65.07Z"/><path class="cls-10" d="M187.56,77.07a11.6,11.6,0,0,1-2.92,1.47,5.16,5.16,0,0,0,.3-.83c.19-.65-.16-2.41-.3-2.25a7.51,7.51,0,0,1-3,2l-.28.1c-1,.36-2.09.63-3.14.94.5-.71,1-1.39,1.59-2a19.32,19.32,0,0,0-5.15.83l-.15,0h0a12.44,12.44,0,0,0-3.65,1.85,1.45,1.45,0,0,1,1.24-1.24,23.37,23.37,0,0,0-8.43,2.24,11.37,11.37,0,0,0-3.18,3A19.28,19.28,0,0,0,158.11,87a10,10,0,0,1-.83,1.46l0,.07c.52.18-10.93-.4-10.39-.53l0-.07a11.75,11.75,0,0,1-.67-1.54,19.3,19.3,0,0,0-1.92-4.15A10.79,10.79,0,0,0,141.35,79a23.42,23.42,0,0,0-7.92-3.34c-.27,0,.89.39.88,1.62a12.77,12.77,0,0,0-3.45-2.21h0l-.14-.06c-1.64-.72-5.19-1.55-5-1.34.49.71.95,1.44,1.37,2.19-1-.41-2-.79-3-1.25l-.26-.13a7.48,7.48,0,0,1-2.85-2.25c-.12-.16-.64,1.55-.53,2.22a5.36,5.36,0,0,0,.23.85,11.25,11.25,0,0,1-2.76-1.76,8.58,8.58,0,0,0-.07,2.59c.37,2.8.88,6.62,4.15,6.41a9.64,9.64,0,0,1-2.23-.87c-.15-.08.87,4.46,6.56,5.9a12.11,12.11,0,0,1-2.62.35,8.27,8.27,0,0,0,4.52,1.68,20.22,20.22,0,0,0,3.3,0c2.48-.15,5-.4,7.18.78a4.1,4.1,0,0,0-3.17.24,6.37,6.37,0,0,1,3.85,1.84l0,.06v0l1.17,1.8,0-.2c.11.17.21.35.31.53l-.08.07,2.52,3.85a5.84,5.84,0,0,0,1.06.61c.28.12.56.23.85.33a6,6,0,0,0,5.61-.64,3.88,3.88,0,0,0,.8-.82,4,4,0,0,0,.72.89,6,6,0,0,0,5.51,1.21,8.84,8.84,0,0,0,.88-.25,5,5,0,0,0,1.78-1,6.64,6.64,0,0,0,1.5-2.12,15.37,15.37,0,0,1,2.25-3,6.25,6.25,0,0,1,4.11-1.54,4.11,4.11,0,0,0-3.12-.56,8.77,8.77,0,0,1,4.31-.47c2.07.2,4.18.77,6.19.76a10.45,10.45,0,0,0,1.66-.13,7.31,7.31,0,0,0,3-1.08,12.29,12.29,0,0,1-2.58-.61c5.81-.86,7.28-5.27,7.12-5.22a9.4,9.4,0,0,1-2.3.65,9.39,9.39,0,0,0,4.78-6A8.63,8.63,0,0,0,187.56,77.07Z"/><path class="cls-5" d="M158,90.74a19.31,19.31,0,0,1-3.57,3c-.44.24-.88.45-1.33.66l-.69.29a1.69,1.69,0,0,1-.71.22,1.63,1.63,0,0,1-.67-.29q-.33-.16-.66-.36c-.43-.25-.84-.51-1.26-.79a19.73,19.73,0,0,1-3.26-3.29,1.9,1.9,0,0,1-.2-.42,1.77,1.77,0,0,1,0-.59c-.4-.61-.77-1.24-1.11-1.86a18.63,18.63,0,0,0-3.11-4,11.68,11.68,0,0,0-2-1.55,3.23,3.23,0,0,1,.5,2c-1-1.56-4.65-3.34-4.53-3.14a4.49,4.49,0,0,1,.6,1.94,12.4,12.4,0,0,0-2.71-2.07,14.74,14.74,0,0,0-1.85-.86,20.44,20.44,0,0,0-3-.88c.88.58.9,1.44,1.23,2a25.4,25.4,0,0,1-3.1-.86c-.65-.23-1.29-.48-1.92-.76a19.51,19.51,0,0,1-2-1c-.24-.14,2.14,4.2,4.25,5a15.31,15.31,0,0,1-3.15.32,11.93,11.93,0,0,0,5.32,2.25,19.92,19.92,0,0,0,2.56.2c.36,0,.73,0,1.09,0-.8.22-2.31,1.61-2.07,1.59,3.8-.28,8.18-.43,11.16,2.37a7,7,0,0,1,1.22,1.54,6.24,6.24,0,0,0-3.36-.41c-.26,0,1.08,1.17,3.57,6,.67,1.29,3.19,1.8,4.63,1.65a4.42,4.42,0,0,0,3.43-2.19,5.55,5.55,0,0,0,.32-.7l0,0,0,0A4.3,4.3,0,0,0,155.13,99c1.42.29,4,0,4.78-1.18,3-4.54,4.41-5.53,4.16-5.6a6.29,6.29,0,0,0-3.39.07,6.73,6.73,0,0,1,1.37-1.4c3.24-2.49,7.59-1.9,11.34-1.24.24,0-1.12-1.49-1.9-1.79.36,0,.73,0,1.09.08a20,20,0,0,0,2.57.06,11.86,11.86,0,0,0,5.52-1.7,15.35,15.35,0,0,1-3.11-.64c2.18-.61,5-4.69,4.74-4.57a20.48,20.48,0,0,1-2,.74c-.66.22-1.33.41-2,.57a27.8,27.8,0,0,1-3.16.54c.38-.5.49-1.35,1.42-1.84a20.92,20.92,0,0,0-3.06.58,14.68,14.68,0,0,0-1.93.67,12.33,12.33,0,0,0-2.91,1.79,4.4,4.4,0,0,1,.8-1.87c.13-.19-3.66,1.21-4.83,2.66a3.23,3.23,0,0,1,.71-2,11.48,11.48,0,0,0-2.16,1.34,18.29,18.29,0,0,0-3.5,3.71c-.4.57-.83,1.17-1.29,1.73a1.68,1.68,0,0,1-.11.58A1.27,1.27,0,0,1,158,90.74Z"/><path class="cls-16" d="M150.38,94.21q.33.2.66.36a1.63,1.63,0,0,0,.67.29,1.69,1.69,0,0,0,.71-.22l.69-.29c.45-.21.89-.42,1.33-.66a19.31,19.31,0,0,0,3.57-3v0c.52-.56.07-1.48-1.53-1a5,5,0,0,0-2.44,1.61,8.73,8.73,0,0,0-.8,1.21,1.89,1.89,0,0,1-1,.93,1.1,1.1,0,0,1-.51.08,1.15,1.15,0,0,1-.49-.13,1.87,1.87,0,0,1-.87-1,9.18,9.18,0,0,0-.67-1.28,5.13,5.13,0,0,0-2.27-1.85c-1.54-.65-2.08.23-1.62.83v0a19.73,19.73,0,0,0,3.26,3.29C149.54,93.7,150,94,150.38,94.21Z"/><path class="cls-17" d="M154.35,88.14c-1.41-.1-3.16-.19-4.58-.23a18.45,18.45,0,0,0-2.49,0l-.43.1c-.54.13-1.15.36-1.23,1.08a1.77,1.77,0,0,0,0,.59,1.9,1.9,0,0,0,.2.42v0c-.46-.6.08-1.48,1.62-.83a5.13,5.13,0,0,1,2.27,1.85,9.18,9.18,0,0,1,.67,1.28,1.87,1.87,0,0,0,.87,1,1.15,1.15,0,0,0,.49.13,1.1,1.1,0,0,0,.51-.08,1.89,1.89,0,0,0,1-.93,8.73,8.73,0,0,1,.8-1.21,5,5,0,0,1,2.44-1.61c1.6-.49,2,.43,1.53,1v0a1.27,1.27,0,0,0,.24-.4,1.68,1.68,0,0,0,.11-.58c0-.72-.6-1-1.12-1.19l-.42-.15A16.47,16.47,0,0,0,154.35,88.14ZM152,89.53c-1.83-.09-3.31-.42-3.29-.72s1.51-.49,3.35-.39,3.31.42,3.3.72S153.82,89.63,152,89.53Z"/><path class="cls-20" d="M152,88.42c-1.84-.1-3.34.08-3.35.39s1.46.63,3.29.72,3.34-.08,3.36-.39S153.88,88.51,152,88.42Z"/><path class="cls-8" d="M279.88,221.81a.41.41,0,0,0-.05.09,6.33,6.33,0,0,0-1.08,2.91,4.18,4.18,0,0,0,.88,2.81,2.47,2.47,0,0,0,.28.28,3.93,3.93,0,0,1-.32-1.34,5.49,5.49,0,0,1,.75-3.3,4.84,4.84,0,0,1,4.05-2.06,3.31,3.31,0,0,0-2.68,2.3,3.55,3.55,0,0,0,2.52,4c2,.56,4-.64,5.17-2.21,1.41-1.93,1.66-4.49,2-6.79,0-.31.07-.61.11-.92v0c0-.31.07-.62.1-.93h0c.06-.63.12-1.26.16-1.89h0a4.87,4.87,0,0,0-5.57,1.79,10.07,10.07,0,0,1-1.32,2.63l-1.12.32a9.35,9.35,0,0,0-1.12.4h0l-.13.06a9.45,9.45,0,0,0-1.55.87A4,4,0,0,0,279.88,221.81Z"/><path class="cls-14" d="M181.64,67.19C183.84,62,180,51.44,169,54.78a7.24,7.24,0,0,0-4,3.6C174.37,54,181.67,59.44,181.64,67.19Z"/></svg>