<svg xmlns="http://www.w3.org/2000/svg" xmlns:xlink="http://www.w3.org/1999/xlink" viewBox="0 0 256 256"><defs><style>.cls-1{fill:none;}.cls-2{isolation:isolate;}.cls-3{fill:#1d1d1b;opacity:0.5;}.cls-4{fill:#fff;}.cls-5{fill:#e57f01;}.cls-5,.cls-6{stroke:#c67b0c;}.cls-10,.cls-5,.cls-6,.cls-7{stroke-miterlimit:10;stroke-width:2px;}.cls-6{fill:#faa800;}.cls-7{fill:#a53c0d;stroke:#a04100;}.cls-8{fill:#fcd057;}.cls-9{clip-path:url(#clip-path);}.cls-10{fill:#ffcc9a;stroke:#eda35f;}.cls-11{fill:#f7d8cd;mix-blend-mode:multiply;}.cls-12{fill:#666;mix-blend-mode:screen;}</style><clipPath id="clip-path"><path class="cls-1" d="M205.19,101.86a3.5,3.5,0,0,0,1.61,4.53,10.68,10.68,0,0,1-2.27,2.37c-1.23.85-4.07,2.08-5.3,3.12s-6.72,3.59-7,3.88-3.12-1.42-3.5-2.75-.09,2.65-.38,3.6-1.51-.19-2.65-1-.66-.75-.85-.38-.94,4.17-3.12,5.11-5-1.23-5-1.23-4.64,3.88-7.66,4.07-2.18-1.8-2.18-1.8a11.27,11.27,0,0,1-6.53,3.88c-4.06.66-5.2-4-5.1-3.69s-3.22,5.58-6.72,4.83-.47-2-.47-2-3.69,2.46-4.83,2.08,1-3.4,1-3.4c-3.5,1.41-5.2,4-10.59,4s-5.39-1.33-6.62-3.12.28.66-.48,2.83-7.85-.56-10.21-1.89,3-1.61,3-1.61-6.06-.56-7.19,2.75-1.89-.19-5.3-2-3.22-4.07-3-2.46-6,1.52-7.66,0,0-2.17,0-2.17-7.76.47-8.89-.76-2.55-3.22-2.84-3.22a5.44,5.44,0,0,0-3,1.23c-1.52,1.14-3.79-5.29-3.79-7.37s-.47.37-2.36,2.36-6.44-1.89-6.44-1.89l2-3.79c-3,.1-6.43-4.25-6.43-4.25-.95-4.54,2.36-4.64,3-9s1.7,4,1.7,4,8-18,13.07-19.76,38.1-10.58,75-6.64S213.41,82.23,205.19,101.86Z"/></clipPath></defs><g class="cls-2"><g id="Layer_54" data-name="Layer 54"><path class="cls-3" d="M131,201.48a6,6,0,0,1-5.1-2.83c-.16-.27-.69-1.15-1.32-2.46l-.65.8a6,6,0,0,1-4.66,2.22,6.1,6.1,0,0,1-2.13-.38,6,6,0,0,1-3.78-4.56,7.59,7.59,0,0,0-.74.78,6,6,0,0,1-9.54-.18l-1.55,1.83A6,6,0,0,1,97,198.84a5.36,5.36,0,0,1-1.06-.1l-5.3-.94a6,6,0,0,1-3.72-2.29l-2.41,1a6,6,0,0,1-8.25-6.09,37.68,37.68,0,0,1-6,1.37,5.93,5.93,0,0,1-.84.06,6,6,0,0,1-5.57-3.79,5.94,5.94,0,0,1-.35-1.23,5.46,5.46,0,0,1-.88-.17l-6.66-1.82a6,6,0,0,1-3.81-3.15,4,4,0,0,1-.6,0,6,6,0,0,1-3.07-.84,5.87,5.87,0,0,1-.86-.62L44,181.42a6,6,0,0,1-6-1.32l-.12-.12a6,6,0,0,1-5.35-5.48,42.21,42.21,0,0,1,.64-9.76,6,6,0,0,1-3.78-5.86,6,6,0,0,1-4.24-8.24l1.94-4.52a6,6,0,0,1-2.7-8.64c.33-.54.74-1.17,1.2-1.86a5.84,5.84,0,0,1-1.43-1.82A6,6,0,0,1,26.25,126a29.79,29.79,0,0,0,6.08-6,6,6,0,0,1-4.24-9.58L36.71,99a6,6,0,0,1,0-3.74C38.2,90.53,43.52,86.72,48.77,84a6,6,0,0,1,3.93-4.6A67.46,67.46,0,0,1,71,76l.12-.18a6,6,0,0,1,4.69-2.63l2-.08C79.88,73,82,73,84.08,73a6,6,0,0,1,9.2-5.59l7.16,4.56,6.09-4.37a6,6,0,0,1,8.8,2.05c4.85-2.32,11.32-4.7,17.94-5.09h.35a6,6,0,0,1,5.52,3.64l.09.22c1.25,0,2.49,0,3.73,0,1.54,0,3.09,0,4.63,0l5.61-1.31a5.74,5.74,0,0,1,1.36-.16A6,6,0,0,1,159.11,69c1.28.11,2.53.23,3.76.36,2.74.29,5.38.61,7.88.94a6,6,0,0,1,2.53-.56l.62,0,5.23.54a6,6,0,0,1,3.85,2l.41.08,7.78-1.9a5.76,5.76,0,0,1,1.42-.18,6,6,0,0,1,5.15,2.92,5.75,5.75,0,0,1,.38.74c1.29.1,2.54.23,3.74.4,1.4.2,2.73.45,4,.75l1,.26c.69.18,1.37.39,2,.62a23.9,23.9,0,0,1,4,1.76,6,6,0,0,1,3,6.12l.24.1a6,6,0,0,1,3.38,3.84c5.33,2.43,11,6.09,14.18,11.4a6,6,0,0,1,.32,5.57c.14.16.27.33.4.49s.15.19.22.28l4.53,6.3a6,6,0,0,1,0,7A5.61,5.61,0,0,1,238,120l4.24,13.51a6,6,0,0,1-5.73,7.79,5.82,5.82,0,0,1-1.9-.31l-.23.23c-.13.13-.27.25-.41.37l2.07,9a6,6,0,0,1-3.17,6.72l.07,1.59a6,6,0,0,1-9.31,5.26l0,8.21a6,6,0,0,1-8.93,5.27l-1.49,3.9a6,6,0,0,1-5.6,3.86l-.58,0a6,6,0,0,1-3.92-2,6,6,0,0,1-1.94.32,6.12,6.12,0,0,1-1.79-.27l-2.75-.87c-1,3.69-3,7.58-7.13,9.48a6,6,0,0,1-6.77-1.22,6,6,0,0,1-4.26,1.77h-3a6.23,6.23,0,0,1-1.67-.23,6,6,0,0,1-5.14,3.63h-.38a6,6,0,0,1-5.42-3.45,2.25,2.25,0,0,0-.3.87,6,6,0,0,1-4.71,5.85,6.36,6.36,0,0,1-1.29.14,6,6,0,0,1-5.12-2.87,15.38,15.38,0,0,1-9.06,3.81h-.22a6.44,6.44,0,0,1-1.81-.26,6,6,0,0,1-3.85,1.39Z"/><path class="cls-4" d="M126,196.48a6,6,0,0,1-5.1-2.83c-.16-.27-.69-1.15-1.32-2.46l-.65.8a6,6,0,0,1-4.66,2.22,6.1,6.1,0,0,1-2.13-.38,6,6,0,0,1-3.78-4.56,7.59,7.59,0,0,0-.74.78,6,6,0,0,1-9.54-.18l-1.55,1.83A6,6,0,0,1,92,193.84a5.36,5.36,0,0,1-1.06-.1l-5.3-.94a6,6,0,0,1-3.72-2.29l-2.41,1a6,6,0,0,1-8.25-6.09,37.68,37.68,0,0,1-6,1.37,5.93,5.93,0,0,1-.84.06,6,6,0,0,1-5.57-3.79,5.94,5.94,0,0,1-.35-1.23,5.46,5.46,0,0,1-.88-.17l-6.66-1.82a6,6,0,0,1-3.81-3.15,4,4,0,0,1-.6,0,6,6,0,0,1-3.07-.84,5.87,5.87,0,0,1-.86-.62L39,176.42a6,6,0,0,1-6-1.32l-.12-.12a6,6,0,0,1-5.35-5.48,42.21,42.21,0,0,1,.64-9.76,6,6,0,0,1-3.78-5.86,6,6,0,0,1-4.24-8.24l1.94-4.52a6,6,0,0,1-2.7-8.64c.33-.54.74-1.17,1.2-1.86a5.84,5.84,0,0,1-1.43-1.82A6,6,0,0,1,21.25,121a29.79,29.79,0,0,0,6.08-6,6,6,0,0,1-4.24-9.58L31.71,94a6,6,0,0,1,0-3.74C33.2,85.53,38.52,81.72,43.77,79a6,6,0,0,1,3.93-4.6A67.46,67.46,0,0,1,66,71l.12-.18a6,6,0,0,1,4.69-2.63l2-.08C74.88,68,77,68,79.08,68a6,6,0,0,1,9.2-5.59l7.16,4.56,6.09-4.37a6,6,0,0,1,8.8,2.05c4.85-2.32,11.32-4.7,17.94-5.09h.35a6,6,0,0,1,5.52,3.64l.09.22c1.25,0,2.49,0,3.73,0,1.54,0,3.09,0,4.63,0l5.61-1.31a5.74,5.74,0,0,1,1.36-.16A6,6,0,0,1,154.11,64c1.28.11,2.53.23,3.76.36,2.74.29,5.38.61,7.88.94a6,6,0,0,1,2.53-.56l.62,0,5.23.54a6,6,0,0,1,3.85,2l.41.08,7.78-1.9a5.76,5.76,0,0,1,1.42-.18,6,6,0,0,1,5.15,2.92,5.75,5.75,0,0,1,.38.74c1.29.1,2.54.23,3.74.4,1.4.2,2.73.45,4,.75l1,.26c.69.18,1.37.39,2,.62a23.9,23.9,0,0,1,4,1.76,6,6,0,0,1,3,6.12l.24.1a6,6,0,0,1,3.38,3.84c5.33,2.43,11,6.09,14.18,11.4a6,6,0,0,1,.32,5.57c.14.16.27.33.4.49s.15.19.22.28l4.53,6.3a6,6,0,0,1,0,7A5.61,5.61,0,0,1,233,115l4.24,13.51a6,6,0,0,1-5.73,7.79,5.82,5.82,0,0,1-1.9-.31l-.23.23c-.13.13-.27.25-.41.37l2.07,9a6,6,0,0,1-3.17,6.72l.07,1.59a6,6,0,0,1-9.31,5.26l0,8.21a6,6,0,0,1-8.93,5.27l-1.49,3.9a6,6,0,0,1-5.6,3.86l-.58,0a6,6,0,0,1-3.92-2,6,6,0,0,1-1.94.32,6.12,6.12,0,0,1-1.79-.27l-2.75-.87c-1,3.69-3,7.58-7.13,9.48a6,6,0,0,1-6.77-1.22,6,6,0,0,1-4.26,1.77h-3a6.23,6.23,0,0,1-1.67-.23,6,6,0,0,1-5.14,3.63h-.38a6,6,0,0,1-5.42-3.45,2.25,2.25,0,0,0-.3.87,6,6,0,0,1-4.71,5.85,6.36,6.36,0,0,1-1.29.14,6,6,0,0,1-5.12-2.87,15.38,15.38,0,0,1-9.06,3.81h-.22a6.44,6.44,0,0,1-1.81-.26,6,6,0,0,1-3.85,1.39Z"/><path class="cls-5" d="M46.47,170.71l14.28-6.14c-4.35.75-8.29,9.47-8.29,9.47l6.66,1.82,11.09-3.73c0,4.54-5.87,8.71-5.87,8.71,10.79-1.52,16.46-8,16.46-8l-3.59,13.05,13.43-5.48-4,6.43,5.29,1,9.09-10.79,1.89,9.27c3.59-4.54,11.73-7,11.73-7l-.38,8.89,8.89-11c-1.51,6.24,2.84,13.24,2.84,13.24h5.48l4.92-10.59c4.54,4.16.76,9.46.76,9.46,5.67-.19,10.78-8.7,10.78-8.7l3.6,7.75c0-5.67,8.51-11.54,8.51-11.54l3.22,8.14,3.4-13.24,3.78,9.83h3l5.3-9.46c3.78.76,3.21,9.46,3.21,9.46,4.92-2.27,4.55-11.92,4.55-11.92l9.64,3c-2.27-2.65.76-9.27.76-9.27,4,1.14,5.68,11,5.68,11l5.1-13.43,4.92,6.43-.12-21.18,9.39,7.94-.54-12.27,3.79,5.05-3.79-16.43,3.79,1.45L221,120.22c2.71-.18,10.47,10.11,10.47,10.11l-8-25.46C221.89,99.27,212,93.5,212,93.5c4.33-.72,11.55,3.79,11.55,3.79-5.42-9-21.66-12.46-21.66-12.46l6.86-.36-12.1-5.23,8.3-1.27c-7.4-4.15-20.58-3.07-20.58-3.07l3.25-3.61L169.9,75.63l3.61-4.34-5.23-.54c-7.4,5.42-25.94,3.43-25.94,3.43l7.22-6.26-26.71,6.26c-.73-2.65,5.77-8.66,5.77-8.66-12.27.72-24.55,9.62-24.55,9.62l1-7.7-9.38,6.74L85.06,67.44l3.37,6.74a167.09,167.09,0,0,0-17.34,0l1,2.77a64.42,64.42,0,0,0-22.39,3.13l5.54.6S39.32,86.1,37.4,92.11h3.25l-12.76,17,10.35-5-3.61,7.7,3.13-1.08S31.1,121.81,24.5,126.07L34,122.38s-7,9.27-9.48,13.24l4.37.29,3.22-2.84L25.66,148l7.66-6.43s-.1,7.38-2.93,12.58c0,0,4.54-1.13,6.14-3.88,0,0-3.59,11.73-3,18.73,0,0,2.84-10.59,6.71-10.59L37.1,170.71l4.07-1.32,4.63-6Z"/><path class="cls-6" d="M224.73,104c-4-4.86-11.4-10.17-11.4-10.17a49.67,49.67,0,0,1,10.19,3.42c-5.42-9-21.66-12.46-21.66-12.46l6.86-.36-12.1-5.23,8.3-1.27c-7.4-4.15-20.58-3.07-20.58-3.07l3.25-3.61L169.9,75.63l3.61-4.34-5.23-.54c-7.4,5.42-25.94,3.43-25.94,3.43l7.22-6.26-26.71,6.26c-.73-2.65,5.77-8.66,5.77-8.66-12.27.72-24.55,9.62-24.55,9.62l1-7.7-9.38,6.74L85.06,67.44l3.37,6.74a167.09,167.09,0,0,0-17.34,0l1,2.77a64.42,64.42,0,0,0-22.39,3.13l5.54.6S39.32,86.1,37.4,92.11h3.25l-12.76,17,10.35-5-3.61,7.7,3.13-1.08S31.1,121.81,24.5,126.07L34,122.38l-.15.2c2.64-2,5.55-3.87,7.77-4.46l-6.25,13.62,5.25,1.42,3.12-4.54L41.45,140s7.38-6.1,8.09-6.25l1.28,4.69s-3.55,4.25-3.55,9.36l3.55,1.76s5.11-11.41,15-11.83c0,0-1.28,12.91,0,15.75h2.27l5.53-8.52,1.56,11.64H79.9l12.62-7.81-4.67,15.75s6-8.94,10.22-9.22c0,0,7.66,10.22,7.66,14.33h4.11l6.67-10.07a33.54,33.54,0,0,1,2.13,12.06l3.69.85s7-10.07,7.38-16c0,0,4.54,8.65,5,12.77l3.69-.15.71-7.23,3.12,4.82,4.12-.14V155.86s6.67,8.09,7.38,12.2l3.83-.57s-1-11.35-2.42-15.46c0,0,9.65,6.81,12.92,12.48l-1.14-9.93,6.39-.85,2.41,8.37h2.41s.85-7.23,1.13-9.08,6.39.14,7.24,4.4c0,0,.85-11.21,3.69-12.2s7.66,3.12,7.66,3.12L197,137.27l8.51,4.83-2.27-7.67s12.35-6.38,12.77-6.38-3-3.26-3-3.26l-8.94.14,15.47-2.41L210,118s8-1.28,12.63,2l-6.53-8.51,9.09,1.84-6.25-6,10.3,3Z"/><path class="cls-7" d="M64.44,101.76s3.4,4.35,6.43,4.25l-2,3.79s4.54,3.88,6.44,1.89,2.36-4.45,2.36-2.36,2.27,8.51,3.79,7.37a5.44,5.44,0,0,1,3-1.23c.29,0,1.7,2,2.84,3.22s8.89.76,8.89.76-1.7.66,0,2.17,7.85,1.61,7.66,0-.38.66,3,2.46,4.16,5.3,5.3,2,7.19-2.75,7.19-2.75-5.4.29-3,1.61,9.46,4.07,10.21,1.89-.75-4.63.48-2.83,1.23,3.12,6.62,3.12,7.09-2.56,10.59-4c0,0-2.17,3-1,3.4s4.83-2.08,4.83-2.08-3,1.23.47,2,6.81-4.54,6.72-4.83,1,4.35,5.1,3.69a11.27,11.27,0,0,0,6.53-3.88s-.85,2,2.18,1.8,7.66-4.07,7.66-4.07,2.84,2.18,5,1.23,2.93-4.73,3.12-5.11-.28-.37.85.38,2.37,1.89,2.65,1,0-4.92.38-3.6,3.22,3,3.5,2.75,5.77-2.84,7-3.88,4.07-2.27,5.3-3.12a10.68,10.68,0,0,0,2.27-2.37s-5.58-2.55-8.89-2.55-5.49,2.55-2.75-2.08,1.52-2.56.19-2-2.74,4.54-2.36-.38.38-4.54-.76-3.78-1.61,1.13-1.89-2.46-.76-2.36-2.46-.66,1.13,3.78-5.2,1.89-4.92-1-7.48-2-4.06-3.31-4.06-3.87-4.16,6.9-5.3,1-1-8.33-1.51-6.81-.19,2.45-2.08,3.59-2.65-4.16-3.79-1.23-.47,5.49-1.61,1.8-1.89-7-2.74-3.88-4.35-.85-6.24,1.51-3.22-2.75-3.22-2.75.66-1.43-1.61,0-1.42.46-3.21,0-1-2.19-4.21,0-6,.39-6.29-1.13,1.69-4.06-1.33,0-14.28,11.17-13.81,6.06.1-5.3-.94-2.65-2.84,4.63-4.16,1.61-1.33-.66-3.79,1.13-.66-1.42-4.82,1.42-4.73,5.87-5,2.84.1-5.39-2.36-2.74S90,87.66,89,86.25s-.19.37-2.65,2.74-5.77,6.71-6.62,2.93,2.18-4.45-1.61-1.13-5.48-9-6.05-3.13a19.5,19.5,0,0,1-2.93,9.08s-1-8.32-1.7-4S63.49,97.22,64.44,101.76Z"/><path class="cls-8" d="M110.9,160c-.3,0-.76-1.55-.72-4.16a27.17,27.17,0,0,1,2.23-9.89,34.47,34.47,0,0,1,5.28-8.58c1.66-2,2.91-3,3.15-2.76s-.54,1.57-1.82,3.72a69.07,69.07,0,0,0-4.47,8.53,42.62,42.62,0,0,0-2.74,9.13C111.37,158.36,111.24,159.93,110.9,160Z"/><path class="cls-8" d="M106.46,142.62c-.29-.12-.3-.88,0-2A18.08,18.08,0,0,1,108,136.4a16.68,16.68,0,0,1,1.33-2.14,11.56,11.56,0,0,1,1.38-1.55c.88-.81,1.59-1.12,1.82-.9s0,.91-.52,1.89c-.25.5-.54,1.07-.88,1.7l-1.08,2.08c-.77,1.47-1.5,2.83-2.13,3.78S106.76,142.74,106.46,142.62Z"/><path class="cls-8" d="M78.8,154.71c-.28-.13.39-2.31,1.92-5.64.77-1.66,1.76-3.61,3-5.71A66.84,66.84,0,0,1,88,136.69c.84-1.14,1.7-2.22,2.59-3.22a33.9,33.9,0,0,1,2.72-2.76,28.17,28.17,0,0,1,5.31-3.85,29.77,29.77,0,0,1,4-1.85c1-.36,1.53-.49,1.6-.35s-.35.54-1.18,1.14-2,1.41-3.5,2.44a38,38,0,0,0-4.72,4c-.82.83-1.65,1.73-2.47,2.7s-1.64,2-2.44,3.11c-1.61,2.19-3,4.39-4.31,6.4s-2.4,3.84-3.34,5.38C80.29,152.93,79.1,154.85,78.8,154.71Z"/><path class="cls-8" d="M98.82,135.2c-.31-.06-.49-.73-.43-1.79a12.27,12.27,0,0,1,1-3.95,12.08,12.08,0,0,1,2.16-3.44c.73-.78,1.33-1.12,1.59-.93s.14.85-.19,1.78-.85,2.16-1.43,3.5-1.09,2.57-1.54,3.46S99.14,135.26,98.82,135.2Z"/><path class="cls-8" d="M121.22,163.45c-.28-.16.43-1.95,1.75-4.73s3.26-6.56,5.24-10.76c1-2.11,1.88-4.13,2.65-6,.38-.93.75-1.81,1.06-2.65l.47-1.2.41-1.13c1-2.86,1.64-4.67,2-4.61.15,0,.2.53.15,1.41,0,.22,0,.46-.05.73s-.08.55-.12.86c-.1.61-.21,1.31-.39,2.07l-.28,1.2c-.1.41-.22.84-.35,1.28-.24.89-.55,1.82-.88,2.8-.69,2-1.54,4.06-2.55,6.21a90.29,90.29,0,0,1-5.91,10.58C122.7,162.11,121.5,163.61,121.22,163.45Z"/><path class="cls-8" d="M149.31,148.5c-.62.19-2.06-2.84-3.87-6.5s-3.3-6.65-2.76-7c.26-.18,1,.35,1.9,1.42a22.29,22.29,0,0,1,2.94,4.59,23.13,23.13,0,0,1,1.84,5.14C149.64,147.5,149.61,148.4,149.31,148.5Z"/><path class="cls-8" d="M176.89,154.1c-.33,0-.77-1.44-1.88-3.62-.56-1.1-1.27-2.39-2.09-3.83s-1.72-3-2.73-4.61a49.09,49.09,0,0,0-5.8-7.64c-1.68-1.8-2.88-2.8-2.7-3.1s1.71.29,3.79,1.88a29,29,0,0,1,6.67,7.63,47.8,47.8,0,0,1,2.66,4.85,32.25,32.25,0,0,1,1.72,4.2,12,12,0,0,1,.59,3.06C177.15,153.66,177.05,154.07,176.89,154.1Z"/><path class="cls-8" d="M185.79,145.66c-.66,0-.9-4.21-2.48-9-.2-.6-.4-1.18-.61-1.73s-.41-1.08-.63-1.57a16.35,16.35,0,0,0-1.31-2.47c-.85-1.32-1.67-2-1.52-2.28,0-.07.13-.1.28-.11a1.91,1.91,0,0,1,.61.13,5.42,5.42,0,0,1,1.87,1.19,10.74,10.74,0,0,1,2,2.58,15.41,15.41,0,0,1,.82,1.68,19.41,19.41,0,0,1,.71,1.86,19.79,19.79,0,0,1,1,6.86C186.45,144.61,186.1,145.68,185.79,145.66Z"/><path class="cls-8" d="M186.7,132.81c-.22.24-.76.12-1.45-.21s-1.52-.87-2.41-1.41-1.68-1-2.3-1.33-1-.65-1-1,.53-.6,1.4-.62a6.07,6.07,0,0,1,3.13,1,7.4,7.4,0,0,1,2.29,2.16C186.78,132.05,186.92,132.58,186.7,132.81Z"/><path class="cls-8" d="M215.36,122.79c-.11.33-1.57,0-3.89-.07-1.16-.06-2.53-.1-4.07,0s-3.22.18-5,.37-3.48.41-5,.6-2.94.36-4.09.54c-2.3.35-3.7.77-3.85.47-.07-.14.2-.45.78-.83a12.63,12.63,0,0,1,2.67-1.23,33.19,33.19,0,0,1,4.15-1.06c1.56-.3,3.29-.6,5.14-.8a36.69,36.69,0,0,1,5.26-.2,22.84,22.84,0,0,1,4.29.56c.61.13,1.14.32,1.61.46s.85.34,1.16.5C215.1,122.39,215.41,122.64,215.36,122.79Z"/><path class="cls-8" d="M201.6,117c.22.62-2.42,2.08-5.63,3.84s-5.88,3.17-6.28,2.65c-.19-.25.25-.95,1.16-1.83a20.81,20.81,0,0,1,8.58-4.68C200.67,116.66,201.49,116.67,201.6,117Z"/><path class="cls-8" d="M65.71,131.15c-.2-.24.36-1.09,1.54-2.18a20.87,20.87,0,0,1,2.21-1.73,24.52,24.52,0,0,1,3-1.71,24.85,24.85,0,0,1,3.19-1.27,18.46,18.46,0,0,1,2.74-.66c1.58-.25,2.59-.15,2.66.15s-.8.79-2.2,1.42l-2.44,1.08c-.91.41-1.91.87-3,1.36s-2,1-2.89,1.46l-2.37,1.24C66.83,131,65.92,131.4,65.71,131.15Z"/><path class="cls-8" d="M70.56,144.51c-.31,0-.46-1.33-.36-3.4a29.51,29.51,0,0,1,.43-3.64,24.48,24.48,0,0,1,1.23-4.4A18.12,18.12,0,0,1,74.08,129a13.85,13.85,0,0,1,2.65-2.73A8.42,8.42,0,0,1,79,125c.58-.19.94-.21,1-.07.16.3-.85,1.07-2.11,2.54a20.84,20.84,0,0,0-2,2.73A24.32,24.32,0,0,0,74,133.92a64.23,64.23,0,0,0-2.2,7.44C71.31,143.33,70.89,144.56,70.56,144.51Z"/><path class="cls-8" d="M48.89,131.33c-.14-.08-.09-.48.15-1.15.05-.16.12-.35.2-.55l.3-.62a14.68,14.68,0,0,1,.83-1.49l.53-.83c.19-.28.42-.56.64-.86.43-.6,1-1.19,1.51-1.82a27.92,27.92,0,0,1,4.08-3.58,27.54,27.54,0,0,1,4.73-2.68,22.85,22.85,0,0,1,2.21-.84c.36-.11.69-.23,1-.32l1-.23a14.21,14.21,0,0,1,1.67-.3c.25,0,.48-.06.69-.07l.59,0c.7,0,1.1.08,1.13.24s-.32.38-1,.65l-.53.2-.61.26c-.45.18-1,.36-1.5.6l-.86.36c-.3.12-.6.28-.92.42-.64.27-1.29.62-2,1a42.41,42.41,0,0,0-4.3,2.64,41.72,41.72,0,0,0-3.91,3.21c-.56.54-1.1,1-1.57,1.56-.24.25-.48.48-.7.72l-.62.7c-.41.43-.74.86-1.06,1.22l-.44.5-.37.43C49.35,131.15,49,131.4,48.89,131.33Z"/><path class="cls-8" d="M58.31,116.75c-.18-.25.23-.93,1.27-1.58A8.9,8.9,0,0,1,64.1,114a11.73,11.73,0,0,1,4.46.85c1.06.45,1.64.92,1.56,1.22s-.82.41-1.91.38-2.54-.14-4.09-.13a22.07,22.07,0,0,0-3.92.39C59.19,116.87,58.49,117,58.31,116.75Z"/><path class="cls-8" d="M42.82,125.09c-.26-.15.24-1.75,1.52-4.11l.51-.92c.18-.31.39-.63.6-1,.41-.67.89-1.36,1.4-2.09a48.07,48.07,0,0,1,3.68-4.46,46.07,46.07,0,0,1,4.21-4c.7-.55,1.35-1.08,2-1.53.32-.23.63-.46.93-.66l.89-.58c2.27-1.42,3.83-2,4-1.77.37.58-5,4.3-10.33,10.08S43.42,125.41,42.82,125.09Z"/><path class="cls-8" d="M39.78,112.37c0-.33,1.1-.63,2.69-1.42a21,21,0,0,0,2.67-1.57,31.23,31.23,0,0,0,3-2.4c1-.92,2-1.85,2.92-2.69s1.73-1.55,2.37-2.18,1.11-1.16,1.46-1.54.57-.6.73-.54.2.38.08,1a7.27,7.27,0,0,1-1,2.16,22.89,22.89,0,0,1-2.13,2.65,36.08,36.08,0,0,1-2.9,2.92,19.43,19.43,0,0,1-3.42,2.48A12.7,12.7,0,0,1,43,112.5a7.4,7.4,0,0,1-2.36.22C40.1,112.67,39.79,112.53,39.78,112.37Z"/><path class="cls-8" d="M45.21,102.2c-.2-.23.74-1.45,2.56-3.1.46-.41,1-.85,1.53-1.3s1.18-.92,1.83-1.4a48.56,48.56,0,0,1,4.46-2.85,49.51,49.51,0,0,1,4.73-2.36c.75-.32,1.46-.62,2.14-.86s1.31-.46,1.9-.64c2.35-.72,3.88-.91,4-.61.21.63-5.3,2.88-11.61,6.48S45.65,102.71,45.21,102.2Z"/><path class="cls-8" d="M52,86c-.08-.21,1.26-1,3.66-1.83l.94-.3c.33-.1.68-.19,1-.28.72-.2,1.5-.36,2.31-.53a50.67,50.67,0,0,1,5.37-.68,66.28,66.28,0,0,1,9.75.1c2.48.21,4,.48,4,.71s-1.55.41-4,.51-5.88.17-9.61.42c-1.87.13-3.63.32-5.23.52-.8.13-1.56.22-2.26.36l-1,.17L56,85.4C53.61,85.88,52.12,86.28,52,86Z"/><path class="cls-8" d="M39.46,98.22c-.13-.3.35-.83,1.18-1.5s2-1.48,3.34-2.36,2.54-1.66,3.48-2.17,1.62-.74,1.84-.5-.08.9-.79,1.76a15,15,0,0,1-3.24,2.84,15.59,15.59,0,0,1-3.87,1.89C40.33,98.5,39.59,98.51,39.46,98.22Z"/><path class="cls-8" d="M93,80c-.18.18-.81-.19-1.92-.4a19.44,19.44,0,0,0-2-.26l-2.58-.24c-3.65-.33-6.66-.52-6.69-1,0-.23.74-.5,2-.66a22.47,22.47,0,0,1,4.86-.06c1,.09,1.84.22,2.66.38a9.16,9.16,0,0,1,2.18.69,3.74,3.74,0,0,1,1.29,1C93,79.67,93.06,79.89,93,80Z"/><path class="cls-8" d="M107.41,83.71c-.22-.06-.21-1,.2-2.56.1-.38.23-.79.39-1.22s.35-.89.56-1.36a19.66,19.66,0,0,1,3.8-5.57c.37-.37.72-.72,1.07-1a11.13,11.13,0,0,1,1-.81c1.26-.93,2.17-1.3,2.31-1.12.3.41-2.56,2.81-5.08,6.54S107.9,83.84,107.41,83.71Z"/><path class="cls-8" d="M121.27,74c.43.24-.36,2.45-1.3,5.15s-1.72,4.91-2.2,4.82c-.24,0-.35-.67-.27-1.66A16.12,16.12,0,0,1,120,75.14C120.58,74.32,121.06,73.9,121.27,74Z"/><path class="cls-8" d="M142.18,70.4c.25.43-2.45,2.44-5.56,5.12s-5.52,5-5.9,4.71c-.18-.15.19-1,1-2.08A26.48,26.48,0,0,1,140,71.1C141.21,70.45,142.05,70.2,142.18,70.4Z"/><path class="cls-8" d="M138.22,76.81c.17.45-1.33,1.43-3.35,2.2s-3.79,1-4,.57,1.33-1.43,3.34-2.2S138.05,76.36,138.22,76.81Z"/><path class="cls-8" d="M169.07,72.06c.24.4-3.85,3.28-9.35,6s-10.28,4.24-10.45,3.8,4.24-2.66,9.67-5.36S168.82,71.64,169.07,72.06Z"/><path class="cls-8" d="M168,81.33c-.1-.2,1.13-1,3.33-2l.86-.34c.31-.12.63-.23,1-.34.65-.24,1.37-.45,2.12-.67a50.41,50.41,0,0,1,5-1.08,56.79,56.79,0,0,1,9.19-.71c2.35,0,3.81.19,3.82.42s-1.43.51-3.75.8-5.5.65-9,1.21c-1.74.28-3.39.6-4.88.92-.74.17-1.45.32-2.11.49l-1,.23-.88.24C169.53,81.15,168.14,81.57,168,81.33Z"/><path class="cls-8" d="M204.44,83.57c-.06.25-1.63,0-4.15.15-1.27,0-2.79.15-4.48.26s-3.54.26-5.49.43c-7.77.69-14,1.78-14.15,1.29,0-.23,1.46-.8,4-1.41a68.79,68.79,0,0,1,10-1.61c2-.18,3.86-.27,5.57-.3s3.26,0,4.58.11a14.35,14.35,0,0,1,3.07.54C204.1,83.25,204.46,83.46,204.44,83.57Z"/><path class="cls-8" d="M193.32,87.76c-.13.48-3.87-.15-8.48-.64s-8.4-.7-8.42-1.19c0-.23.94-.49,2.5-.64a32,32,0,0,1,6.1.11,31.6,31.6,0,0,1,6,1.2C192.5,87.07,193.38,87.53,193.32,87.76Z"/><path class="cls-8" d="M220.74,105c-.41.51-5.22-2.79-11.3-6.56s-11.14-6.65-10.87-7.25c.14-.28,1.59.07,3.81,1a58,58,0,0,1,8.29,4.32,57.34,57.34,0,0,1,7.52,5.53C220,103.55,220.94,104.71,220.74,105Z"/><g class="cls-9"><path class="cls-10" d="M180.67,84.57s-20.61-9.2-40.13,20.07c-17.39,26.08,14.92,36.62,14.92,36.62s19.95,7.81,30.33-19.61S183.23,85.63,180.67,84.57Z"/><path class="cls-11" d="M185.79,121.65c3.42-9,4.3-16,3.86-21.4a56.16,56.16,0,0,1-3.93,17c-10.37,27.42-30.32,19.61-30.32,19.61s-18-5.87-19.89-19.67c-1.79,16.94,20,24,20,24S175.41,149.07,185.79,121.65Z"/><path class="cls-12" d="M176.84,116.34c-7.79,10-20.14,13.34-27.6,7.52s-7.2-18.62.58-28.59,20.14-13.35,27.6-7.53S184.62,106.37,176.84,116.34Z"/><path class="cls-11" d="M172.54,129c-.85,2.39-2.49,4-3.66,3.58s-1.43-2.69-.58-5.08,2.49-4,3.66-3.58S173.39,126.56,172.54,129Z"/><path class="cls-11" d="M163,109.69c-1.16,1.83-3.07,2.71-4.26,2s-1.23-2.86-.07-4.7,3.07-2.71,4.27-2S164.2,107.85,163,109.69Z"/><path class="cls-11" d="M183.57,107.81c-.64,1.78-2.1,2.89-3.27,2.47s-1.6-2.2-1-4,2.1-2.89,3.27-2.48S184.2,106,183.57,107.81Z"/><path class="cls-11" d="M152.47,127.78c-.5,1.42-1.66,2.3-2.59,2s-1.28-1.75-.77-3.16,1.66-2.3,2.59-2S153,126.36,152.47,127.78Z"/><path class="cls-11" d="M146.31,109.09c-.95,1.07-2.3,1.44-3,.81s-.51-2,.45-3.08,2.29-1.44,3-.81S147.26,108,146.31,109.09Z"/><path class="cls-11" d="M166.29,86.83c-1.29.63-2.51.79-2.72.35s.65-1.32,1.94-2,2.51-.79,2.73-.35S167.58,86.19,166.29,86.83Z"/><path class="cls-10" d="M108.07,81.1S83.65,86.15,85,125c1.22,34.62,37,23.23,37,23.23s22.94-5.87,14.56-37.16S111.06,80.4,108.07,81.1Z"/><path class="cls-11" d="M136.59,111.07c-2.77-10.32-6.49-17.17-10.34-21.69a62,62,0,0,1,7.47,17.82c8.38,31.29-14.56,37.15-14.56,37.15s-19.91,6.34-30.54-4.81C98,155.89,122,148.23,122,148.23S145,142.36,136.59,111.07Z"/><path class="cls-12" d="M125.13,112.08c-.54,14-9.46,25-19.91,24.55s-18.47-12.06-17.92-26,9.46-25,19.91-24.56S125.68,98.11,125.13,112.08Z"/><path class="cls-11" d="M129.41,126.17c.78,2.69.34,5.19-1,5.57s-3-1.49-3.8-4.19-.34-5.19,1-5.57S128.63,123.47,129.41,126.17Z"/><path class="cls-11" d="M108.46,115c.14,2.4-1,4.42-2.57,4.52s-2.94-1.78-3.08-4.18,1-4.41,2.56-4.51S108.31,112.62,108.46,115Z"/><path class="cls-11" d="M125.67,100.08c.58,2,0,4-1.34,4.33s-2.85-.94-3.43-3,0-3.95,1.33-4.33S125.08,98.07,125.67,100.08Z"/><path class="cls-11" d="M110.65,138.06c.47,1.6,0,3.14-1.06,3.45s-2.27-.75-2.73-2.35,0-3.14,1.06-3.44S110.19,136.47,110.65,138.06Z"/><path class="cls-11" d="M93.06,125.27c-.16,1.58-1.13,2.77-2.17,2.67s-1.74-1.48-1.58-3.06,1.13-2.77,2.17-2.67S93.23,123.69,93.06,125.27Z"/><path class="cls-11" d="M96.63,92.4c-.75,1.4-1.74,2.33-2.22,2.07s-.26-1.6.49-3,1.74-2.33,2.22-2.07S97.38,91,96.63,92.4Z"/></g></g></g></svg>