<svg id="Layer_54" data-name="Layer 54" xmlns="http://www.w3.org/2000/svg" viewBox="0 0 512 256"><defs><style>.cls-1{opacity:0.5;}.cls-19,.cls-2,.cls-20,.cls-22,.cls-23,.cls-24{fill:#fff;}.cls-11,.cls-28,.cls-3,.cls-5,.cls-6{fill:#ff8a00;}.cls-28,.cls-3,.cls-30,.cls-4,.cls-5,.cls-6{stroke:#5b1b02;}.cls-15,.cls-19,.cls-20,.cls-21,.cls-22,.cls-23,.cls-24,.cls-28,.cls-3,.cls-30,.cls-4,.cls-5,.cls-6{stroke-miterlimit:10;}.cls-3{stroke-width:0.71px;}.cls-4{fill:#c66c0a;}.cls-30,.cls-4,.cls-5{stroke-width:0.75px;}.cls-6{stroke-width:0.48px;}.cls-7{fill:#ff7a75;}.cls-8{fill:#ba6304;}.cls-9{fill:#6d1f0d;}.cls-10{fill:#590e0e;}.cls-12,.cls-16{fill:#ffde8c;}.cls-13{fill:#fbffff;}.cls-14{fill:#130d14;}.cls-15{fill:#6b0a0a;stroke:#2d0901;stroke-width:0.5px;}.cls-16{opacity:0.76;}.cls-17{fill:#091204;}.cls-18{fill:#b70f0f;}.cls-19,.cls-20{stroke:#4f2102;}.cls-19{stroke-width:0.64px;}.cls-20{stroke-width:0.61px;}.cls-21{fill:#4f2305;stroke-width:0.35px;}.cls-21,.cls-22,.cls-23,.cls-24{stroke:#020b3f;}.cls-22{stroke-width:0.07px;}.cls-23{stroke-width:0.12px;opacity:0.1;}.cls-24{stroke-width:0.07px;}.cls-25{fill:#160b0c;}.cls-26{fill:#60110e;}.cls-27{fill:#f5a954;}.cls-28{stroke-width:0.51px;}.cls-29{fill:#ddb966;}.cls-30{fill:none;}.cls-31{fill:#471201;}</style></defs><path class="cls-1" d="M200.27,248l0-.33-.67,0h-.15a17,17,0,0,1-2.69-.41c-1.94-.5-6.91-1.75-8.93-6.88a14.87,14.87,0,0,1-8.74,5.47,70.64,70.64,0,0,1-11.84,1.4c-.51,0-1,0-1.54,0l-1.54,0-1.31,0a15.41,15.41,0,0,0-1.69.08,11.17,11.17,0,0,1-1.29.08,10.75,10.75,0,0,1-10.57-8.84,17.54,17.54,0,0,1,0-7.64,12.86,12.86,0,0,1,7.54-9.11c.63-.28,1.27-.55,1.92-.82s1.16-.48,1.73-.74c0,0,0-.09,0-.13a28.32,28.32,0,0,0-1.6-5.58c-.25-.68-.49-1.37-.72-2-.42-1.25-.85-2.49-1.27-3.74a224.59,224.59,0,0,1-6.75-22.37c-.26-1.17-.58-2.64-.86-4.23a32.6,32.6,0,0,1-6.07-6.77,10.87,10.87,0,0,0-3.79,4,7,7,0,0,0-.86,3.23c0,.15.07.32.1.5a6.2,6.2,0,0,1-1.34,5l-1.78,2.11-2.85,0a6.39,6.39,0,0,1-1.3-.14,6.12,6.12,0,0,1-4.25-3.48,20.34,20.34,0,0,0-6.48-6.79A28.16,28.16,0,0,1,111,167.25c-.21-.5-.41-1-.6-1.52a5.9,5.9,0,0,1-.86.06,6.39,6.39,0,0,1-3.3-.92,6.31,6.31,0,0,1-3-6.18c0-.89,0-1.78,0-2.67,0-2.25-.07-4.38-.23-6.46a3.71,3.71,0,0,0-1.63-3.1l-.13-.09a50.91,50.91,0,0,1-4.35-3.24,19.06,19.06,0,0,1-4.67-5.95H89l-1-1.33-1.5-.48L86,131.64a13.48,13.48,0,0,1,.12-3.82c0-.22.07-.44.09-.66a15,15,0,0,0-.55-5,15.18,15.18,0,0,0-1.41-3.23A74.06,74.06,0,0,1,79,107.38a32.22,32.22,0,0,1-1.45-6.76l0-.33v-6.2l.7-2.32c.35-1.18.7-2.36,1.09-3.53.65-1.95,1.37-3.9,2.18-5.86l-10.11-.83L81,72.39a8,8,0,0,1,2.52-1.64,46.72,46.72,0,0,0,4.39-3,15.67,15.67,0,0,0,3.6-4.24A34.43,34.43,0,0,1,90,57.58l-.07-.35A14.51,14.51,0,0,1,92.61,46a15.87,15.87,0,0,1,10-6.4,50.35,50.35,0,0,1,4.15-6,43.51,43.51,0,0,1,8.54-8.11,11.83,11.83,0,0,1-.77-2L111.5,13,122,16.19a23.55,23.55,0,0,0,3.67.91,12.36,12.36,0,0,0,1.44.09,6.7,6.7,0,0,0,3.23-.74,20.49,20.49,0,0,1,9.48-2.3,23,23,0,0,1,17.25,8l.57.68a22.6,22.6,0,0,1,10.7-5,27.2,27.2,0,0,1,5.2-.49,31.22,31.22,0,0,1,4.48.33,22,22,0,0,1,10.28,4.9,30.69,30.69,0,0,1,7.84,9.26,4,4,0,0,0,3.6,2.26,5.8,5.8,0,0,0,1.07-.11,6.59,6.59,0,0,1,4.87.16L212,36.86l-3.55,5.83a12.52,12.52,0,0,1-1.93,2.45,23.35,23.35,0,0,1,4.27,10.25c.16,1,.29,2.11.42,3.17,0,.37.09.74.13,1.1a14,14,0,0,1,4.9,5.8,15.93,15.93,0,0,1-.7,16.06h0c.71,2.77,1.38,5.38,2.16,8,.33,1.1.75,2.23,1.2,3.43a46.26,46.26,0,0,1,3.33,18.69,100,100,0,0,0,10.46,7,159.35,159.35,0,0,0,22.62,10.94,24.39,24.39,0,0,0,4,1c.94.19,1.88.38,2.81.61,10.28,2.54,20.31,5.16,30,9.17a48.36,48.36,0,0,1,13.1,7.86,62.66,62.66,0,0,1,9.06-.66,63.91,63.91,0,0,1,9,.64,71.22,71.22,0,0,1,31.88,12.69c3,2.14,5.83,4.43,8.58,6.64,1.62,1.3,3.29,2.64,4.94,3.91a52.35,52.35,0,0,0,19.16,9.78l.77.2,1.45.37a29,29,0,0,1,17.54-6,28.69,28.69,0,0,1,13.55,3.45c1.84,1,3.6,2,5.3,3,1.88,1.12,3.66,2.18,5.47,3.1a40.32,40.32,0,0,0,8.82,3.67,6.24,6.24,0,0,1,4.8,4.6,6.17,6.17,0,0,1-1.45,5.58,24.23,24.23,0,0,1-13,8.87,39.3,39.3,0,0,1-11.51,1.6h0c-1,0-2.13,0-3.22-.1a67.6,67.6,0,0,1-16.78-3,27.64,27.64,0,0,1-11.71-6.95v0h-.15c-1.82-.18-3.7-.37-5.66-.74a57.21,57.21,0,0,1-29-14.7c-1-1-2-1.91-2.87-2.84a40.47,40.47,0,0,0-4.8-4.43,46.35,46.35,0,0,0-21.09-8.44,45.15,45.15,0,0,0-6.53-.48h-.49c.25.55.5,1.08.76,1.59,1.43,2.8,3.91,4.78,7.79,6.23a61.71,61.71,0,0,0,8.16,2.21l2.3.52a16.81,16.81,0,0,1,8.82,4.65,12.19,12.19,0,0,1,3.38,7.57c.78,1.87,1.55,3.74,2.33,5.6,2,4.79,4,9.74,6.12,14.54.37.85.75,1.68,1.14,2.52a65.17,65.17,0,0,1,3.38,8.52,28.79,28.79,0,0,1,1.43,11.25C362,241,356.31,246,348.31,246h-.55c-.34,0-.75,0-1.21,0a17.82,17.82,0,0,1-7.34,1.62,18,18,0,0,1-5.84-1h-.58A11.92,11.92,0,0,1,321,235.2a20.08,20.08,0,0,1,3.23-11.08c1.82-3,1.94-6.36.4-10.85-.25-.72-1.73-2-2.61-2.69-3.17-2.64-7.09-4.6-12.71-6.35A76.22,76.22,0,0,0,298.48,202l-.39,0c0,.08,0,.16,0,.25a16.31,16.31,0,0,0,1.69,6.43,1.73,1.73,0,0,0,.65.79c5,3.1,6.87,7.77,5.46,13.52-1.2,4.85-3.7,9.34-7.87,14.13-3.57,4.09-7.18,6.65-11.37,8.06a19.36,19.36,0,0,1-6.12,1A17.4,17.4,0,0,1,278,246a16.34,16.34,0,0,1-5.66,1.11,13.5,13.5,0,0,1-2.84-.31c-1.23-.28-2.58-.55-4.25-.87a12.32,12.32,0,0,1-8.24-5.34,12.83,12.83,0,0,1-1.5-10.1,15.63,15.63,0,0,1,10.17-11.25c-1-.29-2-.62-3.07-1a39.93,39.93,0,0,1-21.88-19.55l-3.61.27c-1.63.11-3.25.23-4.87.37-2.75.23-5.48.35-8.17.42.19,3.8,1.12,22.46,1.12,22.46q.32,6.54.67,13.09a8.89,8.89,0,0,1-1.74,5.89,15.68,15.68,0,0,1-9.29,5.93l-.14.87Zm-10.36-31.43c.07,1.46.14,2.93.2,4.4s.13,3.05.21,4.6c.26-.28.52-.55.8-.81a15.39,15.39,0,0,1,4.58-3c-2.53-6.37-4.48-12.9-6.37-19.21-.05-.19-.11-.38-.17-.57C189.36,205.74,189.91,216.54,189.91,216.54Z"/><path class="cls-2" d="M195.27,243l0-.33-.67,0h-.15a17,17,0,0,1-2.69-.41c-1.94-.5-6.91-1.75-8.93-6.88a14.87,14.87,0,0,1-8.74,5.47,70.64,70.64,0,0,1-11.84,1.4c-.51,0-1,0-1.54,0l-1.54,0-1.31,0a15.41,15.41,0,0,0-1.69.08,11.17,11.17,0,0,1-1.29.08,10.75,10.75,0,0,1-10.57-8.84,17.54,17.54,0,0,1,0-7.64,12.86,12.86,0,0,1,7.54-9.11c.63-.28,1.27-.55,1.92-.82s1.16-.48,1.73-.74c0,0,0-.09,0-.13a28.32,28.32,0,0,0-1.6-5.58c-.25-.68-.49-1.37-.72-2-.42-1.25-.85-2.49-1.27-3.74a224.59,224.59,0,0,1-6.75-22.37c-.26-1.17-.58-2.64-.86-4.23a32.6,32.6,0,0,1-6.07-6.77,10.87,10.87,0,0,0-3.79,4,7,7,0,0,0-.86,3.23c0,.15.07.32.1.5a6.2,6.2,0,0,1-1.34,5l-1.78,2.11-2.85,0a6.39,6.39,0,0,1-1.3-.14,6.12,6.12,0,0,1-4.25-3.48,20.34,20.34,0,0,0-6.48-6.79A28.16,28.16,0,0,1,106,162.25c-.21-.5-.41-1-.6-1.52a5.9,5.9,0,0,1-.86.06,6.39,6.39,0,0,1-3.3-.92,6.31,6.31,0,0,1-3-6.18c0-.89,0-1.78,0-2.67,0-2.25-.07-4.38-.23-6.46a3.71,3.71,0,0,0-1.63-3.1l-.13-.09a50.91,50.91,0,0,1-4.35-3.24,19.06,19.06,0,0,1-4.67-5.95H84l-1-1.33-1.5-.48L81,126.64a13.48,13.48,0,0,1,.12-3.82c0-.22.07-.44.09-.66a15,15,0,0,0-.55-5,15.18,15.18,0,0,0-1.41-3.23A74.06,74.06,0,0,1,74,102.38a32.22,32.22,0,0,1-1.45-6.76l0-.33v-6.2l.7-2.32c.35-1.18.7-2.36,1.09-3.53.65-1.95,1.37-3.9,2.18-5.86l-10.11-.83L76,67.39a8,8,0,0,1,2.52-1.64,46.72,46.72,0,0,0,4.39-3,15.67,15.67,0,0,0,3.6-4.24A34.43,34.43,0,0,1,85,52.58l-.07-.35A14.51,14.51,0,0,1,87.61,41a15.87,15.87,0,0,1,10-6.4,50.35,50.35,0,0,1,4.15-6,43.51,43.51,0,0,1,8.54-8.11,11.83,11.83,0,0,1-.77-2L106.5,8,117,11.19a23.55,23.55,0,0,0,3.67.91,12.36,12.36,0,0,0,1.44.09,6.7,6.7,0,0,0,3.23-.74,20.49,20.49,0,0,1,9.48-2.3,23,23,0,0,1,17.25,8l.57.68a22.6,22.6,0,0,1,10.7-5,27.2,27.2,0,0,1,5.2-.49,31.22,31.22,0,0,1,4.48.33,22,22,0,0,1,10.28,4.9,30.69,30.69,0,0,1,7.84,9.26,4,4,0,0,0,3.6,2.26,5.8,5.8,0,0,0,1.07-.11,6.59,6.59,0,0,1,4.87.16L207,31.86l-3.55,5.83a12.52,12.52,0,0,1-1.93,2.45,23.35,23.35,0,0,1,4.27,10.25c.16,1,.29,2.11.42,3.17,0,.37.09.74.13,1.1a14,14,0,0,1,4.9,5.8,15.93,15.93,0,0,1-.7,16.06h0c.71,2.77,1.38,5.38,2.16,8,.33,1.1.75,2.23,1.2,3.43a46.26,46.26,0,0,1,3.33,18.69,100,100,0,0,0,10.46,7,159.35,159.35,0,0,0,22.62,10.94,24.39,24.39,0,0,0,3.95,1c.94.19,1.88.38,2.81.61,10.28,2.54,20.31,5.16,30,9.17a48.36,48.36,0,0,1,13.1,7.86,62.66,62.66,0,0,1,9.06-.66,63.91,63.91,0,0,1,9,.64,71.22,71.22,0,0,1,31.88,12.69c3,2.14,5.83,4.43,8.58,6.64,1.62,1.3,3.29,2.64,4.94,3.91a52.35,52.35,0,0,0,19.16,9.78l.77.2,1.45.37a29,29,0,0,1,17.54-6,28.69,28.69,0,0,1,13.55,3.45c1.84,1,3.6,2,5.3,3,1.88,1.12,3.66,2.18,5.47,3.1a40.32,40.32,0,0,0,8.82,3.67,6.24,6.24,0,0,1,4.8,4.6,6.17,6.17,0,0,1-1.45,5.58,24.23,24.23,0,0,1-13,8.87,39.3,39.3,0,0,1-11.51,1.6h0c-1,0-2.13,0-3.22-.1a67.6,67.6,0,0,1-16.78-3,27.64,27.64,0,0,1-11.71-6.95v0h-.15c-1.82-.18-3.7-.37-5.66-.74a57.21,57.21,0,0,1-29-14.7c-1-1-2-1.91-2.87-2.84a40.47,40.47,0,0,0-4.8-4.43,46.35,46.35,0,0,0-21.09-8.44,45.15,45.15,0,0,0-6.53-.48h-.49c.25.55.5,1.08.76,1.59,1.43,2.8,3.91,4.78,7.79,6.23a61.71,61.71,0,0,0,8.16,2.21l2.3.52a16.81,16.81,0,0,1,8.82,4.65,12.19,12.19,0,0,1,3.38,7.57c.78,1.87,1.55,3.74,2.33,5.6,2,4.79,4,9.74,6.12,14.54.37.85.75,1.68,1.14,2.52a65.17,65.17,0,0,1,3.38,8.52,28.79,28.79,0,0,1,1.43,11.25C357,236,351.31,241,343.31,241h-.55c-.34,0-.75,0-1.21,0a17.82,17.82,0,0,1-7.34,1.62,18,18,0,0,1-5.84-1h-.58A11.92,11.92,0,0,1,316,230.2a20.08,20.08,0,0,1,3.23-11.08c1.82-3,1.94-6.36.4-10.85-.25-.72-1.73-2-2.61-2.69-3.17-2.64-7.09-4.6-12.71-6.35A76.22,76.22,0,0,0,293.48,197l-.39,0c0,.08,0,.16,0,.25a16.31,16.31,0,0,0,1.69,6.43,1.73,1.73,0,0,0,.65.79c5,3.1,6.87,7.77,5.46,13.52-1.2,4.85-3.7,9.34-7.87,14.13-3.57,4.09-7.18,6.65-11.37,8.06a19.36,19.36,0,0,1-6.12,1A17.4,17.4,0,0,1,273,241a16.34,16.34,0,0,1-5.66,1.11,13.5,13.5,0,0,1-2.84-.31c-1.23-.28-2.58-.55-4.25-.87a12.32,12.32,0,0,1-8.24-5.34,12.83,12.83,0,0,1-1.5-10.1,15.63,15.63,0,0,1,10.17-11.25c-1-.29-2-.62-3.07-1a39.93,39.93,0,0,1-21.88-19.55l-3.61.27c-1.63.11-3.25.23-4.87.37-2.75.23-5.48.35-8.17.42.19,3.8,1.12,22.46,1.12,22.46q.32,6.54.67,13.09a8.89,8.89,0,0,1-1.74,5.89,15.68,15.68,0,0,1-9.29,5.93l-.14.87Zm-10.36-31.43c.07,1.46.14,2.93.2,4.4s.13,3.05.21,4.6c.26-.28.52-.55.8-.81a15.39,15.39,0,0,1,4.58-3c-2.53-6.37-4.48-12.9-6.37-19.21-.05-.19-.11-.38-.17-.57C184.36,200.74,184.91,211.54,184.91,211.54Z"/><path class="cls-3" d="M265.51,169.07s21.42-26.24,56.61-18.73,34.8,32.76,75.68,34.51l-.92,3.39a52.18,52.18,0,0,1-47.17-16.32c-15-16.36-53.29-25.39-77.61,6l-4.94.91-4.45-6.9Z"/><path class="cls-4" d="M238.7,184.5s4.82,19.64,25.46,24.46c0,0,10.49,2.5,13.32,4.66V217a60.34,60.34,0,0,0-6,1.6c-3.27,1.06-13.77.53-14.92,10.15,0,0-.71,7,7.59,6.71,0,0,2.83,2.21,8.47-.53,0,0,7.24,2.83,15-5.38s7.86-14.56,7.86-14.56.52-2.83-3.45-5.12-6.79-14.57-3.35-20.3-1.84-11.18-1.84-11.18L263.6,174l-16.31,2.22Z"/><path class="cls-4" d="M177.09,180l2.41,47.43s.16,6.26-7.09,7.74-11,1.08-11,1.08-.84.59-4.36,0c0,0-4.63,1.47-6.4-2.86,0,0-2.42-7.93,4-10.65s7.42-2.79,7.2-7.64-11.38-30.12-12-44.66Z"/><path class="cls-5" d="M137.17,146.41s-.75,21.15,21.49,33.09,66.11,9.07,66.11,9.07,41.44-5.32,47.63-3.74a104.71,104.71,0,0,0,24.17,6.62c12.81,1.72,25,7.19,29.36,15,0,0,3,7.34,0,14.82,0,0-8.32,11.41,1.34,14.53h2.42a1.13,1.13,0,0,1,.48.11,11.55,11.55,0,0,0,10.72-1s8.63,2.16,10.79-5.18-4.89-20.29-4.89-20.29l-9.21-22s.72-5.47-6.76-7.34-18.42-3-23.17-12.52-4-16.1-18.13-24c-11.65-6.53-40.72-12.69-40.72-12.69S214.73,118,203.71,101.69C203.71,101.69,136.93,134.49,137.17,146.41Z"/><path class="cls-6" d="M98.78,62.77s6.87-5.59,9.86-10.73c0,0,.93-8.54-6.55-11.12-5.82-2-11.67,3.92-11.38,8.88C90.71,49.8,91.24,61.16,98.78,62.77Z"/><path class="cls-7" d="M97.37,45.3s5.85-2.43,9.84,8.52c0,0-3.55,3.29-7.61,3.85C99.6,57.67,91.51,48.83,97.37,45.3Z"/><path class="cls-8" d="M96.92,45.53s6.19-1.36,8.46,8.26a7.52,7.52,0,0,0,1.33-1.06,46.31,46.31,0,0,0-2.4-4.75C103.54,46.76,100.61,43,96.92,45.53Z"/><path class="cls-8" d="M91.69,46.51a25.34,25.34,0,0,0,2.52,10.87L93.15,58a21,21,0,0,1-1.58-4.31S90,48.64,91.69,46.51Z"/><path class="cls-9" d="M152.16,28.87S155.44,16,173,18.54c0,0,8.34,2,13.54,12a10.33,10.33,0,0,0,11.91,3.82s-1.37,3.54-7.26,3.4c0,0,8.08,5.78,8.9,14.21s4.68,29.19,8.94,39.78,5.21,40.28-18.92,51c0,0-3.42,6.79-10.58,8.51,0,0-21.3,4.66-27.33,14.53,0,0-1.1-4.52,1.67-6.9,0,0-3.68,2.86-11.73,3.69s-15.79,9-14.34,17c0,0-4.13-7.58-8.78-9.73s-10.7-16-10.51-24.51,1.7,8.1-4.34,9.67c0,0,1.13-13.48-2.84-17s-11.52-5.71-11-19.76c0,0,0,6.4-3.59,8.1,0,0,1.89-7.44-1.51-14S76.37,96.34,79,87.6a93.45,93.45,0,0,1,6.61-16s-4.53.38-5.67,0c0,0,6.24-2.91,10-7.71S98.84,44.49,101.86,39s8.64-13.29,18.39-17.39c0,0-4.3-1.56-5-4.88,0,0,7.25,2.93,12.51,0S146,12.87,152.16,28.87Z"/><path class="cls-10" d="M146,42s-14.69-15.11-26.44-1.26-6.3,23.92-19.73,32.73A12,12,0,0,0,107.64,71S94,78.74,103.86,106.65c0,0,2.94-5.46,2.94-9.87a12.55,12.55,0,0,0,5.24,9.87c5.46,4,4.83,13.22,3.57,16.36,0,0,2.94-1.05,4-5.24L142.47,123,155.06,122s-4.62,8.19-2.94,13.22c0,0,4.62-8.6,8.81-9.86s10.5-5.24,10.5-5.24-2.1,10.07-5.25,12.79c0,0,13.22-7.55,15.53-19.93L184,100.56h0a8.23,8.23,0,0,1,1.46,4.83c-.21,2.52,2.1-9.24-1.88-14.9a18.09,18.09,0,0,1-2.94-12.17s2.73,11.12,8.6,13.43L188,88.18s7.56,8.6,13.22,9.65c0,0,.63-2.93-4.41-7.13s-11.12-9.44-11.75-17.42c0,0-1.25,5.67,1.47,10.07,0,0-7.13-7.55-7.13-16.36s2.1-21.19-6.51-28.33-17,1.68-17,1.68a6,6,0,0,1,2.94-3.78l-2.73.21s2-2.94,3.62-4.75a20.22,20.22,0,0,0-6.09,6.84s3.79-4.54.85-7.06a26.26,26.26,0,0,1-2.34,5.65l-1.25-6.4s1,5.55-1.24,6.18c0,0-2.54-5.76-4.21-7,0,0,2.68,2.58,2.06,8.66a16,16,0,0,1-2.31-4A14.24,14.24,0,0,0,146,42Z"/><path class="cls-11" d="M117.1,71.08s-1.76-26.44,23.83-28.42a9.57,9.57,0,0,1,5,1.07c1.12.66,3,2.33,4.84,2.48a37.14,37.14,0,0,0,8.28-.55s13.81-2.27,17.46,15.56c2.64,12.9-4.36,25.85-4.36,25.85s14.41,17.82-9.17,30.39c0,0-13.11,3.32-16.17,11.22l-22.55-3.49-3-9.28a9.45,9.45,0,0,0-4.12-9c-5.16-3.72-12.82-14.63-9.57-23.45S117.1,71.08,117.1,71.08Z"/><path class="cls-12" d="M123,111.14s-.72,7.4,5.49,8.36,11.45,1,16-5.25,10-15.76,10-15.76-5.25,13.37-5.49,22.44-5.25,15-17.9,14.79c0,0-10.17-.64-12.79-8.27a16.33,16.33,0,0,1,1.7-10.85S122.69,112.69,123,111.14Z"/><path class="cls-13" d="M125.34,106.34s4,3,13.71,1.76,9-6.29,9-6.29H130.83l-6.17.48Z"/><path class="cls-14" d="M122.84,106.34l.77,7,3.17,4.68h8.75l6.6-1.42,4.27-5.42s6.48-10.1,7.28-12.16l-3.08-.5-16.33.5S121.34,100.5,122.84,106.34Z"/><path class="cls-12" d="M121.7,87.83s-7.59,3.26-4.73,10.66S128.3,105,130,102.6v-3s-.86,6,4,6.6,11.61-.19,19.64-7.7c0,0-2.76-6.35-12.06-5.35l-13.18-1.43Z"/><path class="cls-15" d="M123.32,84.65s5.45,5.92,20,4.32c0,0,1.56,4.12-6.43,7.25L132.73,99c-3.61,2.4-5.39-.46-5.39-.46S125.89,95,124.75,94,120.27,87.55,123.32,84.65Z"/><path class="cls-16" d="M150.56,85.93s-10.66-12.66,4-24.26c0,0,7.18-2.49,8.22,4.31,2.63,17.35-3.7,16.2-5.69,19.19Z"/><path class="cls-17" d="M154.53,61.67s6.26-1.18,8.62,7.47c0,0,2-7.86-3.14-10.81S154.53,61.67,154.53,61.67Z"/><path class="cls-16" d="M118.06,72.12A24.25,24.25,0,0,1,124,56.57c6.24-7,11,.18,11,.18s.28,16.79-5.94,19.65Z"/><path class="cls-12" d="M157.94,158.59s.72,11,44.47,15.43,61.93,4.39,61.93,4.39l8.06,6.42a149,149,0,0,0-22.29.9c-13.51,1.42-31.21,3.68-37.72,3.14s-30-.85-38.17-3.8c0,0-18.14-3.56-29.47-16.6a15.39,15.39,0,0,1-4.21-7.72l7.54-.74Z"/><path class="cls-17" d="M135,56.75s1.34-3.34,0-5.7-9.78,0-11.35,5.7C123.65,56.75,132.21,51.84,135,56.75Z"/><path class="cls-18" d="M126.78,113.45s6.05-6.36,16.69-4.43c0,0,2.72.32,1.48,3.17s-11.3,4.92-11.3,4.92l-6.87-.54Z"/><path class="cls-17" d="M121.47,103.5s1.89,4.91,1.54,8.77c0,0-1,7.26,7.51,7.5s10.92-.84,14.76-6.6,9.25-14.68,9.25-14.68h-.85s-6.75,12.85-11.29,16.05-12,4.54-17,.27a53.23,53.23,0,0,1-.88-6.53C124.46,106.33,121.47,103.5,121.47,103.5Z"/><path class="cls-13" d="M121.47,103.5l3.1,6.4s1.44,2.41,1.14-5.57A11,11,0,0,1,121.47,103.5Z"/><path class="cls-13" d="M137.17,106.33l1.49,5.52s1.08,2.48,2.27-6C140.93,105.85,138,106.34,137.17,106.33Z"/><path class="cls-13" d="M125.34,114.81s.44-4,1.53-5,1.35,6.72,1.35,6.72S125.49,115.61,125.34,114.81Z"/><path class="cls-13" d="M136.51,117.11s.39-4.82.66-5.81,2,3.16,2.45,4.79A9.93,9.93,0,0,1,136.51,117.11Z"/><path class="cls-13" d="M124.88,112.19s6.23,6.09,18.59,0a8.77,8.77,0,0,0,2.58-3l.35,1.09s-2.73,4.52-6.78,5.85c-3.11,1-7.11,2.27-11.4.48C128.22,116.57,123.61,115.44,124.88,112.19Z"/><ellipse class="cls-19" cx="155.31" cy="75.86" rx="9.33" ry="7.43" transform="translate(53.44 215.49) rotate(-79.92)"/><ellipse class="cls-20" cx="125.19" cy="69.14" rx="8.98" ry="6.93" transform="translate(23.52 169.71) rotate(-73.6)"/><ellipse class="cls-21" cx="155.09" cy="76.99" rx="5.13" ry="4.16" transform="matrix(0.18, -0.98, 0.98, 0.18, 52.15, 216.22)"/><ellipse class="cls-17" cx="155.14" cy="77.39" rx="2.95" ry="2.5" transform="translate(42.04 208.78) rotate(-75.79)"/><ellipse class="cls-22" cx="152.71" cy="76.05" rx="0.93" ry="0.88" transform="translate(60.25 219.42) rotate(-83.66)"/><circle class="cls-23" cx="156.49" cy="74.27" r="1.54"/><ellipse class="cls-21" cx="126.18" cy="71.66" rx="4.94" ry="3.88" transform="translate(21.8 172.47) rotate(-73.6)"/><ellipse class="cls-17" cx="126.33" cy="72.01" rx="3.09" ry="2.29" transform="translate(21.57 172.87) rotate(-73.6)"/><ellipse class="cls-24" cx="124.35" cy="70.36" rx="0.89" ry="0.84" transform="translate(40.69 186.17) rotate(-83.66)"/><circle class="cls-23" cx="127.49" cy="68.67" r="1.54"/><path class="cls-8" d="M136.76,89s6.59-2.39,7.45-6.24c0,0,.49,4.32-.61,6A68.38,68.38,0,0,1,136.76,89Z"/><path class="cls-8" d="M149.13,119.34a29.92,29.92,0,0,1,10.15-5.58c6.05-1.87,16-7.51,16.37-19.75,0,0,3.29,9.2-2.91,15.75s-8.19,7.13-14.18,9.21-9.76,6-10.48,7.69C148.08,126.66,149.44,121,149.13,119.34Z"/><path class="cls-8" d="M121,115.1s1.84-2.78,2-4a26.66,26.66,0,0,0-1.56-7.64c-.46-.88-1.09.5-4.06-4.28-.67-1.08-9.11-5.21-10.61-10a19.92,19.92,0,0,0,2.53,8.13,32.89,32.89,0,0,0,9.36,10.86C121.47,110.34,121,115.1,121,115.1Z"/><path class="cls-12" d="M123.44,84.27s1.53-5.82,8.75-8.17C132.19,76.1,124.68,81.58,123.44,84.27Z"/><path class="cls-25" d="M148.48,86.47s8.74-.88,13.66-1.58C162.14,84.89,153.14,84.42,148.48,86.47Z"/><path class="cls-25" d="M116.28,74.89s6.57,3.6,10.37,5.47C126.65,80.36,120.7,75.53,116.28,74.89Z"/><path class="cls-26" d="M80.65,71.39S89,69.71,91.84,66.61a10,10,0,0,1-6.33,4.78S81.24,72,80.65,71.39Z"/><path class="cls-10" d="M86.75,126.41s4.4-5.84,2.29-16.76c0,0,1.72,4.85,4,14.42s9.47,11,9.47,11,2.56.81,2.89,9.31-1.24,10.71-1.24,10.71.63-10-1.06-14a12.33,12.33,0,0,0-5.61-5.86s-4.63-3.08-5.72-7a57.37,57.37,0,0,1-1.4-9.87S90.47,124.43,86.75,126.41Z"/><path class="cls-10" d="M98.87,126a17.23,17.23,0,0,0,2.12,9.2l2,2.45.88,6.47.3,11s3.39-.31,4.4-7.75c0,0,.42,15.25,9.77,22.2s9.46,10.12,9.46,10.12-2.44-10.24,11.35-16.37c0,0,9.52-1,14.72-4.34,0,0-3,1.84-1.67,6.9,0,0,4.84-7.36,18.16-11.81s16.25-4,19.75-11.23c0,0,14.43-2.72,19.61-23.57,0,0-7.17,13.38-14.21,15.15,0,0,6.84-11,6.07-17.06,0,0-4.65,15.87-12.25,18,0,0,1.41-1.06,1.9-5.38s-1,10-10.56,13.78a10.3,10.3,0,0,0,1.59-3.31c.21-1.36-2.87,6.33-9.23,8.11s-13.75,4.82-16.42,6.6c0,0,3.28-3,3.57-5.75,0,0-5.59,7.68-14.46,9s-13.38,2.76-17.24,9.44c0,0,1.11-6.41,4.11-8.8,0,0-5.32,2.77-5.6,7.17,0,0-1-8.91-5.5-11.63,0,0,2.93,6.68,1.68,12.06A24.85,24.85,0,0,1,112.23,154s-3.65-7.84-3.46-10.42-3.62-9-2.67-15.41a18.35,18.35,0,0,0-.42,11c0,.15.09.3.13.45C107.7,146,99.29,128.37,98.87,126Z"/><path class="cls-27" d="M118.06,100.22s7.45,4,11.87-.07c0,0,4.3,6,16.89,3.42A21.16,21.16,0,0,1,136,106.82c-5.08-.06-5.38-1.67-5.93-4.65,0,0-.14,3-6.49,2C119.13,103.5,118.06,100.22,118.06,100.22Z"/><path class="cls-27" d="M120,130.44s18.51,4.29,23.48-2.93,5.5-18.34,8.9-22.81c0,0-2.88,9.69-3.13,13.5s-.06,11.18-5.77,14.62S125.88,138.24,120,130.44Z"/><path class="cls-28" d="M188.79,65.32s-.15,10.1,4.82,14c0,0,8.15.32,12.32-7,2.85-5-.58-13.16-5.44-13.41C200.49,58.93,190.94,58.35,188.79,65.32Z"/><path class="cls-7" d="M202.59,66.86s1.76,8.16-10.41,10.71c0,0-2.93-4.24-2.91-8.61C189.27,69,199.76,60.14,202.59,66.86Z"/><path class="cls-8" d="M190,72.89a7.58,7.58,0,0,1,4.05-2.67,3.72,3.72,0,0,0-3.3,0s7.76-7.93,11.85-3.52c0,0-.92-4.08-6.09-2.1,0,0-5.61,2-7.23,4.2C189.32,68.8,189.2,71.54,190,72.89Z"/><path class="cls-8" d="M193.25,78.33c.06.14-.31.1.13.41l.41.4c2.63-.18,2.38,0,6.26-1.63,3.66-1.5,5.41-6.2,5.41-6.2C201.64,77.42,194.72,78.18,193.25,78.33Z"/><path class="cls-29" d="M141.53,162.93s15.87,15.32,47.71,17.5,79.27.84,79.27.84l3.89,3.56s-13.11.12-19.74.94-35.18,4.29-40.27,3.1L188,188s-27.4-2.9-39.35-15.62C148.67,172.41,143.24,168,141.53,162.93Z"/><path class="cls-5" d="M179,155.07s13,49.61,18.05,60.72c0,0,1.38,4.89-1.23,6.32,0,0-9.79,1.57-7.18,11,0,0,.65,3.53,7.57,3.79h4.31s11.1,1.56,14.23-5c0,0-2.08-41.13-2.22-44.26s.79-38.91-3.91-44.92"/><path class="cls-30" d="M336.58,223.9s-3.16,10.08,7.66,11.28"/><path class="cls-30" d="M328.32,224.88s-4,10.1,5.3,11.83"/><path class="cls-30" d="M200.57,225.52s-7.28,5.36-.63,11.24"/><path class="cls-30" d="M195.91,224.8s-7.69,4.91-1.45,11.92"/><path class="cls-30" d="M162.91,225.52s-7,4-1.53,10.73"/><path class="cls-30" d="M159.29,223.24s-5.3,2.28-4.81,7.1c.47,4.57,2.54,5.91,2.54,5.91"/><path class="cls-30" d="M274.93,222.8s-8.38,3-2.34,12.08"/><path class="cls-30" d="M267.63,221.38s-5.23,2-5.13,7.46,1.62,6.57,1.62,6.57"/><path class="cls-5" d="M259.73,173.16s8.81,10.61,16,13"/><path class="cls-30" d="M141.53,162.93s1.58,10.09,23.13,19.37c0,0,17.09,5.86,23.36,5.73"/><path class="cls-30" d="M212.39,188.87s20.21-.18,35.78-2.52c17.17-2.57,24.23-1.52,24.23-1.52"/><path class="cls-31" d="M386.2,184.33s11.6-12.74,27.78-4.52c0,0,14.28,9.18,21.36,10.45,0,0-7.27,10.81-26,8.45S383.26,189.32,386.2,184.33Z"/><path class="cls-25" d="M385.78,185.28s3.76,7.34,22.63,10.09,26.93-5.11,26.93-5.11-4.19,7.64-16.2,8.49-25-2.06-29.82-6.45S385.35,186.22,385.78,185.28Z"/><path class="cls-25" d="M386.85,183.69s8.2,3.35,13.21,3.06c0,0-4.76,4.17-14.49-1A3.45,3.45,0,0,1,386.85,183.69Z"/></svg>