<svg id="Layer_54" data-name="Layer 54" xmlns="http://www.w3.org/2000/svg" viewBox="0 0 256 256"><defs><style>.cls-1{fill:#766e6d;}.cls-2{fill:#fff;}.cls-3,.cls-6{fill:#f48455;}.cls-11,.cls-3{stroke:#7b1415;}.cls-11,.cls-3,.cls-5,.cls-7,.cls-8{stroke-miterlimit:10;}.cls-4{fill:#dd794e;}.cls-5{fill:#8c361e;stroke:#4d1615;}.cls-7{fill:#c35929;}.cls-7,.cls-8{stroke:#5b3026;}.cls-8{fill:#edbcbc;}.cls-9{fill:#96431b;opacity:0.4;}.cls-10{fill:#b33c28;}.cls-11{fill:none;}.cls-12{fill:#f29f7a;}.cls-13{fill:#621511;}.cls-14{fill:#9f5737;}.cls-15{fill:#441212;}.cls-16{fill:#6f0f10;}.cls-17{fill:#521316;}.cls-18{fill:#3c1212;}.cls-19{fill:#4f1211;}.cls-20{fill:#ef5556;}.cls-21{fill:#642627;}.cls-22{fill:#391212;}.cls-23{fill:#951b1e;}</style></defs><path class="cls-1" d="M52.88,91.73s-3.3-11.39.89-20.78c0,0-7.7-14.16-5-30,2.47-14.3,4.41-18.4,9.08-17.62s8.88,17.16,9.7,19.08,3.54,6.28,5.75,7.68,10.77-9.91,29.92-2.24c0,0,5.68-29.09,15.27-29.09,5.71,0,8.85,11.1,9.25,20.31s2.6,17.62,3.12,21.52c.63,4.69,1.88,14.28-.34,24.11,0,0,6.59,18-2.82,28.27,0,0,11,7.08,8,14.8,0,0,16.39,23.31,22,30.08,6.24,7.51,13.49,14.77,20.85,25.3S188.78,199,189,204.57c0,0,2.21-19.8-6.45-31.78s-21.76-16.72-21.64-23.64,5.13-14.24,19.64-12.23,25,13.27,31.54,31.1c6.38,17.32,8.79,33.87-1,51.54-9.21,16.68-18.36,19.4-33.5,18.49,0,0-6.85,8.47-59.64,4.14,0,0-36.39,3.19-34-4.71,0,0-15.3-4.39-3.79-19a11.85,11.85,0,0,1,7.37-4.78s.38-38.74,0-41.25-2.53-16.73-3.69-18.05-4.89-1.64-4.53-5.26c0,0-16,7.82-20.28-16.34,0,0-2.12-2.09-2.8-8C56.31,124.8,33.34,104.22,52.88,91.73Z"/><path class="cls-2" d="M51.23,88.38S47.93,77,52.12,67.6c0,0-7.7-14.15-5-30C49.62,23.3,51.56,19.21,56.23,20s8.87,17.15,9.69,19.08,3.55,6.28,5.75,7.67,10.77-9.9,29.93-2.24c0,0,5.67-29.09,15.27-29.09,5.71,0,8.85,11.11,9.25,20.31s2.6,17.62,3.12,21.53c.63,4.69,1.87,14.28-.35,24.11,0,0,6.6,18-2.81,28.27,0,0,11,7.07,8,14.8,0,0,16.39,23.3,22,30.07,6.24,7.51,13.48,14.78,20.85,25.31s10.2,15.82,10.44,21.42c0,0,2.21-19.8-6.45-31.79s-21.76-16.72-21.64-23.63,5.13-14.24,19.63-12.24,25,13.28,31.55,31.1c6.38,17.32,8.78,33.88-1,51.54-9.21,16.69-18.36,19.41-33.51,18.5,0,0-6.84,8.47-59.63,4.14,0,0-36.4,3.19-34-4.72,0,0-15.31-4.38-3.79-19A11.8,11.8,0,0,1,86,210.35s.38-38.74,0-41.25-2.53-16.74-3.69-18-4.89-1.65-4.54-5.27c0,0-16,7.82-20.27-16.33,0,0-2.12-2.1-2.8-8C54.66,121.46,31.69,100.87,51.23,88.38Z"/><path class="cls-3" d="M181.79,217.22s18.57-11.15,12.15-33.19c-5.6-19.23-15.14-29.84-29-37.1-7.76-4.05,12-14.18,23-4.37,9.16,8.17,18.08,20.76,20.27,44.32C210,206.6,200,229,176.5,228.62,155,228.25,173.38,215.53,181.79,217.22Z"/><path class="cls-4" d="M181.32,220.67s10.85-3.52,14.07-11.4,6.22-20.33,2.18-30.5-6.22-19.49-1.77-19.39,7.4,4.29,8.79,9.21,6.33,23.86,1.73,36.88-11.19,18.92-18.94,21.47-10.88,1.68-10.88,1.68,1-8.57,2.92-8.26Z"/><path class="cls-5" d="M92.46,170s-.06,40.89-1.25,46.41c0,0-11.52-1.15-10.24,7s8.64,5,22.94,5.17l6.46-25.36-1.93-22.9S98.76,162.38,92.46,170Z"/><path class="cls-6" d="M90.62,146s5.62,5.39,10.88,26a160.39,160.39,0,0,0,15.73,38.29s5.46-27.33,7.53-29.46,14.73-7.21,14.83-7.52-1.45-15-1.45-15.77S134,141.64,134,141.64s-4.94-15.93-6.48-15.28-7.21,6.57-9.6,8.85S101.09,144.22,90.62,146Z"/><path class="cls-3" d="M94.35,152.51s5,5.93,7.53,21.65.51,41.76.51,41.76a14,14,0,0,0-13.19,4.76c-5.51,6.53-1.74,12.15-1.74,12.15l26.39.46s.77.09,1.38-8.61,8.16-48.52,8.7-62.19.55-15.64.55-15.64"/><path class="cls-7" d="M121.75,222.24a61.66,61.66,0,0,1-21.17-25.72C93,179.29,87.37,153,86.67,147.32s28.76-22.17,34.16-21.92,5.57-1.64,7.37,1,17.34,27.15,27,37.25,23.15,28.19,25.12,36.19,1,25.21-3.57,27.93C172.45,230.29,134.41,237,121.75,222.24Z"/><path class="cls-3" d="M128.2,126.38S144.35,152.06,157,165s23.54,29.28,24.74,41.31-1.11,19.41-7,22.88-57.27,3.74-57.27,3.74.18-7,4.28-10.64a8.6,8.6,0,0,1,5.59-2.17c9.55-.35,11.21,1.91,11.21,1.91s-18.3-19.5-15.76-34.7c2.38-14.31,13.2-15.6,13.2-15.6"/><path class="cls-8" d="M120.62,113.22s8.8,6.56,6.9,12c-.71,2.05-11.9,12.39-17.31,14.84-11.25,5.11-21,6.57-24.95,5.68s-6.7-12.61-6.7-12.61l18.85-5,13.22-7.83S120.09,112.7,120.62,113.22Z"/><path class="cls-7" d="M118.93,108.65a9.12,9.12,0,0,1,1,4.27c-.15,2.17-13.75,10.51-17.13,12.67s-16,7.38-19.93,6.48S86,122.81,86,122.81l9.46-8.54,12.06-3.79S117.26,107.3,118.93,108.65Z"/><path class="cls-6" d="M111.17,119.61s3.64-5.67,3.94-6.9,3.79-3,3.79-3,1.13,1.87.53,3.28S115.11,117.47,111.17,119.61Z"/><path class="cls-9" d="M127.51,126.36a52.84,52.84,0,0,1-4.28,8.46c-2.36,3.35-7.34,7.21-17.14,11.31s-18.3,3.55-18.64,2.77-.65-2.2-.16-2.51,7.1.49,18.61-4.49c12.66-5.47,15.88-10.14,17.36-11.25C124.07,130,127.51,126.36,127.51,126.36Z"/><path class="cls-10" d="M114.73,66.5s-6.92,1.1-4.56-13.53,3.59-22.88,4.84-21.84,3.62,7.47,4.87,19.37S118.8,66.24,114.73,66.5Z"/><path class="cls-3" d="M57.24,92c-1.89-12-2.4-22.48.62-24.32-1.07.65-4.38-11-4-9.77-2.61-9.08-3-14.78-2-20.19,1.25-7.09,2.94-10,4.13-9.73,1.79.39,1.68,5.81,3.71,12.47,3.06,10.05,8.79,13.08,10.64,13.17,2.26.12,4.23-2.31,6.3-3.67a23.8,23.8,0,0,1,5.49-2.39A20.57,20.57,0,0,1,96,48.09c7.21,3.29,9.88,6.9,9.88,6.9s3.81-26,8.19-32.07c2.05-2.85,3.6-.58,5.16,5.53,1.55,7.42,2.09,11.55,2.21,15.18a87.17,87.17,0,0,0,.9,9.79,128.72,128.72,0,0,1,1.55,16.21c0,1.75-.21,9.25-2.07,12.79,0,0,4.43,10.42,3.72,16s-4.37,14.33-25,16.56c0,0-8.28,9.5-13,10,0,0-3.59,12.07-12.85,10.08-8.07-.69-13.88-7.95-14.87-16.15C59.78,118.92,37.89,100.1,57.24,92Z"/><path class="cls-3" d="M106.85,64.84s-1.1-7.37-.94-9.85"/><path class="cls-3" d="M57,68.31s4.93-14.72,20.36-18.78"/><path class="cls-11" d="M58.13,117.68a14.49,14.49,0,0,0,4.68,1.56c2.23.22,2.06-.19,5.34-.21s5.35.89,7.71.47,10.12-2.72,12.93-8.1,3.45-7.07,4.35-9.1"/><path class="cls-12" d="M55.31,113.32s-3-5.73-3.27-6.85a6.91,6.91,0,0,1,1.85-5.87c2.19-2.33,9.6-5.45,16.26-5.35s7,.61,13.63,3.08,9.78,3.74,9.78,3.74-3.62,7.81-6.09,10.89-8.18,6.15-12.64,6-8.65-.14-10.07,0a11.07,11.07,0,0,1-5.43-.8C57.59,117.26,57.43,116,55.31,113.32Z"/><path class="cls-3" d="M53,107.68s1.61,9.78,8,11,3.9,0,6.61.33,2.71.75,6.44.66S85.34,117.48,90.36,108"/><path class="cls-3" d="M92.68,102.67s.24,10.53-3.38,19.23S82,134.08,79.65,135.06s-16.83,3-20.16-17.27"/><path class="cls-13" d="M84.59,63.28s-2.09,0,0-1.46,5.31-2.9,8.86-.77a16.22,16.22,0,0,1,6,7c.64,1.37-3-2.54-4.75-4A9.1,9.1,0,0,0,84.59,63.28Z"/><path class="cls-13" d="M64.71,67.24s1.06,0,.22-1.44c-1.24-2.18-4-2-5.62-.63a7.16,7.16,0,0,0-2.82,6c0,1.19,1.27-3,2.85-4.3C60.7,65.73,62.4,64.76,64.71,67.24Z"/><path class="cls-14" d="M101.31,82.68c0,8,2.15,11.94-10.67,11.78-7.52-.1-10.57,6.42-12.39-9.63-.89-7.92,1.69-15.49,11.08-16.47C95.53,67.71,101.31,74.71,101.31,82.68Z"/><path class="cls-14" d="M68.26,84C69.18,93.72,67.72,95,64.08,96c-3.1.85-4.75,2.82-7.55-8.66-1.59-6.51-1.4-14.46,2.59-15.91C62.24,70.35,67.62,77.17,68.26,84Z"/><path class="cls-2" d="M67.2,85.59c1,9.91-.2,9.84-3.74,10.6-2.63.56-4.22,1-6.38-7.91-1.43-5.9-1.26-13.13,2.05-14.4C61.73,72.88,66.36,77.51,67.2,85.59Z"/><path class="cls-2" d="M101.25,82.93c.6,3.7.49,4.92-.11,9.24-.4,2.84-1.62,3.34-1.87,3.53-2.42,1.79-4.82-1.54-8.33-1.43-5.68.18-6.29,1.82-8.12.93-1.4-.69-2.3-3.07-3.06-9.5-.84-7,1.57-13.66,10.32-14.53C95.87,70.6,100.28,77,101.25,82.93Z"/><path class="cls-15" d="M98,86.92A13.28,13.28,0,0,1,98,92.63c-.06.35-.53,3.49-1.27,3.49-1.66,0-3.1-1.65-5.25-1.69a12.41,12.41,0,0,0-4.71.66c-.93.32-2-2-2.54-6-.53-4.32,1.3-9,6.81-9.48C94.63,79.3,97.42,83.25,98,86.92Z"/><path class="cls-16" d="M97.32,86.91a12.6,12.6,0,0,1-.2,6c-.35,1.35-.53,3-2.63,2.51-1.08-.23-1.1-1-3.06-1-3.16.1-2.4-.19-4,.35-.82.29-2-2-2.44-5.54-.46-3.87,1.15-8,6-8.5C94.26,80.43,96.78,83.61,97.32,86.91Z"/><path class="cls-17" d="M93.55,89.22c.18,1.67-.7,3.13-2,3.27s-2.45-1.1-2.63-2.76a2.33,2.33,0,1,1,4.6-.51Z"/><ellipse class="cls-2" cx="91.44" cy="86.99" rx="1.11" ry="1.31" transform="translate(-16.74 21.99) rotate(-12.57)"/><ellipse class="cls-18" cx="62.35" cy="87.58" rx="3.44" ry="7.75" transform="matrix(0.99, -0.17, 0.17, 0.99, -13.84, 11.73)"/><ellipse class="cls-16" cx="62.4" cy="87.77" rx="2.87" ry="6.89" transform="translate(-13.87 11.74) rotate(-9.68)"/><path class="cls-17" d="M64.05,88c.18,1.66-.48,3.1-1.48,3.21s-2-1.15-2.14-2.81S61,85.74,62,85.63,63.86,86.32,64.05,88Z"/><ellipse class="cls-2" cx="62.43" cy="85.7" rx="0.98" ry="1.14" transform="translate(-17.16 15.64) rotate(-12.57)"/><path class="cls-19" d="M62.39,119.7s2.84,14.67,13.78,11.13,13.91-21.12,13.91-21.12a17.46,17.46,0,0,1-10.58,9.1c-4.08,1.64-6.79.65-11.44.59C65.79,119.36,63.73,119.86,62.39,119.7Z"/><path class="cls-20" d="M64.11,119.7a63.55,63.55,0,0,0-1.6,7.47c0,1.47-1.06,11.88,9.1,14.45s-.19-13.14,1-21.07a.67.67,0,0,0-.49-.85C69.45,119,64.63,118.85,64.11,119.7Z"/><path class="cls-21" d="M52.49,102.11a36.24,36.24,0,0,0,7.45,1.08c4.77.29,8.68.26,10.15.25s4,.71,3.87,1.51-3.46,7.2-12.09,7.27-10.45-7.82-10.26-8.54A2.24,2.24,0,0,1,52.49,102.11Z"/><path class="cls-22" d="M65.05,109.17a3.14,3.14,0,0,1,1.73-2.85c1.79-.79,3.47-1.5,4.22-.72s-4.31,4.65-5.92,3.8"/><path class="cls-22" d="M53,105.73s-.39-1.16.48-.49,3,2,3.32,3.5S53.82,108.7,53,105.73Z"/><path class="cls-23" d="M62.59,112.37l3.33,5.57-1-6a7.74,7.74,0,0,1-1.22.2l-1.1.08"/></svg>