<svg id="Layer_54" data-name="Layer 54" xmlns="http://www.w3.org/2000/svg" viewBox="0 0 256 256"><defs><style>.cls-1{opacity:0.5;}.cls-2{fill:#fff;}.cls-3{fill:#fee201;}.cls-3,.cls-9{stroke:#898900;}.cls-3,.cls-4,.cls-8,.cls-9{stroke-miterlimit:10;stroke-width:2px;}.cls-4{fill:#7ea002;}.cls-4,.cls-8{stroke:#277200;}.cls-5{opacity:0.8;}.cls-6{fill:#fff82e;}.cls-13,.cls-7{fill:#fbd100;isolation:isolate;}.cls-7{opacity:0.33;}.cls-8{fill:#8fcc0b;}.cls-9{fill:#eac307;}.cls-10{fill:#ffffd7;}.cls-11{fill:#ffe700;}.cls-12{fill:#ffff9b;}.cls-13{opacity:0.13;}</style></defs><path class="cls-1" d="M160.81,233.5a65.77,65.77,0,0,1-53.19-26.34h-1.34A95.4,95.4,0,0,1,83,204c-2.06-.49-3.83-.92-5.12-1.09s-2.22-.24-3.31-.32a45.71,45.71,0,0,1-5.45-.64c-5-.95-8.7-2.08-12.8-5.1-3.21-2.37-5.88-5.86-8.16-10.7a30.75,30.75,0,0,1-1.47-4.2,23.77,23.77,0,0,0-1.21-3.51C30.63,152.86,30.8,125,34.52,112.57c.83-2.78,1.79-5.52,2.86-8.15A90.72,90.72,0,0,1,47,86.71a55.12,55.12,0,0,1-13.25-9.52,6,6,0,0,1,4-10.25c4.55-.15,9.86-5.37,13.73-9.18l.16-.15C64,46.37,88.85,27.5,117.31,27.5a62.45,62.45,0,0,1,10.53.89,47.2,47.2,0,0,1,26.61,14.82c0-.1,0-.18,0-.25a6,6,0,0,1,6-5.44,6.23,6.23,0,0,1,1.22.12c4,.83,5.66,1.31,6.85,2a6,6,0,0,1,1.22,9.47c-1.83,1.81-3.32,4.54-4.67,8.59a7.73,7.73,0,0,0-.5,4.34,2.87,2.87,0,0,0,.76,1.29A8.21,8.21,0,0,1,167.55,69a7.45,7.45,0,0,1-.13,1.07l.06.17a4.4,4.4,0,0,0,.64,1.06c6.55,8.16,11.76,19.36,14.53,31.14a75.07,75.07,0,0,1,32,24.27A67.93,67.93,0,0,1,229,164.6a63.34,63.34,0,0,1-15,44.48,67.57,67.57,0,0,1-12.58,11.48,69.8,69.8,0,0,1-40.55,12.94Z"/><path class="cls-2" d="M155.81,228.5a65.77,65.77,0,0,1-53.19-26.34h-1.34A95.4,95.4,0,0,1,78,199c-2.06-.49-3.83-.92-5.12-1.09s-2.22-.24-3.31-.32a45.71,45.71,0,0,1-5.45-.64c-5-.95-8.7-2.08-12.8-5.1-3.21-2.37-5.88-5.86-8.16-10.7a30.75,30.75,0,0,1-1.47-4.2,23.77,23.77,0,0,0-1.21-3.51C25.63,147.86,25.8,120,29.52,107.57c.83-2.78,1.79-5.52,2.86-8.15A90.72,90.72,0,0,1,42,81.71a55.12,55.12,0,0,1-13.25-9.52,6,6,0,0,1,4-10.25c4.55-.15,9.86-5.37,13.73-9.18l.16-.15C59,41.37,83.85,22.5,112.31,22.5a62.45,62.45,0,0,1,10.53.89,47.2,47.2,0,0,1,26.61,14.82c0-.1,0-.18,0-.25a6,6,0,0,1,6-5.44,6.23,6.23,0,0,1,1.22.12c4,.83,5.66,1.31,6.85,2a6,6,0,0,1,1.22,9.47c-1.83,1.81-3.32,4.54-4.67,8.59a7.73,7.73,0,0,0-.5,4.34,2.87,2.87,0,0,0,.76,1.29A8.21,8.21,0,0,1,162.55,64a7.45,7.45,0,0,1-.13,1.07l.06.17a4.4,4.4,0,0,0,.64,1.06c6.55,8.16,11.76,19.36,14.53,31.14a75.07,75.07,0,0,1,32,24.27A67.93,67.93,0,0,1,224,159.6a63.34,63.34,0,0,1-15,44.48,67.57,67.57,0,0,1-12.58,11.48,69.8,69.8,0,0,1-40.55,12.94Z"/><path class="cls-3" d="M169.46,143.82c-9,26.67-30.77,47.9-57.93,51.65-18.61,2.58-31.19-2.59-37.86-3.52-3.21-.44-5.29-.31-8.48-.91-4.66-.88-7.34-1.81-10.35-4-2.83-2.09-4.8-5.26-6.3-8.43-.92-2-1.65-6-2.9-8.16C32.07,147,31.75,121.07,35.27,109.28c.77-2.58,1.66-5.12,2.67-7.6C51,69.39,83.17,47.18,120.73,51.91a86.51,86.51,0,0,1,17.92,4.41,10.47,10.47,0,0,0,3.58.67h.4c2.3-.07,6.22.19,9.13,2.32a12.45,12.45,0,0,1,4.85,7.29,9.37,9.37,0,0,0,.31.89,10.25,10.25,0,0,0,1.52,2.57c8.54,10.64,13.83,25.83,15.09,39A84.2,84.2,0,0,1,169.46,143.82Z"/><path class="cls-4" d="M156.55,63.78c0-1.32-1.88-1.92-2.76-5.16a13.36,13.36,0,0,1,.6-7.82c1.34-4,3.14-8,6.15-11a31.85,31.85,0,0,0-5.08-1.32,15,15,0,0,1-1.92,5.57c-.9,1.59-1.65,3.26-2.47,4.89-.43.86-.93,1.68-1.43,2.5-4.07,6.58-10.32,4.86-10.49,7.22C138.89,62.37,156.44,66.7,156.55,63.78Z"/><g class="cls-5"><path class="cls-6" d="M46,131.84a3.51,3.51,0,1,1-2.47,4.31A3.52,3.52,0,0,1,46,131.84Z"/><circle class="cls-6" cx="55.3" cy="132.96" r="2.14"/><path class="cls-6" d="M55.22,122.08a2.41,2.41,0,1,1-1.7,3A2.42,2.42,0,0,1,55.22,122.08Z"/><path class="cls-6" d="M49.6,115.73a2.21,2.21,0,1,1-1.55,2.71A2.21,2.21,0,0,1,49.6,115.73Z"/><path class="cls-6" d="M54.25,141.37a2.32,2.32,0,1,1-1.63,2.85A2.32,2.32,0,0,1,54.25,141.37Z"/><path class="cls-6" d="M46.63,144.58a2.72,2.72,0,1,1-1.9,3.33A2.71,2.71,0,0,1,46.63,144.58Z"/><path class="cls-6" d="M54.11,152.53a2.07,2.07,0,1,1-1.45,2.54A2.06,2.06,0,0,1,54.11,152.53Z"/><path class="cls-6" d="M56.2,160.85a1.93,1.93,0,1,1-1.36,2.37A1.93,1.93,0,0,1,56.2,160.85Z"/><path class="cls-6" d="M58.37,112.69a2.35,2.35,0,1,1-1.64,2.88A2.35,2.35,0,0,1,58.37,112.69Z"/><path class="cls-6" d="M51.81,102.78A3.42,3.42,0,1,1,49.42,107,3.43,3.43,0,0,1,51.81,102.78Z"/><path class="cls-6" d="M61.63,105a1.61,1.61,0,1,1-1.13,2A1.62,1.62,0,0,1,61.63,105Z"/><path class="cls-6" d="M48.35,124.25a1.61,1.61,0,1,1-1.13,2A1.61,1.61,0,0,1,48.35,124.25Z"/><path class="cls-6" d="M59.18,96.43a1.51,1.51,0,1,1-1,1.85A1.51,1.51,0,0,1,59.18,96.43Z"/><circle class="cls-6" cx="68.41" cy="98.96" r="2.21"/><circle class="cls-6" cx="64.42" cy="91.14" r="2.35"/><path class="cls-6" d="M74.05,87.13A2.3,2.3,0,1,1,72.44,90,2.3,2.3,0,0,1,74.05,87.13Z"/></g><path class="cls-7" d="M169.46,143.82c-9,26.67-30.77,47.9-57.93,51.65-18.61,2.58-31.19-2.59-37.86-3.52-3.21-.44-5.29-.31-8.48-.91-4.66-.88-7.34-1.81-10.35-4-2.83-2.09-4.8-5.26-6.3-8.43-.92-2-1.65-6-2.9-8.16C32.07,147,31.75,121.07,35.27,109.28c.77-2.58,1.66-5.12,2.67-7.6a68.34,68.34,0,0,0,6.7,40c8.24,15.51,26.31,28.39,43.62,31.34C122.11,178.84,154.68,163.6,169.46,143.82Z"/><path class="cls-8" d="M121.82,29.3c15,2.62,25.47,13.62,29.22,21.72-3.21,15.45-21.31,24.64-42.57,29.08S62.88,84,48.29,78A50.19,50.19,0,0,1,33,67.93c6.75-.21,12.72-6,17.75-10.89C60.52,48.07,89.79,23.8,121.82,29.3Z"/><path class="cls-9" d="M192.9,210.67c-28.44,20.11-68.17,14.12-87.13-14.46a63.71,63.71,0,0,1-9.2-21.82c-5.27-24.35,3.68-50.7,23.68-65.21,26.28-19.09,63.48-11.29,84.67,16.2a62.05,62.05,0,0,1,13,34.54C219,179.17,210.46,198.24,192.9,210.67Z"/><path class="cls-10" d="M190.32,207.25c-26.48,18.74-63.49,13.16-81.15-13.47s-11-63.32,13.48-81.07,59.14-10.52,78.87,15.1S216.85,188.49,190.32,207.25Z"/><path class="cls-11" d="M201.2,146.06a12.17,12.17,0,0,1-4.59,2.74,249,249,0,0,1-26.44,9.14c-1.94.56-4.57,1.24-6.31.64-2.83-1-3.44-3.59-1.55-7.38,1.44-2.9,10.61-18,13.8-22.55,2.19-3.12,4.93-8,8.47-8.18,5.24-.33,14,8.93,17.1,16.1C203,139.49,203.66,143.35,201.2,146.06Z"/><path class="cls-11" d="M108.21,151.07a11.43,11.43,0,0,1,5.33,0,239.29,239.29,0,0,1,27.24,6.49c1.94.55,4.56,1.35,5.76,2.83,2,2.39,1.31,4.66-2.23,7-2.7,1.83-18.21,10.44-23.24,12.8-3.46,1.63-8.26,4.5-11.42,2.78-4.68-2.53-7.55-15.56-6.64-23.7C103.38,156,104.71,152.17,108.21,151.07Z"/><path class="cls-11" d="M133.53,117a11.25,11.25,0,0,1,3.33,4.11,234.94,234.94,0,0,1,12.35,25c.78,1.85,1.78,4.38,1.37,6.27-.66,3.06-3.28,4.19-7.37,3-3.13-.89-19.61-7.19-24.62-9.53-3.44-1.6-8.7-3.42-9.33-7-.93-5.25,7.54-15.95,14.52-20.54C126.61,116.5,130.47,115,133.53,117Z"/><path class="cls-11" d="M194.91,190.92a11.57,11.57,0,0,1-5-2.12,244.8,244.8,0,0,1-23.28-16.56c-1.61-1.29-3.74-3.09-4.28-5-.88-3,.94-5.25,5.2-6.11,3.26-.65,21.21-2.66,26.87-2.9,3.88-.16,9.51-1,11.8,1.89,3.39,4.25.91,17.69-3.17,25C201.4,188.16,198.62,191.26,194.91,190.92Z"/><path class="cls-11" d="M118.73,192.59a11.36,11.36,0,0,1,3.11-4.06,235.42,235.42,0,0,1,20.41-17.43c1.53-1.17,3.65-2.7,5.44-2.77,2.92-.12,4.44,2,4.17,6.09-.22,3.11-2.82,19.86-4,25.06-.8,3.56-1.45,8.86-4.56,10.29-4.6,2.12-16-3.14-21.46-8.49C119.6,199.1,117.53,195.89,118.73,192.59Z"/><path class="cls-11" d="M156.73,210.05a11.75,11.75,0,0,1-1.31-5.13,243.66,243.66,0,0,1-1.11-27.76c0-2,.14-4.7,1.23-6.21,1.76-2.45,4.14-2,7.26.82,2.39,2.16,14.69,14.72,18.16,19,2.39,2.94,6.28,6.87,5.45,10.31-1.22,5.1-12.75,10.95-20.62,12C162.58,213.52,158.64,213.14,156.73,210.05Z"/><path class="cls-11" d="M172.89,115.43a11.11,11.11,0,0,1-.81,5,230.61,230.61,0,0,1-9.74,25c-.8,1.75-1.94,4.11-3.49,5-2.53,1.49-4.91.32-6.6-3.38-1.3-2.84-7-18.8-8.46-23.93-1-3.52-2.95-8.48-.88-11.22,3.06-4,15.62-4.8,23.06-2.71C169,110.12,172.38,112,172.89,115.43Z"/><path class="cls-12" d="M157.86,131.53c5.82.56.26,12.1-1.15,12S151.78,131,157.86,131.53Z"/><path class="cls-12" d="M139.38,186.24c-5-3.07,5.08-11,6.3-10.23S144.58,189.44,139.38,186.24Z"/><path class="cls-12" d="M183.55,171.06c-1.72,6.38-12-1.58-11.6-3.13S185.35,164.4,183.55,171.06Z"/><path class="cls-13" d="M192.9,210.67c-28.44,20.11-68.17,14.12-87.13-14.46a63.71,63.71,0,0,1-9.2-21.82,70.85,70.85,0,0,0,6.11,6.41,78.22,78.22,0,0,0,16.15,11.54,76.55,76.55,0,0,0,28.67,8.9,69.05,69.05,0,0,0,7.62.34,64.78,64.78,0,0,0,28.9-7.07,65.82,65.82,0,0,0,7.74-4.62,76.53,76.53,0,0,0,14.61-13.24,95,95,0,0,0,7.21-9.53c1.5-2.27,3-4.67,4.38-7.2C219,179.17,210.46,198.24,192.9,210.67Z"/></svg>