<svg id="Layer_54" data-name="Layer 54" xmlns="http://www.w3.org/2000/svg" viewBox="0 0 256 256"><defs><style>.cls-1,.cls-4{opacity:0.5;}.cls-2{fill:#fff;}.cls-3{fill:#e1e1e5;stroke:#c4c4c6;stroke-miterlimit:10;stroke-width:2px;}</style></defs><path class="cls-1" d="M116.5,205.79c-60.79,0-88-37.81-88-75.29s27.21-75.29,88-75.29c26.22,0,54.69,8.53,78.1,23.41,24.08,15.31,37.9,34.22,37.9,51.88,0,18-13.82,37-37.92,52.22C171.32,197.38,142.86,205.79,116.5,205.79Z"/><path class="cls-2" d="M111.5,200.79c-60.79,0-88-37.81-88-75.29s27.21-75.29,88-75.29c26.22,0,54.69,8.53,78.1,23.41,24.08,15.31,37.9,34.22,37.9,51.88,0,18-13.82,37-37.92,52.22C166.32,192.38,137.86,200.79,111.5,200.79Z"/><path class="cls-3" d="M111.5,194.79c-53,0-82-31-82-69.29s29-69.29,82-69.29,110,36.84,110,69.29C221.5,158.83,164.51,194.79,111.5,194.79Z"/><g class="cls-4"><path class="cls-2" d="M111.74,73.19a5.68,5.68,0,0,1,5.68-5.68c45.16,0,92.89,31.16,92.89,60.63a5.68,5.68,0,0,1-11.36,0c0-10-9.66-22.44-25.19-32.28C157.07,85.26,136,78.93,117.48,78.93A5.74,5.74,0,0,1,111.74,73.19Z"/><path class="cls-2" d="M98.15,81a6.74,6.74,0,1,1,6.73-6.73A6.73,6.73,0,0,1,98.15,81Z"/></g></svg>