<svg id="Layer_54" data-name="Layer 54" xmlns="http://www.w3.org/2000/svg" viewBox="0 0 256 256"><defs><style>.cls-1{opacity:0.5;}.cls-2{fill:#fff;}.cls-3{fill:#5311bc;}.cls-3,.cls-4,.cls-5{stroke:#3d0aa0;}.cls-3,.cls-4,.cls-5,.cls-6{stroke-miterlimit:10;stroke-width:2px;}.cls-4{fill:#661dce;}.cls-10,.cls-5{fill:#7e25e5;}.cls-6{fill:#fef7d9;stroke:#630700;}.cls-7{fill:#805607;}.cls-8{fill:#996709;}.cls-9{fill:#f1e9c4;}</style></defs><path class="cls-1" d="M105.6,204.5c-26,0-52.67-6.8-56.16-19.83l-.34-.26v-1.68l0-.4L48.74,176l.36.09V72a6.33,6.33,0,0,1-.07-1C49,63.7,59.83,60.62,68,59c10.11-2.08,23.48-3.22,37.65-3.22s27.58,1.14,37.69,3.23c8.12,1.67,18.92,4.74,18.92,12.1a5.09,5.09,0,0,1,0,.6v4.56c.79-.22,1.58-.43,2.39-.61a34.65,34.65,0,0,1,7.59-.86,32.63,32.63,0,0,1,7.64.91,33.64,33.64,0,0,1,7.14,2.52,38.7,38.7,0,0,1,6.2,3.84,41.63,41.63,0,0,1,5.22,4.79,50.27,50.27,0,0,1,4.13,5.34,48.67,48.67,0,0,1,3.22,5.75,47.31,47.31,0,0,1,2.39,6,71.81,71.81,0,0,1,3.38,23.51,71.9,71.9,0,0,1-3.4,23.58,53.57,53.57,0,0,1-2.15,5.47l-.18.41,0,.08a48.7,48.7,0,0,1-3.18,5.7,46.43,46.43,0,0,1-4.17,5.39,38,38,0,0,1-5.18,4.76,37,37,0,0,1-6.3,3.87,34.68,34.68,0,0,1-14.65,3.4h0a34.12,34.12,0,0,1-7.65-.86c-.78-.16-1.58-.36-2.39-.6v3.11C162.18,196.69,133.72,204.5,105.6,204.5Zm67.27-46.78,1,0a9.46,9.46,0,0,0,1.61-.11,13,13,0,0,0,5.36-2.07,18.18,18.18,0,0,0,2.52-2,27.92,27.92,0,0,0,2.37-2.67,32.46,32.46,0,0,0,2-3.11,37.2,37.2,0,0,0,1.66-3.58,40.39,40.39,0,0,0,2.25-8.13,53.58,53.58,0,0,0,.78-8.73,52.85,52.85,0,0,0-.78-8.72,38.94,38.94,0,0,0-2.2-8l-.05-.11a37.2,37.2,0,0,0-1.66-3.58,27.59,27.59,0,0,0-2-3.14,20.81,20.81,0,0,0-2.31-2.61,15.94,15.94,0,0,0-2.46-2l-.09,0a12.61,12.61,0,0,0-5.23-2.05,13.07,13.07,0,0,0-1.92-.13l-.82,0a11.22,11.22,0,0,0-2.51.53l-.11,0a16.27,16.27,0,0,0-2.86,1.23,20.63,20.63,0,0,0-2.75,1.8,22.51,22.51,0,0,0-2.45,2.22v49.12l.07.08a15.26,15.26,0,0,0,2.32,2.1l.07.06a20.59,20.59,0,0,0,2.79,1.82,14.55,14.55,0,0,0,2.79,1.2A14.15,14.15,0,0,0,172.87,157.72Z"/><path class="cls-2" d="M101.38,200.27c-26,0-52.67-6.8-56.17-19.83l-.34-.25V178.5l0-.4-.33-6.33.36.09V67.8a7.77,7.77,0,0,1-.07-1c0-7.36,10.8-10.43,18.92-12.1,10.11-2.08,23.48-3.23,37.66-3.23s27.57,1.15,37.69,3.23C147.19,56.4,158,59.48,158,66.83a5.4,5.4,0,0,1,0,.61V72c.79-.23,1.59-.44,2.39-.62a34.72,34.72,0,0,1,7.59-.86,33.32,33.32,0,0,1,7.65.91A34.33,34.33,0,0,1,182.71,74a37.82,37.82,0,0,1,6.21,3.84,40.07,40.07,0,0,1,5.21,4.79,47.93,47.93,0,0,1,4.13,5.33,49.53,49.53,0,0,1,3.23,5.75,51.15,51.15,0,0,1,2.39,6,72.36,72.36,0,0,1,3.38,23.52,72.41,72.41,0,0,1-3.4,23.57,55.24,55.24,0,0,1-2.16,5.48l-.17.41,0,.08a49.55,49.55,0,0,1-3.19,5.7,47.38,47.38,0,0,1-4.16,5.38,38.84,38.84,0,0,1-5.19,4.77,36,36,0,0,1-6.3,3.86,33.83,33.83,0,0,1-7.07,2.5,34.66,34.66,0,0,1-7.58.91h0a34.2,34.2,0,0,1-7.65-.87c-.77-.16-1.57-.36-2.39-.59v3.1C158,192.46,129.49,200.27,101.38,200.27Zm67.26-46.78c.33,0,.67,0,1,0a9.32,9.32,0,0,0,1.6-.12,12.92,12.92,0,0,0,5.37-2.07,18.63,18.63,0,0,0,2.52-2,26.6,26.6,0,0,0,2.36-2.67,28,28,0,0,0,2-3.11,36.2,36.2,0,0,0,1.67-3.58,40.77,40.77,0,0,0,2.24-8.12,53.79,53.79,0,0,0,.79-8.74,55.11,55.11,0,0,0-.78-8.72,38.81,38.81,0,0,0-2.21-8l0-.11a36.36,36.36,0,0,0-1.67-3.59,29.49,29.49,0,0,0-2-3.14,20,20,0,0,0-2.31-2.61,15.28,15.28,0,0,0-2.46-2l-.08-.06a12.87,12.87,0,0,0-5.24-2,14.54,14.54,0,0,0-1.92-.12c-.28,0-.55,0-.82,0a11.2,11.2,0,0,0-2.51.52l-.1,0a17.25,17.25,0,0,0-2.87,1.24,19.53,19.53,0,0,0-2.74,1.79A20,20,0,0,0,158,98.55h0v49.1l.07.08a17,17,0,0,0,2.32,2.11l.08.05a19.47,19.47,0,0,0,2.79,1.83,15.34,15.34,0,0,0,2.78,1.19A13.4,13.4,0,0,0,168.64,153.49Z"/><g id="Mug"><path class="cls-3" d="M154.56,150.85a22.17,22.17,0,0,0,3,2.72,24.41,24.41,0,0,0,3.44,2.24,19.4,19.4,0,0,0,3.68,1.57,18.56,18.56,0,0,0,3.64.75A17.83,17.83,0,0,0,172,158a17.61,17.61,0,0,0,7.18-2.79,22.86,22.86,0,0,0,3.19-2.55,32.47,32.47,0,0,0,2.83-3.2,35.87,35.87,0,0,0,2.35-3.71,40.63,40.63,0,0,0,1.9-4.12,45.91,45.91,0,0,0,2.49-9,53.79,53.79,0,0,0,0-19,44.07,44.07,0,0,0-2.49-9,39.48,39.48,0,0,0-1.9-4.11,33.85,33.85,0,0,0-2.35-3.71,25.39,25.39,0,0,0-2.83-3.2A19.82,19.82,0,0,0,179.2,91,17.2,17.2,0,0,0,172,88.24a19.32,19.32,0,0,0-3.71-.14,15.52,15.52,0,0,0-3.64.75A21.46,21.46,0,0,0,161,90.41a25.4,25.4,0,0,0-3.44,2.25,27,27,0,0,0-3,2.72,13.59,13.59,0,0,0-2.11,2.89l-12.9-9.49a33.37,33.37,0,0,1,4.94-4.66,47.25,47.25,0,0,1,5.2-3.54,43.05,43.05,0,0,1,5.62-2.76,39.94,39.94,0,0,1,6.06-1.9,29.65,29.65,0,0,1,6.56-.75,28.19,28.19,0,0,1,6.57.78,29.65,29.65,0,0,1,6.16,2.18,32.94,32.94,0,0,1,5.44,3.37,36.21,36.21,0,0,1,4.6,4.22,40.46,40.46,0,0,1,6.6,10,47.13,47.13,0,0,1,2.14,5.41,68.21,68.21,0,0,1,3.17,22.12,68.19,68.19,0,0,1-3.17,22.11,56.25,56.25,0,0,1-2.14,5.41,47,47,0,0,1-2.89,5.18,42.85,42.85,0,0,1-3.71,4.79,33.69,33.69,0,0,1-4.6,4.22,31.22,31.22,0,0,1-5.44,3.34,28.92,28.92,0,0,1-19.29,2.21,34,34,0,0,1-6.06-1.91,43.6,43.6,0,0,1-5.62-2.75,40.1,40.1,0,0,1-5.2-3.54,39.28,39.28,0,0,1-4.94-4.66l12.9-9.5A19.55,19.55,0,0,0,154.56,150.85Z"/><path class="cls-4" d="M153.3,66.83V177.52c0,10-23.24,18.1-51.92,18.1C73,195.62,50,187.7,49.49,177.86a124.15,124.15,0,0,0,31.71,3.78c28.65,0,51.92-8.1,51.92-18.1V66.83Z"/><path class="cls-5" d="M133.77,66.83l-.1,107c0,10-22.83,13-47.47,13s-36.68-9-36.68-9v-111Z"/><ellipse class="cls-6" cx="101.38" cy="66.83" rx="51.92" ry="10.68"/><path class="cls-7" d="M56.26,69.79c1.39.79,6.67,3.37,20.92,4.87C77.25,69.52,91,65.23,109,64.49c-2.48-.07-5-.11-7.62-.11C82.05,64.42,65.21,66.56,56.26,69.79Z"/><path class="cls-8" d="M69.77,74c6.22.65,21.57,1.8,31.61,1.8,33.17,0,43.11-4.83,45.12-6C138.77,67,125.06,65,109,64.52,91.07,65.27,69.87,68.81,69.77,74Z"/><path class="cls-9" d="M49.49,66.83c0,1.47,1.43,2.86,4,4.12,7.83,3.85,26.34,6.53,47.91,6.53s40.05-2.72,47.91-6.53c2.59-1.26,4-2.65,4-4.12,0-5.88-23.24-10.68-51.93-10.68S49.49,61,49.49,66.83Zm3.64,0c0-6.5,34.53-8.95,48.25-8.95s48.25,2.45,48.25,8.95c0,5.92-34.54,8.51-48.25,8.51S53.13,72.72,53.13,66.83Z"/></g><path class="cls-10" d="M50.65,176.6a7.86,7.86,0,0,0,0,2.54c.27.48,27,17.23,55.76,8.76s32.33,4.08,34.13-14.05c1.69-17-.91-86.17-1.26-95a3.75,3.75,0,0,0-.49-1.72h0c-.7-1.24-2.18-1.21-3.61-1.15h-1.69l-1.69.85L126.56,128l-3.1,41.47Z"/></svg>