<svg id="Layer_54" data-name="Layer 54" xmlns="http://www.w3.org/2000/svg" viewBox="0 0 256 256"><defs><style>.cls-1{opacity:0.5;}.cls-2{fill:#fff;}.cls-18,.cls-27,.cls-3,.cls-6{fill:#ffc658;}.cls-3{stroke:#b9812c;}.cls-17,.cls-20,.cls-27,.cls-3,.cls-6,.cls-7,.cls-8{stroke-miterlimit:10;}.cls-20,.cls-3,.cls-8{stroke-width:2px;}.cls-4{fill:#e2a942;}.cls-5{fill:#531515;}.cls-6{stroke:#549141;}.cls-20,.cls-7{fill:#ee4a88;stroke:#be1e60;}.cls-8{fill:#e12a76;stroke:#901a4a;}.cls-9{fill:#c31d68;}.cls-10{fill:#c01e68;}.cls-11{fill:#a91f60;}.cls-12,.cls-17{fill:#f5b1a3;}.cls-13{fill:#cd7b6e;}.cls-14{fill:#db6c53;}.cls-15{fill:#f9c0b2;opacity:0.67;}.cls-16{fill:#361212;}.cls-17{stroke:#b67474;stroke-width:0.75px;}.cls-19{fill:#ffe4b6;}.cls-21{fill:#bea2b5;}.cls-22{fill:none;}.cls-23{fill:#e82860;}.cls-24{fill:#e7ca54;}.cls-25{fill:#a3c5e8;}.cls-26{fill:#c3def2;}.cls-27{stroke:#ffc658;stroke-width:0.5px;}</style></defs><path class="cls-1" d="M99.64,250c-5.47,0-9.75-2-12.74-6-1.89-2.53-7.15-4-14.42-4-2.75,0-5.16.19-6.75.33-.94.07-1.5.12-2,.12a6.05,6.05,0,0,1-2.11-11.78c7-2.69,12.72-8.14,16.84-16.19,1.3-6.61,2.56-16.9,4-28.75.78-6.35,1.58-12.88,2.48-19.57h-.1l1.2-7.75a7.11,7.11,0,0,1-2.65.53,6.35,6.35,0,0,1-3.13-.82,6.55,6.55,0,0,1-4.57-3.68,6.72,6.72,0,0,1-.57-2.16,6.85,6.85,0,0,1-.07-4.45c0-.07,0-.15,0-.22-.06-2.43,1.19-4.7,3.73-6.74,1.15-.93,3.32-2.81,3.7-3.18l.29-.26v-1l2-.81a2.5,2.5,0,0,1,.07-.26c.78-2.85,2.08-7.61,3.79-12.83.31-1,.62-1.9.92-2.79a13.53,13.53,0,0,1-2.78-7.63c-.25-5.08,1.63-9.71,3.82-14a9.55,9.55,0,0,1,.15-2.76c0-.12,0-.24-.05-.36a18.32,18.32,0,0,1-.2-3.35c.08-2.3.95-4.6,2.08-7.38l.42-1.05A12.91,12.91,0,0,1,93,76a22.87,22.87,0,0,1,2-5.28l.16-.33a13.54,13.54,0,0,1,2.5-9.28,16.33,16.33,0,0,1,5-4.25,27.29,27.29,0,0,1,.62-12.21A36.44,36.44,0,0,1,105.79,38c.08-.9.21-1.78.37-2.63a6.26,6.26,0,0,1-2.89-4.16l-.56-2.81a6.36,6.36,0,0,1,7.18-7.5l.1-1a6.32,6.32,0,0,1,10.31-4.29l.1.08.68-1.3a6.33,6.33,0,0,1,11.18-.09l.36.67A6.33,6.33,0,0,1,143,18.71l.4,2.28a6.23,6.23,0,0,1,1.3-.13,6.32,6.32,0,0,1,6.21,7.57l-.56,2.82a6.34,6.34,0,0,1-3.32,4.4q.12.59.21,1.2a8.7,8.7,0,0,1,.48,2.35c2.1,4.6,3.8,10.59,2.21,16.1a16.56,16.56,0,0,1,5.55,4.13,13.49,13.49,0,0,1,3,9.13l.18.31A23.34,23.34,0,0,1,161,74a12.94,12.94,0,0,1,.33,5.23l.48,1c1.29,2.7,2.29,5,2.5,7.25a17.93,17.93,0,0,1,0,3.35c0,.12,0,.24,0,.36a12.5,12.5,0,0,1,0,5.41v0c2.15,4.6,4.07,9.6,3.55,15a13.48,13.48,0,0,1-3,7.28l.43,1.4c1.59,5.25,2.8,10,3.52,12.89,0,.17.09.34.13.5l.45.35a7.34,7.34,0,0,1,.73.74,9.79,9.79,0,0,1,1,.84c.38.38,2.51,2.31,3.64,3.25,2.5,2.09,3.71,4.39,3.59,6.81a1.77,1.77,0,0,1,0,.23,6.9,6.9,0,0,1-.16,4.45,6.73,6.73,0,0,1-.58,2.08,6.59,6.59,0,0,1-4.68,3.65,6.33,6.33,0,0,1-3,.75,7,7,0,0,1-2.25-.38c4.08,17.27,9.61,42.18,11.82,53.82,5.49,5.69,12.54,9.59,16.86,12s8.16,4.51,7,9.4c-.32,1.36-1.57,4.45-6.22,4.92A7.79,7.79,0,0,1,189.4,242h0a20.76,20.76,0,0,1-7.09-1.64,5.1,5.1,0,0,0-1.78-.37c-1.44,0-2.89,1-5.14,2.6-2.88,2.05-6.46,4.61-11.43,4.61a16.65,16.65,0,0,1-8.56-2.57,5.46,5.46,0,0,0-2.92-.89c-1.94,0-4.33,1.15-6.86,2.37-3.48,1.68-7.44,3.59-12.17,3.59a17.67,17.67,0,0,1-8.54-2.25,8.74,8.74,0,0,0-4.27-.92,45,45,0,0,0-9.74,1.64A49.41,49.41,0,0,1,99.64,250Zm96.24-13.26"/><path class="cls-2" d="M94.64,245c-5.47,0-9.75-2-12.74-6-1.89-2.53-7.15-4-14.42-4-2.75,0-5.16.19-6.75.33-.94.07-1.5.12-2,.12a6.05,6.05,0,0,1-2.11-11.78c7-2.69,12.72-8.14,16.84-16.19,1.3-6.61,2.56-16.9,4-28.75.78-6.35,1.58-12.88,2.48-19.57h-.1l1.2-7.75a7.11,7.11,0,0,1-2.65.53,6.35,6.35,0,0,1-3.13-.82,6.55,6.55,0,0,1-4.57-3.68,6.72,6.72,0,0,1-.57-2.16,6.85,6.85,0,0,1-.07-4.45c0-.07,0-.15,0-.22-.06-2.43,1.19-4.7,3.73-6.74,1.15-.93,3.32-2.81,3.7-3.18l.29-.26v-1l2-.81a2.5,2.5,0,0,1,.07-.26c.78-2.85,2.08-7.61,3.79-12.83.31-1,.62-1.9.92-2.79a13.53,13.53,0,0,1-2.78-7.63c-.25-5.08,1.63-9.71,3.82-14a9.55,9.55,0,0,1,.15-2.76c0-.12,0-.24-.05-.36a18.32,18.32,0,0,1-.2-3.35c.08-2.3.95-4.6,2.08-7.38l.42-1.05A12.91,12.91,0,0,1,88,71a22.87,22.87,0,0,1,2-5.28l.16-.33a13.54,13.54,0,0,1,2.5-9.28,16.33,16.33,0,0,1,5-4.25,27.29,27.29,0,0,1,.62-12.21A36.44,36.44,0,0,1,100.79,33c.08-.9.21-1.78.37-2.63a6.26,6.26,0,0,1-2.89-4.16l-.56-2.81a6.36,6.36,0,0,1,7.18-7.5l.1-1a6.32,6.32,0,0,1,10.31-4.29l.1.08.68-1.3a6.33,6.33,0,0,1,11.18-.09l.36.67A6.33,6.33,0,0,1,138,13.71l.4,2.28a6.23,6.23,0,0,1,1.3-.13,6.32,6.32,0,0,1,6.21,7.57l-.56,2.82a6.34,6.34,0,0,1-3.32,4.4q.12.59.21,1.2a8.7,8.7,0,0,1,.48,2.35c2.1,4.6,3.8,10.59,2.21,16.1a16.56,16.56,0,0,1,5.55,4.13,13.49,13.49,0,0,1,3,9.13l.18.31A23.34,23.34,0,0,1,156,69a12.94,12.94,0,0,1,.33,5.23l.48,1c1.29,2.7,2.29,5,2.5,7.25a17.93,17.93,0,0,1,0,3.35c0,.12,0,.24,0,.36a12.5,12.5,0,0,1,0,5.41v0c2.15,4.6,4.07,9.6,3.55,15a13.48,13.48,0,0,1-3,7.28l.43,1.4c1.59,5.25,2.8,10,3.52,12.89,0,.17.09.34.13.5l.45.35a7.34,7.34,0,0,1,.73.74,9.79,9.79,0,0,1,1,.84c.38.38,2.51,2.31,3.64,3.25,2.5,2.09,3.71,4.39,3.59,6.81a1.77,1.77,0,0,1,0,.23,6.9,6.9,0,0,1-.16,4.45,6.73,6.73,0,0,1-.58,2.08,6.59,6.59,0,0,1-4.68,3.65,6.33,6.33,0,0,1-3,.75,7,7,0,0,1-2.25-.38c4.08,17.27,9.61,42.18,11.82,53.82,5.49,5.69,12.54,9.59,16.86,12s8.16,4.51,7,9.4c-.32,1.36-1.57,4.45-6.22,4.92A7.79,7.79,0,0,1,184.4,237h0a20.76,20.76,0,0,1-7.09-1.64,5.1,5.1,0,0,0-1.78-.37c-1.44,0-2.89,1-5.14,2.6-2.88,2.05-6.46,4.61-11.43,4.61a16.65,16.65,0,0,1-8.56-2.57,5.46,5.46,0,0,0-2.92-.89c-1.94,0-4.33,1.15-6.86,2.37-3.48,1.68-7.44,3.59-12.17,3.59a17.67,17.67,0,0,1-8.54-2.25,8.74,8.74,0,0,0-4.27-.92,45,45,0,0,0-9.74,1.64A49.41,49.41,0,0,1,94.64,245Zm96.24-13.26"/><path class="cls-3" d="M83.77,197.72c-1,1.07-5.09,24-25,31.58-2.85,1.09,20.53-3.83,28,6.09s24.57-4.49,36.09,1.8,19.24-9.51,30.68-2.7,14.43-9,25.94-4.74,3.52-3.74,11.73-4.06-24-8.34-29.82-31.24S83.77,197.72,83.77,197.72Z"/><path class="cls-4" d="M120.93,217.64c.49-1.78,1.84-3.62,3.68-3.58a5.23,5.23,0,0,1,3,1.49,83.58,83.58,0,0,1,9,8.53c2.16,2.36,4.4,5,7.52,5.72l-.6-11.08a2.29,2.29,0,0,1,.22-1.37,2,2,0,0,1,1.22-.72c4.4-1.23,9,.92,12.9,3.31s7.87,5.19,12.44,5.41a2.14,2.14,0,0,0,1.83-.55c.69-.86-.11-2.09-.88-2.88q-4.87-5-10-9.83c4.9-.3,8.58,5.88,13.44,5.19-.56-1.57-2-2.65-3.35-3.62l-15.1-10.84a21.87,21.87,0,0,0-6.22-3.5,19.84,19.84,0,0,0-7.13-.43c-6.94.49-13.81,1.67-20.66,2.83-7.87,1.34-9,6.92-7.82,14.11a36.49,36.49,0,0,0,1.85,6.2c1.13,3.24,1.52,6.78,2.9,9.9C122.23,228.1,119.72,222.07,120.93,217.64Z"/><path class="cls-4" d="M115.26,214.3a2.11,2.11,0,0,0-1.88.51c-7,4.83-9.87,14.26-17.17,18.61.92-3.74,2.83-7.14,4.32-10.69s2.58-7.47,1.73-11.22C93.1,212.51,88,223.24,79.19,226a19.38,19.38,0,0,0,7.93-13.87c.24-2.85-.14-5.79.69-8.53a13.83,13.83,0,0,1,3.78-5.77c3.44-3.33,8.93-5.48,13-2.93,3.77,2.38,4.44,7.51,4.7,12a2.65,2.65,0,0,0,.68,2c.52.43,1.27.39,1.89.65a2.52,2.52,0,0,1,1.4,2.72,3.53,3.53,0,0,1-2,2.5"/><path class="cls-5" d="M139,49.28s-.63,3.66.33,4.77,4.39,1.63,6.61,4.25,1.37,5.71,1.69,6.77,2,3.26,2.59,5.54-.18,3.45.14,4.79,2.78,5.41,3,7.68-.34,2.94.14,4.7-.53,6.11-3.06,8.87-14.87,9-24.18,4-3.38-51.28-3.38-51.28-1.37-24.92-1.14-24.92,8.62,5.94,8.62,5.94l4.61,1.91S141.55,42.31,139,49.28Z"/><path class="cls-5" d="M104,41.26a21.1,21.1,0,0,0-.31,10.41c.32,1.41.5,2.86.09,3.39-.89,1.17-4.29,1.88-6.35,4.63s-1,5.77-1.31,6.85-1.78,3.37-2.27,5.68S94.2,75.65,94,77s-2.47,5.55-2.55,7.84.51,2.9.14,4.7.87,6.07,3.55,8.68,15.36,8.17,24.38,2.64.45-51.39.45-51.39-.06-24.95-.29-24.95-9.49,3.12-9.49,3.12l-1.44,4.14S105.78,34.9,104,41.26Z"/><path class="cls-6" d="M109.21,71.28a6.36,6.36,0,0,0-5.64,2.91c-2,3.23-7.83,26-9.09,29.14s-2.61,6-5.21,14-4.21,14.7-4.6,15.65l-.4,1,3.48,1.17s4.42-10.65,6.18-13.55a78.54,78.54,0,0,0,6.1-14,59,59,0,0,1,2.78-8.17c1.76-4.71,6.38-17.25,7.18-22.6S109.21,71.28,109.21,71.28Z"/><path class="cls-7" d="M104.58,69.78a16.25,16.25,0,0,0-6.72,7.06c-2.53,5.06-5,13.13-6.59,16.22s-3.78,7.43-3.57,11.73,3.7,7.51,9.39,7.79,10.1-1.7,10.68-8.73a204.07,204.07,0,0,1,3.07-20.44c.85-4.1,2-7.9,1.44-8.8S104.58,69.78,104.58,69.78Z"/><path class="cls-6" d="M135.53,70.63a6.35,6.35,0,0,1,5.58,3c1.95,3.28,7.31,26.12,8.5,29.32s2.49,6.1,4.93,14.13,3.91,14.78,4.28,15.75l.38,1-3.5,1.1s-4.21-10.74-5.9-13.68A76.79,76.79,0,0,1,144,107.11a59.16,59.16,0,0,0-2.62-8.22c-1.66-4.75-6-17.38-6.72-22.75S135.53,70.63,135.53,70.63Z"/><path class="cls-7" d="M141.64,70.34A16.29,16.29,0,0,1,148,77.71c2.28,5.17,4.33,13.35,5.81,16.51s3.43,7.6,3,11.89-4,7.33-9.75,7.33-10-2.17-10.25-9.22a202.81,202.81,0,0,0-2.11-20.56c-.65-4.14-1.63-8-1-8.86S141.64,70.34,141.64,70.34Z"/><path class="cls-8" d="M95.82,129.45s-6.89,8.08-9.57,27.67c-2.85,20.86-4.87,41.44-7.06,52.19-1.11,5.41-4.1,7.52-4.1,8.58,0,3.56,11.94-5.64,12.08-4.5s-1.68,8.92,3.59,8.92S101.85,216,105.84,216s5.31,5.42,10.63,6.13,9.17-6.13,12.59-6.27,14.5,6.39,17.87,5.14,3.16-6.82,5.68-6.26,15.33,4.46,16.42,4.68c14.21,2.94-1.6-6.69.35-7.12,1-.22-15-71.67-17.52-78.5s-21.16-22.23-32.92-21.38S95.82,129.45,95.82,129.45Z"/><path class="cls-9" d="M132.84,131.5s2.35,20.63,3.52,31.63,4.28,42.74,5,42.74-3.36-50.25-4.27-59.41-1.18-15-1.18-15Z"/><path class="cls-9" d="M108,134.11s-2.73,20.63-4.1,31.63-5,42.75-5.85,42.75,3.92-50.26,5-59.42,1.37-15,1.37-15Z"/><path class="cls-9" d="M124.72,123.06s.34,25.31-1,36.32-.25,54.13-1.13,54.13-3.76-66.4-2.7-75.56,1.26-14.89,1.26-14.89Z"/><path class="cls-9" d="M144.59,135.78c.11.32,6.94,35.37,7,33.87s-4.59-33.87-4.59-33.87Z"/><path class="cls-10" d="M114.24,73.13s-4.62,2.06-4.77,2.94-.11,5.34-.57,6.29a12.71,12.71,0,0,0-1,6.14c.33,2.35,3.53,4.37,3.63,5a53.53,53.53,0,0,1,1.08,9.59c-.09,3.76-2,10.62-2,10.62s2.51,2.68,10.15,2,12.41-3.47,12.69-3.94-2.34-3-2-8.57a45.2,45.2,0,0,1,1.81-10.15c.27-1,3.15-1.35,3.83-5,.54-2.86-.21-7.47-.09-8,.68-3.23.09-7.42-.7-7.93s-6.29-2.28-6.81-2.14-4.08,4.7-4.08,4.7l-6.65,2.43Z"/><path class="cls-11" d="M112.41,92.84a10.14,10.14,0,0,0,3.68.08,28,28,0,0,1,6-.08c.62.07,3.49,1.34,6.77.9s5-2,4.29-2-10.07,1-12,.67S108.65,90.9,112.41,92.84Z"/><path class="cls-12" d="M125.72,67.7c-.64-1.56.18-6.25.18-6.25l-3.52,1.09-3.13-1.94s-.39,4.74-1.4,6.09a39.71,39.71,0,0,1-4,4,13.06,13.06,0,0,1,2.84,3.69c1.4,2.55,3.22,7,3.22,7a36.51,36.51,0,0,1,3.87-5.23c2-2.11,5.87-5.74,5.87-5.74S126.35,69.26,125.72,67.7Z"/><path class="cls-13" d="M122.46,62l-3.27-.72-.42.34a4.44,4.44,0,0,0,3.35,3h0a3.55,3.55,0,0,0,3.58-1.92l.17-1.19Z"/><path class="cls-12" d="M134,45.3s.81-1.49,2-1.5,1.38,2.43.27,4.7c-1.23,2.5-2.59,2.7-2.8,1.78A28,28,0,0,1,134,45.3Z"/><path class="cls-13" d="M134.62,46.71s.8-2.27,1.45-2.21.65,2,.27,3a6.61,6.61,0,0,1-.58,1.32,14.22,14.22,0,0,0,.58-2.33c.07-.76-.26-1.61-.62-1.17a1.93,1.93,0,0,0-.39,1.2,9.48,9.48,0,0,1-.06,2.2c-.17.7-1,.66-1.09-.2A3.22,3.22,0,0,1,134.62,46.71Z"/><path class="cls-12" d="M119.62,28.6c-13.67,1.19-12.52,12.49-11.08,19s3.58,9.23,7,12.19a14.89,14.89,0,0,0,5.87,3.12,3.72,3.72,0,0,0,2.44-.16,13,13,0,0,0,4.94-3.81c2.87-3.52,4.75-6.9,5-13.56S133.29,27.4,119.62,28.6Z"/><path class="cls-12" d="M108.27,46.69s-1.06-1.33-2.25-1.12-.94,2.63.55,4.67c1.64,2.25,3,2.21,3.06,1.26A27.59,27.59,0,0,0,108.27,46.69Z"/><path class="cls-13" d="M107.88,48.19s-1.18-2.09-1.81-1.93-.29,2.09.26,3.05a7,7,0,0,0,.81,1.2,14.36,14.36,0,0,1-1-2.19c-.2-.75,0-1.63.41-1.27a1.93,1.93,0,0,1,.59,1.12,9,9,0,0,0,.45,2.15c.29.66,1.05.49,1-.38A3.32,3.32,0,0,0,107.88,48.19Z"/><path class="cls-14" d="M122.65,53.36a4.06,4.06,0,0,1-1,.4,3.86,3.86,0,0,1-1-.23c-.37-.17-.65-.1-.59.21s.66.31.83.47a1.46,1.46,0,0,0,.83.41,1.43,1.43,0,0,0,.74-.55c.14-.19.74-.28.74-.6S123,53.13,122.65,53.36Z"/><path class="cls-15" d="M120.92,53.45a1.67,1.67,0,0,0,.85.09c.46-.07.8-.3.67-.43S120.47,53,120.92,53.45Z"/><path class="cls-5" d="M124.27,42a26.64,26.64,0,0,1,4.36-1.37c1,0,2.67,1,2.85,1a3.65,3.65,0,0,0-3-2c-1.94,0-4.43,1.08-4.52,1.41S123.78,42.15,124.27,42Z"/><path class="cls-5" d="M117.33,42.57a26.32,26.32,0,0,0-4.54-.59c-1,.13-2.46,1.42-2.64,1.44a3.63,3.63,0,0,1,2.63-2.54c1.9-.39,4.55.28,4.7.59S117.84,42.67,117.33,42.57Z"/><path class="cls-2" d="M111.56,47.06a5.24,5.24,0,0,0,.28,1.58,3.29,3.29,0,0,0,3,1.35,4,4,0,0,0,2.28-.66c.27-.21.6-.43.63-.85s-.37-3.39-3.08-3.65S111.33,46.33,111.56,47.06Z"/><path class="cls-5" d="M112.55,47.27a2,2,0,1,1,2.19,1.84A2,2,0,0,1,112.55,47.27Z"/><path class="cls-14" d="M117.15,49.36s0,0,0,0a4.29,4.29,0,0,1-2.95.43,3.35,3.35,0,0,1-2.42-1.36,0,0,0,0,0,0,0c.07.36.44,1.37,2.42,1.69S116.92,49.64,117.15,49.36Z"/><path class="cls-2" d="M115.08,46.54a.48.48,0,1,1,1-.08.48.48,0,1,1-1,.08Z"/><path class="cls-16" d="M117.55,47.34a3.14,3.14,0,0,0-2.73-2c-2.29-.3-3.11,1.1-3.18,1.35a2,2,0,0,0-.09.36,5.57,5.57,0,0,1-.93-.65c-.33-.3-.33-.38-.33-.38s.77-1.89,4-1.79A3.46,3.46,0,0,1,117.55,47.34Z"/><path class="cls-2" d="M130.65,45.39a5.5,5.5,0,0,1,0,1.6,3.31,3.31,0,0,1-2.73,1.86,3.91,3.91,0,0,1-2.36-.26c-.31-.16-.67-.32-.77-.73s-.22-3.4,2.39-4.13S130.74,44.63,130.65,45.39Z"/><path class="cls-5" d="M129.71,45.76A2,2,0,1,0,127.87,48,2,2,0,0,0,129.71,45.76Z"/><path class="cls-14" d="M125.54,48.62s0,0,0,0a4.21,4.21,0,0,0,3-.09,3.3,3.3,0,0,0,2.15-1.76,0,0,0,0,1,0,0c0,.36-.19,1.42-2.09,2.08S125.82,48.86,125.54,48.62Z"/><path class="cls-2" d="M129.28,45.3a.47.47,0,0,0-.52-.43.48.48,0,1,0,.09,1A.47.47,0,0,0,129.28,45.3Z"/><path class="cls-16" d="M124.79,46.7a3.16,3.16,0,0,1,2.35-2.42c2.2-.7,3.26.54,3.37.77a2.11,2.11,0,0,1,.14.35,5.69,5.69,0,0,0,.81-.81c.27-.35.26-.43.26-.43s-1.09-1.73-4.3-1.06A3.46,3.46,0,0,0,124.79,46.7Z"/><path class="cls-17" d="M155.47,134.48l-.08.2a6.3,6.3,0,0,0-.31,2.52c.18,1.13.58,2.41.79,3.46s.44,2.71.6,3.09.62.43,1-.1a4.43,4.43,0,0,0,0-2.37c-.1-.47-.24-1.42.18-1.4s2.06,1.74,2.64,2.34a33.91,33.91,0,0,0,3.27,3c.8.6,1.44.92,1.7.54s-.23-1-.7-1.45a26.51,26.51,0,0,1-3.1-3c0-.28,4.2,3.61,4.78,3.94s1.54-.15.57-1.29-4.07-4.06-4-4.24,3.65,3.31,4.14,3.67,1-.07.55-.95-3.72-3.67-3.8-4,.73.3,1.49,1,1.78,1.57,2.12,1.33-.18-1.1-1.37-2.1-3.47-3-4-3.61a23.59,23.59,0,0,0-3.14-2.13l-.17-.25c-.32-.5-.9-.23-1.47.05l-.63.3C155.81,133.19,155.22,133.62,155.47,134.48Z"/><path class="cls-17" d="M88,134.71l.07.2a6.2,6.2,0,0,1,.26,2.53c-.2,1.13-.62,2.4-.85,3.45s-.5,2.7-.67,3.07-.63.42-1-.11a4.36,4.36,0,0,1,.06-2.38c.12-.47.27-1.41-.15-1.4s-2.1,1.7-2.69,2.28a34.51,34.51,0,0,1-3.32,2.92c-.82.59-1.46.89-1.71.51s.25-1,.72-1.44a25.89,25.89,0,0,0,3.16-3c0-.28-4.27,3.53-4.85,3.85s-1.54-.18-.55-1.31,4.15-4,4.1-4.16-3.72,3.24-4.21,3.59-1-.09-.54-.95,3.79-3.6,3.88-4-.73.29-1.5.94-1.81,1.53-2.15,1.29.2-1.1,1.41-2.07,3.53-3,4.1-3.53A22.26,22.26,0,0,1,84.8,133l.17-.25c.33-.49.9-.21,1.47.08l.62.31C87.68,133.42,88.25,133.85,88,134.71Z"/><path class="cls-18" d="M104.12,70.23s1,11.3,17.26,12S141.56,71,141.64,70.34s-.13-1-2.34-1.11-5-1.43-5.46-1.48a12.5,12.5,0,0,0-2.93-.21,24.87,24.87,0,0,0-3.24.38,6,6,0,0,1-2-.22A4.63,4.63,0,0,1,121,70.23c-3.6-.16-3.37-2.17-3.68-2.94s-1.65-.45-2.39-.22a5.91,5.91,0,0,1-2.87.58,28.82,28.82,0,0,0-3.63.11,10.26,10.26,0,0,0-2.83.72l-1.57.19Z"/><path class="cls-19" d="M105.64,68.48S106.87,79.46,121,81s19.28-11.7,19.28-11.7l-.94-.09a17.76,17.76,0,0,1-17.52,11.26c-13.59-.36-15.21-12.34-15.21-12.34Z"/><path class="cls-19" d="M112.1,67.65s1.65,5.8,9.48,6,8.72-6.05,8.72-6.05l-.69.05s-.58,5.7-8.26,5.48c-6.82-.2-8.58-5.5-8.58-5.5Z"/><path class="cls-20" d="M131.39,106.34s10.84,5.06,14.7,11.88,8.54,23.87,9.67,30.95c.07.43-15.66,1.52-25.3-9.42-8.35-9.47-4.36-16.07-4.36-16.07s-6,16.27-17.07,21.26S87,152.31,87.6,151s4.39-38.59,24.81-45.11A76.89,76.89,0,0,0,131.39,106.34Z"/><path class="cls-6" d="M154.82,132.7l.21.5.3,1.31-.32,1.1a21.18,21.18,0,0,1,3.72,1,22.79,22.79,0,0,1,3,2.08,21.66,21.66,0,0,1-1-3.16,8.85,8.85,0,0,0-.2-1.88,12.36,12.36,0,0,1-2-1.82"/><path class="cls-6" d="M88.46,133.46a5.42,5.42,0,0,0-.25,1.37,5.94,5.94,0,0,0,.09,1.11,6.89,6.89,0,0,0-2.87.52,23.17,23.17,0,0,0-4.14,2.43,20,20,0,0,0,2.19-3.8,6.56,6.56,0,0,0,.29-1.71A2.58,2.58,0,0,0,85,131.91"/><path class="cls-21" d="M138.26,80.31s2.47,16.8,2.36,19.74-1.12,5.06.25,8.87,6.23,4,6.23,4-4-4.11-4.18-7.86a88,88,0,0,0-2.07-14.6C139.69,85.59,138.26,80.31,138.26,80.31Z"/><path class="cls-21" d="M141.12,75.66s5,18,5.54,22.24-.28,6.58.68,10.3,2.74,4.41,2.74,4.41,2.5-2.25.2-10S141.12,75.66,141.12,75.66Z"/><path class="cls-21" d="M104.31,74.94s-5,18-5.55,22.24.29,6.58-.67,10.3-2.75,4.41-2.75,4.41-2.5-2.25-.2-10S104.31,74.94,104.31,74.94Z"/><path class="cls-21" d="M144.33,73.81s4.3,6.56,5.72,13.3,5.53,12,6,17.9-3.41,6.65-3.41,6.65,2.68-1.71.81-9.46-3.52-12.86-4.83-17.93A53.73,53.73,0,0,0,144.33,73.81Z"/><path class="cls-21" d="M108.53,80.51s-3.88,16.53-4,19.48.7,5.13-1,8.81a5.9,5.9,0,0,1-5.72,3.3s3.53-3.57,4-7.3a87.15,87.15,0,0,1,3.28-14.37C106.66,85.66,108.53,80.51,108.53,80.51Z"/><path class="cls-21" d="M103,73.53S98.19,79.7,96.21,86.3s-6.52,11.52-7.45,17.33,3,7,3,7-2.73-2-.22-9.57,4.59-12.51,6.32-17.46A53.35,53.35,0,0,1,103,73.53Z"/><path class="cls-22" d="M84.54,208a3.78,3.78,0,0,0-1.87.8"/><path class="cls-18" d="M131.39,106.34s-7,43.15-44,43.24l-.69,4.51s36.84,4.55,44.71-47.75Z"/><path class="cls-18" d="M124.69,127.91s5.57,21.57,30.83,20.81l1,5.52s-24.31,2.17-32.23-24Z"/><path class="cls-5" d="M120.54,31.19a17.29,17.29,0,0,0-12,16.41s-7.37-22,7-25.74c17.48-4.58,21.67,7.63,20.91,15.71a19.42,19.42,0,0,1-2.39,7.81S137,36,120.54,31.19Z"/><path class="cls-23" d="M117.15,55a37.12,37.12,0,0,0,4.06,1.35l.14.15a.48.48,0,0,0,.7,0l.06-.05a1,1,0,0,1,.39-.24l3.9-1.47s-2.26,1.58-3.16,2a3.15,3.15,0,0,1-2.44.27A9.73,9.73,0,0,1,117.15,55Z"/><path class="cls-23" d="M120.11,57.45c-.14-.17,1.19,1.85,2.27,1a7.2,7.2,0,0,0,1.23-1C123.47,57.45,121.45,59,120.11,57.45Z"/><path class="cls-24" d="M136.74,34.75a3.15,3.15,0,0,1,0,.44c-.25-1.54-1.8-2.93-4.19-4L132,31a22.71,22.71,0,0,0-3.89-1.11l-.65-.13c-.52-.09-1.06-.17-1.61-.24-.73-.08-1.48-.15-2.24-.19s-1.27-.05-1.92-.05l-1.31,0c-.81,0-1.6.09-2.36.17l-1.32.16-.54.09a25.15,25.15,0,0,0-4.44,1.15l-.6.24a8.56,8.56,0,0,0-4,2.86c.38-1.3,1.68-2.49,3.62-3.42l.59-.27a21.48,21.48,0,0,1,4.78-1.38l.54-.1.38-.06.84-.11c.83-.1,1.67-.17,2.55-.2l.77,0h1.52c.28,0,.57,0,.84,0,.88,0,1.73.11,2.54.22l.77.1.53.09L128,29a21.36,21.36,0,0,1,4.54,1.37l.5.23C135.35,31.67,136.74,33.14,136.74,34.75Z"/><path class="cls-24" d="M125.57,20c-1.76-.17-3.4,1.85-3.67,4.52v0a7.64,7.64,0,0,0,0,1.59,5.37,5.37,0,0,0,.79,2.27,3.23,3.23,0,0,0,.88.92c.76,0,1.51.11,2.24.19a3.06,3.06,0,0,0,1-.76,4.76,4.76,0,0,0,.61-.81,6.51,6.51,0,0,0,.81-2.37c0-.13,0-.26.05-.4C128.58,22.49,127.35,20.17,125.57,20Zm.52,8.65a2,2,0,0,1-1.32.38,2.05,2.05,0,0,1-1.22-.6,4.38,4.38,0,0,1-1-3.43c.2-2.09,1.51-3.67,2.93-3.54s2.41,1.95,2.21,4A4.3,4.3,0,0,1,126.09,28.65Z"/><path class="cls-24" d="M132.4,23.19c-1.41-.5-3.1.53-4.12,2.38a7.14,7.14,0,0,0-.81,2.37,5.67,5.67,0,0,0-.08.9,5.38,5.38,0,0,0,0,.91l.65.13A4.59,4.59,0,0,1,128,29a5.48,5.48,0,0,1,.3-1.64c.68-2,2.32-3.2,3.67-2.72s1.88,2.47,1.21,4.45a6.12,6.12,0,0,1-.64,1.28A4.14,4.14,0,0,1,132,31l.54.23a7,7,0,0,0,.52-.67,7.11,7.11,0,0,0,.83-1.68C134.74,26.33,134.09,23.78,132.4,23.19Z"/><path class="cls-24" d="M116.68,29.62a5.91,5.91,0,0,0,0-.83,5.13,5.13,0,0,0-.1-.65,7.92,7.92,0,0,0-.28-1,7.18,7.18,0,0,0-.72-1.47h0c-1-1.62-2.63-2.48-4-2-1.67.62-2.3,3.17-1.4,5.7a7.07,7.07,0,0,0,.54,1.18,4.83,4.83,0,0,0,.36.56l.6-.24a5.61,5.61,0,0,1-.72-1.37c-.71-2-.19-4,1.15-4.46s3,.71,3.7,2.68a5.76,5.76,0,0,1,.28,1.18,4.53,4.53,0,0,1,0,.82Z"/><path class="cls-24" d="M117.87,28.62a2,2,0,0,0,1.45.38,2,2,0,0,0,1.1-.58C119.54,28.45,118.7,28.52,117.87,28.62Zm4-4.1a.49.49,0,0,0,0-.12c-.38-2.67-2.11-4.63-3.88-4.37s-2.89,2.63-2.52,5.29l.06.34h0a6.55,6.55,0,0,0,1,2.47,4.1,4.1,0,0,0,.48.59,3.44,3.44,0,0,0,1,.73l2.36-.17a3.14,3.14,0,0,0,.83-.9,5.34,5.34,0,0,0,.73-2.26A6.7,6.7,0,0,0,121.9,24.52Zm-1.48,3.9c-.88,0-1.72.1-2.55.2a4.41,4.41,0,0,1-1.64-3c-.29-2.08.62-3.93,2-4.14s2.79,1.32,3.08,3.39A4.27,4.27,0,0,1,120.42,28.42Z"/><path class="cls-24" d="M121.58,17.31l-1.52-2.16a.34.34,0,0,1,0-.35l1.36-2.61a.33.33,0,0,1,.58,0l1.37,2.52a.36.36,0,0,1,0,.32l-1.21,2.26A.32.32,0,0,1,121.58,17.31Z"/><ellipse class="cls-25" cx="121.69" cy="14.86" rx="0.86" ry="1.38"/><ellipse class="cls-26" cx="121.69" cy="14.45" rx="0.61" ry="0.98"/><ellipse class="cls-24" cx="121.86" cy="20.99" rx="0.17" ry="4.59"/><path class="cls-24" d="M130.08,19.46l-.75-2.55a.32.32,0,0,1,.09-.34l2.11-2a.33.33,0,0,1,.56.19l.49,2.83a.34.34,0,0,1-.1.3l-1.86,1.75A.33.33,0,0,1,130.08,19.46Z"/><ellipse class="cls-25" cx="130.96" cy="17.16" rx="1.38" ry="0.86" transform="translate(73.75 136.21) rotate(-71.8)"/><ellipse class="cls-26" cx="131.09" cy="16.78" rx="0.97" ry="0.61" transform="translate(74.21 136.07) rotate(-71.8)"/><ellipse class="cls-24" cx="129.18" cy="23.03" rx="4.58" ry="0.17" transform="translate(66.28 138.19) rotate(-71.47)"/><path class="cls-24" d="M136.46,25.92l.21-2.65a.31.31,0,0,1,.21-.28l2.7-1.11a.34.34,0,0,1,.45.38l-.56,2.82a.34.34,0,0,1-.21.24l-2.35.94A.33.33,0,0,1,136.46,25.92Z"/><ellipse class="cls-25" cx="138.1" cy="24.11" rx="1.37" ry="0.86" transform="translate(32.09 115.84) rotate(-50.77)"/><ellipse class="cls-26" cx="138.36" cy="23.8" rx="0.97" ry="0.61" transform="translate(32.42 115.93) rotate(-50.77)"/><path class="cls-24" d="M134.46,29c-1.61,1.94-1.8,1.78-1.87,1.72s0,0,1.61-1.94a30.94,30.94,0,0,1,3.05-3.39A31.06,31.06,0,0,1,134.46,29Z"/><path class="cls-24" d="M107.16,25.89,107,23.24a.31.31,0,0,0-.21-.28L104,21.85a.34.34,0,0,0-.45.38l.57,2.82a.31.31,0,0,0,.2.24l2.35.94A.33.33,0,0,0,107.16,25.89Z"/><ellipse class="cls-25" cx="105.52" cy="24.08" rx="0.86" ry="1.37" transform="translate(8.55 72.16) rotate(-39.23)"/><ellipse class="cls-26" cx="105.26" cy="23.77" rx="0.61" ry="0.97" transform="translate(8.69 71.93) rotate(-39.23)"/><path class="cls-24" d="M109.16,29c1.61,1.94,1.8,1.78,1.87,1.72s0,0-1.61-1.94a30.94,30.94,0,0,0-3-3.39A31.06,31.06,0,0,0,109.16,29Z"/><path class="cls-24" d="M113,20.17l-2.21-1.41a.32.32,0,0,1-.15-.32L111,15.5a.33.33,0,0,1,.54-.23l2.2,1.8a.35.35,0,0,1,.12.3l-.27,2.55A.33.33,0,0,1,113,20.17Z"/><ellipse class="cls-25" cx="112.22" cy="17.86" rx="0.86" ry="1.38" transform="translate(1.3 42.54) rotate(-21.59)"/><ellipse class="cls-26" cx="112.08" cy="17.48" rx="0.61" ry="0.97" transform="translate(1.43 42.46) rotate(-21.59)"/><ellipse class="cls-24" cx="114.68" cy="23.47" rx="0.17" ry="4.58" transform="translate(-0.45 44.61) rotate(-21.97)"/><circle class="cls-18" cx="134.16" cy="53.3" r="0.88"/><circle class="cls-18" cx="108.71" cy="54.24" r="0.86"/><line class="cls-27" x1="134.15" y1="50.18" x2="134.15" y2="52.72"/><line class="cls-27" x1="108.53" y1="51.45" x2="108.71" y2="55.1"/></svg>