<svg id="Layer_54" data-name="Layer 54" xmlns="http://www.w3.org/2000/svg" xmlns:xlink="http://www.w3.org/1999/xlink" viewBox="0 0 256 256"><defs><style>.cls-1{fill:none;stroke:#935d07;}.cls-1,.cls-14{stroke-miterlimit:10;}.cls-2{opacity:0.5;}.cls-3{fill:#fff;}.cls-4{clip-path:url(#clip-path);}.cls-5{fill:#ceb500;}.cls-6{fill:#d87400;}.cls-7{fill:#ffcf4b;}.cls-8{fill:#f5ab35;}.cls-9{fill:#f9bf3b;}.cls-10{fill:#e5a007;}.cls-11{fill:#af7500;}.cls-12{fill:#f39c12;}.cls-13{fill:#232323;opacity:0.3;isolation:isolate;}.cls-14,.cls-18{fill:#006c11;}.cls-14{stroke:#005e0b;}.cls-15{fill:#009c41;}.cls-16{fill:#0eac51;}.cls-17{fill:#008c31;}.cls-19{fill:#007c21;}.cls-20{fill:#006601;}.cls-21{fill:#006301;}.cls-22{fill:#005c01;}</style><clipPath id="clip-path"><path class="cls-1" d="M175.45,178.33c0,44-22.62,58.86-50.51,58.86s-50.5-14.87-50.5-58.86,22.62-70,50.5-70S175.45,134.32,175.45,178.33Z"/></clipPath></defs><path class="cls-2" d="M129.94,248.16c-17.26,0-30.86-5-40.42-14.92-11.55-12-17-30.87-16.08-56.21.7-20,7.28-38.24,18-51.19a6,6,0,0,1,.83-7.16l0-.06A35.5,35.5,0,0,1,95,115.76a6,6,0,0,1,1.41-9.61l.75-.47A16.56,16.56,0,0,0,92.2,105a26.38,26.38,0,0,0-4.94.53,11.58,11.58,0,0,1-2.19.27,6.58,6.58,0,0,1-1.77-.25,6,6,0,0,1-.17-11.47l.32-.16A41.86,41.86,0,0,1,90,91.22l0,0a74.9,74.9,0,0,0-20.37-7.31c-.67-.15-1-.23-1.44-.35a6,6,0,0,1,1.79-11.73h0l.66-.07a80.56,80.56,0,0,1,8.74-.5c2,0,4.07.09,6.08.25-.64-.35-1.28-.7-1.92-1l-.16-.09A75.23,75.23,0,0,0,63,63.09c-.69-.15-1.07-.23-1.46-.35A6,6,0,0,1,63.29,51l.69-.07a78.06,78.06,0,0,1,8.75-.5h.2a6,6,0,0,1,5.31-8.78h.26l.43,0c.76,0,2-.1,3.63-.1h.83a6,6,0,0,1,6-5.67,5.78,5.78,0,0,1,1.1.11l.91.07a84.92,84.92,0,0,1,19.94,3.62c-.4-11.69-.26-20.49-.25-20.94A6,6,0,0,1,116,13a5.48,5.48,0,0,1,1.13-.11,6,6,0,0,1,5.54,3.69c.09.23,1.24,3,2.93,7.36a6,6,0,0,1,4.1-1.62h.3A6,6,0,0,1,134,24.17c.49-1.15.79-1.83.83-1.93a6,6,0,0,1,5.5-3.61,5.71,5.71,0,0,1,1.23.13,6,6,0,0,1,4.77,5.87c0,.29,0,5.23-.25,12.59,1.29-.48,2.59-.9,3.87-1.25a59.07,59.07,0,0,1,17.8-2.62c2.44,0,4.35.13,5.49.21l.56,0h.2a6,6,0,0,1,5.06,9.22,6,6,0,0,1,4.31,2.66,73.07,73.07,0,0,1,9.39-.6c1.67,0,3,.06,3.88.09l.64,0,.4,0a6,6,0,0,1,2.15,11.6c-.19.08-.66.23-1.37.43a74.7,74.7,0,0,0-19.87,8.68l-.3.18a49,49,0,0,1,14.49,3.67l.56.22A6,6,0,0,1,194,81.34a6.75,6.75,0,0,1-2.1.31c-.51,0-1.05,0-1.74-.1-1-.09-2.41-.21-4.1-.21a28.45,28.45,0,0,0-13.91,3.39l-.2.1c-.83.42-1.66.86-2.5,1.34a32.26,32.26,0,0,1,9,4.59l.2.15a6,6,0,0,1-.83,11.16,6.35,6.35,0,0,1-1.79.26,8.76,8.76,0,0,1-3.06-.65,15.36,15.36,0,0,0-5.24-1.08,10.21,10.21,0,0,0-4.08.84,6,6,0,0,1-1.48,9.9,20.73,20.73,0,0,1,4.13,6.51,6,6,0,0,1,.16,5.3c12.21,13.09,19.63,32.46,20.13,53.95.61,26.23-4.68,44.7-16.17,56.47-9.44,9.67-23,14.58-40.38,14.59Zm34.95-132"/><path class="cls-3" d="M124.94,243.16c-17.26,0-30.86-5-40.42-14.92-11.55-12-17-30.87-16.08-56.21.7-20,7.28-38.24,18-51.19a6,6,0,0,1,.83-7.16l0-.06A35.5,35.5,0,0,1,90,110.76a6,6,0,0,1,1.41-9.61l.75-.47A16.56,16.56,0,0,0,87.2,100a26.38,26.38,0,0,0-4.94.53,11.58,11.58,0,0,1-2.19.27,6.58,6.58,0,0,1-1.77-.25,6,6,0,0,1-.17-11.47l.32-.16A41.86,41.86,0,0,1,85,86.22l0,0a74.9,74.9,0,0,0-20.37-7.31c-.67-.15-1-.23-1.44-.35a6,6,0,0,1,1.79-11.73h0l.66-.07a80.56,80.56,0,0,1,8.74-.5c2,0,4.07.09,6.08.25-.64-.35-1.28-.7-1.92-1l-.16-.09A75.23,75.23,0,0,0,58,58.09c-.69-.15-1.07-.23-1.46-.35A6,6,0,0,1,58.29,46l.69-.07a78.06,78.06,0,0,1,8.75-.5h.2a6,6,0,0,1,5.31-8.78h.26l.43,0c.76,0,2-.1,3.63-.1h.83a6,6,0,0,1,6-5.67,5.78,5.78,0,0,1,1.1.11l.91.07a84.92,84.92,0,0,1,19.94,3.62c-.4-11.69-.26-20.49-.25-20.94A6,6,0,0,1,111,8a5.48,5.48,0,0,1,1.13-.11,6,6,0,0,1,5.54,3.69c.09.23,1.24,3,2.93,7.36a6,6,0,0,1,4.1-1.62h.3A6,6,0,0,1,129,19.17c.49-1.15.79-1.83.83-1.93a6,6,0,0,1,5.5-3.61,5.71,5.71,0,0,1,1.23.13,6,6,0,0,1,4.77,5.87c0,.29,0,5.23-.25,12.59,1.29-.48,2.59-.9,3.87-1.25a59.07,59.07,0,0,1,17.8-2.62c2.44,0,4.35.13,5.49.21l.56,0h.2a6,6,0,0,1,5.06,9.22,6,6,0,0,1,4.31,2.66,73.07,73.07,0,0,1,9.39-.6c1.67,0,3,.06,3.88.09l.64,0,.4,0a6,6,0,0,1,2.15,11.6c-.19.08-.66.23-1.37.43a74.7,74.7,0,0,0-19.87,8.68l-.3.18a49,49,0,0,1,14.49,3.67l.56.22A6,6,0,0,1,189,76.34a6.75,6.75,0,0,1-2.1.31c-.51,0-1.05,0-1.74-.1-1-.09-2.41-.21-4.1-.21a28.45,28.45,0,0,0-13.91,3.39l-.2.1c-.83.42-1.66.86-2.5,1.34a32.26,32.26,0,0,1,9,4.59l.2.15a6,6,0,0,1-.83,11.16,6.35,6.35,0,0,1-1.79.26,8.76,8.76,0,0,1-3.06-.65,15.36,15.36,0,0,0-5.24-1.08,10.21,10.21,0,0,0-4.08.84,6,6,0,0,1-1.48,9.9,20.73,20.73,0,0,1,4.13,6.51,6,6,0,0,1,.16,5.3c12.21,13.09,19.63,32.46,20.13,53.95.61,26.23-4.68,44.7-16.17,56.47-9.44,9.67-23,14.58-40.38,14.59Zm34.95-132"/><g class="cls-4"><path class="cls-5" d="M74.67,176.62c-.17-2.68-1.07-4.81,0-6.7l.09-.15-.09-.17c-1-2.36,0-5.36.18-8.41,0-.12,0-.26,0-.38v.26a23.35,23.35,0,0,0,1.89,7l.17.43c0,.15-.14.3-.2.44A22.86,22.86,0,0,0,74.67,176.62Z"/><path class="cls-6" d="M104.45,111.91a25.59,25.59,0,0,0-5.12-.79h-.12l.23-.06a19.18,19.18,0,0,1,8.88-.17l.35.09.18-.09a13.76,13.76,0,0,1,5-1.34l.32,0-.46,0A30,30,0,0,0,104.45,111.91Zm0-.06a24.51,24.51,0,0,1,8.65-2.27H113a12.22,12.22,0,0,0-4.86,1.13h.55a20.65,20.65,0,0,0-9,.35l.11-.06a18.51,18.51,0,0,1,4.72.85Z"/><path class="cls-7" d="M107.1,110.1a37,37,0,0,0-5,.58,20.23,20.23,0,0,1,5.59-.4,14.45,14.45,0,0,1,3.12-.53C109.46,109.84,108.23,110,107.1,110.1Z"/><path class="cls-8" d="M120.69,110.36a21.4,21.4,0,0,0-6.78-.84,17.21,17.21,0,0,1,7.74,1.19,14.87,14.87,0,0,1,6.79-1.48A23.59,23.59,0,0,0,120.69,110.36Z"/><path class="cls-6" d="M120.69,110.39a22.73,22.73,0,0,0-7-.84h.09a16.08,16.08,0,0,1,7.65,1.31c.09,0,.18.09.29.14a2.15,2.15,0,0,0,.26-.14,15.57,15.57,0,0,1,6.87-1.6h0A26.86,26.86,0,0,0,120.69,110.39Zm0-.06A20.55,20.55,0,0,1,128,109.2h0a14.47,14.47,0,0,0-6.73,1.4h.56a18,18,0,0,0-7.83-1.08h0a19.93,19.93,0,0,1,6.58.81Z"/><path class="cls-7" d="M121.33,109.43a46.26,46.26,0,0,0-4.71-.06,18.16,18.16,0,0,1,4.83.44,14.94,14.94,0,0,1,4.25-.64C124.24,109.2,122.79,109.29,121.33,109.43Z"/><path class="cls-9" d="M137.37,110.83a25.86,25.86,0,0,0-8.44-1.6,13.26,13.26,0,0,1,5.88,1.51,19,19,0,0,1,8.44-.64A20.18,20.18,0,0,0,137.37,110.83Z"/><path class="cls-6" d="M137.37,110.86a26.39,26.39,0,0,0-8.61-1.63h0a12.1,12.1,0,0,1,5.76,1.63l.2.12.35-.12a18.7,18.7,0,0,1,8.5-.73l.5.06h-.29A24.46,24.46,0,0,0,137.37,110.86Zm0-.06a15.83,15.83,0,0,1,5.42-.79.51.51,0,0,1,.2.06,18.15,18.15,0,0,0-8.38.56h.55a14.29,14.29,0,0,0-6-1.4h0a24.92,24.92,0,0,1,8.26,1.57Z"/><path class="cls-7" d="M135.71,109.64c-1.28-.18-2.62-.29-4-.35a14.46,14.46,0,0,1,3.69.67,19,19,0,0,1,5.27-.12A40.48,40.48,0,0,0,135.71,109.64Z"/><path class="cls-6" d="M94.9,117.55a49.28,49.28,0,0,0-4.71-2.09l-.12,0,.23-.15a26.87,26.87,0,0,1,8.82-4.16l.38-.09h.18a24,24,0,0,1,5,.73l.32.09-.49.2A45.8,45.8,0,0,0,94.9,117.55Zm0-.08a41.88,41.88,0,0,1,8.94-5.59l-.18.29a21.62,21.62,0,0,0-4.8-1l.55-.09a28.44,28.44,0,0,0-9,4.22l.12-.2A42.69,42.69,0,0,1,94.93,117.47Z"/><path class="cls-6" d="M111.32,114.56a38.76,38.76,0,0,0-6.87-2.59l-.14,0,.23-.12a26.55,26.55,0,0,1,8.88-2.27l.35,0,.26,0a21.79,21.79,0,0,1,6.87.76l.4.11-.46.15A50.92,50.92,0,0,0,111.32,114.56Zm0-.09a41.39,41.39,0,0,1,8.67-4.16,1.55,1.55,0,0,0,0,.23,20.85,20.85,0,0,0-6.7-1l.61,0a29.5,29.5,0,0,0-9,2.36c0-.06.06-.09.09-.15a38.13,38.13,0,0,1,6.43,2.74Z"/><path class="cls-6" d="M129.46,113.92a44.33,44.33,0,0,0-8.71-3.47l-.2-.06.23-.06a22.75,22.75,0,0,1,7.6-1.13l.29,0H129a26.6,26.6,0,0,1,8.5,1.51l.49.18-.37.08A46,46,0,0,0,129.46,113.92Zm0-.09a35.65,35.65,0,0,1,7.21-3.15c0,.09.09.18.12.27a26.14,26.14,0,0,0-8.35-1.75h.61a25.72,25.72,0,0,0-7.83,1.22l0-.11a42.94,42.94,0,0,1,8.21,3.52Z"/><path class="cls-6" d="M147,115.69a48.56,48.56,0,0,0-9.55-4.74l-.23-.09.17-.06a18.22,18.22,0,0,1,5.74-.73h.2l.38.06a29.12,29.12,0,0,1,9.17,3l.49.26-.26.06A41.24,41.24,0,0,0,147,115.69Zm0-.12a37.37,37.37,0,0,1,5.18-2.59,1.72,1.72,0,0,0,.23.32,29.1,29.1,0,0,0-9.08-3.2l.58.06a22.75,22.75,0,0,0-6,.79l-.06-.12A46.11,46.11,0,0,1,147,115.57Z"/><path class="cls-6" d="M86.17,125.85c-1.51-1.16-2.74-2.07-3.78-2.79L82.3,123l.17-.24A33.89,33.89,0,0,1,90,115.34l.35-.26.18.06a49,49,0,0,1,4.63,2.09l.29.15-.47.35A56.49,56.49,0,0,0,86.17,125.85Zm0-.12a55.83,55.83,0,0,1,8.18-8.23c-.06.17-.15.35-.2.52-1.43-.84-2.89-1.63-4.37-2.33l.52-.17a35.55,35.55,0,0,0-7.68,7.42c0-.09.06-.18.09-.29C83.7,123.46,84.8,124.45,86.2,125.73Z"/><path class="cls-6" d="M101.34,121.45c-2.07-1.36-4.22-2.62-6.41-3.78l-.14-.06.23-.17a45.13,45.13,0,0,1,9.17-5.56l.38-.18.26.06a39.34,39.34,0,0,1,6.72,2.53l.41.21-.52.29A76,76,0,0,0,101.34,121.45Zm0-.14a72.24,72.24,0,0,1,9.28-6.93,2.7,2.7,0,0,1-.12.47,38.81,38.81,0,0,0-6.52-2.77l.64-.11a46.82,46.82,0,0,0-9.37,5.55l.09-.26C97.09,118.34,99.07,119.65,101.37,121.31Z"/><path class="cls-6" d="M120,119.53a77.7,77.7,0,0,0-8.62-4.86l-.2-.09.26-.14a43.66,43.66,0,0,1,9-4.08l.35-.11.32.08a43.06,43.06,0,0,1,8.53,3.38l.5.26-.47.21A88,88,0,0,0,120,119.53Zm0-.11a73.5,73.5,0,0,1,8.67-5.74c0,.15,0,.32,0,.47a42.91,42.91,0,0,0-8.35-3.61l.69,0a48.8,48.8,0,0,0-9.19,4.1c0-.08,0-.14.05-.23a72.9,72.9,0,0,1,8.1,5Z"/><path class="cls-6" d="M139.35,120.14a79.07,79.07,0,0,0-9.84-6.08l-.23-.12.23-.11a39.46,39.46,0,0,1,7.51-3.06l.29-.09.38.15a45.71,45.71,0,0,1,9.43,4.66l.53.32-.35.14A79.13,79.13,0,0,0,139.35,120.14Zm0-.14a75.2,75.2,0,0,1,6.93-4.69l.15.5a46.27,46.27,0,0,0-9.32-4.83l.67,0a43.91,43.91,0,0,0-7.8,3l0-.23A75.37,75.37,0,0,1,139.32,120Z"/><path class="cls-6" d="M156.7,123.23a68.38,68.38,0,0,0-9.55-7.39l-.23-.15.17-.09a37.33,37.33,0,0,1,5.48-2.44l.2-.06.38.2a41.22,41.22,0,0,1,8.76,6.32,5.49,5.49,0,0,0,.44.41l-.23.11A55.63,55.63,0,0,0,156.7,123.23Zm-.06-.15c1.81-1.57,3.32-2.76,4.6-3.75.06.17.15.35.21.52a42.24,42.24,0,0,0-8.74-6.46l.59.15a39.49,39.49,0,0,0-5.74,2.35l-.09-.23A65,65,0,0,1,156.64,123.08Z"/><path class="cls-6" d="M79.39,135.86c-1-1.25-1.66-2.21-2.16-3l0,0,.08-.27a34.78,34.78,0,0,1,4.95-9.66l.26-.35.15.09c1,.75,2.24,1.66,3.72,2.82l.24.21a5.65,5.65,0,0,0-.41.46A51.16,51.16,0,0,0,79.39,135.86Zm0-.14a55.25,55.25,0,0,1,6.31-9.93c0,.23-.11.44-.17.67-1.4-1.25-2.5-2.24-3.46-3.06.14-.08.26-.17.4-.26a34.43,34.43,0,0,0-5.12,9.58l.06-.32C77.9,133.27,78.52,134.35,79.42,135.72Z"/><path class="cls-6" d="M91.67,130.51c-2.15-1.84-4-3.29-5.5-4.49l-.12-.08.21-.24a57.61,57.61,0,0,1,8.41-8.18l.38-.29.23.12a71.74,71.74,0,0,1,6.29,3.78l.38.27-.53.4A86.53,86.53,0,0,0,91.67,130.51Zm0-.18a87.09,87.09,0,0,1,9-9.05,5.37,5.37,0,0,1-.15.67c-2.3-1.69-4.31-3-6-4l.61-.17a57.62,57.62,0,0,0-8.62,8.12c0-.12.06-.23.09-.32,1.4,1.28,3.11,2.85,5.12,4.77Z"/><path class="cls-6" d="M109.6,127.51c-3-2.3-5.79-4.28-8.26-5.88l-.18-.12.26-.2A71.63,71.63,0,0,1,111,114.5l.38-.24.32.15a83.56,83.56,0,0,1,8.47,4.83l.49.32-.52.35A116.23,116.23,0,0,0,109.6,127.51Zm0-.18a119.7,119.7,0,0,1,9.55-8.06c0,.23,0,.44,0,.67a76.44,76.44,0,0,0-8.24-5.06l.73-.06a82,82,0,0,0-9.84,6.75c0-.12,0-.23.06-.32,2.33,1.63,4.92,3.67,7.77,6.08Z"/><path class="cls-6" d="M130,126.87c-3.47-2.74-6.84-5.12-10-7.13l-.23-.15.26-.17a76.71,76.71,0,0,1,9-5.59l.35-.18.4.21a76.23,76.23,0,0,1,9.67,6l.52.38-.47.26C136.62,122.27,133.41,124.39,130,126.87Zm0-.18c3.05-2.67,5.94-5,8.53-7l.08.67a78.15,78.15,0,0,0-9.51-6.23l.75,0a83,83,0,0,0-9.31,5.5v-.32c3,2.06,6.14,4.51,9.46,7.3Z"/><path class="cls-6" d="M149.63,128.62a110.82,110.82,0,0,0-10.19-8.3l-.26-.18.2-.14a78.31,78.31,0,0,1,7.25-4.51l.26-.15.41.26a67.72,67.72,0,0,1,9.43,7.34l.49.46-.32.21C154.81,125,152.39,126.61,149.63,128.62Zm0-.15c2.41-2.27,4.54-4.16,6.37-5.73.06.2.12.43.18.66a71.34,71.34,0,0,0-9.35-7.51l.67.12a78.9,78.9,0,0,0-7.54,4.37,1,1,0,0,0-.05-.32A107.47,107.47,0,0,1,149.6,128.47Z"/><path class="cls-6" d="M165.29,132.75a74.37,74.37,0,0,0-8.5-9.32l-.23-.2.14-.12c1.89-1.48,3.49-2.62,4.86-3.52a1.74,1.74,0,0,1,.18-.11l.35.32a46.32,46.32,0,0,1,7.16,8.76l.32.52-.18.15C168.32,130.13,167,131.26,165.29,132.75Zm0-.18c1.45-1.74,2.59-3.2,3.52-4.36l.15.67a48.45,48.45,0,0,0-7.19-8.88l.52.23c-1.43.85-3.08,1.92-5.06,3.32,0-.12-.06-.23-.09-.32A73.91,73.91,0,0,1,165.26,132.57Z"/><path class="cls-6" d="M75.69,146.49a4.2,4.2,0,0,1,.29-2.74l0-.06,0-.29a28.19,28.19,0,0,1,1.2-10.68,2.49,2.49,0,0,1,.14-.44l.06.09a36.35,36.35,0,0,0,2.15,3l.15.2c-.09.18-.2.35-.29.53A36.66,36.66,0,0,0,75.69,146.49Zm0-.15a40.79,40.79,0,0,1,3.41-10.53l-.12.72a29,29,0,0,1-1.86-3.23,1.32,1.32,0,0,1,.2-.32A26.75,26.75,0,0,0,76,143.55v-.32a6.08,6.08,0,0,0-.26,3.11Z"/><path class="cls-6" d="M83.41,140.81c-1.69-1.95-3-3.52-4-4.77l-.06-.09a1.65,1.65,0,0,1,.14-.26,54.67,54.67,0,0,1,6.5-9.87c.11-.12.2-.26.32-.38l.17.15c1.49,1.19,3.29,2.68,5.42,4.51l.34.29-.49.5A81.49,81.49,0,0,0,83.41,140.81Zm0-.17a89.49,89.49,0,0,1,7.66-10.37c-.06.27-.09.53-.15.79-2-1.92-3.72-3.49-5.12-4.74l.53-.24a54.62,54.62,0,0,0-6.73,9.78l.06-.38c.93,1.43,2.15,3.12,3.75,5.16Z"/><path class="cls-6" d="M99.18,137.2q-4.23-3.75-7.48-6.52l-.17-.14c.08-.09.14-.18.23-.27a95.57,95.57,0,0,1,9.26-9l.4-.32.32.2c2.42,1.6,5.13,3.55,8.1,5.88l.49.38-.55.44C106.17,130.77,102.62,133.91,99.18,137.2Zm0-.17c3.15-3.5,6.38-6.81,9.64-9.84,0,.26-.06.55-.09.81-2.88-2.38-5.53-4.42-7.86-6.11l.7-.12a98.24,98.24,0,0,0-9.52,8.82c0-.14,0-.26.06-.37C94.2,132.14,96.53,134.41,99.18,137Z"/><path class="cls-6" d="M119.47,135.66c-3.46-2.94-6.78-5.62-9.81-8l-.23-.17c.09-.09.17-.15.26-.23a125.75,125.75,0,0,1,9.9-7.92l.4-.29.41.26a119.76,119.76,0,0,1,9.78,7.13l.56.44-.53.38C126.78,129.78,123.17,132.6,119.47,135.66Zm0-.2c3.32-3.29,6.58-6.32,9.66-9l0,.82c-3.34-2.8-6.57-5.27-9.57-7.37l.78,0a127.25,127.25,0,0,0-10.18,7.77l0-.4c2.86,2.41,6,5.18,9.26,8.21Z"/><path class="cls-6" d="M140.72,136.13c-3.55-3.26-7.16-6.32-10.62-9l-.27-.2.27-.21c3.17-2.62,6.17-4.89,8.87-6.75l.35-.23.44.32a117.8,117.8,0,0,1,10,8.24l.53.49-.44.32C147.09,131.09,144,133.45,140.72,136.13Zm0-.18c2.94-2.94,5.68-5.56,8.12-7.83,0,.26.06.52.12.82a121.25,121.25,0,0,0-9.9-8.48l.76.09c-2.8,1.84-5.88,4-9.17,6.58v-.41c3.23,2.77,6.66,5.91,10.07,9.23Z"/><path class="cls-6" d="M159.32,138.66a125.33,125.33,0,0,0-9.61-9.81l-.26-.23.21-.18c2.53-2.18,4.74-4,6.66-5.47l.24-.18.37.35a72.8,72.8,0,0,1,8.36,9.29l.41.52-.27.24Zm0-.18c2.13-2.44,3.9-4.57,5.39-6.31,0,.26.08.49.14.75a78,78,0,0,0-8.35-9.43l.64.18c-2,1.42-4.31,3.17-6.9,5.24,0-.15,0-.27-.06-.41A135.11,135.11,0,0,1,159.29,138.48Z"/><path class="cls-6" d="M171.72,143.23A60.84,60.84,0,0,0,165.38,133l-.21-.26.12-.15c1.51-1.65,2.73-3,3.69-4.07l.12-.15.26.41a36.84,36.84,0,0,1,4.37,10.19c.06.2.09.38.14.55l-.05.15A17.93,17.93,0,0,1,171.72,143.23Zm0-.15a25.26,25.26,0,0,0,1.84-4.51l.08.7A39.94,39.94,0,0,0,169.1,129c.12.09.26.18.38.29-1,1-2.24,2.25-3.81,3.79l-.06-.38A62.6,62.6,0,0,1,171.69,143.08Z"/><path class="cls-6" d="M77.5,151.44a17.08,17.08,0,0,1-1.81-4.78v-.08a.88.88,0,0,1,.06-.27,38.39,38.39,0,0,1,3.55-10.48l.23-.43.12.17c1,1.28,2.3,2.88,4,4.83l.26.32-.38.53A53.72,53.72,0,0,0,77.5,151.44Zm0-.18a67.86,67.86,0,0,1,5.41-10.65,8.09,8.09,0,0,1-.12.84c-1.57-2-2.76-3.69-3.66-5.06l.35-.26a38.76,38.76,0,0,0-3.76,10.36c0-.12,0-.23,0-.38a22.35,22.35,0,0,0,1.75,5.15Z"/><path class="cls-6" d="M89.61,147.89c-2.45-2.62-4.52-4.92-6.2-6.87l-.12-.15a1.58,1.58,0,0,0,.17-.29,90.31,90.31,0,0,1,7.92-10.25l.38-.4.26.23c2.13,1.83,4.6,4,7.37,6.55l.43.4-.52.53C95.86,141,92.57,144.42,89.61,147.89Zm0-.18c2.71-3.67,5.71-7.33,8.82-10.83,0,.29,0,.61-.08.93-2.68-2.59-5-4.86-7.08-6.78l.64-.17a91.77,91.77,0,0,0-8.18,10.07c0-.15,0-.29.06-.44C85.38,142.56,87.33,145,89.63,147.71Z"/><path class="cls-6" d="M108.5,145.91c-3.35-3.12-6.49-5.94-9.29-8.47l-.2-.21.26-.26c3.23-3.44,6.61-6.7,10-9.66l.41-.38.38.29c3,2.33,6.23,5,9.64,7.94l.55.5-.58.47C116,139.21,112.19,142.5,108.5,145.91Zm0-.21c3.34-3.67,6.72-7.19,10.07-10.48,0,.32,0,.64,0,1-3.35-3-6.49-5.79-9.4-8.18l.81,0c-3.46,2.91-6.93,6.11-10.27,9.49,0-.15,0-.33,0-.47,2.7,2.59,5.64,5.53,8.79,8.73Z"/><path class="cls-6" d="M130.36,145.5c-3.7-3.41-7.34-6.64-10.8-9.61l-.26-.23.26-.26c3.46-3.2,6.84-6.17,10-8.79l.41-.32.44.35c3.4,2.73,7,5.76,10.47,9l.56.52-.53.41C137.61,139.33,134.05,142.3,130.36,145.5Zm0-.21c3.32-3.46,6.52-6.72,9.49-9.66l.06.93c-3.47-3.32-6.93-6.46-10.28-9.25l.84,0c-3.29,2.57-6.78,5.45-10.33,8.56v-.46c3.26,3,6.7,6.34,10.22,9.86Z"/><path class="cls-6" d="M151.26,146.66c-3.38-3.52-6.9-7-10.48-10.24l-.26-.24.23-.23c3.08-2.85,5.91-5.38,8.44-7.57l.32-.26.44.38a123.46,123.46,0,0,1,9.46,9.81l.46.55-.37.35C157.11,141.34,154.34,143.87,151.26,146.66Zm0-.2c2.73-3.09,5.18-5.91,7.33-8.36,0,.3.06.59.09.91a132,132,0,0,0-9.37-10l.72.15c-2.61,2.09-5.55,4.57-8.73,7.3,0-.14,0-.32,0-.46,3.41,3.29,6.79,6.84,10,10.45Z"/><path class="cls-6" d="M167.44,149.37a95.93,95.93,0,0,0-8-10.45l-.23-.26.17-.18c2.21-2.35,4.07-4.36,5.65-6l.2-.21c.12.15.2.3.32.44a60.43,60.43,0,0,1,6.26,10.28c.09.17.17.38.26.55l-.14.23C170.79,145.24,169.33,147.13,167.44,149.37Zm0-.18c1.66-2.53,2.94-4.71,3.9-6.54,0,.26.06.52.09.81a65.63,65.63,0,0,0-6.32-10.39l.53.2c-1.6,1.57-3.52,3.5-5.79,5.77l-.06-.44A104,104,0,0,1,167.41,149.19Z"/><path class="cls-6" d="M175,153.65a35.72,35.72,0,0,0-3.26-10.19c0-.09-.09-.17-.12-.26s.06-.09.09-.15a24,24,0,0,0,1.92-4.19l.06-.14c0,.14.09.29.12.43a25.8,25.8,0,0,1,.49,10.42c0,.18-.06.35-.09.56l.09.11A4.36,4.36,0,0,1,175,153.65Zm0-.15a9,9,0,0,0-.52-4.28v.67a28.34,28.34,0,0,0-.76-10.45.92.92,0,0,1,.14.32,20.22,20.22,0,0,1-1.89,3.85c0-.15,0-.27-.06-.41A39.71,39.71,0,0,1,175,153.5Z"/><path class="cls-6" d="M74.82,161.3A6.76,6.76,0,0,1,76,156.71l.06-.09c0-.09,0-.18-.06-.24a24.52,24.52,0,0,1-.29-9.95,2.22,2.22,0,0,0,.06-.44,1.3,1.3,0,0,0,0,.15A17.88,17.88,0,0,0,77.58,151l.18.32c-.09.18-.15.35-.23.52A30.45,30.45,0,0,0,74.82,161.3Zm0-.14a38.41,38.41,0,0,1,2.39-9.93c0,.29,0,.56-.06.82a17.9,17.9,0,0,1-1.55-5l.09-.26a23.09,23.09,0,0,0,.12,9.81v-.32a8.86,8.86,0,0,0-1,4.92Z"/><path class="cls-6" d="M81.86,158.63a61.58,61.58,0,0,1-4.36-7c0-.06-.06-.09-.09-.15l.12-.26a63.86,63.86,0,0,1,5.64-10.53l.29-.44c.06.09.15.17.21.26,1.69,1.95,3.72,4.28,6.11,6.9a3.86,3.86,0,0,1,.38.44l-.47.52A113.67,113.67,0,0,0,81.86,158.63Zm0-.21A118.32,118.32,0,0,1,89,147.54l-.08,1c-2.3-2.71-4.25-5.1-5.82-7.14l.49-.17a63.7,63.7,0,0,0-5.88,10.36l0-.43a62.27,62.27,0,0,0,4.13,7.3Z"/><path class="cls-6" d="M98,156.91c-3.09-3.17-5.88-6.14-8.33-8.76l-.17-.21.23-.29c2.83-3.61,5.91-7.19,9.14-10.62.15-.15.26-.29.41-.44l.35.32c2.76,2.53,5.85,5.39,9.14,8.5l.52.5-.58.52C105,149.86,101.37,153.39,98,156.91Zm0-.23c3.08-3.79,6.34-7.57,9.66-11.21,0,.35,0,.7,0,1-3.2-3.2-6.17-6.14-8.87-8.73l.75-.12c-3.35,3.38-6.52,6.9-9.43,10.42l0-.5c2.33,2.77,5,5.83,7.89,9.12Z"/><path class="cls-6" d="M119.21,156.15c-3.67-3.49-7.25-6.87-10.63-10l-.26-.24.26-.29c3.47-3.58,7-7,10.45-10.24l.44-.41.44.38c3.43,3,7,6.2,10.62,9.6l.58.56-.58.49C126.86,149.25,123,152.66,119.21,156.15Zm0-.23c3.46-3.79,6.9-7.48,10.22-10.95V146c-3.56-3.49-7.08-6.81-10.42-9.87l.87,0c-3.55,3.14-7.22,6.52-10.77,10l0-.53,10.07,10.31Z"/><path class="cls-6" d="M141.45,156.38c-3.61-3.6-7.34-7.19-11-10.59l-.3-.26.27-.26c3.43-3.38,6.75-6.55,9.84-9.41l.37-.35.44.41c3.49,3.26,7,6.73,10.3,10.28l.53.58-.47.44C148.4,150,145,153.1,141.45,156.38Zm0-.2c3.2-3.58,6.23-7,9-10.07,0,.35,0,.67.06,1-3.29-3.61-6.72-7.16-10.19-10.48l.85.06c-3.18,2.76-6.61,5.85-10.16,9.11v-.53c3.52,3.5,7,7.17,10.48,10.89Z"/><path class="cls-6" d="M160.78,157.61c-2.86-3.52-6.06-7.13-9.41-10.66l-.26-.26.23-.23c2.86-3,5.42-5.71,7.63-8.06l.29-.3.38.44A107,107,0,0,1,167.56,149l.35.55-.29.35C165.72,152.13,163.42,154.73,160.78,157.61Zm0-.24c2.35-3.17,4.42-6.05,6.11-8.58l.09.9a108,108,0,0,0-7.92-10.62l.64.14L151.84,147c0-.17,0-.35,0-.49,3.2,3.61,6.2,7.3,9,10.88Z"/><path class="cls-6" d="M173.09,159.76a63.43,63.43,0,0,0-5.56-10.13l-.18-.26.15-.2c1.72-2.45,3.06-4.52,4.05-6.26l.11-.21c.06.15.15.29.21.44A37,37,0,0,1,175,153.33a3.07,3.07,0,0,1,.06.52.66.66,0,0,1,0,.24A17.91,17.91,0,0,1,173.09,159.76Zm0-.17a27.09,27.09,0,0,0,1.83-6.52,5.84,5.84,0,0,0,.06.75,39.73,39.73,0,0,0-3.35-10.27l.32.23q-1.92,3.06-4.1,5.94c0-.15,0-.29,0-.47a75.57,75.57,0,0,1,5.27,10.34Z"/><path class="cls-6" d="M76.68,168.46a21.53,21.53,0,0,1-1.86-7v-.15a.69.69,0,0,1,0-.23,34.93,34.93,0,0,1,2.53-9.81l.17-.44a1.22,1.22,0,0,0,.15.27,62.74,62.74,0,0,0,4.34,7l.29.44-.35.52A56,56,0,0,0,76.68,168.46Zm0-.17a67.8,67.8,0,0,1,4.69-10,9.09,9.09,0,0,1-.06.93,60,60,0,0,1-4-7.22l.29-.17a34.08,34.08,0,0,0-2.76,9.63V161a27.43,27.43,0,0,0,1.86,7.25Z"/><path class="cls-6" d="M88.73,167.77c-2.65-3.23-5-6.2-6.87-8.88l-.14-.21.17-.26a119.36,119.36,0,0,1,7.4-10.68l.34-.44.32.35c2.42,2.65,5.19,5.59,8.21,8.79l.5.53c-.18.17-.35.35-.53.55C94.76,161,91.56,164.45,88.73,167.77Zm0-.24c2.56-3.58,5.39-7.33,8.44-11.09,0,.35,0,.7,0,1.05-2.94-3.29-5.58-6.32-7.91-9l.67-.12a111.85,111.85,0,0,0-7.69,10.45,2.37,2.37,0,0,1,0-.46c1.81,2.79,4,5.88,6.49,9.19Z"/><path class="cls-6" d="M108.06,167.36c-3.55-3.55-6.93-7-10-10.16l-.24-.23.27-.29c3.2-3.7,6.57-7.4,10-11l.44-.43.43.4c3.32,3.12,6.81,6.49,10.45,10l.58.58-.58.55C115.57,160.23,111.73,163.81,108.06,167.36Zm0-.23c3.32-3.85,6.75-7.72,10.22-11.5v1.1c-3.55-3.61-7-7-10.19-10.24l.87-.06c-3.58,3.49-7.07,7.1-10.39,10.71l0-.52C101.51,159.94,104.68,163.49,108.06,167.13Z"/><path class="cls-6" d="M130.5,167.27c-3.75-3.67-7.54-7.3-11.2-10.8l-.29-.26.29-.29c3.58-3.7,7.16-7.31,10.62-10.68l.44-.44.46.44c3.64,3.43,7.28,7,10.86,10.62l.58.58-.55.5Zm0-.23,10.07-11.21c0,.35,0,.73,0,1.11-3.52-3.7-7.1-7.37-10.65-10.86l.9,0c-3.55,3.29-7.25,6.78-10.94,10.39V156c3.43,3.58,7,7.33,10.59,11.09Z"/><path class="cls-6" d="M152,167.5c-3.29-3.55-6.79-7.19-10.42-10.82l-.27-.27.27-.26c3.31-3.49,6.46-6.78,9.31-9.78l.35-.38.44.47c3.29,3.55,6.43,7.16,9.25,10.68.15.21.29.38.44.58l-.41.44C158.27,161,155.25,164.19,152,167.5Zm0-.23c3-3.61,5.67-7.07,8.09-10.24,0,.34,0,.66.06,1-2.83-3.61-5.91-7.27-9.17-10.88l.78.08c-2.94,2.92-6.17,6.09-9.6,9.47v-.56C145.52,159.88,148.84,163.63,152,167.27Z"/><path class="cls-6" d="M168.34,168.06a120.37,120.37,0,0,0-7.51-10.19l-.2-.26.2-.24c2.48-3.05,4.6-5.85,6.35-8.29l.2-.29.29.43a66.44,66.44,0,0,1,5.48,10.16c.06.18.14.35.2.53l-.17.35A55.64,55.64,0,0,1,168.34,168.06Zm0-.21a72.1,72.1,0,0,0,4.43-8.61l.06.87a71.07,71.07,0,0,0-5.59-10.33c.17.06.35.08.52.14-1.77,2.33-4,5-6.49,8a2.64,2.64,0,0,0,0-.5c2.71,3.61,5.1,7.14,7.1,10.45Z"/><path class="cls-6" d="M175.56,168.93a30.65,30.65,0,0,0-2.41-8.91l-.12-.23.09-.2a23.21,23.21,0,0,0,1.86-6.23c0-.06,0-.15,0-.21,0,.15,0,.29.06.41a20.47,20.47,0,0,1-.67,9.08c-.06.15-.09.29-.15.44a1.28,1.28,0,0,1,.15.23A9,9,0,0,1,175.56,168.93Zm0-.17a13.2,13.2,0,0,0-.93-6.32v.67a21.34,21.34,0,0,0,.35-9.17c0,.06.06.15.09.2a19.36,19.36,0,0,1-1.78,5.91,2.08,2.08,0,0,0,0-.43,32.64,32.64,0,0,1,2.3,9.14Z"/><path class="cls-7" d="M175.27,158.54a6,6,0,0,1-.93,1.8,16.9,16.9,0,0,0,.82-3.78,21.75,21.75,0,0,1,0,5.7A9.16,9.16,0,0,0,175.27,158.54Z"/><path class="cls-6" d="M81.57,177.63a60.34,60.34,0,0,1-4.86-8.9l-.09-.21c0-.08.06-.14.09-.23a66.45,66.45,0,0,1,4.92-9.84l.26-.44.23.35C84,161,86.29,164,88.91,167.3l.43.52-.43.53A108.07,108.07,0,0,0,81.57,177.63Zm0-.2c1.81-3.14,4-6.55,6.52-10.13v1c-2.53-3.29-4.71-6.38-6.49-9.14l.5-.09a64.07,64.07,0,0,0-5.19,9.61v-.44a65.29,65.29,0,0,0,4.66,9.17Z"/><path class="cls-6" d="M97.76,178.27c-3.26-3.55-6.29-7-9-10.21l-.2-.24.2-.26c2.65-3.52,5.62-7.19,8.79-10.85.15-.15.26-.33.41-.47a4.86,4.86,0,0,1,.38.41c3,3.2,6.37,6.63,9.86,10.21l.56.59-.58.55C104.57,171.46,101,175,97.76,178.27Zm0-.23c2.94-3.61,6.11-7.39,9.4-11.21v1.11c-3.41-3.64-6.64-7.16-9.58-10.45l.79-.06C95.08,161,92,164.59,89.23,168v-.52c2.56,3.37,5.44,6.89,8.53,10.56Z"/><path class="cls-6" d="M119.15,178.54c-3.75-3.67-7.45-7.34-11-10.89l-.26-.26.26-.29c3.43-3.73,7-7.51,10.59-11.21l.44-.47.47.44c3.63,3.52,7.36,7.19,11.06,10.86l.58.58-.58.55C126.86,171.4,123,175,119.15,178.54Zm0-.24c3.44-3.84,7-7.74,10.42-11.58v1.13c-3.61-3.75-7.28-7.51-10.8-11.09h.9c-3.69,3.58-7.39,7.28-11,10.89v-.55C112.05,170.76,115.57,174.55,119.15,178.3Z"/><path class="cls-6" d="M141.62,178.45c-3.55-3.55-7.27-7.22-11-10.86l-.29-.29.29-.29L141,156.09l.41-.43.46.46c3.55,3.64,7,7.31,10.25,10.86l.52.58-.49.53C148.87,171.4,145.29,174.93,141.62,178.45Zm0-.23c3.35-3.85,6.55-7.63,9.52-11.27v1.11c-3.2-3.64-6.61-7.4-10.1-11.09l.87,0c-3.43,3.37-7.07,6.95-10.74,10.59V167C134.72,170.79,138.25,174.58,141.62,178.22Z"/><path class="cls-6" d="M161,178c-2.68-3.2-5.74-6.66-9-10.19l-.23-.26a1.4,1.4,0,0,0,.23-.29c3.06-3.52,5.88-6.87,8.39-10l.32-.38.35.46c2.62,3.29,5.09,6.7,7.36,10.22l.32.52a3.28,3.28,0,0,1-.32.44C166.42,171.49,163.89,174.67,161,178Zm0-.2c2.59-3.61,4.86-7.05,6.78-10.25v1c-2.1-3.29-4.6-6.81-7.36-10.42l.67.06c-2.54,3-5.45,6.23-8.59,9.64v-.56c3.08,3.67,6,7.22,8.5,10.57Z"/><path class="cls-6" d="M173.35,177.2a61.69,61.69,0,0,0-4.95-8.88l-.14-.23a1.7,1.7,0,0,1,.14-.24,67.22,67.22,0,0,0,4.54-8.35l.15-.29.17.41a30.34,30.34,0,0,1,2.33,9c0,.15,0,.29,0,.44a1.31,1.31,0,0,1,0,.35A24.23,24.23,0,0,1,173.35,177.2Zm0-.18a34.14,34.14,0,0,0,2.13-8.5v.79a34.05,34.05,0,0,0-2.54-9.08l.29.11a59.91,59.91,0,0,1-4.54,8v-.5A65.46,65.46,0,0,1,173.35,177Z"/><path class="cls-6" d="M77,185.78c-1.69-4.07-2-5.09-2.33-8.93v-.38a27.7,27.7,0,0,1,1.9-8.18c0-.12.08-.26.14-.38.06.12.09.23.15.35a61.18,61.18,0,0,0,4.83,8.94l.32.52-.32.44A56.2,56.2,0,0,0,77,185.78Zm0-.17a66,66,0,0,1,4.08-8.47v1A60,60,0,0,1,76.51,169l.29,0a26.9,26.9,0,0,0-2.13,7.95v-.38c.32,3.84.7,5,2.3,9.08Z"/><path class="cls-6" d="M89.05,188.08A121.75,121.75,0,0,1,81.6,177.9l-.14-.24.14-.23c1.89-3.06,4.19-6.4,6.81-9.9l.32-.43.35.4c2.65,3.24,5.62,6.7,8.85,10.28l.52.58-.49.5C94.67,182.15,91.67,185.26,89.05,188.08Zm0-.2c2.33-3.14,5-6.55,7.89-10.16v1.08c-3.11-3.64-6-7.16-8.56-10.48l.67,0c-2.73,3.41-5.15,6.64-7.13,9.61v-.47c2,3.32,4.43,6.84,7.13,10.45Z"/><path class="cls-6" d="M108.21,189.39c-3.61-3.61-7.14-7.24-10.4-10.8l-.26-.26.23-.29c3.06-3.52,6.35-7.22,9.79-10.94l.43-.47c.15.15.29.29.44.47,3.49,3.58,7.16,7.24,10.86,10.94l.58.58-.58.56C115.51,182.67,111.76,186.1,108.21,189.39Zm0-.23c3.17-3.55,6.55-7.33,10-11.15v1.14c-3.61-3.76-7.19-7.51-10.6-11.15h.88c-3.55,3.64-7,7.22-10.16,10.62v-.55c3.14,3.61,6.46,7.37,9.9,11.09Z"/><path class="cls-6" d="M130.44,189.63c-3.66-3.5-7.45-7.13-11.2-10.8l-.29-.29.29-.29L130,167l.43-.46.47.46c3.7,3.67,7.36,7.37,10.86,11l.55.58-.58.55C138.1,182.58,134.26,186.16,130.44,189.63Zm0-.21c3.44-3.78,6.9-7.65,10.25-11.49v1.13c-3.43-3.64-7-7.39-10.65-11.15H131l-11.15,11v-.59c3.55,3.76,7.13,7.51,10.62,11.12Z"/><path class="cls-6" d="M151.69,188.9c-3.11-3.17-6.49-6.58-10-10.13l-.26-.26.26-.29c3.47-3.76,6.78-7.46,9.87-11l.38-.43.41.46c3.2,3.55,6.2,7,8.84,10.28l.44.52-.44.52C158.33,181.88,155.13,185.38,151.69,188.9Zm0-.23c3.09-3.79,6-7.54,8.65-11.15v1c-2.62-3.32-5.59-6.84-8.76-10.48h.81c-3.17,3.43-6.58,7-10.13,10.65v-.55c3.32,3.66,6.52,7.19,9.43,10.48Z"/><path class="cls-6" d="M168,187.12c-1.92-2.65-4.25-5.61-6.92-8.85l-.21-.23.21-.29c2.67-3.52,5-6.87,7-10l.24-.38.26.41a65.13,65.13,0,0,1,4.83,8.93l.17.44a2.41,2.41,0,0,1-.2.44A58,58,0,0,1,168,187.12Zm0-.2a75.84,75.84,0,0,0,5-10.13l0,.9a73.74,73.74,0,0,0-4.92-9.14l.53,0c-2,3-4.37,6.26-7.11,9.67v-.53c2.51,3.35,4.69,6.43,6.49,9.2Z"/><path class="cls-6" d="M175.36,184.33a22.24,22.24,0,0,0-2-6.9c0-.06-.06-.15-.09-.2l.09-.24a29.56,29.56,0,0,0,2.15-8.29l0-.29,0,.35a12.86,12.86,0,0,1-1.19,7c-.06.09-.12.21-.18.29l.18.35A15.5,15.5,0,0,1,175.36,184.33Zm0-.15a20.81,20.81,0,0,0-.7-8.44v.67a14.45,14.45,0,0,0,.87-7.1l.06,0a25.46,25.46,0,0,1-2,8v-.43a25.75,25.75,0,0,1,1.81,7.24Z"/><path class="cls-7" d="M175.56,173.94a10.1,10.1,0,0,1-1,3.08,22.74,22.74,0,0,0,1-5.12,14.73,14.73,0,0,1-.26,4.4A4.09,4.09,0,0,0,175.56,173.94Z"/><path class="cls-6" d="M75.2,191.75c-.44-3.26-2.42-5.76-1.46-8.5l.06-.2a.23.23,0,0,1-.06-.12c-.93-1.57.82-4.16.9-6.52v-.29l0,.35c.32,3.84.67,4.89,2.36,9,.06.17.15.34.23.52l-.17.35A15.35,15.35,0,0,0,75.2,191.75Zm0-.14a23.26,23.26,0,0,1,1.48-6.35c0,.29,0,.58,0,.84-1.51-4.07-1.86-5.18-2.07-9.08,0,0,0,0,0,.06-.14,2.3-2,4.8-1.07,6.29v-.32c-.85,2.76,1.16,5.27,1.6,8.56Z"/><path class="cls-7" d="M74.76,181.56c-.09.59-2.18,1.78-1.86,2.25-.35-1.2,1.71-3,1.8-4.25a17,17,0,0,0,1.08,5.67C74.64,182.7,75.11,184.3,74.76,181.56Z"/><path class="cls-6" d="M82.53,196.18A61.53,61.53,0,0,1,77,186l-.09-.24.06-.17a63.3,63.3,0,0,1,4.31-8.24c.09-.11.15-.26.23-.38l.26.41a121.81,121.81,0,0,0,7.4,10.22l.46.58-.43.44C86.61,191.46,84.34,194,82.53,196.18Zm0-.18c1.6-2.5,3.58-5.35,5.85-8.47,0,.35,0,.67.06,1a118.77,118.77,0,0,1-7.07-10.39l.49,0a64.75,64.75,0,0,0-4.63,7.94,3.1,3.1,0,0,0,0-.43A65.25,65.25,0,0,0,82.53,196Z"/><path class="cls-6" d="M98.48,199c-3.34-3.52-6.52-7.13-9.37-10.65l-.2-.27.2-.23c2.45-3.06,5.21-6.37,8.24-9.9l.38-.43c.14.14.26.29.4.46,3.24,3.58,6.7,7.25,10.25,10.86l.58.58-.55.53C104.89,193.21,101.54,196.26,98.48,199Zm0-.2c2.71-3.06,5.68-6.44,8.85-10,0,.35,0,.73,0,1.08-3.46-3.7-6.84-7.42-10-11.06l.78,0c-3.17,3.4-6,6.6-8.61,9.54,0-.17,0-.35,0-.49,2.7,3.58,5.73,7.28,8.93,10.89Z"/><path class="cls-6" d="M119.3,200.25c-3.67-3.4-7.4-7-11-10.56l-.26-.27.26-.26c3.32-3.46,6.81-7.13,10.39-10.89l.44-.46.47.46c3.69,3.67,7.42,7.37,11,10.86l.58.58-.58.53C126.81,193.7,123,197.08,119.3,200.25Zm0-.23c3.31-3.47,6.75-7.13,10.18-10.92v1.11c-3.55-3.58-7.21-7.34-10.82-11.06h.93c-3.7,3.64-7.31,7.19-10.74,10.54v-.56c3.43,3.73,7,7.4,10.45,10.89Z"/><path class="cls-6" d="M141.13,199.87c-3.35-3.08-6.93-6.43-10.6-9.92l-.29-.26.29-.3c3.58-3.69,7.16-7.48,10.66-11.2l.43-.47.44.47c3.49,3.55,6.81,7,9.87,10.21l.49.53-.52.55C148.46,193,144.82,196.47,141.13,199.87Zm0-.2c3.35-3.67,6.63-7.45,9.75-11.21l0,1.08c-3-3.29-6.29-6.78-9.72-10.42H142c-3.55,3.64-7.25,7.3-10.94,10.89v-.56c3.52,3.52,6.89,7,10.07,10.22Z"/><path class="cls-6" d="M160.14,197.86c-2.45-2.62-5.27-5.53-8.36-8.7l-.23-.23c.09-.09.17-.21.26-.29,3.2-3.7,6.23-7.37,8.91-10.89l.35-.44a3.58,3.58,0,0,0,.35.41c2.62,3.23,4.92,6.23,6.78,8.94l.29.43-.35.53A117.85,117.85,0,0,1,160.14,197.86Zm0-.17a131.51,131.51,0,0,0,7.39-10.92c0,.32,0,.64-.06,1-1.89-2.76-4.16-5.82-6.78-9.14l.67,0c-2.74,3.43-5.82,7-9.11,10.59a3,3,0,0,1,0-.52c2.91,3.26,5.56,6.31,7.86,9.05Z"/><path class="cls-6" d="M172.51,194.28a67.33,67.33,0,0,0-4.46-6.92l-.14-.21.17-.29a67.77,67.77,0,0,0,5.13-9.9l.14-.37.15.35a23.83,23.83,0,0,1,1.89,7l0,.32a2.88,2.88,0,0,1-.06.47A31.36,31.36,0,0,1,172.51,194.28Zm0-.17a41,41,0,0,0,2.79-10c0,.26,0,.52,0,.78a26.69,26.69,0,0,0-2.09-7.19l.29-.06a62.94,62.94,0,0,1-5.13,9.67,2.48,2.48,0,0,1,0-.47,72.83,72.83,0,0,1,4.14,7.28Z"/><path class="cls-6" d="M78.37,202.2A35,35,0,0,1,75.23,192c0-.08,0-.17,0-.23v-.14a21.21,21.21,0,0,1,1.63-6.12l.11-.29c.06.15.12.29.18.41a63.26,63.26,0,0,0,5.47,10.16l.38.55-.29.35A67.72,67.72,0,0,0,78.37,202.2Zm0-.17A70.4,70.4,0,0,1,82,195.59c0,.3.06.62.09.91a64.18,64.18,0,0,1-5.21-10.34l.29.12a20.79,20.79,0,0,0-1.9,5.79,2.48,2.48,0,0,0,0-.38A41.28,41.28,0,0,0,78.34,202Z"/><path class="cls-6" d="M90.57,206.89a95.5,95.5,0,0,1-8-10.45l-.17-.26.14-.21c1.69-2.41,3.76-5.15,6.17-8.21l.29-.37.35.43c2.83,3.55,6,7.16,9.26,10.68l.52.59-.46.43C95.66,202.32,92.92,204.76,90.57,206.89Zm0-.18c2.06-2.41,4.45-5.18,7.13-8.23,0,.35,0,.67.06,1-3.21-3.58-6.26-7.25-9-10.86l.67.09c-2.53,2.91-4.71,5.56-6.52,7.85,0-.14,0-.29,0-.43A116.52,116.52,0,0,0,90.54,206.71Z"/><path class="cls-6" d="M109,209.51c-3.55-3.23-7.07-6.7-10.42-10.22l-.26-.26.23-.23,9.23-9.73.41-.43.46.46c3.55,3.64,7.22,7.22,10.83,10.63l.58.55-.58.5C115.83,204,112.31,206.89,109,209.51Zm0-.21c2.94-2.91,6.08-6.14,9.37-9.6l0,1.05c-3.55-3.47-7.13-7.14-10.59-10.83l.87,0c-3.43,3.34-6.67,6.49-9.61,9.37,0-.17,0-.32,0-.49C102.24,202.46,105.62,206,109,209.3Z"/><path class="cls-6" d="M130.18,210.06c-3.46-2.94-7.1-6.14-10.77-9.52l-.29-.26.26-.26c3.44-3.38,7-7,10.6-10.66l.44-.46.46.44c3.64,3.52,7.13,6.89,10.45,10l.53.49-.59.53C137.61,203.77,133.85,207,130.18,210.06Zm0-.2c3.32-3.26,6.73-6.78,10.07-10.45,0,.35,0,.7,0,1-3.24-3.18-6.7-6.61-10.25-10.19h.9c-3.7,3.58-7.39,7-10.94,10.3V200c3.52,3.49,7,6.81,10.24,9.84Z"/><path class="cls-6" d="M150.5,208.52c-2.82-2.5-6-5.3-9.31-8.38l-.27-.24.27-.29c3.46-3.58,6.87-7.28,10.1-11l.4-.47.38.41c3,3.2,5.8,6.17,8.21,8.79l.38.44-.47.55A137.2,137.2,0,0,1,150.5,208.52Zm0-.18c3.14-3.49,6.17-7.13,9-10.8l-.09,1c-2.39-2.7-5.13-5.73-8.12-9l.78-.06c-3.29,3.58-6.78,7.19-10.36,10.66a3.14,3.14,0,0,1,0-.53C144.91,202.78,147.85,205.72,150.53,208.34Z"/><path class="cls-6" d="M166.45,204.91c-1.72-1.92-3.81-4.19-6.26-6.78l-.17-.21.23-.29a123.09,123.09,0,0,0,7.57-10.71l.26-.44c.09.12.15.24.24.35a66.25,66.25,0,0,1,4.3,7l.15.32c-.09.17-.15.35-.23.52A61.41,61.41,0,0,1,166.45,204.91Zm0-.18a69.37,69.37,0,0,0,5.74-10.68,7.91,7.91,0,0,0-.06.85,66.83,66.83,0,0,0-4.4-7.22l.53-.09a112,112,0,0,1-7.66,10.48c0-.15,0-.32,0-.47,2.27,2.68,4.22,5.1,5.82,7.13Z"/><path class="cls-6" d="M175.71,199.87a18.73,18.73,0,0,0-1.92-4.74l-.09-.15c0-.08.09-.17.12-.26a38.16,38.16,0,0,0,2.79-9.87l.06-.38,0,.27a7.34,7.34,0,0,1-1,4.65l-.15.18a2.6,2.6,0,0,1,.12.46A21.89,21.89,0,0,1,175.71,199.87Zm0-.14a27.28,27.28,0,0,0,.12-10.07v.67a8.63,8.63,0,0,0,.75-4.87.25.25,0,0,0,.06-.14A32.61,32.61,0,0,1,174,195l0-.41a19.87,19.87,0,0,1,1.72,5.13Z"/><path class="cls-7" d="M175.16,189.25a18.27,18.27,0,0,1-1.31,4.16,34.17,34.17,0,0,0,1.42-6.14,8.6,8.6,0,0,1-.2,3A1.17,1.17,0,0,0,175.16,189.25Z"/><path class="cls-6" d="M76.45,206.07A25.4,25.4,0,0,1,76,195.62a.88.88,0,0,1,.06-.26.06.06,0,0,0-.06-.06,6.45,6.45,0,0,1-.81-3.84v-.2c0,.14,0,.29.06.4a36.89,36.89,0,0,0,3.17,10.19c.09.21.17.38.26.56l-.17.23A18.47,18.47,0,0,0,76.45,206.07Zm0-.14A23,23,0,0,1,78,201.56l.09.79A36.94,36.94,0,0,1,75.17,192a.71.71,0,0,1,.06.24,5,5,0,0,0,.64,3.55v-.32a27.93,27.93,0,0,0,.55,10.42Z"/><path class="cls-7" d="M75.52,196.5c-.15.23-.15.37,0,.4a6.69,6.69,0,0,1-.15-2.32A35.16,35.16,0,0,0,77,201,21.59,21.59,0,0,1,75.52,196.5Z"/><path class="cls-6" d="M84.72,212.68a57.78,57.78,0,0,1-6.29-10.25l-.12-.26.06-.14a66.82,66.82,0,0,1,3.87-6.14l.2-.3.3.44a102.35,102.35,0,0,0,7.91,10.48l.47.55-.38.32Q87.2,210.53,84.72,212.68Zm0-.17c1.42-1.75,3.11-3.82,5.15-6.23,0,.29.06.58.11.87a103,103,0,0,1-7.65-10.6l.49.15c-1.77,2.27-3.17,4.22-4.19,5.82,0-.14,0-.26-.06-.38a62.67,62.67,0,0,0,6.15,10.37Z"/><path class="cls-6" d="M100.2,216.87a114.16,114.16,0,0,1-9.55-9.75l-.23-.26.18-.18c2.18-2.32,4.68-5,7.51-8a4.33,4.33,0,0,0,.34-.38l.44.47c3.32,3.55,6.81,7,10.31,10.27l.58.53-.53.4C105.94,212.62,102.91,214.92,100.2,216.87Zm0-.14c2.39-2.24,5.07-4.84,8-7.75l.06.94c-3.44-3.29-6.84-6.82-10.05-10.43l.79.09c-2.94,2.85-5.56,5.42-7.86,7.63l-.06-.44a125.35,125.35,0,0,0,9.17,10Z"/><path class="cls-6" d="M119.7,218.71c-3.46-2.71-7-5.71-10.59-8.94l-.26-.23.23-.24c3.06-2.82,6.34-6,9.78-9.34l.44-.44.46.44c3.64,3.41,7.22,6.67,10.63,9.61l.55.46-.58.47C126.69,213.55,123.11,216.29,119.7,218.71Zm0-.18c3.06-2.65,6.26-5.67,9.61-8.93l0,.93c-3.35-3-6.87-6.29-10.42-9.78l.9,0c-3.55,3.26-7,6.28-10.13,9,0-.15,0-.32,0-.47,3.41,3.38,6.81,6.47,10.1,9.23Z"/><path class="cls-6" d="M140.05,218.15c-3-2.27-6.34-4.92-9.81-7.83-.09-.08-.17-.14-.26-.23l.26-.26c3.44-3.2,7-6.64,10.45-10.22l.44-.44.43.41c3.29,3.12,6.38,6,9.14,8.5l.44.41-.52.49C147.21,212.24,143.63,215.33,140.05,218.15Zm0-.17c3.26-3,6.52-6.32,9.69-9.78,0,.29-.06.61-.08.9-2.74-2.59-5.77-5.5-9-8.67l.85-.06c-3.56,3.46-7.19,6.81-10.75,9.89v-.46C134.08,212.86,137.2,215.59,140.08,218Z"/><path class="cls-6" d="M158.07,215.18q-3.27-2.7-7.51-6.43l-.2-.17.26-.27c3.26-3.43,6.37-7,9.22-10.62l.35-.44c.12.12.21.24.32.35,2.39,2.62,4.46,5,6.12,6.9l.26.32c-.12.18-.26.35-.38.53A86.68,86.68,0,0,1,158.07,215.18Zm0-.14A98.3,98.3,0,0,0,166,204.71a8.09,8.09,0,0,1-.12.84q-2.53-3.06-6.08-7.1l.67-.12c-2.91,3.52-6.09,7-9.41,10.36l.06-.46c2.62,2.62,5,4.89,7,6.81Z"/><path class="cls-6" d="M170.53,209.86c-1-1.25-2.36-2.83-4.08-4.72,0-.06-.09-.09-.11-.14l.17-.29a67.89,67.89,0,0,0,5.85-10.54l.18-.44.14.26a17.33,17.33,0,0,1,1.81,4.84l0,.2-.09.52A35.89,35.89,0,0,1,170.53,209.86Zm0-.15a43.09,43.09,0,0,0,3.78-10.54,6.15,6.15,0,0,0-.06.73,21.81,21.81,0,0,0-2-5.06l.32-.18A59.48,59.48,0,0,1,166.77,205c0-.15,0-.3.06-.41,1.57,2,2.8,3.69,3.73,5.09Z"/><path class="cls-6" d="M80.87,216.49a35.83,35.83,0,0,1-4.39-10.18c0-.09,0-.18-.06-.27a.1.1,0,0,1,0-.08,20.2,20.2,0,0,1,1.74-4.08l.12-.2.21.43a61.57,61.57,0,0,0,6.25,10.28l.41.52-.26.24Zm0-.14c.88-1.17,1.92-2.56,3.32-4.28.06.26.09.49.15.76a58.2,58.2,0,0,1-6-10.37l.32.24a24.13,24.13,0,0,0-2,3.75c0-.11,0-.23,0-.35A37.16,37.16,0,0,0,80.84,216.35Z"/><path class="cls-6" d="M93.24,222.14a68.68,68.68,0,0,1-8.44-9.26l-.17-.26.11-.11c1.52-1.63,3.32-3.64,5.48-5.94l.26-.29.38.43a118.37,118.37,0,0,0,9.46,9.81l.52.5-.44.29C97.7,219.29,95.31,220.86,93.24,222.14Zm0-.12c1.78-1.54,3.85-3.4,6.18-5.64l.11.78a114.58,114.58,0,0,1-9.2-9.89l.64.14c-2.27,2.21-4.22,4.08-5.82,5.62a1.67,1.67,0,0,1-.06-.38A76.45,76.45,0,0,0,93.21,222Z"/><path class="cls-6" d="M110.45,225.31a112.52,112.52,0,0,1-10.16-8.18l-.26-.23.2-.17c2.5-2.16,5.3-4.66,8.35-7.48l.38-.35.44.4c3.52,3.26,7,6.32,10.48,9l.55.43-.52.38C116.53,221.53,113.33,223.6,110.45,225.31Zm0-.14c2.56-1.92,5.38-4.22,8.41-6.87,0,.26,0,.55,0,.81-3.35-2.76-6.81-5.82-10.25-9.14l.85.06q-4.77,4.07-8.71,7.16c0-.14,0-.26,0-.4A106,106,0,0,0,110.42,225.17Z"/><path class="cls-6" d="M129.72,226c-3.12-2-6.46-4.33-9.93-7l-.26-.2.26-.21c3.17-2.59,6.52-5.53,10-8.7l.43-.41.44.38c3.4,2.94,6.66,5.62,9.66,7.95l.47.37-.55.44A124.25,124.25,0,0,1,129.72,226Zm0-.11a123.62,123.62,0,0,0,9.54-8c0,.27,0,.56,0,.82-2.94-2.36-6.12-5.07-9.46-8.06l.87,0c-3.55,3.08-7,5.9-10.3,8.38v-.41c3.28,2.8,6.46,5.24,9.4,7.31Z"/><path class="cls-6" d="M148.35,224.12c-2.45-1.57-5.21-3.49-8.24-5.76l-.23-.18.26-.23c3.35-2.94,6.75-6.2,10-9.61l.41-.43.35.32c2.76,2.53,5.24,4.71,7.36,6.55l.35.29-.46.49A94.69,94.69,0,0,1,148.35,224.12Zm0-.12a95.12,95.12,0,0,0,9.08-9c-.06.26-.09.52-.15.79-2.09-1.9-4.54-4.14-7.25-6.7l.76-.12c-3.32,3.32-6.78,6.5-10.25,9.35,0-.15,0-.26,0-.41C143.49,220.28,146.08,222.32,148.38,224Z"/><path class="cls-6" d="M163.63,219.78c-1.54-1.16-3.38-2.59-5.53-4.39l-.18-.15.24-.26a94.44,94.44,0,0,0,8.06-10.19l.29-.43.2.26c1.66,1.95,3,3.55,3.93,4.83l.15.2c-.09.18-.2.35-.29.53A49.69,49.69,0,0,1,163.63,219.78Zm0-.14a58.71,58.71,0,0,0,6.58-9.9l-.15.73c-1-1.37-2.3-3-4-5a3.82,3.82,0,0,0,.53-.2,90.85,90.85,0,0,1-8.15,10,2.32,2.32,0,0,0,.05-.38c2,1.95,3.67,3.53,5.1,4.78Z"/><path class="cls-6" d="M172.77,212.94c-.53-.75-1.22-1.69-2.24-2.91l-.09-.09.15-.26a41.13,41.13,0,0,0,3.81-10.48l.09-.43a1.06,1.06,0,0,0,0,.14,4.53,4.53,0,0,1-.24,2.83l-.06.11c0,.18,0,.38.06.56A26.37,26.37,0,0,1,172.77,212.94Zm0-.11a29.36,29.36,0,0,0,1.54-10.63v.67a6,6,0,0,0,0-3.06.77.77,0,0,0,.12-.29,38.68,38.68,0,0,1-3.7,10.37l.06-.35a24.48,24.48,0,0,1,2,3.29Z"/><path class="cls-7" d="M174,203.83a22.24,22.24,0,0,1-1.92,4.69,35,35,0,0,0,2.1-6.55,6.81,6.81,0,0,1,.2,1.86C174.37,203.92,174.22,203.92,174,203.83Z"/><path class="cls-6" d="M78.4,218.94A26,26,0,0,1,76,208.55v-.35a10.15,10.15,0,0,1,.32-2.48c0-.05,0-.08,0-.14a2.3,2.3,0,0,0,.12.43,37.07,37.07,0,0,0,4.36,10.19c.12.18.21.35.32.53l-.17.14C79.94,217.75,79.13,218.36,78.4,218.94Zm0-.12c.61-.87,1.22-1.77,2-2.91.06.23.08.44.14.64a36.27,36.27,0,0,1-4.13-10.24,3.09,3.09,0,0,1,.14.32,7,7,0,0,0-.52,2.18v-.32a27,27,0,0,0,2.33,10.33Z"/><path class="cls-6" d="M88.15,225.46a43.42,43.42,0,0,1-7.22-8.76l-.14-.23,0-.09c.94-1.08,2.1-2.36,3.58-4l.18-.2c.12.14.2.29.32.43a76.77,76.77,0,0,0,8.35,9.29l.5.43-.32.21C91.41,223.77,89.66,224.73,88.15,225.46Zm0-.12c1.22-1,2.68-2.15,4.43-3.69,0,.23.11.43.17.64A71,71,0,0,1,84.57,213l.49.23-3.87,3.67-.08-.32A44.26,44.26,0,0,0,88.12,225.34Z"/><path class="cls-6" d="M102.88,229.62a65.19,65.19,0,0,1-9.52-7.28l-.23-.2.14-.12c1.9-1.45,4-3.26,6.55-5.38l.32-.26.44.38a109.33,109.33,0,0,0,10,8.26l.53.38-.44.26A73.68,73.68,0,0,1,102.88,229.62Zm-.06-.09a69.21,69.21,0,0,0,6.78-4.62c0,.23.06.43.09.64a103.44,103.44,0,0,1-9.81-8.3l.73.12q-3.93,3-6.9,5.06c0-.11-.06-.23-.09-.32A70.29,70.29,0,0,0,102.82,229.53Z"/><path class="cls-6" d="M120.34,231.43a81.51,81.51,0,0,1-9.81-5.94l-.26-.18.21-.14c2.67-1.86,5.64-4.08,8.79-6.67l.4-.32.44.35c3.41,2.71,6.73,5.12,9.78,7.13l.5.32-.53.32A77,77,0,0,1,120.34,231.43Zm0-.09a74,74,0,0,0,8.59-5.65,4.29,4.29,0,0,1,0,.64,117.83,117.83,0,0,1-9.6-7.19l.84,0c-3.26,2.48-6.35,4.6-9.14,6.38,0-.12,0-.24,0-.32a78.07,78.07,0,0,0,9.37,6.11Z"/><path class="cls-6" d="M138.36,230.84a76.72,76.72,0,0,1-8.58-4.71l-.24-.15.26-.17a123.32,123.32,0,0,0,9.87-7.83l.41-.38a4.18,4.18,0,0,1,.38.29c3,2.3,5.7,4.28,8.09,5.88l.38.26-.53.38A70.17,70.17,0,0,1,138.36,230.84Zm0-.08a69,69,0,0,0,9.29-6.84c0,.23-.09.43-.12.64-2.36-1.63-5-3.61-7.95-6l.82-.06a122.35,122.35,0,0,1-10.13,7.57v-.32a76.35,76.35,0,0,0,8.09,5Z"/><path class="cls-6" d="M154.81,227.93a69.11,69.11,0,0,1-6.41-3.66l-.17-.12.26-.2a96.44,96.44,0,0,0,9.32-8.88l.38-.41.26.23c2.12,1.84,3.9,3.32,5.38,4.51l.24.21-.41.46A57.89,57.89,0,0,1,154.81,227.93Zm0-.08a57.23,57.23,0,0,0,8.32-8.15l-.17.64c-1.49-1.26-3.23-2.77-5.33-4.66l.64-.18a85.76,85.76,0,0,1-9.49,8.68l.06-.32c2.3,1.69,4.28,3,6,4Z"/><path class="cls-6" d="M167.44,222.67c-1.08-.73-2.3-1.58-3.84-2.74l-.12-.09.21-.23a54.67,54.67,0,0,0,6.69-9.81c.09-.15.15-.29.23-.44l.12.18c1,1.28,1.63,2.24,2.13,3l.08.12-.17.52A32,32,0,0,1,167.44,222.67Zm0-.12a36.07,36.07,0,0,0,5.12-9.58,4.06,4.06,0,0,1-.11.64c-.53-.87-1.22-1.89-2.21-3.26l.34-.26a52.74,52.74,0,0,1-6.69,9.69l.09-.32C165.4,220.74,166.51,221.73,167.47,222.55Z"/><path class="cls-6" d="M84.45,227.53a27.57,27.57,0,0,1-6-8.39c0-.08-.09-.14-.12-.23l.06-.06c.64-.75,1.34-1.6,2.24-2.65l.12-.14.26.41a45.22,45.22,0,0,0,7.16,8.79l.44.4-.24.12C86.9,226.51,85.62,227,84.45,227.53Zm0-.09c.94-.73,1.93-1.49,3.12-2.45.06.18.14.35.2.53a43.41,43.41,0,0,1-7-8.79c.11.08.23.17.37.29-1,1-1.77,1.66-2.5,2.33,0-.09,0-.21-.06-.29a28.52,28.52,0,0,0,5.85,8.38Z"/><path class="cls-6" d="M97.12,231.89a39.92,39.92,0,0,1-8.85-6.26l-.21-.2.12-.06c1.31-.9,2.88-2,4.74-3.46l.24-.18.38.35a65.53,65.53,0,0,0,9.43,7.34l.52.32-.35.14A44.75,44.75,0,0,1,97.12,231.89Zm-.06-.08a36.08,36.08,0,0,0,5-2.57l.18.47A61.6,61.6,0,0,1,93,222.37l.61.18c-2,1.34-3.64,2.36-5.06,3.17a1,1,0,0,0-.12-.26,38.59,38.59,0,0,0,8.59,6.35Z"/><path class="cls-6" d="M112.51,234.31a44.3,44.3,0,0,1-9.51-4.57l-.24-.15.18-.08a76.15,76.15,0,0,0,7.16-4.43l.32-.23.43.32a80.73,80.73,0,0,0,9.67,6l.49.27-.46.2A44.27,44.27,0,0,1,112.51,234.31Zm0-.06a34.3,34.3,0,0,0,7.08-3.09c0,.15,0,.33,0,.47a69.07,69.07,0,0,1-9.49-6l.75.08a71.89,71.89,0,0,1-7.48,4.16l-.08-.23a43.76,43.76,0,0,0,9.19,4.63Z"/><path class="cls-6" d="M129.05,234.83a43.3,43.3,0,0,1-8.65-3.29l-.23-.11.2-.12a74.94,74.94,0,0,0,8.94-5.5l.41-.29.4.26a71.58,71.58,0,0,0,8.48,4.83l.4.21-.52.26A49,49,0,0,1,129.05,234.83Zm0-.06a40.37,40.37,0,0,0,8.61-4.07l-.08.46a69.37,69.37,0,0,1-8.27-4.86l.79,0a73.78,73.78,0,0,1-9.23,5.27l0-.23a40.65,40.65,0,0,0,8.21,3.46Z"/><path class="cls-6" d="M145.26,233.41a37.79,37.79,0,0,1-6.84-2.42l-.2-.09.23-.14A70.19,70.19,0,0,0,148,224l.4-.32.32.21q3.06,2,6.29,3.78l.29.15-.49.35A45.77,45.77,0,0,1,145.26,233.41Zm0-.06a42,42,0,0,0,9-5.47l-.21.49a63,63,0,0,1-6.14-3.84l.7-.12a70.48,70.48,0,0,1-9.78,6.52c0-.09,0-.14.06-.23a36.75,36.75,0,0,0,6.4,2.65Z"/><path class="cls-6" d="M159.55,230.06a44,44,0,0,1-4.74-2l-.15-.06.24-.17a57,57,0,0,0,8.5-8.09l.32-.38.2.14c1.48,1.2,2.68,2.1,3.7,2.83l.17.11-.35.44A33.68,33.68,0,0,1,159.55,230.06Zm0-.09a34.9,34.9,0,0,0,7.51-7.3c-.06.2-.11.37-.17.55-1-.79-2.21-1.75-3.67-3l.52-.23a55.24,55.24,0,0,1-8.58,7.94l.08-.23c1.4.82,2.86,1.57,4.31,2.24Z"/><path class="cls-6" d="M92.84,232.88a24.94,24.94,0,0,1-8.3-5.21l-.17-.17.08-.06c1-.67,2.1-1.34,3.41-2.24l.17-.12.35.32a39.92,39.92,0,0,0,8.76,6.32l.5.26-.26.06A45.08,45.08,0,0,1,92.84,232.88Zm-.06,0a30.8,30.8,0,0,0,3.61-1.25,3,3,0,0,0,.23.32A39,39,0,0,1,88,225.66l.53.21c-1.43.78-2.59,1.37-3.7,1.95a1.28,1.28,0,0,0-.11-.24A25,25,0,0,0,92.78,232.85Z"/><path class="cls-6" d="M106.49,234.92A28.55,28.55,0,0,1,97.2,232l-.23-.12.12,0a37.31,37.31,0,0,0,5.38-2.38l.26-.15.41.26a46.74,46.74,0,0,0,9.43,4.66l.5.18-.38.08A24.2,24.2,0,0,1,106.49,234.92Zm0,0a16.07,16.07,0,0,0,5.3-.79,1.85,1.85,0,0,0,.11.24,43.26,43.26,0,0,1-9.28-4.57l.67.11A35.68,35.68,0,0,1,97.55,232l-.11-.15a27,27,0,0,0,9,3Z"/><path class="cls-6" d="M121.19,235.79a26.23,26.23,0,0,1-8.59-1.42l-.23-.09.17-.06a38.41,38.41,0,0,0,7.43-3l.35-.17.4.2a45.2,45.2,0,0,0,8.53,3.41l.41.11-.47.12A24.66,24.66,0,0,1,121.19,235.79Zm0,0a19.86,19.86,0,0,0,7.22-1.07c0,.08,0,.14,0,.23a39.17,39.17,0,0,1-8.36-3.32l.73,0a40,40,0,0,1-7.71,2.76s0-.08-.06-.11a22.77,22.77,0,0,0,8.21,1.48Z"/><path class="cls-6" d="M136.09,235.53a22.41,22.41,0,0,1-7-.64l-.21-.06.23-.06a42.67,42.67,0,0,0,8.91-4l.38-.24.32.15a38.94,38.94,0,0,0,6.72,2.56l.33.09-.5.2A29.93,29.93,0,0,1,136.09,235.53Zm0,0a24.76,24.76,0,0,0,8.59-2.15l-.18.26a35.52,35.52,0,0,1-6.55-2.5l.73-.06a44.91,44.91,0,0,1-9.14,3.81.18.18,0,0,1,0-.12,19.35,19.35,0,0,0,6.52.76Z"/><path class="cls-6" d="M150.38,234.1a22.38,22.38,0,0,1-5.09-.64l-.15,0,.24-.09a43.07,43.07,0,0,0,9.2-5.45l.37-.29.24.12a48.59,48.59,0,0,0,4.63,2.12l.2.09-.44.29A29.44,29.44,0,0,1,150.38,234.1Zm0,0a26.19,26.19,0,0,0,8.71-4c-.09.12-.15.26-.24.38a41.69,41.69,0,0,1-4.48-2.13l.61-.17a43.09,43.09,0,0,1-9.34,5.3l.09-.15a19.35,19.35,0,0,0,4.65.79Z"/><path class="cls-10" d="M174.43,199.17a19,19,0,0,0-1.81-4.91,36,36,0,0,0,2.74-9.79c.14,2,.93,4.2.2,5.39C176.23,193.12,175.13,195.89,174.43,199.17Z"/><path class="cls-10" d="M170.56,209.77c-1-1.31-2.27-2.94-3.9-4.92a64.39,64.39,0,0,0,5.85-10.45,20.07,20.07,0,0,1,1.89,4.95A40.38,40.38,0,0,1,170.56,209.77Z"/><path class="cls-10" d="M148.38,224.06c-2.39-1.6-5.07-3.58-8-5.91,3.41-2.91,6.81-6.11,10.13-9.49q4.11,3.81,7.31,6.64A95.32,95.32,0,0,1,148.38,224.06Z"/><path class="cls-10" d="M163.63,219.73c-1.49-1.23-3.23-2.74-5.33-4.57a92.85,92.85,0,0,0,8.12-10.11c1.66,2,3,3.61,4,4.95A55.61,55.61,0,0,1,163.63,219.73Z"/><path class="cls-10" d="M154.84,227.9a68.12,68.12,0,0,1-6.17-3.81,94.12,94.12,0,0,0,9.4-8.79c2.09,1.86,3.87,3.38,5.35,4.6A60.17,60.17,0,0,1,154.84,227.9Z"/><path class="cls-10" d="M101.34,121.4c-2.36-1.63-4.43-2.91-6.2-3.9a44.68,44.68,0,0,1,9.28-5.56,39,39,0,0,1,6.61,2.64A73.18,73.18,0,0,0,101.34,121.4Z"/><path class="cls-10" d="M111.35,114.5a38.47,38.47,0,0,0-6.64-2.65,27.4,27.4,0,0,1,9-2.33,21.31,21.31,0,0,1,6.78.87A45.91,45.91,0,0,0,111.35,114.5Z"/><path class="cls-10" d="M120,119.48a74.17,74.17,0,0,0-8.39-5,47.26,47.26,0,0,1,9.08-4.11,44,44,0,0,1,8.45,3.5A81.61,81.61,0,0,0,120,119.48Z"/><path class="cls-10" d="M139.35,120.06a79.56,79.56,0,0,0-9.6-6.12,39.76,39.76,0,0,1,7.65-3,47.11,47.11,0,0,1,9.37,4.74A80.26,80.26,0,0,0,139.35,120.06Z"/><path class="cls-10" d="M91.67,130.42c-2.09-1.86-3.84-3.41-5.3-4.63a58.48,58.48,0,0,1,8.5-8.15c1.75,1,3.82,2.27,6.18,3.9A90.41,90.41,0,0,0,91.67,130.42Z"/><path class="cls-10" d="M109.6,127.42q-4.41-3.54-8-6a70.89,70.89,0,0,1,9.69-6.79,79.84,79.84,0,0,1,8.36,5A123.22,123.22,0,0,0,109.6,127.42Z"/><path class="cls-10" d="M130,126.81c-3.38-2.76-6.67-5.18-9.69-7.25a74,74,0,0,1,9.16-5.56,79.67,79.67,0,0,1,9.61,6.12C136.27,122,133.24,124.22,130,126.81Z"/><path class="cls-10" d="M149.63,128.56a113.55,113.55,0,0,0-10-8.36,76.34,76.34,0,0,1,7.4-4.45,66.57,66.57,0,0,1,9.37,7.42C154.46,124.63,152.19,126.4,149.63,128.56Z"/><path class="cls-10" d="M83.41,140.72q-2.44-3-3.88-5a53.38,53.38,0,0,1,6.61-9.81c1.46,1.22,3.2,2.76,5.27,4.63A91.48,91.48,0,0,0,83.41,140.72Z"/><path class="cls-10" d="M99.18,137.11c-2.73-2.56-5.15-4.8-7.25-6.66a97.58,97.58,0,0,1,9.38-8.91c2.35,1.63,5,3.64,8,6C105.88,130.48,102.47,133.74,99.18,137.11Z"/><path class="cls-10" d="M119.47,135.54c-3.38-3-6.58-5.7-9.55-8.06a126.86,126.86,0,0,1,10-7.86c3,2,6.31,4.48,9.69,7.25C126.4,129.46,123,132.37,119.47,135.54Z"/><path class="cls-10" d="M140.69,136c-3.49-3.29-7-6.38-10.36-9.14,3.23-2.59,6.26-4.81,9-6.67a109.31,109.31,0,0,1,10,8.36C146.75,130.74,143.83,133.24,140.69,136Z"/><path class="cls-10" d="M159.29,138.57a127,127,0,0,0-9.37-9.9c2.56-2.12,4.83-3.93,6.78-5.35a71.73,71.73,0,0,1,8.35,9.34C163.48,134.29,161.56,136.27,159.29,138.57Z"/><path class="cls-10" d="M77.5,151.35a19.19,19.19,0,0,1-1.78-5A38.87,38.87,0,0,1,79.36,136c.93,1.31,2.18,3,3.81,5A66,66,0,0,0,77.5,151.35Z"/><path class="cls-10" d="M89.61,147.8c-2.36-2.68-4.37-5-6-7.05a91.45,91.45,0,0,1,8.06-10.16c2.1,1.9,4.51,4.11,7.22,6.67C95.6,140.67,92.46,144.22,89.61,147.8Z"/><path class="cls-10" d="M108.53,145.82c-3.26-3.15-6.29-6.06-9.06-8.62,3.29-3.4,6.7-6.63,10.13-9.57,2.94,2.35,6.14,5.06,9.52,8.06C115.6,138.86,112,142.27,108.53,145.82Z"/><path class="cls-10" d="M130.36,145.41c-3.58-3.46-7.13-6.72-10.54-9.75,3.49-3.17,6.93-6.08,10.19-8.67,3.37,2.76,6.9,5.85,10.36,9.14C137.23,139,133.85,142.06,130.36,145.41Z"/><path class="cls-10" d="M151.26,146.55C148,143,144.53,139.47,141,136.18c3.11-2.79,6-5.29,8.59-7.45a120.36,120.36,0,0,1,9.4,9.9Z"/><path class="cls-10" d="M167.44,149.28a101.54,101.54,0,0,0-7.86-10.54l5.74-5.87a62.33,62.33,0,0,1,6.31,10.33C170.59,144.86,169.19,146.9,167.44,149.28Z"/><path class="cls-10" d="M81.86,158.54a66.33,66.33,0,0,1-4.25-7.13A61.12,61.12,0,0,1,83.38,141c1.63,2,3.63,4.33,6,7A113.23,113.23,0,0,0,81.86,158.54Z"/><path class="cls-10" d="M98,156.79c-3-3.23-5.74-6.26-8.12-8.93,2.85-3.58,6-7.14,9.28-10.54,2.74,2.56,5.77,5.47,9,8.61C104.65,149.52,101.22,153.15,98,156.79Z"/><path class="cls-10" d="M119.21,156c-3.58-3.56-7.07-7-10.33-10.13,3.52-3.56,7.1-7,10.62-10.13,3.38,3,6.93,6.28,10.51,9.75C126.49,148.85,122.82,152.43,119.21,156Z"/><path class="cls-10" d="M141.45,156.3c-3.52-3.67-7.16-7.31-10.74-10.74,3.49-3.35,6.87-6.47,10-9.26,3.49,3.29,6.93,6.81,10.25,10.39Z"/><path class="cls-10" d="M160.78,157.49c-2.8-3.58-5.91-7.22-9.17-10.8l7.74-7.92a103.28,103.28,0,0,1,7.89,10.54C165.46,151.73,163.28,154.49,160.78,157.49Z"/><path class="cls-10" d="M173.09,159.7a66.55,66.55,0,0,0-5.44-10.24c1.74-2.39,3.08-4.43,4.07-6.09A38.3,38.3,0,0,1,175,153.62,21,21,0,0,1,173.09,159.7Z"/><path class="cls-10" d="M76.68,168.38a22.87,22.87,0,0,1-1.83-7.1,34,34,0,0,1,2.65-9.73,61.94,61.94,0,0,0,4.16,7.13A61.24,61.24,0,0,0,76.68,168.38Z"/><path class="cls-10" d="M88.73,167.65c-2.59-3.26-4.83-6.32-6.69-9.05A117.7,117.7,0,0,1,89.58,148c2.35,2.68,5.06,5.68,8.06,8.91C94.44,160.58,91.44,164.19,88.73,167.65Z"/><path class="cls-10" d="M108.06,167.24c-3.46-3.61-6.72-7.07-9.75-10.33,3.23-3.64,6.69-7.31,10.22-10.86,3.26,3.14,6.72,6.58,10.3,10.13C115.19,159.82,111.55,163.57,108.06,167.24Z"/><path class="cls-10" d="M130.5,167.16c-3.66-3.7-7.36-7.43-10.94-11,3.64-3.64,7.28-7.19,10.8-10.54,3.58,3.47,7.22,7.08,10.77,10.74Z"/><path class="cls-10" d="M152,167.39c-3.21-3.61-6.64-7.31-10.16-11l9.46-9.63c3.29,3.58,6.4,7.22,9.22,10.8C158,160.61,155.1,163.92,152,167.39Z"/><path class="cls-10" d="M168.34,168c-2.06-3.26-4.54-6.75-7.3-10.3,2.5-3,4.66-5.77,6.4-8.15A67.39,67.39,0,0,1,173,159.76,67.29,67.29,0,0,1,168.34,168Z"/><path class="cls-10" d="M81.57,177.52a62.58,62.58,0,0,1-4.77-9.06,63.89,63.89,0,0,1,5-9.72c1.84,2.71,4,5.77,6.64,9C85.82,171.23,83.46,174.52,81.57,177.52Z"/><path class="cls-10" d="M97.76,178.16c-3.18-3.61-6.15-7.1-8.74-10.39,2.71-3.47,5.74-7.08,9-10.72,3,3.26,6.29,6.73,9.72,10.34C104.22,171.06,100.87,174.69,97.76,178.16Z"/><path class="cls-10" d="M119.15,178.42c-3.64-3.73-7.28-7.45-10.74-11.06,3.49-3.7,7.13-7.42,10.77-11.06,3.58,3.55,7.28,7.27,10.94,11C126.49,171,122.76,174.75,119.15,178.42Z"/><path class="cls-10" d="M141.62,178.33c-3.46-3.61-7.07-7.33-10.74-11,3.64-3.7,7.22-7.31,10.6-10.74,3.52,3.67,7,7.36,10.19,11C148.49,171,145.12,174.67,141.62,178.33Z"/><path class="cls-10" d="M161,177.9c-2.62-3.26-5.56-6.76-8.76-10.37,3.11-3.46,6-6.78,8.5-9.81a124.77,124.77,0,0,1,7.36,10.34C166.16,171.11,163.77,174.43,161,177.9Z"/><path class="cls-10" d="M173.35,177.11a66,66,0,0,0-4.8-9,64.13,64.13,0,0,0,4.54-8.18,32.41,32.41,0,0,1,2.44,9A28.1,28.1,0,0,1,173.35,177.11Z"/><path class="cls-10" d="M77,185.7c-1.63-4.08-2-5.18-2.3-9a27,27,0,0,1,2-8.06,61.24,61.24,0,0,0,4.69,9A60,60,0,0,0,77,185.7Z"/><path class="cls-10" d="M89.05,188c-2.59-3.32-5-6.79-7.27-10.34,2-3,4.3-6.31,7-9.75,2.59,3.29,5.53,6.78,8.7,10.36C94.35,181.74,91.56,185,89.05,188Z"/><path class="cls-10" d="M108.21,189.28c-3.53-3.67-7-7.37-10.13-11,3.11-3.46,6.46-7.1,10-10.77,3.46,3.61,7.07,7.34,10.71,11.06Z"/><path class="cls-10" d="M130.44,189.54c-3.58-3.55-7.27-7.25-10.91-11,3.64-3.7,7.33-7.43,11-11.12,3.67,3.72,7.28,7.45,10.74,11.06C137.72,182.18,134.08,185.9,130.44,189.54Z"/><path class="cls-10" d="M151.72,188.78c-3-3.23-6.31-6.72-9.75-10.3,3.49-3.7,6.87-7.34,10-10.8,3.2,3.61,6.17,7.1,8.79,10.39C158,181.53,155,185.14,151.72,188.78Z"/><path class="cls-10" d="M168,187c-1.86-2.71-4.1-5.77-6.72-9,2.71-3.46,5.09-6.78,7-9.81a63.94,63.94,0,0,1,4.89,9A67.33,67.33,0,0,1,168,187Z"/><path class="cls-10" d="M175.39,184.27a24.31,24.31,0,0,0-1.89-7.07,27.8,27.8,0,0,0,2.09-8.15c.24,2.7,1.4,5.44.47,7.39C177,178.83,175.71,181.24,175.39,184.27Z"/><path class="cls-10" d="M75.2,191.69c-.44-3.29-2.42-5.79-1.52-8.53-.9-1.54.88-4.1,1-6.43.26,3.87.61,5,2.21,9A19,19,0,0,0,75.2,191.69Z"/><path class="cls-10" d="M82.5,196.09a66.33,66.33,0,0,1-5.41-10.25,62.66,62.66,0,0,1,4.48-8.09,125.19,125.19,0,0,0,7.25,10.33C86.35,191.05,84.22,193.76,82.5,196.09Z"/><path class="cls-10" d="M98.48,198.91c-3.26-3.58-6.37-7.22-9.17-10.77,2.51-3,5.33-6.26,8.45-9.72,3.17,3.61,6.57,7.31,10.1,11C104.51,192.8,101.37,196,98.48,198.91Z"/><path class="cls-10" d="M119.3,200.14c-3.58-3.44-7.22-7.08-10.74-10.72l10.56-10.71c3.67,3.73,7.34,7.42,10.95,11C126.43,193.29,122.79,196.82,119.3,200.14Z"/><path class="cls-10" d="M141.13,199.76c-3.26-3.15-6.76-6.55-10.34-10.1,3.64-3.64,7.28-7.37,10.8-11.07,3.47,3.61,6.76,7.08,9.78,10.34C148.11,192.6,144.65,196.23,141.13,199.76Z"/><path class="cls-10" d="M160.14,197.78c-2.39-2.68-5.13-5.65-8.13-8.88,3.26-3.64,6.29-7.28,9-10.74,2.62,3.26,4.89,6.31,6.78,9A115.69,115.69,0,0,1,160.14,197.78Z"/><path class="cls-10" d="M172.51,194.2a67.33,67.33,0,0,0-4.28-7.11,65,65,0,0,0,5.12-9.78,24.24,24.24,0,0,1,2,7.11A36.18,36.18,0,0,1,172.51,194.2Z"/><path class="cls-10" d="M78.37,202.11a37.26,37.26,0,0,1-3.14-10.24,20.23,20.23,0,0,1,1.74-6,64.72,64.72,0,0,0,5.33,10.25A67.36,67.36,0,0,0,78.37,202.11Z"/><path class="cls-10" d="M90.57,206.8a104.2,104.2,0,0,1-7.83-10.54c1.74-2.35,3.87-5.06,6.34-8,2.77,3.55,5.85,7.22,9.11,10.77Z"/><path class="cls-10" d="M109,209.42c-3.46-3.29-6.93-6.78-10.19-10.33l9.4-9.55c3.53,3.67,7.14,7.28,10.75,10.74C115.45,203.57,112.11,206.66,109,209.42Z"/><path class="cls-10" d="M130.18,210c-3.37-3-6.92-6.25-10.51-9.69,3.5-3.32,7.14-6.84,10.77-10.48,3.59,3.55,7.08,7,10.37,10.1C137.26,203.42,133.68,206.83,130.18,210Z"/><path class="cls-10" d="M150.53,208.43c-2.74-2.56-5.79-5.44-9-8.56,3.52-3.52,7-7.19,10.21-10.83,3,3.24,5.77,6.23,8.15,8.91C157,201.5,153.82,205.05,150.53,208.43Z"/><path class="cls-10" d="M166.45,204.85c-1.66-2-3.69-4.34-6-7A117.4,117.4,0,0,0,168,187.27a64.77,64.77,0,0,1,4.37,7.13A67.54,67.54,0,0,1,166.45,204.85Z"/><path class="cls-10" d="M84.69,212.59a58.92,58.92,0,0,1-6.2-10.3,68.57,68.57,0,0,1,4-6,102.14,102.14,0,0,0,7.77,10.54C88.09,209.1,86.23,211,84.69,212.59Z"/><path class="cls-10" d="M100.2,216.81A129.75,129.75,0,0,1,90.83,207l7.68-7.81c3.26,3.56,6.7,7.05,10.19,10.34C105.59,212.27,102.73,214.72,100.2,216.81Z"/><path class="cls-10" d="M119.7,218.62c-3.37-2.74-6.87-5.79-10.36-9.08,3.12-2.77,6.46-5.85,10-9.17,3.58,3.43,7.13,6.69,10.5,9.69C126.34,213.2,122.93,216.09,119.7,218.62Z"/><path class="cls-10" d="M140.05,218.07c-2.94-2.33-6.14-5-9.52-8,3.5-3.14,7.08-6.55,10.6-10.07,3.26,3.14,6.31,6,9.08,8.59C146.89,212,143.46,215.16,140.05,218.07Z"/><path class="cls-10" d="M158.07,215.13c-2.1-1.87-4.54-4.08-7.25-6.61,3.29-3.38,6.43-6.93,9.32-10.48q3.57,4,6.11,7A91.87,91.87,0,0,1,158.07,215.13Z"/><path class="cls-10" d="M80.84,216.44a37.31,37.31,0,0,1-4.33-10.22,21.52,21.52,0,0,1,1.89-3.93,58.14,58.14,0,0,0,6.14,10.3C83,214.17,81.8,215.42,80.84,216.44Z"/><path class="cls-10" d="M93.21,222.08a69.83,69.83,0,0,1-8.29-9.31c1.54-1.6,3.43-3.52,5.65-5.77a112.53,112.53,0,0,0,9.31,9.84C97.38,218.94,95.14,220.69,93.21,222.08Z"/><path class="cls-10" d="M110.45,225.23a106.2,106.2,0,0,1-9.93-8.3c2.56-2.1,5.42-4.54,8.53-7.31,3.46,3.29,7,6.35,10.33,9.09C116.18,221.24,113.15,223.45,110.45,225.23Z"/><path class="cls-10" d="M129.72,225.9c-3-2-6.29-4.43-9.7-7.16,3.24-2.54,6.64-5.42,10.13-8.56,3.38,3,6.61,5.67,9.55,8A116.9,116.9,0,0,1,129.72,225.9Z"/><path class="cls-10" d="M88.15,225.4A45.07,45.07,0,0,1,81,216.61c1-1,2.18-2.27,3.72-3.84A69.68,69.68,0,0,0,93,222.08C91.09,223.48,89.52,224.56,88.15,225.4Z"/><path class="cls-10" d="M102.85,229.56a64.69,64.69,0,0,1-9.34-7.33q2.88-2.1,6.72-5.24a106.09,106.09,0,0,0,9.93,8.29A72.62,72.62,0,0,1,102.85,229.56Z"/><path class="cls-10" d="M120.32,231.37a77.89,77.89,0,0,1-9.58-6c2.73-1.8,5.76-4,9-6.52a119.39,119.39,0,0,0,9.7,7.16A70.7,70.7,0,0,1,120.32,231.37Z"/><path class="cls-10" d="M138.39,230.82A72.68,72.68,0,0,1,130,226a120,120,0,0,0,10-7.71c2.94,2.33,5.65,4.31,8,5.91A68.93,68.93,0,0,1,138.39,230.82Z"/><path class="cls-10" d="M97.09,231.86a40.05,40.05,0,0,1-8.74-6.28c1.37-.85,3-1.93,4.89-3.32a64,64,0,0,0,9.38,7.33A37.36,37.36,0,0,1,97.09,231.86Z"/><path class="cls-10" d="M112.48,234.28a43,43,0,0,1-9.34-4.63,71.65,71.65,0,0,0,7.34-4.28,76.29,76.29,0,0,0,9.57,6A37.25,37.25,0,0,1,112.48,234.28Z"/><path class="cls-10" d="M129.08,234.8a41.42,41.42,0,0,1-8.44-3.37,77.84,77.84,0,0,0,9.08-5.36,70.94,70.94,0,0,0,8.35,4.83A44,44,0,0,1,129.08,234.8Z"/><path class="cls-10" d="M145.29,233.38a37.75,37.75,0,0,1-6.61-2.54,71.3,71.3,0,0,0,9.67-6.63,69.11,69.11,0,0,0,6.23,3.81A44.84,44.84,0,0,1,145.29,233.38Z"/><path class="cls-10" d="M106.49,234.92a27.86,27.86,0,0,1-9.11-3,38.48,38.48,0,0,0,5.53-2.27,44.07,44.07,0,0,0,9.34,4.6A18.48,18.48,0,0,1,106.49,234.92Z"/><path class="cls-10" d="M121.19,235.82a25.17,25.17,0,0,1-8.41-1.45,40.28,40.28,0,0,0,7.56-2.86,39.47,39.47,0,0,0,8.45,3.35A23.91,23.91,0,0,1,121.19,235.82Z"/><path class="cls-10" d="M136.09,235.53a19.47,19.47,0,0,1-6.75-.73,44.23,44.23,0,0,0,9-3.9,39.85,39.85,0,0,0,6.64,2.54A26.12,26.12,0,0,1,136.09,235.53Z"/><path class="cls-11" d="M110.71,118c-1.95.9-3.93,1.86-5.88,2.91,2-1.6,4.1-3.08,6.11-4.39,1.63.93,3.38,2,5.21,3.23C114.26,119.1,112.46,118.49,110.71,118Z"/><path class="cls-11" d="M129.63,117.35c-1.89.64-3.84,1.34-5.82,2.15,2-1.36,3.9-2.56,5.73-3.63,2,1.16,4,2.5,6,4C133.59,118.92,131.61,118.08,129.63,117.35Z"/><path class="cls-11" d="M148,119.15c-1.57.38-3.23.85-4.95,1.4,1.63-1.1,3.17-2.06,4.57-2.91a72.18,72.18,0,0,1,5.94,4.78C151.75,121.28,149.86,120.17,148,119.15Z"/><path class="cls-11" d="M100.52,126c-1.92,1.19-3.84,2.44-5.68,3.75,2-2,3.93-3.9,6-5.67,1.55,1.13,3.18,2.41,4.92,3.84C103.93,127.19,102.18,126.55,100.52,126Z"/><path class="cls-11" d="M119.79,124.1c-2.07,1-4.16,2-6.26,3.09,2.13-1.81,4.25-3.49,6.32-5,2,1.43,4,3,6.08,4.66C123.84,125.85,121.8,125,119.79,124.1Z"/><path class="cls-11" d="M139.88,124.69c-1.87.69-3.82,1.48-5.83,2.35,2-1.57,3.85-3,5.62-4.28,2.1,1.66,4.22,3.44,6.32,5.33C144,126.9,141.91,125.76,139.88,124.69Z"/><path class="cls-11" d="M157.66,127.71q-2.1.66-4.54,1.55c1.51-1.29,2.88-2.42,4.16-3.44q2.81,2.84,5.39,5.94C161.1,130.36,159.41,129,157.66,127.71Z"/><path class="cls-11" d="M90.89,135.72c-1.75,1.39-3.38,2.79-4.89,4.22,1.63-2.18,3.37-4.34,5.21-6.41l4.39,4.23C93.91,137,92.34,136.33,90.89,135.72Z"/><path class="cls-11" d="M109.2,133c-2.1,1.22-4.2,2.48-6.26,3.79,2.12-2.1,4.25-4.14,6.4-6.09,1.89,1.57,3.87,3.29,5.94,5.13C113.18,134.82,111.15,133.85,109.2,133Z"/><path class="cls-11" d="M130.12,132.4c-2.09,1-4.25,2.1-6.43,3.2q3.27-2.92,6.38-5.5c2.15,1.83,4.33,3.78,6.52,5.82C134.46,134.67,132.28,133.51,130.12,132.4Z"/><path class="cls-11" d="M150.27,134c-1.78.76-3.61,1.57-5.56,2.47,1.86-1.68,3.64-3.28,5.3-4.71,2.06,2,4.07,4.1,6,6.26C154.17,136.65,152.25,135.31,150.27,134Z"/><path class="cls-11" d="M166.1,137.78c-1.13.47-2.38,1-3.75,1.63,1.28-1.36,2.41-2.62,3.43-3.72a65.93,65.93,0,0,1,4.14,6.49A50.76,50.76,0,0,0,166.1,137.78Z"/><path class="cls-11" d="M82.76,146.34a51.68,51.68,0,0,0-3.58,4.28A71.52,71.52,0,0,1,83,144.07c1,1.34,2.24,2.83,3.55,4.43C85.15,147.71,83.9,147,82.76,146.34Z"/><path class="cls-11" d="M98.69,143.26c-2,1.36-3.93,2.73-5.77,4.13,1.9-2.24,3.9-4.45,5.94-6.64,1.75,1.69,3.61,3.53,5.56,5.45C102.44,145.15,100.52,144.19,98.69,143.26Z"/><path class="cls-11" d="M119.35,142c-2.21,1.22-4.42,2.5-6.63,3.81,2.24-2.21,4.48-4.34,6.69-6.4,2.16,1.95,4.34,4,6.58,6.17C123.75,144.28,121.54,143.05,119.35,142Z"/><path class="cls-11" d="M141,142.33c-2.07,1-4.19,2.15-6.35,3.28,2.16-2,4.23-4,6.23-5.85,2.19,2.13,4.37,4.31,6.5,6.55C145.32,145,143.17,143.64,141,142.33Z"/><path class="cls-11" d="M159.9,144.51c-1.54.78-3.2,1.66-5,2.59,1.69-1.78,3.26-3.46,4.72-5,1.8,2.21,3.55,4.43,5.12,6.64C163.28,147.33,161.65,145.91,159.9,144.51Z"/><path class="cls-11" d="M77.09,156.85a19.46,19.46,0,0,0-1.81,3.87,42.58,42.58,0,0,1,2-6.08c.62,1.34,1.43,2.85,2.36,4.45C78.63,158.28,77.79,157.52,77.09,156.85Z"/><path class="cls-11" d="M89.2,154.14c-1.72,1.37-3.29,2.74-4.78,4.08,1.52-2.18,3.15-4.43,4.92-6.64,1.52,1.75,3.15,3.64,4.92,5.62C92.49,156.12,90.77,155.1,89.2,154.14Z"/><path class="cls-11" d="M108.29,152.63c-2.18,1.34-4.3,2.71-6.4,4.08,2.1-2.3,4.28-4.58,6.49-6.85,2.07,2,4.22,4.2,6.4,6.38C112.57,155,110.42,153.79,108.29,152.63Z"/><path class="cls-11" d="M130.42,152.34c-2.25,1.25-4.52,2.53-6.79,3.84,2.27-2.27,4.54-4.48,6.76-6.64,2.27,2.22,4.54,4.49,6.78,6.79C134.93,155,132.69,153.62,130.42,152.34Z"/><path class="cls-11" d="M151.61,153.21c-1.9,1.08-3.9,2.19-6,3.38,2-2.1,4-4.13,5.85-6.06,2,2.27,4,4.54,5.91,6.79C155.54,156,153.62,154.58,151.61,153.21Z"/><path class="cls-11" d="M167.88,155.28l-4,2.71c1.43-1.84,2.71-3.53,3.84-5.13,1.4,2.19,2.62,4.34,3.7,6.44C170.29,157.9,169.13,156.56,167.88,155.28Z"/><path class="cls-11" d="M81.63,164.71c-1.16,1.14-2.27,2.36-3.32,3.61a68.39,68.39,0,0,1,3.41-6.08c1.16,1.77,2.47,3.66,4,5.67C84.19,166.78,82.82,165.73,81.63,164.71Z"/><path class="cls-11" d="M97.81,163.75c-2,1.34-3.9,2.65-5.67,3.93,1.8-2.21,3.75-4.45,5.76-6.73,1.89,2.1,3.9,4.25,6,6.5Q100.7,165.53,97.81,163.75Z"/><path class="cls-11" d="M119.15,163.31c-2.27,1.34-4.54,2.68-6.78,4,2.24-2.33,4.51-4.63,6.81-7,2.27,2.27,4.54,4.57,6.84,6.9C123.72,166,121.42,164.62,119.15,163.31Z"/><path class="cls-11" d="M141.56,163.46l-6.63,3.87c2.24-2.3,4.45-4.54,6.58-6.75q3.31,3.45,6.46,6.9C145.9,166.14,143.78,164.8,141.56,163.46Z"/><path class="cls-11" d="M161,164.13c-1.63,1.1-3.41,2.27-5.24,3.49,1.83-2.12,3.58-4.19,5.18-6.14,1.75,2.21,3.35,4.39,4.8,6.49C164.27,166.72,162.67,165.44,161,164.13Z"/><path class="cls-11" d="M173.29,165.38a37.55,37.55,0,0,1-2.65,2.85,54.57,54.57,0,0,0,2.59-5.12,38.43,38.43,0,0,1,1.84,5.65A16.27,16.27,0,0,0,173.29,165.38Z"/><path class="cls-11" d="M76.65,174.11a12.61,12.61,0,0,0-1.57,2.77,30.65,30.65,0,0,1,1.57-5,57.25,57.25,0,0,0,2.68,5.65A37.48,37.48,0,0,1,76.65,174.11Z"/><path class="cls-11" d="M88.7,174.37c-1.63,1.2-3.17,2.33-4.57,3.44,1.37-1.95,2.91-4,4.57-6.11,1.63,2.09,3.44,4.27,5.3,6.49C92.14,176.88,90.39,175.63,88.7,174.37Z"/><path class="cls-11" d="M108,174.55c-2.18,1.31-4.28,2.59-6.34,3.84,2-2.21,4.16-4.45,6.34-6.75,2.18,2.27,4.4,4.6,6.67,6.93C112.46,177.2,110.21,175.86,108,174.55Z"/><path class="cls-11" d="M130.5,174.58l-6.87,4c2.3-2.32,4.6-4.65,6.87-7,2.3,2.33,4.57,4.66,6.79,6.93Z"/><path class="cls-11" d="M152,174.49c-2,1.28-4.05,2.62-6.18,3.93,2.13-2.3,4.2-4.57,6.18-6.78,2,2.24,3.87,4.39,5.64,6.49C155.86,177,154,175.74,152,174.49Z"/><path class="cls-11" d="M168.4,174.26c-1.25,1.16-2.68,2.38-4.22,3.64,1.54-2.13,3-4.2,4.22-6.15,1.25,2,2.36,3.88,3.29,5.68C170.73,176.41,169.63,175.36,168.4,174.26Z"/><path class="cls-11" d="M81.75,183.75c-1.2.93-2.25,1.8-3.12,2.59q1.28-2.35,3-5.07c1.28,2.1,2.74,4.25,4.34,6.46C84.45,186.4,83,185.06,81.75,183.75Z"/><path class="cls-11" d="M97.9,185.14c-1.92,1.14-3.75,2.25-5.47,3.29,1.69-1.92,3.49-4,5.41-6.08,2,2.27,4.11,4.57,6.23,6.84C102,187.85,99.88,186.51,97.9,185.14Z"/><path class="cls-11" d="M119.18,185.76c-2.27,1.28-4.48,2.56-6.67,3.78,2.19-2.18,4.4-4.42,6.67-6.7,2.27,2.3,4.57,4.6,6.84,6.85C123.72,188.4,121.45,187.09,119.18,185.76Z"/><path class="cls-11" d="M141.51,185.58c-2.19,1.34-4.43,2.71-6.67,4,2.27-2.27,4.51-4.6,6.72-6.9q3.24,3.31,6.2,6.46C145.76,188,143.66,186.8,141.51,185.58Z"/><path class="cls-11" d="M160.86,184.59c-1.71,1.34-3.52,2.68-5.41,4q2.93-3.4,5.5-6.73c1.6,2,3.09,3.87,4.43,5.65C164,186.66,162.49,185.64,160.86,184.59Z"/><path class="cls-11" d="M173.21,182.82a36,36,0,0,1-2.89,3.84,56,56,0,0,0,3-6.14,28.88,28.88,0,0,1,1.55,4.45A16.41,16.41,0,0,0,173.21,182.82Z"/><path class="cls-11" d="M77.29,191.26a14.93,14.93,0,0,0-1.54,1.54,21,21,0,0,1,1.4-3.73,59.15,59.15,0,0,0,3.11,6.41A46,46,0,0,1,77.29,191.26Z"/><path class="cls-11" d="M89.43,194.43c-1.54.9-3,1.72-4.31,2.47,1.25-1.54,2.62-3.23,4.17-5,1.74,2.24,3.63,4.48,5.58,6.72C93,197.22,91.12,195.83,89.43,194.43Z"/><path class="cls-11" d="M108.41,196.21c-2.1,1.1-4.1,2.18-6,3.2,1.89-1.89,3.9-3.87,6-5.94,2.21,2.27,4.43,4.51,6.67,6.69C112.81,198.85,110.59,197.54,108.41,196.21Z"/><path class="cls-11" d="M130.39,196.58c-2.24,1.28-4.49,2.54-6.73,3.73,2.21-2.1,4.49-4.28,6.76-6.52q3.32,3.27,6.52,6.29C134.78,199,132.6,197.81,130.39,196.58Z"/><path class="cls-11" d="M151.43,195.54c-2,1.36-4.07,2.73-6.2,4.07,2.16-2.21,4.28-4.48,6.32-6.75,1.86,1.95,3.61,3.81,5.24,5.53C155.1,197.54,153.3,196.55,151.43,195.54Z"/><path class="cls-11" d="M167.65,193.09c-1.34,1.4-2.83,2.8-4.43,4.22,1.66-2.21,3.2-4.45,4.6-6.64,1.14,1.61,2.13,3.09,2.94,4.46C169.86,194.55,168.84,193.85,167.65,193.09Z"/><path class="cls-11" d="M83.09,201.82c-1.14.59-2.13,1.05-3,1.46.75-1.11,1.68-2.36,2.73-3.73,1.43,2.22,3,4.4,4.72,6.58A59.65,59.65,0,0,1,83.09,201.82Z"/><path class="cls-11" d="M99,205.23q-2.72,1.31-5.12,2.36c1.51-1.49,3.17-3.09,4.92-4.84,2,2.19,4.16,4.34,6.28,6.44C103,207.88,100.93,206.57,99,205.23Z"/><path class="cls-11" d="M119.41,206.68c-2.15,1.11-4.28,2.13-6.31,3.12,2-1.78,4.1-3.7,6.28-5.68,2.22,2.1,4.43,4.11,6.58,6C123.81,209,121.62,207.88,119.41,206.68Z"/><path class="cls-11" d="M140.87,206.25c-2.16,1.28-4.31,2.5-6.47,3.69q3.28-3,6.61-6.22,3,2.84,5.76,5.32C144.85,208.14,142.87,207.24,140.87,206.25Z"/><path class="cls-11" d="M159.58,203.86c-1.74,1.4-3.58,2.8-5.47,4.13,2-2.12,3.9-4.3,5.71-6.52,1.45,1.58,2.79,3,4,4.34C162.52,205.23,161.13,204.59,159.58,203.86Z"/><path class="cls-11" d="M172,199.55a35.54,35.54,0,0,1-3.23,4.43,54.4,54.4,0,0,0,3.44-6.55,24.45,24.45,0,0,1,1.45,3.11Z"/><path class="cls-11" d="M91.29,212.3c-1.42.56-2.76,1-4,1.4,1.1-1,2.32-2.24,3.66-3.55,1.84,2.09,3.76,4.16,5.74,6.11C94.84,215,93,213.67,91.29,212.3Z"/><path class="cls-11" d="M109.4,215.21c-2,.82-3.78,1.58-5.56,2.24,1.69-1.36,3.49-2.85,5.41-4.51q3.24,3,6.44,5.62C113.59,217.51,111.5,216.38,109.4,215.21Z"/><path class="cls-11" d="M130.07,215.82c-2.13,1.08-4.22,2.07-6.29,3,2.07-1.63,4.19-3.4,6.34-5.27,2.07,1.78,4.11,3.41,6,4.92C134.17,217.66,132.13,216.76,130.07,215.82Z"/><path class="cls-11" d="M149.92,214.14c-2,1.28-4,2.47-6,3.63,2.1-1.86,4.22-3.81,6.26-5.88,1.69,1.49,3.23,2.86,4.66,4.08C153.3,215.45,151.64,214.81,149.92,214.14Z"/><path class="cls-11" d="M165.67,210.12c-1.43,1.45-3,2.85-4.6,4.22,1.74-2,3.4-4.13,5-6.29,1,1.17,1.89,2.16,2.64,3.06C167.79,210.85,166.77,210.53,165.67,210.12Z"/><path class="cls-11" d="M85.7,217.31c-1.07.23-2,.41-2.88.52.73-.67,1.55-1.45,2.48-2.35a65.76,65.76,0,0,0,5.06,5.76A50.16,50.16,0,0,1,85.7,217.31Z"/><path class="cls-11" d="M101,221.68c-1.63.49-3.18.93-4.6,1.31,1.31-.94,2.73-2,4.28-3.18,2,1.84,4.1,3.52,6.17,5.1Q103.84,223.38,101,221.68Z"/><path class="cls-11" d="M119.88,223.57c-1.95.75-3.87,1.45-5.71,2.06,1.78-1.16,3.67-2.5,5.65-3.95,2.07,1.6,4.1,3,6.05,4.36C123.92,225.28,121.92,224.47,119.88,223.57Z"/><path class="cls-11" d="M139.58,223c-2,1-4,1.95-6.05,2.82,2-1.43,4.13-3,6.23-4.72q2.7,2,5.06,3.61C143.17,224.21,141.42,223.63,139.58,223Z"/><path class="cls-11" d="M157.14,219.93c-1.75,1.25-3.55,2.44-5.42,3.55,2-1.69,3.93-3.49,5.8-5.41,1.28,1,2.41,2,3.46,2.79C159.82,220.6,158.53,220.31,157.14,219.93Z"/><path class="cls-11" d="M94.38,226c-1.28.21-2.5.38-3.61.5.93-.56,2-1.2,3.14-2a58.9,58.9,0,0,0,5.8,4.48C97.87,228.08,96.1,227.09,94.38,226Z"/><path class="cls-11" d="M111.06,229.07c-1.69.44-3.32.78-4.86,1.08,1.42-.7,3-1.55,4.63-2.54a68.45,68.45,0,0,0,6,3.61C114.87,230.61,113,229.88,111.06,229.07Z"/><path class="cls-11" d="M129.54,229.74c-1.92.67-3.78,1.25-5.62,1.77,1.81-.9,3.73-2,5.68-3.2,1.86,1.11,3.61,2.07,5.27,2.88C133.15,230.76,131.38,230.29,129.54,229.74Z"/><path class="cls-11" d="M147.47,227.93c-1.86.94-3.75,1.78-5.64,2.57a71.62,71.62,0,0,0,6-4c1.43.87,2.77,1.63,4,2.24C150.44,228.52,149,228.25,147.47,227.93Z"/><path class="cls-11" d="M103.93,232.27c-1.4.15-2.71.23-3.93.26a28.4,28.4,0,0,0,3.49-1.25,42.18,42.18,0,0,0,5.82,2.71C107.54,233.52,105.73,232.94,103.93,232.27Z"/><path class="cls-11" d="M120.58,233.87c-1.69.32-3.29.56-4.86.7a30.37,30.37,0,0,0,4.74-1.6,37.14,37.14,0,0,0,5.3,1.89C124.1,234.63,122.38,234.28,120.58,233.87Z"/><path class="cls-11" d="M137.69,233.38c-1.8.52-3.61,1-5.35,1.34a40.66,40.66,0,0,0,5.64-2.25,34.47,34.47,0,0,0,4.2,1.4C140.75,233.76,139.26,233.58,137.69,233.38Z"/><path class="cls-5" d="M115.16,234.1a18.31,18.31,0,0,1-8.44.85,19.49,19.49,0,0,0,5.79-.61,24.66,24.66,0,0,0,8.42,1.45A12.64,12.64,0,0,1,115.16,234.1Z"/><path class="cls-6" d="M115.19,234.1a18.93,18.93,0,0,1-8.59.85l-.23,0h.12a18.37,18.37,0,0,0,5.65-.7l.26-.09.38.15a25.6,25.6,0,0,0,8.5,1.54h.4l-.38,0A16,16,0,0,1,115.19,234.1Zm0,0a10.67,10.67,0,0,0,5.39,1.66s0,0,.06,0a23.54,23.54,0,0,1-8.36-1.36l.67,0a20,20,0,0,1-5.91.5l-.11,0A16.87,16.87,0,0,0,115.16,234.13Z"/><path class="cls-5" d="M113.27,237.22c-1,0-5.94.49-6.81-.2-.23-.18,1.08-2.36,1.37-2.36.73,0,3.93-.56,4.65-.64l1.08-.24c1.72.41,4.54,1.93,9.81,1.81l2.24-1.08c.91-.14,17.32-.84,18.22.06C146.6,237.31,114.26,237.34,113.27,237.22Z"/><path class="cls-5" d="M128.2,234.13a14.46,14.46,0,0,1-6.78,1.69,22.08,22.08,0,0,0,7.63-1,20.38,20.38,0,0,0,6.78.7A17.07,17.07,0,0,1,128.2,234.13Z"/><path class="cls-6" d="M128.2,234.1a16.43,16.43,0,0,1-6.95,1.72h0a21.07,21.07,0,0,0,7.51-1l.35-.11.32.09a22.71,22.71,0,0,0,6.87.78l.32,0-.44,0A19.41,19.41,0,0,1,128.2,234.1Zm0,.06a14.79,14.79,0,0,0,7.31,1.43h-.12a18.68,18.68,0,0,1-6.69-.61l.67,0a23,23,0,0,1-7.75.87l0,0a14.47,14.47,0,0,0,6.6-1.69Z"/><path class="cls-5" d="M128.81,235.76a40.1,40.1,0,0,1-4.65.09,18.63,18.63,0,0,0,4.77-.35,17.75,17.75,0,0,0,4.25.18C131.78,235.76,130.33,235.79,128.81,235.76Z"/><path class="cls-12" d="M141.24,234.1a12.39,12.39,0,0,1-4.92,1.4,26.8,26.8,0,0,0,8.91-2.06,20.42,20.42,0,0,0,4.92.69A19.16,19.16,0,0,1,141.24,234.1Z"/><path class="cls-6" d="M141.22,234.1a14.2,14.2,0,0,1-5.13,1.43h.09a26.3,26.3,0,0,0,8.82-2.15l.38-.18.26.06a24.17,24.17,0,0,0,5,.76h.23l-.5.11A21.12,21.12,0,0,1,141.22,234.1Zm.05,0a17.48,17.48,0,0,0,8.68,0,.88.88,0,0,0-.26.12,19.31,19.31,0,0,1-4.84-.64l.64-.09a27,27,0,0,1-9,2h.06a12.06,12.06,0,0,0,4.71-1.4Z"/><path class="cls-7" d="M144.07,234.69a43.66,43.66,0,0,1-5.1.67,24.89,24.89,0,0,0,5.59-1.08,17.64,17.64,0,0,0,3.09.2C146.51,234.57,145.32,234.63,144.07,234.69Z"/></g><path class="cls-1" d="M175.45,178.33c0,44-22.62,58.86-50.51,58.86s-50.5-14.87-50.5-58.86,22.62-70,50.5-70S175.45,134.32,175.45,178.33Z"/><path class="cls-13" d="M138.25,110.45c14.81,11,24.74,32.22,24.74,61.39,0,44-22.62,58.86-50.51,58.86a61,61,0,0,1-19.12-2.82c8.65,6.57,19.62,9.28,31.58,9.28,27.89,0,50.51-14.84,50.51-58.86C175.45,141.57,159.7,117.44,138.25,110.45Z"/><path class="cls-14" d="M170.38,55.64A83.16,83.16,0,0,1,192.7,46a70,70,0,0,0-25.26,3.07A77,77,0,0,0,142.67,62a69.24,69.24,0,0,1,12.78-10.22,65.81,65.81,0,0,1,17.94-8A57.08,57.08,0,0,0,153,46.47a60.49,60.49,0,0,0-14.7,6.91,56,56,0,0,1,12.14-10.66c8.49-5.9,17.81-7.83,18.55-8.12-.76.13-11-1.48-22.33,2.12a51.77,51.77,0,0,0-12,5.13c.69-12.53.69-22.22.69-22.22s-4.48,10.3-9.24,23.4c-.67-11.34-1.47-19.76-1.47-19.76s-1.34,6.77-2.93,16.35c-4.82-14.22-9.64-25.78-9.64-25.78s-.24,13.89.68,29.94c-.6-.29-1.21-.57-1.82-.83-12-5.78-25.65-5.78-26.56-6.07.79.45,10.94,4,18.11,11.52A55.45,55.45,0,0,0,93.68,45a55.89,55.89,0,0,0-20.43-2.36,67.63,67.63,0,0,1,18.07,7.68A73.43,73.43,0,0,1,107,63.14,76.64,76.64,0,0,0,83.73,53.4C70.13,50,59.23,52.12,58.3,52a84.14,84.14,0,0,1,22.92,8.11C90.4,64.8,99.71,72.3,106.93,80.19a73.72,73.72,0,0,0-16.6-6c-13.59-3.46-24.51-1.28-25.41-1.4a83.73,83.73,0,0,1,22.91,8.13,87.7,87.7,0,0,1,17.84,12.35,49.68,49.68,0,0,0-6.25-1.85C89.23,88.85,80.64,94.82,80,94.76c.7.21,9.29-2.82,17.58,1.75a84.44,84.44,0,0,1,9.21,5.49,22.59,22.59,0,0,0-2.86.42,27.4,27.4,0,0,0-9.75,4,29.49,29.49,0,0,1,9.89-.72,31.27,31.27,0,0,1,7.64,1.65,30.17,30.17,0,0,0-12.64,4,27.13,27.13,0,0,0-7.46,6.41,32.37,32.37,0,0,1,8.59-3.88,37.71,37.71,0,0,1,16.16-.81c.28-.29.55-.59.81-.89l.79.4c-.56,1-1.11,2.07-1.6,3.14l2.33,1a12.69,12.69,0,0,0,2,.2,39.71,39.71,0,0,0,6.44-.55l.9-.12,0,0a47.4,47.4,0,0,0,5.16-.84,28.36,28.36,0,0,0,5.94-2.24s0-.07-.05-.1a32.64,32.64,0,0,1,9.89,0,16.86,16.86,0,0,1,7,2.56c-.2-.17-1.54-4.74-5.15-6.66a19.68,19.68,0,0,0-10.25-2.24c2.87-.59,5.8.29,6,.2-.16.05-1.64-1.67-3.65-2.95.83-.39,1.66-.77,2.49-1.07a32.54,32.54,0,0,1,9.17-2,27.14,27.14,0,0,0-9.81-.64,27.9,27.9,0,0,0-3.33.56,65.15,65.15,0,0,1,13.25-9.14c8.3-4.57,15.66-.15,16.33-.35-.67.06-8-7.31-18.19-4.72a53.8,53.8,0,0,0-9.88,3.3,91,91,0,0,1,21.23-15.44c11.09-6.11,22-3.55,22.91-3.84-.87.15-11.79-6.34-25.38-2.88a70,70,0,0,0-10,3.07A89.79,89.79,0,0,1,170.38,55.64Z"/><path class="cls-15" d="M126.78,81.31c-1.17,23.47-3.61,27.1-6.38,27s-4.83-4-3.67-27.48,7.92-57.55,7.92-57.55S127.94,57.85,126.78,81.31Z"/><path class="cls-16" d="M121.71,107.4c-2.79-.15-4.83-4-3.67-27.48.91-18,5.07-42.15,7-52.52-.23-2.62-.35-4.13-.35-4.13s-6.75,34.06-7.92,57.55.88,27.33,3.67,27.48a2.46,2.46,0,0,0,2.13-1A4,4,0,0,1,121.71,107.4Z"/><path class="cls-17" d="M130.59,77.76c-4.8,23-8.7,26-12.57,25.21s-6.26-5.12-1.46-28.15,18.8-55.19,18.8-55.19S135.36,54.74,130.59,77.76Z"/><path class="cls-15" d="M120.4,101.11C116.53,100.29,114.14,96,119,73c3.55-17,12.14-39,16.36-49.37,0-2.5,0-4,0-4s-14,32.17-18.84,55.19S114.09,102.16,118,103c1.57.32,3.17,0,4.8-2A4.1,4.1,0,0,1,120.4,101.11Z"/><path class="cls-18" d="M128.52,68.48c-4.51,9.57-5.73,16.09-7.24,19.65s-3,4.36-4.81,4-3.52-1.69-4.54-6.55c-.81-4.74-1-13.1,4.43-24.65,5.18-11.82,18.36-20.9,30.33-24.22,11.93-3.78,22.64-1.81,22.38-2.15.26.11-9.63,1.92-18.6,8.15C141.16,48.6,132.8,58.9,128.52,68.48Z"/><path class="cls-15" d="M116.3,86.41c-.82-4.75-1-13.1,4.42-24.66,5.18-11.82,18.37-20.9,30.33-24.22a53.15,53.15,0,0,1,16-2.35c1.1-.32,1.8-.5,2-.56-.78.12-11-1.48-22.32,2.13-12,3.32-25.12,12.4-30.3,24.22C111,72.52,111.15,80.91,112,85.62c1,4.89,2.68,6.11,4.54,6.55a3.27,3.27,0,0,0,2.24-.29C117.75,90.92,116.91,89.32,116.3,86.41Z"/><path class="cls-19" d="M129.48,66.76c-4.86-22.85-17.4-52.92-17.4-52.92S111.55,44,115,66.76Z"/><path class="cls-17" d="M112.25,14.51s9.64,29.34,13,52.25h4.22c-4.86-22.85-17.4-52.92-17.4-52.92s0,1,0,2.71C112.16,15.24,112.25,14.51,112.25,14.51Z"/><path class="cls-19" d="M115.48,80.21c.15,11.06-2,18.25-2.15,22.35-.38,4.17,1.25,5.21,3.7,5.13s5.32-1.23,9.34-6.29c3.73-5,8.67-13.92,8.5-27.28.26-13.59-11-25.58-23.93-31.17-12.69-6.09-27.1-5.76-26.6-6.11-.38.08,10.88,3.72,18.48,11.9C111.06,56.69,115.6,69.18,115.48,80.21Z"/><path class="cls-17" d="M134.87,74.12c.26-13.59-11-25.58-23.93-31.17-12-5.76-25.53-5.79-26.54-6.06.34.18,2.21.88,4.8,2.16a61.88,61.88,0,0,1,17.26,5.06c13,5.59,24.19,17.58,23.93,31.18.17,13.33-4.78,22.3-8.5,27.27a20.08,20.08,0,0,1-5.42,5.1H117c2.56-.15,5.32-1.23,9.34-6.29C130.1,96.45,135,87.48,134.87,74.12Z"/><path class="cls-19" d="M131.58,75.75c-5.59,8.79-7.74,14.7-9.66,18s-3.41,4.05-5,3.79-2.88-1.4-3-5.77c0-4.25,1.22-11.79,8-22.38,6.55-10.83,19.85-19.5,31.11-22.91,11.33-3.81,20.61-2.42,20.44-2.74a68.18,68.18,0,0,0-18,8C146.13,57.39,137,67,131.58,75.75Z"/><path class="cls-15" d="M120.78,92c0-4.25,1.22-11.79,7.95-22.39,6.55-10.86,19.85-19.5,31.11-22.91A52.71,52.71,0,0,1,172,44.2c.76-.23,1.25-.35,1.4-.41A57.3,57.3,0,0,0,153,46.47c-11.26,3.41-24.56,12.05-31.11,22.91-6.73,10.62-8,18.13-8,22.38s1.43,5.42,3,5.77c1.34.2,2.68-.29,4.19-2.51A13.17,13.17,0,0,1,120.78,92Z"/><path class="cls-20" d="M112.92,87.48c7.72,10.34,11,17.41,13.65,21.25s4.6,4.66,6.49,4.22,3.44-2,3.18-7.39c-.44-5.24-2.62-14.41-11.94-26.87C115.16,66,98,56.54,83.73,53.4,69.37,49.76,58,52.38,58.23,52c-.27.15,11.26,1.72,23,8.15C93.21,66.24,105.44,77.15,112.92,87.48Z"/><path class="cls-19" d="M136.21,105.56c-.44-5.24-2.62-14.41-11.94-26.87C115.13,65.94,97.93,56.54,83.7,53.4,70.1,49.93,59.19,52.12,58.28,52c.12,0,.44.12.91.21A64.81,64.81,0,0,1,78.05,54.1c14.23,3.14,31.44,12.54,40.58,25.29,9.31,12.46,11.49,21.63,11.93,26.87.15,3-.26,4.83-1,5.91a4,4,0,0,0,3.47.76C135,112.4,136.47,111,136.21,105.56Z"/><path class="cls-19" d="M140.57,85c-7,10.8-9.75,18.11-12.19,22.12-2.27,4.11-4.25,5-6.17,4.63s-3.55-1.75-3.64-7.16c.09-5.24,1.66-14.55,10.1-27.59,8.24-13.34,24.8-23.87,38.77-27.95C181.5,44.46,193,46.33,192.77,46c.26.11-11.12,2.47-22.39,9.69C158.83,62.48,147.36,74.21,140.57,85Z"/><path class="cls-15" d="M120.46,105.1c.09-5.24,1.66-14.56,10.1-27.6,8.24-13.33,24.8-23.87,38.77-27.94a66.59,66.59,0,0,1,22-3.18c.73-.2,1.19-.35,1.37-.4a70.41,70.41,0,0,0-25.27,3.08c-14,4.08-30.53,14.61-38.77,28-8.44,13-10,22.35-10.1,27.59.09,5.39,1.69,6.72,3.64,7.16a5.37,5.37,0,0,0,.72.06C121.54,111.09,120.55,109.35,120.46,105.1Z"/><path class="cls-21" d="M161.74,67.75C147.5,70.89,130.3,80.29,121.16,93a69.27,69.27,0,0,0-9.46,16.6,58.8,58.8,0,0,1,6.78,3.29c1.69.84,3.44,1.51,5.18,2.18a152,152,0,0,1,8.85-13.3c7.48-10.34,19.68-21.28,31.7-27.34,11.09-6.11,22-3.55,22.91-3.84C186.25,70.78,175.33,64.29,161.74,67.75Z"/><path class="cls-17" d="M124.1,95.08c9.14-12.75,26.34-22.15,40.58-25.29a35.26,35.26,0,0,1,19.12.67,31,31,0,0,0,3.35.2c-.9.12-11.79-6.37-25.41-2.91C147.5,70.89,130.3,80.29,121.16,93a69.27,69.27,0,0,0-9.46,16.6,19.91,19.91,0,0,1,3.17,1.39A72.7,72.7,0,0,1,124.1,95.08Z"/><path class="cls-19" d="M133.06,85.65c-.75-4.37-2.82-10.51-7.88-18.22C118.45,56.69,105,48.25,93.68,45a55.89,55.89,0,0,0-20.43-2.36,67.63,67.63,0,0,1,18.07,7.68A77.52,77.52,0,0,1,115.54,74a110.54,110.54,0,0,1,6.75,11.7Z"/><path class="cls-17" d="M88.88,45.42c11.32,3.23,24.74,11.68,31.49,22.42,4.92,7.51,7,13.47,7.83,17.81h4.89c-.75-4.37-2.82-10.51-7.88-18.22C118.48,56.69,105,48.25,93.71,45a56.07,56.07,0,0,0-20.46-2.36c.14.06.52.14,1.16.32A53,53,0,0,1,88.88,45.42Z"/><path class="cls-18" d="M132.48,98.9h-9.31c-.12-1.69-.18-3.5-.15-5.39-.11-11.73,5.36-22.09,11.7-26.9,5.88-5,12.52-5,13-5.24a30,30,0,0,0-9,10.25c-4,6.84-6.23,17.61-6.17,27.13Z"/><path class="cls-19" d="M134.72,66.58c5.88-5,12.55-5,13-5.23-.06,0-.32.23-.67.52a22,22,0,0,0-9.87,4.71c-6.35,4.84-11.82,15.17-11.7,26.93,0,1.89,0,3.7.14,5.39H123.2c-.12-1.69-.18-3.5-.15-5.39C122.91,81.78,128.38,71.42,134.72,66.58Z"/><path class="cls-18" d="M117.9,100.23h11.29a52.55,52.55,0,0,0,.18-5.41c.14-11.82-6.49-22.24-14.18-27.1-7.13-5-15.19-5-15.72-5.27a33,33,0,0,1,10.92,10.31c4.86,6.87,7.54,17.72,7.48,27.3Z"/><path class="cls-17" d="M115.19,67.72c-7.13-5-15.19-5-15.72-5.27.09.06.38.23.82.53a29.67,29.67,0,0,1,12,4.74c7.69,4.86,14.32,15.28,14.18,27.1,0,1.92-.06,3.73-.18,5.41h2.94a52.55,52.55,0,0,0,.18-5.41C129.51,83,122.88,72.58,115.19,67.72Z"/><path class="cls-20" d="M125.35,116.65l1.78-.26c2-.29,4.07-.47,6.08-1a28.36,28.36,0,0,0,5.94-2.24h0a76.83,76.83,0,0,0-8.24-13.68c-9.11-12.75-26.34-22.16-40.58-25.3-13.59-3.46-24.51-1.28-25.41-1.4a84.11,84.11,0,0,1,22.91,8.13c12,6.08,24.22,17,31.7,27.33C121.86,111.38,123.75,114.18,125.35,116.65Z"/><path class="cls-19" d="M130.91,99.54c-9.11-12.75-26.34-22.16-40.58-25.3C76.74,70.78,65.82,73,64.92,72.84c.18.06.67.15,1.46.32a64.77,64.77,0,0,1,19.12,1.9c14.24,3.14,31.44,12.54,40.58,25.29A71.52,71.52,0,0,1,134.32,114h0a27.63,27.63,0,0,1-5.65,2.18,39.78,39.78,0,0,0,4.54-.75,28.92,28.92,0,0,0,5.94-2.24h0A72.45,72.45,0,0,0,130.91,99.54Z"/><path class="cls-21" d="M152.86,86.61c-10.66,2.36-23.55,9.4-30.36,19a55.89,55.89,0,0,0-6.17,10.22l2.33,1a12.69,12.69,0,0,0,2,.2,39.71,39.71,0,0,0,6.44-.55l.9-.12c.87-1.31,1.86-2.68,3-4.16a71.59,71.59,0,0,1,23.72-20.46c8.3-4.57,15.66-.15,16.33-.35C170.38,91.39,163.05,84,152.86,86.61Z"/><path class="cls-15" d="M118.89,116.8a56.32,56.32,0,0,1,5.85-9.55c6.84-9.55,19.71-16.59,30.36-19,6.67-1.69,12.14.87,15.28,2.82a1.75,1.75,0,0,0,.7.15c-.67.09-8-7.28-18.19-4.69-10.66,2.36-23.55,9.4-30.36,19a55.34,55.34,0,0,0-6.17,10.22l2.32,1Z"/><path class="cls-22" d="M116.33,113.13a25.52,25.52,0,0,0,2-2.3c.64-.84,1.36-1.63,1.92-2.53-.93-.26-2-.47-3.09-.67-6-1.14-13.27.87-18.1,3.78a27.13,27.13,0,0,0-7.46,6.41,32.37,32.37,0,0,1,8.59-3.88A37.71,37.71,0,0,1,116.33,113.13Z"/><path class="cls-19" d="M99,111.44a27.13,27.13,0,0,0-7.46,6.41l.41-.24a34.22,34.22,0,0,1,7.37-5.18c3.26-1.83,14-4.13,17.84-3.61,2-.44,2.27-.81-.84-1.31C110.53,106.73,103.66,108.62,99,111.44Z"/><path class="cls-21" d="M122.76,116.65a22,22,0,0,0,4.37-.26c2-.29,4.07-.47,6.08-1a60.47,60.47,0,0,0-3.43-5c-6.85-9.54-19.74-16.59-30.36-19C89.23,88.85,80.64,94.82,80,94.76c.7.21,9.29-2.82,17.58,1.75C106.55,101.08,117.17,108.94,122.76,116.65Z"/><path class="cls-19" d="M100.38,95.84c10.27,4.25,21,12.34,28.06,20.4a42.19,42.19,0,0,0,4.74-.78c-1-1.6-2.09-3.26-3.4-5-6.85-9.55-19.74-16.59-30.36-19C89.26,88.88,80.67,94.85,80,94.79,81.11,95,90.74,91.47,100.38,95.84Z"/><path class="cls-21" d="M120.32,111.59a23.87,23.87,0,0,0,2.79-1.75c1-.64,1.92-1.31,2.85-2-.9-.73-1.83-1.39-2.79-2-5.47-3.75-13.45-4.59-19.27-3.34a27.4,27.4,0,0,0-9.75,4,29.49,29.49,0,0,1,9.89-.72A36,36,0,0,1,120.32,111.59Z"/><path class="cls-19" d="M102.85,103.9a31.06,31.06,0,0,1,18.75,3.9,25.24,25.24,0,0,1,2.38,1.81,17.69,17.69,0,0,0,2-1.81c-.9-.73-1.83-1.39-2.79-2-5.47-3.75-13.45-4.59-19.27-3.34a27.4,27.4,0,0,0-9.75,4l.32,0A24.26,24.26,0,0,1,102.85,103.9Z"/><path class="cls-22" d="M116.65,115.92c3.67,0,3.9-.2,5.76-.78-2-3.26-2.74-5.47-7.19-6.17-5.33-1-12.31,6.17-12.66,6.14.38.09,8.38-1.69,12.81.41A6.15,6.15,0,0,0,116.65,115.92Z"/><path class="cls-19" d="M120.49,115.6a14.86,14.86,0,0,0,1.92-.46c-2-3.26-2.74-5.47-7.19-6.17-3.35-.64-7.33,2-9.93,4,1.9-.27,8.45-1.37,12.29.46A6,6,0,0,1,120.49,115.6Z"/><path class="cls-22" d="M132,112a24.23,24.23,0,0,1-3-.64c-1-.29-2.07-.49-3.06-.87.58-.76,1.28-1.54,2.07-2.39,4.1-4.48,11.15-7.27,16.77-7.83a27,27,0,0,1,9.8.64,32.58,32.58,0,0,0-9.16,2A37.66,37.66,0,0,0,132,112Z"/><path class="cls-18" d="M129.25,110.28c3.76-4.78,10.57-8.1,16.13-9.06A25.75,25.75,0,0,1,154,101l.64-.06a27,27,0,0,0-9.8-.64c-5.62.56-12.67,3.35-16.77,7.83-.79.85-1.49,1.63-2.07,2.39.85.29,1.69.52,2.56.73C128.76,110.92,129,110.6,129.25,110.28Z"/><path class="cls-22" d="M108.9,98.92l4.81.12,14.87,14.41-11.53-.82C115.74,106.17,113.13,105.36,108.9,98.92Z"/><path class="cls-17" d="M107.71,101.72c-.06.78,3.76-2.91,6.26-1.81a23,23,0,0,1,4.22,3.47c-1.8-2.16-4.4-5.82-7.92-5.56C108.76,98,108.15,97.06,107.71,101.72Z"/><path class="cls-21" d="M121.3,84.17l-2.85-1.92-7.83,2.24a74.82,74.82,0,0,1,9.67,26.22l10.07-11.26C127.21,91.59,127.3,91.44,121.3,84.17Z"/><path class="cls-17" d="M116.88,81.46a7.46,7.46,0,0,0-3.29.14,5.24,5.24,0,0,0-2.71,1.78,3.94,3.94,0,0,0-.67,3.06,6.3,6.3,0,0,0,2.3,3.26c-.61-4.75,4.49-6.87,5.59-6.87a7.94,7.94,0,0,1,3.5,1.71A6.67,6.67,0,0,0,116.88,81.46Z"/><path class="cls-22" d="M136.12,96.86a20.92,20.92,0,0,0-3.35.35,3.6,3.6,0,0,0-1.45.58c-.23.14.9-1.86.67-1.75a109.08,109.08,0,0,1-11.44,11.65l9.11,6.23c2-6.18,2.94-12.17,7.71-16.74C135.92,96.71,137.63,96.8,136.12,96.86Z"/><path class="cls-17" d="M130.62,98.14a10.19,10.19,0,0,1,2.56-.82c1.78-.29,4.34.76,4.57,2.51.15-1.69-.76-4.37-2.71-4.52a4.82,4.82,0,0,0-4.62,2.39c-.09.15-.35.47-.62.85A6.25,6.25,0,0,1,130.62,98.14Z"/><path class="cls-21" d="M126.81,102.56c-.29-1.6-.94-3.34-1.84-3.64h0l-2.7,1-.38-.08c-.38.08-.76.14-1.14.26a13.79,13.79,0,0,1-2.18.44c-.06.11-.12.26-.18.37a.06.06,0,0,1,0,.06l0,.06a.06.06,0,0,1-.06.06l-1,13a46.38,46.38,0,0,0,11-1.31Z"/><path class="cls-17" d="M126.81,102.65c-.21-.35-.53-3.17-1.69-3.32-2.39-.29-2.88,5.45-4.78,6.43-1-1.57.5-2.88-1.31-4.83-.64-.7-.69.85-.9,1.46,0-.09.06-.9.09-1,.12-.55.17-1.34.76-1.31,1.13.06,2.91-.87,4-1,.58-.06,1.14-.12,1.69-.23s.93-.32,1.19.14a5.26,5.26,0,0,1,.5,1.46A18.57,18.57,0,0,1,126.81,102.65Z"/><path class="cls-22" d="M133,114.32a9.7,9.7,0,0,1-1-1.92,15.74,15.74,0,0,1-.85-2.15c.27-1.66,1.78-2.21,3-2.53,6.55-1.84,13.1-.88,16.68,1.28,3.61,1.92,5,6.49,5.15,6.66a16.86,16.86,0,0,0-7-2.56C144.62,112.26,138.28,112.87,133,114.32Z"/><path class="cls-19" d="M134.69,109.32c6.55-1.84,13.1-.88,16.68,1.28a10.85,10.85,0,0,1,4.34,4.86l.29.17c-.2-.17-1.54-4.71-5.15-6.66-3.58-2.16-10.13-3.12-16.68-1.28-1.22.32-2.74.9-3,2.53a8.23,8.23,0,0,0,.56,1.51C132,110.22,133.47,109.64,134.69,109.32Z"/><path class="cls-18" d="M132,113.8a23.93,23.93,0,0,1-2.53.12c-.88,0-1.75,0-2.62,0,.37-.67.78-1.34,1.22-2,2.47-3.76,5.12-7.63,9.55-9,4.22-1.45,8.73,4.14,9,4-.29.11-5-1.37-8.38.7C134.61,109.75,134,110.74,132,113.8Z"/><path class="cls-19" d="M128,112.49c2.47-3.76,5.12-7.63,9.55-9,3.29-1.14,6.72,2,8.23,3.37a7.56,7.56,0,0,0,.79.12c-.29.06-4.8-5.53-9-4-4.43,1.43-7.08,5.27-9.55,9a19.81,19.81,0,0,0-1.22,2h.32C127.39,113.45,127.71,113,128,112.49Z"/><path class="cls-22" d="M137.93,114c-1.43,1-4.72,1.57-7.86,2.1,2-3.09,5.5-6.87,8.5-7.42,6.4-1.2,9.11,3.37,9.54,3.26-.43.17-3.26-2.3-8.5.49A9.1,9.1,0,0,0,137.93,114Z"/><path class="cls-17" d="M134.81,110.66a9,9,0,0,1,3.73-2,9.72,9.72,0,0,1,9.25,3.08C147.42,111.62,137.46,109.46,134.81,110.66Z"/><path class="cls-22" d="M122.18,110.92l.58-.59,3.32.85L129.4,110a.6.6,0,0,1,.75.35l1.95,5.33a46.56,46.56,0,0,1-11,1.31Z"/><path class="cls-17" d="M130.18,110.45c-.2-.35-.49-.44-.75-.17-1.84,1.57-2,2.7-3.24,5.44h0c-1.31-2.77-.82-2.62-2.65-4.66-.64-.7-1.2-.55-1.4.06,0-.09,0-.17.06-.26a1,1,0,0,1,1.13-.76.11.11,0,0,1,.09,0,10.2,10.2,0,0,0,6.23-.26C129.72,109.87,130.07,109.87,130.18,110.45Z"/><path class="cls-22" d="M117.46,116.24c1.25.88,3.84.73,6.29.62-2-3.26-5.24-7-7.63-7-5,.14-6.4,6.4-6.75,6.4.35.09,2.13-3.61,6.55-1.51C116.33,114.93,117.35,116.19,117.46,116.24Z"/><path class="cls-17" d="M119.3,111.41a5.23,5.23,0,0,0-3.18-1.51c-4.36.11-6,4.83-6.55,6.08C109.84,115.69,117.08,110.6,119.3,111.41Z"/></svg>