<svg id="Layer_54" data-name="Layer 54" xmlns="http://www.w3.org/2000/svg" xmlns:xlink="http://www.w3.org/1999/xlink" viewBox="0 0 256 256"><defs><style>.cls-1{opacity:0.5;}.cls-2{fill:#fff;}.cls-3{fill:#7a6f41;}.cls-4{fill:#f1e6af;}.cls-10,.cls-4{stroke:#9a812f;}.cls-10,.cls-11,.cls-4,.cls-8{stroke-miterlimit:10;}.cls-10,.cls-4,.cls-8{stroke-width:2px;}.cls-5{fill:#594f26;}.cls-6{fill:#ffdc71;}.cls-7{fill:#d4aa4e;}.cls-8{stroke:#836e2b;fill:url(#linear-gradient);}.cls-9{fill:#660d22;}.cls-10{fill:#fbda29;}.cls-11{fill:none;stroke:#aa9a4f;}.cls-12{fill:#fdeb52;}.cls-13{fill:#aa2143;}.cls-14{fill:#c7c6c5;}.cls-15{fill:#f26e49;}</style><linearGradient id="linear-gradient" x1="126.17" y1="59.51" x2="126.17" y2="160.68" gradientUnits="userSpaceOnUse"><stop offset="0.41" stop-color="#9a802f"/><stop offset="0.47" stop-color="#a78c2e"/><stop offset="0.59" stop-color="#c9ab2c"/><stop offset="0.73" stop-color="#fbda29"/></linearGradient></defs><path class="cls-1" d="M119.84,250q-.45,0-.9,0a12.22,12.22,0,0,1-9.48-5.15c-3-4.64-1.73-8.19.5-10a6.13,6.13,0,0,1,3.79-1.31,6.43,6.43,0,0,1,2.85.68,5.51,5.51,0,0,1,1.77,1.38c0-.59-.05-1.19,0-1.8,0-.15,0-.34,0-.56v-21a5.89,5.89,0,0,1,1.14-3.48l.76-73.93c-14.86.32-28,1-35.49,1.39-.43,3.47-2.35,5.71-5,5.71s-4.66-2.3-5.06-5.85c-9.32-1.35-36.85-5.15-52.58-5.15-.71,0-1.4,0-2,0-1.06,2.72-3.19,4.47-5.58,4.47a4.87,4.87,0,0,1-1.14-.14c-3.08-.76-4.67-4.28-3.71-8.19a8.35,8.35,0,0,1,2.37-4.19c.19-.63.4-1.25.65-1.86.74-2.71,1.68-5.53,2.78-8.4a112.68,112.68,0,0,1,5.73-12.4h0l.46-.86A149.46,149.46,0,0,1,46,67L47,66a110.6,110.6,0,0,1-7.19-26.78c-1.87-14.48.62-23.5,7.38-26.82A15.33,15.33,0,0,1,54,10.92c14,0,32.42,15.31,38.73,26.14l1.73-.66c4.28-1.59,8.62-3,12.89-4.18,1.29-.36,2.58-.68,3.84-1,.92-.2,1.84-.39,2.77-.56a11.35,11.35,0,0,1,21.91-.81c1.07.11,2.14.25,3.21.41l6.44,1.19.36.07,0,0A94.18,94.18,0,0,1,159,36.15c.42-.84.85-1.65,1.3-2.4,6.61-11.08,26.34-24.62,39.93-24.62a15.94,15.94,0,0,1,8.18,2C221.69,19,212,49,205.65,62.49c.85.66,1.65,1.31,2.39,1.93,9,7.57,18,19.45,26.92,35.3,2.32,4.17,4.6,8.56,6.78,13s3.85,8.3,4.86,10.65a8.13,8.13,0,0,1,2.89,4.44c1.08,3.88-.41,7.45-3.47,8.29a4.53,4.53,0,0,1-1.27.18h0c-2.52,0-4.79-2-5.81-5-19.91,1.22-36.11,2.95-47.05,4.11l-6.65.7c-.25,3.89-2.24,6.45-5.12,6.45s-4.84-2.52-5.11-6.37a363.57,363.57,0,0,0-37.92-1.6l-6.72,0L129.62,209a5.86,5.86,0,0,1,1,3.25v21a6.22,6.22,0,0,1-.08,1c0,.4,0,.79,0,1.18,0,.59,0,1.18,0,1.77s0,1.07,0,1.61c-.07,1.85-.31,7.48-5.68,10.12A11.41,11.41,0,0,1,119.84,250Z"/><path class="cls-2" d="M116.71,246.87c-.3,0-.6,0-.91,0a12.19,12.19,0,0,1-9.47-5.14c-3-4.64-1.73-8.19.5-10a6.05,6.05,0,0,1,3.79-1.31,6.29,6.29,0,0,1,2.85.68,5.37,5.37,0,0,1,1.77,1.38c0-.59,0-1.19,0-1.8a4.61,4.61,0,0,1,0-.56v-21a5.87,5.87,0,0,1,1.14-3.48l.76-73.93c-14.86.32-28,1-35.49,1.39-.43,3.47-2.35,5.71-5,5.71s-4.66-2.3-5.07-5.85c-9.31-1.35-36.84-5.15-52.57-5.15l-2.05,0c-1,2.72-3.18,4.48-5.57,4.48a4.81,4.81,0,0,1-1.14-.14c-3.08-.76-4.68-4.29-3.71-8.19a8.35,8.35,0,0,1,2.37-4.19c.19-.63.4-1.25.65-1.86.74-2.71,1.68-5.54,2.78-8.4A110,110,0,0,1,18,97.13h0l.46-.85A148.66,148.66,0,0,1,42.9,63.82c.3-.32.62-.63,1-1a110.11,110.11,0,0,1-7.19-26.79C34.79,21.6,37.27,12.58,44,9.26a15.33,15.33,0,0,1,6.8-1.48c14,0,32.41,15.32,38.72,26.15l1.74-.66c4.28-1.59,8.61-3,12.89-4.19,1.28-.35,2.57-.67,3.84-1,.92-.2,1.84-.39,2.77-.56a11.35,11.35,0,0,1,21.91-.81c1.07.11,2.14.25,3.2.4l6.45,1.2.35.07,0,0A92.89,92.89,0,0,1,155.84,33c.41-.85.85-1.65,1.3-2.4C163.75,19.54,183.48,6,197.07,6a16,16,0,0,1,8.18,2c13.31,7.81,3.64,37.79-2.74,51.33.86.66,1.66,1.31,2.39,1.93,9,7.57,18,19.45,26.92,35.3,2.33,4.17,4.61,8.55,6.78,13s3.86,8.31,4.87,10.66a8.14,8.14,0,0,1,2.89,4.44c1.08,3.88-.42,7.44-3.47,8.29a4.65,4.65,0,0,1-1.28.18h0c-2.51,0-4.79-2-5.8-5-19.91,1.22-36.12,2.94-47.05,4.11l-6.66.69c-.24,3.9-2.23,6.45-5.11,6.45s-4.85-2.52-5.11-6.36a363.57,363.57,0,0,0-37.92-1.6l-6.72,0-.75,74.32a5.86,5.86,0,0,1,1,3.25v21a5.28,5.28,0,0,1-.09,1c0,.4,0,.79,0,1.18V234c0,.54,0,1.08,0,1.62-.08,1.85-.31,7.48-5.68,10.11A11.31,11.31,0,0,1,116.71,246.87Z"/><ellipse class="cls-3" cx="176.99" cy="132.23" rx="1.38" ry="3.5"/><ellipse class="cls-3" cx="76.55" cy="131.55" rx="1.38" ry="3.5"/><path class="cls-4" d="M196.8,62.2c-7,12-23.11,20-34.31,13.47s-9.24-31.22-2.13-43.13c7-11.66,31.78-27.83,43-21.26S203.81,50.23,196.8,62.2Z"/><ellipse class="cls-5" cx="188.48" cy="33.57" rx="11.21" ry="8.46" transform="translate(53.25 169.09) rotate(-55.16)"/><path class="cls-4" d="M48.44,63.9c6.11,12.45,21.55,21.71,33.21,16S93.18,49.45,87,37C80.9,24.89,57.36,6.92,45.69,12.64S42.34,51.45,48.44,63.9Z"/><ellipse class="cls-5" cx="58.86" cy="35.97" rx="8.46" ry="11.21" transform="translate(-10.11 34.94) rotate(-30.57)"/><path class="cls-6" d="M11.58,124.49l.26-.07c-.21,1.16-.26,1.78-.26,1.78Z"/><ellipse class="cls-3" cx="11.84" cy="125.31" rx="3.31" ry="1.8" transform="translate(-112.65 106.75) rotate(-76.12)"/><ellipse class="cls-7" cx="167.19" cy="125.31" rx="3.31" ry="1.8" transform="translate(34.1 286.37) rotate(-87.28)"/><ellipse class="cls-7" cx="76.55" cy="124.42" rx="3.31" ry="1.8" transform="translate(-51.36 194.98) rotate(-87.28)"/><path class="cls-8" d="M11.84,124.42c15.59-2.07,63.4,5.3,63.4,5.3s65.53-4.41,99.87,0c3.19.41,29-3.52,65.25-5.52a.28.28,0,0,0,.16-.5c-4.61-4-41.51-35.48-77.82-38.37-38.46-3.06-147.64,5.88-150.8,38.21C11.87,123.83,11.55,124.45,11.84,124.42Z"/><circle class="cls-9" cx="121.86" cy="30.07" r="7.58"/><path class="cls-10" d="M241,124.13c-36.41-17.85-66.08-6.79-70.08-8.23l-.72-.26q-6-2.11-11.69-3.68-5.19-1.41-10.14-2.42A143.59,143.59,0,0,0,98.19,108c-4.14.62-7.8,1.36-11,2.09-5.48,1.28-9.39,2.54-11.5,3.1a5.68,5.68,0,0,1-1.65.29c-8.9-1.65-18.69-1-27.83.67-4,.72-7.93,1.63-11.58,2.6a235.83,235.83,0,0,0-22.84,7.65,72.09,72.09,0,0,1,3.91-13.54,106.24,106.24,0,0,1,6-12.8h0A144.59,144.59,0,0,1,45.58,66.44a123.6,123.6,0,0,1,37.26-25.6c3.36-1.54,6.64-2.88,9.77-4.05,4.55-1.69,8.8-3,12.59-4.09,1.21-.33,2.43-.64,3.66-.91a73,73,0,0,1,29.6-.39l1.26.25,1.05.21h0c4.91,1,12.5,3.93,20.88,7.85h0c3.6,1.68,7.33,3.54,11.06,5.51,11.39,6,22.73,13,29.76,18.93,10.27,8.66,19.32,22.22,26.06,34.27,2.59,4.62,4.84,9,6.68,12.83C238.81,118.66,240.88,123.84,241,124.13Z"/><path class="cls-11" d="M73.75,115.9s1.07-50.3,31.45-83.19"/><path class="cls-11" d="M170.92,115.9s7-56-30.15-84"/><path class="cls-12" d="M170.51,114.61C120.69,96.91,83,109.77,74.7,112c.27-10.76,4.39-50.3,34.16-80.17a73,73,0,0,1,29.6-.39l1.26.25C149.46,40.15,173.76,65.31,170.51,114.61Z"/><path class="cls-13" d="M159.36,108a9.55,9.55,0,0,1-.85,4q-5.19-1.41-10.14-2.42a10.25,10.25,0,0,1-.12-1.59c0-4.17,2.49-7.55,5.56-7.55S159.36,103.78,159.36,108Z"/><ellipse class="cls-3" cx="122.98" cy="43.16" rx="5.56" ry="7.55"/><ellipse class="cls-3" cx="98.21" cy="71.5" rx="5.56" ry="7.55"/><path class="cls-3" d="M98.19,108c-4.14.62-7.8,1.36-11,2.09a10.14,10.14,0,0,1-.15-1.77c0-4.16,2.49-7.55,5.56-7.55S98.07,104,98.19,108Z"/><path class="cls-3" d="M92.61,36.79c-.3,3.78-2.65,6.72-5.52,6.72a5.13,5.13,0,0,1-4.25-2.67C86.2,39.3,89.48,38,92.61,36.79Z"/><ellipse class="cls-3" cx="146.33" cy="66.78" rx="5.56" ry="7.55"/><ellipse class="cls-3" cx="123.12" cy="86.61" rx="5.56" ry="7.55"/><ellipse class="cls-3" cx="177.73" cy="59.23" rx="5.56" ry="7.55" transform="translate(-1.3 114.39) rotate(-35.56)"/><path class="cls-3" d="M172.72,45.23a4.35,4.35,0,0,1-.64.57c-2.5,1.79-6.49.48-8.91-2.91a9.68,9.68,0,0,1-1.51-3.17C165.26,41.4,169,43.26,172.72,45.23Z"/><ellipse class="cls-3" cx="47.01" cy="79.06" rx="8" ry="5.56" transform="translate(-44.96 80.24) rotate(-60)"/><path class="cls-3" d="M46.26,114.17c-4,.72-7.93,1.63-11.58,2.6a9.41,9.41,0,0,1,1.26-6.72c2.2-3.82,6.15-5.68,8.81-4.14C47.08,107.25,47.65,110.75,46.26,114.17Z"/><ellipse class="cls-3" cx="69.42" cy="59.23" rx="8" ry="5.56" transform="translate(-16.58 89.73) rotate(-60)"/><ellipse class="cls-3" cx="63.16" cy="94.51" rx="8" ry="5.56" transform="translate(-50.27 101.95) rotate(-60)"/><path class="cls-3" d="M26,108.15c-2.21,3.82-6.16,5.68-8.82,4.14a3.92,3.92,0,0,1-1.42-1.41,106.24,106.24,0,0,1,6-12.8h0a4.47,4.47,0,0,1,3.44.35C27.83,100,28.19,104.32,26,108.15Z"/><ellipse class="cls-3" cx="208.62" cy="83.32" rx="5.56" ry="7.55" transform="translate(-9.55 136.85) rotate(-35.56)"/><path class="cls-3" d="M235.22,111.26l-.31.25c-2.5,1.78-6.49.48-8.91-2.91s-2.37-7.6.13-9.38a4.39,4.39,0,0,1,2.41-.79C231.13,103.05,233.38,107.45,235.22,111.26Z"/><ellipse class="cls-3" cx="187.5" cy="98.42" rx="5.56" ry="7.55" transform="translate(-22.27 127.38) rotate(-35.56)"/><ellipse class="cls-3" cx="73.75" cy="116.11" rx="3.31" ry="1.8" transform="translate(-45.73 184.28) rotate(-87.28)"/><ellipse class="cls-3" cx="170.8" cy="117.76" rx="3.31" ry="1.8" transform="translate(45.08 282.79) rotate(-87.28)"/><ellipse class="cls-3" cx="241" cy="126.2" rx="1.8" ry="3.31" transform="translate(-24.94 68.91) rotate(-15.48)"/><polygon class="cls-14" points="121.09 107.26 123.73 107.26 122.65 214.37 120 213.31 121.09 107.26"/><rect class="cls-15" x="118.94" y="206.97" width="4.77" height="25.3" rx="2.15"/><path class="cls-15" d="M120,242.38a7.75,7.75,0,0,1-4,.7,8.51,8.51,0,0,1-6.55-3.45c-.93-1.41-1.93-3.67-.31-5a2.47,2.47,0,0,1,2.62-.21c1.95,1,.39,4.14,3.78,4.38s3.69-3.24,3.54-5a24.42,24.42,0,0,1-.14-3.08,12.69,12.69,0,0,1,.1-2.19,3,3,0,0,1,.11-.43,1.23,1.23,0,0,1,.92-.91l.11,0a4,4,0,0,1,2.47.21,2.31,2.31,0,0,1,.36.25,1.91,1.91,0,0,1,.44.66,3.17,3.17,0,0,1,.12.44,11.22,11.22,0,0,1,0,2.08c0,1.05,0,2.09,0,3.14,0,.5,0,1,0,1.5C123.49,238.07,122.91,241,120,242.38Z"/></svg>