<svg id="Layer_54" data-name="Layer 54" xmlns="http://www.w3.org/2000/svg" viewBox="0 0 256 256"><defs><style>.cls-1{opacity:0.5;}.cls-2{fill:#fff;}.cls-3,.cls-4,.cls-8{fill:#d15227;}.cls-3,.cls-8{stroke:#812319;stroke-miterlimit:10;}.cls-3{stroke-width:2px;}.cls-5{fill:#a33a23;}.cls-6{fill:#e89c51;opacity:0.47;}.cls-7{fill:#933020;}.cls-9{fill:#d9e9d8;}.cls-10{fill:#224922;}.cls-11{fill:#542615;}.cls-12{fill:#142515;}.cls-13{fill:#213f1f;}.cls-14{fill:#e2f0e1;}</style></defs><path class="cls-1" d="M187.81,243.66c-1.22,0-2.44,0-3.63-.13-5.59-.39-9.6-2.06-11.93-4.94a8.65,8.65,0,0,1-2-5.87c0-.5,0-1,0-1.46v-.5l0-1.17,0-.51-.06-1.36v-.25c0-.54-.06-1.07-.1-1.59l0-.44-.09-1.17,0-.51c0-.4-.07-.81-.11-1.22l0-.34c0-.52-.11-1-.17-1.56l0-.31c-.05-.41-.11-.82-.16-1.24l-.06-.44c-.05-.39-.1-.78-.16-1.18l-.05-.35-.24-1.52v-.1l-.24-1.38-.06-.35c-.07-.41-.14-.8-.21-1.18l-.06-.33c-.12-.61-.24-1.23-.37-1.84-1.33.09-2.66.13-4,.13a56.8,56.8,0,0,1-5.7-.28h-.07l-1.3-.14-.17,0-1.19-.16-.21,0-1.15-.19-.25-.05c-.37-.06-.73-.14-1.1-.21l-.27,0-1.08-.24-.27-.07c-.37-.08-.73-.17-1.1-.27l-.23-.06-1.16-.32-.16-.05c-1.33-.39-2.65-.84-3.91-1.33l-.09,0-1.15-.47-.29-.13-.93-.41-.39-.19-.81-.39-.43-.22-.75-.39-.46-.25-.7-.4-.48-.28-.66-.41-.48-.31c-.22-.13-.43-.28-.64-.42l-.47-.32-.63-.45-.46-.33-.62-.48-.1-.08-.34-.26-.59-.49-.43-.37-.67-.6-.33-.3c-.32-.3-.65-.61-1-.93-.46-.46-.89-.91-1.32-1.37l-.2-.21c-8.7,10.49-9.82,23.61-10,27.73v1.21l.07,2.26-1.68,1.52c-.29.26-.59.52-.9.77-.6.48-1.24.94-1.91,1.38a29.36,29.36,0,0,1-3,1.72c-1,.49-2.07.94-3.17,1.35-.35.14-.71.26-1.07.38a39.59,39.59,0,0,1-6.33,1.58,33.61,33.61,0,0,1-3.94.41l-1,0-.81,0c-7.24-.26-8.47-4.27-8.66-6a8.66,8.66,0,0,1,0-2.16,8.22,8.22,0,0,1,.31-1.39,8.9,8.9,0,0,1,1.58-2.91,9.82,9.82,0,0,1,.81-.9,12.6,12.6,0,0,1,1.76-1.43,15.27,15.27,0,0,1,1.38-.83c.3-.17.61-.32.93-.47s.63-.29,1-.42l.47-.19c.75-.29,1.55-.56,2.4-.8.31-.1.63-.18.95-.27l1-.23q.47-.12.93-.21c1.62-.35,3.19-.59,4.54-.77,0,0,.08-.42.08-.42l.3-1.63,0-.17c.11-.56.23-1.13.35-1.69l.08-.37c.12-.55.24-1.1.37-1.65l.06-.26.36-1.5.07-.27c.13-.53.27-1.06.4-1.58l.1-.37c.14-.52.28-1,.43-1.56l0-.17q.21-.74.42-1.44l.09-.31q.22-.75.45-1.47l.11-.35.45-1.43,0-.11c.15-.47.31-.94.47-1.4l.11-.33c.16-.46.31-.92.47-1.36l.11-.31c.15-.41.29-.82.44-1.22l.07-.2.49-1.29.12-.33.49-1.25.1-.25c.14-.36.29-.72.43-1.07l.1-.27.48-1.15.13-.31.48-1.13.07-.15c.15-.34.29-.68.44-1l.11-.24c.15-.36.31-.7.46-1l.56-1.22.59-1.25.55-1.12c.13-.28.45-.91.45-.91.14-.29.5-1,.5-1l.44-.86.43-.82.39-.72,0-.08,0-.07a32.11,32.11,0,0,1-1.11-5.06v-.09c-.08-.57-.14-1.15-.18-1.71v-.07c0-.73-.08-1.46-.07-2.18l-.18-.14c-.28-.22-.56-.44-.83-.67l-.31-.26c-.26-.23-.51-.45-.76-.69l-.3-.28-.72-.72-.28-.29c-.24-.26-.48-.53-.71-.8l-.21-.25c-.27-.31-.53-.64-.77-1l-.11-.14c-.27-.37-.55-.77-.8-1.16l-.07-.11c-.21-.33-.44-.7-.64-1.07-.06-.1-.11-.2-.16-.3l0,0q-.24-.44-.45-.87c-.06-.12-.11-.25-.17-.37l0-.08c-.12-.27-.24-.54-.35-.81l-.19-.51c-.1-.26-.19-.53-.28-.8s-.12-.35-.17-.53-.15-.54-.22-.81l-.13-.55c-.06-.29-.12-.57-.17-.86v-.08c0-.15,0-.29-.07-.44,0-.32-.09-.64-.12-1v0c0-.14,0-.28,0-.42,0-.48,0-.95,0-1.41s0-.93,0-1.41a2.29,2.29,0,0,1,0-.25c0-.37.07-.72.12-1.06h0c-.13-.15-.25-.31-.37-.47l-.17-.2c-.14-.18-.28-.36-.41-.55a5.85,5.85,0,0,1-.34-.48l-.07-.11c-.26-.38-.5-.75-.71-1.11l-.06-.1c-.15-.24-.29-.48-.43-.73l-.27-.53-.12-.24q-.16-.3-.3-.6c-.09-.18-.17-.37-.25-.56l-.08-.2c-.09-.21-.19-.43-.27-.66l-.21-.57,0-.11c-.09-.27-.18-.52-.26-.77s-.14-.46-.2-.68l-.22-.82-.12-.54-8.37,7c-.15.17-.32.33-.49.5l-.18.15a8.8,8.8,0,0,1-1,.77l-.18.11a10.55,10.55,0,0,1-1.1.58l-.21.08a8,8,0,0,1-1.11.37l-.07,0-.13,0a9.72,9.72,0,0,1-1.1.21h-.17a9.62,9.62,0,0,1-1,.07h-.27l-.94,0-.19,0c-.28,0-.6-.06-1-.11l-.18,0-1-.18-.14,0c-.34-.07-.66-.15-1-.24l-.12,0-1-.3c-.35-.11-.66-.23-1-.35l-.13-.05c-.3-.11-.59-.23-.89-.36l-.17-.07-.86-.38-.17-.08-.85-.4-.15-.08-.87-.44-.06,0-.85-.46-.1,0-.83-.48-.15-.08-.78-.46-.17-.1-.75-.46-.16-.1-.73-.47-.11-.07-.73-.47-.05,0-.72-.48-.76-.53-.86-.6-.68-.48-.71-.52a20.18,20.18,0,0,1-4.24.42,26.7,26.7,0,0,1-3.47-.23l-.14,0-.54-.08h0a6.49,6.49,0,0,1-4.33-2.12,8.79,8.79,0,0,1-2.07-5.22,8.75,8.75,0,0,1-.71-1.36,10.52,10.52,0,0,1-.7-2.86,13.85,13.85,0,0,1-.07-1.95c0-.23,0-.45,0-.67s0-.21,0-.31,0-.3,0-.44a9.83,9.83,0,0,1,.31-7.59,8.85,8.85,0,0,1,3.53-3.73l.64-.34a12.13,12.13,0,0,1,1.22-.53l.59-.19a15.77,15.77,0,0,1,4.26-.68,18.51,18.51,0,0,1,.15-2,6.68,6.68,0,0,1,.2-1,6.83,6.83,0,0,1,1.46-2.68A7.67,7.67,0,0,1,70,103.94a6.49,6.49,0,0,1,.88,0,7.16,7.16,0,0,1,1.41.32l.6.22a8.78,8.78,0,0,1,1.86,1.09,6.34,6.34,0,0,1,1.94,2.44,6.48,6.48,0,0,1,.2,4.91c-.22.61-.52,1.81-.76,2.87q.22.85.39,1.86a34.84,34.84,0,0,1,.5,5.66v.17l10.1,7,15.67-12.17.42-.6c.24-.34.48-.67.72-1l.1-.14.68-.86.11-.15.72-.85.15-.17.68-.74.13-.14.67-.68.14-.13c.25-.25.49-.47.73-.68l.12-.11c.22-.2.44-.39.66-.56l.13-.11.7-.55.16-.11.68-.49.11-.07,0,0c.2-.14.41-.26.61-.39l.14-.09.65-.37-.07-.06c-.3-.24-.58-.48-.86-.72l-.32-.28c-.36-.32-.71-.65-1-1l-.32-.32c-.26-.26-.52-.52-.77-.79l-.32-.34c-.32-.35-.63-.7-.94-1.07-.07-.07-.25-.29-.25-.29-.24-.29-.48-.59-.71-.9l-.28-.36c-.29-.39-.58-.78-.85-1.18l-.13-.19q-.36-.54-.69-1.08l-.24-.38c-.23-.38-.45-.77-.66-1.16l-.08-.14c-.22-.4-.43-.82-.67-1.32l-.18-.36c-.18-.4-.35-.77-.51-1.16,0-.11-.08-.19-.12-.27-.18-.44-.35-.89-.52-1.38l-.13-.37c-.13-.38-.25-.77-.37-1.16l-.1-.34c-.14-.49-.27-1-.38-1.46,0-.08-.07-.32-.07-.32-.09-.41-.17-.82-.25-1.23l-.07-.39c-.09-.54-.16-1-.21-1.52l0-.21c0-.45-.08-.9-.11-1.35q0-.22,0-.42c0-.6,0-1.1,0-1.58s0-1,0-1.57l0-.43c0-.43.06-.85.11-1.26,0,0,0-.25,0-.34.06-.49.13-1,.22-1.5,0-.1.07-.39.07-.39.07-.39.15-.78.23-1.16l.1-.44c.12-.53.25-1,.37-1.44,0-.08,0-.17.08-.25.12-.41.25-.8.38-1.19.06-.16.11-.33.17-.49.13-.35.26-.7.4-1l0-.07.12-.31q.27-.66.57-1.29l.19-.4.05-.09c.14-.3.29-.59.44-.88l0-.08.21-.4c.23-.41.45-.81.69-1.2l.21-.33.07-.11c.17-.27.34-.54.52-.81l.35-.51,0-.06c.08-.14.17-.27.26-.41s.38-.6.6-.91.54-.78.81-1.15l.21-.27.06-.08c.19-.26.39-.51.59-.75a3.88,3.88,0,0,1,.26-.31l.06-.07c.19-.23.39-.46.58-.67l.35-.37c.2-.21.41-.42.62-.62l.35-.34q.34-.31.69-.6l0,0,.3-.25c.24-.19.52-.4.83-.61l.24-.18a16.35,16.35,0,0,1,2-1.12l1.1-.74.45-.28c.38-.24.76-.47,1.15-.69L116.36,54l-.43-1.11c-.51-1.33-1-2.63-1.57-3.88q-.51-1.18-1-2.34c0,.11-.08.23-.13.34s-.11.27-.17.41-.25.5-.39.75-.18.3-.28.44a7.29,7.29,0,0,1-.67.86,7.07,7.07,0,0,1-1.06,1,7.82,7.82,0,0,1-.85.56,8.67,8.67,0,0,1-.92.44l-.43.16a7.8,7.8,0,0,1-1.22.31l-.72.09-.72,0c-.23,0-.46,0-.7,0A12.66,12.66,0,0,1,101,50.92a25.67,25.67,0,0,1-9-6.78c-.37-.42-.73-.86-1.07-1.31l-.51-.67A30.29,30.29,0,0,1,86,33.55c-.08-.25-.15-.5-.22-.75-.21-.74-.39-1.5-.52-2.23a20.41,20.41,0,0,1-.33-4.47c0-.51.07-1,.14-1.49a14.22,14.22,0,0,1,.5-2.21,11.47,11.47,0,0,1,1.78-3.5,10,10,0,0,1,1.11-1.23,8.27,8.27,0,0,1,.63-.55,11.06,11.06,0,0,1,1.42-1,11.75,11.75,0,0,1,5.74-1.39,17.32,17.32,0,0,1,3.68.42c7.7,1.68,14.54,8.06,20.33,19a87.77,87.77,0,0,1,6.15,14.9v0l0,.14,0-.1c.14.43.44,1.4.81,2.59l.47-.12,1.17-.25.17,0,.5-.11,1.14-.19.22,0,.51-.08,1.11-.13.28,0,.51-.05c.41,0,.83-.07,1.25-.09l.21,0,.45,0c.66,0,1.31,0,1.94,0s1.11,0,1.74,0l.41,0h.13c.4,0,.79,0,1.19.08l.61,0,1.15.13.14,0,.42.06c.48.06.95.14,1.42.22l.24,0c.53.1,1.06.2,1.63.33l.4.1.14,0,1.07.27.62.18,1,.29.11,0,.5.16,1.1.38.1,0,.34.12,1.45.58.41.18.23.11.17-.5c.63-2,9.83-30,29.31-33q1-.15,2-.21c.43,0,.84,0,1.25,0H187a15.06,15.06,0,0,1,3.57.54,12.41,12.41,0,0,1,2.44,1c.26.14.52.29.76.44a10.76,10.76,0,0,1,1.38,1,10.47,10.47,0,0,1,1.71,1.87,11.37,11.37,0,0,1,.87,1.41c.13.23.24.48.35.73a12.33,12.33,0,0,1,.75,2.27,12.69,12.69,0,0,1,.27,1.54c.06.5.1,1,.11,1.54v.78a19.6,19.6,0,0,1-.34,3.08,22.29,22.29,0,0,1-.82,3c-.17.49-.36,1-.56,1.5s-.44,1-.67,1.48c-.36.74-.77,1.47-1.2,2.18-.14.24-.29.48-.44.71-.31.48-.64.94-1,1.4l-.52.68A28.15,28.15,0,0,1,188,53l-.75.52a26.08,26.08,0,0,1-5.88,2.94,14.46,14.46,0,0,1-4.28.84h-.28a9,9,0,0,1-4.6-1.19c-.21-.12-.42-.25-.62-.39a9,9,0,0,1-1.1-.94,8.31,8.31,0,0,1-1.56-2.22,8.1,8.1,0,0,1-.48-1.18,5.76,5.76,0,0,1-.18-.59c-.07-.25-.12-.51-.17-.77-.07.11-.13.23-.19.34-1.23,2.27-2.4,4.72-3.48,7.28l-1.07,2.53.23.22c.31.27.61.56.91.84l.22.21c.33.33.65.66,1,1l.27.28c.31.34.61.68.9,1l.25.29c.3.36.59.73.87,1.1l.14.17c.29.39.54.74.79,1.1l.16.24c.26.37.51.77.76,1.17l.19.3c.24.4.47.81.7,1.22l.15.28c.25.47.47.9.66,1.3l.07.16c.2.42.39.85.57,1.28l.09.22c.18.43.35.88.53,1.37l.1.29c.16.47.31.93.44,1.39l.07.25c.16.54.28,1,.39,1.49l0,.12c.1.44.19.92.29,1.45l0,.22c.08.47.15,1,.21,1.49l0,.29c.06.52.1,1,.13,1.52l0,.26c0,.57,0,1.09,0,1.59s0,1,0,1.57l0,.37c0,.56-.08,1.06-.14,1.53l0,.19c-.05.45-.12.91-.19,1.37l-.06.35c-.1.52-.19,1-.3,1.47l0,.22c-.11.46-.22.89-.34,1.31l-.09.33c-.14.47-.29.94-.45,1.39l-.12.33c-.14.39-.28.78-.44,1.17l-.12.29c-.18.44-.38.88-.59,1.33l-.17.35c-.18.37-.36.73-.56,1.1,0,0-.09.19-.13.26-.23.42-.47.82-.71,1.23-.08.13-.16.25-.23.38-.22.35-.45.7-.68,1l-.16.24c-.25.37-.52.74-.8,1.11l-.29.39c-.27.34-.54.68-.83,1l-.25.3c-.24.29-.5.58-.76.87l-.35.37c-.31.33-.63.66-.95,1l-.31.3-.78.73-.39.35c-.34.3-.68.59-1,.87l-.41.32-.42.33.43.74.06.09.3.56a84.85,84.85,0,0,1,19.24,3.34l1,.28.83.24,1.57.48,1.16.36,1.26.41,1.1.37a8.41,8.41,0,0,1,5.72,7.45,25.91,25.91,0,0,1-.66,7.4c-.21.92-.46,1.86-.76,2.81s-.6,1.79-1,2.7a52.84,52.84,0,0,1-2.31,5c-.4.76-.83,1.54-1.27,2.31s-.84,1.43-1.29,2.14q-.28.47-.57.9c.22.08.45.16.68.26a5.46,5.46,0,0,1,3.36,6.24,7,7,0,0,1-1,2.29,11.06,11.06,0,0,1-.69,1c-.31.38-.66.78-1.08,1.21s-1,1-1.59,1.52l.85.82.06.06c.38.37.77.76,1.16,1.16l0,0c1.27,1.29,2.46,2.57,3.6,3.81l.85.91,1,1,.84.87.12.12c.28.3.57.59.85.87l.09.09.85.82.06,0c.28.27.57.53.86.78l0,0c.28.25.56.48.85.71,6.14,4.92,9.15,9.41,9.19,13.74a8.13,8.13,0,0,1-2,5.49c-.27.36-.55.73-.89,1.16l-.27.33c-.4.51-.78,1-1.16,1.38l-.12.14c-.35.39-.72.79-1.14,1.22l-.27.28c-.44.44-.87.86-1.29,1.25l-.15.14c-.45.41-.86.77-1.28,1.13l-.24.2c-.46.39-.94.77-1.43,1.14l-.21.16c-.46.35-.93.69-1.4,1l-.15.11-1.56,1-.22.14c-1.06.66-2.17,1.3-3.31,1.9l-.14.07c-1.17.61-2.36,1.17-3.56,1.68l-.14.06c-1.15.48-2.34.94-3.54,1.35.32,2.62.63,5.33.92,8.09v.05c.43,4.06.76,7.56,1,10.06a97.38,97.38,0,0,1,10.64,1.87l.86.22c1.12.3,2.13.62,3,1,.23.08.45.17.66.26a13.05,13.05,0,0,1,2.4,1.27l.58.43a6.15,6.15,0,0,1,2.46,5.16,6,6,0,0,1-1,3,6.9,6.9,0,0,1-1.08,1.22,10.82,10.82,0,0,1-3.71,2,23.42,23.42,0,0,1-2.83.76,39.41,39.41,0,0,1-4.49.64C190.74,243.6,189.28,243.66,187.81,243.66ZM167.67,142.54c.2.36.39.72.56,1.09l.35-.22.39-.27.15-.13.19-.22a15.62,15.62,0,0,0,1.46-2.47c.66-1.33,1.28-2.73,1.85-4.16.27-.71.54-1.44.79-2.16.18-.53.36-1.07.52-1.61l-.94-.2c-1.6-.35-3.24-.63-4.89-.86l-1.11-.15-1.23-.14a38.76,38.76,0,0,1-.58,3.91l0,.09c-.12.58-.26,1.18-.41,1.77l0,.11c-.06.22-.11.44-.18.65A22.38,22.38,0,0,1,167.67,142.54ZM182.18,34a7.78,7.78,0,0,1,1.65.54,1.34,1.34,0,0,0-.27-1A5.68,5.68,0,0,0,182.18,34ZM99.69,28.46a2.6,2.6,0,0,0,0,.4l.12,0,.36-.1A4.68,4.68,0,0,0,99.69,28.46Z"/><path class="cls-2" d="M185.37,241.23c-1.21,0-2.44,0-3.63-.13-5.58-.4-9.6-2.06-11.92-4.94a8.65,8.65,0,0,1-2-5.88c0-.49,0-1,0-1.45v-.5l0-1.17,0-.51-.06-1.36V225c0-.54-.06-1.07-.1-1.6l0-.43-.09-1.18,0-.5-.12-1.22,0-.35c-.05-.52-.11-1-.17-1.55l0-.31-.15-1.24-.06-.44c0-.39-.11-.79-.16-1.18l-.06-.36c-.07-.5-.15-1-.23-1.51l0-.1c-.07-.46-.15-.93-.23-1.38l-.06-.35c-.07-.42-.14-.8-.22-1.19l-.06-.32c-.11-.62-.24-1.23-.36-1.85-1.33.09-2.66.14-4,.14a56.66,56.66,0,0,1-5.7-.28h-.08c-.44,0-.86-.09-1.29-.15l-.17,0L153,207.5l-.22,0-1.14-.19-.26,0-1.09-.21-.27-.06c-.36-.07-.73-.15-1.09-.24l-.27-.06-1.09-.27-.23-.06-1.16-.32-.16,0c-1.34-.39-2.65-.84-3.91-1.34l-.09,0-1.15-.47-.3-.13-.92-.41-.39-.19-.81-.39-.43-.22-.75-.39-.46-.26-.71-.4-.47-.28L135,201l-.48-.3-.64-.42-.46-.32-.63-.45s-.34-.24-.46-.34l-.62-.47-.1-.08-.34-.27-.59-.49-.43-.36-.67-.6-.33-.3q-.5-.45-1-.93c-.46-.46-.9-.91-1.32-1.37l-.2-.21c-8.7,10.49-9.82,23.61-10,27.73v1.21l.07,2.26-1.68,1.52c-.29.26-.59.52-.91.77-.59.47-1.23.94-1.9,1.38a27.59,27.59,0,0,1-3,1.71c-1,.49-2.07.95-3.17,1.36l-1.07.38A40.13,40.13,0,0,1,98.77,234a33.55,33.55,0,0,1-4,.41c-.35,0-.7,0-1,0H93c-7.24-.26-8.46-4.27-8.65-6a8.66,8.66,0,0,1,0-2.16,8.55,8.55,0,0,1,.31-1.4,9.12,9.12,0,0,1,1.57-2.9,10.07,10.07,0,0,1,.82-.9,12.78,12.78,0,0,1,1.76-1.44c.42-.28.89-.56,1.37-.83l.94-.47.95-.41.47-.19q1.13-.44,2.4-.81l1-.26,1-.24.93-.21c1.62-.34,3.19-.59,4.54-.76,0,0,.07-.43.07-.43.1-.54.21-1.08.31-1.62l0-.18c.11-.56.23-1.12.35-1.69l.08-.37c.11-.55.24-1.1.36-1.64l.07-.27c.11-.5.23-1,.36-1.49l.06-.28.41-1.58.1-.36c.14-.52.28-1.05.42-1.56l0-.17.42-1.44.09-.32.45-1.47.11-.34.45-1.43,0-.12.46-1.39.12-.34c.16-.46.31-.91.47-1.35l.11-.32c.15-.4.29-.81.44-1.21l.07-.2c.16-.44.32-.87.49-1.29l.12-.33c.16-.43.32-.84.48-1.25l.11-.26c.14-.36.28-.71.43-1.07l.1-.26.48-1.16.13-.3.48-1.13.07-.16c.14-.34.29-.67.44-1l.1-.25c.16-.35.31-.69.47-1,0,0,.41-.91.56-1.22l.59-1.25.54-1.12.45-.91.51-1,.44-.85.43-.82.38-.72,0-.08,0-.07a31,31,0,0,1-1.11-5.06v-.09c-.08-.58-.14-1.15-.18-1.72v-.06c-.06-.73-.08-1.47-.07-2.18l-.18-.14c-.28-.22-.56-.44-.83-.67l-.31-.26-.76-.69-.3-.28q-.37-.36-.72-.72l-.28-.29c-.24-.26-.48-.53-.71-.8l-.22-.25c-.26-.32-.52-.64-.77-1l-.1-.15c-.28-.37-.55-.76-.81-1.16l-.06-.1c-.22-.33-.44-.7-.65-1.07,0-.1-.1-.2-.16-.3l0,0q-.24-.44-.45-.87c-.06-.12-.12-.25-.17-.37l0-.08c-.12-.27-.24-.54-.35-.82s-.13-.33-.19-.5-.2-.53-.29-.8-.11-.36-.16-.53-.15-.54-.22-.82-.1-.38-.13-.54-.12-.57-.17-.86v-.09c0-.14-.06-.29-.08-.43,0-.32-.08-.64-.11-1v0c0-.13,0-.27,0-.41,0-.49-.06-1-.06-1.42s0-.92,0-1.4l0-.25c0-.37.07-.72.12-1.06h0l-.37-.47-.16-.2-.42-.55c-.11-.15-.22-.32-.33-.48l-.08-.12c-.25-.37-.49-.74-.71-1.1l-.06-.1c-.14-.24-.29-.48-.42-.73a5.28,5.28,0,0,1-.27-.53l-.13-.24c-.1-.2-.2-.4-.29-.6s-.17-.38-.25-.57l-.08-.19q-.15-.33-.27-.66t-.21-.57l0-.12c-.09-.26-.18-.51-.26-.77s-.14-.45-.2-.68-.15-.55-.22-.81l-.12-.54-8.37,7c-.16.17-.32.34-.5.5a1.29,1.29,0,0,1-.17.16,7.73,7.73,0,0,1-1,.76l-.18.12a8.31,8.31,0,0,1-1.11.57l-.2.09a9.63,9.63,0,0,1-1.11.37l-.07,0-.13,0a9.89,9.89,0,0,1-1.11.2l-.16,0c-.3,0-.63.06-1,.06h-.27c-.3,0-.61,0-.94,0h-.19c-.28,0-.61-.06-1-.11l-.19,0-.94-.18-.15,0-1-.25-.12,0c-.32-.09-.63-.19-1-.3l-1-.35-.13-.05c-.3-.11-.59-.23-.89-.36l-.17-.07-.86-.38-.18-.08-.84-.41-.15-.07-.87-.44-.06,0-.85-.45-.1-.06-.83-.47-.15-.08-.78-.46-.17-.1-.76-.47-.15-.09-.74-.47-.11-.07-.73-.47,0,0-.72-.49-.77-.52-.85-.6-.68-.49-.71-.52a20.19,20.19,0,0,1-4.25.43,28.76,28.76,0,0,1-3.47-.23l-.13,0-.54-.08h0a6.49,6.49,0,0,1-4.33-2.12,8.81,8.81,0,0,1-2.07-5.22,8.75,8.75,0,0,1-.71-1.36,10.52,10.52,0,0,1-.7-2.86,13.85,13.85,0,0,1-.07-2c0-.23,0-.45,0-.67a3,3,0,0,1,0-.31c0-.16,0-.3,0-.44a9.91,9.91,0,0,1,.31-7.59,8.88,8.88,0,0,1,3.54-3.73c.21-.12.42-.24.64-.34a9.55,9.55,0,0,1,1.22-.53l.58-.2a15.71,15.71,0,0,1,4.26-.67c0-.64.07-1.32.16-2a6.43,6.43,0,0,1,.2-1,6.76,6.76,0,0,1,1.46-2.68,7.67,7.67,0,0,1,5.85-2.82,6.65,6.65,0,0,1,.89.06,7.63,7.63,0,0,1,1.4.31c.2.07.4.14.6.23a8.5,8.5,0,0,1,1.86,1.08,6.46,6.46,0,0,1,2.14,7.36c-.21.6-.52,1.8-.76,2.87.15.57.29,1.19.4,1.86a37.23,37.23,0,0,1,.5,5.66v.17l10.1,7,15.67-12.17.42-.6.71-1,.11-.14c.23-.31.45-.59.67-.86l.12-.15c.24-.29.48-.58.72-.85l.15-.17.68-.75.12-.13c.23-.23.45-.46.68-.68l.14-.14.73-.68.11-.1.67-.57.13-.1c.22-.19.46-.37.7-.55l.16-.11c.23-.17.45-.34.68-.49l.1-.07,0,0c.21-.14.41-.27.62-.39l.14-.09.65-.37-.07-.06c-.3-.25-.59-.48-.86-.73,0,0-.24-.2-.32-.28-.36-.32-.71-.64-1-1l-.33-.33-.76-.78-.32-.34c-.32-.35-.64-.71-1-1.07l-.24-.3c-.24-.29-.48-.59-.71-.89l-.28-.37c-.3-.38-.58-.78-.85-1.17l-.13-.19c-.24-.36-.47-.72-.7-1.08l-.23-.38c-.23-.38-.45-.77-.67-1.16l-.08-.14c-.21-.4-.43-.82-.67-1.32-.06-.12-.11-.24-.17-.37-.18-.39-.35-.77-.51-1.15,0-.12-.09-.19-.12-.27-.18-.44-.35-.89-.53-1.38L99,91.81c-.13-.38-.26-.76-.37-1.15l-.1-.34c-.14-.49-.27-1-.38-1.46l-.07-.32c-.09-.41-.18-.82-.25-1.23l-.07-.39c-.09-.54-.16-1-.22-1.52a1.64,1.64,0,0,0,0-.22c0-.45-.08-.9-.11-1.35l0-.42c0-.59,0-1.09,0-1.57s0-1,0-1.57l0-.43c0-.43.06-.85.11-1.27,0,0,0-.24,0-.33q.09-.75.21-1.5c0-.11.08-.39.08-.39.07-.4.14-.78.23-1.16l.1-.44c.12-.53.24-1,.37-1.44a2.41,2.41,0,0,1,.08-.25c.12-.41.24-.8.38-1.19,0-.17.11-.33.17-.49.13-.35.26-.7.4-1l0-.08.13-.31c.18-.43.37-.86.57-1.28.06-.14.13-.27.19-.4l0-.09c.14-.3.29-.59.44-.88l0-.08.22-.41c.22-.4.45-.8.69-1.19.07-.12.14-.22.21-.33l.06-.11.53-.82.35-.5,0-.06.25-.41.6-.91c.27-.4.54-.78.82-1.15l.21-.28L105,61l.6-.76.25-.3.07-.08c.19-.23.39-.45.58-.66l.35-.37c.2-.22.41-.42.61-.62l.36-.34.69-.6,0,0,.29-.24c.25-.19.52-.4.84-.62l.24-.17a14.49,14.49,0,0,1,2-1.12c.37-.26.74-.51,1.1-.74l.45-.28c.38-.24.76-.47,1.15-.69l-.7-1.8-.42-1.1c-.51-1.33-1-2.63-1.58-3.88-.34-.79-.69-1.58-1-2.34,0,.11-.08.22-.13.33s-.11.28-.17.41-.25.51-.39.76l-.28.44a8.22,8.22,0,0,1-.67.86,7.18,7.18,0,0,1-1.07,1,6.78,6.78,0,0,1-.84.55,8.68,8.68,0,0,1-.92.45l-.43.16a9,9,0,0,1-1.22.3q-.35.06-.72.09l-.72,0-.71,0a12.32,12.32,0,0,1-4.06-1.07,25.79,25.79,0,0,1-9-6.78c-.36-.43-.72-.87-1.07-1.31-.17-.22-.34-.44-.5-.67a30,30,0,0,1-4.37-8.62c-.08-.24-.16-.49-.23-.74-.21-.75-.38-1.5-.51-2.24a19.18,19.18,0,0,1-.33-4.47,14.27,14.27,0,0,1,.14-1.48A14,14,0,0,1,83.12,20,12.51,12.51,0,0,1,84,17.82a11.17,11.17,0,0,1,.88-1.35A10.91,10.91,0,0,1,86,15.23c.2-.18.41-.37.63-.55a11.33,11.33,0,0,1,1.42-.95,11.75,11.75,0,0,1,5.74-1.39,17.32,17.32,0,0,1,3.68.42c7.7,1.68,14.54,8.06,20.33,19A86.06,86.06,0,0,1,124,46.62l0,0v0l0,.14,0-.1c.13.42.44,1.39.8,2.59l.48-.12,1.16-.25.18,0,.49-.1,1.15-.19.22,0,.5-.07c.37-.06.75-.1,1.12-.14l.28,0,.5-.05,1.26-.1h.21l.44,0c.67,0,1.32,0,1.95,0s1.11,0,1.73,0l.42,0H137l1.19.08.61.06,1.14.13.15,0,.42.05c.48.07,1,.14,1.42.23l.24,0c.52.09,1.05.2,1.63.33l.4.1.14,0,1.07.27.62.17,1,.3.1,0,.51.16,1.1.39.1,0,.34.12c.49.18,1,.38,1.44.58l.41.18.24.11.17-.5c.63-2,9.83-30,29.31-33,.66-.1,1.32-.17,1.95-.21.42,0,.84-.05,1.25-.05l.64,0a14.41,14.41,0,0,1,3.56.54,12.26,12.26,0,0,1,2.45,1c.26.14.52.29.76.44a10.53,10.53,0,0,1,1.38,1,10.86,10.86,0,0,1,1.71,1.87,11.85,11.85,0,0,1,.87,1.41c.12.23.24.48.35.72a12.33,12.33,0,0,1,.75,2.27,13,13,0,0,1,.27,1.54c.06.51.1,1,.11,1.55,0,.26,0,.51,0,.77a18.6,18.6,0,0,1-.34,3.09,22.1,22.1,0,0,1-.81,3c-.17.5-.36,1-.57,1.5s-.43,1-.67,1.49c-.36.73-.76,1.47-1.19,2.18-.14.24-.29.47-.45.71-.3.47-.63.94-1,1.4l-.52.68a28.1,28.1,0,0,1-5.72,5.5l-.75.53A26.51,26.51,0,0,1,178.92,54a14.58,14.58,0,0,1-4.28.84h-.28a9,9,0,0,1-4.61-1.19c-.21-.12-.41-.26-.61-.4a7.5,7.5,0,0,1-1.1-.94,8.25,8.25,0,0,1-1.57-2.22,11,11,0,0,1-.48-1.17c-.06-.2-.12-.39-.17-.59s-.13-.51-.18-.77l-.18.34c-1.23,2.27-2.4,4.72-3.48,7.28L160.9,57.7l.24.21.91.85.21.21c.34.32.66.66,1,1l.27.29c.3.34.61.68.9,1l.25.29c.3.36.59.72.87,1.09l.13.18c.29.39.55.74.8,1.1.07.1.11.17.16.23.26.38.51.78.76,1.18l.18.3c.25.4.48.8.7,1.21l.16.29c.25.47.46.89.66,1.3l.07.16c.2.42.39.85.57,1.28l.09.21c.18.44.35.88.52,1.37l.11.3c.16.46.31.93.44,1.39l.07.25c.16.54.28,1,.39,1.49l0,.12c.1.44.2.92.29,1.44l0,.23c.08.47.16,1,.22,1.49l0,.29c.06.52.1,1,.13,1.52v.26c0,.56,0,1.09,0,1.59s0,1,0,1.57l0,.37c0,.55-.07,1-.13,1.53l0,.19c0,.44-.12.91-.2,1.37l-.06.35c-.09.52-.18,1-.29,1.47l-.05.22c-.11.46-.22.88-.34,1.3l-.1.33c-.14.48-.29.95-.44,1.4l-.12.32c-.14.4-.29.79-.44,1.17l-.12.3c-.18.44-.38.88-.59,1.32l-.17.36c-.18.37-.36.73-.56,1.09l-.14.27c-.22.41-.46.82-.7,1.23l-.24.38c-.22.35-.44.7-.67,1l-.16.24-.8,1.11-.3.38c-.26.35-.54.69-.82,1l-.25.29c-.25.29-.5.59-.77.87l-.34.38c-.31.33-.63.65-1,1l-.32.3c-.25.25-.51.49-.77.73l-.39.35-1,.87-.41.32-.42.33.43.73.05.1c.11.18.21.37.31.56A83.84,83.84,0,0,1,179,112.32l1,.28.83.24,1.57.48,1.15.36,1.27.41,1.1.37a8.41,8.41,0,0,1,5.72,7.45,26.27,26.27,0,0,1-.66,7.4c-.21.92-.46,1.86-.76,2.8s-.6,1.8-1,2.7a50.67,50.67,0,0,1-2.31,5c-.4.77-.83,1.54-1.27,2.31s-.85,1.43-1.3,2.15l-.57.9.69.25a5.45,5.45,0,0,1,3.35,6.24,6.7,6.7,0,0,1-.94,2.3,10.58,10.58,0,0,1-.7,1,15.56,15.56,0,0,1-1.07,1.22c-.46.47-1,1-1.6,1.51l.85.82.07.07,1.16,1.15,0,0c1.27,1.29,2.45,2.57,3.6,3.81l.85.91,1,1,.84.87.12.12c.28.3.57.58.85.86l.09.1c.28.27.56.55.85.81l.06.06c.28.27.57.53.86.78l0,0,.86.71c6.14,4.91,9.14,9.41,9.19,13.73a8.16,8.16,0,0,1-2,5.5c-.26.36-.55.73-.88,1.16l-.27.33c-.4.51-.79,1-1.16,1.38l-.12.14c-.35.39-.73.79-1.14,1.22l-.27.28c-.44.44-.87.86-1.3,1.25l-.15.14c-.44.4-.85.77-1.28,1.13l-.23.2c-.47.38-1,.77-1.43,1.14l-.22.16c-.45.35-.93.69-1.39,1l-.15.1c-.49.34-1,.69-1.56,1l-.22.13c-1.06.67-2.18,1.31-3.31,1.9l-.14.08c-1.18.61-2.36,1.16-3.56,1.67l-.14.06c-1.15.49-2.34.94-3.54,1.36q.48,3.93.92,8.09v0c.43,4.07.76,7.57,1,10.07a98.26,98.26,0,0,1,10.64,1.87l.86.22c1.12.3,2.13.62,3,.94l.65.27a12.84,12.84,0,0,1,2.41,1.27c.21.15.4.29.57.43a6.16,6.16,0,0,1,2.47,5.15,6,6,0,0,1-1.05,3,6.79,6.79,0,0,1-1.08,1.21,10.7,10.7,0,0,1-3.7,2,23.93,23.93,0,0,1-2.83.76,39.74,39.74,0,0,1-4.49.64C188.31,241.17,186.84,241.23,185.37,241.23ZM165.24,140.11c.2.36.38.72.56,1.09l.35-.22.39-.27.15-.14.18-.21a14.42,14.42,0,0,0,1.47-2.48c.66-1.32,1.28-2.72,1.84-4.15.28-.72.55-1.44.8-2.17.18-.53.35-1.07.52-1.6l-.94-.21c-1.6-.34-3.25-.63-4.89-.86l-1.11-.14-1.24-.14a35.56,35.56,0,0,1-.58,3.9v.09c-.12.58-.26,1.18-.41,1.78l0,.11-.18.65A22.38,22.38,0,0,1,165.24,140.11ZM179.75,31.54a8,8,0,0,1,1.65.55,1.34,1.34,0,0,0-.27-1A5.4,5.4,0,0,0,179.75,31.54ZM97.26,26a1.67,1.67,0,0,0,0,.39l.12,0,.36-.1Z"/><path class="cls-2" d="M192.58,173.69c-5.58-4.46-10.4-11.78-18-17.11,1.47.11,2.49.11,2.49.11s7.95-5.78,5.63-6.71c-5.95-2.39-6.29,2.46-6.29,2.46l-2-2.62s13.23-15,12.43-27.6a3.6,3.6,0,0,0-2.44-3.16c-4.93-1.69-17.58-5.6-27.7-5.23a21.84,21.84,0,0,0-4.7-7.43c9.21-5.11,15.34-14.2,15.34-24.56,0-9.18-4.81-17.36-12.31-22.66.65-1.46,1.49-3.4,2.55-5.91,9.43-22.34,22.4-30,26.64-26,6.7,6.31-4.6,16-4.6,16s3.26-6.59-1.28-7c-8.23-.76-12.31,17.12-.94,13.16,15.72-5.47,21.15-29.12,4.16-26.52s-25.43,29.68-25.43,29.68-1.09,3.17-2,6a35.23,35.23,0,0,0-19.34-5.66,36,36,0,0,0-13.2,2.48c-.86-3.1-2.21-7.35-2.21-7.35s-7.82-27.25-22.85-30.53S86.54,38,100.5,44c10.09,4.4,6.24-13.53-1-13.12-4,.23-1,6.91-1,6.91S88.33,27.73,94.16,21.74c3.69-3.8,15.25,4.37,23.88,27,1.21,3.17,2.11,5.43,2.76,7a33.28,33.28,0,0,0-6.49,3.62c-2.3,1-4.39,3-6.35,5.9-.29.42-.55.83-.8,1.24a26.5,26.5,0,0,0-5,15.39c0,11,7,20.61,17.16,25.5-1,.69-2.12,1.54-3.3,2.54-2.68.24-7.16,2-12,9.41L84.87,134.12,69.51,123.48c0-.1,0-.21.07-.31a24.17,24.17,0,0,0-.89-9.53,46.1,46.1,0,0,1,1.21-4.76,1.6,1.6,0,0,0-.51-1.82,2.68,2.68,0,0,0-4,.49,1.94,1.94,0,0,0-.47,1,10.89,10.89,0,0,0,0,3.59s-.83,3.33-2.07,4.16l-2.7-1.46s-9.14-.2-5.82,7.69c0,0-1,4.78,1.25,6.23,0,0-.42,4.36,2.07,4.36,0,0,5.28,1,8.81-.65,2.72,2.16,17.85,13.7,22.27,8.1l16.54-13.85c-.09.45-.17.9-.23,1.37-1,6.94,1,13.12,5.67,17.52a14.56,14.56,0,0,0-.61,4.17c0,6,3.7,11.43,9.51,15A25,25,0,0,0,121.33,177a128.44,128.44,0,0,0-14.82,43s-18.14.87-17.36,8c.37,3.26,15.6,1.77,22.79-4.7,0,0-.76-22,15-36.36a57.31,57.31,0,0,0,4.76,5.41c9,9.07,23.66,12.42,37.51,10.41a118.06,118.06,0,0,1,3.45,27.77s-.73,5.07,9.4,5.79c14.45,1,28.93-5.06-4.34-8.68,0,0-.93-12.31-2.74-26,9.68-2.5,18.49-7.73,24.08-15.54C199.09,186,203.42,182.37,192.58,173.69Zm-33.9-50.27a72.85,72.85,0,0,1,18.71,3.08,54.55,54.55,0,0,1-4.7,13.56c-3.62,7.23-4.21,2.89-7.89,9.76a4.26,4.26,0,0,0-.55,1.77c-.46-.14-.92-.27-1.4-.39,0-.46.07-.91.07-1.38a15.17,15.17,0,0,0-2-7.52,18.52,18.52,0,0,0-4.29-5.94,32.86,32.86,0,0,0,2-13Z"/><path class="cls-3" d="M118.6,110.12s-6.8-2.75-14.62,9.17L84.87,134.12,68,122.44s-4.54,5.84-2,9.73c0,0,17.84,14.6,22.7,8.44l25.95-21.73Z"/><path class="cls-3" d="M57.68,133.16s12.88,2.49,11.84-6.65a10.54,10.54,0,0,1,.06-3.34,24.17,24.17,0,0,0-.89-9.53,46.1,46.1,0,0,1,1.21-4.76,1.6,1.6,0,0,0-.51-1.82,2.68,2.68,0,0,0-4,.49,1.94,1.94,0,0,0-.47,1,10.89,10.89,0,0,0,0,3.59s-.83,3.33-2.07,4.16l-2.7-1.46s-9.14-.2-5.82,7.69c0,0-1,4.78,1.25,6.23C55.61,128.8,55.19,133.16,57.68,133.16Z"/><path class="cls-4" d="M55,122.36s4.74-3.11,9.43,0c0,0,2-2.49-1.95-6C62.46,116.34,51.66,112.81,55,122.36Z"/><path class="cls-4" d="M55.19,121.74s-1.45,5.19,1,6.85c0,0-.62,3.33,1.87,4.36,0,0,4.36,1.25,7.27-.41,0,0,1.17-3.36-.45-4.28,0,0,1.91-2.58-.9-6.52C64,121.74,58.72,118.21,55.19,121.74Z"/><path class="cls-5" d="M55.07,122.23s2.67-1.79,9.29,0c0,0,1.61-1.48-.77-4.72l-1.13-1.17s2.46,3.14,1.62,5.22C64.08,121.56,58.07,119.2,55.07,122.23Z"/><path class="cls-5" d="M57.06,132.54s5.61.83,7.89-.21c0,0,.62-1.2,0-4.07,0,0,1.38.39.34,4.34,0,0-3,1.6-7.78.35C57.48,133,57.36,133,57.06,132.54Z"/><path class="cls-5" d="M69.21,107.37s-1,5.61-1.87,6.85A23,23,0,0,1,68.58,123a9.25,9.25,0,0,0,0,3.53,4.74,4.74,0,0,1-2.8,5.83s4.55-.36,3.57-6.21a8.76,8.76,0,0,1,.22-3.3,30.46,30.46,0,0,0-1-9,45,45,0,0,1,1.21-4.76C70,108.82,69.9,107.85,69.21,107.37Z"/><path class="cls-6" d="M54.65,122.36s-1.72-7.15,5.54-6.73l2.27.91-1.89-1.13a1.65,1.65,0,0,0-.84-.19C58,115.31,52,116.13,54.65,122.36Z"/><path class="cls-6" d="M55.28,128.14s-.5-3.81.12-5.57a18.21,18.21,0,0,1,8-.58s-4.51-1.33-8.34.26c-.42.18-.32.45-.38.91C54.49,124.49,54.3,126.71,55.28,128.14Z"/><path class="cls-6" d="M57.65,132.87s-1.14-.32-1.35-3.71c0,0,6.42.5,8.44-.78a56.28,56.28,0,0,0-8.76.44S55.58,132.7,57.65,132.87Z"/><path class="cls-5" d="M65.16,123.83s0,3.31-.83,3.72a23.72,23.72,0,0,1-8.52.63S55,128,55,126.93c0,0-.3.83,1.06,1.88a53,53,0,0,0,8.88-.55S66.2,126.76,65.16,123.83Z"/><path class="cls-6" d="M69,107.25s-2.73-.44-3.14,1a5.07,5.07,0,0,0-.21,4s-.33,4.09-2.72,4.52a6.58,6.58,0,0,0,2.29-4.61s-.6-3.77.65-4.6C65.91,107.56,67,105.94,69,107.25Z"/><path class="cls-3" d="M122.42,175.14A127.25,127.25,0,0,0,106.51,220s-18.14.87-17.36,8c.37,3.26,15.6,1.77,22.79-4.7,0,0-1.09-31.46,26.39-43.75S122.42,175.14,122.42,175.14Z"/><path class="cls-3" d="M120.25,162.12s-5.25,13.31,11.48,30.16,52.89,14,67.36-6.29c0,0,4.33-3.62-6.51-12.3s-18.86-28.2-50.29-22.78S120.25,162.12,120.25,162.12Z"/><path class="cls-7" d="M152.3,176.3a5,5,0,0,1-3.46,9.07c-14.65-2-27-4.42-18.46,4.23,16.73,16.85,54,16.69,68.48-3.56,0,0,2.65-3.93-8.2-12.61s-15.11-25.41-46.54-20C127.18,156.36,138.37,167.06,152.3,176.3Z"/><ellipse class="cls-3" cx="136.53" cy="149.82" rx="26.4" ry="19.53"/><path class="cls-3" d="M159,174.78s13.74,24.58,13.74,55.68c0,0-.73,5.07,9.4,5.79,14.45,1,28.93-5.06-4.34-8.68,0,0-3.25-43-9.4-57.86"/><path class="cls-5" d="M162.2,148.38c0,10.78-11.82,19.52-26.4,19.52s18.45-7.29,18.45-18.08-33-21-18.45-21S162.2,137.59,162.2,148.38Z"/><path class="cls-3" d="M123.15,105s-15.91,8-18.08,23.15,10.12,26.76,32.54,23.86,26.44-33.33,14.31-45.59S123.15,105,123.15,105Z"/><path class="cls-5" d="M114.39,111.36s20.33,13.87,34.07,6.28c0,0,6.23,23.3-23.87,32.18,0,0,26.87,4.9,31.82-17.35s-10.5-29-10.5-29L123.15,105Z"/><path class="cls-3" d="M154.33,114c10.41-1.16,24.68,3.24,30,5.06a3.6,3.6,0,0,1,2.44,3.16c.8,12.61-12.43,27.6-12.43,27.6l2,2.62s.34-4.85,6.29-2.46c2.32.93-5.63,6.71-5.63,6.71s-15.91,0-12.23-6.87,4.27-2.53,7.89-9.76a54.55,54.55,0,0,0,4.7-13.56,72.85,72.85,0,0,0-18.71-3.08,4.25,4.25,0,0,1-3.51-2.06C153.57,118.69,151.42,114.32,154.33,114Z"/><path class="cls-8" d="M119.31,48s-7.82-27.25-22.85-30.53S86.54,38,100.5,44c10.09,4.4,6.24-13.53-1-13.12-4,.23-1,6.91-1,6.91S88.33,27.73,94.16,21.74c3.69-3.8,15.25,4.37,23.88,27S119.31,48,119.31,48Z"/><path class="cls-8" d="M156.05,52.55s8.43-27.08,25.43-29.68S193,43.92,177.32,49.39c-11.37,4-7.29-13.92.94-13.16,4.54.41,1.28,7,1.28,7s11.3-9.69,4.6-16c-4.24-4-17.21,3.7-26.64,26S156.05,52.55,156.05,52.55Z"/><ellipse class="cls-3" cx="134.72" cy="81.84" rx="32.55" ry="28.93"/><path class="cls-9" d="M162.92,72.44c1.18,7.7-.39,11.86-6.91,12.86s-11.8-5.52-13-13.22,0-12,6.5-13S161.75,64.74,162.92,72.44Z"/><path class="cls-10" d="M162.92,72.44a26.06,26.06,0,0,1,.39,4.67,10,10,0,0,1-1,4.56,6.89,6.89,0,0,1-3.52,3.08,11.61,11.61,0,0,1-4.67.87,9.38,9.38,0,0,1-4.55-1.49,12.94,12.94,0,0,1-3.49-3.31A20,20,0,0,1,142.52,72a30.14,30.14,0,0,1-.34-4.76,10.6,10.6,0,0,1,1-4.73,6.69,6.69,0,0,1,3.73-3.1,10.93,10.93,0,0,1,4.74-.62,9.72,9.72,0,0,1,4.41,1.72,14.23,14.23,0,0,1,3.35,3.31A19.42,19.42,0,0,1,162.92,72.44Zm0,0a19.22,19.22,0,0,0-3.59-8.55,11.16,11.16,0,0,0-7.69-4.66,10.23,10.23,0,0,0-4.47.77A5.92,5.92,0,0,0,144,62.88a10,10,0,0,0-.86,4.37,29.77,29.77,0,0,0,.41,4.59,19.6,19.6,0,0,0,3.25,8.48,13.15,13.15,0,0,0,3.17,3.23,8.75,8.75,0,0,0,4.21,1.57,11.08,11.08,0,0,0,4.51-.67,6.43,6.43,0,0,0,3.51-2.85,9.92,9.92,0,0,0,1.09-4.49A27.1,27.1,0,0,0,162.92,72.44Z"/><ellipse class="cls-11" cx="152.83" cy="72.61" rx="6.71" ry="7.96" transform="translate(-9.21 23.91) rotate(-8.69)"/><ellipse class="cls-12" cx="152.77" cy="72.69" rx="3.35" ry="3.97" transform="matrix(0.99, -0.15, 0.15, 0.99, -9.22, 23.9)"/><ellipse class="cls-9" cx="150.23" cy="69.91" rx="2" ry="2.44" transform="translate(-8.83 23.49) rotate(-8.69)"/><path class="cls-9" d="M108,65.21c-7.6,11.21-2.81,17.41,1.86,18.78s10.25-3.58,12.44-11.06,2.31-12.5-2.37-13.87S111.4,60.13,108,65.21Z"/><path class="cls-10" d="M108,65.21a23.14,23.14,0,0,0-3.61,8,11.18,11.18,0,0,0,0,4.35,7.94,7.94,0,0,0,1.91,3.8,7.74,7.74,0,0,0,3.56,2.23,6,6,0,0,0,4.06-.31,13.61,13.61,0,0,0,6-5.87,28,28,0,0,0,3-8.16,21,21,0,0,0,.62-4.3,6.51,6.51,0,0,0-1-4,5.64,5.64,0,0,0-3.68-2,7.58,7.58,0,0,0-4.29.41C111.66,60.48,109.62,62.81,108,65.21Zm0,0c1.63-2.43,3.62-4.79,6.38-6a9.53,9.53,0,0,1,2.15-.59,8.4,8.4,0,0,1,2.24,0,6,6,0,0,1,4,2A7,7,0,0,1,124,65a21.46,21.46,0,0,1-.46,4.47,28.5,28.5,0,0,1-2.9,8.48,16.54,16.54,0,0,1-2.74,3.61,11.54,11.54,0,0,1-3.79,2.58,6.49,6.49,0,0,1-4.59.19,8.32,8.32,0,0,1-3.75-2.57A8.51,8.51,0,0,1,104,77.62a11.63,11.63,0,0,1,.23-4.44A23.36,23.36,0,0,1,108,65.21Z"/><ellipse class="cls-11" cx="114.35" cy="71.75" rx="7.96" ry="4.96" transform="translate(13.37 161.34) rotate(-73.68)"/><ellipse class="cls-12" cx="114.39" cy="71.83" rx="3.97" ry="2.47" transform="translate(13.32 161.43) rotate(-73.68)"/><ellipse class="cls-9" cx="116.76" cy="69.25" rx="2.44" ry="1.48" transform="matrix(0.28, -0.96, 0.96, 0.28, 17.49, 161.85)"/><path class="cls-13" d="M112.3,86.9s4.34,6.51,15.91,5.79a69.22,69.22,0,0,0,20.25-4.34s-6.51,13-21,13.74S112.3,86.9,112.3,86.9Z"/><path class="cls-14" d="M115.19,90.52s8,6.51,26.17,1.06c1.31-.39.85,0,.85,0s-2.43,4.73-12.55,6.89S115.19,90.52,115.19,90.52Z"/><path class="cls-6" d="M116.93,136.27a3.18,3.18,0,0,0,2.23-1.18c.73-1.25-.46-2.78-1.72-3.5s-2.8-1.29-3.33-2.64c-1.64-4.21,6.06-6.33,2.61-11-2.25-3.06-4.76-1.23-6.66,1.17-2.12,2.68-4.86,8-4.23,11.48C107,137.3,111.51,137.4,116.93,136.27Z"/><path class="cls-6" d="M127.55,72.69s-12,11.73-5.31,11.52S129.79,81.62,127.55,72.69Z"/></svg>