<svg id="Layer_54" data-name="Layer 54" xmlns="http://www.w3.org/2000/svg" viewBox="0 0 256 256"><defs><style>.cls-1{opacity:0.5;}.cls-2{fill:#fff;}.cls-3{fill:#702d32;}.cls-4{fill:#6b6b6a;}.cls-5{fill:#ffcb0f;}.cls-6{fill:#00798b;}.cls-7{fill:#e4051f;}.cls-8{fill:#6d6c6b;}.cls-9{fill:#706e6d;}.cls-10{fill:#766a6b;}.cls-11{fill:#f9e0d6;}.cls-12{fill:#fbc69a;}.cls-13{fill:#e3e5dd;}.cls-14{fill:#7ea0a8;}.cls-15{fill:#e2a7af;}.cls-16{fill:#d77c85;}.cls-17{fill:#c3d200;}.cls-18{fill:#720d03;}.cls-19{fill:#e10a1f;}.cls-20{fill:#d91a21;}.cls-21{fill:#cf0b21;}.cls-22{fill:#d82420;}.cls-23{fill:#bc0f21;}.cls-24{fill:#9f1924;}.cls-25{fill:#2d7a71;}.cls-26{fill:#db9f18;}.cls-27{fill:#b4900d;}.cls-28{fill:#a71b29;}.cls-29{fill:#814a29;}.cls-30{fill:#45855f;}.cls-31{fill:#378870;}.cls-32{fill:#ef9d91;}.cls-33{fill:#ffca0f;}.cls-34{fill:#fec80f;}.cls-35{fill:#ffc80f;}.cls-36{fill:#fdc010;}.cls-37{fill:#900b09;}.cls-38{fill:#fff596;}.cls-39{fill:#e4061f;}.cls-40{fill:#e5091f;}.cls-41{fill:#e5081f;}.cls-42{fill:#e50b1f;}.cls-43{fill:#ffed7c;}.cls-44{fill:#ffea73;}.cls-45{fill:#ffe35e;}.cls-46{fill:#ffdb43;}.cls-47{fill:#fffd96;}.cls-48{fill:#01798a;}.cls-49{fill:#047b88;}.cls-50{fill:#057b88;}.cls-51{fill:#f2f476;}.cls-52{fill:#dfe648;}.cls-53{fill:#d9e239;}.cls-54{fill:#d0db20;}.cls-55{fill:#00b9ca;}.cls-56{fill:#bfd102;}.cls-57{fill:#b7cd08;}.cls-58{fill:#b8cd07;}.cls-59{fill:#009aab;}</style></defs><path class="cls-1" d="M112.68,233.8a6.67,6.67,0,0,1-6.16-4.05,6.44,6.44,0,0,1-4.85-9.09,6.74,6.74,0,0,1,.63-9.8,11.82,11.82,0,0,1,1.32-1,20.54,20.54,0,0,1,6-2.83,11.15,11.15,0,0,1,3-.43,8.71,8.71,0,0,1,1,.05,7.4,7.4,0,0,1,4.61,2.18,68.65,68.65,0,0,1,16.19-5.9,63.32,63.32,0,0,1,8.94-1.32c1.55-.12,3.13-.18,4.81-.18l2.13,0a64.94,64.94,0,0,1,6.77.56,95.73,95.73,0,0,1,19.12,4.68c2.87,1,5.74,2,8.52,3l3.92,1.42a98.43,98.43,0,0,0,9.44,3,30.06,30.06,0,0,0,6.93,1h.17a14.4,14.4,0,0,0,7.21-1.83,9.51,9.51,0,0,0,4.24-4.38,9.22,9.22,0,0,0,.14-7.85,12.8,12.8,0,0,0-4.16-5.16,25.45,25.45,0,0,0-7.53-3.86,48.18,48.18,0,0,0-8.36-1.89,100.6,100.6,0,0,1-12.9-2.74l-.91-.26a7.32,7.32,0,0,1-5.59,3.74,9.12,9.12,0,0,1-1.18.07,10.11,10.11,0,0,1-2.79-.4,20.09,20.09,0,0,1-7-3.61,7,7,0,0,1-2.94-5.46,6.38,6.38,0,0,1,.42-2.46c-2.23-1.3-4.38-2.7-6.43-4.18l-.93-.69A7.39,7.39,0,0,1,150.6,177a8.63,8.63,0,0,1-2.27-.32,11.06,11.06,0,0,1-3.09-1.38,23.12,23.12,0,0,1-6.9-6.82,7.32,7.32,0,0,1-1.16-6.1,6.7,6.7,0,0,1,2-3.27c-1.25-.86-2.6-1.72-4.07-2.6a136.06,136.06,0,0,0-16.35-8.23c-7.07-3-14.84-5.95-23.78-8.86-7.66-2.5-15.67-4.86-24.27-7.14a7.61,7.61,0,0,1-1.82,9.46,13.28,13.28,0,0,1-3.06,1.94,6.33,6.33,0,0,1-1.15.41A9.27,9.27,0,0,1,63.09,146l-1.46,1.31a13.63,13.63,0,0,1-3.31,2.16l-2.51,1.11-2.49-1.18a6.64,6.64,0,0,1-2.51-2.13,15.33,15.33,0,0,1-1.73.16h-.4a6.34,6.34,0,0,1-5-2.37,6.27,6.27,0,0,1-1.32-3.44l-.32-.29c-.54-.45-1.11-.88-1.68-1.31a27.86,27.86,0,0,1-3.67-3.29,22.92,22.92,0,0,1-6-12.4,14.6,14.6,0,0,1,.45-6.73,10.12,10.12,0,0,1,.15-1.31c.1-.55.2-1.05.29-1.55.14-.7.27-1.4.38-2.1.42-2.66.71-4.7,1-6.62s.51-4,.75-6.41c.18-1.76.33-3.52.47-5.28l0-.24q.29-3.54.54-7.08c.09-1.28.17-2.55.23-3.83l.3-6.55.22-5c.31-6.81.41-13.56.5-21,.05-3.8,0-7.67,0-11.43,0-1.56,0-3.13,0-4.7,0-7.17,6.19-7.25,6.45-7.25a9.34,9.34,0,0,1,2.23.31c4,.91,8.26,1.76,13.58,2.66,3.9.67,7.81,1.27,11.62,1.78s7.44.91,11,1.32c3.38.38,6.39.7,9.19,1s5.55.47,8.27.68l.33,0q5.16.39,10.34.75c1.23.08,2.46.14,3.69.2l3.3.18c1.68.09,3.35.18,5,.24,2.71.11,5.42.19,8.13.26a11,11,0,0,1,1.35.14,16,16,0,0,1,2.51-.19,19.57,19.57,0,0,1,5.41.81,23.65,23.65,0,0,1,11.94,7.9c.38.46.74.92,1.11,1.39l.7.88a5.79,5.79,0,0,0,.48.51,6.11,6.11,0,0,1,4.06,1.8,6.44,6.44,0,0,1,1.81,4.77,11.53,11.53,0,0,1-.08,1.54l3.75,1.19-1.12,5.4a9.21,9.21,0,0,1-1.93,3.81c-.72.9-1.46,1.75-2.15,2.53a7.66,7.66,0,0,1-1.57,1.36,10.47,10.47,0,0,1-3.22,5.17,7.36,7.36,0,0,1-8.55.92,20.57,20.57,0,0,1-7.29-6.41c.18,1.78.38,3.61.63,5.59s.55,4.37.9,6.59c.31,2,.66,4,1,6.07l.34,2c.6,3.53,1.36,7.38,2.37,12.12,2.41,11.23,5.39,22.93,8.85,34.79,1,3.48,2,6.79,3,10a6.88,6.88,0,0,1,2.21-.37,6.79,6.79,0,0,1,3.52,1,13.66,13.66,0,0,1,1.69,1.23,23.89,23.89,0,0,1,5.18,6.36,12.54,12.54,0,0,1,1.49,4.05,7.82,7.82,0,0,1-1.25,5.89q2,1.37,4.14,2.59a6.66,6.66,0,0,1,6.19-4.14,7.4,7.4,0,0,1,1.85.24,11.14,11.14,0,0,1,1.79.64,20.57,20.57,0,0,1,5.5,3.67,10.88,10.88,0,0,1,2.61,3.56,7.68,7.68,0,0,1,.66,3.49c1.13.3,2.28.57,3.44.82,2.43.53,4.89.92,7,1.24a53.34,53.34,0,0,1,13,3.52,35,35,0,0,1,9.28,5.64,24.67,24.67,0,0,1,7.64,11.17,21.82,21.82,0,0,1-3.55,20.55,24,24,0,0,1-15.07,9.21,28,28,0,0,1-5.33.5,34.06,34.06,0,0,1-4.81-.35,67.91,67.91,0,0,1-13.34-3.42c-2.48-.86-4.95-1.75-7.42-2.65q-2.43-.89-4.89-1.76a116.85,116.85,0,0,0-12.61-3.82,69.37,69.37,0,0,0-9.24-1.52c-1.66-.15-3.33-.22-5-.22-1.3,0-2.62,0-3.92.14a50.15,50.15,0,0,0-13,2.78,59.92,59.92,0,0,0-6.56,2.78,7.31,7.31,0,0,1-.12,5.69,9.45,9.45,0,0,1-1.91,2.85,19.54,19.54,0,0,1-7.3,4.72,8.42,8.42,0,0,1-1.12.34A7.28,7.28,0,0,1,112.68,233.8Z"/><path class="cls-2" d="M107.68,228.8a6.67,6.67,0,0,1-6.16-4.05,6.44,6.44,0,0,1-4.85-9.09,6.74,6.74,0,0,1,.63-9.8,11.82,11.82,0,0,1,1.32-1,20.54,20.54,0,0,1,6-2.83,11.15,11.15,0,0,1,3-.43,8.71,8.71,0,0,1,1,.05,7.4,7.4,0,0,1,4.61,2.18,68.65,68.65,0,0,1,16.19-5.9,63.32,63.32,0,0,1,8.94-1.32c1.55-.12,3.13-.18,4.81-.18l2.13,0a64.94,64.94,0,0,1,6.77.56,95.73,95.73,0,0,1,19.12,4.68c2.87,1,5.74,2,8.52,3l3.92,1.42a98.43,98.43,0,0,0,9.44,3,30.06,30.06,0,0,0,6.93,1h.17a14.4,14.4,0,0,0,7.21-1.83,9.51,9.51,0,0,0,4.24-4.38,9.22,9.22,0,0,0,.14-7.85,12.8,12.8,0,0,0-4.16-5.16,25.45,25.45,0,0,0-7.53-3.86,48.18,48.18,0,0,0-8.36-1.89,100.6,100.6,0,0,1-12.9-2.74l-.91-.26a7.32,7.32,0,0,1-5.59,3.74,9.12,9.12,0,0,1-1.18.07,10.11,10.11,0,0,1-2.79-.4,20.09,20.09,0,0,1-7-3.61,7,7,0,0,1-2.94-5.46,6.38,6.38,0,0,1,.42-2.46c-2.23-1.3-4.38-2.7-6.43-4.18l-.93-.69A7.39,7.39,0,0,1,145.6,172a8.63,8.63,0,0,1-2.27-.32,11.06,11.06,0,0,1-3.09-1.38,23.12,23.12,0,0,1-6.9-6.82,7.32,7.32,0,0,1-1.16-6.1,6.7,6.7,0,0,1,2-3.27c-1.25-.86-2.6-1.72-4.07-2.6a136.06,136.06,0,0,0-16.35-8.23c-7.07-3-14.84-5.95-23.78-8.86-7.66-2.5-15.67-4.86-24.27-7.14a7.61,7.61,0,0,1-1.82,9.46,13.28,13.28,0,0,1-3.06,1.94,6.33,6.33,0,0,1-1.15.41A9.27,9.27,0,0,1,58.09,141l-1.46,1.31a13.63,13.63,0,0,1-3.31,2.16l-2.51,1.11-2.49-1.18a6.64,6.64,0,0,1-2.51-2.13,15.33,15.33,0,0,1-1.73.16h-.4a6.34,6.34,0,0,1-5-2.37,6.27,6.27,0,0,1-1.32-3.44l-.32-.29c-.54-.45-1.11-.88-1.68-1.31a27.86,27.86,0,0,1-3.67-3.29,22.92,22.92,0,0,1-6-12.4,14.6,14.6,0,0,1,.45-6.73,10.12,10.12,0,0,1,.15-1.31c.1-.55.2-1.05.29-1.55.14-.7.27-1.4.38-2.1.42-2.66.71-4.7,1-6.62s.51-4,.75-6.41c.18-1.76.33-3.52.47-5.28l0-.24q.29-3.54.54-7.08c.09-1.28.17-2.55.23-3.83l.3-6.55.22-5c.31-6.81.41-13.56.5-21,0-3.8,0-7.67,0-11.43,0-1.56,0-3.13,0-4.7,0-7.17,6.19-7.25,6.45-7.25a9.34,9.34,0,0,1,2.23.31c4,.91,8.26,1.76,13.58,2.66,3.9.67,7.81,1.27,11.62,1.78s7.44.91,11,1.32c3.38.38,6.39.7,9.19,1s5.55.47,8.27.68l.33,0q5.16.39,10.34.75c1.23.08,2.46.14,3.69.2l3.3.18c1.68.09,3.35.18,5,.24,2.71.11,5.42.19,8.13.26a11,11,0,0,1,1.35.14,16,16,0,0,1,2.51-.19,19.57,19.57,0,0,1,5.41.81,23.65,23.65,0,0,1,11.94,7.9c.38.46.74.92,1.11,1.39l.7.88a5.79,5.79,0,0,0,.48.51,6.11,6.11,0,0,1,4.06,1.8,6.44,6.44,0,0,1,1.81,4.77,11.53,11.53,0,0,1-.08,1.54l3.75,1.19-1.12,5.4a9.21,9.21,0,0,1-1.93,3.81c-.72.9-1.46,1.75-2.15,2.53a7.66,7.66,0,0,1-1.57,1.36,10.47,10.47,0,0,1-3.22,5.17,7.36,7.36,0,0,1-8.55.92,20.57,20.57,0,0,1-7.29-6.41c.18,1.78.38,3.61.63,5.59s.55,4.37.9,6.59c.31,2,.66,4,1,6.07l.34,2c.6,3.53,1.36,7.38,2.37,12.12,2.41,11.23,5.39,22.93,8.85,34.79,1,3.48,2,6.79,3,10a6.88,6.88,0,0,1,2.21-.37,6.79,6.79,0,0,1,3.52,1,13.66,13.66,0,0,1,1.69,1.23,23.89,23.89,0,0,1,5.18,6.36,12.54,12.54,0,0,1,1.49,4.05,7.82,7.82,0,0,1-1.25,5.89q2,1.37,4.14,2.59a6.66,6.66,0,0,1,6.19-4.14,7.4,7.4,0,0,1,1.85.24,11.14,11.14,0,0,1,1.79.64,20.57,20.57,0,0,1,5.5,3.67,10.88,10.88,0,0,1,2.61,3.56,7.68,7.68,0,0,1,.66,3.49c1.13.3,2.28.57,3.44.82,2.43.53,4.89.92,7,1.24a53.34,53.34,0,0,1,13,3.52,35,35,0,0,1,9.28,5.64,24.67,24.67,0,0,1,7.64,11.17,21.82,21.82,0,0,1-3.55,20.55,24,24,0,0,1-15.07,9.21,28,28,0,0,1-5.33.5,34.06,34.06,0,0,1-4.81-.35,67.91,67.91,0,0,1-13.34-3.42c-2.48-.86-4.95-1.75-7.42-2.65q-2.43-.89-4.89-1.76a116.85,116.85,0,0,0-12.61-3.82,69.37,69.37,0,0,0-9.24-1.52c-1.66-.15-3.33-.22-5-.22-1.3,0-2.62,0-3.92.14a50.15,50.15,0,0,0-13,2.78,59.92,59.92,0,0,0-6.56,2.78,7.31,7.31,0,0,1-.12,5.69,9.45,9.45,0,0,1-1.91,2.85,19.54,19.54,0,0,1-7.3,4.72,8.42,8.42,0,0,1-1.12.34A7.28,7.28,0,0,1,107.68,228.8Z"/><path class="cls-3" d="M124.8,39.74a95.15,95.15,0,0,0-.33,11.45c.08,2.49.11,5,.32,7.46.19,2.24.36,4.47.58,6.7.19,2,.42,4.05.67,6.06.29,2.26.58,4.52.93,6.77.42,2.73.9,5.46,1.37,8.19.7,4.14,1.53,8.26,2.42,12.37,2.54,11.85,5.56,23.58,9,35.21,2,6.79,4.08,13.55,6.35,20.25.12.36.27.71.41,1.07s0,.64-.47.62a.84.84,0,0,1-.52-.32,63.94,63.94,0,0,0-12.25-9.2,141.73,141.73,0,0,0-17.06-8.58c-8-3.44-16.07-6.38-24.29-9.07-11-3.59-22.18-6.7-33.42-9.5-6.56-1.63-13.15-3.13-19.75-4.56-1.54-.33-3.09-.62-4.64-.93-.22-.14-.43,0-.65,0l-.28,0a1.88,1.88,0,0,1-.58-.07.45.45,0,0,1-.28-.32,1.31,1.31,0,0,1-.08-1.11c.22-1.25.49-2.48.68-3.73.35-2.24.69-4.5,1-6.75s.54-4.39.77-6.58c.19-1.89.34-3.77.5-5.66.19-2.38.37-4.75.54-7.13.1-1.33.19-2.66.25-4,.18-3.85.33-7.7.51-11.56.32-7.07.42-14.16.51-21.24.07-5.4,0-10.8,0-16.2,0-1.37,0-1.4,1.33-1.1,4.61,1.07,9.26,1.94,13.92,2.74,3.93.67,7.88,1.28,11.84,1.8,3.72.5,7.44.92,11.17,1.34,3.1.35,6.2.68,9.3,1,2.9.27,5.8.49,8.7.71q5.19.41,10.39.76c1.71.11,3.43.19,5.14.27,2.35.13,4.69.26,7,.36,2.73.11,5.47.19,8.2.26.41,0,.78,0,1,.44.15.14-.1.37.12.5,0,.31,0,.63,0,.94C125,39.57,124.88,39.63,124.8,39.74Z"/><path class="cls-4" d="M171.84,172.56a2.61,2.61,0,0,0,1,.56,88.74,88.74,0,0,0,13.38,4c2.43.52,4.88.93,7.34,1.3a47.75,47.75,0,0,1,11.54,3.12,28.91,28.91,0,0,1,7.71,4.66,18.76,18.76,0,0,1,5.84,8.46A15.85,15.85,0,0,1,216,209.77a18.15,18.15,0,0,1-11.42,6.92,24.62,24.62,0,0,1-8.17.1,64.21,64.21,0,0,1-12.19-3.14c-4.1-1.43-8.17-3-12.27-4.4a120,120,0,0,0-13.27-4,74.14,74.14,0,0,0-10.05-1.65,59.27,59.27,0,0,0-9.88-.09,55.9,55.9,0,0,0-14.55,3.1,70.57,70.57,0,0,0-15.87,8.12,4,4,0,0,0-.3.28.34.34,0,0,1-.54,0c-.09-.52.24-.87.5-1.25a.68.68,0,0,1,.41-.21c1.91-1.18,3.81-2.37,5.78-3.44a63,63,0,0,1,16.54-6.32,56.72,56.72,0,0,1,8.1-1.2,58.11,58.11,0,0,1,12.49.39,89.81,89.81,0,0,1,17.93,4.4c4.14,1.42,8.25,2.94,12.37,4.42a103.85,103.85,0,0,0,10,3.15,35.87,35.87,0,0,0,8.31,1.21,20.35,20.35,0,0,0,10.38-2.6,15.41,15.41,0,0,0,6.76-7.13,15.22,15.22,0,0,0,.22-12.65,18.9,18.9,0,0,0-6-7.58,31.26,31.26,0,0,0-9.3-4.8,54.34,54.34,0,0,0-9.41-2.15,94.78,94.78,0,0,1-12.13-2.57q-3.88-1.11-7.67-2.56a2.48,2.48,0,0,0-1-.3.9.9,0,0,1-.53-1.29C171.47,172.34,171.67,172.31,171.84,172.56Z"/><path class="cls-5" d="M125,39.39a.78.78,0,0,1,0-1,4.05,4.05,0,0,1,3.15-.07,14.51,14.51,0,0,1,5.51,3.36l.23.23.11.11c.31.39.77.68.88,1.21,1.83,2,3.5,4.19,5.27,6.26a25.19,25.19,0,0,0,4.49,4.26,14,14,0,0,0,5,2.39,6.14,6.14,0,0,1,.62.19,3.37,3.37,0,0,1-.75,1.38c-.64.79-1.3,1.56-2,2.32-.32.37-.49.39-.91.16a19.19,19.19,0,0,1-4-2.89,28.51,28.51,0,0,1-4-4.73c-.7-1-1.35-2-2-3.06a24.71,24.71,0,0,0-4-4.72.74.74,0,0,1-.59-.17c-2-2-4.06-3.93-6.75-5A.41.41,0,0,1,125,39.39Z"/><path class="cls-5" d="M32.56,113.55l.61,0c.33.15.21.55.41.77,1,2.44,2.83,4.19,4.49,6.11.18.2.49.31.41.66A25.18,25.18,0,0,0,43,125c.72.49,1.47.94,2.21,1.41a43.71,43.71,0,0,1,4.22,3,21.48,21.48,0,0,1,4.82,5.37c.63,1,.63,1-.23,1.83-.44.4-.88.8-1.34,1.19A7.47,7.47,0,0,1,50.9,139c-.3-.14-.25-.43-.31-.64a13.58,13.58,0,0,0-2.12-4.42,23.86,23.86,0,0,0-4.24-4.51c-.83-.7-1.68-1.38-2.53-2-1.69-1.32-3.35-2.66-4.9-4.13a3.37,3.37,0,0,1-.92-.57A18.35,18.35,0,0,1,33.12,119a7,7,0,0,1-1-4.21C32.16,114.33,32.1,113.84,32.56,113.55Z"/><path class="cls-6" d="M125,39.39a7.16,7.16,0,0,1,2.46,1.09,31.5,31.5,0,0,1,4.41,3.66,1.72,1.72,0,0,1,.24.34,2.28,2.28,0,0,1,.48.71l1.09,2c1,2,1.85,4,2.72,6,.55,1.28,1.11,2.57,1.72,3.83a17.19,17.19,0,0,0,2.53,3.85,8.83,8.83,0,0,0,3.71,2.67,2.61,2.61,0,0,1,.32.17,4.56,4.56,0,0,1-1.4,2.28,1.36,1.36,0,0,1-1.66.19c-3-1.68-5.49-3.85-6.56-7.31-.78-2.54-1.61-5.07-2.46-7.59a38.42,38.42,0,0,0-2.31-5.41,19.69,19.69,0,0,0-2.2-3.44,9.44,9.44,0,0,0-3.26-2.76Z"/><path class="cls-6" d="M38.48,121.12a29.88,29.88,0,0,1-3.95-4.46,6.14,6.14,0,0,1-1.1-2.25.4.4,0,0,1,0-.42.2.2,0,0,1,.26,0A11.33,11.33,0,0,0,37,117.46a26.56,26.56,0,0,0,5.37,2.85A81.23,81.23,0,0,0,50.48,123c.94.28,1.89.55,2.82.84a10.84,10.84,0,0,1,5,3.23,25.31,25.31,0,0,1,2.05,2.79,1.65,1.65,0,0,1-.33,2.34,7.29,7.29,0,0,1-1.7,1.05.27.27,0,0,1-.35-.12.3.3,0,0,1,0-.1,9.09,9.09,0,0,0-3.27-4.15,18.82,18.82,0,0,0-3.5-2.11c-1.62-.76-3.28-1.41-4.94-2.06a49.75,49.75,0,0,1-7.31-3.44C38.75,121.22,38.61,121.18,38.48,121.12Z"/><path class="cls-7" d="M32.56,113.55a6.71,6.71,0,0,0,.48,4.7,15.22,15.22,0,0,0,2.27,3.39l.81,1a1.24,1.24,0,0,1,.38.64,9.09,9.09,0,0,0,2.13,2.57q2.11,1.81,4.17,3.69a20.73,20.73,0,0,1,1.55,1.56,7.51,7.51,0,0,1,1.82,3.84,1,1,0,0,1-.73,1.29,6.23,6.23,0,0,1-1.66.24c-.42,0-.53-.07-.43-.47a2.33,2.33,0,0,0-.37-1.8,9.39,9.39,0,0,0-2.13-2.44c-.62-.52-1.26-1-1.91-1.49a22.11,22.11,0,0,1-2.89-2.59,17,17,0,0,1-4.44-9.22,8,8,0,0,1,.67-5Z"/><path class="cls-7" d="M133.58,42c-.74-.58-1.47-1.17-2.23-1.73a11.82,11.82,0,0,0-2.56-1.41,6.66,6.66,0,0,0-2.86-.47l-.94.06c-.19-.14,0-.29,0-.44a11.18,11.18,0,0,1,6.82.09,17.69,17.69,0,0,1,9,6c.6.73,1.18,1.49,1.78,2.22a10.45,10.45,0,0,0,2.23,2.07,4.29,4.29,0,0,0,1.41.68,1.59,1.59,0,0,0,.72,0c.64-.12.65-.11.64.48a4.43,4.43,0,0,1-.16,1.45c-.25.77-.56,1-1.32.86a7.86,7.86,0,0,1-3.54-1.5,14.34,14.34,0,0,1-1.86-1.71c-1.28-1.39-2.55-2.79-3.83-4.19A6.14,6.14,0,0,0,135.17,43c-.57-.06-.89-.54-1.33-.81h0A1.09,1.09,0,0,0,133.58,42Z"/><path class="cls-7" d="M147.45,156.26c.31-1.47.6-2.95.94-4.41a12.08,12.08,0,0,1,.93-2.67,3.09,3.09,0,0,1,.8-1.1.78.78,0,0,1,1-.09,5.72,5.72,0,0,1,.85.61,18,18,0,0,1,3.9,4.78,6.73,6.73,0,0,1,.81,2.15,1.67,1.67,0,0,1-1.38,2.09,13.08,13.08,0,0,1-2.71.3,14.29,14.29,0,0,1-3.73-.52c-.38.22-1-.07-1.2.48a.23.23,0,0,1-.25.13c-.37-.26-.31-.65-.29-1A1.27,1.27,0,0,1,147.45,156.26Z"/><path class="cls-7" d="M147.32,156.93c0,.35-.12.73.17,1,.26.15,0,.47.22.65a25.35,25.35,0,0,1,0,3.26,10.34,10.34,0,0,1-.6,2.87,1.64,1.64,0,0,1-2.24,1.15,5.55,5.55,0,0,1-1.43-.64,17.19,17.19,0,0,1-5.12-5.07c-.68-1.05-.52-1.53.58-2.07a8,8,0,0,1,1.8-.57,31.22,31.22,0,0,1,5-.63l.94-.06A.49.49,0,0,1,147.32,156.93Z"/><path class="cls-7" d="M107.51,214.8c.11.24.32.23.53.2a14.37,14.37,0,0,1,3.89.83,7.64,7.64,0,0,1,1.59.8,1.27,1.27,0,0,1,.5,1.74,3.51,3.51,0,0,1-.71,1,13.42,13.42,0,0,1-5.08,3.27,1.42,1.42,0,0,1-.29.1.73.73,0,0,1-.94-.47,4.17,4.17,0,0,1-.3-1.53,24.08,24.08,0,0,1,.3-4c0-.38.09-.77.14-1.15s-.23-.6,0-.9A.33.33,0,0,1,107.51,214.8Z"/><path class="cls-7" d="M171.33,172.54a2,2,0,0,0,.45,1.24,15,15,0,0,1,.91,3,8.48,8.48,0,0,1,.1,1.88,1.24,1.24,0,0,1-1.24,1.29,3.9,3.9,0,0,1-1.56-.15,14.08,14.08,0,0,1-4.89-2.53c-.79-.63-1-1,0-1.92a7.83,7.83,0,0,1,1.86-1.16l2.76-1.26c.33-.43.86-.41,1.31-.57l.09-.27C171.47,172.09,171.45,172.29,171.33,172.54Z"/><path class="cls-7" d="M171.33,172.54c0-.18,0-.36-.22-.46a8.05,8.05,0,0,1-.34-2.17,17.85,17.85,0,0,1-.09-3.35,3.86,3.86,0,0,1,.24-1.12.77.77,0,0,1,1.06-.56,4.36,4.36,0,0,1,.79.28,14.65,14.65,0,0,1,3.91,2.6,5.16,5.16,0,0,1,1.21,1.57,1.27,1.27,0,0,1-.53,1.8,9.65,9.65,0,0,1-3,1.16,12.35,12.35,0,0,1-2.5.27Z"/><path class="cls-7" d="M107.51,214.8l-.47,0a.33.33,0,0,1-.51-.05,2,2,0,0,0-.83-.42,27,27,0,0,1-3.18-1.6,5.86,5.86,0,0,1-1.25-1c-.57-.62-.56-.95,0-1.5a6.55,6.55,0,0,1,.66-.52,14.71,14.71,0,0,1,4.25-2,4.55,4.55,0,0,1,1.76-.19,1.22,1.22,0,0,1,1.27,1.36,8.25,8.25,0,0,1-.37,2.79c-.17.54-.36,1.06-.55,1.59-.09.13,0,.31-.17.42C107.94,214.09,107.85,214.52,107.51,214.8Z"/><path class="cls-8" d="M171,172.35a2.14,2.14,0,0,1-1.31.57,2.63,2.63,0,0,0-1.09-.59A72.56,72.56,0,0,1,155.93,165a62.25,62.25,0,0,1-7.57-6.48,2,2,0,0,0-.62-.54.43.43,0,0,1-.19-.21c0-.1,0-.21,0-.31s.11-.32.32-.28.66.15,1,.23c-.1.23,0,.39.18.55.89.84,1.75,1.72,2.67,2.53a69.31,69.31,0,0,0,18.75,11.65Z"/><path class="cls-9" d="M106.53,214.79l.51.05c.22.24.38.5.1.8a2.37,2.37,0,0,0-.89.53c-1,.76-2.07,1.54-3.11,2.31a2.17,2.17,0,0,1-.53.31.37.37,0,0,1-.46-.14.38.38,0,0,1,0-.49,5.77,5.77,0,0,1,.69-.62Z"/><path class="cls-10" d="M147.32,156.93l-.65-.07-.67-1a.65.65,0,0,0,.47-.62l1,1C147.53,156.51,147.39,156.71,147.32,156.93Z"/><path class="cls-11" d="M133.84,42.19a3.05,3.05,0,0,1,1.33.81l-.3.28A3.07,3.07,0,0,1,133.84,42.19Z"/><path class="cls-12" d="M36.5,123.24a1,1,0,0,1-.38-.64,1.2,1.2,0,0,1,.68.63Z"/><path class="cls-13" d="M132.56,45.19a1.5,1.5,0,0,1-.48-.71.55.55,0,0,1,.52.36Z"/><path class="cls-14" d="M33.64,114l-.2,0a.21.21,0,0,1,0-.36.61.61,0,0,1,.63.14C33.92,113.8,33.71,113.76,33.64,114Z"/><path class="cls-15" d="M147.55,157.76a.22.22,0,0,1,.19.21l0,.65c-.17-.18-.14-.43-.22-.65Z"/><path class="cls-16" d="M108.17,213.74c0-.17,0-.33.17-.42a.28.28,0,0,1,.07.19Z"/><path class="cls-7" d="M36.15,113.15a9.43,9.43,0,0,1-2.36-.42c-.36-.1-.43-.27-.24-.63a5.63,5.63,0,0,1,.93-1.39,6.42,6.42,0,0,1,.53-.86,64.71,64.71,0,0,1,4.59-5.19q7.23-7.78,14.92-15.12c5-4.8,10.1-9.5,15.38-14,2-1.73,4.07-3.43,6.08-5.17a1.18,1.18,0,0,1,1-.45,22.7,22.7,0,0,1,2.28,2.32c.24.26.45.53.69.79q1.78,2,3.58,4c.68.76,1.39,1.48,2,2.26.81,1,1.7,1.86,2.53,2.81,1.27,1.44,2.52,2.91,3.79,4.36.64.74,1.31,1.46,2,2.2q1.6,1.88,3.2,3.76c.47.56,1,1.1,1.44,1.67,1.34,1.62,2.74,3.18,4.09,4.79,1.22,1.45,2.4,2.92,3.61,4.38s2.34,2.78,3.49,4.19q2,2.4,3.9,4.82l2.87,3.61c1.13,1.43,2.27,2.85,3.39,4.29q2.48,3.19,4.94,6.4,2,2.63,4,5.29,3.63,4.95,7.24,9.93c1.06,1.47,2.09,3,3.13,4.47l3.18,4.57c.14.2.26.42.39.63s0,.27-.24.22l-3.79-2.94c-.18-.19-.44-.27-.62-.44h0a158.93,158.93,0,0,0-18-12.52,160.83,160.83,0,0,0-26.95-12.52,168.77,168.77,0,0,0-40.32-9c-3-.3-6-.5-9-.69a5.6,5.6,0,0,1-1.15-.32c-.14-.09-.28-.24-.46-.21A28.66,28.66,0,0,1,36.15,113.15Z"/><path class="cls-5" d="M143.75,151.23c-1.4-1.91-2.63-3.93-3.93-5.91l-.4-.6c-.9-1.13-1.61-2.39-2.5-3.52-4.27-6.18-8.74-12.21-13.34-18.15q-4.74-6.14-9.63-12.14c-1.92-2.3-3.75-4.66-5.74-6.9a1.26,1.26,0,0,1-.26-.45c-.63-.75-1.24-1.52-1.88-2.26-4.33-5-8.66-10-13-15-3.21-3.66-6.45-7.29-9.69-10.93-1.68-1.88-3.38-3.74-5.07-5.61a6.31,6.31,0,0,1-.44-.58c0-.39.33-.59.6-.81A299.76,299.76,0,0,1,115.68,42.3c.88-.51,1.75-1,2.67-1.47.32-.11.59-.32.92-.41a4.36,4.36,0,0,1,.77-.33,21.32,21.32,0,0,1,3.35-1.22c.37-.13.56,0,.5.41-.17,1.11-.1,2.24-.21,3.35-.18,1.93-.14,3.86-.15,5.79,0,1.47,0,2.94,0,4.42.08,1.92.22,3.84.32,5.77.07,1.19.13,2.38.24,3.57.19,2,.35,4,.6,5.95.18,1.43.31,2.86.5,4.28.21,1.67.43,3.34.68,5,.3,2,.63,3.94,1,5.91.43,2.52.85,5,1.34,7.55.86,4.51,1.82,9,2.83,13.47s2.15,9.13,3.32,13.68q4.13,16,9.24,31.78c.13.4.24.81.36,1.21C144.05,151.23,143.94,151.27,143.75,151.23Z"/><path class="cls-17" d="M33.63,109.56c.22-1.28.45-2.55.64-3.83s.39-2.7.56-4.06.34-3,.51-4.49c.11-1,.22-2.08.34-3.13.09-.8.12-1.6.22-2.4.15-1.25.19-2.52.29-3.78.11-1.43.23-2.86.35-4.29,0-.07,0-.14,0-.21l.27-5q.16-2.88.35-5.77c0-.1,0-.21,0-.31.09-2.8.15-5.61.28-8.41.16-3.15.13-6.31.24-9.46.27-7.75.15-15.5.17-23.24V30c.39,0,.53.27.72.44,3.35,3.15,6.62,6.37,9.87,9.62,3.54,3.55,7.09,7.1,10.59,10.69,3.28,3.36,6.51,6.78,9.75,10.18q1.56,1.64,3.1,3.3c.28.3.54.62.87,1-.88.73-1.7,1.44-2.53,2.12-1.9,1.55-3.74,3.17-5.55,4.83-2.5,2.3-5,4.65-7.32,7.1-3.35,3.5-6.59,7.09-9.67,10.83a165.36,165.36,0,0,0-11.92,16.41c-.67,1.06-1.29,2.16-1.94,3.24C33.65,109.82,33.57,109.77,33.63,109.56Z"/><path class="cls-6" d="M39.29,29.58l2.47.5c3.26.67,6.52,1.31,9.8,1.84,1.9.3,3.79.66,5.69,1,1.7.26,3.4.47,5.1.71,1.31.18,2.63.39,3.94.56s2.78.32,4.17.49l4.48.56c.77.09,1.54.11,2.3.23,1,.15,2,.17,2.93.27s2,.23,3,.34c.8.09,1.61.1,2.41.21,1.14.16,2.3.18,3.45.28s2.51.23,3.77.35l.31,0c1.47.09,3,.11,4.4.29s3,.08,4.4.33l.21,0c1.72.08,3.43.16,5.14.26l5.88.35.73,0,7.34.25a1.31,1.31,0,0,1-.79.42c-3,1.06-6,2.16-9,3.37-4.38,1.79-8.65,3.82-12.85,6-3.55,1.85-7,3.85-10.39,6q-6.15,3.86-11.93,8.25c-.81.62-1.6,1.26-2.41,1.88-.28.21-.4.22-.63,0-.93-1-1.84-1.92-2.76-2.89-.24-.26-.46-.53-.7-.78C67.39,58.1,65,55.57,62.53,53c-7-7.36-14.27-14.5-21.52-21.63-.48-.47-1-.9-1.47-1.35A.56.56,0,0,1,39.29,29.58Z"/><path class="cls-17" d="M77,69.92c-1.17,1-2.35,1.89-3.5,2.86q-4.86,4.09-9.58,8.36c-1.77,1.59-3.52,3.21-5.26,4.83Q50.83,93.31,43.4,101C40.59,104,37.86,107,35.1,110c-.19,0-.28,0-.2-.2,1.2-2.14,2.54-4.19,3.91-6.23q2.74-4.1,5.75-8c2-2.58,4-5.12,6.15-7.59,2.29-2.66,4.66-5.23,7.08-7.76,3.15-3.29,6.46-6.42,9.89-9.42,1.6-1.41,3.23-2.8,4.88-4.15,1-.79.77-.84,1.64.08l2.5,2.7A.94.94,0,0,1,77,69.92Z"/><path class="cls-18" d="M43.77,113.33a18.5,18.5,0,0,1,3.56.2,1.61,1.61,0,0,0,.31,0c1.65,0,3.27.25,4.91.39.94.08,1.88.19,2.81.28,1.39.14,2.77.37,4.15.56,1.11.15,2.22.3,3.32.47,1.41.23,2.83.45,4.23.72,1.92.37,3.84.77,5.75,1.17,2.08.45,4.16.92,6.22,1.48s4,1.09,6,1.7c2.45.75,4.9,1.47,7.29,2.38,1.92.74,3.87,1.44,5.8,2.17,2.26.85,4.47,1.83,6.67,2.8,2.86,1.27,5.68,2.59,8.43,4.05,3.25,1.72,6.47,3.49,9.59,5.45,1.92,1.21,3.86,2.41,5.73,3.7,2.35,1.64,4.69,3.31,6.9,5.14l2.11,1.73a1.4,1.4,0,0,1,.47.55,3.41,3.41,0,0,1-1.46-.76c-2.11-1.4-4.3-2.68-6.46-4-.56-.35-1.17-.61-1.76-.91a21.89,21.89,0,0,1-2-1.17,14.46,14.46,0,0,1-2-1c-1.14-.57-2.3-1.1-3.43-1.71a241.06,241.06,0,0,0-28-12.36,240.14,240.14,0,0,0-30.55-8.94C56.08,116,49.61,114.79,43.06,114c-.45-.06-1,0-1.24-.59C42.45,112.88,43.12,113.33,43.77,113.33Z"/><path class="cls-6" d="M118.49,40.94c-.18.12-.35.25-.53.35A277.56,277.56,0,0,0,88.78,60.62c-3.7,2.78-7.32,5.66-10.92,8.56a7.51,7.51,0,0,1-1.28-1.24c-.7-.74-1.38-1.5-2.06-2.25-.28-.3-.27-.45,0-.69q1-.82,2.07-1.62A166.26,166.26,0,0,1,93.85,51.91c2.22-1.28,4.48-2.48,6.76-3.65A154.93,154.93,0,0,1,117.15,41c.29-.11.6-.19.9-.28S118.5,40.55,118.49,40.94Z"/><path class="cls-7" d="M41.86,113.55l4.25.6c1.59.22,3.18.43,4.77.69s3.3.56,4.94.89c2.33.45,4.66.92,7,1.44s4.77,1.11,7.14,1.71c3.76,1,7.49,2,11.2,3.15,3.14,1,6.26,2,9.36,3.09,4.2,1.47,8.34,3.08,12.44,4.79,2.9,1.21,5.77,2.51,8.63,3.84,3,1.42,6,3,9,4.46.22.11.41.26.62.39,0,.37-.19.36-.44.22-.77-.32-1.55-.63-2.31-1-3.47-1.6-7-3-10.57-4.38-2.28-.9-4.59-1.7-6.89-2.54-3.91-1.43-7.87-2.72-11.84-4-3.39-1.1-6.8-2.15-10.24-3.1-3-.84-6.05-1.73-9.08-2.57-1.92-.54-3.85-1-5.78-1.53-2.67-.68-5.34-1.38-8-2-4-1-8.09-1.93-12.14-2.84-2.48-.57-5-1-7.48-1.57a1,1,0,0,1-.27-.15,4.94,4.94,0,0,1,1.75-.23c1,0,2.09,0,3.14,0a1.26,1.26,0,0,0,.9-.2c.13-.11.28-.22.47-.12a.57.57,0,0,1,.29.52c-1.17.42-2.38,0-3.56.15-.14,0,.08.19,0,.08s0-.07.07-.08A6.11,6.11,0,0,1,41.86,113.55Z"/><path class="cls-19" d="M114.05,110.82c1,1.24,2.08,2.46,3.09,3.71q4.6,5.67,9,11.48,3.67,4.8,7.17,9.73c1.08,1.51,2.13,3,3.18,4.57.18.26.33.54.5.8s0,.23-.19.22c-1.28-1.75-2.54-3.51-3.82-5.26-1.87-2.53-3.73-5.06-5.61-7.58-1.44-1.93-2.89-3.86-4.37-5.76s-2.85-3.63-4.27-5.44c-1.17-1.48-2.33-3-3.49-4.45-.48-.6-1-1.21-1.42-1.81C113.77,110.81,113.86,110.77,114.05,110.82Z"/><path class="cls-20" d="M114.05,110.82l-.2.21c-1.08-1.18-2-2.45-3-3.7-.78-1-1.59-1.92-2.39-2.88-.22-.27-.52-.48-.47-.89a17.27,17.27,0,0,1,2,2.26c1.31,1.53,2.58,3.1,3.87,4.65A3.37,3.37,0,0,1,114.05,110.82Z"/><path class="cls-21" d="M120.78,138.82a.46.46,0,0,0,.44-.22c.47.06.8.42,1.2.61.73.35,1.43.74,2.14,1.11,0,.19,0,.3-.21.2s-.27-.07-.4-.12l-2.46-1.15A1.59,1.59,0,0,1,120.78,138.82Z"/><path class="cls-22" d="M136.83,141.33l.19-.22a24.87,24.87,0,0,1,2.4,3.61.56.56,0,0,1-.42-.27Z"/><path class="cls-23" d="M124.35,140.52l.21-.2,1.91,1c.06,0,.09.1.07.15s0,.07-.06.07A8,8,0,0,1,124.35,140.52Z"/><path class="cls-24" d="M126.48,141.58v-.22l1.31.74a1.18,1.18,0,0,1,.61.51A4.06,4.06,0,0,1,126.48,141.58Z"/><path class="cls-25" d="M118.49,40.94a.5.5,0,0,0-.44-.22,2.51,2.51,0,0,1,1.27-.46c.06.06.08.11.06.17s0,.08-.06.08A1.79,1.79,0,0,1,118.49,40.94Z"/><path class="cls-26" d="M143.75,151.23,144,151c.25.23.21.56.36,1A1.26,1.26,0,0,1,143.75,151.23Z"/><path class="cls-27" d="M34.9,109.77l.2.2a2.21,2.21,0,0,1-.62.74A1.09,1.09,0,0,1,34.9,109.77Z"/><path class="cls-28" d="M142.47,151.66l.24-.22a.69.69,0,0,1,.4.64h0A.65.65,0,0,1,142.47,151.66Z"/><path class="cls-29" d="M33.63,109.56l.21.17a.42.42,0,0,1-.07.18,1,1,0,0,1-.24.14c0-.09-.08-.18-.06-.26S33.58,109.63,33.63,109.56Z"/><path class="cls-18" d="M138.06,148.28a.68.68,0,0,1,.62.44A.64.64,0,0,1,138.06,148.28Z"/><path class="cls-30" d="M119.32,40.51v-.25a.84.84,0,0,1,.72-.17A1.47,1.47,0,0,1,119.32,40.51Z"/><path class="cls-31" d="M33.44,113.59v.82a1.25,1.25,0,0,1-.26-.83Z"/><path class="cls-28" d="M143.11,152.08s.09,0,.08,0-.05.05-.09,0Z"/><path class="cls-32" d="M133.58,42c.13,0,.24,0,.27.21A.32.32,0,0,1,133.58,42Z"/><path class="cls-33" d="M64.84,91.1c.56.36,1,.61,1.42.93a1.24,1.24,0,0,0,1.53.14,11.48,11.48,0,0,1,1.27-.49.2.2,0,0,1,.25.23,11.31,11.31,0,0,1-.39,1.41,1.2,1.2,0,0,0,.33,1.42,6.09,6.09,0,0,1,1,1.31,9.33,9.33,0,0,1-1.91.2,1,1,0,0,0-.94.54c-.3.51-.64,1-1,1.48-.32,0-.32-.27-.39-.45-.15-.39-.3-.78-.42-1.18a1,1,0,0,0-.86-.8c-.58-.11-1.15-.3-1.72-.45-.05-.23.1-.33.23-.44l1.23-1a.83.83,0,0,0,.33-.73C64.83,92.58,64.84,91.91,64.84,91.1Z"/><path class="cls-34" d="M55.43,105.62c.17.39,0,.64-.09.9a1,1,0,0,0,.22,1c.18.21.33.44.47.63-.1.22-.25.19-.37.18a1.31,1.31,0,0,0-1.52.82.54.54,0,0,1-.38.34,1,1,0,0,1-.32-.61,1,1,0,0,0-.86-.8,4.4,4.4,0,0,1-.74-.23c.09-.35.39-.48.62-.65a.85.85,0,0,0,.39-.8,1.73,1.73,0,0,1,0-.93c.36-.07.56.23.82.38a.94.94,0,0,0,.89.09Z"/><path class="cls-35" d="M91,101.09a2.42,2.42,0,0,1,.9.5.6.6,0,0,0,.59.06,7.47,7.47,0,0,1,.79-.29c.14,0,.31.08.25.21a1.64,1.64,0,0,0,.43,2.07.22.22,0,0,1-.15.38h-.1A1.45,1.45,0,0,0,92,105a.22.22,0,0,1-.4,0,1.5,1.5,0,0,0-1.49-1.34.21.21,0,0,1-.1-.39,1.68,1.68,0,0,0,.87-1.93C90.86,101.24,90.92,101.17,91,101.09Z"/><path class="cls-36" d="M115.92,128.51c0,.37-.19.78.16,1.13.12.11,0,.28-.17.27a1.09,1.09,0,0,0-.89.59c-.09-.06-.17-.09-.19-.14-.15-.33-.32-.6-.72-.66a.17.17,0,0,1-.08-.31,1,1,0,0,0,.45-1c.29-.19.47.09.7.1S115.63,128.34,115.92,128.51Z"/><path class="cls-37" d="M41.86,113.55a5.6,5.6,0,0,1-1.35-.11A13.15,13.15,0,0,0,39,113.3s0-.08,0-.09.06,0,.09,0a4.53,4.53,0,0,1,.52,0H42.7c.35.07.75-.1,1.07.2l-1.35,0A.63.63,0,0,0,41.86,113.55Z"/><path class="cls-38" d="M138.47,136.29c-.57-1.39-1.15-2.78-1.7-4.18-1.88-4.72-3.57-9.51-5.12-14.35-1.35-4.19-2.63-8.41-3.72-12.69-.51-2-1.05-4-1.53-6-.75-3.16-1.46-6.34-2-9.54-.49-2.68-1-5.36-1.41-8.06-.29-1.83-.48-3.67-.7-5.51-.2-1.63-.42-3.26-.58-4.9-.12-1.25-.13-2.51-.27-3.77-.18-1.67-.1-3.36-.24-5a79.3,79.3,0,0,1-.09-8.72c0-1.44.08-2.88.17-4.31s.27-3,.41-4.49c.57.07.12.62.39.83.08,2.24.08,4.49.28,6.71a38.34,38.34,0,0,0,.32,4.29,1.67,1.67,0,0,1,0,.32c0,1.3.19,2.58.27,3.87.12,1.71.37,3.4.55,5.11.1.9.17,1.81.27,2.71.07.73.15,1.46.25,2.19.17,1.28.4,2.55.54,3.84.12,1,.26,2.08.44,3.11.22,1.31.41,2.62.62,3.94.3,1.89.58,3.8.91,5.69.4,2.27.82,4.54,1.28,6.8.59,2.91,1.2,5.82,1.86,8.71.74,3.24,1.5,6.48,2.33,9.69.87,3.39,1.8,6.76,2.75,10.13,1.21,4.24,2.49,8.46,3.88,12.64a2.88,2.88,0,0,1,.1.51C138.78,136.06,138.89,136.31,138.47,136.29Z"/><path class="cls-39" d="M103.17,90.75c-.29-.77-.51-1.32-.7-1.88a1.06,1.06,0,0,0-.87-.79c-.59-.1-1.15-.29-1.75-.45.11-.42.47-.53.72-.75l1.12-.95c0-.45,0-.91,0-1.36a1.47,1.47,0,0,1,0-.21c0-.27-.15-.64.08-.79s.55.21.81.34c.46.24.82.77,1.35.76a4.9,4.9,0,0,0,1.37-.49l.69-.25a.2.2,0,0,1,.24.24A5.41,5.41,0,0,1,106,85a1.82,1.82,0,0,0,.49,2.42,3.71,3.71,0,0,1,.52.65c.16.22.07.4-.22.41-.56,0-1.12,0-1.68,0a.76.76,0,0,0-.69.39C104,89.45,103.66,90,103.17,90.75Z"/><path class="cls-40" d="M101.14,64.41c-.3-.43-.29-.9-.65-1.19s-.77-.09-1-.43a.78.78,0,0,1,.12-.19,1.42,1.42,0,0,0,.79-1.56c0-.22.14-.31.33-.21l.09.05a1.21,1.21,0,0,0,1.54.15c.25-.12.39,0,.33.3a.2.2,0,0,1,0,.11,1.09,1.09,0,0,0,.3,1.41c.07.06.09.18.14.3-.36.29-.87,0-1.18.32S101.42,64.06,101.14,64.41Z"/><path class="cls-41" d="M117.06,75.83c.15,0,.23,0,.27.09a1.28,1.28,0,0,0,1.62.22.23.23,0,0,1,.35.3,1.33,1.33,0,0,0,.43,1.67s0,.12,0,.19,0,.06-.06.07c-.36.13-.81-.08-1.12.17a4.68,4.68,0,0,0-.7.87c-.35-.07-.36-.36-.42-.56a.82.82,0,0,0-.72-.66,1,1,0,0,1-.66-.28c0-.06.06-.14.12-.17a1.46,1.46,0,0,0,.77-1.66C117,76,117,76,117.06,75.83Z"/><path class="cls-42" d="M122.93,109.7c-.31.23-.75,0-1.07.24s-.31.63-.68.75c-.05,0-.14-.07-.15-.11a1.23,1.23,0,0,0-1.12-1.07c-.14,0-.23-.23-.09-.32a1.59,1.59,0,0,0,.61-1.61.35.35,0,0,1,.43.06,1,1,0,0,0,1.34.1.8.8,0,0,1,.26,0c.11.06.13.11.1.19a1.4,1.4,0,0,0,.38,1.68S122.94,109.65,122.93,109.7Z"/><path class="cls-43" d="M138.47,136.29c.19-.09.21-.28.24-.46a19.73,19.73,0,0,1,1,3c.09.22,0,.26-.2.21-.31-.74-.63-1.48-.93-2.22A4.13,4.13,0,0,1,138.47,136.29Z"/><path class="cls-44" d="M122,45.57a.49.49,0,0,1-.19-.42.47.47,0,0,0-.2-.41,4,4,0,0,1,.12-1.41,5.28,5.28,0,0,0,.09-.9q.09-.16.18,0Z"/><path class="cls-45" d="M139.55,139l.2-.21a5,5,0,0,1,.57,1.7A5.28,5.28,0,0,1,139.55,139Z"/><path class="cls-46" d="M122,42.43h-.18c0-.11,0-.21,0-.31a.11.11,0,1,1,.18,0A1.6,1.6,0,0,1,122,42.43Z"/><path class="cls-47" d="M37,99l.05-.38c.17-.19,0-.46.17-.66a8.9,8.9,0,0,1,.29-1.86c.31-1.72.6-3.45.81-5.18.17-1.46.37-2.91.55-4.37.1-.8.11-1.6.21-2.4.16-1.22.14-2.45.28-3.66.23-2,.15-3.92.34-5.87.12-1.15,0-2.31.08-3.47.1-4,.28-8,.15-12-.11-3.19-.08-6.37-.23-9.56-.07-1.64,0-3.29-.2-4.92s0-3.51-.32-5.24a.37.37,0,0,1,0-.11c0-1.5-.2-3-.26-4.5,0-.23-.32-.57.21-.61.3,1.23.62,2.44.92,3.67.57,2.42,1.09,4.85,1.43,7.31.26,1.87.56,3.74.77,5.62.16,1.32.18,2.65.29,4,.35,4.16.23,8.34.17,12.51,0,1.78-.16,3.57-.36,5.34-.09.8-.13,1.61-.21,2.41-.35,3.41-.87,6.8-1.47,10.18-.75,4.21-1.76,8.36-2.9,12.47-.1.37-.23.74-.34,1.11-.1.13-.06.31-.17.43a.57.57,0,0,1,0,.18C36.79,99.45,36.93,99.2,37,99Z"/><path class="cls-48" d="M48.64,70.74a2.16,2.16,0,0,1,1,.5c1.51.94.88.91,2.54.29a2.55,2.55,0,0,1,1-.32c.09.4-.14.74-.21,1.1s-.42.89-.28,1.3a4,4,0,0,0,.78,1.1c.15.19.32.37.46.57a.44.44,0,0,1,.09.27c0,.14-.14.14-.24.14-.52,0-1,.1-1.57.1a1,1,0,0,0-.93.55c-.23.43-.52.83-.78,1.24a.51.51,0,0,1-.34.28,6.62,6.62,0,0,1-.53-1.32c-.37-1-.37-1-1.43-1.26L47.07,75a.2.2,0,0,1-.09-.33,16.27,16.27,0,0,1,1.31-1,1,1,0,0,0,.44-1.08A7.06,7.06,0,0,1,48.64,70.74Z"/><path class="cls-49" d="M63,65.29c.38-.4.74-.63.87-1A3.49,3.49,0,0,0,64,63.2c.29-.14.46.08.64.21a.87.87,0,0,0,1.06.11,3.51,3.51,0,0,1,.57-.21c0,.1.1.17.09.21a1.49,1.49,0,0,0,.36,1.87s0,.13.06.22c-.17.23-.43.14-.65.14a.81.81,0,0,0-.85.46,3.35,3.35,0,0,1-.29.44c-.09.12-.31.09-.33-.05C64.52,65.73,63.91,65.42,63,65.29Z"/><path class="cls-50" d="M47.36,48.05c.06,0,.11,0,.13,0a1.77,1.77,0,0,0,1.93.27c.15-.09.28.11.22.24a1.5,1.5,0,0,0,.43,1.78s0,.13,0,.2-.06.05-.08,0a1.49,1.49,0,0,0-1.69.91.18.18,0,0,1-.33,0,.29.29,0,0,1,0-.1,1.38,1.38,0,0,0-1.28-1.16c-.3-.06-.3-.18,0-.4a.24.24,0,0,1,.08-.06,1.12,1.12,0,0,0,.61-1.31A1.93,1.93,0,0,1,47.36,48.05Z"/><path class="cls-51" d="M37,99c0,.17.05.35.22.45-.21.77-.43,1.53-.64,2.3-.37,0-.3-.19-.2-.4A12,12,0,0,1,37,99Z"/><path class="cls-52" d="M36.36,101.34c0,.15,0,.31.2.4-.27.84-.55,1.69-.82,2.54-.06.09-.13.1-.2,0A16.63,16.63,0,0,1,36.36,101.34Z"/><path class="cls-53" d="M39.1,34.23c-.24.15-.15.41-.21.61-.23-.52-.23-.52-.12-1.35A.82.82,0,0,1,39.1,34.23Z"/><path class="cls-54" d="M35.54,104.3l.2,0a4.78,4.78,0,0,1-.56,1.21A1.5,1.5,0,0,1,35.54,104.3Z"/><path class="cls-51" d="M37.2,98c0,.24.06.49-.17.66A.7.7,0,0,1,37.2,98Z"/><path class="cls-51" d="M37.23,99.26a.41.41,0,0,1,.17-.43A.41.41,0,0,1,37.23,99.26Z"/><path class="cls-55" d="M112.36,39.66a28.53,28.53,0,0,0-3.33.39h-.1c-1,.09-2,.18-3,.24a15.11,15.11,0,0,0-1.77.16,11.91,11.91,0,0,1-1.89.06,6.7,6.7,0,0,0-1.67.15,2.93,2.93,0,0,1-.84,0H88a5,5,0,0,1-1.15-.11,5.1,5.1,0,0,0-1-.08,11.62,11.62,0,0,1-2.82-.2.74.74,0,0,0-.21,0,21.33,21.33,0,0,1-3.66-.27,20.67,20.67,0,0,1-2.7-.31,16.19,16.19,0,0,0-1.87-.24q-4.87-.63-9.68-1.67c-3.18-.69-6.32-1.51-9.44-2.43s-6-2-9-3.17c-.59-.22-1.16-.49-1.74-.75-.18-.08-.36-.19-.56-.3a.51.51,0,0,1,.54-.09c1.42.36,2.84.73,4.27,1.06,2.18.51,4.35,1,6.54,1.46s4.16.88,6.26,1.27c1.88.35,3.76.75,5.66,1,1.38.21,2.74.52,4.11.75,1.17.19,2.35.33,3.53.5s2.41.38,3.61.55c.73.11,1.46.19,2.18.28,1,.13,2,.27,3,.38s1.82.11,2.71.27c1.11.19,2.24.09,3.33.35A.51.51,0,0,0,90,39c1.26-.08,2.5.27,3.76.24a5.63,5.63,0,0,1,1.78.15,2.5,2.5,0,0,0,.73,0l2.63,0a5.87,5.87,0,0,1,1.67.14,2.86,2.86,0,0,0,.83,0c1.83,0,3.65,0,5.48,0a17.87,17.87,0,0,0,2.19-.13,22.36,22.36,0,0,1,2.84-.07C112.18,39.33,112.37,39.29,112.36,39.66Z"/><path class="cls-56" d="M90.39,47.59s0-.07,0-.09c.67-.51,1.25-1.06.84-2,.39-.18.56,0,.73.19a.86.86,0,0,0,1.07.12,2.62,2.62,0,0,1,.49-.19.19.19,0,0,1,.24.23,1.71,1.71,0,0,1-.09.3A1.14,1.14,0,0,0,94,47.58a1.24,1.24,0,0,1,.23.36c-.21.24-.47.18-.69.17a.9.9,0,0,0-.93.54,2.47,2.47,0,0,1-.3.42c-.09.11-.25.06-.26,0C91.91,48.1,91.15,47.85,90.39,47.59Z"/><path class="cls-57" d="M58.9,39.58c0,.44-.09.91.3,1.22-.18.28-.5.13-.68.29s-.33.35-.55.59c-.22-.46-.46-.88-1-.93.06-.33.38-.38.44-.59s.07-.47.11-.71A2.43,2.43,0,0,0,58.9,39.58Z"/><path class="cls-58" d="M72.29,59.59a.42.42,0,0,1-.38.2c-.3,0-.38.5-.68.4s-.2-.43-.47-.52-.36-.29-.11-.52a1,1,0,0,0,.22-.58c0-.1.13-.19.24-.12a.84.84,0,0,0,.8,0c.1,0,.24,0,.19.16C72,59,72.16,59.3,72.29,59.59Z"/><path class="cls-59" d="M112.36,39.66c-.09-.17-.25-.18-.41-.2.08-.06.17-.16.26-.17.75-.06,1.51,0,2.33,0-.09.1-.11.15-.14.15C113.71,39.4,113.06,39.72,112.36,39.66Z"/></svg>