<svg id="Layer_54" data-name="Layer 54" xmlns="http://www.w3.org/2000/svg" viewBox="0 0 256 256"><defs><style>.cls-1{opacity:0.5;}.cls-2{fill:#fff;}.cls-3{fill:none;stroke:#09007f;stroke-miterlimit:10;stroke-width:2px;}.cls-4{fill:#efd154;}.cls-5{fill:#ffe266;}.cls-6{fill:#383838;}.cls-7{fill:#cecece;}.cls-8{fill:#1c1c77;}.cls-9{fill:#412dd6;}.cls-10{fill:#dfdfef;}.cls-11{fill:#32327c;}.cls-12{fill:#5d54d6;}</style></defs><path class="cls-1" d="M41.12,203.66,48.86,170,53,165.75,161.57,57.28,168,50.82l2.4-2.42L177.81,41a18.26,18.26,0,0,1,2.73-2.22,17.28,17.28,0,0,1,1.52-.9,17.27,17.27,0,0,1,8.13-2,15.74,15.74,0,0,1,1.68.08,17.54,17.54,0,0,1,3.29.63c.55.17,1.09.35,1.61.56a18.33,18.33,0,0,1,3.43,1.86c.35.24.7.51,1.05.79l.11.09,0,0,4.25,4.24,7,7,4.24,4.22L220,58.4A17.64,17.64,0,0,1,220,83.18L208.38,94.82l0,0-2,2L102,201.17,96,206.93,57.34,219.88l-21.41,5.19Z"/><path class="cls-2" d="M36.12,198.66,43.86,165,48,160.75,156.57,52.28,163,45.82l2.4-2.42L172.81,36a18.26,18.26,0,0,1,2.73-2.22,17.28,17.28,0,0,1,1.52-.9,17.27,17.27,0,0,1,8.13-2,15.74,15.74,0,0,1,1.68.08,17.54,17.54,0,0,1,3.29.63c.55.17,1.09.35,1.61.56a18.33,18.33,0,0,1,3.43,1.86c.35.24.7.51,1.05.79l.11.09,0,0,4.25,4.24,7,7,4.24,4.22L215,53.4A17.64,17.64,0,0,1,215,78.18L203.38,89.82l0,0-2,2L97,196.17,91,201.93,52.34,214.88l-21.41,5.19Z"/><polygon class="cls-3" points="36.45 214.64 48.49 211.65 39.25 202.79 36.45 214.64"/><path class="cls-3" d="M197,42.7l-3.2-3.08a12.06,12.06,0,0,0-16.8.18l-7.55,7.51,11.7,11.22Z"/><path class="cls-3" d="M192.86,69.77h0l-11.7-11.22-6.28,6.29h0l6.28-6.27L169.47,47.34l-6.3,6.29h0L49.56,167.09l.06.06h0L39.25,202.79l3.14,3,2.87,2.75,3.23,3.1,36-10.85h0l.13,0,.06,0L198.27,87.29l0,0L204.53,81ZM186.55,76h0L174.88,64.85h0ZM60.27,179.58l-.08-.1,98.28-98.23Zm13.63,8.85,0,0c-.35-.46-.73-.88-1.13-1.31l.09.08.09.08.12.12.13.12.18.21.06.06v0l.07.06,0,0,.09.11.09.12,0,.06.06.09Zm-12.92-8-.12-.13.06,0Zm-.67-.8,0,0h0Zm-1-1.56,0,.11c-.06-.11-.13-.22-.18-.33l0,.07A1.3,1.3,0,0,1,59.31,178.07Zm14.8,10.57.06.06,0,0,.07.09.06.09s0,.06.06.09,0,.06.06.09l.09.15.07.09,0,.06.06.12v0l.06.08s0,.09.06.12.07.06.07.09l.06.12.06.12.06.12.1.21,0,.09a.2.2,0,0,1,.06.11s0,.06,0,.09v.06s0,0,0,.09.07.15.1.24,0,0,0,.12.09.21.09.24,0,.09,0,.12,0,.09,0,.12v.05a11.2,11.2,0,0,0-1.57-3.08l0-.07L186.56,76.07h0Z"/><path class="cls-3" d="M211.92,57l-3.2-3.07h0L197,42.7,181.18,58.55l11.69,11.21,0,0L204.58,81l7.51-7.51A11.5,11.5,0,0,0,211.92,57Z"/><path class="cls-4" d="M42.39,205.8l-3.14-3,10.4-35.7.06.06a1.24,1.24,0,0,0,.46.27c.71.23,1.62.61,1.72.66h0a11.24,11.24,0,0,1,3.41,2.33,10.79,10.79,0,0,1,2.94,5l.19.81h0a11.12,11.12,0,0,0,1.72,3.29Z"/><path class="cls-5" d="M74.05,188.64h0L45.26,208.55l-2.87-2.75,17.79-26.34a9.88,9.88,0,0,0,1.57,1.72A12.7,12.7,0,0,0,67.14,184h0c.06,0,.16,0,.25.06.73.23,1.86.69,2,.72h0a11.07,11.07,0,0,1,3.4,2.33A16.73,16.73,0,0,1,74.05,188.64Z"/><path class="cls-4" d="M84.51,200.8l-36,10.85-3.23-3.1,28.79-19.91a11.51,11.51,0,0,1,1.71,3.5l.2.81h0a11.46,11.46,0,0,0,3,4.74l.31.3A13.07,13.07,0,0,0,84.51,200.8Z"/><polygon class="cls-6" points="48.49 211.65 36.45 214.64 39.25 202.79 48.49 211.65"/><polygon class="cls-7" points="163.17 53.63 169.47 47.34 181.16 58.55 174.86 64.85 163.17 53.63"/><path class="cls-8" d="M197,42.7,181.17,58.53l-11.7-11.22L177,39.8a12.06,12.06,0,0,1,16.8-.18Z"/><path class="cls-9" d="M163.19,53.61,174.9,64.84,60.18,179.49a2.62,2.62,0,0,1-.35-.5l-.09-.15-.09-.15-.09-.15a3.37,3.37,0,0,1-.19-.32l-.06-.15h0a1.3,1.3,0,0,0-.1-.15.23.23,0,0,0-.06-.09l-.06-.09-.06-.12,0-.08s0-.06-.07-.12l-.06-.12,0-.09s0-.06-.06-.12-.09-.21-.13-.3a.16.16,0,0,0-.06-.12,2.21,2.21,0,0,0-.12-.32,1.34,1.34,0,0,1-.07-.18h0l-.19-.81a10.62,10.62,0,0,0-3-5,11.23,11.23,0,0,0-3.4-2.32h0c-.07,0-1-.41-1.72-.67a1.17,1.17,0,0,1-.46-.27l-.06-.06Z"/><polygon class="cls-10" points="174.88 64.84 181.17 58.54 192.87 69.76 186.57 76.05 174.88 64.84"/><polygon class="cls-11" points="181.18 58.55 197.03 42.7 208.73 53.91 192.87 69.76 181.18 58.55"/><path class="cls-12" d="M174.87,64.84l11.7,11.22L74,188.58l-.06-.09,0-.06h0l-.07-.09-.06-.09,0-.06-.09-.12h0l-.09-.11h0l0,0-.07-.06v0l-.06-.06h0l-.18-.21-.13-.12-.12-.12-.09-.08a11.49,11.49,0,0,0-3.41-2.33h0a15.41,15.41,0,0,0-2-.72.71.71,0,0,0-.24-.06h0a12.68,12.68,0,0,1-5.4-2.84l-.15-.15L61,180.5l-.12-.15-.13-.12h0l0,0a.44.44,0,0,1-.15-.2l0,0-.07-.06-.06-.09-.09-.12-.06-.09,0,0Z"/><polygon class="cls-7" points="186.54 76.05 192.84 69.75 204.53 80.97 198.24 87.26 186.54 76.05"/><path class="cls-8" d="M212.09,73.44,204.58,81l-11.7-11.22,15.84-15.84,3.2,3.07a11.5,11.5,0,0,1,.17,16.48Z"/><path class="cls-9" d="M186.57,76.06l11.7,11.23L84.69,200.74l-.06,0-.15,0A13,13,0,0,1,79.21,198l-.31-.3a11.18,11.18,0,0,1-3-4.74h0l-.19-.81-.06-.18c0-.06,0-.09,0-.14l0-.15s0-.06,0-.12h0s0-.09,0-.12-.06-.15-.09-.24,0-.06,0-.12h0a2.44,2.44,0,0,0-.1-.24c0-.09,0-.06,0-.09v0h0v0s0-.06,0-.09a.24.24,0,0,0-.06-.11l0-.09h0l-.1-.21-.06-.12-.06-.12-.06-.12h0s0-.06-.07-.09,0-.09-.06-.12l-.06-.08v0l-.06-.12,0-.06-.07-.09-.09-.15s0-.06-.06-.09,0-.06-.06-.09l-.06-.09-.07-.09,0,0h0l-.06-.06h0Z"/></svg>