<svg id="Layer_54" data-name="Layer 54" xmlns="http://www.w3.org/2000/svg" viewBox="0 0 256 256"><defs><style>.cls-1{opacity:0.5;}.cls-1,.cls-14,.cls-2{isolation:isolate;}.cls-14,.cls-2{fill:#fff;}.cls-3{fill:#8e0025;}.cls-4{fill:#ff153c;}.cls-5{fill:#bf042d;}.cls-6{fill:#ff3964;}.cls-7{fill:#910026;}.cls-8{fill:#e50031;}.cls-9{fill:#ffd5ca;}.cls-10{fill:#f9bbb4;}.cls-11{fill:#ffe5dc;}.cls-12{fill:#ffbfab;}.cls-13{fill:#ffad9f;}.cls-14{opacity:0.31;}</style></defs><path class="cls-1" d="M85.4,217.28l-19.59-7.71L39,199.13l3.36-95.33L41,103.34v-.13l-1.76-.6L40.51,64,70.08,59a13,13,0,0,1-1.25-5.54C68.59,47,70.87,43,72.53,40l.36-.64A21.65,21.65,0,0,1,83,29.84a19.3,19.3,0,0,1,7.65-1.51,24.75,24.75,0,0,1,8.26,1.47,42.24,42.24,0,0,1,11.83,7l.11.09c2.54,2.1,5.17,4.26,7.7,6.57,2.13,2,4.18,4,6.32,6.32l6.15-1.08,11.22,2.83c2.26-2.52,4.67-5.08,7.27-7.51s5.28-4.79,7.72-6.8l.11-.09a46.5,46.5,0,0,1,11.52-7l.2-.07a25.51,25.51,0,0,1,8.48-1.54A19,19,0,0,1,185,29.93a21.35,21.35,0,0,1,10.27,9.43l.48.85c1.64,2.87,3.87,6.78,3.7,12.84a12.39,12.39,0,0,1-1.08,5.75l0,.1a17.51,17.51,0,0,1-4.53,5.84L222,72l-1.31,39.2-3.09.67-3.29,93.43L190,212.73v.06l-31.14,9.84v-.4l-34.06,10.44Z"/><path class="cls-2" d="M80.4,212.28l-19.59-7.71L34,194.13,37.34,98.8,36,98.34v-.13l-1.76-.6L35.51,59,65.08,54a13,13,0,0,1-1.25-5.54C63.59,42,65.87,38,67.53,35l.36-.64A21.65,21.65,0,0,1,78,24.84a19.3,19.3,0,0,1,7.65-1.51,24.75,24.75,0,0,1,8.26,1.47,42.24,42.24,0,0,1,11.83,7l.11.09c2.54,2.1,5.17,4.26,7.7,6.57,2.13,2,4.18,4,6.32,6.32l6.15-1.08,11.22,2.83c2.26-2.52,4.67-5.08,7.27-7.51s5.28-4.79,7.72-6.8l.11-.09a46.5,46.5,0,0,1,11.52-7l.2-.07a25.51,25.51,0,0,1,8.48-1.54A19,19,0,0,1,180,24.93a21.35,21.35,0,0,1,10.27,9.43l.48.85c1.64,2.87,3.87,6.78,3.7,12.84a12.39,12.39,0,0,1-1.08,5.75l0,.1a17.51,17.51,0,0,1-4.53,5.84L217,67l-1.31,39.2-3.09.67-3.29,93.43L185,207.73v.06l-31.14,9.84v-.4l-34.06,10.44Z"/><path class="cls-3" d="M210.86,71.6h0l-36.41-9.35h0l-2.75-.77c4.51-1.43,9.13-3,12.76-5.94a11.45,11.45,0,0,0,3.41-4.18,6.33,6.33,0,0,0,.55-3.19h0c.22-5.06-1.76-7.92-3.41-10.89a15.31,15.31,0,0,0-7.37-6.82c-3.63-1.54-7.81-1.1-11.55.22a40.91,40.91,0,0,0-10,6.16c-2.53,2.08-5.07,4.18-7.38,6.49a134.68,134.68,0,0,0-9.35,9.9l-13.53-3.41-8.14,1.43c-2.64-3-5.28-5.72-8.14-8.36-2.41-2.2-5-4.29-7.48-6.38a36.36,36.36,0,0,0-10.12-6c-3.74-1.32-7.92-1.65-11.55-.11a15.74,15.74,0,0,0-7.25,6.93c-1.66,3-3.52,5.83-3.31,11h0a7,7,0,0,0,.66,3.08A11.4,11.4,0,0,0,74,55.43a20.46,20.46,0,0,0,3.85,2.42L41.34,64.12l-1,29.26,3.19,1.1-.11,1.76h0l-3.3,93.84L63,199h0l19.58,7.7h0L120,221.33l39.82-12.22v.33L179,203.39v-.11l24.54-7.48,3.3-93.83,3.08-.66,1-29.71Zm-87.35,49.07,2.31-.55-2.31.55Z"/><polygon class="cls-4" points="45.3 94.82 42 189.09 120.1 219.79 123.51 120.78 45.3 94.82"/><polygon class="cls-5" points="123.51 120.78 205.25 101.53 201.95 194.59 120.1 219.79 123.51 120.78"/><polygon class="cls-4" points="42.11 94.05 123.51 120.78 124.61 90.41 43.1 65.22 42.11 94.05"/><path class="cls-5" d="M124.61,90.41c.88-.22,84.6-17.93,84.6-17.93l-1,29.15-84.71,19.25Z"/><polygon class="cls-6" points="43.1 65.22 125.94 51.14 209.21 72.48 124.61 90.41 43.1 65.22"/><path class="cls-7" d="M205.14,102.3l-81.63,18.48-.22,6.71s50.27-11.67,64.25-12.22,17.05,1.54,17.05,1.54Z"/><polygon class="cls-8" points="45.3 94.82 123.51 120.78 123.29 127.49 45.19 96.8 45.3 94.82"/><polygon class="cls-9" points="70.27 73.69 64.22 197.78 83.47 205.37 83.91 77.88 70.27 73.69"/><polygon class="cls-10" points="161.58 82.5 159.15 208.02 177.97 202.07 176.43 78.86 161.58 82.5"/><polygon class="cls-11" points="83.91 77.88 173.57 63.35 156.63 58.95 70.27 73.69 83.91 77.88"/><polygon class="cls-9" points="162.24 82.5 86.11 57.96 100.3 55.54 176.98 78.86 162.24 82.5"/><path class="cls-12" d="M123,68.52a18.64,18.64,0,0,1-4.95,0,198.65,198.65,0,0,1-30-5.94c-4.51-1.32-9.13-2.86-12.87-5.72a11.1,11.1,0,0,1-3.41-4.07,6.08,6.08,0,0,1-.11-5.17c1.32-2.53,4.4-3.41,7.15-3.85a38.88,38.88,0,0,1,12.87-.11,66.36,66.36,0,0,1,11.33,3.42,48.6,48.6,0,0,1,6.5,2.86,35.24,35.24,0,0,1,5.06,3.74,92.2,92.2,0,0,1,8,8c1,1.1,2.75,2.64,3.3,4.18S124.39,68.19,123,68.52Z"/><path class="cls-13" d="M122.63,66a2.71,2.71,0,0,1-1.87.11c-9.79-1.76-17.93-8.69-27.5-11.88-5.28-1.76-10.78-2.31-16.06-4-1.54-.44-3.31-1.32-3.41-3-.11-1.32,1-2.53,2.2-3.19,4.07-2.53,9.13-2.53,13.86-1.76a53.47,53.47,0,0,1,27.61,13.42,21.45,21.45,0,0,1,4.07,4.85C122.19,61.59,124.17,65.11,122.63,66Z"/><path class="cls-9" d="M102.61,38.05a39.47,39.47,0,0,0-9.9-5.94,15.52,15.52,0,0,0-11.34,0,14.66,14.66,0,0,0-7,6.82c-1.65,3-3.52,5.72-3.19,10.78,4.18-8.8,25.85-.22,37.3,5.28a49,49,0,0,1,16.83,13.53c.33.45,2.2-2.09,2.31-2.31.44-1.32,0-1.76-.77-2.75-1.76-2.2-3.31-4.51-5.07-6.71a122.46,122.46,0,0,0-11.55-12.43C107.56,42.12,105.14,40,102.61,38.05Z"/><path class="cls-14" d="M80.5,35.52a9.67,9.67,0,0,1,4-1.1c5.5-.44,11,2,15.51,5.17a2.34,2.34,0,0,1,1,1.1c.11.44-.11,1.1-.55,1.21a2,2,0,0,1-.77-.22,41.39,41.39,0,0,0-6-2.53c-2-.66-4.29-1.21-6.27-.33A19.7,19.7,0,0,0,84.24,41a4.19,4.19,0,0,1-3.52,1c-.66-.11-1.33-.55-2-.66s-2.64,1-3,.55.55-1.65.77-2A11.71,11.71,0,0,1,80.5,35.52Z"/><path class="cls-9" d="M100.19,83.6A21.36,21.36,0,0,0,99,90.53a116.24,116.24,0,0,0,.22,16.39c1.43-1.88,2.86-3.63,4.29-5.5,3.09,4.29,6.38,8.8,11.45,10.34-1.43-3.85-2.76-7.7-3-11.88s.77-8.36,3.41-11.44a25,25,0,0,1,5-4.07,82.6,82.6,0,0,0,9.68-7.7c1.43-1.43,3-3.19,2.75-5.17-.22-2.64-3.08-4.19-5.72-4.4a11.59,11.59,0,0,0-6.6,1.65c-1.54,1-2.31,2.42-3.74,3.52-1.87,1.43-4.4,1.76-6.49,2.64A21.64,21.64,0,0,0,104.59,78,13.42,13.42,0,0,0,100.19,83.6Z"/><path class="cls-9" d="M140.12,72.59c6.93-.33,13.75-1.54,20.68-2s14.09-.11,20.46,2.42a19.06,19.06,0,0,1,5.28,3c5.17,4.29,6.6,11.88,5.62,18.59,2-3.19,4-6.27,5.94-9.46a46.27,46.27,0,0,1,3.3,9.24,17.58,17.58,0,0,0,1.21-14.3,17.34,17.34,0,0,0-9.9-10.34,39.11,39.11,0,0,0-6.16-1.65c-4-.77-7.92-1.54-12-2.31-6.6-1.21-13.2-2.42-19.81-3.19-6.37-.66-13.3-.88-18.59,2.75-1.54,1-2.2,3.85-1.54,5.61C135.5,73,138.36,72.59,140.12,72.59Z"/><path class="cls-12" d="M135.61,69.18a14.24,14.24,0,0,0,4.84-.11,185.73,185.73,0,0,0,29.92-6.38c4.52-1.32,9.14-3,12.77-5.94a11.1,11.1,0,0,0,3.41-4.07,5.71,5.71,0,0,0,0-5.17c-1.32-2.53-4.4-3.3-7.26-3.74a42.07,42.07,0,0,0-12.87,0,62,62,0,0,0-11.34,3.63,42.64,42.64,0,0,0-6.38,3,33.13,33.13,0,0,0-4.94,3.85,80.07,80.07,0,0,0-7.93,8.14c-1,1.1-2.75,2.75-3.19,4.18C132.2,68.3,134.18,69,135.61,69.18Z"/><path class="cls-13" d="M135.94,66.65a2.71,2.71,0,0,0,1.87.11c9.79-1.87,17.82-8.91,27.29-12.21,5.17-1.76,10.78-2.42,16.06-4.18,1.53-.55,3.3-1.43,3.41-3,.11-1.33-1-2.42-2.2-3.19-4.07-2.42-9.24-2.42-13.86-1.54a52.91,52.91,0,0,0-27.4,13.75A24.38,24.38,0,0,0,137,61.26C136.28,62.36,134.4,65.77,135.94,66.65Z"/><path class="cls-9" d="M155.53,38.38a34.38,34.38,0,0,1,9.79-6.05,16.08,16.08,0,0,1,11.33-.22,15.1,15.1,0,0,1,7.15,6.71c1.65,2.86,3.52,5.72,3.41,10.67-4.4-8.69-25.85.11-37.18,5.83a49,49,0,0,0-16.62,13.75c-.32.44-2.2-2.09-2.31-2.31-.55-1.21,0-1.76.78-2.75,1.76-2.2,3.3-4.62,5-6.82a102.39,102.39,0,0,1,11.44-12.55C150.69,42.56,153,40.47,155.53,38.38Z"/><path class="cls-14" d="M168.84,34.2c.1.88,1,1.32,1.75,1.76,2.54,1.32,5.28,3,6,5.72a6.21,6.21,0,0,0,.78,2,3.43,3.43,0,0,0,2.31,1,24.32,24.32,0,0,1,2.75.55A1.4,1.4,0,0,0,183.8,45a.93.93,0,0,0,.22-.77c.11-1.76-.88-3.31-2-4.73-.77-1.1-1.65-2.2-2.53-3.3a8.56,8.56,0,0,0-3.19-2.76c-1.65-.65-3.3-.22-5.06-.44C170.27,32.88,168.51,32.44,168.84,34.2Z"/><path class="cls-9" d="M122.52,58.4A6.9,6.9,0,0,0,119.77,62a9,9,0,0,0-.22,2.41,14.73,14.73,0,0,0,.55,3.85,5.6,5.6,0,0,0,.77,1.87,4.58,4.58,0,0,0,2.2,1.33,20.1,20.1,0,0,0,11.67.55c1.43-.33,3-1,3.52-2.42a9.91,9.91,0,0,0,.33-1.76,20.05,20.05,0,0,0-.33-5.06,7.48,7.48,0,0,0-2.54-4.29,8.88,8.88,0,0,0-4.39-1.88A11.77,11.77,0,0,0,122.52,58.4Z"/><path class="cls-12" d="M138.14,62.91a8.16,8.16,0,0,0-2.53-4.29,2.4,2.4,0,0,0-.88-.55,14.37,14.37,0,0,1,.88,2.31,15.52,15.52,0,0,1,.33,5.06,4.56,4.56,0,0,1-.33,1.76c-.55,1.32-2.09,2-3.52,2.42a20.07,20.07,0,0,1-11.66-.55.57.57,0,0,1-.44-.22,2.88,2.88,0,0,0,.66,1.43,4.56,4.56,0,0,0,2.2,1.32,20.07,20.07,0,0,0,11.66.55c1.43-.33,3-1,3.52-2.42a9.91,9.91,0,0,0,.33-1.76A12.63,12.63,0,0,0,138.14,62.91Z"/><path class="cls-14" d="M122.85,60.16a8.5,8.5,0,0,0-1.32,4.62v1.1a1.92,1.92,0,0,0,1.76,1.21,2.18,2.18,0,0,0,1.21-.22c.77-.55.55-1.65.66-2.64A3.62,3.62,0,0,1,128.35,61a7.26,7.26,0,0,0,1.54-.11,1.5,1.5,0,0,0,1.1-.87c.33-1.66-2.75-1.88-3.74-1.88A5.39,5.39,0,0,0,122.85,60.16Z"/></svg>