<svg id="Layer_54" data-name="Layer 54" xmlns="http://www.w3.org/2000/svg" xmlns:xlink="http://www.w3.org/1999/xlink" viewBox="0 0 256 256"><defs><style>.cls-1{opacity:0.5;}.cls-2{fill:#fff;}.cls-26,.cls-3,.cls-7{fill:#8f6f73;}.cls-26,.cls-3,.cls-4,.cls-40,.cls-43{stroke:#262626;}.cls-10,.cls-11,.cls-14,.cls-20,.cls-21,.cls-25,.cls-26,.cls-3,.cls-30,.cls-31,.cls-37,.cls-39,.cls-4,.cls-40,.cls-41,.cls-42,.cls-43,.cls-44,.cls-7,.cls-9{stroke-miterlimit:10;}.cls-10,.cls-11,.cls-20,.cls-21,.cls-25,.cls-3,.cls-30,.cls-31,.cls-39,.cls-4,.cls-43,.cls-44,.cls-7{stroke-width:0.58px;}.cls-4,.cls-8{fill:#f5f2ef;}.cls-5{fill:#bfb19d;}.cls-44,.cls-6{fill:#907175;}.cls-31,.cls-37,.cls-7{stroke:#232323;}.cls-10,.cls-25,.cls-9{fill:#f38590;}.cls-25,.cls-9{stroke:#712313;}.cls-9{stroke-width:0.55px;}.cls-10{stroke:#bc554a;}.cls-11,.cls-21{stroke:#302f2f;}.cls-11{fill:url(#linear-gradient);}.cls-12{fill:url(#linear-gradient-2);}.cls-13{fill:#252624;}.cls-14{stroke:#353535;fill:url(#linear-gradient-3);}.cls-14,.cls-40,.cls-41,.cls-42{stroke-width:0.78px;}.cls-15{fill:url(#linear-gradient-4);}.cls-16{fill:url(#linear-gradient-5);}.cls-17{fill:#030303;}.cls-18{fill:#fcfdff;}.cls-19{fill:#ee3e3d;}.cls-20{fill:#f28087;stroke:#922f1e;}.cls-21,.cls-30,.cls-31,.cls-36,.cls-37,.cls-39,.cls-40,.cls-41,.cls-42,.cls-43{fill:none;}.cls-22{fill:#302f2f;}.cls-23{fill:#795961;}.cls-24{fill:#422f2a;}.cls-26,.cls-37{stroke-width:0.39px;}.cls-27{fill:#262626;}.cls-28{fill:#75555c;}.cls-29{fill:#3d2d2b;}.cls-30{stroke:#1b1c1c;}.cls-32{fill:#74545b;}.cls-33{fill:#232323;}.cls-34{fill:#3a2528;}.cls-35{fill:#593f44;}.cls-38{fill:#282827;}.cls-39,.cls-41,.cls-44{stroke:#282827;}.cls-42{stroke:#30302f;}</style><linearGradient id="linear-gradient" x1="124.46" y1="126.56" x2="149.58" y2="126.56" gradientTransform="translate(-64.36 -18.86) rotate(-3.54)" gradientUnits="userSpaceOnUse"><stop offset="0" stop-color="#4e1211"/><stop offset="0.31" stop-color="#471312"/><stop offset="0.69" stop-color="#200d0c"/><stop offset="0.98" stop-color="#680c0c"/></linearGradient><linearGradient id="linear-gradient-2" x1="126.7" y1="83.31" x2="116.31" y2="119.41" gradientTransform="translate(-64.36 -18.86) rotate(-3.54)" gradientUnits="userSpaceOnUse"><stop offset="0" stop-color="#4a240d"/><stop offset="0.05" stop-color="#684834"/><stop offset="0.12" stop-color="#8d7465"/><stop offset="0.18" stop-color="#ad9b90"/><stop offset="0.25" stop-color="#c7bab2"/><stop offset="0.32" stop-color="#dbd3cd"/><stop offset="0.39" stop-color="#eae4e0"/><stop offset="0.46" stop-color="#f2efeb"/><stop offset="0.54" stop-color="#f5f2ef"/></linearGradient><linearGradient id="linear-gradient-3" x1="163.19" y1="84.16" x2="155.6" y2="114.18" gradientTransform="translate(-64.36 -18.86) rotate(-3.54)" gradientUnits="userSpaceOnUse"><stop offset="0" stop-color="#4a240d"/><stop offset="0.54" stop-color="#f5f2ef"/></linearGradient><linearGradient id="linear-gradient-4" x1="123.9" y1="89.25" x2="121.41" y2="112.36" gradientTransform="translate(-58.55 -26.65)" gradientUnits="userSpaceOnUse"><stop offset="0" stop-color="#4a240d"/><stop offset="0.64" stop-color="#9b6a33"/></linearGradient><linearGradient id="linear-gradient-5" x1="159.36" y1="93.24" x2="156.87" y2="116.36" gradientTransform="translate(-58.37 -28.84)" xlink:href="#linear-gradient-4"/></defs><path class="cls-1" d="M97.87,247.65a14.48,14.48,0,0,1-4.35-.71,10.25,10.25,0,0,1-1.56.12,11.51,11.51,0,0,1-2-.19,12,12,0,0,1-4.07-1.64l0,0h-.11a9,9,0,0,1-1-.06,9.2,9.2,0,0,1-1.7-.36,8.67,8.67,0,0,1-4.48-2.9,14.13,14.13,0,0,1-4.56.77,13.28,13.28,0,0,1-4-.61,12.2,12.2,0,0,1-4,.7,10.62,10.62,0,0,1-7.24-2.83,11.12,11.12,0,0,1-1.31-.72,8.67,8.67,0,0,1-1.88-1.56,11.26,11.26,0,0,1-2.67-9.53s0-.08,0-.13a11.47,11.47,0,0,1,2.6-6.33L61,209c0-4.84-.24-9.7-.42-12.27-.66-9.78-2.89-16.92-5.25-24.48-2.73-8.73-5.55-17.75-5.63-30.47V141c0-.19-.05-.39-.08-.58a6.33,6.33,0,0,1,.12-2,91.1,91.1,0,0,1,1.36-13.05,6,6,0,0,1-.43-4.45,16,16,0,0,1,1.79-4c-4.54-2.72-6.64-5.28-7.57-6.79l0,0a6,6,0,0,1-4.38-2.27,28.78,28.78,0,0,1-3.15-4.87,6,6,0,0,1-3.76-4,30.2,30.2,0,0,1-1-5,6,6,0,0,1-2.44-3.47,22.06,22.06,0,0,1-.15-8.26,5.9,5.9,0,0,1,.26-2.66l.93-2.75,0-.1c.06-.2.12-.41.19-.62.16-.51.35-1.06.59-1.66.67-2,.68-2,.68-2,.15-.17.31-.36.49-.55a55.35,55.35,0,0,1,6.08-9.14,75.46,75.46,0,0,0-1-8.38c-.76-3-1.68-9.71.63-20.61L39,32.51c1.25-6,3-14.17,12-14.17a20.58,20.58,0,0,1,6.28,1.16,6.07,6.07,0,0,1,1.34.63c4,2.51,8,5.14,11.92,7.83,2.8,1.91,5.65,3.93,8.5,6,3.63-.34,7.27-.41,9.3-.42a28.63,28.63,0,0,1,6.31.77c1.47.21,2.93.48,4.34.82,3.5-2.46,11.34-7.91,15.87-10.58A5.68,5.68,0,0,1,116,24c4.25-1.39,7.21-2.19,9.81-2.19,8,0,9.57,6.91,10.72,12a38.07,38.07,0,0,1,.86,14.07c-.12,1.4-.25,2.84-.32,4.66-.26,5.92-2,14.47-2.9,18.47.51,1.08,1.25,2.68,2.34,5.08a6,6,0,0,1,1,1.9l2.47,7.7a6,6,0,0,1-1,5.58l-.09.11a15.44,15.44,0,0,1-1,3.43,6,6,0,0,1-2.6,2.79c-.42,2.46-1,4.37-1,4.47a6,6,0,0,1-2.2,3.21,6.06,6.06,0,0,1-1,1.74,6,6,0,0,1-2.89,1.88c-.47.64-.9,1.16-1.22,1.54.11.37.21.75.31,1.12a6,6,0,0,1-2.78,6.71l-.28.15.26.45a21.28,21.28,0,0,1,1.32,2.93l.46.93,6.12,9.63c2.93,4.37,5.92,8.71,8.8,12.91,4.3,6.26,8.74,12.72,13.05,19.31l2.94,4.3c.52.76,1,1.58,1.56,2.51l.5.7a24.63,24.63,0,0,1,2.74,5.22c3,6.41,4.24,13.5,3.93,22.29,0,1,0,1.9,0,2.8,1.12.16,2.46.3,4,.42a31.34,31.34,0,0,0,4.81-.54l2.2-.49a146.1,146.1,0,0,1,14.57-3.14c1.12-.22,2.09-.4,2.47-.49a6.68,6.68,0,0,1,1.53-.19,5.77,5.77,0,0,1,1.25.13c.83-.05,1.64-.07,2.42-.07s1.46,0,2.18.06l.62.05c.43,0,.84.07,1.25.12l.4,0a23.1,23.1,0,0,1,9.11,3c.26.15.56.35.84.54l.18.12.31.23.39.29.33.25a12.7,12.7,0,0,1,1.19,1l.86.32.8.32.3.12,1,.45.08,0,.95.49a31.6,31.6,0,0,1,5.42,3.62.39.39,0,0,1,.1.08c.5.4,4.68,3.88,6.46,7a7.25,7.25,0,0,1,1.5,4.38,22.65,22.65,0,0,1,2.76,6,6,6,0,0,1-3,7.06,26.36,26.36,0,0,1-10.63,2.56,6,6,0,0,1-3.77,1.38H218l-.41,0,0,0-.51-.07a38.57,38.57,0,0,1-8.92-1.49l-.65-.2c-.43-.14-.77-.27-1.11-.39l-.22-.09a6.1,6.1,0,0,1-1.59.22,5.77,5.77,0,0,1-1.69-.25s-3.23-.94-6.93-1.82l-3.57-.47a6,6,0,0,1-2.79.69c-.36,0-.9,0-2.43-.14-4.13-.27-7.31-.48-9.79-.67a5.94,5.94,0,0,1-2.88.92c-.12,0-1.21.07-2.9.07A55.29,55.29,0,0,1,157,232.14c-2.47,2.81-7.12,3.88-10.57,4.67h-.06l-2.3.5a5.26,5.26,0,0,1-.78.12l-1.73.12c-1.52.14-3.12.21-4.74.22h-.24c-1.13.08-2.28.12-3.44.12h-1.08A16.41,16.41,0,0,1,122,241.13l-1.1,0a17.3,17.3,0,0,1-3.24-.42l-.35-.07a14.41,14.41,0,0,1-3.48.45,10.46,10.46,0,0,1-4.74-1.07,15.14,15.14,0,0,1-2.44,3.73,9.35,9.35,0,0,1-6.44,3.7A11.59,11.59,0,0,1,97.87,247.65Z"/><path class="cls-2" d="M92.87,242.65a14.48,14.48,0,0,1-4.35-.71,10.25,10.25,0,0,1-1.56.12,11.51,11.51,0,0,1-2-.19,12,12,0,0,1-4.07-1.64l0,0h-.11a9,9,0,0,1-1-.06,9.2,9.2,0,0,1-1.7-.36,8.67,8.67,0,0,1-4.48-2.9,14.13,14.13,0,0,1-4.56.77,13.28,13.28,0,0,1-4-.61,12.2,12.2,0,0,1-4,.7,10.62,10.62,0,0,1-7.24-2.83,11.12,11.12,0,0,1-1.31-.72,8.67,8.67,0,0,1-1.88-1.56,11.26,11.26,0,0,1-2.67-9.53s0-.08,0-.13a11.47,11.47,0,0,1,2.6-6.33L56,204c0-4.84-.24-9.7-.42-12.27-.66-9.78-2.89-16.92-5.25-24.48-2.73-8.73-5.55-17.75-5.63-30.47V136c0-.19-.05-.39-.08-.58a6.33,6.33,0,0,1,.12-2,91.1,91.1,0,0,1,1.36-13.05,6,6,0,0,1-.43-4.45,16,16,0,0,1,1.79-4c-4.54-2.72-6.64-5.28-7.57-6.79l0,0a6,6,0,0,1-4.38-2.27,28.78,28.78,0,0,1-3.15-4.87,6,6,0,0,1-3.76-4,30.2,30.2,0,0,1-1-5,6,6,0,0,1-2.44-3.47,22.06,22.06,0,0,1-.15-8.26,5.9,5.9,0,0,1,.26-2.66l.93-2.75,0-.1c.06-.2.12-.41.19-.62.16-.51.35-1.06.59-1.66.67-2,.68-2,.68-2,.15-.17.31-.36.49-.55a55.35,55.35,0,0,1,6.08-9.14,75.46,75.46,0,0,0-1-8.38c-.76-3-1.68-9.71.63-20.61L34,27.51c1.25-6,3-14.17,12-14.17a20.58,20.58,0,0,1,6.28,1.16,6.07,6.07,0,0,1,1.34.63c4,2.51,8,5.14,11.92,7.83,2.8,1.91,5.65,3.93,8.5,6,3.63-.34,7.27-.41,9.3-.42a28.63,28.63,0,0,1,6.31.77c1.47.21,2.93.48,4.34.82,3.5-2.46,11.34-7.91,15.87-10.58A5.68,5.68,0,0,1,111,19c4.25-1.39,7.21-2.19,9.81-2.19,8,0,9.57,6.91,10.72,12a38.07,38.07,0,0,1,.86,14.07c-.12,1.4-.25,2.84-.32,4.66-.26,5.92-2,14.47-2.9,18.47.51,1.08,1.25,2.68,2.34,5.08a6,6,0,0,1,1,1.9l2.47,7.7a6,6,0,0,1-1,5.58l-.09.11a15.44,15.44,0,0,1-1,3.43,6,6,0,0,1-2.6,2.79c-.42,2.46-1,4.37-1,4.47a6,6,0,0,1-2.2,3.21,6.06,6.06,0,0,1-1,1.74,6,6,0,0,1-2.89,1.88c-.47.64-.9,1.16-1.22,1.54.11.37.21.75.31,1.12a6,6,0,0,1-2.78,6.71l-.28.15.26.45a21.28,21.28,0,0,1,1.32,2.93l.46.93,6.12,9.63c2.93,4.37,5.92,8.71,8.8,12.91,4.3,6.26,8.74,12.72,13.05,19.31l2.94,4.3c.52.76,1,1.58,1.56,2.51l.5.7a24.63,24.63,0,0,1,2.74,5.22c3,6.41,4.24,13.5,3.93,22.29,0,1,0,1.9,0,2.8,1.12.16,2.46.3,4,.42a31.34,31.34,0,0,0,4.81-.54l2.2-.49a146.1,146.1,0,0,1,14.57-3.14c1.12-.22,2.09-.4,2.47-.49a6.68,6.68,0,0,1,1.53-.19,5.77,5.77,0,0,1,1.25.13c.83-.05,1.64-.07,2.42-.07s1.46,0,2.18.06l.62.05c.43,0,.84.07,1.25.12l.4,0a23.1,23.1,0,0,1,9.11,3c.26.15.56.35.84.54l.18.12.31.23.39.29.33.25a12.7,12.7,0,0,1,1.19,1l.86.32.8.32.3.12,1,.45.08,0,.95.49a31.6,31.6,0,0,1,5.42,3.62.39.39,0,0,1,.1.08c.5.4,4.68,3.88,6.46,7a7.25,7.25,0,0,1,1.5,4.38,22.65,22.65,0,0,1,2.76,6,6,6,0,0,1-3,7.06,26.36,26.36,0,0,1-10.63,2.56,6,6,0,0,1-3.77,1.38H213l-.41,0,0,0-.51-.07a38.57,38.57,0,0,1-8.92-1.49l-.65-.2c-.43-.14-.77-.27-1.11-.39l-.22-.09a6.1,6.1,0,0,1-1.59.22,5.77,5.77,0,0,1-1.69-.25s-3.23-.94-6.93-1.82l-3.57-.47a6,6,0,0,1-2.79.69c-.36,0-.9,0-2.43-.14-4.13-.27-7.31-.48-9.79-.67a5.94,5.94,0,0,1-2.88.92c-.12,0-1.21.07-2.9.07A55.29,55.29,0,0,1,152,227.14c-2.47,2.81-7.12,3.88-10.57,4.67h-.06l-2.3.5a5.26,5.26,0,0,1-.78.12l-1.73.12c-1.52.14-3.12.21-4.74.22h-.24c-1.13.08-2.28.12-3.44.12h-1.08A16.41,16.41,0,0,1,117,236.13l-1.1,0a17.3,17.3,0,0,1-3.24-.42l-.35-.07a14.41,14.41,0,0,1-3.48.45,10.46,10.46,0,0,1-4.74-1.07,15.14,15.14,0,0,1-2.44,3.73,9.35,9.35,0,0,1-6.44,3.7A11.59,11.59,0,0,1,92.87,242.65Z"/><path class="cls-3" d="M52.87,98c.14,1.49.28,3,.4,4.55.14,1.71.26,3.39.36,5l4.86,1.86a22.77,22.77,0,0,1-1.85,1.84c-1.29,1.12-2,1.47-2.72,2.09a8.48,8.48,0,0,0-2.53,4.2l1.32.11a85.31,85.31,0,0,0-2,19C50.81,159.07,60,169,61.54,191.29c.58,8.56,1,24.05-1.85,26.48-2.08.93-7.74,2.2-5.2,10.18.8,1.27,1.38,1.27,2.65,1.85,3.24,4,7.87.58,7.87.58s2.43,2.66,8.79,0c1.73-2.09,3.93-4.74,4.51-13,0,0,1.26-16.33,1.17-17l-.1-.68a28.61,28.61,0,0,0,1.87,3,30.83,30.83,0,0,0,7.11,7.19c-.38,1.63-.86,3.4-1.48,5.27-.51,1.51-1,2.91-1.59,4.19a9.28,9.28,0,0,0-5.87,3c-2.61,3.08-2.74,8-1.25,8.84.51.27,1.74.28,5-3,1.85,3.11,5.93,2.43,6.91,1.95,3.11,1.07,6.9,1.36,8.94-1a17,17,0,0,0,2.82-4.18s.1,2,3.31,2.63c1.17,3.4,5.25,2.43,7,1.75,6.42,1.85,10.5,0,12.74-2.63,0,0,10.7,1.17,18-3.21,4.28-2.72,5.54-4.66,5.54-4.66s4.19,4.27,20.33,3.69l-4.57-1.85s18.38,2,20.42,2l-5-2.63s17.6,3.11,19.94,4.48l-2-3.8a15.23,15.23,0,0,0,9.34,5l6.12.88-4.18-2.92s8.27,3.11,16.15-.39c0,0-1.66-6.42-6.62-8.75,0,0,3.31.1,3.89.78s-7.39-12.65-21.2-12l5.55-.3s-5.16-5.34-16.15-3.69-22.36,4.47-23.14,4.57-10-.49-12.64-1.85a118.35,118.35,0,0,0-.3-13.61c-.58-4.57-2.14-13.81-7.19-21.2L131.6,144.39l-11.47-16.92-4.28-6.9A34.65,34.65,0,0,0,113.3,115a34.16,34.16,0,0,0-5.44-7.1Z"/><path class="cls-4" d="M128.75,177.71a21.93,21.93,0,0,0-7.2,3.49c-1.94,1.49-3.78,3.55-4.09,3.29s.37-1,.08-1.27-1.52.73-1.92.43,1.21-2.63,1.52-6.08a6.58,6.58,0,0,0,0-2.5c-1.23-3.42-9.65-1.24-15.5-4.36-3-1.62-6.53-5.28-8.26-14.46,4.44-7.22,7.78-21.81,7.78-21.81l1,2.77.56-.55c9.31-16.26,2.64-23.35,2.64-23.35s-4.51-.51-5.91.36c-19.27,7.89-21.65-1.7-23-1.79s-11-3.92-11-3.92l-1.34,10.85,2.34-1.26-1.34,10.28,3.51-2.36s-5.84,9,1,20.23,11.69,16.7,13.19,22.37.84,7.69.84,7.69l-2.34-3.18,1,3.84c1,3.84.34,11.86.34,11.86s-2.34-4.51-2.51-5,2.17,12.86,2.17,12.86l-2.17-3.51,1,8.56a12.08,12.08,0,0,0,1.26,2.93,13.07,13.07,0,0,0,4.26,4.21c9.85,6.34,13,11.71,18.87,10.85,2.82-.41,2.71-1.75,7.47-3.81a33.42,33.42,0,0,1,12.66-2.69h.83c-1.41-1.28-5.45-5.3-5.81-11.31a14.27,14.27,0,0,1,.32-4.06L118.62,203a12.12,12.12,0,0,1-.57-5.41,39.62,39.62,0,0,1,1.24-5c.18-.65.34-1.18.45-1.54l-.8.66-2.87,2.36a10.51,10.51,0,0,1,1.08-5.15,12.17,12.17,0,0,1,2.28-3.07,43.09,43.09,0,0,1,3.7-3.16c-.12-.2-4.17,2.44-4.51,2s2.65-3.94,6.92-5.91A11.69,11.69,0,0,1,128.75,177.71Z"/><path class="cls-5" d="M64.23,113.81l2,.19a18,18,0,0,0,23.15,2.58c1-.23,1.79-.45,2.35-.61s1.25-.37,2.47-.75l1.81-.57-.61-1.32-5.91.36s-13.9,8.73-22.66-1.32l-2.26-.88Z"/><path class="cls-6" d="M85.29,219.4c-1.13.34-5.37,1.75-7.09,5.7-.1.25-1.81,4.32,0,6.14a2.72,2.72,0,0,0,2.28.88c.75-.19,1-.93,1.71-.88a1.48,1.48,0,0,1,1,.69l.82.26c.69.2,1.36.39,2,.56a7.9,7.9,0,0,0,5.94,1.4,6,6,0,0,0,1.52-.07,7.23,7.23,0,0,0,2.28-.88c4.76-2.95,9.22-19.57,9.22-19.57.84-3.11,2.15-7.89,3.89-13.81q.75-5.31,1.49-10.61l1.78,4.13,1.25-12.78s1.61,4.89,1.61,4.32,1.61-15,1.61-15l1.44,3.56s2.15-9.39.89-16.9-1.07-5.64-1.07-5.64l-22-1.89c-4.88,7.85-6.07,14.29-6.26,18.74,0,1.1.28,5.84.92,15.27.59,8.7.68,9.42.55,11.53,0,0,0,.53-.08,1.08a92.41,92.41,0,0,1-2.65,14.7A81.13,81.13,0,0,1,85.29,219.4Z"/><path class="cls-3" d="M40.56,62.93S39.84,51.25,39,47.86s-1.1-9.51.68-17.92,2.16-12.52,10.76-9.73c3.82,2.41,7.74,5,11.72,7.7s7.55,5.28,11.08,7.89c-19.66,16-26.11,22.24-27,24.1-.43.93-1.4,2-3.33,4.06-.22.24-.66.69-1.15.63C41,64.48,40.61,63.13,40.56,62.93Z"/><path id="f" class="cls-7" d="M65.9,37.06c-.38.18-10.21,4.35-17.26,12.61S34.25,65.81,32,72.85s-1.17,11.08-1.17,11.08L35,79.5s-3.2,4.11-.67,12.7L36.63,87s-2.37,4.52,3.53,12L41,93.25s1.84,6.12,3.84,8.38c0,0,2.86,6.49,21.81,11.11a15.76,15.76,0,0,0,7.82,4.74c8.15,2,14.66-3.81,15.27-4.37,1,0,11.86-.24,20.06-6.54a37.8,37.8,0,0,0,6.84-10.3s.9,4.83.36,5.77c0,0,5.53-5.84,5.07-11.6v-.1s1.79,1.49,1.51,5.1c0,0,2.54-9,.61-12.82a17.26,17.26,0,0,1,3.28,4.69s2.46-5.37-1.23-13.46-3.34-7.12-3.34-7.12,2.91-12.16,3.22-19.47,1.39-9.27-.39-17.14-2.25-8.85-12.82-5.4c-5.68,3.35-17.2,11.55-17.2,11.55l-1,1s-6.16-2.71-11.35-2.69S68.61,35,65.9,37.06Z"/><path class="cls-8" d="M43,95.23c.58-3.06,4-5.56,4.24-5.75,8.23-8.25,19.88-8,23-7.78,14.42.83,30.06-2.31,39.37,7.52,1.58,1.66,4.7,5,4.32,9.13-.7,7.35-12.29,11.57-14.55,12.39a33,33,0,0,1-9.38,1.93l3.19-3.43A21.22,21.22,0,0,1,86.54,114a21.67,21.67,0,0,1-10.28,2l-8.52-4.26A50.35,50.35,0,0,1,56.9,109.2,43.26,43.26,0,0,1,49,105.26a11,11,0,0,1-2.51-2.08c-.54-.64-1.3-1.7-1.3-1.71h0a10.13,10.13,0,0,1-1-1.13,7,7,0,0,1-1.38-3.12A6.55,6.55,0,0,1,43,95.23Z"/><path class="cls-9" d="M62.33,38.84A69,69,0,0,0,54.9,29.1,69.7,69.7,0,0,0,46,20.93a35.46,35.46,0,0,0-2.53,10.81,36.26,36.26,0,0,0,4,19,34.82,34.82,0,0,1,14.85-11.9Z"/><path class="cls-10" d="M81,91.44s-5.7-3.35-8.28-7.19c-1-3.64,1.87-4.5,3.2-5.06s8.93-2.09,12.48.16c2.75,1.91,5.09,3.62,1.69,6.85S82.73,92.56,81,91.44Z"/><path class="cls-11" d="M67.36,94.65a12.21,12.21,0,0,0,3.23.95,10.87,10.87,0,0,0,4.7-.26A18.44,18.44,0,0,0,78.46,94c.72-.36.64-.4,1.17-.63a1.7,1.7,0,0,0,.7-.42,1.32,1.32,0,0,0,.25-.86,11.44,11.44,0,0,0,6.55,4,11.21,11.21,0,0,0,5.47-.3A13.7,13.7,0,0,1,87,103.93a12.2,12.2,0,0,1-4.67,1.77c-3.06.47-5.18.18-6.82-.65S72.85,103,71,100.47A41.51,41.51,0,0,1,67.36,94.65Z"/><path class="cls-12" d="M54.53,74.05s-.21-3.39,3.53-8.9c1.87-2.74,4.74-4.15,7.44-3.64,3.53.67,5.3,5.14,6.46,8.06a7.65,7.65,0,0,1,.51,2.06,7,7,0,0,1-.22,2.69c-.93,2.76-6.61,3.27-7,3.3C60.12,78,56.13,75.3,54.53,74.05Z"/><path class="cls-13" d="M54.53,74.05a10.12,10.12,0,0,1,.54-3.31,21.87,21.87,0,0,1,1.28-3.13,26.94,26.94,0,0,1,1.74-2.91,9.18,9.18,0,0,1,2.45-2.4,6.38,6.38,0,0,1,6.7-.49,7.88,7.88,0,0,1,2.51,2.43,17.83,17.83,0,0,1,1.65,3,29.67,29.67,0,0,1,1.23,3.19,7.8,7.8,0,0,1,.09,3.5,3.39,3.39,0,0,1-.84,1.64,5.71,5.71,0,0,1-1.45,1,12,12,0,0,1-3.27,1,13.82,13.82,0,0,1-6.76-.33A17,17,0,0,1,54.53,74.05Zm0,0c3.59,2.64,8.19,4.07,12.51,3a12.87,12.87,0,0,0,3.08-1,4.65,4.65,0,0,0,1.25-.92A2.58,2.58,0,0,0,72,73.78a7.07,7.07,0,0,0-.11-3.17,27.74,27.74,0,0,0-1.21-3.06,18.66,18.66,0,0,0-1.56-2.89,7.29,7.29,0,0,0-2.25-2.24,4.93,4.93,0,0,0-3-.65,7,7,0,0,0-3,1c-1.87,1.12-3.07,3.08-4.17,5A15.24,15.24,0,0,0,54.53,74.05Z"/><path class="cls-14" d="M91.14,75s-.21-3.39,3.53-8.9c1.87-2.74,4.74-4.16,7.44-3.64,3.53.67,5.3,5.14,6.45,8.06a7.26,7.26,0,0,1,.52,2.06,7,7,0,0,1-.22,2.68c-.93,2.77-6.61,3.27-7,3.31C96.73,78.92,92.74,76.2,91.14,75Z"/><ellipse class="cls-15" cx="64.43" cy="71.19" rx="5.19" ry="5.65" transform="translate(-4.28 4.12) rotate(-3.54)"/><ellipse class="cls-16" cx="100.07" cy="72.99" rx="5.19" ry="5.65" transform="translate(-4.32 6.32) rotate(-3.54)"/><ellipse class="cls-17" cx="64.47" cy="71.78" rx="3.09" ry="2.81" transform="translate(-4.31 4.12) rotate(-3.54)"/><ellipse class="cls-17" cx="100.39" cy="73.5" rx="3.09" ry="2.81" transform="translate(-4.35 6.35) rotate(-3.54)"/><ellipse class="cls-2" cx="98.51" cy="71.09" rx="1.43" ry="1.41" transform="translate(-4.21 6.22) rotate(-3.54)"/><ellipse class="cls-18" cx="62.34" cy="70.07" rx="1.36" ry="1.18" transform="translate(-4.21 3.99) rotate(-3.54)"/><path class="cls-19" d="M76.29,88.07S81.94,90.13,88,82.6l1.06-2.95a5.63,5.63,0,0,1,.8.58,5.26,5.26,0,0,1,1.61,2.69c.16,1.22-.64,2.18-1.76,3.53a17.81,17.81,0,0,1-5.9,4.45c-.65.33-1.2.58-1.59.74a14.62,14.62,0,0,1-3.9-1.9A15,15,0,0,1,76.29,88.07Z"/><path class="cls-20" d="M72.62,101.86s4-4.79,7.8-1.65c2.92-1.15,4.34-1.18,7.22,2.35C86.72,103.33,78.17,110.23,72.62,101.86Z"/><path class="cls-19" d="M85.61,100.39s-3.06,7.07-11.12,2.9c5,4.36,10,1.68,12.56-.65C87.05,102.64,86.75,100.9,85.61,100.39Z"/><path class="cls-21" d="M61.14,88.22s5.86,13,19.19,4.68l.09-1s10,11.6,19.22-2.53"/><path class="cls-22" d="M58.72,88.37a5.48,5.48,0,0,0,2.47-.93,12.87,12.87,0,0,0,1-.82l1-1c-.08.22-.19.44-.28.66s-.25.4-.39.6a4.16,4.16,0,0,1-1.05,1,3.54,3.54,0,0,1-1.36.56A2.58,2.58,0,0,1,58.72,88.37Z"/><path class="cls-22" d="M98.37,86.6a3.7,3.7,0,0,0,.79,1.13,7.67,7.67,0,0,0,1,.89c.71.58,1.5,1,2.27,1.71A5.13,5.13,0,0,1,101,90a5,5,0,0,1-1.3-.75,4.1,4.1,0,0,1-1-1.14A2.08,2.08,0,0,1,98.37,86.6Z"/><path class="cls-5" d="M56.35,109.05c-1-.49-1.9-1-2.72-1.49A8.11,8.11,0,0,0,56.35,109.05Z"/><path class="cls-5" d="M111.87,103.8c.91-1.2,1.53-2.59,2.33-3.86a1.11,1.11,0,0,1,.46-.43c.21-.45.4-.88.57-1.3,0-.18-.09-.36-.15-.54a16,16,0,0,0-1.22-3.1,32.71,32.71,0,0,1-11.38,10.7,31.9,31.9,0,0,1-7.57,3l-.22-1.82c-17.45,13.51-27.23,5-30.94,1.36a9,9,0,0,1-6.85,1.36,4.94,4.94,0,0,1-.55-.15,40.83,40.83,0,0,0,10.5,3.6,15.43,15.43,0,0,0,13,4.81,19.19,19.19,0,0,0,8.63-3.67,18.41,18.41,0,0,0,3.17-3.11L89.93,113l.35,0a.94.94,0,0,1,.3,0c.54,0,1.08,0,1.62-.09a1.47,1.47,0,0,1,.43-.16,78.39,78.39,0,0,0,8.06-1.52,27.7,27.7,0,0,0,4.87-2.09,40.07,40.07,0,0,0,3.44-2.2A28.3,28.3,0,0,0,111.87,103.8Z"/><path class="cls-23" d="M113.39,94.76l3.39-7.44s1.66,2.58,1.48,3.52c0,0,1.81-5.34,1.28-7.39S120.72,85,120.72,85s1.19-6.6.31-8.81l1.59.66a55.9,55.9,0,0,0-7.52-16.58C109.85,52.83,96,36.86,96,36.86s9.18,3.83,21.19,22.57a35.68,35.68,0,0,1,4.67,6,75.39,75.39,0,0,1,4.1,8.89c1.74,4.1,2,5,2.16,6.29a14.75,14.75,0,0,1-.76,6.44,9.19,9.19,0,0,0-1-2.3,8.72,8.72,0,0,0-2.24-2.43,15.07,15.07,0,0,1,.76,3.53,18.87,18.87,0,0,1-.29,4.82,31.17,31.17,0,0,1-1,4.36,4.74,4.74,0,0,0-.38-3.07A4.53,4.53,0,0,0,122,90.48a16.44,16.44,0,0,1-.71,4,17.23,17.23,0,0,1-4.2,7c-.26-.68-.28-.93-.24-1l.08-.18h0l-.14-5.18-2.16,4.22Z"/><path d="M57.68,57.68A6.87,6.87,0,0,1,60,54.89a6.7,6.7,0,0,1,7.24-.39,8.44,8.44,0,0,1,1.5,1.06,12.83,12.83,0,0,1,1.19,1.37c-.58-.22-1.09-.5-1.61-.73l-.79-.31a5,5,0,0,0-.77-.28,8.86,8.86,0,0,0-3.11-.43A11.28,11.28,0,0,0,57.68,57.68Z"/><path d="M94.62,57.77a6.2,6.2,0,0,1,2.81-2.42,7.28,7.28,0,0,1,3.8-.64,7.94,7.94,0,0,1,3.6,1.3,9.8,9.8,0,0,1,1.44,1.19,11.2,11.2,0,0,1,1.11,1.48c-.6-.2-1.12-.48-1.65-.71s-1-.46-1.58-.62a13.4,13.4,0,0,0-3.1-.73,10.83,10.83,0,0,0-3.15.15A16.51,16.51,0,0,0,94.62,57.77Z"/><path class="cls-24" d="M90.86,73.48A20.79,20.79,0,0,1,93,65.89a13.8,13.8,0,0,1,2.43-3.4,7.56,7.56,0,0,1,4.07-2.22,6.38,6.38,0,0,1,4.68,1.09,9.81,9.81,0,0,1,2.9,3.25,14.24,14.24,0,0,1,1.76,7.76A29.51,29.51,0,0,0,105.05,66a9.56,9.56,0,0,0-2.46-2.14,3.87,3.87,0,0,0-2.6-.51c-1.75.26-3.5,2-4.95,3.84S92.29,71.28,90.86,73.48Z"/><path class="cls-24" d="M56.23,69.32a11.5,11.5,0,0,1,1.6-6.86,7.87,7.87,0,0,1,2.83-2.72,6.8,6.8,0,0,1,4.08-.81,7.7,7.7,0,0,1,3.74,1.53A9.6,9.6,0,0,1,71,63.3a11.06,11.06,0,0,1,1.44,6.88A22.21,22.21,0,0,0,69,64.73,7.9,7.9,0,0,0,64.39,62,5.52,5.52,0,0,0,59.76,64,23.46,23.46,0,0,0,56.23,69.32Z"/><path class="cls-19" d="M46,20.93a61,61,0,0,1,1.76,6.26c.38,1.64.66,3.21.89,4.69h0l-.3,8.68c-.1,2.85-.21,5.7-.31,8.55a66.12,66.12,0,0,1,8.15-6.93,67.57,67.57,0,0,1,5.85-3.77c-.52-.81-1.26-1.92-2.18-3.2a56,56,0,0,0-5-6.11c-.93-1-2.28-2.21-5-4.66C48.32,23,47,21.77,46,20.93Z"/><path class="cls-25" d="M104.76,42.74s6-11.8,15.41-16.36c.6,3.69,4.72,22.19-3.29,31.25C115.31,56.24,105.6,42.68,104.76,42.74Z"/><path id="f-2" data-name="f" class="cls-19" d="M120.16,26.56c.69.59-3.1,4.58-4.94,9.92-1.78,5.17-1.88,12,2.06,21.13-2.08-2.34-4.2-4.82-6.33-7.44s-4-5-5.79-7.46a47.66,47.66,0,0,1,7.09-9.92C115.32,29.49,119.49,26,120.16,26.56Z"/><path class="cls-26" d="M88.36,209.94c-1.13-.51-7.78-3.64-9.43-10.36-.85-3.4,0-6.18,1.54-11.45.49-1.66,1.75-5.92,3.18-5.85.51,0,.87.6,1,.89A20,20,0,0,0,91,189a70.83,70.83,0,0,1-2.68,21Z"/><path class="cls-27" d="M64.68,230.84a18.55,18.55,0,0,1-.07-3.07,11.82,11.82,0,0,1,.54-3,5,5,0,0,1,1.67-2.54,4.4,4.4,0,0,1,2.9-.73,4.35,4.35,0,0,0-2.81.84,4.82,4.82,0,0,0-1.48,2.51,14.71,14.71,0,0,0-.17,5.91Z"/><path class="cls-28" d="M119.25,160.13c-.06-2.54-1.35-10.44-1.35-10.44l-.81-2.35-1.68,16-1.09-.51-1.39,13.92-2.16-1L110,186.33l-1.34-.81s-3.8,27.37-8.18,34.81c-1.36,6.77-4.39,11.27-6.44,11.85a9.89,9.89,0,0,1-2.4.36,9.09,9.09,0,0,1-2.93-.46,13.48,13.48,0,0,1,.13,1.88c0,.32.39.82.18,1.22-.06.11-.15.21-.11.32s.34.24.59.27a9.08,9.08,0,0,0,1.55.48,9.91,9.91,0,0,0,3.66,0c2.16-.47,3.52-3.1,4.67-5.68a87,87,0,0,0,4.51-13c.66-2.33,1.69-5.74,3.14-9.87,0,0,3.06-12.24,3-13.74s0-5,0-5l1.86,4.24,1.32-13.11,1.69,4.43,1.69-15.42,1.5,3.66S119.3,162.68,119.25,160.13Z"/><path class="cls-29" d="M123.18,213.11c.24,0,7.76-.41,13.17.76"/><path class="cls-29" d="M72,111.63c-.3-.1-4.93-5-5.14-5.71"/><path class="cls-30" d="M118,149a60,60,0,0,1,1.07,6.9,58,58,0,0,1,0,11.34c-.34,3.52-.82,6.16-.82,6.16l-1.5-3.56-1.69,15-1.69-4.32L112,193.34a40.29,40.29,0,0,0-1.86-4.13c.2,2.79-.72,5.57-.69,8.38,0,2.31-1.83,9.61-8.56,28.74,0,0-2.74,10.25-6.49,10.13"/><path class="cls-31" d="M94.52,150.51h0c-1.58,3.34-2.8,5.95-2.86,6.09-3.22,7.1-1.62,17.42-1.22,22.17a126.47,126.47,0,0,1,.31,17.72,72,72,0,0,1-5.46,22.9,9.32,9.32,0,0,0-5.87,3,8.77,8.77,0,0,0-1.67,3,10.25,10.25,0,0,0-.41,4.84"/><path d="M116.63,122.76l-1.53-2.32.65-.26a55.4,55.4,0,0,1,.51,6.16,29,29,0,0,1-.06,3.09,10.92,10.92,0,0,1-.6,3.08l-.12.31-.26-.26-2.68-2.74.29-.12a30.17,30.17,0,0,1-.59,3.79,25.76,25.76,0,0,1-1.08,3.67,14.75,14.75,0,0,1-1.76,3.39,7.85,7.85,0,0,1-2.83,2.51,7.76,7.76,0,0,0,2.75-2.56,14,14,0,0,0,1.67-3.4,24.43,24.43,0,0,0,1-3.66,32,32,0,0,0,.51-3.76l0-.38.27.27,2.79,2.73-.38,0a10.31,10.31,0,0,0,.51-2.95c0-1,0-2,0-3a56.28,56.28,0,0,0-.65-6.07l-.24-1.54.89,1.29,1.58,2.28Z"/><path class="cls-32" d="M180.89,221.09l13.63,1.78-.72-4.09s-3.7-3.24-18.79-2l2.28,1.71s-17.23-.73-18.8-1,.29,1.26.29,1.26l-8.12-4.66s3.42-7,4-12.53a93.41,93.41,0,0,0,.14-12.53c0-1-1.57-13.1-5.41-18.52S135,149.61,135,149.61L122.61,131l-7.09-11.17a14.28,14.28,0,0,0-1.26-3,28,28,0,0,0-2.1-3.09c-.39-.54-.72-1-1-1.28-.51-.67-.86-1.2-1.6-2.24-1.34-1.89-1.44-2-1.69-2.08-.75-.18-1.3.49-2.78,1.37a14.87,14.87,0,0,1-3,1.35,8.77,8.77,0,0,1,3.16,2,8.6,8.6,0,0,1,1.94,2.88,28.76,28.76,0,0,1,.77,3.63,11.89,11.89,0,0,0,.54,2.68,7.69,7.69,0,0,0,1.31,2.25l-.07-1.79.23,5.84s13.44,15.23,17,21.07c6.4,7.12,16.94,22.21,18.79,27.76s7.55,15,0,32.61c-3.7,7.83-7.69,13.09-18.37,11.39-.85,1-5,7.52-14.79,4.47-.59.66-5.14,2.26-6.28-2.32a5.8,5.8,0,0,1-2.43-.54,6,6,0,0,1-1.22-.76,2.1,2.1,0,0,0-.78,1.51s0,0,0,.48c.1,1,.09,1,.11,1.14a2.36,2.36,0,0,0,.77,1.58,5.73,5.73,0,0,0,1.87.73,1.31,1.31,0,0,1,.62.32c.27.27.27.63.36.77a3.69,3.69,0,0,0,2.58,1.39,5.58,5.58,0,0,0,3.53-.63,19.87,19.87,0,0,0,5,.65,11.3,11.3,0,0,0,3.91-.47,9.59,9.59,0,0,0,4.36-3.08c1.12.15,2.71.33,4.64.4A39.44,39.44,0,0,0,140.1,226a32.41,32.41,0,0,0,4.85-1.71c1.68-.68,2.75-1.19,2.8-1.94s-.82-1-.83-1.82.87-1.48,1.66-2a18,18,0,0,0,3.69,2.24c1.12.51,3.56,1.47,11.92,1.88,1.31.06,3,.12,5,.14l-4.71-1.71,19.08,1.4Z"/><polygon class="cls-5" points="104.87 113.04 99.42 113.67 98.49 114.19 105.13 113.34 104.87 113.04"/><path class="cls-28" d="M77.79,227.16a10,10,0,0,0-.42,2.41,5,5,0,0,0,.28,2.53,3.76,3.76,0,0,0,2.74,2.1,3.38,3.38,0,0,0,1.88-.37,9.61,9.61,0,0,0,1.26,1A6.65,6.65,0,0,0,86.07,236a4.67,4.67,0,0,0,3.8-.94l-.24-2.37c-1-.17-2.16-.41-3.38-.74a28.72,28.72,0,0,1-3.89-1.32A13.88,13.88,0,0,1,77.79,227.16Z"/><path class="cls-33" d="M57.2,229.56A14,14,0,0,1,58.8,223a6,6,0,0,1,2.35-2.4,5.56,5.56,0,0,1,3.25-.59,5.48,5.48,0,0,0-3.18.72,5.85,5.85,0,0,0-2.16,2.41,13.43,13.43,0,0,0-1.27,6.37Z"/><path class="cls-32" d="M80.52,163.73a17.54,17.54,0,0,1,2.4,4.83,17.3,17.3,0,0,1,.71,7.05l-2.79-3.87c.27.88.62,2.12,1,3.61a30.23,30.23,0,0,1,.79,3.56,27.69,27.69,0,0,1,.15,4.42c0,1.17,0,2.76-.14,4.67l-2.56-5.36q.69,4.74,1.53,9.61.31,1.86.66,3.69l-2.53-4.51c.21,1.52.42,3,.62,4.59q.42,3.21.81,6.39l-1.53-3c-.8,11.37-1.62,19.73-2,21.88a24.93,24.93,0,0,1-.94,3.79,19.44,19.44,0,0,1-.75,1.85,10.59,10.59,0,0,1-.75,1.44,10.36,10.36,0,0,1-1,1.18,13,13,0,0,1-1,1c-.17.06-.43.15-.75.24a11.34,11.34,0,0,1-4.4.73,6.51,6.51,0,0,1-1.67-.35,5.67,5.67,0,0,1-1.24-.62l.9-2.89s8.37.57,8.85-4.37,1.44-26.76,1.44-26.76v-3L78.57,196,78,187.15l1.71.76-1.17-9.21,1.65-.85L78.6,166.17l2.47,2.28Z"/><path class="cls-34" d="M125.11,135.8l4,6.84s-2.05-.66-5.93,3.16-2.53,3.5-2.53,3.5A14,14,0,0,1,125.11,135.8Z"/><path class="cls-34" d="M136.35,152s-4.73.47-6.58,6.05-1.88,8.77-4.66,11.56-4.46,8.17-4.46,8.17,6.38-7.17,10.11-8.17,13.36-5.93,13.36-5.93Z"/><path class="cls-34" d="M154.62,188.67c-.6-.19-18.46-5.26-24.85-4.58,6.32,5,10.7,8,14.69,10.77s10.16,2.79,10.16,2.79Z"/><path class="cls-34" d="M155.61,205a8.49,8.49,0,0,1,5,6.72l1.2-7.63-6.72-1.76Z"/><path class="cls-34" d="M166.8,204.17l4-.74s.32,7.22,1.89,10.23A14.63,14.63,0,0,1,166.8,204.17Z"/><path class="cls-34" d="M181.88,200.57s7.78-1.41,8.55-1.62-3.28,6.25-3.43,8.47,1,7.51,0,8.82c0,0-1.26-4.24-2.77-5.29s-1.7-4.62-2-7.5Z"/><path class="cls-34" d="M150.63,213c-.86-2.93-6.3-3.62-9.54-4-2.46-.29-5.21.45-5.32.15,0-.06,0-.13.07-.15.37-.29,3,2.1,11.08,11.46a9.79,9.79,0,0,0,2.21-2.4C149.74,217.15,151.19,214.91,150.63,213Z"/><path class="cls-34" d="M110.13,191.71s-8.16,2-11.44,2.51a51.35,51.35,0,0,0-5.78,1.14s6.23.58,11,1.15a33.47,33.47,0,0,1,5.46,1.42h0Z"/><path class="cls-34" d="M90.71,181.24s5.54,2.68,8.64,3a3.58,3.58,0,0,0,1.16,0c2.56-.58-7.34,4-8.85,3.85Z"/><path class="cls-34" d="M91.14,158.45s.35.35,5.71,2l11.06,3.38s-5.12,1.47-8.39,1.2-3.84-.42-5.24,0l-4.65,1.45S89.51,159.62,91.14,158.45Z"/><path class="cls-35" d="M54,113s2.53.19,4.62,3.21c2.1,2.77,3.55,4.64,5.51,5.26l.39.1c-2.91-.16-.14,0-.14,0s-1.66,1.29-5.91-2c-2.46-1.79-4.92-3.07-5.52-3.08S53.27,113.49,54,113Z"/><path class="cls-35" d="M50.56,134.73s2,.67,7.84,2.7,7.16.95,7.16.95l-13.32,5.29c-.36-1.36-.7-2.83-1-4.4S50.72,136.15,50.56,134.73Z"/><path class="cls-34" d="M56.49,162.31s4.32,1,10.8,6.06c7.23,4.53,8.2,5.5,8.2,5.5s-.76-1.61-6.91-1.61-9.17.91-10-.9S56.49,162.31,56.49,162.31Z"/><path class="cls-34" d="M62.56,194.81s2.59-.78,7.34,3.71,5.5,4.81,5.5,4.81-10.79-3.73-12.84-1.54Z"/><path class="cls-34" d="M126.86,74.8a34.47,34.47,0,0,0-14.68,9.11,49.86,49.86,0,0,1,10.94-1.59,51.28,51.28,0,0,1,6.21.18Z"/><path class="cls-27" d="M104.64,227.7A8.08,8.08,0,0,1,106,222a7.79,7.79,0,0,1,4.81-3.22,7.66,7.66,0,0,0-5.56,8.87Z"/><path class="cls-35" d="M98.28,38.78S96.6,43.29,94.14,49.1l-2.46,5.81s6.59-6.62,10-9l3.39-2.42S100.37,39.1,98.28,38.78Z"/><path class="cls-35" d="M80.19,35.06A37.26,37.26,0,0,1,94.6,36.52a74.33,74.33,0,0,1-3,12.27,75.9,75.9,0,0,1-5.91,13.06,41.26,41.26,0,0,0,.67-10.33,30,30,0,0,0-4-13.31A26.53,26.53,0,0,0,80.19,35.06Z"/><path class="cls-35" d="M65.82,37.08a18.2,18.2,0,0,1,3-1.29,17.87,17.87,0,0,1,4-.77c1.61,3.23,2.09,9.52,2.74,11.78a27.67,27.67,0,0,1,.77,5.3c-1.66-2-3.35-4.17-5.05-6.56C69.15,42.6,67.36,39.75,65.82,37.08Z"/><path class="cls-35" d="M33.19,69.54a25,25,0,0,1,14.22,6.89,40.13,40.13,0,0,0-16.56,0Z"/><path class="cls-2" d="M196.09,199.4a14.63,14.63,0,0,1,4.76.49c2.69.75,5.55,2.42,5.33,3.17-.11.38-1.08.69-5.05.27l-.22,1.11a1.19,1.19,0,0,1,.17-.87c.27-.34.82-.47,3.14-.16,1,.13,1.55.2,2.2.34a23.13,23.13,0,0,1,4.11,1.33,26.28,26.28,0,0,1,6,3.75c2.92,2.39,5.47,5.42,5.21,5.7-.05.06-.21,0-.34-.06-.63-.11-1.3-.2-2-.26a22.84,22.84,0,0,0-2.69-.07,10.16,10.16,0,0,1,5,2.89,10.33,10.33,0,0,1,2.74,6.41,14,14,0,0,1-5.08,1.08,18.83,18.83,0,0,1-3.39-.33c-1.73-.23-4.23-.54-7.34-.82l4.4,3.08c-2.47-.41-4.51-.88-6-1.26a27.31,27.31,0,0,1-5.4-1.78A18.16,18.16,0,0,1,198,221c.37,1,.75,1.93,1.12,2.9l-4.43-1.42a21.91,21.91,0,0,1-2.3-7.09A23.83,23.83,0,0,1,196.09,199.4Z"/><path class="cls-5" d="M192.62,217.15c.08.58.19,1.18.34,1.82a22.07,22.07,0,0,0,1.35,4l5.05,1.06c-.47-1.1-.94-2.21-1.4-3.31a19.09,19.09,0,0,0,4,2.85,23.89,23.89,0,0,0,6,2.06,41.7,41.7,0,0,0,5,.89l-4.39-3.27s9.65,3,16.73,0c-.11-.37-2.67-2.85-8-3.84s-11.24-1.74-11.24-1.74l-.25,3.23-7.44-2.65-1.07-3h-5.06Z"/><path d="M74.93,90.21a8.86,8.86,0,0,0-2.41.32,11.12,11.12,0,0,0-2.25.86,13.73,13.73,0,0,0-3.81,2.91,22.18,22.18,0,0,0-3,3.84c-.4.71-.81,1.41-1.2,2.13s-.72,1.47-1.11,2.2c.25-.78.54-1.55.82-2.33s.7-1.5,1.05-2.25a20.67,20.67,0,0,1,2.92-4,13,13,0,0,1,4.07-2.91A8.78,8.78,0,0,1,74.93,90.21Z"/><path d="M72.68,87.08a19.41,19.41,0,0,0-3.33.94c-1.09.37-2.16.8-3.21,1.27a37.7,37.7,0,0,0-6,3.32A30.68,30.68,0,0,0,54.85,97l-1.19,1.24-1.07,1.35c-.19.22-.38.44-.55.67l-.49.71c-.32.48-.65,1-1,1.43a24.19,24.19,0,0,1,3.86-5.81A28.27,28.27,0,0,1,59.7,92a33.34,33.34,0,0,1,6.22-3.22A23.33,23.33,0,0,1,72.68,87.08Z"/><path d="M69.73,85.24A22.42,22.42,0,0,0,66.91,85a26.53,26.53,0,0,0-2.82,0,25.58,25.58,0,0,0-5.51.91,27.17,27.17,0,0,0-2.63.9,25.33,25.33,0,0,0-2.49,1.27,25.73,25.73,0,0,0-4.52,3.36c.3-.36.62-.72.94-1.07a8.78,8.78,0,0,1,1-1l1.1-.94c.36-.31.78-.55,1.17-.83a18.26,18.26,0,0,1,2.51-1.43,24.54,24.54,0,0,1,2.72-1,20.46,20.46,0,0,1,5.71-.76A18.89,18.89,0,0,1,69.73,85.24Z"/><path d="M96.19,92.67a12.88,12.88,0,0,1,4.36,2.48A20.4,20.4,0,0,1,104,98.86,23.93,23.93,0,0,1,105.3,101a19.84,19.84,0,0,1,1.11,2.27c.34.77.58,1.57.88,2.36s.43,1.61.62,2.42c-.33-.77-.61-1.55-.93-2.31s-.64-1.53-1-2.26a29.66,29.66,0,0,0-2.51-4.25,23.24,23.24,0,0,0-3.22-3.71A17.13,17.13,0,0,0,96.19,92.67Z"/><path d="M100.66,92.67a16.21,16.21,0,0,1,5.62,1.67,18.35,18.35,0,0,1,8.3,8.19,22.29,22.29,0,0,1,1.18,2.7c.31.93.52,1.89.76,2.83-.38-.9-.66-1.83-1.06-2.71a23.18,23.18,0,0,0-1.32-2.58,21.17,21.17,0,0,0-8.09-8A21.28,21.28,0,0,0,100.66,92.67Z"/><path class="cls-36" d="M100.86,88.45c.27.15,12.07-2.78,20.68,9.67"/><path class="cls-32" d="M67.53,113.31l.08,1.6c-2-.41-3.6-.83-4.76-1.15a25.21,25.21,0,0,1-2.53-.92,6,6,0,0,1-2-1.19,6.11,6.11,0,0,1-.82-.91l-.44-1.08a40.08,40.08,0,0,0,4.6,2A37.92,37.92,0,0,0,67.53,113.31Z"/><path class="cls-31" d="M154.75,202.06s6.61,3.56,18.52.55,25.91-6.5,33.41.42l-2.46.38s10.63.76,18.11,11.88l-5.61-1.15s6.12.69,8.66,9.12c0,0-8.37,4.33-16.73,0l5,3.27s-10.84.12-15.43-5.14l1.34,3.14s-14.9-4.37-18.69-3.44l3.71,1.59s-18.41-1.13-19.42-1.54l4,1.66s-14.95.82-20.75-3.91"/><path class="cls-37" d="M53.79,224.22s-.86,4.47,3.35,5.58c1.49,1.32,3.45,3,7.88.67,0,0,3.86,3.06,9.16-.55,1.07-1.31,3.56-5.67,3.77-9.22.33-2.89,1-11.57,1-11.57l.65-9.74,1.43,2.83-1.3-10.63,2.68,5-2.07-13.23L82.64,188s.35-8.22,0-9.9-1.55-6-1.55-6l2.53,3.68a23.93,23.93,0,0,0,0-4.1,53.47,53.47,0,0,0-1.5-5.61c-.36-.79-1.79-3.59-1.79-3.59"/><path class="cls-31" d="M79.81,201.24a17.78,17.78,0,0,0,3.35,4.94,18,18,0,0,0,5.21,3.76"/><path class="cls-38" d="M134.08,226.85c-1.49.06-3,.2-4.51.21a15.39,15.39,0,0,1-4.52-.55l.22-.06a11.67,11.67,0,0,1-6.61,3.61,11.13,11.13,0,0,1-7.38-1.17l0,0v0a4.63,4.63,0,0,1-.15-3.77,4.4,4.4,0,0,1,2.72-2.55h0a8.62,8.62,0,0,1,1.17-.42,2.27,2.27,0,0,0,1.05-.63,2.22,2.22,0,0,1-1,.65,8.13,8.13,0,0,0-1.16.44h0a4.3,4.3,0,0,0-2.64,2.55,4.51,4.51,0,0,0,.2,3.65l0,0a11,11,0,0,0,7.25,1,11.36,11.36,0,0,0,6.33-3.61l.09-.1.13,0c2.88.8,5.89.35,8.89.16Z"/><path class="cls-39" d="M107.91,108.06c.91,1.73,2.58,2.56,3.41,3.82,2.51,3.76,3.76,7.1,5.85,10.86,10.86,16.7,21.72,31.32,32.16,48,6.26,9.61,6.26,20.47,5,31.32a31,31,0,0,1-6.78,17.74"/><path class="cls-32" d="M103.48,111.8l1.26.48a20.09,20.09,0,0,0,4.86-1.14l-.2-.78-2.39-.22S103.93,111.68,103.48,111.8Z"/><path class="cls-34" d="M116.49,121.83a87.09,87.09,0,0,0-8.76,3.61c-2.91,1.56-3.35,2.69-3.35,2.69s1.6-.15,3.68-.24c3.07-.12,3.55.23,6.65.2,2.8,0,5.79-.31,5.79-.31h0Z"/><path class="cls-27" d="M99.81,229.93a11.72,11.72,0,0,1-1.35,3.5,7.25,7.25,0,0,1-2.64,2.69,6,6,0,0,1-3.68.68,9.46,9.46,0,0,1-1.83-.39c-.29-.11-.59-.2-.87-.33L89,235.9l-.22-.1c-.21-.13-.14-.24-.18-.31a13.12,13.12,0,0,1,.29-3.71,11.58,11.58,0,0,1,1.27-3.47,6.74,6.74,0,0,1,2.58-2.61,6.67,6.67,0,0,1,3.56-.75,6.76,6.76,0,0,0-3.53.82,6.69,6.69,0,0,0-2.47,2.62,11.32,11.32,0,0,0-1.18,3.44,12.48,12.48,0,0,0-.2,3.6c0,.07,0,.16,0,.08l.21.09.42.17c.28.12.57.2.85.3a8.28,8.28,0,0,0,1.77.35,5.56,5.56,0,0,0,3.42-.69c2.05-1.22,3.16-3.61,3.64-5.9Z"/><path class="cls-40" d="M94.73,236.29a9.08,9.08,0,0,1-5.44-.63"/><path class="cls-38" d="M77.84,228a9.72,9.72,0,0,0-.18,2.95,3.38,3.38,0,0,0,1.22,2.48,3.68,3.68,0,0,0,2.78.36l.37-.08.09,0s.09-.06,0,.05a.33.33,0,0,0,0-.11c0-.24.05-.5.07-.75,0-.51.09-1,.16-1.53a12.41,12.41,0,0,1,2-5.77,5.76,5.76,0,0,1,2.37-1.92,6.73,6.73,0,0,1,3-.49,6.58,6.58,0,0,0-3,.56,5.69,5.69,0,0,0-2.27,1.94,12.13,12.13,0,0,0-1.82,5.71c-.05.51-.09,1-.12,1.52,0,.26,0,.51,0,.77a.65.65,0,0,1-.06.26l0,0a.14.14,0,0,1-.07.06l-.06,0h0l-.1,0-.38.1a4.07,4.07,0,0,1-3.12-.37,3.89,3.89,0,0,1-1.48-2.8,10,10,0,0,1,.13-3.14Z"/><path class="cls-41" d="M82.11,234a9.52,9.52,0,0,0,7.18,1.7"/><path class="cls-42" d="M129.77,197.65s7.32,13.73,14.35,19.64c5,5.46,6.45,6.48-6.26,9.16-11.34.87-12.93-.18-12.93-.18"/><path class="cls-43" d="M126.45,212.67a17.5,17.5,0,0,1-6-13.66l-1.11,1.6-.71,2.41-.4-2.14c-.8-4,1-9.26,1-9.26l-3.18,2.46a12.08,12.08,0,0,1,.54-3.69,13.58,13.58,0,0,1,5.89-7.3l-3.88,1.6,1.34-1.6a15.25,15.25,0,0,1,5-4.27,11.2,11.2,0,0,1,3.76-1.11,11.32,11.32,0,0,1,7.6,0"/><path class="cls-44" d="M87.71,212.5s-10.06,2.56-9.17,6.23c.84,2.56,1.13,2.11,3.94,1.39l2.81-.72Z"/><path class="cls-44" d="M106.11,211s6.4-3.12,8.25-.74a3.77,3.77,0,0,1,.56,4.36l-6.17,3.12-3.26,1.46-2.12-.28Z"/><path class="cls-3" d="M108.07,204.71l0,0a12.68,12.68,0,0,0,5.42,4.84,12.32,12.32,0,0,0,9.66-.27L126,212.5s-6.59.29-10.9,2.23-10.24,4.62-10.24,4.62a6.66,6.66,0,0,0-3,5.66"/><line class="cls-43" x1="106.64" y1="208.96" x2="110.83" y2="207.91"/></svg>