<svg id="Layer_54" data-name="Layer 54" xmlns="http://www.w3.org/2000/svg" xmlns:xlink="http://www.w3.org/1999/xlink" viewBox="0 0 256 256"><defs><style>.cls-1{fill:none;}.cls-2{opacity:0.5;}.cls-3{fill:#fff;}.cls-4{fill:#efe800;stroke:#938c00;}.cls-14,.cls-4,.cls-8{stroke-miterlimit:10;stroke-width:2px;}.cls-5{fill:#fffef3;}.cls-6{fill:#ff0;}.cls-7{fill:#e7242b;}.cls-11,.cls-8{fill:#ed152e;}.cls-8{stroke:#700;}.cls-9{clip-path:url(#clip-path);}.cls-10{opacity:0.43;}.cls-12{opacity:0.12;}.cls-13{opacity:0.21;}.cls-14{fill:#bbefff;stroke:#008e87;}.cls-15{fill:#f74239;opacity:0.96;isolation:isolate;}.cls-16{opacity:0.49;}.cls-17{opacity:0.29;}.cls-18{clip-path:url(#clip-path-3);}.cls-19{opacity:0.65;}.cls-20{fill:#e25c56;}.cls-21{opacity:0.46;}.cls-22{fill:#ff574a;}</style><clipPath id="clip-path"><path class="cls-1" d="M105.47,138.71l4.83-.24L104.26,14A4.78,4.78,0,0,0,99.8,9.5h-.2l-44.67.65L55,15l42.44-.61a2.08,2.08,0,0,1,2.11,2Z"/></clipPath><clipPath id="clip-path-3"><path class="cls-1" d="M100.12,210.17h0v8.51a7.82,7.82,0,0,0,5.31,7.46,44.47,44.47,0,0,0,13,1.74A36.12,36.12,0,0,0,129,226.75a9.23,9.23,0,0,0,6.57-8.88v-7.66h0c0-9.08,1.58-41.63,8.83-80.54,6.41-34.24,14.68-51.55,14.68-51.55H76.66s8.26,17.31,14.67,51.55C98.54,168.54,100.12,201.09,100.12,210.17Z"/></clipPath></defs><path class="cls-2" d="M91.37,252.5l-1.25-4.34c-.24-.84-2.21-8.33,2.9-13.44.78-.77,1.44-1.32,2-1.76l.59-.49a12.13,12.13,0,0,0,.26-2.81,544.63,544.63,0,0,0-9.18-94.49c-7.27-39.06-20.06-58.86-20.19-59l-6.11-9.3h40.39l-2-41.4-44.63.64L53.83,9.24l50.68-.74h.59A10.75,10.75,0,0,1,115.24,18.6l2.34,48.22h24.58a32.74,32.74,0,1,1,24.6,37.88A236.62,236.62,0,0,0,159,135.17a544.63,544.63,0,0,0-9.18,94.49,13.1,13.1,0,0,0,.25,2.79l.58.48c.54.45,1.22,1,2,1.79,5.11,5.11,3.14,12.6,2.9,13.44l-1.25,4.34Z"/><path class="cls-3" d="M86.37,247.5l-1.25-4.34c-.24-.84-2.21-8.33,2.9-13.44.78-.77,1.44-1.32,2-1.76l.59-.49a12.13,12.13,0,0,0,.26-2.81,544.63,544.63,0,0,0-9.18-94.49c-7.27-39.06-20.06-58.86-20.19-59l-6.11-9.3H95.75l-2-41.4-44.63.64L48.83,4.24,99.51,3.5h.59A10.75,10.75,0,0,1,110.24,13.6l2.34,48.22h24.58a32.74,32.74,0,1,1,24.6,37.88A236.62,236.62,0,0,0,154,130.17a544.63,544.63,0,0,0-9.18,94.49,13.1,13.1,0,0,0,.25,2.79l.58.48c.54.45,1.22,1,2,1.79,5.11,5.11,3.14,12.6,2.9,13.44l-1.25,4.34Z"/><circle class="cls-4" cx="169.39" cy="67.81" r="26.78"/><circle class="cls-5" cx="169.39" cy="67.81" r="24.71" transform="translate(75.32 224.15) rotate(-80.78)"/><path class="cls-6" d="M169.5,64.9a36.86,36.86,0,0,1-1-11.29c.31-6.84-1.05-8.63,2.34-8.52a14,14,0,0,1,7,2c1.76,1,3.52,2.19,1.92,4.18s-6.88,10.91-8,12.31S169.88,66.19,169.5,64.9Z"/><path class="cls-6" d="M166.33,69.79S150.78,74.91,150,76.86s1.56,5.55,3.36,7,3.67,2.62,4.49,1.84S168.83,69,166.33,69.79Z"/><path class="cls-6" d="M172.86,68.1a1,1,0,0,1-.32-1.64,10.25,10.25,0,0,1,2.15-1.36c3.24-1.57,12.35-5.59,13.79-5.16s2.62.15,3.17,4.22.51,5.54-1.29,5.43-10.51-.67-12.81-.78A17.16,17.16,0,0,1,172.86,68.1Z"/><path class="cls-6" d="M157.42,49.86s1.84,2.85,3.83,6.36,4.73,8.29,5.63,8.8,1.48-.55,1.33-2.39S167.5,47.16,167,46.5s-3-.86-4.85,0S157.7,49,157.42,49.86Z"/><path class="cls-6" d="M147.85,63.81s-1.76,4.53-.63,7.74,1.18,4.61,3.32,3.59,13.8-6,15.36-6.14.78-1.83-.43-2S149.49,63.14,147.85,63.81Z"/><path class="cls-6" d="M168.79,70.76s-.31-1.21-1.56.12-7.31,13.83-7.82,14.77,1,3.28,3.4,3.67,6.18,1.64,6.8.31S168.75,72.4,168.79,70.76Z"/><path class="cls-6" d="M156.17,50.79s-6.45,3.83-7.5,8-1.37,4,2.81,4.73,11.8,1.91,13.56,2.54-1.91-5.86-3.75-8.67S157.46,51,156.17,50.79Z"/><path class="cls-6" d="M172.19,68.77s8.79.78,12.15,1.25,7.35-.47,6.88,3.24-1.41,3.44-2.07,5-3.4,6.1-4.5,5.94-6.09-6.57-8.28-8.91S170.71,68.61,172.19,68.77Z"/><path class="cls-6" d="M172,65.72a.63.63,0,0,1-.62-1c1.52-2.07,6.09-8.24,7.07-9.76,1.17-1.84,2.7-5.2,4.53-4.22a13.13,13.13,0,0,1,4.77,5.12c1.29,2.22,1.25,2.26-.51,3.55S175.75,63.77,174,64.82A6.73,6.73,0,0,1,172,65.72Z"/><path class="cls-6" d="M170.86,69.79s-.78-1-.82,2.26.82,7.39.67,9a32.52,32.52,0,0,0,.39,7.27,2.73,2.73,0,0,0,3.59,2c2.11-.67,9.69-3.56,9-4.93S172,71.54,170.86,69.79Z"/><path class="cls-7" d="M169.23,67.82H66.48S80,88.37,87.56,129.07a549.71,549.71,0,0,1,9.28,95.65h0c-.12,6.85-1.82,6.53-4.58,9.24s-1.38,7.54-1.38,7.54h53.91s1.38-4.78-1.38-7.54-4.46-2.39-4.58-9.24h0a549.71,549.71,0,0,1,9.28-95.65C155.73,88.37,169.23,67.82,169.23,67.82Z"/><path id="SVGID" class="cls-8" d="M105.47,138.71l4.83-.24L104.26,14A4.78,4.78,0,0,0,99.8,9.5h-.2l-44.67.65L55,15l42.44-.61a2.08,2.08,0,0,1,2.11,2Z"/><g class="cls-9"><g class="cls-10"><path class="cls-11" d="M108.88,140l4.86.93-6-130.39a4.77,4.77,0,0,0-4.46-4.5h-.2l-51.63.17L51,11.4,99.76,11a3.4,3.4,0,0,1,2.84,2.55Z"/></g></g><g class="cls-9"><g class="cls-12"><path class="cls-3" d="M102.15,142l4.82-.25-6-124.47c-.16-2.43-.16-4.46-2.55-4.62L44.68,13l.08,4.82,48.59.53a2.07,2.07,0,0,1,2.11,2Z"/></g></g><g class="cls-13"><path class="cls-3" d="M92,13.15c-4.26,1.17-10,.32-15.24.57-6,.24-13.58,1.62-19.34-.09-.85-.24-1-1.66,0-1.82,8.76-1.22,25.17-1.09,34.82-.41C94.33,11.57,92.34,13,92,13.15Z"/></g><g class="cls-13"><path class="cls-3" d="M102.88,24.09c1.62,4.34,1.26,9.61,1.54,14.15.28,4.9,1.54,11.39.77,16.29-.16.93-1.91.45-2.31-.32-1.83-3.29-1-8.35-1.26-12.08-.61-7.74-1.58-11.88-1.05-17.55C100.85,21.34,102.88,24.09,102.88,24.09Z"/></g><path class="cls-14" d="M169.23,67.82H66.48S80,88.37,87.56,129.07a549.71,549.71,0,0,1,9.28,95.65h0c-.12,6.85-1.82,6.53-4.58,9.24s-1.38,7.54-1.38,7.54h53.91s1.38-4.78-1.38-7.54-4.46-2.39-4.58-9.24h0a549.71,549.71,0,0,1,9.28-95.65C155.73,88.37,169.23,67.82,169.23,67.82Z"/><path class="cls-15" d="M100.12,210.17h0v8.51a7.82,7.82,0,0,0,5.31,7.46,44.47,44.47,0,0,0,13,1.74A36.12,36.12,0,0,0,129,226.75a9.23,9.23,0,0,0,6.57-8.88v-7.66h0c0-9.08,1.58-41.63,8.83-80.54,6.41-34.24,14.68-51.55,14.68-51.55H76.66s8.26,17.31,14.67,51.55C98.54,168.54,100.12,201.09,100.12,210.17Z"/><g class="cls-16"><path class="cls-3" d="M70.78,70.54c7,.89,14.1.85,21.2,1.09,3.52.13,7,.45,10.62.53,3.85.08,7.78,1.22,11.47-.2a.51.51,0,0,0,0-1c-7.34-2.11-16.26-1.54-23.92-1.79-4-.12-8,0-12,.12-2.63.08-5.1-.4-7.49.73-.25.08-.08.45.16.49Z"/></g><g class="cls-16"><path class="cls-3" d="M128.05,71.47c6.4.85,12.77,1.18,19.21,1.42,4.54.16,12.16,2.07,16-1a.6.6,0,0,0-.12-.93c-1.62-.9-2.56-.65-4.46-.57-3.12.12-6.36-.33-9.48-.45a121.23,121.23,0,0,0-21,.45c-.61.08-.85,1-.16,1.09Z"/></g><g class="cls-16"><path class="cls-3" d="M130.08,236.07c-4.79-.37-9.53-.53-14.35-.49a51.79,51.79,0,0,1-7.87-.28c-2.91-.41-5.43-2.15-8.1-3.24-3.45-1.42-5,4.25-1.54,5.59,10.45,4,21.44,2.88,32.1.08.93-.24.65-1.58-.24-1.66Z"/></g><g class="cls-16"><path class="cls-3" d="M136.24,237.37a2.46,2.46,0,0,1,.52,0c-.36-.08-.73-.21-1.09-.29.2.12.16.08-.16-.12a2.74,2.74,0,0,0,1.21.73,3.2,3.2,0,0,0,2,.08,2.52,2.52,0,0,0,.61-4.54,3.34,3.34,0,0,0-2.64-.36,6.17,6.17,0,0,0-1.54.81,1.95,1.95,0,0,0,1.06,3.65Z"/></g><g class="cls-17"><path class="cls-3" d="M125.25,234c-3.32.16-6.6-1.21-9.85-1.94-3.52-.81-6.52-2.52-9.85-3.77-4.86-1.87-7.7,5.67-3.44,8.18,6.2,3.73,17.51,3.37,23.75-.28a1.2,1.2,0,0,0-.61-2.19Z"/></g><g class="cls-17"><path class="cls-3" d="M123.79,71.92c7.74,1.54,17.88,3.36,25.46.48a.63.63,0,0,0,0-1.21c-3.69-1.46-7.83-1.3-11.76-1.46-4.54-.2-9.24-.61-13.7.24a1,1,0,0,0,0,2Z"/></g><path class="cls-3" d="M136.72,72.16c7.22.77,16.26,3.53,23.06,0,.57-.28.21-1-.28-1.05-3.44-.45-7,0-10.5,0-4.13,0-8.14,0-12.28.36-.44,0-.4.61,0,.69Z"/><path class="cls-3" d="M111.23,235.79c-.57-.09-1.1-.61-1.62-.82-.77-.32-1.54-.64-2.31-.93a12.8,12.8,0,0,1-2.11-1c-.61-.33-.65-.81-1.18-1.3a1.92,1.92,0,0,0-3,.37c-1.37,2.55,1.5,4.25,3.53,4.94a11.33,11.33,0,0,0,3.69.53c1,0,1.9-.45,2.8-.49.69,0,.93-1.17.16-1.29Z"/><g class="cls-18"><g class="cls-19"><path class="cls-20" d="M121.28,228l.12.12c-1,2.56-2.07,5.07-3.08,7.62,4.14-2.83,6.16-3.6,7.05-8.22,1.46-7.38.08-18.49-.24-25.82-.73-15.16.08-30.24.2-45.36,0-7.41,2.64-36,4.06-42.72,1.66-8,2.51-16.17,3.52-24.23a55.2,55.2,0,0,0,.61-11.56c-.32-4.13-1.62-8.1-1.82-12.24-.33-6.68-5.35-12.28-12.28-12.28C113,53.27,68,64.18,68.31,70.86c.2,4.06,5.51,6.77,6.32,10.74.65,3.25,8.35,44.22,7.7,52.78-.61,8,8.71,17.3,8.55,25.33-.36,16.21,5.88,32.67,8.31,48.92,1,7-5.23,13.37-3.53,19.62.86,3.16,11.31,5.63,14.23,7.33a10,10,0,0,0,4.58,1.22c5.92,0-4.62.24,1.74.08a6,6,0,0,0,5.07-8.92Z"/></g></g><g class="cls-18"><g class="cls-19"><path class="cls-20" d="M116.46,223.83l.12.12-1.83,8c3.61-3.49-7.78-114.26-7.49-121.11.32-8.15-1.83-17.55-2.15-25.7a57.59,57.59,0,0,0-1.3-11.51c-1-4-3-7.74-3.85-11.75-1.42-6.53-7.29-11.23-14.14-10.1-6.37,1.06-49,19.22-47.55,25.74.85,3.93,6.57,5.76,8,9.57,1.17,3.08,15.52,42.23,16.29,50.78.73,8,11.47,15.65,12.61,23.59,2.35,16.09,11.14,31.25,16.25,46.9,2.19,6.68-2.92,14-.24,19.94,1.33,3,12.07,3.69,15.24,4.9a9.85,9.85,0,0,0,4.74.45c5.83-1-4.5,1,1.7-.21a6,6,0,0,0,3.61-9.64Z"/></g></g><g class="cls-18"><g class="cls-21"><path class="cls-22" d="M174.74,56.11c-5.84-4-14.55.33-17.75,4.54-4.26,5.55-9.65,28.62-10.38,30.64A150.91,150.91,0,0,0,141.38,109c-3,12.45-3.89,21.53-7.49,37-1.18,5-2.23,21.44-3.25,27.56-1,5.84-1.13,18.81-1.7,24.72-.49,5.52.61,28.46,1.18,33.56.85,7.5,9.16,12.49,17.3,12.49,6.93,0,6.49-6.16,5.51-13.66-.44-3.61-1.9-7.46-5.47-9.12-1.13-.53-2.23-1-3.4-1.46-9-2.47.93,1,.48.69l4.42,4.42c2.31,3.77.81,5,1.1,1.09a36.83,36.83,0,0,1,1.17-4.94,82,82,0,0,0,1.62-13.79,198.07,198.07,0,0,1,2.56-23.95c1.58-9.12,3.89-17.91,4.5-27.2.6-8.87.73-17.63,2.06-26.42,1.3-8.59,2.15-17.19,4-25.7,1.21-5.59,3-10.94,3.85-16.62a150.18,150.18,0,0,1,2.59-14.83c.53-2.19.93-4.46,1.46-6.65.28-1.25,1.54-1.7,2.67-3.4,1.5-2.31.25-5.23-1.78-6.65Z"/></g></g><g class="cls-18"><g class="cls-21"><path class="cls-22" d="M178,56.11c-5.83-4-14.55.33-17.75,4.54-4.26,5.55-9.65,28.62-10.38,30.64A152.8,152.8,0,0,0,144.63,109c-3,12.45-3.9,21.53-7.5,37-1.18,5-2.23,21.44-3.24,27.56-1,5.84-1.14,18.81-1.71,24.72-.48,5.52.61,28.46,1.18,33.56.85,7.5,9.16,12.49,17.31,12.49,6.93,0,6.48-6.16,5.51-13.66-.45-3.61-1.91-7.46-5.47-9.12-1.14-.53-2.23-1-3.41-1.46-9-2.47.93,1,.49.69l4.42,4.42c2.31,3.77.81,5,1.09,1.09a36.83,36.83,0,0,1,1.17-4.94,83.05,83.05,0,0,0,1.63-13.79,196.06,196.06,0,0,1,2.55-23.95c1.58-9.12,3.89-17.91,4.5-27.2.61-8.87.73-17.63,2.07-26.42,1.29-8.59,2.14-17.19,4-25.7,1.21-5.59,3-10.94,3.85-16.62.73-5,1.38-10,2.59-14.83.53-2.19.93-4.46,1.46-6.65.29-1.25,1.54-1.7,2.68-3.4,1.54-2.31.24-5.23-1.79-6.65Z"/></g></g><path class="cls-3" d="M144.79,90.81c-4.87,8-6,19.49-8.31,28.41a198.1,198.1,0,0,0-4.7,23.42c-1.42,10.5-2.43,21-3.2,31.58-.61,8.19-1.38,16.66-.53,24.84.24,2.48,4.13,2.56,3.93,0-1.46-18.19,1.34-37.24,3.53-55.32a210.34,210.34,0,0,1,4.41-23.59c1.34-5.76,2.15-11.67,3.45-17.43.85-3.73,2.23-7.94,1.86-11.79-.08-.25-.32-.33-.44-.12Z"/></svg>