<svg id="Layer_54" data-name="Layer 54" xmlns="http://www.w3.org/2000/svg" viewBox="0 0 256 256"><defs><style>.cls-1{fill:#1d1d1b;opacity:0.5;}.cls-2{fill:#eaeaea;}.cls-3{fill:#eaefe1;stroke:#4c4c4c;stroke-miterlimit:10;stroke-width:2px;}.cls-4{fill:#c1c1c1;}.cls-5{fill:#b2b2b2;}.cls-6{fill:#97a085;}.cls-7{fill:#10989b;}</style></defs><path class="cls-1" d="M103.28,194.9a35.72,35.72,0,0,1-4.8-.47h-.09l-.9-.16-.09,0-.88-.18-.11,0-.86-.19-.11,0-.89-.22-.1,0-.92-.25h0c-1.34-.38-2.69-.82-4-1.31l-.06,0-.92-.35-.19-.07-.78-.31-.27-.12-.71-.3-.32-.14c-.23-.09-.45-.19-.66-.29l-.36-.16-.62-.29-.38-.18-.6-.29-.41-.2-.57-.29-.42-.21-.57-.29-.43-.23-.55-.3-.37-.21-9.55-6.16h0L67.17,179s-9.07-8.21-13.28-13l-.2.63L46.6,157l-1.18-1.67-.29-.4-2.08-3,0-.07c-1.34-2-2.64-4.11-3.88-6.22v0c-.43-.72-.84-1.45-1.24-2.16l0-.07c-.41-.74-.81-1.45-1.17-2.14l-.09-.16c-.37-.69-.74-1.38-1.09-2.07l-.14-.28c-.34-.66-.67-1.32-1-2l-.2-.41c-.31-.62-.61-1.24-.9-1.87L33,133.9c-.27-.59-.54-1.16-.8-1.75-.07-.16-.15-.33-.22-.5l-.19-.43c-.21-.47-.41-.93-.61-1.4l-.3-.72-.26-.62c-.14-.34-.29-.68-.43-1l-.42-1.06-.25-.63-.27-.69c-.24-.63-.48-1.26-.71-1.89l-.06-.17c-.05-.12-.09-.23-.13-.35-.56-1.52-1.08-3-1.57-4.55l-.1-.19-.08-.35L26,115.45v0c-.12-.39-.24-.79-.35-1.18l-.09-.28c-.17-.6-.35-1.2-.52-1.81l-.07-.26c-.14-.51-.28-1-.41-1.52l-.15-.56c-.1-.41-.21-.82-.32-1.24l-.14-.6c-.11-.42-.21-.82-.3-1.23l-.14-.6-.3-1.28-.11-.52c-.11-.51-.22-1-.32-1.52l-.06-.29c-.26-1.23-.5-2.5-.72-3.75V98.7c-.11-.61-.21-1.2-.31-1.78l0-.28c-.09-.53-.17-1.07-.25-1.6l0-.3-.15-1A15.9,15.9,0,0,1,17,90.47l-.05,0,0,0A12,12,0,0,1,15.86,89l-.08-.12c-.14-.22-.26-.43-.38-.64l0,0L15.3,88c-.1-.19-.19-.38-.28-.58,0,0,0-.11-.08-.16l-.18-.44a1.59,1.59,0,0,1-.07-.2q-.09-.23-.15-.42c0-.08-.09-.27-.09-.27s-.07-.26-.11-.39a2.29,2.29,0,0,0-.07-.28c0-.14-.06-.27-.08-.41l5.33-1.08-5.34,1a1.87,1.87,0,0,1,0-.25c0-.16-.05-.31-.07-.47s0-.14,0-.22c0-.27,0-.5,0-.74a10.9,10.9,0,0,1,2.88-7.86c.13-.15.27-.3.4-.43a17.2,17.2,0,0,1,6-3.75c.31-.13.66-.26,1-.39l.46-.16c.72-.25,1.49-.5,2.31-.73L28,69.6c.43-.12.88-.23,1.34-.34,1.76-.42,3.75-.81,5.9-1.16l.12,0,.25,0,1.68-.25.92-.13.86-.12,1.32-.16.48-.06,1.49-.17.42,0,.89-.09,1-.11.92-.09,1-.09.84-.08,1.4-.12.53,0,2-.15.3,0,1.81-.12.41,0,1.84-.11H56c4.93-.25,10.07-.38,15.29-.38h1.24a238.13,238.13,0,0,1,35,2.41,61.43,61.43,0,0,1,11.85,2.86c.45.17,1.28.49,2.24,1l.33.17.19.1.38.21.28.17.22.13c.15.09.31.19.46.3l.13.08c.18.12.32.23.47.34l.09.07.55.43.11.1c.21.18.42.37.61.56l47,.7a7,7,0,0,1,6.17-3.75l57.9.86a10.91,10.91,0,0,1,10.74,11l0,3.09a10.74,10.74,0,0,1-.82,4c0,.1-.07.19-.11.29a10.84,10.84,0,0,1-2.36,3.39l0,0a10.85,10.85,0,0,1-3.48,2.27l-.12,0a11.78,11.78,0,0,1-1.87.53l-.15,0-.68.1-.38,0h-.05c-.22,0-.53,0-.89,0l-57.91-.86c-.3,0-.54,0-.7,0l-.17,0a2.2,2.2,0,0,1-.37-.06h-.93l-1-.67-.44-.2-.22-.21-.14-.1a8,8,0,0,1-.88-.74l-.09-.1a7,7,0,0,1-1.21-1.71l0,0-45.34-.67-.3.34-.07.07c-.16.17-.33.34-.53.52l-.14.14-.49.43-.13.11-.4.31-.16.12-.44.31-.27.19s0,.7,0,.9l0,2,0,1.06c.13,8.12.47,16.12,1,23.79l.13,1.95c.1,1.37.21,2.74.32,4.1l0,.28c.12,1.36.23,2.71.35,4.06l0,.16q.31,3.61.66,7.14l.46,4.86.16,1.74.21,2.29v0c.26,3.13.45,5.64.58,7.9v.14c0,.73.08,1.45.11,2.16v.23c0,.65.05,1.29.07,1.93v.57c0,.47,0,.93,0,1.39,0,.27,0,.54,0,.8s0,.77,0,1.15v.17c0,.23,0,.46,0,.68,0,.48,0,.95,0,1.41s0,.85-.06,1.27v.1c0,.26,0,.52,0,.78l-.09,1c0,.27,0,.54-.07.8s-.07.69-.11,1l-.09.65-.06.39c0,.22,0,.43-.08.63l-1.41,5.74v0c-.19.57-.39,1.08-.59,1.58l0,.06c-.06.14-.11.26-.17.38l-.07.18-.18.4-.15.32,0,.08c-.08.17-.17.34-.25.52l-.17.31,0,.05c-.09.18-.19.36-.29.54s-.12.22-.19.33l-.33.55-.19.29-.38.57-.18.25-.44.6-.14.18c-.18.22-.35.44-.53.65l-.11.13c-.44.51-.92,1-1.39,1.45a20.24,20.24,0,0,1-6.8,4.25c-.34.14-.72.26-1.14.4l-.17,0c-.31.1-.61.18-.91.26l-.39.1-.69.16-.06,0ZM83.67,172.79l1.4.87.09.05a52.88,52.88,0,0,0,11.77,5.39c0-.72.09-1.46.14-2.22l-.71-.23-1-.32-.67-.24-.45-.16-.56-.2-1.3-.5-.85-.34c-.39-.16-.78-.31-1.16-.48l-.61-.26-.12-.06c-.3-.12-.61-.26-.92-.4l-.58-.26-.19-.09-.92-.43-.8-.39-1-.52-.59-.3-.51-.27-.15.91-.22-.16-.12.58Zm28.46-7.53,1.42.13c.06-3.34-.12-7.14-.45-11.57l-.7-.09v.19h0C112.31,157.82,112.24,161.57,112.13,165.26ZM86.56,156a69.3,69.3,0,0,0,11.08,5.58c0-1.8.08-3.58.11-5.32l.07-3.38q0-1.54.06-3.12a70.05,70.05,0,0,1-9.76-4.89C87.62,148.6,87.1,152.34,86.56,156Zm-22.82-20.7c.27.35.55.69.82,1l.22.27.8,1,.25.3.79.93.28.32.79.89.3.33.78.86.32.34.79.84.32.33c.26.28.53.55.8.82l.32.33.81.8.32.31.82.78c.38-2.8.75-5.58,1.1-8.19.12-.93.25-1.87.37-2.82a90.57,90.57,0,0,1-9-9.65c-.76,3-1.49,5.86-2.23,8.7l-.25.94Zm33.44-2c.36.21.73.41,1.1.61.14-4.07.29-7.76.47-11.32l-.38-.23-1.13-.71-.49-.32-.14-.09-.66-.44-.62-.42-.68-.48-.14-.1-.43-.31c-.38-.27-.75-.55-1.13-.84l-.34-.26-.14-.11-.62-.48q-.85,5.67-1.58,11l.62.46.79.57.12.09.8.55.16.11.79.52.15.1.81.52.2.13c.34.21.68.42,1,.62l.24.15,1,.58Zm-50.83-30.1.51,1.43.11.32c.17.48.35,1,.53,1.42l.13.34c.17.46.35.92.53,1.38l.16.38c.17.44.35.88.53,1.31l.2.48.51,1.2c.06.12.29.66.29.66l.45,1,.23.51.2.43.33.71c.13.26.25.53.38.79l.2.4.21.44c.19.39.39.78.59,1.17l.12.26.12-.45c.84-3.37,1.57-6.25,2.25-8.9-.64-1.24-1.27-2.5-1.88-3.79s-1.33-2.88-1.95-4.36l-3.66-.37c-.39,1-.77,2-1.15,3Zm24.17,3.29c1,1.65,2,3.26,3.11,4.81l.14.2c.25.37.5.72.76,1.07l.22.31c.24.34.49.67.74,1l.25.33.75,1,.21.27.63.79c.53-3.54,1.14-7.4,1.81-11.41-.87-1.12-1.7-2.26-2.51-3.42H75.9l-3.7,0h-.33C71.43,103,71,104.69,70.52,106.46Zm29.4-.92c.06-.75.13-1.5.19-2.24l.09-1s.16-1.72.2-2.11c-1.8.19-3.66.35-5.59.5l.28.29c.12.12.23.25.35.36l.25.26.73.73c.31.31.63.61,1,.91l.25.23.72.67.28.24.72.63.3.25Z"/><path class="cls-2" d="M98,190.34a35.72,35.72,0,0,1-4.8-.47h-.08l-.91-.16-.09,0-.88-.17-.11,0-.86-.19-.11,0-.89-.22-.09,0-.93-.25h0c-1.34-.38-2.68-.82-4-1.31l-.06,0-.92-.35-.18-.08-.79-.31-.27-.12-.71-.29-.32-.14-.66-.3-.36-.16-.62-.28-.38-.18-.6-.3-.4-.19-.58-.29-.42-.22-.56-.29L76,183.7l-.55-.3-.37-.2L65.49,177h0l-3.55-2.6s-9.07-8.21-13.28-13l-.2.64-7.09-9.68-1.18-1.67-.29-.4-2.08-3,0-.07c-1.34-2-2.64-4.12-3.88-6.23v0l-1.24-2.15,0-.08c-.41-.73-.8-1.45-1.17-2.13l-.09-.17c-.37-.69-.73-1.38-1.09-2.07l-.14-.28c-.34-.65-.67-1.32-1-2l-.2-.41c-.3-.63-.61-1.25-.9-1.88l-.27-.57L27,127.6c-.07-.17-.14-.34-.22-.5l-.19-.44c-.2-.46-.41-.93-.61-1.4l-.3-.71-.26-.63c-.14-.34-.29-.68-.43-1l-.42-1.06-.25-.63-.27-.69c-.24-.63-.48-1.26-.71-1.89l-.06-.17c-.05-.12-.09-.23-.13-.35-.55-1.51-1.08-3-1.57-4.55l-.1-.19L21.4,113l-.69-2.11v-.05c-.12-.39-.23-.78-.35-1.18l-.08-.28c-.18-.6-.36-1.2-.52-1.81l-.08-.26c-.14-.51-.28-1-.41-1.52l-.14-.56c-.11-.41-.22-.82-.32-1.24l-.15-.59c-.11-.43-.2-.83-.3-1.23l-.14-.61c-.1-.43-.2-.85-.29-1.28l-.12-.52c-.11-.5-.22-1-.32-1.52L17.44,98c-.25-1.24-.5-2.5-.72-3.76v-.07c-.11-.61-.21-1.2-.3-1.78l-.05-.28c-.08-.53-.17-1.06-.25-1.6l0-.3-.15-1a16.23,16.23,0,0,1-4.14-3.22l0-.06,0,0a12,12,0,0,1-1.08-1.41l-.08-.12c-.14-.22-.26-.43-.38-.64l0,0-.07-.15a6.27,6.27,0,0,1-.29-.58.77.77,0,0,1-.07-.16c-.07-.15-.13-.29-.19-.44s0-.13-.07-.19-.11-.29-.15-.43-.09-.27-.09-.27-.07-.26-.1-.39,0-.19-.07-.28S9,80.46,9,80.32l5.33-1.07-5.34,1c0-.08,0-.16,0-.24s-.05-.32-.07-.48,0-.14,0-.22c0-.26,0-.5-.05-.74a10.9,10.9,0,0,1,2.88-7.86c.13-.15.27-.29.4-.43a17.29,17.29,0,0,1,6-3.75l1-.39L19.5,66c.72-.25,1.5-.5,2.31-.73l.93-.25,1.34-.34c1.77-.42,3.75-.81,5.9-1.16l.13,0,.25,0L32,63.22l.91-.13.86-.11,1.32-.17.48-.06,1.49-.17.42,0,.89-.1,1-.1.93-.1,1-.09.85-.08,1.4-.12.52,0,2-.15.3,0,1.82-.12.4,0,1.84-.1.29,0c4.93-.25,10.07-.38,15.29-.38h1.24a239.56,239.56,0,0,1,35,2.41,62.25,62.25,0,0,1,11.84,2.86,24.35,24.35,0,0,1,2.24,1l.33.17.19.1.38.21.29.17.21.13.47.3.12.09a4.78,4.78,0,0,1,.47.33l.09.07a6.23,6.23,0,0,1,.55.44l.12.09c.21.18.41.37.6.56l47,.7a7,7,0,0,1,6.17-3.75l57.9.86A10.91,10.91,0,0,1,242,78.86l0,3.08a11,11,0,0,1-.82,4l-.12.28a11,11,0,0,1-2.36,3.4l0,0a10.74,10.74,0,0,1-3.48,2.27l-.12,0a11.48,11.48,0,0,1-1.87.53l-.15,0-.67.1-.39,0h0c-.23,0-.54,0-.9,0l-57.91-.86a5.05,5.05,0,0,1-.69,0l-.18,0-.37-.06H171L170,91l-.44-.21-.22-.21-.14-.1a8,8,0,0,1-.88-.74l-.09-.09A7.32,7.32,0,0,1,167,87.93l0,0-45.34-.68-.3.34-.07.08-.52.52-.15.13-.49.43-.13.11-.4.31-.16.13-.44.31-.27.18s0,.71,0,.9l0,2v1.06c.13,8.12.47,16.12,1,23.79l.13,2c.1,1.36.21,2.73.32,4.09l0,.28c.11,1.36.22,2.71.34,4.06l0,.16c.21,2.41.44,4.79.66,7.14l.46,4.86.16,1.74.21,2.3v0c.26,3.12.45,5.63.58,7.89v.14c0,.73.08,1.45.11,2.17v.23c0,.64,0,1.28.07,1.92V157l0,1.39v2.8c0,.48,0,.95-.05,1.42s0,.84-.06,1.27V164c0,.26,0,.52-.05.78s0,.68-.08,1,0,.54-.08.8-.07.69-.11,1l-.09.66,0,.39-.09.62-1.4,5.74,0,0c-.19.57-.38,1.09-.59,1.58l0,.06-.16.39-.08.17-.18.4-.15.33,0,.07c-.08.17-.16.35-.25.52l-.17.31,0,.05-.3.54c-.06.11-.12.22-.19.33l-.33.55a2.9,2.9,0,0,1-.19.29c-.12.19-.25.39-.38.57l-.17.25-.45.6-.14.18c-.17.23-.35.44-.53.65l-.11.13a19.27,19.27,0,0,1-1.39,1.46,20.56,20.56,0,0,1-6.8,4.25q-.51.19-1.14.39l-.17,0c-.3.1-.6.18-.91.27l-.39.1-.68.15-.07,0ZM78.43,168.23l1.4.87.09.05a52.88,52.88,0,0,0,11.77,5.39c0-.72.09-1.46.14-2.22l-.71-.23-1-.32-.68-.24-.45-.16-.55-.2-1.3-.5-.86-.34c-.39-.16-.78-.31-1.16-.48l-.6-.26-.13-.05-.92-.41c-.18-.07-.38-.17-.58-.26l-.19-.09-.92-.43L81,168l-1-.52-.58-.3-.52-.27-.15.91-.22-.16-.12.58Zm28.47-7.53,1.41.13c.06-3.34-.11-7.14-.45-11.56l-.7-.1v.19h0C107.08,153.26,107,157,106.9,160.7Zm-25.58-9.24a69.36,69.36,0,0,0,11.08,5.59c0-1.81.08-3.59.11-5.32l.07-3.39c0-1,0-2.07.06-3.12a70.61,70.61,0,0,1-9.76-4.89C82.38,144,81.86,147.78,81.32,151.46ZM58.5,130.76c.27.35.55.69.82,1l.22.27.8,1,.26.3.79.93.27.32.79.89.3.33.78.86.32.34.79.84.32.34.8.81.32.33c.27.27.54.54.82.8l.32.31.81.78c.39-2.8.75-5.57,1.1-8.18.12-.94.25-1.88.37-2.82a91.73,91.73,0,0,1-9-9.66c-.76,3-1.49,5.86-2.23,8.7,0,0-.22.84-.24.94Zm33.44-2,1.1.6c.14-4.06.29-7.76.48-11.32l-.39-.23L92,117.06c-.17-.1-.33-.21-.49-.32l-.14-.09-.65-.43-.63-.43-.68-.48-.14-.1-.43-.3-1.13-.84-.34-.27-.14-.11-.62-.48q-.85,5.67-1.58,11l.62.46.79.57.13.09.8.55.15.11.79.53.15.09c.27.18.54.36.82.53l.19.12,1,.63.24.14,1,.58ZM41.11,98.62l.51,1.43.11.31c.18.48.35,1,.53,1.42l.13.34.53,1.38.16.38.53,1.32.2.47.51,1.2.3.66c.14.34.29.67.44,1,.08.17.16.34.23.51l.2.44.33.7c.13.26.26.53.38.8l.2.4.21.43c.19.39.39.78.59,1.17l.12.26.12-.45,2.25-8.9c-.64-1.24-1.27-2.5-1.88-3.78s-1.33-2.89-2-4.37l-3.66-.37c-.39,1-.77,2-1.15,3Zm24.18,3.28c1,1.65,2,3.26,3.1,4.81l.14.2c.25.37.5.72.76,1.07l.22.31.74,1,.25.33.75,1,.21.27c.21.27.42.53.64.79.53-3.54,1.13-7.4,1.8-11.4C73,99.14,72.2,98,71.39,96.83h-.73c-1.22,0-2.47,0-3.7,0h-.33C66.19,98.45,65.75,100.14,65.29,101.9ZM94.68,101c.06-.75.13-1.5.19-2.24l.09-.95s.16-1.73.2-2.12c-1.79.19-3.66.35-5.59.5l.29.3.34.36.25.26.73.73.95.9.25.23.73.67.27.24.72.63.3.26Z"/><path class="cls-3" d="M236.58,78.78a5.45,5.45,0,0,0-5.38-5.54l-57.79-.86a1.54,1.54,0,0,0-1.57,1.52l0,2.3-54.33-.81c-1.09-2.35-4.12-3.5-5.28-3.93a57.57,57.57,0,0,0-10.78-2.58,232.75,232.75,0,0,0-34.13-2.34A259.31,259.31,0,0,0,38,68c-2.42.26-4.72.56-6.85.91a53,53,0,0,0-11,2.75c-1.5.6-6,2.43-5.87,6.78a5.82,5.82,0,0,0,.69,2.52c1.39,2.63,4.54,3.94,5.75,4.44l.31.13a135.11,135.11,0,0,0,5.5,25.38h0l.2.61h0v0h0a134.65,134.65,0,0,0,17.18,34.94h0l.53.76.16.23,2,2.81,0-.06a109.28,109.28,0,0,0,21.58,22v0l1,.73h0l2.24,1.63v0c9.48,6.5,19,10.17,26.88,10.4l1.69.05v-.09a19.64,19.64,0,0,0,6.34-1.2,14.73,14.73,0,0,0,5-3.12c2.64-2.49,4.4-6,5.35-10.64h0l.24-1.46a77.37,77.37,0,0,0,.38-16c-.15-2.59-.36-5.29-.6-8.08h0l-.08-.92c0-.38-.07-.76-.1-1.14,0-.18,0-.37,0-.55l-.1-1.09h0c-.1-1.1-.21-2.22-.32-3.34l0-.41c-.53-5.56-1.07-11.3-1.49-17.06l-.13-1.94c-.57-7.88-.91-16-1-24.1V92.71h0c0-2.1,0-4.18,0-6.23l.15-.07c1.44-.59,4.34-2,5.23-4.67l53.12.79,0,2.27h0a1.49,1.49,0,0,0,.11.6,1.63,1.63,0,0,0,.33.49,1.18,1.18,0,0,0,.21.18,1.23,1.23,0,0,0,.25.14l0,0h0a1.45,1.45,0,0,0,.59.13l57.8.86a4.47,4.47,0,0,0,.73,0,6.37,6.37,0,0,0,1.4-.34,5.54,5.54,0,0,0,3-2.87.42.42,0,0,1,0-.1,5.5,5.5,0,0,0,.43-2ZM109.72,100.05s0,.08,0,.12c0,1.57.1,3.13.16,4.69l0,.65c.06,1.5.13,3,.21,4.49,0,.32,0,.64.05,1,.08,1.47.16,2.93.26,4.38a1.85,1.85,0,0,1,0,.23l-.1,0-.56-.16-.76-.24-.43-.14c-.36-.12-.73-.24-1.1-.38l-.46-.17-.75-.29-.49-.18-1-.43-.57-.25-.59-.26-.59-.28,0,0q.09-1.49.21-3c.4-6,.93-12.08,1.57-18.11a52.44,52.44,0,0,0,4.84,3.25c0,.22,0,.43,0,.65C109.64,97,109.68,98.54,109.72,100.05Zm-.57,19,1.57.44c.44,6,1,12,1.55,17.74.09,1.11.2,2.21.31,3.3l-1.35-.09-.48,0-1.08-.12-.65-.08-1-.13-.64-.1-1.28-.23-.69-.14-1.07-.23-.66-.16-1-.24-.59-.16-.22-.06c.16-6.59.36-12.38.61-17.71.06-1.47.14-2.91.21-4.32A57.08,57.08,0,0,0,109,119Zm-38,38.16c0,.28-.1.55-.14.83s-.07.39-.1.58c-.07.39-.14.77-.2,1.15s-.11.58-.16.87l-.09.5c-.47,2.56-1,4.9-1.45,7.09a108.65,108.65,0,0,1-21.1-22.36c.95-3,1.91-6.19,2.95-9.9v0l0-.09.14.18.58.74.68.85.6.72.69.84.6.7c.24.29.49.56.73.85l.58.66.86.95c.25.27.5.55.76.82s.66.71,1,1.06l.64.66.72.73.7.69.69.68.72.68.68.65L63,149l.7.63.74.66.75.64L66.49,152l.79.65.74.59.77.6.74.56c.26.21.52.4.79.6l.72.53.34.25h0l0,.16C71.29,156.4,71.22,156.8,71.16,157.2ZM98,148.45c0,1.14,0,2.27-.07,3.39-.09,4.34-.18,8.54-.33,12.64a72.87,72.87,0,0,1-22.21-10.37c1-6.31,1.87-12.91,2.79-19.87.14-1.12.29-2.25.44-3.39a66.55,66.55,0,0,0,19.52,10.61c0,.39,0,.77,0,1.15C98.09,144.58,98.05,146.54,98,148.45Zm-27.31,2.23-.13-.1a99.1,99.1,0,0,1-18.46-19.22c1.39-5.21,2.76-10.62,4.19-16.32q.91-3.57,1.84-7.28a88.06,88.06,0,0,0,17.12,20.32.45.45,0,0,1,0,.11c-.25,1.86-.49,3.71-.74,5.55C73.69,140,72.9,146,72,151.69l-.1-.07ZM97.8,137.39l-.23-.08-1.22-.47-.16-.07q-2.82-1.14-5.57-2.58l-.08-.05c-.42-.22-.84-.44-1.25-.67l-.22-.13L88,132.7l-.25-.15c-.38-.22-.75-.45-1.12-.68l-.21-.13c-1.34-.84-2.65-1.74-4-2.69L82.3,129l-1.18-.88L81,128c-.4-.3-.8-.62-1.19-.93l-.07-.06-.5-.41c1-7.19,2.14-15.49,3.6-24.21a63.11,63.11,0,0,0,15.19,12l.08,0,1,.58h0c-.39,6.78-.67,13.89-.88,22.61Zm.29-27.3-.18-.11-1-.63-.28-.18-.91-.61-.29-.19-.94-.67-.22-.15c-.77-.56-1.53-1.14-2.28-1.75l-.25-.2-.85-.7-.33-.28-.78-.68-.32-.29c-.27-.24-.54-.48-.8-.73l-.27-.25c-.34-.32-.69-.65-1-1h0c-.72-.72-1.44-1.45-2.14-2.22l-.12-.12c-.31-.33-.62-.67-.92-1L84,98.17l-.42-.48c.28-1.58.57-3.19.87-4.79L84.85,91c6.05-.33,11.62-.87,16.42-1.62-.74,6.66-1.33,13.41-1.79,20.07,0,.47-.06.92-.09,1.38ZM56.88,97.85l-.05-.11c-.26-.51-.51-1-.75-1.55-.83-1.75-1.6-3.52-2.33-5.31,1.62.1,3.26.18,4.92.25C58.09,93.29,57.49,95.52,56.88,97.85ZM81,91.2c-.06.34-.13.67-.19,1-.1.51-.19,1-.28,1.52l0,.15c-.64-.85-1.26-1.72-1.86-2.6ZM37.4,92.66l1.21-3.21c3.45.46,7.15.84,11,1.15q1.41,3.65,3.07,7.17c.87,1.83,1.8,3.65,2.77,5.42-1,3.72-1.88,7.38-2.78,10.93-1.16,4.6-2.27,9-3.38,13.26-.33-.5-.66-1-1-1.49A118,118,0,0,1,35.27,98.3Q36.33,95.53,37.4,92.66Zm25.09-1.39c1.5,0,3,.08,4.54.1q3.68,0,7.25,0a76.6,76.6,0,0,0,5.38,7.38h0c-1.53,8.89-2.77,17.4-3.79,24.88a86.18,86.18,0,0,1-16.42-21C60.51,98.63,61.51,94.85,62.49,91.27ZM34.85,88.9c-.31.82-.62,1.64-.92,2.46v0c-.13.36-.27.71-.4,1.07-.36-1.31-.69-2.63-1-4C33.27,88.64,34.05,88.77,34.85,88.9Zm-1.69,14.94v0l0-.14a120.35,120.35,0,0,0,12,24.18c.91,1.4,1.86,2.81,2.83,4.18-1,3.71-1.93,6.93-2.82,9.85A131.44,131.44,0,0,1,30.36,111C31.32,108.58,32.27,106.16,33.16,103.84Zm39.11,66.8c.42-1.8.84-3.69,1.24-5.71,0-.09,0-.18,0-.28.08-.41.16-.82.24-1.25,0-.18.07-.37.11-.56s.11-.57.16-.85l.15-.81c0-.09,0-.19,0-.29.15-.88.31-1.77.47-2.7h0v-.06l.44.28.62.4.93.58.6.37,1.06.62.47.28,1.48.83.6.32.94.5.68.34.86.44.71.34.85.4.72.33.88.38.67.3,1.09.45.77.3c.4.16.8.32,1.21.46l.68.25.89.31.73.25.84.27.76.24.82.24.77.22.82.23.77.2h0c-.22,4.93-.51,9.08-.88,12.8C89.47,180.38,80.76,176.66,72.27,170.64Zm29-5.3c0-.16,0-.31,0-.47s0-.28,0-.41c.18-5.14.29-10.4.4-15.93,0-1.94.07-3.93.12-5.92h0v-.06l.12,0a52.7,52.7,0,0,0,10.94,1.66c.73,8.44,1.22,16,.49,22.13A53,53,0,0,1,101.3,165.34Zm5.37-76.94c1-.22,2-.45,2.85-.7,0,.91,0,1.83,0,2.75C108.57,89.81,107.61,89.12,106.67,88.4Zm-78.15-.69q1.2,5.31,2.83,10.48c-.84,2.22-1.76,4.64-2.73,7.12a132,132,0,0,1-3.79-18.52C26,87.11,27.19,87.42,28.52,87.71Zm80.17,90.16a13,13,0,0,1-8.36,3.28c.35-3.54.62-7.45.83-12h0v0a57,57,0,0,0,11.59,1A15.27,15.27,0,0,1,108.69,177.87Z"/><path class="cls-4" d="M217.16,83.19,107.81,81.56l.09-6.31,109.35,1.63a1,1,0,0,1,.94,1l-.06,4.4A1,1,0,0,1,217.16,83.19Z"/><path class="cls-5" d="M116,136.87c-.59-6.19-1.19-12.6-1.64-19-.55-7.88-.91-16-1-24.11-.06-3.55-.08-7-.08-10.43l-3.7,0c0,3.43,0,6.94.08,10.53.12,8.18.48,16.36,1,24.31.45,6.44,1,12.87,1.63,19.09.18,1.82.34,3.62.5,5.39.88,9.8,1.52,18.47.44,25.25-.74,4.57-2.21,7.86-4.51,10-2.46,2.33-6,3.44-10.39,3.31-7.69-.22-17.55-4.32-27-11.28a106.45,106.45,0,0,1-23.88-24.82,130.42,130.42,0,0,1-17.23-34.73,131.53,131.53,0,0,1-5.85-28.15l-3.72-.06a136.07,136.07,0,0,0,23.76,65.07A110.48,110.48,0,0,0,69.08,172.9c10.23,7.48,20.57,11.74,29.12,12a20.79,20.79,0,0,0,8-1.21,14.73,14.73,0,0,0,5-3.12c2.92-2.76,4.76-6.73,5.63-12.13,1.13-7.21.49-16.11-.4-26.17C116.3,140.5,116.12,138.69,116,136.87Z"/><path class="cls-5" d="M99.9,185l-1.7,0c-8.55-.24-18.89-4.49-29.12-12l-1-.74.3-1.2c1.13-4.59,2.15-9.78,3.19-16.29l.47-2.93,2.42,1.7A71.91,71.91,0,0,0,99.81,165l1.5.35-.06,1.53c-.26,6.53-.63,11.73-1.15,16.37ZM72.27,170.66c8.49,6,17.2,9.75,24.33,10.43.38-3.73.67-7.88.88-12.82a75.11,75.11,0,0,1-22.73-10.14C74,162.92,73.15,167,72.27,170.66Z"/><path class="cls-5" d="M71.31,174.55l-2.23-1.63a110.14,110.14,0,0,1-24.73-25.69l-.54-.76.29-.88c1.33-4.08,2.66-8.65,4.2-14.34l1-3.75,2.28,3.15a97.57,97.57,0,0,0,22.86,22.81l1,.67-.19,1.14c-1.06,6.63-2.08,11.91-3.25,16.61ZM47.92,145.87A108,108,0,0,0,69,168.24c.82-3.63,1.59-7.66,2.36-12.42a100.34,100.34,0,0,1-20.5-19.95C49.84,139.63,48.88,142.88,47.92,145.87Z"/><path class="cls-5" d="M46.49,150.27l-2.13-3a134.38,134.38,0,0,1-17.72-35.72l-.21-.64.25-.62c1.75-4.37,3.46-8.85,4.89-12.66l1.88-5,1.62,5.06a118.59,118.59,0,0,0,13.28,28.2h0c1,1.6,2.13,3.2,3.25,4.74l.52.72-.22.86C50.34,138,49,142.6,47.64,146.75ZM30.36,111a131.61,131.61,0,0,0,14.89,31c.9-2.93,1.82-6.16,2.82-9.88-1-1.37-1.93-2.78-2.84-4.18a120.1,120.1,0,0,1-12-24.21C32.31,106.07,31.34,108.55,30.36,111Z"/><path class="cls-5" d="M116.63,169.9l-1.48.1A57.2,57.2,0,0,1,99,168.63l-1.5-.34.05-1.54c.24-5.86.36-11.9.48-18.3,0-2.73.11-5.55.18-8.38l0-2.45,2.35.73a49.62,49.62,0,0,0,14,2.25h1.68l.15,1.67c.9,10.06,1.55,19,.4,26.17Zm-15.32-4.56a52.92,52.92,0,0,0,12.09,1c.73-6.15.25-13.69-.49-22.13a51.93,51.93,0,0,1-11.06-1.7c0,2-.08,4-.12,6C101.62,154.38,101.51,159.92,101.31,165.34Z"/><path class="cls-5" d="M101.16,169.13l-2.17-.5a75.56,75.56,0,0,1-26.66-12.14l-1-.66.18-1.15c1-6.61,2-13.57,3-20.94.29-2.2.59-4.41.89-6.66l.45-3.34,2.58,2.18a63.48,63.48,0,0,0,22.15,12.43l1.34.4,0,1.4c-.07,2.82-.12,5.64-.18,8.37-.12,6.41-.24,12.47-.48,18.37Zm-25.75-15A73,73,0,0,0,97.63,164.5c.17-5.16.28-10.47.39-16,0-2.29.09-4.64.14-7a66.59,66.59,0,0,1-19.52-10.62q-.23,1.71-.45,3.39C77.27,141.2,76.39,147.81,75.41,154.12Z"/><path class="cls-5" d="M74.77,158.19l-2.43-1.69A101,101,0,0,1,48.6,132.82l-.52-.72.23-.85c1.46-5.44,2.89-11.11,4.4-17.12,1-3.78,1.94-7.69,3-11.65L56.83,98,59.08,102a85.43,85.43,0,0,0,19.36,23.87l.78.66-.13,1c-.3,2.24-.6,4.47-.89,6.67-1,7.38-1.91,14.36-3,21ZM52.12,131.36A97.87,97.87,0,0,0,72,151.69c.87-5.7,1.66-11.67,2.49-17.94.25-1.87.51-3.77.75-5.67a88.36,88.36,0,0,1-17.13-20.33c-.62,2.46-1.23,4.89-1.84,7.27C54.87,120.74,53.51,126.15,52.12,131.36Z"/><path class="cls-5" d="M56.07,96.18a103.73,103.73,0,0,1-5.3-13.63l-3.88,0a107.85,107.85,0,0,0,5.83,15.27c.87,1.83,1.8,3.65,2.77,5.42-1,3.72-1.88,7.38-2.78,10.93-1.16,4.61-2.27,9-3.38,13.27-.34-.5-.66-1-1-1.5A117.54,117.54,0,0,1,35.27,98.3q1-2.77,2.12-5.64,1.89-5,3.87-10.23l-3.95-.05c-1.15,3-2.28,6-3.38,9q-1.18,3.17-2.36,6.24l-.22.6.2.62a121.8,121.8,0,0,0,13.69,29.09c1.07,1.65,2.21,3.31,3.36,4.91L50.88,136l1-3.75c1.47-5.47,2.91-11.17,4.42-17.18,1-3.77,1.94-7.67,3-11.62l.18-.72-.36-.65C58,100.15,57,98.17,56.07,96.18Z"/><path class="cls-5" d="M37.31,82.39q-1.73,4.55-3.38,9c-.14.37-.28.73-.41,1.1q-1.37-5-2.32-10.15l-3.78,0a127.64,127.64,0,0,0,4.13,16.56l1.62,5.05,1.88-5c.78-2,1.56-4.13,2.35-6.25C38.67,89.3,40,85.9,41.27,82.44Z"/><path class="cls-5" d="M116.65,144.31H114.6a52.42,52.42,0,0,1-15.09-2.42l-1.34-.4,0-1.4c.23-10.28.55-18.64,1-26.33l.16-2.81,2.52,1.27a49.62,49.62,0,0,0,11,4l1.33.31.09,1.37c.45,6.39,1.05,12.8,1.64,19,.17,1.83.34,3.63.5,5.41Zm-14.72-5.57a49.12,49.12,0,0,0,10.65,1.79c-.1-1.09-.21-2.2-.31-3.31-.54-5.78-1.11-11.75-1.55-17.74a54.19,54.19,0,0,1-8-2.77C102.4,123.23,102.13,130.34,101.93,138.74Z"/><path class="cls-5" d="M101.85,142.61l-2.34-.73a67.18,67.18,0,0,1-23.45-13.13l-.78-.65.14-1c1.13-8.49,2.56-18.59,4.4-29.18L80.51,94l2.55,3a59.85,59.85,0,0,0,18.83,15.16l1.09.55-.07,1.22c-.46,7.73-.78,15.81-1,26.19Zm-22.63-16a63.94,63.94,0,0,0,19,11c.22-8.72.49-15.83.88-22.62a62.74,62.74,0,0,1-16.32-12.6C81.36,111.07,80.2,119.37,79.22,126.57Z"/><path class="cls-5" d="M114.5,120.37l-2.44-.56a53.24,53.24,0,0,1-11.83-4.3L99.14,115l.08-1.22c.08-1.39.17-2.82.27-4.27.49-7.18,1.15-14.45,2-21.62l.39-3.47,2.66,2.27a49.19,49.19,0,0,0,7.86,5.53l.93.53v1.06c.13,8.12.47,16.22,1,24.1ZM103,112.73a50.17,50.17,0,0,0,7.47,2.83c-.44-6.79-.72-13.74-.85-20.69a54,54,0,0,1-4.85-3.25c-.63,6-1.16,12.1-1.57,18.11C103.11,110.74,103,111.74,103,112.73Z"/><path class="cls-5" d="M100.8,83.18l-5.07-.07a58,58,0,0,0,5.6,5.7c-.76,6.85-1.38,13.8-1.85,20.66l-.09,1.39A60.74,60.74,0,0,1,83.62,97.7c.28-1.58.57-3.19.87-4.8q.93-5,2-9.9l-3.78,0C82,86,81.43,89.11,80.84,92.21c-.36,1.91-.7,3.83-1,5.7l-.16.85.56.66a63.46,63.46,0,0,0,20,16.08l2.52,1.26.16-2.8c.09-1.36.18-2.79.28-4.24.48-7.13,1.13-14.35,1.94-21.46l.11-1-.75-.63C103.2,85.55,102,84.4,100.8,83.18Z"/><path class="cls-6" d="M102,83.2l-.12,1c-.36-.35-.71-.71-1-1.07l-5.07-.07a57.6,57.6,0,0,0,6.34,6.35l2.66,2.27.39-3.47c.19-1.67.38-3.35.59-5Z"/><path class="cls-2" d="M231,87.22l-57.8-.86a1.55,1.55,0,0,1-1.52-1.57l.16-10.89a1.55,1.55,0,0,1,1.57-1.52l57.79.86a5.45,5.45,0,0,1,5.38,5.54l0,3A5.48,5.48,0,0,1,231,87.22Z"/><path class="cls-4" d="M231,87.22l-57.8-.86a1.47,1.47,0,0,1-.6-.14,1.83,1.83,0,0,1-.49-.33,1.86,1.86,0,0,1-.32-.5,1.34,1.34,0,0,1-.11-.6l0-1.64,64.82-1.31a5.42,5.42,0,0,1-.46,2.13,5.53,5.53,0,0,1-1.19,1.72,5.73,5.73,0,0,1-1.76,1.14A5.63,5.63,0,0,1,231,87.22Z"/><ellipse class="cls-7" cx="66.7" cy="77.29" rx="7.69" ry="46.93" transform="translate(-11.57 142.82) rotate(-89.15)"/><path class="cls-2" d="M113.36,86.38l-.37.15a53.48,53.48,0,0,1-11,2.75A214.22,214.22,0,0,1,67,91.35a217.11,217.11,0,0,1-35.13-3,58.48,58.48,0,0,1-11.28-3c-1.55-.65-6.25-2.6-6.43-6.95s4.37-6.18,5.87-6.78A53,53,0,0,1,31.1,68.87c9.31-1.51,21.72-2.24,34.92-2.08a218,218,0,0,1,35.13,3,57.38,57.38,0,0,1,11.29,3c1.54.64,6.25,2.6,6.42,7C119,83.78,115.12,85.66,113.36,86.38ZM23.74,78.52A63,63,0,0,0,35.5,81.28a223.87,223.87,0,0,0,31.21,2.38,219.46,219.46,0,0,0,31.05-1.59,59.19,59.19,0,0,0,11.54-2.46,62.74,62.74,0,0,0-11.76-2.76,225.29,225.29,0,0,0-31.21-2.38,219.46,219.46,0,0,0-31,1.59A60.17,60.17,0,0,0,23.74,78.52Z"/><path class="cls-2" d="M111.92,83.33l-.38.13A62.15,62.15,0,0,1,100.48,86,238.9,238.9,0,0,1,66.1,88,232.75,232.75,0,0,1,32,85.69a57.57,57.57,0,0,1-10.78-2.58c-1.45-.55-5.89-2.22-5.68-6s4.83-5.44,6.34-6a61.6,61.6,0,0,1,11.06-2.49,237.42,237.42,0,0,1,34.38-2.08,234.15,234.15,0,0,1,34.13,2.34,57.57,57.57,0,0,1,10.78,2.58c1.46.55,5.89,2.22,5.68,6C117.69,81,113.7,82.68,111.92,83.33ZM24.85,77.12a64.13,64.13,0,0,0,11.27,2.33,238.23,238.23,0,0,0,30.35,1.86A246.8,246.8,0,0,0,97,79.69a69.09,69.09,0,0,0,11.51-2.24,64.17,64.17,0,0,0-11.26-2.33,238.35,238.35,0,0,0-30.35-1.86,246.69,246.69,0,0,0-30.54,1.62A68.67,68.67,0,0,0,24.85,77.12Z"/><path class="cls-5" d="M61,82.69c-1.35,4.69-2.72,9.67-4.16,15.16-.27-.55-.54-1.1-.8-1.66a102.83,102.83,0,0,1-5.29-13.63l-3.88,0a107.11,107.11,0,0,0,5.83,15.27c1,2,2,4.1,3.12,6.07l2.26,4.05,1.16-4.49c2-7.75,3.81-14.46,5.61-20.67Z"/><path class="cls-5" d="M82.67,83C82,86,81.43,89.12,80.84,92.22c-.1.55-.21,1.11-.31,1.66a77.56,77.56,0,0,1-6.87-11l-4.16,0A79,79,0,0,0,80.21,99.43l2.56,3,.68-3.91c.33-1.86.67-3.77,1-5.65.62-3.32,1.27-6.62,2-9.91Z"/><path class="cls-2" d="M118.85,79.46l-10.36-.12c.29.1.57.19.82.29a61,61,0,0,1-11.54,2.46,221,221,0,0,1-31,1.59A225.41,225.41,0,0,1,35.51,81.3a64.88,64.88,0,0,1-11.76-2.76l.71-.24-10.27-.12v.24c.18,4.34,4.88,6.3,6.43,6.94a57.67,57.67,0,0,0,11.28,3,219.4,219.4,0,0,0,35.13,3A214.22,214.22,0,0,0,102,89.3a53.65,53.65,0,0,0,11-2.75l.37-.15c1.76-.73,5.67-2.6,5.5-6.63C118.86,79.65,118.85,79.55,118.85,79.46Z"/><path class="cls-2" d="M100.25,79.23c-1,.15-2.06.31-3.23.45A244.76,244.76,0,0,1,66.48,81.3a240.36,240.36,0,0,1-30.35-1.85c-2.64-.36-4.8-.74-6.54-1.11l-14-.17c.58,3,4.29,4.44,5.6,4.94A57.89,57.89,0,0,0,32,85.68,232.9,232.9,0,0,0,66.11,88,237.55,237.55,0,0,0,100.49,86a61.46,61.46,0,0,0,11.05-2.49l.38-.14c1.41-.51,4.21-1.67,5.42-3.88Z"/></svg>