<svg id="Layer_54" data-name="Layer 54" xmlns="http://www.w3.org/2000/svg" viewBox="0 0 512 256"><defs><style>.cls-1{opacity:0.5;}.cls-2,.cls-28{fill:#fff;}.cls-3{fill:#01574e;}.cls-4{fill:#02584e;}.cls-5{fill:#02584f;}.cls-6{fill:#045b52;}.cls-7{fill:#055d55;}.cls-8{fill:#086059;}.cls-9{fill:#00479b;}.cls-10{fill:#fdfefe;}.cls-11{fill:#fcfefe;}.cls-12{fill:#f2fcfe;}.cls-13{fill:#f5fcfe;}.cls-14{fill:#f4fcfe;}.cls-15{fill:#f7fdfe;}.cls-16{fill:#f6fcfe;}.cls-17{fill:#f3fcfe;}.cls-18{fill:#c8f4fe;}.cls-19{fill:#d3f6fe;}.cls-20{fill:#ccf4fe;}.cls-21{fill:#b8f1fe;}.cls-22{fill:#a2edfe;}.cls-23{fill:#c5f3fe;}.cls-24{fill:#caf4fe;}.cls-25{fill:#daf7fe;}.cls-26{fill:#cff5fe;}.cls-27{fill:#7fe6fe;}.cls-28{stroke:#bababa;stroke-miterlimit:10;stroke-width:2px;}.cls-29{fill:#efeded;}</style></defs><path class="cls-1" d="M239.45,198a31.06,31.06,0,0,1-15.54-9.59,53.74,53.74,0,0,1-23.16,5.44A52.89,52.89,0,0,1,187.13,192a23.17,23.17,0,0,1-11-6.32,13,13,0,0,1-1.76-1.65,53.77,53.77,0,0,1-15.72,4c-1.88.13-3.74.2-5.53.2-14.31,0-26-4-35.88-12.32a26,26,0,0,1-6-32c6.28-11.67,15.64-18.53,27.81-20.41a38,38,0,0,1,5.67-.43,39.11,39.11,0,0,1,4.43.26c.14-.31.28-.59.4-.83,3.17-6.48,7.59-7.84,10.75-7.84.31,0,.62,0,.93,0,5.71-11.46,15.94-19.32,30.49-23.39a26,26,0,0,1,7-1A28.64,28.64,0,0,1,210,92.67a17.56,17.56,0,0,1,6.62,4.54,19.08,19.08,0,0,1,3.9,4.9,12.12,12.12,0,0,1,2.6-.46,25.71,25.71,0,0,1,14-18.85,27.49,27.49,0,0,1,12.6-3.22A24.73,24.73,0,0,1,259.9,81.8a37.21,37.21,0,0,1,11-13.85,27.08,27.08,0,0,1,15.18-6q.92-.06,1.8-.06c9.65,0,17,5.43,20.83,15.29a43.64,43.64,0,0,1,2.68,12.73,14.63,14.63,0,0,1,5.22,3.54,18.93,18.93,0,0,1,2.86,3,21.09,21.09,0,0,1,2-1.6,28.65,28.65,0,0,1,15.15-6.4,43.94,43.94,0,0,1,5.68-.38,40.11,40.11,0,0,1,24.6,8.41,26.43,26.43,0,0,1,6.07,5.52A25.84,25.84,0,0,1,377,107.3a42.41,42.41,0,0,1,10.42,1.45c10.34,2.86,17.19,10,19.95,20.8a31.51,31.51,0,0,1,1.5,7.58,36,36,0,0,1-1.21,7.44c-.05.34-.11.77-.21,1.24-1.82,8.05-6.3,14.81-13.7,20.68-7.83,6.21-17.16,10.7-29.37,14.13-12.45,3.49-22.74,5.12-32.39,5.12h0c-1.21,0-2.44,0-3.64-.08a65.76,65.76,0,0,1-17-2.89c-6.65,7.15-14.35,11.54-22.93,13.07a35.6,35.6,0,0,1-6.34.58,30.58,30.58,0,0,1-16.41-4.65,31,31,0,0,1-13.06,6.56,60.09,60.09,0,0,1-6.77.8A57.38,57.38,0,0,1,239.45,198Z"/><path class="cls-2" d="M234.45,193a31.06,31.06,0,0,1-15.54-9.59,53.74,53.74,0,0,1-23.16,5.44A52.89,52.89,0,0,1,182.13,187a23.17,23.17,0,0,1-11-6.32,13,13,0,0,1-1.76-1.65,53.77,53.77,0,0,1-15.72,4c-1.88.13-3.74.2-5.53.2-14.31,0-26-4-35.88-12.32a26,26,0,0,1-6-32c6.28-11.67,15.64-18.53,27.81-20.41a38,38,0,0,1,5.67-.43,39.11,39.11,0,0,1,4.43.26c.14-.31.28-.59.4-.83,3.17-6.48,7.59-7.84,10.75-7.84.31,0,.62,0,.93,0,5.71-11.46,15.94-19.32,30.49-23.39a26,26,0,0,1,7-1A28.64,28.64,0,0,1,205,87.67a17.56,17.56,0,0,1,6.62,4.54,19.08,19.08,0,0,1,3.9,4.9,12.12,12.12,0,0,1,2.6-.46,25.71,25.71,0,0,1,14-18.85,27.49,27.49,0,0,1,12.6-3.22A24.73,24.73,0,0,1,254.9,76.8a37.21,37.21,0,0,1,11-13.85,27.08,27.08,0,0,1,15.18-6q.92-.06,1.8-.06c9.65,0,17,5.43,20.83,15.29a43.64,43.64,0,0,1,2.68,12.73,14.63,14.63,0,0,1,5.22,3.54,18.93,18.93,0,0,1,2.86,3,21.09,21.09,0,0,1,2-1.6,28.65,28.65,0,0,1,15.15-6.4,43.94,43.94,0,0,1,5.68-.38,40.11,40.11,0,0,1,24.6,8.41A26.43,26.43,0,0,1,367.91,97,25.84,25.84,0,0,1,372,102.3a42.41,42.41,0,0,1,10.42,1.45c10.34,2.86,17.19,10,19.95,20.8a57.38,57.38,0,0,1,1.5,7.58,55.28,55.28,0,0,1-1.21,7.44c-.05.34-.11.77-.21,1.24-1.82,8.05-6.3,14.81-13.7,20.68-7.83,6.21-17.16,10.7-29.37,14.13-12.45,3.49-22.74,5.12-32.39,5.12h0c-1.21,0-2.44,0-3.64-.08a65.76,65.76,0,0,1-17-2.89c-6.65,7.15-14.35,11.54-22.93,13.07a35.6,35.6,0,0,1-6.34.58,30.58,30.58,0,0,1-16.41-4.65,31,31,0,0,1-13.06,6.56,60.09,60.09,0,0,1-6.77.8A57.38,57.38,0,0,1,234.45,193Z"/><path class="cls-3" d="M396.62,139.48c-1.63,7.26-5.82,12.75-11.56,17.31-8.11,6.43-17.42,10.28-27.27,13.05-11.17,3.13-22.47,5.34-34.15,4.83A58.06,58.06,0,0,1,306,171.29a1.86,1.86,0,0,0-2.5.73c-5.6,6.6-12.4,11.37-21.08,12.92A25.46,25.46,0,0,1,261.5,180c-1-.79-1.5-.79-2.42.14a25.43,25.43,0,0,1-14.19,7.62,14.49,14.49,0,0,1-1.51.22,22.4,22.4,0,0,1-2.84,0,25.32,25.32,0,0,1-2.51-.35,25.72,25.72,0,0,1-16.64-10.79c-.66-.94-1.07-1-2.07-.42-11.26,6.15-23.13,8.1-35.64,4.75a17.09,17.09,0,0,1-8.57-5c-.06-.39.17-.5.49-.54,1.83.67,3.19,2.1,4.94,2.93a30.29,30.29,0,0,0,12.55,2.92,50.07,50.07,0,0,0,21.65-4,42.14,42.14,0,0,0,4.16-2.18c1.85-1.09,2.08-1.07,3.38.7a25.16,25.16,0,0,0,6.76,6.69c10.09,6.33,19.94,5.21,28.71-2.89,2.34-2.16,2.32-2.19,5-.36,8.6,5.9,17.61,6.1,26.89,1.85a34.34,34.34,0,0,0,12.95-10.14c1.06-1.36,2.11-1.55,3.75-1a65.56,65.56,0,0,0,26.33,3.16,135.45,135.45,0,0,0,28.44-5.72c10-3,19.24-7.67,26.86-15a26.66,26.66,0,0,0,7.92-16.41,25.9,25.9,0,0,0-1.41-12.74c-3.19-8.23-9.47-12.44-18.08-13.48a39.08,39.08,0,0,0-6.48-.38,3,3,0,0,1-3.17-1.92c-1-2.19-2.92-3.81-3.82-6.07.06-.31.19-.55.58-.45a20.19,20.19,0,0,1,4.11,5.62,2.75,2.75,0,0,0,2.88,1.56,38,38,0,0,1,10.35,1.24c9.52,2.64,14.46,9.29,16.21,18.68a24.34,24.34,0,0,1,.39,2.5c.05,1.24,0,2.39,0,4C397.45,135.28,396.85,138.48,396.62,139.48Z"/><path class="cls-4" d="M175.52,175.8l-.41.38a7.77,7.77,0,0,1-2.59-3.16c-.59-1.27-1.27-1.22-2.39-.77-5.47,2.21-11,4.35-16.94,4.76-13.63,1-26.38-1.67-37.12-10.72a19.9,19.9,0,0,1-4.59-24.6c5-9.37,12.59-15.65,23.43-17.32a33.72,33.72,0,0,1,11.85.38c1.26.26,1.89.19,2-1.28a9.5,9.5,0,0,1,1.13-3.39c2.35-4.8,5.39-5.69,9.65-2.94,4.76-13.87,15.25-21.33,28.76-25.11a21.41,21.41,0,0,1,14.32,1.16,11.47,11.47,0,0,1,4.68,3.24c.07.38-.16.5-.47.54a4.23,4.23,0,0,1-1.87-1,19,19,0,0,0-13.24-3.07c-11.17,1.2-19.58,7.2-26.5,15.58a20.15,20.15,0,0,0-4.22,9.08c-.4,2-.87,2.15-2.4.8-2.52-2.22-4.46-2.06-6.51.62a11.27,11.27,0,0,0-2.12,4.73c-.52,2.77-.6,2.78-3.46,2.31-5.84-1-11.67-1.11-17.27,1.11a30,30,0,0,0-17.57,17.42c-3.2,8.19-.47,17,7.61,22.81,7,5.06,15,7.2,23.38,8.39,8.9,1.27,17.22-.83,25.41-4l2-.8c2-.74,2.4-.66,3.32,1.17C174,173.4,175.37,174.26,175.52,175.8Z"/><path class="cls-5" d="M206.87,96.82l.42-.39c2.55,2.12,3.83,5,4.85,8,.31.91.44,1.36,1.45.47,3-2.61,6.24-3.19,9.9-.89-.15-9.18,3-16.64,11.32-20.91s16.13-3.19,23.36,2.75a31.3,31.3,0,0,1,11.41-18.24,21.12,21.12,0,0,1,11.87-4.73c7.81-.54,13.55,3.43,16.61,11.39a40.17,40.17,0,0,1,2.42,13.93c0,1.17.21,1.63,1.51,1.74a8.24,8.24,0,0,1,5.45,2.83c.09.38-.14.5-.44.56a4.34,4.34,0,0,1-1.93-.93,8.23,8.23,0,0,0-3.17-1.25c-2.44-.37-2.36-.37-2.55-2.71-.43-5.39-.88-10.74-3.37-15.74-4.22-8.51-12.46-10.51-20.29-7.14-8.43,3.62-13.36,10.33-15.86,19-.1.34-.17.7-.25,1-.53,2.21-1,2.37-2.66.93a19.43,19.43,0,0,0-30.72,8,19.14,19.14,0,0,0-1.25,9.9c.1.59.26,1.29-.34,1.65s-1-.23-1.4-.54c-3.28-2.42-6-2.41-9,.57-1.67,1.66-2.39,1.41-3.08-.9a20,20,0,0,0-3.62-7C207.16,97.83,206.75,97.44,206.87,96.82Z"/><path class="cls-6" d="M320.08,94.62a22.58,22.58,0,0,1,12.25-5.2,34.29,34.29,0,0,1,26.08,7c.07.38-.17.5-.48.57a4.85,4.85,0,0,1-2.25-1.07c-7.38-4.55-15.32-6.54-24-5.13a23.29,23.29,0,0,0-9,3.42,4,4,0,0,1-2.1,1C320.25,95.13,320,95,320.08,94.62Z"/><path class="cls-7" d="M320.08,94.62l.43.4c.11.63-.31,1-.71,1.36a22.82,22.82,0,0,0-5.31,7.16c-.28.57-.5,1.38-1.3,1.31s-.8-.95-1-1.55a23.58,23.58,0,0,0-4.64-8.83c-.32-.35-.67-.71-.53-1.26l.41-.4c3.13,2.52,4.46,6.13,5.92,9.92C315.21,99.56,317.12,96.64,320.08,94.62Z"/><path class="cls-8" d="M358,96.83l.44-.4a21.43,21.43,0,0,1,5.1,4.68l-.42.42a.87.87,0,0,1-.95-.3C360.84,99.67,358.84,98.78,358,96.83Z"/><path class="cls-9" d="M358,96.83l5.12,4.7a36.38,36.38,0,0,1,4.35,6.39c.58,1.25,1.64,1.07,2.61,1.08a38.58,38.58,0,0,1,11.41,1.52A21.41,21.41,0,0,1,396.4,129c1.28,12.3-3.8,21.48-13.6,28.54-8,5.75-16.92,9.29-26.33,11.86-10.66,2.91-21.45,5-32.57,4.51a56.93,56.93,0,0,1-18.16-3.55,1.85,1.85,0,0,0-2.52.76c-5.48,6.65-12.22,11.45-20.82,13-7.79,1.42-15-.18-21.15-5.35-1-.81-1.35-.61-2.09.17-3.92,4.1-8.53,7.13-14.22,8-7,1-13.17-1.25-18.56-5.7a21.26,21.26,0,0,1-4.54-5.11c-.73-1.18-1.23-1.4-2.58-.61a46.62,46.62,0,0,1-32.7,5.66,23,23,0,0,1-11-5.41,17.68,17.68,0,0,1-3-4.27c-.52-1.25-1.3-.49-1.91-.25-5,2-10,4-15.31,4.66-14.3,1.73-27.59-.9-38.89-10.35-7.1-6-8.66-16.29-3.73-24.61s12.05-14.29,22.09-15.82a34.69,34.69,0,0,1,11.85.32c2.38.45,2.35.48,2.81-1.82a11.22,11.22,0,0,1,2.71-5.61c2.29-2.48,4.39-2.51,6.8-.11.34.33.65.69,1.14,1.22a30.56,30.56,0,0,1,1.87-6.25c3.24-6.84,8.65-11.59,15-15.4,4.51-2.7,9.21-4.88,14.62-5.21,5.69-.34,10.88.69,15.28,4.52,2.78,2.89,4.26,6.47,5.41,10.49,1.78-1.9,3.5-3.54,6-3.9s4.46,1,6.27,2.62c-1.06-10,2-18,11.18-22.48,8.21-4,16-2.63,22.75,3.76.5-.27.41-.8.51-1.24,2.07-9.18,7-16.24,15.53-20.51,9.3-4.68,18.34-1.31,22.49,8.2a38.39,38.39,0,0,1,2.75,15.12c0,1.26.18,1.82,1.64,1.79,2.22-.06,3.93,1.29,5.64,2.54,3.13,3.19,4.87,7.15,6.17,12A26.58,26.58,0,0,1,320.51,95c12.25-8,24.24-6.28,36.09.94C357.06,96.24,357.51,96.54,358,96.83Z"/><path class="cls-10" d="M380.6,131.53c-3.44.37-6.7-.4-10-1-1.66-.28-3.33-.57-4.95-1-1-.26-1.31,0-1.53,1a123.61,123.61,0,0,1-3.41,13.24c-.14.41-.08,1-.87,1.16a62.36,62.36,0,0,1,1.18-8.7,45,45,0,0,1,1.13-5.64c.38-1.38.07-1.85-1.35-2.16-3.93-.86-7.82-1.9-11.72-2.89-.75-.19-1.46-.51-2.23-.79.42-.75,1-.43,1.47-.37A114.56,114.56,0,0,1,361,126.63c1.44.33,2.13.1,2.43-1.49a116.28,116.28,0,0,1,3-11.87,6.71,6.71,0,0,1,.9-1.87c.28,3-.53,5.9-1,8.81a39.38,39.38,0,0,1-1.13,5.64c-.47,1.49.22,1.72,1.36,2,3.94.82,7.86,1.75,11.72,2.9C379,131,379.81,131.26,380.6,131.53Z"/><path class="cls-11" d="M346,150.57a3.09,3.09,0,0,1,3,3,2.92,2.92,0,0,1-3,2.77,2.85,2.85,0,0,1-2.93-3A3,3,0,0,1,346,150.57Z"/><path class="cls-11" d="M333.29,129.34a2.84,2.84,0,0,1-3,2.87,2.87,2.87,0,0,1-2.87-2.86,3,3,0,0,1,3.06-2.91A2.94,2.94,0,0,1,333.29,129.34Z"/><path class="cls-11" d="M195.66,172.39a2.91,2.91,0,0,1,0-5.81,2.9,2.9,0,0,1,2.93,3A2.93,2.93,0,0,1,195.66,172.39Z"/><path class="cls-11" d="M146.1,145.14a3,3,0,0,1-3-2.79,3,3,0,0,1,2.9-3,2.93,2.93,0,0,1,3,2.94A3.1,3.1,0,0,1,146.1,145.14Z"/><path class="cls-12" d="M308.21,159.56c-.09-1.48.34-3.37-.41-4.35s-2.82-.17-4.29-.41c-.56-.09-1.2.09-1.78-.56,1.77-.11,3.4-.28,5-.29,1,0,1.38-.33,1.34-1.35a25.46,25.46,0,0,1,.23-4.93,8.45,8.45,0,0,1,.52,4.32c-.08,1.43.29,2.06,1.87,2a49.41,49.41,0,0,1,5.11.27,11.74,11.74,0,0,1-5.2.58c-1.36-.1-1.84.37-1.76,1.7.07,1,0,2-.05,3.05A.36.36,0,0,1,308.21,159.56Z"/><path class="cls-13" d="M208.39,122.3a8.41,8.41,0,0,1,3.61,2.6c.63.65,1,.74,1.69,0a15.28,15.28,0,0,1,3.45-3c-.58,1.63-1.73,2.4-2.65,3.34s-.86,1.38,0,2.19a7.11,7.11,0,0,1,2.31,3,10,10,0,0,1-3-2.52c-.8-.87-1.32-.66-2,0a19.22,19.22,0,0,1-3.15,2.65,9.75,9.75,0,0,1,2.64-3.29c.76-.68.78-1.15,0-1.86C210.27,124.47,209.35,123.36,208.39,122.3Z"/><path class="cls-14" d="M277.61,90.63c.89-1,2.34-2,2.54-3.16s-1.74-1.89-2.34-3.32c1.11.13,1.58,1,2.15,1.56.8.83,1.4,1.05,2.29.05A4.08,4.08,0,0,1,284.91,84a32.11,32.11,0,0,1-2.31,2.49c-.74.65-.64,1.12-.05,1.76a7.63,7.63,0,0,1,2.27,3A25.46,25.46,0,0,1,282.2,89c-.82-.93-1.38-.82-2.12,0a20.08,20.08,0,0,1-1.87,1.69A.45.45,0,0,1,277.61,90.63Z"/><path class="cls-12" d="M211.91,164.47c2-1.62,2.12-3.13-.45-4.74,1.82-.09,2.08,1.43,3,1.5s1.26-1.52,2.56-1.58c-.18,1.16-1.62,1.52-1.6,2.45s1.37,1.26,1.68,2.39c-1.28,0-1.57-1.49-2.47-1.51S213.21,164.3,211.91,164.47Z"/><path class="cls-15" d="M245.22,103.84c-.94-.14-1.6-.63-1.59-1.62a1.62,1.62,0,1,1,3.23.06A1.59,1.59,0,0,1,245.22,103.84Z"/><path class="cls-13" d="M305.32,135.39A1.55,1.55,0,0,1,307,137a1.52,1.52,0,0,1-1.68,1.67,1.45,1.45,0,0,1-1.52-1.62A1.52,1.52,0,0,1,305.32,135.39Z"/><path class="cls-16" d="M192.78,131.27c-.24.95-.64,1.63-1.67,1.6a1.45,1.45,0,0,1-1.57-1.71,1.42,1.42,0,0,1,1.64-1.46C192.17,129.75,192.57,130.47,192.78,131.27Z"/><path class="cls-17" d="M342.31,114.15c-.52-.06-.82-.35-.78-.83a.72.72,0,0,1,.87-.68c.49,0,.8.31.75.81A.76.76,0,0,1,342.31,114.15Z"/><path class="cls-12" d="M241.3,170.39c0,.57-.21.9-.69,1a.71.71,0,0,1-.81-.74.73.73,0,0,1,.68-.88A.71.71,0,0,1,241.3,170.39Z"/><path class="cls-18" d="M319.82,113.31l-2.18,1.77a3.36,3.36,0,0,1,1.78-2C319.69,112.93,319.81,113,319.82,113.31Z"/><path class="cls-18" d="M319.82,113.31l-.4-.26c.14-.8.8-1.07,1.57-1.3Z"/><path class="cls-19" d="M162.46,157.09a.55.55,0,0,1,.28-.07c.25-.12.38-.55.78-.32.81.41-.15,1,.11,1.42a.27.27,0,0,1-.41,0,.67.67,0,0,0-.75-.65.24.24,0,0,1-.09-.25C162.41,157.13,162.43,157.09,162.46,157.09Z"/><path class="cls-20" d="M162.46,157.09v.38c-.58.45-1.21.37-2.25.13Z"/><path class="cls-21" d="M163.22,158.12h.41c.44.58.37,1.22.11,2.27Z"/><path class="cls-22" d="M162.73,155.63c-.38-.46-.37-.95-.07-1.82l.5,1.81C163,155.8,162.88,155.81,162.73,155.63Z"/><path class="cls-23" d="M308.21,159.56h.62c0,.47,0,.94,0,1.41-.39.24-.47-.13-.63-.33Z"/><path class="cls-24" d="M166.68,156.5l-2,.5C165.13,156.27,165.61,156.29,166.68,156.5Z"/><path class="cls-25" d="M277.61,90.63l.6.07a2,2,0,0,1-1.18,1C276.83,91.08,277.29,90.89,277.61,90.63Z"/><path class="cls-26" d="M162.73,155.63h.43l.36,1.08-.78.32C162.73,156.56,162.73,156.09,162.73,155.63Z"/><path class="cls-27" d="M308.19,160.64l.63.33c0,.27,0,.67-.38.55S308.17,161,308.19,160.64Z"/><circle class="cls-28" cx="267.17" cy="131.63" r="31.5"/><path class="cls-29" d="M296.23,123.85c0,.07.11.1.17.14a1,1,0,0,1,.36.46l.45.86.05-.34c0-.09,0-.17,0-.23v0a6.83,6.83,0,0,0-.75-2.73,1.38,1.38,0,0,1-.1-.22,2,2,0,0,1-.06-.23,7.18,7.18,0,0,0-.54-1.35l-1.2-2.48c-.05-.08-.12-.19-.21-.16l-.06.51a2.65,2.65,0,0,0-.5-1,.88.88,0,0,1-.19-.32,1.49,1.49,0,0,0,0-.21.64.64,0,0,0-.14-.27c-.62-.85-1.25-1.7-1.87-2.56a9,9,0,0,0-1.16-1.37,13.35,13.35,0,0,0-1.51-1.41c-.47-.3-1-.49-1.46-.83l.56.72a2.06,2.06,0,0,0,.28.31l.28.19c.24.17.45.37.67.56a1.34,1.34,0,0,1,.27.31c.05.07.08.15.13.23a2.5,2.5,0,0,0,.23.23.33.33,0,0,1,.09.31l-.45-.28a.53.53,0,0,1-.13-.13.58.58,0,0,1,0-.19c-.06-.26-.35-.41-.6-.52l0,.33a.22.22,0,0,1-.17,0,7.41,7.41,0,0,1-1.52-.94,2.31,2.31,0,0,0,1.12.46,4,4,0,0,0-.94-1,1.21,1.21,0,0,1-.47-.73.74.74,0,0,1,.36.12c0-.3-.29-.5-.56-.63l-1.62-.82-1-.53-.8-.41a.4.4,0,0,0-.33,0,7.23,7.23,0,0,0,1.29,1,1.24,1.24,0,0,1,.23.17,1.43,1.43,0,0,1,.2.23c.27.3.7.43.92.76-.32,0-.55-.3-.79-.52a2.16,2.16,0,0,0-.87-.49,1.54,1.54,0,0,1-.3-.11c-.1-.06-.17-.15-.26-.2a1,1,0,0,0-.68-.08h0s0,.06,0,.09l.39.62a1.33,1.33,0,0,0-.56.07.62.62,0,0,1-.55-.07,2,2,0,0,0-1.21-.64,1.45,1.45,0,0,1-1.08-.36.49.49,0,0,0-.18-.17c-.07,0-.15,0-.23,0-.3.07-.56-.19-.81-.37a.49.49,0,0,0-.23-.11.89.89,0,0,0-.23,0,1.09,1.09,0,0,1-.53-.1l-.23.4a.58.58,0,0,1-.14.17,2.4,2.4,0,0,1-.23.11c-.12.06-.2.18-.32.21a.41.41,0,0,1-.19,0,1.67,1.67,0,0,0-1,.22,1,1,0,0,1-.29.13c-.23,0-.48-.1-.7,0,0-.08-.15,0-.21,0a.37.37,0,0,0-.07.23.3.3,0,0,1-.09.23c-.13.09-.29,0-.44-.08a.39.39,0,0,0-.41.1c-.06.06-.12.15-.2.14s-.12-.13-.16-.22-.48-.24-.73-.13a2,2,0,0,1-.76.29.61.61,0,0,1-.41.5c-.07,0-.15,0-.18.11s.06.17.15.2c.3.11.66,0,.94.18a3,3,0,0,1,.32.3.38.38,0,0,0,.41.1c.08,0,.13-.11.21-.16s.21,0,.21.07a.7.7,0,0,1-.37.26v.34h-.53a.62.62,0,0,0-.68-.22.29.29,0,0,0-.19.15,1,1,0,0,1,0,.16c-.11.29-.68.18-.73.48,0,.12.06.25.05.37s-.07.22,0,.28.13,0,.19,0a.94.94,0,0,1,.62,0,2.76,2.76,0,0,1,.83-.22l.05.09a1.35,1.35,0,0,1-.42.37,3.4,3.4,0,0,0-.34.12c-.11.06-.2.19-.15.3a.3.3,0,0,0,.29.14,1.32,1.32,0,0,1,.34,0c.22,0,.33.29.41.5-.08,0-.13-.08-.18-.14a.53.53,0,0,0-.51-.13,1.42,1.42,0,0,0-.78.28.65.65,0,0,0-.2.76c.16.31.57.37.92.37.06.1.09.24,0,.3s-.15,0-.23,0-.23.18-.38.2a.39.39,0,0,1-.22-.09c-.19-.11-.48-.19-.59,0a1,1,0,0,0-.06.16.68.68,0,0,1-.62.46.22.22,0,0,1-.22.17.21.21,0,0,1-.21-.18s0-.09,0-.12-.21,0-.27-.05a.32.32,0,0,1,0-.09c-.06-.16-.28-.14-.45-.12a1.13,1.13,0,0,1-1-.44.64.64,0,0,1-.06-.75,3.36,3.36,0,0,1,.29-.24.3.3,0,0,0,.13-.33.28.28,0,0,0-.09-.13,1.71,1.71,0,0,0-.82-.56,1.14,1.14,0,0,1-.32-.07,1.38,1.38,0,0,1-.31-.28.67.67,0,0,0-.49-.14c-.11.09-.27,0-.4-.11s-.25-.16-.39-.21a1.29,1.29,0,0,0-.9.1,2.32,2.32,0,0,0-1.06.59,1.51,1.51,0,0,0-.18.26,2.53,2.53,0,0,1-.88.9c-.05.21.13.46,0,.65a.47.47,0,0,1-.19.15l-.61.3a1.08,1.08,0,0,0-.43.33.34.34,0,0,0,.06.48c.18.12.44,0,.65,0s.34.55.64.58c.12,0,.27,0,.36,0a.61.61,0,0,1,.07.14.35.35,0,0,0,.42.2c0,.37,0,.81-.3,1-.07,0-.17.12-.11.18a3.66,3.66,0,0,1,1.19,0,.79.79,0,0,0,.34,0c.32-.07.38-.53.68-.69s.82.15,1.12-.09.22-.45.43-.55.16,0,.23-.09a.75.75,0,0,0,.15-.2.93.93,0,0,1,.88-.28,2.39,2.39,0,0,0,1,0,1.46,1.46,0,0,1,.33-.12.39.39,0,0,1,.42.37.36.36,0,0,1-.43.34,1.08,1.08,0,0,1-.34-.23c-.12-.09-.28-.15-.39-.07a.29.29,0,0,1-.49.12s-.05-.11-.09-.16a.35.35,0,0,0-.45,0c-.14.09-.24.23-.37.33s-.15.1-.18.18a.32.32,0,0,0,0,.14l0,.37a.33.33,0,0,0,0,.14.49.49,0,0,0,.14.18,2.24,2.24,0,0,1,.39.69.48.48,0,0,1,.07.26c0,.22-.23.35-.39.5a2,2,0,0,0-.49.81,2.4,2.4,0,0,0,1.56.07,4.06,4.06,0,0,0,1-.77,1.25,1.25,0,0,1,1.11-.35l.11.21a1.15,1.15,0,0,1-.69.64c-.23.08-.49.08-.73.14a1.81,1.81,0,0,0-.95.53l.85,0c.09,0,.18,0,.23.06a.31.31,0,0,1,.05.23,3.17,3.17,0,0,1-.17.69.44.44,0,0,1-.1.19.47.47,0,0,1-.26.08c-.34,0-.77,0-.95-.25s-.1-.54-.31-.69-.35-.08-.47-.21-.08-.18-.16-.24-.3,0-.44,0-.19-.1-.28-.07-.08.08-.12.12c-.18.21-.51.16-.78.1l-.65-.15a1.89,1.89,0,0,0,1.26-.35,1.39,1.39,0,0,1,.12-.71.64.64,0,0,0-.11-.67.62.62,0,0,0-.58,0,1.83,1.83,0,0,1-.59.15c-.24,0-.51-.19-.72-.06l-.12.3c-.07.16-.25.35-.37.23s-.07-.38-.22-.36a.21.21,0,0,0-.1.06c-.23.22-.53.48-.84.36a.62.62,0,0,1-.14.5,3.14,3.14,0,0,1-1,.93l-.37.21c0,.17.22.22.39.2L261,121a2.84,2.84,0,0,0,.57-.1c.26-.08.5-.22.75-.31a1,1,0,0,1,.8,0,1.37,1.37,0,0,1-.92.61c-.14,0-.27,0-.41,0-.41.06-.78.34-1.2.39a1.2,1.2,0,0,0-.42.08.81.81,0,0,0-.18.19l-.63.82c-.05.06-.17.11-.13.19l1.07-.32-.56.67a.63.63,0,0,1,.5.1.41.41,0,0,1,.13.47.3.3,0,0,1-.45.09,1.06,1.06,0,0,1,.12,1.25.81.81,0,0,0-.15.31c0,.21.17.43.08.62s-.45.23-.43.45.17.22.13.35l-.31,0c0,.34.14.77.48.83a1.23,1.23,0,0,1,.19,0c.08,0,.13.11.19.18a1.52,1.52,0,0,0,.82.57.76.76,0,0,0,.86-.4c.07-.08.2,0,.27.08s.17.2.27.15.09-.1.14-.15.38.06.52,0a.72.72,0,0,0,.12-.21.44.44,0,0,1,.63-.06,1.36,1.36,0,0,1,.37.61l.24.66c.06.17.16.37.35.37s.29-.09.37,0,0,.14,0,.21.27.2.45.19l.39,0a.47.47,0,0,1,.17,0c.11,0,.16.14.23.23s.19.16.29.1l0-.89a.74.74,0,0,1,.05-.39.25.25,0,0,1,.34-.09l.07-.22.5,0a.23.23,0,0,1,.25.14l.27.42a.36.36,0,0,0-.38.2c0,.13.19.15.3.09s.24-.16.36-.11l.12.08c.2.11.43-.21.66-.15l.19-.73a1.79,1.79,0,0,0,.52-.47,1.54,1.54,0,0,0,.53.45l.09.2.4,0a.26.26,0,0,1,.4-.22.79.79,0,0,0,.21-.61c-.09-.35-.59-.43-.76-.75-.08-.16-.09-.37-.23-.47s-.33,0-.46-.12a.82.82,0,0,1-.16-.22c-.23-.32-.7-.29-1.08-.22l.29.34a3,3,0,0,0-1.07.12c-.09,0-.2,0-.27,0s-.1-.15-.17-.21-.53.17-.77,0c0-.26.38-.49.25-.72a1.4,1.4,0,0,1-.1-.16c0-.13.13-.25.27-.24s.26.09.4.11a2.08,2.08,0,0,0,.6-.13,3.88,3.88,0,0,0,.58-.09c.18-.07.33-.29.23-.46a.76.76,0,0,0,.7-.47c0-.06,0,0,.08,0s0-.16.11-.16a1.7,1.7,0,0,1,.24.09c.18,0,.34-.11.52-.16a1.07,1.07,0,0,1,.5,0l1,.32a1.86,1.86,0,0,0-1.2-.73,2,2,0,0,0-.06-.43c.11,0,.12-.18.21-.22a.2.2,0,0,1,.15,0l.42.13a.32.32,0,0,1,.16.09c.08.07.1.18.18.24s.21,0,.31.06.18.25.18.4,0,.34.14.43.18.06.26.11.15.47.35.59.36,0,.54-.06c.39-.13.84,0,1.2-.23a.33.33,0,0,0,.22-.35c0-.09-.12-.16-.2-.21-.33-.18-.73-.4-.76-.78,0-.16,0-.35-.07-.47a.45.45,0,0,0-.21-.1,3.18,3.18,0,0,1-1-.48,1.79,1.79,0,0,1,1.14.39,3.06,3.06,0,0,0,1.09.56c0-.11-.1-.19-.19-.26l-1.7-1.2a1.71,1.71,0,0,1,1.1.45,4.39,4.39,0,0,0,1,.66,1.33,1.33,0,0,0-.48-.7,1.6,1.6,0,0,1-.44-.37,1.52,1.52,0,0,1-.17-.56.65.65,0,0,0-.28-.49c-.1-.05-.22-.05-.32-.1-.28-.13-.36-.53-.64-.65a.81.81,0,0,0-.41,0l-.67.07a.14.14,0,0,0-.11,0c-.07,0,0,.16,0,.21a.65.65,0,0,0,.23.09.63.63,0,0,1,.41.48.62.62,0,0,1-.23.59,1.91,1.91,0,0,0,.13.62l-.41.17a.84.84,0,0,1-.06-.59.59.59,0,0,0-.15-.55c-.07,0-.16-.07-.24-.12-.24-.16-.18-.55-.39-.76a.92.92,0,0,0-.66-.15c-.24,0-.52-.07-.59-.29.15-.2.49-.16.64-.36s.08-.22.14-.32a.69.69,0,0,1,.51-.2,1,1,0,0,1,.85.2c.16.18.21.5.45.57a1.4,1.4,0,0,0,.29,0,.61.61,0,0,1,.43.21.73.73,0,0,0,.19.2c.08,0,.18,0,.25.07s.11.21.2.28.2,0,.29.09.17.24.21.39.11.32.26.33a.81.81,0,0,0,.16,0c.17,0,.3.15.41.28s.28.26.44.2a5.07,5.07,0,0,1,.22-.73.85.85,0,0,0-.07-.73.36.36,0,0,1,.32,0,.8.8,0,0,0,.34.05c.11,0,.22-.13.18-.24a.38.38,0,0,0,.27-.19c.2,0,.4-.26.3-.44.16-.14.43,0,.52.2s.1.42.2.61a1.91,1.91,0,0,0,.48,0l.35-.79a.25.25,0,0,0,0-.15c0-.1-.15-.13-.25-.17-.33-.15-.35-.64-.65-.85,0,0-.08-.05-.11-.09s0-.23.14-.29a1.11,1.11,0,0,0,.31-.15c.19-.18.07-.5.15-.75a.48.48,0,0,1,.31-.28c.24-.06.51.09.76,0s.23-.12.35-.16a.72.72,0,0,1,.63.12,1.73,1.73,0,0,1,.43.5.7.7,0,0,0,.15.19.87.87,0,0,0,.4.09,1.23,1.23,0,0,1,.57.21l.18.14.91.77a.31.31,0,0,0,.25.1.5.5,0,0,0,.12-.08.62.62,0,0,1,.79.06,2.38,2.38,0,0,1-.84.63,1,1,0,0,0-.29.15c-.14.1-.22.27-.37.35s-.52,0-.78,0-.58.23-.84.11-.23-.23-.38-.3-.37,0-.54-.08a2.39,2.39,0,0,1-.21-.13,1,1,0,0,0-.46-.13.47.47,0,0,0-.17,0c-.19.07-.18.39-.37.47s-.11,0-.15.06a.22.22,0,0,0-.08.19l-.08.77c0,.24-.08.52-.3.61l-.09,0a.29.29,0,0,0,0,.1l-.06.69a11.46,11.46,0,0,0-.77-1.37c0,.58.46,1.09.47,1.67a5,5,0,0,0-1-1.28,1.37,1.37,0,0,0,.38.77,2.85,2.85,0,0,1,.42,1,8.3,8.3,0,0,0-1.47-.53c.17.49,1,.49,1.15,1l-.14,0-.27.33a1.46,1.46,0,0,1,1.08,1c.2-.13.1-.44.13-.67a1,1,0,0,1,.22-.45l.78-1.12c.08-.11.18-.24.32-.25s.15,0,.23,0c.27,0,.39-.46.65-.42a.74.74,0,0,1,.24.11c.29.12.62-.12.93-.07a.48.48,0,0,1,.18.39c0,.11,0,.25.05.32s.31-.08.47-.08.3.18.47.22a.57.57,0,0,1,.18,0c.12,0,.13.21.09.34a1.18,1.18,0,0,0-.12.36c0,.19.14.39,0,.55a.45.45,0,0,1-.21.15,1.54,1.54,0,0,0-.78,1,9.66,9.66,0,0,1,4.13-1l-1.9.55a7.33,7.33,0,0,0-2.13.86l4.55.47-4.23.08c-.15,0-.32,0-.4.14l2.87,1-3-.51c.89.94,2.37,1.08,3.33,2a17.72,17.72,0,0,1-3.46-1.2l.56.76-.74-.14a13.61,13.61,0,0,1,1.86,2.15c-.83-.29-1.15-1.41-2-1.68.08.57.16,1.14.23,1.72l-.77-1.24c0,.57,0,1.14-.05,1.71a2,2,0,0,1-.35-1.09l-.45.5a.41.41,0,0,0-.48-.14,1,1,0,0,0-.32-.39.51.51,0,0,0,.24.84,2.32,2.32,0,0,0,.37,0,1,1,0,0,1,.95,1c0,.15-.07.29-.09.44a3.23,3.23,0,0,0,.25,1.17c.23.91,0,2,.72,2.67a1.8,1.8,0,0,0,1.43-.49c.29-.37.26-.93.6-1.26a.8.8,0,0,1,.9-.12.79.79,0,0,1,.37.83c-.17.78-1.36.84-1.78,1.53l0,.92a.82.82,0,0,0-.4.8,1,1,0,0,0,.81.91.84.84,0,0,0,.95-.68,2.71,2.71,0,0,1,0-.41c0-.13.18-.25.3-.2.31.23.2.73,0,1a4.46,4.46,0,0,0-.63.76,1.71,1.71,0,0,1-.39,0,1.88,1.88,0,0,1-.41,1.69,1.72,1.72,0,0,1-.92-.75.6.6,0,0,0-.13-.25.54.54,0,0,0-.22-.09,2.94,2.94,0,0,0-1.39.26l-.11,0a2.33,2.33,0,0,0-.29-1.34c-.28-.11-.59.16-.7.45s-.09.61-.22.89c-.28.24-.68-.32-1-.2a.46.46,0,0,0-.25.47c0,.19.07.37.07.56l-1.18.66c0-.17.06-.37-.07-.48s-.43,0-.58.19-.35.39-.56.31c-.06.3.43.38.54.65s-.08.43-.18.63,0,.55.2.52.17-.1.23-.18a4.39,4.39,0,0,1,1.81-1.38.92.92,0,0,0,.52-.35c.09-.16.09-.38.23-.5s.47,0,.73.05a1.05,1.05,0,0,1-.3.15,1.22,1.22,0,0,0-.53.2c-.16.15-.19.42-.38.54a1.24,1.24,0,0,1-.33.09,1.48,1.48,0,0,0-.75.63,3.83,3.83,0,0,0-.94,1.83,5.77,5.77,0,0,1-.1,1.1c-.24,0-.4-.23-.47-.46s-.16-.52-.4-.58-.42.06-.53-.09a1.14,1.14,0,0,0,.11-1.4.29.29,0,0,1,0-.34c-.23-.14-.49.09-.67.29s-.46.41-.67.25-.11-.15-.19-.19-.36.13-.56.13-.29-.15-.46-.15a2.3,2.3,0,0,0-.35.1c-.3,0-.51-.27-.64-.55s-.36-.59-.66-.52-.35.34-.57.44-.67,0-.85.21a.47.47,0,0,0-.61-.28,1.78,1.78,0,0,0-.19,1,2,2,0,0,1-.8.07,4.32,4.32,0,0,0,0,.88c-.29,0-.43.42-.72.46s-.32-.1-.48-.14-.4,0-.37.2a.37.37,0,0,1-.6-.11c0-.23.05-.48,0-.7s-.52-.45-.73-.72c-.07-.08-.12-.18-.19-.26a.63.63,0,0,0-.88.21,4,4,0,0,0-.36,1c-.11.32-.35.65-.69.67-.17,0-.35-.06-.51,0-.32.12-.25.59-.37.92a1.4,1.4,0,0,1-.42.55c-.29.27-.71.56-1,.35s-.27-.55-.22-.86a1.29,1.29,0,0,0,0-.91c-.3-.48-1.11-.3-1.5-.72l-.06.37c-.24-.06-.46.19-.53.43a1.41,1.41,0,0,1-.31.69,1,1,0,0,1-.88,0,2.05,2.05,0,0,1-.44.9c0,.16-.32.3-.47.25a2.21,2.21,0,0,1-.4-.28.73.73,0,0,0-.92.12l.74.73a.61.61,0,0,0,.29.21,1,1,0,0,0,.38,0,2.35,2.35,0,0,1,2.6,1c.09.18.16.4.34.48a.65.65,0,0,0,.39,0,1.44,1.44,0,0,0,1.13-.58,1,1,0,0,1,.16-.31c.17-.19.49-.11.74-.17.59-.15.68-.95.63-1.56L264,147a.69.69,0,0,1,.38.05,1.06,1.06,0,0,1,.26.3c.49.64,1.46.56,2.23.34a1.69,1.69,0,0,0,1.49,1.38.62.62,0,0,1-.35.78,1.91,1.91,0,0,1-.95.07,1.91,1.91,0,0,1-.05,1,.66.66,0,0,1-.75.45v.38a1.25,1.25,0,0,1,.64.41.57.57,0,0,1,0,.71c-.49,0-.86-.4-1.21-.74s-.86-.65-1.3-.42a2.18,2.18,0,0,1-1.25.46.75.75,0,0,0,.34-.85c-.2-.34-.72-.23-1.07-.06s-.83.35-1.1.07c-.1-.1-.15-.25-.28-.31a.57.57,0,0,0-.42,0,1.32,1.32,0,0,0-.8.61c-.13.32.19.78.5.63.08-.34.26-.76.61-.75s.51.58.26.85a1.09,1.09,0,0,1-1,.22,6.7,6.7,0,0,0-1.09-.28c-.15,0-.37.11-.29.24a.63.63,0,0,0,.37.27.73.73,0,0,1-1.38.2c-.27-.6.33-1.27.25-1.92a.94.94,0,0,0-.43-.66,1.49,1.49,0,0,0-1.58.21.89.89,0,0,1-.34.16c-.27.05-.5-.19-.7-.38s-.55-.34-.74-.14a5.5,5.5,0,0,0,1.13,2.42.41.41,0,0,1,.11.23c0,.1-.08.17-.14.26a1,1,0,0,0,0,.79,1.41,1.41,0,0,0,.35.7.48.48,0,0,0,.7,0c.24-.43-.53-.95-.28-1.37a1.22,1.22,0,0,1,1,.56,1.52,1.52,0,0,0,1.71,1.48c.37-.06.73-.27,1.09-.19.59.13.76.86,1.11,1.34a3.36,3.36,0,0,0,2,1l1.88.49-.86-.63a5.33,5.33,0,0,0,1.78.11.66.66,0,0,0-.21-.78c.77.25,1.49-.59,2.3-.62a4,4,0,0,0,.77,0,1.24,1.24,0,0,0,.8-.72,3.18,3.18,0,0,0,.16-2.51,3.16,3.16,0,0,0,1.29,1c-.17.29-.18.82.15.79a.47.47,0,0,0,.25-.13l1-.87a2.21,2.21,0,0,1,.84-.51c.53-.13,1.13.15,1.62-.09-.13.15,0,.42.21.46a.77.77,0,0,0,.56-.18c.42-.27.84-.83.51-1.22a1.9,1.9,0,0,0-.64-.36,1.78,1.78,0,0,1,.4,0,.8.8,0,0,1,.68.64,1.29,1.29,0,0,0,.05.35.56.56,0,0,0,.42.23,1.42,1.42,0,0,0,.79,0c.24-.09.42-.3.67-.36a.43.43,0,0,0-.27-.5,1.22,1.22,0,0,0-.63,0c.12,0-.23-.48-.25-.51a1.12,1.12,0,0,1-.24-1,1,1,0,0,0,0-.68,3.83,3.83,0,0,1,1.47-.15c.4,0,.92.08,1.12-.27a.49.49,0,0,1,0,.7,1.09,1.09,0,0,0,.82.21c-.1-.21.11-.47.34-.54s.48,0,.71-.09c.67-.15,1.2-1,1.84-.74.35.42-.07,1-.5,1.38s-1,.78-.83,1.31a1.32,1.32,0,0,1,1.09-.23,1.46,1.46,0,0,0-.88,1.29,2.65,2.65,0,0,1,1.76-.54l.15-.47a.88.88,0,0,0,1.21-.22,2.52,2.52,0,0,0,.41-1.29,2.06,2.06,0,0,0,0-.7,2.51,2.51,0,0,0-.26-.58,1.22,1.22,0,0,0-.07-.17v0a.46.46,0,0,1,.19-.22c.15-.08.32,0,.45.14s.29.24.45.19a.4.4,0,0,0,.22-.17,3,3,0,0,0,.44-.72.9.9,0,0,0,.09-.32,1.08,1.08,0,0,0-.1-.43l-.25-.66a.58.58,0,0,0-.25-.34c-.14-.05-.33.09-.25.22a.44.44,0,0,1-.38-.06,5.08,5.08,0,0,0,.88-1.72c.21-.79.1-1.54-.83-1.77a1,1,0,0,1-.3-.11c-.36-.23-.35-.93-.77-.92-.21-.29.31-.62.28-1a.83.83,0,0,0-.06-.21.7.7,0,0,0,.33.17,1.53,1.53,0,0,1,.43,0c.29.12.32.59.63.66a1,1,0,0,0,.39,0,.7.7,0,0,1,.67.34l.63-.82a.75.75,0,0,1,.24-.23,1.1,1.1,0,0,1,.36-.07.92.92,0,0,0,.74-1c.45-.17.94-.21,1.39-.37a1.4,1.4,0,0,0,1-1,2.43,2.43,0,0,1,.08-.55,2.51,2.51,0,0,1,.38-.48c.42-.55.19-1.52.79-1.86.14-.09.31-.12.44-.21a1.1,1.1,0,0,0,.31-.52,3.06,3.06,0,0,0,.22-2.13,3.67,3.67,0,0,1-.3-.72c-.05-.29.06-.6-.06-.87s-.22-.29-.22-.47a.64.64,0,0,1,.12-.34,3.24,3.24,0,0,0,.34-2.78,1.47,1.47,0,0,0-.67-.76.88.88,0,0,0-1,.08c-.17-.26.23-.53.26-.84s-.16-.4-.33-.55l-.69-.62.21-.72a.6.6,0,0,0,0-.35c0-.12-.15-.19-.23-.28a.64.64,0,0,1,.1-.88.63.63,0,0,1,.87.15c.12.17.16.43.36.5s.24,0,.32.1.07.2.11.3c.17.41.89,0,1.23.31a.62.62,0,0,1,.06.73,2.07,2.07,0,0,0-.31.72c0,.4.29.72.55,1a1.06,1.06,0,0,1,.29,1.07c0-.11.54.21.52.39s-.18.13-.23.21c-.29.54.1,1.22.16,1.81a7.32,7.32,0,0,1-.08,2.24c.19.05.34-.17.42-.35a11.31,11.31,0,0,0,.72-2,6.14,6.14,0,0,0-.45-3.73,2.07,2.07,0,0,1-.26-.9c0-.15.06-.3.06-.46a1.46,1.46,0,0,0-.64-1c-.22-.19-.17-.45-.2-.74a1.35,1.35,0,0,0,0-.29.69.69,0,0,0-.2-.28l.34.3c.08.06.17.13.26.11a.94.94,0,0,0,.39.72.22.22,0,0,1,.1.09C296.26,123.66,296.2,123.76,296.23,123.85Z"/><path class="cls-29" d="M274.5,107a2.92,2.92,0,0,0,1.06.14,1.15,1.15,0,0,1,.37,0l.24.06a1,1,0,0,0,.59,0v-.1c-.12,0-.22-.11-.26-.23a.57.57,0,0,0-.2-.3,1.21,1.21,0,0,0-.18,0c-.26-.07-.36-.38-.59-.51a.73.73,0,0,0-.25-.08,3,3,0,0,0-1.16,0l-.13,0a.31.31,0,0,0-.1.15.63.63,0,0,0,.07.58A1,1,0,0,0,274.5,107Z"/><path class="cls-29" d="M276.93,105.91c.07,0,.17.08.22,0s0-.08.07-.08l-.1-.19a.25.25,0,0,0-.08-.12.31.31,0,0,0-.23,0l-.43,0h0c-.07,0-.06.13,0,.19S276.73,105.83,276.93,105.91Z"/><path class="cls-29" d="M269.94,106.41a.26.26,0,0,0-.19-.28.67.67,0,0,0-.37,0l-.22,0a.18.18,0,0,0,0,.25.47.47,0,0,0,.26.08A.62.62,0,0,0,269.94,106.41Z"/><path class="cls-29" d="M270.1,111.2a.55.55,0,0,0,.31,0c.14,0,.29-.14.28-.29a.17.17,0,0,0-.09-.14.38.38,0,0,0-.16,0,.76.76,0,0,0-.3,0,.27.27,0,0,0-.2.21A.24.24,0,0,0,270.1,111.2Z"/><path class="cls-29" d="M268.92,110.21a.93.93,0,0,0-.24,0c-.06.06,0,.18.07.22s.18.07.21.15a.4.4,0,0,1,0,.15.38.38,0,0,0,.23.25.94.94,0,0,0,.34.07h.06a.11.11,0,0,0,0-.05.6.6,0,0,1,.45-.5l.1,0a.6.6,0,0,0,.21-.14h-1.05l-.07,0a.22.22,0,0,1-.18,0A.25.25,0,0,0,268.92,110.21Z"/><path class="cls-29" d="M262.75,112.07c.12-.1.25-.23.41-.2,0,.06.07.11.13.09a.25.25,0,0,0,.15-.12.27.27,0,0,1,.15-.11c.09,0,.17,0,.26,0a.32.32,0,0,0,.35-.17s0-.07.05-.1.16-.06.23-.1.15-.18.26-.21a1,1,0,0,1,.17,0s.12-.06.09-.11,0,0-.05,0l-.29-.14a.18.18,0,0,0-.17,0,.14.14,0,0,0-.08.07l-.35.46c-.09,0-.19,0-.27,0l-.06,0c-.12.06-.25-.11-.37-.07s-.12.25-.24.27-.21-.13-.3-.07,0,0-.06.07a1.14,1.14,0,0,1-.43.44C262.42,112.23,262.63,112.17,262.75,112.07Z"/><path class="cls-29" d="M260.87,109.28c0,.07-.06.12-.12.15s0,.12.06.15a.32.32,0,0,0,.17,0l.26,0h0s0-.09,0-.13-.05-.11,0-.15l.1-.06,0-.09a.63.63,0,0,0-.49-.13.24.24,0,0,0-.14,0,.17.17,0,0,0,0,.18A.14.14,0,0,0,260.87,109.28Z"/><path class="cls-29" d="M258.59,111.61a.73.73,0,0,1,.34-.19s0-.09-.09-.11l-.26-.13c-.08,0-.19-.08-.25,0a.29.29,0,0,0,0,.09l0,.18c0,.07,0,.16,0,.21S258.51,111.68,258.59,111.61Z"/><path class="cls-29" d="M256,111a.43.43,0,0,0,.16,0c.1,0,.23,0,.24.13a.27.27,0,0,1,0,.12l-.09.2a.19.19,0,0,0,0,.1.17.17,0,0,0,.11.11.53.53,0,0,0,.6-.09.49.49,0,0,1,0-.38c.08-.09.21-.12.27-.21a.29.29,0,0,0,0-.33.27.27,0,0,0-.33-.09c-.08,0-.11.15-.2.19s-.2,0-.31,0a.43.43,0,0,0-.46.15l0,0C255.91,110.9,256,110.94,256,111Z"/><path class="cls-29" d="M254.91,112.54c.06,0,.12-.07.18-.07s.23.15.35.12.12-.14.2-.21.3-.07.33-.2c-.33,0-.66,0-1,0-.08,0-.17,0-.2.08s0,.07,0,.11a.29.29,0,0,0,0,.1C254.75,112.55,254.85,112.57,254.91,112.54Z"/><path class="cls-29" d="M261.23,112.85a.77.77,0,0,0,.15.36.08.08,0,0,0,0,0h.06c.07,0,.11.09.13.16s.08.14.15.13.1-.08.11-.15a.45.45,0,0,1,0-.2l0-.07a.29.29,0,0,0,0-.32.32.32,0,0,0-.29-.13.45.45,0,0,1,0,.2.12.12,0,0,1-.16.08s-.07-.07-.1-.1A.17.17,0,0,0,261.23,112.85Z"/><path class="cls-29" d="M260.65,117a1.09,1.09,0,0,1,.64-.1c0-.15-.2-.23-.35-.22a1.38,1.38,0,0,0-.43.15.43.43,0,0,1-.19,0,.79.79,0,0,1-.25-.15.63.63,0,0,0-.55,0,2.28,2.28,0,0,0-.91.59.41.41,0,0,0-.15.38c.06.15.26.24.21.39s-.22.14-.31.24-.05.1-.08.14a.68.68,0,0,1-.34.21c-.13,0-.26.14-.26.27a.2.2,0,0,0,.24,0l.21-.15c.11-.06.24-.06.34-.14s.11-.14.18-.2a.55.55,0,0,1,.5,0,.4.4,0,0,1,.2.08c.11.1.08.28,0,.42l-.14.52a.36.36,0,0,1-.13.25c-.06,0-.14,0-.19.08a.25.25,0,0,0-.1.27.8.8,0,0,0,.13.28c.12.18.28.38.49.37a.63.63,0,0,0,.37-.21.81.81,0,0,0,.22-.3,1,1,0,0,0-.06-.5c0-.17-.05-.38.09-.48l.15,0a2.37,2.37,0,0,1,.09-.65.25.25,0,0,1,.31.3.33.33,0,0,0,.32-.09,1.86,1.86,0,0,1,.27-.22.92.92,0,0,0,.23-.09.3.3,0,0,0,0-.44.5.5,0,0,0-.47-.11l-.06-.22c-.21,0-.47,0-.55-.17S260.47,117.07,260.65,117Z"/><path class="cls-29" d="M261,118.89a1.83,1.83,0,0,1-.26.36.24.24,0,0,0-.06.08.28.28,0,0,0,0,.09v.27a0,0,0,0,0,0,0,0,0,0,0,0,0,0,.47.47,0,0,0,.39-.45c0-.12,0-.27,0-.37Z"/><path class="cls-29" d="M261.77,118.9a.14.14,0,0,0,.09,0,.1.1,0,0,0,0-.15.22.22,0,0,0-.14-.09.24.24,0,0,0-.17,0,.13.13,0,0,0-.06.15C261.53,118.92,261.67,118.92,261.77,118.9Z"/><path class="cls-29" d="M259.15,119.18a1.22,1.22,0,0,0,0-.33.11.11,0,0,0,0-.08.15.15,0,0,0-.15,0,.45.45,0,0,0-.43.33s0,.1,0,.13,0,0-.06,0a.24.24,0,0,0-.13.21,1.29,1.29,0,0,0,.46.14c.06,0,.14-.07.21-.12A.4.4,0,0,0,259.15,119.18Z"/><path class="cls-29" d="M257.77,114.17h.38l-.1.78c0,.07.15,0,.21,0a.88.88,0,0,0,.1-.22.42.42,0,0,1,.45-.2.76.76,0,0,0,.47.44.36.36,0,0,0,.47-.31c0-.18-.19-.33-.16-.51s.21-.27.18-.43l.78-.33.1-.21a.64.64,0,0,1-.25-.21c-.07-.1-.12-.23-.23-.27s-.43.18-.64.11l-.11-.07a2.73,2.73,0,0,1-.54-.48c-.06-.08-.14-.17-.23-.15s-.1.18,0,.27.14.15.19.25,0,.1.05.13.26,0,.38.08a.23.23,0,0,1,.07.33.42.42,0,0,1-.34.15,1.51,1.51,0,0,0-.3,0c-.33.08-.41.59-.74.63a1.69,1.69,0,0,0-.23,0c-.08,0-.16.08-.13.16S257.69,114.18,257.77,114.17Z"/><path class="cls-29" d="M257,118.28a.65.65,0,0,0,0-.64s-.08,0-.12,0a1.25,1.25,0,0,1-.12.08.56.56,0,0,1-.13,0,.19.19,0,0,0-.17.14c0,.14.09.27.1.41a.55.55,0,0,1-.2.38l-.29.29a.56.56,0,0,0-.14.2,1.38,1.38,0,0,0,0,.2,1.73,1.73,0,0,1-.16.3c-.05.1-.07.24,0,.31l.16-.21,0,0s.07,0,.1,0,.18-.11.22-.22l.1-.3c0-.07.06-.14.13-.15a.14.14,0,0,1,.09,0,.29.29,0,0,0,.31-.3h-.21a.43.43,0,0,1,.14-.35Z"/><path class="cls-29" d="M258.94,125.29a.94.94,0,0,1,.44-.06.33.33,0,0,0,.14,0,.35.35,0,0,0,.19-.12,1,1,0,0,0,.31-.41.59.59,0,0,0,0-.35.92.92,0,0,0-.13-.21l-.18-.23c-.05-.08-.15-.17-.23-.12s-.07.16-.11.24a.44.44,0,0,1-.25.14c-.14,0-.3.15-.29.3s.07.18.07.27-.07.16-.08.25A.42.42,0,0,0,258.94,125.29Z"/><path class="cls-29" d="M272.05,103.79a1.39,1.39,0,0,1,.6.14.28.28,0,0,0,.15,0c.06,0,.1-.09.06-.13a1.13,1.13,0,0,0-.72-.18l-.31,0C271.84,103.77,272,103.79,272.05,103.79Z"/><path class="cls-29" d="M271.76,104a.06.06,0,0,0,0-.08,4.47,4.47,0,0,0-1.21,0c-.09,0-.2,0-.24.12l1.35,0Z"/><path class="cls-29" d="M267.26,103.91l.13-.09c.29-.16.65.13,1,0a2.3,2.3,0,0,0,.32-.15,1.1,1.1,0,0,1,.36-.07l1.91-.19c-1.08-.08-2.16.14-3.24.15-.32,0-.7,0-.86.31A.64.64,0,0,0,267.26,103.91Z"/><path class="cls-29" d="M271.25,105.52c-.22,0-.36.32-.57.27a.05.05,0,0,0,0,.07h.08l.47,0a.47.47,0,0,0,.16,0,.12.12,0,0,0,.06-.14.27.27,0,0,0-.08-.07A.51.51,0,0,0,271.25,105.52Z"/><path class="cls-29" d="M293.39,137.54c.12.1.29,0,.41-.1a1.57,1.57,0,0,0-.07-1.46,1.13,1.13,0,0,0-.4,1.48Z"/><path class="cls-29" d="M295.9,132.82c-.18,0-.24.23-.26.4l-.09.75c0,.12-.11.29-.22.23s-.18-.32-.36-.28a.61.61,0,0,0-.37.37c-.49,1.07.34,2.37,0,3.49-.19.6-.7,1.05-.91,1.64-.09.25-.19.56-.45.58l-.2,0c-.2,0-.35.21-.38.41a2.41,2.41,0,0,0,0,.6,1.8,1.8,0,0,1-.38,1.18c-.08.09-.2-.07-.28-.15s-.55,0-.59.29a1.49,1.49,0,0,0,.18.78,2.18,2.18,0,0,1,0,1.47,1.43,1.43,0,0,1-1.09.93.22.22,0,0,1-.22,0,.22.22,0,0,1-.06-.18,1.55,1.55,0,0,1,.91-1.48.26.26,0,0,0,.21-.23c0-.38-.52-.56-.84-.38a1.62,1.62,0,0,0-.6.91,7,7,0,0,0-.38,1.26,6.59,6.59,0,0,0,0,1.6,17.72,17.72,0,0,0,.4,2.91l.61-.44a3,3,0,0,0,.86-.84c.39-.67.21-1.6.71-2.21a3,3,0,0,0,.44-.51,1.32,1.32,0,0,0,.09-.48,15.88,15.88,0,0,0,0-2.39,1.5,1.5,0,0,1,.08-.79c.2-.42.74-.53,1.11-.81a2.76,2.76,0,0,0,.67-.91l.31-.58a2.19,2.19,0,0,0,.17-.38c.07-.27,0-.56.07-.84a2.44,2.44,0,0,1,.32-.72l.78-1.32a1.19,1.19,0,0,0,.18-.46c0-.35-.25-.69-.15-1a1.16,1.16,0,0,1,.18-.33,1.56,1.56,0,0,0-.23-1.89A.35.35,0,0,0,295.9,132.82Z"/><path class="cls-29" d="M275,156.55a.54.54,0,0,0,0-.22.28.28,0,0,0-.18-.11,1.89,1.89,0,0,0-1.13.1.64.64,0,0,1-.39.1,1.64,1.64,0,0,1-.29-.16c-.25-.1-.52.08-.79.13s-.72-.11-1.07-.07a1.92,1.92,0,0,0-.75.32l-.63.39c-.45.28-1,.67-.91,1.21a1,1,0,0,0,.54.72,3.14,3.14,0,0,0,.91.24.32.32,0,0,0,.08.41.83.83,0,0,0,.43.15,4.53,4.53,0,0,0,1.47-.06,1.73,1.73,0,0,1,.81-.07,1.23,1.23,0,0,0,.37.08.72.72,0,0,0,.35-.22,2.84,2.84,0,0,1,1.06-.59,1.6,1.6,0,0,0,.37-.12,1,1,0,0,0,.25-.24,1.24,1.24,0,0,0-.14-1.58C275.2,156.84,275,156.73,275,156.55Z"/><path class="cls-29" d="M267.64,159a.31.31,0,0,0,.18-.11.13.13,0,0,0,0-.19c-.42.06-.86-.35-1.25-.17a.18.18,0,0,0-.08.09.15.15,0,0,0,.06.1A1.13,1.13,0,0,0,267.64,159Z"/><path class="cls-29" d="M264.54,158.37a.65.65,0,0,0-.19,0c-.25,0-.48-.16-.74-.2a1.61,1.61,0,0,0-.49,0l-.93.1,1.63.5a2,2,0,0,0,.42.1c.24,0,.49-.05.73-.05l-.3-.32A.41.41,0,0,0,264.54,158.37Z"/><path class="cls-29" d="M267.83,159.66a3,3,0,0,0-1-.29.52.52,0,0,0-.32-.34,1.16,1.16,0,0,0-.49-.06,2.59,2.59,0,0,0-.78.12,2.78,2.78,0,0,0,1.07.24v.14l-.54.1a.19.19,0,0,0,.1.2.46.46,0,0,0,.23,0c.7,0,1.41.06,2.11.05l-.2-.11Z"/><path class="cls-29" d="M288.85,147.19a1.31,1.31,0,0,0-.21-.27,1.26,1.26,0,0,0-.88-.16l0,.93a2.35,2.35,0,0,1,0,.26,3,3,0,0,1-.18.47,1.54,1.54,0,0,0-.11.64.36.36,0,0,0,.41,0,1.05,1.05,0,0,1,.39-.17c.34,0,.61.43.94.33a.42.42,0,0,0,.26-.35,1,1,0,0,0-.07-.45A5,5,0,0,0,288.85,147.19Z"/><path class="cls-29" d="M288.84,152.12a1.9,1.9,0,0,0-.41.44.43.43,0,0,0-.12.23.17.17,0,0,0,.12.21.3.3,0,0,0,.18-.06l.41-.26a1.21,1.21,0,0,0,.32-.27.37.37,0,0,0,.06-.4A.67.67,0,0,0,288.84,152.12Z"/><path class="cls-29" d="M286.66,153.89a1.74,1.74,0,0,0-.51.42,1.7,1.7,0,0,1-.26.38,1.13,1.13,0,0,1-.26.16,1.81,1.81,0,0,0-.67.62,1.46,1.46,0,0,0,.55,0,.64.64,0,0,0,.19-.08.83.83,0,0,0,.14-.22,1,1,0,0,1,.4-.41l.22-.13c.19-.14.28-.39.45-.55a2.52,2.52,0,0,0,.25-.21.27.27,0,0,0,.06-.29Z"/><path class="cls-29" d="M277.46,154c-.08,0-.18.06-.16.14a1.43,1.43,0,0,1-.38-.13.33.33,0,0,0-.38.06.29.29,0,0,1-.07.12c-.07.07-.19,0-.25.11a.15.15,0,0,0,0,.19.32.32,0,0,0,.22,0,1.13,1.13,0,0,1,.45,0c.14.05.25.23.17.35a.46.46,0,0,0,.52-.11.69.69,0,0,0,0-.61C277.6,154.1,277.54,154,277.46,154Z"/><path class="cls-29" d="M278.23,139.78c.25-.12.25-.53.5-.65s.43.06.65,0a.64.64,0,0,0,.38-.25,1.66,1.66,0,0,0,.43-.88,1.29,1.29,0,0,0-.86-1.35c-.15,0-.33-.08-.4-.22s0-.27-.08-.4-.37-.28-.61-.24a1.68,1.68,0,0,1-.7.08.47.47,0,0,0-.89-.25c-.12.25,0,.55,0,.83a1.1,1.1,0,0,1-.54.83,2.23,2.23,0,0,1-1,.29.6.6,0,0,0-.27.06.66.66,0,0,0-.26.43c-.1.4-.19.82-.25,1.23.26,0,.37.33.36.59s-.06.57.15.73.59.1.69.34c0,.08,0,.18.08.24a.27.27,0,0,0,.2.09,1,1,0,0,0,1.06-1.17,1.9,1.9,0,0,1,1.08-.32A.72.72,0,0,0,278.23,139.78Z"/><path class="cls-29" d="M271.8,133.27a.45.45,0,0,1-.13.34c-.17.12-.48,0-.58.15s0,.25.13.32.25.09.36.16a.47.47,0,0,1,.21.36,1.24,1.24,0,0,1-.21.57.57.57,0,0,0,0,.59c.12.15.34.16.52.21.57.16,1,.81,1.61.71a.18.18,0,0,1,.12-.27.45.45,0,0,1,.33.09.72.72,0,0,0,.32.15c.23,0,.44-.19.66-.12a.84.84,0,0,1,0-.47c0-.16,0-.36-.19-.38s-.3.21-.48.24-.36-.23-.35-.44a.43.43,0,0,0-.27-.06.34.34,0,0,0-.06-.2c.06.08.78-.33.64-.66s-.41-.39-.55-.54-.25-.71-.7-.46a3.93,3.93,0,0,0-.39-.73,1.54,1.54,0,0,1,.77,0,6.68,6.68,0,0,1,.82.47.71.71,0,0,0,.88-.07.88.88,0,0,1,.19-.24.34.34,0,0,1,.41.08,1,1,0,0,1,.2.42,1.83,1.83,0,0,1,1.71.55.65.65,0,0,1,.18.22c.16.3-.08.78.21,1s.57-.11.64-.4,0-.62.19-.87.28-.28.37-.46.08-.21.14-.3.2-.16.29-.1a.54.54,0,0,0,.46.28c-.18-.56.26-1.17.09-1.73-.06-.2-.2-.4-.13-.6a1,1,0,0,0-.62.24.57.57,0,0,0-.31-.37.4.4,0,0,1-.19-.11.33.33,0,0,1,0-.14c0-.51-.07-1-.11-1.54a3.49,3.49,0,0,0-.35,2,.46.46,0,0,1-.36-.09l.12-2.64a.56.56,0,0,1-.47.39c.09-.39.17-.79.24-1.18a1,1,0,0,1-.6,0,1.22,1.22,0,0,0,.43-.87c-.65.28-1.31.53-2,.77a9.23,9.23,0,0,0,1.68-1.37,1.55,1.55,0,0,0-1.24.17l1.31-.93a.26.26,0,0,0,.15-.19.3.3,0,0,0-.08-.17,1.59,1.59,0,0,0-1.5-.52.41.41,0,0,0-.35.25c0,.1,0,.22,0,.31s-.19.14-.31.19a.76.76,0,0,0-.44.73.86.86,0,0,0-.75.12c-.36.2-.72.42-1.07.65a1.45,1.45,0,0,1-.72.31c-.56,0-1.05-.48-1.6-.4l.08.42a.72.72,0,0,1,.64.46,2.82,2.82,0,0,0,.38.73.29.29,0,0,1,.13.18c0,.11-.06.22-.12.33-.19.34,0,.8-.19,1.13a2.73,2.73,0,0,1-.23.25.83.83,0,0,0,.32,1.24l.63-1.06a.31.31,0,0,1,.2-.19c.19,0,.29.21.38.38a6.14,6.14,0,0,0,.42.47.46.46,0,0,1,.07.57.7.7,0,0,1-.34.18,1.63,1.63,0,0,0-.9.73.86.86,0,0,0-.2-.13v.21h-.44Z"/></svg>