<svg id="Layer_54" data-name="Layer 54" xmlns="http://www.w3.org/2000/svg" viewBox="0 0 256 256"><defs><style>.cls-1{opacity:0.5;}.cls-10,.cls-2{fill:#f7fbff;}.cls-3,.cls-4{fill:#24241e;}.cls-3{stroke:#1e1414;}.cls-10,.cls-3,.cls-5,.cls-6,.cls-7{stroke-miterlimit:10;}.cls-5{fill:#ed6000;}.cls-5,.cls-7{stroke:#4c0c0c;stroke-width:2px;}.cls-6{fill:#f7c292;stroke:#491313;}.cls-7{fill:#ee0e00;}.cls-8{fill:#40404c;}.cls-9{fill:#53535e;}.cls-10{stroke:#70645a;}.cls-11{fill:#451e15;}.cls-12{fill:#fff;}.cls-13{fill:#4c0c0c;}.cls-14{fill:#3f0808;}</style></defs><path class="cls-1" d="M144.36,216.39a8.09,8.09,0,0,1-3.08-.61c-3.08-1.26-5-4.21-5.37-8.08a17.59,17.59,0,0,1,1.39-8.07,19.52,19.52,0,0,1,1.83-3.45,25,25,0,0,0-3.4-15.57,94.59,94.59,0,0,1-10.92-1.8l-2.39,3.74a18.9,18.9,0,0,1-1.85,3.93c-2.84,4.63-7.09,7.5-11.1,7.5a8.23,8.23,0,0,1-4.3-1.19c-4.85-3-5.41-10-1.34-16.59a20,20,0,0,1,1.45-2.06c-.11-.87-.22-1.88-.31-3-.75-.46-1.48-.93-2.2-1.41a80.07,80.07,0,0,1-11.85,3.15c-.94.17-1.9.34-2.88.49a65.86,65.86,0,0,1-10.11.8C53.55,174.16,35.14,160,31,138a50.59,50.59,0,0,1,9.22-38.85,16.37,16.37,0,0,1-4.29.58,17.35,17.35,0,0,1-12.36-5.42c-6.53-6.51-8.29-16.66-4.49-25.86,3.51-8.49,11-13.76,19.59-13.76A25.15,25.15,0,0,1,48.78,57C61.35,62.47,66.19,72,68,79.57c1.4-.4,2.81-.73,4.23-1A42.62,42.62,0,0,1,80,77.86c.59,0,1.17,0,1.76,0-.64-7.51,1-17.17,9.87-26.09,4.7-4.71,10.23-7.2,16-7.2,7.87,0,15.41,4.85,19.58,12.1a78.5,78.5,0,0,1,18.95-2.4,69.26,69.26,0,0,1,21.37,3.34,82.57,82.57,0,0,1,14.61,1.43c23,4.37,41.68,17.31,52.71,36.43,8.5,14.73,11.32,31.89,7.18,43.71-.13.36-.26.71-.4,1.06-1.91,6.06-6.45,11.93-13.33,17.32,5.41,1.23,10.14,5.42,11.06,10.24a8.19,8.19,0,0,1-1.53,6.61c-2.7,3.5-7.4,4.12-12,4.45-1.52.11-2.81.16-3.95.16-.34,0-.74,0-1.19,0h0A35.46,35.46,0,0,1,209,170.8c-.51-.54-1-1.05-1.3-1.47a147.06,147.06,0,0,1-22.15,7.3,46.78,46.78,0,0,1,1.27,6.19c6.84,3.25,10.14,9.22,7.83,14.32-1.45,3.2-4.79,5.1-9,5.1a19.23,19.23,0,0,1-13.24-5.83l-.47-1.33a28.28,28.28,0,0,1-1.64-8.48,36.23,36.23,0,0,0-1.09-6.81,150.37,150.37,0,0,1-15.3,1.38,64.78,64.78,0,0,1,2.16,14.54c1.25,3.15,1.06,7.29-.62,11.38C153.15,212.74,148.79,216.39,144.36,216.39Z"/><path class="cls-2" d="M139.36,211.39a8.09,8.09,0,0,1-3.08-.61c-3.08-1.26-5-4.21-5.37-8.08a17.59,17.59,0,0,1,1.39-8.07,19.52,19.52,0,0,1,1.83-3.45,25,25,0,0,0-3.4-15.57,94.59,94.59,0,0,1-10.92-1.8l-2.39,3.74a18.9,18.9,0,0,1-1.85,3.93c-2.84,4.63-7.09,7.5-11.1,7.5a8.23,8.23,0,0,1-4.3-1.19c-4.85-3-5.41-10-1.34-16.59a20,20,0,0,1,1.45-2.06c-.11-.87-.22-1.88-.31-3-.75-.46-1.48-.93-2.2-1.41a80.07,80.07,0,0,1-11.85,3.15c-.94.17-1.9.34-2.88.49a65.86,65.86,0,0,1-10.11.8C48.55,169.16,30.14,155,26,133a50.59,50.59,0,0,1,9.22-38.85,16.37,16.37,0,0,1-4.29.58,17.35,17.35,0,0,1-12.36-5.42c-6.53-6.51-8.29-16.66-4.49-25.86,3.51-8.49,11-13.76,19.59-13.76A25.15,25.15,0,0,1,43.78,52C56.35,57.47,61.19,67,63,74.57c1.4-.4,2.81-.73,4.23-1A42.62,42.62,0,0,1,75,72.86c.59,0,1.17,0,1.76,0-.64-7.51,1-17.17,9.87-26.09,4.7-4.71,10.23-7.2,16-7.2,7.87,0,15.41,4.85,19.58,12.1a78.5,78.5,0,0,1,18.95-2.4,69.26,69.26,0,0,1,21.37,3.34,82.57,82.57,0,0,1,14.61,1.43c23,4.37,41.68,17.31,52.71,36.43,8.5,14.73,11.32,31.89,7.18,43.71-.13.36-.26.71-.4,1.06-1.91,6.06-6.45,11.93-13.33,17.32,5.41,1.23,10.14,5.42,11.06,10.24a8.19,8.19,0,0,1-1.53,6.61c-2.7,3.5-7.4,4.12-12,4.45-1.52.11-2.81.16-3.95.16-.34,0-.74,0-1.19,0h0A35.46,35.46,0,0,1,204,165.8c-.51-.54-1-1.05-1.3-1.47a147.06,147.06,0,0,1-22.15,7.3,46.78,46.78,0,0,1,1.27,6.19c6.84,3.25,10.14,9.22,7.83,14.32-1.45,3.2-4.79,5.1-9,5.1a19.23,19.23,0,0,1-13.24-5.83l-.47-1.33a28.28,28.28,0,0,1-1.64-8.48,36.23,36.23,0,0,0-1.09-6.81,150.37,150.37,0,0,1-15.3,1.38,64.78,64.78,0,0,1,2.16,14.54c1.25,3.15,1.06,7.29-.62,11.38C148.15,207.74,143.79,211.39,139.36,211.39Z"/><path class="cls-3" d="M161.94,161.74c1.33.19,11.56,7.79,7.9,23.11l6.33-1.2s.59-16.5-11.17-26.09Z"/><ellipse class="cls-3" cx="177.38" cy="186.6" rx="3.82" ry="7.43" transform="translate(-65.76 271.26) rotate(-65.65)"/><path class="cls-3" d="M131.15,166.76c1.34.19,12.07,12.67,8.42,28l5.54-1.05s.86-21.52-10.9-31.11Z"/><ellipse class="cls-3" cx="141.39" cy="198.36" rx="7.43" ry="3.82" transform="translate(-95.81 253.79) rotate(-67.67)"/><path class="cls-3" d="M116.16,142.45c-1.29.4-9.9,14.43-3.85,29l-5.64-.16s-4.28-21.11,5.81-32.45Z"/><ellipse class="cls-3" cx="107.2" cy="176.34" rx="7.43" ry="3.82" transform="translate(-99.17 175.44) rotate(-58.46)"/><path class="cls-3" d="M210.89,164.24c.55,2.91.81,4.3,9.49,3.67,4.76-.34,8.6-1,8.05-4s-5.16-6.46-9.85-5.58S210.34,161.32,210.89,164.24Z"/><path class="cls-4" d="M176.44,145.88s24.87.05,35,21.28l2.29-7.76s-10.35-18.61-33.4-18.06Z"/><path class="cls-5" d="M57.12,151.46s-4.55-62.4,50-88c38.75-18.18,64.91-1.23,72.31,5-.35.07-70-6.29-98.76,77.69C80.72,146.58,57.12,151.46,57.12,151.46Z"/><path class="cls-6" d="M80.24,125s.63,16.26,15.6,30.55c37.79,36.12,156.7-1,132.62-36.51C229.28,119.76,80.24,125,80.24,125Z"/><path class="cls-7" d="M102.37,158c28.57,12.9,117.49,7,129-25.78C238.2,112.61,222.78,68.88,176,60c-22.41-4.27-44.85,1.89-62.78,16.44C80.54,102.92,67.2,142.13,102.37,158Z"/><path class="cls-3" d="M218.83,99.63A11.61,11.61,0,0,0,226.28,97,92.57,92.57,0,0,0,207,74a17.15,17.15,0,0,0-2.34,9.55C205,92.33,211.35,99.55,218.83,99.63Z"/><path class="cls-3" d="M168.22,127.34c2.25,11.89-5.82,23.39-18,25.69s-23.91-5.46-26.15-17.34,5.81-23.39,18-25.69S166,115.46,168.22,127.34Z"/><path class="cls-3" d="M184.74,76.48c.19,7.57-7,13.49-16,13.22s-16.48-6.61-16.66-14.18,7-13.48,16-13.22S184.55,68.91,184.74,76.48Z"/><path class="cls-3" d="M217.31,109.1c1.59,8.37-3.22,16.31-10.73,17.73s-14.89-4.21-16.47-12.59,3.22-16.32,10.73-17.74S215.73,100.72,217.31,109.1Z"/><path class="cls-3" d="M207.82,144.33c.77,4.08-3,8.2-8.33,9.22s-10.34-1.47-11.11-5.54,3-8.2,8.32-9.22S207.05,140.26,207.82,144.33Z"/><path class="cls-3" d="M119.88,63.82c1.36,2-1.66,6.4-6.75,9.93s-10.31,4.78-11.67,2.82,1.67-6.41,6.75-9.93S118.52,61.86,119.88,63.82Z"/><path class="cls-3" d="M94,83.36C95.76,85,93.73,90,89.5,94.48s-9.09,6.83-10.83,5.19S79,93.06,83.2,88.55,92.29,81.73,94,83.36Z"/><path class="cls-3" d="M126.65,109.18c.71,3.73-2,7.39-6.1,8.16s-8-1.64-8.65-5.37,2-7.39,6.1-8.16S126,105.44,126.65,109.18Z"/><path class="cls-3" d="M143.5,85c1.41,7.47-1.66,12.62-8,13.82s-13.56-2-15-9.48,2.59-14.5,8.93-15.7S142.09,77.5,143.5,85Z"/><path class="cls-8" d="M119.59,113.25c6.9,26.26-6.64,44.05-37.52,48.87-24.1,3.77-45.56-7.29-49.86-30.26S44.4,84.26,68.38,79.78,115.15,96.35,119.59,113.25Z"/><path class="cls-9" d="M114.22,112.06c4.21,21.44-2.88,43.23-33.76,48.06-24.1,3.76-43.95-5.29-48.25-28.26S44.4,84.26,68.38,79.78,110.85,94.91,114.22,112.06Z"/><path d="M84.81,162c-.88.16-1.78.32-2.69.46-25.45,4-46.09-8.57-50.2-30.52-4.4-23.48,12.61-48,36.41-52.44,24.45-4.57,47.22,17.26,51.54,33.7,3,11.53,2.2,21.47-2.48,29.53C111.77,152.37,100.51,159,84.81,162ZM68.44,80.08C45,84.48,28.15,108.65,32.49,131.81c4,21.59,24.41,33.93,49.53,30l2.68-.46c15.53-2.91,26.66-9.48,32.19-19,4.59-7.91,5.41-17.68,2.42-29C115.05,97.1,92.58,75.57,68.44,80.08Z"/><path class="cls-10" d="M61.22,95.91c6.16,5,6.87,15.52,1.82,23.06s-13.94,9.23-20.1,4.24-7.07-15.15-2-22.68S55.06,90.92,61.22,95.91Z"/><path class="cls-11" d="M48.66,114.59A9.06,9.06,0,0,1,50,102.52a7.58,7.58,0,0,1,11.14,1.81A9.08,9.08,0,0,1,59.8,116.4,7.59,7.59,0,0,1,48.66,114.59Z"/><path class="cls-12" d="M51.85,104a2.51,2.51,0,0,1,0-3.07,1.61,1.61,0,0,1,2.55.22,2.51,2.51,0,0,1,0,3.07A1.61,1.61,0,0,1,51.85,104Z"/><path class="cls-10" d="M99.74,123.16c6.18-5.2,6.39-16.2.74-24.08s-15-9.66-21.21-4.46-6.62,15.81-1,23.69S93.55,128.36,99.74,123.16Z"/><path class="cls-11" d="M83.69,102a9.44,9.44,0,0,0-1.62,12.57,7.94,7.94,0,0,0,11.62,2A9.46,9.46,0,0,0,95.32,104,7.94,7.94,0,0,0,83.69,102Z"/><path class="cls-12" d="M83.44,103.52a2.54,2.54,0,0,0-.8,3.07,1.7,1.7,0,0,0,2.61.65,2.54,2.54,0,0,0,.8-3.07A1.7,1.7,0,0,0,83.44,103.52Z"/><path class="cls-13" d="M56.36,85.75a22.32,22.32,0,0,0,.17-3.42,29.28,29.28,0,0,0-.26-3.5,26,26,0,0,0-1.79-6.76,24.53,24.53,0,0,0-3.5-6l-1.15-1.32-.58-.66-.66-.58a19.4,19.4,0,0,0-2.73-2.21l-1.46-1c-.49-.33-1-.56-1.55-.85l-1.58-.83c-.52-.29-1.08-.46-1.61-.7a17,17,0,0,0-6.8-1.21,13.34,13.34,0,0,0-6.51,2,15.3,15.3,0,0,0-4.82,5A18.74,18.74,0,0,0,19.2,77.37a15.73,15.73,0,0,0,3,6.37,15.4,15.4,0,0,0,2.57,2.47,13.47,13.47,0,0,0,1.48,1,13.79,13.79,0,0,0,1.63.7,10,10,0,0,0,7-.22,12.12,12.12,0,0,0,5.52-4.49,9.93,9.93,0,0,0,1.75-6.87,8.64,8.64,0,0,0-1.25-3.39,11.54,11.54,0,0,0-2.5-2.67A11.57,11.57,0,0,1,41,72.85a8.69,8.69,0,0,1,1.36,3.42,10.18,10.18,0,0,1-1.62,7.11,12.67,12.67,0,0,1-5.61,4.8,10.6,10.6,0,0,1-7.42.41,12.64,12.64,0,0,1-1.76-.7,15.64,15.64,0,0,1-1.62-1,16.07,16.07,0,0,1-2.79-2.55,17,17,0,0,1-3.42-6.71,20.1,20.1,0,0,1,2.14-14.7,16.9,16.9,0,0,1,5.19-5.62,15.16,15.16,0,0,1,7.32-2.5A19,19,0,0,1,40.37,56c.59.24,1.21.42,1.77.71l1.71.84c.56.29,1.15.53,1.69.87l1.6,1a21.23,21.23,0,0,1,3,2.33l.73.62.66.71,1.31,1.41a27.25,27.25,0,0,1,4,6.55,28.81,28.81,0,0,1,2.15,7.38,32.52,32.52,0,0,1,.39,3.82,26.16,26.16,0,0,1-.11,3.93Z"/><path class="cls-13" d="M84.61,84.35a26.53,26.53,0,0,1-1.54-3.62A31.7,31.7,0,0,1,82,77a28.49,28.49,0,0,1-.69-7.65,27.09,27.09,0,0,1,1.36-7.57l.7-1.8.35-.89.46-.85a22.62,22.62,0,0,1,2-3.28l1.11-1.56c.38-.51.84-1,1.25-1.43l1.28-1.4c.42-.48.94-.87,1.4-1.31a19,19,0,0,1,6.67-3.85,15.14,15.14,0,0,1,7.73-.35,16.88,16.88,0,0,1,6.88,3.35,20.06,20.06,0,0,1,7.36,12.9,17,17,0,0,1-.73,7.49,16.19,16.19,0,0,1-1.67,3.39,14,14,0,0,1-1.14,1.52,12.22,12.22,0,0,1-1.39,1.3,10.59,10.59,0,0,1-7,2.33,12.75,12.75,0,0,1-7-2.42,10.21,10.21,0,0,1-4.11-6,8.78,8.78,0,0,1,0-3.68,12.12,12.12,0,0,1,1.44-3.37,12,12,0,0,0-1.35,3.39A8.5,8.5,0,0,0,97,68.88a9.84,9.84,0,0,0,4.14,5.76,12.12,12.12,0,0,0,6.77,2.16,9.91,9.91,0,0,0,6.57-2.34,12.29,12.29,0,0,0,1.26-1.24,14.64,14.64,0,0,0,1-1.45,15.5,15.5,0,0,0,1.49-3.23,15.83,15.83,0,0,0,.51-7,18.76,18.76,0,0,0-7.17-11.88,15.21,15.21,0,0,0-6.31-2.87,13.32,13.32,0,0,0-6.8.47,17,17,0,0,0-5.88,3.61,16.26,16.26,0,0,0-1.25,1.24l-1.17,1.35c-.37.45-.8.87-1.14,1.36l-1,1.47a20,20,0,0,0-1.74,3l-.4.79-.3.82L85,62.56A24.39,24.39,0,0,0,84,69.45a26.25,26.25,0,0,0,.81,6.94,27.6,27.6,0,0,0,1,3.35,23,23,0,0,0,1.4,3.12Z"/><path class="cls-14" d="M51.28,131.44c5.93,1.85,20.81,5.45,34.46.4a1.34,1.34,0,0,1,1.62,1.93c-3,5-8.67,12.52-18.61,12.71-10.43.19-17-8.29-19.1-13.24A1.34,1.34,0,0,1,51.28,131.44Z"/><path class="cls-2" d="M56.16,135.05c4,.76,13.9,2.19,23.55-.34.83-.22,3.83-1.14,3-.23-2.3,2.42-7.55,7.37-14.36,7.45-7.51.09-11.6-4.85-12.79-6C53.34,134,55.44,134.91,56.16,135.05Z"/></svg>