<svg id="Layer_54" data-name="Layer 54" xmlns="http://www.w3.org/2000/svg" viewBox="0 0 256 256"><defs><style>.cls-1{opacity:0.5;}.cls-2{fill:#fff;}.cls-3{fill:#ff002c;stroke:#77001f;}.cls-3,.cls-7{stroke-miterlimit:10;stroke-width:2px;}.cls-4{fill:#b50041;}.cls-5{fill:#db0331;}.cls-6{fill:#d10037;}.cls-7{fill:#7a2f0a;stroke:#601900;}.cls-8{fill:#ff4160;}</style></defs><path class="cls-1" d="M133.08,241.12a63.56,63.56,0,0,1-21-3.94c-30.31-12-56.75-38.46-74.44-74.47-7.83-16-7.82-38.94,0-57.14,5.92-13.73,15.84-23.36,27.93-27.11,5-1.53,10.08-2.56,15-3.56,6.57-1.33,12.77-2.59,18.46-4.88.84-.34,1.7-.71,2.62-1.11-4.16-29.07,3.72-44.8,4.08-45.49a6,6,0,0,1,4.11-3.12,20.53,20.53,0,0,1,4.16-.42,28.45,28.45,0,0,1,15.26,5,6,6,0,0,1,1.63,8c-5.41,8.92-8.77,17.69-10,26.19a104.74,104.74,0,0,1,15.79-6.79,83.35,83.35,0,0,1,25.26-3.89c27.17,0,49.79,12.75,59,33.27,17.54,38.95,5,95.09-15.77,128.14-10.58,16.89-24.74,19.41-32.24,19.41h0a25.74,25.74,0,0,1-5-.43,13,13,0,0,0-2.45-.24,12.61,12.61,0,0,0-8.65,3.55.81.81,0,0,1-.12.14C151,238.13,143,241.12,133.08,241.12Z"/><path class="cls-2" d="M128.08,236.12a63.56,63.56,0,0,1-21-3.94c-30.31-12-56.75-38.46-74.44-74.47-7.83-16-7.82-38.94,0-57.14,5.92-13.73,15.84-23.36,27.93-27.11,5-1.53,10.08-2.56,15-3.56,6.57-1.33,12.77-2.59,18.46-4.88.84-.34,1.7-.71,2.62-1.11-4.16-29.07,3.72-44.8,4.08-45.49a6,6,0,0,1,4.11-3.12,20.53,20.53,0,0,1,4.16-.42,28.45,28.45,0,0,1,15.26,5,6,6,0,0,1,1.63,8c-5.41,8.92-8.77,17.69-10,26.19a104.74,104.74,0,0,1,15.79-6.79,83.35,83.35,0,0,1,25.26-3.89c27.17,0,49.79,12.75,59,33.27,17.54,38.95,5,95.09-15.77,128.14-10.58,16.89-24.74,19.41-32.24,19.41h0a25.74,25.74,0,0,1-5-.43,13,13,0,0,0-2.45-.24,12.61,12.61,0,0,0-8.65,3.55.81.81,0,0,1-.12.14C146,233.13,138,236.12,128.08,236.12Z"/><g id="Apple"><path class="cls-3" d="M104.46,66.85c-2.69,1.35-5.37,2.61-8.17,3.73-10.75,4.33-22.9,5.21-33.95,8.61-28.21,8.75-36.05,52-24.35,75.87,15,30.58,39.05,58.77,71.27,71.55,0,0,25,9.92,38.14-3.57a18.5,18.5,0,0,1,16.7-5.15s18.29,4,31-16.29c20.37-32.47,31.78-86.08,15.38-122.49-12.7-28.22-49.85-34.88-77-26.13C123.19,56.3,114.06,62,104.46,66.85Z"/><path class="cls-4" d="M144.22,74.83s-13.9,17.09-27.8,19.88-20.68,3.57-35.38.8c15.5,2.93,28.06-2.74,42.15-7.82C130.26,85.14,139.48,80.67,144.22,74.83Z"/><path class="cls-5" d="M67.42,87.56c7-3.19,29.86-5.57,30.27-5.68.93-.25,8.72-1.54,9-2.47.8-2.69-7.7-4.33-10.47-4.5-3.59-.21-16.81.47-20.32,1.29-7.13,1.68-13.52,3.76-19.8,7.54-16.26,9.82-23.69,31.84-21.5,50.7S45.43,167.82,56.89,183c12,15.91,26.35,30.66,44.2,39.6,13.68,6.85,31.15,9.54,44,1.26,3.73-2.39,7.26-5.81,11.54-6.91,4.06-1,7.93.44,12.09.68,3.32.22,12.26-1.75,11.19-5.54-2-7-19.55-3.64-27.67-1.09-4.14,1.29-7.89,3.7-12.06,4.85-9.93,2.8-20.43-1.7-29.07-7.35-20.37-13.24-35.75-33.23-46.8-54.92-7.71-15.11-13.58-32.41-9.44-48.86,1.65-6.56,5.13-13,11-16.35C66.4,88.05,66.9,87.8,67.42,87.56Z"/><path class="cls-6" d="M101.09,222.57c13.68,6.86,31.15,9.55,44,1.27,3.73-2.39,7.26-5.82,11.54-6.91,4.06-1.05,7.93.43,12.09.68,3.32.22,12.26-1.75,11.19-5.54-2-7-19.55-3.64-27.67-1.09-4.14,1.28-7.89,3.7-12.06,4.85"/><path class="cls-7" d="M117.6,89.53s-20.68-25.42,3.18-64.77c0,0-7.16-5.15-14.7-3.59,0,0-12.72,24.62,4,71.13Z"/><path class="cls-8" d="M147.84,96.17s-12,13.54-46.72,17.22c0,0-23.75-2.55-3.07-7.57s17.71-2.74,27-6.47,17.19-8.5,20.37-8.78S151.57,93.2,147.84,96.17Z"/><path class="cls-8" d="M195,73.41c2.77,3.89,7.93,11.13,8.86,16.78.08,1.07,2.33,11.13-2.44,8.25-8.55-5.18-7.1-12.15-13.74-17.55-3.64-3-9.1-5.07-13.13-8.55-4.61-4-2.91-8.48,3-7.49C177.59,64.88,189.6,65.84,195,73.41Z"/><ellipse class="cls-8" cx="207.44" cy="117.12" rx="5.05" ry="7.1" transform="translate(-10.72 21.44) rotate(-5.77)"/></g></svg>