<svg id="Layer_54" data-name="Layer 54" xmlns="http://www.w3.org/2000/svg" viewBox="0 0 512 256"><defs><style>.cls-1{opacity:0.5;}.cls-2,.cls-4{fill:#fff;}.cls-3,.cls-5,.cls-7{fill:none;}.cls-3{stroke:#231f20;stroke-width:6px;}.cls-4{stroke:#000;}.cls-4,.cls-7{stroke-width:0.5px;}.cls-5,.cls-7{stroke:#323232;}.cls-5{stroke-width:4px;}.cls-6{fill:#323232;}</style></defs><path class="cls-1" d="M360.23,208.34a7.27,7.27,0,0,1-4.68-1.66l0,.1-3.33,1.1a8.69,8.69,0,0,1-5.46,0l-3.33-1.1,0-.1a7.43,7.43,0,0,1-9.36,0l0,.1-3.32,1.1a8.69,8.69,0,0,1-5.46,0l-3.33-1.1,0-.1a7.27,7.27,0,0,1-4.68,1.66,7.13,7.13,0,0,1-5.28-2.24,6.74,6.74,0,0,1-4.91,2.2,10,10,0,0,1-3.29-.67l-3.21-1.08a6.89,6.89,0,0,1-4.72,1.78,9,9,0,0,1-2.29-.31l-2.34-.6-.77-1.26a7,7,0,0,1-2.21,1.56l-.43.19-.46.11a9,9,0,0,1-2.29.31,6.92,6.92,0,0,1-5.06-2.11l-.3-.34c-.1.12-.19.23-.3.34a6.92,6.92,0,0,1-5.06,2.11A9,9,0,0,1,272,208l-2.34-.6-.77-1.26a7.1,7.1,0,0,1-2.21,1.56l-.43.18-.46.12a9,9,0,0,1-2.29.31,7.1,7.1,0,0,1-2.92-.6,6.69,6.69,0,0,1-2.64.53h-.19a7,7,0,0,1-2.26-.45,7,7,0,0,1-2.71.52,9,9,0,0,1-2.29-.31l-2.34-.6-.77-1.26a7.1,7.1,0,0,1-2.21,1.56l-.44.18-.45.12a9,9,0,0,1-2.29.31,6.92,6.92,0,0,1-5.06-2.11,3.17,3.17,0,0,1-.3-.34l-.3.34a6.94,6.94,0,0,1-5.06,2.11A9,9,0,0,1,229,208l-2.34-.6-.78-1.26a6.76,6.76,0,0,1-2.2,1.55l-.44.19-.46.12a8.93,8.93,0,0,1-2.29.31,6.9,6.9,0,0,1-5.05-2.11,3.17,3.17,0,0,1-.3-.34c-.1.12-.2.23-.31.34a6.9,6.9,0,0,1-5.05,2.11,9.06,9.06,0,0,1-2.3-.31l-2.33-.6-.78-1.26a6.88,6.88,0,0,1-2.21,1.56l-.43.18-.46.12a8.93,8.93,0,0,1-2.29.31,6.94,6.94,0,0,1-5.06-2.11l-.3-.34a3.17,3.17,0,0,1-.3.34,6.9,6.9,0,0,1-5.06,2.11,9,9,0,0,1-2.29-.31l-2.33-.6-.78-1.26a6.88,6.88,0,0,1-2.21,1.56l-.43.18-.46.12a9,9,0,0,1-2.29.31,6.92,6.92,0,0,1-5.06-2.11l-.3-.34-.3.34a6.92,6.92,0,0,1-5.06,2.11,9,9,0,0,1-2.29-.31l-2.34-.6-.77-1.26a7,7,0,0,1-2.22,1.56l-.43.19-.45.11a9,9,0,0,1-2.29.31,6.92,6.92,0,0,1-5.06-2.11c-.1-.11-.21-.22-.3-.34l-.3.34a6.92,6.92,0,0,1-5.06,2.11,9,9,0,0,1-2.29-.31l-2.88-.74-.52-1.25a7,7,0,0,1-4.82,1.77h-.12l-4.13,0c-1.3,0-2.59,0-3.88,0h-.15a7,7,0,0,1-5.42-2.33,7,7,0,0,1-1.64-5.22V98a6.48,6.48,0,0,1,.21-6c1.38-2.57,2.74-5.16,4.15-7.84l6.72-12.79,6.89,12.76c1.23,2.29,2.43,4.52,3.64,6.73a16.79,16.79,0,0,1,3.76-1.25c1.28,0,4.91,1.54,4.91,1.54a11.36,11.36,0,0,1,.91,1.11,6.95,6.95,0,0,1,5.61-2.94,6.35,6.35,0,0,1,5,2.34,9.05,9.05,0,0,1,2.28-2.56,15.37,15.37,0,0,1,3.33-1.49c1.23-.12,4.84,1.09,4.84,1.09a6.25,6.25,0,0,1,5.81-4.11h.1a6.46,6.46,0,0,1,4.65,1.94l2.91-5a3.9,3.9,0,0,1,4.8-1.66l3.06,1.21a6.25,6.25,0,0,1,5.58-4.76l.23,0H199a6.38,6.38,0,0,1,4.25,1.58l.63-1.82a6.17,6.17,0,0,1,6-4.74,6.27,6.27,0,0,1,3.92,1.41c0-.17.33-1,.4-1.22a6.21,6.21,0,0,1,6.22-6.27H221l.57.09a6.63,6.63,0,0,1,3,1.33A6.25,6.25,0,0,1,225.73,64c.11-.14.22-.28.34-.41a6,6,0,0,1,2.73-2.45,6.49,6.49,0,0,1,2.69-.59,6.31,6.31,0,0,1,4,1.46h0a7.24,7.24,0,0,1,.54-2.42,7.37,7.37,0,0,1,3.63-3.89c2-1,5.67.61,5.67.61a7.47,7.47,0,0,1,1.2,1.07,6.51,6.51,0,0,1,4-4.07,6.62,6.62,0,0,1,2.2-.39,6.43,6.43,0,0,1,5.56,3.24,5.89,5.89,0,0,1,5.39-3.46c3,0,4.74,2.91,4.74,2.91a11,11,0,0,1,.85,1.33,6.76,6.76,0,0,1,2.52-1.85l1.13-.48,1.32,0a6.54,6.54,0,0,1,5.86,3.86L286.3,60a7.16,7.16,0,0,1,5.34,5.68,7.57,7.57,0,0,1,.38,1.23l0,0a4.65,4.65,0,0,1,5.69-2.25,4.15,4.15,0,0,1,3.14,3.39,10.62,10.62,0,0,1,1.49,3.12l3.37.49,2.88.46a7.07,7.07,0,0,1,4.17,4.4,6.44,6.44,0,0,1,.72,1.91,6.4,6.4,0,0,1,3.82-1.27,6.6,6.6,0,0,1,1.53.18,6.48,6.48,0,0,1,4.54,4,7,7,0,0,1,.42.91,5.8,5.8,0,0,1,1.18-.89,6.2,6.2,0,0,1,3.17-.87,6.29,6.29,0,0,1,5.53,3.35l.81.45.07,1A6.62,6.62,0,0,1,338,83.71a7.91,7.91,0,0,1,1-.07,6.37,6.37,0,0,1,5.7,3.51,6,6,0,0,1,2.19-1.88,6.2,6.2,0,0,1,2.86-.7,6.3,6.3,0,0,1,5.55,3.4l.57.33a6.42,6.42,0,0,1,4.58-1.94h.37l.45,0a6.43,6.43,0,0,1,4.62,3A6.73,6.73,0,0,1,367,88.19a6.41,6.41,0,0,1,4.33-1.69,6.28,6.28,0,0,1,3.3,1l2.46.06.06.47,8.46-16.22L397.42,94l.17,1.55.68,6.24-1.31.08v4.31q0,46.89,0,93.78a7.17,7.17,0,0,1-2.75,7l-1.59,1.2h-4.51c-2.14,0-4.16,0-6.2.06h-.26a7.11,7.11,0,0,1-4.59-1.53l-3.33,1.1a8.69,8.69,0,0,1-5.46,0l-3.33-1.1,0-.1A7.26,7.26,0,0,1,360.23,208.34Z"/><path class="cls-2" d="M355.23,203.34a7.27,7.27,0,0,1-4.68-1.66l0,.1-3.33,1.1a8.69,8.69,0,0,1-5.46,0l-3.33-1.1,0-.1a7.43,7.43,0,0,1-9.36,0l0,.1-3.32,1.1a8.69,8.69,0,0,1-5.46,0l-3.33-1.1,0-.1a7.27,7.27,0,0,1-4.68,1.66,7.13,7.13,0,0,1-5.28-2.24,6.74,6.74,0,0,1-4.91,2.2,10,10,0,0,1-3.29-.67l-3.21-1.08a6.89,6.89,0,0,1-4.72,1.78,9,9,0,0,1-2.29-.31l-2.34-.6-.77-1.26a7,7,0,0,1-2.21,1.56l-.43.19-.46.11a9,9,0,0,1-2.29.31,6.92,6.92,0,0,1-5.06-2.11l-.3-.34c-.1.12-.19.23-.3.34a6.92,6.92,0,0,1-5.06,2.11A9,9,0,0,1,267,203l-2.34-.6-.77-1.26a7.1,7.1,0,0,1-2.21,1.56l-.43.18-.46.12a9,9,0,0,1-2.29.31,7.1,7.1,0,0,1-2.92-.6,6.69,6.69,0,0,1-2.64.53h-.19a7,7,0,0,1-2.26-.45,7,7,0,0,1-2.71.52,9,9,0,0,1-2.29-.31l-2.34-.6-.77-1.26a7.1,7.1,0,0,1-2.21,1.56l-.44.18-.45.12a9,9,0,0,1-2.29.31,6.92,6.92,0,0,1-5.06-2.11,3.17,3.17,0,0,1-.3-.34l-.3.34a6.94,6.94,0,0,1-5.06,2.11A9,9,0,0,1,224,203l-2.34-.6-.78-1.26a6.76,6.76,0,0,1-2.2,1.55l-.44.19-.46.12a8.93,8.93,0,0,1-2.29.31,6.9,6.9,0,0,1-5.05-2.11,3.17,3.17,0,0,1-.3-.34c-.1.12-.2.23-.31.34a6.9,6.9,0,0,1-5.05,2.11,9.06,9.06,0,0,1-2.3-.31l-2.33-.6-.78-1.26a6.88,6.88,0,0,1-2.21,1.56l-.43.18-.46.12a8.93,8.93,0,0,1-2.29.31,6.94,6.94,0,0,1-5.06-2.11l-.3-.34a3.17,3.17,0,0,1-.3.34,6.9,6.9,0,0,1-5.06,2.11,9,9,0,0,1-2.29-.31l-2.33-.6-.78-1.26a6.88,6.88,0,0,1-2.21,1.56l-.43.18-.46.12a9,9,0,0,1-2.29.31,6.92,6.92,0,0,1-5.06-2.11l-.3-.34-.3.34a6.92,6.92,0,0,1-5.06,2.11,9,9,0,0,1-2.29-.31l-2.34-.6-.77-1.26a7,7,0,0,1-2.22,1.56l-.43.19-.45.11a9,9,0,0,1-2.29.31,6.92,6.92,0,0,1-5.06-2.11c-.1-.11-.21-.22-.3-.34l-.3.34a6.92,6.92,0,0,1-5.06,2.11,9,9,0,0,1-2.29-.31l-2.88-.74-.52-1.25a7,7,0,0,1-4.82,1.77h-.12l-4.13,0c-1.3,0-2.59,0-3.88,0h-.15a7,7,0,0,1-5.42-2.33,7,7,0,0,1-1.64-5.22V93a6.48,6.48,0,0,1,.21-6c1.38-2.57,2.74-5.16,4.15-7.84l6.72-12.79,6.89,12.76c1.23,2.29,2.43,4.52,3.64,6.73a16.79,16.79,0,0,1,3.76-1.25c1.28,0,4.91,1.54,4.91,1.54a11.36,11.36,0,0,1,.91,1.11,6.95,6.95,0,0,1,5.61-2.94,6.35,6.35,0,0,1,5,2.34,9.05,9.05,0,0,1,2.28-2.56,15.37,15.37,0,0,1,3.33-1.49c1.23-.12,4.84,1.09,4.84,1.09a6.25,6.25,0,0,1,5.81-4.11h.1a6.46,6.46,0,0,1,4.65,1.94l2.91-5a3.9,3.9,0,0,1,4.8-1.66l3.06,1.21a6.25,6.25,0,0,1,5.58-4.76l.23,0H194a6.38,6.38,0,0,1,4.25,1.58l.63-1.82a6.17,6.17,0,0,1,6-4.74,6.27,6.27,0,0,1,3.92,1.41c0-.17.33-1,.4-1.22a6.21,6.21,0,0,1,6.22-6.27H216l.57.09a6.63,6.63,0,0,1,3,1.33A6.25,6.25,0,0,1,220.73,59c.11-.14.22-.28.34-.41a6,6,0,0,1,2.73-2.45,6.49,6.49,0,0,1,2.69-.59,6.31,6.31,0,0,1,4,1.46h0a7.24,7.24,0,0,1,.54-2.42,7.37,7.37,0,0,1,3.63-3.89c2-1,5.67.61,5.67.61a7.47,7.47,0,0,1,1.2,1.07,6.51,6.51,0,0,1,4-4.07,6.62,6.62,0,0,1,2.2-.39,6.43,6.43,0,0,1,5.56,3.24,5.89,5.89,0,0,1,5.39-3.46c3,0,4.74,2.91,4.74,2.91a11,11,0,0,1,.85,1.33,6.76,6.76,0,0,1,2.52-1.85l1.13-.48,1.32,0a6.54,6.54,0,0,1,5.86,3.86L281.3,55a7.16,7.16,0,0,1,5.34,5.68,7.57,7.57,0,0,1,.38,1.23l0,0a4.65,4.65,0,0,1,5.69-2.25,4.15,4.15,0,0,1,3.14,3.39,10.62,10.62,0,0,1,1.49,3.12l3.37.49,2.88.46a7.07,7.07,0,0,1,4.17,4.4,6.44,6.44,0,0,1,.72,1.91,6.4,6.4,0,0,1,3.82-1.27,6.6,6.6,0,0,1,1.53.18,6.48,6.48,0,0,1,4.54,4,7,7,0,0,1,.42.91,5.8,5.8,0,0,1,1.18-.89,6.2,6.2,0,0,1,3.17-.87,6.29,6.29,0,0,1,5.53,3.35l.81.45.07,1A6.62,6.62,0,0,1,333,78.71a7.91,7.91,0,0,1,1-.07,6.37,6.37,0,0,1,5.7,3.51,6,6,0,0,1,2.19-1.88,6.2,6.2,0,0,1,2.86-.7,6.3,6.3,0,0,1,5.55,3.4l.57.33a6.42,6.42,0,0,1,4.58-1.94h.37l.45,0a6.43,6.43,0,0,1,4.62,3A6.73,6.73,0,0,1,362,83.19a6.41,6.41,0,0,1,4.33-1.69,6.28,6.28,0,0,1,3.3,1l2.46.06.06.47,8.46-16.22L392.42,89l.17,1.55.68,6.24L392,96.9v4.31q0,46.89,0,93.78a7.17,7.17,0,0,1-2.75,7l-1.59,1.2h-4.51c-2.14,0-4.16,0-6.2.06h-.26a7.11,7.11,0,0,1-4.59-1.53l-3.33,1.1a8.69,8.69,0,0,1-5.46,0l-3.33-1.1,0-.1A7.26,7.26,0,0,1,355.23,203.34Z"/><line class="cls-3" x1="366.15" y1="92.46" x2="366.15" y2="197.66"/><polygon class="cls-4" points="368.17 92.47 364.13 92.47 366.21 86.9 368.17 92.47"/><line class="cls-3" x1="355.35" y1="92.05" x2="355.35" y2="197.66"/><polygon class="cls-4" points="357.37 92.07 353.34 92.07 355.41 86.47 357.37 92.07"/><line class="cls-3" x1="344.56" y1="90.79" x2="344.56" y2="197.66"/><polygon class="cls-4" points="346.57 90.8 342.54 90.8 344.62 85.14 346.57 90.8"/><line class="cls-3" x1="333.76" y1="89.62" x2="333.76" y2="197.66"/><polygon class="cls-4" points="335.78 89.63 331.75 89.63 333.82 83.91 335.78 89.63"/><line class="cls-3" x1="322.97" y1="86.84" x2="322.97" y2="197.66"/><polygon class="cls-4" points="324.98 86.86 320.95 86.86 323.02 80.98 324.98 86.86"/><line class="cls-3" x1="312.17" y1="83.12" x2="312.17" y2="197.66"/><polygon class="cls-4" points="314.19 83.13 310.15 83.13 312.23 77.06 314.19 83.13"/><line class="cls-3" x1="301.37" y1="77.93" x2="301.37" y2="197.54"/><polygon class="cls-4" points="303.39 77.95 299.36 77.95 301.43 71.61 303.39 77.95"/><line class="cls-3" x1="290.58" y1="72.16" x2="290.58" y2="197.66"/><polygon class="cls-4" points="292.59 72.17 288.56 72.17 290.63 65.53 292.59 72.17"/><line class="cls-3" x1="279.78" y1="66.48" x2="279.78" y2="197.66"/><polygon class="cls-4" points="281.8 66.49 277.77 66.49 279.84 59.54 281.8 66.49"/><line class="cls-3" x1="268.98" y1="61.84" x2="268.98" y2="197.66"/><polygon class="cls-4" points="271 61.85 266.97 61.85 269.04 54.66 271 61.85"/><line class="cls-3" x1="258.19" y1="59.94" x2="258.19" y2="197.66"/><polygon class="cls-4" points="260.21 59.96 256.17 59.96 258.25 52.66 260.21 59.96"/><line class="cls-3" x1="247.39" y1="60.23" x2="247.39" y2="197.66"/><polygon class="cls-4" points="249.41 60.24 245.38 60.24 247.45 52.96 249.41 60.24"/><line class="cls-3" x1="236.6" y1="62.97" x2="236.6" y2="197.66"/><polygon class="cls-4" points="238.61 62.99 234.58 62.99 236.66 55.85 238.61 62.99"/><line class="cls-3" x1="225.8" y1="67.33" x2="225.8" y2="197.66"/><polygon class="cls-4" points="227.82 67.35 223.79 67.35 225.86 60.44 227.82 67.35"/><line class="cls-3" x1="215" y1="72.45" x2="215" y2="197.66"/><polygon class="cls-4" points="217.02 72.46 212.99 72.46 215.06 65.83 217.02 72.46"/><line class="cls-3" x1="204.21" y1="77.94" x2="204.21" y2="197.66"/><polygon class="cls-4" points="206.23 77.95 202.19 77.95 204.26 71.61 206.23 77.95"/><line class="cls-3" x1="193.41" y1="83.01" x2="193.41" y2="197.66"/><polygon class="cls-4" points="195.43 83.02 191.4 83.02 193.47 76.95 195.43 83.02"/><line class="cls-3" x1="182.62" y1="87.41" x2="182.62" y2="197.66"/><polygon class="cls-4" points="184.63 87.42 180.6 87.42 182.68 81.58 184.63 87.42"/><line class="cls-3" x1="171.82" y1="90.99" x2="171.82" y2="197.66"/><polygon class="cls-4" points="173.84 91 169.81 91 171.88 85.35 173.84 91"/><line class="cls-3" x1="161.02" y1="93.62" x2="161.02" y2="197.66"/><polygon class="cls-4" points="163.04 93.63 159.01 93.63 161.08 88.12 163.04 93.63"/><line class="cls-3" x1="150.23" y1="94.73" x2="150.23" y2="197.66"/><polygon class="cls-4" points="152.25 94.74 148.21 94.74 150.28 89.29 152.25 94.74"/><line class="cls-3" x1="139.43" y1="95.02" x2="139.43" y2="197.66"/><polygon class="cls-4" points="141.45 95.03 137.42 95.03 139.49 89.59 141.45 95.03"/><path class="cls-5" d="M377.26,102.42s.73.37-13.17.37c-62.89,0-77.15-34.38-109.34-34.38s-62.52,37.3-111.54,37.3H127.87"/><path class="cls-5" d="M377.26,111.93s.73.36-13.17.36c-62.89,0-77.15-34.37-109.34-34.37s-62.52,37.3-111.54,37.3H127.87"/><line class="cls-5" x1="126.04" y1="188.52" x2="384.2" y2="188.52"/><line class="cls-5" x1="126.04" y1="177.49" x2="384.2" y2="177.49"/><polygon class="cls-6" points="250.43 68.47 255.35 68.47 255.35 112.53 260.56 116.25 260.56 121.11 265.47 121.11 265.47 122.83 260.56 122.83 260.56 133.7 255.43 137.74 255.21 194.34 250.43 194.34 250.43 68.47"/><rect class="cls-6" x="252.2" y="194.04" width="0.8" height="3.58"/><path class="cls-7" d="M137.89,147.86a3.92,3.92,0,1,1-3.92-3.92h0A3.91,3.91,0,0,1,137.89,147.86Z"/><path class="cls-7" d="M144.77,143.94a3.92,3.92,0,1,1-3.92,3.92h0A3.92,3.92,0,0,1,144.77,143.94Z"/><path class="cls-7" d="M155.56,143.94a3.92,3.92,0,1,1-3.92,3.92h0A3.91,3.91,0,0,1,155.56,143.94Z"/><path class="cls-7" d="M166.37,143.94a3.92,3.92,0,1,1-3.92,3.92h0A3.92,3.92,0,0,1,166.37,143.94Z"/><path class="cls-7" d="M177.16,143.94a3.92,3.92,0,1,1-3.92,3.92h0A3.92,3.92,0,0,1,177.16,143.94Z"/><path class="cls-7" d="M188,143.94a3.92,3.92,0,1,1-3.92,3.92h0A3.91,3.91,0,0,1,188,143.94Z"/><path class="cls-7" d="M198.76,143.94a3.92,3.92,0,1,1-3.91,3.92h0A3.91,3.91,0,0,1,198.76,143.94Z"/><path class="cls-7" d="M209.58,143.94a3.92,3.92,0,1,1-3.92,3.92h0A3.92,3.92,0,0,1,209.58,143.94Z"/><path class="cls-7" d="M220.37,143.94a3.92,3.92,0,1,1-3.92,3.92h0A3.91,3.91,0,0,1,220.37,143.94Z"/><path class="cls-7" d="M231.18,143.94a3.92,3.92,0,1,1-3.92,3.92h0A3.92,3.92,0,0,1,231.18,143.94Z"/><path class="cls-7" d="M242,143.94a3.92,3.92,0,1,1-3.92,3.92h0A3.92,3.92,0,0,1,242,143.94Z"/><path class="cls-7" d="M263.57,143.94a3.92,3.92,0,1,1-3.92,3.92h0A3.92,3.92,0,0,1,263.57,143.94Z"/><path class="cls-7" d="M274.39,143.94a3.92,3.92,0,1,1-3.92,3.92h0A3.91,3.91,0,0,1,274.39,143.94Z"/><path class="cls-7" d="M285.18,143.94a3.92,3.92,0,1,1-3.92,3.92h0A3.91,3.91,0,0,1,285.18,143.94Z"/><path class="cls-7" d="M296,143.94a3.92,3.92,0,1,1-3.92,3.92h0A3.92,3.92,0,0,1,296,143.94Z"/><path class="cls-7" d="M306.78,143.94a3.92,3.92,0,1,1-3.92,3.92h0A3.92,3.92,0,0,1,306.78,143.94Z"/><path class="cls-7" d="M317.59,143.94a3.92,3.92,0,1,1-3.92,3.92h0A3.92,3.92,0,0,1,317.59,143.94Z"/><path class="cls-7" d="M328.38,143.94a3.92,3.92,0,1,1-3.92,3.92,3.92,3.92,0,0,1,3.92-3.92Z"/><path class="cls-7" d="M339.2,143.94a3.92,3.92,0,1,1-3.93,3.92,3.91,3.91,0,0,1,3.93-3.92Z"/><path class="cls-7" d="M350,143.94a3.92,3.92,0,1,1-3.92,3.92,3.92,3.92,0,0,1,3.92-3.92Z"/><path class="cls-7" d="M360.8,143.94a3.92,3.92,0,1,1-3.92,3.92h0A3.91,3.91,0,0,1,360.8,143.94Z"/><path class="cls-7" d="M375.52,147.86a3.92,3.92,0,1,1-3.93-3.92,3.93,3.93,0,0,1,3.93,3.92Z"/><rect class="cls-6" x="119.54" y="90.66" width="10.26" height="106.49"/><polygon class="cls-6" points="118.73 90.29 130.73 90.29 124.65 79.02 118.73 90.29"/><rect class="cls-6" x="375.75" y="91.18" width="10.26" height="106.49"/><polygon class="cls-6" points="374.93 90.8 386.93 90.8 380.85 79.53 374.93 90.8"/></svg>