<svg xmlns="http://www.w3.org/2000/svg" viewBox="0 0 256 256"><defs><style>.cls-1{isolation:isolate;}.cls-2{opacity:0.5;}.cls-3,.cls-38{fill:#fff;}.cls-4{fill:#003b49;}.cls-13,.cls-5{fill:#f23636;stroke:#a50e0e;}.cls-10,.cls-13,.cls-15,.cls-16,.cls-18,.cls-20,.cls-21,.cls-23,.cls-27,.cls-30,.cls-33,.cls-37,.cls-40,.cls-41,.cls-5,.cls-7{stroke-miterlimit:10;}.cls-5{stroke-width:2.56px;}.cls-6{fill:#f4a800;}.cls-18,.cls-7{fill:#ea2424;}.cls-21,.cls-23,.cls-7{stroke:#000;}.cls-10,.cls-15,.cls-23,.cls-30,.cls-7{stroke-width:2px;}.cls-8{fill:#f95353;}.cls-9{fill:#b52121;}.cls-10{fill:#c4000c;stroke:#680710;}.cls-11{fill:#e83d56;}.cls-12{fill:#ff83a1;}.cls-13{stroke-width:1.9px;}.cls-14{fill:#fc7c7c;}.cls-15{fill:#571094;}.cls-15,.cls-30,.cls-33{stroke:#44006b;}.cls-16{fill:#d6d6d0;stroke:#8e888a;}.cls-17{fill:#efefed;opacity:0.6;}.cls-18{stroke:#af0404;stroke-width:1.98px;}.cls-19{fill:#ff4824;}.cls-20{fill:#8b8c88;stroke:#383535;}.cls-21,.cls-23{fill:#32332e;}.cls-22{fill:#ff4821;}.cls-24{fill:#ff4822;}.cls-25,.cls-36{fill:#d7f7ff;}.cls-25{opacity:0.25;}.cls-26{fill:#9f1dfd;}.cls-27{fill:#25a4d6;stroke:#0b5b68;}.cls-28{fill:#9ae9f7;}.cls-29{fill:#defcff;}.cls-30,.cls-35{fill:#931ad8;}.cls-31{fill:#e5bfff;}.cls-32{fill:#5a1197;}.cls-33{fill:#941ad9;}.cls-34{fill:#b132ff;}.cls-36{opacity:0.37;}.cls-37{fill:#8aeeff;stroke:#044a66;stroke-width:1.61px;}.cls-38{mix-blend-mode:soft-light;}.cls-39{fill:#5c0f95;}.cls-40,.cls-41{fill:#ff9022;stroke:#c96a0a;}.cls-40{stroke-width:0.82px;}.cls-41{stroke-width:0.82px;}</style></defs><g class="cls-1"><g id="Layer_54" data-name="Layer 54"><g class="cls-2"><path d="M129.25,243.86a26.93,26.93,0,0,1-9.73-1.86,26.44,26.44,0,0,1-12.5-9.52,19.85,19.85,0,0,1-17.7,10.75,20.75,20.75,0,0,1-12.07-3.89,8.17,8.17,0,0,1-6.31,2.71H38.67a6.18,6.18,0,0,1-4.73-10.36l0,0,16.27-23a6.08,6.08,0,0,1-.84-1.25l-.29-.56-.15-.61a20.7,20.7,0,0,1-.44-5.55c0-.51,0-1,0-1.54,0,0,0-1.39,0-2,0-1.53,0-3-.06-4.42A6.43,6.43,0,0,1,50.16,188a6.09,6.09,0,0,1,3.56-1.82,22.87,22.87,0,0,1-2.14-5.75c-2.39-10.47,2.11-20.63,11.32-26.26q0-4.11.07-8.24v-.16a8.26,8.26,0,0,1,.33-3,7.37,7.37,0,0,1,4.32-5.51l1.5-.73,1.08-.05c2.15-.12,4.34-.17,6.7-.17,2.17,0,4.43,0,6.92.14H84l.18,0a7.73,7.73,0,0,1,2.39.64c0-.27,0-.55-.08-.83l-.24-1.76a8.54,8.54,0,0,1-3-2.49c-1.76-2.35-2.19-5.37-1.28-9a6.08,6.08,0,0,1,2.64-3.87A6.79,6.79,0,0,1,88.05,117l.61-.15,34.78.06,1.1.55a7.3,7.3,0,0,1,2.38,1.89c1.81,1.27,3.32,3.55,2.89,7.6a2.46,2.46,0,0,0,0,.37,8.37,8.37,0,0,1-4.77,7.21c0,.26-.08.53-.13.8a11.77,11.77,0,0,0-.15,1.3,19.75,19.75,0,0,1-.48,3.14,10.37,10.37,0,0,1-.17,2.68c0,.26,0,.53-.07.79a19.76,19.76,0,0,1-.44,3.17,6.92,6.92,0,0,1-.34,2.2v.15q13.65,0,27.29-.06l0-45.91a18,18,0,0,1-2.16-.22,6.21,6.21,0,0,1-3.89-1.94,10,10,0,0,1-3.24-6l-.05-.36V89.22a6.15,6.15,0,0,1,.52-3.11,5.62,5.62,0,0,1,.77-2,5.46,5.46,0,0,1,1-1.13,8.85,8.85,0,0,1,5.67-3.35h0c.21-.06.43-.11.65-.15l3.19-.76.11,0a6.27,6.27,0,0,1,1.45-.17h.29l.26-.08a12,12,0,0,1,3.16-.52,7.27,7.27,0,0,1,2.48-.47h.08a6.39,6.39,0,0,1,2-.32c.26,0,.5,0,.73,0a8.22,8.22,0,0,1,2.56-.4h.58a7.64,7.64,0,0,1,2.31-.35c.27,0,.54,0,.81,0h.75a7.48,7.48,0,0,1,2.44-.41,6.77,6.77,0,0,1,1,.07l.06,0,1.92,0a17.64,17.64,0,0,1,3.56-.32c.68,0,1.35,0,2,.05h.25l5.89,0,3.31,0h.08q.39,0,.78,0a7.5,7.5,0,0,1,1.79.21h.09a6.54,6.54,0,0,1,.89.06l.94,0h1.06a9,9,0,0,1,2.67.37l.49,0c.22,0,.44,0,.67,0a7.4,7.4,0,0,1,2.28.35l.93.05H204a6,6,0,0,1,1.87.29,5.65,5.65,0,0,1,.58,0h.12a6.45,6.45,0,0,1,1.72.23h.17a6.7,6.7,0,0,1,2.47.46l1.95.29H213a6,6,0,0,1,2,.33,8,8,0,0,1,1.75.31h.06a6.37,6.37,0,0,1,2.07.34,6.77,6.77,0,0,1,2.17.49A9.15,9.15,0,0,1,227,84a6.46,6.46,0,0,1,1.26,3.38,6,6,0,0,1,.13,1,17.06,17.06,0,0,1,0,5.92,5.62,5.62,0,0,1-.29,1.52,7.45,7.45,0,0,1-2,4.14,5.82,5.82,0,0,1-2.74,2,6,6,0,0,1-1.93.66l-.27.07,0,51.77v23.28h1l1.26.78a6,6,0,0,1,2.82,5.37l0,14.62v3.08c.18,2.1.31,4.45-1.54,6.48s-4.37,2.11-6.52,2.11l-4.23,0-4.47,0c0,1.52,0,3,0,4.53v.7a6.55,6.55,0,0,1-1.62,5.29l-1.51,1.65-1.22,0a25.91,25.91,0,0,1-8.45,14.32,29.57,29.57,0,0,1-19.06,7,26.27,26.27,0,0,1-23.67-14.3,25.42,25.42,0,0,1-9.19,9.7A29.29,29.29,0,0,1,129.25,243.86Z"/><path d="M98.3,114A8.85,8.85,0,0,1,94,112.84a8.49,8.49,0,0,1-5.55-5.73v0a8.29,8.29,0,0,1-.65-4.46l0-.3V102a8.27,8.27,0,0,1,1.27-3.94,10,10,0,0,1-.3-1.34A7,7,0,0,1,89.11,91a6.67,6.67,0,0,1,.69-1.61l0,0c1.78-4.83,6.21-6,7.89-6.49l.62-.17,3.19-.07.76.24.27,0a9,9,0,0,1,3.39,1.16,6.89,6.89,0,0,1,1.7-.2A10.4,10.4,0,0,1,109,84h.29l.4,0a8.47,8.47,0,0,1,4.74,2,8.35,8.35,0,0,1,2.51,2.67,6.88,6.88,0,0,1,1.16,2.82,7.94,7.94,0,0,1,.37,3.73l0,.19a8.46,8.46,0,0,1-2.3,5.57,9,9,0,0,1-.15,1l0,.18a8.92,8.92,0,0,1-1.71,4.5,8.18,8.18,0,0,1-2.87,3.19l-.25.18-3.3,2.22-1-.39a7.72,7.72,0,0,1-2.59.47,5.32,5.32,0,0,1-.69,0A9.71,9.71,0,0,1,98.3,114Z"/><path d="M115.76,80.07a9.61,9.61,0,0,1-4.36-1.18c-.31-.15-.53-.24-.69-.31a5.77,5.77,0,0,1-2,.5,8.6,8.6,0,0,1-2.48.39,7.16,7.16,0,0,1-2.69-.52A7.64,7.64,0,0,1,99,77.21l-.13-.1-.55-.29-.16-.15A8.77,8.77,0,0,1,95,73.82l-.12-.16a14.49,14.49,0,0,1-3.13-9.54,7.13,7.13,0,0,1,.58-2.92,9,9,0,0,1,2.19-5,1.84,1.84,0,0,0,.17-.22,11.14,11.14,0,0,1,2.64-2.8l1.07-1.41H99a8.15,8.15,0,0,1,1.39-2.43l.05-.06.56-.82.76-.5.26-.28a12.23,12.23,0,0,1,1.53-1.49,6.51,6.51,0,0,1,4.86-2.62l1-.33a9.28,9.28,0,0,1,3.27-.64,7.73,7.73,0,0,1,2.53.43,5.71,5.71,0,0,1,1.54.39,11,11,0,0,1,4.54,2.18A9.63,9.63,0,0,1,122.93,47h.16c.44,0,.88,0,1.32.08l.3,0a8,8,0,0,1,4.12,1.26,7.12,7.12,0,0,1,4.24,3.25l.37.38a10.45,10.45,0,0,1,2.74,6.26l.06.42v.31a7.46,7.46,0,0,1-.3,3.41,6.15,6.15,0,0,1-.49,1.9,7.38,7.38,0,0,1-1.16,2.47,11.3,11.3,0,0,1-3.89,3.86,6,6,0,0,1-2.26,1.18,12.62,12.62,0,0,1-7.54,7.4,6.28,6.28,0,0,1-2.59.58h0A7.34,7.34,0,0,1,115.76,80.07Z"/><path d="M142.26,54a8.82,8.82,0,0,1-2.58-.39,6.71,6.71,0,0,1-3.54-1.17l-.23-.12a7.05,7.05,0,0,1-2.66-1.45,11.49,11.49,0,0,1-1.85-1.54,10.56,10.56,0,0,1-3.6-1.6l-.38-.25-.06-.06a7.84,7.84,0,0,1-4-4.52l-.41-.78c-.76-1.42-2.56-4.8-.84-8.51a10.62,10.62,0,0,1,2-4.4l.29-.41a12.86,12.86,0,0,1,1.08-1.39l.25-.3.27-.32.31-.28A6.86,6.86,0,0,1,129,24.72a6.36,6.36,0,0,1,.27-.77,6.82,6.82,0,0,1,1.1-2.95l.09-.22,1-1.37a5.47,5.47,0,0,1,.44-.63,9.87,9.87,0,0,1,3.36-3.06,13.51,13.51,0,0,1,7.8-2.58,12.71,12.71,0,0,1,2.8.31l.4,0h.17a8.26,8.26,0,0,1,3.14.89,7.26,7.26,0,0,1,2.67,1.51,7.44,7.44,0,0,1,2,2,8.8,8.8,0,0,1,3.17,4.56c.07.13.13.26.19.39a8.43,8.43,0,0,1,3.35,1.5l.15.11.11.05.18.11a9.73,9.73,0,0,1,3.18,3.1A7.92,7.92,0,0,1,166,30.44a5.82,5.82,0,0,1,.51,1.74,10.15,10.15,0,0,1,.4,4.22c0,.15,0,.3,0,.46a5.9,5.9,0,0,1-.75,3.38,6.89,6.89,0,0,1-1.07,2,10.67,10.67,0,0,1-4.63,4.47l-.08,0a10.84,10.84,0,0,1-4.74,1.65l-.51.07h-.36c-.24,0-.58.07-1,.09a9.85,9.85,0,0,1-2.61,2.35L149,52.35l-.92.08,0,0a9.48,9.48,0,0,1-3.1,1A8.39,8.39,0,0,1,142.26,54Z"/></g><path class="cls-3" d="M124.25,238.86a26.93,26.93,0,0,1-9.73-1.86,26.44,26.44,0,0,1-12.5-9.52,19.85,19.85,0,0,1-17.7,10.75,20.75,20.75,0,0,1-12.07-3.89,8.17,8.17,0,0,1-6.31,2.71H33.67a6.18,6.18,0,0,1-4.73-10.36l0,0,16.27-23a6.08,6.08,0,0,1-.84-1.25l-.29-.56-.15-.61a20.7,20.7,0,0,1-.44-5.55c0-.51,0-1,0-1.54,0,0,0-1.39,0-2,0-1.53,0-3-.06-4.42A6.43,6.43,0,0,1,45.16,183a6.09,6.09,0,0,1,3.56-1.82,22.87,22.87,0,0,1-2.14-5.75c-2.39-10.47,2.11-20.63,11.32-26.26q0-4.11.07-8.24v-.16a8.26,8.26,0,0,1,.33-3,7.37,7.37,0,0,1,4.32-5.51l1.5-.73,1.08-.05c2.15-.12,4.34-.17,6.7-.17,2.17,0,4.43,0,6.92.14H79l.18,0a7.73,7.73,0,0,1,2.39.64c0-.27,0-.55-.08-.83l-.24-1.76a8.54,8.54,0,0,1-3-2.49c-1.76-2.35-2.19-5.37-1.28-9a6.08,6.08,0,0,1,2.64-3.87A6.79,6.79,0,0,1,83.05,112l.61-.15,34.78.06,1.1.55a7.3,7.3,0,0,1,2.38,1.89c1.81,1.27,3.32,3.55,2.89,7.6a2.46,2.46,0,0,0,0,.37,8.37,8.37,0,0,1-4.77,7.21c0,.26-.08.53-.13.8a11.77,11.77,0,0,0-.15,1.3,19.75,19.75,0,0,1-.48,3.14,10.37,10.37,0,0,1-.17,2.68c0,.26,0,.53-.07.79a19.76,19.76,0,0,1-.44,3.17,6.92,6.92,0,0,1-.34,2.2v.15q13.65,0,27.29-.06l0-45.91a18,18,0,0,1-2.16-.22,6.21,6.21,0,0,1-3.89-1.94,10,10,0,0,1-3.24-6l-.05-.36V84.22a6.15,6.15,0,0,1,.52-3.11,5.62,5.62,0,0,1,.77-2,5.46,5.46,0,0,1,1-1.13,8.85,8.85,0,0,1,5.67-3.35h0c.21-.06.43-.11.65-.15l3.19-.76.11,0a6.27,6.27,0,0,1,1.45-.17h.29l.26-.08a12,12,0,0,1,3.16-.52,7.27,7.27,0,0,1,2.48-.47h.08a6.39,6.39,0,0,1,2-.32c.26,0,.5,0,.73,0a8.22,8.22,0,0,1,2.56-.4h.58a7.64,7.64,0,0,1,2.31-.35c.27,0,.54,0,.81,0h.75a7.48,7.48,0,0,1,2.44-.41,6.77,6.77,0,0,1,1,.07l.06,0,1.92,0a17.64,17.64,0,0,1,3.56-.32c.68,0,1.35,0,2,.05h.25l5.89,0,3.31,0h.08q.39,0,.78,0a7.5,7.5,0,0,1,1.79.21h.09a6.54,6.54,0,0,1,.89.06l.94,0h1.06a9,9,0,0,1,2.67.37l.49,0c.22,0,.44,0,.67,0a7.4,7.4,0,0,1,2.28.35l.93.05H199a6,6,0,0,1,1.87.29,5.65,5.65,0,0,1,.58,0h.12a6.45,6.45,0,0,1,1.72.23h.17a6.7,6.7,0,0,1,2.47.46l1.95.29H208a6,6,0,0,1,2,.33,8,8,0,0,1,1.75.31h.06a6.37,6.37,0,0,1,2.07.34,6.77,6.77,0,0,1,2.17.49A9.15,9.15,0,0,1,222,79a6.46,6.46,0,0,1,1.26,3.38,6,6,0,0,1,.13,1,17.06,17.06,0,0,1,0,5.92,5.62,5.62,0,0,1-.29,1.52,7.45,7.45,0,0,1-2,4.14,5.82,5.82,0,0,1-2.74,2,6,6,0,0,1-1.93.66l-.27.07,0,51.77v23.28h1l1.26.78a6,6,0,0,1,2.82,5.37l0,14.62v3.08c.18,2.1.31,4.45-1.54,6.48s-4.37,2.11-6.52,2.11l-4.23,0-4.47,0c0,1.52,0,3,0,4.53v.7a6.55,6.55,0,0,1-1.62,5.29l-1.51,1.65-1.22,0a25.91,25.91,0,0,1-8.45,14.32,29.57,29.57,0,0,1-19.06,7,26.27,26.27,0,0,1-23.67-14.3,25.42,25.42,0,0,1-9.19,9.7A29.29,29.29,0,0,1,124.25,238.86Z"/><path class="cls-3" d="M96.3,113A8.85,8.85,0,0,1,92,111.84a8.49,8.49,0,0,1-5.55-5.73v0a8.29,8.29,0,0,1-.65-4.46l0-.3V101a8.27,8.27,0,0,1,1.27-3.94,10,10,0,0,1-.3-1.34A7,7,0,0,1,87.11,90a6.67,6.67,0,0,1,.69-1.61l0,0c1.78-4.83,6.21-6,7.89-6.49l.62-.17,3.19-.07.76.24.27,0a9,9,0,0,1,3.39,1.16,6.89,6.89,0,0,1,1.7-.2A10.4,10.4,0,0,1,107,83h.29l.4,0a8.47,8.47,0,0,1,4.74,2,8.35,8.35,0,0,1,2.51,2.67,6.88,6.88,0,0,1,1.16,2.82,7.94,7.94,0,0,1,.37,3.73l0,.19a8.46,8.46,0,0,1-2.3,5.57,9,9,0,0,1-.15,1l0,.18a8.92,8.92,0,0,1-1.71,4.5,8.18,8.18,0,0,1-2.87,3.19l-.25.18-3.3,2.22-1-.39a7.72,7.72,0,0,1-2.59.47,5.32,5.32,0,0,1-.69,0A9.71,9.71,0,0,1,96.3,113Z"/><path class="cls-3" d="M113.76,79.07a9.61,9.61,0,0,1-4.36-1.18c-.31-.15-.53-.24-.69-.31a5.77,5.77,0,0,1-2,.5,8.6,8.6,0,0,1-2.48.39,7.16,7.16,0,0,1-2.69-.52A7.64,7.64,0,0,1,97,76.21l-.13-.1-.55-.29-.16-.15A8.77,8.77,0,0,1,93,72.82l-.12-.16a14.49,14.49,0,0,1-3.13-9.54,7.13,7.13,0,0,1,.58-2.92,9,9,0,0,1,2.19-5,1.84,1.84,0,0,0,.17-.22,11.14,11.14,0,0,1,2.64-2.8l1.07-1.41H97a8.15,8.15,0,0,1,1.39-2.43l.05-.06.56-.82.76-.5.26-.28a12.23,12.23,0,0,1,1.53-1.49,6.51,6.51,0,0,1,4.86-2.62l1-.33a9.28,9.28,0,0,1,3.27-.64,7.73,7.73,0,0,1,2.53.43,5.71,5.71,0,0,1,1.54.39,11,11,0,0,1,4.54,2.18A9.63,9.63,0,0,1,120.93,46h.16c.44,0,.88,0,1.32.08l.3,0a8,8,0,0,1,4.12,1.26,7.12,7.12,0,0,1,4.24,3.25l.37.38a10.45,10.45,0,0,1,2.74,6.26l.06.42v.31a7.46,7.46,0,0,1-.3,3.41,6.15,6.15,0,0,1-.49,1.9,7.38,7.38,0,0,1-1.16,2.47,11.3,11.3,0,0,1-3.89,3.86,6,6,0,0,1-2.26,1.18,12.62,12.62,0,0,1-7.54,7.4,6.28,6.28,0,0,1-2.59.58h0A7.34,7.34,0,0,1,113.76,79.07Z"/><path class="cls-3" d="M140.26,53a8.82,8.82,0,0,1-2.58-.39,6.71,6.71,0,0,1-3.54-1.17l-.23-.12a7.05,7.05,0,0,1-2.66-1.45,11.49,11.49,0,0,1-1.85-1.54,10.56,10.56,0,0,1-3.6-1.6l-.38-.25-.06-.06a7.84,7.84,0,0,1-4-4.52l-.41-.78c-.76-1.42-2.56-4.8-.84-8.51a10.62,10.62,0,0,1,2-4.4l.29-.41a12.86,12.86,0,0,1,1.08-1.39l.25-.3.27-.32.31-.28A6.86,6.86,0,0,1,127,23.72a6.36,6.36,0,0,1,.27-.77,6.82,6.82,0,0,1,1.1-2.95l.09-.22,1-1.37a5.47,5.47,0,0,1,.44-.63,9.87,9.87,0,0,1,3.36-3.06,13.51,13.51,0,0,1,7.8-2.58,12.71,12.71,0,0,1,2.8.31l.4,0h.17a8.26,8.26,0,0,1,3.14.89,7.26,7.26,0,0,1,2.67,1.51,7.44,7.44,0,0,1,2,2,8.8,8.8,0,0,1,3.17,4.56c.07.13.13.26.19.39a8.43,8.43,0,0,1,3.35,1.5l.15.11.11.05.18.11a9.73,9.73,0,0,1,3.18,3.1A7.92,7.92,0,0,1,164,29.44a5.82,5.82,0,0,1,.51,1.74,10.15,10.15,0,0,1,.4,4.22c0,.15,0,.3,0,.46a5.9,5.9,0,0,1-.75,3.38,6.89,6.89,0,0,1-1.07,2,10.67,10.67,0,0,1-4.63,4.47l-.08,0a10.84,10.84,0,0,1-4.74,1.65l-.51.07h-.36c-.24,0-.58.07-1,.09a9.85,9.85,0,0,1-2.61,2.35L147,51.35l-.92.08,0,0a9.48,9.48,0,0,1-3.1,1A8.39,8.39,0,0,1,140.26,53Z"/><rect class="cls-4" x="62.14" y="200.19" width="33" height="25.56"/><rect class="cls-4" x="82.13" y="187.18" width="116.9" height="25.56"/><path class="cls-5" d="M67.81,200.4H55.47a2.57,2.57,0,0,0-2.08,1.11L32.16,231.42a.38.38,0,0,0,.27.61h33.1a2.38,2.38,0,0,0,2.26-2.49V201.43Z"/><polygon class="cls-6" points="66.23 230.41 66.23 201.72 64.3 201.72 59.9 230.41 66.23 230.41"/><polygon class="cls-6" points="58.12 230.41 63.32 201.72 61.42 201.72 51.1 230.41 58.12 230.41"/><polygon class="cls-6" points="49.75 230.41 60.07 201.72 57.78 201.72 42.18 230.41 49.75 230.41"/><polygon class="cls-6" points="40.72 230.41 56.52 201.72 54.67 201.72 34.75 230.41 40.72 230.41"/><polygon class="cls-7" points="115.01 120.48 111.03 153.28 89.17 153.28 88.56 148.22 85.19 120.48 115.01 120.48"/><polygon class="cls-8" points="105.81 122.13 103.13 154.93 89.49 155.6 88.98 149.92 85.68 122.13 105.81 122.13"/><polygon class="cls-9" points="114.21 124.51 110.8 154.36 108.6 155.49 108.3 149.81 111.01 122.65 114.21 124.51"/><rect class="cls-10" x="81.46" y="117.5" width="37.27" height="7.45" rx="3.54"/><rect class="cls-11" x="81.88" y="117.61" width="36.36" height="5.06" rx="2.4"/><rect class="cls-12" x="82.23" y="117.57" width="35.71" height="3.54" rx="1.68"/><ellipse class="cls-13" cx="71.69" cy="170.33" rx="20.94" ry="19.4"/><ellipse class="cls-14" cx="75.13" cy="170" rx="20.94" ry="19.4"/><path class="cls-15" d="M210.77,196,62.73,198l0-41.84a5.88,5.88,0,0,1,5.58-6.05l33.15-.66,109.49.06Z"/><path class="cls-16" d="M110.57,93.24a5,5,0,0,0-8.07-3.95,6.25,6.25,0,1,0-9,8.58,5,5,0,1,0,6.15,7.46,6.24,6.24,0,0,0,8.46-5.84,6.49,6.49,0,0,0-.26-1.78A5,5,0,0,0,110.57,93.24Z"/><path class="cls-17" d="M106.92,94.9a3.44,3.44,0,0,0-3.43-3.43,3.37,3.37,0,0,0-2.11.73,4.28,4.28,0,1,0-6.19,5.88,3.43,3.43,0,1,0,4.21,5.12,4.45,4.45,0,0,0,1.51.28,4.29,4.29,0,0,0,4.29-4.29A4,4,0,0,0,105,98,3.45,3.45,0,0,0,106.92,94.9Z"/><path class="cls-16" d="M121.08,51.2a7.2,7.2,0,0,0-2.9.6,9.18,9.18,0,0,0-17.2,3,9.19,9.19,0,1,0,7.75,16.53,7.34,7.34,0,0,0,12.35-5.38,7.35,7.35,0,1,0,0-14.7Z"/><path class="cls-17" d="M118,52.8a5.74,5.74,0,0,0-2.23.46,7,7,0,0,0-13.17,2.27,7,7,0,1,0,5.94,12.65A5.62,5.62,0,0,0,118,64.06a5.63,5.63,0,0,0,0-11.26Z"/><path class="cls-16" d="M146.69,18.86a9.55,9.55,0,0,0-15,8.67,7.63,7.63,0,0,0-3.88,13.88A7.54,7.54,0,0,0,132,42.79a9.69,9.69,0,0,0,2.43,2.48,9.55,9.55,0,0,0,13.3-2.36,8.85,8.85,0,0,0,1-1.86,7.64,7.64,0,1,0,2-14.64A9.56,9.56,0,0,0,146.69,18.86Z"/><path class="cls-17" d="M145,20.55a7.2,7.2,0,0,0-11.29,6.53,5.76,5.76,0,0,0-2.92,10.47,5.69,5.69,0,0,0,3.16,1,7.18,7.18,0,0,0,11.85.1,6.6,6.6,0,0,0,.76-1.4,5.76,5.76,0,1,0,1.51-11A7.2,7.2,0,0,0,145,20.55Z"/><circle class="cls-18" cx="83.72" cy="219.09" r="14.23"/><circle class="cls-19" cx="82.66" cy="218.9" r="13.88"/><circle class="cls-20" cx="82.82" cy="219.09" r="6.37"/><path class="cls-21" d="M80.27,219.09a2.55,2.55,0,1,0,2.55-2.55A2.55,2.55,0,0,0,80.27,219.09Z"/><path class="cls-14" d="M82.91,206.32s-9.47,0-11.54,8c0,0-.56.35.69.42s1.93-7.05,11.4-6.78C83.46,207.91,85.47,207.36,82.91,206.32Z"/><path class="cls-14" d="M81,230.41s-9.32-1.65-10-9.84c0,0-.49-.44.75-.29s.68,7.28,10,8.66C81.78,228.94,83.66,229.83,81,230.41Z"/><circle class="cls-18" cx="173.83" cy="212.21" r="21.26"/><circle class="cls-22" cx="172.37" cy="212.74" r="21.09"/><circle class="cls-20" cx="172.48" cy="212.21" r="9.52"/><path class="cls-23" d="M168.67,212.21a3.81,3.81,0,1,0,3.81-3.8A3.8,3.8,0,0,0,168.67,212.21Z"/><path class="cls-14" d="M190.14,214.68s-2.44,13.94-14.67,14.95c0,0-.65.72-.44-1.13s10.88-1,12.91-15C187.94,213.46,189.27,210.65,190.14,214.68Z"/><path class="cls-14" d="M173.27,194.22s-14.15,0-17.25,11.88c0,0-.82.52,1,.62s2.89-10.53,17-10.12C174.1,196.6,177.09,195.77,173.27,194.22Z"/><circle class="cls-18" cx="124.95" cy="212.21" r="21.26"/><circle class="cls-24" cx="123.48" cy="212.74" r="21.09"/><circle class="cls-20" cx="123.59" cy="212.21" r="9.52"/><path class="cls-21" d="M119.79,212.21a3.81,3.81,0,1,0,3.8-3.8A3.8,3.8,0,0,0,119.79,212.21Z"/><path class="cls-14" d="M141.26,214.68s-2.44,13.94-14.68,14.95c0,0-.65.72-.43-1.13s10.88-1,12.91-15C139.06,213.46,140.39,210.65,141.26,214.68Z"/><path class="cls-14" d="M124.39,194.22s-14.15,0-17.25,11.88c0,0-.82.52,1,.62s2.9-10.53,17-10.12C125.22,196.6,128.21,195.77,124.39,194.22Z"/><path class="cls-25" d="M153,149.3H111.31l-36.26.41-6.71,20s3.52-10.89,33.46-15.8A350.37,350.37,0,0,1,153,149.3Z"/><polygon class="cls-26" points="209.09 176.55 63.32 176.72 63.35 159.86 101.49 159.59 209.22 159.57 209.09 176.55"/><path class="cls-27" d="M215.24,92.19h-71c-1.64,0-3-1.92-3-4.3V84.34c0-2.38,1.33-4.3,3-4.3a164.71,164.71,0,0,1,71,0,2.55,2.55,0,0,1,2.09,1.26,5.35,5.35,0,0,1,.87,3v3.55C218.2,90.27,216.87,92.19,215.24,92.19Z"/><path class="cls-28" d="M214.84,87.9H144.67a2.84,2.84,0,0,1-2.93-2.74V82.89a2.84,2.84,0,0,1,2.93-2.74,183.86,183.86,0,0,1,35.14-3.66,175.25,175.25,0,0,1,35,3.66,3.12,3.12,0,0,1,2.07.8,2.67,2.67,0,0,1,.86,1.94v2.27A2.84,2.84,0,0,1,214.84,87.9Z"/><path class="cls-29" d="M214.32,85.16H145c-1.6,0-2.9-.84-2.9-1.88V81.73c0-1,1.3-1.89,2.9-1.89,10.17-1.35,21.76-3.35,34.81-3.35s24.56,2,34.51,3.35a4,4,0,0,1,2,.56,1.62,1.62,0,0,1,.85,1.33v1.55C217.21,84.32,215.92,85.16,214.32,85.16Z"/><rect class="cls-30" x="150.92" y="92.59" width="59.65" height="92.03"/><path class="cls-30" d="M48.05,200.58,48,187l88.12.4a14.79,14.79,0,0,1,13.77-8.83c10.57-.19,66.2-.14,66.2-.14l.06,21.74Z"/><path class="cls-31" d="M48,194.36l-.08-7.56,88.13.41a14.77,14.77,0,0,1,13.76-8.83c10.57-.19,66.2-.14,66.2-.14l.06,15.65Z"/><path class="cls-32" d="M209.9,93l-58.5-.1-.1,84.53,8.58.15S166.79,119.68,209.9,93Z"/><path class="cls-33" d="M71,136.9h.88a8.2,8.2,0,0,1,8.2,8.2v41.69a0,0,0,0,1,0,0H62.76a0,0,0,0,1,0,0V145.1A8.2,8.2,0,0,1,71,136.9Z"/><path class="cls-34" d="M70.85,139.07h1a4.06,4.06,0,0,1,4.06,4.06v18.56a0,0,0,0,1,0,0H66.79a0,0,0,0,1,0,0V143.13A4.06,4.06,0,0,1,70.85,139.07Z"/><rect class="cls-35" x="130.62" y="115.19" width="3.13" height="167.87" transform="translate(330.79 66.16) rotate(89.77)"/><path class="cls-36" d="M210.57,92.59s-38.94,16-50.69,85l3.9-.15s7.74-32.16,46.79-67.8Z"/><path class="cls-37" d="M203.63,106.18V131.7a4.39,4.39,0,0,1-4.5,4.27H165.21a4.65,4.65,0,0,1-2.24-.56,4.25,4.25,0,0,1-2.27-3.71V106.18a4.39,4.39,0,0,1,4.51-4.27h33.92a4.6,4.6,0,0,1,2.94,1A4.15,4.15,0,0,1,203.63,106.18Z"/><polygon class="cls-38" points="161.07 114.74 161.15 127.29 203.41 118.73 203.63 106.18 161.07 114.74"/><path class="cls-39" d="M100.82,186.51h.46a4.31,4.31,0,0,1,4.31,4.31v22.75a3.56,3.56,0,0,1-3.56,3.56h-2a3.56,3.56,0,0,1-3.56-3.56V190.82a4.31,4.31,0,0,1,4.31-4.31Z" transform="translate(302.87 100.77) rotate(90)"/><path class="cls-40" d="M110.63,198.47h.25a2.35,2.35,0,0,1,2.35,2.35v15.51a2.16,2.16,0,0,1-2.16,2.16h-.62a2.16,2.16,0,0,1-2.16-2.16V200.82A2.35,2.35,0,0,1,110.63,198.47Z" transform="translate(346.83 208.95) rotate(118.1)"/><path class="cls-41" d="M153.27,174.06h.27a2.54,2.54,0,0,1,2.54,2.54v71.26A2.1,2.1,0,0,1,154,250h-1.16a2.1,2.1,0,0,1-2.1-2.1V176.61a2.54,2.54,0,0,1,2.54-2.54Z" transform="translate(365.42 58.6) rotate(90)"/></g></g></svg>