<svg id="Layer_54" data-name="Layer 54" xmlns="http://www.w3.org/2000/svg" viewBox="0 0 256 256"><defs><style>.cls-1{opacity:0.5;}.cls-2{fill:#fff;}.cls-3,.cls-8{fill:#036000;}.cls-3,.cls-4,.cls-8{stroke:#053d01;}.cls-10,.cls-12,.cls-13,.cls-14,.cls-3,.cls-4,.cls-8{stroke-miterlimit:10;}.cls-3{stroke-width:0.25px;}.cls-4{fill:#23ad18;stroke-width:0.5px;}.cls-5{fill:#17820c;}.cls-6{fill:#17c105;}.cls-7{fill:#0d5906;}.cls-9{fill:#0d8407;}.cls-10{fill:#7951ba;}.cls-10,.cls-12,.cls-13{stroke:#322255;}.cls-11,.cls-12{fill:#5d3395;}.cls-13{fill:#7545b1;}.cls-14{fill:#ff9b00;stroke:#e06d05;stroke-width:0.75px;}.cls-15{fill:#ffc100;}.cls-16{fill:#fcd68b;}.cls-17{fill:#8f6dd9;}</style></defs><path class="cls-1" d="M120.16,253.62h-.4a7.66,7.66,0,0,1-6.23-3.7,140.52,140.52,0,0,1-7.6-14.72,5.72,5.72,0,0,1-1.33-3.11,131.44,131.44,0,0,1-5.13-15,5.83,5.83,0,0,1-1.21-3.2,36.68,36.68,0,0,0-.48-3.66c-.21-1-.41-2-.59-2.95a49.49,49.49,0,0,0-5.38-13.81c-5.72-1.1-17-4.27-24.29-12.77l-.16-.18a28.41,28.41,0,0,1-4.66-7.75h0a28.85,28.85,0,0,1-1.65-5.93h0a34.3,34.3,0,0,1-.34-8.53c0-.18,0-.28,0-.28l.44-4.86,4.88.1a24.35,24.35,0,0,1,4.68.7,35.14,35.14,0,0,1,7.38,2.7h0a37.5,37.5,0,0,1,7.68,5.09h0a43.59,43.59,0,0,1,9.53,11.64,150.1,150.1,0,0,1,5.42-29.93,49.62,49.62,0,0,0-2.93-8.79c-3.56-1-9.09-3.21-12.74-8h0a17,17,0,0,1-2.57-4.83h0a17.59,17.59,0,0,1-.81-3.62h0a20.86,20.86,0,0,1,0-4.67c0-.34.06-.53.06-.53l.74-4.77,4.83.31a15,15,0,0,1,2.9.59,19.28,19.28,0,0,1,3,1.14h.1l1.19.67a21.65,21.65,0,0,1,4.31,3.19h0a27.4,27.4,0,0,1,7.39,13,.41.41,0,0,1,.05.09,254.85,254.85,0,0,1,13.42-28.36c.55-1,1.08-2.09,1.56-3.14l-.39-.15-.12.07a31.08,31.08,0,0,1-4,1.8,37.12,37.12,0,0,1-13,2.59C94.23,100,89,95.4,87.06,93.26c-2.38-1.52-8.24-5.91-9.16-12.68A14.33,14.33,0,0,1,80.85,70l-1-.1a17,17,0,0,1-15.22-16.2C64.39,48,67.39,40.91,76.17,38c-1.82-4.18-2-8.07-.48-11.26,2-4.22,6.48-6.63,13.3-7.15l.29,0h.29a46.9,46.9,0,0,1,21.11,6.68c1.23-14.07,10.19-19.15,18.44-19.15l.89,0a14.93,14.93,0,0,1,3.35-.39c8.68,0,13.25,7.74,14.81,13a26.47,26.47,0,0,1,11.2-5.95,15.7,15.7,0,0,1,3.76-.48,11.7,11.7,0,0,1,9.47,4.65C176,22.37,176.5,29,176,32.42a23,23,0,0,1-1.29,8.63,42.11,42.11,0,0,1,5.34-.35c7.49,0,13.45,2.21,16.78,6.23a12.82,12.82,0,0,1,2.62,10.91C197.69,67.4,192.6,70.46,189,71.42a14.9,14.9,0,0,1-5.78,6.31c-1.83,1.72-6.29,4.81-14.75,4.81-1,0-2-.05-3.08-.14a17.78,17.78,0,0,1-3.17,6.07c-2.49,3.12-8.43,8.37-20.16,8.37-1.28,0-2.62-.06-4-.19l-.83.11a71.92,71.92,0,0,1-2.85,6.63,11.06,11.06,0,0,1,1.94.26l4.69,1.14-.79,4.84s0,.14-.08.4a14.62,14.62,0,0,1-1,3.16h0a13.13,13.13,0,0,1-1.39,2.34h0a12.73,12.73,0,0,1-2.92,2.8h0a16.47,16.47,0,0,1-9.32,2.64l-.07.09a167.38,167.38,0,0,0-12.11,35A24.16,24.16,0,0,1,124,148.88h0a18.28,18.28,0,0,1,5.38-.81h.45a19,19,0,0,1,4,.53h0a21.9,21.9,0,0,1,4.74,1.76c.32.15.49.25.49.25l4.26,2.33-2,4.44a16.08,16.08,0,0,1-1.66,2.69,22.1,22.1,0,0,1-3.42,3.64h0a24.21,24.21,0,0,1-4.85,3.19h0a28.51,28.51,0,0,1-12.81,2.82c-.53,0-1.06,0-1.61,0a21.55,21.55,0,0,0-6.42,5.92,115.9,115.9,0,0,0,1.06,25.17,44.14,44.14,0,0,1,8.86-14.31h0a37.67,37.67,0,0,1,7.07-5.92h0a35,35,0,0,1,7-3.51,23.58,23.58,0,0,1,4.57-1.22l4.8-.67,1,4.78,0,.3a34.61,34.61,0,0,1,.62,8.51h0a28.28,28.28,0,0,1-1,6.08h0a27.87,27.87,0,0,1-3.76,8.23h0c-6.51,9.73-17.94,14.16-23.43,15.8-.24.8-.45,1.65-.65,2.52a121.25,121.25,0,0,0,10,21.11,7.28,7.28,0,0,1,.72,5.78,7.49,7.49,0,0,1-3.88,4.56A7.81,7.81,0,0,1,120.16,253.62Z"/><path class="cls-2" d="M115.82,249.28h-.4a7.66,7.66,0,0,1-6.23-3.7,140.52,140.52,0,0,1-7.6-14.72,5.8,5.8,0,0,1-1.33-3.11,131.44,131.44,0,0,1-5.13-15,5.75,5.75,0,0,1-1.2-3.2c0-.38-.15-1.69-.49-3.66-.21-1-.41-2-.59-2.95a49.61,49.61,0,0,0-5.38-13.81c-5.72-1.1-17-4.27-24.29-12.77l-.15-.18a28.2,28.2,0,0,1-4.67-7.75h0a29.49,29.49,0,0,1-1.65-5.93h0a34.79,34.79,0,0,1-.34-8.53c0-.18,0-.28,0-.28l.44-4.86,4.88.1a24.35,24.35,0,0,1,4.68.7,34.94,34.94,0,0,1,7.38,2.7h0a37.83,37.83,0,0,1,7.69,5.09h0A43.4,43.4,0,0,1,91,169.08a150.23,150.23,0,0,1,5.42-29.93,49.62,49.62,0,0,0-2.93-8.79c-3.56-1-9.09-3.21-12.74-8h0a17,17,0,0,1-2.57-4.83h0a18.27,18.27,0,0,1-.81-3.62h0a20.77,20.77,0,0,1,0-4.66c0-.35.06-.54.06-.54l.74-4.77,4.83.31a15,15,0,0,1,2.9.59,19.28,19.28,0,0,1,3,1.14H89l1.19.67a22,22,0,0,1,4.31,3.19h0a27.4,27.4,0,0,1,7.39,13,.41.41,0,0,1,0,.09A254.85,254.85,0,0,1,115.34,94.5c.55-1,1.08-2.09,1.56-3.13l-.39-.16-.12.07a31.08,31.08,0,0,1-4,1.8,37.12,37.12,0,0,1-13,2.59c-9.51,0-14.75-4.61-16.68-6.75C80.34,87.4,74.48,83,73.56,76.24a14.33,14.33,0,0,1,3-10.59l-1-.1a17,17,0,0,1-15.21-16.2c-.21-5.68,2.79-12.78,11.57-15.71-1.81-4.18-2-8.07-.48-11.26,2-4.22,6.48-6.63,13.3-7.15l.29,0h.29a46.9,46.9,0,0,1,21.11,6.68c1.23-14.07,10.19-19.15,18.44-19.15l.89,0A14.93,14.93,0,0,1,129,2.38c8.68,0,13.25,7.74,14.81,13a26.47,26.47,0,0,1,11.2-6A15.7,15.7,0,0,1,158.79,9a11.7,11.7,0,0,1,9.47,4.65c3.41,4.43,3.9,11.1,3.43,14.48a23,23,0,0,1-1.29,8.63,42.23,42.23,0,0,1,5.34-.35c7.49,0,13.45,2.21,16.78,6.23a12.82,12.82,0,0,1,2.62,10.91c-1.79,9.56-6.88,12.62-10.46,13.58a14.84,14.84,0,0,1-5.78,6.31c-1.83,1.72-6.29,4.81-14.75,4.81-1,0-2,0-3.08-.14a17.78,17.78,0,0,1-3.17,6.07c-2.49,3.12-8.43,8.37-20.16,8.37-1.28,0-2.62-.06-4-.19l-.83.11a71.92,71.92,0,0,1-2.85,6.63,11.06,11.06,0,0,1,1.94.26l4.69,1.14-.79,4.84s0,.14-.08.4a14.62,14.62,0,0,1-1,3.16h0a13.13,13.13,0,0,1-1.39,2.34h0a12.73,12.73,0,0,1-2.92,2.8h0a16.47,16.47,0,0,1-9.32,2.64l-.07.09a168,168,0,0,0-12.11,35,24.16,24.16,0,0,1,10.67-7.17h0a18.28,18.28,0,0,1,5.38-.81h.45a19,19,0,0,1,4,.53h0a21.9,21.9,0,0,1,4.74,1.76c.32.15.49.25.49.25L139,148.6,137,153a16.08,16.08,0,0,1-1.66,2.69,22.1,22.1,0,0,1-3.42,3.64h0a24.21,24.21,0,0,1-4.85,3.19h0a28.51,28.51,0,0,1-12.81,2.82c-.53,0-1.06,0-1.61,0a21.68,21.68,0,0,0-6.42,5.92,115.9,115.9,0,0,0,1.06,25.17,44.14,44.14,0,0,1,8.86-14.31h0a37.67,37.67,0,0,1,7.07-5.92h0a35,35,0,0,1,7-3.51,23.58,23.58,0,0,1,4.57-1.22l4.8-.67,1,4.78,0,.3a34.61,34.61,0,0,1,.62,8.51h0a28.28,28.28,0,0,1-1,6.08h0a27.87,27.87,0,0,1-3.76,8.23h0c-6.51,9.74-17.94,14.16-23.43,15.8-.24.8-.45,1.65-.65,2.52a121.25,121.25,0,0,0,10,21.11,7.28,7.28,0,0,1,.72,5.78,7.49,7.49,0,0,1-3.88,4.56A7.81,7.81,0,0,1,115.82,249.28Z"/><path class="cls-3" d="M105.72,227.56h0c-.14,0-.25-.22-.25-.46s.35-20.1,9.62-26.77c.13-.09.28,0,.34.23a.56.56,0,0,1-.11.56c-9,6.46-9.33,25.85-9.33,26S105.85,227.55,105.72,227.56Z"/><path class="cls-4" d="M109,210.2s32-6.39,26.54-33.57C135.52,176.63,113.75,179.64,109,210.2Z"/><path class="cls-5" d="M109.54,209.63s5.26-22.53,25.77-32.52C135.31,177.11,113.88,180.31,109.54,209.63Z"/><path class="cls-6" d="M109.54,209.63s25.52-8,26-33C135.52,176.63,140.7,202.08,109.54,209.63Z"/><polygon class="cls-7" points="134.78 178.32 110.19 209.91 108.98 210.2 109.19 208.92 134.78 178.32"/><path class="cls-7" d="M113.63,204.82s3.67,1.34,12.9-3.34"/><path class="cls-7" d="M113.91,195s-1.76,6.26-.31,9.65"/><path class="cls-7" d="M119.19,198.36s3.53,2,13-2.55"/><path class="cls-7" d="M119.92,185.67s-1.86,7.83-.81,12"/><path class="cls-7" d="M135.29,189.1s-5.86,4-11.6,3.47"/><path class="cls-7" d="M126,180.57a16.77,16.77,0,0,0-2,10.57"/><path class="cls-7" d="M132,177.59s-2.44,3.1-1.82,6.65"/><path class="cls-7" d="M136.1,184.1s-6.91,3.24-7.17,1.74"/><path class="cls-3" d="M99.7,209.81h.06a.62.62,0,0,0,.58-.64c0-.29-1.83-28.63-24-38.58a.6.6,0,0,0-.8.31.61.61,0,0,0,.3.8C97.34,181.35,99.1,209,99.12,209.24A.61.61,0,0,0,99.7,209.81Z"/><path class="cls-4" d="M91.71,184.54s-32.49-2.76-30.13-30.38C61.58,154.16,83.54,154.71,91.71,184.54Z"/><path class="cls-5" d="M91.09,184s-7.75-21.79-29.25-29.42C61.84,154.61,83.49,155.39,91.09,184Z"/><path class="cls-6" d="M91.09,184S64.83,179,61.58,154.16C61.58,154.16,59.28,180,91.09,184Z"/><polygon class="cls-7" points="62.5 155.76 90.48 184.39 91.71 184.54 91.35 183.29 62.5 155.76"/><path class="cls-7" d="M86.49,179.72s-3.5,1.74-13.19-1.88"/><path class="cls-7" d="M85.11,169.93s2.44,6,1.38,9.56"/><path class="cls-7" d="M80.24,173.92S77,176.36,67,172.85"/><path class="cls-7" d="M78.09,161.39s2.73,7.57,2.15,11.81"/><path class="cls-7" d="M63.2,166.52s6.27,3.31,11.92,2.16"/><path class="cls-7" d="M71.46,157a16.78,16.78,0,0,1,3.13,10.29"/><path class="cls-7" d="M65.18,154.72s2.77,2.81,2.56,6.4"/><path class="cls-7" d="M61.84,161.65s7.23,2.44,7.32.93"/><path class="cls-3" d="M103.06,154.9c.1,0,.18-.15.19-.34,1-19.09-7.09-31.31-7.17-31.43s-.19-.07-.24.09a.63.63,0,0,0,0,.49c.08.12,8.08,12.13,7,30.83,0,.19.06.35.15.36Z"/><path class="cls-4" d="M97.28,125.88s-16.65-2.31-14.68-16.47C82.6,109.41,93.89,110.3,97.28,125.88Z"/><path class="cls-5" d="M97,125.6s-3.4-11.43-14.26-15.95C82.72,109.65,93.85,110.65,97,125.6Z"/><path class="cls-6" d="M97,125.6S83.6,122.27,82.6,109.41C82.6,109.41,80.71,122.67,97,125.6Z"/><polygon class="cls-7" points="83.03 110.26 96.65 125.77 97.28 125.88 97.13 125.23 83.03 110.26"/><path class="cls-7" d="M94.73,123.26s-1.85.8-6.74-1.33"/><path class="cls-7" d="M94.28,118.18s1.09,3.17.45,5"/><path class="cls-7" d="M91.67,120.1s-1.76,1.16-6.79-.92"/><path class="cls-7" d="M90.9,113.59s1.2,4,.79,6.14"/><path class="cls-7" d="M83.09,115.82s3.14,1.88,6.08,1.44"/><path class="cls-7" d="M87.61,111.15a8.66,8.66,0,0,1,1.33,5.38"/><path class="cls-7" d="M84.44,109.8a4.85,4.85,0,0,1,1.14,3.37"/><path class="cls-7" d="M82.53,113.28s3.65,1.45,3.74.67"/><path class="cls-3" d="M109.9,127.29c-.06,0-.08-.12-.05-.23,3.08-11.49,10.26-17.13,10.33-17.19s.12,0,.13.1a.4.4,0,0,1-.11.28c-.07.06-7.13,5.61-10.14,16.86,0,.12-.1.2-.16.18Z"/><path class="cls-4" d="M118.94,111.26s10.28,1.86,11.87-6.89C130.81,104.37,124,102.71,118.94,111.26Z"/><path class="cls-5" d="M119.17,111.16s4.22-6.1,11.52-6.67C130.69,104.49,123.92,102.92,119.17,111.16Z"/><path class="cls-6" d="M119.17,111.16s8.55.62,11.64-6.79C130.81,104.37,129.35,112.58,119.17,111.16Z"/><polygon class="cls-7" points="130.39 104.79 119.33 111.32 118.94 111.26 119.15 110.91 130.39 104.79"/><path class="cls-7" d="M121,110.2s.94.84,4.25.53"/><path class="cls-7" d="M122.2,107.29a6.1,6.1,0,0,0-1.23,2.84"/><path class="cls-7" d="M123.37,108.93s.82,1,4.19.78"/><path class="cls-7" d="M125.09,105.23a11,11,0,0,0-1.66,3.48"/><path class="cls-7" d="M129.27,108.07a6.68,6.68,0,0,1-3.87-.33"/><path class="cls-7" d="M127.51,104.43a5.38,5.38,0,0,0-1.83,2.92"/><path class="cls-7" d="M129.64,104.24a3,3,0,0,0-1.32,1.77"/><path class="cls-7" d="M130.1,106.67s-2.44.15-2.35-.33"/><path class="cls-3" d="M98.84,173.78a.61.61,0,0,0,.62-.43c4.6-15.07,27.77-19.16,28-19.2a.61.61,0,1,0-.2-1.2c-1,.17-24.15,4.26-29,20a.6.6,0,0,0,.41.76A.35.35,0,0,0,98.84,173.78Z"/><path class="cls-8" d="M115.68,244.07a2.66,2.66,0,0,0,1.29-.27,2.12,2.12,0,0,0,1-3c-36.54-61.6-5.37-119.93,6.36-141.89,15.08-28.22,1.83-47.05,1.26-47.84a2.59,2.59,0,0,0-3.37-.63,2.12,2.12,0,0,0-.7,3.08c.52.72,12.22,17.63-1.57,43.45-12,22.52-44,82.34-6.26,145.94A2.46,2.46,0,0,0,115.68,244.07Z"/><path class="cls-9" d="M125.7,85.12a78.13,78.13,0,0,1-8,19.71c-5.47,9-17.1,32.22-19.47,76.83,0,0-3,27.19,16.38,61.59,0,0-8.51-11.45-13.83-31.8-4.48-17.16-7-41,1-71.07A201.84,201.84,0,0,1,116.73,104s3.82-5.35,8.64-19.25Z"/><path class="cls-10" d="M111.08,47.42S89.47,36.63,81.15,36.59a2.86,2.86,0,0,1-2.39-1.23C76.19,31.65,70.6,21.53,85,20.42c0,0,25.42.87,32,23.66Z"/><path class="cls-11" d="M76.44,24.83s-2,2.72,2.62,10.52a2.55,2.55,0,0,0,2,.95c3.27.31,14.57,2.06,30.88,10.87,0,0-5.73-7.34-18.73-11.3a7.56,7.56,0,0,0-1.72-.3C88.33,35.39,77.24,34.1,76.44,24.83Z"/><path class="cls-12" d="M144,67.06l6.51-9.8s18.12.89,18.22,1,7.17,8.46,7.17,8.46l-.14,2.5s-5.1,6.5-21.18,2.48S144,67.06,144,67.06Z"/><path class="cls-12" d="M154.13,29.09c.42-.37,12.32-1.32,12.32-1.32,1.16,15.37-18.12,24.81-18.12,24.81l-2.66,5.59s-6.67-6.58-6.35-7S153.72,29.46,154.13,29.09Z"/><path class="cls-13" d="M132.8,54.92s15.11-5.42,29-10.7,30.27-2.73,28.2,8.32-9.11,9.68-9.11,9.68-2.13,12.14-17,6.5S150.2,67.6,147.31,68s-18.08-9.12-16.06-11.8S132.8,54.92,132.8,54.92Z"/><path class="cls-10" d="M144.44,50.69s6.6-9.72,13.9-11.4,7.49-9.18,8.11-11.52.26-15.89-10.15-13.29S138.52,27.27,130.16,49s7.59,7.6,7.59,7.6Z"/><path class="cls-12" d="M137.46,39.48s5.92-16.2,1.58-21.87c0,0-3-12.5-12.92-9.58,0,0-14.11-2.13-14.69,16.11s7.88,30.06,7.88,30.06l16.13-4.38Z"/><path class="cls-10" d="M76,60.37a89,89,0,0,0,11.86.24,110.65,110.65,0,0,0,19.94-2.43c4.9-1.13,8.85-2.63,10.74-4.52l.18-3.24S92.61,35,76.28,37.88,63.93,59.14,76,60.37Z"/><path class="cls-11" d="M87.86,60.61a110.65,110.65,0,0,0,19.94-2.43L114,52.71S104.05,50.16,87.86,60.61Z"/><path class="cls-13" d="M86.17,84.92s7,9.85,24.41,3.28a25.49,25.49,0,0,0,3.35-1.51C127.34,79.52,123,66,123,66l3.72-8.17,3.67-8-10,1.36S93.24,56.06,82.59,66.55,86.17,84.92,86.17,84.92Z"/><path class="cls-11" d="M113.93,86.69C127.34,79.52,123,66,123,66l3.72-8.17c-.8.5-1.67,1.07-2.59,1.72C102.38,74.83,113.93,86.69,113.93,86.69Z"/><path class="cls-10" d="M132.9,58.67S152,64.73,155.5,70.15s-1.91,19.07-21.85,16.92c0,0-18.63,3.05-19.16-5.47s4.43-16.36,10.68-22.45S131.07,58.07,132.9,58.67Z"/><path class="cls-14" d="M110.62,48.52c-.37,6.9,6.21,12.85,14.7,13.31s15.66-4.77,16-11.67-6.21-12.86-14.7-13.31S111,41.62,110.62,48.52Z"/><path class="cls-15" d="M115.65,46.71c-.29,5.43,4.89,10.12,11.57,10.48s12.32-3.76,12.61-9.19-4.89-10.11-11.56-10.47S115.94,41.28,115.65,46.71Z"/><path class="cls-16" d="M131.84,41.86c-.42.85.38,2.11,1.79,2.82s2.9.59,3.33-.26-.38-2.1-1.79-2.81S132.27,41,131.84,41.86Z"/><path class="cls-17" d="M134.46,62.35c4.82-.49,9.42,2.74,13.36,5.1,2.77,1.65,7.25,4.18,7.11,7.91,0,0,0,0,0,0-.23-3.88-6-6-8.93-7.53-3.9-2-7.15-4.41-11.53-5.36C134.4,62.46,134.41,62.36,134.46,62.35Z"/><path class="cls-17" d="M164.06,45.73c5.66-2.34,10.6-2.95,16.62-1.46,3.61.9,7.47,2.21,7.82,6.39,0,.08-.11.11-.12,0-.69-4.38-7.25-4.88-10.76-5.49a35.66,35.66,0,0,0-13.49.71A.1.1,0,0,1,164.06,45.73Z"/><path class="cls-17" d="M162.21,46.21h0a5.74,5.74,0,0,0-2.52,1h0A6,6,0,0,1,162.21,46.21Z"/><path class="cls-17" d="M154.88,49.84c.69-.41,1.41-.8,2.11-1.2a14.67,14.67,0,0,1-2.07,1.26S154.84,49.86,154.88,49.84Z"/><path class="cls-17" d="M157.79,48.14c-.26.16-.52.34-.8.5C157.26,48.46,157.52,48.29,157.79,48.14Z"/><path class="cls-17" d="M158.59,47.73a6,6,0,0,0-.8.41c.25-.16.52-.3.76-.47A0,0,0,1,1,158.59,47.73Z"/><path class="cls-17" d="M149.77,20.3c3.41-2,6.92-4.33,11.06-3.78a.08.08,0,0,1,0,.16c-3.58.09-7.3,3.28-10.33,5-3.69,2.1-5.91,4.58-8.37,8a.08.08,0,0,1-.13-.08C144.25,25.72,145.86,22.62,149.77,20.3Z"/><path class="cls-17" d="M115.13,16.72a11.27,11.27,0,0,1,6.42-6.6s.06.06,0,.07c-7,3.24-6.47,13.64-7.35,19.93,0,0-.09.06-.09,0C113.72,25.16,113.21,21.54,115.13,16.72Z"/><path class="cls-17" d="M83.37,24.29c.33,0,.65-.05,1,0,0,0,0,0,0,0-.33,0-.65.06-1,.07C83.32,24.36,83.32,24.29,83.37,24.29Z"/><path class="cls-17" d="M85,24.17a21.59,21.59,0,0,1,15.87,1.64,22.11,22.11,0,0,1,10.67,12.43.12.12,0,0,1-.22.08c-4.63-9.09-16-15.89-26.3-14.06A0,0,0,0,1,85,24.17Z"/><path class="cls-17" d="M79.57,40.17c4-.2,8.14.83,12,1.69,4.78,1,10.25,2.23,14.6,4.49a0,0,0,0,1,0,.06c-6.32-3.13-14-3.3-20.88-4.22-6.23-.83-16.31-.14-16.42,8.43,0,.17-.25.17-.29,0C66.83,44.11,74.18,40.44,79.57,40.17Z"/><path class="cls-17" d="M81.71,71.66c1.09-2.37,2.61-3.19,4.46-4.8a18.36,18.36,0,0,1,5.38-3.55.08.08,0,0,1,.07.15c-3.33,1.86-5.14,3.92-7.37,6.92-2.73,3.67-2.13,6.86,1.06,9.9.16.15,0,.43-.24.36C80.92,79.19,80,75.47,81.71,71.66Z"/><path class="cls-4" d="M109.52,159.84s8.76-16.43,22.73-9C132.25,150.86,127,162.26,109.52,159.84Z"/><path class="cls-5" d="M109.93,159.63s13.18.83,22-8.73C132,150.9,126.67,162.08,109.93,159.63Z"/><path class="cls-6" d="M109.93,159.63s8.57-12.64,22.32-8.77C132.25,150.86,119.18,143.83,109.93,159.63Z"/><polygon class="cls-7" points="131.2 150.98 109.88 159.22 109.52 159.84 110.26 159.93 131.2 150.98"/><path class="cls-7" d="M113.23,158.18s-.13-2.23,4-6.5"/><path class="cls-7" d="M118.67,159.66s-3.71-.08-5.32-1.43"/><path class="cls-7" d="M117.68,156.21s-.54-2.27,3.54-6.71"/><path class="cls-7" d="M124.73,157.9s-4.58-.27-6.68-1.53"/><path class="cls-7" d="M125.39,148.93s-3.15,2.55-3.81,5.77"/><path class="cls-7" d="M128.52,155.41a9.61,9.61,0,0,1-6.1-.68"/><path class="cls-7" d="M131.14,152.62a5.37,5.37,0,0,1-3.94-.09"/><path class="cls-7" d="M128.26,149.31s-2.91,3.25-2.14,3.63"/></svg>