<svg id="Layer_54" data-name="Layer 54" xmlns="http://www.w3.org/2000/svg" viewBox="0 0 256 256"><defs><style>.cls-1{opacity:0.5;}.cls-2{fill:#fff;}.cls-3,.cls-9{fill:#c7c2b5;}.cls-18,.cls-19,.cls-3,.cls-4,.cls-5,.cls-8{stroke:#333;stroke-miterlimit:10;}.cls-4,.cls-7{fill:#f4f0df;}.cls-10,.cls-5{fill:#df771f;}.cls-6,.cls-8{fill:#ff912a;}.cls-11{fill:#2c1f21;}.cls-12{fill:#ffdd7c;}.cls-13{fill:#ceb062;}.cls-14{fill:#613e40;}.cls-15{fill:#2e1e20;}.cls-16{fill:#4a9544;}.cls-17{fill:#347230;}.cls-18,.cls-19{fill:none;}.cls-19{stroke-width:0.99px;}</style></defs><g class="cls-1"><path d="M122.24,251a13.82,13.82,0,0,1-1.58-.09,13.32,13.32,0,0,1-4.22-1.14,14.59,14.59,0,0,1-4.92.86c-.42,0-.84,0-1.25-.06a13.21,13.21,0,0,1-5.36-1.63c-.48,0-.93.05-1.33.05-2.13,0-6.07-.39-8.57-3a10.16,10.16,0,0,1-2.48-4.53l-3,1.58a15.43,15.43,0,0,1-2.19,1,41.65,41.65,0,0,1-13.73,1.9,60.23,60.23,0,0,1-7.89-.49l-4.4-.86a16.39,16.39,0,0,1-3.54-.54h-.23a13.11,13.11,0,0,1-8.32-3.17,11.28,11.28,0,0,1-3.67-9.55q0-.65.12-1.29l-.19-.18.83-3.42c1.8-7.41,5.71-12.23,10.74-13.22a14.39,14.39,0,0,1,2.78-.27h.73a16.56,16.56,0,0,1,2,.12l.61.07v0h.58l.77,0c0-.38,0-.76.07-1.14.09-1.39.13-2.66.11-3.72,0-.2,0-.45,0-.71l-.05-.46a26,26,0,0,0-.49-2.71c-.43-2-1.07-4.34-1.8-7.07l-.12-.47c-.88-3.28-2-7.37-3.16-12.31l-.86-3.69c-.4-1.8-.77-3.6-1.16-5.56l-.34-1.77v0c-.54-2.94-1-5.86-1.45-8.91q-.25-1.76-.45-3.3c0-.15-.05-.31-.07-.46-.29-2.2-.57-4.27-.86-5.54s-.85-3.3-1.51-5.62l0-.16c-.65-2.32-1.29-4.6-1.88-6.9l-.31-1.22L49.74,140s-.45-1.93-.51-2.22-.16-.76-.24-1.14l-.21-1.05c-.13-.71-.25-1.4-.34-2.06,0-.12,0-.24,0-.36-.06-.41-.1-.83-.14-1.25l-.66-.44.5-3.75a79.38,79.38,0,0,1,.95-11l-.63-.87,1-3.06c.22-.61.41-1.23.58-1.83l.06-.34c.16-.81.32-1.6.48-2.34l0-.1c0-.36.07-.67.08-.94l.13-3.2-2.52-.54a27.38,27.38,0,0,1-2.74-.76l-1.09,1.1-4.1-2.67a17.59,17.59,0,0,1-4.44-4.54l-1.08.26,0-.06-.58.14L33,92l0-.09a16.86,16.86,0,0,1-1.07-6.79c-.54-.76-1.34-1.74-2.24-2.77L28,83l0,0-.36.14-2.51-4.57c-.44-.8-.85-1.62-1.23-2.42l-1.35.26-1.63-5A19.38,19.38,0,0,1,20,66.23l-1.37-.37,1.25-5.61a30.39,30.39,0,0,1,5.91-12l1.34-1.65.13,0c.3-.32.67-.71,1.1-1.11l.22-.37.82-.68.34-.31.13-.12A22.39,22.39,0,0,0,33,39.55c.35-.59.73-1.23,1.16-1.91a15.62,15.62,0,0,1-3.5-7.45l0-.15V29.9a24.08,24.08,0,0,1-.11-2.44v-.18c0-.23,0-.41,0-.59V26.4c0-.23,0-.4,0-.57l0-.31c0-.16,0-.33.05-.5l0-.28c0-.2,0-.36.07-.52l.13-.81a21.83,21.83,0,0,1,1.1-4l.36-.94.32-.74,0-.13.15-.32a13.34,13.34,0,0,1,2.9-4l.41-.3a21.6,21.6,0,0,1,2.65-1.69l1.41-.77.31-.09A8.56,8.56,0,0,1,43.12,10c2.14,0,5.22.81,7.71,4.66l3,3.61-.09.09a13.94,13.94,0,0,0,1.13,1.26,20,20,0,0,0,1.74,1.28l.47,0c.5,0,1,0,1.49,0a41.25,41.25,0,0,1,6.72.67l.62.1h.32c.48,0,1,0,1.56-.06l2.89-.19c.88-.05,2-.11,3.16-.11.9,0,1.68,0,2.4.11a18.65,18.65,0,0,1,5.37,1.43c.84-.42,1.61-.82,2.28-1.2a25.89,25.89,0,0,1,10.42-2.93c.43,0,.84,0,1.24,0a14.23,14.23,0,0,1,8.14,2.23,14.3,14.3,0,0,1,5.88,9.88,19.3,19.3,0,0,1,.19,2.16l-.62,5.74s-.24.92-.24.92A16,16,0,0,1,106,45c-.39.46-.82.92-1.33,1.42l-.14.14c-.42.4-.81.75-1.21,1.09s-1,.87-1.56,1.27A31.28,31.28,0,0,1,103.47,52a24.46,24.46,0,0,1,2.2,7.21,71.71,71.71,0,0,1,3.59,8l.3.39.21,1c.29.84.58,1.71.85,2.62.74.09,1.51.2,2.3.33,1.21.19,2.31.39,3.27.6a23.69,23.69,0,0,1,3.6,1.07,17.38,17.38,0,0,1,3.44,2c.79.57,1.66,1.24,2.74,2.12l1,.81a15.29,15.29,0,0,0,4.12.82l2-.61,2.19-.65-.11-.33,4-.85,1.1-.33.06.08,3-.64c1.57-.41,3.19-.79,4.82-1.14,1.08-.24,2.21-.46,3.35-.67a71.88,71.88,0,0,1,8-1l3-.19.72,0,1.42-.06h0c1,0,2.05-.07,3-.07,1.5,0,2.87.06,4.17.18a29.68,29.68,0,0,1,3.18.43,27,27,0,0,1,10.1,4c.49.31,1,.65,1.47,1,.34.24.72.53,1.09.84a46.23,46.23,0,0,1,8.66,10.31L199.48,96l1.67,2.88a31.33,31.33,0,0,1,3.1,7.42h0a18.64,18.64,0,0,1,.6,3.73c.21,4.46-.67,12.58-1.52,20.43v.11c-.51,4.72-1,9.11-1.14,12-.09,1.64-.17,3.46-.23,5.43l.23.07a29.19,29.19,0,0,0-.14,4.36l.08,1.44-.3.67c0,6,.1,11.36.42,15.4l2.29-1.3-.83,11.2a4.59,4.59,0,0,0,0,.57l.05.86c.41,2.67.62,3.86,1,5.7.9,4.45.36,7.71-1.29,15.23l-.73,3.27a131.39,131.39,0,0,0-2.95,16.45c-.19,1.75-.28,3.29-.36,4.85a33.3,33.3,0,0,1-.76,6.48c0,.05.08,2.29.08,2.29l-1.39,1.88a10.87,10.87,0,0,1-3,2.65,21.59,21.59,0,0,1-10.86,3,16.71,16.71,0,0,1-3.63-.38,12.12,12.12,0,0,1-3.29.79l.63.81-7.2-1.17a13.77,13.77,0,0,1-1.89.16h-.53a12.93,12.93,0,0,1-6.36-1.58,8.63,8.63,0,0,1-5-2.85,10.24,10.24,0,0,1-1.4-2.12h-.95a19.28,19.28,0,0,1-5.07-.5c-.35,0-.7,0-1,0a13.34,13.34,0,0,1-5.4-1.07l-.09.07c.31,4.46-.63,8-2.77,10.32a12.5,12.5,0,0,1-9.31,4.1c-.35,0-.66,0-.91,0s-.54,0-.8-.09A13.43,13.43,0,0,1,122.24,251ZM99,204.93c-.05,5.13-.05,9.72,0,11.39a15.34,15.34,0,0,1-.8,5.28,11.19,11.19,0,0,1,1.56-1.11c.06-1.57,0-3.4,0-5.51,0-.78-.09-1.61-.14-2.44v-.21c0-.41,0-.82-.08-1.22l0-.66c0-.34-.06-.67-.08-1v-.11C99.27,207.9,99.14,206.4,99,204.93Zm35.14,4.86c0,.49-.06,1-.08,1.39l0,.88c0,.4,0,.7,0,1a23.61,23.61,0,0,0,.24,4.39A18.27,18.27,0,0,1,138,212.1a11.25,11.25,0,0,1,7.9-3.13h0a10,10,0,0,1,2.58-.34,10.47,10.47,0,0,1,1.57.12l1.42.25.51-1.24a29.24,29.24,0,0,0,1.16-4.44l-.28-.09.79-5a6.59,6.59,0,0,0,.11-1.38l-.15-2.51-.73-1.22a4.94,4.94,0,0,0-.27-.42c-.27-.39-.54-.78-.81-1.19s-.48-.79-.71-1.19l-.11-.18-3.1-4.68L146.74,184l-.71-.91-.66-.52a9.85,9.85,0,0,1-2.85-3.78h0l-3.73-4.33-.06,0-.19,1.58.13,0-.59,3.79-.57,4.63-.13-.1-.72,4.78-.1,0-1.24,8.92,0,0-.49,4.1c-.06.44-.1.8-.13,1.16Z"/><path d="M219.78,207.24a26.59,26.59,0,0,1-10-1.94c-7.33-3-16.74-13.6-19.14-33.45l0-.19c-.45-5.16-.53-11.28-.52-15.51,0-.6,0-1.27,0-1.65l0-3.19,0,0,0-1.73-.22.07.55-8.74c0-.25,0-.57.06-.93,0-.81.09-1.77.15-2.44l.37-4.26.17,0,.06-.64c0-.2,0-.57,0-.94a20.54,20.54,0,0,1,.07-2.36l.35-3.22.25-.13c.24-2.53.51-5.66.73-8.18.15-1.7.27-3.17.36-4.1h0c0-.6.05-1.18.06-1.7l.05-5.06,10.28-1.65,1.64,4.76a63.73,63.73,0,0,1,3.34,16.78c.06,1,.1,2.12.14,3.24,0,0,0,.48,0,.63h0l.27,6.44c0,.27.05.68.08,1.08.06.69.11,1.37.12,1.81l.11,5.49-.25,0c0,.3,0,.59,0,.89h.26l.35,6,.06,1.09c0,.49,0,1,.07,1.43L210,158l.17,1.25c.09.68.19,1.35.3,2l.18,1.14c.31,1.88.59,3.62.88,5.27.17,1,.38,2.19.55,3.1.28,1.48.54,2.76.8,3.88l.17.66c.17.72.38,1.44.62,2.21l.22.72a11.65,11.65,0,0,0,2.48,4.56c2,2.06,2.82,2.19,2.82,2.19a3.79,3.79,0,0,0,1.43-.5,24.82,24.82,0,0,0,5-3.14,11.69,11.69,0,0,1,7.24-2.52,9.45,9.45,0,0,1,5.8,1.87A7.77,7.77,0,0,1,240,182c3.46,4.29,3.77,11.63-3.32,18.41A24,24,0,0,1,219.78,207.24Z"/></g><path class="cls-2" d="M117.24,246a13.82,13.82,0,0,1-1.58-.09,13.32,13.32,0,0,1-4.22-1.14,14.59,14.59,0,0,1-4.92.86c-.42,0-.84,0-1.25-.06a13.21,13.21,0,0,1-5.36-1.63c-.48,0-.93.05-1.33.05-2.13,0-6.07-.39-8.57-3a10.16,10.16,0,0,1-2.48-4.53l-3,1.58a15.43,15.43,0,0,1-2.19,1,41.65,41.65,0,0,1-13.73,1.9,60.23,60.23,0,0,1-7.89-.49l-4.4-.86a16.39,16.39,0,0,1-3.54-.54h-.23a13.11,13.11,0,0,1-8.32-3.17,11.28,11.28,0,0,1-3.67-9.55q0-.65.12-1.29l-.19-.18.83-3.42c1.8-7.41,5.71-12.23,10.74-13.22a14.39,14.39,0,0,1,2.78-.27h.73a16.56,16.56,0,0,1,2,.12l.61.07v0h.58l.77,0c0-.38.05-.76.07-1.14.09-1.39.13-2.66.11-3.72,0-.2,0-.45,0-.71l0-.46a26,26,0,0,0-.49-2.71c-.43-2-1.07-4.34-1.8-7.07l-.12-.47c-.88-3.28-2-7.37-3.16-12.31l-.86-3.69c-.4-1.8-.77-3.6-1.16-5.56l-.34-1.77v0c-.54-2.94-1-5.86-1.45-8.91q-.25-1.76-.45-3.3c0-.15-.05-.31-.07-.46-.29-2.2-.57-4.27-.86-5.54s-.85-3.3-1.51-5.62l0-.16c-.65-2.32-1.29-4.6-1.88-6.9l-.31-1.22L44.74,135s-.45-1.93-.51-2.22-.16-.76-.24-1.14l-.21-1.05c-.13-.71-.25-1.4-.34-2.06,0-.12,0-.24,0-.36-.06-.41-.1-.83-.14-1.25l-.66-.44.5-3.75a79.38,79.38,0,0,1,.95-11l-.63-.87,1-3.06c.22-.61.41-1.23.58-1.83l.06-.34c.16-.81.32-1.6.48-2.34l0-.1c0-.36.07-.67.08-.94l.13-3.2-2.52-.54a27.38,27.38,0,0,1-2.74-.76l-1.09,1.1-4.1-2.67a17.59,17.59,0,0,1-4.44-4.54l-1.08.26,0-.06-.58.14L28,87l0-.09a16.86,16.86,0,0,1-1.07-6.79c-.54-.76-1.34-1.74-2.24-2.77L23,78l0,0-.36.14-2.51-4.57c-.44-.8-.85-1.62-1.23-2.42l-1.35.26-1.63-5A19.38,19.38,0,0,1,15,61.23l-1.37-.37,1.25-5.61a30.39,30.39,0,0,1,5.91-12l1.34-1.65.13,0c.3-.32.67-.71,1.1-1.11l.22-.37.82-.68.34-.31.13-.12A22.39,22.39,0,0,0,28,34.55c.35-.59.73-1.23,1.16-1.91a15.62,15.62,0,0,1-3.5-7.45l0-.15V24.9a24.08,24.08,0,0,1-.11-2.44v-.18c0-.23,0-.41,0-.59V21.4c0-.23,0-.4,0-.57l0-.31c0-.16,0-.33.05-.5l0-.28c0-.2,0-.36.07-.52l.13-.81a21.83,21.83,0,0,1,1.1-4l.36-.94.32-.74.05-.13.15-.32a13.34,13.34,0,0,1,2.9-4l.41-.3a21.6,21.6,0,0,1,2.65-1.69l1.41-.77.31-.09A8.56,8.56,0,0,1,38.12,5c2.14,0,5.22.81,7.71,4.66l3,3.61-.09.09a13.94,13.94,0,0,0,1.13,1.26,20,20,0,0,0,1.74,1.28l.47,0c.5,0,1,0,1.49,0a41.25,41.25,0,0,1,6.72.67l.62.1h.32c.48,0,1,0,1.56-.06l2.89-.19c.88-.05,2-.11,3.16-.11.9,0,1.68,0,2.4.11a18.65,18.65,0,0,1,5.37,1.43c.84-.42,1.61-.82,2.28-1.2a25.89,25.89,0,0,1,10.42-2.93c.43,0,.84,0,1.24,0a14.23,14.23,0,0,1,8.14,2.23,14.3,14.3,0,0,1,5.88,9.88,19.3,19.3,0,0,1,.19,2.16l-.62,5.74s-.24.92-.24.92A16,16,0,0,1,101,40c-.39.46-.82.92-1.33,1.42l-.14.14c-.42.4-.81.75-1.21,1.09s-1,.87-1.56,1.27A31.28,31.28,0,0,1,98.47,47a24.46,24.46,0,0,1,2.2,7.21,71.71,71.71,0,0,1,3.59,8l.3.39.21,1c.29.84.58,1.71.85,2.62.74.09,1.51.2,2.3.33,1.21.19,2.31.39,3.27.6a23.69,23.69,0,0,1,3.6,1.07,17.38,17.38,0,0,1,3.44,2c.79.57,1.66,1.24,2.74,2.12l1,.81a15.29,15.29,0,0,0,4.12.82l2-.61,2.19-.65-.11-.33,4-.85,1.1-.33.06.08,3-.64c1.57-.41,3.19-.79,4.82-1.14,1.08-.24,2.21-.46,3.35-.67a71.88,71.88,0,0,1,8-1l3-.19.72,0,1.42-.06h0c1,0,2.05-.07,3-.07,1.5,0,2.87.06,4.17.18a29.68,29.68,0,0,1,3.18.43,27,27,0,0,1,10.1,4c.49.31,1,.65,1.47,1,.34.24.72.53,1.09.84a46.23,46.23,0,0,1,8.66,10.31L194.48,91l1.67,2.88a31.33,31.33,0,0,1,3.1,7.42h0a18.64,18.64,0,0,1,.6,3.73c.21,4.46-.67,12.58-1.52,20.43v.11c-.51,4.72-1,9.11-1.14,12-.09,1.64-.17,3.46-.23,5.43l.23.07a29.19,29.19,0,0,0-.14,4.36l.08,1.44-.3.67c0,6,.1,11.36.42,15.4l2.29-1.3-.83,11.2a4.59,4.59,0,0,0,0,.57l.05.86c.41,2.67.62,3.86,1,5.7.9,4.45.36,7.71-1.29,15.23l-.73,3.27a131.39,131.39,0,0,0-2.95,16.45c-.19,1.75-.28,3.29-.36,4.85a33.3,33.3,0,0,1-.76,6.48c0,.05.08,2.29.08,2.29l-1.39,1.88a10.87,10.87,0,0,1-3,2.65,21.59,21.59,0,0,1-10.86,3,16.71,16.71,0,0,1-3.63-.38,12.12,12.12,0,0,1-3.29.79l.63.81-7.2-1.17a13.77,13.77,0,0,1-1.89.16h-.53a12.93,12.93,0,0,1-6.36-1.58,8.63,8.63,0,0,1-5-2.85,10.24,10.24,0,0,1-1.4-2.12h-.95a19.28,19.28,0,0,1-5.07-.5c-.35,0-.7,0-1,0a13.34,13.34,0,0,1-5.4-1.07l-.09.07c.31,4.46-.63,8-2.77,10.32a12.5,12.5,0,0,1-9.31,4.1c-.35,0-.66,0-.91,0s-.54,0-.8-.09A13.43,13.43,0,0,1,117.24,246ZM94,199.93c-.05,5.13-.05,9.72,0,11.39a15.34,15.34,0,0,1-.8,5.28,11.19,11.19,0,0,1,1.56-1.11c.06-1.57,0-3.4,0-5.51,0-.78-.09-1.61-.14-2.44v-.21c0-.41,0-.82-.08-1.22l0-.66c0-.34-.06-.67-.08-1v-.11C94.27,202.9,94.14,201.4,94,199.93Zm35.14,4.86c0,.49-.06,1-.08,1.39l0,.88c0,.4,0,.7,0,1a23.61,23.61,0,0,0,.24,4.39A18.27,18.27,0,0,1,133,207.1a11.25,11.25,0,0,1,7.9-3.13h0a10,10,0,0,1,2.58-.34,10.47,10.47,0,0,1,1.57.12l1.42.25.51-1.24a29.24,29.24,0,0,0,1.16-4.44l-.28-.09.79-5a6.59,6.59,0,0,0,.11-1.38l-.15-2.51-.73-1.22a4.94,4.94,0,0,0-.27-.42c-.27-.39-.54-.78-.81-1.19s-.48-.79-.71-1.19l-.11-.18-3.1-4.68L141.74,179l-.71-.91-.66-.52a9.85,9.85,0,0,1-2.85-3.78h0l-3.73-4.33-.06,0-.19,1.58.13,0-.59,3.79-.57,4.63-.13-.1-.72,4.78-.1,0-1.24,8.92,0,0-.49,4.1c-.06.44-.1.8-.13,1.16Z"/><path class="cls-2" d="M214.78,202.24a26.59,26.59,0,0,1-10-1.94c-7.33-3-16.74-13.6-19.14-33.45l0-.19c-.45-5.16-.53-11.28-.52-15.51,0-.6,0-1.27,0-1.65l0-3.19,0,0,0-1.73-.22.07.55-8.74c0-.25,0-.57.06-.93,0-.81.09-1.77.15-2.44l.37-4.26.17,0,.06-.64c0-.2,0-.57,0-.94a20.54,20.54,0,0,1,.07-2.36l.35-3.22.25-.13c.24-2.53.51-5.66.73-8.18.15-1.7.27-3.17.36-4.1h0c0-.6.05-1.18.06-1.7l.05-5.06,10.28-1.65,1.64,4.76a63.73,63.73,0,0,1,3.34,16.78c.06,1,.1,2.12.14,3.24,0,0,0,.48,0,.63h0l.27,6.44c0,.27.05.68.08,1.08.06.69.11,1.37.12,1.81l.11,5.49-.25,0c0,.3,0,.59,0,.89h.26l.35,6,.06,1.09c0,.49,0,1,.07,1.43L205,153l.17,1.25c.09.68.19,1.35.3,2l.18,1.14c.31,1.88.59,3.62.88,5.27.17,1,.38,2.19.55,3.1.28,1.48.54,2.76.8,3.88l.17.66c.17.72.38,1.44.62,2.21l.22.72a11.65,11.65,0,0,0,2.48,4.56c2,2.06,2.82,2.19,2.82,2.19a3.79,3.79,0,0,0,1.43-.5,24.82,24.82,0,0,0,5-3.14,11.69,11.69,0,0,1,7.24-2.52,9.45,9.45,0,0,1,5.8,1.87A7.77,7.77,0,0,1,235,177c3.46,4.29,3.77,11.63-3.32,18.41A24,24,0,0,1,214.78,202.24Z"/><path class="cls-3" d="M50.22,227.12c.35-5.12,2.8-11.38,6.63-12.89l.58-.22-.62-.08a11.27,11.27,0,0,0-1.29-.07,10.28,10.28,0,0,0-1.76.15c-4,.73-6.87,7.13-7.26,12.65a5.27,5.27,0,0,0,1.64,4.61A7.29,7.29,0,0,0,52.8,233l.1-.29a5.88,5.88,0,0,1-1-.68A5.64,5.64,0,0,1,50.22,227.12Z"/><path class="cls-3" d="M55.84,230c-.75-2.34,1.74-9.25,3-11.24a7.65,7.65,0,0,1,4.54-3.19l.38-.09-.34-.2a9.69,9.69,0,0,0-4.67-1.23,9,9,0,0,0-1.79.18c-3.67.74-6.32,7.25-6.68,12.87a5.7,5.7,0,0,0,1.5,4.68c1.49,1.44,3.78,1.74,5.45,1.74h.55l.13.07.17-.26A6.63,6.63,0,0,1,55.84,230Z"/><path class="cls-4" d="M52.05,89.47s.94,8.25-1.49,20.79,12.46,34,12.46,34L94.24,140,100,83.47l-11.64-9-21.15,1Z"/><path class="cls-5" d="M90.59,165.83v.11c-.32,2-1.94,12.13-2.23,18.95l0,.45c0,1.36-.09,2.92-.14,4.6-.2,8-.26,18.67-.16,21.58a12.72,12.72,0,0,1-1.46,5.64,27.21,27.21,0,0,0-1.75,5.12,23,23,0,0,0-.38,3.6c-.14,2.78-.27,5.17-3,6.75l-.11.06a16.1,16.1,0,0,0-.94-4.18l-.29-.75-.43-1c-.11-.21-.2-.43-.31-.6a1.29,1.29,0,0,0-.09-.16c0-.08-.11-.2-.14-.24-.19-.36-.39-.72-.61-1.07-2.61-4.45-7-8.56-12.31-9.27a8.13,8.13,0,0,0-1.1-.07h-.67l.16-.25a2,2,0,0,0,.25-.61l0-.08.09,0a11.75,11.75,0,0,1,3.33-.46c.38,0,.74,0,1.07,0a13,13,0,0,0-1.77-.12,12.67,12.67,0,0,0-2.46.25l-.21.05,0-.22c.12-1.1.27-2.6.4-4.23.07-.8.12-1.62.17-2.45.09-1.44.14-2.88.12-4.13,0-.41,0-.83-.08-1.27a29,29,0,0,0-.65-3.86c-.44-2-1.08-4.43-1.86-7.31-.9-3.4-2-7.53-3.24-12.62L59,174.45c-.42-1.9-.79-3.68-1.12-5.36-.08-.41-.16-.8-.23-1.2h0c-.66-3.52-1.14-6.57-1.51-9.2-.18-1.2-.32-2.31-.46-3.34,0-.13,0-.26-.05-.39-.35-2.57-.62-4.58-1-6.06s-.93-3.6-1.62-6.07c-.6-2.12-1.25-4.47-1.86-6.79a80.11,80.11,0,0,1-1.81-8.39,2.54,2.54,0,0,1,0-.29c-.62-4.84-.07-11.74,1.65-20.53.16-.81.31-1.57.46-2.29l.31,0c-.59,13.81,4.82,25.62,9.59,34.35l0,.08c1.23,2.27,4.74,8.58,7.69,12.85l.09.13a25.47,25.47,0,0,0,2.49,3.16c3.34,3.4,6.08,5.47,12.65,8.06,2,.79,4.08,1.66,6.18,2.58Z"/><path class="cls-6" d="M49.37,127.64a78,78,0,0,0,1.7,8c.4-.52-.51-5.1-.51-5.1s8,4.78,10,6.82c-4.26-8.33-9.33-20.56-8.81-32.74l-.31,0c-.15.72-.3,1.48-.46,2.29-1.72,8.79-2.27,15.69-1.65,20.53A2.54,2.54,0,0,0,49.37,127.64Z"/><path class="cls-6" d="M77.71,223.39a36.27,36.27,0,0,0,.3-9.21,34.57,34.57,0,0,0-2.68-11.09c-1.17-2.44-3.28-4.63-6.28-3.92a7.13,7.13,0,0,0-3.53,2.17,5.24,5.24,0,0,1,.06.54c0,.44.07.86.08,1.27,0,1.25,0,2.69-.12,4.13-.05.83-.1,1.65-.17,2.45-.13,1.63-.28,3.13-.4,4.23l0,.22,0,.28,0,.08a2,2,0,0,1-.25.61l-.16.25h.67a8.13,8.13,0,0,1,1.1.07C71,216.09,75,219.48,77.71,223.39Z"/><path class="cls-3" d="M79.56,225.46a23.54,23.54,0,0,0-3-4.26c-3.48-4-7.65-6.27-11.74-6.27h-.55a7.26,7.26,0,0,0-5.64,3.39c-1.23,2-3.75,9.2-3,11.41a6.1,6.1,0,0,0,5.25,4.58,47.62,47.62,0,0,0,7.68.54h0c3.35,0,8.11-.26,11.71-1.55a9.11,9.11,0,0,0,1.38-.6l.06,0a16.1,16.1,0,0,0-2-7A1.31,1.31,0,0,1,79.56,225.46Z"/><path class="cls-7" d="M55.92,213.93a8.42,8.42,0,0,0-1.12-.07,8.72,8.72,0,0,0-1.62.15c-2.82.56-5,4.47-6.07,8.76a3,3,0,0,0,2.82.62C50.89,219.14,52.61,214.53,55.92,213.93Z"/><path class="cls-7" d="M63.39,215.18a11.6,11.6,0,0,0-4.68-1.12,9,9,0,0,0-1.79.18c-2.88.58-5.13,4.72-6.14,9.2a7.11,7.11,0,0,0,5.11,1.37C56.74,220,59.07,214.89,63.39,215.18Z"/><path class="cls-7" d="M77.63,223.25c-.31-.4-1-1.17-1.31-1.57-3.35-3.9-7.37-6-11.31-6h-.54A7,7,0,0,0,59,218.92a28.93,28.93,0,0,0-2.29,5.85C59.08,227.81,75.51,229,77.63,223.25Z"/><path class="cls-3" d="M122.72,222.89c-.85-2.84-2.88-4.48-5.57-4.48-2.36,0-3.9.93-4.71,2.84-.88,2.06-1.1,14.68,0,16.81.48.93,2,1.69,3.87,1.89a9.36,9.36,0,0,0,.94.05,6.28,6.28,0,0,0,4.92-2C124.58,235.09,123.52,225.53,122.72,222.89Z"/><path class="cls-8" d="M193.89,183.14c-.6-2.91-.8-4.27-1.79-10.88l-.35-2.35c-.16-1-.3-2.25-.43-3.65v-.14a236.39,236.39,0,0,1-.13-28.9c.16-3,.65-7.52,1.17-12.3.79-7.3,1.69-15.59,1.5-19.6a17.38,17.38,0,0,0-.93-4.26h0c-.11-.39-.25-.78-.4-1.18a56.89,56.89,0,0,0-2.72-6.15h0c-.31-.63-.64-1.24-1-1.87-2.9-5.28-6.63-10.52-10-13.29-.26-.22-.51-.42-.77-.6-.41-.29-.81-.57-1.22-.82a21,21,0,0,0-8-3.22c-.83-.15-1.69-.27-2.6-.35-1.14-.1-2.34-.15-3.64-.15-.93,0-1.89,0-2.85.07h0l-2.08.09-2.87.19a66.6,66.6,0,0,0-7.3.94c-1.07.2-2.13.41-3.17.64-1.61.34-3.19.72-4.68,1.11l-.75.19c-2.34.61-4.48,1.23-6.26,1.76l-1.6.48-1.56.46c-.52.16-1,.28-1.3.37a8,8,0,0,1-2,.23,21.2,21.2,0,0,1-6.1-1.13l-.15.26,1.11,1.1.77.78-.83-.75c-1.2-1.08-2.52-2.22-3.78-3.24-.85-.7-1.66-1.34-2.41-1.87a11.8,11.8,0,0,0-2.23-1.34A17.7,17.7,0,0,0,109.9,73c-.92-.2-1.93-.38-2.91-.54-2.48-.39-4.84-.62-5.58-.69l-.68,0,.06.87c.47,2.45.4,4.26,1.29,6.73-.25-2.11-.65-5-1.29-7.85-.22-1-.47-2-.76-3s-.68-2.22-1-3.26a64.93,64.93,0,0,0-3.8-8.56l-.52-.78c0,.46.11,1.88.08,5.05,0,0-.15.11-.28-.39L94,59.16v4c-.35,3.38-.49,7.43-3.86,10.8,2.57-3.91,1-2.2,1.28-3l-1.06,1.75a14.52,14.52,0,0,1-3.69,3.6l-.1.07,0,.12a67,67,0,0,1,3,9c.19.75.36,1.53.52,2.33a53.72,53.72,0,0,1,1,11.29c0,1.29-.07,2.63-.18,4a2.28,2.28,0,0,1,0,.26c-.12,1.36-.28,2.75-.52,4.18a66.18,66.18,0,0,1-3.19,12.34c-3.5,9.7-.1,21.49,4.87,27.65l.32.39s-.11-1.36-.16-1.94c.17,1.41.35,3,.54,4.54h0c.27,2.18.56,4.45.86,6.58.42,2.86.85,5.46,1.27,7.26,1,4.31,2.15,10.21,3,16.14.28,1.84.54,3.68.76,5.47.27,2.22.49,4.38.63,6.37,0,.39.06.79.1,1.2.09,1.2.19,2.44.31,3.71,0,.34,0,.68.09,1v.12c.16,1.8.32,3.66.47,5.52,0,.35,0,.7.08,1.06,0,.72.1,1.44.14,2.17h0c0,.86.1,1.72.14,2.56a51.72,51.72,0,0,1-.38,10.56l0,.2.2,0a3.4,3.4,0,0,1,.45,0,7.05,7.05,0,0,1,2.88.72l.1.05.08-.08a5,5,0,0,1,3.85-1.51c2,0,3.46.63,4.22,1.83l.15.21.13-.22a4.74,4.74,0,0,1,4.46-2.3,5.38,5.38,0,0,1,4,1.67l.11.11.11-.09a5.48,5.48,0,0,1,3.19-1l.44,0,.3,0-.16-.26c-1.87-3.2-2.06-5.36-2.06-9.88,0-.33,0-.7,0-1.11s0-.66,0-1c.12-2.46.42-5.93.85-9.86,0-.44.09-.89.14-1.34.33-3,.73-6.13,1.19-9.32,0-.17,0-.34.07-.51.28-1.91.57-3.82.88-5.68.19-1.13.38-2.3.56-3.48.1-.63.19-1.26.29-1.91.29-1.95.57-4,.83-6h0c.13-.92.24-1.83.35-2.75.27-2.16,1.55-4,1.76-6,0-.25-.5-1.14-.46-1.4.49-5.23,1.07-8.67,1-12.17,0-.33-.14-1.64-.17-2,0-1.22-.26-2.64-.41-4.1-.47-4.62-3-18-3.08-19.15.65,3.83,2,12.4,2.73,19,.11,1,.25,2.71.34,4.05,0,.37,0,.74,0,1.09,0,1.51,0,3.32-.07,5.39v.14l.13,0a3.86,3.86,0,0,0,.84.08,11.08,11.08,0,0,0,4-1.08c4.23-1.78,7.82-3,11.56-3h.16A13.16,13.16,0,0,1,155.1,151l.23-.2c-.1-.15-.2-.3-.29-.45a45.87,45.87,0,0,1,3.25,4.29c3.53,5.54,8.14,13.22,10.07,18.36,4.39,11.72,3.95,25,3.09,30.45a28.39,28.39,0,0,1-4.42,11l-.1.17.19.06a5.47,5.47,0,0,1,1.44.69l.09.06.09-.06a5.16,5.16,0,0,1,2.6-1l.5,0a5.87,5.87,0,0,1,5,2.19l.06.07H177a9.73,9.73,0,0,1,1.43-.11,6.94,6.94,0,0,1,3.91,1.06,7.06,7.06,0,0,1,1.36,1.37c.1.11.19.24.28.35l.06.1.31.43.4.64h0l.07.11.07.11a11.23,11.23,0,0,1,1.35,3.41l.11.53v0a1.77,1.77,0,0,0,0,.2q.09.38.15.75t.12.72c.12.66.23,1.35.27,1.88l0,.49.25-.43c.91-1.57,1-3.77,1.2-6.86.08-1.52.17-3.23.38-5.18a138,138,0,0,1,3.06-17.13c.24-1,.48-2.12.73-3.25C194.22,188.6,194.54,186.34,193.89,183.14Z"/><path class="cls-9" d="M59.58,96.06a22,22,0,0,0,19.41-2A33.43,33.43,0,0,0,89.1,83.64a72.76,72.76,0,0,0-2.44-7.1l-.07-.17-.17.1a14.68,14.68,0,0,1-5,2.06c.21-.11,2.32-1.09,2.57-1.23L83.68,77a55.31,55.31,0,0,1-10.3,2.67A22.9,22.9,0,0,0,62,84.7c-1.25,2.1-2.69,5-5.8,6a14,14,0,0,1-4,.65h-.16A31.59,31.59,0,0,0,59.58,96.06Z"/><path class="cls-9" d="M92.6,149.8c0-.64-.12-1.39-.15-1.68v-.05l0,0a28.4,28.4,0,0,1-5.36-10.5c-8.61,5.85-21.47,6.54-26.5-.22.27.52.54,1,.81,1.52.07.12,6.24,13.15,9.18,16.95,5.61,7.21,25.16,12,25.16,12S93,154.29,92.6,149.8Z"/><path class="cls-10" d="M193.55,183.14c-.59-2.91-.8-4.27-1.79-10.88l-.35-2.35c-.16-1-.3-2.25-.42-3.65v-.14c-.17-1.9-.29-4-.37-6.25A21.81,21.81,0,0,1,188,164.6c-4.07,5.45-9.35,3.15-13.59-1C166.49,156,162.26,140.93,149.2,142c-3.36.26-12.95,2.21-18.41.25a96.34,96.34,0,0,0-4.09-18.05s0,0,0,0q1.15,8.62,2.5,17.25l-.16-.1c.1,1,.23,2.52.3,3.73,0,.37,0,.74.05,1.09,0,1.51,0,3.32-.07,5.39v.14l.14,0a3.71,3.71,0,0,0,.83.08,11,11,0,0,0,4-1.08c4.23-1.78,7.82-3,11.56-3H146a13.16,13.16,0,0,1,8.78,3.26l.23-.2c-.1-.15-.2-.3-.29-.45a45.87,45.87,0,0,1,3.25,4.29c3.53,5.54,8.15,13.22,10.07,18.36a62.83,62.83,0,0,1,3.61,19.48c.77-2.38,2-4.59,4.19-5.66,3-1.44,5.52.31,6.92,3,4.33,8.41,2.52,19.36.55,29l.09.11c.1.11.19.24.28.35a.61.61,0,0,0,.07.1l.3.43c.14.22.28.43.4.64h0a.34.34,0,0,1,.07.11l.07.11a11.53,11.53,0,0,1,1.36,3.41s0,.2.1.53v0c0,.06,0,.13,0,.2q.09.38.15.75c0,.23.09.47.13.72.11.66.22,1.35.26,1.88l0,.49.25-.43c.92-1.57,1-3.77,1.21-6.86.07-1.52.17-3.23.37-5.18a136.16,136.16,0,0,1,3.07-17.13c.23-1,.47-2.12.72-3.25C193.88,188.6,194.2,186.34,193.55,183.14Z"/><path class="cls-10" d="M129.67,144.38c0-.33,0-.68,0-1l-.26-5.21s-6.52,19.51-17.22,10.88c-4-3.24-14.4-20.71-18.08-19.18-3.23,1.34-3.23,4.15-6.69,5.88a29.07,29.07,0,0,0,5,10.06l.32.39s.34,2.28.38,2.6h0c.27,2.17.56,4.45.86,6.58.42,2.85.85,5.46,1.27,7.26,1,4.31,2.15,10.21,3,16.13.28,1.84.54,3.68.76,5.47.27,2.22.49,4.38.63,6.38,0,.39.06.79.1,1.2.09,1.19,1,12.79,1,13,.69-8.9,8.84-10.5,14.09-8.07,6.33,2.94,3.86,15,8.61,21.54a5.35,5.35,0,0,1,1.08-.1,3.17,3.17,0,0,1,.44,0l.3,0-.16-.26c-1.87-3.2-2.06-5.35-2.06-9.88,0-.32,0-.69,0-1.11s0-.65,0-1c.12-2.47.42-5.93.85-9.87,0-.44.09-.88.15-1.33.32-3,.72-6.14,1.18-9.32,0-.17,0-.35.07-.52.28-1.91.57-3.82.88-5.68.19-1.12.38-2.29.57-3.48.09-.62.18-1.26.28-1.9.29-2,.58-4,.83-6h0c.13-.92.25-1.83.35-2.75.27-2.16.51-4.31.71-6.39,0-.26.05-.51.08-.77A117.28,117.28,0,0,0,129.67,144.38Z"/><path class="cls-8" d="M230.34,180.77a3.16,3.16,0,0,0-2.51-1,5.75,5.75,0,0,0-3.51,1.22,30.39,30.39,0,0,1-6.1,3.83,9.19,9.19,0,0,1-4.06,1.11c-2.21,0-4.33-1.19-7.09-4-4.21-4.27-5.4-11.56-7.37-23.65l-.19-1.15c-1.48-9.06-1.63-18-1.76-25.86-.06-3.31-.11-6.44-.27-9.23a57.86,57.86,0,0,0-3-15.15l-.31.05c-.05,4.33-.79,11.23-1.52,18-.52,4.75-1,9.24-1.17,12.26a236.36,236.36,0,0,0,.13,28.9c2.23,18.48,10.77,26.69,15.47,28.63a21,21,0,0,0,7.72,1.48h0a17.93,17.93,0,0,0,12.75-5.17C232.17,186.64,231.94,182.75,230.34,180.77Z"/><path class="cls-10" d="M229.69,180.26c-3.25,4.59-7.57,8.69-12.93,9.87-7.51,1.66-15.64-4.13-18.34-11-1.71-4.33-3.78-15.91-4-32.94-.06-6,0-12.09,0-18.13,0-3.32.15-11.69-.44-18.9-.28,3.12-1.05,12.38-1.42,15.77-.52,4.75-1,9.24-1.17,12.26a236.36,236.36,0,0,0,.13,28.9c2.23,18.48,10.77,26.69,15.47,28.63a21,21,0,0,0,7.72,1.48h0a17.93,17.93,0,0,0,12.75-5.17c4.64-4.43,4.41-8.32,2.81-10.3A2.11,2.11,0,0,0,229.69,180.26Z"/><path class="cls-11" d="M196.94,117.07c-.18-1.18-.39-2.32-.61-3.38a24,24,0,0,0-2.64.87c-.1,1.21-.23,2.48-.36,3.77C194.53,117.87,195.73,117.46,196.94,117.07Z"/><path class="cls-11" d="M198.12,135.1c0-.71-.18-2.21-.2-2.91a41.1,41.1,0,0,0-6.23.85c-.09.93-.15,2.45-.2,3.23A30.62,30.62,0,0,1,198.12,135.1Z"/><path class="cls-11" d="M198.78,150.3c-.06-.81-.09-1.77-.14-2.58-2.54.17-5.23.4-7.56,1.82,0,.65,0,2.16,0,2.82A14,14,0,0,1,198.78,150.3Z"/><path class="cls-11" d="M191.69,166.89c.22,1.66.49,3.24.81,4.73a27.59,27.59,0,0,1,8.71-4.47c-.23-1.18-.54-3-.76-4.26C200.33,162.91,194.36,165.43,191.69,166.89Z"/><path class="cls-3" d="M127.16,220a5.36,5.36,0,0,0-2.94-.8,6.46,6.46,0,0,0-3.45.92l-.14.11.11.12a7.27,7.27,0,0,1,1.38,2.48c.69,2.1,2,10.77-.13,14.61l0,.1.07.08a4.08,4.08,0,0,0,2.68,1.05l.46,0h0a6.6,6.6,0,0,0,4.9-2.16c1.13-1.23,1.51-3.87,1-7.24C130.52,225.12,128.79,221,127.16,220Z"/><path class="cls-3" d="M112.69,221.11l0-.08-.06-.08a5.89,5.89,0,0,0-4.59-2c-2.9,0-5,1.13-6.42,6.59s-1.41,9.84,0,12.1a5.55,5.55,0,0,0,4.16,2q.36,0,.72,0a8.31,8.31,0,0,0,5.79-2.31l.07-.06,0-.08C111.57,233.49,111.78,223.15,112.69,221.11Z"/><path class="cls-3" d="M158,152.05l-.1-.14c-2.13-3.19-6.22-5.19-10.67-5.23h-.15c-3.94,0-7.71,1.26-12.15,3.15a11.3,11.3,0,0,1-4.22,1.16,4.43,4.43,0,0,1-.83-.07l-.19,0v.19c-.18,3.86-.57,8.41-1.14,13.53l0,.26.24-.08c9.39-3.14,20-6.7,29.11-12.65Z"/><path class="cls-3" d="M142.94,220.3l0-.19c1.07-6.7,3.54-8.42,5.42-8.68a8.54,8.54,0,0,1,.92-.07v-.16h0V211a23.65,23.65,0,0,0-5.12-1.35,4.87,4.87,0,0,0-.65-.05,3.8,3.8,0,0,0-2.26.74c-2.24,1.59-3.88,6.46-4.16,9.22a4.75,4.75,0,0,0,1.9,4.66,6.26,6.26,0,0,0,3.72,1A11.69,11.69,0,0,0,145,225l.38-.08-.31-.2A4.23,4.23,0,0,1,142.94,220.3Z"/><path class="cls-5" d="M168.81,171.85c-2.16-5.62-7.35-14.51-10.83-19.74l-.21-.37-5,3.3a81,81,0,0,1-14.63,6.56l-.16.06.06.15a67.15,67.15,0,0,0,8.41,13.39l1.54,1.9.07.08c3.41,4.18,6.36,7.79,6.88,11.15.6,3.91-.81,12.82-2.31,16.62a21.77,21.77,0,0,1-2.42,4.91l-.28.35a3,3,0,0,1-1.3,1l-.44.15.44.15a8.35,8.35,0,0,1,2.48,1.5h0a14.81,14.81,0,0,1,1.33,1.29,19.43,19.43,0,0,1,3.69,6.31s.18-.39.18-.39a8.2,8.2,0,0,1,5.72-4.61,5.28,5.28,0,0,1,3.09-1.31h.45a8.51,8.51,0,0,1,1.63.15l.11,0,.06-.1A28.65,28.65,0,0,0,172.05,203C172.94,197.43,173.41,183.82,168.81,171.85Z"/><path class="cls-3" d="M151.23,212.22l-.3-.22a5.09,5.09,0,0,0-3.69-1.46,5.81,5.81,0,0,0-1.16.13c-2.71.6-3.88,5.37-4.38,9.27a5,5,0,0,0,3.52,5.45,14,14,0,0,0,3.61.32h0c2.18,0,4.6-.17,5.85-.27h.14l0-.27c0-.21,0-.42.07-.65a20,20,0,0,1,1.12-4.23,13.81,13.81,0,0,0-.57-1.56A18.61,18.61,0,0,0,151.23,212.22Z"/><path class="cls-3" d="M101.8,225.43a12.75,12.75,0,0,1,2.12-4.74l.13-.16-.2-.09a7.89,7.89,0,0,0-3-.68,5.05,5.05,0,0,0-.88.08c-2,.39-4.81,1.6-6.14,7.67-1.3,5.91-.73,8,.52,9.32.81.86,2.78,1.16,4.21,1.16h0a6.56,6.56,0,0,0,2.88-.54l.14-.07-.06-.14C100.35,234.77,100.44,230.46,101.8,225.43Z"/><path class="cls-7" d="M122.91,231.43a37.29,37.29,0,0,0-.83-7.67c-.86-2.84-2.59-4.32-5.28-4.32-2.36,0-3.18.73-4,2.64-.47,1.09-.86,5.41-.65,9.3C116.73,234,119.4,233.58,122.91,231.43Z"/><path class="cls-7" d="M131.09,229.55c-.57-4.14-2.3-8.23-3.93-9.29a5.36,5.36,0,0,0-2.94-.79,6.69,6.69,0,0,0-3.28.81c2.7,2.3,3.18,7.34,3.07,10.75a7.91,7.91,0,0,0,7.2-.41C131.18,230.27,131.14,229.92,131.09,229.55Z"/><path class="cls-7" d="M112.49,220.85a6.13,6.13,0,0,0-4.31-1.71c-2.9,0-5,1.12-6.42,6.58a32.35,32.35,0,0,0-.92,4.88,11.34,11.34,0,0,0,10.5.29C111.21,229.09,111.07,223.56,112.49,220.85Z"/><path class="cls-7" d="M103.81,220.63a7.86,7.86,0,0,0-2.9-.65,4.85,4.85,0,0,0-.87.08c-2,.39-4.82,1.6-6.15,7.66-.24,1.1-.42,2.06-.54,2.92a7.3,7.3,0,0,0,6.85.27C100.58,226.85,101.52,222.8,103.81,220.63Z"/><path class="cls-3" d="M137.15,219.56c.35-3.16,2.25-7.64,4.5-9.28l.3-.22-.41-.05a6.32,6.32,0,0,0-.66,0,5.24,5.24,0,0,0-3.68,1.46c-2.43,2.33-4.34,6.53-3.28,10a3.64,3.64,0,0,0,2,2.37,5,5,0,0,0,2.14.44,4.8,4.8,0,0,0,.59,0l.38,0-.25-.22A4.7,4.7,0,0,1,137.15,219.56Z"/><path class="cls-11" d="M109.91,73h0c-.89,7.3-2.76,14.41-7,20.28-1.77,2.47-8.71,9.58-12.52,14.23l-.07.09a24.29,24.29,0,0,0-2.15,3c-3.63,6.53-6.73,10.71-9.1,20.28-.07-6.82,2.49-13.8,5.75-19.46a47.22,47.22,0,0,1,5.5-7.72C85.55,105.8,76.52,114,76.12,114.4A49.44,49.44,0,0,1,86,103a55.63,55.63,0,0,1,5.11-3.86l0,0A51.23,51.23,0,0,0,97.7,94c5.31-5.11,7.53-13.74,9.29-21.57,1,.16,2,.34,2.91.54C109.9,73,109.91,73,109.91,73Z"/><path class="cls-11" d="M115.14,120.7c-.57,6.91-3,12.88-10.23,20-4.54,4.48-9.15,8.78-11.14,16.37-.31-2.13-.6-4.4-.86-6.58h0a28.34,28.34,0,0,1,7.25-10C106.81,134.84,112.36,129.78,115.14,120.7Z"/><path class="cls-11" d="M69.46,152.08l-.3-.1c-6.47-2.1-11.68-5.8-17-14.32l-1-1.63a80.11,80.11,0,0,1-1.81-8.39,2.54,2.54,0,0,1,0-.29,26.63,26.63,0,0,1,4.16,5.73c4,7.61,7.61,14.06,15.58,18.77Z"/><path class="cls-11" d="M129.74,145.05l-.28,0c-17.66,1.85-31.56,14-31.92,14.27.31-.41,10.06-17.21,31.6-18.31l.26-.06C129.56,142.47,129.67,143.84,129.74,145.05Z"/><path class="cls-11" d="M120.22,160.46a41.74,41.74,0,0,0-6.19,4.46,26.75,26.75,0,0,1,9.26-1.13,12.26,12.26,0,0,1,4.88,1.52c-.11,1.05-.23,2.08-.36,3.13a11.4,11.4,0,0,0-5.63-1.91c-4.34-.22-17.08,5.62-25.15.57,7.57.64,12.5-2.4,19.22-6.49a24.53,24.53,0,0,1,12.73-3.4c0,.29-.06.58-.08.87A23.28,23.28,0,0,0,120.22,160.46Z"/><path class="cls-11" d="M100.11,182.85c10.87-2.65,20.44,1.29,25,3.78,0,.17,0,.34-.07.51-5-1.86-15.68-4.79-26.23-1.16-.22-1.79-.48-3.63-.76-5.47,8.78-5.57,19-7.59,28.8-4.95-.1.65-.2,1.28-.29,1.91A40.87,40.87,0,0,0,100.11,182.85Z"/><path class="cls-11" d="M121.55,80.63a2.26,2.26,0,0,1-.53-.44h0l-.06,0c-2.09,1-5.78,3.52-7,9.59,0-.57-1-7.18,3.18-12.83l-2.41-1.87c-4.49,8.33-4.35,19-4,24.15.48,6.1-.53,18-8.25,27.7,16-13.25,11.56-31.79,14.65-39.1a14,14,0,0,1,5.36-6.25A7.24,7.24,0,0,0,121.55,80.63Z"/><path class="cls-11" d="M131.19,128.3c-2.61-14.46,3.27-20.26,3.35-30,.1-12.74-4.79-19.17-4.79-19.17l1.54-.46,1.59-.48s5.25,6.56,4.62,18.88C136.8,110.54,130.52,114.88,131.19,128.3Z"/><path class="cls-11" d="M137.92,76.83c1.86,5.83,9.79,18.1,10.14,27,.26,6.44-3.51,14.8-7.48,23.92,5.72-8.77,10.62-17.3,11-24.72S146.49,87,147.46,74.72c-1.07.2-2.13.41-3.17.64.32,5.47,1.16,12.6,3.62,18.79-2.67-5.27-6.29-12.66-8.3-17.68Z"/><path class="cls-11" d="M165.09,82.71c-1.93,6.53-1.26,13.26-.72,20.06.58,7.2,4.13,18.18-3.17,26.36-3.67,4.11-7,6.37-10.59,13.56,1.59-11.06,8.14-11.82,11.66-22.57,2.34-7.14-4-24.2-4.76-28.91a53.94,53.94,0,0,1,.12-17.62l2.08-.09a90.5,90.5,0,0,0,1.59,23.6c0,.24.07.47.11.7-.09-1.29-.15-2.57-.18-3.83a43.1,43.1,0,0,1,5-20.39c.91.08,1.77.2,2.6.35A47.24,47.24,0,0,0,165.09,82.71Z"/><path class="cls-11" d="M183,85.09c-8.29,10.88-2.67,33.35-8,45.63-4.1,9.43-6.48,15.49-21,15.43,14.24-2.35,19.68-12.93,20-26.82C174.28,109.8,172.18,95.36,183,85.09Z"/><path class="cls-11" d="M192.59,99.7l-.06.18c-.89,2.59-2,5.11-3.13,7.63a81.25,81.25,0,0,0,.41-13.78h0l-1-1.87c.2,12-3.47,31.31-11.14,42,12.87-11.57,14.34-27,15.26-32.75h0c0-.18.06-.34.09-.5A2.18,2.18,0,0,1,192.59,99.7Z"/><path class="cls-11" d="M158,154.55c.07.12.14.26.21.41l.25.41c.21.34.48.66.68,1a31.72,31.72,0,0,0,12.74-3.44,83.9,83.9,0,0,1-9.48,8.67,12.91,12.91,0,0,1,.66,1.28,53.09,53.09,0,0,0,26.54-34.13C181.2,148.38,166.5,153.31,158,154.55Z"/><path class="cls-11" d="M192.72,174.37a38.07,38.07,0,0,1-22.5,4.8,44,44,0,0,1,.72,4.36c4.57-.21,13.94-1.22,21.79-7.79A10.44,10.44,0,0,1,192.72,174.37Z"/><path class="cls-11" d="M171.73,200c0,.56-.17,1.85-.27,2.41,8.8,3.76,19.58-1.48,19.58-1.48S179.46,203.63,171.73,200Z"/><path class="cls-11" d="M83.25,165.25c-.64-.42-11-7.15-17.06-7.52a25.69,25.69,0,0,0-10.06,1c-.18-1.2-.32-2.31-.46-3.34,4.18-1.87,7-1.83,12.09-.64C73.37,156,82.68,164.7,83.25,165.25Z"/><path class="cls-11" d="M59.83,178.09c7.12-2.13,27.55-3.17,27.55-3.17s-16.12-11.08-29.74-7h0c.07.4.15.79.23,1.2,7.44-.71,15.44,2.48,15.44,2.48S63.6,172.92,59,174.45Z"/><path class="cls-11" d="M88.32,185.34c0,1.36-.09,2.92-.14,4.6-10.29-4.07-24.15-.83-24.69-.71C63.94,189,77.36,182.31,88.32,185.34Z"/><path class="cls-11" d="M130.07,151.27c5.78-5.42,8.15-21.19,5.66-32.83C136.18,127.71,132.32,146.86,130.07,151.27Z"/><path class="cls-11" d="M169.65,176.69c-.05-.3-.13-.6-.18-.89,0-.09-.08-.17-.11-.25-4.46,2.78-11.62,6.41-18.34,6.23.3.45.55.95.85,1.41s.83,1.18,1.2,1.8c7.05-.28,12.93-4.5,16.6-8C169.67,176.91,169.66,176.8,169.65,176.69Z"/><path class="cls-11" d="M159.12,156.38A88.09,88.09,0,0,1,143.24,160a14.48,14.48,0,0,1-4.38,1.51c.32,1.15.72,2.29,1.13,3.42,10.49,2.72,20.78-2.44,20.78-2.44s-13.13,2.84-18.54,0C150.21,161.8,159.12,156.38,159.12,156.38Z"/><path class="cls-11" d="M122.91,207.66c0,.36,0,.7,0,1-6.32-1.26-15.15-2-22.05,1,0-.84-.09-1.7-.14-2.56h0c5.65-2.7,12-2.15,18.12-.41-5.89-3.54-12.2-3.43-18.27-1.76,0-.36,0-.71-.07-1.06C107.94,201.05,115.71,201.36,122.91,207.66Z"/><path class="cls-11" d="M84.51,212.14s-10.92-3.25-19.14-2.41c.07-.8.12-1.62.17-2.45A32.07,32.07,0,0,1,84.51,212.14Z"/><path class="cls-11" d="M156.44,116.32c-12.44,9.53-7.78,20.29-15.89,31.65C149.85,142.69,149.06,125.68,156.44,116.32Z"/><path class="cls-11" d="M178.79,78.57c-4.11,4.63-6.1,8.69-7.94,20.2-.83-7.92.88-16.31,6-21.62.41.25.81.53,1.22.82C178.28,78.15,178.53,78.35,178.79,78.57Z"/><path class="cls-11" d="M191.21,142.47a69.31,69.31,0,0,0-3.48,6.59c-4.14,8.87-12.83,12.73-12.83,12.73a25.79,25.79,0,0,0,13.43-9,25,25,0,0,0,2.72-5.09A35.43,35.43,0,0,1,191.21,142.47Z"/><path class="cls-11" d="M100.79,71.5C99.71,75.85,97,82,90.12,87.8v0a50.48,50.48,0,0,1-9.69,6.33,48.88,48.88,0,0,0,9.16-8.65s0,0,0,0a41.9,41.9,0,0,0,9.09-21.64L99,65.21c.37,1,.73,2.13,1,3.26S100.57,70.48,100.79,71.5Z"/><path class="cls-11" d="M50.91,107.23c-.24.91-.52,1.79-.83,2.63.15.2.28.39.39.55,3.7,5.9,6.83,9.63,9.3,18.44,0-6.37-2.62-12.75-5.94-17.85A31.83,31.83,0,0,0,50.91,107.23Z"/><path class="cls-11" d="M90.51,121.57c-3.55,5.88-4.61,15.19-4.14,22a68.05,68.05,0,0,1,7.69-21.39c3-5,9.52-14.53,9.52-14.53S94.13,115.56,90.51,121.57Z"/><path class="cls-11" d="M122.57,111.43c-2.88,6.23-3.78,15.61-2.56,22.34a68.19,68.19,0,0,1,5.29-22.1c2.38-5.28,5.7-14.19,1-25.07C129,96.91,125.51,105.05,122.57,111.43Z"/><path class="cls-11" d="M49.16,121.78a10.71,10.71,0,0,1-.13,1.79A41.65,41.65,0,0,1,54.55,128a96.57,96.57,0,0,1,11.14,14c-2.37-5.78-7.23-14.06-11-17.8A9.43,9.43,0,0,0,49.16,121.78Z"/><path class="cls-11" d="M154,199.83a12.34,12.34,0,0,1-.41,2.6c5,4.44,12.46,3.09,16.53,1.81C164.28,205.21,158.2,203.79,154,199.83Z"/><path class="cls-3" d="M173.09,227.32c0-2.28,1.68-10,5.58-11.29l.25-.08-.17-.18c-.7-.73-2.34-2-5.57-2h-.54c-4.92.2-9.16,7.24-9.18,12.85a5.15,5.15,0,0,0,1.48,4.07,7.12,7.12,0,0,0,4.74,1.79h.47a5.92,5.92,0,0,0,4.15-1.47l.23-.11-.2-.16C173.46,230.11,173.09,229.07,173.09,227.32Z"/><path class="cls-3" d="M165.27,230.93a5.52,5.52,0,0,1-1.51-4.27,15.13,15.13,0,0,1,5.57-11.72l.2-.14-.22-.12a7.3,7.3,0,0,0-3.67-.88h-.48c-4.45.2-8.28,7.24-8.3,12.85a5.42,5.42,0,0,0,1.42,4.15,6.37,6.37,0,0,0,4.29,1.44h.52a17.35,17.35,0,0,0,3.06-.49l-.53-.54Z"/><path class="cls-3" d="M187,223.75a12.24,12.24,0,0,0-.68-1.94c-.18-.42-.41-1-.72-1.68a9.28,9.28,0,0,0-2.7-3.21,6.67,6.67,0,0,0-3.72-.91,10.87,10.87,0,0,0-1.81.15c-3.36.56-5.18,8.17-5.18,11.16s.8,3.59,3.53,4.38a10.42,10.42,0,0,0,2.76.34,15.43,15.43,0,0,0,7.79-2.16,4.84,4.84,0,0,0,1.38-1.2l0-.05v-.06A21.79,21.79,0,0,0,187,223.75Z"/><path class="cls-3" d="M156.72,226.66a17,17,0,0,1,4.1-10.81l-.2-.26c-2.23,1-5.06,3.29-5.92,8.66-.4,2.48,0,4.4,1.05,5.68a3,3,0,0,0,1.88.9l.43.06-.26-.32A6.22,6.22,0,0,1,156.72,226.66Z"/><path class="cls-7" d="M177.45,215.52a6.14,6.14,0,0,0-4.65-1.72h-.47c-4.06.19-7.58,6.37-8,11.78a8.36,8.36,0,0,0,7.55.12C173.23,218,176.08,215.72,177.45,215.52Z"/><path class="cls-7" d="M168.61,215.05a6.3,6.3,0,0,0-3.2-.79H165c-3.83.19-7.16,6.42-7.55,11.84a7.23,7.23,0,0,0,5.68.32C164,218.79,167.28,215.67,168.61,215.05Z"/><path class="cls-7" d="M184.59,218.58c-.25-.25-1.16-1.1-1.44-1.3a6.76,6.76,0,0,0-3.72-.9,12.05,12.05,0,0,0-1.81.14c-2.73.46-4.44,5.56-5,9.07C176.4,227.7,183.91,226.87,184.59,218.58Z"/><path class="cls-7" d="M160.27,216l-.05-.06c-2.08,1-4.73,3.29-5.53,8.66-.07.42-.1.82-.13,1.21a2,2,0,0,0,1.62.53C156.07,222.9,157.59,218.26,160.27,216Z"/><path class="cls-8" d="M98.6,26.64a8.35,8.35,0,0,0-3.32-5.82,9.18,9.18,0,0,0-5.66-1.17,19.76,19.76,0,0,0-7.84,2.18c-.93.52-2,1.07-3.19,1.65a13,13,0,0,1-2.56.88l.09-.05-.24-.15a13.25,13.25,0,0,0-5.31-1.83,30.52,30.52,0,0,0-4.58,0l-2.89.19a18.65,18.65,0,0,1-3.1,0l-.71-.12a30.83,30.83,0,0,0-6.9-.56,13.48,13.48,0,0,0-5.88,1.6c-5.27,2.95-9.31,8.08-11.25,10.88-.82,1.19-1.45,2.25-2.06,3.27a26.67,26.67,0,0,1-5.53,7c-.43.38-.81.79-1.15,1.15A8.05,8.05,0,0,0,25.8,47l-.35.07a24.58,24.58,0,0,0-4.72,9.52l.32.09.26-.61a19,19,0,0,0,.27,8.44l.34-.07a7,7,0,0,1-.1-1v-.89l.3.85a58.15,58.15,0,0,0,3.24,7.29l.32-.11-.5-1.36.48.48c.23.23,5.55,5.67,7.11,8.64l.17.31.14-.32A4.7,4.7,0,0,1,33.86,77l.07-.09-.06-.09c-.75-1.17-4.5-7.13-4.08-10S33.35,60.1,34,59.35l0,0v0a2.69,2.69,0,0,0-.49-1.84l-.11-.14a8.82,8.82,0,0,1,3.43-1.79l.18-.26a10.48,10.48,0,0,1,2.39-2.81c.27-.21.57-.42.89-.65A12,12,0,0,0,43.42,49l.11-.16s3.51-3.46,2.16-4-6.5,1.35-6.5,1.35-2.23-1.87-1.72-4,3-3.46,4.56-3.55c.12,0,.36,1.32.46,1.34.9.15,1.59-.43,1.87.43h.26c.47,1.42,1.46,2.53.7,5.67s-3.19,4-4.74,5.58c-.26.26-.88.62-1.16.84a12.6,12.6,0,0,0-3.2,3.71l.15.85-.15-.09a12.36,12.36,0,0,1,1.15,1.3c1.31,1.71,3.49,4.58,6.55,4.86a12.14,12.14,0,0,0,1.82,0,49.78,49.78,0,0,0,9.06-1.8,21.75,21.75,0,0,1,3-.69.94.94,0,0,1,.26,0,1.15,1.15,0,0,1,.64.69l.21.52.11-.55a14.06,14.06,0,0,0,.21-1.45V60h.16a9,9,0,0,1,5.45,2.44,18.75,18.75,0,0,1,2.9,3.47,6.8,6.8,0,0,1,.58,1.68c.08.69.18,1.38.27,2.06a8.14,8.14,0,0,1-.7,3.61c-.85,1.59-4.2,4.26-8.35,6a10.81,10.81,0,0,1-3.55.84,9.47,9.47,0,0,1-6.74-2.23,21.3,21.3,0,0,0-5.47-3.1h-.16a22,22,0,0,0-2.44,0,12.13,12.13,0,0,0-6.33,1.88,4.74,4.74,0,0,0-1.92,3.6,10.7,10.7,0,0,0,.67,4.68l.33-.08-.07-.39A22.34,22.34,0,0,0,35.05,87a13.42,13.42,0,0,0,3.57,4.17l.23-.23-.68-.71a25.52,25.52,0,0,0,6.37,2.43l.14-.28-1.14-.78.88.27a19.07,19.07,0,0,0,6,.61,15.63,15.63,0,0,0,4.47-.89c3.73-1.35,5.14-3.93,6.27-6A16.12,16.12,0,0,1,62.79,83c-.21.42-.45.91-.68,1.36l.26.18a22.27,22.27,0,0,1,10.46-5,45.16,45.16,0,0,0,10-2.49,13.73,13.73,0,0,0,2.59-1.47A10.56,10.56,0,0,1,84,76.94l.19.25a15.19,15.19,0,0,0,7.64-7.64c-.06.76-.12,1.5-.16,1.69l.33.08c2.16-5.12,1.88-12,1.88-12.1l0-.81.32.75a5.63,5.63,0,0,1,.26.79l.34,0c-.34-7.94-3-12.91-5.26-15.69-.77-1-1.78-2.13-2.66-3.14l-.25.15c-.28-.49-.56-1-.87-1.42l-.17-.19a47.37,47.37,0,0,1-4.9-6c-.8-1.62-.58-4.8,2.7-8.42a11.75,11.75,0,0,1,7.56-3.84h.18a6.4,6.4,0,0,1,4.74,1.72,9.47,9.47,0,0,1,2.55,5.09l.34,0A12.55,12.55,0,0,0,98.6,26.64Z"/><path class="cls-10" d="M34,59.35l0,0v0a2.6,2.6,0,0,0-.49-1.85l-.11-.14a6.5,6.5,0,0,1,3-1.56l.62-.48c.14-.22.62-1.34.76-1.54a5.77,5.77,0,0,1-2.73,1.54,8.07,8.07,0,0,0-3.25,1.68c-2.39,2.25-2.17,6.32-2.17,6.32s1.23-2.9,3.72-3.12Z"/><path class="cls-10" d="M58.89,55.49s-.08,3.71-1.5,5.14a.92.92,0,0,1,1.3.66l.22.52L59.35,60a23.13,23.13,0,0,0-.13-2.35C59.18,57,58.89,55.49,58.89,55.49Z"/><path class="cls-10" d="M75.63,64.12c1.09.37,2.6,3.53,2.6,3.53S77.66,63.25,77,62c-1-1.68-2.6-1.88-5.63-1.83A6.81,6.81,0,0,1,66.44,58a5.63,5.63,0,0,0,2.94,3.51c1.05.6,1.73.49,1.29,1.85A9,9,0,0,1,68,66.53a39.88,39.88,0,0,1,.53,4C69.64,69,73.93,63.54,75.63,64.12Z"/><path class="cls-7" d="M62,52.49c2.09.8,8.64.3,12.8-1.81,2.59-1.32.95-3.41-.25-5.27-1.59-2.45-6-3.39-10.17-1.73C59.32,45.26,60,51.72,62,52.49Z"/><path class="cls-12" d="M72.48,47.09a4.2,4.2,0,0,0-1-3.57,4,4,0,0,0-2-1.35,5.43,5.43,0,0,0-2.35,0,6.44,6.44,0,0,0-3.34,2.67c-1.22,1.79-2.25,4.6.65,5.23,2.7.59,7-.08,8-2.76Z"/><path class="cls-13" d="M69.3,43.06a5.25,5.25,0,0,1,3.23,2.86,5.47,5.47,0,0,0-1-2.22,4,4,0,0,0-2-1.5,4.87,4.87,0,0,0-2.35,0,5.66,5.66,0,0,0-2.36,1.62A5.39,5.39,0,0,1,69.3,43.06Z"/><path class="cls-13" d="M64.48,49.21c-1.45-.94-1.51-2.64-1.2-4.13-.9,1.88-1.25,4.19,1.22,4.8A8.88,8.88,0,0,0,67,50.1,5.56,5.56,0,0,1,64.48,49.21Z"/><path class="cls-7" d="M86.9,41.08l-.25.15c2,3.05,3.61,8.78,4.26,13.54-.3-1-.61-1.7-.83-2.23a25.78,25.78,0,0,1-.18,5.89,24.44,24.44,0,0,1-.12,5.79l-.32-2.61c-.37,2.86-1.67,6-4.33,7.83-.09.06.9-1.34,1.15-1.81-1.83,1.48-5.65,4.26-8.16,3.13a.78.78,0,0,1-.41-.47,9.83,9.83,0,0,1-.57-2.93c-.35-1.79-.85-4.81-3-5.73-2.83,1.6-4.49,4.67-5.64,7.49l.06.49a8.18,8.18,0,0,1-.69,3.61c-.85,1.59-4.2,4.25-8.35,6A11.11,11.11,0,0,1,56,80a9.43,9.43,0,0,1-6.74-2.23,21.46,21.46,0,0,0-5.47-3.1h-.16c-.85,0-1.67,0-2.45,0a12.28,12.28,0,0,0-6.32,1.88,4.63,4.63,0,0,0-1.75,3.6,10.48,10.48,0,0,0,.5,4.68l.32-.07-.06-.39a22.85,22.85,0,0,0,1.34,2.55,12.9,12.9,0,0,0,3.49,4.12l.21-.11-.69-.71a25.66,25.66,0,0,0,6.29,2.28l.1-.22-1-.7.89.28a23.12,23.12,0,0,0,6.11.49,15.08,15.08,0,0,0,4.33-.9c3.73-1.35,5.17-3.81,6.3-5.89A17.61,17.61,0,0,1,62.84,83c-.21.41-.45.9-.69,1.36l.27.18a22.13,22.13,0,0,1,10.46-5.06A44.58,44.58,0,0,0,82.93,77a13.5,13.5,0,0,0,2.59-1.47,10.65,10.65,0,0,1-1.47,1.37l.19.26a15.11,15.11,0,0,0,7.64-7.65c0,.77-.11,1.51-.15,1.69l.32.09c2.17-5.12,1.89-12,1.88-12.11l0-.8.32.75a5.22,5.22,0,0,1,.26.79l.33,0c-.34-7.94-3-12.92-5.25-15.7C88.79,43.24,87.78,42.09,86.9,41.08Z"/><path class="cls-9" d="M92.32,49c1.11,2.7,1.52,6.79,1.67,7.27A14.22,14.22,0,0,0,93,54a42.27,42.27,0,0,1,0,12.37s-.37-2-.51-3.45c-.18,3,.22,7.14-4.29,10.66.54-.68,1.71-2.3,2.17-3-6,6.12-18.66,4.9-23.65,5.61a6.61,6.61,0,0,0,2.21-2.49,5.31,5.31,0,0,0,.36-1.76,10.7,10.7,0,0,1,3.45-6.94c1.71-1.41,2.7-1.19,3.81-.23a4.73,4.73,0,0,0-2.35-3.08c-2.83,1.6-4.49,4.67-5.64,7.49,0,.16,0,1.41,0,1.91,0,1.13-.78,2.79-3,4.66a24.79,24.79,0,0,1-3.85,2.38,11.77,11.77,0,0,1-9,1.47c1.16.92,3.83,1.19,6.4.75,1.08,1.85-1.63,5-3.63,6.3a10.8,10.8,0,0,0,2.34-1.21c-4.34,4.31-12.37,5.36-18.09,2a7.1,7.1,0,0,0,1.76,1.75s-3.78-1.59-5.18-3.88a7,7,0,0,0,1,2,12.75,12.75,0,0,1-4-7.93,6.84,6.84,0,0,0-.15.94,9.87,9.87,0,0,0,.52,4.56l.32-.07-.06-.39a22.85,22.85,0,0,0,1.34,2.55,12.9,12.9,0,0,0,3.49,4.12l.21-.11-.69-.71a25.66,25.66,0,0,0,6.29,2.28l.1-.22-1-.7.89.28a23.12,23.12,0,0,0,6.11.49,15.08,15.08,0,0,0,4.33-.9c3.73-1.35,5.17-3.81,6.3-5.89A17.61,17.61,0,0,1,62.84,83c-.21.41-.45.9-.69,1.36l.27.18a22.13,22.13,0,0,1,10.46-5.06A44.58,44.58,0,0,0,82.93,77a13.5,13.5,0,0,0,2.59-1.47,10.65,10.65,0,0,1-1.47,1.37l.19.26a15.11,15.11,0,0,0,7.64-7.65c0,.77-.11,1.51-.15,1.69l.32.09c2.17-5.12,1.89-12,1.88-12.11l0-.8.32.75a5.22,5.22,0,0,1,.26.79l.33,0C94.69,57,94.41,51.32,92.32,49Z"/><path class="cls-7" d="M33.68,57.24l-.14.11c-.33.26-.94.83-.94.81a16,16,0,0,0-2,4.55c-.18.52-.49,1.61-1.19,1.41a7.2,7.2,0,0,1-2.62-2.78,7.84,7.84,0,0,1-1.24-3.68c-.06.38-.14.76-.18,1.15,0,.15-.28.11-.26-.05s0,0,0-.06h0a5.62,5.62,0,0,1,0-2.58c-.14.41-.5,1.54-.5,1.54s-.09-.68-.09-.71a17.69,17.69,0,0,1,.55-4.37,4.72,4.72,0,0,1,.29-.7,9.37,9.37,0,0,0-1,1.32,25.56,25.56,0,0,1,1.84-6.46l-.55.25A24.58,24.58,0,0,0,21,56.5l.32.09.26-.61a19,19,0,0,0,.27,8.44l.16-.11a4.73,4.73,0,0,1,.08-1v-.89l.3.85a58.15,58.15,0,0,0,3.24,7.29l.32-.11-.5-1.36.48.48c.23.23,5.55,5.67,7.11,8.64l.17.31.14-.32A4.7,4.7,0,0,1,34.12,77l.07-.09-.06-.09c-.75-1.17-4.5-7.13-4.08-10s3.56-6.74,4.19-7.49l0,0v-.05a2.69,2.69,0,0,0-.49-1.84Z"/><path class="cls-9" d="M34.13,76.8c-.3-.47-1.09-1.72-1.9-3.23a65.72,65.72,0,0,0-5.14-5,11.25,11.25,0,0,1-2.91-4.09c.13.72.75,2.74.75,2.74a41.14,41.14,0,0,1-2.84-6c.15,3.4,2.33,7.25,3.52,9.42l.32-.11-.5-1.36.48.48c.23.23,5.55,5.67,7.11,8.64l.17.31.14-.32A4.7,4.7,0,0,1,34.12,77l.07-.09Z"/><path class="cls-9" d="M33.3,60.25c.33-.42.59-.74.73-.9l0,0v0a2.6,2.6,0,0,0-.49-1.85l-.11-.14-.14.12c-.33.26-.94.82-.93.81a15.38,15.38,0,0,0-1.95,4.55l-.14.41A6.3,6.3,0,0,1,33.3,60.25Z"/><path class="cls-9" d="M91.16,21.61H91a11.46,11.46,0,0,0-7.38,3.73c-3,3.31-3.48,6.47-2.65,8.14a49.33,49.33,0,0,0,4.85,5.95c.68.76,1.36,1.54,2,2.28l.08.09.12,0a22.31,22.31,0,0,0,8.34-5.67,10,10,0,0,0,1.77-3.38c.77-3.33-.29-7.41-2.48-9.48A6,6,0,0,0,91.16,21.61Z"/><path class="cls-7" d="M95.67,23.24a6,6,0,0,0-4.51-1.63H91a10.8,10.8,0,0,0-5.47,2.07c3.31-1,7.28.09,8.54,3.46,1.85,5-1.22,11-5.59,14.44a22,22,0,0,0,7.89-5.49,10,10,0,0,0,1.77-3.38C98.92,29.39,97.86,25.31,95.67,23.24Z"/><path class="cls-7" d="M30.13,66.87c-.38,2.63,2.93,8.08,4,9.69l.1.17.16-.13.32-.26a12.59,12.59,0,0,1,6.49-1.93c.71,0,1.47,0,2.24,0h.22l0-.2a16.49,16.49,0,0,1-.17-3v-.12l-.13,0c-1.9-.42-3.76-2.36-5-3.92a24,24,0,0,1-4-7.2l-.09-.33-.22.27C32.91,61.19,30.48,64.44,30.13,66.87Z"/><path class="cls-9" d="M43.41,71.12l-.13,0c-1.9-.42-3.76-2.36-5-3.92a28.46,28.46,0,0,1-3-4.67c1.58,7.28,7.45,8.4,7.56,10.26s-4.88.51-9.54,2.56c.39.66.54.88.77,1.24l.1.17.16-.13.32-.26a12.59,12.59,0,0,1,6.49-1.93c.71,0,1.47,0,2.24,0h.22l0-.2a16.49,16.49,0,0,1-.17-3Z"/><path class="cls-9" d="M37.17,31.17l.12.06.09-.11a40,40,0,0,1,4.09-4.29l.11-.1-.1-.11c-2.21-2.44-2.23-5.89-2.25-8.93v-.28c0-2.67,0-5.19-1.88-5.59a2.41,2.41,0,0,0-.65-.05c-1.84.11-3.05,2.36-3.37,3.05C32.4,16.77,28.25,26.74,37.17,31.17Z"/><path class="cls-7" d="M35.36,19.68c.58-1.54,1.92-3.95,3.87-3.08,0-2.35-.21-4.42-1.88-4.78a2.41,2.41,0,0,0-.65-.05c-1.84.11-3.05,2.36-3.37,3.05-.89,1.89-4.81,11.27,3,15.89C34.84,27.16,34,23.19,35.36,19.68Z"/><path class="cls-6" d="M37.47,11.57c2,.69,2,3.2,2.06,6.12s0,6.35,2.15,8.72l.12.13.13-.12a27.11,27.11,0,0,1,4.48-3.19A12.2,12.2,0,0,1,49.5,22l.36-.09-.3-.19a32.14,32.14,0,0,1-3.63-2.56,42.79,42.79,0,0,1-4-4.66c-1-1.28-1.95-2.48-2.49-3A1.84,1.84,0,0,0,38,11a1.33,1.33,0,0,0-.28,0,5.5,5.5,0,0,0-.59.14l0,.3A2.09,2.09,0,0,1,37.47,11.57Z"/><path class="cls-7" d="M43.89,71.18h-.18v.17a12.73,12.73,0,0,0,.22,3l0,.07.07,0a22.08,22.08,0,0,1,5.43,3.12A9.14,9.14,0,0,0,56,79.74h0a10.76,10.76,0,0,0,3.44-.81c4.5-1.85,7.5-4.53,8.2-5.83A8.94,8.94,0,0,0,67.47,66c-.12-.22-2.85-5.43-8-6h-.2v.17a7.94,7.94,0,0,1-.38,3,2.21,2.21,0,0,1-.56,1.23c-.69.68-9,6.5-13.77,6.78A4.48,4.48,0,0,1,43.89,71.18Z"/><path class="cls-9" d="M50.33,76.62c-3.07-1.75-5.39-1.8-5.57-3.64s9.05-2,13.77-8.87a1.7,1.7,0,0,1-.23.3c-.69.68-9,6.5-13.77,6.78a4.48,4.48,0,0,1-.64,0h-.18v.17a12.73,12.73,0,0,0,.22,3l0,.07.07,0a22.08,22.08,0,0,1,5.43,3.12c1.73,1.51,4.88,3.29,10,1.34,4.55-1.74,7.5-4.53,8.2-5.83a6.61,6.61,0,0,0,.61-2.38c-.88,3.64-6.35,7.09-11.44,7.57A10.86,10.86,0,0,1,50.33,76.62Z"/><path class="cls-10" d="M36.84,55.61l-.39.11a9,9,0,0,0-2.81,1.43l-.13.09.11.12a2.27,2.27,0,0,1,.48,1.06l.08.53.24-.48a4.07,4.07,0,0,1,1.64-1.64l.14-.07,0,0c.1-.2.24-.46.42-.77Z"/><path class="cls-14" d="M58.2,60.79s-.49-.24-.54-.24c-.43,0-1.43.63-2.65,1l.21-.19A51.81,51.81,0,0,1,46,63.17a13.61,13.61,0,0,1-2-.12c-3.19-.29-5.34-3.27-6.68-5a8.49,8.49,0,0,0-.86-1l-.15-.1-.21-.06c-.4.25-1.68,1-1.88,2.12-.16.93,1.65,5.49,3.94,8.38,1.84,2.32,3.82,3.7,5.29,3.91a7.36,7.36,0,0,0,1.23.33l.61-.25c4.46-.26,12.42-6.37,13.28-7.21a3.22,3.22,0,0,0,.41-2.75A.92.92,0,0,0,58.2,60.79Z"/><path class="cls-15" d="M79.22,44.26S84.54,52,81.55,59.13c-2.25-2-4.87-2.84-8.38-3.06,6.17,1.46,7.72,4.27,9.16,7.66A17.66,17.66,0,0,0,79.22,44.26Z"/><path class="cls-15" d="M64.79,52.93S75.27,53,76.18,48C78.11,55.86,64.79,52.93,64.79,52.93Z"/><path class="cls-15" d="M37.36,51.27s-5.18.67-7.16,2.07c-1.94-7,3.07-14.53,3.07-14.53S25.91,46.91,29,57.19C30.78,53,37.36,51.27,37.36,51.27Z"/><path class="cls-15" d="M43.63,70.44a14.94,14.94,0,0,1-.22-6A7.19,7.19,0,0,0,43.63,70.44Z"/><path class="cls-7" d="M55,66.44c-.43,0-3.62-1-5.9.13s-1.48,4.05-1.48,4.05A44.34,44.34,0,0,0,55,66.44Z"/><path class="cls-15" d="M55.25,66.7c-.44,0-3.62-1-5.9.14a3.46,3.46,0,0,0-1.75,3.9A33.18,33.18,0,0,0,55.25,66.7Z"/><path class="cls-7" d="M38.94,64.93A2.37,2.37,0,0,0,36.59,64c.39,1.53,3.7,5.17,3.7,5.17A7.13,7.13,0,0,0,38.94,64.93Z"/><path class="cls-15" d="M38.86,64.94c-.62-1-1.65-1-2.67-.95.39,1.53,3.71,5.17,3.71,5.17A8.32,8.32,0,0,0,38.86,64.94Z"/><path class="cls-15" d="M45.76,49a17.49,17.49,0,0,1,7.88.45A11.34,11.34,0,0,0,45.76,49Z"/><path class="cls-15" d="M59.68,23.85c-5.28,3.66-7,12.38-7,12.38S50.36,27.2,59.68,23.85Z"/><path class="cls-15" d="M74.86,29.93s-6.82-6.16-13-2.64C68.21,20.45,74.86,29.93,74.86,29.93Z"/><path class="cls-15" d="M41.58,28.53s6.52-5.88,11.81-2.14C48.18,19.33,41.58,28.53,41.58,28.53Z"/><path class="cls-15" d="M65.05,50.39c-.94-.07-3.22.13-3.64-.29s.7-1.27.94-2.16a10.08,10.08,0,0,1,3.14-5.22,3.28,3.28,0,0,1,2-.88s-.1.69-1.25.79c3.69-.68,5.25.1,6,1.47s1.85,2.55,1.34,3.2a7.57,7.57,0,0,1-1.92,1.64C69.78,50.3,67.59,50.56,65.05,50.39Zm2.39-8.08c-2.1.26-4.21,3.06-4.49,5.73-.12,1.22,1.73,1.82,2.43,2,2.42.45,5.61-.23,6.66-2a3.78,3.78,0,0,0-.36-3.93A4.25,4.25,0,0,0,67.44,42.31Z"/><path class="cls-15" d="M40.73,49.79s-8.66-3.41-5.91-8.63C28.35,49.19,40.73,49.79,40.73,49.79Z"/><path class="cls-15" d="M45,28.64c4.63-1.05,8.35,3.71,8.35,3.71s7.52-4.4,13-2.66c-6.11-2.62-12.36.54-12.36.54A8.25,8.25,0,0,0,45,28.64Z"/><path class="cls-16" d="M68.64,48.44a2.94,2.94,0,0,1-3.76-1.23,2.49,2.49,0,0,1,1.34-3.44A3,3,0,0,1,70,45,2.5,2.5,0,0,1,68.64,48.44Z"/><path class="cls-17" d="M69.78,44.69a3,3,0,0,0-3.56-.92,2.71,2.71,0,0,0-1.45,1.45A4,4,0,0,0,69.78,44.69Z"/><path class="cls-15" d="M67.62,48.78a3.31,3.31,0,0,1-1.17-.15,2.85,2.85,0,0,1-1.67-1.38,2.59,2.59,0,0,1,1.4-3.57,3.2,3.2,0,0,1,2.24-.1A2.8,2.8,0,0,1,70.08,45a2.58,2.58,0,0,1-1.39,3.57A3.34,3.34,0,0,1,67.62,48.78Zm-.36-5.16a2.93,2.93,0,0,0-1,.24,2.53,2.53,0,0,0-1.39,1.41,2.26,2.26,0,0,0,.1,1.9,2.65,2.65,0,0,0,1.55,1.28,3,3,0,0,0,2.08-.1A2.53,2.53,0,0,0,70,46.94a2.26,2.26,0,0,0-.1-1.9,2.66,2.66,0,0,0-1.54-1.28A3.15,3.15,0,0,0,67.26,43.62Z"/><path class="cls-15" d="M68.24,47.66a2,2,0,0,1-2.52-.82,1.67,1.67,0,0,1,.9-2.3,2,2,0,0,1,2.52.82A1.66,1.66,0,0,1,68.24,47.66Z"/><path class="cls-2" d="M66.05,45.83a.48.48,0,0,1-.48.5.5.5,0,0,1-.54-.44.51.51,0,0,1,1-.06Z"/><path class="cls-2" d="M68.65,47.31a.28.28,0,0,1-.27.29.29.29,0,0,1-.32-.26.29.29,0,0,1,.28-.28A.28.28,0,0,1,68.65,47.31Z"/><path class="cls-2" d="M44,45.91a.3.3,0,0,1-.37.19.28.28,0,0,1-.2-.34.31.31,0,0,1,.37-.18A.27.27,0,0,1,44,45.91Z"/><path class="cls-7" d="M37.88,60s2.58,3.5,6,3.81,9.95-1.36,9.95-1.36-7.09,2.3-10.33,1.78C39.77,63.63,37.88,60,37.88,60Z"/><path class="cls-15" d="M50.28,71.18c5.24.75,10.58.7,14.75-2.68C62.53,69.71,59.52,71.41,50.28,71.18Z"/><path class="cls-15" d="M58.52,73.81a29.41,29.41,0,0,1-8.86-1,18.81,18.81,0,0,0,8.75,1.84,10.49,10.49,0,0,0,6.94-3.34A15,15,0,0,1,58.52,73.81Z"/><path class="cls-15" d="M51.88,75.48c4.15,2.44,9.55.32,9.55.32A7.86,7.86,0,0,1,51.88,75.48Z"/><path class="cls-15" d="M30.53,69.38h0a.29.29,0,0,1,0,.09c0,.1.06.2.09.3A7.14,7.14,0,0,0,36.29,69a11.63,11.63,0,0,1-5.78.29Z"/><path class="cls-15" d="M31.65,72.62a13.87,13.87,0,0,0,6.18-2s-3.81,1.6-6.65.8C31.3,71.72,31.55,72.33,31.65,72.62Z"/><path class="cls-15" d="M36.19,73a14.26,14.26,0,0,1-3.56,1.16l.29.46A9.25,9.25,0,0,0,36.19,73Z"/><path class="cls-7" d="M37.58,38.81s-2.88,1.57-3.07,2.76-1,3.63,3.32,6.66,7.75-1.22,8-2.12-.47-.11-.47-.11L41.3,39Z"/><path class="cls-7" d="M45.9,40.94a3.85,3.85,0,0,0,1.38-2.84c0-1.83-4.84-3.66-9.92-1.35a5,5,0,0,0-2.94,5.31L38.31,39l5.82,1Z"/><path class="cls-7" d="M46.26,45.59a12.52,12.52,0,0,0,1-7.49c-.82-3.94-2.21,4-2.21,4l.4,1.34Z"/><path class="cls-12" d="M46.19,45.13l0-.1a7.17,7.17,0,0,0-.6-1.59,11.28,11.28,0,0,0-4.64-4.74,2.15,2.15,0,0,0-2.3,0l-.31.26a4,4,0,0,0-1.24,2.94,5.28,5.28,0,0,0,2,4.14,4.24,4.24,0,0,0,1.29.65,9.6,9.6,0,0,0,2.07.18,4.79,4.79,0,0,0,1.09-.22,7.64,7.64,0,0,0,2.6-1.48Z"/><path class="cls-13" d="M41.3,39a5,5,0,0,0-.5-.29,2.17,2.17,0,0,0-2.32,0,2.55,2.55,0,0,0-.3.26A3.75,3.75,0,0,0,37,41.9a5.42,5.42,0,0,0,.28,1.58C37,41,39.07,38.27,41.3,39Z"/><path class="cls-16" d="M43.38,40.34a3.2,3.2,0,0,0-2.72,1.72,2.36,2.36,0,0,0,1.18,3.41,3.11,3.11,0,0,0,3.74-1.54,3.2,3.2,0,0,0,.16-.39A19.85,19.85,0,0,0,43.38,40.34Z"/><path class="cls-17" d="M43.29,40.46a3,3,0,0,0-2.67,1.63,2.54,2.54,0,0,0-.15,2,3.93,3.93,0,0,0,3.35-3C43.65,40.87,43.47,40.66,43.29,40.46Z"/><path class="cls-15" d="M45.58,43.52a2.11,2.11,0,0,1-.18.45,2.83,2.83,0,0,1-1.51,1.38,2.74,2.74,0,0,1-2,0,2.25,2.25,0,0,1-1.31-1.34,2.44,2.44,0,0,1,.14-1.92,3,3,0,0,1,.61-.8,2.72,2.72,0,0,1,.91-.58,2.83,2.83,0,0,1,1.14-.2l-.18-.2a2.83,2.83,0,0,0-1,.22,3.07,3.07,0,0,0-1.64,1.49,2.48,2.48,0,0,0,1.26,3.51,2.94,2.94,0,0,0,2.16,0,3.07,3.07,0,0,0,1-.62,3.3,3.3,0,0,0,.65-.87c0-.1.08-.2.12-.3S45.62,43.59,45.58,43.52Z"/><path class="cls-15" d="M44.73,42.23c-.13-.17-.25-.34-.39-.51a1.44,1.44,0,0,0-.46-.29,2,2,0,0,0-2.45,1,1.59,1.59,0,0,0,.81,2.26,2,2,0,0,0,2.45-1A1.67,1.67,0,0,0,44.73,42.23Z"/><path class="cls-2" d="M42.08,41.63a.54.54,0,0,1-.25.69.49.49,0,0,1-.65-.27.52.52,0,0,1,.24-.69A.49.49,0,0,1,42.08,41.63Z"/><path class="cls-2" d="M44,44.22a.28.28,0,0,1-.13.37.27.27,0,0,1-.35-.14.28.28,0,0,1,.14-.37A.25.25,0,0,1,44,44.22Z"/><path class="cls-15" d="M46.17,45.06s-1.24-3.56-3.63-5.15c-2.15-1.42-3.26-2.32-4.89-.18s.22,5.79,1.61,6.47,4.05,1,6.89-1.34l0,.3.07.43a8.9,8.9,0,0,1-.89.41,7.29,7.29,0,0,1-3.85,1.29,4.73,4.73,0,0,1-3.78-1.56c-1.34-1.21-1.14-3.85-1-4.31a5,5,0,0,1,1-2.19c.73-.83.51-.46.51-.46a1.61,1.61,0,0,0-.7,0,2.22,2.22,0,0,1,1.75-.65,5.92,5.92,0,0,1,3.09,1.17C43.29,40,46,42.64,46.17,45.06Z"/><path class="cls-7" d="M61,42.89S59.07,46.1,60.8,51c.19.55.13-3.48,1.81-5.47,1.85-2.2,5.45-2.41,5.45-2.41s4-.17,5.62,1.62a14.49,14.49,0,0,1,2.38,3.68,7.35,7.35,0,0,0-1.7-6.65c-1.85-2.05-4.1-2.69-7.57-2.25C66.79,39.56,62.12,40.46,61,42.89Z"/><path class="cls-15" d="M69.29,41.58C67,41.41,63,44,62.45,44.32s-1.39,0-1.4-1.73a4.3,4.3,0,0,0,.3,3.06,1.9,1.9,0,0,1-.73-1.12c0,.86.44,2.71,1.77,2.61.78-.06,2.91-2.53,5.07-3.25a6.81,6.81,0,0,1,7.06,1.75S72.69,41.83,69.29,41.58Z"/><path class="cls-18" d="M36.2,56.76a3.23,3.23,0,0,0-2,2.54c-.12,1.81,4.17,10.4,9.17,11.82s13.78-5.86,15.21-7.39c1.15-1.23.24-3.73-1.23-3.1s-10.83,3-13.43,2.42S39.36,60.42,36.2,56.76Z"/><path class="cls-15" d="M40.05,37.07c2.34-.16,5.08,2.54,5.58,2.85s1.43,0,1.65-1.82a5,5,0,0,1-.68,3.22,2.26,2.26,0,0,0,.87-1.17c-.11.9-.78,2.85-2.12,2.74-.79-.07-1.59-2.6-3.71-3.37-4.2-1.52-7.44,1.82-7.44,1.82S36.54,37.32,40.05,37.07Z"/><path class="cls-18" d="M34,59.35s-3.55,4.29-4,7.88,3.65,8.55,4.33,9.37a15.55,15.55,0,0,1,9.43-1.92A22,22,0,0,1,51.2,79c4.29,3.49,13.48-2.67,13.48-2.67A8,8,0,0,0,68,66.53a9.71,9.71,0,0,0-8.67-6.7L59.07,61"/><path class="cls-18" d="M68.49,68.5s2.81-4.74,4-5.68l1.63-1.19s2,.62,2.6,3.93a25.3,25.3,0,0,0,1.36,5.2s1.39,1.36,6.49-1.88l1.67-1.25-1.15,1.81S88.27,67,89,63.73s.44-2.12.44-2.12.4,3,.05,4c0,0,.36-4.81.57-6.91.17-1.68,0-6.11,0-6.11l.83,2.23s-1.92-10-4.26-13.54-.88-1.42-.88-1.42,1.21,2.12,2.72,1.78S97,37.82,98.4,31.71c0,0,.51-2.73,0-3.57"/><path class="cls-18" d="M85.05,39s5.32,5,8,10.6a19.25,19.25,0,0,1,1.66,11"/><path class="cls-8" d="M43.71,71.34a14.25,14.25,0,0,0,.07,3.34"/><path class="cls-19" d="M50.26,21.86s-4.35-2.33-5.74-4.34L41,13.25c-.35-.43-1.58-3.15-4.15-1.95l-.22.11a5.82,5.82,0,0,0-.94.64c-3.37,2.77-4.48,8-4.07,12.27a9.25,9.25,0,0,0,5.65,6.91L39,29.72,41.74,27a14.49,14.49,0,0,1-2.23-5.85c-.27-3,0-5.92-.47-7.55a3.48,3.48,0,0,0-2.19-2.21"/><path class="cls-18" d="M37.88,53.9l-1.43,1.82a8,8,0,0,0-4.06,2.49,10,10,0,0,0-1.95,4.71c-.27,1.48-1,1.2-1,1.2a9,9,0,0,1-3.85-6.33,3.75,3.75,0,0,0-.11,1.85,5.67,5.67,0,0,1-.34-3.53,6.76,6.76,0,0,0-.67,2.54c0,1.19-.32-4.82.92-6.78a5.14,5.14,0,0,0-1.24,2.27c-.34,1.41.73-6.34,2.54-8.5"/><path class="cls-15" d="M61.88,46.07s-1.06,3.31-.32,3.79,2.19,1.06,7.49.61a5.77,5.77,0,0,0,5.47-4.83s-1-1.91-2-2.08l-1.34-.88s2.16,3.31,1.94,3.68S72,48.53,72,48.53a8.12,8.12,0,0,1-6,1.77c-3.65-.37-3.2-1.45-3.2-1.45L63,47l.41-1.3Z"/><path class="cls-15" d="M36.84,39.25A5.83,5.83,0,0,0,36.19,44c.89,2.39,2.87,3.48,5.63,3.61A5.25,5.25,0,0,0,46,45.92l-.19-.69-3,1.61L40.35,47l-1.91-1-1.08-1.22-.5-2-.11-1.37a8.15,8.15,0,0,1,1.73-2.7Z"/><path class="cls-15" d="M61.9,39s4.7-4.24,12.62-.6c0,0,3.28,2.47,3.84,4.45A9.52,9.52,0,0,0,71.62,36C66,34.53,61.54,37.89,61.9,39Z"/><path class="cls-15" d="M35.91,35.64s4-4.84,11.56-1.73a1.92,1.92,0,0,1,1.42,2.32s1.69-4.73-4.48-4.64-9.18,3.47-8.62,4.23"/><path class="cls-15" d="M65,32.35s7.78.32,10.38,3.29C75.41,35.64,73.35,30.94,65,32.35Z"/><path class="cls-18" d="M45.47,42.72s2.05,2.67-1.33,6-7.32,4.75-7.81,8.07"/></svg>