<svg id="Layer_54" data-name="Layer 54" xmlns="http://www.w3.org/2000/svg" viewBox="0 0 256 256"><defs><style>.cls-1{opacity:0.5;}.cls-2{fill:#fff;}.cls-3{fill:#f6ddcd;}.cls-4{fill:#997968;}.cls-5{fill:#6b4a37;}.cls-18,.cls-6{fill:#c1b3ab;}.cls-7{fill:#cbaf9d;}.cls-8{fill:#d0b6a5;}.cls-9{fill:#b2917c;}.cls-10{fill:#433c37;}.cls-11{fill:#211b18;}.cls-12{fill:#815049;}.cls-13,.cls-15{fill:#f7e6e6;}.cls-13,.cls-17,.cls-18{stroke:#60452c;stroke-miterlimit:10;}.cls-13{stroke-width:0.75px;}.cls-14{fill:#333316;}.cls-16{fill:#d4b8a7;}.cls-17{fill:none;}.cls-19{fill:#60452c;}</style></defs><path class="cls-1" d="M178.89,248.72a6,6,0,0,1-5.73-7.79l.13-.41s.08-.27.23-.68a20.12,20.12,0,0,1,7-9.89L178.78,200c0-.12,0-.24,0-.36,0-3.06-.94-8.36-2.86-10.46-.74-.48-2.26-1.45-4.22-2.73-5.1-3-9.83-6-14.15-8.91a57,57,0,0,0,2.4,8A6,6,0,0,1,160,190l-14.83,38.43a6,6,0,0,1,.81,2.06s.05.25.11.64q.06.27.09.51a8.91,8.91,0,0,1,.32,4.06c0,.49,0,1-.08,1.4-.56,7.61-5.66,9-7.22,9.29a3.45,3.45,0,0,1-.55.07l-11.93.9-.45,0a6,6,0,0,1-6-6.13,6.16,6.16,0,0,1,.17-1.35l.1-.41a21.1,21.1,0,0,1,6.37-10.59L138.23,190l-7.87-16.19c-6.07,1.24-11.94,2.15-17.54,2.72-3,.33-5.89.54-8.49.61a30.55,30.55,0,0,1-1.42,2.71l-1.17,49.4.2.24a6,6,0,0,1,1.3,3c.31,2.39.73,8.28-2,12.06A7.56,7.56,0,0,1,95,248.07h-.22c-1.27.07-5.06.29-8.2.29a20.2,20.2,0,0,1-5.37-.48A6,6,0,0,1,77.6,245a6,6,0,0,1-.69-2.18,5.53,5.53,0,0,1-1.4.17H62.87a6,6,0,0,1-5.73-7.78l.13-.41c.22-.71,2.37-7.35,8.09-10.83l.21-29c-.75-3.84-3.89-20.35-4.64-28.51C56.31,163,49,154.74,46.71,136.6c-.89-4.6.11-16.1,1.17-25.27.62-6.92,1.35-12.26,1.49-13.24,0-.47.08-.92.11-1.37,0-.74.06-1.63.08-2.63A14.63,14.63,0,0,1,40,99.46a16,16,0,0,1-2.49.2c-.5,0-1,0-1.45-.07l-.59-.06a27.77,27.77,0,0,1-5.65-.92,6,6,0,0,1-1.16-.44c-.1,0-1-.52-2.22-1.28l-.12-.07a17.8,17.8,0,0,1-4-3.06A17.6,17.6,0,0,1,20,91.08a11.8,11.8,0,0,1-7.53-11.41,10.21,10.21,0,0,1,1.29-6.83,8.47,8.47,0,0,1,3-2.9,27.44,27.44,0,0,1,1.89-7l-.87-11.18a21,21,0,0,1,.78-16,13.1,13.1,0,0,1-2.37-4.64c-.73-2.66-1-6.89,2.21-11.9a6.27,6.27,0,0,1,2.8-2.33,5.2,5.2,0,0,1,.69-.27,8.78,8.78,0,0,1,2.77-.42h.15a10.66,10.66,0,0,1,6.64,2.35,9.19,9.19,0,0,1,1-2,9.5,9.5,0,0,1,8.32-4.34A16.93,16.93,0,0,1,45.4,13l.19.05a26.3,26.3,0,0,1,3.7,1.37l1.62.81a66.32,66.32,0,0,1,6.85,3.52,10.63,10.63,0,0,1,7.09-3.2,8.06,8.06,0,0,1,4.37,1.29,10,10,0,0,1,4.3,6.26,19.5,19.5,0,0,1,.67,8.31c8,7.55,27.7,28.58,40.5,61.83,1.76,4.25,3.06,7.79,3.92,10.23a26.62,26.62,0,0,0,6,.6,51.25,51.25,0,0,0,6.79-.5A173.61,173.61,0,0,0,150,98.86a23.53,23.53,0,0,1,10.24-2.33,27.62,27.62,0,0,1,12.63,3.22,20.08,20.08,0,0,1,9.47-2.5A18.41,18.41,0,0,1,190.12,99c13.41,5.64,19.25,25.12,19.87,27.33a3.38,3.38,0,0,1,.08.34c.14.61.32,1.31.54,2.07l.06.2c2.25,7.7,7.72,19.32,7.77,19.44l.09.2c.16.36.32.7.49,1l.28.58.14.24a19,19,0,0,0,2.07,3,9.59,9.59,0,0,0,7.7,3.39c5.21,0,10.26-3,10.31-3a6,6,0,0,1,7.51,9.23c-10.3,10.82-19.76,16.08-28.9,16.08-6.54,0-12.48-2.73-17.64-8.11a49.9,49.9,0,0,1-9.32-14.3c-.07.22-.15.44-.24.65,0,0-.07.19-.15.46a16,16,0,0,0-.53,4.38c.15,3.84,2.06,7.31,5.67,10.27.36.26.64.43.79.52l.26.12a5.94,5.94,0,0,1,3.19,3.71,15.18,15.18,0,0,1-.89,10.48,17.12,17.12,0,0,1-1.83,3.94c-.08,4.23-.28,14.84-.33,24v8.6c0,2.21,0,3.66.09,4.61a13,13,0,0,1,1.76,2.64,5.76,5.76,0,0,1,.59,1.93,28,28,0,0,1,0,7c-.46,5-3.67,7.76-6.75,8.38a7.24,7.24,0,0,1-1.07.19l-.55,0ZM83.42,228.51c.08.61.14,1.19.17,1.75l.41-.33-.91-9.25-.22,2.88a11.15,11.15,0,0,1,.48,2.95A10.49,10.49,0,0,1,83.42,228.51Z"/><path class="cls-2" d="M173.89,243.72a6,6,0,0,1-5.73-7.79l.13-.41s.08-.27.23-.68a20.12,20.12,0,0,1,7-9.89L173.78,195c0-.12,0-.24,0-.36,0-3.06-.94-8.36-2.86-10.46-.74-.48-2.26-1.45-4.22-2.73-5.1-3-9.83-6-14.15-8.91a57,57,0,0,0,2.4,8A6,6,0,0,1,155,185l-14.83,38.43a6,6,0,0,1,.81,2.06s.05.25.11.64q.06.27.09.51a8.91,8.91,0,0,1,.32,4.06c0,.49,0,1-.08,1.4-.56,7.61-5.66,9-7.22,9.29a3.45,3.45,0,0,1-.55.07l-11.93.9-.45,0a6,6,0,0,1-6-6.13,6.16,6.16,0,0,1,.17-1.35l.1-.41a21.1,21.1,0,0,1,6.37-10.59L133.23,185l-7.87-16.19c-6.07,1.24-11.94,2.15-17.54,2.72-3,.33-5.89.54-8.49.61a30.55,30.55,0,0,1-1.42,2.71l-1.17,49.4.2.24a6,6,0,0,1,1.3,3c.31,2.39.73,8.28-2,12.06A7.56,7.56,0,0,1,90,243.07h-.22c-1.27.07-5.06.29-8.2.29a20.2,20.2,0,0,1-5.37-.48A6,6,0,0,1,72.6,240a6,6,0,0,1-.69-2.18,5.53,5.53,0,0,1-1.4.17H57.87a6,6,0,0,1-5.73-7.78l.13-.41c.22-.71,2.37-7.35,8.09-10.83l.21-29c-.75-3.84-3.89-20.35-4.64-28.51C51.31,158,44,149.74,41.71,131.6c-.89-4.6.11-16.1,1.17-25.27.62-6.92,1.35-12.26,1.49-13.24,0-.47.08-.92.11-1.37,0-.74.06-1.63.08-2.63A14.63,14.63,0,0,1,35,94.46a16,16,0,0,1-2.49.2c-.5,0-1,0-1.45-.07l-.59-.06a27.77,27.77,0,0,1-5.65-.92,6,6,0,0,1-1.16-.44c-.1,0-1-.52-2.22-1.28l-.12-.07a17.8,17.8,0,0,1-4-3.06A17.6,17.6,0,0,1,15,86.08,11.8,11.8,0,0,1,7.43,74.67a10.21,10.21,0,0,1,1.29-6.83,8.47,8.47,0,0,1,3-2.9,27.44,27.44,0,0,1,1.89-7l-.87-11.18a21,21,0,0,1,.78-16,13.1,13.1,0,0,1-2.37-4.64c-.73-2.66-1-6.89,2.21-11.9a6.27,6.27,0,0,1,2.8-2.33,5.2,5.2,0,0,1,.69-.27,8.78,8.78,0,0,1,2.77-.42h.15a10.66,10.66,0,0,1,6.64,2.35,9.19,9.19,0,0,1,1-2,9.5,9.5,0,0,1,8.32-4.34A16.93,16.93,0,0,1,40.4,8l.19.05a26.3,26.3,0,0,1,3.7,1.37l1.62.81a66.32,66.32,0,0,1,6.85,3.52,10.63,10.63,0,0,1,7.09-3.2,8.06,8.06,0,0,1,4.37,1.29,10,10,0,0,1,4.3,6.26,19.5,19.5,0,0,1,.67,8.31c8,7.55,27.7,28.58,40.5,61.83,1.76,4.25,3.06,7.79,3.92,10.23a26.62,26.62,0,0,0,6,.6,51.25,51.25,0,0,0,6.79-.5A173.61,173.61,0,0,0,145,93.86a23.53,23.53,0,0,1,10.24-2.33,27.62,27.62,0,0,1,12.63,3.22,20.08,20.08,0,0,1,9.47-2.5A18.41,18.41,0,0,1,185.12,94c13.41,5.64,19.25,25.12,19.87,27.33a3.38,3.38,0,0,1,.08.34c.14.61.32,1.31.54,2.07l.06.2c2.25,7.7,7.72,19.32,7.77,19.44l.09.2c.16.36.32.7.49,1l.28.58.14.24a19,19,0,0,0,2.07,3,9.59,9.59,0,0,0,7.7,3.39c5.21,0,10.26-3,10.31-3a6,6,0,0,1,7.51,9.23c-10.3,10.82-19.76,16.08-28.9,16.08-6.54,0-12.48-2.73-17.64-8.11a49.9,49.9,0,0,1-9.32-14.3c-.07.22-.15.44-.24.65,0,0-.07.19-.15.46a16,16,0,0,0-.53,4.38c.15,3.84,2.06,7.31,5.67,10.27.36.26.64.43.79.52l.26.12a5.94,5.94,0,0,1,3.19,3.71,15.18,15.18,0,0,1-.89,10.48,17.12,17.12,0,0,1-1.83,3.94c-.08,4.23-.28,14.84-.33,24v8.6c0,2.21,0,3.66.09,4.61a13,13,0,0,1,1.76,2.64,5.76,5.76,0,0,1,.59,1.93,28,28,0,0,1,0,7c-.46,5-3.67,7.76-6.75,8.38a7.24,7.24,0,0,1-1.07.19l-.55,0ZM78.42,223.51c.08.61.14,1.19.17,1.75l.41-.33-.91-9.25-.22,2.88a11.15,11.15,0,0,1,.48,2.95A10.49,10.49,0,0,1,78.42,223.51Z"/><g id="h"><path class="cls-3" d="M21.06,29.53s-7.75-3.94-2.63-12.08c0,0,4.86-1.05,7.74,7.35L31.29,24s-.39.22,2.63-.54a22.37,22.37,0,0,1,5-.77l2.88-.26,5.12,1,3.94,1.46,8,3,1.57,5.12s2.89,6.17,3.29,7.22,1.18,2.76,1.18,2.76l1,2.23,1.31,3,1.16,10-1.16,5.76,3.46-2.8c5.26,2.64,7.4,3.62,7.4,3.62s-.16-1,2,2.14a51.18,51.18,0,0,1,3.62,6.25l6.58,10.85s1.48,2.47,4.11,6.41,4.27,5.59,5.42,7.4,9.79,8.69,25.08,7c0,0,15.28-2.72,25.87-6.81,0,0,18-6.35,29.66,21.94,0,0,4.88,9.23,0,29.88,0,0-6,13.6,8.7,23.66,0,0,1.06,6.36-2.65,10.59,0,0-.88,41,0,42.2s3.71,2.82,0,4.59c0,0-.35-.88-2.12,0a5.25,5.25,0,0,1-3.88,0l1.24-3.89-1.95-32.48s0-10.59-5.12-15.18c0,0-28.6-18.36-29.48-20,0,0-1.71,10,4,23.38l-16.4,42.51s4.37,3.85,1.74,6l-2.82-2.29-4,2.29-.6-3.51,12.65-43.42-11.3-23.23a159.13,159.13,0,0,1-34,5.2s-1.67,6-2.68,6.65L90.4,226.46s1.88,1.64,1.6,2.35l-7.27,1,.57-2.14-5.65-57.49-1.3-5.94-1.43-.39s.87,21.79-3.35,29.53l-2.11,26.56s2.37,4.82-1.13,4.17l-4-1.13.23-33.62s-5.06-25.94-4.8-31.39c0,0-11.28-4.54-14.13-27.36,0,0-1.52-4.63,2.63-34.89,0,0,1.85-24-3.41-27.11a5.92,5.92,0,0,0-4.2,4.73s1.57,19.2-16.31,14.47c0,0-6.05-3-7.36-6.84,0,0-6-.66-5.53-6.71,0,0-1.31-5,3.95-4.6,0,0-.21-5.95,2.29-10.57L18.65,45.52s-1.92-5-.82-7.57A21,21,0,0,1,21.06,29.53Z"/><path class="cls-4" d="M127.64,159.81l17.76-2.33s-1.27,14.3,4,25.34L133,225.33s4.44,3.14,1.75,6l-2.82-2.3-4.05,2.3-.61-3.51,12.66-43.43Z"/><path class="cls-4" d="M61.44,155.9s4.38,30.87,5.31,32.81c1,2.09-.41,34.27-.41,34.27s4.52,1.34,5.16,1.08c0,0,1.94.51.25-4.21l2.11-26.57s4.62-5.86,3.34-29.52Z"/><path class="cls-5" d="M78,236.7s2.24-7.43,8.23-8.57c0,0,5.73-.4,6.06.2,0,0,1.1,8.37-2.43,8.72l-12,.06Z"/><path class="cls-5" d="M121.37,235.88s1.75-7.57,7.65-9.09c0,0,5.7-.77,6.07-.19,0,0,1.63,8.28-1.87,8.85l-12,.84Z"/><path class="cls-5" d="M174,237.31s2.29-7.54,8.4-8.69c0,0,5.85-.4,6.19.21,0,0,1.12,8.48-2.49,8.83l-12.22.06Z"/><path class="cls-5" d="M58,231.55s2.24-7.44,8.23-8.57c0,0,5.73-.4,6.06.2,0,0,1.1,8.37-2.43,8.72l-12,0Z"/><path class="cls-6" d="M172.67,106.3s4.92-4.49,8.54,2.81a33.82,33.82,0,0,1,3.12,15.21S195,198,237.69,153.93c0,0-20.71,12.88-29.67-8,0,0-7-14.83-8.81-23,0,0-9.93-35.27-31.29-21.14C167.92,101.82,172.38,106,172.67,106.3Z"/><path class="cls-7" d="M61.53,38.19S71.3,54.85,65,98.51c0,0-8.25,32,9.57,42.64,0,0,14.54,16.5,60.32,8.81,0,0,6.57,6.48,10.63,7.55,0,0-32.1,9.53-50.61,8.65,0,0-26.58-2-36.92-11.71,0,0-8.83-6.51-10.22-28.36,0,0,2.21-31.7,3.16-35.57-.19-.88.59-18.22-3.67-22,0,0-4.29,1-4.27,8,0,0-.32,14.58-13.87,11.66a12.11,12.11,0,0,1-9.74-7.35s17.25,6.91,22.93-6.38c0,0,3-7.19-.3-13,0,0,7.85,6.11,16.06.48C58.05,62,65.56,55,61.53,38.19Z"/><path class="cls-7" d="M30.86,23.85s5.59,24.23-1.29,31.83c0,0-11.37,9.3-7.31,18.07,0,0-5.42-3-4.54-5.62,0,0,.49-7,2.27-9.13l-1-13.58s-4.42-6.24,2.4-16c0,0-8-4-2.63-12.08,0,0,4.89-1.61,7.75,7.36Z"/><path class="cls-6" d="M23.51,34s4.57-3.42,6.52-8l3.26,13.86,1-13.86L38,35.12V24.69l5.54,10.43V26l2.77,7.66,1.8-6.19,2.72.12,1,0S63.72,38.49,65.47,57.9c0,0-.75,15.67,4.72,16.92,0,0,2.75,2.9,2.55-9.86l2,29.17L79.35,73l1,28.33,3-18,5.77,24.87.66-18.78,7.41,21.75V102l12,14.5-4.45-14.17,4.45,1.81S89.31,37.78,41.71,14.86c0,0-12.79-6.1-9.32,6.15C32.39,21,23,26.33,23.51,34Z"/><path class="cls-8" d="M49.66,34.31S65.33,32.62,63,21c0,0-.94-9.65-8.36,0C54.62,21,48.61,29.74,49.66,34.31Z"/><path class="cls-9" d="M51.34,32.7s1.75-11.56,7.78-12.43C59.12,20.27,63.34,28.41,51.34,32.7Z"/><path class="cls-9" d="M22.23,27.94l2.86-2.43s-1-6-5.34-5.24C19.75,20.27,17.87,24,22.23,27.94Z"/><path class="cls-3" d="M73.53,140.53s5.4,25.92,7.18,30.66c2,.39,8.88-1.39,8.88-1.39L93.93,168s5.32-8.22,2.36-20.25l-8.68-11.83Z"/><ellipse class="cls-10" cx="31.71" cy="74.29" rx="3.27" ry="2.36" transform="matrix(0.81, -0.58, 0.58, 0.81, -37.32, 32.35)"/><ellipse class="cls-10" cx="16.44" cy="73.75" rx="1.66" ry="2.46" transform="translate(-18.89 6.96) rotate(-15.31)"/><path class="cls-11" d="M21.8,81.64s11.05,3.75,17.86-3.09c0,0-2.06,5.83-10.5,6C29.16,84.56,23.66,84,21.8,81.64Z"/><path class="cls-12" d="M44.51,37.27s6.39-.54,9.32,4.55C53.83,41.82,53.26,34,44.51,37.27Z"/><path class="cls-12" d="M19.57,39.35s3.76-4.83,9.38-3.41C29,35.94,22.86,31,19.57,39.35Z"/><circle class="cls-13" cx="45.88" cy="48.83" r="5.92"/><ellipse class="cls-14" cx="46.32" cy="48.57" rx="4.38" ry="4.05"/><circle class="cls-15" cx="49.01" cy="46.84" r="1.19"/><ellipse class="cls-13" cx="24.26" cy="46.11" rx="4.53" ry="5.26"/><ellipse class="cls-14" cx="24.6" cy="45.87" rx="3.35" ry="3.61"/><ellipse class="cls-15" cx="26.66" cy="44.34" rx="0.91" ry="1.06"/><path class="cls-16" d="M31.71,70.19s3.88-.62,4.78,2.44C36.49,72.63,38.09,68.49,31.71,70.19Z"/><path class="cls-17" d="M26.75,25.24s-2.3-9.11-8-7.89c0,0-5.83,6.43,2.63,12.08,0,0-6.64,7.57-2.4,16L20,59s-2.77,6.07-2.3,10.57c0,0-6.62-1-3.27,8.25.39.6,1.37,2,4.85,3.06,0,0,2.05,7.05,12,7.68,0,0,9.6,1.91,11.52-11.15,0,0-.94-8.88,9-11.7,0,0,11.7-2.53,11.27-19.58"/><path class="cls-17" d="M47,68.25s5.34,4.07,3.32,25.54c0,0-4.62,32.28-.88,44.43,0,0,2.11,22.12,29.18,25.34"/><path class="cls-17" d="M73.53,140.53l6.4,29.55,6.3,58s-5.59.34-8.36,9c2.11.59,12-.06,12-.06s3,.84,2.43-8.72l-1.61-2L92,173s7.35-9.22,5.23-29.37"/><path class="cls-17" d="M61.48,157.37l5.27,31.34.3.55L66.42,223s-5.52.2-8.55,9H70.51s3.17-1.41,1.78-8.77c0,0,.34-2.92-.54-3.33l2.11-26.57s5.25-8.37,3.34-29.52l-.12-.58"/><path class="cls-17" d="M95.27,166.18s19.47.88,50.13-8.7"/><path class="cls-3" d="M130.38,145.22s5.67,10.52,28.89,24l-2.14-9.89-10.85-7.59a5.68,5.68,0,0,0-1.46-.8C143.89,150.55,130.38,145.22,130.38,145.22Z"/><path class="cls-17" d="M108.88,103.27c13.6,5.72,38.39-3.84,38.39-3.84,10.77-5.39,20.65,2.39,20.65,2.39,22.8,19.35,12.1,48.81,12.71,47.29-5.85,16.9,8.57,24.55,8.79,24.46,1.57,5.25-3.31,10.59-3.31,10.59v42.19c1.34.15,2.49,2.48,2.49,2.48l0,5.56c-.22,2.88-2,3.18-2,3.18l-12.66.15c2.25-7.75,7.66-9.23,7.66-9.23l.45-1.43-2.06-34.72c-.57-9.72-5-13-5-13-41.21-23.94-46.07-35.11-46.07-35.11"/><path class="cls-17" d="M23.5,33.45S22.59,26.11,32.39,21c0,0-3.49-10.2,6.52-7.17,0,0,10.72,4,14.92,8.14,0,0,6.26-10.51,8.91-2.24,0,0,1.89,6.14-.83,8.2,0,0,32.07,26.47,46.46,75l.8.54.26,1.15-5-2.31,4.69,14.21-12-14.5v9.23L89.73,89.51l-.66,18.78L83.3,83.42l-3,18L79.35,73,74.74,94.13,72.74,65S73,86.18,66,67.65c0,0-2.14-21.2-3.41-22.6,0,0-4-10.22-6.57-12.5,0,0-5.77,1.93-6.4,1.76a18.82,18.82,0,0,1,1.05-6.74l-2.58-.11-1.8,6.19L43.56,26v9.13L38,24.69l-.26,9.8S34.34,25,34.27,26l-1,13.86L30,26S24.7,34,23.5,33.45Z"/><path class="cls-18" d="M53.83,22s-2.24,3.78-3.12,5.59"/><path class="cls-18" d="M56.06,32.55a52.45,52.45,0,0,0,5.85-4.61"/><path class="cls-17" d="M172.67,106.3s6.13-6.15,10.24,7.29c0,0,1.52,6.29,1.43,10.25-.05-.33,10.73,74.83,53.35,30.09,0,0-18.45,13-28.67-5.89,0,0-9.6-19.37-9.12-22.44,0,0-11.22-39.15-32-23.78"/><path class="cls-17" d="M128.72,162l11.21,22.41-12.66,43.43s-3.41.39-5.9,8l-.1.48,11.82-.9s3.62-.78,2-8.86L133,225.33l16.4-42.51s-4.66-11.17-4-22.3"/><path class="cls-19" d="M19.47,80.42a27.48,27.48,0,0,0,6.29,1.79,20.56,20.56,0,0,0,6.55,0,13.35,13.35,0,0,0,6-2.59,14.86,14.86,0,0,0,4.12-5.14,15.18,15.18,0,0,1-4,5.34,13.92,13.92,0,0,1-6.05,2.88,21.25,21.25,0,0,1-6.75.23,27.62,27.62,0,0,1-6.59-1.62.49.49,0,0,1-.29-.64.5.5,0,0,1,.65-.29h0Z"/></g></svg>