<svg id="Layer_54" data-name="Layer 54" xmlns="http://www.w3.org/2000/svg" viewBox="0 0 256 256"><defs><style>.cls-1{opacity:0.5;}.cls-11,.cls-2,.cls-3{fill:#fff;}.cls-3{stroke:#1d6d00;stroke-width:2px;}.cls-11,.cls-14,.cls-25,.cls-26,.cls-27,.cls-3{stroke-miterlimit:10;}.cls-4{fill:#5c7032;}.cls-5{fill:#481715;}.cls-6{fill:#221f1f;}.cls-7{fill:#596e32;}.cls-8{fill:#9ec63b;}.cls-9{fill:#491717;}.cls-10{fill:#f48d8d;}.cls-11,.cls-14,.cls-25,.cls-27{stroke:#221f1f;}.cls-11,.cls-27{stroke-width:0.2px;}.cls-12{fill:#4380c1;}.cls-13{fill:#51371d;}.cls-14{fill:#fffffb;}.cls-14,.cls-25,.cls-26{stroke-width:0.15px;}.cls-15{fill:#8ba83d;}.cls-16{fill:#8caa3d;}.cls-17{fill:#aebc7f;}.cls-18{fill:#8dab3d;}.cls-19{fill:#f4f2b1;}.cls-20{fill:#dc7776;}.cls-21{fill:#c3c579;}.cls-22{fill:#dadb89;}.cls-23{fill:#5a7132;}.cls-24{fill:#e0dd9d;}.cls-25,.cls-26,.cls-27{fill:none;}.cls-26{stroke:#1e2c19;}</style></defs><path class="cls-1" d="M120.77,238.73q-.43,0-.87,0c-2.57-.12-7.53-1.29-10-8.28a11.81,11.81,0,0,1-7.52-4,11.23,11.23,0,0,1-2.22-4.09,15.17,15.17,0,0,1,1-10.83,11.07,11.07,0,0,1,8.32-6.85,12.55,12.55,0,0,1,2.89-.33,19.49,19.49,0,0,1,8.17,2.16,21.42,21.42,0,0,0,5.26-4.16c.33-.36.65-.72.94-1.07-.55-.1-1.11-.22-1.68-.34-.35-.06-.68-.11-1-.17a32.87,32.87,0,0,1-4.57-1.21,34.46,34.46,0,0,1-11.79-5.89,25.18,25.18,0,0,1-4,.9,107.62,107.62,0,0,1-8,10.29c-.82,1-1.4,1.71-1.88,2.22l-.14.19.3.27a15.51,15.51,0,0,1,2.07,2.38,12.72,12.72,0,0,1,2.2,4.49c0,.19.09.38.13.57v0l.09.45a11.18,11.18,0,0,1-.31,5.59c-1.46,4.83-5.81,7.83-11.39,7.83l-1,0a15.11,15.11,0,0,1-4.87-.89,8.6,8.6,0,0,1-4-3.11,11.55,11.55,0,0,1-1.8-3,10.75,10.75,0,0,1-.5-1.6,38.12,38.12,0,0,1-5.92,4.58l-.16.11c-.58.37-1.18.73-1.78,1.08a13.92,13.92,0,0,1-8.24,2.87,12.32,12.32,0,0,1-11-6.92,10,10,0,0,1-5-2.44,14.56,14.56,0,0,1-4.32-5.71h0a6.33,6.33,0,0,1-.69-2.21,14.72,14.72,0,0,1-.31-2.83l-2,.44c-.32.09-.81.21-1.41.33a16.14,16.14,0,0,1-3.65.44,10.51,10.51,0,0,1-8.2-3.51,10.14,10.14,0,0,1-2.15-4.28,8,8,0,0,1-2.43-2.31,8.87,8.87,0,0,1-1.18-8,15.11,15.11,0,0,1,8.61-10.22l1.51-.63c.87-.42,1.63-.76,2.4-1.08l.63-.25a11.56,11.56,0,0,1,8-3.51c.28,0,.55,0,.84,0-1-.85-1.81-1.61-2.49-2.31a75.46,75.46,0,0,1-5.44-5.57,33.49,33.49,0,0,1-3.91-5.2,20.51,20.51,0,0,1-1.74-3.52,25.2,25.2,0,0,1-1.72-7.62c0-.37-.06-.73-.07-1.1a13.39,13.39,0,0,1,1.06-6.57c1.58-3.93,5.57-8.5,15.48-9.07a45.48,45.48,0,0,1-7.7-4.62,39.18,39.18,0,0,1-5.8-4.77c-7-6.53-7.3-12.77-6.31-16.86l0-.09a19.41,19.41,0,0,1,1.79-5.47,19.75,19.75,0,0,1-4.51-4.26,12.6,12.6,0,0,1-3.26-7.84,16.63,16.63,0,0,1,1.2-8.85,29.88,29.88,0,0,1,6.49-10.18A37.84,37.84,0,0,1,23.4,46.08,29.39,29.39,0,0,1,40.15,30.62,26.71,26.71,0,0,1,48,29.12c.24,0,.56,0,.89,0h.35a24.32,24.32,0,0,1,6.47.87l.42.11.39.12a23.35,23.35,0,0,1,15.67,15l.3,0c.26-.67.53-1.34.81-2,1.69-4,3.45-8.13,7-12.07,1.62-1.79,5.92-6.55,12.93-8.23A21.55,21.55,0,0,1,98,22.28h.76c5.39,0,11,2,16.63,6a38.62,38.62,0,0,1,5.28,4.26l.14.13a3.07,3.07,0,0,1,.26.25l.2.2a48.34,48.34,0,0,1,10.6,16.71c.05.14.1.28.14.43l.57,1.91c.62,1.7,1.16,3.38,1.61,5.06C141.83,61.85,147.83,67,152,72.62a30.81,30.81,0,0,1,7.4,22.26,5.83,5.83,0,0,1-.19,1.17c-.14.53-.29,1.08-.46,1.65a39,39,0,0,1-5.35,14.06,46.93,46.93,0,0,1-3,4.86,8.2,8.2,0,0,0,3.43.79l.5,0c1.77-.1,3.42-.15,5.05-.15,1.3,0,2.59,0,3.84.1h.24a62.06,62.06,0,0,1,7.57.87,6.64,6.64,0,0,1,.77,0,5.92,5.92,0,0,1,1.85.3l4,1.32c3.31,1.07,4.43,1.43,6.5,2.85A34.63,34.63,0,0,1,192,128.3c.81-.61,1.65-1.21,2.5-1.8,7-4.92,17.92-10.85,29.72-10.85a32.61,32.61,0,0,1,8.92,1.21,24.44,24.44,0,0,1,5.95,2c6.41,2.72,9.54,8.12,8.16,14.15a5.88,5.88,0,0,1-.86,2,17.78,17.78,0,0,1-1.36,2.79c-.82,1.45-1.87,3.17-2.89,4.76-1.34,2.39-2.45,4.75-3.62,7.26-.42.9-.85,1.81-1.3,2.74-.18.51-.39,1-.62,1.59a35.48,35.48,0,0,1-3.24,5.81,109.4,109.4,0,0,1-11,15.52.86.86,0,0,0-.13.14,71.89,71.89,0,0,1-13,11.73l-.45.32a23.85,23.85,0,0,0,2.6.54l1.42-.4a34.29,34.29,0,0,1,9.34-1.75,12.37,12.37,0,0,1,8.4,2.91,12.69,12.69,0,0,1,4.36,9c0,.11,0,.22,0,.33a22,22,0,0,1,0,2.45c1.42,3,2.81,7.55.89,11.67a9.46,9.46,0,0,1-7.18,5.74c-.1.15-.2.3-.32.45a13.6,13.6,0,0,1-11.75,6.47,17.53,17.53,0,0,1-3.54-.37c-7.29-.86-11-3.34-12.9-5.55C197.23,218.1,192,216,181.85,212L166,205.74,162.55,210c-.89,1.1-2,2.43-3.57,4.1-.23.24-.44.44-.64.62l-.26.32a4.86,4.86,0,0,1-.66.74.13.13,0,0,0,0,.06,4.61,4.61,0,0,0,.42.7,31.29,31.29,0,0,1,3.46,5.75,10.1,10.1,0,0,1,1.06,3.52,9.51,9.51,0,0,1-.55,5.06c-.78,2.16-2.75,4.95-7.75,6.39a9.9,9.9,0,0,1-2.1.59,9,9,0,0,1-1.15.13c-.5.05-1,.08-1.48.08a12.46,12.46,0,0,1-4.63-.88,11.33,11.33,0,0,1-1.27-.62,13.13,13.13,0,0,1-5.79-6,6.06,6.06,0,0,1-.32-.84c-.09-.27-.16-.55-.23-.83-2.52,2.16-5.35,4.49-7,5.83l-.44.36-1.25,1A13.43,13.43,0,0,1,120.77,238.73Z"/><path class="cls-2" d="M115.77,233.73q-.43,0-.87,0c-2.57-.12-7.53-1.29-10-8.28a11.81,11.81,0,0,1-7.52-4,11.23,11.23,0,0,1-2.22-4.09,15.17,15.17,0,0,1,1-10.83,11.07,11.07,0,0,1,8.32-6.85,12.55,12.55,0,0,1,2.89-.33,19.49,19.49,0,0,1,8.17,2.16,21.42,21.42,0,0,0,5.26-4.16c.33-.36.65-.72.94-1.07-.55-.1-1.11-.22-1.68-.34-.35-.06-.68-.11-1-.17a32.87,32.87,0,0,1-4.57-1.21,34.46,34.46,0,0,1-11.79-5.89,25.18,25.18,0,0,1-4,.9,107.62,107.62,0,0,1-8,10.29c-.82,1-1.4,1.71-1.88,2.22l-.14.19.3.27a15.51,15.51,0,0,1,2.07,2.38,12.72,12.72,0,0,1,2.2,4.49c0,.19.09.38.13.57v0l.09.45a11.18,11.18,0,0,1-.31,5.59c-1.46,4.83-5.81,7.83-11.39,7.83l-1,0a15.11,15.11,0,0,1-4.87-.89,8.6,8.6,0,0,1-4-3.11,11.55,11.55,0,0,1-1.8-3,10.75,10.75,0,0,1-.5-1.6,38.12,38.12,0,0,1-5.92,4.58l-.16.11c-.58.37-1.18.73-1.78,1.08a13.92,13.92,0,0,1-8.24,2.87,12.32,12.32,0,0,1-11-6.92,10,10,0,0,1-5-2.44,14.56,14.56,0,0,1-4.32-5.71h0a6.33,6.33,0,0,1-.69-2.21,14.72,14.72,0,0,1-.31-2.83l-2,.44c-.32.09-.81.21-1.41.33a16.14,16.14,0,0,1-3.65.44,10.51,10.51,0,0,1-8.2-3.51,10.14,10.14,0,0,1-2.15-4.28,8,8,0,0,1-2.43-2.31,8.87,8.87,0,0,1-1.18-8,15.11,15.11,0,0,1,8.61-10.22l1.51-.63c.87-.42,1.63-.76,2.4-1.08l.63-.25a11.56,11.56,0,0,1,8-3.51c.28,0,.55,0,.84,0-1-.85-1.81-1.61-2.49-2.31a75.46,75.46,0,0,1-5.44-5.57,33.49,33.49,0,0,1-3.91-5.2,20.51,20.51,0,0,1-1.74-3.52,25.2,25.2,0,0,1-1.72-7.62c0-.37-.06-.73-.07-1.1a13.39,13.39,0,0,1,1.06-6.57c1.58-3.93,5.57-8.5,15.48-9.07a45.48,45.48,0,0,1-7.7-4.62,39.18,39.18,0,0,1-5.8-4.77c-7-6.53-7.3-12.77-6.31-16.86l0-.09a19.41,19.41,0,0,1,1.79-5.47,19.75,19.75,0,0,1-4.51-4.26,12.6,12.6,0,0,1-3.26-7.84,16.63,16.63,0,0,1,1.2-8.85,29.88,29.88,0,0,1,6.49-10.18A37.84,37.84,0,0,1,18.4,41.08,29.39,29.39,0,0,1,35.15,25.62,26.71,26.71,0,0,1,43,24.12c.24,0,.56,0,.89,0h.35a24.32,24.32,0,0,1,6.47.87l.42.11.39.12a23.35,23.35,0,0,1,15.67,15l.3,0c.26-.67.53-1.34.81-2,1.69-4,3.45-8.13,7-12.07,1.62-1.79,5.92-6.55,12.93-8.23A21.55,21.55,0,0,1,93,17.28h.76c5.39,0,11,2,16.63,6a38.62,38.62,0,0,1,5.28,4.26l.14.13a3.07,3.07,0,0,1,.26.25l.2.2a48.34,48.34,0,0,1,10.6,16.71c.05.14.1.28.14.43l.57,1.91c.62,1.7,1.16,3.38,1.61,5.06C136.83,56.85,142.83,62,147,67.62a30.81,30.81,0,0,1,7.4,22.26,5.83,5.83,0,0,1-.19,1.17c-.14.53-.29,1.08-.46,1.65a39,39,0,0,1-5.35,14.06,46.93,46.93,0,0,1-3,4.86,8.2,8.2,0,0,0,3.43.79l.5,0c1.77-.1,3.42-.15,5.05-.15,1.3,0,2.59,0,3.84.1h.24a62.06,62.06,0,0,1,7.57.87,6.64,6.64,0,0,1,.77,0,5.92,5.92,0,0,1,1.85.3l4,1.32c3.31,1.07,4.43,1.43,6.5,2.85A34.63,34.63,0,0,1,187,123.3c.81-.61,1.65-1.21,2.5-1.8,7-4.92,17.92-10.85,29.72-10.85a32.61,32.61,0,0,1,8.92,1.21,24.44,24.44,0,0,1,5.95,2c6.41,2.72,9.54,8.12,8.16,14.15a5.88,5.88,0,0,1-.86,2,17.78,17.78,0,0,1-1.36,2.79c-.82,1.45-1.87,3.17-2.89,4.76-1.34,2.39-2.45,4.75-3.62,7.26-.42.9-.85,1.81-1.3,2.74-.18.51-.39,1-.62,1.59a35.48,35.48,0,0,1-3.24,5.81,109.4,109.4,0,0,1-11,15.52.86.86,0,0,0-.13.14,71.89,71.89,0,0,1-13,11.73l-.45.32a23.85,23.85,0,0,0,2.6.54l1.42-.4a34.29,34.29,0,0,1,9.34-1.75,12.37,12.37,0,0,1,8.4,2.91,12.69,12.69,0,0,1,4.36,9c0,.11,0,.22,0,.33a22,22,0,0,1,0,2.45c1.42,3,2.81,7.55.89,11.67a9.46,9.46,0,0,1-7.18,5.74c-.1.15-.2.3-.32.45a13.6,13.6,0,0,1-11.75,6.47,17.53,17.53,0,0,1-3.54-.37c-7.29-.86-11-3.34-12.9-5.55C192.23,213.1,187,211,176.85,207L161,200.74,157.55,205c-.89,1.1-2,2.43-3.57,4.1-.23.24-.44.44-.64.62l-.26.32a4.86,4.86,0,0,1-.66.74.13.13,0,0,0,0,.06,4.61,4.61,0,0,0,.42.7,31.29,31.29,0,0,1,3.46,5.75,10.1,10.1,0,0,1,1.06,3.52,9.51,9.51,0,0,1-.55,5.06c-.78,2.16-2.75,4.95-7.75,6.39a9.9,9.9,0,0,1-2.1.59,9,9,0,0,1-1.15.13c-.5.05-1,.08-1.48.08a12.46,12.46,0,0,1-4.63-.88,11.33,11.33,0,0,1-1.27-.62,13.13,13.13,0,0,1-5.79-6,6.06,6.06,0,0,1-.32-.84c-.09-.27-.16-.55-.23-.83-2.52,2.16-5.35,4.49-7,5.83l-.44.36-1.25,1A13.43,13.43,0,0,1,115.77,233.73Z"/><path class="cls-3" d="M236.36,126.69c1-4.24-2.48-6.41-4.83-7.37a19.32,19.32,0,0,0-4.88-1.64c-12.86-3.72-26.13,3.38-33.81,8.78a54.86,54.86,0,0,0-5.55,4.32l-1.06.95c-.32-.48-.66-.94-1-1.39l0-.05s-.19-.27-.58-.72a27.87,27.87,0,0,0-8.59-6.8c-2-1.43-2-1.18-9.3-3.61,0,0-.08.1-.2.28a54.09,54.09,0,0,0-8.47-1.1H158a74.72,74.72,0,0,0-8.32,0c-7,.44-11.63-4.5-12.64-5.68.55-.71,1.1-1.45,1.64-2.22a40.4,40.4,0,0,0,4.55-6.71,32.88,32.88,0,0,0,4.68-12.38c.19-.65.37-1.28.53-1.89a25.65,25.65,0,0,0-1-8.89,25.25,25.25,0,0,0-5.13-9.26c-4.12-5.56-10.31-10.66-18.23-15.2l-.12-.07a54.85,54.85,0,0,0-2.1-7l-.62-2.09A42.37,42.37,0,0,0,112,32.3l-.21-.22-.2-.17a31.58,31.58,0,0,0-4.59-3.7c-5.26-3.72-9.86-5.09-13.85-4.93a15.55,15.55,0,0,0-3.51.42c-5.2,1.25-8.51,4.9-9.89,6.43-2.87,3.18-4.35,6.65-5.93,10.38-.73,1.74-1.28,3.27-1.68,4.51-.2.59-.29.93-.29.93l-9.39.49c0-.29-.09-.63-.15-1A17.56,17.56,0,0,0,49.75,30.93l-.27-.08-.38-.11a18.87,18.87,0,0,0-5-.65h-.21l-.73,0a21.12,21.12,0,0,0-6.1,1.18c-12.27,4.24-20.26,20.13-14,37.65-4.64,4.18-6.77,7.92-7.73,10.72h0a10.45,10.45,0,0,0-.78,6.1,6.73,6.73,0,0,0,1.94,4.55c1.67,2.28,4.49,4.38,9,5.82a14.67,14.67,0,0,0-5.11,8.9c0,.1,0,.19-.07.29-1,4.13,1.13,7.89,4.66,11.15a32.65,32.65,0,0,0,5.08,4.17,34.4,34.4,0,0,0,9.31,5.09c3,1.36,5.75,2.35,7.52,3,2.87,1.22,6,2.63,8.77,3.94l.73.38,6,3,.45.26.87.68,1.7,5.31c-9.72-3.77-17.41-5.45-23.53-5.76-.49-.06-1-.1-1.43-.14-1-.13-1.62-.18-1.62-.18-9.1-.54-13.12,1.83-14.51,5.37a7.25,7.25,0,0,0-.6,3.8c0,.36,0,.72.06,1.08a19.2,19.2,0,0,0,1.34,5.94,14.64,14.64,0,0,0,1.3,2.6,26.38,26.38,0,0,0,3.23,4.28,72.21,72.21,0,0,0,5.16,5.27h0a45.33,45.33,0,0,0,4.22,3.71,119.71,119.71,0,0,0,16.1,11.45,15.61,15.61,0,0,1-4.71,1.53,55.69,55.69,0,0,1-7.2.47h0a32.18,32.18,0,0,0-4.53-2.87,10.59,10.59,0,0,0-6.09-1.68,5.24,5.24,0,0,0-4.64,2.55c-.67.23-1.35.49-2,.77s-1.51.66-2.22,1l-1.67.69a9.06,9.06,0,0,0-5.11,6.2,3.19,3.19,0,0,0,.16,2.83l.07.07c.52,1,1.63,1.38,3.4.79-1.27,8,5.06,7,6.91,6.57a12.34,12.34,0,0,0,1.2-.29l36.37-7.76-.48.5c-1.47,1.46-6.16,5.77-11.87,7.41-.87-.44-6.35-3.1-10.83-.73a6.77,6.77,0,0,0-2.76,2.47,7,7,0,0,0-.66,5.41c0,.17,0,.27,0,.27l.15.28a8.45,8.45,0,0,0,2.72,3.66A3.57,3.57,0,0,0,44.5,211a2.46,2.46,0,0,0,.6-.07,4,4,0,0,0,2.06-1.32c0,5.09,2.12,7.29,4.61,8a7.22,7.22,0,0,0,6.74-1.58c.62-.35,1.25-.73,1.88-1.13l.13-.09c3.12-2,6.06-4.51,6.6-5.86,1.69-1.36,3.73-3,5.54-2.37,1.44.49,2.1,2.18,2.37,2.86a6.15,6.15,0,0,1,.22.7c0,.06,0,.1,0,.15,0,.69.08,1.29.15,1.85a5.92,5.92,0,0,0,.35,2.5,5.58,5.58,0,0,0,1,1.58A2.77,2.77,0,0,0,78,217.26a8.81,8.81,0,0,0,3,.54c3.83.27,5.81-1.44,6.44-3.6a5.27,5.27,0,0,0,.13-2.72l-.06-.27c0-.1,0-.19-.06-.29a6.66,6.66,0,0,0-1.21-2.46,10.46,10.46,0,0,0-1.36-1.58,7.37,7.37,0,0,1-1.55-1.83,7.64,7.64,0,0,1-.78-4.05,4.4,4.4,0,0,1,.24-.95l1.48-1.93A26.2,26.2,0,0,0,86.12,196c3-3.43,7.47-8.93,9.17-12.34a8.66,8.66,0,0,0,2,0,22.07,22.07,0,0,0,6.93-2c3,3.56,7.63,5.77,12.23,7.14a27,27,0,0,0,3.83,1l1,.16a60.3,60.3,0,0,0,10.08,1.31c-.8,3.16-3.09,6.88-6,10.07a27.87,27.87,0,0,1-10.2,7,11.43,11.43,0,0,0-3.7-2.21,9.58,9.58,0,0,0-5.57-.64,5.16,5.16,0,0,0-4.07,3.35c-.13.3-1.81,3.73-.82,6.66a5.32,5.32,0,0,0,1.07,2,6.26,6.26,0,0,0,7.66,1.24c.67,7,3.15,8.91,5.64,8.95a7.12,7.12,0,0,0,4.49-1.38l1.15-.94c.21-.16.33-.27.33-.27h0c2-1.6,5.46-4.49,8.16-6.86a13.5,13.5,0,0,1,2.84-1.88l.39-.17.21-.08.54-.18A3.32,3.32,0,0,1,137.3,217a1.08,1.08,0,0,1,.08.19,11.09,11.09,0,0,0,.28,4,10.84,10.84,0,0,0,.39,1.75,7.19,7.19,0,0,0,3.19,3.28,4.68,4.68,0,0,0,.71.35,6.47,6.47,0,0,0,3.36.38,5,5,0,0,0,.64-.05,5.17,5.17,0,0,0,1.17-.37c2.82-.75,3.72-1.87,4-2.71a3.68,3.68,0,0,0,.24-2.32v0a4.31,4.31,0,0,0-.54-1.67A25.71,25.71,0,0,0,148,215a9.4,9.4,0,0,1-1.42-2.69,6.57,6.57,0,0,1-.12-2.25,7.17,7.17,0,0,1,1.48-3.46l0,0a4,4,0,0,1,.51-.44l.52-.63c.2-.18.42-.37.66-.63a48.58,48.58,0,0,0,3.21-3.7c1.62-2,3.7-4.57,6.18-7.67,0,0,40,15.83,40,15.82s1,3.47,9.88,4.45c5.32,1.19,8-1.35,9.38-3.57a9.27,9.27,0,0,0,1.49-2.85c3.35.33,4.88-.75,5.44-2.33,1.31-2.54-.6-6.42-1.31-7.7l-.17-.36a18.3,18.3,0,0,0,.07-3.35h0a6.85,6.85,0,0,0-2.28-5.06c-3.59-3.22-10.35-.33-14.77.74h-.06c-5.64-.31-17.07-5.16-17.07-5.16,2-1.06,3.81-2.16,5.57-3.3a42.8,42.8,0,0,0,5.46-3.38,64.82,64.82,0,0,0,12-10.82,102,102,0,0,0,10.52-14.81,29.51,29.51,0,0,0,2.82-5c.24-.56.43-1.08.62-1.59,1.8-3.75,3.27-7.17,5.31-10.77,2.08-3.24,4.13-6.81,4-6.92s-.16.1-.33.3l.12-.27Z"/><path class="cls-4" d="M41.74,138.39s1,9.4,11.11,2.25C43.34,138.21,43.79,138.34,41.74,138.39Z"/><path class="cls-4" d="M27.4,148.32c-.36-.35-2.54-4.94,2.4-8.4,3-1.49,3.12,1.48,1.81,5.43S28.94,149.8,27.4,148.32Z"/><path class="cls-4" d="M35.22,155s-1.8-7.38,6.52-2.83c2.32,3.67,3.8,8-1.1,6.77S35.24,157.71,35.22,155Z"/><path class="cls-4" d="M122.72,69.24s5.6-4.45,8.49,0c-1.15,3.46-2.06,5.93-7,4.45S122.72,69.24,122.72,69.24Z"/><path class="cls-4" d="M117.29,77.15s7.91-1.33,3.95,2C117.29,80,116.3,81.1,117.29,77.15Z"/><path class="cls-4" d="M131.21,80c.9-.12,9.31,1.93,4.12,5.23C130.38,84.89,124.86,80.86,131.21,80Z"/><path class="cls-5" d="M67.49,63.1s4.53-1.33,7.15,7.6S62.67,66.85,67.49,63.1Z"/><path class="cls-5" d="M56,65.66s6.84-8.28,5.4,1.6C58.51,70.72,50.56,76.42,56,65.66Z"/><path class="cls-6" d="M62.09,57.63a2.81,2.81,0,0,1,1.69-2,5,5,0,0,1,2.66-.21A11.42,11.42,0,0,1,69,56.3a16.05,16.05,0,0,1,2.27,1.33,21.43,21.43,0,0,0-4.84-1.79,5,5,0,0,0-2.49.1A3,3,0,0,0,62.09,57.63Z"/><path class="cls-7" d="M20.17,75A2.35,2.35,0,0,1,23,74.09a2.41,2.41,0,0,1,.39,3.55,2.34,2.34,0,0,1-2.78.94A2.43,2.43,0,0,1,20.17,75Z"/><path class="cls-7" d="M17.21,81.93A2.34,2.34,0,0,1,20,81a2.4,2.4,0,0,1,.39,3.55,2.35,2.35,0,0,1-2.78.94A2.43,2.43,0,0,1,17.21,81.93Z"/><path class="cls-8" d="M14.73,84.76s-1.48-6.92,8.4-15.82c-6.92-19.28,3.46-36.59,17.8-38.56a18.33,18.33,0,0,1,21.5,16.06L71.82,46a55.84,55.84,0,0,1,2-5.44c1.58-3.73,3.06-7.2,5.93-10.38C81.1,28.6,84.41,25,89.61,23.7c5.85-1.41,10.83,1,13.84,2.47,11.34,5.51,16.22,16.65,17.79,20.77L124,56.08s25.7,14.84,24.22,31.15-11.37,25.22-11.37,25.22,4.94,6.43,12.85,5.93c8.4-.49,27.18-.49,36.57,13.35,9.4-8.9,23.73-14.83,31.14-14.83s18,1,18.91,8.9c-1.74,5.93-6.42,10.87-8,14.09s-9.45,28.43-38.62,44.25c0,0,14.34,6.43,18.79,4.94s16.8-5.93,15.32,7.91c0,0,5.93,11.37-4,10.39-.49,0-2,8.4-10.87,6.42s-9.88-4.45-9.88-4.45l-40-15.82c-2.48,3.1-4.56,5.67-6.18,7.67a48.58,48.58,0,0,1-3.21,3.7,17.71,17.71,0,0,0-1.73,1.74,7.17,7.17,0,0,0-1.48,3.46,7.38,7.38,0,0,0,1,4.45,14.47,14.47,0,0,0,1,1.48c1.9,2.77,2.88,4.18,3,5.44a5.66,5.66,0,0,1-1,3.46c-.84.39-1.51.74-2,1-.32.17-.58.31-1,.49a6.37,6.37,0,0,1-1.49.5,4.79,4.79,0,0,1-1.48,0,6.65,6.65,0,0,1-2.74-.44,7.07,7.07,0,0,1-3.68-3.52,11.14,11.14,0,0,1-.5-3c0-1.3.19-2.23-.37-3.22a3.39,3.39,0,0,0-.86-1s-3-1-6.92,2.47-9.64,8.07-9.64,8.07-8.16,6.27-10.13-7.57a6.26,6.26,0,0,1-7.66-1.24c-2.12-2.47-1-5.77-1-5.93a7.55,7.55,0,0,1,3.32-5.46c2.66-1.55,5.63-.49,7.06,0a11.43,11.43,0,0,1,3.7,2.21,27.87,27.87,0,0,0,10.2-7c3-3.27,5.37-7.11,6.11-10.32,0,0-19.27,0-27.18-9.39-1,0-4.94,2.47-8.9,2-2.47,5-10.87,14.34-11.86,15.33s-2,4.94,1.48,7.91c2.63,2.45,3.49,5.77,2.3,8-1,1.84-3.23,2.46-4,2.68a8.47,8.47,0,0,1-5.19-.25,6.2,6.2,0,0,1-2.22-2.71c-.77-1.93.09-3.07-.74-5.2-.27-.68-.93-2.37-2.37-2.86-1.81-.61-3.85,1-5.54,2.37a40.66,40.66,0,0,0-3.21,3.22,22.88,22.88,0,0,1-5.19,3.7c-2.31,2-5.24,2.62-7.45,1.56a7.22,7.22,0,0,1-3.18-3.78,9.23,9.23,0,0,1-.74-4.21,4.13,4.13,0,0,1-2.25,1.54c-2.57.59-5.43-2.06-6.4-4.74a7.24,7.24,0,0,1,.5-5.93A6.77,6.77,0,0,1,42,197.75c4.48-2.37,10,.29,10.83.73,6.92-2,12.35-7.91,12.35-7.91l-37.06,7.91s-8.9,3-7.42-6.43c-5.93,2-4.45-7.42,1.48-9.89l5.94-2.47s3.46-5.44,11.36-.5l3.46,2.48s7.91.49,12.36-2C44.88,173.76,27.58,159.91,25.11,152s-3-16.81,13.84-15.82c9.39,1.48,26.69,6.43,26.69,6.43l-2-6.43s-11.37-5.93-14.83-6.92-42-13.35-23.23-33.13C26.1,96.13,13.25,91.68,14.73,84.76Z"/><path class="cls-9" d="M28.32,96.42s63.76,1,94.4-13.83c-6.42,9.88-22.24,26.68-60.29,31.63-21.75,2-41.52,1.48-39.54-11.87C26.35,96.42,26.35,96.42,28.32,96.42Z"/><path class="cls-10" d="M34.25,114.22s11.37-17.8,28.67-9.89c11.37-8.89,32.11-8,37.8-2-2.59,1.36-5.83,2.92-9.63,4.49a114.78,114.78,0,0,1-12.92,4.47,120.6,120.6,0,0,1-13.74,3C48.09,116.69,37.22,116.19,34.25,114.22Z"/><ellipse class="cls-11" cx="93.81" cy="51.94" rx="19.77" ry="21.99"/><ellipse class="cls-12" cx="90.91" cy="54.66" rx="11.1" ry="12.36"/><ellipse class="cls-13" cx="90.55" cy="54.84" rx="7.16" ry="7.88"/><circle class="cls-2" cx="94.49" cy="49.11" r="2.15"/><ellipse class="cls-14" cx="39.44" cy="57.13" rx="18.04" ry="24.47"/><path class="cls-8" d="M56,45.52a25.21,25.21,0,0,1-.8,12.55C52.11,67.25,44.1,72,38.7,75.17a51.22,51.22,0,0,1-11.36,5h0s22.06,8.7,33.81,0a20.49,20.49,0,0,0,7.22-20.83C66,49.91,57.15,46,56,45.52Z"/><path class="cls-15" d="M20.91,109.27s25.7,33.61,100.33,13.84a6.7,6.7,0,0,0,0,6.23c-2.47.39-47.94,10-50.16,14.76-1.49-2.93-14.09-13.57-20-14.56S22.39,119.65,20.91,109.27Z"/><path class="cls-16" d="M121.24,123.11s16.81-4.44,21.25-36.57C141,75.67,131.84,64.79,124.07,59.85l.27-2.47A55.5,55.5,0,0,1,136,65.16c4.32,3.78,9.31,8.15,11.49,15.45a25.65,25.65,0,0,1,1,8.89,66,66,0,0,1-6.82,16.4,66.78,66.78,0,0,1-16.16,18.58C124,126.2,121.24,123.11,121.24,123.11Z"/><path class="cls-17" d="M66.38,145.35c-.49-1-33.11-12.85-41.52-4.44,6.43-4.95,18.29-7.51,41.52,1.68Z"/><path class="cls-16" d="M91.09,167.6s-3,19.27-7.41,24.71c-.9,1.09-4,3.63-3.87,7.13.06,2.65,1.83,4.79,3.37,6.21a9.83,9.83,0,0,0-.49-2,16.21,16.21,0,0,1-.58-1.55s0,.06.09.06.21-1.14.49-2a4.53,4.53,0,0,1,1.48-2c.82-.73,2.85-3.39,6.92-8.69a87.25,87.25,0,0,0,6.43-10.09c1.19-2.18,1.5-3,1.48-4C98.9,171.17,92.61,168.26,91.09,167.6Z"/><path class="cls-18" d="M177.09,184.4s25.7-4.94,45-41.52c0,0,3-7.41,4.94-8.89s6.39-6.43,6.16-8.16-.23-6.18-3.69-7.16c0,0,8.31,1.71,6.88,8-1.75,2.39-2.44,3.34-2.43,3.34a21,21,0,0,1,2-2.47c.17.11-1.88,3.68-4,6.92-1.35,2.1-1.3,1.86-2,3-2.29,3.75-2.57,6.08-4,9.39a43,43,0,0,1-4.45,7.41c-4.31,6.39-7.64,11.38-13.34,16.81-3.45,3.28-8.95,8.42-16.14,11.24a31.72,31.72,0,0,1-8.33,2.1A31.22,31.22,0,0,1,177.09,184.4Z"/><path class="cls-4" d="M166.71,119.16s-5.93,7.41,5.44,11.86c4.94-1,5.63-1.48,8.25-5.19C172.64,120.64,177.09,122.62,166.71,119.16Z"/><path class="cls-4" d="M196.37,128.06s2-5.13,8.4-3.06a4.6,4.6,0,0,1-2,7.5c-3,1-6.48,0-7.19-1.48S196.37,128.06,196.37,128.06Z"/><path class="cls-19" d="M27.33,96.42a9.26,9.26,0,0,0-4.44,8.9,9.38,9.38,0,0,0,8.89,7.91,123.63,123.63,0,0,0,27.68,1c17.93-1.39,26.61-4.47,33.15-7.41a82.26,82.26,0,0,0,30.61-24.22,19,19,0,0,1,6.18,6.73c4.58,8.57,1.82,20.69-6.68,30.83-4.94,7.41-1,11.86,5,16.31,5.43,9.88,9.88,40,4,54.86-1.07-.11-2.6-.27-4.45-.49-.5-.07-4.82-.6-6.92-1a32.28,32.28,0,0,1-10.87-4.45c-3.31-2-5.11-3.77-11.37-10.88-3.08-3.5-6.37-6.82-9.39-10.37-4.7-5.53-12.19-14.07-24.36-27.19l-13.2-7.41S17,119.65,20.41,105.32c1.54-6.35,4.3-8.27,4.3-8.27Z"/><path class="cls-4" d="M217.62,138.93s6-4.45,4,0-3,3.14-4,2.56S217.13,140.41,217.62,138.93Z"/><path class="cls-4" d="M208.08,151.62s4.6-4.78,4.6,1.64C208.23,156.72,208.08,151.62,208.08,151.62Z"/><path class="cls-4" d="M148.42,123.11s-2-4.44,4.45-2.47c3,2.47,5.93,4.94,0,5.19C149.41,125.09,149.91,124.6,148.42,123.11Z"/><path class="cls-4" d="M152.87,134s-.65-6.13,5.12-1.09C157.65,136.55,155.84,138.43,152.87,134Z"/><path class="cls-4" d="M141.51,156.23s-1.37-8.08,5.49-4c2.35,4.62-.06,6-1.54,6.51S143,159.19,141.51,156.23Z"/><path class="cls-4" d="M141.4,169s-4.84-2.41.6-4.88C143.48,165.62,144.75,170,141.4,169Z"/><path class="cls-4" d="M143,177s0-1.49,3.95-3,2.47,2.47,1.48,3.95-1.53,3.39-3.73,2.93C142,182.42,141,180.45,143,177Z"/><path class="cls-4" d="M72.81,165.12a7.62,7.62,0,0,1,0-6.18c1.48-3.21,4.63-.49,4.54,3.09S73.3,169.08,72.81,165.12Z"/><path class="cls-4" d="M72.15,180s.35-6.32,5.2-2.44c1.39,4.37-1.58,6.84-3.56,6.35S71.49,182.52,72.15,180Z"/><path class="cls-20" d="M34.25,114.22s12.61-18.54,28.67-9.89c0,0,20.5-13.69,37.8-2l-1.5,1s-12.87-9.16-36.33,2.24c-2.42.57-2.47,0-2.47,0s-6.2-4.41-15.57,1.77S36.46,114,36.46,114l-2.21-.1"/><path class="cls-6" d="M59.46,107.3a6.59,6.59,0,0,1,1.85-2.18,8.19,8.19,0,0,1,2.52-1.35A11.74,11.74,0,0,0,59.46,107.3Z"/><path class="cls-6" d="M70.26,161.64a41.4,41.4,0,0,0-3.93-5.12,42.7,42.7,0,0,0-4.65-4.47,33.23,33.23,0,0,0-5.35-3.61,27.64,27.64,0,0,0-6-2.34,27.68,27.68,0,0,1,6,2.3A32.91,32.91,0,0,1,61.74,152a43,43,0,0,1,8.69,9.57Z"/><path class="cls-8" d="M129.15,44.53l3,1.48"/><path class="cls-6" d="M55.29,45.24a19.84,19.84,0,0,1,0,12.24,26.1,26.1,0,0,1-6.58,10.39,45,45,0,0,1-10,7.28,79.36,79.36,0,0,1-11.33,5,78.23,78.23,0,0,0,11.31-5,44.69,44.69,0,0,0,10-7.29,25.81,25.81,0,0,0,6.53-10.38,19.6,19.6,0,0,0,0-12.14Z"/><path class="cls-21" d="M36.73,124.6c48.94,6.21,66,5.21,72.16,3,.72-.26,12.34-4.54,12.37-4.46h0a6.16,6.16,0,0,0,0,5.49l1.46,2.92s-8,5.43-24.51,5.43-29.58-1.23-29.58-1.23q6.78,10.5,13.57,21L67.86,140.41l-4.45-3.95L56.49,133c-1.29-.68-3-1.53-4.94-2.47-1.09-.53-3.1-1.48-5.43-2.47S40.64,125.83,36.73,124.6Z"/><ellipse class="cls-9" cx="69.74" cy="67.69" rx="1.97" ry="5.55" transform="translate(-27.13 59.78) rotate(-39.48)"/><ellipse class="cls-9" cx="57.38" cy="67.2" rx="5.55" ry="1.97" transform="translate(-30.75 73.58) rotate(-53.65)"/><path class="cls-6" d="M61.6,56.58a7.4,7.4,0,0,1,4.11-1.23,6,6,0,0,1,2.14.41,6.52,6.52,0,0,1,1.89,1.06,8.88,8.88,0,0,0-1.92-1,6.08,6.08,0,0,0-2.11-.36,6.94,6.94,0,0,0-2.12.27A8.88,8.88,0,0,0,61.6,56.58Z"/><path class="cls-22" d="M65.65,145.35s-12.25-5.51-23.88-7.15c-6.63-.94-13.05-.61-16.91,2.71,0,0,3.71-11.68,40.78,1.7.49,2.53.74,2.74.74,2.74"/><path class="cls-4" d="M41,138.37s1.77,8.43,11.85,2.27C41.36,138.21,56.14,138.79,41,138.37Z"/><path class="cls-4" d="M26.75,144.1s.76-6.17,5.61-3.2C31.7,145.36,27.16,155.21,26.75,144.1Z"/><path class="cls-4" d="M35.36,152.15s2.37-4,8.54,2.77c.48,5.58-.73,6.67-5.93,4.24S36,153.5,35.36,152.15Z"/><circle class="cls-23" cx="21.9" cy="76.16" r="2.22"/><circle class="cls-23" cx="19.18" cy="82.83" r="2.22"/><path class="cls-24" d="M15.4,87.6A15,15,0,0,0,21,90.74c1,.3,2.06.64,3.1.9l3.16.66a89.62,89.62,0,0,0,12.87,1.17l3.23,0c1.08,0,2.16,0,3.24,0L53,93.23c2.15-.14,4.3-.34,6.45-.51l3.23-.27c1.07-.1,2.14-.25,3.21-.38,4.28-.5,8.58-.95,12.83-1.66s8.54-1.26,12.78-2.1c8.5-1.47,16.93-3.32,25.39-5.06l-12.64,2.82-3.16.69-3.18.6-6.37,1.21c-4.23.86-8.5,1.49-12.77,2.16S70.26,91.94,66,92.46c-1.07.12-2.14.27-3.22.37l-3.23.25c-2.15.15-4.3.35-6.46.48l-6.48.21c-1.08.06-2.16,0-3.24,0l-3.24,0a88.44,88.44,0,0,1-12.89-1.24L24,91.78c-1-.27-2.06-.64-3.09-1A15,15,0,0,1,15.4,87.6Z"/><path class="cls-25" d="M163.66,155.68s12.51-11.82,24.22-16.14"/><path class="cls-26" d="M25.6,96.13c-1.48,1-6.91,7-4.69,13.68s12.6,14,18.56,15.92S64,136.21,63.83,137l1.81,5.66c-10.87-5-26.69-6.43-26.69-6.43-16.81-1-15.11,9.17-15.11,9.17.2,9.64,6.21,14.09,11.1,19.18s20.32,15.16,20.32,15.16c-1.48,1.46-7.41,2-11.92,2-11.92-8.9-15.26-2-15.26-2-.67.23-1.35.49-2,.77a41.92,41.92,0,0,0-5.37,2.7c-3.49,3.16-4.58,6.59-3.47,8,.85,1.11,2.88.92,3.47.86-1.48,9.38,8.11,6.28,8.11,6.28l36.37-8.23v.47a27.11,27.11,0,0,1-12.35,7.91s0,0-4.61-1.2c-10.54-2.19-9.62,8.62-9.62,8.62,5,9.39,8.6,3,8.6,3-.2,6.93,3.16,8.89,6.51,8.88s12.46-6.41,13.45-8.89,7.91-4.94,8.15,1.34S78,217.26,78,217.26c10.88,3,11.37-6.42,7.49-9.6a7.63,7.63,0,0,1-2.79-7.44c1.73-2.23,12.6-16.58,12.6-16.58,4,.48,8.9-2,8.9-2,8.9,9.37,27.43,9.65,27.43,9.65-6.18,15.07-16.56,17-16.56,17-3.46-2.47-10.87-5.43-13.34.5-.15.36-2.56,5.23.12,8.34a6.36,6.36,0,0,0,5.32,2c.62-.08,2.47-.49,2.47-.49,1.48,15.32,11.61,6.36,11.61,6.36s2.23-1.91,8.16-6.86,8-1.09,8-1.09c-.48,4.35,1.48,8.17,4.57,9.42a7.14,7.14,0,0,0,4.74.08c3.18-.75,4.14-1.94,4.46-2.83s1.3-2.66-3.16-8.79c-4.15-5.68.49-8.88.49-8.88l10.57-12.63s40,15.83,40,15.82,1,3.47,9.88,4.45,10.87-6.42,10.87-6.42c10.38,0,3.88-10.46,3.88-10.46l.15-3.29c-1.41-10.3-11.25-5.73-17.06-4.33-5.63-.28-17.12-5.16-17.12-5.16,4.45-4,10.88-3.94,23-17.5,12.6-15,14.08-23,19.27-32.16s7.42-11.37-2.47-15.81C209,110,186.23,131.73,186.23,131.73l-1-1.44s-7.84-10.88-27.19-12c-17.38,2.39-21.18-5.88-21.18-5.88l6.4-8.68c11.34-18.6,2.5-35.27-19.25-47.69-3.46-15.38-12.2-24-12.2-24C83.26,6.05,71.82,46,71.82,46l-9.39.49c-1.73-16.62-22-21.93-33.86-9.57s-5.44,32.07-5.44,32.07A36.17,36.17,0,0,0,15.4,79.66c-1.81,3.74-2.15,12.56,10.2,16.47l1.74,0c67.93.68,95.38-13.56,95.38-13.56s-12.5,21.63-45.42,29.22c-34.4,6.61-50.56.89-52.36-1.94s-4.24-7.25,1.67-12.94l.72-.51"/><path class="cls-16" d="M147.93,215.54c-1.87-.86-4.86-2.58-5.53-5.49-.77-3.29,1.71-6.48,3.34-8.28,8.62-9.46,13.56-18.85,14.55-23.8s4.45-13.83,0-21.25S148,144.61,148,144.61a19.63,19.63,0,0,1,9.83,4.34,28.31,28.31,0,0,1,7.25,9.58c3.11,7.06,2.15,13.49,1.64,17-.14.95-1.63,10.42-7.41,17.3-.53.63-1.25,1.42-3,3.46-5.73,6.8-4.55,6.1-6.42,7.91-1.41,1.37-2.71,2.38-3.46,4.45a8.78,8.78,0,0,0-.5,2.47,9.45,9.45,0,0,0,1,3A9.61,9.61,0,0,0,147.93,215.54Z"/><path class="cls-27" d="M34.62,113.5s9-12.45,20.77-11.43c0,0,4.81.53,7.53,2.26,0,0,6.86-5.54,19.12-6.6,0,0,8.67-.54,14.42,1.92,0,0,3.27,1.37,4.26,2.66"/><path class="cls-25" d="M63.83,137s38.63,42.48,40.36,44.72"/><path class="cls-25" d="M127.67,136.46c13.84,32.62,4,54.86,4,54.86"/><path class="cls-25" d="M157.82,148.32c21,19,1.23,45.21,1.23,45.21"/><path class="cls-25" d="M99,175.5s-3,7.46-4.58,9.29"/><path class="cls-26" d="M20.66,192.05s4-10.37,16.31-3.94c5.44,1,6.92,0,6.92,0"/><path class="cls-26" d="M28.08,179.69A21.17,21.17,0,0,1,39,183.16c4.94,1.49,6.06.81,6.06.81"/><path class="cls-26" d="M219.84,207.38s2.47-10.87-16.8-8.89c-15.32-4.45-27.27-9.15-27.27-9.15"/><path class="cls-26" d="M223.72,196.92s-4.67-6.86-17.86-3.39c-.84,0-22.89-7.15-22.89-7.15"/><line class="cls-27" x1="186.23" y1="131.73" x2="181.44" y2="139.54"/><path class="cls-26" d="M65.14,190.1s11.37-12.37,1.24-46.78l-.74-.71"/><path class="cls-27" d="M47.35,207.88s1.48-7.42,9.89-4.95c3.95.5,4.94-1,6.59-2.89"/><path class="cls-27" d="M109.63,218.75s3-6.43,8.4-4.45c3.46.5,5.44,0,6.92-2"/><ellipse class="cls-12" cx="39.44" cy="55.54" rx="11.1" ry="12.36"/><ellipse class="cls-13" cx="39.09" cy="55.72" rx="7.16" ry="7.88"/><circle class="cls-2" cx="43.02" cy="49.99" r="2.15"/></svg>