<svg id="Layer_54" data-name="Layer 54" xmlns="http://www.w3.org/2000/svg" viewBox="0 0 256 256"><defs><style>.cls-1{opacity:0.5;}.cls-14,.cls-2{fill:#fff;}.cls-22,.cls-3{fill:#e2a896;}.cls-21,.cls-3,.cls-5{stroke:#b79d7e;}.cls-21,.cls-24,.cls-25,.cls-28,.cls-3,.cls-5,.cls-6,.cls-8{stroke-miterlimit:10;}.cls-21,.cls-24,.cls-25,.cls-3,.cls-5,.cls-6,.cls-8{stroke-width:2px;}.cls-4{fill:#282828;}.cls-5{fill:#edac9d;}.cls-30,.cls-6{fill:#fc7a38;}.cls-6{stroke:#9e4802;}.cls-7{fill:#e05c22;}.cls-8{fill:#965c6f;stroke:#995068;}.cls-21,.cls-9{fill:#f2b7a5;}.cls-10{fill:#e8bbaa;opacity:0.52;}.cls-10,.cls-14{isolation:isolate;}.cls-11{fill:#db7d71;}.cls-12{fill:#441304;}.cls-13{fill:#190800;opacity:0.84;}.cls-15,.cls-34{fill:#f8979d;}.cls-15{opacity:0.29;}.cls-16{fill:#351314;}.cls-17,.cls-18{fill:#e5581a;}.cls-17{opacity:0.38;}.cls-19{fill:#dbddde;}.cls-20{fill:#e8eaeb;}.cls-23{fill:#323232;}.cls-24{fill:#d6afba;stroke:#9e5e71;}.cls-25{fill:#ce7a0b;stroke:#995b00;}.cls-26,.cls-28{fill:#fcc556;}.cls-27{fill:#d88c1d;}.cls-28{stroke:#d68a0f;stroke-width:3px;}.cls-29{fill:#aa6500;}.cls-31{fill:#e8e8e8;}.cls-32{fill:#fc8b96;}.cls-33{fill:#e29f93;}.cls-35{fill:#e58e89;}.cls-36{fill:#f69c94;}</style></defs><path class="cls-1" d="M122.15,247.11a11.84,11.84,0,0,1-2.34-.22,20.41,20.41,0,0,1-9.26-2.49,109.74,109.74,0,0,1-16.33,1.33,40.28,40.28,0,0,1-11.52-1.31C72,243.6,60,228.73,59,214.65c-.58-7.69.69-14.25,3.48-18.79l0-.09a9.37,9.37,0,0,1-.91-3.11,9.79,9.79,0,0,1-1.95-6A6.74,6.74,0,0,1,60.71,183a7.33,7.33,0,0,1,0-5.39c1.31-3.31,4.39-5,9.17-5,.75,0,1.51,0,2.21.06.42,0,.81,0,1.14,0h.59A23.75,23.75,0,0,1,80.68,174l.94.29c3.94-2.31,14.23-10,16.36-12.15.55-1,1.75-4.57,2.31-10.31-2.91-1.21-5.75-3.29-6.13-7.11-.43-4.27,2.7-7.15,5.73-9-.64-3.9-1-8,.36-11.61a23.13,23.13,0,0,1,1-2.24,18.08,18.08,0,0,1-5.39-5.26c-8.35-13.69-4.68-31.51-.55-45.49a71.7,71.7,0,0,1,13.33-25.41l-.65-.64V43.75C106,38.42,104.4,26,111,21.82l3.42-1.05a13,13,0,0,1,4.33-.56l4.61.17A39,39,0,0,1,138,24.49a11.56,11.56,0,0,1,1.44-.18,39.84,39.84,0,0,1,19.75-9.72l.5-.7,3.49.26c2.21.21,5.34,1.44,7.68,6.13l.08.17c.08.16.16.34.24.52l.32.74c.08.19.16.39.23.59l.16.43v0l.47,1.39v.06a32.48,32.48,0,0,1,1.29,8.44,37.78,37.78,0,0,1,8.69,6.42c10.79,10.69,13.91,26.29,17.87,46l.17.73c3.67,16,0,26.14-5.54,32.51a17.86,17.86,0,0,1,6.16,10c.92,4.59-.25,9.34-3.48,14.15,5.25,5.72,5.2,10.19,4,13.12a8.38,8.38,0,0,1-4.34,4.61c.13.63.23,1.11.29,1.43.75,3.58.49,9.86-8,26.44,0,.67,0,1.35,0,2,0,22.31-16.62,46.2-41.36,46.2-.67,0-1.35,0-2,0C140.88,240,129.91,247.11,122.15,247.11Z"/><path class="cls-2" d="M117.15,242.11a11.84,11.84,0,0,1-2.34-.22,20.41,20.41,0,0,1-9.26-2.49,109.74,109.74,0,0,1-16.33,1.33,40.28,40.28,0,0,1-11.52-1.31C67,238.6,55,223.73,54,209.65c-.58-7.69.69-14.25,3.48-18.79l0-.09a9.37,9.37,0,0,1-.91-3.11,9.79,9.79,0,0,1-1.95-6A6.74,6.74,0,0,1,55.71,178a7.33,7.33,0,0,1,0-5.39c1.31-3.31,4.39-5,9.17-5,.75,0,1.51,0,2.21.06.42,0,.81,0,1.14,0h.59A23.75,23.75,0,0,1,75.68,169l.94.29c3.94-2.31,14.23-10,16.36-12.15.55-1,1.75-4.57,2.31-10.31-2.91-1.21-5.75-3.29-6.13-7.11-.43-4.27,2.7-7.15,5.73-9-.64-3.9-1-8,.36-11.61a23.13,23.13,0,0,1,1-2.24,18.08,18.08,0,0,1-5.39-5.26C82.46,98,86.13,80.15,90.26,66.17a71.7,71.7,0,0,1,13.33-25.41l-.65-.64V38.75C101,33.42,99.4,21,106,16.82l3.42-1.05a13,13,0,0,1,4.33-.56l4.61.17A39,39,0,0,1,133,19.49a11.56,11.56,0,0,1,1.44-.18,39.84,39.84,0,0,1,19.75-9.72l.5-.7,3.49.26c2.21.21,5.34,1.44,7.68,6.13l.08.17c.08.16.16.34.24.52l.32.74c.08.19.16.39.23.59l.16.43v0l.47,1.39v.06a32.48,32.48,0,0,1,1.29,8.44,37.78,37.78,0,0,1,8.69,6.42c10.79,10.69,13.91,26.29,17.87,46l.17.73c3.67,16,0,26.14-5.54,32.51a17.86,17.86,0,0,1,6.16,10c.92,4.59-.25,9.34-3.48,14.15,5.25,5.72,5.2,10.19,4,13.12a8.38,8.38,0,0,1-4.34,4.61c.13.63.23,1.11.29,1.43.75,3.58.49,9.86-8,26.44,0,.67,0,1.35,0,2,0,22.31-16.62,46.2-41.36,46.2-.67,0-1.35,0-2,0C135.88,235,124.91,242.11,117.15,242.11Z"/><path class="cls-3" d="M137.17,208.2l17.72-9.45s23.36-2,12.54,6.9-25.08,15.13-25.08,15.13S125.14,222.62,137.17,208.2Z"/><path class="cls-4" d="M131.74,32.38c-5.27-2-19.43,12.5-25.54,33.23-3.88,13.2-2.5,33.85,3.14,42.33,3.13,4.68,26,12.16,29-1.59-7.35,1.09-15.21-7.85-16.09-11.82-2-8.86-1.29-40.75,3.35-43.8S136.75,34.26,131.74,32.38Z"/><path class="cls-5" d="M116.86,109.91c-5.64-2.3-16.34,8.86-14.75,22.56s-1.13,25.58-3.43,28.46c-1.67,2.09-16.09,13-19.85,14.5-1.55.63-5.93-1.83-9.28-1.71-2,.08-6.56-.71-7.27,1.09s3.09,3.88,3.72,4.05-4.43,1.42-4.47,2.93a4.61,4.61,0,0,0,2.09,3.59,3.48,3.48,0,0,0,.17,2.76,3.74,3.74,0,0,0,3,1.75,2.35,2.35,0,0,0,0,2.59c.84,1.51,3.18,1.09,3.18,1.09a6.36,6.36,0,0,0,.79,2.59c1,1.42,3.26.88,5,.25s10.83-6.52,11.71-7.35,29.08-15,32.59-23.11C123.21,158.38,126.89,113.92,116.86,109.91Z"/><path class="cls-4" d="M185,67.65c5.27,12.75,3.3,34.86-3.22,42.72-3.59,4.34-28.62,15-30.21,1,7.19,1.84,11.41-12.58,12.75-16.47,2.92-8.6-2.22-30.21-6.48-33.72S173.45,39.74,185,67.65Z"/><path class="cls-6" d="M130.32,132.22c-1,2.76-5.48,4.47-7.15,6.44,4.1,12.33-9.15,7-13.71,5.35-3.76-1.38-23.27-2.64-6.89-9.91-.5-3.38-2-9.07-.67-12.91,3.34-9.24,13.25-13,19.68-10.7S133.66,122.94,130.32,132.22Z"/><path class="cls-6" d="M136.42,211.71c-8.36-5.43-17.64-8.11-27.54-7.15-4.39.42-12.25,3.26-16.68,2.93s-6.77-2.38-9.44-5.89a1.62,1.62,0,0,1-.46-1.26c.13-.63.84-.83,1.38-1.17,2.09-1.29,1.75-4.39,1.25-6.77-1.79-7.94,7.07-12.29,13.5-14.17,5-1.46,3.18-3.42,7.06-6.85,2.68-2.38,4.94-2.26,5.31-5.85s3-5.56,2.55-9.11c5.77-7.94,18.14-24.41,20-20.06,2.8,6.64,23.07,19.1,26,25.58C162.66,169.08,133.79,203.77,136.42,211.71Z"/><path class="cls-6" d="M165.51,133.39c0,13.46-11.2,28.8-26.29,28.8s-28.29-15.34-28.29-28.8c0-8.94,3.34-18.85,11.36-23.11,4.06-2.13,10.87-1.25,15.93-1.25,5.51,0,19.47-3.43,23.78-.88C169.43,112.5,165.51,124.87,165.51,133.39Z"/><path class="cls-7" d="M122.21,112.16s7.31,6.31,15.13,7.23,17.47-5.22,17.47-5.22l8.73-6.44-4.43-.92s-34.6,2.72-35.81,3S122.21,112.16,122.21,112.16Z"/><path class="cls-8" d="M97.55,196.66a14.92,14.92,0,0,1,17.35-2c10,5.31,13.29,9.11,17.72,8.94s12.62-.54,13.16,6.6.25,7.94,0,9.87-22.44,18.64-29.59,15.71Z"/><path class="cls-9" d="M131.53,46.34c-4.1.92-16.88,7.11-19.35,17.18-1.88,7.6.08,12.74,0,16.92,0,3.76-.79,15.09,4.1,22.74,3.63,5.64,14.42,12.24,22.9,13,5.06.46,24.24-6.31,28.38-18.52,2.42-7.1,5.47-29-.88-39.87C161.12,48.31,139.72,44.46,131.53,46.34Z"/><path class="cls-10" d="M140.51,113.08c-8.65-.79-17.55-8.48-21.23-14.25-5-7.77-4.22-19.35-4.17-23.19,0-4.27-1.93-9.49,0-17.22.13-.46.25-1,.42-1.42a17.7,17.7,0,0,0-3.26,6.48c-1.88,7.6.09,12.74,0,16.92,0,3.76-.79,15.09,4.1,22.74,3.64,5.64,14.42,12.24,22.9,13,4.47.42,19.85-4.76,26.29-14.33C158.07,108.82,144.32,113.42,140.51,113.08Z"/><path class="cls-11" d="M149.3,76.46a7.6,7.6,0,0,1,2.87-.77,9.36,9.36,0,0,1,3.19.48,11.31,11.31,0,0,0,3.41.76c.09-.12-1.07-.72-3.09-1.54a9.56,9.56,0,0,0-3.53-.76,7.92,7.92,0,0,0-3.35.79c-1.84.83-2.45,1.43-2.24,1.6S147.72,77.21,149.3,76.46Z"/><path class="cls-4" d="M149.05,76a7.59,7.59,0,0,1,2.87-.76,9.35,9.35,0,0,1,3.19.47c2,.61,3.57,1.3,3.66,1.14s-1.32-1.1-3.34-1.91a9.58,9.58,0,0,0-3.54-.77,7.89,7.89,0,0,0-3.34.8c-1.84.82-2.29,1.84-2.08,2S147.47,76.75,149.05,76Z"/><path class="cls-11" d="M131.51,77.87a7.69,7.69,0,0,0-2.87-.76,9.37,9.37,0,0,0-3.2.47,11.28,11.28,0,0,1-3.4.76c-.09-.12,1.07-.72,3.08-1.54a9.61,9.61,0,0,1,3.54-.76,7.79,7.79,0,0,1,3.35.8c1.83.82,2.45,1.42,2.23,1.59S133.08,78.62,131.51,77.87Z"/><path class="cls-4" d="M131.76,77.41a7.69,7.69,0,0,0-2.87-.76,9.41,9.41,0,0,0-3.2.47c-2,.61-3.56,1.3-3.65,1.14s1.32-1.09,3.34-1.91a9.73,9.73,0,0,1,3.53-.77,7.93,7.93,0,0,1,3.35.8c1.83.83,2.28,1.84,2.07,2S133.33,78.16,131.76,77.41Z"/><path class="cls-2" d="M135,86.89c-.4,4-3.22,5.22-7.26,4.81s-6-2-5.58-6,3.12-7.14,7.16-6.73h0C133.25,79.32,135.35,82.84,135,86.89Z"/><path class="cls-2" d="M146.47,86.16c.4,4,3.22,5.22,7.27,4.82s6-2,5.57-6-3.12-7.13-7.16-6.73h0C148.18,78.6,146.08,82.11,146.47,86.16Z"/><path class="cls-12" d="M133,85.24a3.7,3.7,0,1,1-3.8-3.59h0A3.62,3.62,0,0,1,133,85.24Z"/><path class="cls-13" d="M126.83,85.19a2.33,2.33,0,1,0,1.65-2.85h0A2.35,2.35,0,0,0,126.83,85.19Z"/><path class="cls-14" d="M127.33,82.8a.9.9,0,1,0,.65-1.1h0A.89.89,0,0,0,127.33,82.8Z"/><path class="cls-12" d="M156.09,84.48a3.94,3.94,0,1,1-4-3.82h0A3.85,3.85,0,0,1,156.09,84.48Z"/><path class="cls-13" d="M149.55,84.43a2.47,2.47,0,1,0,1.75-3h0A2.5,2.5,0,0,0,149.55,84.43Z"/><path class="cls-14" d="M152,82a.94.94,0,0,0,1.17.69,1,1,0,0,0-.48-1.86h0A1,1,0,0,0,152,82Z"/><path class="cls-15" d="M158.21,93.92c2.59,3.26-1.09,7.06-4.43,4.59C151.19,95.3,154.87,91.45,158.21,93.92Z"/><path class="cls-15" d="M126.84,94.8c2.59,3.26-1.09,7.06-4.43,4.6C119.82,96.14,123.5,92.34,126.84,94.8Z"/><path class="cls-16" d="M132.67,101.92a14.12,14.12,0,0,0,12.38.79,9.21,9.21,0,0,0,2.92-2c.2-.23-.11-.58-.32-.35-3,3-7.69,3.5-11.56,2.43a15.44,15.44,0,0,1-3.16-1.26c-.28-.11-.53.25-.26.41Z"/><path class="cls-6" d="M124.4,199.59c6.9,4.68,3.79,24,15.65,25.43,22.86,2.83,39.41-18.66,39.41-40,0-18.89,0-43.84-19.43-47.14"/><path class="cls-17" d="M146.58,195.11a.43.43,0,0,1-.11.12c-.5.4-3.64,3-3.6,4.36s2.83.34,5.69,0c0,0-5.6,8.07-5.69,10.73s.75,6,1.73,6.09,4.35,4.65,14.85-.65,7.07-52.88,7.07-52.88L158,184.81Z"/><path class="cls-18" d="M116.15,160.26s5.31,3.48,10.94,3.56l-11.54,15.55s-1.46,3.58,4.7,3.72l2-.35L129.57,170l-1.34,14.77s2.53.49,3.08,1.54,3.4,1,3.93-1-1.41-19.94-1.41-19.94.62,1.94,9.51,2,21.48-2.81,22.85-3.43,1-4.3,1-4.3l-12.34.75H138.73l-11.83-1.91-6.58-2-2.45-.41-1.54,1.06Z"/><path class="cls-2" d="M117.66,151.32c17.13,10.57,51.36,5.1,56.37,2,1.17,1.72,1.42,2.89,3.22,5.23-23.57,9.32-49.77,6.89-63.86-1.88A28.74,28.74,0,0,1,117.66,151.32Z"/><path class="cls-19" d="M118.24,159.47c1,1.09,8.19,3.89,12.08,2.09,1-1.63-.67-4.31-4.26-5.22a8.77,8.77,0,0,0-7.28,1.37A2.35,2.35,0,0,0,118.24,159.47Z"/><path class="cls-20" d="M131.07,157.13c-.63-3.47-9.65-8.78-12.2-5.81-1.42,1.67-2.09,6.6-.59,8a9.63,9.63,0,0,1,11.87,2.47Z"/><path class="cls-20" d="M131.24,159.93c-5.18,3.93-18.43,20.27-15.21,20.14,5.89-.25,4.47,2.3,5.18,1.3,0,0,3.84-6.94,6.27-10.45,3.21-4.64,6.68-9.57,6.68-9.57Z"/><path class="cls-20" d="M133.91,160.22c1.92,6.23,3.18,27.21.63,25.24-4.64-3.63-5-.75-5-2,0,0,.92-7.86,1-12.16.08-5.64.12-11.66.12-11.66Z"/><path class="cls-19" d="M145.57,165.53c-1.38.58-9.07.21-11.87-3-.25-1.92,2.39-3.64,6-3a8.69,8.69,0,0,1,6.06,4.26A2,2,0,0,1,145.57,165.53Z"/><path class="cls-20" d="M134.87,158.13c2-2.92,12.42-4,13.54-.29.63,2.09-.79,6.85-2.75,7.56-5.48-6.18-11.83-2.59-11.83-2.59Z"/><path class="cls-2" d="M135,163.69c-1.17.75-4.6-.08-5.48-1.17s0-4.85,1.21-5.64,4.85-.08,5.52,1.17S136.17,162.94,135,163.69Z"/><path class="cls-21" d="M159.24,187.51c-.88.8-3.35,1.42-6.06,2.55s-7.86,5.52-7.86,7.31c0,4.39,7.19-2.71,6.94,0-.17,1.55-7.52,12.29-5.48,13.5,2.55,1.51,6.48-7.52,6.48-7.52s-5.72,10.87-3.68,12c2.22,1.25,7.94-8.57,7.94-8.57s-5.43,8.32-3.09,9.49S162.2,208,162.2,208s-4.17,6.85-2.54,7.52c2.71,1.09,9-10.19,9.94-11.74,1.42-2.34,3.22-9.11,3.43-10.32s16.34-27,14.54-35.69c-1.63-8.07-11.2-50.9-21.73-48.44-5.93,1.38-12,3.93-5.6,24.66,3.51,11.45,7.15,22.94,6.94,26.62Z"/><path class="cls-22" d="M187.36,158c-1.54-7.53-9.94-45.26-19.64-48.31,8.65,7.6,15.88,40,17.3,46.93,1.8,8.65-10.24,33.35-16.05,35.14-.25,1.22-.54,8.53-2,10.87-.71,1.21-2.26,8.15-5.22,10.78-.42,1.17-2.93,2.13-2.34,2.34,2.71,1.09,9-10.19,9.94-11.74,1.42-2.34,3.22-9.11,3.43-10.32S189.12,166.66,187.36,158Z"/><path class="cls-6" d="M162.58,108c-8.44-1.83-15.55,24.33-.42,34.65,7.44,1.09,19.39-.13,24.37-5.93C198.77,122.44,186.28,113.12,162.58,108Z"/><path class="cls-6" d="M162.25,142.17c.58,4.09-6.9,10.57-1.17,13,3,1.26,2.84-3.92,5.93-1.75s3.34,2.55,7.15-1.17c3.63-3.55,7.14,3.09,9.65-1.17,2.72-4.6,6.44,1.38,8.15-2.76s-7.4-10.82-7.4-10.82S176.83,141.67,162.25,142.17Z"/><path class="cls-7" d="M158.61,109.7s-2.47,2.9-2.75,4c0,0,.18,2.65,4.3,4.64s15,1.34,20.53-1.94c0,0,1.33-1.13,1.33-1.34a5.74,5.74,0,0,0-1.55-.84l-15-5.17a23.46,23.46,0,0,0-4.19-.81,6.22,6.22,0,0,0-.78.2A9.55,9.55,0,0,0,158.61,109.7Z"/><path class="cls-7" d="M105.67,115.72s1,2.47,7.61,3.68c0,0,1.79-3.3,2.22-3.37L107,113.89Z"/><path class="cls-23" d="M190.33,81.28c-4.05-20.23-7-33.85-16.21-43-15.18-15-40.92-9.7-47.06-7.48-10.45,3.72-24.16,17.05-30,37-3.76,12.75-7.27,28.88-.08,40.67,3.63,5.93,23.57,13.54,26.53.29-7.1,1-11.74-10.32-12.62-14.13C109.76,90,113.18,74,113.27,74.05c3.3,1.63,29,1.54,37.32-1.34.79-.29,0-6,.21-8.52,1.17,1.54,2.29,5.89,2.42,8.48,1,0,4.39.5,5.64-.59.54-3.67.08-6.35-.79-10.78a19.94,19.94,0,0,1,2.21,10.83c1.84.79,5.77-.09,6.81-.13a88.43,88.43,0,0,1,3.56,17c3,21.86-7.48,21.06-14.59,20.9.17,8.1,14.63,8.61,19.89,6.52C197.85,107.77,191.12,85.17,190.33,81.28Z"/><path class="cls-8" d="M66.84,191.15a14.9,14.9,0,0,1,17.42.92c8.95,6.89,14.71,12.45,19.1,13s12.54,1.58,11.83,8.73-2.09,15.84-2.72,17.68S85.1,237,78.54,232.86Z"/><path class="cls-24" d="M88.11,214.38c1.8,9.57-.06,17.85-8.33,19.07-6.78.19-17.88-11.58-18.84-24.25-.73-9.71,2.05-18.62,8.15-18.93C75.28,190.44,84.77,196.54,88.11,214.38Z"/><path class="cls-24" d="M122.46,215.93c3.39,9.15,2.82,18.27-5.52,19.93-9.64.78-19.53-11.06-22.1-20.47-2.38-8.71-.44-19.23,5.66-20.1S116.11,198.92,122.46,215.93Z"/><path class="cls-25" d="M158.6,15.54c-3.77-1-17.88,4.18-21.85,11.74C135.54,29.62,160.73,27.79,158.6,15.54Z"/><path class="cls-26" d="M136.63,33.14s19.47,5.76,25.78-.34c3-2.88.21-17.3-3.8-17.68-8.32,12.08-22.44,13-22.44,13Z"/><path class="cls-27" d="M158.94,15.21c3.14,3.13,4.89,14.33,2.3,16.88-5.39,5.27-20.47,1.76-24.65.67l0,.42s19.47,5.76,25.78-.34C165.3,30,162.79,16.33,158.94,15.21Z"/><path class="cls-27" d="M139,28.83c.67.17,5.18,1.42,14-1.13-7.94,4.43-13.33,4.6-13.5,4.35A27.22,27.22,0,0,1,139,28.83Z"/><path class="cls-25" d="M110.7,22.11c3.34-2,18.28-.8,24.17,5.43C136.63,29.46,112,34.52,110.7,22.11Z"/><path class="cls-26" d="M136.59,33.14S119.41,44,111.68,39.78c-3.64-2-4.89-16.59-1.13-18,11.28,9.36,25.12,6.43,25.12,6.43Z"/><path class="cls-27" d="M110.22,21.89c-2.18,3.85-.84,15.13,2.34,16.85,6.6,3.59,20.18-3.85,23.94-6.06l.09.41s-17.18,10.83-24.91,6.65C108.13,37.86,106.83,24,110.22,21.89Z"/><path class="cls-27" d="M133.08,29.62c-.59.34-4.6,2.76-13.8,2.68,8.86,2.13,14.09.79,14.17.54A29.62,29.62,0,0,0,133.08,29.62Z"/><path class="cls-28" d="M139.72,33.43c-.88,1.42-4.39,2.25-5.68,1.13S132,28.66,132.53,27s4.43-2.25,5.69-1.13S140.6,32,139.72,33.43Z"/><path class="cls-29" d="M133.16,27.54c.58-1.59,4.08-2,5.16-.91a3.07,3.07,0,0,0-.42-.58c-1.26-1.13-4.57-.73-5.2.94s.36,6.17,1.61,7.29c0,0,.23.08.23.12C133.49,32.81,132.62,29,133.16,27.54Z"/><path class="cls-30" d="M161.24,141.37l2.09,2.18,5.94,0,16.76-4a4.92,4.92,0,0,1-.8-1.13c-.12-1,.38-1.38.38-1.38L175,135.57l-11.82,2.84Z"/><path class="cls-16" d="M132.58,101.8a8.19,8.19,0,0,0,8.43,4.11c5.91-.85,7-5.41,7-5.41S142.11,106.37,132.58,101.8Z"/><path class="cls-31" d="M132.83,101.12s.25.86,2.91,2.22c2.51,1.28,7.37,1.3,10.26-1.48,1.43-1.38,1.5-1.72,1.5-1.72S141.42,105.63,132.83,101.12Z"/><path class="cls-32" d="M132.8,101.51s-.47-.59-.07-.44,1.23.58,1.73.76a14.44,14.44,0,0,0,5.71,1c2.89-.15,6.25-1.5,7-2.45s.68,0,.56.1a17.41,17.41,0,0,1-3.71,2.1,13.86,13.86,0,0,1-9.41-.2Z"/><path class="cls-32" d="M132.58,101.8a8.35,8.35,0,0,0,3.39,3.31,7.57,7.57,0,0,0,4.89.83,9.39,9.39,0,0,0,5.16-2.31c2-1.9,1.71-3.11,1.81-3.18s.47,0,.37.42a10.64,10.64,0,0,1-1.25,2.79,9.82,9.82,0,0,1-6.32,3.13,9.16,9.16,0,0,1-5.42-1.3,13.53,13.53,0,0,1-2.8-3.41C132.08,101.4,132.58,101.8,132.58,101.8Z"/><path class="cls-33" d="M133.88,99.73a8.32,8.32,0,0,1-.32,1.29,6.2,6.2,0,0,1-.35.88c-.14.25-.28.48-.47.76s-.38.59-.74,1.06a2.07,2.07,0,0,1-.57-2.73,2.48,2.48,0,0,1,1-1A2,2,0,0,1,133.88,99.73Z"/><path class="cls-33" d="M146.64,98.6a2,2,0,0,1,1.46.22,2.48,2.48,0,0,1,1,1,2.07,2.07,0,0,1-.57,2.73c-.36-.47-.53-.78-.74-1.06s-.33-.51-.47-.76a6.2,6.2,0,0,1-.35-.88A8.32,8.32,0,0,1,146.64,98.6Z"/><path class="cls-34" d="M149.15,92.82a5.61,5.61,0,0,1,2.14-2.13,7.12,7.12,0,0,1,2.94-.91,6.51,6.51,0,0,1,3.06.47,5.57,5.57,0,0,1,2.41,1.82c-1-.08-1.91-.27-2.79-.3a14.13,14.13,0,0,0-2.52,0A28.15,28.15,0,0,0,149.15,92.82Z"/><path class="cls-34" d="M121.19,92.1a6,6,0,0,1,2.67-1.66,7.3,7.3,0,0,1,3.19-.26,6.64,6.64,0,0,1,3,1.18,6,6,0,0,1,2,2.39c-1-.34-1.86-.75-2.75-1a13.24,13.24,0,0,0-2.57-.59A26.43,26.43,0,0,0,121.19,92.1Z"/><path class="cls-33" d="M113.18,74.05h0c-.25,1.71-.83,3.43-1,5.18a55.41,55.41,0,0,0,0,8.74,31.34,31.34,0,0,0,3.38,13.45,24.49,24.49,0,0,0,9.41,9.61,39.52,39.52,0,0,0,14.25,5.19c-3.51-2.43-7.36-4.31-11-6.52s-7.15-4.89-9.45-8.49a27.35,27.35,0,0,1-3.34-8.61c-.84-3.63,1.75-17.84,1.75-17.84S113.89,74.3,113.18,74.05Z"/><path class="cls-18" d="M123.17,110.16a8.46,8.46,0,0,1-4.47,5,10.14,10.14,0,0,0-2.23.84,6.76,6.76,0,0,0-1.2,1.79,28.69,28.69,0,0,0-3.8,17.39,28.07,28.07,0,0,0,3.3,10.61,16.87,16.87,0,0,0,3.09,4.64c1.13,1,.51.54,1.84.38a6.73,6.73,0,0,1,2.89-.25,36.89,36.89,0,0,1-4.89-14.88c-.5-4.39.54-8.82,2-13S121.88,114.38,123.17,110.16Z"/><path class="cls-18" d="M113.77,156.84a6.36,6.36,0,0,1-1,4.09s-1.8,3.76-1.55,4.85-1.17,3.3-2.67,3.93-5,3.59-6,6.27-4.76,2-11,5.51-7,7.57-6.27,10.79l9.19,7.31S90,187.39,103,184.84c0,0,3.76-2,4-5s3.18-7,4.72-7.35,3.3-3.68,3-5-.5-4.51.46-5.72a12.13,12.13,0,0,0,1.59-3.26Z"/><path class="cls-9" d="M67.25,189.48s-4.26.41-3.21-4.27c0,0-2.51-1.58-2.09-3.55,0,0,1-1.42,4.22-2.3,0,0,1-.46-.29-1,0,0-3.18-1.55-3.31-3.22,0,0,.09-1,1.68-1a25,25,0,0,1,4.34,0c2,.21,2.18-.21,3.35.25s4.43,1,5.18,1.42a3.1,3.1,0,0,0,2.55-.25c.46-.29,15.33-10.32,18.34-13.37a8.45,8.45,0,0,0,2.8-4.81s1.3-.08,2.18-14.33c0,0,5.18.92,6.1,1.29s1.59.5,2.25.8c0,0,.59,10.57-2.08,15.37S98.56,173.89,93,177.82,71.81,188.39,67.25,189.48Z"/><ellipse class="cls-35" cx="140.16" cy="95.3" rx="4.09" ry="2.47"/><ellipse class="cls-36" cx="140.6" cy="94.88" rx="4.09" ry="2.47"/></svg>