<svg id="Layer_54" data-name="Layer 54" xmlns="http://www.w3.org/2000/svg" viewBox="0 0 256 256"><defs><style>.cls-1{opacity:0.5;}.cls-2{fill:#fff;}.cls-3{fill:#ed2f4b;}.cls-3,.cls-5{stroke:#720000;stroke-miterlimit:10;stroke-width:2px;}.cls-4{fill:#fc355c;}.cls-5{fill:#ff7b94;}.cls-6{fill:#ffb6c7;}.cls-7{fill:#ffa9be;}.cls-8{fill:#ffe1e9;}.cls-9{fill:#b70d2e;}</style></defs><path class="cls-1" d="M26.72,240.16A10.69,10.69,0,0,1,16,229.93l0-1,.31-.9c.12-.33.23-.66.34-1l.72-2.06c9.78-27,20.65-36.08,40.38-52.6C72.55,160,92.84,143,122.42,110.2c6.31-7,17-10.84,27.56-14,2.2-.65,4.47-1.3,6.66-1.92,15.23-4.32,31-8.78,35.13-19.25a12.37,12.37,0,0,1,.64-6.58l-4-4a8.93,8.93,0,0,1,0-12.62l26.71-26.71a8.9,8.9,0,0,1,12.61,0l5.12,5.12a12.75,12.75,0,0,1,1.51-.09,12.36,12.36,0,0,1,8.8,21l-31.07,31-.08,0c-17.35,17.15-33.38,24.66-55.48,35l-7.26,3.42c-14.07,6.66-34.06,32-51.76,56-15.63,21.09-27.86,31.1-44.79,45-5.69,4.65-12.14,9.93-19.34,16.18l-.14.11-.14.11a10.56,10.56,0,0,1-6.37,2.14Z"/><path class="cls-2" d="M20,233.49A10.68,10.68,0,0,1,9.35,223.25l0-.95.31-.91c.11-.32.22-.65.34-1,.23-.68.47-1.39.71-2.06,9.79-27,20.65-36.09,40.38-52.61,14.82-12.4,35.11-29.4,64.7-62.21,6.3-7,17-10.85,27.55-14,2.2-.65,4.47-1.29,6.66-1.91,15.23-4.32,30.95-8.78,35.14-19.26a12.28,12.28,0,0,1,.63-6.58l-4-4a8.92,8.92,0,0,1,0-12.61l26.71-26.71a8.9,8.9,0,0,1,12.61,0l5.12,5.12a12.76,12.76,0,0,1,1.51-.1,12.36,12.36,0,0,1,8.8,21l-31.06,31-.08,0c-17.36,17.14-33.39,24.65-55.48,35L142.58,114c-14.07,6.66-34.06,32.05-51.76,56C75.19,191.08,63,201.09,46,214.94c-5.69,4.66-12.15,9.94-19.35,16.18l-.13.12-.15.1a10.54,10.54,0,0,1-6.36,2.15Z"/><path class="cls-3" d="M232.9,41,202.44,71.4a.58.58,0,0,0-.12.08c-18.78,18.74-36.29,25.86-61.89,38C126.75,115.93,109,136.93,86.79,167,66.17,194.83,51.3,203.15,23.4,227.33a5.66,5.66,0,0,1-9-4.3c.35-1,.69-2,1-3,16.48-45.45,35.45-37,104.08-113.16,5.37-5.94,14.91-9.47,25.26-12.53,19-5.64,40.85-10,45.6-25.76h0a7.18,7.18,0,0,1,1.72-7.51l30.47-30.46A7.33,7.33,0,0,1,232.9,41Z"/><path class="cls-4" d="M18,219.38a5.16,5.16,0,0,1-2.41,1C32.09,175,51.06,183.4,119.7,107.25c5.36-5.94,14.9-9.46,25.25-12.53-2,1-4.06,2-6.21,3-14,6.78-39.85,41.58-67,64.95C47.12,184,42.79,186.31,18,219.38Z"/><path class="cls-5" d="M195.39,64.35,185.27,54.23a3.88,3.88,0,0,1,0-5.51L212,22a3.88,3.88,0,0,1,5.52,0l10.11,10.11a4.39,4.39,0,0,1,0,6.17l-26.09,26.1A4.38,4.38,0,0,1,195.39,64.35Z"/><rect class="cls-6" x="218.69" y="29.41" width="1.76" height="12.07" transform="translate(39.25 165.65) rotate(-45)"/><rect class="cls-6" x="215.7" y="32.4" width="1.76" height="12.07" transform="translate(36.26 164.4) rotate(-45)"/><rect class="cls-6" x="212.71" y="35.39" width="1.76" height="12.07" transform="translate(33.27 163.17) rotate(-45)"/><rect class="cls-6" x="209.72" y="38.38" width="1.76" height="12.07" transform="translate(30.28 161.93) rotate(-45)"/><rect class="cls-6" x="206.73" y="41.37" width="1.76" height="12.07" transform="translate(27.29 160.69) rotate(-45)"/><rect class="cls-6" x="203.73" y="44.35" width="1.76" height="12.07" transform="translate(24.3 159.44) rotate(-45)"/><rect class="cls-6" x="200.74" y="47.34" width="1.76" height="12.07" transform="translate(21.31 158.2) rotate(-45)"/><rect class="cls-6" x="197.75" y="50.33" width="1.76" height="12.07" transform="translate(18.32 156.96) rotate(-45)"/><rect class="cls-6" x="194.49" y="52.67" width="1.76" height="12.84" transform="translate(15.45 155.46) rotate(-45)"/><rect class="cls-6" x="221.45" y="25.49" width="1.76" height="13.03" transform="translate(42.49 166.59) rotate(-45)"/><path class="cls-7" d="M186.09,54.67l-.42-.42a3.85,3.85,0,0,1,0-5.47l26.39-26.45a3.84,3.84,0,0,1,5.46,0l.41.42a4.35,4.35,0,0,1,0,6.11L192.14,54.71A4.32,4.32,0,0,1,186.09,54.67Z"/><path class="cls-8" d="M213.13,24.42c-.81.81-1.69,1.19-2,.88s.07-1.19.88-2,1.68-1.19,2-.88S213.93,23.62,213.13,24.42Z"/><path class="cls-8" d="M209.49,28.06c-.81.81-1.69,1.19-2,.88s.08-1.19.89-2,1.68-1.19,2-.88S210.29,27.26,209.49,28.06Z"/><path class="cls-8" d="M205.89,31.66c-.81.81-1.69,1.19-2,.88s.08-1.18.88-2,1.69-1.19,2-.88S206.69,30.86,205.89,31.66Z"/><path class="cls-8" d="M202.24,35.3c-.8.81-1.68,1.19-2,.88s.08-1.18.88-2,1.69-1.19,2-.88S203.05,34.5,202.24,35.3Z"/><path class="cls-8" d="M198.64,38.91c-.8.8-1.68,1.18-2,.88s.08-1.19.88-2,1.69-1.18,2-.88S199.45,38.1,198.64,38.91Z"/><path class="cls-8" d="M195,42.55c-.8.8-1.68,1.18-2,.88s.08-1.19.88-2,1.69-1.18,2-.88S195.81,41.74,195,42.55Z"/><path class="cls-8" d="M191.4,46.15c-.8.8-1.69,1.19-2,.88s.07-1.19.88-2,1.69-1.19,2-.88S192.2,45.34,191.4,46.15Z"/><path class="cls-8" d="M187.76,49.79c-.8.8-1.69,1.19-2,.88s.07-1.19.88-2,1.68-1.19,2-.88S188.56,49,187.76,49.79Z"/><path class="cls-8" d="M216.46,27.87c-.8.8-1.68,1.19-2,.88s.08-1.19.88-2,1.69-1.19,2-.88S217.27,27.06,216.46,27.87Z"/><path class="cls-8" d="M212.86,31.47c-.81.81-1.69,1.19-2,.88s.07-1.19.88-2,1.68-1.19,2-.88S213.66,30.67,212.86,31.47Z"/><path class="cls-8" d="M209.22,35.11c-.81.81-1.69,1.19-2,.88s.07-1.18.88-2,1.68-1.19,2-.88S210,34.31,209.22,35.11Z"/><path class="cls-8" d="M205.62,38.71c-.81.81-1.69,1.19-2,.89s.08-1.19.89-2,1.68-1.19,2-.88S206.42,37.91,205.62,38.71Z"/><path class="cls-8" d="M202,42.35c-.8.81-1.68,1.19-2,.89s.08-1.19.88-2,1.69-1.18,2-.88S202.78,41.55,202,42.35Z"/><path class="cls-8" d="M198.37,46c-.8.8-1.68,1.18-2,.88s.08-1.19.88-2,1.69-1.19,2-.89S199.18,45.15,198.37,46Z"/><path class="cls-8" d="M194.77,49.56c-.8.8-1.68,1.19-2,.88s.08-1.19.88-2,1.69-1.19,2-.88S195.54,48.79,194.77,49.56Z"/><path class="cls-8" d="M191.13,53.2c-.8.8-1.68,1.19-2,.88s.08-1.19.88-2,1.69-1.19,2-.88S191.94,52.39,191.13,53.2Z"/><path class="cls-8" d="M213.05,27.64c-.8.8-1.68,1.19-2,.88s.08-1.19.88-2,1.69-1.19,2-.88S213.82,26.83,213.05,27.64Z"/><path class="cls-8" d="M216.31,24.34c-.81.81-1.69,1.19-2,.89s.07-1.19.88-2,1.68-1.19,2-.88S217.11,23.54,216.31,24.34Z"/><path class="cls-8" d="M209.41,31.24c-.8.81-1.69,1.19-2,.88s.07-1.18.88-2,1.69-1.19,2-.88S210.22,30.44,209.41,31.24Z"/><path class="cls-8" d="M205.81,34.88c-.81.81-1.69,1.19-2,.88s.07-1.18.88-2,1.68-1.19,2-.88S206.61,34.08,205.81,34.88Z"/><path class="cls-8" d="M202.17,38.48c-.81.81-1.69,1.19-2,.89s.07-1.19.88-2,1.68-1.19,2-.88S203,37.68,202.17,38.48Z"/><path class="cls-8" d="M198.57,42.12c-.81.81-1.69,1.19-2,.89s.08-1.19.88-2,1.69-1.18,2-.88S199.33,41.32,198.57,42.12Z"/><path class="cls-8" d="M194.93,45.73c-.81.8-1.69,1.18-2,.88s.08-1.19.88-2,1.69-1.19,2-.89S195.73,44.92,194.93,45.73Z"/><path class="cls-8" d="M191.32,49.37c-.8.8-1.68,1.19-2,.88s.08-1.19.88-2,1.69-1.19,2-.89S192.13,48.56,191.32,49.37Z"/><path class="cls-8" d="M187.68,53c-.8.8-1.68,1.19-2,.88s.08-1.19.88-2,1.69-1.19,2-.88S188.49,52.16,187.68,53Z"/><path class="cls-9" d="M201.4,70.71c-21.8,22.42-42.76,29.13-63.19,39.74a61.12,61.12,0,0,0-11.76,8.89c-12.57,11.73-28,31.77-38.44,45.72-23,31-39.12,39.16-65.53,61.54,28.21-25.37,42.69-33.42,63.92-62.73,11.81-16,34-45.87,50.93-55.07C154.34,100,178.6,92.55,201.4,70.71Z"/></svg>