<svg id="Layer_54" data-name="Layer 54" xmlns="http://www.w3.org/2000/svg" viewBox="0 0 256 256"><defs><style>.cls-1{opacity:0.5;}.cls-2{fill:#fff;}.cls-3{fill:#e90000;}.cls-3,.cls-6{stroke:#af0227;}.cls-3,.cls-4,.cls-5,.cls-6,.cls-7{stroke-miterlimit:10;}.cls-4{fill:#cacbcc;}.cls-4,.cls-5{stroke:#6d6d6d;}.cls-5{fill:#afafaf;}.cls-14,.cls-6{fill:#fe0000;}.cls-7{fill:#f6931e;stroke:#d87407;}.cls-8{fill:#d00000;}.cls-9{fill:#bf0000;}.cls-10{fill:#bbbdbf;}.cls-11{fill:#96989b;}.cls-12{fill:#757678;}.cls-13{fill:#a8a9a9;}.cls-15{fill:#fd0101;}.cls-16{fill:#959596;}.cls-17{fill:#e90100;}.cls-18{fill:#e90101;}.cls-19{fill:#fec000;}.cls-20{fill:#f6b000;}.cls-21{fill:#feeb00;}.cls-22{fill:#00adee;}.cls-23{fill:#26b7e7;}.cls-24{fill:#02aeee;}.cls-25{fill:#f6d400;}.cls-26{fill:#279fe0;}.cls-27{fill:#39b0e1;}.cls-28{fill:#27a0e0;}</style></defs><path class="cls-1" d="M126.86,244.23a7.79,7.79,0,0,1-2.71-3.8c-2.71-7.2-5.09-13.92-7.21-20.3-.23.43-.47.85-.7,1.29l-6.06,11.1-4.77-11.72a69.18,69.18,0,0,1-3.77-13.27c-2.81-14.57-2.41-27.73,1.26-40.07a16.18,16.18,0,0,0-3.11,8.83c-.2,4.35-3.08,7.17-7.32,7.17H92c-1,0-2.06-.06-3.08-.06l-3.06,0H84.71a7.27,7.27,0,0,1-7.42-5.57c-3.5-13.28-6.67-30.85-.14-49.07,3.19-8.9,8.36-15.64,15.38-20a76.82,76.82,0,0,1-.46-8.85,121.6,121.6,0,0,1,5.16-33,149,149,0,0,1,9.16-23.13c.26-.51.53-1,.77-1.35l0-.24.39-.75a157.86,157.86,0,0,1,16.72-26,7,7,0,0,1,6.22-3.75,7.3,7.3,0,0,1,1.14.09l2.13.34,1.43,1.61c6.28,7.08,11.14,15,15.46,22.5.74,1.28,1.37,2.55,2,3.77.22.45.44.9.67,1.34a102.19,102.19,0,0,1,7.33,16.12l.1.25A122.64,122.64,0,0,1,168,85.44a95.16,95.16,0,0,1,.55,23.3c7.87,5,13.35,12.81,16.71,23.8a49.74,49.74,0,0,1,1.47,6.47s.06,24.18-.13,25.73a36.08,36.08,0,0,1-.76,4.69c-.58,2.32-1.12,4.73-1.63,7.06l-.15.64a7.6,7.6,0,0,1-7.63,6.33h-.5c-.95,0-2-.07-3.13-.07-1.35,0-2.7,0-4,.06h-.26a7,7,0,0,1-7.19-6.86,16.64,16.64,0,0,0-3-9.05,75.77,75.77,0,0,1,2,9.12c2.12,13.4.91,27.36-3.59,41.51l0,.09a8.28,8.28,0,0,1-3.24,4.93l-5.58,3.94-3.71-7c-.2.6-.4,1.2-.61,1.79l-1.35,4c-1.8,5.31-3.67,10.81-6,16.16L133,249.32Z"/><path class="cls-2" d="M121.86,239.23a7.79,7.79,0,0,1-2.71-3.8c-2.71-7.2-5.09-13.92-7.21-20.3-.23.43-.47.85-.7,1.29l-6.06,11.1-4.77-11.72a69.18,69.18,0,0,1-3.77-13.27C93.83,188,94.23,174.8,97.9,162.46a16.18,16.18,0,0,0-3.11,8.83c-.2,4.35-3.08,7.17-7.32,7.17H87c-1,0-2.06-.06-3.08-.06l-3.06,0H79.71a7.27,7.27,0,0,1-7.42-5.57c-3.5-13.28-6.67-30.85-.14-49.07,3.19-8.9,8.36-15.64,15.38-20.05a76.82,76.82,0,0,1-.46-8.85,121.6,121.6,0,0,1,5.16-33,149,149,0,0,1,9.16-23.13c.26-.51.53-1,.77-1.35l0-.24.39-.75a157.86,157.86,0,0,1,16.72-26,7,7,0,0,1,6.22-3.75,7.3,7.3,0,0,1,1.14.09l2.13.34,1.43,1.61c6.28,7.08,11.14,15,15.46,22.5.74,1.28,1.37,2.55,2,3.77.22.45.44.9.67,1.34a102.19,102.19,0,0,1,7.33,16.12l.1.25A122.64,122.64,0,0,1,163,80.44a95.16,95.16,0,0,1,.55,23.3c7.87,5,13.35,12.81,16.71,23.8a49.74,49.74,0,0,1,1.47,6.47l.6,21.77a19,19,0,0,0-.73,4,36.08,36.08,0,0,1-.76,4.69c-.58,2.32-1.12,4.73-1.63,7.06l-.15.64a7.6,7.6,0,0,1-7.63,6.33h-.5c-.95,0-2-.07-3.13-.07-1.35,0-2.7,0-4,.06h-.26a7,7,0,0,1-7.19-6.86,16.64,16.64,0,0,0-3-9.05,75.77,75.77,0,0,1,2,9.12c2.12,13.4.91,27.36-3.59,41.51l0,.09a8.28,8.28,0,0,1-3.24,4.93l-5.58,3.94-3.71-7c-.2.6-.4,1.2-.61,1.79l-1.35,4c-1.8,5.31-3.67,10.81-6,16.16L128,244.32Z"/><path class="cls-3" d="M175,163c-.64,2.6-1.22,5.22-1.8,7.84-.24,1.08-.65,1.69-2,1.63-2.54-.13-5.09-.08-7.63,0-.89,0-1.26-.2-1.31-1.14-.45-9.46-5.62-15.83-13.39-20.5a8.16,8.16,0,0,1-.66-.5,4.58,4.58,0,0,1,.44-2.68A122.23,122.23,0,0,0,156.76,116c.24-2.17.24-4.38.6-6.55.11-.68,0-1.43.59-2,9,4.64,13.69,12.54,16.54,21.84a49.16,49.16,0,0,1,2.15,9.56c0,1.06.06,8.73,0,10.22A100.65,100.65,0,0,1,175,163Z"/><path class="cls-4" d="M93.83,107c-.28-4-.85-8-.76-12A115.09,115.09,0,0,1,98,63.66a141.93,141.93,0,0,1,8.8-22.19c.31-.62.71-1.2,1.07-1.8a3.14,3.14,0,0,1,2.2-.59c4.51,0,9,0,13.54,0,1.53,0,2.71.4,2.73,2.18a117.81,117.81,0,0,1-.15,13.55c-.58,1.42-2,1.21-3.08,1.42a14,14,0,0,0-11.53,10.27,14.46,14.46,0,0,0,9.15,18.1,27.45,27.45,0,0,0,3.49.89c.76.14,1.56.23,1.91,1.1.57,2.94.2,5.9.26,8.85s0,5.92,0,8.87a4.44,4.44,0,0,1-.55,2.65c-1.44.82-1.58,2.17-1.58,3.65q0,15.39,0,30.78c0,1.19.18,2.43-.55,3.51a2.27,2.27,0,0,1-1.57.55c-5.43,0-10.87.27-16.3-.14a3.06,3.06,0,0,1-1.85-1.93,121.19,121.19,0,0,1-10.24-34.08A3.1,3.1,0,0,1,93.83,107Z"/><path class="cls-5" d="M125.71,55.35q0-6.37,0-12.75c0-2.91,0-2.91-2.8-2.91l-15.06,0c0-.16.07-.33.1-.49a4.65,4.65,0,0,1,2.42-.6c5.11,0,10.23-.08,15.34,0,5-.12,10,0,15,0a3.34,3.34,0,0,1,2.38.67c3,4.92,5,10.28,7.08,15.61A116.28,116.28,0,0,1,157,81.24a86,86,0,0,1,.12,24.92,6,6,0,0,0,0,.85,3,3,0,0,1,.27,2.24,125.15,125.15,0,0,1-10.19,34,2.75,2.75,0,0,1-.89,1.16c-1.5.3-1.72-1-2.13-1.86-5.39-11.44-11-22.76-16.48-34.16a3.93,3.93,0,0,0-.5-.64c-.39-.36-.95-.37-1.37-.66l-.13-.23q0-10.38,0-20.76l.21-.24a9.65,9.65,0,0,1,2.64-.71A14.48,14.48,0,0,0,140.29,71c0-6.38-3.19-11.86-10.51-14.35-1.27-.43-2.64-.44-3.88-1A2.48,2.48,0,0,1,125.71,55.35Z"/><path class="cls-6" d="M102.78,150.37a35.28,35.28,0,0,0-8.47,6.93A22.61,22.61,0,0,0,88.8,171c-.06,1.24-.41,1.49-1.56,1.44-2.47-.1-4.95,0-7.42,0-.85,0-1.46-.08-1.73-1.09-4-15.16-5.73-30.36-.29-45.52C80.62,118,85.34,111.44,93,107.53c1.45,1,.86,2.64.94,3.94a120,120,0,0,0,8.25,35.69C102.59,148.18,103.39,149.16,102.78,150.37Z"/><path class="cls-7" d="M149.36,172.6a54.58,54.58,0,0,0-6.25-19,3.87,3.87,0,0,0-2.23-.51c-3.59,0-7.18,0-10.77,0a4,4,0,0,0-2.25.46,2.78,2.78,0,0,0-.34,3c.66.89,1.63.74,2.53.76,1.9,0,3.82.08,5.72,0a3.17,3.17,0,0,1,3.4,2.25,61.94,61.94,0,0,1,3.32,10.08,63.93,63.93,0,0,1,1.23,21.09,37.81,37.81,0,0,1-1.58,8.71,4.27,4.27,0,0,1-2-1.77,40.63,40.63,0,0,0-4.27-4.43c-1.56-1.44-2.36-1.25-3,.8C132,197,131,200,130,202.92c-1.46,4.24-3.17,8.38-4.4,12.7-2.6-7.34-5.35-14.62-7.6-22.08-.54-1.77-1.14-1.89-2.55-.73-1.81,1.5-3.09,3.5-4.76,5.13-.48.47-.88,1.34-1.67,1.06s-.49-1.1-.63-1.7a65.06,65.06,0,0,1-1.24-16.06,58.21,58.21,0,0,1,4.91-22.05,2.78,2.78,0,0,1,3-1.87c2.12,0,4.24,0,6.36,0,.89,0,1.87.12,2.48-.81a2.66,2.66,0,0,0-.42-3,62.42,62.42,0,0,0-15.21-.12c-.13,0-.24.15-.36.22a32.28,32.28,0,0,0-2.63,5.77c-5.19,13.72-5.48,27.77-2.73,42A63.41,63.41,0,0,0,106,213.54c2.36-4.31,4.36-8.49,7.86-11.94.3.82.52,1.33.68,1.85,3.07,10.08,6.55,20,10.26,29.87a2.07,2.07,0,0,0,.92,1.28c2.78-6.41,4.89-13.08,7.17-19.68,1.52-4.4,2.9-8.84,4.4-13.46,3.37,3.59,5.55,7.7,7.72,11.83.74-.52.78-1.29,1-1.94C150,198.69,151.44,185.78,149.36,172.6Z"/><path class="cls-6" d="M125.69,39.22l-17.76,0A151.77,151.77,0,0,1,124.16,14c.41-.51.61-1.41,1.58-1.26a7.94,7.94,0,0,1,.65,3.3c0,6.73,0,13.46,0,20.19C126.37,37.24,126.49,38.34,125.69,39.22Z"/><path class="cls-3" d="M125.69,39.22q0-13.26,0-26.52c5.81,6.55,10.4,14,14.75,21.52.94,1.63,1.74,3.35,2.6,5Z"/><path class="cls-8" d="M102.78,150.37a140,140,0,0,1-6.9-21.76c-1.33-6.2-2.53-12.42-2.45-18.81a8.67,8.67,0,0,0-.42-2.27l.82-.52a143.83,143.83,0,0,0,4.28,19.36,117.19,117.19,0,0,0,7.23,18.44c.38.49,1,.94.36,1.64C104.55,147.63,104.12,149.34,102.78,150.37Z"/><path class="cls-9" d="M146,144.38A122.52,122.52,0,0,0,157.13,107l.82.45a114,114,0,0,1-4.8,29.1c-1.4,4.67-3.09,9.23-4.94,13.74-1.19-1.09-1.77-2.59-2.71-3.85a1.58,1.58,0,0,1,.1-1.65A2.62,2.62,0,0,1,146,144.38Z"/><path class="cls-10" d="M105.7,146.45l-.36-1.64h18.15a5.79,5.79,0,0,1,.17,5.67,2.51,2.51,0,0,1-1.58.51c-4.14.1-8.28.09-12.43,0a2.34,2.34,0,0,1-1.74-.62C107.11,149.1,106.78,147.56,105.7,146.45Z"/><path class="cls-11" d="M145.88,144.82c-.12.54-.25,1.09-.38,1.63-1.31,1-1.49,2.66-2.39,3.9a3.67,3.67,0,0,1-2.6.69c-3.32,0-6.65,0-10,0-2.92,0-3.32-.46-3.32-3.34a5.09,5.09,0,0,1,.43-2.9,3.68,3.68,0,0,1,2.59-.64c4.35,0,8.7,0,13,0A4,4,0,0,1,145.88,144.82Z"/><path class="cls-12" d="M127.88,144.79c-.26,5.56-.26,5.56,5.12,5.56h10.11v3.24l-15.38.06c-1.07-.59-1-1.65-1-2.62q-.08-20.53,0-41.07c0-.9-.1-1.89.83-2.5l.31.34a14.07,14.07,0,0,1,.65,4.6c0,9.71,0,19.42,0,29.13C128.49,142.64,128.67,143.82,127.88,144.79Z"/><path class="cls-13" d="M107.91,150.37l15.59,0a2.34,2.34,0,0,1,0,3.3l-15.61,0C107.9,152.54,107.91,151.46,107.91,150.37Z"/><path class="cls-14" d="M123.5,153.65v-3.3c0-1.85,0-3.7,0-5.55,0-11.92.11-23.83,0-35.75,0-1.87.6-2.33,2.2-2.19l0,.15a3.57,3.57,0,0,1,.7,2.8q0,30,0,60a4.2,4.2,0,0,1-.56,2.66c-2,.75-2.76.36-2.85-1.75-.16-3.46-.13-6.91,0-10.37,0-1.22-.26-2.49.55-3.59Z"/><path class="cls-15" d="M125.7,86.1c-9.34-.69-15.44-6.88-15.36-15.58a15.17,15.17,0,0,1,13.89-15l1.48-.13,0,.15c.83,1.12.49,2-.58,2.69a3.57,3.57,0,0,1-1,.3,11.42,11.42,0,0,0-5.44,2,12.22,12.22,0,0,0-4.22,15.38,12.39,12.39,0,0,0,9.26,7c.75.13,1.57,0,2.14.71a1.79,1.79,0,0,1-.22,2.27Z"/><path class="cls-16" d="M127.88,144.79q0-18.49,0-37c3.13,5.3,5.36,11,8.15,16.52,3.05,6,5.8,12.11,8.7,18.16.33.69.52,1.49,1.28,1.9,0,.14-.07.29-.1.44Z"/><path class="cls-17" d="M125.71,172.43q0-32.72,0-65.42c.67,0,1.41-.38,1.88.45q0,22.58,0,45.16a5.21,5.21,0,0,0,.2,1c0,1,0,2.06,0,3.08.86.94.59,2.07.51,3.16a4.52,4.52,0,0,1-.16.73c-.31,2.92-.06,5.85-.15,8.78a7.28,7.28,0,0,1-.28,2.89,1.26,1.26,0,0,1-1.7.41Z"/><path class="cls-18" d="M124.84,57.89c1-.54.86-1.49.83-2.39a15.1,15.1,0,0,1,15.11,14.82A15.27,15.27,0,0,1,126.7,86a6.32,6.32,0,0,1-1-.1l.06-2.32.19-.24a4.56,4.56,0,0,1,1.77-.43,12.39,12.39,0,0,0,4.7-2c4.53-3.25,6.39-8.17,5-13.33-1.41-5.4-5.49-8.59-11.78-9.2A1.09,1.09,0,0,1,124.84,57.89Z"/><path class="cls-19" d="M123.49,156.75v3.41c-1.26,1-2.73.45-4.1.55a2.4,2.4,0,0,0-2.41,1.36c-3.52,8.05-3.92,16.37-2.31,25.14,1.18-.76,1.57-1.87,2.27-2.69,1.41-1.63,2.2-1.56,2.94.5a104.14,104.14,0,0,0,4.86,11.53,21.56,21.56,0,0,1,1.43,2.84c.16,5.52.75,11.05-.46,16.53l0,.82a238.25,238.25,0,0,1-8-22.47c-.2-.6-.34-1.22-.57-2a18.71,18.71,0,0,0-4,4,42.13,42.13,0,0,1-3.48,3.7c-.72.77-1.14.64-1.31-.46-.52-3.33-1.39-6.63-1.6-10-.66-10.78.64-21.27,5.12-31.22a2.26,2.26,0,0,1,2.41-1.57C117.28,156.79,120.39,156.75,123.49,156.75Z"/><path class="cls-20" d="M125.7,215.92q0-8.52,0-17v-.33c1.68-4.82,4.18-9.29,5.78-14.14.43-1.31,1.34-1.33,2.27-.42s1.44,2.23,2.59,3.37a39.74,39.74,0,0,0,1-12,40.54,40.54,0,0,0-2.57-11.79c-1.06-2.64-1.36-2.85-4.2-2.92-1,0-2,.24-2.81-.59,0-1.13,0-2.26,0-3.39,3,0,5.94.05,8.9,0a2.31,2.31,0,0,1,2.5,1.45,54.58,54.58,0,0,1,4.77,16.38,62.49,62.49,0,0,1,.79,8.6A69.52,69.52,0,0,1,142.45,201c-2.33-2.47-4.51-4.83-6.74-7.14-1.62-1.67-1.72-1.67-2.37.62-1.91,6.73-4.49,13.23-6.76,19.83A3.2,3.2,0,0,1,125.7,215.92Z"/><path class="cls-21" d="M125.69,198.89c-2.29-2.6-3.17-5.94-4.59-9-.77-1.66-1.25-3.45-1.87-5.18-.33-.9-.71-1.44-1.49-.28-.94,1.39-2,2.72-3.09,4.23a11.48,11.48,0,0,1-1.18-5,42.63,42.63,0,0,1,3-22.14,2,2,0,0,1,2.09-1.4c1.63.07,3.26,0,4.88,0,0,3.4.15,6.79,0,10.18,0,1.71.31,2.59,2.18,2.09l0,.13a3.62,3.62,0,0,1,.71,2.8c0,6.6,0,13.19,0,19.78a10.16,10.16,0,0,1-.69,3.74Z"/><path class="cls-22" d="M125.71,83.58C119.5,83.25,115,80,113.32,74.51A12.8,12.8,0,0,1,118,60.39a3.12,3.12,0,0,1,.55-.27c1.06-.08,1.24.79,1.5,1.48,2,5.36,4.12,10.68,6.06,16.07a5.7,5.7,0,0,1,.18,1.42c-.17,1.46.49,3-.61,4.36Z"/><path class="cls-23" d="M125.68,77.57c-2.3-5-4-10.34-6.05-15.49-.28-.69-.25-1.58-1.1-2A9.1,9.1,0,0,1,124,58.06c1.27,1.21,1.51,2.92,2.14,4.45a4.1,4.1,0,0,1,.14,1.1c.1,3.73.12,7.46.08,11.18C126.34,75.76,126.47,76.79,125.68,77.57Z"/><path class="cls-24" d="M125.68,62.23A15.75,15.75,0,0,1,124,58.06l.85-.17.84.12A3.59,3.59,0,0,1,125.68,62.23Z"/><path class="cls-25" d="M125.69,198.88l0-26.32,1.72-.07c.52-2.93.08-5.88.23-8.81a13.69,13.69,0,0,1,.18-3.56h0a22.56,22.56,0,0,0,3.39,0c2-.3,3.09.61,3.81,2.42a41.06,41.06,0,0,1,1.94,24.87c-.08.33-.24.63-.41,1.1-1.3-1-1.78-2.45-2.69-3.57-.39-.49-.61-1.27-1.34-1.16s-.59.91-.75,1.4A119.88,119.88,0,0,1,126.3,198,5.44,5.44,0,0,1,125.69,198.88Z"/><path class="cls-20" d="M127.79,160.12c0,3.61,0,7.22,0,10.83,0,.55.15,1.16-.45,1.54,0-3.38.05-6.75.11-10.13C127.5,161.61,127.26,160.81,127.79,160.12Z"/><path class="cls-26" d="M125.68,62.23V58a12.7,12.7,0,0,1,6.81,23.4c-1.4-2.06-2-4.49-2.85-6.77-1.47-3.79-3.18-7.51-3.95-11.55Z"/><path class="cls-27" d="M125.69,63.09c2.41,6.06,5,12,6.8,18.32a8.86,8.86,0,0,1-4.71,1.93c-1.75-1-1.36-3-2.07-4.5l0-1.27Q125.68,70.34,125.69,63.09Z"/><path class="cls-28" d="M125.71,78.84c1.12,1.3,1.22,3.07,2.07,4.5l-2.12.11C125.68,81.91,125.69,80.37,125.71,78.84Z"/></svg>