<svg id="Layer_54" data-name="Layer 54" xmlns="http://www.w3.org/2000/svg" viewBox="0 0 256 256"><defs><style>.cls-1{opacity:0.5;}.cls-2{fill:#fff;}.cls-3{fill:#ff0043;stroke:#700000;stroke-miterlimit:10;stroke-width:2px;}</style></defs><g class="cls-1"><path d="M129.36,254.21a26.2,26.2,0,0,1,.11-52.4h.35A25.18,25.18,0,0,1,148,209.53a26.18,26.18,0,0,1-18.53,44.68Z"/><path d="M121.15,195.26a15.61,15.61,0,0,1-15.6-15.6v-10.3A74.64,74.64,0,0,1,107,152.7a48.6,48.6,0,0,1,4.78-13,1,1,0,0,1,.08-.14,50.7,50.7,0,0,1,8.5-11.06c2.63-2.69,5.79-5.7,9.44-9.19l1.74-1.66c3.25-3.08,6.91-6.53,10.45-10a103,103,0,0,0,8.86-9.78,48,48,0,0,0,6-9.77,24,24,0,0,0,2-10v-.17a26,26,0,0,0-2.1-10.53A27.28,27.28,0,0,0,151.2,59a24.6,24.6,0,0,0-8.15-5.34,28.17,28.17,0,0,0-10.44-2c-8.6,0-15,2.42-20.06,7.61a33.33,33.33,0,0,0-8.62,15.94,17.1,17.1,0,0,1-5.88,10,14.36,14.36,0,0,1-9.12,2.76,20.21,20.21,0,0,1-3-.17L66.85,85.92c-1.64-.07-7.42-.63-10.87-5.23-3.64-4.86-2.85-10.6-2.34-12.85,4-17.55,12.52-31.94,25.45-42.77,14.65-12.13,32.84-18.28,54.1-18.28h.57a89.12,89.12,0,0,1,28,4.56,71.52,71.52,0,0,1,23.8,13.52A62.56,62.56,0,0,1,201.83,47a73.69,73.69,0,0,1,6,29.25,69.62,69.62,0,0,1-4.21,25.11,76.12,76.12,0,0,1-11.54,19.89l-.37.42-19.91,20.61-.28.28-3.37,3c-3.28,3.1-5.94,5.75-7.9,7.89a23.06,23.06,0,0,0-3.54,5.21,19.08,19.08,0,0,0-1.69,5.77,73.08,73.08,0,0,0-.6,10.32v4.87a15.62,15.62,0,0,1-15.6,15.6Z"/></g><path class="cls-2" d="M124.36,249.21a26.2,26.2,0,0,1,.11-52.4h.35A25.18,25.18,0,0,1,143,204.53a26.18,26.18,0,0,1-18.53,44.68Z"/><path class="cls-2" d="M116.15,190.26a15.61,15.61,0,0,1-15.6-15.6v-10.3A74.64,74.64,0,0,1,102,147.7a48.6,48.6,0,0,1,4.78-13,1,1,0,0,1,.08-.14,50.7,50.7,0,0,1,8.5-11.06c2.63-2.69,5.79-5.7,9.44-9.19l1.74-1.66c3.25-3.08,6.91-6.53,10.45-10a103,103,0,0,0,8.86-9.78,48,48,0,0,0,6-9.77,24,24,0,0,0,2-10v-.17a26,26,0,0,0-2.1-10.53A27.28,27.28,0,0,0,146.2,54a24.6,24.6,0,0,0-8.15-5.34,28.17,28.17,0,0,0-10.44-2c-8.6,0-15,2.42-20.06,7.61A33.33,33.33,0,0,0,98.93,70.2a17.1,17.1,0,0,1-5.88,10,14.36,14.36,0,0,1-9.12,2.76,20.21,20.21,0,0,1-3-.17L61.85,80.92c-1.64-.07-7.42-.63-10.87-5.23-3.64-4.86-2.85-10.6-2.34-12.85,4-17.55,12.52-31.94,25.45-42.77C88.74,7.94,106.93,1.79,128.19,1.79h.57a89.12,89.12,0,0,1,28,4.56,71.52,71.52,0,0,1,23.8,13.52A62.56,62.56,0,0,1,196.83,42a73.69,73.69,0,0,1,6,29.25,69.62,69.62,0,0,1-4.21,25.11,76.12,76.12,0,0,1-11.54,19.89l-.37.42-19.91,20.61-.28.28-3.37,3c-3.28,3.1-5.94,5.75-7.9,7.89a23.06,23.06,0,0,0-3.54,5.21,19.08,19.08,0,0,0-1.69,5.77,73.08,73.08,0,0,0-.6,10.32v4.87a15.62,15.62,0,0,1-15.6,15.6Z"/><path class="cls-3" d="M124.59,202.81a20.25,20.25,0,1,0,14.17,5.93A19.33,19.33,0,0,0,124.59,202.81Z"/><path class="cls-3" d="M191.33,44.39a56.74,56.74,0,0,0-14.69-20,65.76,65.76,0,0,0-21.77-12.37,83.15,83.15,0,0,0-26.68-4.26c-19.84,0-36.72,5.67-50.25,16.88-11.85,9.93-19.78,23.2-23.45,39.5-.32,1.41-.84,5.09,1.29,7.92,1.93,2.58,5.73,2.84,6.44,2.84l19.46,1.86a13.42,13.42,0,0,0,2.25.13,8.55,8.55,0,0,0,5.41-1.48,11.17,11.17,0,0,0,3.74-6.57,39.34,39.34,0,0,1,10.18-18.81c6.25-6.38,14.17-9.41,24.35-9.41a34.51,34.51,0,0,1,12.7,2.45,30.67,30.67,0,0,1,10.17,6.7A33.1,33.1,0,0,1,157.31,60,32,32,0,0,1,159.89,73a30,30,0,0,1-2.58,12.57,53.31,53.31,0,0,1-6.76,11,108.47,108.47,0,0,1-9.34,10.31c-3.48,3.42-7,6.77-10.5,10.05-4.45,4.25-8.12,7.73-11.09,10.76a44.81,44.81,0,0,0-7.53,9.79,42.42,42.42,0,0,0-4.19,11.41,68.79,68.79,0,0,0-1.35,15.4v10.37a9.62,9.62,0,0,0,9.6,9.6H133.8a9.63,9.63,0,0,0,9.6-9.6v-4.77a79.43,79.43,0,0,1,.64-11.14,24.88,24.88,0,0,1,2.26-7.67,28.52,28.52,0,0,1,4.51-6.64c2.06-2.25,4.83-5,8.24-8.24l3.42-3.1,19.91-20.61A70.63,70.63,0,0,0,193,94.19a63.8,63.8,0,0,0,3.8-22.87A67.67,67.67,0,0,0,191.33,44.39Z"/></svg>