<svg id="Layer_54" data-name="Layer 54" xmlns="http://www.w3.org/2000/svg" viewBox="0 0 256 256"><defs><style>.cls-1{opacity:0.5;}.cls-2{fill:#fff;}.cls-3{fill:#ff7900;}.cls-3,.cls-8,.cls-9{stroke:#722e00;stroke-miterlimit:10;stroke-width:2px;}.cls-4{fill:#ea6b03;}.cls-5{fill:#c65500;}.cls-6{fill:#584a27;}.cls-7{fill:#7f7a41;}.cls-8{fill:#db5a03;}.cls-17,.cls-9{fill:#fff3bf;}.cls-10{fill:#fe8d03;}.cls-11{fill:#fe9a01;}.cls-12{fill:#ffad01;}.cls-13{fill:#febc0f;}.cls-14{fill:#f79a01;}.cls-15{fill:#fed18e;}.cls-16{fill:#ffd67a;}</style></defs><path class="cls-1" d="M82,208.5a33.53,33.53,0,0,1-4.84-.34l-1.79-.07-.6,0a9.18,9.18,0,0,1-2.42-.32A40.13,40.13,0,0,1,63.13,206l-.83-.23A25.25,25.25,0,0,1,56.6,204a7.9,7.9,0,0,1-1.68-.62,11.66,11.66,0,0,1-2.76-1.19,38.61,38.61,0,0,1-7.39-3.78,33.7,33.7,0,0,1-5.76-3.7A31.57,31.57,0,0,1,34.19,191a17.38,17.38,0,0,1-2.77-2.44,19.6,19.6,0,0,1-2.74-2.73,22.19,22.19,0,0,1-3.29-3.73A75.38,75.38,0,0,1,9.94,152.63a82.29,82.29,0,0,1-2.3-11.12l-.81-.27V121.17l.29-.9a22.23,22.23,0,0,0,.68-3.77c.15-1.22.31-2.49.6-3.84a75.71,75.71,0,0,1,5.78-17.74,21.81,21.81,0,0,1,2.45-4.87,63,63,0,0,1,12.93-17A67.16,67.16,0,0,1,51.71,58.25a74.64,74.64,0,0,1,21.53-5.58l0-.73H90.34l0,.75a73.08,73.08,0,0,1,42.33,19A68.16,68.16,0,0,1,148.42,93c.13.23.24.47.35.71a74.81,74.81,0,0,1,7.15,23.82,89.47,89.47,0,0,1,.71,16.9,124,124,0,0,1,12.9-3.51l3.46-.82a24.08,24.08,0,0,0,8.42-3.5c4.94-3.44,10.32-5.24,15.4-6.79,1.54-.47,3.12-1.1,4.79-1.77,1.27-.51,2.58-1,4-1.51s2.8-.85,4.13-1.19q.76-.18,1.53-.39l1.77-.52c1.53-.47,3.11-.94,4.83-1.3a13.86,13.86,0,0,0,5.49-2.62l.07,0,0,0a9.18,9.18,0,0,1,3.78-2.59,7.58,7.58,0,0,1,4-1.12,7.73,7.73,0,0,1,1,.06,9.24,9.24,0,0,1,4-2.77,10.94,10.94,0,0,1,5-1h.82a7.66,7.66,0,0,1,7.32,5.69c1,3.2,1.86,6,2.49,8.81a12.82,12.82,0,0,1,.89,3.9,8.77,8.77,0,0,1,.5,3l.48,2.78.14,1.88a9.09,9.09,0,0,1,.37,3.71v.81l.07,1.91a13.58,13.58,0,0,1,0,5.5l-.07,2.61a8.79,8.79,0,0,1-.26,3.25,9.9,9.9,0,0,1-.33,1.83,10.58,10.58,0,0,1-.42,3.24,8.2,8.2,0,0,1-.45,2.18,10.21,10.21,0,0,1-.48,1.93l0,.09a9.55,9.55,0,0,1-.53,2,7.58,7.58,0,0,1-.58,1.86c-.08.26-.17.51-.28.78a9.18,9.18,0,0,1-1.19,3l-.36.82a7.54,7.54,0,0,1-1.49,3.34l-.64,1.21a9.18,9.18,0,0,1-1.93,3.68,63.32,63.32,0,0,1-4.77,6.84,8.09,8.09,0,0,1-2.25,2.72l-1.38,1.44a9,9,0,0,1-3.22,3.17c-.22.22-.44.44-.68.64a8,8,0,0,1-2.32,2.16,7.78,7.78,0,0,1-2.59,1.87,8.56,8.56,0,0,1-2.76,2.05l-1,.63a9.9,9.9,0,0,1-2.7,1.69l0,0a9.58,9.58,0,0,1-2.7,1.52l-.63.32a7.69,7.69,0,0,1-2.67,1.36l-.76.34a12.65,12.65,0,0,1-3.34,1.53l-1,.43-3,1.14a69.24,69.24,0,0,1-17.59,4.34,154,154,0,0,1-20.26,1.53c-.92,0-1.85,0-2.77,0-15.57-.42-27.87-2.71-38.71-7.22a42.94,42.94,0,0,1-6.07-3l-.36.17a42.38,42.38,0,0,1-11.06,5.08,44.72,44.72,0,0,1-10.4,3l-1.74.33-2,.43-.31,0c-.33,0-.66.1-1,.16a19.12,19.12,0,0,1-3,.36,9,9,0,0,1-2.16.25l-.72,0-2.2.09A40.42,40.42,0,0,1,82,208.5Z"/><path class="cls-2" d="M163.53,203.31c-17.72,0-34-3.4-45.1-9.25a3.94,3.94,0,0,0-3.77.08c-11,6.07-23.9,9.15-38.45,9.15a72.61,72.61,0,0,1-52.88-22.52c-14-14.65-21.78-34.65-21.78-56.33a85.58,85.58,0,0,1,2.68-21.5c8.6-33.16,37.53-55.44,72-55.44,32.07,0,59.57,19.31,70.05,49.18a83.6,83.6,0,0,1,4.6,27.76v0a4,4,0,0,0,4.88,3.88l1.83-.43c1.7-.39,3.3-.76,4.78-1.25a49.79,49.79,0,0,1,5-1.26,22.36,22.36,0,0,0,5.58-1.67c1.2-.63,2.4-1.39,3.67-2.19a41.19,41.19,0,0,1,8.25-4.31c2.23-.81,4.42-1.53,6.65-2.17a37.17,37.17,0,0,0,5.42-2,37.41,37.41,0,0,1,6.36-2.13c.9-.22,1.76-.47,2.62-.71s2-.56,3-.81l.19-.05c1.95-.5,3.78-1,5.48-1.6a8.3,8.3,0,0,0,2.35-1.14l.5-.47,7.38-4.32a5.77,5.77,0,0,1,.56-.27l3.21-1.26a3.11,3.11,0,0,0,.52-.25,11,11,0,0,1,1.55-.73,13.9,13.9,0,0,1,3.83-.87q.64-.06,1.47-.06h5.74v0h0l1.48,4.42c7.14,20.7,7.21,40.52.17,57.26-7.45,17.73-22.51,30.93-43.55,38.16a72,72,0,0,1-15.28,3.44,138.47,138.47,0,0,1-21,1.61Z"/><path class="cls-3" d="M144.86,124.44c0,42-24.13,72.85-68.65,72.85-37.91,0-68.66-30.83-68.66-72.85a79.09,79.09,0,0,1,2.49-20c8-30.93,34.62-50.95,66.17-50.95,29.52,0,54.71,17.56,64.39,45.17A77.72,77.72,0,0,1,144.86,124.44Z"/><path class="cls-4" d="M140.13,98.63a64.81,64.81,0,0,0-3.76-8.74c0,.47,0,.94.07,1.41a17.34,17.34,0,0,0,.87,4.26c.36,1,1.09,1.7,1.52,2.64a3,3,0,0,1-.25,2.53,4.17,4.17,0,0,1-2.24,1.81c-1.16.54-2.32,1-2.61,2.42a18.32,18.32,0,0,0,.11,4.62,17.81,17.81,0,0,1-.39,3.65,19.43,19.43,0,0,1-.84,3.58,14.49,14.49,0,0,1-1.77,3.14,4.62,4.62,0,0,0-.79,3.08c.11,1.41.47,2.71.65,4.08a4,4,0,0,1-.65,2.93,4.31,4.31,0,0,1-2.64,1.77c-1.12.25-2.46.21-3.43.79-.4.22-.76.54-.58,1.09a6,6,0,0,1,.32.9,15,15,0,0,1-.1,1.77c.07,1.41.39,2.86-.18,4.19a8,8,0,0,1-2.57,2.78,6,6,0,0,0-2.2,3.29c-.19,1,0,2-.15,3a8.88,8.88,0,0,1-1.48,4c-1.7,2.53-4.23,4.26-6.18,6.57-.87,1.05-.69,2.57-1.45,3.69a2,2,0,0,1-1.3.9,3.83,3.83,0,0,0-2.09.55,21.35,21.35,0,0,0-1.88,1.8,2.76,2.76,0,0,1-1.34.73,15.73,15.73,0,0,1-3.43,0c-.94,0-2.28-.22-3.15.32A5.69,5.69,0,0,0,95,169.57a8.18,8.18,0,0,1-2.93,2.31c-2.57,1.16-5-.39-7.48-1a8.37,8.37,0,0,0-4.52-.11c-1.19.36-2.24,1.05-3.47,1.38a11.26,11.26,0,0,1-4.48,0,42.44,42.44,0,0,0-4.88-.58,15.78,15.78,0,0,1-4.33-.44c-1.2-.39-2.32-1-3.47-1.44a11.43,11.43,0,0,0-4.77-1.05,9.35,9.35,0,0,1-4.23-.58,3.77,3.77,0,0,1-1.52-1.15,7.41,7.41,0,0,1-.61-1.49c-.26-.75-.54-1.44-1.48-1.48-.62,0-1.2.22-1.77.18-1,0-2-1.15-2.39-2a17.82,17.82,0,0,1-.9-2.82A6,6,0,0,0,39.24,156a18.84,18.84,0,0,1-3-1.7c-2.1-1.84-1.3-4.74-1.23-7.19a4.91,4.91,0,0,0-1.3-3.94,11,11,0,0,0-3.65-1.77A7.05,7.05,0,0,1,27,139.22a10.14,10.14,0,0,1-1.67-3.84c-.32-1.44-.47-2.89-.75-4.33a7.5,7.5,0,0,0-1.38-3.83c-.76-.83-1.62-1.7-1.41-2.93.26-1.55,1.23-3,.94-4.59a7.18,7.18,0,0,0-1.55-2.82,5.41,5.41,0,0,1-1.09-3.18c0-2.67,3.26-4.88,1.78-7.59-.62-1.12-1.56-2.16-1.74-3.5a8.09,8.09,0,0,1,.29-4,23.54,23.54,0,0,1,1.84-3.65A14,14,0,0,0,24.13,91c.62-2.49-.36-5-1.05-7.3a17.22,17.22,0,0,1-.65-4,69.16,69.16,0,0,0-11.92,24.76A78.47,78.47,0,0,0,8.05,124.4c0,41.88,30.5,72.6,68.16,72.6,44.19,0,68.15-30.75,68.15-72.6A78.19,78.19,0,0,0,140.13,98.63Z"/><path class="cls-5" d="M144.36,124.29c0,41.74-24,72.35-68.15,72.35-37.62,0-68.16-30.65-68.16-72.35a79.57,79.57,0,0,1,2.46-19.84,29.49,29.49,0,0,0,.47,6.94c1.08,5.78,3.94,11.17,4.77,17,.72,5,0,10.05.79,15,1.09,6.18,4.59,11.64,8.06,16.88S31.9,171,37.83,173c2.42.8,5.06,1,7.3,2.17a25.1,25.1,0,0,1,4.7,4c6,5.71,14.34,8.71,22.65,9.14s16.63-1.48,24.32-4.58a35.05,35.05,0,0,1,6.87-2.35c1.84-.33,3.76-.33,5.6-.76,4.88-1.19,8.35-5.57,10.55-10.08s3.58-9.47,6.25-13.7c2.35-3.72,5.68-6.79,7.74-10.7s2.74-8.71,3.29-13.26c.75-6,1.48-12,2.24-18,.61-5,1.26-10,.86-15.07,0-.36-.07-.76-.11-1.12A76.19,76.19,0,0,1,144.36,124.29Z"/><path class="cls-6" d="M112.27,115.94a3.83,3.83,0,0,1,1.91,1.23c.51.72.44,1.74.87,2.5a2.87,2.87,0,0,0,2.89,1.22,4.22,4.22,0,0,0,3.65-3.21c.07-.44.11-.87.22-1.3a5.7,5.7,0,0,1,.61-1.27,12.31,12.31,0,0,1,1.2-1.48,2.77,2.77,0,0,0,.5-.61,1.79,1.79,0,0,0-1.26-3c-.87-.15-1.7-.26-2.53-.4a1,1,0,0,1-1-.83c-.18-.62-.32-1.23-.54-1.81a2.74,2.74,0,0,0-1.23-1.41,3.51,3.51,0,0,0-1.37-.21,2.27,2.27,0,0,0-1.74.5,2.89,2.89,0,0,0-.47,1.63,3.83,3.83,0,0,1-1,2.53,8.85,8.85,0,0,1-1.66,1,2.65,2.65,0,0,0-1.34,1.34,2,2,0,0,0,.54,1.87,8.46,8.46,0,0,0,1.74,1.7"/><path class="cls-7" d="M122.86,111.21a3.65,3.65,0,0,0-2.79-1c-.61,0-1.4,0-1.69-.58a1.55,1.55,0,0,1-.11-.83,3.27,3.27,0,0,0-.51-2,1.68,1.68,0,0,0-1.77-.73c-.9.29-1.23,1.41-1.37,2.35s-.44,2.06-1.34,2.39c-.36.14-.79.07-1.19.21a2.38,2.38,0,0,0-1.23,2.72,2.65,2.65,0,0,0,2.17,1.73,4.61,4.61,0,0,1,1.84.4c1.19.76.69,2.78,1.74,3.72a2.19,2.19,0,0,0,2,.32,3.41,3.41,0,0,0,2.35-3.18c0-.86-.29-2,.43-2.49a9.88,9.88,0,0,1,1.12-.4A1.78,1.78,0,0,0,122.86,111.21Z"/><path class="cls-6" d="M120.22,113.2a1.6,1.6,0,0,0-.25-1.09,2.3,2.3,0,0,0-.65-.5l-.73-.4a4.69,4.69,0,0,0-1.7-.61h-.46a2.43,2.43,0,0,0-1.09.65,2,2,0,0,0-.47.75,3.56,3.56,0,0,0-.18.58,2.42,2.42,0,0,0,0,.76,2.46,2.46,0,0,0,.39,1.16,1.92,1.92,0,0,0,.76.54,3.35,3.35,0,0,0,2.1.47,2.56,2.56,0,0,0,.72-.25,3.92,3.92,0,0,0,.54-.33,2.47,2.47,0,0,0,.55-.65A3.54,3.54,0,0,0,120.22,113.2Z"/><path class="cls-7" d="M119.28,113.16a1,1,0,0,0-.18-.79,1.61,1.61,0,0,0-.47-.37l-.51-.28a2.81,2.81,0,0,0-1.19-.44h-.32c-.22,0-.62.33-.8.51a2.3,2.3,0,0,0-.36.58,2.19,2.19,0,0,0-.15.43,3.25,3.25,0,0,0,0,.54,1.54,1.54,0,0,0,.29.87,1.13,1.13,0,0,0,.55.36,2.45,2.45,0,0,0,1.48.33,1.76,1.76,0,0,0,.54-.22,3.68,3.68,0,0,0,.4-.25,2.76,2.76,0,0,0,.39-.51A1.56,1.56,0,0,0,119.28,113.16Z"/><path class="cls-8" d="M113.14,149.55s-11.71,24.68,2.89,35.92,49.07,15.76,79.32,7.88-10.66-47.63-10.66-47.63Z"/><path class="cls-9" d="M235,104.42c-1.92.18-3.55.68-4.38,2.53-.36.83-.72,1.87-1.7,2.13-1.15.29-2.09-1.09-3.28-.87-1.88.36-3.26,1.63-4.63,2.85a12.62,12.62,0,0,1-4.34,2.35,55.73,55.73,0,0,1-6.32,1.85c-1.88.47-3.69,1.08-5.56,1.55a33.88,33.88,0,0,0-5.35,1.77,48.74,48.74,0,0,1-6.25,2.39c-2.14.61-4.23,1.3-6.33,2.06-4,1.41-7.37,4.19-11.09,6.18s-7.7,2.09-11.53,3.36-8.13,1.77-12,3.28a31.67,31.67,0,0,1-5.06,1.92,32,32,0,0,0-5.71,1.48c-1.88.76-3.54,1.88-5.38,2.68s-4.12,1.19-6.07,2.06-3.94,1.66-5.89,2.52c-1,.44-2,.91-3,1.27-.54.18-1.3.61-1.88.43a13.8,13.8,0,0,0-2.42-.83,3.41,3.41,0,0,0-2.31,1c-.43.37-.9.76-1.34,1.2,13.73,37,50.74,54.67,84.71,43,40.54-14,52.83-49.62,39.64-87.85l-.11-.32A15.74,15.74,0,0,0,235,104.42Z"/><path class="cls-10" d="M220.93,111.06a12.92,12.92,0,0,1-4.3,2.32,64.42,64.42,0,0,1-6.29,1.84c-1.87.47-3.68,1-5.56,1.52a30.77,30.77,0,0,0-5.35,1.77,44,44,0,0,1-6.25,2.35c-2.13.61-4.23,1.3-6.32,2.06-4,1.41-7.38,4.19-11.1,6.14s-7.7,2.1-11.53,3.33-8.13,1.77-12,3.28a28.29,28.29,0,0,1-5.06,1.88,31.54,31.54,0,0,0-5.71,1.48c-1.88.76-3.54,1.88-5.39,2.68s-4.12,1.16-6.07,2c-1.26.58-2.56,1.09-3.86,1.66,11.09,28.88,40.25,42.61,67.07,33.43,32.19-11.06,42-39.32,31.51-69.6-.08-.25-.18-.47-.26-.72A14,14,0,0,0,220.93,111.06Z"/><path class="cls-11" d="M220.93,111.06a12.92,12.92,0,0,1-4.3,2.32,64.42,64.42,0,0,1-6.29,1.84c-1.87.47-3.68,1-5.56,1.52a30.77,30.77,0,0,0-5.35,1.77,44,44,0,0,1-6.25,2.35c-2.13.61-4.23,1.3-6.32,2.06-4,1.41-7.38,4.19-11.1,6.14s-7.7,2.1-11.53,3.33-8.13,1.77-12,3.28a28.29,28.29,0,0,1-5.06,1.88,31.54,31.54,0,0,0-5.71,1.48c-1.88.76-3.54,1.88-5.39,2.68s-4.12,1.16-6.07,2c-.29.11-.54.26-.83.36,10.37,27.18,37.76,40.08,62.92,31.44,30.17-10.37,39.31-36.78,29.55-65.15C221.4,110.63,221.15,110.85,220.93,111.06Z"/><path class="cls-12" d="M137.67,142c.26.62.55,1.23.83,1.84a8.14,8.14,0,0,0,.84,1.45c.47.61.9,1.26,1.41,1.88a2.36,2.36,0,0,0,2.05.94c.66-.07,1.23-.43,1.88-.25a3.54,3.54,0,0,0,1.59.32.74.74,0,0,1,.69.25,6.85,6.85,0,0,1,1.74,1.74c.46.83.79,1.73,1.3,2.53a22.62,22.62,0,0,0,2.16,2.64c1.67,1.91,3.4,3.75,5.17,5.6.44.43.87.9,1.3,1.33.07.11.33-.18.4-.25l.43-.32a2.21,2.21,0,0,1,1.52-.33c1.16.22,2.06,1.23,2.89,1.95a7.62,7.62,0,0,0,1.66,1.16,4.51,4.51,0,0,0,2.86.07,15.5,15.5,0,0,1,2.85-.58,6.81,6.81,0,0,1,2.79.47,16.75,16.75,0,0,0,2.82,1.09,7.83,7.83,0,0,0,2.27,0,24.69,24.69,0,0,0,2.46-.36c.61-.11,1.19-.29,1.77-.4.94-.14,2-.07,2.71-.75,1.23-1.16,2.28-2.57,3.79-3.37a2.23,2.23,0,0,1,2.5.08,5.27,5.27,0,0,0,3,1.12,2.53,2.53,0,0,0,1.16-.18,4.07,4.07,0,0,0,.58-.51c.54-.54,1-1.16,1.55-1.7a10.08,10.08,0,0,1,1.7-1.55,5.32,5.32,0,0,1,2.1-.83c.65-.15,1.33-.11,2-.22a3.45,3.45,0,0,0,1.95-1.16,6.51,6.51,0,0,0,1.41-2.42c.33-1,.58-2,.9-3a8.25,8.25,0,0,1,1.16-2.27c.58-.83,1.23-1.59,1.84-2.35a24.87,24.87,0,0,0,1.88-2.57,17.79,17.79,0,0,0,1.09-2.24,13.12,13.12,0,0,0,1-4.66,2.38,2.38,0,0,0-.65-2,7.16,7.16,0,0,0-2-.83c-.14-.08-.36-.15-.43-.29-.18-.47-.47-.87-.65-1.34a5.49,5.49,0,0,1-.4-2.28,10.5,10.5,0,0,1,.44-2.09,15.8,15.8,0,0,0,.57-2.57,2.8,2.8,0,0,1-2.09.15,3.38,3.38,0,0,1-1.56-1.52,15.49,15.49,0,0,1-1.4-5.82c0-.51-.08-1-.11-1.48l-2.71.76a30.22,30.22,0,0,0-5.35,1.77,44,44,0,0,1-6.25,2.35c-2.14.61-4.23,1.3-6.33,2.06-4,1.41-7.37,4.19-11.09,6.14s-7.7,2.1-11.53,3.32-8.13,1.77-12,3.29a27.91,27.91,0,0,1-5,1.88,31.54,31.54,0,0,0-5.71,1.48c-1.45.58-2.75,1.38-4.12,2.06A2.88,2.88,0,0,1,137.67,142Z"/><path class="cls-13" d="M234.92,104.45c-1.7.18-3.15.58-4,1.92a22.77,22.77,0,0,1,.94,3.39c.36,1.88.54,3.76.83,5.68a37.1,37.1,0,0,0,1.23,5.56c.43,1.56.87,3.11,1.19,4.66a31.37,31.37,0,0,1,.65,9.22,20.23,20.23,0,0,1-.9,4.44,34.22,34.22,0,0,0-1.74,4.85c-.28,1.62-.25,3.28-.47,4.91a16.65,16.65,0,0,1-1.3,4.77,22.64,22.64,0,0,1-2.24,3.87,15.33,15.33,0,0,0-2.31,3.86c-.33,1-.47,2.1-.83,3.11a5.34,5.34,0,0,1-1.88,2.57c-.69.54-1.48.94-2.2,1.44a22,22,0,0,0-2,1.63c-1.15,1.12-2.2,2.35-3.36,3.5a24.43,24.43,0,0,1-3.9,3.11c-1.52,1.05-3,2.13-4.62,3.07s-3.22,1.59-4.77,2.42-3.18,1.85-4.85,2.71a18.51,18.51,0,0,1-4.8,1.85,16.69,16.69,0,0,1-5,0,22.55,22.55,0,0,0-3.07-.15,23.09,23.09,0,0,0-2.78.51,17,17,0,0,1-4.88.58c-3-.18-5.46-1.81-8.24-2.6a11.66,11.66,0,0,0-4.74-.4,27.43,27.43,0,0,1-4.51.43,10.87,10.87,0,0,1-4.52-1.41c-.79-.43-1.55-.94-2.35-1.37s-1.59-.8-2.31-1.27a45.13,45.13,0,0,1-4.05-3,26.48,26.48,0,0,0-4.55-2.89,21.23,21.23,0,0,1-7.12-6.18,43,43,0,0,1-3.11-4.08,52.45,52.45,0,0,1-2.46-4.77,20,20,0,0,0-3.65-4.77,30.58,30.58,0,0,1-3.21-4.23,37.12,37.12,0,0,1-2.06-3.76,2.64,2.64,0,0,1-1.7.36,14.09,14.09,0,0,0-2.42-.83,3.4,3.4,0,0,0-2.31,1,16.28,16.28,0,0,0-1.34,1.2c13.69,36.86,50.7,54.49,84.63,42.82,40.51-13.91,52.8-49.44,39.64-87.53l-.11-.32C236.51,104.38,235.68,104.38,234.92,104.45Z"/><path class="cls-14" d="M234.92,104.45a9.33,9.33,0,0,0-1.85.36,1.36,1.36,0,0,1,.18.94A11.62,11.62,0,0,0,233,107a1.32,1.32,0,0,0,.54,1.23l.43.33c.11.07.25.57.33.72a2.11,2.11,0,0,1,.36,1.26,2.35,2.35,0,0,1-.25.83c-.22.47.21.4.54.58,1.05.54.76,1.56.47,2.5-.51,1.77,0,3.36.61,5a38.61,38.61,0,0,1,1.48,5.71,5.66,5.66,0,0,1,.08,2.46,4.12,4.12,0,0,0-.22,1.33,2,2,0,0,0,.65,1.27c.9,1,.32,2.49-.07,3.61a7.16,7.16,0,0,0-.8,3c.07.87.36,1.74.36,2.61a5.85,5.85,0,0,1-.61,2.34,7.62,7.62,0,0,0-.76,1.7,3.34,3.34,0,0,0,.32,2.35c.22.44.47.83.66,1.3a2.69,2.69,0,0,1-.76,2.82s.07.11,0,.15a3.75,3.75,0,0,0-2.46,2.81,32.79,32.79,0,0,1-.72,3.33c-.62,1.84-.87,3.9-2.42,5.28-.47.43-1.27.9-1.52,1.51-.15.44-.22.87-.36,1.27a2.1,2.1,0,0,0-.18,1.08c.1.83.57,2.06-.4,2.57s-2.06.36-3,.79c-.69.29-.65,1.16-.94,1.74-.15.29-.58.36-.87.39a2.12,2.12,0,0,0-1.44.55,2.58,2.58,0,0,0-.33,1.08,1.71,1.71,0,0,1-.5,1.16c-.55.39-1.16.68-1.74,1a12.66,12.66,0,0,0-1.41,1.15c-.54.51-1.08,1-1.62,1.56a2.5,2.5,0,0,0-.91,1.22,3,3,0,0,1-.65,1.49,3.83,3.83,0,0,1-1.55.5c-1.74.33-3,1.63-4.45,2.46s-2.85.65-4.41.94a4.45,4.45,0,0,0-2.56,1.62c-.51.62-1,1.27-1.52,1.85a7.38,7.38,0,0,1-4.3,2.06c-1.77.25-3.58.18-5.38.43a11.68,11.68,0,0,0-3,.76,8.57,8.57,0,0,1-2.35.79,7.27,7.27,0,0,1-2.67-.18c-.94-.18-2.06-.57-3-.18a2.55,2.55,0,0,1-2,.26,11,11,0,0,1-1.37-1.05c-1.63-1.09-3.8.72-5.42,1.05a3.15,3.15,0,0,1-2.14-.22,20.5,20.5,0,0,0-1.88-1.19c-.83-.36-1.8.14-2.67.29a2.85,2.85,0,0,1-1.55-.22c-.47-.22-.91-.58-1.38-.76a2,2,0,0,0-2,.51s-.08,0-.11,0a8.91,8.91,0,0,0-5.13-4.12,16,16,0,0,1-4.59-1.56c-1.63-.94-3.62-1.41-5.1-2.56-1.19-.94-2.42-2.5-4.05-2.68,0,0,0,0,0-.07,0-1.08.11-2.93-.8-3.72s-2.82-.47-4-.36c0,0-.07,0-.07,0-.33-1.59-1.55-2.17-2.82-3a3.45,3.45,0,0,1-1.84-2.89c0-.51.18-1.27-.26-1.63a2.35,2.35,0,0,0-2.16-.4c-.73.29-1.49,1.09-2.28.65-1.16-.65-1.08-2-.76-3.07a4.78,4.78,0,0,0,.25-1.26,2.27,2.27,0,0,0-.68-1.38,4.56,4.56,0,0,1-1-1.26c-.66-1.26-.84-2.85-1.59-4.05a6,6,0,0,0-1.74-1.7,4.1,4.1,0,0,1-1.19-1,35.19,35.19,0,0,1-1.41-3.4,18.58,18.58,0,0,1-1.12-3.11h0a3.41,3.41,0,0,0-2.31,1c-.43.36-.9.76-1.34,1.2,13.7,36.86,50.67,54.45,84.63,42.82,40.51-13.91,52.8-49.44,39.65-87.53l-.11-.32C236.51,104.38,235.68,104.38,234.92,104.45Z"/><path class="cls-15" d="M81.2,62.05s19.87,3.6,31.88,17.88c0,0,4.18,4.35,5.18,2.47s-6.82-11.93-16-16.36A56,56,0,0,0,82,60.65C80.06,60.62,75.26,61,81.2,62.05Z"/><path class="cls-15" d="M47.14,66.17c5.1-3.32,10.12-5,13.82-5,6.29-.06-5.09,2.41-11.93,6.91C44.77,70.85,41.32,70,47.14,66.17Z"/><path class="cls-16" d="M171.24,135.88S179,151.47,177.65,169c0,0,2.29,1.79,2.61-1,1.29-11.42-3.68-29.16-6.74-32.57C173.52,135.44,170.94,132.09,171.24,135.88Z"/><path class="cls-16" d="M161.27,139s3.81,11.91.95,24.23c0,0,1.43,1.52,2-.43,2.16-8,.57-21.11-1.24-23.86C162.94,138.93,161.47,136.27,161.27,139Z"/><path class="cls-16" d="M148.85,141.48a39.37,39.37,0,0,0-.73,18.64s-1.1,1.17-1.5-.33c-1.67-6.13-.44-16.24.95-18.36C147.57,141.43,148.7,139.39,148.85,141.48Z"/><path class="cls-16" d="M182.38,131.42s12.41,12.21,16.87,29.23c0,0,2.75.94,2.13-1.8-2.5-11.22-13-26.37-17-28.59C184.4,130.26,180.87,127.94,182.38,131.42Z"/><path class="cls-16" d="M195.31,126.06s9.56,6.86,14.32,17.76c0,0,1.93.34,1.24-1.42-2.85-7.24-11.43-16.26-14.33-17.32C196.54,125.08,193.94,123.89,195.31,126.06Z"/><path class="cls-16" d="M205.49,121.1a38.44,38.44,0,0,1,13.19,12.55s1.56.07.83-1.25c-3-5.43-10.74-11.66-13.16-12.2C206.35,120.2,204.17,119.54,205.49,121.1Z"/><path class="cls-17" d="M224.44,108.54s1.37-.62,2.09-.15,2.14,1,2.68.62a6,6,0,0,0,1.66-2.64,14.66,14.66,0,0,1,.54,1.77,11.26,11.26,0,0,1-1.44,2.74l-3.58-.36-1.66-1.12Z"/><polygon class="cls-17" points="120.91 147.67 126.11 145.47 126.65 146.8 121.41 148.72 120.91 147.67"/></svg>