<svg id="Layer_54" data-name="Layer 54" xmlns="http://www.w3.org/2000/svg" viewBox="0 0 256 256"><defs><style>.cls-1{opacity:0.5;}.cls-2{fill:#fff;}.cls-10,.cls-3{fill:#89532f;}.cls-3{stroke:#542800;}.cls-14,.cls-3,.cls-5{stroke-miterlimit:10;stroke-width:2px;}.cls-4{fill:#472604;}.cls-5{fill:#ffa4c9;stroke:#ff3edb;}.cls-6{fill:#fd73a7;}.cls-7{fill:#f4629d;}.cls-8{fill:#ea5498;}.cls-9{fill:#e54a98;}.cls-11{fill:#72401e;}.cls-12{fill:#592e08;}.cls-13{fill:#fd9dc0;}.cls-14{fill:#fcdfc3;stroke:#f4b67d;}.cls-15{fill:#f4ceae;}.cls-16{fill:#eac198;}.cls-17{fill:#b7399f;opacity:0.3;}</style></defs><path class="cls-1" d="M131.79,242.4c-20.54,0-45.39-4.87-53.55-18.55-.87-1.46-2.9-4.86-10.73-58.88a30.26,30.26,0,0,1-8.23-7.59c-3.89-5-7.62-13.37-3.6-24.93a20.1,20.1,0,0,1,3.07-5.66A36.37,36.37,0,0,1,56,120.08a9.55,9.55,0,0,1-1.24-16.77,51,51,0,0,1,4-14.11,9.56,9.56,0,0,1,8.7-13.48H68a35.83,35.83,0,0,1,9.25-6.31,9.57,9.57,0,0,1,8.26-4.79h.16a9.47,9.47,0,0,1,3.3.66,57.89,57.89,0,0,1,16.88-28,9.63,9.63,0,0,1,8.46-6.46,70.7,70.7,0,0,1,12.67-6.33l.57-.22a9.61,9.61,0,0,1,8.74-5.72h.16a9.51,9.51,0,0,1,6.94,3.17,40.35,40.35,0,0,1,13.2,2.46,6,6,0,0,1-2.27,11.56h-.1a7.35,7.35,0,0,0-5.48,2.65A7.87,7.87,0,0,0,147.25,45c1.4,1.4,7.6,3.21,11.75,4.42l1.31.38a9.59,9.59,0,0,1,5-1.39h.16a9.58,9.58,0,0,1,8.76,6.14c2,.84,3.82,1.72,5.54,2.65a9.48,9.48,0,0,1,3.06-.5H183a9.54,9.54,0,0,1,9.39,9.69l0,.65a37.64,37.64,0,0,1,5.9,9.23c2.58,5.8,1.15,12.48-.86,17.62h.3a9.54,9.54,0,0,1,9.39,9.72,9.19,9.19,0,0,1-.22,1.88,17.88,17.88,0,0,1,1.32,2.57c3.67,9-3.45,14.62-6.5,17l-.71.56a22.82,22.82,0,0,1,3.73,3.59c8.56,10.51,7.8,24.58-1.8,33.48a35.62,35.62,0,0,1-5,4.11c-3.06,20.28-8.6,52.14-14.08,59.19-9.36,12.07-33,16.37-52,16.37Z"/><path class="cls-2" d="M126.79,237.4c-20.54,0-45.39-4.87-53.55-18.55-.87-1.46-2.9-4.86-10.73-58.88a30.26,30.26,0,0,1-8.23-7.59c-3.89-5-7.62-13.37-3.6-24.93a20.1,20.1,0,0,1,3.07-5.66A36.37,36.37,0,0,1,51,115.08,9.55,9.55,0,0,1,49.8,98.31a51,51,0,0,1,4-14.11,9.56,9.56,0,0,1,8.7-13.48H63a35.83,35.83,0,0,1,9.25-6.31,9.57,9.57,0,0,1,8.26-4.79h.16a9.47,9.47,0,0,1,3.3.66,57.89,57.89,0,0,1,16.88-28,9.63,9.63,0,0,1,8.46-6.46,70.7,70.7,0,0,1,12.67-6.33l.57-.22a9.61,9.61,0,0,1,8.74-5.72h.16a9.51,9.51,0,0,1,6.94,3.17,40.35,40.35,0,0,1,13.2,2.46,6,6,0,0,1-2.27,11.56h-.1a7.35,7.35,0,0,0-5.48,2.65A7.87,7.87,0,0,0,142.25,40c1.4,1.4,7.6,3.21,11.75,4.42l1.31.38a9.59,9.59,0,0,1,5-1.39h.16a9.58,9.58,0,0,1,8.76,6.14c2,.84,3.82,1.72,5.54,2.65a9.48,9.48,0,0,1,3.06-.5H178a9.54,9.54,0,0,1,9.39,9.69l0,.65a37.64,37.64,0,0,1,5.9,9.23c2.58,5.8,1.15,12.48-.86,17.62h.3a9.54,9.54,0,0,1,9.39,9.72,9.19,9.19,0,0,1-.22,1.88,17.88,17.88,0,0,1,1.32,2.57c3.67,9-3.45,14.62-6.5,17l-.71.56a22.82,22.82,0,0,1,3.73,3.59c8.56,10.51,7.8,24.58-1.8,33.48a35.62,35.62,0,0,1-5,4.11c-3.06,20.28-8.6,52.14-14.08,59.19-9.36,12.07-33,16.37-52,16.37Z"/><path class="cls-3" d="M67.85,155.79s-17.92-7.93-11.5-26.37c6-17.42,44.35-14.73,44.35-14.73s.2-12.6,16.83-13.47,39.85,15,39.85,15S186,117,195,128s4.1,24.71-7.78,29.37c-2.24.88-3.78,14.6-7.89,15.49C155,178.19,102,184.11,77,172.26,73.72,170.73,70,157.52,67.85,155.79Z"/><path class="cls-4" d="M58.27,147.48s10.21,12.14,25.41,6.14c0,0,29.58,22.1,67.14,2.15,0,0,26.11,11.37,44.85-4.47,0,0-5,6.17-10.54,7.64-3.83,1-.37,22.91-24,32.93S69.58,156,71,162.79c3.66,17.17-3.81-7-3-6.56C68,156.23,61.3,153,58.27,147.48Z"/><path class="cls-5" d="M67.91,155.33s8,56.26,10.48,60.45c12.1,20.29,80.72,20.81,95.64,1.58,5.87-7.56,13.43-60.05,13.43-60.05l-8.41,7.51-10.78-4.32L158,167l-11.72-4.65-10,5.26L124.55,163l-10,4.62-11.08-5-10.9,4-10.09-6.87-6.75,3.08Z"/><path class="cls-6" d="M76.06,164.08s5.25,48.88,5.81,53.36c0,0,2.82,3.23,5.35,4.23L82.16,161Z"/><path class="cls-6" d="M92.57,167.86s3.23,55.54,2.88,57.77a38.72,38.72,0,0,0,8.89,2.06l-1.81-63.81Z"/><path class="cls-7" d="M115.53,168.56l.26,60.91a44,44,0,0,0,8.29.46l.45-65.69Z"/><path class="cls-8" d="M136.57,168.91s-1.3,59.29-1.32,60.24,5.73.74,8-.5l2.67-65-9,5"/><path class="cls-9" d="M158.26,168.31l-4.79,58.6s5.75-.87,8.34-3.06l6.44-62.07Z"/><path class="cls-6" d="M179.66,166.11l-9.17,53.1a15.08,15.08,0,0,0,4.24-5.35c1.65-3.48,11.08-53.07,11.08-53.07Z"/><path class="cls-10" d="M80.76,151.84s9.41,15.78,34.77,16.72,38.16-18.29,38.16-18.29S83,142.16,80.76,151.84Z"/><path class="cls-11" d="M172.31,159.29s-15.11-2.24-24.55-9.94a5.6,5.6,0,0,0-8.48,1.49c-4,7-12.74,16.15-31.1,15.85,0,0,27.09,5.28,41.2-8.38C149.38,158.31,166.81,163.43,172.31,159.29Z"/><path class="cls-11" d="M99.78,163.53s-9.06-5.89-10.68-11.65c-.85-3-8-5.31-10.8-3.8-4.41,2.42-8.7,6.45-16.36,3.35,0,0,10,6.79,20.67,4.26C82.61,155.69,92.55,162.81,99.78,163.53Z"/><path class="cls-12" d="M83.68,153.62s14.14,14.65,33.63,13.58a68,68,0,0,0,33.51-11.43s19.58,7.39,36.64,1.54c0,0-17.53,7.63-36.15.55a56.66,56.66,0,0,1-37.19,12.93c-18.22-.3-31.51-15.1-31.51-15.1S72.16,157.6,66,153.33C66,153.33,76.86,157.16,83.68,153.62Z"/><path class="cls-11" d="M176.25,158.75s17.2.29,20.17-15.06-19.77-26.27-19.77-26.27L153.86,143s21.9-9.61,28.06,1.36S176.25,158.75,176.25,158.75Z"/><path class="cls-6" d="M66,80.32a3.55,3.55,0,1,0-3.6,3.51A3.53,3.53,0,0,0,66,80.32Z"/><path class="cls-13" d="M60.51,77.59a3.15,3.15,0,0,0-1.08,2.93c.28,1.36,2.54.44,3-1.56,0-.15-.06-1.51-.43-1.64A1.73,1.73,0,0,0,60.51,77.59Z"/><path class="cls-2" d="M60.86,77.86a1.19,1.19,0,0,0-.93.79c-.17.67.57.81,1.16.08C61.51,78.21,61.21,77.77,60.86,77.86Z"/><path class="cls-6" d="M181.35,61.32a3.55,3.55,0,1,0-3.61,3.5A3.54,3.54,0,0,0,181.35,61.32Z"/><path class="cls-13" d="M175.85,58.6a3.15,3.15,0,0,0-1.08,2.92c.29,1.37,2.55.44,3-1.54.06-.18-.07-1.52-.42-1.67A1.87,1.87,0,0,0,175.85,58.6Z"/><path class="cls-2" d="M176.2,58.86a1.23,1.23,0,0,0-.93.81c-.17.66.58.78,1.18.07C176.85,59.23,176.56,58.76,176.2,58.86Z"/><path class="cls-14" d="M149.27,24.79a37,37,0,0,0-25.19.35c-13.42,5.15-30.65,16.37-35.51,41.61a31.14,31.14,0,0,0-28.44,18c-9.22,19-4.33,37.52,10.33,46.2s42.13,6.83,50.32,4.66c0,0,11.73,7.1,22.1,8.05s20,.33,21.52-2.72,2.39-9.94,9.07-11.37c0,0,9.54,6.3,12.54,4.06s2.42-12.24,4-15.28,10.47-6,7.63-12.93-13.88-12.5-13.88-12.5,7.37-11.62,4-19.12c-11.44-25.51-49.28-21.52-51.33-32.3S142.61,24.68,149.27,24.79Z"/><path class="cls-15" d="M137.41,25.36s-10.49,6.73-10.57,12.09,9.29,20.88,27.64,31.16a106.16,106.16,0,0,1,29.24,24.26s-22-11.87-43.53-11.45c0,0-4.36-6.93-22-15.71C108.67,61,107.62,34.85,137.41,25.36Z"/><path class="cls-15" d="M137.36,28.43s-7.5,5.24-6.12,11.4,10.08,17.82,18.91,21.8,29.34,18.13,34.35,29c0,0,4.24-10.64.26-16.12C174.61,60.5,121.39,53.48,137.36,28.43Z"/><path class="cls-15" d="M127.62,80.44S121.78,75,106.3,69.34c-13.91-5-7.75-23.92,7.31-38.24,0,0-42.72,30-10.57,56.61,0,0,21.27,14.14,56,19.33a156,156,0,0,1,29.51,7.39s-16.39-7.73-32.6-10.73c-16.82-3.12-36.52-8.65-46.93-18.2C109,85.5,119.47,80.3,127.62,80.44Z"/><path class="cls-15" d="M90,72.91S86.74,85.22,99.26,93c22.73,14.19,80.37,23.58,86.09,35.18,0,0-22.16-3.43-51.74-7S57.75,93.86,90,72.91Z"/><path class="cls-15" d="M64.49,89.37s-1.06,19.17,17.33,27.14,33.09,15.12,36,18.24C117.83,134.75,44.38,140.45,64.49,89.37Z"/><path class="cls-16" d="M130,28.31s-14.23,9.74-15,12.79-4.58,14.43-1.09,20.7c2.16,3.87,18.33,11.8,26.35,19.62a201.2,201.2,0,0,0-21.9-19.54C111.53,56.63,115,37.26,130,28.31Z"/><path class="cls-16" d="M190.32,96.81s-29.42-12.75-39-14.44-28.07-5.07-43.8,5.41c0,0-17.64-8.73-15.89-24.82,0,0,.51,13.82,24.91,16.53C116.51,79.49,165.46,76.46,190.32,96.81Z"/><path class="cls-16" d="M137.36,28.43s-6,3.73-6.07,8.34a26.42,26.42,0,0,0,10,20.11c8,6.27,28.64,16.58,35.91,24.37a233.46,233.46,0,0,0-30.73-23.52C136.92,51.54,127.51,41.31,137.36,28.43Z"/><path class="cls-16" d="M93.65,73.74s5.49,26.18,67.62,32.57C161.27,106.31,116.87,103.28,93.65,73.74Z"/><path class="cls-16" d="M90,72.91s-1.82,9.27,4.19,15.42c16.76,17.15,64.85,21,85.37,35.16,0,0-11-4.79-34.65-10.54C125.62,108.26,70.14,106.34,90,72.91Z"/><path class="cls-16" d="M64.66,78.63s-4,20.65,7.63,31.59,38.26,16.74,48.49,25.34c0,0-16.2-6.4-31.67-12S53.71,113.74,64.66,78.63Z"/><path class="cls-2" d="M124.08,25.14s-18,10.45-21.87,23.42-3.28,19.13,13.67,24c0,0-16.17-7.17-12.26-20.15S114.34,31.88,124.08,25.14Z"/><path class="cls-2" d="M138.41,55.3s9.46,9.36,16.07,13.31,15.42,8.7,15.42,8.7S147.94,60.82,138.41,55.3Z"/><path class="cls-2" d="M114.21,84.83s12.73-9,40-.11C154.22,84.72,143.18,79.93,114.21,84.83Z"/><path class="cls-2" d="M91.37,76.77S88.9,92.07,120.63,99.5C120.63,99.5,99.24,93.77,91.37,76.77Z"/><path class="cls-2" d="M76.62,72.69s-7.49,4.48-8.3,9.07-7,19.06,10.63,29.33A228.77,228.77,0,0,0,112,127S73,111,70.26,99.44C66.52,83.9,76.62,72.69,76.62,72.69Z"/><path class="cls-6" d="M196.06,98.54a3.56,3.56,0,1,0-3.62,3.49A3.56,3.56,0,0,0,196.06,98.54Z"/><path class="cls-13" d="M190.56,95.79a3.18,3.18,0,0,0-1.09,2.95c.29,1.35,2.54.44,3.05-1.56,0-.17-.06-1.52-.42-1.67A1.85,1.85,0,0,0,190.56,95.79Z"/><path class="cls-2" d="M190.89,96.06a1.21,1.21,0,0,0-.92.8c-.16.65.58.8,1.17.07C191.55,96.43,191.25,96,190.89,96.06Z"/><path class="cls-6" d="M58.48,106.41a3.55,3.55,0,1,0-3.6,3.5A3.54,3.54,0,0,0,58.48,106.41Z"/><path class="cls-13" d="M53,103.68a3.17,3.17,0,0,0-1.09,2.92c.29,1.38,2.55.45,3.06-1.55,0-.16-.07-1.52-.43-1.66A1.81,1.81,0,0,0,53,103.68Z"/><path class="cls-2" d="M53.34,104a1.16,1.16,0,0,0-.93.78c-.18.68.57.81,1.17.09C54,104.3,53.69,103.85,53.34,104Z"/><path class="cls-6" d="M93.27,111.76a3.55,3.55,0,1,0-3.61,3.49A3.56,3.56,0,0,0,93.27,111.76Z"/><path class="cls-13" d="M87.77,109a3.18,3.18,0,0,0-1.08,2.93c.28,1.36,2.54.45,3.06-1.55,0-.16-.07-1.52-.44-1.66A1.84,1.84,0,0,0,87.77,109Z"/><path class="cls-2" d="M88.12,109.28a1.21,1.21,0,0,0-.93.8c-.16.66.57.8,1.17.06C88.78,109.64,88.48,109.18,88.12,109.28Z"/><path class="cls-6" d="M100.06,79.17a3.55,3.55,0,1,0-3.6,3.48A3.53,3.53,0,0,0,100.06,79.17Z"/><path class="cls-13" d="M94.57,76.44a3.1,3.1,0,0,0-1.08,2.91c.28,1.38,2.55.45,3.05-1.55,0-.16-.07-1.52-.43-1.67A1.8,1.8,0,0,0,94.57,76.44Z"/><path class="cls-2" d="M94.91,76.69a1.25,1.25,0,0,0-.93.8c-.16.66.58.8,1.18.07C95.57,77.05,95.29,76.61,94.91,76.69Z"/><path class="cls-6" d="M120.75,102.08a3.55,3.55,0,1,0-3.61,3.5A3.56,3.56,0,0,0,120.75,102.08Z"/><path class="cls-13" d="M115.25,99.34a3.2,3.2,0,0,0-1.09,2.94c.29,1.36,2.55.46,3.06-1.54,0-.18-.07-1.54-.43-1.67A1.81,1.81,0,0,0,115.25,99.34Z"/><path class="cls-2" d="M115.59,99.62a1.25,1.25,0,0,0-.93.79c-.15.64.58.8,1.17.07C116.25,100,116,99.52,115.59,99.62Z"/><path class="cls-6" d="M84,69.24a3.55,3.55,0,1,0-3.6,3.5A3.54,3.54,0,0,0,84,69.24Z"/><path class="cls-13" d="M78.5,66.51a3.16,3.16,0,0,0-1.08,2.93c.29,1.37,2.55.43,3.06-1.55,0-.18-.07-1.54-.42-1.67A1.86,1.86,0,0,0,78.5,66.51Z"/><path class="cls-2" d="M78.85,66.78a1.19,1.19,0,0,0-.93.8c-.16.65.58.79,1.17.06C79.51,67.13,79.21,66.68,78.85,66.78Z"/><path class="cls-6" d="M176.65,117.42a3.55,3.55,0,1,0-3.6,3.49A3.53,3.53,0,0,0,176.65,117.42Z"/><path class="cls-13" d="M171.16,114.67a3.2,3.2,0,0,0-1.09,2.94c.29,1.37,2.55.44,3.06-1.56.05-.15-.08-1.52-.43-1.66A1.84,1.84,0,0,0,171.16,114.67Z"/><path class="cls-2" d="M171.5,114.94a1.24,1.24,0,0,0-.93.81c-.16.64.57.8,1.18.07C172.16,115.31,171.87,114.84,171.5,114.94Z"/><path class="cls-6" d="M154.7,93.51A3.55,3.55,0,1,0,151.1,97,3.55,3.55,0,0,0,154.7,93.51Z"/><path class="cls-13" d="M149.21,90.76a3.19,3.19,0,0,0-1.08,2.95c.28,1.36,2.54.44,3.05-1.55,0-.17-.07-1.53-.43-1.66A1.8,1.8,0,0,0,149.21,90.76Z"/><path class="cls-2" d="M149.55,91a1.25,1.25,0,0,0-.94.79c-.15.66.59.8,1.18.08C150.2,91.4,149.9,90.93,149.55,91Z"/><path class="cls-6" d="M176.49,75.8a3.55,3.55,0,1,0-3.61,3.49A3.55,3.55,0,0,0,176.49,75.8Z"/><path class="cls-13" d="M171,73.07A3.18,3.18,0,0,0,169.91,76c.28,1.37,2.54.44,3.06-1.55,0-.17-.07-1.53-.44-1.66A1.78,1.78,0,0,0,171,73.07Z"/><path class="cls-2" d="M171.34,73.33a1.21,1.21,0,0,0-.93.8c-.17.67.57.79,1.16.07C172,73.7,171.69,73.24,171.34,73.33Z"/><path class="cls-6" d="M125,80.43a3.55,3.55,0,1,0-3.61,3.47A3.55,3.55,0,0,0,125,80.43Z"/><path class="cls-13" d="M119.55,77.68a3.14,3.14,0,0,0-1.1,2.93c.28,1.36,2.56.44,3-1.54,0-.17-.07-1.52-.43-1.68A1.8,1.8,0,0,0,119.55,77.68Z"/><path class="cls-2" d="M119.88,78a1.21,1.21,0,0,0-.93.8c-.17.66.57.79,1.18.07C120.53,78.31,120.25,77.84,119.88,78Z"/><path class="cls-6" d="M141.66,69.59a3.55,3.55,0,1,0-3.6,3.49A3.53,3.53,0,0,0,141.66,69.59Z"/><path class="cls-13" d="M136.17,66.87a3.09,3.09,0,0,0-1.08,2.9c.27,1.38,2.55.46,3-1.54.05-.16-.07-1.52-.44-1.67A1.75,1.75,0,0,0,136.17,66.87Z"/><path class="cls-2" d="M136.51,67.12a1.25,1.25,0,0,0-.93.8c-.16.65.57.8,1.18.06C137.17,67.48,136.88,67,136.51,67.12Z"/><path class="cls-6" d="M163.82,53.05a3.55,3.55,0,1,0-3.6,3.48A3.53,3.53,0,0,0,163.82,53.05Z"/><path class="cls-13" d="M158.33,50.32a3.1,3.1,0,0,0-1.08,2.91c.28,1.38,2.55.45,3.05-1.55,0-.16-.07-1.52-.43-1.67A1.8,1.8,0,0,0,158.33,50.32Z"/><path class="cls-2" d="M158.67,50.57a1.25,1.25,0,0,0-.93.8c-.16.66.58.81,1.18.07C159.33,50.94,159.05,50.49,158.67,50.57Z"/><path class="cls-6" d="M116,59.66a3.55,3.55,0,1,0-3.6,3.48A3.54,3.54,0,0,0,116,59.66Z"/><path class="cls-13" d="M110.52,56.93a3.1,3.1,0,0,0-1.08,2.91c.27,1.38,2.55.45,3-1.55,0-.16-.07-1.52-.44-1.67A1.77,1.77,0,0,0,110.52,56.93Z"/><path class="cls-2" d="M110.86,57.18a1.25,1.25,0,0,0-.93.8c-.16.66.57.81,1.18.07C111.52,57.55,111.23,57.1,110.86,57.18Z"/><path class="cls-6" d="M138.1,47.13a3.55,3.55,0,1,0-3.6,3.49A3.54,3.54,0,0,0,138.1,47.13Z"/><path class="cls-13" d="M132.61,44.41a3.09,3.09,0,0,0-1.08,2.9c.27,1.38,2.55.46,3.05-1.54,0-.16-.07-1.52-.44-1.67A1.74,1.74,0,0,0,132.61,44.41Z"/><path class="cls-2" d="M133,44.66a1.25,1.25,0,0,0-.93.8c-.16.65.57.8,1.18.06C133.61,45,133.32,44.57,133,44.66Z"/><path class="cls-6" d="M113.39,35.46a3.55,3.55,0,1,0-3.6,3.49A3.54,3.54,0,0,0,113.39,35.46Z"/><path class="cls-13" d="M107.9,32.73a3.1,3.1,0,0,0-1.08,2.91c.27,1.38,2.54.45,3.05-1.54,0-.17-.07-1.53-.44-1.67A1.77,1.77,0,0,0,107.9,32.73Z"/><path class="cls-2" d="M108.24,33a1.26,1.26,0,0,0-.94.81c-.15.65.58.8,1.19.06C108.9,33.35,108.61,32.9,108.24,33Z"/><path class="cls-6" d="M134.78,23.21a3.55,3.55,0,1,0-3.6,3.49A3.53,3.53,0,0,0,134.78,23.21Z"/><path class="cls-13" d="M129.29,20.48a3.1,3.1,0,0,0-1.08,2.91c.28,1.38,2.55.45,3-1.54.05-.17-.07-1.53-.43-1.67A1.79,1.79,0,0,0,129.29,20.48Z"/><path class="cls-2" d="M129.63,20.73a1.25,1.25,0,0,0-.93.8c-.16.66.58.81,1.18.07C130.29,21.1,130,20.65,129.63,20.73Z"/><path class="cls-17" d="M68.82,157.28s6.89,43.07,9.81,57.31c.41,2,4.28,6.64,9.84,9.26,6.88,3.25,30.71,9.16,40.65,6.71,0,0-27.83-11.43-40.45-30.15S68.82,157.28,68.82,157.28Z"/></svg>