<svg id="Layer_54" data-name="Layer 54" xmlns="http://www.w3.org/2000/svg" viewBox="0 0 256 256"><defs><style>.cls-1{opacity:0.5;}.cls-15,.cls-17,.cls-2,.cls-22,.cls-3{fill:#fff;}.cls-22,.cls-3{stroke:#001e89;stroke-width:2px;}.cls-21,.cls-22,.cls-3{stroke-miterlimit:10;}.cls-4{fill:#2732c1;}.cls-5{fill:#3c59e5;}.cls-6{fill:#3245ce;}.cls-7{fill:#122744;}.cls-8{fill:#c6dd40;}.cls-9{fill:#d4e656;}.cls-10,.cls-22{font-size:39.97px;font-family:FranklinGothic-Heavy, Franklin Gothic Heavy;font-weight:800;}.cls-10{fill:#476dd6;}.cls-11{fill:#e4eef4;}.cls-12{fill:#71a0ea;}.cls-13{fill:#97d5c9;}.cls-14{fill:#5a6e7f;}.cls-15{opacity:0.4;}.cls-16{fill:#041e18;opacity:0.28;}.cls-17{opacity:0.2;}.cls-18{fill:#041168;opacity:0.3;}.cls-19{fill:#202856;}.cls-20{fill:#6974ac;}.cls-21{fill:none;stroke:#00203f;}</style></defs><path class="cls-1" d="M134.53,221.94s-8.78-1.07-11.49-2L51.28,201.71l-.14-.05A26,26,0,0,1,33,174.6l0-.29,12.36-61.13L78.64,78.6l-.78-27.47c0-6.28,8.06-8.54,15.93-9.92a178,178,0,0,1,29.37-2.15,177.78,177.78,0,0,1,29.36,2.15c7.79,1.36,15.74,3.59,15.93,9.69l1.91,26.19c10.53,8.52,31.26,25.41,33.28,27.85,3.75,4.46,5.09,8.93,6.51,13.66.21.72.44,1.46.67,2.22L227,167.24a22.37,22.37,0,0,1,1,6.7c0,8.54-3.47,15.27-9.28,18l-.14.07-.13.05s-17.61,7.06-35.28,14.11c-28.28,11.29-34.49,13.77-36.47,14.31v0a56.85,56.85,0,0,1-11.89,1.42Z"/><path class="cls-2" d="M129.41,216.94A36.26,36.26,0,0,1,118,215L46.28,196.71l-.14-.05A26,26,0,0,1,28,169.6l0-.29,12.36-61.13L73.64,73.6l-.78-27.47c0-6.28,8.06-8.54,15.93-9.92a178,178,0,0,1,29.37-2.15,177.78,177.78,0,0,1,29.36,2.15c7.79,1.36,15.74,3.59,15.93,9.69l1.91,26.19c10.53,8.52,31.26,25.41,33.28,27.85,3.75,4.46,5.09,8.93,6.51,13.66.21.72.44,1.46.67,2.22L222,162.24a22.37,22.37,0,0,1,1,6.7c0,8.54-3.47,15.27-9.28,18l-.14.07-.13.05s-17.61,7.06-35.28,14.11c-28.28,11.29-34.49,13.77-36.47,14.31v0a56.85,56.85,0,0,1-11.89,1.42Z"/><path class="cls-3" d="M216.85,163.18,200.75,117c-1.7-5.44-2.62-9.88-6.26-14.2-2-2.46-34.1-28.38-34.1-28.38l-2.06-28.35c0-3.9-18-7-40.12-7s-40.13,3.15-40.13,7l.84,29.41-.13,0h0L49.5,106l-4.06,4.22h0l0,0-12,59.15a21.06,21.06,0,0,0,13.37,21.35,11.69,11.69,0,0,0,1.2.44l71.46,18.19a31,31,0,0,0,10,1.76l0,.9s0-.31.05-.9a50.54,50.54,0,0,0,11.1-1.31c0,.21,70.6-28.07,70.6-28.07,4.79-2.26,6.38-8.31,6.38-13.43A17.35,17.35,0,0,0,216.85,163.18Z"/><path class="cls-4" d="M45.42,110.27,78.77,75.55l3.92-.2,77.7-.89s32.06,25.92,34.1,28.38c3.64,4.32,4.56,8.76,6.26,14.2l16.1,46.14a17.35,17.35,0,0,1,.79,5.17c0,5.12-1.59,11.17-6.38,13.43,0,0-70.6,28.28-70.6,28.08-10.29,2.2-15.84,1.33-21.17-.46L48,191.21a21.06,21.06,0,0,1-14.57-21.79l12-59.15"/><path class="cls-5" d="M129.54,210.61s.79.89,11.08-1.31c0,.2,69.35-27.3,69.35-27.3,4.8-2.26,7.2-8.44,7.2-13.56a17.4,17.4,0,0,0-.79-5.17l-16.11-46.14c-1.7-5.44-3.5-12.55-7-14.77l-67.75,26.27Z"/><polygon class="cls-6" points="193.26 102.36 125.51 128.63 45.94 110.39 78.95 76.28 120.88 75.93 160.71 75.36 193.26 102.36"/><ellipse class="cls-7" cx="119.78" cy="78.17" rx="40.61" ry="9.53"/><polygon class="cls-8" points="42.53 126.81 128.44 151.35 201.19 119.84 212.9 153.75 130.57 189.39 35.75 160.69 42.53 126.81"/><polygon class="cls-9" points="128.44 151.35 130.57 189.39 212.9 153.75 201.19 119.84 128.44 151.35"/><text class="cls-10" transform="translate(44.34 159.49) rotate(16.41) scale(1.02 1)">INK</text><path class="cls-11" d="M144.9,164.18l-.17-.05-8.59,4.41-.07.17.15.1,14-1.39.1-.06,4-5.14v-.15l-2.62-5.23-.14-.08-6.23.62-.09.05L135.83,168v.18l.17,0,8.59-4.41.07-.17a1.65,1.65,0,0,1,.82-1.94,1.63,1.63,0,0,1,2.19.71,1.66,1.66,0,0,1-.72,2.21A1.62,1.62,0,0,1,144.9,164.18Z"/><path class="cls-12" d="M165.89,146.05l5.6,11.19c13.66-7.28,30.74-19.1,29.26-22.06S179.76,139.18,165.89,146.05Z"/><path class="cls-12" d="M153.83,159.27c1.28,2.56,1.73,5,9.67,1.81l-5.39-10.78C150.84,154.88,152.55,156.72,153.83,159.27Z"/><path class="cls-13" d="M163.5,161.08c.9-.36,1.89-.8,3-1.32l-5.57-11.12c-1.06.59-2,1.14-2.81,1.66Z"/><path class="cls-14" d="M160.92,148.64l5.57,11.12c1-.45,2-1,3.12-1.54.62-.31,1.25-.65,1.88-1l-5.6-11.19L164,147C162.86,147.58,161.85,148.12,160.92,148.64Z"/><path class="cls-15" d="M77,92.68s44.12,18.13,75.12,0,14.91,23.47-25.84,20.8S77,92.68,77,92.68Z"/><path class="cls-16" d="M217,171.12s-28.17,14.57-37.68,19c-12.31,5.75-49.77,20.47-49.77,20.47a31.48,31.48,0,0,0,11.26-1.37l68.68-27C215,179.74,216.3,175.72,217,171.12Z"/><path class="cls-16" d="M47.67,190.64s49.81,12.71,72,18.2c.72.45,4.27,1.77,9.83,1.77a98.1,98.1,0,0,0-10-4.58c-13.43-5.3-64.32-21.41-83-24.54C38.26,184.17,42.1,189.06,47.67,190.64Z"/><path class="cls-17" d="M125.51,129.31l4,82.75S133.14,160.77,125.51,129.31Z"/><path class="cls-18" d="M160.39,78.17c0,10.91-52.91,27.29-52.91,27.29l18,23.85,4,81.83a50.28,50.28,0,0,1-10-1.8c-4.1-1.19-11.07-2.77-18-4.54C78.79,199,48,191.21,48,191.21a21.46,21.46,0,0,1-14.57-21.79l12-59.18,33.35-34.7S160.41,65.9,160.39,78.17Z"/><path class="cls-19" d="M79,76.28l-.86-30.17h80.24l2.06,28.35S123.62,90.12,79,76.28Z"/><ellipse class="cls-19" cx="118.21" cy="46.11" rx="40.12" ry="7.05"/><ellipse class="cls-20" cx="118.21" cy="46.11" rx="38.31" ry="6.22"/><line class="cls-21" x1="81.4" y1="49.29" x2="82.07" y2="76.21"/><line class="cls-21" x1="85.58" y1="50.63" x2="86.25" y2="77.54"/><line class="cls-21" x1="89.92" y1="51.97" x2="90.59" y2="78.88"/><line class="cls-21" x1="94.77" y1="52.64" x2="95.44" y2="79.55"/><line class="cls-21" x1="99.45" y1="53.64" x2="100.12" y2="80.55"/><line class="cls-21" x1="104.3" y1="54.14" x2="104.97" y2="81.05"/><line class="cls-21" x1="109.98" y1="54.64" x2="110.65" y2="81.56"/><line class="cls-21" x1="115.5" y1="54.81" x2="116.17" y2="81.72"/><line class="cls-21" x1="120.68" y1="54.98" x2="121.35" y2="81.89"/><line class="cls-21" x1="126.2" y1="54.48" x2="126.86" y2="81.39"/><line class="cls-21" x1="131.38" y1="54.14" x2="132.05" y2="81.05"/><line class="cls-21" x1="136.06" y1="53.47" x2="136.73" y2="80.39"/><line class="cls-21" x1="140.57" y1="52.8" x2="141.24" y2="79.72"/><line class="cls-21" x1="144.75" y1="51.97" x2="145.42" y2="78.88"/><line class="cls-21" x1="149.1" y1="51.13" x2="149.76" y2="78.04"/><line class="cls-21" x1="153.44" y1="50.13" x2="154.11" y2="77.04"/><line class="cls-21" x1="156.62" y1="48.29" x2="157.29" y2="75.2"/><text class="cls-22" transform="translate(44.34 159.49) rotate(16.41) scale(1.02 1)">INK</text></svg>