<svg id="Layer_54" data-name="Layer 54" xmlns="http://www.w3.org/2000/svg" viewBox="0 0 256 256"><defs><style>.cls-1{opacity:0.5;}.cls-2,.cls-5{fill:#fff;}.cls-3,.cls-4{fill:#ffc400;}.cls-3{stroke:#666800;}.cls-3,.cls-5{stroke-miterlimit:10;stroke-width:0.75px;}.cls-5{stroke:#6b6b6b;}</style></defs><path class="cls-1" d="M121.49,219.2a28.38,28.38,0,0,1-19.16-7.1,55.5,55.5,0,0,1-20.23,3.67h-.91c-2.36,0-13.25-.37-19.75-6.6a61.32,61.32,0,0,1-17.4,3c-.9,0-1.78,0-2.65-.09-7.27-.53-17.91-1.91-26.55-7.84a18.48,18.48,0,0,1-8.33-12.51,17.07,17.07,0,0,1,4-13.48c6.54-7.91,15.58-12.07,26.17-12.07,1.26,0,2.54,0,3.85.17,2-3.54,5.59-5.92,9.37-5.92l.55,0a21,21,0,0,1,1.28-1.85h-.63c-4.76,0-6.24-3-6.65-4.27-1.86-5.69,4.35-8.5,8.88-10.56C57.2,142,62.4,140,67.43,138L71,136.55l-3.77-.25c-5.41-.35-11-.71-15.23-1.19-5-.56-11.73-1.33-11.73-7.34s6.83-6.8,11.82-7.37c4.27-.49,9.92-.86,15.39-1.22l3.4-.22-3.37-1.35c-5-2-10.26-4.1-14.13-5.86-4.54-2.06-10.76-4.89-8.92-10.58.41-1.28,1.88-4.26,6.64-4.26,3.69,0,10.63,1.7,21.62,4.49l3.65.93-3-2.51c-4.15-3.45-8.44-7-11.55-9.87C58.16,86.6,53.15,82,56.64,77.19a6,6,0,0,1,5-2.47c3.32,0,7.4,2.3,21.86,11.41l3.13,2-2-3.12c-2.89-4.59-5.88-9.34-8-13-2.46-4.33-5.82-10.26-1-13.79A5.94,5.94,0,0,1,79.16,57c4,0,6.75,2.93,19.18,17.86l2.5,3c-.32-1.23-.63-2.48-1-3.72-1.34-5.24-2.72-10.66-3.57-14.8C95.32,54.48,94,47.8,99.67,46a6,6,0,0,1,1.81-.28c5.16,0,7,4.06,14.56,23.23l1.42,3.58c.09-1.26.17-2.52.25-3.77.35-5.42.71-11,1.19-15.24.56-4.95,1.33-11.73,7.35-11.73s6.79,6.81,7.36,11.79c.48,4.25.85,9.88,1.21,15.32.07,1.16.15,2.34.23,3.5.47-1.16.93-2.33,1.4-3.5C144.1,49.69,145.9,45.63,151,45.63a5.91,5.91,0,0,1,1.82.28c5.7,1.84,4.33,8.53,3.33,13.42-.85,4.15-2.23,9.58-3.57,14.84-.31,1.21-.62,2.44-.93,3.66l2.5-3C166.6,59.91,169.38,57,173.34,57a5.89,5.89,0,0,1,3.47,1.12c4.88,3.48,1.51,9.41-.94,13.74-2.08,3.67-5.06,8.39-7.94,13l-2.09,3.31,3.23-2c14.4-9.1,18.48-11.4,21.81-11.4a6.06,6.06,0,0,1,5,2.5c3.47,4.84-1.55,9.44-5.22,12.8-3.14,2.87-7.45,6.46-11.63,9.93l-2.88,2.4,3.7-.94c11-2.8,17.87-4.49,21.55-4.49,4.9,0,6.33,3.26,6.65,4.26,1.86,5.7-4.35,8.51-8.88,10.57-3.85,1.75-9,3.81-14.07,5.81l-3.58,1.42,3.86.25c5.43.36,11,.72,15.28,1.2,5,.56,11.76,1.33,11.76,7.35s-6.84,6.79-11.83,7.36c-4.27.49-9.92.86-15.39,1.22l-3.4.23,3.39,1.35c4.35,1.74,8.82,3.53,12.45,5.11.62,0,1.25-.05,1.88-.05,11.51,0,22.43,4.93,28.71,12.76,6.28.22,13.14,1.1,18.69,5.51a20.24,20.24,0,0,1,7.71,16.06,22.6,22.6,0,0,1-8.49,17.41c-9.26,7.54-20.76,10.76-30.79,12.92a117.12,117.12,0,0,1-24,2.82h0a68.39,68.39,0,0,1-17.15-2l-.33.27a37.43,37.43,0,0,1-17.2,8.28,33.46,33.46,0,0,1-6.11.56,31,31,0,0,1-14-3.19A27.93,27.93,0,0,1,121.49,219.2Z"/><path class="cls-2" d="M116.54,214.25a28.43,28.43,0,0,1-19.16-7.1,55.76,55.76,0,0,1-20.24,3.67h-.9c-2.37,0-13.26-.37-19.75-6.6a61.68,61.68,0,0,1-17.41,3c-.89,0-1.78,0-2.64-.09-7.27-.52-17.91-1.9-26.56-7.84a18.47,18.47,0,0,1-8.32-12.51,17.08,17.08,0,0,1,4-13.48c6.54-7.91,15.58-12.07,26.17-12.07,1.25,0,2.54.06,3.84.18,2.06-3.54,5.6-5.92,9.38-5.92l.55,0a21.17,21.17,0,0,1,1.28-1.86l-.63,0c-4.77,0-6.24-3-6.65-4.27-1.86-5.69,4.34-8.51,8.87-10.56,3.85-1.75,9.05-3.81,14.08-5.81l3.57-1.42-3.77-.25c-5.42-.35-11-.71-15.23-1.19-4.95-.56-11.73-1.33-11.73-7.35s6.83-6.79,11.82-7.36c4.27-.49,9.92-.86,15.38-1.22l3.4-.23-3.36-1.34c-5.05-2-10.27-4.1-14.14-5.86-4.54-2.07-10.75-4.89-8.92-10.58.42-1.28,1.89-4.26,6.65-4.26,3.69,0,10.63,1.7,21.61,4.49l3.66.93-3-2.51c-4.14-3.45-8.43-7-11.54-9.87-3.66-3.35-8.67-7.93-5.18-12.76a6,6,0,0,1,5-2.47c3.32,0,7.4,2.29,21.86,11.41l3.13,2-2-3.11c-2.89-4.59-5.88-9.34-8-13-2.45-4.33-5.81-10.27-1-13.79a5.87,5.87,0,0,1,3.51-1.14c4,0,6.75,2.93,19.18,17.86l2.49,3c-.31-1.23-.63-2.48-.94-3.72C93.6,64,92.22,58.55,91.37,54.41c-1-4.88-2.37-11.56,3.35-13.4a5.7,5.7,0,0,1,1.8-.28c5.16,0,7,4.05,14.57,23.23l1.42,3.57c.08-1.25.17-2.51.25-3.76.35-5.42.71-11,1.19-15.24.56-5,1.33-11.73,7.34-11.73s6.8,6.81,7.36,11.78c.49,4.25.86,9.88,1.22,15.33.07,1.16.15,2.33.23,3.5.46-1.16.93-2.34,1.4-3.5,7.65-19.18,9.45-23.24,14.57-23.24a5.92,5.92,0,0,1,1.82.29c5.69,1.84,4.32,8.53,3.32,13.41-.85,4.16-2.23,9.59-3.56,14.84l-.93,3.66,2.5-3C161.65,55,164.42,52,168.38,52a5.92,5.92,0,0,1,3.48,1.12c4.87,3.48,1.51,9.41-1,13.74-2.08,3.67-5,8.39-7.94,13l-2.08,3.3,3.22-2c14.41-9.11,18.48-11.4,21.82-11.4a6,6,0,0,1,5,2.5c3.48,4.84-1.55,9.44-5.22,12.8-3.13,2.86-7.45,6.45-11.62,9.93l-2.88,2.39,3.7-.94c11-2.79,17.87-4.48,21.55-4.48,4.9,0,6.33,3.26,6.65,4.26,1.85,5.7-4.35,8.51-8.88,10.57-3.85,1.74-9.05,3.81-14.07,5.8L176.56,114l3.85.25c5.44.35,11.06.72,15.29,1.2,5,.56,11.75,1.33,11.75,7.34s-6.83,6.8-11.82,7.37c-4.27.49-9.92.86-15.39,1.22l-3.4.22c1.12.46,2.26.91,3.39,1.36,4.34,1.74,8.82,3.53,12.44,5.11.63,0,1.26,0,1.89,0,11.51,0,22.42,4.93,28.71,12.76,6.28.22,13.14,1.1,18.69,5.51a20.24,20.24,0,0,1,7.71,16.06,22.66,22.66,0,0,1-8.49,17.41c-9.27,7.54-20.77,10.76-30.79,12.91a116.5,116.5,0,0,1-24,2.82h0a68.4,68.4,0,0,1-17.15-2l-.33.27a37.53,37.53,0,0,1-17.2,8.28,33.46,33.46,0,0,1-6.11.56,30.94,30.94,0,0,1-14-3.19A27.93,27.93,0,0,1,116.54,214.25Z"/><path class="cls-3" d="M201.91,122.76c0,3.16-42.9,2.93-43.36,5.91s40.36,16.06,39.41,19-41.65-10.54-43-7.83,33.42,27.8,31.64,30.27-36.4-23-38.58-20.73,23.27,36.71,20.73,38.52-27.51-33-30.27-31.64,10.77,42.1,7.84,43.05-15.9-39.92-19-39.42-2.76,43.36-5.91,43.36-2.92-42.89-5.91-43.36-16.06,40.36-19,39.42,10.54-41.65,7.83-43.05S76.47,189.71,74,187.92s22.92-36.35,20.73-38.52S58,172.66,56.21,170.13s33-27.52,31.64-30.27-42.1,10.77-43,7.83,39.91-15.89,39.41-19S40.86,126,40.86,122.81s42.89-2.92,43.36-5.9-40.38-16.07-39.44-19,41.65,10.54,43.05,7.84S54.4,78,56.19,75.49,92.61,98.4,94.71,96.22,71.51,59.5,74,57.69s27.52,33,30.27,31.65S93.48,47.23,96.41,46.29s15.9,39.92,19,39.41,2.76-43.36,5.91-43.36,2.9,42.84,5.91,43.31,16.06-40.36,19-39.41-10.53,41.65-7.83,43,27.8-33.42,30.27-31.64S145.7,94,147.88,96.16,184.59,72.9,186.4,75.43s-33,27.52-31.64,30.28,42.1-10.78,43.05-7.84-39.92,15.89-39.42,19S201.91,119.61,201.91,122.76Z"/><circle class="cls-4" cx="121.36" cy="122.76" r="46.1"/><path class="cls-5" d="M238.52,160.6c-4.94-3.92-11.72-4.25-17.4-4.36h-.73c-9.44-15.05-37.56-17.58-45.34-3a14.33,14.33,0,0,0-5.5-7.69,8.67,8.67,0,0,0-5.41-1.5,21.82,21.82,0,0,0-2.29-11.15c-3.47-6.44-9.88-7.46-15.59-6.44a22,22,0,0,0-15,11.15,16.19,16.19,0,0,0-1.48,4.25c-3.2-2.87-7.69-3.92-11.45-3.92-6,0-13.57,2.66-16.3,9.88a10.51,10.51,0,0,0-.45,6.21c-3-2.42-7-1.84-9.7.92a21,21,0,0,0-1.37-3.1c-3.76-6.68-11.82-7.13-17.69-6.55-6.59.69-22.45,7.46-24.28,17.47a6.41,6.41,0,0,0-1.92-1.37c-3.13-1.5-6.67,1.73-7.23,5.76a.57.57,0,0,1-.07.33c-10.54-1.94-21.44-.33-29.41,9.3-5.42,6.67-2.83,13.9,3.13,17.92,7.05,4.84,15.93,6.31,23.81,6.88,6.49.45,13.08-1.15,19.42-3.1l2.21-.69c3.29,6,12.64,7.46,17.87,7.46,6.49.11,15.3-1,22.33-4.83a22.45,22.45,0,0,0,17.88,8.27,23,23,0,0,0,14.74-6.09c5.67,4.26,13.45,5,19.42,3.92a31.85,31.85,0,0,0,14.74-7.12,20.14,20.14,0,0,0,2.29-2.19c13.45,4.26,27.85,2.87,41.5,0,9.7-2.08,20.16-5,28.48-11.82C245.29,179.34,246.87,167.38,238.52,160.6Z"/></svg>