<svg xmlns="http://www.w3.org/2000/svg" viewBox="0 0 256 256"><defs><style>.cls-1{isolation:isolate;}.cls-2{fill:#1d1d1b;opacity:0.5;}.cls-3{fill:#fff;}.cls-3,.cls-8{mix-blend-mode:screen;}.cls-4{fill:#c14e00;stroke:#b74d04;}.cls-4,.cls-5{stroke-miterlimit:10;stroke-width:2px;}.cls-5{fill:#ef852b;stroke:#c4590a;}.cls-6{fill:#dd6710;}.cls-7{fill:#edab7e;}.cls-8{fill:#0082e0;opacity:0.15;}</style></defs><g class="cls-1"><g id="Layer_54" data-name="Layer 54"><path class="cls-2" d="M142.86,232.36c-11.06,0-23.81-18-25.23-20.09-.93-1.35-1.49-3-1.65-7-13.52-2.71-23.29-7.82-29.07-15.24L85,187.63l8.51-28.15c-3.31-.6-5.63-1-6.54-1.15l-3.19-.48-1.38-3-1.34-3,1.81-2.8c2.77-4.29,9-23.69,15-42.45,14-43.79,23.81-73,32.68-80.16a9.8,9.8,0,0,1,6.4-1.78h1.46c10.26,0,12.85,13.44,14.25,20.67l.27,1.41c6.44,31,22.83,124.08,23.52,128l0,.17.51,2.28-.08.14.09.56-1.14,1.1-.19.3c-1.29,2.06-3.8,4.47-12,7.16l1.86,14.88-.56,1.43c-3.68,9.34-10.9,25.49-17.89,28.68a9.94,9.94,0,0,1-4.17.89Z"/><path class="cls-3" d="M140.86,231.36c-11.06,0-23.81-18-25.23-20.09-.93-1.35-1.49-3-1.65-7-13.52-2.71-23.29-7.82-29.07-15.24L83,186.63l8.51-28.15c-3.31-.6-5.63-1-6.54-1.15l-3.19-.48-1.38-3-1.34-3,1.81-2.8c2.77-4.29,9-23.69,15-42.45,14-43.79,23.81-73,32.68-80.16a9.8,9.8,0,0,1,6.4-1.78h1.46c10.26,0,12.85,13.44,14.25,20.67l.27,1.41c6.44,31,22.83,124.08,23.52,128l0,.17.51,2.28-.08.14.09.56-1.14,1.1-.19.3c-1.29,2.06-3.8,4.47-12,7.16l1.86,14.88-.56,1.43c-3.68,9.34-10.9,25.49-17.89,28.68a9.94,9.94,0,0,1-4.17.89Z"/><path class="cls-4" d="M142.65,183.92s22.87-4,25.9-8.8l-1.57-7-26.46-6.58Z"/><path class="cls-5" d="M136.29,32.43l21.05,167.16s-9,22.76-14.8,25.42-17.48-10.64-22-17.15,15-169.38,15.67-175.44C136.25,32.39,136.28,32.4,136.29,32.43Z"/><path class="cls-6" d="M156.77,195.08,120,196c-.07,2.08.68,4.08.68,5.67a157.53,157.53,0,0,0,29.08.45,51.94,51.94,0,0,0,5.92-.45,6.87,6.87,0,0,1,1.63-2Z"/><path class="cls-5" d="M157.34,199.59s-51.56,6.5-67.7-14.2l45.62-151a.74.74,0,0,1,1.44.12Z"/><path class="cls-7" d="M90.71,185.64c16.14,20.7,66,13,66,13l-2-16c-13.31.43-29.42-.91-40.92-5.15-8.26-3.05-14.15-8.25-17.08-12.85Z"/><path class="cls-5" d="M145,47c-.94-4.51-2.8-17.43-8.74-17.29-.68,0-3.24-.18-4,.43-13.39,10.77-38.17,108.5-46.4,121.24a.05.05,0,0,0,0,.08c2.67.44,76.08,12.82,82.49,23.43,0,.06.11,0,.1,0C167.44,168.81,151.39,77.73,145,47Z"/><path class="cls-7" d="M167.71,173.64s-2.88-12.52-6-30c-19-7.46-49.6-11.55-66-14-3.59,10.66-7,18-8,21C87.71,150.64,162.33,162.78,167.71,173.64Z"/><path class="cls-8" d="M130.61,44.7s-38.29,91.57-30.47,100.64,14.56-3.73,31-1.6,16.45,8,12.41-34.67S140.86,23.54,130.61,44.7Z"/><path class="cls-8" d="M101.49,159.21s-5.93,22.23-5.66,25.43,39.37,10.85,44.49,10.49,4.32-24,4.32-24S109.31,166.68,101.49,159.21Z"/><path class="cls-8" d="M126.84,203.85S132,217.36,136.55,219s15.91-13.11,15.3-14.05C151,203.61,135.06,205.36,126.84,203.85Z"/></g></g></svg>