<svg id="Layer_54" data-name="Layer 54" xmlns="http://www.w3.org/2000/svg" viewBox="0 0 256 256"><defs><style>.cls-1{opacity:0.5;}.cls-2{fill:#fff;}.cls-3{fill:#5e3211;}.cls-3,.cls-34,.cls-8,.cls-9{stroke:#421c0f;}.cls-10,.cls-11,.cls-12,.cls-19,.cls-20,.cls-22,.cls-25,.cls-3,.cls-34,.cls-35,.cls-36,.cls-38,.cls-8,.cls-9{stroke-miterlimit:10;}.cls-12,.cls-4{fill:#3c200f;}.cls-5{fill:#2c180c;}.cls-22,.cls-25,.cls-35,.cls-6{fill:#9c4e23;}.cls-7{fill:#7c391a;}.cls-36,.cls-8,.cls-9{fill:#723b18;}.cls-12,.cls-35,.cls-8{stroke-width:3px;}.cls-10{fill:#6b2f13;stroke:#3c180c;}.cls-10,.cls-11,.cls-20,.cls-22,.cls-38{stroke-width:2px;}.cls-11{fill:#9b4c23;stroke:#4a1e0e;}.cls-12{stroke:#28150d;}.cls-13{fill:#172228;opacity:0.33;}.cls-14{fill:#f4a1a2;}.cls-15{fill:#d22a28;}.cls-16{fill:#1d75ba;}.cls-17{fill:#243f54;}.cls-18{fill:#faae42;}.cls-19{fill:#b5b0c1;stroke:#595367;}.cls-20{fill:#d0af8f;stroke:#412412;}.cls-21{fill:#ae896e;}.cls-22,.cls-35{stroke:#482211;}.cls-23,.cls-38{fill:#d58046;}.cls-24{fill:#a25c2a;}.cls-25{stroke:#582811;}.cls-25,.cls-36{stroke-width:4px;}.cls-26{fill:#222b62;}.cls-27{fill:#610b0d;}.cls-28{fill:#f48e8f;}.cls-29{fill:#cd3332;}.cls-30{fill:#e15050;}.cls-31{fill:#841a19;}.cls-32{fill:#131a28;}.cls-33{fill:#cd783e;}.cls-34{fill:#3b2010;}.cls-36{stroke:#472310;}.cls-37{fill:#572d0e;}.cls-38{stroke:#50230f;}.cls-39{fill:#411211;}.cls-40{fill:#e59662;}</style></defs><path class="cls-1" d="M138.33,229a7.22,7.22,0,0,1-4.86-1.76,9.08,9.08,0,0,1-2,1.13l-.49.21-.52.09a9.74,9.74,0,0,1-1.68.16c-2.43,0-5.83-1-8.22-5.71a15.86,15.86,0,0,1,.88-16.63,13.56,13.56,0,0,1,2.92-5.22c2-2.29,2.7-5.16,2.44-9.5a14.8,14.8,0,0,1-2.61-6.9,17.77,17.77,0,0,1-4-2.54,9.34,9.34,0,0,1-2.43-2.15l-1.12-1.12-.17.25-2.67,6.54-.6,1.52c-.12.4-.24.81-.37,1.21a20.13,20.13,0,0,0-.8,3.14V196a15,15,0,0,1,2.13,8.55,7.21,7.21,0,0,1-2.2,5.32,10,10,0,0,1,.67,6.61c-1,3.61-4.06,5.67-6.92,7.2a26.06,26.06,0,0,1-12.43,3,33.54,33.54,0,0,1-5-.39,7.78,7.78,0,0,1-5-2.65h-.43a8.74,8.74,0,0,1-2-.23,6.63,6.63,0,0,1-5.16-8.17A14.29,14.29,0,0,1,77,211.93a40.13,40.13,0,0,1,7.74-10.29,15.46,15.46,0,0,1,3-2.23c1.1-2.07,1.35-4.47.82-7.74l0-.08c-.13-.19-.28-.43-.44-.71A7.06,7.06,0,0,1,86.61,188a11.81,11.81,0,0,1-.86-4.85,5.43,5.43,0,0,1-.85-.94,5.36,5.36,0,0,1-.66-4.87,9.29,9.29,0,0,0,.39-2.27,5.13,5.13,0,0,1-2.87-2.16,5.19,5.19,0,0,1-.55-4.36,30,30,0,0,0-.62-10.45c-.08-.32-.17-.65-.26-1a18.46,18.46,0,0,1-11.19,5.48,57.25,57.25,0,0,1-8,.67,31,31,0,0,1-6.61-.67c-7.23-1.55-10.62-6.25-9.65-13.31-1-.31-2-.65-2.93-1l-.11,0a14.06,14.06,0,0,1-2.57,2A11.45,11.45,0,0,1,33,152.17a10.07,10.07,0,0,1-10-8.16A43.41,43.41,0,0,0,18.7,132.3a13.71,13.71,0,0,1-1.32-4.51,12.84,12.84,0,0,1,2.69-10.38,11.62,11.62,0,0,1,7.25-3.78c0-.66,0-1.34,0-2a28.39,28.39,0,0,1-4.13.31,31.56,31.56,0,0,1-7.43-.93L8.7,109.26l4.16-6c1.17-1.67,2.21-3.42,3.31-5.28a54,54,0,0,1,7.15-10.09,32.12,32.12,0,0,1-6.9-4.24C9.54,78.18,6,70.47,6,60.76A51.54,51.54,0,0,1,11.72,37c0-.11.1-.23.16-.35.54-1.2,2.18-4.83,6.24-4.83a6,6,0,0,1,1.4.16c1.83.43,4.92,2,4.92,7.37,0,.15,0,.29,0,.42a59.9,59.9,0,0,1-.45,11A8.61,8.61,0,0,0,28.86,60a27.58,27.58,0,0,0,10.87,2.72,25.68,25.68,0,0,1,9.47-5.3l.09,0a28.23,28.23,0,0,1,19.87-7.75A34,34,0,0,1,86.94,54.7,11,11,0,0,0,90.6,56a62.54,62.54,0,0,1,15.19-12c.29-.16.54-.3.78-.45a15.21,15.21,0,0,1,4.22-1.85,29.57,29.57,0,0,1,6.13-2.21,35.3,35.3,0,0,1,8.82-1.19c.77,0,1.56,0,2.32.09l1.62,0a21.09,21.09,0,0,1,6.53,1.18,5.94,5.94,0,0,1,3.9-3.58,6.38,6.38,0,0,1,2-.32c3.76,0,5.44,3.07,6.07,4.23.07.13.13.25.2.36a28.86,28.86,0,0,1,3,5.59c5.3,2.77,10.77,5.61,16.25,8,1,.29,2,.62,3,.94a30.3,30.3,0,0,0,4.1,1.16,12,12,0,0,0,1.93.1c.7,0,1.48,0,2.33.09l1.72,0c4.89-.29,8.92-.43,12.69-.43a106.29,106.29,0,0,1,20.94,1.88,18.2,18.2,0,0,1,8.21,3.28,10.14,10.14,0,0,1,2.44,2.15l.87.87L227,65.2a35.67,35.67,0,0,1,6.87,10.86l.45,1.26A34.87,34.87,0,0,1,237,87.56l0,.16.07,1.06a7.89,7.89,0,0,1,.34,1.79c9.47,9.74,16.43,25.9,17,39.61l.35,8.21-2.3-1.07c0,1.28,0,2.58-.08,3.89a38.79,38.79,0,0,1-2.36,11.07l-3.38,9.17-.67-1c0,2.49,0,5.29.25,8.36l.48,6.71L240.17,174a12.9,12.9,0,0,1-4.44-1.9,19.07,19.07,0,0,1-2.21,3.28l-3.44,4.07-1.79-1.73a15.68,15.68,0,0,1-1.08,1.26l0,.11v2.36l0,8.61a2.34,2.34,0,0,0,.25,1.27,12.14,12.14,0,0,1,1.51,7.46,6,6,0,0,1-3.12,5.3c0,.45-.06.84-.1,1.15.3,3.42-1.13,6.51-4.23,9.19-5.33,4.6-11.71,5.31-17.25,5.39h-.1a6.31,6.31,0,0,1-3.66-1.15,26.86,26.86,0,0,1-3.88.27c-.72,0-1.48,0-2.26-.08-1.05-.07-4.23-.27-6.12-3s-.94-5.82-.63-6.84a23.07,23.07,0,0,1,8.7-12,33.5,33.5,0,0,1,2.39-6.69c2.26-4.87,3-9.35,2.23-13.69-1-1.1-2-2.23-3-3.37-.3.43-.63.86-1,1.28a18.83,18.83,0,0,1-3.94,4l-3.27,2.58,1,9.42L188,188.63a5.31,5.31,0,0,0,1,2.65l.39.51.25.59a6,6,0,0,1-.13,5.36,5.76,5.76,0,0,1-.9,1.21,9.24,9.24,0,0,1-1.65,6.44c-3.13,7.23-9.83,9.45-14.67,10.49a18.25,18.25,0,0,1-3.84.38,28.5,28.5,0,0,1-4.74-.44l-.17,0a10.26,10.26,0,0,1-5-2c-.23,0-.46,0-.7,0a6.69,6.69,0,0,1-4.34-1.52l-.19.42c-.7,5.33-2.79,9.41-6.36,12.44a5.1,5.1,0,0,1-.59.49C143.19,228,140.72,229,138.33,229Zm13.22-45.52a54.71,54.71,0,0,0,1.89,15.7c.09.39.19.79.28,1.2a27.61,27.61,0,0,1,3-4.53,21.35,21.35,0,0,1,.66-3.63l-4-5.43A17.53,17.53,0,0,1,151.55,183.47Z"/><path class="cls-2" d="M133.57,224.22a7.22,7.22,0,0,1-4.86-1.76,9.14,9.14,0,0,1-2,1.13l-.5.21-.52.09a8.84,8.84,0,0,1-1.68.16c-2.43,0-5.83-1-8.21-5.7a15.89,15.89,0,0,1,.87-16.64,13.64,13.64,0,0,1,2.92-5.21c2-2.3,2.7-5.16,2.44-9.51a14.91,14.91,0,0,1-2.61-6.9,18.26,18.26,0,0,1-4-2.53A9.61,9.61,0,0,1,113,175.4l-1.12-1.12a2.2,2.2,0,0,1-.17.25l-2.67,6.54-.6,1.52-.36,1.21a19.45,19.45,0,0,0-.81,3.14v4.26a14.83,14.83,0,0,1,2.13,8.55,7.15,7.15,0,0,1-2.2,5.31,10,10,0,0,1,.67,6.61c-1,3.61-4,5.67-6.92,7.21a26,26,0,0,1-12.43,3,33.31,33.31,0,0,1-5-.39,7.81,7.81,0,0,1-5-2.65h-.43a8.65,8.65,0,0,1-2-.23A6.62,6.62,0,0,1,71,210.48a14.37,14.37,0,0,1,1.22-3.32A39.92,39.92,0,0,1,80,196.88a15.06,15.06,0,0,1,3-2.23c1.1-2.08,1.35-4.48.82-7.75l0-.07c-.13-.2-.28-.44-.43-.72a6.76,6.76,0,0,1-1.42-2.86A11.64,11.64,0,0,1,81,178.4a5.43,5.43,0,0,1-.85-.94,5.33,5.33,0,0,1-.65-4.87,9.79,9.79,0,0,0,.38-2.27,5.13,5.13,0,0,1-3.42-6.52,29.94,29.94,0,0,0-.62-10.44c-.08-.33-.16-.65-.26-1a18.46,18.46,0,0,1-11.18,5.48,57.54,57.54,0,0,1-8,.67,31.72,31.72,0,0,1-6.61-.66c-7.23-1.56-10.62-6.26-9.65-13.31-1-.31-2-.66-2.93-1l-.1,0a13.65,13.65,0,0,1-2.58,2,11.45,11.45,0,0,1-6.23,1.88,10.07,10.07,0,0,1-10-8.15,43.34,43.34,0,0,0-4.35-11.72A13.71,13.71,0,0,1,12.61,123a12.85,12.85,0,0,1,2.69-10.38,11.62,11.62,0,0,1,7.25-3.78c0-.66,0-1.34,0-2a27.28,27.28,0,0,1-4.14.31,31.11,31.11,0,0,1-7.43-.93l-7.06-1.73,4.16-6c1.17-1.67,2.21-3.42,3.32-5.27a53.26,53.26,0,0,1,7.14-10.1,32.49,32.49,0,0,1-6.9-4.23C4.77,73.41,1.26,65.7,1.21,56A51.7,51.7,0,0,1,7,32.19l.16-.35C7.65,30.65,9.29,27,13.35,27a6,6,0,0,1,1.4.16c1.84.43,4.92,2,4.92,7.37,0,.15,0,.29,0,.42a59.93,59.93,0,0,1-.44,11,8.6,8.6,0,0,0,4.85,9.27C27.27,56.93,30.79,57.61,35,58a25.68,25.68,0,0,1,9.47-5.3l.1,0A28.18,28.18,0,0,1,64.4,44.88a34.09,34.09,0,0,1,17.78,5,10.94,10.94,0,0,0,3.65,1.27,62.73,62.73,0,0,1,15.19-12l.78-.44A15.33,15.33,0,0,1,106,36.91a30.77,30.77,0,0,1,6.13-2.21A35.36,35.36,0,0,1,121,33.51c.78,0,1.56,0,2.32.09l1.63,0a21.32,21.32,0,0,1,6.52,1.18,5.93,5.93,0,0,1,3.91-3.58,6.29,6.29,0,0,1,2-.32c3.75,0,5.43,3.08,6.06,4.23.07.13.13.25.2.36a29.48,29.48,0,0,1,3,5.59c5.29,2.77,10.76,5.61,16.24,8,1.05.29,2,.62,3,.94a30.71,30.71,0,0,0,4.1,1.16,12,12,0,0,0,1.93.1c.7,0,1.49,0,2.33.09l1.72,0c4.89-.3,8.92-.43,12.69-.43a106.33,106.33,0,0,1,20.94,1.87,18.2,18.2,0,0,1,8.21,3.28,9.94,9.94,0,0,1,2.44,2.15l.88.87,1.15,1.28a36,36,0,0,1,6.86,10.86l.45,1.26a34.85,34.85,0,0,1,2.72,10.25l0,.15.07,1.06a7.89,7.89,0,0,1,.34,1.79c9.47,9.75,16.43,25.9,17,39.62l.35,8.21-2.3-1.08c0,1.29,0,2.58-.08,3.89a39,39,0,0,1-2.35,11.07l-3.39,9.18-.66-1c0,2.48,0,5.28.24,8.35l.48,6.71-6.56-1.49a12.9,12.9,0,0,1-4.44-1.9,19.07,19.07,0,0,1-2.21,3.28l-3.44,4.07L223.52,173c-.33.42-.69.84-1.08,1.25l0,.11v2.37c0,2.86,0,5.73,0,8.6a2.44,2.44,0,0,0,.25,1.27,12.15,12.15,0,0,1,1.51,7.46,6,6,0,0,1-3.12,5.3c0,.45-.06.84-.09,1.15.29,3.43-1.13,6.51-4.24,9.19-5.32,4.6-11.71,5.31-17.24,5.39h-.11a6.31,6.31,0,0,1-3.66-1.15,26.76,26.76,0,0,1-3.88.27c-.72,0-1.48,0-2.26-.08-1-.07-4.23-.27-6.11-3s-.95-5.82-.63-6.84a23.09,23.09,0,0,1,8.7-12,32.91,32.91,0,0,1,2.38-6.69c2.26-4.87,3-9.34,2.23-13.68-1-1.11-2-2.24-3-3.38a14.63,14.63,0,0,1-1,1.28,18.8,18.8,0,0,1-3.93,4l-3.28,2.58,1,9.42-2.68-1.92a5.28,5.28,0,0,0,1,2.65l.38.51.25.59a5.92,5.92,0,0,1-.13,5.36,6,6,0,0,1-.9,1.22,9.22,9.22,0,0,1-1.65,6.43c-3.13,7.23-9.83,9.45-14.67,10.49a18.24,18.24,0,0,1-3.84.39,27.56,27.56,0,0,1-4.74-.45l-.17,0a10.46,10.46,0,0,1-5-2c-.22,0-.46,0-.7,0a6.69,6.69,0,0,1-4.34-1.52c-.05.14-.12.28-.18.42-.7,5.33-2.79,9.41-6.37,12.45-.2.18-.39.34-.59.49C138.42,223.19,136,224.22,133.57,224.22Zm13.21-45.52a54.71,54.71,0,0,0,1.89,15.7c.09.39.19.79.28,1.2a28.71,28.71,0,0,1,3-4.53,21.07,21.07,0,0,1,.66-3.62l-4-5.44A17.53,17.53,0,0,1,146.78,178.7Z"/><path class="cls-3" d="M76.38,71c2.74-.21,25.87-45.14,62.22-27.72,6.63,3.18,24.67,14.41,34.07,13.93s36-1.58,42.43,4c8.51,7.42,16.08,22.19,10.13,43.17A42.9,42.9,0,0,0,218,96.9c.76,3.78,4.14,12.47,3.21,19.1-1.16-2.45-2.38-4.9-3.17-5.33-.15,4.61,1.47,16.94-2.31,27a36,36,0,0,0-2.92-9.62c-.76,5.19-2.05,15.89-6.6,24.22-.21-4.65-2.91-15.68-6.05-19.25-.76,2.92-2.49,11-1.84,14.27-3.46-3.24-7.57-16.21-9.62-23.35a65.66,65.66,0,0,0-.33,12c-3.24-2.7-5.37-11.06-5.73-15.17-.79,2.31-.57,11.32-.07,14-1.73-2-5.26-10.45-6-13.55-.65,4.11.39,13.7.72,19.65-1.62-.11-3.57-4.33-4.87-6.06,0,5.19-.47,14.52-5.3,19.28.44-3.82,1-12.9-1.87-18-.79,3.46-1.73,9.08-3.39,12-.36-4.9-1.15-16.51-7-21.92-.36,6.92-3.42,21.52-13.37,28,1.51-4.47,2.49-21.77-2-28.69-1.52,4.11-4.44,13-8,16.55-.21-6.92-1.29-16.11-6.77-21.52-1.15,1.44-3.24,7.06-3.17,9.08-1.88-.86-2.81-9.22-2.81-11-1.44,2.45-6.6,19.25.32,33.09-3-1.19-6.38-8.76-6.92-10.6-.22,4-.43,10.71.43,14.6-5-1.3-11.84-8.15-14.92-18.06a11.76,11.76,0,0,0-1.29,7c-2.92-1.19-6.17-7-6.17-17S76.38,71,76.38,71Z"/><path class="cls-4" d="M180.56,190c-.46,1.62-3,1.8-4.47,0-.46-1.27.62-6.1.62-6.1"/><path class="cls-5" d="M176.27,186.21a10.87,10.87,0,0,0-.18,3.83c1.48,1.8,4,1.62,4.47,0v0C179,190.22,177.78,187.62,176.27,186.21Z"/><path class="cls-6" d="M178.19,168.52a71.61,71.61,0,0,0-.94,13.33,66.66,66.66,0,0,1,0,8.29c-.23,2.51,2.18,6.28-1.06,8.33s-18.6-1.62-18.38-3.78-.27-4.73,2.37-9.88a34.52,34.52,0,0,0,3.18-14.7c-.15-.73-.15-8.94,5.47-9.45S178.73,164.57,178.19,168.52Z"/><path class="cls-6" d="M165,163.05a12.67,12.67,0,0,0-1.61,7.06,34.52,34.52,0,0,1-3.18,14.7c-2.64,5.15-2.16,7.71-2.37,9.88,0,.3,1.08,0,1.59.36.27-4.49,1.22-6.43,2.73-10C164.87,178.39,166.91,170.6,165,163.05Z"/><path class="cls-7" d="M175.46,162.62a8.14,8.14,0,0,1-.37,3.45c-3.9,10-.44,19.89-3.46,29.84a21.64,21.64,0,0,1-1.3,3c2.57.26,4.81.19,5.84-.46,3.24-2.05.83-5.82,1.06-8.33a66.66,66.66,0,0,0,0-8.29,71.61,71.61,0,0,1,.94-13.33A6.68,6.68,0,0,0,175.46,162.62Z"/><path class="cls-8" d="M172.86,199.51c-5.18,0-13.54-2.2-15.15-4a1.12,1.12,0,0,1-.35-.89c0-.4,0-.82.07-1.27a18.1,18.1,0,0,1,2.35-8.76,33.84,33.84,0,0,0,3.13-14.42c-.14-.72-.1-5,1.91-7.72a5.38,5.38,0,0,1,4-2.24,9.54,9.54,0,0,1,8.07,3.13,6.65,6.65,0,0,1,1.76,5.22,71.11,71.11,0,0,0-.93,13.27c0,1,0,1.77.07,2.52a40.23,40.23,0,0,1-.09,5.81,9.68,9.68,0,0,0,.29,2.49c.42,2,.94,4.59-1.55,6.16A6.88,6.88,0,0,1,172.86,199.51Z"/><path class="cls-4" d="M101.67,191.91a10.57,10.57,0,0,1,2.81,8.7c-.43,1.52-2.65,1.52-4.43-.54C99.08,197.37,101.67,191.91,101.67,191.91Z"/><path class="cls-5" d="M100.28,195.71a8,8,0,0,0-.23,4.36c1.78,2.06,4,2.06,4.43.54a3.26,3.26,0,0,0,.12-.73C102.81,199.12,101.44,197.4,100.28,195.71Z"/><path class="cls-7" d="M78.66,130.64c-1.64,8.18-.81,12.83,1.21,18.08a34,34,0,0,1,1.58,17.2c1.59-1,2.38-2.88,3.17-3.89.44,2.89,1.09,10.53-.36,12.83,1,.22,2.63-1.76,2.85-2-.4,2-2.25,7.89,1.21,11.35,1.3,2.22,1.13,7.5.49,10.17s-3.75,5.26-2.89,7.71,13.19,6.34,15.43,6.13c.36-1.3.57-2.81,0-6.71s1.29-6.21,1-13.12,5.69-13.33,5.19-20.25-6.85-20.27-6.85-20.27Z"/><path class="cls-6" d="M90.21,183.75c-2.43-3.5-3.45-8.19.54-17.25-1.3.87-2.59,2.16-3.89,3A74,74,0,0,0,86,155.69a8.15,8.15,0,0,1-2.32,4.22c.43-6.49-.24-7.46-2.33-13.63C80.26,143,79.28,134.79,80,131.65l-1.29-1c-1.64,8.18-.81,12.83,1.21,18.08a34,34,0,0,1,1.58,17.2c1.59-1,2.38-2.88,3.17-3.89.44,2.89,1.09,10.53-.36,12.83,1,.22,2.63-1.76,2.85-2-.4,2-2.25,7.89,1.21,11.35,1.3,2.22,1.13,7.5.49,10.17s-3.75,5.26-2.89,7.71c.3.84,1.94,1.85,4.06,2.8-1.47-2.22-.56-6.6.55-9.92C92,190.76,91.46,185.55,90.21,183.75Z"/><path class="cls-7" d="M102.36,188.41c-.3-7,5.69-13.33,5.19-20.25-.29-3.93-2.45-9.92-4.27-14.37a111.24,111.24,0,0,1-.85,14c-.87,5.62-4.06,10.7-4.49,16.33-.43,7.35,1,13.94-3.73,20.43-.35.53-.72,1.07-1.12,1.6,3.48,1.26,7.14,2.18,8.26,2.08.36-1.3.57-2.81,0-6.71S102.64,195.32,102.36,188.41Z"/><path class="cls-9" d="M88,171.79l-.28,1.4c0,.21-.1.47-.17.76-.54,2.36-1.67,7.27,1.26,10.2l.06.09c1.35,2.3,1.22,7.66.54,10.48a12.1,12.1,0,0,1-1.56,3.22c-.92,1.52-1.8,2.95-1.34,4.25.74,2.08,11.81,5.73,14.68,5.84.28-1.1.45-2.61-.09-6.21a15.14,15.14,0,0,1,.35-5.3,31,31,0,0,0,.66-7.86c-.15-3.57,1.27-7,2.65-10.24s2.79-6.61,2.54-10c-.47-6.46-6.2-18.82-6.76-20L79.11,131.64c-1.44,7.68-.6,12.14,1.32,17.14a35,35,0,0,1,1.81,16.3,11.79,11.79,0,0,0,1.47-2c.26-.4.49-.78.74-1.09l.62-.79.14,1c.36,2.36,1,9.13,0,12.26A8,8,0,0,0,86.82,173l.15-.16Z"/><path class="cls-3" d="M191.52,149.42c1,6.7.54,14.81-6.49,20.43a9.39,9.39,0,0,0-3.62-7.46c-.16,2.33-2.86,8.92-1.78,12.76-2.38-.81-4.71-4.65-5.19-8.05-1,2.05-3,6.43-4.92,7.46.38-3.19-.22-6.82-.71-7.41a49.07,49.07,0,0,1-8.79,14.7c-.72-1.44-2.38-7.85-2.59-13.55-1.23,1.81-4.47,7.57-4.83,10.38-1.45-1.65-2.3-4.75-2.66-11.75-2.68,3.68-6.43,9.73-14.64,10.6s-18.06-.46-24.94-14.78c-.72,4.62-1.59,8-3.39,9.95-.51-4.25-5.84-11-8.33-14.74a17.69,17.69,0,0,0,0,5.3c-2.48-.81-10.59-8.22-12.11-19.14a12,12,0,0,0-2.16,4.6c-1.84-3.09-1.4-10-6.59-13.14s12.32-24,12.32-24l49.74-7.36,46.27,12.84Z"/><path class="cls-10" d="M188.24,129.76a38.94,38.94,0,0,0,1,5.91Z"/><path class="cls-7" d="M157.78,119.9c3.47,7,3.36,21.84.28,27.9a8.57,8.57,0,0,0-1.73-4.49c0,4.22-.38,11.15-4.42,14.22a15.15,15.15,0,0,0-.36-5.91,56.13,56.13,0,0,1-7.68,16.54c-4.46,6.7-3.06,18.59-1.76,24.2s3.49,12.57-1.28,16.33-18.62.09-18.62-3.37,2.71-5,4.44-8.54,1.84-10.92,1-12.22-4.43-5.08-.22-12.65c-.1-2.49-2.92-8.51-3.78-9.7a43.93,43.93,0,0,0-.18,5.63c-2.27-1.34-2.27-7.68-2.49-8.76a6,6,0,0,0-1.51,4c-1.8-1.73-1.44-5-.94-7.49a67.87,67.87,0,0,1-9-22.21c-1.87-9.22-.29-19.6,12.83-20.18S157.78,119.9,157.78,119.9Z"/><path class="cls-6" d="M127.62,184.56c.87,1.3.76,8.65-1,12.22s-4.44,5.08-4.44,8.54a2.69,2.69,0,0,0,1.34,1.93.28.28,0,0,1,.07-.09.28.28,0,0,0-.07.09,7.58,7.58,0,0,0,.81.53c.92-6.09,2.94-7.37,4.16-11,1.54-4.56,2.13-11.31,0-14.18-1.81-2.44-1.42-9-1.79-9.25C123.75,179.94,126.81,183.35,127.62,184.56Z"/><path class="cls-7" d="M157.78,119.9s-2.65-.87-6.68-2c3,6.89,6.85,13.65,5.39,21.35-1.73-.87-2.6-2.6-3.46-3.9,0,4.33.86,9.08.43,13.41-.86-2.6-3-4.33-4.32-6.49,1.15,10-7.17,19.35-9.33,25.36-2.89,8-4,16.34-1.05,25.24,1.87,6.25-1,12-4.52,17.39,2.62.06,5.07-.38,6.59-1.58,4.77-3.76,2.58-10.72,1.28-16.33s-2.7-17.5,1.76-24.2a56.13,56.13,0,0,0,7.68-16.54,15.15,15.15,0,0,1,.36,5.91c4-3.07,4.47-10,4.42-14.22a8.57,8.57,0,0,1,1.73,4.49C161.14,141.74,161.25,126.93,157.78,119.9Z"/><path class="cls-8" d="M134.73,210.71a25.07,25.07,0,0,1-8.56-1.6c-1.64-.64-4.39-2-4.39-3.79,0-2.3,1.14-3.82,2.35-5.43a20,20,0,0,0,2.13-3.3c1.7-3.51,1.77-10.64,1-11.79l-.24-.35c-1.2-1.65-4-5.5,0-12.64-.15-2-1.92-6.05-3-8.17a30.41,30.41,0,0,0-.08,4.13l.14.9-.79-.46c-2-1.19-2.38-5.58-2.58-7.94v-.09a6.72,6.72,0,0,0-.76,2.86v1l-.73-.71c-1.49-1.42-1.85-3.95-1.1-7.72a68.71,68.71,0,0,1-9-22.2c-1-4.72-1.35-11.31,2.21-15.86,2.34-3,6.06-4.62,11-4.84.5,0,1,0,1.55,0,13.17,0,33.86,6.72,34.07,6.79l.17.06.08.16c3.37,6.84,3.52,21.91.27,28.28l-.88,1.74.06-1.95a7.13,7.13,0,0,0-.87-3c-.12,6.47-1.66,10.87-4.58,13.08l-.87.67.19-1.09a16.06,16.06,0,0,0,0-4,59.65,59.65,0,0,1-7.26,14.93c-5.21,7.82-2.07,22.24-1.7,23.86.11.47.22,1,.34,1.44,1.32,5.49,2.81,11.72-1.78,15.33C139.7,210.13,137.5,210.71,134.73,210.71Z"/><path class="cls-4" d="M216.71,187A9.43,9.43,0,0,1,219,194.1c-.32,1.84-3.73,2-4.59.43S216.71,187,216.71,187Z"/><path class="cls-5" d="M215,190.87c-.57,1.49-1,3-.58,3.66.86,1.5,4.21,1.41,4.58-.39A10.12,10.12,0,0,1,215,190.87Z"/><path class="cls-7" d="M224.75,87.57c5.84,2.53,17.66,20.4,18.81,36.4a31.49,31.49,0,0,0-3.53-3.53c1.08,5.48,3.1,14.42.22,23.57a52.91,52.91,0,0,1-2.09-6.7c-1.16,5.48-2.89,10.59-3.18,16s.08,8.87.44,10.24c-2.6-.87-5-4.11-5.87-11.25-1.2,3.1-1.85,9.95-4.8,14.06a28.89,28.89,0,0,1-2.6-6.92c-.57,2.88-.72,8.79-5.69,12.47-3-5.77,2-25.88,3.46-36.26s5.31-31.28,5.31-31.28Z"/><path class="cls-11" d="M216.31,172.56l-.23-.46c-2.29-4.46-.09-16.61,1.86-27.33.61-3.4,1.19-6.6,1.55-9.18,1.4-10,5.11-30.16,5.31-31.26l-.5-17.42.62.27c6.39,2.76,17.94,21.08,19.07,36.76l.1,1.34-.86-1a26.07,26.07,0,0,0-2.52-2.62c1.12,5.63,2.65,13.93-.05,22.51l-.36,1.15-.45-1.11a52.75,52.75,0,0,1-1.66-5c-.25,1.08-.52,2.15-.78,3.19a58.35,58.35,0,0,0-2,11,39,39,0,0,0,.42,10.11l.2.77-.76-.25c-1.72-.58-4.64-2.61-5.88-9.7-.17.65-.34,1.38-.53,2.15-.77,3.28-1.73,7.36-3.77,10.2l-.38.52-.34-.54a29.45,29.45,0,0,1-2.13-5.08c-.5,3.19-1.39,7.69-5.53,10.75Z"/><path class="cls-7" d="M224.25,82.19c2.88,4.45,8.21,26.21,3.31,45.82-1.15-2.74-2-4-3.31-4.9,1,6.34,2.37,14.42,0,20.11a8.8,8.8,0,0,0-3-3.53c.58,4.11.07,14.05-2.74,25.73s-.86,21.08-1.46,23.46-2.16,3.89-1.78,6.11,1.26,6.54-.87,8-18.09-3.53-18.31-6,.58-5.69,2.38-9.22,4.11-11.68,2.16-18.31c-5.4-5.63-13.47-14.75-15.2-26.75a16.25,16.25,0,0,0-1,6.33c-2.65-1.95-6.09-11.8-5-26.15S224.25,82.19,224.25,82.19Z"/><path class="cls-6" d="M209.25,172.56c-6.87-5.1-12.81-9.71-16.91-17.42-1.73-1.69-3.12-4.27-5.57-7,2.95,9.32,9.35,16.56,13.9,21.3,2,6.63-.36,14.77-2.16,18.31s-2.59,6.77-2.38,9.22c0,.39.47.84,1.17,1.32.79-3.94,1.78-5.77,3.66-9.75,2.81-5.94,2.68-10.38,2.68-16A7.1,7.1,0,0,0,209.25,172.56Z"/><path class="cls-7" d="M227.56,128c4.9-19.61-.43-41.37-3.31-45.82,0,0-2.22,1.34-5.65,3.57,5.77,10.65,9.45,22.94,8,34.9-2.59-.87-3.89-3.46-5.62-5.19-.43,7.35,2.59,14.27,2.16,21.62a46,46,0,0,1-6.05-6.92c1.73,12.11-.44,23.36-3,35.47-1.73,6.92,1.3,13.4-.87,20.32-.86,2.6-2.54,3.46-2.21,6.49.86,5.19-.38,5.19-3,9.52-.08.13-.17.25-.26.37,3.16.81,5.95,1.18,6.75.63,2.13-1.44,1.25-5.76.87-8s1.19-3.73,1.78-6.11-1.35-11.78,1.46-23.46,3.32-21.62,2.74-25.73a8.8,8.8,0,0,1,3,3.53c2.37-5.69,1-13.77,0-20.11C225.54,124,226.41,125.27,227.56,128Z"/><path class="cls-8" d="M185.68,141.2l.21,1.45c1.63,11.27,8.92,20.09,15.1,26.51l.07.07,0,.11c2,6.67-.24,14.79-2.19,18.62-1.72,3.37-2.55,6.56-2.34,9,.15,1.7,11.89,5.85,16.53,5.85a2.19,2.19,0,0,0,1.11-.18c1.78-1.21,1.11-5.1.74-7.19l-.06-.37a6.33,6.33,0,0,1,.89-3.95,12.67,12.67,0,0,0,.9-2.33,19.73,19.73,0,0,0,0-4.06,67.26,67.26,0,0,1,1.44-19.4c2.93-12.17,3.24-22,2.73-25.57l-.11-.82.73.37a8.52,8.52,0,0,1,2.7,2.88c1.81-5.38.65-12.63-.29-18.53l-.23-1.45.83.55a8.56,8.56,0,0,1,2.95,3.91c4.13-18.22-.34-38.61-3.34-43.87-4.23,2.6-43.19,26.87-44.19,40.14s1.89,22.16,4.11,25a17.34,17.34,0,0,1,1-5.42Z"/><path class="cls-6" d="M79.4,68.58c2.74-.21,23.87-41.75,60.22-24.33,6.64,3.18,23.78,14.53,33.19,14s36.18-2.19,42.73,4.64c6.27,6.54,14,19.3,8,40.27-1.08-1.73-3.13-4.43-4.54-5.29.76,3.78,4.15,12.47,3.21,19.1-1.15-2.45-2.38-4.9-3.17-5.34-.15,4.62,1.48,16.94-2.31,27a35.93,35.93,0,0,0-2.92-9.62c-.75,5.19-2.05,15.89-6.59,24.21-.22-4.64-2.92-15.67-6.06-19.24-.75,2.92-2.48,11-1.84,14.27-3.46-3.24-7.57-16.22-9.62-23.35a64.73,64.73,0,0,0-.32,12c-3.25-2.7-5.37-11.07-5.73-15.17-.8,2.3-.58,11.31-.08,14.05-1.73-2-5.26-10.45-6.05-13.55-.65,4.11.4,13.7.72,19.64-1.62-.11-3.57-4.32-4.87-6,0,5.19-.46,14.52-5.29,19.28.43-3.82,1-12.9-1.88-18-.79,3.46-1.73,9.08-3.39,12-.36-4.9-1.15-16.5-7-21.91-.36,6.92-3.42,21.52-13.37,28,1.52-4.47,2.49-21.77-2.05-28.69-1.52,4.11-4.44,13-8,16.54-.22-6.92-1.3-16.11-6.78-21.51-1.15,1.44-3.24,7.06-3.17,9.08-1.87-.87-2.81-9.23-2.81-11-1.44,2.45-6.6,19.24.32,33.08-3-1.18-6.38-8.75-6.92-10.59-.21,4-.43,10.7.44,14.6-5-1.3-11.85-8.15-14.93-18.06a11.73,11.73,0,0,0-1.29,7c-2.92-1.19-6.17-7-6.17-17S79.4,68.58,79.4,68.58Z"/><path class="cls-12" d="M196.1,195.91c-2.9,1.46-8.09,6.92-8.36,11.68-.11,2,7.78,1.08,10.11.38.05,1-.06,1.78,2.91,1.67s12.45-1.06,14.5-7.59C216.24,198.36,201.77,193.68,196.1,195.91Z"/><path class="cls-5" d="M194.42,208.6a26.48,26.48,0,0,0,3.21-.57,22.35,22.35,0,0,1,2.64-9.37C196.7,200.25,195,204.55,194.42,208.6Z"/><path class="cls-5" d="M209.92,197.39c.3,6.18-4.15,10.75-9.91,12.26h.75c3-.11,12.45-1.06,14.5-7.59C215.68,200.47,213.26,198.71,209.92,197.39Z"/><path class="cls-12" d="M157.78,193.24c-2.08,1.23-5.9,8.29-5.9,9.59s3.24.58,4.9,0c-.22,1.08-.22,2.2,2.27,2.7s7.6,1.19,12.29-1.33,6.17-5.28,5.77-6.55C176,194,165.73,190.74,157.78,193.24Z"/><path class="cls-5" d="M154.3,203.46a14.92,14.92,0,0,0,2.46-.63c.83-2.73,2.36-4.58,4.38-6.85C157.86,197.62,155.52,199.32,154.3,203.46Z"/><path class="cls-5" d="M177.11,197.65c-.49-1.61-2.74-3.14-5.77-4.13,1.53,7.11-4.79,11.6-11.54,12.15a18,18,0,0,0,11.54-1.47C176,201.68,177.51,198.92,177.11,197.65Z"/><path class="cls-12" d="M124.2,218.69c1.94,0,3.53-3.89,5.47-7.21.22,2,1.76,6.87,3.41,7.21,2.61.54,10.6-4.41,9.87-12.89-.84-5.24-16-6.31-20.55-2C116.92,209,120.3,218.36,124.2,218.69Z"/><path class="cls-5" d="M124.18,218.69h0c1.93,0,3.51-3.84,5.44-7.14a17.54,17.54,0,0,1,.81-6.47C127,209,126.77,214.45,124.18,218.69Z"/><path class="cls-5" d="M143,205.8c-.33-2.05-2.86-3.46-6.09-4.16,2.62,5.94,1,12.33-3.21,17.08C136.69,218.58,143.63,213.74,143,205.8Z"/><path class="cls-12" d="M86.3,199.26c-3.77,2-10.4,11.28-9.68,13.3s6-.05,6.62-.43c-.65,1.57-1.3,3.4,1.35,4s13.51.83,18-5.44c.87-2-1-6.5-6.56-9.56S86.3,199.26,86.3,199.26Z"/><path class="cls-5" d="M79.26,213.37a15.18,15.18,0,0,0,3.63-1.07c1.38-3.36,3.57-6.28,5.46-9.07C84.87,206.33,81.19,209,79.26,213.37Z"/><path class="cls-5" d="M96.08,201.13l-.41-.23c3.55,8.15-2.53,14.46-10.91,15.26,2.9.57,13.43.68,17.88-5.47C103.51,208.67,101.65,204.19,96.08,201.13Z"/><path class="cls-13" d="M141.86,45.69c4.86,3.26,5.2,9.47,5.73,15.45,1,11.12-4.31,47.14,0,61.94,6.48,5.29,15.47,2.39,21.63,5.69a30.17,30.17,0,0,0,16.2,3.38c12.7-.79,27.61-3.59,32.06-14.56.76-11.61-4.38-23.66-9.36-35.62C203.66,71.3,201,62.28,191,57L160.62,55.7Z"/><path class="cls-14" d="M143.8,46c4.86,3.15,5.2,9.14,5.74,14.9,1,10.73-4.32,45.46,0,59.74,6.47,5.1,15.46,2.3,21.62,5.49a31.25,31.25,0,0,0,16.2,3.26c12.7-.76,27.61-3.46,32.06-14,.76-11.2-4.38-22.82-9.36-34.35C205.6,70.72,203,62,193,56.9l-30.42-1.22Z"/><path class="cls-15" d="M160.37,79.25s5.07,23.19,7.64,31.08,46.23-1.69,46.23-1.69L203.16,77.37Z"/><path class="cls-16" d="M164.23,80.53s4.34,19.87,6.54,26.64,39.61-1.46,39.61-1.46l-9.49-26.78Z"/><path class="cls-15" d="M185.44,55.07c4.21-.47,11.7,2.67,14.79,5.18,1,.84,3.76,6.13,4.18,7.39,1.79,5.38,2.49,13.89,4.28,19.27-14.59,3.25-29.43,3.39-44.34,4.35-2.37.15-5.19.06-6.49-1.92a6.68,6.68,0,0,1-.81-3.31c-.63-9.5-.44-19.11-2.27-28.45-.7-3.59-2.88-7.48-6.05-9.3A66.36,66.36,0,0,0,185.44,55.07Z"/><path class="cls-17" d="M204.41,81.54c-12.38,2.72-25,2.84-37.64,3.64-2,.12-4.4,0-5.5-1.6a5.42,5.42,0,0,1-.69-2.72s0,0,0,0c-.19-2.88-.29-5.77-.42-8.66a98.91,98.91,0,0,0-1.5-15.08c-.59-3-1.66-5.12-4.35-6.64,9.51,4.75,20,5.69,30.37,4.55,3.58-.39,9.94,2.22,12.56,4.31.88.7,3.19,5.12,3.54,6.18A37.46,37.46,0,0,1,202,70.15c.42,2.07.78,4.27,1.19,6.35A41.16,41.16,0,0,0,204.41,81.54Z"/><path class="cls-18" d="M203.15,76.5a11.54,11.54,0,0,1-5.75.11,31.1,31.1,0,0,0-4.07-1c-3.09-.29-5.9,1.58-8.81,2.63a17.23,17.23,0,0,1-8.83.76c-2.26-.4-4.47-1.26-6.77-1.19-3,.1-5.63,1.72-8.34,3.08,0,0,0,0,0,0-.19-2.88-.29-5.77-.42-8.66,4.4-1.1,8.4-.66,13.11-.21a35.51,35.51,0,0,0,13.63-1.37c2.05-.62,4.11-1.44,6.25-1.34a40.13,40.13,0,0,1,4.7.9,14.58,14.58,0,0,0,4.12,0C202.38,72.22,202.74,74.42,203.15,76.5Z"/><path class="cls-19" d="M192.14,133.74c-1.52-3.19-4.43-7.34-10-12,0,0-13.55,7-11.7,15,1.23,5.26,11,5.1,17.53,4.39A5.19,5.19,0,0,0,192.14,133.74ZM186,138.23c-4.52.49-11.35.6-12.21-3.06-1.29-5.54,8.15-10.44,8.15-10.44a25.83,25.83,0,0,1,6.93,8.36A3.61,3.61,0,0,1,186,138.23Z"/><path class="cls-20" d="M179,123l1.56,3.27s.78-2.39,2.94-.17l2.83-2.56S182.35,118.07,179,123Z"/><path class="cls-19" d="M178.71,90.46s3.27,19.27,2.77,31.66l2.19-.34s-.44-20.09-2.83-31.32"/><path class="cls-17" d="M118.47,112.28c0,18.63-12.55,33.73-28,33.73-9.88,0-18.56-6.15-23.55-15.44,7.43,6.1,16.44,8.56,24.7,5.83,14.7-4.86,21.47-24.32,15.14-43.47a46.61,46.61,0,0,0-6-12C111.11,85.82,118.47,98,118.47,112.28Z"/><path class="cls-20" d="M50.26,80a52.42,52.42,0,0,1-12.93,1.76c-7.76.1-17.44-1.58-24.4-8.9C2.87,62.31,7.78,44.27,11.46,36.51c1.27-2.68,2.38-4.13,2.69-3.65,1.45,2.23,0,14.87,0,14.87C14.48,68.64,48.3,63.38,48.3,63.38,52.94,68.69,50.26,80,50.26,80Z"/><path class="cls-21" d="M38.65,74.09,38.12,81c-7.77.1-17.44-1.57-24.4-8.89C3.66,61.54,8.57,43.49,12.25,35.73c-1.52,6.09-2.91,16.42,1.66,25.61C20.91,75.44,38.65,74.09,38.65,74.09Z"/><path class="cls-22" d="M34.21,80.07c-5.41,1.56-8.87,4.21-13.36,9.5-3,3.57-5.89,10.15-7.73,11.86,3.78,1.71,16.71.78,20.28-5.28C35.32,91.68,34.21,80.07,34.21,80.07Z"/><path class="cls-23" d="M20.47,97.81c1.3-3,8-10.63,13.41-11.46,0,2.63-.43,6.45-.9,7.13C30,95.5,23.64,98.21,20.47,97.81Z"/><path class="cls-24" d="M21,96.87c3.47-2.31,5.65-6.57,10.11-7.78,1-.35.77,2,.16,3-1.77,2.79-7.33,4.61-10.7,5.59l-.06.12c3.17.4,9.48-2.31,12.51-4.33.47-.68.86-4.5.9-7.13C28.94,87.1,23,93.47,21,96.87Z"/><path class="cls-7" d="M21.15,98.28a5.54,5.54,0,0,1-.73,0l-.57-.07.23-.53c1.32-3.06,8.06-10.86,13.73-11.72l.51-.08v.51c0,2.05-.35,6.47-1,7.38l-.05.07-.07,0C30.43,95.7,24.68,98.28,21.15,98.28Z"/><path class="cls-25" d="M100.28,81.88c-.77,6.92,1.07,12,3.34,18.92S106,121,97.56,127.62s-18.2,7.6-22.23,11.28c-.94,5.69-2.53,12.11-10.46,13.4s-15.71.94-17.87-1.87S46.64,142,48.37,139c.14-1.51-14.92-14.56-17.63-20.5s-3.46-14.73,1.09-20.88c.21-4.43.43-17.89,5.73-23.11s30.05-8.67,41.84-6S100.28,81.88,100.28,81.88Z"/><path class="cls-7" d="M103.62,100.8c-2.27-6.92-4.11-12-3.34-18.92,0,0-2.76,10-3.58,9.19-1.26,8.44,2.41,13.15.54,23.53-1.7,9.41-10,15.36-19,17.52,0-2.59,0-4-1.29-6.27-3.89,7.35-3,17.73-10.81,22.05a24.11,24.11,0,0,1-19.52,1.3c1.08,4.26,10.66,3.92,18,2.72,7.93-1.29,9.85-7.33,10.79-13,4-3.68,13.8-4.69,22.23-11.28S105.89,107.72,103.62,100.8Z"/><path class="cls-7" d="M83.51,93.94c0,8.12-4.65,14.7-10.37,14.7s-10.37-6.58-10.37-14.7,4.64-14.69,10.37-14.69S83.51,85.83,83.51,93.94Z"/><path class="cls-26" d="M74.11,105.6c-2.9,0-5.27-3.25-5.27-7.25s2.37-7.25,5.27-7.25,5.27,3.25,5.27,7.25S77,105.6,74.11,105.6Zm0-13.86c-2.55,0-4.62,3-4.62,6.61s2.07,6.6,4.62,6.6,4.62-3,4.62-6.6S76.66,91.74,74.11,91.74Z"/><path class="cls-2" d="M73.09,108.64c-5.07,0-9.2-5.84-9.2-13s4.13-13,9.2-13,9.19,5.84,9.19,13S78.16,108.64,73.09,108.64Z"/><path class="cls-3" d="M75.39,140.59l-.85-.13a35.74,35.74,0,0,1,2.36-9.07S76.26,134.84,75.39,140.59Z"/><path class="cls-27" d="M52.64,134.5c-2.16,3.62-5.14,12.81,2.59,13.35s11.19-3.95,13.9-9.78,5.29-16.4,4-20.58C64.8,126.39,52.64,134.5,52.64,134.5Z"/><path class="cls-28" d="M62.64,133.2c-8.89,2.9-10.59,8.81-10.58,13.62a6,6,0,0,0,3.17,1c7.73.54,11.19-3.95,13.9-9.78,2.37-5.14,4.66-13.91,4.3-18.8A34.78,34.78,0,0,1,62.64,133.2Z"/><path class="cls-29" d="M61.58,134.49l.54.68c-3.84,3.05-2.75,8.43-2.73,8.48S57.33,137.87,61.58,134.49Z"/><path class="cls-30" d="M56.47,148.16h0c-.41,0-.84,0-1.27,0A6.33,6.33,0,0,1,51.81,147l-.18-.13v-.21c0-6.89,3.61-11.58,10.8-13.93A34.39,34.39,0,0,0,73,119.1l.7-1.69.13,1.82c.37,4.94-2,13.76-4.34,18.9S63.84,148.16,56.47,148.16Z"/><path class="cls-27" d="M52.69,132.22c-2.16,3.62-5.13,12.81,2.6,13.35s11.19-3.95,13.89-9.79,5.3-16.39,4-20.57C64.86,124.11,52.69,132.22,52.69,132.22Z"/><path class="cls-28" d="M62.69,130.92c-8.89,2.9-10.59,8.81-10.57,13.62a6,6,0,0,0,3.17,1c7.73.54,11.19-3.95,13.89-9.79,2.38-5.13,4.67-13.9,4.31-18.79A34.92,34.92,0,0,1,62.69,130.92Z"/><path class="cls-29" d="M61.63,132.21l.54.68c-3.83,3-2.74,8.43-2.73,8.48S57.38,135.59,61.63,132.21Z"/><path class="cls-31" d="M56.52,145.88h0c-.41,0-.83,0-1.26,0a6.36,6.36,0,0,1-3.4-1.11l-.17-.13v-.21c0-6.89,3.61-11.58,10.8-13.93a34.44,34.44,0,0,0,10.6-13.64l.69-1.68.14,1.82c.36,4.94-2,13.76-4.35,18.9S63.89,145.88,56.52,145.88Z"/><path class="cls-7" d="M41.86,94.87c-.54,6.28-3.49,11.15-6.59,10.88s-5.16-5.57-4.61-11.85S34.16,82.75,37.25,83,42.41,88.59,41.86,94.87Z"/><path class="cls-2" d="M41.76,96.11c-.49,5.59-3.39,9.91-6.49,9.64s-5.2-5-4.72-10.62,3.39-9.92,6.49-9.65S42.24,90.51,41.76,96.11Z"/><path class="cls-2" d="M38.65,97a1.2,1.2,0,1,1-1.2-1.14A1.18,1.18,0,0,1,38.65,97Z"/><path class="cls-2" d="M36.78,102.13a.52.52,0,1,1-.52-.49A.5.5,0,0,1,36.78,102.13Z"/><path class="cls-32" d="M37.6,104.54h-.22a3.76,3.76,0,0,1-3-2.27,8.94,8.94,0,0,1-.86-4.76C33.85,93.81,36,91,38.4,91.14s4.09,3.34,3.81,7S39.91,104.54,37.6,104.54Z"/><path class="cls-6" d="M39.13,83.51s2.32,2.5,1.94,9.14S39,104.13,36.69,107.18c-3.29,4.34-9.87,6.49-9,11.17s14.52,20.47,30.85,17.77c7.25-2.16,13.41-7.89,16.65-20.44Z"/><path class="cls-33" d="M29.77,118.06c.71-4.54,4.88-4.21,9.19-10.81,2.86-4.38,5.52-15.64,1.12-22.5a23.9,23.9,0,0,1,1,7.9c-.38,6.65-2.07,11.48-4.38,14.53-3.29,4.34-9.87,6.49-9,11.17a6.48,6.48,0,0,0,.57,1.57A4.28,4.28,0,0,1,29.77,118.06Z"/><path class="cls-7" d="M71.88,115.71c-9.24,20.28-23.32,11.6-37.53,11.83,5.69,5.25,14.46,10.19,24.18,8.58,7.25-2.16,13.41-7.89,16.65-20.44C75.18,115.68,72.22,115,71.88,115.71Z"/><path class="cls-3" d="M54.72,136.87c-7.35,0-13.54-3.4-17.67-6.52-5.52-4.16-9.32-9.33-9.8-11.92-.59-3.24,2-5.31,4.8-7.5a23.81,23.81,0,0,0,4.3-4c2.46-3.25,3.94-8.19,4.29-14.29.36-6.36-1.51-9.12-1.51-9.12s2.76,2.38,2.37,9.17C41.14,99,39.6,104.05,37,107.44a24.44,24.44,0,0,1-4.45,4.17c-2.68,2.11-5,3.94-4.48,6.66.8,4.36,14.2,20.08,30.32,17.43,8.12-2.44,13.46-9,16.33-20.12l.84.21c-3,11.44-8.5,18.22-16.95,20.74l0,0A23.61,23.61,0,0,1,54.72,136.87Z"/><path class="cls-34" d="M78,117.82a8.46,8.46,0,0,0-3-1.57,19.66,19.66,0,0,0-3.44-.57,6.68,6.68,0,0,1,3.66-.27A4.87,4.87,0,0,1,78,117.82Z"/><path class="cls-35" d="M96,92.59a27,27,0,0,0,10.89,11.53c7.68,4.21,13.84,6,16.71,6.21-.81-1.46-3-5-3.57-6.16,1.94.59,6.7,4,7.94,5,0-3.62-4-12.17-10.1-18.33s-14.19-6.68-21.47-6.61Z"/><path class="cls-33" d="M127.93,108.92c-.24-3.77-4.19-12-10.09-18-5.44-5.53-12.54-6.52-19.2-6.61A3.18,3.18,0,0,1,99,85.63C115.11,85.63,121,96.46,127.93,108.92Z"/><path class="cls-7" d="M127.92,108.79c-2.4-3.46-7.45-6-10.87-8.26.41,2.83,1.54,4.15,2.84,6.32-9.62-2.23-17.35-7.28-23.84-14.09a27.19,27.19,0,0,0,10.81,11.36c7.68,4.21,13.84,6,16.71,6.21-.81-1.46-3-5-3.57-6.16,1.94.59,6.7,4,7.94,5C127.94,109.07,127.93,108.93,127.92,108.79Z"/><path class="cls-7" d="M103.08,89c3.94.79,13.6,5.72,15.19,12.1-4-.11-13.31-3.92-17-8.12C100.21,91.84,100.59,88.55,103.08,89Z"/><path class="cls-36" d="M96.84,67.47c.93.24,3,.64,3.44.69-.39-1.78-6.56-9.51-20-12.1C76.48,52.7,59.9,45.77,47.79,58.24c-4.76,1.15-12,4.83-13.48,13s-.86,12.26,0,13.55c1.88-2.52,3.1-6.12,7.07-9.65-.29,2.66-1.66,8.36,1.8,12.18a18.29,18.29,0,0,1,2-6c-.15,2.89.46,12.18,5.6,15.92-.11-3,1.08-10.2,4.43-14.15-.21,1.57-.56,4.38-.1,5.41,1.18-2,9-7.52,11-12.17.22,2.33-1,6.76-2.27,8.81C66.42,85,74.75,77.9,77.07,73.52c.27,4.16,3.37,12,8.85,15.71a30.55,30.55,0,0,1-.58-11.53,33.81,33.81,0,0,0,7.57,10.09C92.55,81.45,93.91,70.5,96.84,67.47Z"/><path class="cls-37" d="M100.28,68.16c-.18-.83-1.61-2.94-4.43-5.22C91.33,67.79,90.56,77,91,83.51c-2.4-2.35-4.75-7.07-5.62-11.4C83.61,75.57,83.4,79.57,82.53,83c-3-4.32-3.71-9.37-4.14-15-2.92,5-7.1,9.21-11,13.1.7-3.51,1.6-7.08-.56-10.11-1.75,4.58-5.93,8.54-9.82,12a21.34,21.34,0,0,1,.11-7c-2.6,4.76-6.82,8.25-8.33,15.21a68.27,68.27,0,0,1-1.73-16.44c-1.73,2.17-3.46,4.33-3.89,7.36-1.3-3.46-.43-6.92,0-10.38-3.89,1.29-6,5.68-8.16,8.71-.9-3.63-.8-5.91-.53-10.06-.06.27-.13.56-.18.84-1.51,8.22-.86,12.26,0,13.55,1.88-2.52,3.1-6.12,7.07-9.65-.29,2.66-1.66,8.36,1.8,12.18a18.29,18.29,0,0,1,2-6c-.15,2.89.46,12.18,5.6,15.92-.11-3,1.08-10.2,4.43-14.15-.21,1.57-.56,4.38-.1,5.41,1.18-2,9-7.52,11-12.17.22,2.33-1,6.76-2.27,8.81C66.42,85,74.75,77.9,77.07,73.52c.27,4.16,3.37,12,8.85,15.71a30.55,30.55,0,0,1-.58-11.53,33.81,33.81,0,0,0,7.57,10.09c-.36-6.34,1-17.29,3.93-20.32C97.77,67.71,99.79,68.11,100.28,68.16Z"/><path class="cls-38" d="M22.74,115.25c4.4-.94,7,1,13,1.12s12.11-2.69,16.11-1.12,4.78,4.08,5.46,7.68c1.18,6.16,5.63,8.09,3.09,12.72s-8.28,5.44-13.52,4.63-9.14-3.19-11.19-2.43-4.08,4.69-8,3.78c-4.4-1-3.43-6.54-4.95-10-1.63-3.76-3.67-6.07-4-9.67S20.11,116,22.74,115.25Z"/><path class="cls-27" d="M24.85,122.17c-.65,3-1.84,8.54,1.73,8.33S27.77,123.79,24.85,122.17Z"/><path class="cls-39" d="M26.39,123.51c.65,2.83.62,5.8-2.25,4.18.1,1.66.7,2.91,2.44,2.81C29.49,130.32,28.45,126,26.39,123.51Z"/><path class="cls-27" d="M47,124.1c.65,3,1.84,8.54-1.73,8.32S44.12,125.72,47,124.1Z"/><path class="cls-39" d="M47.13,124.52c0,2.34-.88,7.57-3.5,4.78-.33,1.64.07,3,1.68,3.12C48.72,132.63,47.79,127.61,47.13,124.52Z"/><path class="cls-20" d="M138.32,76.81c-16,14.22-45,6-45,6A25.26,25.26,0,0,1,92.85,78c0-3.38.65-7.81,3.68-10.75,0,0,40,5.27,40.35-15.64,0,0-1.72-12.65,0-14.88.64-.83,4.14,4.17,6.44,11.23C146.21,56.83,147.2,68.91,138.32,76.81Z"/><path class="cls-21" d="M138,76.56c-16,14.22-44.17,5.81-44.17,5.81a29,29,0,0,1-.43-4.88c13.19,2.93,26.86,1.84,39-4.11a19.28,19.28,0,0,0,8.46-7c3.12-4.92,2.53-12.58,1.91-18.38h0C145.59,56.79,146.83,68.66,138,76.56Z"/><path class="cls-40" d="M40.32,120.66c2.46,0,5.14-.17,7-1.82-1-.82-2.38-.7-3.63-.54-1.55.2-7.24,0-8.27,1.07C34,120.81,39.52,120.66,40.32,120.66Z"/><ellipse class="cls-32" cx="77.11" cy="98.75" rx="5.17" ry="7.01"/><circle class="cls-2" cx="74.93" cy="94.01" r="1.46"/><circle class="cls-2" cx="37.45" cy="92.76" r="1.46"/></svg>