<svg id="Layer_54" data-name="Layer 54" xmlns="http://www.w3.org/2000/svg" viewBox="0 0 256 256"><defs><style>.cls-1{opacity:0.5;}.cls-15,.cls-19,.cls-2{fill:#fff;}.cls-3{fill:#705038;}.cls-4{fill:#d3d1d1;stroke:#333232;}.cls-10,.cls-11,.cls-14,.cls-15,.cls-16,.cls-19,.cls-20,.cls-21,.cls-27,.cls-28,.cls-29,.cls-4,.cls-5{stroke-miterlimit:10;}.cls-28,.cls-29,.cls-4{stroke-width:1.21px;}.cls-5,.cls-6{fill:#825737;}.cls-5{stroke:#301801;stroke-width:1.23px;}.cls-7{fill:#865c3e;}.cls-8{fill:#825c41;}.cls-9{fill:#5d422c;}.cls-10{fill:#654223;stroke:#280901;}.cls-10,.cls-11,.cls-14,.cls-15,.cls-16,.cls-21,.cls-27{stroke-width:0.87px;}.cls-11{fill:#f49499;stroke:#2b1401;}.cls-12{fill:#c9a27b;}.cls-13,.cls-26{fill:#969595;}.cls-14,.cls-25{fill:#3b1e15;}.cls-14{stroke:#190101;}.cls-15,.cls-19,.cls-21{stroke:#0a0a0a;}.cls-16,.cls-20{fill:#441b0d;stroke:#0c0401;}.cls-17{fill:#a37d5a;}.cls-18{fill:#000213;}.cls-19,.cls-20{stroke-width:0.81px;}.cls-21,.cls-27,.cls-28{fill:none;}.cls-22{fill:#993340;}.cls-23{fill:#58392d;}.cls-24{fill:#815648;opacity:0.51;}.cls-26{opacity:0.72;}.cls-27{stroke:#280303;}.cls-28{stroke:#351802;}.cls-29{fill:#4c4a4a;stroke:#33302d;}.cls-30{fill:#302f2f;}</style></defs><path class="cls-1" d="M133.56,249.57a40.78,40.78,0,0,1-11.25-1.36,6,6,0,0,1-3.79-3.47c-2.8.27-5.45.4-7.92.4a37.09,37.09,0,0,1-9.31-.89,6,6,0,0,1-4.09-7.7c.4-1.17.83-2.3,1.28-3.34,2.53-5.93,5.55-9,8.12-10.58.73-5.09,1.37-17.58-5.31-35.53-6.4-17.18-6.9-30.63-6.16-39,0-.45,0-.85,0-1.22-.13-1.27-.19-2.43-.23-3.55a14.87,14.87,0,0,1-8.42,2.62,11.86,11.86,0,0,1-1.68-.11A6,6,0,0,1,82.3,135a5.39,5.39,0,0,0,1.7-2.53,6,6,0,0,1-4.75-4.53A6,6,0,0,1,82,121.35a3.29,3.29,0,0,0,1.24-1.27,9,9,0,0,1-2.71-2.26,11,11,0,0,1-1-1.33A15.42,15.42,0,0,1,72.27,108l-.13,0a18.9,18.9,0,0,0-4.67,2.18,11.66,11.66,0,0,1-6.1,2.12c-.27,0-.53,0-.79,0a10.47,10.47,0,0,1-9.77-6.5,12.44,12.44,0,0,1,2.31-13.21,3.76,3.76,0,0,1,.34-.35,11.37,11.37,0,0,1,2.25-1.72,20.55,20.55,0,0,0,6.45-9.27c2.22-6.87,5.49-10.81,7.82-12.89.24-.47.49-.91.74-1.33a6.32,6.32,0,0,1-.07-1.57c0-.2,0-.39.08-.59A11.83,11.83,0,0,1,71.35,62a5.74,5.74,0,0,1-.5-1.2,6.78,6.78,0,0,1,1.44-6.14,17.5,17.5,0,0,1,1.92-1.77c.27-.23.55-.46.84-.67.22-.89.52-2,.91-3.18A42.25,42.25,0,0,1,80.08,38.9,51.36,51.36,0,0,1,85.21,31a50.13,50.13,0,0,1,3.54-4.19s.71-.75.85-.88a34.77,34.77,0,0,1,7.66-6,18.41,18.41,0,0,1,1.87-1,5.91,5.91,0,0,1,2.45-.53,6,6,0,0,1,4.62,9.84,50.73,50.73,0,0,0-6.59,10l0,.06a35.31,35.31,0,0,0-1.48,3.48L97.66,43c-.3.93-.57,1.86-.79,2.78a13.59,13.59,0,0,1,6.19-2.26,6.28,6.28,0,0,1,.75,0,6,6,0,0,1,5.38,3.09,5.89,5.89,0,0,1,.41,4.68c.57-.49,1.11-1,1.63-1.52l.36-.39.27-.3.54-.64.32-.39c.26-.34.53-.7.8-1.08l.09-.12c.26-.37.53-.78.8-1.21l.06-.1c.41-.66.86-1.48,1.3-2.36a45.4,45.4,0,0,0,3.65-15.28c.08-1.66.09-3.38,0-5.15a6,6,0,0,1,10.49-4.21c1.48,1.67,5.25,10.63,3.67,23.16v.09s0,.17,0,.29l-.06.35c-.16,1.26-.4,2.64-.71,4,0,.24-.21.94-.21,1l-.07.25A38.57,38.57,0,0,1,120.09,68.3c2.74,1.87,5.75,5.09,8.07,10.61,2.68,6.42,3.58,7,4.72,7.81.37.25.75.52,1.15.82,4.41,3.31,5.58,8.8,5.61,11.53.31,6.28-3.45,10.83-9.44,11.35-.61.06-1.23.08-1.82.08s-.94,0-1.42,0l2.19,6.21a48.52,48.52,0,0,0,9.26-2.17c.91-.47,2-.95,3.05-1.46l.74-.34c.13-.07.24-.15.36-.23a20.88,20.88,0,0,1,4.3-2.29l.21-.11a19.41,19.41,0,0,1,9.64-2.85c.43,0,.86,0,1.3,0,5.56,0,10.73,2.25,15.39,6.69l.06,0a4.5,4.5,0,0,0,2.17-1.16,4.3,4.3,0,0,0,.58-3.15,6,6,0,0,1,5.86-6.53h.11a6.1,6.1,0,0,1,4.63,2.17,14.3,14.3,0,0,1,3.28,7.75,6.17,6.17,0,0,1,3.06,4.55,4.59,4.59,0,0,1,0,.92,6,6,0,0,1,2,5.63c-.6,3.26-3.34,9-9.56,10.69a58.86,58.86,0,0,1,1.81,7.9c.3,1.7.54,3.34.69,4.87l0,.27c0,.35.06.76.1,1.18l0,.66.06,1.24c0,.29,0,.58,0,.89s0,.76,0,1.15,0,.6,0,.91c0,.53,0,1.08,0,1.64v.13c-.1,4.51-.76,15.94-4.86,24.58l0,.08c-.63,1.64-1.32,3.27-2.07,4.84-1.5,3.81-3.11,8.42-4.22,12.1-.52,2.08-1,4.25-1.37,6.45-.07.56-.23,2-.23,2,0,.26-.05.52-.07.79-.37,4.52-.71,8.42-1,11.59-.08.93-.18,1.93-.29,2.91s-.18,1.73-.26,2.45a17.17,17.17,0,0,1,3.13,13.27,6,6,0,0,1-4.29,4.58,32,32,0,0,1-8.49,1.06h-1.26l-.43,0-.7,0c-.5,0-1-.06-1.43-.1a23,23,0,0,1-6-.94,6,6,0,0,1-3.85-3.67c-.88-2.39-.89-6.36,1.67-10.39a17.5,17.5,0,0,1,5.28-5.72c.3-2.36.72-5.58,1.05-7.64a65.55,65.55,0,0,0-.59-16.48q-.21-1.16-.42-2.16c-.4-1.62-.84-3.05-1.26-4.45-.27-.91-.55-1.84-.8-2.76-.86.2-1.71.38-2.56.52a16.93,16.93,0,0,1-.2,3,24.71,24.71,0,0,1-1.26,5.49,23.68,23.68,0,0,1-1.14,2.92c-.84,1.92-1.77,3.72-2.68,5.46l-.25.48a53.68,53.68,0,0,0-1.57,8.16l-.1.71c0,.22-.06.47-.09.73-.1,1-.19,2-.28,3.09-.21,2.92-.35,6.3-.43,8.51,6.72,8.15,5.09,16,4.87,16.95a6,6,0,0,1-4.63,4.47A58.43,58.43,0,0,1,133.56,249.57Zm-10-63a43.55,43.55,0,0,0,.78,9.63c1.83,7.82.64,20.08-.21,26.56l.38-.28c.9-1.36,2.39-4.62,3.4-12l.8-20.81c-.14-.26-.27-.52-.42-.76a17.46,17.46,0,0,1-1.31-1.55A25.23,25.23,0,0,1,123.6,186.56Z"/><path class="cls-2" d="M128.56,244.57a40.78,40.78,0,0,1-11.25-1.36,6,6,0,0,1-3.79-3.47c-2.8.27-5.45.4-7.92.4a37.09,37.09,0,0,1-9.31-.89,6,6,0,0,1-4.09-7.7c.4-1.17.83-2.3,1.28-3.34,2.53-5.93,5.55-9,8.12-10.58.73-5.09,1.37-17.58-5.31-35.53-6.4-17.18-6.9-30.63-6.16-39,0-.45,0-.85,0-1.22-.13-1.27-.19-2.43-.23-3.55a14.87,14.87,0,0,1-8.42,2.62,11.86,11.86,0,0,1-1.68-.11A6,6,0,0,1,77.3,130a5.39,5.39,0,0,0,1.7-2.53,6,6,0,0,1-4.75-4.53A6,6,0,0,1,77,116.35a3.29,3.29,0,0,0,1.24-1.27,9,9,0,0,1-2.71-2.26,11,11,0,0,1-1-1.33A15.42,15.42,0,0,1,67.27,103l-.13,0a18.9,18.9,0,0,0-4.67,2.18,11.66,11.66,0,0,1-6.1,2.12c-.27,0-.53,0-.79,0a10.47,10.47,0,0,1-9.77-6.5,12.44,12.44,0,0,1,2.31-13.21,3.76,3.76,0,0,1,.34-.35,11.37,11.37,0,0,1,2.25-1.72,20.55,20.55,0,0,0,6.45-9.27c2.22-6.87,5.49-10.81,7.82-12.89.24-.47.49-.91.74-1.33a6.32,6.32,0,0,1-.07-1.57c0-.2,0-.39.08-.59a11.83,11.83,0,0,1,.62-3,5.74,5.74,0,0,1-.5-1.2,6.78,6.78,0,0,1,1.44-6.14,17.5,17.5,0,0,1,1.92-1.77c.27-.23.55-.46.84-.67.22-.89.52-2,.91-3.18A42.25,42.25,0,0,1,75.08,33.9,51.36,51.36,0,0,1,80.21,26a50.13,50.13,0,0,1,3.54-4.19s.71-.75.85-.88a34.77,34.77,0,0,1,7.66-6,18.41,18.41,0,0,1,1.87-1,5.91,5.91,0,0,1,2.45-.53,6,6,0,0,1,4.62,9.84,50.73,50.73,0,0,0-6.59,10l0,.06a35.31,35.31,0,0,0-1.48,3.48L92.66,38c-.3.93-.57,1.86-.79,2.78a13.59,13.59,0,0,1,6.19-2.26,6.28,6.28,0,0,1,.75,0,6,6,0,0,1,5.38,3.09,5.89,5.89,0,0,1,.41,4.68c.57-.49,1.11-1,1.63-1.52l.36-.39.27-.3.54-.64.32-.39c.26-.34.53-.7.8-1.08l.09-.12c.26-.37.53-.78.8-1.21l.06-.1c.41-.66.86-1.48,1.3-2.36a45.4,45.4,0,0,0,3.65-15.28c.08-1.66.09-3.38,0-5.15a6,6,0,0,1,10.49-4.21c1.48,1.67,5.25,10.63,3.67,23.16v.09s0,.17,0,.29l-.06.35c-.16,1.26-.4,2.64-.71,4,0,.24-.21.94-.21,1l-.07.25A38.57,38.57,0,0,1,115.09,63.3c2.74,1.87,5.75,5.09,8.07,10.61,2.68,6.42,3.58,7,4.72,7.81.37.25.75.52,1.15.82,4.41,3.31,5.58,8.8,5.61,11.53.31,6.28-3.45,10.83-9.44,11.35-.61.06-1.23.08-1.82.08s-.94,0-1.42,0l2.19,6.21a48.52,48.52,0,0,0,9.26-2.17c.91-.47,2-.95,3.05-1.46l.74-.34c.13-.07.24-.15.36-.23a20.88,20.88,0,0,1,4.3-2.29l.21-.11a19.41,19.41,0,0,1,9.64-2.85c.43,0,.86,0,1.3,0,5.56,0,10.73,2.25,15.39,6.69l.06,0a4.5,4.5,0,0,0,2.17-1.16,4.3,4.3,0,0,0,.58-3.15,6,6,0,0,1,5.86-6.53h.11a6.1,6.1,0,0,1,4.63,2.17,14.3,14.3,0,0,1,3.28,7.75,6.17,6.17,0,0,1,3.06,4.55,4.59,4.59,0,0,1,0,.92,6,6,0,0,1,2,5.63c-.6,3.26-3.34,9-9.56,10.69a58.86,58.86,0,0,1,1.81,7.9c.3,1.7.54,3.34.69,4.87l0,.27c0,.35.06.76.1,1.18l0,.66.06,1.24c0,.29,0,.58,0,.89s0,.76,0,1.15,0,.6,0,.91c0,.53,0,1.08,0,1.64v.13c-.1,4.51-.76,15.94-4.86,24.58l0,.08c-.63,1.64-1.32,3.27-2.07,4.84-1.5,3.81-3.11,8.42-4.22,12.1-.52,2.08-1,4.25-1.37,6.45-.07.56-.23,2-.23,2,0,.26-.05.52-.07.79-.37,4.52-.71,8.42-1,11.59-.08.93-.18,1.93-.29,2.91s-.18,1.73-.26,2.45a17.17,17.17,0,0,1,3.13,13.27,6,6,0,0,1-4.29,4.58,32,32,0,0,1-8.49,1.06h-1.26l-.43,0-.7,0c-.5,0-1-.06-1.43-.1a23,23,0,0,1-6-.94,6,6,0,0,1-3.85-3.67c-.88-2.39-.89-6.36,1.67-10.39a17.5,17.5,0,0,1,5.28-5.72c.3-2.36.72-5.58,1.05-7.64a65.55,65.55,0,0,0-.59-16.48q-.21-1.16-.42-2.16c-.4-1.62-.84-3.05-1.26-4.45-.27-.91-.55-1.84-.8-2.76-.86.2-1.71.38-2.56.52a16.93,16.93,0,0,1-.2,3,24.71,24.71,0,0,1-1.26,5.49,23.68,23.68,0,0,1-1.14,2.92c-.84,1.92-1.77,3.72-2.68,5.46l-.25.48a53.68,53.68,0,0,0-1.57,8.16l-.1.71c0,.22-.06.47-.09.73-.1,1-.19,2-.28,3.09-.21,2.92-.35,6.3-.43,8.51,6.72,8.15,5.09,16,4.87,16.95a6,6,0,0,1-4.63,4.47A58.43,58.43,0,0,1,128.56,244.57Zm-10-63a43.55,43.55,0,0,0,.78,9.63c1.83,7.82.64,20.08-.21,26.56l.38-.28c.9-1.36,2.39-4.62,3.4-12l.8-20.81c-.14-.26-.27-.52-.42-.76a17.46,17.46,0,0,1-1.31-1.55A25.23,25.23,0,0,1,118.6,181.56Z"/><g id="g"><path class="cls-3" d="M129.81,183.05s1.49,30.18-6.18,38.95a9,9,0,0,0,5.28.68s.08,1,3.37-18.74l1-22.65S128.42,175.16,129.81,183.05Z"/><path class="cls-4" d="M164.13,115.28s14.17,1.32,13.06-11.21c0,0,4.27,4.57.23,11.05,0,0,.6,1,4.48-1.85,1.3-.94-1.81,6.28-4.7,7-4.23,1.13,4.87,1.3,7.06-2.32,0,0-1.75,9.54-12.78,5.1C171.48,123.1,163.78,118.81,164.13,115.28Z"/><path class="cls-5" d="M97.22,136.93S92.07,153.6,101.91,180s4.92,42,4.92,42-5.14.22-8.94,11.47c0,0,5.47,1.52,17.82,0,0,0,1.7-7.18-3.07-12.55,0,0,3.13-18.83.9-28.36s.22-27.92.22-27.92Z"/><path class="cls-6" d="M91,64.41s14.19-2.09,17.76,23.82,9,24.46,12.61,29.77c0,0,12.81-.84,19.65-5.63s21.2-4.7,27.59,5.63,13.13,26.06,4.53,54.63c0,0-7.12,10.94-8.55,28.29s-1.9,19.49-1.9,19.49a17,17,0,0,1,1.9,9.75s-7.76,2-13.26.28c0,0-1.85-5,6.9-10.34,0,0,3.28-15.32.78-28.91s-4.22-11.25-2.19-17c0,0-5.62,3.91-18.12,2.35s-24.38,4.69-36.26-17.5S100.64,139.15,91,118.37l1.87-30.05Z"/><path class="cls-7" d="M120.43,17.43c1.42,34.54-24,40.14-24,40.14L105,63.33C132,45.52,120.43,17.43,120.43,17.43Z"/><path class="cls-8" d="M86.63,57.2s-7.47-16.94,10-37.88c0,0-20.52,10.69-21.55,38.22C75,57.54,81.58,61.18,86.63,57.2Z"/><path class="cls-9" d="M120.43,17.43a51.47,51.47,0,0,1-4.3,23.4c-5.36,11.79-18,16.22-18,16.22,3.91,2.62,3.28,4.33,14.67-6.11C124.58,40.17,120.43,17.43,120.43,17.43Z"/><path class="cls-9" d="M96.59,19.32s-16,12.74-17.77,30.55l.22,9-3.72,1.69s-1.33-12.71,5-23.7S92.19,21.51,96.59,19.32Z"/><path class="cls-9" d="M109.28,54.14s1.88,1.1,1.83,4.42L113,56.71s-.84-3-2.37-3.74l-1.5-.2Z"/><path class="cls-9" d="M117.34,45s2.08.27,2.17,2.19l1.13-2.68s-2.09-2.66-3-2Z"/><path class="cls-9" d="M120,35.1s2.33-.7,2.69.86l.2-2.55a2,2,0,0,0-2.68.1C119,34.81,120,35.1,120,35.1Z"/><path class="cls-9" d="M78.33,46.48a7.74,7.74,0,0,1,6.77-.89l.27-2.48s-4.54-.61-7.06,2S78.33,46.48,78.33,46.48Z"/><path class="cls-9" d="M82.3,36.4a5.58,5.58,0,0,1,4.61-.16l.7-2s-3.44-1-5.67,1.33S82.3,36.4,82.3,36.4Z"/><path class="cls-10" d="M107.87,66.68s5.86.27,9.75,9.55,5.32,9.25,7.81,11.11a9.25,9.25,0,0,1,3.2,6.89c0,1.47-10.37,2.52-10.37,2.52l-8.34-18.84Z"/><path class="cls-11" d="M109.24,72.87s5.35,3.65,5.66,8.81,3.79,7,5.75,7.13,6.91,1.08,7.6,3.34,1,6.9-3.57,7.3-8.93-1.17-12.31-7.35-1-6.88-3.19-11.17C109.18,80.93,109.35,74.33,109.24,72.87Z"/><path class="cls-10" d="M70.55,66.75s-4.78,2.48-7.69,11.44a27,27,0,0,1-10.12,13.4l-.17.11s-2.94,7.45,2.15,6.08,12.91-11,12.91-11l1.87-8.21Z"/><path class="cls-11" d="M68.55,77.35s-2.24.9-4.66,8.4A10.88,10.88,0,0,1,56.1,90c-7.15.83-6.78,11.81-.13,11.36,3.19-.21,2.62-1.72,9.22-4C70,95.73,69.08,80,69.08,80Z"/><path class="cls-6" d="M112.65,105.88S108.31,90.49,109,83.21a53.65,53.65,0,0,0,0-13c-.18-.65-1.33-9.64-12.33-13.68,0,0-1-7.1,1.54-11.77,0,0-5.55.79-6,8.69s2.58-8.78-13.5-6.15c0,0,4.07,1.7,4.92,2.7,0,0-7.13-1.47-11.92,3.72,0,0,4.72.79,7.63-.26,0,0-7.24,2-7.7,7.58a30.86,30.86,0,0,0,10.88-3.94s-11.31,2.77-13.67,13c-1.85,8,2.8,17.52,3.49,21.1a27.07,27.07,0,0,1,.44,6.88c0,2,2.15,7.35,6.12,8.67,0,0,1.82,5,8.71,3.71,0,0,4.47-4,11,18.57l13-11.18Z"/><path class="cls-12" d="M99.57,100.68s6.05,18.37,6.84,34.3c.69,13.76,11.33,25,11.33,25s38.05,11,46.87-10.76c0,0,4.49,16.58-7.81,25-9,6.18-34.86,3.4-41.43-.51-6.11-3.63-9.66-6.68-15.15-19.42s-3.66-10.56-4.08-15-1.1-10.52-1.73-12.5L91.86,109.6S92.39,101.67,99.57,100.68Z"/><path class="cls-4" d="M84.64,110.57s1.46,7.39-4.57,11c0,0,3.9.25,5-1.66s2.12,10.61-4.34,15c0,0,8.73,1.35,11-11,0,0,2.6,3.22,1.06,5.91-1.91,3.31,7.15-5.92,1.46-19.54l-.84-2.81Z"/><path class="cls-13" d="M92.43,110.41s2.48,4.16,1.38,11.29c0,0,0,3.22-3.39-2.47,0,0,1.21,12.36-9,15.31,0,0,7.87,1,9.93-11a5,5,0,0,1,1.95,5.26s2.54-2.92,2.52-10.52c0-7.2-3-10.08-3-10.08Z"/><path class="cls-13" d="M84.45,111.56s5.29,1.76,8-1.15l1.1-2.23-.31-.62a10.64,10.64,0,0,1-6,2.47c-3.89.45-3,.13-3,.13Z"/><path class="cls-2" d="M73.91,90.89s-.65.36-1.2,2.73a12.84,12.84,0,0,0,2.69,10.57,15.4,15.4,0,0,0,3.49,2.55s1,4.06,7.32,3.88,13.36-8.88,14.12-11.51c0,0-.54-5.32-7.87-7.57C92.46,91.54,80.41,88.11,73.91,90.89Z"/><path class="cls-14" d="M73.78,89.58s9.92-3.29,19.62,1.15c0,0,.4,6.93-10.23,9C83.17,99.75,74.2,98.5,73.78,89.58Z"/><circle class="cls-15" cx="97.77" cy="77.76" r="5.91"/><circle class="cls-16" cx="98.19" cy="77.82" r="3.39"/><path class="cls-17" d="M97.35,103.84s6.81,15.85,6.33,32.22,13.09,26.62,13.09,26.62-5.68,7.62-12.06.25c0,0,5.5,10.55,16.43,12.81l4.23.88A147,147,0,0,1,116,155a33.71,33.71,0,0,1-8.14-15.74c-2.24-10-.67-23.85-5.46-33.57l-2.84-5Z"/><circle class="cls-2" cx="99.82" cy="76.03" r="1.18"/><path class="cls-18" d="M95.73,67.42s2.37-2.12,8,2.11C103.69,69.53,100.23,62.21,95.73,67.42Z"/><path class="cls-18" d="M69.73,70.67s1.88-4.39,7.78-4.57C77.51,66.1,71.41,62.81,69.73,70.67Z"/><ellipse class="cls-19" cx="75.1" cy="76.47" rx="5.75" ry="5.29" transform="translate(-10.47 141.01) rotate(-82.54)"/><ellipse class="cls-20" cx="75.48" cy="76.52" rx="3.3" ry="3.04" transform="translate(-10.18 141.43) rotate(-82.54)"/><ellipse class="cls-2" cx="76.96" cy="74.76" rx="1.15" ry="1.06" transform="translate(-7.16 141.36) rotate(-82.54)"/><path class="cls-3" d="M100.24,99.82s5.89-5.53,7.63-10.45c0,0,1.45,4.71-13.07,17.46Z"/><path class="cls-4" d="M90.17,62s-4.61.93-7.51,7.17c0,0-1.71-2.79,1.49-8,0,0-5.09.77-6.81,4a11.6,11.6,0,0,1,5.17-8.14,45.79,45.79,0,0,1-10.78,4.34s-1-5.73,7.6-8c0,0-6.39,1.27-7.74.65,0,0,3.59-5.76,12-4.11,0,0-4.74-2.49-5.59-2.85s11.26-3.29,13.64,6c0,0,0-8,7.07-8.78,0,0-2.9,3.63-1.56,11.91C97.18,56.36,103.78,59.64,90.17,62Z"/><path class="cls-21" d="M82.92,99.7s-.5,5.34,3.45,6.1,9.15-4.66,10.06-8.28l-.61-.08a4,4,0,0,1,1.53.2"/><path class="cls-15" d="M84.06,104.38s-.69,2-3.73,1.38-5.63-3.23-5.75-8l-.69.41,1.17-.73"/><path class="cls-22" d="M52.87,91.73a6,6,0,0,1,3.9-1.61c2.73-.27,6.47-2.36,7.5-5.07.87-2.27,2-5.41,4.14-7.4l.42,2.28a36.6,36.6,0,0,1-.12,8s.1-4.82-.78-5.91-3.38,4.81-3.79,5.83-3.06,2.46-6.78,2.75S52.87,91.73,52.87,91.73Z"/><path class="cls-23" d="M76,89.31s7.71-2.56,15.25.89c0,0,.32,5.39-8,7C83.32,97.21,76.34,96.25,76,89.31Z"/><path class="cls-24" d="M78.82,88.87a13.59,13.59,0,0,1,9,.54s.19,3.19-4.71,4.15C83.15,93.56,79,93,78.82,88.87Z"/><path class="cls-25" d="M73.78,89.58a21.13,21.13,0,0,1,6-8.21"/><path class="cls-25" d="M93.4,90.73s.82-5.73-1.12-8.43C92.28,82.3,93.77,88.6,93.4,90.73Z"/><path class="cls-25" d="M93.56,84.06a11.88,11.88,0,0,1,7.33-.14"/><path class="cls-25" d="M70.65,82.37a18.34,18.34,0,0,1,7.79.33"/><path class="cls-26" d="M72.58,98.73s1.88,6,6.64,7.34c0,0,1.39,3.44,7.2,2.85S97,104.14,100,97.51a3.5,3.5,0,0,1-.46,3.17c-3.24,4.74-6.68,9.94-13.36,9.94s-6-2-7.32-3.88A10.7,10.7,0,0,1,72.58,98.73Z"/><path class="cls-27" d="M73.91,90.89s-1.7,1.16-1.7,6.2,3.39,9,6.68,9.65c0,0,.58,4.26,7.32,3.88s9.23-4,14-10.8c0,0,1.27-4.71-6.93-8"/><path class="cls-13" d="M75.94,102.73s3.19,4.11,6.73,2.92c0,0,2-1.11.93-1.69C83.6,104,81.06,106.63,75.94,102.73Z"/><path class="cls-13" d="M84,103.79s.75,2.06,3.74,1.86,6.9-4.42,7.7-6.22C95.43,99.43,90.57,106.52,84,103.79Z"/><path class="cls-17" d="M145.18,162.22s-1.51,8.91-4.17,11.21c0,0,25.31,5,23.6-24.26,0,0,5.15,21.9-11.76,26.62s-14.3.6-14.89-2l5.34-11.35Z"/><path class="cls-22" d="M110,80s.7-4.1,2.93-1.45c1.54,1.84-1,7.82,6,11.29,0,0,5.92.59,8.43,2.32a2,2,0,0,1,.82,1.13s.37-2.35-3.19-3.45a22.42,22.42,0,0,0-5.14-.84c-1.6-.11-4.6-2.77-4.83-5.29s-1-5.52-2.43-7.12-2.38-2.84-3.2-3.23v7.59l.71,1.88a13.12,13.12,0,0,1,.31,2,9.83,9.83,0,0,0-.2-3.3C109.84,80.08,110,80,110,80Z"/><path class="cls-3" d="M96.41,156.4s4,14.68,11.46,19.58c0,0,1.44,14,2.94,21.69s1.9,18.94,0,23.19l1.3.06s3.52-17.08.78-29.33c0,0-1.75-12.87-.14-19.39a37,37,0,0,1-8-9.27c-3-5.27-7.82-15-8.3-19.23s-.27-.56-.27-.56S96,153.35,96.41,156.4Z"/><path class="cls-6" d="M110.81,136.06s.32,5.2,3.88,15.25,8.89,24.48,13.22,28.7,3.84,17.19,3.62,20.24-2.33,21.13-3.62,24.13c0,0,4.23.68,6.06-.22,0,0,.29-10.78.94-15.39s1.32-10.6,4.12-14.76,4.18-12.34,1-16.23c-2.33-2.87-3-2.73-.82-7s7.79-13.63,6.56-23.05"/><path class="cls-3" d="M145.31,157.87l.58-8.58c-1.46,1.07-2.14,6.74-3.34,10.33-1.34,4.85-3.71,8.41-8.46,14.94,0,0-2.33,3.36,5,8.85,0,0,2.09,3.38-3.83,13.1S134,224.16,134,224.16s.25-20.62,3.46-27,5.71-12.34,4.16-15.85S142.54,164.34,145.31,157.87Z"/><path class="cls-3" d="M144.33,110.65s20.29-.34,25.72,16.71,4.06,36.81,0,44.75-9.34,22.6-7.38,48.3c0,0,1.94-21.94,2.68-25.7s4.7-15.6,7.77-22.08c4.3-9.07,5.08-24.67,3.64-32.09s-3.58-18.65-12.31-27.15S147.66,108.92,144.33,110.65Z"/><path class="cls-3" d="M109,70.24s-1,9.89-1.08,20.07c-.12,9.15,3.49,28.1,18.92,29.82,1.06.11-6.56-2.38-5.44-2.13l-3.45-3.7c-1.55-1.65-5.87-5.47-7.79-19.33A131.68,131.68,0,0,1,109,70.24Z"/><polygon class="cls-23" points="121.35 118 127.29 120.32 123.52 118 121.35 118"/><path class="cls-13" d="M177.19,104.07s3.88,4.29,0,11.22c0,0,1.94.47,4.59-1.63a11.59,11.59,0,0,1-5.51,7.13s3.86,1.67,7.75-2.2c0,0-1.89,5.33-6.36,5.33-6.21,0-6.19-1.58-6.19-1.58s6.88,1.72,9.61-.41c0,0-6.84,1.24-7.11-1.8,0,0,6.08-2.35,6.38-4.32,0,0-8,2.82-7.46,1.07.28-.86,5.53-4.21,5-9C177.42,104,177.19,104.07,177.19,104.07Z"/><path class="cls-13" d="M79.17,53.89s-6.62,1-7.19,6.68c0,0,3.27-4,5.53-5.23S79.17,53.89,79.17,53.89Z"/><path class="cls-13" d="M77.77,64.18s2.39-5,5.09-6.46l-.35-.59A12.46,12.46,0,0,0,77.77,64.18Z"/><path class="cls-13" d="M84.55,60.91l.33.55s-2.44,3.83-2.22,7.09C82.66,68.55,81.44,65.75,84.55,60.91Z"/><path class="cls-13" d="M92,54.87s1.45-8.64,6.67-10.23c0,0-2.71-.24-5.92,4.2C92.7,48.84,91.4,52.85,92,54.87Z"/><path class="cls-13" d="M78.75,47.12a14.26,14.26,0,0,1,6.62,2.63l1.11.81s-.24.38-1.7-.2-6.33-3.22-6.33-3.22Z"/><path class="cls-28" d="M98.64,57.41s6.81,2.61,8.69,8.14c0,0,3.1,5.52,1.88,14.89s3.22,25,4.3,27.54,6.79,9.29,7.84,10,12.91-2.16,14.52-3c2.32-1.25,6.82-3,9.26-4.73s10.94-4.72,19.32,3.15,11.8,21.06,12.69,29.77a67.42,67.42,0,0,1-6.22,34.62c-6.08,12.79-7.41,29.23-7.28,32.09s-1,10.18-1,10.18-2.91,1.47-4.43,0c0,0,.89-7.32,1.44-10.65a65.56,65.56,0,0,0-1.12-20.66c-1.82-7.28-4.14-11.18-1.73-14.64,0,0-7.49,4.35-15.68,3.63"/><path class="cls-28" d="M125.37,176.62s-13,.8-22.3-16.69c0,0-6.73-10.68-6.93-20.7l-1.61-11.59"/><path class="cls-28" d="M113.93,141.66s.89,19.94,12.3,36.29c0,0,4.9,4,5.33,14.42s-3.18,31-3.65,32a8.58,8.58,0,0,0,6.06-.22s0-19.92,2.78-25.32,6.19-11.19,5-17.19-.36-9.06,1.11-15.89,3.27-8.33,3.06-16.47"/><path class="cls-28" d="M129.81,183.05s1.54,32.23-6.18,38.95a8.65,8.65,0,0,0,4.66.82"/><path class="cls-28" d="M75.61,60.16a16.85,16.85,0,0,0-6.77,9.93s-1.31,4.46,1.71,15.3c0,0,2.32,6.34,2.13,7.61"/><path class="cls-28" d="M164.61,149.17s4.53,18.19-7.47,24.68"/><path class="cls-29" d="M123.63,222s-4.59,2.21-4.55,8.63c0,0,2.58.41,5.82.74s3.22-8.2,3.22-8.2S124.55,222.88,123.63,222Z"/><path class="cls-29" d="M106.83,222s-5-.12-8.94,11.47c0,0,6,1.42,17.82,0,0,0,1.74-7.7-3.07-12.55C112.64,220.92,109.17,223.67,106.83,222Z"/><path class="cls-29" d="M127.91,224.38a15.7,15.7,0,0,0-8.83,13.09s8,2.47,20,0c0,0,1.59-6.61-5.12-13.31C134,224.16,129.55,226.27,127.91,224.38Z"/><path class="cls-29" d="M158.21,220.1s-7.19,2.74-6.9,10.34c0,0,8.06,1.89,14.93,0,0,0,1.24-6.05-3.57-10C162.67,220.41,158.87,221.64,158.21,220.1Z"/><path class="cls-30" d="M125.16,238.16s0-5.87,3.61-9.44c0,0-.86,6.67-.81,9.58Z"/><path class="cls-30" d="M104.36,234.08s.17-5.12,2.59-7.94a72,72,0,0,0,0,7.94Z"/><path class="cls-30" d="M155.89,231.12s.29-5.29,2.6-7.26c0,0-1.09,5.93-.41,7.42Z"/><path class="cls-30" d="M124.9,224.63s-3,3.44-3.44,5.48l3.44-3.82Z"/><path class="cls-28" d="M98.16,57.05a37.13,37.13,0,0,0,12.37-8.15c5.09-5.42,10.63-14.88,9.9-31.47,0,0,3.72,7.31,2.18,18.78s-6.26,19.73-16.76,26.56"/><path class="cls-28" d="M85.05,46.73a36.86,36.86,0,0,1,4.16-16.17s3.92-8.81,7.38-11.24h0s-7.46,3.32-13.74,13.37-7.47,18.25-7.47,18.25"/><line class="cls-28" x1="75.04" y1="54.17" x2="75.04" y2="55.2"/></g></svg>