<svg id="Layer_54" data-name="Layer 54" xmlns="http://www.w3.org/2000/svg" viewBox="0 0 256 256"><defs><style>.cls-1{opacity:0.5;}.cls-2{fill:#fff;}.cls-3{fill:#fe7e00;stroke:#543010;stroke-miterlimit:10;}</style></defs><path class="cls-1" d="M130.5,236C81.16,236,41,188.67,41,130.5S81.16,25,130.5,25,220,72.33,220,130.5,179.84,236,130.5,236ZM130,73C104.32,73,83.4,99,83.4,131S104.32,188.9,130,188.9s46.63-26,46.63-57.93S155.74,73,130,73Z"/><path class="cls-2" d="M125.5,231C76.16,231,36,183.67,36,125.5S76.16,20,125.5,20,215,67.33,215,125.5,174.84,231,125.5,231ZM125,68C99.32,68,78.4,94,78.4,126S99.32,183.9,125,183.9s46.63-26,46.63-57.93S150.74,68,125,68Z"/><path class="cls-3" d="M125.5,25.65c-46.3,0-83.83,44.71-83.83,99.85s37.53,99.85,83.83,99.85,83.83-44.71,83.83-99.85S171.8,25.65,125.5,25.65ZM125,189.55c-28.87,0-52.28-28.46-52.28-63.58S96.16,62.39,125,62.39,177.31,90.86,177.31,126,153.9,189.55,125,189.55Z"/></svg>