<svg id="Layer_54" data-name="Layer 54" xmlns="http://www.w3.org/2000/svg" viewBox="0 0 256 256"><defs><style>.cls-1{opacity:0.5;}.cls-2{fill:#fff;}.cls-3{fill:#aaa6a6;}.cls-4{fill:#d6d7d7;}.cls-5{fill:#918f8f;}.cls-6{fill:#6d6a6a;}.cls-7{fill:#c3c4c5;}.cls-8{fill:#e4e2e2;}.cls-9{fill:#c0bcbd;}.cls-10{fill:#928f8f;}.cls-11{fill:#b4b5b6;}.cls-12{fill:#8f8f8f;}.cls-13{fill:#ececec;}.cls-14{fill:#b2b1b1;}.cls-15{fill:#e4e1e1;}.cls-16{fill:#231f20;}.cls-17{fill:#2f2524;}.cls-18{fill:#392f34;}.cls-19{fill:#383434;}.cls-20{fill:#241f20;}.cls-21{fill:#473e41;}.cls-22{fill:#b24bb2;}.cls-23{fill:#933296;}.cls-24{fill:#2d3434;}.cls-25{fill:#273034;}.cls-26{fill:#4b2a2c;}.cls-27{fill:#423d33;}.cls-28{fill:#443d32;}.cls-29{fill:#4a422f;}.cls-30{fill:#4f2a2d;}.cls-31{fill:#542226;}.cls-32{fill:#27231f;}.cls-33{fill:#4d453a;}.cls-34{fill:#46403e;}.cls-35{fill:#4b4331;}.cls-36{fill:#393737;}.cls-37{fill:#302423;}.cls-38{fill:#322b2d;}.cls-39{fill:#362b2b;}.cls-40{fill:#332b26;}.cls-41{fill:#3b3a3b;}.cls-42{fill:#3c332b;}.cls-43{fill:#242021;}.cls-44{fill:#444343;}.cls-45{fill:#4d3c29;}.cls-46{fill:#544c49;}.cls-47{fill:#4b3420;}.cls-48{fill:#3f3e3e;}.cls-49{fill:#272021;}.cls-50{fill:#312526;}.cls-51{fill:#352a2d;}.cls-52{fill:#343b3c;}.cls-53{fill:#3d3439;}.cls-54{fill:#00b3eb;}.cls-55{fill:#ed1c24;}.cls-56{fill:#1fd5ff;}.cls-57{fill:#04a1d0;}.cls-58{fill:#fff8a3;}.cls-59{fill:#e4de90;}.cls-60{fill:#d41c21;}.cls-61{fill:#d10514;}.cls-62{fill:#ffcb05;}.cls-63{fill:#fff9cc;}.cls-64{fill:#ec1c24;}.cls-65{fill:#fdca06;}.cls-66{fill:#e21d23;}.cls-67{fill:#ecbe06;}.cls-68{fill:#2a393b;}.cls-69{fill:#beca87;}.cls-70{fill:#e4b605;}.cls-71{fill:#f99d1c;}.cls-72{fill:#ef8200;}.cls-73{fill:#7c4d11;}.cls-74{fill:#ffe180;}.cls-75{fill:#ff505d;}</style></defs><path class="cls-1" d="M155.93,236.57h0c-1.41-1.54-2.69-3.12-3.93-4.65l-1.31-1.6a86.85,86.85,0,0,0-5.82-6.55c-2.38.74-4.84,1.43-7.46,2.07-4.56,1.12-9.33,2.08-14.2,2.85-5,.8-10.22,1.39-15.36,1.77-3.68.26-6.76.39-9.68.39h-.33c-.6,0-1.2.07-1.8.07s-1.25,0-1.88-.07h-.77c-.61,0-1.23,0-1.84-.06H90.8a12.84,12.84,0,0,1-1.62-.09H89.1c-.35,0-.71,0-1.06-.06h-.28a9.44,9.44,0,0,1-1.43-.1l-.65,0h-.05a8.86,8.86,0,0,1-1.38-.11l-.59-.06c-1.08-.05-2.07-.17-3-.28l-.55-.07A91.68,91.68,0,0,1,69,228a54.49,54.49,0,0,1-7-2.16,40,40,0,0,1-13.38-7.61,10.15,10.15,0,0,1-3-1.17,8.41,8.41,0,0,1-4.09-6.33,7.45,7.45,0,0,1,.07-2.11,27.16,27.16,0,0,1-1.65-6l-.55-.47V188.61l1,0a7.21,7.21,0,0,1,.14-.81,7.43,7.43,0,0,1,.16-.82,6.56,6.56,0,0,1,.17-.84,7,7,0,0,1,.29-1.11c.34-1.73.82-3.33,1.28-4.88a135.36,135.36,0,0,1,8.25-20.63,290.47,290.47,0,0,1,16.44-29c4.4-6.92,9-13.65,13.35-19.88.1-.16.21-.31.31-.46s.37-.55.56-.82a3.06,3.06,0,0,0,.43-2.19,14.15,14.15,0,0,0-1.16-4.43,29.66,29.66,0,0,0-5.09-8.49,6.51,6.51,0,0,1-.88-7.53l.11-.21a12.25,12.25,0,0,1,.68-1.23,18.79,18.79,0,0,1,2.65-3.27L78,82h-.64a14.29,14.29,0,0,1-2.23-.25l-.27-.05a6.85,6.85,0,0,1-5.41-4.48c-.62-1.63-1.18-3.26-1.75-4.92l-.24-.72c-.77-2.25-1.49-4.37-2.37-6.38A15.88,15.88,0,0,0,64,63,29.39,29.39,0,0,1,50.47,54a18.45,18.45,0,0,1-4.18-8.29,11.68,11.68,0,0,1-.22-1.6,8.4,8.4,0,0,1,0-2.74,8.08,8.08,0,0,1,.11-.86,12.64,12.64,0,0,1,1.22-4.12,7.22,7.22,0,0,1,.81-1.53,16.77,16.77,0,0,1,3.7-4.5A34.07,34.07,0,0,1,65,23.13L65,22H77.36l0,1.35a14.51,14.51,0,0,1,4.11,2.58A17.81,17.81,0,0,1,86,32.29a27.79,27.79,0,0,1,2.1,8.28,36.52,36.52,0,0,1-.34,10.25l0,.15a11.88,11.88,0,0,1-.25,1.2,16.18,16.18,0,0,0,1.38,3.15,49,49,0,0,0,5.35,7.92,7.65,7.65,0,0,1,1.52,6.93,11.31,11.31,0,0,1-2,4l.34.64h0a14.46,14.46,0,0,1,1.47-.07,19.9,19.9,0,0,1,3.73.38,6.77,6.77,0,0,1,5.28,4.59l.5,1.48c.73,2.15,1.41,4.19,2.26,6.08a18.8,18.8,0,0,0,2.39,4.17,5.25,5.25,0,0,0,2.55,2,3.92,3.92,0,0,0,1.18.16h.27c1-.05,1.9-.07,2.85-.07,2.59,0,5.1.14,7.42.29,3.13.2,6.4.47,10,.84,3.88.39,8,.87,12.1,1.43,4.85.65,9.21,1.31,13.31,2a242.1,242.1,0,0,1,31.74,7.25,5.7,5.7,0,0,1,.73.25c1.22.32,2.33.72,3.33,1.08l.71.26a69.87,69.87,0,0,1,12.41,5.57,28.28,28.28,0,0,1,5,3.55,17.32,17.32,0,0,1,2.06,2,7.61,7.61,0,0,1,5.18,6.76,12.27,12.27,0,0,1,0,1.82l1,.7-.35,1.27h0v14.62l-.56.14a3.59,3.59,0,0,1-.08.35,6.07,6.07,0,0,1-.19,1.05,13.8,13.8,0,0,1-.46,2.14l-.06.25a38.09,38.09,0,0,1-1.13,4.33l-.06.19a89.57,89.57,0,0,1-9.39,20.3,126.22,126.22,0,0,1-21.25,26c-.17.16-.35.31-.53.46-1.45,1.44-3,2.7-4.39,3.93l-.23.18a119.07,119.07,0,0,1-10.28,7.8l-.64.39c-.82.61-1.63,1.11-2.35,1.56l-.51.32c-1,.62-2,1.21-2.91,1.76l.22,1.36c.3,1.92.68,3.83,1.08,5.85l.48,2.51c0,.15,0,.29.07.43a6.41,6.41,0,0,1,.23,1.38,24.71,24.71,0,0,1,.58,3.9,12.71,12.71,0,0,1,0,4,9.38,9.38,0,0,1-.28,1.16L165.86,239h-1.75a13.9,13.9,0,0,1-6.17-1.44Z"/><path class="cls-2" d="M150.93,231.57h0c-1.41-1.54-2.69-3.12-3.93-4.65l-1.31-1.6a86.85,86.85,0,0,0-5.82-6.55c-2.38.74-4.84,1.43-7.46,2.07-4.56,1.12-9.33,2.08-14.2,2.85-5,.8-10.22,1.39-15.36,1.77-3.68.26-6.76.39-9.68.39h-.33c-.6,0-1.2.07-1.8.07s-1.25,0-1.88-.07h-.77c-.61,0-1.23,0-1.84-.06H85.8a12.84,12.84,0,0,1-1.62-.09H84.1c-.35,0-.71,0-1.06-.06h-.28a9.44,9.44,0,0,1-1.43-.1l-.65,0h-.05a8.86,8.86,0,0,1-1.38-.11l-.59-.06c-1.08-.05-2.07-.17-3-.28l-.55-.07A91.68,91.68,0,0,1,64,223a54.49,54.49,0,0,1-7-2.16,40,40,0,0,1-13.38-7.61,10.15,10.15,0,0,1-3-1.17,8.41,8.41,0,0,1-4.09-6.33,7.45,7.45,0,0,1,.07-2.11,27.16,27.16,0,0,1-1.65-6l-.55-.47V183.61l1,0a7.21,7.21,0,0,1,.14-.81,7.43,7.43,0,0,1,.16-.82,6.56,6.56,0,0,1,.17-.84,7,7,0,0,1,.29-1.11c.34-1.73.82-3.33,1.28-4.88a135.36,135.36,0,0,1,8.25-20.63,290.47,290.47,0,0,1,16.44-29c4.4-6.92,9-13.65,13.35-19.88.1-.16.21-.31.31-.46s.37-.55.56-.82a3.06,3.06,0,0,0,.43-2.19,14.15,14.15,0,0,0-1.16-4.43,29.66,29.66,0,0,0-5.09-8.49,6.51,6.51,0,0,1-.88-7.53l.11-.21a12.25,12.25,0,0,1,.68-1.23,18.79,18.79,0,0,1,2.65-3.27L73,77h-.64a14.29,14.29,0,0,1-2.23-.25l-.27-.05a6.85,6.85,0,0,1-5.41-4.48c-.62-1.63-1.18-3.26-1.75-4.92l-.24-.72c-.77-2.25-1.49-4.37-2.37-6.38A15.88,15.88,0,0,0,59,58,29.39,29.39,0,0,1,45.47,49a18.45,18.45,0,0,1-4.18-8.29,11.68,11.68,0,0,1-.22-1.6,8.4,8.4,0,0,1,0-2.74,8.08,8.08,0,0,1,.11-.86,12.64,12.64,0,0,1,1.22-4.12,7.22,7.22,0,0,1,.81-1.53,16.77,16.77,0,0,1,3.7-4.5A34.07,34.07,0,0,1,60,18.13L60,17H72.36l0,1.35a14.51,14.51,0,0,1,4.11,2.58A17.81,17.81,0,0,1,81,27.29a27.79,27.79,0,0,1,2.1,8.28,36.52,36.52,0,0,1-.34,10.25l0,.15a11.88,11.88,0,0,1-.25,1.2,16.18,16.18,0,0,0,1.38,3.15,49,49,0,0,0,5.35,7.92,7.65,7.65,0,0,1,1.52,6.93,11.31,11.31,0,0,1-2,4l.34.64h0a14.46,14.46,0,0,1,1.47-.07,19.9,19.9,0,0,1,3.73.38,6.77,6.77,0,0,1,5.28,4.59l.5,1.48c.73,2.15,1.41,4.19,2.26,6.08a18.8,18.8,0,0,0,2.39,4.17,5.25,5.25,0,0,0,2.55,2,3.92,3.92,0,0,0,1.18.16h.27c1-.05,1.9-.07,2.85-.07,2.59,0,5.1.14,7.42.29,3.13.2,6.4.47,10,.84,3.88.39,8,.87,12.1,1.43,4.85.65,9.21,1.31,13.31,2a242.1,242.1,0,0,1,31.74,7.25,5.7,5.7,0,0,1,.73.25c1.22.32,2.33.72,3.33,1.08l.71.26a69.87,69.87,0,0,1,12.41,5.57,28.28,28.28,0,0,1,5,3.55,17.32,17.32,0,0,1,2.06,2,7.61,7.61,0,0,1,5.18,6.76,12.27,12.27,0,0,1,0,1.82l1,.7-.35,1.27h0v14.62l-.56.14a3.59,3.59,0,0,1-.08.35,6.07,6.07,0,0,1-.19,1.05,13.8,13.8,0,0,1-.46,2.14l-.06.25a38.09,38.09,0,0,1-1.13,4.33l-.06.19a89.57,89.57,0,0,1-9.39,20.3,126.22,126.22,0,0,1-21.25,26c-.17.16-.35.31-.53.46-1.45,1.44-3,2.7-4.39,3.93l-.23.18a119.07,119.07,0,0,1-10.28,7.8l-.64.39c-.82.61-1.63,1.11-2.35,1.56l-.51.32c-1,.62-2,1.21-2.91,1.76l.22,1.36c.3,1.92.68,3.83,1.08,5.85l.48,2.51c0,.15,0,.29.07.43a6.41,6.41,0,0,1,.23,1.38,24.71,24.71,0,0,1,.58,3.9,12.71,12.71,0,0,1,0,4,9.38,9.38,0,0,1-.28,1.16L160.86,234h-1.75a13.9,13.9,0,0,1-6.17-1.44Z"/><path class="cls-3" d="M40.55,189.73l.12-.32c.37.36.21.8.2,1.22a2.55,2.55,0,0,1-.25.7.15.15,0,0,1-.21,0v-.74C40.6,190.34,40.37,190,40.55,189.73Z"/><path class="cls-4" d="M40.69,195.21c-.27-.24,0-.65-.28-.89v-.74a.16.16,0,0,1,.21,0,1.51,1.51,0,0,1,.24.55C40.89,194.52,41,194.9,40.69,195.21Z"/><path class="cls-5" d="M40.41,191.36h.14a1.75,1.75,0,0,1,.09,1.56.17.17,0,0,1-.23.07Z"/><path class="cls-6" d="M210.29,130.45v1.48a.16.16,0,0,1-.22-.05,1.83,1.83,0,0,1,0-1.38A.15.15,0,0,1,210.29,130.45Z"/><path class="cls-7" d="M210.29,133.56h-.12a.8.8,0,0,1-.1-1,.2.2,0,0,1,.22-.09Z"/><path class="cls-8" d="M40.55,189.73c0,.3.06.61-.14.89v-.89Z"/><path class="cls-9" d="M210.29,129.11v.74a.17.17,0,0,1-.2,0,.62.62,0,0,1,0-.67A.14.14,0,0,1,210.29,129.11Z"/><path class="cls-10" d="M210.17,129.86a.17.17,0,0,1,.12,0v.6h-.13a.38.38,0,0,1-.08-.51Z"/><path class="cls-11" d="M40.41,193h.14a.39.39,0,0,1,0,.59h-.14Z"/><path class="cls-12" d="M210.29,132.52h-.06l-.06,0-.09-.06a.38.38,0,0,1,.08-.51h.13Z"/><path class="cls-13" d="M65.9,23.13a.53.53,0,0,1,0-.13h.59v.13A.39.39,0,0,1,65.9,23.13Z"/><path class="cls-14" d="M156.93,229v-.15a.4.4,0,0,1,.57,0l0,.17Z"/><path class="cls-15" d="M210.29,129.11h-.12a.28.28,0,0,1,0-.45h.12Z"/><path class="cls-16" d="M46.51,207.65a1.07,1.07,0,0,0-.7-.18,4.74,4.74,0,0,1-2.1-.59,2.11,2.11,0,0,1-.51-3.47c-.08-.16,0-.24.14-.31,1.63-.38,3.3-.51,4.95-.79s3.48-.67,5.22-1c4.85-1,9.62-2.26,14.37-3.63,9.66-2.79,19.15-6.1,28.54-9.69,7.78-3,15.45-6.19,23.06-9.57,3.86-1.72,7.68-3.5,11.49-5.33,2.16-1,4.3-2.12,6.45-3.17,4.19-2,8.3-4.25,12.4-6.47,4.56-2.47,9.05-5.06,13.49-7.72,1.1-.66,2.19-1.35,3.28-2a212.43,212.43,0,0,0,21.95-15.51,111.12,111.12,0,0,0,10.83-10.09,54.19,54.19,0,0,0,6.84-8.82,3.64,3.64,0,0,1,.43-.6.38.38,0,0,1,.4-.11l.74,0a1.68,1.68,0,0,1,1.78,1.69,5.86,5.86,0,0,1-.22,2.2,2.44,2.44,0,0,0-.05,1.23c.05.13,0,.2-.12.26-.32,0-.42.32-.57.54a79,79,0,0,1-7.08,8.84,126.83,126.83,0,0,1-16,14.29A234.9,234.9,0,0,1,161,164q-6.25,3.68-12.69,7.05c-3.52,1.85-7,3.71-10.62,5.43-6.94,3.35-13.94,6.56-21,9.54q-8.69,3.65-17.51,6.9c-7.33,2.68-14.73,5.16-22.22,7.39-5.3,1.57-10.64,3-16,4.32-4.59,1.09-9.2,2.1-13.85,2.89C46.82,207.56,46.68,207.72,46.51,207.65Z"/><path class="cls-16" d="M65.9,23.13a1.52,1.52,0,0,0,.6,0,9.42,9.42,0,0,1,6,2.3,11.84,11.84,0,0,1,3,4.27,21.79,21.79,0,0,1,1.63,6.5,30,30,0,0,1-.28,8.56,6.7,6.7,0,0,1-.23,1.08,4.67,4.67,0,0,0,0,2.77,22,22,0,0,0,1.92,4.56,55.62,55.62,0,0,0,6,8.88,1.67,1.67,0,0,1,.34,1.63,6,6,0,0,1-1.57,2.64,10.05,10.05,0,0,1-1.67,1.46.4.4,0,0,0-.15.61c1.37,2.6,2.74,5.2,4.09,7.8a.43.43,0,0,0,.59.25,20.39,20.39,0,0,1,3.49-.61,12.68,12.68,0,0,1,3.53.24.83.83,0,0,1,.7.64c.92,2.71,1.78,5.44,3,8.05a24.67,24.67,0,0,0,3.19,5.49,11.27,11.27,0,0,0,5.43,3.93,10.2,10.2,0,0,0,3.51.43,88.4,88.4,0,0,1,9.63.22c3.25.2,6.5.48,9.74.81q6,.61,11.91,1.42,6.57.87,13.1,2a240.78,240.78,0,0,1,31.06,7.1.59.59,0,0,1,.33.15c0,.24-.15.27-.31.32a6.33,6.33,0,0,1-2.22-.53c-4.71-1.39-9.48-2.55-14.28-3.59-7.89-1.71-15.84-3.08-23.83-4.23a5.52,5.52,0,0,0-1.62-.08c-1.47-.15-2.93-.38-4.4-.56-3.49-.47-7-.85-10.51-1.21-2.67-.28-5.35-.5-8-.71a110.92,110.92,0,0,0-11.09-.31,10.46,10.46,0,0,1-8-3.49c-2.54-2.6-4-5.85-5.3-9.16-.43-1.08-.78-2.19-1.15-3.29-.09-.25-.11-.53-.34-.72a19.89,19.89,0,0,1-11.34,7,13.91,13.91,0,0,1-5.1.28A.83.83,0,0,1,77,86l-.42-.14c-.07,0-.1,0-.08,0s.06.07.09.11a38.9,38.9,0,0,1,5.73,10.41,18.25,18.25,0,0,1,1.23,6.36,9.45,9.45,0,0,1-1.63,5.45c-3.6,5.25-7.26,10.46-10.74,15.79-1.91,2.92-3.8,5.84-5.62,8.8-1.22,1.8-2.32,3.67-3.42,5.54q-3.78,6.27-7.22,12.75-2.71,5.13-5.18,10.4c-.7,1.49-1.39,3-2,4.54a111.09,111.09,0,0,0-4,10.77c-.33.87-.48,1.8-.82,2.67,0,.07-.05.14-.08.2a18.38,18.38,0,0,0-.57,1.92c-.05.13-.09.25-.13.38a.94.94,0,0,1-.1.28.24.24,0,0,1-.16.09.19.19,0,0,1-.13-.14.6.6,0,0,1,.06-.37,44.84,44.84,0,0,1,1.28-5,131.33,131.33,0,0,1,7.89-19.69,288.21,288.21,0,0,1,16.1-28.37c4.24-6.67,8.7-13.18,13.21-19.67.29-.4.55-.82.84-1.22a9,9,0,0,0,1.52-6.12,20.3,20.3,0,0,0-1.59-6.28A36,36,0,0,0,75,85.35a.56.56,0,0,1-.09-.73c.18-.34.34-.71.55-1A13.94,13.94,0,0,1,80.39,79c.17,0,.11-.38.37-.29a.75.75,0,0,1,.36.77.37.37,0,0,1-.22.25A12,12,0,0,0,76.15,84c-.28.43-.11.69.34.83a7.78,7.78,0,0,0,2.35.25A18,18,0,0,0,90.23,80.8,9.79,9.79,0,0,0,92.81,78c.48-.9.31-1.17-.7-1.28a14,14,0,0,0-4.91.35c-.7.17-.73.27-.38.9a1.75,1.75,0,0,1-.3,2.57,4.75,4.75,0,0,1-3.66,1.65c-.31,0-.66,0-.83-.34,0-.19.15-.25.3-.3.63-.1,1.33.11,1.84-.47a12.84,12.84,0,0,0,1.6-1.17A1.13,1.13,0,0,0,86,78.43c-1.41-2.56-2.74-5.17-4.11-7.75a3.45,3.45,0,0,1-.36-.81c0-.21,0-.44,0-.65-.19-.62-.46-.75-1-.38-1.06.72-2.31,1.06-3.42,1.67a.28.28,0,0,1-.29.06c-.19-.23-.4-.1-.61,0a12.72,12.72,0,0,1-3.58.48,12,12,0,0,1-1.69-.22.91.91,0,0,1-.77-.68C69.5,68.54,69,67,68.41,65.37c-.87-2.54-1.71-5.09-2.79-7.56a20.36,20.36,0,0,0-1.8-3.39A5.14,5.14,0,0,0,61,52.3a23.38,23.38,0,0,1-11-7.15,12.4,12.4,0,0,1-2.87-5.6,4.57,4.57,0,0,1-.11-1.1,4.51,4.51,0,0,1,0-1.42,1.23,1.23,0,0,1,.05-.54c.14,0,.2.07.25.18a2.22,2.22,0,0,1,.07.57v.56c0,.18,0,.36,0,.54a1.45,1.45,0,0,0,.1.41,13.06,13.06,0,0,0,3.67,6.65A23.61,23.61,0,0,0,57,49.74a24.87,24.87,0,0,0,4.85,2,4.65,4.65,0,0,1,2.42,2,29.46,29.46,0,0,1,3.1,6.54c1.08,2.82,1.94,5.71,3,8.51a5.8,5.8,0,0,0,.42.87c.13.32.41.39.71.45a9.62,9.62,0,0,0,4.67-.43A15.64,15.64,0,0,0,82,66.59a8.22,8.22,0,0,0,1.89-2.26,1.66,1.66,0,0,0-.16-2.09,54,54,0,0,1-6.55-10.13,20.4,20.4,0,0,1-1.25-3.32,5.86,5.86,0,0,1-.06-3A26.76,26.76,0,0,0,75.14,31a10.58,10.58,0,0,0-3.81-5.44A8.52,8.52,0,0,0,65.22,24c-5.17.61-9.55,3-13.53,6.23a22.14,22.14,0,0,0-2.81,3.23.47.47,0,0,1-.3.12.37.37,0,0,1-.21-.06c-.1-.1-.19-.21-.12-.37a10.38,10.38,0,0,1,2.6-3.28,28.12,28.12,0,0,1,13-6.56A20.57,20.57,0,0,1,65.9,23.13Z"/><path class="cls-17" d="M184.46,106.46c.13,0,.27,0,.34-.18a37.69,37.69,0,0,1,4.14,1.34,64.22,64.22,0,0,1,11.36,5.09,21.12,21.12,0,0,1,4.07,2.91c0,.14,0,.2-.16.23a1.12,1.12,0,0,1-.64-.34,42.77,42.77,0,0,0-9.89-5.5,11,11,0,0,0-1.44-.57c-2.26-.88-4.51-1.74-6.83-2.43C185.08,106.85,184.63,106.89,184.46,106.46Z"/><path class="cls-18" d="M209.12,123.92l.17-.2a3.6,3.6,0,0,1,.31,1.11l0,.1a1.37,1.37,0,0,1,.09.57c.08.16,0,.35.11.5l0,.26c.11.19,0,.43.11.63l.06.34c.05.11,0,.24.06.35l0,.8c-.14.12.09.42-.23.46-.31-.23-.21-.58-.25-.89,0-.51-.15-1-.16-1.52,0-.11,0-.22-.08-.34C209.33,125.37,208.89,124.69,209.12,123.92Z"/><path class="cls-19" d="M204.2,115.78l.17-.16a10.92,10.92,0,0,1,2.67,3l-.28.16c-.5-.3-.73-.86-1.13-1.25a12.69,12.69,0,0,0-1.1-1.1C204.35,116.25,204.14,116.08,204.2,115.78Z"/><path class="cls-20" d="M210,128.84c0-.15,0-.34.14-.46l0,.28v1.2l0,0a.14.14,0,0,1-.21-.06A.91.91,0,0,1,210,128.84Z"/><path class="cls-21" d="M210,126.89c-.2-.18-.13-.41-.11-.63A1,1,0,0,1,210,126.89Z"/><path class="cls-21" d="M209.83,126c-.17-.14-.13-.32-.11-.5A.6.6,0,0,1,209.83,126Z"/><path class="cls-22" d="M210.1,127.58a.3.3,0,0,1-.06-.35A.3.3,0,0,1,210.1,127.58Z"/><polygon class="cls-23" points="209.63 124.93 209.59 124.89 209.6 124.83 209.65 124.87 209.63 124.93"/><path class="cls-24" d="M43.4,203.2l-.2.21a19.24,19.24,0,0,1-2.35-7c-.06-.39-.11-.79-.16-1.18v-1.12a22.57,22.57,0,0,1,0-3.39v-1.29a.35.35,0,0,1,0-.13.5.5,0,0,0,.06-.32,3.05,3.05,0,0,1,0-.8,1,1,0,0,1,0-.51.15.15,0,0,1,.21.06,1.22,1.22,0,0,1,.12.6,6.88,6.88,0,0,1-.05,1.36,2.16,2.16,0,0,0-.07.51c0,1.23,0,2.46,0,3.69a1.39,1.39,0,0,0,.06.61,22.49,22.49,0,0,0,2.22,8.23A.48.48,0,0,1,43.4,203.2Z"/><path class="cls-25" d="M80.71,78.73c-.12.06-.14.26-.32.26.09-.3-.11-.51-.22-.75-1.08-2.4-2.18-4.79-3.26-7.19a3.9,3.9,0,0,1-.17-.48l.16-.18c.35.07.44.38.55.64,1,2.29,2,4.59,3.13,6.86C80.71,78.15,80.87,78.42,80.71,78.73Z"/><path class="cls-26" d="M47.23,36.63l-.13-.14a6.45,6.45,0,0,1,.84-2.73.34.34,0,0,1,.16.28,1.8,1.8,0,0,1,0,.22c0,.1,0,.21-.08.32-.21.67-.32,1.37-.57,2A.14.14,0,0,1,47.23,36.63Z"/><path class="cls-27" d="M41,187.65h-.13a.77.77,0,0,1,0-.45,3.29,3.29,0,0,1,.07-.36,1.74,1.74,0,0,1,.07-.68c0-.12.05-.24.08-.37a.56.56,0,0,1,0-.36.14.14,0,0,1,.18,0,.46.46,0,0,1,.08.19,1.89,1.89,0,0,1,0,.41,2.87,2.87,0,0,1-.05.31,2.32,2.32,0,0,0-.09.7,1.14,1.14,0,0,1-.07.41A.37.37,0,0,1,41,187.65Z"/><path class="cls-28" d="M41.3,185.58v-.15a.65.65,0,0,1,0-.53.59.59,0,0,1,0-.37c.09-.15,0-.34.11-.49l0-.24a.14.14,0,0,1,.19,0,.65.65,0,0,1,.11.41,1.51,1.51,0,0,1,0,.42,2.7,2.7,0,0,0-.08.41,1.06,1.06,0,0,1-.14.51A.15.15,0,0,1,41.3,185.58Z"/><path class="cls-29" d="M41.62,184.28l0-.49a.61.61,0,0,1,0-.51l0-.22a.24.24,0,0,1,.21-.07.21.21,0,0,1,.16.13,2,2,0,0,1-.16,1.09A.18.18,0,0,1,41.62,184.28Z"/><path class="cls-30" d="M47.05,37a6.13,6.13,0,0,1,0,1.42A2.37,2.37,0,0,1,47.05,37Z"/><path class="cls-31" d="M48,34.13l0-.37a.93.93,0,0,1,.31-.57l.16.34C48.38,33.82,48.33,34.08,48,34.13Z"/><path class="cls-27" d="M40.83,188.16l0,1a.08.08,0,0,1-.13,0A1.89,1.89,0,0,1,40.83,188.16Z"/><path class="cls-32" d="M41.86,183.06h-.12a.51.51,0,0,1,0-.48l0-.26c.05-.07.09-.07.13,0h0a.56.56,0,0,1,.15.44A.39.39,0,0,1,41.86,183.06Z"/><path class="cls-33" d="M41.72,182.58c0,.16,0,.32,0,.48H41.6A.59.59,0,0,1,41.72,182.58Z"/><path class="cls-34" d="M41.28,184.9v.53h-.12A.67.67,0,0,1,41.28,184.9Z"/><path class="cls-29" d="M41.43,184c0,.17,0,.36-.11.49A.62.62,0,0,1,41.43,184Z"/><path class="cls-33" d="M41.57,183.28l0,.51h-.13A.68.68,0,0,1,41.57,183.28Z"/><path class="cls-35" d="M41.89,182.32h-.13a.54.54,0,0,1,.12-.46Z"/><path class="cls-28" d="M41,186.84a.43.43,0,0,1-.07.36A.44.44,0,0,1,41,186.84Z"/><path class="cls-28" d="M41.13,185.79a.44.44,0,0,1-.08.37A.44.44,0,0,1,41.13,185.79Z"/><path class="cls-36" d="M40.72,189.13h.13l-.13.15Z"/><path class="cls-37" d="M157.5,228.83l-.57,0a7.59,7.59,0,0,1-1.83-1.61c-1.68-1.85-3.2-3.82-4.79-5.74a88.76,88.76,0,0,0-6.47-7.23c-.68-.65-1.39-1.27-2.09-1.89a.93.93,0,0,0-1.06-.19c-3.2,1.09-6.45,2-9.73,2.83q-6.78,1.66-13.7,2.75-7.4,1.17-14.86,1.7c-3.08.23-6.16.38-9.25.38l-.37,0a22.85,22.85,0,0,1-3.51,0,22.91,22.91,0,0,1-2.62,0c-.7-.15-1.43.05-2.13-.11a5,5,0,0,1-1.28,0c-.45-.15-.94,0-1.39-.11a2.31,2.31,0,0,1-.83,0c-.36-.15-.75,0-1.11-.12a1.48,1.48,0,0,1-.66,0c0-.23.18-.26.34-.31a6.28,6.28,0,0,1,1.5,0,2,2,0,0,0,.49.07,17.07,17.07,0,0,1,1.75.07,1.71,1.71,0,0,0,.63.08c1.07,0,2.15-.07,3.22.06a2.52,2.52,0,0,0,1.06.09h5.58a2.37,2.37,0,0,0,1.06-.08c1.6-.08,3.2-.1,4.8-.2s3.49-.21,5.23-.35c4.52-.4,9-1,13.51-1.7a145.62,145.62,0,0,0,22.37-5.44,94.09,94.09,0,0,0,20.75-10.07,7.63,7.63,0,0,1,2-1.13c.13,0,.24.06.23.22-.88.68-1.83,1.24-2.77,1.83-2,1.25-4,2.45-6.11,3.54-.1.06-.12.17-.18.25a56.92,56.92,0,0,1-5.34,2.71c-2.35,1.09-4.76,2-7.34,3,.7.51,1.17,1.1,1.75,1.57a31.11,31.11,0,0,1,3.39,3.5c1.88,2,3.59,4.19,5.34,6.32a.88.88,0,0,1,.12.17l.18.25c1.14,1.27,2.14,2.65,3.38,3.82.29.28.58.75,1,.59s.25-.69.37-1a2.44,2.44,0,0,0,.05-.81c.06-.32-.15-.74.34-.9a6.87,6.87,0,0,1,0,2.35A1.74,1.74,0,0,1,157.5,228.83Z"/><path class="cls-38" d="M209.1,140.67a29.38,29.38,0,0,1-1.09,4.22,83.76,83.76,0,0,1-8.77,18.94A119.82,119.82,0,0,1,179,188.58c-.13.12-.27.22-.4.32a.12.12,0,0,1-.1-.11.23.23,0,0,1,0-.14.38.38,0,0,1,.09-.12l.05-.06.1-.1.06-.05.1-.1.05-.05.1-.11,0-.05.1-.1,0-.06.11-.1,0-.06.11-.12.06-.06.1-.15a.56.56,0,0,0,.05-.08l.1-.16c.93-1.07,2-2,3-3a117.21,117.21,0,0,0,12.22-14.73A102,102,0,0,0,203,156a70.42,70.42,0,0,0,5.43-14.53c.08-.32.08-.69.38-.93C209,140.47,209.05,140.57,209.1,140.67Z"/><path class="cls-39" d="M178.54,188.67l.05.23c-1.41,1.44-3,2.74-4.5,4a115.08,115.08,0,0,1-9.78,7.4c-.18.12-.37.22-.56.33l-.17-.14c0-.34.3-.43.51-.58,2.49-1.77,5-3.52,7.36-5.46,2.08-1.69,4.17-3.39,6.1-5.26A1.48,1.48,0,0,1,178.54,188.67Z"/><path class="cls-40" d="M155,208.38c.18,1.09.36,2.18.53,3.27.46,2.86,1.06,5.7,1.6,8.54,0,.24.06.49.08.73s0,.36.12.52l0,.25c0,.23.17.48-.09.67-.15,0-.19-.15-.23-.26a4,4,0,0,0-.17-.59c-.74-3.39-1.38-6.81-2-10.23a21.44,21.44,0,0,1-.35-2.64.27.27,0,0,1,.43-.26Z"/><path class="cls-41" d="M210,135.4l0,.38a.39.39,0,0,0-.07.29,1.45,1.45,0,0,1,0,.51l0,.39c-.09.17-.05.36-.11.53a.56.56,0,0,1,0,.36c-.09.16,0,.35-.11.52a8.53,8.53,0,0,1-.44,2.18.88.88,0,0,1-.28-.38,13.76,13.76,0,0,1,.4-2.38,2.07,2.07,0,0,0,.1-.43,4.34,4.34,0,0,1,.07-.63c0-.11.05-.21.07-.31s0-.48.08-.72.05-.2.07-.3,0-.21,0-.31a2.53,2.53,0,0,1,.09-.87.29.29,0,0,1,.16-.15.24.24,0,0,1,.21.07v.3C210,134.76,210.14,135.09,210,135.4Z"/><path class="cls-42" d="M157.24,222.33c.2-.18.1-.43.15-.64a19.76,19.76,0,0,1,.57,3.75c-.28.33-.06.73-.17,1.09a.44.44,0,0,1-.31-.46c0-1.08-.26-2.13-.4-3.2A.58.58,0,0,1,157.24,222.33Z"/><path class="cls-43" d="M210.12,134.15H210a.59.59,0,0,1-.16-.3,1.38,1.38,0,0,1,0-.35,2.05,2.05,0,0,1,.11-.92.13.13,0,0,1,.19-.05h0l0,0a4.7,4.7,0,0,0,0,1.06Z"/><path class="cls-44" d="M210,135.4c0-.32-.12-.65.1-1A1.81,1.81,0,0,1,210,135.4Z"/><path class="cls-45" d="M154.68,206.23a.27.27,0,0,1,.19-.18c0,.29,0,.57,0,.86l-.1.05a.25.25,0,0,1-.17-.11A.61.61,0,0,1,154.68,206.23Z"/><path class="cls-46" d="M154.88,206.91a1.73,1.73,0,0,1,.11.9.15.15,0,0,1-.2,0,.94.94,0,0,1-.11-.32.75.75,0,0,1,.15-.54Z"/><path class="cls-44" d="M209.87,136.58l0-.65a.08.08,0,0,1,.13,0A1.11,1.11,0,0,1,209.87,136.58Z"/><path class="cls-47" d="M154.86,207.8H155l0,.57h-.19A.41.41,0,0,1,154.86,207.8Z"/><path class="cls-42" d="M157.36,221.44c-.18-.14-.13-.33-.12-.52A.64.64,0,0,1,157.36,221.44Z"/><path class="cls-48" d="M209.57,138.38c0-.18-.06-.38.11-.52A.64.64,0,0,1,209.57,138.38Z"/><path class="cls-49" d="M209,140.23c.12.08.11.21.15.33a.08.08,0,0,1,0,.11l-.16-.18A.18.18,0,0,1,209,140.23Z"/><path class="cls-48" d="M209.72,137.5c0-.19-.06-.38.11-.53A.71.71,0,0,1,209.72,137.5Z"/><path class="cls-48" d="M210,135.93h-.13l.14-.15Z"/><path class="cls-50" d="M79.57,219.2a.41.41,0,0,0-.32.15,29.71,29.71,0,0,1-3.38-.32,84.45,84.45,0,0,1-10.45-1.88,48.69,48.69,0,0,1-6.33-2c0-.17.1-.22.23-.26a9.18,9.18,0,0,1,2.47.7,80.75,80.75,0,0,0,14.26,2.93c1,.12,2,.25,2.94.31C79.22,218.89,79.5,218.88,79.57,219.2Z"/><path class="cls-51" d="M59.27,215.05l-.18.15A33.75,33.75,0,0,1,46.79,208a2.3,2.3,0,0,1-.28-.34c.12-.06.13-.25.29-.27a34.21,34.21,0,0,0,11.51,7.07C58.66,214.59,59.1,214.61,59.27,215.05Z"/><path class="cls-52" d="M89.27,219.83c1.17-.06,2.34-.05,3.51,0A19.6,19.6,0,0,1,89.27,219.83Z"/><path class="cls-50" d="M84.52,219.68l1.59,0c.19,0,.39,0,.54.13A8.44,8.44,0,0,1,84.52,219.68Z"/><path class="cls-50" d="M81.85,219.53c.46,0,1-.14,1.39.11A3.82,3.82,0,0,1,81.85,219.53Z"/><path class="cls-50" d="M79.91,219.38c.37,0,.76-.13,1.11.12A2.47,2.47,0,0,1,79.91,219.38Z"/><path class="cls-36" d="M40.68,190.7c0,1.13,0,2.26,0,3.39l-.14-.51a1.47,1.47,0,0,0,0-.59v-1.63C40.62,191.14,40.53,190.9,40.68,190.7Z"/><path class="cls-53" d="M210.11,132.53H210a3.25,3.25,0,0,1,0-2.68h.11c0,.2,0,.4,0,.6v1.5C210.15,132.14,210.13,132.34,210.11,132.53Z"/><path class="cls-54" d="M137.52,170c-1.16.71-2.4,1.25-3.62,1.84a451.69,451.69,0,0,1-50,20.9c-8.06,2.8-16.2,5.33-24.49,7.38-1.75.43-3.5.83-5.26,1.24-.16,0-.34,0-.51.06-.54.13-.75-.27-1-.62a19.77,19.77,0,0,1-2.6-6,27.82,27.82,0,0,1-.78-8.43.85.85,0,0,1,.09-.22,3.68,3.68,0,0,1,1.33-.45c9.5-2.72,18.8-6,28-9.57,7.34-2.81,14.59-5.81,21.8-8.94q7.67-3.33,15.24-6.91c4-1.9,8-3.88,12.07-5.83.49-.23,1-.49,1.44-.77a1.79,1.79,0,0,1,1.09-.39c.38.13.49.48.62.78,2.24,5,4.42,10,6.41,15C137.52,169.42,137.72,169.71,137.52,170Z"/><path class="cls-23" d="M59.27,215.05c-1.65-.72-3.32-1.36-4.92-2.18a30.85,30.85,0,0,1-6.74-4.5c-.31-.28-.76-.48-.81-1,1.26-.13,2.48-.41,3.71-.65q8-1.59,15.92-3.66,6.51-1.71,12.95-3.68c4.53-1.37,9-2.86,13.49-4.42q10.95-3.79,21.64-8.25,9.22-3.83,18.27-8.09,7.33-3.45,14.51-7.23c8.32-4.38,16.48-9.06,24.36-14.2a204.94,204.94,0,0,0,16.77-12q4.1-3.3,7.94-6.88a86.78,86.78,0,0,0,10-10.92c.85-1.12,1.67-2.26,2.41-3.45.16-.24.27-.3.37,0,.15.74.31,1.49.46,2.23,0,.06.09.11.1.19-.07.55.19,1.06.13,1.61a15,15,0,0,1-2.39,4.81,60.8,60.8,0,0,1-5.86,7.53c-1.18,1.33-2.42,2.61-3.67,3.87-1.67,1.67-3.37,3.33-5.15,4.89-3,2.62-6,5.18-9.08,7.62a177.91,177.91,0,0,1-21.47,14.5q-10.77,6.17-21.93,11.6t-22.34,10.11c-6.46,2.68-13,5.24-19.62,7.37-4.38,1.39-8.79,2.67-13.18,4a66.31,66.31,0,0,0-7.39,2.65A9.06,9.06,0,0,0,76,208,1.85,1.85,0,0,0,75.7,211a10.45,10.45,0,0,0,4,2.67,59.62,59.62,0,0,0,12.79,3.4c3.6.63,7.23,1.07,10.86,1.47.59.06,1.25-.14,1.75.37a10,10,0,0,1-2.18.23c-1.93.17-3.87.23-5.8.33-.76,0-1.52,0-2.29.06-.29.08-.6,0-.89.08H88.17c-.29-.13-.61,0-.9-.09l-3.4-.05c-.14-.1-.32,0-.46-.1l-1.91-.05a1.18,1.18,0,0,0-.31-.08,9.76,9.76,0,0,0-1.62-.07,8.22,8.22,0,0,0-2.1-.26c-2-.23-4-.48-6-.82a70.94,70.94,0,0,1-8.41-1.88c-1-.29-2-.63-3-.94A3.53,3.53,0,0,0,59.27,215.05Z"/><path class="cls-54" d="M204.2,115.78a21.07,21.07,0,0,1,2.18,2.35,1.84,1.84,0,0,1,.38.61,68.71,68.71,0,0,1-12.64,14.83,181.08,181.08,0,0,1-25.34,19l-2.07,1.28a34.7,34.7,0,0,1-1.69-3.19A98.45,98.45,0,0,0,158,139.1c-.2-.27-.46-.53-.39-.92a6,6,0,0,1,2-1.46A196.21,196.21,0,0,0,177.69,124c2.19-1.76,4.28-3.64,6.36-5.53a66.81,66.81,0,0,0,7.25-7.89c.35-.43.55-1,1.1-1.27A44.84,44.84,0,0,1,204.2,115.78Z"/><path class="cls-55" d="M209,120.86a5.82,5.82,0,0,1-.88,3,69.93,69.93,0,0,1-6.29,8A123.32,123.32,0,0,1,186,146.32,238.49,238.49,0,0,1,159,164.23q-10.74,6.22-21.9,11.65Q120,184.22,102.2,191c-8.87,3.34-17.84,6.38-26.94,9.05-8.43,2.48-16.94,4.6-25.56,6.29-1.05.2-2.09.4-3.14.56a3.72,3.72,0,0,1-2.62-.54,1.53,1.53,0,0,1-.72-1.84,1,1,0,0,1,.87-.68c3.48-.42,6.92-1,10.35-1.79,4.29-.94,8.54-2,12.76-3.24,11.44-3.28,22.65-7.24,33.72-11.61q14.3-5.66,28.18-12.24a383.25,383.25,0,0,0,36-19.32,226.26,226.26,0,0,0,19.36-13.14A122.67,122.67,0,0,0,200,128.68a59.74,59.74,0,0,0,6.86-8.82c.38-.61.58-.71,1.19-.58a1,1,0,0,1,.94,1.06A4.51,4.51,0,0,1,209,120.86Z"/><path class="cls-56" d="M157.67,138.17a1.06,1.06,0,0,0,.26.6,83.54,83.54,0,0,1,5.23,8.11c1.17,2,2.25,4.09,3.3,6.18a1.38,1.38,0,0,1,.25.76c-2.88,1.86-5.84,3.59-8.8,5.31-6.48,3.76-13.09,7.29-19.78,10.66a1.92,1.92,0,0,1-.61.25A39.6,39.6,0,0,0,136,166.2c-1.24-3-2.52-6-3.8-8.95-.46-1.06-.94-2.1-1.43-3.15a1.42,1.42,0,0,0-.42-.68.18.18,0,0,1,0-.21,32.59,32.59,0,0,1,3.19-1.71Q145,145.59,156,138.93a6.17,6.17,0,0,1,1.48-.83A.29.29,0,0,1,157.67,138.17Z"/><path class="cls-57" d="M49.44,186.31c0,.62,0,1.23,0,1.85a26.21,26.21,0,0,0,1.45,8.64A19.54,19.54,0,0,0,53,200.94c.18.25.34.48.67.52a38.1,38.1,0,0,1-4,.82c-2,.34-3.94.61-5.91.91H43.4a21.82,21.82,0,0,1-2.46-8.75,1.55,1.55,0,0,0-.07-.48v-3.89a.92.92,0,0,0,.06-.33,7.74,7.74,0,0,0,.09-1.44.39.39,0,0,1,.13-.2,9.42,9.42,0,0,1,2.35-.59c1.65-.37,3.3-.79,5-1.2C48.77,186.24,49.1,186.07,49.44,186.31Z"/><path class="cls-55" d="M184.46,106.46c.28.23.67.18.95.41,0,.63-.53,1-.91,1.37a91.46,91.46,0,0,1-12.76,10.91c-5,3.67-10.19,7.06-15.46,10.34-1.13.7-2.29,1.36-3.4,2.09a1.41,1.41,0,0,1-.67.3.46.46,0,0,1-.21,0,72.76,72.76,0,0,0-17.55-13.46c-3.22-1.83-6.44-3.64-9.83-5.15-.45-.2-1-.31-1.26-.83.13-.5.62-.6,1-.82a115.74,115.74,0,0,0,11.42-7.69,59.45,59.45,0,0,0,5.06-4.32A10.88,10.88,0,0,1,142.6,98c.51-.31,1,0,1.51,0,5.39.78,10.77,1.64,16.12,2.66a225.82,225.82,0,0,1,23.65,5.64A5.43,5.43,0,0,0,184.46,106.46Z"/><path class="cls-58" d="M82.37,85.56l1.35-.36a20,20,0,0,0,8.83-5.47,7,7,0,0,0,1.13-1.6,2.15,2.15,0,0,1,.39.88,54.42,54.42,0,0,0,3.4,8.34,18.62,18.62,0,0,0,3.59,4.86,10.68,10.68,0,0,0,8.3,3,69.08,69.08,0,0,1,8.51.17c2.26.15,4.53.33,6.79.52q4.05.34,8.1.83l4.26.51c.37,0,.73.12,1.09.18,0,.41-.31.59-.56.81a72.87,72.87,0,0,1-12.26,8.5c-2,1.14-4,2.24-6,3.28a3.06,3.06,0,0,0-.54.38.78.78,0,0,1-.83-.06c-.12-.08.1-.23-.13-.33-3.45-1.6-6.72-3.54-10.16-5.17-2.34-1.1-4.68-2.21-7.13-3.09a.62.62,0,0,0-.46-.08c.46.87,1,1.69,1.53,2.51,2.18,3.41,4.41,6.78,6.72,10.11.14.2.33.37.46.58a.46.46,0,0,1-.1.42,41.14,41.14,0,0,1-4.71,2.32q-6.61,3-13.35,5.87c-4.76,2-9.54,3.94-14.38,5.73-.27.11-.55.28-.85.08-.1-.46.25-.72.48-1,2.17-2.85,4.38-5.66,6.51-8.54a39.57,39.57,0,0,0,4.77-8.08,20.43,20.43,0,0,0,.57-14.06,44.52,44.52,0,0,0-5-11.16C82.52,86.16,82.25,85.93,82.37,85.56Z"/><path class="cls-55" d="M48.71,33.52A16.8,16.8,0,0,1,54.32,28a28.06,28.06,0,0,1,8.91-3.91A11.79,11.79,0,0,1,68.07,24a9,9,0,0,1,6.3,4.83,19,19,0,0,1,2,6.61,27,27,0,0,1,.28,5.24A23.26,23.26,0,0,1,76,45.75a5.74,5.74,0,0,0,.07,3.13,26.32,26.32,0,0,0,2.83,6.17,56.67,56.67,0,0,0,5.17,7.4,1.17,1.17,0,0,1,.24,1.16A5.57,5.57,0,0,1,82.81,66a15.4,15.4,0,0,1-7.58,4.11,9.27,9.27,0,0,1-4,.15c-.35-.07-.6-.21-.64-.59.33-.23.67,0,1,0a7.65,7.65,0,0,0,2.57,0c.35-.06.48-.18.34-.54-1.81-4.49-3.46-9-6-13.18a21.15,21.15,0,0,0-9.12-8.5c-1.47-.68-3-1.32-4.4-2.1A12.52,12.52,0,0,1,48.54,36,5.88,5.88,0,0,1,48.39,34,1,1,0,0,1,48.71,33.52Z"/><path class="cls-59" d="M82.37,85.56a44.46,44.46,0,0,1,3.2,5.82,36.37,36.37,0,0,1,2.82,8.06,20.35,20.35,0,0,1,.48,5.93,21,21,0,0,1-1.74,6.81,37.31,37.31,0,0,1-3.56,6.2c-1.23,1.77-2.54,3.5-3.88,5.19-1,1.27-2,2.58-2.94,3.87a16.09,16.09,0,0,0-1.35,1.84.31.31,0,0,1-.17.28c-2.64,1.08-5.35,2-8.06,2.86a.62.62,0,0,1-.5,0c-.25-.32,0-.56.15-.79,2.21-3.42,4.49-6.79,6.79-10.15,3-4.37,6.14-8.65,9.15-13a8.88,8.88,0,0,0,1.38-5.92c-.37-5.13-2.58-9.56-5.23-13.83a16.11,16.11,0,0,0-1.68-2.34c-.12-.15-.27-.3-.21-.52A19.59,19.59,0,0,0,82.37,85.56Z"/><path class="cls-60" d="M42.84,179.49a19.28,19.28,0,0,1,.82-2.68,30.82,30.82,0,0,0,1.2-3.38c.87-2.4,1.8-4.79,2.81-7.14,1.9-4.52,4.1-8.9,6.41-13.23,2.53-4.74,5.26-9.37,8-14a7.89,7.89,0,0,1,.7-1,1.09,1.09,0,0,1,.27-.21c2.35-.7,4.7-1.41,7-2.2a.84.84,0,0,1,.64-.06c.26.43-.11.69-.3,1-2.27,3.38-4.49,6.79-6.56,10.29A128.55,128.55,0,0,0,53,169.66c-.91,2.61-1.63,5.28-2.3,8a.53.53,0,0,1-.25.24c-2.37.73-4.79,1.27-7.22,1.78a.65.65,0,0,1-.24,0A.36.36,0,0,1,42.84,179.49Z"/><path class="cls-61" d="M48.55,33.94A11,11,0,0,0,49,37.27a11.74,11.74,0,0,0,3.87,6.41,17.21,17.21,0,0,0,4.3,2.57,27.68,27.68,0,0,1,6.32,3.5,19.81,19.81,0,0,1,3,3.1,35.52,35.52,0,0,1,4.64,7.7q1.5,3.21,2.74,6.54c.27.74.59,1.46.9,2.19.18.44.15.54-.32.54s-.82.16-1.24.17a9.66,9.66,0,0,1-2.63-.3A5.86,5.86,0,0,1,69.89,68c-1.09-2.91-2-5.88-3.14-8.77a28.78,28.78,0,0,0-2.46-5.13,5.44,5.44,0,0,0-3.09-2.36,24.26,24.26,0,0,1-9-5.14,17.2,17.2,0,0,1-3.58-4.3,11.31,11.31,0,0,1-1.28-3.6.63.63,0,0,1-.05-.3,1.38,1.38,0,0,0,0-.61v-.55c.11-.2,0-.42.09-.62a14.92,14.92,0,0,1,.49-2.18.71.71,0,0,1,.12-.18.35.35,0,0,0,0-.14c.19-.16.19-.47.43-.6h0C48.57,33.63,48.49,33.81,48.55,33.94Z"/><path class="cls-62" d="M118.67,110.3c.14-.31.46-.36.71-.49a136.8,136.8,0,0,0,12-7.08,44.48,44.48,0,0,0,6.7-5.3c1.51.13,3,.34,4.49.59a25.33,25.33,0,0,1-3,2.93,102.48,102.48,0,0,1-15.75,11.13l-.42.29a.45.45,0,0,1-.43.1c-1.21-.53-2.44-1-3.63-1.64C119.09,110.7,118.8,110.6,118.67,110.3Z"/><path class="cls-63" d="M82.07,81.83a2.87,2.87,0,0,0,2,0A4.42,4.42,0,0,0,87,79.54a.83.83,0,0,0,0-1c-.29-.45-.52-.94-.8-1.44a11.15,11.15,0,0,1,2.58-.59,11.73,11.73,0,0,1,4.05.07c.54.11.61.23.48.75a3.66,3.66,0,0,1-.58,1.19,10.87,10.87,0,0,1-1.76,1.89A18.74,18.74,0,0,1,80.6,85.2a11.11,11.11,0,0,1-3.9-.08c-1.19-.3-1.24-.42-.58-1.41a14.45,14.45,0,0,1,4.35-4.07.32.32,0,0,1,.4,0A9,9,0,0,1,82.07,81.83Z"/><path class="cls-58" d="M77,85.86a30.1,30.1,0,0,1,3.64,5.45,32.88,32.88,0,0,1,2.63,6,22.6,22.6,0,0,1,1,5,13.53,13.53,0,0,1-.29,3.71,9.33,9.33,0,0,1-1.77,3.46c-.93,1.36-1.92,2.68-2.87,4-2.61,3.7-5.21,7.41-7.76,11.15-1.65,2.42-3.21,4.9-4.87,7.32a.67.67,0,0,0-.13.34.37.37,0,0,1-.18.26c-.34.09-.65.37-1,.17a3.23,3.23,0,0,1,.43-.77c4.76-7.65,9.83-15.1,15-22.49.28-.4.54-.82.83-1.22a9.6,9.6,0,0,0,1.65-6.82,27,27,0,0,0-3.25-9.76A42.56,42.56,0,0,0,76.4,86c.06-.36.29-.22.49-.17A.14.14,0,0,1,77,85.86Z"/><path class="cls-56" d="M81.59,69.84l2.77,5.22c.65,1.22,1.3,2.44,2,3.65a.66.66,0,0,1,0,.75,4,4,0,0,1-2,1.63c-.25.07-.37-.11-.47-.27A39.51,39.51,0,0,1,80.26,74a3.93,3.93,0,0,1,.95-4A.36.36,0,0,1,81.59,69.84Z"/><path class="cls-54" d="M81.59,69.84a6.75,6.75,0,0,0-1.22,1.91,2.84,2.84,0,0,0,0,2,18.28,18.28,0,0,0,1.7,3.77c.6,1.13,1.28,2.21,1.94,3.31a1.24,1.24,0,0,0,.26.25c0,.28-.09.39-.35.46a5.32,5.32,0,0,1-1.54.12c-.18-.07-.39-.07-.49-.28a7.88,7.88,0,0,1-.86-2,1.92,1.92,0,0,0-.33-.71c-.74-1.66-1.47-3.31-2.22-5-.53-1.13-1-2.3-1.59-3.38a.9.9,0,0,1,.23-.18,18.6,18.6,0,0,0,4-2C81.4,68.75,81.83,69.18,81.59,69.84Z"/><path class="cls-64" d="M62.93,138.12c-1.37,2.27-2.77,4.53-4.11,6.82-1.2,2.05-2.33,4.16-3.51,6.23-1,1.84-2,3.76-3,5.61s-1.75,3.63-2.67,5.43c-.69,1.33-1.24,2.73-1.85,4.1-.28,0-.22-.17-.17-.33a21.82,21.82,0,0,1,1.14-2.73c2.56-5.75,5.43-11.35,8.51-16.84,1.38-2.48,2.82-4.93,4.24-7.38a2.16,2.16,0,0,1,.5-.73C62.3,138.07,62.57,137.87,62.93,138.12Z"/><path class="cls-65" d="M62.93,138.12l-.89.18c.65-1.29,1.45-2.5,2.21-3.73a8.76,8.76,0,0,1,1.17-1.77,6.5,6.5,0,0,1,1.07-.29c.11.22,0,.38-.14.54-.95,1.45-1.86,2.93-2.77,4.4a3.62,3.62,0,0,1-.49.54Z"/><path class="cls-66" d="M47.65,166c0,.13,0,.26.17.33-.41,1-.82,2-1.24,3.06q-1.45,3.49-2.62,7.11c-.05.16-.07.37-.18.47s-.09-.08-.12-.14a47.37,47.37,0,0,1,1.48-4.55c.7-2,1.48-4,2.3-5.91A2.71,2.71,0,0,1,47.65,166Z"/><path class="cls-67" d="M42.92,179.53h.15c.17.2.09.42,0,.63-.35,1.27-.64,2.56-.93,3.85a2,2,0,0,1-.1.35c-.06.15-.1.4-.31.31s-.1-.3,0-.46l.14-1.14,0-.28c.1-.14,0-.32.11-.46l0-.27c0-.1,0-.22.1-.32a13.81,13.81,0,0,1,.59-2.09Z"/><path class="cls-68" d="M81,79.44a14.71,14.71,0,0,1,.85,1.62,1.49,1.49,0,0,0,.5.61c-.12,0-.25,0-.32.16-.31-.12-.37-.44-.49-.69a7.87,7.87,0,0,1-.71-1.53Z"/><path class="cls-69" d="M76.89,85.83c-.16,0-.38,0-.49.17a.35.35,0,0,1-.22-.34A1.17,1.17,0,0,1,76.89,85.83Z"/><path class="cls-31" d="M48.55,33.94c-.18-.09-.14-.26-.14-.41h.3C48.72,33.69,48.6,33.8,48.55,33.94Z"/><path class="cls-30" d="M47.34,36.63a.75.75,0,0,1-.1.62c0-.21,0-.41,0-.62Z"/><path class="cls-30" d="M47.25,37.8a.77.77,0,0,1,.09.61c0,.07-.07.07-.11,0Z"/><path class="cls-35" d="M42,182.32a.54.54,0,0,1-.11.46l0-.47Z"/><path class="cls-26" d="M47.23,38.41h.11v.3A.34.34,0,0,1,47.23,38.41Z"/><path class="cls-35" d="M42.16,181.73a.33.33,0,0,1-.1.32A.28.28,0,0,1,42.16,181.73Z"/><path class="cls-70" d="M42.92,179.53l-.17.11.09-.15Z"/><path class="cls-62" d="M152.21,131.8c2.63-1.65,5.29-3.27,7.9-5a182.22,182.22,0,0,0,17.59-12.54,69.73,69.73,0,0,0,6.67-6.19,11.3,11.3,0,0,0,1-1.25,2,2,0,0,1,.85.2c2.07.69,4.12,1.41,6.14,2.22a42.28,42.28,0,0,1-4.11,5.14,93.55,93.55,0,0,1-11.24,10.28,201.48,201.48,0,0,1-18.65,13l-.73.49h-.14c-.43,0-.55-.38-.74-.62-1.39-1.78-2.79-3.55-4.34-5.19C152.31,132.21,152.1,132.07,152.21,131.8Z"/><path class="cls-22" d="M105.06,218.94a28.51,28.51,0,0,0-2.93-.31c-1-.12-2-.2-3-.33s-2-.26-3-.42c-2.65-.41-5.28-.83-7.9-1.4a58.13,58.13,0,0,1-6.75-1.87,18.17,18.17,0,0,1-4.22-2,5.35,5.35,0,0,1-2.34-2.58,1.7,1.7,0,0,1,.55-2,10.17,10.17,0,0,1,2.27-1.39,80.64,80.64,0,0,1,9.35-3.23c1.74-.51,3.48-1.07,5.22-1.59,3.57-1.07,7.12-2.18,10.63-3.4,2.79-1,5.55-2,8.29-3.12,1.85-.75,3.71-1.47,5.56-2.23s3.63-1.53,5.44-2.31l7-3.08c.63-.28,1.26-.57,1.88-.87,2.31-1.12,4.64-2.19,7-3.29q4.92-2.35,9.75-4.85,4-2.07,8-4.27,3.3-1.82,6.57-3.68c2.33-1.34,4.62-2.74,6.89-4.17,1.9-1.2,3.75-2.45,5.59-3.74,2.48-1.73,4.91-3.53,7.31-5.37,2-1.53,3.94-3.11,5.87-4.71,1.32-1.11,2.6-2.26,3.89-3.4,1.64-1.46,3.2-3,4.8-4.5,1.31-1.23,2.54-2.55,3.78-3.85s2.62-2.93,3.83-4.48a47.4,47.4,0,0,0,3.78-5.46,26,26,0,0,0,1.32-2.64,1.44,1.44,0,0,1,.27-.52c.1.29,0,.62.17.89l0,1v2.68l0,1a.72.72,0,0,0-.06.36.46.46,0,0,1,0,.26l0,1a.75.75,0,0,0-.06.33.47.47,0,0,1,0,.16l0,.83c0,.08-.06.13-.09.2l-.06.7c0,.11-.05.23-.1.34l-.45,2.53,0,.26a11.75,11.75,0,0,0-.5,1.85,75,75,0,0,1-6.15,15.49,107,107,0,0,1-10.86,16.73,124.31,124.31,0,0,1-11.13,12.37c-.14.13-.27.29-.4.43l-.14.14h0l-.15.15h0a.75.75,0,0,1-.15.16h0a.75.75,0,0,1-.16.15h0a.75.75,0,0,1-.16.15h0a.49.49,0,0,1-.16.16h0a.39.39,0,0,1-.16.15h0a.46.46,0,0,1-.16.15h0a.41.41,0,0,1-.16.16h0a28.1,28.1,0,0,0-2.32,2.05,119.72,119.72,0,0,1-12.11,9.42c-.19.12-.35.26-.53.4-1.48.92-3,1.86-4.46,2.77a94.11,94.11,0,0,1-23.62,10.2Q127.83,215.64,120,217q-4.77.84-9.58,1.41C108.65,218.64,106.86,218.87,105.06,218.94Z"/><path class="cls-21" d="M209.68,126.34l-.1-.19Z"/><path class="cls-28" d="M41.12,188.18l-.1.13,0-.66.13-.15A.43.43,0,0,1,41.12,188.18Z"/><path class="cls-36" d="M40.87,194a.58.58,0,0,1,.07.48A.63.63,0,0,1,40.87,194Z"/><path class="cls-36" d="M40.93,189.75a.33.33,0,0,1-.06.33A.43.43,0,0,1,40.93,189.75Z"/><path class="cls-31" d="M48,34.27l-.12.18Z"/><path class="cls-70" d="M41.12,188.18v-.68l0-.39c.14-.25,0-.54.13-.79l0-.26c.1-.15,0-.33.11-.48l0-.53c0-.12.05-.24.09-.36l.06-.41a.39.39,0,0,1,.1-.08c0,.11,0,.25.11.35.39-1.69.74-3.38,1.24-5l5.64-1.35a14,14,0,0,1,1.78-.44c.24.26.15.56.09.84a61.2,61.2,0,0,0-.9,6.87,1.41,1.41,0,0,1-.22.77.16.16,0,0,1,0,.1l-3.93.95C44.06,187.61,42.6,187.94,41.12,188.18Z"/><path class="cls-28" d="M41.29,186.32a1.44,1.44,0,0,1-.13.79C41.18,186.84,41.05,186.55,41.29,186.32Z"/><path class="cls-29" d="M41.42,185.58a.64.64,0,0,1-.11.48v-.48Z"/><path class="cls-29" d="M41.56,184.69a.42.42,0,0,1-.09.36A.35.35,0,0,1,41.56,184.69Z"/><path class="cls-71" d="M157.24,222.33c.18,1.4.37,2.8.55,4.2a6.6,6.6,0,0,1-.18,1.53c-.14.53-.38.61-.85.29a3.19,3.19,0,0,1-.57-.46,37.6,37.6,0,0,1-3.56-4.11.16.16,0,0,1-.1-.11l-.1-.14a26.85,26.85,0,0,1-1.39-4.74,12,12,0,0,1,.42-6.27,9.83,9.83,0,0,1,2.5-3.72c.2-.19.41-.46.76-.26.18,1.12.37,2.23.54,3.35.45,2.84,1.06,5.65,1.59,8.48.08.41.17.82.25,1.23.08.14,0,.33.11.47Z"/><path class="cls-72" d="M154.72,208.54a3.06,3.06,0,0,0-1.38,1.18,9,9,0,0,0-2.14,4.54,13.29,13.29,0,0,0-.11,3.22,22.7,22.7,0,0,0,1.46,5.75.21.21,0,0,1-.12.3l-2.61-3.11a70.09,70.09,0,0,0-7.1-7.62l-1-.89c1.6-.62,3.14-1.19,4.67-1.8,2.59-1,5.09-2.27,7.57-3.54l.73-.34c0,.23,0,.45,0,.68s0,.43.11.62l0,.27,0,.59Z"/><path class="cls-52" d="M87.27,219.55a1.55,1.55,0,0,1,.9.09C87.86,219.64,87.55,219.76,87.27,219.55Z"/><path class="cls-52" d="M93.9,219.64a1.43,1.43,0,0,1,.89-.08C94.51,219.75,94.2,219.64,93.9,219.64Z"/><path class="cls-50" d="M83.41,219.4a.57.57,0,0,1,.46.1C83.71,219.51,83.54,219.55,83.41,219.4Z"/><path class="cls-50" d="M81.19,219.27a.32.32,0,0,1,.31.08A.32.32,0,0,1,81.19,219.27Z"/><path class="cls-72" d="M152.53,223.67l.1.11A.1.1,0,0,1,152.53,223.67Z"/><path class="cls-39" d="M179.76,187.5l.14-.14Z"/><path class="cls-39" d="M178.55,188.68a.19.19,0,0,1,.16-.16A.2.2,0,0,1,178.55,188.68Z"/><path class="cls-39" d="M178.7,188.53a.2.2,0,0,1,.16-.15A.22.22,0,0,1,178.7,188.53Z"/><path class="cls-39" d="M179,188.24a.23.23,0,0,1,.16-.16Z"/><path class="cls-39" d="M179.15,188.09a.19.19,0,0,1,.16-.15Z"/><path class="cls-39" d="M179.45,187.8l.15-.16Z"/><path class="cls-39" d="M179.3,187.94l.16-.15Z"/><path class="cls-39" d="M179.6,187.65l.15-.15Z"/><path class="cls-39" d="M178.85,188.38a.2.2,0,0,1,.16-.15A.22.22,0,0,1,178.85,188.38Z"/><path class="cls-42" d="M157.21,222.07a.57.57,0,0,1-.11-.47C157.26,221.73,157.22,221.9,157.21,222.07Z"/><path class="cls-48" d="M209.43,137.7a.46.46,0,0,1,.1-.34A.31.31,0,0,1,209.43,137.7Z"/><path class="cls-44" d="M209.74,135.49a.45.45,0,0,1,.09-.35v.34Z"/><path class="cls-48" d="M209.88,134.15l0-.29h.1v.29Z"/><path class="cls-48" d="M209.74,135.49h.1l-.11.15A.17.17,0,0,1,209.74,135.49Z"/><path class="cls-48" d="M209.59,136.66l.09-.2Z"/><path class="cls-44" d="M210,133.86h-.1a.33.33,0,0,1,.08-.33Z"/><path class="cls-73" d="M154.83,207.53a.76.76,0,0,1-.11-.62h.11Z"/><path class="cls-62" d="M49.46,186.21a26.5,26.5,0,0,1,.23-3.21c.15-1.77.54-3.51.8-5.27l.15-.14a2.78,2.78,0,0,1,1.23-.48c7.58-2.15,15-4.75,22.38-7.55,5.82-2.21,11.57-4.59,17.29-7.05q6.31-2.72,12.56-5.64,9-4.2,17.94-8.68c1.58-.79,3.1-1.72,4.75-2.4a.45.45,0,0,1,.23,0,5.73,5.73,0,0,1,.85,1.55c.75,1.75,1.71,3.4,2.43,5.16.1.25.28.48.12.77a.36.36,0,0,0,0,.11l-3.78,1.86a542.65,542.65,0,0,1-58.95,25.18c-5.79,2.06-11.62,4-17.54,5.61C49.9,186.13,49.68,186.16,49.46,186.21Z"/><path class="cls-74" d="M130.42,153.31c-.32-.72-.61-1.45-.95-2.16-.77-1.62-1.57-3.23-2.35-4.85-.06-.13-.11-.27-.16-.41,0-.4.32-.45.56-.57,4.87-2.51,9.67-5.14,14.44-7.82,3.16-1.77,6.28-3.62,9.4-5.46a1.27,1.27,0,0,1,.68-.27l.17,0c.74.85,1.5,1.68,2.22,2.54,1,1.27,2.07,2.55,3.1,3.83-2.74,1.76-5.56,3.39-8.37,5-6,3.47-12.11,6.74-18.27,9.91Z"/><path class="cls-75" d="M152,131.77a35.29,35.29,0,0,1-3.27,2q-8,4.74-16.23,9.1l-5,2.63a1.67,1.67,0,0,0-.62.39h-.12a1.56,1.56,0,0,1-.48-.73c-3.48-6.87-7.15-13.63-11.15-20.2-1.13-1.85-2.34-3.66-3.56-5.45a2.05,2.05,0,0,1-.34-.57.55.55,0,0,1,0-.22c.09-.26.33-.36.54-.47,3.5-1.79,7-3.64,10.38-5.62a1.44,1.44,0,0,1,.75-.26h.42a5.05,5.05,0,0,0,1.29.7c2.88,1.29,5.65,2.8,8.4,4.34,3,1.68,5.94,3.48,8.78,5.44a56.24,56.24,0,0,1,5.39,4.22c1.42,1.26,2.82,2.53,4.15,3.88A2.62,2.62,0,0,1,152,131.77Z"/><path class="cls-62" d="M111.37,118.71l0,.14a1.73,1.73,0,0,1-.9.63c-5.36,2.68-10.82,5.16-16.34,7.49-7.24,3.05-14.55,5.89-22,8.38a2.68,2.68,0,0,1-1,.25c-.28-.06-.31-.25-.18-.44a36.65,36.65,0,0,1,4.25-5.73l.16-.15A37.76,37.76,0,0,0,79,128q11.53-4.45,22.78-9.57c2.28-1,4.58-2.06,6.82-3.19.18-.08.29,0,.38.13.83,1,1.57,2,2.31,3A.6.6,0,0,1,111.37,118.71Z"/><path class="cls-63" d="M108.75,114.89c-.3,0-.39-.24-.54-.44-1.37-1.89-2.6-3.88-3.92-5.81-1.46-2.13-2.8-4.34-4.2-6.51a2,2,0,0,1-.35-.79,10.17,10.17,0,0,1,2.16.73c1.46.58,2.89,1.25,4.33,1.9s3.15,1.52,4.71,2.31c2.33,1.19,4.63,2.42,7,3.61.3.15.19.25,0,.4a5.36,5.36,0,0,1-2,1.27c-2.1,1.13-4.26,2.15-6.4,3.22C109.27,114.9,109,115.09,108.75,114.89Z"/><path class="cls-74" d="M108.75,114.89a2.13,2.13,0,0,0,.68-.28l6.22-3.11c.77-.39,1.53-.81,2.29-1.21.24-.06.49.11.73,0,1.21.61,2.44,1.17,3.69,1.7a1.59,1.59,0,0,1,.63.36c-1.21.79-2.49,1.46-3.75,2.17-2.59,1.46-5.24,2.8-7.87,4.18l-2.5-3.27a1.55,1.55,0,0,0-.27-.24Z"/><path class="cls-2" d="M60,32.62a4.59,4.59,0,0,1-1.89-.41,1.76,1.76,0,0,1-.87-2.64,4.07,4.07,0,0,1,.37-.55,9.08,9.08,0,0,1,5.54-3.3,2.46,2.46,0,0,1,2.65.89A3,3,0,0,1,66,29.77a4.16,4.16,0,0,1-1.63,1.67A8.67,8.67,0,0,1,60,32.62Z"/><path class="cls-2" d="M69.8,26.09a2.67,2.67,0,0,1,2.1,1.33,1.8,1.8,0,0,1-.3,2.23,1.63,1.63,0,0,1-2,.22,2.47,2.47,0,0,1-1.31-2.64C68.41,26.47,68.87,26.09,69.8,26.09Z"/><path class="cls-70" d="M75.24,129.43c-1.3,1.81-2.66,3.58-3.88,5.45-.12.17-.41.31-.27.61s-.13.24-.3.17c-1.79.56-3.57,1.13-5.36,1.68a18.85,18.85,0,0,1-2.34.65,6.76,6.76,0,0,1,.84-1.45c.82-1.36,1.7-2.69,2.56-4l.15-.14c1.67-.46,3.28-1.07,4.91-1.63Z"/><path class="cls-55" d="M70.79,135.66l.3-.17c2-.58,3.93-1.31,5.88-2Q84,131,91,128.09c4.17-1.72,8.32-3.5,12.4-5.41,2.69-1.25,5.35-2.55,8-3.83q2.56,3.62,4.82,7.43c1.48,2.5,2.92,5,4.36,7.54.68,1.2,1.33,2.42,2,3.64,1.33,2.53,2.64,5.06,4,7.6a2,2,0,0,1,.34.82c-1.62.84-3.23,1.7-4.85,2.53q-8.37,4.28-16.9,8.22-10.86,5.07-22,9.62c-8.21,3.36-16.51,6.48-25,9.17-2.32.74-4.67,1.4-7,2.09a2.85,2.85,0,0,1-.51.08,8.88,8.88,0,0,1,.47-2.22,82.28,82.28,0,0,1,3.12-9.45,123.41,123.41,0,0,1,5.88-12.74c1-1.84,2-3.62,3-5.41,2.32-4,4.84-7.89,7.44-11.72C70.66,135.93,70.72,135.79,70.79,135.66Z"/></svg>