<svg id="Layer_54" data-name="Layer 54" xmlns="http://www.w3.org/2000/svg" viewBox="0 0 256 256"><defs><style>.cls-1{opacity:0.5;}.cls-2{fill:#fff;}.cls-3{fill:#fff800;stroke:#ad9d25;}.cls-3,.cls-5{stroke-miterlimit:10;stroke-width:2px;}.cls-4{fill:#f2e10f;}.cls-5{fill:#3db200;stroke:#0d6800;}</style></defs><path class="cls-1" d="M137.58,196.44a162.21,162.21,0,0,1-47.35-7c-29.48-9.14-50.55-27.7-60.49-37.95C17.89,139.24,6.29,122.55,7.1,112.81,8.21,99.49,18.55,95.93,24.48,95.93h.29l1.3.06,1.2.61C54.73,111.07,101.5,121.17,141,121.17c22.36,0,40.26-3.38,50.41-9.5,15.17-9.19,22.88-18.66,26.75-25.44-.07-2.28.26-6,1.59-13a10.92,10.92,0,0,1,10.72-8.88,10.79,10.79,0,0,1,2.33.25l11.52,2.48a11.6,11.6,0,0,1,6.1,19.52L244.24,93a25.39,25.39,0,0,0,.39,4.51c1,7.13,2.18,15.22-9.75,45.06-13.49,33.74-49.87,53.89-97.29,53.89Z"/><path class="cls-2" d="M132.77,191.63a162.21,162.21,0,0,1-47.35-7c-29.48-9.14-50.55-27.7-60.49-38C13.08,134.43,1.48,117.74,2.29,108,3.4,94.68,13.74,91.12,19.67,91.12H20l1.3.06,1.2.61c27.46,14.46,74.23,24.57,113.74,24.57,22.36,0,40.26-3.38,50.41-9.5,15.17-9.19,22.88-18.66,26.75-25.45-.07-2.27.26-6,1.59-13a10.92,10.92,0,0,1,10.72-8.88,10.79,10.79,0,0,1,2.33.25l11.52,2.48a11.6,11.6,0,0,1,6.1,19.52l-6.19,6.36a25.46,25.46,0,0,0,.39,4.51c1,7.13,2.18,15.22-9.75,45-13.49,33.75-49.87,53.9-97.29,53.9Z"/><path class="cls-3" d="M223.5,69.63s-.71,22.06-33.91,42.17S64.44,120.43,19.77,96.89c0,0-10.73-.35-11.73,11.59s30.72,55.62,79.09,70.61,117.39,7,137.58-43.5,1.13-34.65,13.5-64Z"/><path class="cls-4" d="M233.49,71a4.09,4.09,0,0,0-2.62,1c-1.83,1.73-2.17,4.46-2.45,7A211,211,0,0,1,222,112.27c-2.53,9.08-5.79,18.21-11.81,25.47-6.46,7.8-15.61,12.85-24.82,17-17.79,8.12-37,13.82-56.55,13.73-20.78-.09-41-6.67-60.32-14.21C58.36,150.38,48.18,146,40,138.89c-10.51-9.22-16.67-22.27-24.42-33.9a4.85,4.85,0,0,0-1.79-1.86,2.89,2.89,0,0,0-4,1.24c-2.45,4.07,1.22,13.38,3.85,17.32,17.32,26,41.84,43.09,69.27,54.84,20.21,8.66,55.68,10.91,84.67,3.85,19.91-4.85,39-16,49.07-31.75,6.73-10.58,14.43-28.86,17.31-49.07-2.88-15.39-.47-17.37,2.07-23.16a6,6,0,0,0,.83-3.21C236.64,71.64,235.07,70.89,233.49,71Z"/><path class="cls-5" d="M220.62,69.52c-.89,4.65-1.93,11.09-1.29,13l14.44,3.17,7.72-7.94A5.83,5.83,0,0,0,238.37,68l-11.59-2.5A5.14,5.14,0,0,0,220.62,69.52Z"/></svg>