<svg id="Layer_54" data-name="Layer 54" xmlns="http://www.w3.org/2000/svg" viewBox="0 0 256 256"><defs><style>.cls-1{opacity:0.5;}.cls-2{fill:#fff;}.cls-3{fill:#ff0;}.cls-4{opacity:0.1;}.cls-5{fill:#ff7300;}.cls-6{fill:#ffc200;}.cls-7{fill:#12e6db;}.cls-8{fill:#00c1b3;}</style></defs><path class="cls-1" d="M118.93,235c-1.28,0-2.56,0-3.8-.1-19.56-1-26-9.6-28-16.63a9.39,9.39,0,0,1,6.48-11.56,9.73,9.73,0,0,1,1.74-.31c.19,0,.41,0,.63,0h.21a8.44,8.44,0,0,1,.87,0,5.9,5.9,0,0,1,.7.1,7.47,7.47,0,0,1,.9.2l.58.18a2.86,2.86,0,0,1,.41.15l6.84,2.73-1.64,2.48c.12.31.23.62.32.94.38.83,4.09,2.64,10.93,3,.89.05,1.82.07,2.77.07a87.35,87.35,0,0,0,30.46-6.08l1.12-.46.8-.35,1.32-.6.59-.29.65-.32.56-.3.59-.32.52-.29,1-.6.56-.36.37-.24c.27-.18.53-.37.78-.56l.22-.17.47-.37.24-.21.35-.32.16-.15.28-.3h0c-5.15-4.61-26.15-10.6-51.31-10.6-4,0-8,.16-11.67.48s-7.24.48-10.35.48c-5.64,0-22.78,0-25.9-12.11-1.89-7.34,2.8-14.51,12.24-18.7a5.6,5.6,0,0,0,1.68-1,4.9,4.9,0,0,0-2.49-2.38c-7.51-3.89-11.63-9-12.23-15.23-.68-7.14,5.05-10.06,9.23-12.19.62-.31,1.27-.64,1.94-1a42.19,42.19,0,0,1-2.24-6.86,25.28,25.28,0,0,1-.73-5.26c-.08-.27-.16-.55-.23-.83-.46-.56-.87-1.1-1.24-1.64a8.88,8.88,0,0,1-2.17-5.57,8.49,8.49,0,0,1,.34-2.37c-.29-.51-.57-1-.82-1.61l-.09-.19c-1.41-2.92-1.52-5.58-.33-7.94a10.7,10.7,0,0,1,.52-6.49,11.88,11.88,0,0,1-.91-4.32,8.88,8.88,0,0,1,1.52-5.08,8,8,0,0,1,.25-3A8.37,8.37,0,0,1,67,76.88V76.6c.2-8.45,4.32-17.3,12.24-26.31A67,67,0,0,1,85.48,44a9,9,0,0,1,3.4-4.77l.12-.09a13.17,13.17,0,0,1,7.29-2.55,11.28,11.28,0,0,1,5.4-2.69,13.37,13.37,0,0,1,8.22-3.44,11,11,0,0,1,3.36-2.09l.12-.05a13,13,0,0,1,4.59-.81,16.07,16.07,0,0,1,2.45.2,10,10,0,0,1,4.44-1.59,14.93,14.93,0,0,1,1.62-.09,19.43,19.43,0,0,1,11,3.9,11.52,11.52,0,0,1,2-.17,12,12,0,0,1,3.08.4A22.18,22.18,0,0,1,150,33.75h.32c.31,0,.62,0,.95,0,5.22.46,9.37,3.42,12.62,6.59a12.21,12.21,0,0,1,1.93.26l.32.07.83.28.3.13a22.29,22.29,0,0,1,10.83,10.3,9.14,9.14,0,0,1,1.6.85c7,4.63,12.18,12.71,15.56,24a8,8,0,0,1,1.5,5.73l0,.13.09.08a9.05,9.05,0,0,1,2.35,9,9.48,9.48,0,0,1,1.36,5.44,9.7,9.7,0,0,1-.26,2,9.6,9.6,0,0,1,.75,5.6,11.6,11.6,0,0,1-1.38,4.12,9.86,9.86,0,0,1-.82,7.08,15.26,15.26,0,0,1-1,1.68,8.76,8.76,0,0,1,0,6.85,13.83,13.83,0,0,1-1,2,10.47,10.47,0,0,1-.08,7.59,10.22,10.22,0,0,1-2.38,3.65,10.87,10.87,0,0,1-1,4.31,10.43,10.43,0,0,1-3.51,4.2,10.63,10.63,0,0,1-.38,1.07c-.9,2.24-3,5.16-7.94,6.5a9.54,9.54,0,0,1-.72,1.18,10.42,10.42,0,0,1-6.13,3.94,19,19,0,0,1-3.18.52,9.89,9.89,0,0,1-1.48,1.56,11.05,11.05,0,0,1-4.39,2.18,18.68,18.68,0,0,1-4.73.53h-.79a10.77,10.77,0,0,1-4.85,2.56,22.69,22.69,0,0,1-5.55.61h-.53a10,10,0,0,1-5.09,3.06l-.27.07a12.62,12.62,0,0,1-2.76.3,16.47,16.47,0,0,1-2.65-.23,9.49,9.49,0,0,1-2.76,1.19,11,11,0,0,1-1.81.3c-.29,0-.58,0-.87,0a19.5,19.5,0,0,1-7.65-2,10.55,10.55,0,0,1-2.07.19,25.66,25.66,0,0,1-8.59-2,10.63,10.63,0,0,1-1.89.17c-5,0-11.25-3.45-11.31-3.49a46.64,46.64,0,0,1-8.86-6.83,18.72,18.72,0,0,1,.79,5.94A18.37,18.37,0,0,1,88,175.57c2.25,0,4.73-.17,7.4-.4,4-.35,8.37-.53,12.88-.53a182.94,182.94,0,0,1,32.39,2.9c17.82,3.3,29.6,8.66,35,15.94a16.66,16.66,0,0,1,2.3,16.61c-3.53,8.91-14.46,14.74-23,18.07h0l-.49.18-1.09.4-1,.36-1.12.38-1,.34-1.15.37-1,.3-1.16.35-1.05.3-1.16.31-1.05.27c-.32.09-1.17.29-1.17.29l-1.06.26-1.38.31-.87.19-1.22.24-1,.21-1.39.24-.9.16-1.1.17-1.15.18-1.1.15-1.18.16-2.28.25-1,.09-1.27.11-1.2.08-1,.06-1.49.06-.73,0Q120,235,118.93,235Z"/><path class="cls-2" d="M113.93,230c-1.28,0-2.56,0-3.8-.1-19.56-1-26-9.6-28-16.63a9.39,9.39,0,0,1,6.48-11.56,9.73,9.73,0,0,1,1.74-.31c.19,0,.41,0,.63,0h.21a8.44,8.44,0,0,1,.87,0,5.9,5.9,0,0,1,.7.1,7.47,7.47,0,0,1,.9.2l.58.18a2.86,2.86,0,0,1,.41.15l6.84,2.73-1.64,2.48c.12.31.23.62.32.94.38.83,4.09,2.64,10.93,3,.89.05,1.82.07,2.77.07a87.35,87.35,0,0,0,30.46-6.08l1.12-.46.8-.35,1.32-.6.59-.29.65-.32.56-.3.59-.32.52-.29,1-.6.56-.36.37-.24c.27-.18.53-.37.78-.56l.22-.17.47-.37.24-.21.35-.32.16-.15.28-.3h0c-5.15-4.61-26.15-10.6-51.31-10.6-4,0-8,.16-11.67.48s-7.24.48-10.35.48c-5.64,0-22.78,0-25.9-12.11-1.89-7.34,2.8-14.51,12.24-18.7a5.6,5.6,0,0,0,1.68-1,4.9,4.9,0,0,0-2.49-2.38c-7.51-3.89-11.63-9-12.23-15.23-.68-7.14,5.05-10.06,9.23-12.19.62-.31,1.27-.64,1.94-1a42.19,42.19,0,0,1-2.24-6.86,25.28,25.28,0,0,1-.73-5.26c-.08-.27-.16-.55-.23-.83-.46-.56-.87-1.1-1.24-1.64a8.88,8.88,0,0,1-2.17-5.57,8.49,8.49,0,0,1,.34-2.37c-.29-.51-.57-1-.82-1.61l-.09-.19c-1.41-2.92-1.52-5.58-.33-7.94a10.7,10.7,0,0,1,.52-6.49,11.88,11.88,0,0,1-.91-4.32,8.88,8.88,0,0,1,1.52-5.08,8,8,0,0,1,.25-3A8.37,8.37,0,0,1,62,71.88V71.6c.2-8.45,4.32-17.3,12.24-26.31A67,67,0,0,1,80.48,39a9,9,0,0,1,3.4-4.77l.12-.09a13.17,13.17,0,0,1,7.29-2.55,11.28,11.28,0,0,1,5.4-2.69,13.37,13.37,0,0,1,8.22-3.44,11,11,0,0,1,3.36-2.09l.12-.05a13,13,0,0,1,4.59-.81,16.07,16.07,0,0,1,2.45.2,10,10,0,0,1,4.44-1.59,14.93,14.93,0,0,1,1.62-.09,19.43,19.43,0,0,1,11,3.9,11.52,11.52,0,0,1,2-.17,12,12,0,0,1,3.08.4A22.18,22.18,0,0,1,145,28.75h.32c.31,0,.62,0,.95.05,5.22.46,9.37,3.42,12.62,6.59a12.21,12.21,0,0,1,1.93.26l.32.07.83.28.3.13a22.29,22.29,0,0,1,10.83,10.3,9.14,9.14,0,0,1,1.6.85c7,4.63,12.18,12.71,15.56,24a8,8,0,0,1,1.5,5.73l0,.13.09.08a9.05,9.05,0,0,1,2.35,9,9.48,9.48,0,0,1,1.36,5.44,9.7,9.7,0,0,1-.26,2,9.6,9.6,0,0,1,.75,5.6,11.6,11.6,0,0,1-1.38,4.12,9.86,9.86,0,0,1-.82,7.08,15.26,15.26,0,0,1-1,1.68,8.76,8.76,0,0,1,0,6.85,13.83,13.83,0,0,1-1,2,10.47,10.47,0,0,1-.08,7.59,10.22,10.22,0,0,1-2.38,3.65,10.87,10.87,0,0,1-1,4.31,10.43,10.43,0,0,1-3.51,4.2,10.63,10.63,0,0,1-.38,1.07c-.9,2.24-3,5.16-7.94,6.5a9.54,9.54,0,0,1-.72,1.18,10.42,10.42,0,0,1-6.13,3.94,19,19,0,0,1-3.18.52,9.89,9.89,0,0,1-1.48,1.56,11.05,11.05,0,0,1-4.39,2.18,18.68,18.68,0,0,1-4.73.53h-.79a10.77,10.77,0,0,1-4.85,2.56,22.69,22.69,0,0,1-5.55.61h-.53a10,10,0,0,1-5.09,3.06l-.27.07a12.62,12.62,0,0,1-2.76.3,16.47,16.47,0,0,1-2.65-.23,9.49,9.49,0,0,1-2.76,1.19,11,11,0,0,1-1.81.3c-.29,0-.58,0-.87,0a19.5,19.5,0,0,1-7.65-2,10.55,10.55,0,0,1-2.07.19,25.66,25.66,0,0,1-8.59-2,10.63,10.63,0,0,1-1.89.17c-5,0-11.25-3.45-11.31-3.49a46.64,46.64,0,0,1-8.86-6.83,18.72,18.72,0,0,1,.79,5.94A18.37,18.37,0,0,1,83,170.57c2.25,0,4.73-.17,7.4-.4,4-.35,8.37-.53,12.88-.53a182.94,182.94,0,0,1,32.39,2.9c17.82,3.3,29.6,8.66,35,15.94a16.66,16.66,0,0,1,2.3,16.61c-3.53,8.91-14.46,14.74-23,18.07h0l-.49.18-1.09.4-1,.36-1.12.38-1,.34-1.15.37-1,.3-1.16.35-1.05.3-1.16.31-1.05.27c-.32.09-1.17.29-1.17.29l-1.06.26-1.38.31-.87.19-1.22.24-1,.21-1.39.24-.9.16-1.1.17-1.15.18-1.1.15-1.18.16-2.28.25-1,.09-1.27.11-1.2.08-1,.06-1.49.06-.73,0Q115,230,113.93,230Z"/><path class="cls-3" d="M113.93,224c-1.18,0-2.35,0-3.49-.09-16-.82-21.09-7.12-22.54-12.26a3.37,3.37,0,0,1,6.49-1.83c1.68,6,12,7.14,16.4,7.36,19.6,1,46.85-8.09,50.3-16.78a4.06,4.06,0,0,0-.68-4.32c-6.75-9.08-40.92-15.63-69-13.22-18.23,1.56-28.3-.84-29.92-7.14-1.11-4.31,2.29-8.81,8.86-11.73,2.35-1,5.18-3,5.27-6.22.09-3-2.17-6.17-5.75-8-5.67-2.94-8.62-6.36-9-10.48-.49-5,6.6-5.25,14.34-11.37a3.37,3.37,0,0,1,4.73.55c1.15,1.46,1.1,2.44-.36,3.6-7.37,5.82-9.8,4.87-10.86,6.62s1.9,3.87,4.25,5.09c5.88,3,9.56,8.61,9.4,14.21-.16,5.19-3.53,9.63-9.27,12.18-3.56,1.58-4.89,3.32-5,3.89.4.44,4.09,3.71,22.8,2.1a173.12,173.12,0,0,1,43.67,2.3c11.19,2.07,25.71,6.12,31.29,13.62a10.75,10.75,0,0,1,1.53,10.82C162.61,214.86,135,224,113.93,224Z"/><g class="cls-4"><path class="cls-5" d="M160.41,196.08a4.06,4.06,0,0,1,.68,4.32c-1.49,3.76-7.46,7.61-15.33,10.67,9.92-3.25,17.82-7.77,19.57-12.19a4.06,4.06,0,0,0-.67-4.32c-6.75-9.07-40.92-15.62-69-13.22-18.23,1.57-28.3-.84-29.92-7.14-1.11-4.31,2.28-8.8,8.86-11.73,2.35-1,5.17-3,5.27-6.22.09-3-2.17-6.17-5.76-8-5.66-2.93-8.61-6.36-9-10.48-.46-4.77,5.87-5.21,13.12-10.44a3.35,3.35,0,0,0-3,.59c-7.74,6.12-14.83,6.33-14.34,11.37.39,4.12,3.34,7.54,9,10.48,3.58,1.85,5.84,5,5.75,8C75.55,161,72.72,163,70.37,164c-6.57,2.92-10,7.42-8.86,11.73,1.62,6.3,11.69,8.7,29.92,7.14C119.49,180.45,153.66,187,160.41,196.08Z"/><path class="cls-5" d="M118.18,222.48c-1.19,0-2.35,0-3.49-.08-16-.83-21.1-7.13-22.54-12.27a3.34,3.34,0,0,1,.28-2.51,3.37,3.37,0,0,0-4.53,4c1.45,5.14,6.53,11.44,22.54,12.26,1.14.06,2.31.09,3.49.09a98.53,98.53,0,0,0,33.81-6.43A98.64,98.64,0,0,1,118.18,222.48Z"/></g><path class="cls-3" d="M163.88,104.82c-3.76,3.09-9.89,2.14-14.38,1.43a69.72,69.72,0,0,1-12.64-3.13,131.07,131.07,0,0,1-23.45-10.66A161.73,161.73,0,0,1,89.23,75.12c-2-1.64-5.08-3.69-6.06-6.17-1.77-4.44,5.06-7.18,6.63-2.61a2.89,2.89,0,0,0-.27-.56c1.35,3,5.49,5.73,7.94,7.82a132.5,132.5,0,0,0,11,8.59,143.62,143.62,0,0,0,21,11.55,99.56,99.56,0,0,0,17.18,6.44A48.4,48.4,0,0,0,159,102c1.5,0,3.49-.57,4.9-.42S165.34,103.61,163.88,104.82Z"/><path class="cls-6" d="M83.07,64.65a4.89,4.89,0,0,1,4.38-1.54,4.18,4.18,0,0,1,3.18,2.77c1.11,2,3.58,3.91,5.59,5.5.67.53,1.3,1,1.86,1.51a133.18,133.18,0,0,0,11,8.53,144.69,144.69,0,0,0,20.9,11.47,98,98,0,0,0,17,6.38,47.18,47.18,0,0,0,12,1.78,15,15,0,0,0,2.05-.21,12,12,0,0,1,2.95-.2,2,2,0,0,1,1.81,1.47,3.38,3.38,0,0,1-1.3,3.43h0c-4.11,3.38-10.48,2.37-15.13,1.63A70.26,70.26,0,0,1,136.57,104a133.1,133.1,0,0,1-23.63-10.74A161.62,161.62,0,0,1,88.63,75.84c-.38-.32-.8-.65-1.24-1-1.88-1.48-4.21-3.32-5.09-5.54a4.35,4.35,0,0,1,.62-4.48A1.22,1.22,0,0,1,83.07,64.65Zm5.63,1.5A2.17,2.17,0,0,0,87.12,65,3,3,0,0,0,84.37,66a2.45,2.45,0,0,0-.33,2.6c.7,1.75,2.81,3.42,4.51,4.76.46.36.89.71,1.28,1a159.15,159.15,0,0,0,24,17.24,130.28,130.28,0,0,0,23.28,10.59,68.63,68.63,0,0,0,12.5,3.09c4.29.69,10.18,1.62,13.64-1.23a1.56,1.56,0,0,0,.7-1.43c0-.08-.05-.14-.22-.15a10.69,10.69,0,0,0-2.48.19,15.92,15.92,0,0,1-2.32.22,48.43,48.43,0,0,1-12.5-1.83,101.26,101.26,0,0,1-17.34-6.5A146.28,146.28,0,0,1,108,83a134.26,134.26,0,0,1-11.11-8.65c-.53-.45-1.15-.94-1.81-1.46-2.45-1.94-5.23-4.14-6.37-6.68Z"/><path class="cls-3" d="M170.6,98c-2.8,3.89-11.29,4-15.32,3.49a95.61,95.61,0,0,1-18.34-4.73c-12.64-4.38-23.25-11-33.71-19-4.51-3.44-10.54-7.27-13.89-11.9-1.47-2-.18-4.4,2.3-2.88s4.72,4.43,7,6.3C109.39,77.89,121,85.77,134.18,90a111.36,111.36,0,0,0,20.65,4.64q3.25.41,6.53.68C163.07,95.51,173.41,93.37,170.6,98Z"/><path class="cls-6" d="M88.43,62.32l0,0c.68-.73,2-1.14,3.68-.11a25.94,25.94,0,0,1,4.4,3.8,37.42,37.42,0,0,0,2.75,2.57c13.2,10.62,24.06,17,35.19,20.59A110.46,110.46,0,0,0,155,93.75c2,.26,4.21.48,6.49.68,1.23.1,2.42.09,3.69.07h1.31l.41-.1a4.32,4.32,0,0,1,.68-.13,3.35,3.35,0,0,1,3.91,0c1.3.9,1.77,2.2.39,4.19h0c-3.49,4.84-14.45,4.22-16.67,3.92a94.2,94.2,0,0,1-18.53-4.76c-11.27-3.91-21.75-9.81-34-19.13-.93-.71-1.92-1.43-2.94-2.18-3.93-2.87-8.39-6.12-11.14-9.93A3.26,3.26,0,0,1,88.43,62.32Zm78,34-1.29,0c-1.25,0-2.55,0-3.87-.08-2.3-.2-4.51-.43-6.57-.69a111.72,111.72,0,0,1-20.82-4.68C122.53,87.24,111.49,80.79,98.1,70a38.51,38.51,0,0,1-2.9-2.71,24.46,24.46,0,0,0-4-3.52c-.59-.36-1.11-.45-1.32-.21h0c-.23.25-.29,1,.28,1.74C92.67,68.88,97,72,100.83,74.83c1,.75,2,1.48,3,2.19,12,9.2,22.37,15,33.45,18.86a93.43,93.43,0,0,0,18.16,4.68c4.21.55,12.79.74,15.19-2.56a1.41,1.41,0,0,0-.23-2.17,1.39,1.39,0,0,0-2,.2S166.73,96.36,166.44,96.36Z"/><path class="cls-3" d="M94.5,58.11c11.23,12.43,27.1,21.77,43.24,27a88.06,88.06,0,0,0,31.07,4.3,30.4,30.4,0,0,0,5.87-1.32c3.71-1,1.65,3.44-.92,5-4,2.47-7.8,2.27-12.5,2a97.82,97.82,0,0,1-41.71-11.7,159.24,159.24,0,0,1-22.44-15c-2.21-1.76-7.94-5.37-7.88-8.52A3,3,0,0,1,94.5,58.11Z"/><path class="cls-6" d="M89.25,57.38a3.74,3.74,0,0,1,1.44-1,4.13,4.13,0,0,1,4.5,1.06h0C105.78,69.2,121,78.7,138,84.22a86.89,86.89,0,0,0,30.75,4.26,20.34,20.34,0,0,0,4.37-.93l1.29-.36c2.07-.55,2.79.34,3,.91.72,1.68-1.18,4.55-3.23,5.81-4.25,2.6-8.29,2.41-13,2.18h-.08A99.3,99.3,0,0,1,119.1,84.27,159,159,0,0,1,96.53,69.13c-.35-.28-.8-.61-1.3-1-3-2.18-7-5.17-6.94-8.29A3.77,3.77,0,0,1,89.25,57.38Zm4.57,1.36a2.28,2.28,0,0,0-2.46-.58,1.82,1.82,0,0,0-1.2,1.74c0,2.15,4,5.14,6.18,6.74.52.39,1,.73,1.36,1a157,157,0,0,0,22.3,15,97.51,97.51,0,0,0,41.3,11.58h.08c4.55.23,8.13.4,11.88-1.9a5.5,5.5,0,0,0,2.51-3.41,2,2,0,0,0-.84.1l-1.27.35a21.68,21.68,0,0,1-4.81,1A88.91,88.91,0,0,1,137.45,86C120.11,80.38,104.61,70.7,93.82,58.74Z"/><path class="cls-3" d="M184.62,77.19c-2.06,5.64-12.29,6.13-17.17,6.52a82.14,82.14,0,0,1-21.57-1.29c-14.32-2.69-27.55-10.32-38.69-19.53a80.52,80.52,0,0,1-8-7.48c-1.75-1.9-6.27-5.78-6.14-8.52.18-3.79,3.86-2,5.24-.3a79.68,79.68,0,0,0,8.15,8.79c11.45,10.47,25.66,18.8,41,21.76,7.78,1.5,16.08,2.2,23.95,1a46,46,0,0,0,7.94-1.86C180.51,75.9,186,73.24,184.62,77.19Z"/><path class="cls-6" d="M93,44.5a2.34,2.34,0,0,1,1-.66c1.8-.6,4,.9,5.06,2.15a79.67,79.67,0,0,0,8.06,8.7c8.67,7.93,22.74,18.1,40.54,21.53,8.82,1.7,16.77,2,23.63,1a44.13,44.13,0,0,0,7.78-1.82l.55-.21c2.21-.88,4.47-1.64,5.64-.52.63.61.72,1.56.27,2.83h0c-2.16,5.93-12,6.68-17.23,7.08l-.75,0a83.15,83.15,0,0,1-21.81-1.3c-13.09-2.46-26.26-9.09-39.12-19.73a82.21,82.21,0,0,1-8.06-7.56c-.31-.34-.71-.75-1.16-1.2-2.26-2.26-5.35-5.35-5.23-8A3.64,3.64,0,0,1,93,44.5Zm91,31.52c-.25-.1-1.06-.09-3.62.92l-.64.25a46.66,46.66,0,0,1-8.1,1.9c-7.08,1-15.24.71-24.27-1-18.22-3.51-32.59-13.9-41.44-22a80.24,80.24,0,0,1-8.25-8.89c-.81-1-2.34-1.79-3-1.56-.41.13-.52.79-.54,1.31-.09,1.83,2.89,4.81,4.68,6.6.46.47.88.89,1.21,1.24a79.57,79.57,0,0,0,7.87,7.4C120.4,72.6,133.28,79.1,146.06,81.5a81.07,81.07,0,0,0,21.31,1.27l.76,0c4.84-.37,13.86-1.06,15.61-5.85A1.93,1.93,0,0,0,183.91,76Z"/><path class="cls-3" d="M97.78,53.82c18,20.17,46.38,33.9,73.88,29.64,1.71-.26,4.16-1.19,6-1.11,3.84.16,1.69,3.45-.25,4.55-4.2,2.38-9.24,2.59-14,2.47a93.62,93.62,0,0,1-41.3-11A152.75,152.75,0,0,1,99.92,63.43c-2.18-1.72-7.61-4.53-7.48-7.71A3.08,3.08,0,0,1,97.78,53.82Z"/><path class="cls-6" d="M92.51,53.2a3.88,3.88,0,0,1,1.56-1.05,4,4,0,0,1,4.39,1h0c19.41,21.69,48.08,33.21,73,29.35.58-.09,1.27-.27,2-.45a15.35,15.35,0,0,1,4.14-.68c2.12.09,2.78,1,3,1.81.42,1.75-1.42,3.72-2.8,4.5-4.41,2.49-9.54,2.71-14.44,2.59A94.33,94.33,0,0,1,121.66,79.2a151.31,151.31,0,0,1-22.32-15c-.44-.34-1-.76-1.69-1.2C95,61.17,91.38,58.7,91.5,55.68A3.87,3.87,0,0,1,92.51,53.2Zm4.57,1.25a2.14,2.14,0,0,0-2.36-.54,2,2,0,0,0-1.34,1.85c-.08,2,3.17,4.19,5.32,5.65.67.46,1.31.89,1.8,1.28a149.73,149.73,0,0,0,22,14.86,92.35,92.35,0,0,0,40.89,10.88c4.62.12,9.46-.08,13.47-2.35,1.08-.61,2-1.93,1.89-2.42,0-.13-.38-.34-1.22-.38a14.47,14.47,0,0,0-3.6.62,21.82,21.82,0,0,1-2.17.49c-13.18,2-27.36.06-41-5.73A95.71,95.71,0,0,1,97.08,54.45Z"/><path class="cls-3" d="M149.12,109.9c-5,1.69-10.45.1-15.41-1.13a78.18,78.18,0,0,1-15.83-5.86C107,97.51,96.7,89.4,87.9,81.1c-1.79-1.69-10.21-9.81-3.05-10.71,1.9-.23,2.67,1,3.69,2.24a59.26,59.26,0,0,0,5.26,5.6A113,113,0,0,0,123,97.64a106.71,106.71,0,0,0,18.69,7.07c2.36.62,6.74,1.48,9.27,1.84C152.56,106.78,151.65,109.05,149.12,109.9Z"/><path class="cls-6" d="M81.79,70.73a4.63,4.63,0,0,1,2.94-1.27C87,69.18,88,70.51,89,71.68l.28.35a58.65,58.65,0,0,0,5.18,5.52,112.64,112.64,0,0,0,29,19.24,105.15,105.15,0,0,0,18.53,7c2.29.6,6.66,1.47,9.16,1.82a1.74,1.74,0,0,1,1.6,1.56c.13,1.38-1.27,2.94-3.26,3.61h0c-4.93,1.66-10.21.33-14.87-.85l-1.07-.26a79.09,79.09,0,0,1-16-5.93c-9.69-4.82-19.86-12.21-30.2-22-4.74-4.46-6.77-7.85-6-10.07A2.61,2.61,0,0,1,81.79,70.73Zm69,36.75c-2.6-.37-7-1.24-9.35-1.87a106.9,106.9,0,0,1-18.85-7.13A114.13,114.13,0,0,1,93.16,78.92a61.07,61.07,0,0,1-5.35-5.69l-.29-.37c-.92-1.14-1.41-1.68-2.55-1.54-.79.1-1.77.35-2,1-.33,1,.92,3.76,5.54,8.12,10.22,9.63,20.23,16.91,29.75,21.65a77.37,77.37,0,0,0,15.64,5.79l1.08.27c4.62,1.16,9.41,2.37,13.81.89A3.17,3.17,0,0,0,150.79,107.48Z"/><path class="cls-7" d="M108.18,111.43c-8.21-.06-16-5-22.06-10.14-2.42-2.06-13.58-11.81-7.56-13.51,2.91-.83,7,4.74,9,6.42,1.36,1.2,2.74,2.37,4.14,3.53a95.54,95.54,0,0,0,10.54,7.68c1.85,1.13,4.94,2,6.49,3.42C109.46,109.55,110.12,111.44,108.18,111.43Z"/><path class="cls-8" d="M76.56,87.88a3.53,3.53,0,0,1,1.75-1c2.78-.79,5.92,2.55,8.22,5,.63.67,1.18,1.25,1.59,1.62C89.6,94.79,91,95.94,92.24,97a91.84,91.84,0,0,0,10.44,7.61,21.11,21.11,0,0,0,2.51,1.22,15.41,15.41,0,0,1,4.13,2.31,3.05,3.05,0,0,1,.93,3,2,2,0,0,1-2.07,1.19h0c-7-.05-14.62-3.54-22.66-10.37-4.78-4-10.31-9.58-9.59-12.91A2.58,2.58,0,0,1,76.56,87.88Zm32,22.57a1.55,1.55,0,0,0-.46-.93,14.26,14.26,0,0,0-3.61-2,24.17,24.17,0,0,1-2.74-1.34,94.6,94.6,0,0,1-10.65-7.76c-1.31-1.08-2.67-2.24-4.16-3.54-.48-.42-1.06-1-1.73-1.75-1.74-1.85-4.66-5-6.34-4.48-.94.26-1,.66-1.06.81-.38,1.75,3.23,6.21,9,11.08,7.7,6.54,14.92,9.88,21.46,9.92A.85.85,0,0,0,108.51,110.45Z"/><path class="cls-3" d="M138.77,112.09c-4.08,2.19-9.63.87-13.81-.33a73.59,73.59,0,0,1-13.91-5.64C101,100.79,91.68,92.85,83.8,84.71c-1.85-1.9-3.35-3.14-5.16-5.09-1.18-1.27-3.65-4-2.7-6,1.87-4,9.39,5.1,11,6.54,8.06,7.44,16.28,14.79,25.78,20.37,5.11,3,10.49,5,16,7a36.66,36.66,0,0,0,7.91,2.11C136.93,109.7,141.67,110.53,138.77,112.09Z"/><path class="cls-6" d="M75.59,72.42A2.41,2.41,0,0,1,77,71.67c2.56-.41,6.06,3,9.43,6.63.48.5.89.93,1.11,1.14C95.68,87,103.78,94.2,113.15,99.69a94.71,94.71,0,0,0,15,6.65l.86.33a35.93,35.93,0,0,0,7.71,2c.85.12,3.63.62,3.91,2.16.14.77-.33,1.46-1.41,2h0c-4.16,2.23-9.43,1.19-14.51-.26A75.06,75.06,0,0,1,110.62,107c-9-4.73-18.2-12-27.49-21.58-.82-.84-1.57-1.56-2.31-2.25-.91-.87-1.85-1.76-2.86-2.86-1.23-1.32-4.1-4.41-2.87-7.07A3.53,3.53,0,0,1,75.59,72.42Zm62.93,38.74a8.47,8.47,0,0,0-2.07-.58,37.93,37.93,0,0,1-8.11-2.16l-.86-.33a95,95,0,0,1-15.28-6.78c-9.53-5.59-17.71-12.88-25.95-20.49-.27-.25-.68-.69-1.2-1.24-1.64-1.73-6-6.35-7.77-6.06-.09,0-.29,0-.49.46-.7,1.51,1.66,4,2.54,5s1.86,1.88,2.79,2.76c.74.71,1.51,1.45,2.35,2.31,9.16,9.45,18.25,16.6,27,21.23a73.24,73.24,0,0,0,13.73,5.57c4.47,1.28,9.52,2.33,13.11.41Z"/><path class="cls-7" d="M123.63,114c-5.06.76-8.27-.61-12.57-3.09a147.86,147.86,0,0,1-14.39-9.38c-4.54-3.4-8.92-7.11-13.29-10.74-1.53-1.27-10.16-8.18-3.76-9.33,2.57-.46,5.84,4.8,7.38,6.28a138.5,138.5,0,0,0,13.12,11.44,100.48,100.48,0,0,0,14.74,9,35.22,35.22,0,0,0,7.52,3.18C126,112.23,125.33,113.34,123.63,114Z"/><path class="cls-6" d="M77,81.69a4.27,4.27,0,0,1,2.48-1.16c2.45-.44,4.86,2.52,6.79,4.9.54.66,1,1.28,1.4,1.62a136.58,136.58,0,0,0,13,11.36,100.29,100.29,0,0,0,14.61,9l1,.5a28.35,28.35,0,0,0,6.32,2.6c1.51.36,3.27.93,3.36,2.27,0,.61-.27,1.47-2,2.14l-.2,0c-5.13.77-8.46-.48-13.18-3.21a145.15,145.15,0,0,1-14.48-9.44c-3.92-2.94-7.76-6.13-11.47-9.23l-2-1.69c-4.74-3.91-6.7-6.65-6.18-8.64A2.41,2.41,0,0,1,77,81.69Zm46.88,31.16a7.41,7.41,0,0,0-1.7-.56,30.41,30.41,0,0,1-6.74-2.76l-1-.49a103.16,103.16,0,0,1-14.88-9.12A139.83,139.83,0,0,1,86.35,88.4a21.09,21.09,0,0,1-1.55-1.79c-1.36-1.68-3.65-4.48-5-4.23-.52.09-1.42.32-1.54.8s0,2.12,5.55,6.73l2,1.69c3.69,3.08,7.51,6.26,11.39,9.17a140.14,140.14,0,0,0,14.31,9.31c4.39,2.55,7.3,3.66,11.84,3A2.72,2.72,0,0,0,123.86,112.85Z"/><path class="cls-3" d="M74.64,127.56c-3-3.81-2-9.93-1.2-14.41a70.39,70.39,0,0,1,3.34-12.59A131.18,131.18,0,0,1,87.84,77.29a162.59,162.59,0,0,1,17.74-23.88c1.67-1.92,3.78-5,6.27-5.95,4.47-1.7,7.1,5.18,2.5,6.67a2.85,2.85,0,0,0,.56-.26c-3,1.3-5.82,5.39-8,7.81a134.55,134.55,0,0,0-8.77,10.88A145,145,0,0,0,86.28,93.39a100.89,100.89,0,0,0-6.72,17.07,48.27,48.27,0,0,0-2,12.23c0,1.5.5,3.5.33,4.91S75.82,129,74.64,127.56Z"/><path class="cls-6" d="M116.16,47.43a4.93,4.93,0,0,1,1.46,4.4A4.17,4.17,0,0,1,114.8,55c-2,1.09-4,3.52-5.6,5.5-.54.66-1,1.29-1.54,1.84A130.82,130.82,0,0,0,99,73.11,144.25,144.25,0,0,0,87.13,93.8a98.54,98.54,0,0,0-6.67,16.91,46.88,46.88,0,0,0-2,12,13.23,13.23,0,0,0,.17,2.05,12.46,12.46,0,0,1,.15,2.95,2,2,0,0,1-1.5,1.79,3.38,3.38,0,0,1-3.41-1.36h0C70.59,124,71.71,117.62,72.52,113a70.4,70.4,0,0,1,3.37-12.73A132.4,132.4,0,0,1,87,76.82a161,161,0,0,1,17.84-24l1-1.23c1.51-1.85,3.39-4.15,5.62-5a4.35,4.35,0,0,1,4.47.69ZM114.55,53a2.2,2.2,0,0,0,1.23-1.56,3,3,0,0,0-1-2.77,2.47,2.47,0,0,0-2.59-.37c-1.77.67-3.47,2.75-4.84,4.43-.37.45-.72.88-1.06,1.27A160,160,0,0,0,88.64,77.77a130.54,130.54,0,0,0-11,23.1,68.68,68.68,0,0,0-3.3,12.44c-.76,4.29-1.79,10.16,1,13.66a1.6,1.6,0,0,0,1.42.73c.08,0,.14,0,.16-.22A11.77,11.77,0,0,0,76.8,125a17.13,17.13,0,0,1-.19-2.32,48.32,48.32,0,0,1,2-12.46A100.13,100.13,0,0,1,85.44,93a147,147,0,0,1,12-21,131,131,0,0,1,8.84-11c.46-.53,1-1.14,1.49-1.79,2-2.42,4.23-5.16,6.79-6.26Z"/><path class="cls-3" d="M81.34,134.39C77.5,131.52,77.51,123,78.11,119a95.25,95.25,0,0,1,5-18.26c4.59-12.56,11.4-23.06,19.56-33.39,3.51-4.45,7.44-10.41,12.13-13.69,2-1.43,4.4-.1,2.84,2.35s-4.51,4.65-6.42,6.95C102.47,73.52,94.4,85,89.91,98.1a111.19,111.19,0,0,0-5,20.57c-.31,2.17-.57,4.35-.79,6.52C84,126.9,85.92,137.27,81.34,134.39Z"/><path class="cls-6" d="M118.39,52.83l0,0c.72.69,1.11,2,0,3.68a26.08,26.08,0,0,1-3.87,4.33A36.38,36.38,0,0,0,112,63.57c-10.84,13-17.37,23.77-21.18,34.84a110.2,110.2,0,0,0-4.94,20.4c-.29,2-.55,4.2-.79,6.47-.12,1.23-.13,2.43-.13,3.69,0,.44,0,.87,0,1.31a3.62,3.62,0,0,0,.09.42,2.84,2.84,0,0,1,.11.68,3.35,3.35,0,0,1-.09,3.91c-.93,1.29-2.24,1.73-4.2.32h0c-4.79-3.58-4-14.52-3.65-16.74a95.27,95.27,0,0,1,5.08-18.44c4.1-11.21,10.17-21.58,19.7-33.65.72-.91,1.46-1.89,2.22-2.9,2.94-3.88,6.27-8.29,10.11-11A3.27,3.27,0,0,1,118.39,52.83ZM83.05,130.25V129c0-1.25,0-2.55.15-3.87.23-2.29.5-4.5.79-6.55a111.79,111.79,0,0,1,5-20.75c3.89-11.29,10.52-22.21,21.51-35.42a36.93,36.93,0,0,1,2.76-2.86,24.79,24.79,0,0,0,3.59-4c.37-.58.46-1.1.23-1.32h0c-.25-.24-1-.31-1.74.24-3.61,2.52-6.84,6.8-9.69,10.57-.77,1-1.52,2-2.25,2.93C94,79.85,88.05,90.06,84,101.07a93.15,93.15,0,0,0-5,18.08c-.63,4.2-1,12.78,2.3,15.24a1.47,1.47,0,0,0,2-2.15S83,130.55,83.05,130.25Z"/><path class="cls-3" d="M122.5,59c-12.61,11-22.22,26.72-27.73,42.78a87.9,87.9,0,0,0-4.82,31,30.42,30.42,0,0,0,1.22,5.9c.93,3.72-3.46,1.58-5-1-2.39-4.06-2.13-7.83-1.82-12.53a97.8,97.8,0,0,1,12.39-41.5A159.05,159.05,0,0,1,112.17,61.4c1.79-2.18,5.5-7.85,8.65-7.74A3,3,0,0,1,122.5,59Z"/><path class="cls-6" d="M123.31,53.73a3.7,3.7,0,0,1,1,1.45,4.11,4.11,0,0,1-1.13,4.48h0c-11.9,10.39-21.65,25.44-27.46,42.38a87.09,87.09,0,0,0-4.78,30.68,21.31,21.31,0,0,0,.86,4.38c.12.44.24.88.34,1.3.52,2.07-.38,2.78-1,3-1.69.69-4.53-1.26-5.75-3.33-2.54-4.29-2.27-8.32-2-13V125A99.42,99.42,0,0,1,95.93,83.12a159.07,159.07,0,0,1,15.51-22.31c.29-.35.63-.79,1-1.28,2.24-2.92,5.29-6.92,8.41-6.81A3.75,3.75,0,0,1,123.31,53.73Zm-1.43,4.54a2.25,2.25,0,0,0,.62-2.44,1.82,1.82,0,0,0-1.72-1.23c-2.15-.08-5.2,3.92-6.85,6.07-.39.51-.74,1-1,1.33a156.79,156.79,0,0,0-15.33,22,97.52,97.52,0,0,0-12.28,41.1v.08c-.3,4.54-.54,8.13,1.7,11.92a5.53,5.53,0,0,0,3.37,2.56,2,2,0,0,0-.09-.85c-.1-.41-.21-.83-.33-1.27a21.51,21.51,0,0,1-.92-4.83,88.52,88.52,0,0,1,4.88-31.31C99.8,84.2,109.74,68.87,121.88,58.27Z"/><path class="cls-3" d="M101.91,148.76c-5.6-2.16-5.93-12.4-6.23-17.29a82,82,0,0,1,1.65-21.54c2.93-14.27,10.78-27.37,20.18-38.36a81.64,81.64,0,0,1,7.61-7.84c1.93-1.72,5.89-6.17,8.63-6,3.78.25,1.93,3.89.21,5.24A80.78,80.78,0,0,0,125,71c-10.66,11.27-19.23,25.35-22.44,40.62-1.63,7.75-2.47,16-1.43,23.93a45.51,45.51,0,0,0,1.73,8C103.27,144.67,105.83,150.24,101.91,148.76Z"/><path class="cls-6" d="M136.14,57.66a2.36,2.36,0,0,1,.64,1c.56,1.82-1,4-2.24,5a78.71,78.71,0,0,0-8.83,7.91c-8.07,8.54-18.48,22.44-22.21,40.17-1.84,8.79-2.32,16.74-1.41,23.61a43.85,43.85,0,0,0,1.69,7.81c0,.13.12.32.2.55.85,2.23,1.57,4.51.43,5.65-.62.62-1.57.7-2.83.22h0c-5.89-2.27-6.47-12.08-6.78-17.35l-.05-.75a83.66,83.66,0,0,1,1.67-21.79C99.09,96.69,106,83.65,116.8,71A81,81,0,0,1,124.5,63c.34-.3.75-.7,1.21-1.14,2.29-2.22,5.44-5.26,8.1-5.09A3.6,3.6,0,0,1,136.14,57.66Zm-33,90.4c.11-.25.11-1.06-.86-3.63-.1-.27-.18-.49-.23-.64a46,46,0,0,1-1.77-8.14c-.94-7.09-.45-15.25,1.44-24.24,3.82-18.16,14.44-32.36,22.68-41.07a79.47,79.47,0,0,1,9-8.1c1-.8,1.82-2.31,1.61-3-.13-.41-.78-.54-1.3-.57-1.83-.12-4.87,2.81-6.68,4.57-.48.46-.91.87-1.27,1.19a79.62,79.62,0,0,0-7.52,7.75c-10.64,12.44-17.36,25.21-20,37.94a81.15,81.15,0,0,0-1.63,21.3l0,.75c.29,4.85.82,13.87,5.58,15.71A1.86,1.86,0,0,0,103.09,148.06Z"/><path class="cls-3" d="M126.74,62.31C106.26,80,92.06,108.13,95.86,135.69c.23,1.72,1.12,4.18,1,6-.22,3.84-3.48,1.63-4.55-.33-2.3-4.24-2.43-9.28-2.23-14a93.62,93.62,0,0,1,11.68-41.12A151.86,151.86,0,0,1,117.09,64.3c1.76-2.15,4.66-7.54,7.83-7.35A3.07,3.07,0,0,1,126.74,62.31Z"/><path class="cls-6" d="M127.44,57.05a4.05,4.05,0,0,1,1,1.58,4.1,4.1,0,0,1-1.1,4.38h0c-22,19-34,47.51-30.57,72.54.08.58.25,1.27.42,2a15.29,15.29,0,0,1,.61,4.16c-.13,2.11-1.08,2.76-1.86,2.93-1.76.39-3.69-1.48-4.45-2.87-2.42-4.45-2.56-9.59-2.35-14.48A94.4,94.4,0,0,1,101,85.76,152.15,152.15,0,0,1,116.37,63.7c.35-.43.77-1,1.22-1.67,1.84-2.61,4.37-6.2,7.38-6A3.88,3.88,0,0,1,127.44,57.05Zm-1.33,4.56a2.18,2.18,0,0,0,.59-2.35,2,2,0,0,0-1.83-1.38c-2-.11-4.25,3.1-5.74,5.23-.47.67-.92,1.3-1.31,1.78a149.19,149.19,0,0,0-15.23,21.79A92.33,92.33,0,0,0,91,127.38c-.2,4.62-.09,9.45,2.12,13.5.59,1.1,1.89,2.05,2.39,1.94.13,0,.35-.38.4-1.21a14.6,14.6,0,0,0-.56-3.61,22,22,0,0,1-.45-2.19c-1.82-13.21.4-27.35,6.41-40.89A95.87,95.87,0,0,1,126.11,61.61Z"/><path class="cls-3" d="M69.8,112.71c-1.61-5,.08-10.45,1.39-15.39a77.71,77.71,0,0,1,6.12-15.73C82.9,70.81,91.18,60.64,99.62,52c1.72-1.76,10-10,10.76-2.87.2,1.9-1,2.66-2.3,3.65a60.57,60.57,0,0,0-5.69,5.17A113.11,113.11,0,0,0,82.5,86.79a106.58,106.58,0,0,0-7.38,18.57c-.66,2.35-1.6,6.71-2,9.23C72.86,116.2,70.61,115.25,69.8,112.71Z"/><path class="cls-6" d="M110.1,46a4.67,4.67,0,0,1,1.21,3c.24,2.23-1.1,3.28-2.29,4.2l-.36.28a61.09,61.09,0,0,0-5.6,5.09A112.43,112.43,0,0,0,83.34,87.21,104.84,104.84,0,0,0,76,105.61c-.64,2.29-1.58,6.64-2,9.13a1.74,1.74,0,0,1-1.58,1.58c-1.39.1-2.92-1.33-3.56-3.33h0c-1.57-4.95-.15-10.21,1.1-14.85l.29-1.06a78.62,78.62,0,0,1,6.19-15.92C81.46,71.54,89,61.51,99,51.33c4.54-4.66,8-6.64,10.17-5.87A2.63,2.63,0,0,1,110.1,46ZM72.2,114.42c.41-2.59,1.35-6.94,2-9.32a107.23,107.23,0,0,1,7.44-18.73,114.7,114.7,0,0,1,20.06-29.1A60.87,60.87,0,0,1,107.5,52l.37-.3c1.15-.89,1.7-1.37,1.58-2.52-.09-.78-.32-1.77-.94-2-1-.35-3.78.85-8.22,5.41C90.49,62.69,83,72.57,78.15,82A76.31,76.31,0,0,0,72.1,97.56l-.29,1.07c-1.24,4.6-2.53,9.37-1.12,13.79A3.09,3.09,0,0,0,72.2,114.42Z"/><path class="cls-3" d="M69,71.75c.19-8.21,5.26-15.91,10.51-21.88,2.09-2.39,12-13.38,13.63-7.34.78,2.93-4.86,6.94-6.57,8.84q-1.83,2-3.59,4.08a93.4,93.4,0,0,0-7.86,10.41c-1.17,1.83-2.08,4.9-3.53,6.43C70.82,73.06,68.92,73.69,69,71.75Z"/><path class="cls-6" d="M93,40.52a3.61,3.61,0,0,1,1,1.77c.74,2.79-2.66,5.88-5.14,8.14-.69.62-1.28,1.16-1.65,1.57-1.31,1.45-2.48,2.78-3.57,4.06a92,92,0,0,0-7.78,10.31,20.31,20.31,0,0,0-1.26,2.48,15.15,15.15,0,0,1-2.39,4.09,3.05,3.05,0,0,1-3,.89A2,2,0,0,1,68,71.73h0c.16-7,3.78-14.55,10.74-22.48,4.13-4.71,9.75-10.15,13.07-9.37A2.57,2.57,0,0,1,93,40.52ZM69.93,72.1a1.57,1.57,0,0,0,.94-.45,14.36,14.36,0,0,0,2-3.58,23.51,23.51,0,0,1,1.39-2.71,93.45,93.45,0,0,1,7.93-10.52c1.1-1.29,2.28-2.63,3.61-4.1.43-.48,1.06-1,1.78-1.7,1.88-1.71,5-4.58,4.59-6.27-.25-.94-.65-1-.8-1.06-1.74-.41-6.26,3.11-11.23,8.77C73.51,58.07,70.05,65.24,69.9,71.77A.82.82,0,0,0,69.93,72.1Z"/><path class="cls-3" d="M67.78,102.32c-2.12-4.11-.7-9.64.57-13.8a73.66,73.66,0,0,1,5.87-13.81c5.5-10,13.59-19.14,21.86-26.89,1.93-1.81,3.2-3.3,5.17-5.07,1.3-1.16,4-3.59,6.08-2.6,4,1.94-5.26,9.3-6.72,10.83C93,58.92,85.55,67,79.81,76.42c-3.08,5.06-5.14,10.41-7.31,15.89a36.71,36.71,0,0,0-2.24,7.87C70.21,100.52,69.29,105.25,67.78,102.32Z"/><path class="cls-6" d="M108.5,39.82a2.36,2.36,0,0,1,.73,1.4c.37,2.57-3.14,6-6.78,9.32-.51.47-1,.87-1.16,1.09-7.68,8-15,16-20.68,25.28a95.05,95.05,0,0,0-6.9,14.88l-.34.86a35.75,35.75,0,0,0-2.18,7.67c-.13.85-.68,3.62-2.22,3.87-.78.13-1.46-.35-2-1.44h0c-2.17-4.2-1-9.45.5-14.5a74.5,74.5,0,0,1,6-14c4.87-8.86,12.29-18,22-27.12.85-.8,1.58-1.55,2.29-2.27.87-.89,1.78-1.82,2.9-2.82,1.34-1.2,4.48-4,7.11-2.74A3,3,0,0,1,108.5,39.82ZM68.72,102.09a8.91,8.91,0,0,0,.61-2.06A37.63,37.63,0,0,1,71.63,92L72,91.1a96.24,96.24,0,0,1,7-15.16c5.75-9.43,13.18-17.49,20.92-25.6.26-.27.7-.67,1.26-1.18,1.76-1.61,6.45-5.88,6.19-7.67,0-.1,0-.3-.46-.5-1.49-.72-4.07,1.59-5,2.46s-1.92,1.82-2.82,2.74c-.72.73-1.46,1.49-2.34,2.31-9.61,9-16.9,18-21.68,26.66a73,73,0,0,0-5.8,13.64c-1.35,4.45-2.49,9.48-.63,13.09Z"/><path class="cls-3" d="M66.13,87.15c-.67-5.07.75-8.26,3.31-12.51a148.39,148.39,0,0,1,9.61-14.23c3.49-4.49,7.27-8.8,11-13.11,1.3-1.51,8.34-10,9.39-3.6.41,2.57-4.89,5.75-6.4,7.27A139.88,139.88,0,0,0,81.35,63.89a101.39,101.39,0,0,0-9.28,14.59,35.18,35.18,0,0,0-3.3,7.46C67.86,89.59,66.76,88.87,66.13,87.15Z"/><path class="cls-6" d="M99.21,41.05a4.26,4.26,0,0,1,1.12,2.5c.4,2.46-2.6,4.82-5,6.71a21.22,21.22,0,0,0-1.65,1.37A137.43,137.43,0,0,0,82.1,64.46a101.09,101.09,0,0,0-9.19,14.45c-.18.33-.35.66-.52,1a29.35,29.35,0,0,0-2.71,6.27c-.38,1.51-1,3.25-2.32,3.33-.61,0-1.47-.29-2.11-2l0-.2c-.68-5.14.63-8.45,3.44-13.12a146.79,146.79,0,0,1,9.67-14.33c3-3.87,6.27-7.65,9.43-11.31l1.72-2c4-4.67,6.77-6.59,8.75-6A2.47,2.47,0,0,1,99.21,41.05ZM67.27,87.4a6.86,6.86,0,0,0,.59-1.68A30.69,30.69,0,0,1,70.73,79l.51-1a102.15,102.15,0,0,1,9.37-14.73,137.61,137.61,0,0,1,11.74-13,20.87,20.87,0,0,1,1.82-1.52c1.69-1.34,4.53-3.57,4.31-4.94-.08-.52-.3-1.42-.78-1.55s-2.11-.07-6.81,5.44l-1.73,2C86,53.39,82.77,57.15,79.8,61a141.38,141.38,0,0,0-9.55,14.15c-2.63,4.35-3.78,7.24-3.2,11.79A3.88,3.88,0,0,0,67.27,87.4Z"/><path class="cls-3" d="M77.36,114.25c-.94,7.37,3.52,15.85,7.64,21.65a43.13,43.13,0,0,0,4,4.79c.7.73,3.54,2.49,3,3.73-1.13,2.56-7.64-4.18-8.76-5.31C77.6,133.47,72.69,126,70.9,118.17c-.57-2.47-1.34-6.5,1.44-7.94A3.57,3.57,0,0,1,77.36,114.25Z"/><path class="cls-6" d="M91.65,146.17l-.16,0c-1.29.23-3.37-.31-9.06-6.08l-.14-.14c-6.43-6.5-10.91-14.15-12.61-21.54-.51-2.21-1.69-7.38,2.08-9.33a4.57,4.57,0,0,1,5,.42,5,5,0,0,1,1.88,4.91c-1,7.61,4.24,16.25,7.42,20.72a41.92,41.92,0,0,0,3.83,4.66l.68.57c1.34,1.07,3.36,2.71,2.55,4.53A2.11,2.11,0,0,1,91.65,146.17Zm-18.25-35a2.34,2.34,0,0,0-.49.19c-1.81.94-1.42,3.84-.79,6.55,1.57,6.85,5.92,14.26,11.95,20.34l.14.14c3.36,3.41,5.16,4.66,6.06,5.12-.42-.43-1-.91-1.31-1.15a9.12,9.12,0,0,1-.91-.78A43.88,43.88,0,0,1,84,136.62c-3.4-4.78-8.94-14.07-7.86-22.53l0-.09a2.47,2.47,0,0,0-.94-2.46A2.1,2.1,0,0,0,73.4,111.15Z"/><path class="cls-3" d="M85.48,121.59c-.06,4.34,2.73,9.37,4.77,13a53.52,53.52,0,0,0,8.11,11.26,43.66,43.66,0,0,0,5.16,4.54c1.18.89,4,2.05,4.84,3.19,2.68,3.9-7.07-.16-8.25-.85-8.11-4.76-14.58-13-18.64-21.4-1.35-2.78-3.73-7.36-2.92-10.57C79.53,116.87,85.52,117.44,85.48,121.59Z"/><path class="cls-6" d="M108.7,156.41c-2.83.73-9.16-2.52-9.23-2.56-7.53-4.42-14.5-12.41-19.12-21.93l-.24-.48c-1.45-3-3.64-7.46-2.77-10.93a4.71,4.71,0,0,1,5.31-3.57,4.55,4.55,0,0,1,4.08,4.67h0c-.06,4,2.62,8.83,4.58,12.36l0,.07a51.92,51.92,0,0,0,7.92,11,42.42,42.42,0,0,0,5,4.41,15.07,15.07,0,0,0,1.66,1,10.22,10.22,0,0,1,3.45,2.5c1.06,1.53.71,2.46.23,3A1.84,1.84,0,0,1,108.7,156.41ZM81.36,119.47a2.17,2.17,0,0,0-1.6,1.64c-.65,2.6,1.39,6.75,2.6,9.24l.23.48c4.42,9.08,11,16.69,18.15,20.87a30.15,30.15,0,0,0,6.18,2.25,17.94,17.94,0,0,0-2.19-1.33,17.94,17.94,0,0,1-2-1.18,45.73,45.73,0,0,1-5.3-4.68,53.72,53.72,0,0,1-8.31-11.51l0-.07c-2.09-3.78-5-9-4.89-13.6h0a2,2,0,0,0-1.9-2.16A2.45,2.45,0,0,0,81.36,119.47Z"/><path class="cls-3" d="M91.77,126.07c-.13,4.12,4.61,9.33,7,12.28a67.6,67.6,0,0,0,10,10c1.83,1.49,3.75,2.89,5.71,4.21,1.06.71,3.9,1.87,4.57,2.87,2.67,4-8.19-.34-9.47-1A58.74,58.74,0,0,1,88.93,136.1c-1.88-2.72-5-7.33-4.09-10.88C85.84,121.25,91.88,121.89,91.77,126.07Z"/><path class="cls-6" d="M119.31,158.21c-3.06.79-10.23-2.61-10.31-2.65a60,60,0,0,1-21.1-18.75c-1.86-2.71-5.32-7.73-4.28-11.9A4.72,4.72,0,0,1,89,121.36a4.56,4.56,0,0,1,4,4.74h0c-.1,3.21,3.5,7.56,5.89,10.44l.84,1a67.11,67.11,0,0,0,9.81,9.84c1.7,1.39,3.54,2.74,5.62,4.14.29.2.82.47,1.38.76,1.7.89,3,1.59,3.53,2.46,1,1.48.64,2.4.18,2.92A1.84,1.84,0,0,1,119.31,158.21ZM87.64,123.89a2.15,2.15,0,0,0-1.59,1.63c-.77,3.07,2.39,7.66,3.91,9.87a57.45,57.45,0,0,0,20.19,18,36.61,36.61,0,0,0,7.52,2.5,20.22,20.22,0,0,0-2.27-1.32,17.49,17.49,0,0,1-1.62-.91c-2.13-1.43-4-2.83-5.8-4.27a70.06,70.06,0,0,1-10.17-10.2l-.82-1c-2.63-3.16-6.6-7.95-6.47-12.11a2,2,0,0,0-1.89-2.19A2.55,2.55,0,0,0,87.64,123.89Z"/><path class="cls-3" d="M99.22,126.71c3.46,8.4,11,15.51,18.06,21,1.9,1.48,3.87,2.86,5.89,4.19,1.73,1.14,4.84,2.31,6.25,3.82s.8,3-1.18,3.14-5-1.37-6.82-2.17c-9.08-4-17.39-11.1-23.56-18.81-2.06-2.58-4.7-5.95-5.38-9.29A3.5,3.5,0,1,1,99.22,126.71Z"/><path class="cls-6" d="M129.13,160a4.82,4.82,0,0,1-.79.13c-2.06.16-4.71-1-6.64-1.92l-.78-.35c-8.66-3.81-17.19-10.62-24-19.17-1.94-2.43-4.88-6.1-5.64-9.83A4.82,4.82,0,0,1,94.71,123h0a4.62,4.62,0,0,1,5.67,3.28c2.74,6.6,8.51,13.29,17.66,20.44,1.67,1.31,3.57,2.66,5.8,4.14.57.37,1.34.77,2.15,1.19a15.9,15.9,0,0,1,4.33,2.82,3.2,3.2,0,0,1,.9,3.39A2.91,2.91,0,0,1,129.13,160ZM95.35,125.42h0a2.33,2.33,0,0,0-1.64,2.92c.64,3.14,3.35,6.52,5.14,8.76,6.6,8.25,14.79,14.8,23.08,18.45l.81.36c1.59.72,4,1.82,5.41,1.71.51,0,.74-.2.77-.27s0-.38-.41-.78a14.93,14.93,0,0,0-3.64-2.3,25.36,25.36,0,0,1-2.38-1.33c-2.29-1.51-4.24-2.9-6-4.25-9.52-7.44-15.55-14.47-18.45-21.5l0-.1A2.17,2.17,0,0,0,95.35,125.42Z"/><path class="cls-3" d="M107.71,127.92c4.08,8.89,12.4,16.73,21.08,21.17,2.8,1.43,7.12,2.15,9.48,4.37,1.61,1.51,1.07,3.52-1.11,4-2,.44-4.88-.51-6.71-1.25-9-3.59-17.59-10.33-23.86-17.63-1.94-2.27-5.2-5.9-5.68-8.94C100.24,125.36,106.22,124,107.71,127.92Z"/><path class="cls-6" d="M137.58,158.65l-.15,0c-1.78.4-4.28,0-7.44-1.3-8.62-3.45-17.49-10-24.35-18l-.33-.38c-2-2.37-5.13-6-5.63-9.18a4.61,4.61,0,0,1,3.43-5.33h0a4.78,4.78,0,0,1,5.72,2.93c3.74,8.12,11.59,16,20.49,20.54a27.05,27.05,0,0,0,3.34,1.32c2.33.82,4.74,1.66,6.44,3.26a3.43,3.43,0,0,1-1.55,6.1Zm-33.82-31.73h0a2.11,2.11,0,0,0-1.6,2.54c.39,2.51,3.2,5.77,5.06,7.93l.33.39c6.6,7.69,15.12,14,23.38,17.28,2.6,1.05,4.72,1.47,6,1.19a1.3,1.3,0,0,0,1.05-.74,1.25,1.25,0,0,0-.52-1.14c-1.3-1.23-3.46-2-5.55-2.72a29.36,29.36,0,0,1-3.64-1.45c-9.4-4.8-17.69-13.14-21.65-21.76l0-.08A2.26,2.26,0,0,0,103.76,126.92Z"/><path class="cls-3" d="M116.27,129.9c4.48,9.27,13.49,15.37,23.11,18.46a33.48,33.48,0,0,0,3.93,1c1.74.34,5.06-.2,6.32,1.25,3.45,3.93-5.49,3.54-7.27,3.4a41.76,41.76,0,0,1-26.88-13.21,29.16,29.16,0,0,1-5.24-7.37C107.93,128.58,114.26,124.89,116.27,129.9Z"/><path class="cls-6" d="M148.74,155a21.66,21.66,0,0,1-6.47.32,43,43,0,0,1-27.71-13.61,30.41,30.41,0,0,1-5.45-7.68,5.51,5.51,0,0,1,.37-5.73,4.4,4.4,0,0,1,7.93,1.1c3.93,8.1,11.87,14.41,22.35,17.78a33.63,33.63,0,0,0,3.79,1,13.66,13.66,0,0,0,1.77.12c1.89.06,4,.12,5.25,1.52s1.21,2.71.85,3.43A3.9,3.9,0,0,1,148.74,155Zm-35.92-26.17a2.43,2.43,0,0,0-1.31.93,3.09,3.09,0,0,0-.14,3.2,27.72,27.72,0,0,0,5,7,40.43,40.43,0,0,0,26.06,12.83c3.37.25,6.16-.13,6.7-.65a2.14,2.14,0,0,0-.46-.69c-.51-.58-2.21-.63-3.44-.67a14.16,14.16,0,0,1-2.17-.17,33.41,33.41,0,0,1-4.08-1.09c-11.16-3.58-19.63-10.37-23.85-19.11l0-.08a2.29,2.29,0,0,0-1.65-1.59A1.75,1.75,0,0,0,112.82,128.82Z"/><path class="cls-3" d="M126.1,130c4.44,8.86,14.9,13,24,15.19a43.45,43.45,0,0,0,6.22,1.06c1.63.14,4.84-.21,4.69,2.37-.22,3.62-8.86,2.11-11.42,1.89-9.23-.81-19.23-4.37-26.15-10.69-2.26-2.07-5.46-5.34-5.53-8.52C117.82,126.23,124.31,126,126.1,130Z"/><path class="cls-6" d="M159.11,151.91c-2.25.58-5.37.31-8.45,0l-1.15-.13c-10.28-.9-20.33-5-26.88-11-2.51-2.3-5.85-5.77-5.94-9.42a4.91,4.91,0,0,1,3.86-5.23,5.94,5.94,0,0,1,6.68,3.37c3.4,6.75,11.2,11.63,23.19,14.5a40.65,40.65,0,0,0,6,1l.78,0c1.35.05,3.21.12,4.29,1.3a3.12,3.12,0,0,1,.75,2.35,3.08,3.08,0,0,1-1.14,2.26A5.05,5.05,0,0,1,159.11,151.91ZM121,128.55a2.43,2.43,0,0,0-1.81,2.71c.07,3,3.88,6.49,5.13,7.63,6.16,5.63,15.66,9.51,25.41,10.36l1.22.14c2.14.24,7.17.82,8.59-.36a.64.64,0,0,0,.25-.5c0-.37-.08-.48-.11-.51-.37-.41-1.72-.46-2.53-.49-.33,0-.64,0-.91-.05a42.67,42.67,0,0,1-6.4-1.09c-12.93-3.09-21.07-8.27-24.86-15.84l0-.05a3.48,3.48,0,0,0-3.86-2Z"/><path class="cls-3" d="M134.84,128.52c5.45,7.07,15.36,9.26,23.65,10.85,2.62.51,10.28,1,11.48,3.94,1.79,4.31-7.36,3.5-9.39,3.38-8.78-.52-18.72-2.56-26.12-7.51-2.66-1.78-7.8-5.24-7-9A4.19,4.19,0,0,1,134.84,128.52Z"/><path class="cls-6" d="M168.16,147.65a25.1,25.1,0,0,1-7.31.31l-.35,0c-7.6-.45-18.41-2.16-26.74-7.72-2.76-1.85-8.51-5.69-7.5-10.34a5.22,5.22,0,0,1,4-4,5.46,5.46,0,0,1,5.58,1.9v0c5,6.48,14,8.68,22.89,10.38.44.09,1,.17,1.74.28,4.95.71,9.5,1.59,10.67,4.42a3.11,3.11,0,0,1-.22,3.19A4.66,4.66,0,0,1,168.16,147.65Zm-37.41-19.37a2.77,2.77,0,0,0-2.05,2.13c-.65,3,4.33,6.31,6.45,7.73,7.86,5.25,18.21,6.87,25.5,7.3l.36,0c6.24.41,7.58-.49,7.87-.89,0-.06.17-.23-.06-.78-.72-1.74-6.33-2.55-8.72-2.9-.73-.11-1.36-.2-1.85-.29-9.31-1.79-18.86-4.14-24.39-11.31a3,3,0,0,0-3-1Z"/><path class="cls-3" d="M145.25,125.2c3,3.68,8.53,5.56,12.84,7a62.61,62.61,0,0,0,13.48,3.23c2.05.22,7.76-.27,6.16,3.66-1.15,2.85-6.76,2.77-9.28,2.75a49.08,49.08,0,0,1-23.14-6c-2.86-1.61-8-4.82-7.61-8.66S143,122.22,145.25,125.2Z"/><path class="cls-6" d="M174.77,142.59a24.33,24.33,0,0,1-6.24.53h-.09a50.5,50.5,0,0,1-23.75-6.2c-2.15-1.21-8.69-4.9-8.23-9.87a5.16,5.16,0,0,1,3.83-4.6,5.51,5.51,0,0,1,6,2c2.7,3.35,7.93,5.14,12.13,6.57l.12.05a60.59,60.59,0,0,0,13.21,3.17c.3,0,.67.05,1.09.06,2.05.09,4.86.2,6,2a3.48,3.48,0,0,1,.09,3.32C178.22,141.24,176.61,142.12,174.77,142.59ZM141,124.84H141a2.71,2.71,0,0,0-2,2.43c-.21,2.23,2.14,4.74,7,7.47a47.91,47.91,0,0,0,22.53,5.87h.1c2,0,7.2.06,8-2,.1-.22.29-.77.13-1-.45-.69-2.86-.79-4-.84-.48,0-.91,0-1.25-.07a63,63,0,0,1-13.76-3.3l-.12,0c-4.51-1.54-10.13-3.46-13.28-7.39l0,0A3,3,0,0,0,141,124.84Z"/><path class="cls-3" d="M153,118.68c5.88,6,15.09,6,22.64,8.53,2.67.88,8,2.36,6.15,6.3-1.45,3.12-6.74,2.08-9.42,1.91-7.63-.49-16.66-1.76-22.5-7.17-2.09-1.94-5.23-5.44-3.93-8.53A4.22,4.22,0,0,1,153,118.68Z"/><path class="cls-6" d="M179.52,136.66a18.09,18.09,0,0,1-6,.11l-1.21-.1c-7.59-.49-17.1-1.78-23.27-7.51-5-4.63-5.06-8-4.24-9.92a5.24,5.24,0,0,1,4-3.19,5.73,5.73,0,0,1,5.14,1.77c3.87,3.91,9.51,5.16,15,6.37A72.38,72.38,0,0,1,176,126l.44.15c2.22.72,5.56,1.81,6.62,4.24a4.28,4.28,0,0,1-.17,3.62A4.83,4.83,0,0,1,179.52,136.66Zm-30.58-18.09a2.7,2.7,0,0,0-1.87,1.63c-1,2.36,1.85,5.48,3.63,7.13,5.59,5.19,14.55,6.38,21.73,6.84l1.29.11c2.41.24,6,.58,6.92-1.3a1.76,1.76,0,0,0,.14-1.57c-.6-1.4-3.41-2.32-5.09-2.86l-.46-.15a65.89,65.89,0,0,0-6.92-1.77c-5.81-1.29-11.83-2.62-16.22-7.07l0,0a3.2,3.2,0,0,0-2.88-1Z"/><path class="cls-3" d="M155.26,113.2c6.27,5.54,15.46,5,23.17,7,2.72.69,8.13,1.8,6.57,5.86-1.24,3.21-6.59,2.54-9.27,2.56-7.65,0-16.74-.61-22.94-5.61-2.22-1.79-5.59-5.07-4.51-8.24A4.23,4.23,0,0,1,155.26,113.2Z"/><path class="cls-6" d="M182.41,129.47a20.08,20.08,0,0,1-5.45.37c-.45,0-.86,0-1.22,0-7.61,0-17.18-.6-23.73-5.89-5.31-4.27-5.6-7.59-4.91-9.61a5.22,5.22,0,0,1,3.76-3.45,5.73,5.73,0,0,1,5.25,1.41c4.12,3.64,9.84,4.49,15.36,5.32a70.5,70.5,0,0,1,7.27,1.34l.46.11c2.26.57,5.67,1.43,6.89,3.78a4.28,4.28,0,0,1,.08,3.63A5,5,0,0,1,182.41,129.47Zm-31-16.16a2.73,2.73,0,0,0-1.95,1.81c-.82,2.43,2.23,5.34,4.11,6.87,5.94,4.79,15,5.36,22.16,5.33.38,0,.82,0,1.29,0,2.42.06,6.07.16,6.82-1.78a1.81,1.81,0,0,0,0-1.58c-.7-1.35-3.57-2.07-5.28-2.5l-.47-.12a70.75,70.75,0,0,0-7-1.29c-5.89-.88-12-1.79-16.67-5.94l0,0a3.18,3.18,0,0,0-2.94-.8Z"/><path class="cls-3" d="M120.64,28c4.84-.52,9.45,3.65,12.81,6.71a69.55,69.55,0,0,1,8.84,9.55A130.58,130.58,0,0,1,156,66,162.19,162.19,0,0,1,166.72,93.8c.72,2.44,2.21,5.87,1.67,8.48-1,4.69-8.18,3.23-7-1.45a2.09,2.09,0,0,0-.08.61c.52-3.25-1.45-7.8-2.35-10.9a132.06,132.06,0,0,0-4.5-13.23A144.73,144.73,0,0,0,143.27,56.1a101.22,101.22,0,0,0-10.82-14.81,48.42,48.42,0,0,0-9.26-8.24c-1.25-.83-3.22-1.45-4.32-2.35S118.76,28.19,120.64,28Z"/><path class="cls-6" d="M166.11,105.94a4.93,4.93,0,0,1-4.5-1.13,4.17,4.17,0,0,1-1.14-4.06c.15-2.25-.84-5.23-1.65-7.66-.27-.81-.52-1.58-.73-2.29a129.5,129.5,0,0,0-4.47-13.14A144.28,144.28,0,0,0,142.47,56.6a98.28,98.28,0,0,0-10.72-14.68,46.71,46.71,0,0,0-9.08-8.09,14.48,14.48,0,0,0-1.82-.95,12.55,12.55,0,0,1-2.58-1.46,2,2,0,0,1-.7-2.22,3.36,3.36,0,0,1,3-2.15h0c5.29-.57,10.06,3.77,13.54,6.94A70.63,70.63,0,0,1,143,43.66,133,133,0,0,1,156.87,65.6a161.66,161.66,0,0,1,10.74,27.93c.14.47.31,1,.49,1.52.75,2.26,1.69,5.08,1.21,7.42a4.34,4.34,0,0,1-3,3.4Zm-3.88-4.36a2.18,2.18,0,0,0,.67,1.87,3,3,0,0,0,2.88.63,2.43,2.43,0,0,0,1.69-2c.38-1.85-.46-4.4-1.15-6.45-.18-.55-.36-1.08-.5-1.57A159.56,159.56,0,0,0,155.2,66.46a130.47,130.47,0,0,0-13.64-21.64,68.65,68.65,0,0,0-8.75-9.44c-3.21-2.93-7.62-7-12.07-6.46a1.59,1.59,0,0,0-1.38.81c0,.08,0,.14.1.24a11,11,0,0,0,2.19,1.21,16.68,16.68,0,0,1,2.06,1.09,48.36,48.36,0,0,1,9.43,8.39,100.5,100.5,0,0,1,10.92,15A146,146,0,0,1,155.36,77a133.36,133.36,0,0,1,4.53,13.33c.2.67.45,1.42.71,2.22,1,3,2.1,6.33,1.66,9.08Z"/><path class="cls-3" d="M111.28,30c4.48-1.71,11.64,2.84,14.72,5.5a95.17,95.17,0,0,1,12.73,14c8.15,10.6,13.38,22,17.74,34.39,1.88,5.34,4.82,11.85,5.07,17.58.12,2.49-2.26,3.77-3.5,1.13s-1.52-6.29-2.43-9.13c-4.22-13.07-9.63-26-18.26-36.84a112,112,0,0,0-14.71-15.22c-1.66-1.41-3.37-2.8-5.08-4.15C116.21,36.21,106.39,32.32,111.28,30Z"/><path class="cls-6" d="M160.35,104.94h0c-1,.24-2.3-.14-3.14-1.93a25.86,25.86,0,0,1-1.59-5.59,34.88,34.88,0,0,0-.89-3.65c-5.2-16.13-10.78-27.4-18.09-36.54A110.43,110.43,0,0,0,122,42.14c-1.56-1.33-3.26-2.72-5-4.13a36.27,36.27,0,0,0-3-2.09l-1.11-.71-.4-.15a3.59,3.59,0,0,1-.64-.26,3.35,3.35,0,0,1-3.25-2.18c-.58-1.47-.26-2.81,2-3.72h0c5.58-2.12,14.4,4.42,16.09,5.88a94.8,94.8,0,0,1,12.87,14.16c7.27,9.46,12.78,20.14,17.88,34.65.38,1.1.82,2.25,1.26,3.43,1.71,4.56,3.65,9.73,3.86,14.41A3.27,3.27,0,0,1,160.35,104.94Zm-46.49-71.3,1.08.7c1.06.68,2.15,1.37,3.2,2.19,1.81,1.43,3.53,2.84,5.11,4.18a111.82,111.82,0,0,1,14.83,15.35c7.46,9.33,13.14,20.78,18.42,37.13a38,38,0,0,1,.94,3.85,24,24,0,0,0,1.45,5.18c.29.62.68,1,1,.9h0c.33-.08.77-.64.73-1.6-.2-4.39-2.09-9.41-3.75-13.85-.45-1.19-.88-2.35-1.27-3.46-5-14.31-10.46-24.83-17.6-34.13A93.11,93.11,0,0,0,125.38,36.2c-3.21-2.78-10.28-7.65-14.1-6.21-1.37.56-1.15,1.54-1,1.94a1.41,1.41,0,0,0,1.74.91S113.61,33.48,113.86,33.64Z"/><path class="cls-3" d="M153,105.12c-2.56-16.55-10.69-33.07-21.31-46.32a88,88,0,0,0-23.6-20.66A30.86,30.86,0,0,0,102.43,36c-3.65-1.21.52-3.77,3.53-3.68,4.71.15,7.76,2.39,11.56,5.17A97.76,97.76,0,0,1,146,70.19a158.7,158.7,0,0,1,10.49,24.9c.88,2.68,3.69,8.85,1.91,11.45A3,3,0,0,1,153,105.12Z"/><path class="cls-6" d="M157,108.61a3.78,3.78,0,0,1-1.74,0,4.13,4.13,0,0,1-3.18-3.36v0c-2.41-15.6-9.9-31.89-21.11-45.87a86.88,86.88,0,0,0-23.35-20.45,20.87,20.87,0,0,0-4.17-1.62l-1.28-.41c-2-.67-2.14-1.81-2-2.43.32-1.8,3.48-3.15,5.89-3.08,5,.16,8.24,2.54,12,5.3l.06,0a99.18,99.18,0,0,1,28.71,33,159.2,159.2,0,0,1,10.55,25c.14.43.33,1,.55,1.54,1.27,3.44,3,8.16,1.24,10.74A3.73,3.73,0,0,1,157,108.61ZM153.89,105a2.28,2.28,0,0,0,1.73,1.84,1.83,1.83,0,0,0,2-.8c1.21-1.78-.53-6.5-1.46-9-.23-.61-.43-1.15-.57-1.6a157.41,157.41,0,0,0-10.43-24.75A97.4,97.4,0,0,0,117,38.26l-.07,0c-3.67-2.68-6.57-4.8-11-4.94a5.49,5.49,0,0,0-4,1.47,2,2,0,0,0,.75.38l1.25.4a22.09,22.09,0,0,1,4.58,1.81,88.71,88.71,0,0,1,23.84,20.88C143.8,72.44,151.43,89,153.89,105Z"/><path class="cls-3" d="M88.13,39.68c4.82-3.58,13.65,1.62,17.94,4a81.91,81.91,0,0,1,17.31,12.93C133.87,66.7,140.74,80.34,145,94.16a82.47,82.47,0,0,1,2.55,10.62c.42,2.55,2.07,8.28.45,10.5-2.23,3.07-4.32-.45-4.54-2.62a80.25,80.25,0,0,0-2-11.83c-3.82-15-11.12-29.81-22.31-40.7-5.68-5.52-12.23-10.67-19.45-14a45,45,0,0,0-7.66-2.81C90.86,43,84.78,42.2,88.13,39.68Z"/><path class="cls-6" d="M146.78,117.34a2.33,2.33,0,0,1-1.21,0c-1.84-.5-2.89-3-3-4.59a79.3,79.3,0,0,0-2-11.69c-2.89-11.39-9.07-27.62-22-40.26-6.44-6.26-12.9-10.91-19.19-13.82a43.94,43.94,0,0,0-7.5-2.75l-.58-.13c-2.33-.48-4.64-1.08-5-2.66-.19-.86.26-1.7,1.33-2.51h0c5.06-3.76,13.66,1,18.28,3.56l.66.36A83.3,83.3,0,0,1,124,55.91c9.59,9.24,16.95,22,21.86,38a81.56,81.56,0,0,1,2.57,10.75c.08.46.2,1,.32,1.64.65,3.13,1.53,7.41,0,9.56A3.64,3.64,0,0,1,146.78,117.34ZM88.09,41.05c.15.22.83.66,3.53,1.22l.67.14a46.71,46.71,0,0,1,7.81,2.86,72.86,72.86,0,0,1,19.71,14.19C133.11,72.4,139.42,89,142.37,100.6a80.3,80.3,0,0,1,2,12c.13,1.28,1,2.78,1.68,3,.41.11.86-.38,1.17-.8,1.08-1.48.23-5.61-.28-8.08-.14-.65-.26-1.24-.33-1.71a80.67,80.67,0,0,0-2.52-10.5c-4.82-15.65-12-28.16-21.37-37.18a81.31,81.31,0,0,0-17.11-12.77l-.67-.37c-4.25-2.35-12.16-6.73-16.25-3.69A1.73,1.73,0,0,0,88.09,41.05Z"/><path class="cls-3" d="M147.87,106.91c-4-26.77-20.14-53.81-45.46-65.35-1.57-.72-4.13-1.29-5.59-2.34-3.11-2.24.5-3.81,2.72-3.67,4.81.32,9.14,2.91,13,5.61A93.39,93.39,0,0,1,141,73,151.87,151.87,0,0,1,151.36,97.7c.88,2.63,3.87,8,2,10.55A3.08,3.08,0,0,1,147.87,106.91Z"/><path class="cls-6" d="M151.94,110.32a3.89,3.89,0,0,1-1.89,0,4.06,4.06,0,0,1-3.1-3.27v0C142.64,78.27,125,52.9,102,42.41c-.53-.24-1.21-.47-1.92-.72A15.09,15.09,0,0,1,96.28,40c-1.72-1.23-1.76-2.39-1.49-3.14.61-1.69,3.23-2.33,4.81-2.22,5.05.33,9.47,3,13.49,5.77a94.12,94.12,0,0,1,28.77,32.19,150.79,150.79,0,0,1,10.39,24.83c.17.52.46,1.21.76,1.93,1.22,3,2.89,7,1.13,9.45A3.88,3.88,0,0,1,151.94,110.32Zm-3.14-3.56a2.16,2.16,0,0,0,1.68,1.75,2,2,0,0,0,2.14-.81c1.15-1.61-.35-5.24-1.35-7.65-.31-.75-.6-1.46-.8-2a149.11,149.11,0,0,0-10.26-24.52A92.15,92.15,0,0,0,112,41.93c-3.8-2.65-8-5.13-12.55-5.44-1.24-.08-2.74.5-2.91,1,0,.12.13.49.81,1a14.15,14.15,0,0,0,3.35,1.46c.76.26,1.47.51,2.08.78,12.14,5.54,22.9,15,31.11,27.3A95.9,95.9,0,0,1,148.8,106.76Z"/><path class="cls-3" d="M135.77,31.84c5.13,1.35,8.79,5.66,12.26,9.41a78.32,78.32,0,0,1,10,13.59c6.11,10.49,10.27,22.92,13.07,34.69.57,2.39,3.15,13.81-3.33,10.63-1.72-.85-1.68-2.32-1.85-3.9a60.84,60.84,0,0,0-1.32-7.57,113.38,113.38,0,0,0-13.74-32.25,106.54,106.54,0,0,0-11.74-16.17c-1.63-1.82-4.81-5-6.73-6.63C131.18,32.56,133.19,31.17,135.77,31.84Z"/><path class="cls-6" d="M170.52,101.56a4.59,4.59,0,0,1-3.15-.56c-2-1-2.18-2.69-2.33-4.19l0-.45a57.76,57.76,0,0,0-1.29-7.45,112.66,112.66,0,0,0-13.63-32,105.39,105.39,0,0,0-11.63-16c-1.59-1.77-4.76-4.89-6.66-6.56a1.74,1.74,0,0,1-.48-2.18C132,30.93,134,30.4,136,30.93h0c5,1.32,8.71,5.34,12,8.88l.74.81a78.54,78.54,0,0,1,10.14,13.75c5.45,9.35,9.88,21.11,13.17,34.95,1.51,6.32,1.35,10.27-.48,11.73A2.88,2.88,0,0,1,170.52,101.56ZM133,33c2,1.74,5.14,4.86,6.79,6.69A107.72,107.72,0,0,1,151.67,56a114.45,114.45,0,0,1,13.85,32.52,61.56,61.56,0,0,1,1.34,7.69l0,.47c.14,1.46.25,2.18,1.28,2.68.71.35,1.67.68,2.18.27.84-.67,1.3-3.64-.17-9.83-3.25-13.66-7.61-25.24-13-34.43a76.71,76.71,0,0,0-9.89-13.43l-.75-.81c-3.23-3.52-6.56-7.15-11.05-8.33A3.17,3.17,0,0,0,133,33Z"/><path class="cls-3" d="M170.82,53.05c6.83,4.56,10.62,13,12.86,20.59.9,3,4.87,17.33-1.1,15.44-2.88-.91-3.26-7.82-3.94-10.28-.49-1.75-1-3.49-1.53-5.22a94.94,94.94,0,0,0-4.59-12.21c-.92-2-3-4.38-3.54-6.43C168.72,53.92,169.21,52,170.82,53.05Z"/><path class="cls-6" d="M184.31,90.1a3.66,3.66,0,0,1-2-.12c-2.75-.87-3.55-5.4-4.12-8.7-.16-.91-.3-1.7-.45-2.23-.52-1.89-1-3.59-1.51-5.19a93.22,93.22,0,0,0-4.55-12.09,21.19,21.19,0,0,0-1.43-2.4,15.17,15.17,0,0,1-2.17-4.2,3,3,0,0,1,.88-3.05,2,2,0,0,1,2.39.15h0c5.81,3.88,10.27,11,13.24,21.11,1.77,6,3.36,13.66.92,16.05A2.61,2.61,0,0,1,184.31,90.1ZM170,53.68a1.57,1.57,0,0,0-.12,1,14,14,0,0,0,1.93,3.63A25.14,25.14,0,0,1,173.37,61,96,96,0,0,1,178,73.3c.5,1.62,1,3.34,1.53,5.25.17.62.32,1.45.48,2.41.44,2.5,1.18,6.7,2.85,7.23.92.29,1.21,0,1.32-.1,1.28-1.26.72-7-1.41-14.19-2.84-9.69-7-16.44-12.48-20.07A1,1,0,0,0,170,53.68Z"/><path class="cls-3" d="M145.62,35.7c4.61.41,8.52,4.56,11.36,7.86a73.3,73.3,0,0,1,8.52,12.35c5.51,10,8.9,21.73,11,32.86.5,2.6,1.08,4.46,1.52,7.08.28,1.72.86,5.34-1.06,6.53-3.77,2.33-5-9.42-5.55-11.48-2.65-10.65-5.49-21.3-10.36-31.19-2.63-5.3-6-9.9-9.51-14.67a36.71,36.71,0,0,0-5.45-6.1C145.85,38.71,142.34,35.41,145.62,35.7Z"/><path class="cls-6" d="M176.63,103.54a2.33,2.33,0,0,1-1.57-.13c-2.37-1.06-3.4-5.88-4.25-10.72-.12-.68-.22-1.27-.29-1.56-2.69-10.78-5.49-21.27-10.29-31a95.36,95.36,0,0,0-8.88-13.79l-.55-.75a35.89,35.89,0,0,0-5.31-6c-.64-.56-2.69-2.51-2.08-3.94.31-.73,1.08-1.05,2.29-.94h0c4.7.42,8.54,4.18,12,8.19a74.13,74.13,0,0,1,8.63,12.51c4.88,8.86,8.62,20,11.12,33.13.22,1.15.46,2.16.69,3.15.29,1.22.58,2.48.83,4,.3,1.78,1,6-1.49,7.49A3.12,3.12,0,0,1,176.63,103.54ZM145.32,36.62a8.9,8.9,0,0,0,1.41,1.61,38,38,0,0,1,5.59,6.26l.54.75a96.11,96.11,0,0,1,9,14.06c4.88,9.9,7.72,20.49,10.42,31.37.09.36.2,1,.33,1.7.41,2.35,1.51,8.59,3.16,9.33.09,0,.27.12.66-.12,1.42-.88.85-4.29.63-5.57s-.51-2.6-.8-3.85c-.24-1-.48-2-.71-3.22-2.46-12.93-6.14-23.89-10.92-32.58a73.5,73.5,0,0,0-8.41-12.19c-3-3.53-6.68-7.18-10.73-7.54Z"/><path class="cls-3" d="M159.32,42.42c4.64,2.15,6.58,5,8.8,9.49A147.58,147.58,0,0,1,175,67.65c1.92,5.34,3.54,10.85,5.2,16.28.58,1.9,4,12.41-2,9.85-2.39-1-2.24-7.21-2.72-9.29a140.07,140.07,0,0,0-4.67-16.76,101.05,101.05,0,0,0-7.36-15.65,35.06,35.06,0,0,0-4.54-6.78C156.34,42.58,157.54,42,159.32,42.42Z"/><path class="cls-6" d="M180.56,95a4.19,4.19,0,0,1-2.7-.38c-2.3-1-2.69-4.78-3-7.83a19.59,19.59,0,0,0-.27-2.12A137.4,137.4,0,0,0,170,68.05a101.42,101.42,0,0,0-7.29-15.5l-.56-1a28.73,28.73,0,0,0-3.85-5.65c-1.07-1.12-2.22-2.57-1.57-3.74.3-.53,1-1.08,2.84-.69l.19.06c4.71,2.18,6.81,5,9.25,9.92a147,147,0,0,1,6.92,15.84c1.66,4.61,3.11,9.39,4.52,14l.76,2.53c1.81,5.87,1.94,9.24.41,10.62A2.31,2.31,0,0,1,180.56,95ZM158.5,43.25a7,7,0,0,0,1.11,1.4,30.38,30.38,0,0,1,4.12,6l.55,1a103.84,103.84,0,0,1,7.43,15.79,139.06,139.06,0,0,1,4.7,16.88,21.35,21.35,0,0,1,.32,2.35c.22,2.15.58,5.75,1.86,6.29.49.21,1.36.51,1.73.18s1.19-1.76-.95-8.68l-.77-2.53c-1.39-4.6-2.84-9.36-4.48-13.92a144.61,144.61,0,0,0-6.84-15.64c-2.27-4.54-4.1-7.06-8.26-9A5.09,5.09,0,0,0,158.5,43.25Z"/><path class="cls-3" d="M68.64,105c3.72,2.45,6.7,6,10.12,8.88a57.81,57.81,0,0,0,11.67,7.58c8.18,4,17.21,5.94,26.17,7.13,19.48,2.59,39.32.75,56.94-8.52a56.81,56.81,0,0,0,5.51-3.29c1.14-.78,2.75-2.52,4.16-2.85,2.22-.53,4.48.18,3.5,2.61-1.28,3.17-4.91,5.24-7.66,6.95A72.64,72.64,0,0,1,165.4,130c-17.94,6.47-37.2,6.53-55.79,3.05-9.85-1.85-19.7-5-28-10.8a64.3,64.3,0,0,1-9.93-8.72,48.9,48.9,0,0,1-4.63-5.23c-.29-.41-1-1.15-1-1.77A1.67,1.67,0,0,1,68.64,105Z"/><path class="cls-6" d="M157.85,133c-14.54,3.74-30.77,4-48.36.68-11.58-2.17-20.81-5.73-28.22-10.9a64.3,64.3,0,0,1-10-8.8c-.32-.34-.65-.69-1-1a35.86,35.86,0,0,1-3.7-4.27l-.2-.27a3.26,3.26,0,0,1-.89-1.86,2.47,2.47,0,0,1,1.26-2.15,2.17,2.17,0,0,1,2.27.12h0a45.24,45.24,0,0,1,6.37,5.43c1.23,1.18,2.5,2.4,3.8,3.49a57.3,57.3,0,0,0,11.54,7.49c7.06,3.42,15.31,5.67,26,7.08,21.46,2.85,40.49,0,56.56-8.46a54.77,54.77,0,0,0,5.46-3.24c.33-.23.72-.56,1.13-.9a9,9,0,0,1,3.19-2h0c1.71-.41,3.24-.12,4,.75a2.5,2.5,0,0,1,.22,2.71c-1.27,3.15-4.64,5.22-7.35,6.89l-.56.35a73.69,73.69,0,0,1-13.76,6.55Q161.82,131.94,157.85,133ZM67.53,105.37l-.21.09a1.2,1.2,0,0,0-.61,1.06,2.84,2.84,0,0,0,.63,1.08l.24.33A33.69,33.69,0,0,0,71.15,112l1,1A63.38,63.38,0,0,0,82,121.72c7.26,5.06,16.34,8.56,27.74,10.69,20.56,3.86,39.22,2.84,55.47-3A71.84,71.84,0,0,0,178.72,123l.56-.35c2.56-1.58,5.73-3.53,6.85-6.3a1.37,1.37,0,0,0,0-1.43,3.07,3.07,0,0,0-2.76-.35h0a8.6,8.6,0,0,0-2.7,1.78,15,15,0,0,1-1.22,1,56.38,56.38,0,0,1-5.58,3.32c-16.31,8.58-35.59,11.47-57.31,8.59-10.81-1.43-19.18-3.72-26.36-7.19a58.45,58.45,0,0,1-11.8-7.66c-1.34-1.12-2.62-2.35-3.86-3.55a44.87,44.87,0,0,0-6.2-5.28A.94.94,0,0,0,67.53,105.37Z"/><path class="cls-3" d="M67.22,96.9c6.33,6.65,12.1,12.81,20.27,17.28a78.61,78.61,0,0,0,25.8,8.46c19.51,3,40.17.65,57.66-8.82a96.2,96.2,0,0,0,11.2-7.54c1-.77,2.64-2.21,4-2.27,2.34-.1,2.61,1.77,1.73,3.55-1.58,3.23-5.25,5.56-8.09,7.55a71.56,71.56,0,0,1-13.25,7.32c-17.68,7.51-38.17,8.71-56.94,5.13A77,77,0,0,1,81.33,116.4,58.35,58.35,0,0,1,69.43,106,27.45,27.45,0,0,1,65,99.82c-.4-.9-1.05-1.83-.35-2.79A1.68,1.68,0,0,1,67.22,96.9Z"/><path class="cls-6" d="M154.68,127.09a104.21,104.21,0,0,1-45.19,1.09A77.19,77.19,0,0,1,81,116.92a58.94,58.94,0,0,1-12-10.55l-.22-.26a26.32,26.32,0,0,1-4.28-6l-.18-.38a2.71,2.71,0,0,1-.1-3,2.23,2.23,0,0,1,1.62-.9,2.41,2.41,0,0,1,1.86.69l.45.47c6.06,6.37,11.78,12.39,19.68,16.71a78.24,78.24,0,0,0,25.6,8.4c20.58,3.19,40.92.08,57.26-8.76a85.27,85.27,0,0,0,10.26-6.86l.87-.63.56-.43c1.09-.85,2.46-1.91,3.8-2a2.57,2.57,0,0,1,2.46,1,3.47,3.47,0,0,1-.15,3.42c-1.51,3.07-4.68,5.27-7.48,7.22l-.81.56A71.74,71.74,0,0,1,166.8,123,85,85,0,0,1,154.68,127.09Zm-89-30a.93.93,0,0,0-.53.37c-.34.46-.2.88.22,1.74.06.14.13.28.19.41a25.59,25.59,0,0,0,4.08,5.73l.23.26a57.37,57.37,0,0,0,11.77,10.33A75.81,75.81,0,0,0,109.73,127c19.84,3.78,39.94,2,56.58-5.1a71.74,71.74,0,0,0,13.14-7.25l.81-.57c2.68-1.86,5.71-4,7.07-6.74a2.4,2.4,0,0,0,.22-2.19,1.44,1.44,0,0,0-1.36-.47c-.94,0-2.18,1-3.08,1.7l-.59.45-.86.64a87.69,87.69,0,0,1-10.41,7c-16.59,9-37.2,12.13-58,8.89a79.32,79.32,0,0,1-26-8.53c-8.07-4.42-13.86-10.5-20-16.94l-.42-.45A1.1,1.1,0,0,0,65.9,97,.57.57,0,0,0,65.72,97Z"/><path class="cls-3" d="M67.47,90.42c6.09,7.09,11.91,13.35,20.18,18a77,77,0,0,0,26.24,8.7c20.07,3.06,40.84,0,58.31-10.67A84.4,84.4,0,0,0,182.44,99c1.47-1.23,7.73-5.9,7-.56-.47,3.67-6.14,7.25-8.86,9.29a76,76,0,0,1-13.14,7.94c-17.72,8.41-38.15,10-57.3,6.4a74.5,74.5,0,0,1-29.76-12.2A55.92,55.92,0,0,1,68.75,98.79a23.46,23.46,0,0,1-3.67-5.69C64.47,91.52,65.35,88.09,67.47,90.42Z"/><path class="cls-6" d="M153,121.54a99.85,99.85,0,0,1-42.92,1.14,75.61,75.61,0,0,1-30-12.31,57,57,0,0,1-11.79-11.2L68,98.89a22.6,22.6,0,0,1-3.53-5.57c-.45-1.15-.26-3.38.89-4.1.44-.26,1.36-.53,2.54.78h0c5.8,6.74,11.68,13.19,20,17.88a76.2,76.2,0,0,0,26,8.63c20.89,3.18,41.44-.57,57.88-10.58A83.59,83.59,0,0,0,182,98.51c.83-.69,5.08-4.09,7.12-3,.82.45,1.13,1.45.93,3-.44,3.44-4.91,6.67-7.86,8.8l-1.24.91a76.92,76.92,0,0,1-13.25,8A83.09,83.09,0,0,1,153,121.54ZM66.1,90.27l0,0a2.78,2.78,0,0,0-.39,2.58A21.44,21.44,0,0,0,69,98.12l.22.29a55.49,55.49,0,0,0,11.53,10.94,74.25,74.25,0,0,0,29.51,12.1c20.17,3.75,40.39,1.49,56.92-6.35a76.71,76.71,0,0,0,13-7.87c.37-.29.8-.6,1.26-.93,2.78-2,7-5,7.36-8,.12-.92,0-1.55-.3-1.72-.86-.47-3.64,1.11-5.72,2.84A85.3,85.3,0,0,1,172.52,107c-16.69,10.16-37.54,14-58.72,10.75A77.44,77.44,0,0,1,87.34,109C78.84,104.19,72.87,97.66,67,90.83,66.71,90.51,66.33,90.21,66.1,90.27Z"/><path class="cls-3" d="M67.74,82.15c5.79,8,11.57,14.9,20.12,20.1a71.93,71.93,0,0,0,27,9.38c20.11,3,40.79-.65,57.85-12a108.94,108.94,0,0,0,9.87-7.79c1.47-1.23,6.46-5,6.34-.33-.09,3.12-4.67,6.4-6.79,8.21a74.19,74.19,0,0,1-14,9.36c-18,9.29-39.38,11.22-59.07,7.06a70.12,70.12,0,0,1-29.6-13.56A54.3,54.3,0,0,1,68.42,90.67c-1.22-1.82-3.61-4.85-3.63-7.14C64.78,81.89,66.49,80.52,67.74,82.15Z"/><path class="cls-6" d="M151.41,116.12a93.4,93.4,0,0,1-42.45.65,71.05,71.05,0,0,1-29.87-13.68A54.81,54.81,0,0,1,67.9,91l-.6-.87c-1.31-1.88-3.11-4.46-3.13-6.61a2.75,2.75,0,0,1,1.69-2.63,2.07,2.07,0,0,1,2.38.87h0c6.06,8.38,11.77,15,19.93,19.93A71,71,0,0,0,115,111c20.88,3.06,41.27-1.16,57.41-11.88a90.53,90.53,0,0,0,8.52-6.65l1.3-1.1c1.57-1.32,4.45-3.4,6.18-2.57.82.39,1.22,1.31,1.18,2.73-.08,3-3.68,5.94-6.06,7.89l-1,.78a73.86,73.86,0,0,1-14.1,9.44A80.53,80.53,0,0,1,151.41,116.12ZM66.32,82.06l0,0a1.51,1.51,0,0,0-.85,1.44c0,1.76,1.68,4.16,2.91,5.91l.61.89a53.22,53.22,0,0,0,10.94,11.79,69.79,69.79,0,0,0,29.33,13.44c20.64,4.36,41.47,1.87,58.66-7a73.08,73.08,0,0,0,13.86-9.28l1-.8c2.2-1.8,5.54-4.53,5.6-6.95,0-.5,0-1.37-.47-1.58-.74-.35-2.73.64-4.84,2.41l-1.29,1.1a95.7,95.7,0,0,1-8.64,6.74c-16.4,10.89-37.09,15.17-58.28,12.07a72.24,72.24,0,0,1-27.25-9.47C79.19,97.71,73.39,91,67.24,82.52,66.94,82.14,66.63,82,66.32,82.06Z"/><path class="cls-3" d="M69.21,76.53c3.21,3.83,5.83,8,9.37,11.58a57.65,57.65,0,0,0,11.56,9.06C98.86,102.35,108.91,105,119,106c14.56,1.43,29.18-.63,42.41-7.07a76.6,76.6,0,0,0,13.3-8.32c3.3-2.57,6.28-6.61,10-8.51,2.73-1.39,3.85.78,2.87,3.12-1.8,4.31-6.76,7.9-10.33,10.67-17.1,13.3-38.94,17.93-60.22,15.43-11.28-1.33-22.41-4.78-31.85-11.22A56.65,56.65,0,0,1,72.62,88.46a49.74,49.74,0,0,1-5-7.43c-.48-.91-1.66-2.66-1.35-3.75A1.69,1.69,0,0,1,69.21,76.53Z"/><path class="cls-6" d="M149.77,109.93a89.85,89.85,0,0,1-32.85,2c-12.45-1.47-23.26-5.28-32.12-11.32a57,57,0,0,1-12.67-11.8,49.19,49.19,0,0,1-5-7.52l-.28-.51c-.61-1.07-1.45-2.54-1.12-3.7a2.44,2.44,0,0,1,1.83-1.72,2.16,2.16,0,0,1,2.14.73h0c1.25,1.49,2.43,3.05,3.57,4.56a67.49,67.49,0,0,0,5.76,7,57.07,57.07,0,0,0,11.44,9c8,4.73,17.57,7.68,28.55,8.76,15.06,1.49,29.61-.93,42.07-7a75.4,75.4,0,0,0,13.2-8.26A42.72,42.72,0,0,0,178,86.78a27.55,27.55,0,0,1,6.44-5.22c1.86-.94,2.9-.36,3.37.07a3.45,3.45,0,0,1,.37,3.85C186.4,89.62,182,93,178.44,95.77l-.83.64A76.23,76.23,0,0,1,149.77,109.93Zm-82-33.31a1.21,1.21,0,0,0-.85.83c-.19.65.56,2,1,2.74l.31.55a47.89,47.89,0,0,0,4.88,7.33A55.37,55.37,0,0,0,85.51,99.6c8.69,5.94,19.31,9.67,31.56,11.12,22.46,2.64,43.69-2.79,59.77-15.3l.83-.64c3.43-2.65,7.7-6,9.31-9.78a2.34,2.34,0,0,0-.08-2.46c-.38-.35-1.07-.3-1.94.14a26.82,26.82,0,0,0-6.14,5A45,45,0,0,1,175,91.12a76.6,76.6,0,0,1-13.41,8.39c-12.67,6.17-27.45,8.64-42.74,7.13-11.17-1.1-20.94-4.11-29.07-8.94a58.52,58.52,0,0,1-11.69-9.15,70.69,70.69,0,0,1-5.87-7.11c-1.13-1.49-2.3-3-3.53-4.51h0a.89.89,0,0,0-.92-.32Z"/></svg>