<svg id="Layer_54" data-name="Layer 54" xmlns="http://www.w3.org/2000/svg" xmlns:xlink="http://www.w3.org/1999/xlink" viewBox="0 0 512 256"><defs><style>.cls-1{opacity:0.5;}.cls-2,.cls-22{fill:#fff;}.cls-3{fill:#050505;}.cls-4{fill:#0a151e;}.cls-14,.cls-5{fill:#171b1b;}.cls-11,.cls-12,.cls-13,.cls-14,.cls-16,.cls-17,.cls-18,.cls-19,.cls-20,.cls-21,.cls-22,.cls-25,.cls-27,.cls-28,.cls-37,.cls-41,.cls-43,.cls-44,.cls-5,.cls-8,.cls-9{stroke-miterlimit:10;}.cls-5{stroke:url(#linear-gradient);}.cls-6{fill:#323333;}.cls-7{fill:url(#linear-gradient-2);}.cls-8{fill:#483f95;}.cls-27,.cls-28,.cls-8{stroke:#231f20;}.cls-25,.cls-8{stroke-width:2px;}.cls-17,.cls-19,.cls-20,.cls-25,.cls-27,.cls-28,.cls-9{fill:none;}.cls-9{stroke:#443165;stroke-width:15px;opacity:0.84;}.cls-10{fill:#281b4a;}.cls-11,.cls-12,.cls-16,.cls-18{fill:#d6dcdd;}.cls-11{stroke:#3a3739;}.cls-12{stroke:#3f3d3d;}.cls-13{fill:#adc2c4;stroke-width:0.92px;}.cls-13,.cls-16,.cls-18,.cls-19,.cls-20,.cls-21,.cls-22,.cls-25{stroke:#12133c;}.cls-14{stroke-width:0.94px;stroke:url(#linear-gradient-3);}.cls-15{fill:url(#linear-gradient-4);}.cls-16{stroke-width:0.85px;}.cls-17{stroke:#0e103c;}.cls-19{stroke-width:0.99px;}.cls-21{fill:#bbbdbf;stroke-width:1.25px;}.cls-23{fill:#f9ec28;}.cls-24{fill:#154977;}.cls-25{opacity:0.39;}.cls-26{opacity:0.88;}.cls-27{stroke-width:7.18px;}.cls-28{stroke-width:7px;}.cls-29{fill:url(#linear-gradient-5);}.cls-30{fill:url(#linear-gradient-6);}.cls-31{fill:url(#linear-gradient-7);}.cls-32{fill:url(#linear-gradient-8);}.cls-33{fill:url(#linear-gradient-9);}.cls-34{fill:url(#linear-gradient-10);}.cls-35{fill:url(#linear-gradient-11);}.cls-36{fill:url(#linear-gradient-12);}.cls-37{fill:#353433;stroke:#373a39;}.cls-38,.cls-40,.cls-45,.cls-46,.cls-47,.cls-48,.cls-49{opacity:0.38;}.cls-39{opacity:0.64;fill:url(#linear-gradient-13);}.cls-40{fill:url(#linear-gradient-14);}.cls-41{stroke:#3456a5;stroke-width:0.84px;fill:url(#linear-gradient-15);}.cls-42{fill:#d6dcde;}.cls-43{stroke:#35449b;stroke-width:0.99px;fill:url(#linear-gradient-16);}.cls-44{stroke:#364fa1;stroke-width:0.98px;fill:url(#linear-gradient-17);}.cls-45{fill:url(#linear-gradient-18);}.cls-46{fill:url(#linear-gradient-19);}.cls-47{fill:url(#linear-gradient-20);}.cls-48{fill:url(#linear-gradient-21);}.cls-49{fill:url(#linear-gradient-22);}.cls-50{fill:#7270b3;}</style><linearGradient id="linear-gradient" x1="328.82" y1="188.29" x2="393.73" y2="188.29" gradientUnits="userSpaceOnUse"><stop offset="0.23" stop-color="#404041"/><stop offset="0.28" stop-color="#3e3f47"/><stop offset="0.59" stop-color="#343b6e"/><stop offset="0.84" stop-color="#2d3986"/><stop offset="1" stop-color="#2b388f"/></linearGradient><linearGradient id="linear-gradient-2" x1="360.78" y1="177.98" x2="363.21" y2="238.43" gradientUnits="userSpaceOnUse"><stop offset="0.14" stop-color="#fff"/><stop offset="0.43" stop-color="#b4b8d7"/><stop offset="0.82" stop-color="#525da4"/><stop offset="1" stop-color="#2b388f"/></linearGradient><linearGradient id="linear-gradient-3" x1="113.84" y1="184.25" x2="174.24" y2="184.25" xlink:href="#linear-gradient"/><linearGradient id="linear-gradient-4" x1="141.63" y1="173.23" x2="152.02" y2="238.16" gradientUnits="userSpaceOnUse"><stop offset="0.13" stop-color="#fff"/><stop offset="0.18" stop-color="#eeeff6"/><stop offset="0.4" stop-color="#a9afd2"/><stop offset="0.61" stop-color="#737cb5"/><stop offset="0.78" stop-color="#4c57a0"/><stop offset="0.92" stop-color="#344094"/><stop offset="1" stop-color="#2b388f"/></linearGradient><linearGradient id="linear-gradient-5" x1="136.75" y1="188.09" x2="137.82" y2="192.76" gradientUnits="userSpaceOnUse"><stop offset="0" stop-color="#33489d"/><stop offset="0" stop-color="#151717"/><stop offset="0.35" stop-color="#0d0f0f"/><stop offset="1" stop-color="#0b0d0d"/></linearGradient><linearGradient id="linear-gradient-6" x1="138.29" y1="178.08" x2="139.36" y2="182.75" xlink:href="#linear-gradient-5"/><linearGradient id="linear-gradient-7" x1="149.84" y1="179.62" x2="150.91" y2="184.29" xlink:href="#linear-gradient-5"/><linearGradient id="linear-gradient-8" x1="148.3" y1="190.79" x2="149.37" y2="195.45" xlink:href="#linear-gradient-5"/><linearGradient id="linear-gradient-9" x1="354.22" y1="192.22" x2="355.44" y2="197.54" xlink:href="#linear-gradient-5"/><linearGradient id="linear-gradient-10" x1="356.92" y1="180.71" x2="358.13" y2="186.03" xlink:href="#linear-gradient-5"/><linearGradient id="linear-gradient-11" x1="368.09" y1="184.02" x2="369.3" y2="189.34" xlink:href="#linear-gradient-5"/><linearGradient id="linear-gradient-12" x1="367.7" y1="195.32" x2="368.91" y2="200.64" xlink:href="#linear-gradient-5"/><linearGradient id="linear-gradient-13" x1="351.4" y1="251.67" x2="363.58" y2="305.06" gradientTransform="translate(-156.54 -265.05) rotate(12.37)" gradientUnits="userSpaceOnUse"><stop offset="1" stop-color="#32c3eb"/><stop offset="1" stop-color="#2b388f"/></linearGradient><linearGradient id="linear-gradient-14" x1="153.4" y1="56.47" x2="166.5" y2="113.92" gradientTransform="matrix(1, 0, 0, 1, 0, 0)" xlink:href="#linear-gradient-13"/><linearGradient id="linear-gradient-15" x1="205.92" y1="80.29" x2="361.08" y2="80.29" gradientUnits="userSpaceOnUse"><stop offset="0.15" stop-color="#f8d139"/><stop offset="0.2" stop-color="#f9cc3a"/><stop offset="0.38" stop-color="#f9ca3b"/><stop offset="0.91" stop-color="#f9ca3b"/><stop offset="1" stop-color="#f9ca3b"/><stop offset="1" stop-color="#faaf40"/></linearGradient><linearGradient id="linear-gradient-16" x1="243.48" y1="46.06" x2="244.12" y2="124.03" gradientTransform="matrix(1, 0, 0, 1, 0, 0)" xlink:href="#linear-gradient-13"/><linearGradient id="linear-gradient-17" x1="313.46" y1="46.54" x2="314.1" y2="123.82" gradientTransform="matrix(1, 0, 0, 1, 0, 0)" xlink:href="#linear-gradient-13"/><linearGradient id="linear-gradient-18" x1="213" y1="80.1" x2="243.74" y2="80.1" gradientTransform="matrix(1, 0, 0, 1, 0, 0)" xlink:href="#linear-gradient-13"/><linearGradient id="linear-gradient-19" x1="290.46" y1="51.34" x2="291.03" y2="119.82" gradientTransform="matrix(1, 0, 0, 1, 0, 0)" xlink:href="#linear-gradient-13"/><linearGradient id="linear-gradient-20" x1="345.38" y1="51.83" x2="345.95" y2="120.48" gradientTransform="matrix(1, 0, 0, 1, 0, 0)" xlink:href="#linear-gradient-13"/><linearGradient id="linear-gradient-21" x1="582.54" y1="79.21" x2="620.93" y2="79.21" gradientTransform="matrix(1.2, 0.17, -0.16, 1.15, -438.7, -110.37)" xlink:href="#linear-gradient-13"/><linearGradient id="linear-gradient-22" x1="577.86" y1="160.34" x2="601.65" y2="160.34" gradientTransform="matrix(1.12, 0.14, -0.14, 1.06, -305.24, -174.17)" xlink:href="#linear-gradient-13"/></defs><path class="cls-1" d="M367.27,232.55c-12.39,0-22.74-5.41-30.75-16.08a6.86,6.86,0,0,1-.64-1,25.06,25.06,0,0,1-3.14-5.54c-.34-.75-.66-1.47-1-2.07a37.62,37.62,0,0,1-7.53-15.91l-1.1,0c-11.6-.21-23.42-.37-34.84-.53L272,191.16l-14-.2c-13.45-.18-27.36-.37-41-.68-3.5-.08-7.08-.09-10.55-.11-5.67,0-11.51,0-17.36-.35a35.53,35.53,0,0,1-6.41,12.07l-.72,1.45a36.22,36.22,0,0,1-33.74,23.44,36,36,0,0,1-32.16-20c-.21-.43-.35-.81-.46-1.1a31.78,31.78,0,0,1-3.38-12.17,14.69,14.69,0,0,1-5,.83,19.25,19.25,0,0,1-2-.1c-3.32-.35-6.69-.42-10.27-.49-2.16,0-4.4-.09-6.65-.21l-.9,0A29.52,29.52,0,0,1,78.19,192l-1.49-.54a8.74,8.74,0,0,1-3.38-1.38,8.18,8.18,0,0,1-1.52-.81h-1l-.56-1.17a7.66,7.66,0,0,1-2.58-3.25,8.28,8.28,0,0,1-2.09-4.09,8.17,8.17,0,0,1-.86-3l-.08-.39,0-.14a8,8,0,0,1,.07-5.71,7.3,7.3,0,0,1,1.84-4.32,7.7,7.7,0,0,1,3.16-4l.31-.31a8.38,8.38,0,0,1,3.09-3c0-1.34,0-2.71,0-4.1,0-.13,0-.28,0-.45l-.1-.14a6.76,6.76,0,0,1-1.11-3.13l-.55-1.27a9.32,9.32,0,0,1-1-3.7,11,11,0,0,1-.31-3.92v-2.64a10.8,10.8,0,0,1,.34-4,7.37,7.37,0,0,1,1.21-4c.08-.27.17-.52.26-.77a6.55,6.55,0,0,1,1-3.11A6.38,6.38,0,0,1,74.43,127a8,8,0,0,1,.6-.64l.23-.35.71-.59a7.58,7.58,0,0,1,4.66-1.8c2.08-4.71,4.36-9.34,6.81-13.83.29-.53.58-1,.85-1.4a5.78,5.78,0,0,1,.51-1c1.39-2.61,2.92-5.1,4.49-7.52a7.85,7.85,0,0,1-2.53-2.22l-.26-.27-.9-1.12a7.89,7.89,0,0,1-2-3.85,12.58,12.58,0,0,1-.8-3.75,15.55,15.55,0,0,1,0-4,10.91,10.91,0,0,1,1.31-4.93,9.87,9.87,0,0,1,4.83-5.29,8.65,8.65,0,0,1,4.47-1.24,10.14,10.14,0,0,1,3.72.74l.23.09a8.49,8.49,0,0,1,3.83,2.84l.26.26,1,1.19a10.4,10.4,0,0,1,.86,1.15c2.29-3.25,4.63-6.43,6.93-9.56l1.4-1.9c2.48-3.38,5-6.75,7.52-10,1.8-2.37,3.6-4.73,5.38-7.12a10.69,10.69,0,0,1,6.11-4,563,563,0,0,1,59.18-12.22c16.53-2.46,33.61-4.22,50.77-5.21,9.9-.58,20.11-.87,30.33-.87,6.5,0,13.16.12,19.8.35a540.21,540.21,0,0,1,84.24,9.59c13.74,2.68,27.43,5.85,40.69,9.41,4.22,1.13,6,3.86,6.4,6.65a6.92,6.92,0,0,1,.41,1.48c1.1,2.87,2.23,5.72,3.37,8.58,4,10.19,8.2,20.73,11,31.76a48.75,48.75,0,0,1,1.11,12c0,1.17,0,2.34.06,3.51.4,11.49.73,23.17,1.06,34.47q.29,10.24.6,20.5c0,.77,0,1.48-.06,2,0,.06,0,.12,0,.18l2.29,2.34.36.58a10.69,10.69,0,0,0,1.35,1.51c.35.37.73.75,1.12,1.18a7.22,7.22,0,0,1,2.71,2.69,7.31,7.31,0,0,1,1,3.64,8.13,8.13,0,0,1,.21,1,9,9,0,0,1,0,5.23,8.49,8.49,0,0,1-.7,2.65,7.83,7.83,0,0,1-1.15,2.82,6.56,6.56,0,0,1-1.09,2.06,7.2,7.2,0,0,1-5.36,2.67c-6.37.5-13.88,1.1-21.3,1.76-.3,0-.58,0-.83,0a7.27,7.27,0,0,1-6.38-3.6l-1-1.56c-1-1.54-2-3.12-2.88-4.79h-2.54c-.87,0-1.57,0-2.23-.06-.34,0-.62,0-.9,0h-.13a38.14,38.14,0,0,1-2.22,18.7,25.77,25.77,0,0,1-4.3,7.87,36,36,0,0,1-23.75,15.87A46.66,46.66,0,0,1,367.27,232.55Z"/><path class="cls-2" d="M362.27,227.55c-12.39,0-22.74-5.41-30.75-16.08a6.86,6.86,0,0,1-.64-1,25.06,25.06,0,0,1-3.14-5.54c-.34-.75-.66-1.47-1-2.07a37.62,37.62,0,0,1-7.53-15.91l-1.1,0c-11.6-.21-23.42-.37-34.84-.53L267,186.16l-14-.2c-13.45-.18-27.36-.37-41-.68-3.5-.08-7.08-.09-10.55-.11-5.67,0-11.51,0-17.36-.35a35.53,35.53,0,0,1-6.41,12.07l-.72,1.45a36.22,36.22,0,0,1-33.74,23.44,36,36,0,0,1-32.16-20c-.21-.43-.35-.81-.46-1.1a31.78,31.78,0,0,1-3.38-12.17,14.69,14.69,0,0,1-5,.83,19.25,19.25,0,0,1-2-.1c-3.32-.35-6.69-.42-10.27-.49-2.16,0-4.4-.09-6.65-.21l-.9,0A29.52,29.52,0,0,1,73.19,187l-1.49-.54a8.74,8.74,0,0,1-3.38-1.38,8.18,8.18,0,0,1-1.52-.81h-1l-.56-1.17a7.66,7.66,0,0,1-2.58-3.25,8.28,8.28,0,0,1-2.09-4.09,8.17,8.17,0,0,1-.86-3l-.08-.39,0-.14a8,8,0,0,1,.07-5.71,7.3,7.3,0,0,1,1.84-4.32,7.7,7.7,0,0,1,3.16-4l.31-.31a8.38,8.38,0,0,1,3.09-3c0-1.34,0-2.71,0-4.1,0-.13,0-.28,0-.45l-.1-.14a6.76,6.76,0,0,1-1.11-3.13l-.55-1.27a9.32,9.32,0,0,1-1-3.7,11,11,0,0,1-.31-3.92v-2.64a10.8,10.8,0,0,1,.34-4,7.37,7.37,0,0,1,1.21-4c.08-.27.17-.52.26-.77a6.55,6.55,0,0,1,1-3.11A6.38,6.38,0,0,1,69.43,122a8,8,0,0,1,.6-.64l.23-.35.71-.59a7.58,7.58,0,0,1,4.66-1.8c2.08-4.71,4.36-9.34,6.81-13.83.29-.53.58-1,.85-1.4a5.78,5.78,0,0,1,.51-1c1.39-2.61,2.92-5.1,4.49-7.52a7.85,7.85,0,0,1-2.53-2.22l-.26-.27-.9-1.12a7.89,7.89,0,0,1-2-3.85,12.58,12.58,0,0,1-.8-3.75,15.55,15.55,0,0,1,0-4,10.91,10.91,0,0,1,1.31-4.93,9.87,9.87,0,0,1,4.83-5.29,8.65,8.65,0,0,1,4.47-1.24,10.14,10.14,0,0,1,3.72.74l.23.09a8.49,8.49,0,0,1,3.83,2.84l.26.26,1,1.19a10.4,10.4,0,0,1,.86,1.15c2.29-3.25,4.63-6.43,6.93-9.56l1.4-1.9c2.48-3.38,5-6.75,7.52-10,1.8-2.37,3.6-4.73,5.38-7.12a10.69,10.69,0,0,1,6.11-4,563,563,0,0,1,59.18-12.22c16.53-2.46,33.61-4.22,50.77-5.21,9.9-.58,20.11-.87,30.33-.87,6.5,0,13.16.12,19.8.35a540.21,540.21,0,0,1,84.24,9.59c13.74,2.68,27.43,5.85,40.69,9.41,4.22,1.13,6,3.86,6.4,6.65a6.92,6.92,0,0,1,.41,1.48c1.1,2.87,2.23,5.72,3.37,8.58,4,10.19,8.2,20.73,11,31.76a48.75,48.75,0,0,1,1.11,12c0,1.17,0,2.34.06,3.51.4,11.49.73,23.17,1.06,34.47q.29,10.24.6,20.5c0,.77,0,1.48-.06,2,0,.06,0,.12,0,.18l2.29,2.34.36.58a10.69,10.69,0,0,0,1.35,1.51c.35.37.73.75,1.12,1.18a7.22,7.22,0,0,1,2.71,2.69,7.31,7.31,0,0,1,1,3.64,8.13,8.13,0,0,1,.21,1,9,9,0,0,1,0,5.23,8.49,8.49,0,0,1-.7,2.65,7.83,7.83,0,0,1-1.15,2.82,6.56,6.56,0,0,1-1.09,2.06,7.2,7.2,0,0,1-5.36,2.67c-6.37.5-13.88,1.1-21.3,1.76-.3,0-.58,0-.83,0a7.27,7.27,0,0,1-6.38-3.6l-1-1.56c-1-1.54-2-3.12-2.88-4.79h-2.54c-.87,0-1.57,0-2.23-.06-.34,0-.62,0-.9,0h-.13a38.14,38.14,0,0,1-2.22,18.7,25.77,25.77,0,0,1-4.3,7.87,36,36,0,0,1-23.75,15.87A46.66,46.66,0,0,1,362.27,227.55Z"/><path class="cls-3" d="M390.92,177.51l18.48-1.15-6.16-13.86-22.33-6.93Q385.92,166.54,390.92,177.51Z"/><circle class="cls-4" cx="146.43" cy="171.74" r="33.88"/><circle class="cls-4" cx="357.04" cy="177.51" r="33.88"/><circle class="cls-5" cx="361.27" cy="188.29" r="31.96"/><circle class="cls-6" cx="361.66" cy="189.45" r="21.95"/><circle class="cls-7" cx="361.27" cy="190.22" r="15.4"/><path class="cls-8" d="M130.33,48.64C120.9,60.7,113.39,71,108,78.67c-17.83,25.24-21.62,33.81-23.49,38.5A115,115,0,0,0,77,147.92l-1.59-.54v20s4.8,2.14,14.42,2.4,18.69,1.34,18.69,1.34l2.4,2.93s-.53-12.81,14.42-21.36c12.55-6.94,39.25-13.08,51.53,25.37L321.31,180l8.46-13.89c1.86-2.55,10-13.09,24.64-15.78,20.43-3.75,35.06,11.13,36.19,12.32a38.79,38.79,0,0,1,5.78,9.24,38.08,38.08,0,0,1,1.92,5.39l11.13.32-1.34-4.81,22.16-1.87s-1.33-72.89-2.4-76.36a37.16,37.16,0,0,1-1.34-5.61c-9.2-25.79-13.19-36.64-13.58-37.19a1.54,1.54,0,0,1-.3-.73,1.87,1.87,0,0,1,.3-1.19,535.88,535.88,0,0,0-282.6-1.16Z"/><path class="cls-9" d="M103.31,121.3s2.94-11.93,49.43-11.43,275.08-1.25,275.08-1.25"/><path class="cls-10" d="M102.73,86.84c-2.3,3.79-9.46,16.57-4.55,27.67,3.22,7.29,10.1,12.12,26.31,16,37.54,9.05,57.94,12.07,57.94,12.07v35.22c-.31.06-.74.13-1.27.19-2.08.23-3.12.39-3.73.07s-.79-.91-1.54-3.08c-.34-1-.85-2.43-1.54-4.24a74.82,74.82,0,0,0-5.78-10,24.24,24.24,0,0,0-6-6.35,23.94,23.94,0,0,0-7.12-4.43c-4.76-1.66-18-4.58-30,3.47a33.73,33.73,0,0,0-12.9,17.13,43.63,43.63,0,0,0-4.81-1c-1.88-.27-3.29-.35-3.85-.39-4-.23-8-.57-11.94-.77-3.42-.16-8.3-.52-14.5-1.35a79.46,79.46,0,0,1-.13-29.45c2.09-11.14,6.13-19,10.4-27.33A147.46,147.46,0,0,1,102.73,86.84Z"/><path class="cls-11" d="M430.38,168.08v2.31l-17.84,1.35s-7-1.16-5.07,3.46,6.82,11.94,6.82,11.94l22.83-1.93s1.94-3.8,1.94-5.55,0-4.46-1.17-5.61-7.51-7.7-7.51-7.7Z"/><path class="cls-12" d="M76.55,157.3s-11.2,5.77-9.26,13.28,4.3,11.59,30.46,11.09l8.81.54,6-6.29s3.27-4.38,0-5.34-35.1-3.47-35.1-3.47a35.93,35.93,0,0,0-.13-5.19A34.41,34.41,0,0,0,76.55,157.3Z"/><path class="cls-13" d="M126.4,60.75,109.27,94.91l-1,2.33H175.9s3.61.38,3.29-5,0-27.27,0-27.27,1.59-3.15-6.16-3.53S126.4,60.75,126.4,60.75Z"/><ellipse class="cls-14" cx="144.04" cy="184.25" rx="29.73" ry="30.22"/><ellipse class="cls-6" cx="144.04" cy="185.34" rx="20.42" ry="20.76"/><ellipse class="cls-15" cx="143.68" cy="186.07" rx="14.33" ry="14.57"/><path class="cls-16" d="M131.58,63.16,118.33,94.64h51.93a2.14,2.14,0,0,0,1.39-.1c1.47-.69,1.58-3.31,1.62-4.56.12-3.73.16-12.22,0-23.42,0,0,1.22-3.4-4.36-3.4H131.58Z"/><path class="cls-17" d="M182.43,142.61l-54.29,1.21a5.08,5.08,0,0,0-2.9,0c-1.25.34-2.63,1.29-4.89,5.61a47.09,47.09,0,0,0-3.37,8.3,64.76,64.76,0,0,0-2.7,8.86c-.46,2.07-.58,3.18-1.54,3.85-1.86,1.3-5.1-.33-6.54-1.16h-.77a134.21,134.21,0,0,1-18.82-1.37v-5.59l-3.13.42v-7.46h3q2-25.15,4.06-50.33"/><path class="cls-18" d="M242.11,107.25a59,59,0,0,0-8.66,0c-3.28.38-6.93,4.43-6.93,4.43s14.64.4,16.46.29S247.5,107.25,242.11,107.25Z"/><path class="cls-18" d="M310.64,106.48a59,59,0,0,0-8.66,0c-3.27.38-6.93,4.43-6.93,4.43s14.65.4,16.47.29S316,106.48,310.64,106.48Z"/><path class="cls-18" d="M172.52,107.25h-7.11s-5.1,4-5.4,4.6,13.76,0,13.76,0S176.08,107.08,172.52,107.25Z"/><polyline class="cls-19" points="399.99 52 404.59 93.24 406.58 168.85"/><polygon class="cls-20" points="100.42 89.53 96.19 85.69 95.11 87.7 98.84 91.68 100.42 89.53"/><ellipse class="cls-21" cx="94.26" cy="82.41" rx="4.97" ry="7.71" transform="translate(-8.38 10.7) rotate(-6.22)"/><ellipse class="cls-2" cx="94.26" cy="82.41" rx="2.88" ry="5.54" transform="translate(-8.38 10.7) rotate(-6.22)"/><ellipse class="cls-22" cx="77.32" cy="136.51" rx="4.62" ry="11.94"/><ellipse class="cls-23" cx="76.36" cy="136.31" rx="2.31" ry="7.32"/><path class="cls-24" d="M170.5,63.16l-.39,31.38a10.93,10.93,0,0,1,2.31,0,4.19,4.19,0,0,0,2.56-.09,1.88,1.88,0,0,0,.42-.29,3.37,3.37,0,0,0,.8-1.54q.13-13.68.26-27.34a5,5,0,0,0-1.06-1.16,4.12,4.12,0,0,0-1.85-.77A11.29,11.29,0,0,0,170.5,63.16Z"/><polyline class="cls-25" points="182.43 52.47 182.43 177.83 182.43 97.34"/><g class="cls-26"><path class="cls-27" d="M136.85,169.38a15.89,15.89,0,0,1,13.33,0"/><path class="cls-27" d="M160.1,180.16a15.34,15.34,0,0,1-1.9,15.38"/><path class="cls-27" d="M127.71,179.31a15.08,15.08,0,0,0,0,13.83"/><path class="cls-27" d="M135.72,201.91a18.63,18.63,0,0,0,15.77,0"/></g><g class="cls-26"><path class="cls-28" d="M353.77,173.22a13.27,13.27,0,0,1,13.22,0"/><path class="cls-28" d="M379.13,184.66s3.51,8.06-1.89,14.74"/><path class="cls-28" d="M344.32,182.74s-3.65,6.51,0,13.24"/><path class="cls-28" d="M352.64,207s8.06,4.62,15.65,0"/></g><ellipse class="cls-29" cx="137.19" cy="190.02" rx="1.54" ry="1.35"/><ellipse class="cls-30" cx="138.73" cy="180.01" rx="1.54" ry="1.35"/><ellipse class="cls-31" cx="150.28" cy="181.55" rx="1.54" ry="1.35"/><ellipse class="cls-32" cx="148.74" cy="192.72" rx="1.54" ry="1.35"/><ellipse class="cls-33" cx="354.73" cy="194.42" rx="1.54" ry="1.55"/><ellipse class="cls-34" cx="357.42" cy="182.91" rx="1.54" ry="1.55"/><ellipse class="cls-35" cx="368.59" cy="186.22" rx="1.54" ry="1.55"/><ellipse class="cls-36" cx="368.2" cy="197.52" rx="1.54" ry="1.55"/><path class="cls-37" d="M416.46,171.44a43.3,43.3,0,0,0,6.68,6.47,44,44,0,0,0,14,7.28l-22.82,1.95c-1-1.64-2.5-4-4.12-6.93-2.79-5-3.42-6.82-2.7-7.7.39-.47,1.06-.58,2.31-.77a18.27,18.27,0,0,1,3.47,0A17.54,17.54,0,0,0,416.46,171.44Z"/><g class="cls-38"><path class="cls-39" d="M129.49,94.35H126l11.17-31,2.69-.2Z"/></g><rect class="cls-20" x="357.61" y="103.01" width="19.64" height="15.4"/><polygon class="cls-40" points="156.92 63.55 146.36 94.35 170.69 94.73 170.69 63.55 156.92 63.55"/><path class="cls-37" d="M76.72,180.43s12.35-6,15.23-12c7.7.39,20.6,2.12,20.6,2.12a2.49,2.49,0,0,1,1.16,1.16c.37.87.07,1.95-1.16,3.83a31.43,31.43,0,0,1-6,6.64S79,181.8,76.72,180.43Z"/><rect class="cls-24" x="187.44" y="56.42" width="189.43" height="45.43"/><rect class="cls-41" x="205.92" y="60.66" width="155.16" height="39.27"/><rect class="cls-42" x="205.92" y="60.66" width="155.16" height="38.89"/><line class="cls-43" x1="243.74" y1="56.23" x2="243.74" y2="100.51"/><polyline class="cls-44" points="313.72 100.51 313.72 99.58 313.72 62.01 313.72 56.62"/><polygon class="cls-45" points="243.75 60.66 243.75 99.55 213 99.55 243.75 60.66"/><polygon class="cls-46" points="267.47 98.97 313.92 98.97 313.92 60.08 267.47 98.97"/><polygon class="cls-47" points="330.15 99.9 361.08 99.55 361.08 60.66 330.15 99.9"/><path class="cls-48" d="M243.87,99.57l43.86-38.72,8.38-.08-43.8,39Z"/><path class="cls-49" d="M342.23,60.86l-27.5,38.5h5l26.95-38.88Z"/><path class="cls-10" d="M412.76,51.93c7.11,17.41,11.79,30.38,12.77,33.59.45,1.48,1.89,6.73,2.16,7.87L428,94.6h0l2.41,75.79-19.23,1.05s-6.45-.51-2.55,6.19l-10.17-.31c-1.93-16.94-48.9-53.9-77,2.72l-139-2.21V142.61l140.73,1c34.45-29.45,72,0,72,0s21.37-36.38,17.61-91.7L128,52.68"/><path class="cls-50" d="M130.33,48.64l282.15,1.43s-82.56-21-143.61-19.63S169.28,39.9,130.33,48.64Z"/></svg>