<svg id="Layer_54" data-name="Layer 54" xmlns="http://www.w3.org/2000/svg" viewBox="0 0 256 256"><defs><style>.cls-1{opacity:0.5;}.cls-2{fill:#fff;}.cls-3{fill:#6c6a6a;}.cls-4{fill:#c8c7c7;}.cls-5{fill:#6d6a6b;}.cls-6{fill:#bfbdbd;}.cls-7{fill:#bdbdbd;}.cls-8{fill:#ededed;}.cls-9{fill:#939090;}.cls-10{fill:#e3e2e2;}.cls-11{fill:#e2e3e3;}.cls-12{fill:#8f8f8f;}.cls-13{fill:#bebdbd;}.cls-14{fill:#c0bebf;}.cls-15{fill:#929090;}.cls-16{fill:#949293;}.cls-17{fill:#e4e4e4;}.cls-18{fill:#e2e2e2;}.cls-19{fill:#231f20;}.cls-20{fill:#c1c1c1;}.cls-21{fill:#c3c1c1;}.cls-22{fill:#ff6e6e;}.cls-23{fill:#ff9292;}.cls-24{fill:#733f3f;}.cls-25{fill:#45272d;}.cls-26{fill:#45292e;}.cls-27{fill:#622231;}.cls-28{fill:#552630;}.cls-29{fill:#591f2c;}.cls-30{fill:#682634;}.cls-31{fill:#682533;}.cls-32{fill:#672533;}.cls-33{fill:#632332;}.cls-34{fill:#652532;}.cls-35{fill:#662432;}.cls-36{fill:#662533;}.cls-37{fill:#6f2a37;}.cls-38{fill:#682633;}.cls-39{fill:#672633;}.cls-40{fill:#612130;}.cls-41{fill:#652432;}.cls-42{fill:#6a2734;}.cls-43{fill:#6d2935;}.cls-44{fill:#622430;}.cls-45{fill:#6d2936;}.cls-46{fill:#652533;}.cls-47{fill:#6a2834;}.cls-48{fill:#632232;}.cls-49{fill:#6b2834;}.cls-50{fill:#5f2130;}.cls-51{fill:#5e2130;}.cls-52{fill:#5e2030;}.cls-53{fill:#5e212f;}.cls-54{fill:#5f2632;}.cls-55{fill:#5f2230;}.cls-56{fill:#692734;}.cls-57{fill:#642433;}.cls-58{fill:#6b2835;}.cls-59{fill:#5d2030;}.cls-60{fill:#59222f;}.cls-61{fill:#5c202e;}.cls-62{fill:#5c1f2f;}.cls-63{fill:#5d202f;}.cls-64{fill:#5c212f;}.cls-65{fill:#74353b;}.cls-66{fill:#692833;}.cls-67{fill:#70333a;}.cls-68{fill:#ffb9b9;}.cls-69{fill:#aa1941;}.cls-70{fill:#ff6464;}.cls-71{fill:#2c2223;}.cls-72{fill:#2d2223;}.cls-73{fill:#2e2425;}.cls-74{fill:#2e2324;}.cls-75{fill:#2f2223;}.cls-76{fill:#312525;}.cls-77{fill:#e88686;}.cls-78{fill:#523c3d;}.cls-79{fill:#382829;}.cls-80{fill:#302324;}.cls-81{fill:#3c2c2d;}.cls-82{fill:#2f2324;}.cls-83{fill:#3d2b2c;}.cls-84{fill:#f5aaaa;}</style></defs><path class="cls-1" d="M93.76,195.31a31.22,31.22,0,0,1-10.47-3.72q-19.22-11.13-38.44-22.23a12.39,12.39,0,0,1-4.86-5.1A20.78,20.78,0,0,1,38.13,159a42.27,42.27,0,0,1-.85-5.86l-.06-11.88c.06-1.15.13-2.23.21-3.28.21-2.61.41-4.73.66-6.66l.3-2.38a14.77,14.77,0,0,1,4.3-8.85,20.8,20.8,0,0,1,4.54-3.45l43-24.8q19.51-11.25,39-22.53A30.61,30.61,0,0,1,138,65.9l16.46,0c1,.23,2,.49,2.91.79A28.81,28.81,0,0,1,163,69.18l36.21,20.9a19.8,19.8,0,0,1,5.92,5,15,15,0,0,1,2.65,5.43,13.53,13.53,0,0,1,.37,2.41l-.09,19.88a57.66,57.66,0,0,1-2,11.66,23.49,23.49,0,0,1-2,4.94,13.71,13.71,0,0,1-5.16,5.2q-40.78,23.52-81.56,47.07a31,31,0,0,1-10.46,3.69s-4.55.66-6.08.67C99,196,93.76,195.31,93.76,195.31Z"/><path class="cls-2" d="M88.76,190.31a31.22,31.22,0,0,1-10.47-3.72q-19.22-11.13-38.44-22.23a12.39,12.39,0,0,1-4.86-5.1A20.78,20.78,0,0,1,33.13,154a42.27,42.27,0,0,1-.85-5.86l-.35-.13V136.33l.29-.12c.06-1.15.13-2.23.21-3.28.21-2.61.41-4.73.66-6.66l.3-2.38a14.77,14.77,0,0,1,4.3-8.85,20.8,20.8,0,0,1,4.54-3.45l43-24.8q19.51-11.25,39-22.53A30.61,30.61,0,0,1,133,60.9l0-.9h16.51l0,.92c1,.23,2,.49,2.91.79A28.81,28.81,0,0,1,158,64.18l36.21,20.9a19.8,19.8,0,0,1,5.92,5,15,15,0,0,1,2.65,5.43,13.53,13.53,0,0,1,.37,2.41l-.09,19.88a57.66,57.66,0,0,1-2,11.66,23.49,23.49,0,0,1-2,4.94,13.71,13.71,0,0,1-5.16,5.2q-40.78,23.52-81.56,47.07a31,31,0,0,1-10.46,3.69s-4.55.66-6.08.67C94,191,88.76,190.31,88.76,190.31Z"/><path class="cls-3" d="M197.42,105.79v3.61a.11.11,0,0,1-.15-.05,1.36,1.36,0,0,1-.08-.69q0-1.16,0-2.31a1,1,0,0,1,.08-.51C197.3,105.78,197.35,105.77,197.42,105.79Z"/><path class="cls-4" d="M38,143.8l-.08,0v-3.42l.08,0a.49.49,0,0,1,.14.43c0,.87,0,1.74,0,2.6A.49.49,0,0,1,38,143.8Z"/><path class="cls-5" d="M140.52,66h1.33a.1.1,0,0,1,0,.15,2.05,2.05,0,0,1-1.25,0A.1.1,0,0,1,140.52,66Z"/><path class="cls-6" d="M197.42,103.8v1.14a.09.09,0,0,1-.14,0,1.52,1.52,0,0,1,0-1.07A.1.1,0,0,1,197.42,103.8Z"/><path class="cls-7" d="M197.42,110.26v1a.1.1,0,0,1-.14,0,1.28,1.28,0,0,1,0-1A.1.1,0,0,1,197.42,110.26Z"/><path class="cls-8" d="M94.83,185v-.1a.84.84,0,0,1,1,0v.1Z"/><path class="cls-9" d="M197.34,104.93h.08v.85h-.08A.64.64,0,0,1,197.34,104.93Z"/><path class="cls-10" d="M197.42,103.8h-.08a.64.64,0,0,1,0-.86h.08Z"/><path class="cls-11" d="M197.34,111.31h.08v.86h-.08A.63.63,0,0,1,197.34,111.31Z"/><path class="cls-12" d="M197.42,110.26h-.08a.63.63,0,0,1,0-.85h.08Z"/><path class="cls-13" d="M139.48,66h.57a.1.1,0,0,1,0,.14.53.53,0,0,1-.52,0A.09.09,0,0,1,139.48,66Z"/><path class="cls-14" d="M142.33,66h.57a.1.1,0,0,1,0,.14.53.53,0,0,1-.52,0A.09.09,0,0,1,142.33,66Z"/><path class="cls-15" d="M140,66.08a.22.22,0,0,1,0-.08h.47a.22.22,0,0,1,0,.08A.3.3,0,0,1,140,66.08Z"/><path class="cls-16" d="M142.33,66v.08a.3.3,0,0,1-.47,0,.19.19,0,0,1,0-.08Z"/><path class="cls-17" d="M142.9,66.08V66h.38a.11.11,0,0,0,0,.08A.24.24,0,0,1,142.9,66.08Z"/><path class="cls-18" d="M139.48,66s0,0,0,.08a.24.24,0,0,1-.38,0,.22.22,0,0,0,0-.08Z"/><path class="cls-19" d="M139.09,66.08h4.19a31.42,31.42,0,0,1,7.25,1.34,22.46,22.46,0,0,1,4.46,2l36.21,20.9a14.09,14.09,0,0,1,4.18,3.46A8.71,8.71,0,0,1,197,97a11.89,11.89,0,0,1,.25,2.44c.08,1.17.09,2.34.13,3.51v2.85c0,1.2,0,2.41,0,3.62a4.83,4.83,0,0,0,0,.85,7.36,7.36,0,0,0,0,1v.85c0,1.44-.1,2.88-.21,4.31a53.72,53.72,0,0,1-1.8,11.27,17.51,17.51,0,0,1-1.51,3.67,7.78,7.78,0,0,1-2.93,3q-40.8,23.52-81.57,47.07a25.19,25.19,0,0,1-8.59,3,33.17,33.17,0,0,1-4.76.44,1.08,1.08,0,0,0-.19,0,4.31,4.31,0,0,0-1,0c-.88-.09-1.77-.09-2.65-.18A26.63,26.63,0,0,1,81.3,181.4q-19.22-11.15-38.46-22.24a6.44,6.44,0,0,1-2.53-2.67A15.55,15.55,0,0,1,39,152.64a36.78,36.78,0,0,1-.77-5.91c0-.57-.07-1.14-.1-1.71-.08-1.07,0-2.14,0-3.2,0-.66,0-1.32,0-2a4.49,4.49,0,0,1,0-.9c.07-1.85.16-3.7.31-5.55.16-2.13.35-4.25.62-6.37l.3-2.4A9,9,0,0,1,42,119.26a15.64,15.64,0,0,1,3.28-2.48L73.9,100.23l53.31-30.77a24.94,24.94,0,0,1,8-2.89A38.21,38.21,0,0,1,139.09,66.08Z"/><path class="cls-20" d="M38.1,139.79V145a4.17,4.17,0,0,1-.1-1.22v-3.46c0-.18,0-.36,0-.55C38.06,139.75,38.08,139.75,38.1,139.79Z"/><path class="cls-21" d="M38.1,139.79H38a1.89,1.89,0,0,1,.08-.85A3.45,3.45,0,0,1,38.1,139.79Z"/><path class="cls-22" d="M39.62,126.43a8,8,0,0,0,1.75,3.37,13.76,13.76,0,0,0,3.74,3l17.06,9.85,19.44,11.22A24,24,0,0,0,89,156.6a32.34,32.34,0,0,0,5.89.61,30.41,30.41,0,0,0,10.9-1.74,21.6,21.6,0,0,0,3.31-1.54l29-16.75q16.68-9.65,33.38-19.27l20.14-11.63a12.83,12.83,0,0,0,3.85-3.33,8.15,8.15,0,0,0,1.21-2.2c0-.09,0-.22.17-.29,0,.32.06.63.07,1,.1,3.19.17,6.39.08,9.58-.05,1.81-.11,3.61-.25,5.41A56.61,56.61,0,0,1,195.14,127a17.34,17.34,0,0,1-1.88,4.59,6.76,6.76,0,0,1-2.41,2.37q-16.47,9.48-32.93,19l-42.17,24.35L109,181.18a23.69,23.69,0,0,1-7.13,2.65,30.84,30.84,0,0,1-7.17.66,30.13,30.13,0,0,1-9.49-1.67,28.64,28.64,0,0,1-4.71-2.33L51,163.4c-2.69-1.55-5.36-3.12-8.06-4.65A6,6,0,0,1,40.49,156a16.85,16.85,0,0,1-1.32-4.39,51.94,51.94,0,0,1-.71-8.26c0-1.51,0-3,.06-4.51,0-1.95.17-3.89.33-5.83.12-1.51.27-3,.42-4.53.06-.62.13-1.23.2-1.84C39.53,126.56,39.43,126.37,39.62,126.43Z"/><path class="cls-23" d="M95.35,156.82a29.82,29.82,0,0,1-10.78-1.91,27.59,27.59,0,0,1-3.64-1.84L45.47,132.59a13.93,13.93,0,0,1-3.83-3.08,7.79,7.79,0,0,1-1.71-3.45,6.42,6.42,0,0,1,.73-4.4,10.51,10.51,0,0,1,3-3.35,30.26,30.26,0,0,1,3.3-2l66-38.1q7.22-4.17,14.42-8.34a25.14,25.14,0,0,1,8-2.88,31.77,31.77,0,0,1,7.66-.45,26.45,26.45,0,0,1,10.82,2.75c1.48.78,2.92,1.65,4.37,2.49l33,19.06a12.78,12.78,0,0,1,3.8,3.18,7.36,7.36,0,0,1,1.61,3.79,6.68,6.68,0,0,1-1.07,4.3,11.52,11.52,0,0,1-3.85,3.66c-1.34.82-2.7,1.58-4.06,2.37L111,152.34l-2,1.16a24,24,0,0,1-8,2.82A31.24,31.24,0,0,1,95.35,156.82Z"/><path class="cls-24" d="M39.62,126.43l-.15.18a1,1,0,0,1,0-.24c0-.07,0-.13.11-.1S39.63,126.36,39.62,126.43Z"/><path class="cls-19" d="M175.66,102.36a9.06,9.06,0,0,1-2.37,1.8l-8.92,5L113.58,138l-6.32,3.57a16.93,16.93,0,0,1-5.9,2,21.51,21.51,0,0,1-4.16.28,19.11,19.11,0,0,1-8.88-2.27l-4.19-2.42-20.79-12a12.48,12.48,0,0,1-2-1.34,3.08,3.08,0,0,1-.57-.57.09.09,0,0,1,0-.13.4.4,0,0,1,.33-.12,2.38,2.38,0,0,1,.71.55,31.45,31.45,0,0,0,3.92,2.41c3,1.74,6,3.46,9,5.18l10.16,5.86c1.26.72,2.52,1.46,3.78,2.17a16.47,16.47,0,0,0,5.74,1.9,21.65,21.65,0,0,0,3.68.29,20.19,20.19,0,0,0,10-2.76c3.44-2.06,7-4,10.48-6l9-5.07,11.81-6.69,10.53-6L161,110.53l11.11-6.28a20,20,0,0,0,3.22-2.17.21.21,0,0,1,.2,0C175.58,102.17,175.7,102.22,175.66,102.36Z"/><path class="cls-25" d="M60.83,125v.13a5,5,0,0,1-1-6.46.1.1,0,0,1,.1,0,.3.3,0,0,1,0,.1.88.88,0,0,1,0,.15l-.05.09-.06.15a.36.36,0,0,0,0,.11l-.06.18a4.8,4.8,0,0,0,.88,5.1C60.74,124.71,60.93,124.81,60.83,125Z"/><path class="cls-26" d="M175.66,102.36l-.18-.18a7,7,0,0,0,1.11-1.48.71.71,0,0,0,.1-.14l.06-.09.06-.14a.74.74,0,0,1,0-.14s.05-.09.07-.14a.36.36,0,0,1,0-.09,1.29,1.29,0,0,0,0-.19.75.75,0,0,1,0-.16c0-.06,0-.11,0-.17s0-.16,0-.24a.93.93,0,0,0,0-.33c0-.3,0-.6,0-.89a.57.57,0,0,1,.07-.22.1.1,0,0,1,.13,0A5.18,5.18,0,0,1,175.66,102.36Z"/><path class="cls-27" d="M130.07,77.87a12.4,12.4,0,0,1,2.76-1l0,0v.06a.3.3,0,0,1-.12.13l-.17.06-.17.07-.6.19-.17.06-.17,0-.16.07a1.48,1.48,0,0,1-.27.1l-.16.06-.11,0-.15.09c-.17.06-.33.22-.53.12A.09.09,0,0,1,130.07,77.87Z"/><path class="cls-28" d="M177.36,97.72h-.08a.08.08,0,0,1-.11,0,.39.39,0,0,1-.09-.23,1.85,1.85,0,0,0,0-.23.83.83,0,0,1,0-.15A.88.88,0,0,1,177,97l0-.15a.78.78,0,0,0-.05-.14.31.31,0,0,1,0-.1.64.64,0,0,1-.08-.14c-.06-.11-.11-.22-.16-.33l-.08-.16a.5.5,0,0,1,0-.12.23.23,0,0,1,0-.11l.06,0A4.41,4.41,0,0,1,177.36,97.72Z"/><path class="cls-29" d="M137.39,76.08a23.43,23.43,0,0,1,2.65,0c0,.2-.2.18-.33.21-.69,0-1.38,0-2.07,0C137.52,76.25,137.4,76.24,137.39,76.08Z"/><path class="cls-30" d="M64.24,115.1a16.18,16.18,0,0,1,1.62-.93.17.17,0,0,1,0,.12.61.61,0,0,1,0,.12,3.2,3.2,0,0,1-.67.38l-.16.1a2.44,2.44,0,0,1-.56.28.29.29,0,0,1-.13,0A.18.18,0,0,1,64.24,115.1Z"/><path class="cls-31" d="M98.81,95.53a16.25,16.25,0,0,1,1.63-.92.13.13,0,0,1,0,.09.3.3,0,0,1,0,.1l-.09.07-.14.1a3.1,3.1,0,0,1-.47.26l-.15.1a2.26,2.26,0,0,1-.56.28h-.12A.16.16,0,0,1,98.81,95.53Z"/><path class="cls-31" d="M126.17,80.05a17.28,17.28,0,0,1,1.62-.92.11.11,0,0,1,0,.09.17.17,0,0,1,0,.1l-.09.07-.14.1a3.1,3.1,0,0,1-.47.26l-.16.1a2.19,2.19,0,0,1-.55.28h-.13A.17.17,0,0,1,126.17,80.05Z"/><path class="cls-30" d="M119,84.14a17.38,17.38,0,0,1,1.62-.93.11.11,0,0,1,.05.09.17.17,0,0,1,0,.1l-.09.07-.14.1a1.35,1.35,0,0,1-.26.15l-.16.08-.1.06-.15.1a1.8,1.8,0,0,1-.5.25.29.29,0,0,1-.13,0A.26.26,0,0,1,119,84.14Z"/><path class="cls-30" d="M108.88,89.84a17.38,17.38,0,0,1,1.62-.93.11.11,0,0,1,.06.09.49.49,0,0,1,0,.11l-.09.06-.14.11c-.15.1-.31.17-.47.26l-.15.09a2.26,2.26,0,0,1-.56.28H109A.3.3,0,0,1,108.88,89.84Z"/><path class="cls-31" d="M71.45,111a17.44,17.44,0,0,1,1.63-.92.11.11,0,0,1,0,.09.18.18,0,0,1,0,.1l-.09.07-.14.1a3.1,3.1,0,0,1-.47.26l-.15.1a2.38,2.38,0,0,1-.55.28h-.13A.28.28,0,0,1,71.45,111Z"/><path class="cls-30" d="M76.49,108.16c.52-.34,1.07-.63,1.62-.92a.11.11,0,0,1,0,.09.17.17,0,0,1,0,.11l-.09.06-.14.11a3.37,3.37,0,0,1-.46.25l-.16.1a2.19,2.19,0,0,1-.55.28h-.13A.25.25,0,0,1,76.49,108.16Z"/><path class="cls-30" d="M113.92,87a17.38,17.38,0,0,1,1.62-.93.11.11,0,0,1,0,.09.21.21,0,0,1,0,.11l-.09.07-.14.1a5.22,5.22,0,0,1-.47.26l-.15.09a2.19,2.19,0,0,1-.55.28H114A.26.26,0,0,1,113.92,87Z"/><path class="cls-30" d="M86.56,102.47a17.38,17.38,0,0,1,1.62-.93.11.11,0,0,1,0,.09.15.15,0,0,1,0,.11.35.35,0,0,1-.09.07l-.14.1c-.14.1-.31.17-.46.26l-.16.09a2.19,2.19,0,0,1-.55.28h-.13Z"/><path class="cls-30" d="M103.85,92.68a17.28,17.28,0,0,1,1.62-.92.11.11,0,0,1,0,.09.18.18,0,0,1,0,.1l-.09.07a.71.71,0,0,1-.14.1,2.68,2.68,0,0,1-.47.26l-.15.1a2.19,2.19,0,0,1-.55.28H104A.2.2,0,0,1,103.85,92.68Z"/><path class="cls-32" d="M91.7,99.55l1.52-.86a.16.16,0,0,1,0,.09.36.36,0,0,1,0,.11l-.09.07a.71.71,0,0,0-.14.1c-.15.1-.32.18-.47.26l-.16.1a1.31,1.31,0,0,1-.59.26l-.06,0,0,0Z"/><path class="cls-32" d="M81.63,105.25l1.52-.86a.13.13,0,0,1,0,.09.36.36,0,0,1,0,.11l-.09.07a.71.71,0,0,0-.14.1c-.15.1-.31.17-.47.26l-.16.1a1.16,1.16,0,0,1-.59.25h-.06l-.05,0Z"/><path class="cls-33" d="M89.51,100.78a12.64,12.64,0,0,1,1.3-.72l.06,0a.19.19,0,0,1,0,.13.73.73,0,0,1-.3.22l-.16.08-.1,0a.71.71,0,0,0-.14.1,1.2,1.2,0,0,1-.57.24l-.06,0,0,0Z"/><path class="cls-34" d="M146.9,77.67a5.86,5.86,0,0,1,1.32.67.28.28,0,0,1-.11.08H148a3.61,3.61,0,0,1-1.2-.66C146.78,77.68,146.81,77.62,146.9,77.67Z"/><path class="cls-33" d="M121.9,82.45a11.76,11.76,0,0,1,1.3-.71l.06,0a.17.17,0,0,1,0,.12.73.73,0,0,1-.3.22l-.15.08-.11,0-.14.1a1.17,1.17,0,0,1-.56.24l-.06,0-.05,0Z"/><path class="cls-30" d="M148.78,78.66a10.45,10.45,0,0,1,1.25.73l-.1.07a.24.24,0,0,1-.12,0,1.09,1.09,0,0,1-.39-.19l-.16-.09a2,2,0,0,1-.48-.29.61.61,0,0,1-.05-.12A.16.16,0,0,1,148.78,78.66Z"/><path class="cls-31" d="M162.27,86.44a14.07,14.07,0,0,1,1.25.73.25.25,0,0,1-.1.08h-.13a1.13,1.13,0,0,1-.38-.19l-.16-.1a1.94,1.94,0,0,1-.48-.28.61.61,0,0,1-.05-.12A.17.17,0,0,1,162.27,86.44Z"/><path class="cls-31" d="M153.06,81.12a12.07,12.07,0,0,1,1.25.74l-.1.07h-.13a1.13,1.13,0,0,1-.38-.19l-.16-.09a1.81,1.81,0,0,1-.48-.29.21.21,0,0,1-.05-.12A.18.18,0,0,1,153.06,81.12Z"/><path class="cls-31" d="M171.49,91.76l1.14.66a.07.07,0,0,1,0,.07l0,0a.27.27,0,0,1-.12,0,.82.82,0,0,1-.39-.18l-.15-.09a1.66,1.66,0,0,1-.48-.29.16.16,0,0,1-.05-.11A.13.13,0,0,1,171.49,91.76Z"/><path class="cls-35" d="M164.85,87.94a7.66,7.66,0,0,1,1.14.66.23.23,0,0,1-.1.07.28.28,0,0,1-.13,0,1.13,1.13,0,0,1-.38-.19l-.15-.09c-.18-.11-.39-.15-.51-.34a.2.2,0,0,1,0-.13A.09.09,0,0,1,164.85,87.94Z"/><path class="cls-35" d="M155.63,82.62a8.05,8.05,0,0,1,1.14.66.18.18,0,0,1-.1.07.24.24,0,0,1-.12,0,1.11,1.11,0,0,1-.38-.18l-.16-.1c-.17-.1-.39-.15-.51-.34a.3.3,0,0,1,0-.13A.1.1,0,0,1,155.63,82.62Z"/><path class="cls-36" d="M167.31,89.36a8.76,8.76,0,0,1,1.15.66.19.19,0,0,1-.11.07h-.12a.8.8,0,0,1-.33-.17l-.15-.09-.1-.06a.8.8,0,0,1-.16-.08.61.61,0,0,1-.3-.22.19.19,0,0,1,0-.13A.08.08,0,0,1,167.31,89.36Z"/><path class="cls-36" d="M158.1,84a7.24,7.24,0,0,1,1.14.67.26.26,0,0,1-.1.07H159a1.13,1.13,0,0,1-.38-.19l-.16-.09c-.17-.11-.39-.16-.51-.34a.19.19,0,0,1,0-.13A.1.1,0,0,1,158.1,84Z"/><path class="cls-36" d="M160.57,85.47a8.05,8.05,0,0,1,1.14.66.23.23,0,0,1-.1.07h-.13a1,1,0,0,1-.33-.16l-.14-.1-.11,0-.16-.08a.68.68,0,0,1-.3-.23.17.17,0,0,1,0-.12A.08.08,0,0,1,160.57,85.47Z"/><path class="cls-36" d="M151.36,80.15a8.65,8.65,0,0,1,1.14.66.16.16,0,0,1-.11.07.24.24,0,0,1-.12,0,.78.78,0,0,1-.33-.16l-.15-.09-.1-.06-.16-.08a.73.73,0,0,1-.3-.22.19.19,0,0,1,0-.13A.09.09,0,0,1,151.36,80.15Z"/><path class="cls-32" d="M97.18,96.46a7.63,7.63,0,0,1,1.07-.62.14.14,0,0,1,0,.09.15.15,0,0,1,0,.11.35.35,0,0,1-.09.07l-.13.1-.25.14-.15.07-.1,0-.14.07-.11,0-.1,0Z"/><path class="cls-32" d="M124.54,81a6.34,6.34,0,0,1,1.07-.62.12.12,0,0,1,0,.09.21.21,0,0,1,0,.11l-.09.06a.71.71,0,0,1-.14.1,1,1,0,0,1-.25.15l-.14.07-.1,0-.15.07-.1,0-.1,0Z"/><path class="cls-37" d="M146.9,77.67l-.11.1a1,1,0,0,1-.78-.3c0-.09,0-.12.11-.14A3.18,3.18,0,0,1,146.9,77.67Z"/><path class="cls-38" d="M67.19,113.41l.85-.47a.11.11,0,0,1,0,.09.17.17,0,0,1,0,.1l-.09.07-.14.1a1.08,1.08,0,0,1-.56.24l-.06,0,0,0Z"/><path class="cls-39" d="M79.44,106.48l.86-.48a.14.14,0,0,1,0,.11.28.28,0,0,1-.1.14l-.14.11a1.21,1.21,0,0,1-.58.25l-.06,0,0,0Z"/><path class="cls-38" d="M94.55,97.93l.85-.48a.14.14,0,0,1,0,.1.13.13,0,0,1,0,.1.22.22,0,0,1-.09.07l-.14.1a1,1,0,0,1-.55.24l-.06,0,0-.05Z"/><path class="cls-40" d="M134.35,76.46a3.25,3.25,0,0,1,.82-.12c.1,0,.2-.06.24.08s-.24.13-.38.15l-.21,0a.74.74,0,0,1-.33,0,.29.29,0,0,1-.13,0,.11.11,0,0,1,0-.07S134.34,76.46,134.35,76.46Z"/><path class="cls-41" d="M112.4,87.84a3.5,3.5,0,0,1,.73-.41l.06,0a.2.2,0,0,1,0,.13.61.61,0,0,1-.29.21l-.15.08-.1,0a.52.52,0,0,1-.16.06.18.18,0,0,1-.1,0A.09.09,0,0,1,112.4,87.84Z"/><path class="cls-41" d="M117.44,85a3.26,3.26,0,0,1,.73-.41l0,0a.19.19,0,0,1,0,.13.59.59,0,0,1-.3.21l-.15.08-.1,0a.44.44,0,0,1-.16.06.14.14,0,0,1-.1,0A.1.1,0,0,1,117.44,85Z"/><path class="cls-42" d="M172.63,92.5v-.08a4.56,4.56,0,0,1,.77.45.19.19,0,0,1-.11.07h-.13a1,1,0,0,1-.33-.17l-.15-.1-.08-.08A.07.07,0,0,1,172.63,92.5Z"/><path class="cls-43" d="M170.16,91a4,4,0,0,1,.77.46.21.21,0,0,1-.11.07.24.24,0,0,1-.12,0,1,1,0,0,1-.33-.16l-.14-.1-.09-.07a.3.3,0,0,1,0-.1A.15.15,0,0,1,170.16,91Z"/><path class="cls-41" d="M85,103.32a3.5,3.5,0,0,1,.73-.41l.06,0a.29.29,0,0,1,0,.13.63.63,0,0,1-.3.21l-.15.08-.1,0a.44.44,0,0,1-.16.06.13.13,0,0,1-.1,0A.12.12,0,0,1,85,103.32Z"/><path class="cls-44" d="M143.46,76.55l.86.2a.07.07,0,0,1,0,.11l-.11,0a.72.72,0,0,1-.25,0l-.17,0a.61.61,0,0,1-.24-.07.28.28,0,0,1-.09-.1l0-.06Z"/><path class="cls-45" d="M62.9,115.86a2.36,2.36,0,0,1,.59-.35.16.16,0,0,1,.11.07c-.09.28-.33.33-.56.41A.19.19,0,0,1,62.9,115.86Z"/><path class="cls-37" d="M139.76,76.17c.1,0,.21,0,.28-.09a1.12,1.12,0,0,1,.6.07.3.3,0,0,1-.17.12l-.29.08C140,76.35,139.82,76.42,139.76,76.17Z"/><path class="cls-46" d="M173.77,93.09a2.32,2.32,0,0,1,.57.37.08.08,0,0,1,0,.11.28.28,0,0,1-.13,0,1.14,1.14,0,0,1-.44-.28.33.33,0,0,1,0-.12A.17.17,0,0,1,173.77,93.09Z"/><path class="cls-37" d="M137.39,76.08a.25.25,0,0,0,.19.09c0,.24-.22.17-.38.17s-.32,0-.41-.2A1.22,1.22,0,0,1,137.39,76.08Z"/><path class="cls-40" d="M136.79,76.14c.13,0,.29,0,.4.11-.24.21-.52.13-.79.1-.08,0-.16-.07-.15-.18Z"/><path class="cls-27" d="M129.12,78.37a2.79,2.79,0,0,1,.66-.35.2.2,0,0,1,0,.13.76.76,0,0,1-.59.35l-.07,0,0,0Z"/><path class="cls-32" d="M74.86,109.09a2.16,2.16,0,0,1,.68-.38.13.13,0,0,1,0,.1c0,.16-.19.21-.32.27l-.16.08-.11,0a.2.2,0,0,1-.11,0Z"/><path class="cls-32" d="M69.82,111.94a2.41,2.41,0,0,1,.68-.38.12.12,0,0,1,0,.1c0,.16-.19.2-.32.27l-.16.08L70,112a.25.25,0,0,1-.11,0Z"/><path class="cls-32" d="M107.25,90.76a2.16,2.16,0,0,1,.68-.38.11.11,0,0,1,0,.09.36.36,0,0,1-.14.18l-.14.07-.1,0-.14.06-.1,0a.18.18,0,0,1-.1,0Z"/><path class="cls-47" d="M78.67,106.93a1.86,1.86,0,0,1,.53-.3h.14c0,.34-.31.34-.52.43A.17.17,0,0,1,78.67,106.93Z"/><path class="cls-32" d="M102.21,93.61a2.41,2.41,0,0,1,.68-.38.09.09,0,0,1,0,.09.26.26,0,0,1-.14.17l-.14.08-.09.05-.14.06-.11,0-.09,0Z"/><path class="cls-48" d="M62.22,116.3a1.65,1.65,0,0,1,.57-.37l.05,0a.14.14,0,0,1,0,.11.44.44,0,0,1-.17.16l-.14.09a.53.53,0,0,1-.15.08.21.21,0,0,1-.11,0A.1.1,0,0,1,62.22,116.3Z"/><path class="cls-42" d="M73.64,109.78a1.55,1.55,0,0,1,.53-.3.33.33,0,0,1,.14,0c0,.3-.25.28-.42.37a.33.33,0,0,1-.14,0A.19.19,0,0,1,73.64,109.78Z"/><path class="cls-31" d="M144.32,76.83v-.08l.66.19,0,0,0,.05a.27.27,0,0,1-.11,0,.36.36,0,0,1-.18,0l-.18,0a.44.44,0,0,1-.22-.1A.08.08,0,0,1,144.32,76.83Z"/><path class="cls-47" d="M121.13,82.9a2,2,0,0,1,.55-.31l.06,0a.17.17,0,0,1,0,.12.61.61,0,0,1-.37.23.24.24,0,0,1-.12,0A.16.16,0,0,1,121.13,82.9Z"/><path class="cls-42" d="M155.63,82.62h-.1a.24.24,0,0,1-.11.06.58.58,0,0,1-.35-.17.24.24,0,0,1-.06-.11.13.13,0,0,1,.07-.1A1.89,1.89,0,0,1,155.63,82.62Z"/><path class="cls-42" d="M96,97.15a1.77,1.77,0,0,1,.55-.31l.06,0a.19.19,0,0,1,0,.13.61.61,0,0,1-.37.23.28.28,0,0,1-.13,0A.23.23,0,0,1,96,97.15Z"/><path class="cls-47" d="M111.06,88.6a1.77,1.77,0,0,1,.55-.31l.06,0a.17.17,0,0,1,0,.12.61.61,0,0,1-.37.23.24.24,0,0,1-.12,0A.26.26,0,0,1,111.06,88.6Z"/><path class="cls-47" d="M66.42,113.86a1.78,1.78,0,0,1,.48-.28.13.13,0,0,1,0,.12.47.47,0,0,1-.4.29A.16.16,0,0,1,66.42,113.86Z"/><path class="cls-42" d="M128.35,78.82a1.77,1.77,0,0,1,.55-.31l.06,0a.17.17,0,0,1,0,.12.61.61,0,0,1-.37.23.28.28,0,0,1-.13,0A.23.23,0,0,1,128.35,78.82Z"/><path class="cls-42" d="M164.85,87.94h-.11a.2.2,0,0,1-.11.06.58.58,0,0,1-.35-.17.22.22,0,0,1-.05-.12.09.09,0,0,1,.07-.09A1.8,1.8,0,0,1,164.85,87.94Z"/><path class="cls-29" d="M140.43,76.17l.21,0,.54,0c0,.09-.05.13-.13.16a.8.8,0,0,1-.59,0A.09.09,0,0,1,140.43,76.17Z"/><path class="cls-49" d="M151.36,80.15h-.1a.27.27,0,0,1-.12.06.58.58,0,0,1-.35-.17.37.37,0,0,1,0-.11.08.08,0,0,1,.07-.09A1.77,1.77,0,0,1,151.36,80.15Z"/><path class="cls-47" d="M106,91.45a1.66,1.66,0,0,1,.55-.31l.06,0a.17.17,0,0,1,0,.12.61.61,0,0,1-.37.23.28.28,0,0,1-.13,0A.23.23,0,0,1,106,91.45Z"/><path class="cls-47" d="M116.1,85.75a1.86,1.86,0,0,1,.55-.31l0,0a.17.17,0,0,1,0,.12.63.63,0,0,1-.37.23.29.29,0,0,1-.13,0A.17.17,0,0,1,116.1,85.75Z"/><path class="cls-47" d="M167.31,89.36h-.1a.17.17,0,0,1-.11.06.57.57,0,0,1-.35-.16.31.31,0,0,1-.05-.12.08.08,0,0,1,.07-.09A1.81,1.81,0,0,1,167.31,89.36Z"/><path class="cls-47" d="M158.1,84H158a.16.16,0,0,1-.11,0,.57.57,0,0,1-.35-.16.34.34,0,0,1-.06-.12.11.11,0,0,1,.07-.09A1.86,1.86,0,0,1,158.1,84Z"/><path class="cls-47" d="M83.71,104.08a1.57,1.57,0,0,1,.55-.31l0,0a.24.24,0,0,1,0,.12.67.67,0,0,1-.37.23h-.13A.18.18,0,0,1,83.71,104.08Z"/><path class="cls-49" d="M160.57,85.47h-.1a.24.24,0,0,1-.11.06.58.58,0,0,1-.35-.17.24.24,0,0,1-.06-.11.13.13,0,0,1,.07-.1A2,2,0,0,1,160.57,85.47Z"/><path class="cls-49" d="M169.24,90.47a1.84,1.84,0,0,1,.54.32.21.21,0,0,1-.1.06h-.13a.69.69,0,0,1-.33-.19.16.16,0,0,1-.05-.11A.09.09,0,0,1,169.24,90.47Z"/><path class="cls-50" d="M113.35,87.3a1.31,1.31,0,0,1,.45-.24l.06,0a.25.25,0,0,1,0,.12.54.54,0,0,1-.34.21.31.31,0,0,1-.13,0s0,0,0-.06A.06.06,0,0,1,113.35,87.3Z"/><path class="cls-51" d="M159.36,84.78a1.36,1.36,0,0,1,.44.24.06.06,0,0,1,0,.1.27.27,0,0,1-.12,0,.59.59,0,0,1-.33-.17.18.18,0,0,1-.05-.12A.08.08,0,0,1,159.36,84.78Z"/><path class="cls-51" d="M65.86,114.24v-.07a1.76,1.76,0,0,1,.45-.24l0,0a.17.17,0,0,1,0,.12.54.54,0,0,1-.38.21A.13.13,0,0,1,65.86,114.24Z"/><path class="cls-50" d="M63.67,115.4a1.6,1.6,0,0,1,.45-.23l.06,0a.25.25,0,0,1,0,.12.55.55,0,0,1-.4.21l-.07,0,0,0Z"/><path class="cls-52" d="M166.1,88.67a1.31,1.31,0,0,1,.45.24.08.08,0,0,1,0,.1.28.28,0,0,1-.13,0,.66.66,0,0,1-.33-.17.37.37,0,0,1-.05-.11C166,88.71,166.06,88.68,166.1,88.67Z"/><path class="cls-51" d="M108.32,90.14a1.47,1.47,0,0,1,.45-.23l0,0a.19.19,0,0,1,0,.13.54.54,0,0,1-.33.2.19.19,0,0,1-.13,0,.08.08,0,0,1,0-.07S108.31,90.14,108.32,90.14Z"/><path class="cls-51" d="M125.61,80.43v-.07a1.88,1.88,0,0,1,.44-.24l.06,0a.17.17,0,0,1,0,.12.54.54,0,0,1-.38.21A.13.13,0,0,1,125.61,80.43Z"/><path class="cls-41" d="M116.87,85.3a1.55,1.55,0,0,1,.46-.24.13.13,0,0,1,0,.12.47.47,0,0,1-.4.25h-.07l-.06,0Z"/><path class="cls-51" d="M168.57,90.09a1.53,1.53,0,0,1,.45.25.08.08,0,0,1,0,.1.28.28,0,0,1-.13,0,.77.77,0,0,1-.33-.18.37.37,0,0,1-.05-.11A.11.11,0,0,1,168.57,90.09Z"/><path class="cls-52" d="M163.63,87.24a1.76,1.76,0,0,1,.45.24.08.08,0,0,1,0,.11.27.27,0,0,1-.12,0,.6.6,0,0,1-.34-.18.37.37,0,0,1-.05-.11A.13.13,0,0,1,163.63,87.24Z"/><path class="cls-40" d="M135.49,76.27l.35,0c.12,0,.27-.1.33.1a.51.51,0,0,1-.54.1C135.55,76.41,135.47,76.38,135.49,76.27Z"/><path class="cls-53" d="M120.57,83.28v-.07A1.5,1.5,0,0,1,121,83l0,0a.13.13,0,0,1,0,.12.51.51,0,0,1-.38.21A.17.17,0,0,1,120.57,83.28Z"/><path class="cls-32" d="M106.8,91a1.76,1.76,0,0,1,.45-.24l0,0a.11.11,0,0,1,0,.08s0,0,0,0a.5.5,0,0,1-.4.22l-.06,0,0,0Z"/><path class="cls-50" d="M171.49,91.76v.07a.24.24,0,0,1-.11.06.57.57,0,0,1-.35-.16.27.27,0,0,1-.06-.12.13.13,0,0,1,.07-.09A1.5,1.5,0,0,1,171.49,91.76Z"/><path class="cls-51" d="M103.29,93a1.7,1.7,0,0,1,.44-.24l.06,0a.19.19,0,0,1,0,.13.57.57,0,0,1-.34.2.2.2,0,0,1-.13,0s0,0,0-.07S103.28,93,103.29,93Z"/><path class="cls-32" d="M101.76,93.85a1.78,1.78,0,0,1,.45-.24l0,0a.11.11,0,0,1,0,.08.06.06,0,0,1,0,0,.5.5,0,0,1-.4.22l-.07,0-.05,0Z"/><path class="cls-42" d="M101,94.3a1.6,1.6,0,0,1,.49-.28.16.16,0,0,1,0,.11.39.39,0,0,1-.3.24h-.13A.26.26,0,0,1,101,94.3Z"/><path class="cls-54" d="M176,94.94a1.14,1.14,0,0,1,.34.41.16.16,0,0,1-.11.05.2.2,0,0,1-.11,0,.5.5,0,0,1-.19-.24.23.23,0,0,1,0-.12A.1.1,0,0,1,176,94.94Z"/><path class="cls-51" d="M98.25,95.91v-.07a1.76,1.76,0,0,1,.45-.24l0,0a.17.17,0,0,1,0,.12.49.49,0,0,1-.38.21A.14.14,0,0,1,98.25,95.91Z"/><path class="cls-50" d="M153.06,81.12v.07a.17.17,0,0,1-.11.06.57.57,0,0,1-.35-.16.24.24,0,0,1-.06-.11.13.13,0,0,1,.07-.1A1.76,1.76,0,0,1,153.06,81.12Z"/><path class="cls-32" d="M124.09,81.22a1.31,1.31,0,0,1,.45-.24l0,0a.07.07,0,0,1,0,.08s0,0,0,0a.5.5,0,0,1-.4.22l-.06,0-.05,0Z"/><path class="cls-52" d="M156.89,83.35a1.7,1.7,0,0,1,.44.24.07.07,0,0,1,0,.11l-.12,0a.59.59,0,0,1-.33-.17.16.16,0,0,1-.05-.11A.08.08,0,0,1,156.89,83.35Z"/><path class="cls-32" d="M96.73,96.7a1.31,1.31,0,0,1,.45-.24l0,0a.11.11,0,0,1,0,.08s0,0,0,0a.48.48,0,0,1-.4.22l-.06,0-.05,0Z"/><path class="cls-53" d="M115.54,86.13v-.07a1.31,1.31,0,0,1,.45-.24l.05,0a.19.19,0,0,1,0,.13.58.58,0,0,1-.38.21A.2.2,0,0,1,115.54,86.13Z"/><path class="cls-41" d="M111.83,88.15a1.4,1.4,0,0,1,.47-.24.13.13,0,0,1,0,.12.45.45,0,0,1-.4.25l-.07,0-.05,0Z"/><path class="cls-53" d="M93.22,98.76v-.07a1.7,1.7,0,0,1,.44-.24l.06,0a.25.25,0,0,1,0,.12.55.55,0,0,1-.39.21A.12.12,0,0,1,93.22,98.76Z"/><path class="cls-55" d="M148.78,78.66v.06a.13.13,0,0,1-.11.06.52.52,0,0,1-.34-.16.24.24,0,0,1-.06-.11.1.1,0,0,1,.07-.1A1.61,1.61,0,0,1,148.78,78.66Z"/><path class="cls-42" d="M123.32,81.67a1.38,1.38,0,0,1,.48-.28.13.13,0,0,1,0,.11c0,.15-.17.2-.3.24a.28.28,0,0,1-.13,0A.18.18,0,0,1,123.32,81.67Z"/><path class="cls-56" d="M90.92,100a1.42,1.42,0,0,1,.49-.28.16.16,0,0,1,0,.11.39.39,0,0,1-.3.24.29.29,0,0,1-.13,0A.26.26,0,0,1,90.92,100Z"/><path class="cls-53" d="M88.18,101.61v-.07a1.31,1.31,0,0,1,.45-.24l.05,0a.17.17,0,0,1,0,.12.54.54,0,0,1-.38.21A.17.17,0,0,1,88.18,101.61Z"/><path class="cls-50" d="M86,102.78a1.36,1.36,0,0,1,.44-.24l.06,0a.17.17,0,0,1,0,.12.54.54,0,0,1-.34.21l-.13,0a.09.09,0,0,1,0-.06S86,102.78,86,102.78Z"/><path class="cls-41" d="M84.48,103.63a1.55,1.55,0,0,1,.46-.24.13.13,0,0,1,0,.12.47.47,0,0,1-.41.25h-.07l-.05,0Z"/><path class="cls-50" d="M118.39,84.45a1.31,1.31,0,0,1,.45-.24l0,0a.17.17,0,0,1,0,.12.52.52,0,0,1-.33.21l-.13,0a.09.09,0,0,1,0-.07S118.38,84.45,118.39,84.45Z"/><path class="cls-56" d="M80.86,105.69a1.78,1.78,0,0,1,.48-.28.18.18,0,0,1,0,.12c0,.15-.17.2-.29.24H81A.2.2,0,0,1,80.86,105.69Z"/><path class="cls-50" d="M162.27,86.44v.07a.2.2,0,0,1-.11.06.52.52,0,0,1-.34-.16.24.24,0,0,1-.06-.11.1.1,0,0,1,.07-.1A1.88,1.88,0,0,1,162.27,86.44Z"/><path class="cls-51" d="M75.93,108.47a1.54,1.54,0,0,1,.44-.23l.06,0a.19.19,0,0,1,0,.13.54.54,0,0,1-.33.2.19.19,0,0,1-.13,0,.08.08,0,0,1,0-.07S75.92,108.47,75.93,108.47Z"/><path class="cls-32" d="M74.41,109.33a1.5,1.5,0,0,1,.45-.24l0,0a.07.07,0,0,1,0,.08s0,0,0,0a.5.5,0,0,1-.4.22l-.07,0,0,0Z"/><path class="cls-52" d="M154.42,81.93a1.26,1.26,0,0,1,.44.24.06.06,0,0,1,0,.1.24.24,0,0,1-.12,0,.59.59,0,0,1-.33-.17.18.18,0,0,1-.05-.12A.08.08,0,0,1,154.42,81.93Z"/><path class="cls-51" d="M70.89,111.32a1.76,1.76,0,0,1,.45-.24l0,0a.19.19,0,0,1,0,.13.57.57,0,0,1-.34.2.2.2,0,0,1-.13,0s0,0,0-.07A.1.1,0,0,1,70.89,111.32Z"/><path class="cls-32" d="M69.37,112.18a1.5,1.5,0,0,1,.45-.24l0,0a.11.11,0,0,1,0,.08.06.06,0,0,1,0,0,.51.51,0,0,1-.4.22l-.07,0-.05-.05Z"/><path class="cls-42" d="M68.6,112.63a1.6,1.6,0,0,1,.49-.28.12.12,0,0,1,0,.11c0,.15-.16.2-.29.24h-.13A.26.26,0,0,1,68.6,112.63Z"/><path class="cls-51" d="M150.14,79.46a1.31,1.31,0,0,1,.45.24.07.07,0,0,1,0,.1.27.27,0,0,1-.12,0,.65.65,0,0,1-.34-.17.54.54,0,0,1-.05-.11S150.1,79.47,150.14,79.46Z"/><path class="cls-37" d="M136.15,76.34c-.08-.11-.21-.07-.31-.1a.64.64,0,0,1,.41-.07l.1.09C136.33,76.42,136.25,76.41,136.15,76.34Z"/><path class="cls-57" d="M174.82,93.82a.83.83,0,0,1,.3.26l0,.06a.19.19,0,0,1-.13,0c-.16-.06-.28-.14-.26-.34A.09.09,0,0,1,174.82,93.82Z"/><path class="cls-37" d="M141.09,76.26l.09-.08a.59.59,0,0,1,.41.06.25.25,0,0,1-.15.12l-.19,0C141.16,76.4,141.07,76.39,141.09,76.26Z"/><path class="cls-29" d="M141.38,76.27l.21,0,.35,0c0,.09-.05.13-.12.16a.54.54,0,0,1-.43,0A.08.08,0,0,1,141.38,76.27Z"/><path class="cls-48" d="M61.87,116.55a1,1,0,0,1,.35-.25l0,0a.11.11,0,0,1,0,.11.45.45,0,0,1-.24.21.2.2,0,0,1-.13,0A.1.1,0,0,1,61.87,116.55Z"/><path class="cls-37" d="M135.49,76.27l.1.09c0,.15-.1.14-.2.08a.27.27,0,0,0-.22-.1A.46.46,0,0,1,135.49,76.27Z"/><path class="cls-37" d="M141.85,76.36l.09-.09a.42.42,0,0,1,.31.07.18.18,0,0,1-.08.09.36.36,0,0,1-.17.07C141.91,76.49,141.82,76.48,141.85,76.36Z"/><path class="cls-47" d="M88.74,101.23a.84.84,0,0,1,.38-.21.11.11,0,0,1,0,.11.28.28,0,0,1-.18.17.28.28,0,0,1-.13,0A.16.16,0,0,1,88.74,101.23Z"/><path class="cls-37" d="M142.51,76.36a.39.39,0,0,1,.31.08.27.27,0,0,1-.07.08.53.53,0,0,1-.17.08c-.09,0-.16,0-.19-.11S142.46,76.4,142.51,76.36Z"/><path class="cls-58" d="M174.34,93.54v-.08a.73.73,0,0,1,.31.24l0,.06a.21.21,0,0,1-.12,0,.26.26,0,0,1-.2-.14A.08.08,0,0,1,174.34,93.54Z"/><path class="cls-32" d="M108.32,90.14v.08a.08.08,0,0,1,0,.09.27.27,0,0,1-.08.07.46.46,0,0,1-.16.07.13.13,0,0,1-.1,0,.09.09,0,0,1,0-.1A.77.77,0,0,1,108.32,90.14Z"/><path class="cls-32" d="M103.29,93a.15.15,0,0,1,0,.07.09.09,0,0,1,0,.1l-.08.07-.16.07a.17.17,0,0,1-.11,0,.1.1,0,0,1,0-.1A.66.66,0,0,1,103.29,93Z"/><path class="cls-32" d="M70.89,111.32v.07a.07.07,0,0,1,0,.1.27.27,0,0,1-.08.07l-.15.07a.15.15,0,0,1-.11,0,.1.1,0,0,1,0-.1A.62.62,0,0,1,70.89,111.32Z"/><path class="cls-32" d="M75.93,108.47v.08a.08.08,0,0,1,0,.09.27.27,0,0,1-.08.07.46.46,0,0,1-.16.07.13.13,0,0,1-.1,0,.08.08,0,0,1,0-.1A.66.66,0,0,1,75.93,108.47Z"/><path class="cls-32" d="M69.09,112.45v-.1l.18-.1a.07.07,0,0,1,.1,0h0s0,0,0,.08,0,0,0,0S69.22,112.54,69.09,112.45Z"/><path class="cls-48" d="M61.36,117a.37.37,0,0,1,.2-.17.08.08,0,0,1,.11,0c.06.13,0,.19-.11.24a.17.17,0,0,1-.12,0A.1.1,0,0,1,61.36,117Z"/><path class="cls-59" d="M127.79,79.2v-.07l.28-.15a.16.16,0,0,1,0,.12.24.24,0,0,1-.2.15A.17.17,0,0,1,127.79,79.2Z"/><path class="cls-29" d="M142.51,76.36l-.09.09a.21.21,0,0,1-.27,0,.07.07,0,0,1,0-.12l.11,0Z"/><path class="cls-60" d="M60.21,118.15l.22-.22,0,0a.26.26,0,0,1,0,.11.33.33,0,0,1-.14.19.22.22,0,0,1-.11,0A.13.13,0,0,1,60.21,118.15Z"/><path class="cls-57" d="M60,118.52l.09-.19a.18.18,0,0,1,.12,0l.07,0,0,.06a.2.2,0,0,1-.17.19A.16.16,0,0,1,60,118.52Z"/><path class="cls-59" d="M100.43,94.68a.2.2,0,0,0,0-.07l.27-.15a.13.13,0,0,1,0,.12.23.23,0,0,1-.2.15A.18.18,0,0,1,100.43,94.68Z"/><path class="cls-29" d="M142.71,76.46l.11,0,.26,0,0,.06,0,0a.28.28,0,0,1-.12,0,.36.36,0,0,1-.25-.05A.07.07,0,0,1,142.71,76.46Z"/><path class="cls-61" d="M133.87,76.57l.1,0a.46.46,0,0,1,.2,0c.07,0,.12.06.1.14a.27.27,0,0,1-.25.08.33.33,0,0,1-.13,0s0-.05,0-.07S133.86,76.57,133.87,76.57Z"/><path class="cls-40" d="M143.46,76.55v.09a.3.3,0,0,1-.36,0,.11.11,0,0,1,0-.14h0a.2.2,0,0,1,.21,0Z"/><path class="cls-38" d="M94.26,98.1l.18-.1s.07,0,.1,0h0a.09.09,0,0,1,0,.11.26.26,0,0,1-.2.13.17.17,0,0,1-.12,0S94.23,98.14,94.26,98.1Z"/><path class="cls-59" d="M95.4,97.53v-.08l.28-.14a.16.16,0,0,1,0,.12.24.24,0,0,1-.2.15A.17.17,0,0,1,95.4,97.53Z"/><path class="cls-32" d="M81.34,105.52v-.11l.18-.09s.07,0,.11,0h0a.11.11,0,0,1,0,.08s0,0,0,0S81.47,105.6,81.34,105.52Z"/><path class="cls-28" d="M176.36,95.42a.49.49,0,0,1,.19.28l0,0a.1.1,0,0,1-.1,0,.29.29,0,0,1-.14-.2.2.2,0,0,1,0-.11Z"/><path class="cls-62" d="M173.77,93.09v.07a.2.2,0,0,1-.11.06.25.25,0,0,1-.16-.08.21.21,0,0,1-.06-.1.09.09,0,0,1,.07-.09A.48.48,0,0,1,173.77,93.09Z"/><path class="cls-63" d="M83.15,104.46v-.07l.27-.15a.15.15,0,0,1,0,.12.18.18,0,0,1-.31.1Z"/><path class="cls-59" d="M105.47,91.83v-.07l.27-.15a.13.13,0,0,1,.05.12.24.24,0,0,1-.21.15A.16.16,0,0,1,105.47,91.83Z"/><path class="cls-52" d="M80.3,106.09V106l.27-.14a.13.13,0,0,1,0,.13C80.53,106.11,80.44,106.17,80.3,106.09Z"/><path class="cls-59" d="M78.11,107.31v-.07l.28-.15a.19.19,0,0,1,0,.12.24.24,0,0,1-.2.15A.17.17,0,0,1,78.11,107.31Z"/><path class="cls-59" d="M73.08,110.16v-.07l.27-.15a.11.11,0,0,1,0,.12.22.22,0,0,1-.2.15A.16.16,0,0,1,73.08,110.16Z"/><path class="cls-64" d="M170.16,91v.08a.21.21,0,0,1-.1.06.27.27,0,0,1-.2-.12.25.25,0,0,1,0-.12l0,0A.62.62,0,0,1,170.16,91Z"/><path class="cls-52" d="M110.5,89v-.07l.28-.15a.15.15,0,0,1,0,.12.18.18,0,0,1-.32.1Z"/><path class="cls-59" d="M68,113v-.07l.28-.15a.13.13,0,0,1,0,.12.24.24,0,0,1-.2.15A.18.18,0,0,1,68,113Z"/><path class="cls-38" d="M66.91,113.69v-.11l.18-.1a.07.07,0,0,1,.11,0h0a.11.11,0,0,1,0,.08s0,0,0,0S67,113.77,66.91,113.69Z"/><path class="cls-47" d="M93.88,98.31a.09.09,0,0,1,.07,0,.17.17,0,0,1,.12,0,.14.14,0,0,1,0,.11.2.2,0,0,1-.19.13.11.11,0,0,1,0-.2Z"/><path class="cls-47" d="M157.33,83.66v-.07a.42.42,0,0,1,.22.14l0,0a.12.12,0,0,1-.1,0,.21.21,0,0,1-.11,0A.09.09,0,0,1,157.33,83.66Z"/><path class="cls-31" d="M145.12,77l.15,0,0,.06,0,0-.12,0a.28.28,0,0,1-.18-.06.09.09,0,0,1,0-.11h0A.11.11,0,0,1,145.12,77Z"/><path class="cls-27" d="M134.25,76.63l-.11-.09c0-.05,0-.07,0-.08h.17v.08a.09.09,0,0,1,0,.07s0,0,0,0A.09.09,0,0,1,134.25,76.63Z"/><path class="cls-42" d="M164.08,87.56v-.08a.52.52,0,0,1,.22.14l0,0a.17.17,0,0,1-.11.06.19.19,0,0,1-.1,0A.07.07,0,0,1,164.08,87.56Z"/><path class="cls-31" d="M145.4,77.1l.15,0,0,.05,0,.06a.34.34,0,0,1-.12,0,.22.22,0,0,1-.17-.06s0-.07,0-.11h0A.11.11,0,0,1,145.4,77.1Z"/><path class="cls-37" d="M130.07,77.87V78c0,.07,0,.1-.08.11l-.1-.07V78A.26.26,0,0,1,130.07,77.87Z"/><path class="cls-41" d="M118.39,84.45v.07a.09.09,0,0,1,0,.06s0,0,0,0a.22.22,0,0,1-.11,0,.19.19,0,0,1-.1,0l0,0A.36.36,0,0,1,118.39,84.45Z"/><path class="cls-49" d="M150.59,79.77V79.7a.38.38,0,0,1,.22.14l0,0a.14.14,0,0,1-.11,0,.14.14,0,0,1-.1,0A.07.07,0,0,1,150.59,79.77Z"/><path class="cls-49" d="M169,90.4v-.06a.42.42,0,0,1,.22.13l0,0a.24.24,0,0,1-.11.06.27.27,0,0,1-.11,0A.09.09,0,0,1,169,90.4Z"/><path class="cls-61" d="M133.49,76.66l.28,0a.09.09,0,0,1,0,.11.22.22,0,0,1-.17.09l-.12,0a.06.06,0,0,1,0-.07S133.48,76.66,133.49,76.66Z"/><path class="cls-31" d="M146.12,77.33l-.1.07a.12.12,0,0,1-.15,0,.14.14,0,0,1-.07-.08.11.11,0,0,1,0-.09l.11,0Z"/><path class="cls-27" d="M133.49,76.66v.07a.07.07,0,0,1,0,.06s0,0,0,0a.2.2,0,0,1-.11,0,.18.18,0,0,1-.11-.14A.24.24,0,0,1,133.49,76.66Z"/><path class="cls-57" d="M175.12,94.08l.16.13a.07.07,0,0,1,0,.06.06.06,0,0,1,0,0l-.06,0h-.06a.18.18,0,0,1-.09-.06l0,0a.1.1,0,0,1,0-.11Z"/><path class="cls-41" d="M86,102.78v.07a.09.09,0,0,1,0,.06.06.06,0,0,1,0,0,.22.22,0,0,1-.11,0,.16.16,0,0,1-.1,0l0,0A.36.36,0,0,1,86,102.78Z"/><path class="cls-41" d="M113.35,87.3v.07a.06.06,0,0,1,0,.06.06.06,0,0,1,0,0,.27.27,0,0,1-.11,0,.17.17,0,0,1-.11-.06l0,0A.42.42,0,0,1,113.35,87.3Z"/><path class="cls-31" d="M145.69,77.19l.15,0a0,0,0,0,1,0,0l0,0h0a.26.26,0,0,1-.11.07.22.22,0,0,1-.19-.05.09.09,0,0,1,0-.11h0A.11.11,0,0,1,145.69,77.19Z"/><path class="cls-61" d="M133.29,76.72l.11.1a.19.19,0,0,1-.17.08l-.11,0a.06.06,0,0,1,0-.07s0,0,0,0Z"/><path class="cls-42" d="M154.86,82.24v-.07a.36.36,0,0,1,.22.13l0,0a.14.14,0,0,1-.21,0A.08.08,0,0,1,154.86,82.24Z"/><path class="cls-49" d="M159.8,85.09V85a.38.38,0,0,1,.22.13l0,0a.16.16,0,0,1-.1,0,.22.22,0,0,1-.11,0A.08.08,0,0,1,159.8,85.09Z"/><path class="cls-47" d="M166.55,89v-.07a.38.38,0,0,1,.22.14l0,0a.16.16,0,0,1-.11,0,.14.14,0,0,1-.1,0A.07.07,0,0,1,166.55,89Z"/><path class="cls-42" d="M128.08,79.11V79a.09.09,0,0,1,.1-.06.12.12,0,0,1,.05.11C128.19,79.09,128.15,79.13,128.08,79.11Z"/><path class="cls-53" d="M121.13,82.9h.1a.05.05,0,0,1,0,.06s0,0,0,0a.21.21,0,0,1-.11,0,.14.14,0,0,1-.1,0l0,0A.12.12,0,0,1,121.13,82.9Z"/><path class="cls-52" d="M111.06,88.6h.11a.09.09,0,0,1,0,.07s0,0,0,0a.21.21,0,0,1-.1.06.27.27,0,0,1-.12,0l0-.06A.13.13,0,0,1,111.06,88.6Z"/><path class="cls-51" d="M149.93,79.39h.1a.11.11,0,0,1,.11.07l0,0a.12.12,0,0,1-.1.05.16.16,0,0,1-.11-.05A.07.07,0,0,1,149.93,79.39Z"/><path class="cls-50" d="M161.61,86.13h.1a.13.13,0,0,1,.12.07l0,0a.14.14,0,0,1-.11,0,.18.18,0,0,1-.1,0A.09.09,0,0,1,161.61,86.13Z"/><path class="cls-52" d="M156.67,83.29h.1a.12.12,0,0,1,.12.07l0,0a.14.14,0,0,1-.1.05.18.18,0,0,1-.11,0A.08.08,0,0,1,156.67,83.29Z"/><path class="cls-53" d="M93.88,98.39v.08a.11.11,0,0,1-.09.06.14.14,0,0,1-.1,0l0,0a.19.19,0,0,1,.12-.07A.06.06,0,0,1,93.88,98.39Z"/><path class="cls-52" d="M165.89,88.6h.1a.11.11,0,0,1,.11.07l0,0a.14.14,0,0,1-.1,0,.21.21,0,0,1-.11,0A.08.08,0,0,1,165.89,88.6Z"/><path class="cls-51" d="M126.17,80.05h.1s0,0,0,.06,0,0,0,0a.31.31,0,0,1-.1,0,.24.24,0,0,1-.11-.06l0,0A.19.19,0,0,1,126.17,80.05Z"/><path class="cls-32" d="M91.48,99.68a.11.11,0,0,1,.11-.06s.07,0,.1,0h0a.06.06,0,0,1,0,.09.15.15,0,0,1-.09.06.17.17,0,0,1-.1,0A.08.08,0,0,1,91.48,99.68Z"/><path class="cls-32" d="M101.55,94a.11.11,0,0,1,.11-.07s.07,0,.1,0h0a.06.06,0,0,1,0,.09.15.15,0,0,1-.09.06.2.2,0,0,1-.11,0S101.54,94,101.55,94Z"/><path class="cls-33" d="M90.92,100H91a.09.09,0,0,1,0,.06s0,0,0,0a.16.16,0,0,1-.11.05.19.19,0,0,1-.1-.05l0,0Z"/><path class="cls-47" d="M110.79,88.89v-.13a.1.1,0,0,1,.1-.06.16.16,0,0,1,.05.11C110.9,88.87,110.87,88.92,110.79,88.89Z"/><path class="cls-22" d="M134.18,76.46a.3.3,0,0,1,0,.08l-.17,0A.21.21,0,0,1,134.18,76.46Z"/><path class="cls-62" d="M173.3,92.88h.1a.13.13,0,0,1,.11.08l0,0a.21.21,0,0,1-.1.06.22.22,0,0,1-.11,0A.07.07,0,0,1,173.3,92.88Z"/><path class="cls-33" d="M89.29,100.92a.13.13,0,0,1,.12-.07.07.07,0,0,1,.1,0h0s0,0,0,.06,0,0,0,0l-.1.05a.27.27,0,0,1-.12,0Z"/><path class="cls-47" d="M89.13,101.14V101a.11.11,0,0,1,.11-.07.15.15,0,0,1,0,.11C89.24,101.13,89.21,101.17,89.13,101.14Z"/><path class="cls-53" d="M88.74,101.23h.1a.06.06,0,0,1,0,.06.1.1,0,0,1,0,0,.21.21,0,0,1-.11,0,.12.12,0,0,1-.1,0l0,0A.11.11,0,0,1,88.74,101.23Z"/><path class="cls-50" d="M86.56,102.47h.1a.09.09,0,0,1,0,.06s0,0,0,0a.19.19,0,0,1-.1.05.19.19,0,0,1-.11-.05l0,0A.13.13,0,0,1,86.56,102.47Z"/><path class="cls-59" d="M96,97.15h.1a.07.07,0,0,1,0,.09.24.24,0,0,1-.09.06.21.21,0,0,1-.11,0,.08.08,0,0,1-.05-.08A.11.11,0,0,1,96,97.15Z"/><path class="cls-51" d="M103.85,92.68h.1a.09.09,0,0,1,0,.06s0,0,0,0a.22.22,0,0,1-.11,0,.21.21,0,0,1-.1-.06l0,0Z"/><path class="cls-30" d="M85,103.51v-.12a.1.1,0,0,1,.1-.07v.11C85.06,103.51,85,103.54,85,103.51Z"/><path class="cls-41" d="M84.26,103.77l.11-.07s.07,0,.1,0h0a.09.09,0,0,1,0,.07.1.1,0,0,1,0,0,.21.21,0,0,1-.11,0,.14.14,0,0,1-.1,0Z"/><path class="cls-63" d="M83.71,104.08h.1a.06.06,0,0,1,0,.06s0,0,0,0a.31.31,0,0,1-.1,0,.2.2,0,0,1-.11,0l0-.06A.11.11,0,0,1,83.71,104.08Z"/><path class="cls-47" d="M83.43,104.37v-.13a.11.11,0,0,1,.11-.06.15.15,0,0,1,0,.11C83.55,104.35,83.51,104.4,83.43,104.37Z"/><path class="cls-44" d="M143.3,76.53h-.21a.17.17,0,0,1,0-.07A.28.28,0,0,1,143.3,76.53Z"/><path class="cls-40" d="M133.78,76.73v-.12a.08.08,0,0,1,.1,0v.06s0,0,0,.07a.1.1,0,0,1,0,0A.11.11,0,0,1,133.78,76.73Z"/><path class="cls-52" d="M80.86,105.69H81a.08.08,0,0,1,0,.09.15.15,0,0,1-.09.06.4.4,0,0,1-.11,0,.08.08,0,0,1,0-.09C80.77,105.71,80.81,105.7,80.86,105.69Z"/><path class="cls-50" d="M113.92,87H114a.07.07,0,0,1,0,.06s0,0,0,0a.22.22,0,0,1-.11,0,.19.19,0,0,1-.1,0l0,0A.13.13,0,0,1,113.92,87Z"/><path class="cls-56" d="M80.58,106v-.12a.11.11,0,0,1,.11-.07.15.15,0,0,1,0,.11C80.7,106,80.66,106,80.58,106Z"/><path class="cls-30" d="M103,93.16v.11c0,.08,0,.1-.1.08v-.12A.11.11,0,0,1,103,93.16Z"/><path class="cls-47" d="M105.75,91.74v-.13a.11.11,0,0,1,.11-.06.11.11,0,0,1,0,.11A.11.11,0,0,1,105.75,91.74Z"/><path class="cls-59" d="M78.67,106.93l.11.09a.16.16,0,0,1-.08.06.17.17,0,0,1-.1,0s0,0,0-.08A.11.11,0,0,1,78.67,106.93Z"/><path class="cls-50" d="M170.82,91.45h.11a.11.11,0,0,1,.11.07l0,0a.14.14,0,0,1-.1,0,.21.21,0,0,1-.11,0A.09.09,0,0,1,170.82,91.45Z"/><path class="cls-47" d="M78.4,107.22v-.13a.1.1,0,0,1,.1-.06.16.16,0,0,1,.05.11C78.51,107.2,78.47,107.24,78.4,107.22Z"/><path class="cls-50" d="M119,84.14h.1s0,0,0,.06,0,0,0,0a.19.19,0,0,1-.1.05.22.22,0,0,1-.11-.05l0,0A.11.11,0,0,1,119,84.14Z"/><path class="cls-51" d="M76.49,108.16h.1s0,0,0,.06,0,0,0,0a.19.19,0,0,1-.1,0,.24.24,0,0,1-.11-.06l0,0Z"/><path class="cls-42" d="M100.72,94.59v-.13a.1.1,0,0,1,.1-.06.12.12,0,0,1,0,.11C100.83,94.57,100.8,94.61,100.72,94.59Z"/><path class="cls-30" d="M75.64,108.64v.11c0,.08,0,.1-.1.08v-.12A.1.1,0,0,1,75.64,108.64Z"/><path class="cls-59" d="M106,91.45h.1a.06.06,0,0,1,0,.09.16.16,0,0,1-.08.06.2.2,0,0,1-.11,0s-.06,0,0-.08A.11.11,0,0,1,106,91.45Z"/><path class="cls-27" d="M133.11,76.75v.07a.09.09,0,0,1,0,.08s0,0,0,0a.14.14,0,0,1-.12,0,.09.09,0,0,1,0-.12A.1.1,0,0,1,133.11,76.75Z"/><path class="cls-32" d="M74.32,109.5l-.15,0,.13-.08a.08.08,0,0,1,.11,0h0a.09.09,0,0,1,0,.07,0,0,0,0,1,0,0A.08.08,0,0,1,74.32,109.5Z"/><path class="cls-59" d="M73.64,109.78h.1a.08.08,0,0,1,0,.09.16.16,0,0,1-.08.06h-.11s-.06,0,0-.08A.11.11,0,0,1,73.64,109.78Z"/><path class="cls-42" d="M73.36,110.07v-.13s.06-.06.11-.06a.15.15,0,0,1,0,.11A.11.11,0,0,1,73.36,110.07Z"/><path class="cls-42" d="M95.69,97.44v-.13s0-.06.1-.06a.11.11,0,0,1,0,.11C95.8,97.42,95.76,97.46,95.69,97.44Z"/><path class="cls-32" d="M106.58,91.14l.12-.07s.06,0,.1,0h0a.09.09,0,0,1,0,.07s0,0,0,0a.21.21,0,0,1-.11,0,.14.14,0,0,1-.1,0Z"/><path class="cls-50" d="M152.4,80.82h.1a.12.12,0,0,1,.11.07l0,0a.17.17,0,0,1-.1.06.22.22,0,0,1-.11,0A.07.07,0,0,1,152.4,80.82Z"/><path class="cls-61" d="M133,76.79l0,.13a.15.15,0,0,1-.19,0v-.09Z"/><path class="cls-51" d="M71.45,111h.1a.07.07,0,0,1,0,.06.06.06,0,0,1,0,0,.22.22,0,0,1-.11,0,.21.21,0,0,1-.1-.06l0,0Z"/><path class="cls-52" d="M163.42,87.18h.1a.14.14,0,0,1,.11.07l0,0a.21.21,0,0,1-.1.06.22.22,0,0,1-.11,0A.07.07,0,0,1,163.42,87.18Z"/><path class="cls-64" d="M169.69,90.79h.09l.11.07,0,0a.21.21,0,0,1-.1.06.22.22,0,0,1-.11,0A.07.07,0,0,1,169.69,90.79Z"/><path class="cls-31" d="M70.61,111.49v.11c0,.08,0,.1-.1.08v-.12A.11.11,0,0,1,70.61,111.49Z"/><path class="cls-47" d="M94.07,98.21l.06,0a.11.11,0,0,1,.13,0h0c0,.13-.09.14-.19.09h0s0,0,0-.06S94.06,98.21,94.07,98.21Z"/><path class="cls-59" d="M101,94.3h.11a.08.08,0,0,1,0,.09.15.15,0,0,1-.09.06h-.11a.09.09,0,0,1-.05-.08A.13.13,0,0,1,101,94.3Z"/><path class="cls-59" d="M68.6,112.63h.1a.07.07,0,0,1,0,.09.18.18,0,0,1-.09.06.21.21,0,0,1-.11,0,.09.09,0,0,1-.05-.08A.11.11,0,0,1,68.6,112.63Z"/><path class="cls-42" d="M68.33,112.92v-.13a.09.09,0,0,1,.1-.06.14.14,0,0,1,0,.11C68.44,112.9,68.4,112.94,68.33,112.92Z"/><path class="cls-32" d="M123.87,81.35a.11.11,0,0,1,.11-.06.08.08,0,0,1,.11,0h0a.08.08,0,0,1,0,.09.24.24,0,0,1-.09.06.2.2,0,0,1-.11,0A.09.09,0,0,1,123.87,81.35Z"/><path class="cls-51" d="M159.14,84.71h.1a.13.13,0,0,1,.12.07l0,0a.19.19,0,0,1-.11,0,.19.19,0,0,1-.1,0A.08.08,0,0,1,159.14,84.71Z"/><path class="cls-30" d="M117.34,85.18v-.12a.11.11,0,0,1,.11-.07v.11C117.45,85.18,117.42,85.21,117.34,85.18Z"/><path class="cls-51" d="M66.42,113.86l.1.09a.1.1,0,0,1-.09.06.14.14,0,0,1-.1-.05l0,0A.14.14,0,0,1,66.42,113.86Z"/><path class="cls-33" d="M123.32,81.67h.1s0,0,0,.06,0,0,0,0a.14.14,0,0,1-.1,0,.19.19,0,0,1-.11,0l0,0Z"/><path class="cls-51" d="M98.81,95.53h.1a.06.06,0,0,1,0,.06.1.1,0,0,1,0,0,.22.22,0,0,1-.11,0,.17.17,0,0,1-.1-.06l0,0Z"/><path class="cls-39" d="M79.35,106.65l-.15,0,.14-.08a.07.07,0,0,1,.1,0h0s0,0,0,.07,0,0,0,0A.08.08,0,0,1,79.35,106.65Z"/><path class="cls-52" d="M154.2,81.86h.11a.11.11,0,0,1,.11.07l0,0a.19.19,0,0,1-.1.05.14.14,0,0,1-.11-.05A.08.08,0,0,1,154.2,81.86Z"/><path class="cls-58" d="M174.82,93.82h-.12a.09.09,0,0,1-.1,0,.08.08,0,0,1,0-.1l0,0A.3.3,0,0,1,174.82,93.82Z"/><path class="cls-30" d="M108,90.31v.11c0,.08,0,.1-.1.08v-.12A.1.1,0,0,1,108,90.31Z"/><path class="cls-50" d="M63.58,115.58l-.09-.07a.08.08,0,0,1,.08,0,.07.07,0,0,1,.1,0h0s0,0,0,.07,0,0,0,0A.08.08,0,0,1,63.58,115.58Z"/><path class="cls-50" d="M64.24,115.1h.1a.09.09,0,0,1,0,.06s0,0,0,0a.16.16,0,0,1-.11,0,.14.14,0,0,1-.1,0l0,0A.11.11,0,0,1,64.24,115.1Z"/><path class="cls-30" d="M112.31,88v-.12a.1.1,0,0,1,.1-.07V88C112.42,88,112.38,88.06,112.31,88Z"/><path class="cls-37" d="M129.79,78.16V78l.1-.06v0a.17.17,0,0,1,0,.11C129.9,78.15,129.86,78.19,129.79,78.16Z"/><path class="cls-41" d="M116.65,85.44l.11-.07a.08.08,0,0,1,.11,0h0a.09.09,0,0,1,0,.07s0,0,0,0a.21.21,0,0,1-.11,0,.14.14,0,0,1-.1,0Z"/><path class="cls-51" d="M168.36,90h.1a.14.14,0,0,1,.11.07l0,0a.21.21,0,0,1-.1.06.22.22,0,0,1-.11-.05A.07.07,0,0,1,168.36,90Z"/><path class="cls-55" d="M148.12,78.35h.1a.19.19,0,0,1,.12.07l0,0a.21.21,0,0,1-.1.06.19.19,0,0,1-.11,0A.08.08,0,0,1,148.12,78.35Z"/><path class="cls-27" d="M128.9,78.51l.12-.07a.07.07,0,0,1,.1,0h0s0,0,0,.07,0,0,0,0a.14.14,0,0,1-.1,0,.14.14,0,0,1-.11,0Z"/><path class="cls-57" d="M60,118.71h-.11a.09.09,0,0,1,.07-.1.11.11,0,0,1,.12,0C60.09,118.67,60.07,118.72,60,118.71Z"/><path class="cls-51" d="M108.88,89.84h.1a.07.07,0,0,1,0,.06.06.06,0,0,1,0,0,.27.27,0,0,1-.11,0,.13.13,0,0,1-.1-.06l0,0Z"/><path class="cls-32" d="M96.51,96.84l.12-.07a.07.07,0,0,1,.1,0h0a.09.09,0,0,1,0,.07s0,0,0,0a.16.16,0,0,1-.11,0,.14.14,0,0,1-.1,0Z"/><path class="cls-33" d="M121.68,82.59l.12-.07a.07.07,0,0,1,.1,0h0a.06.06,0,0,1,0,.06s0,0,0,0a.18.18,0,0,1-.1,0,.16.16,0,0,1-.11,0Z"/><path class="cls-53" d="M116.1,85.75h.1a.07.07,0,0,1,0,.06s0,0,0,0a.18.18,0,0,1-.1,0,.16.16,0,0,1-.11-.05l0,0A.11.11,0,0,1,116.1,85.75Z"/><path class="cls-59" d="M128.35,78.82h.1a.07.07,0,0,1,0,.09.24.24,0,0,1-.09.06.21.21,0,0,1-.11,0,.07.07,0,0,1,0-.08A.11.11,0,0,1,128.35,78.82Z"/><path class="cls-41" d="M111.61,88.29l.12-.07s.07,0,.1,0h0a.08.08,0,0,1,0,.07s0,0,0,0a.18.18,0,0,1-.1,0,.16.16,0,0,1-.11-.05Z"/><path class="cls-48" d="M62.9,115.86,63,116a.21.21,0,0,1-.1.06.16.16,0,0,1-.09-.05l0,0A.11.11,0,0,1,62.9,115.86Z"/><path class="cls-47" d="M116.87,85.37h-.11l.11-.07Z"/><path class="cls-47" d="M111.83,88.22h-.1l.1-.07Z"/><path class="cls-52" d="M110.88,88.81V88.7a.11.11,0,0,1,.07,0l0,0a.09.09,0,0,1,0,.06s0,0,0,0A.09.09,0,0,1,110.88,88.81Z"/><path class="cls-65" d="M175.38,94.3l.1.09,0,0a.16.16,0,0,1-.07-.07Z"/><path class="cls-59" d="M100.82,94.5v-.1a.11.11,0,0,1,.07,0l0,0a.09.09,0,0,1,0,.06.06.06,0,0,1,0,0A.11.11,0,0,1,100.82,94.5Z"/><path class="cls-65" d="M175.48,94.39l.1.1-.05,0h-.06l0-.05,0-.06Z"/><path class="cls-65" d="M175.58,94.49l.09.09,0,0h-.05l0,0,0,0Z"/><path class="cls-65" d="M175.67,94.58l.1.1-.06,0s-.06-.06-.05-.1Z"/><path class="cls-65" d="M175.77,94.68l.09.1h-.06a.08.08,0,0,1,0-.1Z"/><path class="cls-65" d="M175.86,94.78l.08.09a.07.07,0,0,1-.1,0s0-.06,0-.1Z"/><path class="cls-54" d="M175.86,94.87h.08a.1.1,0,0,1,0,.07l0,0,0,0-.06,0A.09.09,0,0,1,175.86,94.87Z"/><path class="cls-28" d="M176.24,95.35h.08a.16.16,0,0,1,0,.07l0,0-.05,0-.06,0A.08.08,0,0,1,176.24,95.35Z"/><path class="cls-42" d="M101.76,93.92h-.1l.1-.07Z"/><path class="cls-42" d="M96.73,96.77h-.1l.1-.07Z"/><path class="cls-59" d="M95.78,97.35v-.1a.09.09,0,0,1,.07,0l0,0a.09.09,0,0,1,0,.06s0,0,0,0A.11.11,0,0,1,95.78,97.35Z"/><path class="cls-47" d="M94.54,98h-.1l.11-.07Z"/><path class="cls-47" d="M94.26,98.2l-.13,0,.13-.08Z"/><path class="cls-47" d="M94.07,98.21v.08H94Z"/><path class="cls-47" d="M93.88,98.39h-.1l.1-.07Z"/><path class="cls-56" d="M91.69,99.62h-.1l.11-.07Z"/><path class="cls-32" d="M91.41,99.82v-.1l.07,0,0,0a.09.09,0,0,1,0,.06s0,0,0,0A.11.11,0,0,1,91.41,99.82Z"/><path class="cls-47" d="M89.51,100.85h-.1l.1-.07Z"/><path class="cls-47" d="M89.23,101.06V101a.07.07,0,0,1,.06,0l0,0s0,0,0,.07a0,0,0,0,1,0,0A.09.09,0,0,1,89.23,101.06Z"/><path class="cls-66" d="M145.12,77,145,77s0,0,0-.08Z"/><path class="cls-32" d="M101.48,94.12V94a.09.09,0,0,1,.07,0l0,0a.07.07,0,0,1,0,.06s0,0,0,0A.11.11,0,0,1,101.48,94.12Z"/><path class="cls-47" d="M84.47,103.7h-.1l.11-.07A.15.15,0,0,1,84.47,103.7Z"/><path class="cls-66" d="M145.4,77.1h-.13V77Z"/><path class="cls-63" d="M83.53,104.29v-.11a.09.09,0,0,1,.07,0l0,0s0,0,0,.07a0,0,0,0,1,0,0A.09.09,0,0,1,83.53,104.29Z"/><path class="cls-66" d="M145.69,77.19l-.13,0v-.08Z"/><path class="cls-56" d="M81.63,105.32h-.11l.11-.07Z"/><path class="cls-37" d="M145.84,77.3v-.07l.12.06Z"/><path class="cls-52" d="M80.68,105.9v-.11a.08.08,0,0,1,.07,0l0,0a.06.06,0,0,1,0,.07.1.1,0,0,1,0,0A.11.11,0,0,1,80.68,105.9Z"/><path class="cls-47" d="M79.44,106.55h-.1l.1-.07Z"/><path class="cls-59" d="M105.85,91.65v-.1a.09.09,0,0,1,.07,0l0,0s0,0,0,.06,0,0,0,0A.08.08,0,0,1,105.85,91.65Z"/><path class="cls-42" d="M129.12,78.44H129l.1-.07Z"/><path class="cls-59" d="M78.49,107.14V107a.09.09,0,0,1,.07,0l0,0a.09.09,0,0,1,0,.06s0,0,0,0A.09.09,0,0,1,78.49,107.14Z"/><path class="cls-42" d="M74.41,109.4H74.3l.11-.07Z"/><path class="cls-59" d="M128.17,79v-.1a.09.09,0,0,1,.07,0l0,0a.09.09,0,0,1,0,.06s0,0,0,0A.11.11,0,0,1,128.17,79Z"/><path class="cls-59" d="M73.46,110v-.1a.09.09,0,0,1,.07,0l0,0s0,0,0,.06a.06.06,0,0,1,0,0A.09.09,0,0,1,73.46,110Z"/><path class="cls-47" d="M106.8,91.07h-.1l.1-.07Z"/><path class="cls-65" d="M175.29,94.3a.28.28,0,0,0,0-.09l.1.09h0A.05.05,0,0,1,175.29,94.3Z"/><path class="cls-42" d="M69.37,112.25h-.1l.1-.07Z"/><path class="cls-59" d="M68.42,112.83v-.1a.09.09,0,0,1,.07,0l0,0a.09.09,0,0,1,0,.06s0,0,0,0A.11.11,0,0,1,68.42,112.83Z"/><path class="cls-47" d="M67.19,113.49h-.11l.11-.07Z"/><path class="cls-42" d="M124.09,81.29H124l.11-.07Z"/><path class="cls-45" d="M63.67,115.48h-.1l.1-.08Z"/><path class="cls-32" d="M123.81,81.49v-.1l.07,0,0,0a.09.09,0,0,1,0,.06s0,0,0,0A.09.09,0,0,1,123.81,81.49Z"/><path class="cls-57" d="M61.87,116.55v.07l0,0h0l0,0Z"/><path class="cls-57" d="M61.67,116.71l.1-.09h0l0,.05,0,0-.05,0Z"/><path class="cls-57" d="M61.68,116.82l-.12,0,.11-.09h0l0,0Z"/><path class="cls-67" d="M61.2,117.09l.1-.08a.06.06,0,0,1,0,.09l0,0Z"/><path class="cls-57" d="M61.3,117.09V117s0,0,.06,0l0,0,0,0,0,0-.06,0Z"/><path class="cls-67" d="M61.1,117.19l.1-.1,0,0a.09.09,0,0,1,0,.09h0Z"/><path class="cls-67" d="M61,117.28l.09-.09h0l0,.06,0,0h-.06Z"/><path class="cls-67" d="M60.91,117.37l.1-.09v0l0,0,0,.05h0Z"/><path class="cls-67" d="M60.82,117.47l.09-.1,0,0,0,0,0,0h-.06Z"/><path class="cls-67" d="M60.72,117.57l.1-.1,0,0,0,.05,0,0h-.06Z"/><path class="cls-67" d="M60.63,117.67l.09-.1h0a.1.1,0,0,1,0,.09l0,0Z"/><path class="cls-67" d="M60.55,117.76l.08-.09h0a.06.06,0,0,1,0,.08l0,0Z"/><path class="cls-60" d="M60.55,117.76h.08l0,0,0,0,0,0h-.05l0,0A.1.1,0,0,1,60.55,117.76Z"/><path class="cls-60" d="M60.43,117.93l.08-.1,0,0,0,0,0,0a.07.07,0,0,1-.1,0Z"/><path class="cls-22" d="M60.21,118.15a.08.08,0,0,1,0,0l0,.06h-.06l0,0Z"/><path class="cls-22" d="M60.13,118.32h-.06l.07-.11h0Q60.24,118.31,60.13,118.32Z"/><path class="cls-25" d="M60.06,118.61h-.12l0-.09h.1A.06.06,0,0,1,60.06,118.61Z"/><path class="cls-47" d="M121.9,82.52h-.1l.1-.07Z"/><path class="cls-68" d="M175.39,102.1a10.22,10.22,0,0,1-2.31,1.72l-22.92,13q-21.32,12.06-42.61,24.12a18.25,18.25,0,0,1-6.51,2.23,21.72,21.72,0,0,1-9.21-.6,15.71,15.71,0,0,1-3.48-1.48L63.49,126.7A11.51,11.51,0,0,1,61.13,125c-.07-.24.13-.34.25-.47a9.8,9.8,0,0,1,2.31-1.64c3.56-2,7.1-4,10.66-6l11.19-6.33,8.26-4.68,10.58-6c3.18-1.79,6.36-3.6,9.54-5.4s6.46-3.67,9.7-5.49c2.26-1.25,4.45-2.61,6.77-3.75a16.76,16.76,0,0,1,5.55-1.54,19.66,19.66,0,0,1,3.16-.2,20,20,0,0,1,9.76,2.7c3.6,2.15,7.26,4.2,10.89,6.29,3.09,1.78,6.17,3.55,9.25,5.35,1.65,1,3.33,1.87,4.95,2.89a6.45,6.45,0,0,1,1.22,1C175.28,101.78,175.45,101.89,175.39,102.1Z"/><path class="cls-69" d="M175.39,102.1a7.24,7.24,0,0,0-2.13-1.72L148.11,85.86a16.83,16.83,0,0,0-5.47-1.92,21.79,21.79,0,0,0-3.78-.35,20.32,20.32,0,0,0-10.49,2.77C122.72,89.65,117,92.82,111.32,96L92.37,106.76,76.1,116l-12.8,7.25A7,7,0,0,0,61.13,125c-.1.05-.18.13-.3.08a.57.57,0,0,0-.21-.3,5.44,5.44,0,0,1-1.39-3.3,4.48,4.48,0,0,1,.32-1.8l.14-.36.08-.1s0-.06,0-.09a.39.39,0,0,0,.08-.1s0-.06,0-.09l.08-.1s0-.06,0-.09l.08-.1,0-.09a.31.31,0,0,0,.18-.19.39.39,0,0,1,.08-.1l.11-.18a.28.28,0,0,1,.09-.1h0a.26.26,0,0,1,.09-.09h0a.36.36,0,0,0,0-.09l0,0,.06-.08a.16.16,0,0,1,.06-.08h0a.2.2,0,0,1,.09-.09h0a.32.32,0,0,1,.1-.1h0a.2.2,0,0,1,.09-.09h0a.16.16,0,0,1,.08-.06l.08,0,0,0,.08-.05h0l.1-.09a.37.37,0,0,0,.19-.18h0s0-.07.1-.09h0a.11.11,0,0,1,.09,0,.19.19,0,0,0,.1,0l.28-.19a.28.28,0,0,1,.1-.09l.18-.1.1-.09.19-.1a.22.22,0,0,1,.1-.09H63l.57-.37h.09l.1-.09.38-.19s.06-.06.1-.09h.09l.1-.09.56-.29.11-.09.75-.38a.43.43,0,0,1,.1-.09l.37-.2a.35.35,0,0,1,.1-.08l.09,0,.39-.26.28-.11s.06-.06.1-.09l.56-.29.11-.09H68l.1-.09.19-.09.09-.09h.1s.06-.06.1-.09h.09l.1-.09a.64.64,0,0,0,.28-.18l.28-.11a.35.35,0,0,1,.1-.08l.38-.2s.06-.06.1-.09H70l.1-.08.37-.2.1-.08.09,0,.11-.08h.08a.81.81,0,0,1,.1-.09l.38-.2a.27.27,0,0,1,.1-.08h.09a.43.43,0,0,1,.1-.09l.56-.29.1-.09.57-.29.1-.09h.09l.09-.08.19-.1.1-.09h.09a.81.81,0,0,1,.1-.09h.09l.1-.08a2.12,2.12,0,0,0,.48-.29h.09a.27.27,0,0,1,.1-.08l.37-.2a.48.48,0,0,1,.11-.09h.08l.1-.08.38-.2.1-.08h.09a.28.28,0,0,1,.1-.09h.09l.09-.09.38-.19a.41.41,0,0,1,.1-.09h.09a.81.81,0,0,1,.1-.09l.57-.29.1-.09.56-.29.1-.09h.09a.39.39,0,0,1,.1-.08l.19-.1.09-.09h.1s.06-.06.1-.09h.09l.57-.37h.09l.1-.08.57-.29a.43.43,0,0,1,.1-.09l.09-.09.28-.11.1-.08.09,0,.1-.08H81l.1-.09a.64.64,0,0,0,.28-.18l.29-.11.1-.09.56-.29.1-.09.57-.29.1-.09h.09l.09-.08.19-.1.1-.08.09,0a.43.43,0,0,1,.1-.09h.09l.1-.08.38-.2s.06-.06.1-.09h.09a.27.27,0,0,1,.1-.08l.37-.2.1-.08h.09a.81.81,0,0,1,.1-.09h.09l.1-.09.38-.19a.22.22,0,0,1,.1-.09H86l.09-.09.38-.19a.28.28,0,0,1,.1-.09h.09a.81.81,0,0,1,.1-.09l.57-.29.1-.09.56-.29.1-.09h.09a.39.39,0,0,1,.1-.08l.38-.2a.2.2,0,0,1,.1-.08l.08,0,.11-.08.18-.1.1-.08.09,0a.25.25,0,0,1,.1-.08h.09a.28.28,0,0,1,.1-.09l.57-.29a.43.43,0,0,1,.1-.09h.09l.09-.09.38-.19a.28.28,0,0,1,.1-.09H91l.1-.09a.64.64,0,0,0,.28-.18h.1a.22.22,0,0,1,.1-.09h.09s.06-.06.1-.09l.56-.29.1-.09L93,99l.1-.09h.08l.1-.08.38-.2a.25.25,0,0,1,.1-.08l.09,0a.31.31,0,0,0,.2-.17.28.28,0,0,0,.19-.09l.27-.11a.31.31,0,0,1,.11-.09l.56-.29a.81.81,0,0,1,.1-.09h.09l.1-.09.19-.09.09-.09h.09a.48.48,0,0,1,.11-.09h.08l.11-.09.37-.19s.06-.06.1-.09h.09a.39.39,0,0,1,.1-.08l.37-.2a.31.31,0,0,1,.11-.09h.09a.39.39,0,0,1,.1-.08h.09l.09-.09.38-.2.1-.08h.09a.43.43,0,0,1,.1-.09l.37-.2a.28.28,0,0,1,.11-.08h.08a.48.48,0,0,1,.11-.09l.56-.29.1-.09.57-.29.1-.09h.08l.1-.08.19-.1.1-.09h.09l.1-.09h.09a.39.39,0,0,1,.1-.08.77.77,0,0,0,.28-.19h.09a.48.48,0,0,1,.11-.09h.08l.11-.08.37-.2s.06-.06.1-.09h.09l.1-.08h.09l.1-.09.18-.1.1-.08h.1a.28.28,0,0,1,.1-.09h.08l.1-.09.38-.2a.27.27,0,0,1,.1-.08H104a.43.43,0,0,1,.1-.09l.57-.29.1-.09.56-.29.1-.09h.09a.39.39,0,0,1,.1-.08l.18-.1.1-.09h.09l.1-.09h.09l.1-.08.38-.2s.06-.06.1-.09h.09a.39.39,0,0,1,.1-.08l.37-.2a.48.48,0,0,1,.11-.09h.08a.48.48,0,0,1,.11-.09h.09l.09-.09.19-.1.1-.08h.09a.81.81,0,0,1,.1-.09h.09l.1-.09.37-.19a.31.31,0,0,1,.11-.09H109l.1-.09.57-.29.1-.09.56-.29.11-.09h.08l.1-.08.19-.1.09-.08.1,0,.1-.09h.09a.39.39,0,0,1,.1-.08l.37-.2a.28.28,0,0,1,.11-.08l.08,0,.1-.08.38-.2.1-.08h.09a.81.81,0,0,1,.1-.09h.09l.1-.09.37-.19a.31.31,0,0,1,.11-.09h.08l.1-.09.38-.19a.22.22,0,0,1,.1-.09H114l.1-.09.56-.29.11-.09.56-.29.1-.09h.09a.39.39,0,0,1,.1-.08l.37-.2.1-.08.09,0,.1-.08.38-.2a.2.2,0,0,1,.1-.08h.09a.28.28,0,0,1,.1-.09l.37-.2.1-.08h.09a.81.81,0,0,1,.1-.09h.09l.1-.09.38-.19a.22.22,0,0,1,.1-.09h.09l.1-.09.37-.19a.41.41,0,0,1,.1-.09h.09l.1-.09.57-.29.1-.09h.09l.1-.08.37-.2.11-.09h.08l.1-.08.38-.2a.39.39,0,0,1,.1-.08l.09,0a.39.39,0,0,1,.1-.08l.37-.2a.28.28,0,0,1,.11-.08h.08a.41.41,0,0,1,.1-.09l.57-.29.1-.09h.09l.1-.09.37-.19a.81.81,0,0,1,.1-.09h.09l.1-.08a.91.91,0,0,0,.29-.19h.09a.22.22,0,0,1,.1-.09h.09a.39.39,0,0,1,.1-.08l.37-.2a.31.31,0,0,1,.11-.09h.08l.1-.08.09,0a.39.39,0,0,0,.1-.08l.38-.2a.39.39,0,0,1,.1-.08h.09a.43.43,0,0,1,.1-.09l.37-.2a.35.35,0,0,1,.1-.08h.09a.81.81,0,0,1,.1-.09l.57-.29.1-.09.56-.29.1-.09h.09a.39.39,0,0,1,.1-.08l.19-.1.09-.09h.1a.43.43,0,0,1,.1-.09h.09a.39.39,0,0,1,.1-.08l.37-.2a.43.43,0,0,1,.1-.09h.09a.39.39,0,0,1,.1-.08l.57-.29.09-.09s.06,0,.1,0l.09-.08.57-.21.1-.08h.09l.1-.09.38-.1.1-.09h.18l.1-.08a6.57,6.57,0,0,1,.76-.21l.1-.08h.18l.1-.08h.28l.1-.08h.28l.1-.08h.28l.1-.08h.37l.11-.07.37,0a.39.39,0,0,0,.1-.08h.47a.2.2,0,0,0,.2-.08l.56,0a.2.2,0,0,0,.2-.08h.84c.14,0,.28,0,.39-.08h2.18c.14.14.32.07.48.08a.15.15,0,0,1,.19,0h.66a.18.18,0,0,0,.19.08.09.09,0,0,1,.1,0l.47,0a.19.19,0,0,0,.19.08.07.07,0,0,1,.1,0h.28a.18.18,0,0,0,.19.08.07.07,0,0,1,.1,0H143l.11.08h.37l.1.08.28,0,.1.08h.28l.1.08.28,0,.1.08h.18l.11.08.18,0,.1.08h.18l.11.08.18,0,.1.08H146l.77.37a10.64,10.64,0,0,1,1.23.58.43.43,0,0,1,.1.09h.09a.39.39,0,0,1,.1.08l.38.2.09.09.57.29.1.09.37.2a.39.39,0,0,1,.1.08H150a.43.43,0,0,1,.1.09l.38.2a.39.39,0,0,1,.1.08h.09a.43.43,0,0,1,.1.09l.37.2a.2.2,0,0,1,.1.08l.38.2.1.08.09,0,.1.08.37.2.1.08.09,0a.39.39,0,0,1,.1.08l.38.2a.43.43,0,0,1,.1.09l.56.29a.43.43,0,0,1,.1.09l.38.19.1.09h.09a.43.43,0,0,1,.1.09l.38.19.09.09H155a.22.22,0,0,1,.1.09l.38.2.1.08.56.29.1.09.38.2a.39.39,0,0,1,.1.08l.09,0a.39.39,0,0,1,.1.08l.38.2a.38.38,0,0,1,.09.09h.09a.2.2,0,0,1,.1.08l.38.2a.41.41,0,0,1,.1.09l.56.29a.43.43,0,0,1,.1.09l.38.19.1.09h.09a.28.28,0,0,1,.1.09l.37.19.1.09h.09a.22.22,0,0,1,.1.09l.38.19a.81.81,0,0,1,.1.09l.37.2.1.08H161l.1.09.38.2.1.08.09,0a.39.39,0,0,1,.1.08l.37.2a.28.28,0,0,1,.1.09l.57.29a.81.81,0,0,1,.1.09l.37.19.1.09h.09a.28.28,0,0,1,.1.09l.38.19.1.09h.08a.31.31,0,0,1,.11.09l.37.19.1.09.57.29.1.09.37.2a.39.39,0,0,1,.1.08H166l.1.09.38.2a.39.39,0,0,1,.1.08l.08,0a.28.28,0,0,1,.11.08l.37.2a.27.27,0,0,1,.1.08l.38.2.1.09h.09a.81.81,0,0,1,.1.09l.37.19.1.09h.09a.28.28,0,0,1,.1.09l.38.19.1.09h.08a.31.31,0,0,1,.11.09l.37.19s.08,0,.1.09h.09a.22.22,0,0,1,.1.09l.19.1a.39.39,0,0,1,.1.08h.08l.11.09.37.2a.39.39,0,0,1,.1.08h.09l.1.09.38.2.1.08.56.3.1.08.38.2.1.09h.08a.31.31,0,0,1,.11.09l.37.19a.43.43,0,0,1,.1.09h.09a.28.28,0,0,1,.1.09l.19.1.1.08.47.29.1.09.18.11a.22.22,0,0,1,.1.09h.08a.83.83,0,0,0,.3.29.2.2,0,0,1,.09.09h0l.09.09h0c.09.08.2.11.28.2h0a.28.28,0,0,1,.1.09h0c.09.13.2.25.28.38h0l.09.1.2.28.08.09h0a.39.39,0,0,1,.08.1l.11.19a.39.39,0,0,1,.08.1s0,.06,0,.09l.08.1.21.47.08.1a.28.28,0,0,0,0,.09l.08.1,0,.18.07.11,0,.18c.05,0,0,.14.08.19l0,.28c.05,0,0,.14.07.2v1c-.07.09,0,.21-.08.29l0,.28a.61.61,0,0,1-.07.1l0,.19c-.05,0,0,.14-.08.19a.28.28,0,0,0,0,.09.61.61,0,0,0-.07.1l0,.18a.39.39,0,0,1-.08.1s0,.06,0,.09a.36.36,0,0,1-.07.1,5.85,5.85,0,0,1-.77,1.18c-.12.15-.23.34-.47.34Z"/><path class="cls-57" d="M60,118.8l-.08.1Z"/><path class="cls-57" d="M59.86,119l-.08.1Z"/><path class="cls-57" d="M59.77,119.18l-.08.1Z"/><path class="cls-37" d="M177.19,99.24a.31.31,0,0,1,.08-.29C177.28,99.06,177.3,99.16,177.19,99.24Z"/><path class="cls-37" d="M177,100a.21.21,0,0,1,.08-.19A.19.19,0,0,1,177,100Z"/><path class="cls-37" d="M177.27,97.92a.19.19,0,0,1-.07-.2h.08Z"/><path class="cls-37" d="M177.1,99.62l.07-.1A.1.1,0,0,1,177.1,99.62Z"/><path class="cls-37" d="M176.92,100.19l.07-.1Z"/><path class="cls-37" d="M176.81,100.47l.08-.1A.12.12,0,0,1,176.81,100.47Z"/><path class="cls-37" d="M176.72,100.66l.07-.1A.11.11,0,0,1,176.72,100.66Z"/><path class="cls-37" d="M132.83,76.93l-.1.08Z"/><path class="cls-37" d="M132.55,77l-.1.08Z"/><path class="cls-37" d="M131.69,77.31l-.1.08Z"/><path class="cls-37" d="M131.41,77.4l-.1.09Z"/><path class="cls-37" d="M130.93,77.59l-.1.09Z"/><path class="cls-37" d="M130.74,77.69l-.1.08Z"/><path class="cls-37" d="M177.18,97.44a.19.19,0,0,1-.08-.19A.18.18,0,0,1,177.18,97.44Z"/><path class="cls-37" d="M176.51,95.83l-.08-.1h.09Z"/><path class="cls-37" d="M176.61,96l-.08-.1Z"/><path class="cls-37" d="M176.9,96.59l-.08-.1Z"/><path class="cls-37" d="M177,96.78l-.08-.1A.14.14,0,0,1,177,96.78Z"/><path class="cls-37" d="M177.08,97.07,177,97Z"/><path class="cls-47" d="M66,114.25l-.1.09v-.1Z"/><path class="cls-47" d="M65.11,114.72l-.11.09Z"/><path class="cls-47" d="M64.44,115.1l-.1.09v-.09Z"/><path class="cls-37" d="M100.53,94.69l-.1.08v-.09Z"/><path class="cls-37" d="M100.35,94.78l-.1.09Z"/><path class="cls-37" d="M99.68,95.16l-.1.09Z"/><path class="cls-37" d="M99,95.54l-.11.09v-.09Z"/><path class="cls-37" d="M127.89,79.21l-.1.08V79.2Z"/><path class="cls-37" d="M127.7,79.3l-.1.09Z"/><path class="cls-37" d="M127,79.68l-.1.09Z"/><path class="cls-37" d="M126.37,80.06l-.1.09v-.09Z"/><path class="cls-37" d="M120,83.67l-.1.08Z"/><path class="cls-37" d="M119.82,83.76l-.1.09Z"/><path class="cls-37" d="M119.15,84.14l-.1.09v-.09Z"/><path class="cls-37" d="M120.67,83.29l-.1.08v-.09Z"/><path class="cls-37" d="M120.49,83.38l-.11.09Z"/><path class="cls-37" d="M109.08,89.84l-.1.09v-.09Z"/><path class="cls-37" d="M109.75,89.46l-.1.09Z"/><path class="cls-37" d="M110.42,89.08l-.11.09Z"/><path class="cls-37" d="M110.6,89l-.1.08V89Z"/><path class="cls-47" d="M73.17,110.17l-.09.08v-.09Z"/><path class="cls-47" d="M73,110.26l-.1.09Z"/><path class="cls-47" d="M72.32,110.64l-.1.09Z"/><path class="cls-47" d="M71.66,111l-.1.09a.28.28,0,0,0,0-.09Z"/><path class="cls-47" d="M78.21,107.32l-.1.08v-.09Z"/><path class="cls-47" d="M78,107.41l-.1.09Z"/><path class="cls-47" d="M77.36,107.79l-.1.09Z"/><path class="cls-47" d="M76.69,108.17l-.1.09v-.09Z"/><path class="cls-37" d="M115.64,86.14l-.1.08v-.09Z"/><path class="cls-37" d="M115.45,86.23l-.1.09Z"/><path class="cls-37" d="M114.79,86.61l-.11.09Z"/><path class="cls-37" d="M114.12,87l-.1.09a.28.28,0,0,0,0-.09Z"/><path class="cls-47" d="M88.28,101.62l-.1.08v-.09Z"/><path class="cls-47" d="M88.09,101.71l-.1.09Z"/><path class="cls-47" d="M87.43,102.09l-.1.09Z"/><path class="cls-47" d="M86.76,102.47l-.1.09v-.09Z"/><path class="cls-37" d="M104.05,92.69l-.1.09v-.09Z"/><path class="cls-37" d="M104.72,92.31l-.1.09Z"/><path class="cls-37" d="M105.38,91.93l-.1.09Z"/><path class="cls-37" d="M105.57,91.84l-.1.08v-.09Z"/><path class="cls-47" d="M93.31,98.77l-.1.08s0-.06,0-.09Z"/><path class="cls-47" d="M93.13,98.86,93,99Z"/><path class="cls-47" d="M92.46,99.24l-.1.09Z"/><path class="cls-47" d="M91.8,99.62l-.1.09v-.09Z"/><path class="cls-47" d="M83.24,104.47l-.09.08v-.09Z"/><path class="cls-47" d="M83.06,104.56l-.1.09Z"/><path class="cls-47" d="M82.39,104.94l-.1.09Z"/><path class="cls-47" d="M81.73,105.32l-.1.09v-.09Z"/><path class="cls-47" d="M90.94,100.1l-.1.09v-.09Z"/><path class="cls-47" d="M90.46,100.38l-.09.09Z"/><path class="cls-47" d="M90.28,100.48l-.1.09Z"/><path class="cls-47" d="M89.61,100.86l-.1.09v-.09Z"/><path class="cls-37" d="M148.12,78.44l-.1-.09h.1Z"/><path class="cls-37" d="M123.33,81.77l-.1.09v-.09Z"/><path class="cls-37" d="M122.86,82.05l-.1.09Z"/><path class="cls-37" d="M122.67,82.15l-.1.09Z"/><path class="cls-37" d="M122,82.53l-.1.09v-.09Z"/><path class="cls-37" d="M148.78,78.82l-.09-.09h.09Z"/><path class="cls-37" d="M149.45,79.2l-.1-.09Z"/><path class="cls-37" d="M149.92,79.48l-.1-.08h.11S149.92,79.45,149.92,79.48Z"/><path class="cls-37" d="M162.27,86.61l-.1-.09h.1Z"/><path class="cls-37" d="M162.94,87l-.1-.09Z"/><path class="cls-37" d="M163.41,87.27l-.1-.09h.11A.28.28,0,0,0,163.41,87.27Z"/><path class="cls-37" d="M153.06,81.29l-.1-.09h.1Z"/><path class="cls-37" d="M153.72,81.67l-.1-.09Z"/><path class="cls-37" d="M154.2,82l-.1-.09h.1Z"/><path class="cls-37" d="M172.63,92.59l-.1-.09h.1Z"/><path class="cls-37" d="M172.15,92.3l-.1-.08Z"/><path class="cls-37" d="M171.49,91.92l-.1-.08h.1Z"/><path class="cls-37" d="M164.74,88l-.1-.09h.1Z"/><path class="cls-37" d="M165.41,88.41l-.1-.09Z"/><path class="cls-37" d="M165.88,88.69l-.1-.08h.11A.28.28,0,0,0,165.88,88.69Z"/><path class="cls-37" d="M155.53,82.71l-.1-.08h.1Z"/><path class="cls-37" d="M156.19,83.09l-.1-.09Z"/><path class="cls-37" d="M156.67,83.37l-.1-.08h.1Z"/><path class="cls-37" d="M168.35,90.12l-.1-.09h.11A.28.28,0,0,0,168.35,90.12Z"/><path class="cls-37" d="M167.88,89.84l-.1-.09Z"/><path class="cls-37" d="M167.69,89.74l-.1-.09Z"/><path class="cls-37" d="M167.21,89.45l-.1-.08h.1Z"/><path class="cls-37" d="M158,84.14l-.1-.09h.1Z"/><path class="cls-37" d="M158.66,84.52l-.1-.09Z"/><path class="cls-37" d="M159.14,84.8l-.1-.09h.1Z"/><path class="cls-37" d="M160.47,85.56l-.1-.09h.1Z"/><path class="cls-37" d="M160.94,85.84l-.1-.08Z"/><path class="cls-37" d="M161.13,85.94l-.1-.09Z"/><path class="cls-37" d="M161.61,86.22l-.1-.08h.1Z"/><path class="cls-37" d="M151.25,80.24l-.1-.08h.11A.28.28,0,0,0,151.25,80.24Z"/><path class="cls-37" d="M151.73,80.52l-.1-.08Z"/><path class="cls-37" d="M151.92,80.62l-.1-.08Z"/><path class="cls-37" d="M152.39,80.9l-.1-.08h.11S152.39,80.88,152.39,80.9Z"/><path class="cls-37" d="M98.35,95.92l-.1.09v-.1Z"/><path class="cls-37" d="M98.16,96l-.1.08Z"/><path class="cls-37" d="M97.68,96.3l-.09.09Z"/><path class="cls-37" d="M97.5,96.4l-.1.08Z"/><path class="cls-31" d="M97.31,96.49l-.11.09s0-.06,0-.09Z"/><path class="cls-37" d="M125.71,80.44l-.1.09v-.1Z"/><path class="cls-37" d="M125.52,80.54l-.1.08Z"/><path class="cls-37" d="M125,80.82l-.1.08Z"/><path class="cls-37" d="M124.85,80.92l-.1.08Z"/><path class="cls-31" d="M124.67,81l-.11.09V81Z"/><path class="cls-42" d="M68.14,113l-.1.09V113Z"/><path class="cls-42" d="M68,113.11l-.11.09Z"/><path class="cls-42" d="M67.29,113.49l-.1.09v-.09Z"/><path class="cls-47" d="M80.21,106.18l-.1.09Z"/><path class="cls-47" d="M79.54,106.56l-.1.08v-.09Z"/><path class="cls-47" d="M95.5,97.53l-.1.09v-.09Z"/><path class="cls-47" d="M95.31,97.63l-.1.09Z"/><path class="cls-47" d="M94.65,98l-.11.09V98Z"/><path class="cls-37" d="M134.92,76.45l-.1.08Z"/><path class="cls-37" d="M134.45,76.55l-.11.07v-.08Z"/><path class="cls-37" d="M113.27,87.47l-.11.09v-.1Z"/><path class="cls-37" d="M112.79,87.75l-.1.09Z"/><path class="cls-37" d="M112.6,87.85l-.1.09Z"/><path class="cls-37" d="M118.3,84.62l-.1.09v-.09Z"/><path class="cls-37" d="M117.82,84.9l-.1.09Z"/><path class="cls-37" d="M117.63,85l-.1.09Z"/><path class="cls-37" d="M173.29,93l-.1-.09h.11A.28.28,0,0,0,173.29,93Z"/><path class="cls-37" d="M172.82,92.69l-.11-.09Z"/><path class="cls-37" d="M170.82,91.54l-.1-.08h.1Z"/><path class="cls-37" d="M170.35,91.26l-.11-.09Z"/><path class="cls-37" d="M170.16,91.16l-.1-.08h.1Z"/><path class="cls-47" d="M85.91,103l-.1.09V103Z"/><path class="cls-47" d="M85.43,103.23l-.1.09Z"/><path class="cls-47" d="M85.24,103.33l-.1.09Z"/><path class="cls-37" d="M143.56,76.72l-.1-.08Z"/><path class="cls-37" d="M143.94,76.82l-.1-.08Z"/><path class="cls-37" d="M144.32,76.91l-.1-.08h.1Z"/><path class="cls-40" d="M140.43,76.25h-.19a.18.18,0,0,1,.19-.08Z"/><path class="cls-37" d="M174.34,93.63l-.1-.09h.1Z"/><path class="cls-37" d="M173.77,93.25l-.1-.08h.1Z"/><path class="cls-37" d="M129.22,78.45l-.1.08v-.09Z"/><path class="cls-47" d="M75.17,109l-.1.08Z"/><path class="cls-30" d="M75,109.12l-.11.09v-.09Z"/><path class="cls-47" d="M70.14,111.88,70,112Z"/><path class="cls-31" d="M70,112l-.1.09V112Z"/><path class="cls-30" d="M107.38,90.79l-.11.09a.28.28,0,0,1,0-.09Z"/><path class="cls-37" d="M107.57,90.7l-.11.09Z"/><path class="cls-37" d="M107.75,90.6l-.09.09Z"/><path class="cls-37" d="M102.53,93.55l-.1.08Z"/><path class="cls-37" d="M102.72,93.45l-.1.09Z"/><path class="cls-30" d="M102.34,93.64l-.1.09v-.09Z"/><path class="cls-45" d="M62.92,116l-.1.09V116Z"/><path class="cls-45" d="M62.63,116.15l-.1.09Z"/><path class="cls-45" d="M62.35,116.34l-.1.09v-.09Z"/><path class="cls-47" d="M73.84,109.79l-.1.08v-.09Z"/><path class="cls-37" d="M144.7,77l-.1-.08Z"/><path class="cls-37" d="M145,77.1l-.11-.08h.1Z"/><path class="cls-37" d="M121.82,82.63l-.11.08v-.09Z"/><path class="cls-37" d="M121.34,82.91l-.1.08a.25.25,0,0,0,0-.08Z"/><path class="cls-37" d="M155.05,82.43l-.1-.09h.1Z"/><path class="cls-47" d="M96.64,96.87l-.1.09v-.09Z"/><path class="cls-47" d="M96.17,97.15l-.11.09v-.09Z"/><path class="cls-37" d="M111.75,88.33l-.11.08v-.09Z"/><path class="cls-37" d="M111.27,88.61l-.1.08V88.6Z"/><path class="cls-37" d="M129,78.54l-.1.09v-.09Z"/><path class="cls-37" d="M128.56,78.83l-.1.08a.28.28,0,0,0,0-.09Z"/><path class="cls-37" d="M164.27,87.75l-.11-.09h.11Z"/><path class="cls-37" d="M150.78,80l-.1-.09h.1Z"/><path class="cls-37" d="M106.23,91.46l-.1.08v-.09Z"/><path class="cls-37" d="M106.71,91.17l-.1.09v-.09Z"/><path class="cls-37" d="M116.78,85.48l-.1.08v-.09Z"/><path class="cls-37" d="M116.3,85.76l-.1.08v-.08Z"/><path class="cls-37" d="M166.74,89.17l-.11-.08h.11Z"/><path class="cls-37" d="M157.52,83.85l-.1-.08h.1Z"/><path class="cls-47" d="M84.39,103.8l-.1.09v-.09Z"/><path class="cls-47" d="M83.91,104.09l-.1.08v-.08Z"/><path class="cls-37" d="M160,85.28l-.1-.09h.1Z"/><path class="cls-37" d="M169.68,90.88l-.1-.09h.11A.28.28,0,0,0,169.68,90.88Z"/><path class="cls-37" d="M169.21,90.6l-.11-.09h.11Z"/><path class="cls-30" d="M113.93,87.09l-.1.09v-.09Z"/><path class="cls-37" d="M113.45,87.37l-.1.09v-.09Z"/><path class="cls-37" d="M159.33,84.9l-.1-.09h.1Z"/><path class="cls-37" d="M159.8,85.18l-.1-.09h.1Z"/><path class="cls-47" d="M66.43,114l-.1.08V114Z"/><path class="cls-30" d="M64.25,115.2l-.1.09v-.09Z"/><path class="cls-47" d="M63.77,115.48l-.1.09v-.09Z"/><path class="cls-37" d="M166.55,89.07l-.1-.08h.1Z"/><path class="cls-37" d="M166.07,88.79l-.1-.09h.1Z"/><path class="cls-37" d="M108.42,90.22l-.1.09v-.09Z"/><path class="cls-30" d="M108.9,89.94l-.11.09a.38.38,0,0,1,0-.1Z"/><path class="cls-31" d="M126.18,80.16l-.1.08v-.09Z"/><path class="cls-37" d="M117,85.38l-.1.09v-.1Z"/><path class="cls-37" d="M169,90.5l-.1-.09h.1Z"/><path class="cls-37" d="M168.54,90.22l-.1-.09h.1Z"/><path class="cls-37" d="M163.6,87.37l-.1-.09h.1Z"/><path class="cls-37" d="M164.08,87.65l-.1-.09h.1Z"/><path class="cls-37" d="M121.15,83l-.1.08V83Z"/><path class="cls-37" d="M106.9,91.08l-.1.08v-.09Z"/><path class="cls-37" d="M171,91.64l-.1-.09h.1Z"/><path class="cls-37" d="M103.38,93.07l-.1.09v-.1Z"/><path class="cls-30" d="M103.86,92.79l-.1.08v-.09Z"/><path class="cls-37" d="M101.87,93.93l-.11.08v-.09Z"/><path class="cls-37" d="M101.2,94.31l-.1.08V94.3Z"/><path class="cls-37" d="M176,95.07l-.09-.1H176Z"/><path class="cls-37" d="M176.23,95.44l-.08-.09h.09A.28.28,0,0,1,176.23,95.44Z"/><path class="cls-31" d="M98.83,95.64l-.11.08v-.09Z"/><path class="cls-37" d="M152.58,81l-.1-.08h.1Z"/><path class="cls-37" d="M124.19,81.3l-.1.08v-.09Z"/><path class="cls-37" d="M157.33,83.76l-.09-.09h.09Z"/><path class="cls-37" d="M156.86,83.47l-.1-.08h.1Z"/><path class="cls-37" d="M96.83,96.78l-.1.08v-.09Z"/><path class="cls-37" d="M116.11,85.86l-.1.08v-.09Z"/><path class="cls-37" d="M111.93,88.23l-.1.08v-.09Z"/><path class="cls-47" d="M93.79,98.49l-.1.08v-.09Z"/><path class="cls-37" d="M148.31,78.53l-.1-.08h.1Z"/><path class="cls-37" d="M123.52,81.68l-.1.08v-.09Z"/><path class="cls-47" d="M91.13,100l-.1.09V100Z"/><path class="cls-47" d="M88.76,101.34l-.1.08v-.09Z"/><path class="cls-30" d="M86.57,102.57l-.1.09v-.09Z"/><path class="cls-47" d="M86.09,102.85l-.09.09v-.09Z"/><path class="cls-47" d="M84.58,103.71l-.1.08v-.09Z"/><path class="cls-37" d="M119,84.24l-.1.09v-.09Z"/><path class="cls-37" d="M118.49,84.52l-.1.09v-.09Z"/><path class="cls-47" d="M81.06,105.7l-.1.09v-.09Z"/><path class="cls-37" d="M161.8,86.32l-.1-.08h.1Z"/><path class="cls-30" d="M76.5,108.27l-.1.09v-.1Z"/><path class="cls-47" d="M76,108.55l-.09.09v-.09Z"/><path class="cls-47" d="M74.51,109.41l-.1.08v-.09Z"/><path class="cls-37" d="M154.39,82.05l-.1-.09h.1Z"/><path class="cls-37" d="M154.86,82.33l-.09-.09h.09Z"/><path class="cls-31" d="M71.47,111.12l-.1.08v-.09Z"/><path class="cls-47" d="M71,111.4l-.1.09v-.1Z"/><path class="cls-47" d="M69.47,112.26l-.1.08v-.09Z"/><path class="cls-47" d="M68.81,112.63l-.1.09a.28.28,0,0,0,0-.09Z"/><path class="cls-37" d="M150.11,79.58l-.1-.09h.1Z"/><path class="cls-37" d="M150.59,79.86l-.1-.08h.1Z"/><path class="cls-37" d="M175.09,94.21l-.09-.09h.1Z"/><path class="cls-40" d="M141.38,76.34h-.1l.1-.07Z"/><path class="cls-45" d="M62,116.62l-.1.09a.06.06,0,0,1,0-.06s0,0,0,0H62Z"/><path class="cls-40" d="M142.14,76.44H142l.1-.08Z"/><path class="cls-47" d="M89,101.24l-.11.08a.22.22,0,0,0,0-.08Z"/><path class="cls-40" d="M142.71,76.54h-.1l.1-.07Z"/><path class="cls-37" d="M174.62,93.83l-.1-.09h.1Z"/><path class="cls-37" d="M108.23,90.32l-.1.09Z"/><path class="cls-37" d="M103.2,93.17l-.1.09Z"/><path class="cls-47" d="M70.81,111.5l-.11.08Z"/><path class="cls-47" d="M75.84,108.65l-.1.09Z"/><path class="cls-45" d="M61.49,117l-.1.09V117Z"/><path class="cls-57" d="M60.54,118l-.09.1V118Z"/><path class="cls-57" d="M60.34,118.23l-.08.1h0a.13.13,0,0,1,0-.08.06.06,0,0,1,0,0h0Z"/><path class="cls-60" d="M60.23,118.21l0,.12h-.12l0-.09Z"/><path class="cls-37" d="M143.09,76.63l-.11-.08h.1Z"/><path class="cls-37" d="M134,76.64l-.1.08v-.09Z"/><path class="cls-37" d="M176.32,95.54l-.08-.1h.09Z"/><path class="cls-37" d="M173.48,93.07l-.1-.09h.1Z"/><path class="cls-37" d="M169.87,91l-.1-.09h.1Z"/><path class="cls-37" d="M145.27,77.2l-.1-.08h.1Z"/><path class="cls-37" d="M145.56,77.29l-.11-.08h.1Z"/><path class="cls-27" d="M130,78.06h-.1s0-.06,0-.09Z"/><path class="cls-37" d="M133.59,76.74l-.1.08v-.09Z"/><path class="cls-37" d="M145.84,77.39l-.1-.08h.1Z"/><path class="cls-37" d="M175.47,94.5a.33.33,0,0,1-.28-.2h.18l.1.09Z"/><path class="cls-37" d="M175.19,94.3l-.09-.09Z"/><path class="cls-37" d="M133.21,76.83l-.1.08v-.09Z"/><path class="cls-37" d="M111.08,88.7l-.1.09V88.7Z"/><path class="cls-47" d="M91.61,99.72l-.1.09v-.09Z"/><path class="cls-37" d="M101.68,94l-.11.09V94Z"/><path class="cls-47" d="M89.42,101l-.1.08V101Z"/><path class="cls-47" d="M96,97.25l-.11.09v-.09Z"/><path class="cls-47" d="M83.72,104.18l-.1.09v-.09Z"/><path class="cls-47" d="M80.87,105.8l-.1.08v-.09Z"/><path class="cls-47" d="M78.69,107l-.1.09V107Z"/><path class="cls-37" d="M106,91.55l-.1.09v-.09Z"/><path class="cls-47" d="M73.65,109.88l-.1.09v-.09Z"/><path class="cls-37" d="M101,94.4l-.1.09V94.4Z"/><path class="cls-47" d="M68.62,112.73l-.1.09v-.09Z"/><path class="cls-37" d="M124,81.39l-.1.09v-.09Z"/><path class="cls-37" d="M128.37,78.92l-.1.09v-.09Z"/><path class="cls-37" d="M175.57,94.59a.13.13,0,0,1-.1-.09.27.27,0,0,1,.09,0A.28.28,0,0,1,175.57,94.59Z"/><path class="cls-37" d="M175.85,95a.48.48,0,0,1-.28-.38h.09l.1.09.09.09s0,.06,0,.09Z"/><path class="cls-48" d="M61.87,116.62v.09h-.09a.14.14,0,0,1,0-.09Z"/><path class="cls-48" d="M61.78,116.72a.13.13,0,0,1-.1.09v-.09Z"/><path class="cls-57" d="M61.2,117.19a.24.24,0,0,1,0-.08l.08,0h0s0,0,0,.07,0,0,0,0h0l0,0Z"/><path class="cls-45" d="M61.3,117.19v-.1h.09Z"/><path class="cls-57" d="M61.2,117.28h-.09a.28.28,0,0,1,0-.09h.08s0,0,0,.06S61.21,117.28,61.2,117.28Z"/><path class="cls-57" d="M61.11,117.29l-.09.09a.22.22,0,0,1,0-.08Z"/><path class="cls-57" d="M61,117.38a.14.14,0,0,1-.1.1.28.28,0,0,1,0-.09Z"/><path class="cls-57" d="M60.92,117.48a.11.11,0,0,1-.09.09.22.22,0,0,1,0-.08Z"/><path class="cls-57" d="M60.83,117.57a.31.31,0,0,1,0,.1l0,0,0,0a.25.25,0,0,1,0-.08Z"/><path class="cls-57" d="M60.63,117.76a.24.24,0,0,1,0-.08l.08,0h0s0,0,0,.07,0,0,0,0h0a.07.07,0,0,1-.1,0Z"/><path class="cls-45" d="M60.63,117.76h.1l-.09.1Z"/><path class="cls-57" d="M60.63,117.86l-.09.09v-.09Z"/><path class="cls-70" d="M143.08,103.42c-1.75-1-3.47-2-5.19-3l-6.25-3.77-.93-.57a2.27,2.27,0,0,1-1-1.2,5.78,5.78,0,0,1-.24-2.61c.22-.14.36,0,.51.13l5.83,3.36c3.44,2,6.87,4,10.31,6,.7.4,1.4.79,2.08,1.21a.75.75,0,0,0,.88,0c1.13-.66,2.26-1.32,3.4-2,.18-.1.34-.3.6-.2a5.2,5.2,0,0,1,.21,2.25,1.73,1.73,0,0,1-.73,1.23,19.93,19.93,0,0,1-3,1.93,1.62,1.62,0,0,1-1.67,0c-.42-.25-.88-.43-1.29-.69a.58.58,0,0,0-.38-.13c-.06.43,0,.86-.1,1.3a2.71,2.71,0,0,1-1.32,2.07,17.66,17.66,0,0,0-1.79,1.16,3,3,0,0,1-2.73.47c-1.66-.44-3.3-1-4.92-1.52a.94.94,0,0,0-.89.07c-.92.55-1.86,1.08-2.79,1.62a1.36,1.36,0,0,1-.21.1c-.31,0-.42-.3-.63-.45-.44-.48-.93-.9-1.35-1.39-.1-.25.08-.34.25-.44,1.59-.91,3.18-1.82,4.76-2.75a1,1,0,0,1,.87-.05l5.52,1.72a.92.92,0,0,0,.81-.06l4-2.32c.08,0,.18-.07.23-.2-.82-.33-1.7-.47-2.5-.83C143.33,103.68,143.16,103.6,143.08,103.42Z"/><path class="cls-70" d="M97.28,122.79a15.72,15.72,0,0,1-1.84-1.9,5.46,5.46,0,0,1-1.07-3.07c0-.75,0-1.49,0-2.23a.09.09,0,0,1,.13,0c.69,2.31,2.4,3.73,4.35,4.92a20.45,20.45,0,0,0,13.31,2.63,16.47,16.47,0,0,0,4.19-1.14,13.81,13.81,0,0,0,4-2.44,6,6,0,0,0,1.84-2.76c0-.09.06-.19.19-.19a15.25,15.25,0,0,1-.19,3.3,4.71,4.71,0,0,1-1.37,2.49,12.08,12.08,0,0,1-3,2.2,16.57,16.57,0,0,1-5.72,1.86,17.29,17.29,0,0,1-3.45.2,23,23,0,0,1-5.52-.94l-.28-.08c-.16,0-.22-.08-.3-.17A8,8,0,0,0,97.76,123C97.58,123,97.37,123,97.28,122.79Z"/><path class="cls-70" d="M132.92,112.39a.6.6,0,0,1,.08.21,10.5,10.5,0,0,1,0,2.17,1.89,1.89,0,0,1-.63,1.23,13.39,13.39,0,0,1-2.71,1.82l-.17.08a1.58,1.58,0,0,1-2-.24,30.57,30.57,0,0,1-2.43-2.4c-.43-.5-.91-1-1.35-1.46-1.18-1.3-2.33-2.61-3.47-3.94l-3-3.49c-.66-.78-1.33-1.57-2-2.36a3.46,3.46,0,0,1-.69-2.81c0-.3.11-.59.16-.88.13-.06.21,0,.28.11,1.5,1.67,3,3.3,4.55,5,.88,1,1.78,1.92,2.67,2.88,1.35,1.48,2.72,3,4.07,4.43.57.61,1.12,1.24,1.71,1.84a.48.48,0,0,0,.69.09c1.17-.69,2.35-1.37,3.53-2C132.49,112.49,132.65,112.26,132.92,112.39Z"/><path class="cls-70" d="M95.5,129.88c-.06-.19-.23-.14-.36-.15a8.9,8.9,0,0,0-2.3.23c-1.29.25-2.53.66-3.82.93a23.85,23.85,0,0,1-3,.47,13.27,13.27,0,0,1-1.89.06,9,9,0,0,1-5.12-1.6,3.56,3.56,0,0,1-1.58-2.29,1.57,1.57,0,0,1,0-.23c0-.87,0-1.74,0-2.61a.19.19,0,0,1,.17.14,5.46,5.46,0,0,0,3,2.58l.11.06.2.08.1,0,.2.06.09,0,.21.07.1,0a2.47,2.47,0,0,0,.29.06l.12,0c.14,0,.28,0,.41.06a17.91,17.91,0,0,0,6.32-.27c1.47-.3,2.89-.79,4.37-1a7.16,7.16,0,0,1,2.88,0,2.34,2.34,0,0,1,1.19.65.94.94,0,0,1,.17,1.29,4,4,0,0,1-1.56,1.35A.21.21,0,0,1,95.5,129.88Z"/><path class="cls-70" d="M103.27,127.93a9.55,9.55,0,0,1,.1,1.41,13.43,13.43,0,0,1-.2,1.79,4.19,4.19,0,0,1-1,1.85,11.25,11.25,0,0,1-2.4,2,26.47,26.47,0,0,1-6.36,2.78,2,2,0,0,1-2.22-.6l-1-1a2,2,0,0,1-.52-.94,7,7,0,0,1-.08-3.05c.46.11.72.49,1,.77.48.42.91.88,1.35,1.34a.73.73,0,0,0,.76.24,20.71,20.71,0,0,0,8.36-3.86,5.6,5.6,0,0,0,2-2.74A.08.08,0,0,1,103.27,127.93Z"/><path class="cls-70" d="M89.67,119.77a8.21,8.21,0,0,1,0,2,1.78,1.78,0,0,1-1.43,1.54,12,12,0,0,0-2.47.92l-.26.14c.17.1.32,0,.45.07a.1.1,0,0,1,0,.13,3.09,3.09,0,0,1-2.42-.52,1,1,0,0,1-.15-1.47,3.74,3.74,0,0,1,1.11-1,15.68,15.68,0,0,1,4.83-1.89C89.38,119.69,89.54,119.61,89.67,119.77Z"/><path class="cls-71" d="M132.92,112.39l-3.75,2.14c-.26.15-.52.4-.78.39s-.44-.37-.65-.59l-12.54-13.6-.39-.41a.15.15,0,0,1,0-.21l.33-.19c1.68-1,3.37-1.94,5-2.92a.93.93,0,0,1,.84-.1l21.58,6.57.23,0c.2.06.42,0,.58.18l2.35.74.45.14c0,.16-.18.19-.28.25-1.41.81-2.83,1.62-4.23,2.45a.86.86,0,0,1-.75.08l-5.7-1.78a.85.85,0,0,0-.76.09c-1.55.91-3.12,1.8-4.67,2.71-.13.07-.39.07-.27.35,0,.09,0,.12-.1.15a.32.32,0,0,1-.32-.29c0-.23.19-.32.35-.41l3.29-1.9,1.64-1a.89.89,0,0,1,.81-.1c1.85.57,3.7,1.13,5.53,1.73a1.14,1.14,0,0,0,1-.12c1.12-.65,2.24-1.31,3.37-2,.08,0,.18-.06.24-.2a3.85,3.85,0,0,0-.79-.26c-4.52-1.4-9.05-2.76-13.58-4.14-3.22-1-6.45-2-9.67-3a1.54,1.54,0,0,0-1.35.14c-1.47.88-2.94,1.74-4.44,2.56-.3.17-.29.3-.09.54.41.49.85.94,1.29,1.4,1.72,1.83,3.41,3.69,5.11,5.54,2,2.16,4,4.31,6,6.5.5.57.52.57,1.18.18l3.09-1.78c.31-.18.33-.32.07-.55a12.22,12.22,0,0,1-1.2-1.29c-.1-.12-.23-.22-.24-.39s0-.14.13-.12l.57.5c.43.51.92,1,1.38,1.45C133,112.13,133.11,112.24,132.92,112.39Z"/><path class="cls-71" d="M153.13,100.71c-1.33.77-2.67,1.52-4,2.3a.77.77,0,0,1-.9,0Q139,97.67,129.82,92.36a2,2,0,0,0-.3-.14c0-.08-.17-.13-.05-.24l.14-.12a38.62,38.62,0,0,1,8.5-5,13.43,13.43,0,0,1,6-1,11.19,11.19,0,0,1,5.56,1.7,8.06,8.06,0,0,1,1.3,1A3.25,3.25,0,0,1,152,91.58a3.58,3.58,0,0,1-1.13,2.08,13.07,13.07,0,0,1-3.67,2.66c-.16.09-.43.11-.44.3s.25.25.41.34c.47.29,1,.56,1.43.83a1.26,1.26,0,0,1,.56.43l3.67,2.14.32.2C153.22,100.61,153.16,100.66,153.13,100.71Z"/><path class="cls-70" d="M149.15,98.22c-.94-.48-1.83-1-2.78-1.58.54-.3,1-.55,1.5-.83a13.33,13.33,0,0,0,2.59-1.89A5.55,5.55,0,0,0,152,91.58a24.13,24.13,0,0,1-.05,2.82,4.12,4.12,0,0,1-1.13,2.29A7.7,7.7,0,0,1,149.4,98,.55.55,0,0,0,149.15,98.22Z"/><path class="cls-72" d="M103.2,128a2.89,2.89,0,0,1-.61,1.37,8.13,8.13,0,0,1-2,1.91,22.09,22.09,0,0,1-7.82,3.42.8.8,0,0,1-.83-.26c-.77-.75-1.52-1.52-2.35-2.21l-.15-.25a21,21,0,0,0,6-2.06,4.9,4.9,0,0,0,1.28-.89,3.07,3.07,0,0,0,.34-.38.91.91,0,0,0-.18-1.41,2.88,2.88,0,0,0-1.62-.61,10.07,10.07,0,0,0-3.14.34c-1.31.3-2.59.7-3.91,1a18.82,18.82,0,0,1-4.91.3,3.52,3.52,0,0,1-1.07-.17c-.11-.11-.28,0-.39-.09h-.05l0,0c-.08-.07-.21,0-.29-.08h-.09c-.06,0-.14,0-.21-.08h0l0,0c-.06-.06-.15,0-.22-.08h0l0,0s-.13,0-.19-.08h0c0-.08,0-.12.06-.15a.28.28,0,0,1,.18,0l.17.05.16,0,.15.06.16,0a1.41,1.41,0,0,0,.22.06,1.13,1.13,0,0,1,.18,0,1.09,1.09,0,0,0,.26,0,22.25,22.25,0,0,0,2.31.19,21.39,21.39,0,0,0,5.85-.86,20.43,20.43,0,0,1,4.23-.83,3.79,3.79,0,0,1,2.48.66,1.28,1.28,0,0,1,.35,1.87,3.65,3.65,0,0,1-1.07,1,16,16,0,0,1-4.82,2c-.43.13-.86.21-1.39.36a25.08,25.08,0,0,0,2.21,2.08.64.64,0,0,0,.54.05,20.68,20.68,0,0,0,8-3.72,5.4,5.4,0,0,0,1.93-2.54c0-.13.09-.27.26-.31S103.24,127.86,103.2,128Z"/><path class="cls-73" d="M122.36,116.62l-.1.18c-.18,0-.16-.16-.19-.28a8.59,8.59,0,0,0-.12-1.75,6.25,6.25,0,0,0-2.22-3.17,18.6,18.6,0,0,0-10.36-4.17,18.31,18.31,0,0,0-9,1.23,13.41,13.41,0,0,0-3.8,2.3,5.62,5.62,0,0,0-1.81,2.84,1.32,1.32,0,0,1-.12.31.27.27,0,0,1-.12.09.19.19,0,0,1-.14,0v-.09c.09-.12,0-.28.08-.4a4.59,4.59,0,0,1,.89-1.86,8.49,8.49,0,0,1,2.08-1.93,16.3,16.3,0,0,1,6.69-2.63,20.39,20.39,0,0,1,12.07,1.69,15.52,15.52,0,0,1,4.22,2.8,7.2,7.2,0,0,1,1.66,2.28A4.76,4.76,0,0,1,122.36,116.62Z"/><path class="cls-74" d="M80.8,127.43l-.13.12a5.21,5.21,0,0,1-3.29-2.86,3.56,3.56,0,0,1,1-3.31,9.26,9.26,0,0,1,1.87-1.6A20.47,20.47,0,0,1,86.75,117a.55.55,0,0,1,.61.18c.73.77,1.48,1.51,2.22,2.27.07.08.31.15.09.32a15.62,15.62,0,0,0-5.21,1.94,4,4,0,0,0-1,.78.94.94,0,0,0,.29,1.63,3.47,3.47,0,0,0,1.55.37c.18,0,.35,0,.53,0a.61.61,0,0,1,.51,0c0,.24-.24.22-.39.24a3.5,3.5,0,0,1-2.51-.46,1.23,1.23,0,0,1-.29-2,5.67,5.67,0,0,1,1.74-1.3,16.13,16.13,0,0,1,3.67-1.39c.15,0,.37,0,.41-.18s-.16-.26-.27-.36c-.5-.46-.91-1-1.38-1.5a.76.76,0,0,0-.81-.23,18.56,18.56,0,0,0-7.13,3.42,4.35,4.35,0,0,0-1.76,2.62,2.5,2.5,0,0,0,.65,2.19,6.13,6.13,0,0,0,2,1.45C80.52,127.15,80.74,127.19,80.8,127.43Z"/><path class="cls-75" d="M94.36,114.15h.09c.24.3,0,.68.18,1a6.74,6.74,0,0,0,2.75,4.09,18.92,18.92,0,0,0,9.07,3.71,24.18,24.18,0,0,0,5.31.09c.16,0,.39,0,.45.22a13.4,13.4,0,0,1-2.83.22,20.55,20.55,0,0,1-10-2.5,13.12,13.12,0,0,1-3.29-2.45A6.39,6.39,0,0,1,94.52,116a1.43,1.43,0,0,1-.09-.41c-.05-.1,0-.22-.07-.32l0-.35a1.3,1.3,0,0,1,0-.62Z"/><path class="cls-76" d="M86.38,124.58c-.16-.14-.35,0-.51-.09a.43.43,0,0,0,0-.07,18.4,18.4,0,0,0,3.29-.64,32.52,32.52,0,0,1,4.49-.93,13.42,13.42,0,0,1,3-.09l.62,0a5.56,5.56,0,0,0,.92.19,9.4,9.4,0,0,1,3.33,1.43,6.32,6.32,0,0,1,1.29,1.24,3.34,3.34,0,0,1,.36.85c-.08.08.06.28-.15.3a.35.35,0,0,1-.13-.14,4.9,4.9,0,0,0-2.84-2.7,9.39,9.39,0,0,0-3.66-.86,20.71,20.71,0,0,0-6.22.79c-1.08.28-2.17.55-3.27.76C86.73,124.68,86.53,124.76,86.38,124.58Z"/><path class="cls-76" d="M103.2,128a.28.28,0,0,0-.1-.23.82.82,0,0,1-.08-.8,1.42,1.42,0,0,0,.17-.35.46.46,0,0,1,.08.39.86.86,0,0,0,0,.57v.39Z"/><path class="cls-77" d="M143.46,103.7a1.36,1.36,0,0,1-.58-.18c.07,0,.16,0,.2-.1C143.23,103.49,143.39,103.53,143.46,103.7Z"/><path class="cls-72" d="M103.28,127.54a.47.47,0,0,1,0-.57A1.22,1.22,0,0,1,103.28,127.54Z"/><path class="cls-78" d="M94.34,114.32a2.15,2.15,0,0,1,0,.62A.79.79,0,0,1,94.34,114.32Z"/><path class="cls-72" d="M103.19,126.58c0,.11,0,.22-.09.3a.09.09,0,0,1,0-.06s0,0,0,0,0-.21.09-.29A.06.06,0,0,1,103.19,126.58Z"/><path class="cls-78" d="M94.44,113.66c0,.14,0,.29-.08.4A.52.52,0,0,1,94.44,113.66Z"/><path class="cls-78" d="M94.36,115.29c.11.09.09.2.07.32l-.06,0Z"/><path class="cls-22" d="M61,124.8a5.23,5.23,0,0,1-1.47-2.87,4.88,4.88,0,0,1,1.41-4.1,9.74,9.74,0,0,1,2.47-1.91l8.46-4.79c2.28-1.3,4.57-2.58,6.86-3.87l8.21-4.66,5.49-3.1c2.25-1.26,4.49-2.54,6.73-3.81l4.62-2.62L109.19,90l4.63-2.61,5.44-3.09c1.54-.88,3.09-1.74,4.63-2.61,1.82-1,3.63-2.07,5.45-3.09a16.58,16.58,0,0,1,4.78-1.77,21.44,21.44,0,0,1,5.65-.45,18.31,18.31,0,0,1,7.88,2c1.32.71,2.61,1.49,3.91,2.24l5.34,3.09,5.14,3,5.25,3c2.05,1.18,4.11,2.36,6.16,3.56a7.76,7.76,0,0,1,3,2.93,4.48,4.48,0,0,1-.1,4.69,6.75,6.75,0,0,1-.62.89c-.12.14-.23.15-.36,0A17.52,17.52,0,0,0,171.29,99c-1.8-1.07-3.62-2.1-5.42-3.14l-5.1-2.94-8.46-4.88c-1.42-.83-2.84-1.66-4.27-2.47a16.39,16.39,0,0,0-4.75-1.72,21.86,21.86,0,0,0-5.23-.47,19.11,19.11,0,0,0-8.69,2.2c-1.48.82-2.94,1.66-4.42,2.5l-4.74,2.69-5.45,3.08-4.62,2.62-6.32,3.57-5.24,3-6.15,3.48-5.5,3.1-4.53,2.58-4.71,2.65L73,117.5l-4.63,2.62c-1.76,1-3.53,2-5.28,3A8.91,8.91,0,0,0,61,124.8Z"/><path class="cls-45" d="M61.2,117.28v-.09h.1Z"/><path class="cls-45" d="M60.73,117.76v-.1h.09Z"/><path class="cls-79" d="M129.49,108.84l.11-.11a11.13,11.13,0,0,1,1.32,1.34l-.1.12A3.1,3.1,0,0,1,129.49,108.84Z"/><path class="cls-80" d="M112.21,123.26c-.14-.15-.33-.06-.5-.1.08-.25.31-.19.48-.21a16.34,16.34,0,0,0,6.4-2.35,8,8,0,0,0,3.19-3.33c.12-.26.09-.61.39-.78,0,.11,0,.23.09.31a5.06,5.06,0,0,1-1.38,2.39,13,13,0,0,1-3.92,2.69,17.27,17.27,0,0,1-4.56,1.37Z"/><path class="cls-74" d="M81.9,127.93c.13,0,.28-.05.39.09A.58.58,0,0,1,81.9,127.93Z"/><path class="cls-74" d="M81.52,127.83c.1,0,.22,0,.29.08A.31.31,0,0,1,81.52,127.83Z"/><path class="cls-74" d="M80.67,127.55a.18.18,0,0,1,.19.08A.21.21,0,0,1,80.67,127.55Z"/><path class="cls-74" d="M80.93,127.65c.09,0,.17,0,.22.08A.3.3,0,0,1,80.93,127.65Z"/><path class="cls-74" d="M81.22,127.74a.2.2,0,0,1,.21.08A.28.28,0,0,1,81.22,127.74Z"/><path class="cls-23" d="M129.49,108.84a14.12,14.12,0,0,0,1.33,1.35l1.89,2c-.05.11-.15.14-.23.19l-3.74,2.16c-.4.23-.31.23-.61-.09L121,106.65l-5.59-6.08c-.09-.09-.17-.19-.27-.3a1.39,1.39,0,0,1,.38-.27c1.61-.92,3.21-1.84,4.81-2.78a.91.91,0,0,1,.8-.09l17.06,5.18,7.08,2.16c.17,0,.37,0,.51.22a2.07,2.07,0,0,1-.52.33c-1.17.68-2.34,1.34-3.49,2a.89.89,0,0,1-.76.08c-1.9-.61-3.8-1.19-5.7-1.78a.7.7,0,0,0-.63,0c-1.74,1-3.5,2-5.25,3-.06,0-.1.07-.15.1A.52.52,0,0,0,129.49,108.84Z"/><path class="cls-23" d="M129.74,92.05a19.27,19.27,0,0,1,1.84-1.36,46.05,46.05,0,0,1,5-3,15.88,15.88,0,0,1,4.93-1.62,11.51,11.51,0,0,1,8.22,1.7,5.93,5.93,0,0,1,1.49,1.38,2.74,2.74,0,0,1,.25,3.08A6.4,6.4,0,0,1,150,94.1a17.11,17.11,0,0,1-3.6,2.28.94.94,0,0,0-.4.25l6.83,4a.59.59,0,0,1-.28.23l-3.45,2a.62.62,0,0,1-.73,0q-5-2.89-9.94-5.75l-8.18-4.73C130.06,92.25,129.93,92.16,129.74,92.05Z"/><path class="cls-23" d="M103.09,126.79a.1.1,0,0,0,0,.09v.85a5.45,5.45,0,0,1-2.08,2.92,19.24,19.24,0,0,1-5.7,3,23.87,23.87,0,0,1-2.5.73.64.64,0,0,1-.68-.18l-2.09-2a.23.23,0,0,1-.1-.19c.46-.11.93-.21,1.39-.34a18.71,18.71,0,0,0,4.4-1.72,6,6,0,0,0,1.26-.92,1.3,1.3,0,0,0-.34-2.33,4.22,4.22,0,0,0-2.21-.4A17.22,17.22,0,0,0,91,127a28.46,28.46,0,0,1-4.83,1,13.92,13.92,0,0,1-3.59-.1c-.14,0-.28,0-.42-.05a.76.76,0,0,0-.2-.06l-.19,0c-.06,0-.13,0-.19-.07l-.17,0-.12-.06-.17,0-.11,0-.17,0c-.38-.19-.77-.37-1.14-.58a5.14,5.14,0,0,1-1.24-.94,2.79,2.79,0,0,1-.44-3.67,6.12,6.12,0,0,1,1.42-1.58,16.91,16.91,0,0,1,4.39-2.5,19.8,19.8,0,0,1,2.89-.92.48.48,0,0,1,.55.11c.65.68,1.31,1.34,2,2a.3.3,0,0,1,.12.22,1.51,1.51,0,0,1-.56.16,16.48,16.48,0,0,0-4,1.53,5.51,5.51,0,0,0-1.31.94,1.21,1.21,0,0,0,.39,2.18,4.1,4.1,0,0,0,2.52.19,15.87,15.87,0,0,0,2.54-.51,42.29,42.29,0,0,1,4.3-.95,12.79,12.79,0,0,1,6.17.42,9.39,9.39,0,0,1,1.66.8A4.37,4.37,0,0,1,103.09,126.79Z"/><path class="cls-74" d="M81.54,127.66a.2.2,0,0,1,.19.07A.2.2,0,0,1,81.54,127.66Z"/><path class="cls-74" d="M81.92,127.76a.25.25,0,0,1,.2.06A.21.21,0,0,1,81.92,127.76Z"/><path class="cls-74" d="M81,127.48a.1.1,0,0,1,.11,0Z"/><path class="cls-74" d="M81.25,127.57a.12.12,0,0,1,.12.06Z"/><path class="cls-23" d="M122.17,116.49a6.62,6.62,0,0,1-2.79,3.71,16.07,16.07,0,0,1-6.69,2.78,5.45,5.45,0,0,0-1,.18c-1,.06-2,.14-3,.11a20.15,20.15,0,0,1-10.18-3A11.41,11.41,0,0,1,96,118.16a5.9,5.9,0,0,1-1.5-3,3.69,3.69,0,0,1,0-1,5.65,5.65,0,0,1,2.09-3.4,13.94,13.94,0,0,1,5.71-2.89,19.77,19.77,0,0,1,16.62,3,9.74,9.74,0,0,1,1.65,1.43A5,5,0,0,1,122.17,116.49Z"/><path class="cls-78" d="M94.53,114.15v1c-.18-.34,0-.7-.08-1Z"/><path class="cls-72" d="M126,105.7c-.65-.6-1.25-1.25-1.86-1.88-1-1-2-1.95-3.06-2.91-.11-.11-.37-.21-.26-.39s.32,0,.47,0c3.1,1.1,6.24,2.06,9.37,3l.44.14c0,.15-.07.17-.15.22l-4,2.29c-.12.07-.25.24-.4,0s0-.13,0-.18.27-.15.41-.24c1.11-.67,2.24-1.3,3.4-2-2.91-1-5.85-1.78-8.76-2.88a52.6,52.6,0,0,1,4.31,4.26.51.51,0,0,1,.17.33C126.11,105.67,126.08,105.73,126,105.7Z"/><path class="cls-81" d="M126.68,106.15l-.13.13a2.42,2.42,0,0,1-.57-.58l.11-.12c.15,0,.23.08.33.16S126.68,106,126.68,106.15Z"/><path class="cls-82" d="M136.87,91.33c0-.11.12-.17.21-.24a8.94,8.94,0,0,1,4.15-2,5.55,5.55,0,0,1,3.84.71,3.4,3.4,0,0,1,.93.8,1.51,1.51,0,0,1,.14,1.69,3.06,3.06,0,0,1-.65.82,10.17,10.17,0,0,1-2.55,1.53.45.45,0,0,1-.45,0L137,91.47A.21.21,0,0,1,136.87,91.33Z"/><path class="cls-71" d="M108,119.76a10.42,10.42,0,0,1-2.44-.74,14.42,14.42,0,0,1-4-2.37,5.85,5.85,0,0,1-1.17-1.36,2.44,2.44,0,0,1,.63-3.48,6.7,6.7,0,0,1,2.93-1.27,11.69,11.69,0,0,1,5.16.28,14.83,14.83,0,0,1,5.72,2.86,6,6,0,0,1,1.36,1.52,2.39,2.39,0,0,1-.56,3.37,6,6,0,0,1-2.87,1.29c-.12,0-.24.09-.32-.06s.26-.24.44-.28a6.12,6.12,0,0,0,2.83-1.47,2.05,2.05,0,0,0,.15-2.74,6.24,6.24,0,0,0-1.57-1.63,14.62,14.62,0,0,0-7.17-2.89,8.83,8.83,0,0,0-4.2.39,6.08,6.08,0,0,0-1.4.69,2.17,2.17,0,0,0-.69,3.46,7.8,7.8,0,0,0,2.27,2,15.5,15.5,0,0,0,4.76,2.05c.17,0,.39,0,.44.28S108.13,119.8,108,119.76Z"/><path class="cls-83" d="M108,119.76c.11,0,.23,0,.31-.1s.35-.1.53-.07a13.79,13.79,0,0,0,3.21.06.51.51,0,0,1,.44.11c.07.11.2.08.3.1a7.31,7.31,0,0,1-2.42.25,13,13,0,0,1-2.15-.26Z"/><path class="cls-70" d="M126.35,105.79l-.26-.21c-1.09-1.16-2.18-2.32-3.35-3.41l-1.37-1.26c.17,0,8.72,2.72,9.3,3L127,106A2.79,2.79,0,0,0,126.35,105.79Z"/><path class="cls-84" d="M126.35,105.79c.29-.18.5-.05.69.17l-.36.19Z"/><path class="cls-70" d="M139.94,92.9c-.94-.48-1.83-1-2.79-1.58A10.14,10.14,0,0,1,139,90.09a6.76,6.76,0,0,1,3.55-.82,5.08,5.08,0,0,1,2.73,1,3.47,3.47,0,0,1,.29.25,1.39,1.39,0,0,1,.13,2.1,2.66,2.66,0,0,1-.72.66,11.21,11.21,0,0,0-2.06-.65,6.45,6.45,0,0,0-2.15.14A7.78,7.78,0,0,1,139.94,92.9Z"/><path class="cls-68" d="M139.94,92.9a2.38,2.38,0,0,1,1.06-.35,5.52,5.52,0,0,1,3.62.43c.13.07.3.11.37.27a9.67,9.67,0,0,1-2,1.18.43.43,0,0,1-.44,0Z"/><path class="cls-68" d="M112.5,119.76a12.73,12.73,0,0,1-2.69.08c-.5,0-1-.11-1.49-.18a19.85,19.85,0,0,1-2.49-.76,14.06,14.06,0,0,1-4.23-2.55,3.38,3.38,0,0,1-.8-.93c0-.22.21-.31.36-.43a7,7,0,0,1,3.94-1.33,14.52,14.52,0,0,1,9.29,2.9,7.22,7.22,0,0,1,1.12,1,.77.77,0,0,1,.31.61,5.58,5.58,0,0,1-2.6,1.44Z"/><path class="cls-70" d="M115.82,118.12a7.75,7.75,0,0,0-2.43-2.09,14.93,14.93,0,0,0-5.08-2,10.24,10.24,0,0,0-5.46.22,6.76,6.76,0,0,0-2,1.18,2.23,2.23,0,0,1,.35-3.41,6.37,6.37,0,0,1,3-1.27A11.36,11.36,0,0,1,109,111a14.44,14.44,0,0,1,5.83,2.94,5.26,5.26,0,0,1,1.38,1.73A2,2,0,0,1,115.82,118.12Z"/></svg>