<svg id="Layer_54" data-name="Layer 54" xmlns="http://www.w3.org/2000/svg" viewBox="0 0 256 256"><defs><style>.cls-1{opacity:0.5;isolation:isolate;}.cls-2{fill:#fff;}.cls-3{fill:#43b3bf;}.cls-3,.cls-5{stroke:#007a77;}.cls-3,.cls-4,.cls-5{stroke-miterlimit:10;stroke-width:2px;}.cls-4,.cls-6{fill:#288fa0;}.cls-4{stroke:#005f66;}.cls-5{fill:#4ad3d3;}.cls-7{fill:#2db2af;}.cls-8{fill:#81e5ea;}</style></defs><path class="cls-1" d="M106.25,239.66c-21.63,0-44.61-7.4-44.61-21.1a11.38,11.38,0,0,1,.38-2.93A69.65,69.65,0,0,1,43.93,197.3c-22.75-33.55-5.06-71.45,1.61-85.72,0,0,.82-1.76,1.2-2.56,4.45-9.42,16.13-34.14,10.51-44.38-2.15-1.65-5.48-1.91-7.36-1.91a21,21,0,0,0-4.73.51,13.31,13.31,0,0,1-3,.35,10.74,10.74,0,0,1-8.93-4.46,11.4,11.4,0,0,1-1.16-10.52,5.89,5.89,0,0,1,.24-.58c1.91-4,5-5.56,7.75-7,.79-.4,1.61-.82,2.47-1.32C44,38.91,45.63,38,47.44,37c19.92-10.4,51.87-10.7,55.45-10.7,1.27,0,2.43,0,3.39.07.74,0,1.61-.05,2.58-.05,9.71,0,30.62,1.47,47.39,7l.24.09c4.89,1.84,13.27,6,14.46,13.09a10.1,10.1,0,0,1,.1,2.48,67.54,67.54,0,0,1,8.42-2.73l.69-.16A58.38,58.38,0,0,1,191.25,45c11.63,0,21.83,3.83,29.51,11.07C231.68,66.41,236.52,82.78,234,101c-1.92,14-8.62,29.42-18.87,43.39a127,127,0,0,1-37.82,34.14,64.38,64.38,0,0,1-8.74,18.77,69.57,69.57,0,0,1-18.12,18.36,11.56,11.56,0,0,1,.37,2.9C150.86,232.26,127.88,239.66,106.25,239.66Zm52.27-147.6c2.48,6.74,5.45,13,7.48,17.36l1,2.15c3.26,7,9.39,20.12,11.82,35.6,18.52-15.59,28.66-35.4,30.58-49.53,1.39-10.17-.69-18.73-5.71-23.47-3-2.86-7.19-4.31-12.35-4.31a33.17,33.17,0,0,0-6.08.6A41.44,41.44,0,0,0,158.52,92.06Z"/><path class="cls-2" d="M101.25,234.66c-21.63,0-44.61-7.4-44.61-21.1a11.38,11.38,0,0,1,.38-2.93A69.65,69.65,0,0,1,38.93,192.3c-22.75-33.55-5.06-71.45,1.61-85.72,0,0,.82-1.76,1.2-2.56,4.45-9.42,16.13-34.14,10.51-44.38-2.15-1.65-5.48-1.91-7.36-1.91a21,21,0,0,0-4.73.51,13.31,13.31,0,0,1-3,.35,10.74,10.74,0,0,1-8.93-4.46,11.4,11.4,0,0,1-1.16-10.52,5.89,5.89,0,0,1,.24-.58c1.91-4,5-5.56,7.75-7,.79-.4,1.61-.82,2.47-1.32C39,33.91,40.63,33,42.44,32c19.92-10.4,51.87-10.7,55.45-10.7,1.27,0,2.43,0,3.39.07.74,0,1.61-.05,2.58-.05,9.71,0,30.62,1.47,47.39,7l.24.09c4.89,1.84,13.27,6,14.46,13.09a10.1,10.1,0,0,1,.1,2.48,67.54,67.54,0,0,1,8.42-2.73l.69-.16A58.38,58.38,0,0,1,186.25,40c11.63,0,21.83,3.83,29.51,11.07C226.68,61.41,231.52,77.78,229,96c-1.92,14-8.62,29.42-18.87,43.39a127,127,0,0,1-37.82,34.14,64.38,64.38,0,0,1-8.74,18.77,69.57,69.57,0,0,1-18.12,18.36,11.56,11.56,0,0,1,.37,2.9C145.86,227.26,122.88,234.66,101.25,234.66Zm52.27-147.6c2.48,6.74,5.45,13,7.48,17.36l1,2.15c3.26,7,9.39,20.12,11.82,35.6,18.52-15.59,28.66-35.4,30.58-49.53,1.39-10.17-.69-18.73-5.71-23.47-3-2.86-7.19-4.31-12.35-4.31a33.17,33.17,0,0,0-6.08.6A41.44,41.44,0,0,0,153.52,87.06Z"/><path class="cls-3" d="M162.47,171.28a6.42,6.42,0,0,1-3.05-12.08c31.12-16.76,48.22-45.83,50.94-65.75,1.65-12.12-1.1-22.56-7.54-28.64-5.64-5.32-13.89-7.12-23.87-5.21a47.35,47.35,0,0,0-32.1,27.76,6.43,6.43,0,0,1-12.16-4.16A60.1,60.1,0,0,1,176,47.1l.36-.08c14.09-2.75,26.64.24,35.33,8.45,9.5,9,13.67,23.44,11.45,39.72-1.78,13-8.08,27.47-17.76,40.65a120.72,120.72,0,0,1-39.81,34.67A6.45,6.45,0,0,1,162.47,171.28Z"/><path class="cls-4" d="M139.86,213.56c0,7.93-17.29,15.09-38.61,15.09s-38.61-7.16-38.61-15.09,17.28-14.35,38.61-14.35S139.86,205.63,139.86,213.56Z"/><path class="cls-5" d="M156.42,108.79c-6.12-13.11-25.32-51.47-3.07-59,1.38-.55,3.5-1.43,4.27-2.36,6.85-5.7-2.06-11.05-8.25-13.39-17.93-5.91-41.47-7-48.1-6.65-7.66-.37-38,.52-56,9.94-1.81.95-3.34,1.8-4.66,2.59-3.82,2.23-6.42,2.76-7.81,5.67-1.62,4.57,1.62,7.81,6,6.78,4-.94,13-1.63,18.11,3.35,8.86,13.48-5.67,42.1-10.78,53.05C39.79,122.35,22.89,158,43.9,188.94c18.52,27.31,48.37,29,57.37,29,8.78.19,38.86-1.66,57.38-29C179.66,158,162.75,122.35,156.42,108.79Z"/><path class="cls-6" d="M151.29,42.3c0-5.13-21-9.29-46.93-9.29a184.64,184.64,0,0,0-32,2.49c-6.47,1.08-17.69,3.64-27.35,9.3-3.54,3.24,1,3.39,4.71,3s12.68.29,29.92,2.5c1.39.15,3,.3,4.65.44,6.08.57,12.86.89,20,.89h.81c3.37,0,6.64,0,9.56-.22C135.66,50.41,151.29,46.72,151.29,42.3Z"/><path class="cls-7" d="M100.93,217.65c15.65-.13,29-3.74,40.91-12a62.1,62.1,0,0,0,24.66-34.61c3.74-14.2,2.11-29.47-2.55-43.4C159,112.77,150.86,99,145.88,84.1c-2.93-8.76-5.06-19.1-1.37-27.37-8.25,9.6-10.63,26.88-9.06,41.31,1.7,15.62,8.59,30.41,9.51,46.1a61.77,61.77,0,0,1-6.46,31.18C130,192.32,114.26,204.09,100.93,217.65Z"/><path class="cls-8" d="M37.2,152.83c-1.35,17.37,6.66,33.73,13,34.22s-5.94-16.28-4.59-33.65,8.44-30.1,2.1-30.59S38.55,135.46,37.2,152.83Z"/></svg>