<svg id="Layer_54" data-name="Layer 54" xmlns="http://www.w3.org/2000/svg" viewBox="0 0 512 256"><defs><style>.cls-1{opacity:0.5;}.cls-13,.cls-2{fill:#fff;}.cls-12,.cls-3{fill:#b52200;}.cls-3{stroke:#703000;stroke-miterlimit:10;stroke-width:2px;}.cls-4{fill:#29151e;}.cls-5{fill:#e55c00;}.cls-6{fill:#ff6a00;}.cls-7{fill:none;}.cls-8{fill:#e2d96a;}.cls-9{fill:#ff5215;}.cls-10{fill:#fcfcff;}.cls-11{fill:#021e4b;}.cls-13{opacity:0.1;}.cls-14{opacity:0.8;}</style></defs><g id="Fish"><path class="cls-1" d="M252.53,214c-7.61,0-14.69-3.9-19.92-11a55.2,55.2,0,0,1-6.1-10.31,51.25,51.25,0,0,1-3-8.78c-4.09-.72-8.07-1.58-11.88-2.56l-2.13-.57a116,116,0,0,1-17.41-6.23l-1.43-.67A61.93,61.93,0,0,1,175.46,164c-7.19-6.61-11.13-11.55-13.17-16.52-2.72-6.62-1.95-13.31,2.28-19.88,6-9.35,14.37-17.27,27.06-25.7.39-.27.82-.55,1.26-.83l1-.66A114.25,114.25,0,0,1,207.42,93c.87-.4,1.75-.79,2.59-1.16a82,82,0,0,1,13.93-4.68,29.35,29.35,0,0,1,8.54-14.37l.63-.58c5.43-5,11.37-7.5,17.67-7.5a26.14,26.14,0,0,1,9,1.68c4.66,1.71,9.07,4.73,13.56,8l1.42,1.36a34.78,34.78,0,0,1,7,17.82c.05.44.08.88.1,1.33,2.62.66,5.18,1.32,7.6,2,5.68-6.25,13.49-11.78,20.41-14.29l.35-.34,1.65-.33.65-.21H313a39.51,39.51,0,0,1,7.39-.8,20.57,20.57,0,0,1,7.86,1.42A19.36,19.36,0,0,1,340,95.7a30.34,30.34,0,0,1,.14,14.17,24.6,24.6,0,0,1-.73,2.58,40.28,40.28,0,0,0,8.55,1.41l.51,0a19.81,19.81,0,0,0,6.44-1.52l.14-.06a35,35,0,0,0,6.35-3.94,44.28,44.28,0,0,1,8.69-5.21,23.4,23.4,0,0,1,9-1.68c10.05,0,23.58,5.68,28.6,21.69,6.16,19.63,1.55,37.08-12,45.54a30.07,30.07,0,0,1-16.14,4.59h0a40.63,40.63,0,0,1-19.74-5.6l-1.72-1-1.72-1.17c-5-3.42-9-5.53-12.85-5.53-.27,0-.53,0-.8,0l-.3,0c1.51,7.87-.32,15.34-5.47,22.3-4.1,5.55-13.26,12-25.54,12a33.73,33.73,0,0,1-5.5-.45,78.65,78.65,0,0,1-9.75-2.22l-.86-.26-.76-.47a30.26,30.26,0,0,1-9.13-8.31c-3.1.76-6.13,1.41-9.14,1.95,1.9,8.19.12,17-4.69,22.52C267.71,211.44,260.61,214,252.53,214Z"/><path class="cls-2" d="M247.5,209c-7.62,0-14.7-3.9-19.93-11a56,56,0,0,1-6.09-10.31,50.69,50.69,0,0,1-3-8.78c-4.09-.72-8.07-1.58-11.88-2.57-.73-.19-1.43-.37-2.13-.57a114.39,114.39,0,0,1-17.42-6.23l-1.43-.67a61.84,61.84,0,0,1-15.21-9.9c-7.19-6.61-11.13-11.56-13.17-16.53-2.73-6.62-2-13.3,2.28-19.87,6-9.35,14.37-17.28,27.05-25.71l1.26-.83,1-.66A112,112,0,0,1,202.39,88c.87-.41,1.74-.8,2.59-1.16a82.17,82.17,0,0,1,13.92-4.68,29.44,29.44,0,0,1,8.55-14.37l.62-.59c5.43-5,11.38-7.5,17.68-7.5a26.36,26.36,0,0,1,9,1.68c4.67,1.71,9.08,4.74,13.57,7.95l1.41,1.36a34.74,34.74,0,0,1,7,17.82c.05.45.08.89.1,1.33,2.61.66,5.18,1.33,7.6,2C290.15,85.55,298,80,304.89,77.52l.34-.35,1.66-.33.64-.21H308a39.34,39.34,0,0,1,7.39-.8,20.83,20.83,0,0,1,7.86,1.42,19.34,19.34,0,0,1,11.71,13.41,30.37,30.37,0,0,1,.15,14.17,25.49,25.49,0,0,1-.73,2.59,40.13,40.13,0,0,0,8.54,1.4l.52,0a19.75,19.75,0,0,0,6.43-1.51l.15-.07a35.63,35.63,0,0,0,6.35-3.93A43.41,43.41,0,0,1,365,98.08a23.47,23.47,0,0,1,9-1.69c10.06,0,23.58,5.69,28.61,21.7,6.15,19.62,1.54,37.07-12,45.54a30.12,30.12,0,0,1-16.15,4.58h0a40.56,40.56,0,0,1-19.74-5.6L353,161.54l-1.68-1.1c-5-3.42-9-5.53-12.86-5.53-.26,0-.53,0-.79,0l-.3,0c1.5,7.87-.32,15.34-5.47,22.29-4.11,5.55-13.26,12-25.55,12a32.84,32.84,0,0,1-5.5-.46,78.07,78.07,0,0,1-9.74-2.22l-.86-.25-.77-.47a30,30,0,0,1-9.12-8.32c-3.11.77-6.14,1.41-9.15,2,1.91,8.2.12,17-4.69,22.52C262.67,206.4,255.57,209,247.5,209Z"/><path class="cls-3" d="M396,120.16c-5.06-16.13-20.88-18.83-28.31-15.7-5.55,2.34-9.14,6.6-15.13,9.18h0a26.29,26.29,0,0,1-8.65,2.07c-4.11.3-11.24-1.38-19.34-3.81l-.74-.23a18.33,18.33,0,0,0,4.47-8.35c1.39-6.19,1-16.16-7.68-19.65-3.49-1.4-7.55-1-12-.12h0l-.87.3c-7.54,2.54-16.14,9.45-20.78,15.82-4.64-1.3-10.86-2.93-17.63-4.56h0a15.24,15.24,0,0,0,.56-5.87A28,28,0,0,0,264.32,75c-4.1-2.94-8.06-5.67-11.91-7.08-8.46-3.1-14.81,0-19.66,4.43l-.52.48c-4.33,4.15-6,7.75-7.67,15.41a63.36,63.36,0,0,0-16.84,5c-.81.35-1.62.72-2.43,1.09a105.75,105.75,0,0,0-12.66,6.94l-1,.65-1.21.8c-11.8,7.84-19.5,15-25.06,23.69-6.23,9.64-1.57,17.14,9.76,27.56a55.13,55.13,0,0,0,13.52,8.75l1.31.62a108.5,108.5,0,0,0,16.4,5.85c.66.19,1.32.37,2,.54a154.54,154.54,0,0,0,16,3.2,44.27,44.27,0,0,0,3.42,12,48.14,48.14,0,0,0,5.34,9c3.63,4.91,8.49,8.17,14.36,8.17s11.29-1.75,13.77-4.59c3.74-4.27,4.65-11.91,2.73-18a10.56,10.56,0,0,0-3.22-4.58c-.32-.29-.66-.56-1-.83,1.69-.16,3.35-.35,5-.57,1.19-.16,2.37-.33,3.52-.52a139.67,139.67,0,0,0,15.62-3.54h0c.39.94.81,1.85,1.25,2.72a21.2,21.2,0,0,0,7.91,7.8,73.42,73.42,0,0,0,8.9,2c10.89,1.81,20.39-3.53,24.35-8.87,3.83-5.17,6.75-12.51,2.43-22.54a26.22,26.22,0,0,1,8.39-2.56c6.52-.48,12.23,2.69,18.56,7l.95.63h0c6.86,4.37,19.21,9,30.3,2.06C398.56,150.5,400.85,135.56,396,120.16Z"/><path class="cls-4" d="M326.3,173.14c-4,5.34-13.46,10.68-24.35,8.87a73.42,73.42,0,0,1-8.9-2,21.2,21.2,0,0,1-7.91-7.8,55.39,55.39,0,0,1-4.77-14.78c.6-.59,1.22-1.17,1.87-1.73a43.22,43.22,0,0,0,7.91,17.5C301,187,325.88,171.6,326.49,155.29a22.52,22.52,0,0,0-2.32-9.74,8.7,8.7,0,0,1,4.15,4.1C333.26,160.18,330.25,167.81,326.3,173.14Z"/><path class="cls-5" d="M326.49,155.29C325.88,171.6,301,187,290.15,173.17a43.22,43.22,0,0,1-7.91-17.5,39.76,39.76,0,0,1,8.71-5.91c8.23-3.94,24.85-8.37,33.22-4.21A22.52,22.52,0,0,1,326.49,155.29Z"/><path class="cls-4" d="M263,105.85l-3-.82c4.29-5.55,7.34-11.15,6.63-17.29-1-8.67-15-19.68-33.85-15.44,4.85-4.45,11.2-7.53,19.66-4.43,3.85,1.41,7.81,4.14,11.91,7.08a28,28,0,0,1,5.58,14.29C270.54,95.24,267.39,100.61,263,105.85Z"/><path class="cls-6" d="M260,105c-19.63-5.43-36.49-11.27-36-14.1,1.81-9.61,3.4-13.54,8.22-18.15l.52-.48c18.86-4.24,32.85,6.77,33.85,15.44C267.31,93.88,264.26,99.48,260,105Z"/><path class="cls-4" d="M328.32,103.32c-1.17,5.24-4.49,8.72-7.94,11.74a46.84,46.84,0,0,0,2.58-4.43c5.22-10.44,1.57-19.47-8.34-20.44-7.14-.69-17.57.7-22.58,8.31a60.64,60.64,0,0,0-6.2,13.09l-3.72-.87a50,50,0,0,1,2.33-6.79c3.15-7.21,14-17,23.31-20.08l.87-.3h0c4.45-.88,8.51-1.28,12,.12C329.32,87.16,329.71,97.13,328.32,103.32Z"/><path class="cls-6" d="M323,110.63a46.84,46.84,0,0,1-2.58,4.43h0c-.63.55-1.26,1.08-1.88,1.61-1.54,1.29-15.73-1.17-32.66-5.08A60.64,60.64,0,0,1,292,98.5c5-7.61,15.44-9,22.58-8.31C324.53,91.16,328.18,100.19,323,110.63Z"/><path class="cls-4" d="M261.27,197.49c-2.48,2.84-7.9,4.59-13.77,4.59s-10.73-3.26-14.36-8.17a48.14,48.14,0,0,1-5.34-9c.51.77,1,1.51,1.56,2.23,3.63,4.91,8.49,8.16,14.36,8.16s11.29-1.74,13.78-4.59c3.29-3.76,4.39-10.14,3.28-15.77A10.56,10.56,0,0,1,264,179.5C265.92,185.58,265,193.22,261.27,197.49Z"/><path class="cls-5" d="M257.5,190.69c-2.49,2.85-7.9,4.59-13.78,4.59S233,192,229.36,187.12c-.53-.72-1.05-1.46-1.56-2.23a45.44,45.44,0,0,1-3.74-14.68c-.55-6.21,19.12-4.17,25.09-1.71,4,1.65,8.56,3.69,11.63,6.42C261.89,180.55,260.79,186.93,257.5,190.69Z"/><path class="cls-7" d="M196.14,115.49a6.62,6.62,0,1,1-6.62-6.62A6.62,6.62,0,0,1,196.14,115.49Z"/><path class="cls-8" d="M222.44,140c-3.56,3.56-7.57,7.29-10.27,12.69-2.37,4.74-4.22,12.83-5.82,16.48a108.5,108.5,0,0,1-16.4-5.85c2.65-7.34,8.72-12.49,12.72-20,5.88-11.06,3.45-31.45-11-41.4l1-.65a105.75,105.75,0,0,1,12.66-6.94C215.35,104.21,234,128.44,222.44,140Z"/><path d="M268.26,173c-1.15.18-2.33.36-3.52.52-4.34-5-10.58-9.17-14.42-12.09-4.92-3.73-8-9-10-15-7.13-21.88,20.75-35.53,25.62-52.09l3.37.8c-4.81,16.64-35.33,29.3-26.61,50.65,2,4.92,4.48,10.34,9,14.07C255.4,162.78,263.09,167.53,268.26,173Z"/><path class="cls-8" d="M284.45,103.93c-6.1,14-8.76,46.15-.57,65.53A139.67,139.67,0,0,1,268.26,173c-5.17-5.47-12.86-10.22-16.48-13.17-4.56-3.73-7-9.15-9-14.07-8.72-21.35,21.8-34,26.61-50.65,6.77,1.63,13,3.26,17.63,4.56A22.73,22.73,0,0,0,284.45,103.93Z"/><path class="cls-4" d="M396,120.16c-5.06-16.13-20.88-18.83-28.31-15.7-5.55,2.34-9.14,6.6-15.13,9.18h0c-9.26,11.15-5.07,30.88,4.05,42.05h0c6.86,4.37,19.21,9,30.3,2.06C398.56,150.5,400.85,135.56,396,120.16Zm-8.24,21.36c-1.86,8-7.61,13.2-12.55,14.68-8.86,2.65-19.7-1.7-22.66-11.3-2-6.42-3.67-21.08.3-26.47,6.26-8.48,20.11-10.77,26.73-6.23C388.67,118.43,389.74,133.14,387.78,141.52Z"/><path class="cls-8" d="M356.63,155.69l-.95-.63c-6.33-4.33-12-7.5-18.56-7-3.08.22-6.73,1.69-10.89,3.74l-.6.3c-5.65-10.59-5.91-28.21-1-40.18,8.1,2.43,15.23,4.11,19.34,3.81a26.29,26.29,0,0,0,8.65-2.07C343.32,124.79,347.51,144.52,356.63,155.69Z"/><path d="M287.05,168.53c-1,.32-2.1.63-3.17.93-8.19-19.38-5.53-51.57.57-65.53A22.73,22.73,0,0,1,287,99.67l.26.07c1.07.31,2.22.64,3.42,1C281.77,116.31,275.46,148.08,287.05,168.53Z"/><path class="cls-6" d="M387.78,141.52c-1.86,8-7.61,13.2-12.55,14.68-8.86,2.65-19.7-1.7-22.66-11.3-2-6.42-3.67-21.08.3-26.47,6.26-8.48,20.11-10.77,26.73-6.23C388.67,118.43,389.74,133.14,387.78,141.52Z"/><path d="M202.67,143.26c-4,7.53-10.07,12.68-12.72,20l-1.31-.62c2.36-7.17,7.73-12.22,11.28-19.6,5.18-10.77,3.1-30.55-9.5-40.4l1.21-.8C206.12,111.81,208.55,132.2,202.67,143.26Z"/><path d="M225.2,141.25c-4,3.88-8.53,7.95-11.58,13.85-2.06,4-3.77,10.13-5.27,14.57-.68-.17-1.34-.35-2-.54,1.6-3.65,3.45-11.74,5.82-16.48,2.7-5.4,6.71-9.13,10.27-12.69,11.53-11.52-7.09-35.75-17.15-45.69.81-.37,1.62-.74,2.43-1.09C219.32,104.94,237.53,129.32,225.2,141.25Z"/><path d="M325.63,152.08c-.79.39-1.59.8-2.41,1.23-6.4-10.71-6.71-29.83-1.25-42.21l.64.2,2,.6C319.72,123.87,320,141.49,325.63,152.08Z"/><path class="cls-9" d="M190.42,102.66c-11.8,7.84-19.5,15-25.06,23.69-6.23,9.64-1.57,17.14,9.76,27.56a55.13,55.13,0,0,0,13.52,8.75c2.36-7.17,7.73-12.22,11.28-19.6C205.1,132.29,203,112.51,190.42,102.66Zm-.9,19.45a6.62,6.62,0,1,1,6.62-6.62A6.63,6.63,0,0,1,189.52,122.11Zm75.22,51.41a128.52,128.52,0,0,1-24.77.92,164,164,0,0,1-31.62-4.77c1.5-4.44,3.21-10.58,5.27-14.57,3-5.9,7.57-10,11.58-13.85,12.33-11.93-5.88-36.31-17.48-48.07,6.34-2.73,12.72-4.69,17.9-5.11,7.86-.62,25,2.67,40.36,6.24-4.87,16.56-32.75,30.21-25.62,52.09,1.94,6,5,11.3,10,15C254.16,164.35,260.4,168.48,264.74,173.52Zm58.48-20.21c-6.75,3.5-14.68,8-23.57,11.07-4,1.38-8.18,2.81-12.6,4.15-11.59-20.45-5.28-52.22,3.61-67.77,8.74,2.69,20.65,7,31.31,10.34C316.51,123.48,316.82,142.6,323.22,153.31Z"/><path d="M275.67,138.5c0,7.47-4.24,13.44-9.9,17.92a18.61,18.61,0,0,1-12.28,3.78,16.9,16.9,0,0,0,4.88-2.57c5.66-4.31,9.9-10,9.9-17.21s-4.42-12.18-11.55-14.32a25.92,25.92,0,0,0-12.28-.79,25.16,25.16,0,0,1,19.68-1.72C271.25,125.81,275.67,131,275.67,138.5Z"/><path class="cls-6" d="M268.27,140.42c0,7.18-4.24,12.9-9.9,17.21a16.9,16.9,0,0,1-4.88,2.57,25.59,25.59,0,0,1-10.21-2.52c-8-3.79-12.13-23-6-27.78a42.79,42.79,0,0,1,7.19-4.59,25.92,25.92,0,0,1,12.28.79C263.85,128.24,268.27,133.25,268.27,140.42Z"/><path class="cls-10" d="M189.33,122.9a7.25,7.25,0,1,0-7.25-7.25,7.31,7.31,0,0,0,7.25,7.25Z"/><path class="cls-11" d="M186.88,120.27c5.91,0,5.91-9.17,0-9.17s-5.91,9.17,0,9.17Z"/><path class="cls-12" d="M163.45,133c1.21-.09,2.79,2.58,5.47,3.07a34.39,34.39,0,0,0,9.82.19,25.68,25.68,0,0,1-7.1,1.28,14.87,14.87,0,0,1-7-1.5,4.86,4.86,0,0,1-1.32-.91,2.18,2.18,0,0,1-.67-1.34C162.62,133.34,162.89,133.05,163.45,133Z"/><circle class="cls-13" cx="125.83" cy="124.62" r="7.87"/><g class="cls-14"><path class="cls-2" d="M129.59,117.55a8.06,8.06,0,1,0,3.09,11A8.07,8.07,0,0,0,129.59,117.55Zm-7.79,13.9a7.88,7.88,0,1,1,10.72-3A7.87,7.87,0,0,1,121.8,131.45Z"/></g><path class="cls-2" d="M123.86,118.19a2.77,2.77,0,0,1,1.11,0c.74.18.94.88.54,1-2.2.64-3.92,3.28-4.27,5.75a3.46,3.46,0,0,1-.28,1.15.87.87,0,0,1-1,.48,1.09,1.09,0,0,1-.59-.89,7.47,7.47,0,0,1,.93-4.47,5.37,5.37,0,0,1,3.31-2.93Z"/><circle class="cls-13" cx="136.13" cy="93.38" r="8.86"/><g class="cls-14"><path class="cls-2" d="M140.35,85.44a9.06,9.06,0,1,0,3.47,12.33A9.07,9.07,0,0,0,140.35,85.44Zm-8.76,15.63a8.86,8.86,0,1,1,12-3.4A8.86,8.86,0,0,1,131.59,101.07Z"/></g><path class="cls-2" d="M133.91,86.16a3.05,3.05,0,0,1,1.24,0c.84.2,1.07,1,.62,1.12-2.48.73-4.41,3.7-4.81,6.47a3.75,3.75,0,0,1-.31,1.29,1,1,0,0,1-1.11.54,1.22,1.22,0,0,1-.66-1,8.5,8.5,0,0,1,1.05-5,6,6,0,0,1,3.72-3.28Z"/><circle class="cls-13" cx="110.93" cy="67.89" r="8.86"/><g class="cls-14"><path class="cls-2" d="M115.15,60a9.06,9.06,0,1,0,3.47,12.33A9.06,9.06,0,0,0,115.15,60Zm-8.76,15.62a8.85,8.85,0,1,1,12-3.39A8.85,8.85,0,0,1,106.39,75.57Z"/></g><path class="cls-2" d="M108.71,60.67a2.93,2.93,0,0,1,1.25,0c.83.2,1.06,1,.61,1.12-2.48.73-4.41,3.69-4.81,6.47a3.75,3.75,0,0,1-.31,1.29,1,1,0,0,1-1.11.54,1.25,1.25,0,0,1-.66-1,8.47,8.47,0,0,1,1-5,6,6,0,0,1,3.72-3.29A2.44,2.44,0,0,1,108.71,60.67Z"/><circle class="cls-13" cx="145.38" cy="55.6" r="13.26"/><g class="cls-14"><path class="cls-2" d="M151.71,43.7a13.57,13.57,0,1,0,5.2,18.47A13.57,13.57,0,0,0,151.71,43.7ZM138.59,67.1a13.26,13.26,0,1,1,18-5.08A13.26,13.26,0,0,1,138.59,67.1Z"/></g><path class="cls-2" d="M142.06,44.78a4.38,4.38,0,0,1,1.87-.05c1.25.29,1.59,1.48.92,1.67-3.72,1.09-6.61,5.53-7.2,9.68a5.69,5.69,0,0,1-.47,1.94,1.48,1.48,0,0,1-1.66.81,1.86,1.86,0,0,1-1-1.49c-.5-2.56.5-5.25,1.57-7.54a9,9,0,0,1,5.57-4.92Z"/></g></svg>