<svg id="Layer_54" data-name="Layer 54" xmlns="http://www.w3.org/2000/svg" viewBox="0 0 256 256"><defs><style>.cls-1{opacity:0.5;}.cls-2{fill:#fff;}.cls-3{fill:#c6681a;}.cls-4{fill:#8e470c;}</style></defs><path class="cls-1" d="M214.52,134.29a4.54,4.54,0,0,0,1.3-3.63l0-.34h0c.14-.15.28-.31.42-.49a10.79,10.79,0,0,0,2.17-5.32,10.23,10.23,0,0,0,0-2.78,14.54,14.54,0,0,0,.33-2.44v-.18l.34-.18-.34,0a11.37,11.37,0,0,0-1.33-5.26,10.07,10.07,0,0,0-1.47-2.06l.18-.43.06-.16a12,12,0,0,0,.63-4.55,12.15,12.15,0,0,0-1.22-4.67c-.12-.22-.23-.43-.35-.63a11.68,11.68,0,0,0-.76-4.39l-.1-.25a11.43,11.43,0,0,0-3-4,5.84,5.84,0,0,0-.5-.4,11.31,11.31,0,0,0-4.81-5.62l-.16-.09-.15-.08a11.6,11.6,0,0,0-2.87-1,13.48,13.48,0,0,0-3.5-3.21,13.26,13.26,0,0,0-4.75-1.86,15.85,15.85,0,0,0-2.8-.25c-.34,0-.67,0-1,0-.21-.15-.43-.3-.66-.44a12.18,12.18,0,0,0-4.51-1.65,12.41,12.41,0,0,0-2.23-.2c-.39,0-.75,0-1.06,0A12.26,12.26,0,0,0,180,76.52a12.49,12.49,0,0,0-4.67-.79,14.43,14.43,0,0,0-4.36.69l-.07,0a12.18,12.18,0,0,0-3.65-.94q-.67-.06-1.35-.06a14,14,0,0,0-2.89.3,14.87,14.87,0,0,0-2.72.88,16.41,16.41,0,0,0-4.57-1l-.23,0-.84,0a19,19,0,0,0-3.48.33l-.65.12a4.23,4.23,0,0,0-.42-.25,13,13,0,0,0-4.56-1.48,14.36,14.36,0,0,0-2-.13,17.77,17.77,0,0,0-2.38.17l-.27,0-.71.14c-.36-.15-.75-.3-1.16-.43a14.19,14.19,0,0,0-4.39-.67h-.55a16.74,16.74,0,0,0-3.94.65c-.27-.11-.54-.21-.84-.31l-.16,0a14.31,14.31,0,0,0-2.82-.6,17.32,17.32,0,0,0-2.79-.1,18.27,18.27,0,0,0-2.94.41c-.33-.12-.69-.23-1.07-.34a13.5,13.5,0,0,0-3.27-.41,12,12,0,0,0-1.25.06,10.69,10.69,0,0,0-3.89,1.13l-.43-.06-.26,0q-.66-.06-1.35-.06a14.51,14.51,0,0,0-3.49.41,11.69,11.69,0,0,0-2.75,1.07c-.41,0-.84-.07-1.3-.07a13.12,13.12,0,0,0-5.74,1.32l-.14.07c-.3.17-.59.35-.86.53l-.48,0h-.44a13.4,13.4,0,0,0-5.53,1.22A14.05,14.05,0,0,0,85.58,80a16,16,0,0,0-2.14.29,12.31,12.31,0,0,0-4.37,1.85,11.91,11.91,0,0,0-2.49,2.22,19.24,19.24,0,0,0-1.83.65l-.1,0a13,13,0,0,0-4.31,3.07,15.65,15.65,0,0,0-2.06,2.71,9.22,9.22,0,0,0-.91.42,11,11,0,0,0-4.1,3.63c-.17.24-.32.48-.46.72-.24.08-.48.18-.73.28a20.72,20.72,0,0,0-4.23,2.37l-.14.1a15.6,15.6,0,0,0-3.59,3.9,14.32,14.32,0,0,0-1.21,2.36l-1,1A20.9,20.9,0,0,0,49,108.91a15.69,15.69,0,0,0-2.1,4.43c-.11.39-.2.73-.26,1a15.3,15.3,0,0,0-3.36,10.86s0,.31.05.41-.23.51-.34.8a15.83,15.83,0,0,0-1,4.84v.24a13.86,13.86,0,0,0,1,5.28,11.14,11.14,0,0,0,.55,1.15,15.52,15.52,0,0,0-.18,1.7v.22a14,14,0,0,0,.89,5.12l.1.26a10.88,10.88,0,0,0,1.23,2.1,16.3,16.3,0,0,0,.37,3.66l0,.17a12.68,12.68,0,0,0,2.18,4.51,11.13,11.13,0,0,0,2.2,2.27,16.64,16.64,0,0,0,.49,1.62,13.58,13.58,0,0,0,2.95,4.91,8.33,8.33,0,0,0,.83.77c.13.47.28,1,.45,1.45a19.72,19.72,0,0,0,2.27,4.65A12.65,12.65,0,0,0,61,175c.3.2.6.38.89.54a21.8,21.8,0,0,0,2.1,3.15,19.07,19.07,0,0,0,5.19,4.57,11.69,11.69,0,0,0,2.84,1.24,13.06,13.06,0,0,0,1,1.06,11.38,11.38,0,0,0,4.56,2.38l.18,0,.18,0a19,19,0,0,0,3.73.27h6.4l-.42-6.57c-.1-1.48-.2-3-.41-4.77a52.83,52.83,0,0,0-1-6.09v0l.67.35a15.77,15.77,0,0,0,4.29,1.39,19.31,19.31,0,0,0,3.49.3h.9l1.22.57a26.11,26.11,0,0,0,2.54.93l.21.07.22.05a14.33,14.33,0,0,0,3.27.38h.52c.23,0,.46,0,.68-.06a14.79,14.79,0,0,0,1.66.71,15,15,0,0,0,4.48.9h.29a14.3,14.3,0,0,0,4.07-.56c.27.1.55.19.85.27a13.47,13.47,0,0,0,3.82.55,13.22,13.22,0,0,0,1.56-.09,14.08,14.08,0,0,0,3.56-1,16.63,16.63,0,0,0,4.11.77l.74,0a15.71,15.71,0,0,0,4.12-.55,12.26,12.26,0,0,0,1.21-.4,3.86,3.86,0,0,0,.51.09,14.62,14.62,0,0,0,2.66.24,12.62,12.62,0,0,0,2.23-.19,11.75,11.75,0,0,0,3.7-1.29l.41,0H145a16.21,16.21,0,0,0,3.46-.37,13.83,13.83,0,0,0,4.49-1.72l.12-.08.75-.5a12.57,12.57,0,0,0,2.69-.41l.58.23a18.18,18.18,0,0,0,4.55,1c.61.06,1.15.08,1.66.08a12,12,0,0,0,2.82-.31,12.81,12.81,0,0,0,2.31-.79l.71.14a15.07,15.07,0,0,0,2.64.24,14.28,14.28,0,0,0,6.49-1.6l.13-.07.23-.14,1.31.08h.68a19,19,0,0,0,4.43-.45,13.84,13.84,0,0,0,5.21-2.37,13.16,13.16,0,0,0,1.18-.94h0a18.52,18.52,0,0,0,2.17-.11,13.73,13.73,0,0,0,5.95-2,10.91,10.91,0,0,0,4.12-4.73c.06-.12.12-.25.17-.38l.76-.42a13.32,13.32,0,0,0,3.69-3.24l.14-.19a11.82,11.82,0,0,0,2-4.26c.09-.44.16-.87.2-1.26a13.12,13.12,0,0,0,1-1.8l.09-.2a13.58,13.58,0,0,0,1-5.55,11.18,11.18,0,0,0-.14-1.57c.15-.26.3-.53.44-.82l.07-.14a13.47,13.47,0,0,0,1.14-4.88,1.7,1.7,0,0,0,0-.22Zm-104.2-11.82a12.1,12.1,0,0,0-1.61-.1,14.89,14.89,0,0,0-2.47.21,15.26,15.26,0,0,0-2.51-1.5l-.1,0a16.58,16.58,0,0,0-3.66-1.12v0a12.07,12.07,0,0,0,1.93-3.56,14.5,14.5,0,0,0,1.3-.87l.23-.18.22-.2a16.59,16.59,0,0,0,1.48-1.53l.28-.08a13.26,13.26,0,0,0,2.54.25h0a11.5,11.5,0,0,0,4.43-1l.09,0a12.1,12.1,0,0,0,1.26.07,10,10,0,0,0,1.35-.09,13,13,0,0,0,3.38-.87c.33,0,.67,0,1,0a10.35,10.35,0,0,0,2.63-.35,9.77,9.77,0,0,0,2.26-.9,10.21,10.21,0,0,0,1.55.12,10.33,10.33,0,0,0,1.66-.14,13.11,13.11,0,0,0,2.32-.6,13.52,13.52,0,0,0,3.8.57c.32,0,.64,0,1,0l.37.18a12.41,12.41,0,0,0,4.28,1.15c.31,0,.61,0,.9,0a9.58,9.58,0,0,0,1.53-.12c.37.25.77.51,1.21.76l.12.06a13,13,0,0,0,4,1.38,9.51,9.51,0,0,0,1.6.13A10.66,10.66,0,0,0,150,114l.61.4.11.07a15,15,0,0,0,4.08,1.74,12.44,12.44,0,0,0,2.4.36c-.12.08-.23.17-.34.26l-.14.11a13.78,13.78,0,0,0-2.32,2.55,11.3,11.3,0,0,0-2.4,1,13.12,13.12,0,0,0-3.19,2.55l-.34.08a12,12,0,0,0-4.85,2.31,8.87,8.87,0,0,0-.94.87l-.43.12a11.76,11.76,0,0,0-3.49-.75c-.36,0-.72,0-1.08,0a12.71,12.71,0,0,0-3.69.54l-.41.14a13.72,13.72,0,0,0-3.69-.76c-.34,0-.68,0-1,0a12.88,12.88,0,0,0-2.84.32l-.48-.29a14.49,14.49,0,0,0-5.43-1.82l-.22,0c-.42,0-.83-.06-1.24-.06a13.24,13.24,0,0,0-3.46.45l-.09-.06A12.27,12.27,0,0,0,110.32,122.47Z"/><path class="cls-2" d="M209.52,129.29a4.54,4.54,0,0,0,1.3-3.63l0-.34h0c.14-.15.28-.31.42-.49a10.79,10.79,0,0,0,2.17-5.32,10.23,10.23,0,0,0,0-2.78,14.54,14.54,0,0,0,.33-2.44v-.18l.34-.18-.34,0a11.37,11.37,0,0,0-1.33-5.26,10.07,10.07,0,0,0-1.47-2.06l.18-.43.06-.16a12,12,0,0,0,.63-4.55,12.15,12.15,0,0,0-1.22-4.67c-.12-.22-.23-.43-.35-.63a11.68,11.68,0,0,0-.76-4.39l-.1-.25a11.43,11.43,0,0,0-3-4,5.84,5.84,0,0,0-.5-.4,11.31,11.31,0,0,0-4.81-5.62l-.16-.09-.15-.08a11.6,11.6,0,0,0-2.87-1,13.48,13.48,0,0,0-3.5-3.21,13.26,13.26,0,0,0-4.75-1.86,15.85,15.85,0,0,0-2.8-.25c-.34,0-.67,0-1,0-.21-.15-.43-.3-.66-.44a12.18,12.18,0,0,0-4.51-1.65,12.41,12.41,0,0,0-2.23-.2c-.39,0-.75,0-1.06,0A12.26,12.26,0,0,0,175,71.52a12.49,12.49,0,0,0-4.67-.79,14.43,14.43,0,0,0-4.36.69l-.07,0a12.18,12.18,0,0,0-3.65-.94q-.67-.06-1.35-.06a14,14,0,0,0-2.89.3,14.87,14.87,0,0,0-2.72.88,16.41,16.41,0,0,0-4.57-1l-.23,0-.84,0a19,19,0,0,0-3.48.33l-.65.12a4.23,4.23,0,0,0-.42-.25,13,13,0,0,0-4.56-1.48,14.36,14.36,0,0,0-2-.13,17.77,17.77,0,0,0-2.38.17l-.27,0-.71.14c-.36-.15-.75-.3-1.16-.43a14.19,14.19,0,0,0-4.39-.67h-.55a16.74,16.74,0,0,0-3.94.65c-.27-.11-.54-.21-.84-.31l-.16,0a14.31,14.31,0,0,0-2.82-.6,17.32,17.32,0,0,0-2.79-.1,18.27,18.27,0,0,0-2.94.41c-.33-.12-.69-.23-1.07-.34a13.5,13.5,0,0,0-3.27-.41,12,12,0,0,0-1.25.06,10.69,10.69,0,0,0-3.89,1.13l-.43-.06-.26,0q-.66-.06-1.35-.06a14.51,14.51,0,0,0-3.49.41,11.69,11.69,0,0,0-2.75,1.07c-.41,0-.84-.07-1.3-.07a13.12,13.12,0,0,0-5.74,1.32l-.14.07c-.3.17-.59.35-.86.53l-.48,0h-.44a13.4,13.4,0,0,0-5.53,1.22A14.05,14.05,0,0,0,80.58,75a16,16,0,0,0-2.14.29,12.31,12.31,0,0,0-4.37,1.85,11.91,11.91,0,0,0-2.49,2.22,19.24,19.24,0,0,0-1.83.65l-.1,0a13,13,0,0,0-4.31,3.07,15.65,15.65,0,0,0-2.06,2.71,9.22,9.22,0,0,0-.91.42,11,11,0,0,0-4.1,3.63c-.17.24-.32.48-.46.72-.24.08-.48.18-.73.28a20.72,20.72,0,0,0-4.23,2.37l-.14.1a15.6,15.6,0,0,0-3.59,3.9,14.32,14.32,0,0,0-1.21,2.36l-1,1A20.9,20.9,0,0,0,44,103.91a15.69,15.69,0,0,0-2.1,4.43c-.11.39-.2.73-.26,1a15.3,15.3,0,0,0-3.36,10.86s0,.31.05.41-.23.51-.34.8a15.83,15.83,0,0,0-1,4.84v.24a13.86,13.86,0,0,0,1,5.28,11.14,11.14,0,0,0,.55,1.15,15.52,15.52,0,0,0-.18,1.7v.22a14,14,0,0,0,.89,5.12l.1.26a10.88,10.88,0,0,0,1.23,2.1,16.3,16.3,0,0,0,.37,3.66l0,.17a12.68,12.68,0,0,0,2.18,4.51,11.13,11.13,0,0,0,2.2,2.27,16.64,16.64,0,0,0,.49,1.62,13.58,13.58,0,0,0,2.95,4.91,8.33,8.33,0,0,0,.83.77c.13.47.28,1,.45,1.45a19.72,19.72,0,0,0,2.27,4.65A12.65,12.65,0,0,0,56,170c.3.2.6.38.89.54a21.8,21.8,0,0,0,2.1,3.15,19.07,19.07,0,0,0,5.19,4.57,11.69,11.69,0,0,0,2.84,1.24,13.06,13.06,0,0,0,1,1.06,11.38,11.38,0,0,0,4.56,2.38l.18,0,.18,0a19,19,0,0,0,3.73.27h6.4l-.42-6.57c-.1-1.48-.2-3-.41-4.77a52.83,52.83,0,0,0-1-6.09v0l.67.35a15.77,15.77,0,0,0,4.29,1.39,19.31,19.31,0,0,0,3.49.3h.9l1.22.57a26.11,26.11,0,0,0,2.54.93l.21.07.22.05a14.33,14.33,0,0,0,3.27.38h.52c.23,0,.46,0,.68-.06a14.79,14.79,0,0,0,1.66.71,15,15,0,0,0,4.48.9h.29a14.3,14.3,0,0,0,4.07-.56c.27.1.55.19.85.27a13.47,13.47,0,0,0,3.82.55,13.22,13.22,0,0,0,1.56-.09,14.08,14.08,0,0,0,3.56-1,16.63,16.63,0,0,0,4.11.77l.74,0a15.71,15.71,0,0,0,4.12-.55,12.26,12.26,0,0,0,1.21-.4,3.86,3.86,0,0,0,.51.09,14.62,14.62,0,0,0,2.66.24,12.62,12.62,0,0,0,2.23-.19,11.75,11.75,0,0,0,3.7-1.29l.41,0H140a16.21,16.21,0,0,0,3.46-.37,13.83,13.83,0,0,0,4.49-1.72l.12-.08.75-.5a12.57,12.57,0,0,0,2.69-.41l.58.23a18.18,18.18,0,0,0,4.55,1c.61.06,1.15.08,1.66.08a12,12,0,0,0,2.82-.31,12.81,12.81,0,0,0,2.31-.79l.71.14a15.07,15.07,0,0,0,2.64.24,14.28,14.28,0,0,0,6.49-1.6l.13-.07.23-.14,1.31.08h.68a19,19,0,0,0,4.43-.45,13.84,13.84,0,0,0,5.21-2.37,13.16,13.16,0,0,0,1.18-.94h0a18.52,18.52,0,0,0,2.17-.11,13.73,13.73,0,0,0,5.95-2,10.91,10.91,0,0,0,4.12-4.73c.06-.12.12-.25.17-.38l.76-.42a13.32,13.32,0,0,0,3.69-3.24l.14-.19a11.82,11.82,0,0,0,2-4.26c.09-.44.16-.87.2-1.26a13.12,13.12,0,0,0,1-1.8l.09-.2a13.58,13.58,0,0,0,1-5.55,11.18,11.18,0,0,0-.14-1.57c.15-.26.3-.53.44-.82l.07-.14a13.47,13.47,0,0,0,1.14-4.88,1.7,1.7,0,0,0,0-.22Zm-104.2-11.82a12.1,12.1,0,0,0-1.61-.1,14.89,14.89,0,0,0-2.47.21,15.26,15.26,0,0,0-2.51-1.5l-.1,0A16.58,16.58,0,0,0,95,114.92v0a12.07,12.07,0,0,0,1.93-3.56,14.5,14.5,0,0,0,1.3-.87l.23-.18.22-.2a16.59,16.59,0,0,0,1.48-1.53l.28-.08a13.26,13.26,0,0,0,2.54.25h0a11.5,11.5,0,0,0,4.43-1l.09,0a12.1,12.1,0,0,0,1.26.07,10,10,0,0,0,1.35-.09,13,13,0,0,0,3.38-.87c.33,0,.67,0,1,0a10.35,10.35,0,0,0,2.63-.35,9.77,9.77,0,0,0,2.26-.9,10.21,10.21,0,0,0,1.55.12,10.33,10.33,0,0,0,1.66-.14,13.11,13.11,0,0,0,2.32-.6,13.52,13.52,0,0,0,3.8.57c.32,0,.64,0,1,0l.37.18a12.41,12.41,0,0,0,4.28,1.15c.31,0,.61,0,.9,0a9.58,9.58,0,0,0,1.53-.12c.37.25.77.51,1.21.76l.12.06a13,13,0,0,0,4,1.38,9.51,9.51,0,0,0,1.6.13A10.66,10.66,0,0,0,145,109l.61.4.11.07a15,15,0,0,0,4.08,1.74,12.44,12.44,0,0,0,2.4.36c-.12.08-.23.17-.34.26l-.14.11a13.78,13.78,0,0,0-2.32,2.55,11.3,11.3,0,0,0-2.4,1,13.12,13.12,0,0,0-3.19,2.55l-.34.08a12,12,0,0,0-4.85,2.31,8.87,8.87,0,0,0-.94.87l-.43.12a11.76,11.76,0,0,0-3.49-.75c-.36,0-.72,0-1.08,0a12.71,12.71,0,0,0-3.69.54l-.41.14a13.72,13.72,0,0,0-3.69-.76c-.34,0-.68,0-1,0a12.88,12.88,0,0,0-2.84.32l-.48-.29a14.49,14.49,0,0,0-5.43-1.82l-.22,0c-.42,0-.83-.06-1.24-.06a13.24,13.24,0,0,0-3.46.45l-.09-.06A12.27,12.27,0,0,0,105.32,117.47Z"/><path class="cls-3" d="M145.44,93.12a6.16,6.16,0,0,0-2.52-.48A7.37,7.37,0,0,0,141,93c.73.89,1.47,1.83,2.4,3.06s2,2.67,3.09,3.83a12.42,12.42,0,0,0,3,2.51,7.4,7.4,0,0,0,2.46.81,3.28,3.28,0,0,0,1.31,0,14.74,14.74,0,0,1-1.51-1.87c-.62-.81-1.34-2-2.07-3.13s-1.44-2.44-2.13-3.33A4.93,4.93,0,0,0,145.44,93.12Z"/><path class="cls-3" d="M178.09,114.83c-.31-.43-.58-.85-.85-1.23-.45.06-.9.12-1.36.14a13,13,0,0,1-1.3-.1,9.52,9.52,0,0,1-1.14-.26c-.25.28-.51.59-.77.87-.06.44-.13.89-.23,1.42a6.76,6.76,0,0,1-.58,1.73,7.86,7.86,0,0,1-1.35,1.91,9.15,9.15,0,0,1-1.87,1.42,20.55,20.55,0,0,1-1.85.9,3.66,3.66,0,0,1-.24.8,3.24,3.24,0,0,1-.45.89,3.57,3.57,0,0,1-.44.63l1.11-.93a11.49,11.49,0,0,1,1.1-.85,8.34,8.34,0,0,1,1.26-.68,9,9,0,0,1,1.46-.5,5.63,5.63,0,0,1,.85-.66,13.93,13.93,0,0,1,2-1,16.28,16.28,0,0,1,2.28-.59,5.54,5.54,0,0,1,.74-.87,9,9,0,0,1,2.62-1.76C178.7,115.68,178.39,115.25,178.09,114.83Z"/><path class="cls-3" d="M180.81,114.3a5.26,5.26,0,0,0,1-2,10.51,10.51,0,0,0,0-3.36,11.07,11.07,0,0,0-1.1-3.49,9.71,9.71,0,0,0-2.36-3,7.56,7.56,0,0,0-2.8-1.44,10.83,10.83,0,0,0-2.15-.35c.22.46.49.88.86,1.68s.81,1.92,1.29,3.13.94,2.58,1.58,3.88a18.57,18.57,0,0,0,2,3.28A15.47,15.47,0,0,0,180.81,114.3Z"/><path class="cls-3" d="M143.69,87.6c-.91-.74-1.88-1.77-2.94-2.8a26.24,26.24,0,0,0-3.31-2.9,13,13,0,0,0-3.28-1.62,6.2,6.2,0,0,0-2.44-.32,10.32,10.32,0,0,0-2.6.41,5.51,5.51,0,0,0-1.69,1.11,37.33,37.33,0,0,1,4.1,2.48c1.47,1,3,2.27,4.35,3.27a19.77,19.77,0,0,0,3.79,2.27,11.84,11.84,0,0,0,3.64,1,7.58,7.58,0,0,0,2.67-.25,7.28,7.28,0,0,0,1.42-.55,10.42,10.42,0,0,1-1.37-.55A12.79,12.79,0,0,1,143.69,87.6Z"/><path class="cls-3" d="M149.72,92.67c.69,1.79,1.43,3.59,2.25,5.22a30.76,30.76,0,0,0,2.66,4.38,15.46,15.46,0,0,0,2.78,2.92,6.66,6.66,0,0,0,2.36,1.09,6.21,6.21,0,0,0,1.63.16c-.56-1.06-1.13-2.15-1.65-3.28s-.91-2.33-1.43-3.58a20.36,20.36,0,0,0-1.8-3.48,7.7,7.7,0,0,0-2.35-2.24,7.25,7.25,0,0,0-2.38-.89A18.79,18.79,0,0,0,149.72,92.67Z"/><path class="cls-3" d="M156.16,89.78a5.19,5.19,0,0,1-.83.24,7.7,7.7,0,0,1-.91.25l-.7.09c.28.18.56.31.91.57a7.13,7.13,0,0,1,1.15.92c.39.34.7.68,1.06,1l.53,0,.69,0c.25,0,.49.06.73.11-.3-.42-.61-.81-1-1.23s-.62-.81-.89-1.11S156.39,90,156.16,89.78Z"/><path class="cls-3" d="M161.83,91a16.83,16.83,0,0,0-1.9-.42,17.33,17.33,0,0,1-2.18-.68c.73,1,1.47,1.91,2.05,2.55a6.88,6.88,0,0,0,1.37,1.3c.44.3,1,.57,1.36.84a6.75,6.75,0,0,1,.91.65,11,11,0,0,1,1.15,0,8.67,8.67,0,0,1,1,0c-.46-.55-1-1.11-1.39-1.7s-.77-1.26-1.15-1.69A2.05,2.05,0,0,0,161.83,91Z"/><path class="cls-3" d="M168.15,90.91a6.24,6.24,0,0,0-2.44-.52,9.24,9.24,0,0,0-1.44.13c.61,1,1.18,1.94,1.8,2.79a13.65,13.65,0,0,0,2.11,2.19,11.91,11.91,0,0,0,2.94,1.81,32.41,32.41,0,0,0,3.79,1.41c-.58-.77-1.2-1.53-1.89-2.51s-1.54-2.16-2.35-3.13A7.75,7.75,0,0,0,168.15,90.91Z"/><path class="cls-3" d="M150.29,149.75a10.46,10.46,0,0,0,3.67,1.89,8.32,8.32,0,0,0,3.52.13,11.42,11.42,0,0,0,2.54-.91,16,16,0,0,1-2-1.28c-.79-.61-1.81-1.51-2.75-2.38a25.41,25.41,0,0,0-2.72-2.21,9.43,9.43,0,0,0-2.78-1.15,11,11,0,0,0-2.8-.38,15.8,15.8,0,0,0-2.43.17c.77,1,1.55,1.92,2.48,3A21.64,21.64,0,0,0,150.29,149.75Z"/><path class="cls-3" d="M178.37,120.16a9.36,9.36,0,0,0-2.79.12,17.59,17.59,0,0,0-2.66.86c.32.17.6.31,1.12.54a12.6,12.6,0,0,0,2,.75,7.54,7.54,0,0,0,2.32.35,8.85,8.85,0,0,0,2.31-.34c.74-.17,1.49-.46,2.24-.71-.6-.28-1.2-.55-2-.87A11.65,11.65,0,0,0,178.37,120.16Z"/><path class="cls-3" d="M164.25,150.57a8.74,8.74,0,0,0,2.67-.2c.83-.21,1.58-.42,2.33-.67-.24-.09-.44-.18-.84-.37a9.11,9.11,0,0,1-1.79-1.19c-.87-.73-2-1.81-3.11-2.8a17.92,17.92,0,0,0-3.24-2.45,6,6,0,0,0-2.79-.74,12.63,12.63,0,0,0-2.48.38c-.86.12-1.85.24-2.84.35.32.18.64.36,1.16.71a11.32,11.32,0,0,1,2,1.53c.83.73,1.72,1.72,2.71,2.58a12.66,12.66,0,0,0,3,2A9.57,9.57,0,0,0,164.25,150.57Z"/><path class="cls-3" d="M170.16,137.22a8.09,8.09,0,0,0,1.58-.59,18.15,18.15,0,0,1-2.67-1.55,28.71,28.71,0,0,1-2.75-2.38,29,29,0,0,0-2.6-2.29,9.73,9.73,0,0,0-2.7-1.68,7.71,7.71,0,0,0-2.76-.62,11,11,0,0,0-2.18.22c.67.61,1.29,1.21,2.07,2s1.6,1.88,2.41,2.82a23.53,23.53,0,0,0,2.39,2.28,8.75,8.75,0,0,0,2.19,1.37,9.08,9.08,0,0,0,2.59.61A8.63,8.63,0,0,0,170.16,137.22Z"/><path class="cls-3" d="M186.42,133.56a6.34,6.34,0,0,0,2.19-1.13,8.37,8.37,0,0,0,1.24-1.17,14.15,14.15,0,0,1-2.25-1,21.29,21.29,0,0,1-2.82-1.81,36.84,36.84,0,0,0-3.17-2.28,8.86,8.86,0,0,0-3.1-1.13,10.25,10.25,0,0,0-3.15-.11,8.19,8.19,0,0,0-2.33.72c.4.34.79.73,1.41,1.37s1.44,1.66,2.46,2.65a26.47,26.47,0,0,0,3.32,2.62,10,10,0,0,0,3.17,1.29A7.46,7.46,0,0,0,186.42,133.56Z"/><path class="cls-3" d="M175.89,135.56a9.47,9.47,0,0,0,2.75-.16,10.41,10.41,0,0,0,2.12-.76,10,10,0,0,1-1.56-.73,14,14,0,0,1-2.69-2c-1.1-1-2.51-2.45-3.73-3.41a7.48,7.48,0,0,0-3.24-1.63,7,7,0,0,0-3-.1,9.68,9.68,0,0,0-2.58.87,13.6,13.6,0,0,1,1.63,1.09c.59.52,1.26,1.17,2,1.94a22.38,22.38,0,0,0,2.38,2.4,10.75,10.75,0,0,0,5.95,2.45Z"/><path class="cls-3" d="M171.25,124.45c.37-.14.71-.33,1.08-.43a6,6,0,0,1,1.17-.36c.45-.1,1-.16,1.57-.25a10.67,10.67,0,0,0-1.25-.51,9.9,9.9,0,0,0-2.31-.48,5.14,5.14,0,0,0-2.11.31,4.86,4.86,0,0,0-1.3.8c.32.06.65.07,1,.17a11.28,11.28,0,0,1,1.13.34C170.61,124.18,170.93,124.32,171.25,124.45Z"/><path class="cls-3" d="M165.36,139.08a16.77,16.77,0,0,1-2.43-1.42,24.85,24.85,0,0,1-2.67-2.42c-1-1-2.07-2.23-3.21-3.26a20.16,20.16,0,0,0-3.43-2.66,10,10,0,0,0-3.18-1.17,8,8,0,0,0-2.62-.12,7.71,7.71,0,0,0-1.7.37,16.92,16.92,0,0,1,2.85,2.1c1,.94,2.11,2.26,3.24,3.5a28.38,28.38,0,0,0,3.33,3.23,8.66,8.66,0,0,0,3.24,1.62,14.77,14.77,0,0,0,3.54.46A21.74,21.74,0,0,0,165.36,139.08Z"/><path class="cls-3" d="M109.09,149.71a10.1,10.1,0,0,0,2.64.41c.82,0,1.56,0,2.29,0-.73-.86-1.47-1.67-2.24-2.73s-1.66-2.29-2.42-3.38a12.87,12.87,0,0,0-2.3-2.61,4.8,4.8,0,0,0-2.22-.76c-.73-.11-1.42-.27-2.07-.42s-1.21-.39-1.77-.58c1,1.4,2,2.8,2.87,4.23a39.41,39.41,0,0,0,2.65,3.89A6,6,0,0,0,109.09,149.71Z"/><path class="cls-3" d="M88.76,143.15a16.07,16.07,0,0,0,3.59,2,34.83,34.83,0,0,0,3.67,1.2,34.91,34.91,0,0,1-2.24-2.85c-.81-1.18-1.76-2.7-2.64-4.13s-1.75-2.71-2.49-3.64a6.68,6.68,0,0,0-2.12-2,5.86,5.86,0,0,0-2-.46c-.65-.12-1.34-.27-2-.38.44,1,.93,2,1.49,3.22A29.43,29.43,0,0,0,86,140,12.07,12.07,0,0,0,88.76,143.15Z"/><path class="cls-3" d="M99.3,147.21a7.82,7.82,0,0,0,2.56,1.18,10.66,10.66,0,0,0,2.82.13c-.6-1.09-1.25-2.18-1.85-3.32s-1.29-2.31-2-3.32a13.21,13.21,0,0,0-2.42-2.57,12.72,12.72,0,0,0-2.91-1.73c-1-.42-2.1-.72-2.87-1a11.74,11.74,0,0,1-1.76-.78c.95,1.6,1.94,3.21,3,4.77a50.88,50.88,0,0,0,3,4.24A11.86,11.86,0,0,0,99.3,147.21Z"/><path class="cls-3" d="M77.47,136.65a11.07,11.07,0,0,0,3.29,3.22A27.71,27.71,0,0,0,84.88,142a29.73,29.73,0,0,1-1.6-2.57c-.57-1.09-1.2-2.47-1.79-3.77a21.51,21.51,0,0,0-1.93-3.49,7.32,7.32,0,0,0-2.28-2c-.79-.48-1.64-.81-2.28-1.13a10.14,10.14,0,0,1-1.47-1c.51,1.25,1,2.46,1.62,4A26.53,26.53,0,0,0,77.47,136.65Z"/><path class="cls-3" d="M146,151.8a13.75,13.75,0,0,0,2.84.55,9.41,9.41,0,0,0,1.68,0,12.57,12.57,0,0,1-1.58-1.14,21.21,21.21,0,0,1-2-2.22,31.08,31.08,0,0,0-2.23-2.93,8.43,8.43,0,0,0-2.82-2.09,8.18,8.18,0,0,0-2.92-.55c-.9,0-1.8,0-2.7-.09,1,1.24,2,2.43,3.11,3.59a28.14,28.14,0,0,0,3.38,3.1A11.3,11.3,0,0,0,146,151.8Z"/><path class="cls-3" d="M117.73,150.61a11.9,11.9,0,0,0,2.76.54c.86,0,1.55.07,2.21.06a22.78,22.78,0,0,1-1.35-1.87c-.61-.84-1.42-2.07-2.27-3.17a14.17,14.17,0,0,0-2.53-2.74,5.78,5.78,0,0,0-2.32-1.21,15.66,15.66,0,0,0-2.31-.44c-.77-.12-1.59-.28-2.4-.4.77,1.06,1.54,2.16,2.46,3.47a42.1,42.1,0,0,0,3,3.91A6.58,6.58,0,0,0,117.73,150.61Z"/><path class="cls-3" d="M138,151.72a16.11,16.11,0,0,0,3.25-.34,18.67,18.67,0,0,1-2.32-2.16c-.93-1-2.09-2.39-3.11-3.5a10,10,0,0,0-2.82-2.59,8.91,8.91,0,0,0-3.37-.73,18,18,0,0,0-2.83.12c.65.93,1.27,1.82,2.12,2.92a34.25,34.25,0,0,0,2.75,3.36,8.59,8.59,0,0,0,2.88,2.26A7.67,7.67,0,0,0,138,151.72Z"/><path class="cls-3" d="M124.76,150.77a6,6,0,0,0,3.15,1,23.8,23.8,0,0,0,4-.26,14,14,0,0,1-1.85-1.6c-.63-.73-1.36-1.62-2-2.51a31.16,31.16,0,0,0-1.94-2.47,11.29,11.29,0,0,0-2.32-1.95,7.47,7.47,0,0,0-2.34-.88,16.74,16.74,0,0,0-2-.18c-.61,0-1.26,0-1.88,0,.85,1,1.75,1.93,2.57,2.95s1.53,2.12,2.27,3.13A12.39,12.39,0,0,0,124.76,150.77Z"/><path class="cls-3" d="M68.44,128.33a19.61,19.61,0,0,0,2.15,3.13,20.91,20.91,0,0,0,2.1,2.22l1.85,1.77a23.89,23.89,0,0,1-1-2.38c-.4-1.09-.9-2.58-1.29-3.83A20.93,20.93,0,0,0,71,126.07,10.76,10.76,0,0,0,69.54,124c-.5-.6-1.05-1.15-1.47-1.75A15.62,15.62,0,0,1,67,120.48a42.74,42.74,0,0,0,.34,4.27A12.8,12.8,0,0,0,68.44,128.33Z"/><path class="cls-3" d="M105.87,86.24a7.54,7.54,0,0,0-2.74.85,8.55,8.55,0,0,0-1.78,1.31,6.82,6.82,0,0,1,1.54.36,17.87,17.87,0,0,1,2.4,1.1c.92.53,1.87,1.19,3.07,1.86a23.11,23.11,0,0,0,4.17,2,13.21,13.21,0,0,0,4.22.77,11.18,11.18,0,0,0,3.25-.29,4.81,4.81,0,0,0,1.59-.75A15.64,15.64,0,0,1,119,92.34a26.32,26.32,0,0,1-3.22-2.07c-1.07-.79-2-1.53-3-2.19a13.91,13.91,0,0,0-3.53-1.56A8.52,8.52,0,0,0,105.87,86.24Z"/><path class="cls-3" d="M111.86,84.23a6.62,6.62,0,0,0-1.91.69,12.81,12.81,0,0,1,1.74.49,8.77,8.77,0,0,1,2,1.15c.75.53,1.74,1.35,2.85,2.14a27.34,27.34,0,0,0,3.53,2.3,11.47,11.47,0,0,0,3.63,1.35,10.24,10.24,0,0,0,3.23,0c.91-.08,1.65-.21,2.39-.34a14.1,14.1,0,0,1-1.92-.83,10.68,10.68,0,0,1-2.15-1.37c-.71-.52-1.38-1.17-2.32-2a20.25,20.25,0,0,0-3.49-2.53,11,11,0,0,0-4-1.25A13,13,0,0,0,111.86,84.23Z"/><path class="cls-3" d="M76.81,106.09c-.39.51-.79,1.06-1.3,1.61a13.07,13.07,0,0,1-1.92,1.67c-.77.54-1.61,1-2.37,1.53a9.44,9.44,0,0,0-1.92,1.71,6.61,6.61,0,0,0-1.17,2.16,6.85,6.85,0,0,0-.38,2.88,5.58,5.58,0,0,0,1.06,2.76,14.22,14.22,0,0,0,1.86,2.21,9.19,9.19,0,0,1,.47-2.23,16.19,16.19,0,0,1,1.67-3.24c.75-1.11,1.66-2.09,2.36-3.16a10.13,10.13,0,0,0,1.59-3.24A8.33,8.33,0,0,0,77,108C77,107.24,76.87,106.66,76.81,106.09Z"/><path class="cls-3" d="M96.93,90a9.37,9.37,0,0,0-3.37,1.11,11.08,11.08,0,0,0-2.43,2.14,13.58,13.58,0,0,1,2.63.69c1.08.42,2.53,1.1,4.14,1.71a30.43,30.43,0,0,0,4.89,1.41,15.75,15.75,0,0,0,4.32.33,10,10,0,0,0,3.32-.83A4.74,4.74,0,0,0,112,95.24a15.79,15.79,0,0,1-1.77-.65A21.41,21.41,0,0,1,108,93.34c-.92-.57-2.11-1.33-3.35-2a14.54,14.54,0,0,0-3.83-1.24A12.38,12.38,0,0,0,96.93,90Z"/><path class="cls-3" d="M85.47,95.23a8.94,8.94,0,0,0-3.41,1.85,9.35,9.35,0,0,0-1.87,2.49A10.41,10.41,0,0,1,82.87,99a14.42,14.42,0,0,1,3.83.42c1.38.32,2.67.83,3.92,1.25a12.43,12.43,0,0,0,3.69.75,16.18,16.18,0,0,0,4-.47,16.61,16.61,0,0,0,3-1,19.52,19.52,0,0,0,1.85-.94c-.78-.12-1.55-.24-2.4-.44a32.14,32.14,0,0,1-3.19-1.09c-1.28-.51-2.89-1.2-4.26-1.68A16.17,16.17,0,0,0,89.57,95,11.89,11.89,0,0,0,85.47,95.23Z"/><path class="cls-3" d="M77.47,113c-.3.44-.61.87-1.09,1.51s-1.13,1.38-1.7,2.21a13.1,13.1,0,0,0-1.6,2.54,9.2,9.2,0,0,0-.62,2.88,4.73,4.73,0,0,0,.42,2.48,6.05,6.05,0,0,0,1.58,2.07,6.49,6.49,0,0,0,2.07,1.17c.64.27,1.25.42,1.86.62a12,12,0,0,1-.51-2.4,22.07,22.07,0,0,1,.12-3.27c.13-1.18.32-2.44.46-3.75a35.06,35.06,0,0,0,.23-4,29.81,29.81,0,0,0-.33-3.53C78.09,112,77.78,112.47,77.47,113Z"/><path class="cls-3" d="M78.94,104.26a8.9,8.9,0,0,0-.21,2,6.84,6.84,0,0,1,1.38-.64,9.78,9.78,0,0,1,2.14-.26,26.65,26.65,0,0,1,2.72.41,12.55,12.55,0,0,0,3.48.08,8.26,8.26,0,0,0,3.21-1.28,10,10,0,0,0,2-1.63,14.76,14.76,0,0,1-1.91-.33c-.82-.16-1.91-.46-3.12-.76a37.2,37.2,0,0,0-3.64-.91,7.11,7.11,0,0,0-2.87.07,4,4,0,0,0-2.07,1.17A5.17,5.17,0,0,0,78.94,104.26Z"/><path class="cls-3" d="M123.16,81.68a6.61,6.61,0,0,0-2,0,5.29,5.29,0,0,0-1.33.47,10.38,10.38,0,0,0-1.13.65,21.35,21.35,0,0,1,2.44,1.22c.83.53,1.66,1.14,2.45,1.75l2.29,1.86a18.7,18.7,0,0,0,2.34,1.71A11.2,11.2,0,0,0,131,90.65a10.71,10.71,0,0,0,3.26.52c1.26,0,2.75-.12,4.23-.25a9.69,9.69,0,0,1-1.57-.69,19.94,19.94,0,0,1-2.58-1.64c-.95-.74-2-1.69-3.44-2.74a40.65,40.65,0,0,0-4.69-3A8.62,8.62,0,0,0,123.16,81.68Z"/><path class="cls-3" d="M114.37,98.92a3.15,3.15,0,0,0,1.37-.31,4.18,4.18,0,0,0,.89-.65,11.29,11.29,0,0,1-1.1-1c-.4-.3-.75-.69-1.14-1a4.93,4.93,0,0,1-.82.86,7.72,7.72,0,0,1-1.27.8,2.14,2.14,0,0,1-1,.28,12.41,12.41,0,0,0,1.52.73A4.3,4.3,0,0,0,114.37,98.92Z"/><path class="cls-3" d="M109.45,100a5.24,5.24,0,0,0,1.49-.51c-.55-.35-1.11-.7-1.63-1a7.72,7.72,0,0,1-.87.32,9.22,9.22,0,0,1-1.2.28c-.41.06-.83.08-1.24.1a7.45,7.45,0,0,0,1.65.73A5.46,5.46,0,0,0,109.45,100Z"/><path class="cls-3" d="M104.15,101.26a6,6,0,0,0,.92-.53c-.36-.26-.75-.52-1.11-.79-.29.16-.58.3-1,.57s-1,.53-1.55.83a9,9,0,0,0,1.47.15A4,4,0,0,0,104.15,101.26Z"/><path class="cls-3" d="M121.33,95.48a7.35,7.35,0,0,1-.84.41,5.27,5.27,0,0,1-1.33.34,9.84,9.84,0,0,1-1.56.14,8.86,8.86,0,0,0,1.35,1,4.48,4.48,0,0,0,1.69.61,3.88,3.88,0,0,0,1.48-.1,3.27,3.27,0,0,0,1-.56,6.93,6.93,0,0,1-1-.86A9,9,0,0,1,121.33,95.48Z"/><path class="cls-3" d="M130.26,93.77a12.5,12.5,0,0,0-2.49-.2c.58.64,1.16,1.32,1.79,2a19.85,19.85,0,0,0,2.12,1.82,6.78,6.78,0,0,0,2,1.08,3.11,3.11,0,0,0,1.59.19,2.41,2.41,0,0,0,1-.44c-.7-.69-1.41-1.42-2-2a15.92,15.92,0,0,0-1.85-1.6A5.37,5.37,0,0,0,130.26,93.77Z"/><path class="cls-3" d="M125.9,94.09a8.12,8.12,0,0,0-.86,0,5.67,5.67,0,0,1-.9-.08,2.15,2.15,0,0,1-.57-.07c-.17.16-.34.27-.51.43a2,2,0,0,0-.47.39A10.66,10.66,0,0,0,126,97.13a6.23,6.23,0,0,0,1.86.45,4.26,4.26,0,0,0,1.16-.11c-.63-.6-1.26-1.21-1.76-1.76S126.28,94.6,125.9,94.09Z"/><path class="cls-3" d="M137.71,97.26a23.46,23.46,0,0,0,2.63,2.38,5.85,5.85,0,0,0,2.48,1.3,5.66,5.66,0,0,0,2.21-.06c-.38-.47-.81-.94-1.35-1.66s-1.27-1.65-2.09-2.63A12.84,12.84,0,0,0,138.84,94a7.71,7.71,0,0,0-3-1c-1-.12-1.88-.17-2.82-.21.79.77,1.61,1.55,2.35,2.28Z"/><path class="cls-3" d="M65.21,119.5a9.79,9.79,0,0,0-.95-2.5,11.59,11.59,0,0,1-.91-2.38,16.93,16.93,0,0,1-.29-2.63,28.4,28.4,0,0,0-.4,3.3,16,16,0,0,0,.3,4.06,13.38,13.38,0,0,0,1.34,3.79,16.93,16.93,0,0,0,1.92,2.67c-.2-1-.36-1.94-.51-3A32.43,32.43,0,0,0,65.21,119.5Z"/><path class="cls-3" d="M177.7,93.32a4.61,4.61,0,0,0-1.88-1.07A10.17,10.17,0,0,0,174,92a8.61,8.61,0,0,1-1.47-.1,4.69,4.69,0,0,1-.81-.12,13.8,13.8,0,0,1,1.83,2c.66.84,1.38,2.06,2.11,3A10.57,10.57,0,0,0,178,99.15a12.72,12.72,0,0,0,2.64,1.43,14.92,14.92,0,0,0,2.25.76c-.53-.8-1.07-1.6-1.68-2.58s-1.29-2.1-1.9-3.07A12.16,12.16,0,0,0,177.7,93.32Z"/><path class="cls-3" d="M202.84,112.59a4.28,4.28,0,0,1-.63,1.24,7.72,7.72,0,0,1-1.16,1.21c.29-.11.55-.26.88-.41a6.39,6.39,0,0,1,1-.32,4,4,0,0,1,1.19,0,3.74,3.74,0,0,1,1,.25,5.86,5.86,0,0,0,.22-1.22,2.72,2.72,0,0,0-.14-1.27,2.15,2.15,0,0,0-.82-1,4.2,4.2,0,0,0-1.2-.55,3.6,3.6,0,0,1-.13.94A5.7,5.7,0,0,1,202.84,112.59Z"/><path class="cls-3" d="M70.41,109.84A29.27,29.27,0,0,0,73,108a15.41,15.41,0,0,0,2.42-2.67,17.13,17.13,0,0,0,1.61-3c-.66.25-1.29.51-2.08.76s-1.66.53-2.66.94a17.44,17.44,0,0,0-3.15,1.65,10.73,10.73,0,0,0-2.78,2.45,6.5,6.5,0,0,0-1.2,2.85,8.23,8.23,0,0,0,0,2.5,16.33,16.33,0,0,0,.49,1.87,7.68,7.68,0,0,1,.73-1.65,10.82,10.82,0,0,1,1.7-2.17A16,16,0,0,1,70.41,109.84Z"/><path class="cls-3" d="M186.52,106.1a6.84,6.84,0,0,0-1.66-1.27,6.09,6.09,0,0,0-1.77-.57,15,15,0,0,1,.9,1.68,10.2,10.2,0,0,1,.64,2.11,12.44,12.44,0,0,1,.22,2.14l1.42-1.28c.43-.47.86-1,1.3-1.5A7.93,7.93,0,0,0,186.52,106.1Z"/><path class="cls-3" d="M188.76,103.74c.14.58.21.87.31,1.16a13.79,13.79,0,0,0,.28-1.58,14.09,14.09,0,0,0,.09-1.84,3.75,3.75,0,0,0-.35-1.36,8.78,8.78,0,0,0-.64-1l-.78-1c.24,1.11.43,2.23.63,3.18S188.67,103.17,188.76,103.74Z"/><path class="cls-3" d="M186.82,98.91c-.1-.54-.13-.83-.2-1.12a15.5,15.5,0,0,1-1.92-.91,21,21,0,0,1-2.63-1.68,22.09,22.09,0,0,1-2.28-1.86,21.39,21.39,0,0,0,1.55,2.77,27.52,27.52,0,0,0,2.45,3.51c.9,1.07,1.72,1.88,2.34,2.49s1,.82,1.43,1.13c-.14-.71-.27-1.41-.39-2.19S186.91,99.48,186.82,98.91Z"/><path class="cls-3" d="M121.85,139.5a8.32,8.32,0,0,0,3.14.35,7,7,0,0,0,2-.56c-.78-.81-1.56-1.58-2.45-2.69s-1.85-2.5-2.81-3.82a31.49,31.49,0,0,0-2.87-3.57,12.65,12.65,0,0,0-2.88-2.34,4.07,4.07,0,0,0-2.35-.56,4.17,4.17,0,0,0-1.7.57,4.77,4.77,0,0,0-1.07,1c1,1.43,1.91,2.91,2.75,4.1s1.5,2.07,2.28,3.05a25.63,25.63,0,0,0,2.73,2.79A10,10,0,0,0,121.85,139.5Z"/><path class="cls-3" d="M90.57,133.17a7.69,7.69,0,0,0,2.23,1.49,9.92,9.92,0,0,0,2.06.47A7.83,7.83,0,0,0,95,134a8.45,8.45,0,0,0-.28-2.06,23.26,23.26,0,0,0-1.1-3.53,28.21,28.21,0,0,0-1.79-3.81,20.11,20.11,0,0,0-2.27-3.09,15,15,0,0,0-2.24-2.11,10.87,10.87,0,0,0-1.83-1,31.85,31.85,0,0,0,.32,3.53,24.8,24.8,0,0,0,1.07,4.35,26.56,26.56,0,0,0,1.77,4.14A12.16,12.16,0,0,0,90.57,133.17Z"/><path class="cls-3" d="M79.81,127.75a5.5,5.5,0,0,0,1.54,2.12A5.06,5.06,0,0,0,83.47,131a8.34,8.34,0,0,0,2.16.22,11.5,11.5,0,0,0,1.52-.17,10.37,10.37,0,0,1-.68-1.26A13.66,13.66,0,0,1,85.7,128a24,24,0,0,1-.7-2.53c-.24-1-.55-2.28-.78-3.43a25.82,25.82,0,0,0-.87-3.28,7.26,7.26,0,0,0-1.29-2.31,6.7,6.7,0,0,0-1.49-1.3c-.16.77-.32,1.5-.49,2.43s-.38,2.11-.56,3.33a16.83,16.83,0,0,0-.3,3.72A8.91,8.91,0,0,0,79.81,127.75Z"/><path class="cls-3" d="M149.54,126.18c.9.09,1.79.25,2.61.41s1.53.4,2.22.64a9.67,9.67,0,0,1,1.17-.56,9.17,9.17,0,0,1,1.2-.31c-.89-.13-1.75-.25-2.89-.38s-2.56-.29-3.79-.39a20.55,20.55,0,0,0-3.19-.14,6,6,0,0,0-2.06.39,3.63,3.63,0,0,0-1.19.85c.38-.11.75-.22,1.29-.35a11.8,11.8,0,0,1,2.1-.23A16.83,16.83,0,0,1,149.54,126.18Z"/><path class="cls-3" d="M108.89,137.34a7.32,7.32,0,0,0,3,1.61,9.6,9.6,0,0,0,3.07.19,13.89,13.89,0,0,0,2.19-.47c-.74-.78-1.49-1.51-2.38-2.61s-1.93-2.51-3-4a50.6,50.6,0,0,0-3.09-4,6.93,6.93,0,0,0-2.74-1.93,5.07,5.07,0,0,0-2.52-.4,5.32,5.32,0,0,0-1.91.64,28.19,28.19,0,0,1,2.07,3c.84,1.35,1.89,3.28,2.77,4.75A13,13,0,0,0,108.89,137.34Z"/><path class="cls-3" d="M86.28,113.73c-.21.07-.42.19-.79.29a7.73,7.73,0,0,1-1.28.27c-.45,0-.86,0-1.27,0a15.84,15.84,0,0,0,1.26,1.12,15.57,15.57,0,0,0,1.42,1.09c.39.31.63.44.87.62a4.84,4.84,0,0,0,.14-1.3,4.25,4.25,0,0,0-.1-1.24A3.8,3.8,0,0,0,86.28,113.73Z"/><path class="cls-3" d="M131.78,140.05a12.89,12.89,0,0,0,2.95.79A16.35,16.35,0,0,0,137,141a12.62,12.62,0,0,1-2-2,25,25,0,0,1-2-2.88,35.76,35.76,0,0,0-2.3-3.3,18,18,0,0,0-2.7-2.74,5.73,5.73,0,0,0-2.6-1.39,4.53,4.53,0,0,0-2.42.13,3.93,3.93,0,0,0-1.42.75c.77,1,1.58,2,2.39,3.06s1.62,2.24,2.47,3.27a18,18,0,0,0,2.58,2.53A10.75,10.75,0,0,0,131.78,140.05Z"/><path class="cls-3" d="M141.55,141.16a10.75,10.75,0,0,0,3.51.33,15.36,15.36,0,0,0,2.64-.49c-.56-.27-1.12-.51-1.72-.82a13.5,13.5,0,0,1-2.1-1.41,28.6,28.6,0,0,1-2.66-2.7c-1-1.15-2.18-2.52-3.31-3.72a13.08,13.08,0,0,0-3.15-2.72,4.1,4.1,0,0,0-2.59-.58,5.07,5.07,0,0,0-1.71.62c.31.3.63.56,1,1a15.42,15.42,0,0,1,1.31,1.78c.65.93,1.57,2.4,2.45,3.63a16.56,16.56,0,0,0,2.84,3.25A10.17,10.17,0,0,0,141.55,141.16Z"/><path class="cls-3" d="M98,134.7a8.7,8.7,0,0,0,2.63,2.3,12.14,12.14,0,0,0,3.15,1.08,17.08,17.08,0,0,0,2.77.22,11,11,0,0,1-.65-.94,14.54,14.54,0,0,1-.94-1.84c-.37-.79-.74-1.71-1.26-2.76a29,29,0,0,0-1.86-3.2,23.05,23.05,0,0,0-2.4-3.06,11.2,11.2,0,0,0-2.4-2,8.91,8.91,0,0,0-2.49-1,15,15,0,0,0-2.24-.31c.27.38.54.8.92,1.44s.78,1.59,1.26,2.76,1,2.62,1.58,3.92A13.54,13.54,0,0,0,98,134.7Z"/><path class="cls-3" d="M170.29,117a7.9,7.9,0,0,0,.89-1.67,7.44,7.44,0,0,1-3,1.12,16.26,16.26,0,0,1-2.84.32c-1,0-2.05,0-3.11.06a10.54,10.54,0,0,0-3.14.55,5.21,5.21,0,0,0-2.11,1.33,4.57,4.57,0,0,0-.93,1.39c.7,0,1.39,0,2.37.11s2.16.23,3.35.28a12.79,12.79,0,0,0,3.41-.21A8.84,8.84,0,0,0,168.1,119,10.39,10.39,0,0,0,170.29,117Z"/><path class="cls-3" d="M158.62,124.68a14.3,14.3,0,0,0,4.11-1.07,11.43,11.43,0,0,0,2.4-1.49c-.9,0-1.81.12-3,.07s-2.66-.12-4.25-.24a31.2,31.2,0,0,0-4.54-.13,4.92,4.92,0,0,0-2.53.78,4.09,4.09,0,0,0-1.06,1.51c1.39.14,2.78.25,4.24.4A24.61,24.61,0,0,0,158.62,124.68Z"/><path class="cls-3" d="M139.73,129.45a3.5,3.5,0,0,0-1,.48c.63.57,1.26,1.13,2,1.86s1.44,1.62,2.3,2.6a24,24,0,0,0,2.94,2.84,11.25,11.25,0,0,0,3.23,1.83,12.75,12.75,0,0,0,3.2.72,11,11,0,0,0,2.25-.1,11.91,11.91,0,0,1-1.18-1,19.16,19.16,0,0,1-2.07-2.15c-.81-.94-1.74-2.21-2.75-3.32a14,14,0,0,0-3.19-2.77,8.77,8.77,0,0,0-3.3-1.17A6.32,6.32,0,0,0,139.73,129.45Z"/><path class="cls-3" d="M172.05,112.58a6.05,6.05,0,0,1-.79-.73c-.27-.3-.46-.55-.69-.81a9.78,9.78,0,0,1-1.3.51,9.28,9.28,0,0,1-1.89.16c-.78,0-1.84,0-2.75,0a5.85,5.85,0,0,0-2.32.59,3,3,0,0,0-1.24,1.29,6.18,6.18,0,0,0-.28,1.5c1.19.06,2.37.16,3.68.14a18.84,18.84,0,0,0,3.87-.4,7.22,7.22,0,0,0,2.55-1.11A4.89,4.89,0,0,0,172.05,112.58Z"/><path class="cls-3" d="M162.32,96.45A6.57,6.57,0,0,0,160.09,95a6.41,6.41,0,0,0-2.15-.38c.6,1.09,1.21,2.22,1.77,3.4s1,2.54,1.5,3.71a24.3,24.3,0,0,0,1.53,3.31,9.53,9.53,0,0,0,2,2.54,7.94,7.94,0,0,0,2.55,1.47,13.67,13.67,0,0,0,2.47.65,21.55,21.55,0,0,1-1.68-2.66c-.61-1.09-1.23-2.55-1.83-3.93a39.61,39.61,0,0,0-1.74-3.89A10.77,10.77,0,0,0,162.32,96.45Z"/><path class="cls-3" d="M83.62,107.67a6.62,6.62,0,0,0-3.88.48c.15.37.3.7.44,1.16s.28,1,.38,1.45.09.82.11,1.15a11.86,11.86,0,0,0,2.08.3,6.52,6.52,0,0,0,2-.19,6.18,6.18,0,0,0,2.25-.79,4.78,4.78,0,0,0,1.6-1.69,6.12,6.12,0,0,0,.53-1.81,12.65,12.65,0,0,1-2.75.28C85.49,108,84.47,107.75,83.62,107.67Z"/><path class="cls-3" d="M174.78,111.07a2.83,2.83,0,0,0,1.26.18c-.22-.42-.45-.88-.78-1.67s-.85-1.88-1.4-3.22-1.18-2.92-1.74-4.09a13.92,13.92,0,0,0-1.43-2.65A7.68,7.68,0,0,0,169,98a6,6,0,0,0-1.76-.82,12.83,12.83,0,0,0-1.62-.36,16.84,16.84,0,0,1,1.47,2.77c.51,1.21,1.09,2.84,1.76,4.3a26.43,26.43,0,0,0,2,3.74,10,10,0,0,0,1.9,2.3A6.49,6.49,0,0,0,174.78,111.07Z"/><path class="cls-3" d="M50.47,123.85c.94-.94,2-1.79,3-2.73a14.25,14.25,0,0,0,2.3-2.76,7.12,7.12,0,0,0,.89-2.37,4.66,4.66,0,0,0,0-1.39L53.78,116c-1.05.52-2.22,1.12-3.28,1.77a16.25,16.25,0,0,0-2.89,2.32,9.64,9.64,0,0,0-2.1,2.93,6.34,6.34,0,0,0-.64,3.12,4.7,4.7,0,0,0,.68,2,5.9,5.9,0,0,0,.62.85,22.3,22.3,0,0,1,1.71-2.42A28.06,28.06,0,0,1,50.47,123.85Z"/><path class="cls-3" d="M68.57,142.29c-.14-1.48-.19-3-.45-4.44a17.31,17.31,0,0,0-1.2-4.11,16.19,16.19,0,0,0-1.82-3.11c-.66-.93-1.39-1.79-2.13-2.68.15,1.11.31,2.22.37,3.5s.07,2.82,0,4.09-.06,2.21,0,3.44a12.89,12.89,0,0,0,.9,4.3,11.6,11.6,0,0,0,2.52,3.84,12.11,12.11,0,0,0,3.06,2.11,17.6,17.6,0,0,1-.77-2.78A40.19,40.19,0,0,1,68.57,142.29Z"/><path class="cls-3" d="M64.33,150.44c-.11.78-.23,1.51-.44,2.6s-.53,2.56-.81,4.14a17.9,17.9,0,0,0-.31,4.9,11.08,11.08,0,0,0,1.34,4.48,9.56,9.56,0,0,0,2.57,2.95,9.73,9.73,0,0,0,2.52,1.26c-.3-.67-.55-1.38-.88-2.29a33.41,33.41,0,0,1-.88-3.77c-.3-1.61-.53-3.67-.81-5.6s-.6-3.8-1-5.21A22.93,22.93,0,0,0,64.33,150.44Z"/><path class="cls-3" d="M62.29,145.07a31.33,31.33,0,0,0-2-3.7,21.68,21.68,0,0,1-.55,3c-.29,1.14-.77,2.47-1.24,3.75a28.62,28.62,0,0,0-1.12,4,13.52,13.52,0,0,0-.18,4.66,7.87,7.87,0,0,0,1.5,3.75,5.5,5.5,0,0,0,2.18,1.62c0-.24,0-.45,0-.94a12.83,12.83,0,0,1,.14-2.12c.17-1,.39-2.23.74-3.57s.78-2.66,1-3.84a10,10,0,0,0,.32-3.26A10.55,10.55,0,0,0,62.29,145.07Z"/><path class="cls-3" d="M69.77,168.18a20.77,20.77,0,0,0,1.76,4.38,6,6,0,0,0,1.55,1.91,2.18,2.18,0,0,0,1,.5c.29.09.49.1.73.16-.07-1.07-.1-2.1-.29-3.41s-.48-2.93-.82-4.34a25.94,25.94,0,0,0-1.38-3.83,12.84,12.84,0,0,0-1.86-3,9.42,9.42,0,0,0-2.13-1.86c.06,1.35.13,2.66.34,4.27A33.7,33.7,0,0,0,69.77,168.18Z"/><path class="cls-3" d="M96.83,159.66a23.53,23.53,0,0,1-1.72-2.54c-.69-1.13-1.56-2.61-2.35-4A31.66,31.66,0,0,0,90,149a23.24,23.24,0,0,0-3.64-3.52,26,26,0,0,0-3.67-2.18,31.35,31.35,0,0,1,1.91,2.91c.64,1.18,1.31,2.69,2.17,4.36a47.58,47.58,0,0,0,3.11,5.27,17.11,17.11,0,0,0,3.47,3.76,9,9,0,0,0,3.08,1.58,4.56,4.56,0,0,0,1.84.08C97.84,160.77,97.33,160.25,96.83,159.66Z"/><path class="cls-3" d="M88.84,158.1a18.63,18.63,0,0,1-1.62-2.25c-.64-1.09-1.44-2.52-2.19-4s-1.44-3.22-2.28-4.65a19.69,19.69,0,0,0-2.57-3.72,11.68,11.68,0,0,0-2.76-2.22,9.71,9.71,0,0,0-2.29-1,30.88,30.88,0,0,1,1.37,3.18c.48,1.25.94,2.78,1.59,4.53a29.74,29.74,0,0,0,2.61,5.49,17.47,17.47,0,0,0,3.61,4.18A7.23,7.23,0,0,0,87.4,159a10.17,10.17,0,0,0,2.33,0A8.64,8.64,0,0,1,88.84,158.1Z"/><path class="cls-3" d="M104.67,159.29a33,33,0,0,1-2.64-4c-.84-1.35-1.48-2.61-2.21-3.54a6.6,6.6,0,0,0-2.28-2,11.89,11.89,0,0,0-2.5-.9c-.73-.2-1.17-.3-1.62-.4s-.85-.29-1.21-.43c.54.81,1.12,1.61,1.83,2.87s1.63,3,2.46,4.46A25.41,25.41,0,0,0,99,159a15.26,15.26,0,0,0,2.75,2.55,5.76,5.76,0,0,0,2.74.9,10.63,10.63,0,0,0,2.73-.53A18.16,18.16,0,0,1,104.67,159.29Z"/><path class="cls-3" d="M75.38,145.39a27.36,27.36,0,0,0-1.79-4.62,13.66,13.66,0,0,0-2.15-3,16.58,16.58,0,0,0-2.12-1.9,23,23,0,0,1,.55,3c.16,1.12.18,2.43.32,3.78a19.22,19.22,0,0,0,.67,4,13.81,13.81,0,0,0,1.67,3.81A9.86,9.86,0,0,0,75,153a6.79,6.79,0,0,0,2.23,1.17,12,12,0,0,0,1.91.33,36.2,36.2,0,0,1-1.94-3.94C76.52,149,76,147.14,75.38,145.39Z"/><path class="cls-3" d="M52.53,108.72a20.46,20.46,0,0,1,2.79-1.06,19.62,19.62,0,0,1,3.1-.72,22.23,22.23,0,0,1,2.47-.21c.06-.32.07-.65.14-1.18s.26-1.17.41-1.74a10.56,10.56,0,0,1,.47-1.41,21.6,21.6,0,0,0-2.88.27,12.23,12.23,0,0,0-7,3.69,13.63,13.63,0,0,0-2,2.44,6.33,6.33,0,0,0-.65,1.65c.38-.22.76-.5,1.27-.76A18.61,18.61,0,0,1,52.53,108.72Z"/><path class="cls-3" d="M58.9,101.15a19.54,19.54,0,0,1,2.06-.23,6.08,6.08,0,0,1,1.19,0c-.1-.62-.15-1.24-.2-1.86s0-1.22.08-1.87c-.49.14-1,.28-1.58.49a12.56,12.56,0,0,0-2.13.93A14,14,0,0,0,56.46,100a4.58,4.58,0,0,0-1,1.23,6.54,6.54,0,0,0-.63,1.11c.5-.18,1-.4,1.67-.61A23.27,23.27,0,0,1,58.9,101.15Z"/><path class="cls-3" d="M154,156.27a8.07,8.07,0,0,0,2.44.48,6.93,6.93,0,0,0,2.35-.3,8.69,8.69,0,0,0,1.88-.85c-.48-.18-1-.33-1.49-.56s-1.08-.58-1.44-.8-.55-.36-.75-.49c-.62.1-1.28.15-2.14.23s-1.89.07-2.79,0a25.12,25.12,0,0,1-2.57-.16c.76.49,1.51,1,2.23,1.37A11,11,0,0,0,154,156.27Z"/><path class="cls-3" d="M46.4,119.81A12.32,12.32,0,0,1,48,118.25a20.81,20.81,0,0,1,2.76-2c1.1-.76,2.45-1.52,3.59-2.29a27.25,27.25,0,0,0,2.8-2.12,8.21,8.21,0,0,0,1.59-1.6,16.42,16.42,0,0,0,1.09-1.38,29.21,29.21,0,0,0-3.75.52,20.77,20.77,0,0,0-4,1.33,15.38,15.38,0,0,0-2.79,1.71,14.74,14.74,0,0,0-2,1.87,6.87,6.87,0,0,0-1.16,2.16,4.58,4.58,0,0,0-.18,2.08A3.42,3.42,0,0,0,46.4,119.81Z"/><path class="cls-3" d="M59.33,125.32a19.86,19.86,0,0,0-.8,2.91c-.21,1.14-.35,2.28-.53,3.46a16.22,16.22,0,0,1,1.34,2,13.39,13.39,0,0,1,1.23,2.55c.37.92.65,1.87.94,2.83,0-2.21,0-4.38,0-6.35a39.67,39.67,0,0,0-.34-5.13,40.32,40.32,0,0,0-1-4.05A7.22,7.22,0,0,0,59.33,125.32Z"/><path class="cls-3" d="M58.27,142.67a19.88,19.88,0,0,0,.06-3.84,14.16,14.16,0,0,0-.65-2.78c-.25-.75-.52-1.29-.74-1.83a24.89,24.89,0,0,1-1,2.4c-.41.93-1,2-1.59,3.33a20.45,20.45,0,0,0-1.51,4.31,15.08,15.08,0,0,0-.29,4.53,8.14,8.14,0,0,0,1,3.19,5.26,5.26,0,0,0,1.65,1.59,9.13,9.13,0,0,1,.37-1.78,20,20,0,0,1,.76-2.26c.37-.92.83-2.05,1.21-3.17A18.2,18.2,0,0,0,58.27,142.67Z"/><path class="cls-3" d="M50.54,133.63c.62-1,1.32-2,1.91-3.06A22.05,22.05,0,0,0,54,127.2a17,17,0,0,0,.85-3.35,13.45,13.45,0,0,0,0-2.62c-1.08,1.09-2.15,2.19-3.14,3.29s-1.87,2.2-2.66,3.31a16.54,16.54,0,0,0-1.88,3.48,7.65,7.65,0,0,0-.6,3.12,4.37,4.37,0,0,0,.56,2.11,2.74,2.74,0,0,0,.94,1c.18-.28.31-.56.71-1.2S49.88,134.62,50.54,133.63Z"/><path class="cls-3" d="M54.42,136.43a10.51,10.51,0,0,0,.77-3.32,5.25,5.25,0,0,0-.35-2.1,1.79,1.79,0,0,0-.53-.8c-.37.72-.73,1.39-1.22,2.27s-1.19,1.87-1.89,2.86a29.19,29.19,0,0,0-1.86,3,9.57,9.57,0,0,0-1.05,3.19,6.72,6.72,0,0,0,.32,2.72,3.33,3.33,0,0,0,1.12,1.44,3.29,3.29,0,0,0,1.13.46,17,17,0,0,1,.53-2.51,29.64,29.64,0,0,1,1.35-3.54C53.33,138.84,54,137.64,54.42,136.43Z"/><path class="cls-3" d="M200.12,134.89a7.85,7.85,0,0,1-.71.34,14.5,14.5,0,0,1-.29,1.83,5,5,0,0,1-.83,1.88,7.1,7.1,0,0,1-1.87,1.59,7.52,7.52,0,0,1-2.12.76,2.92,2.92,0,0,1-1,.12,2.9,2.9,0,0,1-.49.67,6.72,6.72,0,0,1-.85.74c.86,0,1.73-.09,2.59-.21A8.52,8.52,0,0,0,197,142a7.35,7.35,0,0,0,2-1.17,3.54,3.54,0,0,0,1-1.39,6.34,6.34,0,0,0,.45-1.65,6.45,6.45,0,0,0,0-1.6A5.89,5.89,0,0,0,200.12,134.89Z"/><path class="cls-3" d="M193.7,144.33c-.9.08-2,.16-2.95.15s-1.89,0-2.78,0c-.47.39-.9.78-1.45,1.21s-1.27.8-1.86,1.1a11.86,11.86,0,0,1-1.54.66c.89.12,1.78.29,2.81.38a31.24,31.24,0,0,0,3.51.24,14.36,14.36,0,0,0,3.62-.36,6.92,6.92,0,0,0,2.76-1.34,4.51,4.51,0,0,0,1.23-1.75,2.12,2.12,0,0,0,.25-1,11.15,11.15,0,0,1-1.24.35A22.39,22.39,0,0,1,193.7,144.33Z"/><path class="cls-3" d="M200.46,129.38a11.17,11.17,0,0,1-1.28,1.09,7.55,7.55,0,0,1-2,1,8.79,8.79,0,0,1-2.52.49,21.24,21.24,0,0,1-2.29-.06c.72.36,1.4.68,2.08,1a10.77,10.77,0,0,0,2.15.59,5.62,5.62,0,0,0,2-.07,3.52,3.52,0,0,0,1.59-.83,3,3,0,0,0,1-1.3,6.66,6.66,0,0,0,.41-1.7,10.12,10.12,0,0,0,0-1.27C201.19,128.64,200.85,129,200.46,129.38Z"/><path class="cls-3" d="M188,149.92c-1.06-.09-2.28-.23-3.38-.41s-2-.42-2.63-.57-1.09-.3-1.5-.44a13.25,13.25,0,0,1-1.36,1.21c-.55.38-1.27.84-2,1.26a27.5,27.5,0,0,0,3.46,1.35,20.67,20.67,0,0,0,4.39.86,7.53,7.53,0,0,0,3.53-.37,3.92,3.92,0,0,0,1.83-1.47,2.43,2.43,0,0,0,.39-1.33C189.87,150,189,150,188,149.92Z"/><path class="cls-3" d="M198.62,119.8a6.25,6.25,0,0,0-2.84-.7,6.44,6.44,0,0,0-2.6.53,26.71,26.71,0,0,0-2.86,1.46,7,7,0,0,1,1.45.56,16.18,16.18,0,0,1,2.27,1.46,24.74,24.74,0,0,0,2.78,1.93,6.46,6.46,0,0,0,3,.79,3.7,3.7,0,0,0,2.24-.67,3,3,0,0,0,1.1-1.47,7.23,7.23,0,0,0,.27-1.54,5.32,5.32,0,0,1-1.81-.65C200.77,121.05,199.66,120.3,198.62,119.8Z"/><path class="cls-3" d="M205.38,116.92a2.9,2.9,0,0,0-1.3-.88,4,4,0,0,0-2,.07A14.4,14.4,0,0,0,200,117c-.71.29-1.38.55-2.09.8.48.23,1,.46,1.52.77s1.11.83,1.58,1.18a6.37,6.37,0,0,0,1.36.84,3.31,3.31,0,0,0,1.34.27,2.06,2.06,0,0,0,1.16-.4,2.46,2.46,0,0,0,.79-1.19,2.77,2.77,0,0,0,.19-1.26A2.14,2.14,0,0,0,205.38,116.92Z"/><path class="cls-3" d="M129.81,155.84a8.28,8.28,0,0,0-2.65-1.93,7.32,7.32,0,0,0-2.77-.45,21.14,21.14,0,0,0-2.17,0,5.77,5.77,0,0,1-.93-.09c.73,1,1.46,2,2.31,3s1.91,2,3,3a13,13,0,0,0,3.22,2.28,5.67,5.67,0,0,0,3.13.39,7,7,0,0,0,2.34-.87,29.22,29.22,0,0,1-2.4-2.16C131.92,158.07,130.79,156.78,129.81,155.84Z"/><path class="cls-3" d="M177.55,153.53c-.81-.33-1.57-.69-2.29-1.05a16.43,16.43,0,0,1-1.84.81,9.21,9.21,0,0,1-2.15.43,16.29,16.29,0,0,1-2.12-.14L167.08,155c.68.32,1.32.68,2.16,1a18.15,18.15,0,0,0,3.11.88,18.76,18.76,0,0,0,3.63.3,6.54,6.54,0,0,0,2.57-.5,6.25,6.25,0,0,0,1.64-1,10.62,10.62,0,0,0,.95-1c-.37-.1-.77-.2-1.38-.4S178.31,153.85,177.55,153.53Z"/><path class="cls-3" d="M139.1,155.17a7.36,7.36,0,0,0-2.27-1.38,7,7,0,0,0-2.4-.4,17,17,0,0,0-2.31.35c-.7.09-1.32.18-1.93.23,1.09,1.08,2.23,2.11,3.17,3.06a33.55,33.55,0,0,0,2.68,2.29,8.89,8.89,0,0,0,2.56,1.31,5.11,5.11,0,0,0,2.37,0,6.45,6.45,0,0,0,1.75-.7,4.92,4.92,0,0,0,1-.69c-.67-.6-1.38-1.21-2.16-1.9S139.89,155.78,139.1,155.17Z"/><path class="cls-3" d="M121.83,157.43c-1-1.11-2.17-2.48-3.08-3.34a4.62,4.62,0,0,0-2.18-1.37,7.8,7.8,0,0,0-2.17-.18c-.61,0-1.06,0-1.47,0s-.82,0-1.22-.1c.62.73,1.24,1.49,2.13,2.64s2.08,2.76,3.09,3.91a11.44,11.44,0,0,0,2.83,2.51,9,9,0,0,0,3,1.16,7.17,7.17,0,0,0,2.54,0,4.84,4.84,0,0,0,1.45-.47c-.79-.65-1.54-1.26-2.32-2S122.85,158.54,121.83,157.43Z"/><path class="cls-3" d="M115.15,160.11c-.53-.68-1.23-1.58-2-2.68s-1.69-2.33-2.58-3.35a9.24,9.24,0,0,0-2.81-2.26,7.36,7.36,0,0,0-2.71-.62c-1,0-2-.13-3.06-.18.79,1.34,1.59,2.65,2.36,3.79a28.5,28.5,0,0,0,2.31,3.14,21.86,21.86,0,0,0,2.89,3,7.37,7.37,0,0,0,3.12,1.49,5.56,5.56,0,0,0,2.47-.13,10.19,10.19,0,0,0,1.46-.54A14.63,14.63,0,0,1,115.15,160.11Z"/><path class="cls-3" d="M147.24,154.4a8.42,8.42,0,0,0-2.86-1,9.33,9.33,0,0,0-2.5.05c-.74.08-1.4.09-2,.14.51.4,1,.79,1.46,1.14s.87.69,1.42,1.17a19.74,19.74,0,0,0,2.13,1.65,7.53,7.53,0,0,0,2.45,1,6.64,6.64,0,0,0,2.22,0,5,5,0,0,0,1.61-.46c.46-.22.88-.45,1.31-.71-.72-.37-1.45-.69-2.32-1.22S148.24,154.94,147.24,154.4Z"/><path class="cls-3" d="M165.82,155.68a7.19,7.19,0,0,1-.87.2,6,6,0,0,1-1.32.19,11.51,11.51,0,0,1-1.23-.06l-1.27.88a6.7,6.7,0,0,1-.84.45,13.1,13.1,0,0,0,1.84,1,14.6,14.6,0,0,0,2.38.68,8.15,8.15,0,0,0,2.25.19,5.89,5.89,0,0,0,1.7-.41,7.63,7.63,0,0,0,1.09-.69,11.7,11.7,0,0,1-1.79-1A19,19,0,0,1,165.82,155.68Z"/><path class="cls-3" d="M159.26,158.32c-.19-.17-.31-.26-.43-.39a7.53,7.53,0,0,1-1.58.46,10.24,10.24,0,0,1-1.92,0,5.29,5.29,0,0,1-1.17-.3c-.26.19-.56.42-.85.66.36.18.72.36,1.12.54a8.46,8.46,0,0,0,1.49.52,9,9,0,0,0,2.12.26,5.43,5.43,0,0,0,1.85-.24,5.21,5.21,0,0,0,1-.52c-.28-.14-.56-.28-.84-.45A4.44,4.44,0,0,1,159.26,158.32Z"/><path class="cls-3" d="M55.47,127.23a12.21,12.21,0,0,1,.69,1.06,13.49,13.49,0,0,1,.59,1.42c.17-1,.34-2,.55-3.13a23.55,23.55,0,0,1,1-3.11,14.28,14.28,0,0,1,1.25-2.15c.44-.55.78-.95,1.13-1.34-.06-1.31-.16-2.67-.14-3.94a26.15,26.15,0,0,1,.27-3.3,19.52,19.52,0,0,1,.43-2.1c-.64.62-1.5,1.44-2.19,2.14a18.19,18.19,0,0,1-.31,2.2,11.1,11.1,0,0,1-1,2.82A12.47,12.47,0,0,1,56.22,120a23.15,23.15,0,0,1,.09,2.42,20.36,20.36,0,0,1-.33,2.73C55.82,125.94,55.62,126.58,55.47,127.23Z"/><path class="cls-3" d="M200.31,102c-.75.37-1.8.78-2.76,1.18s-2,.81-2.92,1.3a16.57,16.57,0,0,0-2.67,1.8,11.41,11.41,0,0,0-1.69,2,12.57,12.57,0,0,1,1.33-.26,20.54,20.54,0,0,1,2.22-.18c.86,0,1.76,0,2.74-.08a12.83,12.83,0,0,0,3.1-.63,6.67,6.67,0,0,0,2.32-1.37,4.7,4.7,0,0,0,1.33-2.19,3.92,3.92,0,0,0,0-2.21,3.57,3.57,0,0,0-.72-1.26,4.43,4.43,0,0,1-.69.79A7.76,7.76,0,0,1,200.31,102Z"/><path class="cls-3" d="M200.63,110.89a5.88,5.88,0,0,0,.75-2,3.83,3.83,0,0,0,.09-1.19,7.54,7.54,0,0,1-2.05.93,17.69,17.69,0,0,1-3.22.55c-1.27.1-2.62.08-3.69.19a9.26,9.26,0,0,0-2.56.5A6.37,6.37,0,0,0,188,111a11.73,11.73,0,0,0-1.41,1.41c.94-.08,1.89-.15,3-.15s2.21.15,3.39.28,2.4.28,3.42.29a4.92,4.92,0,0,0,2.44-.42A4.4,4.4,0,0,0,200.63,110.89Z"/><path class="cls-3" d="M193.72,117.61a7.81,7.81,0,0,0,2.57-.66,7.16,7.16,0,0,0,2.07-1.3,7.69,7.69,0,0,0,1.19-1.74,16.23,16.23,0,0,1-2,.48,15.71,15.71,0,0,1-2.83,0c-1.14-.14-2.48-.36-3.62-.5a14.85,14.85,0,0,0-3-.06,13,13,0,0,0-2.69.7,19.11,19.11,0,0,0-2.43,1.23,20,20,0,0,1,2.08.18,20.19,20.19,0,0,1,2.38.6,30.54,30.54,0,0,0,3.12.93A10.5,10.5,0,0,0,193.72,117.61Z"/><path class="cls-3" d="M190.88,100.49c.34-.36.73-.67,1.16-1.1s.94-.81,1.53-1.32,1.4-.91,2.08-1.49a7.2,7.2,0,0,0,1.81-1.89,6.53,6.53,0,0,0,1-2.37,3.78,3.78,0,0,0-.07-2.17,3.27,3.27,0,0,0-1.24-1.53,2.88,2.88,0,0,0-1.49-.52,5,5,0,0,0-1.35.06c0,.41,0,.86-.11,1.59a28.49,28.49,0,0,1-.43,2.85,20.48,20.48,0,0,1-.83,3.07c-.38,1-.87,2-1.24,2.77S191.11,99.88,190.88,100.49Z"/><path class="cls-3" d="M178.7,84.12c.25.87.48,1.94.92,3.19a19.25,19.25,0,0,0,1.66,3.8,12.43,12.43,0,0,0,2.48,3,11.77,11.77,0,0,0,2.59,1.67c-.13-.74-.3-1.48-.42-2.43s-.23-2.06-.38-3.21a19.82,19.82,0,0,0-.62-3.55,9.82,9.82,0,0,0-1.29-3,6.85,6.85,0,0,0-1.91-2,3.72,3.72,0,0,0-1.9-.66,5.77,5.77,0,0,0-1.56.09c-.41.1-.62.21-.87.28a4.32,4.32,0,0,1,.53.93A13,13,0,0,1,178.7,84.12Z"/><path class="cls-3" d="M187,88.43c.15,1.16.25,2.47.44,3.71a17.12,17.12,0,0,0,.74,3.47,11.79,11.79,0,0,0,1,2.26c.36-.8.73-1.6,1.2-2.85a28.42,28.42,0,0,0,1.43-4.35,7.92,7.92,0,0,0,.08-3.44,5.19,5.19,0,0,0-1-2.26,3.76,3.76,0,0,0-1.71-1.1,5.6,5.6,0,0,0-2-.25,10.92,10.92,0,0,0-1.69.24,11.76,11.76,0,0,1,.78,1.72A14.17,14.17,0,0,1,187,88.43Z"/><path class="cls-3" d="M190.35,118.84a11,11,0,0,1-2-.42c-.77-.24-1.65-.61-2.62-.86a10.18,10.18,0,0,0-2.93-.42,7.34,7.34,0,0,0-2.52.58,11.79,11.79,0,0,0-1.9,1,11.28,11.28,0,0,1,2.07.39c.69.23,1.33.55,2,.87a9.57,9.57,0,0,0,2.22.8,7.24,7.24,0,0,0,2.5,0,11.38,11.38,0,0,0,2.37-.79c.71-.33,1.43-.71,2.14-1.08C191.29,118.88,190.88,118.9,190.35,118.84Z"/><path class="cls-3" d="M63.77,109.12a14.76,14.76,0,0,1,.76-1.4,9.61,9.61,0,0,1,1.56-1.81A16.25,16.25,0,0,1,68.84,104c1.09-.56,2.26-1.08,3.51-1.59a26.2,26.2,0,0,0,3.4-1.73,12.24,12.24,0,0,0,2.14-2c-.77,0-1.59,0-2.66,0s-2.42,0-3.65.12a12.75,12.75,0,0,0-3.51.65A8.67,8.67,0,0,0,65,101.19a5.92,5.92,0,0,0-1.69,2.75,6.93,6.93,0,0,0-.25,2.89A8.77,8.77,0,0,0,63.77,109.12Z"/><path class="cls-3" d="M177.49,147.79a19.25,19.25,0,0,1-2.21-.92,15.5,15.5,0,0,1-2.34-1.62c-.71-.57-1.3-1.17-2-1.78a13,13,0,0,0-2.34-1.58,3.91,3.91,0,0,0-2.19-.47c-.78,0-1.6.17-2.38.22a13.89,13.89,0,0,1-2.25-.07c.86.86,1.76,1.72,2.82,2.67a31.33,31.33,0,0,0,3.27,2.73,10.84,10.84,0,0,0,3,1.58,7.12,7.12,0,0,0,2.68.37,7.77,7.77,0,0,0,2.32-.38A9.43,9.43,0,0,0,177.49,147.79Z"/><path class="cls-3" d="M169.54,152.25a6.63,6.63,0,0,0,2.35-.34,9.11,9.11,0,0,0,2.05-1c.55-.34.93-.65,1.32-.92-.46.1-.87.16-1.37.26a15.72,15.72,0,0,1-1.6.09c-.53,0-1.1-.09-1.67-.16-.29.15-.55.3-1,.49a14.86,14.86,0,0,1-1.5.54c-.49.14-1,.24-1.48.34.28.1.52.23,1,.38A8.3,8.3,0,0,0,169.54,152.25Z"/><path class="cls-3" d="M163.21,154.41a6.61,6.61,0,0,0,2.19-.39c.71-.29,1.43-.67,2.14-1-.36-.14-.77-.29-1.17-.47s-.84-.41-1.28-.63c-.57,0-1.15.07-1.68,0a10.56,10.56,0,0,1-1.58-.23,15.08,15.08,0,0,1-1.4.91,8.58,8.58,0,0,1-1.46.63,10.61,10.61,0,0,0,2,.87A6,6,0,0,0,163.21,154.41Z"/><path class="cls-3" d="M194.46,129.88a8.32,8.32,0,0,0,2.73-.61c.79-.33,1.55-.79,2.31-1.2a21.13,21.13,0,0,1-2.34-.81,22.62,22.62,0,0,1-2.95-1.61,29.93,29.93,0,0,0-4.11-2.4,6.61,6.61,0,0,0-3.46-.41,7,7,0,0,0-2.2.64,11.18,11.18,0,0,0-1.27.84c.79.57,1.59,1.09,2.3,1.66a26.16,26.16,0,0,0,2.21,1.7,12.34,12.34,0,0,0,3.28,1.71A9.83,9.83,0,0,0,194.46,129.88Z"/><path class="cls-3" d="M194.26,139.37a4.49,4.49,0,0,0,2.1-1.05,3.79,3.79,0,0,0,1.22-1.54,4.38,4.38,0,0,0,.32-1.54,4.25,4.25,0,0,1-.45-.06,8.38,8.38,0,0,1-1.34-.35c-.56-.19-1.12-.51-1.77-.7a6.47,6.47,0,0,0-2.19-.39,7.15,7.15,0,0,0-2.31.43c-.88.28-1.84.77-2.84,1.05a16.92,16.92,0,0,1-3.13.47c.45.06.89.12,1.46.23a10.77,10.77,0,0,1,1.89.7,21.63,21.63,0,0,1,1.95,1.28,9.68,9.68,0,0,0,2.36,1.26A5.79,5.79,0,0,0,194.26,139.37Z"/><path class="cls-3" d="M188.47,142.45a10.6,10.6,0,0,0,2.68-1.31c-.24-.09-.48-.18-.89-.36a13.16,13.16,0,0,1-1.59-1,23.23,23.23,0,0,0-2.13-1.65,7.54,7.54,0,0,0-2.65-1.07,12.68,12.68,0,0,0-3.07-.1,14.67,14.67,0,0,0-2.48.41,14.43,14.43,0,0,0-1.41.39,26,26,0,0,0,2,2,12.52,12.52,0,0,0,2.61,1.84,9.52,9.52,0,0,0,3.39,1.1A8.83,8.83,0,0,0,188.47,142.45Z"/><path class="cls-3" d="M179.65,146.26a6.92,6.92,0,0,0,2.77-.61,9.48,9.48,0,0,0,2.24-1.45A8.54,8.54,0,0,1,183,144a9.87,9.87,0,0,1-2.37-.93,19.56,19.56,0,0,1-2.54-1.84,16.28,16.28,0,0,0-2.33-1.75,4,4,0,0,0-2.24-.43c-.78.09-1.65.37-2.44.54a15.83,15.83,0,0,1-2.06.4c1.54,1.26,3.07,2.51,4.38,3.52a19.41,19.41,0,0,0,3.38,2.08A6.93,6.93,0,0,0,179.65,146.26Z"/><path class="cls-3" d="M195.58,98.82a17,17,0,0,0-2.86,2.61,8,8,0,0,0-1.35,2.56,6.39,6.39,0,0,1,1-.49,15.92,15.92,0,0,1,1.62-.57c.79-.25,1.83-.57,2.83-.94a13.58,13.58,0,0,0,2.76-1.3,5.55,5.55,0,0,0,1.81-1.8,4.35,4.35,0,0,0,.63-2.14,4.16,4.16,0,0,0-.47-2.19,3.62,3.62,0,0,0-1.17-1.32,8.42,8.42,0,0,1-.73,1.56,9.63,9.63,0,0,1-1.43,1.73C197.58,97.2,196.61,98,195.58,98.82Z"/><path class="cls-3" d="M91.4,84.91a8.94,8.94,0,0,0,3,1.16A8,8,0,0,0,97.57,86a19.71,19.71,0,0,0,3.24-1.11,30,30,0,0,1-2.89-1.12c-1-.45-2-1.08-3.16-1.74a24.83,24.83,0,0,0-3.35-1.72A4.7,4.7,0,0,0,88.88,80a4.07,4.07,0,0,0-1.72.78,8.61,8.61,0,0,0-1.11,1.06A21,21,0,0,1,88.17,83C89.08,83.53,90.32,84.33,91.4,84.91Z"/><path class="cls-3" d="M101.5,83.46a7.81,7.81,0,0,0,2.36.35,6.78,6.78,0,0,0,2.27-.51,4.63,4.63,0,0,0,1.35-.87c-.52-.23-1-.5-1.6-.77s-1.19-.72-2-1.16-2-1-2.93-1.41-1.76-.78-2.49-1a5.84,5.84,0,0,0-2-.21,4.42,4.42,0,0,0-1.7.61,3.16,3.16,0,0,0-1,1.06c1.67,1,3.38,2,4.66,2.68A17.16,17.16,0,0,0,101.5,83.46Z"/><path class="cls-3" d="M108.32,81.2c1,.49,1.56.77,2.12,1a8.15,8.15,0,0,1,1.16-.15A6.92,6.92,0,0,1,113,82c.45,0,.86,0,1.31,0l.92-.45c-1.27-.75-2.55-1.55-3.82-2.31a25,25,0,0,0-3.72-1.93,10.21,10.21,0,0,0-3.16-.72,3.38,3.38,0,0,0-1.78.45,4,4,0,0,0-.86.82c.88.41,1.8.82,2.92,1.4S107.32,80.66,108.32,81.2Z"/><path class="cls-3" d="M117.08,81.16a5.12,5.12,0,0,1,1.06-.61,11.57,11.57,0,0,1,1.5-.58c.5-.15.87-.25,1.2-.32-1.79-1-3.59-2.09-5-2.85a14.85,14.85,0,0,0-3.34-1.35,3.26,3.26,0,0,0-2.06.11,3.36,3.36,0,0,0-1,.78c1,.53,1.91,1.07,3.18,1.86S115.5,80.1,117.08,81.16Z"/><path class="cls-3" d="M65.27,98.09a8.48,8.48,0,0,1,3.21-1.2,19,19,0,0,1,4.39-.24c1.51,0,3,.14,4.18,0A8.14,8.14,0,0,0,79.78,96a6.35,6.35,0,0,0,1.3-.72,22,22,0,0,1-2.47-.6c-.88-.29-1.89-.71-3.06-1.13a23.14,23.14,0,0,0-3.76-1,11.84,11.84,0,0,0-3.52,0,4.86,4.86,0,0,0-2.63,1.06,4.93,4.93,0,0,0-1.59,2.5,17.43,17.43,0,0,0-.54,3.7A9.21,9.21,0,0,1,65.27,98.09Z"/><path class="cls-3" d="M83.19,86.9a30.78,30.78,0,0,0,3,1.45,11.13,11.13,0,0,0,2.87.71,6.9,6.9,0,0,0,2.64-.25,9.13,9.13,0,0,0,2.13-1,27.89,27.89,0,0,1-3-1.37c-1-.58-2.11-1.33-3.1-1.91a13.23,13.23,0,0,0-2.64-1.35,7.91,7.91,0,0,0-2.52-.44,6.76,6.76,0,0,0-2.47.33,4.58,4.58,0,0,0-1.53,1,4.64,4.64,0,0,0-.56.67,17.92,17.92,0,0,1,2.26.64C81.12,85.82,82.16,86.36,83.19,86.9Z"/><path class="cls-3" d="M72.25,90.64a14.48,14.48,0,0,1,3.2.73c1.25.42,2.78,1.07,4.15,1.42a9,9,0,0,0,3.59.25,5.73,5.73,0,0,0,2.42-.83,19.52,19.52,0,0,0,2.12-1.5,20.22,20.22,0,0,1-2.86-1.07c-1-.46-2.24-1.13-3.32-1.67a15.13,15.13,0,0,0-3-1.16,8.87,8.87,0,0,0-2.52-.33,8.06,8.06,0,0,0-2.73.53A6.37,6.37,0,0,0,71,88.66a6,6,0,0,0-1,1.92A20.74,20.74,0,0,1,72.25,90.64Z"/><path class="cls-3" d="M162.16,84a31.2,31.2,0,0,0,2.78,2.71,16.92,16.92,0,0,0,3.58,2.33,16.46,16.46,0,0,0,3.39,1.11c1,.17,1.83.24,2.69.33a10.45,10.45,0,0,1-1.88-1.89c-.7-.9-1.54-2.2-2.38-3.43a32.55,32.55,0,0,0-2.83-3.32,18.92,18.92,0,0,0-3.2-2.53,5.05,5.05,0,0,0-2.55-.69,5.63,5.63,0,0,0-2.11.47,12.54,12.54,0,0,0-1.73,1.07,21.34,21.34,0,0,1,1.69,1.43A35,35,0,0,1,162.16,84Z"/><path class="cls-3" d="M150.8,82.65a27.68,27.68,0,0,0,2.43,2.4,16.66,16.66,0,0,0,3,2.19,10.13,10.13,0,0,0,2.85,1.16,16.13,16.13,0,0,0,3.06.31,18.72,18.72,0,0,0,2.42-.18c-.83-.65-1.65-1.34-2.56-2.2s-1.91-1.94-2.85-2.84A28.88,28.88,0,0,0,156.33,81a20.93,20.93,0,0,0-3.26-2.11,7.39,7.39,0,0,0-2.72-.66,8,8,0,0,0-2.14.27,12.49,12.49,0,0,0-1.79.69c.71.44,1.43.89,2.18,1.45S150.06,81.92,150.8,82.65Z"/><path class="cls-3" d="M169.67,81.89A37.39,37.39,0,0,1,172.15,85c.85,1.14,1.57,2.36,2.46,3.35a11,11,0,0,0,2.92,2.39,18.4,18.4,0,0,0,2.64,1.35A13.23,13.23,0,0,1,179,90c-.36-1-.79-2.37-1.18-3.66a19.59,19.59,0,0,0-1.35-3.5,9,9,0,0,0-2.09-2.6A6.18,6.18,0,0,0,172.1,79a4.32,4.32,0,0,0-2,0,5.71,5.71,0,0,0-1.46.46,4.59,4.59,0,0,0-.84.46C168.39,80.48,168.93,81.08,169.67,81.89Z"/><path class="cls-3" d="M139.31,79.58a8,8,0,0,0-1.82.57,9.28,9.28,0,0,1,1.74,1.22c.79.65,1.85,1.64,2.91,2.68a22.35,22.35,0,0,0,3.39,2.77,11.6,11.6,0,0,0,3.65,1.61,11.73,11.73,0,0,0,3.35.23,12.32,12.32,0,0,0,2.26-.34c-.35-.22-.67-.4-1.23-.79a18.44,18.44,0,0,1-2-1.73c-.71-.69-1.41-1.5-2.27-2.36A17.78,17.78,0,0,0,146.13,81a12.19,12.19,0,0,0-3.71-1.36A10.46,10.46,0,0,0,139.31,79.58Z"/><path class="cls-3" d="M125.4,80.32c.33-.23.67-.46,1-.65s.76-.38,1.13-.52a36.38,36.38,0,0,0-3.75-2.1,12.52,12.52,0,0,0-2.66-1,4.7,4.7,0,0,0-1.84-.08,10,10,0,0,0-1.45.38c1.68.9,3.32,1.75,4.56,2.42Z"/><path class="cls-3" d="M130.85,78.48a19.78,19.78,0,0,1,2.16.19c.73.11,1.38.27,2.07.42a11.79,11.79,0,0,0,1.33-.51c-.39-.26-.75-.53-1.35-.88a23.57,23.57,0,0,0-2.16-1.13,9.58,9.58,0,0,0-2.5-.69,7.54,7.54,0,0,0-2.47.22,7.36,7.36,0,0,0-1.67.65l3,1.86A13.81,13.81,0,0,1,130.85,78.48Z"/><path class="cls-3" d="M139.23,77.85a12.73,12.73,0,0,1,2.13.06c.69.07,1.3.23,1.95.34-.32-.26-.6-.48-1-.75s-.88-.49-1.36-.71a5.89,5.89,0,0,0-1.46-.36,5.75,5.75,0,0,0-1.64.09,8.38,8.38,0,0,0-1.78.49c.51.35,1.07.75,1.58,1.14A8.42,8.42,0,0,1,139.23,77.85Z"/><path class="cls-4" d="M207.07,111.48a4.6,4.6,0,0,0-1.64-1.72,7.7,7.7,0,0,0-1.89-.74,6.7,6.7,0,0,0,.17-1,2.41,2.41,0,0,0-.12-.86,3.63,3.63,0,0,0-.26-.58,6.53,6.53,0,0,0,1.11-.94,5.86,5.86,0,0,0,1-1.63,6.33,6.33,0,0,0,.31-2.28,6,6,0,0,0-.59-2.27,9.55,9.55,0,0,0-1.27-1.78,5.73,5.73,0,0,0-.07-3.77,5.33,5.33,0,0,0-1.35-1.86,5.76,5.76,0,0,0-1.55-.9,12.88,12.88,0,0,0-1-2.58A5.36,5.36,0,0,0,198,86.66a6.36,6.36,0,0,0-3.87-.51,9.53,9.53,0,0,0-1-2.09,7.6,7.6,0,0,0-2-1.9,7.11,7.11,0,0,0-2.61-1A10.67,10.67,0,0,0,186,81a18.12,18.12,0,0,0-2,.36,11.75,11.75,0,0,0-1.93-1.69,6.37,6.37,0,0,0-2.37-.85,8,8,0,0,0-2.21-.06,12.53,12.53,0,0,0-1.7.33,5.66,5.66,0,0,0-.94-.82,8.18,8.18,0,0,0-2-1.16,6.7,6.7,0,0,0-2.52-.4,8.16,8.16,0,0,0-2.55.41,15.71,15.71,0,0,0-2.18,1,12.33,12.33,0,0,0-1.83-1.1,6.23,6.23,0,0,0-2.15-.6,7.67,7.67,0,0,0-2.38.14,8.61,8.61,0,0,0-2.17.8,12.38,12.38,0,0,0-1.64,1,13,13,0,0,0-2.32-1.21,11,11,0,0,0-2.92-.58,12.32,12.32,0,0,0-3,.22c-1,.16-2.07.44-3.15.71a9.57,9.57,0,0,0-1.89-1.51,6.82,6.82,0,0,0-2.46-.77,9.83,9.83,0,0,0-2.71,0,23,23,0,0,0-2.48.66,10.72,10.72,0,0,0-2.33-1.13,8.72,8.72,0,0,0-2.89-.38,12.13,12.13,0,0,0-2.72.49,14.84,14.84,0,0,0-1.8.73,9.27,9.27,0,0,0-2.36-1.17,11,11,0,0,0-3.58-.46,17.92,17.92,0,0,0-3.8.77,10.8,10.8,0,0,0-2-.88,7,7,0,0,0-2.41-.19,4.46,4.46,0,0,0-2,.64,4.7,4.7,0,0,0-1.23,1.09,13.43,13.43,0,0,0-2.51-.69A9.06,9.06,0,0,0,102,75a5.71,5.71,0,0,0-1.93.89,4.77,4.77,0,0,0-.94.86,7.39,7.39,0,0,0-2.59-.57,7,7,0,0,0-3.07.67,6.35,6.35,0,0,0-1.88,1.75,7.71,7.71,0,0,0-2.48-.52,7.11,7.11,0,0,0-3.3.66,13.77,13.77,0,0,0-3,2.15,18.89,18.89,0,0,0-3.08.23,6.21,6.21,0,0,0-2.3,1,5.76,5.76,0,0,0-1.37,1.24,8.71,8.71,0,0,0-.92,1.31,17.34,17.34,0,0,0-3.07.88,7,7,0,0,0-2.37,1.69,10.93,10.93,0,0,0-1.49,2,8.2,8.2,0,0,0-.64,1.52,11,11,0,0,0-2.5.83,5,5,0,0,0-1.88,1.71,8.84,8.84,0,0,0-1.05,2.24,19.3,19.3,0,0,0-2.74.86,14.85,14.85,0,0,0-3,1.66,10,10,0,0,0-2.24,2.39,11.08,11.08,0,0,0-1.1,2.49c-.64.62-1.24,1.21-2,1.95A16,16,0,0,0,49,107.32,9.58,9.58,0,0,0,47.67,110a6.77,6.77,0,0,0-.29,1.91,9.77,9.77,0,0,0-3.11,7.8,7.91,7.91,0,0,0,.49,1.82,11,11,0,0,0-1.16,2.08,9.53,9.53,0,0,0-.63,3,7.7,7.7,0,0,0,.56,3,8.62,8.62,0,0,0,1.37,2.11,19.36,19.36,0,0,0-.56,3.29,7.94,7.94,0,0,0,.48,2.89,4.78,4.78,0,0,0,1.11,1.56,5.89,5.89,0,0,0,1,.7,8.26,8.26,0,0,0-.33,1.91,9.18,9.18,0,0,0,.2,2.71,6.44,6.44,0,0,0,1.2,2.43,5.4,5.4,0,0,0,1.49,1.42,4.66,4.66,0,0,0,1.2.47,22.34,22.34,0,0,0,.82,3.56,7.84,7.84,0,0,0,1.59,2.73,5,5,0,0,0,1.79,1.15,27.65,27.65,0,0,0,.87,3.32A13.58,13.58,0,0,0,57.32,163a6.62,6.62,0,0,0,2,1.94,10.93,10.93,0,0,0,2,1,20.56,20.56,0,0,0,2.39,4,13.11,13.11,0,0,0,3.54,3.15,7.27,7.27,0,0,0,3.19,1,11,11,0,0,0,1.63,2,5.21,5.21,0,0,0,2.12,1.08,13.6,13.6,0,0,0,2.57.16c-.1-1.48-.19-3-.4-4.68a44.44,44.44,0,0,0-.89-5.41,31.74,31.74,0,0,0-1.56-5.06A14.39,14.39,0,0,0,71.52,158a17.62,17.62,0,0,0-3.32-2.62,18,18,0,0,0-.36-2,8.13,8.13,0,0,0-.73-1.83,11.46,11.46,0,0,0-1-1.65c.27.26.59.56,1,.87a10.69,10.69,0,0,0,1.43.92,6.72,6.72,0,0,0,1.41.48c.45.14.85.2,1.26.3a25.41,25.41,0,0,0,2.62,2.66,10,10,0,0,0,2.66,1.76,9.77,9.77,0,0,0,2.54.78,8.38,8.38,0,0,0,1.76.12,16.59,16.59,0,0,0,1.57,1.43,12.62,12.62,0,0,0,2.35,1.5,9.63,9.63,0,0,0,2.7.86,12.81,12.81,0,0,0,2.53.2c.78,0,1.39,0,2-.07.84.41,1.68.82,2.4,1.14a17.34,17.34,0,0,0,1.94.7,8.15,8.15,0,0,0,2,.22c.7,0,1.4-.18,2.15-.31a17.93,17.93,0,0,0,2.68,1.31,8.74,8.74,0,0,0,2.68.53,8.07,8.07,0,0,0,2.43-.33,5.87,5.87,0,0,0,1.64-.87,10.88,10.88,0,0,0,2.52,1.15,7.66,7.66,0,0,0,3,.26,9.33,9.33,0,0,0,2.49-.75,10.68,10.68,0,0,0,1.27-.75c.68.23,1.37.51,2.17.75a11.21,11.21,0,0,0,2.72.54,9.9,9.9,0,0,0,3-.31,11.57,11.57,0,0,0,2.31-1,10.76,10.76,0,0,0,2,.54,8.53,8.53,0,0,0,2.9.06,6.21,6.21,0,0,0,2.17-.84,8.22,8.22,0,0,0,1.1-.73c.65.07,1.34.19,2.12.22a10.4,10.4,0,0,0,2.67-.24,7.94,7.94,0,0,0,2.59-1,11.45,11.45,0,0,0,1.83-1.52,10.51,10.51,0,0,0,1.72.08,6.28,6.28,0,0,0,1.89-.31,12.62,12.62,0,0,0,1.75-.66,9.51,9.51,0,0,0,2.12,1.16,12.47,12.47,0,0,0,3,.68,8.34,8.34,0,0,0,2.54-.09,5.4,5.4,0,0,0,2.69-1.43,24.4,24.4,0,0,0,2.83.71,8.31,8.31,0,0,0,5.2-.74,5.58,5.58,0,0,0,1.36-1.13c1.14.14,2.28.23,3.43.29a14.29,14.29,0,0,0,3.45-.29,8.08,8.08,0,0,0,3.06-1.38,13.15,13.15,0,0,0,2.23-2.18,26.34,26.34,0,0,0,4,0,8,8,0,0,0,3.41-1.11,4.94,4.94,0,0,0,1.9-2.2,6.39,6.39,0,0,0,.52-2.23,17.24,17.24,0,0,0,2.75-1.18,7.21,7.21,0,0,0,2-1.79,5.68,5.68,0,0,0,1-2.08,8.54,8.54,0,0,0,.1-2.08,8.65,8.65,0,0,0,1.53-2.18,7.6,7.6,0,0,0,.56-3.05,13.69,13.69,0,0,0-.59-3.14,8.79,8.79,0,0,0,1.49-2.05,7.85,7.85,0,0,0,.61-2.68,7.59,7.59,0,0,0-.3-2.26A5.07,5.07,0,0,0,204.1,126a6.19,6.19,0,0,0,.83-2,10.35,10.35,0,0,0,.09-1.91,3.47,3.47,0,0,0,1.48-1,4.74,4.74,0,0,0,.93-2.33,5.42,5.42,0,0,0-.23-2.22,10.54,10.54,0,0,0,.49-2.56A5.25,5.25,0,0,0,207.07,111.48Zm-3.84-1a4.2,4.2,0,0,1,1.2.55,2.15,2.15,0,0,1,.82,1,2.72,2.72,0,0,1,.14,1.27,5.86,5.86,0,0,1-.22,1.22,3.74,3.74,0,0,0-1-.25,4,4,0,0,0-1.19,0,6.39,6.39,0,0,0-1,.32c-.33.15-.59.3-.88.41a7.72,7.72,0,0,0,1.16-1.21,4.28,4.28,0,0,0,.63-1.24,5.7,5.7,0,0,0,.26-1.13A3.6,3.6,0,0,0,203.23,110.52ZM66.38,113.74a7.68,7.68,0,0,0-.73,1.65,16.33,16.33,0,0,1-.49-1.87,8.23,8.23,0,0,1,0-2.5,6.5,6.5,0,0,1,1.2-2.85,10.73,10.73,0,0,1,2.78-2.45,17.44,17.44,0,0,1,3.15-1.65c1-.41,1.87-.69,2.66-.94s1.42-.51,2.08-.76a17.13,17.13,0,0,1-1.61,3A15.41,15.41,0,0,1,73,108a29.27,29.27,0,0,1-2.54,1.81,16,16,0,0,0-2.33,1.73A10.82,10.82,0,0,0,66.38,113.74Zm-.16,12.07a16.93,16.93,0,0,1-1.92-2.67A13.38,13.38,0,0,1,63,119.35a16,16,0,0,1-.3-4.06,28.4,28.4,0,0,1,.4-3.3,16.93,16.93,0,0,0,.29,2.63,11.59,11.59,0,0,0,.91,2.38,9.79,9.79,0,0,1,.95,2.5,32.43,32.43,0,0,1,.5,3.3C65.86,123.87,66,124.82,66.22,125.81Zm121.34-22.57c-.4-.31-.8-.57-1.43-1.13s-1.44-1.42-2.34-2.49a27.52,27.52,0,0,1-2.45-3.51,21.39,21.39,0,0,1-1.55-2.77,22.09,22.09,0,0,0,2.28,1.86,21,21,0,0,0,2.63,1.68,15.5,15.5,0,0,0,1.92.91c.07.29.1.58.2,1.12s.22,1.4.35,2.14S187.42,102.53,187.56,103.24Zm.11-5.11.78,1a8.78,8.78,0,0,1,.64,1,3.75,3.75,0,0,1,.35,1.36,14.09,14.09,0,0,1-.09,1.84,13.79,13.79,0,0,1-.28,1.58c-.1-.29-.17-.58-.31-1.16s-.3-1.44-.46-2.43S187.91,99.24,187.67,98.13Zm-.1,9.28c-.44.51-.87,1-1.3,1.5l-1.42,1.28a12.44,12.44,0,0,0-.22-2.14,10.2,10.2,0,0,0-.64-2.11,15,15,0,0,0-.9-1.68,6.09,6.09,0,0,1,1.77.57,6.84,6.84,0,0,1,1.66,1.27A7.93,7.93,0,0,1,187.57,107.41Zm-6.36-8.65c.61,1,1.15,1.78,1.68,2.58a14.92,14.92,0,0,1-2.25-.76A12.72,12.72,0,0,1,178,99.15a10.57,10.57,0,0,1-2.31-2.28c-.73-1-1.45-2.2-2.11-3a13.8,13.8,0,0,0-1.83-2,4.69,4.69,0,0,0,.81.12A8.61,8.61,0,0,0,174,92a10.17,10.17,0,0,1,1.79.21,4.61,4.61,0,0,1,1.88,1.07,12.16,12.16,0,0,1,1.61,2.37C179.92,96.66,180.6,97.8,181.21,98.76Zm-78.32,4a5.46,5.46,0,0,0,2.07-.44,5.72,5.72,0,0,0,1.39-.87,13.16,13.16,0,0,0,1.34.3,5.46,5.46,0,0,0,1.68,0,6.79,6.79,0,0,0,1.86-.48,6.24,6.24,0,0,0,1.31-.8,11.55,11.55,0,0,0,1.5.4,4.18,4.18,0,0,0,1.56-.14,4.75,4.75,0,0,0,1.51-.75,4.3,4.3,0,0,0,1-1,18.2,18.2,0,0,0,1.74.61,4.16,4.16,0,0,0,1.75.08,5.51,5.51,0,0,0,1.71-.53,4.9,4.9,0,0,0,1.06-.93,8,8,0,0,0,5.1,1.3,3.73,3.73,0,0,0,1.33-.39,11.44,11.44,0,0,0,1.79,1.15,6.06,6.06,0,0,0,2.19.59,3.6,3.6,0,0,0,1.81-.24,5.49,5.49,0,0,0,1.3-.76c.44.39.83.78,1.3,1.21a10.39,10.39,0,0,0,1.7,1.22,7.3,7.3,0,0,0,2.1.76,4.54,4.54,0,0,0,1.88-.12,5.09,5.09,0,0,0,1.3-.47c.95.66,1.86,1.35,2.69,1.89a8.92,8.92,0,0,0,2.41,1.05,5.88,5.88,0,0,0,2.25.14,4.38,4.38,0,0,0,1.45-.3,8.76,8.76,0,0,0,5.23,2.79,14.12,14.12,0,0,0,1.84,0,7.1,7.1,0,0,0-.41,1c-.1.4-.21.8-.26,1.13a5.81,5.81,0,0,0,0,.9,3.24,3.24,0,0,0-1.22.68,3.11,3.11,0,0,0-1,1.42,7.81,7.81,0,0,0-.3,2,4.82,4.82,0,0,0-1.16.28,8.44,8.44,0,0,0-2,1.13,8.13,8.13,0,0,0-1.6,1.89,7.43,7.43,0,0,0-.77,1.56,9.83,9.83,0,0,0-1.44.14,4.79,4.79,0,0,0-1.83.61,6.81,6.81,0,0,0-1.83,1.51,5.27,5.27,0,0,0-.81,1.52,9.87,9.87,0,0,0-2.47.21,5.91,5.91,0,0,0-2.42,1.11,5.72,5.72,0,0,0-1.36,1.78,8.62,8.62,0,0,0-1.39.14,9.32,9.32,0,0,0-1.5.46c-.46.23-.84.5-1.26.76a5.29,5.29,0,0,0-1.31-1,5.63,5.63,0,0,0-2.26-.6,7.05,7.05,0,0,0-2.6.25,10.18,10.18,0,0,0-2.22,1.09,10.24,10.24,0,0,0-1.8-1,8,8,0,0,0-2.27-.47,6.68,6.68,0,0,0-2.38.21,18.5,18.5,0,0,0-2.26.92,10.65,10.65,0,0,0-2.28-2,8.74,8.74,0,0,0-3.15-1,7.61,7.61,0,0,0-2.88.27,9,9,0,0,0-2.21,1,14.19,14.19,0,0,0-2.21-1.7,6.11,6.11,0,0,0-2.46-.81,8.17,8.17,0,0,0-2.67.12,14,14,0,0,0-2.29.75A15.38,15.38,0,0,0,98.38,123a9.82,9.82,0,0,0-2.18-1.45,11,11,0,0,0-2.87-.79,19.74,19.74,0,0,0-2.62-.12,13.31,13.31,0,0,0-.93-1.19,6.38,6.38,0,0,0-1-.9,13.67,13.67,0,0,0,.23-2.29,9.16,9.16,0,0,0-.27-2.14,5.93,5.93,0,0,0-.43-1.25,10.46,10.46,0,0,0,1.92-1.67A6.09,6.09,0,0,0,91.33,109a7.7,7.7,0,0,0,.26-1.87,10.8,10.8,0,0,0,1.58-.62,7.6,7.6,0,0,0,1.43-.87,11.37,11.37,0,0,0,1.21-1.3,10.77,10.77,0,0,0,.92-1.31,11.27,11.27,0,0,0,1.2-.14,4.35,4.35,0,0,0,1-.28c.38-.11.75-.3,1.13-.44a4.76,4.76,0,0,0,.81.24A6.73,6.73,0,0,0,102.89,102.72Zm-1.49-1.38c.59-.3,1.13-.6,1.55-.83s.72-.41,1-.57c.36.27.75.53,1.11.79a6,6,0,0,1-.92.53,4,4,0,0,1-1.28.23A9,9,0,0,1,101.4,101.34Zm4.6-2.16c.41,0,.83,0,1.24-.1a9.22,9.22,0,0,0,1.2-.28,7.72,7.72,0,0,0,.87-.32c.52.35,1.08.7,1.63,1a5.24,5.24,0,0,1-1.49.51,5.46,5.46,0,0,1-1.8-.13A7.45,7.45,0,0,1,106,99.18Zm5.31-1.27a2.14,2.14,0,0,0,1-.28,7.72,7.72,0,0,0,1.27-.8,4.93,4.93,0,0,0,.82-.86c.39.34.74.73,1.14,1a11.29,11.29,0,0,0,1.1,1,4.18,4.18,0,0,1-.89.65,3.15,3.15,0,0,1-1.37.31,4.3,4.3,0,0,1-1.54-.28A12.41,12.41,0,0,1,111.31,97.91ZM134.2,96.2c.62.6,1.33,1.33,2,2a2.41,2.41,0,0,1-1,.44,3.11,3.11,0,0,1-1.59-.19,6.78,6.78,0,0,1-2-1.08,19.85,19.85,0,0,1-2.12-1.82c-.63-.68-1.21-1.36-1.79-2a12.5,12.5,0,0,1,2.49.2,5.37,5.37,0,0,1,2.09.83A15.92,15.92,0,0,1,134.2,96.2ZM133,92.83c.94,0,1.84.09,2.82.21a7.71,7.71,0,0,1,3,1,12.84,12.84,0,0,1,2.75,2.59c.82,1,1.51,1.91,2.09,2.63s1,1.19,1.35,1.66a5.66,5.66,0,0,1-2.21.06,5.85,5.85,0,0,1-2.48-1.3,23.46,23.46,0,0,1-2.63-2.38l-2.32-2.15C134.65,94.38,133.83,93.6,133,92.83ZM129,97.47a4.26,4.26,0,0,1-1.16.11,6.23,6.23,0,0,1-1.86-.45,10.66,10.66,0,0,1-3.37-2.33,2,2,0,0,1,.47-.39c.17-.16.34-.27.51-.43a2.15,2.15,0,0,0,.57.07,5.67,5.67,0,0,0,.9.08,8.12,8.12,0,0,1,.86,0c.38.51.81,1,1.32,1.62S128.35,96.87,129,97.47Zm-5.85-.19a3.27,3.27,0,0,1-1,.56,3.88,3.88,0,0,1-1.48.1,4.48,4.48,0,0,1-1.69-.61,8.86,8.86,0,0,1-1.35-1,9.84,9.84,0,0,0,1.56-.14,5.27,5.27,0,0,0,1.33-.34,7.35,7.35,0,0,0,.84-.41,9,9,0,0,0,.82.94A6.93,6.93,0,0,0,123.13,97.28Zm21.78,29.06c-.54.13-.91.24-1.29.35a3.63,3.63,0,0,1,1.19-.85,6,6,0,0,1,2.06-.39,20.55,20.55,0,0,1,3.19.14c1.23.1,2.65.25,3.79.39s2,.25,2.89.38a9.17,9.17,0,0,0-1.2.31,9.67,9.67,0,0,0-1.17.56c-.69-.24-1.41-.44-2.22-.64s-1.71-.32-2.61-.41a16.83,16.83,0,0,0-2.53-.07A11.8,11.8,0,0,0,144.91,126.34Zm.5,4.15a14,14,0,0,1,3.19,2.77c1,1.11,1.94,2.38,2.75,3.32a19.16,19.16,0,0,0,2.07,2.15,11.91,11.91,0,0,0,1.18,1,11,11,0,0,1-2.25.1,12.75,12.75,0,0,1-3.2-.72,11.25,11.25,0,0,1-3.23-1.83,24,24,0,0,1-2.94-2.84c-.86-1-1.64-1.88-2.3-2.6s-1.33-1.29-2-1.86a3.5,3.5,0,0,1,1-.48,6.32,6.32,0,0,1,2.38-.13A8.77,8.77,0,0,1,145.41,130.49Zm8.59-6c-1.46-.15-2.85-.26-4.24-.4a4.09,4.09,0,0,1,1.06-1.51,4.92,4.92,0,0,1,2.53-.78,31.2,31.2,0,0,1,4.54.13c1.59.12,3.06.22,4.25.24s2.09,0,3-.07a11.43,11.43,0,0,1-2.4,1.49,14.3,14.3,0,0,1-4.11,1.07A24.61,24.61,0,0,1,154,124.51Zm11.18-4.23a12.79,12.79,0,0,1-3.41.21c-1.19,0-2.41-.19-3.35-.28s-1.67-.11-2.37-.11a4.57,4.57,0,0,1,.93-1.39,5.21,5.21,0,0,1,2.11-1.33,10.54,10.54,0,0,1,3.14-.55c1.06-.07,2.09,0,3.11-.06a16.26,16.26,0,0,0,2.84-.32,7.44,7.44,0,0,0,3-1.12,7.9,7.9,0,0,1-.89,1.67,10.39,10.39,0,0,1-2.19,2A8.84,8.84,0,0,1,165.18,120.28Zm5.71-6.53a7.22,7.22,0,0,1-2.55,1.11,18.84,18.84,0,0,1-3.87.4c-1.31,0-2.49-.08-3.68-.14a6.18,6.18,0,0,1,.28-1.5,3,3,0,0,1,1.24-1.29,5.85,5.85,0,0,1,2.32-.59c.91-.08,2,0,2.75,0a9.28,9.28,0,0,0,1.89-.16,9.78,9.78,0,0,0,1.3-.51c.23.26.42.51.69.81a6.05,6.05,0,0,0,.79.73A4.89,4.89,0,0,1,170.89,113.75Zm0-6.13a26.43,26.43,0,0,1-2-3.74c-.67-1.46-1.25-3.09-1.76-4.3a16.84,16.84,0,0,0-1.47-2.77,12.83,12.83,0,0,1,1.62.36A6,6,0,0,1,169,98a7.68,7.68,0,0,1,1.65,1.63,13.92,13.92,0,0,1,1.43,2.65c.56,1.17,1.18,2.76,1.74,4.09s1,2.47,1.4,3.22.56,1.25.78,1.67a2.83,2.83,0,0,1-1.26-.18,6.49,6.49,0,0,1-1.95-1.15A10,10,0,0,1,170.93,107.62Zm-4.71-4.52c.6,1.38,1.22,2.84,1.83,3.93a21.55,21.55,0,0,0,1.68,2.66,13.67,13.67,0,0,1-2.47-.65,7.94,7.94,0,0,1-2.55-1.47,9.53,9.53,0,0,1-2-2.54,24.3,24.3,0,0,1-1.53-3.31c-.52-1.17-1-2.5-1.5-3.71s-1.17-2.31-1.77-3.4a6.41,6.41,0,0,1,2.15.38,6.57,6.57,0,0,1,2.23,1.46,10.77,10.77,0,0,1,2.16,2.76A39.61,39.61,0,0,1,166.22,103.1Zm-77.57,6.44a4.78,4.78,0,0,1-1.6,1.69,6.18,6.18,0,0,1-2.25.79,6.52,6.52,0,0,1-2,.19,11.86,11.86,0,0,1-2.08-.3c0-.33,0-.69-.11-1.15s-.24-1-.38-1.45-.29-.79-.44-1.16a6.62,6.62,0,0,1,3.88-.48c.85.08,1.87.29,2.81.34a12.65,12.65,0,0,0,2.75-.28A6.12,6.12,0,0,1,88.65,109.54Zm-2.16,7.6c-.24-.18-.48-.31-.87-.62a15.57,15.57,0,0,1-1.42-1.09,15.84,15.84,0,0,1-1.26-1.12c.41,0,.82,0,1.27,0a7.73,7.73,0,0,0,1.28-.27c.37-.1.58-.22.79-.29a3.8,3.8,0,0,1,.25.87,4.25,4.25,0,0,1,.1,1.24A4.84,4.84,0,0,1,86.49,117.14Zm-7,3.72c.18-1.22.4-2.39.56-3.33s.33-1.66.49-2.43a6.7,6.7,0,0,1,1.49,1.3,7.26,7.26,0,0,1,1.29,2.31,25.82,25.82,0,0,1,.87,3.28c.23,1.15.54,2.43.78,3.43a24,24,0,0,0,.7,2.53,13.66,13.66,0,0,0,.77,1.88,10.37,10.37,0,0,0,.68,1.26,11.5,11.5,0,0,1-1.52.17,8.34,8.34,0,0,1-2.16-.22,5.06,5.06,0,0,1-2.12-1.17,5.5,5.5,0,0,1-1.54-2.12,8.91,8.91,0,0,1-.59-3.17A16.83,16.83,0,0,1,79.52,120.86Zm7.32,5.46A24.8,24.8,0,0,1,85.77,122a31.85,31.85,0,0,1-.32-3.53,10.87,10.87,0,0,1,1.83,1,15,15,0,0,1,2.24,2.11,20.11,20.11,0,0,1,2.27,3.09,28.21,28.21,0,0,1,1.79,3.81,23.26,23.26,0,0,1,1.1,3.53A8.45,8.45,0,0,1,95,134a7.83,7.83,0,0,1-.1,1.1,9.92,9.92,0,0,1-2.06-.47,7.69,7.69,0,0,1-2.23-1.49,12.16,12.16,0,0,1-2-2.71A26.56,26.56,0,0,1,86.84,126.32Zm7.65,1.06c-.48-1.17-.93-2.09-1.26-2.76s-.65-1.06-.92-1.44a15,15,0,0,1,2.24.31,8.91,8.91,0,0,1,2.49,1,11.2,11.2,0,0,1,2.4,2,23.05,23.05,0,0,1,2.4,3.06,29,29,0,0,1,1.86,3.2c.52,1.05.89,2,1.26,2.76a14.54,14.54,0,0,0,.94,1.84,11,11,0,0,0,.65.94,17.08,17.08,0,0,1-2.77-.22,12.14,12.14,0,0,1-3.15-1.08A8.7,8.7,0,0,1,98,134.7a13.54,13.54,0,0,1-1.93-3.4C95.51,130,95,128.59,94.49,127.38Zm11.85,6.73c-.88-1.47-1.93-3.4-2.77-4.75a28.19,28.19,0,0,0-2.07-3,5.32,5.32,0,0,1,1.91-.64,5.07,5.07,0,0,1,2.52.4,6.93,6.93,0,0,1,2.74,1.93,50.6,50.6,0,0,1,3.09,4c1,1.48,2.07,2.92,3,4s1.64,1.83,2.38,2.61a13.89,13.89,0,0,1-2.19.47,9.6,9.6,0,0,1-3.07-.19,7.32,7.32,0,0,1-3-1.61A13,13,0,0,1,106.34,134.11Zm9.58.94c-.78-1-1.47-1.87-2.28-3.05s-1.8-2.67-2.75-4.1a4.77,4.77,0,0,1,1.07-1,4.17,4.17,0,0,1,1.7-.57,4.07,4.07,0,0,1,2.35.56,12.65,12.65,0,0,1,2.88,2.34,31.49,31.49,0,0,1,2.87,3.57c1,1.32,1.92,2.71,2.81,3.82s1.67,1.88,2.45,2.69a7,7,0,0,1-2,.56,8.32,8.32,0,0,1-3.14-.35,10,10,0,0,1-3.2-1.66A25.63,25.63,0,0,1,115.92,135.05Zm10.44.9c-.85-1-1.66-2.21-2.47-3.27s-1.62-2.08-2.39-3.06a3.93,3.93,0,0,1,1.42-.75,4.53,4.53,0,0,1,2.42-.13,5.73,5.73,0,0,1,2.6,1.39,18,18,0,0,1,2.7,2.74,35.76,35.76,0,0,1,2.3,3.3,25,25,0,0,0,2,2.88,12.62,12.62,0,0,0,2,2,16.35,16.35,0,0,1-2.25-.19,12.89,12.89,0,0,1-2.95-.79,10.75,10.75,0,0,1-2.84-1.57A18,18,0,0,1,126.36,136Zm8.84.08c-.88-1.23-1.8-2.7-2.45-3.63a15.42,15.42,0,0,0-1.31-1.78c-.35-.39-.67-.65-1-1a5.07,5.07,0,0,1,1.71-.62,4.1,4.1,0,0,1,2.59.58,13.08,13.08,0,0,1,3.15,2.72c1.13,1.2,2.3,2.57,3.31,3.72a28.6,28.6,0,0,0,2.66,2.7,13.5,13.5,0,0,0,2.1,1.41c.6.31,1.16.55,1.72.82a15.36,15.36,0,0,1-2.64.49,10.75,10.75,0,0,1-3.51-.33,10.17,10.17,0,0,1-3.51-1.88A16.56,16.56,0,0,1,135.2,136ZM147,143.46a11,11,0,0,1,2.8.38,9.43,9.43,0,0,1,2.78,1.15,25.41,25.41,0,0,1,2.72,2.21c.94.87,2,1.77,2.75,2.38a16,16,0,0,0,2,1.28,11.42,11.42,0,0,1-2.54.91,8.32,8.32,0,0,1-3.52-.13,10.46,10.46,0,0,1-3.67-1.89,21.64,21.64,0,0,1-3.26-3.14c-.93-1.06-1.71-2-2.48-3A15.8,15.8,0,0,1,147,143.46Zm11,4.24c-1-.86-1.88-1.85-2.71-2.58a11.32,11.32,0,0,0-2-1.53c-.52-.35-.84-.53-1.16-.71,1-.11,2-.23,2.84-.35a12.63,12.63,0,0,1,2.48-.38,6,6,0,0,1,2.79.74,17.92,17.92,0,0,1,3.24,2.45c1.11,1,2.24,2.07,3.11,2.8a9.11,9.11,0,0,0,1.79,1.19c.4.19.6.28.84.37-.75.25-1.5.46-2.33.67a8.74,8.74,0,0,1-2.67.2,9.57,9.57,0,0,1-3.23-.85A12.66,12.66,0,0,1,158,147.7Zm.78-8.85a8.66,8.66,0,0,1-3.24-1.62,28.38,28.38,0,0,1-3.33-3.23c-1.13-1.24-2.22-2.56-3.24-3.5a16.92,16.92,0,0,0-2.85-2.1,7.71,7.71,0,0,1,1.7-.37,8,8,0,0,1,2.62.12,10,10,0,0,1,3.18,1.17,20.16,20.16,0,0,1,3.43,2.66c1.14,1,2.23,2.27,3.21,3.26a24.85,24.85,0,0,0,2.67,2.42,16.77,16.77,0,0,0,2.43,1.42,21.74,21.74,0,0,1-3,.23A14.77,14.77,0,0,1,158.78,138.85Zm6.36-2a8.75,8.75,0,0,1-2.19-1.37,23.53,23.53,0,0,1-2.39-2.28c-.81-.94-1.67-2-2.41-2.82s-1.4-1.41-2.07-2a11,11,0,0,1,2.18-.22,7.71,7.71,0,0,1,2.76.62,9.73,9.73,0,0,1,2.7,1.68,29,29,0,0,1,2.6,2.29,28.71,28.71,0,0,0,2.75,2.38,18.15,18.15,0,0,0,2.67,1.55,8.09,8.09,0,0,1-1.58.59,8.63,8.63,0,0,1-2.43.21A9.08,9.08,0,0,1,165.14,136.82Zm4.8-3.71a22.38,22.38,0,0,1-2.38-2.4c-.74-.77-1.41-1.42-2-1.94a13.6,13.6,0,0,0-1.63-1.09,9.68,9.68,0,0,1,2.58-.87,7,7,0,0,1,3,.1,7.48,7.48,0,0,1,3.24,1.63c1.22,1,2.63,2.37,3.73,3.41a14,14,0,0,0,2.69,2,10,10,0,0,0,1.56.73,10.41,10.41,0,0,1-2.12.76,9.47,9.47,0,0,1-2.75.16,10.75,10.75,0,0,1-5.95-2.45Zm-1.84-9.58a4.86,4.86,0,0,1,1.3-.8,5.14,5.14,0,0,1,2.11-.31,9.9,9.9,0,0,1,2.31.48,10.67,10.67,0,0,1,1.25.51c-.54.09-1.12.15-1.57.25a6,6,0,0,0-1.17.36c-.37.1-.71.29-1.08.43-.32-.13-.64-.27-1-.41a11.28,11.28,0,0,0-1.13-.34C168.75,123.6,168.42,123.59,168.1,123.53Zm12.12,8.8a26.47,26.47,0,0,1-3.32-2.62c-1-1-1.83-2-2.46-2.65s-1-1-1.41-1.37a8.19,8.19,0,0,1,2.33-.72,10.25,10.25,0,0,1,3.15.11,8.86,8.86,0,0,1,3.1,1.13,36.84,36.84,0,0,1,3.17,2.28,21.29,21.29,0,0,0,2.82,1.81,14.15,14.15,0,0,0,2.25,1,8.37,8.37,0,0,1-1.24,1.17,6.34,6.34,0,0,1-2.19,1.13,7.46,7.46,0,0,1-3,.06A10,10,0,0,1,180.22,132.33Zm.42-9.89a8.85,8.85,0,0,1-2.31.34,7.54,7.54,0,0,1-2.32-.35,12.6,12.6,0,0,1-2-.75c-.52-.23-.8-.37-1.12-.54a17.59,17.59,0,0,1,2.66-.86,9.36,9.36,0,0,1,2.79-.12,11.65,11.65,0,0,1,2.55.7c.76.32,1.36.59,2,.87C182.13,122,181.38,122.27,180.64,122.44Zm-2.85-5.62a11.53,11.53,0,0,0-1.36,1.08,5.54,5.54,0,0,0-.74.87,16.28,16.28,0,0,0-2.28.59,13.93,13.93,0,0,0-2,1,5.63,5.63,0,0,0-.85.66,9,9,0,0,0-1.46.5,8.34,8.34,0,0,0-1.26.68,11.49,11.49,0,0,0-1.1.85l-1.11.93a3.57,3.57,0,0,0,.44-.63,3.24,3.24,0,0,0,.45-.89,3.66,3.66,0,0,0,.24-.8,20.55,20.55,0,0,0,1.85-.9,9.15,9.15,0,0,0,1.87-1.42,7.86,7.86,0,0,0,1.35-1.91,6.76,6.76,0,0,0,.58-1.73c.1-.53.17-1,.23-1.42.26-.28.52-.59.77-.87a9.52,9.52,0,0,0,1.14.26,13,13,0,0,0,1.3.1c.46,0,.91-.08,1.36-.14.27.38.54.8.85,1.23s.61.85,1,1.31A11.58,11.58,0,0,0,177.79,116.82Zm1.34-4.28a18.57,18.57,0,0,1-2-3.28c-.64-1.3-1.11-2.63-1.58-3.88s-1-2.34-1.29-3.13-.64-1.22-.86-1.68a10.83,10.83,0,0,1,2.15.35,7.56,7.56,0,0,1,2.8,1.44,9.71,9.71,0,0,1,2.36,3,11.07,11.07,0,0,1,1.1,3.49,10.51,10.51,0,0,1,0,3.36,5.26,5.26,0,0,1-1,2A15.47,15.47,0,0,1,179.13,112.54ZM173,96.21c.69,1,1.31,1.74,1.89,2.51a32.41,32.41,0,0,1-3.79-1.41,11.91,11.91,0,0,1-2.94-1.81,13.65,13.65,0,0,1-2.11-2.19c-.62-.85-1.19-1.81-1.8-2.79a9.24,9.24,0,0,1,1.44-.13,6.24,6.24,0,0,1,2.44.52,7.75,7.75,0,0,1,2.52,2.17C171.48,94.05,172.33,95.24,173,96.21Zm-8.8-2.66c.42.59.93,1.15,1.39,1.7a8.67,8.67,0,0,0-1,0,11,11,0,0,0-1.15,0,6.75,6.75,0,0,0-.91-.65c-.4-.27-.92-.54-1.36-.84a6.88,6.88,0,0,1-1.37-1.3c-.58-.64-1.32-1.57-2.05-2.55a17.33,17.33,0,0,0,2.18.68,16.83,16.83,0,0,1,1.9.42,2.05,2.05,0,0,1,1.24.83C163.45,92.29,163.79,93,164.22,93.55Zm-6.39-1.77c.35.42.66.81,1,1.23-.24-.05-.48-.06-.73-.11l-.69,0-.53,0c-.36-.31-.67-.65-1.06-1a7.13,7.13,0,0,0-1.15-.92c-.35-.26-.63-.39-.91-.57l.7-.09a7.7,7.7,0,0,0,.91-.25,5.19,5.19,0,0,0,.83-.24c.23.25.47.55.78.89S157.52,91.39,157.83,91.78Zm-3.66,2.08a7.7,7.7,0,0,1,2.35,2.24,20.36,20.36,0,0,1,1.8,3.48c.52,1.25,1,2.46,1.43,3.58s1.09,2.22,1.65,3.28a6.21,6.21,0,0,1-1.63-.16,6.66,6.66,0,0,1-2.36-1.09,15.46,15.46,0,0,1-2.78-2.92A30.76,30.76,0,0,1,152,97.89c-.82-1.63-1.56-3.43-2.25-5.22a18.79,18.79,0,0,1,2.07.3A7.25,7.25,0,0,1,154.17,93.86Zm-4.51,4.37c.73,1.18,1.45,2.32,2.07,3.13a14.74,14.74,0,0,0,1.51,1.87,3.28,3.28,0,0,1-1.31,0,7.4,7.4,0,0,1-2.46-.81,12.42,12.42,0,0,1-3-2.51c-1.05-1.16-2.17-2.64-3.09-3.83S141.71,93.93,141,93a7.37,7.37,0,0,1,1.94-.4,6.16,6.16,0,0,1,2.52.48,4.93,4.93,0,0,1,2.09,1.78C148.22,95.79,148.9,97.05,149.66,98.23Zm-3.68-8a7.58,7.58,0,0,1-2.67.25,11.84,11.84,0,0,1-3.64-1,19.77,19.77,0,0,1-3.79-2.27c-1.34-1-2.88-2.26-4.35-3.27a37.33,37.33,0,0,0-4.1-2.48,5.51,5.51,0,0,1,1.69-1.11,10.32,10.32,0,0,1,2.6-.41,6.2,6.2,0,0,1,2.44.32,13,13,0,0,1,3.28,1.62,26.24,26.24,0,0,1,3.31,2.9c1.06,1,2,2.06,2.94,2.8A12.79,12.79,0,0,0,146,89.18a10.42,10.42,0,0,0,1.37.55A7.28,7.28,0,0,1,146,90.28Zm-15.11-4.43c1.47,1.05,2.49,2,3.44,2.74a19.94,19.94,0,0,0,2.58,1.64,9.69,9.69,0,0,0,1.57.69c-1.48.13-3,.27-4.23.25a10.71,10.71,0,0,1-3.26-.52,11.2,11.2,0,0,1-2.76-1.28,18.7,18.7,0,0,1-2.34-1.71l-2.29-1.86c-.79-.61-1.62-1.22-2.45-1.75a21.35,21.35,0,0,0-2.44-1.22,10.38,10.38,0,0,1,1.13-.65,5.29,5.29,0,0,1,1.33-.47,6.61,6.61,0,0,1,2,0,8.62,8.62,0,0,1,3,1.13A40.65,40.65,0,0,1,130.87,85.85Zm-11.44-.53a20.25,20.25,0,0,1,3.49,2.53c.94.78,1.61,1.43,2.32,2a10.68,10.68,0,0,0,2.15,1.37,14.1,14.1,0,0,0,1.92.83c-.74.13-1.48.26-2.39.34a10.24,10.24,0,0,1-3.23,0A11.47,11.47,0,0,1,120.06,91a27.34,27.34,0,0,1-3.53-2.3c-1.11-.79-2.1-1.61-2.85-2.14a8.77,8.77,0,0,0-2-1.15,12.81,12.81,0,0,0-1.74-.49,6.62,6.62,0,0,1,1.91-.69,13,13,0,0,1,3.57-.16A11,11,0,0,1,119.43,85.32Zm-6.68,2.76c1.07.66,2,1.4,3,2.19A26.32,26.32,0,0,0,119,92.34a15.64,15.64,0,0,0,2.57,1.06,4.81,4.81,0,0,1-1.59.75,11.18,11.18,0,0,1-3.25.29,13.21,13.21,0,0,1-4.22-.77,23.11,23.11,0,0,1-4.17-2c-1.2-.67-2.15-1.33-3.07-1.86a17.87,17.87,0,0,0-2.4-1.1,6.82,6.82,0,0,0-1.54-.36,8.55,8.55,0,0,1,1.78-1.31,7.54,7.54,0,0,1,2.74-.85,8.52,8.52,0,0,1,3.35.28A13.91,13.91,0,0,1,112.75,88.08Zm-8.06,3.3c1.24.63,2.43,1.39,3.35,2a21.41,21.41,0,0,0,2.15,1.25,15.79,15.79,0,0,0,1.77.65,4.74,4.74,0,0,1-1.53,1.32,10,10,0,0,1-3.32.83,15.75,15.75,0,0,1-4.32-.33,30.43,30.43,0,0,1-4.89-1.41c-1.61-.61-3.06-1.29-4.14-1.71a13.58,13.58,0,0,0-2.63-.69,11.08,11.08,0,0,1,2.43-2.14A9.37,9.37,0,0,1,96.93,90a12.38,12.38,0,0,1,3.93.14A14.54,14.54,0,0,1,104.69,91.38ZM93.34,95.84c1.37.48,3,1.17,4.26,1.68a32.14,32.14,0,0,0,3.19,1.09c.85.2,1.62.32,2.4.44a19.52,19.52,0,0,1-1.85.94,16.61,16.61,0,0,1-3,1,16.18,16.18,0,0,1-4,.47,12.43,12.43,0,0,1-3.69-.75c-1.25-.42-2.54-.93-3.92-1.25A14.42,14.42,0,0,0,82.87,99a10.41,10.41,0,0,0-2.68.53,9.35,9.35,0,0,1,1.87-2.49,8.94,8.94,0,0,1,3.41-1.85,11.89,11.89,0,0,1,4.1-.22A16.17,16.17,0,0,1,93.34,95.84ZM82.13,101a7.11,7.11,0,0,1,2.87-.07,37.2,37.2,0,0,1,3.64.91c1.21.3,2.3.6,3.12.76a14.76,14.76,0,0,0,1.91.33,10,10,0,0,1-2,1.63,8.26,8.26,0,0,1-3.21,1.28,12.55,12.55,0,0,1-3.48-.08,26.65,26.65,0,0,0-2.72-.41,9.78,9.78,0,0,0-2.14.26,6.84,6.84,0,0,0-1.38.64,8.9,8.9,0,0,1,.21-2,5.17,5.17,0,0,1,1.12-2.08A4,4,0,0,1,82.13,101Zm-3.44,14a35.06,35.06,0,0,1-.23,4c-.14,1.31-.33,2.57-.46,3.75a22.07,22.07,0,0,0-.12,3.27,12,12,0,0,0,.51,2.4c-.61-.2-1.22-.35-1.86-.62a6.49,6.49,0,0,1-2.07-1.17,6.05,6.05,0,0,1-1.58-2.07,4.73,4.73,0,0,1-.42-2.48,9.2,9.2,0,0,1,.62-2.88,13.1,13.1,0,0,1,1.6-2.54c.57-.83,1.22-1.62,1.7-2.21s.79-1.07,1.09-1.51.62-1,.89-1.51A29.81,29.81,0,0,1,78.69,115Zm-1.93-4.22A10.13,10.13,0,0,1,75.17,114c-.7,1.07-1.61,2.05-2.36,3.16a16.19,16.19,0,0,0-1.67,3.24,9.19,9.19,0,0,0-.47,2.23,14.22,14.22,0,0,1-1.86-2.21,5.58,5.58,0,0,1-1.06-2.76,6.85,6.85,0,0,1,.38-2.88,6.61,6.61,0,0,1,1.17-2.16,9.44,9.44,0,0,1,1.92-1.71c.76-.54,1.6-1,2.37-1.53a13.07,13.07,0,0,0,1.92-1.67c.51-.55.91-1.1,1.3-1.61.06.57.15,1.15.2,1.93A8.33,8.33,0,0,1,76.76,110.75Zm-8.69,11.5c.42.6,1,1.15,1.47,1.75A10.76,10.76,0,0,1,71,126.07a20.93,20.93,0,0,1,1.25,3.17c.39,1.25.89,2.74,1.29,3.83a23.89,23.89,0,0,0,1,2.38l-1.85-1.77a20.91,20.91,0,0,1-2.1-2.22,19.61,19.61,0,0,1-2.15-3.13,12.8,12.8,0,0,1-1.14-3.58,42.74,42.74,0,0,1-.34-4.27A15.62,15.62,0,0,0,68.07,122.25Zm5.46,5.83A10.14,10.14,0,0,0,75,129c.64.32,1.49.65,2.28,1.13a7.32,7.32,0,0,1,2.28,2,21.51,21.51,0,0,1,1.93,3.49c.59,1.3,1.22,2.68,1.79,3.77a29.73,29.73,0,0,0,1.6,2.57,27.71,27.71,0,0,1-4.12-2.16,11.07,11.07,0,0,1-3.29-3.22A26.53,26.53,0,0,1,75.15,132C74.52,130.54,74,129.33,73.53,128.08ZM84,136.14c-.56-1.26-1.05-2.22-1.49-3.22.65.11,1.34.26,2,.38a5.86,5.86,0,0,1,2,.46,6.68,6.68,0,0,1,2.12,2c.74.93,1.58,2.24,2.49,3.64s1.83,3,2.64,4.13A34.91,34.91,0,0,0,96,146.36a34.83,34.83,0,0,1-3.67-1.2,16.07,16.07,0,0,1-3.59-2A12.07,12.07,0,0,1,86,140,29.43,29.43,0,0,1,84,136.14Zm9.9,4.47c-1.07-1.56-2.06-3.17-3-4.77a11.74,11.74,0,0,0,1.76.78c.77.24,1.82.54,2.87,1a12.72,12.72,0,0,1,2.91,1.73,13.21,13.21,0,0,1,2.42,2.57c.68,1,1.33,2.19,2,3.32s1.25,2.23,1.85,3.32a10.66,10.66,0,0,1-2.82-.13,7.82,7.82,0,0,1-2.56-1.18A11.86,11.86,0,0,1,97,144.85,50.88,50.88,0,0,1,93.91,140.61Zm10,3.29c-.91-1.43-1.91-2.83-2.87-4.23.56.19,1.13.42,1.77.58s1.34.31,2.07.42a4.8,4.8,0,0,1,2.22.76,12.87,12.87,0,0,1,2.3,2.61c.76,1.09,1.6,2.36,2.42,3.38s1.51,1.87,2.24,2.73c-.73,0-1.47,0-2.29,0a10.1,10.1,0,0,1-2.64-.41,6,6,0,0,1-2.57-1.92A39.41,39.41,0,0,1,103.87,143.9Zm8.11.95c-.92-1.31-1.69-2.41-2.46-3.47.81.12,1.63.28,2.4.4a15.66,15.66,0,0,1,2.31.44,5.78,5.78,0,0,1,2.32,1.21,14.17,14.17,0,0,1,2.53,2.74c.85,1.1,1.66,2.33,2.27,3.17a22.78,22.78,0,0,0,1.35,1.87c-.66,0-1.35,0-2.21-.06a11.9,11.9,0,0,1-2.76-.54,6.58,6.58,0,0,1-2.74-1.85A42.1,42.1,0,0,1,112,144.85ZM122.4,148c-.74-1-1.46-2.11-2.27-3.13s-1.72-2-2.57-2.95c.62,0,1.27,0,1.88,0a16.74,16.74,0,0,1,2,.18,7.47,7.47,0,0,1,2.34.88,11.29,11.29,0,0,1,2.32,1.95,31.16,31.16,0,0,1,1.94,2.47c.65.89,1.38,1.78,2,2.51a14,14,0,0,0,1.85,1.6,23.8,23.8,0,0,1-4,.26,6,6,0,0,1-3.15-1A12.39,12.39,0,0,1,122.4,148Zm9.26.76a34.25,34.25,0,0,1-2.75-3.36c-.85-1.1-1.47-2-2.12-2.92a18,18,0,0,1,2.83-.12,8.91,8.91,0,0,1,3.37.73,10,10,0,0,1,2.82,2.59c1,1.11,2.18,2.52,3.11,3.5a18.67,18.67,0,0,0,2.32,2.16,16.11,16.11,0,0,1-3.25.34,7.67,7.67,0,0,1-3.45-.66A8.59,8.59,0,0,1,131.66,148.8Zm7.66-1.93c-1.13-1.16-2.1-2.35-3.11-3.59.9.05,1.8.05,2.7.09a8.18,8.18,0,0,1,2.92.55,8.43,8.43,0,0,1,2.82,2.09,31.08,31.08,0,0,1,2.23,2.93,21.21,21.21,0,0,0,2,2.22,12.57,12.57,0,0,0,1.58,1.14,9.41,9.41,0,0,1-1.68,0,13.75,13.75,0,0,1-2.84-.55A11.3,11.3,0,0,1,142.7,150,28.14,28.14,0,0,1,139.32,146.87ZM152.05,154c.9,0,2,0,2.79,0s1.52-.13,2.14-.23c.2.13.35.26.75.49s.92.53,1.44.8,1,.38,1.49.56a8.69,8.69,0,0,1-1.88.85,6.93,6.93,0,0,1-2.35.3,8.07,8.07,0,0,1-2.44-.48,11,11,0,0,1-2.28-1.05c-.72-.4-1.47-.88-2.23-1.37A25.12,25.12,0,0,0,152.05,154Zm6.92-.78a8.58,8.58,0,0,0,1.46-.63,15.08,15.08,0,0,0,1.4-.91,10.56,10.56,0,0,0,1.58.23c.53,0,1.11,0,1.68,0,.44.22.84.45,1.28.63s.81.33,1.17.47c-.71.37-1.43.75-2.14,1a6.61,6.61,0,0,1-2.19.39,6,6,0,0,1-2.27-.31A10.61,10.61,0,0,1,159,153.23Zm7.7-1.69c.49-.1,1-.2,1.48-.34a14.86,14.86,0,0,0,1.5-.54c.42-.19.68-.34,1-.49.57.07,1.14.14,1.67.16a15.72,15.72,0,0,0,1.6-.09c.5-.1.91-.16,1.37-.26-.39.27-.77.58-1.32.92a9.11,9.11,0,0,1-2.05,1,6.63,6.63,0,0,1-2.35.34,8.3,8.3,0,0,1-1.91-.33C167.19,151.77,167,151.64,166.67,151.54Zm6.91-2.62a7.12,7.12,0,0,1-2.68-.37,10.84,10.84,0,0,1-3-1.58,31.33,31.33,0,0,1-3.27-2.73c-1.06-1-2-1.81-2.82-2.67a13.89,13.89,0,0,0,2.25.07c.78,0,1.6-.22,2.38-.22a3.91,3.91,0,0,1,2.19.47,13,13,0,0,1,2.34,1.58c.71.61,1.3,1.21,2,1.78a15.5,15.5,0,0,0,2.34,1.62,19.25,19.25,0,0,0,2.21.92,9.43,9.43,0,0,1-1.59.75A7.77,7.77,0,0,1,173.58,148.92Zm3.19-3.33a19.41,19.41,0,0,1-3.38-2.08c-1.31-1-2.84-2.26-4.38-3.52a15.83,15.83,0,0,0,2.06-.4c.79-.17,1.66-.45,2.44-.54a4,4,0,0,1,2.24.43,16.28,16.28,0,0,1,2.33,1.75,19.56,19.56,0,0,0,2.54,1.84A9.87,9.87,0,0,0,183,144a8.54,8.54,0,0,0,1.67.2,9.48,9.48,0,0,1-2.24,1.45,6.56,6.56,0,0,1-5.65-.06Zm4.81-4A12.52,12.52,0,0,1,179,139.8a26,26,0,0,1-2-2,14.43,14.43,0,0,1,1.41-.39,14.67,14.67,0,0,1,2.48-.41,12.68,12.68,0,0,1,3.07.1,7.54,7.54,0,0,1,2.65,1.07,23.23,23.23,0,0,1,2.13,1.65,13.16,13.16,0,0,0,1.59,1c.41.18.65.27.89.36a10.6,10.6,0,0,1-2.68,1.31,8.83,8.83,0,0,1-3.5.29A9.52,9.52,0,0,1,181.58,141.64Zm7.59-3.74a21.63,21.63,0,0,0-1.95-1.28,10.77,10.77,0,0,0-1.89-.7c-.57-.11-1-.17-1.46-.23a16.92,16.92,0,0,0,3.13-.47c1-.28,2-.77,2.84-1.05a7.15,7.15,0,0,1,2.31-.43,6.47,6.47,0,0,1,2.19.39c.65.19,1.21.51,1.77.7a8.38,8.38,0,0,0,1.34.35,4.25,4.25,0,0,0,.45.06,4.38,4.38,0,0,1-.32,1.54,3.79,3.79,0,0,1-1.22,1.54,4.49,4.49,0,0,1-2.1,1.05,5.79,5.79,0,0,1-2.73-.21A9.68,9.68,0,0,1,189.17,137.9Zm1.79-8.51a12.34,12.34,0,0,1-3.28-1.71,26.16,26.16,0,0,1-2.21-1.7c-.71-.57-1.51-1.09-2.3-1.66a11.18,11.18,0,0,1,1.27-.84,7,7,0,0,1,2.2-.64,6.61,6.61,0,0,1,3.46.41,29.93,29.93,0,0,1,4.11,2.4,22.62,22.62,0,0,0,2.95,1.61,21.13,21.13,0,0,0,2.34.81c-.76.41-1.52.87-2.31,1.2a8.32,8.32,0,0,1-2.73.61A9.83,9.83,0,0,1,191,129.39ZM189.6,120a11.38,11.38,0,0,1-2.37.79,7.24,7.24,0,0,1-2.5,0,9.57,9.57,0,0,1-2.22-.8c-.72-.32-1.36-.64-2-.87a11.28,11.28,0,0,0-2.07-.39,11.79,11.79,0,0,1,1.9-1,7.34,7.34,0,0,1,2.52-.58,10.18,10.18,0,0,1,2.93.42c1,.25,1.85.62,2.62.86a11,11,0,0,0,2,.42c.53.06.94,0,1.39.07C191,119.28,190.31,119.66,189.6,120Zm.94-2.53a30.54,30.54,0,0,1-3.12-.93,20.19,20.19,0,0,0-2.38-.6,20,20,0,0,0-2.08-.18,19.11,19.11,0,0,1,2.43-1.23,13,13,0,0,1,2.69-.7,14.85,14.85,0,0,1,3,.06c1.14.14,2.48.36,3.62.5a15.71,15.71,0,0,0,2.83,0,16.23,16.23,0,0,0,2-.48,7.69,7.69,0,0,1-1.19,1.74,7.16,7.16,0,0,1-2.07,1.3,7.81,7.81,0,0,1-2.57.66A10.5,10.5,0,0,1,190.54,117.46Zm8.26-5.06a4.92,4.92,0,0,1-2.44.42c-1,0-2.2-.15-3.42-.29s-2.33-.27-3.39-.28-2,.07-3,.15A11.73,11.73,0,0,1,188,111,6.37,6.37,0,0,1,190,109.9a9.26,9.26,0,0,1,2.56-.5c1.07-.11,2.42-.09,3.69-.19a17.69,17.69,0,0,0,3.22-.55,7.54,7.54,0,0,0,2.05-.93,3.83,3.83,0,0,1-.09,1.19,5.88,5.88,0,0,1-.75,2A4.4,4.4,0,0,1,198.8,112.4ZM202.57,100a3.57,3.57,0,0,1,.72,1.26,3.92,3.92,0,0,1,0,2.21,4.7,4.7,0,0,1-1.33,2.19,6.67,6.67,0,0,1-2.32,1.37,12.83,12.83,0,0,1-3.1.63c-1,.08-1.88,0-2.74.08a20.54,20.54,0,0,0-2.22.18,12.57,12.57,0,0,0-1.33.26,11.41,11.41,0,0,1,1.69-2,16.57,16.57,0,0,1,2.67-1.8c1-.49,1.92-.89,2.92-1.3s2-.81,2.76-1.18a7.76,7.76,0,0,0,1.57-1.15A4.43,4.43,0,0,0,202.57,100ZM199.7,94.8a8.42,8.42,0,0,0,.73-1.56,3.62,3.62,0,0,1,1.17,1.32,4.16,4.16,0,0,1,.47,2.19,4.35,4.35,0,0,1-.63,2.14,5.55,5.55,0,0,1-1.81,1.8,13.58,13.58,0,0,1-2.76,1.3c-1,.37-2,.69-2.83.94a15.92,15.92,0,0,0-1.62.57,6.39,6.39,0,0,0-1,.49,8,8,0,0,1,1.35-2.56,17,17,0,0,1,2.86-2.61c1-.85,2-1.62,2.69-2.29A9.63,9.63,0,0,0,199.7,94.8Zm-6.79.87a20.48,20.48,0,0,0,.83-3.07,28.49,28.49,0,0,0,.43-2.85c.07-.73.09-1.18.11-1.59a5,5,0,0,1,1.35-.06,2.88,2.88,0,0,1,1.49.52,3.27,3.27,0,0,1,1.24,1.53,3.78,3.78,0,0,1,.07,2.17,6.53,6.53,0,0,1-1,2.37,7.2,7.2,0,0,1-1.81,1.89c-.68.58-1.44,1-2.08,1.49s-1.11.93-1.53,1.32-.82.74-1.16,1.1c.23-.61.47-1.25.79-2S192.53,96.63,192.91,95.67Zm-5.67-12a5.6,5.6,0,0,1,2,.25,3.76,3.76,0,0,1,1.71,1.1,5.19,5.19,0,0,1,1,2.26,7.92,7.92,0,0,1-.08,3.44A28.42,28.42,0,0,1,190.4,95c-.47,1.25-.84,2-1.2,2.85a11.79,11.79,0,0,1-1-2.26,17.12,17.12,0,0,1-.74-3.47c-.19-1.24-.29-2.55-.44-3.71a14.17,14.17,0,0,0-.69-2.85,11.76,11.76,0,0,0-.78-1.72A10.92,10.92,0,0,1,187.24,83.62Zm-9-2.59a5.77,5.77,0,0,1,1.56-.09,3.72,3.72,0,0,1,1.9.66,6.85,6.85,0,0,1,1.91,2,9.82,9.82,0,0,1,1.29,3,19.82,19.82,0,0,1,.62,3.55c.15,1.15.22,2.3.38,3.21s.29,1.69.42,2.43a11.77,11.77,0,0,1-2.59-1.67,12.43,12.43,0,0,1-2.48-3,19.25,19.25,0,0,1-1.66-3.8c-.44-1.25-.67-2.32-.92-3.19a13,13,0,0,0-.77-1.88,4.32,4.32,0,0,0-.53-.93C177.65,81.24,177.86,81.13,178.27,81Zm-9.59-1.56a5.71,5.71,0,0,1,1.46-.46,4.32,4.32,0,0,1,2,0,6.18,6.18,0,0,1,2.32,1.21,9,9,0,0,1,2.09,2.6,19.59,19.59,0,0,1,1.35,3.5c.39,1.29.82,2.66,1.18,3.66a13.23,13.23,0,0,0,1.13,2.14,18.4,18.4,0,0,1-2.64-1.35,11,11,0,0,1-2.92-2.39c-.89-1-1.61-2.21-2.46-3.35a37.39,37.39,0,0,0-2.48-3.15c-.74-.81-1.28-1.41-1.83-2A4.59,4.59,0,0,1,168.68,79.47Zm-9-.34a5.63,5.63,0,0,1,2.11-.47,5.05,5.05,0,0,1,2.55.69,18.92,18.92,0,0,1,3.2,2.53,32.55,32.55,0,0,1,2.83,3.32c.84,1.23,1.68,2.53,2.38,3.43a10.45,10.45,0,0,0,1.88,1.89c-.86-.09-1.68-.16-2.69-.33a16.46,16.46,0,0,1-3.39-1.11,16.92,16.92,0,0,1-3.58-2.33A31.2,31.2,0,0,1,162.16,84a35,35,0,0,0-2.55-2.41,21.34,21.34,0,0,0-1.69-1.43A12.54,12.54,0,0,1,159.65,79.13Zm-11.44-.65a8,8,0,0,1,2.14-.27,7.39,7.39,0,0,1,2.72.66A20.93,20.93,0,0,1,156.33,81a28.88,28.88,0,0,1,2.83,2.51c.94.9,2,2,2.85,2.84s1.73,1.55,2.56,2.2a18.72,18.72,0,0,1-2.42.18,16.13,16.13,0,0,1-3.06-.31,10.13,10.13,0,0,1-2.85-1.16,16.66,16.66,0,0,1-3-2.19,27.68,27.68,0,0,1-2.43-2.4c-.74-.73-1.49-1.42-2.2-2s-1.47-1-2.18-1.45A12.49,12.49,0,0,1,148.21,78.48ZM146.13,81a17.78,17.78,0,0,1,3.16,2.48c.86.86,1.56,1.67,2.27,2.36a18.44,18.44,0,0,0,2,1.73c.56.39.88.57,1.23.79a12.32,12.32,0,0,1-2.26.34,11.73,11.73,0,0,1-3.35-.23,11.6,11.6,0,0,1-3.65-1.61,22.35,22.35,0,0,1-3.39-2.77c-1.06-1-2.12-2-2.91-2.68a9.28,9.28,0,0,0-1.74-1.22,8,8,0,0,1,1.82-.57,10.46,10.46,0,0,1,3.11,0A12.19,12.19,0,0,1,146.13,81Zm-8.27-4.44a5.75,5.75,0,0,1,1.64-.09,5.89,5.89,0,0,1,1.46.36c.48.22,1,.49,1.36.71s.67.49,1,.75c-.65-.11-1.26-.27-1.95-.34a12.73,12.73,0,0,0-2.13-.06,8.42,8.42,0,0,0-1.57.3c-.51-.39-1.07-.79-1.58-1.14A8.38,8.38,0,0,1,137.86,76.52Zm-9.93-.42a7.54,7.54,0,0,1,2.47-.22,9.58,9.58,0,0,1,2.5.69,23.57,23.57,0,0,1,2.16,1.13c.6.35,1,.62,1.35.88a11.79,11.79,0,0,1-1.33.51c-.69-.15-1.34-.31-2.07-.42a19.78,19.78,0,0,0-2.16-.19,13.81,13.81,0,0,0-1.61.13l-3-1.86A7.36,7.36,0,0,1,127.93,76.1Zm-8.64-.16a4.7,4.7,0,0,1,1.84.08,12.52,12.52,0,0,1,2.66,1,36.38,36.38,0,0,1,3.75,2.1c-.37.14-.75.33-1.13.52s-.68.42-1,.65l-3-1.58c-1.24-.67-2.88-1.52-4.56-2.42A10,10,0,0,1,119.29,75.94Zm-8.87-.38a3.26,3.26,0,0,1,2.06-.11,14.85,14.85,0,0,1,3.34,1.35c1.43.76,3.23,1.83,5,2.85-.33.07-.7.17-1.2.32a11.57,11.57,0,0,0-1.5.58,5.12,5.12,0,0,0-1.06.61c-1.58-1.06-3.21-2.16-4.49-3s-2.23-1.33-3.18-1.86A3.36,3.36,0,0,1,110.42,75.56Zm-7.68,1.53a3.38,3.38,0,0,1,1.78-.45,10.21,10.21,0,0,1,3.16.72,25,25,0,0,1,3.72,1.93c1.27.76,2.55,1.56,3.82,2.31l-.92.45c-.45,0-.86,0-1.31,0a6.92,6.92,0,0,0-1.39.06,8.15,8.15,0,0,0-1.16.15c-.56-.27-1.16-.55-2.12-1s-2.36-1.3-3.52-1.89-2-1-2.92-1.4A4,4,0,0,1,102.74,77.09Zm-8,1.38a4.42,4.42,0,0,1,1.7-.61,5.84,5.84,0,0,1,2,.21c.73.24,1.53.61,2.49,1s2,1,2.93,1.41,1.47.84,2,1.16,1.08.54,1.6.77a4.63,4.63,0,0,1-1.35.87,6.78,6.78,0,0,1-2.27.51,7.81,7.81,0,0,1-2.36-.35,17.16,17.16,0,0,1-3.1-1.25c-1.28-.68-3-1.66-4.66-2.68A3.16,3.16,0,0,1,94.69,78.47Zm-7.53,2.35A4.07,4.07,0,0,1,88.88,80a4.7,4.7,0,0,1,2.53.28A24.83,24.83,0,0,1,94.76,82c1.16.66,2.2,1.29,3.16,1.74a30,30,0,0,0,2.89,1.12A19.71,19.71,0,0,1,97.57,86a8,8,0,0,1-3.12.06,8.94,8.94,0,0,1-3-1.16c-1.08-.58-2.32-1.38-3.23-2a21,21,0,0,0-2.12-1.07A8.61,8.61,0,0,1,87.16,80.82Zm-8.59,3.32a4.58,4.58,0,0,1,1.53-1,6.76,6.76,0,0,1,2.47-.33,7.91,7.91,0,0,1,2.52.44,13.23,13.23,0,0,1,2.64,1.35c1,.58,2.06,1.33,3.1,1.91a27.89,27.89,0,0,0,3,1.37,9.13,9.13,0,0,1-2.13,1,6.9,6.9,0,0,1-2.64.25,11.13,11.13,0,0,1-2.87-.71,30.78,30.78,0,0,1-3-1.45c-1-.54-2.07-1.08-2.92-1.45A17.92,17.92,0,0,0,78,84.81,4.64,4.64,0,0,1,78.57,84.14ZM71,88.66A6.37,6.37,0,0,1,73.32,87a8.06,8.06,0,0,1,2.73-.53,8.87,8.87,0,0,1,2.52.33,15.13,15.13,0,0,1,3,1.16c1.08.54,2.28,1.21,3.32,1.67a20.22,20.22,0,0,0,2.86,1.07,19.52,19.52,0,0,1-2.12,1.5,5.73,5.73,0,0,1-2.42.83,9,9,0,0,1-3.59-.25c-1.37-.35-2.9-1-4.15-1.42a14.48,14.48,0,0,0-3.2-.73,20.74,20.74,0,0,0-2.17-.06A6,6,0,0,1,71,88.66Zm-7,7.41a4.93,4.93,0,0,1,1.59-2.5,4.86,4.86,0,0,1,2.63-1.06,11.84,11.84,0,0,1,3.52,0,23.14,23.14,0,0,1,3.76,1c1.17.42,2.18.84,3.06,1.13a22,22,0,0,0,2.47.6,6.35,6.35,0,0,1-1.3.72,8.14,8.14,0,0,1-2.73.69c-1.2.11-2.67,0-4.18,0a19,19,0,0,0-4.39.24,8.48,8.48,0,0,0-3.21,1.2,9.21,9.21,0,0,0-1.76,1.68A17.43,17.43,0,0,1,64.05,96.07Zm-.74,7.87A5.92,5.92,0,0,1,65,101.19a8.67,8.67,0,0,1,3.07-1.74,12.75,12.75,0,0,1,3.51-.65c1.23-.11,2.59-.13,3.65-.12s1.89,0,2.66,0a12.24,12.24,0,0,1-2.14,2,26.2,26.2,0,0,1-3.4,1.73c-1.25.51-2.42,1-3.51,1.59a16.25,16.25,0,0,0-2.75,1.88,9.61,9.61,0,0,0-1.56,1.81,14.76,14.76,0,0,0-.76,1.4,8.77,8.77,0,0,1-.71-2.29A6.93,6.93,0,0,1,63.31,103.94Zm-1.79,28.81c0,2,0,4.14,0,6.35-.29-1-.57-1.91-.94-2.83a13.39,13.39,0,0,0-1.23-2.55,16.22,16.22,0,0,0-1.34-2c.18-1.18.32-2.32.53-3.46a19.86,19.86,0,0,1,.8-2.91,7.22,7.22,0,0,1,.9-1.75,40.32,40.32,0,0,1,1,4.05A39.67,39.67,0,0,1,61.52,132.75ZM56.22,120a12.47,12.47,0,0,0,1.49-2.18,11.1,11.1,0,0,0,1-2.82,18.19,18.19,0,0,0,.31-2.2c.69-.7,1.55-1.52,2.19-2.14a19.52,19.52,0,0,0-.43,2.1,26.15,26.15,0,0,0-.27,3.3c0,1.27.08,2.63.14,3.94-.35.39-.69.79-1.13,1.34a14.28,14.28,0,0,0-1.25,2.15,23.55,23.55,0,0,0-1,3.11c-.21,1.09-.38,2.11-.55,3.13a13.49,13.49,0,0,0-.59-1.42,12.21,12.21,0,0,0-.69-1.06c.15-.65.35-1.29.51-2.1a20.36,20.36,0,0,0,.33-2.73A23.15,23.15,0,0,0,56.22,120Zm-.76-18.78a4.58,4.58,0,0,1,1-1.23,14,14,0,0,1,1.86-1.38,12.56,12.56,0,0,1,2.13-.93c.59-.21,1.09-.35,1.58-.49,0,.65-.1,1.26-.08,1.87s.1,1.24.2,1.86a6.08,6.08,0,0,0-1.19,0,19.54,19.54,0,0,0-2.06.23,23.27,23.27,0,0,0-2.4.55c-.71.21-1.17.43-1.67.61A6.54,6.54,0,0,1,55.46,101.2Zm-5.4,7.6a13.63,13.63,0,0,1,2-2.44,12.23,12.23,0,0,1,7-3.69,21.6,21.6,0,0,1,2.88-.27,10.56,10.56,0,0,0-.47,1.41c-.15.57-.31,1.25-.41,1.74s-.08.86-.14,1.18a22.23,22.23,0,0,0-2.47.21,19.62,19.62,0,0,0-3.1.72,20.46,20.46,0,0,0-2.79,1.06,18.61,18.61,0,0,0-1.85,1c-.51.26-.89.54-1.27.76A6.33,6.33,0,0,1,50.06,108.8Zm-3.91,7.6a6.87,6.87,0,0,1,1.16-2.16,14.74,14.74,0,0,1,2-1.87,15.38,15.38,0,0,1,2.79-1.71,20.77,20.77,0,0,1,4-1.33,29.21,29.21,0,0,1,3.75-.52,16.42,16.42,0,0,1-1.09,1.38,8.21,8.21,0,0,1-1.59,1.6,27.25,27.25,0,0,1-2.8,2.12c-1.14.77-2.49,1.53-3.59,2.29a20.81,20.81,0,0,0-2.76,2,12.32,12.32,0,0,0-1.58,1.56,3.42,3.42,0,0,1-.43-1.33A4.58,4.58,0,0,1,46.15,116.4Zm0,12.65a5.9,5.9,0,0,1-.62-.85,4.7,4.7,0,0,1-.68-2,6.34,6.34,0,0,1,.64-3.12,9.64,9.64,0,0,1,2.1-2.93,16.25,16.25,0,0,1,2.89-2.32c1.06-.65,2.23-1.25,3.28-1.77l2.85-1.42a4.66,4.66,0,0,1,0,1.39,7.12,7.12,0,0,1-.89,2.37,14.25,14.25,0,0,1-2.3,2.76c-.94.94-2,1.79-3,2.73a28.06,28.06,0,0,0-2.59,2.78A22.3,22.3,0,0,0,46.17,129.05Zm1.94,8.44a2.74,2.74,0,0,1-.94-1,4.37,4.37,0,0,1-.56-2.11,7.65,7.65,0,0,1,.6-3.12,16.54,16.54,0,0,1,1.88-3.48c.79-1.11,1.7-2.21,2.66-3.31s2.06-2.2,3.14-3.29a13.45,13.45,0,0,1,0,2.62A17,17,0,0,1,54,127.2a22.05,22.05,0,0,1-1.59,3.37c-.59,1.08-1.29,2.07-1.91,3.06s-1.32,2-1.72,2.66S48.29,137.21,48.11,137.49Zm3.28,6.13a17,17,0,0,0-.53,2.51,3.29,3.29,0,0,1-1.13-.46,3.33,3.33,0,0,1-1.12-1.44,6.72,6.72,0,0,1-.32-2.72,9.57,9.57,0,0,1,1.05-3.19,29.19,29.19,0,0,1,1.86-3c.7-1,1.36-2,1.89-2.86s.85-1.55,1.22-2.27a1.79,1.79,0,0,1,.53.8,5.25,5.25,0,0,1,.35,2.1,10.51,10.51,0,0,1-.77,3.32c-.46,1.21-1.09,2.41-1.68,3.65A29.64,29.64,0,0,0,51.39,143.62Zm4.08,8.17a9.13,9.13,0,0,0-.37,1.78A5.26,5.26,0,0,1,53.45,152a8.14,8.14,0,0,1-1-3.19,15.08,15.08,0,0,1,.29-4.53A20.45,20.45,0,0,1,54.3,140c.55-1.29,1.18-2.4,1.59-3.33a24.89,24.89,0,0,0,1-2.4c.22.54.49,1.08.74,1.83a14.16,14.16,0,0,1,.65,2.78,19.88,19.88,0,0,1-.06,3.84,18.2,18.2,0,0,1-.83,3.69c-.38,1.12-.84,2.25-1.21,3.17A20,20,0,0,0,55.47,151.79Zm7.29-.11c-.26,1.18-.69,2.55-1,3.84s-.57,2.59-.74,3.57a12.83,12.83,0,0,0-.14,2.12c0,.49,0,.7,0,.94a5.5,5.5,0,0,1-2.18-1.62,7.87,7.87,0,0,1-1.5-3.75,13.52,13.52,0,0,1,.18-4.66,28.62,28.62,0,0,1,1.12-4c.47-1.28.95-2.61,1.24-3.75a21.68,21.68,0,0,0,.55-3,31.33,31.33,0,0,1,2,3.7,10.55,10.55,0,0,1,.79,3.35A10,10,0,0,1,62.76,151.68Zm7.74,8.84a12.84,12.84,0,0,1,1.86,3,25.94,25.94,0,0,1,1.38,3.83c.34,1.41.64,3,.82,4.34s.22,2.34.29,3.41c-.24-.06-.44-.07-.73-.16a2.18,2.18,0,0,1-1-.5,6,6,0,0,1-1.55-1.91,20.77,20.77,0,0,1-1.76-4.38,33.7,33.7,0,0,1-1.06-5.25c-.21-1.61-.28-2.92-.34-4.27A9.42,9.42,0,0,1,70.5,160.52Zm-3.87-1.41c.28,1.93.51,4,.81,5.6a33.41,33.41,0,0,0,.88,3.77c.33.91.58,1.62.88,2.29a9.73,9.73,0,0,1-2.52-1.26,9.56,9.56,0,0,1-2.57-2.95,11.08,11.08,0,0,1-1.34-4.48,17.9,17.9,0,0,1,.31-4.9c.28-1.58.59-3,.81-4.14s.33-1.82.44-2.6a22.93,22.93,0,0,1,1.32,3.46C66,155.31,66.31,157.17,66.63,159.11Zm.19-12a11.6,11.6,0,0,1-2.52-3.84,12.89,12.89,0,0,1-.9-4.3c-.07-1.23,0-2.21,0-3.44s0-2.78,0-4.09-.22-2.39-.37-3.5c.74.89,1.47,1.75,2.13,2.68a16.19,16.19,0,0,1,1.82,3.11,17.31,17.31,0,0,1,1.2,4.11c.26,1.45.31,3,.45,4.44a40.19,40.19,0,0,0,.54,4.16,17.6,17.6,0,0,0,.77,2.78A12.11,12.11,0,0,1,66.82,147.12Zm10.36,7A6.79,6.79,0,0,1,75,153a9.86,9.86,0,0,1-2.42-2.57,13.81,13.81,0,0,1-1.67-3.81,19.22,19.22,0,0,1-.67-4c-.14-1.35-.16-2.66-.32-3.78a23,23,0,0,0-.55-3,16.58,16.58,0,0,1,2.12,1.9,13.66,13.66,0,0,1,2.15,3,27.36,27.36,0,0,1,1.79,4.62c.58,1.75,1.14,3.62,1.77,5.16a36.2,36.2,0,0,0,1.94,3.94A12,12,0,0,1,77.18,154.16ZM87.4,159a7.23,7.23,0,0,1-3.09-1.45,17.47,17.47,0,0,1-3.61-4.18,29.74,29.74,0,0,1-2.61-5.49c-.65-1.75-1.11-3.28-1.59-4.53a30.88,30.88,0,0,0-1.37-3.18,9.71,9.71,0,0,1,2.29,1,11.68,11.68,0,0,1,2.76,2.22,19.69,19.69,0,0,1,2.57,3.72c.84,1.43,1.54,3.1,2.28,4.65s1.55,2.94,2.19,4a18.63,18.63,0,0,0,1.62,2.25,8.64,8.64,0,0,0,.89.94A10.17,10.17,0,0,1,87.4,159Zm9.07,2.15a9,9,0,0,1-3.08-1.58,17.11,17.11,0,0,1-3.47-3.76,47.58,47.58,0,0,1-3.11-5.27c-.86-1.67-1.53-3.18-2.17-4.36a31.35,31.35,0,0,0-1.91-2.91,26,26,0,0,1,3.67,2.18A23.24,23.24,0,0,1,90,149a31.66,31.66,0,0,1,2.72,4.1c.79,1.43,1.66,2.91,2.35,4a23.53,23.53,0,0,0,1.72,2.54c.5.59,1,1.11,1.48,1.58A4.56,4.56,0,0,1,96.47,161.16Zm8,1.27a5.76,5.76,0,0,1-2.74-.9A15.26,15.26,0,0,1,99,159a25.41,25.41,0,0,1-2.49-3.59c-.83-1.48-1.74-3.2-2.46-4.46s-1.29-2.06-1.83-2.87c.36.14.77.29,1.21.43s.89.2,1.62.4a11.89,11.89,0,0,1,2.5.9,6.6,6.6,0,0,1,2.28,2c.73.93,1.37,2.19,2.21,3.54a33,33,0,0,0,2.64,4,18.16,18.16,0,0,0,2.54,2.61A10.63,10.63,0,0,1,104.48,162.43Zm10.66-.16a5.56,5.56,0,0,1-2.47.13,7.37,7.37,0,0,1-3.12-1.49,21.86,21.86,0,0,1-2.89-3,28.5,28.5,0,0,1-2.31-3.14c-.77-1.14-1.57-2.45-2.36-3.79,1.06,0,2.08.13,3.06.18a7.36,7.36,0,0,1,2.71.62,9.24,9.24,0,0,1,2.81,2.26c.89,1,1.81,2.29,2.58,3.35s1.47,2,2,2.68a14.63,14.63,0,0,0,1.45,1.62A10.19,10.19,0,0,1,115.14,162.27Zm10.14.36a7.17,7.17,0,0,1-2.54,0,9,9,0,0,1-3-1.16,11.44,11.44,0,0,1-2.83-2.51c-1-1.15-2.21-2.76-3.09-3.91s-1.51-1.91-2.13-2.64c.4.06.81.08,1.22.1s.86,0,1.47,0a7.8,7.8,0,0,1,2.17.18,4.62,4.62,0,0,1,2.18,1.37c.91.86,2.11,2.23,3.08,3.34s1.8,2,2.58,2.7,1.53,1.38,2.32,2A4.84,4.84,0,0,1,125.28,162.63Zm7.64-.59a5.67,5.67,0,0,1-3.13-.39,13,13,0,0,1-3.22-2.28c-1.06-1-2.07-2-3-3s-1.58-2-2.31-3a5.77,5.77,0,0,0,.93.09,21.14,21.14,0,0,1,2.17,0,7.32,7.32,0,0,1,2.77.45,8.28,8.28,0,0,1,2.65,1.93c1,.94,2.11,2.23,3.05,3.17a29.22,29.22,0,0,0,2.4,2.16A7,7,0,0,1,132.92,162Zm9.8-2.12a6.45,6.45,0,0,1-1.75.7,5.11,5.11,0,0,1-2.37,0,8.89,8.89,0,0,1-2.56-1.31,33.55,33.55,0,0,1-2.68-2.29c-.94-.95-2.08-2-3.17-3.06.61-.05,1.23-.14,1.93-.23a17,17,0,0,1,2.31-.35,7,7,0,0,1,2.4.4,7.36,7.36,0,0,1,2.27,1.38c.79.61,1.65,1.42,2.44,2.16s1.49,1.3,2.16,1.9A4.92,4.92,0,0,1,142.72,159.92Zm8.4-1.82a5,5,0,0,1-1.61.46,6.64,6.64,0,0,1-2.22,0,7.53,7.53,0,0,1-2.45-1,19.74,19.74,0,0,1-2.13-1.65c-.55-.48-1-.82-1.42-1.17s-.95-.74-1.46-1.14c.65,0,1.31-.06,2-.14a9.33,9.33,0,0,1,2.5-.05,8.42,8.42,0,0,1,2.86,1c1,.54,2,1.24,2.87,1.77s1.6.85,2.32,1.22C152,157.65,151.58,157.88,151.12,158.1Zm8.77,1.72a5.43,5.43,0,0,1-1.85.24,9,9,0,0,1-2.12-.26,8.46,8.46,0,0,1-1.49-.52c-.4-.18-.76-.36-1.12-.54.29-.24.59-.47.85-.66a5.29,5.29,0,0,0,1.17.3,10.24,10.24,0,0,0,1.92,0,7.53,7.53,0,0,0,1.58-.46c.12.13.24.22.43.39a4.44,4.44,0,0,0,.8.53c.28.17.56.31.84.45A5.21,5.21,0,0,1,159.89,159.82Zm8.57-1a5.89,5.89,0,0,1-1.7.41,8.15,8.15,0,0,1-2.25-.19,14.6,14.6,0,0,1-2.38-.68,13.1,13.1,0,0,1-1.84-1,6.7,6.7,0,0,0,.84-.45l1.27-.88a11.51,11.51,0,0,0,1.23.06,6,6,0,0,0,1.32-.19,7.19,7.19,0,0,0,.87-.2,19,19,0,0,0,1.94,1.44,11.7,11.7,0,0,0,1.79,1A7.63,7.63,0,0,1,168.46,158.79Zm11.73-3.09a6.25,6.25,0,0,1-1.64,1,6.54,6.54,0,0,1-2.57.5,18.76,18.76,0,0,1-3.63-.3,18.15,18.15,0,0,1-3.11-.88c-.84-.32-1.48-.68-2.16-1l2.07-1.42a16.29,16.29,0,0,0,2.12.14,9.21,9.21,0,0,0,2.15-.43,16.43,16.43,0,0,0,1.84-.81c.72.36,1.48.72,2.29,1.05s1.61.6,2.21.79,1,.3,1.38.4A10.62,10.62,0,0,1,180.19,155.7Zm10.15-4.36a3.92,3.92,0,0,1-1.83,1.47,7.53,7.53,0,0,1-3.53.37,20.67,20.67,0,0,1-4.39-.86,27.5,27.5,0,0,1-3.46-1.35c.68-.42,1.4-.88,2-1.26a13.25,13.25,0,0,0,1.36-1.21c.41.14.81.24,1.5.44s1.58.4,2.63.57,2.32.32,3.38.41,1.92.09,2.78.09A2.43,2.43,0,0,1,190.34,151.34Zm6.71-6.77a4.51,4.51,0,0,1-1.23,1.75,6.92,6.92,0,0,1-2.76,1.34,14.36,14.36,0,0,1-3.62.36,31.24,31.24,0,0,1-3.51-.24c-1-.09-1.92-.26-2.81-.38a11.86,11.86,0,0,0,1.54-.66c.59-.3,1.26-.72,1.86-1.1s1-.82,1.45-1.21c.89,0,1.79,0,2.78,0s2.05-.07,2.95-.15a22.39,22.39,0,0,0,2.36-.42,11.15,11.15,0,0,0,1.24-.35A2.12,2.12,0,0,1,197.05,144.57Zm3.43-6.75a6.34,6.34,0,0,1-.45,1.65,3.54,3.54,0,0,1-1,1.39,7.35,7.35,0,0,1-2,1.17,8.52,8.52,0,0,1-2.49.58c-.86.12-1.73.17-2.59.21a6.72,6.72,0,0,0,.85-.74,2.9,2.9,0,0,0,.49-.67,2.92,2.92,0,0,0,1-.12,7.52,7.52,0,0,0,2.12-.76,7.1,7.1,0,0,0,1.87-1.59,5,5,0,0,0,.83-1.88,14.5,14.5,0,0,0,.29-1.83,7.85,7.85,0,0,0,.71-.34,5.89,5.89,0,0,1,.31,1.33A6.45,6.45,0,0,1,200.48,137.82Zm.67-6.56a3,3,0,0,1-1,1.3,3.52,3.52,0,0,1-1.59.83,5.62,5.62,0,0,1-2,.07,10.77,10.77,0,0,1-2.15-.59c-.68-.28-1.36-.6-2.08-1a21.24,21.24,0,0,0,2.29.06,8.79,8.79,0,0,0,2.52-.49,7.55,7.55,0,0,0,2-1,11.17,11.17,0,0,0,1.28-1.09c.39-.35.73-.74,1.08-1.09a10.12,10.12,0,0,1,0,1.27A6.66,6.66,0,0,1,201.15,131.26Zm2-7.57a3,3,0,0,1-1.1,1.47,3.7,3.7,0,0,1-2.24.67,6.46,6.46,0,0,1-3-.79,24.74,24.74,0,0,1-2.78-1.93,16.18,16.18,0,0,0-2.27-1.46,7,7,0,0,0-1.45-.56,26.71,26.71,0,0,1,2.86-1.46,6.44,6.44,0,0,1,2.6-.53,6.25,6.25,0,0,1,2.84.7c1,.5,2.15,1.25,3,1.7a5.32,5.32,0,0,0,1.81.65A7.23,7.23,0,0,1,203.15,123.69Zm2.49-4.42a2.46,2.46,0,0,1-.79,1.19,2.06,2.06,0,0,1-1.16.4,3.31,3.31,0,0,1-1.34-.27,6.37,6.37,0,0,1-1.36-.84c-.47-.35-1-.83-1.58-1.18s-1-.54-1.52-.77c.71-.25,1.38-.51,2.09-.8a14.4,14.4,0,0,1,2.09-.89,4,4,0,0,1,2-.07,2.9,2.9,0,0,1,1.3.88,2.14,2.14,0,0,1,.45,1.09A2.77,2.77,0,0,1,205.64,119.27Z"/></svg>