<svg id="b84f8b4e-fcdc-4136-9042-50d1b1b22528" data-name="Layer 1" xmlns="http://www.w3.org/2000/svg" width="251" height="275" viewBox="0 0 251 275">
  <defs>
    <style>
      .a842144b-bb9a-4736-8ce7-dabcb3ac570f {
        fill: #ff0;
      }
    </style>
  </defs>
  <path class="a842144b-bb9a-4736-8ce7-dabcb3ac570f" d="M245.51,107.33c-.15-23.46-6.81-44.79-19.26-61.71C212,26.29,190.45,13.46,163.86,8.5a173.07,173.07,0,0,0-31.72-2.92A176.48,176.48,0,0,0,71.62,16.24,38.1,38.1,0,0,0,43.74,4.15h-.19A38.28,38.28,0,0,0,5.31,42.39V232.61a38.28,38.28,0,0,0,38.24,38.24h.19A38.28,38.28,0,0,0,82,232.61V121a8.6,8.6,0,0,0,.26-1.85c0-.27.15-6.69,0-16.3.82-5.1,18-21.58,50.68-21.58,1.47,0,3,0,4.45.1,11.34.5,19.74,3.66,25,9.4,6.62,7.28,6.21,16.79,6.21,16.82v.08c-.1,1.17-.16,2.26-.16,3.32V232.61a38.28,38.28,0,0,0,38.24,38.24h.83a38.28,38.28,0,0,0,38.24-38.24V111Q245.69,109.21,245.51,107.33Zm-7.82,125.28a30.24,30.24,0,0,1-30.24,30.24h-.83a30.24,30.24,0,0,1-30.24-30.24V111c0-1,.06-1.91.15-2.85h0s2.27-33-38.8-34.76S74.09,93.23,74.24,102.86s0,16.1,0,16.1H74V232.61a30.24,30.24,0,0,1-30.24,30.24h-.19a30.24,30.24,0,0,1-30.24-30.24V42.39A30.24,30.24,0,0,1,43.55,12.15h.19A30.21,30.21,0,0,1,69.07,25.9c6-2.69,44.46-18.65,93.32-9.54,53.09,9.9,75,50.31,75.12,91.4a31.15,31.15,0,0,1,.18,3.23Z"/>
</svg>
