<svg id="a3a89cec-d15d-4fb4-ae8d-d36a6fdc90e8" data-name="Layer 1" xmlns="http://www.w3.org/2000/svg" width="251" height="275" viewBox="0 0 251 275">
  <defs>
    <style>
      .aea30d0e-1f19-4de4-8372-88f30cad6bd2 {
        fill: #ef4bbc;
      }
    </style>
  </defs>
  <path class="aea30d0e-1f19-4de4-8372-88f30cad6bd2" d="M237.51,107.76c-.14-41.09-22-81.5-75.12-91.4-48.86-9.11-87.3,6.85-93.32,9.54A30.21,30.21,0,0,0,43.74,12.15h-.19A30.24,30.24,0,0,0,13.31,42.39V232.61a30.24,30.24,0,0,0,30.24,30.24h.19A30.24,30.24,0,0,0,74,232.61V119h.26s.15-6.47,0-16.1,22.41-31.29,63.48-29.48,38.8,34.76,38.8,34.76h0c-.09.94-.15,1.89-.15,2.85V232.61a30.24,30.24,0,0,0,30.24,30.24h.83a30.24,30.24,0,0,0,30.24-30.24V111A31.15,31.15,0,0,0,237.51,107.76Z"/>
</svg>
