<svg id="a247ac2d-0660-44e7-98ce-2fe755e2612e" data-name="Layer 1" xmlns="http://www.w3.org/2000/svg" width="251" height="275" viewBox="0 0 251 275">
  <defs>
    <style>
      .a2348e5a-61d2-482f-ad55-e07632ff3ec4 {
        fill: #3b3be0;
      }
    </style>
  </defs>
  <path class="a2348e5a-61d2-482f-ad55-e07632ff3ec4" d="M75.72,97.79a20,20,0,0,1-.3-3.38V23.35c-3.09,1.14-5.26,2.06-6.35,2.55A30.21,30.21,0,0,0,43.74,12.15h-.19A30.24,30.24,0,0,0,13.31,42.39V232.61a30.24,30.24,0,0,0,30.24,30.24h.19A30.24,30.24,0,0,0,74,232.61V119h.26s.15-6.47,0-16.1A10.92,10.92,0,0,1,75.72,97.79Z"/>
</svg>
