<svg id="e0b10131-be61-4eeb-8ce5-f2e2c04c98ab" data-name="Layer 1" xmlns="http://www.w3.org/2000/svg" width="251" height="275" viewBox="0 0 251 275">
  <defs>
    <style>
      .a8792a79-903c-42ee-8dfa-246bbf553401 {
        fill: #ef4bbc;
      }
    </style>
  </defs>
  <path class="a8792a79-903c-42ee-8dfa-246bbf553401" d="M75.72,97.79a20,20,0,0,1-.3-3.38V23.35c-3.09,1.14-5.26,2.06-6.35,2.55A30.21,30.21,0,0,0,43.74,12.15h-.19A30.24,30.24,0,0,0,13.31,42.39V232.61a30.24,30.24,0,0,0,30.24,30.24h.19A30.24,30.24,0,0,0,74,232.61V119h.26s.15-6.47,0-16.1A10.92,10.92,0,0,1,75.72,97.79Z"/>
</svg>
