<svg id="b00681e3-8464-46b3-b5d9-b4ffd9fc731f" data-name="Layer 1" xmlns="http://www.w3.org/2000/svg" width="261.33" height="465.71" viewBox="0 0 261.33 465.71">
  <defs>
    <style>
      .af5925b5-3885-41a3-8f63-41c538ff8eda {
        fill: #ef4bbc;
      }
    </style>
  </defs>
  <path class="af5925b5-3885-41a3-8f63-41c538ff8eda" d="M14.54,332.77a118.69,118.69,0,0,0,118.7,118.69c23,0,42.76-5.58,59-15.32a28.76,28.76,0,0,0,25.78,16h0a28.79,28.79,0,0,0,28.78-28.78V42.32A28.78,28.78,0,0,0,218,13.54h0a28.77,28.77,0,0,0-28.78,28.78V228.38c-15.87-9.12-34.72-14.31-56-14.31A118.7,118.7,0,0,0,14.54,332.77Zm58.28,0a60.42,60.42,0,0,1,116.41-22.71v45.41a60.42,60.42,0,0,1-116.41-22.7Z"/>
</svg>
