<svg id="bcdecf63-faa5-41c9-8270-c97abecb68d2" data-name="Layer 1" xmlns="http://www.w3.org/2000/svg" width="261.33" height="465.71" viewBox="0 0 261.33 465.71">
  <defs>
    <style>
      .b199da5e-bdfd-49cd-bd53-ae205ac1c196 {
        fill: #fff;
      }
    </style>
  </defs>
  <g>
    <path class="b199da5e-bdfd-49cd-bd53-ae205ac1c196" d="M133.24,272.35a60.42,60.42,0,1,0,56,83.12V310.06A60.43,60.43,0,0,0,133.24,272.35Zm48,81.51a52.42,52.42,0,1,1,0-42.18Z"/>
    <path class="b199da5e-bdfd-49cd-bd53-ae205ac1c196" d="M218,5.54a36.82,36.82,0,0,0-36.78,36.78V215.47a121.68,121.68,0,0,0-48-9.4,126.7,126.7,0,1,0,0,253.39c20.8,0,39.71-4.27,56.35-12.73a36.77,36.77,0,0,0,65.2-23.33V42.32A36.82,36.82,0,0,0,218,5.54ZM246.79,423.4a28.76,28.76,0,0,1-54.56,12.74c-16.23,9.74-36,15.32-59,15.32a118.7,118.7,0,1,1,0-237.39c21.27,0,40.12,5.19,56,14.31V42.32a28.78,28.78,0,0,1,57.56,0Z"/>
  </g>
</svg>
