<svg id="be9df3dd-6518-47d3-923c-1981191b90f1" data-name="Layer 1" xmlns="http://www.w3.org/2000/svg" width="261.33" height="465.71" viewBox="0 0 261.33 465.71">
  <defs>
    <style>
      .bfbe1464-3ebf-4a1b-a2a4-670fb09721bc {
        fill: #3b3be0;
      }
    </style>
  </defs>
  <path class="bfbe1464-3ebf-4a1b-a2a4-670fb09721bc" d="M14.54,332.77a118.69,118.69,0,0,0,118.7,118.69c23,0,42.76-5.58,59-15.32a28.76,28.76,0,0,0,25.78,16h0a28.79,28.79,0,0,0,28.78-28.78V42.32A28.78,28.78,0,0,0,218,13.54h0a28.77,28.77,0,0,0-28.78,28.78V228.38c-15.87-9.12-34.72-14.31-56-14.31A118.7,118.7,0,0,0,14.54,332.77Zm58.28,0a60.42,60.42,0,0,1,116.41-22.71v45.41a60.42,60.42,0,0,1-116.41-22.7Z"/>
</svg>
