<svg id="adff8fd5-0128-4e41-96cd-4ee724ad9016" data-name="Layer 1" xmlns="http://www.w3.org/2000/svg" width="82.86" height="465.71" viewBox="0 0 82.86 465.71">
  <defs>
    <style>
      .af8ec920-d3c5-4ac4-9331-f6b7a92101e3 {
        fill: #ff0;
      }
    </style>
  </defs>
  <path class="af8ec920-d3c5-4ac4-9331-f6b7a92101e3" d="M42.36,5.62H40.5A35,35,0,0,0,5.59,40.53V425.18A35,35,0,0,0,40.5,460.1h1.86a35,35,0,0,0,34.91-34.92V40.53A35,35,0,0,0,42.36,5.62ZM69.27,425.18A26.91,26.91,0,0,1,42.36,452.1H40.5a26.91,26.91,0,0,1-26.91-26.92V40.53A26.91,26.91,0,0,1,40.5,13.62h1.86A26.91,26.91,0,0,1,69.27,40.53Z"/>
</svg>
