<svg id="f34d827a-728b-479b-ad22-747cc72836dd" data-name="Layer 1" xmlns="http://www.w3.org/2000/svg" width="102.86" height="374.29" viewBox="0 0 102.86 374.29">
  <defs>
    <style>
      .b2d67570-5685-47c9-a51e-c70ffc3bd753 {
        fill: #fff;
      }
    </style>
  </defs>
  <g>
    <path class="b2d67570-5685-47c9-a51e-c70ffc3bd753" d="M67,127.49H35.86A20.33,20.33,0,0,0,15.55,147.8V348.07a20.33,20.33,0,0,0,20.31,20.31H67a20.33,20.33,0,0,0,20.31-20.31V147.8A20.33,20.33,0,0,0,67,127.49ZM79.31,348.07A12.31,12.31,0,0,1,67,360.38H35.86a12.31,12.31,0,0,1-12.31-12.31V147.8a12.31,12.31,0,0,1,12.31-12.31H67A12.31,12.31,0,0,1,79.31,147.8Z"/>
    <path class="b2d67570-5685-47c9-a51e-c70ffc3bd753" d="M51.43,5.9A43.87,43.87,0,1,0,95.29,49.77,43.92,43.92,0,0,0,51.43,5.9Zm0,79.73A35.87,35.87,0,1,1,87.29,49.77,35.87,35.87,0,0,1,51.43,85.63Z"/>
  </g>
</svg>
