<svg id="afc7bb2c-1190-4fd4-968b-d6aa8ba06285" data-name="Layer 1" xmlns="http://www.w3.org/2000/svg" width="258" height="463" viewBox="0 0 258 463">
  <defs>
    <style>
      .bc3448be-7afd-4796-b2c6-1be94b9a940c {
        fill: #fff;
      }
    </style>
  </defs>
  <g>
    <path class="bc3448be-7afd-4796-b2c6-1be94b9a940c" d="M126.43,271a60.42,60.42,0,0,0-56,37.72v45.41a60.42,60.42,0,1,0,56-83.13Zm0,112.84a52.21,52.21,0,0,1-48-31.33V310.32a52.42,52.42,0,1,1,48,73.51Z"/>
    <path class="bc3448be-7afd-4796-b2c6-1be94b9a940c" d="M126.43,204.72a121.51,121.51,0,0,0-48,9.4V41A36.78,36.78,0,0,0,4.88,41V422a36.77,36.77,0,0,0,65.19,23.34c16.64,8.45,35.56,12.73,56.36,12.73a126.7,126.7,0,0,0,0-253.39Zm0,245.39c-23,0-42.76-5.59-59-15.33A28.76,28.76,0,0,1,12.88,422V41a28.78,28.78,0,0,1,57.56,0V227c15.87-9.12,34.72-14.3,56-14.3a118.7,118.7,0,0,1,0,237.39Z"/>
  </g>
</svg>
