<svg id="bc0a682a-176e-40dc-96ef-ee2dbf911fd0" data-name="Layer 1" xmlns="http://www.w3.org/2000/svg" width="258" height="463" viewBox="0 0 258 463">
  <defs>
    <style>
      .f12516b3-7206-47b4-b592-61083bc408a6 {
        fill: #f4406f;
      }
    </style>
  </defs>
  <path class="f12516b3-7206-47b4-b592-61083bc408a6" d="M126.43,212.72c-21.27,0-40.12,5.18-56,14.3V41A28.79,28.79,0,0,0,41.66,12.18h0A28.78,28.78,0,0,0,12.88,41V422a28.78,28.78,0,0,0,28.78,28.78h0a28.76,28.76,0,0,0,25.78-16c16.23,9.74,36,15.33,59,15.33a118.7,118.7,0,0,0,0-237.39Zm0,179.11a60.42,60.42,0,0,1-56-37.71V308.71a60.42,60.42,0,1,1,56,83.12Z"/>
</svg>
