<svg id="a468b6f6-a03f-4dd1-815d-c8e3a9322f23" data-name="Layer 1" xmlns="http://www.w3.org/2000/svg" width="258" height="463" viewBox="0 0 258 463">
  <defs>
    <style>
      .a8cf561b-28bc-44dc-8575-83fc67b26af9 {
        fill: #ef4bbc;
      }
    </style>
  </defs>
  <path class="a8cf561b-28bc-44dc-8575-83fc67b26af9" d="M126.43,212.72c-21.27,0-40.12,5.18-56,14.3V41A28.79,28.79,0,0,0,41.66,12.18h0A28.78,28.78,0,0,0,12.88,41V422a28.78,28.78,0,0,0,28.78,28.78h0a28.76,28.76,0,0,0,25.78-16c16.23,9.74,36,15.33,59,15.33a118.7,118.7,0,0,0,0-237.39Zm0,179.11a60.42,60.42,0,0,1-56-37.71V308.71a60.42,60.42,0,1,1,56,83.12Z"/>
</svg>
