<svg id="b5ce952e-8845-4590-9ac6-441fa706019a" data-name="Layer 1" xmlns="http://www.w3.org/2000/svg" width="262.86" height="465.71" viewBox="0 0 262.86 465.71">
  <defs>
    <style>
      .a4b93089-6d27-48fa-a88d-42656622102c {
        fill: #f4406f;
      }
    </style>
  </defs>
  <path class="a4b93089-6d27-48fa-a88d-42656622102c" d="M246.49,145.94V44A28.84,28.84,0,0,0,217.64,15.2h0a28.83,28.83,0,0,0-26.08,16.58A116.1,116.1,0,1,0,188.8,232V353.42h1.1a4,4,0,0,0-.28.43,12.46,12.46,0,0,0-1.08,3.78c-3.49,18.48-19.75,33.17-38.12,37.19s-38.07-1.69-53.17-12.91c-6.19-4.6-11.81-10.15-18.85-13.3-13.06-5.85-30.75-.78-36.71,12.23-3.77,8.2-2.58,18.07,1.52,26.11s10.81,14.47,18,19.88a121.52,121.52,0,0,0,63.07,23.53,130.67,130.67,0,0,0,47.14-5.07,106.48,106.48,0,0,0,37.71-19.53,108.12,108.12,0,0,0,25.5-29.95,94.38,94.38,0,0,0,11.6-33.22,38.88,38.88,0,0,0,.23-9.89Zm-115.1,44A58.88,58.88,0,1,1,188.8,118v26.12A58.89,58.89,0,0,1,131.39,190Z"/>
</svg>
