<svg id="f7f721cb-8126-4730-b8ad-8e8ed9163ea0" data-name="Layer 1" xmlns="http://www.w3.org/2000/svg" width="262.86" height="465.71" viewBox="0 0 262.86 465.71">
  <defs>
    <style>
      .a556563f-8f81-4b61-861f-76ee2b271b0e {
        fill: #fff;
      }
    </style>
  </defs>
  <g>
    <path class="a556563f-8f81-4b61-861f-76ee2b271b0e" d="M131.43,72.18a58.88,58.88,0,1,0,57.41,71.94V118A58.89,58.89,0,0,0,131.43,72.18Zm49.41,71a50.88,50.88,0,1,1,0-24.27Z"/>
    <path class="a556563f-8f81-4b61-861f-76ee2b271b0e" d="M254.53,146.44V44a36.82,36.82,0,0,0-65.62-23,124.1,124.1,0,1,0-8.07,223.8V353.41a7.46,7.46,0,0,0,.13,1.43c-.07.33-.13.65-.18,1l-.07.35c-2.77,14.65-15.91,27.35-32,30.86a48.57,48.57,0,0,1-10.36,1.1c-12.47,0-25.37-4.48-36.32-12.62-1.63-1.21-3.23-2.5-4.92-3.87C92.5,367.86,87.7,364,81.7,361.3a36.75,36.75,0,0,0-14.9-3.11c-14.27,0-27,7.58-32.35,19.3-4.5,9.83-3.88,22.2,1.67,33.09,4.1,8,10.76,15.45,20.36,22.64a130.35,130.35,0,0,0,67.24,25.11c3.45.27,7,.41,10.45.41h0A139.61,139.61,0,0,0,173.76,453a113.46,113.46,0,0,0,40.5-21,115.35,115.35,0,0,0,27.39-32.17,101.94,101.94,0,0,0,12.57-36,47.8,47.8,0,0,0,.31-11.46ZM246.3,362.58a94.31,94.31,0,0,1-11.6,33.22,108.12,108.12,0,0,1-25.5,29.95,106.48,106.48,0,0,1-37.71,19.53,130.67,130.67,0,0,1-47.14,5.07,121.44,121.44,0,0,1-63.07-23.53c-7.22-5.41-13.93-11.83-18-19.87S38,389,41.73,380.83c6-13,23.65-18.07,36.71-12.23,7,3.15,12.66,8.7,18.85,13.3,15.1,11.22,34.8,16.94,53.17,12.92s34.63-18.72,38.12-37.2a12.31,12.31,0,0,1,1.08-3.77,4.08,4.08,0,0,1,.28-.44h-1.1V231.94A116.06,116.06,0,1,1,191.6,31.77a28.83,28.83,0,0,1,26.08-16.58h0A28.84,28.84,0,0,1,246.53,44V352.69A38.88,38.88,0,0,1,246.3,362.58Z"/>
  </g>
</svg>
