<svg id="b73a91c6-4e7d-4c7b-8f26-7cf6cd800395" data-name="Layer 1" xmlns="http://www.w3.org/2000/svg" width="262.86" height="465.71" viewBox="0 0 262.86 465.71">
  <defs>
    <style>
      .ae550739-8ddb-474c-bd89-f60ba914ea81 {
        fill: #999;
      }
    </style>
  </defs>
  <path class="ae550739-8ddb-474c-bd89-f60ba914ea81" d="M246.53,145.93V44a28.84,28.84,0,0,0-28.85-28.84h0A28.83,28.83,0,0,0,191.6,31.77a116.1,116.1,0,1,0-2.76,200.17V353.41h1.1a4.08,4.08,0,0,0-.28.44,12.31,12.31,0,0,0-1.08,3.77c-3.49,18.48-19.75,33.17-38.12,37.2s-38.07-1.7-53.17-12.92c-6.19-4.6-11.81-10.15-18.85-13.3-13.06-5.84-30.75-.78-36.71,12.23C38,389,39.15,398.91,43.25,407s10.81,14.46,18,19.87a121.44,121.44,0,0,0,63.07,23.53,130.67,130.67,0,0,0,47.14-5.07,106.48,106.48,0,0,0,37.71-19.53,108.12,108.12,0,0,0,25.5-29.95,94.31,94.31,0,0,0,11.6-33.22,38.88,38.88,0,0,0,.23-9.89Zm-115.1,44A58.88,58.88,0,1,1,188.84,118v26.12A58.89,58.89,0,0,1,131.43,189.94Z"/>
</svg>
