<svg id="af4a4b45-4091-4076-a662-a93d090e27d4" data-name="Layer 1" xmlns="http://www.w3.org/2000/svg" width="262.86" height="465.71" viewBox="0 0 262.86 465.71">
  <defs>
    <style>
      .ece26ee2-bfad-47c6-a132-993a5d9493f9 {
        fill: #3b3be0;
      }
    </style>
  </defs>
  <path class="ece26ee2-bfad-47c6-a132-993a5d9493f9" d="M131.46,247.14a115.49,115.49,0,0,0,57.41-15.21v.36c2.19-1.51,14.19-4.76,35.43-30.68,14.93-18.22,21.75-39.54,22.26-40.94V44a28.85,28.85,0,0,0-28.84-28.85h0a28.82,28.82,0,0,0-26.08,16.59,116.09,116.09,0,1,0-60.18,215.37Zm0-175A58.89,58.89,0,0,1,188.87,118v26.12a58.88,58.88,0,1,1-57.41-71.95Z"/>
</svg>
