<svg id="a69648b6-3f97-427c-b2ca-ef6995ccfb23" data-name="Layer 1" xmlns="http://www.w3.org/2000/svg" width="228.57" height="557.14" viewBox="0 0 228.57 557.14">
  <defs>
    <style>
      .aeb87b02-10b8-4f7e-85ed-99ce0ed4ac93 {
        fill: #fff;
      }
    </style>
  </defs>
  <g>
    <path class="aeb87b02-10b8-4f7e-85ed-99ce0ed4ac93" d="M218.45,450.48V158.41a35.49,35.49,0,0,0-71,0V452c-.2,6-3,25.55-29.86,31.06a68.65,68.65,0,0,1-13.76,1.49c-20.38,0-30.11-11.19-34.26-16-.61-.7-1.12-1.29-1.54-1.73a40.33,40.33,0,0,0-27.54-11.37c-8.88,0-17.28,3.2-25,9.52-.21.18-.41.36-.61.56-7.07,7.17-16.39,25.95-1,45.77,15.05,19.41,46.73,40.14,90.53,40.14h0a153.09,153.09,0,0,0,27.22-2.51,104.84,104.84,0,0,0,67-41.71C211.56,489.65,219.13,467.93,218.45,450.48Zm-88.2,90.58c-57.09,10.36-94.86-15.13-110-34.65s.4-35.25.4-35.25c19.12-15.73,37.44-3.19,41.62,1.19s19.12,26.29,57,18.53c33.21-6.82,36.06-32.38,36.25-38.77h0V158.41a27.49,27.49,0,0,1,55,0V450.65C211.64,478.73,187.34,530.71,130.25,541.06Z"/>
    <path class="aeb87b02-10b8-4f7e-85ed-99ce0ed4ac93" d="M181,5.69a42,42,0,1,0,42,42A42,42,0,0,0,181,5.69Zm0,76a34,34,0,1,1,34-34A34,34,0,0,1,181,81.67Z"/>
  </g>
</svg>
