<svg id="Layer_1" data-name="Layer 1" xmlns="http://www.w3.org/2000/svg" viewBox="0 0 789.24 582.87"><defs><style>.cls-1{fill:#f9f950;stroke:#fff;stroke-width:8px;}.cls-1,.cls-3{stroke-miterlimit:10;}.cls-2{fill:#28042d;}.cls-3{fill:#c64af4;stroke:#28042d;}</style></defs><path class="cls-1" d="M117.89,219.86S33.58,120.91,175,33.11c0,0,108.7-60.62,195.11,43.2,0,0,36.23-23,82.22-6.27,0,0,98.25-118.45,215.31-4.18,0,0,77.35,80.83,2.09,190.93,0,0,147,55.74,84.31,200,0,0-67.59,130.3-221.58,57.83,0,0-59.23,55-130.3,0,0,0-86.4,88.5-226.46,36.24,0,0-104.52-39-87.1-142.15,0,0-71.08-32.75-69-97.55S117.89,219.86,117.89,219.86Z"/><path class="cls-2" d="M224.67,275.73c8.12-34.79,6-122-1.62-156.75,0,0,21.8-1.16,39.88-8.81-3.48,33.16-4.64,89.73-.46,122.43,12.75-5.1,28.75-10,44.52-10.67a287.48,287.48,0,0,0,.23,39A392.9,392.9,0,0,0,224.67,275.73Z"/><path class="cls-2" d="M363.1,270.62c-19.24,1.4-41.27-9.5-48.69-39-8.11-32.23,6-67.94,38.26-68.4,30.84-.47,43.59,23.18,45,53.1,0,0-30.6.46-56.81,5.33,1.16,14.61,6.5,26.2,14.15,25.51,7.19-.7,8.58-10.44,7-19.25,0,0,21.1-2.78,41-4.17C402.76,257.41,381.65,269.47,363.1,270.62Zm-10.89-83.7c-5.57.93-9.51,8.35-11.13,18.78a190.66,190.66,0,0,0,24.34-2.32C364,193.41,359.39,186,352.21,186.92Z"/><path class="cls-2" d="M439.86,271.55c-26.9-4.87-31.77-43.13-27.36-83.47-5.34.23-8.58.46-8.58.46.46-10.43,1.85-20.17,1.85-20.17l9.74-.47a310.06,310.06,0,0,1,7.88-33.39c15.77.24,31.77.93,31.77.93a197.94,197.94,0,0,0-9.74,30.84l23-1.16a164.39,164.39,0,0,0-2.55,25.51,234.46,234.46,0,0,0-25.05-2.55c-4.86,29-3.47,51.71,1.63,53.56,5.1,2.09,7.88-9.27,7.65-22.72,15.54,5.33,29.68,11.82,29.68,11.82C476.26,262.51,458.87,275,439.86,271.55Z"/><path class="cls-2" d="M475.8,159.32c4.63-1.39,10-6.49,11.36-11.82-12.76,1.85-18.09-7.65-17.62-16.23.46-8.12,6.49-15.54,16.92-16,9.51-.46,17.16,7,17.86,17.39C505.24,148,493.65,162.57,475.8,159.32Z"/><path class="cls-2" d="M537,272c-16.46-.24-31.07-5.8-43.36-22.26a160.22,160.22,0,0,1,20.87-24.12c7.88,16,22,19.94,25.51,15.77,2.78-3.48.92-9.51-14.15-16-13.68-5.8-25.74-14.38-26.43-29.68-.7-12.29,6.95-28.52,31.3-29.68,26.2-1.16,39,16.93,44.52,34.78a91.77,91.77,0,0,0-29.91,8.81c-7-18.08-18.32-17.39-17.39-10.2,2.78,19.48,48.23,15.53,47.53,45.45C575,262.74,557.88,272.25,537,272Z"/><path class="cls-2" d="M246.35,356.34c0,42.2,2.55,90.66,7.89,122.19-19.71.7-41.28,2.79-41.28,2.79,4.64-31.54,6.26-79.07.93-122.9a250.24,250.24,0,0,0-32.23,5.8,302.53,302.53,0,0,0-4.41-43.59c33.39-1.86,71.88-.93,102.49-4.87,0,0-.23,21.33.47,41.27A316.16,316.16,0,0,0,246.35,356.34Z"/><path class="cls-2" d="M314.29,425c.47-13-2.55-21.33-7-22.26-3.95-.69-8.12.7-11.6,6.73.93,23.88,3.25,49.85,6,66.78,0,0-17.39-.7-33.16,4.4,2.32-32,3.94-73-.69-104.57,0,0,16.46-.47,27.82-4.87-.23,3.71-.46,7.88-.46,12.29,8.81-8.12,21.1-11.37,30.37-9.74,15.31,2.55,23.19,17.62,22.73,43.59C332.84,418.71,314.29,425,314.29,425Z"/><path class="cls-2" d="M405.42,479c.46-2.32.93-4.41,1.16-6.73A44.71,44.71,0,0,1,387.8,479c-14.15,1.62-37.8-8.58-38.26-29.45-.47-23.19,20.17-34.32,38.49-34.78a38.87,38.87,0,0,1,20.4,5.33c-3.94-35.24-20.4-28.52-18.31-11.59-16-.47-33.63,4.17-33.63,4.17C350.93,385.32,372.26,358.42,408,373c39.42,16,21.33,77,25.27,104.81A220.67,220.67,0,0,0,405.42,479Zm-14.14-42.43c-6,2.08-12.06,8.11-9.51,14.37s10.66,6.73,15.77,4.87c7.18-2.78,12-10.43,10-15.07C405,435.41,396.84,434.48,391.28,436.57Z"/><path class="cls-2" d="M483.56,477.61c-15.76,1.39-37.1-4.87-42.66-32.93-6.49-33.16,9.51-67,33.62-70.72,23.42-3.71,38,13.68,42.2,31.53,0,0-17.62,3.25-30.61,9.05-.46-6.26-3-12.76-9-11.83S465.25,414.77,465.71,428c.46,14.6,6.26,23.18,13.45,22.72,6-.46,10.2-5.8,10.43-14.14,0,0,16.47-2.09,33.86-2.56C522.52,463.46,504.2,476,483.56,477.61Z"/><path class="cls-2" d="M580.72,477.38c-19.25,1.39-41.27-9.51-48.69-39-8.12-32.23,6-67.94,38.25-68.4,30.84-.47,43.6,23.18,45,53.1,0,0-30.61.46-56.81,5.33,1.16,14.61,6.49,26.2,14.14,25.51,7.19-.7,8.58-10.44,7-19.25,0,0,21.1-2.78,41-4.17C620.37,464.16,599.27,476.22,580.72,477.38Zm-10.9-83.71c-5.56.93-9.51,8.35-11.13,18.78A190.8,190.8,0,0,0,583,410.13C581.65,400.16,577,392.74,569.82,393.67Z"/><path class="cls-3" d="M216.06,267.11c8.11-34.78,6-122-1.63-156.75,0,0,21.8-1.16,39.89-8.81-3.48,33.16-4.64,89.74-.47,122.43,12.76-5.1,28.76-10,44.52-10.66a287.35,287.35,0,0,0,.23,39A394.09,394.09,0,0,0,216.06,267.11Z"/><path class="cls-3" d="M354.49,262c-19.24,1.39-41.27-9.51-48.69-38.95-8.12-32.24,6-67.94,38.26-68.41,30.84-.46,43.59,23.19,45,53.1,0,0-30.61.47-56.81,5.33,1.16,14.61,6.49,26.21,14.15,25.51,7.18-.69,8.57-10.43,6.95-19.24,0,0,21.1-2.79,41-4.18C394.14,248.79,373,260.85,354.49,262Zm-10.9-83.71c-5.56.93-9.5,8.35-11.13,18.79a192.46,192.46,0,0,0,24.35-2.32C355.42,184.8,350.78,177.38,343.59,178.3Z"/><path class="cls-3" d="M431.24,262.94c-26.9-4.87-31.77-43.13-27.36-83.48-5.33.23-8.58.47-8.58.47.46-10.44,1.86-20.18,1.86-20.18l9.73-.46a306.53,306.53,0,0,1,7.89-33.39c15.77.23,31.77.93,31.77.93a196.54,196.54,0,0,0-9.74,30.84l22.95-1.16a164.36,164.36,0,0,0-2.55,25.5,237.16,237.16,0,0,0-25-2.55c-4.87,29-3.48,51.71,1.62,53.57,5.1,2.08,7.89-9.28,7.65-22.73,15.54,5.34,29.68,11.83,29.68,11.83C467.65,253.89,450.26,266.42,431.24,262.94Z"/><path class="cls-3" d="M467.18,150.71c4.64-1.39,10-6.49,11.36-11.83-12.75,1.86-18.08-7.65-17.62-16.23.47-8.11,6.49-15.53,16.93-16,9.51-.46,17.16,7,17.85,17.39C496.63,139.35,485,154,467.18,150.71Z"/><path class="cls-3" d="M528.4,263.4c-16.47-.23-31.08-5.8-43.36-22.26A160.69,160.69,0,0,1,505.9,217c7.89,16,22,19.94,25.51,15.76,2.78-3.47.93-9.5-14.14-16-13.68-5.79-25.74-14.37-26.44-29.68-.69-12.28,7-28.52,31.31-29.68,26.2-1.15,39,16.93,44.52,34.79A91.78,91.78,0,0,0,536.74,201c-7-18.09-18.31-17.39-17.39-10.21,2.79,19.48,48.23,15.54,47.54,45.45C566.42,254.13,549.26,263.63,528.4,263.4Z"/><path class="cls-3" d="M237.74,347.72c0,42.2,2.55,90.66,7.88,122.2-19.71.7-41.27,2.78-41.27,2.78,4.64-31.53,6.26-79.07.93-122.89a247.92,247.92,0,0,0-32.23,5.8,304.23,304.23,0,0,0-4.41-43.6c33.39-1.85,71.88-.92,102.49-4.87,0,0-.23,21.34.46,41.28A315.79,315.79,0,0,0,237.74,347.72Z"/><path class="cls-3" d="M305.68,416.36c.46-13-2.55-21.34-7-22.26-3.94-.7-8.11.69-11.59,6.72.93,23.88,3.24,49.85,6,66.78,0,0-17.39-.69-33.16,4.41,2.32-32,3.94-73-.7-104.58,0,0,16.47-.46,27.83-4.87-.23,3.71-.47,7.89-.47,12.29,8.82-8.11,21.1-11.36,30.38-9.74,15.3,2.55,23.19,17.62,22.72,43.59C324.23,410.1,305.68,416.36,305.68,416.36Z"/><path class="cls-3" d="M396.81,470.38c.46-2.32.92-4.4,1.16-6.72a44.55,44.55,0,0,1-18.79,6.72C365,472,341.39,461.8,340.92,440.94c-.46-23.19,20.18-34.32,38.5-34.79a38.93,38.93,0,0,1,20.4,5.34c-3.94-35.25-20.4-28.52-18.32-11.6-16-.46-33.62,4.18-33.62,4.18-5.56-27.36,15.77-54.26,51.48-39.65,39.42,16,21.33,77,25.27,104.8A220.53,220.53,0,0,0,396.81,470.38ZM382.66,428c-6,2.09-12.06,8.12-9.51,14.38s10.67,6.72,15.77,4.87c7.19-2.79,12.06-10.44,10-15.08C396.34,426.79,388.23,425.86,382.66,428Z"/><path class="cls-3" d="M475,469c-15.77,1.39-37.1-4.87-42.67-32.92-6.49-33.16,9.51-67,33.63-70.73,23.42-3.71,38,13.68,42.2,31.54,0,0-17.63,3.25-30.61,9-.46-6.26-3-12.75-9-11.82s-11.83,12-11.37,25.27c.47,14.61,6.27,23.19,13.45,22.72,6-.46,10.21-5.79,10.44-14.14,0,0,16.46-2.09,33.85-2.55C513.9,454.85,495.59,467.37,475,469Z"/><path class="cls-3" d="M572.1,468.76c-19.24,1.39-41.27-9.51-48.69-38.95-8.11-32.24,6-67.94,38.26-68.41,30.84-.46,43.59,23.19,45,53.1,0,0-30.6.47-56.81,5.33C551,434.44,556.34,446,564,445.34c7.19-.69,8.58-10.43,7-19.24,0,0,21.1-2.79,41-4.18C611.76,455.54,590.65,467.6,572.1,468.76Zm-10.89-83.71c-5.57.93-9.51,8.35-11.13,18.79a192.49,192.49,0,0,0,24.34-2.32C573,391.55,568.39,384.13,561.21,385.05Z"/></svg>