<svg id="Layer_1" data-name="Layer 1" xmlns="http://www.w3.org/2000/svg" xmlns:xlink="http://www.w3.org/1999/xlink" viewBox="0 0 3374.82 989.74"><defs><style>.cls-1{fill:none;}.cls-2{clip-path:url(#clip-path);}.cls-3{fill:url(#linear-gradient);}.cls-4{fill:url(#linear-gradient-2);}.cls-5{fill:url(#linear-gradient-3);}.cls-6{fill:url(#linear-gradient-4);}.cls-7{fill:#c48a71;}.cls-8{fill:#c38a73;}.cls-9{fill:#603913;}.cls-10{fill:#75ea99;}.cls-11,.cls-14,.cls-15{stroke-miterlimit:10;}.cls-11{stroke-width:1.94px;fill:url(#linear-gradient-5);stroke:url(#linear-gradient-6);}.cls-12{fill:url(#linear-gradient-7);}.cls-13{fill:url(#linear-gradient-8);}.cls-14,.cls-15{stroke-width:0.97px;}.cls-14{fill:url(#linear-gradient-9);stroke:url(#linear-gradient-10);}.cls-15{fill:url(#linear-gradient-11);stroke:url(#linear-gradient-12);}.cls-16{fill:url(#linear-gradient-13);}.cls-17{fill:#71cd33;}.cls-18{fill:#4b7d8d;}.cls-19{fill:#6cb7c9;}.cls-20{fill:#76c2ec;}.cls-21{fill:#5d6e93;}.cls-22{fill:url(#linear-gradient-14);}.cls-23{fill:url(#linear-gradient-15);}.cls-24{fill:url(#linear-gradient-16);}.cls-25{fill:url(#linear-gradient-17);}.cls-26{fill:url(#linear-gradient-18);}.cls-27{fill:url(#linear-gradient-19);}.cls-28{fill:#71cde7;}.cls-29{fill:url(#linear-gradient-20);}.cls-30{fill:url(#linear-gradient-21);}.cls-31{fill:url(#linear-gradient-22);}.cls-32{fill:#7ac6ee;}.cls-33{fill:url(#linear-gradient-23);}.cls-34{fill:url(#linear-gradient-24);}.cls-35{fill:url(#linear-gradient-25);}.cls-36{fill:url(#linear-gradient-26);}.cls-37{fill:url(#linear-gradient-27);}.cls-38{fill:url(#linear-gradient-28);}.cls-39{fill:url(#linear-gradient-29);}.cls-40{fill:url(#linear-gradient-30);}.cls-41{fill:url(#linear-gradient-31);}.cls-42{fill:url(#linear-gradient-32);}.cls-43{fill:url(#linear-gradient-33);}.cls-44{fill:url(#linear-gradient-34);}.cls-45{fill:#78969f;}.cls-46{fill:#89e9f4;}.cls-47{fill:url(#linear-gradient-35);}.cls-48{fill:url(#linear-gradient-36);}.cls-49{fill:url(#linear-gradient-37);}.cls-50{fill:#969a9e;}.cls-51{fill:url(#linear-gradient-38);}.cls-52{fill:url(#linear-gradient-39);}.cls-53{fill:url(#linear-gradient-40);}.cls-54{fill:url(#linear-gradient-41);}.cls-55{fill:#b98e7c;}.cls-56{fill:#c49483;}.cls-57{fill:#754d32;}.cls-58{fill:#a8e533;}.cls-59{fill:url(#linear-gradient-42);}.cls-60{fill:url(#linear-gradient-43);}.cls-61{fill:url(#linear-gradient-44);}.cls-62{fill:url(#linear-gradient-45);}.cls-63{fill:url(#linear-gradient-46);}.cls-64{fill:url(#linear-gradient-47);}.cls-65{fill:url(#linear-gradient-48);}.cls-66{fill:url(#linear-gradient-49);}.cls-67{fill:url(#linear-gradient-50);}.cls-68{fill:#a0f068;}.cls-69{fill:url(#linear-gradient-51);}.cls-70{fill:url(#linear-gradient-52);}.cls-71{fill:#00c13e;}.cls-72{fill:#4c9a22;}.cls-73{fill:#01491d;}.cls-74{fill:#032616;}.cls-75{fill:#011c24;}.cls-76{fill:#042f33;}</style><clipPath id="clip-path" transform="translate(224.56)"><rect class="cls-1" width="2693" height="900"/></clipPath><linearGradient id="linear-gradient" x1="1347.62" y1="1458.03" x2="1677.55" y2="-173.05" gradientUnits="userSpaceOnUse"><stop offset="0.25" stop-color="#c5f7fd"/><stop offset="0.33" stop-color="#bbf5fb"/><stop offset="0.66" stop-color="#96eef5"/><stop offset="0.83" stop-color="#88ebf3"/></linearGradient><linearGradient id="linear-gradient-2" x1="-35.5" y1="501.32" x2="2793.5" y2="501.32" gradientUnits="userSpaceOnUse"><stop offset="0" stop-color="#b0dbfd"/><stop offset="0.06" stop-color="#b2dafb"/><stop offset="0.62" stop-color="#bfd4e6"/><stop offset="1" stop-color="#c4d2df"/></linearGradient><linearGradient id="linear-gradient-3" x1="245.01" y1="716.78" x2="2667.74" y2="520.51" gradientUnits="userSpaceOnUse"><stop offset="0" stop-color="#8bccc6"/><stop offset="1" stop-color="#9bcbdb"/></linearGradient><linearGradient id="linear-gradient-4" x1="2162.42" y1="710.4" x2="2152" y2="176.45" gradientUnits="userSpaceOnUse"><stop offset="0.13" stop-color="#915e54"/><stop offset="0.16" stop-color="#8e6055"/><stop offset="0.49" stop-color="#747360"/><stop offset="0.69" stop-color="#6a7a64"/></linearGradient><linearGradient id="linear-gradient-5" x1="2553.93" y1="197.68" x2="2356.91" y2="468.23" gradientUnits="userSpaceOnUse"><stop offset="0.29" stop-color="#40bc72"/><stop offset="0.56" stop-color="#57b67a"/></linearGradient><linearGradient id="linear-gradient-6" x1="2360.69" y1="349.35" x2="2525.97" y2="349.35" gradientUnits="userSpaceOnUse"><stop offset="0" stop-color="#56af72"/><stop offset="0.19" stop-color="#56b377"/><stop offset="0.34" stop-color="#56b97b"/><stop offset="0.46" stop-color="#57c281"/><stop offset="0.55" stop-color="#57bc7b"/><stop offset="0.62" stop-color="#56b272"/><stop offset="0.86" stop-color="#56b377"/><stop offset="0.93" stop-color="#57b579"/><stop offset="0.95" stop-color="#5abc7f"/><stop offset="0.97" stop-color="#61c78a"/><stop offset="0.98" stop-color="#69d89a"/><stop offset="1" stop-color="#74eeae"/><stop offset="1" stop-color="#78f5b5"/><stop offset="1" stop-color="#49c183"/><stop offset="1" stop-color="#4ebd80"/><stop offset="1" stop-color="#55b77b"/><stop offset="1" stop-color="#57b67a"/></linearGradient><linearGradient id="linear-gradient-7" x1="2447.71" y1="71.66" x2="1730.38" y2="663.19" gradientUnits="userSpaceOnUse"><stop offset="0.24" stop-color="#5ccfa3"/><stop offset="0.25" stop-color="#5acea0"/><stop offset="0.35" stop-color="#4dc48c"/><stop offset="0.45" stop-color="#45be80"/><stop offset="0.54" stop-color="#42bc7c"/><stop offset="0.59" stop-color="#44bf7d"/><stop offset="0.62" stop-color="#4bca80"/><stop offset="0.66" stop-color="#56dc85"/><stop offset="0.66" stop-color="#58e086"/></linearGradient><linearGradient id="linear-gradient-8" x1="1896.23" y1="402.45" x2="2035.73" y2="270.33" gradientUnits="userSpaceOnUse"><stop offset="0.13" stop-color="#38a17a"/><stop offset="0.65" stop-color="#56cf8b"/><stop offset="0.96" stop-color="#65e593"/></linearGradient><linearGradient id="linear-gradient-9" x1="1892.5" y1="406.04" x2="2033.34" y2="272.66" gradientUnits="userSpaceOnUse"><stop offset="0.27" stop-color="#2da870"/><stop offset="0.51" stop-color="#30ab76"/><stop offset="0.84" stop-color="#39b488"/><stop offset="0.88" stop-color="#3bb68b"/></linearGradient><linearGradient id="linear-gradient-10" x1="1859.32" y1="331.69" x2="2052.47" y2="331.69" gradientUnits="userSpaceOnUse"><stop offset="0.27" stop-color="#53c575"/><stop offset="0.53" stop-color="#56cb7a"/><stop offset="0.88" stop-color="#5fdd87"/></linearGradient><linearGradient id="linear-gradient-11" x1="1974.54" y1="297.06" x2="1972" y2="167.06" gradientUnits="userSpaceOnUse"><stop offset="0.27" stop-color="#64c191"/><stop offset="0.45" stop-color="#5ebf90"/><stop offset="0.7" stop-color="#4cbb8d"/><stop offset="0.88" stop-color="#3bb68b"/></linearGradient><linearGradient id="linear-gradient-12" x1="1928.28" y1="243.61" x2="2018.72" y2="243.61" gradientUnits="userSpaceOnUse"><stop offset="0.27" stop-color="#34af7e"/><stop offset="0.72" stop-color="#31ac78"/><stop offset="0.88" stop-color="#2faa74"/></linearGradient><linearGradient id="linear-gradient-13" x1="2158.33" y1="489.8" x2="2291.25" y2="144.44" xlink:href="#linear-gradient-8"/><linearGradient id="linear-gradient-14" x1="17.06" y1="473.69" x2="219.6" y2="473.69" gradientUnits="userSpaceOnUse"><stop offset="0.18" stop-color="#72cde3"/><stop offset="0.7" stop-color="#76cfe9"/></linearGradient><linearGradient id="linear-gradient-15" x1="92.16" y1="556.32" x2="171.6" y2="360.84" gradientUnits="userSpaceOnUse"><stop offset="0.19" stop-color="#3b97bd"/><stop offset="0.21" stop-color="#3c9abf"/><stop offset="0.41" stop-color="#4cbee0"/><stop offset="0.58" stop-color="#56d5f5"/><stop offset="0.68" stop-color="#5addfc"/></linearGradient><linearGradient id="linear-gradient-16" x1="184.33" y1="517.94" x2="251" y2="517.94" gradientUnits="userSpaceOnUse"><stop offset="0.22" stop-color="#75cde9"/><stop offset="0.73" stop-color="#6dcdec"/></linearGradient><linearGradient id="linear-gradient-17" x1="249.27" y1="476.12" x2="172.46" y2="581.61" gradientUnits="userSpaceOnUse"><stop offset="0.3" stop-color="#3ea7d4"/><stop offset="0.67" stop-color="#2699be"/></linearGradient><linearGradient id="linear-gradient-18" x1="-22" y1="511.69" x2="56.88" y2="511.69" gradientUnits="userSpaceOnUse"><stop offset="0.27" stop-color="#64a7cf"/><stop offset="0.52" stop-color="#61a9d0"/><stop offset="0.68" stop-color="#59b0d3"/><stop offset="0.82" stop-color="#4abcd8"/><stop offset="0.83" stop-color="#48bed9"/></linearGradient><linearGradient id="linear-gradient-19" x1="-7.51" y1="541.49" x2="47.8" y2="489.1" gradientUnits="userSpaceOnUse"><stop offset="0.23" stop-color="#269ad6"/><stop offset="0.47" stop-color="#299bd6"/><stop offset="0.62" stop-color="#319fd8"/><stop offset="0.75" stop-color="#40a5da"/><stop offset="0.87" stop-color="#55afdd"/><stop offset="0.88" stop-color="#58b0dd"/></linearGradient><linearGradient id="linear-gradient-20" x1="6.53" y1="496.61" x2="31.39" y2="471.32" gradientUnits="userSpaceOnUse"><stop offset="0.08" stop-color="#177295"/><stop offset="0.28" stop-color="#268caf"/><stop offset="0.62" stop-color="#3cb5d6"/><stop offset="0.8" stop-color="#45c4e5"/></linearGradient><linearGradient id="linear-gradient-21" x1="19.36" y1="499.8" x2="215.39" y2="499.8" gradientUnits="userSpaceOnUse"><stop offset="0.11" stop-color="#82cff2"/><stop offset="0.2" stop-color="#7cceea"/><stop offset="0.44" stop-color="#6fcbdb"/><stop offset="0.68" stop-color="#72ccdb"/></linearGradient><linearGradient id="linear-gradient-22" x1="99.37" y1="566.12" x2="151.53" y2="443.08" gradientUnits="userSpaceOnUse"><stop offset="0.06" stop-color="#177295"/><stop offset="0.21" stop-color="#268caf"/><stop offset="0.48" stop-color="#3cb5d6"/><stop offset="0.62" stop-color="#45c4e5"/></linearGradient><linearGradient id="linear-gradient-23" x1="1025.06" y1="512.04" x2="1227.6" y2="512.04" xlink:href="#linear-gradient-14"/><linearGradient id="linear-gradient-24" x1="1102.22" y1="586.39" x2="1172.96" y2="412.33" xlink:href="#linear-gradient-15"/><linearGradient id="linear-gradient-25" x1="1192.33" y1="546.78" x2="1259" y2="546.78" xlink:href="#linear-gradient-16"/><linearGradient id="linear-gradient-26" x1="1253.88" y1="509.7" x2="1185.8" y2="603.18" xlink:href="#linear-gradient-17"/><linearGradient id="linear-gradient-27" x1="986" y1="541.87" x2="1064.88" y2="541.87" xlink:href="#linear-gradient-18"/><linearGradient id="linear-gradient-28" x1="1001.74" y1="569.23" x2="1053.43" y2="520.27" xlink:href="#linear-gradient-19"/><linearGradient id="linear-gradient-29" x1="1015.16" y1="533.43" x2="1039.22" y2="508.94" xlink:href="#linear-gradient-20"/><linearGradient id="linear-gradient-30" x1="1027.36" y1="532.54" x2="1223.39" y2="532.54" xlink:href="#linear-gradient-21"/><linearGradient id="linear-gradient-31" x1="1108.2" y1="591.37" x2="1154.52" y2="482.1" gradientUnits="userSpaceOnUse"><stop offset="0.06" stop-color="#177295"/><stop offset="0.37" stop-color="#52abc6"/><stop offset="0.62" stop-color="#7bd2e8"/><stop offset="0.75" stop-color="#8ae1f5"/></linearGradient><linearGradient id="linear-gradient-32" x1="991.6" y1="258.2" x2="1093.38" y2="156.35" gradientUnits="userSpaceOnUse"><stop offset="0.15" stop-color="#82cdd9"/><stop offset="0.82" stop-color="#d7eef4"/></linearGradient><linearGradient id="linear-gradient-33" x1="900.93" y1="-49.48" x2="1065.63" y2="-214.3" gradientTransform="matrix(0.8, -0.07, 0.09, 1, 186.78, 399.64)" gradientUnits="userSpaceOnUse"><stop offset="0.4" stop-color="#adcff1"/><stop offset="0.51" stop-color="#b9d9f5"/><stop offset="0.8" stop-color="#d2f0fc"/><stop offset="0.98" stop-color="#dbf8ff"/></linearGradient><linearGradient id="linear-gradient-34" x1="1605.85" y1="379.75" x2="1815.6" y2="169.85" gradientUnits="userSpaceOnUse"><stop offset="0.15" stop-color="#82cdd9"/><stop offset="0.9" stop-color="#d7eef4"/></linearGradient><linearGradient id="linear-gradient-35" x1="1265.01" y1="611.84" x2="1284.49" y2="565.8" gradientUnits="userSpaceOnUse"><stop offset="0.18" stop-color="#3cbbe2"/><stop offset="0.32" stop-color="#55cee6"/><stop offset="0.48" stop-color="#67dde9"/><stop offset="0.64" stop-color="#72e5ea"/><stop offset="0.81" stop-color="#76e8eb"/></linearGradient><linearGradient id="linear-gradient-36" x1="2058.71" y1="615.04" x2="2091.36" y2="537.87" gradientUnits="userSpaceOnUse"><stop offset="0" stop-color="#55b5aa"/><stop offset="0.39" stop-color="#66cfcb"/><stop offset="0.74" stop-color="#72e1e2"/><stop offset="0.96" stop-color="#76e8eb"/></linearGradient><linearGradient id="linear-gradient-37" x1="1715.26" y1="631.01" x2="1738.4" y2="576.32" xlink:href="#linear-gradient-36"/><linearGradient id="linear-gradient-38" x1="688.03" y1="561.44" x2="730.13" y2="445.7" gradientUnits="userSpaceOnUse"><stop offset="0.08" stop-color="#3cbbe1"/><stop offset="0.54" stop-color="#61d3c9"/><stop offset="0.79" stop-color="#70ddc0"/></linearGradient><linearGradient id="linear-gradient-39" x1="2395.03" y1="582.44" x2="2437.13" y2="466.7" xlink:href="#linear-gradient-38"/><linearGradient id="linear-gradient-40" x1="719.13" y1="735.07" x2="1237.3" y2="574.73" gradientUnits="userSpaceOnUse"><stop offset="0.11" stop-color="#41c361"/><stop offset="0.8" stop-color="#50ce66"/></linearGradient><linearGradient id="linear-gradient-41" x1="448.33" y1="606.9" x2="437.13" y2="33.32" gradientUnits="userSpaceOnUse"><stop offset="0.21" stop-color="#885b51"/><stop offset="0.28" stop-color="#7d4f48"/><stop offset="0.38" stop-color="#754641"/><stop offset="0.53" stop-color="#72433f"/></linearGradient><linearGradient id="linear-gradient-42" x1="355.53" y1="569.95" x2="574.03" y2="32.25" gradientUnits="userSpaceOnUse"><stop offset="0.48" stop-color="#56cb90"/><stop offset="1" stop-color="#5ccfa3"/></linearGradient><linearGradient id="linear-gradient-43" x1="919.45" y1="108.59" x2="697.48" y2="413.41" gradientUnits="userSpaceOnUse"><stop offset="0.31" stop-color="#58c585"/><stop offset="0.46" stop-color="#58bd7f"/><stop offset="0.69" stop-color="#57b479"/></linearGradient><linearGradient id="linear-gradient-44" x1="139.57" y1="344.23" x2="299.84" y2="192.44" gradientUnits="userSpaceOnUse"><stop offset="0" stop-color="#2fac76"/><stop offset="1" stop-color="#3db88f"/></linearGradient><linearGradient id="linear-gradient-45" x1="233.93" y1="251.57" x2="229.46" y2="22.75" gradientUnits="userSpaceOnUse"><stop offset="0" stop-color="#70e57e"/><stop offset="0.03" stop-color="#69e07c"/><stop offset="0.18" stop-color="#4ccb74"/><stop offset="0.32" stop-color="#36bb6f"/><stop offset="0.46" stop-color="#29b26b"/><stop offset="0.6" stop-color="#25af6a"/></linearGradient><linearGradient id="linear-gradient-46" x1="448.87" y1="497.83" x2="604.66" y2="-109.37" gradientUnits="userSpaceOnUse"><stop offset="0.02" stop-color="#0f5c49"/><stop offset="0.08" stop-color="#14624d"/><stop offset="0.17" stop-color="#207458"/><stop offset="0.28" stop-color="#35916a"/><stop offset="0.39" stop-color="#52b983"/><stop offset="0.49" stop-color="#6edf9b"/></linearGradient><linearGradient id="linear-gradient-47" x1="3169.61" y1="697.11" x2="3245.42" y2="563.61" gradientTransform="translate(-1713.14 74.46) rotate(-1.33)" gradientUnits="userSpaceOnUse"><stop offset="0" stop-color="#96e289"/><stop offset="0.95" stop-color="#9de381"/></linearGradient><linearGradient id="linear-gradient-48" x1="312.37" y1="825.53" x2="811.56" y2="383.78" gradientUnits="userSpaceOnUse"><stop offset="0.2" stop-color="#1aa74f"/><stop offset="0.32" stop-color="#1ebc55"/><stop offset="0.51" stop-color="#22d45d"/><stop offset="0.68" stop-color="#25e261"/><stop offset="0.82" stop-color="#26e763"/></linearGradient><linearGradient id="linear-gradient-49" x1="2483.31" y1="674.7" x2="2234.9" y2="533.08" gradientTransform="matrix(-1, 0, 0, 1, 4821.51, 0)" gradientUnits="userSpaceOnUse"><stop offset="0.05" stop-color="#3d9a69"/><stop offset="0.17" stop-color="#4ca56d"/><stop offset="0.51" stop-color="#74c277"/><stop offset="0.78" stop-color="#8cd47d"/><stop offset="0.95" stop-color="#95db7f"/></linearGradient><linearGradient id="linear-gradient-50" x1="2124.59" y1="602.09" x2="2198.71" y2="541.76" gradientTransform="translate(96.07 -223.06) rotate(7.6)" gradientUnits="userSpaceOnUse"><stop offset="0" stop-color="#1aa74f"/><stop offset="0.86" stop-color="#26e763"/></linearGradient><linearGradient id="linear-gradient-51" x1="220.56" y1="672.5" x2="2916.56" y2="672.5" gradientUnits="userSpaceOnUse"><stop offset="0" stop-color="#4f5a73"/><stop offset="1" stop-color="#4f5a73"/></linearGradient><linearGradient id="linear-gradient-52" x1="2331.47" y1="675.99" x2="2374.71" y2="640.8" gradientTransform="matrix(0.99, 0.17, -0.18, 1.03, 146.78, -384.72)" gradientUnits="userSpaceOnUse"><stop offset="0.18" stop-color="#108937"/><stop offset="0.43" stop-color="#52a82f"/><stop offset="0.67" stop-color="#87c128"/><stop offset="0.84" stop-color="#a9d024"/><stop offset="0.94" stop-color="#b5d622"/></linearGradient></defs><g class="cls-2"><rect class="cls-3" x="224.56" width="2696" height="692"/><path class="cls-4" d="M-35.5,367.5s113-33,223,0,410,144,694,162,438,22,840-33S2693,523.17,2693,523.17L2793.5,631.5l-2829,18.31Z" transform="translate(224.56)"/><path class="cls-5" d="M-6.87,579.36S253,488.7,478,540.35s769.78,72.77,881.39,68.21,584.77-50.86,681.19-68.21S2322,512.13,2693,591.06L2694.89,707H-2Z" transform="translate(224.56)"/><path class="cls-6" d="M2297.22,682.24c2.24-7.58-7.71-15.9-18-32.94-20.28-33.45-24.23-71.21-23.78-100.5,0,0-1.76-39.29,10-58.93a330.15,330.15,0,0,0,20-40s41.22,2,44.75,0,13.55-11.69,11.78-36.67l.59-6-10.6,3.22s-3.26,22.39-16.84,24.13c-16.19,2.43-34.69-8.36-32-24.13h-11.77s3.62,46-14.18,55.71c-13.27,3.81-21.11-2.23-20.51-29.15l.6-26.93-21.11,0s1.2,28.62,0,30.36-10.56,19.43-20.52-17c-8.44-25.67-3.62-13.31-3.62-13.31l-11.46.29s5.13,28.29,22,46c11.16,17,11.46,45.46,3,55.52-9,10.06-24.44,15.62-36.2-44.07-7.85-39.56-10-57.44-10-57.44l-16.29-.2s6.64,47.23,5.43,55.56c-1.51,9.37-2.11,38.17-37.71,26-18.48-2.95-55.48-13.56-70.89-45.45-5.73-27.07-4.52-37.48-4.52-37.48l-13.27-.38s.29,15.65,3,19.81a39.87,39.87,0,0,1-23.68-5.64c-13.66-8.21-19.18-22.09-20.67-26.2l-10.64-.48A70.34,70.34,0,0,0,1981,416.42c10.5,13.66,25.09,21.2,35.8,23,2.14.36,10.58,1.59,10.55,2,0,.11-.59.11-.59.11s2.71,40.94,45.25,59.68c38,16.31,54.6,24.64,64.25,31.23S2152.52,546,2151,568.52a202.7,202.7,0,0,0,2.71,54,192,192,0,0,0,20.82,58.12C2269,698.61,2294.13,692.65,2297.22,682.24Z" transform="translate(224.56)"/><path class="cls-7" d="M2254.84,542.93a86.73,86.73,0,0,0-25.61,26c-28.88,45.44-9.23,105.19-7,111.69l76.22,1.58a276.24,276.24,0,0,1-14.66-26.63C2263.77,614,2257,573.25,2254.84,542.93Z" transform="translate(224.56)"/><path class="cls-8" d="M2167,457s14.12,60.18,25.2,59.74C2180.71,522.85,2159.33,506.16,2167,457Z" transform="translate(224.56)"/><path class="cls-9" d="M2246,615.31a19.85,19.85,0,0,1-4.27.57,8.41,8.41,0,0,1-4.23-.89,3.66,3.66,0,0,1-1.49-1.62,5.06,5.06,0,0,1-.39-2.17,12.7,12.7,0,0,1,1.09-4.22,31.59,31.59,0,0,1,4.54-7.38,25.87,25.87,0,0,1,6.46-5.83,7.92,7.92,0,0,1,4.27-1.3,4.18,4.18,0,0,1,1.16.22c.18.07.38.13.56.21l.5.33a5.8,5.8,0,0,1,1.55,1.69,18.65,18.65,0,0,1,2.15,8.48,57.22,57.22,0,0,1-2.09,17.18l0,0,0,0a62.45,62.45,0,0,1-5.07,8.07,36.93,36.93,0,0,1-6.55,7,15.44,15.44,0,0,1-4.21,2.42,5.89,5.89,0,0,1-4.92-.23,8.83,8.83,0,0,1-3.25-3.67,22.48,22.48,0,0,1-1.7-4.5,63.28,63.28,0,0,1-1.58-18.89l.81-18.91-.32,18.93a62.83,62.83,0,0,0,1.83,18.66,22.8,22.8,0,0,0,1.69,4.32,8.1,8.1,0,0,0,2.93,3.32,5,5,0,0,0,4.22.14,14.75,14.75,0,0,0,3.94-2.29,36.46,36.46,0,0,0,6.36-6.82,68,68,0,0,0,5-8l0,.1a56.2,56.2,0,0,0,2.14-16.89,17.9,17.9,0,0,0-2-8.08,4,4,0,0,0-3.11-2.11,7.37,7.37,0,0,0-3.87,1.14,25.24,25.24,0,0,0-6.36,5.58,31.67,31.67,0,0,0-4.58,7.19,12.12,12.12,0,0,0-1.16,4.05,4.85,4.85,0,0,0,.31,2,3.39,3.39,0,0,0,1.35,1.53,8.35,8.35,0,0,0,4.1,1A19.22,19.22,0,0,0,2246,615.31Z" transform="translate(224.56)"/><path class="cls-10" d="M2378.27,288.22s91.94-24.63,132.7,50.38c26.54,58.22,31.28,77.1-132.7,66.54C2350.55,311.93,2378.27,288.22,2378.27,288.22Z" transform="translate(224.56)"/><path class="cls-11" d="M2374.32,291.43s94.41-24.63,136.27,50.38c27.25,58.22,32.12,77.1-136.27,66.54C2345.85,315.14,2374.32,291.43,2374.32,291.43Z" transform="translate(224.56)"/><path class="cls-12" d="M1974.27,278.39c3.06-23.44,11.11-58.84,35.34-87.75,63.47-75.74,184.18-42.83,230.88-30.09,99.05,27,166.37,91.76,202.76,134.39a24.76,24.76,0,0,1,3.38,22.3,22.28,22.28,0,0,1-15.56,7.45c-42.92,2.14-219.36,10.78-229.17,8.81-11.18-2.24-216.45-22.4-216.45-22.4Z" transform="translate(224.56)"/><path class="cls-13" d="M1978.33,393.21c-2.79,0-83.86-6.49-83.86-6.49s-50.32-11.9-21.43-41.1a50.38,50.38,0,0,0,18.26-17.71c5.76-9.56,4.22-14.26,7.89-23.06,11.63-27.89,50.63-37.38,50.63-37.38h0s52.89-12.31,92.24,11.84c4.39,2.69,6.55,4.15,8.22,6.66,18.2,27.32-38.4,107.24-38.4,107.24Z" transform="translate(224.56)"/><path class="cls-14" d="M1975.48,396.35c-2.83,0-84.91-6.52-84.91-6.52s-51-11.93-21.7-41.24a50.68,50.68,0,0,0,18.49-17.76c5.83-9.6,4.27-14.3,8-23.14,11.77-28,51.26-37.5,51.25-37.51h0s53.56-12.34,93.41,11.89c4.44,2.7,6.63,4.16,8.32,6.67,18.43,27.42-38.89,107.61-38.89,107.61Z" transform="translate(224.56)"/><path class="cls-15" d="M1933.39,235.85s7.78-19.83,61.32-9.76c49.64,12.32,11.68,43.67-30.66,37S1926.31,242.75,1933.39,235.85Z" transform="translate(224.56)"/><path class="cls-10" d="M1973.63,326.16s49.32-45.07,101-62.74c56.48-26.51,131.26-85.72,222-58.33,70,25.63,122.51,61,153.54,126.37,15.11,38,17.5,84-97.85,77.76l-321.39.57S1905.22,399.5,1973.63,326.16Z" transform="translate(224.56)"/><path class="cls-16" d="M1976.12,327.24s48.92-44.44,100.22-61.87c56-26.15,130.2-84.53,220.16-57.52C2365.94,233.12,2418,268,2448.8,332.47c15,37.47,17.36,82.78-97.07,76.68l-318.79.56S1908.26,399.57,1976.12,327.24Z" transform="translate(224.56)"/><path class="cls-8" d="M2342.56,411.14s1.51,25.94-9.1,36c-3.16,3.53-5.67,3.43-9.45,3.53,0,0,10.56-4,13.18-17.18a141.29,141.29,0,0,0,2.76-23.19h2.61Z" transform="translate(224.56)"/><path class="cls-8" d="M2237.29,410.08c-.42,4.55-.62,20.36-.46,23.44.73,13.48,1.56,28.85,9.17,32.81a9.23,9.23,0,0,0,5.72.83l2.87-.37c-3.54,5-6.71,5.45-7.73,5.51-6.29.33-13.65-9.06-15.44-24.2a105.23,105.23,0,0,1-1.27-21.75c.29-6,1.34-16.27,1.34-16.27h5.8Z" transform="translate(224.56)"/><polygon class="cls-17" points="206.82 685.27 2918.27 685.27 3075.82 734.38 3010.26 858.05 131.82 840.05 206.82 685.27"/><path class="cls-18" d="M152.74,647.2c.12-.33-.83-.84-1.64-2.07a8,8,0,0,1-1.1-2.79c-.71-2.94-3.49-6.5-4.41-7.81-2.9-4.18-4.28-10.44-6.55-20.82a161.08,161.08,0,0,1-2.87-17.85c-.17-10.36,1.18-18.17,4-22.67a125.08,125.08,0,0,0,7.94-15.38s16.34.78,17.74,0,5.37-4.5,4.67-14.1l.23-2.32-4.2,1.24s-1.29,8.62-6.68,9.29c-6.41.93-13.75-3.22-12.67-9.29H142.5s1.44,17.7-5.62,21.44c-5.26,1.46-8.37-.86-8.13-11.22l.24-10.36-8.37,0s.48,11,0,11.68-4.19,7.47-8.13-6.55c-3.35-9.87-1.44-5.12-1.44-5.12l-4.54.11s2,10.89,8.73,17.7c4.42,6.54,4.54,17.49,1.19,21.36-3.59,3.87-9.68,6-14.35-17-3.11-15.22-4-22.1-4-22.1l-6.45-.07s2.63,18.17,2.15,21.37c-.6,3.61-.84,14.69-15,10-7.33-1.13-22-5.21-28.1-17.48C48.5,546,49,542,49,542l-5.26-.15s.12,6,1.2,7.62a16.14,16.14,0,0,1-9.39-2.17,19.64,19.64,0,0,1-8.19-10.08l-4.22-.18a26.53,26.53,0,0,0,4.25,7.85,24.33,24.33,0,0,0,14.2,8.86,36.39,36.39,0,0,1,4.18.76s-.24,0-.24,0,1.08,15.75,17.94,23c15.07,6.27,21.65,9.48,25.48,12s6.45,5.21,5.86,13.89a75.6,75.6,0,0,0,1.07,20.76,72.67,72.67,0,0,0,8.25,22.36c13,.45,21.27.49,26.6.44,10.69-.11,16.78-.7,20,.13C150.71,647.15,152.59,647.63,152.74,647.2Z" transform="translate(224.56)"/><path class="cls-19" d="M135.94,593.6a33.94,33.94,0,0,0-10.15,10c-11.45,17.48-3.66,40.47-2.77,43l30.21.61A106.18,106.18,0,0,1,147.42,637,116.74,116.74,0,0,1,135.94,593.6Z" transform="translate(224.56)"/><path class="cls-20" d="M101.11,560.53s5.6,23.15,10,23C106.56,585.88,98.08,579.45,101.11,560.53Z" transform="translate(224.56)"/><path class="cls-21" d="M132.44,621.45a8.38,8.38,0,0,1-1.66.21,3.52,3.52,0,0,1-1.65-.31,1.48,1.48,0,0,1-.78-1.43,2.38,2.38,0,0,1,.13-.84,4.2,4.2,0,0,1,.28-.8,11.7,11.7,0,0,1,1.79-2.85,10.22,10.22,0,0,1,2.54-2.23,3.57,3.57,0,0,1,1.64-.53,1.86,1.86,0,0,1,1.5.86,6.79,6.79,0,0,1,.91,3.27,21.52,21.52,0,0,1-.81,6.68v0a18.67,18.67,0,0,1-4.59,5.75,6.56,6.56,0,0,1-1.63.93,2.39,2.39,0,0,1-1.89,0,4.83,4.83,0,0,1-2-3.08,23.71,23.71,0,0,1-.68-7.31l.33-7.33-.14,7.34a23.42,23.42,0,0,0,.74,7.23,4.62,4.62,0,0,0,1.89,2.89,2.15,2.15,0,0,0,1.67,0,6.46,6.46,0,0,0,1.54-.9,19,19,0,0,0,4.46-5.67l0,0a20.88,20.88,0,0,0,.86-6.56,6.44,6.44,0,0,0-.83-3.13,1.52,1.52,0,0,0-1.27-.75,3.29,3.29,0,0,0-1.52.47,11.5,11.5,0,0,0-4.29,4.94,3.58,3.58,0,0,0-.29.77,2.46,2.46,0,0,0-.15.8,1.37,1.37,0,0,0,.7,1.35A5.25,5.25,0,0,0,132.44,621.45Z" transform="translate(224.56)"/><path class="cls-22" d="M17.06,491c1.3-10,4.72-25.05,15-37.37,27.83-33.26,81.12-17.78,98.17-12.81,42.09,12.26,69.36,41.67,82.73,58.78l6.62,5.49a520,520,0,0,1-105.76,9.38,519.83,519.83,0,0,1-92-9.54Z" transform="translate(224.56)"/><path class="cls-23" d="M17.43,490.43c1.29-9.61,4.68-24.12,14.87-36,27.54-32,80.27-17.12,97.14-12.33,41.65,11.8,68.64,40.11,81.86,56.58l6.56,5.29a528.41,528.41,0,0,1-104.66,9,527.85,527.85,0,0,1-91.06-9.19Z" transform="translate(224.56)"/><path class="cls-24" d="M189.5,496s38.53-9.32,55.62,19.07c11.12,22,13.11,29.18-55.62,25.18C177.88,505,189.5,496,189.5,496Z" transform="translate(224.56)"/><path class="cls-25" d="M190.5,496.84s37.43-9.47,54,19.39c10.81,22.4,12.73,29.66-54,25.6C179.21,506,190.5,496.84,190.5,496.84Z" transform="translate(224.56)"/><path class="cls-26" d="M25.48,536.49c-1.16,0-34.85-2.5-34.85-2.5s-20.91-4.58-8.91-15.82a20.27,20.27,0,0,0,7.59-6.81c2.39-3.68,1.75-5.49,3.28-8.88,4.83-10.73,21-14.38,21-14.38h0s22-4.74,38.33,4.56c1.83,1,2.73,1.59,3.42,2.56,7.56,10.51-16,41.27-16,41.27Z" transform="translate(224.56)"/><path class="cls-27" d="M25.2,537.21c-1.13,0-33.67-2.51-33.67-2.51s-20.19-4.59-8.6-15.86A19.79,19.79,0,0,0-9.74,512c2.31-3.69,1.7-5.5,3.17-8.9,4.67-10.76,20.32-14.43,20.32-14.43h0s21.23-4.75,37,4.57c1.76,1,2.63,1.6,3.3,2.57,7.3,10.55-15.42,41.4-15.42,41.4Z" transform="translate(224.56)"/><path class="cls-28" d="M8.39,475s3.18-7.85,25.08-3.86c20.31,4.88,4.78,17.29-12.54,14.63S5.49,477.68,8.39,475Z" transform="translate(224.56)"/><path class="cls-29" d="M8.51,475.46s3.09-7.63,24.31-3.75c19.68,4.74,4.63,16.8-12.15,14.21S5.7,478.12,8.51,475.46Z" transform="translate(224.56)"/><path class="cls-30" d="M27.28,508.1s19.17-16.82,39.27-23.41c22-9.9,51-32,86.28-21.77,27.22,9.56,47.63,22.76,59.69,47.16,5.87,14.18,6.8,31.33-38,29l-124.93.21S.69,535.47,27.28,508.1Z" transform="translate(224.56)"/><path class="cls-31" d="M25.45,510.62s19.4-17.1,39.73-23.8c22.21-10.06,51.62-32.52,87.28-22.13,27.53,9.72,48.18,23.13,60.38,47.94,5.94,14.42,6.88,31.85-38.48,29.51L48,542.35S-1.45,538.45,25.45,510.62Z" transform="translate(224.56)"/><path class="cls-32" d="M170.72,542.9s.6,10-3.61,13.86c-1.25,1.35-2.24,1.32-3.74,1.35a9,9,0,0,0,5.22-6.61,53.45,53.45,0,0,0,1.1-8.91h1Z" transform="translate(224.56)"/><path class="cls-32" d="M129,542.49c-.17,1.75-.25,7.84-.18,9,.29,5.19.62,11.1,3.63,12.62a3.75,3.75,0,0,0,2.27.32l1.14-.14c-1.41,1.93-2.66,2.1-3.07,2.12-2.49.13-5.41-3.49-6.12-9.31a39.39,39.39,0,0,1-.5-8.37c.11-2.32.53-6.26.53-6.26H129Z" transform="translate(224.56)"/><path class="cls-18" d="M1160.74,648.24c.12-.26-.83-.66-1.64-1.62a5.6,5.6,0,0,1-1.1-2.2c-.71-2.31-3.49-5.1-4.41-6.13-2.9-3.28-4.28-8.19-6.55-16.34a101.74,101.74,0,0,1-2.87-14c-.17-8.13,1.18-14.26,4-17.8a92.23,92.23,0,0,0,7.94-12.06s16.34.61,17.74,0,5.37-3.54,4.67-11.08l.23-1.81-4.2,1s-1.29,6.76-6.68,7.29c-6.41.73-13.75-2.53-12.67-7.29h-4.67s1.44,13.89-5.62,16.82c-5.26,1.16-8.37-.67-8.13-8.8l.24-8.13h-8.37s.48,8.65,0,9.17-4.19,5.87-8.13-5.14c-3.35-7.75-1.44-4-1.44-4l-4.54.08s2,8.55,8.73,13.89c4.42,5.13,4.54,13.73,1.19,16.77-3.59,3-9.68,4.71-14.35-13.31-3.11-12-3.95-17.35-3.95-17.35l-6.45-.06s2.63,14.26,2.15,16.78c-.6,2.83-.84,11.53-14.95,7.86-7.33-.89-22-4.1-28.1-13.73-2.28-8.17-1.8-11.32-1.8-11.32l-5.26-.11s.12,4.72,1.2,6a19.92,19.92,0,0,1-9.39-1.7,16.57,16.57,0,0,1-8.19-7.92l-4.22-.14a20.06,20.06,0,0,0,4.25,6.16,26,26,0,0,0,14.2,6.95c.84.11,4.19.49,4.18.6s-.24,0-.24,0,1.08,12.37,17.94,18c15.07,4.92,21.65,7.44,25.48,9.43s6.45,4.08,5.86,10.9a46.78,46.78,0,0,0,1.07,16.29,50.22,50.22,0,0,0,8.25,17.55c13,.36,21.27.39,26.6.35,10.69-.09,16.78-.55,20,.1C1158.71,648.2,1160.59,648.58,1160.74,648.24Z" transform="translate(224.56)"/><path class="cls-19" d="M1143.94,606.17a31.6,31.6,0,0,0-10.15,7.86c-11.45,13.72-3.66,31.76-2.77,33.72l30.21.48a80.47,80.47,0,0,1-5.81-8A76.51,76.51,0,0,1,1143.94,606.17Z" transform="translate(224.56)"/><path class="cls-20" d="M1109.11,580.21s5.6,18.17,10,18C1114.56,600.1,1106.08,595.06,1109.11,580.21Z" transform="translate(224.56)"/><path class="cls-21" d="M1140.44,628a7.6,7.6,0,0,1-2.89.07,1.49,1.49,0,0,1-1.16-.85,2.07,2.07,0,0,1,.23-1.45,10.24,10.24,0,0,1,4.12-4.08,5.86,5.86,0,0,1,1.38-.52,2.29,2.29,0,0,1,1.5.14,3.25,3.25,0,0,1,1.44,2.53,12.47,12.47,0,0,1-.76,5.77v0l0,0a16.12,16.12,0,0,1-4.37,4.38,5.28,5.28,0,0,1-3,1,2.94,2.94,0,0,1-2.42-1.85,12.91,12.91,0,0,1-1-6.07l.33-6.16-.16,6.17a12.62,12.62,0,0,0,1.06,6,2.7,2.7,0,0,0,2.24,1.69,5.09,5.09,0,0,0,2.79-1,16.67,16.67,0,0,0,4.26-4.32l0,0a12.19,12.19,0,0,0,.8-5.62,3,3,0,0,0-1.29-2.35,3.1,3.1,0,0,0-2.66.36,10.05,10.05,0,0,0-4.07,4,1.89,1.89,0,0,0-.27,1.34,1.38,1.38,0,0,0,1.07.81A7.69,7.69,0,0,0,1140.44,628Z" transform="translate(224.56)"/><path class="cls-33" d="M1025.06,525.63c1.3-7.84,4.72-19.67,15-29.33,27.83-26.11,81.12-14,98.17-10.06A170.28,170.28,0,0,1,1221,532.38l6.62,4.31a658.53,658.53,0,0,1-105.76,7.36,658.51,658.51,0,0,1-92-7.49Z" transform="translate(224.56)"/><path class="cls-34" d="M1025.43,525.19c1.29-7.54,4.68-18.93,14.87-28.24,27.54-25.13,80.27-13.43,97.14-9.68a169.6,169.6,0,0,1,81.86,44.42l6.56,4.15a670.53,670.53,0,0,1-104.66,7.08,668.47,668.47,0,0,1-91.06-7.21Z" transform="translate(224.56)"/><path class="cls-35" d="M1197.5,529.57s38.53-7.32,55.62,15c11.12,17.3,13.11,22.9-55.62,19.77C1185.88,536.62,1197.5,529.57,1197.5,529.57Z" transform="translate(224.56)"/><path class="cls-36" d="M1198.5,530.22s37.43-7.44,54,15.21c10.81,17.59,12.73,23.29-54,20.1C1187.21,537.38,1198.5,530.22,1198.5,530.22Z" transform="translate(224.56)"/><path class="cls-37" d="M1033.48,561.34c-1.16,0-34.85-2-34.85-2s-20.91-3.6-8.91-12.42a19.54,19.54,0,0,0,7.59-5.35c2.39-2.89,1.75-4.3,3.28-7,4.83-8.43,21-11.29,21-11.29h0s22-3.72,38.33,3.57a9.87,9.87,0,0,1,3.42,2c7.56,8.26-16,32.4-16,32.4Z" transform="translate(224.56)"/><path class="cls-38" d="M1033.2,561.9c-1.13,0-33.67-2-33.67-2s-20.19-3.61-8.6-12.46a18.87,18.87,0,0,0,7.33-5.36c2.31-2.9,1.7-4.32,3.17-7,4.67-8.45,20.32-11.32,20.32-11.33h0s21.23-3.72,37,3.59a9.41,9.41,0,0,1,3.3,2c7.3,8.28-15.42,32.49-15.42,32.49Z" transform="translate(224.56)"/><path class="cls-28" d="M1016.39,513s3.18-6.17,25.08-3c20.31,3.83,4.78,13.57-12.54,11.49S1013.49,515.18,1016.39,513Z" transform="translate(224.56)"/><path class="cls-39" d="M1016.51,513.44s3.09-6,24.31-3c19.68,3.72,4.63,13.19-12.15,11.16S1013.7,515.52,1016.51,513.44Z" transform="translate(224.56)"/><path class="cls-40" d="M1035.28,539.06s19.17-13.21,39.27-18.38c22-7.77,51-25.11,86.28-17.09,27.22,7.51,47.63,17.86,59.69,37,5.87,11.13,6.8,24.59-38,22.78l-124.93.16S1008.69,560.54,1035.28,539.06Z" transform="translate(224.56)"/><path class="cls-41" d="M1033.45,541s19.4-13.42,39.73-18.68c22.21-7.89,51.62-25.53,87.28-17.37,27.53,7.63,48.18,18.16,60.38,37.63,5.94,11.32,6.88,25-38.48,23.16l-126.39.17S1006.55,562.88,1033.45,541Z" transform="translate(224.56)"/><path class="cls-32" d="M1178.72,566.37s.6,7.83-3.61,10.88c-1.25,1.06-2.24,1-3.74,1.06,0,0,4.18-1.19,5.22-5.19a33.4,33.4,0,0,0,1.1-7h1Z" transform="translate(224.56)"/><path class="cls-32" d="M1137,566.05c-.17,1.37-.25,6.15-.18,7.08.29,4.07.62,8.71,3.63,9.91a4.82,4.82,0,0,0,2.27.25l1.14-.12a4.48,4.48,0,0,1-3.07,1.67c-2.49.1-5.41-2.74-6.12-7.31a24.36,24.36,0,0,1-.5-6.57c.11-1.82.53-4.91.53-4.91h2.3Z" transform="translate(224.56)"/><path class="cls-42" d="M989,200.21s2.09-13.77,28.51-23.18,48.66-14.49,71.6-3.63,18.08,35.5,13.21,38.39c-9.45,5.63-29.8,13-84.12,5.8C985.51,213.24,989,200.21,989,200.21Z" transform="translate(224.56)"/><path class="cls-43" d="M891.82,178.77s5.1-26.65,47-40.35,69.22-20.09,93.79,7,14.24,70-2.25,74.63-85.84,5.56-128.32-14C902,206.11,886.81,197.35,891.82,178.77Z" transform="translate(224.56)"/><path class="cls-44" d="M1601.36,260.49s4.26-29.34,58.19-49.42,99.34-30.89,146.17-7.72,36.9,75.67,27,81.85c-19.29,12-60.83,27.76-171.72,12.36C1594.26,288.29,1601.36,260.49,1601.36,260.49Z" transform="translate(224.56)"/><path class="cls-45" d="M1260.58,594.84a16.9,16.9,0,0,0,2.3,5,10.19,10.19,0,0,0,3.62,3.76,13.45,13.45,0,0,0,4.84,1.57v-10l3.58.09v6.15s7.89.78,9-5.92H1285s.94,7.66-9.91,8.55l-.73,28.19H1271l.14-23.25a22.77,22.77,0,0,1-6.66-4,14.16,14.16,0,0,1-5.19-10.23h.7Z" transform="translate(224.56)"/><path class="cls-46" d="M1248,583s33.68-9,54,0c17.09,8.32,8.17,12.19-12.08,12.19-17.94-.13-39.9-1.1-39.9-1.1S1225.65,591.39,1248,583Z" transform="translate(224.56)"/><path class="cls-47" d="M1247.07,583.42s33.68-8.92,54,0c19.58,9.44,5.67,12.07-12.08,12.07-17.94-.13-39.9-1.09-39.9-1.09S1224.74,591.72,1247.07,583.42Z" transform="translate(224.56)"/><path class="cls-45" d="M2051.29,586.55a28.2,28.2,0,0,0,3.85,8.38c1.79,2.67,3.13,4.61,6.07,6.31a22.44,22.44,0,0,0,8.11,2.62V587.1l6,.15v10.31s13.22,1.32,15.05-9.92h1.83s1.57,12.84-16.61,14.34l-1.23,47.25h-5.54l.23-39a38.33,38.33,0,0,1-11.18-6.61c-7.74-6.78-8.58-14.35-8.69-17.16l1.17,0Z" transform="translate(224.56)"/><path class="cls-46" d="M2030.16,566.71s56.45-15.09,90.5,0c28.65,13.94,13.69,20.43-20.24,20.43-30.07-.22-66.89-1.84-66.89-1.84S1992.73,580.76,2030.16,566.71Z" transform="translate(224.56)"/><path class="cls-48" d="M2028.64,567.4s56.46-14.95,90.51,0c32.83,15.83,9.51,20.24-20.25,20.24-30.06-.22-66.88-1.82-66.88-1.82S1991.21,581.33,2028.64,567.4Z" transform="translate(224.56)"/><path class="cls-45" d="M1710,610.81a20,20,0,0,0,2.73,5.94,12.19,12.19,0,0,0,4.3,4.47,15.66,15.66,0,0,0,5.75,1.86V611.21l4.25.1v7.31s9.37.93,10.67-7h1.3s1.11,9.09-11.77,10.16l-.88,33.48h-3.92l.16-27.62a27.07,27.07,0,0,1-7.92-4.69,16.88,16.88,0,0,1-6.16-12.16l.83,0Z" transform="translate(224.56)"/><path class="cls-46" d="M1695,596.75s40-10.69,64.13,0c20.3,9.89,9.7,14.48-14.35,14.48-21.3-.16-47.39-1.3-47.39-1.3S1668.5,606.71,1695,596.75Z" transform="translate(224.56)"/><path class="cls-49" d="M1694,597.24s40-10.59,64.14,0c23.26,11.22,6.74,14.35-14.35,14.35-21.31-.16-47.39-1.29-47.39-1.29S1667.43,607.11,1694,597.24Z" transform="translate(224.56)"/><path class="cls-50" d="M667.61,535.79a27.73,27.73,0,0,0,6.4,16.64c10,12,26.84,11.61,28.62,11.54l-.54-26.61,10.34.4v14.73A24.23,24.23,0,0,0,725.6,551a21.41,21.41,0,0,0,11.81-12.46l4.32.11c-.88,2.42-1.75,4.83-2.62,7.25A17.81,17.81,0,0,0,751,547.45a16.32,16.32,0,0,0,10.83-8.38H765s-2.1,16.8-27.34,11.19c-4.59,5.88-15.34,12.16-25.26,9,.57,18.27,3.9,89.78,3.9,89.78H704.65q-1-39.21-2-78.41c-2.9-.11-16.7-.89-27.71-11.27a35.79,35.79,0,0,1-11.34-24.2Z" transform="translate(224.56)"/><path class="cls-51" d="M635.11,496.36s89.27-30.45,143.12,0c45.75,29.72-1.21,42.4-32,41.21-47.54-.45-105.76-3.71-105.76-3.71S575.92,524.71,635.11,496.36Z" transform="translate(224.56)"/><path class="cls-50" d="M2374.61,556.79a27.73,27.73,0,0,0,6.4,16.64c10,12,26.84,11.61,28.62,11.54l-.54-26.61,10.34.4v14.73A24.23,24.23,0,0,0,2432.6,572a21.41,21.41,0,0,0,11.81-12.46l4.32.11c-.88,2.42-1.75,4.83-2.62,7.25a17.81,17.81,0,0,0,11.84,1.54,16.32,16.32,0,0,0,10.83-8.38H2472s-2.1,16.8-27.34,11.19c-4.59,5.88-15.34,12.16-25.26,9,.57,18.27,3.9,89.78,3.9,89.78h-11.65q-1-39.21-2-78.41c-2.9-.11-16.7-.89-27.71-11.27a35.79,35.79,0,0,1-11.34-24.2Z" transform="translate(224.56)"/><path class="cls-52" d="M2342.11,517.36s89.27-30.45,143.12,0c45.75,29.72-1.21,42.4-32,41.21-47.54-.45-105.76-3.71-105.76-3.71S2282.92,545.71,2342.11,517.36Z" transform="translate(224.56)"/><path class="cls-53" d="M682.72,626.3s-22.84-30.23,34.77-38.51c42-6,58.73,2.78,58.73,2.78S807,570.56,843,572s67.48,23.21,67.48,23.21S955,580,991,589c0,0,29,10,23.76,20,0,0,80.24-24,113.88,17.27,0,0,61.13-2.89,71.92,17.11,0,0,123.9-8.78,103.9,16.28,0,0,113.8,4.41,86.23,16.94l-103.83,4.21L695.91,663.41Z" transform="translate(224.56)"/><path class="cls-54" d="M605.42,647.43c.34-.93-2.43-2.41-4.8-5.93a22.86,22.86,0,0,1-3.18-8c-2.08-8.45-10.15-18.68-12.81-22.45-8.46-12-12.45-30-19.07-59.84a461.81,461.81,0,0,1-8.35-51.3c-.48-29.77,3.45-52.21,11.54-65.16a357.72,357.72,0,0,0,23.09-44.19s47.53,2.25,51.6,0S659.06,377.59,657,350l.68-6.65-12.22,3.57s-3.76,24.76-19.41,26.68c-18.67,2.68-40-9.24-36.87-26.68H575.63s4.18,50.85-16.34,61.59c-15.31,4.22-24.35-2.46-23.65-32.23l.69-29.77-24.35,0s1.4,31.65,0,33.57-12.17,21.49-23.65-18.8c-9.74-28.39-4.17-14.72-4.17-14.72l-13.22.32s5.91,31.28,25.39,50.85c12.87,18.8,13.22,50.26,3.48,61.39-10.43,11.13-28.17,17.27-41.74-48.73-9-43.74-11.47-63.51-11.47-63.51l-18.79-.22s7.66,52.22,6.26,61.43c-1.74,10.36-2.43,42.21-43.47,28.78-21.31-3.27-64-15-81.74-50.27-6.61-29.93-5.22-41.44-5.22-41.44l-15.29-.41s.34,17.3,3.47,21.9a47.6,47.6,0,0,1-27.3-6.24c-15.75-9.07-22.12-24.42-23.83-29l-12.27-.53A77,77,0,0,0,240.8,353.5c12.1,15.1,28.93,23.44,41.28,25.45,2.46.4,12.2,1.76,12.16,2.18,0,.12-.68.12-.68.12s3.13,45.28,52.17,66c43.82,18,62.95,27.24,74.08,34.53s18.79,15,17.05,39.9A214.93,214.93,0,0,0,440,581.35a207,207,0,0,0,24,64.27c37.65,1.29,61.84,1.42,77.35,1.26,31.1-.31,48.8-2,58.11.39C599.5,647.28,605,648.67,605.42,647.43Z" transform="translate(224.56)"/><path class="cls-55" d="M556.56,493.39A97.79,97.79,0,0,0,527,522.17c-33.29,50.24-10.64,116.31-8.07,123.49l87.88,1.75A300.76,300.76,0,0,1,589.94,618C566.85,571.91,559,526.91,556.56,493.39Z" transform="translate(224.56)"/><path class="cls-56" d="M455.25,398.33s16.29,66.53,29.05,66.05C471.1,471.18,446.44,452.72,455.25,398.33Z" transform="translate(224.56)"/><path class="cls-57" d="M546.38,573.42a23.45,23.45,0,0,1-4.8.61,10.32,10.32,0,0,1-4.77-.85A4.37,4.37,0,0,1,535,571.5a4.81,4.81,0,0,1-.58-2.4,12.56,12.56,0,0,1,1.19-4.75,34.68,34.68,0,0,1,5.22-8.22,34,34,0,0,1,3.4-3.5,23.3,23.3,0,0,1,3.94-2.93,10.41,10.41,0,0,1,4.75-1.56,8.31,8.31,0,0,1,1.31.13l.63.21.32.11.29.17a4.59,4.59,0,0,1,1,.79l.47.46c.14.16.25.34.38.51a13.29,13.29,0,0,1,2,4.58,27.65,27.65,0,0,1,.72,4.87,60.16,60.16,0,0,1-2.39,19.29l0,.06,0,0a68.92,68.92,0,0,1-5.83,8.91,41.82,41.82,0,0,1-7.47,7.63,18.71,18.71,0,0,1-4.71,2.68,7.25,7.25,0,0,1-5.51,0,9.28,9.28,0,0,1-3.91-3.86,25.56,25.56,0,0,1-2.06-5,66.15,66.15,0,0,1-1.95-21.09l.94-21.13-.38,21.15A65.55,65.55,0,0,0,529,589.52a25.66,25.66,0,0,0,2,4.75,8.25,8.25,0,0,0,3.49,3.46,6.27,6.27,0,0,0,4.79-.07,17.69,17.69,0,0,0,4.43-2.55,41.05,41.05,0,0,0,7.24-7.48,75.1,75.1,0,0,0,5.72-8.78l0,.12A59.4,59.4,0,0,0,559.09,560a26.48,26.48,0,0,0-.67-4.7,12.12,12.12,0,0,0-1.81-4.25,4.36,4.36,0,0,0-3.68-2.05,9.62,9.62,0,0,0-4.36,1.38,22.14,22.14,0,0,0-3.85,2.78,35,35,0,0,0-8.64,11.37,12.22,12.22,0,0,0-1.28,4.54,4.46,4.46,0,0,0,.48,2.25,4,4,0,0,0,1.65,1.6,10.11,10.11,0,0,0,4.65.95A23.47,23.47,0,0,0,546.38,573.42Z" transform="translate(224.56)"/><path class="cls-58" d="M212.92,193.07c3.75-27.5,13.61-69,43.3-102.92,80.2-91.61,233.79-49,282.92-35.3C654.68,87,744.8,176.65,777.55,216.75l19.11,15.12a1565.49,1565.49,0,0,1-304.81,25.84,1565.71,1565.71,0,0,1-265.24-26.28Z" transform="translate(224.56)"/><path class="cls-59" d="M211.89,196.87c3.75-27.62,13.6-69.33,43.24-103.39,80.09-92,233.45-49.2,282.51-35.46C658.77,92,737.26,173.31,775.72,220.66q9.53,7.6,19.07,15.19a1554,1554,0,0,1-304.37,26,1554.14,1554.14,0,0,1-264.85-26.39Z" transform="translate(224.56)"/><path class="cls-58" d="M717.27,214.27S826.13,187,874.38,270c31.43,64.37,37,85.25-157.11,73.57C684.45,240.48,717.27,214.27,717.27,214.27Z" transform="translate(224.56)"/><path class="cls-60" d="M715.22,215.29S824.08,188.06,872.33,271c31.43,64.38,37,85.26-157.11,73.58C682.4,241.51,715.22,215.29,715.22,215.29Z" transform="translate(224.56)"/><path class="cls-58" d="M237.66,328c-3.19,0-95.73-7.12-95.73-7.12s-57.43-13.05-24.46-45.08a56.52,56.52,0,0,0,20.85-19.43c6.57-10.49,4.81-15.63,9-25.29,13.28-30.59,57.79-41,57.79-41h0s60.37-13.5,105.3,13c5,2.95,7.47,4.54,9.38,7.3C340.57,240.32,276,328,276,328Z" transform="translate(224.56)"/><path class="cls-61" d="M234.47,331.3c-3.26,0-97.9-7.2-97.9-7.2s-58.74-13.2-25-45.6a57.41,57.41,0,0,0,21.32-19.65c6.72-10.6,4.92-15.81,9.21-25.58,13.57-30.93,59.1-41.47,59.1-41.47h0s61.74-13.65,107.69,13.14c5.12,3,7.64,4.6,9.59,7.38,21.25,30.32-44.83,119-44.83,119Z" transform="translate(224.56)"/><path class="cls-62" d="M185.94,153.84s9-21.93,70.7-10.79c57.24,13.62,13.47,48.28-35.35,40.85S177.78,161.46,185.94,153.84Z" transform="translate(224.56)"/><path class="cls-58" d="M238.38,248.82s56.07-48.18,114.84-67.07c64.21-28.34,149.21-91.63,252.3-62.35C685.09,146.8,744.77,184.58,780,254.49c17.18,40.62,19.9,89.74-111.22,83.13l-365.33.6S160.61,327.23,238.38,248.82Z" transform="translate(224.56)"/><path class="cls-63" d="M235.21,254.89s56.41-49.14,115.54-68.42c64.6-28.9,150.12-93.46,253.84-63.59,80.06,27.94,140.11,66.49,175.59,137.79,17.29,41.43,20,91.54-111.9,84.79l-367.57.62S157,334.87,235.21,254.89Z" transform="translate(224.56)"/><path class="cls-56" d="M657.7,347.66s1.74,28.69-10.49,39.83c-3.65,3.9-6.54,3.8-10.9,3.9a26,26,0,0,0,15.2-19,150.05,150.05,0,0,0,3.18-25.63h3Z" transform="translate(224.56)"/><path class="cls-56" d="M536.33,346.49c-.48,5-.72,22.51-.53,25.92.84,14.91,1.8,31.89,10.57,36.28a11,11,0,0,0,6.59.91l3.32-.41c-4.08,5.56-7.74,6-8.91,6.09-7.26.38-15.74-10-17.82-26.75a112.44,112.44,0,0,1-1.46-24c.34-6.68,1.55-18,1.55-18h6.69Z" transform="translate(224.56)"/><path class="cls-64" d="M1196.43,661.83s-53.9-8.31,37-14.3c0,0-40.3-3.1-10.09-9.74,0,0,30.69-18.59,70.43-6.4,0,0,50.68-26.95,106.11-6.34,0,0,34.5-15.66,81.46-7.41,32.37,5.69,33.25,19.71,33.25,19.71s35.94-18.34,85.21-.92c0,0,35.61-10.45,63.18,5.26,0,0,46.77-16,90,3.59,0,0,67.82-2.75,58.46,3.56l-5.77,3L1207,665.72Z" transform="translate(224.56)"/><path class="cls-65" d="M113.69,645.82S40.51,624.61,164.6,616c0,0-20.71-20.81,20.66-34,0,0,26-8,62.06,1.32,0,0,50.94-45.32,144.77-8.61,0,0,43.85-15,93.17-4.71S548,607.91,548,607.91s53.27-35.91,116.14,2.36c0,0,56.13-16.27,85.9,14.91,0,0,82.23-17.18,122.5,12.62,0,0,101.81-2.3,79.54,10.89L913.89,655l-782.7-5.16Z" transform="translate(224.56)"/><path class="cls-66" d="M2800.82,648.89s73.18-14.12-50.9-19.85c0,0,20.7-13.86-20.66-22.64,0,0-26-5.32-62.07.88,0,0-50.93-30.17-144.77-5.73,0,0-43.85-10-93.16-3.13s-62.74,25.23-62.74,25.23-53.26-23.9-116.13,1.57c0,0-56.13-10.83-85.91,9.93,0,0-82.22-11.44-122.5,8.4,0,0-101.81-1.53-79.54,7.25l38.18,4.2,782.7-3.44Z" transform="translate(224.56)"/><path class="cls-67" d="M2151.91,652.51s-22.9.11-34.48-7.74,16.34-4.13,38.72-.36c0,0-2.08-1.85-19.44-10.87s-12.41-16.23,1.29-9.68,27.34,16.72,27.34,16.72-24.9-20.33-25.16-24.31,4.49-4.13,27.52,21.4c0,0-21.22-21.35-16.67-31.78s20.52,29.54,20.52,29.54-14-42.86-4.29-44.72,7.7,42.81,7.7,42.81,9.62-24.73,24.55-24.32-19.33,26.59-22.53,26.95c0,0,1.34,1.75,6.2.83s18.61-14.11,26.41-14.61c8-.52,19.33,8.88-26.05,29.63Z" transform="translate(224.56)"/><path class="cls-68" d="M2261.08,645.77s13.28-13.51,16.87-12.24-3.65-11.93-14.36,2.9C2259.28,642.4,2261.08,645.77,2261.08,645.77Z" transform="translate(224.56)"/><path class="cls-68" d="M2258.21,645.77s5.58-30.79,11.58-33.95-9.54-7.9-12.66,12.86C2255,639,2258.21,645.77,2258.21,645.77Z" transform="translate(224.56)"/><path class="cls-68" d="M2256.39,645.77S2250,623.84,2237,623s19.37,24,19.37,24" transform="translate(224.56)"/><path class="cls-68" d="M2454.08,645.31s13.28-7.84,16.87-7.1-3.65-6.91-14.36,1.69C2452.28,643.35,2454.08,645.31,2454.08,645.31Z" transform="translate(224.56)"/><path class="cls-68" d="M2451.21,645.31s5.58-17.84,11.58-19.68-9.54-4.57-12.66,7.46C2448,641.4,2451.21,645.31,2451.21,645.31Z" transform="translate(224.56)"/><path class="cls-68" d="M2449.39,645.31S2443,632.6,2430,632.11,2449.39,646,2449.39,646" transform="translate(224.56)"/><rect class="cls-69" x="220.56" y="644" width="2696" height="57"/><path class="cls-70" d="M2344.14,703.84s-13.31-.28-19.82-5.34,9.61-2.33,22.5.36c0,0-1.15-1.19-11-7.06s-6.76-10.3,1-6a108.54,108.54,0,0,1,15.42,10.82s-13.91-13-13.95-15.51,2.73-2.51,15.4,13.74c0,0-11.73-13.62-8.8-20s11.1,18.7,11.1,18.7-6.95-26.9-1.25-27.91,3.28,26.77,3.28,26.77,6.27-15.25,14.94-14.77-12,16.26-13.84,16.44c0,0,.73,1.11,3.58.61s11.2-8.5,15.75-8.7,11,5.82-15.95,18.06Z" transform="translate(224.56)"/><path class="cls-71" d="M2131.76,705s-11.14-7.28-21.43-7.73,4-6.19,18,2.27C2134.34,703.14,2131.76,705,2131.76,705Z" transform="translate(224.56)"/><path class="cls-71" d="M2134.05,705s-4-16.36-13.43-20,12.51-4.92,16.29,9.09C2139.48,703.59,2134.05,705,2134.05,705Z" transform="translate(224.56)"/><path class="cls-71" d="M2137.6,705a25.42,25.42,0,0,1,21.6-13.18C2174.64,691.32,2137.6,705,2137.6,705Z" transform="translate(224.56)"/><path class="cls-71" d="M430.53,700.19s-10.61-7.86-20.4-8.35,3.83-6.7,17.13,2.45C433,698.22,430.53,700.19,430.53,700.19Z" transform="translate(224.56)"/><path class="cls-71" d="M432.7,700.19s-3.8-20.61-12.78-25.19,11.91-6.2,15.51,11.45C437.87,698.47,432.7,700.19,432.7,700.19Z" transform="translate(224.56)"/><path class="cls-71" d="M436.08,700.19s5.87-13.76,20.56-14.25S436.08,700.19,436.08,700.19Z" transform="translate(224.56)"/><path class="cls-72" d="M-30.74,766.27s63-20,190,9c119.76,27.35,510.61,43,553.08,44.84,2.6.11,5.19.1,7.79,0l548.13-28.8s-29-20-39-19c0,0,13-14,51,11,0,0-9-28,0-33s8,30,8,30,169.51-30,529.25,8l396.61,27-328.86,101L5.15,861.27Z" transform="translate(224.56)"/><path class="cls-73" d="M87.68,813.07s-4.38-28.14,11.9-35S87.68,813.07,87.68,813.07Z" transform="translate(224.56)"/><path class="cls-73" d="M156.54,810s-18.15-21.26-24.41-22.51,2.5-13.76,20.65,4.37C152.78,791.81,158.42,800.57,156.54,810Z" transform="translate(224.56)"/><path class="cls-73" d="M161.23,810s-7.57-36.9-17.71-53.15,10.51-10.63,17.71,16.88S161.23,810,161.23,810Z" transform="translate(224.56)"/><path class="cls-73" d="M166.87,810s2.81-32.52,24.72-35S175.94,787.44,166.87,810Z" transform="translate(224.56)"/><path class="cls-73" d="M-12.74,818.27s167.41-38,527.7,10,788.3,47,976.3,33,150-83,525-81c278.57,1.49,693,28,693,28l144,140-1120,3.46-1746-11.46Z" transform="translate(224.56)"/><path class="cls-73" d="M1333.37,871.84s-22.54-5-21.91-18.76S1333.37,871.84,1333.37,871.84Z" transform="translate(224.56)"/><path class="cls-73" d="M1339,871.84s-12.52-34.39-21.91-43.14,16.28-9.47,21.91,26.53Z" transform="translate(224.56)"/><path class="cls-73" d="M1341.82,871.84s-6.32-26.75,17.21-28.13C1369.67,843.08,1341.82,871.84,1341.82,871.84Z" transform="translate(224.56)"/><path class="cls-73" d="M1359.66,865s3.75-20,18.15-21.27S1359.66,865,1359.66,865Z" transform="translate(224.56)"/><path class="cls-73" d="M1600.54,842.3s-17.86-29-.74-46.7C1608.84,786.23,1600.54,842.3,1600.54,842.3Z" transform="translate(224.56)"/><path class="cls-73" d="M1604.29,840.57s1.42-33.94,5.61-36.46,13.09,9.39,5,22.9C1609.38,836.29,1604.29,840.57,1604.29,840.57Z" transform="translate(224.56)"/><path class="cls-73" d="M1614.86,839s6.3-29.86,14.61-32.45S1614.86,839,1614.86,839Z" transform="translate(224.56)"/><path class="cls-73" d="M1642.11,837.6s-14.79-15-7.8-23.42S1642.11,837.6,1642.11,837.6Z" transform="translate(224.56)"/><path class="cls-73" d="M1647.46,835.8s-4.39-20.91.61-24.58S1652.88,825.25,1647.46,835.8Z" transform="translate(224.56)"/><path class="cls-73" d="M1673,815.82s.55-39.57,25.66-50c7.52-3.13-4.38,5.88-14.39,34.51,0,0-1.88,6.7-1.57,8.6s16.59-34.36,27.23-36.23c0,0-20.65,30.7-22.85,41.3C1687,814,1679.85,837.08,1673,815.82Z" transform="translate(224.56)"/><path class="cls-73" d="M1722.72,808.5s-12.2-10.19-5.94-15.81S1731.8,808.05,1722.72,808.5Z" transform="translate(224.56)"/><path class="cls-73" d="M1734.3,805.82s-12.51-22.51-3.75-33.77S1739.31,800.19,1734.3,805.82Z" transform="translate(224.56)"/><path class="cls-73" d="M2150,793.85s-13.47-13.52-39.45-16.85,27.9-17.76,47.15,16.85C2157.65,793.85,2166.31,809.23,2150,793.85Z" transform="translate(224.56)"/><path class="cls-73" d="M2186.52,795.77S2147.06,752.51,2124,741s22.13-12.5,52.93,23.55C2176.9,764.53,2192.29,786.16,2186.52,795.77Z" transform="translate(224.56)"/><path class="cls-73" d="M2198.07,795.77s-26.22-70.17-38.13-78.82,18.88-13.46,38.13,43.73C2198.07,760.68,2205.77,791,2198.07,795.77Z" transform="translate(224.56)"/><path class="cls-73" d="M2212,795.77s-10.1-64.4-19.73-74S2228.86,732.33,2212,795.77Z" transform="translate(224.56)"/><path class="cls-73" d="M2217.79,795.77s-.48-53.66,20.21-61.91S2226,768.86,2217.79,795.77Z" transform="translate(224.56)"/><path class="cls-73" d="M2224.53,795.77s13-61.49,44.75-62.94S2244.26,755.4,2224.53,795.77Z" transform="translate(224.56)"/><path class="cls-73" d="M2227.26,795.77s17-25,45.87-23.07S2234.31,788.08,2227.26,795.77Z" transform="translate(224.56)"/><path class="cls-73" d="M1907.51,783.94s-20.23-4.76-17.53-21.88C1891.86,750.18,1907.51,783.94,1907.51,783.94Z" transform="translate(224.56)"/><path class="cls-73" d="M1912.52,781.44s-14.21-18.68-5.64-29.39C1911.89,745.8,1912.52,781.44,1912.52,781.44Z" transform="translate(224.56)"/><path class="cls-74" d="M-43,896s756.26-26,867.26-18c0,0-6-21-17-24,0,0,25-3,27,24,0,0,0-40-16-47,0,0,39,6,36,47l182,8s-11-11-18-14c0,0,20-7,31,6,0,0-13-31-21-35,0,0,22.25-2,28.12,30,0,0,19.88-17,25.88-14.5,0,0-22,26.5-18,27.5,0,0,389,13,524,20s461.74,10,607.37,0,616.63,6.42,616.63,6.42l281,10.58,57,49L-50,938Z" transform="translate(224.56)"/><path class="cls-74" d="M632.26,875s-1-62-94-44c0,0,42-50,101-10,0,0-1-50-64-76,0,0,57.53-17,102.76,76,0,0-22.76-95-35.76-101,0,0,47.33-2,53.16,98,0,0,7.37-61-17.4-98,0,0,51.37,8,34.8,95,0,0,23.44-80,85.44-72,0,0-65.92,59-67.46,98,0,0,36.46-39,78.46-27,0,0-75.92,35-78.46,69l-44.54,25Z" transform="translate(224.56)"/><path class="cls-75" d="M2526.43,923.84s-162.64,12.11-171.6-30.6,135-15.37,194.9,9.12c-186.9-123.48-88.25-50.62-143.25-95.35s-17.53-90,76.79-26.07c79.14,66.35,102.43,85.71,102.43,85.71S2515,763.57,2483.51,707s13-117.53,80.9-23.41c1.11-37.58,1.14-41.27,1.14-41.27s-.2,56.11-1.74-8.86,59-47.06,51.17,51.81c23.63-43.55-8.83,7.83,27.44-39.88s98.65-30.48,59.35,62.56S2675,774.28,2675,774.28l-28.89,59.55,94.2-82.37c66.11-49.46,104.77-27.55,35.85,52.88-46.14,45.12-85.88,80.91-85.88,80.91s44.58-16.55,116.32-46.74S2892.3,871,2809,898.9c-102.62,8-282.57,24.94-282.57,24.94" transform="translate(224.56)"/><path class="cls-76" d="M2636.12,886.81l155.76-141.38s-131.26,131.1-155.76,141.38" transform="translate(224.56)"/><path class="cls-76" d="M2611.79,826.67l69.48-185.22s-47.06,158.1-69.48,185.22" transform="translate(224.56)"/><path class="cls-76" d="M2579.91,616s16.09,206.39,24.66,233.68c6.48-12.61-17.88-231.75-24.66-233.68" transform="translate(224.56)"/><path class="cls-76" d="M2595.64,838.17s-97.48-168.57-100.19-175.53S2598.81,810,2595.64,838.17" transform="translate(224.56)"/><path class="cls-76" d="M2658.65,905.2s149.36-40.6,171.22-52.51-60.36,35.86-171.22,52.51" transform="translate(224.56)"/><path class="cls-76" d="M2410.63,777S2561.32,895.28,2580,904.24c0,0-154.77-128.94-169.4-127.27" transform="translate(224.56)"/><path class="cls-76" d="M2544.19,913.52s-166.79-12.14-170.67-14.9,152.45,7.93,170.67,14.9" transform="translate(224.56)"/><path class="cls-76" d="M2634.19,767l46.5-29.66s-41.55,16.46-46.5,29.66" transform="translate(224.56)"/><path class="cls-76" d="M2645.24,737.51s-14.68-43.9-16.57-48.62,18.45,29.23,16.57,48.62" transform="translate(224.56)"/><path class="cls-76" d="M2660.39,707.61s43.71-27.24,43.61-32.69-37.84,27.79-43.61,32.69" transform="translate(224.56)"/><path class="cls-76" d="M2659.33,692.6l-12.38-36s15.91,19.2,12.38,36" transform="translate(224.56)"/><path class="cls-76" d="M2665.11,860.49s15-47.89,20.53-53.15-16.58,45-20.53,53.15" transform="translate(224.56)"/><path class="cls-76" d="M2695.22,838.43l57.44-22s-32,4.16-57.44,22" transform="translate(224.56)"/><path class="cls-76" d="M2740,792.54s-.1-31.63,4.7-36.83.24,32.34-4.7,36.83" transform="translate(224.56)"/><path class="cls-76" d="M2760.34,776.49l37.15-14.3s-11.42,10.68-37.15,14.3" transform="translate(224.56)"/><path class="cls-76" d="M2743.56,881.22s36.88-26.62,48.44-30-24.35,18.56-48.44,30" transform="translate(224.56)"/><path class="cls-76" d="M2762.2,879.87s60.83-1,69.24-5-59.9,2-69.24,5" transform="translate(224.56)"/><path class="cls-76" d="M2711.39,894.69l59.69,2.33s-40-6.86-59.69-2.33" transform="translate(224.56)"/><path class="cls-76" d="M2598.49,740.91c-.26-2.48,16.17-30,16.17-30s-11,4-16.43,27.5" transform="translate(224.56)"/><path class="cls-76" d="M2587.24,716.59s-16-25-16.65-23.93,13.6,4.53,16.65,23.93" transform="translate(224.56)"/><path class="cls-76" d="M2591.77,682.43l9-37.89s-11.93,13.85-9,37.89" transform="translate(224.56)"/><path class="cls-76" d="M2561,762.22s-4.33-53.6-4-56-7.35,28.74,4,56" transform="translate(224.56)"/><path class="cls-76" d="M2527.16,708.24s-9.11-28.6-7.65-39.17,8.49,29.74,7.65,39.17" transform="translate(224.56)"/><path class="cls-76" d="M2536.67,735.77l-37.24-16.46s19.36.7,37.24,16.46" transform="translate(224.56)"/><path class="cls-76" d="M2570.77,795.08l-35.6-9s22-.49,35.6,9" transform="translate(224.56)"/><path class="cls-76" d="M2451.46,802.1s-21.76-26.61-23.72-33.4,19.36,13.86,23.72,33.4" transform="translate(224.56)"/><path class="cls-76" d="M2477.75,829.13l-46.43-8.75s23.7-1.84,46.43,8.75" transform="translate(224.56)"/><path class="cls-76" d="M2501.08,840.19c.11.08-13.06-22.12-11.67-33.75s7,23.35,11.78,33.83" transform="translate(224.56)"/><path class="cls-76" d="M2533,865.72s-10.31-26.67-10.21-35.7,14.19,25,10.21,35.7" transform="translate(224.56)"/><path class="cls-76" d="M2442.94,879.2l49.18,26.86s-19.41-2.12-49.18-26.86" transform="translate(224.56)"/><path class="cls-76" d="M2422.94,900.42s-34-13.7-39.61-19.44,33.76,11.3,39.61,19.44" transform="translate(224.56)"/><path class="cls-76" d="M2464.65,907.45s-43.09,11.61-52.78,12.06,25.31-10.67,52.78-12.06" transform="translate(224.56)"/><path class="cls-75" d="M-2.55,910.59s-223.61-47.89-222-95.93,187.26,34.17,260.37,82.12C-177,697.93-67.17,810.94-127.11,743.63S-121.93,643-15,744.94C70.62,843.86,95.87,872.79,95.87,872.79S33.44,738.58,9,667.61s55.24-118.2,116.8,5.62c13.56-38.92,14.79-42.78,14.79-42.78s-18.27,58.67.48-9.92,94.77-27.3,52.52,73.29c45.89-36.79-14.45,4.9,49.86-31.53s143.05,4.83,60.11,87.58-57.53,59.48-57.53,59.48L188,860.93l153.68-51.15C446.81,782.63,492,820,373.1,878.48c-76.81,30-142,52.72-142,52.72s65.54-.72,172.14-5.62,105.41,66-16.06,64.13C246,959.91-2.55,910.59-2.55,910.59" transform="translate(224.56)"/><path class="cls-76" d="M157.51,912.67l255.8-90s-219.4,88.36-255.8,90" transform="translate(224.56)"/><path class="cls-76" d="M143.94,840.67l153.3-168s-114.31,148-153.3,168" transform="translate(224.56)"/><path class="cls-76" d="M168.48,608.24S124,830.27,126.81,862c12.81-10.78,50.2-249.25,41.67-253.79" transform="translate(224.56)"/><path class="cls-76" d="M118.44,846.68s-77.61-212.75-79-221,92.34,192.76,79,221" transform="translate(224.56)"/><path class="cls-76" d="M182.05,940.31s214.81,13.12,248.16,8.8-93,15.06-248.16-8.8" transform="translate(224.56)"/><path class="cls-76" d="M-111.87,713.73s165.62,180,188,196.31c0,0-167.72-192.61-188-196.31" transform="translate(224.56)"/><path class="cls-76" d="M24.76,906.41S-196.68,831.58-201,827.25,2.38,892.32,24.76,906.41" transform="translate(224.56)"/><path class="cls-76" d="M193.37,786.5l72.32-13.73s-61.41,1.76-72.32,13.73" transform="translate(224.56)"/><path class="cls-76" d="M217.73,759.79S212,708.37,211,702.73s15.55,37.47,6.78,57.06" transform="translate(224.56)"/><path class="cls-76" d="M247.8,734.13s67.79-12.23,69.41-18-60,15-69.41,18" transform="translate(224.56)"/><path class="cls-76" d="M251.18,718,246,675.77s15.33,26,5.18,42.25" transform="translate(224.56)"/><path class="cls-76" d="M205.13,895.92s35.64-44.54,44.79-48-36.85,40.94-44.79,48" transform="translate(224.56)"/><path class="cls-76" d="M252.88,884l84.66-1.64S293,874.85,252.88,884" transform="translate(224.56)"/><path class="cls-76" d="M328.07,852.67s10-33.14,18.16-36.8-10.05,34-18.16,36.8" transform="translate(224.56)"/><path class="cls-76" d="M360.73,843.45l54.78-1.13s-18.85,6.92-54.78,1.13" transform="translate(224.56)"/><path class="cls-76" d="M304.45,946.84s58.37-14.14,75.06-13.33-38.85,10.36-75.06,13.33" transform="translate(224.56)"/><path class="cls-76" d="M330.07,952.36s82.5,21.62,95.16,20.51-81.56-20.24-95.16-20.51" transform="translate(224.56)"/><path class="cls-76" d="M256.67,949l79.89,24.67S284.77,951.56,256.67,949" transform="translate(224.56)"/><path class="cls-76" d="M153.49,745.94c.45-2.7,31.46-25.36,31.46-25.36s-16.16.12-31,22.66" transform="translate(224.56)"/><path class="cls-76" d="M146.09,716.3s-13.56-32.16-14.81-31.25,16.92,9.8,14.81,31.25" transform="translate(224.56)"/><path class="cls-76" d="M163.17,682.22l24.32-36.31a49.06,49.06,0,0,0-24.32,36.31" transform="translate(224.56)"/><path class="cls-76" d="M96,754.27s11.35-57.71,12.62-60.11S89.42,721.51,96,754.27" transform="translate(224.56)"/><path class="cls-76" d="M67.6,685.18s-3.13-33.33,2.24-43.85,1.93,34.29-2.24,43.85" transform="translate(224.56)"/><path class="cls-76" d="M71.62,717.54l-45-31.1s25.94,7.94,45,31.1" transform="translate(224.56)"/><path class="cls-76" d="M98.67,792.33,53.46,769.6s29.95,7.7,45.21,22.73" transform="translate(224.56)"/><path class="cls-76" d="M-64.77,755.24s-20.87-36-21.33-43.8,21.7,21.72,21.33,43.8" transform="translate(224.56)"/><path class="cls-76" d="M-37.92,793.33l-59.92-26.46s32.6,6.91,59.92,26.46" transform="translate(224.56)"/><path class="cls-76" d="M-10,813.59c.12.13-10.54-28-4.93-39.67s1.93,27,5.05,39.8" transform="translate(224.56)"/><path class="cls-76" d="M25,852.21S19.61,820.44,22.64,811,33.78,842.52,25,852.21" transform="translate(224.56)"/><path class="cls-76" d="M-101,832.78l57.82,46.43s-25.53-9.46-57.82-46.43" transform="translate(224.56)"/><path class="cls-76" d="M-134.84,847.54s-41.6-27-47.28-35.1,42,24.4,47.28,35.1" transform="translate(224.56)"/><path class="cls-76" d="M-80.75,870.43s-61.95-3.9-75.18-7,37.62-1.73,75.18,7" transform="translate(224.56)"/></g></svg>