<svg id="Layer_1" data-name="Layer 1" xmlns="http://www.w3.org/2000/svg" xmlns:xlink="http://www.w3.org/1999/xlink" viewBox="0 0 3219.69 1015.51"><defs><style>.cls-1{fill:none;}.cls-2{clip-path:url(#clip-path);}.cls-3{fill:url(#linear-gradient);}.cls-4{fill:url(#linear-gradient-2);}.cls-5{fill:url(#linear-gradient-3);}.cls-6{fill:url(#linear-gradient-4);}.cls-7{fill:url(#linear-gradient-5);}.cls-8{fill:#78969f;}.cls-9{fill:#89e9f4;}.cls-10{fill:url(#linear-gradient-6);}.cls-11{fill:#c98175;}.cls-12{fill:url(#linear-gradient-7);}.cls-13{fill:url(#linear-gradient-8);}.cls-14{fill:url(#linear-gradient-9);}.cls-15{fill:url(#linear-gradient-10);}.cls-16{fill:url(#linear-gradient-11);}.cls-17{fill:#b98e7c;}.cls-18{fill:#c49483;}.cls-19{fill:#754d32;}.cls-20{fill:#a8e533;}.cls-21{fill:url(#linear-gradient-12);}.cls-22{fill:url(#linear-gradient-13);}.cls-23{fill:url(#linear-gradient-14);}.cls-24{fill:url(#linear-gradient-15);}.cls-25{fill:url(#linear-gradient-16);}.cls-26{fill:url(#linear-gradient-17);}.cls-27{fill:#69f7ca;}.cls-28{fill:url(#linear-gradient-18);}.cls-29{fill:url(#linear-gradient-19);}.cls-30{fill:url(#linear-gradient-20);}.cls-31{fill:#12abba;}.cls-32{fill:url(#linear-gradient-21);}.cls-33{fill:url(#linear-gradient-22);}.cls-34{fill:url(#linear-gradient-23);}.cls-35{fill:url(#linear-gradient-24);}.cls-36{fill:#17a24b;}.cls-37{fill:#a0f068;}.cls-38{fill:url(#linear-gradient-25);}.cls-39{fill:url(#linear-gradient-26);}.cls-40,.cls-41{fill:#b46747;}.cls-40{opacity:0.68;}.cls-42{fill:#602d0b;}.cls-43{fill:url(#linear-gradient-27);}.cls-44{fill:url(#linear-gradient-28);}.cls-45{fill:url(#linear-gradient-29);}.cls-46{fill:#036801;}.cls-47{fill:url(#linear-gradient-30);}.cls-48{fill:#4c9a22;}.cls-49{fill:#01491d;}.cls-50{fill:#13641f;}.cls-51{fill:#07391c;}.cls-52{fill:#0b312d;}.cls-53{fill:#082622;}.cls-54{fill:#0a2d27;}</style><clipPath id="clip-path" transform="translate(284.32 84.19)"><rect class="cls-1" width="2693" height="900"/></clipPath><linearGradient id="linear-gradient" x1="1613.57" y1="615.94" x2="1678.01" y2="-77.88" gradientUnits="userSpaceOnUse"><stop offset="0.25" stop-color="#c5f7fd"/><stop offset="0.33" stop-color="#bbf5fb"/><stop offset="0.64" stop-color="#96eef5"/><stop offset="0.8" stop-color="#88ebf3"/></linearGradient><linearGradient id="linear-gradient-2" x1="209.73" y1="639.17" x2="2505.19" y2="302.2" gradientUnits="userSpaceOnUse"><stop offset="0.25" stop-color="#7fcbfb"/><stop offset="0.45" stop-color="#8ad0fa"/><stop offset="0.78" stop-color="#98d7f9"/></linearGradient><linearGradient id="linear-gradient-3" x1="1690.62" y1="784.08" x2="1693.23" y2="456.25" gradientUnits="userSpaceOnUse"><stop offset="0.22" stop-color="#75a24a"/><stop offset="0.36" stop-color="#81a94e"/><stop offset="0.59" stop-color="#a0bb59"/><stop offset="0.61" stop-color="#a2bc5a"/></linearGradient><linearGradient id="linear-gradient-4" x1="1015.86" y1="157.16" x2="1111.85" y2="61.11" gradientUnits="userSpaceOnUse"><stop offset="0.06" stop-color="#82cdd9"/><stop offset="0.66" stop-color="#d7eef4"/></linearGradient><linearGradient id="linear-gradient-5" x1="1039.45" y1="-179.3" x2="1227.58" y2="-295.21" gradientTransform="matrix(1.05, -0.13, 0.12, 1, -199.4, 487.5)" gradientUnits="userSpaceOnUse"><stop offset="0.09" stop-color="#adcff1"/><stop offset="0.37" stop-color="#c4e4f8"/><stop offset="0.66" stop-color="#d5f3fd"/><stop offset="0.87" stop-color="#dbf8ff"/></linearGradient><linearGradient id="linear-gradient-6" x1="1458.26" y1="493.93" x2="1500.12" y2="395" gradientUnits="userSpaceOnUse"><stop offset="0.18" stop-color="#3cbbe2"/><stop offset="0.32" stop-color="#55cee6"/><stop offset="0.48" stop-color="#67dde9"/><stop offset="0.64" stop-color="#72e5ea"/><stop offset="0.81" stop-color="#76e8eb"/></linearGradient><linearGradient id="linear-gradient-7" x1="802.32" y1="513.77" x2="840.58" y2="408.57" gradientUnits="userSpaceOnUse"><stop offset="0.15" stop-color="#3cbbe1"/><stop offset="0.79" stop-color="#36b7dc"/></linearGradient><linearGradient id="linear-gradient-8" x1="786.36" y1="592.72" x2="779.58" y2="245.83" gradientUnits="userSpaceOnUse"><stop offset="0.01" stop-color="#9c5e58"/><stop offset="0.05" stop-color="#a1625c"/><stop offset="0.21" stop-color="#b26e6a"/><stop offset="0.39" stop-color="#bc7671"/><stop offset="0.61" stop-color="#bf7874"/></linearGradient><linearGradient id="linear-gradient-9" x1="753.38" y1="440.08" x2="809.16" y2="286.72" xlink:href="#linear-gradient-7"/><linearGradient id="linear-gradient-10" x1="718.23" y1="985.58" x2="2648.83" y2="678.93" gradientUnits="userSpaceOnUse"><stop offset="0.1" stop-color="#60d250"/><stop offset="0.89" stop-color="#56b449"/></linearGradient><linearGradient id="linear-gradient-11" x1="205.57" y1="602.69" x2="192.97" y2="-43.06" gradientUnits="userSpaceOnUse"><stop offset="0.21" stop-color="#885b51"/><stop offset="0.28" stop-color="#7d4f48"/><stop offset="0.38" stop-color="#754641"/><stop offset="0.53" stop-color="#72433f"/></linearGradient><linearGradient id="linear-gradient-12" x1="101.1" y1="561.09" x2="347.1" y2="-44.27" gradientUnits="userSpaceOnUse"><stop offset="0.48" stop-color="#2b8977"/><stop offset="0.86" stop-color="#9bce87"/><stop offset="1" stop-color="#c7e98e"/></linearGradient><linearGradient id="linear-gradient-13" x1="735.98" y1="41.68" x2="486.08" y2="384.85" gradientUnits="userSpaceOnUse"><stop offset="0.37" stop-color="#caee9d"/><stop offset="0.83" stop-color="#25af6a"/></linearGradient><linearGradient id="linear-gradient-14" x1="-142.04" y1="306.97" x2="38.4" y2="136.07" gradientUnits="userSpaceOnUse"><stop offset="0" stop-color="#12664f"/><stop offset="0.61" stop-color="#55a965"/><stop offset="1" stop-color="#7acf71"/></linearGradient><linearGradient id="linear-gradient-15" x1="-35.8" y1="202.65" x2="-40.83" y2="-54.96" gradientUnits="userSpaceOnUse"><stop offset="0" stop-color="#70e57e"/><stop offset="0.03" stop-color="#69e07c"/><stop offset="0.18" stop-color="#4ccb74"/><stop offset="0.32" stop-color="#36bb6f"/><stop offset="0.46" stop-color="#29b26b"/><stop offset="0.6" stop-color="#25af6a"/></linearGradient><linearGradient id="linear-gradient-16" x1="206.18" y1="479.9" x2="381.58" y2="-203.71" gradientUnits="userSpaceOnUse"><stop offset="0.16" stop-color="#0f5c49"/><stop offset="0.27" stop-color="#197854"/><stop offset="0.45" stop-color="#2caf6a"/><stop offset="0.47" stop-color="#44b96c"/><stop offset="0.51" stop-color="#6ac96f"/><stop offset="0.55" stop-color="#8ad672"/><stop offset="0.6" stop-color="#a3e074"/><stop offset="0.64" stop-color="#b4e776"/><stop offset="0.69" stop-color="#bfec77"/><stop offset="0.75" stop-color="#c2ed77"/></linearGradient><linearGradient id="linear-gradient-17" x1="1113.7" y1="574.85" x2="1107.28" y2="245.91" gradientTransform="matrix(-1, 0, 0, 1, 2277.31, 0)" xlink:href="#linear-gradient-11"/><linearGradient id="linear-gradient-18" x1="1125.11" y1="469.61" x2="1165.99" y2="228.14" gradientTransform="matrix(-1, 0, 0, 1, 2277.31, 0)" gradientUnits="userSpaceOnUse"><stop offset="0.52" stop-color="#24a5a0"/><stop offset="0.88" stop-color="#5fe2c0"/></linearGradient><linearGradient id="linear-gradient-19" x1="1383.89" y1="289.08" x2="1256.59" y2="463.89" gradientTransform="matrix(-1, 0, 0, 1, 2277.31, 0)" gradientUnits="userSpaceOnUse"><stop offset="0.37" stop-color="#66e2ec"/><stop offset="0.79" stop-color="#3d99b5"/></linearGradient><linearGradient id="linear-gradient-20" x1="936.63" y1="424.22" x2="1028.55" y2="337.16" gradientTransform="matrix(-1, 0, 0, 1, 2277.31, 0)" gradientUnits="userSpaceOnUse"><stop offset="0.01" stop-color="#10848f"/><stop offset="0.13" stop-color="#128e96"/><stop offset="0.69" stop-color="#1bb9b3"/><stop offset="0.97" stop-color="#1ecabe"/></linearGradient><linearGradient id="linear-gradient-21" x1="1114.01" y1="512.31" x2="1195.46" y2="194.86" gradientTransform="matrix(-1, 0, 0, 1, 2277.31, 0)" gradientUnits="userSpaceOnUse"><stop offset="0.28" stop-color="#1b9289"/><stop offset="0.34" stop-color="#26a496"/><stop offset="0.55" stop-color="#43d5b9"/><stop offset="0.71" stop-color="#56f4cf"/><stop offset="0.8" stop-color="#5dffd7"/></linearGradient><linearGradient id="linear-gradient-22" x1="2469.79" y1="508.33" x2="2503.65" y2="428.3" gradientUnits="userSpaceOnUse"><stop offset="0.18" stop-color="#3cbbe2"/><stop offset="0.26" stop-color="#48c3e5"/><stop offset="0.41" stop-color="#5acfeb"/><stop offset="0.57" stop-color="#65d6ee"/><stop offset="0.75" stop-color="#69d8ef"/></linearGradient><linearGradient id="linear-gradient-23" x1="472.89" y1="440.06" x2="509.31" y2="353.99" xlink:href="#linear-gradient-22"/><linearGradient id="linear-gradient-24" x1="3670.09" y1="611.76" x2="3670.08" y2="565.77" gradientTransform="translate(-2560.27)" gradientUnits="userSpaceOnUse"><stop offset="0" stop-color="#76a063"/><stop offset="0.85" stop-color="#9ac268"/></linearGradient><linearGradient id="linear-gradient-25" x1="263.23" y1="737.29" x2="2996.17" y2="737.29" gradientUnits="userSpaceOnUse"><stop offset="0" stop-color="#4f5a73"/><stop offset="1" stop-color="#4f5a73"/></linearGradient><linearGradient id="linear-gradient-26" x1="2079.58" y1="902.34" x2="2062.43" y2="23.57" gradientUnits="userSpaceOnUse"><stop offset="0.06" stop-color="#7f2f0b"/><stop offset="0.26" stop-color="#65230b"/><stop offset="0.53" stop-color="#47150b"/></linearGradient><linearGradient id="linear-gradient-27" x1="1976.94" y1="633.99" x2="2310.43" y2="-186.65" gradientUnits="userSpaceOnUse"><stop offset="0.48" stop-color="#0b5a42"/><stop offset="0.54" stop-color="#24733b"/><stop offset="0.63" stop-color="#469732"/><stop offset="0.72" stop-color="#61b32a"/><stop offset="0.81" stop-color="#75c725"/><stop offset="0.91" stop-color="#80d322"/><stop offset="1" stop-color="#84d721"/></linearGradient><linearGradient id="linear-gradient-28" x1="2794.05" y1="32.68" x2="2455.24" y2="497.95" gradientUnits="userSpaceOnUse"><stop offset="0.37" stop-color="#9dec27"/><stop offset="0.46" stop-color="#87d23b"/><stop offset="0.62" stop-color="#64ab5a"/><stop offset="0.75" stop-color="#4f926d"/><stop offset="0.83" stop-color="#478974"/></linearGradient><linearGradient id="linear-gradient-29" x1="1608.11" y1="392.08" x2="1852.25" y2="160.85" gradientUnits="userSpaceOnUse"><stop offset="0.12" stop-color="#2a6856"/><stop offset="0.4" stop-color="#2a7648"/><stop offset="0.84" stop-color="#2b8a34"/></linearGradient><linearGradient id="linear-gradient-30" x1="2043.97" y1="610.18" x2="2393.54" y2="-282.07" gradientUnits="userSpaceOnUse"><stop offset="0.1" stop-color="#0e5747"/><stop offset="0.18" stop-color="#125b46"/><stop offset="0.27" stop-color="#1e6743"/><stop offset="0.35" stop-color="#317c3e"/><stop offset="0.44" stop-color="#4d9838"/><stop offset="0.52" stop-color="#70bd2f"/><stop offset="0.6" stop-color="#9be925"/><stop offset="0.62" stop-color="#a6f522"/></linearGradient></defs><g class="cls-2"><rect class="cls-3" x="282.82" y="84.19" width="2696" height="692"/><path class="cls-4" d="M-141.62,393.38s340.71-190,745.27-119.49S968,375,1516.63,378.06s966.61-70.47,1093.1-73.53,325.64,88.85,325.64,88.85V601.72L-205.06,629.3Z" transform="translate(284.32 84.19)"/><polygon class="cls-5" points="294.46 576.77 3005.92 576.77 3163.46 625.87 3097.9 749.54 219.46 731.54 294.46 576.77"/><path class="cls-6" d="M1012.77,102.3s2-12.26,27.28-20.64,46.56-12.9,68.51-3.22,17.29,31.59,12.64,34.17c-9,5-28.51,11.6-80.49,5.16C1009.45,113.9,1012.77,102.3,1012.77,102.3Z" transform="translate(284.32 84.19)"/><path class="cls-7" d="M873.44,94.71s6.27-24.12,58.86-39,86.93-22.25,118,.43,18.29,61.63-2.43,66.77S940,133.27,886.42,118.49C886.42,118.49,867.24,111.61,873.44,94.71Z" transform="translate(284.32 84.19)"/><path class="cls-8" d="M1451.19,461.43a55.35,55.35,0,0,0,4.41,13.44c2.05,4.28,3.58,7.39,7,10.12a20.83,20.83,0,0,0,9.3,4.21V462.32l6.88.24V479.1s15.14,2.11,17.24-15.92h2.1s1.8,20.59-19,23l-1.41,75.8h-6.35l.27-62.53a43.48,43.48,0,0,1-12.81-10.61,45.94,45.94,0,0,1-10-27.52c.43,0,.88,0,1.35,0S1450.84,461.4,1451.19,461.43Z" transform="translate(284.32 84.19)"/><path class="cls-9" d="M1427,429.6s64.67-24.2,103.69,0c32.82,22.37,15.68,32.78-23.2,32.78-34.45-.36-76.62-3-76.62-3S1384.1,452.15,1427,429.6Z" transform="translate(284.32 84.19)"/><path class="cls-10" d="M1425.25,430.72s64.67-24,103.68,0c37.61,25.39,10.9,32.46-23.19,32.46-34.45-.35-76.63-2.92-76.63-2.92S1382.37,453.05,1425.25,430.72Z" transform="translate(284.32 84.19)"/><path class="cls-11" d="M786.92,491.73a24,24,0,0,0,5,13.83c7.87,10,21,9.65,22.43,9.6L813.94,493l8.1.33v12.25a17.9,17.9,0,0,0,10.32-1.23A17.51,17.51,0,0,0,841.61,494l3.38.09q-1,3-2,6a13.29,13.29,0,0,0,9.28,1.28,13,13,0,0,0,8.48-7h2.52s-1.64,14-21.41,9.31c-3.6,4.89-12,10.1-19.8,7.49.45,15.19,3.06,74.64,3.06,74.64H816q-.8-32.6-1.58-65.19a33.09,33.09,0,0,1-21.71-9.36,30.69,30.69,0,0,1-8.89-20.12Z" transform="translate(284.32 84.19)"/><path class="cls-12" d="M765.59,452.37s65.35-33.67,104.77,0c33.49,32.88-.89,46.9-23.44,45.59-34.81-.5-77.43-4.11-77.43-4.11S722.26,483.73,765.59,452.37Z" transform="translate(284.32 84.19)"/><path class="cls-13" d="M742,409.35c.12,5,.81,16.34,5.6,26.93,8.78,19.42,23.46,18.81,25,18.7l-.48-43.09,9,.64v23.85A12.27,12.27,0,0,0,792.71,434c7.52-5.87,9.92-18.08,10.32-20.18l3.77.18-2.28,11.74c.93.89,5.11,4.68,10.34,2.49,6.49-2.72,9.16-12.37,9.47-13.58h2.82s-1.84,27.21-23.9,18.14c-4,9.52-13.41,19.68-22.09,14.59.51,29.59,3.42,145.39,3.42,145.39H774.4l-1.77-127c-2.54-.17-14.6-1.43-24.22-18.24-9-15.79-9.81-34.58-9.92-39.19Z" transform="translate(284.32 84.19)"/><path class="cls-14" d="M700.3,350.49s94.61-49.3,151.69,0c48.48,48.14-1.29,68.67-33.94,66.75-50.39-.73-112.09-6-112.09-6S637.57,396.41,700.3,350.49Z" transform="translate(284.32 84.19)"/><polygon class="cls-15" points="219.46 731.54 3016.52 749.54 3088.34 942.38 0 924.98 219.46 731.54"/><path class="cls-16" d="M382.43,648.32c.39-1.05-2.73-2.71-5.4-6.68a25.45,25.45,0,0,1-3.57-9c-2.35-9.51-11.44-21-14.44-25.27-9.52-13.51-14-33.77-21.46-67.37a520.51,520.51,0,0,1-9.4-57.75c-.54-33.52,3.88-58.79,13-73.36a404.24,404.24,0,0,0,26-49.75s53.5,2.53,58.09,0,17.58-14.56,15.29-45.65l.76-7.48-13.76,4s-4.23,27.88-21.85,30c-21,3-45-10.4-41.51-30H348.9s4.7,57.25-18.4,69.35c-17.23,4.75-27.41-2.77-26.63-36.29l.78-33.52-27.41.05s1.57,35.63,0,37.79-13.7,24.19-26.63-21.16c-11-32-4.69-16.57-4.69-16.57L231,310s6.65,35.22,28.58,57.25c14.49,21.17,14.88,56.59,3.92,69.12-11.75,12.53-31.72,19.44-47-54.86C206.37,332.23,203.62,310,203.62,310l-21.14-.24s8.61,58.79,7.05,69.16c-2,11.66-2.74,47.51-48.95,32.4-24-3.68-72-16.89-92-56.59C41.12,321,42.69,308,42.69,308l-17.23-.47s.39,19.48,3.91,24.66a53.64,53.64,0,0,1-30.74-7C-19.1,315-26.26,297.72-28.19,292.59L-42,292a86.42,86.42,0,0,0,13.94,25.41c13.62,17,32.57,26.38,46.47,28.65,2.77.45,13.73,2,13.68,2.46,0,.13-.76.13-.76.13s3.52,51,58.74,74.3c49.34,20.3,70.87,30.67,83.4,38.88s21.15,16.84,19.19,44.92a242.1,242.1,0,0,0,3.53,67.17,233,233,0,0,0,27,72.36c42.4,1.46,69.63,1.61,87.09,1.43,35-.36,54.94-2.25,65.42.43C375.77,648.15,381.91,649.72,382.43,648.32Z" transform="translate(284.32 84.19)"/><path class="cls-17" d="M327.42,474.9a110.24,110.24,0,0,0-33.24,32.4c-37.48,56.56-12,131-9.08,139l98.94,2a334.83,334.83,0,0,1-19-33.14C339,563.3,330.19,512.64,327.42,474.9Z" transform="translate(284.32 84.19)"/><path class="cls-18" d="M213.37,367.88s18.33,74.9,32.71,74.36C231.21,449.89,203.45,429.12,213.37,367.88Z" transform="translate(284.32 84.19)"/><path class="cls-19" d="M316,565a26.53,26.53,0,0,1-5.4.69,11.52,11.52,0,0,1-5.36-1,4.69,4.69,0,0,1-2-1.88,5.46,5.46,0,0,1-.66-2.71,14.21,14.21,0,0,1,1.34-5.34,39.18,39.18,0,0,1,5.87-9.25,39.69,39.69,0,0,1,3.83-3.95A26.59,26.59,0,0,1,318,538.3a11.7,11.7,0,0,1,5.36-1.76,9.28,9.28,0,0,1,1.47.15,7,7,0,0,1,1.4.54,6.7,6.7,0,0,1,2.15,2,15.3,15.3,0,0,1,2.22,5.16,32.08,32.08,0,0,1,.81,5.48,67.23,67.23,0,0,1-2.71,21.72v.07l0,.06a77.18,77.18,0,0,1-6.56,10,46.58,46.58,0,0,1-8.41,8.6,20.43,20.43,0,0,1-5.31,3,8.24,8.24,0,0,1-6.21,0,10.35,10.35,0,0,1-4.39-4.35,26.49,26.49,0,0,1-2.32-5.6,59.4,59.4,0,0,1-2.05-11.8,89.8,89.8,0,0,1-.14-11.94l1.05-23.79-.43,23.81a90.12,90.12,0,0,0,.32,11.85,58.75,58.75,0,0,0,2.19,11.58,26.21,26.21,0,0,0,2.29,5.35,9.35,9.35,0,0,0,3.92,3.91,7.17,7.17,0,0,0,5.4-.1,19.18,19.18,0,0,0,5-2.87,45.49,45.49,0,0,0,8.15-8.42,83.07,83.07,0,0,0,6.45-9.89l-.06.13a66.21,66.21,0,0,0,2.78-21.32,30.38,30.38,0,0,0-.76-5.29,14.32,14.32,0,0,0-2-4.8,4.92,4.92,0,0,0-4.17-2.29,10.84,10.84,0,0,0-4.9,1.55,25,25,0,0,0-4.34,3.13,38.06,38.06,0,0,0-3.81,3.81,39.52,39.52,0,0,0-5.92,9,13.69,13.69,0,0,0-1.44,5.12,5,5,0,0,0,.54,2.53,4.48,4.48,0,0,0,1.86,1.8,11.5,11.5,0,0,0,5.23,1.08A27.26,27.26,0,0,0,316,565Z" transform="translate(284.32 84.19)"/><path class="cls-20" d="M-59.46,136.79c4.22-31,15.33-77.7,48.75-115.88C79.58-82.22,252.5-34.23,307.81-18.83,437.9,17.4,539.35,118.3,576.23,163.45l21.51,17a1762.87,1762.87,0,0,1-343.16,29.08A1763.82,1763.82,0,0,1-44,180Z" transform="translate(284.32 84.19)"/><path class="cls-21" d="M-60.61,141.07C-56.4,110-45.3,63-11.93,24.67,78.23-78.94,250.9-30.73,306.13-15.25c136.36,38.2,224.74,129.79,268,183.1L595.64,185A1750,1750,0,0,1,253,214.17,1750.54,1750.54,0,0,1-45.21,184.46Z" transform="translate(284.32 84.19)"/><path class="cls-20" d="M508.36,160.65S630.92,130,685.25,223.37c35.37,72.48,41.69,96-176.89,82.84C471.41,190.17,508.36,160.65,508.36,160.65Z" transform="translate(284.32 84.19)"/><path class="cls-22" d="M506.05,161.81s122.56-30.67,176.89,62.72c35.37,72.47,41.69,96-176.89,82.83C469.1,191.32,506.05,161.81,506.05,161.81Z" transform="translate(284.32 84.19)"/><path class="cls-20" d="M-31.6,288.67c-3.59,0-107.77-8-107.77-8S-204,266-166.91,229.9A63.6,63.6,0,0,0-143.44,208c7.39-11.81,5.41-17.6,10.13-28.47,15-34.44,65.06-46.16,65.06-46.16h0S-.28,118.2,50.3,148c5.64,3.32,8.42,5.12,10.56,8.22C84.26,190,11.51,288.67,11.51,288.67Z" transform="translate(284.32 84.19)"/><path class="cls-23" d="M-35.19,292.41c-3.68,0-110.22-8.1-110.22-8.1s-66.14-14.86-28.17-51.34a64.72,64.72,0,0,0,24-22.12c7.57-11.94,5.54-17.8,10.37-28.8,15.28-34.83,66.54-46.69,66.54-46.69h0S-3.16,120,48.57,150.15c5.76,3.36,8.6,5.18,10.8,8.31,23.92,34.14-50.48,134-50.48,134Z" transform="translate(284.32 84.19)"/><path class="cls-24" d="M-89.83,92.62s10.11-24.69,79.6-12.15c64.44,15.33,15.16,54.36-39.8,46S-99,101.2-89.83,92.62Z" transform="translate(284.32 84.19)"/><path class="cls-20" d="M-30.79,199.55S32.33,145.31,98.51,124c72.28-31.9,168-103.16,284-70.19C472.13,84.69,539.33,127.23,579,205.93c19.34,45.74,22.4,101-125.22,93.6l-411.3.67S-118.34,287.83-30.79,199.55Z" transform="translate(284.32 84.19)"/><path class="cls-25" d="M-34.36,206.39s63.5-55.33,130.08-77c72.73-32.54,169-105.22,285.78-71.6,90.14,31.46,157.74,74.86,197.69,155.14,19.46,46.64,22.53,103-126,95.46l-413.81.69S-122.45,296.43-34.36,206.39Z" transform="translate(284.32 84.19)"/><path class="cls-18" d="M441.29,310.83s2,32.3-11.81,44.85c-4.1,4.39-7.36,4.27-12.27,4.39a29.28,29.28,0,0,0,17.11-21.39,169.28,169.28,0,0,0,3.58-28.87h3.39Z" transform="translate(284.32 84.19)"/><path class="cls-18" d="M304.65,309.51c-.54,5.66-.81,25.35-.59,29.18.94,16.79,2,35.91,11.9,40.85a12.5,12.5,0,0,0,7.41,1l3.74-.46c-4.6,6.26-8.71,6.79-10,6.86-8.17.41-17.73-11.28-20.06-30.12a126.53,126.53,0,0,1-1.64-27.09c.38-7.52,1.74-20.25,1.74-20.25h7.53Z" transform="translate(284.32 84.19)"/><path class="cls-26" d="M1073.52,598.1c-.2-.54,1.39-1.38,2.75-3.41a12.85,12.85,0,0,0,1.82-4.6c1.2-4.85,5.83-10.72,7.36-12.88,4.85-6.88,7.13-17.2,10.93-34.32a262.79,262.79,0,0,0,4.79-29.41c.27-17.08-2-30-6.62-37.37a204.75,204.75,0,0,1-13.24-25.35s-27.26,1.29-29.59,0-9-7.41-7.79-23.25l-.39-3.81,7,2s2.15,14.21,11.13,15.31c10.7,1.54,22.94-5.3,21.14-15.31h7.78s-2.39,29.17,9.38,35.33c8.77,2.42,14-1.41,13.56-18.48l-.4-17.08,14,0s-.79,18.15,0,19.25,7,12.32,13.57-10.78c5.58-16.29,2.39-8.45,2.39-8.45l7.58.18s-3.39,17.95-14.56,29.17c-7.38,10.78-7.58,28.82-2,35.21,6,6.38,16.15,9.9,23.93-27.95,5.19-25.08,6.58-36.43,6.58-36.43l10.78-.12s-4.39,29.95-3.6,35.23c1,5.94,1.4,24.21,24.94,16.5,12.22-1.87,36.69-8.6,46.87-28.82,3.79-17.17,3-23.77,3-23.77l8.78-.24s-.2,9.93-2,12.57a27.35,27.35,0,0,0,15.65-3.58c9-5.21,12.69-14,13.67-16.62l7-.3a44,44,0,0,1-7.1,12.94c-6.94,8.66-16.59,13.44-23.67,14.6-1.41.23-7,1-7,1.25,0,.07.39.07.39.07s-1.8,26-29.92,37.84c-25.13,10.35-36.1,15.63-42.49,19.81s-10.77,8.58-9.77,22.88a123.09,123.09,0,0,1-1.8,34.22,118.82,118.82,0,0,1-13.76,36.86c-21.6.74-35.46.82-44.36.72-17.83-.18-28-1.14-33.33.22C1076.92,598,1073.79,598.81,1073.52,598.1Z" transform="translate(284.32 84.19)"/><path class="cls-17" d="M1101.54,509.76a56.28,56.28,0,0,1,16.94,16.5c19.09,28.82,6.1,66.71,4.62,70.82l-50.4,1a170,170,0,0,0,9.7-16.89C1095.64,554.79,1100.13,529,1101.54,509.76Z" transform="translate(284.32 84.19)"/><path class="cls-18" d="M1159.64,455.24s-9.34,38.16-16.66,37.88C1150.55,497,1164.69,486.44,1159.64,455.24Z" transform="translate(284.32 84.19)"/><path class="cls-19" d="M1107.38,555.65a13.38,13.38,0,0,0,2.75.23,5.85,5.85,0,0,0,2.63-.57,2.2,2.2,0,0,0,1.15-2.13,6.87,6.87,0,0,0-.75-2.55,20.54,20.54,0,0,0-3-4.52,16.57,16.57,0,0,0-4.12-3.46,5.45,5.45,0,0,0-2.39-.74,2.28,2.28,0,0,0-1.9,1.08,10,10,0,0,0-1.36,5,33.94,33.94,0,0,0,1.42,10.76l0-.13a31.48,31.48,0,0,0,7.34,9.25,10.1,10.1,0,0,0,2.47,1.43,3.32,3.32,0,0,0,2.55.05,4.45,4.45,0,0,0,1.88-1.87,15.07,15.07,0,0,0,1.16-2.66,37.73,37.73,0,0,0,1.36-11.86c0-4.05-.09-8.09-.07-12.14.27,4,.46,8.08.69,12.12a38.16,38.16,0,0,1-1,12.16,14.11,14.11,0,0,1-1.19,2.92,5.54,5.54,0,0,1-2.35,2.32,4.42,4.42,0,0,1-3.37,0,10.89,10.89,0,0,1-2.77-1.56,24.25,24.25,0,0,1-4.35-4.42,38.63,38.63,0,0,1-3.37-5.15l0-.06,0-.07a34.92,34.92,0,0,1-1.35-11.16,10.93,10.93,0,0,1,1.61-5.55,2.9,2.9,0,0,1,.52-.59,2.64,2.64,0,0,1,.65-.49,3.5,3.5,0,0,1,.78-.3,5.56,5.56,0,0,1,.81-.08,6.22,6.22,0,0,1,2.83,1,17,17,0,0,1,4.24,3.76,19.91,19.91,0,0,1,3,4.77,7.55,7.55,0,0,1,.66,2.78,2.87,2.87,0,0,1-.36,1.43,2.54,2.54,0,0,1-1.09,1,6,6,0,0,1-2.77.47A13.43,13.43,0,0,1,1107.38,555.65Z" transform="translate(284.32 84.19)"/><path class="cls-27" d="M1298.62,337.53c-2.15-15.77-7.81-39.58-24.84-59-46-52.53-134.07-28.09-162.25-20.24-66.26,18.45-117.94,69.85-136.73,92.85l-10.95,8.67a898,898,0,0,0,174.8,14.82,899.32,899.32,0,0,0,152.11-15.07Z" transform="translate(284.32 84.19)"/><path class="cls-28" d="M1299.2,339.71c-2.14-15.84-7.79-39.76-24.79-59.3-45.93-52.77-133.88-28.21-162-20.33-69.46,19.46-114.48,66.11-136.53,93.27l-10.94,8.71A891.09,891.09,0,0,0,1139.47,377a892.23,892.23,0,0,0,151.89-15.14Z" transform="translate(284.32 84.19)"/><path class="cls-27" d="M1009.37,349.68s-62.42-15.62-90.1,31.95c-18,36.92-21.24,48.9,90.1,42.2C1028.2,364.72,1009.37,349.68,1009.37,349.68Z" transform="translate(284.32 84.19)"/><path class="cls-29" d="M1010.55,350.27s-62.43-15.62-90.1,32c-18,36.92-21.24,48.89,90.1,42.2C1029.38,365.31,1010.55,350.27,1010.55,350.27Z" transform="translate(284.32 84.19)"/><path class="cls-27" d="M1284.43,414.9c1.83,0,54.89-4.09,54.89-4.09s32.94-7.48,14-25.85a32.42,32.42,0,0,1-11.95-11.14c-3.77-6-2.76-9-5.17-14.51-7.61-17.54-33.14-23.51-33.14-23.51h0s-34.62-7.74-60.38,7.45c-2.88,1.69-4.29,2.61-5.38,4.19-11.92,17.18,25.14,67.46,25.14,67.46Z" transform="translate(284.32 84.19)"/><path class="cls-30" d="M1286.26,416.8c1.87,0,56.14-4.13,56.14-4.13s33.69-7.57,14.35-26.15a32.9,32.9,0,0,1-12.23-11.27c-3.85-6.08-2.82-9.06-5.28-14.67-7.78-17.74-33.89-23.78-33.89-23.78h0s-35.41-7.83-61.76,7.53c-2.94,1.72-4.38,2.64-5.5,4.24C1225.9,366,1263.8,416.8,1263.8,416.8Z" transform="translate(284.32 84.19)"/><path class="cls-31" d="M1314.09,315s-5.15-12.58-40.55-6.19c-32.82,7.81-7.72,27.69,20.27,23.43S1318.77,319.4,1314.09,315Z" transform="translate(284.32 84.19)"/><path class="cls-27" d="M1284,369.5s-32.15-27.63-65.86-38.47c-36.82-16.25-85.57-52.55-144.69-35.75-45.63,15.71-79.86,37.38-100.08,77.47-9.86,23.3-11.41,51.47,63.78,47.67l209.51.35S1328.61,414.47,1284,369.5Z" transform="translate(284.32 84.19)"/><path class="cls-32" d="M1285.83,373s-32.35-28.18-66.26-39.23c-37-16.58-86.09-53.61-145.57-36.48-45.92,16-80.36,38.13-100.7,79-9.92,23.76-11.48,52.49,64.17,48.62l210.79.36S1330.7,418.85,1285.83,373Z" transform="translate(284.32 84.19)"/><path class="cls-18" d="M1043.54,426.18s-1,16.45,6,22.85c2.1,2.23,3.75,2.17,6.25,2.23a14.89,14.89,0,0,1-8.71-10.89,86.24,86.24,0,0,1-1.83-14.7h-1.72Z" transform="translate(284.32 84.19)"/><path class="cls-18" d="M1113.14,425.51c.28,2.89.42,12.91.31,14.86-.49,8.56-1,18.3-6.07,20.81a6.36,6.36,0,0,1-3.77.53l-1.91-.24c2.34,3.19,4.44,3.46,5.11,3.5,4.16.21,9-5.75,10.22-15.35a63.7,63.7,0,0,0,.83-13.79c-.19-3.83-.88-10.32-.88-10.32h-3.84Z" transform="translate(284.32 84.19)"/><path class="cls-8" d="M2463.06,480.46a36.8,36.8,0,0,0,3.78,9.84c1.76,3.14,3.08,5.42,6,7.41a19.42,19.42,0,0,0,8,3.08V481.11l5.9.18V493.4s13,1.55,14.79-11.65h1.8s1.55,15.07-16.33,16.84l-1.2,55.49h-5.45l.23-45.78a36.74,36.74,0,0,1-11-7.77,30.57,30.57,0,0,1-8.55-20.15l1.16,0Z" transform="translate(284.32 84.19)"/><path class="cls-9" d="M2442.29,457.16s55.49-17.73,89,0c28.16,16.38,13.46,24-19.9,24-29.56-.26-65.74-2.16-65.74-2.16S2405.5,473.67,2442.29,457.16Z" transform="translate(284.32 84.19)"/><path class="cls-33" d="M2440.8,458s55.49-17.56,89,0c32.27,18.6,9.35,23.78-19.91,23.78-29.55-.26-65.74-2.15-65.74-2.15S2404,474.33,2440.8,458Z" transform="translate(284.32 84.19)"/><path class="cls-8" d="M467,412.15a50.24,50.24,0,0,0,3.79,11.93c1.76,3.79,3.07,6.55,6,9a17.66,17.66,0,0,0,8,3.73V412.94l5.89.21v14.68s13,1.87,14.8-14.12h1.8s1.54,18.26-16.33,20.4l-1.21,67.26h-5.44l.22-55.49a37.45,37.45,0,0,1-11-9.41,41.63,41.63,0,0,1-8.55-24.42l1.16,0Z" transform="translate(284.32 84.19)"/><path class="cls-9" d="M446.21,383.91s55.49-21.48,89,0c28.16,19.85,13.46,29.08-19.9,29.08-29.56-.32-65.75-2.62-65.75-2.62S409.42,403.91,446.21,383.91Z" transform="translate(284.32 84.19)"/><path class="cls-34" d="M444.73,384.9s55.49-21.28,89,0c32.27,22.53,9.35,28.81-19.9,28.81-29.56-.32-65.74-2.6-65.74-2.6S407.94,404.71,444.73,384.9Z" transform="translate(284.32 84.19)"/><path class="cls-35" d="M1024.05,603.16s-15.34-7.2,10.68-10.12c0,0-11.5-3-2.82-7.5,0,0,8.89-13.45,20.16-3.58,0,0,14.65-19.39,30.35-2.92,0,0,10-11.17,23.32-4.15,9.21,4.85,9.37,15.41,9.37,15.41s10.38-13.16,24.34.8c0,0,10.24-7.24,18,5.06,0,0,13.47-11.18,25.69,4.27,0,0,19.39-.88,16.67,3.7l-1.67,2.14h-171.1Z" transform="translate(284.32 84.19)"/><path class="cls-36" d="M167.89,631.56s-24.78.11-37.31-8.38,17.68-4.47,41.9-.39c0,0-2.24-2-21-11.76s-13.43-17.57,1.4-10.48,29.59,18.09,29.59,18.09-27-22-27.23-26.31,4.86-4.47,29.78,23.17c0,0-23-23.11-18-34.4s22.21,32,22.21,32-15.16-46.38-4.64-48.39S192.84,611,192.84,611s10.41-26.76,26.58-26.32-20.93,28.78-24.4,29.17c0,0,1.46,1.9,6.72.89s20.14-15.26,28.58-15.81c8.62-.56,20.92,9.61-28.19,32.07Z" transform="translate(284.32 84.19)"/><path class="cls-37" d="M1635.91,722.3s13.28-13.52,16.87-12.25-3.65-11.93-14.36,2.91C1634.11,718.92,1635.91,722.3,1635.91,722.3Z" transform="translate(284.32 84.19)"/><path class="cls-37" d="M1633,722.3s5.58-30.79,11.58-34-9.54-7.9-12.66,12.87C1629.8,715.55,1633,722.3,1633,722.3Z" transform="translate(284.32 84.19)"/><path class="cls-37" d="M1631.22,722.3s-6.44-21.94-19.37-22.78,19.37,24,19.37,24" transform="translate(284.32 84.19)"/><rect class="cls-38" x="263.23" y="708.79" width="2732.94" height="57"/><path class="cls-39" d="M2316.08,857.4c.53-1.43-3.68-3.69-7.28-9.09A34.81,34.81,0,0,1,2304,836c-3.17-13-15.43-28.63-19.48-34.41-12.85-18.38-18.91-46-29-91.7a710.19,710.19,0,0,1-12.68-78.6c-.73-45.62,5.24-80,17.53-99.85a549.76,549.76,0,0,0,35.07-67.72s72.21,3.44,78.4,0,23.72-19.82,20.63-62.13l1-10.18-18.57,5.46s-5.71,37.95-29.49,40.89c-28.36,4.11-60.76-14.16-56-40.89h-20.61s6.34,77.93-24.83,94.39c-23.25,6.47-37-3.77-35.93-49.39l1-45.62-37,.06s2.12,48.5,0,51.44-18.49,32.93-35.93-28.81c-14.79-43.51-6.34-22.55-6.34-22.55l-20.08.48s9,47.94,38.58,77.93c19.55,28.81,20.08,77,5.28,94.07-15.85,17-42.8,26.46-63.41-74.67-13.74-67-17.44-97.33-17.44-97.33l-28.53-.33s11.62,80,9.51,94.13c-2.64,15.88-3.7,64.68-66,44.1-32.37-5-97.2-23-124.18-77-10-45.87-7.92-63.5-7.92-63.5l-23.25-.64s.52,26.51,5.28,33.56a71.81,71.81,0,0,1-41.48-9.56c-23.93-13.9-33.6-37.42-36.2-44.4l-18.64-.81A117.85,117.85,0,0,0,1762.15,407c18.38,23.15,43.95,35.92,62.7,39,3.74.61,18.53,2.7,18.47,3.35,0,.17-1,.17-1,.17s4.76,69.38,79.26,101.13c66.58,27.64,95.65,41.75,112.55,52.92s28.54,22.93,25.9,61.15a332.47,332.47,0,0,0,4.75,91.43,319.19,319.19,0,0,0,36.46,98.48c57.21,2,93.95,2.19,117.52,2,47.25-.49,74.14-3.06,88.28.58C2307.09,857.17,2315.38,859.31,2316.08,857.4Z" transform="translate(284.32 84.19)"/><path class="cls-40" d="M2241.85,621.35A149.35,149.35,0,0,0,2197,665.46c-50.57,77-16.16,178.24-12.25,189.24l133.51,2.68a460.69,460.69,0,0,1-25.68-45.12C2257.49,741.68,2245.58,672.72,2241.85,621.35Z" transform="translate(284.32 84.19)"/><path class="cls-41" d="M2087.94,475.69s24.74,101.95,44.14,101.21C2112,587.32,2074.56,559,2087.94,475.69Z" transform="translate(284.32 84.19)"/><path class="cls-42" d="M2226.39,744a35.43,35.43,0,0,1-7.33.91,15.36,15.36,0,0,1-7.25-1.36,6.46,6.46,0,0,1-2.69-2.59,7.62,7.62,0,0,1-.83-3.66,20,20,0,0,1,1.85-7.21,53.77,53.77,0,0,1,7.94-12.53,45.14,45.14,0,0,1,11.17-9.8,15,15,0,0,1,7.19-2.32,7.24,7.24,0,0,1,3.79,1,9,9,0,0,1,2.81,2.69,20.74,20.74,0,0,1,2.91,7,44.3,44.3,0,0,1,1.07,7.4c.57,10-1.08,19.87-3.67,29.41l0,.06,0,.07a106.5,106.5,0,0,1-8.83,13.63,63.34,63.34,0,0,1-11.33,11.69,27,27,0,0,1-7.15,4.07,13.59,13.59,0,0,1-4.12.82,9.14,9.14,0,0,1-4.17-.84,14,14,0,0,1-5.79-5.92,36.35,36.35,0,0,1-3.09-7.58,81.46,81.46,0,0,1-2.77-16,125.13,125.13,0,0,1-.21-16.2l1.31-32.31-.69,32.33a125.44,125.44,0,0,0,.39,16.11,81.66,81.66,0,0,0,2.9,15.79,37.94,37.94,0,0,0,3.07,7.34,13.08,13.08,0,0,0,5.34,5.46,9.7,9.7,0,0,0,7.46,0,26,26,0,0,0,6.83-3.92,62.63,62.63,0,0,0,11.07-11.52,112.94,112.94,0,0,0,8.72-13.49l-.05.13c2.6-9.43,4.26-19.24,3.74-29a42.45,42.45,0,0,0-1-7.21,19.92,19.92,0,0,0-2.72-6.62,8.22,8.22,0,0,0-2.48-2.4,6.26,6.26,0,0,0-3.26-.89,14.37,14.37,0,0,0-6.74,2.12,44.55,44.55,0,0,0-11,9.5,54.06,54.06,0,0,0-8,12.28,19.39,19.39,0,0,0-2,7,7.06,7.06,0,0,0,.72,3.48,6.07,6.07,0,0,0,2.51,2.51,15.27,15.27,0,0,0,7.11,1.47A35.5,35.5,0,0,0,2226.39,744Z" transform="translate(284.32 84.19)"/><path class="cls-20" d="M1719.78,161.15c5.69-42.14,20.69-105.76,65.79-157.72,121.84-140.38,355.17-75.05,429.82-54.09C2390.93-1.35,2527.83,136,2577.6,197.44l29,23.17a2358.23,2358.23,0,0,1-463.07,39.59,2359,2359,0,0,1-403-40.26Z" transform="translate(284.32 84.19)"/><path class="cls-43" d="M1718.22,167c5.69-42.33,20.66-106.23,65.69-158.43,121.67-141,354.67-75.4,429.21-54.34,184,52,303.27,176.67,361.69,249.23l29,23.28a2342.77,2342.77,0,0,1-462.41,39.77A2343.07,2343.07,0,0,1,1739,226Z" transform="translate(284.32 84.19)"/><path class="cls-20" d="M2486,193.63s165.39-41.74,238.7,85.37c47.74,98.65,56.26,130.64-238.7,112.75C2436.15,233.8,2486,193.63,2486,193.63Z" transform="translate(284.32 84.19)"/><path class="cls-44" d="M2482.9,195.2s165.38-41.74,238.69,85.37c47.74,98.65,56.27,130.64-238.69,112.75C2433,235.37,2482.9,195.2,2482.9,195.2Z" transform="translate(284.32 84.19)"/><path class="cls-20" d="M1757.37,367.88c-4.85,0-145.43-10.91-145.43-10.91s-87.26-20-37.17-69.08a86.13,86.13,0,0,0,31.68-29.77c10-16.07,7.31-24,13.67-38.76,20.17-46.87,87.8-62.83,87.8-62.83h0s91.72-20.68,160,19.9c7.61,4.53,11.36,7,14.25,11.19,31.57,45.93-66.6,180.26-66.6,180.26Z" transform="translate(284.32 84.19)"/><path class="cls-45" d="M1752.52,373c-5,0-148.73-11-148.73-11s-89.24-20.23-38-69.88a87.57,87.57,0,0,0,32.39-30.1c10.21-16.26,7.48-24.23,14-39.2,20.62-47.41,89.79-63.55,89.79-63.55h0s93.8-20.92,163.6,20.13c7.78,4.57,11.61,7,14.58,11.31C1912.41,237.11,1812,373,1812,373Z" transform="translate(284.32 84.19)"/><path class="cls-46" d="M1678.8,101s13.63-33.61,107.41-16.53c87,20.87,20.46,74-53.71,62.6S1666.39,112.71,1678.8,101Z" transform="translate(284.32 84.19)"/><path class="cls-20" d="M1758.47,246.58s85.17-73.83,174.47-102.78c93.9-41.81,230.32-139.37,383.29-95.54,120.9,42,211.57,99.88,265.15,207,26.1,62.25,30.22,137.53-169,127.39l-555,.93S1640.32,366.73,1758.47,246.58Z" transform="translate(284.32 84.19)"/><path class="cls-47" d="M1753.64,257.88s85.7-75.31,175.55-104.84c98.13-44.29,228.06-143.23,385.64-97.45,121.63,42.82,212.86,101.88,266.76,211.15,26.27,63.49,30.41,140.27-170,129.94l-558.42.94S1634.77,380.43,1753.64,257.88Z" transform="translate(284.32 84.19)"/><path class="cls-41" d="M2395.51,398s2.64,44-15.94,61c-5.54,6-9.93,5.81-16.55,6,0,0,18.49-6.71,23.09-29.11a232.22,232.22,0,0,0,4.83-39.28h4.57Z" transform="translate(284.32 84.19)"/><path class="cls-41" d="M2211.12,396.25c-.73,7.7-1.09,34.5-.8,39.71,1.28,22.85,2.73,48.88,16.06,55.6a16.65,16.65,0,0,0,10,1.4l5-.63c-6.21,8.52-11.76,9.25-13.54,9.34-11,.57-23.92-15.35-27.06-41a173.36,173.36,0,0,1-2.22-36.86c.51-10.23,2.35-27.56,2.35-27.56h10.16Z" transform="translate(284.32 84.19)"/><path class="cls-48" d="M176.77,746s37.95-36.32,165-7.32c119.76,27.34,411,21.43,453.45,23.24,2.6.11,160.81,1.42,163.4,1.29l517.2,7.79s-29-20-39-19c0,0,13-14,51,11,0,0-9-28,0-33s8,30,8,30,169.52-30,529.26,8l396.61,27L2092.77,896,212.67,841Z" transform="translate(284.32 84.19)"/><path class="cls-49" d="M2732.2,798.59s-167.41-28.86-527.7,7.59-788.3,35.7-976.3,25.07-150-63-525-61.52C424.63,770.86,10.2,791,10.2,791l-144,106.31,1120.7,6.8L2738.66,914.9Z" transform="translate(284.32 84.19)"/><path class="cls-49" d="M2631.78,794.64s4.38-21.37-11.9-26.59S2631.78,794.64,2631.78,794.64Z" transform="translate(284.32 84.19)"/><path class="cls-49" d="M2562.92,792.27s18.15-16.15,24.41-17.1-2.5-10.45-20.65,3.32C2566.68,778.49,2561,785.14,2562.92,792.27Z" transform="translate(284.32 84.19)"/><path class="cls-49" d="M2558.23,792.27s7.57-28,17.71-40.37-10.51-8.07-17.71,12.82S2558.23,792.27,2558.23,792.27Z" transform="translate(284.32 84.19)"/><path class="cls-49" d="M2552.59,792.27s-2.81-24.7-24.72-26.6S2543.52,775.17,2552.59,792.27Z" transform="translate(284.32 84.19)"/><path class="cls-49" d="M2154,812.79s24.51-12.21,17.15-22.23C2165.16,782.45,2154,812.79,2154,812.79Z" transform="translate(284.32 84.19)"/><path class="cls-49" d="M1704.81,840.79s13.15-14.72,5-25.17C1709.82,815.62,1706.06,835.57,1704.81,840.79Z" transform="translate(284.32 84.19)"/><path class="cls-49" d="M1701.68,840.79s13.77-36.09-25-53.66C1676.64,787.13,1697.3,809.92,1701.68,840.79Z" transform="translate(284.32 84.19)"/><path class="cls-49" d="M1699.8,840.79s-7.51-32.77-31.3-41.31C1668.5,799.48,1694.17,827,1699.8,840.79Z" transform="translate(284.32 84.19)"/><path class="cls-49" d="M1638.28,837.66s22.84-5.09,17.53-18.52C1652.05,809.64,1638.28,837.66,1638.28,837.66Z" transform="translate(284.32 84.19)"/><path class="cls-49" d="M1633.59,836.23s12.83-16.14,4.69-22.79S1633.59,836.23,1633.59,836.23Z" transform="translate(284.32 84.19)"/><path class="cls-49" d="M1590.84,840.79s22.53-3.8,21.91-14.24S1590.84,840.79,1590.84,840.79Z" transform="translate(284.32 84.19)"/><path class="cls-49" d="M1585.2,840.79s12.52-26.12,21.91-32.76-16.27-7.19-21.91,20.14Z" transform="translate(284.32 84.19)"/><path class="cls-49" d="M1582.39,840.79s6.31-20.32-17.22-21.37C1554.53,819,1582.39,840.79,1582.39,840.79Z" transform="translate(284.32 84.19)"/><path class="cls-49" d="M1564.55,835.57s-3.76-15.21-18.16-16.16S1564.55,835.57,1564.55,835.57Z" transform="translate(284.32 84.19)"/><path class="cls-49" d="M1046.5,796.73s-.55-30.05-25.66-38c-7.52-2.37,4.38,4.46,14.39,26.21,0,0,1.88,5.08,1.57,6.53s-16.59-26.09-27.23-27.52c0,0,20.66,23.32,22.85,31.37C1032.42,795.33,1039.61,812.87,1046.5,796.73Z" transform="translate(284.32 84.19)"/><path class="cls-49" d="M996.74,791.17s12.2-7.74,5.94-12S987.66,790.83,996.74,791.17Z" transform="translate(284.32 84.19)"/><path class="cls-49" d="M985.16,789.13s12.52-17.09,3.75-25.64S980.15,784.86,985.16,789.13Z" transform="translate(284.32 84.19)"/><path class="cls-49" d="M705.51,770.17S719,759.9,745,757.37s-27.9-13.48-47.15,12.8C697.81,770.17,689.15,781.85,705.51,770.17Z" transform="translate(284.32 84.19)"/><path class="cls-49" d="M668.94,771.63S708.4,738.78,731.49,730s-22.13-9.49-52.93,17.88C678.56,747.9,663.17,764.33,668.94,771.63Z" transform="translate(284.32 84.19)"/><path class="cls-49" d="M657.39,771.63s26.22-53.29,38.13-59.86S676.64,701.55,657.39,745C657.39,745,649.69,768,657.39,771.63Z" transform="translate(284.32 84.19)"/><path class="cls-49" d="M643.44,771.63s10.1-48.91,19.73-56.21S626.6,723.45,643.44,771.63Z" transform="translate(284.32 84.19)"/><path class="cls-49" d="M637.67,771.63s.48-40.75-20.21-47S629.49,751.19,637.67,771.63Z" transform="translate(284.32 84.19)"/><path class="cls-49" d="M630.93,771.63s-13-46.7-44.75-47.8S611.2,741,630.93,771.63Z" transform="translate(284.32 84.19)"/><path class="cls-49" d="M628.2,771.63a60.66,60.66,0,0,0-45.87-17.52C553.46,755.57,621.15,765.79,628.2,771.63Z" transform="translate(284.32 84.19)"/><path class="cls-49" d="M812,772.52s20.23-3.62,17.53-16.62C827.6,746.88,812,772.52,812,772.52Z" transform="translate(284.32 84.19)"/><path class="cls-49" d="M806.94,770.62s14.21-14.19,5.64-22.32C807.57,743.55,806.94,770.62,806.94,770.62Z" transform="translate(284.32 84.19)"/><path class="cls-50" d="M319.77,754S240.1,678.13,188,652.89s-98.39,11.53-98.39,11.53c-99.08-89.77-152.87,21-152.87,21-38.08-22.78-65.54-3.22-65.54-3.22-43.68,32.25-21.82,83.14-21.82,83.14-131,21-53.76,72.92-53.76,72.92l18.48,9.81,481.11-7.31Z" transform="translate(284.32 84.19)"/><path class="cls-51" d="M-81.76,908.88S-159,857-28,836c0,0-21.86-50.89,21.82-83.14,0,0,27.45-19.56,65.54,3.22,0,0,53.79-110.8,152.87-21,0,0,46.31-36.77,98.39-11.53s66.85,49,66.85,49,98-32.8,122,49.43c0,0,59.27-39.78,90.71,36.46,0,0,86.83-42,129.36,30.84,0,0,107.52-5.61,84,26.64l-40.32,15.43L-63.28,918.7Z" transform="translate(284.32 84.19)"/><path class="cls-52" d="M2752.42,886.76s69.22-65.09-48.16-91.48c0,0,19.59-63.85-19.54-104.31,0,0-28.78-25.62-61.15,36.51,0,0-93.25-157.35-137.13,11.89,0,0-64.87-101.37-107.11-64-32.84,29-26.71,123.36-26.71,123.36s-54.63-137.23-114.1-19.83c0,0-64.71-62.75-92.87,32.89,0,0-78.68-62.37-116.78,29,0,0-181.41,33.65-160.34,74.11h127l740.38-15.83Z" transform="translate(284.32 84.19)"/><path class="cls-53" d="M1953.43,915.67s-86,8.86-91.75-14.87,71.29-10.33,103.64,2.57c-101.92-66.52-48-27.12-78.13-51.38s-11.29-50,40.18-15.55c43.47,36,56.26,46.53,56.26,46.53s-39.8-56.64-57.77-87.83,4.29-65.79,42.42-14.11C1968,760,1968,758,1968,758s1.14,31.33-1.12-4.92,30.26-27,28.31,28.26c11.57-24.62-4.52,4.48,13.68-22.62s51.68-18.3,32.88,34.16-12.77,37.4-12.77,37.4l-14,33.62,48.17-47.21c34-28.47,55-16.74,20.2,29.06-23.49,25.79-43.79,46.29-43.79,46.29s23.29-9.82,60.7-27.6,46.23,17,2.64,33.68c-54.29,5.82-149.43,17.58-149.43,17.58" transform="translate(284.32 84.19)"/><path class="cls-54" d="M2010.83,893.57l79.55-81s-66.77,74.9-79.55,81" transform="translate(284.32 84.19)"/><path class="cls-54" d="M1996.59,860.31,2029.37,756s-21.48,88.88-32.78,104.31" transform="translate(284.32 84.19)"/><path class="cls-54" d="M1975,743.08s13.1,115,18.25,130.16c3.17-7.13-14.61-129.17-18.25-130.16" transform="translate(284.32 84.19)"/><path class="cls-54" d="M1988.27,866.94s-55.46-92.86-57-96.71,58.11,80.95,57,96.71" transform="translate(284.32 84.19)"/><path class="cls-54" d="M2023.2,903.55s78.37-24.6,89.71-31.53-31.24,20.8-89.71,31.53" transform="translate(284.32 84.19)"/><path class="cls-54" d="M1888.73,835.16s82.59,64.11,92.72,68.87c0,0-85-70-92.72-68.87" transform="translate(284.32 84.19)"/><path class="cls-54" d="M1962.63,909.68s-88.79-4.63-90.91-6.11,81.09,2.45,90.91,6.11" transform="translate(284.32 84.19)"/><path class="cls-54" d="M2007.16,826.68l24-17.16s-21.69,9.73-24,17.16" transform="translate(284.32 84.19)"/><path class="cls-54" d="M2012.37,810.1s-8.76-24.32-9.87-26.93,10.44,16.08,9.87,26.93" transform="translate(284.32 84.19)"/><path class="cls-54" d="M2019.75,793.21s22.6-15.78,22.43-18.82-19.47,16-22.43,18.82" transform="translate(284.32 84.19)"/><path class="cls-54" d="M2018.86,784.84l-7.37-19.92s8.87,10.52,7.37,19.92" transform="translate(284.32 84.19)"/><path class="cls-54" d="M2025.64,878.51s6.9-26.94,9.72-29.94-7.81,25.34-9.72,29.94" transform="translate(284.32 84.19)"/><path class="cls-54" d="M2041.13,865.8l30-13s-16.88,2.74-30,13" transform="translate(284.32 84.19)"/><path class="cls-54" d="M2063.87,839.6s-.75-17.66,1.68-20.63.84,18.06-1.68,20.63" transform="translate(284.32 84.19)"/><path class="cls-54" d="M2074.32,830.37l19.41-8.46s-5.83,6.11-19.41,8.46" transform="translate(284.32 84.19)"/><path class="cls-54" d="M2067.73,889.07s19-15.34,25.05-17.36-12.52,10.68-25.05,17.36" transform="translate(284.32 84.19)"/><path class="cls-54" d="M2077.59,888.07s32.27-1.34,36.64-3.71-31.75,1.88-36.64,3.71" transform="translate(284.32 84.19)"/><path class="cls-54" d="M2051,897l31.74.53s-21.37-3.31-31.74-.53" transform="translate(284.32 84.19)"/><path class="cls-54" d="M1987.64,812.6c-.2-1.38,7.91-17,7.91-17s-5.75,2.39-8.11,15.57" transform="translate(284.32 84.19)"/><path class="cls-54" d="M1981.13,799.17s-9-13.77-9.37-13.15,7.32,2.36,9.37,13.15" transform="translate(284.32 84.19)"/><path class="cls-54" d="M1982.77,780l4-21.27s-6,7.89-4,21.27" transform="translate(284.32 84.19)"/><path class="cls-54" d="M1968.19,825s-3.48-29.87-3.34-31.22-3.27,16.14,3.34,31.22" transform="translate(284.32 84.19)"/><path class="cls-54" d="M1949.05,795.28s-5.46-15.85-4.92-21.77,5.16,16.49,4.92,21.77" transform="translate(284.32 84.19)"/><path class="cls-54" d="M1954.71,810.53l-20.13-8.71s10.3.14,20.13,8.71" transform="translate(284.32 84.19)"/><path class="cls-54" d="M1974.12,843.21l-19.1-4.59s11.69-.56,19.1,4.59" transform="translate(284.32 84.19)"/><path class="cls-54" d="M1911,848.66s-12.14-14.57-13.32-18.34,10.57,7.49,13.32,18.34" transform="translate(284.32 84.19)"/><path class="cls-54" d="M1925.51,863.42l-24.84-4.29a53.05,53.05,0,0,1,24.84,4.29" transform="translate(284.32 84.19)"/><path class="cls-54" d="M1938.13,869.29c.06.05-7.42-12.18-6.94-18.69s4.22,12.94,7,18.74" transform="translate(284.32 84.19)"/><path class="cls-54" d="M1955.64,883.14s-6.06-14.77-6.21-19.81,8.08,13.8,6.21,19.81" transform="translate(284.32 84.19)"/><path class="cls-54" d="M1908.13,891.82l26.7,14.36s-10.35-.93-26.7-14.36" transform="translate(284.32 84.19)"/><path class="cls-54" d="M1898,903.93s-18.37-7.21-21.45-10.34,18.17,5.87,21.45,10.34" transform="translate(284.32 84.19)"/><path class="cls-54" d="M1920.28,907.32s-22.61,7-27.75,7.41,13.2-6.28,27.75-7.41" transform="translate(284.32 84.19)"/></g></svg>