<svg id="Layer_1" data-name="Layer 1" xmlns="http://www.w3.org/2000/svg" xmlns:xlink="http://www.w3.org/1999/xlink" viewBox="0 0 2961.73 1044.85"><defs><style>.cls-1{fill:none;}.cls-2{clip-path:url(#clip-path);}.cls-3{fill:url(#linear-gradient);}.cls-4{fill:url(#linear-gradient-2);}.cls-5{fill:url(#linear-gradient-3);}.cls-6{fill:url(#linear-gradient-4);}.cls-7{fill:url(#linear-gradient-5);}.cls-8{fill:#7dd4f3;}.cls-9{fill:url(#linear-gradient-6);}.cls-10{fill:url(#linear-gradient-7);}.cls-11{fill:#00c13e;}.cls-12{fill:url(#linear-gradient-8);}.cls-13{fill:#01491d;}.cls-14{fill:url(#linear-gradient-9);}.cls-15{fill:#c28a73;}.cls-16{fill:#ce856b;}.cls-17{fill:#754d32;}.cls-18{fill:#3beaa2;}.cls-19{fill:url(#linear-gradient-10);}.cls-20{fill:url(#linear-gradient-11);}.cls-21{fill:url(#linear-gradient-12);}.cls-22{fill:url(#linear-gradient-13);}.cls-23{fill:url(#linear-gradient-14);}.cls-24{fill:url(#linear-gradient-15);}.cls-25{fill:url(#linear-gradient-16);}.cls-26{fill:url(#linear-gradient-17);}.cls-27{fill:url(#linear-gradient-18);}.cls-28{fill:url(#linear-gradient-19);}.cls-29{fill:url(#linear-gradient-20);}.cls-30{fill:url(#linear-gradient-21);}.cls-31{fill:#9fe00a;}.cls-32{fill:#0a0931;}.cls-33{fill:#4f140f;}.cls-34{fill:#07281b;}.cls-35{fill:#082021;}.cls-36{fill:#8b979d;}.cls-37{fill:url(#linear-gradient-22);}.cls-38{fill:url(#linear-gradient-23);}.cls-39{fill:#81a0b1;}.cls-40{fill:url(#linear-gradient-24);}.cls-41{fill:#52ed83;}</style><clipPath id="clip-path" transform="translate(102.73 104)"><rect class="cls-1" width="2693" height="900"/></clipPath><linearGradient id="linear-gradient" x1="1220.88" y1="1583.41" x2="1555.08" y2="-68.76" gradientUnits="userSpaceOnUse"><stop offset="0.2" stop-color="#c5f7fd"/><stop offset="0.58" stop-color="#a7f7fd"/><stop offset="0.83" stop-color="#99f7fd"/></linearGradient><linearGradient id="linear-gradient-2" x1="801.82" y1="140.36" x2="870.51" y2="71.62" gradientUnits="userSpaceOnUse"><stop offset="0.15" stop-color="#82cdd9"/><stop offset="0.82" stop-color="#d7eef4"/></linearGradient><linearGradient id="linear-gradient-3" x1="744.34" y1="-41.69" x2="871.38" y2="-168.82" gradientTransform="matrix(0.85, -0.08, 0.08, 0.84, 109.38, 251.2)" gradientUnits="userSpaceOnUse"><stop offset="0.39" stop-color="#adcff1"/><stop offset="0.48" stop-color="#b9d9f5"/><stop offset="0.71" stop-color="#d2f0fc"/><stop offset="0.86" stop-color="#dbf8ff"/></linearGradient><linearGradient id="linear-gradient-4" x1="1265.4" y1="327.15" x2="1410.55" y2="181.9" gradientUnits="userSpaceOnUse"><stop offset="0.07" stop-color="#82cdd9"/><stop offset="0.85" stop-color="#d7eef4"/></linearGradient><linearGradient id="linear-gradient-5" x1="1672.17" y1="411.09" x2="1750.62" y2="332.58" xlink:href="#linear-gradient-4"/><linearGradient id="linear-gradient-6" x1="102.73" y1="890.5" x2="2795.73" y2="890.5" gradientUnits="userSpaceOnUse"><stop offset="0" stop-color="#489d27"/><stop offset="0.08" stop-color="#5aac33"/><stop offset="0.18" stop-color="#6bba3f"/><stop offset="0.31" stop-color="#76c547"/><stop offset="0.49" stop-color="#7dca4c"/><stop offset="1" stop-color="#7fcc4d"/></linearGradient><linearGradient id="linear-gradient-7" x1="102.73" y1="702" x2="2795.73" y2="702" gradientUnits="userSpaceOnUse"><stop offset="0" stop-color="#80f19c"/><stop offset="1" stop-color="#76eea2"/></linearGradient><linearGradient id="linear-gradient-8" x1="95.73" y1="785" x2="2799.73" y2="785" gradientUnits="userSpaceOnUse"><stop offset="0" stop-color="#4f5a73"/><stop offset="1" stop-color="#4f5a73"/></linearGradient><linearGradient id="linear-gradient-9" x1="302.33" y1="672.96" x2="293.68" y2="229.84" gradientUnits="userSpaceOnUse"><stop offset="0" stop-color="#907d61"/><stop offset="0.43" stop-color="#776b59"/><stop offset="0.76" stop-color="#686054"/></linearGradient><linearGradient id="linear-gradient-10" x1="281.89" y1="377.18" x2="528" y2="-228.43" gradientUnits="userSpaceOnUse"><stop offset="0.22" stop-color="#55ca93"/><stop offset="0.4" stop-color="#58cc9a"/><stop offset="0.73" stop-color="#5ccfa2"/></linearGradient><linearGradient id="linear-gradient-11" x1="777.7" y1="124.75" x2="539.91" y2="451.3" gradientUnits="userSpaceOnUse"><stop offset="0.3" stop-color="#59c587"/><stop offset="0.67" stop-color="#57b479"/></linearGradient><linearGradient id="linear-gradient-12" x1="-35.99" y1="328.28" x2="137.33" y2="164.14" gradientUnits="userSpaceOnUse"><stop offset="0.23" stop-color="#2fac76"/><stop offset="0.54" stop-color="#31ad79"/><stop offset="0.74" stop-color="#36b281"/><stop offset="0.88" stop-color="#3db98e"/></linearGradient><linearGradient id="linear-gradient-13" x1="66.46" y1="228.55" x2="61.76" y2="-12.14" gradientUnits="userSpaceOnUse"><stop offset="0.18" stop-color="#63c28e"/><stop offset="0.6" stop-color="#63c091"/></linearGradient><linearGradient id="linear-gradient-14" x1="272.42" y1="391.41" x2="528.32" y2="47.52" gradientUnits="userSpaceOnUse"><stop offset="0.09" stop-color="#39a57e"/><stop offset="0.77" stop-color="#72e39c"/></linearGradient><linearGradient id="linear-gradient-15" x1="929.44" y1="571.03" x2="926.1" y2="399.91" xlink:href="#linear-gradient-9"/><linearGradient id="linear-gradient-16" x1="921.55" y1="456.81" x2="1016.58" y2="222.95" xlink:href="#linear-gradient-10"/><linearGradient id="linear-gradient-17" x1="1113.01" y1="359.33" x2="1021.18" y2="485.43" xlink:href="#linear-gradient-11"/><linearGradient id="linear-gradient-18" x1="798.8" y1="437.93" x2="865.72" y2="374.54" xlink:href="#linear-gradient-12"/><linearGradient id="linear-gradient-19" x1="838.36" y1="399.41" x2="836.54" y2="306.47" xlink:href="#linear-gradient-13"/><linearGradient id="linear-gradient-20" x1="917.89" y1="462.31" x2="1016.71" y2="329.51" xlink:href="#linear-gradient-14"/><linearGradient id="linear-gradient-21" x1="146.95" y1="788.96" x2="221.64" y2="518.88" gradientUnits="userSpaceOnUse"><stop offset="0.32" stop-color="#247a37"/><stop offset="0.5" stop-color="#359333"/><stop offset="0.8" stop-color="#4eb82d"/><stop offset="0.97" stop-color="#57c62b"/></linearGradient><linearGradient id="linear-gradient-22" x1="1787.95" y1="487.42" x2="1814.12" y2="425.56" gradientUnits="userSpaceOnUse"><stop offset="0.39" stop-color="#17b7b8"/><stop offset="0.44" stop-color="#29bdba"/><stop offset="0.54" stop-color="#4ac9bd"/><stop offset="0.65" stop-color="#64d2c0"/><stop offset="0.76" stop-color="#76d8c2"/><stop offset="0.87" stop-color="#81dcc3"/><stop offset="1" stop-color="#85ddc3"/></linearGradient><linearGradient id="linear-gradient-23" x1="1939.4" y1="504.13" x2="1964.35" y2="445.14" xlink:href="#linear-gradient-22"/><linearGradient id="linear-gradient-24" x1="608.32" y1="465.46" x2="633.05" y2="397.47" gradientUnits="userSpaceOnUse"><stop offset="0.15" stop-color="#12a3a7"/><stop offset="0.33" stop-color="#2cb8b8"/><stop offset="0.63" stop-color="#52d6d1"/><stop offset="0.79" stop-color="#61e1db"/></linearGradient></defs><g class="cls-2"><rect class="cls-3" x="100.73" y="103" width="2696" height="708"/><path class="cls-4" d="M800.21,101.26s1.4-9.45,19.14-15.93,32.68-10,48.09-2.49,12.14,24.4,8.87,26.39c-6.34,3.87-20,9-56.49,4C797.88,110.23,800.21,101.26,800.21,101.26Z" transform="translate(102.73 104)"/><path class="cls-5" d="M730.91,90.87s4.41-18.58,37.6-28.78,54.81-15.1,73.76,3.29,10.18,48.34-2.88,51.81-67.68,5.3-100.85-7.53C738.54,109.66,726.68,103.84,730.91,90.87Z" transform="translate(102.73 104)"/><path class="cls-6" d="M1261.25,244.33s3-19.14,40.91-32.24,69.85-20.15,102.78-5,26,49.37,19,53.4c-13.56,7.82-42.77,18.11-120.74,8.06C1256.26,262.46,1261.25,244.33,1261.25,244.33Z" transform="translate(102.73 104)"/><path class="cls-7" d="M1669.92,366.32S1671.54,356,1692,348.9s37.75-10.9,55.55-2.73,14,26.68,10.25,28.86c-7.33,4.23-23.12,9.79-65.26,4.36C1667.23,376.12,1669.92,366.32,1669.92,366.32Z" transform="translate(102.73 104)"/><path class="cls-8" d="M0,319S93,129,235,45,519,81,519,81,659,191,735,283c0,0,92-55,206-56,272-2.39,546,268,887,266,191.77-1.12,580-187,803-40,0,0,35,19,62,36v86L0,551Z" transform="translate(102.73 104)"/><rect class="cls-9" x="102.73" y="777" width="2693" height="227"/><polygon class="cls-10" points="102.73 613 2795.73 621 2795.73 779 102.73 791 102.73 613"/><path class="cls-11" d="M972.4,656.16s13.27-9.43,16.86-8.54-3.65-8.32-14.35,2C970.61,653.8,972.4,656.16,972.4,656.16Z" transform="translate(102.73 104)"/><path class="cls-11" d="M969.53,656.16s5.58-21.47,11.58-23.68-9.54-5.51-12.65,9C966.31,651.45,969.53,656.16,969.53,656.16Z" transform="translate(102.73 104)"/><path class="cls-11" d="M967.72,656.16s-6.43-15.3-19.34-15.88S967.72,657,967.72,657" transform="translate(102.73 104)"/><rect class="cls-12" x="95.73" y="759" width="2704" height="52"/><path class="cls-13" d="M0,787.92s269-28.78,557-20.56,524,82.22,560,84.28,292,41.11,774-12.33,705-92.5,803-84.28l-1,147H0Z" transform="translate(102.73 104)"/><path class="cls-14" d="M473.1,644.83c.38-1-2.65-2.53-5.24-6.24a23.17,23.17,0,0,1-3.48-8.45c-2.28-8.89-11.12-19.64-14-23.61-9.26-12.62-13.62-31.54-20.87-62.93a466.52,466.52,0,0,1-9.13-53.94c-.53-31.31,3.77-54.91,12.63-68.53a370.28,370.28,0,0,0,25.26-46.47s52,2.36,56.48,0,17.09-13.6,14.86-42.64l.74-7L517,328.78s-4.12,26-21.25,28.06c-20.43,2.82-43.77-9.72-40.35-28.06H440.51s4.57,53.48-17.89,64.78C405.87,398,396,391,396.73,359.66l.76-31.3-26.64,0s1.52,33.28,0,35.3S357.52,386.3,345,343.93c-10.66-29.86-4.56-15.48-4.56-15.48l-14.47.33s6.47,32.9,27.79,53.48c14.08,19.77,14.46,52.86,3.8,64.56-11.41,11.7-30.83,18.16-45.67-51.24-9.9-46-12.57-66.8-12.57-66.8l-20.55-.23s8.37,54.92,6.85,64.61c-1.9,10.89-2.66,44.38-47.58,30.26-23.32-3.44-70-15.78-89.46-52.86-7.23-31.47-5.71-43.58-5.71-43.58l-16.74-.44s.38,18.19,3.8,23A53.86,53.86,0,0,1,100,343c-17.24-9.54-24.2-25.68-26.07-30.46L60.51,312a79.82,79.82,0,0,0,13.55,23.74c13.24,15.88,31.66,24.64,45.17,26.76,2.7.42,13.35,1.85,13.31,2.3,0,.12-.74.12-.74.12s3.42,47.61,57.09,69.4c48,19,68.9,28.65,81.08,36.32s20.56,15.73,18.66,42a217.49,217.49,0,0,0,3.42,62.75,212.5,212.5,0,0,0,26.27,67.58c41.21,1.37,67.68,1.5,84.65,1.34,34-.33,53.41-2.1,63.6.4C466.62,644.67,472.6,646.14,473.1,644.83Z" transform="translate(102.73 104)"/><path class="cls-15" d="M419.63,482.84a105.36,105.36,0,0,0-32.32,30.27c-36.43,52.83-11.64,122.32-8.82,129.86l96.18,1.85a311.74,311.74,0,0,1-18.5-31C430.9,565.41,422.32,518.09,419.63,482.84Z" transform="translate(102.73 104)"/><path class="cls-16" d="M308.75,382.87s17.83,70,31.8,69.46C326.1,459.48,299.12,440.07,308.75,382.87Z" transform="translate(102.73 104)"/><path class="cls-17" d="M408.49,567a26.76,26.76,0,0,1-5.13.64,12,12,0,0,1-5.11-.79,4.8,4.8,0,0,1-2.06-1.62,4.53,4.53,0,0,1-.78-2.54,12.17,12.17,0,0,1,1.22-5.08,37.17,37.17,0,0,1,5.7-8.69,32.77,32.77,0,0,1,7.93-6.76,12.1,12.1,0,0,1,5-1.72,5.93,5.93,0,0,1,2.75.42,9.25,9.25,0,0,1,1.21.73,10.18,10.18,0,0,1,1,1,12.47,12.47,0,0,1,2.33,4.8,25.86,25.86,0,0,1,.57,2.58c.1.87.26,1.74.3,2.61a60.71,60.71,0,0,1-2.61,20.59l0,.06,0,.07a73,73,0,0,1-6.37,9.35,44.78,44.78,0,0,1-8.08,8,20.38,20.38,0,0,1-5,2.8,8.82,8.82,0,0,1-5.85.28,9,9,0,0,1-4.41-3.83,21.69,21.69,0,0,1-2.38-5.21,51.39,51.39,0,0,1-2.1-11.11,79.87,79.87,0,0,1-.19-11.26l1-22.45L387,562.27a78.69,78.69,0,0,0,.35,11.18,50.15,50.15,0,0,0,2.23,10.89,21.63,21.63,0,0,0,2.33,5,8.09,8.09,0,0,0,3.91,3.4,7.83,7.83,0,0,0,5.15-.31,19.34,19.34,0,0,0,4.74-2.67,44.18,44.18,0,0,0,7.83-7.81,77.64,77.64,0,0,0,6.25-9.21l0,.12a59.67,59.67,0,0,0,2.66-20.18c0-.85-.18-1.68-.27-2.53s-.28-1.66-.54-2.46a11.4,11.4,0,0,0-2.1-4.44c-.25-.32-.57-.55-.84-.84s-.65-.42-1-.61a5.09,5.09,0,0,0-2.3-.37,11.22,11.22,0,0,0-4.66,1.54,31.64,31.64,0,0,0-7.82,6.47,37.33,37.33,0,0,0-5.74,8.44,11.59,11.59,0,0,0-1.31,4.84,4.19,4.19,0,0,0,.65,2.35,4.51,4.51,0,0,0,1.9,1.58,12.05,12.05,0,0,0,5,.9A26.8,26.8,0,0,0,408.49,567Z" transform="translate(102.73 104)"/><path class="cls-18" d="M41.22,172.69C45.37,142.52,56.27,97,89.05,59.75,177.62-40.78,347.25,6,401.51,21,535.47,58.08,622.29,147,664.82,198.68l21.09,16.6a1740,1740,0,0,1-336.62,28.35A1740.86,1740.86,0,0,1,56.35,214.8Z" transform="translate(102.73 104)"/><path class="cls-19" d="M42.42,171C46.52,142,57.3,98.1,89.74,62.28,177.39-34.5,345.24,10.54,398.93,25,531.49,60.67,617.4,146.23,659.48,196l20.88,16A1769.1,1769.1,0,0,1,347.25,239.3,1768.76,1768.76,0,0,1,57.39,211.54Z" transform="translate(102.73 104)"/><path class="cls-18" d="M590.09,187.89s122.66-28.18,177,57.63c35.41,66.6,41.73,88.2-177,76.12C553.1,215,590.09,187.89,590.09,187.89Z" transform="translate(102.73 104)"/><path class="cls-20" d="M593.28,190.38S712.41,161.74,765.22,249c34.39,67.7,40.54,89.65-171.94,77.37C557.35,218,593.28,190.38,593.28,190.38Z" transform="translate(102.73 104)"/><path class="cls-18" d="M68,310.2c-3.7,0-110.93-7.54-110.93-7.54s-66.56-13.84-28.35-47.81a63.72,63.72,0,0,0,24.16-20.6c7.61-11.12,5.57-16.58,10.43-26.82,15.38-32.43,67-43.48,67-43.48h0s70-14.31,122,13.77c5.8,3.14,8.66,4.83,10.87,7.75,24.07,31.78-50.8,124.73-50.8,124.73Z" transform="translate(102.73 104)"/><path class="cls-21" d="M67.13,312.38c-3.57,0-107.15-7.57-107.15-7.57s-64.28-13.88-27.38-47.95a62.14,62.14,0,0,0,23.34-20.67c7.35-11.15,5.38-16.62,10.07-26.9,14.86-32.53,64.68-43.61,64.68-43.61h0s67.58-14.36,117.86,13.82c5.61,3.14,8.37,4.83,10.5,7.76C182.31,219.14,110,312.38,110,312.38Z" transform="translate(102.73 104)"/><path class="cls-18" d="M13.62,124.21s10.14-23.73,79.84-11.67c64.64,14.73,15.21,52.25-39.92,44.21S4.4,132.46,13.62,124.21Z" transform="translate(102.73 104)"/><path class="cls-22" d="M14,125.75s9.82-23.06,77.37-11.34c62.64,14.32,14.74,50.78-38.68,43S5.08,133.77,14,125.75Z" transform="translate(102.73 104)"/><path class="cls-18" d="M73.76,224.4s61-50.83,125-70.77C268.65,123.73,361.18,57,473.39,87.85c86.61,28.9,151.58,68.77,190,142.53,18.71,42.87,21.66,94.7-121.06,87.72l-397.66.64S-10.89,307.14,73.76,224.4Z" transform="translate(102.73 104)"/><path class="cls-23" d="M67.94,232s61.73-51.68,126.45-71.94c70.7-30.4,164.3-98.3,277.81-66.88,87.62,29.38,153.34,69.92,192.17,144.9,18.92,43.58,21.91,96.27-122.47,89.18l-402.27.64S-17.7,316.13,67.94,232Z" transform="translate(102.73 104)"/><path class="cls-16" d="M530.32,329.58s1.91,30.17-11.48,41.89c-4,4.1-7.15,4-11.92,4.1a27.79,27.79,0,0,0,16.63-20,152.66,152.66,0,0,0,3.48-27h3.29Z" transform="translate(102.73 104)"/><path class="cls-16" d="M397.49,328.36c-.53,5.28-.79,23.67-.58,27.25.92,15.68,2,33.54,11.57,38.15a12.57,12.57,0,0,0,7.21,1l3.63-.44c-4.46,5.85-8.46,6.35-9.75,6.41-7.94.39-17.23-10.53-19.49-28.13a113.56,113.56,0,0,1-1.6-25.3c.37-7,1.69-18.91,1.69-18.91h7.32Z" transform="translate(102.73 104)"/><path class="cls-24" d="M995.39,560.16c.14-.37-1-1-2-2.41a9,9,0,0,1-1.34-3.26c-.89-3.43-4.3-7.58-5.42-9.12-3.58-4.87-5.26-12.18-8.06-24.3A181.7,181.7,0,0,1,975,500.24c-.2-12.09,1.46-21.2,4.88-26.46a143.35,143.35,0,0,0,9.76-17.94s20.08.91,21.8,0,6.6-5.26,5.74-16.47l.29-2.7-5.16,1.45s-1.59,10.06-8.21,10.83c-7.89,1.1-16.9-3.75-15.58-10.83H982.8s1.76,20.65-6.91,25c-6.47,1.72-10.29-1-10-13.08l.3-12.1-10.29,0s.59,12.85,0,13.63-5.15,8.73-10-7.63c-4.11-11.53-1.76-6-1.76-6l-5.59.13s2.5,12.7,10.73,20.65c5.44,7.64,5.59,20.41,1.47,24.93-4.41,4.52-11.9,7-17.63-19.79-3.83-17.76-4.86-25.79-4.86-25.79l-7.93-.09s3.23,21.21,2.64,25c-.73,4.2-1,17.14-18.37,11.68-9-1.32-27-6.09-34.54-20.41-2.8-12.15-2.21-16.83-2.21-16.83l-6.47-.17s.15,7,1.47,8.9a20.76,20.76,0,0,1-11.54-2.54,23.31,23.31,0,0,1-10.07-11.76l-5.18-.21a30.91,30.91,0,0,0,5.23,9.16,30.24,30.24,0,0,0,17.45,10.34,46.72,46.72,0,0,1,5.13.88c0,.05-.28.05-.28.05s1.32,18.39,22,26.8c18.52,7.32,26.6,11.06,31.31,14s7.93,6.08,7.2,16.21a84,84,0,0,0,1.32,24.23,82.28,82.28,0,0,0,10.14,26.1c15.92.53,26.14.58,32.69.51,13.15-.12,20.63-.81,24.56.16C992.88,560.1,995.19,560.67,995.39,560.16Z" transform="translate(102.73 104)"/><path class="cls-15" d="M974.74,497.61a40.62,40.62,0,0,0-12.48,11.69c-14.07,20.4-4.5,47.23-3.41,50.15l37.14.71a120.37,120.37,0,0,1-7.14-12A130.53,130.53,0,0,1,974.74,497.61Z" transform="translate(102.73 104)"/><path class="cls-16" d="M931.92,459s6.89,27,12.28,26.82C938.62,488.59,928.2,481.1,931.92,459Z" transform="translate(102.73 104)"/><path class="cls-17" d="M970.43,530.11a10.84,10.84,0,0,1-2,.25,4.79,4.79,0,0,1-2-.31,1.73,1.73,0,0,1-1.1-1.6,4.76,4.76,0,0,1,.48-2,14,14,0,0,1,5.27-5.94,4.67,4.67,0,0,1,1.94-.66,2.14,2.14,0,0,1,1.88.81,4.69,4.69,0,0,1,.9,1.85,9.64,9.64,0,0,1,.34,2,23.45,23.45,0,0,1-1,8v0a22.16,22.16,0,0,1-5.58,6.68,8.14,8.14,0,0,1-1.94,1.07,3.37,3.37,0,0,1-2.24.11,3.5,3.5,0,0,1-1.69-1.48,8.83,8.83,0,0,1-.92-2,25.44,25.44,0,0,1-.91-8.63l.4-8.67-.17,8.67a25.24,25.24,0,0,0,1,8.53,8.22,8.22,0,0,0,.9,1.92,3.16,3.16,0,0,0,1.52,1.33,3.07,3.07,0,0,0,2-.13,7.31,7.31,0,0,0,1.84-1,22.47,22.47,0,0,0,5.43-6.58l0,.05a23,23,0,0,0,1-7.8,9,9,0,0,0-.31-1.93,4.34,4.34,0,0,0-.81-1.72,1.83,1.83,0,0,0-1.62-.72,4.51,4.51,0,0,0-1.81.6,14,14,0,0,0-5.22,5.78,4.58,4.58,0,0,0-.51,1.87,1.59,1.59,0,0,0,1,1.52,4.83,4.83,0,0,0,1.93.35A10.05,10.05,0,0,0,970.43,530.11Z" transform="translate(102.73 104)"/><path class="cls-18" d="M828.61,377.85c1.6-11.66,5.81-29.25,18.47-43.62,34.2-38.82,99.71-20.75,120.66-15,51.73,14.32,85.26,48.64,101.68,68.61l8.14,6.41a672.38,672.38,0,0,1-130,10.95A672,672,0,0,1,834.45,394.1Z" transform="translate(102.73 104)"/><path class="cls-25" d="M829.07,377.2c1.59-11.22,5.75-28.16,18.28-42,33.84-37.37,98.66-20,119.39-14.4,51.19,13.78,84.37,46.82,100.62,66.05l8.06,6.17a683.48,683.48,0,0,1-128.63,10.53,682.82,682.82,0,0,1-111.94-10.71Z" transform="translate(102.73 104)"/><path class="cls-18" d="M1040.56,383.71s47.37-10.88,68.36,22.26c13.68,25.72,16.12,34.06-68.36,29.39C1026.28,394.19,1040.56,383.71,1040.56,383.71Z" transform="translate(102.73 104)"/><path class="cls-26" d="M1041.79,384.68s46-11.06,66.4,22.62c13.28,26.14,15.65,34.62-66.4,29.88C1027.92,395.32,1041.79,384.68,1041.79,384.68Z" transform="translate(102.73 104)"/><path class="cls-18" d="M839,431c-1.43,0-42.83-2.92-42.83-2.92s-25.7-5.34-11-18.46a24.62,24.62,0,0,0,9.33-7.95c2.94-4.3,2.15-6.41,4-10.36,5.94-12.53,25.86-16.79,25.86-16.79h0s27-5.53,47.12,5.32c2.24,1.21,3.34,1.86,4.19,3C885,395.05,856.1,431,856.1,431Z" transform="translate(102.73 104)"/><path class="cls-27" d="M838.62,431.79c-1.38,0-41.38-2.93-41.38-2.93s-24.82-5.36-10.57-18.51a24.15,24.15,0,0,0,9-8c2.84-4.31,2.08-6.42,3.89-10.39,5.74-12.57,25-16.84,25-16.84h0s26.09-5.55,45.51,5.33c2.16,1.21,3.23,1.87,4.05,3,9,12.31-18.94,48.32-18.94,48.32Z" transform="translate(102.73 104)"/><path class="cls-18" d="M818,359.12s3.92-9.16,30.84-4.5c25,5.69,5.87,20.17-15.42,17.07S814.39,362.31,818,359.12Z" transform="translate(102.73 104)"/><path class="cls-28" d="M818.11,359.72s3.79-8.91,29.88-4.38c24.18,5.53,5.69,19.61-14.94,16.59S814.66,362.82,818.11,359.72Z" transform="translate(102.73 104)"/><path class="cls-18" d="M841.18,397.81s23.56-19.63,48.27-27.32c27-11.55,62.71-37.34,106-25.41,33.45,11.16,58.54,26.56,73.36,55,7.22,16.55,8.36,36.57-46.75,33.87l-153.56.25S808.49,429.76,841.18,397.81Z" transform="translate(102.73 104)"/><path class="cls-29" d="M838.93,400.76s23.84-20,48.83-27.79c27.3-11.74,63.44-38,107.28-25.82,33.83,11.35,59.21,27,74.21,56,7.3,16.83,8.46,37.18-47.3,34.44l-155.34.25S805.86,433.23,838.93,400.76Z" transform="translate(102.73 104)"/><path class="cls-16" d="M1017.48,438.43s.74,11.65-4.43,16.18c-1.54,1.58-2.76,1.54-4.61,1.58a10.73,10.73,0,0,0,6.43-7.72,58.43,58.43,0,0,0,1.34-10.41h1.27Z" transform="translate(102.73 104)"/><path class="cls-16" d="M966.19,438c-.21,2.05-.31,9.15-.23,10.53.36,6,.77,12.95,4.47,14.73a4.79,4.79,0,0,0,2.79.37l1.4-.16c-1.73,2.26-3.27,2.45-3.77,2.47-3.06.15-6.65-4.07-7.53-10.86a44,44,0,0,1-.61-9.77c.14-2.71.65-7.31.65-7.31h2.83Z" transform="translate(102.73 104)"/><path class="cls-30" d="M-88.2,643.56s-49.61-26.46,34.51-37.19c0,0-28-19.31,0-35.76,0,0,20.48-13.59,56.07-5,0,0,41-28.61,98.13-10.73,0,0,50.68-10.73,84.11,2.14s21.57,39.26,21.57,39.26,55-12.08,78.72,2.94c0,0,52.84-.72,58.23,18.59,0,0,84.11-10.73,83,15.74,0,0,68.83-7.55,53.92,13.58L474,655H-77Z" transform="translate(102.73 104)"/><path class="cls-31" d="M465,655.37s-16.32.07-24.57-5.53,11.64-3,27.59-.26c0,0-1.47-1.32-13.85-7.75s-8.84-11.58.92-6.91a137.16,137.16,0,0,1,19.48,11.93s-17.74-14.51-17.93-17.34,3.21-3,19.62,15.27c0,0-15.12-15.24-11.88-22.68S479,643.17,479,643.17s-10-30.57-3-31.9,5.48,30.54,5.48,30.54,6.86-17.64,17.5-17.35-13.78,19-16.06,19.23c0,0,1,1.25,4.42.59s13.26-10.06,18.82-10.42,13.78,6.33-18.56,21.14Z" transform="translate(102.73 104)"/><path class="cls-13" d="M404.52,800.06s-14.27-37.42-31.42-53.29,16.16-11.94,29.28,15.82S404.52,800.06,404.52,800.06Z" transform="translate(102.73 104)"/><path class="cls-13" d="M414.51,788.54s2.58-33.84,37.42-38.42S427.68,764.46,414.51,788.54Z" transform="translate(102.73 104)"/><path class="cls-13" d="M301.71,773.73s3.08-22.21,33-25.86S301.71,773.73,301.71,773.73Z" transform="translate(102.73 104)"/><path class="cls-13" d="M281,789.5s-35-23-24.5-41.86C265,732.38,281,789.5,281,789.5Z" transform="translate(102.73 104)"/><path class="cls-13" d="M290.5,789.5S270,763.5,281,750,290.5,789.5,290.5,789.5Z" transform="translate(102.73 104)"/><path class="cls-13" d="M1662,858.5s-14-14.06-41-17.53,29-18.47,49,17.53C1670,858.5,1679,874.5,1662,858.5Z" transform="translate(102.73 104)"/><path class="cls-13" d="M1671.5,867.5s-.5-55.82,21-64.41S1680,839.5,1671.5,867.5Z" transform="translate(102.73 104)"/><path class="cls-13" d="M1678.5,867.5s13.5-64,46.5-65.48S1699,825.5,1678.5,867.5Z" transform="translate(102.73 104)"/><path class="cls-13" d="M1681.33,867.5s17.67-26,47.67-24S1688.67,859.5,1681.33,867.5Z" transform="translate(102.73 104)"/><path class="cls-11" d="M774.34,708.41s-13-9.54-25-10.14,4.69-8.13,21,3C777.34,706,774.34,708.41,774.34,708.41Z" transform="translate(102.73 104)"/><path class="cls-11" d="M777,708.41s-4.66-21.47-15.66-26.24,14.59-6.46,19,11.93C783.34,706.62,777,708.41,777,708.41Z" transform="translate(102.73 104)"/><path class="cls-11" d="M781.14,708.41s7.2-16.7,25.2-17.29S781.14,708.41,781.14,708.41Z" transform="translate(102.73 104)"/><path class="cls-11" d="M527.67,711.64s-10.59-6-20.38-6.4,3.83-5.14,17.12,1.88C530.12,710.14,527.67,711.64,527.67,711.64Z" transform="translate(102.73 104)"/><path class="cls-11" d="M529.85,711.64s-3.81-15.8-12.77-19.31,11.89-4.75,15.48,8.78C535,710.33,529.85,711.64,529.85,711.64Z" transform="translate(102.73 104)"/><path class="cls-11" d="M533.22,711.64s5.87-10.54,20.54-10.92S533.22,711.64,533.22,711.64Z" transform="translate(102.73 104)"/><path class="cls-11" d="M1972.7,711s-16.16-10.27-20.53-9.3,4.44-9.07,17.47,2.2C1974.88,708.38,1972.7,711,1972.7,711Z" transform="translate(102.73 104)"/><path class="cls-11" d="M1976.19,711s-6.79-23.4-14.09-25.81,11.6-6,15.4,9.78C1980.12,705.82,1976.19,711,1976.19,711Z" transform="translate(102.73 104)"/><path class="cls-11" d="M1978.4,711s7.83-16.67,23.55-17.31-23.55,18.27-23.55,18.27" transform="translate(102.73 104)"/><path class="cls-11" d="M1806.7,655.17s-16.16-7.91-20.53-7.17,4.44-7,17.47,1.7C1808.88,653.2,1806.7,655.17,1806.7,655.17Z" transform="translate(102.73 104)"/><path class="cls-11" d="M1810.19,655.17s-6.79-18-14.09-19.87,11.6-4.63,15.4,7.53C1814.12,651.22,1810.19,655.17,1810.19,655.17Z" transform="translate(102.73 104)"/><path class="cls-11" d="M1812.4,655.17s7.83-12.84,23.55-13.33-23.55,14.07-23.55,14.07" transform="translate(102.73 104)"/><path class="cls-32" d="M2640,761s-81.91-168.76-200-154c-64,8,108,159,108,159s-159-75-286-13c0,0-8,26,204,48,0,0-166,43-184,75s245-46,245-46-43,42-45,71h99s21-44,26-55l-4,55h85.5s-1.5-72-8.5-76Z" transform="translate(102.73 104)"/><path class="cls-33" d="M2105-7s61,55,195,241-68,168-119,156-388-105-539-278-179-216-179-216l-50,11s185,241,268,306,316,200,570,235c0,0,77,8,116,6s155,100,291,450h35V741s-114-142-187-326c0,0-21-61-6-117s55-210,34-301h-49s-7,89-22,196c-12.08,86.18-12,135-26,144s-45-70-88-127S2157-22,2157-22Z" transform="translate(102.73 104)"/><path class="cls-34" d="M2008.76,22.18s-146,20.66-166.23,55.5,214.32-40.86,214.32-40.86-70.36,65-18.4,74.85,74.06-71.2,74.06-71.2,2.57,48.66,67.76,74.27c44,17.27-14.18-94.92-14.18-94.92s48.15,65.87,155.48,32.49c0,0,25.78-17.6-100-58.14,0,0,112.94-27.09,127.84-44.7l-11.33-8.79L1848.91-9.81l8.53,16.34S1938.1,28.93,2008.76,22.18Z" transform="translate(102.73 104)"/><path class="cls-35" d="M2481.75,34.18S2324.13,62.11,2297.86,97.5s234-41.31,234-41.31-89.89,90.49-35,107.79,94.67-96.78,94.67-96.78-34.35,155.8,30.45,196c33.18,20.6,30-211.77,30-211.77s30.83,117.52,151,94.72c0,0,43-55.59-87.83-115.65,0,0,125.44-15.23,143.75-32.53l-11.14-11L2305.44-5.51S2404.55,32.6,2481.75,34.18Z" transform="translate(102.73 104)"/><path class="cls-34" d="M1180.19-52.48c-47.35,29.53,249.13,43.25,249.13,43.25s-113.3,39.87-55.88,84,121.65-45.35,121.65-45.35-63.21,117.56.63,189.5c43.07,48.52,77.65-182.48,77.65-182.48s18.07,111.8,169.94,135.85c0,0,42.4-6.19-86.24-133.9,0,0,145.93,40.6,183.93,22.47,0,0,6.36-3.27-11-12.87C1745.46,1.24,1231.53-84.51,1180.19-52.48Z" transform="translate(102.73 104)"/><path class="cls-32" d="M2209,819.19S2084.47,678.87,1974.78,725c-59.45,25,147,123.86,147,123.86s-173.36-29.2-278.86,64.84c0,0-.67,27.2,209.38-9l66.57,11.42s79.51,5.71,81.35-6.24l93.33,30.91s-20.91-68.91-28.74-70.87c0,0,59.22,59.19,152.45,36.12s67.07-38.58,67.07-38.58S2466.87,835,2331,817.12c0,0,68.72-40.08,137.43-46.92,0,0,20.26-46.21-51.15-49s-134.86,85.66-134.86,85.66,63.14-82.13,67.15-119.62-36.87-49.88-65.58-19S2209,819.19,2209,819.19Z" transform="translate(102.73 104)"/><path class="cls-36" d="M1783.68,467.33a36.24,36.24,0,0,0,2.73,8.56c1.27,2.72,2.21,4.7,4.3,6.44a12.65,12.65,0,0,0,5.73,2.67V467.9l4.24.15v10.53s9.36,1.34,10.65-10.13h1.3s1.11,13.1-11.75,14.64l-.87,48.23h-3.93l.17-39.79a27.15,27.15,0,0,1-7.91-6.75,29.82,29.82,0,0,1-6.15-17.52l.83,0Z" transform="translate(102.73 104)"/><path class="cls-37" d="M1767.67,447.78s39.94-15.26,64,0c23.23,16.17,6.73,20.67-14.33,20.67-21.27-.23-47.32-1.87-47.32-1.87S1741.18,462,1767.67,447.78Z" transform="translate(102.73 104)"/><path class="cls-36" d="M1933.14,481.2a17.92,17.92,0,0,0,3.07,5.59,12.85,12.85,0,0,0,4.85,4.21,20.28,20.28,0,0,0,6.46,1.74V481.57l4.78.1v6.88s10.55.87,12-6.62h1.46s1.25,8.56-13.25,9.56l-1,31.51h-4.42l.19-26a32.52,32.52,0,0,1-8.91-4.41c-6.18-4.53-6.85-9.57-6.94-11.45l.94,0Z" transform="translate(102.73 104)"/><path class="cls-38" d="M1915.09,468.43s45-10,72.17,0c26.18,10.56,7.59,13.5-16.14,13.5-24-.15-53.34-1.22-53.34-1.22S1885.24,477.72,1915.09,468.43Z" transform="translate(102.73 104)"/><path class="cls-39" d="M587.08,450.66a19.25,19.25,0,0,0,3.54,10.51c5.54,7.57,14.8,7.33,15.79,7.29l-.3-16.81,5.7.25v9.31a11.79,11.79,0,0,0,7.27-.93,13.21,13.21,0,0,0,6.51-7.87l2.38.06-1.44,4.58a8.72,8.72,0,0,0,6.53,1,9.5,9.5,0,0,0,6-5.29h1.77s-1.16,10.61-15.08,7.07c-2.53,3.72-8.46,7.68-13.94,5.69.32,11.54,2.16,56.7,2.16,56.7h-6.43l-1.11-49.52a22.41,22.41,0,0,1-15.29-7.11,24.31,24.31,0,0,1-6.25-15.28Z" transform="translate(102.73 104)"/><path class="cls-40" d="M579.52,426.7s49.25-19.23,79,0c25.24,18.77-.67,26.78-17.66,26-26.23-.28-58.34-2.35-58.34-2.35S546.87,444.61,579.52,426.7Z" transform="translate(102.73 104)"/><path class="cls-41" d="M930.66,562.57s-16.62-.69-25.28-4.9,11.73-1.48,28.1,1.08c0,0-1.57-1-14.47-5.93s-9.53-8.32.63-4.68a182.53,182.53,0,0,1,20.39,9S921.29,546.45,921,544.51s3.13-1.87,20.68,11.33c0,0-16.1-11.1-13.14-16s15.86,15.07,15.86,15.07-11.56-21.36-4.56-22,7,21.13,7,21.13,6.18-11.76,17-11.07-13.17,12.34-15.49,12.42c0,0,1,.9,4.53.6s13-6.28,18.71-6.27,14.32,5-18,13.61Z" transform="translate(102.73 104)"/></g></svg>