<svg id="Layer_1" data-name="Layer 1" xmlns="http://www.w3.org/2000/svg" xmlns:xlink="http://www.w3.org/1999/xlink" viewBox="0 0 3256.25 900"><defs><style>.cls-1{fill:none;}.cls-2{clip-path:url(#clip-path);}.cls-3{fill:url(#linear-gradient);}.cls-4{fill:url(#linear-gradient-2);}.cls-5{fill:url(#linear-gradient-3);}.cls-6{fill:url(#linear-gradient-4);}.cls-7{fill:url(#linear-gradient-5);}.cls-8{fill:url(#linear-gradient-6);}.cls-9{fill:url(#linear-gradient-7);}.cls-10{fill:url(#linear-gradient-8);}.cls-11{fill:url(#linear-gradient-9);}.cls-12{fill:#89e9f4;}.cls-13{fill:url(#linear-gradient-10);}.cls-14{fill:url(#linear-gradient-11);}.cls-15{fill:url(#linear-gradient-12);}.cls-16{fill:url(#linear-gradient-13);}.cls-17{fill:url(#linear-gradient-14);}.cls-18{stroke:#5eefbe;stroke-width:2.59px;fill:url(#linear-gradient-15);}.cls-18,.cls-29,.cls-32,.cls-33{stroke-miterlimit:10;}.cls-19{fill:url(#linear-gradient-16);}.cls-20{fill:url(#linear-gradient-17);}.cls-21{fill:url(#linear-gradient-18);}.cls-22{fill:url(#linear-gradient-19);}.cls-23{fill:url(#linear-gradient-20);}.cls-24{fill:url(#linear-gradient-21);}.cls-25{fill:#c38a72;}.cls-26{fill:#c38a73;}.cls-27{fill:#603913;}.cls-28{fill:#75ea99;}.cls-29{stroke-width:1.82px;fill:url(#linear-gradient-22);stroke:url(#linear-gradient-23);}.cls-30{fill:url(#linear-gradient-24);}.cls-31{fill:url(#linear-gradient-25);}.cls-32,.cls-33{stroke-width:0.91px;}.cls-32{fill:url(#linear-gradient-26);stroke:url(#linear-gradient-27);}.cls-33{fill:url(#linear-gradient-28);stroke:url(#linear-gradient-29);}.cls-34{fill:url(#linear-gradient-30);}.cls-35{fill:url(#linear-gradient-31);}.cls-36{fill:#b98e7c;}.cls-37{fill:#c49483;}.cls-38{fill:#754d32;}.cls-39{fill:#a8e533;}.cls-40{fill:url(#linear-gradient-32);}.cls-41{fill:url(#linear-gradient-33);}.cls-42{fill:url(#linear-gradient-34);}.cls-43{fill:url(#linear-gradient-35);}.cls-44{fill:url(#linear-gradient-36);}.cls-45{fill:url(#linear-gradient-37);}.cls-46{fill:#067f35;}.cls-47{fill:#044922;}.cls-48{fill:#7be57f;}.cls-49{fill:url(#linear-gradient-38);}.cls-50{fill:url(#linear-gradient-39);}.cls-51{fill:#a0f068;}.cls-52{fill:#abf367;}.cls-53{fill:url(#linear-gradient-40);}.cls-54{fill:#00c13e;}</style><clipPath id="clip-path" transform="translate(354.66)"><rect class="cls-1" width="2696" height="900"/></clipPath><linearGradient id="linear-gradient" x1="1472.8" y1="1480.41" x2="1807.01" y2="-171.76" gradientUnits="userSpaceOnUse"><stop offset="0.2" stop-color="#c5f7fd"/><stop offset="0.58" stop-color="#a7f7fd"/><stop offset="0.83" stop-color="#99f7fd"/></linearGradient><linearGradient id="linear-gradient-2" x1="613.58" y1="229.83" x2="711.91" y2="131.44" gradientUnits="userSpaceOnUse"><stop offset="0.15" stop-color="#82cdd9"/><stop offset="0.82" stop-color="#d7eef4"/></linearGradient><linearGradient id="linear-gradient-3" x1="494.44" y1="144.4" x2="654.18" y2="-15.44" gradientTransform="matrix(0.97, -0.09, 0.07, 0.77, 15.91, 175.83)" gradientUnits="userSpaceOnUse"><stop offset="0.4" stop-color="#adcff1"/><stop offset="0.51" stop-color="#b9d9f5"/><stop offset="0.8" stop-color="#d2f0fc"/><stop offset="0.98" stop-color="#dbf8ff"/></linearGradient><linearGradient id="linear-gradient-4" x1="1136.38" y1="349.76" x2="1320.59" y2="165.43" gradientUnits="userSpaceOnUse"><stop offset="0.15" stop-color="#82cdd9"/><stop offset="0.9" stop-color="#d7eef4"/></linearGradient><linearGradient id="linear-gradient-5" x1="786.93" y1="963.42" x2="1736.29" y2="190.71" gradientUnits="userSpaceOnUse"><stop offset="0.08" stop-color="#a4d6e0"/><stop offset="0.5" stop-color="#b4d7e5"/><stop offset="0.73" stop-color="#bed7e8"/></linearGradient><linearGradient id="linear-gradient-6" x1="1813.69" y1="774.08" x2="2733.05" y2="192.84" gradientUnits="userSpaceOnUse"><stop offset="0.13" stop-color="#8ea4eb"/><stop offset="0.4" stop-color="#8cb7e4"/><stop offset="0.91" stop-color="#88e5d3"/></linearGradient><linearGradient id="linear-gradient-7" x1="174.66" y1="573.75" x2="-53.99" y2="-157.57" gradientUnits="userSpaceOnUse"><stop offset="0.29" stop-color="#b5c8db"/><stop offset="0.45" stop-color="#a7c8dc"/><stop offset="0.66" stop-color="#98c7dd"/><stop offset="0.84" stop-color="#93c7dd"/></linearGradient><linearGradient id="linear-gradient-8" x1="23.2" y1="728.22" x2="546.15" y2="182.8" gradientUnits="userSpaceOnUse"><stop offset="0.28" stop-color="#6081b8"/><stop offset="0.51" stop-color="#73afc2"/><stop offset="0.71" stop-color="#82d3c9"/><stop offset="0.82" stop-color="#87e0cc"/></linearGradient><linearGradient id="linear-gradient-9" x1="438.91" y1="671.27" x2="434.03" y2="420.98" gradientUnits="userSpaceOnUse"><stop offset="0.26" stop-color="#9c5e58"/><stop offset="0.43" stop-color="#a46766"/><stop offset="0.64" stop-color="#aa6d70"/><stop offset="0.91" stop-color="#ac6f73"/></linearGradient><linearGradient id="linear-gradient-10" x1="398.11" y1="497.67" x2="497.66" y2="262.35" gradientUnits="userSpaceOnUse"><stop offset="0.29" stop-color="#3cbbe2"/><stop offset="0.52" stop-color="#38c5de"/><stop offset="0.78" stop-color="#36c9dd"/></linearGradient><linearGradient id="linear-gradient-11" x1="2212.18" y1="606.77" x2="2206.56" y2="318.68" gradientUnits="userSpaceOnUse"><stop offset="0.01" stop-color="#9c5e58"/><stop offset="0.05" stop-color="#a1625c"/><stop offset="0.21" stop-color="#b26e6a"/><stop offset="0.39" stop-color="#bc7671"/><stop offset="0.61" stop-color="#bf7874"/></linearGradient><linearGradient id="linear-gradient-12" x1="2126.92" y1="412.89" x2="2156.16" y2="332.52" gradientUnits="userSpaceOnUse"><stop offset="0.15" stop-color="#5ab7fb"/><stop offset="0.79" stop-color="#5ab7fb"/></linearGradient><linearGradient id="linear-gradient-13" x1="2177.63" y1="484.37" x2="2230.16" y2="339.94" gradientUnits="userSpaceOnUse"><stop offset="0.15" stop-color="#3cbbe1"/><stop offset="0.79" stop-color="#36b7dc"/></linearGradient><linearGradient id="linear-gradient-14" x1="2601.27" y1="736.24" x2="2700.93" y2="416.58" gradientUnits="userSpaceOnUse"><stop offset="0.02" stop-color="#72e69e"/><stop offset="0.35" stop-color="#5fe28b"/><stop offset="0.64" stop-color="#53e07f"/></linearGradient><linearGradient id="linear-gradient-15" x1="1739.4" y1="739.09" x2="1942.59" y2="381.78" gradientUnits="userSpaceOnUse"><stop offset="0.22" stop-color="#2eb78f"/><stop offset="0.44" stop-color="#41ca9a"/><stop offset="0.7" stop-color="#5de7ab"/></linearGradient><linearGradient id="linear-gradient-16" x1="1647.85" y1="748.74" x2="1747.51" y2="429.08" gradientUnits="userSpaceOnUse"><stop offset="0.13" stop-color="#29b188"/><stop offset="0.25" stop-color="#2db389"/><stop offset="0.37" stop-color="#38bb8d"/><stop offset="0.48" stop-color="#4bc793"/><stop offset="0.59" stop-color="#65d99c"/><stop offset="0.62" stop-color="#6cdd9e"/></linearGradient><linearGradient id="linear-gradient-17" x1="1279.49" y1="779.21" x2="1468.41" y2="415.59" gradientUnits="userSpaceOnUse"><stop offset="0.02" stop-color="#10a159"/><stop offset="0.22" stop-color="#13a35a"/><stop offset="0.34" stop-color="#1ba85d"/><stop offset="0.44" stop-color="#2ab262"/><stop offset="0.53" stop-color="#3fbf69"/><stop offset="0.61" stop-color="#59d173"/><stop offset="0.69" stop-color="#7ae67e"/><stop offset="0.73" stop-color="#8df285"/></linearGradient><linearGradient id="linear-gradient-18" x1="2128.62" y1="759.74" x2="2447.39" y2="527.42" gradientUnits="userSpaceOnUse"><stop offset="0.32" stop-color="#31bd67"/><stop offset="0.61" stop-color="#44d173"/><stop offset="0.89" stop-color="#5be982"/></linearGradient><linearGradient id="linear-gradient-19" x1="-21.79" y1="635.29" x2="459.43" y2="486.38" gradientUnits="userSpaceOnUse"><stop offset="0.08" stop-color="#1e8854"/><stop offset="0.71" stop-color="#37c26d"/><stop offset="0.8" stop-color="#3bca70"/></linearGradient><linearGradient id="linear-gradient-20" x1="-40.88" y1="657.63" x2="388.36" y2="524.8" gradientUnits="userSpaceOnUse"><stop offset="0.03" stop-color="#19bf76"/><stop offset="0.27" stop-color="#18b970"/><stop offset="0.61" stop-color="#15a760"/><stop offset="0.85" stop-color="#139650"/></linearGradient><linearGradient id="linear-gradient-21" x1="1666.22" y1="672.07" x2="1656.48" y2="172.83" gradientUnits="userSpaceOnUse"><stop offset="0.13" stop-color="#915e54"/><stop offset="0.35" stop-color="#715e51"/><stop offset="0.57" stop-color="#575e4f"/><stop offset="0.7" stop-color="#4d5e4e"/></linearGradient><linearGradient id="linear-gradient-22" x1="2032.28" y1="192.68" x2="1848.07" y2="445.65" gradientUnits="userSpaceOnUse"><stop offset="0.29" stop-color="#40bc72"/><stop offset="0.56" stop-color="#57b67a"/></linearGradient><linearGradient id="linear-gradient-23" x1="1851.6" y1="334.49" x2="2006.14" y2="334.49" gradientUnits="userSpaceOnUse"><stop offset="0" stop-color="#56af72"/><stop offset="0.19" stop-color="#56b377"/><stop offset="0.34" stop-color="#56b97b"/><stop offset="0.46" stop-color="#57c281"/><stop offset="0.55" stop-color="#57bc7b"/><stop offset="0.62" stop-color="#56b272"/><stop offset="0.86" stop-color="#56b377"/><stop offset="0.93" stop-color="#57b579"/><stop offset="0.95" stop-color="#5abc7f"/><stop offset="0.97" stop-color="#61c78a"/><stop offset="0.98" stop-color="#69d89a"/><stop offset="1" stop-color="#74eeae"/><stop offset="1" stop-color="#78f5b5"/><stop offset="1" stop-color="#49c183"/><stop offset="1" stop-color="#4ebd80"/><stop offset="1" stop-color="#55b77b"/><stop offset="1" stop-color="#57b67a"/></linearGradient><linearGradient id="linear-gradient-24" x1="1932.97" y1="74.85" x2="1262.26" y2="627.93" gradientUnits="userSpaceOnUse"><stop offset="0.24" stop-color="#5ccfa3"/><stop offset="0.25" stop-color="#5acea0"/><stop offset="0.35" stop-color="#4dc48c"/><stop offset="0.45" stop-color="#45be80"/><stop offset="0.54" stop-color="#42bc7c"/><stop offset="0.59" stop-color="#44bf7d"/><stop offset="0.62" stop-color="#4bca80"/><stop offset="0.66" stop-color="#56dc85"/><stop offset="0.66" stop-color="#58e086"/></linearGradient><linearGradient id="linear-gradient-25" x1="1417.33" y1="384.14" x2="1547.76" y2="260.61" gradientUnits="userSpaceOnUse"><stop offset="0.13" stop-color="#38a17a"/><stop offset="0.65" stop-color="#56cf8b"/><stop offset="0.96" stop-color="#65e593"/></linearGradient><linearGradient id="linear-gradient-26" x1="1413.84" y1="387.5" x2="1545.53" y2="262.78" gradientUnits="userSpaceOnUse"><stop offset="0.27" stop-color="#2da870"/><stop offset="0.51" stop-color="#30ab76"/><stop offset="0.84" stop-color="#39b488"/><stop offset="0.88" stop-color="#3bb68b"/></linearGradient><linearGradient id="linear-gradient-27" x1="1382.82" y1="317.98" x2="1563.41" y2="317.98" gradientUnits="userSpaceOnUse"><stop offset="0.27" stop-color="#53c575"/><stop offset="0.53" stop-color="#56cb7a"/><stop offset="0.88" stop-color="#5fdd87"/></linearGradient><linearGradient id="linear-gradient-28" x1="1490.55" y1="285.6" x2="1488.18" y2="164.05" gradientUnits="userSpaceOnUse"><stop offset="0.27" stop-color="#64c191"/><stop offset="0.45" stop-color="#5ebf90"/><stop offset="0.7" stop-color="#4cbb8d"/><stop offset="0.88" stop-color="#3bb68b"/></linearGradient><linearGradient id="linear-gradient-29" x1="1447.3" y1="235.62" x2="1531.86" y2="235.62" gradientUnits="userSpaceOnUse"><stop offset="0.27" stop-color="#34af7e"/><stop offset="0.72" stop-color="#31ac78"/><stop offset="0.88" stop-color="#2faa74"/></linearGradient><linearGradient id="linear-gradient-30" x1="1662.39" y1="465.81" x2="1786.68" y2="142.9" xlink:href="#linear-gradient-25"/><linearGradient id="linear-gradient-31" x1="-15.69" y1="612.3" x2="-26.62" y2="52.35" gradientUnits="userSpaceOnUse"><stop offset="0.21" stop-color="#885b51"/><stop offset="0.28" stop-color="#7d4f48"/><stop offset="0.38" stop-color="#754641"/><stop offset="0.53" stop-color="#72433f"/></linearGradient><linearGradient id="linear-gradient-32" x1="-106.29" y1="576.22" x2="107.03" y2="51.3" gradientUnits="userSpaceOnUse"><stop offset="0.25" stop-color="#1da370"/><stop offset="0.25" stop-color="#1da370"/><stop offset="0.45" stop-color="#49b171"/><stop offset="0.62" stop-color="#69bb72"/><stop offset="0.77" stop-color="#7dc173"/><stop offset="0.88" stop-color="#84c373"/></linearGradient><linearGradient id="linear-gradient-33" x1="444.24" y1="125.83" x2="227.54" y2="423.4" gradientUnits="userSpaceOnUse"><stop offset="0.29" stop-color="#4bdd60"/><stop offset="0.71" stop-color="#25af6a"/></linearGradient><linearGradient id="linear-gradient-34" x1="-317.11" y1="355.87" x2="-160.65" y2="207.68" gradientUnits="userSpaceOnUse"><stop offset="0.25" stop-color="#20976a"/><stop offset="0.46" stop-color="#23996a"/><stop offset="0.6" stop-color="#2b9e69"/><stop offset="0.72" stop-color="#3aa668"/><stop offset="0.82" stop-color="#4fb267"/><stop offset="0.88" stop-color="#5ebb66"/></linearGradient><linearGradient id="linear-gradient-35" x1="-225" y1="265.41" x2="-229.36" y2="42.03" gradientUnits="userSpaceOnUse"><stop offset="0" stop-color="#70e57e"/><stop offset="0.03" stop-color="#69e07c"/><stop offset="0.18" stop-color="#4ccb74"/><stop offset="0.32" stop-color="#36bb6f"/><stop offset="0.46" stop-color="#29b26b"/><stop offset="0.6" stop-color="#25af6a"/></linearGradient><linearGradient id="linear-gradient-36" x1="16" y1="595.38" x2="56.64" y2="-15.24" gradientUnits="userSpaceOnUse"><stop offset="0.38" stop-color="#1b8e6a"/><stop offset="0.49" stop-color="#29aa6a"/><stop offset="0.51" stop-color="#2caf6a"/><stop offset="0.54" stop-color="#44b96c"/><stop offset="0.6" stop-color="#6ac96f"/><stop offset="0.67" stop-color="#8ad672"/><stop offset="0.74" stop-color="#a3e074"/><stop offset="0.8" stop-color="#b4e776"/><stop offset="0.88" stop-color="#bfec77"/><stop offset="0.97" stop-color="#c2ed77"/></linearGradient><linearGradient id="linear-gradient-37" x1="354.66" y1="782.59" x2="3050.66" y2="782.59" gradientUnits="userSpaceOnUse"><stop offset="0" stop-color="#7fcd4b"/><stop offset="0.25" stop-color="#76c643"/><stop offset="0.66" stop-color="#5cb52f"/><stop offset="1" stop-color="#43a31a"/></linearGradient><linearGradient id="linear-gradient-38" x1="1074.04" y1="733.89" x2="1168.92" y2="656.68" gradientTransform="translate(96.07 -223.06) rotate(7.6)" gradientUnits="userSpaceOnUse"><stop offset="0.18" stop-color="#108937"/><stop offset="0.32" stop-color="#109730"/><stop offset="0.72" stop-color="#11b81f"/><stop offset="0.94" stop-color="#11c418"/></linearGradient><linearGradient id="linear-gradient-39" x1="26.45" y1="871.65" x2="150.07" y2="771.03" gradientTransform="translate(96.07 -223.06) rotate(7.6)" gradientUnits="userSpaceOnUse"><stop offset="0.18" stop-color="#108937"/><stop offset="0.49" stop-color="#47ab50"/><stop offset="0.94" stop-color="#94da73"/></linearGradient><linearGradient id="linear-gradient-40" x1="354.66" y1="669.5" x2="3050.66" y2="669.5" gradientUnits="userSpaceOnUse"><stop offset="0" stop-color="#4f5a73"/><stop offset="1" stop-color="#4f5a73"/></linearGradient></defs><g class="cls-2"><rect class="cls-3" x="352.66" width="2696" height="708"/><path class="cls-4" d="M611.49,173.93s2-13.76,27.27-23.18,46.56-14.48,68.51-3.62,17.3,35.49,12.64,38.39c-9,5.63-28.51,13-80.49,5.8C608.16,187,611.49,173.93,611.49,173.93Z" transform="translate(354.66)"/><path class="cls-5" d="M495.51,164.43s6.95-20.75,55.87-32.9,80.75-18.13,108,1.85,13.67,53.46-5.57,57.65-99.35,7.55-147.65-5.89C506.21,185.14,489,179,495.51,164.43Z" transform="translate(354.66)"/><path class="cls-6" d="M1130.16,244.39s3.84-23.15,52.53-39,89.68-24.36,132-6.09S1348,259,1339,263.89c-17.41,9.46-54.91,21.9-155,9.74C1123.75,266.32,1130.16,244.39,1130.16,244.39Z" transform="translate(354.66)"/><path class="cls-7" d="M271.3,194.31S362,174,442.77,214,741.83,434,825.92,474s203.63,78,326.06,12,234.86-72,542.05-29c0,0,209.09,21,301.19-157s292.33-6,334.37,42,124.14,102,194.22,86c0,0,136.15-118,172.19-128l-2,300H491.13Z" transform="translate(354.66)"/><path class="cls-8" d="M1376.53,611s417.54,16.7,690.77-58c95.11-26,195.22-44,243.27-83s107.12-121,241.27-116C2659,358,2694,398,2694,398V657H1360.51Z" transform="translate(354.66)"/><path class="cls-9" d="M-235.17,244.76s72-4.76,117.22-80.76S3.35-4,143.69,22,410.08,342,410.08,342l23.78,26s11.16,9.36,37.66,10c25,.6,7.76,21,22,139l-728.72-75-42.14-181.5Z" transform="translate(354.66)"/><path class="cls-10" d="M-73.08,376.21s174.19,8,282.31-107.51c0,0,56.07-80,122.14-75.52,62.28,4.19,187.21,77.1,226.25,301.11,0,0,11,96.05,6,122.71H-73.08Z" transform="translate(354.66)"/><path class="cls-11" d="M382.67,422.38a144.08,144.08,0,0,0,10.2,33.26c4.74,10.58,8.28,18.28,16.08,25a46.69,46.69,0,0,0,21.47,10.41l0-66.52,15.89.6V466.1s35,5.22,39.86-39.39H491s4.15,51-44,56.92l-3.26,187.54H429.12l.61-154.72a102.51,102.51,0,0,1-29.59-26.24c-20.52-26.91-22.73-57-23-68.12,1,0,2,0,3.12.1C381.07,422.24,381.88,422.3,382.67,422.38Z" transform="translate(354.66)"/><path class="cls-12" d="M326.72,343.62s149.49-59.9,239.67,0c75.86,55.36,36.25,81.09-53.62,81.09-79.62-.88-177.11-7.3-177.11-7.3S227.6,399.41,326.72,343.62Z" transform="translate(354.66)"/><path class="cls-13" d="M322.71,346.37s149.49-59.34,239.67,0c86.93,62.85,25.19,80.34-53.62,80.34-79.62-.87-177.11-7.24-177.11-7.24S223.6,401.64,322.71,346.37Z" transform="translate(354.66)"/><path class="cls-14" d="M2154.52,454.92a40.52,40.52,0,0,0,7.51,22.3c11.78,16.08,31.46,15.57,33.56,15.48l-.65-35.68,12.13.53v19.76a25.13,25.13,0,0,0,15.45-2c10.08-4.87,13.31-15,13.84-16.72l5.06.15q-1.53,4.86-3.07,9.72a18.6,18.6,0,0,0,13.88,2.06c8.71-2.25,12.28-10.23,12.71-11.24h3.77s-2.46,22.53-32.05,15c-5.39,7.88-18,16.29-29.63,12.08.68,24.5,4.58,120.38,4.58,120.38H2198l-2.37-105.13a47.7,47.7,0,0,1-32.49-15.11c-12.13-13.07-13.15-28.63-13.3-32.45Z" transform="translate(354.66)"/><path class="cls-15" d="M2097.63,366.18s51.63-25.16,82.77,0c26.46,24.56-.7,35-18.52,34.06-27.49-.37-61.16-3.07-61.16-3.07S2063.4,389.61,2097.63,366.18Z" transform="translate(354.66)"/><path class="cls-16" d="M2116.42,402s104.66-40.82,167.81,0c53.63,39.86-1.43,56.86-37.55,55.26-55.74-.6-124-5-124-5S2047,440.06,2116.42,402Z" transform="translate(354.66)"/><path class="cls-17" d="M2368,629.46s22-93.8,65.62-98.13,75.7,15.88,75.7,15.88,11.47-33.19,50.47-34.64,68.82,18.76,68.82,18.76,52.76-11.54,73.4,7.22,11.4,47.62,11.4,47.62S2786.89,566,2823.6,610.7c0,0,68.82-11.55,78,18.76L2786.89,641H2368Z" transform="translate(354.66)"/><path class="cls-18" d="M1558.73,553.38s1-46.22,47.06-52.18,75.08,17.07,75.08,17.07,11-23,44.05-26,59,21.62,59,21.62,68.14-12.67,73.15,23.86c0,0,60.06-15.66,71.08,29.82,0,0,43-5.22,49,26.09,0,0,80.09-8.95,68.08,25.34,0,0,63.07-7.45,42,24.61H1624.81Z" transform="translate(354.66)"/><path class="cls-19" d="M1414.57,642s22-93.8,65.62-98.13,75.7,15.88,75.7,15.88,11.47-33.19,50.47-34.64,68.82,18.76,68.82,18.76,52.76-11.54,73.41,7.22S1760,598.67,1760,598.67s73.49-20.21,110.19,24.53c0,0,68.82-11.55,78,18.76l-114.7,11.54h-418.9Z" transform="translate(354.66)"/><path class="cls-20" d="M1105.23,641.49s17-25.19,75.22-14.69c0,0,10.6,4.19,7.42-12.59-2.73-14.44.92-34.25,32.84-23.09,18,6.3,32.85,21,32.85,21s4.24,3.14,0-9.45,1.06-23.08,17-23.08,30.73,10.49,30.73,10.49,10.59-18.89,38.14-21,40.26,6.29,40.26,6.29S1386,549,1419.9,547.05c18-1,33.9,14.69,33.9,14.69s42.38-7.34,75.23,24.13c0,0,7.41-12.59,25.43-10.49s33.9,30.43,41.32,56.66v11.55Z" transform="translate(354.66)"/><path class="cls-21" d="M2047.68,647.09s-45.81-25.23,31.87-35.46c0,0-25.89-18.41,0-34.09,0,0,18.92-13,51.79-4.77,0,0,22.68-48.11,90.63-10.23,0,0,37.78-22.59,77.68,2,27.49,17,19.92,37.43,19.92,37.43s50.79-11.51,72.7,2.8c0,0,48.8-.68,53.78,17.73,0,0,77.68-10.23,76.69,15,0,0,48.8-6.1,49.79,13l-5,7.5H2056.64Z" transform="translate(354.66)"/><path class="cls-22" d="M-44.86,519.86S-66.3,444.1-12.23,423.35c39.38-15.12,55.13,7,55.13,7s27-31.65,60.76-28S168.92,442,168.92,442s70.89-20.93,93.39,8.14c0,0,11.25,11.12,4.5,26.49,0,0,96.77-28.81,106.89,43.28,0,0,57.39-7.23,67.51,42.9,0,0,116.31-22,97.54,40.79,0,0,106.82,11.05,80.94,42.45l-97.46,10.57L-32.48,612.88Z" transform="translate(354.66)"/><path class="cls-23" d="M-108.41,634s-49.61-37,34.5-52c0,0-28-27,0-50,0,0,20.49-19,56.08-7,0,0,41-40,98.13-15,0,0,50.68-15,84.11,3S186,567.89,186,567.89,241,551,264.7,572c0,0,52.84-1,58.23,26,0,0,84.11-15,83,22,0,0,69-4,53.92,19L434,650l-530.55-9Z" transform="translate(354.66)"/><path class="cls-24" d="M1792.25,645.75c2.1-7.09-7.2-14.87-16.86-30.8-19-31.28-22.66-66.58-22.23-94,0,0-1.65-36.74,9.36-55.11a307.25,307.25,0,0,0,18.72-37.36s38.54,1.9,41.85,0,12.66-10.94,11-34.29l.55-5.61-9.91,3s-3,20.94-15.74,22.56c-15.14,2.27-32.44-7.81-29.9-22.56h-11s3.38,43-13.26,52.08c-12.41,3.57-19.74-2.07-19.18-27.25l.56-25.17-19.74,0s1.13,26.76,0,28.39-9.87,18.16-19.18-15.9c-7.9-24-3.38-12.45-3.38-12.45l-10.72.27s4.79,26.45,20.59,43c10.43,15.9,10.72,42.5,2.82,51.91-8.46,9.41-22.85,14.6-33.85-41.2-7.33-37-9.31-53.71-9.31-53.71l-15.23-.18s6.21,44.15,5.08,51.94c-1.41,8.76-2,35.69-35.26,24.33-17.28-2.76-51.88-12.68-66.28-42.5-5.36-25.31-4.23-35-4.23-35l-12.41-.35s.28,14.63,2.81,18.52a37.28,37.28,0,0,1-22.14-5.28c-12.77-7.67-17.93-20.65-19.32-24.5l-10-.44a65.72,65.72,0,0,0,10,19.08C1506.38,410,1520,417,1530,418.72c2,.34,9.89,1.49,9.86,1.85,0,.1-.55.1-.55.1s2.53,38.28,42.3,55.8c35.54,15.25,51.06,23,60.08,29.2s15.24,12.66,13.82,33.75a190.1,190.1,0,0,0,2.54,50.45,179.7,179.7,0,0,0,19.47,54.34C1765.84,661.05,1789.37,655.48,1792.25,645.75Z" transform="translate(354.66)"/><path class="cls-25" d="M1752.63,515.49a81,81,0,0,0-24,24.34c-27,42.48-8.63,98.35-6.54,104.42l71.27,1.49a255.7,255.7,0,0,1-13.71-24.9C1761,581.89,1754.62,543.84,1752.63,515.49Z" transform="translate(354.66)"/><path class="cls-26" d="M1670.47,435.11S1683.68,491.37,1694,491C1683.32,496.71,1663.33,481.11,1670.47,435.11Z" transform="translate(354.66)"/><path class="cls-27" d="M1744.37,583.16a17.81,17.81,0,0,1-4,.52,7.7,7.7,0,0,1-3.94-.82,3.41,3.41,0,0,1-1.4-1.51,4.88,4.88,0,0,1-.37-2,11.94,11.94,0,0,1,1-4,29.55,29.55,0,0,1,4.25-6.9,24.33,24.33,0,0,1,6-5.45,7.56,7.56,0,0,1,4-1.21,3.69,3.69,0,0,1,1.08.21,3.28,3.28,0,0,1,.52.2l.47.3a5.32,5.32,0,0,1,1.45,1.58,17.47,17.47,0,0,1,2,7.93,53.15,53.15,0,0,1-2,16.07v0l0,.05a58.61,58.61,0,0,1-4.74,7.55,34.6,34.6,0,0,1-6.13,6.5,14.38,14.38,0,0,1-3.94,2.26,5.5,5.5,0,0,1-4.59-.21,8.25,8.25,0,0,1-3-3.44,20.73,20.73,0,0,1-1.59-4.2A59.05,59.05,0,0,1,1728,579l.76-17.69-.3,17.7a58.39,58.39,0,0,0,1.72,17.45,20.42,20.42,0,0,0,1.58,4,7.43,7.43,0,0,0,2.73,3.1,4.69,4.69,0,0,0,4,.14,14,14,0,0,0,3.69-2.15c4.51-3.68,7.79-8.7,10.59-13.81l0,.09a52.52,52.52,0,0,0,2-15.79,16.75,16.75,0,0,0-1.85-7.56,3.73,3.73,0,0,0-2.91-2,6.71,6.71,0,0,0-3.62,1.07,23.66,23.66,0,0,0-6,5.22,29.64,29.64,0,0,0-4.28,6.71,11.59,11.59,0,0,0-1.09,3.79,4.58,4.58,0,0,0,.29,1.91,3.16,3.16,0,0,0,1.27,1.44,7.6,7.6,0,0,0,3.83.9A18.46,18.46,0,0,0,1744.37,583.16Z" transform="translate(354.66)"/><path class="cls-28" d="M1868,277.33s86-23,124.07,47.11c24.81,54.44,29.25,72.09-124.07,62.22C1842.12,299.5,1868,277.33,1868,277.33Z" transform="translate(354.66)"/><path class="cls-29" d="M1864.34,280.33s88.28-23,127.42,47.11c25.48,54.44,30,72.09-127.42,62.22C1837.72,302.5,1864.34,280.33,1864.34,280.33Z" transform="translate(354.66)"/><path class="cls-30" d="M1490.3,268.14c2.86-21.92,10.39-55,33-82,59.34-70.82,172.2-40,215.87-28.14,92.61,25.25,155.56,85.8,189.58,125.66a23.16,23.16,0,0,1,3.17,20.85,20.87,20.87,0,0,1-14.56,7c-40.12,2-205.09,10.07-214.27,8.23-10.45-2.09-202.38-20.94-202.38-20.94Z" transform="translate(354.66)"/><path class="cls-31" d="M1494.09,375.5c-2.61,0-78.41-6.07-78.41-6.07s-47-11.12-20-38.43a46.82,46.82,0,0,0,17.08-16.56c5.38-8.94,3.94-13.32,7.38-21.56,10.87-26.07,47.33-34.95,47.33-34.95h0s49.45-11.5,86.25,11.07c4.11,2.52,6.13,3.88,7.69,6.23,17,25.55-35.91,100.27-35.91,100.27Z" transform="translate(354.66)"/><path class="cls-32" d="M1491.43,378.43c-2.65,0-79.4-6.09-79.4-6.09s-47.63-11.16-20.29-38.56A47.34,47.34,0,0,0,1409,317.17c5.45-9,4-13.37,7.47-21.63,11-26.16,47.93-35.07,47.93-35.07h0s50.07-11.54,87.33,11.11c4.15,2.53,6.2,3.89,7.78,6.24,17.23,25.64-36.36,100.61-36.36,100.61Z" transform="translate(354.66)"/><path class="cls-33" d="M1452.07,228.37s7.28-18.55,57.34-9.12c46.41,11.51,10.92,40.82-28.67,34.54S1445.45,234.82,1452.07,228.37Z" transform="translate(354.66)"/><path class="cls-28" d="M1489.7,312.81s46.12-42.14,94.46-58.67c52.81-24.78,122.73-80.14,207.53-54.53,65.45,24,114.54,57,143.55,118.15,14.14,35.53,16.37,78.5-91.49,72.71l-300.5.53S1425.73,381.38,1489.7,312.81Z" transform="translate(354.66)"/><path class="cls-34" d="M1492,313.82s45.74-41.56,93.7-57.85c52.38-24.45,121.74-79,205.85-53.78,64.93,23.63,113.62,56.22,142.4,116.52,14,35,16.23,77.4-90.75,71.7l-298.08.52S1428.57,381.45,1492,313.82Z" transform="translate(354.66)"/><path class="cls-26" d="M1834.65,392.26s1.41,24.26-8.51,33.69c-3,3.29-5.3,3.2-8.83,3.29,0,0,9.86-3.7,12.32-16.06a131.91,131.91,0,0,0,2.58-21.68h2.44Z" transform="translate(354.66)"/><path class="cls-26" d="M1736.22,391.28c-.39,4.25-.58,19-.43,21.91.69,12.61,1.46,27,8.58,30.68a8.63,8.63,0,0,0,5.34.77l2.69-.34c-3.31,4.7-6.27,5.1-7.23,5.15-5.88.31-12.76-8.47-14.44-22.63a98.84,98.84,0,0,1-1.18-20.34c.27-5.64,1.25-15.2,1.25-15.2h5.42Z" transform="translate(354.66)"/><path class="cls-35" d="M137.67,651.86c.33-.91-2.37-2.35-4.68-5.79a22.23,22.23,0,0,1-3.11-7.85c-2-8.25-9.91-18.23-12.51-21.92-8.26-11.71-12.15-29.27-18.61-58.41a447.24,447.24,0,0,1-8.15-50.08c-.47-29.06,3.36-51,11.27-63.61a349.88,349.88,0,0,0,22.53-43.14s46.4,2.19,50.38,0S190,388.43,188,361.48l.66-6.49-11.93,3.48s-3.66,24.17-18.94,26c-18.23,2.62-39.05-9-36-26H108.59s4.08,49.64-16,60.13c-14.94,4.12-23.76-2.4-23.09-31.46l.68-29.07-23.77,0s1.36,30.9,0,32.77-11.88,21-23.08-18.35c-9.51-27.72-4.08-14.37-4.08-14.37l-12.9.31S12.16,389,31.17,408.11c12.57,18.36,12.91,49.07,3.4,59.94C24.38,478.91,7.07,484.9-6.18,420.48c-8.82-42.71-11.2-62-11.2-62l-18.34-.21s7.47,51,6.12,60C-31.3,428.34-32,459.43-72,446.32c-20.8-3.19-62.45-14.64-79.79-49.07-6.45-29.22-5.09-40.45-5.09-40.45l-14.94-.41s.34,16.89,3.39,21.38a46.42,46.42,0,0,1-26.65-6.09c-15.38-8.86-21.59-23.84-23.26-28.28l-12-.52a75.09,75.09,0,0,0,12.09,22C-206.47,379.66-190,387.8-178,389.76c2.41.39,11.91,1.72,11.87,2.13,0,.12-.66.12-.66.12s3.05,44.2,50.93,64.42C-73.07,474-54.39,483-43.53,490.15s18.34,14.6,16.64,39a210.12,210.12,0,0,0,3.06,58.25A202,202,0,0,0-.4,650.09c36.76,1.27,60.37,1.39,75.51,1.24,30.36-.31,47.64-2,56.73.37C131.89,651.71,137.22,653.08,137.67,651.86Z" transform="translate(354.66)"/><path class="cls-36" d="M90,501.48a95.56,95.56,0,0,0-28.83,28.1c-32.5,49-10.39,113.55-7.87,120.56l85.79,1.71a292.54,292.54,0,0,1-16.5-28.75C100,578.14,92.37,534.21,90,501.48Z" transform="translate(354.66)"/><path class="cls-37" d="M-8.93,408.68S7,473.63,19.43,473.16C6.54,479.8-17.53,461.78-8.93,408.68Z" transform="translate(354.66)"/><path class="cls-38" d="M80,579.61a23.7,23.7,0,0,1-4.68.6,10.11,10.11,0,0,1-4.66-.84,4.13,4.13,0,0,1-1.76-1.63,4.6,4.6,0,0,1-.57-2.35,12.3,12.3,0,0,1,1.16-4.63,33.94,33.94,0,0,1,5.09-8,34.68,34.68,0,0,1,3.32-3.43,23,23,0,0,1,3.85-2.85,10.18,10.18,0,0,1,4.64-1.53,7.94,7.94,0,0,1,1.28.13l.62.21a1.71,1.71,0,0,1,.58.27,4.4,4.4,0,0,1,1,.77l.46.44c.13.16.25.34.37.51a12.86,12.86,0,0,1,1.94,4.47,27.22,27.22,0,0,1,.7,4.75,59,59,0,0,1-2.34,18.83l0,.06,0,0a67,67,0,0,1-5.69,8.7A40.8,40.8,0,0,1,78,601.57a18.3,18.3,0,0,1-4.6,2.61,7.11,7.11,0,0,1-5.38,0,9.06,9.06,0,0,1-3.81-3.77,23.77,23.77,0,0,1-2-4.85A65,65,0,0,1,60.32,575l.92-20.62L60.87,575A64,64,0,0,0,63,595.33,25.4,25.4,0,0,0,65,600a8.2,8.2,0,0,0,3.41,3.37,6.08,6.08,0,0,0,4.68-.07,17.14,17.14,0,0,0,4.32-2.49,39.45,39.45,0,0,0,7.07-7.3,71.6,71.6,0,0,0,5.59-8.57l0,.11a57.67,57.67,0,0,0,2.39-18.48,27.14,27.14,0,0,0-.65-4.59A12,12,0,0,0,90,557.8a4.26,4.26,0,0,0-3.59-2,9.34,9.34,0,0,0-4.26,1.35,22,22,0,0,0-3.76,2.71,32.13,32.13,0,0,0-3.3,3.3A34.66,34.66,0,0,0,70,571a12,12,0,0,0-1.24,4.43,4.37,4.37,0,0,0,.47,2.2,3.85,3.85,0,0,0,1.61,1.56,9.89,9.89,0,0,0,4.54.93A23,23,0,0,0,80,579.61Z" transform="translate(354.66)"/><path class="cls-39" d="M-245.51,208.3c3.66-26.85,13.3-67.37,42.28-100.48C-124.94,18.39,25,60,73,73.36c112.8,31.41,200.78,118.91,232.75,158.06l18.65,14.76A1528.31,1528.31,0,0,1,26.8,271.4a1528.16,1528.16,0,0,1-258.93-25.65Z" transform="translate(354.66)"/><path class="cls-40" d="M-246.51,212c3.66-27,13.28-67.68,42.22-100.93C-126.11,21.24,23.61,63,71.5,76.46,189.75,109.58,266.38,189,303.92,235.23l18.62,14.84A1517.81,1517.81,0,0,1,25.41,275.4a1517.79,1517.79,0,0,1-258.56-25.77Z" transform="translate(354.66)"/><path class="cls-39" d="M246.86,229s106.27-26.59,153.38,54.39c30.68,62.85,36.16,83.23-153.38,71.83C214.82,254.58,246.86,229,246.86,229Z" transform="translate(354.66)"/><path class="cls-41" d="M244.86,230s106.27-26.59,153.38,54.39c30.68,62.85,36.15,83.23-153.38,71.83C212.82,255.58,244.86,230,244.86,230Z" transform="translate(354.66)"/><path class="cls-39" d="M-221.35,340c-3.11,0-93.45-6.95-93.45-6.95s-56.07-12.74-23.88-44a55.17,55.17,0,0,0,20.35-19c6.41-10.24,4.7-15.27,8.79-24.7,13-29.86,56.41-40,56.41-40h0s58.94-13.18,102.8,12.68c4.89,2.88,7.3,4.44,9.16,7.12C-120.89,254.42-184,340-184,340Z" transform="translate(354.66)"/><path class="cls-42" d="M-224.47,343.25c-3.18,0-95.57-7-95.57-7s-57.34-12.89-24.42-44.52a56.2,56.2,0,0,0,20.81-19.18c6.56-10.36,4.81-15.44,9-25,13.25-30.2,57.7-40.49,57.7-40.49h0s60.27-13.33,105.12,12.83c5,2.91,7.47,4.49,9.37,7.2,20.75,29.6-43.77,116.16-43.77,116.16Z" transform="translate(354.66)"/><path class="cls-43" d="M-271.84,170s8.76-21.41,69-10.53c55.87,13.29,13.15,47.13-34.51,39.88S-279.81,177.44-271.84,170Z" transform="translate(354.66)"/><path class="cls-39" d="M-220.65,262.72s54.74-47,112.12-65.47c62.68-27.67,145.66-89.46,246.29-60.87,77.69,26.74,136,63.63,170.38,131.88,16.77,39.65,19.42,87.61-108.58,81.15l-356.65.59S-296.57,339.27-220.65,262.72Z" transform="translate(354.66)"/><path class="cls-44" d="M-223.74,268.65s55.06-48,112.8-66.79c63.06-28.22,146.55-91.25,247.8-62.08,78.16,27.28,136.78,64.9,171.42,134.51,16.88,40.45,19.54,89.37-109.25,82.78l-358.82.6S-300.13,346.72-223.74,268.65Z" transform="translate(354.66)"/><path class="cls-37" d="M188.7,359.21s1.7,28-10.23,38.89c-3.57,3.81-6.39,3.7-10.64,3.81a25.38,25.38,0,0,0,14.83-18.55,146.77,146.77,0,0,0,3.11-25h2.93Z" transform="translate(354.66)"/><path class="cls-37" d="M70.22,358.07c-.47,4.91-.7,22-.52,25.3.83,14.56,1.76,31.14,10.33,35.42a10.88,10.88,0,0,0,6.43.9l3.24-.41c-4,5.43-7.56,5.89-8.7,6-7.09.37-15.37-9.78-17.39-26.11a110.17,110.17,0,0,1-1.43-23.49c.33-6.52,1.51-17.56,1.51-17.56h6.53Z" transform="translate(354.66)"/><polygon class="cls-45" points="354.66 674.17 3050.66 679 3050.66 891 354.66 877 354.66 674.17"/><path class="cls-46" d="M0,756s248.28-3,461.51,6,731.82,36,938.05,25S1766,734,2152.4,743,2696,758,2696,758V860l-1533.71,9L0,877Z" transform="translate(354.66)"/><path class="cls-46" d="M122.79,769.8s-4.38-28.14,11.9-35S122.79,769.8,122.79,769.8Z" transform="translate(354.66)"/><path class="cls-46" d="M191.65,766.67s-18.15-21.26-24.41-22.51,2.5-13.75,20.65,4.38C187.89,748.54,193.53,757.29,191.65,766.67Z" transform="translate(354.66)"/><path class="cls-46" d="M196.34,766.67s-7.57-36.89-17.71-53.15,10.51-10.63,17.71,16.89S196.34,766.67,196.34,766.67Z" transform="translate(354.66)"/><path class="cls-46" d="M202,766.67s2.81-32.51,24.72-35S211.05,744.16,202,766.67Z" transform="translate(354.66)"/><path class="cls-46" d="M552.61,775.7s-24.51-16.09-17.15-29.28C541.41,735.75,552.61,775.7,552.61,775.7Z" transform="translate(354.66)"/><path class="cls-46" d="M556.59,774.05s-12.83-16.25-5.94-24.69S556.59,774.05,556.59,774.05Z" transform="translate(354.66)"/><path class="cls-46" d="M1061.76,796.57s-13.15-19.39-5-33.14C1056.75,763.43,1060.51,789.69,1061.76,796.57Z" transform="translate(354.66)"/><path class="cls-46" d="M1064.89,796.57s-13.77-47.52,25-70.66C1089.93,725.91,1069.27,755.92,1064.89,796.57Z" transform="translate(354.66)"/><path class="cls-46" d="M1066.77,796.57s7.51-43.15,31.3-54.4C1098.07,742.17,1072.4,778.43,1066.77,796.57Z" transform="translate(354.66)"/><path class="cls-46" d="M1174.29,794.44s-22.84-6.7-17.53-24.38C1160.52,757.55,1174.29,794.44,1174.29,794.44Z" transform="translate(354.66)"/><path class="cls-46" d="M1179,792.57s-12.83-21.26-4.69-30S1179,792.57,1179,792.57Z" transform="translate(354.66)"/><path class="cls-46" d="M1221.73,798.57s-22.53-5-21.91-18.76S1221.73,798.57,1221.73,798.57Z" transform="translate(354.66)"/><path class="cls-46" d="M1227.37,798.57s-12.52-34.39-21.91-43.14,16.27-9.47,21.91,26.53Z" transform="translate(354.66)"/><path class="cls-46" d="M1230.18,798.57s-6.31-26.76,17.22-28.14C1258,769.81,1230.18,798.57,1230.18,798.57Z" transform="translate(354.66)"/><path class="cls-46" d="M1248,791.69s3.76-20,18.16-21.27S1248,791.69,1248,791.69Z" transform="translate(354.66)"/><path class="cls-46" d="M1632.65,777s-17.86-28.95-.74-46.69C1641,721,1632.65,777,1632.65,777Z" transform="translate(354.66)"/><path class="cls-46" d="M1636.4,775.3s1.42-33.95,5.6-36.47,13.1,9.39,5,22.9C1641.49,771,1636.4,775.3,1636.4,775.3Z" transform="translate(354.66)"/><path class="cls-46" d="M1647,773.72s6.29-29.86,14.61-32.45S1647,773.72,1647,773.72Z" transform="translate(354.66)"/><path class="cls-46" d="M1759.07,770.55s.55-39.57,25.66-50c7.52-3.13-4.38,5.87-14.39,34.51,0,0-1.88,6.69-1.57,8.6s16.59-34.36,27.23-36.24c0,0-20.66,30.71-22.85,41.31C1773.15,768.71,1766,791.81,1759.07,770.55Z" transform="translate(354.66)"/><path class="cls-46" d="M1820.41,760.54s-12.52-22.51-3.75-33.76S1825.42,754.92,1820.41,760.54Z" transform="translate(354.66)"/><path class="cls-46" d="M2166.51,757.67s-25.66-28.14-40.69-35.64,14.4-8.13,34.43,15.32C2160.25,737.35,2170.27,751.42,2166.51,757.67Z" transform="translate(354.66)"/><path class="cls-46" d="M2174,757.67S2157,712,2149.22,706.4s12.28-8.76,24.8,28.45C2174,734.85,2179,754.54,2174,757.67Z" transform="translate(354.66)"/><path class="cls-46" d="M2183.1,757.67s-6.57-41.9-12.83-48.15S2194.05,716.4,2183.1,757.67Z" transform="translate(354.66)"/><path class="cls-46" d="M2186.85,757.67s-.31-34.9,13.15-40.28S2192.18,740.16,2186.85,757.67Z" transform="translate(354.66)"/><path class="cls-46" d="M2191.24,757.67s8.45-40,29.1-40.95S2204.07,731.41,2191.24,757.67Z" transform="translate(354.66)"/><path class="cls-47" d="M0,799s457.51,32,713.79,30c0,0-24-27-16-30s27,11.18,35,30.09c0,0,8.85-20.58,24-26.09,11-4-6,32-6,32s626.69-5,760.84-8S2339.6,805,2696,835v65H0Z" transform="translate(354.66)"/><path class="cls-48" d="M1960.29,635.16s-13.28-9.43-16.87-8.54,3.64-8.32,14.36,2C1962.08,632.8,1960.29,635.16,1960.29,635.16Z" transform="translate(354.66)"/><path class="cls-48" d="M1963.16,635.16s-5.58-21.47-11.59-23.68,9.55-5.51,12.67,9C1966.39,630.45,1963.16,635.16,1963.16,635.16Z" transform="translate(354.66)"/><path class="cls-48" d="M1965,635.16s6.44-15.3,19.36-15.88S1965,636,1965,636" transform="translate(354.66)"/><path class="cls-49" d="M1101.42,643.66s-29.31.13-44.13-9.92,20.91-5.28,49.56-.46c0,0-2.66-2.37-24.88-13.9s-15.88-20.78,1.65-12.39,35,21.39,35,21.39-31.87-26-32.2-31.11,5.75-5.29,35.22,27.39c0,0-27.15-27.33-21.33-40.67s26.26,37.8,26.26,37.8-17.92-54.85-5.49-57.23,9.86,54.78,9.86,54.78,12.3-31.65,31.42-31.12-24.74,34-28.84,34.49c0,0,1.72,2.25,7.94,1.06s23.81-18,33.8-18.7c10.19-.66,24.74,11.37-33.34,37.93Z" transform="translate(354.66)"/><path class="cls-50" d="M56.25,640.86s-38.19.17-57.5-12.92,27.25-6.89,64.57-.6c0,0-3.46-3.09-32.42-18.12s-20.69-27.08,2.16-16.15S78.65,621,78.65,621s-41.53-33.91-42-40.54,7.5-6.89,45.9,35.69c0,0-35.39-35.61-27.8-53S89,612.36,89,612.36s-23.36-71.48-7.15-74.57S94.7,609.17,94.7,609.17s16-41.24,41-40.55S103.41,613,98.06,613.56c0,0,2.24,2.93,10.35,1.38s31-23.52,44.05-24.36c13.28-.86,32.24,14.81-43.45,49.42Z" transform="translate(354.66)"/><path class="cls-51" d="M2268.93,641.27s13.28-18.84,16.87-17.07-3.65-16.63-14.36,4C2267.13,636.57,2268.93,641.27,2268.93,641.27Z" transform="translate(354.66)"/><path class="cls-51" d="M2266.05,641.27s5.59-42.93,11.59-47.34-9.54-11-12.66,17.94C2262.82,631.86,2266.05,641.27,2266.05,641.27Z" transform="translate(354.66)"/><path class="cls-51" d="M2264.24,641.27s-6.44-30.58-19.37-31.75S2264.24,643,2264.24,643" transform="translate(354.66)"/><path class="cls-52" d="M2099.63,642.41s-13.28-5.43-16.87-4.92,3.64-4.8,14.36,1.17C2101.42,641.06,2099.63,642.41,2099.63,642.41Z" transform="translate(354.66)"/><path class="cls-52" d="M2102.5,642.41s-5.58-12.38-11.59-13.65,9.55-3.18,12.67,5.17C2105.73,639.7,2102.5,642.41,2102.5,642.41Z" transform="translate(354.66)"/><path class="cls-52" d="M2104.32,642.41a25.61,25.61,0,0,1,19.36-9.15c12.93-.34-19.36,9.66-19.36,9.66" transform="translate(354.66)"/><path class="cls-48" d="M239.13,641.51s-18.52-16-23.52-14.51,5.08-14.14,20,3.44C241.64,637.51,239.13,641.51,239.13,641.51Z" transform="translate(354.66)"/><path class="cls-48" d="M243.14,641.51S235.35,605,227,601.26s13.31-9.36,17.66,15.25C247.64,633.51,243.14,641.51,243.14,641.51Z" transform="translate(354.66)"/><path class="cls-48" d="M245.67,641.51s9-26,27-27-27,28.5-27,28.5" transform="translate(354.66)"/><path class="cls-51" d="M1954,641.51s-18.52-16-23.52-14.51,5.08-14.14,20,3.44C1956.55,637.51,1954,641.51,1954,641.51Z" transform="translate(354.66)"/><path class="cls-51" d="M1958.05,641.51s-7.79-36.5-16.16-40.25,13.31-9.36,17.66,15.25C1962.55,633.51,1958.05,641.51,1958.05,641.51Z" transform="translate(354.66)"/><path class="cls-51" d="M1960.58,641.51s9-26,27-27-27,28.5-27,28.5" transform="translate(354.66)"/><rect class="cls-53" x="354.66" y="641" width="2696" height="57"/><path class="cls-54" d="M2200.61,703.41s-11.14-11.16-21.43-11.86,4-9.51,18,3.49C2203.19,700.62,2200.61,703.41,2200.61,703.41Z" transform="translate(354.66)"/><path class="cls-54" d="M2206.45,703.41s6.17-19.54,21.6-20.23S2206.45,703.41,2206.45,703.41Z" transform="translate(354.66)"/><path class="cls-54" d="M1372.69,704.41s-11.14-11.16-21.43-11.86,4-9.51,18,3.49C1375.26,701.62,1372.69,704.41,1372.69,704.41Z" transform="translate(354.66)"/><path class="cls-54" d="M1375,704.41s-4-25.12-13.43-30.7,12.51-7.56,16.29,14C1380.41,702.32,1375,704.41,1375,704.41Z" transform="translate(354.66)"/><path class="cls-54" d="M1378.53,704.41s6.17-19.54,21.6-20.23S1378.53,704.41,1378.53,704.41Z" transform="translate(354.66)"/><path class="cls-54" d="M632.38,702.64s-10.61-7.86-20.41-8.35,3.84-6.7,17.14,2.46C634.83,700.68,632.38,702.64,632.38,702.64Z" transform="translate(354.66)"/><path class="cls-54" d="M637.93,702.64s5.87-13.75,20.56-14.25S637.93,702.64,637.93,702.64Z" transform="translate(354.66)"/><path class="cls-54" d="M780.61,705.11s-13-8.92-17.64-8.17-.21-9.49,12.53-1.13A11.92,11.92,0,0,1,780.61,705.11Z" transform="translate(354.66)"/><path class="cls-54" d="M782.91,703.63s-7.14-13.62-12-15.36,4.76-9.75,12,4.24A12.07,12.07,0,0,1,782.91,703.63Z" transform="translate(354.66)"/><path class="cls-54" d="M785.22,705.11s6.13-14.86,18.4-13.38S793.65,697.68,785.22,705.11Z" transform="translate(354.66)"/><path class="cls-54" d="M2311.41,704.75s-18.52-12.41-23.53-11.24,5.09-10.94,20,2.67C2313.91,701.65,2311.41,704.75,2311.41,704.75Z" transform="translate(354.66)"/><path class="cls-54" d="M2315.41,704.75s-7.78-28.26-16.15-31.16,13.31-7.26,17.66,11.8C2319.92,698.56,2315.41,704.75,2315.41,704.75Z" transform="translate(354.66)"/><path class="cls-54" d="M2318,704.75s9-20.13,27-20.9-27,22.06-27,22.06" transform="translate(354.66)"/></g></svg>