<svg id="Layer_1" data-name="Layer 1" xmlns="http://www.w3.org/2000/svg" xmlns:xlink="http://www.w3.org/1999/xlink" viewBox="0 0 2855.56 932.65"><defs><style>.cls-1{fill:none;}.cls-2{clip-path:url(#clip-path);}.cls-3{fill:url(#linear-gradient);}.cls-4{fill:url(#linear-gradient-2);}.cls-5{fill:url(#linear-gradient-3);}.cls-6{fill:url(#linear-gradient-4);}.cls-28,.cls-7{fill:#6abc46;}.cls-8{fill:url(#linear-gradient-5);}.cls-9{fill:url(#linear-gradient-6);}.cls-10{fill:url(#linear-gradient-7);}.cls-11{fill:url(#linear-gradient-8);}.cls-12{fill:url(#linear-gradient-9);}.cls-13{fill:url(#linear-gradient-10);}.cls-14{fill:url(#linear-gradient-11);}.cls-15{fill:url(#linear-gradient-12);}.cls-16{fill:url(#linear-gradient-13);}.cls-17{fill:url(#linear-gradient-14);}.cls-18{fill:url(#linear-gradient-15);}.cls-19{fill:url(#linear-gradient-16);}.cls-20{fill:url(#linear-gradient-17);}.cls-21{opacity:0.36;}.cls-22{fill:#38495e;}.cls-23{fill:url(#linear-gradient-18);}.cls-24{fill:url(#linear-gradient-19);}.cls-25{fill:url(#linear-gradient-20);}.cls-26{fill:url(#linear-gradient-21);}.cls-27{fill:url(#linear-gradient-22);}.cls-28{stroke-miterlimit:10;stroke-width:0.8px;stroke:url(#linear-gradient-23);}.cls-29{fill:url(#linear-gradient-24);}.cls-30{fill:url(#linear-gradient-25);}.cls-31{fill:url(#linear-gradient-26);}.cls-32{fill:url(#linear-gradient-27);}.cls-33{fill:url(#linear-gradient-28);}.cls-34{fill:url(#linear-gradient-29);}.cls-35{fill:url(#linear-gradient-30);}.cls-36{fill:url(#linear-gradient-31);}.cls-37{fill:url(#linear-gradient-32);}.cls-38{fill:url(#linear-gradient-33);}.cls-39{fill:url(#linear-gradient-34);}.cls-40{fill:url(#linear-gradient-35);}.cls-41{fill:url(#linear-gradient-36);}.cls-42{fill:url(#linear-gradient-37);}.cls-43{fill:url(#linear-gradient-38);}.cls-44{fill:url(#linear-gradient-39);}.cls-45{fill:url(#linear-gradient-40);}.cls-46{fill:#633d35;}.cls-47{fill:url(#linear-gradient-41);}.cls-48{fill:url(#linear-gradient-42);}.cls-49{fill:url(#linear-gradient-43);}.cls-50{fill:url(#linear-gradient-44);}.cls-51{fill:url(#linear-gradient-45);}.cls-52{fill:url(#linear-gradient-46);}.cls-53{fill:url(#linear-gradient-47);}.cls-54{fill:url(#linear-gradient-48);}.cls-55{fill:#995145;}.cls-56{fill:url(#linear-gradient-49);}.cls-57{fill:url(#linear-gradient-50);}.cls-58{fill:url(#linear-gradient-51);}.cls-59{fill:url(#linear-gradient-52);}.cls-60{fill:url(#linear-gradient-53);}.cls-61{fill:url(#linear-gradient-54);}.cls-62{fill:url(#linear-gradient-55);}.cls-63{fill:url(#linear-gradient-56);}.cls-64{fill:url(#linear-gradient-57);}.cls-65{fill:url(#linear-gradient-58);}.cls-66{fill:url(#linear-gradient-59);}.cls-67{fill:url(#linear-gradient-60);}.cls-68{fill:url(#linear-gradient-61);}.cls-69{fill:#172b19;}.cls-70{fill:url(#linear-gradient-62);}.cls-71{fill:#9ba248;}.cls-72{fill:#95a091;}.cls-73{fill:url(#linear-gradient-63);}.cls-74{fill:url(#linear-gradient-64);}.cls-75{fill:url(#linear-gradient-65);}</style><clipPath id="clip-path" transform="translate(51.95 32.65)"><rect class="cls-1" width="2693" height="900"/></clipPath><linearGradient id="linear-gradient" x1="1408.83" y1="1101.8" x2="1376.79" y2="-833.85" gradientUnits="userSpaceOnUse"><stop offset="0.09" stop-color="#cbe9f6"/><stop offset="0.24" stop-color="#cfe8f3"/><stop offset="0.27" stop-color="#bbe1ef"/><stop offset="0.34" stop-color="#99d5e9"/><stop offset="0.4" stop-color="#81cce4"/><stop offset="0.46" stop-color="#72c7e1"/><stop offset="0.51" stop-color="#6dc5e0"/></linearGradient><linearGradient id="linear-gradient-2" x1="2256.99" y1="728.08" x2="1559.14" y2="-190.07" gradientUnits="userSpaceOnUse"><stop offset="0.09" stop-color="#8bd2ec"/><stop offset="0.16" stop-color="#8acbe0"/><stop offset="0.23" stop-color="#89bfce"/><stop offset="0.37" stop-color="#8cc2d3"/><stop offset="0.51" stop-color="#92cade"/></linearGradient><linearGradient id="linear-gradient-3" x1="567.49" y1="795.06" x2="1909.1" y2="263.79" gradientUnits="userSpaceOnUse"><stop offset="0.09" stop-color="#6ab3c4"/><stop offset="0.43" stop-color="#83cee2"/><stop offset="0.64" stop-color="#85cde2"/><stop offset="0.71" stop-color="#8ccae0"/><stop offset="0.72" stop-color="#8ccae0"/><stop offset="0.85" stop-color="#8ccae0"/></linearGradient><linearGradient id="linear-gradient-4" x1="2338.77" y1="320.57" x2="2348.4" y2="140.91" gradientUnits="userSpaceOnUse"><stop offset="0.05" stop-color="#75914d"/><stop offset="0.2" stop-color="#679054"/><stop offset="0.49" stop-color="#528e5e"/><stop offset="0.68" stop-color="#4a8d62"/><stop offset="0.7" stop-color="#458961"/><stop offset="0.8" stop-color="#2c765f"/><stop offset="0.9" stop-color="#1d6a5e"/><stop offset="0.97" stop-color="#18665d"/></linearGradient><linearGradient id="linear-gradient-5" x1="2334.99" y1="165.82" x2="2396.77" y2="134.6" gradientUnits="userSpaceOnUse"><stop offset="0" stop-color="#21a889"/><stop offset="1" stop-color="#17aa92"/></linearGradient><linearGradient id="linear-gradient-6" x1="2308.27" y1="213.42" x2="2357.74" y2="125.55" gradientUnits="userSpaceOnUse"><stop offset="0" stop-color="#1da67f"/><stop offset="0.6" stop-color="#22a784"/><stop offset="0.97" stop-color="#27a98b"/></linearGradient><linearGradient id="linear-gradient-7" x1="2365.71" y1="200.75" x2="2431.24" y2="168.13" gradientUnits="userSpaceOnUse"><stop offset="0.01" stop-color="#32a890"/><stop offset="0.48" stop-color="#36a98d"/><stop offset="0.91" stop-color="#41ae85"/><stop offset="1" stop-color="#44af83"/></linearGradient><linearGradient id="linear-gradient-8" x1="2271.08" y1="188.66" x2="2301.81" y2="172.98" gradientUnits="userSpaceOnUse"><stop offset="0" stop-color="#1f876b"/><stop offset="0.23" stop-color="#23896a"/><stop offset="0.43" stop-color="#2e8e65"/><stop offset="0.63" stop-color="#40975d"/><stop offset="0.83" stop-color="#5aa352"/><stop offset="1" stop-color="#78b146"/></linearGradient><linearGradient id="linear-gradient-9" x1="2271.4" y1="193.38" x2="2307.4" y2="178.33" gradientUnits="userSpaceOnUse"><stop offset="0" stop-color="#21a986"/><stop offset="1" stop-color="#23a784"/></linearGradient><linearGradient id="linear-gradient-10" x1="1616.14" y1="570.73" x2="1621.42" y2="472.26" gradientUnits="userSpaceOnUse"><stop offset="0.05" stop-color="#6c9051"/><stop offset="0.08" stop-color="#6a9052"/><stop offset="0.46" stop-color="#558e5b"/><stop offset="0.7" stop-color="#4d8d5f"/><stop offset="0.73" stop-color="#45875f"/><stop offset="0.82" stop-color="#2c755e"/><stop offset="0.91" stop-color="#1d6a5d"/><stop offset="0.97" stop-color="#18665d"/></linearGradient><linearGradient id="linear-gradient-11" x1="1614.07" y1="485.92" x2="1647.93" y2="468.8" xlink:href="#linear-gradient-5"/><linearGradient id="linear-gradient-12" x1="1599.42" y1="512.01" x2="1626.54" y2="463.85" gradientUnits="userSpaceOnUse"><stop offset="0" stop-color="#19a26f"/><stop offset="0.91" stop-color="#159d70"/><stop offset="0.97" stop-color="#159c70"/></linearGradient><linearGradient id="linear-gradient-13" x1="1630.9" y1="505.06" x2="1666.82" y2="487.18" gradientUnits="userSpaceOnUse"><stop offset="0.01" stop-color="#2a8c5d"/><stop offset="0.27" stop-color="#2e8e5c"/><stop offset="0.51" stop-color="#399359"/><stop offset="0.74" stop-color="#4b9b54"/><stop offset="0.96" stop-color="#65a74c"/><stop offset="1" stop-color="#6aa94b"/></linearGradient><linearGradient id="linear-gradient-14" x1="1579.04" y1="498.44" x2="1595.88" y2="489.84" xlink:href="#linear-gradient-8"/><linearGradient id="linear-gradient-15" x1="1579.22" y1="501.02" x2="1598.95" y2="492.77" gradientUnits="userSpaceOnUse"><stop offset="0" stop-color="#2d8d59"/><stop offset="0.28" stop-color="#318f58"/><stop offset="0.53" stop-color="#3c9355"/><stop offset="0.77" stop-color="#4e9c4f"/><stop offset="1" stop-color="#68a747"/><stop offset="1" stop-color="#68a747"/></linearGradient><linearGradient id="linear-gradient-16" x1="2585.33" y1="196.84" x2="2663.92" y2="59.2" gradientUnits="userSpaceOnUse"><stop offset="0" stop-color="#268386"/><stop offset="0.31" stop-color="#228182"/><stop offset="0.55" stop-color="#1b7c79"/></linearGradient><linearGradient id="linear-gradient-17" x1="2643.69" y1="207.63" x2="2870.41" y2="-189.41" gradientUnits="userSpaceOnUse"><stop offset="0.03" stop-color="#3e848e"/><stop offset="0.15" stop-color="#3a838c"/><stop offset="0.28" stop-color="#2c8286"/><stop offset="0.34" stop-color="#248182"/></linearGradient><linearGradient id="linear-gradient-18" x1="2675.2" y1="85.86" x2="2721.6" y2="37.69" gradientUnits="userSpaceOnUse"><stop offset="0" stop-color="#0d5f3f"/><stop offset="0.16" stop-color="#06724b"/><stop offset="0.28" stop-color="#008355"/><stop offset="0.42" stop-color="#24985c"/><stop offset="0.56" stop-color="#43a961"/><stop offset="0.68" stop-color="#56b465"/><stop offset="0.76" stop-color="#5db866"/></linearGradient><linearGradient id="linear-gradient-19" x1="2581.81" y1="108.57" x2="2688.64" y2="-11.19" gradientUnits="userSpaceOnUse"><stop offset="0.01" stop-color="#18756a"/><stop offset="0.11" stop-color="#1a7d6f"/><stop offset="0.38" stop-color="#1e8e7b"/><stop offset="0.76" stop-color="#1ab594"/></linearGradient><linearGradient id="linear-gradient-20" x1="2537.8" y1="124.97" x2="2668.63" y2="-38.19" gradientUnits="userSpaceOnUse"><stop offset="0" stop-color="#0d5f3f"/><stop offset="0.21" stop-color="#196e52"/><stop offset="0.28" stop-color="#1e7359"/><stop offset="0.34" stop-color="#297f5b"/><stop offset="0.51" stop-color="#469e61"/><stop offset="0.66" stop-color="#57b165"/><stop offset="0.76" stop-color="#5db866"/></linearGradient><linearGradient id="linear-gradient-21" x1="2537.8" y1="125.63" x2="2587.6" y2="63.53" gradientUnits="userSpaceOnUse"><stop offset="0.04" stop-color="#198274"/><stop offset="0.45" stop-color="#168777"/><stop offset="0.57" stop-color="#128471"/><stop offset="0.73" stop-color="#097c61"/><stop offset="0.75" stop-color="#077b5e"/></linearGradient><linearGradient id="linear-gradient-22" x1="2567.08" y1="95.56" x2="2532.05" y2="24.54" gradientTransform="matrix(-1, 0, 0, 1, 5274.86, 0)" gradientUnits="userSpaceOnUse"><stop offset="0" stop-color="#0d5f3f"/><stop offset="0.05" stop-color="#06724b"/><stop offset="0.09" stop-color="#008355"/><stop offset="0.26" stop-color="#24985c"/><stop offset="0.43" stop-color="#43a961"/><stop offset="0.57" stop-color="#56b465"/><stop offset="0.67" stop-color="#5db866"/></linearGradient><linearGradient id="linear-gradient-23" x1="2562.52" y1="73.18" x2="2731.19" y2="73.18" xlink:href="#linear-gradient-17"/><linearGradient id="linear-gradient-24" x1="2600.31" y1="147.53" x2="2757.18" y2="-67.66" gradientUnits="userSpaceOnUse"><stop offset="0" stop-color="#0d7a57"/><stop offset="0.19" stop-color="#208163"/><stop offset="0.21" stop-color="#228264"/><stop offset="0.41" stop-color="#329872"/><stop offset="0.61" stop-color="#3ca67a"/><stop offset="0.78" stop-color="#3fab7d"/></linearGradient><linearGradient id="linear-gradient-25" x1="1381.39" y1="490.6" x2="1385.34" y2="416.87" gradientUnits="userSpaceOnUse"><stop offset="0.05" stop-color="#179999"/><stop offset="0.3" stop-color="#1fa095"/><stop offset="0.68" stop-color="#27a791"/><stop offset="0.74" stop-color="#229381"/><stop offset="0.83" stop-color="#1d7a6d"/><stop offset="0.91" stop-color="#196b61"/><stop offset="0.97" stop-color="#18665d"/></linearGradient><linearGradient id="linear-gradient-26" x1="1379.84" y1="427.1" x2="1405.19" y2="414.28" xlink:href="#linear-gradient-5"/><linearGradient id="linear-gradient-27" x1="1368.87" y1="446.63" x2="1389.18" y2="410.57" xlink:href="#linear-gradient-6"/><linearGradient id="linear-gradient-28" x1="1392.45" y1="441.43" x2="1419.34" y2="428.05" xlink:href="#linear-gradient-7"/><linearGradient id="linear-gradient-29" x1="1353.61" y1="436.47" x2="1366.22" y2="430.04" xlink:href="#linear-gradient-8"/><linearGradient id="linear-gradient-30" x1="1353.74" y1="438.41" x2="1368.52" y2="432.23" xlink:href="#linear-gradient-9"/><linearGradient id="linear-gradient-31" x1="947.08" y1="-252.36" x2="907.78" y2="989.91" gradientUnits="userSpaceOnUse"><stop offset="0.09" stop-color="#60c6ca"/><stop offset="0.24" stop-color="#59bfc1"/><stop offset="0.55" stop-color="#57bfbf"/><stop offset="0.64" stop-color="#5fc3c6"/><stop offset="0.7" stop-color="#67c7cc"/></linearGradient><linearGradient id="linear-gradient-32" x1="1854.99" y1="-195.89" x2="2310.46" y2="931.19" gradientUnits="userSpaceOnUse"><stop offset="0.5" stop-color="#29a9b7"/><stop offset="0.58" stop-color="#2fadb7"/><stop offset="0.65" stop-color="#39b4b7"/><stop offset="0.75" stop-color="#3bb6b9"/><stop offset="0.79" stop-color="#42bdbe"/><stop offset="0.8" stop-color="#46c1c1"/></linearGradient><linearGradient id="linear-gradient-33" x1="1117.82" y1="651.49" x2="1126.5" y2="489.52" xlink:href="#linear-gradient-10"/><linearGradient id="linear-gradient-34" x1="1114.81" y1="511.38" x2="1168.34" y2="484.33" xlink:href="#linear-gradient-5"/><linearGradient id="linear-gradient-35" x1="1091.43" y1="553.43" x2="1134.71" y2="476.56" xlink:href="#linear-gradient-12"/><linearGradient id="linear-gradient-36" x1="1141.38" y1="542.77" x2="1198.34" y2="514.43" xlink:href="#linear-gradient-13"/><linearGradient id="linear-gradient-37" x1="1059.28" y1="532.29" x2="1086.01" y2="518.66" xlink:href="#linear-gradient-8"/><linearGradient id="linear-gradient-38" x1="1059.58" y1="536.55" x2="1090.9" y2="523.46" xlink:href="#linear-gradient-15"/><linearGradient id="linear-gradient-39" x1="2069.51" y1="644.11" x2="2210.87" y2="396.55" gradientUnits="userSpaceOnUse"><stop offset="0" stop-color="#a94a35"/><stop offset="0.1" stop-color="#a54b36"/><stop offset="0.21" stop-color="#974e38"/><stop offset="0.32" stop-color="#82523d"/><stop offset="0.44" stop-color="#635942"/><stop offset="0.55" stop-color="#416049"/></linearGradient><linearGradient id="linear-gradient-40" x1="2174.48" y1="663.51" x2="2218.62" y2="586.22" gradientUnits="userSpaceOnUse"><stop offset="0.01" stop-color="#8c5850"/><stop offset="0.55" stop-color="#8c5850"/></linearGradient><linearGradient id="linear-gradient-41" x1="2231.17" y1="444.5" x2="2314.62" y2="357.85" xlink:href="#linear-gradient-18"/><linearGradient id="linear-gradient-42" x1="2063.19" y1="485.35" x2="2255.34" y2="269.93" xlink:href="#linear-gradient-19"/><linearGradient id="linear-gradient-43" x1="1984.03" y1="514.85" x2="2219.34" y2="221.37" xlink:href="#linear-gradient-20"/><linearGradient id="linear-gradient-44" x1="1984.03" y1="516.02" x2="2073.59" y2="404.32" gradientUnits="userSpaceOnUse"><stop offset="0.04" stop-color="#0d5e3f"/><stop offset="0.45" stop-color="#0d6f4f"/><stop offset="0.62" stop-color="#0b7455"/><stop offset="0.75" stop-color="#077b5e"/></linearGradient><linearGradient id="linear-gradient-45" x1="2985.1" y1="461.94" x2="2922.08" y2="334.21" xlink:href="#linear-gradient-22"/><linearGradient id="linear-gradient-46" x1="2096.46" y1="555.41" x2="2378.61" y2="168.36" gradientUnits="userSpaceOnUse"><stop offset="0" stop-color="#0d7a57"/><stop offset="0.16" stop-color="#0d7a57"/><stop offset="0.23" stop-color="#1e875b"/><stop offset="0.38" stop-color="#3e9f62"/><stop offset="0.53" stop-color="#55b067"/><stop offset="0.66" stop-color="#63ba6a"/><stop offset="0.78" stop-color="#68be6b"/></linearGradient><linearGradient id="linear-gradient-47" x1="400.45" y1="968.76" x2="1583.73" y2="202.6" gradientUnits="userSpaceOnUse"><stop offset="0.09" stop-color="#249971"/><stop offset="0.29" stop-color="#21a57d"/><stop offset="0.45" stop-color="#1db28a"/><stop offset="0.64" stop-color="#1fb38c"/><stop offset="0.71" stop-color="#26b692"/><stop offset="0.73" stop-color="#29b895"/></linearGradient><linearGradient id="linear-gradient-48" x1="232.82" y1="638.98" x2="364.39" y2="97.23" gradientUnits="userSpaceOnUse"><stop offset="0" stop-color="#a5533d"/><stop offset="0.24" stop-color="#7b533f"/><stop offset="0.55" stop-color="#415441"/></linearGradient><linearGradient id="linear-gradient-49" x1="466.03" y1="196.04" x2="624.24" y2="31.78" xlink:href="#linear-gradient-18"/><linearGradient id="linear-gradient-50" x1="148.72" y1="271.38" x2="513.77" y2="-137.88" gradientUnits="userSpaceOnUse"><stop offset="0" stop-color="#0d5f3f"/><stop offset="0.27" stop-color="#157d66"/><stop offset="0.43" stop-color="#198a77"/><stop offset="0.76" stop-color="#1fa98a"/></linearGradient><linearGradient id="linear-gradient-51" x1="1.08" y1="333.61" x2="171.23" y2="121.4" gradientUnits="userSpaceOnUse"><stop offset="0" stop-color="#0d5f3f"/><stop offset="0.33" stop-color="#0c7151"/><stop offset="0.34" stop-color="#0c7151"/><stop offset="0.76" stop-color="#077458"/></linearGradient><linearGradient id="linear-gradient-52" x1="1.08" y1="335.95" x2="171.23" y2="123.74" xlink:href="#linear-gradient-44"/><linearGradient id="linear-gradient-53" x1="4699.64" y1="231.76" x2="4577.54" y2="-15.74" xlink:href="#linear-gradient-22"/><linearGradient id="linear-gradient-54" x1="87.02" y1="153.3" x2="654.22" y2="153.3" gradientUnits="userSpaceOnUse"><stop offset="0" stop-color="#0d5f3f"/><stop offset="0.06" stop-color="#06724c"/><stop offset="0.09" stop-color="#008055"/><stop offset="0.23" stop-color="#1b9261"/><stop offset="0.41" stop-color="#3aa66f"/><stop offset="0.57" stop-color="#4db378"/><stop offset="0.67" stop-color="#54b77b"/></linearGradient><linearGradient id="linear-gradient-55" x1="44.85" y1="179.51" x2="717.12" y2="132.99" gradientUnits="userSpaceOnUse"><stop offset="0.21" stop-color="#0e6747"/><stop offset="0.35" stop-color="#157a55"/><stop offset="0.55" stop-color="#20996c"/><stop offset="0.61" stop-color="#2b9f6d"/><stop offset="0.71" stop-color="#48ae71"/><stop offset="0.8" stop-color="#66be74"/></linearGradient><linearGradient id="linear-gradient-56" x1="451.31" y1="800.95" x2="1163.04" y2="442.51" gradientUnits="userSpaceOnUse"><stop offset="0.1" stop-color="#198477"/><stop offset="0.34" stop-color="#1d8d78"/><stop offset="0.43" stop-color="#1a9079"/><stop offset="0.71" stop-color="#15967a"/></linearGradient><linearGradient id="linear-gradient-57" x1="-49.91" y1="713.9" x2="666.55" y2="353.07" gradientUnits="userSpaceOnUse"><stop offset="0.11" stop-color="#16595a"/><stop offset="0.23" stop-color="#1b655d"/><stop offset="0.34" stop-color="#217461"/><stop offset="0.47" stop-color="#208a6a"/><stop offset="0.61" stop-color="#209a70"/><stop offset="0.72" stop-color="#20a072"/></linearGradient><linearGradient id="linear-gradient-58" x1="1316.05" y1="947.58" x2="2737.66" y2="231.61" gradientUnits="userSpaceOnUse"><stop offset="0.1" stop-color="#177e70"/><stop offset="0.34" stop-color="#178877"/><stop offset="0.5" stop-color="#169078"/><stop offset="0.72" stop-color="#169679"/></linearGradient><linearGradient id="linear-gradient-59" x1="-186.13" y1="846.02" x2="2912.33" y2="820.31" gradientUnits="userSpaceOnUse"><stop offset="0.1" stop-color="#387842"/><stop offset="0.19" stop-color="#448146"/><stop offset="0.36" stop-color="#629852"/><stop offset="0.48" stop-color="#679650"/><stop offset="0.62" stop-color="#75904b"/><stop offset="0.63" stop-color="#76904b"/><stop offset="0.72" stop-color="#788b4d"/><stop offset="0.82" stop-color="#7f7d54"/><stop offset="0.84" stop-color="#817956"/></linearGradient><linearGradient id="linear-gradient-60" x1="2062.98" y1="815.52" x2="2954.05" y2="366.75" gradientUnits="userSpaceOnUse"><stop offset="0.09" stop-color="#137863"/><stop offset="0.33" stop-color="#1a8165"/><stop offset="0.5" stop-color="#228864"/><stop offset="0.72" stop-color="#288d63"/></linearGradient><linearGradient id="linear-gradient-61" x1="-7.73" y1="729.47" x2="2948.71" y2="718.73" gradientUnits="userSpaceOnUse"><stop offset="0.18" stop-color="#2c3c42"/><stop offset="0.22" stop-color="#2f3f46"/><stop offset="0.45" stop-color="#414e5f"/><stop offset="0.66" stop-color="#4b576e"/><stop offset="0.83" stop-color="#4f5a73"/></linearGradient><linearGradient id="linear-gradient-62" x1="-53.74" y1="859.57" x2="2883.8" y2="848.91" gradientUnits="userSpaceOnUse"><stop offset="0.29" stop-color="#1d293a"/><stop offset="0.57" stop-color="#223547"/><stop offset="0.83" stop-color="#243a4c"/></linearGradient><linearGradient id="linear-gradient-63" x1="850.43" y1="124.02" x2="910.01" y2="10.56" gradientUnits="userSpaceOnUse"><stop offset="0.07" stop-color="#80c2d2"/><stop offset="0.24" stop-color="#98cfdb"/><stop offset="0.54" stop-color="#cbeaef"/></linearGradient><linearGradient id="linear-gradient-64" x1="1546.08" y1="220" x2="1647.47" y2="26.92" xlink:href="#linear-gradient-63"/><linearGradient id="linear-gradient-65" x1="1950.6" y1="116.81" x2="2029.59" y2="-33.63" gradientUnits="userSpaceOnUse"><stop offset="0.01" stop-color="#8bc8d6"/><stop offset="0.7" stop-color="#c4e5ef"/><stop offset="0.87" stop-color="#d2edf5"/></linearGradient></defs><g class="cls-2"><rect class="cls-3" x="49.53" y="20.59" width="2697.69" height="898.38"/><path class="cls-4" d="M1622.73,544.41s321-422.08,742.79-278.83C2662.64,435.36,2693,459.73,2693,459.73v200l-1123.33,6Z" transform="translate(51.95 32.65)"/><path class="cls-5" d="M-13.53,321.17c95.23,3,169.57,16.95,219.31,28.93,76.58,18.43,103.69,34.27,192.16,50.89,78.11,14.68,121.63,26.62,175.09,13,36-9.18,55-22.73,166.89-86.5a671.46,671.46,0,0,1,131.47-73c46.75-19.43,166.15-62.76,329.37-49.71,0,0,9.4.75,18.3,1.7,160.46,17,355.79,148.06,476.48,239.43a1055.34,1055.34,0,0,0,231.2,85.66c205.26,49.68,370.42,25.37,417.08,15.63C2514.88,511.44,2678.2,422,2678.2,422c273.26-164,14.8-8.63,14.8-8.63q3.08,120.78,6.14,241.57L0,652.08Z" transform="translate(51.95 32.65)"/><path class="cls-6" d="M2396.55,186.07c-4.64,7-19.53,11.8-26.88,7a3.17,3.17,0,0,0-3.42-.38c-10.91,2.72-10.43,10.76-10.43,10.76,10.48,70.23,3.37,112.33,3.37,112.33h-32.86c-4.23-22.17.48-69.71,1.92-83.56.37-3.61-1.23-20.06-1.23-20.06s-2.5-10.61-4.52-13.36a33.19,33.19,0,0,0-7.86-7.39c-27.35-1-17.74-3.57-17.74-3.57,1.42.93,16.93.06,18.34-.68s-6-19.23-6-19.23h5.28c.8,5.73,6.39,19.6,6.39,19.6,4,1.33,9.44-18.11,9.44-18.11h5.28s-8.88,15.52-5.05,14,9.92-12.67,9.92-12.67h4.06s-6.31,12.85-11.75,15.81-2.08,4.76-2.08,4.76c16.33,5.91,16.47-20.57,16.47-20.57H2350c-1.81,13.49.82,19.11.82,19.11,13.82,2,17-19.11,17-19.11l4.47-1.37c.5,5.91-3.48,17.18-3.48,17.18s1.81,4.62,9.07,4.81c4.33.11,10.87-7.86,12.68-9.27Z" transform="translate(51.95 32.65)"/><path class="cls-7" d="M2397.42,152s-8.25-15.31-38.82-13.28-45.13,15.09,15.53,17.56C2374.13,156.23,2402.27,160.74,2397.42,152Z" transform="translate(51.95 32.65)"/><path class="cls-8" d="M2397.41,152.5s-8.35-15.31-39.3-13.29-45.68,15.09,15.72,17.57C2373.83,156.78,2402.32,161.28,2397.41,152.5Z" transform="translate(51.95 32.65)"/><path class="cls-7" d="M2289.68,166.7s14.2,2.92,57.21,4.48c41.21,1.5,42.13-5.12,42.13-5.12s9-15.22-28.19-19.79C2326.63,142.07,2263.79,153.89,2289.68,166.7Z" transform="translate(51.95 32.65)"/><path class="cls-9" d="M2289.68,167.46s14.2,2.94,57.21,4.52c41.21,1.51,42.13-5.17,42.13-5.17s9-15.33-28.19-19.94C2326.63,142.63,2263.79,154.54,2289.68,167.46Z" transform="translate(51.95 32.65)"/><path class="cls-7" d="M2380.14,185.45s25.54,2.54,47.22,0,7.86-15.13,0-16.65c-8.22-1.6-27.4-2.24-50.14,8.89C2362.7,184.79,2380.14,185.45,2380.14,185.45Z" transform="translate(51.95 32.65)"/><path class="cls-10" d="M2379.94,185.48s25.32,2.47,46.8,0,7.8-14.66,0-16.14c-8.14-1.54-27.15-2.16-49.69,8.62C2362.67,184.85,2379.94,185.48,2379.94,185.48Z" transform="translate(51.95 32.65)"/><path class="cls-11" d="M2291.19,178s-17.19-3.77-19.41,4.82c-.65,2.54,3.1,3.33,10.2,3.43C2288.37,186.37,2311.55,181.27,2291.19,178Z" transform="translate(51.95 32.65)"/><path class="cls-7" d="M2274.05,189.12s11.16,3.18,25.76-1c7.82-2.24,6.16-9.1-1.93-9.1S2266.55,184.38,2274.05,189.12Z" transform="translate(51.95 32.65)"/><path class="cls-12" d="M2273.36,189.82s11.41,3.26,26.34-1c8-2.31,6.29-9.36-2-9.36S2265.69,185,2273.36,189.82Z" transform="translate(51.95 32.65)"/><path class="cls-13" d="M1647.81,497c-2.54,3.84-10.71,6.47-14.73,3.82a1.74,1.74,0,0,0-1.88-.21c-6,1.49-5.72,5.9-5.72,5.9,5.75,38.49,1.85,61.57,1.85,61.57h-18c-2.32-12.16.26-38.21,1-45.8.21-2-.67-11-.67-11s-1.37-5.81-2.48-7.32a18.24,18.24,0,0,0-4.31-4.05c-15-.55-9.72-1.95-9.72-1.95.78.5,9.28,0,10-.38s-3.3-10.54-3.3-10.54h2.89c.45,3.14,3.51,10.74,3.51,10.74,2.17.73,5.17-9.92,5.17-9.92h2.9s-4.87,8.51-2.77,7.7,5.44-6.95,5.44-6.95h2.22s-3.46,7-6.44,8.66-1.14,2.61-1.14,2.61c9,3.25,9-11.27,9-11.27h1.56c-1,7.39.44,10.47.44,10.47,7.58,1.1,9.35-10.47,9.35-10.47l2.44-.75c.28,3.24-1.91,9.42-1.91,9.42s1,2.53,5,2.63c2.37.06,6-4.3,7-5.08Z" transform="translate(51.95 32.65)"/><path class="cls-7" d="M1648.28,478.32s-4.52-8.39-21.27-7.28-24.74,8.27,8.51,9.62C1635.52,480.66,1650.94,483.13,1648.28,478.32Z" transform="translate(51.95 32.65)"/><path class="cls-14" d="M1648.28,478.62s-4.58-8.4-21.54-7.29-25,8.27,8.62,9.63C1635.36,481,1651,483.43,1648.28,478.62Z" transform="translate(51.95 32.65)"/><path class="cls-7" d="M1589.23,486.4s7.79,1.6,31.36,2.46c22.58.82,23.09-2.81,23.09-2.81s4.91-8.34-15.45-10.85C1609.49,472.9,1575,479.38,1589.23,486.4Z" transform="translate(51.95 32.65)"/><path class="cls-15" d="M1589.23,486.82s7.79,1.61,31.36,2.47c22.58.83,23.09-2.83,23.09-2.83s4.91-8.4-15.45-10.93C1609.49,473.21,1575,479.74,1589.23,486.82Z" transform="translate(51.95 32.65)"/><path class="cls-7" d="M1638.81,496.67s14,1.4,25.88,0,4.31-8.29,0-9.12c-4.5-.87-15-1.23-27.48,4.87C1629.26,496.32,1638.81,496.67,1638.81,496.67Z" transform="translate(51.95 32.65)"/><path class="cls-16" d="M1638.7,496.69s13.88,1.36,25.66,0,4.27-8,0-8.84c-4.47-.85-14.89-1.19-27.24,4.72C1629.24,496.35,1638.7,496.69,1638.7,496.69Z" transform="translate(51.95 32.65)"/><path class="cls-17" d="M1590.06,492.61s-9.42-2.07-10.64,2.64c-.35,1.39,1.7,1.83,5.59,1.88C1588.52,497.18,1601.22,494.38,1590.06,492.61Z" transform="translate(51.95 32.65)"/><path class="cls-7" d="M1580.67,498.69a27.9,27.9,0,0,0,14.11-.56c4.29-1.23,3.38-5-1-5S1576.55,496.09,1580.67,498.69Z" transform="translate(51.95 32.65)"/><path class="cls-18" d="M1580.29,499.07a28.35,28.35,0,0,0,14.43-.58c4.38-1.26,3.45-5.12-1.08-5.12S1576.08,496.4,1580.29,499.07Z" transform="translate(51.95 32.65)"/><path class="cls-19" d="M2612.44,100.35s10.12,6.23,9.93,15.27c0,1.59.1,6.45-3.32,8.57a8.21,8.21,0,0,1-5.7.8c-5.37-1.17-8.57-7.42-11.7-13.53-2.57-5-3.74-8.9-6.79-9.34a2.89,2.89,0,0,0-2.27.44c-2.27,2,1.64,10.44,6,16.38,3.44,4.65,6.44,6.78,5.66,9.61-.6,2.2-3.07,3.31-3.31,3.42-2,.86-4.17.58-7.26-.57a36.12,36.12,0,0,1-11.81-7.31,156.8,156.8,0,0,1-17.64-20.82l-2.64,2.49,4.9,7.83a14.58,14.58,0,0,0-9.06-6.4,14,14,0,0,0-5.66,0,26.63,26.63,0,0,1,10.57,6.76c3.82,4.12,4,7.34,7.93,13.17a45.62,45.62,0,0,0,9.06,10c9.13,7.16,21.41,7,27.56,6.41a15.41,15.41,0,0,1,8.69,3.56c1.14,1,5.44,5.41,2.68,22.81,0,0-1.54,9.72-9.46,31.46l42.29.19c13,1.57,16.33.39,16.83-1.08.25-.74-.28-1.39-1.1-3.18-1.17-2.58-1.36-4.08-2.45-9.46-3-14.66-4.86-19.73-5.59-30.74-.33-5.06-.48-7.65.22-10.71.26-1.17,2.87-12.83,11.7-16,4.72-1.71,6.89.66,13.59,0,13-1.29,21.56-11.89,22.28-12.82,6.64-8.51,8.55-20.77,8.55-20.77l-5.63.78c-.26,2.15-1.83,13.48-10.85,17.85-1.07.52-6,2.92-9,1-4.25-2.74-1.64-12-1.17-12.89,1.82-3.33,6.06-9.67,6.06-9.67l-14,1.66c.66,8-2.33,15.09-8,18-.77.4-5.13,2.65-8.59,1-4.19-2-6-9.28-2.71-17.7L2656.07,95s-3.15,28.15-7.88,31c-8.18,5-14.24-12-12.12-29.27H2630s3.94,18.84-.91,12.11c-1.73-2.41-4.87-5.31-9.69-8.5" transform="translate(51.95 32.65)"/><path class="cls-20" d="M2659.28,162.13c-1.88.57-14.69,4.68-20.35,17.92a32.15,32.15,0,0,0-1.16,21.41H2668c-1.51-5.31-3-10.89-4.31-16.74C2661.83,176.83,2660.4,169.28,2659.28,162.13Z" transform="translate(51.95 32.65)"/><g class="cls-21"><path class="cls-22" d="M2654.38,187.62a5,5,0,0,1-3.06-.88,4.93,4.93,0,0,1-1.25-1.07,2,2,0,0,1-.54-1.65c1-2.33,4-2.65,5.95-1.7a9.9,9.9,0,0,1,4.8,4.5,5.65,5.65,0,0,1,.62,3.38,4.3,4.3,0,0,1-2,2.88,8.86,8.86,0,0,1-3.15,1.17c-.54.09-1.08.2-1.63.26l-1.66.07a9.44,9.44,0,0,1-6.16-2.26,8,8,0,0,1-2-2.67,8.12,8.12,0,0,1-.49-1.59l-.15-.81,0-.83a10.19,10.19,0,0,1,2.08-6,10.34,10.34,0,0,0-1.6,6l0,.77.18.76a7.37,7.37,0,0,0,.52,1.45,7.19,7.19,0,0,0,1.9,2.37c3.16,2.63,8.15,2.38,11.58.51A3.34,3.34,0,0,0,2660,190a4.75,4.75,0,0,0-.5-2.83,9.57,9.57,0,0,0-4.3-4.21,4.72,4.72,0,0,0-2.91-.47c-.91.26-2,.73-2.29,1.59a1.62,1.62,0,0,0,.37,1.33,4.71,4.71,0,0,0,1.1,1.08A5.19,5.19,0,0,0,2654.38,187.62Z" transform="translate(51.95 32.65)"/></g><path class="cls-23" d="M2666.79,59.91s10.26-4.84,26.38-4.77,34.18,10.76,29.19,17.56-8,10.72-30.36,10.66S2644.22,72.9,2666.79,59.91Z" transform="translate(51.95 32.65)"/><path class="cls-7" d="M2662.75,25.18c43,12.16,47.29,26.7,46.41,33.36,0,0,.09,11.4-44.32,22.91h0s-26,9.42-74.14,4.48c-14.6-1.5-38.68-7.46-42-20.77-2.45-9.79,7.57-19.77,11.19-23.37C2589.41,12.39,2648.28,22.4,2662.75,25.18Z" transform="translate(51.95 32.65)"/><path class="cls-24" d="M2661.4,25.46c43,12.12,47.29,26.61,46.42,33.24,0,0,.09,11.35-44.31,22.8h0s-26,9.37-74.13,4.43c-14.6-1.5-38.68-7.44-42-20.7-2.45-9.75,7.56-19.69,11.18-23.28C2588.05,12.69,2646.92,22.68,2661.4,25.46Z" transform="translate(51.95 32.65)"/><path class="cls-25" d="M2522,95.84s-2.24-9,8.07-16.92c5.81-4.44,23.83-16.44,43.23-4.12,22.26,14.15,46.33,30,12.6,31.3S2525.51,107.76,2522,95.84Z" transform="translate(51.95 32.65)"/><path class="cls-26" d="M2522,96.5s-2.24-9.06,8.07-16.93c5.81-4.43,23.83-16.44,43.23-4.11,22.26,14.14,46.33,30,12.6,31.29S2525.51,108.42,2522,96.5Z" transform="translate(51.95 32.65)"/><path class="cls-7" d="M2745.2,93.51s-11.37,2.9-62,3.26l.09-38.24c1.19-.36,9.87-2.23,31.86,4.17,26.72,7.79,50.13,24.4,32.83,30.05" transform="translate(51.95 32.65)"/><path class="cls-27" d="M2745.05,94.21s-11.37,2.9-62,3.26l.08-38.25c1.2-.35,9.88-2.22,31.87,4.18,26.72,7.78,50.12,24.4,32.83,30" transform="translate(51.95 32.65)"/><path class="cls-28" d="M2604.1,104.73c4.79.63,5.6.39,24.26.37,4,0,20.85,0,54.8-1,14.27-.42,35.78-3.5,41.63-6a9,9,0,0,0,6-8.46c.32-12.7-11.47-20-15.19-23.58-3.47-3.32-12.24-7.34-14.57-8.22a266.42,266.42,0,0,0-51.4-14.09c-5.52-1.19-49-10-73.77,14.6-2.28,2.26-16.29,16-12.19,28C2568.39,100,2594.41,103.45,2604.1,104.73Z" transform="translate(51.95 32.65)"/><path class="cls-29" d="M2603.33,105.93c4.79.63,5.6.39,24.26.37,4,0,20.85,0,54.8-1,14.27-.42,35.78-3.5,41.63-6a9,9,0,0,0,6-8.46c.32-12.7-11.48-20-15.19-23.58-3.47-3.32-12.24-7.34-14.57-8.22a265.72,265.72,0,0,0-51.41-14.09c-5.51-1.2-49-10-73.76,14.6-2.28,2.26-16.29,16-12.19,28C2567.62,101.21,2593.63,104.65,2603.33,105.93Z" transform="translate(51.95 32.65)"/><path class="cls-30" d="M1405.1,435.41c-1.9,2.88-8,4.84-11,2.86a1.28,1.28,0,0,0-1.4-.15c-4.48,1.11-4.28,4.41-4.28,4.41,4.3,28.82,1.38,46.1,1.38,46.1h-13.48c-1.74-9.1.19-28.61.78-34.29.16-1.48-.5-8.24-.5-8.24s-1-4.35-1.86-5.48a13.58,13.58,0,0,0-3.22-3c-11.22-.41-7.28-1.46-7.28-1.46.58.38,7,0,7.53-.28s-2.48-7.89-2.48-7.89h2.17c.33,2.35,2.62,8,2.62,8,1.63.54,3.88-7.43,3.88-7.43h2.16s-3.64,6.37-2.07,5.76,4.07-5.2,4.07-5.2h1.67s-2.59,5.27-4.82,6.49-.86,1.95-.86,1.95c6.7,2.43,6.76-8.44,6.76-8.44H1386c-.75,5.53.33,7.84.33,7.84,5.67.82,7-7.84,7-7.84l1.83-.56c.21,2.42-1.43,7.05-1.43,7.05s.75,1.89,3.72,2c1.78.05,4.47-3.22,5.21-3.8Z" transform="translate(51.95 32.65)"/><path class="cls-7" d="M1405.46,421.41s-3.39-6.29-15.93-5.45-18.52,6.19,6.37,7.2C1395.9,423.16,1407.45,425,1405.46,421.41Z" transform="translate(51.95 32.65)"/><path class="cls-31" d="M1405.45,421.63s-3.42-6.28-16.12-5.45-18.75,6.19,6.45,7.21C1395.78,423.39,1407.47,425.23,1405.45,421.63Z" transform="translate(51.95 32.65)"/><path class="cls-7" d="M1361.24,427.46s5.83,1.2,23.48,1.84c16.91.61,17.29-2.1,17.29-2.1s3.68-6.25-11.57-8.12C1376.41,417.35,1350.62,422.2,1361.24,427.46Z" transform="translate(51.95 32.65)"/><path class="cls-32" d="M1361.24,427.77s5.83,1.21,23.48,1.86c16.91.61,17.29-2.13,17.29-2.13s3.68-6.29-11.57-8.18C1376.41,417.58,1350.62,422.47,1361.24,427.77Z" transform="translate(51.95 32.65)"/><path class="cls-7" d="M1398.37,435.15a105.34,105.34,0,0,0,19.38,0c8.89-1,3.22-6.21,0-6.83-3.38-.66-11.25-.92-20.58,3.65C1391.21,434.88,1398.37,435.15,1398.37,435.15Z" transform="translate(51.95 32.65)"/><path class="cls-33" d="M1398.29,435.17a107.49,107.49,0,0,0,19.2,0c8.82-1,3.2-6,0-6.63s-11.14-.89-20.39,3.54C1391.2,434.91,1398.29,435.17,1398.29,435.17Z" transform="translate(51.95 32.65)"/><path class="cls-34" d="M1361.86,432.11s-7-1.55-8,2c-.27,1,1.27,1.36,4.18,1.4C1360.71,435.53,1370.22,433.44,1361.86,432.11Z" transform="translate(51.95 32.65)"/><path class="cls-7" d="M1354.83,436.66a21,21,0,0,0,10.57-.42c3.21-.92,2.53-3.74-.79-3.74S1351.75,434.71,1354.83,436.66Z" transform="translate(51.95 32.65)"/><path class="cls-35" d="M1354.55,436.94a21.24,21.24,0,0,0,10.8-.43c3.28-.94,2.59-3.83-.8-3.83S1351.4,435,1354.55,436.94Z" transform="translate(51.95 32.65)"/><path class="cls-36" d="M94,652.18s676.95-480.27,1649-46.33v46.33Z" transform="translate(51.95 32.65)"/><path class="cls-37" d="M1513,666s827.62-478.82,1184.81-484.27l-4.85,478Z" transform="translate(51.95 32.65)"/><path class="cls-38" d="M1168.19,530.2c-4,6.33-17,10.65-23.32,6.3a2.66,2.66,0,0,0-3-.35c-9.47,2.45-9.05,9.71-9.05,9.71,9.1,63.35,2.92,101.33,2.92,101.33h-28.5c-3.68-20,.41-62.88,1.66-75.38.33-3.26-1.07-18.1-1.07-18.1s-2.17-9.57-3.92-12.05a29,29,0,0,0-6.82-6.66c-23.72-.9-15.38-3.22-15.38-3.22,1.22.83,14.68.05,15.91-.62s-5.23-17.34-5.23-17.34H1097c.7,5.17,5.55,17.68,5.55,17.68,3.43,1.19,8.19-16.34,8.19-16.34h4.57s-7.69,14-4.37,12.67,8.6-11.44,8.6-11.44h3.52s-5.47,11.6-10.19,14.27-1.8,4.29-1.8,4.29c14.17,5.34,14.28-18.56,14.28-18.56h2.47c-1.57,12.17.71,17.24.71,17.24,12,1.81,14.79-17.24,14.79-17.24l3.87-1.23c.44,5.34-3,15.5-3,15.5s1.57,4.17,7.87,4.34c3.76.1,9.44-7.09,11-8.37Z" transform="translate(51.95 32.65)"/><path class="cls-7" d="M1168.94,499.42s-7.16-13.81-33.68-12-39.15,13.61,13.47,15.84C1148.73,503.28,1173.15,507.35,1168.94,499.42Z" transform="translate(51.95 32.65)"/><path class="cls-39" d="M1168.93,499.91s-7.24-13.81-34.09-12-39.64,13.61,13.64,15.84C1148.48,503.77,1173.2,507.84,1168.93,499.91Z" transform="translate(51.95 32.65)"/><path class="cls-7" d="M1075.47,512.73s12.32,2.63,49.63,4c35.75,1.35,36.56-4.62,36.56-4.62s7.77-13.73-24.47-17.85C1107.53,490.5,1053,501.17,1075.47,512.73Z" transform="translate(51.95 32.65)"/><path class="cls-40" d="M1075.47,513.41s12.32,2.66,49.63,4.08c35.75,1.36,36.56-4.66,36.56-4.66s7.77-13.84-24.47-18C1107.53,491,1053,501.76,1075.47,513.41Z" transform="translate(51.95 32.65)"/><path class="cls-7" d="M1154,529.64s22.16,2.29,41,0,6.82-13.65,0-15c-7.13-1.44-23.78-2-43.5,8C1138.82,529,1154,529.64,1154,529.64Z" transform="translate(51.95 32.65)"/><path class="cls-41" d="M1153.78,529.67s22,2.22,40.6,0,6.76-13.23,0-14.56c-7.06-1.4-23.56-2-43.11,7.77C1138.79,529.09,1153.78,529.67,1153.78,529.67Z" transform="translate(51.95 32.65)"/><path class="cls-42" d="M1076.78,523s-14.91-3.4-16.84,4.35c-.56,2.29,2.69,3,8.85,3.09C1074.33,530.46,1094.44,525.87,1076.78,523Z" transform="translate(51.95 32.65)"/><path class="cls-7" d="M1061.91,533s9.68,2.87,22.35-.92c6.78-2,5.34-8.21-1.67-8.21S1055.4,528.68,1061.91,533Z" transform="translate(51.95 32.65)"/><path class="cls-43" d="M1061.31,533.58s9.9,2.94,22.85-1c6.93-2.08,5.46-8.44-1.71-8.44S1054.66,529.18,1061.31,533.58Z" transform="translate(51.95 32.65)"/><path class="cls-44" d="M2118.27,470.56s18.21,11.2,17.87,27.47c-.06,2.86.17,11.59-6,15.41-4.28,2.66-9.46,1.6-10.25,1.43-9.66-2.11-15.41-13.34-21-24.33-4.61-9-6.73-16-12.2-16.79-.66-.1-2.79-.4-4.1.78-4.08,3.67,3,18.78,10.87,29.46,6.2,8.37,11.58,12.19,10.18,17.29-1.08,4-5.52,6-5.94,6.14-3.56,1.56-7.51,1.05-13.07-1a64.55,64.55,0,0,1-21.23-13.14,283.22,283.22,0,0,1-31.74-37.45l-4.76,4.48,8.83,14.09c-1.12-1.76-6.28-9.44-16.3-11.53a25.41,25.41,0,0,0-10.18,0,48,48,0,0,1,19,12.17c6.88,7.4,7.2,13.21,14.26,23.69a82.29,82.29,0,0,0,16.3,17.93c16.42,12.88,38.5,12.55,49.58,11.53,4.62.53,10.79,2,15.62,6.4,2.06,1.88,9.79,9.73,4.83,41,0,0-2.77,17.48-17,56.57l76.07.34c23.36,2.84,29.36.71,30.26-1.93.46-1.34-.5-2.5-2-5.73-2.11-4.64-2.45-7.33-4.41-17-5.34-26.37-8.75-35.5-10.05-55.29-.6-9.1-.87-13.77.39-19.28.47-2.09,5.17-23.07,21-28.81,8.49-3.08,12.39,1.18,24.45,0,23.45-2.31,38.77-21.39,40.07-23.06,11.93-15.31,15.37-37.35,15.37-37.35l-10.12,1.39c-.46,3.87-3.29,24.25-19.52,32.12-1.92.94-10.79,5.24-16.22,1.74-7.64-4.92-3-21.62-2.1-23.19,3.27-6,10.9-17.39,10.9-17.39l-25.17,3c1.19,14.44-4.19,27.14-14.47,32.44-1.37.71-9.21,4.76-15.44,1.74-7.54-3.65-10.75-16.69-4.87-31.83l-9.27-3.19s-5.67,50.63-14.17,55.83c-14.71,9-25.61-21.66-21.8-52.64h-10.9s7.09,33.87-1.63,21.77c-3.12-4.32-8.77-9.54-17.44-15.28" transform="translate(51.95 32.65)"/><path class="cls-45" d="M2202.53,581.68c-3.4,1-26.43,8.41-36.61,32.24a57.71,57.71,0,0,0-2.08,38.5h54.28q-4.1-14.32-7.75-30.11C2207.11,608.12,2204.55,594.54,2202.53,581.68Z" transform="translate(51.95 32.65)"/><path class="cls-46" d="M2193.71,627.53a6.36,6.36,0,0,1-2.86-.34,12.31,12.31,0,0,1-2.65-1.24,9.6,9.6,0,0,1-2.26-1.92,3.7,3.7,0,0,1-1-3,4,4,0,0,1,1.92-2.5,9.63,9.63,0,0,1,1.33-.73l.7-.29.75-.23a9.6,9.6,0,0,1,6,.69,16.6,16.6,0,0,1,5,3.3,17.85,17.85,0,0,1,3.65,4.78,10.09,10.09,0,0,1,1.12,6.1,7.31,7.31,0,0,1-1.25,3,8.69,8.69,0,0,1-2.32,2.17,16.61,16.61,0,0,1-5.66,2.16,26.08,26.08,0,0,1-5.92.58,17.25,17.25,0,0,1-11.1-4.06,14.39,14.39,0,0,1-3.53-4.84,14.76,14.76,0,0,1-1.23-5.8,18.58,18.58,0,0,1,3.78-10.87,18.89,18.89,0,0,0-2.92,10.84,13.75,13.75,0,0,0,1.37,5.36,13.07,13.07,0,0,0,3.4,4.29,16.34,16.34,0,0,0,10.26,3.43,24.74,24.74,0,0,0,5.54-.6,15,15,0,0,0,5-1.94,6,6,0,0,0,2.86-4,8.65,8.65,0,0,0-.92-5.08,17,17,0,0,0-7.72-7.59,8.39,8.39,0,0,0-5.22-.84,9,9,0,0,0-2.51,1,3.23,3.23,0,0,0-1.61,1.86,3,3,0,0,0,.65,2.39,8.35,8.35,0,0,0,2,1.93,11.6,11.6,0,0,0,2.48,1.39A6.16,6.16,0,0,0,2193.71,627.53Z" transform="translate(51.95 32.65)"/><path class="cls-47" d="M2216,397.81s18.45-8.71,47.45-8.58,61.48,19.36,52.51,31.6-14.43,19.28-54.62,19.17S2175.44,421.18,2216,397.81Z" transform="translate(51.95 32.65)"/><path class="cls-7" d="M2208.77,335.36c77.36,21.86,85.05,48,83.47,60,0,0,.16,20.51-79.71,41.22h0s-46.84,16.94-133.36,8.05c-26.25-2.69-69.57-13.41-75.56-37.35-4.41-17.62,13.61-35.56,20.13-42C2076.84,312.35,2182.74,330.36,2208.77,335.36Z" transform="translate(51.95 32.65)"/><path class="cls-48" d="M2206.33,335.85c77.37,21.81,85.07,47.86,83.49,59.79,0,0,.18,20.42-79.68,41h0s-46.83,16.86-133.35,8c-26.26-2.69-69.57-13.38-75.57-37.23-4.42-17.55,13.59-35.41,20.11-41.87C2074.4,312.88,2180.3,330.86,2206.33,335.85Z" transform="translate(51.95 32.65)"/><path class="cls-49" d="M1955.58,462.45s-4-16.29,14.51-30.44c10.46-8,42.87-29.58,77.76-7.4,40,25.44,83.34,53.87,22.67,56.28S1961.91,483.89,1955.58,462.45Z" transform="translate(51.95 32.65)"/><path class="cls-50" d="M1955.58,463.63s-4-16.29,14.51-30.44c10.46-8,42.87-29.58,77.76-7.41,40,25.45,83.34,53.88,22.67,56.29S1961.91,485.07,1955.58,463.63Z" transform="translate(51.95 32.65)"/><path class="cls-7" d="M2357.07,458.26s-20.46,5.21-111.57,5.86l.15-68.79c2.14-.64,17.76-4,57.32,7.51,48.05,14,90.15,43.89,59.05,54" transform="translate(51.95 32.65)"/><path class="cls-51" d="M2356.79,459.51s-20.45,5.22-111.56,5.86l.15-68.79c2.14-.63,17.76-4,57.31,7.52,48,14,90.16,43.89,59,54" transform="translate(51.95 32.65)"/><path class="cls-7" d="M2103.27,478.43c8.63,1.14,10.08.71,43.64.68,7.14,0,37.51,0,98.56-1.83,25.68-.76,64.36-6.28,74.89-10.86,3.52-1.52,10.52-5.18,10.77-15.21.57-22.85-20.64-36-27.32-42.41-6.24-6-22-13.21-26.2-14.8-51-19.43-92.47-25.34-92.47-25.34-9.92-2.15-88.1-18-132.68,26.26-4.09,4.07-29.3,28.81-21.92,50.29C2039,470,2085.84,476.13,2103.27,478.43Z" transform="translate(51.95 32.65)"/><path class="cls-52" d="M2101.89,480.59c8.62,1.14,10.07.71,43.63.68,7.15,0,37.51,0,98.56-1.83,25.68-.76,64.36-6.29,74.89-10.86,3.52-1.53,10.52-5.19,10.77-15.22.58-22.85-20.64-36-27.32-42.41-6.24-6-22-13.2-26.2-14.79-51-19.43-92.47-25.34-92.47-25.34-9.92-2.15-88.1-18-132.68,26.26-4.09,4.07-29.3,28.8-21.92,50.29C2037.65,472.11,2084.45,478.29,2101.89,480.59Z" transform="translate(51.95 32.65)"/><path class="cls-53" d="M0,556.07s511.6-147.73,804.85-14.3c179.08,112,293.24,97.69,481.27,42.89s620.07,81.13,620.07,81.13L0,662.78Z" transform="translate(51.95 32.65)"/><path class="cls-54" d="M254.35,250.67s34.21,22.3,33.56,54.71c-.12,5.7.32,23.11-11.24,30.71-8,5.3-17.77,3.19-19.24,2.85-18.15-4.2-29-26.57-39.54-48.47C209.22,272.54,205.25,258.56,195,257c-1.24-.18-5.24-.78-7.7,1.56-7.66,7.31,5.57,37.42,20.41,58.69,11.65,16.68,21.76,24.3,19.14,34.44-2,7.88-10.38,11.88-11.17,12.25-6.68,3.09-14.11,2.08-24.55-2a121.11,121.11,0,0,1-39.89-26.18c-26-26.85-46.76-55.55-59.62-74.6l-8.93,8.93,16.59,28.06c-2.11-3.5-11.81-18.8-30.62-23a45,45,0,0,0-19.14,0c9.79,3.75,23.9,10.74,35.72,24.24,12.92,14.74,13.52,26.31,26.79,47.2,9.89,15.55,21.75,28.33,30.62,35.72,30.84,25.66,72.32,25,93.13,23,8.67,1.06,20.27,4,29.34,12.76,3.87,3.74,18.4,19.38,9.07,81.74,0,0-5.2,34.83-32,112.71l142.89.68c17.39,6.17,49.82,15.9,59.12,3.64,4.67-6.17,1.77-15.6.46-19.89-16.08-52.69-28.21-93-33.12-126-3.13-21-3.33-39.06.24-55.46,1.23-5.66,10.62-46.31,39.55-57.41,16-6.13,23.28,2.36,45.92,0,44.06-4.6,72.83-42.61,75.27-45.93,22.42-30.5,28.88-74.41,28.88-74.41l-19,2.77c-.87,7.7-6.18,48.3-36.66,64-3.61,1.86-20.28,10.43-30.48,3.46-14.35-9.8-5.55-43.08-3.94-46.2,6.14-11.92,20.48-34.64,20.48-34.64l-47.29,5.94c2.23,28.76-7.87,54.06-27.18,64.63-2.57,1.41-17.3,9.47-29,3.46-14.17-7.28-20.2-33.26-9.15-63.41l-17.41-6.35S391.12,332.24,375.15,342.6C347.51,360.55,327,299.45,334.2,237.74H313.73s13.31,67.48-3.08,43.38c-5.86-8.63-16.46-19-32.76-30.45" transform="translate(51.95 32.65)"/><path class="cls-55" d="M409.73,478.68c-9.41-4-30.6,21.54-42.31,42.29-8.52,15.1-20.77,43.18-19.72,85.42l1.21,11,97.72-11.74c-9-29.1-14.95-50.5-18.82-65.12-3.56-13.49-8.48-26.63-11.34-40.29C413.42,485.59,413.44,480.24,409.73,478.68Z" transform="translate(51.95 32.65)"/><path class="cls-46" d="M400.1,570.43a7.71,7.71,0,0,1-2.49,0,14.79,14.79,0,0,1-2.45-.58,20.77,20.77,0,0,1-4.55-2.14,16,16,0,0,1-3.9-3.31,8.92,8.92,0,0,1-1.37-2.29,5.13,5.13,0,0,1-.29-2.81,5.46,5.46,0,0,1,1.25-2.55,9.82,9.82,0,0,1,2.05-1.78,18.44,18.44,0,0,1,2.3-1.26l1.19-.51,1.3-.39a13.9,13.9,0,0,1,5.33-.25,20.13,20.13,0,0,1,5,1.45,28.93,28.93,0,0,1,8.61,5.69,31,31,0,0,1,6.29,8.24,21.71,21.71,0,0,1,1.78,5,15.26,15.26,0,0,1,.15,5.48,12.67,12.67,0,0,1-2.16,5.16,15.07,15.07,0,0,1-4,3.74,28.45,28.45,0,0,1-9.76,3.71,44,44,0,0,1-10.19,1,33.69,33.69,0,0,1-10.17-1.8,26.71,26.71,0,0,1-9-5.18,24.51,24.51,0,0,1-6.09-8.33,25.55,25.55,0,0,1-2.09-10A31.93,31.93,0,0,1,373.43,548a37.74,37.74,0,0,0-4,9,29,29,0,0,0-1.08,9.64,23.92,23.92,0,0,0,2.41,9.23,23,23,0,0,0,5.83,7.39,28,28,0,0,0,17.66,5.91,42.75,42.75,0,0,0,9.54-1,25.7,25.7,0,0,0,8.7-3.34,12.06,12.06,0,0,0,3.25-3,9.64,9.64,0,0,0,1.67-3.92,11.87,11.87,0,0,0-.1-4.4,19.87,19.87,0,0,0-1.48-4.34,29.15,29.15,0,0,0-13.3-13.06,17.6,17.6,0,0,0-4.44-1.44,12.37,12.37,0,0,0-4.54,0l-1.1.28-1.11.41a15.22,15.22,0,0,0-2.11,1,5.52,5.52,0,0,0-2.79,3.18,5.12,5.12,0,0,0,1.12,4.12,15.17,15.17,0,0,0,3.45,3.33,20.47,20.47,0,0,0,4.27,2.38,13.53,13.53,0,0,0,2.33.77A7.48,7.48,0,0,0,400.1,570.43Z" transform="translate(51.95 32.65)"/><path class="cls-56" d="M438,105.74s34.66-17.35,89.13-17.09,115.48,38.56,98.64,62.95-27.12,38.4-102.6,38.18S361.73,152.29,438,105.74Z" transform="translate(51.95 32.65)"/><path class="cls-7" d="M424.34-18.68C569.67,24.88,584.1,77,581.14,100.84c0,0,.31,40.85-149.74,82.11h0s-88,33.76-250.5,16.05C131.58,193.62,50.22,172.27,39,124.58c-8.28-35.1,25.58-70.84,37.82-83.77C176.53-64.52,375.45-28.65,424.34-18.68Z" transform="translate(51.95 32.65)"/><path class="cls-57" d="M419.76-17.7C565.1,25.75,579.56,77.64,576.61,101.4c0,0,.32,40.69-149.7,81.72h0S339,216.71,176.42,199c-49.32-5.38-130.68-26.68-142-74.18C26.17,89.86,60,54.27,72.24,41.41,171.94-63.46,370.87-27.64,419.76-17.7Z" transform="translate(51.95 32.65)"/><path class="cls-58" d="M-51.25,234.51S-58.83,202.07-24,173.87C-4.36,158,56.52,115,122.06,159.12c75.21,50.69,156.55,107.33,42.58,112.13S-39.37,277.22-51.25,234.51Z" transform="translate(51.95 32.65)"/><path class="cls-59" d="M-51.25,236.85S-58.83,204.41-24,176.21c19.64-15.9,80.52-58.92,146.06-14.75,75.21,50.69,156.55,107.33,42.58,112.13S-39.37,279.56-51.25,236.85Z" transform="translate(51.95 32.65)"/><path class="cls-7" d="M702.91,226.16s-38.41,10.39-209.56,11.67l.27-137c4-1.27,33.37-8,107.68,15,90.26,27.89,169.35,87.43,110.92,107.65" transform="translate(51.95 32.65)"/><path class="cls-60" d="M702.4,228.66S664,239.05,492.83,240.33l.28-137c4-1.27,33.37-8,107.67,15C691,146.15,770.13,205.7,711.7,225.92" transform="translate(51.95 32.65)"/><path class="cls-61" d="M226.18,266.35c16.19,2.27,18.91,1.41,82,1.35,13.42,0,70.45,0,185.14-3.64,48.24-1.51,120.9-12.52,140.67-21.63,6.61-3.05,19.77-10.34,20.24-30.32,1.07-45.52-38.77-71.73-51.33-84.49-11.72-11.9-41.35-26.3-49.22-29.48C457.84,59.44,380,47.67,380,47.67,361.33,43.39,214.46,11.82,130.73,100c-7.7,8.11-55,57.39-41.18,100.18C105.51,249.45,193.42,261.76,226.18,266.35Z" transform="translate(51.95 32.65)"/><path class="cls-62" d="M223.57,270.65c16.19,2.27,18.91,1.41,82,1.34,13.42,0,70.45,0,185.14-3.63,48.24-1.52,120.9-12.53,140.67-21.64,6.61-3,19.77-10.33,20.24-30.31,1.07-45.53-38.77-71.73-51.33-84.49C588.54,120,558.91,105.62,551,102.44,455.23,63.74,377.35,52,377.35,52c-18.63-4.29-165.5-35.86-249.23,52.31-7.7,8.11-55,57.38-41.18,100.18C102.9,253.74,190.81,266.06,223.57,270.65Z" transform="translate(51.95 32.65)"/><path class="cls-63" d="M457.11,665.79s34.34-67.91,118.52-38c27.69-42.09,72-37.37,98.58-7.61,36.56-64.39,75.32,11.23,75.32,11.23C775,576.83,830.39,640,830.39,640c39.88-35.45,77.54,14.94,77.54,14.94,38.77-26,108.55,10.88,108.55,10.88Z" transform="translate(51.95 32.65)"/><path class="cls-64" d="M0,428.63s96.05-28.1,74.49,41.69c69.8-41.05,109.82-3.08,100.59,35.93,53.37-6.16,100.58,71.84,62.6,93.39,0,0,54.4-28.73,108.8,14.37,32.84-45.16,202.19,16.42,216.56,51.32-66.71,1-563,0-563,0Z" transform="translate(51.95 32.65)"/><path class="cls-65" d="M1321.69,665.79s79.69-73.66,223.14-35.79c74.91-57.77,194.45,0,194.45,0,22.32-73.71,130.7,5,130.7,5s25.5-37,154.6-2.91c105.2-16.87,130.7,22.77,130.7,22.77,44.63,1.8,283.71,10.88,283.71,10.88Z" transform="translate(51.95 32.65)"/><rect class="cls-66" x="47.1" y="733.09" width="2702.7" height="199.56"/><path class="cls-67" d="M2079.61,664.9s54.07-53.67,135.18-34c13.95-29.52,65.4-42,123-8-50.58-75.13-17.44-21.47-36.63-51.88s24.42-75.13,48.84-7.15L2364.79,605s-14-38.2-14.83-76.79c-.42-18.38,6.1-29.43,13.88-30.15,10.46-1,21.21,34,22.75,39,8.26,26.8,7.21,48.64,8.54,48.6,1,0,2.47-12.39,1.25-27.38-1.9-23.29-8.16-26.92-7.92-40.71.24-14,7.13-36.44,27.14-45.24,17.46-7.68,38-1.91,49.52,9.49,8.2,8.08,11.71,17.63,13,26.62,8.72,59-2.62,61.71,12.2-.9s95.06-68,90.7,9.84l-3.49,37.56,3.66,2.69s65.86-78.71,111.77-65.29c.56,41.14,0,172.62,0,172.62Z" transform="translate(51.95 32.65)"/><rect class="cls-68" x="32.67" y="697.55" width="2724.24" height="53.65"/><path class="cls-69" d="M749.44,826.1s-15.92-36.18-12.64-51.71S755.39,795.45,749.44,826.1Z" transform="translate(51.95 32.65)"/><path class="cls-69" d="M151.91,820.1S110.2,772.43,117,759.66,163.82,784.35,151.91,820.1Z" transform="translate(51.95 32.65)"/><path class="cls-69" d="M176.59,816.52s-31.34-34.73-22.48-45.79S182.55,790,176.59,816.52Z" transform="translate(51.95 32.65)"/><path class="cls-69" d="M198.72,816.48s13.62-29.58,44.26-43.2-.84,43.28-18.72,43.24S198.72,816.48,198.72,816.48Z" transform="translate(51.95 32.65)"/><path class="cls-69" d="M729,822s-23-46.15-19.58-58.92S746.88,780.52,729,822Z" transform="translate(51.95 32.65)"/><path class="cls-69" d="M764.76,822.52s-2.56-37.71,23.83-48.13,2.55,29.57,0,34.68S764.76,822.52,764.76,822.52Z" transform="translate(51.95 32.65)"/><path class="cls-69" d="M856.68,822s-31.49-19.13-19.57-30.94S856.68,822,856.68,822Z" transform="translate(51.95 32.65)"/><path class="cls-69" d="M882.22,822.52S872,792.94,897.54,777.18,888.18,801.07,882.22,822.52Z" transform="translate(51.95 32.65)"/><path class="cls-69" d="M902.65,822s-8.51-23.17,20.43-41S902.65,822,902.65,822Z" transform="translate(51.95 32.65)"/><path class="cls-69" d="M1193.79,819.67c0,.87-34.94-48-23.87-59.52S1194.68,801.33,1193.79,819.67Z" transform="translate(51.95 32.65)"/><path class="cls-69" d="M1210.78,819.36s-16.18-22.2-10.22-37.53S1210.78,819.36,1210.78,819.36Z" transform="translate(51.95 32.65)"/><path class="cls-69" d="M1238,818.86s-2.57-41.66,22.11-45.3S1238,818.86,1238,818.86Z" transform="translate(51.95 32.65)"/><path class="cls-70" d="M-6.72,816.81s928.5-1.76,962,0S1523.06,806.27,1566,808s846.33-7.81,846.33-7.81h280.8l-.25,99.78H-13.53Z" transform="translate(51.95 32.65)"/><path class="cls-71" d="M983.36,732.42s30.11-1.26,41.41,0,24.47,8.9-17.57,11.35C966.42,741.8,970.18,736.81,983.36,732.42Z" transform="translate(51.95 32.65)"/><path class="cls-72" d="M591.56,738.27s26.06-1,35.84,0,21.18,7.19-15.21,9.17C576.9,745.85,580.15,741.82,591.56,738.27Z" transform="translate(51.95 32.65)"/><path class="cls-73" d="M819.69,91.66s40.2-22.93,75.43-8c35.22,15.62,14.59,33.56-15,32.9,0,0-12.11,2-40.44,0S800.74,102.63,819.69,91.66Z" transform="translate(51.95 32.65)"/><path class="cls-74" d="M1523.8,178.21s25.39-5.13,63.85-11.41,71.56,40.39-3.07,42.44-30,1-68.48,0S1483.48,185.65,1523.8,178.21Z" transform="translate(51.95 32.65)"/><path class="cls-75" d="M1904.63,78.25a140.2,140.2,0,0,1,59.72-11.65c37.08,1,73.09,17.11,70.39,26-2.06,6.77-27.17,11.13-41.63,11.13-72.18,0-27.36,1.1-72.18,0-10.07-.24-22.66-2-26.69-7.35C1890.53,91.43,1895,84.12,1904.63,78.25Z" transform="translate(51.95 32.65)"/></g></svg>