<svg id="Layer_1" data-name="Layer 1" xmlns="http://www.w3.org/2000/svg" xmlns:xlink="http://www.w3.org/1999/xlink" viewBox="0 0 2866.47 916.3"><defs><style>.cls-1{fill:none;}.cls-2{clip-path:url(#clip-path);}.cls-3{fill:url(#linear-gradient);}.cls-4{fill:url(#linear-gradient-2);}.cls-5{fill:url(#linear-gradient-3);}.cls-6{fill:url(#linear-gradient-4);}.cls-7{fill:url(#linear-gradient-5);}.cls-8{fill:url(#linear-gradient-6);}.cls-9{fill:url(#linear-gradient-7);}.cls-10{fill:url(#linear-gradient-8);}.cls-11{fill:url(#linear-gradient-9);}.cls-12{fill:url(#linear-gradient-10);}.cls-13{fill:url(#linear-gradient-11);}.cls-14{fill:url(#linear-gradient-12);}.cls-15{fill:url(#linear-gradient-13);}.cls-16{fill:url(#linear-gradient-14);}.cls-17{fill:url(#linear-gradient-15);}.cls-18{fill:url(#linear-gradient-16);}.cls-19{fill:#c38a72;}.cls-20{fill:#c38a73;}.cls-21{fill:#603913;}.cls-22,.cls-27,.cls-32{stroke-miterlimit:10;}.cls-22{stroke-width:2.01px;fill:url(#linear-gradient-17);stroke:url(#linear-gradient-18);}.cls-23{fill:url(#linear-gradient-19);}.cls-24{fill:url(#linear-gradient-20);}.cls-25{fill:url(#linear-gradient-21);}.cls-26{fill:url(#linear-gradient-22);}.cls-27{fill:url(#linear-gradient-23);stroke:url(#linear-gradient-24);}.cls-28{fill:url(#linear-gradient-25);}.cls-29{fill:url(#linear-gradient-26);}.cls-30{fill:url(#linear-gradient-27);}.cls-31{fill:url(#linear-gradient-28);}.cls-32{stroke:#5eefbe;stroke-width:3px;fill:url(#linear-gradient-29);}.cls-33{fill:url(#linear-gradient-30);}.cls-34{fill:url(#linear-gradient-31);}.cls-35{fill:url(#linear-gradient-32);}.cls-36{fill:url(#linear-gradient-33);}.cls-37{fill:#c28a73;}.cls-38{fill:#ce856b;}.cls-39{fill:#754d32;}.cls-40{fill:#3beaa2;}.cls-41{fill:url(#linear-gradient-34);}.cls-42{fill:url(#linear-gradient-35);}.cls-43{fill:url(#linear-gradient-36);}.cls-44{fill:url(#linear-gradient-37);}.cls-45{fill:url(#linear-gradient-38);}.cls-46{fill:url(#linear-gradient-39);}.cls-47{fill:url(#linear-gradient-40);}.cls-48{fill:url(#linear-gradient-41);}.cls-49{fill:url(#linear-gradient-42);}.cls-50{fill:url(#linear-gradient-43);}.cls-51{fill:#024e20;}.cls-52{fill:#944e23;}.cls-53{fill:#00c13e;}.cls-54{fill:url(#linear-gradient-44);}.cls-55{fill:#072a18;}.cls-56{fill:#022d12;}.cls-57{fill:#7be57f;}.cls-58{fill:url(#linear-gradient-45);}</style><clipPath id="clip-path" transform="translate(136.47 1)"><rect class="cls-1" width="2693" height="900"/></clipPath><linearGradient id="linear-gradient" x1="1255.23" y1="1479.87" x2="1589.27" y2="-171.5" gradientUnits="userSpaceOnUse"><stop offset="0.2" stop-color="#c5f7fd"/><stop offset="0.58" stop-color="#a7f7fd"/><stop offset="0.83" stop-color="#99f7fd"/></linearGradient><linearGradient id="linear-gradient-2" x1="1475.96" y1="824.45" x2="1487.22" y2="372.34" gradientUnits="userSpaceOnUse"><stop offset="0.31" stop-color="#61b2d4"/><stop offset="0.42" stop-color="#70c1da"/><stop offset="0.64" stop-color="#98e7eb"/><stop offset="0.76" stop-color="#b1fff6"/></linearGradient><linearGradient id="linear-gradient-3" x1="562.83" y1="106.95" x2="665.3" y2="4.4" gradientUnits="userSpaceOnUse"><stop offset="0.15" stop-color="#82cdd9"/><stop offset="0.82" stop-color="#d7eef4"/></linearGradient><linearGradient id="linear-gradient-4" x1="2029.43" y1="226.89" x2="2189.05" y2="67.16" gradientTransform="translate(-0.64 176.18) rotate(-5.17)" gradientUnits="userSpaceOnUse"><stop offset="0.25" stop-color="#adcff1"/><stop offset="0.39" stop-color="#b9d9f5"/><stop offset="0.76" stop-color="#d2f0fc"/><stop offset="0.98" stop-color="#dbf8ff"/></linearGradient><linearGradient id="linear-gradient-5" x1="1222.28" y1="144.87" x2="1367.45" y2="-0.41" gradientUnits="userSpaceOnUse"><stop offset="0.15" stop-color="#82cdd9"/><stop offset="0.9" stop-color="#d7eef4"/></linearGradient><linearGradient id="linear-gradient-6" x1="136.83" y1="888.81" x2="2830.11" y2="686.19" gradientUnits="userSpaceOnUse"><stop offset="0.03" stop-color="#a3c18e"/><stop offset="0.84" stop-color="#96cb73"/></linearGradient><linearGradient id="linear-gradient-7" x1="1975.4" y1="662.73" x2="1747.38" y2="-23.18" gradientUnits="userSpaceOnUse"><stop offset="0.09" stop-color="#6fe0f4"/><stop offset="0.42" stop-color="#6debf5"/><stop offset="0.96" stop-color="#6af9f7"/></linearGradient><linearGradient id="linear-gradient-8" x1="1030.44" y1="539.75" x2="823.93" y2="-120.74" gradientUnits="userSpaceOnUse"><stop offset="0.29" stop-color="#b5c8db"/><stop offset="0.45" stop-color="#a7c8dc"/><stop offset="0.66" stop-color="#98c7dd"/><stop offset="0.84" stop-color="#93c7dd"/></linearGradient><linearGradient id="linear-gradient-9" x1="70.5" y1="662.65" x2="735.96" y2="-31.42" gradientUnits="userSpaceOnUse"><stop offset="0.03" stop-color="#99a8e7"/><stop offset="0.21" stop-color="#8db5e4"/><stop offset="0.56" stop-color="#7bc7e0"/><stop offset="0.81" stop-color="#75cdde"/></linearGradient><linearGradient id="linear-gradient-10" x1="670.81" y1="771.11" x2="1258.69" y2="157.96" gradientUnits="userSpaceOnUse"><stop offset="0.03" stop-color="#42aac0"/><stop offset="0.3" stop-color="#55b9c1"/><stop offset="0.84" stop-color="#86e0c5"/></linearGradient><linearGradient id="linear-gradient-11" x1="88.05" y1="692.34" x2="639.02" y2="117.68" gradientUnits="userSpaceOnUse"><stop offset="0.03" stop-color="#50a3d6"/><stop offset="0.55" stop-color="#4bccd4"/><stop offset="1" stop-color="#47ebd3"/></linearGradient><linearGradient id="linear-gradient-12" x1="2006.7" y1="596.66" x2="2047.28" y2="226.52" gradientUnits="userSpaceOnUse"><stop offset="0.1" stop-color="#75c2e6"/><stop offset="0.47" stop-color="#7fcbdc"/><stop offset="0.85" stop-color="#8fd9cd"/></linearGradient><linearGradient id="linear-gradient-13" x1="1418.85" y1="422.36" x2="2726.3" y2="300.14" gradientTransform="matrix(1, 0.01, 0.01, -1, -2.51, 884.42)" gradientUnits="userSpaceOnUse"><stop offset="0.19" stop-color="#6dc4d2"/><stop offset="0.63" stop-color="#69bad1"/><stop offset="0.82" stop-color="#66b4d1"/></linearGradient><linearGradient id="linear-gradient-14" x1="836.02" y1="505.1" x2="831.69" y2="283.25" gradientUnits="userSpaceOnUse"><stop offset="0.26" stop-color="#9c5e58"/><stop offset="0.43" stop-color="#a46766"/><stop offset="0.64" stop-color="#aa6d70"/><stop offset="0.91" stop-color="#ac6f73"/></linearGradient><linearGradient id="linear-gradient-15" x1="798.37" y1="356.23" x2="890.45" y2="138.58" gradientUnits="userSpaceOnUse"><stop offset="0.23" stop-color="#17b7b8"/><stop offset="0.29" stop-color="#29bdba"/><stop offset="0.41" stop-color="#4ac9bd"/><stop offset="0.53" stop-color="#64d2c0"/><stop offset="0.65" stop-color="#76d8c2"/><stop offset="0.79" stop-color="#81dcc3"/><stop offset="0.93" stop-color="#85ddc3"/></linearGradient><linearGradient id="linear-gradient-16" x1="1746.44" y1="671.54" x2="1736.41" y2="158.03" gradientUnits="userSpaceOnUse"><stop offset="0.21" stop-color="#855643"/><stop offset="0.71" stop-color="#8e524c"/></linearGradient><linearGradient id="linear-gradient-17" x1="1887.33" y1="100.21" x2="1697.42" y2="443.42" gradientUnits="userSpaceOnUse"><stop offset="0.32" stop-color="#60e3bf"/><stop offset="0.44" stop-color="#49cab2"/><stop offset="0.64" stop-color="#2aa8a1"/><stop offset="0.74" stop-color="#1e9b9a"/></linearGradient><linearGradient id="linear-gradient-18" x1="1538.71" y1="218.2" x2="2060.24" y2="218.2" gradientUnits="userSpaceOnUse"><stop offset="0" stop-color="#56c071"/><stop offset="0.1" stop-color="#6ee4a5"/><stop offset="0.26" stop-color="#73eaab"/><stop offset="0.46" stop-color="#7df9b8"/><stop offset="0.63" stop-color="#7bf6b6"/><stop offset="0.86" stop-color="#77f0af"/><stop offset="0.93" stop-color="#75eead"/><stop offset="0.96" stop-color="#6fe7a7"/><stop offset="0.98" stop-color="#63dc9c"/><stop offset="0.99" stop-color="#53cb8c"/><stop offset="1" stop-color="#49c183"/><stop offset="1" stop-color="#65ff71"/><stop offset="1" stop-color="#78f5b5"/></linearGradient><linearGradient id="linear-gradient-19" x1="2168.22" y1="160.7" x2="1960.19" y2="446.38" gradientUnits="userSpaceOnUse"><stop offset="0.09" stop-color="#6fc2f4"/><stop offset="0.14" stop-color="#6fc5f4"/><stop offset="0.68" stop-color="#6bebf6"/><stop offset="0.96" stop-color="#6af9f7"/></linearGradient><linearGradient id="linear-gradient-20" x1="2086.57" y1="155.94" x2="2030.12" y2="493.93" gradientUnits="userSpaceOnUse"><stop offset="0.38" stop-color="#6aeaf0"/><stop offset="0.53" stop-color="#54c1d2"/><stop offset="0.67" stop-color="#43a2bc"/><stop offset="0.74" stop-color="#3d97b4"/></linearGradient><linearGradient id="linear-gradient-21" x1="1425.1" y1="410.17" x2="1577.64" y2="265.7" gradientUnits="userSpaceOnUse"><stop offset="0.01" stop-color="#1a8b84"/><stop offset="0.17" stop-color="#239a8f"/><stop offset="0.48" stop-color="#3bc2ad"/><stop offset="0.89" stop-color="#5fffda"/></linearGradient><linearGradient id="linear-gradient-22" x1="1427.3" y1="409.27" x2="1576.28" y2="268.17" gradientUnits="userSpaceOnUse"><stop offset="0.15" stop-color="#10828e"/><stop offset="0.38" stop-color="#149199"/><stop offset="0.81" stop-color="#20b8b5"/><stop offset="0.96" stop-color="#24c7c0"/></linearGradient><linearGradient id="linear-gradient-23" x1="1548.9" y1="266.85" x2="1546.46" y2="142.07" gradientUnits="userSpaceOnUse"><stop offset="0.27" stop-color="#10aab8"/><stop offset="0.88" stop-color="#0eabb6"/></linearGradient><linearGradient id="linear-gradient-24" x1="1498.06" y1="215.55" x2="1597.75" y2="215.55" gradientUnits="userSpaceOnUse"><stop offset="0.27" stop-color="#34af7e"/><stop offset="0.72" stop-color="#31ac78"/><stop offset="0.88" stop-color="#2faa74"/></linearGradient><linearGradient id="linear-gradient-25" x1="1799.86" y1="392.69" x2="1781.45" y2="193.12" gradientUnits="userSpaceOnUse"><stop offset="0.01" stop-color="#1a8b84"/><stop offset="0.1" stop-color="#28a295"/><stop offset="0.26" stop-color="#3cc4ae"/><stop offset="0.42" stop-color="#4bdec1"/><stop offset="0.58" stop-color="#56f0cf"/><stop offset="0.75" stop-color="#5dfbd7"/><stop offset="0.94" stop-color="#5fffda"/></linearGradient><linearGradient id="linear-gradient-26" x1="1722.04" y1="619.44" x2="1861.37" y2="89.84" gradientUnits="userSpaceOnUse"><stop offset="0.35" stop-color="#1a8b84"/><stop offset="0.58" stop-color="#39bfaa"/><stop offset="0.85" stop-color="#5fffda"/></linearGradient><linearGradient id="linear-gradient-27" x1="731.46" y1="521.88" x2="725.84" y2="233.79" xlink:href="#linear-gradient-14"/><linearGradient id="linear-gradient-28" x1="718.93" y1="401.43" x2="771.44" y2="257.09" gradientUnits="userSpaceOnUse"><stop offset="0.15" stop-color="#12a3a7"/><stop offset="0.33" stop-color="#2cb8b8"/><stop offset="0.63" stop-color="#52d6d1"/><stop offset="0.79" stop-color="#61e1db"/></linearGradient><linearGradient id="linear-gradient-29" x1="2292.83" y1="760.65" x2="2507.36" y2="383.39" gradientUnits="userSpaceOnUse"><stop offset="0.22" stop-color="#2eb78f"/><stop offset="0.34" stop-color="#36bd96"/><stop offset="0.53" stop-color="#4ccfa8"/><stop offset="0.7" stop-color="#65e2bc"/></linearGradient><linearGradient id="linear-gradient-30" x1="2188.4" y1="793.48" x2="2411.98" y2="400.32" gradientUnits="userSpaceOnUse"><stop offset="0.13" stop-color="#29b188"/><stop offset="0.26" stop-color="#2db389"/><stop offset="0.39" stop-color="#38ba8c"/><stop offset="0.51" stop-color="#4bc491"/><stop offset="0.63" stop-color="#65d398"/><stop offset="0.7" stop-color="#76dd9d"/></linearGradient><linearGradient id="linear-gradient-31" x1="1814.15" y1="786.98" x2="2086.09" y2="412.26" gradientUnits="userSpaceOnUse"><stop offset="0.02" stop-color="#10a159"/><stop offset="0.25" stop-color="#12a45a"/><stop offset="0.39" stop-color="#17ac5e"/><stop offset="0.5" stop-color="#20bb64"/><stop offset="0.61" stop-color="#2ccf6d"/><stop offset="0.65" stop-color="#33da71"/></linearGradient><linearGradient id="linear-gradient-32" x1="639.33" y1="602.65" x2="678.34" y2="774.3" gradientUnits="userSpaceOnUse"><stop offset="0.02" stop-color="#3f9e92"/><stop offset="0.88" stop-color="#46a89c"/></linearGradient><linearGradient id="linear-gradient-33" x1="287.25" y1="689.66" x2="280.16" y2="326.06" gradientUnits="userSpaceOnUse"><stop offset="0" stop-color="#907d61"/><stop offset="0.43" stop-color="#776b59"/><stop offset="0.76" stop-color="#686054"/></linearGradient><linearGradient id="linear-gradient-34" x1="270.48" y1="446.96" x2="472.42" y2="-49.98" gradientUnits="userSpaceOnUse"><stop offset="0.22" stop-color="#55ca93"/><stop offset="0.4" stop-color="#58cc9a"/><stop offset="0.73" stop-color="#5ccfa2"/></linearGradient><linearGradient id="linear-gradient-35" x1="677.31" y1="239.83" x2="482.19" y2="507.77" gradientUnits="userSpaceOnUse"><stop offset="0.3" stop-color="#59c587"/><stop offset="0.67" stop-color="#57b479"/></linearGradient><linearGradient id="linear-gradient-36" x1="9.64" y1="406.83" x2="151.86" y2="272.15" gradientUnits="userSpaceOnUse"><stop offset="0.23" stop-color="#2fac76"/><stop offset="0.54" stop-color="#31ad79"/><stop offset="0.74" stop-color="#36b281"/><stop offset="0.88" stop-color="#3db98e"/></linearGradient><linearGradient id="linear-gradient-37" x1="93.71" y1="325" x2="89.85" y2="127.5" gradientUnits="userSpaceOnUse"><stop offset="0.18" stop-color="#63c28e"/><stop offset="0.6" stop-color="#63c091"/></linearGradient><linearGradient id="linear-gradient-38" x1="262.7" y1="458.64" x2="472.68" y2="176.46" gradientUnits="userSpaceOnUse"><stop offset="0.09" stop-color="#39a57e"/><stop offset="0.77" stop-color="#72e39c"/></linearGradient><linearGradient id="linear-gradient-39" x1="619.82" y1="645.74" x2="1037.69" y2="516.44" gradientUnits="userSpaceOnUse"><stop offset="0.03" stop-color="#219f68"/><stop offset="0.45" stop-color="#32be77"/><stop offset="0.87" stop-color="#42d984"/></linearGradient><linearGradient id="linear-gradient-40" x1="523.98" y1="681.69" x2="921.8" y2="558.59" gradientUnits="userSpaceOnUse"><stop offset="0.03" stop-color="#219f68"/><stop offset="0.84" stop-color="#3fe28c"/><stop offset="0.94" stop-color="#43ea90"/></linearGradient><linearGradient id="linear-gradient-41" x1="-51.08" y1="731.83" x2="224.94" y2="530.67" gradientUnits="userSpaceOnUse"><stop offset="0.41" stop-color="#40c4a6"/><stop offset="0.68" stop-color="#54cfa1"/><stop offset="0.89" stop-color="#66da9c"/></linearGradient><linearGradient id="linear-gradient-42" x1="1462.55" y1="867.25" x2="1512.46" y2="412.01" gradientUnits="userSpaceOnUse"><stop offset="0.1" stop-color="#4f5a73"/><stop offset="0.85" stop-color="#4f5a73"/></linearGradient><linearGradient id="linear-gradient-43" x1="531.74" y1="1026.47" x2="2043.68" y2="677.49" gradientUnits="userSpaceOnUse"><stop offset="0.02" stop-color="#024e20"/><stop offset="0.82" stop-color="#024e20"/><stop offset="0.94" stop-color="#024e20"/></linearGradient><linearGradient id="linear-gradient-44" x1="1942.78" y1="723.77" x2="2004.58" y2="673.47" gradientUnits="userSpaceOnUse"><stop offset="0.18" stop-color="#108937"/><stop offset="0.32" stop-color="#109730"/><stop offset="0.72" stop-color="#11b81f"/><stop offset="0.94" stop-color="#11c418"/></linearGradient><linearGradient id="linear-gradient-45" x1="1679.9" y1="659.09" x2="1774.68" y2="581.94" gradientTransform="translate(96.07 -223.06) rotate(7.6)" xlink:href="#linear-gradient-44"/></defs><g class="cls-2"><rect class="cls-3" x="136.47" width="2693" height="708"/><rect class="cls-4" x="136.47" y="426" width="2693" height="234"/><path class="cls-5" d="M559.81,48.45S561.93,35,588.75,25.86s49.41-14.11,72.7-3.52,18.36,34.58,13.42,37.41c-9.6,5.48-30.26,12.68-85.41,5.64C556.28,61.16,559.81,48.45,559.81,48.45Z" transform="translate(136.47 1)"/><path class="cls-6" d="M2027.91,117.17s6.62-26.7,56.51-41.25,82.4-21.51,110.9,5,15.33,69.58-4.3,74.53-101.75,7.35-151.63-11.23C2039.39,144.25,2021.56,135.82,2027.91,117.17Z" transform="translate(136.47 1)"/><path class="cls-7" d="M1218,62s3-19,41-32,70-20,103-5,26,49,19,53c-13.59,7.77-42.86,18-121,8C1213,80,1218,62,1218,62Z" transform="translate(136.47 1)"/><rect class="cls-8" x="136.47" y="691" width="2694" height="193"/><path class="cls-9" d="M1073,210s60-71,109-67,82,21.5,158,117.25S1440,443,1548,420s325-185,462-188,180,19.57,287,51.28S2511,233,2511,233s71-91,183-60l-1,305L1326,456l-321-61Z" transform="translate(136.47 1)"/><path class="cls-10" d="M658.43,269.76S719,265,757,189,859,21,977,47s224,320,224,320l20,26s35.72-45.64,58-45c21,.6,61,12,73,130L658.43,467,623,285.5Z" transform="translate(136.47 1)"/><path class="cls-11" d="M0,189s63,4,99-30S207,0,207,0H547s96,168,117,298,19,273,19,273H0Z" transform="translate(136.47 1)"/><path class="cls-12" d="M553,416s130,3,192-8,167-21,210-73,55-113,121-114,135,66,170,145,57,174,51,230l-795-8Z" transform="translate(136.47 1)"/><path class="cls-13" d="M0,317s174,9,282-121c0,0,56-90,122-85,62.22,4.71,187,86.78,226,338.89,0,0,11,108.11,6,138.11H0Z" transform="translate(136.47 1)"/><path class="cls-14" d="M1335,515l1359,21V411s-112,12-215-6-182-38-246-69-181.44-46.78-345,61c-129,85-290,85-338,82a60.7,60.7,0,0,1-35-11c-17-12-38-6-45,14s-31,1-31,1-19-10-45,6S1367,511,1335,515Z" transform="translate(136.47 1)"/><path class="cls-15" d="M1338.17,521.1,2694,536l-1,45s-118-13.23-221-11-177.09-8.92-241.13-4.25-181.49,6.43-344.92-12.59c-128.89-15-289.89-16.17-337.89-16a323.88,323.88,0,0,0-35,1.57c-17,1.86-38,.72-45-2.64s-31-.39-31-.39a395.78,395.78,0,0,1-45-1.32C1361.09,531.81,1370.16,522,1338.17,521.1Z" transform="translate(136.47 1)"/><path class="cls-16" d="M782.68,284.57A120.3,120.3,0,0,0,792.42,314c4.52,9.38,7.9,16.21,15.33,22.19a46,46,0,0,0,20.5,9.22V286.51l15.16.53V323.3s33.4,4.63,38-34.89h4.63s4,45.14-42,50.42L841,505H827l.59-137.08a96,96,0,0,1-28.24-23.26c-19.57-23.84-21.69-50.46-22-60.35q1.43,0,3,.09C781.15,284.44,781.93,284.5,782.68,284.57Z" transform="translate(136.47 1)"/><path class="cls-17" d="M725.48,217.23s142.63-52.58,228.67,0c82.94,55.68,24,71.18-51.16,71.18-76-.77-169-6.41-169-6.41S630.91,266.2,725.48,217.23Z" transform="translate(136.47 1)"/><path class="cls-18" d="M1896,644.18c2.48-7.27-8.5-15.24-19.89-31.58-22.37-32.08-26.74-68.29-26.23-96.38,0,0-1.95-37.68,11-56.52A299.64,299.64,0,0,0,1883,421.38s45.47,1.95,49.37,0,14.94-11.22,13-35.17l.65-5.76-11.69,3.09s-3.6,21.48-18.57,23.14c-17.86,2.33-38.27-8-35.28-23.14h-13s4,44.11-15.64,53.42c-14.65,3.66-23.3-2.13-22.63-27.95l.66-25.82-23.29,0s1.33,27.45,0,29.11S1794.94,431,1784,396c-9.31-24.62-4-12.76-4-12.76l-12.65.27s5.66,27.14,24.3,44.11c12.31,16.3,12.64,43.59,3.32,53.24-10,9.65-27,15-39.93-42.26-8.65-37.94-11-55.09-11-55.09l-18-.18s7.32,45.28,6,53.27c-1.66,9-2.33,36.6-41.59,25-20.39-2.84-61.21-13-78.2-43.59-6.33-26-5-35.94-5-35.94l-14.63-.36s.33,15,3.32,19a49.5,49.5,0,0,1-26.12-5.41,50.41,50.41,0,0,1-22.8-25.13l-11.73-.45a65.19,65.19,0,0,0,11.84,19.57c11.58,13.1,27.68,20.33,39.49,22.07,2.36.35,11.67,1.53,11.63,1.9,0,.1-.65.1-.65.1s3,39.26,49.92,57.23c41.93,15.64,60.23,23.63,70.88,29.95s18,13,16.3,34.61a169.22,169.22,0,0,0,26,107.48C1864.83,659.88,1892.58,654.17,1896,644.18Z" transform="translate(136.47 1)"/><path class="cls-19" d="M1849.24,510.59a90.41,90.41,0,0,0-28.26,25c-31.84,43.57-10.18,100.88-7.71,107.1l84.08,1.52a253.53,253.53,0,0,1-16.18-25.53C1859.09,578.69,1851.59,539.66,1849.24,510.59Z" transform="translate(136.47 1)"/><path class="cls-20" d="M1752.31,428.15s15.58,57.7,27.8,57.28C1767.47,491.33,1743.88,475.32,1752.31,428.15Z" transform="translate(136.47 1)"/><path class="cls-21" d="M1839.5,580a25.13,25.13,0,0,1-4.33.54,12.07,12.07,0,0,1-4.34-.53,4.53,4.53,0,0,1-1.88-1.2,3.65,3.65,0,0,1-.88-2.06,9,9,0,0,1,1-4.31,30.08,30.08,0,0,1,5-7.24,28.8,28.8,0,0,1,6.81-5.56,11.64,11.64,0,0,1,4.21-1.53,5.7,5.7,0,0,1,2.32.15l.57.18.52.3a3.64,3.64,0,0,1,.94.71,9.4,9.4,0,0,1,2.29,3.9,19.82,19.82,0,0,1,.87,4.36,47.09,47.09,0,0,1-2.25,17.37l0,.06,0,.05a60.77,60.77,0,0,1-5.55,7.69,38.17,38.17,0,0,1-6.94,6.49,17.82,17.82,0,0,1-4.23,2.29,8.54,8.54,0,0,1-4.86.48,7.42,7.42,0,0,1-4-2.8,15.81,15.81,0,0,1-2.24-4.26,38.39,38.39,0,0,1-2-9.26,60.76,60.76,0,0,1-.22-9.44l.9-18.81-.4,18.82a60.92,60.92,0,0,0,.37,9.36,37.11,37.11,0,0,0,2.09,9,15.6,15.6,0,0,0,2.17,4,6.54,6.54,0,0,0,3.54,2.47,7.7,7.7,0,0,0,4.35-.47,17,17,0,0,0,4-2.2,37.29,37.29,0,0,0,6.74-6.37,65.65,65.65,0,0,0,5.44-7.57l-.05.11a46.45,46.45,0,0,0,2.3-17,20.24,20.24,0,0,0-.81-4.17,8.78,8.78,0,0,0-2-3.55,4.42,4.42,0,0,0-3.68-1.16,11.25,11.25,0,0,0-3.94,1.38,28,28,0,0,0-6.72,5.33,30.29,30.29,0,0,0-5,7,8.45,8.45,0,0,0-1,4.07,3.29,3.29,0,0,0,.76,1.9,4.3,4.3,0,0,0,1.73,1.16,12.14,12.14,0,0,0,4.25.63A26.32,26.32,0,0,0,1839.5,580Z" transform="translate(136.47 1)"/><path class="cls-22" d="M1539.75,256.91c3.28-22.49,11.92-56.43,37.9-84.15,68.06-72.64,197.51-41.07,247.6-28.86C1931.47,169.8,2013,228.12,2052,269c5,2,12,19,2.58,19.27h0s-258.73,23.63-270.71,21.48-232.13-21.48-232.13-21.48Z" transform="translate(136.47 1)"/><path class="cls-23" d="M1971.86,263.79s108.49-24.12,156.58,49.33c31.32,57,36.91,75.49-156.58,65.15C1939.15,287,1971.86,263.79,1971.86,263.79Z" transform="translate(136.47 1)"/><path class="cls-24" d="M1981,269.41s104.15-23.62,150.32,48.31c30.06,55.83,35.43,73.94-150.32,63.81C1949.63,292.14,1981,269.41,1981,269.41Z" transform="translate(136.47 1)"/><path class="cls-25" d="M1541.6,370c-3.2,0-95.9-6.4-95.9-6.4s-57.54-11.72-24.51-40.5a54.83,54.83,0,0,0,20.89-17.45c6.58-9.42,4.82-14,9-22.72,13.29-27.48,57.89-36.84,57.89-36.84h0c-1,2.16,61.44-11.62,105.49,11.67,5,2.65,7.48,4.09,9.4,6.56C1644.69,291.25,1580,370,1580,370Z" transform="translate(136.47 1)"/><path class="cls-26" d="M1541.08,370c-3.12,0-93.66-6.25-93.66-6.25s-56.2-11.44-23.94-39.54a53.57,53.57,0,0,0,20.4-17c6.43-9.2,4.71-13.72,8.81-22.19,13-26.83,56.54-36,56.54-36h0s59.08-11.83,103,11.4c4.9,2.59,7.32,4,9.18,6.4,20.33,26.29-42.89,103.19-42.89,103.19Z" transform="translate(136.47 1)"/><path class="cls-27" d="M1503.65,208.11s8.59-19,67.65-9.36c54.75,11.81,12.88,41.88-33.83,35.44S1495.84,214.72,1503.65,208.11Z" transform="translate(136.47 1)"/><path class="cls-28" d="M1545,299s53.11-42.57,108.79-59.26c60.81-25,141.33-80.95,239-55.08,75.37,24.2,131.91,57.58,165.31,119.34,16.28,35.89,18.85,79.29-105.35,73.45l-346,.53S1471.29,368.29,1545,299Z" transform="translate(136.47 1)"/><path class="cls-29" d="M1541.79,303.75s54-42.62,110.55-59.33c61.8-25.07,143.62-81.07,242.85-55.16,76.6,24.24,134,57.66,168,119.5,16.53,35.94,19.15,79.39-107.07,73.54l-351.66.53S1466.93,373.11,1541.79,303.75Z" transform="translate(136.47 1)"/><path class="cls-20" d="M1946,384.21s1.66,24.87-10,34.54c-3.49,3.38-6.25,3.29-10.42,3.38,0,0,11.64-3.8,14.54-16.47a118.38,118.38,0,0,0,3-22.24H1946Z" transform="translate(136.47 1)"/><path class="cls-20" d="M1829.88,383.19c-.46,4.36-.69,19.53-.5,22.48.8,12.93,1.72,27.66,10.11,31.46a11.6,11.6,0,0,0,6.3.8l3.18-.36c-3.91,4.82-7.4,5.23-8.53,5.28-6.94.33-15.06-8.68-17-23.2a88.3,88.3,0,0,1-1.4-20.86c.32-5.79,1.48-15.6,1.48-15.6h6.4Z" transform="translate(136.47 1)"/><path class="cls-30" d="M673.86,370a40.55,40.55,0,0,0,7.5,22.3c11.77,16.08,31.43,15.58,33.52,15.49l-.64-35.69,12.11.54v19.75a25,25,0,0,0,15.43-2c10.08-4.87,13.3-15,13.83-16.71l5.06.15q-1.54,4.86-3.07,9.72a18.67,18.67,0,0,0,13.87,2.06c8.69-2.25,12.26-10.24,12.68-11.24h3.77s-2.45,22.53-32,15c-5.38,7.89-18,16.3-29.59,12.09.67,24.49,4.57,120.38,4.57,120.38H717.25l-2.37-105.14a47.65,47.65,0,0,1-32.45-15.1c-12.11-13.07-13.14-28.64-13.29-32.45Z" transform="translate(136.47 1)"/><path class="cls-31" d="M657.8,319.14s104.55-40.82,167.62,0C879,359,824,376,787.92,374.41c-55.68-.6-123.87-5-123.87-5S588.48,357.16,657.8,319.14Z" transform="translate(136.47 1)"/><path class="cls-32" d="M2122,548s1-62,47-70,75,22.9,75,22.9,11-30.9,44-34.9,58.93,29,58.93,29S2415,478,2420,527c0,0,60-21,71,40,0,0,43-7,49,35,0,0,80-12,68,34,0,0,63-10,42,33H2188Z" transform="translate(136.47 1)"/><path class="cls-33" d="M2045.79,663S2065,533,2103,527s66,22,66,22,10-46,44-48,60,26,60,26,46-16,64,10,9.93,66,9.93,66S2411,575,2443,637c0,0,60-16,68,26l-100,16H2045.79Z" transform="translate(136.47 1)"/><path class="cls-34" d="M1669,667s16-24,71-14c0,0,10,4,7-12-2.58-13.76.87-32.63,31-22,17,6,31,20,31,20s4,3,0-9,1-22,16-22,29,10,29,10,10-18,36-20,38,6,38,6,6-25.12,38-27c17-1,32,14,32,14s40-7,71,23c0,0,7-12,24-10s32,29,39,54v11Z" transform="translate(136.47 1)"/><path class="cls-35" d="M1297,596s3.5,34.5-24,53-236.9,41.52-236.9,41.52L0,690V588Z" transform="translate(136.47 1)"/><path class="cls-36" d="M427.38,666.58c.31-.81-2.18-2.08-4.31-5.12a19.09,19.09,0,0,1-2.85-6.94c-1.87-7.29-9.12-16.11-11.51-19.37-7.6-10.35-11.18-25.88-17.12-51.64a382.37,382.37,0,0,1-7.5-44.26c-.43-25.69,3.1-45.06,10.36-56.23a303,303,0,0,0,20.73-38.13s42.69,1.94,46.34,0,14-11.16,12.2-35l.61-5.73-11,3.07s-3.37,21.37-17.43,23c-16.76,2.31-35.92-8-33.11-23H400.63s3.75,43.89-14.68,53.16c-13.74,3.64-21.86-2.12-21.24-27.82l.63-25.69-21.87,0s1.25,27.31,0,29-10.93,18.54-21.24-16.23c-8.74-24.5-3.75-12.7-3.75-12.7l-11.86.27s5.31,27,22.8,43.89c11.55,16.22,11.87,43.37,3.12,53-9.37,9.6-25.3,14.9-37.48-42.05-8.12-37.74-10.31-54.81-10.31-54.81l-16.87-.18s6.88,45.06,5.63,53c-1.57,8.94-2.19,36.42-39,24.83-19.13-2.82-57.45-12.95-73.4-43.38-5.93-25.82-4.68-35.75-4.68-35.75l-13.74-.36s.31,14.92,3.12,18.9a44.22,44.22,0,0,1-24.52-5.39c-14.15-7.83-19.86-21.07-21.4-25l-11-.45a65.64,65.64,0,0,0,11.12,19.47c10.87,13,26,20.23,37.07,22,2.21.35,11,1.52,10.92,1.89,0,.1-.61.1-.61.1s2.81,39.07,46.85,56.95c39.36,15.56,56.54,23.51,66.53,29.8s16.87,12.91,15.31,34.43a178.3,178.3,0,0,0,2.81,51.49A174.33,174.33,0,0,0,300.37,665c33.82,1.12,55.53,1.23,69.46,1.1,27.93-.27,43.83-1.72,52.19.33C422.06,666.45,427,667.65,427.38,666.58Z" transform="translate(136.47 1)"/><path class="cls-37" d="M383.5,533.65A86.59,86.59,0,0,0,357,558.49c-29.89,43.35-9.55,100.37-7.24,106.56l78.92,1.52a256.56,256.56,0,0,1-15.18-25.41C392.75,601.41,385.71,562.58,383.5,533.65Z" transform="translate(136.47 1)"/><path class="cls-38" d="M292.52,451.63s14.63,57.41,26.09,57C306.75,514.49,284.61,498.56,292.52,451.63Z" transform="translate(136.47 1)"/><path class="cls-39" d="M374.36,602.71a22.07,22.07,0,0,1-4.21.55,10.1,10.1,0,0,1-4.2-.66,4,4,0,0,1-1.69-1.34,3.6,3.6,0,0,1-.64-2.08,9.85,9.85,0,0,1,1-4.17,30.16,30.16,0,0,1,4.67-7.13,27.07,27.07,0,0,1,6.51-5.55,10.1,10.1,0,0,1,4.14-1.41,5.05,5.05,0,0,1,2.26.34,9,9,0,0,1,1,.6,10.21,10.21,0,0,1,.81.8,10.35,10.35,0,0,1,1.91,4c.23.69.31,1.41.47,2.11s.21,1.43.24,2.14a49.76,49.76,0,0,1-2.14,16.9v0l0,.05a59.65,59.65,0,0,1-5.22,7.68,36.93,36.93,0,0,1-6.63,6.53,16.68,16.68,0,0,1-4.13,2.3,7.27,7.27,0,0,1-4.79.23,7.45,7.45,0,0,1-3.62-3.15,18.08,18.08,0,0,1-1.95-4.27,43.06,43.06,0,0,1-1.73-9.12,66.29,66.29,0,0,1-.15-9.24l.84-18.42-.35,18.43A65.22,65.22,0,0,0,357,608a40.91,40.91,0,0,0,1.83,8.94,18.18,18.18,0,0,0,1.91,4.06,6.64,6.64,0,0,0,3.21,2.8,6.41,6.41,0,0,0,4.22-.25,15.81,15.81,0,0,0,3.89-2.2c4.83-3.66,8.46-8.74,11.56-14l-.05.1a48.81,48.81,0,0,0,2.19-16.56c0-.7-.16-1.38-.23-2.07a16.87,16.87,0,0,0-.44-2,9.43,9.43,0,0,0-1.72-3.64,7.49,7.49,0,0,0-.69-.69c-.26-.19-.54-.35-.81-.51a4.16,4.16,0,0,0-1.89-.3,9.22,9.22,0,0,0-3.83,1.26,26.09,26.09,0,0,0-6.42,5.31,30.89,30.89,0,0,0-4.7,6.93,9.53,9.53,0,0,0-1.07,4,3.43,3.43,0,0,0,.53,1.93,3.76,3.76,0,0,0,1.56,1.28,9.78,9.78,0,0,0,4.09.74A22.09,22.09,0,0,0,374.36,602.71Z" transform="translate(136.47 1)"/><path class="cls-40" d="M73,279.17c3.4-24.77,12.34-62.15,39.24-92.68C184.92,104,324.11,142.38,368.63,154.7,478.55,185.12,549.79,258,584.69,300.49L602,314.11a1427.33,1427.33,0,0,1-276.22,23.26A1427.08,1427.08,0,0,1,85.41,313.71Z" transform="translate(136.47 1)"/><path class="cls-41" d="M74,277.78C77.34,254,86.19,218,112.81,188.57c71.92-79.42,209.65-42.46,253.71-30.6,108.77,29.28,179.26,99.48,213.79,140.34l17.13,13.11a1450.88,1450.88,0,0,1-273.33,22.4A1451.47,1451.47,0,0,1,86.26,311Z" transform="translate(136.47 1)"/><path class="cls-40" d="M523.37,291.63S624,268.51,668.64,338.93c29.05,54.64,34.24,72.37-145.27,62.45C493,313.89,523.37,291.63,523.37,291.63Z" transform="translate(136.47 1)"/><path class="cls-42" d="M526,293.68s97.75-23.5,141.09,48.07c28.22,55.56,33.26,73.57-141.09,63.49C496.51,316.3,526,293.68,526,293.68Z" transform="translate(136.47 1)"/><path class="cls-40" d="M95,392c-3,0-91-6.19-91-6.19s-54.61-11.36-23.26-39.23A52.28,52.28,0,0,0,.53,329.68c6.25-9.13,4.58-13.61,8.56-22C21.71,281.05,64,272,64,272h0s57.41-11.74,100.12,11.3c4.77,2.57,7.11,4,8.92,6.36C192.84,315.73,131.4,392,131.4,392Z" transform="translate(136.47 1)"/><path class="cls-43" d="M94.25,393.79c-2.93,0-87.91-6.22-87.91-6.22s-52.75-11.39-22.47-39.34A51.11,51.11,0,0,0,3,331.27c6-9.15,4.42-13.64,8.27-22.07,12.19-26.7,53.07-35.79,53.07-35.79h0s55.45-11.78,96.71,11.34c4.6,2.57,6.86,4,8.61,6.37,19.09,26.16-40.26,102.67-40.26,102.67Z" transform="translate(136.47 1)"/><path class="cls-40" d="M50.35,239.38s8.32-19.47,65.52-9.58c53,12.1,12.47,42.88-32.76,36.28S42.79,246.16,50.35,239.38Z" transform="translate(136.47 1)"/><path class="cls-44" d="M50.67,240.65s8.07-18.92,63.5-9.31c51.39,11.75,12.09,41.66-31.75,35.25S43.34,247.23,50.67,240.65Z" transform="translate(136.47 1)"/><path class="cls-40" d="M99.7,321.6s50.07-41.72,102.57-58.07c57.35-24.54,133.27-79.34,225.34-54C498.68,233.26,552,266,583.49,326.5c15.34,35.17,17.77,77.7-99.34,72l-326.3.52S30.24,389.48,99.7,321.6Z" transform="translate(136.47 1)"/><path class="cls-45" d="M94.92,327.85s50.65-42.41,103.76-59c58-24.94,134.81-80.65,228-54.87,71.9,24.11,125.82,57.37,157.68,118.9,15.53,35.75,18,79-100.49,73.17l-330.08.53S24.65,396.86,94.92,327.85Z" transform="translate(136.47 1)"/><path class="cls-38" d="M474.33,407.9s1.56,24.76-9.42,34.37c-3.28,3.37-5.87,3.28-9.79,3.37a22.79,22.79,0,0,0,13.65-16.39,125.13,125.13,0,0,0,2.86-22.13h2.7Z" transform="translate(136.47 1)"/><path class="cls-38" d="M365.34,406.89c-.44,4.34-.65,19.43-.48,22.37.76,12.86,1.62,27.52,9.49,31.3a10.28,10.28,0,0,0,5.92.79l3-.35c-3.67,4.8-6.95,5.21-8,5.26-6.52.32-14.14-8.65-16-23.09a93.27,93.27,0,0,1-1.31-20.76c.3-5.76,1.39-15.52,1.39-15.52h6Z" transform="translate(136.47 1)"/><path class="cls-46" d="M601,551s-19.06-65.15,29-83c35-13,49,6,49,6s24-27.22,54-24.11S791,484,791,484s63-18,83,7c0,0,10,9.56,4,22.78,0,0,86-24.78,95,37.22,0,0,51-6.22,60,36.89,0,0,103.36-18.94,86.68,35.09,0,0,77.32-1,54.32,26l-69,19.57L612,631Z" transform="translate(136.47 1)"/><path class="cls-47" d="M517,646s-46-37,32-52c0,0-26-27,0-50,0,0,19-19,52-7,0,0,38-40,91-15,0,0,47-15,78,3s20,54.89,20,54.89S841,563,863,584c0,0,49-1,54,26,0,0,78-15,77,22,0,0,64-4,50,19l-24,11-492-9Z" transform="translate(136.47 1)"/><path class="cls-48" d="M-123.27,632.16s-45.07-38.94,31.34-54.73c0,0-25.47-28.42,0-52.62,0,0,18.62-20,51-7.37,0,0,37.22-42.1,89.14-15.79,0,0,46.05-15.79,76.42,3.16s19.59,57.77,19.59,57.77,50-17.78,71.51,4.33c0,0,48-1.06,52.9,27.36,0,0,76.42-15.79,75.44,23.16,0,0,48-9.43,49,20L388.1,649H-114.46Z" transform="translate(136.47 1)"/><rect class="cls-49" x="136.47" y="650" width="2693" height="62"/><path class="cls-50" d="M-1.5,776.5s179-11,456,16,617,63,736,64,313,6,442-68S2694,774.28,2694,774.28V900.44H0Z" transform="translate(136.47 1)"/><path class="cls-51" d="M127,776s-29-34-39-36,4-22,33,7C121,747,130,761,127,776Z" transform="translate(136.47 1)"/><path class="cls-51" d="M134.5,776s-12.1-59-28.3-85,16.8-17,28.3,27S134.5,776,134.5,776Z" transform="translate(136.47 1)"/><path class="cls-51" d="M143.5,776s4.5-52,39.5-56S158,740,143.5,776Z" transform="translate(136.47 1)"/><path class="cls-51" d="M295.67,783S300,749,330,746,295.67,783,295.67,783Z" transform="translate(136.47 1)"/><path class="cls-51" d="M499,799s-35-23-24.5-41.86C483,741.88,499,799,499,799Z" transform="translate(136.47 1)"/><path class="cls-51" d="M508.5,799S488,773,499,759.5,508.5,799,508.5,799Z" transform="translate(136.47 1)"/><path class="cls-51" d="M1179,859s-36-8-35-30S1179,859,1179,859Z" transform="translate(136.47 1)"/><path class="cls-51" d="M1188,859s-20-55-35-69,26-15.14,35,42.43Z" transform="translate(136.47 1)"/><path class="cls-51" d="M1196.5,864s-10.09-42.79,27.5-45C1241,818,1196.5,864,1196.5,864Z" transform="translate(136.47 1)"/><path class="cls-51" d="M1552,836.49s-20-15.34-43.5-12.92S1502,803,1534,816C1534,816,1551,823,1552,836.49Z" transform="translate(136.47 1)"/><path class="cls-51" d="M1571,826.36S1545,815,1549,797,1571,826.36,1571,826.36Z" transform="translate(136.47 1)"/><path class="cls-51" d="M1584,817s-23-37-13-48S1590,803,1584,817Z" transform="translate(136.47 1)"/><path class="cls-51" d="M1604.5,809.64S1569.27,768.2,1592,736C1604,719,1604.5,809.64,1604.5,809.64Z" transform="translate(136.47 1)"/><path class="cls-51" d="M1610,806s-6-54,0-59,23,11.67,13.5,35C1617,798,1610,806,1610,806Z" transform="translate(136.47 1)"/><path class="cls-51" d="M1635,820s.88-63.28,41-80c12-5-7,9.4-23,55.2,0,0-3,10.7-2.5,13.75s26.5-55,43.5-58c0,0-33,49.11-36.5,66.06C1657.5,817.06,1646,854,1635,820Z" transform="translate(136.47 1)"/><path class="cls-51" d="M1750.17,776.76s10.93-39.7,33.53-42.74S1762.18,775.94,1750.17,776.76Z" transform="translate(136.47 1)"/><path class="cls-51" d="M2147,756s-14-14.06-41-17.53S2135,720,2155,756C2155,756,2164,772,2147,756Z" transform="translate(136.47 1)"/><path class="cls-51" d="M2158.5,777s-10.5-67-20.5-77S2176,711,2158.5,777Z" transform="translate(136.47 1)"/><path class="cls-51" d="M2164.5,765s-.5-55.82,21-64.41S2173,737,2164.5,765Z" transform="translate(136.47 1)"/><path class="cls-51" d="M2173.5,765s13.5-64,46.5-65.48S2194,723,2173.5,765Z" transform="translate(136.47 1)"/><path class="cls-51" d="M2180.33,764S2198,738,2228,740,2187.67,756,2180.33,764Z" transform="translate(136.47 1)"/><path class="cls-51" d="M2303,760s-32.32-7.61-28-35C2278,706,2303,760,2303,760Z" transform="translate(136.47 1)"/><path class="cls-52" d="M1386,713.86s3-13.11,25-14.75,38,15.57,6,18S1386,713.86,1386,713.86Z" transform="translate(136.47 1)"/><path class="cls-52" d="M1998.73,710.35s3.4-14.36,23.2-15.19,33.2,18.88,4.39,20.18S1998.73,710.35,1998.73,710.35Z" transform="translate(136.47 1)"/><path class="cls-52" d="M1366.36,713.9s1.39-8.3,10.38-7.61,13.6,8,3.69,9.51S1365.67,716.67,1366.36,713.9Z" transform="translate(136.47 1)"/><path class="cls-53" d="M1542,718s-17-12-23-11-.28-12.76,16.33-1.51C1542,710,1542,718,1542,718Z" transform="translate(136.47 1)"/><path class="cls-53" d="M1545,716s-9.32-18.32-15.66-20.66,6.2-13.11,15.66,5.7A16.7,16.7,0,0,1,1545,716Z" transform="translate(136.47 1)"/><path class="cls-53" d="M1548,718s8-20,24-18S1559,708,1548,718Z" transform="translate(136.47 1)"/><path class="cls-53" d="M973.34,712.23s-10.6-7.86-20.38-8.35,3.82-6.7,17.12,2.46C975.78,710.27,973.34,712.23,973.34,712.23Z" transform="translate(136.47 1)"/><path class="cls-53" d="M975.51,712.23s-3.8-20.61-12.77-25.19,11.9-6.2,15.49,11.45C980.67,710.52,975.51,712.23,975.51,712.23Z" transform="translate(136.47 1)"/><path class="cls-53" d="M978.88,712.23s5.87-13.76,20.54-14.25S978.88,712.23,978.88,712.23Z" transform="translate(136.47 1)"/><path class="cls-53" d="M1036.41,711.7s-13-8.92-17.62-8.18-.22-9.48,12.51-1.12A11.9,11.9,0,0,1,1036.41,711.7Z" transform="translate(136.47 1)"/><path class="cls-53" d="M1038.71,710.21s-7.14-13.61-12-15.35,4.75-9.75,12,4.24A12.08,12.08,0,0,1,1038.71,710.21Z" transform="translate(136.47 1)"/><path class="cls-53" d="M1041,711.7s6.13-14.87,18.39-13.38S1049.43,704.27,1041,711.7Z" transform="translate(136.47 1)"/><path class="cls-54" d="M1966.37,717.38s-19.15,2.48-29.71-2.48,13.2-5,32.35-4.35c0,0-2-1.24-17.48-6.51s-12.19-11.48,0-7.76a168.22,168.22,0,0,1,24.74,10.3s-23.11-13.4-23.77-16.5,3.3-3.72,25.42,14c0,0-20.14-14.58-17.5-23.27s20.47,21.1,20.47,21.1-16.5-32.26-8.58-34.75S1983.53,700,1983.53,700s5.28-20.48,17.82-21.72-13.2,23-15.84,23.58c0,0,1.32,1.24,5.28,0s14-13,20.46-14.27,17.17,5-18.48,26.06Z" transform="translate(136.47 1)"/><path class="cls-55" d="M-1,845s128-16,280,14,298,41.44,298,41.44H0Z" transform="translate(136.47 1)"/><path class="cls-55" d="M1799,900s454-57,602-69,293-8,293-8v77.44Z" transform="translate(136.47 1)"/><path class="cls-55" d="M1934.41,883.29S1930,857,1952,854,1934.41,883.29,1934.41,883.29Z" transform="translate(136.47 1)"/><path class="cls-55" d="M1944,882.12S1961,857,1990,864,1944,882.12,1944,882.12Z" transform="translate(136.47 1)"/><path class="cls-55" d="M2110.5,862.77S2080,855,2084,838s27.46,15.8,33.23,23.4S2110.5,862.77,2110.5,862.77Z" transform="translate(136.47 1)"/><path class="cls-55" d="M2122,862.77s-8-34,27.5-40.41S2124,842.54,2122,862.77Z" transform="translate(136.47 1)"/><path class="cls-55" d="M2133.35,861.4S2147,836,2167,838,2144.69,860.8,2133.35,861.4Z" transform="translate(136.47 1)"/><path class="cls-55" d="M236.32,854.41S224.47,821.5,259,811.13,236,834.08,236.32,854.41Z" transform="translate(136.47 1)"/><path class="cls-55" d="M252.14,854.18s20.13-20.64,38.8-13.2S263.21,856.74,252.14,854.18Z" transform="translate(136.47 1)"/><path class="cls-55" d="M2190.5,853.8S2195,817,2218,817,2199,853.61,2190.5,853.8Z" transform="translate(136.47 1)"/><path class="cls-55" d="M2304.3,840.35S2270,834,2270,804,2311.6,822.71,2304.3,840.35Z" transform="translate(136.47 1)"/><path class="cls-55" d="M2525,840s-60-80-176-64c0,0,23-22,79-20s97,47,97,47-33-80-96-102c0,0,29-13.36,67,15.32S2544,786,2544,786s-37-86,39.5-107c0,0-37.5,34-23.5,104,0,0,2,15,5-2s-1-87,59-98c0,0-46,48-36,103,0,0,2,11,8-13s42-59,97-67h22s-78,22-92.5,80c0,0,40.5-41,107.5-34,0,0-78,31.8-96.5,83.4Z" transform="translate(136.47 1)"/><path class="cls-56" d="M559.7,893.1s-38.29-85.1,0-115.1S686,902,686,902,573.4,720.19,628,687c51-31,88,53,93,183,0,0-8.49-196.47,82-198,59-1-61,187-61,187s80-138.36,157-134c53,3-140,168.1-140,168.1S892,782,952,787,848,898,791,902c0,0,23-2,111-27s139,34-25,39-307-6-307-6Z" transform="translate(136.47 1)"/><path class="cls-57" d="M711.5,648S693,632,688,633.49s5.08-14.14,20,3.44C714,644,711.5,648,711.5,648Z" transform="translate(136.47 1)"/><path class="cls-57" d="M715.5,648s-7.78-36.5-16.14-40.25S712.66,598.38,717,623C720,640,715.5,648,715.5,648Z" transform="translate(136.47 1)"/><path class="cls-57" d="M718,648s9-26,27-27-27,28.5-27,28.5" transform="translate(136.47 1)"/><path class="cls-58" d="M1711.83,649.66s-29.28.13-44.08-9.92,20.88-5.28,49.5-.46c0,0-2.66-2.37-24.85-13.9s-15.87-20.78,1.65-12.39,35,21.39,35,21.39-31.84-26-32.17-31.11,5.75-5.29,35.19,27.39c0,0-27.13-27.33-21.31-40.67s26.23,37.8,26.23,37.8-17.91-54.85-5.48-57.23,9.84,54.78,9.84,54.78,12.29-31.65,31.39-31.12-24.72,34-28.81,34.49c0,0,1.72,2.25,7.93,1.06s23.79-18,33.77-18.7c10.17-.66,24.71,11.37-33.31,37.93Z" transform="translate(136.47 1)"/><path class="cls-57" d="M1865.74,647.64s-13.27-9.42-16.85-8.53,3.64-8.32,14.34,2C1867.53,645.29,1865.74,647.64,1865.74,647.64Z" transform="translate(136.47 1)"/><path class="cls-57" d="M1868.61,647.64S1863,626.17,1857,624s9.54-5.51,12.66,9C1871.84,642.94,1868.61,647.64,1868.61,647.64Z" transform="translate(136.47 1)"/><path class="cls-57" d="M1870.42,647.64s6.44-15.29,19.35-15.88-19.35,16.76-19.35,16.76" transform="translate(136.47 1)"/><path class="cls-57" d="M2211,649.64s13.27-9.42,16.86-8.53-3.64-8.32-14.35,2C2209.24,647.29,2211,649.64,2211,649.64Z" transform="translate(136.47 1)"/><path class="cls-57" d="M2208.16,649.64s5.58-21.47,11.58-23.67-9.53-5.51-12.65,9C2204.94,644.94,2208.16,649.64,2208.16,649.64Z" transform="translate(136.47 1)"/><path class="cls-57" d="M2206.35,649.64s-6.43-15.29-19.34-15.88,19.34,16.76,19.34,16.76" transform="translate(136.47 1)"/><path class="cls-57" d="M163.5,647S145,631,140,632.49s5.08-14.14,20,3.44C166,643,163.5,647,163.5,647Z" transform="translate(136.47 1)"/><path class="cls-57" d="M167.5,647s-7.78-36.5-16.14-40.25S164.66,597.38,169,622C172,639,167.5,647,167.5,647Z" transform="translate(136.47 1)"/><path class="cls-57" d="M170,647s9-26,27-27-27,28.5-27,28.5" transform="translate(136.47 1)"/><rect class="cls-1" x="136.47" y="1" width="2693" height="900"/></g></svg>