<svg id="Layer_1" data-name="Layer 1" xmlns="http://www.w3.org/2000/svg" xmlns:xlink="http://www.w3.org/1999/xlink" viewBox="0 0 3085.49 980.87"><defs><style>.cls-1{fill:none;}.cls-2{clip-path:url(#clip-path);}.cls-3{fill:url(#linear-gradient);}.cls-4{fill:#83cdec;}.cls-5{fill:url(#linear-gradient-2);}.cls-6{opacity:0.79;}.cls-7{fill:url(#linear-gradient-3);}.cls-8{fill:#6cbd46;}.cls-9{fill:url(#linear-gradient-4);}.cls-10{fill:url(#linear-gradient-5);}.cls-11{fill:url(#linear-gradient-6);}.cls-12{fill:url(#linear-gradient-7);}.cls-13{fill:url(#linear-gradient-8);}.cls-14{fill:url(#linear-gradient-9);}.cls-15{fill:url(#linear-gradient-10);}.cls-16{fill:url(#linear-gradient-11);}.cls-17{fill:url(#linear-gradient-12);}.cls-18{fill:url(#linear-gradient-13);}.cls-19{fill:url(#linear-gradient-14);}.cls-20{fill:url(#linear-gradient-15);}.cls-21{fill:url(#linear-gradient-16);}.cls-22{fill:url(#linear-gradient-17);}.cls-23{fill:url(#linear-gradient-18);}.cls-24{fill:url(#linear-gradient-19);}.cls-25{fill:url(#linear-gradient-20);}.cls-26{fill:url(#linear-gradient-21);}.cls-27{fill:url(#linear-gradient-22);}.cls-28{fill:url(#linear-gradient-23);}.cls-29{fill:url(#linear-gradient-24);}.cls-30{fill:url(#linear-gradient-25);}.cls-31{fill:url(#linear-gradient-26);}.cls-32{fill:url(#linear-gradient-27);}.cls-33{fill:url(#linear-gradient-28);}.cls-34{fill:url(#linear-gradient-29);}.cls-35{fill:url(#linear-gradient-30);}.cls-36{fill:#515d30;}.cls-37{fill:#633d35;}.cls-38{fill:url(#linear-gradient-31);}.cls-39{fill:url(#linear-gradient-32);}.cls-40{fill:url(#linear-gradient-33);}.cls-41{fill:url(#linear-gradient-34);}.cls-42{fill:url(#linear-gradient-35);}.cls-43{fill:url(#linear-gradient-36);}.cls-44{fill:url(#linear-gradient-37);}.cls-45{fill:url(#linear-gradient-38);}.cls-46{fill:url(#linear-gradient-39);}.cls-47{fill:url(#linear-gradient-40);}.cls-48{fill:url(#linear-gradient-41);}.cls-49{fill:url(#linear-gradient-42);}.cls-50{fill:url(#linear-gradient-43);}.cls-51{fill:url(#linear-gradient-44);}.cls-52{fill:url(#linear-gradient-45);}.cls-53{fill:url(#linear-gradient-46);}.cls-54{fill:url(#linear-gradient-47);}.cls-55{fill:url(#linear-gradient-48);}.cls-56{fill:url(#linear-gradient-49);}.cls-57{fill:#8c5f33;}.cls-58{fill:#af794a;}.cls-59{fill:#cd7d46;}.cls-60{fill:#363727;}.cls-61{fill:#152117;}.cls-62{fill:#1b2b1c;}.cls-63{fill:url(#linear-gradient-51);}.cls-64{fill:url(#linear-gradient-52);}.cls-65{fill:#baa99c;}.cls-66{fill:#e09952;}.cls-67{fill:#e39c56;}.cls-68{fill:url(#linear-gradient-53);}.cls-69{fill:url(#linear-gradient-54);}.cls-70{fill:url(#linear-gradient-55);}.cls-71{fill:url(#linear-gradient-56);}</style><clipPath id="clip-path" transform="translate(95.05 66.57)"><rect class="cls-1" width="2693" height="900"/></clipPath><linearGradient id="linear-gradient" x1="1451.24" y1="1100.83" x2="1419.2" y2="-834.66" gradientUnits="userSpaceOnUse"><stop offset="0.09" stop-color="#cae7f4"/><stop offset="0.24" stop-color="#cee7f2"/><stop offset="0.36" stop-color="#9cd5e8"/><stop offset="0.46" stop-color="#7ac9e2"/><stop offset="0.51" stop-color="#6dc4df"/></linearGradient><linearGradient id="linear-gradient-2" x1="443.08" y1="809.95" x2="2085.86" y2="159.41" gradientUnits="userSpaceOnUse"><stop offset="0.08" stop-color="#6dafbf"/><stop offset="0.32" stop-color="#6eb6cb"/><stop offset="0.59" stop-color="#6fc0dd"/><stop offset="0.72" stop-color="#6fc0dd"/><stop offset="0.74" stop-color="#6fc0dd"/></linearGradient><linearGradient id="linear-gradient-3" x1="1203.43" y1="437.66" x2="1207.38" y2="363.93" gradientUnits="userSpaceOnUse"><stop offset="0.05" stop-color="#129899"/><stop offset="0.33" stop-color="#1ca194"/><stop offset="0.68" stop-color="#24a791"/><stop offset="0.74" stop-color="#209482"/><stop offset="0.83" stop-color="#1b7b6e"/><stop offset="0.91" stop-color="#186c62"/><stop offset="0.97" stop-color="#17675e"/></linearGradient><linearGradient id="linear-gradient-4" x1="1201.88" y1="374.15" x2="1227.23" y2="361.34" gradientUnits="userSpaceOnUse"><stop offset="0" stop-color="#1fa788"/><stop offset="1" stop-color="#14aa91"/></linearGradient><linearGradient id="linear-gradient-5" x1="1190.91" y1="393.69" x2="1211.21" y2="357.63" gradientUnits="userSpaceOnUse"><stop offset="0" stop-color="#1ca57f"/><stop offset="0.6" stop-color="#21a684"/><stop offset="0.97" stop-color="#28a88a"/></linearGradient><linearGradient id="linear-gradient-6" x1="1214.48" y1="388.48" x2="1241.38" y2="375.1" gradientUnits="userSpaceOnUse"><stop offset="0.01" stop-color="#30a890"/><stop offset="0.47" stop-color="#34a98d"/><stop offset="0.89" stop-color="#3fad85"/><stop offset="1" stop-color="#43ae82"/></linearGradient><linearGradient id="linear-gradient-7" x1="1175.65" y1="383.53" x2="1188.26" y2="377.09" gradientUnits="userSpaceOnUse"><stop offset="0" stop-color="#20866b"/><stop offset="0.23" stop-color="#248869"/><stop offset="0.44" stop-color="#2f8d65"/><stop offset="0.64" stop-color="#41965d"/><stop offset="0.83" stop-color="#5ba352"/><stop offset="1" stop-color="#78b145"/></linearGradient><linearGradient id="linear-gradient-8" x1="1175.78" y1="385.46" x2="1190.55" y2="379.28" gradientUnits="userSpaceOnUse"><stop offset="0" stop-color="#1fa885"/><stop offset="1" stop-color="#1fa683"/></linearGradient><linearGradient id="linear-gradient-9" x1="1624.26" y1="803.77" x2="1624.26" y2="803.77" gradientUnits="userSpaceOnUse"><stop offset="0.09" stop-color="#8bbfcc"/><stop offset="0.36" stop-color="#8fc6d8"/><stop offset="0.45" stop-color="#91c9dd"/><stop offset="0.66" stop-color="#8fc9de"/><stop offset="0.72" stop-color="#8bc9df"/></linearGradient><linearGradient id="linear-gradient-10" x1="1400.47" y1="-277.01" x2="1360.57" y2="983.93" gradientUnits="userSpaceOnUse"><stop offset="0.09" stop-color="#5ac1ad"/><stop offset="0.24" stop-color="#5ac1ad"/><stop offset="0.55" stop-color="#4ac6a8"/><stop offset="0.62" stop-color="#48bea3"/><stop offset="0.7" stop-color="#45af9a"/></linearGradient><linearGradient id="linear-gradient-11" x1="2138.6" y1="597.65" x2="2144.03" y2="496.45" xlink:href="#linear-gradient-3"/><linearGradient id="linear-gradient-12" x1="2136.47" y1="510.49" x2="2171.27" y2="492.9" xlink:href="#linear-gradient-4"/><linearGradient id="linear-gradient-13" x1="2121.42" y1="537.3" x2="2149.29" y2="487.8" xlink:href="#linear-gradient-5"/><linearGradient id="linear-gradient-14" x1="2153.77" y1="530.16" x2="2190.69" y2="511.79" xlink:href="#linear-gradient-6"/><linearGradient id="linear-gradient-15" x1="2100.47" y1="523.35" x2="2117.78" y2="514.52" xlink:href="#linear-gradient-7"/><linearGradient id="linear-gradient-16" x1="2100.65" y1="526.01" x2="2120.93" y2="517.53" xlink:href="#linear-gradient-8"/><linearGradient id="linear-gradient-17" x1="877.94" y1="590.41" x2="886.66" y2="427.66" gradientUnits="userSpaceOnUse"><stop offset="0.05" stop-color="#6b8f51"/><stop offset="0.08" stop-color="#698f52"/><stop offset="0.46" stop-color="#548e5b"/><stop offset="0.7" stop-color="#4c8d5f"/><stop offset="0.73" stop-color="#44875f"/><stop offset="0.82" stop-color="#2b755e"/><stop offset="0.91" stop-color="#1c6b5e"/><stop offset="0.97" stop-color="#17675e"/></linearGradient><linearGradient id="linear-gradient-18" x1="875.19" y1="449.21" x2="927.48" y2="422.78" xlink:href="#linear-gradient-4"/><linearGradient id="linear-gradient-19" x1="852.2" y1="490.87" x2="894.78" y2="415.24" gradientUnits="userSpaceOnUse"><stop offset="0" stop-color="#16a16f"/><stop offset="0.91" stop-color="#129c70"/><stop offset="0.97" stop-color="#129b70"/></linearGradient><linearGradient id="linear-gradient-20" x1="901.11" y1="480.68" x2="956.87" y2="452.94" gradientUnits="userSpaceOnUse"><stop offset="0.01" stop-color="#288c5d"/><stop offset="0.27" stop-color="#2c8e5c"/><stop offset="0.5" stop-color="#379258"/><stop offset="0.73" stop-color="#499a52"/><stop offset="0.95" stop-color="#63a54a"/><stop offset="1" stop-color="#6aa848"/></linearGradient><linearGradient id="linear-gradient-21" x1="820.85" y1="470.44" x2="847.03" y2="457.09" xlink:href="#linear-gradient-7"/><linearGradient id="linear-gradient-22" x1="821.15" y1="474.73" x2="851.83" y2="461.9" gradientUnits="userSpaceOnUse"><stop offset="0" stop-color="#2b8c59"/><stop offset="0.27" stop-color="#2f8e58"/><stop offset="0.52" stop-color="#3a9254"/><stop offset="0.76" stop-color="#4c9a4e"/><stop offset="0.99" stop-color="#66a545"/><stop offset="1" stop-color="#67a545"/></linearGradient><linearGradient id="linear-gradient-23" x1="1366.07" y1="561.45" x2="1371.04" y2="468.77" xlink:href="#linear-gradient-3"/><linearGradient id="linear-gradient-24" x1="1364.12" y1="481.62" x2="1395.99" y2="465.52" xlink:href="#linear-gradient-4"/><linearGradient id="linear-gradient-25" x1="1350.34" y1="506.18" x2="1375.86" y2="460.85" xlink:href="#linear-gradient-5"/><linearGradient id="linear-gradient-26" x1="1379.97" y1="499.64" x2="1413.77" y2="482.82" xlink:href="#linear-gradient-6"/><linearGradient id="linear-gradient-27" x1="1331.15" y1="493.4" x2="1347.01" y2="485.32" xlink:href="#linear-gradient-7"/><linearGradient id="linear-gradient-28" x1="1331.32" y1="495.84" x2="1349.89" y2="488.07" xlink:href="#linear-gradient-8"/><linearGradient id="linear-gradient-29" x1="-36.34" y1="1304.15" x2="3434.16" y2="-443.7" gradientUnits="userSpaceOnUse"><stop offset="0" stop-color="#fff"/><stop offset="0.07" stop-color="#229d73"/><stop offset="0.32" stop-color="#23a97a"/><stop offset="0.39" stop-color="#23ad7c"/><stop offset="0.4" stop-color="#23ad7c"/><stop offset="0.72" stop-color="#23b477"/></linearGradient><linearGradient id="linear-gradient-30" x1="189.71" y1="620.84" x2="321.29" y2="79.1" gradientUnits="userSpaceOnUse"><stop offset="0" stop-color="#694722"/><stop offset="0.47" stop-color="#56524c"/><stop offset="0.55" stop-color="#535453"/></linearGradient><linearGradient id="linear-gradient-31" x1="422.93" y1="177.9" x2="581.14" y2="13.64" gradientUnits="userSpaceOnUse"><stop offset="0" stop-color="#0d5f3f"/><stop offset="0.16" stop-color="#06724b"/><stop offset="0.28" stop-color="#008355"/><stop offset="0.42" stop-color="#24975b"/><stop offset="0.56" stop-color="#43a861"/><stop offset="0.68" stop-color="#56b264"/><stop offset="0.76" stop-color="#5db665"/></linearGradient><linearGradient id="linear-gradient-32" x1="105.62" y1="253.25" x2="470.67" y2="-156.02" gradientTransform="matrix(1.08, 0, 0, 1.06, -44.63, -14.51)" gradientUnits="userSpaceOnUse"><stop offset="0" stop-color="#0d5f3f"/><stop offset="0.27" stop-color="#157d66"/><stop offset="0.43" stop-color="#198a77"/><stop offset="0.76" stop-color="#1ca989"/></linearGradient><linearGradient id="linear-gradient-33" x1="-42.03" y1="315.47" x2="128.13" y2="103.26" gradientUnits="userSpaceOnUse"><stop offset="0" stop-color="#0d5f3f"/><stop offset="0.33" stop-color="#0b7251"/><stop offset="0.33" stop-color="#0b7251"/><stop offset="0.43" stop-color="#087353"/><stop offset="0.76" stop-color="#017458"/></linearGradient><linearGradient id="linear-gradient-34" x1="-42.03" y1="317.81" x2="128.13" y2="105.6" gradientUnits="userSpaceOnUse"><stop offset="0.03" stop-color="#106a56"/><stop offset="0.42" stop-color="#116e59"/><stop offset="0.62" stop-color="#0d745b"/><stop offset="0.75" stop-color="#077b5e"/></linearGradient><linearGradient id="linear-gradient-35" x1="4771.58" y1="117.18" x2="4649.59" y2="-130.08" gradientTransform="matrix(-0.98, 0.17, 0.17, 0.98, 5188.6, -819.12)" gradientUnits="userSpaceOnUse"><stop offset="0" stop-color="#0d5f3f"/><stop offset="0.03" stop-color="#127251"/><stop offset="0.08" stop-color="#1fa37f"/><stop offset="0.1" stop-color="#24b792"/><stop offset="0.67" stop-color="#24b792"/></linearGradient><linearGradient id="linear-gradient-36" x1="-28.78" y1="97.43" x2="651.9" y2="97.43" gradientUnits="userSpaceOnUse"><stop offset="0.09" stop-color="#106e5b"/><stop offset="0.3" stop-color="#0e8168"/><stop offset="0.4" stop-color="#0d8c6f"/><stop offset="0.5" stop-color="#139673"/><stop offset="0.67" stop-color="#22b27d"/><stop offset="0.68" stop-color="#23b37e"/></linearGradient><linearGradient id="linear-gradient-37" x1="-79.39" y1="128.88" x2="727.38" y2="73.06" gradientUnits="userSpaceOnUse"><stop offset="0.21" stop-color="#0b6848"/><stop offset="0.36" stop-color="#127b57"/><stop offset="0.55" stop-color="#1c986d"/><stop offset="0.6" stop-color="#279e6e"/><stop offset="0.7" stop-color="#44ad71"/><stop offset="0.8" stop-color="#66be75"/></linearGradient><linearGradient id="linear-gradient-38" x1="2675.08" y1="646.51" x2="2743.81" y2="363.51" gradientUnits="userSpaceOnUse"><stop offset="0" stop-color="#694722"/><stop offset="0.49" stop-color="#50624c"/><stop offset="0.55" stop-color="#4d6651"/></linearGradient><linearGradient id="linear-gradient-39" x1="2802.28" y1="420.22" x2="2889.97" y2="329.18" xlink:href="#linear-gradient-31"/><linearGradient id="linear-gradient-40" x1="2581.79" y1="465.78" x2="2783.21" y2="239.97" gradientTransform="matrix(1, -0.03, -0.03, 1.24, 3.14, -29.57)" gradientUnits="userSpaceOnUse"><stop offset="0" stop-color="#1a766a"/><stop offset="0.41" stop-color="#198777"/><stop offset="0.81" stop-color="#239680"/></linearGradient><linearGradient id="linear-gradient-41" x1="2541.6" y1="492.9" x2="2635.64" y2="375.61" xlink:href="#linear-gradient-33"/><linearGradient id="linear-gradient-42" x1="2541.6" y1="494.1" x2="2635.64" y2="376.82" xlink:href="#linear-gradient-34"/><linearGradient id="linear-gradient-43" x1="2512.12" y1="786.51" x2="2447.97" y2="656.49" xlink:href="#linear-gradient-35"/><linearGradient id="linear-gradient-44" x1="2548.12" y1="376.74" x2="2930.63" y2="376.74" gradientUnits="userSpaceOnUse"><stop offset="0.09" stop-color="#0c7853"/><stop offset="0.4" stop-color="#028660"/><stop offset="0.49" stop-color="#099067"/><stop offset="0.64" stop-color="#1eac79"/><stop offset="0.68" stop-color="#23b37e"/></linearGradient><linearGradient id="linear-gradient-45" x1="2519.83" y1="394.27" x2="2973.27" y2="362.89" gradientUnits="userSpaceOnUse"><stop offset="0.21" stop-color="#0b7250"/><stop offset="0.49" stop-color="#09855d"/><stop offset="0.56" stop-color="#088a61"/><stop offset="0.6" stop-color="#139063"/><stop offset="0.68" stop-color="#30a06a"/><stop offset="0.79" stop-color="#60ba74"/><stop offset="0.8" stop-color="#66be75"/></linearGradient><linearGradient id="linear-gradient-46" x1="31.15" y1="763.92" x2="3297.38" y2="752.06" gradientUnits="userSpaceOnUse"><stop offset="0.18" stop-color="#2c3c42"/><stop offset="0.22" stop-color="#2f3f46"/><stop offset="0.45" stop-color="#414e5f"/><stop offset="0.66" stop-color="#4b576e"/><stop offset="0.83" stop-color="#4f5a73"/></linearGradient><linearGradient id="linear-gradient-47" x1="-79.45" y1="692.45" x2="692.3" y2="303.77" gradientUnits="userSpaceOnUse"><stop offset="0.11" stop-color="#16595b"/><stop offset="0.23" stop-color="#1b655e"/><stop offset="0.34" stop-color="#227562"/><stop offset="0.47" stop-color="#218a6a"/><stop offset="0.61" stop-color="#209a70"/><stop offset="0.72" stop-color="#20a072"/></linearGradient><linearGradient id="linear-gradient-48" x1="2157.71" y1="802.34" x2="2916.02" y2="420.44" gradientUnits="userSpaceOnUse"><stop offset="0.09" stop-color="#167863"/><stop offset="0.33" stop-color="#1a8065"/><stop offset="0.48" stop-color="#208664"/><stop offset="0.72" stop-color="#268c63"/></linearGradient><linearGradient id="linear-gradient-49" x1="1511" y1="778.68" x2="2146.06" y2="458.84" xlink:href="#linear-gradient-48"/><linearGradient id="linear-gradient-51" x1="348.39" y1="744.45" x2="500.08" y2="621.95" gradientUnits="userSpaceOnUse"><stop offset="0" stop-color="#3b2416"/><stop offset="0.08" stop-color="#4d3019"/><stop offset="0.24" stop-color="#6d431f"/><stop offset="0.41" stop-color="#865223"/><stop offset="0.59" stop-color="#975d27"/><stop offset="0.78" stop-color="#a26428"/><stop offset="1" stop-color="#a56629"/></linearGradient><linearGradient id="linear-gradient-52" x1="457.29" y1="713.71" x2="538.88" y2="713.71" xlink:href="#linear-gradient-51"/><linearGradient id="linear-gradient-53" x1="853.51" y1="81.57" x2="913.08" y2="-31.88" gradientUnits="userSpaceOnUse"><stop offset="0.07" stop-color="#80c1d1"/><stop offset="0.24" stop-color="#98ceda"/><stop offset="0.54" stop-color="#cbe9ee"/></linearGradient><linearGradient id="linear-gradient-54" x1="1549.16" y1="177.55" x2="1650.55" y2="-15.53" xlink:href="#linear-gradient-53"/><linearGradient id="linear-gradient-55" x1="1953.68" y1="74.36" x2="2032.67" y2="-76.07" gradientUnits="userSpaceOnUse"><stop offset="0.01" stop-color="#8ac7d4"/><stop offset="0.7" stop-color="#c3e4ed"/><stop offset="0.87" stop-color="#d1ecf4"/></linearGradient><linearGradient id="linear-gradient-56" x1="2418.34" y1="171.53" x2="2477.92" y2="58.07" xlink:href="#linear-gradient-53"/></defs><g class="cls-2"><rect class="cls-3" x="95.05" y="66.57" width="2693" height="898.38"/><path class="cls-4" d="M1316.11,486.46S1526.93,383,1781.53,450s352.24-94.73,422.41-125.24,361.9-103.73,495.2,0c5.16,177,0,284.38,0,284.38l-1657.63-1.73Z" transform="translate(95.05 66.57)"/><path class="cls-5" d="M-13.53,280.14c95.23,3.1,169.57,17.63,219.31,30.08,76.58,19.17,103.69,35.64,192.16,52.93,78.11,15.26,121.63,27.67,175.09,13.51,36-9.55,55-23.63,166.89-90a664.05,664.05,0,0,1,131.47-75.92c46.75-20.21,166.15-65.27,329.37-51.7,0,0,9.4.78,18.3,1.77,160.46,17.71,355.79,154,476.48,249,135.12,89.64,256,130.07,337.55,150.06,113.11,27.72,204.33,29.3,344.75,31.73A2900.39,2900.39,0,0,0,2695,579.79l4.1,47.39L0,624.24Z" transform="translate(95.05 66.57)"/><g class="cls-6"><path class="cls-7" d="M1227.14,382.46c-1.9,2.88-8,4.85-11,2.87a1.31,1.31,0,0,0-1.41-.16c-4.47,1.12-4.28,4.42-4.28,4.42,4.31,28.82,1.39,46.09,1.39,46.09h-13.49c-1.73-9.1.2-28.6.79-34.29.15-1.48-.5-8.23-.5-8.23s-1-4.35-1.86-5.48a13.68,13.68,0,0,0-3.23-3c-11.22-.41-7.27-1.46-7.27-1.46.58.38,6.94,0,7.52-.28s-2.47-7.89-2.47-7.89h2.17c.33,2.35,2.62,8,2.62,8,1.62.55,3.87-7.43,3.87-7.43h2.17s-3.64,6.37-2.07,5.76,4.07-5.2,4.07-5.2h1.66s-2.58,5.28-4.82,6.49-.85,1.95-.85,1.95c6.7,2.43,6.76-8.44,6.76-8.44H1208c-.74,5.54.34,7.84.34,7.84,5.67.83,7-7.84,7-7.84l1.84-.56c.2,2.43-1.43,7.05-1.43,7.05s.74,1.9,3.72,2c1.78.05,4.46-3.22,5.2-3.8Z" transform="translate(95.05 66.57)"/><path class="cls-8" d="M1227.5,368.46s-3.39-6.28-15.93-5.45-18.52,6.19,6.37,7.21C1217.94,370.22,1229.49,372.07,1227.5,368.46Z" transform="translate(95.05 66.57)"/><path class="cls-9" d="M1227.49,368.68s-3.42-6.28-16.13-5.45-18.74,6.19,6.46,7.21C1217.82,370.44,1229.51,372.29,1227.49,368.68Z" transform="translate(95.05 66.57)"/><path class="cls-8" d="M1183.28,374.51s5.83,1.2,23.48,1.84c16.91.62,17.29-2.1,17.29-2.1s3.68-6.24-11.57-8.12C1198.45,364.4,1172.66,369.25,1183.28,374.51Z" transform="translate(95.05 66.57)"/><path class="cls-10" d="M1183.28,374.82s5.83,1.21,23.48,1.86c16.91.62,17.29-2.12,17.29-2.12s3.68-6.29-11.57-8.19C1198.45,364.63,1172.66,369.52,1183.28,374.82Z" transform="translate(95.05 66.57)"/><path class="cls-8" d="M1220.4,382.21a106.38,106.38,0,0,0,19.38,0c8.9-1,3.23-6.21,0-6.84s-11.24-.91-20.57,3.65C1213.25,381.94,1220.4,382.21,1220.4,382.21Z" transform="translate(95.05 66.57)"/><path class="cls-11" d="M1220.32,382.22a107.59,107.59,0,0,0,19.21,0c8.82-1,3.2-6,0-6.62s-11.15-.89-20.39,3.53C1213.23,382,1220.32,382.22,1220.32,382.22Z" transform="translate(95.05 66.57)"/><path class="cls-12" d="M1183.9,379.16s-7.05-1.54-8,2c-.27,1,1.27,1.37,4.18,1.41C1182.75,382.58,1192.26,380.49,1183.9,379.16Z" transform="translate(95.05 66.57)"/><path class="cls-8" d="M1176.87,383.71a20.87,20.87,0,0,0,10.57-.41c3.21-.93,2.53-3.74-.79-3.74S1173.79,381.77,1176.87,383.71Z" transform="translate(95.05 66.57)"/><path class="cls-13" d="M1176.59,384a21.24,21.24,0,0,0,10.8-.43c3.28-.95,2.59-3.84-.81-3.84S1173.44,382,1176.59,384Z" transform="translate(95.05 66.57)"/></g><path class="cls-14" d="M1624.26,803.77" transform="translate(95.05 66.57)"/><path class="cls-15" d="M94,627.18c118.7-69.54,272.68-141,460-185.89C1115.4,306.85,1590.27,504.35,1772.4,592.37c284.7-19.56,609.28-35.21,781.74-20.32,87.7,7.58,96,19.58,96.5,25,1.83,18.18-74.55,40.86-139.39,57.19Z" transform="translate(95.05 66.57)"/><path class="cls-16" d="M2171.15,521.89c-2.62,4-11,6.65-15.14,3.94a1.79,1.79,0,0,0-1.93-.22c-6.15,1.53-5.88,6.06-5.88,6.06,5.91,39.56,1.9,63.28,1.9,63.28h-18.51c-2.38-12.5.27-39.27,1.08-47.07.21-2-.69-11.3-.69-11.3s-1.41-6-2.54-7.53a18.86,18.86,0,0,0-4.43-4.16c-15.41-.56-10-2-10-2,.79.52,9.53,0,10.33-.39s-3.4-10.83-3.4-10.83h3c.45,3.23,3.6,11,3.6,11,2.23.75,5.31-10.2,5.31-10.2h3s-5,8.75-2.84,7.91,5.58-7.14,5.58-7.14h2.29s-3.55,7.24-6.62,8.91-1.17,2.68-1.17,2.68c9.2,3.33,9.28-11.59,9.28-11.59h1.6c-1,7.6.46,10.77.46,10.77,7.78,1.13,9.6-10.77,9.6-10.77l2.51-.77c.29,3.33-2,9.68-2,9.68s1,2.6,5.11,2.71c2.44.06,6.13-4.43,7.14-5.22Z" transform="translate(95.05 66.57)"/><path class="cls-8" d="M2171.63,502.68s-4.64-8.63-21.86-7.49-25.42,8.5,8.75,9.9C2158.52,505.09,2174.37,507.62,2171.63,502.68Z" transform="translate(95.05 66.57)"/><path class="cls-17" d="M2171.63,503s-4.7-8.62-22.14-7.48-25.73,8.5,8.86,9.89C2158.35,505.39,2174.4,507.93,2171.63,503Z" transform="translate(95.05 66.57)"/><path class="cls-8" d="M2111,511s8,1.65,32.22,2.53c23.21.84,23.74-2.89,23.74-2.89s5-8.57-15.89-11.14C2131.76,497.11,2096.37,503.76,2111,511Z" transform="translate(95.05 66.57)"/><path class="cls-18" d="M2111,511.41s8,1.66,32.22,2.55c23.21.85,23.74-2.91,23.74-2.91s5-8.64-15.89-11.24C2131.76,497.42,2096.37,504.13,2111,511.41Z" transform="translate(95.05 66.57)"/><path class="cls-8" d="M2161.9,521.54s14.39,1.44,26.6,0,4.43-8.52,0-9.38c-4.63-.89-15.44-1.25-28.24,5C2152.08,521.17,2161.9,521.54,2161.9,521.54Z" transform="translate(95.05 66.57)"/><path class="cls-19" d="M2161.79,521.56s14.26,1.39,26.36,0,4.39-8.26,0-9.09c-4.59-.87-15.29-1.22-28,4.85C2152.06,521.2,2161.79,521.56,2161.79,521.56Z" transform="translate(95.05 66.57)"/><path class="cls-20" d="M2111.8,517.37s-9.68-2.13-10.93,2.71c-.37,1.43,1.74,1.87,5.74,1.93C2110.21,522.06,2123.27,519.19,2111.8,517.37Z" transform="translate(95.05 66.57)"/><path class="cls-8" d="M2102.15,523.61a28.68,28.68,0,0,0,14.5-.57c4.41-1.27,3.47-5.13-1.08-5.13S2097.92,520.94,2102.15,523.61Z" transform="translate(95.05 66.57)"/><path class="cls-21" d="M2101.76,524a29.17,29.17,0,0,0,14.83-.59c4.5-1.3,3.55-5.27-1.11-5.27S2097.44,521.26,2101.76,524Z" transform="translate(95.05 66.57)"/><path class="cls-22" d="M927.36,468.51c-3.93,6.36-16.57,10.7-22.8,6.33a2.55,2.55,0,0,0-2.9-.35c-9.25,2.47-8.85,9.76-8.85,9.76,8.9,63.69,2.86,101.87,2.86,101.87H867.8c-3.59-20.11.41-63.22,1.63-75.78.32-3.27-1-18.2-1-18.2s-2.13-9.61-3.84-12.11a28.9,28.9,0,0,0-6.67-6.7c-23.19-.9-15-3.23-15-3.23,1.2.84,14.36,0,15.56-.62S853.29,452,853.29,452h4.47c.69,5.2,5.43,17.77,5.43,17.77,3.35,1.2,8-16.42,8-16.42h4.48s-7.53,14.07-4.28,12.73,8.41-11.49,8.41-11.49h3.44s-5.35,11.66-10,14.34-1.76,4.32-1.76,4.32c13.85,5.36,14-18.66,14-18.66h2.41c-1.53,12.23.7,17.33.7,17.33,11.72,1.82,14.46-17.33,14.46-17.33l3.78-1.24c.43,5.36-3,15.58-3,15.58s1.54,4.19,7.69,4.36c3.68.1,9.23-7.12,10.76-8.41Z" transform="translate(95.05 66.57)"/><path class="cls-8" d="M928.1,437.57s-7-13.89-32.93-12.05-38.27,13.68,13.17,15.93C908.34,441.45,932.21,445.53,928.1,437.57Z" transform="translate(95.05 66.57)"/><path class="cls-23" d="M928.09,438.06S921,424.18,894.76,426,856,439.69,908.09,441.94C908.09,441.94,932.26,446,928.09,438.06Z" transform="translate(95.05 66.57)"/><path class="cls-8" d="M836.71,450.94s12,2.65,48.53,4.07c35,1.36,35.74-4.65,35.74-4.65s7.6-13.8-23.92-17.94C868.06,428.6,814.76,439.32,836.71,450.94Z" transform="translate(95.05 66.57)"/><path class="cls-24" d="M836.71,451.63s12,2.67,48.53,4.1C920.19,457.1,921,451,921,451s7.6-13.9-23.92-18.08C868.06,429.11,814.76,439.92,836.71,451.63Z" transform="translate(95.05 66.57)"/><path class="cls-8" d="M913.44,467.94s21.67,2.31,40,0,6.67-13.71,0-15.1c-7-1.44-23.24-2-42.52,8.07C898.65,467.35,913.44,467.94,913.44,467.94Z" transform="translate(95.05 66.57)"/><path class="cls-25" d="M913.27,468s21.48,2.24,39.7,0,6.61-13.29,0-14.63c-6.91-1.4-23-2-42.15,7.81C898.62,467.4,913.27,468,913.27,468Z" transform="translate(95.05 66.57)"/><path class="cls-26" d="M838,461.22s-14.58-3.42-16.46,4.37c-.55,2.3,2.63,3,8.65,3.1C835.6,468.77,855.26,464.15,838,461.22Z" transform="translate(95.05 66.57)"/><path class="cls-8" d="M823.46,471.28s9.46,2.87,21.85-.93c6.63-2,5.22-8.26-1.64-8.26S817.09,467,823.46,471.28Z" transform="translate(95.05 66.57)"/><path class="cls-27" d="M822.87,471.9s9.68,3,22.34-.95c6.78-2.09,5.34-8.48-1.67-8.48S816.37,467.49,822.87,471.9Z" transform="translate(95.05 66.57)"/><g class="cls-6"><path class="cls-28" d="M1395.87,492.07c-2.39,3.62-10.07,6.09-13.86,3.6a1.64,1.64,0,0,0-1.77-.2c-5.62,1.4-5.38,5.55-5.38,5.55,5.41,36.23,1.74,58,1.74,58h-16.95c-2.18-11.44.25-36,1-43.11.2-1.86-.63-10.35-.63-10.35s-1.29-5.47-2.33-6.89a17.39,17.39,0,0,0-4.06-3.81c-14.1-.51-9.15-1.84-9.15-1.84.73.48,8.74,0,9.46-.35s-3.1-9.92-3.1-9.92h2.72c.41,3,3.3,10.11,3.3,10.11,2,.68,4.87-9.34,4.87-9.34h2.72s-4.58,8-2.6,7.24,5.11-6.54,5.11-6.54h2.1s-3.26,6.63-6.07,8.16-1.07,2.46-1.07,2.46c8.43,3,8.5-10.62,8.5-10.62h1.46c-.93,7,.42,9.86.42,9.86,7.13,1,8.8-9.86,8.8-9.86l2.3-.7c.26,3-1.8,8.86-1.8,8.86s.94,2.39,4.68,2.48c2.24.06,5.61-4.05,6.54-4.78Z" transform="translate(95.05 66.57)"/><path class="cls-8" d="M1396.32,474.47s-4.25-7.9-20-6.85-23.28,7.78,8,9.06C1384.31,476.68,1398.82,479,1396.32,474.47Z" transform="translate(95.05 66.57)"/><path class="cls-29" d="M1396.32,474.75s-4.31-7.9-20.27-6.85-23.57,7.78,8.1,9.06C1384.15,477,1398.85,479.28,1396.32,474.75Z" transform="translate(95.05 66.57)"/><path class="cls-8" d="M1340.75,482.08s7.32,1.5,29.51,2.31c21.25.77,21.73-2.64,21.73-2.64s4.62-7.85-14.54-10.21C1359.81,469.37,1327.39,475.47,1340.75,482.08Z" transform="translate(95.05 66.57)"/><path class="cls-30" d="M1340.75,482.47s7.32,1.52,29.51,2.33c21.25.78,21.73-2.66,21.73-2.66s4.62-7.92-14.54-10.29C1359.81,469.66,1327.39,475.81,1340.75,482.47Z" transform="translate(95.05 66.57)"/><path class="cls-8" d="M1387.41,491.75s13.17,1.31,24.36,0,4-7.81,0-8.59c-4.24-.82-14.14-1.15-25.87,4.58C1378.42,491.41,1387.41,491.75,1387.41,491.75Z" transform="translate(95.05 66.57)"/><path class="cls-31" d="M1387.31,491.76s13.06,1.28,24.14,0,4-7.56,0-8.32c-4.2-.8-14-1.12-25.63,4.44C1378.4,491.44,1387.31,491.76,1387.31,491.76Z" transform="translate(95.05 66.57)"/><path class="cls-32" d="M1341.53,487.92s-8.87-1.94-10,2.49c-.34,1.31,1.59,1.71,5.25,1.76C1340.07,492.22,1352,489.59,1341.53,487.92Z" transform="translate(95.05 66.57)"/><path class="cls-8" d="M1332.69,493.64a26.27,26.27,0,0,0,13.28-.52c4-1.16,3.18-4.7-1-4.7S1328.82,491.2,1332.69,493.64Z" transform="translate(95.05 66.57)"/><path class="cls-33" d="M1332.33,494a26.79,26.79,0,0,0,13.58-.54c4.13-1.19,3.25-4.83-1-4.83S1328.37,491.49,1332.33,494Z" transform="translate(95.05 66.57)"/></g><path class="cls-34" d="M1.45,546.8s472.4-150,746.29-33.56c238.71,106.81,258.81,126.53,567.88,46.12,273.89-35.17,434.05,63.59,568.81,60.69,0,0,549.37-76.66,806.92-31l7.57,75.83L1.65,664.33Z" transform="translate(95.05 66.57)"/><path class="cls-35" d="M211.24,232.53s34.21,22.3,33.56,54.71c-.11,5.7.33,23.11-11.23,30.72-8,5.29-17.77,3.19-19.24,2.84-18.15-4.19-29-26.56-39.55-48.47-8.66-17.92-12.64-31.91-22.92-33.45-1.23-.19-5.23-.79-7.7,1.56-7.66,7.3,5.57,37.41,20.42,58.68,11.64,16.68,21.75,24.3,19.13,34.44-2,7.88-10.37,11.88-11.17,12.25-6.67,3.09-14.1,2.08-24.55-2a121.35,121.35,0,0,1-39.88-26.17C82.13,290.74,61.34,262,48.49,243l-8.93,8.93L56.14,280c-2.1-3.5-11.8-18.8-30.62-23a45.1,45.1,0,0,0-19.13,0c9.78,3.75,23.89,10.74,35.72,24.24C55,296,55.63,307.57,68.9,328.46,78.78,344,90.64,356.8,99.52,364.18c30.83,25.66,72.32,25,93.12,23,8.68,1.06,20.28,4,29.34,12.76,3.88,3.74,18.4,19.38,9.08,81.74,0,0-5.21,34.83-32,112.71L342,595c17.4,6.17,49.83,15.9,59.13,3.64,4.67-6.16,1.77-15.59.46-19.89-16.08-52.69-28.21-93-33.13-126-3.13-21-3.33-39.06.25-55.46,1.23-5.66,10.62-46.31,39.54-57.41,16-6.12,23.28,2.36,45.93,0,44-4.6,72.83-42.61,75.27-45.92,22.42-30.51,28.88-74.42,28.88-74.42l-19,2.77c-.88,7.7-6.18,48.3-36.66,64-3.62,1.86-20.28,10.44-30.49,3.46-14.35-9.8-5.54-43.08-3.93-46.2C474.36,231.7,488.69,209,488.69,209l-47.29,5.94c2.24,28.77-7.87,54.06-27.17,64.63-2.58,1.41-17.3,9.47-29,3.46-14.16-7.28-20.19-33.26-9.15-63.41l-17.4-6.35S348,314.1,332.05,324.46c-27.64,18-48.12-43.15-40.95-104.86H270.62s13.31,67.48-3.07,43.38c-5.86-8.62-16.46-19-32.76-30.45" transform="translate(95.05 66.57)"/><path class="cls-36" d="M366.63,460.54c-9.41-4-30.61,21.54-42.31,42.29-8.52,15.1-20.77,43.18-19.73,85.42l1.22,11,97.72-11.74c-9-29.09-15-50.5-18.82-65.12-3.57-13.49-8.49-26.63-11.34-40.29C370.32,467.45,370.34,462.1,366.63,460.54Z" transform="translate(95.05 66.57)"/><path class="cls-37" d="M357,552.3a8.06,8.06,0,0,1-2.5,0,14.67,14.67,0,0,1-2.44-.58,20.61,20.61,0,0,1-4.56-2.14,16.34,16.34,0,0,1-3.9-3.31,8.62,8.62,0,0,1-1.36-2.29,5.13,5.13,0,0,1-.29-2.81,5.42,5.42,0,0,1,1.25-2.55,9.57,9.57,0,0,1,2.05-1.78,17.76,17.76,0,0,1,2.3-1.26l1.19-.51,1.3-.39a13.85,13.85,0,0,1,5.32-.25,20.32,20.32,0,0,1,5.05,1.45,29.26,29.26,0,0,1,8.61,5.69,30.92,30.92,0,0,1,6.29,8.25,20.92,20.92,0,0,1,1.77,5,14.76,14.76,0,0,1,.15,5.47,12.65,12.65,0,0,1-2.15,5.16,15,15,0,0,1-4,3.74,28.48,28.48,0,0,1-9.75,3.71,43.54,43.54,0,0,1-10.2,1,33.62,33.62,0,0,1-10.16-1.8,26.85,26.85,0,0,1-9-5.17,24.64,24.64,0,0,1-6.09-8.34,25.37,25.37,0,0,1-2.09-10,32,32,0,0,1,6.51-18.72,38.18,38.18,0,0,0-4,9,29,29,0,0,0-1.07,9.64,24,24,0,0,0,2.4,9.23,23,23,0,0,0,5.83,7.39,28,28,0,0,0,17.66,5.91,42.63,42.63,0,0,0,9.54-1,25.83,25.83,0,0,0,8.71-3.34,11.86,11.86,0,0,0,3.24-3,9.52,9.52,0,0,0,1.68-3.92,12.09,12.09,0,0,0-.1-4.4,19.9,19.9,0,0,0-1.49-4.34A29.13,29.13,0,0,0,359.47,538a18.29,18.29,0,0,0-4.44-1.44,12.37,12.37,0,0,0-4.54,0l-1.1.28-1.12.41a16.44,16.44,0,0,0-2.11,1,5.54,5.54,0,0,0-2.78,3.18,5.12,5.12,0,0,0,1.12,4.12,14.92,14.92,0,0,0,3.44,3.33,21,21,0,0,0,4.27,2.38,14.6,14.6,0,0,0,2.34.78A7.74,7.74,0,0,0,357,552.3Z" transform="translate(95.05 66.57)"/><path class="cls-38" d="M394.88,87.6S429.55,70.25,484,70.51s115.47,38.56,98.64,63-27.12,38.4-102.61,38.18S318.62,134.15,394.88,87.6Z" transform="translate(95.05 66.57)"/><path class="cls-8" d="M381.24-36.82C526.56,6.74,541,58.84,538,82.7c0,0,.3,40.85-149.74,82.11h0s-88,33.76-250.51,16.05C88.47,175.48,7.11,154.13-4.14,106.44c-8.28-35.1,25.57-70.84,37.81-83.77C133.42-82.66,332.34-46.79,381.24-36.82Z" transform="translate(95.05 66.57)"/><path class="cls-39" d="M363.88-51.4C521.67-5,537.5,50,534.36,75.15c0,0,.47,43.09-162.17,86.11h0s-95.33,35.32-271.69,16.11C47,171.55-41.35,148.77-53.71,98.43-62.8,61.39-26.2,23.81-13,10.21,94.91-100.55,310.81-62.07,363.88-51.4Z" transform="translate(95.05 66.57)"/><path class="cls-40" d="M-94.36,216.37s-7.57-32.44,27.25-60.64C-47.46,139.83,13.42,96.81,79,141c75.21,50.69,156.55,107.33,42.58,112.14S-82.47,259.08-94.36,216.37Z" transform="translate(95.05 66.57)"/><path class="cls-41" d="M-94.36,218.71s-7.57-32.44,27.25-60.64C-47.46,142.17,13.42,99.15,79,143.32,154.17,194,235.51,250.65,121.54,255.46S-82.47,261.42-94.36,218.71Z" transform="translate(95.05 66.57)"/><path class="cls-8" d="M635.06,100.45s-35.93,16.91-203.88,48l-23.61-135C411.3,11.46,439-.26,516,9.42c93.55,11.76,181.65,56.63,127.76,86.71" transform="translate(95.05 66.57)"/><path class="cls-42" d="M635,103S599.06,119.92,431.11,151L407.5,16c3.73-2,31.39-13.66,108.4-4,93.55,11.76,181.65,56.64,127.76,86.71" transform="translate(95.05 66.57)"/><path class="cls-43" d="M138.21,233.1c19.44,2.72,22.71,1.69,98.37,1.61,16.11,0,84.56,0,222.19-4.36,57.88-1.82,145.08-15,168.81-26,7.93-3.65,23.72-12.39,24.29-36.37,1.29-54.63-46.53-86.08-61.6-101.39-14.06-14.29-49.63-31.57-59.07-35.38-115-46.45-208.43-60.57-208.43-60.57-22.36-5.14-198.61-43-299.1,62.78-9.24,9.72-66.05,68.86-49.42,120.22C-6.59,212.81,98.9,227.59,138.21,233.1Z" transform="translate(95.05 66.57)"/><path class="cls-44" d="M135.08,238.26c19.44,2.72,22.7,1.69,98.37,1.61,16.1,0,84.55,0,222.19-4.36,57.88-1.82,145.08-15,168.81-26,7.93-3.65,23.72-12.4,24.29-36.37,1.29-54.64-46.53-86.09-61.6-101.4-14.07-14.29-49.63-31.56-59.07-35.38C413.09-10,319.63-24.18,319.63-24.18,297.28-29.32,121-67.2,20.54,38.6c-9.24,9.73-66,68.87-49.42,120.22C-9.72,218,95.77,232.75,135.08,238.26Z" transform="translate(95.05 66.57)"/><path class="cls-45" d="M2683,446.07s19.23,11.44,18.86,28.08c-.06,2.92.18,11.85-6.31,15.76-4.52,2.71-10,1.63-10.81,1.46-10.2-2.16-16.28-13.64-22.23-24.88-4.86-9.2-7.1-16.37-12.88-17.17-.69-.09-2.94-.4-4.32.81-4.31,3.74,3.13,19.2,11.47,30.11,6.54,8.56,12.23,12.47,10.75,17.67-1.14,4-5.83,6.1-6.27,6.29-3.76,1.59-7.93,1.07-13.8-1.05a68.41,68.41,0,0,1-22.41-13.43,293,293,0,0,1-33.51-38.29l-5,4.59,9.31,14.4a26.84,26.84,0,0,0-28-11.78A51.06,51.06,0,0,1,2588,471.07c7.26,7.57,7.6,13.51,15.05,24.23a85.49,85.49,0,0,0,17.21,18.33c17.33,13.16,40.64,12.82,52.33,11.78,4.88.54,11.4,2.06,16.49,6.55,2.18,1.92,10.34,9.94,5.1,41.94,0,0-2.93,17.88-18,57.84l80.29.35c9.78,3.17,28,8.16,33.23,1.87,2.62-3.16,1-8,.26-10.21-9-27-15.86-47.71-18.62-64.64-1.76-10.78-1.87-20.05.14-28.46.69-2.9,6-23.77,22.22-29.46,9-3.15,13.08,1.21,25.81,0,24.76-2.36,40.93-21.87,42.29-23.57C2874.41,462,2878,439.43,2878,439.43l-10.69,1.43c-.49,3.95-3.47,24.78-20.6,32.83-2,1-11.39,5.36-17.13,1.78-8.06-5-3.12-22.11-2.21-23.71,3.45-6.12,11.5-17.77,11.5-17.77l-26.57,3c1.26,14.76-4.42,27.74-15.27,33.17-1.45.72-9.72,4.86-16.3,1.77-8-3.73-11.35-17.06-5.14-32.54l-9.78-3.26s-6,51.76-15,57.08c-15.53,9.2-27-22.15-23-53.82h-11.51s7.48,34.63-1.72,22.26c-3.3-4.42-9.26-9.75-18.41-15.62" transform="translate(95.05 66.57)"/><path class="cls-36" d="M2770.32,563.07c-5.29-2-17.2,11.06-23.78,21.71-4.78,7.75-11.66,22.16-11.08,43.84l.69,5.61,54.91-6c-5.06-14.93-8.41-25.92-10.58-33.42-2-6.92-4.77-13.67-6.37-20.67C2772.4,566.62,2772.41,563.88,2770.32,563.07Z" transform="translate(95.05 66.57)"/><path class="cls-37" d="M2764.91,610.16a10.4,10.4,0,0,1-7.39-2.94,3.28,3.28,0,0,1-1.07-2.69,3.57,3.57,0,0,1,1.84-2.3,10,10,0,0,1,2.6-1.09,7.78,7.78,0,0,1,2.84-.18,10.92,10.92,0,0,1,2.74.62,16.81,16.81,0,0,1,8.51,7,9.8,9.8,0,0,1,1.12,2.66,6.93,6.93,0,0,1,.16,3A6.28,6.28,0,0,1,2775,617a8.17,8.17,0,0,1-2.24,1.92,16.83,16.83,0,0,1-5.29,1.87,27.09,27.09,0,0,1-5.48.54,17.93,17.93,0,0,1-10.5-3.15,12.4,12.4,0,0,1-5.21-9.46,15.4,15.4,0,0,1,3.62-10,15.63,15.63,0,0,0-2.83,10,11.39,11.39,0,0,0,5.13,8.5,17.19,17.19,0,0,0,9.8,2.63,26.65,26.65,0,0,0,5.17-.56,15.17,15.17,0,0,0,4.76-1.7,5.25,5.25,0,0,0,2.76-3.58,7,7,0,0,0-1.05-4.61,14.6,14.6,0,0,0-3.26-3.89,16.22,16.22,0,0,0-4.36-2.68,10.05,10.05,0,0,0-2.44-.67,6.67,6.67,0,0,0-2.48.06,8.8,8.8,0,0,0-2.37.88,2.79,2.79,0,0,0-1.52,1.66,2.58,2.58,0,0,0,.74,2.15,9,9,0,0,0,2,1.68,11.28,11.28,0,0,0,2.36,1.17A6.27,6.27,0,0,0,2764.91,610.16Z" transform="translate(95.05 66.57)"/><path class="cls-46" d="M2786.2,371.7s19.48-8.91,50.09-8.78,64.89,19.79,55.43,32.31-15.24,19.7-57.66,19.59S2743.35,395.58,2786.2,371.7Z" transform="translate(95.05 66.57)"/><path class="cls-8" d="M2737.52,285.27c81.27,25.79,88.66,58.7,86.65,73.9,0,0-.41,25.95-85.53,54.11h0s-50.06,22.59-141.38,13.45c-27.71-2.78-73.25-15.29-78.92-45.45-4.16-22.18,15.42-45.33,22.5-53.71C2598.54,259.36,2710.11,279.57,2737.52,285.27Z" transform="translate(95.05 66.57)"/><path class="cls-47" d="M2734.92,286c81.28,25.71,88.69,58.5,86.69,73.63,0,0-.4,25.85-85.51,53.86h0s-50,22.48-141.36,13.33c-27.71-2.77-73.26-15.25-78.94-45.29-4.17-22.1,15.4-45.14,22.47-53.48C2595.94,260.09,2707.52,280.27,2734.92,286Z" transform="translate(95.05 66.57)"/><path class="cls-48" d="M2511.27,437.78s-4.26-16.65,15.32-31.12c11-8.16,45.25-30.24,82.07-7.57,42.27,26,88,55.07,23.94,57.54S2518,459.69,2511.27,437.78Z" transform="translate(95.05 66.57)"/><path class="cls-49" d="M2511.27,439s-4.26-16.65,15.32-31.12c11-8.16,45.25-30.24,82.07-7.57,42.27,26,88,55.08,23.94,57.54S2518,460.9,2511.27,439Z" transform="translate(95.05 66.57)"/><path class="cls-8" d="M2921.17,378.29S2901,387,2806.6,402.89l-13.27-69.27c2.1-1,17.64-7,60.91-2.05,52.57,6,102.08,29.07,71.8,44.5" transform="translate(95.05 66.57)"/><path class="cls-50" d="M2921.13,379.6s-20.19,8.68-114.57,24.6l-13.27-69.27c2.1-1,17.64-7,60.92-2,52.56,6,102.07,29.06,71.79,44.49" transform="translate(95.05 66.57)"/><path class="cls-51" d="M2642,446.36c10.92,1.4,12.75.87,55.27.83,9.05,0,47.52,0,124.86-2.24,32.53-.93,81.53-7.71,94.86-13.33,4.46-1.87,13.33-6.36,13.65-18.66.73-28-26.15-44.18-34.61-52-7.91-7.34-27.89-16.2-33.2-18.16-64.61-23.83-117.13-31.08-117.13-31.08-12.56-2.64-111.6-22.08-168.07,32.22-5.19,5-37.12,35.33-27.77,61.69C2560.59,436,2619.87,443.53,2642,446.36Z" transform="translate(95.05 66.57)"/><path class="cls-52" d="M2640.21,449c10.92,1.39,12.75.86,55.27.82,9.05,0,47.52,0,124.86-2.23,32.53-.94,81.53-7.72,94.86-13.33,4.46-1.87,13.33-6.36,13.65-18.67.73-28-26.15-44.17-34.61-52-7.91-7.33-27.89-16.2-33.2-18.15-64.61-23.84-117.13-31.09-117.13-31.09-12.56-2.63-111.6-22.08-168.07,32.22-5.19,5-37.12,35.34-27.77,61.69C2558.83,438.6,2618.11,446.18,2640.21,449Z" transform="translate(95.05 66.57)"/><rect class="cls-53" x="75.77" y="731.46" width="3009.72" height="53.65"/><path class="cls-54" d="M-13.53,348.9s103.41-37.44,80.2,55.55c75.15-54.7,118.25-4.1,108.3,47.87,57.47-8.21,108.3,95.73,67.41,124.45,0,0,58.57-38.3,117.14,19.14,35.36-60.17,217.7,21.88,233.17,68.38-71.83,1.37-606.22,0-606.22,0Z" transform="translate(95.05 66.57)"/><path class="cls-55" d="M2167.2,664.9s46.87-39.67,117.18-25.13c12.09-21.81,56.7-31.07,106.59-5.95-43.85-55.53-15.12-15.86-31.75-38.34s21.17-55.53,42.33-5.29l12.86,30.41s-12.1-28.23-12.86-56.76,24.95-33.15,31.76,6.52c4.53,40.33,3.78,51.56,3.78,51.56s5.83.34,9.75-3.76c3.55-3.73,3.34-9,3.1-14.95-.22-5.4-1.22-7.13-2.73-16,0,0-.88-5.13-1.68-12.45-.57-5.15-2.09-19,1.06-31.48,1.1-4.37,6.63-26.27,21-30.33,17.65-5,41,19,45,36.25,1.68,7.13,3.24,27.27,3.29,31.26.08,7-.7-3.11,7.3-31.92,12.85-46.28,82.4-50.24,78.62,7.27l-3,27.77,3.18,2s57.09-58.17,96.88-48.26c.49,30.41,0,127.6,0,127.6Z" transform="translate(95.05 66.57)"/><path class="cls-56" d="M1519.61,664.9s25.25-88.11,113.11-50.74c-15.15-48.48,76.76-53.47,90.9-5,9.09-43.46,44.43-33.93,70.69,10.91,17.17-29.12,61.61-5.1,68.68,7.13,18.18-27.16,65.64,23.34,65.64,23.34,11.19-3.06,34-7.53,60.35.13a107.79,107.79,0,0,1,29.45,13.65Z" transform="translate(95.05 66.57)"/><polygon class="cls-57" points="96.7 758.29 95.06 980.87 2788.05 980.87 2796.49 758.29 96.7 758.29"/><path class="cls-58" d="M1.45,803.77S521,823.83,832.52,842.52c308.4,18.69,1785.88,49.84,1866.4,21.81L2695,718.55,1.65,691.72Z" transform="translate(95.05 66.57)"/><rect class="cls-53" x="75.77" y="731.46" width="3009.72" height="53.65"/><path class="cls-59" d="M1.65,718.55v59.94s995.83-27.13,1189.07-20.42,546.12,18.79,576.32,14.76,45-12.07,26.19-24.15,25.49-16.1,99.3-16.1,500.52-6.71,524.67-5.37,277.78,8,277.78,8V718.55" transform="translate(95.05 66.57)"/><path class="cls-60" d="M2533.94,898.5s-6.45-101.59,95.14-87.07c4,7.25-62.89,6.45-80.62,87.07C2546,901.72,2533.94,898.5,2533.94,898.5Z" transform="translate(95.05 66.57)"/><path class="cls-60" d="M2513.47,900s-7.33-72.73,14.67-90,24.83-12.75,24.26-9.93S2523.63,819,2525.32,855s2.82,45,2.82,45Z" transform="translate(95.05 66.57)"/><path class="cls-60" d="M2503.88,900s-18.05-54.78-7.9-79.61,22.57-24,25.95-23-20.39,14.73-14.52,57.6S2518,900,2518,900Z" transform="translate(95.05 66.57)"/><path class="cls-60" d="M2488.08,900s-19.74-44.06-32.16-58.73-46.82-19.18-53.6-27.65,53-11.43,73.91,24.83c23.7,31,27.65,61.55,27.65,61.55" transform="translate(95.05 66.57)"/><path class="cls-60" d="M2474.54,900s-27.08-49.14-80.68-31.09c-32.72,11.85-13-8.68,16.93-20.42s67.7,17.15,80.11,51.51Z" transform="translate(95.05 66.57)"/><path class="cls-61" d="M-4.7,652.61s-9.91,3.06,20.36-47.87,88.8-37.68,62.57,53C50,745.29-6.25,849.18-6.25,849.18s49.16-65.66,112.73-124,95.87-11.47,43.39,48.62-115,115.09-115,115.09l92.84-39.72s-24.22,10.19,53.49-22.41c37.33-8.14,38.34,55-11.1,66.21L161,899.92l-166.9.43Z" transform="translate(95.05 66.57)"/><path class="cls-62" d="M89.43,789s33.08-5.41,39.6-9.19C129,779.84,103.61,781.24,89.43,789Z" transform="translate(95.05 66.57)"/><path class="cls-62" d="M-18.72,877l167-147.92c-18.26,20.24-38.71,41.24-61.5,62.43A996.14,996.14,0,0,1-18.72,877Z" transform="translate(95.05 66.57)"/><path class="cls-62" d="M77.34,793.24s-1.52-26,2.64-32.2c0,0,2.63,23.55,0,27.88Z" transform="translate(95.05 66.57)"/><path class="cls-62" d="M32.18,830.74S40.65,801.61,43.93,799C43.93,799,39.5,824.34,32.18,830.74Z" transform="translate(95.05 66.57)"/><path class="cls-62" d="M-10.21,771.35Q18.72,686.18,47.67,601-4.89,782.66-10.21,781.26-11.41,780.95-10.21,771.35Z" transform="translate(95.05 66.57)"/><path class="cls-62" d="M13.22,703.35S-2.16,658.37-2.49,653c0,0,16.62,36.35,17.5,45S13.22,703.35,13.22,703.35Z" transform="translate(95.05 66.57)"/><path class="cls-62" d="M6.34,733l37.59-23.45S20.19,731.74,6.34,735,6.34,733,6.34,733Z" transform="translate(95.05 66.57)"/><path class="cls-62" d="M68.68,898.12s81.37-35.23,94-42.31c0,0-56.61,36.5-82.77,42.31S68.68,898.12,68.68,898.12Z" transform="translate(95.05 66.57)"/><path class="cls-62" d="M104.93,882.27l28.76-31.18S122.93,878.07,104.93,882.27Z" transform="translate(95.05 66.57)"/><path class="cls-63" d="M310,729.12s12.77-62.56,90.16-65,81.39,55.69,46.28,65C394.57,730.4,310,729.12,310,729.12Z" transform="translate(95.05 66.57)"/><path class="cls-64" d="M462.54,718.55s6.23-17.66,35.75-21.66,55.06,24.57,31.12,32.23c-60.64,3.67-66.87.57-66.87.57S450.73,724.25,462.54,718.55Z" transform="translate(95.05 66.57)"/><path class="cls-65" d="M576.82,730.91S588,729.07,607,729.69s30.62,7.91-4.37,9.36C572.45,736.62,563.21,737.35,576.82,730.91Z" transform="translate(95.05 66.57)"/><path class="cls-66" d="M981.55,725.72s11.18-1.84,30.14-1.22,30.62,7.91-4.38,9.37C977.18,731.44,967.94,732.16,981.55,725.72Z" transform="translate(95.05 66.57)"/><path class="cls-67" d="M1189.16,726.16s11.18-1.84,30.14-1.22,30.62,7.91-4.38,9.37C1184.79,731.88,1175.55,732.6,1189.16,726.16Z" transform="translate(95.05 66.57)"/><path class="cls-68" d="M822.76,49.22s40.21-22.93,75.44-8c35.22,15.62,14.59,33.57-15,32.9,0,0-12.11,2-40.44,0S803.82,60.19,822.76,49.22Z" transform="translate(95.05 66.57)"/><path class="cls-69" d="M1526.87,135.77s25.39-5.13,63.86-11.42,71.55,40.4-3.08,42.45-30,1-68.47,0S1486.56,143.21,1526.87,135.77Z" transform="translate(95.05 66.57)"/><path class="cls-70" d="M1907.71,35.81a139.85,139.85,0,0,1,59.72-11.65c37.08,1,73.09,17.1,70.39,26-2.07,6.77-27.17,11.13-41.63,11.13-72.18,0-27.36,1.09-72.18,0-10.07-.25-22.66-2-26.69-7.36C1893.6,49,1898.12,41.67,1907.71,35.81Z" transform="translate(95.05 66.57)"/><path class="cls-71" d="M2387.6,139.17s40.21-22.92,75.43-8c35.23,15.62,14.6,33.56-15,32.9,0,0-12.11,2-40.44,0S2368.66,150.14,2387.6,139.17Z" transform="translate(95.05 66.57)"/></g></svg>