<svg id="Layer_1" data-name="Layer 1" xmlns="http://www.w3.org/2000/svg" xmlns:xlink="http://www.w3.org/1999/xlink" viewBox="0 0 3245.95 984.9"><defs><style>.cls-1{fill:none;}.cls-2{clip-path:url(#clip-path);}.cls-3{fill:url(#linear-gradient);}.cls-4{fill:url(#linear-gradient-2);}.cls-5{fill:url(#linear-gradient-3);}.cls-6{fill:url(#linear-gradient-4);}.cls-7{fill:#69bc46;}.cls-8{fill:url(#linear-gradient-5);}.cls-9{fill:url(#linear-gradient-6);}.cls-10{fill:url(#linear-gradient-7);}.cls-11{fill:url(#linear-gradient-8);}.cls-12{fill:url(#linear-gradient-9);}.cls-13{fill:url(#linear-gradient-10);}.cls-14{fill:url(#linear-gradient-11);}.cls-15{fill:url(#linear-gradient-12);}.cls-16{fill:url(#linear-gradient-13);}.cls-17{fill:url(#linear-gradient-14);}.cls-18{fill:url(#linear-gradient-15);}.cls-19{fill:url(#linear-gradient-16);}.cls-20{fill:url(#linear-gradient-17);}.cls-21{fill:url(#linear-gradient-18);}.cls-22{fill:url(#linear-gradient-19);}.cls-23{fill:url(#linear-gradient-20);}.cls-24{fill:url(#linear-gradient-21);}.cls-25{fill:url(#linear-gradient-22);}.cls-26{fill:url(#linear-gradient-23);}.cls-27{fill:url(#linear-gradient-24);}.cls-28{fill:url(#linear-gradient-25);}.cls-29{fill:#535f2a;}.cls-30{fill:url(#linear-gradient-26);}.cls-31{fill:url(#linear-gradient-27);}.cls-32{fill:url(#linear-gradient-28);}.cls-33{fill:url(#linear-gradient-29);}.cls-34{fill:url(#linear-gradient-30);}.cls-35{fill:url(#linear-gradient-31);}.cls-36{fill:url(#linear-gradient-32);}.cls-37{fill:url(#linear-gradient-33);}.cls-38{fill:url(#linear-gradient-34);}.cls-39{fill:url(#linear-gradient-35);}.cls-40{fill:url(#linear-gradient-36);}.cls-41{fill:url(#linear-gradient-37);}.cls-42{fill:url(#linear-gradient-38);}.cls-43{fill:url(#linear-gradient-39);}.cls-44{fill:url(#linear-gradient-40);}.cls-45{fill:url(#linear-gradient-41);}.cls-46{fill:url(#linear-gradient-42);}.cls-47{fill:#58b847;}.cls-48{fill:url(#linear-gradient-43);}.cls-49{fill:#465146;}.cls-50{fill:url(#linear-gradient-44);}.cls-51{fill:url(#linear-gradient-45);}.cls-52{fill:url(#linear-gradient-46);}.cls-53{fill:url(#linear-gradient-47);}.cls-54{fill:url(#linear-gradient-48);}.cls-55{fill:url(#linear-gradient-49);}.cls-56{fill:url(#linear-gradient-50);}.cls-57{fill:url(#linear-gradient-51);}.cls-58{fill:#215958;opacity:0.58;}.cls-59{fill:url(#linear-gradient-52);}.cls-60{fill:url(#linear-gradient-53);}.cls-61{fill:url(#linear-gradient-54);}.cls-62{fill:url(#linear-gradient-55);}.cls-63{opacity:0.72;fill:url(#linear-gradient-56);}.cls-64{opacity:0.82;fill:url(#linear-gradient-57);}.cls-65{fill:#1f5c2e;opacity:0.85;}.cls-66{fill:#be9746;}.cls-67{fill:#a8c794;}.cls-68{fill:#4db548;}.cls-69{fill:url(#linear-gradient-58);}.cls-70{fill:url(#linear-gradient-59);}.cls-71{fill:url(#linear-gradient-60);}.cls-72{fill:url(#linear-gradient-61);}.cls-73{fill:#455f42;}.cls-74{fill:url(#linear-gradient-62);}.cls-75{fill:#325b6b;}.cls-76{fill:url(#linear-gradient-63);}.cls-77{fill:url(#linear-gradient-64);}.cls-78{fill:url(#linear-gradient-65);}.cls-79{fill:#142518;}.cls-80{fill:#132116;}.cls-81{fill:#1a2b1a;}</style><clipPath id="clip-path" transform="translate(255.51 79.17)"><rect class="cls-1" width="2693" height="900.71"/></clipPath><linearGradient id="linear-gradient" x1="1612.21" y1="1144.28" x2="1580.17" y2="-791.21" gradientUnits="userSpaceOnUse"><stop offset="0.09" stop-color="#cceaf7"/><stop offset="0.24" stop-color="#d0eaf5"/><stop offset="0.29" stop-color="#cbe8f4"/><stop offset="0.35" stop-color="#bde3f1"/><stop offset="0.41" stop-color="#a6dbed"/><stop offset="0.47" stop-color="#86cfe6"/><stop offset="0.51" stop-color="#6dc6e1"/></linearGradient><linearGradient id="linear-gradient-2" x1="2007.28" y1="838.65" x2="2234.3" y2="11.69" gradientUnits="userSpaceOnUse"><stop offset="0.09" stop-color="#acd5e4"/><stop offset="0.47" stop-color="#aed6e5"/><stop offset="0.73" stop-color="#b3d9e8"/><stop offset="0.74" stop-color="#b3d9e8"/></linearGradient><linearGradient id="linear-gradient-3" x1="465.44" y1="821.37" x2="2101.63" y2="173.44" gradientUnits="userSpaceOnUse"><stop offset="0.09" stop-color="#8bc1d0"/><stop offset="0.39" stop-color="#91cadc"/><stop offset="0.45" stop-color="#93ccdf"/><stop offset="0.66" stop-color="#91cce0"/><stop offset="0.72" stop-color="#8dcbe1"/></linearGradient><linearGradient id="linear-gradient-4" x1="981.75" y1="570.08" x2="989.48" y2="426.02" gradientUnits="userSpaceOnUse"><stop offset="0.05" stop-color="#96a476"/><stop offset="0.24" stop-color="#6aa581"/><stop offset="0.43" stop-color="#47a68a"/><stop offset="0.58" stop-color="#32a78f"/><stop offset="0.68" stop-color="#2aa791"/><stop offset="0.74" stop-color="#249280"/><stop offset="0.83" stop-color="#1c796d"/><stop offset="0.91" stop-color="#186a61"/><stop offset="0.97" stop-color="#16655d"/></linearGradient><linearGradient id="linear-gradient-5" x1="980.54" y1="443.24" x2="1020.17" y2="423.21" gradientUnits="userSpaceOnUse"><stop offset="0" stop-color="#24a98a"/><stop offset="1" stop-color="#1aab93"/></linearGradient><linearGradient id="linear-gradient-6" x1="962.35" y1="477.56" x2="996.07" y2="417.66" gradientUnits="userSpaceOnUse"><stop offset="0" stop-color="#1fa87f"/><stop offset="0.57" stop-color="#22a884"/><stop offset="0.97" stop-color="#27a98c"/></linearGradient><linearGradient id="linear-gradient-7" x1="1000.01" y1="470.74" x2="1042.83" y2="449.43" gradientUnits="userSpaceOnUse"><stop offset="0.01" stop-color="#34a890"/><stop offset="0.48" stop-color="#38aa8e"/><stop offset="0.91" stop-color="#43ae86"/><stop offset="1" stop-color="#46b084"/></linearGradient><linearGradient id="linear-gradient-8" x1="938.9" y1="463.03" x2="959.05" y2="452.75" gradientUnits="userSpaceOnUse"><stop offset="0" stop-color="#1f886a"/><stop offset="0.23" stop-color="#238a69"/><stop offset="0.43" stop-color="#2e8f64"/><stop offset="0.63" stop-color="#40975d"/><stop offset="0.83" stop-color="#5aa353"/><stop offset="1" stop-color="#78b147"/></linearGradient><linearGradient id="linear-gradient-9" x1="939.17" y1="466.82" x2="962.84" y2="456.93" gradientUnits="userSpaceOnUse"><stop offset="0" stop-color="#24aa87"/><stop offset="1" stop-color="#25a986"/></linearGradient><linearGradient id="linear-gradient-10" x1="2150.1" y1="669.73" x2="2160.19" y2="481.48" gradientUnits="userSpaceOnUse"><stop offset="0.02" stop-color="#989454"/><stop offset="0.17" stop-color="#7c915c"/><stop offset="0.49" stop-color="#34886f"/><stop offset="0.59" stop-color="#1b8576"/><stop offset="0.68" stop-color="#19796d"/><stop offset="0.84" stop-color="#176a61"/><stop offset="0.97" stop-color="#16655d"/></linearGradient><linearGradient id="linear-gradient-11" x1="2124.74" y1="548.83" x2="2168.81" y2="470.55" gradientUnits="userSpaceOnUse"><stop offset="0" stop-color="#179f6f"/><stop offset="0.14" stop-color="#1a9b6d"/><stop offset="0.68" stop-color="#218e68"/></linearGradient><linearGradient id="linear-gradient-12" x1="2175.7" y1="537.4" x2="2221.73" y2="514.5" gradientUnits="userSpaceOnUse"><stop offset="0" stop-color="#288e61"/><stop offset="0.3" stop-color="#2c8f60"/><stop offset="0.57" stop-color="#37945e"/><stop offset="0.83" stop-color="#499b5a"/><stop offset="1" stop-color="#59a156"/></linearGradient><linearGradient id="linear-gradient-13" x1="2094.1" y1="529.84" x2="2120.43" y2="516.4" xlink:href="#linear-gradient-8"/><linearGradient id="linear-gradient-14" x1="2095.67" y1="527.06" x2="2122.95" y2="527.06" gradientUnits="userSpaceOnUse"><stop offset="0" stop-color="#368f63"/><stop offset="0.37" stop-color="#3a9160"/><stop offset="0.71" stop-color="#459557"/><stop offset="1" stop-color="#559c4a"/></linearGradient><linearGradient id="linear-gradient-15" x1="2094.46" y1="534.8" x2="2125.38" y2="521.87" gradientUnits="userSpaceOnUse"><stop offset="0" stop-color="#1f886a"/><stop offset="0.26" stop-color="#238a68"/><stop offset="0.5" stop-color="#2e8f64"/><stop offset="0.73" stop-color="#40985b"/><stop offset="0.95" stop-color="#5aa450"/><stop offset="1" stop-color="#61a74d"/></linearGradient><linearGradient id="linear-gradient-16" x1="590.26" y1="778.68" x2="1464.46" y2="178.33" gradientUnits="userSpaceOnUse"><stop offset="0.09" stop-color="#61bdc6"/><stop offset="0.44" stop-color="#55babb"/><stop offset="0.45" stop-color="#55babb"/><stop offset="0.63" stop-color="#53bbbb"/><stop offset="0.68" stop-color="#4fbcbc"/></linearGradient><linearGradient id="linear-gradient-17" x1="73.87" y1="841.87" x2="1234.27" y2="382.35" gradientUnits="userSpaceOnUse"><stop offset="0.08" stop-color="#047f4c"/><stop offset="0.21" stop-color="#0e8b57"/><stop offset="0.45" stop-color="#28aa75"/><stop offset="0.45" stop-color="#28aa75"/><stop offset="0.6" stop-color="#28ab77"/><stop offset="0.66" stop-color="#28ae7e"/><stop offset="0.7" stop-color="#29b389"/><stop offset="0.72" stop-color="#29b895"/></linearGradient><linearGradient id="linear-gradient-18" x1="29.25" y1="592.46" x2="160.83" y2="50.72" gradientUnits="userSpaceOnUse"><stop offset="0" stop-color="#a35140"/><stop offset="0.1" stop-color="#7d523a"/><stop offset="0.2" stop-color="#5c5335"/><stop offset="0.31" stop-color="#425430"/><stop offset="0.42" stop-color="#30552d"/><stop offset="0.54" stop-color="#25552c"/><stop offset="0.67" stop-color="#21552b"/></linearGradient><linearGradient id="linear-gradient-19" x1="262.47" y1="149.52" x2="420.68" y2="-14.74" gradientUnits="userSpaceOnUse"><stop offset="0" stop-color="#0d5f3f"/><stop offset="0.16" stop-color="#06724b"/><stop offset="0.28" stop-color="#008355"/><stop offset="0.42" stop-color="#24995c"/><stop offset="0.56" stop-color="#43ab62"/><stop offset="0.68" stop-color="#56b666"/><stop offset="0.76" stop-color="#5dba67"/></linearGradient><linearGradient id="linear-gradient-20" x1="-54.84" y1="224.87" x2="310.21" y2="-184.4" gradientUnits="userSpaceOnUse"><stop offset="0" stop-color="#0d5f3f"/><stop offset="0.27" stop-color="#157d66"/><stop offset="0.43" stop-color="#198a77"/><stop offset="0.76" stop-color="#21aa8b"/></linearGradient><linearGradient id="linear-gradient-21" x1="-202.48" y1="287.09" x2="-32.33" y2="74.88" xlink:href="#linear-gradient-19"/><linearGradient id="linear-gradient-22" x1="-202.48" y1="289.43" x2="-32.33" y2="77.22" gradientUnits="userSpaceOnUse"><stop offset="0.04" stop-color="#0d5e3f"/><stop offset="0.45" stop-color="#0d6f4f"/><stop offset="0.62" stop-color="#0b7455"/><stop offset="0.75" stop-color="#097b5e"/></linearGradient><linearGradient id="linear-gradient-23" x1="4903.2" y1="185.24" x2="4781.1" y2="-62.26" gradientTransform="matrix(-1, 0, 0, 1, 5274.86, 0)" gradientUnits="userSpaceOnUse"><stop offset="0" stop-color="#0d5f3f"/><stop offset="0.05" stop-color="#06724b"/><stop offset="0.09" stop-color="#008355"/><stop offset="0.26" stop-color="#24995c"/><stop offset="0.43" stop-color="#43ab62"/><stop offset="0.57" stop-color="#56b666"/><stop offset="0.67" stop-color="#5dba67"/></linearGradient><linearGradient id="linear-gradient-24" x1="-116.54" y1="106.79" x2="450.66" y2="106.79" gradientUnits="userSpaceOnUse"><stop offset="0" stop-color="#0d5f3f"/><stop offset="0.06" stop-color="#07724b"/><stop offset="0.09" stop-color="#038054"/><stop offset="0.27" stop-color="#2d965e"/><stop offset="0.44" stop-color="#4ca666"/><stop offset="0.58" stop-color="#5fb06a"/><stop offset="0.67" stop-color="#66b46c"/></linearGradient><linearGradient id="linear-gradient-25" x1="129.23" y1="267.32" x2="247.54" y2="-115.96" gradientUnits="userSpaceOnUse"><stop offset="0" stop-color="#0d7a63"/><stop offset="0.29" stop-color="#0f8d71"/><stop offset="0.33" stop-color="#0f9073"/><stop offset="0.36" stop-color="#119374"/><stop offset="0.61" stop-color="#20a87a"/><stop offset="0.77" stop-color="#26b07c"/></linearGradient><linearGradient id="linear-gradient-26" x1="-197.14" y1="688.96" x2="654.71" y2="351.63" gradientUnits="userSpaceOnUse"><stop offset="0.08" stop-color="#196856"/><stop offset="0.37" stop-color="#257252"/><stop offset="0.42" stop-color="#277451"/><stop offset="0.46" stop-color="#337a4e"/><stop offset="0.53" stop-color="#43824b"/><stop offset="0.61" stop-color="#4c8749"/><stop offset="0.72" stop-color="#4f8848"/></linearGradient><linearGradient id="linear-gradient-27" x1="1758.92" y1="609.44" x2="1919.73" y2="327.83" gradientUnits="userSpaceOnUse"><stop offset="0" stop-color="#7a5942"/><stop offset="0.12" stop-color="#765a42"/><stop offset="0.25" stop-color="#685b44"/><stop offset="0.38" stop-color="#535d46"/><stop offset="0.52" stop-color="#346149"/><stop offset="0.52" stop-color="#336149"/></linearGradient><linearGradient id="linear-gradient-28" x1="1939.61" y1="377.89" x2="2032.6" y2="281.34" xlink:href="#linear-gradient-19"/><linearGradient id="linear-gradient-29" x1="1752.91" y1="422.52" x2="1967.35" y2="182.1" gradientUnits="userSpaceOnUse"><stop offset="0" stop-color="#0d5f3f"/><stop offset="0.01" stop-color="#0e6141"/><stop offset="0.27" stop-color="#1c846e"/><stop offset="0.4" stop-color="#22927f"/><stop offset="0.76" stop-color="#1fb594"/></linearGradient><linearGradient id="linear-gradient-30" x1="1665.72" y1="458.06" x2="1928.31" y2="130.57" gradientUnits="userSpaceOnUse"><stop offset="0" stop-color="#0d5f3f"/><stop offset="0.21" stop-color="#1a6e52"/><stop offset="0.28" stop-color="#1f7359"/><stop offset="0.35" stop-color="#2c815c"/><stop offset="0.52" stop-color="#47a062"/><stop offset="0.66" stop-color="#57b366"/><stop offset="0.76" stop-color="#5dba67"/></linearGradient><linearGradient id="linear-gradient-31" x1="1665.72" y1="459.42" x2="1765.66" y2="334.77" xlink:href="#linear-gradient-22"/><linearGradient id="linear-gradient-32" x1="3270.77" y1="398.45" x2="3199.43" y2="253.86" xlink:href="#linear-gradient-23"/><linearGradient id="linear-gradient-33" x1="1789.78" y1="502.62" x2="2105.17" y2="69.96" gradientUnits="userSpaceOnUse"><stop offset="0" stop-color="#0d7a57"/><stop offset="0.16" stop-color="#0d7a57"/><stop offset="0.23" stop-color="#1e875b"/><stop offset="0.38" stop-color="#3e9f61"/><stop offset="0.53" stop-color="#55b066"/><stop offset="0.66" stop-color="#63ba69"/><stop offset="0.78" stop-color="#68be6a"/></linearGradient><linearGradient id="linear-gradient-34" x1="911.35" y1="952.02" x2="2527.84" y2="311.89" gradientUnits="userSpaceOnUse"><stop offset="0.2" stop-color="#218d7c"/><stop offset="0.36" stop-color="#20927f"/><stop offset="0.5" stop-color="#1e9c84"/><stop offset="0.72" stop-color="#189e7e"/></linearGradient><linearGradient id="linear-gradient-35" x1="2457.15" y1="673.17" x2="2474.08" y2="357.44" gradientUnits="userSpaceOnUse"><stop offset="0.02" stop-color="#79a357"/><stop offset="0.22" stop-color="#76a258"/><stop offset="0.34" stop-color="#6ea05a"/><stop offset="0.44" stop-color="#609b5f"/><stop offset="0.53" stop-color="#4b9565"/><stop offset="0.62" stop-color="#318d6d"/><stop offset="0.69" stop-color="#118477"/><stop offset="0.76" stop-color="#13796e"/><stop offset="0.88" stop-color="#156a61"/><stop offset="0.97" stop-color="#16655d"/></linearGradient><linearGradient id="linear-gradient-36" x1="2454.49" y1="395.18" x2="2541.36" y2="351.28" gradientUnits="userSpaceOnUse"><stop offset="0.04" stop-color="#227d57"/><stop offset="1" stop-color="#1e8c64"/></linearGradient><linearGradient id="linear-gradient-37" x1="2381.45" y1="387.65" x2="2532.12" y2="387.65" gradientUnits="userSpaceOnUse"><stop offset="0" stop-color="#1b8465"/><stop offset="0.5" stop-color="#178666"/><stop offset="0.96" stop-color="#0c8e6a"/><stop offset="1" stop-color="#0b8f6b"/></linearGradient><linearGradient id="linear-gradient-38" x1="2414.62" y1="470.39" x2="2488.54" y2="339.11" gradientUnits="userSpaceOnUse"><stop offset="0" stop-color="#1a9f6e"/><stop offset="0.16" stop-color="#169a6e"/><stop offset="0.62" stop-color="#0d906d"/></linearGradient><linearGradient id="linear-gradient-39" x1="2497.16" y1="455.46" x2="2591.03" y2="408.75" gradientUnits="userSpaceOnUse"><stop offset="0" stop-color="#1b8465"/><stop offset="0.23" stop-color="#1f8664"/><stop offset="0.44" stop-color="#2a8b61"/><stop offset="0.64" stop-color="#3c935b"/><stop offset="0.84" stop-color="#569f54"/><stop offset="1" stop-color="#71ac4c"/></linearGradient><linearGradient id="linear-gradient-40" x1="2363.23" y1="438.55" x2="2407.39" y2="416.01" xlink:href="#linear-gradient-8"/><linearGradient id="linear-gradient-41" x1="2363.83" y1="446.87" x2="2415.7" y2="425.18" gradientUnits="userSpaceOnUse"><stop offset="0" stop-color="#1f886a"/><stop offset="0.23" stop-color="#238a69"/><stop offset="0.44" stop-color="#2e8f64"/><stop offset="0.65" stop-color="#40975d"/><stop offset="0.84" stop-color="#5aa353"/><stop offset="1" stop-color="#74af49"/></linearGradient><linearGradient id="linear-gradient-42" x1="2117.29" y1="770.76" x2="2785.34" y2="506.21" gradientUnits="userSpaceOnUse"><stop offset="0.2" stop-color="#147c65"/><stop offset="0.38" stop-color="#198165"/><stop offset="0.49" stop-color="#208865"/><stop offset="0.72" stop-color="#339263"/></linearGradient><linearGradient id="linear-gradient-43" x1="255.42" y1="1402.22" x2="2478.33" y2="266.16" gradientUnits="userSpaceOnUse"><stop offset="0.11" stop-color="#4995bd"/><stop offset="0.23" stop-color="#4e9ac1"/><stop offset="0.38" stop-color="#5ca8ce"/><stop offset="0.51" stop-color="#70bbe0"/><stop offset="0.6" stop-color="#73bede"/><stop offset="0.67" stop-color="#7dc7d6"/><stop offset="0.68" stop-color="#80cad3"/><stop offset="0.84" stop-color="#79cdd8"/></linearGradient><linearGradient id="linear-gradient-44" x1="252.32" y1="1290.52" x2="2431.11" y2="177.01" gradientUnits="userSpaceOnUse"><stop offset="0.01" stop-color="#38793a"/><stop offset="0.48" stop-color="#38823f"/><stop offset="0.58" stop-color="#358440"/><stop offset="0.65" stop-color="#2b8a43"/><stop offset="0.67" stop-color="#298c44"/><stop offset="0.7" stop-color="#308e44"/><stop offset="0.76" stop-color="#449242"/><stop offset="0.82" stop-color="#649940"/><stop offset="0.84" stop-color="#6c9b40"/></linearGradient><linearGradient id="linear-gradient-45" x1="95.16" y1="957.77" x2="962.17" y2="514.67" gradientUnits="userSpaceOnUse"><stop offset="0.11" stop-color="#38793b"/><stop offset="0.26" stop-color="#3d7e3c"/><stop offset="0.44" stop-color="#4a8c41"/><stop offset="0.51" stop-color="#519443"/><stop offset="0.58" stop-color="#549442"/><stop offset="0.63" stop-color="#5e9441"/><stop offset="0.67" stop-color="#6e933e"/><stop offset="0.68" stop-color="#74933d"/><stop offset="0.76" stop-color="#7b8f3e"/><stop offset="0.84" stop-color="#89883f"/></linearGradient><linearGradient id="linear-gradient-46" x1="189.01" y1="766.52" x2="3455.25" y2="754.67" gradientUnits="userSpaceOnUse"><stop offset="0.18" stop-color="#123357"/><stop offset="0.34" stop-color="#1a3863"/><stop offset="0.61" stop-color="#243f72"/><stop offset="0.83" stop-color="#274177"/></linearGradient><linearGradient id="linear-gradient-47" x1="191.59" y1="768.22" x2="3457.85" y2="756.36" gradientUnits="userSpaceOnUse"><stop offset="0.18" stop-color="#4f5a73"/><stop offset="0.83" stop-color="#4f5a73"/></linearGradient><linearGradient id="linear-gradient-48" x1="240.8" y1="766.1" x2="387.93" y2="669.81" gradientUnits="userSpaceOnUse"><stop offset="0" stop-color="#fbf5ee"/><stop offset="0" stop-color="#fff"/><stop offset="0.01" stop-color="#674221"/><stop offset="0.29" stop-color="#8b5724"/><stop offset="0.65" stop-color="#b36f28"/><stop offset="0.83" stop-color="#c37829"/></linearGradient><linearGradient id="linear-gradient-49" x1="132.33" y1="777.48" x2="493.05" y2="593.13" gradientUnits="userSpaceOnUse"><stop offset="0.01" stop-color="#382116"/><stop offset="0.04" stop-color="#4b2e1c"/><stop offset="0.26" stop-color="#815121"/><stop offset="0.34" stop-color="#945c23"/><stop offset="0.52" stop-color="#c37829"/></linearGradient><linearGradient id="linear-gradient-50" x1="105.56" y1="743.9" x2="204.09" y2="621.17" gradientUnits="userSpaceOnUse"><stop offset="0.01" stop-color="#382116"/><stop offset="0.04" stop-color="#4b2e1c"/><stop offset="0.13" stop-color="#815121"/><stop offset="0.21" stop-color="#945c23"/><stop offset="0.35" stop-color="#c37829"/></linearGradient><linearGradient id="linear-gradient-51" x1="393.62" y1="762.85" x2="480.17" y2="691.12" gradientUnits="userSpaceOnUse"><stop offset="0.01" stop-color="#815121"/><stop offset="0.12" stop-color="#8b5722"/><stop offset="0.59" stop-color="#b46f27"/><stop offset="0.83" stop-color="#c37829"/></linearGradient><linearGradient id="linear-gradient-52" x1="2.8" y1="752.68" x2="96.29" y2="752.68" gradientUnits="userSpaceOnUse"><stop offset="0" stop-color="#44853f"/><stop offset="0" stop-color="#41843f"/><stop offset="0.04" stop-color="#008053"/><stop offset="0.83" stop-color="#689a41"/></linearGradient><linearGradient id="linear-gradient-53" x1="-21.01" y1="674" x2="60.66" y2="674" gradientUnits="userSpaceOnUse"><stop offset="0.01" stop-color="#3d823f"/><stop offset="0.55" stop-color="#659740"/><stop offset="0.83" stop-color="#749f40"/></linearGradient><linearGradient id="linear-gradient-54" x1="74.36" y1="761.02" x2="183.87" y2="761.02" xlink:href="#linear-gradient-52"/><linearGradient id="linear-gradient-55" x1="25.71" y1="743.9" x2="166.44" y2="671.98" xlink:href="#linear-gradient-52"/><linearGradient id="linear-gradient-56" x1="2009.3" y1="809.12" x2="2486.61" y2="809.12" gradientUnits="userSpaceOnUse"><stop offset="0.51" stop-color="#a6dce4"/><stop offset="0.66" stop-color="#a9dde6"/><stop offset="0.69" stop-color="#abdee8"/><stop offset="0.84" stop-color="#b0dfe8"/></linearGradient><linearGradient id="linear-gradient-57" x1="1963.88" y1="814.61" x2="2598.71" y2="814.61" gradientUnits="userSpaceOnUse"><stop offset="0.01" stop-color="#addee2"/><stop offset="0.21" stop-color="#a1d8e5"/><stop offset="0.51" stop-color="#87cbea"/><stop offset="0.59" stop-color="#86cbe7"/><stop offset="0.65" stop-color="#83cadd"/><stop offset="0.69" stop-color="#80c9d2"/><stop offset="0.77" stop-color="#84cdd9"/><stop offset="0.84" stop-color="#8bd3e4"/></linearGradient><linearGradient id="linear-gradient-58" x1="747.44" y1="148.53" x2="847.99" y2="-42.95" gradientUnits="userSpaceOnUse"><stop offset="0.07" stop-color="#73c4d7"/><stop offset="0.22" stop-color="#8bcede"/><stop offset="0.53" stop-color="#c9e9ef"/><stop offset="0.54" stop-color="#cbeaef"/></linearGradient><linearGradient id="linear-gradient-59" x1="1489.21" y1="256.25" x2="1607.66" y2="30.68" gradientUnits="userSpaceOnUse"><stop offset="0.12" stop-color="#74c5d8"/><stop offset="0.25" stop-color="#88cdde"/><stop offset="0.5" stop-color="#bbe3ec"/><stop offset="0.57" stop-color="#cae9f0"/></linearGradient><linearGradient id="linear-gradient-60" x1="2578.29" y1="171.22" x2="2667.43" y2="1.47" gradientUnits="userSpaceOnUse"><stop offset="0.01" stop-color="#83ccdd"/><stop offset="0.04" stop-color="#88cede"/><stop offset="0.27" stop-color="#a8dbe8"/><stop offset="0.49" stop-color="#bfe5ef"/><stop offset="0.69" stop-color="#cdebf4"/><stop offset="0.87" stop-color="#d2edf5"/></linearGradient><linearGradient id="linear-gradient-61" x1="2267.24" y1="271.9" x2="2331.85" y2="148.84" gradientUnits="userSpaceOnUse"><stop offset="0.01" stop-color="#85cddd"/><stop offset="0.43" stop-color="#bee4ed"/><stop offset="0.87" stop-color="#fff"/></linearGradient><linearGradient id="linear-gradient-62" x1="523.64" y1="843.96" x2="626.51" y2="752.12" gradientUnits="userSpaceOnUse"><stop offset="0" stop-color="#52863e"/><stop offset="0.13" stop-color="#5a8b3d"/><stop offset="0.33" stop-color="#6f993b"/><stop offset="0.57" stop-color="#92b036"/><stop offset="0.83" stop-color="#bfcd31"/></linearGradient><linearGradient id="linear-gradient-63" x1="593.17" y1="855.78" x2="706.63" y2="774.69" gradientUnits="userSpaceOnUse"><stop offset="0" stop-color="#2e803f"/><stop offset="0.2" stop-color="#5d9a39"/><stop offset="0.5" stop-color="#9ebf30"/><stop offset="0.72" stop-color="#c6d62b"/><stop offset="0.83" stop-color="#d6df29"/></linearGradient><linearGradient id="linear-gradient-64" x1="480.27" y1="859.53" x2="590.98" y2="786.27" gradientUnits="userSpaceOnUse"><stop offset="0" stop-color="#2e803f"/><stop offset="0.11" stop-color="#36843e"/><stop offset="0.27" stop-color="#4b903c"/><stop offset="0.47" stop-color="#6ea239"/><stop offset="0.69" stop-color="#9ebc34"/><stop offset="0.83" stop-color="#bfcd31"/></linearGradient><linearGradient id="linear-gradient-65" x1="765.07" y1="853.66" x2="894.13" y2="744.85" gradientUnits="userSpaceOnUse"><stop offset="0" stop-color="#509041"/><stop offset="0.07" stop-color="#5d973f"/><stop offset="0.43" stop-color="#9ebe33"/><stop offset="0.69" stop-color="#c6d62c"/><stop offset="0.83" stop-color="#d6df29"/></linearGradient></defs><g class="cls-2"><rect class="cls-3" x="255.51" y="79.17" width="2693" height="898.38"/><path class="cls-4" d="M1626.25,431.78s516.39-117.86,939,59.67l7,84.25-966.44-26.43Z" transform="translate(255.51 79.17)"/><path class="cls-5" d="M-14.12,306.91s0-92,448.72,23c210,34.52,319.28-80.54,376.81-106.42S1153.7,68.17,1671.46,422c396.94,201.35,733.48,163.95,1006.74,0s14.8-8.63,14.8-8.63q3.08,120.78,6.14,241.57L0,652.08Z" transform="translate(255.51 79.17)"/><path class="cls-6" d="M1020.21,462.06c-3,5.65-12.62,9.49-17.37,5.61a1.72,1.72,0,0,0-2.21-.3,9,9,0,0,0-6.74,8.65c6.77,56.49,2.18,90.37,2.18,90.37H974.84c-2.74-17.84.3-56.08,1.23-67.23.25-2.9-.79-16.13-.79-16.13s-1.62-8.54-2.92-10.75a24,24,0,0,0-5.08-5.94c-17.67-.81-11.46-2.87-11.46-2.87.91.74,10.94,0,11.85-.55s-3.89-15.47-3.89-15.47h3.41c.52,4.61,4.13,15.76,4.13,15.76,2.56,1.07,6.1-14.56,6.1-14.56h3.41s-5.73,12.48-3.26,11.29S984,449.75,984,449.75h2.62s-4.08,10.34-7.59,12.72-1.34,3.83-1.34,3.83c10.55,4.75,10.63-16.55,10.63-16.55h1.84c-1.17,10.85.53,15.37.53,15.37,8.93,1.61,11-15.37,11-15.37l2.89-1.1c.32,4.76-2.25,13.82-2.25,13.82a6.11,6.11,0,0,0,5.86,3.87c2.8.09,7-6.32,8.19-7.46Z" transform="translate(255.51 79.17)"/><path class="cls-7" d="M1020.77,434.61s-5.33-12.31-25.09-10.68-29.15,12.13,10,14.13C1005.72,438.06,1023.9,441.68,1020.77,434.61Z" transform="translate(255.51 79.17)"/><path class="cls-8" d="M1020.76,435.05s-5.39-12.32-25.39-10.69-29.52,12.14,10.16,14.13C1005.53,438.49,1023.94,442.12,1020.76,435.05Z" transform="translate(255.51 79.17)"/><path class="cls-7" d="M951.15,446.48s9.18,2.35,37,3.6c26.62,1.21,27.22-4.12,27.22-4.12s5.79-12.24-18.22-15.92C975,426.66,934.43,436.17,951.15,446.48Z" transform="translate(255.51 79.17)"/><path class="cls-9" d="M951.15,447.09s9.18,2.37,37,3.63c26.62,1.22,27.22-4.15,27.22-4.15s5.79-12.34-18.22-16.05C975,427.11,934.43,436.7,951.15,447.09Z" transform="translate(255.51 79.17)"/><path class="cls-7" d="M1009.6,461.56s16.51,2,30.51,0,5.09-12.17,0-13.4c-5.31-1.28-17.7-1.79-32.39,7.15C998.34,461,1009.6,461.56,1009.6,461.56Z" transform="translate(255.51 79.17)"/><path class="cls-10" d="M1009.47,461.58s16.36,2,30.25,0,5-11.79,0-13c-5.27-1.24-17.55-1.74-32.11,6.93C998.31,461.07,1009.47,461.58,1009.47,461.58Z" transform="translate(255.51 79.17)"/><path class="cls-11" d="M952.13,455.59s-11.11-3-12.54,3.88c-.42,2,2,2.68,6.59,2.75C950.31,462.3,965.28,458.19,952.13,455.59Z" transform="translate(255.51 79.17)"/><path class="cls-7" d="M941.06,464.51s7.21,2.56,16.64-.82c5-1.81,4-7.32-1.25-7.32S936.21,460.7,941.06,464.51Z" transform="translate(255.51 79.17)"/><path class="cls-12" d="M940.61,465.07s7.37,2.62,17-.84c5.17-1.86,4.07-7.53-1.27-7.53S935.65,461.15,940.61,465.07Z" transform="translate(255.51 79.17)"/><path class="cls-13" d="M2200.35,528.57c-3.91,7.38-16.49,12.41-22.69,7.34-1.69-1.38-2.9-.4-2.9-.4-9.21,2.85-8.8,11.31-8.8,11.31,8.85,73.82,2.84,118.09,2.84,118.09h-27.74c-3.57-23.32.4-73.29,1.62-87.85.32-3.79-1-21.09-1-21.09s-2.11-11.15-3.81-14a31.74,31.74,0,0,0-6.64-7.77c-23.09-1-15-3.75-15-3.75,1.19,1,14.3.06,15.49-.72s-5.09-20.21-5.09-20.21h4.46c.68,6,5.39,20.6,5.39,20.6,3.35,1.4,8-19,8-19h4.45s-7.49,16.31-4.26,14.76,8.38-13.33,8.38-13.33h3.42s-5.32,13.52-9.92,16.62-1.75,5-1.75,5c13.79,6.22,13.9-21.63,13.9-21.63h2.4c-1.53,14.19.69,20.09.69,20.09,11.67,2.11,14.39-20.09,14.39-20.09l3.77-1.43c.43,6.21-2.94,18.06-2.94,18.06s1.54,4.86,7.66,5c3.66.12,9.19-8.26,10.71-9.74Z" transform="translate(255.51 79.17)"/><path class="cls-7" d="M2110.11,508.21s12,3.07,48.31,4.71c34.79,1.58,35.58-5.39,35.58-5.39s7.56-16-23.81-20.8C2141.32,482.31,2088.25,494.74,2110.11,508.21Z" transform="translate(255.51 79.17)"/><path class="cls-14" d="M2110.11,509s12,3.09,48.31,4.75c34.79,1.59,35.58-5.43,35.58-5.43s7.56-16.13-23.81-21C2141.32,482.9,2088.25,495.43,2110.11,509Z" transform="translate(255.51 79.17)"/><path class="cls-7" d="M2186.07,527.77s17.68,2.3,32.69,0,5.45-13.68,0-15.06c-5.69-1.44-19-2-34.71,8C2174,527.17,2186.07,527.77,2186.07,527.77Z" transform="translate(255.51 79.17)"/><path class="cls-15" d="M2185.93,527.8s17.53,2.23,32.41,0,5.39-13.26,0-14.59c-5.64-1.4-18.81-2-34.41,7.79C2174,527.22,2185.93,527.8,2185.93,527.8Z" transform="translate(255.51 79.17)"/><path class="cls-16" d="M2111.39,520.12s-14.52-4-16.39,5.07c-.55,2.67,2.61,3.5,8.61,3.6C2109,528.88,2128.58,523.52,2111.39,520.12Z" transform="translate(255.51 79.17)"/><path class="cls-17" d="M2096.92,531.78s9.42,3.34,21.75-1.07c6.6-2.37,5.2-9.58-1.63-9.58S2090.58,526.8,2096.92,531.78Z" transform="translate(255.51 79.17)"/><path class="cls-18" d="M2096.34,532.51s9.63,3.43,22.23-1.1c6.75-2.43,5.32-9.84-1.66-9.84S2089.86,527.39,2096.34,532.51Z" transform="translate(255.51 79.17)"/><path class="cls-19" d="M0,464s386-171.33,675.73,0c183.79,109,380,105.91,523.33,81s616.79,112.14,616.79,112.14H0Z" transform="translate(255.51 79.17)"/><path class="cls-20" d="M0,565.36s141.41-87.71,249.36-81c33.44,2.09,74.25,2.9,114.4,27.05,20.72,12.47,56,39.8,59.34,42.39,30.18,23.44,34.22,29.61,49.64,36.83,29.9,14,58.83,11.43,76.86,9.61,51.8-5.22,59.89-27,109-34.44,35.58-5.41,63.72,1.11,83.16,5.62,47.83,11.07,175.63,87.63,132.82,63.62h0s177.67-85.46,346.34-20.24l121.44,40.48H0Z" transform="translate(255.51 79.17)"/><path class="cls-21" d="M50.79,204.15S85,226.45,84.35,258.87c-.12,5.69.32,23.1-11.24,30.71-8,5.29-17.77,3.19-19.24,2.85-18.15-4.2-29-26.57-39.55-48.48C5.66,226,1.69,212.05-8.6,210.5c-1.23-.19-5.23-.79-7.69,1.56-7.66,7.3,5.57,37.41,20.41,58.68,11.65,16.69,21.76,24.3,19.13,34.44-2,7.89-10.37,11.89-11.17,12.26-6.67,3.09-14.1,2.07-24.54-2.05a121.33,121.33,0,0,1-39.89-26.17c-26-26.86-46.77-55.55-59.62-74.61l-8.93,8.93q8.3,14,16.58,28.07c-2.1-3.5-11.8-18.8-30.61-23a45.3,45.3,0,0,0-19.14,0c9.79,3.75,23.89,10.74,35.72,24.24,12.92,14.75,13.52,26.31,26.79,47.2,9.88,15.56,21.75,28.34,30.62,35.72,30.84,25.66,72.32,25,93.12,23,8.68,1.06,20.28,4,29.35,12.76,3.87,3.74,18.4,19.39,9.07,81.74,0,0-5.2,34.83-32,112.71h0l142.89.69c37.28,9.55,50.94,2.8,56.84-3.86C264,533.85,184.92,459,208.23,369c2.56-9.88,12.12-46.88,39.55-57.41,16-6.12,23.27,2.37,45.92,0C337.76,307,366.53,269,369,265.64c22.42-30.51,28.88-74.42,28.88-74.42l-19,2.78c-.87,7.69-6.18,48.3-36.66,64-3.61,1.86-20.28,10.44-30.48,3.47-14.35-9.81-5.55-43.08-3.94-46.2,6.14-11.93,20.47-34.64,20.47-34.64L281,186.54c2.23,28.77-7.88,54.07-27.18,64.63-2.57,1.41-17.3,9.48-29,3.46-14.16-7.28-20.19-33.26-9.14-63.41l-17.41-6.35s-10.65,100.85-26.62,111.22c-27.64,17.94-48.11-43.16-41-104.87H110.17s13.31,67.48-3.08,43.38c-5.86-8.62-16.46-19-32.76-30.45" transform="translate(255.51 79.17)"/><path class="cls-22" d="M234.43,59.22s34.66-17.34,89.13-17.09,115.48,38.56,98.64,63-27.12,38.4-102.6,38.19S158.17,105.77,234.43,59.22Z" transform="translate(255.51 79.17)"/><path class="cls-7" d="M220.78-65.2C366.11-21.64,380.54,30.46,377.58,54.32c0,0,.31,40.86-149.74,82.11h0s-88,33.76-250.51,16C-72,147.11-153.35,125.76-164.6,78.06-172.88,43-139,7.22-126.78-5.7-27-111,171.89-75.16,220.78-65.2Z" transform="translate(255.51 79.17)"/><path class="cls-23" d="M216.2-64.21C361.54-20.77,376,31.13,373,54.89c0,0,.33,40.69-149.69,81.71h0s-88,33.59-250.49,15.88c-49.32-5.37-130.68-26.67-142-74.18-8.29-35,25.54-70.54,37.78-83.41C-31.62-110,167.31-74.16,216.2-64.21Z" transform="translate(255.51 79.17)"/><path class="cls-24" d="M-254.82,188s-7.57-32.44,27.26-60.64C-207.92,111.45-147,68.43-81.5,112.6-6.29,163.3,75.05,219.93-38.92,224.74S-242.93,230.71-254.82,188Z" transform="translate(255.51 79.17)"/><path class="cls-25" d="M-254.82,190.34s-7.57-32.45,27.26-60.65c19.64-15.9,80.52-58.92,146.06-14.75,75.21,50.7,156.55,107.33,42.58,112.14S-242.93,233.05-254.82,190.34Z" transform="translate(255.51 79.17)"/><path class="cls-7" d="M499.35,179.64S460.94,190,289.79,191.31l.27-137c4-1.28,33.37-8,107.68,15C488,97.13,567.09,156.68,508.66,176.9" transform="translate(255.51 79.17)"/><path class="cls-26" d="M498.84,182.14s-38.42,10.4-209.57,11.67l.28-137c4-1.27,33.36-8,107.67,15,90.26,27.88,169.35,87.43,110.92,107.65" transform="translate(255.51 79.17)"/><path class="cls-27" d="M22.62,219.84c16.19,2.27,18.91,1.41,82,1.34,13.41,0,70.45,0,185.14-3.63C338,216,410.63,205,430.4,195.91c6.61-3,19.77-10.33,20.24-30.31,1.07-45.53-38.77-71.73-51.33-84.49C387.59,69.2,358,54.8,350.09,51.63,254.28,12.92,176.4,1.15,176.4,1.15,157.77-3.13,10.9-34.7-72.83,53.47c-7.7,8.1-55,57.38-41.18,100.18C-98,202.93-10.14,215.25,22.62,219.84Z" transform="translate(255.51 79.17)"/><path class="cls-28" d="M20,224.13c16.19,2.27,18.91,1.41,82,1.35,13.41,0,70.45,0,185.14-3.64,48.24-1.51,120.9-12.52,140.67-21.63,6.61-3.05,19.77-10.34,20.24-30.32,1.07-45.52-38.77-71.73-51.33-84.49C385,73.5,355.35,59.1,347.48,55.92,251.67,17.22,173.79,5.45,173.79,5.45,155.16,1.17,8.29-30.4-75.44,57.77c-7.7,8.1-55,57.38-41.18,100.17C-100.66,207.23-12.75,219.54,20,224.13Z" transform="translate(255.51 79.17)"/><path class="cls-29" d="M204.24,393.42s-53.08,8.21-48.94,77.75l59.61-2.48S198.53,405.91,204.24,393.42Z" transform="translate(255.51 79.17)"/><path class="cls-30" d="M0,353.47S81,307,82.38,385.86L81,400s-2.81-8.45,31-21.13,80.29,12.77,64.8,71.18c47.89-19.06,101.42,66.86,57.75,119C288,533.77,331.7,554.9,347.2,581.66c53.53-42.26,169,25.35,201.43,70.43L0,654.91Z" transform="translate(255.51 79.17)"/><path class="cls-31" d="M1814.79,409.15s20.16,12.93,19.78,31.72c-.07,3.31.19,13.4-6.62,17.82-4.74,3.06-10.47,1.84-11.34,1.65-10.7-2.44-17.07-15.41-23.31-28.11-5.1-10.4-7.44-18.51-13.5-19.4-.73-.11-3.09-.46-4.54.9-4.51,4.24,3.28,21.7,12,34,6.86,9.68,12.82,14.09,11.28,20-1.2,4.57-6.12,6.89-6.59,7.1-3.93,1.79-8.31,1.2-14.46-1.19A71.6,71.6,0,0,1,1754,458.48a324.75,324.75,0,0,1-35.13-43.27l-5.27,5.18,9.78,16.27c-1.24-2-7-10.9-18-13.31a26.86,26.86,0,0,0-11.28,0,52.88,52.88,0,0,1,21,14c7.61,8.56,8,15.26,15.79,27.38a93.64,93.64,0,0,0,18,20.71c18.17,14.88,42.62,14.5,54.88,13.32,5.11.61,12,2.32,17.29,7.39,2.29,2.17,10.84,11.25,5.35,47.41,0,0-3.07,20.2-18.84,65.36h0l84.21.39c22,5.55,30,1.63,33.5-2.23,15.1-16.79-31.5-60.2-17.76-112.41,1.5-5.72,7.14-27.18,23.3-33.29,9.41-3.55,13.72,1.37,27.07,0,26-2.66,42.92-24.71,44.35-26.63,13.22-17.69,17-43.15,17-43.15l-11.2,1.61c-.51,4.46-3.64,28-21.61,37.1-2.12,1.08-12,6.05-18,2-8.45-5.68-3.27-25-2.32-26.79,3.62-6.92,12.07-20.09,12.07-20.09l-27.87,3.45c1.32,16.68-4.64,31.35-16,37.47-1.51.82-10.19,5.5-17.09,2-8.35-4.22-11.9-19.29-5.39-36.77L1901.67,398s-6.28,58.49-15.68,64.5c-16.29,10.41-28.36-25-24.14-60.81h-12.06s7.84,39.13-1.81,25.15c-3.46-5-9.71-11-19.31-17.65" transform="translate(255.51 79.17)"/><path class="cls-32" d="M1923,325.1s20.43-10.06,52.53-9.91,68,22.36,58.13,36.5-16,22.27-60.46,22.15S1878.07,352.09,1923,325.1Z" transform="translate(255.51 79.17)"/><path class="cls-7" d="M1915,253c85.65,25.26,94.15,55.47,92.41,69.31,0,0,.18,23.69-88.25,47.61h0s-51.85,19.58-147.62,9.31c-29.07-3.12-77-15.5-83.65-43.16-4.88-20.35,15.07-41.08,22.29-48.57C1768.93,226.37,1886.16,247.17,1915,253Z" transform="translate(255.51 79.17)"/><path class="cls-33" d="M1912.27,253.52c85.66,25.19,94.18,55.29,92.43,69.07,0,0,.2,23.59-88.21,47.38h0s-51.84,19.48-147.62,9.21c-29.06-3.12-77-15.47-83.66-43-4.89-20.27,15-40.9,22.26-48.37C1766.23,227,1883.46,247.75,1912.27,253.52Z" transform="translate(255.51 79.17)"/><path class="cls-34" d="M1634.7,399.78s-4.47-18.82,16.06-35.17c11.57-9.22,47.45-34.17,86.07-8.55,44.33,29.39,92.26,62.24,25.1,65S1641.7,424.54,1634.7,399.78Z" transform="translate(255.51 79.17)"/><path class="cls-35" d="M1634.7,401.13s-4.47-18.81,16.06-35.16c11.57-9.22,47.45-34.17,86.07-8.56,44.33,29.4,92.26,62.24,25.1,65S1641.7,425.9,1634.7,401.13Z" transform="translate(255.51 79.17)"/><path class="cls-7" d="M2079.14,394.93s-22.64,6-123.5,6.77l.16-79.47c2.38-.74,19.67-4.63,63.45,8.68,53.2,16.17,99.81,50.71,65.37,62.43" transform="translate(255.51 79.17)"/><path class="cls-36" d="M2078.84,396.38s-22.64,6-123.51,6.77l.17-79.47c2.37-.73,19.66-4.63,63.45,8.68,53.19,16.17,99.8,50.71,65.37,62.43" transform="translate(255.51 79.17)"/><path class="cls-7" d="M1798.19,418.24c9.54,1.32,11.15.82,48.31.78,7.9,0,41.52,0,109.11-2.11,28.42-.87,71.24-7.26,82.9-12.54,3.89-1.77,11.65-6,11.92-17.58.64-26.4-22.85-41.6-30.25-49-6.9-6.9-24.37-15.25-29-17.09-56.47-22.45-102.36-29.27-102.36-29.27-11-2.49-97.53-20.79-146.88,30.33-4.53,4.7-32.44,33.28-24.27,58.1C1727.08,408.44,1778.89,415.58,1798.19,418.24Z" transform="translate(255.51 79.17)"/><path class="cls-37" d="M1796.65,420.73c9.55,1.32,11.15.82,48.31.78,7.91,0,41.52,0,109.11-2.11,28.42-.87,71.25-7.26,82.9-12.54,3.89-1.77,11.65-6,11.93-17.58.63-26.4-22.86-41.6-30.26-49-6.9-6.9-24.37-15.25-29-17.09-56.46-22.45-102.36-29.27-102.36-29.27-11-2.49-97.53-20.79-146.88,30.34-4.53,4.7-32.43,33.27-24.26,58.09C1725.54,410.93,1777.35,418.07,1796.65,420.73Z" transform="translate(255.51 79.17)"/><path class="cls-38" d="M1193.38,654.91s66.79-135.61,229-67.23c8-77.93,146.31-84.29,190.84-4.77,12.72-81.11,116.09-50.89,141.53,14.31,47.71-68.38,143.12-25.45,154.26,9.54,74.74-52.48,136.76,35,136.76,35l190.83,13.16Z" transform="translate(255.51 79.17)"/><path class="cls-39" d="M2541.43,436.42c-6.56,12.38-27.66,20.81-38.06,12.31-2.83-2.31-4.85-.67-4.85-.67-15.45,4.79-14.77,19-14.77,19,14.85,123.82,4.78,198.06,4.78,198.06H2442c-6-39.1.68-122.91,2.72-147.34.53-6.36-1.74-35.37-1.74-35.37s-3.55-18.7-6.4-23.55a52.55,52.55,0,0,0-11.14-13c-38.72-1.76-25.11-6.29-25.11-6.29,2,1.63,24,.1,26-1.2s-8.53-33.9-8.53-33.9h7.47c1.14,10.1,9.05,34.55,9.05,34.55,5.61,2.34,13.37-31.93,13.37-31.93h7.48s-12.57,27.37-7.14,24.76,14-22.35,14-22.35h5.75s-8.94,22.66-16.64,27.88-2.94,8.39-2.94,8.39c23.12,10.43,23.31-36.27,23.31-36.27h4c-2.57,23.79,1.16,33.7,1.16,33.7,19.57,3.53,24.14-33.7,24.14-33.7l6.32-2.41c.71,10.43-4.93,30.3-4.93,30.3s2.57,8.14,12.85,8.47c6.13.19,15.4-13.85,18-16.35Z" transform="translate(255.51 79.17)"/><path class="cls-7" d="M2542.66,376.27s-11.68-27-55-23.42-63.91,26.6,22,31C2509.68,383.82,2549.53,391.76,2542.66,376.27Z" transform="translate(255.51 79.17)"/><path class="cls-40" d="M2542.65,377.23s-11.82-27-55.65-23.42-64.7,26.6,22.26,31C2509.26,384.77,2549.61,392.71,2542.65,377.23Z" transform="translate(255.51 79.17)"/><path class="cls-41" d="M2390.09,402.27s20.11,5.15,81,7.91c58.35,2.64,59.67-9,59.67-9s12.68-26.83-39.94-34.89C2442.42,358.84,2353.42,379.68,2390.09,402.27Z" transform="translate(255.51 79.17)"/><path class="cls-42" d="M2390.09,403.61s20.11,5.19,81,8c58.35,2.66,59.67-9.11,59.67-9.11s12.68-27-39.94-35.17C2442.42,359.83,2353.42,380.84,2390.09,403.61Z" transform="translate(255.51 79.17)"/><path class="cls-7" d="M2518.19,435.32s36.18,4.49,66.88,0,11.13-26.66,0-29.35c-11.64-2.81-38.81-3.94-71,15.67C2493.5,434.17,2518.19,435.32,2518.19,435.32Z" transform="translate(255.51 79.17)"/><path class="cls-43" d="M2517.91,435.38s35.86,4.35,66.28,0,11-25.85,0-28.45c-11.53-2.73-38.46-3.82-70.37,15.19C2493.45,434.26,2517.91,435.38,2517.91,435.38Z" transform="translate(255.51 79.17)"/><path class="cls-44" d="M2392.22,422.25s-24.34-6.65-27.48,8.5c-.92,4.47,4.38,5.86,14.44,6C2388.23,436.94,2421.05,428,2392.22,422.25Z" transform="translate(255.51 79.17)"/><path class="cls-7" d="M2368,441.81s15.81,5.59,36.48-1.81c11.07-4,8.72-16.05-2.72-16.05S2357.32,433.45,2368,441.81Z" transform="translate(255.51 79.17)"/><path class="cls-45" d="M2367,443s16.16,5.75,37.29-1.85c11.32-4.07,8.92-16.49-2.79-16.49S2356.11,434.44,2367,443Z" transform="translate(255.51 79.17)"/><path class="cls-46" d="M2236.59,654.91s22.37-30.61,81.66-19.21c25.08-22.8,44.47-16.49,60.43-2.54-18.24-48.77-2.28-5.44-11.4-31.66s19.38-22.81,28.5,16c-2.28-65,0-26.92,0-26.92,0-47.19,23.95-26.08,21.67,26.64l9.12-2s-3.42-6.84-8-45.61,50.16-31.92,52.45,10.26c36.48-70.69,63.85-28.5,58.14,3.42,87.8-49,130,8,88.94,59.29,52.45-13.68,47.89,12.37,47.89,12.37Z" transform="translate(255.51 79.17)"/><path class="cls-47" d="M676.67,654.91s15-23.9,28.61-37.56,2.6,37.56-9.1,37.56Z" transform="translate(255.51 79.17)"/><path class="cls-47" d="M783.32,654.91s-21.46-14.73-22.11-23.54,1.3-18.76,6.5-23.55,20.16,32.94,23.42,42S783.32,654.91,783.32,654.91Z" transform="translate(255.51 79.17)"/><path class="cls-47" d="M810.64,651.17s-3.26-17.56,19.51-27.32S810.64,651.17,810.64,651.17Z" transform="translate(255.51 79.17)"/><path class="cls-47" d="M648.7,654.91S626.59,616.05,628.54,605,659.11,632,648.7,654.91Z" transform="translate(255.51 79.17)"/><path class="cls-47" d="M665.61,654.91S655.85,631,653.9,615.4s7.81-5.69,11.71,16.91S665.61,654.91,665.61,654.91Z" transform="translate(255.51 79.17)"/><path class="cls-48" d="M-1.27,778.12l1956.08-85,749.92,16V905.73L.66,903.73Z" transform="translate(255.51 79.17)"/><path class="cls-49" d="M2714.58,756.56s-348.82-18.17-394.64-18.17-344.15,11-410.29,5.8-108.9,5.2-98.88,15.61c14.7,9.1,43.43,24.06-96.2,27.31s-297.31-12.36-330.71-12.36S1020.42,763,1020.42,763s-386.16,2.68-403.53,4.63-354.75,13.66-354.75,13.66L-17.12,796.44V711.56h2731.7Z" transform="translate(255.51 79.17)"/><path class="cls-50" d="M2701.86,752.37S2356.59,734,2311.23,734s-340.65,11.14-406.12,5.87-107.79,5.27-97.87,15.81c14.55,9.22,43,24.37-95.23,27.66s-294.28-12.51-327.34-12.51-359.75-11.93-359.75-11.93-382.23,2.71-399.42,4.68-351.15,13.83-351.15,13.83L-2.07,792.75v-86H2701.86Z" transform="translate(255.51 79.17)"/><path class="cls-51" d="M791.72,715.64s-28.77,15.53,101,12.61,235.32,9.06,161.45,24.62c-63.31.94-324-6.3-351.39-6.33s-154.07,1.63-220.55,10.3c-19,8.66-27.43,9-27.43,9l-457.58.31v-48Z" transform="translate(255.51 79.17)"/><rect class="cls-52" x="233.63" y="734.07" width="3009.72" height="53.65"/><rect class="cls-53" x="236.23" y="732.49" width="3009.72" height="60.22"/><path class="cls-54" d="M238.37,735.3s35.15-8.61,54.86-6.89,21.25,38.46-10.71,37.28-55.29-7.71-53.15-15.43C226,743,230.89,737,238.37,735.3Z" transform="translate(255.51 79.17)"/><path class="cls-55" d="M135.52,729.26S175.37,693.69,239.66,704c51,16.71,37.29,60.86,6.43,60.86,0,0-113.14,4.71-110.57,3.42l2.57-1.28S97.37,753.69,135.52,729.26Z" transform="translate(255.51 79.17)"/><path class="cls-56" d="M83.23,724.55s51.43-56.15,76.29-26.79-54.43,64.93-54.43,64.93Z" transform="translate(255.51 79.17)"/><path class="cls-57" d="M381.52,738.69s26.14-26.5,58.71-3.39c18,14.11,16.72,22.68-41.57,23.54C370.37,753.69,375.09,751.12,381.52,738.69Z" transform="translate(255.51 79.17)"/><path class="cls-58" d="M299,763.14S45.68,839.84-1.56,834.41l-1.2-68.24Z" transform="translate(255.51 79.17)"/><path class="cls-59" d="M2.8,731.61s29.91-38.37,84.72,31.79c3.29,14.25,8.77,20.83,8.77,20.83H2.8Z" transform="translate(255.51 79.17)"/><path class="cls-60" d="M-21,655.26s21.79-18.72,50.43-5.87,31.24,31.79,31.24,31.79L19.83,703.11l-27.68-7.67Z" transform="translate(255.51 79.17)"/><path class="cls-61" d="M107.25,756.82s6.58-5.48,42.75-16.44,51.53,15.43,4.39,35.67c-58.1,8.18-80,8.18-80,8.18V761Z" transform="translate(255.51 79.17)"/><path class="cls-62" d="M14.07,721.14s17.23-24.61,35.47-49.82c8.2-11.33,21-18,30-15.59,21.71,5.91,18.62,73.52,18.46,76.59q-3.19,21.87-6.37,43.73Z" transform="translate(255.51 79.17)"/><path class="cls-63" d="M2254.11,766.61c-92.63.07-204.76,18.66-205.07,39.63s110.22,43.4,205.07,45.25c102.69,2,220-19.55,220.15-41.1S2355.73,766.53,2254.11,766.61Zm.79,75.32c-94.52,0-171.15-15.1-171.15-33.73s76.63-33.73,171.15-33.73,171.15,15.1,171.15,33.73S2349.43,841.93,2254.9,841.93Z" transform="translate(255.51 79.17)"/><path class="cls-64" d="M2281.3,748.19c-175.31,0-317.42,29.74-317.42,66.42S2106,881,2281.3,881s317.41-29.74,317.41-66.43S2456.6,748.19,2281.3,748.19Zm1.3,117.88c-119.87-2.12-259.27-29.82-258.9-55.68.38-26,142.72-49.1,258.9-49.9,129.92-.88,282.58,25.68,282.64,52.79C2565.3,840.17,2415.18,868.41,2282.6,866.07Z" transform="translate(255.51 79.17)"/><path class="cls-65" d="M439.72,759.89s-30.23,21.52-77,17.84,20.51-24.44,20.51-24.44Z" transform="translate(255.51 79.17)"/><path class="cls-66" d="M921.63,742.34s31.09-10.42,60,0C959.48,747.52,935.53,749.51,921.63,742.34Z" transform="translate(255.51 79.17)"/><path class="cls-67" d="M575.34,737.61s23.27-5.2,44.87,0C603.67,740.21,585.75,741.2,575.34,737.61Z" transform="translate(255.51 79.17)"/><path class="cls-68" d="M1094.58,742.36s11.63-22.79,23.26-28.22,3.87,22.32-11.63,28.22S1094.58,742.36,1094.58,742.36Z" transform="translate(255.51 79.17)"/><path class="cls-68" d="M1085.28,742.36s-8-18.08-6.7-27.8S1100.78,719.41,1085.28,742.36Z" transform="translate(255.51 79.17)"/><path class="cls-68" d="M1077.46,740.9s-20.09-19.78-17-33S1079,722.71,1077.46,740.9Z" transform="translate(255.51 79.17)"/><path class="cls-69" d="M687.37,97.38s76.27-28.59,143.08-9.95c66.82,19.48,27.69,41.85-28.38,41,0,0-23,2.53-76.72,0S651.45,111.05,687.37,97.38Z" transform="translate(255.51 79.17)"/><path class="cls-70" d="M1465.94,179.53s36.49-7.38,91.78-16.41,102.83,58-4.43,61-43.11,1.45-98.4,0S1408,190.22,1465.94,179.53Z" transform="translate(255.51 79.17)"/><path class="cls-71" d="M2512.41,114.64a193.65,193.65,0,0,1,85.83-17.53c53.29,1.55,105,25.73,101.16,39-3,10.19-39.05,16.75-59.83,16.75-103.74,0-39.32,1.64-103.74,0-14.47-.37-32.56-3.06-38.35-11.07C2492.14,134.45,2498.63,123.46,2512.41,114.64Z" transform="translate(255.51 79.17)"/><path class="cls-72" d="M2215.9,233.76a194.44,194.44,0,0,1,65.88-9.91c40.9.88,80.62,14.55,77.65,22.08-2.28,5.76-30,9.46-45.93,9.46-79.62,0-30.18.93-79.62,0-11.11-.21-25-1.73-29.44-6.25C2200.34,245,2205.32,238.75,2215.9,233.76Z" transform="translate(255.51 79.17)"/><path class="cls-73" d="M515,804s31.86-12.44,75.49-5S619.42,829.3,558,828.56,489.39,815.66,515,804Z" transform="translate(255.51 79.17)"/><path class="cls-74" d="M516.91,803.26s30.82-11.25,73-4.55,28,27.47-31.5,26.8S492.11,813.84,516.91,803.26Z" transform="translate(255.51 79.17)"/><path class="cls-75" d="M587.24,827.07s30.82-11.26,73-4.55,28,27.47-31.49,26.8S562.44,837.65,587.24,827.07Z" transform="translate(255.51 79.17)"/><path class="cls-76" d="M587.24,820.8s30.82-11.25,73-4.55,28,27.48-31.49,26.81S562.44,831.38,587.24,820.8Z" transform="translate(255.51 79.17)"/><path class="cls-75" d="M477.14,829.19s28.37-10.52,81.69,0-12.26,27.3-47,24.69S442.43,843.09,477.14,829.19Z" transform="translate(255.51 79.17)"/><path class="cls-77" d="M477.14,822.93s28.37-10.53,81.69,0-12.26,27.3-47,24.69S442.43,836.83,477.14,822.93Z" transform="translate(255.51 79.17)"/><path class="cls-75" d="M754.8,819.44s30.83-12.44,73.05-5,28,30.37-31.5,29.63S730,831.13,754.8,819.44Z" transform="translate(255.51 79.17)"/><path class="cls-78" d="M754.8,817.68s30.83-11.25,73.05-4.55,28,27.48-31.5,26.81S730,828.26,754.8,817.68Z" transform="translate(255.51 79.17)"/><path class="cls-79" d="M197.59,870.05H318.47s-31.34-6.82-26.12-33.23,25.37-11,33.58,31.27l13.43.51c-10.37-18.93-8.17-22.11-8.17-22.11a4.09,4.09,0,0,1,3.31-1.87c4.83.28,7.87,13.77,9.5,23.47l5.06,2,.75-2V852.18a10.67,10.67,0,0,1,1.85-10.58c3.24-3.62,9.09-4.45,13.81-1.6a18.59,18.59,0,0,1,1.5,7.17c-.19,4.89-2.24,12.4-9.7,22.88l6,.05s10.44-33,17.16-42.62,22.38,23.22-6.72,45.6c82.08.75,479.77,5.22,479.77,5.22s-24.62-11.19-28.35-21.63-8.21-50,23.88-11.2,25.37,32.09,25.37,32.09l16.41.74a36.06,36.06,0,0,1,.75-38c12.68-20.15,29.1-36.56,17.91,5.22-9.7,22.39-11.2,33.58-11.2,33.58l18.66-1.49s-6-20.89,0-34.33,17.9-28.35,32.83-37.3,7.46,17.9-4.48,33.57-19.4,37.31-19.4,37.31l70.88,1.49s-27.39-6-21.16-31.33,13.7-14.18,21.16,4.47S1008,879.8,1008,879.8l23.78-1.5s-12.68-6,0-18.65,26.87-9.7,13.43,4.48c-6,10.44-4.76,15.67-4.76,15.67h552.44s-22.39-10.45-15.67-27.61,32.08,23.88,35.07,26.11,14.92,2.24,14.92,2.24-9.7-29.1,10.45-43.27-6.72,34.32-4.48,40.29,12,3,12,3-15.74-15.21,8.13-36.71,14.93,6.87,0,34.47l80.59,3.73,44.77-1.49h0l374.56-.74s-14.92-40.3-16.41-57.46,9.7-20.44,21.64,21.49l3.73,37.46,9,2.24s-9.7-38.06-9.7-53.73,10.45,1.5,14.18,33.58l1.49,17.91,5.22,2.24s9.7-26.86,26.86-45.52,20.15,23.13-6.71,39.55l-2.24,4.47,408.14,6s0-56.7,28.36-71.63-16.42,28.36-22.39,67.9c14.6-38.2,24.63-42.53,35.82-17.9,2.24,7.46,0-1.06-15.67,3S2623.32,888,2623.32,888H2711v14L18,900.38V863.77Z" transform="translate(255.51 79.17)"/><path class="cls-80" d="M-6,679.71s-9,2.75,18.47-43S93,602.81,69.23,684.29C43.59,763-7.41,856.39-7.41,856.39s44.6-59,102.27-111.44,87-10.31,39.37,43.7S29.86,892.1,29.86,892.1l84.23-35.71s-22,9.16,48.51-20.14c33.88-7.32,34.79,49.44-10.07,59.51L144.3,902-6,900.38Z" transform="translate(255.51 79.17)"/><path class="cls-81" d="M79.39,802.33s30-4.87,35.93-8.26C115.32,794.07,92.26,795.33,79.39,802.33Z" transform="translate(255.51 79.17)"/><path class="cls-81" d="M-18.72,881.44l151.53-133C116.25,766.67,97.7,785.54,77,804.59A901.76,901.76,0,0,1-18.72,881.44Z" transform="translate(255.51 79.17)"/><path class="cls-81" d="M68.43,806.11s-1.38-23.36,2.39-28.94c0,0,2.39,21.17,0,25.06Z" transform="translate(255.51 79.17)"/><path class="cls-81" d="M27.46,839.82s7.68-26.19,10.65-28.55C38.11,811.27,34.1,834.06,27.46,839.82Z" transform="translate(255.51 79.17)"/><path class="cls-81" d="M-11,786.43q26.25-76.54,52.51-153.1Q-6.18,796.6-11,795.34-12.08,795.06-11,786.43Z" transform="translate(255.51 79.17)"/><path class="cls-81" d="M10.26,725.31S-3.7,684.89-4,680.1c0,0,15.09,32.67,15.88,40.45S10.26,725.31,10.26,725.31Z" transform="translate(255.51 79.17)"/><path class="cls-81" d="M4,752l34.09-21.07S16.57,750.83,4,753.79,4,752,4,752Z" transform="translate(255.51 79.17)"/><path class="cls-81" d="M60.57,900.38s73.82-31.67,85.27-38c0,0-51.36,32.81-75.09,38S60.57,900.38,60.57,900.38Z" transform="translate(255.51 79.17)"/><path class="cls-81" d="M93.46,886.14l26.08-28S109.78,882.36,93.46,886.14Z" transform="translate(255.51 79.17)"/></g></svg>