<svg id="Layer_1" data-name="Layer 1" xmlns="http://www.w3.org/2000/svg" xmlns:xlink="http://www.w3.org/1999/xlink" viewBox="0 0 2826.18 968.05"><defs><style>.cls-1{fill:none;}.cls-2{clip-path:url(#clip-path);}.cls-3{fill:url(#linear-gradient);}.cls-4{fill:url(#linear-gradient-2);}.cls-5{fill:url(#linear-gradient-3);}.cls-6{fill:url(#linear-gradient-4);}.cls-7{fill:url(#linear-gradient-5);}.cls-8{fill:url(#linear-gradient-6);}.cls-9{fill:#8fd6f3;}.cls-10{fill:url(#linear-gradient-7);}.cls-11{fill:url(#linear-gradient-8);}.cls-12{fill:url(#linear-gradient-9);}.cls-13{fill:#68bc45;}.cls-14{fill:url(#linear-gradient-10);}.cls-15{fill:url(#linear-gradient-11);}.cls-16{fill:url(#linear-gradient-12);}.cls-17{fill:url(#linear-gradient-13);}.cls-18{fill:url(#linear-gradient-14);}.cls-19{fill:url(#linear-gradient-15);}.cls-20{fill:url(#linear-gradient-16);}.cls-21{fill:url(#linear-gradient-17);}.cls-22{fill:url(#linear-gradient-18);}.cls-23{fill:url(#linear-gradient-19);}.cls-24{fill:url(#linear-gradient-20);}.cls-25{fill:#54c4d5;}.cls-26{fill:url(#linear-gradient-21);}.cls-27{fill:url(#linear-gradient-22);}.cls-28{fill:url(#linear-gradient-23);}.cls-29{fill:url(#linear-gradient-24);}.cls-30{fill:url(#linear-gradient-25);}.cls-31{fill:url(#linear-gradient-26);}.cls-32{fill:url(#linear-gradient-27);}.cls-33{fill:#20ac98;}.cls-34{fill:url(#linear-gradient-28);}.cls-35{fill:#42c68d;}.cls-36{fill:url(#linear-gradient-29);}.cls-37{fill:url(#linear-gradient-30);}.cls-38{fill:url(#linear-gradient-31);}.cls-39{fill:url(#linear-gradient-32);}.cls-40{fill:url(#linear-gradient-33);}.cls-41{fill:#874a41;}.cls-42{fill:url(#linear-gradient-34);}.cls-43{fill:url(#linear-gradient-35);}.cls-44{fill:url(#linear-gradient-36);}.cls-45{fill:#021e0b;}.cls-46{fill:url(#linear-gradient-37);}.cls-47{fill:url(#linear-gradient-38);}.cls-48{fill:url(#linear-gradient-39);}.cls-49{fill:url(#linear-gradient-40);}.cls-50{fill:url(#linear-gradient-41);}.cls-51{fill:url(#linear-gradient-42);}.cls-52{fill:#7bba5d;}.cls-53{fill:#86ac35;}.cls-54{fill:#0c8753;}.cls-55{fill:#474747;}.cls-56{fill:url(#linear-gradient-43);}.cls-57{fill:url(#linear-gradient-44);}.cls-58{fill:url(#linear-gradient-45);}.cls-59{fill:url(#linear-gradient-46);}.cls-60{fill:url(#linear-gradient-47);}.cls-61{fill:url(#linear-gradient-48);}.cls-62{fill:url(#linear-gradient-49);}.cls-63{fill:url(#linear-gradient-50);}.cls-64{fill:url(#linear-gradient-51);}</style><clipPath id="clip-path" transform="translate(54.4)"><rect class="cls-1" x="-0.22" width="2693" height="900"/></clipPath><linearGradient id="linear-gradient" x1="1412.25" y1="663.6" x2="1384.04" y2="61.24" gradientUnits="userSpaceOnUse"><stop offset="0.29" stop-color="#a6d9ef"/><stop offset="0.53" stop-color="#9fd2eb"/><stop offset="0.89" stop-color="#8bbedf"/><stop offset="0.9" stop-color="#8abdde"/></linearGradient><linearGradient id="linear-gradient-2" x1="746.36" y1="339.14" x2="922.55" y2="162.82" gradientUnits="userSpaceOnUse"><stop offset="0.23" stop-color="#91bce1"/><stop offset="0.91" stop-color="#d7eef4"/></linearGradient><linearGradient id="linear-gradient-3" x1="1237.08" y1="1394.13" x2="1436.41" y2="1194.67" gradientTransform="matrix(0.85, -0.05, 0.03, 0.42, 131.88, -241.41)" gradientUnits="userSpaceOnUse"><stop offset="0.29" stop-color="#8eb7dd"/><stop offset="0.3" stop-color="#90b9de"/><stop offset="0.61" stop-color="#b9dbf0"/><stop offset="0.85" stop-color="#d2f0fb"/><stop offset="1" stop-color="#dbf8ff"/></linearGradient><linearGradient id="linear-gradient-4" x1="1844.32" y1="1051.91" x2="2088.16" y2="807.89" gradientTransform="matrix(0.85, -0.05, 0.03, 0.42, 131.88, -241.41)" gradientUnits="userSpaceOnUse"><stop offset="0.38" stop-color="#8eb7dd"/><stop offset="0.39" stop-color="#90b9de"/><stop offset="0.62" stop-color="#b9dbf0"/><stop offset="0.81" stop-color="#d2f0fb"/><stop offset="0.92" stop-color="#dbf8ff"/></linearGradient><linearGradient id="linear-gradient-5" x1="1669.8" y1="4246.23" x2="1829.42" y2="4086.49" gradientTransform="matrix(0.71, -0.02, 0.01, 0.21, 403.68, -464.83)" gradientUnits="userSpaceOnUse"><stop offset="0.43" stop-color="#8eb7dd"/><stop offset="0.45" stop-color="#90b9de"/><stop offset="0.69" stop-color="#b9dbf0"/><stop offset="0.88" stop-color="#d2f0fb"/><stop offset="1" stop-color="#dbf8ff"/></linearGradient><linearGradient id="linear-gradient-6" x1="2539.91" y1="330.48" x2="2729.3" y2="140.96" gradientUnits="userSpaceOnUse"><stop offset="0.46" stop-color="#8eb7dd"/><stop offset="0.47" stop-color="#90b9de"/><stop offset="0.69" stop-color="#b9dbf0"/><stop offset="0.87" stop-color="#d2f0fb"/><stop offset="0.98" stop-color="#dbf8ff"/></linearGradient><linearGradient id="linear-gradient-7" x1="-0.18" y1="552.79" x2="2692.78" y2="552.79" gradientUnits="userSpaceOnUse"><stop offset="0" stop-color="#8ad1ed"/><stop offset="1" stop-color="#8ad1ed"/></linearGradient><linearGradient id="linear-gradient-8" x1="54.18" y1="819.5" x2="2747.18" y2="819.5" gradientUnits="userSpaceOnUse"><stop offset="0.01" stop-color="#375d0d"/><stop offset="0.3" stop-color="#3c600e"/><stop offset="0.64" stop-color="#4a6810"/><stop offset="0.94" stop-color="#5d7413"/></linearGradient><linearGradient id="linear-gradient-9" x1="1960.14" y1="608.08" x2="1963.38" y2="547.65" gradientUnits="userSpaceOnUse"><stop offset="0.02" stop-color="#a78b40"/><stop offset="0.11" stop-color="#a18a41"/><stop offset="0.22" stop-color="#918644"/><stop offset="0.35" stop-color="#767f4a"/><stop offset="0.49" stop-color="#507652"/><stop offset="0.64" stop-color="#216b5b"/><stop offset="0.78" stop-color="#19675c"/><stop offset="0.97" stop-color="#14645c"/></linearGradient><linearGradient id="linear-gradient-10" x1="1959.35" y1="555.3" x2="1977.5" y2="546.13" gradientUnits="userSpaceOnUse"><stop offset="0" stop-color="#2c6f40"/><stop offset="1" stop-color="#1b936c"/></linearGradient><linearGradient id="linear-gradient-11" x1="1951.23" y1="570.27" x2="1966.28" y2="543.54" gradientUnits="userSpaceOnUse"><stop offset="0" stop-color="#096946"/><stop offset="0.17" stop-color="#0e6d46"/><stop offset="0.38" stop-color="#1e7746"/><stop offset="0.61" stop-color="#388847"/><stop offset="0.86" stop-color="#5ba048"/><stop offset="1" stop-color="#73b048"/></linearGradient><linearGradient id="linear-gradient-12" x1="1968.32" y1="566.92" x2="1987.77" y2="557.24" gradientUnits="userSpaceOnUse"><stop offset="0" stop-color="#1f8969"/><stop offset="0.23" stop-color="#238b68"/><stop offset="0.43" stop-color="#2e9064"/><stop offset="0.63" stop-color="#40985d"/><stop offset="0.83" stop-color="#5aa453"/><stop offset="1" stop-color="#78b248"/></linearGradient><linearGradient id="linear-gradient-13" x1="1940.4" y1="563.37" x2="1949.55" y2="558.7" xlink:href="#linear-gradient-12"/><linearGradient id="linear-gradient-14" x1="1940.52" y1="564.96" x2="1951.24" y2="560.48" gradientUnits="userSpaceOnUse"><stop offset="0" stop-color="#1f8969"/><stop offset="0.26" stop-color="#238b68"/><stop offset="0.5" stop-color="#2e9063"/><stop offset="0.72" stop-color="#40995c"/><stop offset="0.94" stop-color="#5aa551"/><stop offset="1" stop-color="#62a94e"/></linearGradient><linearGradient id="linear-gradient-15" x1="1455.73" y1="587.23" x2="1459.81" y2="511.07" xlink:href="#linear-gradient-9"/><linearGradient id="linear-gradient-16" x1="1453.9" y1="521.97" x2="1481.31" y2="508.12" xlink:href="#linear-gradient-10"/><linearGradient id="linear-gradient-17" x1="1442.16" y1="542.65" x2="1463.89" y2="504.06" xlink:href="#linear-gradient-11"/><linearGradient id="linear-gradient-18" x1="1467.55" y1="536.83" x2="1496.54" y2="522.41" xlink:href="#linear-gradient-12"/><linearGradient id="linear-gradient-19" x1="1425.62" y1="531.48" x2="1439.2" y2="524.55" xlink:href="#linear-gradient-12"/><linearGradient id="linear-gradient-20" x1="1425.75" y1="533.47" x2="1441.66" y2="526.82" xlink:href="#linear-gradient-14"/><linearGradient id="linear-gradient-21" x1="914.84" y1="661.21" x2="927.15" y2="431.61" gradientUnits="userSpaceOnUse"><stop offset="0.02" stop-color="#a38a40"/><stop offset="0.1" stop-color="#9c8842"/><stop offset="0.22" stop-color="#878346"/><stop offset="0.36" stop-color="#657b4d"/><stop offset="0.53" stop-color="#377056"/><stop offset="0.6" stop-color="#216b5b"/><stop offset="0.75" stop-color="#19675c"/><stop offset="0.97" stop-color="#14645c"/></linearGradient><linearGradient id="linear-gradient-22" x1="912.58" y1="459.04" x2="975.75" y2="427.11" xlink:href="#linear-gradient-10"/><linearGradient id="linear-gradient-23" x1="883.59" y1="513.73" x2="937.34" y2="418.26" xlink:href="#linear-gradient-11"/><linearGradient id="linear-gradient-24" x1="944.4" y1="500.41" x2="1001.63" y2="471.93" xlink:href="#linear-gradient-12"/><linearGradient id="linear-gradient-25" x1="846.21" y1="490.57" x2="878.33" y2="474.19" xlink:href="#linear-gradient-12"/><linearGradient id="linear-gradient-26" x1="846.65" y1="496.62" x2="884.37" y2="480.85" xlink:href="#linear-gradient-12"/><linearGradient id="linear-gradient-27" x1="-1.22" y1="750.79" x2="2692.78" y2="750.79" gradientUnits="userSpaceOnUse"><stop offset="0" stop-color="#307b23"/><stop offset="0.25" stop-color="#437a20"/><stop offset="0.75" stop-color="#747618"/><stop offset="0.96" stop-color="#8a7515"/></linearGradient><linearGradient id="linear-gradient-28" x1="195.81" y1="686.17" x2="325.46" y2="152.38" gradientUnits="userSpaceOnUse"><stop offset="0" stop-color="#a3513f"/><stop offset="0.13" stop-color="#8e4c38"/><stop offset="0.41" stop-color="#573e27"/><stop offset="0.61" stop-color="#2c3319"/></linearGradient><linearGradient id="linear-gradient-29" x1="4833.31" y1="279.98" x2="4722.34" y2="55.04" gradientTransform="matrix(-1, 0, 0, 1, 5274.86, 0)" gradientUnits="userSpaceOnUse"><stop offset="0.08" stop-color="#0d6c59"/><stop offset="0.76" stop-color="#2cb67d"/></linearGradient><linearGradient id="linear-gradient-30" x1="415.92" y1="248.64" x2="546.31" y2="113.26" gradientUnits="userSpaceOnUse"><stop offset="0" stop-color="#0d5f3f"/><stop offset="0.16" stop-color="#07724a"/><stop offset="0.28" stop-color="#018455"/><stop offset="0.41" stop-color="#24995c"/><stop offset="0.56" stop-color="#43ac62"/><stop offset="0.68" stop-color="#56b766"/><stop offset="0.76" stop-color="#5dbb67"/></linearGradient><linearGradient id="linear-gradient-31" x1="127.99" y1="316.65" x2="459.76" y2="-55.32" gradientUnits="userSpaceOnUse"><stop offset="0.16" stop-color="#176862"/><stop offset="0.32" stop-color="#18716a"/><stop offset="0.56" stop-color="#1c887f"/><stop offset="0.76" stop-color="#209f95"/></linearGradient><linearGradient id="linear-gradient-32" x1="-54.4" y1="259.95" x2="193.85" y2="259.95" gradientUnits="userSpaceOnUse"><stop offset="0" stop-color="#0d5e59"/><stop offset="0.25" stop-color="#0e655b"/><stop offset="0.48" stop-color="#10715e"/></linearGradient><linearGradient id="linear-gradient-33" x1="262.61" y1="330.21" x2="484.28" y2="40.79" gradientUnits="userSpaceOnUse"><stop offset="0.04" stop-color="#0d6c59"/><stop offset="0.19" stop-color="#10735d"/><stop offset="0.41" stop-color="#198867"/><stop offset="0.67" stop-color="#27a977"/><stop offset="0.76" stop-color="#2cb67d"/></linearGradient><linearGradient id="linear-gradient-34" x1="-27.92" y1="659.3" x2="403.68" y2="444.51" gradientUnits="userSpaceOnUse"><stop offset="0.01" stop-color="#1c6c54"/><stop offset="0.77" stop-color="#4e8846"/></linearGradient><linearGradient id="linear-gradient-35" x1="1735.59" y1="740.11" x2="2438.93" y2="561.02" gradientUnits="userSpaceOnUse"><stop offset="0" stop-color="#1b8275"/><stop offset="0.77" stop-color="#179579"/></linearGradient><linearGradient id="linear-gradient-36" x1="2423.33" y1="736.93" x2="2769.12" y2="560.21" gradientUnits="userSpaceOnUse"><stop offset="0" stop-color="#137963"/><stop offset="0.77" stop-color="#2a8e63"/></linearGradient><linearGradient id="linear-gradient-37" x1="110.15" y1="784.43" x2="277.9" y2="698.69" gradientUnits="userSpaceOnUse"><stop offset="0.01" stop-color="#815022"/><stop offset="0.14" stop-color="#8d5723"/><stop offset="0.59" stop-color="#b66f27"/><stop offset="0.83" stop-color="#c57829"/></linearGradient><linearGradient id="linear-gradient-38" x1="66" y1="747.89" x2="137.21" y2="747.89" xlink:href="#linear-gradient-37"/><linearGradient id="linear-gradient-39" x1="-25.64" y1="718.56" x2="46.06" y2="718.56" gradientUnits="userSpaceOnUse"><stop offset="0.01" stop-color="#3d833f"/><stop offset="0.55" stop-color="#659840"/><stop offset="0.83" stop-color="#74a040"/></linearGradient><linearGradient id="linear-gradient-40" x1="-6.22" y1="765.52" x2="86.85" y2="765.52" xlink:href="#linear-gradient-39"/><linearGradient id="linear-gradient-41" x1="19.58" y1="757.34" x2="97.39" y2="717.57" xlink:href="#linear-gradient-39"/><linearGradient id="linear-gradient-42" x1="54.78" y1="772.29" x2="158.24" y2="772.29" xlink:href="#linear-gradient-39"/><linearGradient id="linear-gradient-43" x1="53.16" y1="723.99" x2="3035.4" y2="659.8" gradientUnits="userSpaceOnUse"><stop offset="0.01" stop-color="#24374e"/><stop offset="0.21" stop-color="#293b52"/><stop offset="0.44" stop-color="#37485e"/><stop offset="0.69" stop-color="#4e5d71"/><stop offset="0.94" stop-color="#6e7a8c"/><stop offset="0.94" stop-color="#6e7a8c"/></linearGradient><linearGradient id="linear-gradient-44" x1="205.52" y1="772.69" x2="275" y2="772.69" gradientTransform="translate(-0.18 -2.38)" gradientUnits="userSpaceOnUse"><stop offset="0.01" stop-color="#4f321c"/><stop offset="0.46" stop-color="#8d5723"/><stop offset="0.8" stop-color="#b56f27"/><stop offset="0.97" stop-color="#c57829"/></linearGradient><linearGradient id="linear-gradient-45" x1="108.7" y1="793.5" x2="295.01" y2="698.28" gradientUnits="userSpaceOnUse"><stop offset="0.01" stop-color="#4f321c"/><stop offset="0.39" stop-color="#8d5723"/><stop offset="0.68" stop-color="#b56f27"/><stop offset="0.83" stop-color="#c57829"/></linearGradient><linearGradient id="linear-gradient-46" x1="64" y1="755.89" x2="135.21" y2="755.89" xlink:href="#linear-gradient-45"/><linearGradient id="linear-gradient-47" x1="324.61" y1="768.26" x2="389.4" y2="768.26" xlink:href="#linear-gradient-45"/><linearGradient id="linear-gradient-48" x1="-27.64" y1="726.56" x2="44.06" y2="726.56" xlink:href="#linear-gradient-39"/><linearGradient id="linear-gradient-49" x1="-8.22" y1="773.52" x2="84.85" y2="773.52" xlink:href="#linear-gradient-39"/><linearGradient id="linear-gradient-50" x1="17.58" y1="765.34" x2="95.39" y2="725.57" xlink:href="#linear-gradient-39"/><linearGradient id="linear-gradient-51" x1="52.78" y1="780.29" x2="156.24" y2="780.29" xlink:href="#linear-gradient-39"/></defs><g class="cls-2"><rect class="cls-3" x="54.18" width="2693" height="833"/><path class="cls-4" d="M741.67,259.17s2.92-17.63,39.85-29.68,68-18.55,100.1-4.64S906.89,270.3,900.09,274c-13.21,7.2-41.66,16.67-117.6,7.42C736.81,275.86,741.67,259.17,741.67,259.17Z" transform="translate(54.4)"/><path class="cls-5" d="M1216.91,240.39s7-11.53,50.14-18.52,71.17-10.47,94.09.45,9.56,29.52-7.39,31.94-86.92,4.71-128.42-2.47C1225.33,251.79,1210.58,248.46,1216.91,240.39Z" transform="translate(54.4)"/><path class="cls-6" d="M1724.91,62.39s7-11.53,50.14-18.52,71.17-10.47,94.09.45,9.56,29.52-7.39,31.94-86.92,4.71-128.42-2.47C1733.33,73.79,1718.58,70.46,1724.91,62.39Z" transform="translate(54.4)"/><path class="cls-7" d="M1612.16,378s6.23-5.69,42.39-8.86,59.55-4.7,78.19.9,6.83,14.78-7.35,15.86-72.44,1.72-106.66-2.16C1618.73,383.72,1606.6,382,1612.16,378Z" transform="translate(54.4)"/><path class="cls-8" d="M2525.76,220.71s4.37-8.24,59.74-13.87,102-8.67,150.07-2.17,37.88,21.24,27.68,23c-19.8,3.36-62.45,7.79-176.29,3.47C2518.48,228.51,2525.76,220.71,2525.76,220.71Z" transform="translate(54.4)"/><path class="cls-9" d="M1762.78,589s202-123.89,452-141.92,478,86,478,86V695l-1002,8S1632.78,668.91,1762.78,589Z" transform="translate(54.4)"/><path class="cls-10" d="M-.18,463.9s75-17.39,275,10.86,286,12.05,380-10.86,324-88.7,680-28.8,276,124.32,842,139.11c0,0,212,10.59,432-27.31,0,0,72-13.9,84-13.9V695H-.18Z" transform="translate(54.4)"/><polygon class="cls-11" points="54.21 750.79 1937.18 737 2747.18 743.89 2747.18 902 54.18 900 54.21 750.79"/><path class="cls-12" d="M1977.48,562.79c-1.37,2.37-5.76,4-7.93,2.35a.84.84,0,0,0-1-.12,3.75,3.75,0,0,0-3.07,3.62c3.09,23.67,1,37.86,1,37.86h-9.69c-1.25-7.47.14-23.49.56-28.16.11-1.22-.36-6.76-.36-6.76a23.44,23.44,0,0,0-1.33-4.5,10.49,10.49,0,0,0-2.32-2.5c-8.07-.33-5.24-1.2-5.24-1.2.42.31,5,0,5.42-.23s-1.78-6.48-1.78-6.48h1.55a50.3,50.3,0,0,0,1.89,6.61c1.17.44,2.78-6.11,2.78-6.11h1.56s-2.62,5.23-1.49,4.74,2.93-4.28,2.93-4.28h1.2s-1.86,4.34-3.47,5.33-.61,1.61-.61,1.61c4.82,2,4.86-6.94,4.86-6.94h.83c-.53,4.55.24,6.45.24,6.45,4.08.67,5-6.45,5-6.45l1.32-.46a21.84,21.84,0,0,1-1,5.79,2.77,2.77,0,0,0,2.68,1.62c1.28,0,3.21-2.64,3.74-3.12Z" transform="translate(54.4)"/><path class="cls-13" d="M1977.74,551.29s-2.44-5.16-11.46-4.47-13.31,5.08,4.59,5.92C1970.87,552.74,1979.17,554.25,1977.74,551.29Z" transform="translate(54.4)"/><path class="cls-14" d="M1977.73,551.48s-2.46-5.16-11.59-4.48-13.48,5.08,4.64,5.92C1970.78,552.92,1979.18,554.44,1977.73,551.48Z" transform="translate(54.4)"/><path class="cls-13" d="M1946,556.26s4.19,1,16.88,1.51c12.16.51,12.43-1.72,12.43-1.72s2.64-5.13-8.32-6.67C1956.85,548,1938.32,551.94,1946,556.26Z" transform="translate(54.4)"/><path class="cls-15" d="M1946,556.52s4.19,1,16.88,1.52c12.16.51,12.43-1.74,12.43-1.74s2.64-5.17-8.32-6.72C1956.85,548.15,1938.32,552.17,1946,556.52Z" transform="translate(54.4)"/><path class="cls-13" d="M1972.64,562.58a66.49,66.49,0,0,0,13.93,0c6.39-.86,2.32-5.1,0-5.61s-8.08-.75-14.79,3C1967.5,562.36,1972.64,562.58,1972.64,562.58Z" transform="translate(54.4)"/><path class="cls-16" d="M1972.58,562.59a67.71,67.71,0,0,0,13.81,0c6.34-.83,2.3-4.94,0-5.44s-8-.73-14.66,2.91C1967.48,562.38,1972.58,562.59,1972.58,562.59Z" transform="translate(54.4)"/><path class="cls-17" d="M1946.4,560.08s-5.07-1.27-5.73,1.63c-.19.85.92,1.12,3,1.15C1945.57,562.89,1952.4,561.17,1946.4,560.08Z" transform="translate(54.4)"/><path class="cls-13" d="M1941.34,563.82a13.26,13.26,0,0,0,7.6-.34c2.31-.76,1.82-3.07-.57-3.07S1939.13,562.22,1941.34,563.82Z" transform="translate(54.4)"/><path class="cls-18" d="M1941.14,564.05a13.48,13.48,0,0,0,7.77-.35c2.36-.78,1.86-3.15-.58-3.15S1938.88,562.41,1941.14,564.05Z" transform="translate(54.4)"/><path class="cls-19" d="M1481.19,530.24c-2,3-8.65,5-11.91,3a1.47,1.47,0,0,0-1.52-.17c-4.83,1.16-4.62,4.56-4.62,4.56,4.65,29.75,1.5,47.58,1.5,47.58h-14.56c-1.88-9.39.21-29.52.84-35.39.17-1.53-.54-8.5-.54-8.5s-1.11-4.49-2-5.66a14.72,14.72,0,0,0-3.49-3.13c-12.11-.42-7.86-1.51-7.86-1.51.63.39,7.51,0,8.13-.29s-2.67-8.14-2.67-8.14h2.34c.36,2.42,2.83,8.3,2.83,8.3,1.76.56,4.19-7.67,4.19-7.67h2.34s-3.94,6.57-2.24,6,4.39-5.37,4.39-5.37h1.8s-2.79,5.44-5.2,6.69-.92,2-.92,2c7.23,2.51,7.29-8.71,7.29-8.71h1.26c-.8,5.71.36,8.09.36,8.09,6.13.85,7.56-8.09,7.56-8.09l2-.58c.22,2.5-1.55,7.28-1.55,7.28s.81,1.95,4,2c1.92,0,4.82-3.33,5.62-3.92Z" transform="translate(54.4)"/><path class="cls-13" d="M1481.58,515.79s-3.66-6.49-17.21-5.63-20,6.39,6.89,7.44C1471.26,517.6,1483.73,519.51,1481.58,515.79Z" transform="translate(54.4)"/><path class="cls-20" d="M1481.57,516s-3.7-6.49-17.41-5.63-20.25,6.39,7,7.44C1471.12,517.83,1483.75,519.74,1481.57,516Z" transform="translate(54.4)"/><path class="cls-13" d="M1433.83,522s6.3,1.24,25.36,1.9c18.26.64,18.67-2.17,18.67-2.17s4-6.44-12.5-8.38C1450.21,511.6,1422.36,516.61,1433.83,522Z" transform="translate(54.4)"/><path class="cls-21" d="M1433.83,522.36s6.3,1.24,25.36,1.91c18.26.64,18.67-2.19,18.67-2.19s4-6.49-12.5-8.45C1450.21,511.84,1422.36,516.89,1433.83,522.36Z" transform="translate(54.4)"/><path class="cls-13" d="M1473.92,530a120.54,120.54,0,0,0,20.93,0c9.6-1.08,3.48-6.41,0-7.06-3.65-.67-12.15-.94-22.22,3.77C1466.19,529.7,1473.92,530,1473.92,530Z" transform="translate(54.4)"/><path class="cls-22" d="M1473.83,530a121.78,121.78,0,0,0,20.74,0c9.52-1,3.46-6.21,0-6.84s-12-.91-22,3.65C1466.18,529.72,1473.83,530,1473.83,530Z" transform="translate(54.4)"/><path class="cls-23" d="M1434.5,526.84s-7.62-1.6-8.6,2c-.29,1.07,1.37,1.41,4.52,1.45C1433.25,530.36,1443.52,528.21,1434.5,526.84Z" transform="translate(54.4)"/><path class="cls-13" d="M1426.91,531.53a23.51,23.51,0,0,0,11.41-.43c3.47-1,2.73-3.86-.85-3.86S1423.58,529.52,1426.91,531.53Z" transform="translate(54.4)"/><path class="cls-24" d="M1426.6,531.83a24,24,0,0,0,11.67-.45c3.54-1,2.79-4-.87-4S1423.2,529.76,1426.6,531.83Z" transform="translate(54.4)"/><path class="cls-25" d="M438.78,522.1s387-13.13,729,15.39,364,66.51,629,59.51,438,7.69,667,.84l229-8.88V695l-2518-21Z" transform="translate(54.4)"/><path class="cls-26" d="M976.47,488.85c-4.77,9-20.78,15.31-28.34,9.13-2.06-1.68-3.53-.49-3.53-.49-11.24,3.48-10.74,13.8-10.74,13.8,10.8,90,3.47,144,3.47,144H903.49c-4.36-28.43.49-89.38,2-107.14.38-4.63-1.27-25.72-1.27-25.72s-2.58-13.6-4.65-17.13a38.34,38.34,0,0,0-8.1-9.47c-28.16-1.28-18.26-4.58-18.26-4.58,1.45,1.19,17.43.07,18.88-.87s-6.2-24.66-6.2-24.66h5.43c.83,7.35,6.59,25.13,6.59,25.13,4.07,1.7,9.72-23.22,9.72-23.22H913s-9.13,19.9-5.19,18,10.21-16.25,10.21-16.25h4.18s-6.49,16.48-12.1,20.27-2.14,6.1-2.14,6.1c16.82,7.58,17-26.37,17-26.37h2.93c-1.87,17.29.84,24.5.84,24.5,14.23,2.57,17.55-24.5,17.55-24.5l4.6-1.76c.52,7.59-3.58,22-3.58,22s1.86,5.92,9.34,6.16c4.46.14,11.2-10.08,13.06-11.89Z" transform="translate(54.4)"/><path class="cls-13" d="M976.7,445.16s-8.43-19.51-39.7-16.92-46.15,19.22,15.88,22.37C952.88,450.61,981.67,456.35,976.7,445.16Z" transform="translate(54.4)"/><path class="cls-27" d="M976.69,446s-8.6-19.63-40.47-17-47.05,19.34,16.19,22.52C952.41,451.47,981.75,457.24,976.69,446Z" transform="translate(54.4)"/><path class="cls-13" d="M865.72,464.19s14.57,3.75,58.69,5.75c42.27,1.92,43.22-6.57,43.22-6.57s9.19-19.51-28.92-25.37C903.63,432.61,839.16,447.76,865.72,464.19Z" transform="translate(54.4)"/><path class="cls-28" d="M865.74,465.16s14.63,3.78,58.92,5.8c42.44,1.94,43.4-6.62,43.4-6.62s9.22-19.67-29-25.58C903.8,433.33,839.08,448.6,865.74,465.16Z" transform="translate(54.4)"/><path class="cls-13" d="M957.52,488.41s21.77,2.85,40.24,0,6.7-16.94,0-18.65c-7-1.79-23.35-2.5-42.73,10C942.66,487.68,957.52,488.41,957.52,488.41Z" transform="translate(54.4)"/><path class="cls-29" d="M957.12,488.45s21.8,2.76,40.3,0,6.71-16.43,0-18.08c-7-1.73-23.39-2.43-42.79,9.65C942.24,487.74,957.12,488.45,957.12,488.45Z" transform="translate(54.4)"/><path class="cls-30" d="M867.3,478.72s-17.7-4.83-20,6.18c-.68,3.26,3.18,4.27,10.49,4.39C864.4,489.4,888.27,482.87,867.3,478.72Z" transform="translate(54.4)"/><path class="cls-13" d="M848.94,492.93s11.75,4.05,27.12-1.31c8.23-2.86,6.48-11.61-2-11.61S841,486.88,848.94,492.93Z" transform="translate(54.4)"/><path class="cls-31" d="M848.94,493.83s11.75,4.18,27.12-1.35c8.23-3,6.48-12-2-12S841,487.59,848.94,493.83Z" transform="translate(54.4)"/><path class="cls-32" d="M-1.22,803s116-4,648-18,786,10,894,18,306,3.4,272-22.3,86-23.7,189-17.7,250.17-15.64,437.59-3.82S2692.78,773,2692.78,773V695H-.18Z" transform="translate(54.4)"/><path class="cls-33" d="M1870.78,626s259.84-35,747.92,5l74.08,3.38V695l-896-7.47Z" transform="translate(54.4)"/><path class="cls-33" d="M-.22,574.21s281-87,557-52.11,286.93,88.36,399.47,99.63S1178.78,615,1272.78,597s276.15-25.23,542.08,51.38l67.92,20.87-1884,5.1Z" transform="translate(54.4)"/><path class="cls-34" d="M224,297.82s31.1,20.27,30.51,49.73c-.11,5.17.29,21-10.21,27.91-7.31,4.81-16.15,2.9-17.49,2.59-16.5-3.82-26.32-24.15-35.94-44.06C183,317.7,179.36,305,170,303.59c-1.12-.17-4.76-.72-7,1.42-7,6.63,5.06,34,18.55,53.33,10.59,15.16,19.78,22.09,17.39,31.3-1.85,7.17-9.42,10.8-10.15,11.14-6.07,2.81-12.82,1.88-22.31-1.86a110.19,110.19,0,0,1-36.25-23.79c-23.61-24.4-42.5-50.49-54.19-67.81L68,315.44Q75.48,328.19,83,341c-1.91-3.18-10.73-17.09-27.83-20.87a40.92,40.92,0,0,0-17.39,0c8.89,3.41,21.72,9.76,32.47,22C82,355.51,82.55,366,94.61,385c9,14.13,19.77,25.75,27.83,32.46,28,23.32,65.73,22.72,84.64,20.87,7.89,1,18.43,3.64,26.67,11.59,16.47,15.91,12.93,42.5,8.25,74.3-7.69,52.14-31.65,115.56-42.9,128.65-10.47,12.19,124.45,29,160.73,17.78,23.76-.18,34-7.64,38.93-13.78,29.87-36.92-56.12-117.34-31.68-209.27,2.63-9.89,11.36-42.74,35.94-52.17,14.5-5.57,21.16,2.15,41.74,0,40-4.18,66.19-38.73,68.41-41.74,20.38-27.72,26.25-67.63,26.25-67.63h0l-17.28,2.52c-.79,7-5.62,43.9-33.32,58.15-3.28,1.69-18.43,9.49-27.71,3.15-13-8.91-5-39.15-3.57-42,5.58-10.83,18.61-31.48,18.61-31.48l-43,5.4c2,26.14-7.16,49.13-24.7,58.73-2.34,1.29-15.73,8.61-26.36,3.15-12.88-6.62-18.36-30.23-8.32-57.63L358,280.3S348.29,372,333.78,381.37c-25.12,16.31-43.73-39.22-37.22-95.3H278s12.1,61.33-2.79,39.42-29.77-27.67-29.77-27.67h0" transform="translate(54.4)"/><path class="cls-35" d="M580.1,229.28s-34.91,9.45-190.47,10.61l.26-124.54c3.66-1.16,30.32-7.26,97.86,13.6,82,25.34,153.91,79.47,100.81,97.84" transform="translate(54.4)"/><path class="cls-36" d="M579.63,231.56S544.72,241,389.17,242.17l.25-124.55c3.66-1.15,30.32-7.26,97.86,13.61,82,25.34,153.91,79.46,100.81,97.84" transform="translate(54.4)"/><path class="cls-37" d="M561.55,207.78c-15.31,22.16-24.65,34.9-93.26,34.7s-146.71-34.07-77.4-76.38c0,0,31.5-15.77,81-15.53" transform="translate(54.4)"/><path class="cls-35" d="M378.48,53C509.84,92.39,524.41,134.11,521,161.64c0,0,.28,37.14-136.09,74.63h0s-80,30.69-227.67,14.59c-44.82-4.89-118.77-24.29-129-67.64-7.52-31.89,23.24-64.38,34.37-76.13C153.26,11.36,334.05,44,378.48,53Z" transform="translate(54.4)"/><path class="cls-38" d="M374.32,53.92c132.1,39.48,145.24,86.64,142.55,108.24,0,0,.3,37-136,74.27h0S300.87,267,153.16,250.86c-44.82-4.89-118.77-24.24-129-67.42-7.53-31.77,23.22-64.11,34.34-75.81C149.09,12.32,329.89,44.87,374.32,53.92Z" transform="translate(54.4)"/><path class="cls-35" d="M-53.76,283.13S-60.65,253.65-29,228c17.85-14.45,73.18-53.55,132.74-13.41,68.36,46.08,142.29,97.55,38.71,101.92S-43,322-53.76,283.13Z" transform="translate(54.4)"/><path class="cls-39" d="M-53.76,285.26S-60.65,255.77-29,230.15c17.85-14.45,73.18-53.55,132.74-13.41,68.36,46.07,142.29,97.55,38.71,101.92S-43,324.08-53.76,285.26Z" transform="translate(54.4)"/><path class="cls-35" d="M198.38,312.07c14.72,2.07,17.2,1.28,74.5,1.23,12.2,0,64,0,168.27-3.31C485,308.62,551,298.61,569,290.33c6-2.77,18-9.39,18.39-27.55,1-41.38-35.24-65.19-46.65-76.79-10.65-10.82-37.58-23.91-44.73-26.79C408.93,124,338.15,113.32,338.15,113.32c-16.93-3.89-150.41-32.58-226.52,47.55-7,7.37-50,52.15-37.42,91C88.72,296.71,168.61,307.9,198.38,312.07Z" transform="translate(54.4)"/><path class="cls-40" d="M196,316c14.72,2.06,17.19,1.28,74.5,1.22,12.19,0,64,0,168.27-3.3,43.84-1.38,109.88-11.39,127.85-19.67,6-2.76,18-9.39,18.39-27.55,1-41.37-35.24-65.19-46.65-76.79-10.65-10.82-37.58-23.9-44.73-26.79-87.08-35.17-157.86-45.87-157.86-45.87-16.93-3.89-150.41-32.59-226.52,47.54-7,7.37-50,52.16-37.42,91C86.34,300.62,166.24,311.81,196,316Z" transform="translate(54.4)"/><path class="cls-41" d="M362.74,487.3s.35,31.13,17.79,74.45,35,74.14,18.23,95.13-93.56,17.45-93.56,17.45S289.6,518.15,362.74,487.3Z" transform="translate(54.4)"/><path class="cls-42" d="M-27.49,375s26.31,10.73,12.7,52.57c73.51-46.13,116.16-4.29,112.53,51.51,75.32-9.66,96.19,90.12,67.15,112.66,0,0,62.62-44,120.7,17.16,58.08-53.64,196,23.61,231.41,63.31l-537.43,2.14Z" transform="translate(54.4)"/><path class="cls-43" d="M1706,665s57.62-64.94,172.86-33.48c44.14-44.65,107.89-46.68,149.57-2,15.94-38.56,55.17-27.42,107.89,1.51,51.49-22.82,101.76-.5,117.69,11.68,73-35.68,93-.78,104,6.32,49-17.25,73.78,16,73.78,16Z" transform="translate(54.4)"/><path class="cls-44" d="M2364.46,669.25s41-31.86,74.41-15c20.26-15.94,31.51-15.48,64.31-4.93-38.43-39.13,6.56,10.55-15-16.63s3.75-36.56,18.75,0c0,0,4,16.45,9.24,12.26-4.88-19.9-1-2.44-5.58-23.74s8.73-41.54,12.92-10.82c1,31.07,2.09,34.21,2.09,34.21s11.68-.13,10.9-12.63-5-26.44-6.71-37.27,27.58-36.67,40.84,9.76c2.09,13.26,2.44,23.39,8.73.35,11.87-54.46,57.94-27.93,42.23,15,0,0,55.86-60.39,94.95-11.17,15.71,33.86-12.91,48.17-15.36,52.36,0,0,1.4,9.42,13.27-4.19,17.8-14.31,38.33,11.17,38.33,11.17Z" transform="translate(54.4)"/><path class="cls-45" d="M190.62,817.67s3.62,8.18-6,26.22l3.53.19s7.44-28.76,11.78-37,12.34,21-5.72,39.94c48.48,2.78,283.36,17,283.36,17s-14.12-10.48-15.92-19.76S458.71,800,476.18,835s13.76,28.88,13.76,28.88l9.67,1.08a45.18,45.18,0,0,1,1.91-33.46c8.27-17.39,18.61-31.4,10.38,5.06C505.31,856,504,865.8,504,865.8l11.09-.83s-2.73-18.54,1.32-30.19,11.67-24.48,20.84-32,3.72,15.94-3.94,29.42-12.9,32.31-12.9,32.31l41.84,3.15s-16-6-11.3-28.12,8.64-12.11,12.33,4.49,5.58,25.23,5.58,25.23l14.11-.7s-7.26-5.58.72-16.4,16.25-7.84,7.77,4.28c-3.93,9-3.42,13.66-3.42,13.66l326.51,14.29s-12.83-9.77-8.2-24.69,18,21.83,19.73,23.88S934.8,886,934.8,886s-4.61-25.85,7.84-37.79-5.29,30-4.2,35.32,7,2.94,7,2.94-8.72-13.79,6.22-32.08,8.55,6.42-1.33,30.32L997.81,890l1.26,1.37s-4.68-34.39-8.39-40.48S988.18,817.28,996,840a221.59,221.59,0,0,1,5.87,47.6l6.15.93s-2-25.08-4.43-40.31,3.94-9.29,5.81,8.68c1.81,19.27,2.44,35.08,2.44,35.08l5.41-2.39s10-35.73,18.18-42,3.93,21.22-1.67,28.2a107.53,107.53,0,0,0-9.46,14.06L1237,895s1.47-31.92,1.25-47,6.52-17.73,12,19.46c.76,33-3.21,26.59-3.21,26.59l8,1s-3.09-26.07-2.49-39.85,6.12,1.58,7.09,29.9c.19,15.79.4,10,.4,10l5,1a123.37,123.37,0,0,1,15.42-32.4c10.86-16,11.09,13.66-5.42,27.4a38.49,38.49,0,0,0-2,7l98-4,164,1,313,5-266.41,68L-27,910l5-75,112.24,4.76,71.44,3.12s-18.26-6.8-14.16-29.9,15.42-9.05,18.65,28.37l7.91.8s-4.89-13.64-4-19.9c0,0,5.45-9,6.76,19.57l2.91,1.9.52-1.75S181.24,817.35,190.62,817.67Z" transform="translate(54.4)"/><path class="cls-45" d="M1518.11,914.77" transform="translate(54.4)"/><path class="cls-46" d="M212,779.25s-99.34,5.12-97.08,3.73l2.25-1.4s-35.75-14.46-2.25-41c0,0,35-38.7,91.43-27.51" transform="translate(54.4)"/><path class="cls-47" d="M66,746.64s45.15-49.3,67-23.52-47.79,57-47.79,57Z" transform="translate(54.4)"/><path class="cls-48" d="M-25.64,702.11S-6.51,685.67,18.63,697s27.43,27.91,27.43,27.91L10.21,744.12l-24.3-6.74Z" transform="translate(54.4)"/><path class="cls-49" d="M-6.22,738.8s44.88-13.4,93,48.2c2.89,12.51-93,3-93,3Z" transform="translate(54.4)"/><path class="cls-50" d="M9.16,737s15.12-21.61,31.14-43.74S101.78,672,91,750l-13.7,35.17Z" transform="translate(54.4)"/><path class="cls-51" d="M91,768.28s5.78-4.81,37.54-14.44,45.24,13.55,3.85,31.32c-51,7.18-77.58,7.84-77.58,7.84l14-14Z" transform="translate(54.4)"/><path class="cls-52" d="M2320,666.16s13.27-9.43,16.85-8.54-3.64-8.32-14.34,2C2318.24,663.8,2320,666.16,2320,666.16Z" transform="translate(54.4)"/><path class="cls-52" d="M2328.74,642.48c6-2.2-9.54-5.51-12.65,9-2.16,10,1.07,14.71,1.07,14.71" transform="translate(54.4)"/><path class="cls-52" d="M2315.35,666.16s-6.44-15.3-19.35-15.88S2315.35,667,2315.35,667" transform="translate(54.4)"/><path class="cls-53" d="M2392,667.77s13.27-13.51,16.85-12.24-3.64-11.93-14.34,2.91C2390.24,664.4,2392,667.77,2392,667.77Z" transform="translate(54.4)"/><path class="cls-53" d="M2389.16,667.77s5.58-30.79,11.58-33.95-9.54-7.9-12.65,12.86C2385.93,661,2389.16,667.77,2389.16,667.77Z" transform="translate(54.4)"/><path class="cls-53" d="M2387.35,667.77S2380.91,645.84,2368,645s19.35,24,19.35,24" transform="translate(54.4)"/><path class="cls-52" d="M2254.92,665.41s-13.27-5.43-16.85-4.92,3.64-4.8,14.34,1.17C2256.71,664.06,2254.92,665.41,2254.92,665.41Z" transform="translate(54.4)"/><path class="cls-52" d="M2257.79,665.41s-5.58-12.38-11.58-13.65,9.54-3.18,12.65,5.17C2261,662.7,2257.79,665.41,2257.79,665.41Z" transform="translate(54.4)"/><path class="cls-52" d="M2259.6,665.41a25.61,25.61,0,0,1,19.35-9.15c12.91-.34-19.35,9.66-19.35,9.66" transform="translate(54.4)"/><path class="cls-52" d="M759.5,668.51S741,652.49,736,654s5.07-14.14,20,3.44C762,664.51,759.5,668.51,759.5,668.51Z" transform="translate(54.4)"/><path class="cls-52" d="M763.5,668.51s-7.78-36.5-16.14-40.25,13.29-9.36,17.64,15.25C768,660.51,763.5,668.51,763.5,668.51Z" transform="translate(54.4)"/><path class="cls-52" d="M766,668.51s9-26,27-27S766,670,766,670" transform="translate(54.4)"/><path class="cls-53" d="M2011.5,665.51s-18.5-16-23.5-14.51,5.07-14.14,20,3.44C2014,661.51,2011.5,665.51,2011.5,665.51Z" transform="translate(54.4)"/><path class="cls-53" d="M2015.5,665.51s-7.78-36.5-16.14-40.25,13.29-9.36,17.64,15.25C2020,657.51,2015.5,665.51,2015.5,665.51Z" transform="translate(54.4)"/><path class="cls-53" d="M2018,665.51s9-26,27-27-27,28.5-27,28.5" transform="translate(54.4)"/><path class="cls-52" d="M828.5,666.65s-18.5-9.24-23.5-8.37,5.07-8.15,20,2C831,664.34,828.5,666.65,828.5,666.65Z" transform="translate(54.4)"/><path class="cls-52" d="M832.5,666.65s-7.78-21-16.14-23.21,13.29-5.4,17.64,8.8C837,662,832.5,666.65,832.5,666.65Z" transform="translate(54.4)"/><path class="cls-52" d="M835,666.65s9-15,27-15.57-27,16.43-27,16.43" transform="translate(54.4)"/><path class="cls-54" d="M1240.5,665.65s-18.5-9.24-23.5-8.37,5.07-8.15,20,2C1243,663.34,1240.5,665.65,1240.5,665.65Z" transform="translate(54.4)"/><path class="cls-54" d="M1244.5,665.65s-7.78-21-16.14-23.21,13.29-5.4,17.64,8.8C1249,661,1244.5,665.65,1244.5,665.65Z" transform="translate(54.4)"/><path class="cls-54" d="M1247,665.65s9-15,27-15.57-27,16.43-27,16.43" transform="translate(54.4)"/><polygon class="cls-55" points="2749.18 730 55.18 730 52.18 670 2746.18 670 2749.18 730"/><rect class="cls-56" x="53.18" y="665" width="2694" height="60"/><path class="cls-57" d="M214.22,760.08s30.85-7.56,48.16-6.05S281,787.8,253,786.76s-48.54-6.77-46.66-13.54C203.3,766.82,207.65,761.55,214.22,760.08Z" transform="translate(54.4)"/><path class="cls-58" d="M112.91,748.54s35-38.7,91.43-27.51c44.78,18.19,32.74,66.22,5.65,66.22,0,0-99.34,5.12-97.08,3.73l2.25-1.4S79.41,775.12,112.91,748.54Z" transform="translate(54.4)"/><path class="cls-59" d="M64,754.64s45.15-49.3,67-23.52-47.79,57-47.79,57Z" transform="translate(54.4)"/><path class="cls-60" d="M328.9,765.06s23-23.27,51.55-3c15.8,12.39,14.68,19.91-36.5,20.66C319.11,778.23,323.25,776,328.9,765.06Z" transform="translate(54.4)"/><path class="cls-61" d="M-27.64,710.11S-8.51,693.67,16.63,705s27.43,27.91,27.43,27.91L8.21,752.12l-24.3-6.74Z" transform="translate(54.4)"/><path class="cls-62" d="M-8.22,746.8s44.88-13.4,93,48.2c2.89,12.51-93,3-93,3Z" transform="translate(54.4)"/><path class="cls-63" d="M7.16,745s15.12-21.61,31.14-43.74S99.78,680,89,758l-13.7,35.17Z" transform="translate(54.4)"/><path class="cls-64" d="M89,776.28s5.78-4.81,37.54-14.44,45.24,13.55,3.85,31.32c-51,7.18-77.58,7.84-77.58,7.84l14-14Z" transform="translate(54.4)"/></g></svg>