<svg id="Layer_1" data-name="Layer 1" xmlns="http://www.w3.org/2000/svg" xmlns:xlink="http://www.w3.org/1999/xlink" viewBox="0 0 2985.73 1008.28"><defs><style>.cls-1{fill:none;}.cls-2{clip-path:url(#clip-path);}.cls-3{fill:url(#linear-gradient);}.cls-4{fill:url(#linear-gradient-2);}.cls-5{fill:url(#linear-gradient-3);}.cls-6{fill:url(#linear-gradient-4);}.cls-7{fill:#7dd4f3;}.cls-8{fill:url(#linear-gradient-5);}.cls-9{fill:url(#linear-gradient-6);}.cls-10{fill:url(#linear-gradient-7);}.cls-11{fill:#01491d;}.cls-12{fill:url(#linear-gradient-8);}.cls-13{fill:#c28a73;}.cls-14{fill:#ce856b;}.cls-15{fill:#754d32;}.cls-16{fill:#3beaa2;}.cls-17{fill:url(#linear-gradient-9);}.cls-18{fill:url(#linear-gradient-10);}.cls-19{fill:url(#linear-gradient-11);}.cls-20{fill:url(#linear-gradient-12);}.cls-21{fill:url(#linear-gradient-13);}.cls-22{fill:url(#linear-gradient-14);}.cls-23{fill:url(#linear-gradient-15);}.cls-24{fill:url(#linear-gradient-16);}.cls-25{fill:url(#linear-gradient-17);}.cls-26{fill:url(#linear-gradient-18);}.cls-27{fill:url(#linear-gradient-19);}.cls-28{fill:url(#linear-gradient-20);}.cls-29{fill:#9fe00a;}.cls-30{fill:#00c13e;}.cls-31{fill:#0a0931;}.cls-32{fill:#4f140f;}.cls-33{fill:#07281b;}.cls-34{fill:#082021;}.cls-35{fill:#8b979d;}.cls-36{fill:url(#linear-gradient-21);}.cls-37{fill:url(#linear-gradient-22);}.cls-38{fill:#81a0b1;}.cls-39{fill:url(#linear-gradient-23);}.cls-40{fill:#52ed83;}</style><clipPath id="clip-path" transform="translate(102.73 104)"><rect class="cls-1" width="2693" height="900"/></clipPath><linearGradient id="linear-gradient" x1="1220.88" y1="1583.41" x2="1555.08" y2="-68.76" gradientUnits="userSpaceOnUse"><stop offset="0.2" stop-color="#c5f7fd"/><stop offset="0.58" stop-color="#a7f7fd"/><stop offset="0.83" stop-color="#99f7fd"/></linearGradient><linearGradient id="linear-gradient-2" x1="706.61" y1="162.65" x2="789.68" y2="79.52" gradientUnits="userSpaceOnUse"><stop offset="0.15" stop-color="#82cdd9"/><stop offset="0.82" stop-color="#d7eef4"/></linearGradient><linearGradient id="linear-gradient-3" x1="614.99" y1="-22.24" x2="768.63" y2="-175.98" gradientTransform="matrix(0.85, -0.08, 0.08, 0.84, 109.38, 251.2)" gradientUnits="userSpaceOnUse"><stop offset="0.39" stop-color="#adcff1"/><stop offset="0.48" stop-color="#b9d9f5"/><stop offset="0.71" stop-color="#d2f0fc"/><stop offset="0.86" stop-color="#dbf8ff"/></linearGradient><linearGradient id="linear-gradient-4" x1="1267.24" y1="388.55" x2="1442.78" y2="212.89" gradientUnits="userSpaceOnUse"><stop offset="0.07" stop-color="#82cdd9"/><stop offset="0.85" stop-color="#d7eef4"/></linearGradient><linearGradient id="linear-gradient-5" x1="102.73" y1="890.5" x2="2795.73" y2="890.5" gradientUnits="userSpaceOnUse"><stop offset="0" stop-color="#489d27"/><stop offset="0.08" stop-color="#5aac33"/><stop offset="0.18" stop-color="#6bba3f"/><stop offset="0.31" stop-color="#76c547"/><stop offset="0.49" stop-color="#7dca4c"/><stop offset="1" stop-color="#7fcc4d"/></linearGradient><linearGradient id="linear-gradient-6" x1="102.73" y1="702" x2="2795.73" y2="702" gradientUnits="userSpaceOnUse"><stop offset="0" stop-color="#80f19c"/><stop offset="1" stop-color="#76eea2"/></linearGradient><linearGradient id="linear-gradient-7" x1="84.73" y1="785" x2="2812.73" y2="785" gradientUnits="userSpaceOnUse"><stop offset="0" stop-color="#4f5a73"/><stop offset="1" stop-color="#4f5a73"/></linearGradient><linearGradient id="linear-gradient-8" x1="301.7" y1="680.79" x2="293.65" y2="268.12" gradientUnits="userSpaceOnUse"><stop offset="0" stop-color="#907d61"/><stop offset="0.43" stop-color="#776b59"/><stop offset="0.76" stop-color="#686054"/></linearGradient><linearGradient id="linear-gradient-9" x1="282.67" y1="405.34" x2="511.87" y2="-158.68" gradientUnits="userSpaceOnUse"><stop offset="0.22" stop-color="#55ca93"/><stop offset="0.4" stop-color="#58cc9a"/><stop offset="0.73" stop-color="#5ccfa2"/></linearGradient><linearGradient id="linear-gradient-10" x1="744.41" y1="170.25" x2="522.95" y2="474.36" gradientUnits="userSpaceOnUse"><stop offset="0.3" stop-color="#59c587"/><stop offset="0.67" stop-color="#57b479"/></linearGradient><linearGradient id="linear-gradient-11" x1="-13.38" y1="359.79" x2="148.03" y2="206.93" gradientUnits="userSpaceOnUse"><stop offset="0.23" stop-color="#2fac76"/><stop offset="0.54" stop-color="#31ad79"/><stop offset="0.74" stop-color="#36b281"/><stop offset="0.88" stop-color="#3db98e"/></linearGradient><linearGradient id="linear-gradient-12" x1="82.03" y1="266.92" x2="77.66" y2="42.76" gradientUnits="userSpaceOnUse"><stop offset="0.18" stop-color="#63c28e"/><stop offset="0.6" stop-color="#63c091"/></linearGradient><linearGradient id="linear-gradient-13" x1="273.84" y1="418.59" x2="512.16" y2="98.32" gradientUnits="userSpaceOnUse"><stop offset="0.09" stop-color="#39a57e"/><stop offset="0.77" stop-color="#72e39c"/></linearGradient><linearGradient id="linear-gradient-14" x1="913.36" y1="596.32" x2="909.3" y2="388.31" xlink:href="#linear-gradient-8"/><linearGradient id="linear-gradient-15" x1="903.76" y1="457.47" x2="1019.29" y2="173.17" xlink:href="#linear-gradient-9"/><linearGradient id="linear-gradient-16" x1="1136.51" y1="338.97" x2="1024.88" y2="492.27" xlink:href="#linear-gradient-10"/><linearGradient id="linear-gradient-17" x1="754.53" y1="434.52" x2="835.9" y2="357.46" xlink:href="#linear-gradient-11"/><linearGradient id="linear-gradient-18" x1="802.63" y1="387.7" x2="800.42" y2="274.71" xlink:href="#linear-gradient-12"/><linearGradient id="linear-gradient-19" x1="899.31" y1="464.15" x2="1019.44" y2="302.72" xlink:href="#linear-gradient-13"/><linearGradient id="linear-gradient-20" x1="146.95" y1="788.96" x2="221.64" y2="518.88" gradientUnits="userSpaceOnUse"><stop offset="0.32" stop-color="#247a37"/><stop offset="0.5" stop-color="#359333"/><stop offset="0.8" stop-color="#4eb82d"/><stop offset="0.97" stop-color="#57c62b"/></linearGradient><linearGradient id="linear-gradient-21" x1="1222.94" y1="479.66" x2="1256.77" y2="399.69" gradientUnits="userSpaceOnUse"><stop offset="0.39" stop-color="#17b7b8"/><stop offset="0.44" stop-color="#29bdba"/><stop offset="0.54" stop-color="#4ac9bd"/><stop offset="0.65" stop-color="#64d2c0"/><stop offset="0.76" stop-color="#76d8c2"/><stop offset="0.87" stop-color="#81dcc3"/><stop offset="1" stop-color="#85ddc3"/></linearGradient><linearGradient id="linear-gradient-22" x1="1799.4" y1="507.13" x2="1824.35" y2="448.14" xlink:href="#linear-gradient-21"/><linearGradient id="linear-gradient-23" x1="608.32" y1="465.46" x2="633.05" y2="397.47" gradientUnits="userSpaceOnUse"><stop offset="0.15" stop-color="#12a3a7"/><stop offset="0.33" stop-color="#2cb8b8"/><stop offset="0.63" stop-color="#52d6d1"/><stop offset="0.79" stop-color="#61e1db"/></linearGradient></defs><g class="cls-2"><rect class="cls-3" x="100.73" y="103" width="2696" height="708"/><path class="cls-4" d="M704.66,115.37s1.69-11.44,23.15-19.26,39.52-12,58.16-3,14.68,29.5,10.72,31.91c-7.67,4.67-24.2,10.82-68.32,4.81C701.83,126.21,704.66,115.37,704.66,115.37Z" transform="translate(102.73 104)"/><path class="cls-5" d="M620.85,102.8S626.18,80.33,666.32,68s66.28-18.26,89.21,4,12.31,58.45-3.49,62.66-81.84,6.4-122-9.11C630.08,125.53,615.74,118.49,620.85,102.8Z" transform="translate(102.73 104)"/><path class="cls-6" d="M1262.22,288.39s3.62-23.15,49.48-39,84.48-24.36,124.3-6.09,31.38,59.7,22.93,64.58c-16.4,9.46-51.72,21.9-146,9.74C1256.19,310.32,1262.22,288.39,1262.22,288.39Z" transform="translate(102.73 104)"/><path class="cls-7" d="M0,319S93,129,235,45,519,81,519,81,647,207,721,359c0,0,68-161.84,182-171.92S1104.37,278.59,1225,407c62,66,272,52,462,26s470-92,858,17c0,0,112,33,148,39v86L0,551Z" transform="translate(102.73 104)"/><rect class="cls-8" x="102.73" y="777" width="2693" height="227"/><polygon class="cls-9" points="102.73 613 2795.73 621 2795.73 779 102.73 791 102.73 613"/><rect class="cls-10" x="84.73" y="759" width="2728" height="52"/><path class="cls-11" d="M0,789s269-28,557-20,524,80,560,82,292,40,774-12,705-90,803-82l-1,143H0Z" transform="translate(102.73 104)"/><path class="cls-12" d="M460.74,654.59c.35-.91-2.47-2.35-4.89-5.8a21.53,21.53,0,0,1-3.23-7.87c-2.13-8.28-10.36-18.3-13.07-22-8.62-11.75-12.69-29.38-19.43-58.61a434.21,434.21,0,0,1-8.51-50.24c-.49-29.16,3.51-51.13,11.76-63.81A345.81,345.81,0,0,0,446.9,403s48.44,2.2,52.6,0,15.91-12.67,13.84-39.71l.69-6.51-12.46,3.49s-3.83,24.25-19.78,26.13c-19,2.63-40.77-9.05-37.58-26.13H430.39s4.25,49.81-16.67,60.33c-15.59,4.13-24.81-2.41-24.1-31.57l.7-29.16-24.81,0s1.42,31,0,32.88-12.41,21-24.11-18.41c-9.92-27.81-4.25-14.42-4.25-14.42l-13.47.31s6,30.64,25.88,49.81c13.11,18.41,13.47,49.22,3.54,60.12-10.63,10.9-28.71,16.91-42.54-47.72-9.22-42.84-11.7-62.21-11.7-62.21l-19.14-.21s7.8,51.14,6.38,60.16c-1.77,10.15-2.48,41.34-44.31,28.19-21.72-3.21-65.21-14.7-83.31-49.23-6.74-29.31-5.32-40.59-5.32-40.59l-15.59-.41s.35,16.95,3.54,21.46a50.19,50.19,0,0,1-27.83-6.12c-16-8.88-22.54-23.91-24.28-28.37l-12.51-.52a74.44,74.44,0,0,0,12.62,22.11c12.33,14.79,29.49,22.95,42.07,24.92,2.51.39,12.43,1.73,12.39,2.14,0,.12-.69.12-.69.12s3.19,44.34,53.18,64.63c44.66,17.66,64.16,26.68,75.51,33.82s19.14,14.66,17.37,39.08a202.59,202.59,0,0,0,3.19,58.44,198,198,0,0,0,24.46,62.94c38.38,1.27,63,1.4,78.84,1.24,31.7-.3,49.74-1.95,59.23.38C454.71,654.45,460.27,655.82,460.74,654.59Z" transform="translate(102.73 104)"/><path class="cls-13" d="M410.94,503.73a98.11,98.11,0,0,0-30.09,28.19c-33.93,49.21-10.85,113.92-8.23,121l89.58,1.71A289.37,289.37,0,0,1,445,625.75C421.44,580.64,413.45,536.56,410.94,503.73Z" transform="translate(102.73 104)"/><path class="cls-14" d="M307.68,410.63s16.6,65.17,29.62,64.69C323.84,482,298.71,463.91,307.68,410.63Z" transform="translate(102.73 104)"/><path class="cls-15" d="M400.57,582.11a24.81,24.81,0,0,1-4.78.6A11.4,11.4,0,0,1,391,582a4.59,4.59,0,0,1-1.92-1.52,4.15,4.15,0,0,1-.72-2.36,11,11,0,0,1,1.14-4.73,34.19,34.19,0,0,1,5.3-8.1,30.38,30.38,0,0,1,7.39-6.29,11.35,11.35,0,0,1,4.69-1.61,5.54,5.54,0,0,1,2.56.4,5.5,5.5,0,0,1,2,1.59,11.46,11.46,0,0,1,2.16,4.47,22.43,22.43,0,0,1,.54,2.4c.09.81.24,1.62.28,2.43a56.5,56.5,0,0,1-2.43,19.18l0,.06,0,.06a68.2,68.2,0,0,1-5.93,8.71,41.6,41.6,0,0,1-7.53,7.41,18.73,18.73,0,0,1-4.67,2.61,8.27,8.27,0,0,1-5.45.26,8.43,8.43,0,0,1-4.1-3.57,20.2,20.2,0,0,1-2.21-4.85,48.29,48.29,0,0,1-2-10.34,75.12,75.12,0,0,1-.17-10.5l1-20.9-.41,20.92a75.31,75.31,0,0,0,.33,10.41A47.68,47.68,0,0,0,383,598.26a20.48,20.48,0,0,0,2.17,4.61,7.57,7.57,0,0,0,3.64,3.18,7.27,7.27,0,0,0,4.79-.29,17.91,17.91,0,0,0,4.42-2.49,41.12,41.12,0,0,0,7.29-7.27,72.26,72.26,0,0,0,5.82-8.58l-.05.12a55.42,55.42,0,0,0,2.48-18.8c0-.79-.17-1.57-.25-2.35s-.26-1.56-.5-2.3a10.81,10.81,0,0,0-2-4.13,9.57,9.57,0,0,0-.78-.78,10,10,0,0,0-.92-.57,4.69,4.69,0,0,0-2.14-.35,10.36,10.36,0,0,0-4.34,1.43,29.87,29.87,0,0,0-7.29,6,35.05,35.05,0,0,0-5.34,7.86,10.82,10.82,0,0,0-1.22,4.51,3.83,3.83,0,0,0,.6,2.19,4.24,4.24,0,0,0,1.77,1.47,11.11,11.11,0,0,0,4.65.84A24.84,24.84,0,0,0,400.57,582.11Z" transform="translate(102.73 104)"/><path class="cls-16" d="M58.53,214.9c3.86-28.11,14-70.53,44.54-105.19,82.49-93.63,240.46-50.06,291-36.07C518.82,108.16,599.68,190.92,639.29,239.1l19.64,15.46A1621.53,1621.53,0,0,1,345.43,281,1621.37,1621.37,0,0,1,72.62,254.11Z" transform="translate(102.73 104)"/><path class="cls-17" d="M59.64,213.33c3.82-27.06,13.86-67.9,44.08-101.26,81.62-90.13,237.94-48.19,287.94-34.73,123.46,33.23,203.47,112.91,242.66,159.29l19.44,14.88a1647,1647,0,0,1-310.22,25.41,1646.15,1646.15,0,0,1-270-25.85Z" transform="translate(102.73 104)"/><path class="cls-16" d="M569.69,229.05s114.23-26.25,164.87,53.67c33,62,38.87,82.14-164.87,70.89C535.25,254.3,569.69,229.05,569.69,229.05Z" transform="translate(102.73 104)"/><path class="cls-18" d="M572.66,231.37s111-26.68,160.13,54.56c32,63.05,37.75,83.5-160.13,72.06C539.2,257,572.66,231.37,572.66,231.37Z" transform="translate(102.73 104)"/><path class="cls-16" d="M83.49,343c-3.44,0-103.31-7-103.31-7s-62-12.89-26.4-44.52a59.25,59.25,0,0,0,22.5-19.19c7.09-10.36,5.2-15.44,9.72-25C.32,217,48.36,206.75,48.36,206.75h0S113.52,193.42,162,219.58c5.41,2.92,8.07,4.49,10.13,7.21C194.55,256.39,124.82,343,124.82,343Z" transform="translate(102.73 104)"/><path class="cls-19" d="M82.65,345c-3.32,0-99.78-7.05-99.78-7.05S-77,325-42.63,293.28A57.89,57.89,0,0,0-20.9,274c6.85-10.39,5-15.48,9.39-25,13.83-30.3,60.24-40.62,60.23-40.62h0S111.66,195,158.48,221.23c5.23,2.92,7.8,4.51,9.79,7.23C189.92,258.15,122.57,345,122.57,345Z" transform="translate(102.73 104)"/><path class="cls-16" d="M32.83,169.74s9.44-22.1,74.35-10.87c60.2,13.73,14.17,48.66-37.18,41.18S24.24,177.43,32.83,169.74Z" transform="translate(102.73 104)"/><path class="cls-20" d="M33.19,171.18s9.15-21.48,72.06-10.57c58.34,13.34,13.73,47.29-36,40S24.87,178.65,33.19,171.18Z" transform="translate(102.73 104)"/><path class="cls-16" d="M88.84,263.05s56.83-47.34,116.41-65.91c65.09-27.84,151.25-90,255.75-61.26,80.67,26.92,141.17,64.05,176.92,132.74,17.42,39.92,20.17,88.19-112.75,81.69l-370.33.59S10,340.1,88.84,263.05Z" transform="translate(102.73 104)"/><path class="cls-21" d="M83.41,270.15s57.49-48.13,117.77-67c65.84-28.32,153-91.55,258.72-62.29,81.6,27.37,142.81,65.12,179,135,17.62,40.58,20.4,89.65-114.06,83.05l-374.63.6S3.66,348.48,83.41,270.15Z" transform="translate(102.73 104)"/><path class="cls-14" d="M514,361s1.77,28.09-10.69,39c-3.72,3.82-6.67,3.71-11.11,3.82a25.88,25.88,0,0,0,15.49-18.61A141.23,141.23,0,0,0,511,360.12H514Z" transform="translate(102.73 104)"/><path class="cls-14" d="M390.32,359.86c-.49,4.93-.73,22.05-.53,25.38.85,14.61,1.83,31.24,10.77,35.54a11.71,11.71,0,0,0,6.71.89l3.39-.4c-4.16,5.45-7.89,5.91-9.09,6-7.39.36-16-9.81-18.15-26.2a105.84,105.84,0,0,1-1.49-23.56c.34-6.54,1.58-17.62,1.58-17.62h6.81Z" transform="translate(102.73 104)"/><path class="cls-22" d="M993.52,583.12c.18-.46-1.24-1.19-2.46-2.93a10.87,10.87,0,0,1-1.63-4c-1.07-4.17-5.22-9.22-6.59-11.08-4.34-5.92-6.39-14.81-9.79-29.54a218.56,218.56,0,0,1-4.29-25.33c-.25-14.69,1.77-25.77,5.93-32.17a174.88,174.88,0,0,0,11.86-21.81s24.42,1.11,26.51,0,8-6.39,7-20l.35-3.28-6.28,1.76s-1.93,12.23-10,13.17c-9.59,1.33-20.55-4.56-18.94-13.17h-7s2.15,25.11-8.4,30.41c-7.86,2.08-12.51-1.21-12.15-15.91l.36-14.7-12.51,0s.72,15.63,0,16.57-6.25,10.61-12.15-9.28c-5-14-2.15-7.26-2.15-7.26l-6.79.15s3,15.45,13.05,25.11c6.61,9.28,6.79,24.81,1.79,30.3-5.36,5.5-14.48,8.53-21.45-24.05-4.64-21.6-5.89-31.36-5.89-31.36l-9.65-.1s3.93,25.78,3.21,30.32c-.89,5.12-1.25,20.84-22.33,14.21-10.95-1.61-32.87-7.41-42-24.82-3.39-14.77-2.68-20.45-2.68-20.45l-7.86-.21s.18,8.54,1.79,10.81a25.26,25.26,0,0,1-14-3.08,28.28,28.28,0,0,1-12.24-14.3l-6.31-.26A37.56,37.56,0,0,0,806.2,438c6.21,7.46,14.86,11.57,21.2,12.57,1.27.19,6.27.87,6.25,1.07s-.35.06-.35.06,1.61,22.35,26.8,32.58c22.52,8.91,32.35,13.45,38.07,17s9.65,7.39,8.75,19.7a102.32,102.32,0,0,0,1.61,29.46,99.61,99.61,0,0,0,12.33,31.72c19.35.64,31.77.71,39.74.63,16-.16,25.07-1,29.86.19C990.48,583.05,993.29,583.73,993.52,583.12Z" transform="translate(102.73 104)"/><path class="cls-13" d="M968.42,507.07a49.55,49.55,0,0,0-15.17,14.21c-17.1,24.8-5.47,57.42-4.14,61l45.15.86a146.81,146.81,0,0,1-8.69-14.53A158.94,158.94,0,0,1,968.42,507.07Z" transform="translate(102.73 104)"/><path class="cls-14" d="M916.37,460.14s8.37,32.85,14.93,32.61C924.51,496.11,911.85,487,916.37,460.14Z" transform="translate(102.73 104)"/><path class="cls-15" d="M963.19,546.58a12.12,12.12,0,0,1-2.4.3,5.63,5.63,0,0,1-2.4-.37,2.08,2.08,0,0,1-1.34-2,5.65,5.65,0,0,1,.58-2.39,17.2,17.2,0,0,1,2.67-4.08,15.52,15.52,0,0,1,3.72-3.17,5.86,5.86,0,0,1,2.37-.81,2.89,2.89,0,0,1,1.29.2,5.36,5.36,0,0,1,.57.34c.15.16.33.29.46.46a5.71,5.71,0,0,1,1.09,2.26,11.87,11.87,0,0,1,.41,2.43,28.48,28.48,0,0,1-1.22,9.67v0l0,0a27.05,27.05,0,0,1-6.78,8.13,9.7,9.7,0,0,1-2.36,1.31,4.15,4.15,0,0,1-2.74.13,4.24,4.24,0,0,1-2.07-1.8,10.13,10.13,0,0,1-1.11-2.44,30.61,30.61,0,0,1-1.08-10.51l.48-10.53-.2,10.54a30.35,30.35,0,0,0,1.21,10.36,10.08,10.08,0,0,0,1.1,2.32,3.76,3.76,0,0,0,1.83,1.61,3.65,3.65,0,0,0,2.41-.15,9.09,9.09,0,0,0,2.23-1.25,27.2,27.2,0,0,0,6.61-8l0,.06a28.29,28.29,0,0,0,1.25-9.48,12.28,12.28,0,0,0-.38-2.34,5.42,5.42,0,0,0-1-2.08,2.19,2.19,0,0,0-1.94-.86,5.25,5.25,0,0,0-2.19.72,16.87,16.87,0,0,0-6.36,7,5.59,5.59,0,0,0-.62,2.27,2,2,0,0,0,1.2,1.85,5.79,5.79,0,0,0,2.34.42A12.16,12.16,0,0,0,963.19,546.58Z" transform="translate(102.73 104)"/><path class="cls-16" d="M790.78,361.48c2-14.17,7.06-35.55,22.45-53,41.58-47.2,121.21-25.24,146.68-18.19,62.89,17.4,103.65,59.12,123.61,83.41l9.91,7.79a816.79,816.79,0,0,1-158,13.31,817.05,817.05,0,0,1-137.52-13.54Z" transform="translate(102.73 104)"/><path class="cls-23" d="M791.34,360.69c1.93-13.64,7-34.23,22.22-51,41.14-45.44,119.94-24.29,145.14-17.51,62.23,16.75,102.56,56.91,122.32,80.29l9.8,7.5a830.16,830.16,0,0,1-156.38,12.81,828.7,828.7,0,0,1-136.07-13Z" transform="translate(102.73 104)"/><path class="cls-16" d="M1048.44,368.61s57.58-13.23,83.11,27.06c16.62,31.26,19.59,41.4-83.11,35.73C1031.08,381.34,1048.44,368.61,1048.44,368.61Z" transform="translate(102.73 104)"/><path class="cls-24" d="M1049.94,369.78s55.92-13.44,80.72,27.5c16.14,31.79,19,42.09-80.72,36.33C1033.07,382.72,1049.94,369.78,1049.94,369.78Z" transform="translate(102.73 104)"/><path class="cls-16" d="M803.36,426c-1.73,0-52.07-3.54-52.07-3.54S720,416,738,400a29.77,29.77,0,0,0,11.34-9.66c3.58-5.23,2.62-7.79,4.9-12.6,7.22-15.22,31.44-20.41,31.44-20.41h0s32.84-6.71,57.28,6.47c2.72,1.47,4.06,2.26,5.1,3.63,11.3,14.92-23.85,58.56-23.85,58.56Z" transform="translate(102.73 104)"/><path class="cls-25" d="M802.94,427.05c-1.68,0-50.3-3.55-50.3-3.55S722.46,417,739.79,401a29.3,29.3,0,0,0,11-9.7c3.45-5.24,2.53-7.81,4.73-12.63,7-15.27,30.37-20.47,30.37-20.47h0s31.72-6.74,55.32,6.48c2.64,1.48,3.93,2.27,4.93,3.65,10.92,15-23,58.73-23,58.73Z" transform="translate(102.73 104)"/><path class="cls-16" d="M777.82,338.72s4.76-11.14,37.49-5.48c30.34,6.92,7.13,24.53-18.75,20.75S773.5,342.59,777.82,338.72Z" transform="translate(102.73 104)"/><path class="cls-26" d="M778,339.44s4.61-10.82,36.32-5.32c29.41,6.72,6.92,23.83-18.16,20.17S773.81,343.21,778,339.44Z" transform="translate(102.73 104)"/><path class="cls-16" d="M806.06,385.75s28.64-23.86,58.68-33.22c32.81-14,76.24-45.39,128.92-30.88,40.66,13.57,71.15,32.28,89.17,66.91,8.78,20.12,10.17,44.45-56.83,41.18l-186.67.3S766.32,424.59,806.06,385.75Z" transform="translate(102.73 104)"/><path class="cls-27" d="M803.32,389.33s29-24.26,59.37-33.77c33.18-14.28,77.12-46.15,130.41-31.4,41.13,13.79,72,32.82,90.21,68,8.88,20.46,10.29,45.2-57.49,41.87l-188.84.3S763.12,428.81,803.32,389.33Z" transform="translate(102.73 104)"/><path class="cls-14" d="M1020.38,435.13s.9,14.16-5.39,19.66c-1.87,1.93-3.35,1.88-5.59,1.93a13,13,0,0,0,7.8-9.38,71.35,71.35,0,0,0,1.64-12.66h1.54Z" transform="translate(102.73 104)"/><path class="cls-14" d="M958,434.55c-.25,2.48-.37,11.12-.27,12.8.43,7.36.92,15.74,5.43,17.91a6,6,0,0,0,3.38.45l1.71-.2c-2.1,2.74-4,3-4.58,3-3.73.19-8.09-4.94-9.15-13.2a53,53,0,0,1-.75-11.88c.17-3.3.79-8.88.79-8.88H958Z" transform="translate(102.73 104)"/><path class="cls-28" d="M-88.2,643.56s-49.61-26.46,34.51-37.19c0,0-28-19.31,0-35.76,0,0,20.48-13.59,56.07-5,0,0,41-28.61,98.13-10.73,0,0,50.68-10.73,84.11,2.14s21.57,39.26,21.57,39.26,55-12.08,78.72,2.94c0,0,52.84-.72,58.23,18.59,0,0,84.11-10.73,83,15.74,0,0,68.83-7.55,53.92,13.58L474,655H-77Z" transform="translate(102.73 104)"/><path class="cls-29" d="M465,655.37s-16.32.07-24.57-5.53,11.64-3,27.59-.26c0,0-1.47-1.32-13.85-7.75s-8.84-11.58.92-6.91a137.16,137.16,0,0,1,19.48,11.93s-17.74-14.51-17.93-17.34,3.21-3,19.62,15.27c0,0-15.12-15.24-11.88-22.68S479,643.17,479,643.17s-10-30.57-3-31.9,5.48,30.54,5.48,30.54,6.86-17.64,17.5-17.35-13.78,19-16.06,19.23c0,0,1,1.25,4.42.59s13.26-10.06,18.82-10.42,13.78,6.33-18.56,21.14Z" transform="translate(102.73 104)"/><path class="cls-11" d="M458,780.48s-30.24-20.3-40.3-21S420.9,745,451,762.1C451,762.1,460.47,770.62,458,780.48Z" transform="translate(102.73 104)"/><path class="cls-11" d="M465.52,787.06s-14.27-37.42-31.42-53.29,16.16-11.94,29.28,15.82S465.52,787.06,465.52,787.06Z" transform="translate(102.73 104)"/><path class="cls-11" d="M474.51,786.54s2.58-33.84,37.42-38.42S487.68,762.46,474.51,786.54Z" transform="translate(102.73 104)"/><path class="cls-11" d="M281,789.5s-35-23-24.5-41.86C265,732.38,281,789.5,281,789.5Z" transform="translate(102.73 104)"/><path class="cls-11" d="M290.5,789.5S270,763.5,281,750,290.5,789.5,290.5,789.5Z" transform="translate(102.73 104)"/><path class="cls-11" d="M806.84,812.07s-10.54-22.9-32.46-31.71,3.84-21.23,26.09,5.19C800.47,785.55,812.25,799.65,806.84,812.07Z" transform="translate(102.73 104)"/><path class="cls-11" d="M828.37,812s-17.71-22.17-5.78-36.23S828.37,812,828.37,812Z" transform="translate(102.73 104)"/><path class="cls-11" d="M931,827.38s-14.5-30.41.46-39.48S931,827.38,931,827.38Z" transform="translate(102.73 104)"/><path class="cls-11" d="M940,827.45s4.3-33.91,13.76-36.84S953.73,814.32,940,827.45Z" transform="translate(102.73 104)"/><path class="cls-11" d="M1480.5,882.5s-.5-55.82,21-64.41S1489,854.5,1480.5,882.5Z" transform="translate(102.73 104)"/><path class="cls-11" d="M1487.5,882.5s13.5-64,46.5-65.48S1508,840.5,1487.5,882.5Z" transform="translate(102.73 104)"/><path class="cls-11" d="M1521.67,880.54s3.95-37.31,25.66-40.39C1560,838.35,1521.67,880.54,1521.67,880.54Z" transform="translate(102.73 104)"/><path class="cls-30" d="M960.34,711.41s-13-9.54-25-10.14,4.69-8.13,21,3C963.34,709,960.34,711.41,960.34,711.41Z" transform="translate(102.73 104)"/><path class="cls-30" d="M963,711.41s-4.66-21.47-15.66-26.24,14.59-6.46,19,11.93C969.34,709.62,963,711.41,963,711.41Z" transform="translate(102.73 104)"/><path class="cls-30" d="M967.14,711.41s7.2-16.7,25.2-17.29S967.14,711.41,967.14,711.41Z" transform="translate(102.73 104)"/><path class="cls-30" d="M527.67,711.64s-10.59-6-20.38-6.4,3.83-5.14,17.12,1.88C530.12,710.14,527.67,711.64,527.67,711.64Z" transform="translate(102.73 104)"/><path class="cls-30" d="M529.85,711.64s-3.81-15.8-12.77-19.31,11.89-4.75,15.48,8.78C535,710.33,529.85,711.64,529.85,711.64Z" transform="translate(102.73 104)"/><path class="cls-30" d="M533.22,711.64s5.87-10.54,20.54-10.92S533.22,711.64,533.22,711.64Z" transform="translate(102.73 104)"/><path class="cls-30" d="M1437.7,711s-16.16-10.27-20.53-9.3,4.44-9.07,17.47,2.2C1439.88,708.38,1437.7,711,1437.7,711Z" transform="translate(102.73 104)"/><path class="cls-30" d="M1441.19,711s-6.79-23.4-14.09-25.81,11.6-6,15.4,9.78C1445.12,705.82,1441.19,711,1441.19,711Z" transform="translate(102.73 104)"/><path class="cls-30" d="M1443.4,711s7.83-16.67,23.55-17.31-23.55,18.27-23.55,18.27" transform="translate(102.73 104)"/><path class="cls-30" d="M1736.7,710.17s-16.16-7.91-20.53-7.17,4.44-7,17.47,1.7C1738.88,708.2,1736.7,710.17,1736.7,710.17Z" transform="translate(102.73 104)"/><path class="cls-30" d="M1740.19,710.17s-6.79-18-14.09-19.87,11.6-4.63,15.4,7.53C1744.12,706.22,1740.19,710.17,1740.19,710.17Z" transform="translate(102.73 104)"/><path class="cls-30" d="M1742.4,710.17s7.83-12.84,23.55-13.33-23.55,14.07-23.55,14.07" transform="translate(102.73 104)"/><path class="cls-31" d="M2640,761s-81.91-168.76-200-154c-64,8,108,159,108,159s-159-75-286-13c0,0-8,26,204,48,0,0-166,43-184,75s245-46,245-46-43,42-45,71h99s21-44,26-55l-4,55h85.5s-1.5-72-8.5-76c0,0,109-211,73-189S2640,761,2640,761Z" transform="translate(102.73 104)"/><path class="cls-32" d="M2105-7s61,55,195,241-68,168-119,156-388-105-539-278-179-216-179-216l-50,11s185,241,268,306,316,200,570,235c0,0,77,8,116,6s155,100,291,450h35V741s-114-142-187-326c0,0-21-61-6-117s55-210,34-301h-49s-7,89-22,196c-12.08,86.18-12,135-26,144s-45-70-88-127S2157-22,2157-22Z" transform="translate(102.73 104)"/><path class="cls-33" d="M2025-10.9s-161.51,4.15-188,40.23,238.48-17.78,238.48-17.78-84.8,63.14-29.48,80.78,89.61-69.55,89.61-69.55S2132.26,77.16,2200,114c45.7,24.85-3.45-107.26-3.45-107.26s44.09,79.38,165.16,56.13c0,0,30.28-16.23-101.52-77.47,0,0,126.37-15.54,144.81-33.18L2393.78-59,1855-67l7.22,19.24S1947.2-12.5,2025-10.9Z" transform="translate(102.73 104)"/><path class="cls-34" d="M2485,38.38S2318.71,68.22,2291,106s246.9-44.11,246.9-44.11S2443.06,158.53,2501,177s99.88-103.36,99.88-103.36S2564.63,240,2633,283c35,22,31.69-226.15,31.69-226.15S2697.21,182.35,2824,158c0,0,45.37-59.36-92.65-123.5,0,0,132.34-16.27,151.65-34.74L2871.24-12,2307-20.4,2299-4S2403.56,36.7,2485,38.38Z" transform="translate(102.73 104)"/><path class="cls-33" d="M1291,50s-153,27-186,72,249-44,249-44-93,76-24,98,99-84,99-84-19.49,132.05,65,178c57,31,11-198,11-198s55,99,206,70c0,0,37.77-20.24-126.62-96.62C1584.38,45.38,1742,26,1765,4l-14-14L1079-20l9,24S1194,48,1291,50Z" transform="translate(102.73 104)"/><path class="cls-31" d="M2206,764s-81.91-168.76-200-154c-64,8,108,159,108,159s-159-75-286-13c0,0-8,26,204,48,0,0-166,43-184,75s245-46,245-46-43,42-45,71h99s21-44,26-55l-4,55h85.5s-1.5-72-8.5-76c0,0,41,73,137,76s75-19,75-19-8-36-134-90c0,0,77-20,145-8,0,0,32-39-36-61s-153,46-153,46,83-62,97-97-22-58-58-36S2206,764,2206,764Z" transform="translate(102.73 104)"/><path class="cls-35" d="M1217.17,453.33a44.66,44.66,0,0,0,3.58,10.83c1.66,3.44,2.9,5.95,5.63,8.15a17,17,0,0,0,7.53,3.39V454l5.57.2v13.32s12.27,1.7,14-12.82h1.7s1.46,16.58-15.42,18.53l-1.14,61.05h-5.14l.21-50.37a35.32,35.32,0,0,1-10.37-8.54,36.85,36.85,0,0,1-8.08-22.17l1.1,0C1216.61,453.28,1216.9,453.3,1217.17,453.33Z" transform="translate(102.73 104)"/><path class="cls-36" d="M1196.15,428.59s52.41-19.32,84,0c30.48,20.45,8.83,26.15-18.79,26.15-27.91-.28-62.09-2.36-62.09-2.36S1161.41,446.58,1196.15,428.59Z" transform="translate(102.73 104)"/><path class="cls-35" d="M1793.14,484.2a17.92,17.92,0,0,0,3.07,5.59,12.85,12.85,0,0,0,4.85,4.21,20.28,20.28,0,0,0,6.46,1.74V484.57l4.78.1v6.88s10.55.87,12-6.62h1.46s1.25,8.56-13.25,9.56l-1,31.51h-4.42l.19-26a32.52,32.52,0,0,1-8.91-4.41c-6.18-4.53-6.85-9.57-6.94-11.45l.94,0Z" transform="translate(102.73 104)"/><path class="cls-37" d="M1775.09,471.43s45-10,72.17,0c26.18,10.56,7.59,13.5-16.14,13.5-24-.15-53.34-1.22-53.34-1.22S1745.24,480.72,1775.09,471.43Z" transform="translate(102.73 104)"/><path class="cls-38" d="M587.08,450.66a19.25,19.25,0,0,0,3.54,10.51c5.54,7.57,14.8,7.33,15.79,7.29l-.3-16.81,5.7.25v9.31a11.79,11.79,0,0,0,7.27-.93,13.21,13.21,0,0,0,6.51-7.87l2.38.06-1.44,4.58a8.72,8.72,0,0,0,6.53,1,9.5,9.5,0,0,0,6-5.29h1.77s-1.16,10.61-15.08,7.07c-2.53,3.72-8.46,7.68-13.94,5.69.32,11.54,2.16,56.7,2.16,56.7h-6.43l-1.11-49.52a22.41,22.41,0,0,1-15.29-7.11,24.31,24.31,0,0,1-6.25-15.28Z" transform="translate(102.73 104)"/><path class="cls-39" d="M579.52,426.7s49.25-19.23,79,0c25.24,18.77-.67,26.78-17.66,26-26.23-.28-58.34-2.35-58.34-2.35S546.87,444.61,579.52,426.7Z" transform="translate(102.73 104)"/><path class="cls-40" d="M930.66,585.57s-16.62-.69-25.28-4.9,11.73-1.48,28.1,1.08c0,0-1.57-1-14.47-5.93s-9.53-8.32.63-4.68a182.53,182.53,0,0,1,20.39,9S921.29,569.45,921,567.51s3.13-1.87,20.68,11.33c0,0-16.1-11.1-13.14-16s15.86,15.07,15.86,15.07-11.56-21.36-4.56-22,7,21.13,7,21.13,6.18-11.76,17-11.07-13.17,12.34-15.49,12.42c0,0,1,.9,4.53.6s13-6.28,18.71-6.27,14.32,5-18,13.61Z" transform="translate(102.73 104)"/></g></svg>