<svg id="Layer_1" data-name="Layer 1" xmlns="http://www.w3.org/2000/svg" xmlns:xlink="http://www.w3.org/1999/xlink" viewBox="0 0 3167.24 978.91"><defs><style>.cls-1{fill:none;}.cls-2{clip-path:url(#clip-path);}.cls-3{fill:url(#linear-gradient);}.cls-4{fill:url(#linear-gradient-2);}.cls-5{fill:#72c2ec;}.cls-6{fill:url(#linear-gradient-3);}.cls-7{fill:url(#linear-gradient-4);}.cls-8{fill:#c18a73;}.cls-9{fill:#ce856b;}.cls-10{fill:#754e33;}.cls-11{fill:#6dc495;}.cls-12{fill:url(#linear-gradient-5);}.cls-13{fill:url(#linear-gradient-6);}.cls-14{fill:url(#linear-gradient-7);}.cls-15{fill:url(#linear-gradient-8);}.cls-16{fill:url(#linear-gradient-9);}.cls-17{fill:url(#linear-gradient-10);}.cls-18{fill:url(#linear-gradient-11);}.cls-19{fill:#b78b7f;}.cls-20{fill:#a29792;}.cls-21{fill:url(#linear-gradient-12);}.cls-22{fill:url(#linear-gradient-13);}.cls-23{fill:url(#linear-gradient-14);}.cls-24{fill:url(#linear-gradient-15);}.cls-25{fill:url(#linear-gradient-16);}.cls-26{fill:url(#linear-gradient-17);}.cls-27{fill:url(#linear-gradient-18);}.cls-28{fill:url(#linear-gradient-19);}.cls-29{fill:url(#linear-gradient-20);}.cls-30{fill:url(#linear-gradient-21);}.cls-31{fill:#2797bc;}.cls-32{fill:#76c3ec;}.cls-33{fill:#5d6e93;}.cls-34{fill:url(#linear-gradient-22);}.cls-35{fill:url(#linear-gradient-23);}.cls-36{fill:url(#linear-gradient-24);}.cls-37{fill:url(#linear-gradient-25);}.cls-38{fill:url(#linear-gradient-26);}.cls-39{fill:url(#linear-gradient-27);}.cls-40{fill:#71cee8;}.cls-41{fill:#31bfc7;}.cls-42{fill:url(#linear-gradient-28);}.cls-43{fill:url(#linear-gradient-29);}.cls-44{fill:#7bc7ee;}.cls-45{fill:url(#linear-gradient-30);}.cls-46{fill:url(#linear-gradient-31);}.cls-47{fill:url(#linear-gradient-32);}.cls-48{fill:url(#linear-gradient-33);}.cls-49{fill:url(#linear-gradient-34);}.cls-50{fill:url(#linear-gradient-35);}.cls-51{fill:url(#linear-gradient-36);}.cls-52{fill:url(#linear-gradient-37);}.cls-53{fill:url(#linear-gradient-38);}.cls-54{fill:url(#linear-gradient-39);}.cls-55{fill:url(#linear-gradient-40);}.cls-56{fill:#46a447;}.cls-57{fill:url(#linear-gradient-41);}.cls-58{fill:url(#linear-gradient-42);}.cls-59{fill:#104724;}.cls-60{fill:#0c261a;}.cls-61{fill:#37b882;}.cls-62{fill:url(#linear-gradient-43);}.cls-63{fill:url(#linear-gradient-44);}.cls-64{fill:url(#linear-gradient-45);}.cls-65{fill:#7f675e;}.cls-66{fill:url(#linear-gradient-46);}.cls-67{fill:url(#linear-gradient-47);}.cls-68{fill:url(#linear-gradient-48);}.cls-69{fill:url(#linear-gradient-49);}</style><clipPath id="clip-path" transform="translate(360.52 47.86)"><rect class="cls-1" width="2693" height="900"/></clipPath><linearGradient id="linear-gradient" x1="2640.95" y1="999.46" x2="789.83" y2="2.05" gradientUnits="userSpaceOnUse"><stop offset="0.37" stop-color="#d3edf7"/><stop offset="0.6" stop-color="#d1ecf7"/><stop offset="0.72" stop-color="#c9e9f6"/><stop offset="0.81" stop-color="#bbe5f5"/><stop offset="0.85" stop-color="#b3e2f4"/></linearGradient><linearGradient id="linear-gradient-2" x1="1425.98" y1="849.93" x2="1481.47" y2="-348.05" gradientUnits="userSpaceOnUse"><stop offset="0.02" stop-color="#c9e1f5"/><stop offset="0.46" stop-color="#bcd3e2"/></linearGradient><linearGradient id="linear-gradient-3" x1="682.69" y1="869.96" x2="755.73" y2="-706.91" gradientUnits="userSpaceOnUse"><stop offset="0.03" stop-color="#83caeb"/><stop offset="0.46" stop-color="#68b6ce"/></linearGradient><linearGradient id="linear-gradient-4" x1="924.54" y1="804.48" x2="919.56" y2="549.21" gradientUnits="userSpaceOnUse"><stop offset="0" stop-color="#907d62"/><stop offset="0.42" stop-color="#786c5a"/><stop offset="0.76" stop-color="#696155"/></linearGradient><linearGradient id="linear-gradient-5" x1="912.77" y1="634.09" x2="1054.54" y2="285.22" gradientUnits="userSpaceOnUse"><stop offset="0.22" stop-color="#61c08f"/><stop offset="0.3" stop-color="#63c194"/><stop offset="0.49" stop-color="#67c39c"/></linearGradient><linearGradient id="linear-gradient-6" x1="1198.38" y1="488.67" x2="1061.4" y2="676.78" gradientUnits="userSpaceOnUse"><stop offset="0.3" stop-color="#61c086"/><stop offset="0.67" stop-color="#57b479"/></linearGradient><linearGradient id="linear-gradient-7" x1="729.65" y1="605.92" x2="829.49" y2="511.36" gradientUnits="userSpaceOnUse"><stop offset="0.23" stop-color="#2eac76"/><stop offset="0.53" stop-color="#30ad79"/><stop offset="0.73" stop-color="#35b281"/><stop offset="0.88" stop-color="#3eb98f"/></linearGradient><linearGradient id="linear-gradient-8" x1="788.66" y1="548.47" x2="785.96" y2="409.82" gradientUnits="userSpaceOnUse"><stop offset="0.18" stop-color="#65c18f"/><stop offset="0.6" stop-color="#63c192"/></linearGradient><linearGradient id="linear-gradient-9" x1="925.42" y1="649.97" x2="1021.8" y2="422.62" gradientUnits="userSpaceOnUse"><stop offset="0.09" stop-color="#3ba781"/><stop offset="0.33" stop-color="#52b287"/><stop offset="0.68" stop-color="#7bc793"/></linearGradient><linearGradient id="linear-gradient-10" x1="1271.74" y1="846.76" x2="1361.28" y2="428.68" gradientUnits="userSpaceOnUse"><stop offset="0.25" stop-color="#55a953"/><stop offset="0.27" stop-color="#62b158"/><stop offset="0.29" stop-color="#73bb5f"/><stop offset="0.33" stop-color="#7ec264"/><stop offset="0.38" stop-color="#85c667"/><stop offset="0.51" stop-color="#87c768"/></linearGradient><linearGradient id="linear-gradient-11" x1="-7.6" y1="839.23" x2="-16.55" y2="380.85" gradientUnits="userSpaceOnUse"><stop offset="0" stop-color="#8d614d"/><stop offset="0.28" stop-color="#845644"/><stop offset="0.77" stop-color="#784738"/></linearGradient><linearGradient id="linear-gradient-12" x1="-246.96" y1="266.52" x2="341.95" y2="266.52" gradientUnits="userSpaceOnUse"><stop offset="0.23" stop-color="#6ac289"/><stop offset="0.5" stop-color="#6fc38c"/><stop offset="0.52" stop-color="#70c38c"/></linearGradient><linearGradient id="linear-gradient-13" x1="-30.97" y1="515.63" x2="209.77" y2="-76.75" gradientUnits="userSpaceOnUse"><stop offset="0.21" stop-color="#1d9b6c"/><stop offset="0.26" stop-color="#229d6c"/><stop offset="0.32" stop-color="#32a46b"/><stop offset="0.39" stop-color="#4cae69"/><stop offset="0.47" stop-color="#6fbd67"/><stop offset="0.5" stop-color="#83c566"/></linearGradient><linearGradient id="linear-gradient-14" x1="239.4" y1="405.27" x2="433.24" y2="405.27" gradientUnits="userSpaceOnUse"><stop offset="0.24" stop-color="#78c58b"/><stop offset="0.3" stop-color="#7ac589"/><stop offset="0.68" stop-color="#80c781"/></linearGradient><linearGradient id="linear-gradient-15" x1="432.09" y1="278.23" x2="199.04" y2="598.27" gradientUnits="userSpaceOnUse"><stop offset="0.25" stop-color="#70c27b"/><stop offset="0.34" stop-color="#64b976"/><stop offset="0.54" stop-color="#4ea96c"/><stop offset="0.67" stop-color="#46a369"/></linearGradient><linearGradient id="linear-gradient-16" x1="-319.84" y1="474.87" x2="-155.1" y2="318.84" gradientUnits="userSpaceOnUse"><stop offset="0.24" stop-color="#41b171"/><stop offset="0.63" stop-color="#44b271"/><stop offset="0.87" stop-color="#4cb770"/><stop offset="0.88" stop-color="#4db770"/></linearGradient><linearGradient id="linear-gradient-17" x1="-223.69" y1="378.65" x2="-228.56" y2="129.16" xlink:href="#linear-gradient-8"/><linearGradient id="linear-gradient-18" x1="-240.29" y1="348.38" x2="329.7" y2="348.38" gradientUnits="userSpaceOnUse"><stop offset="0.09" stop-color="#6fc389"/><stop offset="0.69" stop-color="#82c886"/></linearGradient><linearGradient id="linear-gradient-19" x1="-8.6" y1="549.29" x2="155.35" y2="162.54" gradientUnits="userSpaceOnUse"><stop offset="0.09" stop-color="#24ab73"/><stop offset="0.23" stop-color="#3bb170"/><stop offset="0.51" stop-color="#74c168"/><stop offset="0.69" stop-color="#9dcc62"/></linearGradient><linearGradient id="linear-gradient-20" x1="463.97" y1="943.36" x2="564.54" y2="454.73" gradientUnits="userSpaceOnUse"><stop offset="0.19" stop-color="#17743b"/><stop offset="0.32" stop-color="#319642"/><stop offset="0.42" stop-color="#43ad47"/><stop offset="0.49" stop-color="#49b549"/></linearGradient><linearGradient id="linear-gradient-21" x1="1443.97" y1="810.51" x2="1441" y2="658.03" gradientUnits="userSpaceOnUse"><stop offset="0" stop-color="#508ac3"/><stop offset="0.23" stop-color="#5288bb"/><stop offset="0.76" stop-color="#5585ac"/></linearGradient><linearGradient id="linear-gradient-22" x1="1364.34" y1="619.99" x2="1560.26" y2="619.99" gradientUnits="userSpaceOnUse"><stop offset="0.18" stop-color="#73cee4"/><stop offset="0.7" stop-color="#76d0e9"/></linearGradient><linearGradient id="linear-gradient-23" x1="1436.2" y1="702.86" x2="1516.28" y2="505.8" gradientUnits="userSpaceOnUse"><stop offset="0.19" stop-color="#239dc7"/><stop offset="0.31" stop-color="#41b3d1"/><stop offset="0.42" stop-color="#58c3d9"/><stop offset="0.5" stop-color="#60c9dc"/></linearGradient><linearGradient id="linear-gradient-24" x1="1526.14" y1="666.15" x2="1590.63" y2="666.15" gradientUnits="userSpaceOnUse"><stop offset="0.22" stop-color="#76cee9"/><stop offset="0.73" stop-color="#6eceec"/></linearGradient><linearGradient id="linear-gradient-25" x1="1590.24" y1="623.89" x2="1512.72" y2="730.36" gradientUnits="userSpaceOnUse"><stop offset="0.3" stop-color="#3ea8d5"/><stop offset="0.67" stop-color="#279abe"/></linearGradient><linearGradient id="linear-gradient-26" x1="1326.57" y1="659.63" x2="1402.86" y2="659.63" gradientUnits="userSpaceOnUse"><stop offset="0.27" stop-color="#64a8d0"/><stop offset="0.53" stop-color="#61aad1"/><stop offset="0.69" stop-color="#59b2d4"/><stop offset="0.83" stop-color="#4abfd9"/></linearGradient><linearGradient id="linear-gradient-27" x1="1340.1" y1="689.3" x2="1394.91" y2="637.4" gradientUnits="userSpaceOnUse"><stop offset="0.23" stop-color="#279bd6"/><stop offset="0.47" stop-color="#2a9cd6"/><stop offset="0.62" stop-color="#32a0d8"/><stop offset="0.75" stop-color="#41a6da"/><stop offset="0.87" stop-color="#56afdd"/><stop offset="0.88" stop-color="#59b0de"/></linearGradient><linearGradient id="linear-gradient-28" x1="1366.57" y1="647.22" x2="1556.18" y2="647.22" gradientUnits="userSpaceOnUse"><stop offset="0.11" stop-color="#83cff2"/><stop offset="0.19" stop-color="#7dceeb"/><stop offset="0.44" stop-color="#6fccdc"/><stop offset="0.68" stop-color="#73cddc"/></linearGradient><linearGradient id="linear-gradient-29" x1="1443.64" y1="714.06" x2="1546.43" y2="471.58" gradientUnits="userSpaceOnUse"><stop offset="0.11" stop-color="#2394bf"/><stop offset="0.33" stop-color="#3bb5d9"/><stop offset="0.46" stop-color="#47c4e5"/><stop offset="0.53" stop-color="#55c5ce"/><stop offset="0.68" stop-color="#7ac795"/><stop offset="0.68" stop-color="#7bc793"/></linearGradient><linearGradient id="linear-gradient-30" x1="725.84" y1="828.07" x2="723.03" y2="683.81" xlink:href="#linear-gradient-21"/><linearGradient id="linear-gradient-31" x1="644.91" y1="648.03" x2="844.45" y2="648.03" xlink:href="#linear-gradient-22"/><linearGradient id="linear-gradient-32" x1="718.9" y1="729.43" x2="797.16" y2="536.86" xlink:href="#linear-gradient-23"/><linearGradient id="linear-gradient-33" x1="809.71" y1="691.62" x2="875.38" y2="691.62" xlink:href="#linear-gradient-24"/><linearGradient id="linear-gradient-34" x1="873.68" y1="650.42" x2="798.01" y2="754.35" xlink:href="#linear-gradient-25"/><linearGradient id="linear-gradient-35" x1="606.44" y1="685.47" x2="684.14" y2="685.47" xlink:href="#linear-gradient-26"/><linearGradient id="linear-gradient-36" x1="620.71" y1="714.82" x2="675.2" y2="663.21" xlink:href="#linear-gradient-27"/><linearGradient id="linear-gradient-37" x1="647.17" y1="673.75" x2="840.3" y2="673.75" xlink:href="#linear-gradient-28"/><linearGradient id="linear-gradient-38" x1="726" y1="739.09" x2="826.33" y2="502.41" xlink:href="#linear-gradient-29"/><linearGradient id="linear-gradient-39" x1="78.92" y1="888.59" x2="326.07" y2="659.55" gradientUnits="userSpaceOnUse"><stop offset="0.19" stop-color="#17743b"/><stop offset="0.33" stop-color="#319642"/><stop offset="0.45" stop-color="#43ad47"/><stop offset="0.53" stop-color="#49b549"/></linearGradient><linearGradient id="linear-gradient-40" x1="3126.47" y1="669.61" x2="1252.73" y2="716.91" gradientUnits="userSpaceOnUse"><stop offset="0.02" stop-color="#67bd46"/><stop offset="0.35" stop-color="#6cbe46"/><stop offset="0.52" stop-color="#71bf45"/></linearGradient><linearGradient id="linear-gradient-41" x1="-161.07" y1="990.19" x2="2531.88" y2="631.57" gradientUnits="userSpaceOnUse"><stop offset="0" stop-color="#cee6f1"/><stop offset="0" stop-color="#c6e4f2"/><stop offset="0.01" stop-color="#b8d4e1"/><stop offset="0.02" stop-color="#92a9b5"/><stop offset="0.04" stop-color="#566570"/><stop offset="0.04" stop-color="#3d4953"/><stop offset="0.51" stop-color="#3a4d51"/><stop offset="0.79" stop-color="#3a4b57"/></linearGradient><linearGradient id="linear-gradient-42" x1="538.06" y1="1057.21" x2="2689.54" y2="770.7" gradientUnits="userSpaceOnUse"><stop offset="0" stop-color="#cee6f1"/><stop offset="0" stop-color="#c6e4f2"/><stop offset="0" stop-color="#b5dce2"/><stop offset="0" stop-color="#89c6b7"/><stop offset="0" stop-color="#43a372"/><stop offset="0" stop-color="#158c45"/><stop offset="0.51" stop-color="#148a44"/><stop offset="0.81" stop-color="#148a44"/></linearGradient><linearGradient id="linear-gradient-43" x1="2434.5" y1="634.48" x2="2462.08" y2="324.84" gradientUnits="userSpaceOnUse"><stop offset="0" stop-color="#cee6f1"/><stop offset="0" stop-color="#c6e4f2"/><stop offset="0" stop-color="#b8d4e1"/><stop offset="0" stop-color="#92a9b5"/><stop offset="0" stop-color="#566570"/><stop offset="0" stop-color="#3d4953"/><stop offset="0" stop-color="#395859"/><stop offset="0" stop-color="#307f6a"/><stop offset="0" stop-color="#26a87c"/><stop offset="0.2" stop-color="#32ad84"/><stop offset="0.56" stop-color="#51bb99"/><stop offset="0.68" stop-color="#5dc1a1"/><stop offset="0.78" stop-color="#5cbfa0"/><stop offset="0.82" stop-color="#5ab89c"/><stop offset="0.85" stop-color="#57ad94"/><stop offset="0.87" stop-color="#529c8a"/><stop offset="0.88" stop-color="#4b867c"/><stop offset="0.9" stop-color="#436b6b"/><stop offset="0.91" stop-color="#3a4c57"/><stop offset="0.91" stop-color="#3a4b57"/></linearGradient><linearGradient id="linear-gradient-44" x1="2367.38" y1="626.47" x2="2389.77" y2="375.03" xlink:href="#linear-gradient-43"/><linearGradient id="linear-gradient-45" x1="2309.28" y1="619.37" x2="2327.03" y2="420.13" gradientUnits="userSpaceOnUse"><stop offset="0" stop-color="#cee6f1"/><stop offset="0" stop-color="#c6e4f2"/><stop offset="0" stop-color="#b8d4e1"/><stop offset="0" stop-color="#92a9b5"/><stop offset="0" stop-color="#566570"/><stop offset="0" stop-color="#3d4953"/><stop offset="0" stop-color="#395859"/><stop offset="0" stop-color="#307f6a"/><stop offset="0" stop-color="#26a87c"/><stop offset="0.12" stop-color="#2cac88"/><stop offset="0.34" stop-color="#3db6a7"/><stop offset="0.62" stop-color="#58c6d9"/><stop offset="0.67" stop-color="#5dc9e2"/><stop offset="0.77" stop-color="#5dc7e0"/><stop offset="0.81" stop-color="#5bc1d9"/><stop offset="0.84" stop-color="#58b6ce"/><stop offset="0.86" stop-color="#54a7bd"/><stop offset="0.87" stop-color="#4e93a7"/><stop offset="0.89" stop-color="#477b8b"/><stop offset="0.91" stop-color="#3f5e6c"/><stop offset="0.91" stop-color="#3a4b57"/></linearGradient><linearGradient id="linear-gradient-46" x1="587.41" y1="124.65" x2="686.17" y2="-63.43" gradientUnits="userSpaceOnUse"><stop offset="0" stop-color="#8fc9d6"/><stop offset="0.19" stop-color="#91cad7"/><stop offset="0.26" stop-color="#98ceda"/><stop offset="0.32" stop-color="#a4d4df"/><stop offset="0.36" stop-color="#b5dee6"/><stop offset="0.4" stop-color="#cbe9ef"/><stop offset="0.4" stop-color="#cceaef"/></linearGradient><linearGradient id="linear-gradient-47" x1="474.16" y1="114.5" x2="572.92" y2="-73.58" gradientUnits="userSpaceOnUse"><stop offset="0.07" stop-color="#82c2d2"/><stop offset="0.17" stop-color="#9acedb"/><stop offset="0.4" stop-color="#d8ecf1"/><stop offset="0.54" stop-color="#fff"/></linearGradient><linearGradient id="linear-gradient-48" x1="1768.93" y1="178.03" x2="1999.83" y2="-261.68" gradientUnits="userSpaceOnUse"><stop offset="0.09" stop-color="#c0e4ec"/><stop offset="0.35" stop-color="#d8eff4"/><stop offset="0.54" stop-color="#edf8fa"/></linearGradient><linearGradient id="linear-gradient-49" x1="2277.89" y1="331.63" x2="2385.37" y2="126.94" gradientUnits="userSpaceOnUse"><stop offset="0.01" stop-color="#bfe5ef"/><stop offset="0.81" stop-color="#e9f6fc"/></linearGradient></defs><g class="cls-2"><rect class="cls-3" x="323.59" width="2741.65" height="978.91"/><path class="cls-4" d="M441.73,804.34S676.94,316.88,717.84,258.93s102.27-139.76,320.43,54.54c129.53,78.41,163.62,47.73,221.57-3.41,34.09-30.67,112.49-60.39,242,262.48,75,133,156.8,153.4,392,20.46s526.54,82.66,526.54,82.66Z" transform="translate(360.52 47.86)"/><path class="cls-5" d="M2147.84,685S2277.37,514.59,2320,482.21s81.81-29,100.56-10.23c18.75,17,32.38,40.91,92-69.88S2636.51,243.59,2693,349.27v317Z" transform="translate(360.52 47.86)"/><path class="cls-6" d="M182.66-47.86S322.42,48.89,434.91,290.26C625.8,156.67,949.64,439.6,1024.63,562.32c78.41,119.3,167,245.43,385.2,218.16L0,895.42V0Z" transform="translate(360.52 47.86)"/><path class="cls-7" d="M1022.92,788.27c.22-.56-1.53-1.46-3-3.59a13.27,13.27,0,0,1-2-4.87c-1.31-5.12-6.4-11.32-8.08-13.6-5.33-7.27-7.85-18.17-12-36.25a267.94,267.94,0,0,1-5.26-31.08c-.31-18,2.17-31.63,7.27-39.47a214,214,0,0,0,14.56-26.78s30,1.37,32.53,0,9.84-7.83,8.56-24.56l.43-4-7.71,2.16s-2.37,15-12.23,16.16c-11.77,1.63-25.22-5.6-23.25-16.16h-8.55s2.63,30.8-10.31,37.31c-9.64,2.56-15.34-1.49-14.91-19.52l.44-18L964,606s.88,19.17,0,20.33-7.67,13-14.91-11.39c-6.14-17.2-2.63-8.91-2.63-8.91l-8.33.19s3.72,18.95,16,30.8c8.12,11.39,8.34,30.45,2.2,37.2-6.58,6.74-17.76,10.46-26.32-29.53-5.7-26.49-7.23-38.47-7.23-38.47L911,606.08s4.82,31.63,3.94,37.21c-1.09,6.28-1.53,25.57-27.41,17.43-13.43-2-40.33-9.08-51.53-30.45-4.17-18.13-3.29-25.1-3.29-25.1l-9.64-.25s.21,10.48,2.19,13.27A31,31,0,0,1,808,614.4c-9.93-5.49-13.94-14.79-15-17.55l-7.73-.32a46.09,46.09,0,0,0,7.8,13.68c7.63,9.15,18.24,14.2,26,15.41,1.55.25,7.69,1.07,7.66,1.33,0,.07-.43.07-.43.07s2,27.43,32.89,40c27.63,10.92,39.69,16.5,46.71,20.92s11.84,9.06,10.75,24.17a125.41,125.41,0,0,0,2,36.15,122.28,122.28,0,0,0,15.13,38.93c23.74.79,39,.87,48.77.77,19.6-.19,30.77-1.21,36.64.23C1019.18,788.18,1022.63,789,1022.92,788.27Z" transform="translate(360.52 47.86)"/><path class="cls-8" d="M992.11,695a60.73,60.73,0,0,0-18.61,17.44c-21,30.44-6.71,70.46-5.09,74.81l55.41,1.06a179.5,179.5,0,0,1-10.66-17.83C998.61,742.52,993.66,715.26,992.11,695Z" transform="translate(360.52 47.86)"/><path class="cls-9" d="M928.24,637.37s10.27,40.3,18.32,40C938.23,681.5,922.69,670.32,928.24,637.37Z" transform="translate(360.52 47.86)"/><path class="cls-10" d="M985.7,743.44a16.3,16.3,0,0,1-3,.37,6.88,6.88,0,0,1-2.94-.46,2.74,2.74,0,0,1-1.19-.94,2.54,2.54,0,0,1-.45-1.46,6.83,6.83,0,0,1,.71-2.92,21,21,0,0,1,3.28-5,18.76,18.76,0,0,1,4.57-3.89,7,7,0,0,1,2.9-1,3.46,3.46,0,0,1,1.58.25,5,5,0,0,1,.7.42,6,6,0,0,1,.57.56,7.13,7.13,0,0,1,1.34,2.77,14.48,14.48,0,0,1,.5,3,35,35,0,0,1-1.5,11.86v0l0,0a33.32,33.32,0,0,1-8.32,10,11.89,11.89,0,0,1-2.9,1.61,5.09,5.09,0,0,1-3.36.16,5.24,5.24,0,0,1-2.54-2.21,12.29,12.29,0,0,1-1.37-3A37.7,37.7,0,0,1,973,740.7l.59-12.93-.25,12.94a37.49,37.49,0,0,0,1.49,12.71,12.83,12.83,0,0,0,1.34,2.85,4.61,4.61,0,0,0,2.25,2,4.49,4.49,0,0,0,3-.18,10.87,10.87,0,0,0,2.73-1.54,33.17,33.17,0,0,0,8.11-9.8l0,.07a34.32,34.32,0,0,0,1.54-11.63,14.57,14.57,0,0,0-.47-2.87,6.8,6.8,0,0,0-1.21-2.56,2.72,2.72,0,0,0-2.38-1.05,6.39,6.39,0,0,0-2.69.89,18.23,18.23,0,0,0-4.5,3.72,21.8,21.8,0,0,0-3.31,4.87,6.71,6.71,0,0,0-.75,2.79,2.38,2.38,0,0,0,1.46,2.26,7,7,0,0,0,2.88.52A16.4,16.4,0,0,0,985.7,743.44Z" transform="translate(360.52 47.86)"/><path class="cls-11" d="M774.13,516.29c2.38-17.38,8.66-43.63,27.55-65.06,51-57.92,148.74-31,180-22.32,77.17,21.36,127.19,72.55,151.69,102.35l12.15,9.56a1001.64,1001.64,0,0,1-193.92,16.33,1002.4,1002.4,0,0,1-168.75-16.61Z" transform="translate(360.52 47.86)"/><path class="cls-12" d="M774.81,515.32c2.37-16.73,8.58-42,27.27-62.63,50.49-55.76,147.18-29.81,178.11-21.49,76.36,20.56,125.85,69.85,150.1,98.53l12,9.21a1019.27,1019.27,0,0,1-191.89,15.72,1018.57,1018.57,0,0,1-167-16Z" transform="translate(360.52 47.86)"/><path class="cls-11" d="M1090.31,525s70.66-16.23,102,33.2c20.4,38.37,24,50.81-102,43.85C1069,540.67,1090.31,525,1090.31,525Z" transform="translate(360.52 47.86)"/><path class="cls-13" d="M1092.14,526.48s68.63-16.5,99.06,33.75c19.81,39,23.35,51.65-99.06,44.57C1071.45,542.36,1092.14,526.48,1092.14,526.48Z" transform="translate(360.52 47.86)"/><path class="cls-11" d="M789.57,595.5c-2.13,0-63.9-4.34-63.9-4.34s-38.35-8-16.34-27.54a36.68,36.68,0,0,0,13.92-11.87c4.39-6.41,3.21-9.55,6-15.45,8.86-18.68,38.58-25,38.58-25h0s40.3-8.24,70.29,7.94c3.34,1.8,5,2.78,6.26,4.46,13.87,18.31-29.26,71.85-29.26,71.85Z" transform="translate(360.52 47.86)"/><path class="cls-14" d="M789.05,596.76c-2.06,0-61.72-4.36-61.72-4.36s-37-8-15.78-27.63A35.76,35.76,0,0,0,725,552.87c4.23-6.43,3.1-9.58,5.8-15.5,8.56-18.74,37.26-25.12,37.26-25.12h0S807,504,836,520.21c3.23,1.81,4.82,2.79,6,4.47,13.4,18.37-28.26,72.08-28.26,72.08Z" transform="translate(360.52 47.86)"/><path class="cls-11" d="M758.23,488.36s5.84-13.67,46-6.72c37.23,8.49,8.76,30.1-23,25.47S752.92,493.12,758.23,488.36Z" transform="translate(360.52 47.86)"/><path class="cls-15" d="M758.45,489.25S764.11,476,803,482.71c36.08,8.25,8.49,29.25-22.29,24.75S753.31,493.87,758.45,489.25Z" transform="translate(360.52 47.86)"/><path class="cls-11" d="M792.87,546.08s35.16-29.29,72-40.77c40.26-17.23,93.56-55.7,158.2-37.9,49.9,16.65,87.32,39.62,109.43,82.11,10.78,24.69,12.48,54.55-69.74,50.53l-229.07.37S744.11,593.74,792.87,546.08Z" transform="translate(360.52 47.86)"/><path class="cls-16" d="M789.52,550.47S825.08,520.7,862.36,509c40.73-17.51,94.65-56.62,160-38.52,50.47,16.92,88.33,40.27,110.7,83.47,10.9,25.1,12.62,55.46-70.55,51.37l-231.74.37S740.19,598.92,789.52,550.47Z" transform="translate(360.52 47.86)"/><path class="cls-9" d="M1055.88,606.67s1.1,17.38-6.61,24.13c-2.3,2.36-4.13,2.3-6.87,2.36a16,16,0,0,0,9.58-11.51,87.21,87.21,0,0,0,2-15.53h1.9Z" transform="translate(360.52 47.86)"/><path class="cls-9" d="M979.36,606c-.3,3-.45,13.64-.33,15.7.53,9,1.13,19.32,6.66,22a7.15,7.15,0,0,0,4.15.55l2.1-.24c-2.58,3.36-4.88,3.65-5.62,3.69-4.57.22-9.93-6.07-11.23-16.21a65,65,0,0,1-.92-14.57c.21-4.05,1-10.9,1-10.9h4.22Z" transform="translate(360.52 47.86)"/><path class="cls-17" d="M1077.94,770.28s17.61-56,91.28-49.64c41.63-33.63,115.29-49.06,150.52-.51,33.63-15.5,73.66-2,86.47,9.65,67.26-9.14,99.28,6.87,99.28,6.87Z" transform="translate(360.52 47.86)"/><path class="cls-18" d="M147.55,810.54c.35-1-2.42-2.62-4.79-6.47a26,26,0,0,1-3.18-8.76c-2.09-9.22-10.16-20.38-12.82-24.5-8.45-13.08-12.44-32.71-19.06-65.28a543.18,543.18,0,0,1-8.34-55.95c-.48-32.48,3.44-57,11.54-71.09A405.92,405.92,0,0,0,134,530.28s47.51,2.45,51.58,0,15.61-14.11,13.58-44.23l.68-7.24-12.22,3.88s-3.76,27-19.41,29.11c-18.66,2.93-40-10.08-36.85-29.11H117.77s4.18,55.48-16.34,67.2c-15.3,4.6-24.34-2.68-23.64-35.16l.69-32.48-24.34,0s1.39,34.53,0,36.62S42,542.35,30.5,498.4c-9.74-31-4.18-16-4.18-16l-13.21.34S19,516.82,38.49,538.17c12.87,20.51,13.22,54.83,3.48,67C31.54,617.28,13.8,624,.24,552c-9-47.72-11.47-69.29-11.47-69.29L-30,482.45s7.65,57,6.26,67c-1.74,11.3-2.43,46-43.46,31.39-21.3-3.56-64-16.36-81.72-54.83-6.61-32.65-5.22-45.21-5.22-45.21l-15.29-.45s.34,18.87,3.47,23.89a44.23,44.23,0,0,1-27.29-6.81c-15.75-9.89-22.11-26.63-23.82-31.6l-12.27-.58A85.93,85.93,0,0,0-217,489.89c12.09,16.48,28.92,25.57,41.27,27.77,2.46.43,12.19,1.92,12.15,2.38,0,.13-.68.13-.68.13s3.13,49.39,52.16,72c43.81,19.68,62.94,29.72,74.06,37.68s18.78,16.32,17,43.53a255.88,255.88,0,0,0,3.13,65.09,238.87,238.87,0,0,0,24,70.11C43.8,810,68,810.12,83.49,810c31.09-.34,48.79-2.18,58.09.42C141.63,810.38,147.09,811.9,147.55,810.54Z" transform="translate(360.52 47.86)"/><path class="cls-19" d="M98.7,642.5a102.35,102.35,0,0,0-29.52,31.4C35.9,728.71,58.54,800.79,61.12,808.62L149,810.53a335.17,335.17,0,0,1-16.9-32.12C109,728.16,101.16,679.07,98.7,642.5Z" transform="translate(360.52 47.86)"/><path class="cls-20" d="M-2.58,538.8s16.28,72.58,29.05,72.05C13.26,618.27-11.38,598.14-2.58,538.8Z" transform="translate(360.52 47.86)"/><path class="cls-10" d="M88.53,729.81a21.69,21.69,0,0,1-5.07.66,8.63,8.63,0,0,1-4.95-1.23,5,5,0,0,1-1.92-4.65,16.2,16.2,0,0,1,1.31-5,37.83,37.83,0,0,1,5.24-8.85,29.62,29.62,0,0,1,7.56-7,8.51,8.51,0,0,1,5.13-1.42,4.72,4.72,0,0,1,1.36.4,9.19,9.19,0,0,1,1.18.77c.3.34.65.65.92,1s.51.74.72,1.14a24.87,24.87,0,0,1,2.26,10.13,72.4,72.4,0,0,1-2.42,20.41l0,.06,0,0A75.84,75.84,0,0,1,94,746a43.91,43.91,0,0,1-7.65,8.47,16.66,16.66,0,0,1-5,2.92,7.65,7.65,0,0,1-3,.42,5.7,5.7,0,0,1-2.87-1,11.57,11.57,0,0,1-3.56-4.64A29.88,29.88,0,0,1,70,746.75a65.94,65.94,0,0,1-1.63-11.24,99.61,99.61,0,0,1-.06-11.33l.94-22.58-.35,22.6a95.93,95.93,0,0,0,.22,11.25,64.17,64.17,0,0,0,1.77,11.07,30.73,30.73,0,0,0,1.85,5.24A10.59,10.59,0,0,0,76,756a4.67,4.67,0,0,0,2.38.85,6.93,6.93,0,0,0,2.57-.39,15.4,15.4,0,0,0,4.68-2.77,42.48,42.48,0,0,0,7.41-8.29,81.75,81.75,0,0,0,5.75-9.62l0,.12a71.13,71.13,0,0,0,2.48-20.09,24,24,0,0,0-2.09-9.71,4.85,4.85,0,0,0-3.45-2.87,7.62,7.62,0,0,0-4.57,1.23,29.07,29.07,0,0,0-7.45,6.73,39.17,39.17,0,0,0-5.3,8.63,16.09,16.09,0,0,0-1.4,4.81A4.67,4.67,0,0,0,78.66,729a8.42,8.42,0,0,0,4.8,1.32A21.68,21.68,0,0,0,88.53,729.81Z" transform="translate(360.52 47.86)"/><path class="cls-21" d="M-247,320.77c3.78-31.3,13.73-78.56,43.68-117.16,80.91-104.29,235.86-55.76,285.43-40.18,122.37,38.45,201.68,130.64,240.53,184.3L342,365A1404.9,1404.9,0,0,1,34.44,394.36a1407.28,1407.28,0,0,1-267.59-29.91Z" transform="translate(360.52 47.86)"/><path class="cls-22" d="M-245.88,319c3.75-30.14,13.6-75.63,43.24-112.79,80.06-100.4,233.38-53.68,282.43-38.69,121.09,37,199.57,125.77,238,177.43l19.06,16.57A1427.5,1427.5,0,0,1,32.59,389.86,1428.72,1428.72,0,0,1-232.2,361.07Z" transform="translate(360.52 47.86)"/><path class="cls-23" d="M254.42,336.53s112-29.23,161.71,59.79c32.35,69.09,38.12,91.5-161.71,79C220.63,364.67,254.42,336.53,254.42,336.53Z" transform="translate(360.52 47.86)"/><path class="cls-24" d="M257.32,339.12S366.15,309.41,414.4,399.9c31.41,70.23,37,93-157.08,80.26C224.51,367.72,257.32,339.12,257.32,339.12Z" transform="translate(360.52 47.86)"/><path class="cls-11" d="M-222.48,463.42c-3.38,0-101.33-7.83-101.33-7.83s-60.8-14.36-25.9-49.59a60.68,60.68,0,0,0,22.07-21.37c6.95-11.54,5.09-17.2,9.53-27.82,14.05-33.65,61.17-45.1,61.17-45.11h0S-193,296.86-145.48,326c5.31,3.25,7.92,5,9.94,8,22,33-46.41,129.4-46.41,129.4Z" transform="translate(360.52 47.86)"/><path class="cls-25" d="M-223.3,465.68c-3.27,0-97.88-7.86-97.88-7.86s-58.72-14.4-25-49.74a59.6,59.6,0,0,0,21.31-21.43c6.72-11.58,4.92-17.25,9.21-27.91,13.57-33.75,59.09-45.24,59.09-45.24h0s61.72-14.9,107.66,14.33c5.12,3.26,7.64,5,9.59,8.05,21.24,33.08-44.82,129.8-44.82,129.8Z" transform="translate(360.52 47.86)"/><path class="cls-11" d="M-272.18,270.48s9.26-24.62,72.94-12.11c59,15.29,13.89,54.2-36.47,45.86S-280.6,279-272.18,270.48Z" transform="translate(360.52 47.86)"/><path class="cls-26" d="M-271.82,272.08s9-23.92,70.68-11.77c57.22,14.86,13.47,52.67-35.34,44.57S-280,280.4-271.82,272.08Z" transform="translate(360.52 47.86)"/><path class="cls-27" d="M-217.24,374.41S-161.5,321.68-103,301c63.84-31,148.36-100.3,250.86-68.24,79.12,30,138.46,71.34,173.53,147.86,17.08,44.46,19.78,98.23-110.59,91l-363.25.66S-294.57,460.24-217.24,374.41Z" transform="translate(360.52 47.86)"/><path class="cls-28" d="M-222.56,382.32s56.39-53.61,115.51-74.63c64.58-31.54,150.08-102,253.77-69.38,80.05,30.48,140.08,72.53,175.55,150.32,17.28,45.2,20,99.86-111.88,92.5l-367.46.67S-300.79,469.57-222.56,382.32Z" transform="translate(360.52 47.86)"/><path class="cls-20" d="M199.82,483.52s1.74,31.3-10.49,43.46c-3.65,4.25-6.54,4.14-10.89,4.25,0,0,12.16-4.78,15.19-20.72a178.19,178.19,0,0,0,3.18-28h3Z" transform="translate(360.52 47.86)"/><path class="cls-20" d="M78.48,482.25c-.48,5.48-.72,24.56-.53,28.27.84,16.27,1.8,34.8,10.57,39.58a10.26,10.26,0,0,0,6.58,1l3.32-.45c-4.08,6.07-7.73,6.58-8.91,6.65-7.25.4-15.73-10.93-17.8-29.19a132.89,132.89,0,0,1-1.46-26.24c.33-7.29,1.54-19.62,1.54-19.62h6.69Z" transform="translate(360.52 47.86)"/><path class="cls-29" d="M282.12,812.53s9.21-29.15,62.91,0c41.43-24.55,49.1-25.91,72.11-12.95,19.95-51.49,144.22-50,167.24-16.2,36.82-18.41,53.7-10.3,55.23,2.52,27.62-7.12,62.91,12.82,62.91,12.82L282.12,834Z" transform="translate(360.52 47.86)"/><path class="cls-30" d="M1495.59,801c.11-.34-.81-.87-1.6-2.15a8.64,8.64,0,0,1-1-2.92c-.7-3.06-3.38-6.78-4.27-8.15-2.81-4.35-4.14-10.88-6.34-21.71a183.09,183.09,0,0,1-2.78-18.62c-.15-10.8,1.15-18.95,3.84-23.64a134.61,134.61,0,0,0,7.68-16s15.81.81,17.16,0,5.2-4.7,4.52-14.72l.22-2.41-4.06,1.3s-1.25,9-6.46,9.68c-6.2,1-13.3-3.35-12.26-9.68h-4.51s1.39,18.45-5.44,22.35c-5.09,1.53-8.09-.89-7.86-11.7l.23-10.8h-8.1s.47,11.49,0,12.19-4,7.79-7.86-6.83c-3.24-10.3-1.39-5.34-1.39-5.34l-4.4.12s2,11.35,8.45,18.45c4.28,6.82,4.39,18.24,1.15,22.28-3.47,4-9.37,6.27-13.88-17.68-3-15.88-3.81-23.05-3.81-23.05l-6.25-.08s2.54,18.95,2.08,22.29c-.58,3.76-.81,15.32-14.46,10.44-7.08-1.18-21.28-5.44-27.18-18.24-2.2-10.86-1.74-15-1.74-15l-5.09-.15s.12,6.28,1.16,8a14.77,14.77,0,0,1-9.08-2.26c-5.24-3.3-7.36-8.86-7.93-10.52l-4.08-.19a28.74,28.74,0,0,0,4.12,8.19c4,5.48,9.62,8.51,13.73,9.24a32.32,32.32,0,0,1,4,.79s-.22,0-.22,0a30.14,30.14,0,0,0,17.35,24c14.57,6.55,20.94,9.89,24.64,12.54s6.24,5.43,5.67,14.48a84.59,84.59,0,0,0,1,21.65,79.31,79.31,0,0,0,8,23.32c12.52.48,20.57.52,25.72.47,10.35-.12,16.24-.73,19.33.13C1493.62,800.92,1495.43,801.42,1495.59,801Z" transform="translate(360.52 47.86)"/><path class="cls-31" d="M1479.34,745.07a33.84,33.84,0,0,0-9.82,10.45c-11.08,18.23-3.54,42.21-2.69,44.81l29.23.64a112.5,112.5,0,0,1-5.62-10.69A129.08,129.08,0,0,1,1479.34,745.07Z" transform="translate(360.52 47.86)"/><path class="cls-32" d="M1445.64,710.57s5.42,24.15,9.67,24C1450.91,737,1442.71,730.31,1445.64,710.57Z" transform="translate(360.52 47.86)"/><path class="cls-33" d="M1476,774.11a6.86,6.86,0,0,1-1.68.22,2.9,2.9,0,0,1-1.65-.41,1.65,1.65,0,0,1-.63-1.55,5.37,5.37,0,0,1,.44-1.66,12.45,12.45,0,0,1,1.74-2.94,9.78,9.78,0,0,1,2.52-2.32,2.75,2.75,0,0,1,1.69-.46,1.89,1.89,0,0,1,1.37,1.09,8.2,8.2,0,0,1,.76,3.36,24,24,0,0,1-.8,6.79h0v0a19.14,19.14,0,0,1-4.5,6.06,5.72,5.72,0,0,1-1.66,1,2.17,2.17,0,0,1-1.93-.2,3.82,3.82,0,0,1-1.17-1.54,10.64,10.64,0,0,1-.62-1.8,27,27,0,0,1-.58-7.5l.31-7.51-.12,7.52a26.49,26.49,0,0,0,.65,7.43,8.76,8.76,0,0,0,.61,1.74,3.49,3.49,0,0,0,1.09,1.41,1.8,1.8,0,0,0,1.66.15,5.26,5.26,0,0,0,1.56-.92,19.59,19.59,0,0,0,4.37-6v0a24,24,0,0,0,.84-6.68,8.12,8.12,0,0,0-.69-3.24,1.61,1.61,0,0,0-1.17-1,2.55,2.55,0,0,0-1.53.41,9.61,9.61,0,0,0-2.47,2.25,12.75,12.75,0,0,0-1.75,2.87,5.07,5.07,0,0,0-.47,1.6,1.52,1.52,0,0,0,.56,1.47,2.8,2.8,0,0,0,1.59.44A7.33,7.33,0,0,0,1476,774.11Z" transform="translate(360.52 47.86)"/><path class="cls-34" d="M1364.34,638c1.26-10.41,4.57-26.13,14.54-39,26.91-34.69,78.46-18.54,94.95-13.36,40.71,12.79,67.09,43.46,80,61.31l6.41,5.73a466.28,466.28,0,0,1-191.32-.17Z" transform="translate(360.52 47.86)"/><path class="cls-35" d="M1364.71,637.46c1.24-10,4.52-25.16,14.38-37.52,26.63-33.4,77.64-17.86,94-12.87,40.28,12.31,66.39,41.84,79.18,59l6.34,5.52a473.81,473.81,0,0,1-189.31-.16Z" transform="translate(360.52 47.86)"/><path class="cls-36" d="M1531.14,643.28s37.27-9.72,53.8,19.89c10.76,23,12.68,30.44-53.8,26.27C1519.9,652.64,1531.14,643.28,1531.14,643.28Z" transform="translate(360.52 47.86)"/><path class="cls-37" d="M1532.11,644.15s36.2-9.89,52.25,20.21c10.45,23.37,12.32,30.94-52.25,26.71C1521.19,653.66,1532.11,644.15,1532.11,644.15Z" transform="translate(360.52 47.86)"/><path class="cls-38" d="M1372.49,685.5c-1.12,0-33.71-2.61-33.71-2.61s-20.23-4.78-8.62-16.5a20.16,20.16,0,0,0,7.35-7.11c2.31-3.83,1.69-5.72,3.17-9.25,4.67-11.19,20.35-15,20.35-15h0s21.26-4.93,37.08,4.76c1.76,1.08,2.63,1.66,3.3,2.67,7.32,11-15.44,43-15.44,43Z" transform="translate(360.52 47.86)"/><path class="cls-39" d="M1372.22,686.25c-1.09,0-32.56-2.62-32.56-2.62s-19.54-4.79-8.33-16.54a19.85,19.85,0,0,0,7.1-7.14c2.23-3.85,1.63-5.73,3.06-9.28,4.51-11.23,19.65-15,19.65-15h0s20.54-5,35.82,4.77a9.21,9.21,0,0,1,3.19,2.68c7.07,11-14.91,43.18-14.91,43.18Z" transform="translate(360.52 47.86)"/><path class="cls-40" d="M1356,621.31s3.08-8.19,24.26-4c19.64,5.09,4.62,18-12.13,15.26S1353.16,624.16,1356,621.31Z" transform="translate(360.52 47.86)"/><path class="cls-41" d="M1356.08,621.84s3-8,23.51-3.91c19,4.94,4.48,17.52-11.76,14.82S1353.36,624.61,1356.08,621.84Z" transform="translate(360.52 47.86)"/><path class="cls-42" d="M1374.23,655.89s18.55-17.55,38-24.43c21.24-10.32,49.35-33.36,83.45-22.7,26.32,10,46.07,23.74,57.73,49.19,5.68,14.79,6.58,32.68-36.79,30.27l-120.84.22S1348.51,684.44,1374.23,655.89Z" transform="translate(360.52 47.86)"/><path class="cls-43" d="M1372.46,658.52s18.76-17.84,38.43-24.83c21.48-10.49,49.93-33.92,84.42-23.08,26.63,10.14,46.6,24.13,58.4,50,5.75,15,6.66,33.22-37.22,30.78l-122.24.22S1346.44,687.54,1372.46,658.52Z" transform="translate(360.52 47.86)"/><path class="cls-44" d="M1513,692.18s.58,10.41-3.48,14.46c-1.22,1.41-2.18,1.38-3.63,1.41a9.19,9.19,0,0,0,5.06-6.89,59.68,59.68,0,0,0,1-9.3h1Z" transform="translate(360.52 47.86)"/><path class="cls-44" d="M1472.61,691.76c-.16,1.82-.24,8.17-.18,9.4.28,5.42.6,11.58,3.52,13.17a3.38,3.38,0,0,0,2.19.33l1.1-.15c-1.35,2-2.57,2.19-3,2.22-2.41.13-5.24-3.64-5.92-9.71a44.19,44.19,0,0,1-.49-8.73c.11-2.43.51-6.53.51-6.53h2.23Z" transform="translate(360.52 47.86)"/><path class="cls-45" d="M778.59,819c.11-.31-.83-.82-1.63-2a7.87,7.87,0,0,1-1.08-2.75c-.7-2.9-3.44-6.41-4.34-7.7-2.86-4.11-4.21-10.28-6.46-20.51a160.34,160.34,0,0,1-2.82-17.58c-.17-10.21,1.16-17.9,3.91-22.34A122.58,122.58,0,0,0,774,730.9s16.09.78,17.47,0,5.29-4.43,4.6-13.89l.23-2.28L792.15,716s-1.27,8.49-6.57,9.15c-6.32.92-13.55-3.17-12.49-9.15H768.5s1.41,17.43-5.54,21.12c-5.19,1.44-8.25-.85-8-11.05l.23-10.21-8.24,0s.47,10.85,0,11.5-4.13,7.37-8-6.44c-3.3-9.73-1.41-5-1.41-5L733,716s2,10.73,8.6,17.43c4.36,6.45,4.48,17.23,1.18,21-3.53,3.81-9.54,5.91-14.14-16.71-3.06-15-3.88-21.77-3.88-21.77l-6.37-.07s2.59,17.9,2.12,21c-.59,3.55-.82,14.47-14.72,9.87-7.22-1.12-21.68-5.14-27.69-17.23-2.24-10.26-1.77-14.21-1.77-14.21l-5.18-.14s.12,5.93,1.18,7.51a16,16,0,0,1-9.25-2.14,19.44,19.44,0,0,1-8.07-9.93l-4.16-.18a26.46,26.46,0,0,0,4.19,7.73,24,24,0,0,0,14,8.73,35,35,0,0,1,4.11.75s-.23,0-.23,0,1.06,15.52,17.68,22.62c14.84,6.18,21.32,9.34,25.09,11.84s6.37,5.12,5.78,13.67a74.45,74.45,0,0,0,1.06,20.45,71.21,71.21,0,0,0,8.13,22c12.75.45,20.94.49,26.2.44,10.53-.11,16.53-.69,19.68.13C776.58,818.91,778.43,819.39,778.59,819Z" transform="translate(360.52 47.86)"/><path class="cls-31" d="M762,766.16A33.41,33.41,0,0,0,752,776c-11.27,17.22-3.6,39.87-2.73,42.33l29.77.6a103.38,103.38,0,0,1-5.73-10.09A115.09,115.09,0,0,1,762,766.16Z" transform="translate(360.52 47.86)"/><path class="cls-32" d="M727.72,733.58s5.51,22.81,9.84,22.64C733.08,758.55,724.73,752.23,727.72,733.58Z" transform="translate(360.52 47.86)"/><path class="cls-33" d="M758.59,793.6a8.26,8.26,0,0,1-1.64.2,3.41,3.41,0,0,1-1.63-.3,1.48,1.48,0,0,1-.77-1.41,2.57,2.57,0,0,1,.13-.83,3.45,3.45,0,0,1,.28-.78,11.6,11.6,0,0,1,1.76-2.82,10.08,10.08,0,0,1,2.5-2.19,3.52,3.52,0,0,1,1.62-.52,1.83,1.83,0,0,1,1.48.85,6.58,6.58,0,0,1,.89,3.22,20.92,20.92,0,0,1-.8,6.58v0a18.36,18.36,0,0,1-4.52,5.66,6.59,6.59,0,0,1-1.61.92,2.38,2.38,0,0,1-1.87,0,4.79,4.79,0,0,1-2-3,22.74,22.74,0,0,1-.67-7.2l.32-7.23-.13,7.23a22.68,22.68,0,0,0,.72,7.12,4.57,4.57,0,0,0,1.86,2.85,2.1,2.1,0,0,0,1.65,0,5.9,5.9,0,0,0,1.51-.88,18.93,18.93,0,0,0,4.4-5.59l0,0a20.54,20.54,0,0,0,.85-6.46,6.32,6.32,0,0,0-.82-3.08,1.51,1.51,0,0,0-1.25-.75,3.3,3.3,0,0,0-1.5.47,11.31,11.31,0,0,0-4.22,4.86,4.44,4.44,0,0,0-.3.76,2.68,2.68,0,0,0-.14.79,1.38,1.38,0,0,0,.69,1.34A5.27,5.27,0,0,0,758.59,793.6Z" transform="translate(360.52 47.86)"/><path class="cls-46" d="M644.91,665.08c1.28-9.84,4.66-24.69,14.8-36.82,27.42-32.77,79.92-17.52,96.72-12.62,41.46,12.08,68.33,41.05,81.49,57.91q3.27,2.7,6.53,5.41a511.22,511.22,0,0,1-194.86-.16Z" transform="translate(360.52 47.86)"/><path class="cls-47" d="M645.28,664.53c1.27-9.47,4.61-23.77,14.65-35.44,27.13-31.55,79.08-16.87,95.7-12.16,41,11.63,67.62,39.52,80.64,55.75l6.46,5.21a520.14,520.14,0,0,1-192.82-.15Z" transform="translate(360.52 47.86)"/><path class="cls-48" d="M814.79,670s38-9.19,54.8,18.78c11,21.71,12.92,28.75-54.8,24.81C803.35,678.87,814.79,670,814.79,670Z" transform="translate(360.52 47.86)"/><path class="cls-49" d="M815.78,670.84s36.87-9.33,53.22,19.1c10.65,22.06,12.55,29.22-53.22,25.22C804.66,679.83,815.78,670.84,815.78,670.84Z" transform="translate(360.52 47.86)"/><path class="cls-50" d="M653.21,709.9c-1.15,0-34.34-2.46-34.34-2.46s-20.6-4.51-8.77-15.59a19.94,19.94,0,0,0,7.48-6.71c2.35-3.63,1.72-5.4,3.23-8.74,4.76-10.57,20.72-14.17,20.72-14.17h0s21.66-4.67,37.77,4.49c1.8,1,2.68,1.57,3.36,2.52,7.46,10.36-15.72,40.66-15.72,40.66Z" transform="translate(360.52 47.86)"/><path class="cls-51" d="M652.93,710.61c-1.11,0-33.16-2.47-33.16-2.47s-19.9-4.53-8.48-15.63a19.63,19.63,0,0,0,7.22-6.74c2.28-3.63,1.67-5.42,3.12-8.77,4.6-10.6,20-14.21,20-14.21h0s20.92-4.68,36.48,4.5a9.28,9.28,0,0,1,3.25,2.53c7.2,10.39-15.19,40.79-15.19,40.79Z" transform="translate(360.52 47.86)"/><path class="cls-40" d="M636.37,649.27s3.14-7.73,24.71-3.8c20,4.8,4.71,17-12.36,14.41S633.51,652,636.37,649.27Z" transform="translate(360.52 47.86)"/><path class="cls-41" d="M636.49,649.78s3-7.52,24-3.7c19.39,4.67,4.56,16.55-12,14S633.72,652.39,636.49,649.78Z" transform="translate(360.52 47.86)"/><path class="cls-52" d="M655,681.93s18.89-16.57,38.69-23.07c21.63-9.74,50.27-31.51,85-21.44,26.81,9.42,46.92,22.42,58.8,46.46,5.79,14,6.7,30.86-37.47,28.59l-123.08.21S628.78,708.9,655,681.93Z" transform="translate(360.52 47.86)"/><path class="cls-53" d="M653.18,684.41s19.11-16.84,39.14-23.45c21.88-9.91,50.85-32,86-21.8,27.12,9.58,47.46,22.79,59.48,47.24,5.85,14.2,6.78,31.37-37.91,29.06l-124.51.21S626.67,711.83,653.18,684.41Z" transform="translate(360.52 47.86)"/><path class="cls-44" d="M796.29,716.21s.59,9.84-3.55,13.66c-1.23,1.33-2.21,1.3-3.69,1.33a8.88,8.88,0,0,0,5.15-6.51,53.1,53.1,0,0,0,1.08-8.79h1Z" transform="translate(360.52 47.86)"/><path class="cls-44" d="M755.18,715.81c-.16,1.73-.24,7.72-.18,8.89.29,5.11.61,10.93,3.58,12.43a3.81,3.81,0,0,0,2.24.32l1.12-.15c-1.38,1.91-2.62,2.07-3,2.09-2.46.13-5.33-3.43-6-9.17a38.83,38.83,0,0,1-.5-8.24c.12-2.29.53-6.17.53-6.17h2.26Z" transform="translate(360.52 47.86)"/><path class="cls-54" d="M0,781.85s15.16-16.88,32,0c26.09-35.29,75.18-32.34,93.6-11.57,36.82-40.6,72.11,7.41,67.5,26.36,41.43-27.07,89-5.59,89,15.89L337,829.41l-337,23Z" transform="translate(360.52 47.86)"/><polygon class="cls-55" points="1888.18 777.64 3065.25 594.39 3053.52 715.21 1888.18 777.64"/><polygon class="cls-56" points="360.52 943.28 3065.25 737.15 3053.52 943.28 360.52 962.91 360.52 943.28"/><path class="cls-57" d="M-36.92,852.42s2628.11-213,2843.64-194.06c-76.48,50.21-102,71.42-102,71.42S933.57,799,168.48,931.05L0,905.77Z" transform="translate(360.52 47.86)"/><path class="cls-58" d="M519.13,915.05C529.52,911.59,2251.31,702.48,2693,796.64V915.05Z" transform="translate(360.52 47.86)"/><path class="cls-59" d="M1799.23,903.69s551.48-163.6,976.82-128.46C2705.65,907.77,2693,915.05,2693,915.05Z" transform="translate(360.52 47.86)"/><path class="cls-59" d="M606.44,900.42s470.86-59.6,566.38-50.32c-19.35-28.38-18.06-65.79-5.16-33.54s14.2,35.71,14.2,35.71a42.59,42.59,0,0,1,3.25-14c1.74-4.13,3.66-8.67,8.36-12.27,4.51-3.45,12.24-6.54,14.53-4.21,2,2,.69,8.79-14.53,30.47h78.7c-2.67-6.43-16.87-41.31-7-48.32,2.48-1.75,6-1.41,8.24-.46,8.83,3.68,11.92,21.42,7.75,44.36,0,0,9-42.9,36.12-35.16.39.11,6,1.23,7.54,5.37,2.6,6.85-7.13,18.32-24.86,29.79h9.58l363.83,10s-43.86-26.26-19.35-31.84,25.8,30.55,25.8,30.55-7.74-46.45,25.81-52.9-16.77,23.22-16.77,51.61,150.95-7.42,150.95-7.42-98.06-68.71-46.45-64.83,58.06,65.79,58.06,65.79,12.9-64.86,25.8-60.17-14.19,58.88-14.19,58.88L1860.49,892Z" transform="translate(360.52 47.86)"/><path class="cls-60" d="M446.27,900l117.46-4.58q27.35-4.3,56.18-7.62A1322,1322,0,0,1,834.42,881l712.73-22.35,477-16.51,139.32-1.31s-77.18-49.71-37.28-36,46.44,34,46.44,34-12.43-38.59,15-45.14-19,20.94-7.85,45.14c25.51-22.9,34.67-17,34.67-17l-22.89,18.31,134.09-4.57s-60.18-27.48-34-31.4,41.21,32.7,41.21,32.7-16.35-37.93,3.93-44.15,3.27,43.5,3.27,43.5l71.29-.65C2508.2,831.66,2520,831,2520,831s-14.39-50.37-79.14-54.29-67.37,6.54-64.76-3.93,51-41.86,111.2,0c32.05,26.82,49.06,39.25,32.7,7.85-22.24-32-74.56-60.83-82.41-74.56s32.7-22.24,76.53,26.81c24.2,50.37,26.16,64.1,21.58,32.05s-17-76.53,2-94.19,41.86-17.66,29.43,7.85-19,71.95-13.08,87-5.37-43.17,16.61-64.1,24.59-24.2,33.75-22.9-41.21,27.16-29.43,100.58c26.16-56.1,54.32-84.88,118.08-81.61,0,5.89-61.83,14.39-101.73,89,3.27,7.85-4.58,10.46,25.51-15.7s83.07-28.78,83.07-28.78L2693,758.4s-67.06-6.54-82.11,56.91C2644.91,828.39,2693,833,2693,833v67Z" transform="translate(360.52 47.86)"/><path class="cls-61" d="M2595.89,557.19s-71.28,11-49.34-63.45,58.74-117.49,87.72-36c5.48,32.9,14.88,70.32,0,88.82C2613.6,560.71,2595.89,557.19,2595.89,557.19Z" transform="translate(360.52 47.86)"/><path class="cls-62" d="M2444.05,591.21s-45.18,11-31.28-63.44,37.24-117.49,55.61-36c3.48,32.9,9.44,70.32,0,88.81C2455.28,594.74,2444.05,591.21,2444.05,591.21Z" transform="translate(360.52 47.86)"/><path class="cls-63" d="M2375.19,591.32s-37.84,8.9-26.2-51.51,31.19-95.39,46.57-29.25c2.91,26.71,7.9,57.09,0,72.1C2384.59,594.18,2375.19,591.32,2375.19,591.32Z" transform="translate(360.52 47.86)"/><path class="cls-64" d="M2315.86,591.42s-37.58,7-26-40.74,31-75.44,46.25-23.14c2.89,21.13,7.84,45.16,0,57C2325.2,593.68,2315.86,591.42,2315.86,591.42Z" transform="translate(360.52 47.86)"/><rect class="cls-65" x="2949.25" y="605.62" width="12.36" height="27.71"/><rect class="cls-65" x="2798.16" y="639.63" width="8.11" height="20.12"/><rect class="cls-65" x="2729.76" y="639.63" width="8.11" height="20.12"/><rect class="cls-65" x="2670.44" y="639.63" width="8.11" height="20.12"/><path class="cls-66" d="M536.45,71s66.65-38,125-13.22c58.39,25.89,24.2,55.64-24.81,54.54,0,0-20.07,3.36-67,0S505.05,89.19,536.45,71Z" transform="translate(360.52 47.86)"/><path class="cls-67" d="M423.2,60.87s66.65-38,125-13.22c58.39,25.89,24.2,55.63-24.81,54.53,0,0-20.07,3.37-67,0S391.8,79.05,423.2,60.87Z" transform="translate(360.52 47.86)"/><path class="cls-68" d="M1722.11,80.51s54.51-12.87,137.1-28.63,153.62,101.3-6.61,106.45-64.4,2.52-147,0S1635.55,99.17,1722.11,80.51Z" transform="translate(360.52 47.86)"/><path class="cls-69" d="M2209.36,284.83a314.34,314.34,0,0,1,87.33-10.58c54.22.94,106.86,15.53,102.92,23.57-3,6.15-39.73,10.11-60.87,10.11-105.55,0-40,1-105.55,0-14.72-.23-33.13-1.85-39-6.68C2188.74,296.79,2195.35,290.15,2209.36,284.83Z" transform="translate(360.52 47.86)"/></g></svg>