<svg id="Layer_1" data-name="Layer 1" xmlns="http://www.w3.org/2000/svg" xmlns:xlink="http://www.w3.org/1999/xlink" viewBox="0 0 3901.17 1195.49"><defs><style>.cls-1{fill:none;}.cls-2{clip-path:url(#clip-path);}.cls-3{fill:url(#linear-gradient);}.cls-4{fill:url(#linear-gradient-2);}.cls-5{fill:#365368;}.cls-6{fill:url(#linear-gradient-3);}.cls-7{fill:url(#linear-gradient-4);}.cls-8{fill:url(#linear-gradient-5);}.cls-9{fill:url(#linear-gradient-6);}.cls-10{fill:url(#linear-gradient-7);}.cls-11{fill:url(#linear-gradient-8);}.cls-12{fill:#793b2f;}.cls-13{fill:url(#linear-gradient-9);}.cls-14{fill:#59b97a;}.cls-15{fill:#301712;}.cls-16{fill:url(#linear-gradient-10);}.cls-17{fill:url(#linear-gradient-11);}.cls-18{fill:#83c15d;}.cls-19{fill:url(#linear-gradient-12);}.cls-20{fill:url(#linear-gradient-13);}.cls-21{fill:url(#linear-gradient-14);}.cls-22{fill:url(#linear-gradient-15);}.cls-23{fill:url(#linear-gradient-16);}.cls-24{fill:#c08872;}.cls-25{fill:#cd846b;}.cls-26{fill:#754e33;}.cls-27{fill:#6dc294;}.cls-28{fill:url(#linear-gradient-17);}.cls-29{fill:url(#linear-gradient-18);}.cls-30{fill:url(#linear-gradient-19);}.cls-31{fill:url(#linear-gradient-20);}.cls-32{fill:url(#linear-gradient-21);}.cls-33{fill:url(#linear-gradient-22);}.cls-34{fill:#50ac4b;}.cls-35{fill:url(#linear-gradient-23);}.cls-36{fill:url(#linear-gradient-24);}.cls-37{fill:url(#linear-gradient-25);}.cls-38{fill:url(#linear-gradient-26);}.cls-39{fill:url(#linear-gradient-27);}.cls-40{fill:#0e5f31;}.cls-41{fill:#150f10;}.cls-42{fill:#166132;}.cls-43{fill:url(#linear-gradient-28);}.cls-44{fill:#a29691;}.cls-45{fill:url(#linear-gradient-29);}.cls-46{fill:url(#linear-gradient-30);}.cls-47{fill:url(#linear-gradient-31);}.cls-48{fill:url(#linear-gradient-32);}.cls-49{fill:url(#linear-gradient-33);}.cls-50{fill:url(#linear-gradient-34);}.cls-51{fill:url(#linear-gradient-35);}.cls-52{fill:url(#linear-gradient-36);}.cls-53{fill:url(#linear-gradient-37);}.cls-54{fill:#8dc972;}.cls-55{fill:#7e7782;}.cls-56{fill:url(#linear-gradient-38);}.cls-57{fill:url(#linear-gradient-39);}.cls-58{fill:url(#linear-gradient-40);}.cls-59{fill:url(#linear-gradient-41);}.cls-60{fill:url(#linear-gradient-42);}.cls-61{fill:url(#linear-gradient-43);}.cls-62{fill:#160a09;}.cls-63{fill:url(#linear-gradient-44);}.cls-64{fill:url(#linear-gradient-45);}.cls-65{fill:url(#linear-gradient-46);}.cls-66{fill:url(#linear-gradient-47);}.cls-67{fill:#0a2525;}</style><clipPath id="clip-path" transform="translate(940.52 281.68)"><rect class="cls-1" width="2693" height="900"/></clipPath><linearGradient id="linear-gradient" x1="2190.95" y1="1123.5" x2="2413.62" y2="192.08" gradientUnits="userSpaceOnUse"><stop offset="0.42" stop-color="#a1dcef"/><stop offset="0.54" stop-color="#95d5e9"/><stop offset="0.75" stop-color="#76c2d9"/><stop offset="0.81" stop-color="#6cbcd3"/></linearGradient><linearGradient id="linear-gradient-2" x1="1941.31" y1="-321.93" x2="1983.43" y2="801.7" gradientUnits="userSpaceOnUse"><stop offset="0.42" stop-color="#5aa2cb"/><stop offset="0.56" stop-color="#6fb8d6"/><stop offset="0.69" stop-color="#7cc6dd"/><stop offset="0.81" stop-color="#81cbdf"/></linearGradient><linearGradient id="linear-gradient-3" x1="499.21" y1="651.37" x2="554.7" y2="-546.62" gradientTransform="translate(7.06 -12.69) rotate(1.75)" gradientUnits="userSpaceOnUse"><stop offset="0.02" stop-color="#acd2ed"/><stop offset="0.16" stop-color="#a7ceea"/><stop offset="0.31" stop-color="#9ac3e3"/><stop offset="0.46" stop-color="#84b1d6"/></linearGradient><linearGradient id="linear-gradient-4" x1="-244.08" y1="671.39" x2="-171.04" y2="-905.48" gradientTransform="translate(7.06 -12.69) rotate(1.75)" gradientUnits="userSpaceOnUse"><stop offset="0.03" stop-color="#81c9eb"/><stop offset="0.46" stop-color="#68b6ce"/></linearGradient><linearGradient id="linear-gradient-5" x1="1103.99" y1="-119.89" x2="2461.55" y2="1069.37" gradientUnits="userSpaceOnUse"><stop offset="0.18" stop-color="#732f30"/><stop offset="0.19" stop-color="#732f30"/><stop offset="0.28" stop-color="#612e30"/><stop offset="0.4" stop-color="#542d30"/><stop offset="0.56" stop-color="#4d2c30"/><stop offset="0.91" stop-color="#4b2c30"/></linearGradient><linearGradient id="linear-gradient-6" x1="825.4" y1="388.03" x2="1397.11" y2="713.3" gradientUnits="userSpaceOnUse"><stop offset="0.18" stop-color="#ad5f4b"/><stop offset="0.26" stop-color="#9d5745"/><stop offset="0.42" stop-color="#82483a"/><stop offset="0.58" stop-color="#6f3e32"/><stop offset="0.75" stop-color="#63382e"/><stop offset="0.91" stop-color="#5f362c"/></linearGradient><linearGradient id="linear-gradient-7" x1="1227.67" y1="383.25" x2="1848.05" y2="736.22" xlink:href="#linear-gradient-6"/><linearGradient id="linear-gradient-8" x1="1549.55" y1="422.46" x2="1996.74" y2="676.89" xlink:href="#linear-gradient-6"/><linearGradient id="linear-gradient-9" x1="2717.21" y1="368.65" x2="852.19" y2="312.56" gradientUnits="userSpaceOnUse"><stop offset="0.03" stop-color="#0a8645"/><stop offset="0.35" stop-color="#35a04f"/><stop offset="0.65" stop-color="#56b456"/><stop offset="0.81" stop-color="#63bc59"/></linearGradient><linearGradient id="linear-gradient-10" x1="2724.88" y1="820.25" x2="620.23" y2="756.95" gradientUnits="userSpaceOnUse"><stop offset="0.24" stop-color="#150f10"/><stop offset="0.33" stop-color="#181112"/><stop offset="0.4" stop-color="#231819"/><stop offset="0.48" stop-color="#352223"/><stop offset="0.49" stop-color="#392526"/><stop offset="0.82" stop-color="#2f1717"/></linearGradient><linearGradient id="linear-gradient-11" x1="692.19" y1="404.58" x2="1071.93" y2="825.17" gradientUnits="userSpaceOnUse"><stop offset="0.09" stop-color="#96422f"/><stop offset="0.41" stop-color="#5e2e23"/><stop offset="0.64" stop-color="#3a211c"/></linearGradient><linearGradient id="linear-gradient-12" x1="629.88" y1="478.96" x2="1010.09" y2="695.28" xlink:href="#linear-gradient-6"/><linearGradient id="linear-gradient-13" x1="1673.76" y1="784.3" x2="2050.19" y2="998.47" gradientUnits="userSpaceOnUse"><stop offset="0.05" stop-color="#ad5f4b"/><stop offset="0.14" stop-color="#9d5745"/><stop offset="0.33" stop-color="#82483a"/><stop offset="0.52" stop-color="#6f3e32"/><stop offset="0.71" stop-color="#63382e"/><stop offset="0.91" stop-color="#5f362c"/></linearGradient><linearGradient id="linear-gradient-14" x1="763.69" y1="470.71" x2="1103.59" y2="826.66" xlink:href="#linear-gradient-6"/><linearGradient id="linear-gradient-15" x1="2539.81" y1="761.91" x2="773.09" y2="705.8" gradientUnits="userSpaceOnUse"><stop offset="0.06" stop-color="#193a24"/><stop offset="0.19" stop-color="#193a24"/><stop offset="0.33" stop-color="#265937"/><stop offset="0.45" stop-color="#2f7044"/><stop offset="0.53" stop-color="#327849"/></linearGradient><linearGradient id="linear-gradient-16" x1="2614.01" y1="343.13" x2="2609.65" y2="119.8" gradientTransform="matrix(-1, 0, 0, 1, 5202.68, 0)" gradientUnits="userSpaceOnUse"><stop offset="0" stop-color="#8f7d61"/><stop offset="0.41" stop-color="#786b59"/><stop offset="0.76" stop-color="#696054"/></linearGradient><linearGradient id="linear-gradient-17" x1="2603.71" y1="194.06" x2="2727.75" y2="-111.16" gradientTransform="matrix(-1, 0, 0, 1, 5202.68, 0)" gradientUnits="userSpaceOnUse"><stop offset="0.22" stop-color="#60bf8d"/><stop offset="0.31" stop-color="#62c093"/><stop offset="0.49" stop-color="#66c29b"/></linearGradient><linearGradient id="linear-gradient-18" x1="2853.59" y1="66.84" x2="2733.75" y2="231.41" gradientTransform="matrix(-1, 0, 0, 1, 5202.68, 0)" gradientUnits="userSpaceOnUse"><stop offset="0.3" stop-color="#60be85"/><stop offset="0.67" stop-color="#57b379"/></linearGradient><linearGradient id="linear-gradient-19" x1="2443.5" y1="169.41" x2="2530.85" y2="86.69" gradientTransform="matrix(-1, 0, 0, 1, 5202.68, 0)" gradientUnits="userSpaceOnUse"><stop offset="0.23" stop-color="#2dab76"/><stop offset="0.54" stop-color="#2fac79"/><stop offset="0.74" stop-color="#35b181"/><stop offset="0.88" stop-color="#3db88d"/></linearGradient><linearGradient id="linear-gradient-20" x1="2495.13" y1="119.15" x2="2492.77" y2="-2.15" gradientTransform="matrix(-1, 0, 0, 1, 5202.68, 0)" gradientUnits="userSpaceOnUse"><stop offset="0.18" stop-color="#64c08d"/><stop offset="0.6" stop-color="#62c091"/></linearGradient><linearGradient id="linear-gradient-21" x1="2614.78" y1="207.95" x2="2699.1" y2="9.05" gradientTransform="matrix(-1, 0, 0, 1, 5202.68, 0)" gradientUnits="userSpaceOnUse"><stop offset="0.09" stop-color="#3aa680"/><stop offset="0.33" stop-color="#51b186"/><stop offset="0.68" stop-color="#7ac692"/></linearGradient><linearGradient id="linear-gradient-22" x1="702.14" y1="539" x2="702.14" y2="539" gradientUnits="userSpaceOnUse"><stop offset="0.18" stop-color="#4f2015"/><stop offset="0.23" stop-color="#441c13"/><stop offset="0.35" stop-color="#2d140f"/><stop offset="0.43" stop-color="#25110e"/></linearGradient><linearGradient id="linear-gradient-23" x1="1342.92" y1="723.52" x2="1351.45" y2="951.14" gradientUnits="userSpaceOnUse"><stop offset="0.38" stop-color="#108644"/><stop offset="0.39" stop-color="#108644"/><stop offset="0.81" stop-color="#108644"/></linearGradient><linearGradient id="linear-gradient-24" x1="707.22" y1="974.03" x2="677.22" y2="234.9" gradientUnits="userSpaceOnUse"><stop offset="0.18" stop-color="#4f2d26"/><stop offset="0.36" stop-color="#5e372f"/><stop offset="0.53" stop-color="#663c34"/></linearGradient><linearGradient id="linear-gradient-25" x1="412.74" y1="595.53" x2="1013.3" y2="540.01" gradientUnits="userSpaceOnUse"><stop offset="0.18" stop-color="#ad5540"/><stop offset="0.27" stop-color="#914735"/><stop offset="0.36" stop-color="#7a3c2d"/><stop offset="0.42" stop-color="#72382a"/></linearGradient><linearGradient id="linear-gradient-26" x1="427.61" y1="523.4" x2="806.8" y2="855.35" gradientUnits="userSpaceOnUse"><stop offset="0.19" stop-color="#9f3c24"/><stop offset="0.24" stop-color="#933721"/><stop offset="0.35" stop-color="#7c2e1c"/><stop offset="0.43" stop-color="#742b1a"/></linearGradient><linearGradient id="linear-gradient-27" x1="577.61" y1="685.06" x2="1152.61" y2="1188.42" xlink:href="#linear-gradient-22"/><linearGradient id="linear-gradient-28" x1="-117.18" y1="760.17" x2="-125.91" y2="312.91" gradientUnits="userSpaceOnUse"><stop offset="0" stop-color="#441912"/><stop offset="0.77" stop-color="#441a13"/></linearGradient><linearGradient id="linear-gradient-29" x1="-337.44" y1="200.87" x2="203.44" y2="200.87" gradientUnits="userSpaceOnUse"><stop offset="0.23" stop-color="#227d42"/><stop offset="0.53" stop-color="#217e40"/></linearGradient><linearGradient id="linear-gradient-30" x1="-141.03" y1="436.82" x2="88.09" y2="-126.99" gradientUnits="userSpaceOnUse"><stop offset="0.21" stop-color="#0e7d59"/><stop offset="0.33" stop-color="#127e54"/><stop offset="0.49" stop-color="#1f8244"/><stop offset="0.5" stop-color="#218342"/></linearGradient><linearGradient id="linear-gradient-31" x1="109.26" y1="336.42" x2="287.28" y2="336.42" gradientUnits="userSpaceOnUse"><stop offset="0.24" stop-color="#237748"/><stop offset="0.69" stop-color="#237a45"/></linearGradient><linearGradient id="linear-gradient-32" x1="289.44" y1="215.23" x2="67.44" y2="520.09" gradientUnits="userSpaceOnUse"><stop offset="0.23" stop-color="#2a9354"/><stop offset="0.46" stop-color="#258259"/><stop offset="0.65" stop-color="#237a5b"/></linearGradient><linearGradient id="linear-gradient-33" x1="-405.59" y1="401.26" x2="-251.09" y2="254.93" gradientUnits="userSpaceOnUse"><stop offset="0.24" stop-color="#41b071"/><stop offset="0.64" stop-color="#44b271"/><stop offset="0.88" stop-color="#4cb770"/></linearGradient><linearGradient id="linear-gradient-34" x1="-315.96" y1="310.39" x2="-320.71" y2="66.72" gradientTransform="matrix(1, 0, 0, 1, 0, 0)" xlink:href="#linear-gradient-20"/><linearGradient id="linear-gradient-35" x1="-331.31" y1="280.84" x2="192.19" y2="280.84" gradientUnits="userSpaceOnUse"><stop offset="0.09" stop-color="#6fc288"/><stop offset="0.3" stop-color="#59ab75"/><stop offset="0.69" stop-color="#247649"/></linearGradient><linearGradient id="linear-gradient-36" x1="-119.31" y1="471.94" x2="36.93" y2="103.37" gradientUnits="userSpaceOnUse"><stop offset="0.13" stop-color="#276d54"/><stop offset="0.69" stop-color="#217e40"/></linearGradient><linearGradient id="linear-gradient-37" x1="4990.51" y1="913.66" x2="5507.99" y2="434.1" gradientTransform="translate(-5219.3)" gradientUnits="userSpaceOnUse"><stop offset="0.17" stop-color="#278649"/><stop offset="0.22" stop-color="#2d8d4b"/><stop offset="0.4" stop-color="#3ea450"/><stop offset="0.51" stop-color="#45ac52"/></linearGradient><linearGradient id="linear-gradient-38" x1="549.61" y1="499.83" x2="547.77" y2="405.52" gradientUnits="userSpaceOnUse"><stop offset="0.31" stop-color="#31b5b5"/><stop offset="0.34" stop-color="#3ab8ba"/><stop offset="0.49" stop-color="#59c3cc"/><stop offset="0.63" stop-color="#70cbd9"/><stop offset="0.76" stop-color="#7dcfe1"/><stop offset="0.88" stop-color="#82d1e4"/></linearGradient><linearGradient id="linear-gradient-39" x1="201.07" y1="505.84" x2="198.29" y2="363.37" xlink:href="#linear-gradient-38"/><linearGradient id="linear-gradient-40" x1="1018.74" y1="129.67" x2="1078.84" y2="15.22" gradientUnits="userSpaceOnUse"><stop offset="0.07" stop-color="#80cad6"/><stop offset="0.24" stop-color="#98d4de"/><stop offset="0.54" stop-color="#cdeaef"/></linearGradient><linearGradient id="linear-gradient-41" x1="528.89" y1="89.79" x2="590.37" y2="-27.29" gradientUnits="userSpaceOnUse"><stop offset="0.15" stop-color="#94cfd9"/><stop offset="0.28" stop-color="#b1dde5"/><stop offset="0.39" stop-color="#c4e7ed"/><stop offset="0.47" stop-color="#cbeaf0"/></linearGradient><linearGradient id="linear-gradient-42" x1="444.49" y1="89.36" x2="514.86" y2="-44.64" gradientUnits="userSpaceOnUse"><stop offset="0.01" stop-color="#8ad2ea"/><stop offset="0.59" stop-color="#c3e7f3"/><stop offset="0.76" stop-color="#d3edf6"/></linearGradient><linearGradient id="linear-gradient-43" x1="2082.39" y1="249.02" x2="3219.3" y2="1290.67" gradientUnits="userSpaceOnUse"><stop offset="0.18" stop-color="#4f2015"/><stop offset="0.32" stop-color="#401f1a"/><stop offset="0.49" stop-color="#341d1f"/><stop offset="0.66" stop-color="#301d20"/></linearGradient><linearGradient id="linear-gradient-44" x1="1910.98" y1="707.72" x2="2234.99" y2="988.91" gradientUnits="userSpaceOnUse"><stop offset="0.25" stop-color="#231719"/><stop offset="0.67" stop-color="#26191a"/></linearGradient><linearGradient id="linear-gradient-45" x1="1915.35" y1="219.14" x2="3361.52" y2="1474.19" gradientUnits="userSpaceOnUse"><stop offset="0.12" stop-color="#793b2f"/><stop offset="0.34" stop-color="#51271f"/><stop offset="0.55" stop-color="#311713"/><stop offset="0.67" stop-color="#25110e"/></linearGradient><linearGradient id="linear-gradient-46" x1="2212.94" y1="384.49" x2="2690.91" y2="384.49" gradientUnits="userSpaceOnUse"><stop offset="0.03" stop-color="#40a751"/><stop offset="0.36" stop-color="#29994c"/><stop offset="0.81" stop-color="#0d8846"/></linearGradient><linearGradient id="linear-gradient-47" x1="2436.3" y1="540.28" x2="2953.77" y2="60.72" gradientTransform="matrix(-1, 0, 0, 1, 5219.3, 0)" xlink:href="#linear-gradient-37"/></defs><g class="cls-2"><rect class="cls-3" x="939.47" y="276.45" width="2693" height="899.19"/><path class="cls-4" d="M962.17,483.52S1222.88,221.24,1339,139s237.47-182.57,436.23-46.28C1937.89,229,1992.1,187.81,2165,25.58L2307-53.9l653.62-1.58V563.24Z" transform="translate(940.52 281.68)"/><path class="cls-5" d="M651,676.46l90.86-10.3Q757,724.89,772.16,783.61l-84.67,1.62Z" transform="translate(940.52 281.68)"/><path class="cls-6" d="M-496.23,578S-246.27,98-203.61,41.28-97.14-95.3,115,105.56c127.09,82.32,162.09,52.69,221.58,3.35,35-29.62,114.27-56.94,233.91,269.73,70.9,135.17,152,158.11,391.2,32.4s523.78,98.67,523.78,98.67Z" transform="translate(940.52 281.68)"/><path class="cls-7" d="M-729.2-281.68S-592.45-180.72-487.37,64c194.88-127.71,509.94,165,581.16,289.91,74.73,121.64,159.47,250.41,378.36,229.8L-940.52,655.59l27.29-895Z" transform="translate(940.52 281.68)"/><path class="cls-8" d="M2705.24,375.76H1941.5s-82.57,11.46-98.62,29.81,0-29.81,0-29.81H1742V357.41L851.28,342.53a131,131,0,0,1,44.37,67.21c7.88,36.8,20,77.19,34.69,120.91C952.41,596.4,984,672.77,1021.79,715.2c98.62,6.88,1672,43.58,1672,43.58Z" transform="translate(940.52 281.68)"/><path class="cls-9" d="M851.28,342.53H983.39v53.14l53.14,21.26s-22.78,57.84,47.07,106.36c15.2,7.27,27,9.57,34.69,4.67,15.87-10.09,9.94-46.42,4.79-78-2.22-13.62-4.46-27.36-10.63-45.22-9.89-28.65-22.42-46.32-16.62-52,2.09-2,4.59-.6,19.67,0,14.61.57,18.41-.55,21.86,0,17.76,2.79,23.39,49.28,31.27,83.74,9.83,42.95,22.52,73.29,53.15,130.72,12.15,22.77,41,72.88,41,72.88q-14.6-72.23,0-78.69,24.06-10.68,127.54,157.65c38,12.14-358.34,0-358.34,0-52.5-77-102.11-173.15-131.19-288.74q-5.73-22.75-10-44.85Z" transform="translate(940.52 281.68)"/><path class="cls-10" d="M1245,352.8h101.5s-15.88,107.61,69.75,170.49c21.06,9.14,33.6,12.32,40.17,7.44,14.63-10.86,6.09-48.09-1.55-80.73-12.24-52.24-30.78-88.4-20.49-95.7,1.23-.87,7-.74,18.62-.44,13.74.35,20.61.52,23.18,1.16,22.43,5.53,22.34,78.37,22.34,78.37-.06,43,17.31,107.69,95.7,201.47-10.07-84-1.68-80.13,0-101.35s43.65,114.78,92.34,146.68C1752,713.77,1836,757.43,1836,757.43l-275.35-25.19S1388,684.82,1392.89,566.66C1318.87,512.3,1260.11,445.14,1245,352.8Z" transform="translate(940.52 281.68)"/><path class="cls-11" d="M1586.85,356.91a716.3,716.3,0,0,0,119.86,239.34c1.68,72.19,0,134.31,0,134.31L1958.56,744l-6.72-155L1836,401.49l16.79-25.19-112.49-6.71-1.68-10.08Z" transform="translate(940.52 281.68)"/><path class="cls-12" d="M1836,401.49,1951.84,599.6,1958.56,744l404.63,13.44S2333,654.62,2291,618.71s-87.31-20.79-77.23,51.41A414.46,414.46,0,0,1,2168,377.58l-78.38.11A130,130,0,0,0,2064.75,416a132.39,132.39,0,0,0-8.81,69.47C2014,440.1,1951.84,378,1951.84,378S1899.79,369.59,1836,401.49Z" transform="translate(940.52 281.68)"/><path class="cls-13" d="M2719,309.36,1409.25,330.83s-171.38-5.52-327.14-1.51c-56.19,1.45-135.29,4.78-230.83,13.21L983.39,352.8H1346.5L1627.91,365l114,8.91,107.23,2.2-13.2,25.4s63.74-23.19,115.85-23.51S2693,377,2693,377Z" transform="translate(940.52 281.68)"/><polygon class="cls-14" points="1632.68 651.17 1811.77 667.2 1768.12 683.17 1833.92 689.74 1831.29 667.2 1632.68 651.17"/><polygon class="cls-15" points="1676.49 965.91 1733.3 979.66 1707.75 999.05 1712.68 1065.29 1704.9 1047.3 1686.47 1047.3 1676.49 965.91"/><path class="cls-16" d="M767.23,717.36c9.79-29.67,101.13-26.76,151.43-24.82,18.74.73,29.08,1.67,198.27,17l6.41.58c53.19,4.81,104.3,8.35,206.5,15.44,185.92,12.88,341.56,23.09,524.79,28.81,50.92,1.6,216.4,1.93,547.36,2.58,65.2.13,130.41,1.32,195.6.48,78.36-1,77.87-3.11,91.26.28,11,2.78,39.84,11.42,73.93,2.61,1.73-.45,3.16-.86,4.11-1.14l-4.11,53.45s-454.36,21.55-551.15,38c-121.62,13.94-521.21,15.21-560.92,10.14q-119.55-4.05-239-8.82-104.19-4.15-208.37-8.88-8.91-27.27-17.83-54.55l-413.3-4.89a167.67,167.67,0,0,1-6-35.81C765.65,740,764.76,724.86,767.23,717.36Z" transform="translate(940.52 281.68)"/><path class="cls-17" d="M692.16,369.48l179.09,16s-42.62,19.83-39.69,18.85,69.18,0,69.18,0A713.9,713.9,0,0,0,922.17,500a725.21,725.21,0,0,0,98.92,205.49H856.66l-5.38-21.26H736c-9-45.6-14.1-80.35-17.15-104.36-1.06-8.31-2.45-19.94-5-37.55-4.79-33.37-9.06-56.31-10.91-66.9C698.79,451.62,694.08,416.7,692.16,369.48Z" transform="translate(940.52 281.68)"/><path class="cls-18" d="M-4,533.24l716.16-3.45,1.28,8.32a381,381,0,0,1-59.72,3.39c-7.43-.17-14.62-.54-21.53-1.09l-49.77,9.11,6.94,5.32-65.62,34.4L661,607.15s-329.71,38-150.26,80.91C661,701.88,677.44,705.21,677.44,705.21l-22.5,11.88-8.55,16.56L595.3,765.34a529.9,529.9,0,0,0,185.49,18.09l417.58,17.83-63.9,35.48,77.68-41.57q5.34,24.78,10.69,49.58L1134.47,839,1.1,898.11Z" transform="translate(940.52 281.68)"/><path class="cls-19" d="M692.16,369.48l37.22,61s13,220.11,40.35,253.78H736S687.44,399.86,692.16,369.48Z" transform="translate(940.52 281.68)"/><polygon class="cls-20" points="1725.4 660.68 1750.2 710.29 1741.94 857.27 1775.01 917.9 1769.5 979.45 1733.3 971.18 1725.4 660.68"/><path class="cls-21" d="M831.56,404.36q30.91,41.07,61.84,82.12l-6.55,88.19,21.85,44s57.15-8.22,86.55,60.68c5.51,26.09,8.26,26.09,8.26,26.09H856.66l-5.38-25.17Q841.43,542.34,831.56,404.36Z" transform="translate(940.52 281.68)"/><path class="cls-22" d="M2694.34,748.76l-742.5-6.34-152.53-8.14-92.6-3.72-152.88,1.15-33.76-8.27H1412.52l-22.2-5.26-369.23-13.25H856.66l-5.38-20.71H736l56.81,13.4-25.55,18.87,386.23,2.59,9,4.36s552.74,42.37,709.06,39.93,822.87.1,822.87.1Z" transform="translate(940.52 281.68)"/><path class="cls-23" d="M2502.6,329c-.19-.49,1.34-1.27,2.64-3.14a11.7,11.7,0,0,0,1.76-4.26c1.15-4.48,5.6-9.9,7.07-11.9,4.66-6.36,6.86-15.9,10.51-31.72a233.17,233.17,0,0,0,4.61-27.18c.26-15.78-1.9-27.68-6.37-34.54a186.37,186.37,0,0,1-12.73-23.42s-26.22,1.19-28.46,0-8.62-6.86-7.49-21.49l-.38-3.52,6.74,1.89s2.08,13.12,10.71,14.14c10.3,1.42,22.06-4.9,20.34-14.14H2519s-2.3,27,9,32.64c8.45,2.24,13.43-1.3,13.05-17.08l-.38-15.78,13.43,0s-.77,16.78,0,17.79,6.71,11.39,13-10c5.37-15.05,2.3-7.8,2.3-7.8l7.29.17s-3.26,16.58-14,27c-7.1,10-7.29,26.64-1.92,32.54,5.76,5.89,15.54,9.15,23-25.83,5-23.18,6.33-33.66,6.33-33.66l10.36-.12s-4.22,27.68-3.45,32.56c1,5.49,1.34,22.37,24,15.25,11.75-1.73,35.29-8,45.08-26.64,3.65-15.86,2.88-22,2.88-22l8.44-.22s-.19,9.17-1.92,11.61a27.18,27.18,0,0,0,15.06-3.31,30.39,30.39,0,0,0,13.15-15.36l6.76-.28a40,40,0,0,1-6.83,12c-6.67,8-15.95,12.42-22.76,13.48-1.36.22-6.73.94-6.71,1.16,0,.07.37.07.37.07s-1.72,24-28.77,35c-24.17,9.56-34.73,14.44-40.87,18.31s-10.36,7.93-9.4,21.15a109.61,109.61,0,0,1-1.72,31.62A107.21,107.21,0,0,1,2580.61,328c-20.77.69-34.11.76-42.67.67-17.15-.16-26.91-1.05-32.05.21C2505.87,328.87,2502.85,329.61,2502.6,329Z" transform="translate(940.52 281.68)"/><path class="cls-24" d="M2529.55,247.31a53.13,53.13,0,0,1,16.29,15.25c18.36,26.63,5.87,61.65,4.45,65.46l-48.48.92a158.4,158.4,0,0,0,9.33-15.6C2523.87,288.93,2528.19,265.08,2529.55,247.31Z" transform="translate(940.52 281.68)"/><path class="cls-25" d="M2585.43,196.93s-9,35.26-16,35C2576.69,235.54,2590.29,225.76,2585.43,196.93Z" transform="translate(940.52 281.68)"/><path class="cls-26" d="M2535.16,289.73a14.12,14.12,0,0,0,2.59.25,6.09,6.09,0,0,0,2.51-.46,2.06,2.06,0,0,0,1.27-2,5.85,5.85,0,0,0-.66-2.43,18.07,18.07,0,0,0-6.83-7.5,5.82,5.82,0,0,0-2.34-.77,2.34,2.34,0,0,0-2,.91,5.77,5.77,0,0,0-1.05,2.22,12.41,12.41,0,0,0-.41,2.51,30,30,0,0,0,1.35,10.16l0-.07a29.21,29.21,0,0,0,7.08,8.56,9.72,9.72,0,0,0,2.38,1.35,3.93,3.93,0,0,0,2.57.15,4.06,4.06,0,0,0,1.95-1.7,11.15,11.15,0,0,0,1.18-2.49,32.93,32.93,0,0,0,1.31-11.11l-.2-11.32.54,11.31a32.91,32.91,0,0,1-1.15,11.29,10.63,10.63,0,0,1-1.2,2.64,4.56,4.56,0,0,1-2.23,1.94,4.44,4.44,0,0,1-3-.14,10.39,10.39,0,0,1-2.55-1.41,29.2,29.2,0,0,1-7.29-8.74l0,0v0a30.45,30.45,0,0,1-1.31-10.4,12.48,12.48,0,0,1,.44-2.62,6.32,6.32,0,0,1,1.18-2.43c.14-.18.34-.33.5-.5a5.63,5.63,0,0,1,.62-.37,3.1,3.1,0,0,1,1.4-.22,6.3,6.3,0,0,1,2.56.88,16.41,16.41,0,0,1,4,3.42,18.57,18.57,0,0,1,2.87,4.39,6.11,6.11,0,0,1,.61,2.57,2.35,2.35,0,0,1-.39,1.28,2.46,2.46,0,0,1-1.05.82,6.18,6.18,0,0,1-2.58.4A14.12,14.12,0,0,1,2535.16,289.73Z" transform="translate(940.52 281.68)"/><path class="cls-27" d="M2720.26,91c-2.09-15.21-7.58-38.17-24.1-56.92C2651.52-16.59,2566,7,2538.68,14.56,2471.17,33.24,2427.41,78,2406,104.1l-10.63,8.36A876.87,876.87,0,0,0,2565,126.75a876.4,876.4,0,0,0,147.64-14.53Z" transform="translate(940.52 281.68)"/><path class="cls-28" d="M2719.66,90.15c-2.06-14.64-7.5-36.74-23.85-54.8C2651.64-13.42,2567,9.28,2540,16.56c-66.81,18-110.11,61.1-131.31,86.2l-10.53,8A891.84,891.84,0,0,0,2566,124.57a891.41,891.41,0,0,0,146.09-14Z" transform="translate(940.52 281.68)"/><path class="cls-27" d="M2443.64,98.66s-61.82-14.2-89.22,29.05c-17.85,33.56-21,44.45,89.22,38.36C2462.28,112.33,2443.64,98.66,2443.64,98.66Z" transform="translate(940.52 281.68)"/><path class="cls-29" d="M2442,99.91s-60-14.43-86.66,29.53c-17.33,34.12-20.42,45.19,86.66,39C2460.14,113.81,2442,99.91,2442,99.91Z" transform="translate(940.52 281.68)"/><path class="cls-27" d="M2706.75,160.3c1.87,0,55.91-3.8,55.91-3.8s33.54-7,14.29-24.09A32.21,32.21,0,0,1,2764.77,122c-3.83-5.6-2.81-8.35-5.26-13.51-7.75-16.35-33.75-21.92-33.75-21.92h0s-35.26-7.21-61.49,7c-2.93,1.57-4.37,2.43-5.48,3.9-12.14,16,25.6,62.86,25.6,62.86Z" transform="translate(940.52 281.68)"/><path class="cls-30" d="M2707.21,161.4c1.8,0,54-3.81,54-3.81s32.4-7,13.8-24.17A31.39,31.39,0,0,1,2763.25,123c-3.71-5.62-2.72-8.38-5.08-13.55-7.49-16.4-32.6-22-32.6-22h0s-34.06-7.23-59.4,7c-2.82,1.58-4.22,2.44-5.29,3.91-11.72,16.07,24.73,63.06,24.73,63.06Z" transform="translate(940.52 281.68)"/><path class="cls-27" d="M2734.17,66.57s-5.11-12-40.24-5.89c-32.57,7.43-7.66,26.34,20.12,22.29S2738.82,70.72,2734.17,66.57Z" transform="translate(940.52 281.68)"/><path class="cls-31" d="M2734,67.34s-4.95-11.62-39-5.71c-31.57,7.21-7.43,25.59,19.5,21.65S2738.48,71.38,2734,67.34Z" transform="translate(940.52 281.68)"/><path class="cls-27" d="M2703.86,117.06s-30.75-25.62-63-35.67c-35.22-15.07-81.85-48.72-138.4-33.15-43.66,14.57-76.4,34.66-95.74,71.84-9.43,21.6-10.92,47.72,61,44.2l200.42.32S2746.52,158.76,2703.86,117.06Z" transform="translate(940.52 281.68)"/><path class="cls-32" d="M2706.8,120.9s-31.11-26-63.73-36.26c-35.63-15.32-82.81-49.54-140-33.71-44.17,14.82-77.29,35.24-96.86,73-9.53,22-11,48.51,61.73,44.94l202.74.32S2750,163.29,2706.8,120.9Z" transform="translate(940.52 281.68)"/><path class="cls-25" d="M2473.76,170.07s-1,15.21,5.79,21.11c2,2.07,3.6,2,6,2.07a14,14,0,0,1-8.38-10.07,77.09,77.09,0,0,1-1.76-13.59h-1.66Z" transform="translate(940.52 281.68)"/><path class="cls-25" d="M2540.71,169.45c.26,2.67.39,11.93.29,13.74-.47,7.9-1,16.9-5.83,19.23a6.35,6.35,0,0,1-3.64.48l-1.83-.22c2.26,2.95,4.27,3.2,4.92,3.23,4,.2,8.68-5.31,9.82-14.18a56.57,56.57,0,0,0,.81-12.75c-.19-3.54-.85-9.53-.85-9.53h-3.69Z" transform="translate(940.52 281.68)"/><path class="cls-33" d="M702.14,539" transform="translate(940.52 281.68)"/><path class="cls-34" d="M-5.12,747.08l409.37-11.3s2.2-28.3,22.07-38.41-16.56,38.41-16.56,38.41,35.1-27.14,44.6-30.21S423,735.78,423,735.78H642.3l-45.51,28.81,115.26,20.07L0,783.43Z" transform="translate(940.52 281.68)"/><path class="cls-35" d="M-5.12,774,1226.5,786.4l-89.57,50.75c62.71,3.44,156.35,8.1,270.07,11.92,77.64,2.61,291.41,9.58,507.16,7,188-2.27,452.66-12.73,781.85-48.3l-3,93.12H0Z" transform="translate(940.52 281.68)"/><path class="cls-36" d="M712.31,538.38q10.4,64.39,20.78,128.78l-73.23,9.3v-69l-6-4.09V542.21Z" transform="translate(940.52 281.68)"/><path class="cls-37" d="M653.85,542.21q3,32.61,6,65.21l-137.25-17.9q13.36-7.46,27.1-14.89,18.21-9.86,36.09-19.12l-4.5-5.72S630.7,535.54,653.85,542.21Z" transform="translate(940.52 281.68)"/><path class="cls-38" d="M659.86,607.42l1.41,96.05c-4.37-.6-11.71-1.56-20.8-2.55-75.68-8.24-105.15,0-150.44-16.7-17.75-6.52-36.9-13.65-37-23.1-.12-9.92,23.45-22.74,108-39Z" transform="translate(940.52 281.68)"/><path class="cls-39" d="M676.36,705.48l-22.51,11.88-8.55,16.56-51.09,31.69,92.63,16.15Q681.59,743.62,676.36,705.48Z" transform="translate(940.52 281.68)"/><path class="cls-40" d="M1830.93,885.58c-16.77-3.69-30.72-6.27-40.55-8-60.38-10.44-96.93-10.4-106.11-10.33-4.81,0-8.71.15-11.07.23,0,0,77.71-31.83,36.57-39.28s-44.57,38.29-44.57,38.29-19.43-54.24-43.43-54.46S1656,865.19,1656,865.19l-87.89,2.32s27.43-29.71,4.57-37.15-12.57,37.15-12.57,37.15h-44.57l19.43-25.45s-17.14,1.06-32,25.45c-21.71-22.41,35.43-69,0-55.45-28.85,11.08-19.8,40.88-15.45,51.57-4.81-10.15-19.32-37.24-40.55-45-26.28-9.57,34.29,48.85,34.29,48.85h-24s-16-39.28-45.71-37.15,37.71,37.15,37.71,37.15H1008.09l48-38.21c-18.29-6.38-68.57,26.58-68.57,26.58L1029.8,824c-30.88,0-43.09,14.38-47.25,21.55,6.68-14.32,27.88-61.87,8.4-49.07-18,11.79-19,37.77-18.6,48.38-1.08-13-5.49-48.16-21.4-41.78-19.43,7.79,13.71,46.44,13.71,46.44L919,831.42s25.09-9.57,13.67-19.14c-8.83-7.39-18.3,4.86-22.17,10.84,4.32-7.55,13.79-26.77-1.8-26.66-19.39.12-9.18,29.65-9.18,29.65-6.13.66-15.18,1.46-26.14,1.77a324.79,324.79,0,0,1-42.52-1.51c-19.54-1.93-114-2.66-366.74-.26,0,0,76.57-17,62.85-25s-84.56,25-84.56,25,82.28-47.86,57.14-52.77-66.29,52.77-66.29,52.77h-9.14s-20.57-64.88-27.77-57.43,19.77,57.43,19.77,57.43-43.43-62.75-66.28-66,57.14,66,57.14,66-35.43-29.78-52.57-25,41.94,25,41.94,25H287S320.13,791,300.7,791c-12.58,0-18,14.71-20.21,25.09,2-15.52,3.8-42.59-9.5-32.53-18.29,13.82,0,42.54,0,42.54H-2.14L0,903.26H1943.59Q1887.3,894.22,1830.93,885.58Z" transform="translate(940.52 281.68)"/><polygon class="cls-41" points="2164.26 1070.34 2178.69 1122.97 2073.91 1118.69 2164.26 1070.34"/><path class="cls-42" d="M2476.15,701" transform="translate(940.52 281.68)"/><path class="cls-43" d="M24.9,732.36c.31-1-2.23-2.56-4.41-6.32a26.4,26.4,0,0,1-2.91-8.56c-1.92-9-9.33-19.91-11.77-23.93-7.77-12.79-11.43-32-17.51-63.78-2.64-13.8-5.63-32.34-7.67-54.67-.43-31.73,3.17-55.65,10.6-69.45a407.46,407.46,0,0,0,21.2-47.09s43.64,2.39,47.38,0,14.34-13.79,12.47-43.22l.62-7.07-11.22,3.79s-3.45,26.39-17.82,28.44C26.72,443.36,7.13,430.65,10,412.06H-2.45s3.83,54.2-15,65.65c-14,4.5-22.36-2.62-21.72-34.35l.64-31.73-22.35,0s1.27,33.73,0,35.78-11.18,22.9-21.72-20c-8.94-30.26-3.83-15.68-3.83-15.68l-12.14.33s5.43,33.34,23.31,54.2c11.82,20,12.14,53.57,3.2,65.43-9.58,11.86-25.87,18.4-38.33-51.93-8.3-46.62-10.54-67.7-10.54-67.7l-17.24-.23s7,55.66,5.75,65.47c-1.6,11-2.24,45-39.92,30.67-19.57-3.48-58.75-16-75.05-53.57-6.07-31.9-4.79-44.16-4.79-44.16l-14.05-.45s.31,18.44,3.19,23.35a38.78,38.78,0,0,1-25.07-6.66c-14.46-9.66-20.31-26-21.88-30.87l-11.27-.56A86.25,86.25,0,0,0-309.9,419.1c11.11,16.1,26.57,25,37.9,27.12,2.26.43,11.2,1.88,11.17,2.33,0,.13-.63.13-.63.13s2.88,48.25,47.91,70.33c40.24,19.22,57.8,29,68,36.81s17.25,15.95,15.65,42.53A265.87,265.87,0,0,0-127,661.94a243.14,243.14,0,0,0,22,68.49c34.58,1.39,56.79,1.52,71,1.36,28.55-.34,44.81-2.13,53.36.4C19.46,732.21,24.47,733.69,24.9,732.36Z" transform="translate(940.52 281.68)"/><path class="cls-44" d="M-113,466.88s15,70.91,26.68,70.39C-98.44,544.52-121.08,524.85-113,466.88Z" transform="translate(940.52 281.68)"/><path class="cls-45" d="M-337.44,253.87c3.47-30.58,12.61-76.75,40.12-114.46C-223,37.52-80.7,84.93-35.17,100.15,77.22,137.72,150.06,227.79,185.74,280.21L203.44,297A1215.74,1215.74,0,0,1-79,325.76a1217.34,1217.34,0,0,1-245.76-29.22Z" transform="translate(940.52 281.68)"/><path class="cls-46" d="M-336.44,252.17C-333,222.73-324,178.28-296.74,142c73.53-98.08,214.36-52.44,259.41-37.79C73.88,140.35,146,227.05,181.27,277.52l17.51,16.19A1235.63,1235.63,0,0,1-80.69,321.37a1236.77,1236.77,0,0,1-243.19-28.13Z" transform="translate(940.52 281.68)"/><path class="cls-47" d="M123.05,269.27S226,240.71,271.58,327.68c29.7,67.5,35,89.39-148.53,77.15C92,296.76,123.05,269.27,123.05,269.27Z" transform="translate(940.52 281.68)"/><path class="cls-48" d="M125.72,271.8s99.95-29,144.26,59.37c28.86,68.62,34,90.87-144.26,78.42C95.58,299.74,125.72,271.8,125.72,271.8Z" transform="translate(940.52 281.68)"/><path class="cls-27" d="M-315,393.23c-3.1,0-93.07-7.65-93.07-7.65s-55.84-14-23.78-48.45a57.33,57.33,0,0,0,20.27-20.87c6.39-11.27,4.68-16.8,8.75-27.18C-389.88,256.21-346.6,245-346.6,245h0s58.69-14.5,102.37,14c4.87,3.17,7.27,4.89,9.12,7.85,20.2,32.21-42.62,126.41-42.62,126.41Z" transform="translate(940.52 281.68)"/><path class="cls-49" d="M-315.71,395.44c-3,0-89.9-7.67-89.9-7.67s-53.93-14.07-23-48.6A56.55,56.55,0,0,0-409,318.23c6.17-11.31,4.52-16.85,8.45-27.27,12.47-33,54.27-44.19,54.27-44.2h0s56.69-14.55,98.88,14c4.7,3.18,7,4.9,8.81,7.87,19.51,32.31-41.17,126.8-41.17,126.8Z" transform="translate(940.52 281.68)"/><path class="cls-27" d="M-360.6,204.74s8.5-24.06,67-11.83c54.23,14.93,12.76,53-33.49,44.81S-368.34,213.1-360.6,204.74Z" transform="translate(940.52 281.68)"/><path class="cls-50" d="M-360.27,206.3s8.24-23.37,64.92-11.5c52.55,14.52,12.36,51.46-32.46,43.55S-367.77,214.43-360.27,206.3Z" transform="translate(940.52 281.68)"/><path class="cls-51" d="M-310.14,306.28s51.2-51.52,104.87-71.72c58.64-30.31,136.26-98,230.4-66.68,72.67,29.3,127.18,69.71,159.38,144.46,15.69,43.44,18.17,96-101.57,88.9l-333.63.64S-381.16,390.12-310.14,306.28Z" transform="translate(940.52 281.68)"/><path class="cls-52" d="M-315,314s51.79-52.37,106.09-72.91c59.32-30.81,137.84-99.62,233.08-67.78,73.51,29.78,128.65,70.86,161.23,146.85,15.87,44.16,18.38,97.56-102.75,90.38l-337.51.65S-386.88,399.24-315,314Z" transform="translate(940.52 281.68)"/><path class="cls-44" d="M72.9,412.88s1.6,30.57-9.63,42.45c-3.35,4.15-6,4-10,4.15,0,0,11.18-4.67,14-20.24a185.22,185.22,0,0,0,2.92-27.33H72.9Z" transform="translate(940.52 281.68)"/><path class="cls-44" d="M-38.54,411.63c-.44,5.36-.66,24-.49,27.62.78,15.89,1.66,34,9.71,38.67a8.89,8.89,0,0,0,6.05,1l3.05-.43c-3.75,5.92-7.11,6.43-8.19,6.49-6.66.4-14.45-10.68-16.35-28.51A138.79,138.79,0,0,1-46.1,430.8c.31-7.12,1.42-19.17,1.42-19.17h6.14Z" transform="translate(940.52 281.68)"/><path class="cls-53" d="M-171.38,668.25a33,33,0,0,1,12.7-4.26c16.57-1.92,28.78,10,30.76,12a44.86,44.86,0,0,1,33.55-31.29,44.86,44.86,0,0,1,43.92,15.24A45.35,45.35,0,0,1,.37,650,45.34,45.34,0,0,1,27.22,693.9C38,676,59.76,668.84,77.09,676c20.09,8.29,30.34,34.2,19.54,56.29l64.5,12.25-330.69,1.63Z" transform="translate(940.52 281.68)"/><polygon class="cls-54" points="1632.68 651.17 1819.27 654.11 1831.29 667.2 1833.92 685.98 1772.08 686.05 1811.77 667.2 1632.68 651.17"/><path class="cls-55" d="M521.2,471.81a15.46,15.46,0,0,0,3.06,8.74c4.8,6.31,12.83,6.11,13.68,6.08l-.26-14,4.94.21v7.75a10.58,10.58,0,0,0,6.3-.78,11,11,0,0,0,5.64-6.55l2.07.06c-.42,1.27-.84,2.54-1.25,3.81a7.85,7.85,0,0,0,5.66.81,8.07,8.07,0,0,0,5.17-4.41h1.54s-1,8.83-13.06,5.89c-2.2,3.09-7.34,6.39-12.08,4.74.27,9.6,1.87,47.21,1.87,47.21h-5.57q-.48-20.62-1-41.24a19.4,19.4,0,0,1-18.66-18.64Z" transform="translate(940.52 281.68)"/><path class="cls-56" d="M514.65,451.85s42.67-16,68.41,0c24.81,17,7.19,21.68-15.31,21.68-22.73-.24-50.55-1.95-50.55-1.95S486.35,466.76,514.65,451.85Z" transform="translate(940.52 281.68)"/><path class="cls-55" d="M158.15,463.51a23.43,23.43,0,0,0,4.63,13.21c7.25,9.53,19.38,9.23,20.67,9.18l-.4-21.14,7.47.31v11.71A16,16,0,0,0,200,475.6a16.6,16.6,0,0,0,8.52-9.9l3.12.09-1.89,5.76a11.87,11.87,0,0,0,8.55,1.22,12.12,12.12,0,0,0,7.82-6.66h2.33S227,479.46,208.74,475c-3.32,4.67-11.08,9.65-18.24,7.16.41,14.51,2.81,71.31,2.81,71.31h-8.4q-.74-31.14-1.46-62.28A29.32,29.32,0,0,1,155.25,463Z" transform="translate(940.52 281.68)"/><path class="cls-57" d="M148.25,433.37s64.46-24.18,103.35,0c37.48,25.61,10.86,32.74-23.12,32.74-34.33-.35-76.37-2.95-76.37-2.95S105.51,455.89,148.25,433.37Z" transform="translate(940.52 281.68)"/><path class="cls-58" d="M987.73,97s40.56-23.13,76.09-8.05c35.53,15.76,14.73,33.86-15.09,33.19,0,0-12.22,2-40.8,0S968.62,108.1,987.73,97Z" transform="translate(940.52 281.68)"/><path class="cls-59" d="M512.27,58.62s18.94-3.83,47.63-8.52,53.38,30.13-2.29,31.66-22.38.75-51.08,0S482.19,64.17,512.27,58.62Z" transform="translate(940.52 281.68)"/><path class="cls-60" d="M400.93,41c9-6.33,30.6-19.57,58.88-18.31,36.56,1.61,72.06,26.89,69.4,40.81C527.17,74.14,502.42,81,488.16,81c-71.16,0-27,1.72-71.16,0-9.93-.39-22.34-3.2-26.31-11.57C387,61.71,391.48,50.22,400.93,41Z" transform="translate(940.52 281.68)"/><path class="cls-61" d="M2214.05,398.38Q2261,651.6,2308,904.79l395.74,9,5.43-539.61Z" transform="translate(940.52 281.68)"/><path class="cls-62" d="M2083.49,854.32l-71,55.44,73.6-3.37Q2084.8,880.37,2083.49,854.32Z" transform="translate(940.52 281.68)"/><path class="cls-63" d="M1781.09,857.39l302.4-3.07q1.31,26,2.62,52.07l221.88-1.6-26.42-137.85c-29.32.57-73.09,1.12-126.53.59-108.62-1.07-132.26-1.63-132.26-1.63-69.8-1.64-129.58-4.34-131.31,6.14-.26,1.57,1,2.06,1.88,4.79,5.79,18.5-35.89,47.09-41.27,50.77C1838.31,837,1815,850.27,1781.09,857.39Z" transform="translate(940.52 281.68)"/><path class="cls-64" d="M2214.05,398.38Q2261,651.6,2308,904.79l385-5.51c3.28-11.35,19-70-14.64-118.61-16.66-24-37.59-34.34-62.78-46.74-65.45-32.24-144.2-35.53-158.57-10.2-1.56,2.75-2.06,5-3.34,5.26-7.55,1.47-20.78-88.78-13-164.4,4.25-41.28,17.52-105.91,62.83-179.94l-117.26,5.13c-19.26,24-42.14,59.31-54.75,104.68-8.56,30.83-9.67,53.89-9,59.64s7.85,58,7.85,58q-17-108.87-33.95-217.74Z" transform="translate(940.52 281.68)"/><path class="cls-65" d="M2690.91,372.13q.18,5.6-478,26.73l117.16-24.73Q2690.75,367.28,2690.91,372.13Z" transform="translate(940.52 281.68)"/><path class="cls-66" d="M2725.6,294.87a33.06,33.06,0,0,0-12.71-4.26c-16.57-1.93-28.78,10-30.76,11.95a44.75,44.75,0,0,0-77.47-16.06,45.23,45.23,0,0,0-77.67,34c-10.78-17.92-32.54-25.07-49.86-17.92-20.09,8.29-30.34,34.21-19.54,56.3l-64.51,12.25,330.69,1.63Z" transform="translate(940.52 281.68)"/><path class="cls-67" d="M2011.18,874.19c-8.51-11.07-11.07,7.37-9.36,26.67h9.36S2019.69,885.25,2011.18,874.19Z" transform="translate(940.52 281.68)"/><path class="cls-67" d="M1983.09,900.86h18.73C1978.83,869.93,1969.47,869.65,1983.09,900.86Z" transform="translate(940.52 281.68)"/><path class="cls-67" d="M-12.9,833.31c.46,22.51.89,45,1.13,67.55H1983.09c-15.23-.38-42.4-1.11-76.29-2.4,0,0-81-3.09-283.77-16.61L910.3,859.5,422.16,846.91,294,841.68s77.18-49.72,37.28-36-46.44,34-46.44,34,12.43-38.59-15.05-45.13,19,20.93,7.85,45.13c-25.51-22.89-34.66-17-34.66-17L265.83,841l-134.09-4.58s60.18-27.47,34-31.39c-25.15-3.78-40,29.92-41.13,32.53,1.09-2.59,15.53-38-4-44-20.28-6.21-3.27,43.5-3.27,43.5Z" transform="translate(940.52 281.68)"/></g></svg>