<svg id="Layer_1" data-name="Layer 1" xmlns="http://www.w3.org/2000/svg" xmlns:xlink="http://www.w3.org/1999/xlink" viewBox="0 0 2845.7 950.35"><defs><style>.cls-1{fill:none;}.cls-2{clip-path:url(#clip-path);}.cls-3{fill:url(#linear-gradient);}.cls-4{fill:url(#linear-gradient-2);}.cls-5{fill:url(#linear-gradient-3);}.cls-6{fill:url(#linear-gradient-4);}.cls-7{fill:#81d9e6;}.cls-8{fill:url(#linear-gradient-5);}.cls-9{fill:url(#linear-gradient-6);}.cls-10{fill:url(#linear-gradient-7);}.cls-11{fill:#bf8485;}.cls-12{fill:#89e9f4;}.cls-13{fill:url(#linear-gradient-8);}.cls-14{fill:url(#linear-gradient-9);}.cls-15{fill:url(#linear-gradient-10);}.cls-16{fill:#3eaf77;}.cls-17{fill:url(#linear-gradient-11);}.cls-18{fill:url(#linear-gradient-12);}.cls-19{fill:url(#linear-gradient-13);}.cls-20{fill:#c28a73;}.cls-21{fill:#ce856b;}.cls-22{fill:#754d32;}.cls-23{fill:#3beaa2;}.cls-24{fill:url(#linear-gradient-14);}.cls-25{fill:url(#linear-gradient-15);}.cls-26{fill:url(#linear-gradient-16);}.cls-27{fill:url(#linear-gradient-17);}.cls-28{fill:url(#linear-gradient-18);}.cls-29{fill:#a5eb98;}.cls-30{fill:url(#linear-gradient-19);}.cls-31{fill:url(#linear-gradient-20);}.cls-32{fill:url(#linear-gradient-21);}.cls-33{fill:#58d472;}.cls-34{fill:url(#linear-gradient-22);}.cls-35{fill:url(#linear-gradient-23);}.cls-36{fill:#7be57f;}.cls-37{fill:url(#linear-gradient-24);}.cls-38{fill:url(#linear-gradient-25);}.cls-39{fill:url(#linear-gradient-26);}.cls-40{fill:#024e20;}</style><clipPath id="clip-path" transform="translate(117 46.08)"><rect class="cls-1" width="2693" height="900"/></clipPath><linearGradient id="linear-gradient" x1="1237.15" y1="1526.49" x2="1571.35" y2="-125.68" gradientUnits="userSpaceOnUse"><stop offset="0.2" stop-color="#c5f7fd"/><stop offset="0.58" stop-color="#a7f7fd"/><stop offset="0.83" stop-color="#99f7fd"/></linearGradient><linearGradient id="linear-gradient-2" x1="1840.17" y1="177.19" x2="1936.22" y2="81.07" gradientUnits="userSpaceOnUse"><stop offset="0.15" stop-color="#82cdd9"/><stop offset="0.82" stop-color="#d7eef4"/></linearGradient><linearGradient id="linear-gradient-3" x1="1754.67" y1="219.82" x2="1911.78" y2="62.59" gradientTransform="matrix(0.97, -0.09, 0.07, 0.77, 15.91, 175.83)" gradientUnits="userSpaceOnUse"><stop offset="0.4" stop-color="#adcff1"/><stop offset="0.51" stop-color="#b9d9f5"/><stop offset="0.8" stop-color="#d2f0fc"/><stop offset="0.98" stop-color="#dbf8ff"/></linearGradient><linearGradient id="linear-gradient-4" x1="2343.68" y1="297.21" x2="2523.22" y2="117.55" gradientUnits="userSpaceOnUse"><stop offset="0.15" stop-color="#82cdd9"/><stop offset="0.9" stop-color="#d7eef4"/></linearGradient><linearGradient id="linear-gradient-5" x1="1827.27" y1="923.97" x2="2571.22" y2="148.05" gradientUnits="userSpaceOnUse"><stop offset="0.03" stop-color="#77c4f9"/><stop offset="0.33" stop-color="#8acbf7"/><stop offset="0.87" stop-color="#b4daf3"/></linearGradient><linearGradient id="linear-gradient-6" x1="1108.6" y1="779.98" x2="1848.94" y2="7.83" gradientUnits="userSpaceOnUse"><stop offset="0.03" stop-color="#98abe4"/><stop offset="0.61" stop-color="#abcde0"/><stop offset="0.94" stop-color="#b3dbdf"/></linearGradient><linearGradient id="linear-gradient-7" x1="161.59" y1="875.22" x2="1022.48" y2="-22.66" gradientUnits="userSpaceOnUse"><stop offset="0.03" stop-color="#95a9eb"/><stop offset="0.52" stop-color="#90c3df"/><stop offset="0.87" stop-color="#8dd1d8"/></linearGradient><linearGradient id="linear-gradient-8" x1="1001.09" y1="421.6" x2="1097.39" y2="193.98" gradientUnits="userSpaceOnUse"><stop offset="0.29" stop-color="#3cbbe2"/><stop offset="0.52" stop-color="#38c5de"/><stop offset="0.78" stop-color="#36c9dd"/></linearGradient><linearGradient id="linear-gradient-9" x1="14.19" y1="675.91" x2="493.07" y2="527.73" gradientUnits="userSpaceOnUse"><stop offset="0.03" stop-color="#219f68"/><stop offset="0.84" stop-color="#3fe28c"/><stop offset="0.94" stop-color="#43ea90"/></linearGradient><linearGradient id="linear-gradient-10" x1="1372.52" y1="482.37" x2="1425.05" y2="337.94" gradientUnits="userSpaceOnUse"><stop offset="0.15" stop-color="#3cbbe1"/><stop offset="0.79" stop-color="#36b7dc"/></linearGradient><linearGradient id="linear-gradient-11" x1="84.67" y1="667.87" x2="250.01" y2="377.12" gradientUnits="userSpaceOnUse"><stop offset="0.13" stop-color="#21607b"/><stop offset="0.3" stop-color="#238c77"/><stop offset="0.47" stop-color="#25af74"/><stop offset="0.6" stop-color="#27c472"/><stop offset="0.69" stop-color="#27cc71"/></linearGradient><linearGradient id="linear-gradient-12" x1="81.75" y1="789.33" x2="501.61" y2="447.6" gradientUnits="userSpaceOnUse"><stop offset="0.15" stop-color="#108937"/><stop offset="0.33" stop-color="#1c9c45"/><stop offset="0.69" stop-color="#3bcc67"/><stop offset="0.73" stop-color="#3fd26c"/></linearGradient><linearGradient id="linear-gradient-13" x1="411.64" y1="629.68" x2="402.99" y2="186.7" gradientUnits="userSpaceOnUse"><stop offset="0" stop-color="#907d61"/><stop offset="0.43" stop-color="#776b59"/><stop offset="0.76" stop-color="#686054"/></linearGradient><linearGradient id="linear-gradient-14" x1="391.2" y1="333.99" x2="637.23" y2="-271.44" gradientUnits="userSpaceOnUse"><stop offset="0.22" stop-color="#55ca93"/><stop offset="0.4" stop-color="#58cc9a"/><stop offset="0.73" stop-color="#5ccfa2"/></linearGradient><linearGradient id="linear-gradient-15" x1="886.85" y1="81.64" x2="649.13" y2="408.08" gradientUnits="userSpaceOnUse"><stop offset="0.3" stop-color="#59c587"/><stop offset="0.67" stop-color="#57b479"/></linearGradient><linearGradient id="linear-gradient-16" x1="73.42" y1="285.1" x2="246.68" y2="121.01" gradientUnits="userSpaceOnUse"><stop offset="0.23" stop-color="#2fac76"/><stop offset="0.54" stop-color="#31ad79"/><stop offset="0.74" stop-color="#36b281"/><stop offset="0.88" stop-color="#3db98e"/></linearGradient><linearGradient id="linear-gradient-17" x1="175.83" y1="185.4" x2="171.14" y2="-55.21" gradientUnits="userSpaceOnUse"><stop offset="0.18" stop-color="#63c28e"/><stop offset="0.6" stop-color="#63c091"/></linearGradient><linearGradient id="linear-gradient-18" x1="381.73" y1="348.22" x2="637.55" y2="4.43" gradientUnits="userSpaceOnUse"><stop offset="0.09" stop-color="#39a57e"/><stop offset="0.77" stop-color="#72e39c"/></linearGradient><linearGradient id="linear-gradient-19" x1="1037.04" y1="783.68" x2="1436.18" y2="382.09" gradientUnits="userSpaceOnUse"><stop offset="0.03" stop-color="#2eb691"/><stop offset="0.85" stop-color="#42d984"/></linearGradient><linearGradient id="linear-gradient-20" x1="727.24" y1="792.81" x2="791.26" y2="434.23" gradientUnits="userSpaceOnUse"><stop offset="0.55" stop-color="#5fc687"/><stop offset="0.62" stop-color="#67ca89"/><stop offset="0.73" stop-color="#7dd68d"/><stop offset="0.85" stop-color="#9ee793"/></linearGradient><linearGradient id="linear-gradient-21" x1="442.27" y1="771.67" x2="769.84" y2="320.29" gradientUnits="userSpaceOnUse"><stop offset="0.02" stop-color="#10a159"/><stop offset="0.23" stop-color="#12a45a"/><stop offset="0.35" stop-color="#17ac5e"/><stop offset="0.46" stop-color="#20bb64"/><stop offset="0.55" stop-color="#2ccf6d"/><stop offset="0.59" stop-color="#33da71"/></linearGradient><linearGradient id="linear-gradient-22" x1="1111.15" y1="712.79" x2="1216.3" y2="627.21" gradientTransform="translate(96.07 -223.06) rotate(7.6)" gradientUnits="userSpaceOnUse"><stop offset="0.18" stop-color="#108937"/><stop offset="0.32" stop-color="#109730"/><stop offset="0.72" stop-color="#11b81f"/><stop offset="0.94" stop-color="#11c418"/></linearGradient><linearGradient id="linear-gradient-23" x1="-29.97" y1="863.52" x2="107.04" y2="752" gradientTransform="translate(96.07 -223.06) rotate(7.6)" gradientUnits="userSpaceOnUse"><stop offset="0.18" stop-color="#108937"/><stop offset="0.49" stop-color="#47ab50"/><stop offset="0.94" stop-color="#94da73"/></linearGradient><linearGradient id="linear-gradient-24" x1="637.27" y1="964.36" x2="2161.75" y2="612.48" gradientUnits="userSpaceOnUse"><stop offset="0.02" stop-color="#3cb248"/><stop offset="0.94" stop-color="#51c363"/></linearGradient><linearGradient id="linear-gradient-25" x1="112" y1="694.58" x2="2814" y2="694.58" gradientUnits="userSpaceOnUse"><stop offset="0" stop-color="#4f5a73"/><stop offset="1" stop-color="#4f5a73"/></linearGradient><linearGradient id="linear-gradient-26" x1="527.1" y1="1008.84" x2="2057.9" y2="655.5" gradientTransform="matrix(-1, 0, 0, 1, 2688.84, 0)" gradientUnits="userSpaceOnUse"><stop offset="0.02" stop-color="#024e20"/><stop offset="0.82" stop-color="#024e20"/><stop offset="0.94" stop-color="#024e20"/></linearGradient></defs><g class="cls-2"><rect class="cls-3" x="117" y="46.08" width="2696" height="708"/><path class="cls-4" d="M1838.72,122.75s1.92-14.06,26.28-23.68,44.87-14.81,66-3.7,16.67,36.27,12.18,39.23c-8.71,5.75-27.48,13.3-77.56,5.92C1835.51,136.08,1838.72,122.75,1838.72,122.75Z" transform="translate(117 46.08)"/><path class="cls-5" d="M1727,113.05s6.7-21.21,53.84-33.63,77.81-18.53,104.12,1.89,13.17,54.64-5.37,58.92-95.74,7.71-142.28-6C1737.27,134.21,1720.67,127.89,1727,113.05Z" transform="translate(117 46.08)"/><path class="cls-6" d="M2338.53,194.76s3.7-23.66,50.62-39.84,86.42-24.9,127.16-6.23,32.1,61,23.46,66c-16.78,9.67-52.92,22.38-149.39,10C2332.35,217.17,2338.53,194.76,2338.53,194.76Z" transform="translate(117 46.08)"/><path class="cls-7" d="M892.56,332.38S1031,416.88,1271,387.94s500-53.88,820,22.59l196,86L1078.67,523.43-5,620-93,53S371.13,14.77,892.56,332.38Z" transform="translate(117 46.08)"/><path class="cls-8" d="M1640,450.09s164-16.61,359-52.63,471,36.75,698,108.86L2728.7,653,1553.34,634.43Z" transform="translate(117 46.08)"/><path class="cls-9" d="M905.7,422.62s207,70,375-277.06c0,0,74.4-122.47,162.09-115.67C1525.4,36.31,1691.18,148,1743,491.06c0,0,14.62,147.12,8,187.94H906Z" transform="translate(117 46.08)"/><path class="cls-10" d="M671-27h60S866,92,914,321c29.14,139,30,279,30,279H-93s354-68.4,452-232.15S569,4.09,671-27Z" transform="translate(117 46.08)"/><path class="cls-11" d="M995.51,342.67a125,125,0,0,0,9.59,29.87c4.46,9.51,7.79,16.43,15.12,22.5a44.68,44.68,0,0,0,20.2,9.35l0-59.75,14.94.54v36.76s32.93,4.69,37.49-35.38h4.56s3.91,45.77-41.37,51.13L1053,566.17h-13.8l.58-139a95.16,95.16,0,0,1-27.83-23.58c-19.3-24.17-21.38-51.16-21.66-61.19.94,0,1.92,0,2.93.09C994,342.54,994.77,342.6,995.51,342.67Z" transform="translate(117 46.08)"/><path class="cls-12" d="M940,268.45s130.37-59.51,209,0c66.16,55,31.61,80.55-46.77,80.55-69.43-.88-154.45-7.26-154.45-7.26S853.58,323.86,940,268.45Z" transform="translate(117 46.08)"/><path class="cls-13" d="M936.88,273.07s132.61-63.15,212.61,0c77.11,66.87,22.34,85.49-47.57,85.49-70.63-.93-157.11-7.7-157.11-7.7S849,331.88,936.88,273.07Z" transform="translate(117 46.08)"/><path class="cls-14" d="M4.13,624s-55.29-37,38.46-52c0,0-31.25-27,0-50,0,0,22.84-19,62.51-7,0,0,45.67-40,109.38-15,0,0,56.5-15,93.76,3s24,54.89,24,54.89S393.58,541,420,562c0,0,58.9-1,64.91,26,0,0,93.75-15,92.55,22,0,0,76.93-4,60.1,19l-28.85,11L17.35,631Z" transform="translate(117 46.08)"/><path class="cls-11" d="M1349.41,452.92a40.69,40.69,0,0,0,7.51,22.3c11.78,16.08,31.47,15.57,33.56,15.48l-.64-35.68,12.12.53v19.76a25.12,25.12,0,0,0,15.45-2c10.09-4.87,13.32-15,13.84-16.72l5.07.15q-1.54,4.86-3.07,9.72a18.59,18.59,0,0,0,13.88,2.06c8.7-2.25,12.27-10.23,12.7-11.24h3.77s-2.46,22.53-32,15c-5.38,7.88-18,16.29-29.62,12.08.67,24.5,4.58,120.38,4.58,120.38h-13.66l-2.37-105.13A47.72,47.72,0,0,1,1358,484.54c-12.12-13.07-13.15-28.63-13.3-32.45Z" transform="translate(117 46.08)"/><path class="cls-15" d="M1311.31,400s104.67-40.82,167.81,0c53.64,39.86-1.42,56.86-37.54,55.26-55.75-.6-124-5-124-5S1241.91,438.06,1311.31,400Z" transform="translate(117 46.08)"/><path class="cls-16" d="M-33.7,455.64s1.09-73.52,51.49-83S100,399.78,100,399.78s12.05-36.64,48.2-41.38,64.57,34.39,64.57,34.39,74.57-20.16,80,37.95c0,0,65.73-24.9,77.78,47.44,0,0,47.11-8.3,53.69,41.5,0,0,87.64-14.23,74.5,40.33,0,0,69-11.86,46,39.13H38.6Z" transform="translate(117 46.08)"/><path class="cls-17" d="M-117,610s21-154.17,62.67-161.29S-12,450-12,450s33.75-28.63,71-31,72.92,29.74,72.92,29.74S186.79,445.46,212,472c19,20,21,52,21,52s50.11-18.34,85.17,55.19c0,0,65.73-19,74.5,30.84L283.11,629H-117Z" transform="translate(117 46.08)"/><path class="cls-18" d="M-40.7,594.07S80,524,194,554.49c0,0,52-89.49,142-21.49,0,0,118.26-6,141.13,34,0,0,110-8,141.45,38L646,625H-52Z" transform="translate(117 46.08)"/><path class="cls-19" d="M582.35,601.55c.38-1-2.65-2.53-5.24-6.23a23.17,23.17,0,0,1-3.48-8.45c-2.28-8.89-11.11-19.64-14-23.6-9.25-12.62-13.61-31.53-20.85-62.91a466.38,466.38,0,0,1-9.14-53.93c-.52-31.3,3.78-54.89,12.63-68.5a370.56,370.56,0,0,0,25.26-46.46s52,2.36,56.45,0,17.09-13.6,14.86-42.63l.74-7-13.37,3.74s-4.11,26-21.23,28c-20.43,2.83-43.77-9.71-40.34-28H549.77s4.56,53.47-17.89,64.76c-16.74,4.44-26.63-2.58-25.87-33.88l.75-31.3-26.63,0s1.52,33.27,0,35.29-13.32,22.59-25.88-19.76c-10.65-29.85-4.56-15.48-4.56-15.48l-14.47.33s6.47,32.89,27.78,53.47c14.08,19.76,14.46,52.84,3.81,64.54-11.42,11.7-30.82,18.15-45.67-51.23-9.89-46-12.55-66.78-12.55-66.78L388,285.38s8.37,54.9,6.85,64.58c-1.91,10.89-2.67,44.37-47.57,30.25-23.31-3.43-70-15.77-89.43-52.84-7.23-31.46-5.7-43.57-5.7-43.57l-16.74-.43s.37,18.18,3.8,23a53.83,53.83,0,0,1-29.88-6.56c-17.23-9.54-24.19-25.67-26.06-30.46l-13.43-.55a80.09,80.09,0,0,0,13.55,23.73c13.24,15.88,31.65,24.64,45.16,26.75,2.69.42,13.35,1.86,13.3,2.3,0,.12-.74.12-.74.12s3.42,47.6,57.08,69.38c47.95,19,68.88,28.64,81.06,36.31s20.54,15.73,18.64,41.95a217.34,217.34,0,0,0,3.43,62.72,212.47,212.47,0,0,0,26.25,67.57c41.2,1.37,67.66,1.5,84.63,1.33,34-.33,53.4-2.09,63.58.41C575.87,601.4,581.85,602.87,582.35,601.55Z" transform="translate(117 46.08)"/><path class="cls-20" d="M528.9,439.61a105.3,105.3,0,0,0-32.31,30.26C460.17,522.69,485,592.15,487.76,599.7l96.15,1.84a313.26,313.26,0,0,1-18.49-30.95C540.16,522.16,531.58,474.86,528.9,439.61Z" transform="translate(117 46.08)"/><path class="cls-21" d="M418.05,339.68s17.82,69.95,31.79,69.44C435.39,416.26,408.42,396.86,418.05,339.68Z" transform="translate(117 46.08)"/><path class="cls-22" d="M517.76,523.75a26.76,26.76,0,0,1-5.12.64,12,12,0,0,1-5.12-.79,4.8,4.8,0,0,1-2.06-1.62,4.44,4.44,0,0,1-.77-2.54,11.91,11.91,0,0,1,1.22-5.08,37,37,0,0,1,5.69-8.69,33,33,0,0,1,7.93-6.75,12.25,12.25,0,0,1,5-1.73,6.25,6.25,0,0,1,2.75.42,11.51,11.51,0,0,1,1.21.74,11.21,11.21,0,0,1,1,1,12.37,12.37,0,0,1,2.33,4.81,25.73,25.73,0,0,1,.58,2.57c.09.87.26,1.74.29,2.61a60.7,60.7,0,0,1-2.6,20.59l0,.06,0,.06a72.26,72.26,0,0,1-6.36,9.35,45.11,45.11,0,0,1-8.08,8,20.06,20.06,0,0,1-5,2.8,8.82,8.82,0,0,1-5.85.28,9.12,9.12,0,0,1-4.41-3.82,22,22,0,0,1-2.37-5.21,51.52,51.52,0,0,1-2.11-11.11,79.89,79.89,0,0,1-.18-11.26l1-22.44L496.27,519a80.1,80.1,0,0,0,.34,11.17,51.4,51.4,0,0,0,2.23,10.88,22.08,22.08,0,0,0,2.33,5,8,8,0,0,0,3.91,3.4,7.83,7.83,0,0,0,5.15-.3,19.38,19.38,0,0,0,4.74-2.68,44.12,44.12,0,0,0,7.83-7.8,78.15,78.15,0,0,0,6.25-9.22l0,.13a59.67,59.67,0,0,0,2.66-20.18c0-.85-.19-1.68-.27-2.52a25,25,0,0,0-.54-2.46,11.54,11.54,0,0,0-2.1-4.44,11.23,11.23,0,0,0-.85-.84,10,10,0,0,0-1-.61,5.26,5.26,0,0,0-2.3-.38,11.31,11.31,0,0,0-4.66,1.54,32.09,32.09,0,0,0-7.82,6.47,37,37,0,0,0-5.73,8.44,11.44,11.44,0,0,0-1.31,4.84,4.1,4.1,0,0,0,.64,2.35,4.51,4.51,0,0,0,1.9,1.58,12.08,12.08,0,0,0,5,.9A26.8,26.8,0,0,0,517.76,523.75Z" transform="translate(117 46.08)"/><path class="cls-23" d="M150.61,129.56c4.14-30.16,15-75.7,47.81-112.91C287-83.85,456.53-37.08,510.78-22.07,644.7,15,731.49,103.83,774,155.55l21.09,16.59a1739.89,1739.89,0,0,1-336.53,28.34,1739.7,1739.7,0,0,1-292.84-28.83Z" transform="translate(117 46.08)"/><path class="cls-24" d="M151.8,127.88c4.1-29,14.88-72.88,47.31-108.69C286.73-77.56,454.52-32.54,508.2-18.09c132.52,35.67,218.41,121.2,260.48,171l20.86,16a1767.18,1767.18,0,0,1-333,27.29A1769.12,1769.12,0,0,1,166.76,168.4Z" transform="translate(117 46.08)"/><path class="cls-23" d="M699.3,144.75s122.63-28.17,177,57.62c35.4,66.58,41.72,88.17-177,76.1C662.33,171.87,699.3,144.75,699.3,144.75Z" transform="translate(117 46.08)"/><path class="cls-25" d="M702.49,147.25s119.1-28.64,171.89,58.57c34.38,67.68,40.52,89.62-171.89,77.35C666.57,174.81,702.49,147.25,702.49,147.25Z" transform="translate(117 46.08)"/><path class="cls-23" d="M177.4,267c-3.7,0-110.89-7.54-110.89-7.54S0,245.65,38.17,211.69A63.64,63.64,0,0,0,62.32,191.1c7.61-11.12,5.57-16.57,10.43-26.81,15.37-32.42,66.94-43.46,66.94-43.47h0s69.94-14.3,122,13.77c5.8,3.13,8.66,4.83,10.87,7.74C296.61,174.11,221.76,267,221.76,267Z" transform="translate(117 46.08)"/><path class="cls-26" d="M176.5,269.21c-3.57,0-107.11-7.57-107.11-7.57S5.12,247.76,42,213.7a62,62,0,0,0,23.32-20.65c7.35-11.16,5.39-16.63,10.08-26.9,14.85-32.52,64.66-43.6,64.66-43.6h0s67.55-14.35,117.82,13.81c5.6,3.14,8.36,4.84,10.5,7.77,23.25,31.87-49,125.08-49,125.08Z" transform="translate(117 46.08)"/><path class="cls-23" d="M123,81.1s10.14-23.73,79.82-11.67c64.61,14.73,15.2,52.23-39.91,44.2S113.8,89.35,123,81.1Z" transform="translate(117 46.08)"/><path class="cls-27" d="M123.41,82.64s9.82-23.06,77.35-11.34c62.62,14.31,14.73,50.76-38.68,43S114.48,90.66,123.41,82.64Z" transform="translate(117 46.08)"/><path class="cls-23" d="M183.14,181.26s61-50.82,125-70.75C378,80.62,470.46,13.85,582.63,44.74c86.6,28.9,151.54,68.76,189.91,142.5,18.7,42.84,21.65,94.66-121,87.69L254,275.56S98.51,264,183.14,181.26Z" transform="translate(117 46.08)"/><path class="cls-28" d="M177.31,188.88S239,137.21,303.73,117C374.4,86.56,468,18.69,581.45,50.09,669.05,79.47,734.74,120,773.56,195c18.92,43.56,21.9,96.24-122.43,89.15L249,284.75S91.7,273,177.31,188.88Z" transform="translate(117 46.08)"/><path class="cls-21" d="M639.55,286.41s1.91,30.15-11.47,41.87c-4,4.1-7.16,4-11.93,4.1a27.77,27.77,0,0,0,16.63-20,151.36,151.36,0,0,0,3.48-27h3.29Z" transform="translate(117 46.08)"/><path class="cls-21" d="M506.76,285.18c-.52,5.28-.78,23.67-.57,27.24.92,15.68,2,33.54,11.56,38.14a12.56,12.56,0,0,0,7.21,1l3.63-.43c-4.47,5.84-8.46,6.34-9.75,6.4-7.94.39-17.22-10.53-19.49-28.12a113.35,113.35,0,0,1-1.59-25.29c.36-7,1.69-18.91,1.69-18.91h7.31Z" transform="translate(117 46.08)"/><rect class="cls-29" x="804" y="629.08" width="2026" height="164"/><path class="cls-30" d="M878,576s-8-97,82-134.87c38.69-16.29,55.14,6.7,55.14,6.7s27-30.38,60.78-26.91S1141.14,459,1141.14,459s70.91-20.09,93.42,7.81c0,0,11.25,10.67,4.5,25.43,0,0,96.79-27.66,106.92,41.54,0,0,57.39-6.94,67.52,41.18,0,0,81.5-25,114.5,27,0,0,76-2,96,26l-129.47,37L939.69,623.07Z" transform="translate(117 46.08)"/><path class="cls-31" d="M491.1,620.16S443,581.22,524.6,565.43c0,0-27.21-28.42,0-52.62,0,0,19.9-20,54.44-7.37,0,0,32-46.44,95.27-15.79,0,0,49.21-15.79,81.66,3.16S783,543,783,543s43-22,70.33,11.91c0,0,50.67-10.91,56.53,27.36,0,0,58.14-24.27,80.61,23.16,0,0,51.3-9.43,52.35,20L1037.58,637h-537Z" transform="translate(117 46.08)"/><path class="cls-32" d="M258,620.31s20.29-20.34,90-11.87c0,0,12.67,3.39,8.87-10.17-3.27-11.66,1.1-27.65,39.3-18.64,21.56,5.09,39.3,17,39.3,17s5.08,2.54,0-7.63,1.27-18.64,20.29-18.64,36.77,8.47,36.77,8.47,12.67-15.25,45.64-16.94,48.18,5.08,48.18,5.08S594,545.64,634.54,544c21.56-.85,40.57,11.86,40.57,11.86s50.72-5.93,90,19.49c0,0,8.87-10.16,30.43-8.47s40.57,24.57,49.44,45.76V622Z" transform="translate(117 46.08)"/><path class="cls-33" d="M2282.67,620.73s-18.5-10.19-23.5-9.23,5.08-9,20,2.19C2285.17,618.18,2282.67,620.73,2282.67,620.73Z" transform="translate(117 46.08)"/><path class="cls-33" d="M2286.67,620.73s-7.78-23.22-16.14-25.6,13.29-6,17.64,9.7C2291.17,615.64,2286.67,620.73,2286.67,620.73Z" transform="translate(117 46.08)"/><path class="cls-33" d="M2289.2,620.73s9-16.54,27-17.18-27,18.13-27,18.13" transform="translate(117 46.08)"/><path class="cls-33" d="M1709.5,625.8s-27-.42-40.76-8.61,19.14-3.8,45.57.52c0,0-2.49-1.92-23.13-11.43s-15-16.68,1.3-9.75S1725,614.05,1725,614.05s-29.78-21.12-30.17-25.14,5.2-4.07,32.88,22.25c0,0-25.46-22-20.34-32.49S1732.23,609,1732.23,609s-17.46-43.62-6.06-45.28,10,43.43,10,43.43,10.76-24.77,28.35-24-22.15,26.42-25.91,26.71c0,0,1.62,1.81,7.32,1s21.58-13.83,30.75-14.16c9.36-.34,23,9.42-30,29.35Z" transform="translate(117 46.08)"/><path class="cls-34" d="M1145.08,627.35s-32.48.14-48.9-11,23.17-5.86,54.92-.51c0,0-2.94-2.63-27.57-15.41s-17.6-23,1.83-13.73,38.78,23.71,38.78,23.71-35.33-28.84-35.7-34.48,6.38-5.86,39,30.36c0,0-30.1-30.29-23.65-45.08S1173,603.11,1173,603.11s-19.87-60.79-6.08-63.42,10.92,60.71,10.92,60.71,13.64-35.08,34.83-34.49-27.43,37.71-32,38.23c0,0,1.9,2.49,8.79,1.17s26.4-20,37.47-20.73c11.29-.73,27.42,12.6-37,42Z" transform="translate(117 46.08)"/><path class="cls-35" d="M6.73,625s-42.32.19-63.72-14.32S-26.8,603,14.57,610c0,0-3.83-3.43-35.93-20.09S-44.29,559.87-19,572s50.53,30.9,50.53,30.9-46-37.59-46.51-44.94,8.31-7.63,50.87,39.57c0,0-39.22-39.47-30.81-58.75S43,593.36,43,593.36s-25.89-79.21-7.92-82.64,14.23,79.11,14.23,79.11,17.77-45.71,45.38-44.94S59,594,53.07,594.7c0,0,2.49,3.25,11.47,1.53s34.39-26.07,48.82-27c14.71-1,35.73,16.42-48.16,54.78Z" transform="translate(117 46.08)"/><path class="cls-36" d="M232.56,623.65s-15.41-10.53-19.57-9.54,4.23-9.29,16.65,2.26C234.64,621,232.56,623.65,232.56,623.65Z" transform="translate(117 46.08)"/><path class="cls-36" d="M235.89,623.65s-6.48-24-13.44-26.45,11.07-6.16,14.69,10C239.64,618.39,235.89,623.65,235.89,623.65Z" transform="translate(117 46.08)"/><path class="cls-36" d="M238,623.65s7.47-17.09,22.46-17.74S238,624.64,238,624.64" transform="translate(117 46.08)"/><rect class="cls-37" x="105" y="695.08" width="2709" height="159"/><rect class="cls-38" x="112" y="666.08" width="2702" height="57"/><path class="cls-39" d="M2713,739s-223-12.79-500,17-466,37.9-585,39-402,40-536-28C955.86,697.91-26,747-26,747l14.4,157.28,2707.27-3.84Z" transform="translate(117 46.08)"/><path class="cls-40" d="M2669,750.12s7-30.35-19-37.76S2669,750.12,2669,750.12Z" transform="translate(117 46.08)"/><path class="cls-40" d="M2559,746.75s29-22.93,39-24.28-4-14.83-33,4.72C2565,727.19,2556,736.63,2559,746.75Z" transform="translate(117 46.08)"/><path class="cls-40" d="M2564.5,749.75S2560,714.68,2525,712,2550,725.47,2564.5,749.75Z" transform="translate(117 46.08)"/><path class="cls-40" d="M2433,750.12s28.3-21.78,34-25.63c7-4.72-5-13.48-26,3.23C2441,727.72,2428,740,2433,750.12Z" transform="translate(117 46.08)"/><path class="cls-40" d="M2420.33,747.47s-4.33-22.93-34.33-25S2420.33,747.47,2420.33,747.47Z" transform="translate(117 46.08)"/><path class="cls-40" d="M2428.33,751.47S2440,702,2454,689.43c12-10.79-12-16.19-27,10.79S2428.33,751.47,2428.33,751.47Z" transform="translate(117 46.08)"/><path class="cls-40" d="M1673,804.32s21-20.9,8-35.74C1681,768.58,1675,796.9,1673,804.32Z" transform="translate(117 46.08)"/><path class="cls-40" d="M1669,806.32s22-51.25-40-76.2C1629,730.12,1662,762.49,1669,806.32Z" transform="translate(117 46.08)"/><path class="cls-40" d="M1665,803.32s-12-46.53-50-58.67C1615,744.65,1656,783.76,1665,803.32Z" transform="translate(117 46.08)"/><path class="cls-40" d="M1559,803.34s36.49-7.22,28-26.3C1581,763.56,1559,803.34,1559,803.34Z" transform="translate(117 46.08)"/><path class="cls-40" d="M1552.5,805.32S1573,782.39,1560,773,1552.5,805.32,1552.5,805.32Z" transform="translate(117 46.08)"/><path class="cls-40" d="M1502,804.71s36-5.39,35-20.23S1502,804.71,1502,804.71Z" transform="translate(117 46.08)"/><path class="cls-40" d="M1495,810.71s20-37.08,35-46.52-26-10.21-35,28.61Z" transform="translate(117 46.08)"/><path class="cls-40" d="M1493.5,805.71s10.09-28.85-27.5-30.34C1449,774.7,1493.5,805.71,1493.5,805.71Z" transform="translate(117 46.08)"/><path class="cls-40" d="M1076,767s6-36.42,0-39.79-23,7.87-13.5,23.59C1069,761.58,1076,767,1076,767Z" transform="translate(117 46.08)"/><path class="cls-40" d="M1059.69,763.56s-2.69-32.85-15.19-37S1059.69,763.56,1059.69,763.56Z" transform="translate(117 46.08)"/><path class="cls-40" d="M1009,754.84s12-21.58,5-26.3S1003,742.7,1009,754.84Z" transform="translate(117 46.08)"/><path class="cls-40" d="M973,748.77s-.88-42.67-41-53.95c-12-3.37,7,6.34,23,37.23,0,0,3,7.21,2.5,9.27S931,704.26,914,702.24c0,0,33,33.12,36.5,44.54C950.5,746.78,962,771.7,973,748.77Z" transform="translate(117 46.08)"/><path class="cls-40" d="M893.5,740.87s19.5-11,9.5-17S879,740.39,893.5,740.87Z" transform="translate(117 46.08)"/><path class="cls-40" d="M875,738s20-24.28,6-36.41S867,731.91,875,738Z" transform="translate(117 46.08)"/><path class="cls-40" d="M592,734.61s14-9.49,41-11.82-29-12.46-49,11.82C584,734.61,575,745.4,592,734.61Z" transform="translate(117 46.08)"/><path class="cls-40" d="M554,736s41-30.35,65-38.44-23-8.77-55,16.52C564,714,548,729.21,554,736Z" transform="translate(117 46.08)"/><path class="cls-40" d="M542,736s27.24-49.23,39.62-55.3S562,671.22,542,711.34C542,711.34,534,732.58,542,736Z" transform="translate(117 46.08)"/><path class="cls-40" d="M527.5,736S538,690.78,548,684,510,691.45,527.5,736Z" transform="translate(117 46.08)"/><path class="cls-40" d="M521.5,736s.5-37.64-21-43.44S513,717.08,521.5,736Z" transform="translate(117 46.08)"/><path class="cls-40" d="M514.5,736S501,692.82,468,691.8,494,707.64,514.5,736Z" transform="translate(117 46.08)"/><path class="cls-40" d="M511.67,736S494,718.42,464,719.77,504.33,730.56,511.67,736Z" transform="translate(117 46.08)"/><path class="cls-40" d="M383,736s32.33-5.13,28-23.6C408,699.54,383,736,383,736Z" transform="translate(117 46.08)"/><path class="cls-40" d="M375,733.26s22.7-20.15,9-31.69C376,694.82,375,733.26,375,733.26Z" transform="translate(117 46.08)"/></g></svg>