<svg id="Layer_1" data-name="Layer 1" xmlns="http://www.w3.org/2000/svg" xmlns:xlink="http://www.w3.org/1999/xlink" viewBox="0 0 3198.64 1033.6"><defs><style>.cls-1{fill:none;}.cls-2{clip-path:url(#clip-path);}.cls-3{fill:url(#linear-gradient);}.cls-4{fill:url(#linear-gradient-2);}.cls-5{fill:url(#linear-gradient-3);}.cls-6{fill:url(#linear-gradient-4);}.cls-7{fill:url(#linear-gradient-5);}.cls-8{fill:url(#linear-gradient-6);}.cls-9{fill:url(#linear-gradient-7);}.cls-10{fill:url(#linear-gradient-8);}.cls-11{fill:url(#linear-gradient-9);}.cls-12{fill:url(#linear-gradient-10);}.cls-13{fill:#edfdfc;}.cls-14{fill:#f9f4f4;}.cls-15{fill:#faf4f4;}.cls-16{fill:#4a669c;}.cls-17{fill:url(#linear-gradient-11);}.cls-18{fill:url(#linear-gradient-12);}.cls-19{fill:#033209;}.cls-20{fill:#162032;}.cls-21{fill:#01181b;}.cls-22{fill:#020f19;}.cls-23{fill:#6fbe6f;}.cls-24{fill:url(#linear-gradient-13);}.cls-25{fill:#ecf8f9;}.cls-26{fill:url(#linear-gradient-14);}.cls-27{fill:#f6feff;}.cls-28{fill:url(#linear-gradient-15);}.cls-29{fill:url(#linear-gradient-16);}.cls-30{fill:#ebf7fa;}.cls-31{fill:url(#linear-gradient-17);}.cls-32{fill:url(#linear-gradient-18);}.cls-33{fill:url(#linear-gradient-19);}.cls-34{fill:#5e2814;}.cls-35{fill:url(#linear-gradient-20);}.cls-36{fill:url(#linear-gradient-21);}.cls-37{fill:url(#linear-gradient-22);}.cls-38{fill:url(#linear-gradient-23);}.cls-39{fill:url(#linear-gradient-24);}.cls-40{fill:url(#linear-gradient-25);}.cls-41{fill:#14700a;}.cls-42{fill:url(#linear-gradient-26);}.cls-43{fill:url(#linear-gradient-27);}.cls-44{fill:url(#linear-gradient-28);}.cls-45{fill:url(#linear-gradient-29);}.cls-46{fill:url(#linear-gradient-30);}.cls-47{fill:url(#linear-gradient-31);}.cls-48{fill:url(#linear-gradient-32);}.cls-49{fill:url(#linear-gradient-33);}.cls-50{fill:url(#linear-gradient-34);}.cls-51{fill:url(#linear-gradient-35);}.cls-52{fill:url(#linear-gradient-36);}.cls-53{fill:url(#linear-gradient-37);}</style><clipPath id="clip-path" transform="translate(139.3 14.09)"><rect class="cls-1" width="2693" height="900"/></clipPath><linearGradient id="linear-gradient" x1="1258.74" y1="1493.13" x2="1593.09" y2="-159.75" gradientUnits="userSpaceOnUse"><stop offset="0.2" stop-color="#c5f7fd"/><stop offset="0.2" stop-color="#c5f7fd"/><stop offset="0.65" stop-color="#a0eaf9"/><stop offset="0.89" stop-color="#92e5f7"/></linearGradient><linearGradient id="linear-gradient-2" x1="1635.36" y1="194.28" x2="1798.72" y2="30.81" gradientUnits="userSpaceOnUse"><stop offset="0" stop-color="#a3cee8"/><stop offset="0.2" stop-color="#afd4eb"/><stop offset="0.55" stop-color="#cee5f3"/><stop offset="1" stop-color="#fff"/></linearGradient><linearGradient id="linear-gradient-3" x1="2201.45" y1="271.92" x2="2348.75" y2="158.73" gradientUnits="userSpaceOnUse"><stop offset="0" stop-color="#a3cee8"/><stop offset="0.18" stop-color="#afd4eb"/><stop offset="0.5" stop-color="#cee5f3"/><stop offset="0.91" stop-color="#fff"/></linearGradient><linearGradient id="linear-gradient-4" x1="2631.77" y1="148.24" x2="2779.08" y2="35.05" gradientUnits="userSpaceOnUse"><stop offset="0.25" stop-color="#a3cee8"/><stop offset="0.38" stop-color="#afd4eb"/><stop offset="0.61" stop-color="#cee5f3"/><stop offset="0.91" stop-color="#fff"/></linearGradient><linearGradient id="linear-gradient-5" x1="53.67" y1="-78.47" x2="213.4" y2="-238.32" gradientTransform="matrix(1.17, -0.11, 0.07, 0.77, 3.03, 176.99)" gradientUnits="userSpaceOnUse"><stop offset="0.32" stop-color="#adcff1"/><stop offset="0.45" stop-color="#b9d9f5"/><stop offset="0.78" stop-color="#d2f0fc"/><stop offset="0.98" stop-color="#dbf8ff"/></linearGradient><linearGradient id="linear-gradient-6" x1="761.43" y1="153.56" x2="927.19" y2="-12.31" xlink:href="#linear-gradient-2"/><linearGradient id="linear-gradient-7" x1="50.38" y1="848.35" x2="2817.29" y2="118.28" gradientUnits="userSpaceOnUse"><stop offset="0.22" stop-color="#438a57"/><stop offset="0.32" stop-color="#4e9565"/><stop offset="0.78" stop-color="#7dc09d"/><stop offset="1" stop-color="#8fd1b3"/></linearGradient><linearGradient id="linear-gradient-8" x1="38.73" y1="659.05" x2="828.78" y2="365.5" gradientTransform="matrix(1.01, 0.03, -0.03, 1, 15.15, -11.81)" gradientUnits="userSpaceOnUse"><stop offset="0" stop-color="#71c16f"/><stop offset="1" stop-color="#71c06f"/></linearGradient><linearGradient id="linear-gradient-9" x1="370.97" y1="878.87" x2="2905.03" y2="520.23" gradientUnits="userSpaceOnUse"><stop offset="0" stop-color="#298648"/><stop offset="0.01" stop-color="#2a8749"/><stop offset="0.47" stop-color="#5db07d"/><stop offset="0.81" stop-color="#7dc99e"/><stop offset="1" stop-color="#89d3aa"/></linearGradient><linearGradient id="linear-gradient-10" x1="2257" y1="387.09" x2="2797.29" y2="244.53" gradientUnits="userSpaceOnUse"><stop offset="0.14" stop-color="#d0f5f2"/><stop offset="0.91" stop-color="#d0f5f2"/></linearGradient><linearGradient id="linear-gradient-11" x1="330.79" y1="678.61" x2="2790.02" y2="422.77" gradientUnits="userSpaceOnUse"><stop offset="0" stop-color="#2a3f55"/><stop offset="1" stop-color="#293e54"/></linearGradient><linearGradient id="linear-gradient-12" x1="498.95" y1="937.51" x2="3082.15" y2="772.53" gradientUnits="userSpaceOnUse"><stop offset="0" stop-color="#165414"/><stop offset="0.18" stop-color="#195c1e"/><stop offset="0.69" stop-color="#216f35"/><stop offset="1" stop-color="#24763e"/></linearGradient><linearGradient id="linear-gradient-13" x1="1222.88" y1="716.32" x2="1615.39" y2="570.48" gradientUnits="userSpaceOnUse"><stop offset="0" stop-color="#7dfffe"/><stop offset="0.18" stop-color="#9efffe"/><stop offset="0.43" stop-color="#c8ffff"/><stop offset="0.66" stop-color="#e6ffff"/><stop offset="0.86" stop-color="#f8ffff"/><stop offset="1" stop-color="#fff"/></linearGradient><linearGradient id="linear-gradient-14" x1="1362.16" y1="457.74" x2="2457.53" y2="168.72" gradientUnits="userSpaceOnUse"><stop offset="0.14" stop-color="#a3d2e5"/><stop offset="0.15" stop-color="#a5d3e5"/><stop offset="0.46" stop-color="#c2e3ef"/><stop offset="0.72" stop-color="#d5edf4"/><stop offset="0.91" stop-color="#dbf0f6"/></linearGradient><linearGradient id="linear-gradient-15" x1="735.34" y1="442.16" x2="1873.44" y2="141.86" gradientUnits="userSpaceOnUse"><stop offset="0.17" stop-color="#bae1eb"/><stop offset="0.32" stop-color="#c3e5ed"/><stop offset="1" stop-color="#e5f7f7"/></linearGradient><linearGradient id="linear-gradient-16" x1="12.57" y1="545.59" x2="1409.71" y2="176.95" gradientUnits="userSpaceOnUse"><stop offset="0" stop-color="#73bcd2"/><stop offset="0.21" stop-color="#8fc8d9"/><stop offset="0.56" stop-color="#b8dae4"/><stop offset="0.83" stop-color="#d2e5eb"/><stop offset="1" stop-color="#dbe9ed"/></linearGradient><linearGradient id="linear-gradient-17" x1="239.69" y1="358.31" x2="330.45" y2="264.06" gradientUnits="userSpaceOnUse"><stop offset="0.03" stop-color="#94cadb"/><stop offset="0.09" stop-color="#9ecfdf"/><stop offset="0.37" stop-color="#c8e4ec"/><stop offset="0.63" stop-color="#e6f3f7"/><stop offset="0.85" stop-color="#f8fcfd"/><stop offset="1" stop-color="#fff"/></linearGradient><linearGradient id="linear-gradient-18" x1="117.92" y1="272.45" x2="193.82" y2="272.45" xlink:href="#linear-gradient-17"/><linearGradient id="linear-gradient-19" x1="489.02" y1="350.97" x2="555.63" y2="273.56" gradientUnits="userSpaceOnUse"><stop offset="0" stop-color="#94cadb"/><stop offset="0.22" stop-color="#b2d9e5"/><stop offset="0.57" stop-color="#dcedf3"/><stop offset="0.84" stop-color="#f5fafc"/><stop offset="1" stop-color="#fff"/></linearGradient><linearGradient id="linear-gradient-20" x1="836.51" y1="521.06" x2="923.15" y2="395.22" gradientTransform="matrix(0.85, 0, 0, 0.85, 105.75, 80.41)" gradientUnits="userSpaceOnUse"><stop offset="0.08" stop-color="#0f5914"/><stop offset="0.21" stop-color="#14752c"/><stop offset="0.47" stop-color="#1ca454"/><stop offset="0.69" stop-color="#21c672"/><stop offset="0.88" stop-color="#25da84"/><stop offset="1" stop-color="#26e28a"/></linearGradient><linearGradient id="linear-gradient-21" x1="1170.35" y1="520.03" x2="1226.2" y2="438.9" gradientTransform="matrix(1, 0, 0, 1, 0, 0)" xlink:href="#linear-gradient-20"/><linearGradient id="linear-gradient-22" x1="1317.04" y1="581.34" x2="1361.65" y2="516.54" gradientTransform="matrix(0.88, -0.04, 0.04, 0.73, 30.85, 157.28)" gradientUnits="userSpaceOnUse"><stop offset="0.08" stop-color="#158a21"/><stop offset="0.47" stop-color="#16b959"/><stop offset="0.82" stop-color="#18dd83"/><stop offset="1" stop-color="#18eb93"/></linearGradient><linearGradient id="linear-gradient-23" x1="396.36" y1="606.07" x2="616.82" y2="606.07" gradientUnits="userSpaceOnUse"><stop offset="0" stop-color="#7dfffe"/><stop offset="0.08" stop-color="#9dfffe"/><stop offset="0.17" stop-color="#bbfffe"/><stop offset="0.27" stop-color="#d4ffff"/><stop offset="0.39" stop-color="#e7ffff"/><stop offset="0.52" stop-color="#f5ffff"/><stop offset="0.69" stop-color="#fdffff"/><stop offset="1" stop-color="#fff"/></linearGradient><linearGradient id="linear-gradient-24" x1="744.9" y1="548.41" x2="997.91" y2="548.41" xlink:href="#linear-gradient-23"/><linearGradient id="linear-gradient-25" x1="1110.23" y1="534.18" x2="1280.8" y2="534.18" xlink:href="#linear-gradient-23"/><linearGradient id="linear-gradient-26" x1="2246.37" y1="530.22" x2="2328.39" y2="444.02" gradientUnits="userSpaceOnUse"><stop offset="0" stop-color="#298648"/><stop offset="0.16" stop-color="#219e47"/><stop offset="0.55" stop-color="#11d244"/><stop offset="0.84" stop-color="#07f342"/><stop offset="1" stop-color="#03ff41"/></linearGradient><linearGradient id="linear-gradient-27" x1="1691.14" y1="529.75" x2="1716.6" y2="502.99" gradientUnits="userSpaceOnUse"><stop offset="0.13" stop-color="#2e6b51"/><stop offset="0.46" stop-color="#25b87c"/><stop offset="0.72" stop-color="#1ef09c"/></linearGradient><linearGradient id="linear-gradient-28" x1="1660.71" y1="527.73" x2="1696.08" y2="490.55" xlink:href="#linear-gradient-27"/><linearGradient id="linear-gradient-29" x1="1851.06" y1="553.27" x2="2186.92" y2="531.82" xlink:href="#linear-gradient-13"/><linearGradient id="linear-gradient-30" x1="339.08" y1="485.4" x2="425.28" y2="360.2" gradientTransform="matrix(1, 0, 0, 1, 0, 0)" xlink:href="#linear-gradient-20"/><linearGradient id="linear-gradient-31" x1="384" y1="500.05" x2="470.2" y2="374.85" xlink:href="#linear-gradient-22"/><linearGradient id="linear-gradient-32" x1="345.06" y1="363.83" x2="416.8" y2="363.83" xlink:href="#linear-gradient-23"/><linearGradient id="linear-gradient-33" x1="384.66" y1="416.27" x2="452.12" y2="416.27" xlink:href="#linear-gradient-23"/><linearGradient id="linear-gradient-34" x1="823.87" y1="426.67" x2="889.83" y2="426.67" xlink:href="#linear-gradient-23"/><linearGradient id="linear-gradient-35" x1="1173.39" y1="439.21" x2="1195.85" y2="439.21" xlink:href="#linear-gradient-23"/><linearGradient id="linear-gradient-36" x1="1199.76" y1="447.31" x2="1205.89" y2="447.31" xlink:href="#linear-gradient-23"/><linearGradient id="linear-gradient-37" x1="1212.83" y1="474.67" x2="1239.3" y2="474.67" xlink:href="#linear-gradient-23"/></defs><g class="cls-2"><rect class="cls-3" x="137.36" y="12.23" width="2698.66" height="708"/><path class="cls-4" d="M1625.5,99.83s3.63-13.76,49.59-23.18,84.66-14.48,124.57-3.62,31.45,35.5,23,38.39c-16.44,5.63-51.84,13-146.34,5.8C1619.45,112.87,1625.5,99.83,1625.5,99.83Z" transform="translate(139.3 14.09)"/><path class="cls-5" d="M2202.7,220.44s2.27-10.49,31-17.67,52.87-11,77.79-2.76,19.64,27.06,14.35,29.27c-10.26,4.29-32.37,9.92-91.38,4.42C2198.92,230.38,2202.7,220.44,2202.7,220.44Z" transform="translate(139.3 14.09)"/><path class="cls-6" d="M2633,96.76s2.27-10.49,31-17.66,52.86-11,77.79-2.77,19.63,27.06,14.35,29.27c-10.27,4.29-32.38,9.92-91.39,4.42C2629.25,106.7,2633,96.76,2633,96.76Z" transform="translate(139.3 14.09)"/><path class="cls-7" d="M48.82,32.32s8.75-20.91,67.89-34,97.59-19.64,130.11-.14S262.29,51.48,239,56s-119.8,9.4-177.72-3.17C61.32,52.86,40.68,47,48.82,32.32Z" transform="translate(139.3 14.09)"/><path class="cls-8" d="M748.78,57.49s3.84-6,52.53-10,89.68-6.27,132-1.56,33.31,15.36,24.34,16.61c-17.41,2.44-54.91,5.64-155,2.51C742.37,63.13,748.78,57.49,748.78,57.49Z" transform="translate(139.3 14.09)"/><path class="cls-9" d="M0,460.87,1631.6,450s789.05-50,1061.4-67.08l10.94-.69c261.44-16.34-165.45,210.39-165.45,210.39L334.57,758.06-139.3,628Z" transform="translate(139.3 14.09)"/><path class="cls-10" d="M-8.71,437.83S542.41,524,714.85,550.35s287.53,57.21-114.45,55-621.95-42.2-621.95-42.2Z" transform="translate(139.3 14.09)"/><path class="cls-11" d="M334.57,702.91s484.09-34.72,731.24-55.14S1997.21,508,1997.21,508l753.7-117.64,143,312.51L555.17,853Z" transform="translate(139.3 14.09)"/><path class="cls-12" d="M2220.87,347.51s85.24-25.76,225.7-109.28c113.37-67.4,246.43-51.74,246.43-51.74l73.23,17-19.41,167-271.65,20.59Z" transform="translate(139.3 14.09)"/><path class="cls-13" d="M2376.74,277.65s25.3,11.34,102.83-11c54.87-15.85,60.49-22.16,93.64-26.32,0,0,13.79-2.23-30.64,40.24s33.71,1.69,53.62,2.65,41.36,19.92,79.66-3.06c0,0,7.66-9.2,18.38-23S2742,197.87,2742,197.87l-49-11.38s-99.51-7.12-160.73,15.41C2477.11,222.19,2454.88,233.47,2376.74,277.65Z" transform="translate(139.3 14.09)"/><path class="cls-14" d="M2427.58,304.13s14.82-14,47.34-13.93-22.77,28.74-22.77,28.74S2382.64,341.38,2427.58,304.13Z" transform="translate(139.3 14.09)"/><path class="cls-15" d="M2600.79,359.77s9.78-33.49,92.21-35.13c0,0,5.9,24.7-67.7,42.79C2584.78,377.38,2600.79,359.77,2600.79,359.77Z" transform="translate(139.3 14.09)"/><path class="cls-16" d="M206.4,661.55s410.56-26,692.43-17L977,642.66,263.09,712.11Z" transform="translate(139.3 14.09)"/><path class="cls-17" d="M373.38,712.11s-97.1,35.67,756.18-54.71c0,0,706.8-92.36,1396.16-204.19l263.49-39.83-62.81-45.95s-516.25,78.12-879.31,134.8S785.47,667.68,316.7,672.28Z" transform="translate(139.3 14.09)"/><path class="cls-18" d="M515.85,782.57s145.53,6.13,1209.7-100.08S2891.85,658,2891.85,658l167.49,302.3-2590,59.23Z" transform="translate(139.3 14.09)"/><path class="cls-19" d="M418.32,758.06s326.81,32.68,700.59,79.66,1589.11,0,1589.11,0l143,85.79L188,948Z" transform="translate(139.3 14.09)"/><path class="cls-20" d="M-38.7,509.89S35.59,501,88.45,522.15c30.64,12.25-29.12,79.71-29.12,79.71s61.29-75.12,128.69-55.2,55.15,127.15,55.15,127.15H-75.47Z" transform="translate(139.3 14.09)"/><path class="cls-21" d="M0,592.62s215.15,29.86,376.45,107.23C517,767.26,515.85,906.66,515.85,906.66L427,948-34.11,928.11-44.83,572.7Z" transform="translate(139.3 14.09)"/><path class="cls-22" d="M0,592.62S284.53,624.79,324.36,732c0,0-36.76,12.26-107.23,0,0,0,102.64,19.92,116.42,38.3S393.3,879.55,396.36,900v23.51H-20.32V592.62Z" transform="translate(139.3 14.09)"/><path class="cls-23" d="M618,494.49s120.51,49,273.7,50,399.32-8.17,409.53-32.68S618,494.49,618,494.49Z" transform="translate(139.3 14.09)"/><path class="cls-24" d="M1195.51,680s277.79-31.66,418.72-59.24c0,0-63.63-28.59-210.54-8.17C1403.69,612.63,1280.62,636.8,1195.51,680Z" transform="translate(139.3 14.09)"/><path class="cls-25" d="M1203.43,395.06s-5.37-30.19,42.12-9.51,82.73,59.75,82.73,59.75,5.36,9.66-47.49-4S1203.21,401.45,1203.43,395.06Z" transform="translate(139.3 14.09)"/><path class="cls-26" d="M1404.87,219.48s267.58-61.27,388.09-36.76,578,175.66,682.21,208.34L1935.5,440.44l-353.56,7.36S1035.17,384.93,1404.87,219.48Z" transform="translate(139.3 14.09)"/><path class="cls-27" d="M1538.85,192.39s-97.88,16.4-87.92,25.6S1575,221.05,1575,221.05s5.36,9.19-58.22,25.28,62,3.83,91.92-6.9c0,0,3.06,3.26-6.13,14.65s3.83,25.18,61.28,4.5c0,0,28.34-16.08,32.93-19.15,0,0,10,74.3,126.39,81.19,0,0,13-1.2,0-17.07s-16.09-49.12,10-47,35.24,13.56,50.56,15.09-15.32-33.7-15.32-33.7,77.64,15.61,129.44,18.61-86.45-38.87-86.45-38.87-121.71-37.37-160.86-39S1560.13,184.41,1538.85,192.39Z" transform="translate(139.3 14.09)"/><path class="cls-27" d="M1872.7,307.59s3.06-10.51,29.87-9,49,22.22,49,22.22-37.53,12.25-73.53,0C1878.06,320.83,1870.15,318.17,1872.7,307.59Z" transform="translate(139.3 14.09)"/><path class="cls-27" d="M1625.31,308.3s1.53-12.36,24-13.89,43.41,18.39,43.41,18.39-6.56,4.63-46,4.63C1625.31,317.43,1625.31,308.3,1625.31,308.3Z" transform="translate(139.3 14.09)"/><path class="cls-27" d="M2073.23,304.14s.51,7.95,74.55,29.4,144.51,36.25,144.51,36.25-11.23-21.38-129.19-61.5S2073.23,304.14,2073.23,304.14Z" transform="translate(139.3 14.09)"/><path class="cls-28" d="M680.23,142.38s108.26-51.07,290-22.47,649.53,198.85,941.61,329.21l-273.7,18.53,118.6,18.83-316.17,8.61L621,213.87Z" transform="translate(139.3 14.09)"/><path class="cls-27" d="M913.48,259.31s189.09,53.48,70.63-74.18c0,0,158,91.91,201.93,94S1155.68,226,1155.68,226s117.45,71.55,156.26,71.55-67.78-61.09-67.78-61.09,282.24,88.2,315.94,68.8c0,0-221.47-83.48-333.12-117.3S957.92,97.3,809.06,113.45s-169.28,54-169.28,54Z" transform="translate(139.3 14.09)"/><path class="cls-27" d="M1197.4,316.5s83.74,62.3,136.85,70.47-52.49-46.56-113.36-70.47S1197.4,316.5,1197.4,316.5Z" transform="translate(139.3 14.09)"/><path class="cls-27" d="M1341.4,305.88s11.23-11.84,54.13,4.5,73.53,32.07,63.31,36.46S1308.72,335.08,1341.4,305.88Z" transform="translate(139.3 14.09)"/><path class="cls-27" d="M1531.36,338s10.21-12.25,40.85-7.15,95,43.92,95,43.92S1518.08,352.14,1531.36,338Z" transform="translate(139.3 14.09)"/><path class="cls-29" d="M-10.79,304.62S121,198.4,316,137.13,639.77,84,770.49,119.77s468.77,229.78,671,375.83c0,0-192-6.13-215.49-10.22s110.3,24.59,152.17,29.7c0,0-78.62,5.13-426.87-4.06,0,0-297.22,5-450.41-.11,0,0-293.83-25-494.91-44.93S-10.79,304.62-10.79,304.62Z" transform="translate(139.3 14.09)"/><path class="cls-30" d="M202.17,179.38s-81,42.26-91.77,62.94,101.88-22.21,125.62-36,93.45-42.13,107.24-44.43S292.7,212.45,272,228.53s29.87,11.49,68.17-4.59,155.49-50.56,155.49-50.56-76.59,84.26-82,121.79,163.92-89.62,163.92-89.62,13.79-6.12,26.81,16.85,92.68,137.11,183.83,157c0,0,29.1-6.13-5.37-75.69,0,0,20.67,2.92,16.85-17s-38.29-68.93-56.67-82-34.47-45.19-9.2-36.77S956,316.62,976.7,321.21,910.83,240,910.83,240s-3.06-8.42,55.91,25.28,125.62,69.7,144,72-27.57-42.13-27.57-42.13,69.52,28.54,43.19-1.82c0,0-286.76-182.73-450.46-194.34C540.09,89.38,428,81.21,202.17,179.38Z" transform="translate(139.3 14.09)"/><path class="cls-31" d="M374.66,236.44S285,273.72,249,337.3,374.66,236.44,374.66,236.44Z" transform="translate(139.3 14.09)"/><path class="cls-32" d="M190.06,255.34s-66-1-72,29.11c-3.83,19.29,72-22.22,72-22.22S198.52,255.13,190.06,255.34Z" transform="translate(139.3 14.09)"/><path class="cls-33" d="M576.11,241.55s-46.73,50.83-79.66,62.19-13,61.9,33.7,35.86S592.19,241.55,576.11,241.55Z" transform="translate(139.3 14.09)"/><path class="cls-25" d="M882.49,372.53S871.77,352,894,351.91s59,72.71,58.21,85S882.49,372.53,882.49,372.53Z" transform="translate(139.3 14.09)"/><rect class="cls-34" x="847.42" y="513.37" width="10.51" height="25.33" transform="translate(138.15 15.95) rotate(-0.12)"/><path class="cls-35" d="M853.47,525.51s-60.56,10.16-42.07-57.9,49.7-107.51,74.5-33.1c4.73,30.06,12.79,64.25.18,81.18C868.54,528.7,853.47,525.51,853.47,525.51Z" transform="translate(139.3 14.09)"/><rect class="cls-34" x="1191.18" y="513.93" width="7.94" height="19.29" transform="translate(138.16 16.7) rotate(-0.12)"/><path class="cls-36" d="M1195.75,523.18S1150,530.91,1164,479.07s37.53-81.9,56.26-25.22c3.57,22.9,9.66,48.95.13,61.85C1207.13,525.61,1195.75,523.18,1195.75,523.18Z" transform="translate(139.3 14.09)"/><rect class="cls-34" x="1217.92" y="518.5" width="6.67" height="19.29" transform="translate(138.15 16.75) rotate(-0.12)"/><path class="cls-37" d="M1223.69,522.34s-31.78,6.12-23.52-24.5,23.88-48.92,38.64-16.65c3.16,13.17,8.18,28.09,1.89,35.92C1231.72,523.34,1223.69,522.34,1223.69,522.34Z" transform="translate(139.3 14.09)"/><path class="cls-38" d="M396.38,605.21l220.44,14.3S560,600.1,439.27,593C394.33,590.29,396.38,605.21,396.38,605.21Z" transform="translate(139.3 14.09)"/><path class="cls-39" d="M746.67,534.74l251.24,37.79s-94.49-32.46-202.21-46C730.5,518.4,746.67,534.74,746.67,534.74Z" transform="translate(139.3 14.09)"/><path class="cls-40" d="M1110.49,534.74l170.31,13.67s-66-22.18-133.45-28C1104.65,516.78,1110.49,534.74,1110.49,534.74Z" transform="translate(139.3 14.09)"/><path class="cls-41" d="M2582.89,643.61s16.71-18.7,6.37-32C2589.26,611.63,2584.49,637,2582.89,643.61Z" transform="translate(139.3 14.09)"/><path class="cls-41" d="M2574.25,645.71s26.32-41.45-17.55-73.18" transform="translate(139.3 14.09)"/><path class="cls-41" d="M2579.81,652.06s-9.55-41.64-39.78-52.5C2540,599.56,2572.65,634.56,2579.81,652.06Z" transform="translate(139.3 14.09)"/><path class="cls-41" d="M2542.5,641.55s8-25.82-21.88-27.15C2507.1,613.79,2542.5,641.55,2542.5,641.55Z" transform="translate(139.3 14.09)"/><path class="cls-41" d="M2535,643.58s-4.77-19.33-23.07-20.53S2535,643.58,2535,643.58Z" transform="translate(139.3 14.09)"/><path class="cls-19" d="M2595.72,858.37s16.71-18.7,6.37-32C2602.09,826.39,2597.31,851.74,2595.72,858.37Z" transform="translate(139.3 14.09)"/><path class="cls-19" d="M2587.08,860.46s26.32-41.44-17.55-73.17" transform="translate(139.3 14.09)"/><path class="cls-19" d="M2592.64,866.82s-9.55-41.64-39.78-52.5C2552.86,814.32,2585.48,849.32,2592.64,866.82Z" transform="translate(139.3 14.09)"/><path class="cls-19" d="M2520.51,853.59s29-6.47,22.27-23.54C2538,818,2520.51,853.59,2520.51,853.59Z" transform="translate(139.3 14.09)"/><path class="cls-19" d="M2512.87,855.68s16.31-20.52,6-29S2512.87,855.68,2512.87,855.68Z" transform="translate(139.3 14.09)"/><path class="cls-19" d="M2463.7,853.07s28.64-4.83,27.84-18.1S2463.7,853.07,2463.7,853.07Z" transform="translate(139.3 14.09)"/><path class="cls-19" d="M2463.08,851.34c-15.91-31.7,10.12-51.37,6-37.35Z" transform="translate(139.3 14.09)"/><path class="cls-19" d="M2455.24,851.34s8-25.82-21.87-27.15C2419.84,823.58,2455.24,851.34,2455.24,851.34Z" transform="translate(139.3 14.09)"/><path class="cls-19" d="M2444.16,858.34s-4.78-19.33-23.07-20.53S2444.16,858.34,2444.16,858.34Z" transform="translate(139.3 14.09)"/><path class="cls-19" d="M1856.38,868.58s16.71-18.71,6.36-32C1862.74,836.59,1858,861.94,1856.38,868.58Z" transform="translate(139.3 14.09)"/><path class="cls-19" d="M1847.74,870.67s26.32-41.45-17.55-73.18" transform="translate(139.3 14.09)"/><path class="cls-19" d="M1853.3,877s-9.55-41.64-39.78-52.5C1813.52,824.52,1846.14,859.52,1853.3,877Z" transform="translate(139.3 14.09)"/><path class="cls-19" d="M1781.17,863.79s29-6.47,22.27-23.54C1798.67,828.18,1781.17,863.79,1781.17,863.79Z" transform="translate(139.3 14.09)"/><path class="cls-19" d="M1773.53,865.88s16.3-20.52,6-29S1773.53,865.88,1773.53,865.88Z" transform="translate(139.3 14.09)"/><path class="cls-19" d="M729.13,710.31" transform="translate(139.3 14.09)"/><path class="cls-19" d="M737.7,819.6" transform="translate(139.3 14.09)"/><path class="cls-19" d="M643.48,794.53s43.24-2.69,37.41-28.78C676.78,747.29,643.48,794.53,643.48,794.53Z" transform="translate(139.3 14.09)"/><path class="cls-19" d="M632,795.8S660.15,770,647.2,755.48,632,795.8,632,795.8Z" transform="translate(139.3 14.09)"/><path class="cls-19" d="M561.85,780.84s42.31-.42,44.19-19.7S561.85,780.84,561.85,780.84Z" transform="translate(139.3 14.09)"/><path class="cls-19" d="M561.36,778.22C545.7,729,587.63,706.6,578.49,725.84Z" transform="translate(139.3 14.09)"/><path class="cls-19" d="M550.08,776.43s17.44-35.33-25.29-44.06C505.47,728.42,550.08,776.43,550.08,776.43Z" transform="translate(139.3 14.09)"/><path class="cls-19" d="M532.53,784s-2.46-28.9-28.51-34.79S532.53,784,532.53,784Z" transform="translate(139.3 14.09)"/><polygon class="cls-42" points="2201.62 533.84 2228.17 477.16 2248.08 469.86 2231.74 467.46 2253.19 417.93 2267.49 448.06 2256.25 464.91 2270.04 455.71 2320.59 557.33 2201.62 533.84"/><polygon class="cls-43" points="1684.93 522.8 1693.17 505.2 1699.36 502.94 1694.29 502.19 1700.94 486.81 1705.38 496.16 1701.89 501.4 1706.18 498.54 1721.87 530.09 1684.93 522.8"/><polygon class="cls-44" points="1652.08 518.07 1663.54 493.62 1672.13 490.47 1665.08 489.44 1674.33 468.07 1680.5 481.07 1675.65 488.34 1681.6 484.37 1703.4 528.2 1652.08 518.07"/><path class="cls-45" d="M1848.11,577.87s51.27,10.07,181.78,0c108.26-8.36,153.2-35.28,153.2-35.28s-50-59.28-192-30.64C1894.41,531.45,1848.11,577.87,1848.11,577.87Z" transform="translate(139.3 14.09)"/><rect class="cls-34" x="371.23" y="475.99" width="12.25" height="29.77" transform="translate(138.23 14.92) rotate(-0.12)"/><path class="cls-46" d="M378.29,490.26s-70.59,11.94-49-68.07,57.92-126.39,86.82-38.91c5.51,35.34,14.91,75.53.21,95.44C395.85,494,378.29,490.26,378.29,490.26Z" transform="translate(139.3 14.09)"/><rect class="cls-34" x="410.27" y="490.79" width="10.3" height="29.77" transform="matrix(1, 0, 0, 1, 138.2, 15)"/><path class="cls-47" d="M420,505.68s-61.41,11.83-45.44-47.33,46.14-94.52,74.65-32.18c6.11,25.47,15.81,54.29,3.66,69.42C435.52,507.63,420,505.68,420,505.68Z" transform="translate(139.3 14.09)"/><path class="cls-48" d="M345.28,375.59s-3,12.77,13.29,12.77S378,367.43,378,367.43s35.49,35.69,38.82,20.37c0,0-10.06-52.89-36.62-51.74C360.07,336.93,345.28,375.59,345.28,375.59Z" transform="translate(139.3 14.09)"/><path class="cls-49" d="M385.14,427.6s13.35-12.69,30.16-4.77,25.44,21.32,36.82,15c0,0-7.35-35.81-29.74-43.76s-37.72,34.65-37.72,34.65" transform="translate(139.3 14.09)"/><path class="cls-50" d="M825.17,427.93S821,440,827.51,438.2s18-17.34,20.09-24.74,13.31,54.23,42.23,44.87c0,0-5.33-58.44-33-64C837.38,390.4,825.17,427.93,825.17,427.93Z" transform="translate(139.3 14.09)"/><path class="cls-51" d="M1174.84,447.8s6.57-14.15,11.2-18.21,6-5.69,8.91-6-1.61,20.15-10,26.43S1170.52,457.38,1174.84,447.8Z" transform="translate(139.3 14.09)"/><path class="cls-52" d="M1200.87,436.87s-3.68,22.47,2.37,22.22S1203.43,429,1200.87,436.87Z" transform="translate(139.3 14.09)"/><path class="cls-53" d="M1212.83,469.77s3.11,5.4,14.08,5.14c0,0,3.58,0,6,5.11s8.08,8.08,5.9,1.17-10.45-18.72-17.55-16.9S1212.83,469.77,1212.83,469.77Z" transform="translate(139.3 14.09)"/></g></svg>