<svg id="Layer_1" data-name="Layer 1" xmlns="http://www.w3.org/2000/svg" xmlns:xlink="http://www.w3.org/1999/xlink" viewBox="0 0 3135.82 1093.88"><defs><style>.cls-1{fill:none;}.cls-2{clip-path:url(#clip-path);}.cls-3{fill:url(#linear-gradient);}.cls-4{fill:url(#linear-gradient-2);}.cls-5{fill:url(#linear-gradient-3);}.cls-6{fill:#6cbd46;}.cls-7{fill:url(#linear-gradient-4);}.cls-8{fill:url(#linear-gradient-5);}.cls-9{fill:url(#linear-gradient-6);}.cls-10{fill:url(#linear-gradient-7);}.cls-11{fill:url(#linear-gradient-8);}.cls-12{fill:url(#linear-gradient-9);}.cls-13{fill:url(#linear-gradient-10);}.cls-14{fill:url(#linear-gradient-11);}.cls-15{fill:#995145;}.cls-16{fill:#633d35;}.cls-17{fill:url(#linear-gradient-12);}.cls-18{fill:#6abc46;}.cls-19{fill:url(#linear-gradient-13);}.cls-20{fill:url(#linear-gradient-14);}.cls-21{fill:url(#linear-gradient-15);}.cls-22{fill:url(#linear-gradient-16);}.cls-23{fill:url(#linear-gradient-17);}.cls-24{fill:url(#linear-gradient-18);}.cls-25{fill:url(#linear-gradient-19);}.cls-26{fill:url(#linear-gradient-20);}.cls-27{fill:url(#linear-gradient-21);}.cls-28{fill:url(#linear-gradient-22);}.cls-29{fill:url(#linear-gradient-23);}.cls-30{fill:url(#linear-gradient-24);}.cls-31{fill:url(#linear-gradient-25);}.cls-32{fill:url(#linear-gradient-26);}.cls-33{fill:url(#linear-gradient-27);}.cls-34{fill:url(#linear-gradient-28);}.cls-35{fill:url(#linear-gradient-29);}.cls-36{fill:url(#linear-gradient-30);}.cls-37{fill:url(#linear-gradient-31);}.cls-38{fill:url(#linear-gradient-32);}.cls-39{fill:url(#linear-gradient-33);}.cls-40{fill:url(#linear-gradient-34);}.cls-41{fill:url(#linear-gradient-35);}.cls-42{fill:url(#linear-gradient-36);}.cls-43{fill:url(#linear-gradient-37);}.cls-44{fill:url(#linear-gradient-38);}.cls-45{fill:url(#linear-gradient-39);}.cls-46{fill:url(#linear-gradient-40);}.cls-47{fill:url(#linear-gradient-41);}.cls-48{fill:url(#linear-gradient-42);}.cls-49{fill:url(#linear-gradient-43);}.cls-50{fill:url(#linear-gradient-44);}.cls-51{fill:url(#linear-gradient-45);}.cls-52{fill:url(#linear-gradient-46);}.cls-53{fill:url(#linear-gradient-47);}.cls-54{fill:url(#linear-gradient-48);}.cls-55{fill:url(#linear-gradient-49);}.cls-56{fill:url(#linear-gradient-50);}.cls-57{fill:url(#linear-gradient-51);}.cls-58{fill:url(#linear-gradient-52);}.cls-59{fill:url(#linear-gradient-53);}.cls-60{fill:url(#linear-gradient-54);}.cls-61{fill:url(#linear-gradient-55);}.cls-62{fill:#022602;}.cls-63{fill:#412210;}.cls-64{fill:url(#linear-gradient-56);}.cls-65{fill:url(#linear-gradient-57);}.cls-66{fill:url(#linear-gradient-58);}.cls-67{fill:url(#linear-gradient-59);}.cls-68{fill:url(#linear-gradient-60);}.cls-69{fill:url(#linear-gradient-61);}.cls-70{fill:url(#linear-gradient-62);}.cls-71{fill:url(#linear-gradient-63);}.cls-72{fill:url(#linear-gradient-64);}.cls-73{fill:url(#linear-gradient-65);}.cls-74{fill:url(#linear-gradient-66);}.cls-75{fill:url(#linear-gradient-67);}.cls-76{fill:url(#linear-gradient-68);}.cls-77{fill:url(#linear-gradient-69);}.cls-78{fill:url(#linear-gradient-70);}.cls-79{fill:url(#linear-gradient-71);}.cls-80{fill:url(#linear-gradient-72);}.cls-81{fill:url(#linear-gradient-73);}.cls-82{fill:url(#linear-gradient-74);}.cls-83{fill:url(#linear-gradient-75);}.cls-84{fill:url(#linear-gradient-76);}.cls-85{fill:url(#linear-gradient-77);}.cls-86{fill:url(#linear-gradient-78);}.cls-87{fill:url(#linear-gradient-79);}.cls-88{fill:url(#linear-gradient-80);}.cls-89{fill:url(#linear-gradient-81);}.cls-90{fill:url(#linear-gradient-82);}.cls-91{fill:url(#linear-gradient-83);}.cls-92{fill:url(#linear-gradient-84);}.cls-93{fill:url(#linear-gradient-85);}.cls-94{fill:url(#linear-gradient-86);}.cls-95{fill:url(#linear-gradient-87);}.cls-96{fill:url(#linear-gradient-88);}.cls-97{fill:url(#linear-gradient-89);}.cls-98{fill:url(#linear-gradient-90);}.cls-99{fill:url(#linear-gradient-91);}.cls-100{fill:url(#linear-gradient-92);}.cls-101{fill:url(#linear-gradient-93);}.cls-102{fill:#3fb72c;}.cls-103{fill:url(#linear-gradient-94);}.cls-104{fill:#51b840;}.cls-105{fill:#011904;}.cls-106{fill:#162d16;}.cls-107{fill:url(#linear-gradient-95);}.cls-108{fill:url(#linear-gradient-96);}.cls-109{fill:url(#linear-gradient-97);}.cls-110{fill:url(#linear-gradient-98);}</style><clipPath id="clip-path" transform="translate(135.01 172.47)"><rect class="cls-1" width="2693" height="900"/></clipPath><linearGradient id="linear-gradient" x1="1491.19" y1="1206.73" x2="1459.16" y2="-728.76" gradientUnits="userSpaceOnUse"><stop offset="0.09" stop-color="#cbe9f6"/><stop offset="0.24" stop-color="#cfe8f3"/><stop offset="0.36" stop-color="#9cd6e9"/><stop offset="0.46" stop-color="#7acae2"/><stop offset="0.51" stop-color="#6dc5e0"/></linearGradient><linearGradient id="linear-gradient-2" x1="478.45" y1="854.22" x2="2114.64" y2="206.29" gradientUnits="userSpaceOnUse"><stop offset="0.09" stop-color="#6ec0d3"/><stop offset="0.45" stop-color="#6cc0d3"/><stop offset="0.62" stop-color="#6dc1d5"/><stop offset="0.69" stop-color="#72c5dc"/><stop offset="0.72" stop-color="#78c9e3"/></linearGradient><linearGradient id="linear-gradient-3" x1="837.97" y1="438.5" x2="843.21" y2="340.63" gradientUnits="userSpaceOnUse"><stop offset="0.05" stop-color="#6b8f51"/><stop offset="0.08" stop-color="#698f52"/><stop offset="0.46" stop-color="#548e5b"/><stop offset="0.7" stop-color="#4c8d5f"/><stop offset="0.73" stop-color="#44875f"/><stop offset="0.82" stop-color="#2b755e"/><stop offset="0.91" stop-color="#1c6b5e"/><stop offset="0.97" stop-color="#17675e"/></linearGradient><linearGradient id="linear-gradient-4" x1="836.32" y1="353.59" x2="867.76" y2="337.69" gradientUnits="userSpaceOnUse"><stop offset="0" stop-color="#1fa788"/><stop offset="1" stop-color="#14aa91"/></linearGradient><linearGradient id="linear-gradient-5" x1="822.49" y1="378.64" x2="848.09" y2="333.16" gradientUnits="userSpaceOnUse"><stop offset="0" stop-color="#16a16f"/><stop offset="0.91" stop-color="#129c70"/><stop offset="0.97" stop-color="#129b70"/></linearGradient><linearGradient id="linear-gradient-6" x1="851.9" y1="372.51" x2="885.43" y2="355.83" gradientUnits="userSpaceOnUse"><stop offset="0.01" stop-color="#288c5d"/><stop offset="0.27" stop-color="#2c8e5c"/><stop offset="0.5" stop-color="#379258"/><stop offset="0.73" stop-color="#499a52"/><stop offset="0.95" stop-color="#63a54a"/><stop offset="1" stop-color="#6aa848"/></linearGradient><linearGradient id="linear-gradient-7" x1="803.64" y1="366.35" x2="819.38" y2="358.32" gradientUnits="userSpaceOnUse"><stop offset="0" stop-color="#20866b"/><stop offset="0.23" stop-color="#248869"/><stop offset="0.44" stop-color="#2f8d65"/><stop offset="0.64" stop-color="#41965d"/><stop offset="0.83" stop-color="#5ba352"/><stop offset="1" stop-color="#78b145"/></linearGradient><linearGradient id="linear-gradient-8" x1="803.82" y1="368.93" x2="822.27" y2="361.22" gradientUnits="userSpaceOnUse"><stop offset="0" stop-color="#2b8c59"/><stop offset="0.27" stop-color="#2f8e58"/><stop offset="0.52" stop-color="#3a9254"/><stop offset="0.76" stop-color="#4c9a4e"/><stop offset="0.99" stop-color="#66a545"/><stop offset="1" stop-color="#67a545"/></linearGradient><linearGradient id="linear-gradient-9" x1="1326.58" y1="-200.37" x2="2601.65" y2="821.57" gradientUnits="userSpaceOnUse"><stop offset="0.49" stop-color="#93d4eb"/><stop offset="0.57" stop-color="#8dd1e8"/><stop offset="0.67" stop-color="#7dc9df"/><stop offset="0.74" stop-color="#6ec2d6"/><stop offset="0.88" stop-color="#6fc2d7"/></linearGradient><linearGradient id="linear-gradient-10" x1="947.08" y1="-252.36" x2="907.78" y2="989.91" gradientUnits="userSpaceOnUse"><stop offset="0.09" stop-color="#60c6ca"/><stop offset="0.24" stop-color="#59bfc1"/><stop offset="0.55" stop-color="#57bfbf"/><stop offset="0.64" stop-color="#5fc3c6"/><stop offset="0.7" stop-color="#67c7cc"/></linearGradient><linearGradient id="linear-gradient-11" x1="1017.31" y1="656.47" x2="1057.68" y2="490.26" gradientUnits="userSpaceOnUse"><stop offset="0" stop-color="#82533e"/><stop offset="0.38" stop-color="#585440"/><stop offset="0.52" stop-color="#485441"/></linearGradient><linearGradient id="linear-gradient-12" x1="1088.86" y1="520.57" x2="1137.4" y2="470.17" gradientUnits="userSpaceOnUse"><stop offset="0" stop-color="#0d5f3f"/><stop offset="0.16" stop-color="#06724b"/><stop offset="0.28" stop-color="#008355"/><stop offset="0.42" stop-color="#24985c"/><stop offset="0.56" stop-color="#43a961"/><stop offset="0.68" stop-color="#56b465"/><stop offset="0.76" stop-color="#5db866"/></linearGradient><linearGradient id="linear-gradient-13" x1="991.51" y1="543.69" x2="1103.51" y2="418.12" gradientUnits="userSpaceOnUse"><stop offset="0" stop-color="#0d5f3f"/><stop offset="0.27" stop-color="#157d66"/><stop offset="0.43" stop-color="#198a77"/><stop offset="0.76" stop-color="#1fa98a"/></linearGradient><linearGradient id="linear-gradient-14" x1="946.21" y1="562.78" x2="998.41" y2="497.67" gradientUnits="userSpaceOnUse"><stop offset="0" stop-color="#0d5f3f"/><stop offset="0.33" stop-color="#0c7151"/><stop offset="0.34" stop-color="#0c7151"/><stop offset="0.76" stop-color="#077458"/></linearGradient><linearGradient id="linear-gradient-15" x1="946.21" y1="563.5" x2="998.41" y2="498.39" gradientUnits="userSpaceOnUse"><stop offset="0.04" stop-color="#0d5e3f"/><stop offset="0.45" stop-color="#0d6f4f"/><stop offset="0.62" stop-color="#0b7455"/><stop offset="0.75" stop-color="#077b5e"/></linearGradient><linearGradient id="linear-gradient-16" x1="4152.5" y1="531.53" x2="4115.04" y2="455.6" gradientTransform="matrix(-1, 0, 0, 1, 5274.86, 0)" gradientUnits="userSpaceOnUse"><stop offset="0" stop-color="#0d5f3f"/><stop offset="0.05" stop-color="#06724b"/><stop offset="0.09" stop-color="#008355"/><stop offset="0.26" stop-color="#24985c"/><stop offset="0.43" stop-color="#43a961"/><stop offset="0.57" stop-color="#56b465"/><stop offset="0.67" stop-color="#5db866"/></linearGradient><linearGradient id="linear-gradient-17" x1="859.75" y1="507.46" x2="1401.41" y2="507.46" gradientUnits="userSpaceOnUse"><stop offset="0" stop-color="#0d5f3f"/><stop offset="0.06" stop-color="#06724c"/><stop offset="0.09" stop-color="#008055"/><stop offset="0.12" stop-color="#038159"/><stop offset="0.3" stop-color="#188672"/><stop offset="0.31" stop-color="#208a77"/><stop offset="0.39" stop-color="#63ada0"/><stop offset="0.46" stop-color="#9bcac2"/><stop offset="0.53" stop-color="#c6e1dc"/><stop offset="0.59" stop-color="#e5f2ef"/><stop offset="0.64" stop-color="#f8fbfb"/><stop offset="0.67" stop-color="#fff"/></linearGradient><linearGradient id="linear-gradient-18" x1="866.51" y1="521.95" x2="1286.3" y2="492.9" gradientUnits="userSpaceOnUse"><stop offset="0.23" stop-color="#12704f"/><stop offset="0.44" stop-color="#12704f"/><stop offset="0.54" stop-color="#2e8a5b"/><stop offset="0.71" stop-color="#56af6d"/><stop offset="0.8" stop-color="#66be74"/></linearGradient><linearGradient id="linear-gradient-19" x1="400.02" y1="971.33" x2="1583.27" y2="205.19" gradientUnits="userSpaceOnUse"><stop offset="0.09" stop-color="#249971"/><stop offset="0.29" stop-color="#21a57d"/><stop offset="0.45" stop-color="#1db28a"/><stop offset="0.64" stop-color="#1fb38c"/><stop offset="0.71" stop-color="#26b692"/><stop offset="0.73" stop-color="#29b895"/></linearGradient><linearGradient id="linear-gradient-20" x1="2177.61" y1="659.93" x2="2188.15" y2="463.3" xlink:href="#linear-gradient-3"/><linearGradient id="linear-gradient-21" x1="2175.97" y1="486.77" x2="2229.96" y2="459.48" xlink:href="#linear-gradient-4"/><linearGradient id="linear-gradient-22" x1="2151.17" y1="533.57" x2="2197.15" y2="451.92" xlink:href="#linear-gradient-5"/><linearGradient id="linear-gradient-23" x1="2202.48" y1="524.31" x2="2260.84" y2="495.27" xlink:href="#linear-gradient-6"/><linearGradient id="linear-gradient-24" x1="2119.24" y1="513.79" x2="2146.69" y2="499.79" xlink:href="#linear-gradient-7"/><linearGradient id="linear-gradient-25" x1="2119.61" y1="518.98" x2="2151.85" y2="505.5" xlink:href="#linear-gradient-8"/><linearGradient id="linear-gradient-26" x1="141.16" y1="647.93" x2="297.86" y2="2.76" gradientUnits="userSpaceOnUse"><stop offset="0" stop-color="#a5533d"/><stop offset="0.24" stop-color="#7b533f"/><stop offset="0.55" stop-color="#415441"/></linearGradient><linearGradient id="linear-gradient-27" x1="396.59" y1="99.76" x2="565.13" y2="-75.23" xlink:href="#linear-gradient-12"/><linearGradient id="linear-gradient-28" x1="63.17" y1="172.34" x2="454.44" y2="-266.32" xlink:href="#linear-gradient-13"/><linearGradient id="linear-gradient-29" x1="-84.99" y1="260.73" x2="99.92" y2="30.13" xlink:href="#linear-gradient-14"/><linearGradient id="linear-gradient-30" x1="-84.99" y1="263.6" x2="99.92" y2="33" xlink:href="#linear-gradient-15"/><linearGradient id="linear-gradient-31" x1="4768.64" y1="146.34" x2="4628.95" y2="-136.81" xlink:href="#linear-gradient-16"/><linearGradient id="linear-gradient-32" x1="8.02" y1="55.99" x2="591.78" y2="55.99" gradientUnits="userSpaceOnUse"><stop offset="0" stop-color="#0d5f3f"/><stop offset="0.06" stop-color="#06724c"/><stop offset="0.09" stop-color="#008055"/><stop offset="0.23" stop-color="#1b9261"/><stop offset="0.41" stop-color="#3aa66f"/><stop offset="0.57" stop-color="#4db378"/><stop offset="0.67" stop-color="#54b77b"/></linearGradient><linearGradient id="linear-gradient-33" x1="-35.87" y1="83.46" x2="655.76" y2="35.6" gradientUnits="userSpaceOnUse"><stop offset="0.21" stop-color="#0e6747"/><stop offset="0.35" stop-color="#157a55"/><stop offset="0.55" stop-color="#20996c"/><stop offset="0.61" stop-color="#2b9f6d"/><stop offset="0.71" stop-color="#48ae71"/><stop offset="0.8" stop-color="#66be74"/></linearGradient><linearGradient id="linear-gradient-34" x1="2486.77" y1="666.06" x2="2622.19" y2="108.49" xlink:href="#linear-gradient-26"/><linearGradient id="linear-gradient-35" x1="2726.8" y1="210.18" x2="2889.63" y2="41.12" xlink:href="#linear-gradient-12"/><linearGradient id="linear-gradient-36" x1="2400.22" y1="287.73" x2="2775.93" y2="-133.49" xlink:href="#linear-gradient-13"/><linearGradient id="linear-gradient-37" x1="2248.27" y1="351.77" x2="2423.39" y2="133.36" xlink:href="#linear-gradient-14"/><linearGradient id="linear-gradient-38" x1="2248.27" y1="354.18" x2="2423.39" y2="135.77" xlink:href="#linear-gradient-15"/><linearGradient id="linear-gradient-39" x1="2435.68" y1="246.95" x2="2310.01" y2="-7.78" xlink:href="#linear-gradient-16"/><linearGradient id="linear-gradient-40" x1="2336.72" y1="166.2" x2="2920.49" y2="166.2" xlink:href="#linear-gradient-32"/><linearGradient id="linear-gradient-41" x1="2293.32" y1="193.17" x2="2985.22" y2="145.3" xlink:href="#linear-gradient-33"/><linearGradient id="linear-gradient-42" x1="1759.52" y1="651.84" x2="1822.98" y2="390.58" xlink:href="#linear-gradient-26"/><linearGradient id="linear-gradient-43" x1="1871.99" y1="438.23" x2="1948.29" y2="359.01" xlink:href="#linear-gradient-12"/><linearGradient id="linear-gradient-44" x1="1718.96" y1="474.56" x2="1895.02" y2="277.19" xlink:href="#linear-gradient-13"/><linearGradient id="linear-gradient-45" x1="1647.76" y1="504.57" x2="1729.82" y2="402.23" xlink:href="#linear-gradient-14"/><linearGradient id="linear-gradient-46" x1="1647.76" y1="505.7" x2="1729.82" y2="403.36" xlink:href="#linear-gradient-15"/><linearGradient id="linear-gradient-47" x1="3350.21" y1="455.45" x2="3291.32" y2="336.09" xlink:href="#linear-gradient-16"/><linearGradient id="linear-gradient-48" x1="1689.21" y1="417.61" x2="1962.75" y2="417.61" xlink:href="#linear-gradient-32"/><linearGradient id="linear-gradient-49" x1="1668.87" y1="430.26" x2="1993.09" y2="407.82" xlink:href="#linear-gradient-33"/><linearGradient id="linear-gradient-50" x1="-138.43" y1="720.99" x2="676.41" y2="310.61" gradientUnits="userSpaceOnUse"><stop offset="0.13" stop-color="#16595a"/><stop offset="0.21" stop-color="#226456"/><stop offset="0.34" stop-color="#3c7c4c"/><stop offset="0.34" stop-color="#3c7c4c"/><stop offset="0.55" stop-color="#4c8648"/><stop offset="0.72" stop-color="#528a46"/></linearGradient><linearGradient id="linear-gradient-51" x1="1373.44" y1="943.67" x2="2795.05" y2="227.7" gradientTransform="translate(-0.46 0.61)" gradientUnits="userSpaceOnUse"><stop offset="0.1" stop-color="#177e70"/><stop offset="0.34" stop-color="#178877"/><stop offset="0.5" stop-color="#169078"/><stop offset="0.72" stop-color="#169679"/></linearGradient><linearGradient id="linear-gradient-52" x1="2061.4" y1="891.12" x2="2951.46" y2="442.85" gradientUnits="userSpaceOnUse"><stop offset="0.09" stop-color="#258363"/><stop offset="0.34" stop-color="#248363"/><stop offset="0.34" stop-color="#248363"/><stop offset="0.56" stop-color="#209364"/><stop offset="0.73" stop-color="#1f9964"/></linearGradient><linearGradient id="linear-gradient-53" x1="-20.65" y1="803.55" x2="2718.05" y2="803.55" gradientUnits="userSpaceOnUse"><stop offset="0.19" stop-color="#4ea40f"/><stop offset="0.21" stop-color="#4ca40f"/><stop offset="0.66" stop-color="#2c9b0a"/><stop offset="0.91" stop-color="#209808"/></linearGradient><linearGradient id="linear-gradient-54" x1="-1.83" y1="764.04" x2="2774.59" y2="764.04" gradientUnits="userSpaceOnUse"><stop offset="0.19" stop-color="#2a7717"/><stop offset="0.21" stop-color="#2a7a19"/><stop offset="0.44" stop-color="#2c9327"/><stop offset="0.66" stop-color="#2da22f"/><stop offset="0.83" stop-color="#2da732"/></linearGradient><linearGradient id="linear-gradient-55" x1="95.06" y1="873.07" x2="3017.63" y2="862.46" gradientUnits="userSpaceOnUse"><stop offset="0.18" stop-color="#193748"/><stop offset="0.25" stop-color="#223d4f"/><stop offset="0.47" stop-color="#3b4d63"/><stop offset="0.67" stop-color="#4a576f"/><stop offset="0.83" stop-color="#4f5a73"/></linearGradient><linearGradient id="linear-gradient-56" x1="1459.28" y1="916.73" x2="1454.65" y2="702.35" gradientUnits="userSpaceOnUse"><stop offset="0.09" stop-color="#4a2d06"/><stop offset="0.28" stop-color="#562f06"/><stop offset="0.45" stop-color="#643106"/><stop offset="0.71" stop-color="#623007"/><stop offset="0.8" stop-color="#5b2c0a"/><stop offset="0.86" stop-color="#50260f"/><stop offset="0.89" stop-color="#482213"/></linearGradient><linearGradient id="linear-gradient-57" x1="1506.03" y1="916.73" x2="1501.41" y2="702.35" xlink:href="#linear-gradient-56"/><linearGradient id="linear-gradient-58" x1="1561.05" y1="916.73" x2="1556.42" y2="702.35" xlink:href="#linear-gradient-56"/><linearGradient id="linear-gradient-59" x1="1610.12" y1="916.73" x2="1605.5" y2="702.35" xlink:href="#linear-gradient-56"/><linearGradient id="linear-gradient-60" x1="1656.88" y1="916.73" x2="1652.25" y2="702.35" xlink:href="#linear-gradient-56"/><linearGradient id="linear-gradient-61" x1="1711.89" y1="916.73" x2="1707.27" y2="702.35" xlink:href="#linear-gradient-56"/><linearGradient id="linear-gradient-62" x1="1771.61" y1="916.73" x2="1766.99" y2="702.35" xlink:href="#linear-gradient-56"/><linearGradient id="linear-gradient-63" x1="1818.37" y1="916.73" x2="1813.75" y2="702.35" xlink:href="#linear-gradient-56"/><linearGradient id="linear-gradient-64" x1="1873.39" y1="916.73" x2="1868.76" y2="702.35" xlink:href="#linear-gradient-56"/><linearGradient id="linear-gradient-65" x1="1922.46" y1="916.73" x2="1917.83" y2="702.35" xlink:href="#linear-gradient-56"/><linearGradient id="linear-gradient-66" x1="1969.22" y1="916.73" x2="1964.59" y2="702.35" xlink:href="#linear-gradient-56"/><linearGradient id="linear-gradient-67" x1="2024.23" y1="916.73" x2="2019.61" y2="702.35" xlink:href="#linear-gradient-56"/><linearGradient id="linear-gradient-68" x1="2095.19" y1="916.73" x2="2090.57" y2="702.35" xlink:href="#linear-gradient-56"/><linearGradient id="linear-gradient-69" x1="2141.95" y1="916.73" x2="2137.32" y2="702.35" xlink:href="#linear-gradient-56"/><linearGradient id="linear-gradient-70" x1="2196.96" y1="916.73" x2="2192.34" y2="702.35" xlink:href="#linear-gradient-56"/><linearGradient id="linear-gradient-71" x1="2246.04" y1="916.73" x2="2241.41" y2="702.35" xlink:href="#linear-gradient-56"/><linearGradient id="linear-gradient-72" x1="2292.79" y1="916.73" x2="2288.17" y2="702.35" xlink:href="#linear-gradient-56"/><linearGradient id="linear-gradient-73" x1="2347.81" y1="916.73" x2="2343.18" y2="702.35" xlink:href="#linear-gradient-56"/><linearGradient id="linear-gradient-74" x1="2404.59" y1="916.73" x2="2399.97" y2="702.35" xlink:href="#linear-gradient-56"/><linearGradient id="linear-gradient-75" x1="2451.35" y1="916.73" x2="2446.72" y2="702.35" xlink:href="#linear-gradient-56"/><linearGradient id="linear-gradient-76" x1="2506.36" y1="916.73" x2="2501.74" y2="702.35" xlink:href="#linear-gradient-56"/><linearGradient id="linear-gradient-77" x1="2555.43" y1="916.73" x2="2550.81" y2="702.35" xlink:href="#linear-gradient-56"/><linearGradient id="linear-gradient-78" x1="2602.19" y1="916.73" x2="2597.57" y2="702.35" xlink:href="#linear-gradient-56"/><linearGradient id="linear-gradient-79" x1="2657.21" y1="916.73" x2="2652.58" y2="702.35" xlink:href="#linear-gradient-56"/><linearGradient id="linear-gradient-80" x1="2721.9" y1="916.73" x2="2717.28" y2="702.35" xlink:href="#linear-gradient-56"/><linearGradient id="linear-gradient-81" x1="2788.78" y1="916.73" x2="2784.15" y2="702.35" xlink:href="#linear-gradient-56"/><linearGradient id="linear-gradient-82" x1="133.62" y1="915.65" x2="129" y2="701.27" xlink:href="#linear-gradient-56"/><linearGradient id="linear-gradient-83" x1="188.64" y1="915.65" x2="184.01" y2="701.27" xlink:href="#linear-gradient-56"/><linearGradient id="linear-gradient-84" x1="245.42" y1="915.65" x2="240.8" y2="701.27" xlink:href="#linear-gradient-56"/><linearGradient id="linear-gradient-85" x1="292.18" y1="915.65" x2="287.55" y2="701.27" xlink:href="#linear-gradient-56"/><linearGradient id="linear-gradient-86" x1="347.19" y1="915.65" x2="342.57" y2="701.27" xlink:href="#linear-gradient-56"/><linearGradient id="linear-gradient-87" x1="396.27" y1="915.65" x2="391.64" y2="701.27" xlink:href="#linear-gradient-56"/><linearGradient id="linear-gradient-88" x1="443.02" y1="915.65" x2="438.4" y2="701.27" xlink:href="#linear-gradient-56"/><linearGradient id="linear-gradient-89" x1="498.04" y1="915.65" x2="493.41" y2="701.27" xlink:href="#linear-gradient-56"/><linearGradient id="linear-gradient-90" x1="562.73" y1="915.65" x2="558.11" y2="701.27" xlink:href="#linear-gradient-56"/><linearGradient id="linear-gradient-91" x1="629.61" y1="915.65" x2="624.99" y2="701.27" xlink:href="#linear-gradient-56"/><linearGradient id="linear-gradient-92" x1="219.71" y1="761.26" x2="371.4" y2="638.77" gradientUnits="userSpaceOnUse"><stop offset="0" stop-color="#3b2416"/><stop offset="0.08" stop-color="#4d3019"/><stop offset="0.24" stop-color="#6d431f"/><stop offset="0.41" stop-color="#865223"/><stop offset="0.59" stop-color="#975d27"/><stop offset="0.78" stop-color="#a26428"/><stop offset="1" stop-color="#a56629"/></linearGradient><linearGradient id="linear-gradient-93" x1="343.33" y1="739.01" x2="424.92" y2="739.01" xlink:href="#linear-gradient-92"/><linearGradient id="linear-gradient-94" x1="1886.95" y1="739.08" x2="1886.95" y2="739.08" xlink:href="#linear-gradient-92"/><linearGradient id="linear-gradient-95" x1="1598.02" y1="179.7" x2="1721.18" y2="-54.84" gradientUnits="userSpaceOnUse"><stop offset="0.07" stop-color="#81ccd8"/><stop offset="0.24" stop-color="#99d6e0"/><stop offset="0.54" stop-color="#ceedf1"/></linearGradient><linearGradient id="linear-gradient-96" x1="2080.87" y1="89.21" x2="2204.03" y2="-145.33" xlink:href="#linear-gradient-95"/><linearGradient id="linear-gradient-97" x1="916.09" y1="129.97" x2="1002.31" y2="-34.23" gradientUnits="userSpaceOnUse"><stop offset="0.15" stop-color="#95d1da"/><stop offset="0.27" stop-color="#b1dfe6"/><stop offset="0.39" stop-color="#c4e9ef"/><stop offset="0.47" stop-color="#cbedf2"/></linearGradient><linearGradient id="linear-gradient-98" x1="792.12" y1="110.32" x2="882.52" y2="-61.85" gradientUnits="userSpaceOnUse"><stop offset="0.01" stop-color="#8ad4ec"/><stop offset="0.59" stop-color="#c3e9f5"/><stop offset="0.76" stop-color="#d4eff8"/></linearGradient></defs><g class="cls-2"><rect class="cls-3" x="135.01" y="172.47" width="2693" height="898.38"/><path class="cls-4" d="M-80.49,395.49A911.14,911.14,0,0,1,99.45,366.88c47.35-2.72,150-7.82,274.27,24.33C492.63,422,500.05,452.9,558,442.63c57.27-10.17,70.67-44.08,181.95-115.14,58.09-37.1,108.58-62.44,131.47-73,141.32-65.32,281.52-54.84,329.37-49.71,31.71,3.4,200.75,23.87,359.6,156.1A704.16,704.16,0,0,1,1718.77,549a924.9,924.9,0,0,1,242.71-100.93c20.53-5.26,184.31-47.2,202.82-8,14.94,31.65-78.65,86.69-64.35,118.81,18,40.43,187.09-2,243.87-11.7C2493,521.77,2606.89,464.92,2678.2,422c273.26-164,14.8-8.63,14.8-8.63q3.08,120.78,6.14,241.57L0,652.08Z" transform="translate(135.01 172.47)"/><path class="cls-5" d="M867.69,365.19c-2.37,3.83-10,6.44-13.71,3.81a1.53,1.53,0,0,0-1.75-.21c-5.56,1.48-5.32,5.87-5.32,5.87,5.35,38.3,1.72,61.26,1.72,61.26H831.87c-2.16-12.1.24-38,1-45.57.19-2-.63-10.94-.63-10.94s-1.27-5.79-2.3-7.29a17.48,17.48,0,0,0-4-4c-13.95-.54-9-1.94-9-1.94.72.5,8.64,0,9.36-.38s-3.08-10.48-3.08-10.48h2.69c.41,3.12,3.26,10.68,3.26,10.68,2,.73,4.82-9.87,4.82-9.87h2.69s-4.52,8.46-2.57,7.66,5.06-6.91,5.06-6.91h2.07s-3.22,7-6,8.62-1,2.59-1,2.59c8.32,3.23,8.39-11.21,8.39-11.21H844c-.92,7.35.42,10.42.42,10.42,7,1.09,8.69-10.42,8.69-10.42l2.28-.75c.26,3.22-1.77,9.37-1.77,9.37s.92,2.52,4.62,2.62c2.21.06,5.55-4.28,6.47-5Z" transform="translate(135.01 172.47)"/><path class="cls-6" d="M868.13,346.59s-4.21-8.35-19.8-7.25-23,8.23,7.92,9.58C856.25,348.92,870.6,351.37,868.13,346.59Z" transform="translate(135.01 172.47)"/><path class="cls-7" d="M868.13,346.88s-4.26-8.35-20-7.24-23.3,8.22,8,9.57C856.1,349.21,870.63,351.67,868.13,346.88Z" transform="translate(135.01 172.47)"/><path class="cls-6" d="M813.18,354.63s7.24,1.59,29.18,2.44c21,.82,21.49-2.79,21.49-2.79s4.57-8.3-14.39-10.79C832,341.19,800,347.64,813.18,354.63Z" transform="translate(135.01 172.47)"/><path class="cls-8" d="M813.18,355s7.24,1.61,29.18,2.47c21,.82,21.49-2.82,21.49-2.82s4.57-8.36-14.39-10.88C832,341.5,800,348,813.18,355Z" transform="translate(135.01 172.47)"/><path class="cls-6" d="M859.31,364.85s13,1.39,24.09,0,4-8.25,0-9.08c-4.19-.87-14-1.22-25.57,4.85C850.42,364.49,859.31,364.85,859.31,364.85Z" transform="translate(135.01 172.47)"/><path class="cls-9" d="M859.22,364.87s12.91,1.34,23.87,0,4-8,0-8.8c-4.16-.84-13.85-1.18-25.35,4.7C850.4,364.52,859.22,364.87,859.22,364.87Z" transform="translate(135.01 172.47)"/><path class="cls-10" d="M814,360.81s-8.77-2.06-9.9,2.63c-.34,1.38,1.58,1.81,5.2,1.86C812.51,365.35,824.33,362.57,814,360.81Z" transform="translate(135.01 172.47)"/><path class="cls-6" d="M805.2,366.86a24.39,24.39,0,0,0,13.14-.56c4-1.23,3.14-5-1-5S801.38,364.27,805.2,366.86Z" transform="translate(135.01 172.47)"/><path class="cls-11" d="M804.85,367.23a24.8,24.8,0,0,0,13.43-.57c4.08-1.26,3.22-5.1-1-5.1S800.94,364.58,804.85,367.23Z" transform="translate(135.01 172.47)"/><path class="cls-12" d="M1513,666a933.42,933.42,0,0,1,135.39-67.87c145.93-58.84,214.36-43,316.28-73.28C2133.35,474.77,2131.77,376.28,2308,278c81.05-45.2,206-93.86,389.85-96.26q-2.43,239-4.85,478Z" transform="translate(135.01 172.47)"/><path class="cls-13" d="M94,652.18s676.95-480.27,1649-46.33v46.33Z" transform="translate(135.01 172.47)"/><path class="cls-14" d="M1023.91,537.33s10.5,6.85,10.3,16.79c0,1.75.1,7.09-3.45,9.42a8,8,0,0,1-5.9.88c-5.57-1.29-8.88-8.15-12.13-14.88-2.66-5.49-3.88-9.78-7-10.26a2.89,2.89,0,0,0-2.37.48c-2.35,2.24,1.71,11.48,6.27,18,3.57,5.12,6.67,7.46,5.87,10.57a6.48,6.48,0,0,1-3.43,3.76c-2,.95-4.33.64-7.53-.63a37.08,37.08,0,0,1-12.24-8A170.9,170.9,0,0,1,974,540.54l-2.74,2.74q2.53,4.31,5.09,8.61a15.32,15.32,0,0,0-9.4-7,13.76,13.76,0,0,0-5.87,0,27.53,27.53,0,0,1,11,7.43c4,4.53,4.15,8.08,8.22,14.49a49.58,49.58,0,0,0,9.39,11c9.47,7.87,22.19,7.67,28.58,7a15.49,15.49,0,0,1,9,3.92c1.19,1.14,5.65,5.94,2.78,25.08,0,0-1.59,10.68-9.8,34.58l43.84.21c5.33,1.89,15.28,4.87,18.14,1.11,1.43-1.89.54-4.78.14-6.1-4.93-16.17-8.66-28.53-10.16-38.65-1-6.45-1-12,.07-17,.38-1.73,3.26-14.2,12.13-17.61,4.9-1.88,7.15.72,14.1,0,13.51-1.41,22.34-13.08,23.09-14.09,6.88-9.36,8.86-22.83,8.86-22.83l-5.83.85c-.27,2.36-1.9,14.82-11.25,19.63-1.11.57-6.22,3.2-9.35,1.06-4.41-3-1.71-13.22-1.21-14.17,1.88-3.66,6.28-10.63,6.28-10.63l-14.51,1.82c.69,8.83-2.41,16.59-8.34,19.83-.79.43-5.3,2.91-8.9,1.06-4.34-2.23-6.19-10.2-2.8-19.45l-5.34-2s-3.27,30.94-8.17,34.12c-8.48,5.51-14.76-13.24-12.56-32.17h-6.29s4.09,20.7-.94,13.31c-1.8-2.65-5-5.84-10-9.35" transform="translate(135.01 172.47)"/><path class="cls-15" d="M1071.59,607.29c-2.89-1.22-9.39,6.61-13,13-2.62,4.63-6.37,13.25-6,26.21l.37,3.36,30-3.61c-2.76-8.92-4.59-15.49-5.77-20-1.1-4.14-2.61-8.17-3.48-12.36C1072.72,609.41,1072.73,607.77,1071.59,607.29Z" transform="translate(135.01 172.47)"/><path class="cls-16" d="M1068.63,635.44a4.79,4.79,0,0,1-2.91-.83,5,5,0,0,1-1.19-1A1.93,1.93,0,0,1,1064,632c1-2.21,3.78-2.52,5.66-1.61a9.34,9.34,0,0,1,4.56,4.28,5.34,5.34,0,0,1,.59,3.21,4.08,4.08,0,0,1-1.87,2.73,8.42,8.42,0,0,1-3,1.12c-.51.08-1,.18-1.55.24l-1.57.07a8.92,8.92,0,0,1-5.85-2.15,7.35,7.35,0,0,1-1.88-2.54,8.14,8.14,0,0,1-.47-1.5l-.14-.78,0-.78a9.68,9.68,0,0,1,2-5.75,9.89,9.89,0,0,0-1.52,5.73l0,.74.17.72a6.51,6.51,0,0,0,2.3,3.63c3,2.5,7.75,2.26,11,.48a3.19,3.19,0,0,0,1.52-2.11,4.51,4.51,0,0,0-.48-2.69,9.12,9.12,0,0,0-4.09-4,4.46,4.46,0,0,0-2.76-.44c-.87.24-1.93.68-2.18,1.51a1.53,1.53,0,0,0,.35,1.26,4.25,4.25,0,0,0,1,1A4.92,4.92,0,0,0,1068.63,635.44Z" transform="translate(135.01 172.47)"/><path class="cls-17" d="M1080.26,492.87s10.63-5.33,27.35-5.25,35.43,11.83,30.26,19.32-8.32,11.78-31.48,11.71S1056.86,507.15,1080.26,492.87Z" transform="translate(135.01 172.47)"/><path class="cls-18" d="M1076.07,454.69c44.59,13.37,49,29.35,48.11,36.67,0,0,.09,12.54-45.94,25.2h0s-27,10.35-76.86,4.92c-15.13-1.65-40.1-8.2-43.55-22.83-2.54-10.77,7.85-21.74,11.6-25.7C1000,440.63,1061.07,451.64,1076.07,454.69Z" transform="translate(135.01 172.47)"/><path class="cls-19" d="M1074.67,455c44.59,13.32,49,29.25,48.12,36.54,0,0,.1,12.48-45.93,25.07h0s-27,10.3-76.85,4.87c-15.14-1.65-40.1-8.18-43.56-22.76-2.54-10.72,7.84-21.64,11.59-25.59C998.63,441,1059.67,451.94,1074.67,455Z" transform="translate(135.01 172.47)"/><path class="cls-20" d="M930.15,532.38s-2.32-10,8.36-18.61c6-4.88,24.71-18.08,44.82-4.53,23.07,15.56,48,32.93,13.06,34.41S933.8,545.48,930.15,532.38Z" transform="translate(135.01 172.47)"/><path class="cls-21" d="M930.15,533.09s-2.32-10,8.36-18.6c6-4.88,24.71-18.08,44.82-4.53,23.07,15.56,48,32.93,13.06,34.41S933.8,546.2,930.15,533.09Z" transform="translate(135.01 172.47)"/><path class="cls-18" d="M1161.54,529.81s-11.78,3.19-64.3,3.58l.09-42c1.23-.39,10.24-2.45,33,4.59,27.7,8.56,52,26.83,34,33" transform="translate(135.01 172.47)"/><path class="cls-22" d="M1161.38,530.58s-11.78,3.19-64.29,3.58l.08-42c1.24-.39,10.24-2.45,33,4.59,27.69,8.56,52,26.83,34,33" transform="translate(135.01 172.47)"/><path class="cls-23" d="M1015.27,542.15c5,.69,5.81.43,25.15.41,4.12,0,21.62,0,56.81-1.12,14.8-.46,37.09-3.84,43.16-6.64a9.84,9.84,0,0,0,6.21-9.3c.33-14-11.9-22-15.75-25.92-3.6-3.65-12.69-8.07-15.1-9-29.4-11.88-53.29-15.49-53.29-15.49-5.72-1.31-50.78-11-76.47,16.05-2.37,2.49-16.89,17.61-12.64,30.74C978.25,537,1005.22,540.74,1015.27,542.15Z" transform="translate(135.01 172.47)"/><path class="cls-24" d="M1014.47,543.46c5,.7,5.8.44,25.15.42,4.12,0,21.62,0,56.81-1.12,14.8-.46,37.09-3.84,43.16-6.64a9.84,9.84,0,0,0,6.21-9.3c.33-14-11.9-22-15.75-25.92-3.6-3.65-12.69-8.07-15.1-9-29.4-11.87-53.3-15.48-53.3-15.48-5.71-1.32-50.77-11-76.46,16.05-2.37,2.49-16.89,17.61-12.64,30.74C977.45,538.28,1004.42,542.06,1014.47,543.46Z" transform="translate(135.01 172.47)"/><path class="cls-25" d="M0,557.36S511.6,406.92,804.85,542.8c179.08,114,293.24,99.48,481.27,43.67s620.07,82.62,620.07,82.62L0,666Z" transform="translate(135.01 172.47)"/><path class="cls-26" d="M2230,512.48c-4.08,7.71-17.2,13-23.66,7.67-1.76-1.44-3-.42-3-.42-9.61,3-9.18,11.82-9.18,11.82,9.22,77.11,3,123.34,3,123.34H2168.2c-3.73-24.35.42-76.54,1.68-91.76.33-4-1.08-22-1.08-22s-2.2-11.64-4-14.66a32.91,32.91,0,0,0-6.93-8.12c-24.07-1.09-15.61-3.91-15.61-3.91,1.24,1,14.9.06,16.15-.75s-5.31-21.12-5.31-21.12h4.65c.71,6.29,5.63,21.52,5.63,21.52,3.48,1.46,8.31-19.88,8.31-19.88h4.64s-7.81,17-4.44,15.42,8.73-13.92,8.73-13.92h3.57s-5.55,14.11-10.34,17.36-1.83,5.23-1.83,5.23c14.38,6.49,14.5-22.59,14.5-22.59h2.5c-1.6,14.81.72,21,.72,21,12.17,2.19,15-21,15-21l3.93-1.5c.45,6.49-3.06,18.87-3.06,18.87s1.6,5.07,8,5.27c3.82.12,9.58-8.62,11.17-10.18Z" transform="translate(135.01 172.47)"/><path class="cls-6" d="M2230.77,475s-7.26-16.81-34.17-14.59-39.72,16.57,13.67,19.29C2210.27,479.72,2235,484.66,2230.77,475Z" transform="translate(135.01 172.47)"/><path class="cls-27" d="M2230.77,475.62s-7.36-16.81-34.6-14.59S2156,477.6,2210,480.32C2210,480.32,2235.09,485.26,2230.77,475.62Z" transform="translate(135.01 172.47)"/><path class="cls-6" d="M2135.93,491.21s12.5,3.21,50.36,4.93c36.28,1.64,37.09-5.63,37.09-5.63s7.89-16.71-24.82-21.73C2168.46,464.16,2113.14,477.14,2135.93,491.21Z" transform="translate(135.01 172.47)"/><path class="cls-28" d="M2135.93,492.05s12.5,3.23,50.36,5c36.28,1.66,37.09-5.67,37.09-5.67s7.89-16.84-24.82-21.9C2168.46,464.78,2113.14,477.87,2135.93,492.05Z" transform="translate(135.01 172.47)"/><path class="cls-6" d="M2215.56,511.8s22.49,2.79,41.57,0,6.92-16.61,0-18.28c-7.24-1.75-24.12-2.46-44.14,9.76C2200.21,511.08,2215.56,511.8,2215.56,511.8Z" transform="translate(135.01 172.47)"/><path class="cls-29" d="M2215.39,511.84s22.29,2.71,41.2,0,6.86-16.1,0-17.73c-7.17-1.69-23.91-2.37-43.74,9.47C2200.18,511.14,2215.39,511.84,2215.39,511.84Z" transform="translate(135.01 172.47)"/><path class="cls-30" d="M2137.26,503.66s-15.13-4.14-17.08,5.29c-.58,2.79,2.72,3.65,9,3.76C2134.78,512.81,2155.18,507.21,2137.26,503.66Z" transform="translate(135.01 172.47)"/><path class="cls-6" d="M2122.18,515.84s9.82,3.48,22.67-1.13c6.88-2.46,5.42-10-1.69-10S2115.57,510.63,2122.18,515.84Z" transform="translate(135.01 172.47)"/><path class="cls-31" d="M2121.57,516.6s10,3.58,23.18-1.16c7-2.53,5.54-10.27-1.73-10.27S2114.82,511.25,2121.57,516.6Z" transform="translate(135.01 172.47)"/><path class="cls-32" d="M180.23,175.6s35.21,27.41,34.54,67.23c-.12,7,.34,28.38-11.56,37.73-8.28,6.5-18.29,3.92-19.8,3.5-18.68-5.16-29.81-32.64-40.7-59.56-8.92-22-13-39.19-23.59-41.1-1.27-.23-5.39-1-7.93,1.92-7.88,9,5.74,46,21,72.09,12,20.5,22.39,29.86,19.7,42.32-2.1,9.68-10.68,14.6-11.5,15-6.87,3.8-14.51,2.55-25.27-2.51-23.75-11.19-39.3-30-41-32.16-26.74-33-48.14-68.24-61.37-91.66l-9.19,11L20.6,233.91c-2.16-4.3-12.15-23.1-31.51-28.22a39.13,39.13,0,0,0-19.69,0A93.15,93.15,0,0,1,6.16,235.47c13.29,18.12,13.91,32.33,27.57,58,10.17,19.11,22.38,34.82,31.51,43.88,31.74,31.53,74.44,30.71,95.85,28.22,8.93,1.29,20.87,4.92,30.19,15.67,4,4.6,18.94,23.82,9.35,100.42,0,0-5.36,42.8-32.9,138.48l147.06.83c17.9,7.58,51.28,19.54,60.85,4.47,4.81-7.57,1.82-19.16.47-24.44-16.55-64.72-29-114.22-34.09-154.75-3.22-25.82-3.42-48,.25-68.15,1.27-6.94,10.93-56.88,40.71-70.52,16.42-7.53,23.95,2.9,47.26,0,45.34-5.65,75-52.36,77.47-56.42,23.07-37.48,29.72-91.43,29.72-91.43l-19.56,3.41c-.9,9.46-6.36,59.34-37.74,78.61-3.71,2.29-20.87,12.82-31.37,4.26-14.77-12.05-5.71-52.93-4.05-56.76,6.32-14.65,21.07-42.56,21.07-42.56L417.11,154c2.3,35.34-8.1,66.42-28,79.4-2.65,1.74-17.81,11.64-29.86,4.25-14.57-8.94-20.78-40.85-9.41-77.9L332,151.92s-11,123.9-27.39,136.63c-28.45,22.05-49.53-53-42.15-128.83H241.35S255,242.62,238.18,213c-6-10.59-16.94-23.35-33.71-37.41" transform="translate(135.01 172.47)"/><path class="cls-15" d="M340.15,455.73c-9.68-4.89-31.49,26.47-43.54,52-8.77,18.55-21.37,53.05-20.3,104.94l1.25,13.45,100.57-14.42c-9.27-35.75-15.39-62-19.37-80-3.67-16.57-8.73-32.71-11.67-49.49C344,464.22,344,457.65,340.15,455.73Z" transform="translate(135.01 172.47)"/><path class="cls-16" d="M330.24,568.46a7,7,0,0,1-2.8-.08,15.08,15.08,0,0,1-2.7-.84,21.46,21.46,0,0,1-4.86-2.93,16.65,16.65,0,0,1-3.87-4.27,10,10,0,0,1-1.17-2.75,7.56,7.56,0,0,1-.11-3.11,7.75,7.75,0,0,1,1.3-2.86,11,11,0,0,1,2.17-2.15,16.27,16.27,0,0,1,5.33-2.71,12.87,12.87,0,0,1,6.08.09,19.93,19.93,0,0,1,5.49,2.26,30.45,30.45,0,0,1,4.74,3.43,37.19,37.19,0,0,1,4,4.21,35.58,35.58,0,0,1,5.85,10,23.41,23.41,0,0,1,1.46,11.8,17.59,17.59,0,0,1-2.12,5.81A16.86,16.86,0,0,1,345,589a27.4,27.4,0,0,1-10.81,4.78,38.11,38.11,0,0,1-11.58,1A27.57,27.57,0,0,1,302.38,584a30.26,30.26,0,0,1-5.1-10.39A37.77,37.77,0,0,1,296,562.23a42.33,42.33,0,0,1,2.06-11.14,45.43,45.43,0,0,1,4.73-10.19,46.27,46.27,0,0,0-5.13,21.35c.09,7.28,2.25,14.59,6.78,20.11a25.05,25.05,0,0,0,18.33,9.22,35.59,35.59,0,0,0,10.61-1,24.32,24.32,0,0,0,9.47-4.22,13.32,13.32,0,0,0,3.33-3.66,14,14,0,0,0,1.73-4.63,20.77,20.77,0,0,0-1.2-10.17,32.46,32.46,0,0,0-5.17-9.3,31.16,31.16,0,0,0-7.8-7.23c-2.95-1.89-6.45-3.05-9.73-2.45a14.54,14.54,0,0,0-4.68,2.11,9.55,9.55,0,0,0-1.89,1.68,6.73,6.73,0,0,0-1.11,2.14,6.86,6.86,0,0,0,.78,4.88,15.48,15.48,0,0,0,3.34,4.21,20.73,20.73,0,0,0,4.49,3.15A10,10,0,0,0,330.24,568.46Z" transform="translate(135.01 172.47)"/><path class="cls-33" d="M369.23-2.45s35.68-21.31,91.74-21S579.82,23.93,562.49,53.89s-27.91,47.18-105.6,46.92S290.75,54.74,369.23-2.45Z" transform="translate(135.01 172.47)"/><path class="cls-18" d="M355.19-155.3C504.76-101.79,519.62-37.78,516.57-8.47c0,0,.31,50.19-154.11,100.88h0s-90.55,41.48-257.82,19.71c-50.76-6.6-134.5-32.83-146.08-91.43C-50-22.42-15.12-66.33-2.52-82.21,100.14-211.62,304.87-167.55,355.19-155.3Z" transform="translate(135.01 172.47)"/><path class="cls-34" d="M350.48-154.09C500.06-100.72,514.94-37,511.9-7.77c0,0,.34,50-154.06,100.39h0S267.3,133.88,100,112.12C49.27,105.52-34.47,79.36-46.07,21-54.61-21.95-19.79-65.67-7.19-81.48,95.42-210.32,300.16-166.32,350.48-154.09Z" transform="translate(135.01 172.47)"/><path class="cls-35" d="M-134.29,155.76s-7.8-39.86,28.05-74.51C-86,61.72-23.37,8.87,44.08,63.13,121.49,125.41,205.2,195,87.91,200.9S-122.06,208.23-134.29,155.76Z" transform="translate(135.01 172.47)"/><path class="cls-36" d="M-134.29,158.63s-7.8-39.86,28.05-74.5C-86,64.6-23.37,11.74,44.08,66c77.41,62.28,161.12,131.86,43.83,137.76S-122.06,211.11-134.29,158.63Z" transform="translate(135.01 172.47)"/><path class="cls-18" d="M641.9,145.49s-39.54,12.77-215.69,14.34L426.5-8.53c4.14-1.56,34.34-9.81,110.81,18.4,92.9,34.25,174.3,107.41,114.16,132.25" transform="translate(135.01 172.47)"/><path class="cls-37" d="M641.37,148.57s-39.54,12.76-215.69,14.34L426-5.45c4.14-1.56,34.34-9.81,110.81,18.39,92.9,34.26,174.3,107.42,114.16,132.26" transform="translate(135.01 172.47)"/><path class="cls-38" d="M151.24,194.88c16.67,2.78,19.47,1.73,84.36,1.65,13.81,0,72.52,0,190.56-4.47,49.64-1.86,124.42-15.39,144.77-26.58,6.8-3.74,20.35-12.69,20.83-37.24,1.11-55.93-39.9-88.12-52.83-103.8C526.87,9.81,496.37-7.87,488.28-11.78c-98.61-47.55-178.76-62-178.76-62C290.34-79,139.18-117.83,53-9.52,45.08.44-3.65,61,10.62,113.56,27.05,174.11,117.52,189.24,151.24,194.88Z" transform="translate(135.01 172.47)"/><path class="cls-39" d="M148.55,200.15c16.67,2.79,19.47,1.73,84.37,1.66,13.81,0,72.51,0,190.55-4.47,49.64-1.86,124.43-15.39,144.78-26.58,6.8-3.74,20.34-12.7,20.83-37.24,1.1-55.93-39.91-88.13-52.83-103.8C524.19,15.09,493.69-2.6,485.59-6.5,387-54,306.83-68.51,306.83-68.51c-19.18-5.26-170.33-44-256.51,64.27C42.4,5.72-6.33,66.26,7.94,118.84,24.36,179.39,114.84,194.52,148.55,200.15Z" transform="translate(135.01 172.47)"/><path class="cls-40" d="M2508.93,266.41s35.21,22.95,34.54,56.31c-.12,5.86.34,23.78-11.56,31.61-8.28,5.45-18.29,3.28-19.8,2.93-18.68-4.32-29.81-27.34-40.7-49.89-8.92-18.45-13-32.84-23.59-34.43-1.27-.19-5.39-.81-7.92,1.61-7.89,7.51,5.73,38.5,21,60.39,12,17.17,22.4,25,19.7,35.45-2.1,8.11-10.68,12.23-11.5,12.61-6.87,3.18-14.51,2.14-25.27-2.11a124.71,124.71,0,0,1-41-26.93c-26.74-27.64-48.14-57.18-61.37-76.79q-4.59,4.6-9.19,9.19l17.07,28.89c-2.16-3.6-12.15-19.35-31.51-23.64a46.55,46.55,0,0,0-19.69,0c10.07,3.86,24.59,11.06,36.76,24.95,13.29,15.18,13.91,27.08,27.57,48.58,10.17,16,22.38,29.16,31.51,36.76,31.74,26.41,74.44,25.73,95.85,23.64,8.93,1.08,20.87,4.12,30.2,13.12,4,3.86,18.93,20,9.34,84.13,0,0-5.36,35.85-32.9,116l147.06.7c17.9,6.34,51.28,16.36,60.85,3.74,4.81-6.34,1.83-16,.48-20.47-16.56-54.23-29-95.69-34.1-129.64-3.22-21.63-3.42-40.21.25-57.09,1.27-5.82,10.94-47.66,40.71-59.08,16.42-6.31,24,2.43,47.26,0,45.34-4.74,75-43.86,77.47-47.27,23.07-31.39,29.72-76.59,29.72-76.59L2846.57,256c-.9,7.92-6.36,49.71-37.74,65.85-3.71,1.92-20.87,10.74-31.37,3.57-14.77-10.1-5.71-44.34-4.05-47.55,6.32-12.28,21.07-35.65,21.07-35.65l-48.67,6.11c2.3,29.6-8.1,55.64-28,66.51-2.65,1.45-17.81,9.75-29.86,3.56-14.57-7.49-20.78-34.23-9.41-65.26l-17.92-6.54s-11,103.8-27.39,114.47c-28.45,18.47-49.53-44.42-42.15-107.93h-21.07s13.69,69.45-3.17,44.65c-6-8.88-16.94-19.57-33.71-31.34" transform="translate(135.01 172.47)"/><path class="cls-15" d="M2668.86,501.07c-9.69-4.09-31.5,22.18-43.55,43.54-8.77,15.54-21.37,44.44-20.3,87.91l1.25,11.27,100.57-12.08c-9.27-30-15.39-52-19.37-67-3.67-13.88-8.73-27.41-11.67-41.46C2672.65,508.19,2672.67,502.69,2668.86,501.07Z" transform="translate(135.01 172.47)"/><path class="cls-16" d="M2658.94,595.51a7.86,7.86,0,0,1-2.56,0,13.57,13.57,0,0,1-2.52-.59,21.79,21.79,0,0,1-4.69-2.2,16.48,16.48,0,0,1-4-3.41,8.85,8.85,0,0,1-1.41-2.36,5.32,5.32,0,0,1-.3-2.89,5.67,5.67,0,0,1,1.29-2.62,9.84,9.84,0,0,1,2.11-1.83,17.67,17.67,0,0,1,2.37-1.3l1.22-.52,1.34-.41a14.28,14.28,0,0,1,5.48-.25,20.88,20.88,0,0,1,5.19,1.48,29.88,29.88,0,0,1,8.86,5.87,31.74,31.74,0,0,1,6.48,8.48,22.2,22.2,0,0,1,1.83,5.17,15.46,15.46,0,0,1,.15,5.64,13.07,13.07,0,0,1-2.22,5.3,15.48,15.48,0,0,1-4.11,3.85,29.27,29.27,0,0,1-10,3.82,45.49,45.49,0,0,1-10.49,1,34.92,34.92,0,0,1-10.46-1.85,27.62,27.62,0,0,1-9.23-5.33A25.14,25.14,0,0,1,2627,602a26.09,26.09,0,0,1-2.15-10.3,32.77,32.77,0,0,1,6.7-19.27,39.29,39.29,0,0,0-4.09,9.3,29.83,29.83,0,0,0-1.1,9.92,24.57,24.57,0,0,0,2.47,9.49,23.56,23.56,0,0,0,6,7.61,28.84,28.84,0,0,0,18.18,6.09,44.08,44.08,0,0,0,9.82-1.06,26.73,26.73,0,0,0,9-3.44,12.44,12.44,0,0,0,3.34-3.07,9.91,9.91,0,0,0,1.72-4,12.57,12.57,0,0,0-.1-4.53,20.55,20.55,0,0,0-1.53-4.47,30,30,0,0,0-13.68-13.44,18.94,18.94,0,0,0-4.57-1.49,12.91,12.91,0,0,0-4.68,0l-1.13.28L2650,580a16.1,16.1,0,0,0-2.17,1.05,5.68,5.68,0,0,0-2.86,3.27,5.26,5.26,0,0,0,1.15,4.24,15.39,15.39,0,0,0,3.54,3.43,21.51,21.51,0,0,0,4.4,2.45,14.38,14.38,0,0,0,2.4.8A7.91,7.91,0,0,0,2658.94,595.51Z" transform="translate(135.01 172.47)"/><path class="cls-41" d="M2697.93,117.25s35.68-17.86,91.74-17.59,118.85,39.69,101.52,64.78-27.91,39.53-105.6,39.31S2619.45,165.16,2697.93,117.25Z" transform="translate(135.01 172.47)"/><path class="cls-18" d="M2683.89-10.81c149.57,44.84,164.43,98.45,161.38,123,0,0,.31,42.05-154.11,84.51h0s-90.55,34.75-257.82,16.52c-50.76-5.53-134.5-27.51-146.08-76.6-8.52-36.11,26.32-72.9,38.92-86.21C2428.84-58,2633.57-21.06,2683.89-10.81Z" transform="translate(135.01 172.47)"/><path class="cls-42" d="M2679.18-9.79c149.58,44.71,164.46,98.12,161.42,122.58,0,0,.34,41.87-154.06,84.1h0s-90.54,34.57-257.81,16.34c-50.76-5.53-134.5-27.45-146.1-76.35-8.54-36,26.28-72.6,38.88-85.84C2424.12-56.89,2628.86-20,2679.18-9.79Z" transform="translate(135.01 172.47)"/><path class="cls-43" d="M2194.41,249.78s-7.8-33.39,28.05-62.41c20.21-16.37,82.87-60.65,150.32-15.19,77.41,52.18,161.13,110.47,43.83,115.42S2206.64,293.74,2194.41,249.78Z" transform="translate(135.01 172.47)"/><path class="cls-44" d="M2194.41,252.19s-7.8-33.39,28.05-62.41c20.21-16.37,82.87-60.65,150.32-15.19,77.41,52.18,161.13,110.47,43.83,115.41S2206.64,296.15,2194.41,252.19Z" transform="translate(135.01 172.47)"/><path class="cls-18" d="M2970.6,241.18s-39.54,10.7-215.69,12l.29-141c4.14-1.31,34.34-8.22,110.81,15.4,92.9,28.7,174.3,90,114.16,110.8" transform="translate(135.01 172.47)"/><path class="cls-45" d="M2970.07,243.76s-39.54,10.69-215.69,12l.29-141c4.14-1.31,34.34-8.22,110.81,15.41,92.9,28.7,174.3,90,114.16,110.79" transform="translate(135.01 172.47)"/><path class="cls-46" d="M2479.94,282.55c16.67,2.34,19.47,1.45,84.36,1.38,13.81,0,72.52,0,190.56-3.74,49.64-1.55,124.42-12.89,144.77-22.27,6.8-3.13,20.35-10.63,20.83-31.19,1.11-46.86-39.9-73.83-52.83-87-12.06-12.25-42.56-27.07-50.65-30.34-98.61-39.83-178.76-52-178.76-52-19.18-4.41-170.33-36.9-256.52,53.85-7.92,8.34-56.64,59.05-42.38,103.1C2355.75,265.15,2446.22,277.83,2479.94,282.55Z" transform="translate(135.01 172.47)"/><path class="cls-47" d="M2477.25,287c16.67,2.34,19.47,1.45,84.37,1.39,13.81,0,72.51,0,190.55-3.74,49.64-1.56,124.43-12.9,144.78-22.27,6.8-3.14,20.34-10.64,20.83-31.2,1.1-46.85-39.91-73.83-52.83-87-12.06-12.25-42.56-27.07-50.66-30.34C2715.68,74,2635.53,61.9,2635.53,61.9,2616.36,57.5,2465.2,25,2379,115.75c-7.92,8.34-56.65,59.06-42.38,103.1C2353.06,269.57,2443.54,282.25,2477.25,287Z" transform="translate(135.01 172.47)"/><path class="cls-48" d="M1769.9,464.57s16.5,10.76,16.19,26.39c-.06,2.75.16,11.14-5.42,14.81-3.88,2.55-8.57,1.54-9.28,1.37-8.75-2-14-12.81-19.07-23.37-4.18-8.65-6.09-15.39-11-16.14-.6-.09-2.53-.38-3.72.75-3.69,3.53,2.69,18.05,9.85,28.31,5.61,8,10.49,11.72,9.23,16.61-1,3.8-5,5.73-5.39,5.9-3.22,1.5-6.8,1-11.84-1a58.31,58.31,0,0,1-19.23-12.62,269.41,269.41,0,0,1-28.76-36l-4.3,4.3,8,13.54c-1-1.69-5.69-9.07-14.76-11.08a21.89,21.89,0,0,0-9.23,0,43.32,43.32,0,0,1,17.23,11.69c6.23,7.11,6.52,12.69,12.92,22.77A77.44,77.44,0,0,0,1716,528.06c14.87,12.38,34.88,12.06,44.91,11.08,4.19.51,9.78,1.93,14.15,6.15,1.87,1.8,8.88,9.35,4.38,39.42,0,0-2.51,16.8-15.42,54.36l68.92.33c8.38,3,24,7.66,28.51,1.75,2.25-3,.85-7.52.22-9.59-7.75-25.41-13.6-44.84-16-60.75-1.51-10.14-1.61-18.84.11-26.75.6-2.73,5.13-22.33,19.08-27.69,7.69-3,11.22,1.14,22.14,0,21.25-2.22,35.13-20.55,36.3-22.15,10.82-14.71,13.93-35.88,13.93-35.88l-9.16,1.33c-.43,3.72-3,23.3-17.69,30.86-1.74.9-9.78,5-14.7,1.67-6.92-4.73-2.67-20.77-1.9-22.28,3-5.75,9.88-16.7,9.88-16.7l-22.81,2.86c1.08,13.87-3.79,26.07-13.1,31.17-1.24.68-8.35,4.57-14,1.67-6.83-3.51-9.74-16-4.41-30.58l-8.4-3.07s-5.14,48.64-12.83,53.64c-13.34,8.65-23.21-20.81-19.75-50.57h-9.88s6.42,32.54-1.48,20.92c-2.83-4.16-7.94-9.17-15.8-14.69" transform="translate(135.01 172.47)"/><path class="cls-15" d="M1844.84,574.53c-4.54-1.92-14.76,10.39-20.4,20.4-4.11,7.28-10,20.83-9.52,41.2l.59,5.28,47.13-5.67c-4.35-14-7.22-24.35-9.08-31.4-1.72-6.51-4.09-12.85-5.47-19.43C1846.62,577.87,1846.63,575.29,1844.84,574.53Z" transform="translate(135.01 172.47)"/><path class="cls-16" d="M1840.2,618.78a5.21,5.21,0,0,1-2.38-.28,9.81,9.81,0,0,1-2.2-1,7.9,7.9,0,0,1-1.88-1.59,3.09,3.09,0,0,1-.8-2.46,3.32,3.32,0,0,1,1.59-2.08,8,8,0,0,1,2.31-1,7.9,7.9,0,0,1,5,.57,14.79,14.79,0,0,1,7.19,6.71,8.4,8.4,0,0,1,.94,5.06,6.11,6.11,0,0,1-1,2.48,7.17,7.17,0,0,1-1.92,1.81,13.23,13.23,0,0,1-4.7,1.78c-.82.13-1.63.29-2.44.4l-2.48.1a14.18,14.18,0,0,1-9.2-3.39,11.27,11.27,0,0,1-3.69-6.37l-.23-1.22,0-1.23a15.19,15.19,0,0,1,3.11-9,15.4,15.4,0,0,0-2.4,9l.08,1.16.26,1.13a11.85,11.85,0,0,0,.78,2.16,10.76,10.76,0,0,0,2.84,3.54,13.38,13.38,0,0,0,8.5,2.87l2.31-.12c.77-.11,1.53-.27,2.29-.39a12.1,12.1,0,0,0,4.2-1.6,5,5,0,0,0,2.37-3.33,7.27,7.27,0,0,0-.77-4.22,14.16,14.16,0,0,0-6.41-6.3,7,7,0,0,0-4.34-.69,7.48,7.48,0,0,0-2.09.83,2.65,2.65,0,0,0-1.33,1.54,2.48,2.48,0,0,0,.54,2,7.22,7.22,0,0,0,1.66,1.6,10.14,10.14,0,0,0,2.06,1.15A5.1,5.1,0,0,0,1840.2,618.78Z" transform="translate(135.01 172.47)"/><path class="cls-49" d="M1858.47,394.68s16.71-8.37,43-8.25,55.69,18.6,47.58,30.36-13.08,18.52-49.49,18.42S1821.69,417.13,1858.47,394.68Z" transform="translate(135.01 172.47)"/><path class="cls-18" d="M1851.89,334.67c70.08,21,77,46.14,75.62,57.64,0,0,.14,19.71-72.22,39.6h0s-42.43,16.28-120.81,7.74c-23.78-2.59-63-12.89-68.45-35.89-4-16.92,12.33-34.16,18.24-40.4C1732.37,312.57,1828.31,329.87,1851.89,334.67Z" transform="translate(135.01 172.47)"/><path class="cls-50" d="M1849.68,335.15c70.09,21,77.06,46,75.64,57.44,0,0,.16,19.62-72.19,39.41h0s-42.43,16.19-120.81,7.65c-23.78-2.59-63-12.86-68.46-35.77-4-16.86,12.32-34,18.22-40.23C1730.16,313.08,1826.1,330.35,1849.68,335.15Z" transform="translate(135.01 172.47)"/><path class="cls-51" d="M1622.52,456.78s-3.65-15.65,13.15-29.25c9.47-7.66,38.83-28.41,70.44-7.11,36.27,24.45,75.5,51.76,20.53,54.08S1628.25,477.38,1622.52,456.78Z" transform="translate(135.01 172.47)"/><path class="cls-52" d="M1622.52,457.91s-3.65-15.65,13.15-29.25c9.47-7.67,38.83-28.41,70.44-7.11,36.27,24.45,75.5,51.76,20.53,54.08S1628.25,478.51,1622.52,457.91Z" transform="translate(135.01 172.47)"/><path class="cls-18" d="M1986.23,452.75s-18.52,5-101.06,5.63l.13-66.09c1.94-.61,16.09-3.85,51.93,7.22,43.53,13.45,81.67,42.17,53.49,51.92" transform="translate(135.01 172.47)"/><path class="cls-53" d="M1986,454s-18.53,5-101.07,5.63l.13-66.09c1.94-.61,16.09-3.85,51.93,7.22,43.53,13.45,81.67,42.16,53.49,51.91" transform="translate(135.01 172.47)"/><path class="cls-54" d="M1756.32,472.14c7.81,1.09,9.12.68,39.53.64,6.47,0,34,0,89.29-1.75,23.26-.73,58.3-6,67.84-10.43,3.19-1.47,9.53-5,9.76-14.62.52-22-18.7-34.6-24.75-40.75-5.66-5.74-20-12.68-23.74-14.22-46.21-18.66-83.77-24.34-83.77-24.34-9-2.06-79.81-17.29-120.19,25.23-3.72,3.91-26.55,27.68-19.86,48.32C1698.13,464,1740.52,469.92,1756.32,472.14Z" transform="translate(135.01 172.47)"/><path class="cls-55" d="M1755.06,474.21c7.81,1.09,9.12.68,39.53.65,6.47,0,34,0,89.29-1.76,23.26-.73,58.31-6,67.84-10.43,3.19-1.47,9.54-5,9.76-14.62.52-22-18.7-34.59-24.75-40.75-5.65-5.74-20-12.68-23.74-14.21-46.21-18.67-83.76-24.35-83.76-24.35-9-2.06-79.82-17.29-120.2,25.23-3.71,3.91-26.55,27.68-19.86,48.32C1696.87,466.06,1739.26,472,1755.06,474.21Z" transform="translate(135.01 172.47)"/><path class="cls-56" d="M-85,398.74S25.54,367.83.73,444.6c80.33-45.16,126.4-3.39,115.77,39.52,61.43-6.78,115.77,79,72.06,102.74,0,0,62.61-31.61,125.22,15.8a231.36,231.36,0,0,1,244.75,62.66Q384.38,661,210.22,659.54,62.6,658.3-85,659.12Z" transform="translate(135.01 172.47)"/><path class="cls-57" d="M1378.62,662.49s79.69-73.66,223.14-35.79c74.91-57.76,194.45,0,194.45,0,22.32-73.7,130.7,5.06,130.7,5.06s25.5-37,154.6-2.91c105.2-16.88,130.7,22.76,130.7,22.76,44.63,1.8,283.71,10.88,283.71,10.88Z" transform="translate(135.01 172.47)"/><path class="cls-58" d="M2075.54,735.74s54.4-50.83,136-32.19c14-28,65.81-39.82,123.72-7.63-36.37-50.85-29.72-39.41-30-39.25s-4.94-6.26-6.84-9.89c-5.9-11.25-4.8-30.21,3.46-35,10.77-6.22,33.66,11.6,45.68,28.22a83.5,83.5,0,0,1,14.91,39c-28.38-27.34-41.65-56.39-32.56-72.22a26.56,26.56,0,0,1,16.61-12.1c12.87-2.8,25.33,6.36,31.62,14.3,12.07,15.24,9.55,36.23,9.76,36.21s-1.81-15.63-1.54-32.91c.21-12.71.33-20.28,3.32-29.38,2.54-7.71,8-24.11,23.36-31.43,18-8.52,40.52-.45,52.21,12.49a45.38,45.38,0,0,1,11.3,23.54c8.77,55.92-2.63,58.46,12.28-.84s95.65-64.39,91.26,9.31l-3.51,35.59,3.68,2.54s66.27-74.55,112.46-61.85c.57,39,0,163.51,0,163.51Z" transform="translate(135.01 172.47)"/><path class="cls-59" d="M-20.65,829.31q433,18.29,866.14,32.08,936,29.8,1872.56,38.61l-29.13-166L-14.22,707.09Q-17.43,768.2-20.65,829.31Z" transform="translate(135.01 172.47)"/><path class="cls-60" d="M-1.83,725.93v76.23s1026.56-34.5,1225.75-26,563,23.89,594.11,18.77,46.35-15.36,27-30.72,26.28-20.47,102.36-20.47,516-8.53,540.87-6.83,286.34,10.24,286.34,10.24V725.93" transform="translate(135.01 172.47)"/><rect class="cls-61" x="135.01" y="837.79" width="2693" height="60.49"/><path class="cls-62" d="M-39.47,830.74H311.2s-44.24-45.48-21.3-53.6,36.34,47.59,36.34,47.59h20.59a54.23,54.23,0,0,1,21-46.22c5.85-6.29,8.55-7,9.93-6.37,4.15,2,.34,18.92-3.17,29.11a92.79,92.79,0,0,1-10.95,21.84q32.61,4.44,65.89,8.31A3399.54,3399.54,0,0,0,812.26,854s-47.14-33.65-25.84-38.85S848,855.81,848,855.81h14s-5.41-48.17,21.78-56.83-5.39,58.39-5.39,58.39h82.67s-43.54-32-22.24-40.52,42.6,40.52,42.6,40.52l594.84,21.44s-65.54-51.9-29.49-48.07,45.88,46.3,45.88,46.3h19.66s-17.94-38.66,9.88-46.3,0,48.07,0,48.07h91.72s-51-55.8-24.7-63.95,36.17,65.59,36.17,65.59l28.54-2.19s-10.51-54.41,25.54-49.87-7.92,53.88-7.92,53.88h418.23s-48.65-64.16-36.12-76.42S2199,882.27,2199,882.27h13.18s-41.4-55.9-22.37-64.09,32.13,64.09,32.13,64.09,1.64-53.31,32.78-53-20.34,53-20.34,53h115.38s-26.22-8.53-34.41-27.3,50.8,27.3,50.8,27.3-26.5-38.56,16.24-53-11,36.86-5.41,53H2399s-11.59-20.25,19.54-36.44c0,0-9.83,31.72,0,36.44s279.31,6.62,279.31,6.62v32.52l-2737.32-23Z" transform="translate(135.01 172.47)"/><rect class="cls-63" x="1449.81" y="755.35" width="1378.93" height="16.59"/><rect class="cls-63" x="1449.81" y="833.26" width="1378.2" height="16.59"/><rect class="cls-64" x="1449.81" y="723.92" width="14.39" height="175.22"/><rect class="cls-65" x="1496.57" y="723.92" width="14.39" height="175.22"/><rect class="cls-66" x="1551.59" y="723.92" width="14.39" height="175.22"/><rect class="cls-67" x="1600.66" y="723.92" width="14.39" height="175.22"/><rect class="cls-68" x="1647.42" y="723.92" width="14.39" height="175.22"/><rect class="cls-69" x="1702.43" y="723.92" width="14.39" height="175.22"/><rect class="cls-70" x="1762.15" y="723.92" width="14.39" height="175.22"/><rect class="cls-71" x="1808.91" y="723.92" width="14.39" height="175.22"/><rect class="cls-72" x="1863.92" y="723.92" width="14.39" height="175.22"/><rect class="cls-73" x="1913" y="723.92" width="14.39" height="175.22"/><rect class="cls-74" x="1959.75" y="723.92" width="14.39" height="175.22"/><rect class="cls-75" x="2014.77" y="723.92" width="14.39" height="175.22"/><rect class="cls-76" x="2085.73" y="723.92" width="14.39" height="175.22"/><rect class="cls-77" x="2132.49" y="723.92" width="14.39" height="175.22"/><rect class="cls-78" x="2187.5" y="723.92" width="14.39" height="175.22"/><rect class="cls-79" x="2236.57" y="723.92" width="14.39" height="175.22"/><rect class="cls-80" x="2283.33" y="723.92" width="14.39" height="175.22"/><rect class="cls-81" x="2338.35" y="723.92" width="14.39" height="175.22"/><rect class="cls-82" x="2395.13" y="723.92" width="14.39" height="175.22"/><rect class="cls-83" x="2441.89" y="723.92" width="14.39" height="175.22"/><rect class="cls-84" x="2496.9" y="723.92" width="14.39" height="175.22"/><rect class="cls-85" x="2545.97" y="723.92" width="14.39" height="175.22"/><rect class="cls-86" x="2592.73" y="723.92" width="14.39" height="175.22"/><rect class="cls-87" x="2647.74" y="723.92" width="14.39" height="175.22"/><rect class="cls-88" x="2712.44" y="723.92" width="14.39" height="175.22"/><rect class="cls-89" x="2779.32" y="723.92" width="14.39" height="175.22"/><rect class="cls-63" x="62.61" y="754.27" width="599.21" height="16.59"/><rect class="cls-63" x="62.61" y="832.18" width="599.21" height="16.59"/><rect class="cls-90" x="124.16" y="722.85" width="14.39" height="175.22"/><rect class="cls-91" x="179.18" y="722.85" width="14.39" height="175.22"/><rect class="cls-92" x="235.96" y="722.85" width="14.39" height="175.22"/><rect class="cls-93" x="282.72" y="722.85" width="14.39" height="175.22"/><rect class="cls-94" x="337.73" y="722.85" width="14.39" height="175.22"/><rect class="cls-95" x="386.8" y="722.85" width="14.39" height="175.22"/><rect class="cls-96" x="433.56" y="722.85" width="14.39" height="175.22"/><rect class="cls-97" x="488.58" y="722.85" width="14.39" height="175.22"/><rect class="cls-98" x="553.27" y="722.85" width="14.39" height="175.22"/><rect class="cls-99" x="620.15" y="722.85" width="14.39" height="175.22"/><path class="cls-100" d="M181.31,745.94s12.76-62.56,90.16-65,81.39,55.69,46.28,65C265.89,747.21,181.31,745.94,181.31,745.94Z" transform="translate(135.01 172.47)"/><path class="cls-101" d="M348.58,743.85s6.23-17.66,35.75-21.66,55.05,24.56,31.12,32.22c-60.64,3.68-66.87.57-66.87.57S336.77,749.55,348.58,743.85Z" transform="translate(135.01 172.47)"/><path class="cls-102" d="M266.18,750.39s-31.05-55.27-12.76-36.68,17.19,36.68,17.19,36.68-5.17-34.45,5.63-36.68-2.89,36.68-2.89,36.68,8.2-28.21,25.2-24.79-22.31,24.79-22.31,24.79" transform="translate(135.01 172.47)"/><path class="cls-102" d="M485.14,735.54s-39.32-9-24.55-18.47,28,18.47,28,18.47-17.81-30.08-3.42-34.3,7.19,34.3,7.19,34.3,21.55-41.26,25.78-28.49-21.64,28.49-21.64,28.49" transform="translate(135.01 172.47)"/><path class="cls-103" d="M1887,739.08" transform="translate(135.01 172.47)"/><path class="cls-104" d="M1894.14,741.76s8.14-46.63,25.93-44.58S1894.14,741.76,1894.14,741.76Z" transform="translate(135.01 172.47)"/><path class="cls-104" d="M1862.64,739.08s-31.94-48-30.7-61.69S1870.89,715.3,1862.64,739.08Z" transform="translate(135.01 172.47)"/><path class="cls-104" d="M1879.76,739s-22.56-39.84-17.12-50.74S1880.5,726.8,1879.76,739Z" transform="translate(135.01 172.47)"/><path class="cls-104" d="M1797.59,739.08s-2-63.19,24-70C1821.54,669.09,1795.54,729.67,1797.59,739.08Z" transform="translate(135.01 172.47)"/><path class="cls-104" d="M1788,739.08s-47.22-26.85-37-38.48S1760,698.2,1788,739.08Z" transform="translate(135.01 172.47)"/><path class="cls-104" d="M1229,661.73c-2.54,1.87-36.31-31.78-29.56-41.3s29.56,11.07,27,43.17" transform="translate(135.01 172.47)"/><path class="cls-104" d="M1242.68,665.32s-25.14-38-13.71-44.43S1242.68,665.32,1242.68,665.32Z" transform="translate(135.01 172.47)"/><path class="cls-104" d="M1251.24,662.48s12.44-37,26-33.38S1263.68,661.22,1251.24,662.48Z" transform="translate(135.01 172.47)"/><path class="cls-104" d="M717.57,662.82s-38.92-6.25-25.42-28.63S717.57,662.82,717.57,662.82Z" transform="translate(135.01 172.47)"/><path class="cls-104" d="M747,662s-9.53-34.67,13.51-32.51S747,662,747,662Z" transform="translate(135.01 172.47)"/><path class="cls-105" d="M-12.87,652.61s-9.92,3.06,20.36-47.87,88.8-37.68,62.56,53C41.8,745.29-14.43,849.18-14.43,849.18s49.16-65.66,112.74-124,95.86-11.47,43.39,48.62-115,115.09-115,115.09l92.84-39.72S95.28,859.37,173,826.77c37.34-8.14,38.35,55-11.1,66.21l-9.08,6.94-166.91.43Q-13.48,776.48-12.87,652.61Z" transform="translate(135.01 172.47)"/><path class="cls-106" d="M81.26,789s33.07-5.41,39.6-9.19C120.86,779.84,95.44,781.24,81.26,789Z" transform="translate(135.01 172.47)"/><path class="cls-106" d="M-26.89,877l167-147.92c-18.26,20.24-38.7,41.24-61.49,62.43A997.15,997.15,0,0,1-26.89,877Z" transform="translate(135.01 172.47)"/><path class="cls-106" d="M69.17,793.24s-1.52-26,2.63-32.2c0,0,2.64,23.55,0,27.88Z" transform="translate(135.01 172.47)"/><path class="cls-106" d="M24,830.74S32.48,801.61,35.75,799C35.75,799,31.32,824.34,24,830.74Z" transform="translate(135.01 172.47)"/><path class="cls-106" d="M-18.38,771.35,39.49,601Q-13.07,782.66-18.38,781.26-19.58,780.95-18.38,771.35Z" transform="translate(135.01 172.47)"/><path class="cls-106" d="M5.05,703.35s-15.39-45-15.72-50.31c0,0,16.63,36.35,17.5,45S5.05,703.35,5.05,703.35Z" transform="translate(135.01 172.47)"/><path class="cls-106" d="M-1.83,733l37.58-23.45S12,731.74-1.83,735-1.83,733-1.83,733Z" transform="translate(135.01 172.47)"/><path class="cls-106" d="M60.51,898.12s81.37-35.23,94-42.31c0,0-56.61,36.5-82.77,42.31S60.51,898.12,60.51,898.12Z" transform="translate(135.01 172.47)"/><path class="cls-106" d="M96.76,882.27l28.75-31.18S114.75,878.07,96.76,882.27Z" transform="translate(135.01 172.47)"/><path class="cls-105" d="M2694.25,650.57s9.92,3.06-20.36-47.87-88.8-37.68-62.56,53c28.25,87.59,84.48,191.48,84.48,191.48s-49.16-65.66-112.74-124-95.86-11.47-43.39,48.62,115,115.09,115,115.09l-92.84-39.72s24.22,10.19-53.48-22.41c-37.34-8.14-38.35,55,11.1,66.21l9.08,6.94,166.91.43Q2694.88,774.44,2694.25,650.57Z" transform="translate(135.01 172.47)"/><path class="cls-106" d="M2600.12,787s-33.07-5.41-39.6-9.19C2560.52,777.8,2585.94,779.2,2600.12,787Z" transform="translate(135.01 172.47)"/><path class="cls-106" d="M2708.27,875l-167-147.92c18.26,20.24,38.7,41.24,61.5,62.43A996.09,996.09,0,0,0,2708.27,875Z" transform="translate(135.01 172.47)"/><path class="cls-106" d="M2612.21,791.2s1.52-26-2.63-32.2c0,0-2.64,23.55,0,27.88Z" transform="translate(135.01 172.47)"/><path class="cls-106" d="M2657.37,828.7s-8.47-29.13-11.74-31.76C2645.63,796.94,2650.06,822.3,2657.37,828.7Z" transform="translate(135.01 172.47)"/><path class="cls-106" d="M2699.77,769.31q-29-85.17-57.88-170.34,52.56,181.65,57.88,180.25Q2701,778.91,2699.77,769.31Z" transform="translate(135.01 172.47)"/><path class="cls-106" d="M2676.33,701.31s15.39-45,15.72-50.31c0,0-16.63,36.35-17.5,45S2676.33,701.31,2676.33,701.31Z" transform="translate(135.01 172.47)"/><path class="cls-106" d="M2683.21,730.94l-37.58-23.45s23.74,22.21,37.58,25.5S2683.21,730.94,2683.21,730.94Z" transform="translate(135.01 172.47)"/><path class="cls-106" d="M2620.87,896.08s-81.37-35.23-94-42.31c0,0,56.61,36.5,82.77,42.31S2620.87,896.08,2620.87,896.08Z" transform="translate(135.01 172.47)"/><path class="cls-106" d="M2584.62,880.23l-28.75-31.18S2566.63,876,2584.62,880.23Z" transform="translate(135.01 172.47)"/><path class="cls-107" d="M1525,116.76s92.9-35.78,174.28-12.45c81.38,24.38,33.73,52.38-34.58,51.34,0,0-28,3.17-93.44,0S1481.19,133.87,1525,116.76Z" transform="translate(135.01 172.47)"/><path class="cls-108" d="M2007.8,26.27s92.9-35.78,174.28-12.45c81.38,24.37,33.73,52.38-34.58,51.34,0,0-28,3.17-93.44,0S1964,43.38,2007.8,26.27Z" transform="translate(135.01 172.47)"/><path class="cls-109" d="M890.72,87.66S919,83,961.86,77.22s79.72,37-3.42,38.83-33.43.92-76.29,0S845.8,94.47,890.72,87.66Z" transform="translate(135.01 172.47)"/><path class="cls-110" d="M724.43,53.51a205.85,205.85,0,0,1,88-17.18C867,37.84,920,61.55,916,74.61,913,84.6,876,91,854.72,91c-106.29,0-40.29,1.61-106.29,0-14.82-.36-33.36-3-39.29-10.85C703.67,72.94,710.32,62.16,724.43,53.51Z" transform="translate(135.01 172.47)"/></g></svg>