<svg id="Layer_1" data-name="Layer 1" xmlns="http://www.w3.org/2000/svg" xmlns:xlink="http://www.w3.org/1999/xlink" viewBox="0 0 2825.18 922"><defs><style>.cls-1{fill:none;}.cls-2{clip-path:url(#clip-path);}.cls-3{fill:url(#linear-gradient);}.cls-4{fill:#8fd6f3;}.cls-5{fill:url(#linear-gradient-2);}.cls-6{fill:url(#linear-gradient-3);}.cls-7{fill:url(#linear-gradient-4);}.cls-8{fill:#68bc45;}.cls-9{fill:url(#linear-gradient-5);}.cls-10{fill:url(#linear-gradient-6);}.cls-11{fill:url(#linear-gradient-7);}.cls-12{fill:url(#linear-gradient-8);}.cls-13{fill:url(#linear-gradient-9);}.cls-14{fill:url(#linear-gradient-10);}.cls-15{fill:url(#linear-gradient-11);}.cls-16{fill:url(#linear-gradient-12);}.cls-17{fill:url(#linear-gradient-13);}.cls-18{fill:url(#linear-gradient-14);}.cls-19{fill:url(#linear-gradient-15);}.cls-20{fill:#54c4d5;}.cls-21{fill:url(#linear-gradient-16);}.cls-22{fill:url(#linear-gradient-17);}.cls-23{fill:url(#linear-gradient-18);}.cls-24{fill:url(#linear-gradient-19);}.cls-25{fill:url(#linear-gradient-20);}.cls-26{fill:url(#linear-gradient-21);}.cls-27{fill:url(#linear-gradient-22);}.cls-28{fill:#20ac98;}.cls-29{fill:url(#linear-gradient-23);}.cls-30{fill:url(#linear-gradient-24);}.cls-31{fill:url(#linear-gradient-25);}.cls-32{fill:url(#linear-gradient-26);}.cls-33{fill:url(#linear-gradient-27);}.cls-34{fill:url(#linear-gradient-28);}.cls-35{fill:url(#linear-gradient-29);}.cls-36{fill:url(#linear-gradient-30);}.cls-37{fill:url(#linear-gradient-31);}.cls-38{fill:url(#linear-gradient-32);}.cls-39{fill:url(#linear-gradient-33);}.cls-40{fill:url(#linear-gradient-34);}.cls-41{fill:url(#linear-gradient-35);}.cls-42{fill:url(#linear-gradient-36);}.cls-43{fill:#42c68d;}.cls-44{fill:url(#linear-gradient-37);}.cls-45{fill:url(#linear-gradient-38);}.cls-46{fill:url(#linear-gradient-39);}.cls-47{fill:url(#linear-gradient-40);}.cls-48{fill:url(#linear-gradient-41);}.cls-49{fill:#874a41;}.cls-50{fill:url(#linear-gradient-42);}.cls-51{fill:url(#linear-gradient-43);}.cls-52{fill:url(#linear-gradient-44);}.cls-53{fill:#021e0b;}.cls-54{fill:url(#linear-gradient-45);}.cls-55{fill:url(#linear-gradient-46);}.cls-56{fill:url(#linear-gradient-47);}.cls-57{fill:url(#linear-gradient-48);}.cls-58{fill:url(#linear-gradient-49);}.cls-59{fill:url(#linear-gradient-50);}.cls-60{fill:#86ac35;}.cls-61{fill:#7bba5d;}.cls-62{fill:#0c8753;}.cls-63{fill:#474747;}.cls-64{fill:url(#linear-gradient-51);}.cls-65{fill:url(#linear-gradient-52);}.cls-66{fill:url(#linear-gradient-53);}.cls-67{fill:url(#linear-gradient-54);}.cls-68{fill:url(#linear-gradient-55);}.cls-69{fill:url(#linear-gradient-56);}.cls-70{fill:url(#linear-gradient-57);}.cls-71{fill:url(#linear-gradient-58);}.cls-72{fill:url(#linear-gradient-59);}.cls-73{fill:url(#linear-gradient-60);}.cls-74{fill:url(#linear-gradient-61);}.cls-75{fill:url(#linear-gradient-62);}</style><clipPath id="clip-path" transform="translate(54.18)"><rect class="cls-1" width="2693" height="900"/></clipPath><linearGradient id="linear-gradient" x1="1412.25" y1="663.6" x2="1384.04" y2="61.24" gradientUnits="userSpaceOnUse"><stop offset="0.29" stop-color="#a6d9ef"/><stop offset="0.53" stop-color="#9fd2eb"/><stop offset="0.89" stop-color="#8bbedf"/><stop offset="0.9" stop-color="#8abdde"/></linearGradient><linearGradient id="linear-gradient-2" x1="0.03" y1="552.79" x2="2693" y2="552.79" gradientUnits="userSpaceOnUse"><stop offset="0" stop-color="#8ad1ed"/><stop offset="1" stop-color="#8ad1ed"/></linearGradient><linearGradient id="linear-gradient-3" x1="54.18" y1="819.5" x2="2747.18" y2="819.5" gradientUnits="userSpaceOnUse"><stop offset="0.01" stop-color="#0c6021"/><stop offset="0.38" stop-color="#0c6525"/><stop offset="0.8" stop-color="#0d7331"/><stop offset="0.94" stop-color="#0e7936"/></linearGradient><linearGradient id="linear-gradient-4" x1="1957.88" y1="623.09" x2="1962.66" y2="533.81" gradientUnits="userSpaceOnUse"><stop offset="0.02" stop-color="#a78b40"/><stop offset="0.11" stop-color="#a18a41"/><stop offset="0.22" stop-color="#918644"/><stop offset="0.35" stop-color="#767f4a"/><stop offset="0.49" stop-color="#507652"/><stop offset="0.64" stop-color="#216b5b"/><stop offset="0.78" stop-color="#19675c"/><stop offset="0.97" stop-color="#14645c"/></linearGradient><linearGradient id="linear-gradient-5" x1="1956.72" y1="545.11" x2="1983.53" y2="531.56" gradientUnits="userSpaceOnUse"><stop offset="0" stop-color="#2c6f40"/><stop offset="1" stop-color="#1b936c"/></linearGradient><linearGradient id="linear-gradient-6" x1="1944.71" y1="567.24" x2="1966.95" y2="527.74" gradientUnits="userSpaceOnUse"><stop offset="0" stop-color="#096946"/><stop offset="0.17" stop-color="#0e6d46"/><stop offset="0.38" stop-color="#1e7746"/><stop offset="0.61" stop-color="#388847"/><stop offset="0.86" stop-color="#5ba048"/><stop offset="1" stop-color="#73b048"/></linearGradient><linearGradient id="linear-gradient-7" x1="1969.96" y1="562.28" x2="1998.71" y2="547.98" gradientUnits="userSpaceOnUse"><stop offset="0" stop-color="#1f8969"/><stop offset="0.23" stop-color="#238b68"/><stop offset="0.43" stop-color="#2e9064"/><stop offset="0.63" stop-color="#40985d"/><stop offset="0.83" stop-color="#5aa453"/><stop offset="1" stop-color="#78b248"/></linearGradient><linearGradient id="linear-gradient-8" x1="1928.72" y1="557.04" x2="1942.23" y2="550.14" xlink:href="#linear-gradient-7"/><linearGradient id="linear-gradient-9" x1="1928.89" y1="559.39" x2="1944.74" y2="552.76" gradientUnits="userSpaceOnUse"><stop offset="0" stop-color="#1f8969"/><stop offset="0.26" stop-color="#238b68"/><stop offset="0.5" stop-color="#2e9063"/><stop offset="0.72" stop-color="#40995c"/><stop offset="0.94" stop-color="#5aa551"/><stop offset="1" stop-color="#62a94e"/></linearGradient><linearGradient id="linear-gradient-10" x1="1448.31" y1="587.12" x2="1452.38" y2="511.27" xlink:href="#linear-gradient-4"/><linearGradient id="linear-gradient-11" x1="1447.67" y1="520.33" x2="1468.54" y2="509.78" xlink:href="#linear-gradient-5"/><linearGradient id="linear-gradient-12" x1="1438.1" y1="538.4" x2="1455.85" y2="506.86" xlink:href="#linear-gradient-6"/><linearGradient id="linear-gradient-13" x1="1457.92" y1="534.81" x2="1480.47" y2="523.59" xlink:href="#linear-gradient-7"/><linearGradient id="linear-gradient-14" x1="1425.75" y1="530.75" x2="1436.36" y2="525.34" xlink:href="#linear-gradient-7"/><linearGradient id="linear-gradient-15" x1="1425.89" y1="532.75" x2="1438.35" y2="527.54" xlink:href="#linear-gradient-9"/><linearGradient id="linear-gradient-16" x1="1009.72" y1="653.04" x2="1019.44" y2="471.78" gradientUnits="userSpaceOnUse"><stop offset="0.02" stop-color="#a38a40"/><stop offset="0.1" stop-color="#9c8842"/><stop offset="0.22" stop-color="#878346"/><stop offset="0.36" stop-color="#657b4d"/><stop offset="0.53" stop-color="#377056"/><stop offset="0.6" stop-color="#216b5b"/><stop offset="0.75" stop-color="#19675c"/><stop offset="0.97" stop-color="#14645c"/></linearGradient><linearGradient id="linear-gradient-17" x1="1007.93" y1="493.43" x2="1057.8" y2="468.23" xlink:href="#linear-gradient-5"/><linearGradient id="linear-gradient-18" x1="985.04" y1="536.61" x2="1027.48" y2="461.24" xlink:href="#linear-gradient-6"/><linearGradient id="linear-gradient-19" x1="1033.05" y1="526.1" x2="1078.23" y2="503.61" xlink:href="#linear-gradient-7"/><linearGradient id="linear-gradient-20" x1="955.54" y1="518.33" x2="980.89" y2="505.39" xlink:href="#linear-gradient-7"/><linearGradient id="linear-gradient-21" x1="955.88" y1="523.1" x2="985.66" y2="510.65" xlink:href="#linear-gradient-7"/><linearGradient id="linear-gradient-22" x1="-1" y1="750.79" x2="2693" y2="750.79" gradientUnits="userSpaceOnUse"><stop offset="0" stop-color="#0d5f3f"/><stop offset="0.07" stop-color="#206c39"/><stop offset="0.18" stop-color="#43842d"/><stop offset="0.34" stop-color="#4d832b"/><stop offset="0.63" stop-color="#698124"/><stop offset="0.96" stop-color="#917d1a"/></linearGradient><linearGradient id="linear-gradient-23" x1="2232.27" y1="677.46" x2="2296.58" y2="412.66" gradientUnits="userSpaceOnUse"><stop offset="0" stop-color="#a3513f"/><stop offset="0.08" stop-color="#9f513f"/><stop offset="0.18" stop-color="#915040"/><stop offset="0.27" stop-color="#7b4f40"/><stop offset="0.37" stop-color="#5d4e41"/><stop offset="0.47" stop-color="#364c43"/><stop offset="0.49" stop-color="#2d4c43"/></linearGradient><linearGradient id="linear-gradient-24" x1="2347.28" y1="465.42" x2="2423.92" y2="385.85" gradientUnits="userSpaceOnUse"><stop offset="0" stop-color="#0d5f3f"/><stop offset="0.16" stop-color="#07724a"/><stop offset="0.28" stop-color="#018455"/><stop offset="0.41" stop-color="#24995c"/><stop offset="0.56" stop-color="#43ac62"/><stop offset="0.68" stop-color="#56b766"/><stop offset="0.76" stop-color="#5dbb67"/></linearGradient><linearGradient id="linear-gradient-25" x1="2192.62" y1="503.72" x2="2368.77" y2="306.24" gradientUnits="userSpaceOnUse"><stop offset="0" stop-color="#0d5f3f"/><stop offset="0.27" stop-color="#157d66"/><stop offset="0.43" stop-color="#198a77"/><stop offset="0.76" stop-color="#23ab8c"/></linearGradient><linearGradient id="linear-gradient-26" x1="2119.03" y1="528.4" x2="2201.2" y2="425.92" xlink:href="#linear-gradient-24"/><linearGradient id="linear-gradient-27" x1="2119.03" y1="529.43" x2="2201.2" y2="426.96" gradientUnits="userSpaceOnUse"><stop offset="0.04" stop-color="#0d5e3f"/><stop offset="0.45" stop-color="#0d6f4f"/><stop offset="0.62" stop-color="#0c7455"/><stop offset="0.75" stop-color="#0a7a5d"/></linearGradient><linearGradient id="linear-gradient-28" x1="2873.04" y1="480.39" x2="2816.15" y2="365.08" gradientTransform="matrix(-1, 0, 0, 1, 5274.86, 0)" gradientUnits="userSpaceOnUse"><stop offset="0" stop-color="#0d5f3f"/><stop offset="0.05" stop-color="#07724a"/><stop offset="0.09" stop-color="#018455"/><stop offset="0.25" stop-color="#24995c"/><stop offset="0.42" stop-color="#43ac62"/><stop offset="0.57" stop-color="#56b766"/><stop offset="0.67" stop-color="#5dbb67"/></linearGradient><linearGradient id="linear-gradient-29" x1="2282.22" y1="518.35" x2="2336.76" y2="341.68" xlink:href="#linear-gradient-24"/><linearGradient id="linear-gradient-30" x1="2564.83" y1="640.21" x2="2577.05" y2="412.43" xlink:href="#linear-gradient-4"/><linearGradient id="linear-gradient-31" x1="2562.91" y1="439.66" x2="2625.58" y2="407.98" xlink:href="#linear-gradient-5"/><linearGradient id="linear-gradient-32" x1="2534.15" y1="493.92" x2="2587.48" y2="399.2" xlink:href="#linear-gradient-6"/><linearGradient id="linear-gradient-33" x1="2593.7" y1="483.14" x2="2661.42" y2="449.44" xlink:href="#linear-gradient-7"/><linearGradient id="linear-gradient-34" x1="2497.07" y1="470.94" x2="2528.93" y2="454.68" xlink:href="#linear-gradient-7"/><linearGradient id="linear-gradient-35" x1="2497.5" y1="476.94" x2="2534.92" y2="461.3" xlink:href="#linear-gradient-9"/><linearGradient id="linear-gradient-36" x1="196.03" y1="686.17" x2="325.67" y2="152.38" gradientUnits="userSpaceOnUse"><stop offset="0" stop-color="#a3513f"/><stop offset="0.13" stop-color="#8e4c38"/><stop offset="0.41" stop-color="#573e27"/><stop offset="0.61" stop-color="#2c3319"/></linearGradient><linearGradient id="linear-gradient-37" x1="4833.09" y1="279.98" x2="4722.12" y2="55.04" gradientTransform="matrix(-1, 0, 0, 1, 5274.86, 0)" gradientUnits="userSpaceOnUse"><stop offset="0.08" stop-color="#0d6c59"/><stop offset="0.76" stop-color="#2cb67d"/></linearGradient><linearGradient id="linear-gradient-38" x1="416.14" y1="248.64" x2="546.53" y2="113.26" xlink:href="#linear-gradient-24"/><linearGradient id="linear-gradient-39" x1="128.2" y1="316.65" x2="459.98" y2="-55.32" gradientUnits="userSpaceOnUse"><stop offset="0.16" stop-color="#176862"/><stop offset="0.32" stop-color="#18716a"/><stop offset="0.56" stop-color="#1c887f"/><stop offset="0.76" stop-color="#209f95"/></linearGradient><linearGradient id="linear-gradient-40" x1="-54.18" y1="259.95" x2="194.07" y2="259.95" gradientUnits="userSpaceOnUse"><stop offset="0" stop-color="#0d5e59"/><stop offset="0.25" stop-color="#0e655b"/><stop offset="0.48" stop-color="#10715e"/></linearGradient><linearGradient id="linear-gradient-41" x1="262.83" y1="330.21" x2="484.5" y2="40.79" gradientUnits="userSpaceOnUse"><stop offset="0.04" stop-color="#0d6c59"/><stop offset="0.19" stop-color="#10735d"/><stop offset="0.41" stop-color="#198867"/><stop offset="0.67" stop-color="#27a977"/><stop offset="0.76" stop-color="#2cb67d"/></linearGradient><linearGradient id="linear-gradient-42" x1="-18.66" y1="677.84" x2="401.77" y2="468.61" gradientUnits="userSpaceOnUse"><stop offset="0.01" stop-color="#1c6c54"/><stop offset="0.77" stop-color="#4e8846"/></linearGradient><linearGradient id="linear-gradient-43" x1="1822.33" y1="728.53" x2="2437.69" y2="571.84" gradientUnits="userSpaceOnUse"><stop offset="0" stop-color="#1b8275"/><stop offset="0.77" stop-color="#179579"/></linearGradient><linearGradient id="linear-gradient-44" x1="2423.55" y1="736.93" x2="2769.33" y2="560.21" gradientUnits="userSpaceOnUse"><stop offset="0" stop-color="#137963"/><stop offset="0.77" stop-color="#2a8e63"/></linearGradient><linearGradient id="linear-gradient-45" x1="110.37" y1="784.43" x2="278.12" y2="698.69" gradientUnits="userSpaceOnUse"><stop offset="0.01" stop-color="#815022"/><stop offset="0.14" stop-color="#8d5723"/><stop offset="0.59" stop-color="#b66f27"/><stop offset="0.83" stop-color="#c57829"/></linearGradient><linearGradient id="linear-gradient-46" x1="66.21" y1="747.89" x2="137.43" y2="747.89" xlink:href="#linear-gradient-45"/><linearGradient id="linear-gradient-47" x1="-25.42" y1="718.56" x2="46.28" y2="718.56" gradientUnits="userSpaceOnUse"><stop offset="0.01" stop-color="#3d833f"/><stop offset="0.55" stop-color="#659840"/><stop offset="0.83" stop-color="#74a040"/></linearGradient><linearGradient id="linear-gradient-48" x1="-6" y1="765.52" x2="87.06" y2="765.52" xlink:href="#linear-gradient-47"/><linearGradient id="linear-gradient-49" x1="19.8" y1="757.34" x2="97.6" y2="717.57" xlink:href="#linear-gradient-47"/><linearGradient id="linear-gradient-50" x1="55" y1="772.29" x2="158.46" y2="772.29" xlink:href="#linear-gradient-47"/><linearGradient id="linear-gradient-51" x1="53.16" y1="723.99" x2="3035.4" y2="659.8" gradientUnits="userSpaceOnUse"><stop offset="0.01" stop-color="#24374e"/><stop offset="0.21" stop-color="#293b52"/><stop offset="0.44" stop-color="#37485e"/><stop offset="0.69" stop-color="#4e5d71"/><stop offset="0.94" stop-color="#6e7a8c"/><stop offset="0.94" stop-color="#6e7a8c"/></linearGradient><linearGradient id="linear-gradient-52" x1="108.92" y1="793.5" x2="295.23" y2="698.28" gradientUnits="userSpaceOnUse"><stop offset="0.01" stop-color="#4f321c"/><stop offset="0.39" stop-color="#8d5723"/><stop offset="0.68" stop-color="#b56f27"/><stop offset="0.83" stop-color="#c57829"/></linearGradient><linearGradient id="linear-gradient-53" x1="64.21" y1="755.89" x2="135.43" y2="755.89" xlink:href="#linear-gradient-52"/><linearGradient id="linear-gradient-54" x1="262.82" y1="768.26" x2="327.62" y2="768.26" xlink:href="#linear-gradient-52"/><linearGradient id="linear-gradient-55" x1="-27.42" y1="726.56" x2="44.28" y2="726.56" xlink:href="#linear-gradient-47"/><linearGradient id="linear-gradient-56" x1="-8" y1="773.52" x2="85.06" y2="773.52" xlink:href="#linear-gradient-47"/><linearGradient id="linear-gradient-57" x1="17.8" y1="765.34" x2="95.6" y2="725.57" xlink:href="#linear-gradient-47"/><linearGradient id="linear-gradient-58" x1="53" y1="780.29" x2="156.46" y2="780.29" xlink:href="#linear-gradient-47"/><linearGradient id="linear-gradient-59" x1="725.57" y1="335.14" x2="865.4" y2="195.22" gradientUnits="userSpaceOnUse"><stop offset="0.23" stop-color="#91bce1"/><stop offset="1" stop-color="#d7eef4"/></linearGradient><linearGradient id="linear-gradient-60" x1="1416.49" y1="862.78" x2="1615.81" y2="663.31" gradientTransform="matrix(0.96, -0.06, 0.03, 0.5, -8.87, -154.06)" gradientUnits="userSpaceOnUse"><stop offset="0.42" stop-color="#8eb7dd"/><stop offset="0.43" stop-color="#90b9de"/><stop offset="0.68" stop-color="#b9dbf0"/><stop offset="0.88" stop-color="#d2f0fb"/><stop offset="1" stop-color="#dbf8ff"/></linearGradient><linearGradient id="linear-gradient-61" x1="2076.79" y1="2448.53" x2="2236.41" y2="2288.8" gradientTransform="matrix(0.98, -0.03, 0.01, 0.3, -50.2, -407.38)" gradientUnits="userSpaceOnUse"><stop offset="0.43" stop-color="#8eb7dd"/><stop offset="0.45" stop-color="#90b9de"/><stop offset="0.69" stop-color="#b9dbf0"/><stop offset="0.88" stop-color="#d2f0fb"/><stop offset="1" stop-color="#dbf8ff"/></linearGradient><linearGradient id="linear-gradient-62" x1="2539.13" y1="279.48" x2="2728.51" y2="89.96" gradientUnits="userSpaceOnUse"><stop offset="0.57" stop-color="#8eb7dd"/><stop offset="0.57" stop-color="#90b9de"/><stop offset="0.75" stop-color="#b9dbf0"/><stop offset="0.89" stop-color="#d2f0fb"/><stop offset="0.98" stop-color="#dbf8ff"/></linearGradient></defs><g class="cls-2"><rect class="cls-3" x="54.18" width="2693" height="833"/><path class="cls-4" d="M1763,589S1965,465.07,2215,447s478,86,478,86V695l-1002,8S1633,668.91,1763,589Z" transform="translate(54.18)"/><path class="cls-5" d="M0,463.9s75-17.39,275,10.86,286,12.05,380-10.86,324-88.7,680-28.8,276,124.32,842,139.11c0,0,212,10.59,432-27.31,0,0,72-13.9,84-13.9V695H0Z" transform="translate(54.18)"/><polygon class="cls-6" points="54.21 750.79 1937.18 737 2747.18 743.89 2747.18 902 54.18 900 54.21 750.79"/><path class="cls-7" d="M1983.5,556.18c-2,3.5-8.51,5.88-11.71,3.48a1.26,1.26,0,0,0-1.5-.19c-4.75,1.35-4.54,5.36-4.54,5.36,4.57,35,1.47,55.94,1.47,55.94H1952.9c-1.85-11,.2-34.72.83-41.62.16-1.79-.53-10-.53-10s-1.1-5.28-2-6.65a15.45,15.45,0,0,0-3.43-3.68c-11.92-.49-7.73-1.77-7.73-1.77.61.46,7.38,0,8-.34s-2.62-9.58-2.62-9.58h2.3c.35,2.85,2.78,9.76,2.78,9.76,1.73.66,4.12-9,4.12-9h2.3s-3.87,7.73-2.2,7,4.32-6.32,4.32-6.32h1.77s-2.75,6.4-5.12,7.88-.9,2.37-.9,2.37c7.11,2.94,7.17-10.25,7.17-10.25h1.24c-.79,6.72.36,9.52.36,9.52,6,1,7.43-9.52,7.43-9.52l1.94-.68c.22,3-1.52,8.56-1.52,8.56a4.09,4.09,0,0,0,4,2.39c1.89.06,4.74-3.91,5.53-4.61Z" transform="translate(54.18)"/><path class="cls-8" d="M1983.88,539.19s-3.6-7.62-16.92-6.61-19.67,7.51,6.77,8.75C1973.73,541.33,1986,543.57,1983.88,539.19Z" transform="translate(54.18)"/><path class="cls-9" d="M1983.88,539.46s-3.64-7.62-17.13-6.61-19.92,7.51,6.85,8.75C1973.6,541.6,1986,543.84,1983.88,539.46Z" transform="translate(54.18)"/><path class="cls-8" d="M1936.92,546.54s6.19,1.45,24.94,2.23c18,.75,18.36-2.55,18.36-2.55s3.91-7.58-12.29-9.86C1953,534.27,1925.64,540.16,1936.92,546.54Z" transform="translate(54.18)"/><path class="cls-10" d="M1936.92,546.92s6.19,1.46,24.94,2.25c18,.75,18.36-2.58,18.36-2.58s3.91-7.63-12.29-9.93C1953,534.55,1925.64,540.48,1936.92,546.92Z" transform="translate(54.18)"/><path class="cls-8" d="M1976.35,555.87s11.13,1.27,20.58,0,3.43-7.53,0-8.29c-3.58-.79-11.94-1.11-21.85,4.43C1968.75,555.55,1976.35,555.87,1976.35,555.87Z" transform="translate(54.18)"/><path class="cls-11" d="M1976.26,555.89s11,1.23,20.4,0,3.4-7.3,0-8c-3.55-.77-11.84-1.07-21.66,4.3C1968.73,555.57,1976.26,555.89,1976.26,555.89Z" transform="translate(54.18)"/><path class="cls-12" d="M1937.58,552.18s-7.49-1.88-8.46,2.4c-.29,1.27,1.35,1.66,4.44,1.71C1936.35,556.33,1946.45,553.79,1937.58,552.18Z" transform="translate(54.18)"/><path class="cls-8" d="M1930.11,557.7a19.47,19.47,0,0,0,11.22-.5c3.41-1.12,2.69-4.54-.83-4.54S1926.84,555.34,1930.11,557.7Z" transform="translate(54.18)"/><path class="cls-13" d="M1929.81,558.05a20,20,0,0,0,11.48-.52c3.48-1.15,2.74-4.66-.86-4.66S1926.46,555.62,1929.81,558.05Z" transform="translate(54.18)"/><path class="cls-14" d="M1468.56,530.24c-1.58,3-6.64,5-9.14,3a.92.92,0,0,0-1.17-.17,4.73,4.73,0,0,0-3.55,4.56c3.57,29.75,1.15,47.58,1.15,47.58h-11.18c-1.44-9.39.16-29.52.65-35.39.13-1.53-.42-8.5-.42-8.5s-.85-4.49-1.53-5.66a12.72,12.72,0,0,0-2.68-3.13c-9.3-.42-6-1.51-6-1.51.48.39,5.76,0,6.24-.29s-2.05-8.14-2.05-8.14h1.79a68.27,68.27,0,0,0,2.18,8.3c1.35.56,3.21-7.67,3.21-7.67h1.8s-3,6.57-1.72,6,3.37-5.37,3.37-5.37h1.39s-2.15,5.44-4,6.69-.71,2-.71,2c5.56,2.51,5.6-8.71,5.6-8.71h1c-.62,5.71.28,8.09.28,8.09,4.7.85,5.8-8.09,5.8-8.09l1.52-.58c.17,2.5-1.19,7.28-1.19,7.28a3.23,3.23,0,0,0,3.09,2c1.47,0,3.7-3.33,4.31-3.92Z" transform="translate(54.18)"/><path class="cls-8" d="M1468.86,515.79s-2.81-6.49-13.21-5.63-15.35,6.39,5.28,7.44C1460.93,517.6,1470.51,519.51,1468.86,515.79Z" transform="translate(54.18)"/><path class="cls-15" d="M1468.85,516s-2.84-6.49-13.37-5.63-15.54,6.39,5.35,7.44C1460.83,517.83,1470.52,519.74,1468.85,516Z" transform="translate(54.18)"/><path class="cls-8" d="M1432.2,522s4.83,1.24,19.47,1.9c14,.64,14.33-2.17,14.33-2.17s3-6.44-9.59-8.38C1444.77,511.6,1423.39,516.61,1432.2,522Z" transform="translate(54.18)"/><path class="cls-16" d="M1432.2,522.36s4.83,1.24,19.47,1.91c14,.64,14.33-2.19,14.33-2.19s3-6.49-9.59-8.45C1444.77,511.84,1423.39,516.89,1432.2,522.36Z" transform="translate(54.18)"/><path class="cls-8" d="M1463,530a71.09,71.09,0,0,0,16.06,0c7.38-1.08,2.68-6.41,0-7.06s-9.32-.94-17,3.77C1457.05,529.7,1463,530,1463,530Z" transform="translate(54.18)"/><path class="cls-17" d="M1462.91,530a71.85,71.85,0,0,0,15.92,0c7.31-1,2.65-6.21,0-6.84s-9.24-.91-16.9,3.65C1457,529.72,1462.91,530,1462.91,530Z" transform="translate(54.18)"/><path class="cls-18" d="M1432.71,526.84s-5.84-1.6-6.6,2c-.22,1.07,1.05,1.41,3.47,1.45C1431.76,530.36,1439.64,528.21,1432.71,526.84Z" transform="translate(54.18)"/><path class="cls-8" d="M1426.88,531.53a14,14,0,0,0,8.77-.43c2.66-1,2.09-3.86-.66-3.86S1424.33,529.52,1426.88,531.53Z" transform="translate(54.18)"/><path class="cls-19" d="M1426.65,531.83a14.3,14.3,0,0,0,9-.45c2.72-1,2.14-4-.67-4S1424,529.76,1426.65,531.83Z" transform="translate(54.18)"/><path class="cls-20" d="M439,522.1S826,509,1168,537.49,1532,604,1797,597s438,7.69,667,.84L2693,589V695L175,674Z" transform="translate(54.18)"/><path class="cls-21" d="M1058.37,517c-3.77,7.1-16.41,12.08-22.38,7.2-1.62-1.33-2.78-.38-2.78-.38-8.87,2.75-8.48,10.89-8.48,10.89,8.52,71.08,2.74,113.7,2.74,113.7h-26.72c-3.44-22.44.39-70.56,1.56-84.58.31-3.65-1-20.31-1-20.31s-2-10.74-3.67-13.52a30.31,30.31,0,0,0-6.39-7.48c-22.23-1-14.42-3.61-14.42-3.61,1.15.94,13.76.06,14.91-.69s-4.9-19.46-4.9-19.46h4.29c.66,5.8,5.2,19.83,5.2,19.83,3.22,1.35,7.67-18.33,7.67-18.33h4.3s-7.22,15.71-4.1,14.22,8.06-12.83,8.06-12.83h3.3s-5.13,13-9.56,16-1.68,4.82-1.68,4.82c13.27,6,13.38-20.82,13.38-20.82H1020c-1.47,13.65.67,19.34.67,19.34,11.24,2,13.86-19.34,13.86-19.34l3.63-1.39c.41,6-2.83,17.4-2.83,17.4s1.47,4.67,7.37,4.86c3.53.11,8.84-8,10.31-9.38Z" transform="translate(54.18)"/><path class="cls-8" d="M1058.55,482.48s-6.66-15.4-31.34-13.37-36.44,15.18,12.54,17.67C1039.75,486.78,1062.47,491.31,1058.55,482.48Z" transform="translate(54.18)"/><path class="cls-22" d="M1058.54,483.12s-6.79-15.5-32-13.44-37.14,15.27,12.78,17.77C1039.37,487.45,1062.54,492,1058.54,483.12Z" transform="translate(54.18)"/><path class="cls-8" d="M970.94,497.5s11.5,3,46.33,4.54c33.37,1.52,34.12-5.19,34.12-5.19s7.26-15.4-22.84-20C1000.86,472.57,950,484.53,970.94,497.5Z" transform="translate(54.18)"/><path class="cls-23" d="M971,498.27s11.55,3,46.52,4.57c33.5,1.53,34.26-5.23,34.26-5.23s7.28-15.52-22.93-20.18C1001,473.13,949.91,485.2,971,498.27Z" transform="translate(54.18)"/><path class="cls-8" d="M1043.41,516.62s17.18,2.25,31.77,0,5.29-13.38,0-14.73c-5.53-1.41-18.44-2-33.73,7.87C1031.68,516,1043.41,516.62,1043.41,516.62Z" transform="translate(54.18)"/><path class="cls-24" d="M1043.09,516.65s17.21,2.18,31.82,0,5.29-13,0-14.27c-5.54-1.37-18.47-1.92-33.78,7.62C1031.35,516.09,1043.09,516.65,1043.09,516.65Z" transform="translate(54.18)"/><path class="cls-25" d="M972.18,509s-14-3.82-15.77,4.88c-.54,2.57,2.51,3.37,8.28,3.47C969.89,517.41,988.73,512.25,972.18,509Z" transform="translate(54.18)"/><path class="cls-8" d="M957.69,520.19s9.27,3.19,21.41-1c6.5-2.27,5.12-9.17-1.6-9.17S951.45,515.41,957.69,520.19Z" transform="translate(54.18)"/><path class="cls-26" d="M957.69,520.9s9.27,3.3,21.41-1.06c6.5-2.34,5.12-9.47-1.6-9.47S951.45,516,957.69,520.9Z" transform="translate(54.18)"/><path class="cls-27" d="M-1,803s116-4,648-18,786,10,894,18,306,3.4,272-22.3,86-23.7,189-17.7,250.17-15.64,437.58-3.82S2693,773,2693,773V695H0Z" transform="translate(54.18)"/><path class="cls-28" d="M1871,626s259.84-35,747.92,5l74.08,3.38V695l-896-7.47Z" transform="translate(54.18)"/><path class="cls-28" d="M0,574.21s281-87,557-52.11,286.93,88.36,399.47,99.63S1179,615,1273,597s276.15-25.23,542.08,51.38L1883,669.25-1,674.35Z" transform="translate(54.18)"/><path class="cls-29" d="M2242.76,487.34s16.84,9.86,16.52,24.19c-.06,2.52.16,10.22-5.53,13.59-4,2.34-8.75,1.41-9.47,1.26-8.93-1.86-14.25-11.75-19.46-21.44-4.27-7.93-6.22-14.11-11.29-14.8-.6-.08-2.57-.35-3.78.69-3.77,3.23,2.74,16.55,10,25.95,5.73,7.38,10.71,10.75,9.42,15.24-1,3.48-5.1,5.25-5.5,5.42-3.28,1.36-6.94.91-12.08-.91A60.29,60.29,0,0,1,2192,525a253.53,253.53,0,0,1-29.35-33l-4.39,4,8.16,12.41a24.11,24.11,0,0,0-15.07-10.15,24.46,24.46,0,0,0-9.42,0,44.77,44.77,0,0,1,17.58,10.72c6.36,6.52,6.66,11.63,13.19,20.87a74,74,0,0,0,15.07,15.8c15.18,11.35,35.6,11.05,45.84,10.15,4.27.47,10,1.77,14.44,5.64,8.92,7.75,7,20.68,4.47,36.16-4.17,25.37-17.14,56.23-23.23,62.6-5.68,5.93,67.39,14.09,87,8.65,12.87-.09,18.4-3.72,21.09-6.7,16.17-18-30.4-57.1-17.16-101.83,1.42-4.82,6.15-20.8,19.46-25.39,7.86-2.71,11.46,1,22.61,0,21.68-2,35.85-18.85,37-20.31,11-13.49,14.22-32.91,14.22-32.91h0l-9.36,1.22c-.43,3.41-3,21.37-18,28.3-1.78.82-10,4.62-15,1.53-7.06-4.33-2.73-19-1.93-20.43,3-5.27,10.07-15.32,10.07-15.32l-23.27,2.63c1.1,12.72-3.88,23.91-13.38,28.58-1.26.62-8.51,4.19-14.27,1.53-7-3.22-9.94-14.71-4.51-28l-8.56-2.81s-5.25,44.6-13.11,49.18c-13.6,7.94-23.68-19.08-20.15-46.37H2272s6.55,29.84-1.51,19.18-16.13-13.46-16.13-13.46h0" transform="translate(54.18)"/><path class="cls-30" d="M2333.15,423.24s17.06-7.67,43.87-7.56,56.84,17.06,48.56,27.84-13.35,17-50.51,16.89S2295.62,443.83,2333.15,423.24Z" transform="translate(54.18)"/><path class="cls-8" d="M2326.43,368.22c71.54,19.26,78.64,42.3,77.18,52.85,0,0,.15,18.07-73.7,36.32h0s-43.31,14.93-123.3,7.09c-24.28-2.37-64.32-11.81-69.86-32.91-4.08-15.52,12.59-31.33,18.61-37C2204.46,347.94,2302.37,363.81,2326.43,368.22Z" transform="translate(54.18)"/><path class="cls-31" d="M2324.18,368.65c71.54,19.22,78.65,42.17,77.2,52.67,0,0,.16,18-73.68,36.14h0s-43.3,14.86-123.29,7c-24.28-2.37-64.33-11.79-69.88-32.8-4.08-15.46,12.58-31.2,18.6-36.89C2202.2,348.41,2300.11,364.25,2324.18,368.65Z" transform="translate(54.18)"/><path class="cls-32" d="M2092.34,480.19s-3.73-14.35,13.42-26.82c9.66-7,39.63-26.06,71.89-6.52,37,22.42,77.06,47.46,21,49.59S2098.19,499.08,2092.34,480.19Z" transform="translate(54.18)"/><path class="cls-33" d="M2092.34,481.23s-3.73-14.35,13.42-26.82c9.66-7,39.63-26.06,71.89-6.53,37,22.42,77.06,47.47,21,49.6S2098.19,500.11,2092.34,481.23Z" transform="translate(54.18)"/><path class="cls-8" d="M2463.55,476.5s-18.91,4.59-103.15,5.16l.14-60.61c2-.56,16.42-3.53,53,6.62,44.43,12.34,83.36,38.67,54.6,47.61" transform="translate(54.18)"/><path class="cls-34" d="M2463.3,477.6s-18.91,4.6-103.15,5.16l.13-60.6c2-.56,16.43-3.53,53,6.62,44.43,12.33,83.36,38.67,54.6,47.61" transform="translate(54.18)"/><path class="cls-8" d="M2228.9,494.27c8,1,9.31.63,40.34.6,6.61,0,34.68,0,91.13-1.61,23.74-.67,59.51-5.54,69.24-9.57,3.25-1.35,9.73-4.57,10-13.4.53-20.14-19.08-31.73-25.26-37.37-5.77-5.27-20.36-11.63-24.23-13-47.16-17.11-85.49-22.32-85.49-22.32-9.17-1.89-81.46-15.86-122.67,23.14-3.79,3.58-27.1,25.37-20.27,44.3C2169.5,486.8,2212.77,492.24,2228.9,494.27Z" transform="translate(54.18)"/><path class="cls-35" d="M2227.61,496.17c8,1,9.31.63,40.35.6,6.6,0,34.68,0,91.13-1.61,23.74-.67,59.51-5.54,69.24-9.57,3.25-1.35,9.73-4.57,10-13.4.53-20.14-19.09-31.73-25.27-37.37-5.76-5.27-20.35-11.63-24.22-13-47.16-17.12-85.49-22.32-85.49-22.32-9.17-1.89-81.46-15.86-122.68,23.14-3.79,3.58-27.09,25.37-20.27,44.3C2168.22,488.7,2211.49,494.14,2227.61,496.17Z" transform="translate(54.18)"/><path class="cls-36" d="M2625.64,469.41c-4.74,8.93-20,15-27.46,8.88-2-1.67-3.5-.49-3.5-.49-11.15,3.46-10.66,13.69-10.66,13.69,10.71,89.33,3.45,142.89,3.45,142.89h-33.58c-4.32-28.21.49-88.67,2-106.3.39-4.59-1.25-25.52-1.25-25.52s-2.56-13.49-4.62-17a38.13,38.13,0,0,0-8-9.41c-27.94-1.27-18.12-4.53-18.12-4.53,1.44,1.17,17.29.07,18.74-.87s-6.16-24.46-6.16-24.46h5.39c.83,7.29,6.53,24.93,6.53,24.93,4.05,1.69,9.65-23,9.65-23h5.39s-9.06,19.75-5.15,17.87,10.13-16.13,10.13-16.13h4.15s-6.45,16.35-12,20.11-2.12,6.06-2.12,6.06c16.69,7.52,16.82-26.17,16.82-26.17h2.91c-1.86,17.16.83,24.31.83,24.31,14.12,2.55,17.42-24.31,17.42-24.31l4.56-1.74c.52,7.53-3.56,21.86-3.56,21.86s1.86,5.88,9.27,6.11c4.43.14,11.11-10,13-11.79Z" transform="translate(54.18)"/><path class="cls-8" d="M2626.52,426s-8.42-19.47-39.66-16.9-46.1,19.19,15.87,22.34C2602.73,431.45,2631.48,437.18,2626.52,426Z" transform="translate(54.18)"/><path class="cls-37" d="M2626.52,426.7s-8.54-19.47-40.16-16.9-46.67,19.19,16.07,22.34C2602.43,432.14,2631.54,437.87,2626.52,426.7Z" transform="translate(54.18)"/><path class="cls-8" d="M2516.45,444.77s14.51,3.71,58.45,5.7c42.1,1.91,43-6.52,43-6.52s9.15-19.35-28.81-25.17C2554.2,413.43,2490,428.47,2516.45,444.77Z" transform="translate(54.18)"/><path class="cls-38" d="M2516.45,445.73s14.51,3.75,58.45,5.75c42.1,1.93,43-6.57,43-6.57s9.15-19.51-28.81-25.37C2554.2,414.15,2490,429.31,2516.45,445.73Z" transform="translate(54.18)"/><path class="cls-8" d="M2608.87,468.61s26.1,3.24,48.25,0,8-19.23,0-21.17c-8.4-2-28-2.84-51.23,11.31C2591.06,467.78,2608.87,468.61,2608.87,468.61Z" transform="translate(54.18)"/><path class="cls-39" d="M2608.67,468.66s25.87,3.14,47.82,0,8-18.65,0-20.53c-8.33-2-27.75-2.76-50.77,11C2591,467.85,2608.67,468.66,2608.67,468.66Z" transform="translate(54.18)"/><path class="cls-40" d="M2518,459.19s-17.56-4.8-19.83,6.13c-.67,3.22,3.16,4.23,10.42,4.35C2515.11,469.78,2538.79,463.3,2518,459.19Z" transform="translate(54.18)"/><path class="cls-8" d="M2500.48,473.29s11.4,4,26.32-1.3c8-2.86,6.29-11.58-2-11.58S2492.81,467.26,2500.48,473.29Z" transform="translate(54.18)"/><path class="cls-41" d="M2499.78,474.17s11.65,4.15,26.9-1.33c8.16-2.94,6.43-11.9-2-11.9S2491.94,468,2499.78,474.17Z" transform="translate(54.18)"/><path class="cls-42" d="M224.2,297.82s31.09,20.27,30.5,49.73c-.1,5.17.3,21-10.21,27.91-7.31,4.81-16.15,2.9-17.48,2.59-16.5-3.82-26.32-24.15-35.95-44.06-7.87-16.29-11.48-29-20.83-30.4-1.12-.17-4.75-.72-7,1.42-7,6.63,5.06,34,18.55,53.33,10.58,15.16,19.77,22.09,17.39,31.3-1.85,7.17-9.43,10.8-10.15,11.14-6.07,2.81-12.82,1.88-22.31-1.86a109.94,109.94,0,0,1-36.25-23.79c-23.62-24.4-42.51-50.49-54.19-67.81l-8.11,8.12L83.24,341c-1.91-3.18-10.73-17.09-27.83-20.87a40.92,40.92,0,0,0-17.39,0c8.89,3.41,21.71,9.76,32.46,22C82.23,355.51,82.77,366,94.83,385c9,14.13,19.76,25.75,27.83,32.46,28,23.32,65.73,22.72,84.64,20.87,7.88,1,18.43,3.64,26.66,11.59,16.47,15.91,12.94,42.5,8.25,74.3-7.68,52.14-31.64,115.56-42.89,128.65-10.48,12.19,124.44,29,160.73,17.78,23.75-.18,34-7.64,38.93-13.78C428.85,620,342.86,539.54,367.3,447.61c2.63-9.89,11.36-42.74,35.94-52.17,14.5-5.57,21.15,2.15,41.74,0,40-4.18,66.19-38.73,68.4-41.74,20.38-27.72,26.26-67.63,26.26-67.63h0l-17.28,2.52c-.8,7-5.62,43.9-33.32,58.15-3.29,1.69-18.43,9.49-27.71,3.15-13-8.91-5-39.15-3.58-42,5.59-10.83,18.61-31.48,18.61-31.48l-43,5.4c2,26.14-7.15,49.13-24.69,58.73-2.34,1.29-15.73,8.61-26.37,3.15-12.87-6.62-18.35-30.23-8.31-57.63l-15.82-5.77S348.51,372,334,381.37c-25.12,16.31-43.73-39.22-37.22-95.3H278.17s12.1,61.33-2.79,39.42-29.78-27.67-29.78-27.67h0" transform="translate(54.18)"/><path class="cls-43" d="M580.32,229.28s-34.92,9.45-190.47,10.61l.25-124.54c3.67-1.16,30.33-7.26,97.86,13.6,82,25.34,153.92,79.47,100.81,97.84" transform="translate(54.18)"/><path class="cls-44" d="M579.85,231.56S544.94,241,389.38,242.17l.26-124.55c3.66-1.15,30.32-7.26,97.85,13.61,82,25.34,153.92,79.46,100.82,97.84" transform="translate(54.18)"/><path class="cls-45" d="M561.76,207.78c-15.3,22.16-24.64,34.9-93.25,34.7S321.8,208.41,391.1,166.1c0,0,31.51-15.77,81-15.53" transform="translate(54.18)"/><path class="cls-43" d="M378.7,53c131.36,39.37,145.93,81.09,142.51,108.62,0,0,.28,37.14-136.09,74.63h0s-80,30.69-227.67,14.59c-44.83-4.89-118.77-24.29-129-67.64-7.52-31.89,23.24-64.38,34.37-76.13C153.48,11.36,334.27,44,378.7,53Z" transform="translate(54.18)"/><path class="cls-46" d="M374.54,53.92C506.63,93.4,519.77,140.56,517.09,162.16c0,0,.29,37-136,74.27h0s-80,30.52-227.66,14.43c-44.82-4.89-118.77-24.24-129-67.42-7.54-31.77,23.21-64.11,34.33-75.81C149.31,12.32,330.1,44.87,374.54,53.92Z" transform="translate(54.18)"/><path class="cls-43" d="M-53.55,283.13S-60.43,253.65-28.78,228c17.85-14.45,73.19-53.55,132.75-13.41,68.36,46.08,142.29,97.55,38.71,101.92S-42.74,322-53.55,283.13Z" transform="translate(54.18)"/><path class="cls-47" d="M-53.55,285.26s-6.88-29.49,24.77-55.11C-10.93,215.7,44.41,176.6,104,216.74c68.36,46.07,142.29,97.55,38.71,101.92S-42.74,324.08-53.55,285.26Z" transform="translate(54.18)"/><path class="cls-43" d="M198.6,312.07c14.72,2.07,17.19,1.28,74.5,1.23,12.19,0,64,0,168.27-3.31,43.84-1.37,109.88-11.38,127.85-19.66,6-2.77,18-9.39,18.39-27.55,1-41.38-35.24-65.19-46.65-76.79-10.65-10.82-37.59-23.91-44.73-26.79C409.15,124,338.37,113.32,338.37,113.32,321.44,109.43,188,80.74,111.85,160.87c-7,7.37-50,52.15-37.43,91C88.93,296.71,168.83,307.9,198.6,312.07Z" transform="translate(54.18)"/><path class="cls-48" d="M196.23,316c14.72,2.06,17.19,1.28,74.5,1.22,12.19,0,64,0,168.27-3.3,43.84-1.38,109.88-11.39,127.85-19.67,6-2.76,18-9.39,18.39-27.55,1-41.37-35.24-65.19-46.65-76.79C527.94,179.07,501,166,493.85,163.1,406.78,127.93,336,117.23,336,117.23c-16.94-3.89-150.42-32.59-226.52,47.54-7,7.37-50,52.16-37.43,91C86.56,300.62,166.45,311.81,196.23,316Z" transform="translate(54.18)"/><path class="cls-49" d="M363,487.3s.35,31.13,17.79,74.45S415.7,635.89,399,656.88s-93.56,17.45-93.56,17.45S289.82,518.15,363,487.3Z" transform="translate(54.18)"/><path class="cls-50" d="M-27.28,427.65S-1.63,436.49-14.9,471c71.63-38,113.19-3.54,109.65,42.44,73.39-8,93.73,74.28,65.44,92.85,0,0,61-36.26,117.6,14.14,56.59-44.21,191,19.46,225.49,52.17l-523.67,1.77Z" transform="translate(54.18)"/><path class="cls-51" d="M1797,665s50.41-64.94,151.24-33.48c38.62-44.65,94.39-46.68,130.86-2,14-38.56,48.27-27.42,94.39,1.51,45.06-22.82,89-.5,103,11.68,74-37.55,75.08,8.11,84.74,15.22,42.9-17.25,70.79,7.1,70.79,7.1Z" transform="translate(54.18)"/><path class="cls-52" d="M2364.68,669.25s41-31.86,74.4-15c20.27-15.94,31.51-15.48,64.32-4.93-38.43-39.13,6.56,10.55-15-16.63s3.75-36.56,18.75,0c0,0,4,16.45,9.24,12.26-4.89-19.9-1-2.44-5.58-23.74s8.72-41.54,12.91-10.82c1.05,31.07,2.1,34.21,2.1,34.21s11.68-.13,10.9-12.63-5-26.44-6.71-37.27,27.57-36.67,40.84,9.76c2.09,13.26,2.44,23.39,8.72.35,11.87-54.46,57.95-27.93,42.24,15,0,0,55.85-60.39,95-11.17,15.71,33.86-12.92,48.17-15.36,52.36,0,0,1.4,9.42,13.27-4.19C2732.47,642.52,2753,668,2753,668Z" transform="translate(54.18)"/><path class="cls-53" d="M166.09,859H287s-31.34-6-26.12-29.25,25.37-9.71,33.58,27.53l13.43.45h0c-10.45-29.56-8.21-19.71-8.21-19.71s8.54-9.18,12.85,19.26l5.06,1.77.75-1.77v-14L334,832.57s6.72,8-8.2,26.45l6,.05S342.18,830,348.9,821.54s22.38,20.45-6.72,40.15c82.08.66,479.77,4.6,479.77,4.6s-24.62-9.85-28.35-19-8.21-44,23.88-9.85,25.37,28.25,25.37,28.25l16.41.65a28.61,28.61,0,0,1,.75-33.5c12.68-17.74,29.1-32.19,17.91,4.6-9.7,19.71-11.2,29.56-11.2,29.56l18.66-1.31s-6-18.4,0-30.22,17.9-25,32.83-32.85,7.46,15.77-4.48,29.56S894.33,865,894.33,865l70.88,1.31S937.82,861,944.05,838.7s13.7-12.48,21.16,3.94,11.29,25,11.29,25l23.78-1.32s-12.68-5.25,0-16.42,26.87-8.54,13.43,3.94c-6,9.2-4.76,13.8-4.76,13.8h552.44s-22.39-9.2-15.67-24.31,32.08,21,35.07,23,14.92,2,14.92,2-9.7-25.62,10.45-38.1-6.72,30.22-4.48,35.48,12,2.62,12,2.62S1598,854.87,1621.82,836s14.93,6,0,30.34l80.59,3.29,2.24,1.31s-10.45-34.16-17.16-40.07-6.72-33.5,8.2-11.17a140.09,140.09,0,0,1,13.43,47.3l10.45.66s-5.22-25-10.45-40.08,6-9.45,10.45,8.42c4.48,19.17,6.72,34.94,6.72,34.94l9-2.63s14.18-36.13,27.61-42.7,8.2,21-.75,28.25a115.65,115.65,0,0,0-14.92,14.45l374.56-.65s-14.92-35.48-16.41-50.59S2115,799,2127,836l3.73,33,9,2s-9.7-33.5-9.7-47.3,10.45,1.32,14.18,29.56l1.49,15.77,5.22,2s9.7-23.65,26.86-40.07,20.15,20.36-6.71,34.82l-2.24,3.94,408.14,5.25s0-49.92,28.36-63.06-16.42,25-22.39,59.78c14.6-33.63,24.63-37.45,35.82-15.77,2.24,6.57,0-.93-15.67,2.63s-11.19,16.42-11.19,16.42L2693,876.22l1,45.78L-21,920.24l7.5-66.74Z" transform="translate(54.18)"/><path class="cls-54" d="M212.21,779.25s-99.35,5.12-97.09,3.73l2.26-1.4s-35.75-14.46-2.26-41c0,0,35-38.7,91.44-27.51" transform="translate(54.18)"/><path class="cls-55" d="M66.21,746.64s45.16-49.3,67-23.52-47.79,57-47.79,57Z" transform="translate(54.18)"/><path class="cls-56" d="M-25.42,702.11S-6.3,685.67,18.85,697s27.43,27.91,27.43,27.91L10.43,744.12l-24.3-6.74Z" transform="translate(54.18)"/><path class="cls-57" d="M-6,738.8S38.88,725.4,87,787c2.89,12.51-93,3-93,3Z" transform="translate(54.18)"/><path class="cls-58" d="M9.38,737s15.12-21.61,31.14-43.74S102,672,91.19,750l-13.7,35.17Z" transform="translate(54.18)"/><path class="cls-59" d="M91.19,768.28s5.77-4.81,37.54-14.44,45.23,13.55,3.85,31.32C81.56,792.34,55,793,55,793l14-14Z" transform="translate(54.18)"/><path class="cls-60" d="M2392.25,667.77s13.27-13.51,16.85-12.24-3.64-11.93-14.34,2.91C2390.45,664.4,2392.25,667.77,2392.25,667.77Z" transform="translate(54.18)"/><path class="cls-60" d="M2389.38,667.77S2395,637,2401,633.82s-9.53-7.9-12.65,12.86C2386.15,661,2389.38,667.77,2389.38,667.77Z" transform="translate(54.18)"/><path class="cls-60" d="M2387.56,667.77s-6.43-21.93-19.34-22.77,19.34,24,19.34,24" transform="translate(54.18)"/><path class="cls-61" d="M2255.14,665.41s-13.27-5.43-16.86-4.92,3.65-4.8,14.35,1.17C2256.93,664.06,2255.14,665.41,2255.14,665.41Z" transform="translate(54.18)"/><path class="cls-61" d="M2258,665.41s-5.58-12.38-11.58-13.65,9.54-3.18,12.65,5.17C2261.23,662.7,2258,665.41,2258,665.41Z" transform="translate(54.18)"/><path class="cls-61" d="M2259.82,665.41a25.57,25.57,0,0,1,19.34-9.15c12.91-.34-19.34,9.66-19.34,9.66" transform="translate(54.18)"/><path class="cls-61" d="M759.71,668.51s-18.5-16-23.5-14.51,5.08-14.14,20,3.44C762.21,664.51,759.71,668.51,759.71,668.51Z" transform="translate(54.18)"/><path class="cls-61" d="M763.71,668.51s-7.77-36.5-16.14-40.25,13.3-9.36,17.64,15.25C768.21,660.51,763.71,668.51,763.71,668.51Z" transform="translate(54.18)"/><path class="cls-61" d="M766.24,668.51s9-26,27-27-27,28.5-27,28.5" transform="translate(54.18)"/><path class="cls-60" d="M2011.71,665.51s-18.5-16-23.5-14.51,5.08-14.14,20,3.44C2014.21,661.51,2011.71,665.51,2011.71,665.51Z" transform="translate(54.18)"/><path class="cls-60" d="M2015.71,665.51s-7.77-36.5-16.14-40.25,13.3-9.36,17.64,15.25C2020.21,657.51,2015.71,665.51,2015.71,665.51Z" transform="translate(54.18)"/><path class="cls-60" d="M2018.24,665.51s9-26,27-27-27,28.5-27,28.5" transform="translate(54.18)"/><path class="cls-61" d="M828.71,666.65s-18.5-9.24-23.5-8.37,5.08-8.15,20,2C831.21,664.34,828.71,666.65,828.71,666.65Z" transform="translate(54.18)"/><path class="cls-61" d="M832.71,666.65s-7.77-21-16.14-23.21,13.3-5.4,17.64,8.8C837.21,662,832.71,666.65,832.71,666.65Z" transform="translate(54.18)"/><path class="cls-61" d="M835.24,666.65s9-15,27-15.57-27,16.43-27,16.43" transform="translate(54.18)"/><path class="cls-62" d="M1240.71,665.65s-18.5-9.24-23.5-8.37,5.08-8.15,20,2C1243.21,663.34,1240.71,665.65,1240.71,665.65Z" transform="translate(54.18)"/><path class="cls-62" d="M1244.71,665.65s-7.77-21-16.14-23.21,13.3-5.4,17.64,8.8C1249.21,661,1244.71,665.65,1244.71,665.65Z" transform="translate(54.18)"/><path class="cls-62" d="M1247.24,665.65s9-15,27-15.57-27,16.43-27,16.43" transform="translate(54.18)"/><polyline class="cls-63" points="55.18 730 52.18 670 2746.18 670 2749.18 730"/><rect class="cls-64" x="53.18" y="665" width="2694" height="60"/><path class="cls-65" d="M113.12,748.54s35-38.7,91.44-27.51c44.78,18.19,32.74,66.22,5.65,66.22,0,0-99.35,5.12-97.09,3.73l2.26-1.4S79.63,775.12,113.12,748.54Z" transform="translate(54.18)"/><path class="cls-66" d="M64.21,754.64s45.16-49.3,67-23.52-47.79,57-47.79,57Z" transform="translate(54.18)"/><path class="cls-67" d="M267.12,765.06s22.95-23.27,51.55-3c15.8,12.39,14.67,19.91-36.5,20.66C257.33,778.23,261.47,776,267.12,765.06Z" transform="translate(54.18)"/><path class="cls-68" d="M-27.42,710.11S-8.3,693.67,16.85,705s27.43,27.91,27.43,27.91L8.43,752.12l-24.3-6.74Z" transform="translate(54.18)"/><path class="cls-69" d="M-8,746.8S36.88,733.4,85,795c2.89,12.51-93,3-93,3Z" transform="translate(54.18)"/><path class="cls-70" d="M7.38,745s15.12-21.61,31.14-43.74S100,680,89.19,758l-13.7,35.17Z" transform="translate(54.18)"/><path class="cls-71" d="M89.19,776.28s5.77-4.81,37.54-14.44,45.23,13.55,3.85,31.32C79.56,800.34,53,801,53,801l14-14Z" transform="translate(54.18)"/><path class="cls-72" d="M720.89,255.17s2.92-17.63,39.85-29.68,68-18.55,100.1-4.64S886.11,266.3,879.31,270c-13.21,7.2-41.66,16.67-117.6,7.42C716,271.86,720.89,255.17,720.89,255.17Z" transform="translate(54.18)"/><path class="cls-73" d="M1374.1,141.23s7.84-13.59,56.58-21.71,80.35-12.13,106.28.83,10.9,34.92-8.23,37.72-98.18,5.28-145.08-3.34C1383.65,154.73,1367,150.75,1374.1,141.23Z" transform="translate(54.18)"/><path class="cls-74" d="M1991.82,229.41s8.55-8,58.2-12.38,81.81-6.54,107.42,1.32,9.38,20.71-10.09,22.22-99.5,2.35-146.51-3.11C2000.84,237.46,1984.17,235,1991.82,229.41Z" transform="translate(54.18)"/><path class="cls-75" d="M2525,169.71s4.37-8.24,59.74-13.87,102-8.67,150.06-2.17,37.89,21.24,27.69,23c-19.8,3.36-62.45,7.79-176.3,3.47C2517.7,177.51,2525,169.71,2525,169.71Z" transform="translate(54.18)"/></g></svg>