<svg id="Layer_1" data-name="Layer 1" xmlns="http://www.w3.org/2000/svg" xmlns:xlink="http://www.w3.org/1999/xlink" viewBox="0 0 3603.77 1173.49"><defs><style>.cls-1{fill:none;}.cls-2{clip-path:url(#clip-path);}.cls-3{fill:url(#linear-gradient);}.cls-4{fill:url(#linear-gradient-2);}.cls-5{fill:#497691;}.cls-6{fill:url(#linear-gradient-3);}.cls-7{fill:url(#linear-gradient-4);}.cls-8{fill:url(#linear-gradient-5);}.cls-9{fill:#c08872;}.cls-10{fill:#664c46;}.cls-11{fill:#754e33;}.cls-12{fill:url(#linear-gradient-6);}.cls-13{fill:url(#linear-gradient-7);}.cls-14{fill:url(#linear-gradient-8);}.cls-15{fill:url(#linear-gradient-9);}.cls-16{fill:url(#linear-gradient-10);}.cls-17{fill:url(#linear-gradient-11);}.cls-18{fill:url(#linear-gradient-12);}.cls-19{fill:url(#linear-gradient-13);}.cls-20{fill:url(#linear-gradient-14);}.cls-21{fill:url(#linear-gradient-15);}.cls-22{fill:#2696bb;}.cls-22,.cls-23{opacity:0.55;}.cls-23{fill:#76c2ec;}.cls-24{fill:#5d6e93;}.cls-25{fill:url(#linear-gradient-16);}.cls-26{fill:url(#linear-gradient-17);}.cls-27{fill:url(#linear-gradient-18);}.cls-28{fill:url(#linear-gradient-19);}.cls-29{fill:#7ac6ee;opacity:0.24;}.cls-30{fill:url(#linear-gradient-20);}.cls-31{fill:#604f4c;}.cls-32{fill:#564440;}.cls-33{fill:url(#linear-gradient-21);}.cls-34{fill:url(#linear-gradient-22);}.cls-35{fill:url(#linear-gradient-23);}.cls-36{fill:url(#linear-gradient-24);}.cls-37{fill:#6dc294;}.cls-38{fill:url(#linear-gradient-25);}.cls-39{fill:url(#linear-gradient-26);}.cls-40{fill:url(#linear-gradient-27);}.cls-41{fill:url(#linear-gradient-28);}.cls-42{fill:#685552;}.cls-43{fill:#66524f;}.cls-44{fill:url(#linear-gradient-29);}.cls-45{fill:url(#linear-gradient-30);}.cls-46{fill:url(#linear-gradient-31);}.cls-47{fill:url(#linear-gradient-32);}.cls-48{fill:url(#linear-gradient-33);}.cls-49{fill:url(#linear-gradient-34);}.cls-50{fill:url(#linear-gradient-35);}.cls-51{fill:url(#linear-gradient-36);}.cls-52{fill:#0e4724;}.cls-53{fill:#73c1ec;}.cls-54{fill:url(#linear-gradient-37);}.cls-55{fill:#0c261a;}.cls-56{fill:url(#linear-gradient-38);}.cls-57{fill:url(#linear-gradient-39);}.cls-58{fill:url(#linear-gradient-40);}.cls-59{fill:url(#linear-gradient-41);}.cls-60{fill:#70605b;}.cls-61{fill:#7f675e;}.cls-62{fill:url(#linear-gradient-42);}.cls-63{fill:url(#linear-gradient-43);}.cls-64{fill:url(#linear-gradient-44);}.cls-65{fill:url(#linear-gradient-45);}.cls-66{fill:url(#linear-gradient-46);}.cls-67{fill:url(#linear-gradient-47);}.cls-68{fill:url(#linear-gradient-48);}.cls-69{fill:url(#linear-gradient-49);}.cls-70{fill:url(#linear-gradient-50);}.cls-71{fill:url(#linear-gradient-51);}.cls-72{fill:url(#linear-gradient-52);}.cls-73{fill:url(#linear-gradient-53);}.cls-74{fill:url(#linear-gradient-54);}.cls-75{fill:url(#linear-gradient-55);}.cls-76{fill:#754d32;}.cls-77{fill:url(#linear-gradient-56);}.cls-78{fill:url(#linear-gradient-57);}.cls-79{fill:#3beaa2;}.cls-80{fill:url(#linear-gradient-58);}.cls-81{fill:url(#linear-gradient-59);}.cls-82{fill:url(#linear-gradient-60);}.cls-83{fill:url(#linear-gradient-61);}.cls-84{fill:url(#linear-gradient-62);}.cls-85{fill:#ce856b;}.cls-86{fill:url(#linear-gradient-63);}.cls-87{fill:url(#linear-gradient-64);}.cls-88{fill:url(#linear-gradient-65);}.cls-89{fill:url(#linear-gradient-66);}.cls-90{fill:url(#linear-gradient-67);}.cls-91{fill:url(#linear-gradient-68);}.cls-92{fill:url(#linear-gradient-69);}.cls-93{fill:url(#linear-gradient-70);}.cls-94{fill:url(#linear-gradient-71);}.cls-95{fill:url(#linear-gradient-72);}.cls-96{fill:url(#linear-gradient-73);}.cls-97{fill:url(#linear-gradient-74);}.cls-98{fill:#0e7232;}</style><clipPath id="clip-path" transform="translate(265.28 229.79)"><rect class="cls-1" width="2693" height="900"/></clipPath><linearGradient id="linear-gradient" x1="1042.86" y1="1545.26" x2="2172.07" y2="-228.53" gradientUnits="userSpaceOnUse"><stop offset="0.37" stop-color="#4c5f89"/><stop offset="0.53" stop-color="#425e90"/><stop offset="0.71" stop-color="#3e5d93"/></linearGradient><linearGradient id="linear-gradient-2" x1="712.69" y1="738.97" x2="1811.19" y2="202.95" gradientUnits="userSpaceOnUse"><stop offset="0.02" stop-color="#256284"/><stop offset="0.21" stop-color="#296587"/><stop offset="0.42" stop-color="#366e91"/><stop offset="0.63" stop-color="#4c7da1"/><stop offset="0.84" stop-color="#6a91b7"/><stop offset="0.87" stop-color="#6e94ba"/></linearGradient><linearGradient id="linear-gradient-3" x1="2679.46" y1="366.98" x2="2117.32" y2="398.32" gradientUnits="userSpaceOnUse"><stop offset="0.02" stop-color="#3179b6"/><stop offset="0.88" stop-color="#327ab7"/></linearGradient><linearGradient id="linear-gradient-4" x1="53.13" y1="1008.67" x2="1228.44" y2="-106.49" gradientUnits="userSpaceOnUse"><stop offset="0.03" stop-color="#084e6d"/><stop offset="0.19" stop-color="#0b5070"/><stop offset="0.32" stop-color="#165479"/><stop offset="0.42" stop-color="#225a84"/><stop offset="0.59" stop-color="#3a7ba0"/><stop offset="0.68" stop-color="#4387aa"/></linearGradient><linearGradient id="linear-gradient-5" x1="1009.63" y1="737.56" x2="1003.15" y2="405.87" gradientUnits="userSpaceOnUse"><stop offset="0.01" stop-color="#434141"/><stop offset="0.78" stop-color="#423e3f"/></linearGradient><linearGradient id="linear-gradient-6" x1="839.45" y1="323.03" x2="1257.92" y2="323.03" gradientUnits="userSpaceOnUse"><stop offset="0.22" stop-color="#118465"/><stop offset="0.53" stop-color="#118366"/></linearGradient><linearGradient id="linear-gradient-7" x1="992.49" y1="501.67" x2="1165.36" y2="76.28" gradientUnits="userSpaceOnUse"><stop offset="0.22" stop-color="#0c6762"/><stop offset="0.32" stop-color="#0d6e62"/><stop offset="0.46" stop-color="#128163"/><stop offset="0.53" stop-color="#148c64"/></linearGradient><linearGradient id="linear-gradient-8" x1="1185.05" y1="423.47" x2="1322.79" y2="423.47" gradientUnits="userSpaceOnUse"><stop offset="0.22" stop-color="#118063"/><stop offset="0.29" stop-color="#128463"/><stop offset="0.53" stop-color="#148c64"/></linearGradient><linearGradient id="linear-gradient-9" x1="1322.69" y1="332.19" x2="1155.29" y2="562.07" gradientUnits="userSpaceOnUse"><stop offset="0.25" stop-color="#148a64"/><stop offset="0.69" stop-color="#0d7968"/></linearGradient><linearGradient id="linear-gradient-10" x1="758.76" y1="409.29" x2="921.72" y2="409.29" gradientUnits="userSpaceOnUse"><stop offset="0.25" stop-color="#0e7062"/><stop offset="0.66" stop-color="#0e7363"/></linearGradient><linearGradient id="linear-gradient-11" x1="730.82" y1="526.71" x2="975.4" y2="295.08" gradientUnits="userSpaceOnUse"><stop offset="0.18" stop-color="#0e6c5c"/><stop offset="0.52" stop-color="#0f7b60"/><stop offset="0.85" stop-color="#0f8462"/></linearGradient><linearGradient id="linear-gradient-12" x1="856.01" y1="404.2" x2="852.49" y2="223.61" gradientUnits="userSpaceOnUse"><stop offset="0.18" stop-color="#0d895f"/><stop offset="0.57" stop-color="#0c8a5e"/></linearGradient><linearGradient id="linear-gradient-13" x1="844.19" y1="382.29" x2="1249.22" y2="382.29" gradientUnits="userSpaceOnUse"><stop offset="0.1" stop-color="#0f7367"/><stop offset="0.68" stop-color="#128464"/></linearGradient><linearGradient id="linear-gradient-14" x1="1008.65" y1="526.55" x2="1126.42" y2="248.72" gradientUnits="userSpaceOnUse"><stop offset="0.13" stop-color="#0b6561"/><stop offset="0.45" stop-color="#127b6a"/><stop offset="0.68" stop-color="#188f72"/></linearGradient><linearGradient id="linear-gradient-15" x1="642.16" y1="707.27" x2="639.34" y2="563.01" gradientUnits="userSpaceOnUse"><stop offset="0" stop-color="#403433"/><stop offset="0.76" stop-color="#41373a"/></linearGradient><linearGradient id="linear-gradient-16" x1="635.22" y1="608.63" x2="713.48" y2="416.06" gradientUnits="userSpaceOnUse"><stop offset="0.19" stop-color="#125a71"/><stop offset="0.31" stop-color="#1a5a6e"/><stop offset="0.5" stop-color="#225b6b"/></linearGradient><linearGradient id="linear-gradient-17" x1="790" y1="529.63" x2="714.32" y2="633.55" gradientUnits="userSpaceOnUse"><stop offset="0.3" stop-color="#307484"/><stop offset="0.67" stop-color="#347382"/></linearGradient><linearGradient id="linear-gradient-18" x1="537.02" y1="594.02" x2="591.52" y2="542.41" gradientUnits="userSpaceOnUse"><stop offset="0.23" stop-color="#225b6b"/><stop offset="0.8" stop-color="#225b6b"/><stop offset="0.88" stop-color="#225b6b"/></linearGradient><linearGradient id="linear-gradient-19" x1="642.32" y1="618.29" x2="742.65" y2="381.61" gradientUnits="userSpaceOnUse"><stop offset="0.11" stop-color="#055c71"/><stop offset="0.48" stop-color="#055d72"/><stop offset="0.53" stop-color="#1c7178"/><stop offset="0.63" stop-color="#55a588"/><stop offset="0.68" stop-color="#7ac692"/></linearGradient><linearGradient id="linear-gradient-20" x1="87.64" y1="848.36" x2="78.69" y2="389.98" gradientUnits="userSpaceOnUse"><stop offset="0" stop-color="#45393a"/><stop offset="0.74" stop-color="#4c3838"/></linearGradient><linearGradient id="linear-gradient-21" x1="-151.72" y1="275.65" x2="437.19" y2="275.65" gradientUnits="userSpaceOnUse"><stop offset="0.23" stop-color="#197752"/><stop offset="0.44" stop-color="#1c7c53"/><stop offset="0.52" stop-color="#1e8054"/></linearGradient><linearGradient id="linear-gradient-22" x1="63.71" y1="526.17" x2="304.44" y2="-66.22" gradientUnits="userSpaceOnUse"><stop offset="0.27" stop-color="#17634a"/><stop offset="0.34" stop-color="#17684b"/><stop offset="0.42" stop-color="#17784f"/><stop offset="0.5" stop-color="#178d54"/></linearGradient><linearGradient id="linear-gradient-23" x1="334.64" y1="414.4" x2="528.48" y2="414.4" gradientUnits="userSpaceOnUse"><stop offset="0.24" stop-color="#606060"/><stop offset="0.41" stop-color="#41765b"/><stop offset="0.58" stop-color="#2b8557"/><stop offset="0.68" stop-color="#238b56"/></linearGradient><linearGradient id="linear-gradient-24" x1="527.33" y1="287.37" x2="294.28" y2="607.4" gradientUnits="userSpaceOnUse"><stop offset="0.24" stop-color="#1e9a5b"/><stop offset="0.39" stop-color="#1b8053"/><stop offset="0.56" stop-color="#186a4c"/><stop offset="0.67" stop-color="#176249"/></linearGradient><linearGradient id="linear-gradient-25" x1="-224.6" y1="484" x2="-59.86" y2="327.98" gradientUnits="userSpaceOnUse"><stop offset="0.24" stop-color="#197852"/><stop offset="0.63" stop-color="#1a7b53"/><stop offset="0.87" stop-color="#1e8355"/><stop offset="0.88" stop-color="#1e8455"/></linearGradient><linearGradient id="linear-gradient-26" x1="-128.45" y1="387.78" x2="-133.32" y2="138.29" gradientUnits="userSpaceOnUse"><stop offset="0.18" stop-color="#248e57"/><stop offset="0.36" stop-color="#1b8d54"/><stop offset="0.6" stop-color="#178c53"/></linearGradient><linearGradient id="linear-gradient-27" x1="-145.04" y1="357.51" x2="424.94" y2="357.51" gradientUnits="userSpaceOnUse"><stop offset="0.09" stop-color="#1e8455"/><stop offset="0.68" stop-color="#1d9457"/></linearGradient><linearGradient id="linear-gradient-28" x1="86.64" y1="558.43" x2="250.59" y2="171.67" gradientUnits="userSpaceOnUse"><stop offset="0.1" stop-color="#145746"/><stop offset="0.3" stop-color="#18644a"/><stop offset="0.67" stop-color="#285"/><stop offset="0.7" stop-color="#238b56"/></linearGradient><linearGradient id="linear-gradient-29" x1="-32.02" y1="712.22" x2="2680.69" y2="712.22" gradientUnits="userSpaceOnUse"><stop offset="0.03" stop-color="#048e3c"/><stop offset="0.15" stop-color="#0e7538"/><stop offset="0.92" stop-color="#0c6d33"/></linearGradient><linearGradient id="linear-gradient-30" x1="1271.74" y1="846.76" x2="1361.28" y2="428.68" gradientUnits="userSpaceOnUse"><stop offset="0.25" stop-color="#54a853"/><stop offset="0.26" stop-color="#60af58"/><stop offset="0.29" stop-color="#71b95f"/><stop offset="0.33" stop-color="#7cc164"/><stop offset="0.38" stop-color="#83c567"/><stop offset="0.51" stop-color="#85c668"/></linearGradient><linearGradient id="linear-gradient-31" x1="463.97" y1="943.36" x2="564.54" y2="454.73" gradientUnits="userSpaceOnUse"><stop offset="0.19" stop-color="#14743b"/><stop offset="0.31" stop-color="#2f9542"/><stop offset="0.42" stop-color="#41ac47"/><stop offset="0.49" stop-color="#48b449"/></linearGradient><linearGradient id="linear-gradient-32" x1="68.88" y1="876.46" x2="322.59" y2="641.34" gradientUnits="userSpaceOnUse"><stop offset="0.25" stop-color="#036b46"/><stop offset="0.43" stop-color="#056847"/><stop offset="0.97" stop-color="#076448"/></linearGradient><linearGradient id="linear-gradient-33" x1="2786.15" y1="583.2" x2="292.2" y2="646.15" gradientUnits="userSpaceOnUse"><stop offset="0.02" stop-color="#2e7f4b"/><stop offset="0.25" stop-color="#328050"/><stop offset="0.49" stop-color="#3f835d"/><stop offset="0.52" stop-color="#41845f"/></linearGradient><linearGradient id="linear-gradient-34" x1="265.28" y1="1031.96" x2="2970.01" y2="1031.96" gradientUnits="userSpaceOnUse"><stop offset="0.15" stop-color="#048e3c"/><stop offset="0.92" stop-color="#08843a"/></linearGradient><linearGradient id="linear-gradient-35" x1="2321.55" y1="811.69" x2="705.31" y2="901.82" gradientUnits="userSpaceOnUse"><stop offset="0.02" stop-color="#315834"/><stop offset="0.89" stop-color="#315835"/></linearGradient><linearGradient id="linear-gradient-36" x1="2838.26" y1="654.88" x2="-129.79" y2="820.39" gradientUnits="userSpaceOnUse"><stop offset="0.02" stop-color="#2a344d"/><stop offset="0.89" stop-color="#1e283a"/></linearGradient><linearGradient id="linear-gradient-37" x1="2837.45" y1="789.92" x2="-100.9" y2="953.78" gradientUnits="userSpaceOnUse"><stop offset="0.02" stop-color="#074b21"/><stop offset="0.89" stop-color="#074b21"/></linearGradient><linearGradient id="linear-gradient-38" x1="2564.25" y1="533.69" x2="2566.81" y2="264.88" gradientUnits="userSpaceOnUse"><stop offset="0.25" stop-color="#044d8c"/><stop offset="0.66" stop-color="#05579e"/></linearGradient><linearGradient id="linear-gradient-39" x1="2407.18" y1="571.7" x2="2434.76" y2="262.06" gradientUnits="userSpaceOnUse"><stop offset="0" stop-color="#cde5f0"/><stop offset="0" stop-color="#c6e4f1"/><stop offset="0" stop-color="#b7d4e0"/><stop offset="0" stop-color="#92a9b4"/><stop offset="0" stop-color="#55656f"/><stop offset="0" stop-color="#3d4a53"/><stop offset="0" stop-color="#305162"/><stop offset="0" stop-color="#0e6489"/><stop offset="0" stop-color="#0a668d"/><stop offset="0.26" stop-color="#0b6a99"/><stop offset="0.67" stop-color="#0c74b4"/><stop offset="0.78" stop-color="#0d73b2"/><stop offset="0.82" stop-color="#1070ab"/><stop offset="0.85" stop-color="#166ba0"/><stop offset="0.87" stop-color="#1e648f"/><stop offset="0.89" stop-color="#295a79"/><stop offset="0.91" stop-color="#374e5e"/><stop offset="0.91" stop-color="#3a4b57"/></linearGradient><linearGradient id="linear-gradient-40" x1="2340.06" y1="563.68" x2="2362.45" y2="312.24" gradientUnits="userSpaceOnUse"><stop offset="0" stop-color="#cde5f0"/><stop offset="0" stop-color="#c6e4f1"/><stop offset="0" stop-color="#b7d4e0"/><stop offset="0" stop-color="#92a9b4"/><stop offset="0" stop-color="#55656f"/><stop offset="0" stop-color="#3d4a53"/><stop offset="0" stop-color="#355162"/><stop offset="0" stop-color="#206289"/><stop offset="0" stop-color="#0c72ad"/><stop offset="0.68" stop-color="#1567b2"/><stop offset="0.79" stop-color="#1666b0"/><stop offset="0.83" stop-color="#1964a9"/><stop offset="0.85" stop-color="#1d619e"/><stop offset="0.88" stop-color="#245c8d"/><stop offset="0.89" stop-color="#2d5577"/><stop offset="0.91" stop-color="#384d5c"/><stop offset="0.91" stop-color="#3a4b57"/></linearGradient><linearGradient id="linear-gradient-41" x1="2281.97" y1="556.58" x2="2299.71" y2="357.34" gradientUnits="userSpaceOnUse"><stop offset="0" stop-color="#cde5f0"/><stop offset="0" stop-color="#c6e4f1"/><stop offset="0" stop-color="#b7d4e0"/><stop offset="0" stop-color="#92a9b4"/><stop offset="0" stop-color="#55656f"/><stop offset="0" stop-color="#3d4a53"/><stop offset="0" stop-color="#2f5162"/><stop offset="0" stop-color="#0c6589"/><stop offset="0" stop-color="#0a668b"/><stop offset="0.29" stop-color="#0b6a97"/><stop offset="0.67" stop-color="#0c72ad"/><stop offset="0.78" stop-color="#0d71ab"/><stop offset="0.82" stop-color="#116ea4"/><stop offset="0.85" stop-color="#176999"/><stop offset="0.88" stop-color="#206188"/><stop offset="0.9" stop-color="#2c5772"/><stop offset="0.91" stop-color="#3a4b57"/><stop offset="0.91" stop-color="#3a4b57"/></linearGradient><linearGradient id="linear-gradient-42" x1="646.98" y1="102.92" x2="822.12" y2="-175.16" gradientUnits="userSpaceOnUse"><stop offset="0.07" stop-color="#28568e"/><stop offset="0.29" stop-color="#4e78a3"/><stop offset="0.51" stop-color="#6a91b4"/><stop offset="0.7" stop-color="#7ba1be"/><stop offset="0.84" stop-color="#81a6c1"/></linearGradient><linearGradient id="linear-gradient-43" x1="505.16" y1="138.9" x2="699.26" y2="-195.04" gradientUnits="userSpaceOnUse"><stop offset="0.07" stop-color="#28568e"/><stop offset="0.15" stop-color="#2e5c92"/><stop offset="0.27" stop-color="#406b9c"/><stop offset="0.4" stop-color="#5d85ac"/><stop offset="0.54" stop-color="#81a6c1"/></linearGradient><linearGradient id="linear-gradient-44" x1="1867.23" y1="187.52" x2="2002.99" y2="-71.01" gradientUnits="userSpaceOnUse"><stop offset="0.07" stop-color="#2e5c92"/><stop offset="0.16" stop-color="#366497"/><stop offset="0.3" stop-color="#4d78a4"/><stop offset="0.48" stop-color="#7399b9"/><stop offset="0.54" stop-color="#81a6c1"/></linearGradient><linearGradient id="linear-gradient-45" x1="2143.26" y1="348.71" x2="2250.74" y2="144.03" gradientUnits="userSpaceOnUse"><stop offset="0.07" stop-color="#365281"/><stop offset="0.22" stop-color="#446693"/><stop offset="0.41" stop-color="#5077a2"/><stop offset="0.55" stop-color="#547da7"/></linearGradient><linearGradient id="linear-gradient-46" x1="1549.83" y1="341.38" x2="1736.4" y2="-13.91" gradientUnits="userSpaceOnUse"><stop offset="0.07" stop-color="#3e5e8b"/><stop offset="0.16" stop-color="#51739a"/><stop offset="0.31" stop-color="#6b8fb0"/><stop offset="0.44" stop-color="#7ba0bc"/><stop offset="0.54" stop-color="#81a6c1"/></linearGradient><linearGradient id="linear-gradient-47" x1="1421.56" y1="378.3" x2="1590.9" y2="55.81" xlink:href="#linear-gradient-45"/><linearGradient id="linear-gradient-48" x1="1696.27" y1="241.6" x2="1782.81" y2="-134.54" gradientUnits="userSpaceOnUse"><stop offset="0.07" stop-color="#28568e"/><stop offset="0.26" stop-color="#4772a0"/><stop offset="0.5" stop-color="#668eb2"/><stop offset="0.7" stop-color="#7aa0bd"/><stop offset="0.84" stop-color="#81a6c1"/></linearGradient><linearGradient id="linear-gradient-49" x1="878.62" y1="265.05" x2="1551.93" y2="-167.09" gradientUnits="userSpaceOnUse"><stop offset="0.24" stop-color="#2d5b91"/><stop offset="0.3" stop-color="#406a9b"/><stop offset="0.42" stop-color="#7291b5"/><stop offset="0.59" stop-color="#c2cfdf"/><stop offset="0.71" stop-color="#fff"/></linearGradient><linearGradient id="linear-gradient-50" x1="740.93" y1="221.62" x2="1692.73" y2="-389.27" xlink:href="#linear-gradient-49"/><linearGradient id="linear-gradient-51" x1="2152.08" y1="122.1" x2="2563.72" y2="-227.45" xlink:href="#linear-gradient-46"/><linearGradient id="linear-gradient-52" x1="1432.11" y1="72.2" x2="1539.59" y2="-132.48" xlink:href="#linear-gradient-49"/><linearGradient id="linear-gradient-53" x1="1461.25" y1="111.08" x2="1707.24" y2="-357.38" gradientUnits="userSpaceOnUse"><stop offset="0.07" stop-color="#28568e"/><stop offset="0.2" stop-color="#4e78a3"/><stop offset="0.34" stop-color="#6a91b4"/><stop offset="0.45" stop-color="#7ba1be"/><stop offset="0.54" stop-color="#81a6c1"/></linearGradient><linearGradient id="linear-gradient-54" x1="2671.41" y1="780.58" x2="2658.37" y2="112.8" gradientUnits="userSpaceOnUse"><stop offset="0" stop-color="#37221d"/><stop offset="0.01" stop-color="#36211d"/><stop offset="0.21" stop-color="#321e1a"/><stop offset="0.76" stop-color="#2b1816"/></linearGradient><linearGradient id="linear-gradient-55" x1="2761.29" y1="617.53" x2="2909" y2="617.53" gradientUnits="userSpaceOnUse"><stop offset="0.03" stop-color="#36211d"/><stop offset="0.76" stop-color="#452a25"/></linearGradient><linearGradient id="linear-gradient-56" x1="2310.78" y1="-45.33" x2="3200.57" y2="-45.33" gradientUnits="userSpaceOnUse"><stop offset="0.22" stop-color="#094111"/><stop offset="0.49" stop-color="#0a4612"/></linearGradient><linearGradient id="linear-gradient-57" x1="2639.43" y1="322.53" x2="2993.72" y2="-549.3" gradientUnits="userSpaceOnUse"><stop offset="0.22" stop-color="#082e0c"/><stop offset="0.29" stop-color="#09330e"/><stop offset="0.38" stop-color="#0a4014"/><stop offset="0.47" stop-color="#0d571e"/><stop offset="0.49" stop-color="#0e5e21"/></linearGradient><linearGradient id="linear-gradient-58" x1="3333.01" y1="-32.06" x2="2990.26" y2="438.62" gradientUnits="userSpaceOnUse"><stop offset="0.3" stop-color="#0b4912"/><stop offset="0.67" stop-color="#0a4712"/></linearGradient><linearGradient id="linear-gradient-59" x1="2139.21" y1="126.37" x2="2485.71" y2="126.37" gradientUnits="userSpaceOnUse"><stop offset="0.23" stop-color="#094111"/><stop offset="0.75" stop-color="#0a4411"/><stop offset="0.91" stop-color="#0b4712"/></linearGradient><linearGradient id="linear-gradient-60" x1="2202.07" y1="258.67" x2="2447.2" y2="26.51" gradientUnits="userSpaceOnUse"><stop offset="0.23" stop-color="#09350e"/><stop offset="0.55" stop-color="#09380f"/><stop offset="0.75" stop-color="#074014"/><stop offset="0.88" stop-color="#064b19"/></linearGradient><linearGradient id="linear-gradient-61" x1="2673.57" y1="360.01" x2="2872.79" y2="-109.96" gradientUnits="userSpaceOnUse"><stop offset="0.07" stop-color="#0a4411"/><stop offset="0.67" stop-color="#0b4912"/></linearGradient><linearGradient id="linear-gradient-62" x1="2671.85" y1="368.4" x2="2912.95" y2="-200.35" gradientUnits="userSpaceOnUse"><stop offset="0.07" stop-color="#082d0c"/><stop offset="0.32" stop-color="#08300d"/><stop offset="0.52" stop-color="#093a0f"/><stop offset="0.68" stop-color="#0b4912"/></linearGradient><linearGradient id="linear-gradient-63" x1="422.22" y1="799.55" x2="-59.39" y2="826.4" gradientUnits="userSpaceOnUse"><stop offset="0.02" stop-color="#4b7eb2"/><stop offset="0.08" stop-color="#497dae"/><stop offset="0.89" stop-color="#2b6d79"/></linearGradient><linearGradient id="linear-gradient-64" x1="1775.66" y1="713.29" x2="1269.9" y2="741.5" gradientUnits="userSpaceOnUse"><stop offset="0.02" stop-color="#4b7eb2"/><stop offset="0.89" stop-color="#387098"/></linearGradient><linearGradient id="linear-gradient-65" x1="2490.88" y1="677.97" x2="1917.02" y2="709.97" xlink:href="#linear-gradient-64"/><linearGradient id="linear-gradient-66" x1="2320.15" y1="654.36" x2="2355.83" y2="654.36" gradientUnits="userSpaceOnUse"><stop offset="0.02" stop-color="#4579a9"/><stop offset="0.89" stop-color="#457aaa"/></linearGradient><linearGradient id="linear-gradient-67" x1="2420.1" y1="652.79" x2="2347.05" y2="656.87" xlink:href="#linear-gradient-66"/><linearGradient id="linear-gradient-68" x1="2278.31" y1="659.69" x2="2305.02" y2="659.69" xlink:href="#linear-gradient-66"/><linearGradient id="linear-gradient-69" x1="2309.5" y1="658.36" x2="2318.75" y2="658.36" xlink:href="#linear-gradient-66"/><linearGradient id="linear-gradient-70" x1="1944.06" y1="693.02" x2="1971.15" y2="693.02" xlink:href="#linear-gradient-66"/><linearGradient id="linear-gradient-71" x1="1978.62" y1="687" x2="1985.73" y2="687" xlink:href="#linear-gradient-66"/><linearGradient id="linear-gradient-72" x1="1389.8" y1="720.19" x2="1406.66" y2="720.19" xlink:href="#linear-gradient-66"/><linearGradient id="linear-gradient-73" x1="966.21" y1="832.8" x2="1558.59" y2="525.11" gradientUnits="userSpaceOnUse"><stop offset="0.25" stop-color="#036b46"/><stop offset="0.47" stop-color="#065b3d"/><stop offset="0.73" stop-color="#084f37"/><stop offset="1" stop-color="#094b35"/></linearGradient><linearGradient id="linear-gradient-74" x1="496.9" y1="882.36" x2="597.47" y2="393.73" xlink:href="#linear-gradient-73"/></defs><g class="cls-2"><rect class="cls-3" x="228.35" y="181.93" width="2741.65" height="978.91"/><path class="cls-4" d="M344.56,720.19s235.2-487.46,276.11-545.41S722.93,35,941.1,229.32c129.53,78.4,163.62,47.72,221.57-3.41,34.09-30.68,112.49-60.4,242,262.48,75,132.94,156.8,153.39,392,20.45s526.54,82.66,526.54,82.66Z" transform="translate(265.28 229.79)"/><path class="cls-5" d="M1671.76,555.3S1928.87,330,2282.6,548Z" transform="translate(265.28 229.79)"/><path class="cls-6" d="M2127.23,576.08s129.54-170.44,172.15-202.82,81.81-29,100.56-10.23c18.75,17.05,32.38,40.91,92-69.88s123.93-158.51,180.42-52.84v317Z" transform="translate(265.28 229.79)"/><path class="cls-7" d="M182.66-47.86S322.42,48.89,434.91,290.26C625.8,156.67,949.64,439.6,1024.63,562.32c78.41,119.3,167,245.43,385.2,218.16L0,895.42V0Z" transform="translate(265.28 229.79)"/><path class="cls-8" d="M1119.78,716.84c.25-.73-1.72-1.9-3.4-4.68a19,19,0,0,1-2.26-6.35c-1.48-6.67-7.22-14.75-9.11-17.73-6-9.47-8.84-23.68-13.54-47.25a400.26,400.26,0,0,1-5.93-40.51c-.34-23.51,2.45-41.23,8.2-51.46a296.6,296.6,0,0,0,16.4-34.89s33.76,1.77,36.65,0,11.1-10.22,9.65-32l.48-5.25-8.68,2.82s-2.67,19.55-13.79,21.07c-13.26,2.12-28.41-7.3-26.19-21.07h-9.64s3,40.15-11.61,48.64c-10.87,3.33-17.29-1.94-16.8-25.45l.49-23.51-17.29,0s1,25,0,26.51-8.65,17-16.81-14.85c-6.91-22.42-3-11.62-3-11.62l-9.39.25s4.2,24.7,18,40.15c9.14,14.85,9.39,39.7,2.47,48.48-7.41,8.79-20,13.64-29.65-38.48-6.43-34.54-8.16-50.15-8.16-50.15l-13.34-.17s5.44,41.23,4.45,48.51c-1.24,8.18-1.73,33.33-30.89,22.72C952,548,921.72,538.74,909.11,510.89c-4.7-23.64-3.71-32.73-3.71-32.73l-10.87-.33s.25,13.67,2.47,17.3a31,31,0,0,1-19.4-4.93c-11.18-7.16-15.71-19.28-16.92-22.88l-8.72-.41a62.83,62.83,0,0,0,8.8,17.82c8.59,11.93,20.55,18.51,29.32,20.1,1.75.31,8.67,1.39,8.64,1.72,0,.1-.48.1-.48.1s2.22,35.75,37.06,52.11C966.43,573,980,580.27,987.93,586s13.34,11.82,12.11,31.51a188.12,188.12,0,0,0,2.22,47.12,174.94,174.94,0,0,0,17,50.75c26.75,1,43.93,1.13,55,1,22.09-.25,34.67-1.57,41.28.3C1115.57,716.72,1119.45,717.83,1119.78,716.84Z" transform="translate(265.28 229.79)"/><path class="cls-9" d="M1085.07,595.2a73.52,73.52,0,0,0-21,22.73c-23.64,39.67-7.55,91.85-5.73,97.52l62.44,1.38a243.37,243.37,0,0,1-12-23.25C1092.39,657.21,1086.82,621.67,1085.07,595.2Z" transform="translate(265.28 229.79)"/><path class="cls-10" d="M1013.1,520.13s11.57,52.54,20.64,52.16C1024.36,577.66,1006.85,563.09,1013.1,520.13Z" transform="translate(265.28 229.79)"/><path class="cls-11" d="M1077.84,658.4a15.42,15.42,0,0,1-3.65.48,5.94,5.94,0,0,1-3.54-.94,3.71,3.71,0,0,1-1.29-3.39,12.35,12.35,0,0,1,1-3.6,27.41,27.41,0,0,1,3.73-6.38,20.82,20.82,0,0,1,5.41-5.09,5.71,5.71,0,0,1,3.7-1,3.43,3.43,0,0,1,1,.31,5.48,5.48,0,0,1,.81.6,6,6,0,0,1,1.13,1.58,18.58,18.58,0,0,1,1.55,7.3,53.39,53.39,0,0,1-1.72,14.68v0l0,0a55.72,55.72,0,0,1-4.16,7.07,31.88,31.88,0,0,1-5.46,6.15,11.88,11.88,0,0,1-3.62,2.1,4.13,4.13,0,0,1-1,.25c-.18,0-.36.05-.55.06l-.55,0a3.77,3.77,0,0,1-1.09-.26,9.06,9.06,0,0,1-1-.54,8.55,8.55,0,0,1-2.46-3.41,21.26,21.26,0,0,1-1.29-3.93,59.7,59.7,0,0,1-1.17-16.27l.67-16.27-.25,16.29a59.13,59.13,0,0,0,1.39,16.1,21.7,21.7,0,0,0,1.29,3.79,7.75,7.75,0,0,0,2.25,3.12,3.73,3.73,0,0,0,3.54.41,11.35,11.35,0,0,0,3.37-2c4-3.5,6.92-8.22,9.38-13l0,.08a52.7,52.7,0,0,0,1.77-14.45,18.23,18.23,0,0,0-1.44-7,3.56,3.56,0,0,0-2.41-2.16,5.08,5.08,0,0,0-3.28.83,20.73,20.73,0,0,0-5.32,4.88,27.76,27.76,0,0,0-3.77,6.22,11.52,11.52,0,0,0-1,3.47,3.48,3.48,0,0,0,1.12,3.22,5.76,5.76,0,0,0,3.42,1A15,15,0,0,0,1077.84,658.4Z" transform="translate(265.28 229.79)"/><path class="cls-12" d="M839.45,362.31c2.68-22.66,9.76-56.87,31-84.81,57.49-75.5,167.6-40.37,202.82-29.09,87,27.83,143.31,94.57,170.91,133.41l13.7,12.47a980.92,980.92,0,0,1-218.51,21.28,981.83,981.83,0,0,1-190.14-21.65Z" transform="translate(265.28 229.79)"/><path class="cls-13" d="M840.22,361c2.66-21.81,9.66-54.74,30.72-81.64,56.89-72.68,165.84-38.86,200.7-28,86,26.79,141.81,91,169.12,128.43l13.55,12a996.72,996.72,0,0,1-216.22,20.49,998.16,998.16,0,0,1-188.15-20.84Z" transform="translate(265.28 229.79)"/><path class="cls-14" d="M1195.72,373.72s79.62-21.16,114.91,43.28c23,50,27.09,66.23-114.91,57.15C1171.71,394.08,1195.72,373.72,1195.72,373.72Z" transform="translate(265.28 229.79)"/><path class="cls-15" d="M1197.79,375.59s77.33-21.51,111.61,44c22.32,50.84,26.31,67.33-111.61,58.11C1174.47,396.29,1197.79,375.59,1197.79,375.59Z" transform="translate(265.28 229.79)"/><path class="cls-16" d="M856.84,465.57c-2.4,0-72-5.67-72-5.67s-43.2-10.39-18.4-35.9a43.59,43.59,0,0,0,15.68-15.47c4.94-8.35,3.62-12.45,6.77-20.14,10-24.35,43.47-32.65,43.47-32.65h0s45.41-10.74,79.2,10.35c3.77,2.35,5.62,3.62,7.06,5.81,15.63,23.87-33,93.67-33,93.67Z" transform="translate(265.28 229.79)"/><path class="cls-17" d="M856.26,467.2c-2.32,0-69.55-5.68-69.55-5.68s-41.73-10.43-17.77-36A42.74,42.74,0,0,0,784.08,410c4.78-8.38,3.5-12.49,6.55-20.2,9.64-24.43,42-32.75,42-32.75h0s43.86-10.78,76.5,10.37c3.64,2.36,5.43,3.64,6.82,5.84,15.09,23.94-31.85,93.95-31.85,93.95Z" transform="translate(265.28 229.79)"/><path class="cls-18" d="M821.78,327.06s6.38-17.32,50.23-8.52c40.66,10.76,9.57,38.13-25.11,32.26S816,333.08,821.78,327.06Z" transform="translate(265.28 229.79)"/><path class="cls-19" d="M860.57,401.14S900.18,363,941.71,348c45.36-22.45,105.42-72.6,178.25-49.4,56.23,21.71,98.4,51.65,123.31,107,12.14,32.18,14.06,71.1-78.58,65.86L906.57,472S805.62,463.26,860.57,401.14Z" transform="translate(265.28 229.79)"/><path class="cls-20" d="M856.78,406.86s40.08-38.81,82.09-54C984.76,330,1045.51,279,1119.19,302.61c56.88,22.07,99.54,52.51,124.75,108.81,12.28,32.72,14.22,72.29-79.5,67l-261.12.48S801.2,470,856.78,406.86Z" transform="translate(265.28 229.79)"/><path class="cls-10" d="M1156.92,480.12s1.24,22.65-7.45,31.45c-2.59,3.08-4.64,3-7.74,3.08,0,0,8.64-3.46,10.8-15a130.82,130.82,0,0,0,2.25-20.24h2.14Z" transform="translate(265.28 229.79)"/><path class="cls-10" d="M1070.7,479.2c-.34,4-.51,17.77-.37,20.46.59,11.78,1.27,25.19,7.51,28.65a7.11,7.11,0,0,0,4.67.72l2.36-.32c-2.9,4.39-5.49,4.76-6.33,4.81-5.15.3-11.18-7.91-12.65-21.13a98.52,98.52,0,0,1-1-19c.24-5.27,1.1-14.2,1.1-14.2h4.75Z" transform="translate(265.28 229.79)"/><path class="cls-21" d="M694.9,698.17c.12-.32-.82-.83-1.62-2a7.87,7.87,0,0,1-1.08-2.75c-.71-2.9-3.44-6.4-4.34-7.7-2.87-4.11-4.22-10.28-6.46-20.51a160,160,0,0,1-2.83-17.58c-.16-10.21,1.17-17.9,3.91-22.34a122.85,122.85,0,0,0,7.82-15.14s16.1.77,17.48,0,5.29-4.44,4.6-13.9l.23-2.28-4.14,1.22s-1.27,8.49-6.57,9.15c-6.33.92-13.55-3.17-12.49-9.15h-4.6s1.42,17.43-5.54,21.12c-5.18,1.44-8.24-.85-8-11L671.5,595l-8.25,0s.47,10.85,0,11.5-4.12,7.37-8-6.44c-3.3-9.73-1.41-5.05-1.41-5.05l-4.48.11s2,10.73,8.6,17.43c4.36,6.45,4.48,17.23,1.18,21-3.54,3.81-9.55,5.91-14.14-16.71-3.06-15-3.89-21.77-3.89-21.77l-6.36-.07s2.59,17.9,2.12,21c-.59,3.56-.83,14.47-14.73,9.87-7.22-1.12-21.67-5.14-27.69-17.23-2.23-10.26-1.76-14.2-1.76-14.2l-5.19-.15s.12,5.93,1.18,7.51a16,16,0,0,1-9.25-2.14,19.5,19.5,0,0,1-8.07-9.93l-4.15-.18a26.45,26.45,0,0,0,4.19,7.74,24,24,0,0,0,14,8.72,35.29,35.29,0,0,1,4.12.75s-.23,0-.23,0,1.06,15.52,17.67,22.62c14.85,6.18,21.33,9.34,25.1,11.84s6.36,5.13,5.77,13.67a74.94,74.94,0,0,0,1.06,20.46,71.5,71.5,0,0,0,8.13,22c12.76.45,21,.49,26.2.44,10.54-.11,16.54-.68,19.69.13C692.89,698.12,694.74,698.59,694.9,698.17Z" transform="translate(265.28 229.79)"/><path class="cls-22" d="M678.35,645.37a33.24,33.24,0,0,0-10,9.86c-11.28,17.22-3.61,39.87-2.73,42.33l29.76.6a104.28,104.28,0,0,1-5.72-10.09A114.9,114.9,0,0,1,678.35,645.37Z" transform="translate(265.28 229.79)"/><path class="cls-23" d="M644,612.78s5.52,22.81,9.84,22.64C649.4,637.75,641.05,631.43,644,612.78Z" transform="translate(265.28 229.79)"/><path class="cls-24" d="M674.9,672.8a8.09,8.09,0,0,1-1.64.2,3.39,3.39,0,0,1-1.62-.3,1.46,1.46,0,0,1-.77-1.41,2.57,2.57,0,0,1,.12-.83,3.47,3.47,0,0,1,.29-.78,11.07,11.07,0,0,1,1.76-2.81,9.92,9.92,0,0,1,2.5-2.2,3.56,3.56,0,0,1,1.62-.52,1.79,1.79,0,0,1,1.47.85,6.7,6.7,0,0,1,.9,3.22,21.21,21.21,0,0,1-.8,6.58v0a18.52,18.52,0,0,1-4.52,5.67,6.63,6.63,0,0,1-1.6.91,2.38,2.38,0,0,1-1.87,0,4.81,4.81,0,0,1-2-3,23.34,23.34,0,0,1-.67-7.2l.32-7.23-.13,7.23a23.08,23.08,0,0,0,.72,7.13,4.59,4.59,0,0,0,1.87,2.84,2.08,2.08,0,0,0,1.64,0,5.79,5.79,0,0,0,1.52-.88,18.74,18.74,0,0,0,4.39-5.59v0a20.25,20.25,0,0,0,.84-6.46,6.21,6.21,0,0,0-.81-3.08,1.54,1.54,0,0,0-1.26-.75,3.26,3.26,0,0,0-1.49.47,11.3,11.3,0,0,0-4.23,4.87,3.42,3.42,0,0,0-.29.75,2.39,2.39,0,0,0-.14.79,1.36,1.36,0,0,0,.68,1.34A5.28,5.28,0,0,0,674.9,672.8Z" transform="translate(265.28 229.79)"/><path class="cls-25" d="M561.6,543.73c1.26-9.47,4.6-23.77,14.64-35.44,27.13-31.55,79.08-16.87,95.7-12.16,41,11.63,67.62,39.52,80.65,55.75l6.46,5.21A520,520,0,0,1,656,566a520.6,520.6,0,0,1-89.72-9Z" transform="translate(265.28 229.79)"/><path class="cls-26" d="M732.1,550s36.87-9.33,53.22,19.1c10.64,22.06,12.54,29.22-53.22,25.22C721,559,732.1,550,732.1,550Z" transform="translate(265.28 229.79)"/><path class="cls-27" d="M569.24,589.81c-1.1,0-33.16-2.47-33.16-2.47s-19.9-4.53-8.47-15.63a19.54,19.54,0,0,0,7.22-6.74c2.27-3.63,1.67-5.42,3.12-8.76,4.6-10.61,20-14.22,20-14.22h0s20.91-4.68,36.48,4.5A9.38,9.38,0,0,1,597.7,549c7.19,10.4-15.19,40.79-15.19,40.79Z" transform="translate(265.28 229.79)"/><path class="cls-28" d="M569.49,563.61s19.11-16.84,39.15-23.45c21.88-9.9,50.85-32,86-21.8,27.12,9.58,47.46,22.79,59.48,47.24,5.86,14.2,6.78,31.37-37.91,29.06l-124.51.21S543,591,569.49,563.61Z" transform="translate(265.28 229.79)"/><path class="cls-29" d="M712.61,595.41s.59,9.84-3.55,13.66c-1.24,1.33-2.22,1.3-3.69,1.33a8.86,8.86,0,0,0,5.14-6.51,51.82,51.82,0,0,0,1.08-8.79h1Z" transform="translate(265.28 229.79)"/><path class="cls-29" d="M671.5,595c-.17,1.73-.25,7.72-.18,8.89.28,5.11.61,10.93,3.58,12.43a3.77,3.77,0,0,0,2.23.32l1.13-.14c-1.39,1.9-2.63,2.06-3,2.08-2.46.13-5.34-3.43-6-9.17a38.7,38.7,0,0,1-.49-8.24c.11-2.29.52-6.17.52-6.17h2.27Z" transform="translate(265.28 229.79)"/><path class="cls-30" d="M242.79,819.68c.35-1-2.42-2.63-4.79-6.47a26,26,0,0,1-3.18-8.77c-2.09-9.22-10.16-20.38-12.82-24.49-8.45-13.09-12.44-32.72-19.06-65.28a543.87,543.87,0,0,1-8.34-56c-.48-32.48,3.45-57,11.54-71.09a405.09,405.09,0,0,0,23.08-48.21s47.51,2.46,51.58,0,15.61-14.1,13.58-44.23l.68-7.24-12.22,3.88s-3.76,27-19.41,29.11c-18.66,2.93-40-10.08-36.85-29.11H213s4.18,55.48-16.34,67.2c-15.3,4.61-24.34-2.68-23.64-35.16l.69-32.48-24.34.05s1.39,34.52,0,36.62-12.17,23.44-23.64-20.51c-9.74-31-4.18-16.06-4.18-16.06l-13.21.34s5.91,34.13,25.38,55.48c12.87,20.51,13.22,54.83,3.48,67-10.43,12.14-28.16,18.84-41.73-53.16C86.44,513.4,84,491.82,84,491.82l-18.78-.23s7.65,57,6.26,67c-1.74,11.3-2.43,46-43.46,31.4-21.3-3.57-64-16.37-81.72-54.84-6.61-32.65-5.22-45.2-5.22-45.2l-15.29-.46s.34,18.87,3.47,23.9A44.37,44.37,0,0,1-98,506.59c-15.75-9.9-22.11-26.64-23.82-31.61l-12.27-.57A86.07,86.07,0,0,0-121.73,499c12.1,16.48,28.92,25.57,41.27,27.76,2.46.44,12.19,1.92,12.15,2.38,0,.13-.68.13-.68.13s3.13,49.39,52.16,72C27,621,46.11,631,57.23,639s18.78,16.32,17,43.53a256.35,256.35,0,0,0,3.13,65.09,238.54,238.54,0,0,0,24,70.11c37.64,1.42,61.82,1.56,77.33,1.39,31.09-.35,48.79-2.18,58.09.41C236.87,819.52,242.33,821,242.79,819.68Z" transform="translate(265.28 229.79)"/><path class="cls-31" d="M193.94,651.63A102.58,102.58,0,0,0,164.42,683c-33.28,54.81-10.64,126.89-8.06,134.72l87.86,1.91a334,334,0,0,1-16.9-32.12C204.24,737.29,196.4,688.2,193.94,651.63Z" transform="translate(265.28 229.79)"/><path class="cls-32" d="M92.66,547.93s16.28,72.59,29.05,72.06C108.5,627.41,83.86,607.27,92.66,547.93Z" transform="translate(265.28 229.79)"/><path class="cls-11" d="M183.77,738.94a22.25,22.25,0,0,1-5.07.67,8.71,8.71,0,0,1-4.95-1.24,5,5,0,0,1-1.92-4.65,16.27,16.27,0,0,1,1.31-5,37.83,37.83,0,0,1,5.24-8.85,29.8,29.8,0,0,1,7.56-7,8.44,8.44,0,0,1,5.13-1.41,4.7,4.7,0,0,1,1.36.39,9.19,9.19,0,0,1,1.18.77c.3.34.65.66.92,1s.51.75.72,1.14a24.91,24.91,0,0,1,2.26,10.13,72.36,72.36,0,0,1-2.42,20.41l0,.06,0,.06a76.41,76.41,0,0,1-5.84,9.75,43.91,43.91,0,0,1-7.65,8.47,16.45,16.45,0,0,1-5,2.92,7.84,7.84,0,0,1-3,.43,5.9,5.9,0,0,1-2.87-1,11.71,11.71,0,0,1-3.56-4.64,30.24,30.24,0,0,1-1.85-5.43,65.79,65.79,0,0,1-1.63-11.24,99.61,99.61,0,0,1-.06-11.33l.94-22.58-.35,22.6a96.06,96.06,0,0,0,.22,11.26,64.48,64.48,0,0,0,1.77,11.07,30.63,30.63,0,0,0,1.85,5.23,10.55,10.55,0,0,0,3.24,4.23,4.75,4.75,0,0,0,2.38.84,6.55,6.55,0,0,0,2.57-.39,15.57,15.57,0,0,0,4.68-2.76,42.77,42.77,0,0,0,7.41-8.29A83.42,83.42,0,0,0,194,744.9l0,.11a71.11,71.11,0,0,0,2.48-20.08c-.17-3.35-.59-6.79-2.09-9.71a4.87,4.87,0,0,0-3.45-2.88,7.62,7.62,0,0,0-4.57,1.23,28.93,28.93,0,0,0-7.45,6.74,38.69,38.69,0,0,0-5.29,8.62,15.5,15.5,0,0,0-1.4,4.82,4.66,4.66,0,0,0,1.67,4.41,8.51,8.51,0,0,0,4.8,1.31A21.68,21.68,0,0,0,183.77,738.94Z" transform="translate(265.28 229.79)"/><path class="cls-33" d="M-151.72,329.91C-147.94,298.6-138,251.34-108,212.74-27.13,108.46,127.82,157,177.39,172.56,299.76,211,379.07,303.2,417.92,356.87l19.27,17.21a1404.9,1404.9,0,0,1-307.51,29.41,1406.46,1406.46,0,0,1-267.59-29.91Z" transform="translate(265.28 229.79)"/><path class="cls-34" d="M-150.64,328.16c3.75-30.14,13.6-75.63,43.24-112.79C-27.34,115,126,161.69,175,176.69c121.09,37,199.57,125.76,238,177.42l19.06,16.58A1428.15,1428.15,0,0,1,127.83,399,1429.52,1429.52,0,0,1-137,370.2Z" transform="translate(265.28 229.79)"/><path class="cls-35" d="M349.66,345.67s112-29.23,161.71,59.79c32.35,69.08,38.12,91.49-161.71,79C315.87,373.8,349.66,345.67,349.66,345.67Z" transform="translate(265.28 229.79)"/><path class="cls-36" d="M352.57,348.25S461.39,318.54,509.64,409c31.41,70.23,37,93-157.07,80.27C319.75,376.85,352.57,348.25,352.57,348.25Z" transform="translate(265.28 229.79)"/><path class="cls-37" d="M-127.24,472.55c-3.38,0-101.33-7.83-101.33-7.83s-60.8-14.35-25.9-49.59a60.6,60.6,0,0,0,22.07-21.37c7-11.54,5.09-17.2,9.53-27.82,14.05-33.65,61.17-45.1,61.17-45.1h0S-97.79,306-50.24,335.12c5.31,3.25,7.92,5,9.94,8,22,33-46.41,129.39-46.41,129.39Z" transform="translate(265.28 229.79)"/><path class="cls-38" d="M-128.06,474.81c-3.27,0-97.88-7.85-97.88-7.85s-58.72-14.4-25-49.75a59.69,59.69,0,0,0,21.32-21.43c6.71-11.57,4.92-17.25,9.2-27.91,13.57-33.75,59.09-45.24,59.09-45.24h0S-99.62,307.74-53.68,337c5.12,3.26,7.64,5,9.59,8.06,21.24,33.07-44.82,129.79-44.82,129.79Z" transform="translate(265.28 229.79)"/><path class="cls-37" d="M-176.94,279.61S-167.68,255-104,267.5c59,15.29,13.89,54.21-36.47,45.87S-185.36,288.17-176.94,279.61Z" transform="translate(265.28 229.79)"/><path class="cls-39" d="M-176.58,281.21s9-23.92,70.68-11.77c57.22,14.86,13.47,52.68-35.34,44.57S-184.74,289.53-176.58,281.21Z" transform="translate(265.28 229.79)"/><path class="cls-40" d="M-122,383.55s55.75-52.74,114.19-73.42c63.84-31,148.36-100.29,250.86-68.24,79.12,30,138.46,71.35,173.53,147.86,17.08,44.46,19.78,98.23-110.59,91l-363.25.66S-199.33,469.37-122,383.55Z" transform="translate(265.28 229.79)"/><path class="cls-41" d="M-127.32,391.45s56.39-53.61,115.51-74.63c64.58-31.54,150.08-102,253.77-69.38C322,277.92,382,320,417.51,397.76c17.28,45.2,20,99.86-111.88,92.5l-367.46.67S-205.55,478.7-127.32,391.45Z" transform="translate(265.28 229.79)"/><path class="cls-42" d="M295.06,492.66s1.74,31.29-10.49,43.45c-3.65,4.25-6.53,4.14-10.89,4.25,0,0,12.16-4.78,15.19-20.72a178.07,178.07,0,0,0,3.18-28h3Z" transform="translate(265.28 229.79)"/><path class="cls-43" d="M173.72,491.38c-.48,5.49-.72,24.56-.53,28.27.84,16.27,1.8,34.8,10.57,39.58a10.23,10.23,0,0,0,6.59,1l3.31-.45c-4.08,6.07-7.73,6.58-8.91,6.65-7.25.41-15.73-10.93-17.8-29.19A132.89,132.89,0,0,1,165.49,511c.33-7.28,1.54-19.62,1.54-19.62h6.69Z" transform="translate(265.28 229.79)"/><path class="cls-44" d="M2546.08,533.14c-8.08,8.54-19.89,9.9-30.85,11.48-8.23,1.19-16.5,2.29-24.79,3-25.31,2.32-50.78,1.53-76.05-.93-8.36-.82-15.28-2.91-21.63-7.72L2001,549.7l-89.24-2.23s-9-42.43-30.75-36,26.25,36.73,26.25,36.73l-18,2.24s-18.75-34.25-24.75-27.55,19.5,25.31,19.5,25.31l-58.49.75-15.75-4.47L1774.56,546c-19.49-42.45-56.24-40.92-56.24-40.92a52.44,52.44,0,0,1,28.5,36.47c-30.75-30.52-51-25.31-51-25.31,27,6.7,40.5,29.76,40.5,29.76h-74.24s13.5,0,19.5-20.08S1656.83,546,1656.83,546s-11.25,0-14.25,0c35.25-55.1-3-43.16-9,3-123,2.23-362.14,32.22-362.14,32.22,7.56-10.22,37.43-21,37.43-21-33-2.2-50.24,17.82-50.24,17.82l-28.5,3.19c4.5-24.36,63-42.64,63-42.64-44.24-5.21-81,42.64-81,42.64-1.5-16.92,29.25-49.58,29.25-49.58-26.25,6.47-42,49.58-42,49.58h-9c0-22.87,24.38-44.88,24.38-44.88s-24.38-8.93-34.45,44.88c-4.07-34-67.18-41.15-41.68-32.82s28.5,28.89,28.5,28.89,1.5,5.21-8.25,3.93c-24-40-70.49-27-58.49-26.27s22.49,0,49.49,26.27c-37.5-16.92-70.49,3.51-51.74,0s47.72,9.47,47.72,9.47L993,605.54s54.89-26.06,32.3-24.36c-14.14,1.06-26.39,10.32-33.59,17.11a56.59,56.59,0,0,0,8.19-17.11c5.25-17.66-15-11.38-20.25,23.61C867.92,604.79-32,749.47-32,749.47V919.41l2712.71-5.77V516.1l-130.36,11.72A41.3,41.3,0,0,1,2546.08,533.14Z" transform="translate(265.28 229.79)"/><path class="cls-45" d="M1077.94,770.28s17.61-56,91.28-49.64c41.63-33.63,115.29-49.06,150.52-.51,33.63-15.5,73.66-2,86.47,9.65,67.26-9.14,99.28,6.87,99.28,6.87Z" transform="translate(265.28 229.79)"/><path class="cls-46" d="M282.12,812.53s9.21-29.15,62.91,0c41.43-24.55,49.1-25.91,72.11-12.95,19.95-51.49,144.22-50,167.24-16.2,36.82-18.41,53.7-10.3,55.23,2.52,27.62-7.12,62.91,12.82,62.91,12.82L282.12,834Z" transform="translate(265.28 229.79)"/><path class="cls-47" d="M0,750.37s15.16-24.4,32,0c26.09-51,75.18-46.75,93.6-16.72,36.82-58.71,72.11,10.71,67.5,38.12,41.43-39.15,89-8.09,89,23L337,819.15,0,852.42Z" transform="translate(265.28 229.79)"/><path class="cls-48" d="M1137.92,724.34,2704.73,485.72,2693,646.63Z" transform="translate(265.28 229.79)"/><polygon class="cls-49" points="265.28 1125.21 2970.01 919.07 2958.28 1125.21 265.28 1144.84 265.28 1125.21"/><path class="cls-50" d="M777.22,860.73S2057.29,743.54,2244,763.41C2037.63,952.06,767,943.65,767,943.65Z" transform="translate(265.28 229.79)"/><path class="cls-51" d="M0,803.43S2538.26,569.19,2698.38,611.89L2693,667.35-17.45,880.56Z" transform="translate(265.28 229.79)"/><path class="cls-52" d="M1799.23,903.69s551.48-163.6,976.82-128.46C2705.65,907.77,2693,915.05,2693,915.05Z" transform="translate(265.28 229.79)"/><path class="cls-53" d="M543.13,1148.35" transform="translate(265.28 229.79)"/><path class="cls-54" d="M4,900H31.7s296.65-40.55,439.67-43.84a78.49,78.49,0,0,0-36.81-10.63c-9.42-.16,27.43-8,48.35,4.9,0,0-15.07-18.46-36.42-23s33.43-6.39,45.38,23c9-35.74,42.69-34.24,42.69-34.24s-39.15,18.33-34.94,34.24c0,0,16.16-24.44,42-23,0,0-32.24,16-29.56,23,0,0,149.09-8.28,169-10.79s421.32-13.14,421.32-13.14-46-28.62-20.5-24,27.47,24,27.47,24,3-25.28,20.92-20.79-13,20.79-13,20.79l85.71,2.41s-24.9-27.29-6-26.36,14,24.9,14,24.9,10.52-23.23,30.65-21.74c0,0-27.68,17.21-22.7,25.45,0,0,11.41-16.47,28.61-15.72,0,0-17.9,12-15.29,16.46,0,0,100.22,9.73,215.76,5.24s163.35-7.48,163.35-7.48-26.67-12.13-36.24-17.67,26.28-5.11,47.2,14.51c0,0-13.94-24.53,10-29,0,0-12.95,22.12,0,29l75.7-4.15s-28.89-28.61-6-24.87,13,24.87,13,24.87l73.71-9.9s-3-20.21-31.88-26.94c0,0,23.07-10.18,46.4,23.72,0,0-5.56-24,17.35-29.86s-14.94,22.15-10,29.86c318.82-14.7,556.19-34.35,644-45.23a1643.92,1643.92,0,0,0,188-35c24.08-6.25,43.33-11.95,54.5-15.36L2697,900Z" transform="translate(265.28 229.79)"/><path class="cls-55" d="M450.27,900s-8.51-15.61,0-26.67,11.06,7.38,9.36,26.67c23-30.93,32.35-31.21,18.73,0,84.27-.28,89.37-4.58,89.37-4.58s-38.3.4-41.7-10.42,30.64-4.82,41.7,2.8c-24.68-22.13-32.34-20.43-40.85-25.54s14.47-21.84,46,18.87c6.81,5.82,1.7-4.59-10.21-26.63S578.8,839.28,588.16,881c8.52-40,22.13-33.2,22.13-33.2S595,872.48,595,890.35c27.24-50.22,41.71-53.62,44.27-52.77s-34,31.49-30.65,50.22C651.15,846.09,669,856.31,669,856.31s-41.71,12.76-45.12,31.49c60.44-2.55,214.51-6.81,214.51-6.81l712.73-22.35,471-21.16s18.48-31.33,28.94-22.82-22.89,27.47-22.89,27.47,44.48-30.75,45.79-17-34.67,20.93-34.67,20.93l128.2-5.23s-77.18-49.71-37.28-36,46.44,34,46.44,34-12.43-38.59,15-45.14-19,20.94-7.85,45.14c25.51-22.9,34.67-17,34.67-17l-22.89,18.31,134.09-4.57s-60.18-27.48-34-31.4,41.21,32.7,41.21,32.7-16.35-37.93,3.93-44.15,3.27,43.5,3.27,43.5l47.09-.65s-18.31-43.17,13.74-47.75c0,0-20.93,20.93-3.93,47.75,23.55-41.21,32.71-32.05,32.71-32.05s-26.82,16.35-18.32,32.05C2512.2,831.66,2524,831,2524,831s-14.39-50.37-79.14-54.29-67.37,6.54-64.76-3.93,51-41.86,111.2,0c32.05,26.82,49.06,39.25,32.7,7.85-22.24-32-74.56-60.83-82.41-74.56s32.7-22.24,76.53,26.81c24.2,50.37,26.16,64.1,21.58,32.05s-17-76.53,2-94.19,41.86-17.66,29.43,7.85-19,71.95-13.08,87-5.37-43.17,16.61-64.1,24.59-24.2,33.75-22.9-41.21,27.16-29.43,100.58c26.16-56.1,54.32-84.88,118.08-81.61,0,5.89-61.83,14.39-101.73,89,3.27,7.85-4.58,10.46,25.51-15.7s83.07-28.78,83.07-28.78L2697,758.4s-67.06-6.54-82.11,56.91C2648.91,828.39,2697,833,2697,833v67Z" transform="translate(265.28 229.79)"/><path class="cls-56" d="M2568.57,494.4s-71.27,11-49.34-63.44,58.74-117.49,87.72-36c5.49,32.89,14.88,70.32,0,88.81C2586.28,497.93,2568.57,494.4,2568.57,494.4Z" transform="translate(265.28 229.79)"/><path class="cls-57" d="M2416.73,528.43s-45.18,11-31.28-63.45,37.24-117.49,55.61-36c3.48,32.9,9.44,70.32,0,88.82C2428,532,2416.73,528.43,2416.73,528.43Z" transform="translate(265.28 229.79)"/><path class="cls-58" d="M2347.87,528.53S2310,537.44,2321.68,477s31.18-95.38,46.56-29.25c2.92,26.71,7.9,57.09,0,72.11C2357.27,531.4,2347.87,528.53,2347.87,528.53Z" transform="translate(265.28 229.79)"/><path class="cls-59" d="M2288.54,528.63s-37.57,7-26-40.74,31-75.44,46.25-23.13c2.89,21.12,7.84,45.15,0,57C2297.88,530.89,2288.54,528.63,2288.54,528.63Z" transform="translate(265.28 229.79)"/><rect class="cls-60" x="2826.69" y="724.75" width="12.36" height="27.71"/><rect class="cls-61" x="2675.6" y="758.77" width="8.11" height="20.12"/><rect class="cls-61" x="2607.2" y="758.77" width="8.11" height="20.12"/><rect class="cls-61" x="2547.88" y="758.77" width="8.11" height="20.12"/><path class="cls-62" d="M552.47,40.29S668-3.7,769.18,25c101.2,30,41.94,64.4-43,63.12,0,0-34.8,3.9-116.19,0S498.06,61.33,552.47,40.29Z" transform="translate(265.28 229.79)"/><path class="cls-63" d="M431.9,60.87s103.36-38,193.9-13.22c90.55,25.89,37.53,55.63-38.47,54.53,0,0-31.13,3.37-104,0S383.21,79.05,431.9,60.87Z" transform="translate(265.28 229.79)"/><path class="cls-64" d="M1785.75,118.68s103.36-38,193.91-13.22c90.54,25.89,37.52,55.63-38.47,54.53,0,0-31.14,3.37-104,0S1737.06,136.86,1785.75,118.68Z" transform="translate(265.28 229.79)"/><path class="cls-65" d="M2074.73,301.91a314.73,314.73,0,0,1,87.33-10.58c54.21.94,106.86,15.53,102.92,23.57-3,6.15-39.73,10.11-60.87,10.11-105.55,0-40,1-105.55,0-14.72-.22-33.13-1.85-39-6.68C2054.11,313.87,2060.72,307.24,2074.73,301.91Z" transform="translate(265.28 229.79)"/><path class="cls-66" d="M1481.31,294.58A314.39,314.39,0,0,1,1568.64,284c54.21.93,106.86,15.53,102.91,23.56-3,6.15-39.73,10.11-60.87,10.11-105.54,0-40,1-105.54,0-14.72-.22-33.13-1.84-39-6.68C1460.69,306.55,1467.29,299.91,1481.31,294.58Z" transform="translate(265.28 229.79)"/><path class="cls-67" d="M1377.54,284.83a314.34,314.34,0,0,1,87.33-10.58c54.21.94,106.86,15.53,102.91,23.57-3,6.15-39.73,10.11-60.87,10.11-105.54,0-40,1-105.54,0-14.72-.23-33.13-1.85-39-6.68C1356.92,296.79,1363.52,290.15,1377.54,284.83Z" transform="translate(265.28 229.79)"/><path class="cls-68" d="M1577.22,116.48s135.66-51.66,254.51-18c118.85,35.2,49.25,75.63-50.5,74.14,0,0-40.86,4.57-136.45,0S1513.31,141.2,1577.22,116.48Z" transform="translate(265.28 229.79)"/><path class="cls-69" d="M991.26,121.33a220,220,0,0,1,87.32-15.67c54.22,1.39,106.86,23,102.92,34.91-3,9.11-39.73,15-60.87,15-105.54,0-40,1.48-105.54,0-14.72-.33-33.13-2.73-39-9.89C970.63,139.05,977.24,129.22,991.26,121.33Z" transform="translate(265.28 229.79)"/><path class="cls-70" d="M900.28,18.13A306.63,306.63,0,0,1,1023.67-4.36c76.61,2,151,33,145.42,50.11-4.26,13.08-56.13,21.5-86,21.5-149.13,0-56.52,2.11-149.13,0-20.8-.48-46.81-3.93-55.14-14.21C871.14,43.57,880.47,29.45,900.28,18.13Z" transform="translate(265.28 229.79)"/><path class="cls-71" d="M2137.21,22.62A258,258,0,0,1,2244.79,2.19c66.79,1.8,131.64,30,126.78,45.52-3.72,11.88-48.94,19.53-75,19.53-130,0-49.28,1.92-130,0-18.13-.43-40.81-3.57-48.07-12.9C2111.81,45.73,2120,32.91,2137.21,22.62Z" transform="translate(265.28 229.79)"/><path class="cls-72" d="M1363.58,25.4a314.45,314.45,0,0,1,87.33-10.57c54.22.93,106.86,15.53,102.92,23.56-3,6.15-39.73,10.11-60.87,10.11-105.54,0-40,1-105.54,0-14.72-.22-33.13-1.84-39-6.68C1343,37.37,1349.57,30.73,1363.58,25.4Z" transform="translate(265.28 229.79)"/><path class="cls-73" d="M1388.62,7.92A371.44,371.44,0,0,1,1506.36-8.53c73.1,1.46,144.08,24.15,138.76,36.64-4.07,9.56-53.56,15.71-82.07,15.71-142.3,0-53.93,1.55-142.3,0-19.85-.34-44.67-2.87-52.61-10.38C1360.82,26.51,1369.72,16.2,1388.62,7.92Z" transform="translate(265.28 229.79)"/><path class="cls-74" d="M2906.85,738.62c.52-1.46-3.66-3.78-7.24-9.32a36.26,36.26,0,0,1-4.8-12.64c-3.16-13.28-15.35-29.36-19.37-35.29-12.77-18.86-18.8-47.15-28.8-94.07A753.48,753.48,0,0,1,2834,506.66c-.72-46.8,5.21-82.08,17.44-102.43a571.45,571.45,0,0,0,34.87-69.47s71.79,3.53,77.94,0,23.59-20.33,20.51-63.74l1-10.44-19.29-1.52c.83,23.72-12,44-28.49,49.06-21.9,6.74-53.59-12.13-58.17-47.24l-16.37-1.21A149.72,149.72,0,0,1,2837.17,363c-23.12,6.63-36.78-3.86-35.73-50.67l1-46.8-35.35-7.09c3,8.16,13.12,37.92-1.42,59.92-2.4,3.63-6.8,10.16-12.4,10.11-6.47-.06-14.77-8.4-23.33-39.66-7.42-22.52-9-28.21-8.66-28.31s2.39,5.16,2.36,5.17-.91-1.92-3.83-8.44l-17.57,1.21a179,179,0,0,0,9.58,36.16,180.87,180.87,0,0,0,30.2,51.51c19.44,29.56,20,79,5.26,96.51-15.76,17.49-42.56,27.14-63-76.6-6.79-34.4.38-60.93-17.33-99.85-1.63-3.59-3.09-6.47-4.06-8.33l-24.85,3c13.94,45,12.65,80.44,10,101.53-3.71,29.4-11.73,39.18-18.61,44.68-17.2,13.74-40.3,9.64-46.53,8.34a145.75,145.75,0,0,1-119.56-77.82c-4.68-18.42-8.83-38.18-12.12-59.2q-1.64-10.46-2.87-20.56l-22.42.6c.69,6,1.62,12.28,2.84,18.88,1.3,7.09,2.8,13.74,4.39,19.93a69.19,69.19,0,0,1-23.33-2.18,80.64,80.64,0,0,1-17.91-7.63c-23.36-13.88-35.22-48.21-36.3-51.42h-19.39a110.9,110.9,0,0,0,19.88,40.53c17.36,22.19,42.84,36.7,62.34,40,3.72.62,18.43,2.77,18.37,3.43,0,.18-1,.18-1,.18s4.73,71.18,78.81,103.75c66.19,28.35,95.09,42.83,111.9,54.29s28.37,23.52,25.75,62.73a351.6,351.6,0,0,0,4.72,93.79,333.47,333.47,0,0,0,36.26,101c56.88,2.05,93.41,2.25,116.83,2,47-.5,73.72-3.14,87.78.6C2897.9,738.39,2906.15,740.58,2906.85,738.62Z" transform="translate(265.28 229.79)"/><path class="cls-75" d="M2833.05,496.47a150.6,150.6,0,0,0-44.61,45.24c-50.28,79-16.07,182.85-12.18,194.14L2909,738.6a477.59,477.59,0,0,1-25.53-46.28C2848.6,619.91,2836.76,549.17,2833.05,496.47Z" transform="translate(265.28 229.79)"/><path class="cls-76" d="M2817.67,622.28a35,35,0,0,1-7.43,1,14.68,14.68,0,0,1-7.35-1.54,6.4,6.4,0,0,1-2.61-2.81,8.79,8.79,0,0,1-.69-3.78,22.06,22.06,0,0,1,1.91-7.34,54.53,54.53,0,0,1,7.9-12.84,44.9,44.9,0,0,1,11.24-10.12,19,19,0,0,1,3.51-1.64,10.52,10.52,0,0,1,3.92-.64,7.11,7.11,0,0,1,3.87,1.29,10.13,10.13,0,0,1,2.71,2.95,22.84,22.84,0,0,1,2.76,7.2,47.07,47.07,0,0,1,1,7.54c.51,10.13-1.1,20.19-3.66,29.91l0,.08-.05.09a108.59,108.59,0,0,1-8.81,14,64.73,64.73,0,0,1-11.41,12.1,26.62,26.62,0,0,1-7.33,4.2,12.81,12.81,0,0,1-4.28.76,9,9,0,0,1-4.3-1.1,15.26,15.26,0,0,1-5.65-6.4,38.78,38.78,0,0,1-3-7.82,87.58,87.58,0,0,1-2.62-16.35,131.86,131.86,0,0,1-.14-16.51c.47-11,.89-21.93,1.41-32.9-.13,11-.37,22-.56,32.92a133.86,133.86,0,0,0,.38,16.4,86.93,86.93,0,0,0,2.82,16.07,39.71,39.71,0,0,0,2.94,7.51,13.87,13.87,0,0,0,5.09,5.78,8.88,8.88,0,0,0,7.37.2,24.56,24.56,0,0,0,6.86-4,62.25,62.25,0,0,0,11.06-11.85,118.31,118.31,0,0,0,8.67-13.83l-.07.17c2.57-9.57,4.2-19.5,3.75-29.38a46.84,46.84,0,0,0-.93-7.31,21.71,21.71,0,0,0-2.54-6.75c-1.23-2-3.11-3.59-5.43-3.65a12.88,12.88,0,0,0-6.73,2,43.92,43.92,0,0,0-11.08,9.7,55,55,0,0,0-8,12.5,21.5,21.5,0,0,0-2,7,8.38,8.38,0,0,0,.55,3.55,5.93,5.93,0,0,0,2.36,2.65,14.39,14.39,0,0,0,7.13,1.66A34.43,34.43,0,0,0,2817.67,622.28Z" transform="translate(265.28 229.79)"/><path class="cls-77" d="M2310.78,32.85c5.71-45.11,20.76-113.21,66-168.84C2499-286.27,2733.14-216.33,2808-193.89,2992.93-138.48,3112.75-5.63,3171.45,71.7l29.12,24.81A2223.14,2223.14,0,0,1,2736,138.89a2224,2224,0,0,1-404.3-43.1Z" transform="translate(265.28 229.79)"/><path class="cls-78" d="M2312.42,30.33c5.66-43.42,20.54-109,65.32-162.53,121-144.67,352.63-77.35,426.74-55.74C2987.43-134.6,3106-6.71,3164.09,67.73l28.81,23.89a2259.2,2259.2,0,0,1-459.75,40.79,2260,2260,0,0,1-400.07-41.49Z" transform="translate(265.28 229.79)"/><path class="cls-79" d="M3068.31,55.56s169.29-42.12,244.34,86.16c48.87,99.56,57.6,131.84-244.34,113.78C3017.26,96.1,3068.31,55.56,3068.31,55.56Z" transform="translate(265.28 229.79)"/><path class="cls-80" d="M3072.71,59.29S3237.14,16.47,3310,146.87c47.46,101.2,55.94,134-237.32,115.66C3023.12,100.5,3072.71,59.29,3072.71,59.29Z" transform="translate(265.28 229.79)"/><path class="cls-81" d="M2347.77,238.41c-5.11,0-153.1-11.29-153.1-11.29s-91.86-20.68-39.13-71.46a90,90,0,0,0,33.34-30.79c10.51-16.63,7.7-24.78,14.4-40.1,21.23-48.48,92.43-65,92.43-65h0s96.56-21.39,168.41,20.59c8,4.68,12,7.21,15,11.57C2512.35,99.45,2409,238.41,2409,238.41Z" transform="translate(265.28 229.79)"/><path class="cls-82" d="M2346.53,241.66c-4.93,0-147.88-11.32-147.88-11.32s-88.73-20.75-37.79-71.68a88.14,88.14,0,0,0,32.2-30.89c10.15-16.67,7.44-24.85,13.91-40.21,20.51-48.63,89.27-65.19,89.27-65.2h0S2389.51.9,2458.91,43c7.73,4.69,11.54,7.23,14.49,11.6,32.1,47.66-67.72,187-67.72,187Z" transform="translate(265.28 229.79)"/><path class="cls-83" d="M2355.69,110.15s84.22-76,172.53-105.79c96.45-44.7,224.15-144.53,379-98.34,119.55,43.21,209.21,102.81,262.19,213.07,25.81,64.07,29.89,141.55-167.1,131.12l-548.83.95S2238.86,233.82,2355.69,110.15Z" transform="translate(265.28 229.79)"/><path class="cls-84" d="M2347.64,121.54S2432.85,44.29,2522.18,14c97.57-45.44,226.75-146.93,383.42-100,120.94,43.93,211.64,104.52,265.24,216.62,26.11,65.13,30.23,143.9-169,133.3l-555.21,1S2229.46,247.27,2347.64,121.54Z" transform="translate(265.28 229.79)"/><path class="cls-85" d="M2985.82,267.38s2.63,45.09-15.84,62.62c-5.51,6.13-9.88,6-16.46,6.13,0,0,18.38-6.9,22.95-29.87a244.5,244.5,0,0,0,4.8-40.3h4.55Z" transform="translate(265.28 229.79)"/><path class="cls-85" d="M2802.49,265.54c-.73,7.9-1.09,35.39-.8,40.74,1.27,23.44,2.72,50.14,16,57a16.1,16.1,0,0,0,10,1.44l5-.64c-6.16,8.74-11.68,9.48-13.46,9.58-11,.58-23.77-15.75-26.9-42.06a183,183,0,0,1-2.21-37.82c.51-10.49,2.34-28.27,2.34-28.27h10.1Z" transform="translate(265.28 229.79)"/><path class="cls-86" d="M-40,838.51-5.78,832s-46.26-4.93-8.62-7.83l37.64-2.9S-.29,815,8.34,807.93s20.39,10.2,20.39,10.2S36.37,800,49.8,799.28,35,818.13,35,818.13l202.32-17s-29-24.57-19.6-21.44,25.69,21.44,25.69,21.44,12-24.57,23.71-19.87l-16.47,19.87L275,798s20.47-22.68,22-20.49S282.58,798,282.58,798s37.86-8.35,33.94-4.18-21.95,13.33-89.39,22c40.77-1.57,162.32-11.95,172.52-9.11S307.9,828.32-40,856.92Z" transform="translate(265.28 229.79)"/><path class="cls-87" d="M1411,727.06l175.5-9.72s-13.5-17.28-24.11-20.17,16.39-14.63,31.82,20.17c3.86-24.41,6.75-25,14.46-27.39s-5.78,27.39-5.78,27.39h45.32s2.89,4.9-32.79,9.72-65.57,2.9-35.67,4.82,173.57,0,173.57,0S1567.18,771,1356,761.81c0,0-115-2.55-43-10l71.94-7.42s-29.89-17.33-18.32-14,26,13.84,26,13.84,91.61-2.76,55-4.69S1367.55,734.78,1411,727.06Z" transform="translate(265.28 229.79)"/><path class="cls-88" d="M1938.41,715.64S2031,685.75,2112,682.86s215-14.47,241.07-12.54,18,10.61-37.79,17.36c0,0,89.86-6.75,134.22-4.82s-7,10.45-170.8,23.06S1938.41,715.64,1938.41,715.64Z" transform="translate(265.28 229.79)"/><path class="cls-89" d="M2320.15,669.72s18.27-39.6,32.54-31S2328,671.25,2328,671.25Z" transform="translate(265.28 229.79)"/><path class="cls-90" d="M2353.05,664.14s20-29,53.43-24.22-29.18,10.55-45.95,25.12S2353.05,664.14,2353.05,664.14Z" transform="translate(265.28 229.79)"/><path class="cls-91" d="M2305,672.74s-39.71-33.62-22.29-24.53S2305,672.74,2305,672.74Z" transform="translate(265.28 229.79)"/><path class="cls-92" d="M2310.64,675.88s-4.65-38.82,4.86-34.75S2310.64,675.88,2310.64,675.88Z" transform="translate(265.28 229.79)"/><path class="cls-93" d="M1971.15,709.16s-39-38.92-23.42-31.3S1971.15,709.16,1971.15,709.16Z" transform="translate(265.28 229.79)"/><path class="cls-94" d="M1980.05,708.49s-4.69-54.29,2.91-40.82S1980.05,708.49,1980.05,708.49Z" transform="translate(265.28 229.79)"/><path class="cls-95" d="M1406.66,731.14s-25.32-27.52-13.9-20.87S1406.66,731.14,1406.66,731.14Z" transform="translate(265.28 229.79)"/><path class="cls-96" d="M1036.67,712.74s17.61-56,91.27-49.64c41.64-33.63,115.3-49.06,150.53-.51,33.63-15.5,73.66-2,86.47,9.65,67.26-9.14,99.28,6.87,99.28,6.87Z" transform="translate(265.28 229.79)"/><path class="cls-97" d="M315.05,751.54s9.21-29.16,62.91,0c41.42-24.55,49.1-25.92,72.11-13,19.95-51.48,144.22-50,167.24-16.2,36.82-18.41,53.7-10.29,55.23,2.53,27.62-7.13,62.91,12.82,62.91,12.82L315.05,773Z" transform="translate(265.28 229.79)"/><path class="cls-98" d="M274.4,777.44s-48.91-19.83-37.8-33.82,38.25,4.17,45.52,15.66c-23.84-45.2-6.06-6.85-15.51-30.2s12.23-24.85,24.46,9.53a88.8,88.8,0,0,1,6.11-32.31c5.33-13.43,11-17.51,15-19.3,1.9-.85,3.36-1.48,4.4-.87,7.41,4.33-17.06,57.49-17.06,57.49s12.1-30.12,31.55-32.89-27.78,43.42-27.78,43.42S330,723,348.87,723.53s-36.68,35.75-36.68,35.75,16.67-12.41,43.35-8.52c-10,7.22-33.9,15.73-33.9,15.73a154.41,154.41,0,0,0,41.19,3.45c3.44-.18,6.75-.47,9.94-.84Z" transform="translate(265.28 229.79)"/></g></svg>