<svg id="Layer_1" data-name="Layer 1" xmlns="http://www.w3.org/2000/svg" xmlns:xlink="http://www.w3.org/1999/xlink" viewBox="0 0 3125.7 1037.3"><defs><style>.cls-1{fill:none;}.cls-2{clip-path:url(#clip-path);}.cls-3{stroke:#231f20;stroke-miterlimit:10;fill:url(#linear-gradient);}.cls-4{fill:url(#linear-gradient-2);}.cls-5{fill:#1d8642;}.cls-6{fill:url(#linear-gradient-3);}.cls-7{fill:url(#linear-gradient-4);}.cls-8{fill:#c08872;}.cls-9{fill:#cd846b;}.cls-10{fill:#754e33;}.cls-11{fill:#6dc294;}.cls-12{fill:url(#linear-gradient-5);}.cls-13{fill:url(#linear-gradient-6);}.cls-14{fill:url(#linear-gradient-7);}.cls-15{fill:url(#linear-gradient-8);}.cls-16{fill:url(#linear-gradient-9);}.cls-17{fill:url(#linear-gradient-10);}.cls-18{fill:url(#linear-gradient-11);}.cls-19{fill:url(#linear-gradient-12);}.cls-20{fill:url(#linear-gradient-13);}.cls-21{fill:url(#linear-gradient-14);}.cls-22{fill:url(#linear-gradient-15);}.cls-23{fill:url(#linear-gradient-16);}.cls-24{fill:#b48274;}.cls-25{fill:#c98a72;}.cls-26{fill:url(#linear-gradient-17);}.cls-27{fill:url(#linear-gradient-18);}.cls-28{fill:url(#linear-gradient-19);}.cls-29{fill:url(#linear-gradient-20);}.cls-30{fill:url(#linear-gradient-21);}.cls-31{fill:url(#linear-gradient-22);}.cls-32{fill:url(#linear-gradient-23);}.cls-33{fill:url(#linear-gradient-24);}.cls-34{fill:url(#linear-gradient-25);}.cls-35{fill:url(#linear-gradient-26);}.cls-36{fill:url(#linear-gradient-27);}.cls-37{fill:url(#linear-gradient-28);}.cls-38{fill:url(#linear-gradient-29);}.cls-39{fill:#83c34e;}.cls-40{fill:url(#linear-gradient-30);}.cls-41{fill:#104925;}.cls-42{fill:#0d1f17;}.cls-43{fill:url(#linear-gradient-31);}.cls-44{fill:#222d44;}.cls-45{fill:#203463;}.cls-46{fill:#271323;}.cls-47{fill:#131227;}</style><clipPath id="clip-path" transform="translate(119.91 94.82)"><rect class="cls-1" width="2693" height="900"/></clipPath><linearGradient id="linear-gradient" x1="2486.5" y1="758.89" x2="56.13" y2="248.85" gradientUnits="userSpaceOnUse"><stop offset="0.08" stop-color="#198b9a"/><stop offset="0.46" stop-color="#25828e"/><stop offset="0.91" stop-color="#1e7f8b"/></linearGradient><linearGradient id="linear-gradient-2" x1="1616.8" y1="1017.43" x2="2888.97" y2="-699.19" gradientUnits="userSpaceOnUse"><stop offset="0.19" stop-color="#25556b"/><stop offset="0.22" stop-color="#265c7a"/><stop offset="0.29" stop-color="#28668f"/><stop offset="0.37" stop-color="#2a6d9e"/><stop offset="0.46" stop-color="#2b71a7"/><stop offset="0.6" stop-color="#2b72aa"/></linearGradient><linearGradient id="linear-gradient-3" x1="1095.53" y1="1197.92" x2="80.13" y2="-181.49" gradientUnits="userSpaceOnUse"><stop offset="0.19" stop-color="#1f5b73"/><stop offset="0.38" stop-color="#1f5e74"/><stop offset="0.54" stop-color="#216876"/><stop offset="0.68" stop-color="#24797a"/><stop offset="0.76" stop-color="#26877d"/></linearGradient><linearGradient id="linear-gradient-4" x1="1637.78" y1="768.39" x2="1628.19" y2="276.95" gradientUnits="userSpaceOnUse"><stop offset="0" stop-color="#907d62"/><stop offset="0.25" stop-color="#877d63"/><stop offset="0.76" stop-color="#787c65"/></linearGradient><linearGradient id="linear-gradient-5" x1="1613.53" y1="427.53" x2="1876.32" y2="-219.14" gradientUnits="userSpaceOnUse"><stop offset="0.22" stop-color="#4fbd9c"/><stop offset="0.34" stop-color="#5abf9d"/><stop offset="0.49" stop-color="#62c19d"/></linearGradient><linearGradient id="linear-gradient-6" x1="2127.1" y1="164.9" x2="1872.85" y2="514.05" gradientUnits="userSpaceOnUse"><stop offset="0.3" stop-color="#42b9b8"/><stop offset="0.67" stop-color="#4bacaf"/></linearGradient><linearGradient id="linear-gradient-7" x1="1290.02" y1="380.45" x2="1471.65" y2="208.43" gradientUnits="userSpaceOnUse"><stop offset="0.23" stop-color="#2dab76"/><stop offset="0.54" stop-color="#2fac79"/><stop offset="0.74" stop-color="#35b181"/><stop offset="0.88" stop-color="#3db88d"/></linearGradient><linearGradient id="linear-gradient-8" x1="1396.48" y1="274.89" x2="1391.26" y2="7.59" gradientUnits="userSpaceOnUse"><stop offset="0.18" stop-color="#64c08d"/><stop offset="0.6" stop-color="#62c091"/></linearGradient><linearGradient id="linear-gradient-9" x1="1637.62" y1="461.83" x2="1816.46" y2="39.93" gradientUnits="userSpaceOnUse"><stop offset="0.09" stop-color="#2caa95"/><stop offset="0.35" stop-color="#43b49f"/><stop offset="0.68" stop-color="#65c3af"/></linearGradient><linearGradient id="linear-gradient-10" x1="683.83" y1="672.91" x2="674.24" y2="181.47" gradientUnits="userSpaceOnUse"><stop offset="0" stop-color="#8c7d62"/><stop offset="0.29" stop-color="#817c63"/><stop offset="0.78" stop-color="#727b64"/></linearGradient><linearGradient id="linear-gradient-11" x1="659.58" y1="332.05" x2="922.37" y2="-314.63" xlink:href="#linear-gradient-5"/><linearGradient id="linear-gradient-12" x1="1173.15" y1="69.41" x2="918.9" y2="418.56" xlink:href="#linear-gradient-6"/><linearGradient id="linear-gradient-13" x1="166.5" y1="445.56" x2="586.95" y2="47.37" gradientUnits="userSpaceOnUse"><stop offset="0.29" stop-color="#2d84a8"/><stop offset="0.46" stop-color="#3698ad"/><stop offset="0.67" stop-color="#43b7b5"/></linearGradient><linearGradient id="linear-gradient-14" x1="442.53" y1="179.41" x2="437.31" y2="-87.9" xlink:href="#linear-gradient-8"/><linearGradient id="linear-gradient-15" x1="683.67" y1="366.34" x2="862.51" y2="-55.55" xlink:href="#linear-gradient-9"/><linearGradient id="linear-gradient-16" x1="1109.58" y1="768.2" x2="1098.53" y2="202.46" gradientUnits="userSpaceOnUse"><stop offset="0" stop-color="#877e62"/><stop offset="0.28" stop-color="#7c7c63"/><stop offset="0.76" stop-color="#6d7a65"/></linearGradient><linearGradient id="linear-gradient-17" x1="1083.48" y1="390.57" x2="1397.69" y2="-382.63" gradientUnits="userSpaceOnUse"><stop offset="0.22" stop-color="#2ab16f"/><stop offset="0.32" stop-color="#43b880"/><stop offset="0.42" stop-color="#5abe8f"/><stop offset="0.49" stop-color="#62c094"/></linearGradient><linearGradient id="linear-gradient-18" x1="1716.48" y1="68.29" x2="1412.89" y2="485.2" gradientUnits="userSpaceOnUse"><stop offset="0.3" stop-color="#52b77c"/><stop offset="0.67" stop-color="#50b477"/></linearGradient><linearGradient id="linear-gradient-19" x1="677.64" y1="328.14" x2="898.91" y2="118.57" gradientUnits="userSpaceOnUse"><stop offset="0.23" stop-color="#2bac75"/><stop offset="0.55" stop-color="#2bad78"/><stop offset="0.75" stop-color="#2cb280"/><stop offset="0.89" stop-color="#2cb78b"/></linearGradient><linearGradient id="linear-gradient-20" x1="808.43" y1="200.81" x2="802.43" y2="-106.48" gradientUnits="userSpaceOnUse"><stop offset="0.18" stop-color="#64c092"/><stop offset="0.61" stop-color="#65c090"/></linearGradient><linearGradient id="linear-gradient-21" x1="1111.53" y1="425.76" x2="1325.13" y2="-78.11" gradientUnits="userSpaceOnUse"><stop offset="0.09" stop-color="#38b185"/><stop offset="0.31" stop-color="#4fb889"/><stop offset="0.68" stop-color="#7dc792"/></linearGradient><linearGradient id="linear-gradient-22" x1="294.13" y1="888.77" x2="333.3" y2="66.03" gradientUnits="userSpaceOnUse"><stop offset="0.23" stop-color="#209067"/><stop offset="0.32" stop-color="#259567"/><stop offset="0.43" stop-color="#34a266"/><stop offset="0.55" stop-color="#4cb864"/><stop offset="0.55" stop-color="#4cb864"/></linearGradient><linearGradient id="linear-gradient-23" x1="172.18" y1="758.13" x2="651.08" y2="111.93" gradientUnits="userSpaceOnUse"><stop offset="0.16" stop-color="#0c6147"/><stop offset="0.26" stop-color="#137b59"/><stop offset="0.4" stop-color="#1c9b6f"/><stop offset="0.52" stop-color="#21ae7d"/><stop offset="0.6" stop-color="#23b582"/></linearGradient><linearGradient id="linear-gradient-24" x1="754.02" y1="797.1" x2="1050.02" y2="397.69" gradientUnits="userSpaceOnUse"><stop offset="0.2" stop-color="#218b4d"/><stop offset="0.36" stop-color="#3ba362"/><stop offset="0.52" stop-color="#4eb571"/><stop offset="0.63" stop-color="#5b7"/></linearGradient><linearGradient id="linear-gradient-25" x1="1632.86" y1="812.29" x2="2018.95" y2="291.32" gradientUnits="userSpaceOnUse"><stop offset="0.18" stop-color="#1aa77d"/><stop offset="0.24" stop-color="#2bac7b"/><stop offset="0.39" stop-color="#4bb676"/><stop offset="0.51" stop-color="#5ebc73"/><stop offset="0.6" stop-color="#65be72"/></linearGradient><linearGradient id="linear-gradient-26" x1="2518.57" y1="722.64" x2="2615.09" y2="201.78" gradientUnits="userSpaceOnUse"><stop offset="0.18" stop-color="#45ac66"/><stop offset="0.25" stop-color="#52b26f"/><stop offset="0.4" stop-color="#6abd7e"/><stop offset="0.54" stop-color="#78c488"/><stop offset="0.65" stop-color="#7dc68b"/></linearGradient><linearGradient id="linear-gradient-27" x1="261.89" y1="645.6" x2="-195.99" y2="189.23" gradientUnits="userSpaceOnUse"><stop offset="0" stop-color="#43b555"/><stop offset="0.03" stop-color="#40b255"/><stop offset="0.27" stop-color="#289b52"/><stop offset="0.49" stop-color="#1a8e50"/><stop offset="0.68" stop-color="#15894f"/></linearGradient><linearGradient id="linear-gradient-28" x1="1047.01" y1="699.58" x2="1121.91" y2="295.46" xlink:href="#linear-gradient-26"/><linearGradient id="linear-gradient-29" x1="1305.78" y1="777.18" x2="1582.35" y2="403.98" gradientUnits="userSpaceOnUse"><stop offset="0.17" stop-color="#24b174"/><stop offset="0.31" stop-color="#3ab575"/><stop offset="0.48" stop-color="#4dba76"/><stop offset="0.6" stop-color="#54bb76"/></linearGradient><linearGradient id="linear-gradient-30" x1="71.24" y1="797.19" x2="3337.72" y2="785.33" gradientUnits="userSpaceOnUse"><stop offset="0.18" stop-color="#4f5a73"/><stop offset="0.83" stop-color="#4f5a73"/></linearGradient><linearGradient id="linear-gradient-31" x1="460.64" y1="484.65" x2="-181.32" y2="1110.84" gradientUnits="userSpaceOnUse"><stop offset="0.18" stop-color="#101439"/><stop offset="0.21" stop-color="#111437"/><stop offset="0.56" stop-color="#151228"/><stop offset="0.84" stop-color="#161223"/></linearGradient></defs><g class="cls-2"><rect class="cls-3" x="119.91" y="94.82" width="2693" height="900"/><path class="cls-4" d="M1074.89,666.37S1215.7,466.92,1400.77,426c91.3-241.45,390.59-525,628.08-253.38a369,369,0,0,1,71.52-92.8c71.58-67.17,152-88.07,190.84-95.36A775.48,775.48,0,0,1,2496.53,0c20-15.81,34-17.3,43.29-15.5,11.09,2.16,28.54,11.57,28.54,11.57h0L2695,0l9.22,632.51Z" transform="translate(119.91 94.82)"/><rect class="cls-5" x="55.26" y="668.43" width="2849.98" height="259.77"/><path class="cls-6" d="M-64.65,197.06S-9.44,116,88.16,169.32c95.13-103,235.16-150.74,387.35-65.7,156.27-65.81,261.66,46.07,246.73,116.64,113.56-34.52,188.34,57.09,167.18,135.07,97.08-40.27,115.41-9.87,94,83,97.66-.21,132.7,1.85,174.94,48.2C1247.44,461.84,1399.55,676,1399.55,676L-3.93,639.33Z" transform="translate(119.91 94.82)"/><path class="cls-7" d="M1811.54,737.49c.39-1.08-2.71-2.81-5.36-6.93a27.3,27.3,0,0,1-3.55-9.39c-2.33-9.88-11.35-21.82-14.32-26.23-9.46-14-13.91-35.05-21.31-69.93a561.23,561.23,0,0,1-9.33-59.94c-.53-34.79,3.86-61,12.9-76.14a424.36,424.36,0,0,0,25.8-51.64s53.11,2.63,57.66,0,17.45-15.11,15.18-47.38l.76-7.76-13.66,4.16s-4.2,28.94-21.69,31.18c-20.86,3.14-44.7-10.79-41.2-31.18h-15.16s4.66,59.43-18.27,72c-17.1,4.93-27.21-2.87-26.43-37.66l.77-34.79-27.2.05s1.55,37,0,39.22-13.61,25.11-26.43-22C1669.81,370,1676,386,1676,386l-14.77.36s6.61,36.56,28.38,59.43c14.38,22,14.77,58.73,3.88,71.73-11.66,13-31.48,20.18-46.64-56.94-10.11-51.11-12.83-74.22-12.83-74.22l-21-.25s8.56,61,7,71.78c-1.94,12.11-2.72,49.32-48.59,33.63-23.81-3.82-71.49-17.53-91.34-58.74-7.38-35-5.83-48.42-5.83-48.42l-17.1-.49s.39,20.22,3.89,25.6a51.25,51.25,0,0,1-30.52-7.29c-17.6-10.6-24.71-28.54-26.62-33.86l-13.71-.61A90.91,90.91,0,0,0,1404.07,394c13.52,17.65,32.33,27.39,46.13,29.74,2.75.47,13.63,2.06,13.59,2.55,0,.14-.76.14-.76.14s3.5,52.9,58.3,77.12c49,21.07,70.36,31.83,82.79,40.35s21,17.48,19.05,46.63a262.58,262.58,0,0,0,3.5,69.72,248.52,248.52,0,0,0,26.82,75.1c42.08,1.51,69.11,1.66,86.44,1.48,34.76-.37,54.54-2.33,64.94.45C1804.92,737.32,1811,739,1811.54,737.49Z" transform="translate(119.91 94.82)"/><path class="cls-8" d="M1756.94,557.49a111.9,111.9,0,0,0-33,33.64c-37.2,58.71-11.89,135.91-9,144.3l98.21,2.05a355,355,0,0,1-18.89-34.41C1768.45,649.25,1759.68,596.67,1756.94,557.49Z" transform="translate(119.91 94.82)"/><path class="cls-9" d="M1643.72,446.41s18.21,77.75,32.47,77.19C1661.43,531.54,1633.88,510,1643.72,446.41Z" transform="translate(119.91 94.82)"/><path class="cls-10" d="M1745.56,651a25.5,25.5,0,0,1-5.51.69,10.65,10.65,0,0,1-5.4-1.18,4.71,4.71,0,0,1-1.88-2.07,6.4,6.4,0,0,1-.47-2.77,16.49,16.49,0,0,1,1.43-5.39,41,41,0,0,1,5.87-9.48,33.11,33.11,0,0,1,8.31-7.43,10,10,0,0,1,5.38-1.61,4.93,4.93,0,0,1,2.71.94,7.32,7.32,0,0,1,1.91,2.13,17,17,0,0,1,2,5.26,35.88,35.88,0,0,1,.72,5.55,73.29,73.29,0,0,1-2.69,22.1v0l0,0a79.64,79.64,0,0,1-6.5,10.39,47.21,47.21,0,0,1-8.4,8.95,19.18,19.18,0,0,1-5.36,3.08,7.34,7.34,0,0,1-6.13-.27,11.12,11.12,0,0,1-4-4.67,28.58,28.58,0,0,1-2.18-5.75,65.17,65.17,0,0,1-2-12.09,101.87,101.87,0,0,1-.16-12.23l.9-24.43-.56,24.44a101.15,101.15,0,0,0,.22,12.19,65.69,65.69,0,0,0,2,12,29,29,0,0,0,2.17,5.64,10.58,10.58,0,0,0,3.87,4.44,6.77,6.77,0,0,0,5.69.21,18.5,18.5,0,0,0,5.18-3,46.29,46.29,0,0,0,8.24-8.87,87.74,87.74,0,0,0,6.44-10.32l0,.07a72.51,72.51,0,0,0,2.79-21.9,34.67,34.67,0,0,0-.69-5.47,16.39,16.39,0,0,0-1.9-5.11,5.3,5.3,0,0,0-4.23-2.87,9.66,9.66,0,0,0-5.13,1.53,32.53,32.53,0,0,0-8.23,7.3,41.13,41.13,0,0,0-5.88,9.35,15.84,15.84,0,0,0-1.48,5.28,6.26,6.26,0,0,0,.41,2.68,4.45,4.45,0,0,0,1.78,2,10.57,10.57,0,0,0,5.32,1.24A25.56,25.56,0,0,0,1745.56,651Z" transform="translate(119.91 94.82)"/><path class="cls-11" d="M1370.55,212.87c4.22-33.53,15.35-84.15,48.83-125.5,90.44-111.7,263.65-59.72,319.06-43,136.79,41.19,225.44,139.94,268.86,197.42q10.77,9.23,21.55,18.44a1636.14,1636.14,0,0,1-343.74,31.5,1638.66,1638.66,0,0,1-299.12-32Z" transform="translate(119.91 94.82)"/><path class="cls-12" d="M1371.76,211c4.19-32.28,15.2-81,48.33-120.81C1509.58-17.35,1681,32.69,1735.8,48.75c135.36,39.65,223.09,134.72,266.06,190.05l21.31,17.76A1663.83,1663.83,0,0,1,1683,286.88a1664,1664,0,0,1-296-30.84Z" transform="translate(119.91 94.82)"/><path class="cls-11" d="M1931,229.76s125.25-31.31,180.77,64c36.15,74,42.61,98-180.77,84.58C1893.23,259.89,1931,229.76,1931,229.76Z" transform="translate(119.91 94.82)"/><path class="cls-13" d="M1934.25,232.53s121.65-31.83,175.58,65.1c35.12,75.22,41.39,99.62-175.58,86C1897.57,263.16,1934.25,232.53,1934.25,232.53Z" transform="translate(119.91 94.82)"/><path class="cls-11" d="M1397.91,365.67c-3.77,0-113.27-8.39-113.27-8.39s-68-15.37-28.94-53.12a66.59,66.59,0,0,0,24.66-22.89c7.78-12.36,5.7-18.42,10.66-29.8,15.7-36,68.38-48.31,68.38-48.31h0s71.43-15.9,124.59,15.3c5.93,3.48,8.85,5.36,11.1,8.61,24.59,35.31-51.87,138.6-51.87,138.6Z" transform="translate(119.91 94.82)"/><path class="cls-14" d="M1397,368.09c-3.64,0-109.4-8.41-109.4-8.41s-65.65-15.43-28-53.29a65.41,65.41,0,0,0,23.83-23c7.5-12.39,5.5-18.47,10.29-29.89,15.17-36.15,66-48.46,66-48.46h0s69-16,120.35,15.35c5.72,3.49,8.54,5.38,10.72,8.63,23.75,35.43-50.1,139-50.1,139Z" transform="translate(119.91 94.82)"/><path class="cls-11" d="M1342.36,159s10.35-26.37,81.53-13c66,16.38,15.53,58.06-40.76,49.13S1333,168.17,1342.36,159Z" transform="translate(119.91 94.82)"/><path class="cls-15" d="M1342.76,160.72s10-25.63,79-12.61c64,15.91,15,56.42-39.5,47.74S1333.64,169.63,1342.76,160.72Z" transform="translate(119.91 94.82)"/><path class="cls-11" d="M1403.77,270.33s62.32-56.48,127.65-78.63c71.36-33.23,165.83-107.44,280.41-73.1,88.45,32.12,154.78,76.42,194,158.38,19.1,47.62,22.11,105.22-123.62,97.46l-406,.71S1317.34,362.26,1403.77,270.33Z" transform="translate(119.91 94.82)"/><path class="cls-16" d="M1397.82,278.8s63-57.43,129.13-79.94c72.19-33.78,167.76-109.22,283.67-74.32,89.47,32.65,156.58,77.69,196.23,161,19.32,48.41,22.37,107-125.06,99.08l-410.76.72S1310.38,372.26,1397.82,278.8Z" transform="translate(119.91 94.82)"/><path class="cls-9" d="M1870,387.21s1.94,33.52-11.72,46.54c-4.08,4.56-7.31,4.43-12.18,4.56,0,0,13.6-5.13,17-22.2a183.14,183.14,0,0,0,3.56-30H1870Z" transform="translate(119.91 94.82)"/><path class="cls-9" d="M1734.33,385.84c-.54,5.87-.8,26.31-.59,30.28.94,17.43,2,37.27,11.82,42.4a11.94,11.94,0,0,0,7.36,1.07l3.71-.48c-4.57,6.5-8.65,7.05-10,7.12-8.11.43-17.59-11.71-19.91-31.26a137.45,137.45,0,0,1-1.63-28.11c.38-7.81,1.73-21,1.73-21h7.47Z" transform="translate(119.91 94.82)"/><path class="cls-17" d="M857.59,642c.39-1.09-2.71-2.81-5.36-6.93a27.44,27.44,0,0,1-3.55-9.39c-2.33-9.88-11.35-21.83-14.32-26.24-9.46-14-13.92-35-21.31-69.92a561.23,561.23,0,0,1-9.33-59.94c-.53-34.79,3.85-61,12.9-76.15a426.37,426.37,0,0,0,25.8-51.63s53.11,2.62,57.66,0,17.45-15.12,15.18-47.38l.76-7.76-13.66,4.16s-4.2,28.93-21.69,31.18c-20.86,3.13-44.7-10.8-41.2-31.18H824.31s4.66,59.42-18.27,72c-17.1,4.93-27.21-2.88-26.43-37.67l.77-34.79-27.2,0s1.55,37,0,39.23-13.61,25.11-26.43-22c-10.89-33.18-4.67-17.2-4.67-17.2l-14.77.37s6.61,36.56,28.38,59.42c14.38,22,14.77,58.74,3.88,71.74-11.66,13-31.48,20.18-46.64-56.94-10.11-51.11-12.83-74.22-12.83-74.22l-21-.25s8.55,61,7,71.78c-1.94,12.1-2.72,49.32-48.59,33.63-23.81-3.82-71.49-17.53-91.34-58.74-7.38-35-5.83-48.42-5.83-48.42l-17.1-.49s.39,20.22,3.88,25.6a51.34,51.34,0,0,1-30.51-7.3C459,296,451.91,278.11,450,272.79l-13.71-.62a90.77,90.77,0,0,0,13.83,26.37c13.52,17.66,32.33,27.39,46.13,29.74,2.75.47,13.63,2.06,13.59,2.56,0,.13-.76.13-.76.13s3.5,52.91,58.3,77.12c49,21.07,70.35,31.83,82.79,40.35s21,17.49,19.05,46.63a262.56,262.56,0,0,0,3.5,69.72,248.41,248.41,0,0,0,26.82,75.1c42.08,1.52,69.11,1.67,86.44,1.49,34.75-.37,54.54-2.34,64.94.44C851,641.84,857.07,643.47,857.59,642Z" transform="translate(119.91 94.82)"/><path class="cls-8" d="M803,462a111.74,111.74,0,0,0-33,33.63c-37.2,58.71-11.89,135.92-9,144.31l98.21,2a351.54,351.54,0,0,1-18.89-34.4C814.5,553.77,805.73,501.18,803,462Z" transform="translate(119.91 94.82)"/><path class="cls-9" d="M689.77,350.93s18.2,77.75,32.47,77.18C707.48,436.06,679.93,414.49,689.77,350.93Z" transform="translate(119.91 94.82)"/><path class="cls-10" d="M791.61,555.53a25.49,25.49,0,0,1-5.51.68,10.69,10.69,0,0,1-5.41-1.18,4.69,4.69,0,0,1-1.87-2.07,6.38,6.38,0,0,1-.47-2.76,16.24,16.24,0,0,1,1.43-5.4,40.6,40.6,0,0,1,5.87-9.47A33.11,33.11,0,0,1,794,527.9a10.08,10.08,0,0,1,5.38-1.62,4.94,4.94,0,0,1,2.71,1,7.42,7.42,0,0,1,1.91,2.12,17,17,0,0,1,2,5.26,35.85,35.85,0,0,1,.72,5.56,73,73,0,0,1-2.7,22.1v0l0,0a81.52,81.52,0,0,1-6.5,10.4,47.46,47.46,0,0,1-8.4,8.94,18.94,18.94,0,0,1-5.36,3.08,7.31,7.31,0,0,1-6.13-.27,11,11,0,0,1-4-4.66,28.58,28.58,0,0,1-2.18-5.75,65.3,65.3,0,0,1-2-12.09,102,102,0,0,1-.16-12.24l.9-24.43-.56,24.44a101.32,101.32,0,0,0,.22,12.2,65.59,65.59,0,0,0,2,12,28.81,28.81,0,0,0,2.17,5.65,10.64,10.64,0,0,0,3.87,4.44,6.81,6.81,0,0,0,5.69.2,18.71,18.71,0,0,0,5.18-3,46.89,46.89,0,0,0,8.24-8.87A88.57,88.57,0,0,0,803.37,562l0,.07a72.51,72.51,0,0,0,2.79-21.9,36,36,0,0,0-.69-5.48,16.49,16.49,0,0,0-1.9-5.11,5.31,5.31,0,0,0-4.23-2.86,9.66,9.66,0,0,0-5.13,1.53,32.68,32.68,0,0,0-8.23,7.29,41.41,41.41,0,0,0-5.88,9.36,16.1,16.1,0,0,0-1.49,5.28,6.38,6.38,0,0,0,.42,2.67,4.47,4.47,0,0,0,1.78,2,10.46,10.46,0,0,0,5.32,1.23A24.94,24.94,0,0,0,791.61,555.53Z" transform="translate(119.91 94.82)"/><path class="cls-11" d="M416.59,117.39C420.82,83.86,432,33.24,465.43-8.11c90.44-111.71,263.65-59.72,319.06-43C921.27-10,1009.93,88.79,1053.35,146.27l21.54,18.44a1637.31,1637.31,0,0,1-343.73,31.5,1637.72,1637.72,0,0,1-299.12-32Z" transform="translate(119.91 94.82)"/><path class="cls-18" d="M417.81,115.52C422,83.24,433,34.51,466.14-5.3,555.63-112.83,727-62.79,781.85-46.73,917.21-7.08,1004.94,88,1047.91,143.32l21.31,17.75A1663.77,1663.77,0,0,1,729.08,191.4a1664,1664,0,0,1-296-30.85Z" transform="translate(119.91 94.82)"/><path class="cls-11" d="M977.05,134.27s125.25-31.31,180.77,64c36.15,74,42.61,98-180.77,84.58C939.28,164.41,977.05,134.27,977.05,134.27Z" transform="translate(119.91 94.82)"/><path class="cls-19" d="M980.3,137s121.65-31.82,175.58,65.1c35.12,75.23,41.39,99.62-175.58,86C943.62,167.68,980.3,137,980.3,137Z" transform="translate(119.91 94.82)"/><path class="cls-11" d="M444,270.19c-3.77,0-113.27-8.39-113.27-8.39s-68-15.38-28.94-53.12a66.76,66.76,0,0,0,24.66-22.89c7.78-12.36,5.7-18.42,10.66-29.8,15.7-36,68.38-48.31,68.38-48.32h0S476.88,91.77,530,123c5.93,3.48,8.85,5.36,11.1,8.6,24.59,35.32-51.87,138.61-51.87,138.61Z" transform="translate(119.91 94.82)"/><path class="cls-20" d="M443,272.61c-3.64,0-109.4-8.42-109.4-8.42s-65.65-15.42-28-53.28a65.4,65.4,0,0,0,23.82-23c7.51-12.4,5.5-18.48,10.3-29.89,15.16-36.15,66-48.46,66-48.46h0s69-16,120.35,15.35c5.72,3.49,8.54,5.37,10.72,8.63,23.75,35.42-50.1,139-50.1,139Z" transform="translate(119.91 94.82)"/><path class="cls-11" d="M388.41,63.52s10.35-26.37,81.53-13c66,16.37,15.53,58.06-40.77,49.12S379,72.69,388.41,63.52Z" transform="translate(119.91 94.82)"/><path class="cls-21" d="M388.81,65.23s10-25.62,79-12.6c64,15.91,15.05,56.42-39.5,47.74S379.69,74.14,388.81,65.23Z" transform="translate(119.91 94.82)"/><path class="cls-11" d="M449.82,174.85s62.31-56.49,127.64-78.64C648.82,63,743.3-11.22,857.88,23.11c88.45,32.12,154.78,76.42,194,158.38C1071,229.12,1074,286.71,928.23,279l-406,.71S363.38,266.78,449.82,174.85Z" transform="translate(119.91 94.82)"/><path class="cls-22" d="M443.87,183.31s63-57.42,129.13-79.94C645.19,69.59,740.76-5.85,856.67,29.06c89.47,32.65,156.58,77.69,196.23,161,19.32,48.42,22.37,107-125.06,99.09l-410.76.71S356.43,276.77,443.87,183.31Z" transform="translate(119.91 94.82)"/><path class="cls-9" d="M916,291.72s1.94,33.52-11.73,46.55c-4.07,4.55-7.3,4.43-12.17,4.55,0,0,13.6-5.12,17-22.2a183.53,183.53,0,0,0,3.55-29.95H916Z" transform="translate(119.91 94.82)"/><path class="cls-9" d="M780.38,290.35c-.54,5.88-.8,26.31-.59,30.29.94,17.42,2,37.27,11.82,42.39A11.79,11.79,0,0,0,799,364.1l3.71-.48c-4.57,6.5-8.65,7.05-10,7.12-8.11.44-17.59-11.7-19.91-31.26a136.73,136.73,0,0,1-1.63-28.11c.38-7.8,1.73-21,1.73-21h7.47Z" transform="translate(119.91 94.82)"/><path class="cls-23" d="M1327.6,732.28c.49-1.25-3.38-3.23-6.7-8a29.84,29.84,0,0,1-4.44-10.79c-2.91-11.35-14.19-25.08-17.91-30.15-11.82-16.11-17.39-40.26-26.64-80.34a595.33,595.33,0,0,1-11.66-68.87c-.67-40,4.82-70.11,16.12-87.49a472.34,472.34,0,0,0,32.26-59.33s66.41,3,72.1,0,21.82-17.36,19-54.44l1-8.92-17.07,4.79s-5.25,33.24-27.12,35.82c-26.09,3.61-55.89-12.4-51.52-35.82h-19s5.83,68.27-22.84,82.7c-21.39,5.67-34-3.3-33.05-43.27l1-40-34,.06s2,42.49,0,45.07-17,28.85-33-25.25c-13.6-38.12-5.83-19.76-5.83-19.76l-18.47.43s8.27,42,35.48,68.27c18,25.25,18.47,67.49,4.86,82.43-14.58,14.94-39.36,23.18-58.32-65.43-12.63-58.72-16-85.27-16-85.27l-26.24-.29s10.69,70.11,8.75,82.47c-2.43,13.91-3.4,56.67-60.75,38.64-29.77-4.39-89.39-20.14-114.21-67.49-9.23-40.18-7.29-55.63-7.29-55.63l-21.38-.56s.48,23.22,4.86,29.41a68.82,68.82,0,0,1-38.15-8.39c-22-12.17-30.9-32.78-33.29-38.89l-17.15-.71a102.06,102.06,0,0,0,17.31,30.3c16.9,20.28,40.42,31.47,57.67,34.17,3.44.54,17,2.37,17,2.94,0,.15-.95.15-.95.15s4.37,60.79,72.9,88.61c61.23,24.21,88,36.58,103.51,46.36s26.25,20.1,23.82,53.58a277.4,277.4,0,0,0,4.37,80.11A271.62,271.62,0,0,0,1130,729.85c52.62,1.74,86.41,1.91,108.08,1.7,43.46-.42,68.2-2.68,81.2.52C1319.33,732.08,1327,734,1327.6,732.28Z" transform="translate(119.91 94.82)"/><path class="cls-24" d="M1259.33,525.46a134.69,134.69,0,0,0-41.26,38.65c-46.51,67.45-14.86,156.16-11.27,165.8l122.8,2.35A397.41,397.41,0,0,1,1306,692.73C1273.72,630.89,1262.76,570.47,1259.33,525.46Z" transform="translate(119.91 94.82)"/><path class="cls-25" d="M1117.77,397.83s22.76,89.34,40.6,88.68C1139.92,495.64,1105.47,470.86,1117.77,397.83Z" transform="translate(119.91 94.82)"/><path class="cls-10" d="M1245.11,632.91a34.27,34.27,0,0,1-6.55.78,15.43,15.43,0,0,1-6.48-1.05,6,6,0,0,1-2.58-2.06,5.58,5.58,0,0,1-.94-3.17,15.21,15.21,0,0,1,1.59-6.41,47.06,47.06,0,0,1,7.29-11,41.73,41.73,0,0,1,10.1-8.52,15.13,15.13,0,0,1,6.29-2.13,7.2,7.2,0,0,1,3.33.54,7.35,7.35,0,0,1,2.67,2.08,16,16,0,0,1,2.9,6,34.63,34.63,0,0,1,1.09,6.54c.62,8.85-.93,17.69-3.34,26.15v0l0,0a92.13,92.13,0,0,1-8.08,11.89,57,57,0,0,1-10.24,10.11,25.5,25.5,0,0,1-6.31,3.52,10.73,10.73,0,0,1-7.2.36,11.25,11.25,0,0,1-5.43-4.73,28,28,0,0,1-3-6.55,65.39,65.39,0,0,1-2.75-14.1,102.65,102.65,0,0,1-.31-14.35l1.1-28.67-.76,28.68a101.89,101.89,0,0,0,.37,14.3,64.49,64.49,0,0,0,2.79,14,27.29,27.29,0,0,0,3,6.43,10.77,10.77,0,0,0,5.19,4.51,10.21,10.21,0,0,0,6.84-.39,25,25,0,0,0,6.16-3.47,56.68,56.68,0,0,0,10.08-10,97.73,97.73,0,0,0,8-11.82l0,.08c2.43-8.4,4-17.18,3.42-25.93a33.64,33.64,0,0,0-1-6.45,15.46,15.46,0,0,0-2.77-5.81,7,7,0,0,0-2.48-1.95,6.75,6.75,0,0,0-3.11-.52,14.6,14.6,0,0,0-6.11,2.06,41.47,41.47,0,0,0-10,8.38,47.62,47.62,0,0,0-7.29,10.88,14.92,14.92,0,0,0-1.65,6.27,5.43,5.43,0,0,0,.87,3.07,6,6,0,0,0,2.48,2,15.4,15.4,0,0,0,6.42,1.11A33.58,33.58,0,0,0,1245.11,632.91Z" transform="translate(119.91 94.82)"/><path class="cls-11" d="M776.21,129.5C781.5,91,795.42,32.81,837.28-14.7,950.36-143,1166.92-83.33,1236.2-64.16c171,47.33,281.87,160.79,336.17,226.84l26.93,21.19a2221.76,2221.76,0,0,1-429.78,36.19,2222.47,2222.47,0,0,1-374-36.81Z" transform="translate(119.91 94.82)"/><path class="cls-26" d="M777.74,127.35c5.23-37.09,19-93.08,60.42-138.82C950.06-135,1164.35-77.53,1232.9-59.08c169.24,45.56,278.93,154.79,332.66,218.37l26.65,20.4a2258.29,2258.29,0,0,1-425.28,34.84,2258,2258,0,0,1-370.08-35.44Z" transform="translate(119.91 94.82)"/><path class="cls-11" d="M1477,148.89s156.6-36,226,73.59c45.21,85,53.28,112.6-226,97.18C1429.74,183.52,1477,148.89,1477,148.89Z" transform="translate(119.91 94.82)"/><path class="cls-27" d="M1481,152.08s152.1-36.57,219.53,74.8c43.91,86.43,51.75,114.46-219.53,98.79C1435.16,187.28,1481,152.08,1481,152.08Z" transform="translate(119.91 94.82)"/><path class="cls-11" d="M810.43,305.06c-4.72,0-141.62-9.64-141.62-9.64s-85-17.67-36.19-61c9-4.56,21.4-12.5,30.84-26.29,9.72-14.2,7.12-21.17,13.32-34.25,19.64-41.4,85.5-55.5,85.5-55.51h0s89.31-18.27,155.78,17.59c7.41,4,11.06,6.16,13.88,9.88,30.74,40.58-64.86,159.26-64.86,159.26Z" transform="translate(119.91 94.82)"/><path class="cls-28" d="M809.28,307.84c-4.56,0-136.79-9.67-136.79-9.67s-82.08-17.72-35-61.22a79.3,79.3,0,0,0,29.79-26.38c9.39-14.25,6.88-21.23,12.87-34.35,19-41.53,82.58-55.68,82.58-55.68h0S849,102.21,913.24,138.18c7.16,4,10.68,6.18,13.41,9.91C956.34,188.8,864,307.84,864,307.84Z" transform="translate(119.91 94.82)"/><path class="cls-11" d="M741,67.6s12.95-30.3,101.94-14.91c82.52,18.82,19.42,66.72-51,56.45S729.21,78.13,741,67.6Z" transform="translate(119.91 94.82)"/><path class="cls-29" d="M741.48,69.57S754,40.12,840.27,55.08c80,18.29,18.81,64.83-49.4,54.86S730.07,79.81,741.48,69.57Z" transform="translate(119.91 94.82)"/><path class="cls-11" d="M817.76,195.52s77.91-64.91,159.59-90.36C1066.58,67,1184.7-18.28,1328,21.17c110.59,36.91,193.53,87.81,242.54,182,23.88,54.72,27.65,120.9-154.57,112L908.24,316S709.68,301.14,817.76,195.52Z" transform="translate(119.91 94.82)"/><path class="cls-30" d="M810.32,205.24s78.82-66,161.45-91.85C1062,74.58,1181.52-12.1,1326.45,28c111.87,37.52,195.77,89.27,245.35,185,24.15,55.63,28,122.9-156.36,113.84l-513.59.83S701,312.62,810.32,205.24Z" transform="translate(119.91 94.82)"/><path class="cls-9" d="M1400.65,329.8s2.43,38.52-14.65,53.48c-5.1,5.24-9.14,5.1-15.23,5.24A35.48,35.48,0,0,0,1392,363a194.2,194.2,0,0,0,4.44-34.42h4.2Z" transform="translate(119.91 94.82)"/><path class="cls-9" d="M1231.07,328.23c-.68,6.75-1,30.23-.74,34.8,1.17,20,2.51,42.82,14.77,48.71a16,16,0,0,0,9.2,1.23l4.64-.55c-5.7,7.46-10.81,8.1-12.45,8.18-10.14.5-22-13.45-24.89-35.92a145.4,145.4,0,0,1-2-32.3c.47-9,2.16-24.15,2.16-24.15h9.35Z" transform="translate(119.91 94.82)"/><path class="cls-31" d="M735,655.07l-19.64-11.78c-40.31-28.28-34.63-.59-34.63-.59-24.28,4.12-42.89-.59-50.12-11.78-6.72-63-114.73-51.84-114.73-51.84-15-35.93-68.21-23.56-117.82-9.42-6.72-67.74-130.23-41.23-130.23-41.23,12.92-144.31-37.21-150.2-68.21-146.08-30.49,15.32-37.73,6.32-37.73,6.32C56.45,334.9-.4,417.11-26.23,476.6c-139-40.65-82.17,177.88-82.17,177.88Z" transform="translate(119.91 94.82)"/><path class="cls-32" d="M-25.38,294.67s46.75-52.42,100.59,0C89.38,188.42,187.13,240.84,205.55,306c63.75-62.34,134.59,11.33,114.76,56.67,69.42-32.59,136,47.13,111.92,87.32,75.09-43.4,79.34,67.1,79.34,67.1C598,493,636.24,562.93,615,592.19c0,0,106.26-7.08,174.26,55.26l2.84,4.25H7.2Z" transform="translate(119.91 94.82)"/><path class="cls-33" d="M562.64,667s14.25-72.81,109.22-52.24c-6.33-57,80.73-61.67,109.23-39.54C774.75,513.49,855.48,538,871.31,563c28.49-41.56,104.47,13.84,72.82,48.67,68.06-36.41,96.55,30.07,96.55,30.07,55.41-31.65,104.48,25.33,104.48,25.33Z" transform="translate(119.91 94.82)"/><path class="cls-34" d="M1399.55,654.71s-60.16-66.09,39.57-77.36c-55.4-57.18,47.49-90.43,80.73-63.52-1.58-58.56,118.72-50.65,145.63-1.58,30.07-91.81,123.47-49.07,126.63-12.66,38-52.24,101.13,19.79,82.31,42.74,69.65-47.49,52.49,38.81,47.71,40.31,59.93-26.07,102.67,20.57,96.34,37.61,44.27-6.5,145.63,34.46,145.63,34.46Z" transform="translate(119.91 94.82)"/><path class="cls-35" d="M2385.71,654.71s-52.24-76,83.89-87.06c-17.41-42.73,28.49-58.56,142.47,17.42-3.17-61.74,51.06-66.49,80.93-41.16,3,60.15,0,110.8,0,110.8Z" transform="translate(119.91 94.82)"/><path class="cls-36" d="M-18.14,378.75s64.77-63.45,100.46,0c50.23-35.69,142.76-2.64,130.86,128.22,37-21.15,93.86-19.89,84.6,17.15,39.66-23.76,75.35,25.15,59.49,47.62,71.38-19.83,119,14.54,93.85,47.59C504,606.11,537,634.58,513.25,654.71c-56.84,2.95-513.25,0-513.25,0Z" transform="translate(119.91 94.82)"/><path class="cls-37" d="M1027.54,653.39c-3.47,0-70.39,4.35-60.83-7.82s63.44-7.82,67.79-4.34-61.71-17.39-64.32-34.77,51.28,12.06,69.53,23.85c-54.75-53.4-56.49-65.56,10.43-16-41.72-60.83-50.41-75.61,21.73-5.21-46.93-93-2.61-3.39-21.73-46.89s6.95-53,30.42,32.12c0,0-.87,18.25,9.56-11.3s54.75-46.93,17.38,28.68c20.86-14.78,19.12-13.91,35.63-25.21s36.5,20.86-23.46,62.58C1072.74,649.05,1027.54,653.39,1027.54,653.39Z" transform="translate(119.91 94.82)"/><path class="cls-38" d="M1125.7,654.71s12.66-71.23,104.47-23.74c-6.33-39.57,34.83-46.89,63.32-16.32-7.91-56.49,58.57-36.69,71.23-18.89,0-50.27,60.15-42,74.4-18.41,49.07-12.86,76,29.38,76,29.38,26.91-26.41,71.22-1.17,69.64,28.15,42.75.84,88.65,19.83,88.65,19.83Z" transform="translate(119.91 94.82)"/><rect class="cls-39" x="55.26" y="741.44" width="2801.58" height="295.87"/><rect class="cls-40" x="115.97" y="734.15" width="3009.72" height="114.82"/><path class="cls-41" d="M933.44,832.26s-22-21.5-16.29-45.44,24,45.44,24,45.44-8.62-83.75,29.72-93.32-23,93.32-23,93.32,27.8-47.56,45.06-47-32.59,51.34-32.59,51.34H1062.6s-63-32.56-40-35.44,49.84,35.44,49.84,35.44-27.8-51.39-14.37-49.16S1083,836.62,1083,836.62l65.19,4.78,293.33,3.84c-42-14.26-51.62-19.74-51.08-21.87s12.82-1,18-.22c22,3.27,37.2,15.24,44.58,22.09l-16.69-23.37c-11.15-15.3-23.19-33.56-19.37-37.38.94-.94,3.23-1.41,11.13,2.33,36.43,17.24,52.73,49.8,52.73,49.8.28-4.72,1.88-21.72,15.57-33.61,7.43-6.45,19.31-12.17,22.14-9.16,5.34,5.7-22.38,41.81-22.38,41.81l111.2-15.32,130.38-19.16L1964,784l18.73,1.82c-5.09-4.67-59.25-55-47.32-75,1.79-3,5.58-6.19,14.18-7.58A93.31,93.31,0,0,1,1966,715.51c25.06,23.56,30.19,54.89,31.52,68.44l8.63,1.91a241.09,241.09,0,0,1-8.18-24.62c-5.85-21.36-10.59-39.44-2.14-46.92,1-.84,3.91-3.46,7.12-2.84,15.28,2.94,14.79,75.39,15.66,75.34.54,0-2.56-27,10-49.75,1.55-2.82,5.52-9.91,8.54-9.24,3.74.82,4,13,4,18q-4,19-8.09,38.11l661.34,19.15v94.77L-11.87,913.36-1.41,807.84,900.2,832.26" transform="translate(119.91 94.82)"/><path class="cls-42" d="M0,886.58H769.78S779.52,834,802.91,832s-17.54,54.57-17.54,54.57,50.67-46.77,78-42.87-42.87,42.87-42.87,42.87,576.84,9.74,672.33,0,358.57-37,358.57-37,7.8-35.08,31.18-39S1865,850.74,1865,850.74s54.57-38.21,66.26-26.52-44.82,26.4-44.82,26.4H2020.9s-46.78-46.38-21.44-40.29,39,40,39,40-11.69-41.72,13.65-49.52,0,52.62,0,52.62,11.69-35.08,23.38-27.28,0,25.33,0,25.33l144.21,2s-61-31.18-31.48-37,43.19,39,43.19,39-29.21-42.87,0-46.77S2247,845.52,2247,845.52h74.21l81.7-.07s-35.08-40.72-130.57-66.05c0,0,30.69-77.64,151.76,29.23-50.43-66.26-69.61-101.34-102.89-107.18,0,0,56.36-42.56,116.77,85.74,0,0-52.17-72.1,18.74-120.82,0,0-22.2,68.64,0,112.27,0,0-12.89-75.25,45.57-96.68-21.43,83.79-33.13,99.38-15.59,120.82,0,0-21.43-76,91.6-101.33l3.89,1.94s-72.1,21.44-74,93.55c0,0,26-68.21,122.16-46.78,0,0-112.42,21.75-112.42,93.55l175.17-7.8V900L0,915.5Z" transform="translate(119.91 94.82)"/><path class="cls-43" d="M47.83,886.58S-92.44,625.23-43,618.63s135.49-9.78,138.67,191c84.48-282.12,49.41-186.49,79.7-253.43S283.72,427.14,161,761.86l-30.28,81.29S212,722.29,267.79,666.37s74.91,1.45,0,85.93c-49.42,59-92.45,125.92-92.45,125.92s100.41-86.07,156.2-121.14,82.88-3.19,0,59-97.23,70.53-97.23,70.53h22.32s113.17-61,161-86.46,74.92,39.84,0,79.69l-66.94,27.1H0s-96.7-92.45-53.57-87.67S-28.68,791.34,47.83,886.58Z" transform="translate(119.91 94.82)"/><path class="cls-44" d="M88.16,900S199.38,531.92,207.32,529.61,108.59,874.35,88.16,900Z" transform="translate(119.91 94.82)"/><path class="cls-44" d="M122.21,900S272,681.65,284.5,676C284.5,676,150.58,877.75,122.21,900Z" transform="translate(119.91 94.82)"/><path class="cls-44" d="M175.55,900s149.8-127.56,172.5-133.23C348.05,766.77,213,885.3,175.55,900Z" transform="translate(119.91 94.82)"/><path class="cls-44" d="M289,900s129.38-75.35,143-76.49S315.14,898.18,289,900Z" transform="translate(119.91 94.82)"/><path class="cls-44" d="M81.35,900C82.13,907.56,3.77,703.21,0,693S72.27,811.93,81.35,900Z" transform="translate(119.91 94.82)"/><path class="cls-45" d="M25.74,900-4.9,861.75S13.26,858.46,25.74,900Z" transform="translate(119.91 94.82)"/><path class="cls-46" d="M2523.34-7.47a59.63,59.63,0,0,0,9,31.08c18.49,28.93,56.31,28.45,59,28.37-.54,44.4.19,164.66,101.58,220.16l1.49-129.5a72.67,72.67,0,0,1-27.33-22.55c-5.2-7.19-11.19-18.48-13.76-45a233,233,0,0,1,5.94-78c-36.68-10.69-50.36-6.75-55.47,0-6.88,9.09,2,23.11-5.59,29.14s-26.09.25-35.63-11.18c-7.83-9.37-5.41-17.64-12.94-22.82S2531.08-10.37,2523.34-7.47Z" transform="translate(119.91 94.82)"/><path class="cls-47" d="M2516.13-18.46S2493.76,262.9,2693,342.18L2785.33,368v42.4S2468.2,427,2456.67-18.46Z" transform="translate(119.91 94.82)"/><path class="cls-47" d="M2400-18.46s2.73,467.57,294.51,495.23l.48,46.09S2407.36,548.67,2350.2-3c36.88-117.62,0-15.5,0-15.5Z" transform="translate(119.91 94.82)"/><path class="cls-47" d="M2291.21-18.46s18.92,638,0,716.46c-11.72-49.69-60.84-666-38.72-716.46Z" transform="translate(119.91 94.82)"/><path class="cls-47" d="M2081-18.46s129.06,521,612,360.64v30.67S2219.3,561.57,2038.63-3Z" transform="translate(119.91 94.82)"/><polygon class="cls-47" points="2873.87 76.36 2889.59 1034.34 2853.59 1017.75 2824.09 76.36 2873.87 76.36"/><path class="cls-47" d="M193-59.71S215.4,221.65,16.16,300.93l-92.33,25.81v42.41S241,385.74,252.49-59.71Z" transform="translate(119.91 94.82)"/><path class="cls-47" d="M298.15-12.13S295.43,455.45,3.65,483.1l-.48,46.09S290.78,555,347.93,3.37c-36.87-117.61,0-15.5,0-15.5Z" transform="translate(119.91 94.82)"/><path class="cls-47" d="M455.46-29.16S419,506.38-84.42,432.46l5.33,30.2s499.31,103.42,579-483.94Z" transform="translate(119.91 94.82)"/><polygon class="cls-47" points="120.03 70.86 104.32 1028.84 140.31 1012.25 169.81 70.86 120.03 70.86"/></g></svg>