<svg id="Layer_1" data-name="Layer 1" xmlns="http://www.w3.org/2000/svg" xmlns:xlink="http://www.w3.org/1999/xlink" viewBox="0 0 2972.85 1012.76"><defs><style>.cls-1{fill:none;}.cls-2{clip-path:url(#clip-path);}.cls-3{fill:url(#linear-gradient);}.cls-4{fill:url(#linear-gradient-2);}.cls-5{fill:#83d050;}.cls-6{fill:url(#linear-gradient-3);}.cls-7{fill:url(#linear-gradient-4);}.cls-8{fill:url(#linear-gradient-5);}.cls-9{fill:#78969f;}.cls-10{fill:#89e9f4;}.cls-11{fill:url(#linear-gradient-6);}.cls-12{fill:url(#linear-gradient-7);}.cls-13{fill:url(#linear-gradient-8);}.cls-14{fill:url(#linear-gradient-9);}.cls-15{fill:#c98175;}.cls-16{fill:url(#linear-gradient-10);}.cls-17{fill:url(#linear-gradient-11);}.cls-18{fill:url(#linear-gradient-12);}.cls-19{fill:#7edf93;}.cls-20{fill:url(#linear-gradient-13);}.cls-21{fill:url(#linear-gradient-14);}.cls-22{fill:#c48a71;}.cls-23{fill:#c38a73;}.cls-24{fill:#603913;}.cls-25{fill:#75ea99;}.cls-26,.cls-29,.cls-30{stroke-miterlimit:10;}.cls-26{stroke-width:2.32px;fill:url(#linear-gradient-15);stroke:url(#linear-gradient-16);}.cls-27{fill:url(#linear-gradient-17);}.cls-28{fill:url(#linear-gradient-18);}.cls-29,.cls-30{stroke-width:1.16px;}.cls-29{fill:url(#linear-gradient-19);stroke:url(#linear-gradient-20);}.cls-30{fill:url(#linear-gradient-21);stroke:url(#linear-gradient-22);}.cls-31{fill:url(#linear-gradient-23);}.cls-32{fill:url(#linear-gradient-24);}.cls-33{fill:#b98e7c;}.cls-34{fill:#c49483;}.cls-35{fill:#754d32;}.cls-36{fill:#a8e533;}.cls-37{fill:url(#linear-gradient-25);}.cls-38{fill:url(#linear-gradient-26);}.cls-39{fill:url(#linear-gradient-27);}.cls-40{fill:url(#linear-gradient-28);}.cls-41{fill:url(#linear-gradient-29);}.cls-42{fill:url(#linear-gradient-30);}.cls-43{fill:#4b7d8d;}.cls-44{fill:#6cb7c9;}.cls-45{fill:#76c2ec;}.cls-46{fill:#5d6e93;}.cls-47{fill:url(#linear-gradient-31);}.cls-48{fill:url(#linear-gradient-32);}.cls-49{fill:url(#linear-gradient-33);}.cls-50{fill:url(#linear-gradient-34);}.cls-51{fill:url(#linear-gradient-35);}.cls-52{fill:url(#linear-gradient-36);}.cls-53{fill:#71cde7;}.cls-54{fill:url(#linear-gradient-37);}.cls-55{fill:url(#linear-gradient-38);}.cls-56{fill:url(#linear-gradient-39);}.cls-57{fill:#7ac6ee;}.cls-58{fill:url(#linear-gradient-40);}.cls-59{fill:url(#linear-gradient-41);}.cls-60{fill:url(#linear-gradient-42);}.cls-61{fill:url(#linear-gradient-43);}.cls-62{fill:#a0f068;}.cls-63{fill:url(#linear-gradient-44);}.cls-64{fill:url(#linear-gradient-45);}.cls-65{fill:#00c13e;}.cls-66{fill:#4c9a22;}.cls-67{fill:#01491d;}.cls-68{fill:#032616;}.cls-69{fill:#011c24;}.cls-70{fill:#042f33;}</style><clipPath id="clip-path" transform="translate(103.85 59)"><rect class="cls-1" width="2693" height="900"/></clipPath><linearGradient id="linear-gradient" x1="1223.9" y1="1517.03" x2="1553.84" y2="-114.05" gradientUnits="userSpaceOnUse"><stop offset="0.25" stop-color="#c5f7fd"/><stop offset="0.33" stop-color="#bbf5fb"/><stop offset="0.66" stop-color="#96eef5"/><stop offset="0.83" stop-color="#88ebf3"/></linearGradient><linearGradient id="linear-gradient-2" x1="245.01" y1="696.78" x2="2667.74" y2="500.51" gradientUnits="userSpaceOnUse"><stop offset="0" stop-color="#54b7fc"/><stop offset="1" stop-color="#9de5e9"/></linearGradient><linearGradient id="linear-gradient-3" x1="909.59" y1="357.83" x2="1007.91" y2="259.44" gradientUnits="userSpaceOnUse"><stop offset="0.15" stop-color="#82cdd9"/><stop offset="0.82" stop-color="#d7eef4"/></linearGradient><linearGradient id="linear-gradient-4" x1="792.93" y1="41.21" x2="952.66" y2="-118.64" gradientTransform="matrix(0.8, -0.07, 0.09, 1, 186.78, 399.64)" gradientUnits="userSpaceOnUse"><stop offset="0.4" stop-color="#adcff1"/><stop offset="0.51" stop-color="#b9d9f5"/><stop offset="0.8" stop-color="#d2f0fc"/><stop offset="0.98" stop-color="#dbf8ff"/></linearGradient><linearGradient id="linear-gradient-5" x1="1390.61" y1="481.21" x2="1593.35" y2="278.34" gradientUnits="userSpaceOnUse"><stop offset="0.15" stop-color="#82cdd9"/><stop offset="0.9" stop-color="#d7eef4"/></linearGradient><linearGradient id="linear-gradient-6" x1="1406.9" y1="602.9" x2="1446.76" y2="508.67" gradientUnits="userSpaceOnUse"><stop offset="0.18" stop-color="#3cbbe2"/><stop offset="0.32" stop-color="#55cee6"/><stop offset="0.48" stop-color="#67dde9"/><stop offset="0.64" stop-color="#72e5ea"/><stop offset="0.81" stop-color="#76e8eb"/></linearGradient><linearGradient id="linear-gradient-7" x1="1037.62" y1="613.47" x2="1071.43" y2="533.56" xlink:href="#linear-gradient-6"/><linearGradient id="linear-gradient-8" x1="613.06" y1="646.78" x2="606" y2="285.05" gradientUnits="userSpaceOnUse"><stop offset="0.01" stop-color="#9c5e58"/><stop offset="0.05" stop-color="#a1625c"/><stop offset="0.21" stop-color="#b26e6a"/><stop offset="0.39" stop-color="#bc7671"/><stop offset="0.61" stop-color="#bf7874"/></linearGradient><linearGradient id="linear-gradient-9" x1="565.23" y1="499.44" x2="636.02" y2="304.81" gradientUnits="userSpaceOnUse"><stop offset="0.15" stop-color="#3cbbe1"/><stop offset="0.79" stop-color="#36b7dc"/></linearGradient><linearGradient id="linear-gradient-10" x1="822.35" y1="574.11" x2="860.87" y2="468.22" xlink:href="#linear-gradient-9"/><linearGradient id="linear-gradient-11" x1="2670.22" y1="660.78" x2="2666.02" y2="445.68" xlink:href="#linear-gradient-8"/><linearGradient id="linear-gradient-12" x1="2641.78" y1="573.16" x2="2683.87" y2="457.43" gradientUnits="userSpaceOnUse"><stop offset="0.08" stop-color="#3cbbe1"/><stop offset="0.54" stop-color="#61d3c9"/><stop offset="0.79" stop-color="#70ddc0"/></linearGradient><linearGradient id="linear-gradient-13" x1="709.61" y1="752.5" x2="1195.14" y2="602.26" gradientUnits="userSpaceOnUse"><stop offset="0.2" stop-color="#55cc93"/><stop offset="0.8" stop-color="#49d086"/></linearGradient><linearGradient id="linear-gradient-14" x1="2172.37" y1="687.79" x2="2159.93" y2="50.63" gradientUnits="userSpaceOnUse"><stop offset="0.13" stop-color="#915e54"/><stop offset="0.16" stop-color="#8e6055"/><stop offset="0.49" stop-color="#747360"/><stop offset="0.69" stop-color="#6a7a64"/></linearGradient><linearGradient id="linear-gradient-15" x1="2639.56" y1="75.95" x2="2404.46" y2="398.81" gradientUnits="userSpaceOnUse"><stop offset="0.29" stop-color="#40bc72"/><stop offset="0.56" stop-color="#57b67a"/></linearGradient><linearGradient id="linear-gradient-16" x1="2408.97" y1="256.94" x2="2606.2" y2="256.94" gradientUnits="userSpaceOnUse"><stop offset="0" stop-color="#56af72"/><stop offset="0.19" stop-color="#56b377"/><stop offset="0.34" stop-color="#56b97b"/><stop offset="0.46" stop-color="#57c281"/><stop offset="0.55" stop-color="#57bc7b"/><stop offset="0.62" stop-color="#56b272"/><stop offset="0.86" stop-color="#56b377"/><stop offset="0.93" stop-color="#57b579"/><stop offset="0.95" stop-color="#5abc7f"/><stop offset="0.97" stop-color="#61c78a"/><stop offset="0.98" stop-color="#69d89a"/><stop offset="1" stop-color="#74eeae"/><stop offset="1" stop-color="#78f5b5"/><stop offset="1" stop-color="#49c183"/><stop offset="1" stop-color="#4ebd80"/><stop offset="1" stop-color="#55b77b"/><stop offset="1" stop-color="#57b67a"/></linearGradient><linearGradient id="linear-gradient-17" x1="2512.81" y1="-74.43" x2="1656.81" y2="631.45" gradientUnits="userSpaceOnUse"><stop offset="0.24" stop-color="#5ccfa3"/><stop offset="0.25" stop-color="#5acea0"/><stop offset="0.35" stop-color="#4dc48c"/><stop offset="0.45" stop-color="#45be80"/><stop offset="0.54" stop-color="#42bc7c"/><stop offset="0.59" stop-color="#44bf7d"/><stop offset="0.62" stop-color="#4bca80"/><stop offset="0.66" stop-color="#56dc85"/><stop offset="0.66" stop-color="#58e086"/></linearGradient><linearGradient id="linear-gradient-18" x1="1854.72" y1="320.31" x2="2021.19" y2="162.65" gradientUnits="userSpaceOnUse"><stop offset="0.13" stop-color="#38a17a"/><stop offset="0.65" stop-color="#56cf8b"/><stop offset="0.96" stop-color="#65e593"/></linearGradient><linearGradient id="linear-gradient-19" x1="1850.27" y1="324.6" x2="2018.33" y2="165.43" gradientUnits="userSpaceOnUse"><stop offset="0.27" stop-color="#2da870"/><stop offset="0.51" stop-color="#30ab76"/><stop offset="0.84" stop-color="#39b488"/><stop offset="0.88" stop-color="#3bb68b"/></linearGradient><linearGradient id="linear-gradient-20" x1="1810.68" y1="235.87" x2="2041.16" y2="235.87" gradientUnits="userSpaceOnUse"><stop offset="0.27" stop-color="#53c575"/><stop offset="0.53" stop-color="#56cb7a"/><stop offset="0.88" stop-color="#5fdd87"/></linearGradient><linearGradient id="linear-gradient-21" x1="1948.17" y1="194.55" x2="1945.14" y2="39.41" gradientUnits="userSpaceOnUse"><stop offset="0.27" stop-color="#64c191"/><stop offset="0.45" stop-color="#5ebf90"/><stop offset="0.7" stop-color="#4cbb8d"/><stop offset="0.88" stop-color="#3bb68b"/></linearGradient><linearGradient id="linear-gradient-22" x1="1892.97" y1="130.76" x2="2000.89" y2="130.76" gradientUnits="userSpaceOnUse"><stop offset="0.27" stop-color="#34af7e"/><stop offset="0.72" stop-color="#31ac78"/><stop offset="0.88" stop-color="#2faa74"/></linearGradient><linearGradient id="linear-gradient-23" x1="2167.49" y1="424.54" x2="2326.1" y2="12.42" xlink:href="#linear-gradient-18"/><linearGradient id="linear-gradient-24" x1="287.06" y1="587.16" x2="274.46" y2="-58.6" gradientUnits="userSpaceOnUse"><stop offset="0.21" stop-color="#885b51"/><stop offset="0.28" stop-color="#7d4f48"/><stop offset="0.38" stop-color="#754641"/><stop offset="0.53" stop-color="#72433f"/></linearGradient><linearGradient id="linear-gradient-25" x1="182.59" y1="545.56" x2="428.59" y2="-59.81" gradientUnits="userSpaceOnUse"><stop offset="0.48" stop-color="#2b8977"/><stop offset="0.86" stop-color="#9bce87"/><stop offset="1" stop-color="#c7e98e"/></linearGradient><linearGradient id="linear-gradient-26" x1="817.47" y1="26.14" x2="567.57" y2="369.31" gradientUnits="userSpaceOnUse"><stop offset="0.37" stop-color="#caee9d"/><stop offset="0.83" stop-color="#25af6a"/></linearGradient><linearGradient id="linear-gradient-27" x1="-60.55" y1="291.43" x2="119.89" y2="120.54" gradientUnits="userSpaceOnUse"><stop offset="0" stop-color="#12664f"/><stop offset="0.61" stop-color="#55a965"/><stop offset="1" stop-color="#7acf71"/></linearGradient><linearGradient id="linear-gradient-28" x1="45.69" y1="187.11" x2="40.66" y2="-70.5" gradientUnits="userSpaceOnUse"><stop offset="0" stop-color="#70e57e"/><stop offset="0.03" stop-color="#69e07c"/><stop offset="0.18" stop-color="#4ccb74"/><stop offset="0.32" stop-color="#36bb6f"/><stop offset="0.46" stop-color="#29b26b"/><stop offset="0.6" stop-color="#25af6a"/></linearGradient><linearGradient id="linear-gradient-29" x1="287.67" y1="464.36" x2="463.07" y2="-219.24" gradientUnits="userSpaceOnUse"><stop offset="0.16" stop-color="#0f5c49"/><stop offset="0.27" stop-color="#197854"/><stop offset="0.45" stop-color="#2caf6a"/><stop offset="0.47" stop-color="#44b96c"/><stop offset="0.51" stop-color="#6ac96f"/><stop offset="0.55" stop-color="#8ad672"/><stop offset="0.6" stop-color="#a3e074"/><stop offset="0.64" stop-color="#b4e776"/><stop offset="0.69" stop-color="#bfec77"/><stop offset="0.75" stop-color="#c2ed77"/></linearGradient><linearGradient id="linear-gradient-30" x1="1747.66" y1="605.05" x2="1781.52" y2="525.02" xlink:href="#linear-gradient-6"/><linearGradient id="linear-gradient-31" x1="2359.06" y1="411.64" x2="2600.56" y2="411.64" gradientUnits="userSpaceOnUse"><stop offset="0.18" stop-color="#72cde3"/><stop offset="0.7" stop-color="#76cfe9"/></linearGradient><linearGradient id="linear-gradient-32" x1="2448.61" y1="510.16" x2="2543.33" y2="277.09" gradientUnits="userSpaceOnUse"><stop offset="0.19" stop-color="#3b97bd"/><stop offset="0.21" stop-color="#3c9abf"/><stop offset="0.41" stop-color="#4cbee0"/><stop offset="0.58" stop-color="#56d5f5"/><stop offset="0.68" stop-color="#5addfc"/></linearGradient><linearGradient id="linear-gradient-33" x1="2558.51" y1="464.4" x2="2638" y2="464.4" gradientUnits="userSpaceOnUse"><stop offset="0.22" stop-color="#75cde9"/><stop offset="0.73" stop-color="#6dcdec"/></linearGradient><linearGradient id="linear-gradient-34" x1="2635.94" y1="414.54" x2="2544.35" y2="540.31" gradientUnits="userSpaceOnUse"><stop offset="0.3" stop-color="#3ea7d4"/><stop offset="0.67" stop-color="#2699be"/></linearGradient><linearGradient id="linear-gradient-35" x1="2312.49" y1="456.95" x2="2406.54" y2="456.95" gradientUnits="userSpaceOnUse"><stop offset="0.27" stop-color="#64a7cf"/><stop offset="0.52" stop-color="#61a9d0"/><stop offset="0.68" stop-color="#59b0d3"/><stop offset="0.82" stop-color="#4abcd8"/><stop offset="0.83" stop-color="#48bed9"/></linearGradient><linearGradient id="linear-gradient-36" x1="2329.77" y1="492.47" x2="2395.72" y2="430.01" gradientUnits="userSpaceOnUse"><stop offset="0.23" stop-color="#269ad6"/><stop offset="0.47" stop-color="#299bd6"/><stop offset="0.62" stop-color="#319fd8"/><stop offset="0.75" stop-color="#40a5da"/><stop offset="0.87" stop-color="#55afdd"/><stop offset="0.88" stop-color="#58b0dd"/></linearGradient><linearGradient id="linear-gradient-37" x1="2346.5" y1="438.97" x2="2376.14" y2="408.81" gradientUnits="userSpaceOnUse"><stop offset="0.08" stop-color="#177295"/><stop offset="0.28" stop-color="#268caf"/><stop offset="0.62" stop-color="#3cb5d6"/><stop offset="0.8" stop-color="#45c4e5"/></linearGradient><linearGradient id="linear-gradient-38" x1="2361.8" y1="442.77" x2="2595.54" y2="442.77" gradientUnits="userSpaceOnUse"><stop offset="0.11" stop-color="#82cff2"/><stop offset="0.2" stop-color="#7cceea"/><stop offset="0.44" stop-color="#6fcbdb"/><stop offset="0.68" stop-color="#72ccdb"/></linearGradient><linearGradient id="linear-gradient-39" x1="2457.2" y1="521.84" x2="2519.39" y2="375.14" gradientUnits="userSpaceOnUse"><stop offset="0.06" stop-color="#177295"/><stop offset="0.21" stop-color="#268caf"/><stop offset="0.48" stop-color="#3cb5d6"/><stop offset="0.62" stop-color="#45c4e5"/></linearGradient><linearGradient id="linear-gradient-40" x1="2390.27" y1="688.7" x2="2321.67" y2="543.34" gradientTransform="matrix(-1, 0, 0, 1, 4752.59, 0)" gradientUnits="userSpaceOnUse"><stop offset="0" stop-color="#1aa74f"/><stop offset="0.95" stop-color="#26e763"/></linearGradient><linearGradient id="linear-gradient-41" x1="198.11" y1="824.53" x2="697.3" y2="382.78" gradientUnits="userSpaceOnUse"><stop offset="0.2" stop-color="#1aa74f"/><stop offset="0.32" stop-color="#1ebc55"/><stop offset="0.51" stop-color="#22d45d"/><stop offset="0.68" stop-color="#25e261"/><stop offset="0.82" stop-color="#26e763"/></linearGradient><linearGradient id="linear-gradient-42" x1="2011.2" y1="616.2" x2="2085.33" y2="555.87" gradientTransform="translate(96.07 -223.06) rotate(7.6)" gradientUnits="userSpaceOnUse"><stop offset="0" stop-color="#1aa74f"/><stop offset="0.86" stop-color="#26e763"/></linearGradient><linearGradient id="linear-gradient-43" x1="26.41" y1="879.72" x2="150.03" y2="779.1" gradientTransform="translate(96.07 -223.06) rotate(7.6)" gradientUnits="userSpaceOnUse"><stop offset="0.24" stop-color="#1aa74f"/><stop offset="1" stop-color="#26e763"/></linearGradient><linearGradient id="linear-gradient-44" x1="101.85" y1="732.5" x2="2797.85" y2="732.5" gradientUnits="userSpaceOnUse"><stop offset="0" stop-color="#4f5a73"/><stop offset="1" stop-color="#4f5a73"/></linearGradient><linearGradient id="linear-gradient-45" x1="2431.47" y1="696.24" x2="2474.7" y2="661.05" gradientTransform="matrix(0.99, -0.13, 0.13, 1.04, -71.4, 295.5)" gradientUnits="userSpaceOnUse"><stop offset="0.18" stop-color="#108937"/><stop offset="0.43" stop-color="#52a82f"/><stop offset="0.67" stop-color="#87c128"/><stop offset="0.84" stop-color="#a9d024"/><stop offset="0.94" stop-color="#b5d622"/></linearGradient></defs><g class="cls-2"><rect class="cls-3" x="100.85" y="59" width="2696" height="692"/><path class="cls-4" d="M-6.87,559.36S253,468.7,478,520.35s769.78,72.77,881.39,68.21,584.77-50.86,681.19-68.21S2322,492.13,2693,571.06L2694.89,687H-2Z" transform="translate(103.85 59)"/><polygon class="cls-5" points="103.85 725 2815.3 725 2972.85 774.11 2907.29 897.77 28.85 879.77 103.85 725"/><path class="cls-6" d="M907.49,301.93s2-13.76,27.27-23.18,46.56-14.48,68.51-3.62,17.3,35.49,12.64,38.39c-9,5.63-28.51,13-80.48,5.8C904.16,315,907.49,301.93,907.49,301.93Z" transform="translate(103.85 59)"/><path class="cls-7" d="M814.52,280.5s4.88-26.65,45-40.35,66.23-20.09,89.74,7,13.63,70-2.16,74.63-82.12,5.56-122.77-14C824.29,307.84,809.72,299.07,814.52,280.5Z" transform="translate(103.85 59)"/><path class="cls-8" d="M1387.21,366.22s4.07-29.35,55.67-49.43,95.06-30.88,139.87-7.72,35.3,75.68,25.8,81.86c-18.46,12-58.21,27.76-164.31,12.35C1380.42,394,1387.21,366.22,1387.21,366.22Z" transform="translate(103.85 59)"/><path class="cls-9" d="M1399.18,570.43a44.69,44.69,0,0,0,4.41,11.81c2.05,3.76,3.58,6.5,7,8.9a22.38,22.38,0,0,0,9.3,3.7V571.21l6.88.21V586s15.14,1.85,17.24-14h2.1s1.8,18.1-19,20.22l-1.41,66.61h-6.35l.27-54.95a42.91,42.91,0,0,1-12.8-9.33,37.27,37.27,0,0,1-10-24.19l1.35,0Z" transform="translate(103.85 59)"/><path class="cls-10" d="M1375,542.46s64.67-21.28,103.69,0c32.82,19.66,15.68,28.8-23.2,28.8-34.45-.31-76.62-2.6-76.62-2.6S1332.09,562.27,1375,542.46Z" transform="translate(103.85 59)"/><path class="cls-11" d="M1373.24,543.43s64.67-21.07,103.68,0c37.61,22.33,10.9,28.54-23.19,28.54-34.45-.31-76.63-2.57-76.63-2.57S1330.36,563.06,1373.24,543.43Z" transform="translate(103.85 59)"/><path class="cls-9" d="M1032.48,587.29a36.85,36.85,0,0,0,3.45,9.56c1.59,3,2.79,5.26,5.42,7.2a17.1,17.1,0,0,0,7.25,3V587.92l5.36.17v11.77s11.82,1.5,13.45-11.32h1.64s1.4,14.64-14.84,16.36l-1.1,53.9h-4.95l.2-44.47a33.51,33.51,0,0,1-10-7.54,30.85,30.85,0,0,1-7.77-19.58l1.05,0Z" transform="translate(103.85 59)"/><path class="cls-10" d="M1013.6,564.65s50.44-17.22,80.87,0c25.6,15.91,12.23,23.31-18.09,23.31-26.86-.25-59.76-2.1-59.76-2.1S980.16,580.69,1013.6,564.65Z" transform="translate(103.85 59)"/><path class="cls-12" d="M1012.25,562s50.44-20.32,80.87,0c29.33,21.52,8.5,27.51-18.09,27.51-26.87-.3-59.76-2.48-59.76-2.48S978.81,581,1012.25,562Z" transform="translate(103.85 59)"/><path class="cls-13" d="M530.88,456.32a46.65,46.65,0,0,0,10.78,28c16.89,20.17,45.13,19.54,48.13,19.42L588.86,459l17.39.67v24.77a40.63,40.63,0,0,0,22.16-2.48,36,36,0,0,0,19.85-21l7.26.19q-2.19,6.09-4.4,12.19A30,30,0,0,0,671,475.91a27.47,27.47,0,0,0,18.22-14.09h5.41s-3.53,28.25-46,18.83c-7.72,9.89-25.8,20.43-42.49,15.15,1,30.73,6.57,151,6.57,151H593.18l-3.39-131.86c-4.89-.17-28.09-1.49-46.6-18.94a60.1,60.1,0,0,1-19.07-40.7Z" transform="translate(103.85 59)"/><path class="cls-14" d="M476.24,390s150.11-51.2,240.67,0c76.93,50-2,71.3-53.84,69.31-80-.76-177.86-6.25-177.86-6.25S376.7,437.68,476.24,390Z" transform="translate(103.85 59)"/><path class="cls-15" d="M802.14,548.42a17.77,17.77,0,0,0,6,12.13c9.37,8.74,25,8.47,26.67,8.42l-.51-19.4,9.64.29V560.6a28.53,28.53,0,0,0,12.28-1.08c8-2.64,10.58-8.14,11-9.08l4,.07-2.43,5.29a20.61,20.61,0,0,0,11,1.12c6.91-1.22,9.75-5.57,10.09-6.11h3S891,563.06,867.43,559c-4.28,4.29-14.3,8.86-23.55,6.58.54,13.31,3.64,65.45,3.64,65.45H836.67l-1.89-57.17c-2.7-.07-15.56-.64-25.82-8.21-9.64-7.11-10.45-15.57-10.57-17.64Z" transform="translate(103.85 59)"/><path class="cls-16" d="M776.76,513.91s77.73-29.53,124.63,0c39.83,28.83-1.06,41.12-27.89,40-41.4-.43-92.09-3.6-92.09-3.6S725.22,541.41,776.76,513.91Z" transform="translate(103.85 59)"/><path class="cls-17" d="M2621.35,547.52a27.72,27.72,0,0,0,6.41,16.63c10,12,26.83,11.62,28.62,11.55l-.55-26.61,10.34.39v14.74a24.26,24.26,0,0,0,13.18-1.48,21.45,21.45,0,0,0,11.8-12.46l4.32.11q-1.3,3.61-2.62,7.25a17.8,17.8,0,0,0,11.84,1.53,16.29,16.29,0,0,0,10.83-8.38h3.22s-2.1,16.8-27.33,11.2c-4.6,5.88-15.35,12.15-25.27,9,.57,18.27,3.91,89.78,3.91,89.78H2658.4q-1-39.19-2-78.41c-2.91-.1-16.7-.88-27.71-11.26a35.74,35.74,0,0,1-11.34-24.2Z" transform="translate(103.85 59)"/><path class="cls-18" d="M2588.86,508.08s89.26-30.44,143.12,0c45.74,29.73-1.22,42.41-32,41.22-47.55-.45-105.77-3.71-105.77-3.71S2529.67,536.44,2588.86,508.08Z" transform="translate(103.85 59)"/><path class="cls-19" d="M0,606.68s81-66.32,655,0c0,0,338,31.85,668,26.09s730-44.21,730-44.21,298-20.42,640,13l1.89,85.43H-2Z" transform="translate(103.85 59)"/><path class="cls-20" d="M675.19,650s-21.43-30.22,32.63-38.5c39.37-6,55.12,2.78,55.12,2.78a143.78,143.78,0,0,1,60.74-11.19c33.75,1.45,65.25,15.83,65.25,15.83s70.86-8.35,93.36,3.25c0,0,11.25,4.43,4.5,10.57,0,0,96.74-11.5,106.87,17.26,0,0,57.37-2.88,67.49,17.12,0,0,116.28-8.79,97.51,16.28,0,0,106.8,4.41,80.93,16.93l-97.44,4.22L687.57,687.14Z" transform="translate(103.85 59)"/><path class="cls-21" d="M2333.22,654.19c2.68-9.05-9.2-19-21.52-39.31-24.2-39.92-28.92-85-28.37-119.93,0,0-2.11-46.88,11.94-70.32a391.87,391.87,0,0,0,23.9-47.69s49.19,2.42,53.4,0,16.16-14,14.06-43.76l.7-7.17-12.65,3.84s-3.89,26.73-20.09,28.8c-19.32,2.9-41.4-10-38.16-28.8h-14s4.32,54.89-16.92,66.48c-15.84,4.56-25.19-2.65-24.48-34.78l.72-32.13-25.19,0s1.44,34.16,0,36.23-12.6,23.19-24.48-20.29c-10.08-30.64-4.32-15.88-4.32-15.88l-13.68.33s6.12,33.77,26.28,54.89C2233.64,405,2234,439,2223.92,451c-10.8,12-29.16,18.63-43.2-52.59-9.36-47.2-11.88-68.55-11.88-68.55l-19.44-.23s7.92,56.36,6.48,66.3c-1.8,11.18-2.52,45.55-45,31.05-22.05-3.52-66.21-16.18-84.6-54.24-6.84-32.3-5.4-44.72-5.4-44.72l-15.83-.45s.35,18.67,3.59,23.64a47.58,47.58,0,0,1-28.25-6.74c-16.31-9.79-22.89-26.35-24.66-31.27l-12.7-.56A83.8,83.8,0,0,0,1955.84,337c12.53,16.3,30,25.3,42.72,27.47,2.55.43,12.63,1.9,12.59,2.36,0,.12-.71.12-.71.12s3.24,48.86,54,71.22c45.36,19.47,65.16,29.4,76.68,37.27s19.44,16.15,17.64,43.07a242.09,242.09,0,0,0,3.24,64.39,229.44,229.44,0,0,0,24.84,69.36C2299.52,673.72,2329.54,666.61,2333.22,654.19Z" transform="translate(103.85 59)"/><path class="cls-22" d="M2282.65,488A103.43,103.43,0,0,0,2252.09,519c-34.46,54.22-11,125.53-8.35,133.28l91,1.89a325.15,325.15,0,0,1-17.5-31.78C2293.31,572.69,2285.19,524.13,2282.65,488Z" transform="translate(103.85 59)"/><path class="cls-23" d="M2177.79,385.36s16.86,71.81,30.08,71.28C2194.2,464,2168.68,444.06,2177.79,385.36Z" transform="translate(103.85 59)"/><path class="cls-24" d="M2272.11,574.32a23.51,23.51,0,0,1-5.09.66,9.87,9.87,0,0,1-5-1.06,4.32,4.32,0,0,1-1.79-1.92,6.2,6.2,0,0,1-.47-2.59,15,15,0,0,1,1.31-5,37.28,37.28,0,0,1,5.41-8.81,36.35,36.35,0,0,1,3.55-3.79,24.7,24.7,0,0,1,4.15-3.16,9.42,9.42,0,0,1,5.1-1.55,4.44,4.44,0,0,1,1.39.26c.22.08.45.15.66.25l.6.39a6.84,6.84,0,0,1,1.85,2c1.85,3.11,2.34,6.67,2.56,10.11a67.88,67.88,0,0,1-2.49,20.51l0,.06,0,.06a73.33,73.33,0,0,1-6,9.63,44,44,0,0,1-7.82,8.31,18.06,18.06,0,0,1-5,2.89,8.79,8.79,0,0,1-2.94.52,6.12,6.12,0,0,1-3-.77,10.55,10.55,0,0,1-3.86-4.4,26.64,26.64,0,0,1-2-5.37,60.31,60.31,0,0,1-1.8-11.22,93.13,93.13,0,0,1-.09-11.33l1-22.57-.38,22.59a89.83,89.83,0,0,0,.26,11.25,60.34,60.34,0,0,0,1.92,11,27.28,27.28,0,0,0,2,5.15,9.46,9.46,0,0,0,3.48,4,6,6,0,0,0,5.05.15,17,17,0,0,0,4.71-2.74,43.11,43.11,0,0,0,7.58-8.14,80.7,80.7,0,0,0,5.94-9.49l-.05.12a66.93,66.93,0,0,0,2.56-20.16c-.19-3.35-.69-6.82-2.37-9.65a4.72,4.72,0,0,0-3.71-2.51,8.6,8.6,0,0,0-4.62,1.36,24,24,0,0,0-4,3A35,35,0,0,0,2267,556a38.23,38.23,0,0,0-5.46,8.57,14.59,14.59,0,0,0-1.39,4.84,5.56,5.56,0,0,0,.37,2.43,4.07,4.07,0,0,0,1.62,1.84,9.73,9.73,0,0,0,4.89,1.15A23.59,23.59,0,0,0,2272.11,574.32Z" transform="translate(103.85 59)"/><path class="cls-25" d="M2429.94,184s109.72-29.4,158.35,60.12c31.67,69.48,37.33,92-158.35,79.41C2396.86,212.29,2429.94,184,2429.94,184Z" transform="translate(103.85 59)"/><path class="cls-26" d="M2425.23,187.83s112.67-29.4,162.61,60.12c32.52,69.48,38.33,92-162.61,79.4C2391.26,216.12,2425.23,187.83,2425.23,187.83Z" transform="translate(103.85 59)"/><path class="cls-27" d="M1947.84,172.27c3.66-28,13.27-70.21,42.18-104.71,75.73-90.39,219.78-51.11,275.51-35.91,118.19,32.23,198.53,109.5,241.95,160.37a29.53,29.53,0,0,1,4,26.61,26.61,26.61,0,0,1-18.57,8.89c-51.21,2.55-261.76,12.86-273.47,10.51-13.34-2.67-258.3-26.73-258.3-26.73Z" transform="translate(103.85 59)"/><path class="cls-28" d="M1952.69,309.28c-3.33,0-100.07-7.74-100.07-7.74s-60-14.2-25.58-49.05a60,60,0,0,0,21.8-21.13c6.87-11.41,5-17,9.41-27.52,13.88-33.27,60.41-44.6,60.41-44.61h0s63.12-14.68,110.08,14.14c5.24,3.21,7.82,4.95,9.81,7.94,21.72,32.61-45.83,128-45.83,128Z" transform="translate(103.85 59)"/><path class="cls-29" d="M1949.29,313c-3.38,0-101.33-7.77-101.33-7.77S1787.17,291,1822.07,256a60.46,60.46,0,0,0,22.06-21.2c7-11.45,5.1-17.06,9.53-27.61,14-33.38,61.17-44.75,61.17-44.75h0s63.91-14.74,111.46,14.17c5.3,3.23,7.91,5,9.93,8,22,32.72-46.4,128.41-46.4,128.41Z" transform="translate(103.85 59)"/><path class="cls-30" d="M1899.06,121.5s9.29-23.66,73.18-11.64c59.23,14.7,13.93,52.11-36.59,44.09S1890.61,129.73,1899.06,121.5Z" transform="translate(103.85 59)"/><path class="cls-25" d="M1947.08,229.27s58.86-53.78,120.56-74.87c67.41-31.63,156.64-102.29,264.86-69.6,83.54,30.58,146.19,72.76,183.22,150.8,18,45.34,20.88,100.18-116.77,92.79l-383.52.68S1865.44,316.79,1947.08,229.27Z" transform="translate(103.85 59)"/><path class="cls-31" d="M1950.05,230.56s58.39-53,119.59-73.83c66.86-31.2,155.38-100.87,262.72-68.64,82.87,30.16,145,71.76,181.74,148.71,17.89,44.72,20.72,98.79-115.82,91.51l-380.43.66S1869.07,316.87,1950.05,230.56Z" transform="translate(103.85 59)"/><path class="cls-23" d="M2387.33,330.68s1.8,31-10.86,43c-3.77,4.21-6.76,4.09-11.27,4.21,0,0,12.59-4.74,15.72-20.51a168.76,168.76,0,0,0,3.3-27.66h3.11Z" transform="translate(103.85 59)"/><path class="cls-23" d="M2261.71,329.42c-.5,5.42-.74,24.29-.54,28,.87,16.1,1.86,34.43,10.94,39.16a11,11,0,0,0,6.81,1l3.44-.45c-4.23,6-8,6.52-9.22,6.58-7.51.4-16.3-10.81-18.44-28.87a126.43,126.43,0,0,1-1.51-26c.35-7.21,1.6-19.41,1.6-19.41h6.92Z" transform="translate(103.85 59)"/><path class="cls-32" d="M463.92,632.78c.39-1-2.73-2.71-5.4-6.68a25.49,25.49,0,0,1-3.57-9c-2.35-9.52-11.44-21-14.44-25.28-9.52-13.51-14-33.77-21.46-67.37a520.51,520.51,0,0,1-9.4-57.75c-.54-33.52,3.88-58.78,13-73.36a404.24,404.24,0,0,0,26-49.75s53.5,2.53,58.09,0S524.31,329,522,297.9l.76-7.48-13.76,4s-4.23,27.88-21.85,30c-21,3-45-10.4-41.51-30H430.39s4.7,57.26-18.4,69.35c-17.23,4.75-27.41-2.77-26.63-36.29l.78-33.51-27.41,0s1.57,35.63,0,37.79S345,356,332.1,310.65c-11-32-4.69-16.57-4.69-16.57l-14.88.35s6.65,35.22,28.58,57.26C355.6,372.85,356,408.27,345,420.8c-11.75,12.53-31.72,19.44-47-54.86-10.18-49.24-12.92-71.51-12.92-71.51L264,294.19s8.61,58.79,7,69.16c-2,11.66-2.74,47.52-48.95,32.4-24-3.68-72-16.89-92-56.59-7.44-33.7-5.87-46.66-5.87-46.66L107,292s.39,19.47,3.91,24.66a53.67,53.67,0,0,1-30.74-7c-17.73-10.22-24.89-27.49-26.82-32.62l-13.81-.59a86.42,86.42,0,0,0,13.94,25.41c13.62,17,32.57,26.39,46.47,28.65,2.77.45,13.73,2,13.68,2.46,0,.13-.76.13-.76.13s3.52,51,58.74,74.3c49.34,20.3,70.87,30.67,83.4,38.88s21.15,16.85,19.19,44.92a242.16,242.16,0,0,0,3.53,67.18,233.06,233.06,0,0,0,27,72.35c42.4,1.46,69.63,1.61,87.09,1.43,35-.36,54.94-2.25,65.42.43C457.26,632.61,463.4,634.18,463.92,632.78Z" transform="translate(103.85 59)"/><path class="cls-33" d="M408.92,459.36a110.14,110.14,0,0,0-33.25,32.4c-37.48,56.57-12,131-9.08,139l98.94,2a336.19,336.19,0,0,1-19-33.15C420.51,547.76,411.68,497.1,408.92,459.36Z" transform="translate(103.85 59)"/><path class="cls-34" d="M294.86,352.34s18.33,74.91,32.71,74.36C312.7,434.35,284.94,413.58,294.86,352.34Z" transform="translate(103.85 59)"/><path class="cls-35" d="M397.45,549.46a26.53,26.53,0,0,1-5.4.69,11.64,11.64,0,0,1-5.36-1,4.77,4.77,0,0,1-2-1.89,5.44,5.44,0,0,1-.66-2.71,14.21,14.21,0,0,1,1.34-5.34,39.1,39.1,0,0,1,5.88-9.25,38.51,38.51,0,0,1,3.82-4,26.59,26.59,0,0,1,4.44-3.29,11.82,11.82,0,0,1,5.36-1.76,9.28,9.28,0,0,1,1.47.15,7.38,7.38,0,0,1,1.4.54,6.81,6.81,0,0,1,2.15,2,15.35,15.35,0,0,1,2.22,5.17,31.82,31.82,0,0,1,.81,5.47A67.2,67.2,0,0,1,410.17,556v.07l0,.06a78,78,0,0,1-6.56,10,46.84,46.84,0,0,1-8.41,8.59,20.14,20.14,0,0,1-5.31,3,8.24,8.24,0,0,1-6.21,0,10.35,10.35,0,0,1-4.39-4.35,26.49,26.49,0,0,1-2.32-5.6,59.4,59.4,0,0,1-2.05-11.8,91.52,91.52,0,0,1-.14-11.94l1-23.79-.43,23.81a90.12,90.12,0,0,0,.32,11.85,58.75,58.75,0,0,0,2.19,11.58,26.54,26.54,0,0,0,2.29,5.36,9.33,9.33,0,0,0,3.92,3.9,7.17,7.17,0,0,0,5.4-.1,19.43,19.43,0,0,0,5-2.86,45.86,45.86,0,0,0,8.15-8.43,83.07,83.07,0,0,0,6.45-9.89l-.06.13a65.94,65.94,0,0,0,2.78-21.32,30.13,30.13,0,0,0-.76-5.28,14.29,14.29,0,0,0-2-4.81,4.92,4.92,0,0,0-4.16-2.29,10.84,10.84,0,0,0-4.91,1.55,25,25,0,0,0-4.34,3.13,38.06,38.06,0,0,0-3.81,3.81,39.52,39.52,0,0,0-5.92,9,13.75,13.75,0,0,0-1.44,5.12,5,5,0,0,0,.54,2.53,4.48,4.48,0,0,0,1.86,1.8,11.53,11.53,0,0,0,5.23,1.08A26.46,26.46,0,0,0,397.45,549.46Z" transform="translate(103.85 59)"/><path class="cls-36" d="M22,121.25c4.22-31,15.33-77.7,48.76-115.87C161.08-97.76,334-49.77,389.3-34.36,519.39,1.86,620.84,102.77,657.72,147.91l21.51,17A1762.87,1762.87,0,0,1,336.07,194,1762.79,1762.79,0,0,1,37.45,164.44Z" transform="translate(103.85 59)"/><path class="cls-37" d="M20.88,125.53c4.21-31.1,15.31-78.05,48.68-116.4,90.16-103.61,262.83-55.4,318.06-39.92C524,7.41,612.36,99,655.65,152.31l21.48,17.11a1750,1750,0,0,1-342.67,29.21A1750.54,1750.54,0,0,1,36.28,168.92Z" transform="translate(103.85 59)"/><path class="cls-36" d="M589.85,145.11s122.56-30.66,176.89,62.73c35.37,72.47,41.69,96-176.89,82.83C552.9,174.63,589.85,145.11,589.85,145.11Z" transform="translate(103.85 59)"/><path class="cls-38" d="M587.54,146.27S710.1,115.6,764.43,209c35.37,72.48,41.69,96-176.89,82.83C550.59,175.78,587.54,146.27,587.54,146.27Z" transform="translate(103.85 59)"/><path class="cls-36" d="M49.89,273.13c-3.59,0-107.77-8-107.77-8s-64.67-14.69-27.54-50.76a63.6,63.6,0,0,0,23.47-21.87c7.39-11.81,5.41-17.6,10.13-28.47,15-34.44,65.06-46.16,65.06-46.16h0s68-15.2,118.55,14.62c5.64,3.33,8.42,5.12,10.56,8.22C165.75,174.44,93,273.13,93,273.13Z" transform="translate(103.85 59)"/><path class="cls-39" d="M46.3,276.88c-3.68,0-110.22-8.11-110.22-8.11S-130,253.91-92.09,217.43a64.72,64.72,0,0,0,24-22.12c7.57-11.94,5.54-17.8,10.37-28.8,15.28-34.83,66.54-46.69,66.54-46.69h0s69.51-15.37,121.24,14.79c5.76,3.37,8.6,5.18,10.8,8.32,23.92,34.13-50.48,134-50.48,134Z" transform="translate(103.85 59)"/><path class="cls-40" d="M-8.34,77.08S1.77,52.39,71.26,64.93c64.44,15.34,15.16,54.36-39.8,46S-17.53,85.66-8.34,77.08Z" transform="translate(103.85 59)"/><path class="cls-36" d="M50.7,184S113.82,129.77,180,108.5C252.28,76.6,348,5.34,464,38.31c89.59,30.84,156.79,73.38,196.49,152.09,19.34,45.73,22.4,101-125.22,93.59l-411.3.68S-36.85,272.29,50.7,184Z" transform="translate(103.85 59)"/><path class="cls-41" d="M47.13,190.85s63.5-55.33,130.08-77C249.94,81.28,346.22,8.6,463,42.23c90.14,31.46,157.74,74.85,197.69,155.13,19.46,46.64,22.54,103.06-126,95.46l-413.81.69S-41,280.89,47.13,190.85Z" transform="translate(103.85 59)"/><path class="cls-34" d="M522.78,295.29s2,32.3-11.81,44.85c-4.1,4.39-7.36,4.27-12.26,4.39a29.3,29.3,0,0,0,17.11-21.39,169.64,169.64,0,0,0,3.57-28.86h3.39Z" transform="translate(103.85 59)"/><path class="cls-34" d="M386.14,294c-.54,5.66-.81,25.34-.59,29.17.94,16.79,2,35.91,11.9,40.85a12.42,12.42,0,0,0,7.41,1l3.74-.46c-4.6,6.26-8.71,6.79-10,6.86-8.17.42-17.72-11.28-20.06-30.12a126.5,126.5,0,0,1-1.64-27.09c.38-7.51,1.74-20.24,1.74-20.24h7.53Z" transform="translate(103.85 59)"/><path class="cls-9" d="M1740.92,577.18a36.43,36.43,0,0,0,3.79,9.84c1.76,3.14,3.07,5.42,6,7.41a19.37,19.37,0,0,0,8,3.08V577.83l5.89.18v12.11s13,1.54,14.8-11.65h1.8s1.54,15.07-16.33,16.84l-1.21,55.49h-5.45l.23-45.78a36.84,36.84,0,0,1-11-7.77,30.51,30.51,0,0,1-8.55-20.15l1.16,0Z" transform="translate(103.85 59)"/><path class="cls-10" d="M1720.15,553.88s55.49-17.73,89,0c28.16,16.38,13.46,24-19.91,24-29.55-.26-65.74-2.16-65.74-2.16S1683.36,570.38,1720.15,553.88Z" transform="translate(103.85 59)"/><path class="cls-42" d="M1718.67,554.69s55.49-17.56,89,0c32.27,18.6,9.35,23.78-19.9,23.78-29.56-.26-65.75-2.15-65.75-2.15S1681.87,571.05,1718.67,554.69Z" transform="translate(103.85 59)"/><path class="cls-43" d="M2520.84,618.52c.15-.39-1-1-2-2.46a9.25,9.25,0,0,1-1.3-3.33c-.86-3.51-4.17-7.75-5.26-9.32-3.47-5-5.1-12.44-7.82-24.82a195.27,195.27,0,0,1-3.42-21.28c-.2-12.35,1.41-21.66,4.73-27a149,149,0,0,0,9.47-18.33s19.48.93,21.15,0,6.4-5.36,5.57-16.82l.28-2.75-5,1.47s-1.54,10.28-8,11.07c-7.65,1.12-16.4-3.83-15.12-11.07h-5.56s1.71,21.1-6.7,25.56c-6.27,1.75-10-1-9.7-13.37l.29-12.36-10,0s.57,13.13,0,13.93-5,8.91-9.7-7.8c-4-11.78-1.71-6.11-1.71-6.11l-5.42.13s2.43,13,10.41,21.1c5.28,7.8,5.42,20.85,1.43,25.47-4.28,4.61-11.55,7.16-17.11-20.22-3.71-18.14-4.71-26.35-4.71-26.35l-7.7-.09s3.14,21.67,2.57,25.49c-.72,4.3-1,17.51-17.83,11.94-8.73-1.36-26.23-6.23-33.51-20.86-2.71-12.41-2.14-17.19-2.14-17.19l-6.27-.17s.14,7.18,1.42,9.09a19.35,19.35,0,0,1-11.19-2.59,23.57,23.57,0,0,1-9.77-12l-5-.22a31.78,31.78,0,0,0,5.08,9.36c5,6.27,11.86,9.73,16.92,10.56a43.54,43.54,0,0,1,5,.91c0,.05-.28.05-.28.05s1.28,18.78,21.39,27.37c18,7.49,25.81,11.31,30.37,14.33s7.7,6.21,7,16.55a90.45,90.45,0,0,0,1.28,24.76,86.42,86.42,0,0,0,9.84,26.66c15.44.54,25.35.59,31.71.53,12.75-.13,20-.83,23.83.15C2518.42,618.46,2520.65,619,2520.84,618.52Z" transform="translate(103.85 59)"/><path class="cls-44" d="M2500.81,554.62a40.22,40.22,0,0,0-12.1,11.94c-13.65,20.84-4.37,48.25-3.31,51.23l36,.73a124.35,124.35,0,0,1-6.93-12.22A139.1,139.1,0,0,1,2500.81,554.62Z" transform="translate(103.85 59)"/><path class="cls-45" d="M2459.28,515.18s6.68,27.6,11.91,27.4C2465.77,545.4,2455.67,537.75,2459.28,515.18Z" transform="translate(103.85 59)"/><path class="cls-46" d="M2496.64,587.82a9.42,9.42,0,0,1-2,.25,4.17,4.17,0,0,1-2-.37,1.81,1.81,0,0,1-1-1.7,5.51,5.51,0,0,1,.5-2,14.37,14.37,0,0,1,2.15-3.4,12.15,12.15,0,0,1,3-2.65,4.06,4.06,0,0,1,2-.63,2.17,2.17,0,0,1,1.79,1,7.92,7.92,0,0,1,1.09,3.89,25.52,25.52,0,0,1-1,8v0a22.42,22.42,0,0,1-5.47,6.86,7.9,7.9,0,0,1-1.94,1.1,2.89,2.89,0,0,1-2.27,0,4,4,0,0,1-1.57-1.62,11,11,0,0,1-.83-2.05,28.19,28.19,0,0,1-.81-8.72l.39-8.74-.16,8.75a27.45,27.45,0,0,0,.88,8.62c.43,1.33,1,2.81,2.25,3.45a2.5,2.5,0,0,0,2,0,7,7,0,0,0,1.83-1.06,22.88,22.88,0,0,0,5.33-6.77l0,0a24.73,24.73,0,0,0,1-7.83,7.66,7.66,0,0,0-1-3.72,1.83,1.83,0,0,0-1.52-.9,3.74,3.74,0,0,0-1.81.57,13.93,13.93,0,0,0-5.13,5.88,5.46,5.46,0,0,0-.53,1.88,1.67,1.67,0,0,0,.85,1.61,4.08,4.08,0,0,0,1.92.41A10.15,10.15,0,0,0,2496.64,587.82Z" transform="translate(103.85 59)"/><path class="cls-47" d="M2359.06,432.27c1.55-11.91,5.63-29.88,17.91-44.56,33.18-39.66,96.73-21.2,117.05-15.28,50.19,14.62,82.71,49.68,98.64,70.09l7.9,6.55a620.11,620.11,0,0,1-126.1,11.18,619.65,619.65,0,0,1-109.73-11.37Z" transform="translate(103.85 59)"/><path class="cls-48" d="M2359.51,431.6c1.53-11.46,5.57-28.76,17.72-42.89,32.84-38.18,95.71-20.41,115.83-14.71,49.66,14.08,81.84,47.83,97.6,67.47l7.82,6.31a629.67,629.67,0,0,1-124.78,10.76,630.19,630.19,0,0,1-108.59-11Z" transform="translate(103.85 59)"/><path class="cls-49" d="M2564.67,438.26S2610.62,427.15,2631,461c13.26,26.27,15.63,34.79-66.32,30C2550.81,449,2564.67,438.26,2564.67,438.26Z" transform="translate(103.85 59)"/><path class="cls-50" d="M2565.86,439.25s44.63-11.3,64.41,23.11c12.89,26.71,15.19,35.37-64.41,30.52C2552.4,450.12,2565.86,439.25,2565.86,439.25Z" transform="translate(103.85 59)"/><path class="cls-51" d="M2369.1,486.51c-1.39,0-41.56-3-41.56-3s-24.93-5.46-10.62-18.86a24.14,24.14,0,0,0,9-8.13c2.86-4.39,2.09-6.54,3.91-10.58,5.76-12.79,25.09-17.15,25.09-17.15h0s26.21-5.65,45.71,5.43c2.17,1.24,3.24,1.91,4.07,3.06,9,12.53-19,49.2-19,49.2Z" transform="translate(103.85 59)"/><path class="cls-52" d="M2368.76,487.37c-1.34,0-40.14-3-40.14-3s-24.08-5.48-10.25-18.92a23.85,23.85,0,0,0,8.74-8.15c2.75-4.4,2-6.56,3.77-10.61,5.57-12.84,24.23-17.21,24.23-17.21h0s25.32-5.66,44.15,5.45c2.1,1.24,3.14,1.91,3.94,3.06,8.71,12.58-18.38,49.36-18.38,49.36Z" transform="translate(103.85 59)"/><path class="cls-53" d="M2348.72,413.14s3.8-9.36,29.91-4.6c24.21,5.81,5.7,20.61-15,17.44S2345.27,416.4,2348.72,413.14Z" transform="translate(103.85 59)"/><path class="cls-54" d="M2348.87,413.75s3.68-9.1,29-4.47c23.47,5.65,5.52,20-14.49,16.94S2345.52,416.91,2348.87,413.75Z" transform="translate(103.85 59)"/><path class="cls-55" d="M2371.25,452.67s22.86-20.06,46.83-27.92c26.18-11.8,60.84-38.14,102.87-25.95,32.45,11.4,56.78,27.13,71.16,56.23,7,16.9,8.12,37.35-45.35,34.6l-149,.25S2339.54,485.3,2371.25,452.67Z" transform="translate(103.85 59)"/><path class="cls-56" d="M2369.06,455.67s23.13-20.38,47.38-28.38c26.48-12,61.54-38.77,104.07-26.38,32.82,11.59,57.44,27.58,72,57.16,7.08,17.19,8.2,38-45.88,35.18l-150.7.25S2337,488.85,2369.06,455.67Z" transform="translate(103.85 59)"/><path class="cls-57" d="M2542.28,494.16s.71,11.9-4.3,16.52c-1.5,1.62-2.68,1.58-4.47,1.62a10.75,10.75,0,0,0,6.23-7.88,62.94,62.94,0,0,0,1.3-10.63h1.24Z" transform="translate(103.85 59)"/><path class="cls-57" d="M2492.52,493.67c-.2,2.09-.3,9.34-.22,10.76.35,6.18.74,13.23,4.34,15.05a4.51,4.51,0,0,0,2.7.38l1.36-.17c-1.68,2.3-3.17,2.5-3.66,2.52-3,.16-6.45-4.15-7.3-11.09a47.8,47.8,0,0,1-.6-10c.14-2.77.64-7.47.64-7.47h2.74Z" transform="translate(103.85 59)"/><path class="cls-58" d="M2732.8,643.45s62.13-12.85-43.22-18.05c0,0,46.54-5.42,11.42-13.4,0,0-36-24-81.65-6.39,0,0-59.35-34.61-122.91-5.21,0,0-40.33-19.94-94.44-7.4-37.29,8.64-37.93,27.5-37.93,27.5s-42.07-23.5-98.6,1.42c0,0-41.47-12.92-72.93,9,0,0-54.54-20-104,7.64,0,0-78.53-1.59-67.53,6.59l6.75,3.82h692.9Z" transform="translate(103.85 59)"/><path class="cls-59" d="M-.57,644.82S-73.75,623.61,50.34,615c0,0-20.7-20.81,20.66-34,0,0,26-8,62.06,1.32,0,0,50.94-45.32,144.77-8.61,0,0,43.85-15,93.17-4.71s62.74,37.91,62.74,37.91S487,571,549.87,609.27c0,0,56.13-16.27,85.91,14.91,0,0,82.22-17.18,122.49,12.62,0,0,101.82-2.3,79.54,10.89L799.63,654l-782.7-5.16Z" transform="translate(103.85 59)"/><path class="cls-60" d="M2037.65,651.51s-22.9.11-34.47-7.74,16.33-4.13,38.71-.36c0,0-2.07-1.85-19.44-10.87s-12.4-16.23,1.3-9.68,27.33,16.72,27.33,16.72-24.9-20.33-25.16-24.31,4.5-4.13,27.52,21.4c0,0-21.21-21.35-16.66-31.78s20.51,29.54,20.51,29.54-14-42.86-4.28-44.72,7.7,42.81,7.7,42.81,9.61-24.73,24.55-24.32-19.33,26.59-22.54,26.95c0,0,1.35,1.75,6.2.83s18.61-14.11,26.42-14.61c8-.52,19.33,8.88-26.06,29.63Z" transform="translate(103.85 59)"/><path class="cls-61" d="M55.15,648.86S17,649-2.35,635.94s27.24-6.89,64.57-.6c0,0-3.46-3.09-32.42-18.12S9.11,590.14,32,601.07,77.55,629,77.55,629,36,595,35.58,588.41s7.5-6.89,45.9,35.69c0,0-35.38-35.61-27.79-53s34.22,49.26,34.22,49.26-23.36-71.48-7.15-74.57S93.6,617.17,93.6,617.17s16-41.24,41-40.55S102.3,621,97,621.56c0,0,2.24,2.93,10.34,1.38s31-23.52,44.06-24.36c13.27-.86,32.24,14.81-43.45,49.42Z" transform="translate(103.85 59)"/><path class="cls-62" d="M2339.82,644.31s13.28-7.84,16.87-7.1-3.64-6.91-14.36,1.69C2338,642.35,2339.82,644.31,2339.82,644.31Z" transform="translate(103.85 59)"/><path class="cls-62" d="M2337,644.31s5.58-17.84,11.59-19.68-9.55-4.57-12.67,7.46C2333.72,640.4,2337,644.31,2337,644.31Z" transform="translate(103.85 59)"/><path class="cls-62" d="M2335.13,644.31s-6.44-12.71-19.36-13.2S2335.13,645,2335.13,645" transform="translate(103.85 59)"/><rect class="cls-63" x="101.85" y="704" width="2696" height="57"/><path class="cls-64" d="M2449.59,705.37s-12.81,3.61-20.51.66,8.51-5,21.63-6.21c0,0-1.44-.8-12.57-3.55s-9.46-7.88-.77-6a108.28,108.28,0,0,1,17.9,5.87s-17.1-8.43-17.86-10.79,1.88-3.19,18.73,8.67c0,0-15.19-9.61-14.26-16.61S2458,692,2458,692s-14.48-23.71-9.32-26.34,10.94,24.65,10.94,24.65,1.55-16.41,10-18.48-6.71,19-8.45,19.76c0,0,1,.85,3.61-.46s8.23-11.39,12.53-12.91,12.2,2.38-10,21.93Z" transform="translate(103.85 59)"/><path class="cls-65" d="M533.27,704.64s-10.61-7.86-20.4-8.35,3.83-6.7,17.14,2.46C535.72,702.68,533.27,704.64,533.27,704.64Z" transform="translate(103.85 59)"/><path class="cls-65" d="M535.45,704.64s-3.81-20.6-12.79-25.18,11.91-6.21,15.51,11.44C540.62,702.93,535.45,704.64,535.45,704.64Z" transform="translate(103.85 59)"/><path class="cls-65" d="M538.83,704.64s5.87-13.75,20.56-14.25S538.83,704.64,538.83,704.64Z" transform="translate(103.85 59)"/><path class="cls-65" d="M678.51,708.11s-13-8.92-17.64-8.17-.22-9.49,12.53-1.13A11.92,11.92,0,0,1,678.51,708.11Z" transform="translate(103.85 59)"/><path class="cls-65" d="M680.81,706.63s-7.15-13.62-12-15.36,4.76-9.75,12,4.24A12.07,12.07,0,0,1,680.81,706.63Z" transform="translate(103.85 59)"/><path class="cls-65" d="M683.11,708.11s6.14-14.86,18.41-13.38S691.55,700.68,683.11,708.11Z" transform="translate(103.85 59)"/><path class="cls-66" d="M-37,750s66.79-20,201.44,9c127,27.35,541.35,43,586.38,44.84,2.75.11,5.5.09,8.25,0L1340.2,775s-30.75-20-41.35-19c0,0,13.78-14,54.07,11,0,0-9.54-28,0-33s8.48,30,8.48,30,179.72-30,561.12,8L2343,799,1994.34,900,1.06,845Z" transform="translate(103.85 59)"/><path class="cls-67" d="M-29,802s167.41-38,527.71,10S1287,859,1475,845s150-83,525-81c278.58,1.49,693,28,693,28l144,140-1120,3.46L-29,924Z" transform="translate(103.85 59)"/><path class="cls-67" d="M71.43,796.8s-4.39-28.14,11.89-35S71.43,796.8,71.43,796.8Z" transform="translate(103.85 59)"/><path class="cls-67" d="M88.61,796.67s2.82-32.51,24.73-35S97.69,774.16,88.61,796.67Z" transform="translate(103.85 59)"/><path class="cls-67" d="M555.44,824.4s29.12,3.44,32-11.39C589.72,801,555.44,824.4,555.44,824.4Z" transform="translate(103.85 59)"/><path class="cls-67" d="M553.45,820.57s20.29-4.19,20.44-15.09S553.45,820.57,553.45,820.57Z" transform="translate(103.85 59)"/><path class="cls-67" d="M1112.37,862.57s-22.54-5-21.91-18.76S1112.37,862.57,1112.37,862.57Z" transform="translate(103.85 59)"/><path class="cls-67" d="M1118,862.57s-12.52-34.39-21.91-43.14S1112.37,810,1118,846Z" transform="translate(103.85 59)"/><path class="cls-67" d="M1120.82,862.57s-6.32-26.76,17.21-28.14C1148.67,833.81,1120.82,862.57,1120.82,862.57Z" transform="translate(103.85 59)"/><path class="cls-67" d="M1138.66,855.69s3.75-20,18.15-21.27S1138.66,855.69,1138.66,855.69Z" transform="translate(103.85 59)"/><path class="cls-67" d="M1656.7,799.55s.56-39.57,25.67-50c7.51-3.13-4.38,5.87-14.4,34.51,0,0-1.88,6.69-1.56,8.6s16.58-34.36,27.23-36.24c0,0-20.66,30.71-22.85,41.31C1670.79,797.71,1663.59,820.81,1656.7,799.55Z" transform="translate(103.85 59)"/><path class="cls-67" d="M1706.47,792.22s-12.21-10.18-6-15.81S1715.54,791.78,1706.47,792.22Z" transform="translate(103.85 59)"/><path class="cls-67" d="M1718.05,789.54s-12.52-22.51-3.76-33.76S1723.06,783.92,1718.05,789.54Z" transform="translate(103.85 59)"/><path class="cls-67" d="M1995.7,773.57s-13.48-13.51-39.46-16.85,27.91-17.75,47.15,16.85C2003.39,773.57,2012.05,789,1995.7,773.57Z" transform="translate(103.85 59)"/><path class="cls-67" d="M2032.26,775.5s-39.45-43.26-62.55-54.79,22.14-12.5,52.93,23.55C2022.64,744.26,2038,765.88,2032.26,775.5Z" transform="translate(103.85 59)"/><path class="cls-67" d="M2043.81,775.5s-26.21-70.17-38.13-78.83,18.88-13.45,38.13,43.74C2043.81,740.41,2051.51,770.69,2043.81,775.5Z" transform="translate(103.85 59)"/><path class="cls-67" d="M2057.76,775.5s-10.1-64.41-19.72-74S2074.61,712.05,2057.76,775.5Z" transform="translate(103.85 59)"/><path class="cls-67" d="M2063.54,775.5s-.48-53.66,20.21-61.92S2071.72,748.58,2063.54,775.5Z" transform="translate(103.85 59)"/><path class="cls-67" d="M2070.27,775.5s13-61.49,44.75-63S2090,735.12,2070.27,775.5Z" transform="translate(103.85 59)"/><path class="cls-67" d="M2073,775.5s17-25,45.87-23.07S2080.06,767.81,2073,775.5Z" transform="translate(103.85 59)"/><path class="cls-67" d="M1891.25,771.67s-20.23-4.76-17.52-21.89C1875.61,737.9,1891.25,771.67,1891.25,771.67Z" transform="translate(103.85 59)"/><path class="cls-67" d="M1896.26,769.17s-14.21-18.68-5.63-29.39C1895.64,733.53,1896.26,769.17,1896.26,769.17Z" transform="translate(103.85 59)"/><path class="cls-68" d="M-5,838s337,8,448,16c0,0-6-21-17-24,0,0,25-3,27,24,0,0,0-40-16-47,0,0,39,6,36,47l182,8s-11-11-18-14c0,0,20-7,31,6,0,0-13-31-21-35,0,0,22.25-2,28.13,30,0,0,19.87-17,25.87-14.5,0,0-22,26.5-18,27.5,0,0,389,13,524,20s461.74,10,607.37,0S2431,888.42,2431,888.42L2712,899l57,49L-75,918Z" transform="translate(103.85 59)"/><path class="cls-68" d="M251,851s-1-62-94-44c0,0,42-50,101-10,0,0-1-50-64-76,0,0,57.53-17,102.77,76,0,0-22.77-95-35.77-101,0,0,47.33-2,53.17,98,0,0,7.36-61-17.4-98,0,0,51.37,8,34.8,95,0,0,23.43-80,85.43-72,0,0-65.92,59-67.46,98,0,0,36.46-39,78.46-27,0,0-75.92,35-78.46,69L305,884Z" transform="translate(103.85 59)"/><path class="cls-69" d="M2559.56,952.42s-138.25,10.29-145.86-26,114.72-13.06,165.67,7.76c-158.87-105-75-43-121.77-81s-14.9-76.46,65.28-22.16c67.27,56.39,87.06,72.85,87.06,72.85s-60.09-87.62-86.86-135.72,11-99.91,68.77-19.9c.94-31.94,1-35.09,1-35.09s-.17,47.7-1.49-7.52,50.13-40,43.5,44c20.09-37-7.5,6.66,23.33-33.9s83.86-25.91,50.45,53.18-22.8,56.41-22.8,56.41l-24.55,50.62,80.07-70c56.2-42,89.06-23.42,30.47,45-39.22,38.35-73,68.78-73,68.78s37.9-14.07,98.88-39.74,72.88,27.63,2.08,51.33c-87.23,6.84-240.2,21.21-240.2,21.21" transform="translate(103.85 59)"/><path class="cls-70" d="M2652.8,920.94l132.41-120.18S2673.63,912.2,2652.8,920.94" transform="translate(103.85 59)"/><path class="cls-70" d="M2632.12,869.82l59.07-157.45s-40,134.4-59.07,157.45" transform="translate(103.85 59)"/><path class="cls-70" d="M2605,690.71s13.68,175.44,21,198.65c5.51-10.72-15.2-197-21-198.65" transform="translate(103.85 59)"/><path class="cls-70" d="M2618.4,879.59s-82.87-143.29-85.17-149.2,87.86,125.27,85.17,149.2" transform="translate(103.85 59)"/><path class="cls-70" d="M2672,936.57s127-34.51,145.55-44.63-51.31,30.47-145.55,44.63" transform="translate(103.85 59)"/><path class="cls-70" d="M2461.13,827.57s128.09,100.57,144,108.18c0,0-131.57-109.6-144-108.18" transform="translate(103.85 59)"/><path class="cls-70" d="M2574.66,943.65S2432.88,933.32,2429.58,931s129.59,6.74,145.08,12.67" transform="translate(103.85 59)"/><path class="cls-70" d="M2651.17,819.06l39.52-25.21s-35.32,14-39.52,25.21" transform="translate(103.85 59)"/><path class="cls-70" d="M2660.55,794s-12.48-37.32-14.08-41.33,15.69,24.85,14.08,41.33" transform="translate(103.85 59)"/><path class="cls-70" d="M2673.44,768.61s37.15-23.15,37.07-27.79-32.17,23.63-37.07,27.79" transform="translate(103.85 59)"/><path class="cls-70" d="M2672.53,755.85,2662,725.28s13.52,16.32,10.52,30.57" transform="translate(103.85 59)"/><path class="cls-70" d="M2677.45,898.57s12.75-40.71,17.45-45.18-14.1,38.26-17.45,45.18" transform="translate(103.85 59)"/><path class="cls-70" d="M2703,879.81l48.83-18.7s-27.19,3.54-48.83,18.7" transform="translate(103.85 59)"/><path class="cls-70" d="M2741.09,840.8s-.08-26.88,4-31.3.21,27.49-4,31.3" transform="translate(103.85 59)"/><path class="cls-70" d="M2758.39,827.16,2790,815s-9.71,9.07-31.59,12.15" transform="translate(103.85 59)"/><path class="cls-70" d="M2744.13,916.19s31.35-22.63,41.18-25.47-20.7,15.77-41.18,25.47" transform="translate(103.85 59)"/><path class="cls-70" d="M2760,915s51.72-.84,58.86-4.28-50.92,1.67-58.86,4.28" transform="translate(103.85 59)"/><path class="cls-70" d="M2716.78,927.63l50.74,2s-34-5.83-50.74-2" transform="translate(103.85 59)"/><path class="cls-70" d="M2620.82,796.92c-.22-2.11,13.74-25.48,13.74-25.48s-9.36,3.42-14,23.37" transform="translate(103.85 59)"/><path class="cls-70" d="M2611.25,776.25s-13.59-21.28-14.15-20.34,11.56,3.85,14.15,20.34" transform="translate(103.85 59)"/><path class="cls-70" d="M2615.1,747.21l7.66-32.21s-10.15,11.78-7.66,32.21" transform="translate(103.85 59)"/><path class="cls-70" d="M2588.92,815s-3.68-45.56-3.37-47.61-6.25,24.43,3.37,47.61" transform="translate(103.85 59)"/><path class="cls-70" d="M2560.18,769.15s-7.74-24.31-6.5-33.3,7.22,25.28,6.5,33.3" transform="translate(103.85 59)"/><path class="cls-70" d="M2568.27,792.55l-31.66-14s16.46.59,31.66,14" transform="translate(103.85 59)"/><path class="cls-70" d="M2597.26,843,2567,835.28s18.74-.42,30.27,7.69" transform="translate(103.85 59)"/><path class="cls-70" d="M2495.84,848.93s-18.5-22.62-20.17-28.39,16.46,11.78,20.17,28.39" transform="translate(103.85 59)"/><path class="cls-70" d="M2518.19,871.91l-39.47-7.44s20.14-1.56,39.47,7.44" transform="translate(103.85 59)"/><path class="cls-70" d="M2538,881.31c.1.07-11.09-18.8-9.91-28.69s5.93,19.85,10,28.76" transform="translate(103.85 59)"/><path class="cls-70" d="M2565.15,903s-8.76-22.68-8.68-30.35,12.06,21.28,8.68,30.35" transform="translate(103.85 59)"/><path class="cls-70" d="M2488.59,914.47l41.81,22.83s-16.5-1.8-41.81-22.83" transform="translate(103.85 59)"/><path class="cls-70" d="M2471.6,932.51s-28.94-11.65-33.68-16.52,28.7,9.6,33.68,16.52" transform="translate(103.85 59)"/><path class="cls-70" d="M2507.05,938.49s-36.63,9.86-44.87,10.24,21.52-9.06,44.87-10.24" transform="translate(103.85 59)"/></g></svg>