<svg id="Layer_1" data-name="Layer 1" xmlns="http://www.w3.org/2000/svg" xmlns:xlink="http://www.w3.org/1999/xlink" viewBox="0 0 3202.23 1083.12"><defs><style>.cls-1{fill:none;}.cls-2{clip-path:url(#clip-path);}.cls-3{fill:url(#linear-gradient);}.cls-4{fill:url(#linear-gradient-2);}.cls-5{fill:url(#linear-gradient-3);}.cls-6{fill:url(#linear-gradient-4);}.cls-7{fill:url(#linear-gradient-5);}.cls-8{fill:#a1d2f4;}.cls-9{fill:#b2ccf4;}.cls-10{fill:url(#linear-gradient-6);}.cls-11{fill:url(#linear-gradient-7);}.cls-12{fill:url(#linear-gradient-8);}.cls-13{fill:url(#linear-gradient-9);}.cls-14{fill:#c48a71;}.cls-15{fill:#c38a73;}.cls-16{fill:#603913;}.cls-17{fill:#75ea99;}.cls-18,.cls-21,.cls-22{stroke-miterlimit:10;}.cls-18{stroke-width:2.32px;fill:url(#linear-gradient-10);stroke:url(#linear-gradient-11);}.cls-19{fill:url(#linear-gradient-12);}.cls-20{fill:url(#linear-gradient-13);}.cls-21,.cls-22{stroke-width:1.16px;}.cls-21{fill:url(#linear-gradient-14);stroke:url(#linear-gradient-15);}.cls-22{fill:url(#linear-gradient-16);stroke:url(#linear-gradient-17);}.cls-23{fill:url(#linear-gradient-18);}.cls-24{fill:url(#linear-gradient-19);}.cls-25{fill:#b98e7c;}.cls-26{fill:#c49483;}.cls-27{fill:#754d32;}.cls-28{fill:#a8e533;}.cls-29{fill:url(#linear-gradient-20);}.cls-30{fill:url(#linear-gradient-21);}.cls-31{fill:url(#linear-gradient-22);}.cls-32{fill:url(#linear-gradient-23);}.cls-33{fill:url(#linear-gradient-24);}.cls-34{fill:url(#linear-gradient-25);}.cls-35{fill:#4b7d8d;}.cls-36{fill:#6cb7c9;}.cls-37{fill:#76c2ec;}.cls-38{fill:#5d6e93;}.cls-39{fill:url(#linear-gradient-26);}.cls-40{fill:url(#linear-gradient-27);}.cls-41{fill:url(#linear-gradient-28);}.cls-42{fill:url(#linear-gradient-29);}.cls-43{fill:url(#linear-gradient-30);}.cls-44{fill:url(#linear-gradient-31);}.cls-45{fill:#71cde7;}.cls-46{fill:url(#linear-gradient-32);}.cls-47{fill:url(#linear-gradient-33);}.cls-48{fill:url(#linear-gradient-34);}.cls-49{fill:#7ac6ee;}.cls-50{fill:#016a2a;}.cls-51{fill:url(#linear-gradient-35);}.cls-52{fill:url(#linear-gradient-36);}.cls-53{fill:url(#linear-gradient-37);}.cls-54{fill:url(#linear-gradient-38);}.cls-55{fill:url(#linear-gradient-39);}.cls-56{fill:#73e49d;}.cls-57{fill:#58d472;}.cls-58{fill:#7be57f;}.cls-59{fill:url(#linear-gradient-40);}.cls-60{fill:#032616;}.cls-61{fill:url(#linear-gradient-41);}.cls-62{fill:url(#linear-gradient-42);}</style><clipPath id="clip-path" transform="translate(351.54 139.51)"><rect class="cls-1" y="0.27" width="2693" height="900"/></clipPath><linearGradient id="linear-gradient" x1="1471.6" y1="1595.33" x2="1801.53" y2="-35.75" gradientUnits="userSpaceOnUse"><stop offset="0.25" stop-color="#c5f7fd"/><stop offset="0.33" stop-color="#bbf5fb"/><stop offset="0.66" stop-color="#96eef5"/><stop offset="0.83" stop-color="#88ebf3"/></linearGradient><linearGradient id="linear-gradient-2" x1="84.58" y1="938.36" x2="3098.24" y2="938.36" gradientUnits="userSpaceOnUse"><stop offset="0.08" stop-color="#439923"/><stop offset="0.11" stop-color="#4da22d"/><stop offset="0.21" stop-color="#64b745"/><stop offset="0.33" stop-color="#76c857"/><stop offset="0.46" stop-color="#82d364"/><stop offset="0.64" stop-color="#8ada6c"/><stop offset="1" stop-color="#8cdc6e"/></linearGradient><linearGradient id="linear-gradient-3" x1="827.25" y1="240.31" x2="925.57" y2="141.92" gradientUnits="userSpaceOnUse"><stop offset="0.15" stop-color="#82cdd9"/><stop offset="0.82" stop-color="#d7eef4"/></linearGradient><linearGradient id="linear-gradient-4" x1="704.3" y1="-82.76" x2="864.04" y2="-242.61" gradientTransform="matrix(0.8, -0.07, 0.09, 1, 186.78, 399.64)" gradientUnits="userSpaceOnUse"><stop offset="0.4" stop-color="#adcff1"/><stop offset="0.51" stop-color="#b9d9f5"/><stop offset="0.8" stop-color="#d2f0fc"/><stop offset="0.98" stop-color="#dbf8ff"/></linearGradient><linearGradient id="linear-gradient-5" x1="1760.84" y1="219.69" x2="1963.57" y2="16.81" gradientUnits="userSpaceOnUse"><stop offset="0.15" stop-color="#82cdd9"/><stop offset="0.9" stop-color="#d7eef4"/></linearGradient><linearGradient id="linear-gradient-6" x1="1974.65" y1="851.73" x2="2606.86" y2="-100.94" gradientUnits="userSpaceOnUse"><stop offset="0.3" stop-color="#84bbf3"/><stop offset="0.53" stop-color="#8bbdee"/><stop offset="0.98" stop-color="#94c1e7"/></linearGradient><linearGradient id="linear-gradient-7" x1="2110.34" y1="1112.96" x2="2782.75" y2="99.71" gradientUnits="userSpaceOnUse"><stop offset="0.4" stop-color="#7aa0d2"/><stop offset="0.72" stop-color="#81b6da"/><stop offset="0.98" stop-color="#87cbe2"/></linearGradient><linearGradient id="linear-gradient-8" x1="1564.21" y1="727.26" x2="1735.33" y2="426.35" gradientUnits="userSpaceOnUse"><stop offset="0" stop-color="#21607b"/><stop offset="0.12" stop-color="#297f7f"/><stop offset="0.26" stop-color="#2f9983"/><stop offset="0.39" stop-color="#34ab86"/><stop offset="0.54" stop-color="#37b687"/><stop offset="0.69" stop-color="#38ba88"/></linearGradient><linearGradient id="linear-gradient-9" x1="1339.47" y1="677.79" x2="1327.03" y2="40.63" gradientUnits="userSpaceOnUse"><stop offset="0.13" stop-color="#915e54"/><stop offset="0.16" stop-color="#8e6055"/><stop offset="0.49" stop-color="#747360"/><stop offset="0.69" stop-color="#6a7a64"/></linearGradient><linearGradient id="linear-gradient-10" x1="1806.66" y1="65.95" x2="1571.56" y2="388.81" gradientUnits="userSpaceOnUse"><stop offset="0.29" stop-color="#40bc72"/><stop offset="0.56" stop-color="#57b67a"/></linearGradient><linearGradient id="linear-gradient-11" x1="1576.07" y1="246.94" x2="1773.3" y2="246.94" gradientUnits="userSpaceOnUse"><stop offset="0" stop-color="#56af72"/><stop offset="0.19" stop-color="#56b377"/><stop offset="0.34" stop-color="#56b97b"/><stop offset="0.46" stop-color="#57c281"/><stop offset="0.55" stop-color="#57bc7b"/><stop offset="0.62" stop-color="#56b272"/><stop offset="0.86" stop-color="#56b377"/><stop offset="0.93" stop-color="#57b579"/><stop offset="0.95" stop-color="#5abc7f"/><stop offset="0.97" stop-color="#61c78a"/><stop offset="0.98" stop-color="#69d89a"/><stop offset="1" stop-color="#74eeae"/><stop offset="1" stop-color="#78f5b5"/><stop offset="1" stop-color="#49c183"/><stop offset="1" stop-color="#4ebd80"/><stop offset="1" stop-color="#55b77b"/><stop offset="1" stop-color="#57b67a"/></linearGradient><linearGradient id="linear-gradient-12" x1="1679.91" y1="-84.43" x2="823.91" y2="621.45" gradientUnits="userSpaceOnUse"><stop offset="0.24" stop-color="#5ccfa3"/><stop offset="0.25" stop-color="#5acea0"/><stop offset="0.35" stop-color="#4dc48c"/><stop offset="0.45" stop-color="#45be80"/><stop offset="0.54" stop-color="#42bc7c"/><stop offset="0.59" stop-color="#44bf7d"/><stop offset="0.62" stop-color="#4bca80"/><stop offset="0.66" stop-color="#56dc85"/><stop offset="0.66" stop-color="#58e086"/></linearGradient><linearGradient id="linear-gradient-13" x1="1021.82" y1="310.31" x2="1188.29" y2="152.65" gradientUnits="userSpaceOnUse"><stop offset="0.13" stop-color="#38a17a"/><stop offset="0.65" stop-color="#56cf8b"/><stop offset="0.96" stop-color="#65e593"/></linearGradient><linearGradient id="linear-gradient-14" x1="1017.37" y1="314.6" x2="1185.43" y2="155.43" gradientUnits="userSpaceOnUse"><stop offset="0.27" stop-color="#2da870"/><stop offset="0.51" stop-color="#30ab76"/><stop offset="0.84" stop-color="#39b488"/><stop offset="0.88" stop-color="#3bb68b"/></linearGradient><linearGradient id="linear-gradient-15" x1="977.78" y1="225.87" x2="1208.26" y2="225.87" gradientUnits="userSpaceOnUse"><stop offset="0.27" stop-color="#53c575"/><stop offset="0.53" stop-color="#56cb7a"/><stop offset="0.88" stop-color="#5fdd87"/></linearGradient><linearGradient id="linear-gradient-16" x1="1115.27" y1="184.55" x2="1112.24" y2="29.41" gradientUnits="userSpaceOnUse"><stop offset="0.27" stop-color="#64c191"/><stop offset="0.45" stop-color="#5ebf90"/><stop offset="0.7" stop-color="#4cbb8d"/><stop offset="0.88" stop-color="#3bb68b"/></linearGradient><linearGradient id="linear-gradient-17" x1="1060.07" y1="120.76" x2="1167.99" y2="120.76" gradientUnits="userSpaceOnUse"><stop offset="0.27" stop-color="#34af7e"/><stop offset="0.72" stop-color="#31ac78"/><stop offset="0.88" stop-color="#2faa74"/></linearGradient><linearGradient id="linear-gradient-18" x1="1334.59" y1="414.54" x2="1493.2" y2="2.42" xlink:href="#linear-gradient-13"/><linearGradient id="linear-gradient-19" x1="93.55" y1="596.2" x2="79.19" y2="-139.05" gradientUnits="userSpaceOnUse"><stop offset="0.21" stop-color="#885b51"/><stop offset="0.28" stop-color="#7d4f48"/><stop offset="0.38" stop-color="#754641"/><stop offset="0.53" stop-color="#72433f"/></linearGradient><linearGradient id="linear-gradient-20" x1="-25.41" y1="548.84" x2="254.69" y2="-140.43" gradientUnits="userSpaceOnUse"><stop offset="0.48" stop-color="#2b8977"/><stop offset="0.86" stop-color="#9bce87"/><stop offset="1" stop-color="#c7e98e"/></linearGradient><linearGradient id="linear-gradient-21" x1="720.46" y1="-74.14" x2="435.92" y2="316.6" gradientUnits="userSpaceOnUse"><stop offset="0.34" stop-color="#caee9d"/><stop offset="0.45" stop-color="#b3e193"/><stop offset="0.67" stop-color="#78c078"/><stop offset="0.83" stop-color="#4ca765"/></linearGradient><linearGradient id="linear-gradient-22" x1="-302.24" y1="259.49" x2="-96.79" y2="64.91" gradientUnits="userSpaceOnUse"><stop offset="0" stop-color="#12664f"/><stop offset="0.61" stop-color="#55a965"/><stop offset="1" stop-color="#7acf71"/></linearGradient><linearGradient id="linear-gradient-23" x1="-181.28" y1="140.71" x2="-187.01" y2="-152.6" gradientUnits="userSpaceOnUse"><stop offset="0" stop-color="#70e57e"/><stop offset="0.03" stop-color="#69e07c"/><stop offset="0.18" stop-color="#4ccb74"/><stop offset="0.32" stop-color="#36bb6f"/><stop offset="0.46" stop-color="#29b26b"/><stop offset="0.6" stop-color="#25af6a"/></linearGradient><linearGradient id="linear-gradient-24" x1="94.24" y1="457.39" x2="293.95" y2="-320.96" gradientUnits="userSpaceOnUse"><stop offset="0.16" stop-color="#0f5c49"/><stop offset="0.27" stop-color="#197854"/><stop offset="0.45" stop-color="#2caf6a"/><stop offset="0.47" stop-color="#44b96c"/><stop offset="0.51" stop-color="#6ac96f"/><stop offset="0.55" stop-color="#8ad672"/><stop offset="0.6" stop-color="#a3e074"/><stop offset="0.64" stop-color="#b4e776"/><stop offset="0.69" stop-color="#bfec77"/><stop offset="0.75" stop-color="#c2ed77"/></linearGradient><linearGradient id="linear-gradient-25" x1="1137.42" y1="842.29" x2="2794.45" y2="842.29" gradientUnits="userSpaceOnUse"><stop offset="0.08" stop-color="#d6bb68"/><stop offset="0.2" stop-color="#d6bb68"/><stop offset="0.94" stop-color="#d6bb68"/></linearGradient><linearGradient id="linear-gradient-26" x1="660" y1="396.56" x2="946.31" y2="396.56" gradientUnits="userSpaceOnUse"><stop offset="0.18" stop-color="#72cde3"/><stop offset="0.7" stop-color="#76cfe9"/></linearGradient><linearGradient id="linear-gradient-27" x1="766.17" y1="513.36" x2="878.45" y2="237.05" gradientUnits="userSpaceOnUse"><stop offset="0.19" stop-color="#3b97bd"/><stop offset="0.21" stop-color="#3c9abf"/><stop offset="0.41" stop-color="#4cbee0"/><stop offset="0.58" stop-color="#56d5f5"/><stop offset="0.68" stop-color="#5addfc"/></linearGradient><linearGradient id="linear-gradient-28" x1="896.45" y1="459.11" x2="990.69" y2="459.11" gradientUnits="userSpaceOnUse"><stop offset="0.22" stop-color="#75cde9"/><stop offset="0.73" stop-color="#6dcdec"/></linearGradient><linearGradient id="linear-gradient-29" x1="988.25" y1="399.99" x2="879.66" y2="549.11" gradientUnits="userSpaceOnUse"><stop offset="0.3" stop-color="#3ea7d4"/><stop offset="0.67" stop-color="#2699be"/></linearGradient><linearGradient id="linear-gradient-30" x1="604.8" y1="450.27" x2="716.29" y2="450.27" gradientUnits="userSpaceOnUse"><stop offset="0.27" stop-color="#64a7cf"/><stop offset="0.52" stop-color="#61a9d0"/><stop offset="0.68" stop-color="#59b0d3"/><stop offset="0.82" stop-color="#4abcd8"/><stop offset="0.83" stop-color="#48bed9"/></linearGradient><linearGradient id="linear-gradient-31" x1="625.28" y1="492.39" x2="703.46" y2="418.34" gradientUnits="userSpaceOnUse"><stop offset="0.23" stop-color="#269ad6"/><stop offset="0.47" stop-color="#299bd6"/><stop offset="0.62" stop-color="#319fd8"/><stop offset="0.75" stop-color="#40a5da"/><stop offset="0.87" stop-color="#55afdd"/><stop offset="0.88" stop-color="#58b0dd"/></linearGradient><linearGradient id="linear-gradient-32" x1="645.12" y1="428.96" x2="680.26" y2="393.2" gradientUnits="userSpaceOnUse"><stop offset="0.08" stop-color="#177295"/><stop offset="0.28" stop-color="#268caf"/><stop offset="0.62" stop-color="#3cb5d6"/><stop offset="0.8" stop-color="#45c4e5"/></linearGradient><linearGradient id="linear-gradient-33" x1="663.25" y1="433.46" x2="940.36" y2="433.46" gradientUnits="userSpaceOnUse"><stop offset="0.11" stop-color="#82cff2"/><stop offset="0.2" stop-color="#7cceea"/><stop offset="0.44" stop-color="#6fcbdb"/><stop offset="0.68" stop-color="#72ccdb"/></linearGradient><linearGradient id="linear-gradient-34" x1="776.35" y1="527.21" x2="850.08" y2="353.29" gradientUnits="userSpaceOnUse"><stop offset="0.06" stop-color="#177295"/><stop offset="0.21" stop-color="#268caf"/><stop offset="0.48" stop-color="#3cb5d6"/><stop offset="0.62" stop-color="#45c4e5"/></linearGradient><linearGradient id="linear-gradient-35" x1="2266.42" y1="712.78" x2="2746.43" y2="564.25" gradientTransform="matrix(-1, 0, 0, 1, 4984.4, 0)" gradientUnits="userSpaceOnUse"><stop offset="0.03" stop-color="#219f68"/><stop offset="0.84" stop-color="#3fe28c"/><stop offset="0.94" stop-color="#43ea90"/></linearGradient><linearGradient id="linear-gradient-36" x1="48.76" y1="740.72" x2="376.89" y2="411.12" gradientUnits="userSpaceOnUse"><stop offset="0.09" stop-color="#398c49"/><stop offset="0.31" stop-color="#439f51"/><stop offset="0.6" stop-color="#54bd5f"/></linearGradient><linearGradient id="linear-gradient-37" x1="35.11" y1="709.94" x2="136.03" y2="438.39" gradientUnits="userSpaceOnUse"><stop offset="0.15" stop-color="#108937"/><stop offset="0.29" stop-color="#1c9c45"/><stop offset="0.58" stop-color="#3bcc67"/><stop offset="0.62" stop-color="#3fd26c"/></linearGradient><linearGradient id="linear-gradient-38" x1="1114.28" y1="726.28" x2="983.63" y2="508.72" gradientTransform="matrix(-1, 0, 0, 1, 1892.66, 0)" gradientUnits="userSpaceOnUse"><stop offset="0.16" stop-color="#38a17a"/><stop offset="0.46" stop-color="#4ab97c"/><stop offset="0.76" stop-color="#56ca7d"/><stop offset="0.98" stop-color="#5ad07e"/></linearGradient><linearGradient id="linear-gradient-39" x1="1194.42" y1="852.89" x2="1602.03" y2="442.79" gradientUnits="userSpaceOnUse"><stop offset="0.03" stop-color="#4ed27a"/><stop offset="0.85" stop-color="#52d880"/></linearGradient><linearGradient id="linear-gradient-40" x1="320.5" y1="812.18" x2="3074.88" y2="812.18" gradientUnits="userSpaceOnUse"><stop offset="0" stop-color="#4f5a73"/><stop offset="1" stop-color="#4e5a73"/></linearGradient><linearGradient id="linear-gradient-41" x1="361.14" y1="700.28" x2="413.14" y2="663.79" gradientUnits="userSpaceOnUse"><stop offset="0.15" stop-color="#108937"/><stop offset="0.22" stop-color="#239437"/><stop offset="0.38" stop-color="#53b235"/><stop offset="0.6" stop-color="#a1e133"/><stop offset="0.62" stop-color="#a8e533"/></linearGradient><linearGradient id="linear-gradient-42" x1="2585.27" y1="767.95" x2="2639.35" y2="730.01" xlink:href="#linear-gradient-41"/></defs><g class="cls-2"><rect class="cls-3" x="348.54" y="137.3" width="2696" height="692"/><polygon class="cls-4" points="274.9 810.63 3080.24 810.63 3098.24 1066.08 84.58 1019.69 274.9 810.63"/><path class="cls-5" d="M825.15,184.41s2-13.77,27.27-23.18,46.56-14.49,68.52-3.63,17.29,35.5,12.63,38.4c-9,5.62-28.51,13-80.48,5.79C821.82,197.44,825.15,184.41,825.15,184.41Z" transform="translate(351.54 139.51)"/><path class="cls-6" d="M732.18,163s4.88-26.65,45-40.35,66.23-20.09,89.74,7,13.63,70-2.16,74.63-82.12,5.56-122.77-14C742,190.31,727.38,181.55,732.18,163Z" transform="translate(351.54 139.51)"/><path class="cls-7" d="M1757.43,104.69s4.08-29.34,55.68-49.42,95.05-30.89,139.86-7.72,35.31,75.67,25.8,81.85c-18.45,12-58.2,27.76-164.31,12.36C1750.64,132.49,1757.43,104.69,1757.43,104.69Z" transform="translate(351.54 139.51)"/><path class="cls-8" d="M687,527.65S956.39,459,1161.23,228.38s879.34,177.1,920.47,183.35-262.19,141.16-262.19,141.16Z" transform="translate(351.54 139.51)"/><path class="cls-9" d="M-115.1,370.44s203-49.32,558,84.11,765.55-13.64,765.55-13.64,291.06-107.23,631.15-46S2850.69,701.34,2850.69,701.34L-186.13,643.12Z" transform="translate(351.54 139.51)"/><path class="cls-10" d="M1515.06,613.46s162.48-13.79,347.47-196.09,284-355.4,311.86-438.12S2350.83-128,2470.32-8.5s176.12,323.24,176.12,323.24,59.79,257.36,64.39,358.46L1497.55,648.69Z" transform="translate(351.54 139.51)"/><path class="cls-11" d="M2009.47,683.28s140.93-47,296.17-269.62,251.83-275.74,387.36-241l76.3,529Z" transform="translate(351.54 139.51)"/><path class="cls-12" d="M1327.51,654.84s24-132.25,71.42-138.36,48.24,1.08,48.24,1.08S1485.64,493,1528.09,491s83.11,25.51,83.11,25.51,62.53-2.81,91.26,20c21.65,17.15,23.93,44.61,23.93,44.61s57.11-15.73,97.07,47.34c0,0,74.91-16.27,84.9,26.45L1783.5,671.12h-456Z" transform="translate(351.54 139.51)"/><path class="cls-13" d="M1500.32,644.19c2.68-9.05-9.2-19-21.52-39.31-24.2-39.92-28.92-85-28.37-119.93,0,0-2.11-46.88,11.94-70.32a391.87,391.87,0,0,0,23.9-47.69s49.19,2.42,53.4,0,16.16-14,14.06-43.76l.7-7.17-12.65,3.84s-3.89,26.73-20.09,28.8c-19.32,2.9-41.4-10-38.16-28.8h-14s4.32,54.89-16.92,66.48c-15.84,4.56-25.19-2.65-24.48-34.78l.72-32.13-25.19,0s1.44,34.16,0,36.23-12.6,23.19-24.48-20.29c-10.08-30.64-4.32-15.88-4.32-15.88l-13.68.33s6.12,33.77,26.28,54.89C1400.74,395,1401.1,429,1391,441c-10.8,12-29.16,18.63-43.2-52.59-9.36-47.2-11.88-68.55-11.88-68.55l-19.44-.23s7.92,56.36,6.48,66.3c-1.8,11.18-2.52,45.55-45,31.05-22-3.52-66.21-16.18-84.6-54.24-6.84-32.3-5.4-44.72-5.4-44.72l-15.83-.45s.35,18.67,3.59,23.64a47.58,47.58,0,0,1-28.25-6.74c-16.31-9.79-22.89-26.35-24.66-31.27l-12.7-.56A83.8,83.8,0,0,0,1122.94,327c12.53,16.3,30,25.3,42.73,27.47,2.54.43,12.62,1.9,12.58,2.36,0,.12-.71.12-.71.12s3.24,48.86,54,71.22c45.36,19.47,65.16,29.4,76.68,37.27s19.44,16.15,17.64,43.07a242.09,242.09,0,0,0,3.24,64.39,229.44,229.44,0,0,0,24.84,69.36C1466.62,663.72,1496.64,656.61,1500.32,644.19Z" transform="translate(351.54 139.51)"/><path class="cls-14" d="M1449.75,478A103.43,103.43,0,0,0,1419.19,509c-34.46,54.22-11,125.53-8.35,133.28l91,1.89a325.15,325.15,0,0,1-17.5-31.78C1460.41,562.69,1452.29,514.13,1449.75,478Z" transform="translate(351.54 139.51)"/><path class="cls-15" d="M1344.89,375.36s16.86,71.81,30.08,71.28C1361.3,454,1335.78,434.06,1344.89,375.36Z" transform="translate(351.54 139.51)"/><path class="cls-16" d="M1439.21,564.32a23.51,23.51,0,0,1-5.09.66,9.87,9.87,0,0,1-5-1.06,4.32,4.32,0,0,1-1.79-1.92,6.2,6.2,0,0,1-.47-2.59,15,15,0,0,1,1.31-5,37.28,37.28,0,0,1,5.41-8.81,36.35,36.35,0,0,1,3.55-3.79,24.7,24.7,0,0,1,4.15-3.16,9.42,9.42,0,0,1,5.1-1.55,4.44,4.44,0,0,1,1.39.26c.22.08.45.15.66.25l.6.39a6.84,6.84,0,0,1,1.85,2c1.85,3.11,2.34,6.67,2.56,10.11a67.88,67.88,0,0,1-2.49,20.51l0,.06,0,.06a73.33,73.33,0,0,1-6,9.63,44,44,0,0,1-7.82,8.31,18.06,18.06,0,0,1-5,2.89,8.79,8.79,0,0,1-2.94.52,6.12,6.12,0,0,1-3-.77,10.55,10.55,0,0,1-3.86-4.4,26.64,26.64,0,0,1-2-5.37,60.31,60.31,0,0,1-1.8-11.22,93.13,93.13,0,0,1-.09-11.33l1-22.57-.38,22.59a89.83,89.83,0,0,0,.26,11.25,60.34,60.34,0,0,0,1.92,11,27.28,27.28,0,0,0,2,5.15,9.46,9.46,0,0,0,3.48,4,6,6,0,0,0,5.05.15,17,17,0,0,0,4.71-2.74,43.11,43.11,0,0,0,7.58-8.14,80.7,80.7,0,0,0,5.94-9.49l0,.12a66.93,66.93,0,0,0,2.56-20.16c-.19-3.35-.69-6.82-2.37-9.65a4.72,4.72,0,0,0-3.71-2.51,8.6,8.6,0,0,0-4.62,1.36,24,24,0,0,0-4,3,35,35,0,0,0-3.54,3.66,38.23,38.23,0,0,0-5.46,8.57,14.59,14.59,0,0,0-1.39,4.84,5.56,5.56,0,0,0,.37,2.43,4.07,4.07,0,0,0,1.62,1.84,9.73,9.73,0,0,0,4.89,1.15A23.59,23.59,0,0,0,1439.21,564.32Z" transform="translate(351.54 139.51)"/><path class="cls-17" d="M1597,174s109.72-29.4,158.35,60.12c31.67,69.48,37.33,92-158.35,79.41C1564,202.29,1597,174,1597,174Z" transform="translate(351.54 139.51)"/><path class="cls-18" d="M1592.33,177.83S1705,148.43,1754.94,238c32.52,69.48,38.33,92-162.61,79.4C1558.36,206.12,1592.33,177.83,1592.33,177.83Z" transform="translate(351.54 139.51)"/><path class="cls-19" d="M1114.94,162.27c3.66-28,13.27-70.21,42.18-104.71,75.73-90.39,219.78-51.11,275.51-35.91,118.19,32.23,198.53,109.5,241.95,160.37a29.53,29.53,0,0,1,4,26.61,26.61,26.61,0,0,1-18.57,8.89c-51.21,2.55-261.76,12.86-273.47,10.51-13.34-2.67-258.3-26.73-258.3-26.73Z" transform="translate(351.54 139.51)"/><path class="cls-20" d="M1119.79,299.28c-3.33,0-100.07-7.74-100.07-7.74s-60.05-14.2-25.58-49.05a60,60,0,0,0,21.8-21.13c6.87-11.41,5-17,9.41-27.52,13.88-33.27,60.41-44.6,60.41-44.61h0s63.12-14.68,110.08,14.14c5.24,3.21,7.82,4.95,9.81,7.94,21.72,32.61-45.83,128-45.83,128Z" transform="translate(351.54 139.51)"/><path class="cls-21" d="M1116.39,303c-3.38,0-101.33-7.77-101.33-7.77S954.27,281,989.17,246a60.46,60.46,0,0,0,22.06-21.2c7-11.45,5.1-17.06,9.53-27.61,14-33.38,61.17-44.75,61.17-44.75h0s63.91-14.74,111.46,14.17c5.3,3.23,7.91,5,9.93,8,22,32.72-46.4,128.41-46.4,128.41Z" transform="translate(351.54 139.51)"/><path class="cls-22" d="M1066.16,111.5s9.29-23.66,73.18-11.64c59.23,14.7,13.93,52.11-36.59,44.09S1057.71,119.73,1066.16,111.5Z" transform="translate(351.54 139.51)"/><path class="cls-17" d="M1114.18,219.27s58.86-53.78,120.56-74.87c67.41-31.63,156.64-102.29,264.86-69.6,83.54,30.58,146.19,72.76,183.22,150.8,18,45.34,20.88,100.18-116.77,92.79l-383.52.68S1032.54,306.79,1114.18,219.27Z" transform="translate(351.54 139.51)"/><path class="cls-23" d="M1117.15,220.56s58.39-53,119.59-73.83c66.86-31.2,155.38-100.87,262.72-68.64,82.87,30.16,145,71.76,181.74,148.71,17.89,44.72,20.72,98.79-115.82,91.51L1185,319S1036.17,306.87,1117.15,220.56Z" transform="translate(351.54 139.51)"/><path class="cls-15" d="M1554.43,320.68s1.8,31-10.86,43c-3.77,4.21-6.76,4.09-11.27,4.21,0,0,12.59-4.74,15.72-20.51a168.76,168.76,0,0,0,3.3-27.66h3.11Z" transform="translate(351.54 139.51)"/><path class="cls-15" d="M1428.81,319.42c-.5,5.42-.74,24.29-.54,28,.87,16.1,1.86,34.43,10.94,39.16a11,11,0,0,0,6.81,1l3.44-.45c-4.23,6-8,6.52-9.22,6.58-7.51.4-16.3-10.81-18.44-28.87a126.43,126.43,0,0,1-1.51-26c.35-7.21,1.6-19.41,1.6-19.41h6.92Z" transform="translate(351.54 139.51)"/><path class="cls-24" d="M294.92,648.15c.44-1.19-3.11-3.09-6.15-7.6a28.92,28.92,0,0,1-4.07-10.3c-2.68-10.84-13-24-16.43-28.79-10.85-15.37-16-38.44-24.44-76.7A590.46,590.46,0,0,1,233.13,459c-.62-38.17,4.42-66.94,14.79-83.53a458,458,0,0,0,29.59-56.65s60.93,2.88,66.15,0,20-16.58,17.4-52l.87-8.52-15.66,4.57s-4.82,31.74-24.88,34.2c-23.93,3.44-51.27-11.84-47.26-34.2H256.74s5.35,65.19-21,79c-19.61,5.41-31.2-3.15-30.31-41.32l.89-38.16-31.21.05s1.78,40.57,0,43-15.61,27.55-30.32-24.1c-12.48-36.39-5.35-18.86-5.35-18.86l-16.94.4s7.58,40.1,32.55,65.19c16.49,24.1,16.94,64.43,4.45,78.69-13.37,14.27-36.11,22.14-53.5-62.46-11.59-56.07-14.71-81.42-14.71-81.42l-24.08-.28s9.81,66.94,8,78.75c-2.23,13.28-3.12,54.1-55.73,36.89-27.31-4.19-82-19.23-104.78-64.44-8.47-38.36-6.68-53.12-6.68-53.12l-19.62-.53s.44,22.18,4.46,28.08a61.06,61.06,0,0,1-35-8c-20.19-11.62-28.35-31.29-30.54-37.13l-15.73-.68a98.22,98.22,0,0,0,15.87,28.93c15.51,19.37,37.09,30.05,52.91,32.63,3.16.51,15.64,2.26,15.59,2.8,0,.15-.87.15-.87.15s4,58,66.87,84.6c56.18,23.11,80.7,34.92,95,44.26S81.07,455,78.85,487a275.35,275.35,0,0,0,4,76.48,265.3,265.3,0,0,0,30.76,82.39c48.27,1.66,79.27,1.83,99.16,1.63,39.86-.41,62.55-2.56,74.49.49C287.33,648,294.33,649.75,294.92,648.15Z" transform="translate(351.54 139.51)"/><path class="cls-25" d="M232.29,450.69a125.43,125.43,0,0,0-37.85,36.9c-42.68,64.4-13.64,149.1-10.34,158.3l112.65,2.24a384.55,384.55,0,0,1-21.67-37.74C245.49,551.35,235.44,493.66,232.29,450.69Z" transform="translate(351.54 139.51)"/><path class="cls-26" d="M102.42,328.84s20.88,85.29,37.25,84.67C122.74,422.22,91.13,398.57,102.42,328.84Z" transform="translate(351.54 139.51)"/><path class="cls-27" d="M219.24,553.28a30.37,30.37,0,0,1-6.15.78A13.2,13.2,0,0,1,207,553a5.42,5.42,0,0,1-2.31-2.14,6.09,6.09,0,0,1-.74-3.07,16.28,16.28,0,0,1,1.53-6.07,44.89,44.89,0,0,1,6.69-10.52,38,38,0,0,1,9.41-8.22,13.16,13.16,0,0,1,6.06-2,6.39,6.39,0,0,1,3.24.78,7.76,7.76,0,0,1,2.42,2.24,17,17,0,0,1,2.51,5.85,35.64,35.64,0,0,1,.93,6.23c.5,8.37-.9,16.69-3.09,24.7l0,.07,0,.06a88.15,88.15,0,0,1-7.46,11.42,53.2,53.2,0,0,1-9.55,9.77,23.39,23.39,0,0,1-6,3.42,12,12,0,0,1-3.48.71,7.76,7.76,0,0,1-3.54-.67,11.63,11.63,0,0,1-5-4.93,29.5,29.5,0,0,1-2.64-6.35,66.9,66.9,0,0,1-2.35-13.43,104.35,104.35,0,0,1-.18-13.58l1.16-27.09L194,547.25a102.89,102.89,0,0,0,.35,13.49A66.11,66.11,0,0,0,196.87,574a29.79,29.79,0,0,0,2.6,6.11,10.71,10.71,0,0,0,4.5,4.47,8.18,8.18,0,0,0,6.2-.1,22.29,22.29,0,0,0,5.71-3.27,52.6,52.6,0,0,0,9.3-9.61,93.45,93.45,0,0,0,7.34-11.27l-.05.14c2.2-7.9,3.61-16.13,3.15-24.31a34,34,0,0,0-.87-6,16.14,16.14,0,0,0-2.31-5.49,5.68,5.68,0,0,0-4.8-2.64,12.36,12.36,0,0,0-5.62,1.78,37.78,37.78,0,0,0-9.29,7.92A45.33,45.33,0,0,0,206,541.9a15.58,15.58,0,0,0-1.63,5.84,5.78,5.78,0,0,0,.62,2.9,5.16,5.16,0,0,0,2.13,2.06,12.9,12.9,0,0,0,6,1.21A29.68,29.68,0,0,0,219.24,553.28Z" transform="translate(351.54 139.51)"/><path class="cls-28" d="M-208.22,65.72c4.81-35.25,17.46-88.46,55.51-131.93C-49.9-183.64,147-129,210-111.46,358.07-70.21,473.59,44.68,515.58,96.08l24.48,19.39a2007.42,2007.42,0,0,1-390.72,33.11,2006.63,2006.63,0,0,1-340-33.68Z" transform="translate(351.54 139.51)"/><path class="cls-29" d="M-209.53,70.6c4.8-35.41,17.43-88.87,55.43-132.54C-51.44-179.9,145.15-125,208-107.39,363.3-63.89,463.93,40.39,513.22,101.09l24.45,19.48a1992.12,1992.12,0,0,1-390.16,33.26A1992.59,1992.59,0,0,1-192,120Z" transform="translate(351.54 139.51)"/><path class="cls-28" d="M438.3,92.9S577.84,58,639.7,164.31c40.28,82.52,47.47,109.28-201.4,94.32C396.22,126.5,438.3,92.9,438.3,92.9Z" transform="translate(351.54 139.51)"/><path class="cls-30" d="M435.67,94.21s139.54-34.91,201.4,71.41c40.28,82.53,47.47,109.29-201.4,94.32C393.59,127.81,435.67,94.21,435.67,94.21Z" transform="translate(351.54 139.51)"/><path class="cls-28" d="M-176.5,238.66c-4.09,0-122.71-9.13-122.71-9.13s-73.62-16.73-31.35-57.79a72.4,72.4,0,0,0,26.72-24.9c8.42-13.44,6.17-20,11.54-32.42,17-39.21,74.08-52.56,74.08-52.56h0s77.39-17.3,135,16.65c6.43,3.79,9.59,5.83,12,9.36,26.64,38.42-56.19,150.79-56.19,150.79Z" transform="translate(351.54 139.51)"/><path class="cls-31" d="M-180.59,242.92c-4.18,0-125.49-9.23-125.49-9.23s-75.3-16.92-32.07-58.45a73.79,73.79,0,0,0,27.33-25.19c8.61-13.6,6.31-20.27,11.8-32.79,17.4-39.66,75.76-53.16,75.76-53.16h0s79.15-17.5,138,16.84c6.57,3.83,9.8,5.9,12.3,9.46,27.24,38.87-57.47,152.52-57.47,152.52Z" transform="translate(351.54 139.51)"/><path class="cls-32" d="M-242.8,15.43s11.51-28.11,90.63-13.83C-78.8,19.06-134.9,63.5-197.48,54S-253.26,25.21-242.8,15.43Z" transform="translate(351.54 139.51)"/><path class="cls-28" d="M-175.57,137.19s71.87-61.76,147.21-86C53.94,14.88,162.9-66.25,295.05-28.71c102,35.12,178.51,83.55,223.71,173.16,22,52.07,25.51,115-142.57,106.57l-468.3.77S-275.26,237.7-175.57,137.19Z" transform="translate(351.54 139.51)"/><path class="cls-33" d="M-179.64,146s72.31-63,148.11-87.7C51.28,21.22,160.91-61.54,293.86-23.25,396.49,12.57,473.46,62,519,153.38,541.1,206.49,544.6,270.72,375.5,262.07l-471.17.79S-279.94,248.49-179.64,146Z" transform="translate(351.54 139.51)"/><path class="cls-26" d="M361.93,263.89s2.24,36.77-13.44,51.06c-4.68,5-8.38,4.86-14,5A33.34,33.34,0,0,0,354,295.59a193.16,193.16,0,0,0,4.08-32.86h3.85Z" transform="translate(351.54 139.51)"/><path class="cls-26" d="M206.36,262.39c-.62,6.44-.93,28.86-.68,33.22,1.08,19.11,2.31,40.89,13.55,46.51a14.13,14.13,0,0,0,8.44,1.17l4.26-.53c-5.24,7.13-9.92,7.74-11.43,7.81-9.29.48-20.17-12.83-22.83-34.29a144.53,144.53,0,0,1-1.87-30.84c.43-8.56,2-23.05,2-23.05h8.58Z" transform="translate(351.54 139.51)"/><path class="cls-34" d="M1177.69,857.69s-.94-91,434.13-99.2S2716.7,770.75,2716.7,770.75l77.75,139.89L1137.42,928Z" transform="translate(351.54 139.51)"/><path class="cls-35" d="M851.8,641.82c.17-.46-1.18-1.18-2.33-2.92a11.09,11.09,0,0,1-1.54-3.95c-1-4.16-4.94-9.19-6.24-11-4.11-5.9-6.05-14.75-9.26-29.43a228.75,228.75,0,0,1-4.06-25.23c-.23-14.64,1.68-25.68,5.61-32a176.47,176.47,0,0,0,11.22-21.73s23.1,1.1,25.08,0,7.59-6.36,6.6-19.94l.33-3.27L871.27,494s-1.83,12.18-9.43,13.13c-9.08,1.32-19.44-4.55-17.92-13.13h-6.6s2,25-7.94,30.3c-7.44,2.07-11.83-1.21-11.5-15.85l.34-14.65-11.83,0s.67,15.57,0,16.51-5.92,10.57-11.5-9.24c-4.73-14-2-7.24-2-7.24l-6.42.15s2.87,15.39,12.34,25c6.26,9.25,6.42,24.72,1.69,30.2-5.07,5.47-13.69,8.49-20.28-24-4.4-21.51-5.58-31.24-5.58-31.24l-9.13-.1s3.72,25.68,3,30.21c-.84,5.09-1.18,20.76-21.13,14.15-10.36-1.61-31.1-7.38-39.73-24.72-3.21-14.72-2.53-20.38-2.53-20.38l-7.44-.2s.17,8.5,1.69,10.77a22.94,22.94,0,0,1-13.27-3.07c-7.66-4.46-10.75-12-11.58-14.25l-6-.26a38,38,0,0,0,6,11.1c5.88,7.43,14.07,11.53,20.07,12.52,1.19.19,5.92.86,5.9,1.07,0,.06-.33.06-.33.06s1.53,22.27,25.36,32.46c21.3,8.87,30.6,13.4,36,17s9.13,7.36,8.28,19.63a107.33,107.33,0,0,0,1.52,29.34,102.55,102.55,0,0,0,11.67,31.61c18.3.64,30.06.7,37.59.62,15.12-.15,23.72-1,28.25.19C848.92,641.75,851.58,642.43,851.8,641.82Z" transform="translate(351.54 139.51)"/><path class="cls-36" d="M828.05,566.06a47.8,47.8,0,0,0-14.35,14.16c-16.18,24.71-5.17,57.2-3.92,60.73l42.71.86a145.67,145.67,0,0,1-8.21-14.48C833.06,604.68,829.25,582.55,828.05,566.06Z" transform="translate(351.54 139.51)"/><path class="cls-37" d="M778.81,519.31s7.92,32.72,14.12,32.48C786.51,555.14,774.53,546.06,778.81,519.31Z" transform="translate(351.54 139.51)"/><path class="cls-38" d="M823.1,605.42a11.45,11.45,0,0,1-2.34.3,5,5,0,0,1-2.33-.44,2.11,2.11,0,0,1-.86-.84,2.4,2.4,0,0,1-.26-1.18,6.16,6.16,0,0,1,.59-2.31,16.85,16.85,0,0,1,2.54-4,14.78,14.78,0,0,1,3.59-3.14,5,5,0,0,1,2.3-.74,2.56,2.56,0,0,1,2.1,1.2,9.48,9.48,0,0,1,1.28,4.6,29.74,29.74,0,0,1-1.16,9.43v.05a26.52,26.52,0,0,1-6.47,8.12,9.51,9.51,0,0,1-2.3,1.31,3.41,3.41,0,0,1-2.66,0,4.58,4.58,0,0,1-1.84-1.91,12.78,12.78,0,0,1-1-2.43,33.25,33.25,0,0,1-1-10.32l.44-10.37-.21,10.37a32.87,32.87,0,0,0,1,10.23,12.9,12.9,0,0,0,1,2.36,4.31,4.31,0,0,0,1.71,1.75,3,3,0,0,0,2.39,0,8.87,8.87,0,0,0,2.18-1.27,26.87,26.87,0,0,0,6.32-8l0,0a29.56,29.56,0,0,0,1.21-9.29,9.08,9.08,0,0,0-1.18-4.43,2.21,2.21,0,0,0-1.83-1.08,4.72,4.72,0,0,0-2.16.68,14.31,14.31,0,0,0-3.53,3.06,17.21,17.21,0,0,0-2.55,3.93,6.31,6.31,0,0,0-.63,2.24,2,2,0,0,0,1,1.92,5,5,0,0,0,2.28.48A11.56,11.56,0,0,0,823.1,605.42Z" transform="translate(351.54 139.51)"/><path class="cls-39" d="M660,421c1.84-14.12,6.68-35.42,21.24-52.83,39.34-47,114.67-25.13,138.76-18.11,59.5,17.33,98,58.9,116.94,83.09l9.37,7.76a734.52,734.52,0,0,1-149.5,13.26,735.81,735.81,0,0,1-130.09-13.48Z" transform="translate(351.54 139.51)"/><path class="cls-40" d="M660.53,420.23c1.82-13.59,6.61-34.1,21-50.85,38.92-45.26,113.46-24.2,137.31-17.44,58.87,16.69,97,56.7,115.71,80l9.27,7.47a746.55,746.55,0,0,1-147.93,12.76,746.39,746.39,0,0,1-128.73-13Z" transform="translate(351.54 139.51)"/><path class="cls-41" d="M903.75,428.12s54.48-13.18,78.63,27c15.72,31.14,18.53,41.24-78.63,35.59C887.33,440.81,903.75,428.12,903.75,428.12Z" transform="translate(351.54 139.51)"/><path class="cls-42" d="M905.17,429.29s52.91-13.4,76.36,27.4c15.27,31.66,18,41.93-76.36,36.18C889.21,442.18,905.17,429.29,905.17,429.29Z" transform="translate(351.54 139.51)"/><path class="cls-43" d="M671.9,485.33c-1.64,0-49.26-3.54-49.26-3.54s-29.56-6.47-12.59-22.35a28.6,28.6,0,0,0,10.73-9.64c3.38-5.2,2.48-7.75,4.63-12.54,6.83-15.17,29.74-20.33,29.74-20.33h0s31.07-6.7,54.19,6.44c2.58,1.46,3.85,2.25,4.83,3.62,10.69,14.86-22.56,58.34-22.56,58.34Z" transform="translate(351.54 139.51)"/><path class="cls-44" d="M671.51,486.34c-1.59,0-47.59-3.54-47.59-3.54s-28.55-6.49-12.16-22.42a28.19,28.19,0,0,0,10.37-9.67c3.26-5.21,2.39-7.77,4.47-12.58,6.6-15.21,28.73-20.39,28.73-20.4h0s30-6.71,52.34,6.47c2.49,1.47,3.71,2.26,4.66,3.63,10.33,14.91-21.79,58.51-21.79,58.51Z" transform="translate(351.54 139.51)"/><path class="cls-45" d="M647.74,398.34s4.51-11.1,35.46-5.46c28.71,6.89,6.76,24.44-17.73,20.68S643.65,402.2,647.74,398.34Z" transform="translate(351.54 139.51)"/><path class="cls-46" d="M647.92,399.06s4.36-10.78,34.36-5.3c27.82,6.7,6.55,23.74-17.18,20.09S644,402.81,647.92,399.06Z" transform="translate(351.54 139.51)"/><path class="cls-47" d="M674.45,445.2s27.1-23.78,55.52-33.1c31-14,72.12-45.22,122-30.76,38.46,13.51,67.31,32.16,84.36,66.66,8.31,20,9.62,44.28-53.77,41l-176.59.29S636.86,483.89,674.45,445.2Z" transform="translate(351.54 139.51)"/><path class="cls-48" d="M671.86,448.76s27.42-24.17,56.16-33.64c31.4-14.22,73-46,123.38-31.28,38.91,13.74,68.1,32.7,85.34,67.77,8.4,20.37,9.73,45-54.39,41.7l-178.65.3S633.84,488.1,671.86,448.76Z" transform="translate(351.54 139.51)"/><path class="cls-49" d="M877.21,494.39s.85,14.11-5.1,19.59c-1.77,1.92-3.18,1.86-5.29,1.92a12.75,12.75,0,0,0,7.38-9.35,75.28,75.28,0,0,0,1.55-12.61h1.46Z" transform="translate(351.54 139.51)"/><path class="cls-49" d="M818.22,493.81c-.23,2.48-.35,11.08-.26,12.75.41,7.33.88,15.69,5.14,17.84a5.29,5.29,0,0,0,3.2.45l1.62-.2c-2,2.74-3.76,3-4.34,3-3.52.18-7.65-4.93-8.65-13.16a55.81,55.81,0,0,1-.71-11.83c.16-3.29.75-8.85.75-8.85h3.25Z" transform="translate(351.54 139.51)"/><path class="cls-50" d="M-3.62,733.55S362.84,802,723.51,786.18c0,0,5.28-14-20.25-25.12,0,0,30.63-4,54.12,25.12,0,0-13.27-60.8,0-62.84,0,0,9.19,55.15,29.62,57.19s126.3,31.66,459.92,50,778.89,7.15,913.7,7.15,544.34-2,544.34-2l8.32,101.62H-80.06Z" transform="translate(351.54 139.51)"/><path class="cls-51" d="M2730.5,647.24s55.29-26-38.46-36.55c0,0,31.25-19,0-35.15,0,0-22.84-13.36-62.51-4.92,0,0-49.42-46.17-109.38-10.54,0,0-40.27-14.53-77.54-1.88s-40.26,42.57-40.26,42.57-46.67-29.6-87.75,2.89c0,0-51.11-11.81-64.91,18.28,0,0-54.86-27.79-92.55,15.46,0,0-76.93-2.81-60.1,13.36l28.84,7.73,591.4-6.32Z" transform="translate(351.54 139.51)"/><path class="cls-52" d="M-76.64,535.2s1.1-56.74,51.5-64.06S57,492.1,57,492.1s12.06-28.28,48.21-31.94S169.8,486.7,169.8,486.7s74.57-15.56,80,29.28c0,0,65.74-19.21,77.79,36.61,0,0,47.11-6.41,53.68,32,0,0,87.65-11,74.5,31.11,0,0,69-9.15,46,30.2H-4.33Z" transform="translate(351.54 139.51)"/><path class="cls-53" d="M-272,609.22s118.83-79.74,231.06-45c0,0,51.19-101.79,139.8-24.44,0,0,116.42-6.83,138.93,38.67,0,0,108.33-9.1,139.26,43.23l27,22.75H-283.14Z" transform="translate(351.54 139.51)"/><path class="cls-54" d="M1084.36,643s45.22-24.5-31.46-34.43c0,0,25.56-17.87,0-33.1,0,0-18.68-12.58-51.12-4.64,0,0-30-29.21-89.46-9.93,0,0-46.21-9.93-76.68,2s-25.39,31.57-25.39,31.57-40.38-13.84-66,7.49c0,0-47.58-6.86-53.09,17.22,0,0-54.59-15.27-75.7,14.56,0,0-48.17-5.93-49.15,12.58l4.91,7.29h504.33Z" transform="translate(351.54 139.51)"/><path class="cls-55" d="M1032.47,641.28s-8-68.59,82-95.36c38.69-11.52,55.15,4.74,55.15,4.74s27-21.49,60.77-19,65.28,26.92,65.28,26.92,70.9-14.21,93.41,5.52c0,0,11.26,7.55,4.5,18,0,0,96.79-19.56,106.92,29.37,0,0,57.4-4.91,67.53,29.11,0,0,81.49-17.64,114.49,19.13,0,0,76-1.41,96,18.38L1649,704.2l-554.85-29.64Z" transform="translate(351.54 139.51)"/><path class="cls-56" d="M2279.39,642.61s13.28-7.83,16.87-7.09-3.64-6.91-14.36,1.68C2277.59,640.65,2279.39,642.61,2279.39,642.61Z" transform="translate(351.54 139.51)"/><path class="cls-56" d="M2276.52,642.61s5.58-17.84,11.58-19.67-9.54-4.58-12.66,7.45C2273.29,638.7,2276.52,642.61,2276.52,642.61Z" transform="translate(351.54 139.51)"/><path class="cls-56" d="M2274.7,642.61s-6.44-12.71-19.36-13.2,19.36,13.93,19.36,13.93" transform="translate(351.54 139.51)"/><path class="cls-57" d="M2527.34,643.32s-18.5-10.2-23.5-9.24,5.08-9,20,2.19C2529.84,640.77,2527.34,643.32,2527.34,643.32Z" transform="translate(351.54 139.51)"/><path class="cls-57" d="M2531.34,643.32s-7.78-23.22-16.14-25.61,13.3-6,17.64,9.7C2535.84,638.23,2531.34,643.32,2531.34,643.32Z" transform="translate(351.54 139.51)"/><path class="cls-57" d="M2533.87,643.32s9-16.54,27-17.18-27,18.13-27,18.13" transform="translate(351.54 139.51)"/><path class="cls-58" d="M610.39,649.69s-16.91-10.24-21.49-9.28,4.65-9,18.29,2.2C612.68,647.13,610.39,649.69,610.39,649.69Z" transform="translate(351.54 139.51)"/><path class="cls-58" d="M614.05,649.69s-7.11-23.33-14.76-25.72,12.16-6,16.13,9.74C618.16,644.58,614.05,649.69,614.05,649.69Z" transform="translate(351.54 139.51)"/><path class="cls-58" d="M616.36,649.69s8.2-16.62,24.66-17.26-24.66,18.22-24.66,18.22" transform="translate(351.54 139.51)"/><path class="cls-56" d="M903.22,649.82s-22.9.1-34.47-7.75,16.33-4.13,38.71-.36c0,0-2.07-1.85-19.44-10.86s-12.41-16.24,1.29-9.68,27.34,16.71,27.34,16.71-24.9-20.33-25.16-24.31S896,609.44,919,635c0,0-21.22-21.35-16.67-31.78s20.52,29.53,20.52,29.53-14-42.85-4.29-44.71,7.7,42.8,7.7,42.8,9.62-24.73,24.56-24.32-19.34,26.59-22.54,27c0,0,1.34,1.76,6.2.83s18.61-14.1,26.41-14.61c8-.52,19.34,8.88-26,29.63Z" transform="translate(351.54 139.51)"/><path class="cls-56" d="M1891.09,661.45s-22.89.11-34.47-7.74,16.33-4.13,38.71-.36c0,0-2.07-1.85-19.43-10.87s-12.41-16.23,1.29-9.68,27.33,16.72,27.33,16.72-24.9-20.34-25.16-24.31,4.5-4.13,27.52,21.4c0,0-21.21-21.35-16.66-31.78s20.52,29.54,20.52,29.54-14-42.86-4.29-44.72,7.7,42.81,7.7,42.81,9.61-24.73,24.55-24.32-19.33,26.59-22.54,27c0,0,1.35,1.75,6.21.82s18.6-14.1,26.41-14.6c8-.52,19.33,8.88-26,29.63Z" transform="translate(351.54 139.51)"/><rect class="cls-59" x="320.5" y="783.68" width="2754.38" height="57"/><path class="cls-60" d="M1863.45,880.7s28.3-15.78,34-18.57c7-3.42-5-9.77-26,2.34C1871.45,864.47,1858.45,873.37,1863.45,880.7Z" transform="translate(351.54 139.51)"/><path class="cls-60" d="M1853.45,881.68s-11.15-18.22-36.34-14.31C1800.45,870,1853.45,881.68,1853.45,881.68Z" transform="translate(351.54 139.51)"/><path class="cls-60" d="M1853,881.68s5.35-16.32-19.09-33.79S1853,881.68,1853,881.68Z" transform="translate(351.54 139.51)"/><path class="cls-60" d="M1858.78,881.68s11.66-35.83,25.67-45c12-7.81-12-11.72-27,7.82S1858.78,881.68,1858.78,881.68Z" transform="translate(351.54 139.51)"/><path class="cls-60" d="M896.34,892.15s23.49-18.06,12.48-34.43C908.82,857.72,899.26,885.05,896.34,892.15Z" transform="translate(351.54 139.51)"/><path class="cls-60" d="M891.38,891.52s28.34-48-30-80.67C861.4,810.85,890,847.15,891.38,891.52Z" transform="translate(351.54 139.51)"/><path class="cls-60" d="M888.4,891.14s-6-47.68-42.12-64.56C846.28,826.58,882,870.59,888.4,891.14Z" transform="translate(351.54 139.51)"/><path class="cls-60" d="M786,880s37.11-2.52,31.12-22.52C812.87,843.37,786,880,786,880Z" transform="translate(351.54 139.51)"/><path class="cls-60" d="M778.8,877.07s23.25-20.13,11.56-31.15S778.8,877.07,778.8,877.07Z" transform="translate(351.54 139.51)"/><path class="cls-60" d="M722.07,875.22s24.56-34.24,40.64-41.69-24.49-13.43-38.36,23.92Z" transform="translate(351.54 139.51)"/><path class="cls-60" d="M717.61,874.65s13.68-27.33-23.41-33.6C677.42,838.22,717.61,874.65,717.61,874.65Z" transform="translate(351.54 139.51)"/><path class="cls-60" d="M690.29,863.66s-3.2-22.18-25.85-26.44S690.29,863.66,690.29,863.66Z" transform="translate(351.54 139.51)"/><path class="cls-60" d="M-111.19,833.61s337,8,448,16c0,0-6-21-17-24,0,0,25-3,27,24,0,0,0-40-16-47,0,0,39,6,36,47l182,8s-11-11-18-14c0,0,20-7,31,6,0,0-13-31-21-35,0,0,22.25-2,28.12,30,0,0,19.88-17,25.88-14.5,0,0-22,26.5-18,27.5,0,0,389,13,524,20s461.74,10,607.37,0S2324.81,884,2324.81,884l360.23,18-22.23,41.55-2844-30Z" transform="translate(351.54 139.51)"/><path class="cls-60" d="M144.81,846.61s-1-62-94-44c0,0,42-50,101-10,0,0-1-50-64-76,0,0,57.53-17,102.76,76,0,0-22.76-95-35.76-101,0,0,47.33-2,53.16,98,0,0,7.37-61-17.4-98,0,0,51.37,8,34.8,95,0,0,23.44-80,85.44-72,0,0-65.92,59-67.46,98,0,0,36.46-39,78.46-27,0,0-75.92,35-78.46,69l-44.54,25Z" transform="translate(351.54 139.51)"/><path class="cls-61" d="M371.39,701.18s-14.23.06-21.42-4.82,10.15-2.56,24-.22c0,0-1.29-1.15-12.08-6.75s-7.71-10.09.81-6a120.42,120.42,0,0,1,17,10.39s-15.47-12.63-15.63-15.1,2.79-2.57,17.1,13.29c0,0-13.18-13.26-10.36-19.74s12.75,18.35,12.75,18.35-8.7-26.63-2.66-27.78,4.78,26.59,4.78,26.59,6-15.36,15.26-15.11S389,690.78,387,691c0,0,.84,1.09,3.86.51s11.56-8.76,16.41-9.08,12,5.52-16.19,18.42Z" transform="translate(351.54 139.51)"/><path class="cls-62" d="M2595.93,768.89s-14.8.06-22.28-5,10.55-2.67,25-.23c0,0-1.34-1.2-12.55-7s-8-10.49.83-6.26a124.78,124.78,0,0,1,17.66,10.81s-16.09-13.14-16.25-15.71,2.9-2.67,17.78,13.83c0,0-13.71-13.8-10.77-20.54s13.26,19.09,13.26,19.09-9-27.69-2.77-28.89,5,27.65,5,27.65,6.21-16,15.87-15.71-12.5,17.18-14.57,17.41c0,0,.87,1.14,4,.54s12-9.12,17.07-9.44,12.49,5.74-16.83,19.15Z" transform="translate(351.54 139.51)"/></g></svg>