<svg id="Layer_1" data-name="Layer 1" xmlns="http://www.w3.org/2000/svg" xmlns:xlink="http://www.w3.org/1999/xlink" viewBox="0 0 3378.43 926.1"><defs><style>.cls-1{fill:none;}.cls-2{clip-path:url(#clip-path);}.cls-3{fill:url(#linear-gradient);}.cls-4{fill:url(#linear-gradient-2);}.cls-5{fill:url(#linear-gradient-3);}.cls-6{fill:url(#linear-gradient-4);}.cls-7{fill:url(#linear-gradient-5);}.cls-8{fill:#365368;}.cls-9{fill:#6fafd3;}.cls-10{fill:url(#linear-gradient-6);}.cls-11{fill:url(#linear-gradient-7);}.cls-12{fill:url(#linear-gradient-8);}.cls-13{fill:#793b2f;}.cls-14{fill:#59b97a;}.cls-15{fill:#301712;}.cls-16{fill:url(#linear-gradient-9);}.cls-17{fill:url(#linear-gradient-10);}.cls-18{fill:#83c15d;}.cls-19{fill:url(#linear-gradient-11);}.cls-20{fill:url(#linear-gradient-12);}.cls-21{fill:url(#linear-gradient-13);}.cls-22{fill:url(#linear-gradient-14);}.cls-23{fill:url(#linear-gradient-15);}.cls-24{fill:#c08872;}.cls-25{fill:#cd846b;}.cls-26{fill:#754e33;}.cls-27{fill:#6dc294;}.cls-28{fill:url(#linear-gradient-16);}.cls-29{fill:url(#linear-gradient-17);}.cls-30{fill:url(#linear-gradient-18);}.cls-31{fill:url(#linear-gradient-19);}.cls-32{fill:url(#linear-gradient-20);}.cls-33{fill:url(#linear-gradient-21);}.cls-34{fill:url(#linear-gradient-22);}.cls-35{fill:#50ac4b;}.cls-36{fill:url(#linear-gradient-23);}.cls-37{fill:url(#linear-gradient-24);}.cls-38{fill:url(#linear-gradient-25);}.cls-39{fill:url(#linear-gradient-26);}.cls-40{fill:url(#linear-gradient-27);}.cls-41{fill:#0e5f31;}.cls-42{fill:#0a1b23;}.cls-43,.cls-56{fill:#105989;}.cls-43{opacity:0.06;}.cls-44{fill:#150f10;}.cls-45{fill:#166132;}.cls-46{fill:url(#linear-gradient-28);}.cls-47{fill:#a29691;}.cls-48{fill:url(#linear-gradient-29);}.cls-49{fill:url(#linear-gradient-30);}.cls-50{fill:url(#linear-gradient-31);}.cls-51{fill:url(#linear-gradient-32);}.cls-52{fill:url(#linear-gradient-33);}.cls-53{fill:url(#linear-gradient-34);}.cls-54{fill:url(#linear-gradient-35);}.cls-55{fill:url(#linear-gradient-36);}.cls-56{opacity:0.09;}.cls-57{fill:#8dc972;}.cls-58{fill:#7e7782;}.cls-59{fill:url(#linear-gradient-37);}.cls-60{fill:url(#linear-gradient-38);}.cls-61{fill:url(#linear-gradient-39);}.cls-62{fill:url(#linear-gradient-40);}.cls-63{fill:url(#linear-gradient-41);}.cls-64{fill:url(#linear-gradient-42);}</style><clipPath id="clip-path" transform="translate(425.24 13.32)"><rect class="cls-1" width="2693" height="900"/></clipPath><linearGradient id="linear-gradient" x1="1676.73" y1="860.36" x2="1899.39" y2="-71.06" gradientUnits="userSpaceOnUse"><stop offset="0.42" stop-color="#a1dcef"/><stop offset="0.54" stop-color="#95d5e9"/><stop offset="0.75" stop-color="#76c2d9"/><stop offset="0.81" stop-color="#6cbcd3"/></linearGradient><linearGradient id="linear-gradient-2" x1="760.34" y1="63.51" x2="788.16" y2="805.7" gradientUnits="userSpaceOnUse"><stop offset="0.35" stop-color="#8fb4d1"/><stop offset="0.52" stop-color="#95c0da"/><stop offset="0.81" stop-color="#a2dcf0"/></linearGradient><linearGradient id="linear-gradient-3" x1="1799.4" y1="-262.35" x2="1841.51" y2="861.28" gradientUnits="userSpaceOnUse"><stop offset="0.42" stop-color="#5aa2cb"/><stop offset="0.56" stop-color="#6fb8d6"/><stop offset="0.69" stop-color="#7cc6dd"/><stop offset="0.81" stop-color="#81cbdf"/></linearGradient><linearGradient id="linear-gradient-4" x1="357.3" y1="-31.37" x2="390.4" y2="851.74" gradientUnits="userSpaceOnUse"><stop offset="0.35" stop-color="#8fb4d1"/><stop offset="0.44" stop-color="#98bcd8"/><stop offset="0.62" stop-color="#a3c7e1"/><stop offset="0.81" stop-color="#a7cae4"/></linearGradient><linearGradient id="linear-gradient-5" x1="1103.99" y1="-119.89" x2="2461.55" y2="1069.37" gradientUnits="userSpaceOnUse"><stop offset="0.18" stop-color="#732f30"/><stop offset="0.19" stop-color="#732f30"/><stop offset="0.28" stop-color="#612e30"/><stop offset="0.4" stop-color="#542d30"/><stop offset="0.56" stop-color="#4d2c30"/><stop offset="0.91" stop-color="#4b2c30"/></linearGradient><linearGradient id="linear-gradient-6" x1="826.26" y1="386.51" x2="1397.97" y2="711.78" gradientUnits="userSpaceOnUse"><stop offset="0.18" stop-color="#ad5f4b"/><stop offset="0.26" stop-color="#9d5745"/><stop offset="0.42" stop-color="#82483a"/><stop offset="0.58" stop-color="#6f3e32"/><stop offset="0.75" stop-color="#63382e"/><stop offset="0.91" stop-color="#5f362c"/></linearGradient><linearGradient id="linear-gradient-7" x1="1227.86" y1="382.91" x2="1848.25" y2="735.88" xlink:href="#linear-gradient-6"/><linearGradient id="linear-gradient-8" x1="1550.51" y1="423.01" x2="1996.74" y2="676.89" xlink:href="#linear-gradient-6"/><linearGradient id="linear-gradient-9" x1="2724.88" y1="820.25" x2="620.23" y2="756.95" gradientUnits="userSpaceOnUse"><stop offset="0.24" stop-color="#150f10"/><stop offset="0.32" stop-color="#181112"/><stop offset="0.4" stop-color="#231819"/><stop offset="0.47" stop-color="#352223"/><stop offset="0.49" stop-color="#392526"/><stop offset="0.82" stop-color="#2f1717"/></linearGradient><linearGradient id="linear-gradient-10" x1="692.19" y1="404.58" x2="1071.93" y2="825.17" gradientUnits="userSpaceOnUse"><stop offset="0.09" stop-color="#96422f"/><stop offset="0.41" stop-color="#5e2e23"/><stop offset="0.64" stop-color="#3a211c"/></linearGradient><linearGradient id="linear-gradient-11" x1="629.88" y1="478.96" x2="1010.09" y2="695.28" xlink:href="#linear-gradient-6"/><linearGradient id="linear-gradient-12" x1="1158.48" y1="515.93" x2="1534.91" y2="730.1" gradientUnits="userSpaceOnUse"><stop offset="0.05" stop-color="#ad5f4b"/><stop offset="0.14" stop-color="#9d5745"/><stop offset="0.33" stop-color="#82483a"/><stop offset="0.52" stop-color="#6f3e32"/><stop offset="0.71" stop-color="#63382e"/><stop offset="0.91" stop-color="#5f362c"/></linearGradient><linearGradient id="linear-gradient-13" x1="765.13" y1="469.25" x2="1105.09" y2="825.26" xlink:href="#linear-gradient-6"/><linearGradient id="linear-gradient-14" x1="2717.21" y1="368.65" x2="852.19" y2="312.56" gradientUnits="userSpaceOnUse"><stop offset="0.03" stop-color="#0a8645"/><stop offset="0.35" stop-color="#35a04f"/><stop offset="0.65" stop-color="#56b456"/><stop offset="0.81" stop-color="#63bc59"/></linearGradient><linearGradient id="linear-gradient-15" x1="2594.12" y1="327.36" x2="2589.76" y2="104.04" gradientTransform="matrix(-1, 0, 0, 1, 5202.68, 0)" gradientUnits="userSpaceOnUse"><stop offset="0" stop-color="#8f7d61"/><stop offset="0.41" stop-color="#786b59"/><stop offset="0.76" stop-color="#696054"/></linearGradient><linearGradient id="linear-gradient-16" x1="2583.82" y1="178.29" x2="2707.85" y2="-126.93" gradientTransform="matrix(-1, 0, 0, 1, 5202.68, 0)" gradientUnits="userSpaceOnUse"><stop offset="0.22" stop-color="#60bf8d"/><stop offset="0.31" stop-color="#62c093"/><stop offset="0.49" stop-color="#66c29b"/></linearGradient><linearGradient id="linear-gradient-17" x1="2833.7" y1="51.07" x2="2713.85" y2="215.65" gradientTransform="matrix(-1, 0, 0, 1, 5202.68, 0)" gradientUnits="userSpaceOnUse"><stop offset="0.3" stop-color="#60be85"/><stop offset="0.67" stop-color="#57b379"/></linearGradient><linearGradient id="linear-gradient-18" x1="2423.61" y1="153.65" x2="2510.96" y2="70.92" gradientTransform="matrix(-1, 0, 0, 1, 5202.68, 0)" gradientUnits="userSpaceOnUse"><stop offset="0.23" stop-color="#2dab76"/><stop offset="0.54" stop-color="#2fac79"/><stop offset="0.74" stop-color="#35b181"/><stop offset="0.88" stop-color="#3db88d"/></linearGradient><linearGradient id="linear-gradient-19" x1="2475.24" y1="103.38" x2="2472.87" y2="-17.92" gradientTransform="matrix(-1, 0, 0, 1, 5202.68, 0)" gradientUnits="userSpaceOnUse"><stop offset="0.18" stop-color="#64c08d"/><stop offset="0.6" stop-color="#62c091"/></linearGradient><linearGradient id="linear-gradient-20" x1="2594.89" y1="192.18" x2="2679.21" y2="-6.72" gradientTransform="matrix(-1, 0, 0, 1, 5202.68, 0)" gradientUnits="userSpaceOnUse"><stop offset="0.09" stop-color="#3aa680"/><stop offset="0.33" stop-color="#51b186"/><stop offset="0.68" stop-color="#7ac692"/></linearGradient><linearGradient id="linear-gradient-21" x1="2539.81" y1="761.91" x2="773.09" y2="705.8" gradientUnits="userSpaceOnUse"><stop offset="0.06" stop-color="#193a24"/><stop offset="0.19" stop-color="#193a24"/><stop offset="0.33" stop-color="#265937"/><stop offset="0.45" stop-color="#2f7044"/><stop offset="0.53" stop-color="#327849"/></linearGradient><linearGradient id="linear-gradient-22" x1="702.14" y1="539" x2="702.14" y2="539" gradientUnits="userSpaceOnUse"><stop offset="0.18" stop-color="#4f2015"/><stop offset="0.23" stop-color="#441c13"/><stop offset="0.35" stop-color="#2d140f"/><stop offset="0.43" stop-color="#25110e"/></linearGradient><linearGradient id="linear-gradient-23" x1="1342.92" y1="721.91" x2="1351.42" y2="948.66" gradientUnits="userSpaceOnUse"><stop offset="0.38" stop-color="#108644"/><stop offset="0.39" stop-color="#108644"/><stop offset="0.81" stop-color="#108644"/></linearGradient><linearGradient id="linear-gradient-24" x1="707.22" y1="974.03" x2="677.22" y2="234.9" gradientUnits="userSpaceOnUse"><stop offset="0.18" stop-color="#4f2d26"/><stop offset="0.36" stop-color="#5e372f"/><stop offset="0.53" stop-color="#663c34"/></linearGradient><linearGradient id="linear-gradient-25" x1="412.74" y1="595.53" x2="1013.3" y2="540.01" gradientUnits="userSpaceOnUse"><stop offset="0.18" stop-color="#ad5540"/><stop offset="0.27" stop-color="#914735"/><stop offset="0.36" stop-color="#7a3c2d"/><stop offset="0.42" stop-color="#72382a"/></linearGradient><linearGradient id="linear-gradient-26" x1="427.61" y1="523.4" x2="806.8" y2="855.35" gradientUnits="userSpaceOnUse"><stop offset="0.19" stop-color="#9f3c24"/><stop offset="0.24" stop-color="#933721"/><stop offset="0.35" stop-color="#7c2e1c"/><stop offset="0.43" stop-color="#742b1a"/></linearGradient><linearGradient id="linear-gradient-27" x1="577.61" y1="685.06" x2="1152.61" y2="1188.42" xlink:href="#linear-gradient-22"/><linearGradient id="linear-gradient-28" x1="-100.69" y1="723.32" x2="-109.42" y2="276.05" gradientUnits="userSpaceOnUse"><stop offset="0" stop-color="#441912"/><stop offset="0.77" stop-color="#441a13"/></linearGradient><linearGradient id="linear-gradient-29" x1="-320.95" y1="164.01" x2="219.94" y2="164.01" gradientUnits="userSpaceOnUse"><stop offset="0.24" stop-color="#247748"/><stop offset="0.46" stop-color="#227c43"/><stop offset="0.51" stop-color="#217e40"/></linearGradient><linearGradient id="linear-gradient-30" x1="-124.54" y1="399.97" x2="104.58" y2="-163.85" gradientUnits="userSpaceOnUse"><stop offset="0.21" stop-color="#0e7d59"/><stop offset="0.33" stop-color="#127e54"/><stop offset="0.49" stop-color="#1f8244"/><stop offset="0.5" stop-color="#218342"/></linearGradient><linearGradient id="linear-gradient-31" x1="125.75" y1="299.57" x2="303.78" y2="299.57" gradientUnits="userSpaceOnUse"><stop offset="0.18" stop-color="#237748"/><stop offset="0.68" stop-color="#237a45"/></linearGradient><linearGradient id="linear-gradient-32" x1="305.94" y1="178.38" x2="83.94" y2="483.24" gradientUnits="userSpaceOnUse"><stop offset="0.23" stop-color="#227b46"/><stop offset="0.4" stop-color="#24734d"/><stop offset="0.67" stop-color="#276b55"/></linearGradient><linearGradient id="linear-gradient-33" x1="-389.1" y1="364.4" x2="-234.6" y2="218.08" gradientUnits="userSpaceOnUse"><stop offset="0.24" stop-color="#41b071"/><stop offset="0.64" stop-color="#44b271"/><stop offset="0.88" stop-color="#4cb770"/></linearGradient><linearGradient id="linear-gradient-34" x1="-299.46" y1="273.54" x2="-304.22" y2="29.87" gradientTransform="matrix(1, 0, 0, 1, 0, 0)" xlink:href="#linear-gradient-19"/><linearGradient id="linear-gradient-35" x1="-314.81" y1="243.99" x2="208.69" y2="243.99" gradientUnits="userSpaceOnUse"><stop offset="0.09" stop-color="#267051"/><stop offset="0.7" stop-color="#237847"/></linearGradient><linearGradient id="linear-gradient-36" x1="-102.82" y1="435.08" x2="53.42" y2="66.52" gradientUnits="userSpaceOnUse"><stop offset="0.13" stop-color="#276d54"/><stop offset="0.69" stop-color="#217e40"/></linearGradient><linearGradient id="linear-gradient-37" x1="549.61" y1="499.83" x2="547.77" y2="405.52" gradientUnits="userSpaceOnUse"><stop offset="0.31" stop-color="#31b5b5"/><stop offset="0.34" stop-color="#3ab8ba"/><stop offset="0.49" stop-color="#59c3cc"/><stop offset="0.63" stop-color="#70cbd9"/><stop offset="0.76" stop-color="#7dcfe1"/><stop offset="0.88" stop-color="#82d1e4"/></linearGradient><linearGradient id="linear-gradient-38" x1="201.07" y1="505.84" x2="198.29" y2="363.37" xlink:href="#linear-gradient-37"/><linearGradient id="linear-gradient-39" x1="1018.74" y1="129.67" x2="1078.84" y2="15.22" gradientUnits="userSpaceOnUse"><stop offset="0.07" stop-color="#80cad6"/><stop offset="0.24" stop-color="#98d4de"/><stop offset="0.54" stop-color="#cdeaef"/></linearGradient><linearGradient id="linear-gradient-40" x1="528.89" y1="89.79" x2="590.37" y2="-27.29" gradientUnits="userSpaceOnUse"><stop offset="0.15" stop-color="#94cfd9"/><stop offset="0.28" stop-color="#b1dde5"/><stop offset="0.39" stop-color="#c4e7ed"/><stop offset="0.47" stop-color="#cbeaf0"/></linearGradient><linearGradient id="linear-gradient-41" x1="444.49" y1="89.36" x2="514.86" y2="-44.64" gradientUnits="userSpaceOnUse"><stop offset="0.01" stop-color="#8ad2ea"/><stop offset="0.59" stop-color="#c3e7f3"/><stop offset="0.76" stop-color="#d3edf6"/></linearGradient><linearGradient id="linear-gradient-42" x1="2461.65" y1="546.48" x2="2979.13" y2="66.92" gradientTransform="matrix(-1, 0, 0, 1, 5219.3, 0)" gradientUnits="userSpaceOnUse"><stop offset="0.17" stop-color="#278649"/><stop offset="0.22" stop-color="#2d8d4b"/><stop offset="0.4" stop-color="#3ea450"/><stop offset="0.51" stop-color="#45ac52"/></linearGradient></defs><g class="cls-2"><rect class="cls-3" x="425.24" y="13.32" width="2693" height="899.19"/><path class="cls-4" d="M811.78,248c154.86-7.38,341.68,157.32,341.68,157.32L711,523.29,396.35,498.71S656.92,255.35,811.78,248Z" transform="translate(425.24 13.32)"/><path class="cls-5" d="M820.26,543.1S1081,280.82,1197.12,198.53,1434.6,16,1633.36,152.24c162.62,136.29,216.82,95.15,389.77-67.09l142-79.48L2818.72,4.1V622.82Z" transform="translate(425.24 13.32)"/><path class="cls-6" d="M94.33,213.32c67-51.13,128.86-98.36,195.91-91.7,77.64,7.72,145.07,86,178.62,187.28C519.41,381.12,596.74,465.66,711,523.29q23.44,11.82,46.34,21L0,533.12V302.06A630.36,630.36,0,0,1,94.33,213.32Z" transform="translate(425.24 13.32)"/><path class="cls-7" d="M2705.24,375.76H1941.5s-82.57,11.46-98.62,29.81,0-29.81,0-29.81H1742V357.41L851.28,342.53a131,131,0,0,1,44.37,67.21c7.88,36.8,20,77.19,34.69,120.91C952.41,596.4,984,672.77,1021.79,715.2c98.62,6.88,1672,43.58,1672,43.58Z" transform="translate(425.24 13.32)"/><path class="cls-8" d="M651,676.46l90.86-10.3Q757,724.89,772.16,783.61l-84.67,1.62Z" transform="translate(425.24 13.32)"/><path class="cls-9" d="M0,0A360.18,360.18,0,0,1,103.94,57.1c86.58,68.51,117.23,158.82,127.72,197.06,53.61,97.67,125.52,180.37,222.6,200.7,61.42,12.86,96.54-6.86,174.3-4.86,73.62,1.9,169,22.84,280.14,97.27L0,529.23Z" transform="translate(425.24 13.32)"/><path class="cls-10" d="M851.28,342.53H983.39v53.14l53.14,21.26s-22.78,57.84,47.07,106.36c15.2,7.27,27,9.57,34.69,4.67,18.93-12,8.63-60.15,4.79-78-11.74-54.42-37.64-87.71-27.09-97.2,1.82-1.63,2.09-.21,27.66-1.77,12.66-.77,17.48-1.42,22.12,1.77,6.59,4.51,7.81,13.28,8.3,16.67,3.72,25.51,13.59,50.06,15.5,75.76,1.81,24.22,18.61,56.82,52.21,122,9.7,18.82,23.29,43.91,41,72.88,0,0-7.6-52.61,0-78.69s74.4,133.35,127.54,157.65c38,12.14-358.34,0-358.34,0S906,538.41,896.84,430.6c-6.08-38-6.08-45.09-6.08-45.09Z" transform="translate(425.24 13.32)"/><path class="cls-11" d="M1245,352.8h101.5s-15.88,107.61,69.75,170.49c21.06,9.14,33.6,12.32,40.17,7.44,12.87-9.56,7.39-38.17-1.55-80.73-10.23-48.67-27-95.81-27-95.81h0s13.48-5.38,24.88-5.92a53.5,53.5,0,0,1,22.11,4.68c26.12,11.67,27.64,82.58,27.67,83.81.91,42,17.88,105.61,91.7,198.1-5.94-49.49-5.46-68.48-3.72-80.07,2.14-14.29,1.09-20.63,3.72-21.28,6.79-1.67,18.28,35.54,40.12,74.71a374.72,374.72,0,0,0,52.22,72q49.67,25.53,99.27,51.21c29.17,15.11,50.16,26,50.16,26l-275.35-25.19S1388,684.82,1392.89,566.66C1318.87,512.3,1260.11,445.14,1245,352.8Z" transform="translate(425.24 13.32)"/><path class="cls-12" d="M1588.1,356.93a679,679,0,0,0,118.61,239.32c1.68,72.19,0,134.31,0,134.31L1958.56,744l-6.72-155L1836,401.49l16.79-25.19-112.49-6.71-25.54-2.17Z" transform="translate(425.24 13.32)"/><path class="cls-13" d="M1836,401.49,1951.84,599.6,1958.56,744l404.63,13.44S2333,654.62,2291,618.71s-87.31-20.79-77.23,51.41a435.3,435.3,0,0,1-48.17-292.54l-77.39.11A137,137,0,0,0,2064.75,416a139.24,139.24,0,0,0-8.81,69.47C2014,440.1,1951.84,378,1951.84,378S1899.79,369.59,1836,401.49Z" transform="translate(425.24 13.32)"/><polygon class="cls-14" points="1117.4 382.8 1296.49 398.83 1252.84 414.8 1318.64 421.37 1316 398.83 1117.4 382.8"/><polygon class="cls-15" points="1161.21 697.54 1218.02 711.3 1192.47 730.68 1197.4 796.93 1189.62 778.93 1171.19 778.93 1161.21 697.54"/><path class="cls-16" d="M767.23,717.36c9.79-29.67,101.13-26.76,151.43-24.82,2.68.11,4.48.18,7.09.32,41.85,2.23,57.62,9.51,95.49,11.89,2.35.15-.24,0,19.46.67,40.7,1.47,58.26,2.5,76.23,4.07,3.18.27,5.46.49,6.41.58,53.19,4.81,104.3,8.35,206.5,15.44,185.92,12.88,341.56,23.09,524.79,28.81,50.92,1.6,216.4,1.93,547.36,2.58,65.2.13,130.41,1.32,195.6.48,78.36-1,77.87-3.11,91.26.28,11,2.78,39.84,11.42,73.93,2.61,1.73-.45,3.16-.86,4.11-1.14l-4.11,53.45s-454.36,21.55-551.15,38c-121.62,13.94-521.21,15.21-560.92,10.14q-119.55-4.05-239-8.82-104.19-4.15-208.37-8.88-8.91-27.27-17.83-54.55l-413.3-4.89a167.67,167.67,0,0,1-6-35.81C765.65,740,764.76,724.86,767.23,717.36Z" transform="translate(425.24 13.32)"/><path class="cls-17" d="M692.16,369.48l179.09,16s-42.62,19.83-39.69,18.85,69.18,0,69.18,0A713.9,713.9,0,0,0,922.17,500a725.21,725.21,0,0,0,98.92,205.49H856.66l-5.38-21.26H736c-9.88-44-18.89-91.42-26.31-141.93C700.63,480.82,695.16,423,692.16,369.48Z" transform="translate(425.24 13.32)"/><path class="cls-18" d="M-4,533.24l716.16-3.45,1.28,8.32a381,381,0,0,1-59.72,3.39c-7.43-.17-14.62-.54-21.53-1.09l-49.77,9.11,6.94,5.32-65.62,34.4L661,607.15s-329.71,38-150.26,80.91C661,701.88,677.44,705.21,677.44,705.21l-22.5,11.88-8.55,16.56L595.3,765.34a529.9,529.9,0,0,0,185.49,18.09l417.58,17.83-63.9,35.48,77.68-41.57q5.34,24.78,10.69,49.58L1134.47,839,1.1,898.11Z" transform="translate(425.24 13.32)"/><path class="cls-19" d="M692.16,369.48l37.22,61s13,220.11,40.35,253.78H736S687.44,399.86,692.16,369.48Z" transform="translate(425.24 13.32)"/><polygon class="cls-20" points="1210.12 392.31 1234.92 441.92 1226.65 588.9 1259.73 649.53 1254.21 711.08 1218.02 702.81 1210.12 392.31"/><path class="cls-21" d="M834.48,401.49l58.92,85-6.55,88.19,21.85,44s57.15-8.22,86.55,60.68c5.51,26.09,8.26,26.09,8.26,26.09H856.66l-5.38-25.17Z" transform="translate(425.24 13.32)"/><path class="cls-22" d="M2719,309.36,1409.25,330.83s-171.38-5.52-327.14-1.51c-56.19,1.45-135.29,4.78-230.83,13.21L983.39,352.8H1346.5L1721.11,368l19.18,1.63,108.9,6.5-13.2,25.4s63.74-23.19,115.85-23.51S2693,377,2693,377Z" transform="translate(425.24 13.32)"/><path class="cls-23" d="M2522.49,313.18c-.19-.49,1.34-1.27,2.65-3.14a11.82,11.82,0,0,0,1.75-4.26c1.15-4.48,5.6-9.9,7.07-11.9,4.67-6.36,6.87-15.89,10.52-31.71a236.23,236.23,0,0,0,4.6-27.19c.26-15.78-1.9-27.68-6.37-34.54A186.37,186.37,0,0,1,2530,177s-26.21,1.19-28.46,0-8.61-6.85-7.49-21.49l-.38-3.52,6.75,1.89s2.07,13.12,10.7,14.14c10.3,1.42,22.06-4.9,20.34-14.14h7.48s-2.3,26.95,9,32.65c8.44,2.23,13.42-1.31,13-17.09l-.38-15.78,13.43,0s-.77,16.77,0,17.79,6.71,11.39,13-10c5.37-15.05,2.3-7.8,2.3-7.8l7.29.17s-3.26,16.58-14,26.95c-7.1,10-7.29,26.64-1.92,32.54,5.76,5.9,15.54,9.15,23-25.83,5-23.18,6.33-33.66,6.33-33.66l10.36-.12s-4.22,27.68-3.45,32.56c1,5.49,1.34,22.37,24,15.25,11.75-1.73,35.29-8,45.09-26.64,3.64-15.86,2.87-22,2.87-22l8.44-.22s-.19,9.17-1.91,11.61a27.18,27.18,0,0,0,15.06-3.31,30.44,30.44,0,0,0,13.14-15.35l6.76-.28a40,40,0,0,1-6.83,12c-6.67,8-15.95,12.42-22.76,13.49-1.36.21-6.73.93-6.71,1.16,0,.06.38.06.38.06s-1.73,24-28.78,35c-24.17,9.55-34.72,14.43-40.86,18.3s-10.36,7.93-9.4,21.15a109.66,109.66,0,0,1-1.73,31.62,107.21,107.21,0,0,1-13.24,34.06c-20.77.69-34.11.76-42.66.68-17.16-.17-26.92-1.06-32.06.2C2525.76,313.11,2522.75,313.84,2522.49,313.18Z" transform="translate(425.24 13.32)"/><path class="cls-24" d="M2549.44,231.54a53.17,53.17,0,0,1,16.29,15.26c18.36,26.62,5.87,61.64,4.45,65.45l-48.48.93a156.67,156.67,0,0,0,9.33-15.61A170.58,170.58,0,0,0,2549.44,231.54Z" transform="translate(425.24 13.32)"/><path class="cls-25" d="M2605.32,181.16s-9,35.26-16,35C2596.58,219.77,2610.18,210,2605.32,181.16Z" transform="translate(425.24 13.32)"/><path class="cls-26" d="M2555.06,274a13.93,13.93,0,0,0,2.58.25,6.09,6.09,0,0,0,2.51-.46,2,2,0,0,0,1.27-2,5.7,5.7,0,0,0-.66-2.43,18,18,0,0,0-6.83-7.5,5.77,5.77,0,0,0-2.34-.77,2.34,2.34,0,0,0-2.05.91,6,6,0,0,0-1.05,2.23,13,13,0,0,0-.4,2.5,30,30,0,0,0,1.34,10.16l0-.07a29.26,29.26,0,0,0,7.09,8.57,9.64,9.64,0,0,0,2.38,1.34,3.91,3.91,0,0,0,2.56.16,4.08,4.08,0,0,0,2-1.71,10.75,10.75,0,0,0,1.18-2.49,32.63,32.63,0,0,0,1.31-11.1l-.2-11.33.54,11.32a32.84,32.84,0,0,1-1.14,11.28,11.41,11.41,0,0,1-1.2,2.64,4.63,4.63,0,0,1-2.24,1.94,4.45,4.45,0,0,1-3-.14,9.84,9.84,0,0,1-2.54-1.41,29.09,29.09,0,0,1-7.3-8.74l0,0v0a30.39,30.39,0,0,1-1.31-10.39,13,13,0,0,1,.44-2.62,6.29,6.29,0,0,1,1.18-2.44,6,6,0,0,1,.51-.5,6.18,6.18,0,0,1,.61-.37,3.13,3.13,0,0,1,1.41-.21,6.24,6.24,0,0,1,2.55.87,16.41,16.41,0,0,1,4,3.42,18.26,18.26,0,0,1,2.87,4.39,6,6,0,0,1,.61,2.57,2.25,2.25,0,0,1-.39,1.28,2.4,2.4,0,0,1-1.05.82,6,6,0,0,1-2.58.4A13.91,13.91,0,0,1,2555.06,274Z" transform="translate(425.24 13.32)"/><path class="cls-27" d="M2740.15,75.23c-2.08-15.21-7.58-38.17-24.1-56.92-44.64-50.67-130.13-27.09-157.48-19.52-67.51,18.68-111.27,63.47-132.7,89.54l-10.63,8.37A877,877,0,0,0,2584.89,111a876.4,876.4,0,0,0,147.64-14.53Z" transform="translate(425.24 13.32)"/><path class="cls-28" d="M2739.55,74.38c-2.06-14.64-7.5-36.74-23.85-54.79C2671.53-29.19,2586.93-6.49,2559.87.79c-66.8,18-110.1,61.11-131.31,86.2L2418,95.05a891.8,891.8,0,0,0,167.88,13.75,891.41,891.41,0,0,0,146.09-14Z" transform="translate(425.24 13.32)"/><path class="cls-27" d="M2463.53,82.89s-61.82-14.2-89.22,29.05c-17.85,33.56-21,44.45,89.22,38.36C2482.17,96.56,2463.53,82.89,2463.53,82.89Z" transform="translate(425.24 13.32)"/><path class="cls-29" d="M2461.93,84.15s-60-14.44-86.66,29.52c-17.34,34.12-20.43,45.19,86.66,39C2480,98,2461.93,84.15,2461.93,84.15Z" transform="translate(425.24 13.32)"/><path class="cls-27" d="M2726.65,144.54c1.86,0,55.9-3.81,55.9-3.81s33.55-7,14.29-24.09a32.17,32.17,0,0,1-12.18-10.38c-3.83-5.61-2.81-8.36-5.25-13.52-7.76-16.35-33.75-21.91-33.75-21.91h0s-35.26-7.22-61.5,6.94c-2.93,1.58-4.37,2.43-5.48,3.9-12.13,16,25.6,62.87,25.6,62.87Z" transform="translate(425.24 13.32)"/><path class="cls-30" d="M2727.1,145.63c1.8,0,54-3.81,54-3.81s32.4-7,13.8-24.17a31.35,31.35,0,0,1-11.76-10.41c-3.71-5.63-2.72-8.38-5.08-13.56-7.49-16.4-32.6-22-32.6-22h0s-34.06-7.24-59.4,7c-2.82,1.58-4.21,2.44-5.29,3.91-11.72,16.07,24.73,63.06,24.73,63.06Z" transform="translate(425.24 13.32)"/><path class="cls-27" d="M2754.06,50.8s-5.11-12-40.24-5.89c-32.57,7.43-7.66,26.34,20.12,22.29S2758.71,55,2754.06,50.8Z" transform="translate(425.24 13.32)"/><path class="cls-31" d="M2753.87,51.58s-5-11.63-39-5.72c-31.57,7.22-7.43,25.59,19.5,21.65S2758.37,55.62,2753.87,51.58Z" transform="translate(425.24 13.32)"/><path class="cls-27" d="M2723.75,101.29s-30.75-25.62-63-35.66c-35.22-15.07-81.85-48.73-138.4-33.16-43.66,14.57-76.4,34.66-95.74,71.84-9.43,21.6-10.92,47.72,61,44.21l200.42.32S2766.42,143,2723.75,101.29Z" transform="translate(425.24 13.32)"/><path class="cls-32" d="M2726.69,105.13s-31.11-26-63.73-36.26c-35.63-15.32-82.8-49.53-140-33.7-44.16,14.81-77.29,35.24-96.86,73-9.53,22-11,48.52,61.73,44.94l202.74.33S2769.85,147.52,2726.69,105.13Z" transform="translate(425.24 13.32)"/><path class="cls-25" d="M2493.65,154.3s-1,15.21,5.79,21.12c2,2.06,3.61,2,6,2.06a14,14,0,0,1-8.38-10.07,77,77,0,0,1-1.76-13.58h-1.66Z" transform="translate(425.24 13.32)"/><path class="cls-25" d="M2560.6,153.68c.27,2.67.4,11.94.29,13.74-.46,7.9-1,16.91-5.83,19.23a6.24,6.24,0,0,1-3.63.48l-1.83-.21c2.25,2.94,4.26,3.19,4.91,3.23,4,.19,8.68-5.31,9.83-14.18a57.08,57.08,0,0,0,.8-12.75c-.18-3.54-.85-9.54-.85-9.54h-3.69Z" transform="translate(425.24 13.32)"/><path class="cls-33" d="M2694.34,748.76l-742.5-6.34-152.53-8.14-92.6-3.72-152.88,1.15-33.76-8.27H1412.52l-22.2-5.26-369.23-13.25H856.66l-5.38-20.71H736l56.81,13.4-25.55,18.87,386.23,2.59,9,4.36s552.74,42.37,709.06,39.93,822.87.1,822.87.1Z" transform="translate(425.24 13.32)"/><path class="cls-34" d="M702.14,539" transform="translate(425.24 13.32)"/><path class="cls-35" d="M-5.12,745.65l409.37-11.22s2.2-28.1,22.07-38.15-16.56,38.15-16.56,38.15,35.1-26.95,44.6-30-31.35,30-31.35,30H645.3l-51.09,31.18,92.63,16.15H0Z" transform="translate(425.24 13.32)"/><path class="cls-36" d="M-5.12,772.43l1228.85,16.23L1133.39,837S1807.58,865.5,1908,860s788-54.06,788-54.06l-3,92.48H0Z" transform="translate(425.24 13.32)"/><path class="cls-37" d="M712.31,538.38q10.4,64.39,20.78,128.78l-73.23,9.3v-69l-6-4.09V542.21Z" transform="translate(425.24 13.32)"/><path class="cls-38" d="M653.85,542.21q3,32.61,6,65.21l-137.25-17.9q13.36-7.46,27.1-14.89,18.21-9.86,36.09-19.12l-4.5-5.72S630.7,535.54,653.85,542.21Z" transform="translate(425.24 13.32)"/><path class="cls-39" d="M659.86,607.42l1.41,96.05c-4.37-.6-11.71-1.56-20.8-2.55-75.68-8.24-105.15,0-150.44-16.7-17.75-6.52-36.9-13.65-37-23.1-.12-9.92,23.45-22.74,108-39Z" transform="translate(425.24 13.32)"/><path class="cls-40" d="M676.36,705.48l-22.51,11.88-8.55,16.56-51.09,31.69,92.63,16.15Q681.59,743.62,676.36,705.48Z" transform="translate(425.24 13.32)"/><path class="cls-41" d="M-2.14,820.2H271s-18.29-32.4,0-48,8,48,8,48,2.28-39.6,21.71-39.6S287,820.2,287,820.2H396.35S337.27,797.49,354.41,792,407,820.2,407,820.2s-80-78.15-57.14-74.48,66.28,74.48,66.28,74.48-27-56.4-19.77-64.8,27.77,64.8,27.77,64.8-10.28-68.81,9.14-74.61,0,74.61,0,74.61,41.14-65.08,66.29-59.54-57.14,59.54-57.14,59.54S513.26,783.09,527,792s-62.85,28.16-62.85,28.16L843.53,813s-68.36-47.51-50.75-53.76,58.5,56.16,58.5,56.16-28.12-47.8-16.8-70.1,22.18,68.9,22.18,68.9l42.86,6c-7-13.89-4.64-27.09,2.48-31.5,3.85-2.38,10.25-2.94,13.12.14,7.28,7.8-6.42,31.36-6.42,31.36,3.67-12.6,12.46-19.43,19.06-18.14a10.35,10.35,0,0,1,7.86,7.88c1,6-5.31,13.87-16.62,16.26l45.66,20.4S931.52,803,951,794.19s21.71,52.41,21.71,52.41-4.57-42.91,18.29-59.86-10.29,59.86-10.29,59.86l15.09,2.12,453.46,18.19S1381.79,827.4,1411.5,825s45.71,41.91,45.71,41.91h24s-60.57-65.91-34.29-55.11,42.29,55.11,42.29,55.11-21.72-47.21,13.71-62.56-21.71,37.28,0,62.56c14.86-27.51,32-28.71,32-28.71l-19.43,28.71h52.57L1656,864.3s-58.18-60.2-34.18-59.95,43.43,61.45,43.43,61.45,3.43-51.6,44.57-43.2-36.57,44.31-36.57,44.31c219.31-6.8,345.3-13.82,420.67-19.12,14.15-1,65.29-4.66,137-9.4,75.25-5,136.27-8.69,174.85-11,0,0-73-34.8-42.23-43.2s54.8,43.2,54.8,43.2-41.14-52.8-16-45.6,24,40.8,24,40.8c.81-29,3.32-70.91,11.52-89.83,1.49-3.43,5.27-12.15,8.45-11.59,2.32.4,3.4,5.6,3.89,8.86l-9,92.56s8.63-59.11,30.6-54.76-20.32,53.56-20.32,53.56l132.25-8.11a287.8,287.8,0,0,0,60-4.09c22.59-4,42.59-10.49,49.05-2,2.47,3.27,2.16,7.71,1.57,10.81l-1.35,89.2H0Z" transform="translate(425.24 13.32)"/><path class="cls-42" d="M2660.71,912.78s-138.63.29-143.65-44.38,115.35-5.73,164.69,24C2530.7,751.18,2610,833.64,2566,783.43s-9.46-94,66.67-21.1c63.12,74.28,81.7,96,81.7,96s-53.74-111.49-77.06-172.15,18.06-120.12,70-18.06c3.2-38.64,3.45-42.44,3.45-42.44s-3.54,57.8-1-9.25,52.83-44.07,40.28,57.21c22.64-43.1-8,7.4,25.66-39s85.47-24,46.57,68.9-26.73,66.36-26.73,66.36L2767.54,829l84.81-77.81c59-46,90.49-20.53,27.23,57.17-41.83,43-77.67,76.92-77.67,76.92s38.79-13.71,101.42-39.44,70.75,39.92-1.54,62.4C2814.3,908.85,2660.71,912.78,2660.71,912.78Z" transform="translate(425.24 13.32)"/><path class="cls-43" d="M2755.93,882.85l140.56-134S2777.32,874.1,2755.93,882.85Z" transform="translate(425.24 13.32)"/><path class="cls-43" d="M2738.92,819.07l70-185.62S2759.55,792.81,2738.92,819.07Z" transform="translate(425.24 13.32)"/><path class="cls-43" d="M2724.53,599.6s1.25,213.84,6.88,242.61C2737.66,829.7,2730.16,602.1,2724.53,599.6Z" transform="translate(425.24 13.32)"/><path class="cls-43" d="M2724.53,829.7s-72.53-181-74.4-188.34S2728.91,800.94,2724.53,829.7Z" transform="translate(425.24 13.32)"/><path class="cls-43" d="M2773.93,903.48s129.07-30.63,148.32-41.26S2868.93,894.64,2773.93,903.48Z" transform="translate(425.24 13.32)"/><path class="cls-43" d="M2571.34,752.79S2692,886,2707.33,896.61C2707.33,896.61,2583.85,752.17,2571.34,752.79Z" transform="translate(425.24 13.32)"/><path class="cls-43" d="M2676.39,903.48s-140.69-25-143.82-28.13S2661.36,894.94,2676.39,903.48Z" transform="translate(425.24 13.32)"/><path class="cls-43" d="M2761.49,759.22l41.2-27.06S2766.48,746,2761.49,759.22Z" transform="translate(425.24 13.32)"/><path class="cls-43" d="M2772.63,729.72s-9.82-46.33-11.14-51.34S2775.39,709.89,2772.63,729.72Z" transform="translate(425.24 13.32)"/><path class="cls-43" d="M2787.27,700s38.69-24.78,38.94-30.41S2792.46,695.43,2787.27,700Z" transform="translate(425.24 13.32)"/><path class="cls-43" d="M2787.27,684.5l-8.34-38S2791.27,667.49,2787.27,684.5Z" transform="translate(425.24 13.32)"/><path class="cls-43" d="M2782.09,857.91s15.6-48.22,20.6-53.22S2785.93,849.82,2782.09,857.91Z" transform="translate(425.24 13.32)"/><path class="cls-43" d="M2809,837.43l50-18.36S2831.6,821,2809,837.43Z" transform="translate(425.24 13.32)"/><path class="cls-43" d="M2849.65,793.51s1.82-32.59,6.19-37.59S2854.11,789.26,2849.65,793.51Z" transform="translate(425.24 13.32)"/><path class="cls-43" d="M2867.88,778.5l32.36-12S2889.91,776.7,2867.88,778.5Z" transform="translate(425.24 13.32)"/><path class="cls-43" d="M2847.36,885.15s32.87-24.67,42.87-27.24S2868.47,875.2,2847.36,885.15Z" transform="translate(425.24 13.32)"/><path class="cls-43" d="M2863.25,885.15s51.63,3.54,59,0S2871.35,882.69,2863.25,885.15Z" transform="translate(425.24 13.32)"/><path class="cls-43" d="M2819.28,896.61l50.47,6.87S2836.27,893.43,2819.28,896.61Z" transform="translate(425.24 13.32)"/><path class="cls-43" d="M2732.79,729.72c-.07-2.58,15.5-29.68,15.5-29.68s-9.57,3.33-15.57,27.1" transform="translate(425.24 13.32)"/><path class="cls-43" d="M2724.71,703.82s-12.06-27-12.68-25.9S2723.29,683.6,2724.71,703.82Z" transform="translate(425.24 13.32)"/><path class="cls-43" d="M2730.6,669l9.91-38.36S2729.56,644,2730.6,669Z" transform="translate(425.24 13.32)"/><path class="cls-43" d="M2699.69,748.86s-.45-55.54,0-58S2691.73,719.91,2699.69,748.86Z" transform="translate(425.24 13.32)"/><path class="cls-43" d="M2674.27,690.72s-6-30.15-4.14-40.94S2675.55,681.06,2674.27,690.72Z" transform="translate(425.24 13.32)"/><path class="cls-43" d="M2680.68,719.79,2650.09,700S2666.47,702.21,2680.68,719.79Z" transform="translate(425.24 13.32)"/><path class="cls-43" d="M2706,783.45l-29.65-12S2695.11,772.61,2706,783.45Z" transform="translate(425.24 13.32)"/><path class="cls-43" d="M2604.45,781.74s-16.85-29-18.1-36.19S2601.92,761.28,2604.45,781.74Z" transform="translate(425.24 13.32)"/><path class="cls-43" d="M2625.12,811.56l-38.84-12.5A75.88,75.88,0,0,1,2625.12,811.56Z" transform="translate(425.24 13.32)"/><path class="cls-43" d="M2644.24,824.7c.08.09-9.75-23.76-7.87-35.64s4.52,24.58,8,35.73" transform="translate(425.24 13.32)"/><path class="cls-43" d="M2669.77,853.4s-7.14-28.26-6.51-37.55S2673.79,842.71,2669.77,853.4Z" transform="translate(425.24 13.32)"/><path class="cls-43" d="M2592.6,860.54l40.09,31.36S2616.36,888.25,2592.6,860.54Z" transform="translate(425.24 13.32)"/><path class="cls-43" d="M2574.37,880.9s-28-16.67-32.42-23S2569.9,872.07,2574.37,880.9Z" transform="translate(425.24 13.32)"/><path class="cls-43" d="M2609.31,891.27s-37.23,8.73-45.47,8.46S2585.94,890.64,2609.31,891.27Z" transform="translate(425.24 13.32)"/><polygon class="cls-44" points="1648.97 801.98 1663.4 854.61 1558.63 850.33 1648.97 801.98"/><path class="cls-45" d="M2476.15,701" transform="translate(425.24 13.32)"/><path class="cls-46" d="M41.39,695.51c.32-1-2.22-2.57-4.4-6.32a26.6,26.6,0,0,1-2.92-8.57c-1.91-9-9.33-19.9-11.77-23.93-7.77-12.78-11.43-32-17.51-63.77-2.63-13.8-5.62-32.34-7.66-54.67C-3.31,506.52.3,482.6,7.73,468.8a406.1,406.1,0,0,0,21.19-47.1s43.64,2.4,47.38,0,14.34-13.78,12.47-43.21l.63-7.08-11.23,3.8s-3.45,26.39-17.82,28.43c-17.14,2.87-36.72-9.84-33.85-28.43H14s3.84,54.2-15,65.65c-14,4.49-22.35-2.62-21.71-34.35l.63-31.73-22.35,0s1.28,33.73,0,35.78-11.18,22.9-21.72-20c-8.94-30.26-3.83-15.69-3.83-15.69l-12.14.34s5.43,33.34,23.32,54.2c11.82,20,12.13,53.57,3.19,65.43-9.58,11.86-25.87,18.4-38.32-51.94-8.31-46.62-10.54-67.69-10.54-67.69l-17.25-.23s7,55.65,5.75,65.47c-1.59,11-2.23,45-39.92,30.67-19.56-3.49-58.74-16-75-53.57-6.07-31.9-4.79-44.17-4.79-44.17l-14.05-.44s.32,18.44,3.19,23.34a38.7,38.7,0,0,1-25.07-6.65c-14.46-9.67-20.3-26-21.88-30.88l-11.26-.56a86,86,0,0,0,11.37,24.05c11.11,16.1,26.56,25,37.9,27.13,2.26.43,11.2,1.88,11.16,2.33,0,.12-.62.12-.62.12s2.87,48.26,47.9,70.34c40.24,19.22,57.81,29,68,36.8s17.24,15.95,15.65,42.53a265.24,265.24,0,0,0,2.87,63.59,243.18,243.18,0,0,0,22,68.5c34.58,1.38,56.78,1.52,71,1.35,28.56-.33,44.81-2.13,53.36.41C36,695.35,41,696.84,41.39,695.51Z" transform="translate(425.24 13.32)"/><path class="cls-47" d="M-96.5,430s15,70.92,26.68,70.4C-81.94,507.67-104.58,488-96.5,430Z" transform="translate(425.24 13.32)"/><path class="cls-48" d="M-320.95,217c3.48-30.58,12.62-76.75,40.13-114.47C-206.51.67-64.2,48.08-18.68,63.3c112.4,37.56,185.24,127.63,220.92,180.06l17.7,16.82A1216.35,1216.35,0,0,1-62.49,288.91a1218.25,1218.25,0,0,1-245.77-29.22Z" transform="translate(425.24 13.32)"/><path class="cls-49" d="M-319.95,215.31c3.44-29.44,12.49-73.88,39.71-110.19C-206.71,7-65.89,52.68-20.84,67.33c111.22,36.16,183.3,122.87,218.6,173.34l17.52,16.19A1235.72,1235.72,0,0,1-64.2,284.52a1237.53,1237.53,0,0,1-243.19-28.13Z" transform="translate(425.24 13.32)"/><path class="cls-50" d="M139.54,232.42s102.91-28.56,148.53,58.41c29.71,67.5,35,89.38-148.53,77.14C108.51,259.9,139.54,232.42,139.54,232.42Z" transform="translate(425.24 13.32)"/><path class="cls-51" d="M142.21,234.94s100-29,144.27,59.38c28.85,68.61,34,90.86-144.27,78.42C112.07,262.89,142.21,234.94,142.21,234.94Z" transform="translate(425.24 13.32)"/><path class="cls-27" d="M-298.46,356.38c-3.11,0-93.07-7.65-93.07-7.65s-55.84-14-23.78-48.45A57.36,57.36,0,0,0-395,279.4c6.39-11.27,4.68-16.8,8.76-27.18,12.9-32.87,56.18-44.06,56.18-44.06h0s58.7-14.51,102.37,14c4.87,3.17,7.27,4.89,9.12,7.84,20.2,32.21-42.62,126.42-42.62,126.42Z" transform="translate(425.24 13.32)"/><path class="cls-52" d="M-299.22,358.59c-3,0-89.89-7.68-89.89-7.68s-53.94-14.06-23-48.6a56.54,56.54,0,0,0,19.57-20.94c6.17-11.3,4.52-16.85,8.46-27.26,12.46-33,54.27-44.2,54.27-44.2h0s56.69-14.55,98.88,14c4.7,3.18,7,4.91,8.81,7.87,19.51,32.31-41.17,126.81-41.17,126.81Z" transform="translate(425.24 13.32)"/><path class="cls-27" d="M-344.11,167.88s8.51-24,67-11.83c54.23,14.94,12.76,53-33.49,44.81S-351.84,176.25-344.11,167.88Z" transform="translate(425.24 13.32)"/><path class="cls-53" d="M-343.78,169.45s8.25-23.38,64.92-11.5c52.55,14.51,12.37,51.46-32.46,43.54S-351.27,177.57-343.78,169.45Z" transform="translate(425.24 13.32)"/><path class="cls-54" d="M-293.65,269.42s51.2-51.51,104.88-71.72c58.63-30.3,136.26-98,230.4-66.67C114.3,160.32,168.8,200.73,201,275.49c15.69,43.43,18.17,96-101.58,88.89l-333.62.65S-364.67,353.27-293.65,269.42Z" transform="translate(425.24 13.32)"/><path class="cls-55" d="M-298.54,277.15s51.8-52.38,106.1-72.92c59.31-30.81,137.84-99.61,233.07-67.78,73.52,29.78,128.65,70.86,161.23,146.86,15.88,44.16,18.38,97.56-102.75,90.37l-337.5.66S-370.38,362.39-298.54,277.15Z" transform="translate(425.24 13.32)"/><path class="cls-47" d="M89.4,376s1.59,30.57-9.63,42.45c-3.35,4.16-6,4-10,4.16,0,0,11.17-4.67,13.95-20.25a185,185,0,0,0,2.92-27.32H89.4Z" transform="translate(425.24 13.32)"/><path class="cls-47" d="M-22,374.78c-.44,5.35-.66,24-.48,27.61.77,15.9,1.65,34,9.71,38.67a8.88,8.88,0,0,0,6,1l3.05-.44c-3.75,5.93-7.1,6.43-8.18,6.5-6.66.39-14.46-10.68-16.36-28.52a138.79,138.79,0,0,1-1.34-25.64c.31-7.11,1.42-19.16,1.42-19.16H-22Z" transform="translate(425.24 13.32)"/><path class="cls-42" d="M-18.7,907.26s-138.62.29-143.65-44.39,115.35-5.72,164.7,24c-151-141.22-71.79-58.76-115.73-109s-9.47-94,66.67-21.1c63.11,74.28,81.7,96,81.7,96S-18.76,741.28-42.07,680.62s18.06-120.12,70-18.06c3.2-38.63,3.45-42.44,3.45-42.44s-3.54,57.8-.95-9.25,52.83-44.06,40.28,57.21c22.65-43.1-8,7.4,25.66-39s85.47-24,46.57,68.91S116.2,764.3,116.2,764.3L88.14,823.49,173,745.68c59-46,90.48-20.53,27.22,57.17-41.83,43-77.67,76.93-77.67,76.93s38.79-13.71,101.42-39.44,70.75,39.91-1.54,62.39C134.89,903.33-18.7,907.26-18.7,907.26Z" transform="translate(425.24 13.32)"/><path class="cls-56" d="M76.52,877.32l140.56-134S97.91,868.57,76.52,877.32Z" transform="translate(425.24 13.32)"/><path class="cls-56" d="M59.51,813.55l70-185.63S80.14,787.28,59.51,813.55Z" transform="translate(425.24 13.32)"/><path class="cls-56" d="M45.13,594.07S46.38,807.92,52,836.68C58.26,824.18,50.75,596.57,45.13,594.07Z" transform="translate(425.24 13.32)"/><path class="cls-56" d="M45.13,824.18s-72.54-181-74.41-188.35S49.5,795.41,45.13,824.18Z" transform="translate(425.24 13.32)"/><path class="cls-56" d="M94.52,898s129.08-30.64,148.33-41.27S189.52,889.11,94.52,898Z" transform="translate(425.24 13.32)"/><path class="cls-56" d="M-108.07,747.27S12.6,880.45,27.92,891.08C27.92,891.08-95.56,746.64-108.07,747.27Z" transform="translate(425.24 13.32)"/><path class="cls-56" d="M-3,898s-140.69-25-143.81-28.14S-18,889.41-3,898Z" transform="translate(425.24 13.32)"/><path class="cls-56" d="M82.09,753.7l41.2-27.07S87.07,740.48,82.09,753.7Z" transform="translate(425.24 13.32)"/><path class="cls-56" d="M93.22,724.19s-9.81-46.33-11.13-51.33S96,704.36,93.22,724.19Z" transform="translate(425.24 13.32)"/><path class="cls-56" d="M107.86,694.52s38.69-24.79,38.94-30.42S113.05,689.9,107.86,694.52Z" transform="translate(425.24 13.32)"/><path class="cls-56" d="M107.86,679l-8.33-38S111.86,662,107.86,679Z" transform="translate(425.24 13.32)"/><path class="cls-56" d="M102.69,852.38s15.59-48.21,20.6-53.22S106.52,844.29,102.69,852.38Z" transform="translate(425.24 13.32)"/><path class="cls-56" d="M129.54,831.91l50-18.36S152.19,815.44,129.54,831.91Z" transform="translate(425.24 13.32)"/><path class="cls-56" d="M170.24,788s1.82-32.58,6.19-37.59S174.7,783.73,170.24,788Z" transform="translate(425.24 13.32)"/><path class="cls-56" d="M188.47,773l32.36-12S210.51,771.17,188.47,773Z" transform="translate(425.24 13.32)"/><path class="cls-56" d="M168,879.62s32.87-24.67,42.88-27.24S189.06,869.67,168,879.62Z" transform="translate(425.24 13.32)"/><path class="cls-56" d="M183.84,879.62s51.64,3.55,59,0S191.94,877.16,183.84,879.62Z" transform="translate(425.24 13.32)"/><path class="cls-56" d="M139.87,891.08,190.34,898S156.86,887.9,139.87,891.08Z" transform="translate(425.24 13.32)"/><path class="cls-56" d="M53.38,724.19c-.07-2.58,15.51-29.67,15.51-29.67s-9.58,3.32-15.58,27.09" transform="translate(425.24 13.32)"/><path class="cls-56" d="M45.3,698.29s-12-27-12.68-25.9S43.88,678.08,45.3,698.29Z" transform="translate(425.24 13.32)"/><path class="cls-56" d="M51.19,663.43l9.91-38.36S50.15,638.45,51.19,663.43Z" transform="translate(425.24 13.32)"/><path class="cls-56" d="M20.29,743.33s-.46-55.54,0-58S12.33,714.39,20.29,743.33Z" transform="translate(425.24 13.32)"/><path class="cls-56" d="M-5.14,685.19s-6-30.15-4.13-40.94S-3.86,675.53-5.14,685.19Z" transform="translate(425.24 13.32)"/><path class="cls-56" d="M1.27,714.26l-30.58-19.74S-12.94,696.68,1.27,714.26Z" transform="translate(425.24 13.32)"/><path class="cls-56" d="M26.63,777.93-3,765.94S15.7,767.09,26.63,777.93Z" transform="translate(425.24 13.32)"/><path class="cls-56" d="M-74.95,776.21s-16.86-29-18.11-36.18S-77.48,755.76-74.95,776.21Z" transform="translate(425.24 13.32)"/><path class="cls-56" d="M-54.28,806l-38.85-12.49A75.84,75.84,0,0,1-54.28,806Z" transform="translate(425.24 13.32)"/><path class="cls-56" d="M-35.17,819.17c.09.1-9.74-23.76-7.87-35.64s4.52,24.58,8,35.74" transform="translate(425.24 13.32)"/><path class="cls-56" d="M-9.64,847.88s-7.14-28.26-6.51-37.55S-5.62,837.19-9.64,847.88Z" transform="translate(425.24 13.32)"/><path class="cls-56" d="M-86.81,855l40.09,31.36S-63,882.73-86.81,855Z" transform="translate(425.24 13.32)"/><path class="cls-56" d="M-105,875.37s-28.05-16.67-32.42-23S-109.51,866.55-105,875.37Z" transform="translate(425.24 13.32)"/><path class="cls-56" d="M-70.1,885.74s-37.23,8.73-45.47,8.47S-93.47,885.12-70.1,885.74Z" transform="translate(425.24 13.32)"/><polygon class="cls-57" points="1117.4 382.8 1303.98 385.74 1316 398.83 1318.64 417.61 1256.8 417.68 1296.49 398.83 1117.4 382.8"/><path class="cls-58" d="M521.2,471.81a15.46,15.46,0,0,0,3.06,8.74c4.8,6.31,12.83,6.11,13.68,6.08l-.26-14,4.94.21v7.75a10.58,10.58,0,0,0,6.3-.78,11,11,0,0,0,5.64-6.55l2.07.06c-.42,1.27-.84,2.54-1.25,3.81a7.85,7.85,0,0,0,5.66.81,8.07,8.07,0,0,0,5.17-4.41h1.54s-1,8.83-13.06,5.89c-2.2,3.09-7.34,6.39-12.08,4.74.27,9.6,1.87,47.21,1.87,47.21h-5.57q-.48-20.62-1-41.24a19.4,19.4,0,0,1-18.66-18.64Z" transform="translate(425.24 13.32)"/><path class="cls-59" d="M514.65,451.85s42.67-16,68.41,0c24.81,17,7.19,21.68-15.31,21.68-22.73-.24-50.55-1.95-50.55-1.95S486.35,466.76,514.65,451.85Z" transform="translate(425.24 13.32)"/><path class="cls-58" d="M158.15,463.51a23.43,23.43,0,0,0,4.63,13.21c7.25,9.53,19.38,9.23,20.67,9.18l-.4-21.14,7.47.31v11.71A16,16,0,0,0,200,475.6a16.6,16.6,0,0,0,8.52-9.9l3.12.09-1.89,5.76a11.87,11.87,0,0,0,8.55,1.22,12.12,12.12,0,0,0,7.82-6.66h2.33S227,479.46,208.74,475c-3.32,4.67-11.08,9.65-18.24,7.16.41,14.51,2.81,71.31,2.81,71.31h-8.4q-.74-31.14-1.46-62.28A29.32,29.32,0,0,1,155.25,463Z" transform="translate(425.24 13.32)"/><path class="cls-60" d="M148.25,433.37s64.46-24.18,103.35,0c37.48,25.61,10.86,32.74-23.12,32.74-34.33-.35-76.37-2.95-76.37-2.95S105.51,455.89,148.25,433.37Z" transform="translate(425.24 13.32)"/><path class="cls-61" d="M987.73,97s40.56-23.13,76.09-8.05c35.53,15.76,14.73,33.86-15.09,33.19,0,0-12.22,2-40.8,0S968.62,108.1,987.73,97Z" transform="translate(425.24 13.32)"/><path class="cls-62" d="M512.27,58.62s18.94-3.83,47.63-8.52,53.38,30.13-2.29,31.66-22.38.75-51.08,0S482.19,64.17,512.27,58.62Z" transform="translate(425.24 13.32)"/><path class="cls-63" d="M400.93,41c9-6.33,30.6-19.57,58.88-18.31,36.56,1.61,72.06,26.89,69.4,40.81C527.17,74.14,502.42,81,488.16,81c-71.16,0-27,1.72-71.16,0-9.93-.39-22.34-3.2-26.31-11.57C387,61.71,391.48,50.22,400.93,41Z" transform="translate(425.24 13.32)"/><path class="cls-64" d="M2700.24,301.07a33,33,0,0,0-12.7-4.26c-16.57-1.92-28.78,10-30.76,11.95a44.74,44.74,0,0,0-77.47-16.05,45.23,45.23,0,0,0-77.67,34c-10.78-17.92-32.54-25.06-49.87-17.91-20.09,8.29-30.34,34.2-19.54,56.29l-64.5,12.25L2698.42,379Z" transform="translate(425.24 13.32)"/></g></svg>