<svg id="Layer_1" data-name="Layer 1" xmlns="http://www.w3.org/2000/svg" xmlns:xlink="http://www.w3.org/1999/xlink" viewBox="0 0 3152.35 908.58"><defs><style>.cls-1{fill:none;}.cls-2{clip-path:url(#clip-path);}.cls-3{fill:url(#linear-gradient);}.cls-4{fill:url(#linear-gradient-2);}.cls-5{fill:url(#linear-gradient-3);}.cls-6{fill:url(#linear-gradient-4);}.cls-7{fill:#93bad8;}.cls-8{fill:url(#linear-gradient-5);}.cls-9{fill:url(#linear-gradient-6);}.cls-10{fill:url(#linear-gradient-7);}.cls-11{fill:url(#linear-gradient-8);}.cls-12{fill:url(#linear-gradient-9);}.cls-13{fill:url(#linear-gradient-10);}.cls-14{fill:#cc6d6a;}.cls-15{fill:url(#linear-gradient-11);}.cls-16{fill:#5ec1b6;}.cls-17{fill:url(#linear-gradient-12);}.cls-18{fill:url(#linear-gradient-13);}.cls-19{fill:url(#linear-gradient-14);}.cls-20{fill:#b98e7c;}.cls-21{fill:#c49483;}.cls-22{fill:#754d32;}.cls-23{fill:#9ce47e;}.cls-24{fill:url(#linear-gradient-15);}.cls-25{fill:#43c196;}.cls-26{fill:url(#linear-gradient-16);}.cls-27{fill:#55c8b4;}.cls-28{fill:url(#linear-gradient-17);}.cls-29{fill:url(#linear-gradient-18);}.cls-30{fill:#72e7aa;}.cls-31{fill:url(#linear-gradient-19);}.cls-32{fill:url(#linear-gradient-20);}.cls-33{fill:url(#linear-gradient-21);}.cls-34{fill:#3ac773;}.cls-35{fill:url(#linear-gradient-22);}.cls-36{fill:url(#linear-gradient-23);}.cls-37{fill:url(#linear-gradient-24);}.cls-38{fill:url(#linear-gradient-25);}.cls-39{fill:#c28a73;}.cls-40{fill:#ce856b;}.cls-41{fill:#3beaa2;}.cls-42{fill:url(#linear-gradient-26);}.cls-43{fill:url(#linear-gradient-27);}.cls-44{fill:url(#linear-gradient-28);}.cls-45{fill:url(#linear-gradient-29);}.cls-46{fill:url(#linear-gradient-30);}.cls-47{fill:url(#linear-gradient-31);}.cls-48{fill:url(#linear-gradient-32);}.cls-49{fill:#01491d;}.cls-50{fill:url(#linear-gradient-33);}.cls-51{fill:url(#linear-gradient-34);}.cls-52{fill:url(#linear-gradient-35);}.cls-53{fill:url(#linear-gradient-36);}.cls-54{fill:#4ebc26;}.cls-55{fill:#00321b;}</style><clipPath id="clip-path" transform="translate(146.56 8.47)"><rect class="cls-1" width="2693" height="900"/></clipPath><linearGradient id="linear-gradient" x1="1136.21" y1="856.59" x2="2425.2" y2="-584.41" gradientUnits="userSpaceOnUse"><stop offset="0.38" stop-color="#89efef"/><stop offset="0.52" stop-color="#95f3f6"/><stop offset="0.6" stop-color="#9ef7fc"/></linearGradient><linearGradient id="linear-gradient-2" x1="640.84" y1="1317.74" x2="2087.54" y2="-52.4" gradientUnits="userSpaceOnUse"><stop offset="0.25" stop-color="#9fbdd3"/><stop offset="0.88" stop-color="#9bbbce"/></linearGradient><linearGradient id="linear-gradient-3" x1="1520.45" y1="785.53" x2="1645.35" y2="547.68" gradientUnits="userSpaceOnUse"><stop offset="0.19" stop-color="#80e885"/><stop offset="0.25" stop-color="#81e986"/><stop offset="0.87" stop-color="#88ed8c"/></linearGradient><linearGradient id="linear-gradient-4" x1="102.29" y1="795.64" x2="3030.72" y2="785.01" gradientUnits="userSpaceOnUse"><stop offset="0.19" stop-color="#24911f"/><stop offset="0.38" stop-color="#4eac3d"/><stop offset="0.57" stop-color="#6ec053"/><stop offset="0.72" stop-color="#81cd61"/><stop offset="0.83" stop-color="#88d166"/></linearGradient><linearGradient id="linear-gradient-5" x1="235.25" y1="921.12" x2="1553.53" y2="-327.4" gradientUnits="userSpaceOnUse"><stop offset="0.25" stop-color="#759ed5"/><stop offset="0.37" stop-color="#76a4d7"/><stop offset="0.54" stop-color="#7bb5dd"/><stop offset="0.73" stop-color="#81d0e7"/><stop offset="0.8" stop-color="#84dceb"/></linearGradient><linearGradient id="linear-gradient-6" x1="1366.04" y1="212.67" x2="1547.53" y2="-132.95" gradientUnits="userSpaceOnUse"><stop offset="0.07" stop-color="#81ccd8"/><stop offset="0.24" stop-color="#99d6e0"/><stop offset="0.54" stop-color="#ceedf1"/></linearGradient><linearGradient id="linear-gradient-7" x1="670.05" y1="113.62" x2="759.68" y2="-57.06" gradientUnits="userSpaceOnUse"><stop offset="0.15" stop-color="#95d1da"/><stop offset="0.27" stop-color="#b1dfe6"/><stop offset="0.39" stop-color="#c4e9ef"/><stop offset="0.47" stop-color="#cbedf2"/></linearGradient><linearGradient id="linear-gradient-8" x1="547.02" y1="112.99" x2="649.6" y2="-82.35" gradientUnits="userSpaceOnUse"><stop offset="0.01" stop-color="#8ad4ec"/><stop offset="0.59" stop-color="#c3e9f5"/><stop offset="0.76" stop-color="#d4eff8"/></linearGradient><linearGradient id="linear-gradient-9" x1="1091.93" y1="481.79" x2="1088.25" y2="293.57" gradientUnits="userSpaceOnUse"><stop offset="0.26" stop-color="#9c5e58"/><stop offset="0.43" stop-color="#a46766"/><stop offset="0.64" stop-color="#aa6d70"/><stop offset="0.91" stop-color="#ac6f73"/></linearGradient><linearGradient id="linear-gradient-10" x1="1090.47" y1="384.7" x2="1106.72" y2="75.28" gradientUnits="userSpaceOnUse"><stop offset="0.3" stop-color="#1a9995"/><stop offset="0.36" stop-color="#24afa9"/><stop offset="0.44" stop-color="#2ec5bd"/><stop offset="0.52" stop-color="#35d4cc"/><stop offset="0.62" stop-color="#3addd4"/><stop offset="0.76" stop-color="#3be0d7"/></linearGradient><linearGradient id="linear-gradient-11" x1="1226.15" y1="507.3" x2="1221.28" y2="257.94" xlink:href="#linear-gradient-10"/><linearGradient id="linear-gradient-12" x1="793" y1="842.13" x2="1342.47" y2="100.71" gradientUnits="userSpaceOnUse"><stop offset="0.16" stop-color="#1c8e60"/><stop offset="0.31" stop-color="#2ea575"/><stop offset="0.48" stop-color="#3db887"/><stop offset="0.6" stop-color="#43bf8d"/></linearGradient><linearGradient id="linear-gradient-13" x1="196.99" y1="749.99" x2="309.66" y2="142.06" gradientUnits="userSpaceOnUse"><stop offset="0.15" stop-color="#1b7f1e"/><stop offset="0.22" stop-color="#249526"/><stop offset="0.33" stop-color="#2fae2f"/><stop offset="0.42" stop-color="#35bd35"/><stop offset="0.5" stop-color="#37c237"/></linearGradient><linearGradient id="linear-gradient-14" x1="185.17" y1="612.06" x2="175.43" y2="113.45" gradientUnits="userSpaceOnUse"><stop offset="0.21" stop-color="#885b51"/><stop offset="0.28" stop-color="#7d4f48"/><stop offset="0.38" stop-color="#754641"/><stop offset="0.53" stop-color="#72433f"/></linearGradient><linearGradient id="linear-gradient-15" x1="165.51" y1="612.51" x2="313.88" y2="-81.48" gradientUnits="userSpaceOnUse"><stop offset="0.44" stop-color="#1da370"/><stop offset="0.5" stop-color="#48b775"/><stop offset="0.56" stop-color="#74cc7b"/><stop offset="0.62" stop-color="#94db7f"/><stop offset="0.67" stop-color="#a8e581"/><stop offset="0.71" stop-color="#afe882"/><stop offset="0.97" stop-color="#bbf47d"/></linearGradient><linearGradient id="linear-gradient-16" x1="630.57" y1="172.81" x2="428.85" y2="449.82" gradientUnits="userSpaceOnUse"><stop offset="0.29" stop-color="#4bdd60"/><stop offset="0.71" stop-color="#25af6a"/></linearGradient><linearGradient id="linear-gradient-17" x1="-108.22" y1="388.87" x2="40.75" y2="247.78" gradientUnits="userSpaceOnUse"><stop offset="0.25" stop-color="#20976a"/><stop offset="0.46" stop-color="#23996a"/><stop offset="0.6" stop-color="#2b9e69"/><stop offset="0.72" stop-color="#3aa668"/><stop offset="0.82" stop-color="#4fb267"/><stop offset="0.88" stop-color="#5ebb66"/></linearGradient><linearGradient id="linear-gradient-18" x1="-19.64" y1="303.74" x2="-23.52" y2="105.18" gradientUnits="userSpaceOnUse"><stop offset="0" stop-color="#70e57e"/><stop offset="0.03" stop-color="#69e07c"/><stop offset="0.18" stop-color="#4ccb74"/><stop offset="0.32" stop-color="#36bb6f"/><stop offset="0.46" stop-color="#29b26b"/><stop offset="0.6" stop-color="#25af6a"/></linearGradient><linearGradient id="linear-gradient-19" x1="218.26" y1="600.48" x2="254.63" y2="54.06" gradientUnits="userSpaceOnUse"><stop offset="0.38" stop-color="#1b8e6a"/><stop offset="0.49" stop-color="#29aa6a"/><stop offset="0.51" stop-color="#2caf6a"/><stop offset="0.54" stop-color="#44b96c"/><stop offset="0.6" stop-color="#6ac96f"/><stop offset="0.67" stop-color="#8ad672"/><stop offset="0.74" stop-color="#a3e074"/><stop offset="0.8" stop-color="#b4e776"/><stop offset="0.88" stop-color="#bfec77"/><stop offset="0.97" stop-color="#c2ed77"/></linearGradient><linearGradient id="linear-gradient-20" x1="2223.16" y1="634.71" x2="2217.33" y2="335.89" gradientUnits="userSpaceOnUse"><stop offset="0.18" stop-color="#c56f62"/><stop offset="0.35" stop-color="#c47165"/><stop offset="0.93" stop-color="#c3746c"/></linearGradient><linearGradient id="linear-gradient-21" x1="2236.24" y1="551.33" x2="2231.37" y2="301.98" gradientUnits="userSpaceOnUse"><stop offset="0.31" stop-color="#32b7b7"/><stop offset="0.31" stop-color="#33b7b8"/><stop offset="0.47" stop-color="#52c7cf"/><stop offset="0.61" stop-color="#69d3e0"/><stop offset="0.76" stop-color="#76daea"/><stop offset="0.88" stop-color="#7bdced"/></linearGradient><linearGradient id="linear-gradient-22" x1="821.04" y1="848.7" x2="855.57" y2="123.41" gradientUnits="userSpaceOnUse"><stop offset="0.23" stop-color="#239166"/><stop offset="0.31" stop-color="#229666"/><stop offset="0.39" stop-color="#20a566"/><stop offset="0.49" stop-color="#1bbd67"/><stop offset="0.55" stop-color="#18d167"/></linearGradient><linearGradient id="linear-gradient-23" x1="2160.82" y1="758.03" x2="2268.09" y2="179.18" gradientUnits="userSpaceOnUse"><stop offset="0.18" stop-color="#44ad67"/><stop offset="0.23" stop-color="#4cb76f"/><stop offset="0.39" stop-color="#5dcf83"/><stop offset="0.53" stop-color="#68dd8f"/><stop offset="0.65" stop-color="#6ce293"/></linearGradient><linearGradient id="linear-gradient-24" x1="191.52" y1="764.45" x2="303.37" y2="255.96" gradientUnits="userSpaceOnUse"><stop offset="0.2" stop-color="#478738"/><stop offset="0.21" stop-color="#498939"/><stop offset="0.27" stop-color="#59a248"/><stop offset="0.32" stop-color="#63b151"/><stop offset="0.37" stop-color="#67b654"/></linearGradient><linearGradient id="linear-gradient-25" x1="1691.15" y1="662.79" x2="1684.05" y2="299.19" gradientUnits="userSpaceOnUse"><stop offset="0" stop-color="#907d61"/><stop offset="0.43" stop-color="#776b59"/><stop offset="0.76" stop-color="#686054"/></linearGradient><linearGradient id="linear-gradient-26" x1="1674.38" y1="420.09" x2="1876.32" y2="-76.85" gradientUnits="userSpaceOnUse"><stop offset="0.22" stop-color="#55cb90"/><stop offset="0.31" stop-color="#57cc97"/><stop offset="0.49" stop-color="#5ace9f"/></linearGradient><linearGradient id="linear-gradient-27" x1="2081.21" y1="212.96" x2="1886.09" y2="480.9" gradientUnits="userSpaceOnUse"><stop offset="0.3" stop-color="#59c587"/><stop offset="0.67" stop-color="#57b479"/></linearGradient><linearGradient id="linear-gradient-28" x1="1413.54" y1="379.96" x2="1555.75" y2="245.28" gradientUnits="userSpaceOnUse"><stop offset="0.23" stop-color="#2fac76"/><stop offset="0.54" stop-color="#31ad79"/><stop offset="0.74" stop-color="#36b281"/><stop offset="0.88" stop-color="#3db98e"/></linearGradient><linearGradient id="linear-gradient-29" x1="1497.6" y1="298.13" x2="1493.75" y2="100.63" gradientUnits="userSpaceOnUse"><stop offset="0.18" stop-color="#63c28e"/><stop offset="0.6" stop-color="#63c091"/></linearGradient><linearGradient id="linear-gradient-30" x1="1692.41" y1="442.71" x2="1829.68" y2="118.87" gradientUnits="userSpaceOnUse"><stop offset="0.09" stop-color="#3ba781"/><stop offset="0.38" stop-color="#50be8b"/><stop offset="0.68" stop-color="#6bdb99"/></linearGradient><linearGradient id="linear-gradient-31" y1="737.13" x2="0" y2="737.13" gradientUnits="userSpaceOnUse"><stop offset="0.19" stop-color="#24911f"/><stop offset="0.31" stop-color="#33a822"/><stop offset="0.52" stop-color="#48c725"/><stop offset="0.7" stop-color="#55da27"/><stop offset="0.83" stop-color="#5ae128"/></linearGradient><linearGradient id="linear-gradient-32" x1="98.01" y1="680.26" x2="3364.24" y2="668.4" gradientUnits="userSpaceOnUse"><stop offset="0.18" stop-color="#4f5a73"/><stop offset="0.83" stop-color="#4f5a73"/></linearGradient><linearGradient id="linear-gradient-33" x1="903.78" y1="695.59" x2="937.73" y2="641.16" gradientUnits="userSpaceOnUse"><stop offset="0.19" stop-color="#35a922"/><stop offset="0.44" stop-color="#49c725"/><stop offset="0.67" stop-color="#55da27"/><stop offset="0.83" stop-color="#5ae128"/></linearGradient><linearGradient id="linear-gradient-34" x1="2355.16" y1="1061.51" x2="2412.75" y2="-111.24" gradientUnits="userSpaceOnUse"><stop offset="0.19" stop-color="#5c2c18"/><stop offset="0.34" stop-color="#4f2416"/><stop offset="0.63" stop-color="#3c1812"/><stop offset="0.83" stop-color="#351411"/></linearGradient><linearGradient id="linear-gradient-35" x1="1746.01" y1="48.2" x2="2094.57" y2="48.2" gradientUnits="userSpaceOnUse"><stop offset="0.19" stop-color="#0a3432"/><stop offset="0.44" stop-color="#0c3d37"/><stop offset="0.77" stop-color="#0d443a"/></linearGradient><linearGradient id="linear-gradient-36" x1="2366.7" y1="155.15" x2="2379.78" y2="-111.23" xlink:href="#linear-gradient-35"/></defs><g class="cls-2"><rect class="cls-3" x="146.56" y="8.47" width="2693" height="898.38"/><path class="cls-4" d="M931.24,528.54s800.07-220.93,1213.29-104.21S2693,586.9,2693,586.9v70.86L0,641.09Z" transform="translate(146.56 8.47)"/><path class="cls-5" d="M1918.37,704.82H1263.52v-107c92.34-8.71,192.44-14.44,299.36-15.3a3487.35,3487.35,0,0,1,355.49,15.3Z" transform="translate(146.56 8.47)"/><rect class="cls-6" x="142.63" y="674.63" width="2697.78" height="231.94"/><path class="cls-7" d="M-33.69,186.62S137.86-63.57,699,322.43c0,0,295.88,175.77,516.81,147.13l16.37,171.83H0Z" transform="translate(146.56 8.47)"/><path class="cls-8" d="M0,361.37s509.58-52.14,629.3-75.31,197-49.23,280-173.78c73.37-90.75,222-110.06,330.18,46.34C1363.14,317,1365,539,1363,635.55H0Z" transform="translate(146.56 8.47)"/><path class="cls-9" d="M1272.39,114.11s122.49-69.85,229.79-24.3c107.3,47.58,44.46,102.24-45.59,100.22,0,0-36.9,6.18-123.2.05S1214.69,147.51,1272.39,114.11Z" transform="translate(146.56 8.47)"/><path class="cls-10" d="M645.82,68.18s27.61-5.58,69.44-12.41,77.81,43.92-3.34,46.15-32.63,1.1-74.46,0S602,76.27,645.82,68.18Z" transform="translate(146.56 8.47)"/><path class="cls-11" d="M483.52,42.49c13.15-9.23,44.61-28.53,85.84-26.7,53.29,2.36,105,39.21,101.16,59.5-3,15.52-39,25.51-59.83,25.51-103.74,0-39.32,2.51-103.74,0-14.47-.56-32.57-4.66-38.36-16.86C463.26,72.69,469.75,55.94,483.52,42.49Z" transform="translate(146.56 8.47)"/><path class="cls-12" d="M1039.25,294.89a120.94,120.94,0,0,0,9.73,29.46c4.52,9.38,7.9,16.2,15.34,22.19a46,46,0,0,0,20.49,9.22l0-58.93,15.16.53v36.26s33.4,4.63,38-34.89h4.62s4,45.14-42,50.42l-2.31,132.52h-16.19l2-103.44A95.72,95.72,0,0,1,1055.92,355c-19.58-23.84-21.69-50.46-22-60.35,1,0,2,0,3,.09C1037.72,294.76,1038.5,294.82,1039.25,294.89Z" transform="translate(146.56 8.47)"/><path class="cls-13" d="M982.05,227.55s142.62-52.58,228.66,0c82.94,55.68,24,71.18-51.16,71.18-76-.78-169-6.42-169-6.42S887.48,276.51,982.05,227.55Z" transform="translate(146.56 8.47)"/><path class="cls-14" d="M1151,433.21a41,41,0,0,0,8.09,23.12c12.7,16.68,33.92,16.15,36.18,16.06l-.7-37,13.07.55v20.48a27.94,27.94,0,0,0,16.65-2.05c10.88-5,14.36-15.52,14.92-17.33l5.46.16-3.3,10.08a20.78,20.78,0,0,0,15,2.13c9.38-2.33,13.23-10.61,13.69-11.65h4.06s-2.65,23.36-34.54,15.57c-5.81,8.17-19.39,16.89-31.94,12.53.73,25.4,4.94,124.83,4.94,124.83h-14.72l-2.55-109a51.32,51.32,0,0,1-49.36-49.31Z" transform="translate(146.56 8.47)"/><path class="cls-15" d="M1133.7,380.45s112.82-42.33,180.88,0c65.61,44.83,19,57.31-40.47,57.31-60.09-.63-133.67-5.17-133.67-5.17S1058.89,419.87,1133.7,380.45Z" transform="translate(146.56 8.47)"/><path class="cls-16" d="M497.64,522.68S534.71,12.3,844.72,338.81c0,0,42.12,41.7,45.49,91.31,48.86-39.76,121.3-46.63,160.06,61.63,75.81-36.09,116.25-38.25,193.75,17C1314.78,490,1362,522.35,1405.77,586.1c94.35.17,173.22,49.62,173.22,49.62H490.9Z" transform="translate(146.56 8.47)"/><path class="cls-17" d="M496.64,526.3S533.71,15.92,843.72,342.42c0,0,42.12,41.71,45.49,91.32,48.86-39.76,121.3-46.64,160.06,61.63,75.81-36.09,116.25-38.25,193.75,17,70.76-18.68,117.94,13.64,161.75,77.39,94.35.16,173.22,49.61,173.22,49.61H489.9Z" transform="translate(146.56 8.47)"/><path class="cls-18" d="M0,450.57a121.24,121.24,0,0,1,12.53,2.37A122.22,122.22,0,0,1,44.3,465.7c46.59-25.41,116.48-11.64,92.13,100.6,57.18-20.12,78.35-15.88,99.53,14.82,0,0,120.72-38.12,150.37,19.06,64.59-8.47,78.36,0,83.65,39.15L.85,643.6Z" transform="translate(146.56 8.47)"/><path class="cls-19" d="M335.93,647c.33-.81-2.32-2.09-4.59-5.14a18.77,18.77,0,0,1-3-7c-2-7.33-9.72-16.2-12.26-19.47-8.09-10.41-11.91-26-18.24-51.9a364.55,364.55,0,0,1-8-44.49c-.46-25.82,3.3-45.28,11-56.51a299.64,299.64,0,0,0,22.09-38.32s45.47,2,49.37,0S387.25,413,385.3,389l.65-5.76-11.69,3.09s-3.6,21.48-18.57,23.14c-17.86,2.33-38.27-8-35.28-23.14h-13s4,44.11-15.64,53.42c-14.65,3.66-23.3-2.13-22.63-28l.66-25.82-23.29,0s1.33,27.44,0,29.11-11.65,18.63-22.63-16.31c-9.32-24.62-4-12.76-4-12.76l-12.65.27s5.66,27.13,24.3,44.11c12.31,16.3,12.64,43.59,3.32,53.24-10,9.65-26.95,15-39.93-42.26-8.65-37.94-11-55.09-11-55.09l-18-.19s7.32,45.29,6,53.28c-1.66,9-2.33,36.6-41.59,25-20.39-2.84-61.21-13-78.2-43.59-6.33-26-5-35.94-5-35.94l-14.63-.36s.33,15,3.32,19a49.5,49.5,0,0,1-26.12-5.41A50.41,50.41,0,0,1-13,373l-11.73-.45A65.19,65.19,0,0,0-12.91,392.1c11.58,13.1,27.68,20.33,39.49,22.07,2.36.35,11.67,1.53,11.63,1.9,0,.1-.65.1-.65.1s3,39.26,49.92,57.23c41.93,15.64,60.23,23.63,70.88,30s18,13,16.3,34.61a169.22,169.22,0,0,0,26,107.48c36,1.13,59.16,1.24,74,1.1,29.76-.27,46.69-1.73,55.6.33C330.27,646.88,335.49,648.09,335.93,647Z" transform="translate(146.56 8.47)"/><path class="cls-20" d="M289.19,513.42a90.28,90.28,0,0,0-28.26,25c-31.84,43.57-10.18,100.88-7.71,107.1L337.3,647a253.53,253.53,0,0,1-16.18-25.53C299,581.52,291.53,542.49,289.19,513.42Z" transform="translate(146.56 8.47)"/><path class="cls-21" d="M192.26,431s15.58,57.7,27.8,57.28C207.42,494.16,183.83,478.15,192.26,431Z" transform="translate(146.56 8.47)"/><path class="cls-22" d="M279.45,582.83a25.25,25.25,0,0,1-4.33.54,12.07,12.07,0,0,1-4.34-.53,4.53,4.53,0,0,1-1.88-1.2,3.68,3.68,0,0,1-.88-2.06,9,9,0,0,1,1-4.31A30.08,30.08,0,0,1,274,568a28.8,28.8,0,0,1,6.81-5.56,11.64,11.64,0,0,1,4.21-1.53,5.7,5.7,0,0,1,2.32.15l.57.18.52.3a3.84,3.84,0,0,1,.94.7,9.5,9.5,0,0,1,2.29,3.91,20.42,20.42,0,0,1,.87,4.36,47.09,47.09,0,0,1-2.25,17.37l0,.06,0,0a60.77,60.77,0,0,1-5.55,7.69,38.17,38.17,0,0,1-6.94,6.49,18,18,0,0,1-4.23,2.29,8.54,8.54,0,0,1-4.86.48,7.39,7.39,0,0,1-4-2.8,15.53,15.53,0,0,1-2.24-4.26,38.39,38.39,0,0,1-2-9.26,60.79,60.79,0,0,1-.22-9.44l.9-18.81-.4,18.82a60.92,60.92,0,0,0,.37,9.36,37.11,37.11,0,0,0,2.09,9,15.38,15.38,0,0,0,2.17,4,6.5,6.5,0,0,0,3.54,2.48,7.7,7.7,0,0,0,4.35-.47,17,17,0,0,0,4-2.2,37.23,37.23,0,0,0,6.73-6.37,64.55,64.55,0,0,0,5.45-7.57l0,.11a46.45,46.45,0,0,0,2.3-17,20.11,20.11,0,0,0-.81-4.17,8.78,8.78,0,0,0-2-3.55,4.42,4.42,0,0,0-3.68-1.16,11.05,11.05,0,0,0-3.94,1.38,28,28,0,0,0-6.72,5.33,30.29,30.29,0,0,0-5,7,8.45,8.45,0,0,0-1.05,4.07,3.29,3.29,0,0,0,.76,1.9,4.23,4.23,0,0,0,1.73,1.16,12.14,12.14,0,0,0,4.25.63A26.32,26.32,0,0,0,279.45,582.83Z" transform="translate(146.56 8.47)"/><path class="cls-23" d="M-35.1,254.65c3.58-24,13-60.12,41.37-89.66,76.62-79.82,223.35-42.68,270.29-30.76,115.88,29.43,191,100,227.77,141.06l18.25,13.17A1636.73,1636.73,0,0,1,231.38,311,1635.9,1635.9,0,0,1-22,288.08Z" transform="translate(146.56 8.47)"/><path class="cls-24" d="M-40.57,256.26c3.58-24,13-60.12,41.37-89.67,76.62-79.81,223.35-42.67,270.29-30.75,115.88,29.43,191,100,227.77,141l18.25,13.18a1637.59,1637.59,0,0,1-291.2,22.51A1637,1637,0,0,1-27.48,289.69Z" transform="translate(146.56 8.47)"/><path class="cls-25" d="M445,268.55s104.15-23.62,150.32,48.31c30.06,55.83,35.43,73.94-150.32,63.81C413.58,291.28,445,268.55,445,268.55Z" transform="translate(146.56 8.47)"/><path class="cls-26" d="M441,272.24s104.15-23.62,150.32,48.31c30.06,55.83,35.43,73.94-150.32,63.81C409.58,295,441,272.24,441,272.24Z" transform="translate(146.56 8.47)"/><path class="cls-27" d="M-19,371.53c-3.12,0-93.66-6.24-93.66-6.24s-56.2-11.45-23.94-39.55a53.48,53.48,0,0,0,20.4-17c6.43-9.2,4.71-13.71,8.81-22.18,13-26.83,56.54-36,56.54-36h0s59.07-11.84,103,11.39c4.9,2.59,7.32,4,9.18,6.41C81.72,294.64,18.5,371.53,18.5,371.53Z" transform="translate(146.56 8.47)"/><path class="cls-28" d="M-19,372.85c-3.12,0-93.66-6.25-93.66-6.25s-56.2-11.44-23.94-39.54a53.57,53.57,0,0,0,20.4-17c6.43-9.2,4.71-13.72,8.81-22.19,13-26.83,56.54-36,56.54-36h0s59.07-11.83,103,11.4c4.9,2.59,7.32,4,9.18,6.4C81.72,296,18.5,372.85,18.5,372.85Z" transform="translate(146.56 8.47)"/><path class="cls-29" d="M-65.4,218.94s8.59-19,67.65-9.36C57,221.39,15.13,251.46-31.58,245S-73.21,225.55-65.4,218.94Z" transform="translate(146.56 8.47)"/><path class="cls-30" d="M-17.6,305.57S36.37,263,93,246.24c61.8-25.07,143.62-81.06,242.85-55.16,76.6,24.24,134.05,57.66,168,119.5,16.54,35.94,19.15,79.39-107.06,73.54l-351.66.54S-92.46,374.93-17.6,305.57Z" transform="translate(146.56 8.47)"/><path class="cls-31" d="M-18.26,307.58s54-42.62,110.55-59.34c61.8-25.07,143.62-81.06,242.85-55.15,76.6,24.23,134.05,57.66,168,119.5,16.53,35.94,19.15,79.39-107.07,73.54l-351.66.53S-93.12,376.94-18.26,307.58Z" transform="translate(146.56 8.47)"/><path class="cls-21" d="M386,387s1.66,24.88-10,34.55c-3.49,3.38-6.25,3.29-10.42,3.38,0,0,11.64-3.8,14.54-16.47a118.38,118.38,0,0,0,3-22.24H386Z" transform="translate(146.56 8.47)"/><path class="cls-21" d="M269.83,386c-.46,4.36-.69,19.52-.5,22.48.8,12.93,1.72,27.66,10.11,31.46a11.69,11.69,0,0,0,6.3.8l3.18-.36c-3.91,4.82-7.4,5.23-8.53,5.28-6.94.33-15.06-8.68-17-23.2a88.33,88.33,0,0,1-1.4-20.86c.32-5.79,1.48-15.6,1.48-15.6h6.4Z" transform="translate(146.56 8.47)"/><path class="cls-32" d="M2161.12,477.25a41,41,0,0,0,8.1,23.12c12.7,16.67,33.92,16.15,36.17,16.06l-.69-37,13.06.55v20.48a28,28,0,0,0,16.66-2c10.87-5.05,14.35-15.53,14.92-17.33l5.46.15q-1.66,5-3.31,10.08a20.71,20.71,0,0,0,15,2.14c9.38-2.34,13.23-10.62,13.69-11.66h4.07s-2.65,23.37-34.55,15.58c-5.8,8.17-19.39,16.89-31.93,12.53.72,25.4,4.93,124.82,4.93,124.82h-14.72l-2.55-109A51.3,51.3,0,0,1,2156,476.39Z" transform="translate(146.56 8.47)"/><path class="cls-33" d="M2143.79,424.49s112.82-42.33,180.89,0c65.61,44.82,19,57.3-40.47,57.3-60.09-.62-133.67-5.16-133.67-5.16S2069,463.91,2143.79,424.49Z" transform="translate(146.56 8.47)"/><path class="cls-34" d="M1262.31,637.19l-19.78-10.53c-40.59-25.29-34.86-.53-34.86-.53-24.46,3.69-43.2-.53-50.49-10.53-6.76-56.37-115.53-46.36-115.53-46.36-15.09-32.13-68.7-21.07-118.66-8.43-6.76-60.57-131.14-36.87-131.14-36.87,13-129.05-37.47-134.32-68.7-130.63-30.71,13.69-38,5.64-38,5.64C579,350.87,521.75,424.38,495.72,477.59,355.73,441.24,413,636.67,413,636.67Z" transform="translate(146.56 8.47)"/><path class="cls-35" d="M1260.38,640.33,1240.75,630c-40.31-24.81-34.63-.52-34.63-.52-24.29,3.62-42.89-.51-50.12-10.33-6.72-55.3-114.73-45.48-114.73-45.48-15-31.52-68.21-20.67-117.82-8.27-6.72-59.43-130.23-36.17-130.23-36.17C806.14,402.62,756,397.45,725,401.07c-30.49,13.43-37.73,5.54-37.73,5.54C581.86,359.43,525,431.56,499.17,483.75,360.16,448.09,417,639.82,417,639.82Z" transform="translate(146.56 8.47)"/><path class="cls-36" d="M1780,639.33s55.71-56.67,132.64-39.43c-13.26-34.49,9.29-58.36,114.08-38.47,100.8-63.66,160.49-30.32,165.8-5.87,72.95-35.25,148.56-16.68,124.68,19.14,141.93,1.32,195,11.28,269.26,60C2432.61,638.37,1780,639.33,1780,639.33Z" transform="translate(146.56 8.47)"/><path class="cls-37" d="M-3.93,604.2s23.13-20.89,40.29-25.37c-14.18,27.61-16.42,35.07-14.18,40.3,17.91-29.1,21.64-27.61,21.64-27.61s1.49,23.88,0,27.61q27.42-1.51,55.41-2.71,20.67-.88,41.06-1.56c-.15-3.29-.29-6.57-.43-9.86a47.49,47.49,0,0,0-16-18.32,48.1,48.1,0,0,0-29.29-7.85c26.86-17.9,48.5-2.23,54.47,9-4.48-41.79-16.41-61.19-34.32-64.92,34.32,6,50,30.59,57.45,61.19-7.46-56-8.95-73.87-17.16-81.34,20.89,18.66,34.32,45.52,30.59,70.89.75-47-4.47-69.39-12.68-75.36,22.38,22.38,25.37,17.16,23.88,82.08,30.59-44.77,56.71-41.79,56.71-41.79s-31.34,11.94-47.76,58.2c-3.91,9-2.64,14.56-1.6,17.26,5.26,13.57,30.29,20.69,62,13.33C260.21,613.9,249,602,249,602s20.89,2.24,23.88,13.44l-9.7-24.63s20.89-3,23.13,36.56c12.68,2.24,12.68,0,12.68,0s-14.92-14.92-6-23.87,12.69,13.43,14.18,17.91c19.4-23.88,25.37-15.92,7.46,7l-2.24,4.23H360.2l89.54,6.77H.85Z" transform="translate(146.56 8.47)"/><path class="cls-38" d="M1831.28,639.71c.31-.81-2.18-2.08-4.31-5.12a19.09,19.09,0,0,1-2.85-6.94c-1.88-7.29-9.13-16.11-11.52-19.37-7.59-10.35-11.17-25.88-17.12-51.64a382.66,382.66,0,0,1-7.49-44.26c-.43-25.69,3.09-45.06,10.36-56.23A303,303,0,0,0,1819.08,418s42.68,1.94,46.34,0,14-11.16,12.2-35l.61-5.73-11,3.07s-3.37,21.37-17.43,23c-16.76,2.31-35.92-8-33.11-23h-12.18s3.75,43.89-14.68,53.16c-13.74,3.64-21.86-2.12-21.24-27.82l.62-25.69-21.86,0s1.25,27.31,0,29-10.93,18.54-21.24-16.23c-8.75-24.5-3.75-12.7-3.75-12.7l-11.87.27s5.31,27,22.8,43.89c11.56,16.22,11.87,43.37,3.13,53-9.37,9.6-25.3,14.9-37.48-42.05-8.13-37.74-10.31-54.81-10.31-54.81l-16.87-.18s6.87,45.06,5.62,53c-1.56,8.94-2.18,36.42-39,24.83-19.13-2.82-57.45-12.95-73.4-43.38-5.94-25.82-4.69-35.75-4.69-35.75l-13.74-.36s.31,14.92,3.12,18.9a44.24,44.24,0,0,1-24.52-5.39c-14.14-7.83-19.86-21.07-21.39-25l-11-.45a65.42,65.42,0,0,0,11.12,19.47c10.87,13,26,20.23,37.07,22,2.21.35,10.95,1.52,10.91,1.89,0,.1-.6.1-.6.1s2.81,39.07,46.85,57c39.35,15.56,56.53,23.51,66.53,29.8s16.86,12.91,15.3,34.43a178.66,178.66,0,0,0,2.81,51.49,174.54,174.54,0,0,0,21.56,55.45c33.81,1.12,55.53,1.23,69.46,1.1,27.93-.27,43.83-1.72,52.19.33C1826,639.58,1830.86,640.78,1831.28,639.71Z" transform="translate(146.56 8.47)"/><path class="cls-39" d="M1787.4,506.78a86.59,86.59,0,0,0-26.52,24.84C1731,575,1751.33,632,1753.64,638.18l78.92,1.52a256.56,256.56,0,0,1-15.18-25.41C1796.64,574.54,1789.6,535.71,1787.4,506.78Z" transform="translate(146.56 8.47)"/><path class="cls-40" d="M1696.42,424.76s14.63,57.41,26.09,57C1710.65,487.62,1688.51,471.69,1696.42,424.76Z" transform="translate(146.56 8.47)"/><path class="cls-22" d="M1778.26,575.84a22.07,22.07,0,0,1-4.21.55,10.07,10.07,0,0,1-4.2-.66,4,4,0,0,1-1.7-1.34,3.66,3.66,0,0,1-.63-2.08,9.85,9.85,0,0,1,1-4.17,30.16,30.16,0,0,1,4.67-7.13,26.88,26.88,0,0,1,6.51-5.55,10,10,0,0,1,4.13-1.41,5,5,0,0,1,2.26.34,9,9,0,0,1,1,.6c.27.27.58.51.82.8a10.35,10.35,0,0,1,1.91,4c.22.69.31,1.41.47,2.11s.21,1.43.24,2.14a49.76,49.76,0,0,1-2.14,16.9v.05l0,0a58.72,58.72,0,0,1-5.23,7.68,36.93,36.93,0,0,1-6.63,6.53,16.44,16.44,0,0,1-4.12,2.3,7.24,7.24,0,0,1-4.8.23,7.47,7.47,0,0,1-3.61-3.15,17.69,17.69,0,0,1-2-4.27,42.44,42.44,0,0,1-1.73-9.12,66.29,66.29,0,0,1-.15-9.24l.84-18.42-.35,18.44a65.12,65.12,0,0,0,.28,9.16,41.52,41.52,0,0,0,1.84,8.94,17.34,17.34,0,0,0,1.91,4.06,6.6,6.6,0,0,0,3.21,2.8,6.41,6.41,0,0,0,4.22-.25,15.57,15.57,0,0,0,3.88-2.2c4.83-3.66,8.47-8.74,11.56-14l0,.1a48.81,48.81,0,0,0,2.19-16.56c0-.7-.16-1.38-.23-2.07a19.06,19.06,0,0,0-.44-2,9.3,9.3,0,0,0-1.73-3.64,6.42,6.42,0,0,0-.69-.69,7.39,7.39,0,0,0-.81-.51,4.12,4.12,0,0,0-1.88-.3,9.22,9.22,0,0,0-3.83,1.26,26.09,26.09,0,0,0-6.42,5.31,30.24,30.24,0,0,0-4.7,6.93,9.38,9.38,0,0,0-1.07,4,3.35,3.35,0,0,0,.53,1.93,3.74,3.74,0,0,0,1.55,1.28,9.82,9.82,0,0,0,4.1.74A22.09,22.09,0,0,0,1778.26,575.84Z" transform="translate(146.56 8.47)"/><path class="cls-41" d="M1476.9,252.3c3.4-24.76,12.34-62.15,39.24-92.68,72.68-82.49,211.86-44.11,256.39-31.79,109.92,30.42,181.16,103.34,216.06,145.79l17.31,13.62a1427.33,1427.33,0,0,1-276.22,23.26,1427.08,1427.08,0,0,1-240.37-23.66Z" transform="translate(146.56 8.47)"/><path class="cls-42" d="M1477.88,250.91c3.36-23.83,12.21-59.82,38.83-89.21,71.92-79.42,209.64-42.46,253.7-30.6,108.77,29.28,179.27,99.48,213.8,140.34l17.13,13.11A1450.88,1450.88,0,0,1,1728,307a1451.47,1451.47,0,0,1-237.85-22.78Z" transform="translate(146.56 8.47)"/><path class="cls-41" d="M1927.27,264.76s100.65-23.12,145.26,47.3c29.06,54.64,34.25,72.37-145.26,62.45C1896.92,287,1927.27,264.76,1927.27,264.76Z" transform="translate(146.56 8.47)"/><path class="cls-43" d="M1929.88,266.81s97.76-23.5,141.1,48.07c28.21,55.56,33.25,73.57-141.1,63.49C1900.4,289.43,1929.88,266.81,1929.88,266.81Z" transform="translate(146.56 8.47)"/><path class="cls-41" d="M1498.89,365.13c-3,0-91-6.19-91-6.19s-54.62-11.36-23.26-39.23a52.43,52.43,0,0,0,19.82-16.9c6.24-9.13,4.57-13.61,8.56-22,12.62-26.62,55-35.68,55-35.68h0s57.4-11.74,100.12,11.3c4.76,2.57,7.11,4,8.92,6.36,19.76,26.08-41.68,102.35-41.68,102.35Z" transform="translate(146.56 8.47)"/><path class="cls-44" d="M1498.15,366.92c-2.93,0-87.92-6.22-87.92-6.22s-52.75-11.39-22.46-39.34a51.09,51.09,0,0,0,19.14-17c6-9.15,4.42-13.64,8.27-22.07,12.19-26.7,53.08-35.79,53.08-35.79h0s55.44-11.78,96.7,11.34c4.6,2.57,6.87,4,8.62,6.37,19.08,26.16-40.26,102.67-40.26,102.67Z" transform="translate(146.56 8.47)"/><path class="cls-41" d="M1454.25,212.51s8.32-19.47,65.51-9.58c53,12.1,12.48,42.88-32.75,36.28S1446.68,219.29,1454.25,212.51Z" transform="translate(146.56 8.47)"/><path class="cls-45" d="M1454.57,213.78s8.06-18.92,63.49-9.31c51.4,11.75,12.1,41.66-31.74,35.25S1447.24,220.36,1454.57,213.78Z" transform="translate(146.56 8.47)"/><path class="cls-41" d="M1503.6,294.73s50.07-41.72,102.57-58.07c57.34-24.54,133.26-79.34,225.34-54,71.07,23.72,124.38,56.44,155.88,117,15.34,35.17,17.76,77.7-99.35,72l-326.29.52S1434.14,362.61,1503.6,294.73Z" transform="translate(146.56 8.47)"/><path class="cls-46" d="M1498.82,301s50.65-42.41,103.76-59c58-24.94,134.81-80.65,228-54.87,71.9,24.11,125.83,57.37,157.69,118.9,15.53,35.75,18,79-100.49,73.17l-330.09.53S1428.55,370,1498.82,301Z" transform="translate(146.56 8.47)"/><path class="cls-40" d="M1878.23,381s1.56,24.76-9.42,34.37c-3.28,3.37-5.87,3.28-9.79,3.37a22.79,22.79,0,0,0,13.65-16.39,124.46,124.46,0,0,0,2.85-22.13h2.71Z" transform="translate(146.56 8.47)"/><path class="cls-40" d="M1769.23,380c-.43,4.34-.64,19.43-.47,22.37.75,12.86,1.61,27.52,9.49,31.3a10.28,10.28,0,0,0,5.92.79l3-.35c-3.67,4.8-7,5.21-8,5.26-6.51.32-14.13-8.65-16-23.09a92.66,92.66,0,0,1-1.31-20.76c.3-5.76,1.39-15.52,1.39-15.52h6Z" transform="translate(146.56 8.47)"/><path class="cls-47" d="M0,737.13" transform="translate(146.56 8.47)"/><rect class="cls-48" x="142.63" y="647.8" width="3009.72" height="53.65"/><path class="cls-49" d="M-3.93,732.76H279.6s-8.38-25.08,0-35.36,9.66,5.78,7.73,17.68-3.22,17.68-3.22,17.68,3.86-19.93,17.39-27,14.16,13.5-10.31,27L399.47,732l7,.09c-14.82-39.51-21.26-42.43-21.26-42.43s21.26-4.5,30.27,38.58c4.58-17.37,10.3-36.18,13.88-35.66,1.64.23,2.27,4.45,2.71,7.37,2.18,14.62-5.26,27-8.86,32.14q43.3-52.61,45.73-50.78,1.26.95-8.51,16.59-3.7,5.94-7.38,12-7.77,12.81-15,25.4c54.1-39.86,74.06-36.65,74.06-36.65S467.66,724.4,458,735.33l19.32.64h14.17l265.36,10.29H773.4c-.06-2.88-.27-25.06,12.84-32.47,1.49-.85,3.7-1.92,5.25-1.26,6.16,2.64,2.15,25.09-10.07,35.59l7.57,1.37c5.6-9.57,11.56-15.17,14.31-14,2.54,1.1,2.61,8.12.82,16.39,45.06,3.43,46.78,3.77,46.78,3.77a157.24,157.24,0,0,0-18.33-23c-10-10.35-17.75-15.56-17.1-16.51s12.2,5,23.34,13.23c12.57,9.25,18.88,17.05,20.38,15.89,1.28-1-1.62-7.94-5.15-12.61-5.89-7.79-9.58-9.71-15.41-16.93a78.06,78.06,0,0,1-6.06-8.65,91.84,91.84,0,0,1,11.84,6.24,94.75,94.75,0,0,1,25.39,23.32A38.5,38.5,0,0,1,875.06,751a37.84,37.84,0,0,1,.26,9.48l31,5.49a1087.61,1087.61,0,0,0,132.42,36,1088.93,1088.93,0,0,0,193.64,22l110.41,3.43s-8.26-10.29-23.39-19.56-2.06-26.44,19.61-6.18c14.44,24.71,14.44,25.74,14.44,25.74h20s-12.54-23.34-28.29-31.92c-14.38-14.08,11.76-16.48,31,14.42,0,1.71.15,3.75.75,3.86,1.33.24,2.61-9.67,7.51-16.91,8-11.77,25.68-16.79,28.54-13,4.48,5.84-27.17,23.69-26.48,38.11,32.33-21.28,36.8-15.45,37.49-12s-27.86,14.41-29.24,17.5c23.74.35,35.78,0,35.78,0s-9.63-30.55,1.37-37.76,6.54,32.92,4.47,37.92c0,0,12-19,19.26-26.25s27.18,5.11-5.16,26.25c82.9-2.56,85-3.59,85-3.59q-18.3-26.25-16.85-27.38,1.6-1.25,27.51,28.41c.25-3.5.65-7.26,1.26-11.22a136.55,136.55,0,0,1,3.11-14.73q6.79-14.6,8.93-14,3.47,1.07-5.39,42.46c23.39.87,248.34-13.2,248.34-13.2l229.43-9s2.14-35.54,13.17-41.59c0,0,10,17.42-5.69,40.52,31-40.52,43.64-28.08,8.82.71,74.5-1.77,181-5,181-5l27.06.35s-17.81-15.28-27.42-22.74-2.85-22.4,37.39,14.92c-1.47-4.12-6.1-18.74.79-33.41,9-19.15,31.91-26.16,33.66-23.82,1.34,1.79-10.24,8.48-18.46,24.72a80.87,80.87,0,0,0-8.51,33.93c10.32-10.66,18.16-23.81,29.91-27.72s21.72-1.77,6.76,7.82-28.13,27-28.13,27l93.29-.71s-7.47-19.55-26.35-27.72-24.21-20.26-5.69-16,32,15.63,38.81,37c11-48.69,22.43-52.6,35.25-57.22s-24.57,23.81-24.92,59.71c13.88-18.84,22.43-23.82,32.4-26.3s19.23-.71-23.15,28.78a720,720,0,0,0,82.19,6.67c14.83.36,29.08.24,42.71-.24l61.69-1.09H2722.4V899.6H-3.93Z" transform="translate(146.56 8.47)"/><path class="cls-50" d="M906.44,704.82S891.84,690.22,884,686s9-15.45,26.39,12.06c-.82-3.05-1.8-6.42-3-10-.78-2.36-1.88-5.71-3.59-9.94-2.26-5.61-3.29-6.75-5.21-12-1.7-4.6-2.9-7.84-2-8.47,1.17-.8,5.51,3.75,7.72,6.07a39.27,39.27,0,0,1,4.42,5.24,36,36,0,0,1,5.18,11.37,41.57,41.57,0,0,1,1.17,10.44c.09,4.1-.25,11.2-.25,11.2s7.87-24.71,25.28-25.84-7.87,6.18-15.17,24.71a6.2,6.2,0,0,1-1.53,3.8c-1.86,2-4.82,1.83-8.88,1.58A36.09,36.09,0,0,1,906.44,704.82Z" transform="translate(146.56 8.47)"/><path class="cls-51" d="M2044.26,99.45s34.54,97.43,155.4,114.7c18.5,80.16-3.7,119.63,196.1,207.2,64.1,37.14,100.47,56.23,118.94,88,14.75,25.38,14.79,49.76,15.84,94.55,1.19,51,1.6,119.37-1.34,201.47-2.77,11.13-11.76,40.91-39.91,65-36.05,30.82-77.62,30.1-87.36,29.68h319.31l5.06-752.44-33.3-1.24s27.13,106.07-28.37,115.94-96.2-104.84-98.67-109.77-78.93-4.93-78.93-4.93,30.83,139.36,7.4,178.83-64.13,65.37-167.73-3.7c-66.6-43.17-71.54-56.73-82.64-108.53-3.7-53-3.7-69.07-3.7-69.07l-57.12-9.87v34.54a137.34,137.34,0,0,1-36.34-7.56c-43.42-15.44-67.09-49-76.11-63.55Z" transform="translate(146.56 8.47)"/><path class="cls-52" d="M1753.36-8.47c-5.33,5.66-73.57,113.35,340.14,113.35,1.07-99.16,0-93.83,1.07-99.16S1753.36-8.47,1753.36-8.47Z" transform="translate(146.56 8.47)"/><path class="cls-53" d="M2014.4-8.47S1926.22,128.71,2302.24,152c358.87,11,432.36,0,432.36,0L2726.3,0Z" transform="translate(146.56 8.47)"/><path class="cls-54" d="M1767.5,704.52a33.09,33.09,0,0,0-17.5-13.41c-12.32-4.19-6-15.64,19.46,6.71,2.44-3.56-5-20.16-12.77-31.66s15.7-4.33,19.12,15.55l3.42,19.88s3.43-18.57,16.63-23.46,10.82-2.45-8.28,23C1780.7,707,1767.5,704.52,1767.5,704.52Z" transform="translate(146.56 8.47)"/><path class="cls-55" d="M0,857.32S71.32,861,72.55,848,49,769.45,2.63,762c0,0,12.37-22.28,46.41,0C79.36,788,84.31,805,84.31,805s.48-59.65-56.07-88.73c17.09-5.57,51.74,9.9,77.73,75.49,1.24-37.13-11.14-78-20.42-98.73s48.27,15.81,42.08,103.68c11.14-49.5-3.1-102.33-10.52-109.33-6.81-7,54.45,11.56,25.37,105.62,56.31-82.3,73-78.59,100.25-76.11C187,751.5,172.8,773.78,158,817.09c0,0,60.64-78,118.81-32.79,14.85,16.7,12.38,17.32,12.38,17.32S217.36,777.49,166,841.23a238.81,238.81,0,0,0,35.9,13.61c44.88,13,84.87,10.14,111.38,5.57,0,0-14.85-15.47-19.18-26s19.8-26,24.13,6.81a33.38,33.38,0,0,1,13.62-13.62c4.8-2.53,15-6.35,17.34-3.27,3.45,4.46.06,15.67-22.91,36.07l72.4-5.57s-17.33-10.52-18.57-29.7,24.19-21,25.4,24.75c57.52-1.86,63.71-.62,63.71-.62q2.18-4,4.33-8c-4.33-27.85-14.23-45.18-17.94-46.41s30.85-5,34.3,42.08a34.78,34.78,0,0,1,15-17.59c6.19-3.48,15.86-6.23,17.39-3.72,2.94,4.84-28.91,21.89-25.83,32.44,4.76,16.32,91.48,7.09,94.06,6.81,156.55-16.79,177.88,30.47,437.5,27.85h315c11.76,0,6.81.55,6.81.55s-40.22-17.26-42.08-33.35,30.32,5,49.51,24.13c-15.48-37.74-10.71-27.84-10.71-27.84s1.42-24.75,18.75,8.66c8.66,25.37,6.19,22.28,6.19,22.28L1575,900H0Z" transform="translate(146.56 8.47)"/><path class="cls-55" d="M-62.86,936.93" transform="translate(146.56 8.47)"/><path class="cls-49" d="M2499,775.82" transform="translate(146.56 8.47)"/></g></svg>