<svg xmlns="http://www.w3.org/2000/svg" viewBox="0 0 1600 900"><defs><style>.cls-1{fill:#00aff2;}.cls-2{opacity:0.06;}.cls-3{fill:#fff;}</style></defs><g id="Layer_4" data-name="Layer 4"><rect class="cls-1" width="1600" height="900"/><g class="cls-2"><rect class="cls-3" x="742.01" y="51.75" width="26.96" height="7.94"/><rect class="cls-3" x="793" y="51.75" width="26.96" height="7.94"/><rect class="cls-3" x="777.16" y="15.25" width="7.64" height="27.99"/><rect class="cls-3" x="777.16" y="68.2" width="7.64" height="27.99"/><rect class="cls-3" x="682.69" y="284.94" width="7.64" height="21.4"/><rect class="cls-3" x="682.69" y="332.85" width="7.64" height="21.4"/><rect class="cls-3" x="699.27" y="315.63" width="20.6" height="7.94"/><polygon class="cls-3" points="673.74 323.57 673.74 315.63 656.81 315.63 655.93 315.63 654.02 315.63 654.02 323.57 655.93 323.57 656.81 323.57 673.74 323.57"/><rect class="cls-3" x="976.75" y="3.57" width="7.64" height="11.94"/><rect class="cls-3" x="826.78" y="302.35" width="7.64" height="11.94"/><rect class="cls-3" x="826.78" y="270.39" width="7.64" height="11.94"/><rect class="cls-3" x="809.47" y="288.37" width="11.5" height="7.94"/><rect class="cls-3" x="840.24" y="288.37" width="11.5" height="7.94"/><rect class="cls-3" x="997.8" y="304.35" width="11.5" height="7.94"/><rect class="cls-3" x="1016.95" y="304.35" width="11.5" height="7.94"/><rect class="cls-3" x="1009.3" y="312.29" width="7.64" height="11.94"/><rect class="cls-3" x="1009.3" y="292.41" width="7.64" height="11.94"/><rect class="cls-3" x="665.5" y="138.1" width="7.64" height="7.94"/><rect class="cls-3" x="680.79" y="138.1" width="7.64" height="7.94"/><rect class="cls-3" x="673.15" y="146.04" width="7.64" height="7.94"/><rect class="cls-3" x="673.15" y="130.17" width="7.64" height="7.94"/><rect class="cls-3" x="667.43" y="30.34" width="19.08" height="7.94"/><rect class="cls-3" x="912.61" y="221.48" width="19.08" height="7.94"/><rect class="cls-3" x="961.5" y="221.48" width="19.08" height="7.94"/><rect class="cls-3" x="943.19" y="190.17" width="7.64" height="19.81"/><rect class="cls-3" x="943.19" y="240.93" width="7.64" height="19.81"/><rect class="cls-3" x="1096.7" y="175.53" width="7.64" height="27.99"/><rect class="cls-3" x="1096.7" y="211.46" width="7.64" height="27.99"/><rect class="cls-3" x="1069.75" y="203.52" width="26.96" height="7.94"/><polygon class="cls-3" points="1128.37 211.46 1131.31 211.46 1131.31 203.52 1128.37 203.52 1104.35 203.52 1104.35 211.46 1128.37 211.46"/><rect class="cls-3" x="1032.27" y="110.2" width="7.64" height="7.94"/><rect class="cls-3" x="1032.27" y="86.38" width="7.64" height="7.94"/><rect class="cls-3" x="1020.8" y="98.29" width="7.64" height="7.94"/><rect class="cls-3" x="1043.74" y="98.29" width="7.64" height="7.94"/><rect class="cls-3" x="1090.99" y="30.34" width="19.08" height="7.94"/><rect class="cls-3" x="759.49" y="185.55" width="21.32" height="7.94"/><rect class="cls-3" x="796.1" y="185.55" width="21.32" height="7.94"/><rect class="cls-3" x="784.63" y="159.44" width="7.64" height="22.14"/><rect class="cls-3" x="784.63" y="197.46" width="7.64" height="22.14"/><rect class="cls-3" x="906.63" y="66.33" width="7.64" height="27.99"/><rect class="cls-3" x="906.63" y="102.26" width="7.64" height="27.99"/><rect class="cls-3" x="879.68" y="94.32" width="26.96" height="7.94"/><rect class="cls-3" x="914.28" y="94.32" width="26.96" height="7.94"/><rect class="cls-3" x="1071.43" y="352.93" width="7.64" height="27.99"/><polygon class="cls-3" points="799.96 408.38 788.46 408.38 788.46 410.36 788.46 416.32 799.96 416.32 799.96 410.36 799.96 408.38"/><rect class="cls-3" x="799.96" y="396.44" width="7.64" height="11.94"/><rect class="cls-3" x="863.18" y="380.36" width="21.32" height="7.94"/><rect class="cls-3" x="899.79" y="380.36" width="21.32" height="7.94"/><rect class="cls-3" x="888.33" y="354.25" width="7.64" height="22.14"/><polygon class="cls-3" points="888.33 410.36 888.33 414.41 895.97 414.41 895.97 410.36 895.97 392.27 888.33 392.27 888.33 410.36"/><rect class="cls-3" x="1214.45" y="51.75" width="26.96" height="7.94"/><rect class="cls-3" x="1265.44" y="51.75" width="26.96" height="7.94"/><rect class="cls-3" x="1249.6" y="15.25" width="7.64" height="27.99"/><rect class="cls-3" x="1249.6" y="68.2" width="7.64" height="27.99"/><rect class="cls-3" x="1175.13" y="269.7" width="7.64" height="21.4"/><rect class="cls-3" x="1175.13" y="317.61" width="7.64" height="21.4"/><rect class="cls-3" x="1191.72" y="300.38" width="20.6" height="7.94"/><polygon class="cls-3" points="1145.59 300.38 1145.59 308.32 1148.38 308.32 1166.19 308.32 1166.19 300.38 1148.38 300.38 1145.59 300.38"/><rect class="cls-3" x="1449.19" y="3.57" width="7.64" height="11.94"/><rect class="cls-3" x="1299.22" y="302.35" width="7.64" height="11.94"/><rect class="cls-3" x="1299.22" y="270.39" width="7.64" height="11.94"/><rect class="cls-3" x="1281.91" y="288.37" width="11.5" height="7.94"/><rect class="cls-3" x="1312.68" y="288.37" width="11.5" height="7.94"/><rect class="cls-3" x="1470.24" y="304.35" width="11.5" height="7.94"/><rect class="cls-3" x="1489.39" y="304.35" width="11.5" height="7.94"/><rect class="cls-3" x="1481.74" y="312.29" width="7.64" height="11.94"/><rect class="cls-3" x="1481.74" y="292.41" width="7.64" height="11.94"/><rect class="cls-3" x="1157.27" y="126.2" width="7.64" height="7.94"/><rect class="cls-3" x="1172.56" y="126.2" width="7.64" height="7.94"/><rect class="cls-3" x="1164.92" y="134.13" width="7.64" height="7.94"/><rect class="cls-3" x="1164.92" y="118.26" width="7.64" height="7.94"/><rect class="cls-3" x="1139.87" y="30.34" width="19.08" height="7.94"/><polygon class="cls-3" points="1129.21 69.6 1129.21 49.79 1128.37 49.79 1121.57 49.79 1121.57 69.6 1128.37 69.6 1129.21 69.6"/><rect class="cls-3" x="1385.05" y="221.48" width="19.08" height="7.94"/><rect class="cls-3" x="1433.94" y="221.48" width="19.08" height="7.94"/><rect class="cls-3" x="1415.63" y="190.17" width="7.64" height="19.81"/><rect class="cls-3" x="1415.63" y="240.93" width="7.64" height="19.81"/><rect class="cls-3" x="1569.15" y="175.53" width="7.64" height="27.99"/><rect class="cls-3" x="1569.15" y="211.46" width="7.64" height="27.99"/><rect class="cls-3" x="1542.19" y="203.52" width="26.96" height="7.94"/><rect class="cls-3" x="1504.71" y="110.2" width="7.64" height="7.94"/><rect class="cls-3" x="1504.71" y="86.38" width="7.64" height="7.94"/><rect class="cls-3" x="1493.25" y="98.29" width="7.64" height="7.94"/><rect class="cls-3" x="1516.18" y="98.29" width="7.64" height="7.94"/><rect class="cls-3" x="1563.43" y="30.34" width="19.08" height="7.94"/><rect class="cls-3" x="1231.93" y="185.55" width="21.32" height="7.94"/><rect class="cls-3" x="1268.54" y="185.55" width="21.32" height="7.94"/><rect class="cls-3" x="1257.07" y="159.44" width="7.64" height="22.14"/><rect class="cls-3" x="1257.07" y="197.46" width="7.64" height="22.14"/><rect class="cls-3" x="1379.07" y="66.33" width="7.64" height="27.99"/><rect class="cls-3" x="1379.07" y="102.26" width="7.64" height="27.99"/><rect class="cls-3" x="1352.12" y="94.32" width="26.96" height="7.94"/><rect class="cls-3" x="1386.72" y="94.32" width="26.96" height="7.94"/><rect class="cls-3" x="1524.54" y="369.89" width="7.64" height="27.99"/><polygon class="cls-3" points="1224.11 407.32 1224.11 405.35 1212.6 405.35 1212.6 407.32 1212.6 413.28 1224.11 413.28 1224.11 407.32"/><rect class="cls-3" x="1224.1" y="393.4" width="7.64" height="11.94"/><rect class="cls-3" x="1335.62" y="380.36" width="21.32" height="7.94"/><rect class="cls-3" x="1372.23" y="380.36" width="21.32" height="7.94"/><rect class="cls-3" x="1360.77" y="354.25" width="7.64" height="22.14"/><polygon class="cls-3" points="1360.77 410.36 1360.77 414.41 1368.41 414.41 1368.41 410.36 1368.41 392.27 1360.77 392.27 1360.77 410.36"/><polygon class="cls-3" points="717.42 410.36 717.42 402.34 709.78 402.34 709.78 410.36 709.78 430.33 717.42 430.33 717.42 410.36"/><rect class="cls-3" x="709.78" y="438.27" width="7.64" height="27.99"/><rect class="cls-3" x="682.82" y="430.33" width="26.96" height="7.94"/><rect class="cls-3" x="717.42" y="430.33" width="26.96" height="7.94"/><polygon class="cls-3" points="1036.28 393.4 1036.28 397.37 1063.24 397.37 1063.24 393.4 1063.24 389.43 1036.28 389.43 1036.28 393.4"/><polygon class="cls-3" points="1114.23 393.4 1114.23 389.43 1087.27 389.43 1087.27 393.4 1087.27 397.37 1114.23 397.37 1114.23 393.4"/><rect class="cls-3" x="1071.43" y="405.88" width="7.64" height="27.99"/><rect class="cls-3" x="742.01" y="542.37" width="26.96" height="7.94"/><rect class="cls-3" x="793" y="542.37" width="26.96" height="7.94"/><rect class="cls-3" x="777.16" y="505.86" width="7.64" height="27.99"/><rect class="cls-3" x="777.16" y="558.82" width="7.64" height="27.99"/><rect class="cls-3" x="682.69" y="775.56" width="7.64" height="21.4"/><rect class="cls-3" x="682.69" y="823.47" width="7.64" height="21.39"/><rect class="cls-3" x="699.27" y="806.24" width="20.6" height="7.94"/><polygon class="cls-3" points="1125.58 806.24 1125.58 814.18 1128.37 814.18 1146.18 814.18 1146.18 806.24 1128.37 806.24 1125.58 806.24"/><rect class="cls-3" x="976.75" y="494.18" width="7.64" height="11.94"/><rect class="cls-3" x="976.75" y="462.22" width="7.64" height="11.94"/><rect class="cls-3" x="959.44" y="480.2" width="11.5" height="7.94"/><rect class="cls-3" x="990.21" y="480.2" width="11.5" height="7.94"/><rect class="cls-3" x="826.78" y="792.96" width="7.64" height="11.94"/><rect class="cls-3" x="826.78" y="761.01" width="7.64" height="11.94"/><rect class="cls-3" x="809.47" y="778.99" width="11.5" height="7.94"/><rect class="cls-3" x="840.24" y="778.99" width="11.5" height="7.94"/><polygon class="cls-3" points="807.6 416.32 819.1 416.32 819.1 410.36 819.1 408.38 807.6 408.38 807.6 410.36 807.6 416.32"/><rect class="cls-3" x="799.96" y="416.32" width="7.64" height="11.94"/><rect class="cls-3" x="997.8" y="794.96" width="11.5" height="7.94"/><rect class="cls-3" x="1016.95" y="794.96" width="11.5" height="7.94"/><rect class="cls-3" x="1009.3" y="802.9" width="7.64" height="11.94"/><rect class="cls-3" x="1009.3" y="783.02" width="7.64" height="11.94"/><rect class="cls-3" x="665.5" y="628.72" width="7.64" height="7.94"/><rect class="cls-3" x="680.79" y="628.72" width="7.64" height="7.94"/><rect class="cls-3" x="673.15" y="636.65" width="7.64" height="7.94"/><rect class="cls-3" x="673.15" y="620.78" width="7.64" height="7.94"/><rect class="cls-3" x="862.38" y="490.21" width="7.64" height="7.94"/><rect class="cls-3" x="877.67" y="490.21" width="7.64" height="7.94"/><rect class="cls-3" x="870.02" y="498.15" width="7.64" height="7.94"/><rect class="cls-3" x="870.02" y="482.27" width="7.64" height="7.94"/><rect class="cls-3" x="667.43" y="520.95" width="19.08" height="7.94"/><rect class="cls-3" x="912.61" y="712.1" width="19.08" height="7.94"/><rect class="cls-3" x="961.5" y="712.1" width="19.08" height="7.94"/><rect class="cls-3" x="943.19" y="680.78" width="7.64" height="19.81"/><rect class="cls-3" x="943.19" y="731.54" width="7.64" height="19.81"/><rect class="cls-3" x="1096.7" y="666.14" width="7.64" height="27.99"/><rect class="cls-3" x="1096.7" y="702.07" width="7.64" height="27.99"/><rect class="cls-3" x="1069.75" y="694.13" width="26.96" height="7.94"/><rect class="cls-3" x="1039.92" y="606.99" width="7.64" height="7.94"/><rect class="cls-3" x="1039.92" y="583.18" width="7.64" height="7.94"/><rect class="cls-3" x="1028.45" y="595.09" width="7.64" height="7.94"/><rect class="cls-3" x="1051.38" y="595.09" width="7.64" height="7.94"/><rect class="cls-3" x="759.49" y="676.16" width="21.32" height="7.94"/><rect class="cls-3" x="796.1" y="676.16" width="21.32" height="7.94"/><rect class="cls-3" x="784.63" y="650.05" width="7.64" height="22.14"/><rect class="cls-3" x="784.63" y="688.07" width="7.64" height="22.14"/><rect class="cls-3" x="906.63" y="556.94" width="7.64" height="27.99"/><rect class="cls-3" x="906.63" y="592.87" width="7.64" height="27.99"/><rect class="cls-3" x="879.68" y="584.93" width="26.96" height="7.94"/><rect class="cls-3" x="914.28" y="584.93" width="26.96" height="7.94"/><rect class="cls-3" x="1052.1" y="860.5" width="7.64" height="27.99"/><rect class="cls-3" x="799.96" y="887.05" width="7.64" height="11.94"/><rect class="cls-3" x="863.18" y="870.97" width="21.32" height="7.94"/><rect class="cls-3" x="899.79" y="870.97" width="21.32" height="7.94"/><rect class="cls-3" x="888.33" y="844.86" width="7.64" height="22.14"/><polygon class="cls-3" points="1135.13 477.73 1127.48 477.73 1127.48 485.75 1127.48 505.72 1135.13 505.72 1135.13 485.75 1135.13 477.73"/><rect class="cls-3" x="1127.48" y="513.66" width="7.64" height="27.99"/><rect class="cls-3" x="1100.53" y="505.72" width="26.96" height="7.94"/><rect class="cls-3" x="1135.13" y="505.72" width="26.96" height="7.94"/><polygon class="cls-3" points="1131.31 702.07 1131.31 694.13 1128.37 694.13 1104.35 694.13 1104.35 702.07 1128.37 702.07 1131.31 702.07"/><polygon class="cls-3" points="1516.34 410.36 1516.34 406.39 1489.39 406.39 1489.39 410.36 1489.39 414.33 1516.34 414.33 1516.34 410.36"/><polygon class="cls-3" points="1567.34 410.36 1567.34 406.39 1540.38 406.39 1540.38 410.36 1540.38 414.33 1567.34 414.33 1567.34 410.36"/><rect class="cls-3" x="1524.54" y="422.84" width="7.64" height="27.99"/><rect class="cls-3" x="1214.45" y="542.37" width="26.96" height="7.94"/><rect class="cls-3" x="1265.44" y="542.37" width="26.96" height="7.94"/><rect class="cls-3" x="1249.6" y="505.86" width="7.64" height="27.99"/><rect class="cls-3" x="1249.6" y="558.82" width="7.64" height="27.99"/><rect class="cls-3" x="1155.13" y="775.56" width="7.64" height="21.4"/><rect class="cls-3" x="1155.13" y="823.47" width="7.64" height="21.39"/><rect class="cls-3" x="1171.71" y="806.24" width="20.6" height="7.94"/><rect class="cls-3" x="1449.19" y="494.18" width="7.64" height="11.94"/><rect class="cls-3" x="1449.19" y="462.22" width="7.64" height="11.94"/><rect class="cls-3" x="1431.88" y="480.2" width="11.5" height="7.94"/><rect class="cls-3" x="1462.65" y="480.2" width="11.5" height="7.94"/><rect class="cls-3" x="1299.22" y="792.96" width="7.64" height="11.94"/><rect class="cls-3" x="1299.22" y="761.01" width="7.64" height="11.94"/><rect class="cls-3" x="1281.91" y="778.99" width="11.5" height="7.94"/><rect class="cls-3" x="1312.68" y="778.99" width="11.5" height="7.94"/><polygon class="cls-3" points="1231.75 413.28 1243.25 413.28 1243.25 407.32 1243.25 405.35 1231.75 405.35 1231.75 407.32 1231.75 413.28"/><rect class="cls-3" x="1224.1" y="413.28" width="7.64" height="11.94"/><rect class="cls-3" x="1470.24" y="794.96" width="11.5" height="7.94"/><rect class="cls-3" x="1489.39" y="794.96" width="11.5" height="7.94"/><rect class="cls-3" x="1481.74" y="802.9" width="7.64" height="11.94"/><rect class="cls-3" x="1481.74" y="783.02" width="7.64" height="11.94"/><rect class="cls-3" x="1147.6" y="611.41" width="7.64" height="7.94"/><rect class="cls-3" x="1162.89" y="611.41" width="7.64" height="7.94"/><rect class="cls-3" x="1155.24" y="619.35" width="7.64" height="7.94"/><rect class="cls-3" x="1155.24" y="603.47" width="7.64" height="7.94"/><rect class="cls-3" x="1340.65" y="477.73" width="7.64" height="7.94"/><rect class="cls-3" x="1355.94" y="477.73" width="7.64" height="7.94"/><rect class="cls-3" x="1348.3" y="485.67" width="7.64" height="7.94"/><rect class="cls-3" x="1348.3" y="469.79" width="7.64" height="7.94"/><rect class="cls-3" x="1385.05" y="712.1" width="19.08" height="7.94"/><rect class="cls-3" x="1433.94" y="712.1" width="19.08" height="7.94"/><rect class="cls-3" x="1415.63" y="680.78" width="7.64" height="19.81"/><rect class="cls-3" x="1415.63" y="731.54" width="7.64" height="19.81"/><rect class="cls-3" x="1569.15" y="666.14" width="7.64" height="27.99"/><rect class="cls-3" x="1569.15" y="702.07" width="7.64" height="27.99"/><rect class="cls-3" x="1542.19" y="694.13" width="26.96" height="7.94"/><rect class="cls-3" x="1504.71" y="600.81" width="7.64" height="7.94"/><rect class="cls-3" x="1504.71" y="576.99" width="7.64" height="7.94"/><rect class="cls-3" x="1493.25" y="588.9" width="7.64" height="7.94"/><rect class="cls-3" x="1516.18" y="588.9" width="7.64" height="7.94"/><rect class="cls-3" x="1563.43" y="520.95" width="19.08" height="7.94"/><rect class="cls-3" x="1231.93" y="676.16" width="21.32" height="7.94"/><rect class="cls-3" x="1268.54" y="676.16" width="21.32" height="7.94"/><rect class="cls-3" x="1257.07" y="650.05" width="7.64" height="22.14"/><rect class="cls-3" x="1257.07" y="688.07" width="7.64" height="22.14"/><rect class="cls-3" x="1379.07" y="556.94" width="7.64" height="27.99"/><rect class="cls-3" x="1379.07" y="592.87" width="7.64" height="27.99"/><rect class="cls-3" x="1352.12" y="584.93" width="26.96" height="7.94"/><rect class="cls-3" x="1386.72" y="584.93" width="26.96" height="7.94"/><rect class="cls-3" x="1524.54" y="860.5" width="7.64" height="27.99"/><rect class="cls-3" x="1272.4" y="887.05" width="7.64" height="11.94"/><rect class="cls-3" x="1335.62" y="870.97" width="21.32" height="7.94"/><rect class="cls-3" x="1372.23" y="870.97" width="21.32" height="7.94"/><rect class="cls-3" x="1360.77" y="844.86" width="7.64" height="22.14"/><rect class="cls-3" x="32.75" y="3.57" width="7.64" height="11.94"/><rect class="cls-3" x="53.8" y="304.35" width="11.5" height="7.94"/><rect class="cls-3" x="72.95" y="304.35" width="11.5" height="7.94"/><rect class="cls-3" x="65.3" y="312.29" width="7.64" height="11.94"/><rect class="cls-3" x="65.3" y="292.41" width="7.64" height="11.94"/><rect class="cls-3" x="17.5" y="221.48" width="19.08" height="7.94"/><rect class="cls-3" x="152.7" y="175.53" width="7.64" height="27.99"/><rect class="cls-3" x="152.7" y="211.46" width="7.64" height="27.99"/><rect class="cls-3" x="125.75" y="203.52" width="26.96" height="7.94"/><polygon class="cls-3" points="184.37 211.46 187.31 211.46 187.31 203.52 184.37 203.52 160.35 203.52 160.35 211.46 184.37 211.46"/><rect class="cls-3" x="88.27" y="110.2" width="7.64" height="7.94"/><rect class="cls-3" x="88.27" y="86.38" width="7.64" height="7.94"/><rect class="cls-3" x="76.8" y="98.29" width="7.64" height="7.94"/><rect class="cls-3" x="99.74" y="98.29" width="7.64" height="7.94"/><rect class="cls-3" x="146.99" y="30.34" width="19.08" height="7.94"/><rect class="cls-3" x="127.43" y="352.93" width="7.64" height="27.99"/><rect class="cls-3" x="270.45" y="51.75" width="26.96" height="7.94"/><rect class="cls-3" x="321.44" y="51.75" width="26.96" height="7.94"/><rect class="cls-3" x="305.6" y="15.25" width="7.64" height="27.99"/><rect class="cls-3" x="305.6" y="68.2" width="7.64" height="27.99"/><rect class="cls-3" x="231.13" y="269.7" width="7.64" height="21.4"/><rect class="cls-3" x="231.13" y="317.61" width="7.64" height="21.4"/><rect class="cls-3" x="247.72" y="300.38" width="20.6" height="7.94"/><polygon class="cls-3" points="201.59 300.38 201.59 308.32 204.38 308.32 222.19 308.32 222.19 300.38 204.38 300.38 201.59 300.38"/><rect class="cls-3" x="505.19" y="3.57" width="7.64" height="11.94"/><rect class="cls-3" x="355.22" y="302.35" width="7.64" height="11.94"/><rect class="cls-3" x="355.22" y="270.39" width="7.64" height="11.94"/><rect class="cls-3" x="337.91" y="288.37" width="11.5" height="7.94"/><rect class="cls-3" x="368.68" y="288.37" width="11.5" height="7.94"/><rect class="cls-3" x="526.24" y="304.35" width="11.5" height="7.94"/><rect class="cls-3" x="545.39" y="304.35" width="11.5" height="7.94"/><rect class="cls-3" x="537.74" y="312.29" width="7.64" height="11.94"/><rect class="cls-3" x="537.74" y="292.41" width="7.64" height="11.94"/><rect class="cls-3" x="213.27" y="126.2" width="7.64" height="7.94"/><rect class="cls-3" x="228.56" y="126.2" width="7.64" height="7.94"/><rect class="cls-3" x="220.92" y="134.13" width="7.64" height="7.94"/><rect class="cls-3" x="220.92" y="118.26" width="7.64" height="7.94"/><rect class="cls-3" x="195.87" y="30.34" width="19.08" height="7.94"/><polygon class="cls-3" points="185.21 69.6 185.21 49.79 184.37 49.79 177.57 49.79 177.57 69.6 184.37 69.6 185.21 69.6"/><rect class="cls-3" x="441.05" y="221.48" width="19.08" height="7.94"/><rect class="cls-3" x="489.94" y="221.48" width="19.08" height="7.94"/><rect class="cls-3" x="471.63" y="190.17" width="7.64" height="19.81"/><rect class="cls-3" x="471.63" y="240.93" width="7.64" height="19.81"/><rect class="cls-3" x="625.15" y="175.53" width="7.64" height="27.99"/><rect class="cls-3" x="625.15" y="211.46" width="7.64" height="27.99"/><rect class="cls-3" x="598.19" y="203.52" width="26.96" height="7.94"/><polygon class="cls-3" points="655.93 211.46 656.81 211.46 658.87 211.46 658.87 203.52 656.81 203.52 655.93 203.52 632.79 203.52 632.79 211.46 655.93 211.46"/><rect class="cls-3" x="560.71" y="110.2" width="7.64" height="7.94"/><rect class="cls-3" x="560.71" y="86.38" width="7.64" height="7.94"/><rect class="cls-3" x="549.25" y="98.29" width="7.64" height="7.94"/><rect class="cls-3" x="572.18" y="98.29" width="7.64" height="7.94"/><rect class="cls-3" x="619.43" y="30.34" width="19.08" height="7.94"/><polygon class="cls-3" points="656.77 69.6 656.81 69.6 656.81 49.79 656.77 49.79 655.93 49.79 650.01 49.79 650.01 69.6 655.93 69.6 656.77 69.6"/><rect class="cls-3" x="287.93" y="185.55" width="21.32" height="7.94"/><rect class="cls-3" x="324.54" y="185.55" width="21.32" height="7.94"/><rect class="cls-3" x="313.07" y="159.44" width="7.64" height="22.14"/><rect class="cls-3" x="313.07" y="197.46" width="7.64" height="22.14"/><rect class="cls-3" x="435.07" y="66.33" width="7.64" height="27.99"/><rect class="cls-3" x="435.07" y="102.26" width="7.64" height="27.99"/><rect class="cls-3" x="408.12" y="94.32" width="26.96" height="7.94"/><rect class="cls-3" x="442.72" y="94.32" width="26.96" height="7.94"/><rect class="cls-3" x="580.54" y="369.89" width="7.64" height="27.99"/><polygon class="cls-3" points="280.11 407.32 280.11 405.35 268.6 405.35 268.6 407.32 268.6 413.28 280.11 413.28 280.11 407.32"/><rect class="cls-3" x="280.1" y="393.4" width="7.64" height="11.94"/><rect class="cls-3" x="391.62" y="380.36" width="21.32" height="7.94"/><rect class="cls-3" x="428.23" y="380.36" width="21.32" height="7.94"/><rect class="cls-3" x="416.77" y="354.25" width="7.64" height="22.14"/><polygon class="cls-3" points="416.77 410.36 416.77 414.41 424.41 414.41 424.41 410.36 424.41 392.27 416.77 392.27 416.77 410.36"/><polygon class="cls-3" points="92.28 393.4 92.28 397.37 119.24 397.37 119.24 393.4 119.24 389.43 92.28 389.43 92.28 393.4"/><polygon class="cls-3" points="170.23 393.4 170.23 389.43 143.27 389.43 143.27 393.4 143.27 397.37 170.23 397.37 170.23 393.4"/><rect class="cls-3" x="127.43" y="405.88" width="7.64" height="27.99"/><polygon class="cls-3" points="181.58 806.24 181.58 814.18 184.37 814.18 202.18 814.18 202.18 806.24 184.37 806.24 181.58 806.24"/><rect class="cls-3" x="32.75" y="494.18" width="7.64" height="11.94"/><rect class="cls-3" x="32.75" y="462.22" width="7.64" height="11.94"/><rect class="cls-3" x="15.44" y="480.2" width="11.5" height="7.94"/><rect class="cls-3" x="46.21" y="480.2" width="11.5" height="7.94"/><rect class="cls-3" x="53.8" y="794.96" width="11.5" height="7.94"/><rect class="cls-3" x="72.95" y="794.96" width="11.5" height="7.94"/><rect class="cls-3" x="65.3" y="802.9" width="7.64" height="11.94"/><rect class="cls-3" x="65.3" y="783.02" width="7.64" height="11.94"/><rect class="cls-3" x="17.5" y="712.1" width="19.08" height="7.94"/><rect class="cls-3" x="152.7" y="666.14" width="7.64" height="27.99"/><rect class="cls-3" x="152.7" y="702.07" width="7.64" height="27.99"/><rect class="cls-3" x="125.75" y="694.13" width="26.96" height="7.94"/><rect class="cls-3" x="95.92" y="606.99" width="7.64" height="7.94"/><rect class="cls-3" x="95.92" y="583.18" width="7.64" height="7.94"/><rect class="cls-3" x="84.45" y="595.09" width="7.64" height="7.94"/><rect class="cls-3" x="107.38" y="595.09" width="7.64" height="7.94"/><rect class="cls-3" x="108.1" y="860.5" width="7.64" height="27.99"/><polygon class="cls-3" points="191.13 477.73 183.48 477.73 183.48 485.75 183.48 505.72 191.13 505.72 191.13 485.75 191.13 477.73"/><rect class="cls-3" x="183.48" y="513.66" width="7.64" height="27.99"/><rect class="cls-3" x="156.53" y="505.72" width="26.96" height="7.94"/><rect class="cls-3" x="191.13" y="505.72" width="26.96" height="7.94"/><polygon class="cls-3" points="187.31 702.07 187.31 694.13 184.37 694.13 160.35 694.13 160.35 702.07 184.37 702.07 187.31 702.07"/><polygon class="cls-3" points="572.34 410.36 572.34 406.39 545.39 406.39 545.39 410.36 545.39 414.33 572.34 414.33 572.34 410.36"/><polygon class="cls-3" points="623.34 410.36 623.34 406.39 596.38 406.39 596.38 410.36 596.38 414.33 623.34 414.33 623.34 410.36"/><rect class="cls-3" x="580.54" y="422.84" width="7.64" height="27.99"/><rect class="cls-3" x="270.45" y="542.37" width="26.96" height="7.94"/><rect class="cls-3" x="321.44" y="542.37" width="26.96" height="7.94"/><rect class="cls-3" x="305.6" y="505.86" width="7.64" height="27.99"/><rect class="cls-3" x="305.6" y="558.82" width="7.64" height="27.99"/><rect class="cls-3" x="211.13" y="775.56" width="7.64" height="21.4"/><rect class="cls-3" x="211.13" y="823.47" width="7.64" height="21.39"/><rect class="cls-3" x="227.71" y="806.24" width="20.6" height="7.94"/><polygon class="cls-3" points="655.93 806.24 654.02 806.24 654.02 814.18 655.93 814.18 656.81 814.18 673.74 814.18 673.74 806.24 656.81 806.24 655.93 806.24"/><rect class="cls-3" x="505.19" y="494.18" width="7.64" height="11.94"/><rect class="cls-3" x="505.19" y="462.22" width="7.64" height="11.94"/><rect class="cls-3" x="487.88" y="480.2" width="11.5" height="7.94"/><rect class="cls-3" x="518.65" y="480.2" width="11.5" height="7.94"/><rect class="cls-3" x="355.22" y="792.96" width="7.64" height="11.94"/><rect class="cls-3" x="355.22" y="761.01" width="7.64" height="11.94"/><rect class="cls-3" x="337.91" y="778.99" width="11.5" height="7.94"/><rect class="cls-3" x="368.68" y="778.99" width="11.5" height="7.94"/><polygon class="cls-3" points="287.75 413.28 299.25 413.28 299.25 407.32 299.25 405.35 287.75 405.35 287.75 407.32 287.75 413.28"/><rect class="cls-3" x="280.1" y="413.28" width="7.64" height="11.94"/><rect class="cls-3" x="526.24" y="794.96" width="11.5" height="7.94"/><rect class="cls-3" x="545.39" y="794.96" width="11.5" height="7.94"/><rect class="cls-3" x="537.74" y="802.9" width="7.64" height="11.94"/><rect class="cls-3" x="537.74" y="783.02" width="7.64" height="11.94"/><rect class="cls-3" x="203.6" y="611.41" width="7.64" height="7.94"/><rect class="cls-3" x="218.89" y="611.41" width="7.64" height="7.94"/><rect class="cls-3" x="211.24" y="619.35" width="7.64" height="7.94"/><rect class="cls-3" x="211.24" y="603.47" width="7.64" height="7.94"/><rect class="cls-3" x="396.65" y="477.73" width="7.64" height="7.94"/><rect class="cls-3" x="411.94" y="477.73" width="7.64" height="7.94"/><rect class="cls-3" x="404.3" y="485.67" width="7.64" height="7.94"/><rect class="cls-3" x="404.3" y="469.79" width="7.64" height="7.94"/><rect class="cls-3" x="441.05" y="712.1" width="19.08" height="7.94"/><rect class="cls-3" x="489.94" y="712.1" width="19.08" height="7.94"/><rect class="cls-3" x="471.63" y="680.78" width="7.64" height="19.81"/><rect class="cls-3" x="471.63" y="731.54" width="7.64" height="19.81"/><rect class="cls-3" x="625.15" y="666.14" width="7.64" height="27.99"/><rect class="cls-3" x="625.15" y="702.07" width="7.64" height="27.99"/><rect class="cls-3" x="598.19" y="694.13" width="26.96" height="7.94"/><polygon class="cls-3" points="656.81 702.07 658.87 702.07 658.87 694.13 656.81 694.13 655.93 694.13 632.79 694.13 632.79 702.07 655.93 702.07 656.81 702.07"/><rect class="cls-3" x="560.71" y="600.81" width="7.64" height="7.94"/><rect class="cls-3" x="560.71" y="576.99" width="7.64" height="7.94"/><rect class="cls-3" x="549.25" y="588.9" width="7.64" height="7.94"/><rect class="cls-3" x="572.18" y="588.9" width="7.64" height="7.94"/><rect class="cls-3" x="619.43" y="520.95" width="19.08" height="7.94"/><polygon class="cls-3" points="656.81 489.64 656.77 489.64 655.93 489.64 650.01 489.64 650.01 509.45 655.93 509.45 656.77 509.45 656.81 509.45 656.81 489.64"/><polygon class="cls-3" points="655.93 540.4 650.01 540.4 650.01 560.21 655.93 560.21 656.77 560.21 656.81 560.21 656.81 540.4 656.77 540.4 655.93 540.4"/><rect class="cls-3" x="287.93" y="676.16" width="21.32" height="7.94"/><rect class="cls-3" x="324.54" y="676.16" width="21.32" height="7.94"/><rect class="cls-3" x="313.07" y="650.05" width="7.64" height="22.14"/><rect class="cls-3" x="313.07" y="688.07" width="7.64" height="22.14"/><rect class="cls-3" x="435.07" y="556.94" width="7.64" height="27.99"/><rect class="cls-3" x="435.07" y="592.87" width="7.64" height="27.99"/><rect class="cls-3" x="408.12" y="584.93" width="26.96" height="7.94"/><rect class="cls-3" x="442.72" y="584.93" width="26.96" height="7.94"/><rect class="cls-3" x="580.54" y="860.5" width="7.64" height="27.99"/><rect class="cls-3" x="328.4" y="887.05" width="7.64" height="11.94"/><rect class="cls-3" x="391.62" y="870.97" width="21.32" height="7.94"/><rect class="cls-3" x="428.23" y="870.97" width="21.32" height="7.94"/><rect class="cls-3" x="416.77" y="844.86" width="7.64" height="22.14"/></g></g></svg>