<svg xmlns="http://www.w3.org/2000/svg" viewBox="0 0 1600 900"><defs><style>.cls-1{fill:#00aff2;}.cls-2{opacity:0.06;}.cls-3{fill:#fff;}</style></defs><g id="Layer_3" data-name="Layer 3"><rect class="cls-1" width="1600" height="900"/><g class="cls-2"><path class="cls-3" d="M186.24,113.18a27.58,27.58,0,0,0,8.61,1.91,28.22,28.22,0,0,0-8.14,3.49c-5.62,4-6.35,6.88-7.92,11.24-1.21,4.23-1.8,8.59,1.21,12.66,3.48,3.64,7.71,3.61,11.91,2.92,4.36-1.05,7.2-1.41,11.75-6.68a30,30,0,0,0,4.41-7.93,30.85,30.85,0,0,0,.68,9.13c1.92,6.8,4.33,8.41,7.82,11.31,3.5,2.5,7.31,4.44,12,2.72,4.4-2.32,5.69-6.52,6.35-10.88.39-4.63.93-7.56-2.48-13.69a29.64,29.64,0,0,0-5.88-6.81,27.67,27.67,0,0,0,8.55,2.15c6.81.2,9-1.68,12.76-4.25,3.38-2.68,6.32-5.85,6.18-11-.75-5.07-4.2-7.64-8-9.64-4.12-1.82-6.63-3.26-13.29-1.78a28,28,0,0,0-8,3.72,29.85,29.85,0,0,0,4.6-7.8c2.3-6.68,1.25-9.45.07-13.94-1.41-4.16-3.41-8-8.14-9.5-4.87-.82-8.28,1.8-11.28,4.92-2.94,3.51-5,5.54-5.74,12.59a30.76,30.76,0,0,0,.92,9.1,29.53,29.53,0,0,0-5.71-7c-5.4-4.33-8.26-4.16-12.73-4.37-4.24.11-8.41.88-11.2,5.11-2.26,4.56-.92,8.75,1,12.68C178.8,107.61,180,110.3,186.24,113.18Zm16.49-1.85a9.29,9.29,0,0,1,11.11-7.28,9.67,9.67,0,0,1,7,11.55,9.29,9.29,0,0,1-11.11,7.28A9.68,9.68,0,0,1,202.73,111.33Z"/><path class="cls-3" d="M73.45,9.65c3.88,2.31,6.21,4,13,3.39a27.65,27.65,0,0,0,8.4-2.7,29.39,29.39,0,0,0-5.45,7.18c-3,6.34-2.31,9.23-1.64,13.83.93,4.3,2.47,8.41,7,10.43,4.75,1.41,8.43-.77,11.77-3.5,3.31-3.13,5.62-4.9,7.12-11.81a31.07,31.07,0,0,0,.12-9.15,29.42,29.42,0,0,0,4.88,7.62c4.87,5,7.73,5.13,12.14,5.89,4.23.41,8.46.16,11.71-3.7,2.75-4.26,1.9-8.58.43-12.72-1.84-4.24-2.74-7.07-8.6-10.69A28.13,28.13,0,0,0,126,.77,28.7,28.7,0,0,0,129.89,0H118.13a9.62,9.62,0,0,1-6.64,9.57A9.23,9.23,0,0,1,100,3.05a10,10,0,0,1-.37-3H66.71C67.21,4.57,70.14,7.35,73.45,9.65Z"/><path class="cls-3" d="M298.09,31.3c4.4-.82,7.26-1,12.06-6.07a30,30,0,0,0,4.78-7.69,30.81,30.81,0,0,0,.24,9.15c1.6,6.89,3.93,8.62,7.28,11.7,3.37,2.68,7.09,4.81,11.81,3.33,4.51-2.09,6-6.22,6.86-10.53.61-4.61,1.29-7.51-1.82-13.81a29.46,29.46,0,0,0-5.55-7.1,27.83,27.83,0,0,0,8.44,2.59c6.79.55,9.1-1.22,12.95-3.59,3.17-2.27,6-5,6.56-9.28h-33a10.17,10.17,0,0,1-.33,3A9.24,9.24,0,0,1,317,9.72,9.62,9.62,0,0,1,310.2,0H297.05a28.72,28.72,0,0,0,5.42,1.18,27.82,27.82,0,0,0-8.29,3.06c-5.81,3.71-6.67,6.55-8.45,10.82-1.41,4.16-2.21,8.49.6,12.71C289.64,31.58,293.87,31.77,298.09,31.3Z"/><path class="cls-3" d="M132.35,871c-4.45.5-7.31.52-12.43,5.19a29.69,29.69,0,0,0-5.27,7.33,30.79,30.79,0,0,0,.35-9.14c-1.13-7-3.34-8.88-6.49-12.19-3.19-2.92-6.75-5.3-11.56-4.16-4.64,1.76-6.39,5.78-7.54,10-.91,4.56-1.78,7.4.91,13.91a29.7,29.7,0,0,0,5.08,7.47,28.15,28.15,0,0,0-8.26-3.18c-6.74-1-9.15.57-13.15,2.66-3.65,2.25-6.93,5-7.38,10.15,0,.32.07.6.1.9H99.59a9.6,9.6,0,0,1,6.65-8.94,9.22,9.22,0,0,1,11.52,6.52,10.22,10.22,0,0,1,.37,2.42h11.76a27.09,27.09,0,0,0,4.58-1.7c6-3.28,7.09-6,9.14-10.19,1.69-4.05,2.76-8.31.24-12.72C140.8,871.35,136.59,870.86,132.35,871Z"/><path class="cls-3" d="M354.32,888.59c-4-2-6.47-3.59-13.19-2.46a27.55,27.55,0,0,0-8.21,3.3,29.57,29.57,0,0,0,5-7.55c2.61-6.55,1.7-9.38.73-13.92-1.21-4.23-3-8.22-7.67-9.91-4.83-1.07-8.36,1.37-11.51,4.33-3.1,3.35-5.28,5.28-6.33,12.28a31.05,31.05,0,0,0,.48,9.14,29.41,29.41,0,0,0-5.37-7.25c-5.18-4.6-8-4.58-12.5-5-4.24-.11-8.45.44-11.43,4.53-2.47,4.44-1.34,8.69.4,12.71,2.11,4.1,3.2,6.86,9.28,10.06a27.72,27.72,0,0,0,3.08,1.17H310.2a10.35,10.35,0,0,1,.32-2.18A9.25,9.25,0,0,1,322,891.13a9.59,9.59,0,0,1,6.77,8.87h33a11.79,11.79,0,0,0,.13-1.37C361.32,893.53,358,890.79,354.32,888.59Z"/><path class="cls-3" d="M176.61,311.87c-2.62,4.35-1.63,8.63,0,12.72,2,4.18,3,7,8.92,10.4a27.64,27.64,0,0,0,8.42,2.66,27.87,27.87,0,0,0-8.39,2.76c-5.93,3.48-6.89,6.29-8.82,10.49-1.55,4.11-2.5,8.4.17,12.72,3.16,3.94,7.39,4.28,11.62,4,4.43-.66,7.29-.77,12.27-5.62a29.68,29.68,0,0,0,5-7.5,30.74,30.74,0,0,0-.08,9.15c1.36,6.95,3.63,8.76,6.87,12,3.28,2.8,6.92,5.07,11.69,3.77,4.58-1.92,6.2-6,7.22-10.28.77-4.58,1.55-7.45-1.34-13.86a29.57,29.57,0,0,0-5.31-7.3,28.19,28.19,0,0,0,8.35,2.9c6.77.8,9.13-.88,13.06-3.1,3.58-2.37,6.77-5.27,7.06-10.4-.34-5.11-3.56-8-7.16-10.31-4-2.18-6.34-3.84-13.1-3a27.65,27.65,0,0,0-8.32,3,29.52,29.52,0,0,0,5.23-7.36c2.83-6.45,2-9.31,1.21-13.88-1.06-4.28-2.73-8.33-7.33-10.2-4.78-1.24-8.4,1.06-11.64,3.9-3.22,3.24-5.47,5.08-6.75,12a30.81,30.81,0,0,0,.16,9.15,29.75,29.75,0,0,0-5.11-7.45c-5-4.79-7.89-4.87-12.32-5.48C184,307.51,179.74,307.9,176.61,311.87Zm25.47,22.73a9.22,9.22,0,0,1,11.67-6.26,9.74,9.74,0,0,1,6,12.13,9.23,9.23,0,0,1-11.67,6.26A9.74,9.74,0,0,1,202.08,334.6Z"/><path class="cls-3" d="M134.82,201.79c-4.47-.21-7.3-.65-13,3.15a28.77,28.77,0,0,0-6.29,6.4,30.71,30.71,0,0,0,1.7-9c-.09-7.09-2-9.31-4.61-13.08-2.72-3.39-5.89-6.32-10.81-6-4.84,1-7.17,4.69-8.93,8.7-1.58,4.35-2.85,7-1.16,13.88a30.13,30.13,0,0,0,3.91,8.2,28.11,28.11,0,0,0-7.68-4.46c-6.51-2.1-9.13-.9-13.39.52-3.94,1.64-7.6,3.87-8.8,8.85-.58,5.1,2.08,8.53,5.2,11.52,3.5,2.9,5.54,5,12.34,5.43A27.51,27.51,0,0,0,92,234.63a28.81,28.81,0,0,0-6.45,6.22c-3.94,5.79-3.65,8.75-3.67,13.4.29,4.41,1.2,8.71,5.38,11.43,4.48,2.15,8.44.59,12.14-1.58,3.74-2.56,6.28-3.93,8.78-10.52a30.74,30.74,0,0,0,1.48-9,30.07,30.07,0,0,0,3.69,8.31c4.08,5.68,6.88,6.31,11.13,7.77,4.11,1.08,8.33,1.5,12.11-1.79,3.35-3.77,3.15-8.17,2.31-12.5-1.19-4.48-1.66-7.42-6.91-11.93a28.16,28.16,0,0,0-7.8-4.25,27.59,27.59,0,0,0,8.74-1.09c6.45-2.28,7.9-4.85,10.54-8.6,2.26-3.74,3.95-7.78,2.11-12.54C143.13,203.46,139,202.3,134.82,201.79Zm-26.31,34.74a9.34,9.34,0,0,1-10.42-8.29,9.59,9.59,0,0,1,8-10.84,9.35,9.35,0,0,1,10.42,8.29A9.58,9.58,0,0,1,108.51,236.53Z"/><path class="cls-3" d="M290.49,237.72c4.12,1.81,6.63,3.24,13.29,1.74a28,28,0,0,0,8-3.74,29.48,29.48,0,0,0-4.59,7.81c-2.28,6.68-1.23,9.45,0,13.94,1.42,4.15,3.43,8,8.16,9.48,4.88.8,8.28-1.82,11.28-4.95,2.92-3.52,5-5.56,5.7-12.61a31,31,0,0,0-.94-9.1,29.38,29.38,0,0,0,5.73,7c5.4,4.31,8.26,4.13,12.73,4.33,4.24-.12,8.42-.9,11.19-5.14,2.24-4.57.9-8.75-1-12.68-2.31-4-3.53-6.67-9.77-9.53a27.28,27.28,0,0,0-8.61-1.89,27.73,27.73,0,0,0,8.12-3.51c5.62-4,6.34-6.9,7.9-11.26,1.2-4.23,1.78-8.6-1.24-12.66-3.49-3.63-7.73-3.59-11.92-2.89-4.35,1.06-7.2,1.44-11.74,6.72a29.86,29.86,0,0,0-4.38,7.94,30.63,30.63,0,0,0-.71-9.13c-1.93-6.79-4.35-8.39-7.85-11.29-3.5-2.49-7.32-4.41-12-2.68-4.4,2.33-5.67,6.53-6.33,10.9-.37,4.63-.91,7.56,2.52,13.68a29.32,29.32,0,0,0,5.9,6.79,27.42,27.42,0,0,0-8.56-2.12c-6.81-.19-9,1.71-12.75,4.28-3.37,2.69-6.3,5.87-6.15,11C283.25,233.17,286.7,235.72,290.49,237.72Zm28-21a9,9,0,0,1,13.1.87,9.93,9.93,0,0,1-.84,13.62,9,9,0,0,1-13.09-.87A9.91,9.91,0,0,1,318.45,216.69Z"/><path class="cls-3" d="M251.82,551.37c1.75-4,2.89-8.27.43-12.72-3-4.08-7.18-4.65-11.43-4.54-4.45.43-7.32.4-12.51,5a29.51,29.51,0,0,0-5.38,7.24,31,31,0,0,0,.5-9.14c-1-7-3.21-8.94-6.31-12.3-3.14-3-6.67-5.41-11.49-4.35-4.66,1.68-6.48,5.67-7.7,9.89-1,4.54-1.89,7.37.7,13.92a29.72,29.72,0,0,0,5,7.56,28.13,28.13,0,0,0-8.2-3.32c-6.73-1.14-9.17.42-13.2,2.44-3.68,2.19-7,4.92-7.53,10,.1,5.12,3.18,8.15,6.67,10.66,3.85,2.37,6.15,4.15,12.95,3.61a27.65,27.65,0,0,0,8.44-2.57,29.4,29.4,0,0,0-5.56,7.09c-3.13,6.3-2.46,9.19-1.86,13.8.87,4.32,2.34,8.46,6.85,10.55,4.72,1.49,8.44-.63,11.81-3.3,3.36-3.07,5.7-4.8,7.3-11.69a30.57,30.57,0,0,0,.27-9.15,29.61,29.61,0,0,0,4.76,7.7c4.79,5,7.65,5.27,12.05,6.1,4.22.48,8.45.3,11.76-3.51,2.82-4.21,2-8.54.63-12.71-1.77-4.27-2.63-7.11-8.43-10.83a27.64,27.64,0,0,0-8.29-3.08,27.64,27.64,0,0,0,8.51-2.34C248.61,558.22,249.7,555.47,251.82,551.37Zm-32.45,20.92a9.25,9.25,0,0,1-11.43-6.72,9.71,9.71,0,0,1,6.46-11.88,9.24,9.24,0,0,1,11.43,6.72A9.71,9.71,0,0,1,219.37,572.29Z"/><path class="cls-3" d="M68.32,461.33c-1.72,4-2.85,8.29-.37,12.72,3,4.08,7.2,4.62,11.45,4.5,4.45-.45,7.31-.44,12.49-5.05a29.84,29.84,0,0,0,5.35-7.26,30.77,30.77,0,0,0-.46,9.14c1.06,7,3.25,8.92,6.35,12.27,3.16,3,6.7,5.38,11.52,4.3,4.65-1.71,6.45-5.7,7.65-9.93,1-4.55,1.86-7.37-.76-13.92a30,30,0,0,0-5-7.54,27.47,27.47,0,0,0,8.22,3.28c6.73,1.12,9.16-.45,13.18-2.49,3.68-2.21,7-5,7.5-10.06-.13-5.13-3.22-8.14-6.72-10.63-3.86-2.36-6.17-4.13-13-3.56a27.81,27.81,0,0,0-8.44,2.61,29.72,29.72,0,0,0,5.54-7.11c3.1-6.31,2.42-9.21,1.79-13.81-.88-4.32-2.37-8.45-6.88-10.52-4.73-1.47-8.44.67-11.8,3.36-3.35,3.08-5.68,4.82-7.26,11.71a31.08,31.08,0,0,0-.22,9.15,29.94,29.94,0,0,0-4.79-7.67c-4.82-5-7.67-5.23-12.08-6-4.22-.46-8.45-.27-11.75,3.56-2.8,4.22-2,8.55-.57,12.71,1.79,4.26,2.66,7.1,8.47,10.79a27.91,27.91,0,0,0,8.3,3.05,27.8,27.8,0,0,0-8.5,2.37C71.5,454.47,70.43,457.23,68.32,461.33Zm26-15.11a9.18,9.18,0,0,1,11.92-5.72,9.76,9.76,0,0,1,5.5,12.39,9.19,9.19,0,0,1-11.92,5.72A9.76,9.76,0,0,1,94.36,446.22Z"/><path class="cls-3" d="M360,438.05c1.68-4.06,2.75-8.32.21-12.72-3-4-7.26-4.52-11.5-4.34-4.45.51-7.31.53-12.42,5.21a29.4,29.4,0,0,0-5.26,7.34,30.89,30.89,0,0,0,.34-9.15c-1.15-7-3.36-8.87-6.51-12.17-3.19-2.92-6.76-5.29-11.57-4.15-4.63,1.77-6.37,5.79-7.52,10-.91,4.55-1.77,7.39.93,13.9a29.45,29.45,0,0,0,5.09,7.47,27.88,27.88,0,0,0-8.26-3.17c-6.75-1-9.16.58-13.15,2.67-3.65,2.26-6.93,5.06-7.37,10.17.19,5.12,3.32,8.09,6.85,10.54,3.89,2.3,6.22,4,13,3.37a27.73,27.73,0,0,0,8.4-2.72,29.66,29.66,0,0,0-5.45,7.19c-3,6.35-2.3,9.23-1.62,13.83.94,4.31,2.48,8.41,7,10.43,4.75,1.4,8.43-.79,11.76-3.52,3.31-3.14,5.61-4.91,7.1-11.82a30.37,30.37,0,0,0,.11-9.15,29.88,29.88,0,0,0,4.89,7.61c4.88,4.95,7.74,5.12,12.15,5.87,4.23.41,8.46.15,11.7-3.72,2.75-4.26,1.89-8.57.42-12.71-1.84-4.24-2.75-7.07-8.61-10.68a27.94,27.94,0,0,0-8.34-2.94,27.43,27.43,0,0,0,8.47-2.48C356.89,445,357.93,442.18,360,438.05Zm-32.1,21.5a9.22,9.22,0,0,1-11.53-6.5,9.71,9.71,0,0,1,6.25-12,9.23,9.23,0,0,1,11.54,6.5A9.71,9.71,0,0,1,327.88,459.55Z"/><path class="cls-3" d="M390.87,339.61c.62,5.09,4,7.75,7.73,9.87,4.07,1.93,6.54,3.44,13.24,2.15a27.66,27.66,0,0,0,8.13-3.49,30.16,30.16,0,0,0-4.81,7.66c-2.46,6.61-1.49,9.42-.42,13.93,1.3,4.2,3.19,8.15,7.88,9.73a10.19,10.19,0,0,0,7.91-1.68,23.4,23.4,0,0,0,3.5-2.91c3-3.43,5.17-5.41,6.06-12.43a30.72,30.72,0,0,0-.67-9.13,29.2,29.2,0,0,0,5.52,7.13c5.28,4.48,8.15,4.39,12.61,4.72,4.24,0,8.43-.64,11.33-4.79,2.37-4.5,1.15-8.72-.67-12.7-2.2-4.05-3.35-6.79-9.5-9.84a27.52,27.52,0,0,0-8.55-2.15,27.9,27.9,0,0,0,8.22-3.26c5.73-3.84,6.53-6.7,8.22-11,1.32-4.19,2-8.54-.88-12.69-3.38-3.73-7.62-3.83-11.83-3.25-4.39.92-7.24,1.21-11.93,6.35a29.84,29.84,0,0,0-4.61,7.79,30.76,30.76,0,0,0-.44-9.14c-1.54-6.05-3.57-8.07-6.38-10.52l-1.15-1c-3.43-2.6-7.19-4.64-11.88-3.05-4.46,2.19-5.85,6.36-6.63,10.69-.51,4.63-1.13,7.53,2.12,13.76a29.08,29.08,0,0,0,5.71,7,27.76,27.76,0,0,0-8.5-2.39c-6.8-.39-9.07,1.43-12.87,3.89C393.89,331.39,390.87,334.48,390.87,339.61Zm38.76-11.74c.3-.12.6-.23.9-.32a9.21,9.21,0,0,1,11.15,5.73,9.78,9.78,0,0,1-5.21,12.53,8.9,8.9,0,0,1-5.94.31,9.38,9.38,0,0,1-6.1-5.72A9.77,9.77,0,0,1,429.63,327.87Z"/><path class="cls-3" d="M392.86,552.79c2.23,4,3.4,6.75,9.58,9.74a27.37,27.37,0,0,0,8.57,2.06,28.22,28.22,0,0,0-8.19,3.35c-5.69,3.89-6.47,6.76-8.11,11.09-1.28,4.2-1.95,8.56,1,12.68,3.42,3.7,7.66,3.75,11.86,3.14,4.38-1,7.23-1.29,11.87-6.47a29.83,29.83,0,0,0,4.54-7.85,30.72,30.72,0,0,0,.53,9.14c1.51,5.72,3.42,7.81,6,10.08l1.6,1.37c3.45,2.57,7.23,4.57,11.91,2.93,4.44-2.23,5.79-6.41,6.53-10.75.47-4.63,1.06-7.55-2.25-13.74a29.44,29.44,0,0,0-5.77-6.91,27.78,27.78,0,0,0,8.52,2.3c6.81.33,9.05-1.52,12.83-4,3.42-2.62,6.41-5.74,6.36-10.87-.67-5.08-4.07-7.71-7.82-9.79-4.08-1.89-6.57-3.37-13.26-2a28,28,0,0,0-8.1,3.57,29.49,29.49,0,0,0,4.74-7.71c2.4-6.63,1.41-9.42.29-13.93-1.34-4.19-3.26-8.12-8-9.65a10.11,10.11,0,0,0-7.61,1.58,22.56,22.56,0,0,0-3.76,3.13c-3,3.46-5.12,5.45-5.94,12.49a30.63,30.63,0,0,0,.76,9.11,29.42,29.42,0,0,0-5.59-7.06c-5.32-4.43-8.18-4.31-12.65-4.6-4.24,0-8.43.72-11.29,4.9C389.73,544.62,391,548.82,392.86,552.79ZM419,561a9.27,9.27,0,0,1,11.22-7.07l.35.11A9.68,9.68,0,0,1,437,565.58a9.46,9.46,0,0,1-6.45,7,8.86,8.86,0,0,1-4.77.11A9.68,9.68,0,0,1,419,561Z"/><path class="cls-3" d="M248,779.76c-3.71-2.6-5.92-4.5-12.73-4.36a27.41,27.41,0,0,0-8.57,2.07,29.19,29.19,0,0,0,5.94-6.76c3.46-6.1,2.95-9,2.6-13.67-.63-4.36-1.88-8.57-6.27-10.93-4.63-1.76-8.46.14-12,2.61-3.52,2.87-5.95,4.46-7.92,11.24a30.73,30.73,0,0,0-.76,9.12,29.87,29.87,0,0,0-4.34-8c-4.51-5.31-7.35-5.71-11.7-6.79-4.19-.73-8.42-.8-11.93,2.81-3,4-2.49,8.41-1.32,12.65,1.54,4.37,2.24,7.26,7.84,11.31a27.78,27.78,0,0,0,8.1,3.56,27.71,27.71,0,0,0-8.62,1.83c-6.25,2.83-7.49,5.51-9.83,9.48-2,3.91-3.33,8.09-1.11,12.67,2.75,4.26,6.92,5.06,11.16,5.21,4.47-.17,7.33,0,12.76-4.25a29.34,29.34,0,0,0,5.77-6.92,30.54,30.54,0,0,0-1,9.1c.65,7.05,2.72,9.1,5.63,12.64,3,3.15,6.36,5.79,11.24,5,4.75-1.41,6.77-5.28,8.22-9.43,1.22-4.48,2.28-7.24,0-13.94a30.28,30.28,0,0,0-4.54-7.84,27.78,27.78,0,0,0,8,3.79c6.65,1.54,9.17.13,13.3-1.66,3.8-2,7.27-4.5,8.07-9.57C254.24,785.67,251.33,782.47,248,779.76Zm-26.8,7.55A9.38,9.38,0,0,1,211,796a9.56,9.56,0,0,1-8.32-10.56,9.39,9.39,0,0,1,10.16-8.64A9.55,9.55,0,0,1,221.18,787.31Z"/><path class="cls-3" d="M134.28,675.83a27.87,27.87,0,0,0-8.53-2.27,27.74,27.74,0,0,0,8.27-3.14c5.78-3.76,6.61-6.61,8.36-10.89,1.37-4.18,2.13-8.52-.72-12.71-3.33-3.78-7.57-3.93-11.79-3.42-4.39.87-7.25,1.11-12,6.19a29.59,29.59,0,0,0-4.71,7.73,30.78,30.78,0,0,0-.33-9.15c-1.65-6.87-4-8.58-7.38-11.63-3.39-2.65-7.12-4.74-11.84-3.22-4.48,2.13-5.93,6.27-6.77,10.6-.57,4.62-1.22,7.52,2,13.79a29.44,29.44,0,0,0,5.61,7,27.57,27.57,0,0,0-8.46-2.51c-6.8-.49-9.09,1.3-12.92,3.7-3.47,2.54-6.54,5.59-6.6,10.72.56,5.09,3.9,7.81,7.6,10,4,2,6.5,3.53,13.21,2.34a27.86,27.86,0,0,0,8.18-3.38,29.88,29.88,0,0,0-4.91,7.6c-2.54,6.57-1.61,9.39-.6,13.92,1.25,4.22,3.09,8.19,7.76,9.84,4.83,1,8.35-1.45,11.47-4.44,3.07-3.38,5.23-5.33,6.22-12.34a31.15,31.15,0,0,0-.56-9.14,29.28,29.28,0,0,0,5.43,7.21c5.22,4.55,8.09,4.5,12.54,4.9,4.25.07,8.45-.53,11.4-4.64,2.43-4.46,1.26-8.7-.51-12.71C141.5,681.72,140.39,679,134.28,675.83Zm-22.34,7.67a9.18,9.18,0,0,1-12-5.58,9.77,9.77,0,0,1,5.37-12.45,9.17,9.17,0,0,1,12,5.57A9.78,9.78,0,0,1,111.94,683.5Z"/><path class="cls-3" d="M354.14,661.82c-4.15-1.72-6.69-3.11-13.32-1.48a28.12,28.12,0,0,0-8,3.89,30.16,30.16,0,0,0,4.44-7.89c2.15-6.73,1.06-9.48-.22-13.94-1.5-4.13-3.57-8-8.33-9.32-4.89-.71-8.25,2-11.19,5.17-2.86,3.57-4.91,5.66-5.47,12.72a30.79,30.79,0,0,0,1.1,9.08,29.22,29.22,0,0,0-5.85-6.84c-5.48-4.21-8.34-4-12.81-4.08-4.24.2-8.4,1.06-11.1,5.36-2.15,4.61-.73,8.76,1.27,12.65,2.39,3.94,3.66,6.61,9.94,9.34a27.48,27.48,0,0,0,8.65,1.72,27.79,27.79,0,0,0-8.06,3.67c-5.54,4.13-6.21,7-7.69,11.41-1.13,4.26-1.63,8.64,1.47,12.64,3.55,3.55,7.79,3.43,12,2.65,4.34-1.14,7.17-1.58,11.62-6.94a30.29,30.29,0,0,0,4.24-8,30.7,30.7,0,0,0,.87,9.1c2.06,6.76,4.5,8.31,8.06,11.14,3.54,2.42,7.39,4.27,12,2.45,4.36-2.42,5.55-6.65,6.13-11,.29-4.64.77-7.58-2.76-13.63a29,29,0,0,0-6-6.68,27.54,27.54,0,0,0,8.6,2c6.82.05,9-1.88,12.67-4.53,3.32-2.76,6.2-6,5.95-11.12C361.46,666.23,358,663.74,354.14,661.82Zm-24.87,16.31a9.29,9.29,0,0,1-10.95,7.52,9.65,9.65,0,0,1-7.23-11.39,9.3,9.3,0,0,1,11-7.52A9.64,9.64,0,0,1,329.27,678.13Z"/><path class="cls-3" d="M430.53,235.5a10.51,10.51,0,1,0-10.1-10.5A10.3,10.3,0,0,0,430.53,235.5Z"/><path class="cls-3" d="M214.16,235.5A10.51,10.51,0,1,0,204.07,225,10.3,10.3,0,0,0,214.16,235.5Z"/><path class="cls-3" d="M430.53,10.5A10.3,10.3,0,0,0,440.63,0h-20.2A10.3,10.3,0,0,0,430.53,10.5Z"/><path class="cls-3" d="M214.16,10.5A10.3,10.3,0,0,0,224.26,0H204.07A10.3,10.3,0,0,0,214.16,10.5Z"/><path class="cls-3" d="M214.16,889.5A10.3,10.3,0,0,0,204.07,900h20.19A10.3,10.3,0,0,0,214.16,889.5Z"/><path class="cls-3" d="M106,102a10.51,10.51,0,1,0,10.1,10.5A10.3,10.3,0,0,0,106,102Z"/><path class="cls-3" d="M322.35,102a10.51,10.51,0,1,0,10.09,10.5A10.3,10.3,0,0,0,322.35,102Z"/><path class="cls-3" d="M106,348a10.51,10.51,0,1,0-10.1-10.5A10.3,10.3,0,0,0,106,348Z"/><path class="cls-3" d="M322.35,348a10.51,10.51,0,1,0-10.1-10.5A10.3,10.3,0,0,0,322.35,348Z"/><path class="cls-3" d="M214.16,439.5a10.51,10.51,0,1,0,10.1,10.5A10.3,10.3,0,0,0,214.16,439.5Z"/><path class="cls-3" d="M106,552a10.51,10.51,0,1,0,10.1,10.5A10.3,10.3,0,0,0,106,552Z"/><path class="cls-3" d="M322.35,552a10.51,10.51,0,1,0,10.09,10.5A10.3,10.3,0,0,0,322.35,552Z"/><path class="cls-3" d="M420.43,675a10.11,10.11,0,1,0,10.1-10.5A10.3,10.3,0,0,0,420.43,675Z"/><path class="cls-3" d="M214.16,664.5a10.51,10.51,0,1,0,10.1,10.5A10.3,10.3,0,0,0,214.16,664.5Z"/><path class="cls-3" d="M106,798a10.51,10.51,0,1,0-10.1-10.5A10.3,10.3,0,0,0,106,798Z"/><path class="cls-3" d="M322.35,798a10.51,10.51,0,1,0-10.1-10.5A10.3,10.3,0,0,0,322.35,798Z"/><ellipse class="cls-3" cx="51.89" cy="56.25" rx="6.49" ry="6.75"/><ellipse class="cls-3" cx="160.07" cy="56.25" rx="6.49" ry="6.75"/><ellipse class="cls-3" cx="268.25" cy="56.25" rx="6.49" ry="6.75"/><ellipse class="cls-3" cx="376.44" cy="56.25" rx="6.49" ry="6.75"/><ellipse class="cls-3" cx="349.39" cy="84.37" rx="6.49" ry="6.75"/><ellipse class="cls-3" cx="133.02" cy="84.37" rx="6.49" ry="6.75"/><ellipse class="cls-3" cx="78.93" cy="84.37" rx="6.49" ry="6.75"/><ellipse class="cls-3" cx="295.3" cy="84.37" rx="6.49" ry="6.75"/><ellipse class="cls-3" cx="349.39" cy="140.62" rx="6.49" ry="6.75"/><ellipse class="cls-3" cx="133.02" cy="140.62" rx="6.49" ry="6.75"/><ellipse class="cls-3" cx="78.93" cy="140.62" rx="6.49" ry="6.75"/><ellipse class="cls-3" cx="295.3" cy="140.62" rx="6.49" ry="6.75"/><ellipse class="cls-3" cx="349.39" cy="309.37" rx="6.49" ry="6.75"/><ellipse class="cls-3" cx="133.02" cy="309.37" rx="6.49" ry="6.75"/><ellipse class="cls-3" cx="78.93" cy="309.37" rx="6.49" ry="6.75"/><ellipse class="cls-3" cx="295.3" cy="309.37" rx="6.49" ry="6.75"/><ellipse class="cls-3" cx="349.39" cy="365.62" rx="6.49" ry="6.75"/><ellipse class="cls-3" cx="133.02" cy="365.62" rx="6.49" ry="6.75"/><ellipse class="cls-3" cx="78.93" cy="365.62" rx="6.49" ry="6.75"/><ellipse class="cls-3" cx="295.3" cy="365.62" rx="6.49" ry="6.75"/><ellipse class="cls-3" cx="349.39" cy="534.37" rx="6.49" ry="6.75"/><ellipse class="cls-3" cx="133.02" cy="534.37" rx="6.49" ry="6.75"/><ellipse class="cls-3" cx="78.93" cy="534.37" rx="6.49" ry="6.75"/><ellipse class="cls-3" cx="295.3" cy="534.37" rx="6.49" ry="6.75"/><ellipse class="cls-3" cx="349.39" cy="590.62" rx="6.49" ry="6.75"/><ellipse class="cls-3" cx="133.02" cy="590.62" rx="6.49" ry="6.75"/><ellipse class="cls-3" cx="78.93" cy="590.62" rx="6.49" ry="6.75"/><ellipse class="cls-3" cx="295.3" cy="590.62" rx="6.49" ry="6.75"/><ellipse class="cls-3" cx="349.39" cy="759.37" rx="6.49" ry="6.75"/><ellipse class="cls-3" cx="133.02" cy="759.37" rx="6.49" ry="6.75"/><ellipse class="cls-3" cx="78.93" cy="759.37" rx="6.49" ry="6.75"/><ellipse class="cls-3" cx="295.3" cy="759.37" rx="6.49" ry="6.75"/><ellipse class="cls-3" cx="349.39" cy="815.62" rx="6.49" ry="6.75"/><ellipse class="cls-3" cx="133.02" cy="815.62" rx="6.49" ry="6.75"/><ellipse class="cls-3" cx="78.93" cy="815.62" rx="6.49" ry="6.75"/><ellipse class="cls-3" cx="295.3" cy="815.62" rx="6.49" ry="6.75"/><ellipse class="cls-3" cx="24.84" cy="28.12" rx="6.49" ry="6.75"/><ellipse class="cls-3" cx="187.12" cy="28.12" rx="6.49" ry="6.75"/><ellipse class="cls-3" cx="241.21" cy="28.12" rx="6.49" ry="6.75"/><ellipse class="cls-3" cx="403.48" cy="28.12" rx="6.49" ry="6.75"/><ellipse class="cls-3" cx="24.84" cy="196.87" rx="6.49" ry="6.75"/><ellipse class="cls-3" cx="187.12" cy="196.87" rx="6.49" ry="6.75"/><ellipse class="cls-3" cx="241.21" cy="196.87" rx="6.49" ry="6.75"/><ellipse class="cls-3" cx="403.48" cy="196.87" rx="6.49" ry="6.75"/><ellipse class="cls-3" cx="24.84" cy="253.12" rx="6.49" ry="6.75"/><ellipse class="cls-3" cx="187.12" cy="253.12" rx="6.49" ry="6.75"/><ellipse class="cls-3" cx="241.21" cy="253.12" rx="6.49" ry="6.75"/><ellipse class="cls-3" cx="403.48" cy="253.12" rx="6.49" ry="6.75"/><ellipse class="cls-3" cx="24.84" cy="421.87" rx="6.49" ry="6.75"/><ellipse class="cls-3" cx="187.12" cy="421.87" rx="6.49" ry="6.75"/><ellipse class="cls-3" cx="241.21" cy="421.87" rx="6.49" ry="6.75"/><ellipse class="cls-3" cx="403.48" cy="421.87" rx="6.49" ry="6.75"/><ellipse class="cls-3" cx="24.84" cy="478.12" rx="6.49" ry="6.75"/><ellipse class="cls-3" cx="187.12" cy="478.12" rx="6.49" ry="6.75"/><ellipse class="cls-3" cx="241.21" cy="478.12" rx="6.49" ry="6.75"/><ellipse class="cls-3" cx="403.48" cy="478.12" rx="6.49" ry="6.75"/><ellipse class="cls-3" cx="24.84" cy="646.87" rx="6.49" ry="6.75"/><ellipse class="cls-3" cx="187.12" cy="646.87" rx="6.49" ry="6.75"/><ellipse class="cls-3" cx="241.21" cy="646.87" rx="6.49" ry="6.75"/><ellipse class="cls-3" cx="403.48" cy="646.87" rx="6.49" ry="6.75"/><ellipse class="cls-3" cx="24.84" cy="703.12" rx="6.49" ry="6.75"/><ellipse class="cls-3" cx="187.12" cy="703.12" rx="6.49" ry="6.75"/><ellipse class="cls-3" cx="241.21" cy="703.12" rx="6.49" ry="6.75"/><ellipse class="cls-3" cx="403.48" cy="703.12" rx="6.49" ry="6.75"/><ellipse class="cls-3" cx="24.84" cy="871.87" rx="6.49" ry="6.75"/><ellipse class="cls-3" cx="187.12" cy="871.87" rx="6.49" ry="6.75"/><ellipse class="cls-3" cx="241.21" cy="871.87" rx="6.49" ry="6.75"/><ellipse class="cls-3" cx="403.48" cy="871.87" rx="6.49" ry="6.75"/><ellipse class="cls-3" cx="51.89" cy="168.75" rx="6.49" ry="6.75"/><ellipse class="cls-3" cx="160.07" cy="168.75" rx="6.49" ry="6.75"/><ellipse class="cls-3" cx="268.25" cy="168.75" rx="6.49" ry="6.75"/><ellipse class="cls-3" cx="376.44" cy="168.75" rx="6.49" ry="6.75"/><ellipse class="cls-3" cx="51.89" cy="281.25" rx="6.49" ry="6.75"/><ellipse class="cls-3" cx="160.07" cy="281.25" rx="6.49" ry="6.75"/><ellipse class="cls-3" cx="268.25" cy="281.25" rx="6.49" ry="6.75"/><ellipse class="cls-3" cx="376.44" cy="281.25" rx="6.49" ry="6.75"/><ellipse class="cls-3" cx="51.89" cy="393.75" rx="6.49" ry="6.75"/><ellipse class="cls-3" cx="160.07" cy="393.75" rx="6.49" ry="6.75"/><ellipse class="cls-3" cx="268.25" cy="393.75" rx="6.49" ry="6.75"/><ellipse class="cls-3" cx="376.44" cy="393.75" rx="6.49" ry="6.75"/><ellipse class="cls-3" cx="51.89" cy="506.25" rx="6.49" ry="6.75"/><ellipse class="cls-3" cx="160.07" cy="506.25" rx="6.49" ry="6.75"/><ellipse class="cls-3" cx="268.25" cy="506.25" rx="6.49" ry="6.75"/><ellipse class="cls-3" cx="376.44" cy="506.25" rx="6.49" ry="6.75"/><ellipse class="cls-3" cx="51.89" cy="618.75" rx="6.49" ry="6.75"/><ellipse class="cls-3" cx="160.07" cy="618.75" rx="6.49" ry="6.75"/><ellipse class="cls-3" cx="268.25" cy="618.75" rx="6.49" ry="6.75"/><ellipse class="cls-3" cx="376.44" cy="618.75" rx="6.49" ry="6.75"/><ellipse class="cls-3" cx="51.89" cy="731.25" rx="6.49" ry="6.75"/><ellipse class="cls-3" cx="160.07" cy="731.25" rx="6.49" ry="6.75"/><ellipse class="cls-3" cx="268.25" cy="731.25" rx="6.49" ry="6.75"/><ellipse class="cls-3" cx="376.44" cy="731.25" rx="6.49" ry="6.75"/><ellipse class="cls-3" cx="51.89" cy="843.75" rx="6.49" ry="6.75"/><ellipse class="cls-3" cx="160.07" cy="843.75" rx="6.49" ry="6.75"/><ellipse class="cls-3" cx="268.25" cy="843.75" rx="6.49" ry="6.75"/><ellipse class="cls-3" cx="376.44" cy="843.75" rx="6.49" ry="6.75"/><path class="cls-3" d="M458,85.76c-4.47.22-7.33.06-12.72,4.39a29.46,29.46,0,0,0-5.69,7,30.81,30.81,0,0,0,.9-9.1c-.72-7-2.82-9.08-5.76-12.59A21,21,0,0,0,430.53,72a10,10,0,0,0-7.12-1.43c-4.73,1.46-6.72,5.35-8.12,9.52-1.18,4.49-2.22,7.26.08,13.93a29.73,29.73,0,0,0,4.62,7.79,28.1,28.1,0,0,0-8-3.7c-6.67-1.47-9.18,0-13.29,1.8-3.78,2-7.22,4.59-8,9.66-.12,5.13,2.82,8.3,6.2,11,3.74,2.56,6,4.44,12.77,4.22a27.66,27.66,0,0,0,8.55-2.16,29.25,29.25,0,0,0-5.87,6.82c-3.4,6.14-2.86,9.06-2.46,13.69.68,4.36,2,8.56,6.37,10.87,4.66,1.71,8.46-.23,11.95-2.74.84-.7,1.61-1.32,2.33-2,2.29-2,4-4.19,5.48-9.37a30.4,30.4,0,0,0,.66-9.12,30.26,30.26,0,0,0,4.42,7.91c4.57,5.26,7.41,5.63,11.77,6.66,4.19.69,8.43.71,11.91-2.94,3-4.07,2.4-8.44,1.18-12.66-1.58-4.36-2.31-7.23-7.94-11.22a27.89,27.89,0,0,0-8.14-3.48,27.67,27.67,0,0,0,8.6-1.93c6.22-2.88,7.43-5.58,9.73-9.58,1.92-3.93,3.25-8.12,1-12.68C466.39,86.62,462.21,85.86,458,85.76Zm-23.11,37.13a8.92,8.92,0,0,1-4.33-.06,9.49,9.49,0,0,1-6.79-7.2,9.67,9.67,0,0,1,6.79-11.5l.19-.06a9.29,9.29,0,0,1,11.12,7.25A9.68,9.68,0,0,1,434.86,122.89Z"/><path class="cls-3" d="M619,113.18a27.59,27.59,0,0,0,8.6,1.91,28.06,28.06,0,0,0-8.13,3.49c-5.63,4-6.35,6.88-7.93,11.24-1.21,4.23-1.8,8.59,1.21,12.66,3.48,3.64,7.72,3.61,11.91,2.92,4.36-1.05,7.2-1.41,11.76-6.68a30,30,0,0,0,4.41-7.93,30.82,30.82,0,0,0,.67,9.13c1.92,6.8,4.33,8.41,7.83,11.31,3.5,2.5,7.31,4.44,12,2.72,4.4-2.32,5.68-6.52,6.35-10.88.39-4.63.93-7.56-2.48-13.69a29.42,29.42,0,0,0-5.89-6.81,27.66,27.66,0,0,0,8.56,2.15c6.81.2,9-1.68,12.76-4.25,3.37-2.68,6.31-5.85,6.18-11-.76-5.07-4.2-7.64-8-9.64-4.12-1.82-6.63-3.26-13.29-1.78a28,28,0,0,0-8.05,3.72A30.13,30.13,0,0,0,662,94c2.29-6.68,1.25-9.45.06-13.94-1.41-4.16-3.4-8-8.13-9.5-4.87-.82-8.29,1.8-11.29,4.92-2.93,3.51-5,5.54-5.73,12.59a30.46,30.46,0,0,0,.91,9.1,29.28,29.28,0,0,0-5.71-7c-5.39-4.33-8.25-4.16-12.72-4.37-4.24.11-8.42.88-11.21,5.11-2.25,4.56-.91,8.75,1,12.68C611.53,107.61,612.75,110.3,619,113.18Zm16.49-1.85a9.27,9.27,0,0,1,11.1-7.28,9.67,9.67,0,0,1,7,11.55,9.29,9.29,0,0,1-11.11,7.28A9.67,9.67,0,0,1,635.47,111.33Z"/><path class="cls-3" d="M506.19,9.65c3.88,2.31,6.21,4,13,3.39a27.81,27.81,0,0,0,8.41-2.7,29.41,29.41,0,0,0-5.46,7.18c-3,6.34-2.31,9.23-1.63,13.83.93,4.3,2.46,8.41,7,10.43,4.74,1.41,8.43-.77,11.76-3.5,3.32-3.13,5.62-4.9,7.12-11.81a30.74,30.74,0,0,0,.12-9.15,30,30,0,0,0,4.88,7.62c4.87,5,7.73,5.13,12.15,5.89,4.22.41,8.45.16,11.7-3.7,2.75-4.26,1.9-8.58.43-12.72-1.83-4.24-2.73-7.07-8.59-10.69A28.22,28.22,0,0,0,558.74.77,28.57,28.57,0,0,0,562.62,0H550.87a9.63,9.63,0,0,1-6.64,9.57A9.23,9.23,0,0,1,532.7,3.05a10,10,0,0,1-.37-3H499.45C500,4.57,502.88,7.35,506.19,9.65Z"/><path class="cls-3" d="M730.83,31.3c4.4-.82,7.26-1,12.06-6.07a30,30,0,0,0,4.78-7.69,30.47,30.47,0,0,0,.24,9.15c1.59,6.89,3.92,8.62,7.28,11.7,3.37,2.68,7.08,4.81,11.81,3.33,4.5-2.09,6-6.22,6.86-10.53.61-4.61,1.29-7.51-1.82-13.81a29.48,29.48,0,0,0-5.56-7.1,27.92,27.92,0,0,0,8.44,2.59c6.8.55,9.1-1.22,13-3.59,3.17-2.27,6-5,6.57-9.28h-33a9.87,9.87,0,0,1-.34,3A9.23,9.23,0,0,1,749.7,9.72,9.63,9.63,0,0,1,742.93,0H729.78a28.81,28.81,0,0,0,5.43,1.18,27.82,27.82,0,0,0-8.29,3.06c-5.81,3.71-6.67,6.55-8.45,10.82-1.42,4.16-2.21,8.49.6,12.71C722.37,31.58,726.61,31.77,730.83,31.3Z"/><path class="cls-3" d="M565.09,871c-4.45.5-7.32.52-12.44,5.19a29.69,29.69,0,0,0-5.27,7.33,30.76,30.76,0,0,0,.36-9.14c-1.14-7-3.35-8.88-6.49-12.19-3.19-2.92-6.76-5.3-11.57-4.16-4.63,1.76-6.38,5.78-7.53,10-.92,4.56-1.78,7.4.91,13.91a29.43,29.43,0,0,0,5.07,7.47,28,28,0,0,0-8.25-3.18c-6.74-1-9.16.57-13.15,2.66-3.66,2.25-6.94,5-7.38,10.15a8.54,8.54,0,0,0,.1.9h32.88a9.58,9.58,0,0,1,6.64-8.94,9.23,9.23,0,0,1,11.53,6.52,10.22,10.22,0,0,1,.37,2.42h11.75a26.86,26.86,0,0,0,4.59-1.7c6-3.28,7.09-6,9.14-10.19,1.68-4.05,2.76-8.31.23-12.72C573.54,871.35,569.33,870.86,565.09,871Z"/><path class="cls-3" d="M787.05,888.59c-4-2-6.46-3.59-13.19-2.46a27.59,27.59,0,0,0-8.2,3.3,29.84,29.84,0,0,0,5-7.55c2.6-6.55,1.7-9.38.72-13.92-1.21-4.23-3-8.22-7.67-9.91-4.82-1.07-8.36,1.37-11.5,4.33-3.1,3.35-5.29,5.28-6.33,12.28a30.38,30.38,0,0,0,.48,9.14,29.93,29.93,0,0,0-5.37-7.25c-5.18-4.6-8.05-4.58-12.5-5-4.25-.11-8.45.44-11.44,4.53-2.46,4.44-1.33,8.69.41,12.71,2.11,4.1,3.19,6.86,9.27,10.06a28.49,28.49,0,0,0,3.08,1.17h13.15a10.37,10.37,0,0,1,.33-2.18,9.24,9.24,0,0,1,11.44-6.69,9.61,9.61,0,0,1,6.77,8.87h33a11.79,11.79,0,0,0,.13-1.37C794.05,893.53,790.73,890.79,787.05,888.59Z"/><path class="cls-3" d="M609.35,311.87c-2.62,4.35-1.63,8.63,0,12.72,2,4.18,3,7,8.93,10.4a27.55,27.55,0,0,0,8.42,2.66,27.7,27.7,0,0,0-8.39,2.76c-5.94,3.48-6.9,6.29-8.82,10.49-1.56,4.11-2.5,8.4.16,12.72,3.17,3.94,7.39,4.28,11.63,4,4.43-.66,7.29-.77,12.26-5.62a29.68,29.68,0,0,0,5-7.5,31.12,31.12,0,0,0-.07,9.15c1.35,6.95,3.62,8.76,6.87,12,3.27,2.8,6.91,5.07,11.69,3.77,4.57-1.92,6.2-6,7.22-10.28.77-4.58,1.55-7.45-1.35-13.86a29.31,29.31,0,0,0-5.3-7.3,28.22,28.22,0,0,0,8.34,2.9c6.77.8,9.14-.88,13.07-3.1,3.58-2.37,6.77-5.27,7.06-10.4-.34-5.11-3.56-8-7.17-10.31-3.95-2.18-6.33-3.84-13.09-3a27.65,27.65,0,0,0-8.32,3,29.77,29.77,0,0,0,5.23-7.36c2.83-6.45,2-9.31,1.21-13.88-1.07-4.28-2.73-8.33-7.33-10.2-4.79-1.24-8.4,1.06-11.65,3.9-3.21,3.24-5.46,5.08-6.75,12a31.11,31.11,0,0,0,.17,9.15,29.55,29.55,0,0,0-5.12-7.45c-5-4.79-7.88-4.87-12.32-5.48C616.7,307.51,612.48,307.9,609.35,311.87Zm25.47,22.73a9.21,9.21,0,0,1,11.66-6.26,9.73,9.73,0,0,1,6,12.13,9.22,9.22,0,0,1-11.66,6.26A9.73,9.73,0,0,1,634.82,334.6Z"/><path class="cls-3" d="M567.56,201.79c-4.47-.21-7.31-.65-13.06,3.15a29.22,29.22,0,0,0-6.29,6.4,30.69,30.69,0,0,0,1.71-9c-.09-7.09-2-9.31-4.62-13.08-2.71-3.39-5.89-6.32-10.81-6-4.84,1-7.16,4.69-8.93,8.7-1.57,4.35-2.85,7-1.15,13.88a29.84,29.84,0,0,0,3.91,8.2,28.33,28.33,0,0,0-7.69-4.46c-6.51-2.1-9.13-.9-13.39.52-3.94,1.64-7.59,3.87-8.79,8.85-.58,5.1,2.07,8.53,5.2,11.52,3.49,2.9,5.54,5,12.34,5.43a27.51,27.51,0,0,0,8.71-1.33,29,29,0,0,0-6.46,6.22c-3.93,5.79-3.65,8.75-3.66,13.4.28,4.41,1.19,8.71,5.38,11.43,4.48,2.15,8.44.59,12.14-1.58,3.73-2.56,6.27-3.93,8.78-10.52a30.7,30.7,0,0,0,1.47-9,30.12,30.12,0,0,0,3.7,8.31c4.08,5.68,6.87,6.31,11.12,7.77,4.12,1.08,8.34,1.5,12.12-1.79,3.35-3.77,3.14-8.17,2.31-12.5-1.19-4.48-1.66-7.42-6.92-11.93a28.12,28.12,0,0,0-7.79-4.25,27.53,27.53,0,0,0,8.73-1.09c6.46-2.28,7.9-4.85,10.54-8.6,2.26-3.74,4-7.78,2.11-12.54C575.86,203.46,571.77,202.3,567.56,201.79Zm-26.31,34.74a9.35,9.35,0,0,1-10.43-8.29,9.59,9.59,0,0,1,8-10.84,9.36,9.36,0,0,1,10.43,8.29A9.58,9.58,0,0,1,541.25,236.53Z"/><path class="cls-3" d="M723.22,237.72c4.13,1.81,6.64,3.24,13.3,1.74a28,28,0,0,0,8-3.74,30,30,0,0,0-4.59,7.81c-2.27,6.68-1.22,9.45,0,13.94,1.42,4.15,3.42,8,8.16,9.48,4.87.8,8.28-1.82,11.27-4.95,2.93-3.52,5-5.56,5.7-12.61a30.74,30.74,0,0,0-.93-9.1,29.31,29.31,0,0,0,5.72,7c5.41,4.31,8.27,4.13,12.74,4.33,4.24-.12,8.41-.9,11.19-5.14,2.24-4.57.89-8.75-1-12.68-2.32-4-3.54-6.67-9.77-9.53a27.33,27.33,0,0,0-8.62-1.89,27.78,27.78,0,0,0,8.13-3.51c5.62-4,6.34-6.9,7.9-11.26,1.2-4.23,1.77-8.6-1.24-12.66-3.49-3.63-7.73-3.59-11.92-2.89-4.36,1.06-7.2,1.44-11.74,6.72a29.92,29.92,0,0,0-4.39,7.94,30.93,30.93,0,0,0-.7-9.13c-1.94-6.79-4.35-8.39-7.86-11.29-3.5-2.49-7.31-4.41-12-2.68-4.39,2.33-5.67,6.53-6.32,10.9-.38,4.63-.91,7.56,2.51,13.68a29.11,29.11,0,0,0,5.91,6.79,27.57,27.57,0,0,0-8.56-2.12c-6.82-.19-9,1.71-12.75,4.28-3.37,2.69-6.3,5.87-6.16,11C716,233.17,719.44,235.72,723.22,237.72Zm28-21a9,9,0,0,1,13.09.87,9.91,9.91,0,0,1-.83,13.62,9,9,0,0,1-13.1-.87A9.92,9.92,0,0,1,751.19,216.69Z"/><path class="cls-3" d="M684.56,551.37c1.74-4,2.89-8.27.43-12.72-3-4.08-7.19-4.65-11.43-4.54-4.46.43-7.32.4-12.51,5a29.25,29.25,0,0,0-5.38,7.24,31,31,0,0,0,.49-9.14c-1-7-3.21-8.94-6.3-12.3-3.14-3-6.67-5.41-11.5-4.35-4.66,1.68-6.47,5.67-7.69,9.89-1,4.54-1.89,7.37.7,13.92a29.46,29.46,0,0,0,5,7.56,28.2,28.2,0,0,0-8.21-3.32c-6.72-1.14-9.16.42-13.19,2.44-3.69,2.19-7,4.92-7.53,10,.1,5.12,3.18,8.15,6.67,10.66,3.85,2.37,6.15,4.15,12.94,3.61a27.64,27.64,0,0,0,8.45-2.57,29.42,29.42,0,0,0-5.57,7.09c-3.13,6.3-2.45,9.19-1.85,13.8.86,4.32,2.34,8.46,6.84,10.55,4.72,1.49,8.44-.63,11.82-3.3,3.36-3.07,5.69-4.8,7.3-11.69a30.87,30.87,0,0,0,.26-9.15,29.88,29.88,0,0,0,4.76,7.7c4.8,5,7.65,5.27,12.05,6.1,4.22.48,8.46.3,11.77-3.51,2.81-4.21,2-8.54.62-12.71-1.77-4.27-2.62-7.11-8.42-10.83a27.64,27.64,0,0,0-8.29-3.08,27.79,27.79,0,0,0,8.51-2.34C681.35,558.22,682.44,555.47,684.56,551.37Zm-32.45,20.92a9.25,9.25,0,0,1-11.43-6.72,9.71,9.71,0,0,1,6.46-11.88,9.23,9.23,0,0,1,11.42,6.72A9.7,9.7,0,0,1,652.11,572.29Z"/><path class="cls-3" d="M501.06,461.33c-1.73,4-2.85,8.29-.37,12.72,3,4.08,7.2,4.62,11.44,4.5,4.45-.45,7.32-.44,12.49-5.05a29.32,29.32,0,0,0,5.35-7.26,31.11,31.11,0,0,0-.46,9.14c1.06,7,3.25,8.92,6.36,12.27,3.15,3,6.69,5.38,11.52,4.3,4.65-1.71,6.44-5.7,7.65-9.93,1-4.55,1.86-7.37-.76-13.92a30,30,0,0,0-5-7.54,27.47,27.47,0,0,0,8.22,3.28c6.73,1.12,9.16-.45,13.18-2.49,3.68-2.21,7-5,7.49-10.06-.12-5.13-3.22-8.14-6.72-10.63-3.85-2.36-6.16-4.13-13-3.56a27.81,27.81,0,0,0-8.44,2.61,29.72,29.72,0,0,0,5.54-7.11c3.1-6.31,2.41-9.21,1.79-13.81-.88-4.32-2.37-8.45-6.88-10.52-4.73-1.47-8.44.67-11.81,3.36-3.34,3.08-5.67,4.82-7.25,11.71a30.74,30.74,0,0,0-.22,9.15,29.73,29.73,0,0,0-4.8-7.67c-4.81-5-7.67-5.23-12.07-6-4.22-.46-8.46-.27-11.75,3.56-2.8,4.22-2,8.55-.58,12.71,1.79,4.26,2.66,7.1,8.48,10.79a27.81,27.81,0,0,0,8.3,3.05,27.72,27.72,0,0,0-8.5,2.37C504.24,454.47,503.16,457.23,501.06,461.33Zm26-15.11A9.17,9.17,0,0,1,539,440.5a9.76,9.76,0,0,1,5.5,12.39,9.19,9.19,0,0,1-11.92,5.72A9.76,9.76,0,0,1,527.1,446.22Z"/><path class="cls-3" d="M792.72,438.05c1.67-4.06,2.74-8.32.21-12.72-3-4-7.26-4.52-11.5-4.34-4.45.51-7.31.53-12.43,5.21a29.93,29.93,0,0,0-5.26,7.34,30.86,30.86,0,0,0,.35-9.15c-1.15-7-3.36-8.87-6.51-12.17-3.19-2.92-6.76-5.29-11.57-4.15-4.63,1.77-6.38,5.79-7.53,10-.9,4.55-1.77,7.39.94,13.9a29.7,29.7,0,0,0,5.08,7.47,27.77,27.77,0,0,0-8.26-3.17c-6.74-1-9.15.58-13.15,2.67-3.65,2.26-6.92,5.06-7.36,10.17.18,5.12,3.32,8.09,6.85,10.54,3.89,2.3,6.22,4,13,3.37a27.8,27.8,0,0,0,8.41-2.72,29.41,29.41,0,0,0-5.45,7.19c-3,6.35-2.3,9.23-1.62,13.83.94,4.31,2.48,8.41,7,10.43,4.74,1.4,8.43-.79,11.76-3.52,3.3-3.14,5.61-4.91,7.1-11.82a31,31,0,0,0,.11-9.15,29.88,29.88,0,0,0,4.89,7.61c4.87,4.95,7.73,5.12,12.15,5.87,4.23.41,8.46.15,11.7-3.72,2.75-4.26,1.89-8.57.42-12.71-1.85-4.24-2.75-7.07-8.62-10.68a27.8,27.8,0,0,0-8.33-2.94,27.43,27.43,0,0,0,8.47-2.48C789.62,445,790.67,442.18,792.72,438.05Zm-32.1,21.5a9.23,9.23,0,0,1-11.54-6.5,9.73,9.73,0,0,1,6.26-12,9.24,9.24,0,0,1,11.54,6.5A9.72,9.72,0,0,1,760.62,459.55Z"/><path class="cls-3" d="M458.5,787a27.76,27.76,0,0,0-8.6-2,27.78,27.78,0,0,0,8.15-3.45c5.64-4,6.38-6.85,8-11.2,1.23-4.22,1.83-8.59-1.16-12.67-3.46-3.65-7.7-3.64-11.89-3-4.37,1-7.21,1.38-11.79,6.62a30.2,30.2,0,0,0-4.44,7.9,30.66,30.66,0,0,0-.64-9.12c-1.46-5.28-3.24-7.44-5.58-9.5-.68-.6-1.41-1.19-2.2-1.85-3.48-2.52-7.28-4.47-11.94-2.78-4.41,2.3-5.71,6.49-6.4,10.85-.41,4.63-1,7.55,2.42,13.7a29.34,29.34,0,0,0,5.86,6.84,27.62,27.62,0,0,0-8.55-2.19c-6.81-.24-9,1.64-12.78,4.18-3.39,2.67-6.34,5.83-6.23,11,.74,5.07,4.17,7.65,7.94,9.68,4.11,1.83,6.61,3.29,13.28,1.84A27.85,27.85,0,0,0,420,798.2a29.83,29.83,0,0,0-4.64,7.78c-2.32,6.66-1.29,9.44-.12,13.93,1.39,4.17,3.36,8.07,8.09,9.54a10,10,0,0,0,7.21-1.45,21.6,21.6,0,0,0,4.1-3.41c2.95-3.49,5.05-5.52,5.79-12.56a30.61,30.61,0,0,0-.88-9.11,29.43,29.43,0,0,0,5.68,7c5.38,4.36,8.24,4.2,12.7,4.43,4.25-.09,8.43-.83,11.23-5.05,2.28-4.56,1-8.75-.95-12.69C465.92,792.6,464.71,789.9,458.5,787Zm-22.06,8.5a8.91,8.91,0,0,1-5.91.45,9.34,9.34,0,0,1-6.25-5.58,9.8,9.8,0,0,1,4.93-12.65,9.34,9.34,0,0,1,1.32-.45,9.18,9.18,0,0,1,10.84,5.58A9.8,9.8,0,0,1,436.44,795.49Z"/><path class="cls-3" d="M823.6,339.61c.63,5.09,4,7.75,7.73,9.87,4.07,1.93,6.54,3.44,13.24,2.15a27.84,27.84,0,0,0,8.14-3.49,29.88,29.88,0,0,0-4.81,7.66c-2.46,6.61-1.5,9.42-.42,13.93,1.3,4.2,3.19,8.15,7.88,9.73a10.2,10.2,0,0,0,7.91-1.68,23.91,23.91,0,0,0,3.5-2.91c3-3.43,5.17-5.41,6.06-12.43a30.69,30.69,0,0,0-.68-9.13,29.52,29.52,0,0,0,5.53,7.13c5.28,4.48,8.14,4.39,12.6,4.72,4.25,0,8.44-.64,11.34-4.79,2.37-4.5,1.14-8.72-.68-12.7-2.2-4.05-3.34-6.79-9.49-9.84a27.64,27.64,0,0,0-8.56-2.15,28,28,0,0,0,8.23-3.26c5.72-3.84,6.53-6.7,8.21-11,1.32-4.19,2-8.54-.88-12.69-3.38-3.73-7.62-3.83-11.83-3.25-4.38.92-7.23,1.21-11.92,6.35a29.84,29.84,0,0,0-4.61,7.79,31.1,31.1,0,0,0-.44-9.14c-1.54-6.05-3.57-8.07-6.38-10.52l-1.15-1c-3.43-2.6-7.19-4.64-11.88-3.05-4.46,2.19-5.86,6.36-6.63,10.69-.52,4.63-1.13,7.53,2.12,13.76a29.3,29.3,0,0,0,5.7,7,27.69,27.69,0,0,0-8.49-2.39c-6.81-.39-9.07,1.43-12.87,3.89C826.63,331.39,823.6,334.48,823.6,339.61Zm38.76-11.74c.3-.12.6-.23.91-.32a9.2,9.2,0,0,1,11.14,5.73,9.79,9.79,0,0,1-5.2,12.53,8.9,8.9,0,0,1-5.94.31,9.4,9.4,0,0,1-6.11-5.72A9.79,9.79,0,0,1,862.36,327.87Z"/><path class="cls-3" d="M825.59,552.79c2.24,4,3.41,6.75,9.59,9.74a27.31,27.31,0,0,0,8.57,2.06,28.11,28.11,0,0,0-8.19,3.35c-5.69,3.89-6.47,6.76-8.12,11.09-1.28,4.2-1.94,8.56,1,12.68,3.42,3.7,7.66,3.75,11.86,3.14,4.38-1,7.22-1.29,11.87-6.47a29.77,29.77,0,0,0,4.53-7.85,31.06,31.06,0,0,0,.53,9.14c1.51,5.72,3.43,7.81,6,10.08.5.44,1,.89,1.6,1.37,3.45,2.57,7.23,4.57,11.9,2.93,4.44-2.23,5.8-6.41,6.54-10.75.46-4.63,1.05-7.55-2.25-13.74a29.44,29.44,0,0,0-5.77-6.91,27.7,27.7,0,0,0,8.52,2.3c6.8.33,9.05-1.52,12.83-4,3.41-2.62,6.41-5.74,6.36-10.87-.67-5.08-4.07-7.71-7.82-9.79-4.09-1.89-6.57-3.37-13.26-2a28,28,0,0,0-8.1,3.57,30,30,0,0,0,4.74-7.71c2.4-6.63,1.4-9.42.29-13.93-1.34-4.19-3.27-8.12-8-9.65a10.11,10.11,0,0,0-7.61,1.58,22.16,22.16,0,0,0-3.76,3.13c-3,3.46-5.12,5.45-6,12.49a30.6,30.6,0,0,0,.77,9.11,29.67,29.67,0,0,0-5.59-7.06c-5.33-4.43-8.19-4.31-12.65-4.6-4.25,0-8.43.72-11.29,4.9C822.47,544.62,823.73,548.82,825.59,552.79Zm26.1,8.18a9.28,9.28,0,0,1,11.23-7.07l.35.11a9.7,9.7,0,0,1,6.45,11.57,9.46,9.46,0,0,1-6.45,7,8.89,8.89,0,0,1-4.78.11A9.69,9.69,0,0,1,851.69,561Z"/><path class="cls-3" d="M680.72,779.76c-3.72-2.6-5.92-4.5-12.73-4.36a27.34,27.34,0,0,0-8.57,2.07,29.42,29.42,0,0,0,5.94-6.76c3.46-6.1,2.94-9,2.59-13.67-.63-4.36-1.88-8.57-6.26-10.93-4.63-1.76-8.46.14-12,2.61-3.52,2.87-5.94,4.46-7.92,11.24a30.7,30.7,0,0,0-.75,9.12,30.16,30.16,0,0,0-4.34-8c-4.51-5.31-7.35-5.71-11.7-6.79-4.19-.73-8.43-.8-11.94,2.81-3,4-2.49,8.41-1.31,12.65,1.54,4.37,2.24,7.26,7.83,11.31a27.94,27.94,0,0,0,8.11,3.56,27.7,27.7,0,0,0-8.63,1.83c-6.25,2.83-7.48,5.51-9.82,9.48-2,3.91-3.33,8.09-1.12,12.67,2.76,4.26,6.93,5.06,11.17,5.21,4.47-.17,7.33,0,12.76-4.25a29.59,29.59,0,0,0,5.77-6.92,30.85,30.85,0,0,0-1,9.1c.65,7.05,2.73,9.1,5.63,12.64,3,3.15,6.37,5.79,11.25,5,4.74-1.41,6.77-5.28,8.21-9.43,1.23-4.48,2.29-7.24.06-13.94a30,30,0,0,0-4.55-7.84,27.85,27.85,0,0,0,8,3.79c6.65,1.54,9.17.13,13.3-1.66,3.8-2,7.26-4.5,8.06-9.57C687,785.67,684.06,782.47,680.72,779.76Zm-26.8,7.55A9.39,9.39,0,0,1,643.76,796a9.55,9.55,0,0,1-8.31-10.56,9.38,9.38,0,0,1,10.15-8.64A9.56,9.56,0,0,1,653.92,787.31Z"/><path class="cls-3" d="M567,675.83a27.87,27.87,0,0,0-8.53-2.27,27.59,27.59,0,0,0,8.26-3.14c5.78-3.76,6.62-6.61,8.36-10.89,1.38-4.18,2.13-8.52-.71-12.71-3.34-3.78-7.57-3.93-11.79-3.42-4.4.87-7.25,1.11-12,6.19a30.15,30.15,0,0,0-4.71,7.73,31.08,31.08,0,0,0-.32-9.15c-1.65-6.87-4-8.58-7.38-11.63-3.39-2.65-7.13-4.74-11.84-3.22-4.49,2.13-5.93,6.27-6.77,10.6-.57,4.62-1.22,7.52,1.94,13.79a29.46,29.46,0,0,0,5.62,7,27.65,27.65,0,0,0-8.46-2.51c-6.8-.49-9.09,1.3-12.92,3.7-3.48,2.54-6.54,5.59-6.6,10.72.56,5.09,3.9,7.81,7.6,10,4,2,6.49,3.53,13.21,2.34a28,28,0,0,0,8.18-3.38,29.62,29.62,0,0,0-4.91,7.6c-2.55,6.57-1.62,9.39-.6,13.92,1.24,4.22,3.08,8.19,7.75,9.84,4.84,1,8.35-1.45,11.47-4.44,3.07-3.38,5.24-5.33,6.22-12.34a30.48,30.48,0,0,0-.56-9.14,29.6,29.6,0,0,0,5.44,7.21c5.22,4.55,8.08,4.5,12.54,4.9,4.24.07,8.44-.53,11.4-4.64,2.42-4.46,1.25-8.7-.52-12.71C574.23,681.72,573.13,679,567,675.83Zm-22.34,7.67a9.18,9.18,0,0,1-12-5.58,9.76,9.76,0,0,1,5.36-12.45A9.17,9.17,0,0,1,550,671,9.77,9.77,0,0,1,544.68,683.5Z"/><path class="cls-3" d="M786.88,661.82c-4.15-1.72-6.69-3.11-13.32-1.48a28.19,28.19,0,0,0-8,3.89,29.88,29.88,0,0,0,4.45-7.89c2.15-6.73,1.05-9.48-.23-13.94-1.49-4.13-3.57-8-8.33-9.32-4.88-.71-8.24,2-11.18,5.17-2.86,3.57-4.91,5.66-5.47,12.72a30.79,30.79,0,0,0,1.1,9.08,29.22,29.22,0,0,0-5.85-6.84c-5.48-4.21-8.34-4-12.81-4.08-4.24.2-8.4,1.06-11.1,5.36-2.16,4.61-.74,8.76,1.27,12.65,2.38,3.94,3.66,6.61,9.94,9.34A27.48,27.48,0,0,0,736,678.2a28,28,0,0,0-8.07,3.67c-5.54,4.13-6.21,7-7.69,11.41-1.12,4.26-1.62,8.64,1.47,12.64,3.55,3.55,7.79,3.43,12,2.65,4.34-1.14,7.17-1.58,11.62-6.94a30.29,30.29,0,0,0,4.24-8,30.66,30.66,0,0,0,.86,9.1c2.06,6.76,4.51,8.31,8.06,11.14,3.55,2.42,7.4,4.27,12,2.45,4.35-2.42,5.55-6.65,6.12-11,.3-4.64.78-7.58-2.76-13.63a29.25,29.25,0,0,0-6-6.68,27.47,27.47,0,0,0,8.6,2c6.81.05,9-1.88,12.67-4.53,3.32-2.76,6.19-6,5.95-11.12C794.2,666.23,790.7,663.74,786.88,661.82ZM762,678.13a9.3,9.3,0,0,1-11,7.52,9.65,9.65,0,0,1-7.23-11.39,9.3,9.3,0,0,1,10.95-7.52A9.65,9.65,0,0,1,762,678.13Z"/><path class="cls-3" d="M863.27,235.5a10.51,10.51,0,1,0-10.1-10.5A10.3,10.3,0,0,0,863.27,235.5Z"/><path class="cls-3" d="M646.9,235.5A10.51,10.51,0,1,0,636.8,225,10.3,10.3,0,0,0,646.9,235.5Z"/><path class="cls-3" d="M863.27,10.5A10.3,10.3,0,0,0,873.36,0H853.17A10.3,10.3,0,0,0,863.27,10.5Z"/><path class="cls-3" d="M646.9,10.5A10.3,10.3,0,0,0,657,0H636.8A10.3,10.3,0,0,0,646.9,10.5Z"/><path class="cls-3" d="M430.53,889.5a10.3,10.3,0,0,0-10.1,10.5h20.2A10.3,10.3,0,0,0,430.53,889.5Z"/><path class="cls-3" d="M646.9,889.5A10.3,10.3,0,0,0,636.8,900H657A10.3,10.3,0,0,0,646.9,889.5Z"/><path class="cls-3" d="M538.71,102a10.51,10.51,0,1,0,10.1,10.5A10.3,10.3,0,0,0,538.71,102Z"/><path class="cls-3" d="M755.08,102a10.51,10.51,0,1,0,10.1,10.5A10.3,10.3,0,0,0,755.08,102Z"/><path class="cls-3" d="M538.71,348a10.51,10.51,0,1,0-10.09-10.5A10.3,10.3,0,0,0,538.71,348Z"/><path class="cls-3" d="M755.08,348A10.51,10.51,0,1,0,745,337.5,10.3,10.3,0,0,0,755.08,348Z"/><path class="cls-3" d="M430.53,439.5a10.51,10.51,0,1,0,10.1,10.5A10.3,10.3,0,0,0,430.53,439.5Z"/><path class="cls-3" d="M646.9,439.5A10.51,10.51,0,1,0,657,450,10.3,10.3,0,0,0,646.9,439.5Z"/><path class="cls-3" d="M538.71,552a10.51,10.51,0,1,0,10.1,10.5A10.3,10.3,0,0,0,538.71,552Z"/><path class="cls-3" d="M755.08,552a10.51,10.51,0,1,0,10.1,10.5A10.3,10.3,0,0,0,755.08,552Z"/><path class="cls-3" d="M853.17,675a10.1,10.1,0,1,0,10.1-10.5A10.3,10.3,0,0,0,853.17,675Z"/><path class="cls-3" d="M646.9,664.5A10.51,10.51,0,1,0,657,675,10.3,10.3,0,0,0,646.9,664.5Z"/><path class="cls-3" d="M538.71,798a10.51,10.51,0,1,0-10.09-10.5A10.3,10.3,0,0,0,538.71,798Z"/><path class="cls-3" d="M755.08,798A10.51,10.51,0,1,0,745,787.5,10.3,10.3,0,0,0,755.08,798Z"/><ellipse class="cls-3" cx="484.62" cy="56.25" rx="6.49" ry="6.75"/><ellipse class="cls-3" cx="592.81" cy="56.25" rx="6.49" ry="6.75"/><ellipse class="cls-3" cx="700.99" cy="56.25" rx="6.49" ry="6.75"/><ellipse class="cls-3" cx="809.17" cy="56.25" rx="6.49" ry="6.75"/><ellipse class="cls-3" cx="782.13" cy="84.37" rx="6.49" ry="6.75"/><ellipse class="cls-3" cx="565.76" cy="84.37" rx="6.49" ry="6.75"/><ellipse class="cls-3" cx="511.67" cy="84.37" rx="6.49" ry="6.75"/><ellipse class="cls-3" cx="728.04" cy="84.37" rx="6.49" ry="6.75"/><ellipse class="cls-3" cx="782.13" cy="140.62" rx="6.49" ry="6.75"/><ellipse class="cls-3" cx="565.76" cy="140.62" rx="6.49" ry="6.75"/><ellipse class="cls-3" cx="511.67" cy="140.62" rx="6.49" ry="6.75"/><ellipse class="cls-3" cx="728.04" cy="140.62" rx="6.49" ry="6.75"/><ellipse class="cls-3" cx="782.13" cy="309.37" rx="6.49" ry="6.75"/><ellipse class="cls-3" cx="565.76" cy="309.37" rx="6.49" ry="6.75"/><ellipse class="cls-3" cx="511.67" cy="309.37" rx="6.49" ry="6.75"/><ellipse class="cls-3" cx="728.04" cy="309.37" rx="6.49" ry="6.75"/><ellipse class="cls-3" cx="782.13" cy="365.62" rx="6.49" ry="6.75"/><ellipse class="cls-3" cx="565.76" cy="365.62" rx="6.49" ry="6.75"/><ellipse class="cls-3" cx="511.67" cy="365.62" rx="6.49" ry="6.75"/><ellipse class="cls-3" cx="728.04" cy="365.62" rx="6.49" ry="6.75"/><ellipse class="cls-3" cx="782.13" cy="534.37" rx="6.49" ry="6.75"/><ellipse class="cls-3" cx="565.76" cy="534.37" rx="6.49" ry="6.75"/><ellipse class="cls-3" cx="511.67" cy="534.37" rx="6.49" ry="6.75"/><ellipse class="cls-3" cx="728.04" cy="534.37" rx="6.49" ry="6.75"/><ellipse class="cls-3" cx="782.13" cy="590.62" rx="6.49" ry="6.75"/><ellipse class="cls-3" cx="565.76" cy="590.62" rx="6.49" ry="6.75"/><ellipse class="cls-3" cx="511.67" cy="590.62" rx="6.49" ry="6.75"/><ellipse class="cls-3" cx="728.04" cy="590.62" rx="6.49" ry="6.75"/><ellipse class="cls-3" cx="782.13" cy="759.37" rx="6.49" ry="6.75"/><ellipse class="cls-3" cx="565.76" cy="759.37" rx="6.49" ry="6.75"/><ellipse class="cls-3" cx="511.67" cy="759.37" rx="6.49" ry="6.75"/><ellipse class="cls-3" cx="728.04" cy="759.37" rx="6.49" ry="6.75"/><ellipse class="cls-3" cx="782.13" cy="815.62" rx="6.49" ry="6.75"/><ellipse class="cls-3" cx="565.76" cy="815.62" rx="6.49" ry="6.75"/><ellipse class="cls-3" cx="511.67" cy="815.62" rx="6.49" ry="6.75"/><ellipse class="cls-3" cx="728.04" cy="815.62" rx="6.49" ry="6.75"/><ellipse class="cls-3" cx="457.58" cy="28.12" rx="6.49" ry="6.75"/><ellipse class="cls-3" cx="619.85" cy="28.12" rx="6.49" ry="6.75"/><ellipse class="cls-3" cx="673.94" cy="28.12" rx="6.49" ry="6.75"/><ellipse class="cls-3" cx="836.22" cy="28.12" rx="6.49" ry="6.75"/><ellipse class="cls-3" cx="457.58" cy="196.87" rx="6.49" ry="6.75"/><ellipse class="cls-3" cx="619.85" cy="196.87" rx="6.49" ry="6.75"/><ellipse class="cls-3" cx="673.94" cy="196.87" rx="6.49" ry="6.75"/><ellipse class="cls-3" cx="836.22" cy="196.87" rx="6.49" ry="6.75"/><ellipse class="cls-3" cx="457.58" cy="253.12" rx="6.49" ry="6.75"/><ellipse class="cls-3" cx="619.85" cy="253.12" rx="6.49" ry="6.75"/><ellipse class="cls-3" cx="673.94" cy="253.12" rx="6.49" ry="6.75"/><ellipse class="cls-3" cx="836.22" cy="253.12" rx="6.49" ry="6.75"/><ellipse class="cls-3" cx="457.58" cy="421.87" rx="6.49" ry="6.75"/><ellipse class="cls-3" cx="619.85" cy="421.87" rx="6.49" ry="6.75"/><ellipse class="cls-3" cx="673.94" cy="421.87" rx="6.49" ry="6.75"/><ellipse class="cls-3" cx="836.22" cy="421.87" rx="6.49" ry="6.75"/><ellipse class="cls-3" cx="457.58" cy="478.12" rx="6.49" ry="6.75"/><ellipse class="cls-3" cx="619.85" cy="478.12" rx="6.49" ry="6.75"/><ellipse class="cls-3" cx="673.94" cy="478.12" rx="6.49" ry="6.75"/><ellipse class="cls-3" cx="836.22" cy="478.12" rx="6.49" ry="6.75"/><ellipse class="cls-3" cx="457.58" cy="646.87" rx="6.49" ry="6.75"/><ellipse class="cls-3" cx="619.85" cy="646.87" rx="6.49" ry="6.75"/><ellipse class="cls-3" cx="673.94" cy="646.87" rx="6.49" ry="6.75"/><ellipse class="cls-3" cx="836.22" cy="646.87" rx="6.49" ry="6.75"/><ellipse class="cls-3" cx="457.58" cy="703.12" rx="6.49" ry="6.75"/><ellipse class="cls-3" cx="619.85" cy="703.12" rx="6.49" ry="6.75"/><ellipse class="cls-3" cx="673.94" cy="703.12" rx="6.49" ry="6.75"/><ellipse class="cls-3" cx="836.22" cy="703.12" rx="6.49" ry="6.75"/><ellipse class="cls-3" cx="457.58" cy="871.87" rx="6.49" ry="6.75"/><ellipse class="cls-3" cx="619.85" cy="871.87" rx="6.49" ry="6.75"/><ellipse class="cls-3" cx="673.94" cy="871.87" rx="6.49" ry="6.75"/><ellipse class="cls-3" cx="836.22" cy="871.87" rx="6.49" ry="6.75"/><ellipse class="cls-3" cx="484.62" cy="168.75" rx="6.49" ry="6.75"/><ellipse class="cls-3" cx="592.81" cy="168.75" rx="6.49" ry="6.75"/><ellipse class="cls-3" cx="700.99" cy="168.75" rx="6.49" ry="6.75"/><ellipse class="cls-3" cx="809.17" cy="168.75" rx="6.49" ry="6.75"/><ellipse class="cls-3" cx="484.62" cy="281.25" rx="6.49" ry="6.75"/><ellipse class="cls-3" cx="592.81" cy="281.25" rx="6.49" ry="6.75"/><ellipse class="cls-3" cx="700.99" cy="281.25" rx="6.49" ry="6.75"/><ellipse class="cls-3" cx="809.17" cy="281.25" rx="6.49" ry="6.75"/><ellipse class="cls-3" cx="484.62" cy="393.75" rx="6.49" ry="6.75"/><ellipse class="cls-3" cx="592.81" cy="393.75" rx="6.49" ry="6.75"/><ellipse class="cls-3" cx="700.99" cy="393.75" rx="6.49" ry="6.75"/><ellipse class="cls-3" cx="809.17" cy="393.75" rx="6.49" ry="6.75"/><ellipse class="cls-3" cx="484.62" cy="506.25" rx="6.49" ry="6.75"/><ellipse class="cls-3" cx="592.81" cy="506.25" rx="6.49" ry="6.75"/><ellipse class="cls-3" cx="700.99" cy="506.25" rx="6.49" ry="6.75"/><ellipse class="cls-3" cx="809.17" cy="506.25" rx="6.49" ry="6.75"/><ellipse class="cls-3" cx="484.62" cy="618.75" rx="6.49" ry="6.75"/><ellipse class="cls-3" cx="592.81" cy="618.75" rx="6.49" ry="6.75"/><ellipse class="cls-3" cx="700.99" cy="618.75" rx="6.49" ry="6.75"/><ellipse class="cls-3" cx="809.17" cy="618.75" rx="6.49" ry="6.75"/><ellipse class="cls-3" cx="484.62" cy="731.25" rx="6.49" ry="6.75"/><ellipse class="cls-3" cx="592.81" cy="731.25" rx="6.49" ry="6.75"/><ellipse class="cls-3" cx="700.99" cy="731.25" rx="6.49" ry="6.75"/><ellipse class="cls-3" cx="809.17" cy="731.25" rx="6.49" ry="6.75"/><ellipse class="cls-3" cx="484.62" cy="843.75" rx="6.49" ry="6.75"/><ellipse class="cls-3" cx="592.81" cy="843.75" rx="6.49" ry="6.75"/><ellipse class="cls-3" cx="700.99" cy="843.75" rx="6.49" ry="6.75"/><ellipse class="cls-3" cx="809.17" cy="843.75" rx="6.49" ry="6.75"/><path class="cls-3" d="M890.71,85.76c-4.47.22-7.33.06-12.72,4.39a29.28,29.28,0,0,0-5.7,7,30.48,30.48,0,0,0,.9-9.1c-.72-7-2.81-9.08-5.75-12.59A21.54,21.54,0,0,0,863.27,72a10,10,0,0,0-7.13-1.43c-4.73,1.46-6.71,5.35-8.12,9.52-1.18,4.49-2.21,7.26.09,13.93a29.73,29.73,0,0,0,4.62,7.79,28,28,0,0,0-8.05-3.7c-6.67-1.47-9.17,0-13.29,1.8-3.77,2-7.21,4.59-8,9.66-.13,5.13,2.82,8.3,6.2,11,3.74,2.56,6,4.44,12.77,4.22a27.66,27.66,0,0,0,8.55-2.16,29.26,29.26,0,0,0-5.88,6.82c-3.4,6.14-2.85,9.06-2.45,13.69.67,4.36,2,8.56,6.37,10.87,4.65,1.71,8.46-.23,12-2.74.83-.7,1.61-1.32,2.33-2,2.28-2,4-4.19,5.48-9.37a31.07,31.07,0,0,0,.66-9.12,29.69,29.69,0,0,0,4.42,7.91c4.56,5.26,7.41,5.63,11.77,6.66,4.19.69,8.43.71,11.9-2.94,3-4.07,2.41-8.44,1.19-12.66-1.58-4.36-2.32-7.23-8-11.22A27.67,27.67,0,0,0,882.6,115a27.67,27.67,0,0,0,8.61-1.93c6.22-2.88,7.43-5.58,9.73-9.58,1.92-3.93,3.24-8.12,1-12.68C899.12,86.62,895,85.86,890.71,85.76ZM867.6,122.89a8.92,8.92,0,0,1-4.33-.06,9.47,9.47,0,0,1-6.79-7.2,9.66,9.66,0,0,1,6.79-11.5l.18-.06a9.28,9.28,0,0,1,11.12,7.25A9.67,9.67,0,0,1,867.6,122.89Z"/><path class="cls-3" d="M1051.71,113.18a27.64,27.64,0,0,0,8.61,1.91,28.06,28.06,0,0,0-8.13,3.49c-5.63,4-6.36,6.88-7.93,11.24-1.21,4.23-1.8,8.59,1.21,12.66,3.48,3.64,7.72,3.61,11.91,2.92,4.36-1.05,7.2-1.41,11.76-6.68a29.94,29.94,0,0,0,4.4-7.93,30.85,30.85,0,0,0,.68,9.13c1.92,6.8,4.33,8.41,7.83,11.31,3.49,2.5,7.3,4.44,12,2.72,4.4-2.32,5.69-6.52,6.35-10.88.39-4.63.93-7.56-2.48-13.69a29.4,29.4,0,0,0-5.88-6.81,27.67,27.67,0,0,0,8.55,2.15c6.82.2,9-1.68,12.77-4.25,3.37-2.68,6.31-5.85,6.18-11-.76-5.07-4.21-7.64-8-9.64-4.12-1.82-6.62-3.26-13.29-1.78a28,28,0,0,0-8,3.72,30.13,30.13,0,0,0,4.61-7.8c2.29-6.68,1.25-9.45.06-13.94-1.41-4.16-3.4-8-8.14-9.5-4.87-.82-8.28,1.8-11.28,4.92-2.94,3.51-5,5.54-5.74,12.59a30.76,30.76,0,0,0,.92,9.1,29.53,29.53,0,0,0-5.71-7c-5.4-4.33-8.26-4.16-12.73-4.37-4.24.11-8.41.88-11.2,5.11-2.25,4.56-.92,8.75,1,12.68C1044.27,107.61,1045.49,110.3,1051.71,113.18Zm16.49-1.85a9.29,9.29,0,0,1,11.11-7.28,9.66,9.66,0,0,1,7,11.55,9.28,9.28,0,0,1-11.1,7.28A9.68,9.68,0,0,1,1068.2,111.33Z"/><path class="cls-3" d="M938.92,9.65c3.89,2.31,6.21,4,13,3.39a27.81,27.81,0,0,0,8.41-2.7,29.41,29.41,0,0,0-5.46,7.18c-3,6.34-2.31,9.23-1.64,13.83.93,4.3,2.47,8.41,7,10.43,4.75,1.41,8.43-.77,11.77-3.5,3.31-3.13,5.62-4.9,7.12-11.81a30.74,30.74,0,0,0,.12-9.15,29.68,29.68,0,0,0,4.88,7.62c4.87,5,7.73,5.13,12.14,5.89,4.23.41,8.46.16,11.71-3.7,2.75-4.26,1.9-8.58.43-12.72-1.84-4.24-2.74-7.07-8.6-10.69A28.13,28.13,0,0,0,991.47.77,28.7,28.7,0,0,0,995.36,0H983.6A9.62,9.62,0,0,1,977,9.57a9.24,9.24,0,0,1-11.53-6.52,10.36,10.36,0,0,1-.37-3H932.18C932.68,4.57,935.61,7.35,938.92,9.65Z"/><path class="cls-3" d="M1163.56,31.3c4.41-.82,7.26-1,12.06-6.07a29.69,29.69,0,0,0,4.78-7.69,30.84,30.84,0,0,0,.25,9.15c1.59,6.89,3.92,8.62,7.27,11.7,3.37,2.68,7.09,4.81,11.81,3.33,4.51-2.09,6-6.22,6.86-10.53.62-4.61,1.3-7.51-1.82-13.81a29.46,29.46,0,0,0-5.55-7.1,27.83,27.83,0,0,0,8.44,2.59c6.79.55,9.1-1.22,12.95-3.59,3.17-2.27,6-5,6.56-9.28h-33a10.17,10.17,0,0,1-.33,3,9.24,9.24,0,0,1-11.44,6.69A9.62,9.62,0,0,1,1175.67,0h-13.15A28.65,28.65,0,0,0,1168,1.18a27.77,27.77,0,0,0-8.3,3.06c-5.81,3.71-6.67,6.55-8.45,10.82-1.41,4.16-2.2,8.49.61,12.71C1155.11,31.58,1159.34,31.77,1163.56,31.3Z"/><path class="cls-3" d="M997.82,871c-4.45.5-7.31.52-12.43,5.19a29.69,29.69,0,0,0-5.27,7.33,30.76,30.76,0,0,0,.36-9.14c-1.14-7-3.35-8.88-6.5-12.19-3.18-2.92-6.75-5.3-11.56-4.16-4.63,1.76-6.38,5.78-7.54,10-.91,4.56-1.78,7.4.92,13.91a29.43,29.43,0,0,0,5.07,7.47,28.08,28.08,0,0,0-8.25-3.18c-6.75-1-9.16.57-13.16,2.66-3.65,2.25-6.93,5-7.38,10.15,0,.32.07.6.1.9h32.88a9.6,9.6,0,0,1,6.65-8.94,9.24,9.24,0,0,1,11.53,6.52,10.2,10.2,0,0,1,.36,2.42h11.76a26.86,26.86,0,0,0,4.59-1.7c6-3.28,7.08-6,9.14-10.19,1.68-4.05,2.76-8.31.23-12.72C1006.27,871.35,1002.06,870.86,997.82,871Z"/><path class="cls-3" d="M1219.79,888.59c-4-2-6.46-3.59-13.19-2.46a27.66,27.66,0,0,0-8.21,3.3,29.85,29.85,0,0,0,5-7.55c2.6-6.55,1.69-9.38.72-13.92-1.21-4.23-3-8.22-7.67-9.91-4.83-1.07-8.36,1.37-11.51,4.33-3.1,3.35-5.28,5.28-6.33,12.28a31.05,31.05,0,0,0,.48,9.14,29.6,29.6,0,0,0-5.36-7.25c-5.19-4.6-8-4.58-12.51-5-4.24-.11-8.44.44-11.43,4.53-2.47,4.44-1.33,8.69.4,12.71,2.11,4.1,3.2,6.86,9.28,10.06a27.72,27.72,0,0,0,3.08,1.17h13.15a9.76,9.76,0,0,1,.33-2.18,9.24,9.24,0,0,1,11.44-6.69,9.59,9.59,0,0,1,6.76,8.87h33a11.79,11.79,0,0,0,.13-1.37C1226.79,893.53,1223.47,890.79,1219.79,888.59Z"/><path class="cls-3" d="M1042.08,311.87c-2.61,4.35-1.63,8.63,0,12.72,2,4.18,3,7,8.92,10.4a27.64,27.64,0,0,0,8.42,2.66,27.87,27.87,0,0,0-8.39,2.76c-5.93,3.48-6.89,6.29-8.82,10.49-1.55,4.11-2.5,8.4.17,12.72,3.17,3.94,7.39,4.28,11.62,4,4.43-.66,7.3-.77,12.27-5.62a29.68,29.68,0,0,0,5-7.5,30.44,30.44,0,0,0-.07,9.15c1.35,6.95,3.62,8.76,6.86,12,3.28,2.8,6.92,5.07,11.69,3.77,4.58-1.92,6.2-6,7.22-10.28.77-4.58,1.55-7.45-1.34-13.86a29.57,29.57,0,0,0-5.31-7.3,28.19,28.19,0,0,0,8.35,2.9c6.77.8,9.13-.88,13.06-3.1,3.58-2.37,6.78-5.27,7.06-10.4-.34-5.11-3.56-8-7.16-10.31-4-2.18-6.34-3.84-13.1-3a27.58,27.58,0,0,0-8.31,3,30,30,0,0,0,5.23-7.36c2.83-6.45,2-9.31,1.2-13.88-1.06-4.28-2.73-8.33-7.32-10.2-4.79-1.24-8.41,1.06-11.65,3.9-3.21,3.24-5.47,5.08-6.75,12a30.81,30.81,0,0,0,.16,9.15,29.49,29.49,0,0,0-5.11-7.45c-5-4.79-7.88-4.87-12.32-5.48C1049.43,307.51,1045.21,307.9,1042.08,311.87Zm25.48,22.73a9.21,9.21,0,0,1,11.66-6.26,9.73,9.73,0,0,1,6,12.13,9.22,9.22,0,0,1-11.66,6.26A9.73,9.73,0,0,1,1067.56,334.6Z"/><path class="cls-3" d="M1000.29,201.79c-4.47-.21-7.3-.65-13,3.15a29,29,0,0,0-6.29,6.4,30.71,30.71,0,0,0,1.7-9c-.09-7.09-2-9.31-4.61-13.08-2.72-3.39-5.89-6.32-10.81-6-4.84,1-7.16,4.69-8.93,8.7-1.58,4.35-2.85,7-1.15,13.88a30.13,30.13,0,0,0,3.9,8.2,28.11,28.11,0,0,0-7.68-4.46c-6.51-2.1-9.13-.9-13.39.52-3.94,1.64-7.6,3.87-8.79,8.85-.58,5.1,2.07,8.53,5.19,11.52,3.5,2.9,5.54,5,12.34,5.43a27.51,27.51,0,0,0,8.71-1.33,28.81,28.81,0,0,0-6.45,6.22c-3.93,5.79-3.65,8.75-3.66,13.4.28,4.41,1.19,8.71,5.37,11.43,4.48,2.15,8.45.59,12.14-1.58,3.74-2.56,6.28-3.93,8.78-10.52a30.74,30.74,0,0,0,1.48-9,30.07,30.07,0,0,0,3.69,8.31c4.08,5.68,6.88,6.31,11.13,7.77,4.12,1.08,8.33,1.5,12.12-1.79,3.34-3.77,3.14-8.17,2.3-12.5-1.19-4.48-1.66-7.42-6.91-11.93a28,28,0,0,0-7.8-4.25,27.59,27.59,0,0,0,8.74-1.09c6.45-2.28,7.9-4.85,10.54-8.6,2.26-3.74,4-7.78,2.11-12.54C1008.6,203.46,1004.51,202.3,1000.29,201.79ZM974,236.53a9.34,9.34,0,0,1-10.42-8.29,9.59,9.59,0,0,1,8-10.84A9.36,9.36,0,0,1,982,225.69,9.6,9.6,0,0,1,974,236.53Z"/><path class="cls-3" d="M1156,237.72c4.12,1.81,6.63,3.24,13.29,1.74a28,28,0,0,0,8-3.74,29.75,29.75,0,0,0-4.59,7.81c-2.27,6.68-1.23,9.45,0,13.94,1.43,4.15,3.43,8,8.17,9.48,4.87.8,8.27-1.82,11.27-4.95,2.92-3.52,5-5.56,5.7-12.61a30.71,30.71,0,0,0-.94-9.1,29.38,29.38,0,0,0,5.73,7c5.4,4.31,8.26,4.13,12.73,4.33,4.25-.12,8.42-.9,11.2-5.14,2.24-4.57.89-8.75-1-12.68-2.31-4-3.53-6.67-9.77-9.53a27.22,27.22,0,0,0-8.61-1.89,27.89,27.89,0,0,0,8.13-3.51c5.61-4,6.33-6.9,7.89-11.26,1.2-4.23,1.78-8.6-1.24-12.66-3.49-3.63-7.73-3.59-11.92-2.89-4.35,1.06-7.19,1.44-11.74,6.72a29.86,29.86,0,0,0-4.38,7.94,30.93,30.93,0,0,0-.7-9.13c-1.94-6.79-4.36-8.39-7.86-11.29-3.5-2.49-7.32-4.41-12-2.68-4.4,2.33-5.67,6.53-6.32,10.9-.38,4.63-.92,7.56,2.51,13.68a29.32,29.32,0,0,0,5.9,6.79,27.42,27.42,0,0,0-8.56-2.12c-6.81-.19-9,1.71-12.75,4.28-3.36,2.69-6.3,5.87-6.15,11C1148.72,233.17,1152.17,235.72,1156,237.72Zm28-21a9,9,0,0,1,13.1.87,9.92,9.92,0,0,1-.83,13.62,9,9,0,0,1-13.1-.87A9.92,9.92,0,0,1,1183.92,216.69Z"/><path class="cls-3" d="M1117.29,551.37c1.75-4,2.89-8.27.43-12.72-3-4.08-7.18-4.65-11.42-4.54-4.46.43-7.32.4-12.52,5a29.77,29.77,0,0,0-5.38,7.24,30.66,30.66,0,0,0,.5-9.14c-1-7-3.21-8.94-6.3-12.3-3.14-3-6.67-5.41-11.5-4.35-4.66,1.68-6.47,5.67-7.69,9.89-1,4.54-1.9,7.37.69,13.92a29.72,29.72,0,0,0,5,7.56,28,28,0,0,0-8.2-3.32c-6.72-1.14-9.16.42-13.19,2.44-3.69,2.19-7,4.92-7.54,10,.1,5.12,3.19,8.15,6.68,10.66,3.84,2.37,6.14,4.15,12.94,3.61a27.72,27.72,0,0,0,8.45-2.57,29.42,29.42,0,0,0-5.57,7.09c-3.13,6.3-2.45,9.19-1.85,13.8.86,4.32,2.33,8.46,6.84,10.55,4.72,1.49,8.44-.63,11.81-3.3,3.36-3.07,5.7-4.8,7.31-11.69a30.87,30.87,0,0,0,.26-9.15,29.88,29.88,0,0,0,4.76,7.7c4.79,5,7.65,5.27,12,6.1,4.22.48,8.45.3,11.76-3.51,2.82-4.21,2-8.54.63-12.71-1.77-4.27-2.63-7.11-8.43-10.83a27.59,27.59,0,0,0-8.28-3.08,27.79,27.79,0,0,0,8.51-2.34C1114.09,558.22,1115.18,555.47,1117.29,551.37Zm-32.45,20.92a9.24,9.24,0,0,1-11.42-6.72,9.7,9.7,0,0,1,6.45-11.88,9.24,9.24,0,0,1,11.43,6.72A9.71,9.71,0,0,1,1084.84,572.29Z"/><path class="cls-3" d="M933.8,461.33c-1.73,4-2.86,8.29-.38,12.72,3,4.08,7.2,4.62,11.45,4.5,4.45-.45,7.31-.44,12.49-5.05a29.58,29.58,0,0,0,5.35-7.26,30.77,30.77,0,0,0-.46,9.14c1.06,7,3.25,8.92,6.35,12.27,3.16,3,6.7,5.38,11.52,4.3,4.65-1.71,6.45-5.7,7.65-9.93,1-4.55,1.86-7.37-.75-13.92a30,30,0,0,0-5-7.54,27.29,27.29,0,0,0,8.21,3.28c6.73,1.12,9.16-.45,13.19-2.49,3.67-2.21,7-5,7.49-10.06-.12-5.13-3.22-8.14-6.72-10.63-3.86-2.36-6.17-4.13-13-3.56a27.74,27.74,0,0,0-8.43,2.61,29.45,29.45,0,0,0,5.53-7.11c3.1-6.31,2.42-9.21,1.8-13.81-.88-4.32-2.38-8.45-6.89-10.52-4.73-1.47-8.44.67-11.8,3.36-3.35,3.08-5.67,4.82-7.25,11.71a30.78,30.78,0,0,0-.23,9.15,29.94,29.94,0,0,0-4.79-7.67c-4.81-5-7.67-5.23-12.08-6-4.22-.46-8.45-.27-11.74,3.56-2.8,4.22-2,8.55-.58,12.71,1.79,4.26,2.66,7.1,8.48,10.79a27.77,27.77,0,0,0,8.29,3.05,27.8,27.8,0,0,0-8.5,2.37C937,454.47,935.9,457.23,933.8,461.33Zm26-15.11a9.16,9.16,0,0,1,11.91-5.72,9.76,9.76,0,0,1,5.5,12.39,9.18,9.18,0,0,1-11.91,5.72A9.75,9.75,0,0,1,959.84,446.22Z"/><path class="cls-3" d="M1225.45,438.05c1.68-4.06,2.75-8.32.22-12.72-3.05-4-7.27-4.52-11.51-4.34-4.44.51-7.31.53-12.42,5.21a29.66,29.66,0,0,0-5.26,7.34,30.89,30.89,0,0,0,.34-9.15c-1.14-7-3.36-8.87-6.51-12.17-3.19-2.92-6.76-5.29-11.57-4.15-4.63,1.77-6.37,5.79-7.52,10-.91,4.55-1.77,7.39.93,13.9a29.45,29.45,0,0,0,5.09,7.47,27.88,27.88,0,0,0-8.26-3.17c-6.74-1-9.16.58-13.15,2.67-3.65,2.26-6.93,5.06-7.37,10.17.19,5.12,3.33,8.09,6.86,10.54,3.88,2.3,6.21,4,13,3.37a27.64,27.64,0,0,0,8.4-2.72,29.66,29.66,0,0,0-5.45,7.19c-3,6.35-2.29,9.23-1.61,13.83.93,4.31,2.47,8.41,7,10.43,4.75,1.4,8.43-.79,11.76-3.52,3.31-3.14,5.61-4.91,7.11-11.82a30.67,30.67,0,0,0,.1-9.15,30.15,30.15,0,0,0,4.89,7.61c4.88,4.95,7.74,5.12,12.15,5.87,4.23.41,8.46.15,11.71-3.72,2.74-4.26,1.88-8.57.41-12.71-1.84-4.24-2.75-7.07-8.61-10.68a27.85,27.85,0,0,0-8.34-2.94,27.43,27.43,0,0,0,8.47-2.48C1222.36,445,1223.4,442.18,1225.45,438.05Zm-32.09,21.5a9.22,9.22,0,0,1-11.54-6.5,9.71,9.71,0,0,1,6.26-12,9.22,9.22,0,0,1,11.53,6.5A9.71,9.71,0,0,1,1193.36,459.55Z"/><path class="cls-3" d="M891.23,787a27.64,27.64,0,0,0-8.59-2,27.89,27.89,0,0,0,8.15-3.45c5.64-4,6.38-6.85,8-11.2,1.23-4.22,1.84-8.59-1.15-12.67-3.46-3.65-7.7-3.64-11.9-3-4.36,1-7.2,1.38-11.78,6.62a29.64,29.64,0,0,0-4.44,7.9,31.34,31.34,0,0,0-.64-9.12c-1.47-5.28-3.24-7.44-5.58-9.5-.69-.6-1.41-1.19-2.2-1.85-3.48-2.52-7.28-4.47-11.94-2.78-4.41,2.3-5.72,6.49-6.4,10.85-.41,4.63-1,7.55,2.42,13.7a29.32,29.32,0,0,0,5.85,6.84,27.56,27.56,0,0,0-8.54-2.19c-6.81-.24-9,1.64-12.79,4.18-3.38,2.67-6.34,5.83-6.22,11,.73,5.07,4.17,7.65,7.94,9.68,4.11,1.83,6.61,3.29,13.28,1.84a28,28,0,0,0,8.06-3.68,29.83,29.83,0,0,0-4.64,7.78c-2.32,6.66-1.3,9.44-.13,13.93,1.39,4.17,3.37,8.07,8.1,9.54a10,10,0,0,0,7.21-1.45,21.54,21.54,0,0,0,4.09-3.41c2.95-3.49,5-5.52,5.79-12.56a31,31,0,0,0-.87-9.11,29.18,29.18,0,0,0,5.68,7c5.37,4.36,8.23,4.2,12.7,4.43,4.24-.09,8.42-.83,11.23-5.05,2.27-4.56,1-8.75-.95-12.69C898.65,792.6,897.45,789.9,891.23,787Zm-22.05,8.5a8.91,8.91,0,0,1-5.91.45,9.38,9.38,0,0,1-6.26-5.58,9.8,9.8,0,0,1,4.93-12.65,9.47,9.47,0,0,1,1.33-.45,9.18,9.18,0,0,1,10.84,5.58A9.8,9.8,0,0,1,869.18,795.49Z"/><path class="cls-3" d="M1256.34,339.61c.63,5.09,4,7.75,7.73,9.87,4.07,1.93,6.54,3.44,13.24,2.15a27.84,27.84,0,0,0,8.14-3.49,29.61,29.61,0,0,0-4.81,7.66c-2.47,6.61-1.5,9.42-.43,13.93,1.3,4.2,3.19,8.15,7.89,9.73a10.18,10.18,0,0,0,7.9-1.68,24,24,0,0,0,3.51-2.91c3-3.43,5.16-5.41,6.06-12.43a31,31,0,0,0-.68-9.13,29.45,29.45,0,0,0,5.52,7.13c5.28,4.48,8.15,4.39,12.61,4.72,4.24,0,8.44-.64,11.34-4.79,2.37-4.5,1.14-8.72-.68-12.7-2.2-4.05-3.35-6.79-9.5-9.84a27.52,27.52,0,0,0-8.55-2.15,27.9,27.9,0,0,0,8.22-3.26c5.73-3.84,6.53-6.7,8.22-11,1.32-4.19,2-8.54-.88-12.69-3.38-3.73-7.62-3.83-11.83-3.25-4.38.92-7.24,1.21-11.93,6.35a29.84,29.84,0,0,0-4.61,7.79,30.76,30.76,0,0,0-.44-9.14c-1.54-6.05-3.57-8.07-6.38-10.52l-1.15-1c-3.42-2.6-7.18-4.64-11.88-3.05-4.46,2.19-5.85,6.36-6.63,10.69-.51,4.63-1.13,7.53,2.12,13.76a29.32,29.32,0,0,0,5.71,7,27.76,27.76,0,0,0-8.5-2.39c-6.8-.39-9.07,1.43-12.87,3.89C1259.36,331.39,1256.34,334.48,1256.34,339.61Zm38.76-11.74c.3-.12.6-.23.9-.32a9.2,9.2,0,0,1,11.15,5.73,9.79,9.79,0,0,1-5.2,12.53,8.93,8.93,0,0,1-6,.31,9.4,9.4,0,0,1-6.1-5.72A9.79,9.79,0,0,1,1295.1,327.87Z"/><path class="cls-3" d="M1258.33,552.79c2.23,4,3.4,6.75,9.58,9.74a27.36,27.36,0,0,0,8.58,2.06,28.16,28.16,0,0,0-8.2,3.35c-5.69,3.89-6.46,6.76-8.11,11.09-1.28,4.2-1.94,8.56,1,12.68,3.41,3.7,7.65,3.75,11.85,3.14,4.38-1,7.23-1.29,11.87-6.47a29.83,29.83,0,0,0,4.54-7.85,30.72,30.72,0,0,0,.53,9.14c1.51,5.72,3.43,7.81,6,10.08l1.6,1.37c3.45,2.57,7.23,4.57,11.91,2.93,4.44-2.23,5.79-6.41,6.53-10.75.47-4.63,1.06-7.55-2.25-13.74a29.2,29.2,0,0,0-5.77-6.91,27.78,27.78,0,0,0,8.52,2.3c6.81.33,9.06-1.52,12.83-4,3.42-2.62,6.42-5.74,6.37-10.87-.68-5.08-4.08-7.71-7.83-9.79-4.08-1.89-6.57-3.37-13.25-2a28,28,0,0,0-8.11,3.57,29.49,29.49,0,0,0,4.74-7.71c2.4-6.63,1.41-9.42.3-13.93-1.34-4.19-3.27-8.12-8-9.65a10.11,10.11,0,0,0-7.61,1.58,22.1,22.1,0,0,0-3.75,3.13c-3,3.46-5.12,5.45-6,12.49a31,31,0,0,0,.76,9.11,29.42,29.42,0,0,0-5.59-7.06c-5.32-4.43-8.18-4.31-12.65-4.6-4.24,0-8.43.72-11.29,4.9C1255.2,544.62,1256.47,548.82,1258.33,552.79Zm26.1,8.18a9.27,9.27,0,0,1,11.23-7.07l.34.11a9.68,9.68,0,0,1,6.45,11.57,9.46,9.46,0,0,1-6.45,7,8.86,8.86,0,0,1-4.77.11A9.68,9.68,0,0,1,1284.43,561Z"/><path class="cls-3" d="M1113.45,779.76c-3.71-2.6-5.91-4.5-12.73-4.36a27.41,27.41,0,0,0-8.57,2.07,29.19,29.19,0,0,0,5.94-6.76c3.47-6.1,3-9,2.6-13.67-.63-4.36-1.88-8.57-6.26-10.93-4.64-1.76-8.46.14-12,2.61-3.52,2.87-5.94,4.46-7.92,11.24a31.07,31.07,0,0,0-.76,9.12,29.59,29.59,0,0,0-4.34-8c-4.51-5.31-7.35-5.71-11.7-6.79-4.18-.73-8.42-.8-11.93,2.81-3,4-2.49,8.41-1.31,12.65,1.53,4.37,2.24,7.26,7.83,11.31a28,28,0,0,0,8.1,3.56,27.71,27.71,0,0,0-8.62,1.83c-6.25,2.83-7.49,5.51-9.83,9.48-2,3.91-3.32,8.09-1.11,12.67,2.76,4.26,6.92,5.06,11.16,5.21,4.48-.17,7.33,0,12.77-4.25a29.53,29.53,0,0,0,5.76-6.92,30.87,30.87,0,0,0-1,9.1c.65,7.05,2.72,9.1,5.63,12.64,3,3.15,6.37,5.79,11.24,5,4.75-1.41,6.77-5.28,8.22-9.43,1.22-4.48,2.29-7.24,0-13.94a30.28,30.28,0,0,0-4.54-7.84,27.78,27.78,0,0,0,8,3.79c6.65,1.54,9.17.13,13.31-1.66,3.79-2,7.26-4.5,8.06-9.57C1119.72,785.67,1116.8,782.47,1113.45,779.76Zm-26.8,7.55A9.37,9.37,0,0,1,1076.5,796a9.57,9.57,0,0,1-8.32-10.56,9.39,9.39,0,0,1,10.16-8.64A9.55,9.55,0,0,1,1086.65,787.31Z"/><path class="cls-3" d="M999.75,675.83a27.81,27.81,0,0,0-8.52-2.27,27.69,27.69,0,0,0,8.26-3.14c5.78-3.76,6.62-6.61,8.36-10.89,1.37-4.18,2.13-8.52-.72-12.71-3.33-3.78-7.57-3.93-11.78-3.42-4.4.87-7.25,1.11-12,6.19a29.59,29.59,0,0,0-4.71,7.73,30.78,30.78,0,0,0-.33-9.15c-1.65-6.87-4-8.58-7.37-11.63-3.4-2.65-7.13-4.74-11.84-3.22-4.49,2.13-5.94,6.27-6.77,10.6-.57,4.62-1.23,7.52,1.94,13.79a29.46,29.46,0,0,0,5.62,7,27.72,27.72,0,0,0-8.47-2.51c-6.8-.49-9.09,1.3-12.92,3.7-3.47,2.54-6.53,5.59-6.6,10.72.56,5.09,3.9,7.81,7.6,10,4,2,6.5,3.53,13.21,2.34a27.86,27.86,0,0,0,8.18-3.38,29.88,29.88,0,0,0-4.9,7.6c-2.55,6.57-1.62,9.39-.61,13.92,1.25,4.22,3.09,8.19,7.76,9.84,4.84,1,8.35-1.45,11.47-4.44,3.07-3.38,5.24-5.33,6.22-12.34a30.82,30.82,0,0,0-.56-9.14,29.53,29.53,0,0,0,5.43,7.21c5.22,4.55,8.09,4.5,12.55,4.9,4.24.07,8.44-.53,11.39-4.64,2.43-4.46,1.26-8.7-.51-12.71C1007,681.72,1005.86,679,999.75,675.83Zm-22.34,7.67a9.17,9.17,0,0,1-12-5.58,9.76,9.76,0,0,1,5.36-12.45,9.17,9.17,0,0,1,12,5.57A9.78,9.78,0,0,1,977.41,683.5Z"/><path class="cls-3" d="M1219.62,661.82c-4.16-1.72-6.7-3.11-13.33-1.48a28.25,28.25,0,0,0-8,3.89,29.6,29.6,0,0,0,4.44-7.89c2.16-6.73,1.06-9.48-.22-13.94-1.5-4.13-3.57-8-8.33-9.32-4.89-.71-8.25,2-11.18,5.17-2.87,3.57-4.91,5.66-5.48,12.72a30.76,30.76,0,0,0,1.11,9.08,29.46,29.46,0,0,0-5.85-6.84c-5.49-4.21-8.34-4-12.82-4.08-4.24.2-8.39,1.06-11.1,5.36-2.15,4.61-.73,8.76,1.28,12.65,2.38,3.94,3.65,6.61,9.94,9.34a27.37,27.37,0,0,0,8.64,1.72,27.79,27.79,0,0,0-8.06,3.67c-5.54,4.13-6.21,7-7.69,11.41-1.13,4.26-1.62,8.64,1.47,12.64,3.55,3.55,7.79,3.43,12,2.65,4.34-1.14,7.17-1.58,11.62-6.94a30,30,0,0,0,4.24-8,31,31,0,0,0,.87,9.1c2.06,6.76,4.5,8.31,8.06,11.14,3.54,2.42,7.39,4.27,12,2.45,4.35-2.42,5.55-6.65,6.12-11,.3-4.64.78-7.58-2.76-13.63a29.25,29.25,0,0,0-6-6.68,27.41,27.41,0,0,0,8.59,2c6.82.05,9-1.88,12.68-4.53,3.31-2.76,6.19-6,6-11.12C1226.93,666.23,1223.44,663.74,1219.62,661.82Zm-24.87,16.31a9.3,9.3,0,0,1-11,7.52,9.66,9.66,0,0,1-7.23-11.39,9.31,9.31,0,0,1,11-7.52A9.65,9.65,0,0,1,1194.75,678.13Z"/><ellipse class="cls-3" cx="1296" cy="225" rx="10.1" ry="10.5"/><path class="cls-3" d="M1079.63,235.5a10.51,10.51,0,1,0-10.09-10.5A10.3,10.3,0,0,0,1079.63,235.5Z"/><path class="cls-3" d="M1296,10.5A10.3,10.3,0,0,0,1306.1,0h-20.19A10.3,10.3,0,0,0,1296,10.5Z"/><path class="cls-3" d="M1079.63,10.5A10.3,10.3,0,0,0,1089.73,0h-20.19A10.3,10.3,0,0,0,1079.63,10.5Z"/><path class="cls-3" d="M863.27,889.5a10.3,10.3,0,0,0-10.1,10.5h20.19A10.3,10.3,0,0,0,863.27,889.5Z"/><path class="cls-3" d="M1079.63,889.5a10.3,10.3,0,0,0-10.09,10.5h20.19A10.3,10.3,0,0,0,1079.63,889.5Z"/><path class="cls-3" d="M971.45,102a10.51,10.51,0,1,0,10.1,10.5A10.3,10.3,0,0,0,971.45,102Z"/><ellipse class="cls-3" cx="1187.82" cy="112.5" rx="10.1" ry="10.5"/><path class="cls-3" d="M971.45,348a10.51,10.51,0,1,0-10.1-10.5A10.3,10.3,0,0,0,971.45,348Z"/><ellipse class="cls-3" cx="1187.82" cy="337.5" rx="10.1" ry="10.5"/><path class="cls-3" d="M863.27,439.5A10.51,10.51,0,1,0,873.36,450,10.3,10.3,0,0,0,863.27,439.5Z"/><path class="cls-3" d="M1079.63,439.5a10.51,10.51,0,1,0,10.1,10.5A10.3,10.3,0,0,0,1079.63,439.5Z"/><path class="cls-3" d="M971.45,552a10.51,10.51,0,1,0,10.1,10.5A10.3,10.3,0,0,0,971.45,552Z"/><ellipse class="cls-3" cx="1187.82" cy="562.5" rx="10.1" ry="10.5"/><ellipse class="cls-3" cx="1296" cy="675" rx="10.1" ry="10.5"/><path class="cls-3" d="M1079.63,664.5a10.51,10.51,0,1,0,10.1,10.5A10.3,10.3,0,0,0,1079.63,664.5Z"/><path class="cls-3" d="M971.45,798a10.51,10.51,0,1,0-10.1-10.5A10.3,10.3,0,0,0,971.45,798Z"/><ellipse class="cls-3" cx="1187.82" cy="787.5" rx="10.1" ry="10.5"/><ellipse class="cls-3" cx="917.36" cy="56.25" rx="6.49" ry="6.75"/><ellipse class="cls-3" cx="1025.54" cy="56.25" rx="6.49" ry="6.75"/><ellipse class="cls-3" cx="1133.73" cy="56.25" rx="6.49" ry="6.75"/><ellipse class="cls-3" cx="1241.91" cy="56.25" rx="6.49" ry="6.75"/><ellipse class="cls-3" cx="1214.86" cy="84.37" rx="6.49" ry="6.75"/><ellipse class="cls-3" cx="998.5" cy="84.37" rx="6.49" ry="6.75"/><ellipse class="cls-3" cx="944.4" cy="84.37" rx="6.49" ry="6.75"/><ellipse class="cls-3" cx="1160.77" cy="84.37" rx="6.49" ry="6.75"/><ellipse class="cls-3" cx="1214.86" cy="140.62" rx="6.49" ry="6.75"/><ellipse class="cls-3" cx="998.5" cy="140.62" rx="6.49" ry="6.75"/><ellipse class="cls-3" cx="944.4" cy="140.62" rx="6.49" ry="6.75"/><ellipse class="cls-3" cx="1160.77" cy="140.62" rx="6.49" ry="6.75"/><ellipse class="cls-3" cx="1214.86" cy="309.37" rx="6.49" ry="6.75"/><ellipse class="cls-3" cx="998.5" cy="309.37" rx="6.49" ry="6.75"/><ellipse class="cls-3" cx="944.4" cy="309.37" rx="6.49" ry="6.75"/><ellipse class="cls-3" cx="1160.77" cy="309.37" rx="6.49" ry="6.75"/><ellipse class="cls-3" cx="1214.86" cy="365.62" rx="6.49" ry="6.75"/><ellipse class="cls-3" cx="998.5" cy="365.62" rx="6.49" ry="6.75"/><ellipse class="cls-3" cx="944.4" cy="365.62" rx="6.49" ry="6.75"/><ellipse class="cls-3" cx="1160.77" cy="365.62" rx="6.49" ry="6.75"/><ellipse class="cls-3" cx="1214.86" cy="534.37" rx="6.49" ry="6.75"/><ellipse class="cls-3" cx="998.5" cy="534.37" rx="6.49" ry="6.75"/><ellipse class="cls-3" cx="944.4" cy="534.37" rx="6.49" ry="6.75"/><ellipse class="cls-3" cx="1160.77" cy="534.37" rx="6.49" ry="6.75"/><ellipse class="cls-3" cx="1214.86" cy="590.62" rx="6.49" ry="6.75"/><ellipse class="cls-3" cx="998.5" cy="590.62" rx="6.49" ry="6.75"/><ellipse class="cls-3" cx="944.4" cy="590.62" rx="6.49" ry="6.75"/><ellipse class="cls-3" cx="1160.77" cy="590.62" rx="6.49" ry="6.75"/><ellipse class="cls-3" cx="1214.86" cy="759.37" rx="6.49" ry="6.75"/><ellipse class="cls-3" cx="998.5" cy="759.37" rx="6.49" ry="6.75"/><ellipse class="cls-3" cx="944.4" cy="759.37" rx="6.49" ry="6.75"/><ellipse class="cls-3" cx="1160.77" cy="759.37" rx="6.49" ry="6.75"/><ellipse class="cls-3" cx="1214.86" cy="815.62" rx="6.49" ry="6.75"/><ellipse class="cls-3" cx="998.5" cy="815.62" rx="6.49" ry="6.75"/><ellipse class="cls-3" cx="944.4" cy="815.62" rx="6.49" ry="6.75"/><ellipse class="cls-3" cx="1160.77" cy="815.62" rx="6.49" ry="6.75"/><ellipse class="cls-3" cx="890.31" cy="28.12" rx="6.49" ry="6.75"/><ellipse class="cls-3" cx="1052.59" cy="28.12" rx="6.49" ry="6.75"/><ellipse class="cls-3" cx="1106.68" cy="28.12" rx="6.49" ry="6.75"/><ellipse class="cls-3" cx="1268.96" cy="28.12" rx="6.49" ry="6.75"/><ellipse class="cls-3" cx="890.31" cy="196.87" rx="6.49" ry="6.75"/><ellipse class="cls-3" cx="1052.59" cy="196.87" rx="6.49" ry="6.75"/><ellipse class="cls-3" cx="1106.68" cy="196.87" rx="6.49" ry="6.75"/><ellipse class="cls-3" cx="1268.96" cy="196.87" rx="6.49" ry="6.75"/><ellipse class="cls-3" cx="890.31" cy="253.12" rx="6.49" ry="6.75"/><ellipse class="cls-3" cx="1052.59" cy="253.12" rx="6.49" ry="6.75"/><ellipse class="cls-3" cx="1106.68" cy="253.12" rx="6.49" ry="6.75"/><ellipse class="cls-3" cx="1268.96" cy="253.12" rx="6.49" ry="6.75"/><ellipse class="cls-3" cx="890.31" cy="421.87" rx="6.49" ry="6.75"/><ellipse class="cls-3" cx="1052.59" cy="421.87" rx="6.49" ry="6.75"/><ellipse class="cls-3" cx="1106.68" cy="421.87" rx="6.49" ry="6.75"/><ellipse class="cls-3" cx="1268.96" cy="421.87" rx="6.49" ry="6.75"/><ellipse class="cls-3" cx="890.31" cy="478.12" rx="6.49" ry="6.75"/><ellipse class="cls-3" cx="1052.59" cy="478.12" rx="6.49" ry="6.75"/><ellipse class="cls-3" cx="1106.68" cy="478.12" rx="6.49" ry="6.75"/><ellipse class="cls-3" cx="1268.96" cy="478.12" rx="6.49" ry="6.75"/><ellipse class="cls-3" cx="890.31" cy="646.87" rx="6.49" ry="6.75"/><ellipse class="cls-3" cx="1052.59" cy="646.87" rx="6.49" ry="6.75"/><ellipse class="cls-3" cx="1106.68" cy="646.87" rx="6.49" ry="6.75"/><ellipse class="cls-3" cx="1268.96" cy="646.87" rx="6.49" ry="6.75"/><ellipse class="cls-3" cx="890.31" cy="703.12" rx="6.49" ry="6.75"/><ellipse class="cls-3" cx="1052.59" cy="703.12" rx="6.49" ry="6.75"/><ellipse class="cls-3" cx="1106.68" cy="703.12" rx="6.49" ry="6.75"/><ellipse class="cls-3" cx="1268.96" cy="703.12" rx="6.49" ry="6.75"/><ellipse class="cls-3" cx="890.31" cy="871.87" rx="6.49" ry="6.75"/><ellipse class="cls-3" cx="1052.59" cy="871.87" rx="6.49" ry="6.75"/><ellipse class="cls-3" cx="1106.68" cy="871.87" rx="6.49" ry="6.75"/><ellipse class="cls-3" cx="1268.96" cy="871.87" rx="6.49" ry="6.75"/><ellipse class="cls-3" cx="917.36" cy="168.75" rx="6.49" ry="6.75"/><ellipse class="cls-3" cx="1025.54" cy="168.75" rx="6.49" ry="6.75"/><ellipse class="cls-3" cx="1133.73" cy="168.75" rx="6.49" ry="6.75"/><ellipse class="cls-3" cx="1241.91" cy="168.75" rx="6.49" ry="6.75"/><ellipse class="cls-3" cx="917.36" cy="281.25" rx="6.49" ry="6.75"/><ellipse class="cls-3" cx="1025.54" cy="281.25" rx="6.49" ry="6.75"/><ellipse class="cls-3" cx="1133.73" cy="281.25" rx="6.49" ry="6.75"/><ellipse class="cls-3" cx="1241.91" cy="281.25" rx="6.49" ry="6.75"/><ellipse class="cls-3" cx="917.36" cy="393.75" rx="6.49" ry="6.75"/><ellipse class="cls-3" cx="1025.54" cy="393.75" rx="6.49" ry="6.75"/><ellipse class="cls-3" cx="1133.73" cy="393.75" rx="6.49" ry="6.75"/><ellipse class="cls-3" cx="1241.91" cy="393.75" rx="6.49" ry="6.75"/><ellipse class="cls-3" cx="917.36" cy="506.25" rx="6.49" ry="6.75"/><ellipse class="cls-3" cx="1025.54" cy="506.25" rx="6.49" ry="6.75"/><ellipse class="cls-3" cx="1133.73" cy="506.25" rx="6.49" ry="6.75"/><ellipse class="cls-3" cx="1241.91" cy="506.25" rx="6.49" ry="6.75"/><ellipse class="cls-3" cx="917.36" cy="618.75" rx="6.49" ry="6.75"/><ellipse class="cls-3" cx="1025.54" cy="618.75" rx="6.49" ry="6.75"/><ellipse class="cls-3" cx="1133.73" cy="618.75" rx="6.49" ry="6.75"/><ellipse class="cls-3" cx="1241.91" cy="618.75" rx="6.49" ry="6.75"/><ellipse class="cls-3" cx="917.36" cy="731.25" rx="6.49" ry="6.75"/><ellipse class="cls-3" cx="1025.54" cy="731.25" rx="6.49" ry="6.75"/><ellipse class="cls-3" cx="1133.73" cy="731.25" rx="6.49" ry="6.75"/><ellipse class="cls-3" cx="1241.91" cy="731.25" rx="6.49" ry="6.75"/><ellipse class="cls-3" cx="917.36" cy="843.75" rx="6.49" ry="6.75"/><ellipse class="cls-3" cx="1025.54" cy="843.75" rx="6.49" ry="6.75"/><ellipse class="cls-3" cx="1133.73" cy="843.75" rx="6.49" ry="6.75"/><ellipse class="cls-3" cx="1241.91" cy="843.75" rx="6.49" ry="6.75"/><path class="cls-3" d="M1323.44,85.76c-4.47.22-7.33.06-12.71,4.39a29.28,29.28,0,0,0-5.7,7,30.81,30.81,0,0,0,.9-9.1c-.72-7-2.82-9.08-5.76-12.59A21,21,0,0,0,1296,72a10,10,0,0,0-7.12-1.43c-4.73,1.46-6.72,5.35-8.12,9.52-1.18,4.49-2.22,7.26.09,13.93a29.46,29.46,0,0,0,4.62,7.79,28.17,28.17,0,0,0-8-3.7c-6.67-1.47-9.17,0-13.29,1.8-3.78,2-7.22,4.59-8,9.66-.12,5.13,2.83,8.3,6.2,11,3.74,2.56,6,4.44,12.77,4.22a27.58,27.58,0,0,0,8.55-2.16,29.25,29.25,0,0,0-5.87,6.82c-3.4,6.14-2.85,9.06-2.46,13.69.68,4.36,2,8.56,6.38,10.87,4.65,1.71,8.45-.23,11.94-2.74.84-.7,1.61-1.32,2.33-2,2.29-2,4-4.19,5.48-9.37a30.77,30.77,0,0,0,.67-9.12,29.91,29.91,0,0,0,4.41,7.91c4.57,5.26,7.41,5.63,11.77,6.66,4.2.69,8.44.71,11.91-2.94,3-4.07,2.4-8.44,1.18-12.66-1.58-4.36-2.31-7.23-7.94-11.22a27.89,27.89,0,0,0-8.14-3.48,27.61,27.61,0,0,0,8.6-1.93c6.23-2.88,7.44-5.58,9.73-9.58,1.92-3.93,3.25-8.12,1-12.68C1331.86,86.62,1327.69,85.86,1323.44,85.76Zm-23.11,37.13a8.92,8.92,0,0,1-4.33-.06,9.46,9.46,0,0,1-6.78-7.2,9.66,9.66,0,0,1,6.78-11.5l.19-.06a9.28,9.28,0,0,1,11.12,7.25A9.68,9.68,0,0,1,1300.33,122.89Z"/><path class="cls-3" d="M1484.45,113.18a27.58,27.58,0,0,0,8.61,1.91,28.1,28.1,0,0,0-8.14,3.49c-5.62,4-6.35,6.88-7.92,11.24-1.22,4.23-1.8,8.59,1.2,12.66,3.48,3.64,7.72,3.61,11.91,2.92,4.36-1.05,7.21-1.41,11.76-6.68a30,30,0,0,0,4.41-7.93,30.52,30.52,0,0,0,.68,9.13c1.92,6.8,4.33,8.41,7.82,11.31,3.5,2.5,7.31,4.44,12,2.72,4.4-2.32,5.68-6.52,6.35-10.88.39-4.63.93-7.56-2.48-13.69a29.42,29.42,0,0,0-5.89-6.81,27.81,27.81,0,0,0,8.56,2.15c6.81.2,9-1.68,12.76-4.25,3.37-2.68,6.32-5.85,6.18-11-.76-5.07-4.2-7.64-8-9.64-4.12-1.82-6.63-3.26-13.29-1.78a28,28,0,0,0-8,3.72,29.85,29.85,0,0,0,4.6-7.8c2.29-6.68,1.25-9.45.06-13.94-1.41-4.16-3.4-8-8.13-9.5-4.87-.82-8.29,1.8-11.29,4.92-2.93,3.51-5,5.54-5.73,12.59a31.13,31.13,0,0,0,.91,9.1,29.46,29.46,0,0,0-5.7-7c-5.4-4.33-8.26-4.16-12.73-4.37-4.24.11-8.42.88-11.21,5.11-2.25,4.56-.91,8.75,1,12.68C1477,107.61,1478.22,110.3,1484.45,113.18Zm16.49-1.85a9.28,9.28,0,0,1,11.1-7.28,9.67,9.67,0,0,1,7,11.55,9.29,9.29,0,0,1-11.11,7.28A9.67,9.67,0,0,1,1500.94,111.33Z"/><path class="cls-3" d="M1371.66,9.65c3.88,2.31,6.21,4,13,3.39a27.81,27.81,0,0,0,8.41-2.7,29.66,29.66,0,0,0-5.46,7.18c-3,6.34-2.31,9.23-1.63,13.83.93,4.3,2.47,8.41,7,10.43,4.75,1.41,8.43-.77,11.76-3.5,3.32-3.13,5.62-4.9,7.12-11.81a30.41,30.41,0,0,0,.12-9.15,30,30,0,0,0,4.88,7.62c4.87,5,7.73,5.13,12.15,5.89,4.22.41,8.46.16,11.7-3.7,2.76-4.26,1.9-8.58.44-12.72-1.84-4.24-2.74-7.07-8.6-10.69a28.22,28.22,0,0,0-8.33-2.95A29,29,0,0,0,1428.1,0h-11.76a9.63,9.63,0,0,1-6.64,9.57,9.23,9.23,0,0,1-11.53-6.52,10,10,0,0,1-.37-3h-32.88C1365.42,4.57,1368.35,7.35,1371.66,9.65Z"/><path class="cls-3" d="M1430.56,871c-4.45.5-7.31.52-12.43,5.19a29.69,29.69,0,0,0-5.27,7.33,31.13,31.13,0,0,0,.35-9.14c-1.14-7-3.35-8.88-6.49-12.19-3.19-2.92-6.75-5.3-11.56-4.16-4.64,1.76-6.39,5.78-7.54,10-.91,4.56-1.78,7.4.91,13.91a29.44,29.44,0,0,0,5.08,7.47,28.15,28.15,0,0,0-8.26-3.18c-6.74-1-9.15.57-13.15,2.66-3.65,2.25-6.93,5-7.38,10.15,0,.32.07.6.1.9h32.88a9.6,9.6,0,0,1,6.64-8.94,9.23,9.23,0,0,1,11.53,6.52,10.22,10.22,0,0,1,.37,2.42h11.76a27.09,27.09,0,0,0,4.58-1.7c6-3.28,7.09-6,9.14-10.19,1.68-4.05,2.76-8.31.23-12.72C1439,871.35,1434.8,870.86,1430.56,871Z"/><path class="cls-3" d="M1474.82,311.87c-2.62,4.35-1.63,8.63,0,12.72,2,4.18,3,7,8.92,10.4a27.55,27.55,0,0,0,8.42,2.66,27.7,27.7,0,0,0-8.39,2.76c-5.94,3.48-6.9,6.29-8.82,10.49-1.56,4.11-2.5,8.4.16,12.72,3.17,3.94,7.4,4.28,11.63,4,4.43-.66,7.29-.77,12.26-5.62a29.16,29.16,0,0,0,5-7.5,31.12,31.12,0,0,0-.07,9.15c1.36,6.95,3.63,8.76,6.87,12,3.28,2.8,6.92,5.07,11.69,3.77,4.57-1.92,6.2-6,7.22-10.28.77-4.58,1.55-7.45-1.35-13.86a29.31,29.31,0,0,0-5.3-7.3,28.19,28.19,0,0,0,8.35,2.9c6.77.8,9.13-.88,13.06-3.1,3.58-2.37,6.77-5.27,7.06-10.4-.34-5.11-3.56-8-7.17-10.31-3.95-2.18-6.33-3.84-13.09-3a27.65,27.65,0,0,0-8.32,3,29.77,29.77,0,0,0,5.23-7.36c2.83-6.45,2-9.31,1.21-13.88-1.07-4.28-2.73-8.33-7.33-10.2-4.78-1.24-8.4,1.06-11.65,3.9-3.21,3.24-5.46,5.08-6.74,12a30.81,30.81,0,0,0,.16,9.15,29.75,29.75,0,0,0-5.11-7.45c-5-4.79-7.89-4.87-12.32-5.48C1482.17,307.51,1478,307.9,1474.82,311.87Zm25.47,22.73a9.21,9.21,0,0,1,11.66-6.26,9.73,9.73,0,0,1,6,12.13,9.21,9.21,0,0,1-11.66,6.26A9.73,9.73,0,0,1,1500.29,334.6Z"/><path class="cls-3" d="M1433,201.79c-4.47-.21-7.3-.65-13,3.15a29.06,29.06,0,0,0-6.3,6.4,30.69,30.69,0,0,0,1.71-9c-.09-7.09-2-9.31-4.61-13.08-2.72-3.39-5.89-6.32-10.82-6-4.83,1-7.16,4.69-8.93,8.7-1.57,4.35-2.85,7-1.15,13.88a30.13,30.13,0,0,0,3.91,8.2,28.26,28.26,0,0,0-7.68-4.46c-6.51-2.1-9.14-.9-13.4.52-3.94,1.64-7.59,3.87-8.79,8.85-.58,5.1,2.08,8.53,5.2,11.52,3.5,2.9,5.54,5,12.34,5.43a27.51,27.51,0,0,0,8.71-1.33,29,29,0,0,0-6.46,6.22c-3.93,5.79-3.64,8.75-3.66,13.4.28,4.41,1.2,8.71,5.38,11.43,4.48,2.15,8.44.59,12.14-1.58,3.74-2.56,6.28-3.93,8.78-10.52a30.37,30.37,0,0,0,1.47-9,30.12,30.12,0,0,0,3.7,8.31c4.08,5.68,6.88,6.31,11.13,7.77,4.11,1.08,8.33,1.5,12.11-1.79,3.35-3.77,3.15-8.17,2.31-12.5-1.19-4.48-1.66-7.42-6.92-11.93a28,28,0,0,0-7.79-4.25,27.59,27.59,0,0,0,8.74-1.09c6.45-2.28,7.89-4.85,10.54-8.6,2.26-3.74,3.95-7.78,2.1-12.54C1441.33,203.46,1437.24,202.3,1433,201.79Zm-26.31,34.74a9.35,9.35,0,0,1-10.43-8.29,9.6,9.6,0,0,1,8-10.84,9.36,9.36,0,0,1,10.43,8.29A9.58,9.58,0,0,1,1406.72,236.53Z"/><path class="cls-3" d="M1550,551.37c1.75-4,2.89-8.27.43-12.72-3-4.08-7.19-4.65-11.43-4.54-4.45.43-7.32.4-12.51,5a29.25,29.25,0,0,0-5.38,7.24,31,31,0,0,0,.5-9.14c-1-7-3.22-8.94-6.31-12.3-3.14-3-6.67-5.41-11.5-4.35-4.66,1.68-6.47,5.67-7.69,9.89-1,4.54-1.89,7.37.7,13.92a29.72,29.72,0,0,0,5,7.56,28.13,28.13,0,0,0-8.2-3.32c-6.73-1.14-9.17.42-13.2,2.44-3.68,2.19-7,4.92-7.53,10,.1,5.12,3.18,8.15,6.67,10.66,3.85,2.37,6.15,4.15,12.94,3.61a27.64,27.64,0,0,0,8.45-2.57,29.42,29.42,0,0,0-5.57,7.09c-3.12,6.3-2.45,9.19-1.85,13.8.87,4.32,2.34,8.46,6.84,10.55,4.73,1.49,8.44-.63,11.82-3.3,3.36-3.07,5.69-4.8,7.3-11.69a30.87,30.87,0,0,0,.26-9.15,29.67,29.67,0,0,0,4.77,7.7c4.79,5,7.64,5.27,12,6.1,4.21.48,8.45.3,11.76-3.51,2.82-4.21,2-8.54.63-12.71-1.77-4.27-2.63-7.11-8.43-10.83a27.64,27.64,0,0,0-8.29-3.08,27.64,27.64,0,0,0,8.51-2.34C1546.82,558.22,1547.91,555.47,1550,551.37Zm-32.45,20.92a9.25,9.25,0,0,1-11.43-6.72,9.71,9.71,0,0,1,6.46-11.88,9.25,9.25,0,0,1,11.43,6.72A9.71,9.71,0,0,1,1517.58,572.29Z"/><path class="cls-3" d="M1366.53,461.33c-1.73,4-2.85,8.29-.37,12.72,3,4.08,7.2,4.62,11.44,4.5,4.46-.45,7.32-.44,12.49-5.05a29.64,29.64,0,0,0,5.36-7.26,30.77,30.77,0,0,0-.46,9.14c1,7,3.24,8.92,6.35,12.27,3.15,3,6.69,5.38,11.52,4.3,4.65-1.71,6.45-5.7,7.65-9.93,1-4.55,1.86-7.37-.76-13.92a30,30,0,0,0-5-7.54,27.47,27.47,0,0,0,8.22,3.28c6.73,1.12,9.16-.45,13.18-2.49,3.68-2.21,7-5,7.49-10.06-.12-5.13-3.21-8.14-6.71-10.63-3.86-2.36-6.17-4.13-13-3.56a27.81,27.81,0,0,0-8.44,2.61,29.72,29.72,0,0,0,5.54-7.11c3.1-6.31,2.41-9.21,1.79-13.81-.88-4.32-2.37-8.45-6.88-10.52-4.73-1.47-8.44.67-11.8,3.36-3.35,3.08-5.68,4.82-7.26,11.71a30.74,30.74,0,0,0-.22,9.15,29.94,29.94,0,0,0-4.79-7.67c-4.82-5-7.68-5.23-12.08-6-4.22-.46-8.46-.27-11.75,3.56-2.8,4.22-2,8.55-.57,12.71,1.78,4.26,2.65,7.1,8.47,10.79a27.81,27.81,0,0,0,8.3,3.05,27.8,27.8,0,0,0-8.5,2.37C1369.71,454.47,1368.63,457.23,1366.53,461.33Zm26-15.11a9.17,9.17,0,0,1,11.92-5.72,9.76,9.76,0,0,1,5.5,12.39,9.19,9.19,0,0,1-11.92,5.72A9.76,9.76,0,0,1,1392.57,446.22Z"/><path class="cls-3" d="M1324,787a27.7,27.7,0,0,0-8.6-2,27.67,27.67,0,0,0,8.15-3.45c5.65-4,6.39-6.85,8-11.2,1.23-4.22,1.84-8.59-1.15-12.67-3.47-3.65-7.71-3.64-11.9-3-4.36,1-7.21,1.38-11.79,6.62a30.2,30.2,0,0,0-4.44,7.9,30.66,30.66,0,0,0-.64-9.12c-1.46-5.28-3.23-7.44-5.58-9.5-.68-.6-1.41-1.19-2.19-1.85-3.49-2.52-7.29-4.47-12-2.78-4.41,2.3-5.71,6.49-6.4,10.85-.41,4.63-1,7.55,2.42,13.7a29.58,29.58,0,0,0,5.86,6.84,27.62,27.62,0,0,0-8.55-2.19c-6.81-.24-9,1.64-12.78,4.18-3.38,2.67-6.34,5.83-6.23,11,.74,5.07,4.17,7.65,7.94,9.68,4.11,1.83,6.62,3.29,13.29,1.84a27.78,27.78,0,0,0,8-3.68,29.83,29.83,0,0,0-4.64,7.78c-2.32,6.66-1.29,9.44-.12,13.93,1.39,4.17,3.36,8.07,8.09,9.54A10,10,0,0,0,1296,828a21.6,21.6,0,0,0,4.1-3.41c3-3.49,5.05-5.52,5.79-12.56a31,31,0,0,0-.87-9.11,29.12,29.12,0,0,0,5.67,7c5.38,4.36,8.24,4.2,12.71,4.43,4.24-.09,8.42-.83,11.23-5.05,2.27-4.56.95-8.75-1-12.69C1331.39,792.6,1330.18,789.9,1324,787Zm-22.06,8.5a8.91,8.91,0,0,1-5.91.45,9.34,9.34,0,0,1-6.25-5.58,9.8,9.8,0,0,1,4.93-12.65,9.34,9.34,0,0,1,1.32-.45,9.17,9.17,0,0,1,10.84,5.58A9.8,9.8,0,0,1,1301.91,795.49Z"/><path class="cls-3" d="M1546.19,779.76c-3.72-2.6-5.92-4.5-12.73-4.36a27.34,27.34,0,0,0-8.57,2.07,29.19,29.19,0,0,0,5.94-6.76c3.46-6.1,3-9,2.59-13.67-.63-4.36-1.87-8.57-6.26-10.93-4.63-1.76-8.46.14-12,2.61-3.52,2.87-6,4.46-7.92,11.24a30.4,30.4,0,0,0-.76,9.12,29.87,29.87,0,0,0-4.34-8c-4.51-5.31-7.35-5.71-11.7-6.79-4.19-.73-8.43-.8-11.93,2.81-3,4-2.49,8.41-1.32,12.65,1.54,4.37,2.24,7.26,7.83,11.31a27.94,27.94,0,0,0,8.11,3.56,27.65,27.65,0,0,0-8.62,1.83c-6.26,2.83-7.49,5.51-9.83,9.48-2,3.91-3.33,8.09-1.11,12.67,2.75,4.26,6.92,5.06,11.16,5.21,4.47-.17,7.33,0,12.76-4.25a29.34,29.34,0,0,0,5.77-6.92,30.54,30.54,0,0,0-1,9.1c.65,7.05,2.72,9.1,5.63,12.64,3,3.15,6.36,5.79,11.24,5,4.74-1.41,6.77-5.28,8.21-9.43,1.23-4.48,2.29-7.24.06-13.94a30.28,30.28,0,0,0-4.54-7.84,27.66,27.66,0,0,0,8,3.79c6.65,1.54,9.17.13,13.3-1.66,3.8-2,7.27-4.5,8.07-9.57C1552.45,785.67,1549.54,782.47,1546.19,779.76Zm-26.8,7.55a9.39,9.39,0,0,1-10.16,8.64,9.55,9.55,0,0,1-8.31-10.56,9.39,9.39,0,0,1,10.16-8.64A9.55,9.55,0,0,1,1519.39,787.31Z"/><path class="cls-3" d="M1432.49,675.83a27.87,27.87,0,0,0-8.53-2.27,27.74,27.74,0,0,0,8.27-3.14c5.77-3.76,6.61-6.61,8.35-10.89,1.38-4.18,2.14-8.52-.71-12.71-3.34-3.78-7.57-3.93-11.79-3.42-4.39.87-7.25,1.11-12,6.19a30.15,30.15,0,0,0-4.71,7.73,30.41,30.41,0,0,0-.32-9.15c-1.65-6.87-4-8.58-7.38-11.63-3.39-2.65-7.12-4.74-11.84-3.22-4.49,2.13-5.93,6.27-6.77,10.6-.57,4.62-1.22,7.52,2,13.79a29.44,29.44,0,0,0,5.61,7,27.57,27.57,0,0,0-8.46-2.51c-6.8-.49-9.09,1.3-12.92,3.7-3.47,2.54-6.54,5.59-6.6,10.72.56,5.09,3.9,7.81,7.6,10,4,2,6.49,3.53,13.21,2.34a27.86,27.86,0,0,0,8.18-3.38,29.88,29.88,0,0,0-4.91,7.6c-2.55,6.57-1.61,9.39-.6,13.92,1.25,4.22,3.08,8.19,7.76,9.84,4.83,1,8.34-1.45,11.46-4.44,3.07-3.38,5.24-5.33,6.23-12.34A31.15,31.15,0,0,0,1413,691a29.28,29.28,0,0,0,5.43,7.21c5.22,4.55,8.08,4.5,12.54,4.9,4.25.07,8.45-.53,11.4-4.64,2.43-4.46,1.26-8.7-.52-12.71C1439.71,681.72,1438.6,679,1432.49,675.83Zm-22.34,7.67a9.18,9.18,0,0,1-12-5.58,9.76,9.76,0,0,1,5.37-12.45,9.16,9.16,0,0,1,12,5.57A9.77,9.77,0,0,1,1410.15,683.5Z"/><ellipse class="cls-3" cx="1512.37" cy="225" rx="10.1" ry="10.5"/><path class="cls-3" d="M1512.37,10.5A10.3,10.3,0,0,0,1522.47,0h-20.2A10.3,10.3,0,0,0,1512.37,10.5Z"/><path class="cls-3" d="M1296,889.5a10.3,10.3,0,0,0-10.09,10.5h20.19A10.3,10.3,0,0,0,1296,889.5Z"/><path class="cls-3" d="M1512.37,889.5a10.3,10.3,0,0,0-10.1,10.5h20.2A10.3,10.3,0,0,0,1512.37,889.5Z"/><ellipse class="cls-3" cx="1404.19" cy="112.5" rx="10.1" ry="10.5"/><ellipse class="cls-3" cx="1404.19" cy="337.5" rx="10.1" ry="10.5"/><ellipse class="cls-3" cx="1296" cy="450" rx="10.1" ry="10.5"/><ellipse class="cls-3" cx="1512.37" cy="450" rx="10.1" ry="10.5"/><ellipse class="cls-3" cx="1404.19" cy="562.5" rx="10.1" ry="10.5"/><ellipse class="cls-3" cx="1512.37" cy="675" rx="10.1" ry="10.5"/><ellipse class="cls-3" cx="1404.19" cy="787.5" rx="10.1" ry="10.5"/><ellipse class="cls-3" cx="1350.09" cy="56.25" rx="6.49" ry="6.75"/><ellipse class="cls-3" cx="1458.28" cy="56.25" rx="6.49" ry="6.75"/><ellipse class="cls-3" cx="1566.46" cy="56.25" rx="6.49" ry="6.75"/><ellipse class="cls-3" cx="1431.23" cy="84.37" rx="6.49" ry="6.75"/><ellipse class="cls-3" cx="1377.14" cy="84.37" rx="6.49" ry="6.75"/><ellipse class="cls-3" cx="1431.23" cy="140.62" rx="6.49" ry="6.75"/><ellipse class="cls-3" cx="1377.14" cy="140.62" rx="6.49" ry="6.75"/><ellipse class="cls-3" cx="1431.23" cy="309.37" rx="6.49" ry="6.75"/><ellipse class="cls-3" cx="1377.14" cy="309.37" rx="6.49" ry="6.75"/><ellipse class="cls-3" cx="1431.23" cy="365.62" rx="6.49" ry="6.75"/><ellipse class="cls-3" cx="1377.14" cy="365.62" rx="6.49" ry="6.75"/><ellipse class="cls-3" cx="1431.23" cy="534.37" rx="6.49" ry="6.75"/><ellipse class="cls-3" cx="1377.14" cy="534.37" rx="6.49" ry="6.75"/><ellipse class="cls-3" cx="1431.23" cy="590.62" rx="6.49" ry="6.75"/><ellipse class="cls-3" cx="1377.14" cy="590.62" rx="6.49" ry="6.75"/><ellipse class="cls-3" cx="1431.23" cy="759.37" rx="6.49" ry="6.75"/><ellipse class="cls-3" cx="1377.14" cy="759.37" rx="6.49" ry="6.75"/><ellipse class="cls-3" cx="1431.23" cy="815.62" rx="6.49" ry="6.75"/><ellipse class="cls-3" cx="1377.14" cy="815.62" rx="6.49" ry="6.75"/><ellipse class="cls-3" cx="1323.05" cy="28.12" rx="6.49" ry="6.75"/><ellipse class="cls-3" cx="1485.32" cy="28.12" rx="6.49" ry="6.75"/><ellipse class="cls-3" cx="1539.42" cy="28.12" rx="6.49" ry="6.75"/><ellipse class="cls-3" cx="1323.05" cy="196.87" rx="6.49" ry="6.75"/><ellipse class="cls-3" cx="1485.32" cy="196.87" rx="6.49" ry="6.75"/><ellipse class="cls-3" cx="1539.42" cy="196.87" rx="6.49" ry="6.75"/><ellipse class="cls-3" cx="1323.05" cy="253.12" rx="6.49" ry="6.75"/><ellipse class="cls-3" cx="1485.32" cy="253.12" rx="6.49" ry="6.75"/><ellipse class="cls-3" cx="1539.42" cy="253.12" rx="6.49" ry="6.75"/><ellipse class="cls-3" cx="1323.05" cy="421.87" rx="6.49" ry="6.75"/><ellipse class="cls-3" cx="1485.32" cy="421.87" rx="6.49" ry="6.75"/><ellipse class="cls-3" cx="1539.42" cy="421.87" rx="6.49" ry="6.75"/><ellipse class="cls-3" cx="1323.05" cy="478.12" rx="6.49" ry="6.75"/><ellipse class="cls-3" cx="1485.32" cy="478.12" rx="6.49" ry="6.75"/><ellipse class="cls-3" cx="1539.42" cy="478.12" rx="6.49" ry="6.75"/><ellipse class="cls-3" cx="1323.05" cy="646.87" rx="6.49" ry="6.75"/><ellipse class="cls-3" cx="1485.32" cy="646.87" rx="6.49" ry="6.75"/><ellipse class="cls-3" cx="1539.42" cy="646.87" rx="6.49" ry="6.75"/><ellipse class="cls-3" cx="1323.05" cy="703.12" rx="6.49" ry="6.75"/><ellipse class="cls-3" cx="1485.32" cy="703.12" rx="6.49" ry="6.75"/><ellipse class="cls-3" cx="1539.42" cy="703.12" rx="6.49" ry="6.75"/><ellipse class="cls-3" cx="1323.05" cy="871.87" rx="6.49" ry="6.75"/><ellipse class="cls-3" cx="1485.32" cy="871.87" rx="6.49" ry="6.75"/><ellipse class="cls-3" cx="1539.42" cy="871.87" rx="6.49" ry="6.75"/><ellipse class="cls-3" cx="1350.09" cy="168.75" rx="6.49" ry="6.75"/><ellipse class="cls-3" cx="1458.28" cy="168.75" rx="6.49" ry="6.75"/><ellipse class="cls-3" cx="1566.46" cy="168.75" rx="6.49" ry="6.75"/><ellipse class="cls-3" cx="1350.09" cy="281.25" rx="6.49" ry="6.75"/><ellipse class="cls-3" cx="1458.28" cy="281.25" rx="6.49" ry="6.75"/><ellipse class="cls-3" cx="1566.46" cy="281.25" rx="6.49" ry="6.75"/><ellipse class="cls-3" cx="1350.09" cy="393.75" rx="6.49" ry="6.75"/><ellipse class="cls-3" cx="1458.28" cy="393.75" rx="6.49" ry="6.75"/><ellipse class="cls-3" cx="1566.46" cy="393.75" rx="6.49" ry="6.75"/><ellipse class="cls-3" cx="1350.09" cy="506.25" rx="6.49" ry="6.75"/><ellipse class="cls-3" cx="1458.28" cy="506.25" rx="6.49" ry="6.75"/><ellipse class="cls-3" cx="1566.46" cy="506.25" rx="6.49" ry="6.75"/><ellipse class="cls-3" cx="1350.09" cy="618.75" rx="6.49" ry="6.75"/><ellipse class="cls-3" cx="1458.28" cy="618.75" rx="6.49" ry="6.75"/><ellipse class="cls-3" cx="1566.46" cy="618.75" rx="6.49" ry="6.75"/><ellipse class="cls-3" cx="1350.09" cy="731.25" rx="6.49" ry="6.75"/><ellipse class="cls-3" cx="1458.28" cy="731.25" rx="6.49" ry="6.75"/><ellipse class="cls-3" cx="1566.46" cy="731.25" rx="6.49" ry="6.75"/><ellipse class="cls-3" cx="1350.09" cy="843.75" rx="6.49" ry="6.75"/><ellipse class="cls-3" cx="1458.28" cy="843.75" rx="6.49" ry="6.75"/><ellipse class="cls-3" cx="1566.46" cy="843.75" rx="6.49" ry="6.75"/></g></g></svg>