<svg id="Layer_1" data-name="Layer 1" xmlns="http://www.w3.org/2000/svg" viewBox="0 0 1600 900"><defs><style>.cls-1{fill:#00aff2;}.cls-2{opacity:0.06;}.cls-3{fill:#fff;}</style></defs><g id="BG_1" data-name="BG 1"><rect class="cls-1" width="1599.64" height="900"/><g id="BG_texture" data-name="BG texture" class="cls-2"><polygon class="cls-3" points="104.59 547.57 115.91 554.57 112.97 541.23 122.88 532.21 109.75 530.99 104.55 518.41 99.38 531 86.26 532.25 96.19 541.25 93.28 554.6 104.59 547.57"/><path class="cls-3" d="M33.94,527.73,50,537.67l-4.17-18.95,14.08-12.83-18.65-1.73L33.9,486.29l-7.35,17.89L7.9,506,22,518.75l-4.13,19Zm-14.51-17.9,10.39-1,4.09-10L38,508.83l10.38,1-7.84,7.14L42.9,527.5l-9-5.54L25,527.52,27.29,517Z"/><polygon class="cls-3" points="104.75 685.77 99.58 698.36 86.46 699.61 96.39 708.61 93.48 721.96 104.78 714.93 116.11 721.93 113.17 708.59 123.07 699.57 109.95 698.35 104.75 685.77"/><path class="cls-3" d="M34.08,646.65l16.09,10-4.17-19,14.07-12.82-18.65-1.74L34,605.22,26.68,623.1,8,624.88l14.11,12.79-4.14,19ZM19.57,628.76l10.39-1,4.09-10,4.12,10,10.38,1-7.84,7.14L43,646.42l-9-5.54-8.95,5.56,2.3-10.56Z"/><path class="cls-3" d="M115.7,609.85l-10.4-25.14L95,609.88l-26.24,2.5,19.85,18-5.81,26.69L105.37,643,128,657l-5.88-26.68L142,612.29Zm-1,18L118,642.7l-12.61-7.8-12.59,7.83L96,627.86,85,617.84l14.61-1.4,5.76-14,5.8,14,14.61,1.36Z"/><polygon class="cls-3" points="33.53 578.83 41.57 583.8 39.48 574.32 46.52 567.91 37.2 567.04 33.5 558.11 29.83 567.05 20.5 567.94 27.56 574.34 25.49 583.82 33.53 578.83"/><polygon class="cls-3" points="112.78 373.87 122.68 364.85 109.56 363.63 104.36 351.06 99.19 363.64 86.07 364.89 96 373.89 93.09 387.24 104.39 380.21 115.72 387.21 112.78 373.87"/><path class="cls-3" d="M33.8,408.81l16.1,9.94-4.18-19L59.8,387l-18.65-1.73-7.39-17.87-7.35,17.89L7.76,387l14.11,12.78-4.13,19Zm-14.51-17.9,10.39-1,4.09-10,4.12,10,10.38,1L40.43,398l2.33,10.55-9-5.53-8.95,5.56L27.15,398Z"/><path class="cls-3" d="M127.82,489.66,121.94,463l19.81-18.05-26.24-2.44-10.4-25.14L94.77,442.52,68.53,445l19.85,18-5.82,26.69,22.62-14Zm-32-29.16-11.06-10,14.62-1.4,5.76-14,5.79,14,14.62,1.36-11,10.05,3.28,14.86-12.61-7.8-12.6,7.83Z"/><polygon class="cls-3" points="33.39 459.9 41.43 464.88 39.34 455.4 46.38 448.99 37.06 448.12 33.36 439.19 29.69 448.13 20.37 449.02 27.42 455.41 25.35 464.9 33.39 459.9"/><path class="cls-3" d="M34.31,843.06,27,861,8.32,862.73l14.1,12.79-4.13,19,16.07-10,16.09,9.94-4.18-19,14.08-12.83L41.7,860.93Zm14.52,23.51L41,873.71l2.33,10.56-9-5.54-9,5.56,2.31-10.56-7.86-7.12,10.38-1,4.1-10,4.11,10Z"/><polygon class="cls-3" points="104.94 853.13 99.77 865.72 86.65 866.97 96.58 875.97 93.67 889.32 104.98 882.29 116.3 889.29 113.36 875.95 123.27 866.93 110.14 865.71 104.94 853.13"/><path class="cls-3" d="M46.13,756.56l14.08-12.82L41.56,742l-7.39-17.87L26.82,742,8.18,743.81l14.11,12.78-4.14,19,16.07-10,16.09,9.94Zm-11.92,3.25-8.94,5.56,2.3-10.57-7.86-7.12,10.38-1,4.1-10,4.11,9.95,10.39,1-7.84,7.14,2.33,10.55Z"/><polygon class="cls-3" points="33.78 795.96 30.11 804.9 20.78 805.79 27.84 812.18 25.77 821.67 33.8 816.67 41.85 821.65 39.76 812.17 46.8 805.76 37.47 804.89 33.78 795.96"/><path class="cls-3" d="M105.5,752.07,95.16,777.24l-26.24,2.5,19.85,18L83,824.43l22.62-14,22.64,14-5.88-26.68,19.81-18.05-26.24-2.44Zm20.43,33.08-11,10.05,3.28,14.86-12.61-7.8L93,810.09l3.24-14.87-11.06-10,14.62-1.4,5.76-14,5.79,14Z"/><polygon class="cls-3" points="33.66 697.75 41.71 702.72 39.62 693.25 46.66 686.83 37.34 685.97 33.64 677.03 29.97 685.98 20.64 686.87 27.7 693.26 25.63 702.74 33.66 697.75"/><polygon class="cls-3" points="99.33 196.51 86.21 197.77 96.14 206.76 93.23 220.11 104.54 213.09 115.86 220.08 112.92 206.74 122.83 197.72 109.7 196.5 104.5 183.93 99.33 196.51"/><path class="cls-3" d="M33.91,290.05,50,300l-4.18-19L59.9,268.21l-18.65-1.73-7.39-17.87L26.51,266.5,7.86,268.28,22,281.06l-4.13,19ZM19.4,272.15l10.38-1,4.09-10L38,271.15l10.39,1-7.84,7.14,2.32,10.56-9-5.54L25,289.84l2.3-10.56Z"/><path class="cls-3" d="M128,322.53l-5.87-26.68L141.9,277.8l-26.25-2.43-10.4-25.15L94.91,275.39,68.67,277.9l19.85,18-5.81,26.7,22.61-14.06ZM96,293.37l-11-10L99.51,282l5.76-14,5.79,14,14.62,1.36-11,10.05,3.27,14.86-12.61-7.8-12.59,7.83Z"/><polygon class="cls-3" points="33.49 341.15 41.53 346.12 39.45 336.64 46.48 330.23 37.16 329.36 33.47 320.43 29.79 329.37 20.47 330.26 27.52 336.65 25.45 346.14 33.49 341.15"/><polygon class="cls-3" points="99.33 23.57 86.21 24.83 96.14 33.82 93.23 47.17 104.54 40.15 115.86 47.14 112.92 33.8 122.83 24.78 109.7 23.56 104.5 10.99 99.33 23.57"/><path class="cls-3" d="M33.91,167.16,50,177.1l-4.18-18.95L59.9,145.32l-18.65-1.73-7.39-17.87-7.35,17.89L7.86,145.39,22,158.18l-4.13,19ZM19.4,149.27l10.38-1,4.09-10L38,148.26l10.39,1-7.84,7.14,2.32,10.56-9-5.54L25,167l2.3-10.56Z"/><path class="cls-3" d="M128,149.59l-5.87-26.68,19.81-18-26.25-2.43-10.4-25.15L94.91,102.45,68.67,105l19.85,18-5.81,26.7,22.61-14.05ZM96,120.43l-11-10L99.51,109l5.76-14,5.79,14,14.62,1.36-11,10,3.27,14.86-12.61-7.8L92.72,135.3Z"/><polygon class="cls-3" points="33.49 218.26 41.53 223.23 39.45 213.75 46.48 207.34 37.16 206.47 33.47 197.54 29.79 206.48 20.47 207.37 27.52 213.77 25.45 223.25 33.49 218.26"/><path class="cls-3" d="M33.91,44.27,50,54.22l-4.18-19L59.9,22.44,41.25,20.7,33.86,2.83,26.51,20.72,7.86,22.5,22,35.29l-4.13,19ZM19.4,26.38l10.38-1,4.09-10,4.12,10,10.39,1-7.84,7.14L42.86,44l-9-5.54L25,44.06l2.3-10.56Z"/><polygon class="cls-3" points="33.49 95.37 41.53 100.34 39.45 90.86 46.48 84.45 37.16 83.59 33.47 74.65 29.79 83.6 20.47 84.48 27.52 90.88 25.45 100.36 33.49 95.37"/><polygon class="cls-3" points="244.56 547.57 255.88 554.57 252.94 541.23 262.85 532.21 249.72 530.99 244.52 518.41 239.35 531 226.23 532.25 236.16 541.25 233.25 554.6 244.56 547.57"/><path class="cls-3" d="M173.91,527.73,190,537.67l-4.17-18.95,14.07-12.83-18.65-1.73-7.39-17.87-7.35,17.89L147.87,506,162,518.75l-4.14,19Zm-14.51-17.9,10.39-1,4.09-10,4.11,9.95,10.39,1-7.84,7.14,2.33,10.56-9-5.54L165,527.52l2.3-10.56Z"/><polygon class="cls-3" points="244.72 685.77 239.55 698.36 226.43 699.61 236.35 708.61 233.44 721.96 244.75 714.93 256.07 721.93 253.13 708.59 263.04 699.57 249.92 698.35 244.72 685.77"/><path class="cls-3" d="M174.05,646.65l16.09,10-4.18-19L200,624.82l-18.65-1.74L174,605.22l-7.35,17.88L148,624.88l14.11,12.79-4.14,19Zm-14.51-17.89,10.38-1,4.1-10,4.11,10,10.39,1-7.84,7.14L183,646.42l-9-5.54-8.95,5.56,2.31-10.56Z"/><path class="cls-3" d="M255.67,609.85l-10.4-25.14-10.34,25.17-26.24,2.5,19.85,18-5.81,26.69L245.34,643,268,657l-5.87-26.68,19.81-18.05Zm-1,18,3.27,14.86-12.61-7.8-12.59,7.83L236,627.86l-11.05-10,14.61-1.4,5.76-14,5.79,14,14.62,1.36Z"/><polygon class="cls-3" points="173.49 578.83 181.54 583.8 179.45 574.32 186.49 567.91 177.16 567.04 173.47 558.11 169.79 567.05 160.47 567.94 167.53 574.34 165.46 583.82 173.49 578.83"/><polygon class="cls-3" points="252.74 373.87 262.65 364.85 249.53 363.63 244.33 351.06 239.16 363.64 226.04 364.89 235.96 373.89 233.06 387.24 244.36 380.21 255.68 387.21 252.74 373.87"/><path class="cls-3" d="M173.77,408.81l16.09,9.94-4.17-19L199.76,387l-18.64-1.73-7.4-17.87-7.34,17.89L147.73,387l14.11,12.78-4.13,19Zm-14.51-17.9,10.39-1,4.09-10,4.12,10,10.38,1L180.4,398l2.33,10.55-9-5.53-9,5.56,2.3-10.57Z"/><path class="cls-3" d="M267.79,489.66,261.91,463l19.81-18.05-26.24-2.44-10.4-25.14-10.35,25.17L208.49,445l19.86,18-5.82,26.69,22.61-14Zm-32-29.16-11.06-10,14.62-1.4,5.76-14,5.79,14,14.62,1.36-11,10.05,3.28,14.86-12.62-7.8-12.59,7.83Z"/><polygon class="cls-3" points="173.35 459.9 181.4 464.88 179.31 455.4 186.35 448.99 177.03 448.12 173.33 439.19 169.66 448.13 160.33 449.02 167.39 455.41 165.32 464.9 173.35 459.9"/><path class="cls-3" d="M174.28,843.06,166.93,861l-18.65,1.78,14.11,12.79-4.13,19,16.07-10,16.09,9.94-4.18-19,14.08-12.83-18.65-1.73Zm14.52,23.51L181,873.71l2.32,10.56-9-5.54-8.95,5.56,2.3-10.56-7.85-7.12,10.38-1,4.09-10,4.12,10Z"/><polygon class="cls-3" points="244.91 853.13 239.74 865.72 226.62 866.97 236.55 875.97 233.64 889.32 244.95 882.29 256.27 889.29 253.33 875.95 263.24 866.93 250.11 865.71 244.91 853.13"/><path class="cls-3" d="M186.1,756.56l14.08-12.82L181.53,742l-7.39-17.87L166.79,742l-18.64,1.78,14.1,12.78-4.13,19,16.07-10,16.09,9.94Zm-11.92,3.25-9,5.56,2.3-10.57-7.85-7.12,10.38-1,4.1-10,4.11,9.95,10.39,1-7.84,7.14,2.32,10.55Z"/><polygon class="cls-3" points="173.75 795.96 170.07 804.9 160.75 805.79 167.8 812.18 165.74 821.67 173.77 816.67 181.82 821.65 179.73 812.17 186.77 805.76 177.44 804.89 173.75 795.96"/><path class="cls-3" d="M245.47,752.07l-10.35,25.17-26.24,2.5,19.86,18-5.82,26.69,22.61-14,22.65,14L262.3,797.7l19.81-18.05-26.24-2.44Zm20.43,33.08-11,10.05,3.28,14.86-12.62-7.8-12.59,7.83,3.24-14.87-11.06-10,14.62-1.4,5.76-14,5.79,14Z"/><polygon class="cls-3" points="173.63 697.75 181.68 702.72 179.59 693.25 186.63 686.83 177.3 685.97 173.61 677.03 169.93 685.98 160.61 686.87 167.66 693.26 165.6 702.74 173.63 697.75"/><polygon class="cls-3" points="239.3 196.51 226.18 197.77 236.11 206.76 233.2 220.11 244.5 213.09 255.83 220.08 252.89 206.74 262.79 197.72 249.67 196.5 244.47 183.93 239.3 196.51"/><path class="cls-3" d="M173.87,290.05,190,300l-4.18-19,14.08-12.82-18.65-1.73-7.39-17.87-7.35,17.89-18.65,1.78,14.11,12.78-4.13,19Zm-14.51-17.9,10.39-1,4.09-10,4.12,9.95,10.38,1-7.84,7.14,2.33,10.56-9-5.54-9,5.56,2.3-10.56Z"/><path class="cls-3" d="M267.93,322.53l-5.88-26.68,19.81-18.05-26.24-2.43-10.4-25.15-10.34,25.17-26.24,2.51,19.85,18-5.82,26.7,22.62-14.06Zm-32-29.16-11.06-10L239.48,282l5.76-14,5.79,14,14.62,1.36-11,10.05,3.27,14.86-12.61-7.8-12.6,7.83Z"/><polygon class="cls-3" points="173.46 341.15 181.5 346.12 179.41 336.64 186.45 330.23 177.13 329.36 173.43 320.43 169.76 329.37 160.44 330.26 167.49 336.65 165.42 346.14 173.46 341.15"/><polygon class="cls-3" points="239.3 23.57 226.18 24.83 236.11 33.82 233.2 47.17 244.5 40.15 255.83 47.14 252.89 33.8 262.79 24.78 249.67 23.56 244.47 10.99 239.3 23.57"/><path class="cls-3" d="M173.87,167.16,190,177.1l-4.18-18.95,14.08-12.83-18.65-1.73-7.39-17.87-7.35,17.89-18.65,1.78,14.11,12.79-4.13,19Zm-14.51-17.89,10.39-1,4.09-10,4.12,9.95,10.38,1-7.84,7.14,2.33,10.56-9-5.54-9,5.56,2.3-10.56Z"/><path class="cls-3" d="M267.93,149.59l-5.88-26.68,19.81-18-26.24-2.43-10.4-25.15-10.34,25.17L208.64,105l19.85,18-5.82,26.7,22.62-14.05Zm-32-29.16-11.06-10L239.48,109l5.76-14L251,109l14.62,1.36-11,10,3.27,14.86-12.61-7.8-12.6,7.83Z"/><polygon class="cls-3" points="173.46 218.26 181.5 223.23 179.41 213.75 186.45 207.34 177.13 206.47 173.43 197.54 169.76 206.48 160.44 207.37 167.49 213.77 165.42 223.25 173.46 218.26"/><path class="cls-3" d="M173.87,44.27,190,54.22l-4.18-19,14.08-12.82L181.22,20.7,173.83,2.83l-7.35,17.89L147.83,22.5l14.11,12.79-4.13,19ZM159.36,26.38l10.39-1,4.09-10,4.12,10,10.38,1-7.84,7.14L182.83,44l-9-5.54-9,5.56,2.3-10.56Z"/><polygon class="cls-3" points="173.46 95.37 181.5 100.34 179.41 90.86 186.45 84.45 177.13 83.59 173.43 74.65 169.76 83.6 160.44 84.48 167.49 90.88 165.42 100.36 173.46 95.37"/><polygon class="cls-3" points="384.52 547.57 395.85 554.57 392.91 541.23 402.81 532.21 389.69 530.99 384.49 518.41 379.32 531 366.2 532.25 376.13 541.25 373.22 554.6 384.52 547.57"/><path class="cls-3" d="M313.88,527.73,330,537.67l-4.18-18.95,14.08-12.83-18.65-1.73-7.39-17.87-7.35,17.89L287.84,506l14.1,12.79-4.13,19Zm-14.51-17.9,10.38-1,4.1-10,4.11,9.95,10.39,1-7.84,7.14,2.33,10.56-9-5.54-8.95,5.56L307.23,517Z"/><polygon class="cls-3" points="384.69 685.77 379.51 698.36 366.39 699.61 376.32 708.61 373.41 721.96 384.72 714.93 396.04 721.93 393.1 708.59 403.01 699.57 389.89 698.35 384.69 685.77"/><path class="cls-3" d="M314,646.65l16.09,10-4.18-19L340,624.82l-18.65-1.74L314,605.22l-7.35,17.88L288,624.88l14.1,12.79-4.13,19Zm-14.51-17.89,10.38-1,4.09-10,4.12,10,10.39,1-7.84,7.14L323,646.42l-9-5.54-8.95,5.56,2.3-10.56Z"/><path class="cls-3" d="M395.64,609.85l-10.4-25.14L374.9,609.88l-26.24,2.5,19.85,18-5.82,26.69L385.31,643,408,657l-5.88-26.68,19.81-18.05Zm-1,18,3.27,14.86-12.61-7.8-12.6,7.83,3.24-14.87-11.05-10,14.61-1.4,5.76-14,5.79,14,14.62,1.36Z"/><polygon class="cls-3" points="313.46 578.83 321.51 583.8 319.42 574.32 326.46 567.91 317.13 567.04 313.44 558.11 309.76 567.05 300.44 567.94 307.5 574.34 305.43 583.82 313.46 578.83"/><polygon class="cls-3" points="392.71 373.87 402.62 364.85 389.5 363.63 384.3 351.06 379.12 363.64 366 364.89 375.93 373.89 373.02 387.24 384.33 380.21 395.65 387.21 392.71 373.87"/><path class="cls-3" d="M313.74,408.81l16.09,9.94-4.18-19L339.73,387l-18.65-1.73-7.39-17.87-7.35,17.89L287.7,387l14.11,12.78-4.14,19Zm-14.51-17.9,10.38-1,4.1-10,4.11,10,10.39,1L320.37,398l2.33,10.55-9-5.53-8.94,5.56,2.3-10.57Z"/><path class="cls-3" d="M407.76,489.66,401.88,463l19.81-18.05-26.25-2.44L385,417.35,374.7,442.52,348.46,445l19.86,18-5.82,26.69,22.61-14Zm-32-29.16-11.06-10,14.61-1.4,5.76-14,5.8,14,14.61,1.36-11,10.05,3.28,14.86-12.62-7.8-12.59,7.83Z"/><polygon class="cls-3" points="313.32 459.9 321.37 464.88 319.28 455.4 326.32 448.99 317 448.12 313.3 439.19 309.63 448.13 300.3 449.02 307.36 455.41 305.29 464.9 313.32 459.9"/><path class="cls-3" d="M314.25,843.06,306.9,861l-18.65,1.78,14.11,12.79-4.13,19,16.07-10,16.09,9.94-4.18-19,14.08-12.83-18.65-1.73Zm14.52,23.51-7.85,7.14,2.33,10.56-9-5.54-9,5.56,2.3-10.56-7.86-7.12,10.39-1,4.09-10,4.12,10Z"/><polygon class="cls-3" points="384.88 853.13 379.71 865.72 366.59 866.97 376.52 875.97 373.61 889.32 384.92 882.29 396.24 889.29 393.3 875.95 403.2 866.93 390.08 865.71 384.88 853.13"/><path class="cls-3" d="M326.07,756.56l14.08-12.82L321.5,742l-7.39-17.87L306.76,742l-18.65,1.78,14.11,12.78-4.13,19,16.07-10,16.09,9.94Zm-11.92,3.25-8.95,5.56,2.3-10.57-7.85-7.12,10.38-1,4.09-10,4.12,9.95,10.39,1-7.84,7.14,2.32,10.55Z"/><polygon class="cls-3" points="313.71 795.96 310.04 804.9 300.72 805.79 307.77 812.18 305.7 821.67 313.74 816.67 321.79 821.65 319.7 812.17 326.74 805.76 317.41 804.89 313.71 795.96"/><path class="cls-3" d="M385.43,752.07l-10.34,25.17-26.24,2.5,19.86,18-5.82,26.69,22.61-14,22.65,14-5.88-26.68,19.81-18.05-26.25-2.44Zm20.44,33.08-11,10.05,3.28,14.86-12.62-7.8-12.59,7.83,3.24-14.87-11.06-10,14.62-1.4,5.75-14,5.8,14Z"/><polygon class="cls-3" points="313.6 697.75 321.65 702.72 319.56 693.25 326.6 686.83 317.27 685.97 313.58 677.03 309.9 685.98 300.58 686.87 307.63 693.26 305.57 702.74 313.6 697.75"/><polygon class="cls-3" points="379.27 196.51 366.15 197.77 376.07 206.76 373.17 220.11 384.47 213.09 395.8 220.08 392.86 206.74 402.76 197.72 389.64 196.5 384.44 183.93 379.27 196.51"/><path class="cls-3" d="M313.84,290.05,329.93,300l-4.17-19,14.07-12.82-18.65-1.73-7.39-17.87-7.34,17.89-18.65,1.78,14.11,12.78-4.14,19Zm-14.51-17.9,10.39-1,4.09-10,4.12,9.95,10.38,1-7.84,7.14,2.33,10.56-9-5.54-8.95,5.56,2.3-10.56Z"/><path class="cls-3" d="M407.9,322.53,402,295.85l19.81-18.05-26.24-2.43-10.4-25.15-10.35,25.17-26.23,2.51,19.85,18-5.82,26.7,22.61-14.06Zm-32-29.16-11.06-10L379.45,282l5.76-14,5.79,14,14.62,1.36-11,10.05,3.28,14.86-12.61-7.8-12.6,7.83Z"/><polygon class="cls-3" points="313.43 341.15 321.47 346.12 319.38 336.64 326.42 330.23 317.1 329.36 313.4 320.43 309.73 329.37 300.4 330.26 307.46 336.65 305.39 346.14 313.43 341.15"/><polygon class="cls-3" points="379.27 23.57 366.15 24.83 376.07 33.82 373.17 47.17 384.47 40.15 395.8 47.14 392.86 33.8 402.76 24.78 389.64 23.56 384.44 10.99 379.27 23.57"/><path class="cls-3" d="M313.84,167.16l16.09,9.94-4.17-18.95,14.07-12.83-18.65-1.73-7.39-17.87-7.34,17.89-18.65,1.78,14.11,12.79-4.14,19Zm-14.51-17.89,10.39-1,4.09-10,4.12,9.95,10.38,1-7.84,7.14,2.33,10.56-9-5.54L304.89,167l2.3-10.56Z"/><path class="cls-3" d="M407.9,149.59,402,122.91l19.81-18-26.24-2.43-10.4-25.15-10.35,25.17L348.61,105l19.85,18-5.82,26.7,22.61-14.05Zm-32-29.16-11.06-10L379.45,109l5.76-14L391,109l14.62,1.36-11,10,3.28,14.86-12.61-7.8-12.6,7.83Z"/><polygon class="cls-3" points="313.43 218.26 321.47 223.23 319.38 213.75 326.42 207.34 317.1 206.47 313.4 197.54 309.73 206.48 300.4 207.37 307.46 213.77 305.39 223.25 313.43 218.26"/><path class="cls-3" d="M313.84,44.27l16.09,9.95-4.17-19,14.07-12.82L321.18,20.7,313.79,2.83l-7.34,17.89L287.8,22.5l14.11,12.79-4.14,19ZM299.33,26.38l10.39-1,4.09-10,4.12,10,10.38,1-7.84,7.14L322.8,44l-9-5.54-8.95,5.56,2.3-10.56Z"/><polygon class="cls-3" points="313.43 95.37 321.47 100.34 319.38 90.86 326.42 84.45 317.1 83.59 313.4 74.65 309.73 83.6 300.4 84.48 307.46 90.88 305.39 100.36 313.43 95.37"/><polygon class="cls-3" points="524.49 547.57 535.82 554.57 532.88 541.23 542.78 532.21 529.66 530.99 524.46 518.41 519.29 531 506.17 532.25 516.09 541.25 513.19 554.6 524.49 547.57"/><path class="cls-3" d="M453.85,527.73l16.09,9.94-4.18-18.95,14.08-12.83-18.65-1.73-7.39-17.87-7.35,17.89L427.81,506l14.1,12.79-4.13,19Zm-14.51-17.9,10.38-1,4.09-10,4.12,9.95,10.39,1-7.84,7.14,2.32,10.56-9-5.54-8.95,5.56,2.3-10.56Z"/><polygon class="cls-3" points="524.65 685.77 519.48 698.36 506.36 699.61 516.29 708.61 513.38 721.96 524.69 714.93 536.01 721.93 533.07 708.59 542.98 699.57 529.85 698.35 524.65 685.77"/><path class="cls-3" d="M454,646.65l16.09,10-4.18-19L480,624.82l-18.65-1.74-7.39-17.86-7.35,17.88-18.65,1.78,14.11,12.79-4.13,19Zm-14.52-17.89,10.39-1,4.09-10,4.12,10,10.39,1-7.84,7.14,2.32,10.56-9-5.54-9,5.56,2.3-10.56Z"/><path class="cls-3" d="M535.61,609.85l-10.4-25.14-10.34,25.17-26.24,2.5,19.85,18-5.82,26.69L525.28,643l22.64,14L542,630.34l19.81-18.05Zm-1,18,3.28,14.86-12.61-7.8-12.6,7.83,3.24-14.87-11.06-10,14.62-1.4,5.76-14,5.79,14,14.62,1.36Z"/><polygon class="cls-3" points="453.43 578.83 461.48 583.8 459.39 574.32 466.43 567.91 457.1 567.04 453.41 558.11 449.73 567.05 440.41 567.94 447.46 574.34 445.4 583.82 453.43 578.83"/><polygon class="cls-3" points="532.68 373.87 542.59 364.85 529.46 363.63 524.26 351.06 519.09 363.64 505.97 364.89 515.9 373.89 512.99 387.24 524.3 380.21 535.62 387.21 532.68 373.87"/><path class="cls-3" d="M453.71,408.81l16.09,9.94-4.18-19L479.7,387l-18.65-1.73-7.39-17.87-7.35,17.89L427.67,387l14.1,12.78-4.13,19Zm-14.51-17.9,10.38-1,4.1-10,4.11,10,10.39,1L460.34,398l2.32,10.55-9-5.53-8.95,5.56,2.3-10.57Z"/><path class="cls-3" d="M547.72,489.66,541.85,463l19.81-18.05-26.25-2.44L525,417.35l-10.34,25.17L488.43,445l19.85,18-5.81,26.69,22.61-14Zm-32-29.16-11.06-10,14.61-1.4,5.76-14,5.8,14,14.61,1.36-11,10.05,3.27,14.86-12.61-7.8-12.59,7.83Z"/><polygon class="cls-3" points="453.29 459.9 461.34 464.88 459.25 455.4 466.29 448.99 456.96 448.12 453.27 439.19 449.59 448.13 440.27 449.02 447.32 455.41 445.26 464.9 453.29 459.9"/><path class="cls-3" d="M454.22,843.06,446.87,861l-18.65,1.78,14.11,12.79-4.13,19,16.06-10,16.09,9.94-4.17-19,14.08-12.83-18.65-1.73Zm14.51,23.51-7.84,7.14,2.33,10.56-9-5.54-8.95,5.56,2.3-10.56-7.86-7.12,10.39-1,4.09-10,4.12,10Z"/><polygon class="cls-3" points="524.85 853.13 519.68 865.72 506.56 866.97 516.49 875.97 513.58 889.32 524.88 882.29 536.21 889.29 533.27 875.95 543.17 866.93 530.05 865.71 524.85 853.13"/><path class="cls-3" d="M466,756.56l14.08-12.82L461.47,742l-7.39-17.87L446.73,742l-18.65,1.78,14.11,12.78-4.13,19,16.07-10,16.09,9.94Zm-11.92,3.25-8.95,5.56,2.3-10.57-7.86-7.12,10.39-1,4.09-10,4.12,9.95,10.38,1-7.84,7.14,2.33,10.55Z"/><polygon class="cls-3" points="453.68 795.96 450.01 804.9 440.69 805.79 447.74 812.18 445.67 821.67 453.71 816.67 461.75 821.65 459.67 812.17 466.7 805.76 457.38 804.89 453.68 795.96"/><path class="cls-3" d="M525.4,752.07l-10.34,25.17-26.24,2.5,19.85,18-5.81,26.69,22.61-14,22.65,14-5.88-26.68,19.81-18.05-26.25-2.44Zm20.43,33.08-11,10.05,3.27,14.86-12.61-7.8-12.59,7.83,3.24-14.87-11.06-10,14.61-1.4,5.76-14,5.8,14Z"/><polygon class="cls-3" points="453.57 697.75 461.61 702.72 459.53 693.25 466.56 686.83 457.24 685.97 453.55 677.03 449.87 685.98 440.55 686.87 447.6 693.26 445.54 702.74 453.57 697.75"/><polygon class="cls-3" points="519.24 196.51 506.12 197.77 516.04 206.76 513.13 220.11 524.44 213.09 535.76 220.08 532.82 206.74 542.73 197.72 529.61 196.5 524.41 183.93 519.24 196.51"/><path class="cls-3" d="M453.81,290.05,469.9,300l-4.18-19,14.08-12.82-18.65-1.73-7.39-17.87-7.35,17.89-18.64,1.78,14.11,12.78-4.14,19Zm-14.51-17.9,10.38-1,4.1-10,4.11,9.95,10.39,1-7.84,7.14,2.33,10.56-9-5.54-8.94,5.56,2.3-10.56Z"/><path class="cls-3" d="M547.87,322.53,542,295.85,561.8,277.8l-26.24-2.43-10.4-25.15-10.35,25.17-26.24,2.51,19.86,18-5.82,26.7,22.61-14.06Zm-32-29.16-11.06-10L519.42,282l5.76-14,5.79,14,14.62,1.36-11,10.05,3.28,14.86-12.62-7.8-12.59,7.83Z"/><polygon class="cls-3" points="453.39 341.15 461.44 346.12 459.35 336.64 466.39 330.23 457.06 329.36 453.37 320.43 449.69 329.37 440.37 330.26 447.43 336.65 445.36 346.14 453.39 341.15"/><polygon class="cls-3" points="519.24 23.57 506.12 24.83 516.04 33.82 513.13 47.17 524.44 40.15 535.76 47.14 532.82 33.8 542.73 24.78 529.61 23.56 524.41 10.99 519.24 23.57"/><path class="cls-3" d="M453.81,167.16l16.09,9.94-4.18-18.95,14.08-12.83-18.65-1.73-7.39-17.87-7.35,17.89-18.64,1.78,14.11,12.79-4.14,19ZM439.3,149.27l10.38-1,4.1-10,4.11,9.95,10.39,1-7.84,7.14,2.33,10.56-9-5.54L444.86,167l2.3-10.56Z"/><path class="cls-3" d="M547.87,149.59,542,122.91l19.81-18-26.24-2.43-10.4-25.15-10.35,25.17L488.57,105l19.86,18-5.82,26.7,22.61-14.05Zm-32-29.16-11.06-10L519.42,109l5.76-14L531,109l14.62,1.36-11,10,3.28,14.86-12.62-7.8-12.59,7.83Z"/><polygon class="cls-3" points="453.39 218.26 461.44 223.23 459.35 213.75 466.39 207.34 457.06 206.47 453.37 197.54 449.69 206.48 440.37 207.37 447.43 213.77 445.36 223.25 453.39 218.26"/><path class="cls-3" d="M453.81,44.27l16.09,9.95-4.18-19L479.8,22.44,461.15,20.7,453.76,2.83l-7.35,17.89L427.77,22.5l14.11,12.79-4.14,19ZM439.3,26.38l10.38-1,4.1-10,4.11,10,10.39,1-7.84,7.14L462.77,44l-9-5.54-8.94,5.56,2.3-10.56Z"/><polygon class="cls-3" points="453.39 95.37 461.44 100.34 459.35 90.86 466.39 84.45 457.06 83.59 453.37 74.65 449.69 83.6 440.37 84.48 447.43 90.88 445.36 100.36 453.39 95.37"/><polygon class="cls-3" points="664.46 547.57 675.78 554.57 672.84 541.23 682.75 532.21 669.63 530.99 664.43 518.41 659.25 531 646.14 532.25 656.06 541.25 653.15 554.6 664.46 547.57"/><path class="cls-3" d="M593.82,527.73l16.09,9.94-4.18-18.95,14.08-12.83-18.65-1.73-7.39-17.87-7.35,17.89L567.77,506l14.11,12.79-4.13,19Zm-14.52-17.9,10.39-1,4.09-10,4.12,9.95,10.39,1-7.85,7.14,2.33,10.56-9-5.54-8.95,5.56,2.3-10.56Z"/><polygon class="cls-3" points="664.62 685.77 659.45 698.36 646.33 699.61 656.26 708.61 653.35 721.96 664.66 714.93 675.98 721.93 673.04 708.59 682.95 699.57 669.82 698.35 664.62 685.77"/><path class="cls-3" d="M594,646.65l16.1,10-4.18-19L620,624.82l-18.65-1.74-7.39-17.86-7.35,17.88-18.65,1.78L582,637.67l-4.13,19Zm-14.51-17.89,10.39-1,4.09-10,4.12,10,10.38,1-7.84,7.14,2.33,10.56-9-5.54-9,5.56,2.3-10.56Z"/><path class="cls-3" d="M675.58,609.85l-10.4-25.14-10.35,25.17-26.24,2.5,19.86,18-5.82,26.69L665.24,643l22.65,14L682,630.34l19.81-18.05Zm-1,18,3.28,14.86-12.62-7.8-12.59,7.83,3.24-14.87-11.06-10,14.62-1.4,5.76-14,5.79,14,14.62,1.36Z"/><polygon class="cls-3" points="593.4 578.83 601.44 583.8 599.36 574.32 606.39 567.91 597.07 567.04 593.37 558.11 589.7 567.05 580.38 567.94 587.43 574.34 585.36 583.82 593.4 578.83"/><polygon class="cls-3" points="672.65 373.87 682.55 364.85 669.43 363.63 664.23 351.06 659.06 363.64 645.94 364.89 655.87 373.89 652.96 387.24 664.26 380.21 675.59 387.21 672.65 373.87"/><path class="cls-3" d="M593.68,408.81l16.09,9.94-4.18-19L619.67,387,601,385.24l-7.39-17.87-7.35,17.89L567.63,387l14.11,12.78-4.13,19Zm-14.51-17.9,10.38-1,4.09-10,4.12,10,10.39,1L600.31,398l2.32,10.55-9-5.53-8.95,5.56L587,398Z"/><path class="cls-3" d="M687.69,489.66,681.81,463l19.82-18.05-26.25-2.44L665,417.35l-10.34,25.17L628.4,445l19.85,18-5.81,26.69,22.61-14Zm-32-29.16-11-10,14.61-1.4,5.76-14,5.79,14,14.62,1.36-11,10.05,3.27,14.86L665,467.54l-12.59,7.83Z"/><polygon class="cls-3" points="593.26 459.9 601.3 464.88 599.22 455.4 606.25 448.99 596.93 448.12 593.24 439.19 589.56 448.13 580.24 449.02 587.29 455.41 585.23 464.9 593.26 459.9"/><path class="cls-3" d="M594.18,843.06,586.83,861l-18.64,1.78,14.11,12.79-4.14,19,16.07-10,16.09,9.94-4.17-19,14.07-12.83-18.65-1.73Zm14.52,23.51-7.84,7.14,2.33,10.56-9-5.54-9,5.56,2.3-10.56-7.86-7.12,10.39-1,4.09-10,4.11,10Z"/><polygon class="cls-3" points="664.82 853.13 659.65 865.72 646.53 866.97 656.45 875.97 653.54 889.32 664.85 882.29 676.17 889.29 673.23 875.95 683.14 866.93 670.02 865.71 664.82 853.13"/><path class="cls-3" d="M606,756.56l14.07-12.82L601.44,742,594,724.14,586.7,742l-18.65,1.78,14.11,12.78-4.13,19,16.06-10,16.09,9.94Zm-11.92,3.25-9,5.56,2.3-10.57-7.86-7.12,10.39-1,4.09-10,4.12,9.95,10.38,1-7.84,7.14,2.33,10.55Z"/><polygon class="cls-3" points="593.65 795.96 589.98 804.9 580.65 805.79 587.71 812.18 585.64 821.67 593.68 816.67 601.72 821.65 599.63 812.17 606.67 805.76 597.35 804.89 593.65 795.96"/><path class="cls-3" d="M665.37,752.07,655,777.24l-26.24,2.5,19.85,18-5.81,26.69,22.61-14,22.64,14L682.2,797.7,702,779.65l-26.25-2.44Zm20.43,33.08-11,10.05L678,810.06l-12.61-7.8-12.59,7.83,3.23-14.87L645,785.2l14.61-1.4,5.76-14,5.79,14Z"/><polygon class="cls-3" points="593.54 697.75 601.58 702.72 599.49 693.25 606.53 686.83 597.21 685.97 593.51 677.03 589.84 685.98 580.52 686.87 587.57 693.26 585.5 702.74 593.54 697.75"/><polygon class="cls-3" points="659.2 196.51 646.08 197.77 656.01 206.76 653.1 220.11 664.41 213.09 675.73 220.08 672.79 206.74 682.7 197.72 669.58 196.5 664.37 183.93 659.2 196.51"/><path class="cls-3" d="M593.78,290.05,609.87,300l-4.18-19,14.08-12.82-18.65-1.73-7.39-17.87-7.35,17.89-18.64,1.78,14.1,12.78-4.13,19Zm-14.51-17.9,10.38-1,4.1-10,4.11,9.95,10.39,1-7.84,7.14,2.32,10.56-9-5.54-8.95,5.56,2.3-10.56Z"/><path class="cls-3" d="M687.84,322.53,682,295.85l19.81-18.05-26.25-2.43-10.4-25.15-10.34,25.17-26.24,2.51,19.85,18-5.81,26.7,22.61-14.06Zm-32-29.16-11.06-10L659.38,282l5.76-14,5.8,14,14.61,1.36-11,10.05,3.27,14.86-12.61-7.8-12.59,7.83Z"/><polygon class="cls-3" points="593.36 341.15 601.41 346.12 599.32 336.64 606.36 330.23 597.03 329.36 593.34 320.43 589.66 329.37 580.34 330.26 587.39 336.65 585.33 346.14 593.36 341.15"/><polygon class="cls-3" points="659.2 23.57 646.08 24.83 656.01 33.82 653.1 47.17 664.41 40.15 675.73 47.14 672.79 33.8 682.7 24.78 669.58 23.56 664.37 10.99 659.2 23.57"/><path class="cls-3" d="M593.78,167.16l16.09,9.94-4.18-18.95,14.08-12.83-18.65-1.73-7.39-17.87-7.35,17.89-18.64,1.78,14.1,12.79-4.13,19Zm-14.51-17.89,10.38-1,4.1-10,4.11,9.95,10.39,1-7.84,7.14,2.32,10.56-9-5.54L584.82,167l2.3-10.56Z"/><path class="cls-3" d="M687.84,149.59,682,122.91l19.81-18-26.25-2.43-10.4-25.15-10.34,25.17L628.54,105l19.85,18-5.81,26.7,22.61-14.05Zm-32-29.16-11.06-10L659.38,109l5.76-14,5.8,14,14.61,1.36-11,10,3.27,14.86-12.61-7.8-12.59,7.83Z"/><polygon class="cls-3" points="593.36 218.26 601.41 223.23 599.32 213.75 606.36 207.34 597.03 206.47 593.34 197.54 589.66 206.48 580.34 207.37 587.39 213.77 585.33 223.25 593.36 218.26"/><path class="cls-3" d="M593.78,44.27l16.09,9.95-4.18-19,14.08-12.82L601.12,20.7,593.73,2.83l-7.35,17.89L567.74,22.5l14.1,12.79-4.13,19ZM579.27,26.38l10.38-1,4.1-10,4.11,10,10.39,1-7.84,7.14L602.73,44l-9-5.54-8.95,5.56,2.3-10.56Z"/><polygon class="cls-3" points="593.36 95.37 601.41 100.34 599.32 90.86 606.36 84.45 597.03 83.59 593.34 74.65 589.66 83.6 580.34 84.48 587.39 90.88 585.33 100.36 593.36 95.37"/><polygon class="cls-3" points="804.43 547.57 815.75 554.57 812.81 541.23 822.72 532.21 809.6 530.99 804.39 518.41 799.22 531 786.1 532.25 796.03 541.25 793.12 554.6 804.43 547.57"/><path class="cls-3" d="M733.78,527.73l16.1,9.94-4.18-18.95,14.08-12.83-18.65-1.73-7.39-17.87-7.35,17.89L707.74,506l14.11,12.79-4.13,19Zm-14.51-17.9,10.39-1,4.09-10,4.12,9.95,10.38,1-7.84,7.14,2.33,10.56-9-5.54-8.95,5.56,2.3-10.56Z"/><polygon class="cls-3" points="804.59 685.77 799.42 698.36 786.3 699.61 796.23 708.61 793.32 721.96 804.62 714.93 815.95 721.93 813.01 708.59 822.91 699.57 809.79 698.35 804.59 685.77"/><path class="cls-3" d="M733.92,646.65l16.09,10-4.17-19,14.07-12.82-18.65-1.74-7.39-17.86-7.34,17.88-18.65,1.78L722,637.67l-4.14,19Zm-14.51-17.89,10.39-1,4.09-10,4.12,10,10.38,1-7.84,7.14,2.33,10.56-9-5.54L725,646.44l2.3-10.56Z"/><path class="cls-3" d="M815.54,609.85l-10.4-25.14L794.8,609.88l-26.24,2.5,19.86,18-5.82,26.69L805.21,643l22.65,14L822,630.34l19.81-18.05Zm-1,18,3.27,14.86-12.61-7.8-12.59,7.83,3.24-14.87-11.06-10,14.61-1.4,5.76-14,5.8,14,14.61,1.36Z"/><polygon class="cls-3" points="733.37 578.83 741.41 583.8 739.32 574.32 746.36 567.91 737.04 567.04 733.34 558.11 729.67 567.05 720.35 567.94 727.4 574.34 725.33 583.82 733.37 578.83"/><polygon class="cls-3" points="812.62 373.87 822.52 364.85 809.4 363.63 804.2 351.06 799.03 363.64 785.91 364.89 795.84 373.89 792.93 387.24 804.23 380.21 815.56 387.21 812.62 373.87"/><path class="cls-3" d="M733.65,408.81l16.09,9.94-4.18-19L759.64,387,741,385.24l-7.39-17.87-7.35,17.89L707.6,387l14.11,12.78-4.13,19Zm-14.52-17.9,10.39-1,4.09-10,4.12,10,10.38,1L740.27,398l2.33,10.55-9-5.53-8.95,5.56L727,398Z"/><path class="cls-3" d="M827.66,489.66,821.78,463l19.81-18.05-26.24-2.44L805,417.35l-10.34,25.17L768.37,445l19.85,18-5.82,26.69,22.62-14Zm-32-29.16-11.06-10,14.62-1.4,5.76-14,5.79,14,14.62,1.36-11,10.05,3.28,14.86L805,467.54l-12.6,7.83Z"/><polygon class="cls-3" points="733.23 459.9 741.27 464.88 739.18 455.4 746.22 448.99 736.9 448.12 733.2 439.19 729.53 448.13 720.21 449.02 727.26 455.41 725.19 464.9 733.23 459.9"/><path class="cls-3" d="M734.15,843.06,726.8,861l-18.64,1.78,14.1,12.79-4.13,19,16.07-10,16.09,9.94-4.18-19,14.08-12.83-18.65-1.73Zm14.52,23.51-7.84,7.14,2.33,10.56-9-5.54-9,5.56,2.31-10.56-7.86-7.12,10.38-1,4.1-10,4.11,10Z"/><polygon class="cls-3" points="804.78 853.13 799.61 865.72 786.49 866.97 796.42 875.97 793.51 889.32 804.82 882.29 816.14 889.29 813.2 875.95 823.11 866.93 809.99 865.71 804.78 853.13"/><path class="cls-3" d="M746,756.56l14.07-12.82L741.4,742,734,724.14,726.66,742,708,743.81l14.11,12.78-4.14,19,16.07-10,16.09,9.94Zm-11.93,3.25-8.94,5.56,2.3-10.57-7.86-7.12,10.38-1,4.1-10,4.11,9.95,10.39,1-7.84,7.14L743,765.34Z"/><polygon class="cls-3" points="733.62 795.96 729.95 804.9 720.62 805.79 727.68 812.18 725.61 821.67 733.64 816.67 741.69 821.65 739.6 812.17 746.64 805.76 737.32 804.89 733.62 795.96"/><path class="cls-3" d="M805.34,752.07,795,777.24l-26.24,2.5,19.85,18-5.82,26.69,22.62-14,22.64,14-5.88-26.68L842,779.65l-26.24-2.44Zm20.43,33.08-11,10.05L818,810.06l-12.61-7.8-12.6,7.83L796,795.22,785,785.2l14.62-1.4,5.76-14,5.79,14Z"/><polygon class="cls-3" points="733.5 697.75 741.55 702.72 739.46 693.25 746.5 686.83 737.18 685.97 733.48 677.03 729.81 685.98 720.48 686.87 727.54 693.26 725.47 702.74 733.5 697.75"/><polygon class="cls-3" points="799.17 196.51 786.05 197.77 795.98 206.76 793.07 220.11 804.38 213.09 815.7 220.08 812.76 206.74 822.67 197.72 809.54 196.5 804.34 183.93 799.17 196.51"/><path class="cls-3" d="M733.75,290.05,749.84,300l-4.18-19,14.08-12.82-18.65-1.73-7.39-17.87-7.35,17.89-18.65,1.78,14.11,12.78-4.13,19Zm-14.51-17.9,10.38-1,4.09-10,4.12,9.95,10.39,1-7.84,7.14,2.32,10.56-9-5.54-9,5.56,2.3-10.56Z"/><path class="cls-3" d="M827.8,322.53l-5.87-26.68,19.81-18.05-26.25-2.43-10.4-25.15-10.34,25.17-26.24,2.51,19.85,18-5.81,26.7,22.61-14.06Zm-32-29.16-11-10L799.35,282l5.76-14,5.8,14,14.61,1.36-11,10.05,3.27,14.86-12.61-7.8-12.59,7.83Z"/><polygon class="cls-3" points="733.33 341.15 741.38 346.12 739.29 336.64 746.33 330.23 737 329.36 733.3 320.43 729.63 329.37 720.31 330.26 727.36 336.65 725.29 346.14 733.33 341.15"/><polygon class="cls-3" points="799.17 23.57 786.05 24.83 795.98 33.82 793.07 47.17 804.38 40.15 815.7 47.14 812.76 33.8 822.67 24.78 809.54 23.56 804.34 10.99 799.17 23.57"/><path class="cls-3" d="M733.75,167.16l16.09,9.94-4.18-18.95,14.08-12.83-18.65-1.73-7.39-17.87-7.35,17.89-18.65,1.78,14.11,12.79-4.13,19Zm-14.51-17.89,10.38-1,4.09-10,4.12,9.95,10.39,1-7.84,7.14,2.32,10.56-9-5.54-9,5.56,2.3-10.56Z"/><path class="cls-3" d="M827.8,149.59l-5.87-26.68,19.81-18-26.25-2.43-10.4-25.15-10.34,25.17L768.51,105l19.85,18-5.81,26.7,22.61-14.05Zm-32-29.16-11-10L799.35,109l5.76-14,5.8,14,14.61,1.36-11,10,3.27,14.86-12.61-7.8-12.59,7.83Z"/><polygon class="cls-3" points="733.33 218.26 741.38 223.23 739.29 213.75 746.33 207.34 737 206.47 733.3 197.54 729.63 206.48 720.31 207.37 727.36 213.77 725.29 223.25 733.33 218.26"/><path class="cls-3" d="M733.75,44.27l16.09,9.95-4.18-19,14.08-12.82L741.09,20.7,733.7,2.83l-7.35,17.89L707.7,22.5l14.11,12.79-4.13,19ZM719.24,26.38l10.38-1,4.09-10,4.12,10,10.39,1-7.84,7.14L742.7,44l-9-5.54-9,5.56,2.3-10.56Z"/><polygon class="cls-3" points="733.33 95.37 741.38 100.34 739.29 90.86 746.33 84.45 737 83.59 733.3 74.65 729.63 83.6 720.31 84.48 727.36 90.88 725.29 100.36 733.33 95.37"/><polygon class="cls-3" points="944.4 547.57 955.72 554.57 952.78 541.23 962.69 532.21 949.56 530.99 944.36 518.41 939.19 531 926.07 532.25 936 541.25 933.09 554.6 944.4 547.57"/><path class="cls-3" d="M873.75,527.73l16.09,9.94-4.17-18.95,14.07-12.83-18.65-1.73-7.39-17.87-7.35,17.89L847.71,506l14.11,12.79-4.14,19Zm-14.51-17.9,10.39-1,4.09-10,4.12,9.95,10.38,1-7.84,7.14,2.33,10.56-9-5.54-9,5.56L867.1,517Z"/><polygon class="cls-3" points="944.56 685.77 939.39 698.36 926.27 699.61 936.19 708.61 933.29 721.96 944.59 714.93 955.91 721.93 952.98 708.59 962.88 699.57 949.76 698.35 944.56 685.77"/><path class="cls-3" d="M873.89,646.65l16.09,10-4.18-19,14.08-12.82-18.65-1.74-7.39-17.86-7.35,17.88-18.64,1.78L862,637.67l-4.14,19Zm-14.51-17.89,10.38-1,4.1-10,4.11,10,10.39,1-7.84,7.14,2.33,10.56-9-5.54-8.94,5.56,2.3-10.56Z"/><path class="cls-3" d="M955.51,609.85l-10.4-25.14-10.34,25.17-26.24,2.5,19.85,18-5.81,26.69L945.18,643l22.64,14L962,630.34l19.81-18.05Zm-1,18,3.27,14.86-12.61-7.8-12.59,7.83,3.23-14.87-11-10,14.61-1.4,5.76-14,5.8,14,14.61,1.36Z"/><polygon class="cls-3" points="873.33 578.83 881.38 583.8 879.29 574.32 886.33 567.91 877 567.04 873.31 558.11 869.64 567.05 860.31 567.94 867.37 574.34 865.3 583.82 873.33 578.83"/><polygon class="cls-3" points="952.59 373.87 962.49 364.85 949.37 363.63 944.17 351.06 939 363.64 925.88 364.89 935.8 373.89 932.89 387.24 944.2 380.21 955.52 387.21 952.59 373.87"/><path class="cls-3" d="M873.61,408.81l16.09,9.94-4.17-19L899.6,387,881,385.24l-7.4-17.87-7.34,17.89L847.57,387l14.11,12.78-4.13,19Zm-14.51-17.9,10.39-1,4.09-10,4.12,10,10.38,1L880.24,398l2.33,10.55-9-5.53-9,5.56L867,398Z"/><path class="cls-3" d="M967.63,489.66,961.75,463l19.81-18.05-26.24-2.44-10.4-25.14-10.35,25.17L908.33,445l19.86,18-5.82,26.69,22.61-14Zm-32-29.16-11.06-10,14.62-1.4,5.76-14,5.79,14,14.62,1.36-11,10.05,3.28,14.86L945,467.54l-12.59,7.83Z"/><polygon class="cls-3" points="873.2 459.9 881.24 464.88 879.15 455.4 886.19 448.99 876.87 448.12 873.17 439.19 869.5 448.13 860.17 449.02 867.23 455.41 865.16 464.9 873.2 459.9"/><path class="cls-3" d="M874.12,843.06,866.77,861l-18.64,1.78,14.1,12.79-4.13,19,16.07-10,16.09,9.94-4.18-19,14.08-12.83-18.65-1.73Zm14.52,23.51-7.84,7.14,2.32,10.56-9-5.54-8.95,5.56,2.3-10.56-7.85-7.12,10.38-1,4.09-10,4.12,10Z"/><polygon class="cls-3" points="944.75 853.13 939.58 865.72 926.46 866.97 936.39 875.97 933.48 889.32 944.79 882.29 956.11 889.29 953.17 875.95 963.08 866.93 949.95 865.71 944.75 853.13"/><path class="cls-3" d="M885.94,756.56,900,743.74,881.37,742,874,724.14,866.63,742,848,743.81l14.1,12.78-4.13,19,16.07-10,16.09,9.94ZM874,759.81l-8.95,5.56,2.31-10.57-7.86-7.12,10.38-1,4.1-10,4.11,9.95,10.39,1-7.84,7.14L883,765.34Z"/><polygon class="cls-3" points="873.59 795.96 869.91 804.9 860.59 805.79 867.64 812.18 865.58 821.67 873.61 816.67 881.66 821.65 879.57 812.17 886.61 805.76 877.28 804.89 873.59 795.96"/><path class="cls-3" d="M945.31,752.07,935,777.24l-26.24,2.5,19.86,18-5.82,26.69,22.61-14,22.65,14-5.88-26.68L982,779.65l-26.24-2.44Zm20.43,33.08-11,10.05L958,810.06l-12.61-7.8-12.6,7.83L936,795.22,925,785.2l14.62-1.4,5.76-14,5.79,14Z"/><polygon class="cls-3" points="873.47 697.75 881.52 702.72 879.43 693.25 886.47 686.83 877.14 685.97 873.45 677.03 869.77 685.98 860.45 686.87 867.51 693.26 865.44 702.74 873.47 697.75"/><polygon class="cls-3" points="939.14 196.51 926.02 197.77 935.95 206.76 933.04 220.11 944.35 213.09 955.67 220.08 952.73 206.74 962.63 197.72 949.51 196.5 944.31 183.93 939.14 196.51"/><path class="cls-3" d="M873.71,290.05l16.1,9.94-4.18-19,14.08-12.82-18.65-1.73-7.39-17.87-7.35,17.89-18.65,1.78,14.11,12.78-4.13,19Zm-14.51-17.9,10.39-1,4.09-10,4.12,9.95,10.38,1-7.84,7.14,2.33,10.56-9-5.54-9,5.56,2.3-10.56Z"/><path class="cls-3" d="M967.77,322.53l-5.88-26.68,19.82-18.05-26.25-2.43-10.4-25.15-10.34,25.17-26.24,2.51,19.85,18-5.81,26.7,22.61-14.06Zm-32-29.16-11-10L939.32,282l5.76-14,5.79,14,14.62,1.36-11,10.05,3.27,14.86-12.61-7.8-12.6,7.83Z"/><polygon class="cls-3" points="873.3 341.15 881.34 346.12 879.25 336.64 886.29 330.23 876.97 329.36 873.27 320.43 869.6 329.37 860.28 330.26 867.33 336.65 865.26 346.14 873.3 341.15"/><polygon class="cls-3" points="939.14 23.57 926.02 24.83 935.95 33.82 933.04 47.17 944.35 40.15 955.67 47.14 952.73 33.8 962.63 24.78 949.51 23.56 944.31 10.99 939.14 23.57"/><path class="cls-3" d="M873.71,167.16l16.1,9.94-4.18-18.95,14.08-12.83-18.65-1.73-7.39-17.87-7.35,17.89-18.65,1.78,14.11,12.79-4.13,19ZM859.2,149.27l10.39-1,4.09-10,4.12,9.95,10.38,1-7.84,7.14,2.33,10.56-9-5.54-9,5.56,2.3-10.56Z"/><path class="cls-3" d="M967.77,149.59l-5.88-26.68,19.82-18-26.25-2.43-10.4-25.15-10.34,25.17L908.48,105l19.85,18-5.81,26.7,22.61-14.05Zm-32-29.16-11-10L939.32,109l5.76-14,5.79,14,14.62,1.36-11,10,3.27,14.86-12.61-7.8-12.6,7.83Z"/><polygon class="cls-3" points="873.3 218.26 881.34 223.23 879.25 213.75 886.29 207.34 876.97 206.47 873.27 197.54 869.6 206.48 860.28 207.37 867.33 213.77 865.26 223.25 873.3 218.26"/><path class="cls-3" d="M873.71,44.27l16.1,9.95-4.18-19,14.08-12.82L881.06,20.7,873.67,2.83l-7.35,17.89L847.67,22.5l14.11,12.79-4.13,19ZM859.2,26.38l10.39-1,4.09-10,4.12,10,10.38,1-7.84,7.14L882.67,44l-9-5.54-9,5.56,2.3-10.56Z"/><polygon class="cls-3" points="873.3 95.37 881.34 100.34 879.25 90.86 886.29 84.45 876.97 83.59 873.27 74.65 869.6 83.6 860.28 84.48 867.33 90.88 865.26 100.36 873.3 95.37"/><polygon class="cls-3" points="1084.37 547.57 1095.69 554.57 1092.75 541.23 1102.65 532.21 1089.53 530.99 1084.33 518.41 1079.16 531 1066.04 532.25 1075.97 541.25 1073.06 554.6 1084.37 547.57"/><path class="cls-3" d="M1013.72,527.73l16.09,9.94-4.18-18.95,14.08-12.83-18.65-1.73-7.39-17.87-7.35,17.89L987.68,506l14.11,12.79-4.14,19Zm-14.51-17.9,10.38-1,4.1-10,4.11,9.95,10.39,1-7.84,7.14,2.33,10.56-9-5.54-9,5.56,2.31-10.56Z"/><polygon class="cls-3" points="1084.53 685.77 1079.36 698.36 1066.23 699.61 1076.16 708.61 1073.25 721.96 1084.56 714.93 1095.88 721.93 1092.94 708.59 1102.85 699.57 1089.73 698.35 1084.53 685.77"/><path class="cls-3" d="M1013.86,646.65l16.09,10-4.18-19,14.08-12.82-18.65-1.74-7.39-17.86-7.35,17.88-18.64,1.78,14.1,12.79-4.13,19Zm-14.51-17.89,10.38-1,4.1-10,4.11,10,10.39,1-7.84,7.14,2.32,10.56-9-5.54-9,5.56,2.3-10.56Z"/><path class="cls-3" d="M1095.48,609.85l-10.4-25.14-10.34,25.17-26.24,2.5,19.85,18-5.81,26.69L1085.15,643l22.64,14-5.88-26.68,19.82-18.05Zm-1,18,3.27,14.86-12.61-7.8-12.6,7.83,3.24-14.87-11-10,14.61-1.4,5.76-14,5.79,14,14.62,1.36Z"/><polygon class="cls-3" points="1013.3 578.83 1021.35 583.8 1019.26 574.32 1026.3 567.91 1016.97 567.04 1013.28 558.11 1009.6 567.05 1000.28 567.94 1007.34 574.34 1005.27 583.82 1013.3 578.83"/><polygon class="cls-3" points="1092.55 373.87 1102.46 364.85 1089.34 363.63 1084.13 351.06 1078.96 363.64 1065.85 364.89 1075.77 373.89 1072.86 387.24 1084.17 380.21 1095.49 387.21 1092.55 373.87"/><path class="cls-3" d="M1013.58,408.81l16.09,9.94-4.17-19L1039.57,387l-18.65-1.73-7.39-17.87-7.35,17.89L987.54,387l14.11,12.78-4.14,19Zm-14.51-17.9,10.38-1,4.1-10,4.11,10,10.39,1-7.84,7.14,2.33,10.55-9-5.53-8.94,5.56,2.3-10.57Z"/><path class="cls-3" d="M1107.6,489.66,1101.72,463l19.81-18.05-26.25-2.44-10.4-25.14-10.34,25.17L1048.3,445l19.86,18-5.82,26.69,22.61-14Zm-32-29.16-11.06-10,14.62-1.4,5.75-14,5.8,14,14.62,1.36-11,10.05,3.28,14.86-12.62-7.8-12.59,7.83Z"/><polygon class="cls-3" points="1013.16 459.9 1021.21 464.88 1019.12 455.4 1026.16 448.99 1016.84 448.12 1013.14 439.19 1009.47 448.13 1000.14 449.02 1007.2 455.41 1005.13 464.9 1013.16 459.9"/><path class="cls-3" d="M1014.09,843.06,1006.74,861l-18.65,1.78,14.11,12.79-4.13,19,16.07-10,16.09,9.94-4.18-19,14.08-12.83-18.65-1.73Zm14.52,23.51-7.85,7.14,2.33,10.56-9-5.54-9,5.56,2.3-10.56-7.86-7.12,10.39-1,4.09-10,4.12,10Z"/><polygon class="cls-3" points="1084.72 853.13 1079.55 865.72 1066.43 866.97 1076.36 875.97 1073.45 889.32 1084.76 882.29 1096.08 889.29 1093.14 875.95 1103.04 866.93 1089.92 865.71 1084.72 853.13"/><path class="cls-3" d="M1025.91,756.56,1040,743.74,1021.34,742,1014,724.14,1006.6,742,988,743.81l14.11,12.78-4.13,19,16.07-10,16.09,9.94ZM1014,759.81l-9,5.56,2.3-10.57-7.85-7.12,10.38-1,4.09-10,4.12,9.95,10.39,1-7.84,7.14,2.32,10.55Z"/><polygon class="cls-3" points="1013.56 795.96 1009.88 804.9 1000.56 805.79 1007.61 812.18 1005.55 821.67 1013.58 816.67 1021.63 821.65 1019.54 812.17 1026.58 805.76 1017.25 804.89 1013.56 795.96"/><path class="cls-3" d="M1085.27,752.07l-10.34,25.17-26.24,2.5,19.86,18-5.82,26.69,22.61-14,22.65,14-5.88-26.68,19.81-18.05-26.24-2.44Zm20.44,33.08-11,10.05,3.28,14.86-12.62-7.8-12.59,7.83,3.24-14.87-11.06-10,14.62-1.4,5.76-14,5.79,14Z"/><polygon class="cls-3" points="1013.44 697.75 1021.49 702.72 1019.4 693.25 1026.44 686.83 1017.11 685.97 1013.42 677.03 1009.74 685.98 1000.42 686.87 1007.47 693.26 1005.41 702.74 1013.44 697.75"/><polygon class="cls-3" points="1079.11 196.51 1065.99 197.77 1075.91 206.76 1073.01 220.11 1084.31 213.09 1095.63 220.08 1092.7 206.74 1102.6 197.72 1089.48 196.5 1084.28 183.93 1079.11 196.51"/><path class="cls-3" d="M1013.68,290.05l16.09,9.94-4.17-19,14.07-12.82L1021,266.48l-7.4-17.87-7.34,17.89-18.65,1.78,14.11,12.78-4.13,19Zm-14.51-17.9,10.39-1,4.09-10,4.12,9.95,10.38,1-7.84,7.14,2.33,10.56-9-5.54-8.95,5.56,2.3-10.56Z"/><path class="cls-3" d="M1107.74,322.53l-5.88-26.68,19.81-18.05-26.24-2.43L1085,250.22l-10.34,25.17-26.24,2.51,19.85,18-5.82,26.7,22.62-14.06Zm-32-29.16-11.06-10,14.62-1.39,5.76-14,5.79,14,14.62,1.36-11,10.05,3.28,14.86-12.61-7.8-12.6,7.83Z"/><polygon class="cls-3" points="1013.27 341.15 1021.31 346.12 1019.22 336.64 1026.26 330.23 1016.94 329.36 1013.24 320.43 1009.57 329.37 1000.24 330.26 1007.3 336.65 1005.23 346.14 1013.27 341.15"/><polygon class="cls-3" points="1079.11 23.57 1065.99 24.83 1075.91 33.82 1073.01 47.17 1084.31 40.15 1095.63 47.14 1092.7 33.8 1102.6 24.78 1089.48 23.56 1084.28 10.99 1079.11 23.57"/><path class="cls-3" d="M1013.68,167.16l16.09,9.94-4.17-18.95,14.07-12.83L1021,143.59l-7.4-17.87-7.34,17.89-18.65,1.78,14.11,12.79-4.13,19Zm-14.51-17.89,10.39-1,4.09-10,4.12,9.95,10.38,1-7.84,7.14,2.33,10.56-9-5.54-8.95,5.56,2.3-10.56Z"/><path class="cls-3" d="M1107.74,149.59l-5.88-26.68,19.81-18-26.24-2.43L1085,77.28l-10.34,25.17L1048.45,105l19.85,18-5.82,26.7,22.62-14.05Zm-32-29.16-11.06-10,14.62-1.39,5.76-14,5.79,14,14.62,1.36-11,10,3.28,14.86-12.61-7.8-12.6,7.83Z"/><polygon class="cls-3" points="1013.27 218.26 1021.31 223.23 1019.22 213.75 1026.26 207.34 1016.94 206.47 1013.24 197.54 1009.57 206.48 1000.24 207.37 1007.3 213.77 1005.23 223.25 1013.27 218.26"/><path class="cls-3" d="M1013.68,44.27l16.09,9.95-4.17-19,14.07-12.82L1021,20.7l-7.4-17.87-7.34,17.89L987.64,22.5l14.11,12.79-4.13,19ZM999.17,26.38l10.39-1,4.09-10,4.12,10,10.38,1-7.84,7.14L1022.64,44l-9-5.54-8.95,5.56L1007,33.5Z"/><polygon class="cls-3" points="1013.27 95.37 1021.31 100.34 1019.22 90.86 1026.26 84.45 1016.94 83.59 1013.24 74.65 1009.57 83.6 1000.24 84.48 1007.3 90.88 1005.23 100.36 1013.27 95.37"/><polygon class="cls-3" points="1224.33 547.57 1235.65 554.57 1232.72 541.23 1242.62 532.21 1229.5 530.99 1224.3 518.41 1219.13 531 1206.01 532.25 1215.93 541.25 1213.03 554.6 1224.33 547.57"/><path class="cls-3" d="M1153.69,527.73l16.09,9.94-4.18-18.95,14.08-12.83L1161,504.16l-7.39-17.87-7.35,17.89L1127.65,506l14.1,12.79-4.13,19Zm-14.51-17.9,10.38-1,4.09-10,4.12,9.95,10.39,1-7.84,7.14,2.32,10.56-9-5.54-9,5.56L1147,517Z"/><polygon class="cls-3" points="1224.49 685.77 1219.32 698.36 1206.2 699.61 1216.13 708.61 1213.22 721.96 1224.53 714.93 1235.85 721.93 1232.91 708.59 1242.82 699.57 1229.69 698.35 1224.49 685.77"/><path class="cls-3" d="M1153.83,646.65l16.09,10-4.18-19,14.08-12.82-18.65-1.74-7.39-17.86-7.35,17.88-18.65,1.78,14.11,12.79-4.13,19Zm-14.51-17.89,10.38-1,4.09-10,4.12,10,10.39,1-7.84,7.14,2.32,10.56-9-5.54-9,5.56,2.3-10.56Z"/><path class="cls-3" d="M1235.45,609.85l-10.4-25.14-10.34,25.17-26.24,2.5,19.85,18-5.82,26.69L1225.12,643l22.64,14-5.88-26.68,19.81-18.05Zm-1,18,3.28,14.86-12.61-7.8-12.6,7.83,3.24-14.87-11.06-10,14.62-1.4,5.76-14,5.79,14,14.62,1.36Z"/><polygon class="cls-3" points="1153.27 578.83 1161.32 583.8 1159.23 574.32 1166.27 567.91 1156.94 567.04 1153.25 558.11 1149.57 567.05 1140.25 567.94 1147.3 574.34 1145.24 583.82 1153.27 578.83"/><polygon class="cls-3" points="1232.52 373.87 1242.43 364.85 1229.3 363.63 1224.1 351.06 1218.93 363.64 1205.81 364.89 1215.74 373.89 1212.83 387.24 1224.14 380.21 1235.46 387.21 1232.52 373.87"/><path class="cls-3" d="M1153.55,408.81l16.09,9.94-4.18-19L1179.54,387l-18.65-1.73-7.39-17.87-7.35,17.89L1127.51,387l14.1,12.78-4.13,19ZM1139,390.91l10.38-1,4.1-10,4.11,10,10.39,1-7.84,7.14,2.33,10.55-9-5.53-9,5.56L1146.9,398Z"/><path class="cls-3" d="M1247.57,489.66,1241.69,463l19.81-18.05-26.25-2.44-10.4-25.14-10.34,25.17-26.24,2.5,19.85,18-5.81,26.69,22.61-14Zm-32-29.16-11.06-10,14.61-1.4,5.76-14,5.8,14,14.61,1.36-11,10.05,3.27,14.86-12.61-7.8-12.59,7.83Z"/><polygon class="cls-3" points="1153.13 459.9 1161.18 464.88 1159.09 455.4 1166.13 448.99 1156.8 448.12 1153.11 439.19 1149.43 448.13 1140.11 449.02 1147.16 455.41 1145.1 464.9 1153.13 459.9"/><path class="cls-3" d="M1154.06,843.06,1146.71,861l-18.65,1.78,14.11,12.79-4.13,19,16.06-10,16.1,9.94-4.18-19,14.08-12.83-18.65-1.73Zm14.51,23.51-7.84,7.14,2.33,10.56-9-5.54-8.95,5.56,2.3-10.56-7.86-7.12,10.39-1,4.09-10,4.12,10Z"/><polygon class="cls-3" points="1224.69 853.13 1219.52 865.72 1206.4 866.97 1216.33 875.97 1213.42 889.32 1224.72 882.29 1236.05 889.29 1233.11 875.95 1243.01 866.93 1229.89 865.71 1224.69 853.13"/><path class="cls-3" d="M1165.88,756.56,1180,743.74,1161.31,742l-7.39-17.87L1146.57,742l-18.65,1.78L1142,756.59l-4.13,19,16.07-10,16.09,9.94ZM1154,759.81l-9,5.56,2.3-10.57-7.86-7.12,10.39-1,4.09-10,4.12,9.95,10.39,1-7.85,7.14,2.33,10.55Z"/><polygon class="cls-3" points="1153.52 795.96 1149.85 804.9 1140.53 805.79 1147.58 812.18 1145.51 821.67 1153.55 816.67 1161.59 821.65 1159.51 812.17 1166.54 805.76 1157.22 804.89 1153.52 795.96"/><path class="cls-3" d="M1225.24,752.07l-10.34,25.17-26.24,2.5,19.85,18-5.81,26.69,22.61-14,22.65,14-5.88-26.68,19.81-18.05-26.25-2.44Zm20.43,33.08-11,10.05,3.27,14.86-12.61-7.8-12.59,7.83,3.24-14.87-11.06-10,14.61-1.4,5.76-14,5.8,14Z"/><polygon class="cls-3" points="1153.41 697.75 1161.45 702.72 1159.37 693.25 1166.4 686.83 1157.08 685.97 1153.38 677.03 1149.71 685.98 1140.39 686.87 1147.44 693.26 1145.38 702.74 1153.41 697.75"/><polygon class="cls-3" points="1219.08 196.51 1205.96 197.77 1215.88 206.76 1212.97 220.11 1224.28 213.09 1235.6 220.08 1232.66 206.74 1242.57 197.72 1229.45 196.5 1224.25 183.93 1219.08 196.51"/><path class="cls-3" d="M1153.65,290.05l16.09,9.94-4.17-19,14.07-12.82L1161,266.48l-7.39-17.87-7.35,17.89-18.64,1.78,14.11,12.78-4.14,19Zm-14.51-17.9,10.38-1,4.1-10,4.11,9.95,10.39,1-7.84,7.14,2.33,10.56-9-5.54-8.94,5.56,2.3-10.56Z"/><path class="cls-3" d="M1247.71,322.53l-5.88-26.68,19.81-18.05-26.24-2.43L1225,250.22l-10.35,25.17-26.24,2.51,19.86,18-5.82,26.7,22.61-14.06Zm-32-29.16-11.06-10,14.62-1.39,5.76-14,5.79,14,14.62,1.36-11,10.05,3.28,14.86-12.62-7.8-12.59,7.83Z"/><polygon class="cls-3" points="1153.23 341.15 1161.28 346.12 1159.19 336.64 1166.23 330.23 1156.9 329.36 1153.21 320.43 1149.54 329.37 1140.21 330.26 1147.27 336.65 1145.2 346.14 1153.23 341.15"/><polygon class="cls-3" points="1219.08 23.57 1205.96 24.83 1215.88 33.82 1212.97 47.17 1224.28 40.15 1235.6 47.14 1232.66 33.8 1242.57 24.78 1229.45 23.56 1224.25 10.99 1219.08 23.57"/><path class="cls-3" d="M1153.65,167.16l16.09,9.94-4.17-18.95,14.07-12.83L1161,143.59l-7.39-17.87-7.35,17.89-18.64,1.78,14.11,12.79-4.14,19Zm-14.51-17.89,10.38-1,4.1-10,4.11,9.95,10.39,1-7.84,7.14,2.33,10.56-9-5.54L1144.7,167l2.3-10.56Z"/><path class="cls-3" d="M1247.71,149.59l-5.88-26.68,19.81-18-26.24-2.43L1225,77.28l-10.35,25.17L1188.41,105l19.86,18-5.82,26.7,22.61-14.05Zm-32-29.16-11.06-10,14.62-1.39L1225,95l5.79,14,14.62,1.36-11,10,3.28,14.86-12.62-7.8-12.59,7.83Z"/><polygon class="cls-3" points="1153.23 218.26 1161.28 223.23 1159.19 213.75 1166.23 207.34 1156.9 206.47 1153.21 197.54 1149.54 206.48 1140.21 207.37 1147.27 213.77 1145.2 223.25 1153.23 218.26"/><path class="cls-3" d="M1153.65,44.27l16.09,9.95-4.17-19,14.07-12.82L1161,20.7,1153.6,2.83l-7.35,17.89-18.64,1.78,14.11,12.79-4.14,19Zm-14.51-17.89,10.38-1,4.1-10,4.11,10,10.39,1-7.84,7.14L1162.61,44l-9-5.54-8.94,5.56L1147,33.5Z"/><polygon class="cls-3" points="1153.23 95.37 1161.28 100.34 1159.19 90.86 1166.23 84.45 1156.9 83.59 1153.21 74.65 1149.54 83.6 1140.21 84.48 1147.27 90.88 1145.2 100.36 1153.23 95.37"/><polygon class="cls-3" points="1364.3 547.57 1375.62 554.57 1372.68 541.23 1382.59 532.21 1369.47 530.99 1364.27 518.41 1359.1 531 1345.98 532.25 1355.9 541.25 1352.99 554.6 1364.3 547.57"/><path class="cls-3" d="M1293.66,527.73l16.09,9.94-4.18-18.95,14.08-12.83L1301,504.16l-7.39-17.87-7.35,17.89L1267.61,506l14.11,12.79-4.13,19Zm-14.52-17.9,10.39-1,4.09-10,4.12,9.95,10.39,1-7.85,7.14,2.33,10.56-9-5.54-9,5.56L1287,517Z"/><polygon class="cls-3" points="1364.46 685.77 1359.29 698.36 1346.17 699.61 1356.1 708.61 1353.19 721.96 1364.5 714.93 1375.82 721.93 1372.88 708.59 1382.79 699.57 1369.66 698.35 1364.46 685.77"/><path class="cls-3" d="M1293.79,646.65l16.1,10-4.18-19,14.08-12.82-18.65-1.74-7.39-17.86-7.35,17.88-18.65,1.78,14.11,12.79-4.13,19Zm-14.51-17.89,10.39-1,4.09-10,4.12,10,10.38,1-7.84,7.14,2.33,10.56-9-5.54-9,5.56,2.3-10.56Z"/><path class="cls-3" d="M1375.42,609.85,1365,584.71l-10.35,25.17-26.24,2.5,19.86,18-5.82,26.69L1365.08,643l22.65,14-5.88-26.68,19.81-18.05Zm-1,18,3.28,14.86-12.62-7.8-12.59,7.83,3.24-14.87-11.06-10,14.62-1.4,5.76-14,5.79,14,14.62,1.36Z"/><polygon class="cls-3" points="1293.24 578.83 1301.28 583.8 1299.2 574.32 1306.23 567.91 1296.91 567.04 1293.21 558.11 1289.54 567.05 1280.22 567.94 1287.27 574.34 1285.2 583.82 1293.24 578.83"/><polygon class="cls-3" points="1372.49 373.87 1382.39 364.85 1369.27 363.63 1364.07 351.06 1358.9 363.64 1345.78 364.89 1355.71 373.89 1352.8 387.24 1364.11 380.21 1375.43 387.21 1372.49 373.87"/><path class="cls-3" d="M1293.52,408.81l16.09,9.94-4.18-19L1319.51,387l-18.65-1.73-7.39-17.87-7.35,17.89L1267.47,387l14.11,12.78-4.13,19ZM1279,390.91l10.38-1,4.09-10,4.12,10,10.39,1-7.84,7.14,2.32,10.55-9-5.53-9,5.56,2.3-10.57Z"/><path class="cls-3" d="M1387.53,489.66,1381.65,463l19.82-18.05-26.25-2.44-10.4-25.14-10.34,25.17-26.24,2.5,19.85,18-5.81,26.69,22.61-14Zm-32-29.16-11-10,14.61-1.4,5.76-14,5.79,14,14.62,1.36-11,10.05,3.27,14.86-12.61-7.8-12.59,7.83Z"/><polygon class="cls-3" points="1293.1 459.9 1301.15 464.88 1299.06 455.4 1306.1 448.99 1296.77 448.12 1293.08 439.19 1289.4 448.13 1280.08 449.02 1287.13 455.41 1285.07 464.9 1293.1 459.9"/><path class="cls-3" d="M1294,843.06,1286.67,861,1268,862.73l14.11,12.79-4.14,19,16.07-10,16.09,9.94-4.17-19,14.07-12.83-18.65-1.73Zm14.52,23.51-7.84,7.14,2.33,10.56-9-5.54-9,5.56,2.3-10.56-7.86-7.12,10.39-1,4.09-10,4.12,10Z"/><polygon class="cls-3" points="1364.66 853.13 1359.49 865.72 1346.37 866.97 1356.29 875.97 1353.38 889.32 1364.69 882.29 1376.01 889.29 1373.07 875.95 1382.98 866.93 1369.86 865.71 1364.66 853.13"/><path class="cls-3" d="M1305.85,756.56l14.08-12.82L1301.28,742l-7.39-17.87L1286.54,742l-18.65,1.78L1282,756.59l-4.13,19,16.06-10,16.09,9.94Zm-11.92,3.25-9,5.56,2.3-10.57-7.86-7.12,10.39-1,4.09-10,4.12,9.95,10.38,1-7.84,7.14,2.33,10.55Z"/><polygon class="cls-3" points="1293.49 795.96 1289.82 804.9 1280.49 805.79 1287.55 812.18 1285.48 821.67 1293.52 816.67 1301.56 821.65 1299.47 812.17 1306.51 805.76 1297.19 804.89 1293.49 795.96"/><path class="cls-3" d="M1365.21,752.07l-10.34,25.17-26.24,2.5,19.85,18-5.81,26.69,22.61-14,22.64,14-5.87-26.68,19.81-18.05-26.25-2.44Zm20.43,33.08-11,10.05,3.27,14.86-12.61-7.8-12.59,7.83,3.23-14.87-11.05-10,14.61-1.4,5.76-14,5.79,14Z"/><polygon class="cls-3" points="1293.38 697.75 1301.42 702.72 1299.33 693.25 1306.37 686.83 1297.05 685.97 1293.35 677.03 1289.68 685.98 1280.36 686.87 1287.41 693.26 1285.34 702.74 1293.38 697.75"/><polygon class="cls-3" points="1359.04 196.51 1345.92 197.77 1355.85 206.76 1352.94 220.11 1364.25 213.09 1375.57 220.08 1372.63 206.74 1382.54 197.72 1369.41 196.5 1364.21 183.93 1359.04 196.51"/><path class="cls-3" d="M1293.62,290.05l16.09,9.94-4.18-19,14.08-12.82L1301,266.48l-7.39-17.87-7.35,17.89-18.64,1.78,14.1,12.78-4.13,19Zm-14.51-17.9,10.38-1,4.1-10,4.11,9.95,10.39,1-7.84,7.14,2.32,10.56-9-5.54-8.95,5.56,2.3-10.56Z"/><path class="cls-3" d="M1387.68,322.53l-5.88-26.68,19.81-18.05-26.25-2.43L1365,250.22l-10.34,25.17-26.24,2.51,19.86,18-5.82,26.7L1365,308.53Zm-32-29.16-11.06-10,14.61-1.39,5.76-14,5.8,14,14.61,1.36-11,10.05,3.27,14.86-12.61-7.8-12.59,7.83Z"/><polygon class="cls-3" points="1293.2 341.15 1301.25 346.12 1299.16 336.64 1306.2 330.23 1296.87 329.36 1293.18 320.43 1289.5 329.37 1280.18 330.26 1287.23 336.65 1285.17 346.14 1293.2 341.15"/><polygon class="cls-3" points="1359.04 23.57 1345.92 24.83 1355.85 33.82 1352.94 47.17 1364.25 40.15 1375.57 47.14 1372.63 33.8 1382.54 24.78 1369.41 23.56 1364.21 10.99 1359.04 23.57"/><path class="cls-3" d="M1293.62,167.16l16.09,9.94-4.18-18.95,14.08-12.83L1301,143.59l-7.39-17.87-7.35,17.89-18.64,1.78,14.1,12.79-4.13,19Zm-14.51-17.89,10.38-1,4.1-10,4.11,9.95,10.39,1-7.84,7.14,2.32,10.56-9-5.54-8.95,5.56,2.3-10.56Z"/><path class="cls-3" d="M1387.68,149.59l-5.88-26.68,19.81-18-26.25-2.43L1365,77.28l-10.34,25.17L1328.38,105l19.86,18-5.82,26.7L1365,135.6Zm-32-29.16-11.06-10,14.61-1.39L1365,95l5.8,14,14.61,1.36-11,10,3.27,14.86-12.61-7.8-12.59,7.83Z"/><polygon class="cls-3" points="1293.2 218.26 1301.25 223.23 1299.16 213.75 1306.2 207.34 1296.87 206.47 1293.18 197.54 1289.5 206.48 1280.18 207.37 1287.23 213.77 1285.17 223.25 1293.2 218.26"/><path class="cls-3" d="M1293.62,44.27l16.09,9.95-4.18-19,14.08-12.82L1301,20.7l-7.39-17.87-7.35,17.89-18.64,1.78,14.1,12.79-4.13,19Zm-14.51-17.89,10.38-1,4.1-10,4.11,10,10.39,1-7.84,7.14L1302.57,44l-9-5.54-8.95,5.56L1287,33.5Z"/><polygon class="cls-3" points="1293.2 95.37 1301.25 100.34 1299.16 90.86 1306.2 84.45 1296.87 83.59 1293.18 74.65 1289.5 83.6 1280.18 84.48 1287.23 90.88 1285.17 100.36 1293.2 95.37"/><polygon class="cls-3" points="1504.27 547.57 1515.59 554.57 1512.65 541.23 1522.56 532.21 1509.43 530.99 1504.23 518.41 1499.06 531 1485.94 532.25 1495.87 541.25 1492.96 554.6 1504.27 547.57"/><path class="cls-3" d="M1433.62,527.73l16.1,9.94-4.18-18.95,14.08-12.83L1441,504.16l-7.39-17.87-7.35,17.89L1407.58,506l14.11,12.79-4.13,19Zm-14.51-17.9,10.39-1,4.09-10,4.12,9.95,10.38,1-7.84,7.14,2.33,10.56-9-5.54-8.95,5.56L1427,517Z"/><polygon class="cls-3" points="1504.43 685.77 1499.26 698.36 1486.14 699.61 1496.07 708.61 1493.16 721.96 1504.46 714.93 1515.79 721.93 1512.85 708.59 1522.75 699.57 1509.63 698.35 1504.43 685.77"/><path class="cls-3" d="M1433.76,646.65l16.09,10-4.17-19,14.07-12.82-18.64-1.74-7.4-17.86-7.34,17.88-18.65,1.78,14.11,12.79-4.13,19Zm-14.51-17.89,10.39-1,4.09-10,4.12,10,10.38,1-7.84,7.14,2.33,10.56-9-5.54-9,5.56,2.3-10.56Z"/><path class="cls-3" d="M1515.38,609.85,1505,584.71l-10.34,25.17-26.24,2.5,19.86,18-5.82,26.69L1505.05,643l22.65,14-5.88-26.68,19.81-18.05Zm-1,18,3.27,14.86L1505,634.9l-12.59,7.83,3.24-14.87-11.06-10,14.61-1.4,5.76-14,5.8,14,14.61,1.36Z"/><polygon class="cls-3" points="1433.21 578.83 1441.25 583.8 1439.16 574.32 1446.2 567.91 1436.88 567.04 1433.18 558.11 1429.51 567.05 1420.18 567.94 1427.24 574.34 1425.17 583.82 1433.21 578.83"/><polygon class="cls-3" points="1512.46 373.87 1522.36 364.85 1509.24 363.63 1504.04 351.06 1498.87 363.64 1485.75 364.89 1495.68 373.89 1492.77 387.24 1504.07 380.21 1515.4 387.21 1512.46 373.87"/><path class="cls-3" d="M1433.49,408.81l16.09,9.94-4.18-19L1459.48,387l-18.65-1.73-7.39-17.87-7.35,17.89L1407.44,387l14.11,12.78-4.13,19ZM1419,390.91l10.39-1,4.09-10,4.12,10,10.39,1-7.85,7.14,2.33,10.55-9-5.53-9,5.56,2.3-10.57Z"/><path class="cls-3" d="M1527.5,489.66,1521.62,463l19.81-18.05-26.24-2.44-10.4-25.14-10.34,25.17-26.24,2.5,19.85,18-5.82,26.69,22.62-14Zm-32-29.16-11.06-10,14.62-1.4,5.76-14,5.79,14,14.62,1.36-11,10.05,3.27,14.86-12.61-7.8-12.6,7.83Z"/><polygon class="cls-3" points="1433.07 459.9 1441.11 464.88 1439.03 455.4 1446.06 448.99 1436.74 448.12 1433.04 439.19 1429.37 448.13 1420.05 449.02 1427.1 455.41 1425.03 464.9 1433.07 459.9"/><path class="cls-3" d="M1434,843.06,1426.64,861,1408,862.73l14.11,12.79-4.14,19,16.07-10,16.09,9.94-4.18-19L1460,862.66l-18.65-1.73Zm14.52,23.51-7.84,7.14,2.33,10.56-9-5.54-8.94,5.56,2.3-10.56-7.86-7.12,10.38-1,4.1-10,4.11,10Z"/><polygon class="cls-3" points="1504.63 853.13 1499.45 865.72 1486.33 866.97 1496.26 875.97 1493.35 889.32 1504.66 882.29 1515.98 889.29 1513.04 875.95 1522.95 866.93 1509.83 865.71 1504.63 853.13"/><path class="cls-3" d="M1445.82,756.56l14.07-12.82L1441.24,742l-7.39-17.87L1426.5,742l-18.64,1.78L1422,756.59l-4.14,19,16.07-10,16.09,9.94Zm-11.93,3.25-8.94,5.56,2.3-10.57-7.86-7.12,10.39-1,4.09-10,4.11,9.95,10.39,1-7.84,7.14,2.33,10.55Z"/><polygon class="cls-3" points="1433.46 795.96 1429.79 804.9 1420.46 805.79 1427.52 812.18 1425.45 821.67 1433.48 816.67 1441.53 821.65 1439.44 812.17 1446.48 805.76 1437.15 804.89 1433.46 795.96"/><path class="cls-3" d="M1505.18,752.07l-10.34,25.17-26.24,2.5,19.85,18-5.82,26.69,22.62-14,22.64,14L1522,797.7l19.81-18.05-26.24-2.44Zm20.43,33.08-11,10.05,3.27,14.86-12.61-7.8-12.6,7.83,3.24-14.87-11.06-10,14.62-1.4,5.76-14,5.79,14Z"/><polygon class="cls-3" points="1433.35 697.75 1441.39 702.72 1439.3 693.25 1446.34 686.83 1437.02 685.97 1433.32 677.03 1429.65 685.98 1420.32 686.87 1427.38 693.26 1425.31 702.74 1433.35 697.75"/><polygon class="cls-3" points="1499.01 196.51 1485.89 197.77 1495.82 206.76 1492.91 220.11 1504.22 213.09 1515.54 220.08 1512.6 206.74 1522.51 197.72 1509.38 196.5 1504.18 183.93 1499.01 196.51"/><path class="cls-3" d="M1433.59,290.05l16.09,9.94-4.18-19,14.08-12.82-18.65-1.73-7.39-17.87-7.35,17.89-18.65,1.78,14.11,12.78-4.13,19Zm-14.51-17.9,10.38-1,4.09-10,4.12,9.95,10.39,1-7.84,7.14,2.32,10.56-9-5.54-8.95,5.56,2.3-10.56Z"/><path class="cls-3" d="M1527.64,322.53l-5.87-26.68,19.81-18.05-26.25-2.43-10.4-25.15-10.34,25.17-26.24,2.51,19.85,18-5.81,26.7L1505,308.53Zm-32-29.16-11.06-10,14.61-1.39,5.76-14,5.8,14,14.61,1.36-11,10.05,3.27,14.86-12.61-7.8-12.59,7.83Z"/><polygon class="cls-3" points="1433.17 341.15 1441.21 346.12 1439.13 336.64 1446.17 330.23 1436.84 329.36 1433.15 320.43 1429.47 329.37 1420.15 330.26 1427.2 336.65 1425.14 346.14 1433.17 341.15"/><polygon class="cls-3" points="1499.01 23.57 1485.89 24.83 1495.82 33.82 1492.91 47.17 1504.22 40.15 1515.54 47.14 1512.6 33.8 1522.51 24.78 1509.38 23.56 1504.18 10.99 1499.01 23.57"/><path class="cls-3" d="M1433.59,167.16l16.09,9.94-4.18-18.95,14.08-12.83-18.65-1.73-7.39-17.87-7.35,17.89-18.65,1.78,14.11,12.79-4.13,19Zm-14.51-17.89,10.38-1,4.09-10,4.12,9.95,10.39,1-7.84,7.14,2.32,10.56-9-5.54-8.95,5.56,2.3-10.56Z"/><path class="cls-3" d="M1527.64,149.59l-5.87-26.68,19.81-18-26.25-2.43-10.4-25.15-10.34,25.17L1468.35,105l19.85,18-5.81,26.7L1505,135.6Zm-32-29.16-11.06-10,14.61-1.39L1505,95l5.8,14,14.61,1.36-11,10,3.27,14.86-12.61-7.8-12.59,7.83Z"/><polygon class="cls-3" points="1433.17 218.26 1441.21 223.23 1439.13 213.75 1446.17 207.34 1436.84 206.47 1433.15 197.54 1429.47 206.48 1420.15 207.37 1427.2 213.77 1425.14 223.25 1433.17 218.26"/><path class="cls-3" d="M1433.59,44.27l16.09,9.95-4.18-19,14.08-12.82-18.65-1.74-7.39-17.87-7.35,17.89-18.65,1.78,14.11,12.79-4.13,19Zm-14.51-17.89,10.38-1,4.09-10,4.12,10,10.39,1-7.84,7.14L1442.54,44l-9-5.54-8.95,5.56,2.3-10.56Z"/><polygon class="cls-3" points="1433.17 95.37 1441.21 100.34 1439.13 90.86 1446.17 84.45 1436.84 83.59 1433.15 74.65 1429.47 83.6 1420.15 84.48 1427.2 90.88 1425.14 100.36 1433.17 95.37"/><path class="cls-3" d="M1573.59,527.73l16.09,9.94-4.17-18.95,14.07-12.83-18.65-1.73-7.39-17.87-7.34,17.89L1547.55,506l14.11,12.79-4.14,19Zm-14.51-17.9,10.39-1,4.09-10,4.12,9.95,10.38,1-7.84,7.14,2.33,10.56-9-5.54-8.95,5.56,2.3-10.56Z"/><path class="cls-3" d="M1573.73,646.65l16.09,10-4.18-19,14.08-12.82-18.65-1.74-7.39-17.86-7.35,17.88-18.64,1.78,14.11,12.79-4.14,19Zm-14.51-17.89,10.38-1,4.1-10,4.11,10,10.39,1-7.84,7.14,2.33,10.56-9-5.54-8.94,5.56,2.3-10.56Z"/><polygon class="cls-3" points="1573.17 578.83 1581.22 583.8 1579.13 574.32 1586.17 567.91 1576.85 567.04 1573.15 558.11 1569.48 567.05 1560.15 567.94 1567.21 574.34 1565.14 583.82 1573.17 578.83"/><path class="cls-3" d="M1573.45,408.81l16.09,9.94-4.17-19L1599.45,387l-18.65-1.73-7.39-17.87-7.35,17.89L1547.41,387l14.11,12.78-4.13,19Zm-14.51-17.9,10.39-1,4.09-10,4.12,10,10.38,1-7.84,7.14,2.33,10.55-9-5.53-9,5.56,2.3-10.57Z"/><polygon class="cls-3" points="1573.04 459.9 1581.08 464.88 1578.99 455.4 1586.03 448.99 1576.71 448.12 1573.01 439.19 1569.34 448.13 1560.02 449.02 1567.07 455.41 1565 464.9 1573.04 459.9"/><path class="cls-3" d="M1574,843.06,1566.61,861,1548,862.73l14.1,12.79-4.13,19,16.07-10,16.09,9.94-4.18-19L1600,862.66l-18.65-1.73Zm14.52,23.51-7.84,7.14,2.32,10.56-9-5.54-9,5.56,2.3-10.56-7.85-7.12,10.38-1,4.09-10,4.12,10Z"/><path class="cls-3" d="M1585.78,756.56l14.08-12.82L1581.21,742l-7.39-17.87L1566.47,742l-18.64,1.78,14.1,12.78-4.13,19,16.07-10,16.09,9.94Zm-11.92,3.25-8.95,5.56,2.31-10.57-7.86-7.12,10.38-1,4.1-10,4.11,9.95,10.39,1-7.84,7.14,2.33,10.55Z"/><polygon class="cls-3" points="1573.43 795.96 1569.75 804.9 1560.43 805.79 1567.48 812.18 1565.42 821.67 1573.45 816.67 1581.5 821.65 1579.41 812.17 1586.45 805.76 1577.12 804.89 1573.43 795.96"/><polygon class="cls-3" points="1573.31 697.75 1581.36 702.72 1579.27 693.25 1586.31 686.83 1576.98 685.97 1573.29 677.03 1569.62 685.98 1560.29 686.87 1567.35 693.26 1565.28 702.74 1573.31 697.75"/><path class="cls-3" d="M1573.56,290.05l16.09,9.94-4.18-19,14.08-12.82-18.65-1.73-7.39-17.87-7.35,17.89-18.65,1.78,14.11,12.78-4.13,19ZM1559,272.15l10.39-1,4.09-10,4.12,9.95,10.38,1-7.84,7.14,2.33,10.56-9-5.54-9,5.56,2.3-10.56Z"/><polygon class="cls-3" points="1573.14 341.15 1581.18 346.12 1579.1 336.64 1586.13 330.23 1576.81 329.36 1573.11 320.43 1569.44 329.37 1560.12 330.26 1567.17 336.65 1565.1 346.14 1573.14 341.15"/><path class="cls-3" d="M1573.56,167.16l16.09,9.94-4.18-18.95,14.08-12.83-18.65-1.73-7.39-17.87-7.35,17.89-18.65,1.78,14.11,12.79-4.13,19ZM1559,149.27l10.39-1,4.09-10,4.12,9.95,10.38,1-7.84,7.14,2.33,10.56-9-5.54-9,5.56,2.3-10.56Z"/><polygon class="cls-3" points="1573.14 218.26 1581.18 223.23 1579.1 213.75 1586.13 207.34 1576.81 206.47 1573.11 197.54 1569.44 206.48 1560.12 207.37 1567.17 213.77 1565.1 223.25 1573.14 218.26"/><path class="cls-3" d="M1573.56,44.27l16.09,9.95-4.18-19,14.08-12.82L1580.9,20.7l-7.39-17.87-7.35,17.89-18.65,1.78,14.11,12.79-4.13,19ZM1559,26.38l10.39-1,4.09-10,4.12,10,10.38,1-7.84,7.14L1582.51,44l-9-5.54-9,5.56,2.3-10.56Z"/><polygon class="cls-3" points="1573.14 95.37 1581.18 100.34 1579.1 90.86 1586.13 84.45 1576.81 83.59 1573.11 74.65 1569.44 83.6 1560.12 84.48 1567.17 90.88 1565.1 100.36 1573.14 95.37"/></g></g></svg>