<svg id="ec4a78dc-78b1-4305-b2e8-a281762af831" data-name="Layer 1" xmlns="http://www.w3.org/2000/svg" width="245" height="277" viewBox="0 0 245 277">
  <defs>
    <style>
      .f5468d99-3717-41b1-b9c4-119b39a20737 {
        fill: #ff0;
      }
    </style>
  </defs>
  <g>
    <path class="f5468d99-3717-41b1-b9c4-119b39a20737" d="M122.5,74.35c-31.62,0-57.26,28.72-57.26,64.15s25.64,64.15,57.26,64.15,57.26-28.72,57.26-64.15S154.13,74.35,122.5,74.35Zm0,120.3c-27.16,0-49.26-25.19-49.26-56.15s22.1-56.15,49.26-56.15,49.26,25.19,49.26,56.15S149.66,194.65,122.5,194.65Z"/>
    <path class="f5468d99-3717-41b1-b9c4-119b39a20737" d="M122.5,5.66C56.65,5.66,3.07,65.25,3.07,138.5S56.65,271.34,122.5,271.34,241.93,211.75,241.93,138.5,188.35,5.66,122.5,5.66Zm0,257.68C61,263.34,11.07,207.45,11.07,138.5S61,13.66,122.5,13.66,233.93,69.55,233.93,138.5,184,263.34,122.5,263.34Z"/>
  </g>
</svg>
