<svg id="Layer_1" data-name="Layer 1" xmlns="http://www.w3.org/2000/svg" xmlns:xlink="http://www.w3.org/1999/xlink" viewBox="0 0 100 100"><defs><style>.cls-1{fill:#6b6b6b;}.cls-2{fill:url(#linear-gradient);}.cls-3{fill:#fff289;}.cls-4{fill:url(#linear-gradient-2);}.cls-5{opacity:0.2;}.cls-6,.cls-7{fill:#fff;}.cls-7{opacity:0.3;}</style><linearGradient id="linear-gradient" x1="47.41" y1="10" x2="47.41" y2="87.07" gradientUnits="userSpaceOnUse"><stop offset="0" stop-color="#f8f096"/><stop offset="0.23" stop-color="#eac200"/><stop offset="0.61" stop-color="#dc8e06"/><stop offset="1" stop-color="#ad6318"/></linearGradient><linearGradient id="linear-gradient-2" x1="47.41" y1="14.97" x2="47.41" y2="82.61" gradientUnits="userSpaceOnUse"><stop offset="0" stop-color="#f8f096"/><stop offset="0.32" stop-color="#ffdf00"/><stop offset="0.7" stop-color="#f5a200"/><stop offset="1" stop-color="#d7ab00"/></linearGradient></defs><path class="cls-1" d="M67.84,32.21c-17-43.38-30.09,0-30.09,0s-44.44.18-11.37,29.92c0,0-12.24,45.32,27.11,19.07,39,28,24.85-19.77,24.85-19.77S113,33.26,67.84,32.21Z"/><path class="cls-2" d="M32.57,29.28s13.12-43.39,30.09,0c45.14,1,10.5,29.22,10.5,29.22s14.17,47.77-24.85,19.77C9,104.52,21.2,59.2,21.2,59.2-11.87,29.46,32.57,29.28,32.57,29.28Z"/><path class="cls-3" d="M33.37,30.33s12.41-41,28.46,0c42.7,1,9.93,27.63,9.93,27.63s13.41,45.18-23.5,18.7c-37.22,24.82-25.64-18-25.64-18C-8.66,30.49,33.37,30.33,33.37,30.33Z"/><path class="cls-4" d="M33.7,31.89s12.12-38.07,27.79,0c41.68.93,9.7,25.65,9.7,25.65S84.27,99.45,48.24,74.89c-36.33,23-25-16.74-25-16.74C-7.33,32.05,33.7,31.89,33.7,31.89Z"/><g class="cls-5"><path class="cls-3" d="M51.49,16.42c-8.61-6-15,8.15-17.08,13.51C40.45,25,46.47,20.23,51.49,16.42Z"/><path class="cls-3" d="M73,33.06a61.62,61.62,0,0,0-11.49-1.17c-.53-1.29-1.06-2.49-1.58-3.61C53.08,31.92,46,36.19,42.4,39.93c-4.46,4.59-12.86,13.26-19.71,20.35-.8,3.65-2.05,11.2-.13,16.38C30,73,42,66.79,47.41,62.31,55.55,55.54,67.64,41.49,73,33.06Z"/><path class="cls-3" d="M80.57,36.27c-1.35,1.58-2.5,3-3.21,3.92-3,4.05-10,19-14.92,27.06A53.35,53.35,0,0,1,53.09,78c30,17.56,18.1-20.43,18.1-20.43S89.21,43.61,80.57,36.27Z"/><path class="cls-3" d="M31.93,32c-6.13.32-25.69,2.39-18.42,15.41C18.61,43,25.2,37.47,31.93,32Z"/></g><path class="cls-6" d="M16.94,33.58a37.46,37.46,0,0,1,16.43-3.25C37.13,17.8,42.61,14,42.61,14s-5.26,4.3-9,17.21A60.08,60.08,0,0,0,16.94,33.58Z"/><path class="cls-7" d="M48.14,74.89S32,86.05,25.12,80.51c7.83,3,23-7.1,23-7.1Z"/><path class="cls-6" d="M57.17,22.54c1,2.54.34,5.17-1.45,5.86s-4-.81-5-3.36-.34-5.17,1.45-5.86S56.18,20,57.17,22.54Z"/><path class="cls-6" d="M60.66,31.36a1.93,1.93,0,1,1-1.93-1.93A1.94,1.94,0,0,1,60.66,31.36Z"/></svg>