<svg id="ea57adf6-e146-4553-9785-2f62f6fa5335" data-name="Layer 1" xmlns="http://www.w3.org/2000/svg" width="235" height="456" viewBox="0 0 235 456">
  <defs>
    <style>
      .b956b64e-3b93-470e-bdf7-bd12ea887e6b {
        fill: #ff0;
      }

      .b67b17ef-e236-42b8-af36-171f4ad2b77b {
        fill: none;
        stroke: #fff;
        stroke-miterlimit: 10;
        stroke-width: 3px;
        stroke-dasharray: 12 12;
      }

      .b86ffb5a-385d-400f-9958-60c1b3b611a7 {
        fill: #fff;
      }
    </style>
  </defs>
  <path class="b956b64e-3b93-470e-bdf7-bd12ea887e6b" d="M230.28,407a36.82,36.82,0,0,0-17.49-22.37l-104.41-59,81.93-55.85a37.1,37.1,0,1,0-41.79-61.32l-71,48.36V38.87a37.11,37.11,0,1,0-74.21,0V417.13a37.11,37.11,0,1,0,74.21,0V393.42l98.7,55.81A37.24,37.24,0,0,0,194.5,454h0a37.11,37.11,0,0,0,35.78-47Zm-10.42,24.25a29.09,29.09,0,0,1-39.66,11L69.56,379.71v37.42a29.11,29.11,0,1,1-58.21,0V38.87a29.11,29.11,0,1,1,58.21,0V271.92L153,215a29.11,29.11,0,0,1,32.79,48.1l-92.57,63.1,115.61,65.36A29.11,29.11,0,0,1,219.86,431.25Z"/>
  <g>
    <line class="b67b17ef-e236-42b8-af36-171f4ad2b77b" x1="39.98" y1="29.64" x2="39.98" y2="404.83"/>
    <polygon class="b86ffb5a-385d-400f-9958-60c1b3b611a7" points="25.02 400.46 39.98 426.36 54.94 400.46 25.02 400.46"/>
  </g>
  <g>
    <line class="b67b17ef-e236-42b8-af36-171f4ad2b77b" x1="39.98" y1="29.64" x2="39.98" y2="404.83"/>
    <polygon class="b86ffb5a-385d-400f-9958-60c1b3b611a7" points="25.02 400.46 39.98 426.36 54.94 400.46 25.02 400.46"/>
  </g>
</svg>
