<svg id="af186c1d-e629-480f-ac14-e427a48c27b7" data-name="Layer 1" xmlns="http://www.w3.org/2000/svg" width="235" height="456" viewBox="0 0 235 456">
  <defs>
    <style>
      .a5cb8add-c0ff-4796-9a00-6fd549e51e90 {
        fill: #ef4bbc;
      }
    </style>
  </defs>
  <path class="a5cb8add-c0ff-4796-9a00-6fd549e51e90" d="M193.48,223A29.11,29.11,0,0,0,153,215.31L69.57,272.19v-233a29.11,29.11,0,0,0-58.21,0V417.41a29.11,29.11,0,1,0,58.21,0V380l.7.39a19.87,19.87,0,0,1-.44-4.14V348.88c0-12,9.8-20.88,21.4-21.4h.62c.49-.32,1-.63,1.51-.91l-.11-.06,92.57-63.09A29.12,29.12,0,0,0,193.48,223Z"/>
</svg>
