<svg id="bf1e5431-d305-48a0-b595-8b5f30390d7a" data-name="Layer 1" xmlns="http://www.w3.org/2000/svg" width="235" height="456" viewBox="0 0 235 456">
  <defs>
    <style>
      .b5905fcc-d904-4723-8938-7122996997d5 {
        fill: #fff;
      }
    </style>
  </defs>
  <path class="b5905fcc-d904-4723-8938-7122996997d5" d="M230.28,407a36.82,36.82,0,0,0-17.49-22.37l-104.41-59,81.93-55.85a37.1,37.1,0,1,0-41.79-61.32l-71,48.36V38.87a37.11,37.11,0,1,0-74.21,0V417.13a37.11,37.11,0,1,0,74.21,0V393.42l98.7,55.81A37.24,37.24,0,0,0,194.5,454h0a37.11,37.11,0,0,0,35.78-47Zm-10.42,24.25a29.09,29.09,0,0,1-39.66,11L69.56,379.71v37.42a29.11,29.11,0,1,1-58.21,0V38.87a29.11,29.11,0,1,1,58.21,0V271.92L153,215a29.11,29.11,0,0,1,32.79,48.1l-92.57,63.1,115.61,65.36A29.11,29.11,0,0,1,219.86,431.25Z"/>
</svg>
