<svg id="afc13c3b-bc40-43c3-893e-6f06704480bc" data-name="Layer 1" xmlns="http://www.w3.org/2000/svg" width="235" height="456" viewBox="0 0 235 456">
  <defs>
    <style>
      .b3638681-b6af-4041-ad30-6d88414e4233 {
        fill: #3b3be0;
      }
    </style>
  </defs>
  <path class="b3638681-b6af-4041-ad30-6d88414e4233" d="M193.48,223A29.11,29.11,0,0,0,153,215.31L69.57,272.19v-233a29.11,29.11,0,0,0-58.21,0V417.41a29.11,29.11,0,1,0,58.21,0V380l.7.39a19.87,19.87,0,0,1-.44-4.14V348.88c0-12,9.8-20.88,21.4-21.4h.62c.49-.32,1-.63,1.51-.91l-.11-.06,92.57-63.09A29.12,29.12,0,0,0,193.48,223Z"/>
</svg>
