<svg xmlns="http://www.w3.org/2000/svg" xmlns:xlink="http://www.w3.org/1999/xlink" viewBox="0 0 1600 380"><defs><style>.cls-1{isolation:isolate;}.cls-2,.cls-3,.cls-4,.cls-5,.cls-6{stroke:#083a32;stroke-width:0.59px;}.cls-10,.cls-2,.cls-3,.cls-4,.cls-5,.cls-6,.cls-7,.cls-8,.cls-9{stroke-miterlimit:10;}.cls-2{fill:url(#linear-gradient);}.cls-3{fill:url(#linear-gradient-2);}.cls-4{fill:url(#linear-gradient-3);}.cls-5{fill:url(#linear-gradient-4);}.cls-6{fill:url(#linear-gradient-5);}.cls-7,.cls-8{fill:none;stroke:#1c421e;}.cls-7{stroke-width:0.72px;}.cls-8{stroke-width:0.36px;}.cls-10,.cls-9{stroke:#7c1318;stroke-width:0.3px;}.cls-9{fill:url(#linear-gradient-6);}.cls-10{fill:url(#linear-gradient-7);}.cls-11,.cls-15,.cls-51,.cls-52,.cls-53{fill:#fff;}.cls-12,.cls-13,.cls-14{fill:#95afae;}.cls-12,.cls-14,.cls-15,.cls-25,.cls-32,.cls-35,.cls-50{opacity:0.5;}.cls-13,.cls-54{opacity:0.7;}.cls-14,.cls-17,.cls-22,.cls-23,.cls-24,.cls-25,.cls-27,.cls-28,.cls-30,.cls-38,.cls-40,.cls-41,.cls-44{mix-blend-mode:multiply;}.cls-15,.cls-45,.cls-46,.cls-47,.cls-48,.cls-51,.cls-53,.cls-54{mix-blend-mode:screen;}.cls-16,.cls-17{fill:#eac21d;}.cls-18,.cls-25,.cls-32{fill:#cd7f29;}.cls-18,.cls-37,.cls-38,.cls-52{opacity:0.8;}.cls-19,.cls-24{fill:#4f2e37;}.cls-20{fill:#e49f24;}.cls-21,.cls-35,.cls-37,.cls-38{fill:#f6b618;}.cls-22{fill:#3e3e3d;}.cls-26{fill:#3d2911;}.cls-27{fill:#81472f;}.cls-28{fill:#8f8f8f;}.cls-29,.cls-30{fill:#bf8e5d;}.cls-30{opacity:0.4;}.cls-31{fill:#e6ab23;}.cls-33{fill:#a0633b;}.cls-34,.cls-41{fill:#1d1c1a;}.cls-36{fill:#e7b820;}.cls-39{fill:#3b3c3b;}.cls-40{fill:#d49b29;}.cls-42,.cls-44{fill:#6d301a;}.cls-43{fill:#48210f;}.cls-45{fill:url(#linear-gradient-8);}.cls-46{fill:url(#linear-gradient-9);}.cls-47{fill:url(#linear-gradient-10);}.cls-48{fill:url(#linear-gradient-11);}.cls-49{fill:#4f4f4f;}.cls-52{mix-blend-mode:overlay;}.cls-53{opacity:0.9;}.cls-54{fill:#fffad9;}</style><linearGradient id="linear-gradient" x1="1334.45" y1="111.07" x2="1540.98" y2="405.65" gradientUnits="userSpaceOnUse"><stop offset="0.23" stop-color="#00aa96"/><stop offset="0.96" stop-color="#100808"/></linearGradient><linearGradient id="linear-gradient-2" x1="714.36" y1="74.47" x2="674.56" y2="643.2" gradientUnits="userSpaceOnUse"><stop offset="0.23" stop-color="#00aa96"/><stop offset="0.74" stop-color="#100808"/></linearGradient><linearGradient id="linear-gradient-3" x1="276.82" y1="95.42" x2="270.84" y2="524.78" xlink:href="#linear-gradient"/><linearGradient id="linear-gradient-4" x1="1294.48" y1="196.27" x2="1406.46" y2="294.45" xlink:href="#linear-gradient"/><linearGradient id="linear-gradient-5" x1="1048.3" y1="176.06" x2="1108.63" y2="505.72" gradientUnits="userSpaceOnUse"><stop offset="0.23" stop-color="#00aa96"/><stop offset="0.65" stop-color="#100808"/></linearGradient><linearGradient id="linear-gradient-6" x1="1499.73" y1="47.99" x2="1603.5" y2="138.97" gradientUnits="userSpaceOnUse"><stop offset="0.35" stop-color="#ffca2c"/><stop offset="0.8" stop-color="#d44a27"/></linearGradient><linearGradient id="linear-gradient-7" x1="1492.28" y1="87.91" x2="1572.63" y2="3.38" xlink:href="#linear-gradient-6"/><linearGradient id="linear-gradient-8" x1="890.48" y1="237.25" x2="893.85" y2="238.02" gradientUnits="userSpaceOnUse"><stop offset="0" stop-color="#fff"/><stop offset="1"/></linearGradient><linearGradient id="linear-gradient-9" x1="889.69" y1="240.7" x2="893.06" y2="241.47" xlink:href="#linear-gradient-8"/><linearGradient id="linear-gradient-10" x1="898.85" y1="235.73" x2="902.01" y2="237.91" xlink:href="#linear-gradient-8"/><linearGradient id="linear-gradient-11" x1="896.52" y1="239.1" x2="899.68" y2="241.28" xlink:href="#linear-gradient-8"/></defs><g class="cls-1"><g id="Layer_1" data-name="Layer 1"><g id="i"><g id="i-2" data-name="i"><path class="cls-2" d="M1603.32,79.82s-34.75-32.16-37.81,18.58c0,0,29.7,27.35,18.21,82.35,0,0,8.79-63.52-34.73-93.38S1414.31,138.91,1424.58,151s95.08,5,116.68,31.9-27.34-32.12-87.57-11.25-64.2,120.07-40,121.11,110.51-92,159-67.93c0,0-56.85-8.58-59.57,54.7s54.77-36.89,69.15-31.76c0,0-36.51,38.68-50.48,54.56s-22.77-8.07-27.06-23.68-66.8,11-44.6,48.45c0,0,7.15,12.13,22.25,13.14,0,0-19.48,9.21-34.55-22.07s-74.5-23-76.28,17c0,0,12.32-44.59-7-66.64s-23.5-19.26-23.5-19.26-67.91,21-47.35,68.16,39.43,35.84,39.43,35.84-1.44,14.8-39.43-20.59-74.72-19.38-87.06-3.44,73.18,21.2,76.14,11,9.47,16.75-66.34,10.55l-.11,6.52,387,.48Z"/><path class="cls-3" d="M974.46,357.77s-.36-12.5-25.39-24.52c-18.76-9-51.37-17.73-108.08-20.71,0,0-162.42-7.87-143.17,40.06,0,0-119.16-152.23-279.35-50,0,0,165.46,5.1,199.26,53.68Z"/><path class="cls-4" d="M515.24,352.45s-72.43-43.8-111.84-5.78L265,348.25S212.48,280.74,132.44,273-7.67,296.68-3.07,346.15,712.82,359.59,515.24,352.45Z"/><path class="cls-5" d="M1402.42,253s-20.1-68.7-106.9-14.19c0,0,65.92-21.53,91,19.71,0,0,9.33,36.75-6,61l23.28-24.2Z"/><path class="cls-6" d="M1216.4,350.77s-206.33-46.19-280.94-23,39,30,39,30h275.75Z"/><path class="cls-7" d="M1424.58,151s103.83-60,143,28"/><path class="cls-7" d="M1413.69,292.74s12.75-98.23,126-91.38"/><path class="cls-7" d="M1518.14,298.18S1538.7,246,1572,235.66"/><path class="cls-7" d="M1500.2,274.57s-33.07,38.87,10.07,59.54"/><path class="cls-7" d="M1343.23,249.52s-22.17,43.49.37,95"/><path class="cls-8" d="M1204.89,332.24s44.34-10.1,68.58-3S1298,349.39,1298,349.39"/><path class="cls-9" d="M1533.2,69.15s16.07,15.37,22.31,23.91,9,4.74,9,4.74,23.2,44.92,14.17,66.47l6.48-6.31s4.06-18.52-16.2-61.47c0,0,1.47-5.92.67-9.13S1557.85,66.15,1557,61.94s1.31-9.74,1.31-9.74l-27.32.7Z"/><path class="cls-10" d="M1534,28.42s10.76-32.21,25.56-15.33c0,0,5.9,10.88-5.54,24.36,0,0,14.28,10.31-1,23.19s-19.82-3.94-19.82-3.94,6,19.55-8.4,26.29c0,0-15.69,4.27-10.4-14.48,0,0-18.19,17.66-16.62,5.3s1.52-22.82,15.21-27c0,0-4.89-10.21,3.13-21,0,0,6.93-5.47,10.91-.16S1534,28.42,1534,28.42Z"/><ellipse class="cls-11" cx="1530.94" cy="47.03" rx="18.3" ry="4.8" transform="translate(402.44 1082.64) rotate(-44.3)"/><path class="cls-12" d="M910.31,240.1s.45-9.91-3.19-16.39-8.25-9.6-11-6.61-1.64,7.22.65,10,10.6,11.29,12,13.28l.13.26Z"/><path class="cls-12" d="M896.75,227.13c2.3,2.8,10.6,11.29,12,13.28l.13.26,1.43-.57s.45-9.91-3.19-16.39-8.25-9.6-11-6.61S894.46,224.32,896.75,227.13Zm2-4.47c0-1.74,1.13-4,3.21-3.68a6,6,0,0,1,3.32,2.48,18.38,18.38,0,0,1,2,3.72A37.42,37.42,0,0,1,909,230a20.38,20.38,0,0,1,.85,4.9c0,.89.22,2.37-.47,3.08s-1.82-.55-2.23-1a38.28,38.28,0,0,1-3.33-3.75,31.4,31.4,0,0,1-4-6.52A10.64,10.64,0,0,1,898.79,222.66Z"/><path class="cls-13" d="M896.1,217.1A3.26,3.26,0,0,1,899,216c-2.7.81-3.72,3.63-3.18,6.23a13.22,13.22,0,0,0,1.46,4,23,23,0,0,0,3,3.86c1.27,1.37,2.49,2.79,3.73,4.18.61.69,1.29,1.34,1.84,2.08.4.53.77,1.11,1.21,1.61.6.66,1.67,1.47,2.53.7a2.8,2.8,0,0,0,.73-1.17c.06,1.6,0,2.62,0,2.62l-1.43.57-.13-.26c-1.4-2-9.7-10.48-12-13.28S893.32,220.09,896.1,217.1Z"/><path class="cls-14" d="M898.17,219.32a19.75,19.75,0,0,1,1.53,3.5c.18.53.31,1.08.47,1.62s.2.92.31,1.37l-.12-.15a24,24,0,0,0-1.79-2c-.34-.34-.7-.64-1.06-.94v0s0-.05-.06,0c-.29-.24-.58-.48-.86-.73,0,0,0,0,0,0,.28.28.57.54.86.8,0,.68.12,1.35.22,2a9.52,9.52,0,0,0,.17,1.32s0,.07,0,.1c-.48-.5-.94-1-1.42-1.52,0,0,0,0,0,.05a25.75,25.75,0,0,0,3.86,3.88c.44.33.9.64,1.37.93a8.67,8.67,0,0,0-1,.22,11.43,11.43,0,0,0-1.17.2s0,.05,0,.05a5.76,5.76,0,0,0,1.31-.12,5,5,0,0,0,.91-.33l.6.36c.53.3,1.18.48,1.71.82.88,1.27,1.77,2.55,2.56,3.88a12.26,12.26,0,0,1-4.64-2.09s0,0,0,0a9.38,9.38,0,0,0,2.59,1.52,6.17,6.17,0,0,0,2.09.59l0,0c.53.91,1,1.83,1.54,2.76a12.84,12.84,0,0,1-3.44-1.75s0,0,0,.05a7.81,7.81,0,0,0,1.93,1.28c.3.15,1.17.67,1.59.54.34.63.67,1.27,1,1.9,0,.05.07,0,0,0a46.17,46.17,0,0,0-4.38-7.78,9.61,9.61,0,0,0,.16-1c0-.24,0-.5.05-.74.43.8.84,1.61,1.24,2.43v0a0,0,0,0,0,0,0c.32.67.65,1.34,1,2,.72,1.49,1.31,3,2,4.55,0,0,.06,0,.05,0a28.78,28.78,0,0,0-1.36-3.43,5.22,5.22,0,0,0,.23-1.29,7.1,7.1,0,0,0,.12-1.13c.1.34.19.67.28,1,.25,1,.46,1.9.62,2.87.07.44.14.89.19,1.33a1.86,1.86,0,0,0,.14.66h0a6.65,6.65,0,0,1-.12-1.35q-.08-.66-.18-1.32c-.18-1-.39-1.93-.65-2.88s-.48-1.63-.75-2.44l0,0a5,5,0,0,0,.13-1.92c0-.71-.15-1.41-.2-2.12h0c0,.62.08,1.26.09,1.88s-.07,1.33-.09,2c-.29-.83-.59-1.65-.93-2.47s-.73-1.67-1.13-2.49c0-.25.07-.56.08-.76a5.76,5.76,0,0,0,0-1.1,22.45,22.45,0,0,0-.42-2.71s0,0,0,0a22.2,22.2,0,0,1,.33,3.06,10.1,10.1,0,0,1,0,1.23s0,.09,0,.13a44.51,44.51,0,0,0-3-5.28v0c.13-.58.26-1.16.36-1.74,0,0,0,0,0,0a11.16,11.16,0,0,1-.32,1.13,1.33,1.33,0,0,0-.13.52c-.38-.56-.77-1.12-1.18-1.67,0,0-.06,0,0,.05q1.47,2.13,2.74,4.37a4.55,4.55,0,0,0-.43,1.4,18.68,18.68,0,0,0-.43,1.94c-.54-.9-1.1-1.79-1.68-2.66a7.43,7.43,0,0,0,0-2.66c-.16-1.13-.42-2.22-.63-3.34,0,0,0,0,0,0,.13,1.05.35,2.11.5,3.16a25.86,25.86,0,0,1,.13,2.78c-.7-1.06-1.44-2.08-2.23-3.08a0,0,0,0,0,0,0,61.14,61.14,0,0,1,4.47,6.9c-.32,0-.63.08-1,.08a4.32,4.32,0,0,1-.95-.1l-1.31-1.65c0-.22,0-.45-.07-.67s-.18-.68-.25-1a15.54,15.54,0,0,0-.47-1.65,15.92,15.92,0,0,0-1.54-3.26S898.16,219.29,898.17,219.32Zm8.23,12.92a17,17,0,0,0,.14-2.57c0-.5.06-1,.05-1.49l.21.51a45,45,0,0,1,1.52,4.36c0,.46-.14.92-.2,1.37a6.89,6.89,0,0,1-.18,1c-.19-.4-.37-.8-.56-1.19C907.05,233.57,906.73,232.9,906.4,232.24Zm-1.27-2.49h0v0h0c-.58-1.06-1.17-2.12-1.8-3.16.14-.6.27-1.21.41-1.8a11.74,11.74,0,0,1,.4-1.63,46.32,46.32,0,0,1,2.43,5c0,.12,0,.24,0,.36a12.09,12.09,0,0,0-.11,1.21c0,.8-.09,1.61-.1,2.41C905.94,231.29,905.54,230.52,905.13,229.75Zm-1.54.11c-.53-.74-1.07-1.46-1.63-2.18a2.77,2.77,0,0,1,.3,0c.14,0,.29,0,.43,0a4.27,4.27,0,0,0,1.08-.16c.39.68.77,1.37,1.14,2.06.05.09.09.18.14.26-.07.28-.09.6-.14.87s-.12.51-.14.76C904.38,231,904,230.42,903.59,229.86Zm-3.05-3.74c1.06,1.32,2.1,2.67,3.06,4.06l.26.39a10.42,10.42,0,0,0-1.2-.61,14,14,0,0,1-2.15-1.34,21.25,21.25,0,0,1-2.63-2.38,5.7,5.7,0,0,1,0-.7c0-.37-.08-.75-.13-1.12-.07-.53-.11-1.06-.19-1.58.39.35.78.71,1.15,1.1C899.34,224.63,899.94,225.37,900.54,226.12Z"/><path class="cls-15" d="M909.57,236.6s0-9.32-5.32-15.74c0,0-1.92-2.5-3.7-.89,0,0,1.7-1.18,4.26,2.44C907.14,225.71,908.9,231.49,909.57,236.6Z"/><path class="cls-16" d="M908,267.11a2.07,2.07,0,0,1-1.2-1.1,4.27,4.27,0,0,1-.19-.86c-.07-.34-.14-.68-.24-1a.07.07,0,0,1,.07-.08l.1,0a3.18,3.18,0,0,0-.13-.51c0-.12-.21-.35-.21-.46s.06,0,0-.14a.43.43,0,0,0-.06-.22,3,3,0,0,0-.15-.31c-.06-.12-.17-.34-.07-.47s.21-.11.2-.23a.15.15,0,0,0,0-.07,1.61,1.61,0,0,0-.63-.86s0,0,0-.07c.52-.56,0-1.27-.18-1.88s-.32-1.12-.5-1.67l0,0a1.93,1.93,0,0,1-.15-.35c.06-.06.19-.18.19-.28a.42.42,0,0,0,0-.25,2.16,2.16,0,0,1-.55-.81,9.8,9.8,0,0,1-.38-1.85c0-.3-.07-.61-.11-.93.14-.08.22-.19.17-.33a3.64,3.64,0,0,1-.32-1.64c0-.69.09-1.38.19-2.06.16-1.09.72-2.43.38-3.53-.16-.53-.65-1.56-1.32-1.06s-.63,1.73-.49,2.46c0,.05.06.05.1,0a13.82,13.82,0,0,1,0,1.93c-.07.58-.16,1.16-.21,1.74a3.43,3.43,0,0,1-.58,1.94c-.31.41.08.64.63.72.18,1,.33,2,.57,2.93a3.61,3.61,0,0,1,.15.86c0,.2-.1.44,0,.63a4.9,4.9,0,0,1,.52,1,8.63,8.63,0,0,1,.19,1,4.54,4.54,0,0,1,.07.82c0,.16-.05.51.06.62s.52,0,.52.28a.46.46,0,0,0,.07.27c.1.22,0,.47.09.68a.36.36,0,0,0,.28.17c0,.23,0,.47,0,.69s.13.26.29.34v.19a5.77,5.77,0,0,0,0,.72c0,.16.22.21.45.2a8.08,8.08,0,0,0,.32,2.4,2.13,2.13,0,0,0,.5.62,2.65,2.65,0,0,0,1.64.79c.54-.05.85-.5,1.05-1A1.51,1.51,0,0,1,908,267.11Z"/><path class="cls-17" d="M908,267.11a2.07,2.07,0,0,1-1.2-1.1,4.27,4.27,0,0,1-.19-.86c-.07-.34-.14-.68-.24-1a.07.07,0,0,1,.07-.08l.1,0a3.18,3.18,0,0,0-.13-.51c0-.12-.21-.35-.21-.46s.06,0,0-.14a.43.43,0,0,0-.06-.22,3,3,0,0,0-.15-.31c-.06-.12-.17-.34-.07-.47s.21-.11.2-.23a.15.15,0,0,0,0-.07,1.61,1.61,0,0,0-.63-.86s0,0,0-.07c.52-.56,0-1.27-.18-1.88s-.32-1.12-.5-1.67l0,0a1.93,1.93,0,0,1-.15-.35c.06-.06.19-.18.19-.28a.42.42,0,0,0,0-.25,2.16,2.16,0,0,1-.55-.81,9.8,9.8,0,0,1-.38-1.85c0-.3-.07-.61-.11-.93.14-.08.22-.19.17-.33a3.64,3.64,0,0,1-.32-1.64c0-.69.09-1.38.19-2.06.16-1.09.72-2.43.38-3.53-.16-.53-.65-1.56-1.32-1.06s-.63,1.73-.49,2.46c0,.05.06.05.1,0a13.82,13.82,0,0,1,0,1.93c-.07.58-.16,1.16-.21,1.74a3.43,3.43,0,0,1-.58,1.94c-.31.41.08.64.63.72.18,1,.33,2,.57,2.93a3.61,3.61,0,0,1,.15.86c0,.2-.1.44,0,.63a4.9,4.9,0,0,1,.52,1,8.63,8.63,0,0,1,.19,1,4.54,4.54,0,0,1,.07.82c0,.16-.05.51.06.62s.52,0,.52.28a.46.46,0,0,0,.07.27c.1.22,0,.47.09.68a.36.36,0,0,0,.28.17c0,.23,0,.47,0,.69s.13.26.29.34v.19a5.77,5.77,0,0,0,0,.72c0,.16.22.21.45.2a8.08,8.08,0,0,0,.32,2.4,2.13,2.13,0,0,0,.5.62,2.65,2.65,0,0,0,1.64.79c.54-.05.85-.5,1.05-1A1.51,1.51,0,0,1,908,267.11Z"/><path class="cls-17" d="M905.62,264.61c.11-.11.24-.17.36,0,.38.47.2,1.19.49,1.72a2.61,2.61,0,0,0,1.53,1.17,1.06,1.06,0,0,0,.89,0,2.26,2.26,0,0,0,.22-.47,1.51,1.51,0,0,1-1.08.1,2.07,2.07,0,0,1-1.2-1.1,4.27,4.27,0,0,1-.19-.86c-.07-.34-.14-.68-.24-1a.07.07,0,0,1,.07-.08l.1,0a3.18,3.18,0,0,0-.13-.51c0-.12-.21-.35-.21-.46s.06,0,0-.14a.43.43,0,0,0-.06-.22,3,3,0,0,0-.15-.31c-.06-.12-.17-.34-.07-.47s.21-.11.2-.23a.15.15,0,0,0,0-.07,1.61,1.61,0,0,0-.63-.86s0,0,0-.07c.52-.56,0-1.27-.18-1.88s-.32-1.12-.5-1.67l0,0a1.93,1.93,0,0,1-.15-.35c.06-.06.19-.18.19-.28a.42.42,0,0,0,0-.25,2.16,2.16,0,0,1-.55-.81,9.8,9.8,0,0,1-.38-1.85c0-.3-.07-.61-.11-.93.14-.08.22-.19.17-.33a3.64,3.64,0,0,1-.32-1.64c0-.69.09-1.38.19-2.06.16-1.09.72-2.43.38-3.53-.16-.53-.65-1.56-1.32-1.06s-.63,1.73-.49,2.46c0,.05.06.05.1,0,0,.38,0,.76,0,1.14.19.19.46.3.6.54a1.44,1.44,0,0,1,0,1.1,10.21,10.21,0,0,0-.31,1.65,4.59,4.59,0,0,1-.28,1.42.1.1,0,0,1-.07,0c-.2,0-.58,0-.73-.12a.22.22,0,0,1-.06-.14c-.29.4.1.63.64.7.18,1,.33,2,.57,2.93a3.61,3.61,0,0,1,.15.86c0,.2-.1.44,0,.63a4.9,4.9,0,0,1,.52,1,8.63,8.63,0,0,1,.19,1,4.54,4.54,0,0,1,.07.82c0,.16-.05.51.06.62s.52,0,.52.28a.46.46,0,0,0,.07.27c.1.22,0,.47.09.68a.36.36,0,0,0,.28.17c0,.23,0,.47,0,.69s.13.26.29.34v.19a5.77,5.77,0,0,0,0,.72c0,.16.22.21.45.2C905.61,264.35,905.61,264.48,905.62,264.61Zm-1.68-7.56c-.2.3-.41.24-.58-.06a4.49,4.49,0,0,1-.35-1.78c-.06-.67-.32-1.31-.34-2,0,0,0,0,0,0s.08-.21.23-.14a1.86,1.86,0,0,1,.83,1.21c.12.49.18,1,.25,1.51A2,2,0,0,1,903.94,257.05Zm1.18,4.87a.39.39,0,0,1-.29-.18l0,0c-.11-.25-.18-.64.11-.8a.46.46,0,0,1,.63.26.54.54,0,0,1,0,.51l0,.05c.11.24.36.45.29.73s-.22.43-.44.42C905,262.86,905,262.33,905.12,261.92Zm.26,1.41s0-.05.07-.05l0,0s0-.07.09-.05a1,1,0,0,1,.56.62.08.08,0,0,1,0,.08c-.17.06-.48.18-.64,0S905.34,263.5,905.38,263.33Z"/><path class="cls-16" d="M914.69,264.84a1.93,1.93,0,0,1-1.2-.87,4,4,0,0,1-.26-.76,8,8,0,0,0-.33-.89s0-.07.06-.08l.09,0a4.13,4.13,0,0,0-.17-.45c-.06-.1-.23-.29-.24-.39s.05,0,0-.13a.68.68,0,0,0-.07-.2l-.18-.26c-.06-.1-.19-.29-.11-.42s.17-.12.15-.23a.13.13,0,0,0,0-.06,1.52,1.52,0,0,0-.66-.71s0,0,0-.06c.41-.56-.12-1.15-.36-1.68s-.41-1-.63-1.46l0,0a2,2,0,0,1-.17-.3c0-.06.16-.18.15-.27s0-.16-.06-.22a2,2,0,0,1-.58-.68,9.47,9.47,0,0,1-.55-1.63c0-.26-.12-.54-.19-.82.12-.1.18-.21.12-.32a3.49,3.49,0,0,1-.47-1.45c0-.63-.06-1.26,0-1.88,0-1,.39-2.27,0-3.23-.2-.46-.75-1.34-1.3-.82s-.39,1.63-.18,2.27c0,.05.06,0,.09,0a13,13,0,0,1,.17,1.75c0,.53,0,1.06,0,1.6a3.15,3.15,0,0,1-.32,1.81c-.24.41.14.57.64.58.27.87.51,1.74.83,2.59a2.88,2.88,0,0,1,.22.76c0,.18,0,.41.08.57a4.25,4.25,0,0,1,.58.87c.11.27.18.58.27.87a3.79,3.79,0,0,1,.15.73c0,.14,0,.47.12.56s.47-.07.5.19a.44.44,0,0,0,.09.24c.11.19,0,.43.16.61a.32.32,0,0,0,.26.12c0,.21,0,.42.08.63s.15.22.3.27,0,.11,0,.17a4.78,4.78,0,0,0,.07.65c0,.15.22.16.44.13a7.46,7.46,0,0,0,.53,2.14,2.1,2.1,0,0,0,.53.5,2.38,2.38,0,0,0,1.56.55,1.25,1.25,0,0,0,.84-1.05A1.45,1.45,0,0,1,914.69,264.84Z"/><path class="cls-17" d="M914.69,264.84a1.93,1.93,0,0,1-1.2-.87,4,4,0,0,1-.26-.76,8,8,0,0,0-.33-.89s0-.07.06-.08l.09,0a4.13,4.13,0,0,0-.17-.45c-.06-.1-.23-.29-.24-.39s.05,0,0-.13a.68.68,0,0,0-.07-.2l-.18-.26c-.06-.1-.19-.29-.11-.42s.17-.12.15-.23a.13.13,0,0,0,0-.06,1.52,1.52,0,0,0-.66-.71s0,0,0-.06c.41-.56-.12-1.15-.36-1.68s-.41-1-.63-1.46l0,0a2,2,0,0,1-.17-.3c0-.06.16-.18.15-.27s0-.16-.06-.22a2,2,0,0,1-.58-.68,9.47,9.47,0,0,1-.55-1.63c0-.26-.12-.54-.19-.82.12-.1.18-.21.12-.32a3.49,3.49,0,0,1-.47-1.45c0-.63-.06-1.26,0-1.88,0-1,.39-2.27,0-3.23-.2-.46-.75-1.34-1.3-.82s-.39,1.63-.18,2.27c0,.05.06,0,.09,0a13,13,0,0,1,.17,1.75c0,.53,0,1.06,0,1.6a3.15,3.15,0,0,1-.32,1.81c-.24.41.14.57.64.58.27.87.51,1.74.83,2.59a2.88,2.88,0,0,1,.22.76c0,.18,0,.41.08.57a4.25,4.25,0,0,1,.58.87c.11.27.18.58.27.87a3.79,3.79,0,0,1,.15.73c0,.14,0,.47.12.56s.47-.07.5.19a.44.44,0,0,0,.09.24c.11.19,0,.43.16.61a.32.32,0,0,0,.26.12c0,.21,0,.42.08.63s.15.22.3.27,0,.11,0,.17a4.78,4.78,0,0,0,.07.65c0,.15.22.16.44.13a7.46,7.46,0,0,0,.53,2.14,2.1,2.1,0,0,0,.53.5,2.38,2.38,0,0,0,1.56.55,1.25,1.25,0,0,0,.84-1.05A1.45,1.45,0,0,1,914.69,264.84Z"/><path class="cls-17" d="M912.25,262.84c.09-.12.19-.18.32-.06.4.38.31,1.05.63,1.5a2.36,2.36,0,0,0,1.51.89.93.93,0,0,0,.8-.09,3,3,0,0,0,.15-.45,1.45,1.45,0,0,1-1,.21,1.93,1.93,0,0,1-1.2-.87,4,4,0,0,1-.26-.76,8,8,0,0,0-.33-.89s0-.07.06-.08l.09,0a4.13,4.13,0,0,0-.17-.45c-.06-.1-.23-.29-.24-.39s.05,0,0-.13a.68.68,0,0,0-.07-.2l-.18-.26c-.06-.1-.19-.29-.11-.42s.17-.12.15-.23a.13.13,0,0,0,0-.06,1.52,1.52,0,0,0-.66-.71s0,0,0-.06c.41-.56-.12-1.15-.36-1.68s-.41-1-.63-1.46l0,0a2,2,0,0,1-.17-.3c0-.06.16-.18.15-.27s0-.16-.06-.22a2,2,0,0,1-.58-.68,9.47,9.47,0,0,1-.55-1.63c0-.26-.12-.54-.19-.82.12-.1.18-.21.12-.32a3.49,3.49,0,0,1-.47-1.45c0-.63-.06-1.26,0-1.88,0-1,.39-2.27,0-3.23-.2-.46-.75-1.34-1.3-.82s-.39,1.63-.18,2.27c0,.05.06,0,.09,0,.05.35.1.69.13,1,.19.15.45.21.6.42a1.3,1.3,0,0,1,.12,1,9.76,9.76,0,0,0-.11,1.53,3.8,3.8,0,0,1-.1,1.3.07.07,0,0,1-.06.05c-.18,0-.51.1-.67,0a.25.25,0,0,1-.07-.12c-.22.39.16.55.65.56.27.87.51,1.74.83,2.59a2.88,2.88,0,0,1,.22.76c0,.18,0,.41.08.57a4.25,4.25,0,0,1,.58.87c.11.27.18.58.27.87a3.79,3.79,0,0,1,.15.73c0,.14,0,.47.12.56s.47-.07.5.19a.44.44,0,0,0,.09.24c.11.19,0,.43.16.61a.32.32,0,0,0,.26.12c0,.21,0,.42.08.63s.15.22.3.27,0,.11,0,.17a4.78,4.78,0,0,0,.07.65c0,.15.22.16.44.13C912.21,262.61,912.23,262.72,912.25,262.84Zm-2.32-6.66c-.15.3-.35.27-.53,0a3.91,3.91,0,0,1-.5-1.57c-.13-.6-.44-1.15-.52-1.75,0,0,0,0,0,0s0-.21.19-.16a1.71,1.71,0,0,1,.88,1c.16.43.27.9.39,1.34A1.86,1.86,0,0,1,909.93,256.18Zm1.58,4.28a.37.37,0,0,1-.28-.14h0c-.12-.21-.22-.56,0-.74a.43.43,0,0,1,.59.17.52.52,0,0,1,.1.46l0,.05c.13.21.37.37.35.63s-.16.41-.36.42C911.48,261.32,911.47,260.83,911.51,260.46Zm.38,1.25a.09.09,0,0,1,.07-.06.08.08,0,0,1,0,0s0-.07.07-.05a.88.88,0,0,1,.58.5.12.12,0,0,1,0,.08c-.15.07-.42.21-.58.09S911.88,261.87,911.89,261.71Z"/><path class="cls-16" d="M902,262.91a2,2,0,0,1-.92-.89s0,0,0-.07a1.61,1.61,0,0,0,.33-.5,1,1,0,0,0,0-.24.11.11,0,0,0-.07-.1,2.58,2.58,0,0,1-1.44-1.17c-.22-.41-.44-.82-.67-1.22.12-.08.25-.17.28-.3s-.17-.3-.33-.4l-.24-.19a.36.36,0,0,0,.11-.39c-.06-.12-.24-.12-.35-.18l-.2-.12h0c.11-.31-.24-.56-.43-.75l-.11-.11c.17-.63-.86-1.49-1.12-1.91a15.26,15.26,0,0,1-1-1.93c-.06-.14-.12-.28-.19-.41h0c.27-.19.19-.49.11-.78a12.8,12.8,0,0,1-.44-1.75,13.6,13.6,0,0,1,.11-1.91c0-.54,0-1.08,0-1.62a8.62,8.62,0,0,0,0-2c-.06-.32-.38-2.36-1.08-2a.45.45,0,0,0-.21.22c0,.78,0,1.57,0,2.36,0,1-.12,1.93-.16,2.89s-.11,1.93-.15,2.9a2.8,2.8,0,0,0,0,1c.11.28.53.32.77.42,0,0,0,0,0,.05a1.72,1.72,0,0,0,0,.78c.12.26.25.52.36.78.2.49.39,1,.58,1.48l0,.09v0l.24.65c.13.33.23.67.34,1a.51.51,0,0,0,.26.36,1,1,0,0,0,.3,0l0,.29a1.74,1.74,0,0,0,.17.74.08.08,0,0,0,.07,0h.1l0,.2a.86.86,0,0,0,.06.65c.1.15.27.11.45,0a4.69,4.69,0,0,0,.12.72c.05.19.18.17.31.09.06.22.15.45.19.57a9.2,9.2,0,0,0,1.16,2,.88.88,0,0,0,.95.41l.11.21a3.48,3.48,0,0,0,.17.31,2.24,2.24,0,0,0,.5.11,1.34,1.34,0,0,0,1-.28Z"/><path class="cls-18" d="M902,262.91a2,2,0,0,1-.92-.89s0,0,0-.07a1.61,1.61,0,0,0,.33-.5,1,1,0,0,0,0-.24.11.11,0,0,0-.07-.1,2.58,2.58,0,0,1-1.44-1.17c-.22-.41-.44-.82-.67-1.22.12-.08.25-.17.28-.3s-.17-.3-.33-.4l-.24-.19a.36.36,0,0,0,.11-.39c-.06-.12-.24-.12-.35-.18l-.2-.12h0c.11-.31-.24-.56-.43-.75l-.11-.11c.17-.63-.86-1.49-1.12-1.91a15.26,15.26,0,0,1-1-1.93c-.06-.14-.12-.28-.19-.41h0c.27-.19.19-.49.11-.78a12.8,12.8,0,0,1-.44-1.75,13.6,13.6,0,0,1,.11-1.91c0-.54,0-1.08,0-1.62a8.62,8.62,0,0,0,0-2c-.06-.32-.38-2.36-1.08-2a.45.45,0,0,0-.21.22c0,.78,0,1.57,0,2.36,0,1-.12,1.93-.16,2.89,0,.22,0,.44,0,.66a5.67,5.67,0,0,0,.39.78,2.08,2.08,0,0,1,.4.8,4.4,4.4,0,0,1,.07.89c0,.32-.27.73-.64.45a.89.89,0,0,1-.34-.58,2.47,2.47,0,0,0,0,.9c.11.28.53.32.77.42,0,0,0,0,0,.05a1.72,1.72,0,0,0,0,.78c.12.26.25.52.36.78.2.49.39,1,.58,1.48l0,.09v0l.24.65c.13.33.23.67.34,1a.51.51,0,0,0,.26.36,1,1,0,0,0,.3,0l0,.29a1.74,1.74,0,0,0,.17.74.08.08,0,0,0,.07,0h.1l0,.2a.86.86,0,0,0,.06.65c.1.15.27.11.45,0a4.69,4.69,0,0,0,.12.72c.05.19.18.17.31.09.06.22.15.45.19.57a9.2,9.2,0,0,0,1.16,2,.88.88,0,0,0,.95.41l.11.21a3.48,3.48,0,0,0,.17.31,2.24,2.24,0,0,0,.5.11,1.34,1.34,0,0,0,1-.28Zm-6-7.78a13.44,13.44,0,0,0-.62-1.52,8.06,8.06,0,0,1-.39-.71,1.29,1.29,0,0,1-.17-.69s0-.07.08-.06c.37,0,.54.36.69.66.22.48.42,1,.64,1.47s.55,1,.83,1.45c.15.25.26.51.06.76C896.53,257.25,896.13,255.4,896,255.13Zm1.13,2.55s-.07,0-.08,0a2,2,0,0,1,0-.78s0-.05.07-.06.41,0,.54.13C897.92,257.3,897.37,257.51,897.16,257.68Zm.46.92c-.24.08-.3-.12-.29-.32a.35.35,0,0,1,.27-.46.41.41,0,0,1,.45.22.27.27,0,0,1,0,.26A.83.83,0,0,1,897.62,258.6Zm.47.83c-.28,0-.25-.44-.24-.61s.09-.09.1-.05a.39.39,0,0,1,.25-.12c.15,0,.36,0,.39.22a.4.4,0,0,1-.12.29A.74.74,0,0,1,898.09,259.43Zm.29.36a.05.05,0,0,1,0-.05.39.39,0,0,1,.15-.31c.19-.15.35.07.43.22a6.19,6.19,0,0,0,.68,1.09,15.1,15.1,0,0,1,1.05,1.34s0,.05,0,.07C899.62,263.23,898.44,260.6,898.38,259.79Zm3.16,3.2a.66.66,0,0,1-.89-.3s0-.09.07-.1c.17-.34.71.18.86.32S901.56,263,901.54,263Z"/><path class="cls-19" d="M925.53,252.52a29.13,29.13,0,0,0-1.38-4.76,21.74,21.74,0,0,0-2.11-4.27,18.29,18.29,0,0,0-3.35-3.83c-1.24-1.07-2.79-2-4.48-1.51a4.61,4.61,0,0,0-2.13,1.27,7.08,7.08,0,0,0-1.34,2.38,16.16,16.16,0,0,0-.76,2.57,11.75,11.75,0,0,1-.65,2.39,14.65,14.65,0,0,0,1.42,8.43,31.59,31.59,0,0,0,5,6.14c1.6,1.7,3.59,3.1,4,5.5.07.36,0,1.12.51,1.15s.91-.86,1.14-1.14a19.35,19.35,0,0,0,4.56-10A20.16,20.16,0,0,0,925.53,252.52Z"/><path class="cls-20" d="M922.35,247.32a8.53,8.53,0,0,0,.78-1.91,18.17,18.17,0,0,0-3.21-4.59,7.4,7.4,0,0,1-1.34,4.31c-2.18,2.64-6.22,4.31-9.32,2.52a16.12,16.12,0,0,0,.26,4C913.78,255.05,920,251.78,922.35,247.32Z"/><path class="cls-20" d="M923.08,252.42a14.71,14.71,0,0,0,1.34-3.16c0-.18.05-.36.07-.55s-.22-.64-.34-1a24.51,24.51,0,0,0-1-2.35,8.53,8.53,0,0,1-.78,1.91c-2.4,4.46-8.57,7.73-12.83,4.36a11.9,11.9,0,0,0,1.23,3.51,14.5,14.5,0,0,0,.94,1.5c2.57,1.76,6.28.92,8.72-1.11A16.93,16.93,0,0,0,923.08,252.42Z"/><path class="cls-20" d="M923.57,257.89a10.52,10.52,0,0,0,1.93-5.53,29,29,0,0,0-1-3.65c0,.19,0,.37-.07.55a14.71,14.71,0,0,1-1.34,3.16,16.93,16.93,0,0,1-2.67,3.16c-2.44,2-6.15,2.87-8.72,1.11a35.58,35.58,0,0,0,3.14,3.69A7.83,7.83,0,0,0,923.57,257.89Z"/><path class="cls-20" d="M923.93,261.9a10.06,10.06,0,0,0,1.58-2.67,17.85,17.85,0,0,0,.47-2.4,20.16,20.16,0,0,0-.45-4.31l0-.16a10.52,10.52,0,0,1-1.93,5.53,7.83,7.83,0,0,1-8.74,2.49l.9.95c.87.92,1.85,1.76,2.64,2.71A6.34,6.34,0,0,0,923.93,261.9Z"/><path class="cls-20" d="M923.93,261.9a6.34,6.34,0,0,1-5.56,2.14,6.2,6.2,0,0,1,1.4,2.79c.07.36,0,1.12.51,1.15s.91-.86,1.14-1.14a20.47,20.47,0,0,0,4.09-7.61A10.06,10.06,0,0,1,923.93,261.9Z"/><path class="cls-19" d="M918.58,245.13a7.4,7.4,0,0,0,1.34-4.31c-.39-.4-.8-.79-1.23-1.16-1.24-1.07-2.79-2-4.48-1.51a4.61,4.61,0,0,0-2.13,1.27,7.08,7.08,0,0,0-1.34,2.38,16.16,16.16,0,0,0-.76,2.57,11.75,11.75,0,0,1-.65,2.39c0,.29-.05.59-.07.89C912.36,249.44,916.4,247.77,918.58,245.13Z"/><path class="cls-21" d="M913.45,248.26a6,6,0,0,1-4.19-.61,16.12,16.12,0,0,0,.26,4c3.07,2.43,7.14,1.4,10.06-1l-.39.07A6.29,6.29,0,0,1,913.45,248.26Z"/><path class="cls-21" d="M917.67,251.94c-2.63,1.42-5.7,1.67-8.15-.26a11.9,11.9,0,0,0,1.23,3.51,14.5,14.5,0,0,0,.94,1.5c2.57,1.76,6.28.92,8.72-1.11a13.88,13.88,0,0,0,1.46-1.53A6,6,0,0,1,917.67,251.94Z"/><path class="cls-21" d="M920.37,255.61c-2.44,2-6.12,2.83-8.68,1.08a35.58,35.58,0,0,0,3.14,3.69,7.83,7.83,0,0,0,8.74-2.49c.09-.13.18-.25.26-.38A6,6,0,0,1,920.37,255.61Z"/><path class="cls-21" d="M921.88,259.45a7.74,7.74,0,0,1-7,.93l.9.95c.87.92,1.85,1.76,2.64,2.71a6.34,6.34,0,0,0,5.56-2.14l.28-.35A5.1,5.1,0,0,1,921.88,259.45Z"/><path class="cls-21" d="M922.23,264.53a5,5,0,0,1-.56-1,5.3,5.3,0,0,1-3.3.49,6.2,6.2,0,0,1,1.4,2.79c.07.36,0,1.12.51,1.15s.91-.86,1.14-1.14c.47-.56.91-1.15,1.33-1.75A2.75,2.75,0,0,1,922.23,264.53Z"/><path class="cls-21" d="M921.64,264.85a2.82,2.82,0,0,0,.22-.91,3.49,3.49,0,0,1-.19-.39,5.3,5.3,0,0,1-3.3.49,7.07,7.07,0,0,1,1,1.58C920.24,265.69,921.24,265.68,921.64,264.85Z"/><path class="cls-22" d="M909.72,250a3.35,3.35,0,0,0,2.28.82,3.83,3.83,0,0,0,2.6-1.39,4.86,4.86,0,0,1-1.15-1.2,6,6,0,0,1-4.19-.61c0,.51,0,1,0,1.54A1.68,1.68,0,0,0,909.72,250Z"/><path class="cls-22" d="M911.49,254.57a3.9,3.9,0,0,0,2.49.35,3,3,0,0,0,1.9-1,2.36,2.36,0,0,0,.46-1.34,6.84,6.84,0,0,1-6.82-.86,14.58,14.58,0,0,0,.42,1.64A5.34,5.34,0,0,0,911.49,254.57Z"/><path class="cls-22" d="M914.32,258.81a3.51,3.51,0,0,0,1.89.37,4.46,4.46,0,0,0,1.66-.28,1.63,1.63,0,0,0,1.1-1.12,10.37,10.37,0,0,0,.12-1.25v0a7.71,7.71,0,0,1-6.12.84A5.58,5.58,0,0,0,914.32,258.81Z"/><path class="cls-22" d="M916.59,262.19a5.41,5.41,0,0,0,.94.45,3.15,3.15,0,0,0,2.69-.27,1.76,1.76,0,0,0,.8-1,9.69,9.69,0,0,1,.34-1.08,3,3,0,0,1,.47-.77,7.78,7.78,0,0,1-7,.89l.9.95C916,261.62,916.3,261.91,916.59,262.19Z"/><path class="cls-22" d="M921.6,264.29c.08-.26.13-.56.23-.82a5.35,5.35,0,0,1-3.46.57,7.08,7.08,0,0,1,.88,1.3A1.93,1.93,0,0,0,921.6,264.29Z"/><path class="cls-20" d="M918.58,245.13a7.4,7.4,0,0,0,1.34-4.31c-.39-.4-.8-.79-1.23-1.16a6,6,0,0,0-3.23-1.62,4,4,0,0,1,.09,1.25,7.41,7.41,0,0,1-1.46,4,5.33,5.33,0,0,1-1.56,1.58,5.58,5.58,0,0,0,2.53,2.87A9.51,9.51,0,0,0,918.58,245.13Z"/><g class="cls-23"><path class="cls-22" d="M923.65,254.12a.3.3,0,0,0-.15,0c-.35.22-.43,1.71.28,1.48S924.17,254.06,923.65,254.12Z"/><path class="cls-22" d="M925.21,258.45c-.19-.35-.78-.21-.94.32a.73.73,0,0,0,.15.72c.39.44.83-.35.85-.67A.6.6,0,0,0,925.21,258.45Z"/><path class="cls-22" d="M914.63,249.49a7.33,7.33,0,0,0,1.19-.07,5.36,5.36,0,0,0,3.27-1.58,7.07,7.07,0,0,0,1.81-3.2,8.86,8.86,0,0,0,.24-2.4,18.27,18.27,0,0,0-1.22-1.42,7.4,7.4,0,0,1-1.34,4.31,9.25,9.25,0,0,1-5.13,3.13A5.11,5.11,0,0,0,914.63,249.49Z"/><path class="cls-22" d="M921.15,247a.86.86,0,0,0-.45,0,.11.11,0,0,1,.08,0,.09.09,0,0,1,0,.07c-.24.06-.6.81-.58,1.06a.4.4,0,0,0,.41.37,1.29,1.29,0,0,0,1.05-.81A.59.59,0,0,0,921.15,247Z"/><path class="cls-22" d="M919.61,251.88a5.56,5.56,0,0,0,1.73-1.65c.31-.38.65-.74,1-1.1a12.77,12.77,0,0,0,.94-1,2.17,2.17,0,0,0,.32-1.75q-.21-.5-.45-1a8.53,8.53,0,0,1-.78,1.91,11.75,11.75,0,0,1-4.54,4.55A2.14,2.14,0,0,0,919.61,251.88Z"/><path class="cls-22" d="M922.42,250.55a.46.46,0,0,0-.68.08,1,1,0,0,0-.24.86c.1.3.57.83.86.42a1.52,1.52,0,0,0,.25-1A.55.55,0,0,0,922.42,250.55Z"/><path class="cls-22" d="M920.58,255.83c.44.31,1,0,1.47-.36a6,6,0,0,0,1.19-2,11.52,11.52,0,0,1,.67-1.25,7.48,7.48,0,0,0,.67-1.21,3.77,3.77,0,0,0,.22-1.4c-.1-.31-.2-.62-.31-.93,0,.19,0,.37-.07.55a14.71,14.71,0,0,1-1.34,3.16,16.93,16.93,0,0,1-2.67,3.16l0,0Z"/><path class="cls-22" d="M922.49,259.69a1.24,1.24,0,0,0,.91-.36,6.48,6.48,0,0,0,1.35-1.82,6.15,6.15,0,0,0,.79-2.18c.07-.61.09-1.23.17-1.84l-.18-1,0-.16a10.52,10.52,0,0,1-1.93,5.53,8,8,0,0,1-1.66,1.54A1.18,1.18,0,0,0,922.49,259.69Z"/><path class="cls-22" d="M923.56,263.45a2.44,2.44,0,0,0,.33-.23,18.87,18.87,0,0,0,1.62-4,10.06,10.06,0,0,1-1.58,2.67,7.62,7.62,0,0,1-1.93,1.48A1.6,1.6,0,0,0,923.56,263.45Z"/><path class="cls-22" d="M918.82,242a1.38,1.38,0,0,0-.34.18,1.92,1.92,0,0,0-.48.62,1.87,1.87,0,0,0-.29,1,.4.4,0,0,0,.52.36C919,243.86,919.49,242.48,918.82,242Z"/><path class="cls-22" d="M914.62,245.72c1-.41,1.6-1.58,2.23-2.42s1.39-1.38,1.92-2.2a2.7,2.7,0,0,0,.4-1c-.16-.14-.31-.29-.48-.43a6,6,0,0,0-3.23-1.62,4,4,0,0,1,.09,1.25,7.41,7.41,0,0,1-1.46,4,5.38,5.38,0,0,1-1.55,1.57C913.12,245.44,913.74,246.08,914.62,245.72Z"/></g><path class="cls-21" d="M912.53,244.89a3,3,0,0,1-2.74.43,9.27,9.27,0,0,1-.46,1.44c0,.29-.05.59-.07.89a6.44,6.44,0,0,0,5.8.11A5.58,5.58,0,0,1,912.53,244.89Z"/><path class="cls-24" d="M914.09,243.31a7.41,7.41,0,0,0,1.46-4,4,4,0,0,0-.09-1.25,3.34,3.34,0,0,0-1.25.11,4.61,4.61,0,0,0-2.13,1.27,7.08,7.08,0,0,0-1.34,2.38,16.16,16.16,0,0,0-.76,2.57c-.06.32-.12.63-.19.95C911.38,246,913.26,244.65,914.09,243.31Z"/><path class="cls-25" d="M912.72,239.51a5.18,5.18,0,0,1-.08,1c0,.15-.25,1,0,1.05s.61-.38.73-.51c.86-.93,1.55-2,2.38-2.94h-.06a3.64,3.64,0,0,0-.81,0h0l-.14,0h0l-.13,0s0,0,0,0l-.13,0h0l-.16,0a4.6,4.6,0,0,0-1.54.75A4.3,4.3,0,0,1,912.72,239.51Z"/><path class="cls-25" d="M922.67,259.45s0-.07,0-.08a5.12,5.12,0,0,0,2.36-2.79,10.49,10.49,0,0,0,.71-2.65c-.06-.42-.13-.85-.21-1.27a14.72,14.72,0,0,1-.59,1.61,2.88,2.88,0,0,1-1.33,1.56,2.49,2.49,0,0,1-2.21-.27s0-.08,0-.09c1-.44,1.58-1.74,2.11-2.66a7.41,7.41,0,0,0,1-3.77c0-.11-.07-.22-.11-.33h0c0-.16-.11-.32-.16-.47l-.18-.48c-.08-.2-.15-.4-.23-.59a.14.14,0,0,1,0-.06l-.23-.54h0c-.17-.39-.35-.77-.54-1.15h0c-.08-.16-.16-.32-.25-.48v0c-.08-.16-.16-.31-.25-.46l-.08-.13a3.79,3.79,0,0,0-.2-.34q-.15-.25-.3-.48c-.1-.16-.2-.31-.31-.46l-.1-.14-.25-.35-.18-.23-.2-.25-.2-.25-.1-.11c-.15-.18-.3-.36-.46-.53h0c-.25-.28-.52-.55-.8-.82l-.17-.16-.17-.16-.4-.36-.15-.13,0,0-.16-.13h0l-.17-.13,0,0-.17-.12h0a1,1,0,0,0-.17-.12l0,0c-.11-.08-.23-.15-.35-.22l0,0-.37-.19,0,0-.38-.17h0a3.1,3.1,0,0,0-.4-.13h0l-.31-.07c-.5.55-.95,1.15-1.4,1.75a10.72,10.72,0,0,1-1.27,1.5c-.14.12-.35.32-.56.29s-.14-.47-.12-.61a10.23,10.23,0,0,0,.16-1.11,4.93,4.93,0,0,0,0-.93,5,5,0,0,0-.49.44,7.08,7.08,0,0,0-1.34,2.38,16.16,16.16,0,0,0-.76,2.57c0,.14-.05.29-.08.43s0,0,0,.06l-.09.45h0c0,.11,0,.22-.08.33a.24.24,0,0,1,0,.08c0,.09,0,.17-.07.25l0,.09.18-.13a0,0,0,0,1,.07,0A1.09,1.09,0,0,0,911,247a1.84,1.84,0,0,0,1-.32c.13-.11.25-.28.41-.34.32-.13.53.1.71.34s.41.54.32.8-.48.26-.66.28a8,8,0,0,1-1.2,0,9.94,9.94,0,0,1-2.32-.26c0,.14,0,.29,0,.43v.32a2.88,2.88,0,0,0,1,.82,5.33,5.33,0,0,0,2.06.64c.34,0,.69,0,1,0a1.61,1.61,0,0,1,.94.34,5.12,5.12,0,0,0,2.75,1.21s0,0,0,.07a3.35,3.35,0,0,1-2.31.88,8,8,0,0,1-2.71,0,3.72,3.72,0,0,1-2.72-2.14,15.55,15.55,0,0,0,.43,2.47h0s0,.06,0,.08a6.54,6.54,0,0,0,5,1.24,5.65,5.65,0,0,0,1.43-.5,2,2,0,0,1,1-.27,4.44,4.44,0,0,1,1.28.57,8.49,8.49,0,0,0,1.7.5,0,0,0,0,1,0,.06,4.14,4.14,0,0,1-2.18,1.55,9.86,9.86,0,0,1-2.89.65,7.7,7.7,0,0,1-4.28-1.08l.12.19.15.25.08.13.21.33,0,0,.24.36h0c.27.38.56.75.85,1.12a4.76,4.76,0,0,0,.53.19,8.51,8.51,0,0,0,2.13.32c1.67.06,3.87-.09,5-1.48,0,0,.06,0,.08,0a2.06,2.06,0,0,0,1.24.63c.43.09.86.14,1.29.24,0,0,0,0,0,0a3.5,3.5,0,0,1-1.94,1.68,10,10,0,0,1-2.67.82,7.33,7.33,0,0,1-4-.43l1,1,.33.34a7,7,0,0,0,2.08.38,6.23,6.23,0,0,0,3.74-.93h.06a3.53,3.53,0,0,0,.75.64,2,2,0,0,1,.51.34c.17.21-.15.48-.28.62a4.57,4.57,0,0,1-2.63,1.23,7,7,0,0,1-2-.07c.21.22.41.45.6.67h0a3,3,0,0,1,.22.28l0,.05.08.11a4.08,4.08,0,0,0,2.3-.26h0c.88,1.27.22,2.75-.79,3.75h0c.41,0,.91-.86,1.14-1.14.1-.12.21-.24.31-.37l.07-.09.29-.38,0,0,.27-.36.06-.08.27-.39,0-.07.24-.36,0-.07c.09-.13.18-.27.26-.41a.22.22,0,0,0,.05-.08l.24-.4a0,0,0,0,0,0,0,4.49,4.49,0,0,0,.24-.42.41.41,0,0,0,0-.09c.08-.15.16-.29.23-.44h0l.21-.44,0-.08c.07-.15.14-.3.2-.45l0-.05c.06-.14.12-.27.17-.41l0-.08.18-.45,0-.07.15-.43,0-.05.15-.47,0-.08,0-.05-.2.13A1.94,1.94,0,0,1,922.67,259.45Zm-9.45-14.1s0-.1.08-.09a1.08,1.08,0,0,1,.09-.76c.34-.56.78.2,1.16.23,1.05.08,1.68-1,2.08-1.82s.93-1.77,1.29-2.7c0,0,.07-.08.1,0a3.32,3.32,0,0,1,.73,2.72,5.69,5.69,0,0,1-1.43,2.54,2.92,2.92,0,0,1-2.12,1.33A2.59,2.59,0,0,1,913.22,245.35Zm2.1,3.43s0-.06,0-.08c.6-.31,1.25-.53,1.85-.84a5.34,5.34,0,0,0,1.67-1.31,6.26,6.26,0,0,0,1.42-3.59s.05-.07.08-.07.06,0,.08,0a3.2,3.2,0,0,1,.63,1.39,15.88,15.88,0,0,1,.37,1.69,3.49,3.49,0,0,1-6.13,2.83Zm3.4,3.1s0-.08,0-.08c1.91-.59,3.3-2.48,4.08-4.27a5.37,5.37,0,0,1,.21-.56.08.08,0,0,1,.1,0,1.45,1.45,0,0,1,.38,1,7.18,7.18,0,0,1,0,1.39,5.1,5.1,0,0,1-1,2.71C921.43,253.25,919.81,252.77,918.72,251.88Z"/><path class="cls-26" d="M911.79,238a6.33,6.33,0,0,0-2.46-3.53c-2.53-1.72-6.24-2.1-8.79-.19a5.21,5.21,0,0,0-1.63,2,7.81,7.81,0,0,0,0,4.59c.22.85.6,1.65.84,2.49a5.26,5.26,0,0,0,1.53,3c2.15,1.68,5.47,1.33,7.62-.13a8.9,8.9,0,0,0,2.36-2.78,6.41,6.41,0,0,0,.81-3.32A7.92,7.92,0,0,0,911.79,238Z"/><path class="cls-16" d="M909.22,234.4a.48.48,0,0,0-.09.29,3.05,3.05,0,0,0,.21,1.12,22.24,22.24,0,0,0,.9,2.21,1.52,1.52,0,0,1,.13.82c0,.51-.13,1.2.27,1.6a1.08,1.08,0,0,0,1.47.11c0-.15,0-.3,0-.45a7.92,7.92,0,0,0-.32-2.1,6.33,6.33,0,0,0-2.46-3.53Z"/><path class="cls-16" d="M907.89,246.78a6.85,6.85,0,0,0,1-.54,1,1,0,0,0-.08-.71,1.16,1.16,0,0,0-.88-.6,2,2,0,0,0-2,1.09,1.15,1.15,0,0,0,.23,1.31,7.64,7.64,0,0,0,1.72-.53Z"/><path class="cls-16" d="M910,242.1a4.31,4.31,0,0,0-.79,1.06,2,2,0,0,0-.32,1.33,1,1,0,0,0,1.13.6l.12,0a10.59,10.59,0,0,0,1.14-1.64,6.3,6.3,0,0,0,.7-2C911.56,240.87,910.43,241.7,910,242.1Z"/><path class="cls-16" d="M929,260.89c-.26-.89-.59-1.75-.82-2.65a.54.54,0,0,0-.39-.45,2.63,2.63,0,0,0,.06-.49c0-.24-.2-.4-.4-.53l.06-.46c0-.33-.27-.46-.54-.58a2.78,2.78,0,0,0,0-.5c0-.33-.3-.39-.56-.46a.64.64,0,0,0,0-.4A.87.87,0,0,0,926,254l0,0c0-.68-.63-1.47-1.14-2-.32-.51-.67-1-1-1.45a6.6,6.6,0,0,1-1.31-2.6.45.45,0,0,0,.18-.07,1.45,1.45,0,0,0,.56-1.36,25.73,25.73,0,0,0-.66-5.32c-.19-.83-.35-1.66-.59-2.47a5.17,5.17,0,0,1-.56-2.51c.05-.24-.12-1.37-.51-1.39s-1.2.77-1.54,1.1a38.33,38.33,0,0,0-3.55,3.88,26.44,26.44,0,0,0-2.1,3,.61.61,0,0,0-.08.53c0,.51.63.94,1.09,1,1,.06,1.55-1.31,1.85-2a13.63,13.63,0,0,1,.74-1.76,11.83,11.83,0,0,1,1.44-1.72c.56-.64,1.28-1.23,1.79-1.93.1,1.4-.06,2.83,0,4.22,0,.86.16,1.7.24,2.55a6.85,6.85,0,0,1-.15,2.59,2.08,2.08,0,0,0,.06,1.71c.22.33.48.42.75.25a4.18,4.18,0,0,0,.37.9c.4.8.82,1.6,1.21,2.41s.7,1.63,1.06,2.45c.19.41.39,1.19.94,1.07l0,.13a1.85,1.85,0,0,0,.33.79.47.47,0,0,0,.32.14c0,.06,0,.11,0,.16a1.2,1.2,0,0,0,.24.57.58.58,0,0,0,.2.13s0,.09,0,.13a1.9,1.9,0,0,0,.2.75.48.48,0,0,0,.31.19c0,.14,0,.28,0,.41a.49.49,0,0,0,.2.48l.23.08a8.9,8.9,0,0,0-.18,1.42c0,.06.06.08.11.07a.73.73,0,0,0,.44-.27,4.61,4.61,0,0,0,.4,1.46,4,4,0,0,1,.4,1.16,1.82,1.82,0,0,1-.59,1.24c-.09.1,0,.32.12.23a2.69,2.69,0,0,0,1.29-1.13C929.48,262.28,929.21,261.73,929,260.89Z"/><path class="cls-27" d="M920.18,237.24c-.07,0,.33-.34.33-.34.47-.33.13-.66.34-1.14a1.39,1.39,0,0,0,.21-.68.4.4,0,0,0-.12-.25h-.05c-.53,0-1.2.77-1.54,1.1a38.33,38.33,0,0,0-3.55,3.88,26.44,26.44,0,0,0-2.1,3,.61.61,0,0,0-.08.53c0,.51.63.94,1.09,1,1,.06,1.55-1.31,1.85-2a13.63,13.63,0,0,1,.74-1.76,11.83,11.83,0,0,1,1.44-1.72c.45-.51,1-1,1.46-1.52Z"/><path class="cls-25" d="M929,260.89c-.26-.89-.59-1.75-.82-2.65a.54.54,0,0,0-.39-.45,2.63,2.63,0,0,0,.06-.49c0-.24-.2-.4-.4-.53l.06-.46c0-.33-.27-.46-.54-.58a2.78,2.78,0,0,0,0-.5c0-.33-.3-.39-.56-.46a.64.64,0,0,0,0-.4A.87.87,0,0,0,926,254l0,0c0-.68-.63-1.47-1.14-2-.32-.51-.67-1-1-1.45a6.6,6.6,0,0,1-1.31-2.6.45.45,0,0,0,.18-.07,1.45,1.45,0,0,0,.56-1.36,25.73,25.73,0,0,0-.66-5.32c-.19-.83-.35-1.66-.59-2.47a5.17,5.17,0,0,1-.56-2.51c.05-.24-.12-1.37-.51-1.39h0v0c0,.22-.26.45-.38.63s-.05.47-.14.71a.23.23,0,0,1-.21.17,1.2,1.2,0,0,0-.84.53c-.24.29-.49.57-.74.86a19.12,19.12,0,0,0-1.58,2.12,7.83,7.83,0,0,0-1.21,2.19c-.1.37-.36,1-.88.91a1,1,0,0,1-.59-1.12c-.2.3-.4.6-.58.9a.61.61,0,0,0-.08.53c0,.51.63.94,1.09,1,1,.06,1.55-1.31,1.85-2a13.63,13.63,0,0,1,.74-1.76,11.83,11.83,0,0,1,1.44-1.72c.56-.64,1.28-1.23,1.79-1.93.1,1.4-.06,2.83,0,4.22,0,.86.16,1.7.24,2.55a6.85,6.85,0,0,1-.15,2.59,2.08,2.08,0,0,0,.06,1.71c.22.33.48.42.75.25a4.18,4.18,0,0,0,.37.9c.4.8.82,1.6,1.21,2.41s.7,1.63,1.06,2.45c.19.41.39,1.19.94,1.07l0,.13a1.85,1.85,0,0,0,.33.79.47.47,0,0,0,.32.14c0,.06,0,.11,0,.16a1.2,1.2,0,0,0,.24.57.58.58,0,0,0,.2.13s0,.09,0,.13a1.9,1.9,0,0,0,.2.75.48.48,0,0,0,.31.19c0,.14,0,.28,0,.41a.49.49,0,0,0,.2.48l.23.08a8.9,8.9,0,0,0-.18,1.42c0,.06.06.08.11.07a.73.73,0,0,0,.44-.27,4.61,4.61,0,0,0,.4,1.46,4,4,0,0,1,.4,1.16,1.82,1.82,0,0,1-.59,1.24c-.09.1,0,.32.12.23a2.69,2.69,0,0,0,1.29-1.13C929.48,262.28,929.21,261.73,929,260.89Zm-7.67-13.37c-.74-.06-.16-1.35,0-1.71.06-.16.12-.32.17-.49a2.35,2.35,0,0,0-.13-1.08,18.59,18.59,0,0,1-.47-2.54c-.08-.84,0-1.54-.12-2.37a6.46,6.46,0,0,1,.06-1.52c.07-.35.2-.6.47-.21a2.94,2.94,0,0,1,.34,1.24c.12.7.19,1.4.29,2.09s.23,1.4.34,2.09,0,1.3,0,1.95.4,1.36.12,1.94A1.17,1.17,0,0,1,921.29,247.52Zm3.32,7c-.3-.25-.14-.84-.26-1.18a8.21,8.21,0,0,0-.63-1.17l-.38-.64a14.59,14.59,0,0,1-.89-1.46,1.82,1.82,0,0,1-.24-1.28s0-.07.09-.05a.35.35,0,0,1,.16.18,3.06,3.06,0,0,1,.33.65,7.21,7.21,0,0,0,.52.94,19.74,19.74,0,0,0,1.38,2.12c.29.36.85.87.67,1.4C925.27,254.23,924.93,254.76,924.61,254.48Zm.92,1.21a1,1,0,0,1-.33-.61.52.52,0,0,1,0-.18h0v0a.43.43,0,0,1,.4-.42c.34,0,.38.5.36.75S925.78,255.86,925.53,255.69Zm.79.82c-.21.18-.42-.05-.44-.26a.93.93,0,0,1,.23-.7h0a.25.25,0,0,1,.16-.1.28.28,0,0,1,.27.23A.93.93,0,0,1,926.32,256.51Zm.49,1.07c-.17.19-.39-.06-.4-.24a.87.87,0,0,1,.25-.72h0l.09-.05c.12,0,.21.1.23.2A1.13,1.13,0,0,1,926.81,257.58Zm.12.95a.77.77,0,0,1,.09-.59.09.09,0,0,1,.07,0c.06-.07.15-.1.25,0a.45.45,0,0,1,.06.56C927.3,258.62,927,258.76,926.93,258.53Zm1.47,4.89s-.11,0-.08,0a2.31,2.31,0,0,0-.26-2.05,7.11,7.11,0,0,1-.4-.89,2,2,0,0,1,0-.78c-.14.09-.27.18-.42.26s-.06,0-.06,0a4,4,0,0,1,.16-.91c0-.23.13-.47.3-.52s.18,0,.22.14a9.35,9.35,0,0,1,.34,1.06,15.12,15.12,0,0,1,.76,2.27A1.89,1.89,0,0,1,928.4,263.42Z"/><path class="cls-16" d="M918.89,264.35a5.52,5.52,0,0,0-1.31-2.58c.12-.11.23-.25.21-.34s-.19-.29-.29-.46l-.12-.19a2.91,2.91,0,0,0,.24-.23c.15-.21-.07-.5-.16-.69a3.33,3.33,0,0,1-.2-.75.67.67,0,0,0,.36-.63,2.92,2.92,0,0,0-.36-.88,3.52,3.52,0,0,1-.19-.51,1.15,1.15,0,0,0,.3-.44,1.76,1.76,0,0,0,0-.88c-.09-.5-.15-1-.19-1.51a14.29,14.29,0,0,1,.16-3.2,11,11,0,0,1,.26-1.17,1.27,1.27,0,0,0,.47-.48,1.21,1.21,0,0,0,.05-.57c0-.36-.33-.5-.41-.84a4.36,4.36,0,0,1,.07-1.19,8.28,8.28,0,0,0,0-1.22c-.1-1.75-.17-3.49-.44-5.23a4.78,4.78,0,0,0-.53-2.07c-.38-.5-.78.07-1,.42a21.42,21.42,0,0,1-1.55,2.13c-.61.68-1.24,1.38-1.89,2-.48.46-2.41,1.78-2.08,2.74a1,1,0,0,0,.7.85c.77.22,1.41-.6,1.78-1.14a15.23,15.23,0,0,0,.83-1.54c.28-.53.68-1,1-1.51s.62-.89.9-1.36a3.68,3.68,0,0,1,.57-.62,3.5,3.5,0,0,1,.29.72,4.49,4.49,0,0,1,.05,1.32c-.08.83-.15,1.66-.16,2.49s.1,1.59.07,2.37a5,5,0,0,1-.22,1.27,2.29,2.29,0,0,0-.21.92.83.83,0,0,0,.71.77c-.07.77-.23,1.55-.37,2.31-.2,1-.35,2-.48,3,0,.32-.06.65-.08,1a1.65,1.65,0,0,0,0,.7.53.53,0,0,0,.51.35,4.43,4.43,0,0,1-.09.72c0,.26-.16.79,0,1a.33.33,0,0,0,.34.12,4.89,4.89,0,0,0,0,1.48.29.29,0,0,0,.32.28,4.06,4.06,0,0,0,0,.72.38.38,0,0,0,.39.28c-.06.41-.11.83-.16,1.25s.35.59.63.82a1.73,1.73,0,0,1,.33,2.06c-.19.39-.58.58-.78.92,0,.06,0,.17.06.18a1.54,1.54,0,0,0,1.33-.66,1.79,1.79,0,0,0,.32-1.07A3.37,3.37,0,0,0,918.89,264.35Z"/><path class="cls-27" d="M915.88,240.36a1.72,1.72,0,0,1,.07-.21,1.57,1.57,0,0,1,.47-.64,1.35,1.35,0,0,0,.41-1.15l-.05-.07c-.38-.5-.78.07-1,.42a21.42,21.42,0,0,1-1.55,2.13c-.61.68-1.24,1.38-1.89,2-.48.46-2.41,1.78-2.08,2.74a1,1,0,0,0,.7.85c.77.22,1.41-.6,1.78-1.14a15.23,15.23,0,0,0,.83-1.54c.28-.53.68-1,1-1.51s.62-.89.9-1.36A3.18,3.18,0,0,1,915.88,240.36Z"/><path class="cls-25" d="M918.89,264.35a5.52,5.52,0,0,0-1.31-2.58c.12-.11.23-.25.21-.34s-.19-.29-.29-.46l-.12-.19a2.91,2.91,0,0,0,.24-.23c.15-.21-.07-.5-.16-.69a3.33,3.33,0,0,1-.2-.75.67.67,0,0,0,.36-.63,2.92,2.92,0,0,0-.36-.88,3.52,3.52,0,0,1-.19-.51,1.15,1.15,0,0,0,.3-.44,1.76,1.76,0,0,0,0-.88c-.09-.5-.15-1-.19-1.51a14.29,14.29,0,0,1,.16-3.2,11,11,0,0,1,.26-1.17,1.27,1.27,0,0,0,.47-.48,1.21,1.21,0,0,0,.05-.57c0-.36-.33-.5-.41-.84a4.36,4.36,0,0,1,.07-1.19,8.28,8.28,0,0,0,0-1.22c-.1-1.75-.17-3.49-.44-5.23a4.78,4.78,0,0,0-.53-2.07.37.37,0,0,0-.52-.14.61.61,0,0,1,.11.56,1.52,1.52,0,0,1-.23.48c-.11.14-.28.22-.38.35s-.06.4-.19.58a3.42,3.42,0,0,1-.57.57,12.58,12.58,0,0,0-1.46,1.46,8.66,8.66,0,0,0-1.36,1.66c-.17.33-.32.83-.66,1a.48.48,0,0,1-.76-.38,1.46,1.46,0,0,1,0-.21c-.4.45-.67.93-.53,1.34a1,1,0,0,0,.7.85c.77.22,1.41-.6,1.78-1.14a15.23,15.23,0,0,0,.83-1.54c.28-.53.68-1,1-1.51s.62-.89.9-1.36a3.68,3.68,0,0,1,.57-.62,3.5,3.5,0,0,1,.29.72,4.49,4.49,0,0,1,.05,1.32c-.08.83-.15,1.66-.16,2.49s.1,1.59.07,2.37a5,5,0,0,1-.22,1.27,2.29,2.29,0,0,0-.21.92.83.83,0,0,0,.71.77c-.07.77-.23,1.55-.37,2.31-.2,1-.35,2-.48,3,0,.32-.06.65-.08,1a1.65,1.65,0,0,0,0,.7.53.53,0,0,0,.51.35,4.43,4.43,0,0,1-.09.72c0,.26-.16.79,0,1a.33.33,0,0,0,.34.12,4.89,4.89,0,0,0,0,1.48.29.29,0,0,0,.32.28,4.06,4.06,0,0,0,0,.72.38.38,0,0,0,.39.28c-.06.41-.11.83-.16,1.25s.35.59.63.82a1.73,1.73,0,0,1,.33,2.06c-.19.39-.58.58-.78.92,0,.06,0,.17.06.18a1.54,1.54,0,0,0,1.33-.66,1.79,1.79,0,0,0,.32-1.07A3.37,3.37,0,0,0,918.89,264.35Zm-2.77-15.17a2.24,2.24,0,0,1,.37-.76,1.4,1.4,0,0,0,.19-1c-.08-.92,0-1.82,0-2.74,0-.5,0-1,0-1.49s0-.92,0-1.37-.19-.86-.19-1.28c-.21-.32.06-.83.34-1,0,0,.08,0,.08,0,0,.33,0,.65,0,1a5.93,5.93,0,0,0,.2.95,11,11,0,0,1,.18,1.82c0,1,0,1.95,0,2.92,0,.47,0,.95,0,1.42a1.08,1.08,0,0,0,.1.69,1.22,1.22,0,0,1,.18.36,1,1,0,0,1-.65,1C916.58,249.84,916,249.66,916.12,249.18Zm-.39,7.52a4.19,4.19,0,0,1,.16-1.53c.14-.66.28-1.31.36-2s.14-1.16.24-1.73a2.71,2.71,0,0,1,0-.29,1.73,1.73,0,0,1,.28-1s.07-.05.09,0a2.61,2.61,0,0,1,0,1.44,13.05,13.05,0,0,0-.17,2.86c0,.32.06.64.08,1s.18,1.63-.4,1.76A.6.6,0,0,1,915.73,256.7Zm.35,2a8.26,8.26,0,0,1,.2-.86c0-.22.09-.41.29-.36s.52.54.58.83-.12.82-.61.79C916.29,259,916.05,258.94,916.08,258.66Zm.4,1.85a2.2,2.2,0,0,1,0-.85s0-.08,0-.12v-.07a.8.8,0,0,1,0-.15.06.06,0,0,1,.07-.05c.44.08.83,1.06.44,1.38A.33.33,0,0,1,916.48,260.51Zm.33,1a.28.28,0,0,1,.06-.39.34.34,0,0,1,.44.06c.12.17.07.54-.15.61S916.86,261.68,916.81,261.51Zm1.76,3.87a2.37,2.37,0,0,1-.84,1.44c-.06.05-.11,0-.05-.06a1.91,1.91,0,0,0,.32-2.32,8.74,8.74,0,0,1-.73-.88,1,1,0,0,1-.09-.65c0-.22,0-.45.15-.54s.2.11.23.18a7.7,7.7,0,0,0,.53,1A2.64,2.64,0,0,1,918.57,265.38Z"/><path class="cls-28" d="M912.11,240.1a7.92,7.92,0,0,0-.32-2.1,6.63,6.63,0,0,0-1.85-3.05c-.86.37-.74,1.54-.36,2.34s1.3,1.9,2,.93c0,0,.09-.05.09,0a8.93,8.93,0,0,1-.42,3.79,4.45,4.45,0,0,1-1.11,1.23c-.25.23-.66.4-.89,0a4.82,4.82,0,0,1-.46-1.45,3.38,3.38,0,0,0-.62-1.57.79.79,0,0,0-1-.16,1.15,1.15,0,0,0-.35.7c-.11.55-.08,1.13-.14,1.69a2.88,2.88,0,0,1-.56,1.66,5.77,5.77,0,0,1-1.9,1.38s-.09,0-.06,0c1.18-1.81,2.12-4.2,1.08-6.29,0,0,.06-.1.09-.07a5.11,5.11,0,0,1,.57.57,3.92,3.92,0,0,0-1-3s0-.1.07-.09a5.89,5.89,0,0,1,1,.45c-.61-1.49-1.92-3.23-3.67-3.22-.06,0,0-.07,0-.09.38-.26.86-.43,1.27-.68a6.42,6.42,0,0,0-3.06,1.21,5.21,5.21,0,0,0-1.63,2,7.81,7.81,0,0,0,0,4.59c.22.85.6,1.65.84,2.49a5.26,5.26,0,0,0,1.53,3c2.15,1.68,5.47,1.33,7.62-.13a8.9,8.9,0,0,0,2.36-2.78A6.41,6.41,0,0,0,912.11,240.1Z"/><path class="cls-28" d="M906,247.36c.23-.7.41-1.4.57-2.08a11,11,0,0,0,.37-4.74,1.1,1.1,0,0,0-.06.26c-.11.55-.08,1.13-.14,1.69a2.88,2.88,0,0,1-.56,1.66,5.77,5.77,0,0,1-1.9,1.38s-.09,0-.06,0c1.18-1.81,2.12-4.2,1.08-6.29,0,0,.06-.1.09-.07a5.11,5.11,0,0,1,.57.57,3.92,3.92,0,0,0-1-3s0-.1.07-.09a5.89,5.89,0,0,1,1,.45c-.61-1.49-1.92-3.23-3.67-3.22-.06,0,0-.07,0-.09.38-.26.86-.43,1.27-.68a6.42,6.42,0,0,0-3.06,1.21,5.21,5.21,0,0,0-1.63,2,7.81,7.81,0,0,0,0,4.59c.22.85.6,1.65.84,2.49a5.26,5.26,0,0,0,1.53,3A6,6,0,0,0,906,247.36Z"/><path class="cls-29" d="M905.24,239.89c-.06-.26-.13-.51-.21-.76a4.69,4.69,0,0,0-.64-1.17c.25.07.48.16.74.22a.09.09,0,0,0,.11-.1,1.81,1.81,0,0,0-.31-.6,4,4,0,0,0-.66-.89,7.12,7.12,0,0,0-.87-.69,2.53,2.53,0,0,0,.67.1s.09-.07.06-.11a2.93,2.93,0,0,0-2.44-1.37,3.26,3.26,0,0,0-.45,0,2.72,2.72,0,0,1,.11-.25,5.6,5.6,0,0,0,.46-.66s0-.1,0-.1a2.36,2.36,0,0,0-1.92,1.14,2.4,2.4,0,0,1,0-1.16s0-.06,0-.06a1.23,1.23,0,0,0-1,.47h0c0-.3.15-.57.16-.86,0,0,0-.08-.07-.07a2.59,2.59,0,0,0-.78.39,4.7,4.7,0,0,0-.7.46v-.47a4.36,4.36,0,0,0,.05-.72,2.21,2.21,0,0,0-.34.18l-.08,0c-.1.11-.19.24-.27.34a4.65,4.65,0,0,0-.47.8c-.09-.16-.18-.31-.26-.47s-.16-.67-.35-.63-.18.54-.2.65a2.88,2.88,0,0,0,0,.78l-.07,0a2.58,2.58,0,0,0-.82-.15,5.81,5.81,0,0,1,.6.7,2.09,2.09,0,0,1,.14.17c.14.17.27.37.4.55,0,0-.05.07,0,.1.12.27.28.49.4.75a3.55,3.55,0,0,1,.27,1.1c.11.92.11,1.83.3,2.74.35,1.72,1,3.33,1.48,5,.19.76.47,1.5.69,2.26.41-.25.84-.47,1.25-.75a9.11,9.11,0,0,0,1.86-1.91s.08,0,.08,0c.05.26.09.52.12.79l.46-.33c.21-.32.45-.62.66-.94a4.62,4.62,0,0,0,.46-.87,1.32,1.32,0,0,0,.26.56h0a4.68,4.68,0,0,0,.48-1.55l0-.38c0-.17,0-.34,0-.52a1,1,0,0,0,.34.32s.09,0,.09-.07a3.93,3.93,0,0,0-.16-1.36,1.63,1.63,0,0,1,.27.31.19.19,0,0,0,.1.1C905.21,240.62,905.22,240.25,905.24,239.89Z"/><path class="cls-30" d="M905,240.83a6.94,6.94,0,0,1-.55-1.32,3.43,3.43,0,0,1-.22-1.61s.07-.07.1,0l.11.12.54.17a4.45,4.45,0,0,1-.84-.71,8.2,8.2,0,0,1-.58-.74,2.23,2.23,0,0,1-.44-.76s.05-.09.09-.07l.32.13-.15-.1a2.53,2.53,0,0,0,.67.1h0a2.77,2.77,0,0,0-1.09-.75,4.38,4.38,0,0,1-1.39-.63s0,0,0-.05l0,0a2.61,2.61,0,0,0-.42,0,2.72,2.72,0,0,1,.11-.25,5.6,5.6,0,0,0,.46-.66.11.11,0,0,0,0-.05,9.45,9.45,0,0,0-1.26,1s-.06,0-.08,0a2.08,2.08,0,0,1-.07-.5,2.18,2.18,0,0,0-.56.65,2.4,2.4,0,0,1,0-1.16s0-.06,0-.06h0c-.32.2-.6.46-.91.65a0,0,0,0,1-.07,0,1.16,1.16,0,0,1,0-.37,3.74,3.74,0,0,0,.13-.65h0c-.44.4-.84.91-1.49.74l-.06,0v-.47a4.36,4.36,0,0,0,.05-.72l-.05,0c-.18.38-.18.87-.49,1.16a.62.62,0,0,1-.52.16.09.09,0,0,1-.07,0l0,.06c-.09-.16-.18-.31-.26-.47s-.15-.63-.33-.63c-.06.46.17,1,.12,1.43a.07.07,0,0,1-.08.06.71.71,0,0,1-.28-.09v0l-.07,0a2.44,2.44,0,0,0-.65-.14l.57.34s0,.07,0,.09a.48.48,0,0,0-.19.16l.08.1a2.09,2.09,0,0,1,.14.17c.14.17.27.37.4.55,0,0-.05.07,0,.1.12.27.28.49.4.75a3.55,3.55,0,0,1,.27,1.1c.11.92.11,1.83.3,2.74.35,1.72,1,3.33,1.48,5,.19.76.47,1.5.69,2.26.41-.25.84-.47,1.25-.75a9.11,9.11,0,0,0,1.86-1.91s.08,0,.08,0,0,.17.05.25a3.44,3.44,0,0,1,.46-.55s.09,0,.07,0a4,4,0,0,1-.14.46,5.7,5.7,0,0,0,.54-.73,14.16,14.16,0,0,0,.64-1.36s.08-.07.1,0a2.14,2.14,0,0,1,.06.56,14.67,14.67,0,0,1,.38-1.62s.08-.08.11,0a2.11,2.11,0,0,1,.15.83l0-.15,0-.38c0-.16,0-.33,0-.51a3.57,3.57,0,0,1-.07-1.22s.06-.09.09-.07a.93.93,0,0,1,.3.38,1.6,1.6,0,0,0-.05-.21A1.94,1.94,0,0,1,905,240.83Z"/><path class="cls-31" d="M901.51,245a2.06,2.06,0,0,0-.83-.49,1.6,1.6,0,0,1-.78-.18,4.62,4.62,0,0,0-.64-.45,6.08,6.08,0,0,0-3.65-.36,14.1,14.1,0,0,0-1.9.53l-.27.09a4.86,4.86,0,0,0,.41.93,7.73,7.73,0,0,0,.79,3.18c.17.37.33.74.51,1.09a10.86,10.86,0,0,0,1.06,1.18,5.32,5.32,0,0,0,1.2.77c0-.66-.51-1.06-.1-1.78a.15.15,0,0,0,0-.17.41.41,0,0,0-.24-.13c-.4-.06-.4-.32-.23-.63a1,1,0,0,0,.17-.9c-.08-.27-.24-.5-.32-.78s.16-.72.3-1c0,0,0,0,0,0a1.21,1.21,0,0,0,.17.89c.35.44.71.69.37,1.34a1,1,0,0,0-.16.65c0,.22.21.34.37.47a6.4,6.4,0,0,1-.25.8c0,.29.08,1.24.43,1.38h0c.37-.07.71-.51.91-.76.32-.4.61-.83.89-1.26l.29-.43c.06-.11.12-.22.19-.33a16.9,16.9,0,0,0,1-2.21c.22-.46.49-.91.32-1.35Z"/><path class="cls-32" d="M902.36,235.48A5.75,5.75,0,0,0,897,234a4.52,4.52,0,0,0-2.41,1.36,8.22,8.22,0,0,0-.89,1.15c-.06.1-.11.2-.16.3s-.24.42-.36.62a5.66,5.66,0,0,0-.58,2.78,8.88,8.88,0,0,0,.55,3.14,9.5,9.5,0,0,0,.66,1.7,6.1,6.1,0,0,0,.14,1.27c.54-.06,1,.43,1.53.71.26.16.53.29.78,0a.61.61,0,0,1,.28-.2.17.17,0,0,1,.1,0,1.69,1.69,0,0,1,.3-1s0,0,0,0a1.21,1.21,0,0,0,.17.89,5,5,0,0,1,.32.39c.59.27,1.25-.16,1.71-.66.27-.3.67-.8,1.13-.74s.62.65.65,1.19a5.29,5.29,0,0,1,.22-.53c.22-.47.49-.92.31-1.37l.61-.4a7.53,7.53,0,0,0,.9-1.06,5.59,5.59,0,0,0,1.08-2.39A6.6,6.6,0,0,0,902.36,235.48Z"/><path class="cls-33" d="M893.32,237.79v0S893.32,237.8,893.32,237.79Z"/><path class="cls-34" d="M902.36,235.48A5.75,5.75,0,0,0,897,234a4.52,4.52,0,0,0-2.41,1.36,8.22,8.22,0,0,0-.89,1.15c-.06.1-.11.2-.16.3s-.24.42-.36.62a5.66,5.66,0,0,0-.58,2.78,8.88,8.88,0,0,0,.55,3.14c.07.18.14.43.23.69a15.45,15.45,0,0,1,2-.59,6.13,6.13,0,0,1,3.74.23,2.82,2.82,0,0,1,.48.27,4.15,4.15,0,0,0,.32.27c.28.17.59.07.87.19a3.51,3.51,0,0,1,.77.5c.17-.11.34-.22.5-.34a7.53,7.53,0,0,0,.9-1.06,5.59,5.59,0,0,0,1.08-2.39A6.6,6.6,0,0,0,902.36,235.48Z"/><g class="cls-23"><path class="cls-35" d="M902.36,235.48a4.34,4.34,0,0,0-.76-.66.31.31,0,0,1,0,.13,1.28,1.28,0,0,1-1,.61,1.6,1.6,0,0,1-1.14-.06c-.39-.2-.67-.58-1.07-.77a2.45,2.45,0,0,0-2,.19c-.26.1-.83.39-1.11.19a.3.3,0,0,1-.14-.23,4.24,4.24,0,0,0-.49.46,8.22,8.22,0,0,0-.89,1.15c-.06.1-.11.2-.16.3s-.24.42-.36.62a5.66,5.66,0,0,0-.58,2.78,8.88,8.88,0,0,0,.55,3.14,9.5,9.5,0,0,0,.66,1.7,5.58,5.58,0,0,0,.07.91,1,1,0,0,1,1.19-.05c.27.15.46.42.73.57.11.06.36.11.41.26a1.2,1.2,0,0,1,0,.38.58.58,0,0,0,0,.23c.07.25.29.41.36.67a1,1,0,0,1-.24.69c-.1.15-.22.34-.08.51s.21.21.3.32a.8.8,0,0,1,.12.45c0,.18.19.44.14.62s-.25.15-.42.08a6.38,6.38,0,0,0,1,.58c0-.66-.51-1.06-.1-1.78a.15.15,0,0,0,0-.17.41.41,0,0,0-.24-.13c-.4-.06-.4-.32-.23-.63a1,1,0,0,0,.17-.9c-.08-.27-.24-.5-.32-.78s.16-.72.3-1c0,0,0,0,0,0a1.21,1.21,0,0,0,.17.89c.35.44.71.69.37,1.34a1,1,0,0,0-.16.65c0,.22.21.34.37.47a6.4,6.4,0,0,1-.25.8c0,.29.08,1.24.43,1.38h0c.37-.07.71-.51.91-.76.32-.4.61-.83.89-1.26l.29-.43c.06-.11.12-.22.19-.33a16.9,16.9,0,0,0,1-2.21c.22-.47.49-.92.31-1.37l.61-.4a7.53,7.53,0,0,0,.9-1.06,5.59,5.59,0,0,0,1.08-2.39A6.6,6.6,0,0,0,902.36,235.48Zm-2.52,12.07a4.64,4.64,0,0,1-.79,1.77c-.17.23-.33.48-.52.69s-.2.23-.34.24c-.39,0-.11-.71,0-.86.2-.41-.13-.53-.35-.8s0-.37.08-.5.25-.29.28-.46a.66.66,0,0,0-.14-.49.43.43,0,0,1-.07-.37.33.33,0,0,1,.31-.3c.19,0,.38,0,.56,0a1.28,1.28,0,0,0,.51-.29.33.33,0,0,1,.4,0C900.12,246.41,899.93,247.18,899.84,247.55Z"/><path class="cls-21" d="M893.32,237.79v0S893.32,237.8,893.32,237.79Z"/></g><path class="cls-36" d="M899.77,238.69a2.58,2.58,0,0,0-.49-1.06c-.71-.72-.49-2.63-1.91-2.52a3.08,3.08,0,0,0-1.72.75,6.78,6.78,0,0,0-1.51,2.12,2.11,2.11,0,0,0-.26,1.18,3.15,3.15,0,0,0,3.78,2.48,3.59,3.59,0,0,0,1.39-.74A2.84,2.84,0,0,0,899.77,238.69Z"/><path class="cls-37" d="M899.77,238.69a2.58,2.58,0,0,0-.49-1.06c-.71-.72-.49-2.63-1.91-2.52a3.08,3.08,0,0,0-1.72.75,6.78,6.78,0,0,0-1.51,2.12,2.11,2.11,0,0,0-.26,1.18,3.15,3.15,0,0,0,3.78,2.48,3.59,3.59,0,0,0,1.39-.74A2.84,2.84,0,0,0,899.77,238.69Z"/><path class="cls-38" d="M899.77,238.69a2.58,2.58,0,0,0-.49-1.06,6,6,0,0,1-.74-1.71.88.88,0,0,1-.56.47.9.9,0,0,0-.27.11c-.18.12-.12.41,0,.55s.31.19.4.33c.2.33,0,.66-.27.88a1.43,1.43,0,0,1-1,.39,1,1,0,0,1-.87-.44.64.64,0,0,1,.24-.78c.74-.4-.19-1.21-.59-1.55a6.73,6.73,0,0,0-1.48,2.1,2.11,2.11,0,0,0-.26,1.18,3.15,3.15,0,0,0,3.78,2.48,3.59,3.59,0,0,0,1.39-.74A2.84,2.84,0,0,0,899.77,238.69Z"/><path class="cls-39" d="M901.72,236.67c0-.4-.36-.82-.76-.75a2.35,2.35,0,0,0-1.18.58,22.83,22.83,0,0,1-1.67,2,1.82,1.82,0,0,1-2.17.27,2,2,0,0,1-.63-1.18,1.47,1.47,0,0,0-.69-1.24c-.58-.28-1.1.3-1.37.73-.42.69-.14,1.09.24,1.72a15.06,15.06,0,0,1,.7,1.46,1.45,1.45,0,0,0,1.12.9,9.35,9.35,0,0,0,2.05.14,3.15,3.15,0,0,0,2.89-1.22C901,239.13,901.82,237.9,901.72,236.67Zm-8.64,1.08c0,.05,0,.09,0,.14S893,237.88,893.08,237.75Z"/><path class="cls-34" d="M901.19,235.94a.77.77,0,0,0-.42.13,1.61,1.61,0,0,0-.58.73,8.1,8.1,0,0,1-1,1.37,3.54,3.54,0,0,0-.49.87,2,2,0,0,1-.26.53c-.31.37-.78.2-1.19.12a2.09,2.09,0,0,0-.93.06,1.58,1.58,0,0,1-.57.09c-.39-.08-.49-.59-.56-.92a6.8,6.8,0,0,0-.56-1.93.88.88,0,0,0-.55-.48c-.1,0-.21,0-.31-.06a2.28,2.28,0,0,0-.55.62,1.21,1.21,0,0,0-.2.75l0-.07c0,.05,0,.09,0,.14h0a2.92,2.92,0,0,0,.43.9,15.06,15.06,0,0,1,.7,1.46,1.45,1.45,0,0,0,1.12.9,9.35,9.35,0,0,0,2.05.14,3.15,3.15,0,0,0,2.89-1.22c.7-.94,1.57-2.17,1.47-3.4A.82.82,0,0,0,901.19,235.94Z"/><path class="cls-16" d="M901.43,243.5a6.08,6.08,0,0,0-1.79-2.56,4.61,4.61,0,0,0-3.1-.9,4.4,4.4,0,0,0-1.73.49,3,3,0,0,0-1.12,1.21,3.69,3.69,0,0,0-.08,3.1,1.09,1.09,0,0,0,.41.44c.31.17.68.09,1,.25s.54.47.87.63a3.16,3.16,0,0,0,3-.18,8.26,8.26,0,0,1,.88-.8c.43-.26.88-.08,1.34-.15C902,244.9,901.72,244.09,901.43,243.5Z"/><path class="cls-17" d="M901.43,243.5a6.08,6.08,0,0,0-1.79-2.56,4.61,4.61,0,0,0-3.1-.9,4.4,4.4,0,0,0-1.73.49,3,3,0,0,0-1.12,1.21,3.69,3.69,0,0,0-.08,3.1,1.09,1.09,0,0,0,.41.44c.31.17.68.09,1,.25s.54.47.87.63a3.16,3.16,0,0,0,3-.18,8.26,8.26,0,0,1,.88-.8c.43-.26.88-.08,1.34-.15C902,244.9,901.72,244.09,901.43,243.5Zm-3,2s0,.06,0,.08a1.63,1.63,0,0,1-2,.23c-.31-.22-.58-.5-.89-.71a1.55,1.55,0,0,0-1.15-.21s0,0,0,0a1.33,1.33,0,0,1-.1-.34s0-.06.06-.07c1.2-.4,1.5-1.65,1.57-2.81a7.71,7.71,0,0,1-.08-1.07.09.09,0,0,1,.08-.07c1.5.09.56,2,1.19,2.8.24.3.54.31.89.38s.54.14.58.42c.1.61-.62.82-1.06,1.06A9.2,9.2,0,0,0,898.39,245.51Z"/><path class="cls-40" d="M901.43,243.5a6.08,6.08,0,0,0-1.79-2.56,4.61,4.61,0,0,0-3.1-.9,4.4,4.4,0,0,0-1.73.49,3,3,0,0,0-1.12,1.21,4.06,4.06,0,0,0-.32,2.4,1.44,1.44,0,0,0,1.65-.28,3.78,3.78,0,0,0,.66-2,4.3,4.3,0,0,0,0-.95.55.55,0,0,1,0-.4c.22-.27.72-.17,1-.21a2,2,0,0,1,1.29.05c.15.09.15.3.12.45a4.33,4.33,0,0,0-.11,1,2.87,2.87,0,0,0,.78,2.09,1.78,1.78,0,0,0,2,.32,0,0,0,0,1,.06,0,2.62,2.62,0,0,1,.33.91C902,244.9,901.72,244.09,901.43,243.5Z"/><path class="cls-34" d="M902.94,236.45a1.4,1.4,0,0,0-1.4-.75c-.75.16-.94.84-1.18,1.47a11.66,11.66,0,0,1-1.51,2.07,3.71,3.71,0,0,0-.51,2.46,3.29,3.29,0,0,0,.76,1.93,1.59,1.59,0,0,0,2.26-.26,6.46,6.46,0,0,0,1.73-3A4.89,4.89,0,0,0,902.94,236.45Z"/><g class="cls-23"><path class="cls-34" d="M902.94,236.45a1.4,1.4,0,0,0-1.4-.75c-.75.16-.94.84-1.18,1.47a11.66,11.66,0,0,1-1.51,2.07,3.71,3.71,0,0,0-.51,2.46,3.29,3.29,0,0,0,.76,1.93,1.59,1.59,0,0,0,2.26-.26,6.46,6.46,0,0,0,1.73-3A4.89,4.89,0,0,0,902.94,236.45Zm-.37,3a3.84,3.84,0,0,1-.78,1.67c-.55.63-2.33,1.47-2.82.36a2.12,2.12,0,0,1,.38-2.23c.32-.42.8-.82,1.09-1.27s.4-1.5,1-1.83a1.08,1.08,0,0,1,.82.1,1.31,1.31,0,0,1,.41.57,3.94,3.94,0,0,1,0,2.33Z"/></g><path class="cls-34" d="M894.64,244a4.29,4.29,0,0,0,.79-3.81,3.82,3.82,0,0,0-.35-1,5.49,5.49,0,0,1-.42-1.32,2.09,2.09,0,0,0-.59-1.16.63.63,0,0,0-.2-.13.69.69,0,0,0-.2,0,1.41,1.41,0,0,0-.4.27,4.61,4.61,0,0,0-1.09,3.29,6.15,6.15,0,0,0,.61,3.08c.36.68,1,1.24,1.73.84Z"/><path class="cls-41" d="M895.43,240.21a3.82,3.82,0,0,0-.35-1,5.49,5.49,0,0,1-.42-1.32,2.09,2.09,0,0,0-.59-1.16.63.63,0,0,0-.2-.13.69.69,0,0,0-.2,0l-.24.13a1.48,1.48,0,0,1,.49,1.42,2.82,2.82,0,0,0,.05,1.26,6.13,6.13,0,0,1,.29.92,2.51,2.51,0,0,1-.1,1.33.85.85,0,0,1-.92.56,1.19,1.19,0,0,1-.91-.67,2,2,0,0,1-.1-.21,5.14,5.14,0,0,0,.56,1.9c.36.68,1,1.24,1.73.84l.12-.07A4.29,4.29,0,0,0,895.43,240.21Z"/><path class="cls-42" d="M908.83,226.35c-.85-.51-3.92.82-3.92.82-4,2.19-5.22,7.54-5.47,8.51a.24.24,0,0,1,0,.08,1.29,1.29,0,0,1-.29.32,4.85,4.85,0,0,1-.61.29.51.51,0,0,0-.16.73c.14.28.63.14.82,0l.05,0,.09,0c1-.73,1.89-5.81,3.77-7.6s3.95-2.34,4.53-2.19,1.09.13,1.33-.21S908.83,226.35,908.83,226.35Z"/><path class="cls-43" d="M898.87,236.22a3.68,3.68,0,0,0-.35.15.51.51,0,0,0-.16.73c.14.28.63.14.82,0l.05,0,.09,0,.13-.13A2.24,2.24,0,0,1,898.87,236.22Z"/><path class="cls-43" d="M899.37,235.84a1.36,1.36,0,0,1-.24.24l0,0a3.15,3.15,0,0,0,.19.27,1.85,1.85,0,0,0,.31.35,3.73,3.73,0,0,0,.3-.54A1.33,1.33,0,0,1,899.37,235.84Z"/><path class="cls-43" d="M900,233.9q-.13.42-.24.78a1.06,1.06,0,0,0,.68.25l.31-.84A1.42,1.42,0,0,1,900,233.9Z"/><path class="cls-43" d="M900.26,233.05c-.08.21-.16.42-.22.61a1.29,1.29,0,0,0,.74.22c.06-.17.12-.34.19-.51A1.68,1.68,0,0,1,900.26,233.05Z"/><path class="cls-43" d="M901.18,231.11c-.17.3-.32.6-.46.89a1.68,1.68,0,0,0,.61.44c.1-.25.21-.5.32-.74A1.73,1.73,0,0,1,901.18,231.11Z"/><path class="cls-43" d="M902.44,229.25c-.18.22-.35.44-.51.67a2.12,2.12,0,0,0,.36.57,5.53,5.53,0,0,1,.49-.71A2.19,2.19,0,0,1,902.44,229.25Z"/><path class="cls-43" d="M903,228.66c-.12.13-.24.25-.35.38a1.74,1.74,0,0,0,.33.54,1.59,1.59,0,0,1,.13-.13c.11-.1.22-.21.33-.3A1.74,1.74,0,0,1,903,228.66Z"/><path class="cls-43" d="M903.74,228c-.2.16-.39.33-.57.5a1.6,1.6,0,0,0,.44.52c.2-.17.4-.32.6-.46A1.24,1.24,0,0,1,903.74,228Z"/><path class="cls-43" d="M904.52,227.4c-.2.13-.39.27-.58.41a1.06,1.06,0,0,0,.5.56l.43-.26A2.05,2.05,0,0,1,904.52,227.4Z"/><path class="cls-43" d="M905.56,226.91l-.65.26-.17.1a2,2,0,0,0,.36.71c.2-.1.4-.2.59-.28A2.34,2.34,0,0,1,905.56,226.91Z"/><path class="cls-43" d="M907.57,226.31a8.65,8.65,0,0,0-.94.24,2.1,2.1,0,0,0,.17.77,2.26,2.26,0,0,1,.72-.07A4.21,4.21,0,0,1,907.57,226.31Z"/><path class="cls-43" d="M908.83,226.35a1.74,1.74,0,0,0-1-.08,3.24,3.24,0,0,0,0,1,1.11,1.11,0,0,0,1.18-.25C909.19,226.72,908.83,226.35,908.83,226.35Z"/><path class="cls-43" d="M906.4,226.62l-.62.21a2.5,2.5,0,0,0,.14.77c.22-.09.44-.16.63-.22A2.23,2.23,0,0,1,906.4,226.62Z"/><path class="cls-43" d="M901.76,230.16c-.15.22-.29.45-.42.67a2.13,2.13,0,0,0,.18.31,2.61,2.61,0,0,0,.25.31,7.55,7.55,0,0,1,.39-.75A1.59,1.59,0,0,1,901.76,230.16Z"/><path class="cls-43" d="M900.6,232.26l-.24.55a1.86,1.86,0,0,0,.68.36c.07-.17.13-.34.2-.5A2,2,0,0,1,900.6,232.26Z"/><path class="cls-43" d="M899.64,234.94c-.08.25-.13.47-.17.62a1.19,1.19,0,0,0,.51.41c.11-.25.22-.53.34-.84A1.17,1.17,0,0,1,899.64,234.94Z"/><path class="cls-44" d="M908.86,226.39a.32.32,0,0,1-.09.43.65.65,0,0,1-.58.14,1.74,1.74,0,0,0-.71-.15,3,3,0,0,0-.66.1,7.93,7.93,0,0,0-2.26,1,8.48,8.48,0,0,0-2.93,3.38,20.48,20.48,0,0,0-.91,2.1,17.66,17.66,0,0,1-.87,2.37c-.19.35-.53,1-1,.93a.26.26,0,0,1-.24-.37l-.06,0a.51.51,0,0,0-.16.73c.14.28.63.14.82,0l.05,0,.09,0c1-.73,1.89-5.81,3.77-7.6s3.95-2.34,4.53-2.19,1.09.13,1.33-.21A.53.53,0,0,0,908.86,226.39Z"/><path class="cls-42" d="M895.87,236.49a5.43,5.43,0,0,0-.61-.64,9.62,9.62,0,0,1-.87-1.22,21,21,0,0,0-2.88-3.15,8,8,0,0,0-2-1.33c-2.92-1.28-5.26-2-5.87-1.55s-.12,1,.76.82,5.32,1,7.72,3.53a30.06,30.06,0,0,1,2.74,3.43c.15.21.74,1.76,1.17.93A.75.75,0,0,0,895.87,236.49Z"/><path class="cls-43" d="M884.41,229.42a1.47,1.47,0,0,0-.21-.95,1,1,0,0,0-.59.13c-.6.46-.12,1,.76.82Z"/><path class="cls-43" d="M885.57,229.53a1.7,1.7,0,0,0-.25-.9,8.09,8.09,0,0,0-.82-.15,1.79,1.79,0,0,1,.14.92A6,6,0,0,1,885.57,229.53Z"/><path class="cls-43" d="M886.2,229.69a1.59,1.59,0,0,0-.18-.86l-.37-.11a2,2,0,0,1,.14.86Z"/><path class="cls-43" d="M887,229.94a1.72,1.72,0,0,0-.11-.81l-.58-.2a1.6,1.6,0,0,1,.06.81Z"/><path class="cls-43" d="M888.11,230.35a2,2,0,0,0-.07-.8l-.83-.32a1.87,1.87,0,0,1,0,.78C887.52,230.11,887.81,230.23,888.11,230.35Z"/><path class="cls-43" d="M888.83,230.68a1.55,1.55,0,0,0,0-.8l-.54-.22a1.66,1.66,0,0,1,0,.77Z"/><path class="cls-43" d="M889.83,231.21c0-.12,0-.24.07-.32a2.86,2.86,0,0,0,0-.52l-.45-.22-.37-.16a1.91,1.91,0,0,1-.1.78C889.28,230.9,889.56,231.05,889.83,231.21Z"/><path class="cls-43" d="M892,231.91c-.15-.15-.31-.29-.47-.43l-.37-.31a2.71,2.71,0,0,1-.16.8,9.3,9.3,0,0,1,.83.7A2.32,2.32,0,0,0,892,231.91Z"/><path class="cls-43" d="M892.7,233.62a2.13,2.13,0,0,0,.23-.74q-.36-.4-.75-.78a2.27,2.27,0,0,1-.23.71l.14.14C892.3,233.17,892.51,233.39,892.7,233.62Z"/><path class="cls-43" d="M893.7,233.77c-.19-.24-.39-.47-.59-.69a2.91,2.91,0,0,1-.27.69l.58.72A2.63,2.63,0,0,0,893.7,233.77Z"/><path class="cls-43" d="M894.29,235.32a1.14,1.14,0,0,0,.3-.4,3,3,0,0,0-.2-.29c-.17-.23-.35-.45-.53-.67a2.82,2.82,0,0,1-.32.68l.6.79Z"/><path class="cls-43" d="M895.06,235.63a4.72,4.72,0,0,1-.35-.52l-.06.1a1.3,1.3,0,0,1-.41.36l.45.61A3.78,3.78,0,0,0,895.06,235.63Z"/><path class="cls-43" d="M895.26,235.85a.46.46,0,0,1-.07-.07,5.12,5.12,0,0,1-.4.55l0,0c.06.09.2.4.37.69a1.37,1.37,0,0,0,.63-.63A5.41,5.41,0,0,0,895.26,235.85Z"/><path class="cls-43" d="M890.92,231a7.52,7.52,0,0,0-.75-.5,2.29,2.29,0,0,1-.15.82c.27.17.54.34.8.53A2.71,2.71,0,0,0,890.92,231Z"/><path class="cls-43" d="M895.3,237.22c.22.32.48.51.7.09a.73.73,0,0,0,0-.7A1.79,1.79,0,0,1,895.3,237.22Z"/><path class="cls-44" d="M895.87,236.49a5.43,5.43,0,0,0-.61-.64,9.62,9.62,0,0,1-.87-1.22,21,21,0,0,0-2.88-3.15,8,8,0,0,0-2-1.33c-1.25-.54-2.39-1-3.33-1.29l.22.09a21.11,21.11,0,0,1,2,.86,14.65,14.65,0,0,1,3.57,2.41,12.53,12.53,0,0,1,1.62,1.79c.47.64.86,1.39,1.39,2,.22.24.84.76.54,1.14a.23.23,0,0,1-.19.11c.21.3.47.47.68.06A.75.75,0,0,0,895.87,236.49Z"/><path class="cls-45" d="M893.85,237.9a1.65,1.65,0,0,0-.41-.86.1.1,0,0,1-.05,0,3.17,3.17,0,0,0-.69,1.2l.58.6A4.27,4.27,0,0,1,893.85,237.9Z"/><path class="cls-46" d="M893,241.64a6.78,6.78,0,0,1,0-2l0-.11-.55-.38a7.26,7.26,0,0,0-.07,1.29c.08,2,.58,3,1.2,3.36A5.66,5.66,0,0,1,893,241.64Z"/><path class="cls-47" d="M900.8,237.8c.14-.3.25-.61.4-.9a1.75,1.75,0,0,1,.53-.63l-.17,0a1.19,1.19,0,0,0-.44.21c-.52.38-.63,1.09-1,1.59l.39.27A3.81,3.81,0,0,0,900.8,237.8Z"/><path class="cls-48" d="M900,239.05l0,0-.45-.3a6.88,6.88,0,0,0-.54.67,3.77,3.77,0,0,0-.51,2.46,4.26,4.26,0,0,0,.4,1.42C898.33,241.84,899.13,240.19,900,239.05Z"/><path class="cls-16" d="M908.93,243.41c-.26-.54-.45-1.13-.68-1.69-.09-.23-.27-.95-.52-1.05-.68-.28-1.05.42-1.36.89a.71.71,0,0,0-.07.73c.13.36.26.42,0,.92-.12.28-.25.56-.38.83a23.37,23.37,0,0,0-1.27,3.45c-.17.57-.3,1.14-.45,1.72a3.26,3.26,0,0,0-.17,1.11c.05.39.46.46.89.41a20.06,20.06,0,0,1-1.07,3.29,9.41,9.41,0,0,1-.62,1c-.12.17,0,.31.07.44a.41.41,0,0,0,.16.11v0a5.83,5.83,0,0,0-.53,1.06c0,.1,0,.21.14.18l.1,0-.09.11a1.56,1.56,0,0,0-.28.68c0,.22.12.26.27.23a1.4,1.4,0,0,0-.08.64c0,.2.17.24.34.24-.18.76-.27,1.55-.43,2.32-.1.47-.35,1.23.2,1.28q-.11.27-.24.54c-.16.3-.48.42-.72.62-.07.06-.18.24,0,.29a1.88,1.88,0,0,0,1.1,0,1.77,1.77,0,0,0,1.14-.49,1.8,1.8,0,0,0,.2-1.37.8.8,0,0,0,.45-.63,7.86,7.86,0,0,0-.25-1.59,10.18,10.18,0,0,1-.19-1.08c.21,0,.4-.08.43-.29a1.43,1.43,0,0,0,0-.54.33.33,0,0,0,.26-.22.76.76,0,0,0,0-.61,2.55,2.55,0,0,0-.4-.46.35.35,0,0,0,.2,0,.66.66,0,0,0,.31-.4,1,1,0,0,0,0-.63,1.82,1.82,0,0,1-.07-.25,2.77,2.77,0,0,0,.31-1.5c0-.8.18-1.65.28-2.45,0-.27.09-.54.15-.8a.21.21,0,0,0,.09-.18,1.25,1.25,0,0,0,.68-.49c.46-.56.25-1.22.39-1.9.18-.92.35-1.83.52-2.75a8.08,8.08,0,0,0,.1-1.47c0,.34.1.68.17,1,.14.68.21,1.3,1,1.42C910.14,246.27,909.13,243.82,908.93,243.41Z"/><path class="cls-27" d="M908.93,243.41c-.26-.54-.45-1.13-.68-1.69-.09-.23-.27-.95-.52-1.05-.68-.28-1.05.42-1.36.89a.51.51,0,0,0,0,.71c.12.12.21,0,.35,0a.87.87,0,0,1,.77.35,2.83,2.83,0,0,1,.3,1.53c0,.18.06.35.09.52.14.68.21,1.3,1,1.42C910.14,246.27,909.13,243.82,908.93,243.41Z"/><path class="cls-25" d="M909.07,243.74a.68.68,0,0,1-.17.31c-.53.54-.79-.6-.86-.93a7.34,7.34,0,0,0-.28-1c-.06-.16-.22-.71-.52-.53a.59.59,0,0,1-.27.14c-.39,0-.47-.17-.43-.42l-.17.27a.71.71,0,0,0-.07.73,3.2,3.2,0,0,1,.14.38.59.59,0,0,1,.38-.1c.2,0,.24.28.28.42a3.89,3.89,0,0,1,.21.74,2,2,0,0,1-.17.83c-.14.41-.27.81-.39,1.22-.22.79-.41,1.58-.55,2.38a2.9,2.9,0,0,1-.43,1.34,1.26,1.26,0,0,1-1.09.51c-.35,0-.46-.34-.48-.7a2.74,2.74,0,0,0-.14,1c.05.39.46.46.89.41h0c.24-.14.5-.2.55.15a2.62,2.62,0,0,1-.24,1.09c-.15.43-.3.86-.41,1.31a2.62,2.62,0,0,1-.82,1.58c-.23.14-.57.24-.71.07l-.06.1c-.12.17,0,.31.07.44l.11.09a4,4,0,0,1,.94-.21s0,0,0,0a1.71,1.71,0,0,1-1.46,1.4.11.11,0,0,0,.07.06h.06l.1,0,0,0c.3,0,.61-.18.88-.06s.23.49.07.68a1.16,1.16,0,0,1-.21.16l.09,0a.37.37,0,0,1,.1.58,1.42,1.42,0,0,1-1,.39.38.38,0,0,0,.27.08h0a.68.68,0,0,1,.4-.13c.25,0,.3.21.3.43s0,.66-.08,1,.07.75.07,1.14-.24.89-.78.89a1,1,0,0,1-.48-.09.35.35,0,0,0,.22.32c.28,0,.6-.12.91-.1,0,0,0,0,0,0-.06.7-1.1,1.7-1.87,1.5a.1.1,0,0,0,.06.05,1.88,1.88,0,0,0,1.1,0,1.77,1.77,0,0,0,1.14-.49,1.8,1.8,0,0,0,.2-1.37.8.8,0,0,0,.45-.63,7.86,7.86,0,0,0-.25-1.59,10.18,10.18,0,0,1-.19-1.08c.21,0,.4-.08.43-.29a1.43,1.43,0,0,0,0-.54.33.33,0,0,0,.26-.22.76.76,0,0,0,0-.61,2.55,2.55,0,0,0-.4-.46.35.35,0,0,0,.2,0,.66.66,0,0,0,.31-.4,1,1,0,0,0,0-.63,1.82,1.82,0,0,1-.07-.25,2.77,2.77,0,0,0,.31-1.5c0-.8.18-1.65.28-2.45,0-.27.09-.54.15-.8a.21.21,0,0,0,.09-.18,1.25,1.25,0,0,0,.68-.49c.46-.56.25-1.22.39-1.9.18-.92.35-1.83.52-2.75a8.08,8.08,0,0,0,.1-1.47c0,.34.1.68.17,1,.14.68.21,1.3,1,1.42C910,246.24,909.39,244.53,909.07,243.74Z"/><path class="cls-12" d="M909.89,236.44s4.9-8.63,11.43-12.18,12.09-3.74,12.85.27-2.46,7-5.9,8.14-15,3.92-17.22,4.86l-.24.15Z"/><path class="cls-12" d="M934.17,224.53c-.76-4-6.32-3.83-12.85-.27s-11.43,12.18-11.43,12.18l.92,1.24.24-.15c2.25-.94,13.79-3.7,17.22-4.86S934.93,228.54,934.17,224.53Zm-8.27,6.22a31.07,31.07,0,0,1-6.86,3.39,40.1,40.1,0,0,1-4.81,1.4c-.57.13-2.2.56-2.4-.37s.74-2.11,1.24-2.86a20.11,20.11,0,0,1,3.33-3.69,37.36,37.36,0,0,1,4-3.21,19.2,19.2,0,0,1,3.65-2.1,6,6,0,0,1,4.13-.33c1.94.82,1.7,3.37.76,4.83A10.74,10.74,0,0,1,925.9,230.75Z"/><path class="cls-13" d="M934.17,224.53a3.3,3.3,0,0,0-1.84-2.48c1.86,2.13,1.22,5.06-.62,7a13.06,13.06,0,0,1-3.38,2.62,22.55,22.55,0,0,1-4.6,1.66c-1.8.49-3.58,1-5.38,1.56-.88.26-1.81.45-2.66.78-.63.24-1.24.53-1.89.72-.85.24-2.19.36-2.51-.75a2.69,2.69,0,0,1,0-1.38c-.9,1.32-1.41,2.21-1.41,2.21l.92,1.24.24-.15c2.25-.94,13.79-3.7,17.22-4.86S934.93,228.54,934.17,224.53Z"/><path class="cls-14" d="M931.22,225.25a16.23,16.23,0,0,0-3.05,1.94,15.19,15.19,0,0,0-1.26,1.15c-.25.25-.52.47-.76.73s-.27.36-.41.53l-2,.7a5.27,5.27,0,0,1-.86-.42c-.27-.17-.51-.38-.76-.57a60,60,0,0,1,7.45-3.47h0c-1.2.42-2.37.9-3.53,1.41a27.19,27.19,0,0,1,1.59-2.27c.69-.81,1.44-1.59,2.11-2.42,0,0,0,0,0,0-.78.83-1.58,1.62-2.32,2.49a7.25,7.25,0,0,0-1.43,2.24c-1,.43-1.9.88-2.84,1.36a18.12,18.12,0,0,0,.67-1.87,5,5,0,0,0,.39-1.41c1.51-.82,3.06-1.56,4.65-2.25,0,0,0-.07,0-.06-.64.25-1.27.51-1.89.79a1.34,1.34,0,0,0,.17-.51c.08-.38.22-.76.33-1.13h0c-.23.55-.43,1.11-.62,1.67a0,0,0,0,0,0,0,45.39,45.39,0,0,0-5.38,2.86l.06-.12a9.59,9.59,0,0,1,.65-1,23.22,23.22,0,0,1,1.91-2.41s0,0,0,0a19.52,19.52,0,0,0-1.8,2.06,6.91,6.91,0,0,0-.6.92c-.1.19-.21.48-.34.69-.77.48-1.53,1-2.28,1.51s-1.42,1-2.1,1.59c.33-.57.62-1.16,1-1.72s.75-1,1.07-1.55c0,0,0,0,0,0-.41.58-.88,1.11-1.3,1.69a5,5,0,0,0-.9,1.7v0c-.66.54-1.3,1.1-1.93,1.67s-1.42,1.37-2.08,2.09c-.3.33-.58.67-.86,1a6.82,6.82,0,0,1-.82,1.08h0a2,2,0,0,0,.47-.49c.28-.35.57-.69.87-1,.65-.73,1.34-1.42,2.05-2.1l.77-.7a8.77,8.77,0,0,0-.5,1,5.58,5.58,0,0,0-.49,1.21,27.62,27.62,0,0,0-3,2.18s0,.08,0,0c1.38-.92,2.71-1.91,4.11-2.79l1.9-1.19a0,0,0,0,0,0,0h0c.77-.48,1.55-.95,2.34-1.4-.11.22-.25.44-.35.66a7.09,7.09,0,0,0-.37.9,44.73,44.73,0,0,0-7.85,4.25s0,.08,0,.06l1.86-1.09c.29.34,1.3.36,1.64.4a7.78,7.78,0,0,0,2.31-.06s0-.06,0-.06a12.68,12.68,0,0,1-3.84-.34c.91-.53,1.83-1,2.77-1.52h0a6,6,0,0,0,2.07.62,9.8,9.8,0,0,0,3,.09s0-.05,0-.05a12.14,12.14,0,0,1-5-.69c1.38-.71,2.81-1.32,4.23-1.93.63,0,1.29.19,1.89.22l.7,0a5.34,5.34,0,0,0,.59.76,5.77,5.77,0,0,0,1.05.79,0,0,0,1,0,0,0,9.37,9.37,0,0,0-.88-.79,10.13,10.13,0,0,0-.75-.73c.55,0,1.1,0,1.65-.06a25.78,25.78,0,0,0,5.33-1.24s0-.06,0-.05l-2,.53.07-.07a10.44,10.44,0,0,0,.85-1c.45-.53.87-1.06,1.27-1.61.38-.07.77-.13,1.15-.21,0,0,0,0,0,0-.37.07-.74.12-1.11.16a0,0,0,0,0-.07,0h0c-.47.07-.93.13-1.39.23a23,23,0,0,0-2.58.73l-.18.06c.33-.32.63-.68,1-1s.83-.77,1.26-1.13a19.28,19.28,0,0,1,3.16-2.14S931.26,225.23,931.22,225.25ZM915.5,233l-1.12.71a7.27,7.27,0,0,1,.39-.95c.19-.42.33-.87.56-1.27a45.39,45.39,0,0,1,3.6-2.88l.46-.33c-.27.42-.49.87-.75,1.29a17.72,17.72,0,0,0-1.26,2.25Zm2-1.28c.42-.69.79-1.41,1.2-2.1a11,11,0,0,0,.55-1.08c0-.11.12-.21.17-.32a47.41,47.41,0,0,1,4.7-2.89,12.89,12.89,0,0,1-.53,1.59c-.2.58-.41,1.16-.61,1.73-1.09.56-2.15,1.14-3.21,1.73v0h0v0h0C919,230.86,918.29,231.31,917.55,231.76Zm1.58.39c.12-.22.19-.49.29-.71s.25-.54.34-.82l.26-.14c.68-.39,1.37-.77,2.06-1.14a4.72,4.72,0,0,0,.83.71c.12.07.26.12.39.18l.27.14c-.85.31-1.7.63-2.54,1C920.4,231.61,919.76,231.87,919.13,232.15Zm9.21-3.21c.52-.13,1-.22,1.56-.31-.35.39-.66.83-1,1.23s-.47.59-.71.89a6.8,6.8,0,0,1-.4.57,19.61,19.61,0,0,1-3.49.61,14.25,14.25,0,0,1-2.53,0,9.66,9.66,0,0,0-1.35-.13l.44-.19c1.55-.67,3.15-1.26,4.75-1.81C926.52,229.49,927.41,229.18,928.34,228.94Z"/><path class="cls-34" d="M911.2,236.53a.76.76,0,1,1-1.11-.53C910.44,235.8,910.94,236,911.2,236.53Z"/><path class="cls-49" d="M910.71,236.44a.49.49,0,0,1-.13.67.47.47,0,0,1-.63-.25.48.48,0,0,1,.13-.67A.49.49,0,0,1,910.71,236.44Z"/><path class="cls-11" d="M895.83,235.86a3.24,3.24,0,0,1,2.09-.55,1.65,1.65,0,0,1,.46.52S897.56,235,895.83,235.86Z"/><path class="cls-15" d="M912.39,233.87s4.94-7.9,12.88-10.49c0,0,3-1.1,3.6,1.21,0,0-.81-1.9-4.9-.2C920.24,225.94,915.67,229.9,912.39,233.87Z"/><g class="cls-50"><path class="cls-51" d="M895.9,242l-.06-.19a7.08,7.08,0,0,1-.11,1.12,2.19,2.19,0,0,1-1.2,1.51.69.69,0,0,0,0,.13C895.71,244.27,895.94,243.08,895.9,242Z"/><path class="cls-51" d="M896.75,245.48a1.8,1.8,0,0,1-1-.66l-.06,0a.88.88,0,0,0-.56-.17,2.4,2.4,0,0,0-.38.12c.17,0,.34.05.51.1.34.1.61.46.89.67a1.29,1.29,0,0,0,1.41,0l0,0A1.48,1.48,0,0,1,896.75,245.48Z"/><path class="cls-51" d="M895.53,249c-.43-.7-.7-1.48-1.08-2.2a6.61,6.61,0,0,0,2.12,3.63s0-.07,0-.11A8.49,8.49,0,0,1,895.53,249Z"/><path class="cls-51" d="M898.54,248.64c-.24-.25,0-.44.1-.65s.11-.24.06-.33a1.58,1.58,0,0,0-.29-.39s0,0,0,0c.16.47,0,.65-.25,1a.32.32,0,0,0,0,.31c.19.28.47.44.3.84a2.41,2.41,0,0,0-.24.65l.09-.07a3.58,3.58,0,0,0,.44-.95A1.46,1.46,0,0,0,898.54,248.64Z"/></g><path class="cls-52" d="M906.93,226.65a8,8,0,0,0-4.79,3.14c-1.41,1.89-2,4.15-2.65,6.37,0,0,0,0,0,0a31,31,0,0,1,2.27-5.6,8.62,8.62,0,0,1,5.12-3.91Z"/><path class="cls-52" d="M895.31,236.77a15.74,15.74,0,0,0-1-1.53,15,15,0,0,0-2.1-2.61c-.4-.36-.83-.67-1.25-1a12.74,12.74,0,0,0-3.5-1.93,10,10,0,0,0-1.92-.55,11.07,11.07,0,0,1-1.92-.11s0,0,0,0a1.41,1.41,0,0,0,1,.2,6.59,6.59,0,0,1,2.36.45,13.41,13.41,0,0,1,3.73,1.9,9.73,9.73,0,0,1,1.18.94,19.66,19.66,0,0,1,2.3,2.77c.35.51.72,1,1.1,1.48C895.29,236.82,895.32,236.79,895.31,236.77Z"/><path class="cls-53" d="M902.91,233.58a8.62,8.62,0,0,1,5.87.77s-.45.61.2,1.74c0,0-1.05-.4-1-1.17C908,234.92,907.32,233.5,902.91,233.58Z"/><path class="cls-54" d="M894.56,250.7a1.22,1.22,0,0,1-.21-.48,3.78,3.78,0,0,0-.06-.47c-.06-.41-.08-.82-.13-1.22h0A14.2,14.2,0,0,0,894,250c0,.4,0,.74.37.91A.15.15,0,0,0,894.56,250.7Z"/><path class="cls-54" d="M897.05,256.39c-.27-.12-.36-.52-.47-.77s-.34-.72-.48-1.1-.27-.66-.41-1a6.08,6.08,0,0,1-.61-1.19s0,0,0,0v0s0,0,0,0c0,.41.21.67.39,1a11,11,0,0,1,.58,1.37,9.51,9.51,0,0,1,.54,1.37.38.38,0,0,0,.4.35C897.05,256.54,897.13,256.43,897.05,256.39Z"/><path class="cls-54" d="M897.26,256.92c0-.06-.08,0-.09,0a1.57,1.57,0,0,0,0,.24c0,.07,0,.17.05.23s.12,0,.15-.07S897.29,257.05,897.26,256.92Z"/><path class="cls-54" d="M897.64,258.2a.36.36,0,0,1,0-.25s0,0,0,0a.46.46,0,0,0-.06.23c0,.07,0,.21.07.23a.07.07,0,0,0,.08,0A.18.18,0,0,0,897.64,258.2Z"/><path class="cls-54" d="M898.06,258.76s-.07,0-.07,0a.63.63,0,0,0,.09.35s.09,0,.1-.05S898.08,258.88,898.06,258.76Z"/><path class="cls-54" d="M900.17,262.12c-.88-.5-1.08-1.59-1.57-2.4,0,0,0,0,0,0,0,.22,0,.44.06.67a3,3,0,0,0,.31.77,1.81,1.81,0,0,0,1.15,1.06S900.24,262.16,900.17,262.12Z"/><path class="cls-54" d="M905,251c-.21.68-.4,1.37-.6,2.05-.09.29-.17.59-.28.88a3.65,3.65,0,0,1-.52.76c0,.06,0,.11.08.07a2,2,0,0,0,.79-1.33c.21-.82.41-1.61.55-2.43C905.05,251,905,251,905,251Z"/><path class="cls-54" d="M903.66,255.67a2,2,0,0,0-.28.41,2.38,2.38,0,0,0-.24.51c0,.07,0,.11.1.06.29-.24.27-.65.45-1C903.7,255.66,903.68,255.66,903.66,255.67Z"/><path class="cls-54" d="M903.37,256.92c-.13.1-.35.25-.32.44s.09.06.14,0,0,0,0,0,0,0,0,0h0v0s0-.08,0-.12a.55.55,0,0,1,.12-.24S903.38,256.91,903.37,256.92Z"/><path class="cls-54" d="M903.34,258.05a1,1,0,0,1,0-.17s0,0,0,0a.65.65,0,0,0-.18.37c0,.16.22.08.22-.05A.77.77,0,0,0,903.34,258.05Z"/><path class="cls-54" d="M903.52,258.72a5.72,5.72,0,0,0-.24,1.62,4.07,4.07,0,0,1-.28,1.13c-.09.19,0,.24.1.37s.13,0,.11-.11c-.08-.23.1-.54.14-.76s.11-.56.14-.84c0-.49,0-.93.06-1.41C903.55,258.7,903.53,258.71,903.52,258.72Z"/><path class="cls-54" d="M903.37,262.3a3.92,3.92,0,0,1-.47.75,1.2,1.2,0,0,1-.29.26c-.13.09-.24.22-.37.32s0,.09,0,.07a1.54,1.54,0,0,0,.74-.54,2,2,0,0,0,.38-.86Z"/><path class="cls-54" d="M906.71,243a19.13,19.13,0,0,0-2.13,6.53c0,.05,0,0,.06,0a36.38,36.38,0,0,1,2.08-6.52Z"/><path class="cls-54" d="M907.52,240.7c-.27,0-.48.27-.61.46h0c.16-.13.32-.3.56-.23s.27.27.35.39.12,0,.12,0A.53.53,0,0,0,907.52,240.7Z"/><path class="cls-54" d="M902.77,248.06h0a22.47,22.47,0,0,1-.37,2.42c-.07.35,0,1.07-.32,1.31a.43.43,0,0,0-.13.28c0,.06.06,0,.08,0,.15-.22.3-.27.39-.51a5.39,5.39,0,0,0,.2-1A15.54,15.54,0,0,0,902.77,248.06Z"/><path class="cls-54" d="M905.52,262.54l-.09-.09a.34.34,0,0,1-.09-.19.11.11,0,0,0-.06-.09s0,0,0,0,0,.21,0,.26a.62.62,0,0,0,0,.19.28.28,0,0,0,.06.18.2.2,0,0,0,.25,0C905.56,262.72,905.6,262.6,905.52,262.54Z"/><path class="cls-54" d="M905.18,261.65s0-.06-.06-.1,0,0-.06,0,0,.11.05.14S905.19,261.68,905.18,261.65Z"/><path class="cls-54" d="M908.2,267.75c-.23-.09-.47-.14-.69-.24a5.54,5.54,0,0,1-.92-.59c-.53-.36-.63-1.42-.74-2,0,0,0,0,0,0,0,.6,0,1.57.44,2.05a3.49,3.49,0,0,0,1.88.85S908.24,267.77,908.2,267.75Z"/><path class="cls-54" d="M908,250.31a5.83,5.83,0,0,0-.16-2.25s0,0,0,0a17,17,0,0,1,0,2.47c0,.13.07,1,0,1.05s-.16.23-.17.35.08.05.1,0,.22-.21.26-.34A4.35,4.35,0,0,0,908,250.31Z"/><path class="cls-54" d="M909.59,256c-.19-.21-.13-.54-.17-.8s-.17-.51-.24-.77c-.12-.47-.35-.9-.48-1.37,0,0,0,0,0,0a6.94,6.94,0,0,0,.43,1.59l.18.6c.07.22,0,.32,0,.5s.08.25.25.32A.06.06,0,0,0,909.59,256Z"/><path class="cls-54" d="M909.88,256.89h0c.07.22.13.43.21.64a3.83,3.83,0,0,0,.22.65c0,.06.11,0,.11-.06A3.38,3.38,0,0,0,909.88,256.89Z"/><path class="cls-54" d="M914.12,265.26a2.45,2.45,0,0,1-1.19-1,5.94,5.94,0,0,1-.53-1.34s0,0,0,0a5.65,5.65,0,0,0,.48,1.56,1.88,1.88,0,0,0,1.24.76S914.14,265.27,914.12,265.26Z"/><path class="cls-54" d="M916.1,238.58c-.47.33-.59.95-1,1.37a20.16,20.16,0,0,1-1.55,1.78c-.51.5-1,1-1.51,1.49a4.15,4.15,0,0,0-1.05,1.21s0,0,0,0,.05-.08.22-.29a10.07,10.07,0,0,1,.9-.82A14.22,14.22,0,0,0,913.6,242c.47-.53,1-1,1.44-1.58s.63-1.24,1.09-1.75C916.16,238.6,916.14,238.55,916.1,238.58Z"/><path class="cls-54" d="M916.83,248.31s0,0,0,0c-.11.27-.39.41-.48.7a.5.5,0,0,0,.2.59c.07.05.16,0,.16-.12a3.42,3.42,0,0,1,0-.64A3.71,3.71,0,0,0,916.83,248.31Z"/><path class="cls-54" d="M916.35,253.79h0c-.13.65-.32,1.3-.44,1.95-.1.48-.2.93.2,1.29.06.06.19-.05.17-.13A9.38,9.38,0,0,1,916.35,253.79Z"/><path class="cls-54" d="M916.56,258.24a1.77,1.77,0,0,1,0-.23.76.76,0,0,1,0-.3s0,0,0,0a1.25,1.25,0,0,0-.26.48c0,.14-.11.41,0,.51s.11,0,.15,0A.46.46,0,0,0,916.56,258.24Z"/><path class="cls-54" d="M916.71,260a1.18,1.18,0,0,1,0-.42s0,0,0,0a.87.87,0,0,0-.09.36.68.68,0,0,0,0,.4c0,.08.14,0,.16-.05A.44.44,0,0,0,916.71,260Z"/><path class="cls-54" d="M917,261.32s0,0,0-.07,0,0,0,0a.23.23,0,0,0-.07.1.14.14,0,0,0,0,.14s.11,0,.1-.07A.1.1,0,0,0,917,261.32Z"/><path class="cls-54" d="M918.16,264.14a2.82,2.82,0,0,0-.44-.47,1.34,1.34,0,0,1-.36-.89s0,0,0,0a1.08,1.08,0,0,0,.26,1,3.13,3.13,0,0,1,.85,1.44c0,.05.08,0,.08,0A2.1,2.1,0,0,0,918.16,264.14Z"/><path class="cls-54" d="M920.22,235.3c-.78,1-1.86,1.81-2.6,2.87,0,0,0,.06,0,0a15.6,15.6,0,0,0,2.56-2.89S920.22,235.29,920.22,235.3Z"/><path class="cls-54" d="M921.9,245.21c0-.37-.28-.71-.35-1.07s-.11-.76-.16-1.13c-.18-1.57-.33-3.15-.43-4.73h0a37.92,37.92,0,0,0,.25,4.4,9.26,9.26,0,0,0,.27,1.9c.08.24.18.47.25.71s-.15.48-.27.67a1.38,1.38,0,0,0-.18.72c0,.08.1,0,.11,0C921.52,246.19,922,245.72,921.9,245.21Z"/><path class="cls-54" d="M924.73,253.2c-.28-.47-.56-.94-.85-1.4a14.11,14.11,0,0,1-1.56-2.75h0a9.48,9.48,0,0,0,1.34,2.68c.27.48.63.92.88,1.42a1.12,1.12,0,0,1,.14.75,1,1,0,0,0,.08.48c0,.06.13,0,.12-.07C924.81,253.89,925,253.57,924.73,253.2Z"/><path class="cls-54" d="M925.54,255a.8.8,0,0,0-.11-.25h0c0,.14-.16.67.14.62.05,0,.08-.05.09-.09S925.58,255.08,925.54,255Z"/><path class="cls-54" d="M926.18,256.05s0-.05,0-.08,0-.05,0-.08,0,0,0,0,0,.08,0,.11,0,.05,0,.08a.54.54,0,0,0,.06.25s.1,0,.1-.07A1,1,0,0,0,926.18,256.05Z"/><path class="cls-54" d="M926.67,257.09c0-.06-.07,0-.09,0a.36.36,0,0,0,.06.33s.1,0,.1-.07S926.66,257.19,926.67,257.09Z"/><path class="cls-54" d="M927.18,258.28s0-.08,0-.12a0,0,0,0,0-.07,0,.8.8,0,0,0,0,.21c0,.06,0,.1.1.07l0,0S927.22,258.31,927.18,258.28Z"/><path class="cls-54" d="M928,260.17c0-.28,0-.58-.15-.8s-.49.11-.36-.31h0c-.1.14-.18.37-.08.51l.06,0c.4-.1.31.82.38,1.06.25.77.84,1.37.77,2.24,0,0,.05,0,.06,0C928.87,261.89,928.2,261.11,928,260.17Z"/><path class="cls-54" d="M914.71,252.51a7.19,7.19,0,0,1-3.76-1,3.39,3.39,0,0,1-1-1.06,7.71,7.71,0,0,1-.34-1.72s0,0,0,0a16.49,16.49,0,0,0,.15,1.84c.11.48.65.89,1,1.19,1.07.92,2.67.85,4,.77C914.71,252.57,914.75,252.51,914.71,252.51Z"/><path class="cls-54" d="M914.43,247.85a15.22,15.22,0,0,1-3-.16c-.17,0-1.59-.32-1.56-.64A7.45,7.45,0,0,1,910,246h0a7,7,0,0,0-.3,1.2c-.07.31.84.58,1,.64a7.75,7.75,0,0,0,3.77.11S914.48,247.85,914.43,247.85Z"/><path class="cls-54" d="M915.08,256a9.34,9.34,0,0,1-2.81-.64,3.17,3.17,0,0,1-1.64-2.05l0,0a3.25,3.25,0,0,0,1.31,2.24,5.3,5.3,0,0,0,3.13.54C915.1,256.15,915.15,256,915.08,256Z"/><path class="cls-54" d="M915.93,259.82c-.39-.16-.79-.26-1.16-.45a3.29,3.29,0,0,1-1.22-1.18s0,0,0,0a4.08,4.08,0,0,0,1,1.31,1.89,1.89,0,0,0,1.37.46C915.92,260,916,259.85,915.93,259.82Z"/><path class="cls-54" d="M923.19,257.62a20.52,20.52,0,0,1-2.5,1.41,14.93,14.93,0,0,1-1.43.47,3.24,3.24,0,0,1-1.4.24s-.05,0,0,.06a1.59,1.59,0,0,0,1,0,11.28,11.28,0,0,0,1.63-.47,10.22,10.22,0,0,0,2.73-1.67S923.23,257.59,923.19,257.62Z"/><path class="cls-54" d="M922.31,261.93a9.91,9.91,0,0,1-3.15,1.32s0,0,0,0a4.31,4.31,0,0,0,3.21-1.19C922.42,262,922.43,261.87,922.31,261.93Z"/><path class="cls-54" d="M919.6,240.87h0c.16.19,0,.7,0,.9-.1.43-.18.86-.29,1.29a6.89,6.89,0,0,1-1.2,2.33s0,.07,0,0a6.06,6.06,0,0,0,1.37-2.38,9.19,9.19,0,0,0,.24-1.47C919.75,241.38,919.77,241,919.6,240.87Z"/><path class="cls-54" d="M920.75,248.7a5.81,5.81,0,0,1-1.21.87A4.1,4.1,0,0,1,918,250s0,0,0,0a3,3,0,0,0,1.53-.26,3.34,3.34,0,0,0,1.26-1S920.8,248.67,920.75,248.7Z"/><path class="cls-54" d="M922.41,252.07c-.63.59-2.18.92-2.85.22h0c.62.93,2.29.53,2.91-.18C922.5,252.07,922.45,252,922.41,252.07Z"/><path class="cls-54" d="M924.4,255.31a2.9,2.9,0,0,1-2.53.36s0,0,0,.06a2.31,2.31,0,0,0,1.44.21,1.89,1.89,0,0,0,1.15-.59S924.44,255.28,924.4,255.31Z"/><path class="cls-54" d="M920.11,250.06a18.33,18.33,0,0,1-2,1.42,6.71,6.71,0,0,1-2.43,1,0,0,0,0,0,0,0,2.89,2.89,0,0,0,1-.25,5.11,5.11,0,0,0,1.14-.45,12.24,12.24,0,0,0,2.32-1.72S920.15,250,920.11,250.06Z"/><path class="cls-54" d="M921.52,254.47a17,17,0,0,1-3.88,2.68s0,0,0,0a9.57,9.57,0,0,0,3.91-2.67S921.55,254.44,921.52,254.47Z"/><path class="cls-54" d="M923.49,262.23a15.61,15.61,0,0,1-1.5,1.06,3.9,3.9,0,0,1-1.67.7h0c.5.1,1.12-.3,1.56-.48a4.93,4.93,0,0,0,1.66-1.23S923.53,262.2,923.49,262.23Z"/></g></g></g></g></svg>