<svg xmlns="http://www.w3.org/2000/svg" xmlns:xlink="http://www.w3.org/1999/xlink" viewBox="0 0 512 512"><defs><style>.cls-1{fill:none;}.cls-2{isolation:isolate;}.cls-3{clip-path:url(#clip-path);}.cls-4{fill:url(#Áåçûìÿííûé_ãðàäèåíò_29);}.cls-5{fill:#312c5f;}.cls-6{fill:url(#Áåçûìÿííûé_ãðàäèåíò_29-2);}.cls-7,.cls-8{fill:#fff;}.cls-7{mix-blend-mode:soft-light;}.cls-10,.cls-9{fill:#24241e;}.cls-9{stroke:#1e1515;}.cls-11,.cls-12,.cls-13,.cls-16,.cls-9{stroke-miterlimit:10;}.cls-11{fill:#ea6224;}.cls-11,.cls-13{stroke:#491313;stroke-width:2px;}.cls-12{fill:#f5c190;stroke:#471616;}.cls-13{fill:#ec1c24;}.cls-14{fill:#40414c;}.cls-15{fill:#54545f;}.cls-16,.cls-20{fill:#f6fbfd;}.cls-16{stroke:#70645a;}.cls-17{fill:#451f16;}.cls-18{fill:#491313;}.cls-19{fill:#3b1212;}</style><clipPath id="clip-path"><rect class="cls-1" x="-1064" y="-920" width="1600" height="900"/></clipPath><linearGradient id="Áåçûìÿííûé_ãðàäèåíò_29" x1="835.76" y1="48.77" x2="1110.61" y2="48.77" gradientTransform="matrix(-1, 0, 0, 1, 1407.75, 0)" gradientUnits="userSpaceOnUse"><stop offset="0" stop-color="#312c5f"/><stop offset="1" stop-color="#36c2df"/></linearGradient><linearGradient id="Áåçûìÿííûé_ãðàäèåíò_29-2" x1="959.76" y1="52.43" x2="959.76" y2="-613.48" xlink:href="#Áåçûìÿííûé_ãðàäèåíò_29"/></defs><g class="cls-2"><g id="Layer_1" data-name="Layer 1"><g id="b"><g class="cls-3"><g id="b-2" data-name="b"><polygon class="cls-4" points="571.98 98.95 382.3 -1.42 297.14 -1.42 460.16 98.95 571.98 98.95"/><polygon class="cls-5" points="571.98 98.95 575 111.66 460.63 113.79 295.01 6.14 297.14 -1.42 460.16 98.95 571.98 98.95"/><polygon class="cls-6" points="407.73 -613.48 407.73 -604.16 412.22 -599.78 418.22 -593.97 428.58 -583.91 478.34 -535.66 442.93 52.43 468.19 52.43 488.25 -541.31 428.89 -594.52 418.22 -604.06 412.13 -609.54 407.73 -613.48"/><polygon class="cls-5" points="407.73 -604.16 407.73 -586.39 412.38 -581.53 418.22 -575.47 428.09 -565.2 458.49 -533.55 417.76 38.49 442.93 52.43 478.34 -535.66 428.58 -583.91 418.22 -593.97 412.22 -599.78 407.73 -604.16"/><polygon class="cls-7" points="560.74 97.32 461.92 97.32 302.71 -0.15 328.52 -0.15 472.05 91.35 560.74 97.32"/><polygon class="cls-7" points="428.66 -586.43 481.61 -536.71 442.94 52.44 478.34 -535.66 428.59 -583.9 428.66 -586.43"/><polygon class="cls-8" points="468.87 44.38 571.98 98.95 460.16 98.95 297.14 -1.42 461.92 97.32 564.18 97.32 468.87 44.38"/></g></g></g><g id="i"><g id="i-2" data-name="i"><path class="cls-9" d="M206.85,375.83c-2.83,1-22,21.74-7.71,53.62H184.86s-8.08-35.71,13.6-61.46Z"/><ellipse class="cls-9" cx="183.44" cy="436.38" rx="16.48" ry="8.48" transform="translate(-217.37 184.54) rotate(-35.06)"/><path class="cls-9" d="M276,374.1c-2.83,1-21.09,32.58-6.8,64.45H256.67S245.93,392,267.61,366.26Z"/><ellipse class="cls-9" cx="266.72" cy="447.16" rx="8.48" ry="16.48" transform="translate(-200.65 217.67) rotate(-33.03)"/><path class="cls-9" d="M298.65,315c3,.34,27.52,27.35,20.32,61.53l12.24-2.66s.62-47.76-26-68.32Z"/><ellipse class="cls-9" cx="332.14" cy="385.1" rx="8.48" ry="16.48" transform="translate(-172.65 323.37) rotate(-42.25)"/><path class="cls-9" d="M101.22,401.45c0,6.58,0,9.7-19.18,11.92-10.51,1.21-19.17,1.27-19.17-5.32S71.46,391.84,82,391.84,101.22,394.87,101.22,401.45Z"/><path class="cls-10" d="M168.72,347.26s-54.17,10.36-67.5,60.79l-8.19-16s14.89-44.82,65.33-53.12Z"/><path class="cls-11" d="M431,310.26S415.22,172.42,285.88,139.12c-91.92-23.66-141.95,24-155.5,40.7.79,0,149.92-42.55,247.21,128.59C377.59,309.34,431,310.26,431,310.26Z"/><path class="cls-12" d="M369.71,262s5.33,35.69-21.39,73c-67.47,94.26-341.87,62.42-304-24.93C42.82,312.1,369.71,262,369.71,262Z"/><path class="cls-13" d="M335.11,343.19c-56.94,39.88-253.1,63.75-291.63-3-23-40-7.46-141.61,90.83-180.28,47.07-18.52,98.52-14.34,143.58,10C360,214.14,405.21,294.08,335.11,343.19Z"/><path class="cls-9" d="M57.29,263.93A25.68,25.68,0,0,1,40,261.25c8-21.36,18.77-41.42,32.55-58.15a38.27,38.27,0,0,1,9,19.84C84.42,242.33,73.56,260.68,57.29,263.93Z"/><path class="cls-9" d="M183.39,287.76c0,15.24,17,27.59,38.05,27.59s38.05-12.35,38.05-27.59-17-27.59-38.05-27.59S183.39,272.52,183.39,287.76Z"/><path class="cls-9" d="M121,199.12c2,13,19.45,20.15,39,16s33.82-18,31.83-30.93-19.45-20.15-39-16S119,186.15,121,199.12Z"/><path class="cls-9" d="M82,284.33c0,14.41,13.74,26.08,30.7,26.08s30.7-11.67,30.7-26.08-13.75-26.07-30.7-26.07S82,269.93,82,284.33Z"/><path class="cls-9" d="M99.71,356.81c0,9.19,9.82,16.65,21.93,16.65s21.93-7.46,21.93-16.65-9.82-16.65-21.93-16.65S99.71,347.61,99.71,356.81Z"/><path class="cls-9" d="M209.77,352.28c0,9.19,9.82,16.65,21.93,16.65s21.93-7.46,21.93-16.65-9.81-16.65-21.93-16.65S209.77,343.08,209.77,352.28Z"/><path class="cls-9" d="M258.16,145.13C256,150,264.42,158.41,277,164s24.43,6.18,26.59,1.35-6.26-13.28-18.79-18.86S260.31,140.3,258.16,145.13Z"/><path class="cls-9" d="M322.55,177.08c-3.12,4.28,3.35,14.29,14.44,22.35s22.62,11.14,25.73,6.86-3.36-14.29-14.45-22.36S325.66,172.8,322.55,177.08Z"/><path class="cls-9" d="M262.08,246.77c0,8.43,7.46,15.26,16.66,15.26s16.65-6.83,16.65-15.26-7.46-15.26-16.65-15.26S262.08,238.34,262.08,246.77Z"/><path class="cls-9" d="M254.63,169.94c-16.7-2.35-27.44,2.47-28.86,12.53s7,21.58,23.73,23.93,31.38-3.91,32.8-14S271.32,172.29,254.63,169.94Z"/><path class="cls-14" d="M279.14,252.73c-4.22,60.06,32.64,93.25,101.9,91,54.07-1.72,96.28-34.66,96.19-86.49S431,158.6,376.94,158.7,281.87,214.08,279.14,252.73Z"/><path class="cls-15" d="M290.37,247.93c-.34,48.45,24.09,93,93.35,90.8,54.08-1.72,93.6-29.62,93.51-81.45S431,158.6,376.94,158.7,290.65,209.17,290.37,247.93Z"/><path d="M296.08,316c-13.52-15.64-19.43-36.94-17.58-63.31,2.65-37.62,43.27-94.56,98.44-94.67,53.68-.11,100.84,46.29,100.93,99.27.08,49.51-39.73,85.36-96.81,87.18-2.05.07-4.06.1-6.06.11C339.6,344.64,312.31,334.75,296.08,316Zm-16.29-63.21c-1.83,26,4,46.93,17.24,62.27,16,18.47,42.93,28.2,78,28.14,2,0,4,0,6-.11,56.35-1.8,95.65-37.08,95.56-85.79-.08-52.26-46.64-98-99.64-97.9C322.48,159.5,282.4,215.67,279.79,252.78Z"/><path class="cls-16" d="M399.2,190.9c-11.38,13.41-8.58,36.66,5.53,51s34.18,14.37,45.55,1,9.16-35.92-4.94-50.26S410.57,177.49,399.2,190.9Z"/><path class="cls-17" d="M434.27,226.42c4.29-9.46.72-21-8-25.73s-19.24-.93-23.53,8.54-.72,21,8,25.74S430,235.89,434.27,226.42Z"/><path class="cls-8" d="M423,204.66a5.55,5.55,0,0,0-1.19-6.72c-1.83-1.43-4.28-.75-5.46,1.53a5.56,5.56,0,0,0,1.19,6.72C419.32,207.62,421.77,206.93,423,204.66Z"/><path class="cls-16" d="M326.5,266.15c-15.63-8.79-20.62-32.67-11.56-52.17s28.76-27.24,44.38-18.45,20.95,31.72,11.88,51.21S342.12,274.93,326.5,266.15Z"/><path class="cls-17" d="M352.75,213.49c9.18,4.86,13.09,16.83,8.73,26.73s-15.34,14-24.52,9.11-13.08-16.83-8.73-26.73S343.57,208.62,352.75,213.49Z"/><path class="cls-8" d="M353.91,216.64a5.63,5.63,0,0,1,3,6.36,3.78,3.78,0,0,1-5.42,2.49,5.64,5.64,0,0,1-3-6.36A3.77,3.77,0,0,1,353.91,216.64Z"/><path class="cls-18" d="M401,168.33a56.52,56.52,0,0,1-1.85-8.2,72.18,72.18,0,0,1-.78-8.29,65.87,65.87,0,0,1,1.46-16.56,58.15,58.15,0,0,1,5.87-15.55,60.17,60.17,0,0,1,10-13.23,67.34,67.34,0,0,1,13.06-10.16,40.63,40.63,0,0,1,15.63-5.59A32.27,32.27,0,0,1,460.87,93l1.91.85c.63.3,1.23.67,1.84,1a38,38,0,0,1,3.5,2.27,39.31,39.31,0,0,1,6.09,5.65,43.7,43.7,0,0,1,10.73,30.51,36.81,36.81,0,0,1-4.49,15.78,35.46,35.46,0,0,1-4.91,6.63,30.93,30.93,0,0,1-3,2.81,28.57,28.57,0,0,1-3.48,2.24,22,22,0,0,1-7.83,2.58A24.62,24.62,0,0,1,453,163a26,26,0,0,1-7.66-2.93,28.71,28.71,0,0,1-6.46-5,22.46,22.46,0,0,1-6.52-14.67,19.15,19.15,0,0,1,1.5-8,26,26,0,0,1,4.47-6.79,26.15,26.15,0,0,0-4.39,6.82,19.16,19.16,0,0,0-1.39,8,22.19,22.19,0,0,0,6.6,14.41,28.29,28.29,0,0,0,6.42,4.88,25.48,25.48,0,0,0,7.54,2.79,22.4,22.4,0,0,0,15.57-2.33,28.38,28.38,0,0,0,3.34-2.21,30.51,30.51,0,0,0,2.91-2.77c.45-.5.92-1,1.34-1.5l1.2-1.61c.2-.27.41-.54.6-.81l.52-.86,1.05-1.72a35.82,35.82,0,0,0,4.19-15.38,42.44,42.44,0,0,0-10.73-29.47,38.07,38.07,0,0,0-5.91-5.36,34.65,34.65,0,0,0-3.37-2.12c-.59-.31-1.15-.65-1.75-.93l-1.83-.79a30.48,30.48,0,0,0-15.55-1.94,38.83,38.83,0,0,0-14.81,5.5,65.46,65.46,0,0,0-12.52,10,57.58,57.58,0,0,0-9.47,12.81,55.54,55.54,0,0,0-5.44,14.94,63.14,63.14,0,0,0-1.22,15.88,66,66,0,0,0,.84,7.94,53.89,53.89,0,0,0,1.81,7.69Z"/><path class="cls-18" d="M338.91,173.77a54.08,54.08,0,0,0,1.81-7.68,66.13,66.13,0,0,0,.84-8,63.14,63.14,0,0,0-1.22-15.88,55.54,55.54,0,0,0-5.44-14.94,57.58,57.58,0,0,0-9.47-12.81,65.46,65.46,0,0,0-12.52-10A38.83,38.83,0,0,0,298.1,99,30.48,30.48,0,0,0,282.55,101l-1.83.79c-.6.28-1.17.63-1.75.93a34.65,34.65,0,0,0-3.37,2.12,37.63,37.63,0,0,0-5.91,5.37A42.42,42.42,0,0,0,259,139.64,35.82,35.82,0,0,0,263.15,155l1.05,1.72.52.86c.19.27.4.54.6.81l1.2,1.61c.42.53.89,1,1.34,1.5a29.31,29.31,0,0,0,2.91,2.77,28.38,28.38,0,0,0,3.34,2.21,22.39,22.39,0,0,0,15.56,2.33,24.9,24.9,0,0,0,7.55-2.79,28,28,0,0,0,6.42-4.88,22.19,22.19,0,0,0,6.6-14.41,19.19,19.19,0,0,0-1.39-7.95,26.15,26.15,0,0,0-4.39-6.82,26,26,0,0,1,4.47,6.79,19.15,19.15,0,0,1,1.5,8,22.46,22.46,0,0,1-6.52,14.67,28.71,28.71,0,0,1-6.46,5,26.32,26.32,0,0,1-7.66,2.94,24.88,24.88,0,0,1-8.21.34,22.15,22.15,0,0,1-7.83-2.57,29.91,29.91,0,0,1-3.48-2.25,30.93,30.93,0,0,1-3-2.81,35.14,35.14,0,0,1-4.91-6.63,36.81,36.81,0,0,1-4.49-15.78,43.7,43.7,0,0,1,10.73-30.51,38.87,38.87,0,0,1,6.09-5.65,34.8,34.8,0,0,1,3.5-2.26c.61-.34,1.21-.71,1.84-1l1.91-.85a32.27,32.27,0,0,1,16.43-2.24A40.8,40.8,0,0,1,314,102.76,67.73,67.73,0,0,1,327,112.92a60.17,60.17,0,0,1,10,13.23,58.09,58.09,0,0,1,5.87,15.56,65.75,65.75,0,0,1,1.46,16.55,72.18,72.18,0,0,1-.78,8.29,56.52,56.52,0,0,1-1.85,8.2Z"/><path class="cls-19" d="M435.49,264.22c-12.17,6.48-43.09,20.45-74.91,15.07a3,3,0,0,0-2.74,4.87c8.55,9.79,24.06,23.73,45.79,20,22.8-3.87,33.55-25.06,36.16-36.72A3,3,0,0,0,435.49,264.22Z"/><path class="cls-20" d="M426.34,274.1c-8.28,3.28-29.38,10.51-51.45,9-1.91-.13-8.82-.89-6.58.73,6,4.33,19.48,12.94,34.36,10.32,16.39-2.89,23.27-15.36,25.41-18.22C432,270.56,427.87,273.49,426.34,274.1Z"/></g></g></g></g></svg>