<svg id="Layer_1" data-name="Layer 1" xmlns="http://www.w3.org/2000/svg" xmlns:xlink="http://www.w3.org/1999/xlink" viewBox="0 0 700 512"><defs><style>.cls-1,.cls-15,.cls-23,.cls-24,.cls-29,.cls-3,.cls-30,.cls-35,.cls-5,.cls-6{fill:none;}.cls-2{fill:#f5891f;}.cls-3,.cls-35,.cls-5,.cls-6{stroke:#591f0d;}.cls-15,.cls-23,.cls-24,.cls-29,.cls-3,.cls-30,.cls-35,.cls-44,.cls-5,.cls-6{stroke-miterlimit:10;}.cls-3{stroke-width:0.71px;}.cls-4{fill:#c46d29;}.cls-5{stroke-width:0.75px;}.cls-6{stroke-width:0.48px;}.cls-7{fill:#f27975;}.cls-8{fill:#b86528;}.cls-9{fill:#6d2111;}.cls-10{fill:#581211;}.cls-11{fill:#fddd8b;}.cls-12{fill:#fafdff;}.cls-13{fill:#341210;}.cls-14{fill:#862d1b;}.cls-15{stroke:#2c120d;}.cls-15,.cls-44{stroke-width:0.5px;}.cls-16{opacity:0.76;}.cls-17{clip-path:url(#clip-path);}.cls-18{fill:#dc7426;}.cls-19{fill:#401a0f;}.cls-20{clip-path:url(#clip-path-2);}.cls-21{fill:#c32226;}.cls-22,.cls-43{fill:#fff;}.cls-23,.cls-24{stroke:#4d240e;}.cls-23{stroke-width:0.64px;}.cls-24{stroke-width:0.61px;}.cls-25{fill:#472514;}.cls-26{fill:#11170e;}.cls-27{opacity:0.1;}.cls-28{clip-path:url(#clip-path-3);}.cls-29,.cls-30{stroke:#0f133e;}.cls-29{stroke-width:0.12px;}.cls-30{stroke-width:0.35px;}.cls-31{clip-path:url(#clip-path-4);}.cls-32{fill:#7c441c;}.cls-33{fill:#601210;}.cls-34{fill:#f3a854;}.cls-35{stroke-width:0.51px;}.cls-36{fill:#dcb865;}.cls-37{fill:#44170d;}.cls-38{fill:#180f10;}.cls-39{fill:#751113;}.cls-40{fill:#b2202b;}.cls-41{fill:#fffce9;}.cls-42{fill:#f27878;}.cls-43{opacity:0.15;}.cls-44{fill:#a8644f;stroke:#713e19;opacity:0.43;}.cls-45{fill:#673514;}.cls-46{fill:#542810;}</style><clipPath id="clip-path"><rect class="cls-1" x="139.26" y="142.66" width="32.13" height="47.93"/></clipPath><clipPath id="clip-path-2"><rect class="cls-1" x="83.5" y="127.65" width="32.87" height="44.44"/></clipPath><clipPath id="clip-path-3"><rect class="cls-1" x="154.96" y="164.87" width="6.17" height="6.17"/></clipPath><clipPath id="clip-path-4"><rect class="cls-1" x="98.7" y="154.01" width="6.17" height="6.17"/></clipPath></defs><g id="l"><path class="cls-2" d="M369.47,351.83s41.55-50.9,109.8-36.33,67.5,63.54,146.79,66.94L624.28,389s-51.84,11.57-91.49-31.66c-29.1-31.74-103.35-49.24-150.54,11.62l-9.57,1.75L364,357.36Z"/><path class="cls-3" d="M369.47,351.83s41.55-50.9,109.8-36.33,67.5,63.54,146.79,66.94L624.28,389s-51.84,11.57-91.49-31.66c-29.1-31.74-103.35-49.24-150.54,11.62l-9.57,1.75L364,357.36Z"/><path class="cls-4" d="M317.48,381.75s9.36,38.09,49.39,47.46c0,0,20.33,4.84,25.82,9v6.46A112.86,112.86,0,0,0,381,447.8c-6.34,2.06-26.71,1-28.94,19.69,0,0-1.37,13.53,14.73,13,0,0,5.48,4.28,16.43-1,0,0,14,5.47,29.1-10.45s15.24-28.24,15.24-28.24,1-5.48-6.68-9.93-13.18-28.25-6.5-39.38-3.57-21.67-3.57-21.67l-45-8.38-31.63,4.31Z"/><path class="cls-5" d="M317.48,381.75s9.36,38.09,49.39,47.46c0,0,20.33,4.84,25.82,9v6.46A112.86,112.86,0,0,0,381,447.8c-6.34,2.06-26.71,1-28.94,19.69,0,0-1.37,13.53,14.73,13,0,0,5.48,4.28,16.43-1,0,0,14,5.47,29.1-10.45s15.24-28.24,15.24-28.24,1-5.48-6.68-9.93-13.18-28.25-6.5-39.38-3.57-21.67-3.57-21.67l-45-8.38-31.63,4.31Z"/><path class="cls-4" d="M198,373l4.67,92s.32,12.14-13.73,15-21.41,2.09-21.41,2.09-1.62,1.14-8.46,0c0,0-9,2.85-12.39-5.55,0,0-4.7-15.39,7.83-20.66s14.39-5.41,14-14.82-22.08-58.41-23.36-86.61Z"/><path class="cls-5" d="M198,373l4.67,92s.32,12.14-13.73,15-21.41,2.09-21.41,2.09-1.62,1.14-8.46,0c0,0-9,2.85-12.39-5.55,0,0-4.7-15.39,7.83-20.66s14.39-5.41,14-14.82-22.08-58.41-23.36-86.61Z"/><path class="cls-2" d="M120.57,307.88s-1.46,41,41.66,64.19,128.24,17.58,128.24,17.58,80.37-10.33,92.37-7.26c0,0,22.05,9.49,46.89,12.84s48.56,13.95,56.93,29c0,0,5.86,14.23,0,28.75,0,0-16.13,22.13,2.6,28.18H494a2.32,2.32,0,0,1,.93.2,22.3,22.3,0,0,0,20.78-1.87s16.74,4.18,20.93-10.05-9.49-39.35-9.49-39.35l-17.86-42.7s1.4-10.6-13.11-14.23-35.72-5.86-44.93-24.28-7.73-31.22-35.17-46.6c-22.6-12.68-79-24.62-79-24.62S271,252.75,249.62,221.15c0,0-129.52,63.62-129,86.73"/><path class="cls-5" d="M120.57,307.88s-1.46,41,41.66,64.19,128.24,17.58,128.24,17.58,80.37-10.33,92.37-7.26c0,0,22.05,9.49,46.89,12.84s48.56,13.95,56.93,29c0,0,5.86,14.23,0,28.75,0,0-16.13,22.13,2.6,28.18H494a2.32,2.32,0,0,1,.93.2,22.3,22.3,0,0,0,20.78-1.87s16.74,4.18,20.93-10.05-9.49-39.35-9.49-39.35l-17.86-42.7s1.4-10.6-13.11-14.23-35.72-5.86-44.93-24.28-7.73-31.22-35.17-46.6c-22.6-12.68-79-24.62-79-24.62S271,252.75,249.62,221.15C249.62,221.15,120.1,284.77,120.57,307.88Z"/><path class="cls-2" d="M46.1,145.67s13.32-10.86,19.13-20.83c0,0,1.8-16.56-12.71-21.55-11.29-3.89-22.63,7.6-22.07,17.2,0,0,1,22,15.65,25.18"/><path class="cls-6" d="M46.1,145.67s13.32-10.86,19.13-20.83c0,0,1.8-16.56-12.71-21.55-11.29-3.89-22.63,7.6-22.07,17.2C30.45,120.49,31.48,142.54,46.1,145.67Z"/><path class="cls-7" d="M43.36,111.78s11.36-4.72,19.09,16.53c0,0-6.89,6.37-14.76,7.45,0,0-15.69-17.14-4.33-24"/><path class="cls-8" d="M42.49,112.22s12-2.64,16.41,16a14.53,14.53,0,0,0,2.59-2A90.75,90.75,0,0,0,56.83,117c-1.5-2.37-7.18-9.71-14.34-4.75"/><path class="cls-8" d="M32.36,114.12a49.14,49.14,0,0,0,4.89,21.09l-2.07,1.22a40.69,40.69,0,0,1-3.07-8.34s-3-9.85.25-14"/><path class="cls-9" d="M149.64,80.76s6.37-25,40.33-20c0,0,16.19,3.84,26.27,23.34,0,0,8,12.35,23.09,7.41,0,0-2.65,6.86-14.06,6.59,0,0,15.65,11.2,17.25,27.56s9.08,56.61,17.34,77.15,10.1,78.12-36.7,98.93c0,0-6.63,13.17-20.52,16.52,0,0-41.3,9-53,28.18,0,0-2.15-8.77,3.23-13.39,0,0-7.13,5.54-22.75,7.16s-30.63,17.54-27.81,33c0,0-8-14.7-17-18.87S64.53,323.25,64.9,306.76s3.3,15.72-8.42,18.75c0,0,2.19-26.14-5.5-33s-22.34-11.08-21.24-38.31c0,0,0,12.39-7,15.69,0,0,3.66-14.42-2.93-27.16S2.63,211.61,7.76,194.67a182.76,182.76,0,0,1,12.82-31s-8.79.75-11,0c0,0,12.09-5.64,19.41-14.94s17.22-37.71,23.08-48.32S68.84,74.67,87.75,66.72c0,0-8.34-3-9.7-9.48,0,0,14.06,5.69,24.26,0s35.36-7.52,47.33,23.52"/><path class="cls-10" d="M137.76,105.41S109.27,76.11,86.48,103s-12.21,46.39-38.26,63.48c0,0,7.33.82,15.06-4.88,0,0-26.45,15.06-7.32,69.18,0,0,5.69-10.58,5.69-19.12a24.31,24.31,0,0,0,10.18,19.12c10.58,7.74,9.36,25.64,6.92,31.75,0,0,5.69-2,7.73-10.18l44.36,10.18,24.42-2s-9,15.88-5.7,25.64c0,0,8.95-16.68,17.09-19.13S187,256.8,187,256.8s-4.07,19.54-10.17,24.83c0,0,25.64-14.66,30.11-38.67l4.48-24s3.25,4.48,2.85,9.36,4.07-17.9-3.66-28.89-5.7-23.61-5.7-23.61,5.29,21.57,16.68,26.05l-2.44-6.92s14.65,16.69,25.64,18.72c0,0,1.22-5.7-8.54-13.83s-21.58-18.32-22.79-33.78c0,0-2.45,11,2.84,19.53,0,0-13.83-14.65-13.83-31.74s4.07-41.11-12.62-54.94-33,3.25-33,3.25,1.22-5.29,5.69-7.32l-5.29.4s4-5.7,7-9.21c0,0-8.14,5.53-11.8,13.27,0,0,7.34-8.81,1.64-13.7,0,0-2.09,7.29-4.53,11L147.2,84.12s1.88,10.79-2.42,12c0,0-4.91-11.18-8.17-13.62,0,0,5.22,5,4,16.79a30.87,30.87,0,0,1-4.48-7.73s-1.22,7.33,1.63,13.84"/><path class="cls-2" d="M81.63,161.77s8.47-59.26,46.23-55.13c1.46.16,6.08,0,9.65,2.09,2.18,1.28,5.83,4.51,9.38,4.8A71.58,71.58,0,0,0,163,112.47s26.79-4.39,33.88,30.19c5.12,25-8.46,50.12-8.46,50.12s27.95,34.56-17.79,59c0,0-25.42,6.44-31.35,21.74l-43.75-6.75-5.85-18s2-10.35-8-17.56S56.76,202.8,63.06,185.69s18.57-23.92,18.57-23.92"/><path class="cls-11" d="M93.13,239.48s-1.39,14.35,10.65,16.2,22.22,1.85,31-10.19,19.44-30.55,19.44-30.55-10.18,25.93-10.64,43.52-10.19,29.16-34.72,28.69c0,0-19.72-1.24-24.81-16a31.61,31.61,0,0,1,3.3-21.05s5.12-7.57,5.77-10.57"/><path class="cls-12" d="M97.61,230.16s7.8,5.81,26.61,3.41,17.48-12.19,17.48-12.19H108.26l-12,.92Z"/><path class="cls-13" d="M92.78,230.16l1.48,13.52,6.14,9.07h17L130.19,250l8.27-10.51S151,219.9,152.58,215.91l-6-1-31.68,1s-25.08,2.92-22.16,14.25"/><path class="cls-11" d="M90.57,194.27S75.83,200.58,81.39,215s22,12.69,25.31,8v-5.84s-1.67,11.68,7.78,12.79S137,229.5,152.58,215c0,0-5.34-12.34-23.39-10.39l-25.55-2.78Z"/><path class="cls-14" d="M93.71,188.09s10.56,11.49,38.84,8.39c0,0,3,8-12.48,14.05,0,0-5.22,3.39-8.11,5.3-7,4.66-10.47-.89-10.47-.89s-2.81-6.87-5-8.77-8.69-12.46-2.76-18.08"/><path class="cls-15" d="M93.71,188.09s10.56,11.49,38.84,8.39c0,0,3,8-12.48,14.05,0,0-5.22,3.39-8.11,5.3-7,4.66-10.47-.89-10.47-.89s-2.81-6.87-5-8.77S87.78,193.71,93.71,188.09Z"/><g class="cls-16"><g class="cls-17"><path class="cls-18" d="M146.53,190.58s-20.68-24.55,7.7-47.06c0,0,13.93-4.84,15.94,8.37,5.1,33.64-7.17,31.42-11,37.2Z"/></g></g><path class="cls-19" d="M154.23,143.52S166.38,141.23,171,158c0,0,3.81-15.25-6.1-21s-10.63,6.48-10.63,6.48"/><g class="cls-16"><g class="cls-20"><path class="cls-18" d="M83.5,163.8A47.08,47.08,0,0,1,95,133.63c12.1-13.65,21.36.36,21.36.36s.53,32.55-11.52,38.11Z"/></g></g><path class="cls-11" d="M160.84,331.49s1.41,21.37,86.25,29.94S367.22,370,367.22,370l15.62,12.44s-17-1-43.22,1.74-60.54,7.14-73.18,6.1-58.13-1.65-74-7.37c0,0-35.19-6.9-57.16-32.2,0,0-5.73-4.89-8.18-15l14.63-1.45Z"/><path class="cls-19" d="M113.29,140.4s2.59-6.49,0-11.06-19,0-22,11.06c0,0,16.6-9.53,22,0"/><path class="cls-21" d="M100.4,244s11.75-12.35,32.38-8.6c0,0,5.29.62,2.87,6.15s-21.92,9.55-21.92,9.55L100.4,250Z"/><path class="cls-13" d="M90.1,224.65s3.68,9.53,3,17c0,0-1.69,11.39,14.57,14.53,17.17,3.32,21.18-1.62,28.62-12.79S154.23,215,154.23,215h-1.65s-4,7.65-9.11,15.53c-4.08,6.33-8.86,12.81-12.78,15.58-8.79,6.2-23.32,8.81-33.08.53,0,0-1.71-8.91-1.71-12.67s-5.8-9.27-5.8-9.27"/><path class="cls-12" d="M118.81,250.68s.76-9.35,1.29-11.27,3.87,6.13,4.74,9.29a19.11,19.11,0,0,1-6,2"/><path class="cls-12" d="M99.52,242.8s16.24,9.77,36.05,0c0,0,3.81-2.85,5-5.91l.68,2.12s-5.28,8.77-13.15,11.35c-6,2-13.78,4.4-22.12.93,0,0-8.93-2.19-6.46-8.49"/><path class="cls-22" d="M169.93,173.56c-1.75,9.84-9.52,16.68-17.36,15.29s-12.77-10.49-11-20.33,9.52-16.68,17.35-15.29,12.77,10.5,11,20.33"/><path class="cls-23" d="M169.93,173.56c-1.75,9.84-9.52,16.68-17.36,15.29s-12.77-10.49-11-20.33,9.52-16.68,17.35-15.29S171.67,163.73,169.93,173.56Z"/><path class="cls-22" d="M110.26,161.8c-2.63,9.23-10.34,15-17.23,12.91s-10.34-11.28-7.72-20.5,10.34-15,17.23-12.91,10.34,11.28,7.72,20.5"/><path class="cls-24" d="M110.23,161.8c-2.72,9.23-10.69,15-17.82,12.91s-10.69-11.28-8-20.5,10.69-15,17.82-12.91S112.94,152.58,110.23,161.8Z"/><path class="cls-25" d="M163.27,174.65c-1,5.42-5.3,9.17-9.69,8.39s-7.16-5.8-6.2-11.21,5.3-9.17,9.69-8.39,7.16,5.8,6.2,11.21"/><path class="cls-26" d="M160.11,175.2c-.77,3.06-3.5,5-6.1,4.35s-4.07-3.67-3.29-6.73,3.5-5,6.1-4.35,4.07,3.67,3.29,6.73"/><g class="cls-27"><g class="cls-28"><path class="cls-22" d="M160.91,168.8a3,3,0,1,1-2-3.72,3,3,0,0,1,2,3.72"/><path class="cls-29" d="M160.91,168.8a3,3,0,1,1-2-3.72A3,3,0,0,1,160.91,168.8Z"/></g></g><path class="cls-25" d="M106.46,165c-1.49,5.08-5.94,8.24-9.93,7.07s-6-6.25-4.51-11.32,5.94-8.24,9.93-7.07,6,6.24,4.51,11.32"/><path class="cls-30" d="M106.46,165c-1.49,5.08-5.94,8.24-9.93,7.07s-6-6.25-4.51-11.32,5.94-8.24,9.93-7.07S108,160,106.46,165Z"/><path class="cls-26" d="M103.8,164.84c-.93,3.17-3.59,5.18-6,4.49s-3.5-3.83-2.57-7,3.6-5.18,6-4.49,3.51,3.83,2.57,7"/><g class="cls-27"><g class="cls-31"><path class="cls-22" d="M104.66,157.94a3,3,0,1,1-2-3.72,3,3,0,0,1,2,3.72"/><path class="cls-29" d="M104.66,157.94a3,3,0,1,1-2-3.72A3,3,0,0,1,104.66,157.94Z"/></g></g><path class="cls-8" d="M119.76,196.58s12.79-4.62,14.45-12.1c0,0,.95,8.39-1.19,11.68,0,0-11.65.81-13.26.42"/><path class="cls-8" d="M143.76,255.37a58.1,58.1,0,0,1,19.69-10.81c11.72-3.64,31-14.57,31.75-38.31,0,0,6.38,17.83-5.65,30.55s-15.89,13.83-27.5,17.85-18.92,11.59-20.33,14.93c0,0,2.63-11,2-14.21"/><path class="cls-8" d="M89.23,247.16s3.58-5.4,3.9-7.68-1.8-12.46-3-14.83c-.88-1.7-2.1,1-7.86-8.3-1.3-2.09-17.68-10.1-20.57-19.34,0,0,.11,6.74,4.89,15.78a64,64,0,0,0,18.15,21.06c5.39,4.06,4.52,13.31,4.52,13.31"/><path class="cls-11" d="M93.94,187.36s3-11.3,17-15.85c0,0-14.56,10.63-17,15.85"/><path class="cls-32" d="M142.49,191.63s17-1.72,26.5-3.07c0,0-17.45-.91-26.5,3.07"/><path class="cls-32" d="M80.05,169.16s8.23,3.69,15.61,7.31c0,0-7-6.06-15.61-7.31"/><path class="cls-33" d="M10.94,162.37s16.21-3.25,21.71-9.26a19.45,19.45,0,0,1-12.29,9.26s-8.27,1.19-9.42,0"/><path class="cls-10" d="M22.78,269.08s8.52-11.32,4.43-32.51c0,0,3.34,9.43,7.7,28s18.38,21.3,18.38,21.3,5,1.56,5.6,18.06-2.41,20.76-2.41,20.76,1.23-19.31-2.06-27.17-10.87-11.37-10.87-11.37-9-6-11.1-13.62-2.71-19.12-2.71-19.12.25,11.85-7,15.69"/><path class="cls-10" d="M46.27,268.19a33.45,33.45,0,0,0,4.12,17.86l3.8,4.75,1.71,12.55.58,21.32s6.57-.6,8.53-15c0,0,.82,29.58,18.95,43.06s18.35,19.64,18.35,19.64-4.74-19.85,22-31.76c0,0,18.46-2,28.54-8.4,0,0-5.73,3.56-3.23,13.38,0,0,9.38-14.27,35.21-22.9s31.52-7.73,38.31-21.79c0,0,28-5.28,38-45.72,0,0-13.92,25.95-27.56,29.38,0,0,13.25-21.27,11.75-33.09,0,0-9,30.79-23.75,34.83,0,0,2.73-2,3.68-10.42s-1.9,19.46-20.48,26.72c0,0,2.69-3.79,3.09-6.42s-5.57,12.29-17.91,15.74-26.67,9.35-31.84,12.79c0,0,6.36-5.73,6.92-11.15,0,0-10.85,14.9-28.05,17.41s-25.95,5.35-33.43,18.31c0,0,2.16-12.43,8-17.07,0,0-10.33,5.38-10.87,13.92,0,0-1.87-17.28-10.67-22.55,0,0,5.69,12.94,3.26,23.38,0,0-13.89-6.65-21.15-24.3,0,0-7.07-15.21-6.71-20.22s-7-17.47-5.18-29.89a35.6,35.6,0,0,0-.8,21.38c.08.29.16.58.25.88,3.67,12.31-12.66-21.89-13.47-26.58"/><path class="cls-34" d="M83.5,218.29s14.44,7.75,23-.14c0,0,8.33,11.7,32.75,6.64,0,0-9.51,6.43-20.93,6.29-9.85-.11-10.44-3.23-11.51-9,0,0-.26,5.79-12.58,3.9-8.68-1.33-10.76-7.69-10.76-7.69"/><path class="cls-2" d="M220.68,150.61s-.29,19.58,9.35,27.21c0,0,15.8.61,23.9-13.6,5.52-9.69-1.13-25.53-10.55-26,0,0-18.53-1.13-22.7,12.4"/><path class="cls-35" d="M220.68,150.61s-.29,19.58,9.35,27.21c0,0,15.8.61,23.9-13.6,5.52-9.69-1.13-25.53-10.55-26C243.38,138.21,224.85,137.08,220.68,150.61Z"/><path class="cls-7" d="M247.45,153.59s3.4,15.82-20.19,20.78c0,0-5.68-8.23-5.64-16.7,0,0,20.33-17.11,25.83-4.08"/><path class="cls-8" d="M223.1,165.28s2.19-3.41,7.85-5.16a7.16,7.16,0,0,0-6.4,0s15.06-15.4,23-6.84c0,0-1.79-7.91-11.82-4.08,0,0-10.87,3.79-14,8.16,0,0-.23,5.31,1.39,7.92"/><path class="cls-8" d="M229.34,175.84c.1.26-.61.18.24.8l.8.76c5.11-.34,4.61-.06,12.14-3.15,7.1-2.91,10.5-12,10.5-12-7.42,11.87-20.83,13.33-23.68,13.63"/><path class="cls-36" d="M129,339.92s30.77,29.72,92.52,33.94,153.74,1.63,153.74,1.63l7.55,6.9s-25.41.24-38.29,1.82-68.23,8.32-78.11,6l-47.26-1.63S166.05,383,142.87,358.3c0,0-10.54-8.46-13.84-18.38"/><path class="cls-2" d="M201.65,324.67s25.22,96.23,35,117.78c0,0,2.67,9.47-2.39,12.25,0,0-19,3-13.93,21.28,0,0,1.26,6.84,14.69,7.34h8.35s21.53,3,27.61-9.62c0,0-4.05-79.78-4.31-85.86s1.52-75.47-7.59-87.12"/><path class="cls-5" d="M201.65,324.67s25.22,96.23,35,117.78c0,0,2.67,9.47-2.39,12.25,0,0-19,3-13.93,21.28,0,0,1.26,6.84,14.69,7.34h8.35s21.53,3,27.61-9.62c0,0-4.05-79.78-4.31-85.86s1.52-75.47-7.59-87.12"/><path class="cls-5" d="M507.31,458.16s-6.11,19.56,14.86,21.89"/><path class="cls-5" d="M491.3,460.07s-7.82,19.59,10.29,22.95"/><path class="cls-5" d="M243.54,461.31s-14.13,10.39-1.24,21.8"/><path class="cls-5" d="M234.49,459.93s-14.92,9.51-2.8,23.11"/><path class="cls-5" d="M170.48,461.31s-13.56,7.79-3,20.82"/><path class="cls-5" d="M163.47,456.9s-10.29,4.41-9.33,13.75c.9,8.88,4.91,11.48,4.91,11.48"/><path class="cls-5" d="M387.76,456s-16.27,5.76-4.54,23.44"/><path class="cls-5" d="M373.58,453.28s-10.12,3.92-9.94,14.48,3.15,12.74,3.15,12.74"/><path class="cls-2" d="M358.28,359.76s17.07,20.57,31,25.14"/><path class="cls-5" d="M358.28,359.76s17.07,20.57,31,25.14"/><path class="cls-5" d="M129,339.92s3.05,19.57,44.84,37.57c0,0,33.16,11.37,45.31,11.12"/><path class="cls-5" d="M266.44,390.23s39.21-.35,69.4-4.88c33.31-5,47-3,47-3"/><path class="cls-37" d="M603.57,381.43s22.49-24.71,53.88-8.77c0,0,27.7,17.79,41.42,20.27,0,0-14.1,21-50.51,16.39s-50.51-18.23-44.79-27.89"/><path class="cls-38" d="M602.74,383.26s7.31,14.25,43.91,19.58,52.22-9.91,52.22-9.91-8.13,14.81-31.41,16.46-48.57-4-57.85-12.51-7.7-11.8-6.87-13.62"/><path class="cls-38" d="M604.83,380.19s15.89,6.5,25.61,5.92c0,0-9.22,8.1-28.1-1.85a6.65,6.65,0,0,1,2.49-4.07"/><path class="cls-39" d="M94.26,226s4,18.55,4.83,19c0,0,.87-6,3-8.78L100.84,226S100.8,228.5,94.26,226Z"/><path class="cls-12" d="M90.49,224.87l6.22,11.47s2.85,4.3,1.62-10.29c0,0-5.26.2-7.84-1.18"/><path class="cls-13" d="M128.5,251.91s8.45-3.59,28-35.49L152.58,215s-16.69,32.91-25.9,35.87Z"/><path class="cls-40" d="M141.59,230S106,228.11,100.4,244c0,0,25-14.78,35.17-1.16l7.9-12.32Z"/><path class="cls-12" d="M99.12,245.39s.86-7.69,3-9.61,2.61,13,2.61,13-5.29-1.86-5.58-3.41"/><path class="cls-12" d="M124.36,230.36l3.84,10.41s2.53,4.6,3.33-12c0,0-5.58,1.47-7.17,1.59"/><path class="cls-41" d="M100.85,225.8s4-.46,6-3.14c0,0-.33,11.7,19.2,7.63v2.31s-20.81,1.81-25.66-2.77Z"/><path class="cls-41" d="M97.69,228.92s4.2,2,4.84,2.2c0-.31.32-4.19.32-4.43s0-.47-.07-.54-1.93-.35-1.93-.35a15.3,15.3,0,0,1-3,.26"/><path class="cls-42" d="M134.45,241.47s1.08,1.21,1.12,1.33l-2.44,1.11Z"/><path class="cls-11" d="M139.66,256.7s2-11.56,6.2-14c0,0,11.28-24.47,15.08-25l-4.82-1.39-18.85,31.09Z"/><path class="cls-11" d="M136.17,263.73s6.18-7.19,7.59-8.36c0,0,1.85-12.13,2.1-12.68l-4.85,2.8-2,6.42-2.12,6Z"/><path class="cls-34" d="M106.53,218.15s22.7,17.14,44.92-5.13l1.13,1.93s-19.24,19.55-38.33,15.74c0,0-7.92-.88-7.41-8.61Z"/><path class="cls-13" d="M151.7,215.84l.88-.89,3.54,1.33s-3.18,2.47-3.33,2.47a4,4,0,0,1-.8-.54Z"/><path class="cls-2" d="M156.68,216.44l-4.1-1.49.25-1.24a1,1,0,0,1,.78-.13c.46.13,1.81.58,1.81.58Z"/><path class="cls-43" d="M92.81,343.07s2.56,9.66,11.84,2.84C104.65,345.91,94.69,356.53,92.81,343.07Z"/><circle class="cls-22" cx="152.2" cy="170.36" r="1.99"/><circle class="cls-22" cx="95.66" cy="159.72" r="1.99"/><path class="cls-44" d="M94.48,189.87s12,15.87,31.7,7.91C126.18,197.78,104.37,209.65,94.48,189.87Z"/><path class="cls-45" d="M85.18,198A16.39,16.39,0,0,0,82,201.86a13.65,13.65,0,0,0-1.72,4.74,11.94,11.94,0,0,0,.22,5,14,14,0,0,0,.79,2.4c.33.77.77,1.5,1.15,2.25v0h0a16.55,16.55,0,0,0,4.47,6,15.2,15.2,0,0,0,6.65,3.26,20.5,20.5,0,0,0,7.45,0,14,14,0,0,0,3.45-1.39,3.74,3.74,0,0,0,2.12-2.67l.5,0h0a8.55,8.55,0,0,0,2.54,6.76,11.28,11.28,0,0,0,6.88,2.66,30.16,30.16,0,0,0,7.58-.52,63.51,63.51,0,0,0,7.42-1.89h0a86.18,86.18,0,0,0,11.18-5.86c1.78-1.13,3.51-2.33,5.17-3.62a39.75,39.75,0,0,0,4.61-4.28l.37.33a40,40,0,0,1-4.67,4.34c-1.68,1.31-3.42,2.52-5.21,3.65a85.53,85.53,0,0,1-11.26,5.9h0a64,64,0,0,1-7.48,1.9,30.63,30.63,0,0,1-7.71.53,11.9,11.9,0,0,1-7.19-2.79,9.09,9.09,0,0,1-2.69-7.18h0l.49,0a3.14,3.14,0,0,1-.84,1.84,6,6,0,0,1-1.54,1.22,14.51,14.51,0,0,1-3.58,1.41,20.65,20.65,0,0,1-7.64-.07,15.55,15.55,0,0,1-6.82-3.38,16.09,16.09,0,0,1-2.61-2.8,15.48,15.48,0,0,1-1.93-3.32l0,0c-.39-.77-.83-1.51-1.16-2.31a14.93,14.93,0,0,1-.8-2.45,12.33,12.33,0,0,1-.19-5.13,12.88,12.88,0,0,1,1.83-4.79,14.79,14.79,0,0,1,3.37-3.85Z"/><path class="cls-45" d="M151.45,213a4.9,4.9,0,0,0,2.19,2.13,13.83,13.83,0,0,0,2.87,1.17c1,.29,2,.51,3.05.71s2.07.32,3.12.49c-.53,0-1.06,0-1.59,0s-1.06-.08-1.59-.12a18.93,18.93,0,0,1-3.14-.61,10.83,10.83,0,0,1-2.92-1.32A4.36,4.36,0,0,1,151.45,213Z"/><path class="cls-34" d="M87.24,276.9s35.89,8.33,45.54-5.68,13.2-33.31,19.8-42c0,0-8.12,16.53-8.61,23.92s-.12,21.68-11.19,28.35S98.66,292,87.24,276.9"/><path class="cls-18" d="M112,157.1S101.79,145,86.21,148.7c0,0,5.15-13.69,18.66-10.51S112,157.1,112,157.1Z"/><path class="cls-18" d="M170.2,167.7s-10.24-12.06-25.81-8.4c0,0,5.14-13.68,18.65-10.51S170.2,167.7,170.2,167.7Z"/><path class="cls-46" d="M84.43,148.31A21.14,21.14,0,0,1,92,147.24a30.94,30.94,0,0,1,3.84.34,34.75,34.75,0,0,1,3.75.92,16.45,16.45,0,0,1,1.82.66c.59.26,1.21.45,1.78.76a26.3,26.3,0,0,1,3.32,2A23.76,23.76,0,0,1,112,157.1c-1.11-.65-2.08-1.43-3.15-2s-2.1-1.3-3.21-1.83A37.5,37.5,0,0,0,99,150.41a39,39,0,0,0-7.11-1.62A49.12,49.12,0,0,0,84.43,148.31Z"/><path class="cls-46" d="M144.24,158.72a22.76,22.76,0,0,1,7.68-.36,29.23,29.23,0,0,1,7.54,1.81,16.72,16.72,0,0,1,1.8.76c.58.28,1.19.51,1.75.84a27.86,27.86,0,0,1,3.28,2.07,26,26,0,0,1,5.55,5.32c-2.16-1.39-4.19-2.84-6.38-4a46.23,46.23,0,0,0-6.7-3.12,47.91,47.91,0,0,0-7.09-2.14A56.14,56.14,0,0,0,144.24,158.72Z"/></g></svg>