<svg xmlns="http://www.w3.org/2000/svg" xmlns:xlink="http://www.w3.org/1999/xlink" viewBox="0 0 1600 512"><defs><style>.cls-1,.cls-13,.cls-14{fill:none;}.cls-2{isolation:isolate;}.cls-3{clip-path:url(#clip-path);}.cls-4{fill:url(#Áåçûìÿííûé_ãðàäèåíò_29);}.cls-5{fill:#312c5f;}.cls-35,.cls-6,.cls-7,.cls-70,.cls-71,.cls-72{fill:#fff;}.cls-6{mix-blend-mode:soft-light;}.cls-10,.cls-11,.cls-12,.cls-8,.cls-9{stroke:#083a32;stroke-width:0.59px;}.cls-10,.cls-11,.cls-12,.cls-13,.cls-14,.cls-15,.cls-16,.cls-8,.cls-9{stroke-miterlimit:10;}.cls-8{fill:url(#linear-gradient);}.cls-9{fill:url(#linear-gradient-2);}.cls-10{fill:url(#linear-gradient-3);}.cls-11{fill:url(#linear-gradient-4);}.cls-12{fill:url(#linear-gradient-5);}.cls-13,.cls-14{stroke:#1c421e;}.cls-13{stroke-width:0.72px;}.cls-14{stroke-width:0.36px;}.cls-15,.cls-16{stroke:#7c1318;stroke-width:0.3px;}.cls-15{fill:url(#linear-gradient-6);}.cls-16{fill:url(#linear-gradient-7);}.cls-17{fill:#e78f24;}.cls-18{fill:#90371e;}.cls-19,.cls-34,.cls-37,.cls-42,.cls-43,.cls-44,.cls-46,.cls-47,.cls-49,.cls-57,.cls-59,.cls-60,.cls-63{mix-blend-mode:multiply;}.cls-20{fill:#db9c27;}.cls-21{fill:#eeb61d;}.cls-22{fill:#78a440;}.cls-23{fill:#b5cb34;}.cls-24{fill:#fcf8c7;}.cls-25{fill:#f4cf10;}.cls-26{fill:#0ba14a;}.cls-27{fill:#cbcbca;}.cls-28{fill:#431e0e;}.cls-29{fill:#c62030;}.cls-30{fill:#f1989a;}.cls-31{mix-blend-mode:color-dodge;}.cls-31,.cls-32,.cls-34,.cls-35,.cls-44,.cls-51,.cls-54,.cls-69{opacity:0.5;}.cls-32,.cls-33,.cls-34{fill:#95afae;}.cls-33,.cls-73{opacity:0.7;}.cls-35,.cls-64,.cls-65,.cls-66,.cls-67,.cls-70,.cls-72,.cls-73{mix-blend-mode:screen;}.cls-36,.cls-37{fill:#eac21d;}.cls-38,.cls-44,.cls-51{fill:#cd7f29;}.cls-38,.cls-56,.cls-57,.cls-71{opacity:0.8;}.cls-39,.cls-43{fill:#4f2e37;}.cls-40{fill:#e49f24;}.cls-41,.cls-54,.cls-56,.cls-57{fill:#f6b618;}.cls-42{fill:#3e3e3d;}.cls-45{fill:#3d2911;}.cls-46{fill:#81472f;}.cls-47{fill:#8f8f8f;}.cls-48,.cls-49{fill:#bf8e5d;}.cls-49{opacity:0.4;}.cls-50{fill:#e6ab23;}.cls-52{fill:#a0633b;}.cls-53,.cls-60{fill:#1d1c1a;}.cls-55{fill:#e7b820;}.cls-58{fill:#3b3c3b;}.cls-59{fill:#d49b29;}.cls-61,.cls-63{fill:#6d301a;}.cls-62{fill:#48210f;}.cls-64{fill:url(#linear-gradient-8);}.cls-65{fill:url(#linear-gradient-9);}.cls-66{fill:url(#linear-gradient-10);}.cls-67{fill:url(#linear-gradient-11);}.cls-68{fill:#4f4f4f;}.cls-71{mix-blend-mode:overlay;}.cls-72{opacity:0.9;}.cls-73{fill:#fffad9;}</style><clipPath id="clip-path"><rect class="cls-1" x="-1596" y="-920" width="1600" height="900"/></clipPath><linearGradient id="Áåçûìÿííûé_ãðàäèåíò_29" x1="303.76" y1="48.77" x2="578.61" y2="48.77" gradientTransform="matrix(-1, 0, 0, 1, 343.75, 0)" gradientUnits="userSpaceOnUse"><stop offset="0" stop-color="#312c5f"/><stop offset="1" stop-color="#36c2df"/></linearGradient><linearGradient id="linear-gradient" x1="1334.45" y1="270.61" x2="1540.98" y2="565.19" gradientUnits="userSpaceOnUse"><stop offset="0.23" stop-color="#00aa96"/><stop offset="0.96" stop-color="#100808"/></linearGradient><linearGradient id="linear-gradient-2" x1="714.36" y1="234" x2="674.56" y2="802.74" gradientUnits="userSpaceOnUse"><stop offset="0.23" stop-color="#00aa96"/><stop offset="0.74" stop-color="#100808"/></linearGradient><linearGradient id="linear-gradient-3" x1="276.82" y1="254.96" x2="270.84" y2="684.31" xlink:href="#linear-gradient"/><linearGradient id="linear-gradient-4" x1="1294.48" y1="355.81" x2="1406.46" y2="453.99" xlink:href="#linear-gradient"/><linearGradient id="linear-gradient-5" x1="1048.3" y1="335.6" x2="1108.63" y2="665.26" gradientUnits="userSpaceOnUse"><stop offset="0.23" stop-color="#00aa96"/><stop offset="0.65" stop-color="#100808"/></linearGradient><linearGradient id="linear-gradient-6" x1="1499.73" y1="207.53" x2="1603.5" y2="298.51" gradientUnits="userSpaceOnUse"><stop offset="0.35" stop-color="#ffca2c"/><stop offset="0.8" stop-color="#d44a27"/></linearGradient><linearGradient id="linear-gradient-7" x1="1492.28" y1="247.45" x2="1572.63" y2="162.91" xlink:href="#linear-gradient-6"/><linearGradient id="linear-gradient-8" x1="890.48" y1="396.79" x2="893.85" y2="397.56" gradientUnits="userSpaceOnUse"><stop offset="0" stop-color="#fff"/><stop offset="1"/></linearGradient><linearGradient id="linear-gradient-9" x1="889.69" y1="400.23" x2="893.06" y2="401" xlink:href="#linear-gradient-8"/><linearGradient id="linear-gradient-10" x1="898.85" y1="395.26" x2="902.01" y2="397.45" xlink:href="#linear-gradient-8"/><linearGradient id="linear-gradient-11" x1="896.52" y1="398.63" x2="899.68" y2="400.82" xlink:href="#linear-gradient-8"/></defs><g class="cls-2"><g id="Layer_1" data-name="Layer 1"><g id="b"><g class="cls-3"><g id="b-2" data-name="b"><polygon class="cls-4" points="39.98 98.95 -149.7 -1.42 -234.86 -1.42 -71.84 98.95 39.98 98.95"/><polygon class="cls-5" points="39.98 98.95 43 111.66 -71.37 113.79 -236.99 6.14 -234.86 -1.42 -71.84 98.95 39.98 98.95"/><polygon class="cls-6" points="28.74 97.32 -70.08 97.32 -229.28 -0.15 -203.48 -0.15 -59.95 91.35 28.74 97.32"/><polygon class="cls-7" points="-63.13 44.38 39.98 98.95 -71.84 98.95 -234.86 -1.42 -70.08 97.32 32.18 97.32 -63.13 44.38"/></g></g></g><g id="i"><g id="i-2" data-name="i"><path class="cls-8" d="M1603.32,239.36s-34.75-32.17-37.81,18.58c0,0,29.7,27.35,18.21,82.35,0,0,8.79-63.53-34.73-93.38s-134.68,51.54-124.41,63.61,95.08,5,116.68,31.9-27.34-32.12-87.57-11.25-64.2,120.07-40,121.11,110.51-92,159-67.93c0,0-56.85-8.58-59.57,54.69s54.77-36.89,69.15-31.75c0,0-36.51,38.68-50.48,54.56s-22.77-8.07-27.06-23.68-66.8,11-44.6,48.45c0,0,7.15,12.13,22.25,13.13,0,0-19.48,9.22-34.55-22.06s-74.5-23.05-76.28,17c0,0,12.32-44.59-7-66.64s-23.5-19.26-23.5-19.26-67.91,21-47.35,68.16,39.43,35.83,39.43,35.83-1.44,14.81-39.43-20.58-74.72-19.38-87.06-3.44,73.18,21.2,76.14,11,9.47,16.76-66.34,10.56l-.11,6.51,387,.49Z"/><path class="cls-9" d="M974.46,517.31s-.36-12.51-25.39-24.52c-18.76-9-51.37-17.73-108.08-20.72,0,0-162.42-7.86-143.17,40.07,0,0-119.16-152.23-279.35-49.95,0,0,165.46,5.09,199.26,53.68Z"/><path class="cls-10" d="M515.24,512s-72.43-43.79-111.84-5.77L265,507.78s-52.5-67.5-132.54-75.24S-7.67,456.22-3.07,505.69,712.82,519.13,515.24,512Z"/><path class="cls-11" d="M1402.42,412.51s-20.1-68.7-106.9-14.19c0,0,65.92-21.53,91,19.71,0,0,9.33,36.74-6,61l23.28-24.2Z"/><path class="cls-12" d="M1216.4,510.31s-206.33-46.19-280.94-23.05,39,30,39,30h275.75Z"/><path class="cls-13" d="M1424.58,310.52s103.83-60,143,28"/><path class="cls-13" d="M1413.69,452.28s12.75-98.24,126-91.39"/><path class="cls-13" d="M1518.14,457.71s20.56-52.22,53.9-62.51"/><path class="cls-13" d="M1500.2,434.11s-33.07,38.87,10.07,59.54"/><path class="cls-13" d="M1343.23,409.06s-22.17,43.49.37,95"/><path class="cls-14" d="M1204.89,491.78s44.34-10.1,68.58-3S1298,508.93,1298,508.93"/><path class="cls-15" d="M1533.2,228.69s16.07,15.37,22.31,23.91,9,4.74,9,4.74,23.2,44.92,14.17,66.47l6.48-6.31s4.06-18.52-16.2-61.47c0,0,1.47-5.92.67-9.13s-11.73-21.21-12.63-25.43,1.31-9.73,1.31-9.73l-27.32.69Z"/><path class="cls-16" d="M1534,188s10.76-32.21,25.56-15.34c0,0,5.9,10.89-5.54,24.37,0,0,14.28,10.31-1,23.19s-19.82-3.94-19.82-3.94,6,19.55-8.4,26.29c0,0-15.69,4.27-10.4-14.48,0,0-18.19,17.66-16.62,5.29s1.52-22.81,15.21-27c0,0-4.89-10.21,3.13-21,0,0,6.93-5.46,10.91-.15S1534,188,1534,188Z"/><ellipse class="cls-7" cx="1530.94" cy="206.57" rx="18.3" ry="4.8" transform="translate(291.02 1128) rotate(-44.3)"/><path class="cls-17" d="M171.36,438.89c1.26,2.19,3.08,4,4.56,6,.69.94,2.51,3.46,3.8,1.91,1.56-1.87-.22-6.86-1-8.8-.53-1.68-2.35-3.84-4.17-4.07a3.26,3.26,0,0,0-2.82.85A3.37,3.37,0,0,0,171.36,438.89Z"/><path class="cls-18" d="M176.3,441a6.71,6.71,0,0,0-1.71,2.17c.46.55.91,1.11,1.33,1.69.69.94,2.51,3.46,3.8,1.91,1.1-1.32.53-4.2-.17-6.46A3.92,3.92,0,0,0,176.3,441Z"/><g class="cls-19"><path class="cls-20" d="M175.88,441a2.09,2.09,0,0,1,2.46.92,11.83,11.83,0,0,1,1.9,3.71c.45-2.28-.88-6-1.54-7.59s-2.35-3.84-4.17-4.07a3.26,3.26,0,0,0-2.82.85,3.37,3.37,0,0,0-.35,4.12,26.49,26.49,0,0,0,2.72,3.68A5.73,5.73,0,0,1,175.88,441Z"/></g><path class="cls-21" d="M143.73,433.7a3.32,3.32,0,0,0-2.68-1.24c-1.84,0-3.94,1.86-4.7,3.45-1.07,1.81-3.53,6.49-2.25,8.56,1.06,1.72,3.22-.51,4-1.35,1.75-1.8,3.8-3.3,5.36-5.29A3.39,3.39,0,0,0,143.73,433.7Z"/><path class="cls-18" d="M136.91,439.4a3.26,3.26,0,0,0-2.16-.33c-.83,1.95-1.42,4.15-.65,5.4,1.06,1.72,3.22-.51,4-1.35l.35-.35A4,4,0,0,0,136.91,439.4Z"/><g class="cls-19"><path class="cls-20" d="M143.73,433.7a3.32,3.32,0,0,0-2.68-1.24,5.47,5.47,0,0,0-3.76,2.07,21,21,0,0,0,.79,2.09,3.42,3.42,0,0,1,0,2.85c-.46,1.1-1.54,3.64-3.1,3.48a1.38,1.38,0,0,1-1.16-1.07,3.72,3.72,0,0,0,.25,2.59c1.06,1.72,3.22-.51,4-1.35,1.75-1.8,3.8-3.3,5.36-5.29A3.39,3.39,0,0,0,143.73,433.7Z"/></g><path class="cls-17" d="M104.18,430.45c1,1.4,3.57,1.22,5,.78.74-.23,1.51-.77,1.15-1.61a5.79,5.79,0,0,0-4.16-2.71c-1.21-.09-2.58,1.87-2.33,2.84A1.8,1.8,0,0,0,104.18,430.45Z"/><path class="cls-18" d="M108.92,428a4.2,4.2,0,0,0-.61,1.19,4.56,4.56,0,0,0-.17,2.25,8.64,8.64,0,0,0,1.07-.23c.74-.23,1.51-.77,1.15-1.61A4.24,4.24,0,0,0,108.92,428Z"/><path class="cls-17" d="M114.34,418.48c.48,1.67,2.88,2.41,4.4,2.52.76.06,1.67-.17,1.63-1.08a5.78,5.78,0,0,0-2.89-4c-1.08-.52-3.06.81-3.18,1.8A2.14,2.14,0,0,0,114.34,418.48Z"/><path class="cls-18" d="M119.71,418.07a7.35,7.35,0,0,0-1.77,1.32,5.83,5.83,0,0,0-.88,1.28,7.53,7.53,0,0,0,1.68.33c.76.06,1.67-.17,1.63-1.08A3.92,3.92,0,0,0,119.71,418.07Z"/><path class="cls-22" d="M61,414.6a7.59,7.59,0,0,0-3.19-5c-5.62-4-13.52-1.62-17.9,3.11-2.61,2.82-5,6.54-5.49,10.42a14.72,14.72,0,0,0,1.52,8.85c2,3.61,5.84,5.45,9.84,5.66s7.5-2,10-4.93a21.61,21.61,0,0,0,4.59-9.85C60.91,420.16,61.47,417.22,61,414.6Z"/><g class="cls-19"><path class="cls-22" d="M61,414.6a7.59,7.59,0,0,0-3.19-5,10.5,10.5,0,0,0-2.64-1.36c-3.28,2.84-4.82,7.08-5.73,11.35-.8,3.75-1.61,8.91-6,10s-8.21-2.45-8.4-6.69a12.41,12.41,0,0,1,.31-3.21,14.42,14.42,0,0,0-.91,3.42,14.72,14.72,0,0,0,1.52,8.85c2,3.61,5.84,5.45,9.84,5.66s7.5-2,10-4.93a21.61,21.61,0,0,0,4.59-9.85C60.91,420.16,61.47,417.22,61,414.6Z"/></g><path class="cls-23" d="M78.72,406c-2.46-5.78-10.8-5-15.28-3a20.12,20.12,0,0,0-10.88,12.47,20.49,20.49,0,0,0,1.24,14.3c3.16,6.68,13,9.07,18.33,3.34,4-4.28,5.59-10.11,6.78-15.66C79.7,413.72,80.11,409.24,78.72,406Z"/><g class="cls-19"><path class="cls-23" d="M77.63,404.22a16.54,16.54,0,0,0-6.41,3.23,17.18,17.18,0,0,0-5.16,7.48c-.64,1.9-1.12,3.85-1.79,5.74a11.92,11.92,0,0,1-2.53,4.63,4.23,4.23,0,0,1-4.08,1.18,5,5,0,0,1-3-3.12A17.27,17.27,0,0,1,55.87,409a19.52,19.52,0,0,0-3.31,6.44,20.49,20.49,0,0,0,1.24,14.3c3.16,6.68,13,9.07,18.33,3.34,4-4.28,5.59-10.11,6.78-15.66.79-3.71,1.2-8.19-.19-11.44A6.43,6.43,0,0,0,77.63,404.22Z"/></g><path class="cls-22" d="M93.23,418.89a24.72,24.72,0,0,0-1-4.73c-1.12-3.56-3-8-6.62-9.63a11.1,11.1,0,0,0-6.44-.65,18.46,18.46,0,0,0-13,16,15.35,15.35,0,0,0,11.63,16.54,14.55,14.55,0,0,0,6.42.46c5-.94,8-5.1,8.78-9.94A30.12,30.12,0,0,0,93.23,418.89Z"/><g class="cls-19"><path class="cls-22" d="M93.23,418.89a24.72,24.72,0,0,0-1-4.73c-1.12-3.56-3-8-6.62-9.63h0A16.59,16.59,0,0,0,80,413.29c-1,3.58-1.28,7.85-3.57,10.94a4.13,4.13,0,0,1-3.51,2,5.1,5.1,0,0,1-4.1-2.77c-1.81-3.59-.88-8.55,1-11.92a18.77,18.77,0,0,1,5.64-6.08,18.74,18.74,0,0,0-9.27,14.44,15.35,15.35,0,0,0,11.63,16.54,14.55,14.55,0,0,0,6.42.46c5-.94,8-5.1,8.78-9.94A30.12,30.12,0,0,0,93.23,418.89Z"/></g><path class="cls-23" d="M108.71,414.81a22,22,0,0,0-2.17-6.54c-.76-1.55-1.54-3.22-3-4.17a8.48,8.48,0,0,0-6.72-3.25A14,14,0,0,0,86.45,406c-5.69,6.87-5.17,18.94.79,25.54,3.07,3.39,7.19,4.33,11.53,3.53a9.85,9.85,0,0,0,5-1.91,16.69,16.69,0,0,0,4-5.47c.85-1.74,1-3.82,1.22-5.72A27.35,27.35,0,0,0,108.71,414.81Z"/><g class="cls-19"><path class="cls-23" d="M108.71,414.81a22,22,0,0,0-2.17-6.54c-.76-1.55-1.54-3.22-3-4.17a8.48,8.48,0,0,0-6.72-3.25c-.35,0-.7,0-1,.07a18.33,18.33,0,0,0-.35,11.22c1,3.15,3.87,8,1.16,11.06-2.25,2.54-6.53,2.49-9.08.42s-3.39-5.28-3.28-8.39a20.71,20.71,0,0,1,3.52-10.6A15.57,15.57,0,0,0,86.45,406c-5.69,6.87-5.17,18.94.79,25.54,3.07,3.39,7.19,4.33,11.53,3.53a9.85,9.85,0,0,0,5-1.91,16.69,16.69,0,0,0,4-5.47c.85-1.74,1-3.82,1.22-5.72A27.35,27.35,0,0,0,108.71,414.81Z"/></g><path class="cls-22" d="M121.89,396.59c-1-3.83-3.8-9.12-8-10-1.92-.4-5,.56-6.78,1.36a13.74,13.74,0,0,0-4.87,4.09c-4.51,5.7-7.31,14.55-4.44,21.63,2.4,5.92,10.45,11,16.73,7.83a12.22,12.22,0,0,0,5.72-6.53C122.42,409.18,123.45,402.67,121.89,396.59Z"/><g class="cls-19"><path class="cls-22" d="M121.89,396.59c-.93-3.61-3.49-8.53-7.32-9.82-2.65,2.3-4,5.71-4.42,9.37a31.12,31.12,0,0,0-.18,6.54,35.07,35.07,0,0,1,.29,5.7,6.66,6.66,0,0,1-1.72,4.48,5.36,5.36,0,0,1-5.31,1.17c-4.68-1.67-5.87-7.48-5.44-11.86a18.13,18.13,0,0,1,1-4.31c-2.2,5-3,10.85-1,15.81,2.4,5.92,10.45,11,16.73,7.83a12.22,12.22,0,0,0,5.72-6.53C122.42,409.18,123.45,402.67,121.89,396.59Z"/></g><path class="cls-23" d="M143.9,386.14c-.19-2.15-1.7-3.61-3.42-4.72a15.18,15.18,0,0,0-13.38-1.52,25.5,25.5,0,0,0-11.55,8c-3.09,3.76-4.24,8.46-4.21,13.24a14.59,14.59,0,0,0,6.33,12.07c3.93,2.64,8.27,2.45,12.3.24s6.81-6.5,8.94-10.6c1.93-3.71,4.47-8.31,4.83-12.71A12.55,12.55,0,0,0,143.9,386.14Z"/><g class="cls-19"><path class="cls-23" d="M132.06,391.34a22.6,22.6,0,0,0-4,5.54c-1,1.83-1.85,3.69-2.93,5.45-1.26,2.05-3.39,5.42-6.24,5.13-3.79-.39-5.53-5.27-5.54-8.5,0-7.36,4.44-13.3,10.17-17.5a25.27,25.27,0,0,0-7.94,6.47c-3.09,3.76-4.24,8.46-4.21,13.24a14.59,14.59,0,0,0,6.33,12.07c3.93,2.64,8.27,2.45,12.3.24s6.81-6.5,8.94-10.6c1.93-3.71,4.47-8.31,4.83-12.71a12,12,0,0,0,.17-3.9A17.92,17.92,0,0,0,132.06,391.34Z"/></g><path class="cls-22" d="M163.59,404.26a21.71,21.71,0,0,0-2.74-10.49c-2-3.29-5.13-5-8.58-6.47-6.65-2.77-14.28.26-18.66,5.6a27.72,27.72,0,0,0-6.24,17.77c.07,4.69,1.48,9.49,5.18,12.59a19.89,19.89,0,0,0,9.72,4.22,16.73,16.73,0,0,0,3.2-.56,26.48,26.48,0,0,0,13-8A21.79,21.79,0,0,0,163.59,404.26Z"/><g class="cls-19"><path class="cls-22" d="M163.14,400c-4.18-1.59-8.94-.63-13,.95a55.35,55.35,0,0,0-7.06,3.42,19,19,0,0,1-4.88,2,5.65,5.65,0,0,1-4.24-.3,4.77,4.77,0,0,1-1.87-4.15c-.06-5.2,3.23-10.46,7.54-13.25a17.65,17.65,0,0,1,6.64-2.48,18,18,0,0,0-12.64,6.63,27.72,27.72,0,0,0-6.24,17.77c.07,4.69,1.48,9.49,5.18,12.59a19.89,19.89,0,0,0,9.72,4.22,16.73,16.73,0,0,0,3.2-.56,26.48,26.48,0,0,0,13-8,21.79,21.79,0,0,0,5.16-14.62A26.29,26.29,0,0,0,163.14,400Z"/></g><path class="cls-24" d="M48.07,413.41a3.13,3.13,0,0,0-4.6-1.65A9,9,0,0,0,38.92,418c-.51,2.57.14,5.72,3.53,4.68,2.55-.79,5.15-4.16,5.74-6.7A4.38,4.38,0,0,0,48.07,413.41Z"/><path class="cls-25" d="M46,414.06a1.63,1.63,0,0,0-2.4-.86,4.7,4.7,0,0,0-2.38,3.27c-.27,1.34.07,3,1.84,2.44a5.4,5.4,0,0,0,3-3.5A2.34,2.34,0,0,0,46,414.06Z"/><path class="cls-24" d="M61.94,405.86c-3,1.11-7.91,6.69-5.36,10.06a2.38,2.38,0,0,0,3.33.76A9.43,9.43,0,0,0,64.16,413C66,410.49,67,404,61.94,405.86Z"/><path class="cls-21" d="M63,408.51a1.6,1.6,0,0,0-2.34-.84,4.61,4.61,0,0,0-2.32,3.18c-.26,1.3.08,2.91,1.8,2.38a5.29,5.29,0,0,0,2.92-3.41A2.3,2.3,0,0,0,63,408.51Z"/><path class="cls-24" d="M79,409.5A2.75,2.75,0,0,0,75,408.05a7.94,7.94,0,0,0-4,5.51c-.46,2.26.12,5,3.11,4.12,2.25-.69,4.54-3.66,5.06-5.9A3.87,3.87,0,0,0,79,409.5Z"/><path class="cls-25" d="M77.21,410.08a1.44,1.44,0,0,0-2.12-.76A4.16,4.16,0,0,0,73,412.2c-.23,1.18.07,2.63,1.63,2.15a4.77,4.77,0,0,0,2.65-3.08A2.06,2.06,0,0,0,77.21,410.08Z"/><path class="cls-24" d="M90.18,404.81c-2.12,1.12-5.15,5.74-2.93,8a1.79,1.79,0,0,0,2.54.22,7.09,7.09,0,0,0,2.77-3.13C93.65,407.81,93.71,403,90.18,404.81Z"/><path class="cls-21" d="M91.26,406.65a1.18,1.18,0,0,0-1.81-.38,3.43,3.43,0,0,0-1.38,2.58c-.06,1,.35,2.14,1.57,1.57a4,4,0,0,0,1.8-2.81A1.66,1.66,0,0,0,91.26,406.65Z"/><path class="cls-24" d="M104.68,392.12c-2.29,1.21-5.54,6.17-3.14,8.56a1.91,1.91,0,0,0,2.72.23,7.49,7.49,0,0,0,3-3.37C108.4,395.34,108.46,390.12,104.68,392.12Z"/><path class="cls-21" d="M105.83,394.09a1.27,1.27,0,0,0-1.94-.4,3.66,3.66,0,0,0-1.48,2.77c-.07,1.06.37,2.29,1.68,1.68a4.23,4.23,0,0,0,1.94-3A1.84,1.84,0,0,0,105.83,394.09Z"/><path class="cls-24" d="M124.26,386c-3,.59-8.25,5.06-6.37,8.54a2.23,2.23,0,0,0,3,1.17A8.83,8.83,0,0,0,125.3,393C127.36,390.87,129.16,385.05,124.26,386Z"/><path class="cls-21" d="M124.9,388.62a1.49,1.49,0,0,0-2.05-1.1,4.26,4.26,0,0,0-2.57,2.61c-.43,1.17-.35,2.7,1.32,2.45a4.94,4.94,0,0,0,3.17-2.74A2.1,2.1,0,0,0,124.9,388.62Z"/><path class="cls-24" d="M140.58,394c-2.61.52-7.28,4.45-5.62,7.52a2,2,0,0,0,2.62,1,7.77,7.77,0,0,0,3.91-2.46C143.31,398.29,144.89,393.16,140.58,394Z"/><path class="cls-21" d="M141.14,396.31a1.31,1.31,0,0,0-1.8-1,3.79,3.79,0,0,0-2.28,2.3c-.37,1-.3,2.38,1.17,2.16a4.39,4.39,0,0,0,2.8-2.41A1.87,1.87,0,0,0,141.14,396.31Z"/><path class="cls-26" d="M163.5,396.83A30.89,30.89,0,0,0,161.73,385a6.87,6.87,0,0,0-3.78-4.16,3.18,3.18,0,0,0-3.29.61c-.68.78-.8,1.89.29,2.15,1.61.39,3.1.09,4.3,1.67,3.07,4,3,9.87,2.17,15-.18,1.13-.4,2.24-.64,3.35-.15.64-1.35,4-.13,4,1.44,0,2.07-3.41,2.26-4.58A45.53,45.53,0,0,0,163.5,396.83Z"/><g class="cls-19"><path class="cls-22" d="M162.86,392.33a50.13,50.13,0,0,1,.53,6.55c.05-.68.1-1.36.11-2.05A30.89,30.89,0,0,0,161.73,385a6.87,6.87,0,0,0-3.78-4.16,3.18,3.18,0,0,0-3.29.61,2.19,2.19,0,0,0-.48.88,1.36,1.36,0,0,0,.42.17,4,4,0,0,0,1.61,0,3.14,3.14,0,0,1,2.89.59,10.41,10.41,0,0,1,2.71,4.77A20,20,0,0,1,162.86,392.33Z"/></g><path class="cls-26" d="M164.36,401.75c-.43,1.33-1.61,5.29-.08,6,1.3.63,1.84-3.56,2-4.31.33-1.3.7-2.6,1.11-3.88,1.87-5.8,4.9-12,10.31-14.61,2.1-1,3.51.1,5.42.55,1.3.31,1.77-.92,1.47-2.1a3.75,3.75,0,0,0-3.15-2.42c-2.11-.34-4.47.81-6.21,2.36A36.72,36.72,0,0,0,167,394.93,54.45,54.45,0,0,0,164.36,401.75Z"/><g class="cls-19"><path class="cls-22" d="M184.63,383.44a3,3,0,0,0-1.55-1.86,1.19,1.19,0,0,1-.08.6c-.48,1.34-1.85.69-2.87.8a8.24,8.24,0,0,0-3.31,1.21,19.91,19.91,0,0,0-7.56,8.89,40.67,40.67,0,0,0-2.7,9.49c.27-1,.55-2,.87-3,1.87-5.8,4.9-12,10.31-14.61,2.1-1,3.51.1,5.42.55C184.46,385.85,184.93,384.62,184.63,383.44Z"/></g><path class="cls-23" d="M134.54,421.27a17.37,17.37,0,0,0,7.67,17.55c6,3.86,14,6.18,21.19,5.39,5.62-.63,11.35-2.57,15-7.1,1.73-2.16,3.4-6.54,1.58-9.13a3.93,3.93,0,0,0-1.35-1.23,14.51,14.51,0,0,0,1.57-4.23,14.69,14.69,0,0,0-.17-7.7,19,19,0,0,0-8.58-11.73c-9.58-5.8-21.51-1.77-29.33,5A23.74,23.74,0,0,0,134.54,421.27Z"/><g class="cls-19"><path class="cls-23" d="M180,428a3.93,3.93,0,0,0-1.35-1.23,14.51,14.51,0,0,0,1.57-4.23,14.69,14.69,0,0,0-.17-7.7,19.47,19.47,0,0,0-3.1-6.68s0,.08,0,.12c-.2.77-.73,1-1.46,1.27a6.71,6.71,0,0,0-3.19,2.2c-3.2,4-2.2,10.07.46,14.08a.21.21,0,0,1-.12.34,17.37,17.37,0,0,0-4.91,1.55c2.36-.06,4.87-.88,7.16-.11,1.92.64,3.59,2.06,3.59,4.22a9.37,9.37,0,0,1-2.14,5.54c-3.05,3.93-7.78,5.76-12.63,6.11A30.85,30.85,0,0,1,149,440.55c-4.45-2-8.83-5.1-11-9.63-4.32-9.06.44-19.6,8-25.3a29.89,29.89,0,0,1,4.84-3,34.22,34.22,0,0,0-8.69,5.49,23.74,23.74,0,0,0-7.56,13.16,17.37,17.37,0,0,0,7.67,17.55c6,3.86,14,6.18,21.19,5.39,5.62-.63,11.35-2.57,15-7.1C180.11,435,181.78,430.57,180,428Z"/></g><g class="cls-19"><path class="cls-23" d="M159,409.83a4.43,4.43,0,0,0-1.31.45,7.78,7.78,0,0,0-3.73,6.23,18.79,18.79,0,0,0,0,4.24,21.7,21.7,0,0,0,.88,3.81c.06.16-4-1.09-6.76,1.79,4.37-1.63,9.33-.82,11.94,5.28-.13-1-.11-2.54-.78-3.39a.21.21,0,0,1,.17-.35c3.92.39,6.19-3,6.67-6.51a14.82,14.82,0,0,0-.25-5.63c-.45-1.71-1.32-4-2.83-5A6.41,6.41,0,0,0,159,409.83Z"/></g><path class="cls-27" d="M160.93,411.26c-2.19-.27-4.43,2-5.14,4.05-1.09,3.19-1.29,9,1.72,11.28a5.27,5.27,0,0,0,3.24,1c3.09-.42,4.54-4.05,4.81-6.59C165.87,418,165.06,411.78,160.93,411.26Z"/><path class="cls-7" d="M160.45,411.82c-2-.25-4,1.75-4.61,3.61-1,2.86-1.15,8.05,1.54,10.1a4.66,4.66,0,0,0,2.9.87c2.77-.38,4.07-3.63,4.31-5.9C164.87,417.81,164.14,412.28,160.45,411.82Z"/><path class="cls-28" d="M161.32,421c-.12,2.7-1.41,4.8-2.88,4.7s-2.6-2.37-2.48-5.06,1.4-4.79,2.88-4.69S161.43,418.29,161.32,421Z"/><path class="cls-7" d="M158.33,418.73c-.11.81-.56,1.41-1,1.36s-.72-.77-.61-1.57.59-1.42,1-1.36S158.46,417.92,158.33,418.73Z"/><path class="cls-27" d="M177.27,410c-2.21-.28-4.47,2-5.19,4.07-1.09,3.23-1.3,9.07,1.73,11.38a5.32,5.32,0,0,0,3.27,1c3.12-.42,4.58-4.09,4.84-6.64C182.25,416.74,181.43,410.52,177.27,410Z"/><path class="cls-7" d="M176.78,410.54c-2-.24-4,1.77-4.64,3.65-1,2.88-1.17,8.12,1.55,10.19a4.78,4.78,0,0,0,2.92.87c2.8-.38,4.1-3.66,4.34-5.94C181.24,416.59,180.5,411,176.78,410.54Z"/><path class="cls-28" d="M178,419.86c-.11,2.72-1.42,4.84-2.9,4.74s-2.62-2.39-2.5-5.1,1.42-4.83,2.9-4.73S178.11,417.15,178,419.86Z"/><path class="cls-7" d="M175,417.59c-.12.82-.58,1.43-1,1.37s-.72-.76-.6-1.58.58-1.42,1-1.37S175.11,416.78,175,417.59Z"/><path class="cls-26" d="M173.81,414.23a6.58,6.58,0,0,1,8,1.7c-.46-2.76-1.75-5.59-4.5-5.94-2.21-.28-4.47,2-5.19,4.07a14.09,14.09,0,0,0-.58,2.53A6.16,6.16,0,0,1,173.81,414.23Z"/><g class="cls-19"><path class="cls-22" d="M177.66,410.06a7.4,7.4,0,0,1,1.67,3.39c-1.3-1-3.4-.68-4.81,0a5.42,5.42,0,0,0-2.56,2.51,5,5,0,0,1,1.85-1.69,6.58,6.58,0,0,1,8,1.7C181.33,413.31,180.14,410.62,177.66,410.06Z"/></g><path class="cls-26" d="M161.16,415.29a7.54,7.54,0,0,1,4.26,2c-.44-2.78-1.72-5.67-4.49-6-2.19-.27-4.43,2-5.14,4.05a12.36,12.36,0,0,0-.44,1.7A7.17,7.17,0,0,1,161.16,415.29Z"/><g class="cls-19"><path class="cls-22" d="M161.88,411.5c1,.91,1.55,4.05,1.45,4-2.07-1.68-6.42-.84-8,1.46,0,0,0,.06,0,.08a7.17,7.17,0,0,1,5.81-1.72,7.54,7.54,0,0,1,4.26,2C165,414.84,164,412.32,161.88,411.5Z"/></g><g class="cls-19"><path class="cls-23" d="M176.13,432.37s-1.73,7.48-7.61,9.8-11.84.12-12.77-3.69,1-8.29,1-8.29a20.77,20.77,0,0,0,10.6,3.45c5.92.11,8.45-1.92,8.45-1.92S176.42,431.39,176.13,432.37Z"/></g><path class="cls-29" d="M170.35,440.53a12.17,12.17,0,0,1-9.74,1.46c-2.26-.69-4-1.93-4.48-4.36a13.27,13.27,0,0,1,.7-6.75,23.31,23.31,0,0,0,9.28,3.73,11.67,11.67,0,0,0,9.36-2.17,20.82,20.82,0,0,1-3.65,6.74A10.42,10.42,0,0,1,170.35,440.53Z"/><path class="cls-30" d="M161.06,435.14a11,11,0,0,1,5.17,7,11.07,11.07,0,0,1-5.62-.18c-2.26-.69-4-1.93-4.48-4.36a11,11,0,0,1,0-4A12.28,12.28,0,0,1,161.06,435.14Z"/><path class="cls-7" d="M162.23,438.24c.39-.43.86-.31,1.3,0,.16.11.31.27.43.37a3.23,3.23,0,0,1,.94,1.52,1,1,0,0,1-.13,1.05c-.34.36-1,0-1.33-.2C162.81,440.54,161.48,439.1,162.23,438.24Z"/><path class="cls-7" d="M160.51,436.27a.4.4,0,0,1,.22-.18.72.72,0,0,1,.68.18c.29.22.67.79.37,1.15s-.91.09-1.16-.25a.93.93,0,0,1-.21-.69A.41.41,0,0,1,160.51,436.27Z"/><g class="cls-19"><path class="cls-22" d="M151.33,425.41s6.68-2,8.26,5C159.59,430.4,157.1,425,151.33,425.41Z"/></g><path class="cls-28" d="M163.86,409.23a3.59,3.59,0,0,0-4-2c-.84.12-2.58,1.24-2.73,2.24-.16.33,0,.8.45.59,1.81-.82,3.52-1.48,5.18,0C163.25,410.43,164.08,409.75,163.86,409.23Z"/><path class="cls-28" d="M179.42,408.55a3.59,3.59,0,0,0-4.07-1.77c-.84.17-2.51,1.39-2.59,2.4-.14.35,0,.8.49.56,1.75-.93,3.41-1.7,5.17-.32C178.88,409.79,179.68,409.06,179.42,408.55Z"/><path class="cls-24" d="M144.57,409.72c-1.8.36-5,3.08-3.88,5.2a1.35,1.35,0,0,0,1.81.71,5.34,5.34,0,0,0,2.71-1.69C146.46,412.67,147.55,409.12,144.57,409.72Z"/><path class="cls-21" d="M145,411.3a.9.9,0,0,0-1.24-.67,2.62,2.62,0,0,0-1.58,1.59c-.26.71-.21,1.64.81,1.49a3,3,0,0,0,1.93-1.67A1.2,1.2,0,0,0,145,411.3Z"/><path class="cls-24" d="M150.67,405.88c-1.06.21-2.95,1.81-2.28,3.05a.8.8,0,0,0,1.06.42,3.2,3.2,0,0,0,1.59-1C151.77,407.61,152.42,405.53,150.67,405.88Z"/><path class="cls-21" d="M150.9,406.81a.54.54,0,0,0-.73-.4,1.58,1.58,0,0,0-.93.93c-.15.42-.12,1,.47.88a1.75,1.75,0,0,0,1.14-1A.82.82,0,0,0,150.9,406.81Z"/><g class="cls-31"><path class="cls-7" d="M38.43,420.12a3.62,3.62,0,0,1,.22-.32A50.83,50.83,0,0,1,42,415.29a22.21,22.21,0,0,1,5.17-4.1c1.22-.83,2.48-1.58,3.77-2.3a18.78,18.78,0,0,0-4.54.59,14.35,14.35,0,0,0-5,2.85A15.45,15.45,0,0,0,36.83,420a12.8,12.8,0,0,0-.66,2.61A21.77,21.77,0,0,0,38.43,420.12Z"/></g><g class="cls-31"><path class="cls-7" d="M55.24,412.27a4.42,4.42,0,0,0,0,.63c1.6-.82,2.75-2.38,4.16-3.47l.52-.41a26,26,0,0,1,3.45-2.63,21.45,21.45,0,0,1,3.06-1.56,47,47,0,0,1,6-2.38.21.21,0,0,0-.12,0H71.8s.09-.1,0-.1c-6.86-1-14.33,3-16.49,9.7A1.86,1.86,0,0,0,55.24,412.27Z"/></g><g class="cls-31"><path class="cls-7" d="M83.16,404.65c-.65-.58-1.88-.24-2.64-.16a11,11,0,0,0-5.2,1.83,15.18,15.18,0,0,0-6,9.2c0,.18.22.11.26,0a19.76,19.76,0,0,1,5.57-7.15,16.46,16.46,0,0,1,4-2.45c.9-.44,2.88-1.47,3.91-1.19C83.13,404.74,83.19,404.68,83.16,404.65Z"/></g><g class="cls-31"><path class="cls-7" d="M94.08,402A14.74,14.74,0,0,0,90,403.47a10,10,0,0,0-3,3.47c-1.58,2.93-2.76,7.18-1.74,10.46.1.3.51,0,.52-.26.05-3.45,1.4-6.24,2.54-9.41,1-2.82,3.45-4.11,5.75-5.64C94.16,402.05,94.16,402,94.08,402Z"/></g><g class="cls-31"><path class="cls-7" d="M110.71,387.74c-3.95.35-6.9,3.06-9,6.2a19.12,19.12,0,0,0-2.46,5.28c-.67,2.32-.42,4.61-.31,7,0,.24.35.06.37-.1,1.26-7.39,3.93-15.08,11.39-18.22C110.75,387.85,110.8,387.73,110.71,387.74Z"/></g><g class="cls-31"><path class="cls-7" d="M136.81,380.62a18.08,18.08,0,0,0-12,1.56c-3.92,2-5.83,5.63-7.89,9.29-.09.15.15.16.22.06a32.53,32.53,0,0,1,7.73-7.58,22.93,22.93,0,0,1,11.85-3.18C136.83,380.76,136.9,380.64,136.81,380.62Z"/></g><g class="cls-31"><path class="cls-7" d="M157.79,390.8a15.18,15.18,0,0,0-11-2.94,15.9,15.9,0,0,0-5.44,1.86c-1.6.87-2.69,2.33-4.21,3.25,0,0,0,.09,0,.07,1.35-.49,2.48-1.6,3.81-2.21a21.7,21.7,0,0,1,5.54-1.53c3.76-.58,7.66.37,11.14,1.76C157.74,391.12,157.94,390.91,157.79,390.8Z"/></g><g class="cls-31"><path class="cls-7" d="M167.73,401.72a17.3,17.3,0,0,0-9.32-.66,28,28,0,0,0-8.91,3.19,24.85,24.85,0,0,0-6.61,5.95c-1.63,2.12-3.47,5-3.79,7.73,0,.11.13.05.15,0,1.19-5.11,6.51-9.71,10.79-12.34,4.88-3,11.85-4.07,17.47-3.47C167.67,402.11,168,401.79,167.73,401.72Z"/></g><g class="cls-31"><path class="cls-7" d="M157.64,429.23c-1.1-2-2-2.89-4.32-3.34a6.25,6.25,0,0,0-5.19,1.27c-.09.07,0,.2.09.13,1.55-.87,3.46-.54,5.1-.15s2.47,1.67,3.91,2.47C157.42,429.71,157.74,429.42,157.64,429.23Z"/></g><path class="cls-21" d="M44.11,434.86c-.36-1.14-3-2.26-4.15-1.41s-2.77,3.56-2.51,5.38c.16,1.08,1.29,1.14,2.17.9,1.77-.47,4.43-1.88,4.62-4A2.56,2.56,0,0,0,44.11,434.86Z"/><path class="cls-18" d="M39.34,437.7a1.7,1.7,0,0,0-1.81-.25,4.09,4.09,0,0,0-.08,1.38c.16,1.08,1.29,1.14,2.17.9l.15,0A2.19,2.19,0,0,0,39.34,437.7Z"/><path class="cls-21" d="M63.12,434.1c-.36-1.15-3-2.26-4.15-1.41s-2.78,3.55-2.51,5.37c.16,1.09,1.29,1.14,2.17.91,1.77-.48,4.43-1.88,4.61-4A2.1,2.1,0,0,0,63.12,434.1Z"/><path class="cls-18" d="M58.53,436.55a1.86,1.86,0,0,0-2,.19,3.73,3.73,0,0,0-.07,1.32c.16,1.09,1.29,1.14,2.17.91a8.58,8.58,0,0,0,1.16-.41A2.35,2.35,0,0,0,58.53,436.55Z"/><path class="cls-21" d="M80.7,434.89c-.36-1.14-3-2.26-4.15-1.41S73.77,437,74,438.86c.16,1.08,1.29,1.14,2.17.9,1.77-.47,4.43-1.88,4.62-3.95A2.56,2.56,0,0,0,80.7,434.89Z"/><path class="cls-18" d="M76.26,437.07a1.91,1.91,0,0,0-1.8-.22l-.19.09a4.37,4.37,0,0,0-.23,1.92c.16,1.08,1.29,1.14,2.17.9.24-.06.48-.14.74-.23A1.92,1.92,0,0,0,76.26,437.07Z"/><path class="cls-21" d="M97.89,433.12c-.36-1.13-3-2.25-4.16-1.4s-2.77,3.56-2.5,5.37c.16,1.08,1.28,1.15,2.17.91,1.76-.48,4.43-1.88,4.61-4A2.34,2.34,0,0,0,97.89,433.12Z"/><path class="cls-18" d="M93.64,435.25a2.8,2.8,0,0,0-2.22,0,4.19,4.19,0,0,0-.19,1.82c.16,1.08,1.28,1.15,2.17.91a10.56,10.56,0,0,0,1.4-.51A1.94,1.94,0,0,0,93.64,435.25Z"/><path class="cls-21" d="M104.77,419.59c-.13,2.41,2.7,4.46,4.65,5.29,1,.42,2.27.54,2.63-.68.61-2-.67-5.28-2-6.57s-4.39-.32-5,.93A2.82,2.82,0,0,0,104.77,419.59Z"/><path class="cls-18" d="M109.17,421.88a3.21,3.21,0,0,0-1.11,2.29,9.93,9.93,0,0,0,1.36.71c1,.42,2.27.54,2.63-.68a5,5,0,0,0,0-2.32A2.54,2.54,0,0,0,109.17,421.88Z"/><path class="cls-21" d="M119.54,410.12c-1.37,2,0,5.21,1.19,6.94.61.86,1.66,1.64,2.6.8,1.58-1.43,2.19-4.86,1.74-6.65-.41-1.62-3.58-2.57-4.75-1.82A2.75,2.75,0,0,0,119.54,410.12Z"/><path class="cls-18" d="M121.75,414.41a5,5,0,0,0-2.07.77,10.66,10.66,0,0,0,1,1.88c.61.86,1.66,1.64,2.6.8a5.7,5.7,0,0,0,1.42-2.43A3.35,3.35,0,0,0,121.75,414.41Z"/><path class="cls-21" d="M130.71,417.7c-2.07.25-3.4,3-3.82,4.73-.21.89-.12,2,1,2.14,1.83.22,4.4-1.35,5.3-2.66s-.37-3.78-1.52-4.11A2.5,2.5,0,0,0,130.71,417.7Z"/><path class="cls-18" d="M129.5,421.29a4,4,0,0,0-2-.69,8.87,8.87,0,0,0-.66,1.83c-.21.89-.12,2,1,2.14a5.39,5.39,0,0,0,3-.77A3.2,3.2,0,0,0,129.5,421.29Z"/><g class="cls-19"><path class="cls-20" d="M44.11,434.86c-.25-.8-1.61-1.58-2.81-1.69,1,.19,1.9,1,1.32,2.12s-3.68,4.28-5.18,3.36a1.09,1.09,0,0,0,0,.18c.16,1.08,1.29,1.14,2.17.9,1.77-.47,4.43-1.88,4.62-4A2.56,2.56,0,0,0,44.11,434.86Z"/></g><g class="cls-19"><path class="cls-20" d="M63.12,434.1a2.69,2.69,0,0,0-1.57-1.37,1.93,1.93,0,0,1,.17.21c.76,1.22-.42,2.61-1.3,3.4s-2.2,1.8-3.25,1.05a1.59,1.59,0,0,1-.6-.82,3.85,3.85,0,0,0-.11,1.49c.16,1.09,1.29,1.14,2.17.91,1.77-.48,4.43-1.88,4.61-4A2.1,2.1,0,0,0,63.12,434.1Z"/></g><g class="cls-19"><path class="cls-20" d="M80.7,434.89a3.37,3.37,0,0,0-2.57-1.66,1.71,1.71,0,0,1,.58.46c.94,1.13-.61,3.06-1.45,3.76s-2.61,1.87-3.07.24a1.05,1.05,0,0,1-.06-.24,4,4,0,0,0-.09,1.41c.16,1.08,1.29,1.14,2.17.9,1.77-.47,4.43-1.88,4.62-3.95A2.56,2.56,0,0,0,80.7,434.89Z"/></g><g class="cls-19"><path class="cls-20" d="M97.89,433.12c-.34-1.07-2.69-2.12-3.93-1.54a3.69,3.69,0,0,1,1.15,0,1.7,1.7,0,0,1,1.18,2.72c-.69,1.18-2.75,3.28-4.34,2.47a1.43,1.43,0,0,1-.71-.75,3.85,3.85,0,0,0,0,1.07c.16,1.08,1.28,1.15,2.17.91,1.76-.48,4.43-1.88,4.61-4A2.34,2.34,0,0,0,97.89,433.12Z"/></g><g class="cls-19"><path class="cls-20" d="M110.05,417.63c-.85-.84-2.74-.64-4,0,1.59-.45,3,1.59,3.64,2.83.86,1.6,1.39,3.69-1,4.11.22.11.43.22.64.3,1,.42,2.27.54,2.63-.68C112.66,422.16,111.38,418.92,110.05,417.63Z"/></g><g class="cls-19"><path class="cls-20" d="M125.07,411.21c-.41-1.62-3.58-2.57-4.75-1.82l-.15.11a1.25,1.25,0,0,1,.78.05c.87.32,1.21,1.72,1.33,2.49a18.08,18.08,0,0,1,.2,2.75c0,.82-.23,3.12-1.66,2.35l-.06,0c.62.85,1.64,1.59,2.57.76C124.91,416.43,125.52,413,125.07,411.21Z"/></g><g class="cls-19"><path class="cls-20" d="M131.63,417.8h0a2.46,2.46,0,0,1,.31.33c1,1.29-.82,3.26-1.67,4.09s-2.2,2.05-3.15.89a1.4,1.4,0,0,1-.24-.45c-.14.85,0,1.81,1,1.92,1.83.22,4.4-1.35,5.3-2.66S132.78,418.13,131.63,417.8Z"/></g><path class="cls-32" d="M910.31,399.64s.45-9.91-3.19-16.39-8.25-9.6-11-6.61-1.64,7.22.65,10,10.6,11.29,12,13.28l.13.26Z"/><path class="cls-32" d="M896.75,386.67c2.3,2.8,10.6,11.29,12,13.28l.13.26,1.43-.57s.45-9.91-3.19-16.39-8.25-9.6-11-6.61S894.46,383.86,896.75,386.67Zm2-4.47c0-1.74,1.13-4,3.21-3.68a6,6,0,0,1,3.32,2.48,18.38,18.38,0,0,1,2,3.72,37.42,37.42,0,0,1,1.68,4.84,20.38,20.38,0,0,1,.85,4.89c0,.9.22,2.38-.47,3.09s-1.82-.55-2.23-1a39.47,39.47,0,0,1-3.33-3.75,31.4,31.4,0,0,1-4-6.52A10.64,10.64,0,0,1,898.79,382.2Z"/><path class="cls-33" d="M896.1,376.64a3.26,3.26,0,0,1,2.87-1.12c-2.7.81-3.72,3.63-3.18,6.23a13.32,13.32,0,0,0,1.46,4,23.41,23.41,0,0,0,3,3.86c1.27,1.37,2.49,2.79,3.73,4.18.61.69,1.29,1.34,1.84,2.07.4.54.77,1.12,1.21,1.62.6.66,1.67,1.47,2.53.7a2.8,2.8,0,0,0,.73-1.17c.06,1.6,0,2.62,0,2.62l-1.43.57-.13-.26c-1.4-2-9.7-10.48-12-13.28S893.32,379.63,896.1,376.64Z"/><path class="cls-34" d="M898.17,378.86a19.14,19.14,0,0,1,1.53,3.5c.18.53.31,1.08.47,1.62s.2.92.31,1.37l-.12-.15a24.18,24.18,0,0,0-1.79-2c-.34-.33-.7-.63-1.06-.93v0s0-.05-.06,0c-.29-.24-.58-.48-.86-.73,0,0,0,0,0,0l.86.8c0,.68.12,1.35.22,2a9.72,9.72,0,0,0,.17,1.32s0,.07,0,.1c-.48-.5-.94-1-1.42-1.52,0,0,0,0,0,.05a25.75,25.75,0,0,0,3.86,3.88c.44.33.9.64,1.37.93a8.67,8.67,0,0,0-1,.22c-.39.07-.79.09-1.17.19,0,0,0,.06,0,.06a5.76,5.76,0,0,0,1.31-.12,5,5,0,0,0,.91-.33l.6.35c.53.31,1.18.49,1.71.82.88,1.28,1.77,2.55,2.56,3.89a12.26,12.26,0,0,1-4.64-2.09s0,0,0,0a9.38,9.38,0,0,0,2.59,1.52,5.93,5.93,0,0,0,2.09.58l0,0c.53.9,1,1.83,1.54,2.76a12.58,12.58,0,0,1-3.44-1.76s0,0,0,.06a7.81,7.81,0,0,0,1.93,1.28c.3.15,1.17.67,1.59.54.34.63.67,1.27,1,1.9,0,0,.07,0,0,0a46.17,46.17,0,0,0-4.38-7.78c.07-.32.12-.64.16-1s0-.5.05-.75c.43.81.84,1.62,1.24,2.44v0l0,0c.32.67.65,1.34,1,2,.72,1.49,1.31,3,2,4.55,0,0,.06,0,.05,0a28.92,28.92,0,0,0-1.36-3.44,5.06,5.06,0,0,0,.23-1.28,7.23,7.23,0,0,0,.12-1.13c.1.34.19.67.28,1,.25,1,.46,1.9.62,2.87.07.44.14.88.19,1.33a1.86,1.86,0,0,0,.14.66h0a6.65,6.65,0,0,1-.12-1.35q-.08-.66-.18-1.32c-.18-1-.39-1.93-.65-2.88s-.48-1.63-.75-2.44l0,0a5,5,0,0,0,.13-1.92c0-.71-.15-1.41-.2-2.12h0c0,.62.08,1.26.09,1.88s-.07,1.33-.09,2c-.29-.83-.59-1.65-.93-2.47s-.73-1.67-1.13-2.49c0-.25.07-.56.08-.77a5.66,5.66,0,0,0,0-1.09,22.15,22.15,0,0,0-.42-2.71s0,0,0,0a22.22,22.22,0,0,1,.33,3.05,10.26,10.26,0,0,1,0,1.24s0,.09,0,.13a45.45,45.45,0,0,0-3-5.29v0c.13-.59.26-1.16.36-1.75,0,0,0,0,0,0a11.16,11.16,0,0,1-.32,1.13,1.33,1.33,0,0,0-.13.52c-.38-.57-.77-1.12-1.18-1.67,0,0-.06,0,0,0q1.47,2.14,2.74,4.38a4.55,4.55,0,0,0-.43,1.4,18.68,18.68,0,0,0-.43,1.94c-.54-.9-1.1-1.79-1.68-2.66a7.43,7.43,0,0,0,0-2.66c-.16-1.13-.42-2.22-.63-3.34h0c.13,1.06.35,2.12.5,3.17a25.8,25.8,0,0,1,.13,2.77c-.7-1.05-1.44-2.08-2.23-3.07h0a60.25,60.25,0,0,1,4.47,6.9c-.32,0-.63.07-1,.08a6,6,0,0,1-.95-.1l-1.31-1.65c0-.22,0-.45-.07-.67s-.18-.68-.25-1a15.54,15.54,0,0,0-.47-1.65,15.92,15.92,0,0,0-1.54-3.26C898.19,378.77,898.16,378.83,898.17,378.86Zm8.23,12.92a17.11,17.11,0,0,0,.14-2.57c0-.5.06-1,.05-1.49l.21.51a45,45,0,0,1,1.52,4.36c0,.46-.14.92-.2,1.37a7.14,7.14,0,0,1-.18,1c-.19-.4-.37-.8-.56-1.19C907.05,393.11,906.73,392.44,906.4,391.78Zm-1.27-2.49v0h0v0c-.58-1.07-1.17-2.12-1.8-3.17.14-.6.27-1.2.41-1.79a11.08,11.08,0,0,1,.4-1.63,46.32,46.32,0,0,1,2.43,4.95c0,.12,0,.24,0,.36-.06.4-.09.8-.11,1.2,0,.81-.09,1.62-.1,2.42C905.94,390.83,905.54,390.05,905.13,389.29Zm-1.54.11c-.53-.74-1.07-1.47-1.63-2.18l.3,0a3.18,3.18,0,0,0,.43.06,4.27,4.27,0,0,0,1.08-.16c.39.68.77,1.37,1.14,2.06l.14.26c-.07.28-.09.6-.14.87s-.12.51-.14.76C904.38,390.52,904,390,903.59,389.4Zm-3.05-3.75c1.06,1.32,2.1,2.68,3.06,4.07l.26.39a9,9,0,0,0-1.2-.61,14,14,0,0,1-2.15-1.34,21.25,21.25,0,0,1-2.63-2.38,5.78,5.78,0,0,1,0-.7c0-.37-.08-.75-.13-1.12-.07-.53-.11-1.06-.19-1.58.39.35.78.71,1.15,1.09C899.34,384.17,899.94,384.91,900.54,385.65Z"/><path class="cls-35" d="M909.57,396.14s0-9.32-5.32-15.74c0,0-1.92-2.5-3.7-.89,0,0,1.7-1.18,4.26,2.43C907.14,385.25,908.9,391,909.57,396.14Z"/><path class="cls-36" d="M908,426.65a2.07,2.07,0,0,1-1.2-1.1,4.27,4.27,0,0,1-.19-.86c-.07-.34-.14-.68-.24-1,0,0,0-.07.07-.08h.1a2.93,2.93,0,0,0-.13-.51c0-.12-.21-.35-.21-.46s.06,0,0-.14a.43.43,0,0,0-.06-.22,3,3,0,0,0-.15-.31c-.06-.12-.17-.34-.07-.47s.21-.11.2-.24a.2.2,0,0,0,0-.07,1.63,1.63,0,0,0-.63-.85s0-.05,0-.07c.52-.56,0-1.28-.18-1.88s-.32-1.12-.5-1.67c0,0,0,0,0-.05a1.77,1.77,0,0,1-.15-.36c.06,0,.19-.17.19-.27a.42.42,0,0,0,0-.25,2.16,2.16,0,0,1-.55-.81,9.9,9.9,0,0,1-.38-1.86c0-.29-.07-.6-.11-.92.14-.09.22-.2.17-.33a3.67,3.67,0,0,1-.32-1.64c0-.69.09-1.38.19-2.07.16-1.09.72-2.42.38-3.53-.16-.52-.65-1.55-1.32-1.06s-.63,1.74-.49,2.47c0,.05.06.05.1,0a13.82,13.82,0,0,1,0,1.93c-.07.58-.16,1.16-.21,1.74a3.43,3.43,0,0,1-.58,1.94c-.31.41.08.64.63.72.18,1,.33,2,.57,2.93a3.61,3.61,0,0,1,.15.86c0,.2-.1.43,0,.63a4.9,4.9,0,0,1,.52,1,8.63,8.63,0,0,1,.19,1,4.54,4.54,0,0,1,.07.82c0,.15-.05.5.06.62s.52,0,.52.28a.48.48,0,0,0,.07.27c.1.22,0,.47.09.68a.36.36,0,0,0,.28.17c0,.23,0,.47,0,.69s.13.26.29.34v.19a5.61,5.61,0,0,0,0,.71c0,.17.22.21.45.21a8.08,8.08,0,0,0,.32,2.4,2.28,2.28,0,0,0,.5.62,2.65,2.65,0,0,0,1.64.79c.54-.05.85-.5,1.05-1A1.56,1.56,0,0,1,908,426.65Z"/><path class="cls-37" d="M908,426.65a2.07,2.07,0,0,1-1.2-1.1,4.27,4.27,0,0,1-.19-.86c-.07-.34-.14-.68-.24-1,0,0,0-.07.07-.08h.1a2.93,2.93,0,0,0-.13-.51c0-.12-.21-.35-.21-.46s.06,0,0-.14a.43.43,0,0,0-.06-.22,3,3,0,0,0-.15-.31c-.06-.12-.17-.34-.07-.47s.21-.11.2-.24a.2.2,0,0,0,0-.07,1.63,1.63,0,0,0-.63-.85s0-.05,0-.07c.52-.56,0-1.28-.18-1.88s-.32-1.12-.5-1.67c0,0,0,0,0-.05a1.77,1.77,0,0,1-.15-.36c.06,0,.19-.17.19-.27a.42.42,0,0,0,0-.25,2.16,2.16,0,0,1-.55-.81,9.9,9.9,0,0,1-.38-1.86c0-.29-.07-.6-.11-.92.14-.09.22-.2.17-.33a3.67,3.67,0,0,1-.32-1.64c0-.69.09-1.38.19-2.07.16-1.09.72-2.42.38-3.53-.16-.52-.65-1.55-1.32-1.06s-.63,1.74-.49,2.47c0,.05.06.05.1,0a13.82,13.82,0,0,1,0,1.93c-.07.58-.16,1.16-.21,1.74a3.43,3.43,0,0,1-.58,1.94c-.31.41.08.64.63.72.18,1,.33,2,.57,2.93a3.61,3.61,0,0,1,.15.86c0,.2-.1.43,0,.63a4.9,4.9,0,0,1,.52,1,8.63,8.63,0,0,1,.19,1,4.54,4.54,0,0,1,.07.82c0,.15-.05.5.06.62s.52,0,.52.28a.48.48,0,0,0,.07.27c.1.22,0,.47.09.68a.36.36,0,0,0,.28.17c0,.23,0,.47,0,.69s.13.26.29.34v.19a5.61,5.61,0,0,0,0,.71c0,.17.22.21.45.21a8.08,8.08,0,0,0,.32,2.4,2.28,2.28,0,0,0,.5.62,2.65,2.65,0,0,0,1.64.79c.54-.05.85-.5,1.05-1A1.56,1.56,0,0,1,908,426.65Z"/><path class="cls-37" d="M905.62,424.15c.11-.11.24-.17.36,0,.38.47.2,1.19.49,1.72A2.61,2.61,0,0,0,908,427a1.06,1.06,0,0,0,.89,0,2.52,2.52,0,0,0,.22-.47,1.56,1.56,0,0,1-1.08.1,2.07,2.07,0,0,1-1.2-1.1,4.27,4.27,0,0,1-.19-.86c-.07-.34-.14-.68-.24-1,0,0,0-.07.07-.08h.1a2.93,2.93,0,0,0-.13-.51c0-.12-.21-.35-.21-.46s.06,0,0-.14a.43.43,0,0,0-.06-.22,3,3,0,0,0-.15-.31c-.06-.12-.17-.34-.07-.47s.21-.11.2-.24a.2.2,0,0,0,0-.07,1.63,1.63,0,0,0-.63-.85s0-.05,0-.07c.52-.56,0-1.28-.18-1.88s-.32-1.12-.5-1.67c0,0,0,0,0-.05a1.77,1.77,0,0,1-.15-.36c.06,0,.19-.17.19-.27a.42.42,0,0,0,0-.25,2.16,2.16,0,0,1-.55-.81,9.9,9.9,0,0,1-.38-1.86c0-.29-.07-.6-.11-.92.14-.09.22-.2.17-.33a3.67,3.67,0,0,1-.32-1.64c0-.69.09-1.38.19-2.07.16-1.09.72-2.42.38-3.53-.16-.52-.65-1.55-1.32-1.06s-.63,1.74-.49,2.47c0,.05.06.05.1,0,0,.38,0,.76,0,1.14.19.19.46.3.6.54a1.44,1.44,0,0,1,0,1.1,10.21,10.21,0,0,0-.31,1.65,4.48,4.48,0,0,1-.28,1.41.09.09,0,0,1-.07.05c-.2,0-.58,0-.73-.12a.22.22,0,0,1-.06-.15c-.29.41.1.63.64.71.18,1,.33,2,.57,2.93a3.61,3.61,0,0,1,.15.86c0,.2-.1.43,0,.63a4.9,4.9,0,0,1,.52,1,8.63,8.63,0,0,1,.19,1,4.54,4.54,0,0,1,.07.82c0,.15-.05.5.06.62s.52,0,.52.28a.48.48,0,0,0,.07.27c.1.22,0,.47.09.68a.36.36,0,0,0,.28.17c0,.23,0,.47,0,.69s.13.26.29.34v.19a5.61,5.61,0,0,0,0,.71c0,.17.22.21.45.21C905.61,423.89,905.61,424,905.62,424.15Zm-1.68-7.56c-.2.3-.41.24-.58-.06a4.52,4.52,0,0,1-.35-1.78c-.06-.67-.32-1.31-.34-2,0,0,0,0,0,0s.08-.21.23-.14a1.81,1.81,0,0,1,.83,1.21,15.13,15.13,0,0,1,.25,1.5A2,2,0,0,1,903.94,416.59Zm1.18,4.87a.37.37,0,0,1-.29-.19s0,0,0,0c-.11-.24-.18-.63.11-.8a.47.47,0,0,1,.63.27.54.54,0,0,1,0,.51l0,0c.11.24.36.45.29.73s-.22.43-.44.42C905,422.4,905,421.86,905.12,421.46Zm.26,1.41s0-.06.07-.05,0,0,0,0,0-.07.09,0a1,1,0,0,1,.56.62.08.08,0,0,1,0,.08c-.17.06-.48.18-.64,0S905.34,423,905.38,422.87Z"/><path class="cls-36" d="M914.69,424.38a1.93,1.93,0,0,1-1.2-.87,4,4,0,0,1-.26-.76,8,8,0,0,0-.33-.89s0-.07.06-.08l.09,0a3.47,3.47,0,0,0-.17-.45c-.06-.1-.23-.29-.24-.39s.05,0,0-.14a.62.62,0,0,0-.07-.19l-.18-.27c-.06-.1-.19-.28-.11-.41s.17-.12.15-.23a.13.13,0,0,0,0-.06,1.52,1.52,0,0,0-.66-.71s0,0,0-.06c.41-.56-.12-1.16-.36-1.68s-.41-1-.63-1.46l0,0a2,2,0,0,1-.17-.3c0-.06.16-.19.15-.28s0-.16-.06-.22a1.88,1.88,0,0,1-.58-.67,9.47,9.47,0,0,1-.55-1.63c0-.27-.12-.55-.19-.83.12-.09.18-.2.12-.31A3.49,3.49,0,0,1,909,410c0-.63-.06-1.26,0-1.89,0-1,.39-2.27,0-3.23-.2-.45-.75-1.33-1.3-.81s-.39,1.63-.18,2.27c0,.05.06,0,.09,0a12.8,12.8,0,0,1,.17,1.75c0,.53,0,1.06,0,1.59a3.17,3.17,0,0,1-.32,1.82c-.24.41.14.57.64.58.27.87.51,1.74.83,2.59a2.88,2.88,0,0,1,.22.76c0,.18,0,.4.08.57a4.48,4.48,0,0,1,.58.86c.11.28.18.59.27.88a3.64,3.64,0,0,1,.15.73c0,.14,0,.46.12.56s.47-.07.5.19a.44.44,0,0,0,.09.24c.11.19,0,.43.16.6a.28.28,0,0,0,.26.12,6,6,0,0,0,.08.63c0,.19.15.22.3.28s0,.11,0,.17a5,5,0,0,0,.07.65c0,.14.22.16.44.13a7.46,7.46,0,0,0,.53,2.14,2.1,2.1,0,0,0,.53.5,2.32,2.32,0,0,0,1.56.54,1.22,1.22,0,0,0,.84-1A1.45,1.45,0,0,1,914.69,424.38Z"/><path class="cls-37" d="M914.69,424.38a1.93,1.93,0,0,1-1.2-.87,4,4,0,0,1-.26-.76,8,8,0,0,0-.33-.89s0-.07.06-.08l.09,0a3.47,3.47,0,0,0-.17-.45c-.06-.1-.23-.29-.24-.39s.05,0,0-.14a.62.62,0,0,0-.07-.19l-.18-.27c-.06-.1-.19-.28-.11-.41s.17-.12.15-.23a.13.13,0,0,0,0-.06,1.52,1.52,0,0,0-.66-.71s0,0,0-.06c.41-.56-.12-1.16-.36-1.68s-.41-1-.63-1.46l0,0a2,2,0,0,1-.17-.3c0-.06.16-.19.15-.28s0-.16-.06-.22a1.88,1.88,0,0,1-.58-.67,9.47,9.47,0,0,1-.55-1.63c0-.27-.12-.55-.19-.83.12-.09.18-.2.12-.31A3.49,3.49,0,0,1,909,410c0-.63-.06-1.26,0-1.89,0-1,.39-2.27,0-3.23-.2-.45-.75-1.33-1.3-.81s-.39,1.63-.18,2.27c0,.05.06,0,.09,0a12.8,12.8,0,0,1,.17,1.75c0,.53,0,1.06,0,1.59a3.17,3.17,0,0,1-.32,1.82c-.24.41.14.57.64.58.27.87.51,1.74.83,2.59a2.88,2.88,0,0,1,.22.76c0,.18,0,.4.08.57a4.48,4.48,0,0,1,.58.86c.11.28.18.59.27.88a3.64,3.64,0,0,1,.15.73c0,.14,0,.46.12.56s.47-.07.5.19a.44.44,0,0,0,.09.24c.11.19,0,.43.16.6a.28.28,0,0,0,.26.12,6,6,0,0,0,.08.63c0,.19.15.22.3.28s0,.11,0,.17a5,5,0,0,0,.07.65c0,.14.22.16.44.13a7.46,7.46,0,0,0,.53,2.14,2.1,2.1,0,0,0,.53.5,2.32,2.32,0,0,0,1.56.54,1.22,1.22,0,0,0,.84-1A1.45,1.45,0,0,1,914.69,424.38Z"/><path class="cls-37" d="M912.25,422.38c.09-.12.19-.19.32-.06.4.38.31,1.05.63,1.5a2.36,2.36,0,0,0,1.51.89.93.93,0,0,0,.8-.09,3,3,0,0,0,.15-.45,1.45,1.45,0,0,1-1,.21,1.93,1.93,0,0,1-1.2-.87,4,4,0,0,1-.26-.76,8,8,0,0,0-.33-.89s0-.07.06-.08l.09,0a3.47,3.47,0,0,0-.17-.45c-.06-.1-.23-.29-.24-.39s.05,0,0-.14a.62.62,0,0,0-.07-.19l-.18-.27c-.06-.1-.19-.28-.11-.41s.17-.12.15-.23a.13.13,0,0,0,0-.06,1.52,1.52,0,0,0-.66-.71s0,0,0-.06c.41-.56-.12-1.16-.36-1.68s-.41-1-.63-1.46l0,0a2,2,0,0,1-.17-.3c0-.06.16-.19.15-.28s0-.16-.06-.22a1.88,1.88,0,0,1-.58-.67,9.47,9.47,0,0,1-.55-1.63c0-.27-.12-.55-.19-.83.12-.09.18-.2.12-.31A3.49,3.49,0,0,1,909,410c0-.63-.06-1.26,0-1.89,0-1,.39-2.27,0-3.23-.2-.45-.75-1.33-1.3-.81s-.39,1.63-.18,2.27c0,.05.06,0,.09,0,.05.35.1.69.13,1,.19.15.45.21.6.42a1.3,1.3,0,0,1,.12,1,9.72,9.72,0,0,0-.11,1.52,3.84,3.84,0,0,1-.1,1.31s0,0-.06.05c-.18,0-.51.09-.67,0a.25.25,0,0,1-.07-.12c-.22.39.16.55.65.56.27.87.51,1.74.83,2.59a2.88,2.88,0,0,1,.22.76c0,.18,0,.4.08.57a4.48,4.48,0,0,1,.58.86c.11.28.18.59.27.88a3.64,3.64,0,0,1,.15.73c0,.14,0,.46.12.56s.47-.07.5.19a.44.44,0,0,0,.09.24c.11.19,0,.43.16.6a.28.28,0,0,0,.26.12,6,6,0,0,0,.08.63c0,.19.15.22.3.28s0,.11,0,.17a5,5,0,0,0,.07.65c0,.14.22.16.44.13C912.21,422.14,912.23,422.26,912.25,422.38Zm-2.32-6.66c-.15.3-.35.27-.53,0a3.91,3.91,0,0,1-.5-1.57c-.13-.6-.44-1.15-.52-1.76,0,0,0,0,0,0s0-.2.19-.15a1.71,1.71,0,0,1,.88,1c.16.43.27.89.39,1.34A1.85,1.85,0,0,1,909.93,415.72Zm1.58,4.28a.37.37,0,0,1-.28-.14s0,0,0,0c-.12-.21-.22-.55,0-.73a.43.43,0,0,1,.59.17.52.52,0,0,1,.1.46l0,.05c.13.21.37.37.35.63s-.16.41-.36.42C911.48,420.86,911.47,420.37,911.51,420Zm.38,1.24a.09.09,0,0,1,.07-.05s0,0,0,0,0-.07.07,0a.86.86,0,0,1,.58.5.08.08,0,0,1,0,.07c-.15.08-.42.22-.58.1S911.88,421.4,911.89,421.24Z"/><path class="cls-36" d="M902,422.45a2,2,0,0,1-.92-.89s0-.05,0-.07a1.61,1.61,0,0,0,.33-.5,1,1,0,0,0,0-.24.1.1,0,0,0-.07-.1,2.58,2.58,0,0,1-1.44-1.17c-.22-.41-.44-.82-.67-1.22.12-.08.25-.17.28-.3s-.17-.3-.33-.41l-.24-.18a.36.36,0,0,0,.11-.39c-.06-.12-.24-.12-.35-.18l-.2-.13h0c.11-.31-.24-.56-.43-.76l-.11-.1c.17-.63-.86-1.49-1.12-1.91a15.26,15.26,0,0,1-1-1.93c-.06-.14-.12-.28-.19-.42h0c.27-.18.19-.48.11-.77a13.18,13.18,0,0,1-.44-1.75,13.6,13.6,0,0,1,.11-1.91c0-.54,0-1.08,0-1.62a8.61,8.61,0,0,0,0-2c-.06-.33-.38-2.36-1.08-2a.47.47,0,0,0-.21.21c0,.79,0,1.58,0,2.37,0,1-.12,1.92-.16,2.89s-.11,1.93-.15,2.9a2.8,2.8,0,0,0,0,1c.11.27.53.31.77.42a0,0,0,0,1,0,0,1.72,1.72,0,0,0,0,.78c.12.27.25.53.36.79.2.49.39,1,.58,1.48l0,.09v0l.24.65c.13.33.23.67.34,1a.49.49,0,0,0,.26.35.59.59,0,0,0,.3,0l0,.3a1.66,1.66,0,0,0,.17.73.08.08,0,0,0,.07.05h.1l0,.19a.88.88,0,0,0,.06.66c.1.15.27.11.45,0a4.91,4.91,0,0,0,.12.72c.05.19.18.17.31.09.06.22.15.45.19.57a9.2,9.2,0,0,0,1.16,2,.88.88,0,0,0,.95.41,2,2,0,0,1,.11.21,3.48,3.48,0,0,0,.17.31,3,3,0,0,0,.5.11,1.3,1.3,0,0,0,1-.29Z"/><path class="cls-38" d="M902,422.45a2,2,0,0,1-.92-.89s0-.05,0-.07a1.61,1.61,0,0,0,.33-.5,1,1,0,0,0,0-.24.1.1,0,0,0-.07-.1,2.58,2.58,0,0,1-1.44-1.17c-.22-.41-.44-.82-.67-1.22.12-.08.25-.17.28-.3s-.17-.3-.33-.41l-.24-.18a.36.36,0,0,0,.11-.39c-.06-.12-.24-.12-.35-.18l-.2-.13h0c.11-.31-.24-.56-.43-.76l-.11-.1c.17-.63-.86-1.49-1.12-1.91a15.26,15.26,0,0,1-1-1.93c-.06-.14-.12-.28-.19-.42h0c.27-.18.19-.48.11-.77a13.18,13.18,0,0,1-.44-1.75,13.6,13.6,0,0,1,.11-1.91c0-.54,0-1.08,0-1.62a8.61,8.61,0,0,0,0-2c-.06-.33-.38-2.36-1.08-2a.47.47,0,0,0-.21.21c0,.79,0,1.58,0,2.37,0,1-.12,1.92-.16,2.89,0,.22,0,.44,0,.66a5.67,5.67,0,0,0,.39.78,2.08,2.08,0,0,1,.4.8,4.4,4.4,0,0,1,.07.89c0,.32-.27.73-.64.45a.89.89,0,0,1-.34-.58,2.47,2.47,0,0,0,0,.9c.11.27.53.31.77.42a0,0,0,0,1,0,0,1.72,1.72,0,0,0,0,.78c.12.27.25.53.36.79.2.49.39,1,.58,1.48l0,.09v0l.24.65c.13.33.23.67.34,1a.49.49,0,0,0,.26.35.59.59,0,0,0,.3,0l0,.3a1.66,1.66,0,0,0,.17.73.08.08,0,0,0,.07.05h.1l0,.19a.88.88,0,0,0,.06.66c.1.15.27.11.45,0a4.91,4.91,0,0,0,.12.72c.05.19.18.17.31.09.06.22.15.45.19.57a9.2,9.2,0,0,0,1.16,2,.88.88,0,0,0,.95.41,2,2,0,0,1,.11.21,3.48,3.48,0,0,0,.17.31,3,3,0,0,0,.5.11,1.3,1.3,0,0,0,1-.29Zm-6-7.78a13.44,13.44,0,0,0-.62-1.52,8.06,8.06,0,0,1-.39-.71,1.31,1.31,0,0,1-.17-.69s0-.07.08-.06c.37,0,.54.35.69.66.22.48.42,1,.64,1.46s.55,1,.83,1.46c.15.25.26.51.06.76C896.53,416.79,896.13,414.94,896,414.67Zm1.13,2.54s-.07,0-.08,0a2,2,0,0,1,0-.78s0-.05.07-.06.41,0,.54.13C897.92,416.83,897.37,417.05,897.16,417.21Zm.46.93c-.24.08-.3-.12-.29-.32a.35.35,0,0,1,.27-.46.4.4,0,0,1,.45.22.27.27,0,0,1,0,.26A.89.89,0,0,1,897.62,418.14Zm.47.82c-.28,0-.25-.43-.24-.6s.09-.09.1-.06a.44.44,0,0,1,.25-.11c.15,0,.36,0,.39.22a.42.42,0,0,1-.12.29A.67.67,0,0,1,898.09,419Zm.29.37a.05.05,0,0,1,0-.05.39.39,0,0,1,.15-.31c.19-.15.35.06.43.22a6.19,6.19,0,0,0,.68,1.09,15.1,15.1,0,0,1,1.05,1.34s0,.05,0,.07C899.62,422.77,898.44,420.14,898.38,419.33Zm3.16,3.2a.65.65,0,0,1-.89-.31s0-.08.07-.09c.17-.34.71.18.86.32S901.56,422.52,901.54,422.53Z"/><path class="cls-39" d="M925.53,412.06a29.24,29.24,0,0,0-1.38-4.77A22,22,0,0,0,922,403a18.49,18.49,0,0,0-3.35-3.82c-1.24-1.07-2.79-2-4.48-1.51a4.61,4.61,0,0,0-2.13,1.27,7.13,7.13,0,0,0-1.34,2.37,16.59,16.59,0,0,0-.76,2.58,11.49,11.49,0,0,1-.65,2.38,14.67,14.67,0,0,0,1.42,8.44,31.89,31.89,0,0,0,5,6.14c1.6,1.7,3.59,3.1,4,5.5.07.36,0,1.11.51,1.15s.91-.86,1.14-1.14a19.35,19.35,0,0,0,4.56-10A20.13,20.13,0,0,0,925.53,412.06Z"/><path class="cls-40" d="M922.35,406.85a8.26,8.26,0,0,0,.78-1.9,17.71,17.71,0,0,0-3.21-4.59,7.42,7.42,0,0,1-1.34,4.31c-2.18,2.64-6.22,4.3-9.32,2.52a16.07,16.07,0,0,0,.26,4C913.78,414.59,920,411.31,922.35,406.85Z"/><path class="cls-40" d="M923.08,412a14.71,14.71,0,0,0,1.34-3.16c0-.18.05-.36.07-.55s-.22-.64-.34-1a25.47,25.47,0,0,0-1-2.34,8.26,8.26,0,0,1-.78,1.9c-2.4,4.46-8.57,7.74-12.83,4.36a11.86,11.86,0,0,0,1.23,3.52,14.5,14.5,0,0,0,.94,1.5c2.57,1.76,6.28.92,8.72-1.11A16.93,16.93,0,0,0,923.08,412Z"/><path class="cls-40" d="M923.57,417.43a10.52,10.52,0,0,0,1.93-5.53,29,29,0,0,0-1-3.65c0,.19,0,.37-.07.55a14.71,14.71,0,0,1-1.34,3.16,16.93,16.93,0,0,1-2.67,3.16c-2.44,2-6.15,2.87-8.72,1.11a35.58,35.58,0,0,0,3.14,3.69A7.83,7.83,0,0,0,923.57,417.43Z"/><path class="cls-40" d="M923.93,421.44a10.11,10.11,0,0,0,1.58-2.68,17.26,17.26,0,0,0,.47-2.4,20.13,20.13,0,0,0-.45-4.3l0-.16a10.52,10.52,0,0,1-1.93,5.53,7.83,7.83,0,0,1-8.74,2.49l.9.95c.87.92,1.85,1.76,2.64,2.71A6.34,6.34,0,0,0,923.93,421.44Z"/><path class="cls-40" d="M923.93,421.44a6.34,6.34,0,0,1-5.56,2.14,6.15,6.15,0,0,1,1.4,2.79c.07.36,0,1.11.51,1.15s.91-.86,1.14-1.14a20.43,20.43,0,0,0,4.09-7.62A10.11,10.11,0,0,1,923.93,421.44Z"/><path class="cls-39" d="M918.58,404.67a7.42,7.42,0,0,0,1.34-4.31c-.39-.4-.8-.79-1.23-1.16-1.24-1.07-2.79-2-4.48-1.51a4.61,4.61,0,0,0-2.13,1.27,7.13,7.13,0,0,0-1.34,2.37,16.59,16.59,0,0,0-.76,2.58,11.49,11.49,0,0,1-.65,2.38c0,.3-.05.6-.07.9C912.36,409,916.4,407.31,918.58,404.67Z"/><path class="cls-41" d="M913.45,407.8a6,6,0,0,1-4.19-.61,16.07,16.07,0,0,0,.26,4c3.07,2.44,7.14,1.41,10.06-1l-.39.07A6.29,6.29,0,0,1,913.45,407.8Z"/><path class="cls-41" d="M917.67,411.48c-2.63,1.42-5.7,1.67-8.15-.27a11.86,11.86,0,0,0,1.23,3.52,14.5,14.5,0,0,0,.94,1.5c2.57,1.76,6.28.92,8.72-1.11a13.88,13.88,0,0,0,1.46-1.53A6,6,0,0,1,917.67,411.48Z"/><path class="cls-41" d="M920.37,415.15c-2.44,2-6.12,2.83-8.68,1.08a35.58,35.58,0,0,0,3.14,3.69,7.83,7.83,0,0,0,8.74-2.49c.09-.13.18-.25.26-.38A6,6,0,0,1,920.37,415.15Z"/><path class="cls-41" d="M921.88,419a7.74,7.74,0,0,1-7,.93l.9.95c.87.92,1.85,1.76,2.64,2.71a6.34,6.34,0,0,0,5.56-2.14l.28-.35A5.1,5.1,0,0,1,921.88,419Z"/><path class="cls-41" d="M922.23,424.07a5,5,0,0,1-.56-1,5.37,5.37,0,0,1-3.3.49,6.15,6.15,0,0,1,1.4,2.79c.07.36,0,1.11.51,1.15s.91-.86,1.14-1.14c.47-.56.91-1.15,1.33-1.75A2.75,2.75,0,0,1,922.23,424.07Z"/><path class="cls-41" d="M921.64,424.39a2.89,2.89,0,0,0,.22-.91,3.49,3.49,0,0,1-.19-.39,5.37,5.37,0,0,1-3.3.49,7.24,7.24,0,0,1,1,1.57C920.24,425.23,921.24,425.22,921.64,424.39Z"/><path class="cls-42" d="M909.72,409.57a3.35,3.35,0,0,0,2.28.82,3.87,3.87,0,0,0,2.6-1.39,5,5,0,0,1-1.15-1.2,6,6,0,0,1-4.19-.61c0,.5,0,1,0,1.54A1.68,1.68,0,0,0,909.72,409.57Z"/><path class="cls-42" d="M911.49,414.11a3.89,3.89,0,0,0,2.49.34,3,3,0,0,0,1.9-1,2.36,2.36,0,0,0,.46-1.34,6.84,6.84,0,0,1-6.82-.87,15.33,15.33,0,0,0,.42,1.65A5.34,5.34,0,0,0,911.49,414.11Z"/><path class="cls-42" d="M914.32,418.34a3.43,3.43,0,0,0,1.89.38,4.46,4.46,0,0,0,1.66-.28,1.63,1.63,0,0,0,1.1-1.12,10.57,10.57,0,0,0,.12-1.25V416a7.68,7.68,0,0,1-6.12.85A5.39,5.39,0,0,0,914.32,418.34Z"/><path class="cls-42" d="M916.59,421.73a5.41,5.41,0,0,0,.94.45,3.18,3.18,0,0,0,2.69-.27,1.76,1.76,0,0,0,.8-1,9.69,9.69,0,0,1,.34-1.08,3,3,0,0,1,.47-.77,7.78,7.78,0,0,1-7,.89l.9.95C916,421.16,916.3,421.45,916.59,421.73Z"/><path class="cls-42" d="M921.6,423.83c.08-.27.13-.56.23-.82a5.35,5.35,0,0,1-3.46.57,7.08,7.08,0,0,1,.88,1.3A1.93,1.93,0,0,0,921.6,423.83Z"/><path class="cls-40" d="M918.58,404.67a7.42,7.42,0,0,0,1.34-4.31c-.39-.4-.8-.79-1.23-1.16a6,6,0,0,0-3.23-1.62,4,4,0,0,1,.09,1.25,7.35,7.35,0,0,1-1.46,4,5.1,5.1,0,0,1-1.56,1.58,5.61,5.61,0,0,0,2.53,2.88A9.51,9.51,0,0,0,918.58,404.67Z"/><g class="cls-19"><path class="cls-42" d="M923.65,413.65l-.15.06c-.35.22-.43,1.71.28,1.47S924.17,413.6,923.65,413.65Z"/><path class="cls-42" d="M925.21,418c-.19-.36-.78-.21-.94.32a.73.73,0,0,0,.15.72c.39.44.83-.35.85-.67A.59.59,0,0,0,925.21,418Z"/><path class="cls-42" d="M914.63,409a8.66,8.66,0,0,0,1.19-.07,5.36,5.36,0,0,0,3.27-1.58,7.07,7.07,0,0,0,1.81-3.2,8.89,8.89,0,0,0,.24-2.41,18.12,18.12,0,0,0-1.22-1.41,7.42,7.42,0,0,1-1.34,4.31,9.25,9.25,0,0,1-5.13,3.13A5.29,5.29,0,0,0,914.63,409Z"/><path class="cls-42" d="M921.15,406.57a.86.86,0,0,0-.45,0h.08a.09.09,0,0,1,0,.08c-.24.06-.6.81-.58,1.05a.38.38,0,0,0,.41.37,1.28,1.28,0,0,0,1.05-.8A.59.59,0,0,0,921.15,406.57Z"/><path class="cls-42" d="M919.61,411.42a5.56,5.56,0,0,0,1.73-1.65c.31-.39.65-.74,1-1.1a11.36,11.36,0,0,0,.94-1,2.16,2.16,0,0,0,.32-1.75c-.14-.32-.29-.64-.45-.95a8.26,8.26,0,0,1-.78,1.9,11.77,11.77,0,0,1-4.54,4.56A2.14,2.14,0,0,0,919.61,411.42Z"/><path class="cls-42" d="M922.42,410.09a.46.46,0,0,0-.68.08,1,1,0,0,0-.24.85c.1.31.57.83.86.42a1.49,1.49,0,0,0,.25-1A.55.55,0,0,0,922.42,410.09Z"/><path class="cls-42" d="M920.58,415.37c.44.31,1,0,1.47-.37a5.81,5.81,0,0,0,1.19-2,12.54,12.54,0,0,1,.67-1.25,7.38,7.38,0,0,0,.67-1.2,3.77,3.77,0,0,0,.22-1.4c-.1-.31-.2-.62-.31-.93,0,.19,0,.37-.07.55a14.71,14.71,0,0,1-1.34,3.16,16.93,16.93,0,0,1-2.67,3.16l0,0Z"/><path class="cls-42" d="M922.49,419.22a1.19,1.19,0,0,0,.91-.35,6.63,6.63,0,0,0,1.35-1.82,6.15,6.15,0,0,0,.79-2.18c.07-.61.09-1.23.17-1.84l-.18-1,0-.16a10.52,10.52,0,0,1-1.93,5.53,8,8,0,0,1-1.66,1.54A1.08,1.08,0,0,0,922.49,419.22Z"/><path class="cls-42" d="M923.56,423a3.88,3.88,0,0,0,.33-.23,18.74,18.74,0,0,0,1.62-4,10.11,10.11,0,0,1-1.58,2.68,7.62,7.62,0,0,1-1.93,1.48A1.6,1.6,0,0,0,923.56,423Z"/><path class="cls-42" d="M918.82,401.54a1.38,1.38,0,0,0-.34.18,1.92,1.92,0,0,0-.48.62,1.87,1.87,0,0,0-.29,1,.39.39,0,0,0,.52.35C919,403.39,919.49,402,918.82,401.54Z"/><path class="cls-42" d="M914.62,405.26c1-.41,1.6-1.58,2.23-2.42s1.39-1.39,1.92-2.2a2.7,2.7,0,0,0,.4-1c-.16-.15-.31-.29-.48-.43a6,6,0,0,0-3.23-1.62,4,4,0,0,1,.09,1.25,7.35,7.35,0,0,1-1.46,4,5.29,5.29,0,0,1-1.55,1.58C913.12,405,913.74,405.62,914.62,405.26Z"/></g><path class="cls-41" d="M912.53,404.42a2.91,2.91,0,0,1-2.74.43,8.64,8.64,0,0,1-.46,1.44c0,.3-.05.6-.07.9a6.47,6.47,0,0,0,5.8.11A5.61,5.61,0,0,1,912.53,404.42Z"/><path class="cls-43" d="M914.09,402.84a7.35,7.35,0,0,0,1.46-4,4,4,0,0,0-.09-1.25,3.34,3.34,0,0,0-1.25.11,4.61,4.61,0,0,0-2.13,1.27,7.13,7.13,0,0,0-1.34,2.37,16.59,16.59,0,0,0-.76,2.58c-.06.31-.12.63-.19.94C911.38,405.53,913.26,404.19,914.09,402.84Z"/><path class="cls-44" d="M912.72,399.05a5.18,5.18,0,0,1-.08,1c0,.15-.25,1,0,1.05s.61-.38.73-.52c.86-.92,1.55-2,2.38-2.93h-.06a3.64,3.64,0,0,0-.81,0h0l-.14,0h0l-.13,0h0l-.13,0h0l-.16,0a4.6,4.6,0,0,0-1.54.75A4.3,4.3,0,0,1,912.72,399.05Z"/><path class="cls-44" d="M922.67,419s0-.06,0-.08a5.1,5.1,0,0,0,2.36-2.78,10.49,10.49,0,0,0,.71-2.65c-.06-.42-.13-.85-.21-1.27a15.51,15.51,0,0,1-.59,1.61,2.86,2.86,0,0,1-1.33,1.55,2.49,2.49,0,0,1-2.21-.26s0-.08,0-.09c1-.44,1.58-1.74,2.11-2.66a7.41,7.41,0,0,0,1-3.77c0-.11-.07-.22-.11-.33h0c0-.16-.11-.32-.16-.47l-.18-.49c-.08-.19-.15-.39-.23-.58a.14.14,0,0,1,0-.06l-.23-.54h0c-.17-.39-.35-.77-.54-1.15h0c-.08-.16-.16-.32-.25-.48v0c-.08-.15-.16-.3-.25-.45l-.08-.14-.2-.34L922,403l-.31-.45-.1-.14-.25-.35-.18-.23-.2-.25-.2-.25-.1-.12c-.15-.18-.3-.35-.46-.52h0c-.25-.28-.52-.56-.8-.82,0-.06-.11-.11-.17-.17l-.17-.16-.4-.35-.15-.13a.08.08,0,0,1,0,0l-.16-.12h0l-.17-.13,0,0-.17-.13h0l-.17-.12,0,0-.35-.23,0,0L917,398h0l-.38-.17h0l-.4-.14h0l-.31-.07c-.5.55-.95,1.15-1.4,1.74a10.18,10.18,0,0,1-1.27,1.5c-.14.13-.35.33-.56.29s-.14-.46-.12-.6a10.23,10.23,0,0,0,.16-1.11,5,5,0,0,0,0-.94c-.17.14-.33.29-.49.45a7.13,7.13,0,0,0-1.34,2.37,16.59,16.59,0,0,0-.76,2.58c0,.14-.05.28-.08.43l0,.06-.09.45h0c0,.11,0,.22-.08.33a.31.31,0,0,1,0,.08l-.07.25,0,.08.18-.12a0,0,0,0,1,.07,0,1.09,1.09,0,0,0,1.15,1.08,1.84,1.84,0,0,0,1-.32c.13-.11.25-.28.41-.34.32-.13.53.1.71.34s.41.54.32.8-.48.26-.66.28c-.4,0-.8.05-1.2.05a9.94,9.94,0,0,1-2.32-.26c0,.14,0,.29,0,.43v.32a2.88,2.88,0,0,0,1,.82,5.5,5.5,0,0,0,2.06.64c.34,0,.69,0,1,0a1.67,1.67,0,0,1,.94.33,5.13,5.13,0,0,0,2.75,1.22s0,.05,0,.06a3.31,3.31,0,0,1-2.31.89,8,8,0,0,1-2.71,0,3.74,3.74,0,0,1-2.72-2.14,15.75,15.75,0,0,0,.43,2.47h0l0,.08a6.54,6.54,0,0,0,5,1.24,5.31,5.31,0,0,0,1.43-.51,2.09,2.09,0,0,1,1-.26,4.44,4.44,0,0,1,1.28.57,8.49,8.49,0,0,0,1.7.5,0,0,0,0,1,0,.06,4.14,4.14,0,0,1-2.18,1.55,9.86,9.86,0,0,1-2.89.65,7.7,7.7,0,0,1-4.28-1.08l.12.19.15.25.08.13.21.33,0,0,.24.36h0c.27.38.56.75.85,1.11a4.81,4.81,0,0,0,.53.2,9,9,0,0,0,2.13.32c1.67.06,3.87-.09,5-1.49,0,0,.06,0,.08,0a2,2,0,0,0,1.24.63c.43.1.86.15,1.29.25,0,0,0,0,0,0a3.5,3.5,0,0,1-1.94,1.68,9.59,9.59,0,0,1-2.67.81,7.23,7.23,0,0,1-4-.42l1,1,.33.35a7.35,7.35,0,0,0,2.08.38,6.23,6.23,0,0,0,3.74-.93h.06a3.53,3.53,0,0,0,.75.64,2,2,0,0,1,.51.34c.17.21-.15.48-.28.62a4.57,4.57,0,0,1-2.63,1.23,7,7,0,0,1-2-.07c.21.22.41.44.6.67h0l.22.27,0,.06.08.11a4.17,4.17,0,0,0,2.3-.26s0,0,0,0c.88,1.27.22,2.75-.79,3.75h0c.41,0,.91-.86,1.14-1.14l.31-.37.07-.09.29-.38,0-.05.27-.35.06-.08.27-.39,0-.07.24-.37,0-.06c.09-.14.18-.27.26-.41a.35.35,0,0,0,.05-.08l.24-.4a0,0,0,0,0,0,0,4.49,4.49,0,0,0,.24-.42.41.41,0,0,0,0-.09c.08-.15.16-.29.23-.44h0l.21-.43,0-.09c.07-.14.14-.29.2-.44l0-.05.17-.41,0-.08.18-.45,0-.07.15-.43s0,0,0,0l.15-.47,0-.08,0-.05-.2.13A1.94,1.94,0,0,1,922.67,419Zm-9.45-14.09s0-.11.08-.09a1.08,1.08,0,0,1,.09-.76c.34-.57.78.2,1.16.23,1.05.08,1.68-1,2.08-1.82s.93-1.78,1.29-2.7c0,0,.07-.08.1,0a3.32,3.32,0,0,1,.73,2.72,5.69,5.69,0,0,1-1.43,2.54,2.92,2.92,0,0,1-2.12,1.33A2.59,2.59,0,0,1,913.22,404.89Zm2.1,3.43s0-.06,0-.08c.6-.31,1.25-.54,1.85-.84a5.23,5.23,0,0,0,1.67-1.32,6.2,6.2,0,0,0,1.42-3.58s.05-.07.08-.07.06-.05.08,0a3.2,3.2,0,0,1,.63,1.39,15.88,15.88,0,0,1,.37,1.69,3.49,3.49,0,0,1-6.13,2.83Zm3.4,3.1s0-.08,0-.09c1.91-.58,3.3-2.47,4.08-4.26a5.37,5.37,0,0,1,.21-.56s.07-.06.1,0a1.45,1.45,0,0,1,.38,1,7.07,7.07,0,0,1,0,1.38,5.1,5.1,0,0,1-1,2.72C921.43,412.79,919.81,412.31,918.72,411.42Z"/><path class="cls-45" d="M911.79,397.54a6.33,6.33,0,0,0-2.46-3.53c-2.53-1.72-6.24-2.1-8.79-.19a5.21,5.21,0,0,0-1.63,2,7.81,7.81,0,0,0,0,4.59c.22.85.6,1.65.84,2.49a5.26,5.26,0,0,0,1.53,3c2.15,1.68,5.47,1.33,7.62-.13A8.9,8.9,0,0,0,911.3,403a6.43,6.43,0,0,0,.81-3.32A7.92,7.92,0,0,0,911.79,397.54Z"/><path class="cls-36" d="M909.22,393.94a.48.48,0,0,0-.09.29,3.09,3.09,0,0,0,.21,1.12,22.24,22.24,0,0,0,.9,2.21,1.52,1.52,0,0,1,.13.82c0,.51-.13,1.2.27,1.6a1.08,1.08,0,0,0,1.47.11c0-.15,0-.3,0-.45a7.92,7.92,0,0,0-.32-2.1,6.33,6.33,0,0,0-2.46-3.53Z"/><path class="cls-36" d="M907.89,406.32a8,8,0,0,0,1-.54,1,1,0,0,0-.08-.71,1.16,1.16,0,0,0-.88-.6,2,2,0,0,0-2,1.09,1.15,1.15,0,0,0,.23,1.31,7.64,7.64,0,0,0,1.72-.53Z"/><path class="cls-36" d="M910,401.64a4.31,4.31,0,0,0-.79,1.06,2,2,0,0,0-.32,1.33,1,1,0,0,0,1.13.6l.12,0A10.59,10.59,0,0,0,911.3,403a6.36,6.36,0,0,0,.7-2C911.56,400.41,910.43,401.23,910,401.64Z"/><path class="cls-36" d="M929,420.43c-.26-.89-.59-1.75-.82-2.65a.54.54,0,0,0-.39-.45,2.63,2.63,0,0,0,.06-.49c0-.24-.2-.4-.4-.53l.06-.46c0-.33-.27-.46-.54-.58a2.78,2.78,0,0,0,0-.5c0-.34-.3-.39-.56-.46a.64.64,0,0,0,0-.4.87.87,0,0,0-.43-.35l0,0c0-.68-.63-1.47-1.14-2-.32-.5-.67-1-1-1.44a6.6,6.6,0,0,1-1.31-2.6.45.45,0,0,0,.18-.07,1.45,1.45,0,0,0,.56-1.36,25.73,25.73,0,0,0-.66-5.32c-.19-.83-.35-1.66-.59-2.47a5.17,5.17,0,0,1-.56-2.51c.05-.24-.12-1.37-.51-1.39s-1.2.77-1.54,1.1a37.29,37.29,0,0,0-3.55,3.88,26.44,26.44,0,0,0-2.1,3,.6.6,0,0,0-.08.53c0,.51.63.93,1.09,1,1,.07,1.55-1.3,1.85-2a13.63,13.63,0,0,1,.74-1.76,11.83,11.83,0,0,1,1.44-1.72c.56-.64,1.28-1.23,1.79-1.93.1,1.4-.06,2.83,0,4.22,0,.85.16,1.7.24,2.55a6.85,6.85,0,0,1-.15,2.59,2.08,2.08,0,0,0,.06,1.71c.22.33.48.42.75.25a4.4,4.4,0,0,0,.37.9c.4.8.82,1.6,1.21,2.4s.7,1.64,1.06,2.46c.19.41.39,1.18.94,1.07l0,.13a1.85,1.85,0,0,0,.33.79.47.47,0,0,0,.32.14c0,.05,0,.11,0,.16a1.13,1.13,0,0,0,.24.56.48.48,0,0,0,.2.14s0,.08,0,.13a1.94,1.94,0,0,0,.2.75.53.53,0,0,0,.31.19c0,.14,0,.27,0,.41a.49.49,0,0,0,.2.48l.23.08a8.9,8.9,0,0,0-.18,1.42c0,.06.06.08.11.07a.73.73,0,0,0,.44-.27,4.69,4.69,0,0,0,.4,1.46,3.93,3.93,0,0,1,.4,1.15,1.84,1.84,0,0,1-.59,1.25c-.09.1,0,.32.12.23a2.24,2.24,0,0,0,1.16-3.34Z"/><path class="cls-46" d="M920.18,396.78c-.07,0,.33-.34.33-.35.47-.32.13-.65.34-1.13a1.39,1.39,0,0,0,.21-.68.4.4,0,0,0-.12-.25h-.05c-.53,0-1.2.77-1.54,1.1a37.29,37.29,0,0,0-3.55,3.88,26.44,26.44,0,0,0-2.1,3,.6.6,0,0,0-.08.53c0,.51.63.93,1.09,1,1,.07,1.55-1.3,1.85-2a13.63,13.63,0,0,1,.74-1.76,11.83,11.83,0,0,1,1.44-1.72c.45-.51,1-1,1.46-1.52Z"/><path class="cls-44" d="M929,420.43c-.26-.89-.59-1.75-.82-2.65a.54.54,0,0,0-.39-.45,2.63,2.63,0,0,0,.06-.49c0-.24-.2-.4-.4-.53l.06-.46c0-.33-.27-.46-.54-.58a2.78,2.78,0,0,0,0-.5c0-.34-.3-.39-.56-.46a.64.64,0,0,0,0-.4.87.87,0,0,0-.43-.35l0,0c0-.68-.63-1.47-1.14-2-.32-.5-.67-1-1-1.44a6.6,6.6,0,0,1-1.31-2.6.45.45,0,0,0,.18-.07,1.45,1.45,0,0,0,.56-1.36,25.73,25.73,0,0,0-.66-5.32c-.19-.83-.35-1.66-.59-2.47a5.17,5.17,0,0,1-.56-2.51c.05-.24-.12-1.37-.51-1.39h0v0c0,.22-.26.45-.38.63s-.05.47-.14.71a.25.25,0,0,1-.21.17,1.22,1.22,0,0,0-.84.52c-.24.3-.49.58-.74.87a19.12,19.12,0,0,0-1.58,2.12,7.83,7.83,0,0,0-1.21,2.19c-.1.37-.36,1-.88.91a1,1,0,0,1-.59-1.12c-.2.3-.4.6-.58.9a.6.6,0,0,0-.08.53c0,.51.63.93,1.09,1,1,.07,1.55-1.3,1.85-2a13.63,13.63,0,0,1,.74-1.76,11.83,11.83,0,0,1,1.44-1.72c.56-.64,1.28-1.23,1.79-1.93.1,1.4-.06,2.83,0,4.22,0,.85.16,1.7.24,2.55a6.85,6.85,0,0,1-.15,2.59,2.08,2.08,0,0,0,.06,1.71c.22.33.48.42.75.25a4.4,4.4,0,0,0,.37.9c.4.8.82,1.6,1.21,2.4s.7,1.64,1.06,2.46c.19.41.39,1.18.94,1.07l0,.13a1.85,1.85,0,0,0,.33.79.47.47,0,0,0,.32.14c0,.05,0,.11,0,.16a1.13,1.13,0,0,0,.24.56.48.48,0,0,0,.2.14s0,.08,0,.13a1.94,1.94,0,0,0,.2.75.53.53,0,0,0,.31.19c0,.14,0,.27,0,.41a.49.49,0,0,0,.2.48l.23.08a8.9,8.9,0,0,0-.18,1.42c0,.06.06.08.11.07a.73.73,0,0,0,.44-.27,4.69,4.69,0,0,0,.4,1.46,3.93,3.93,0,0,1,.4,1.15,1.84,1.84,0,0,1-.59,1.25c-.09.1,0,.32.12.23a2.24,2.24,0,0,0,1.16-3.34Zm-7.67-13.37c-.74-.06-.16-1.35,0-1.71.06-.16.12-.32.17-.49a2.34,2.34,0,0,0-.13-1.08,18.45,18.45,0,0,1-.47-2.55c-.08-.84,0-1.53-.12-2.37a6.37,6.37,0,0,1,.06-1.51c.07-.35.2-.6.47-.21a2.94,2.94,0,0,1,.34,1.24c.12.69.19,1.4.29,2.09s.23,1.4.34,2.09,0,1.3,0,1.95.4,1.36.12,1.94A1.18,1.18,0,0,1,921.29,407.06Zm3.32,7c-.3-.25-.14-.84-.26-1.18a8.91,8.91,0,0,0-.63-1.18c-.13-.21-.25-.43-.38-.63a14.59,14.59,0,0,1-.89-1.46,1.82,1.82,0,0,1-.24-1.28s0-.07.09-.05a.35.35,0,0,1,.16.18,3.23,3.23,0,0,1,.33.64,6.11,6.11,0,0,0,.52.94,19.87,19.87,0,0,0,1.38,2.13c.29.36.85.87.67,1.4C925.27,413.77,924.93,414.3,924.61,414Zm.92,1.2a.92.92,0,0,1-.33-.6.57.57,0,0,1,0-.18h0s0,0,0,0a.43.43,0,0,1,.4-.42c.34,0,.38.5.36.75S925.78,415.4,925.53,415.22Zm.79.83c-.21.18-.42-.05-.44-.26a.92.92,0,0,1,.23-.7h0a.21.21,0,0,1,.16-.1.28.28,0,0,1,.27.22A1,1,0,0,1,926.32,416.05Zm.49,1.06c-.17.2-.39-.05-.4-.23a.86.86,0,0,1,.25-.72h0l.09,0c.12,0,.21.1.23.2A1.1,1.1,0,0,1,926.81,417.11Zm.12,1a.77.77,0,0,1,.09-.59.09.09,0,0,1,.07,0c.06-.07.15-.1.25,0a.45.45,0,0,1,.06.56C927.3,418.15,927,418.3,926.93,418.07ZM928.4,423s-.11,0-.08,0a2.31,2.31,0,0,0-.26-2.05,7.11,7.11,0,0,1-.4-.89,2.05,2.05,0,0,1,0-.78c-.14.09-.27.18-.42.26s-.06,0-.06,0a4,4,0,0,1,.16-.91c0-.23.13-.47.3-.52s.18,0,.22.14a9.35,9.35,0,0,1,.34,1.06,15,15,0,0,1,.76,2.26A1.9,1.9,0,0,1,928.4,423Z"/><path class="cls-36" d="M918.89,423.88a5.53,5.53,0,0,0-1.31-2.57c.12-.11.23-.25.21-.34s-.19-.29-.29-.46l-.12-.19a2.91,2.91,0,0,0,.24-.23c.15-.21-.07-.5-.16-.7a3.11,3.11,0,0,1-.2-.74.68.68,0,0,0,.36-.63,2.92,2.92,0,0,0-.36-.88,3.52,3.52,0,0,1-.19-.51,1.11,1.11,0,0,0,.3-.45,1.72,1.72,0,0,0,0-.87c-.09-.5-.15-1-.19-1.51a14.26,14.26,0,0,1,.16-3.2,10.52,10.52,0,0,1,.26-1.17A1.27,1.27,0,0,0,918,409a1.21,1.21,0,0,0,.05-.57c0-.36-.33-.51-.41-.84a4.36,4.36,0,0,1,.07-1.19,8.31,8.31,0,0,0,0-1.22c-.1-1.76-.17-3.49-.44-5.23a4.78,4.78,0,0,0-.53-2.07c-.38-.51-.78.07-1,.42a21.42,21.42,0,0,1-1.55,2.13c-.61.68-1.24,1.38-1.89,2-.48.46-2.41,1.78-2.08,2.74a1,1,0,0,0,.7.85c.77.22,1.41-.6,1.78-1.14a15.23,15.23,0,0,0,.83-1.54c.28-.53.68-1,1-1.51s.62-.9.9-1.36a3.68,3.68,0,0,1,.57-.62,3.5,3.5,0,0,1,.29.72,4.49,4.49,0,0,1,.05,1.32c-.08.83-.15,1.66-.16,2.49s.1,1.59.07,2.37A5,5,0,0,1,916,408a2.25,2.25,0,0,0-.21.92.81.81,0,0,0,.71.76c-.07.78-.23,1.56-.37,2.32-.2,1-.35,2-.48,3,0,.32-.06.64-.08,1a1.65,1.65,0,0,0,0,.7.52.52,0,0,0,.51.34,4.41,4.41,0,0,1-.09.73c0,.26-.16.79,0,1a.37.37,0,0,0,.34.12,4.89,4.89,0,0,0,0,1.48.29.29,0,0,0,.32.28,4.06,4.06,0,0,0,0,.72.36.36,0,0,0,.39.27c-.06.42-.11.84-.16,1.26s.35.59.63.82a1.73,1.73,0,0,1,.33,2.06c-.19.38-.58.58-.78.92,0,.06,0,.17.06.18a1.56,1.56,0,0,0,1.33-.66,1.79,1.79,0,0,0,.32-1.07A3.41,3.41,0,0,0,918.89,423.88Z"/><path class="cls-46" d="M915.88,399.9a1.72,1.72,0,0,1,.07-.21,1.57,1.57,0,0,1,.47-.64,1.36,1.36,0,0,0,.41-1.15l-.05-.07c-.38-.51-.78.07-1,.42a21.42,21.42,0,0,1-1.55,2.13c-.61.68-1.24,1.38-1.89,2-.48.46-2.41,1.78-2.08,2.74a1,1,0,0,0,.7.85c.77.22,1.41-.6,1.78-1.14a15.23,15.23,0,0,0,.83-1.54c.28-.53.68-1,1-1.51s.62-.9.9-1.36A2.81,2.81,0,0,1,915.88,399.9Z"/><path class="cls-44" d="M918.89,423.88a5.53,5.53,0,0,0-1.31-2.57c.12-.11.23-.25.21-.34s-.19-.29-.29-.46l-.12-.19a2.91,2.91,0,0,0,.24-.23c.15-.21-.07-.5-.16-.7a3.11,3.11,0,0,1-.2-.74.68.68,0,0,0,.36-.63,2.92,2.92,0,0,0-.36-.88,3.52,3.52,0,0,1-.19-.51,1.11,1.11,0,0,0,.3-.45,1.72,1.72,0,0,0,0-.87c-.09-.5-.15-1-.19-1.51a14.26,14.26,0,0,1,.16-3.2,10.52,10.52,0,0,1,.26-1.17A1.27,1.27,0,0,0,918,409a1.21,1.21,0,0,0,.05-.57c0-.36-.33-.51-.41-.84a4.36,4.36,0,0,1,.07-1.19,8.31,8.31,0,0,0,0-1.22c-.1-1.76-.17-3.49-.44-5.23a4.78,4.78,0,0,0-.53-2.07.36.36,0,0,0-.52-.14.59.59,0,0,1,.11.55,1.34,1.34,0,0,1-.23.48c-.11.15-.28.23-.38.36s-.06.4-.19.58a3,3,0,0,1-.57.56,13.51,13.51,0,0,0-1.46,1.47,8.66,8.66,0,0,0-1.36,1.66c-.17.33-.32.83-.66,1a.48.48,0,0,1-.76-.39,1.33,1.33,0,0,1,0-.2c-.4.45-.67.93-.53,1.34a1,1,0,0,0,.7.85c.77.22,1.41-.6,1.78-1.14a15.23,15.23,0,0,0,.83-1.54c.28-.53.68-1,1-1.51s.62-.9.9-1.36a3.68,3.68,0,0,1,.57-.62,3.5,3.5,0,0,1,.29.72,4.49,4.49,0,0,1,.05,1.32c-.08.83-.15,1.66-.16,2.49s.1,1.59.07,2.37A5,5,0,0,1,916,408a2.25,2.25,0,0,0-.21.92.81.81,0,0,0,.71.76c-.07.78-.23,1.56-.37,2.32-.2,1-.35,2-.48,3,0,.32-.06.64-.08,1a1.65,1.65,0,0,0,0,.7.52.52,0,0,0,.51.34,4.41,4.41,0,0,1-.09.73c0,.26-.16.79,0,1a.37.37,0,0,0,.34.12,4.89,4.89,0,0,0,0,1.48.29.29,0,0,0,.32.28,4.06,4.06,0,0,0,0,.72.36.36,0,0,0,.39.27c-.06.42-.11.84-.16,1.26s.35.59.63.82a1.73,1.73,0,0,1,.33,2.06c-.19.38-.58.58-.78.92,0,.06,0,.17.06.18a1.56,1.56,0,0,0,1.33-.66,1.79,1.79,0,0,0,.32-1.07A3.41,3.41,0,0,0,918.89,423.88Zm-2.77-15.16a2.24,2.24,0,0,1,.37-.76,1.4,1.4,0,0,0,.19-1c-.08-.92,0-1.82,0-2.74,0-.5,0-1,0-1.49s0-.92,0-1.37-.19-.86-.19-1.28c-.21-.32.06-.83.34-1,0,0,.08,0,.08,0,0,.33,0,.65,0,1a6.17,6.17,0,0,0,.2.95,11,11,0,0,1,.18,1.81c0,1,0,1.95,0,2.93,0,.47,0,.95,0,1.42a1.08,1.08,0,0,0,.1.69,1.16,1.16,0,0,1,.18.35,1,1,0,0,1-.65,1C916.58,409.38,916,409.2,916.12,408.72Zm-.39,7.52a4.19,4.19,0,0,1,.16-1.53c.14-.66.28-1.31.36-2s.14-1.16.24-1.74a2.62,2.62,0,0,1,0-.28,1.73,1.73,0,0,1,.28-1s.07-.05.09,0a2.61,2.61,0,0,1,0,1.44,13.05,13.05,0,0,0-.17,2.86c0,.32.06.63.08.95s.18,1.64-.4,1.77A.61.61,0,0,1,915.73,416.24Zm.35,2a8.26,8.26,0,0,1,.2-.86c0-.22.09-.41.29-.36s.52.54.58.83-.12.82-.61.79C916.29,418.58,916.05,418.48,916.08,418.2Zm.4,1.85a2.2,2.2,0,0,1,0-.85s0-.08,0-.12V419a.89.89,0,0,1,0-.14s0-.06.07-.06c.44.09.83,1.07.44,1.38A.32.32,0,0,1,916.48,420.05Zm.33,1a.28.28,0,0,1,.06-.39.33.33,0,0,1,.44.06c.12.17.07.54-.15.6S916.86,421.22,916.81,421.05Zm1.76,3.87a2.37,2.37,0,0,1-.84,1.44c-.06.05-.11,0-.05-.06A1.91,1.91,0,0,0,918,424a10,10,0,0,1-.73-.88,1,1,0,0,1-.09-.65c0-.23,0-.45.15-.54s.2.1.23.18a7.7,7.7,0,0,0,.53,1A2.62,2.62,0,0,1,918.57,424.92Z"/><path class="cls-47" d="M912.11,399.64a7.92,7.92,0,0,0-.32-2.1,6.63,6.63,0,0,0-1.85-3.05c-.86.36-.74,1.54-.36,2.34s1.3,1.9,2,.93c0,0,.09-.05.09,0a8.93,8.93,0,0,1-.42,3.79,4.45,4.45,0,0,1-1.11,1.23c-.25.23-.66.4-.89,0a4.82,4.82,0,0,1-.46-1.45,3.38,3.38,0,0,0-.62-1.57.79.79,0,0,0-1-.16,1.15,1.15,0,0,0-.35.69c-.11.56-.08,1.14-.14,1.7a2.87,2.87,0,0,1-.56,1.65,5.66,5.66,0,0,1-1.9,1.39s-.09,0-.06-.05c1.18-1.81,2.12-4.19,1.08-6.28,0,0,.06-.1.09-.07a6,6,0,0,1,.57.56,3.9,3.9,0,0,0-1-3s0-.1.07-.09a5.19,5.19,0,0,1,1,.45c-.61-1.49-1.92-3.24-3.67-3.23-.06,0,0-.06,0-.09.38-.25.86-.42,1.27-.67a6.42,6.42,0,0,0-3.06,1.21,5.21,5.21,0,0,0-1.63,2,7.81,7.81,0,0,0,0,4.59c.22.85.6,1.65.84,2.49a5.26,5.26,0,0,0,1.53,3c2.15,1.68,5.47,1.33,7.62-.13A8.9,8.9,0,0,0,911.3,403,6.43,6.43,0,0,0,912.11,399.64Z"/><path class="cls-47" d="M906,406.9c.23-.7.41-1.4.57-2.08a11,11,0,0,0,.37-4.74,1.14,1.14,0,0,0-.06.25c-.11.56-.08,1.14-.14,1.7a2.87,2.87,0,0,1-.56,1.65,5.66,5.66,0,0,1-1.9,1.39s-.09,0-.06-.05c1.18-1.81,2.12-4.19,1.08-6.28,0,0,.06-.1.09-.07a6,6,0,0,1,.57.56,3.9,3.9,0,0,0-1-3s0-.1.07-.09a5.19,5.19,0,0,1,1,.45c-.61-1.49-1.92-3.24-3.67-3.23-.06,0,0-.06,0-.09.38-.25.86-.42,1.27-.67a6.42,6.42,0,0,0-3.06,1.21,5.21,5.21,0,0,0-1.63,2,7.81,7.81,0,0,0,0,4.59c.22.85.6,1.65.84,2.49a5.26,5.26,0,0,0,1.53,3A6,6,0,0,0,906,406.9Z"/><path class="cls-48" d="M905.24,399.43c-.06-.26-.13-.51-.21-.76a4.92,4.92,0,0,0-.64-1.18c.25.08.48.17.74.23a.09.09,0,0,0,.11-.1,1.72,1.72,0,0,0-.31-.6,4,4,0,0,0-.66-.89,7.12,7.12,0,0,0-.87-.69,2.53,2.53,0,0,0,.67.1s.09-.07.06-.11a2.94,2.94,0,0,0-2.44-1.38l-.45.05a2.72,2.72,0,0,1,.11-.25,5.6,5.6,0,0,0,.46-.66s0-.11,0-.1a2.34,2.34,0,0,0-1.92,1.14,2.4,2.4,0,0,1,0-1.16s0-.06,0-.06a1.23,1.23,0,0,0-1,.47v0c0-.29.15-.56.16-.86a.06.06,0,0,0-.07-.07,2.62,2.62,0,0,0-.78.4,4.7,4.7,0,0,0-.7.46v-.47a4.36,4.36,0,0,0,.05-.72l-.34.17-.08.06a4,4,0,0,0-.27.34,4.3,4.3,0,0,0-.47.8l-.26-.47c-.07-.12-.16-.67-.35-.63s-.18.54-.2.65a2.81,2.81,0,0,0,0,.77l-.07,0a2.58,2.58,0,0,0-.82-.15,5.81,5.81,0,0,1,.6.7,2.09,2.09,0,0,1,.14.17c.14.17.27.36.4.54,0,0-.05.08,0,.11.12.27.28.49.4.75a3.48,3.48,0,0,1,.27,1.1c.11.92.11,1.83.3,2.74.35,1.72,1,3.33,1.48,5,.19.77.47,1.51.69,2.27.41-.25.84-.47,1.25-.75a9.11,9.11,0,0,0,1.86-1.91s.08,0,.08,0q.08.39.12.78a4.84,4.84,0,0,0,.46-.33c.21-.31.45-.62.66-.93a4.62,4.62,0,0,0,.46-.87,1.32,1.32,0,0,0,.26.56h0a4.75,4.75,0,0,0,.48-1.55c0-.14,0-.26,0-.38s0-.35,0-.52a1,1,0,0,0,.34.32s.09,0,.09-.07a3.93,3.93,0,0,0-.16-1.36,1.63,1.63,0,0,1,.27.31.19.19,0,0,0,.1.1C905.21,400.16,905.22,399.79,905.24,399.43Z"/><path class="cls-49" d="M905,400.36a6.59,6.59,0,0,1-.55-1.31,3.43,3.43,0,0,1-.22-1.61s.07-.08.1,0l.11.12.54.17a4.45,4.45,0,0,1-.84-.71,8.2,8.2,0,0,1-.58-.74,2.32,2.32,0,0,1-.44-.76c0-.05.05-.09.09-.07a2.15,2.15,0,0,1,.32.13l-.15-.1a2.53,2.53,0,0,0,.67.1h0a2.77,2.77,0,0,0-1.09-.75,4.38,4.38,0,0,1-1.39-.63s0,0,0-.06l0,0a2.61,2.61,0,0,0-.42,0,2.72,2.72,0,0,1,.11-.25,5.6,5.6,0,0,0,.46-.66.13.13,0,0,0,0-.06,11.54,11.54,0,0,0-1.26.95s-.06,0-.08,0a2.08,2.08,0,0,1-.07-.5,2.06,2.06,0,0,0-.56.65,2.4,2.4,0,0,1,0-1.16s0-.06,0-.06h0c-.32.2-.6.45-.91.65,0,0-.06,0-.07,0a1.14,1.14,0,0,1,0-.37,3.67,3.67,0,0,0,.13-.66h0c-.44.4-.84.91-1.49.74l-.06.05v-.47a4.36,4.36,0,0,0,.05-.72l-.05,0c-.18.38-.18.86-.49,1.16a.62.62,0,0,1-.52.16.15.15,0,0,1-.07,0l0,.06-.26-.47c-.06-.11-.15-.63-.33-.63-.06.46.17,1,.12,1.42a.08.08,0,0,1-.08.07.71.71,0,0,1-.28-.09v0l-.07,0a2.44,2.44,0,0,0-.65-.14c.19.11.38.21.57.34,0,0,0,.07,0,.08a.61.61,0,0,0-.19.17l.08.1a2.09,2.09,0,0,1,.14.17c.14.17.27.36.4.54,0,0-.05.08,0,.11.12.27.28.49.4.75a3.48,3.48,0,0,1,.27,1.1c.11.92.11,1.83.3,2.74.35,1.72,1,3.33,1.48,5,.19.77.47,1.51.69,2.27.41-.25.84-.47,1.25-.75a9.11,9.11,0,0,0,1.86-1.91s.08,0,.08,0,0,.17.05.25a3.44,3.44,0,0,1,.46-.55s.09,0,.07,0a4,4,0,0,1-.14.46,5.7,5.7,0,0,0,.54-.73c.26-.43.42-.9.64-1.36,0,0,.08-.07.1,0a2.14,2.14,0,0,1,.06.56,14.67,14.67,0,0,1,.38-1.62s.08-.08.11,0a2.09,2.09,0,0,1,.15.82l0-.14c0-.14,0-.26,0-.38s0-.34,0-.51a3.57,3.57,0,0,1-.07-1.22s.06-.1.09-.07a.93.93,0,0,1,.3.38,1.6,1.6,0,0,0-.05-.21A2.73,2.73,0,0,1,905,400.36Z"/><path class="cls-50" d="M901.51,404.5a2.2,2.2,0,0,0-.83-.5,1.49,1.49,0,0,1-.78-.17,4.7,4.7,0,0,0-.64-.46,6.08,6.08,0,0,0-3.65-.35,14.06,14.06,0,0,0-1.9.52l-.27.1a4.86,4.86,0,0,0,.41.93,7.73,7.73,0,0,0,.79,3.18c.17.36.33.73.51,1.09a10.86,10.86,0,0,0,1.06,1.18,5.69,5.69,0,0,0,1.2.77c0-.66-.51-1.07-.1-1.78a.15.15,0,0,0,0-.17.36.36,0,0,0-.24-.13c-.4-.06-.4-.32-.23-.63a1,1,0,0,0,.17-.9c-.08-.27-.24-.5-.32-.78s.16-.72.3-1c0,0,0,0,0,0a1.21,1.21,0,0,0,.17.89c.35.44.71.69.37,1.34a1,1,0,0,0-.16.65c0,.22.21.34.37.47a6.4,6.4,0,0,1-.25.8c0,.29.08,1.24.43,1.38h0c.37-.07.71-.51.91-.76s.61-.83.89-1.26l.29-.43c.06-.11.12-.22.19-.33a16.9,16.9,0,0,0,1-2.21c.22-.46.49-.91.32-1.36Z"/><path class="cls-51" d="M902.36,395a5.75,5.75,0,0,0-5.32-1.5,4.52,4.52,0,0,0-2.41,1.36,8.22,8.22,0,0,0-.89,1.15,2.85,2.85,0,0,0-.16.3c-.13.2-.24.41-.36.62a5.66,5.66,0,0,0-.58,2.78,8.88,8.88,0,0,0,.55,3.14,9.5,9.5,0,0,0,.66,1.7,6.1,6.1,0,0,0,.14,1.27c.54-.06,1,.43,1.53.71.26.16.53.29.78,0a.61.61,0,0,1,.28-.2h.1c-.08-.35.16-.69.3-1,0,0,0,0,0,0a1.21,1.21,0,0,0,.17.89c.12.14.23.26.32.38.59.28,1.25-.15,1.71-.65.27-.3.67-.8,1.13-.74s.62.65.65,1.18c.07-.18.14-.36.22-.52.22-.47.49-.92.31-1.37l.61-.4A7.09,7.09,0,0,0,903,403a5.49,5.49,0,0,0,1.08-2.38A6.59,6.59,0,0,0,902.36,395Z"/><path class="cls-52" d="M893.32,397.33v0Z"/><path class="cls-53" d="M902.36,395a5.75,5.75,0,0,0-5.32-1.5,4.52,4.52,0,0,0-2.41,1.36,8.22,8.22,0,0,0-.89,1.15,2.85,2.85,0,0,0-.16.3c-.13.2-.24.41-.36.62a5.66,5.66,0,0,0-.58,2.78,8.88,8.88,0,0,0,.55,3.14c.07.18.14.43.23.69a17.22,17.22,0,0,1,2-.6,6.21,6.21,0,0,1,3.74.24,2.82,2.82,0,0,1,.48.27,4.15,4.15,0,0,0,.32.27c.28.17.59.07.87.19a3.51,3.51,0,0,1,.77.5c.17-.11.34-.22.5-.34A7.09,7.09,0,0,0,903,403a5.49,5.49,0,0,0,1.08-2.38A6.59,6.59,0,0,0,902.36,395Z"/><g class="cls-19"><path class="cls-54" d="M902.36,395a4.34,4.34,0,0,0-.76-.66.35.35,0,0,1,0,.13,1.28,1.28,0,0,1-1,.61,1.6,1.6,0,0,1-1.14-.06c-.39-.2-.67-.58-1.07-.77a2.48,2.48,0,0,0-2,.18c-.26.1-.83.39-1.11.2a.3.3,0,0,1-.14-.23,4.24,4.24,0,0,0-.49.46,8.22,8.22,0,0,0-.89,1.15,2.85,2.85,0,0,0-.16.3c-.13.2-.24.41-.36.62a5.66,5.66,0,0,0-.58,2.78,8.88,8.88,0,0,0,.55,3.14,9.5,9.5,0,0,0,.66,1.7,5.58,5.58,0,0,0,.07.91,1,1,0,0,1,1.19-.06c.27.16.46.43.73.58.11.06.36.11.41.26a1.2,1.2,0,0,1,0,.38.58.58,0,0,0,0,.23c.07.25.29.41.36.67a1,1,0,0,1-.24.69c-.1.15-.22.34-.08.51s.21.2.3.32a.8.8,0,0,1,.12.45c0,.18.19.44.14.61s-.25.15-.42.08a5.71,5.71,0,0,0,1,.59c0-.66-.51-1.07-.1-1.78a.15.15,0,0,0,0-.17.36.36,0,0,0-.24-.13c-.4-.06-.4-.32-.23-.63a1,1,0,0,0,.17-.9c-.08-.27-.24-.5-.32-.78s.16-.72.3-1c0,0,0,0,0,0a1.21,1.21,0,0,0,.17.89c.35.44.71.69.37,1.34a1,1,0,0,0-.16.65c0,.22.21.34.37.47a6.4,6.4,0,0,1-.25.8c0,.29.08,1.24.43,1.38h0c.37-.07.71-.51.91-.76s.61-.83.89-1.26l.29-.43c.06-.11.12-.22.19-.33a16.9,16.9,0,0,0,1-2.21c.22-.47.49-.92.31-1.37l.61-.4A7.09,7.09,0,0,0,903,403a5.49,5.49,0,0,0,1.08-2.38A6.59,6.59,0,0,0,902.36,395Zm-2.52,12.07a4.64,4.64,0,0,1-.79,1.77c-.17.23-.33.48-.52.69s-.2.23-.34.24c-.39,0-.11-.72,0-.86.2-.41-.13-.53-.35-.8s0-.38.08-.5.25-.29.28-.46a.66.66,0,0,0-.14-.49.43.43,0,0,1-.07-.37.32.32,0,0,1,.31-.3c.19,0,.38,0,.56,0a1.28,1.28,0,0,0,.51-.29.32.32,0,0,1,.4,0C900.12,406,899.93,406.72,899.84,407.09Z"/><path class="cls-41" d="M893.32,397.33v0Z"/></g><path class="cls-55" d="M899.77,398.23a2.58,2.58,0,0,0-.49-1.06c-.71-.72-.49-2.63-1.91-2.52a3.08,3.08,0,0,0-1.72.75,6.78,6.78,0,0,0-1.51,2.12,2.1,2.1,0,0,0-.26,1.17,3.15,3.15,0,0,0,3.78,2.49,3.48,3.48,0,0,0,1.39-.75A2.8,2.8,0,0,0,899.77,398.23Z"/><path class="cls-56" d="M899.77,398.23a2.58,2.58,0,0,0-.49-1.06c-.71-.72-.49-2.63-1.91-2.52a3.08,3.08,0,0,0-1.72.75,6.78,6.78,0,0,0-1.51,2.12,2.1,2.1,0,0,0-.26,1.17,3.15,3.15,0,0,0,3.78,2.49,3.48,3.48,0,0,0,1.39-.75A2.8,2.8,0,0,0,899.77,398.23Z"/><path class="cls-57" d="M899.77,398.23a2.58,2.58,0,0,0-.49-1.06,6,6,0,0,1-.74-1.71.91.91,0,0,1-.56.47,1.25,1.25,0,0,0-.27.1c-.18.12-.12.42,0,.56s.31.19.4.33c.2.32,0,.66-.27.88a1.43,1.43,0,0,1-1,.39,1,1,0,0,1-.87-.44.63.63,0,0,1,.24-.78c.74-.4-.19-1.21-.59-1.55a6.73,6.73,0,0,0-1.48,2.1,2.1,2.1,0,0,0-.26,1.17,3.15,3.15,0,0,0,3.78,2.49,3.48,3.48,0,0,0,1.39-.75A2.8,2.8,0,0,0,899.77,398.23Z"/><path class="cls-58" d="M901.72,396.2c0-.39-.36-.81-.76-.74a2.35,2.35,0,0,0-1.18.58,24.42,24.42,0,0,1-1.67,2,1.82,1.82,0,0,1-2.17.27,2,2,0,0,1-.63-1.18,1.48,1.48,0,0,0-.69-1.25c-.58-.28-1.1.31-1.37.74-.42.69-.14,1.09.24,1.71a15.24,15.24,0,0,1,.7,1.47,1.45,1.45,0,0,0,1.12.9,10,10,0,0,0,2.05.14,3.14,3.14,0,0,0,2.89-1.23C901,398.67,901.82,397.44,901.72,396.2Zm-8.64,1.09s0,.09,0,.14S893,397.41,893.08,397.29Z"/><path class="cls-53" d="M901.19,395.47a.87.87,0,0,0-.42.14,1.61,1.61,0,0,0-.58.73,8.1,8.1,0,0,1-1,1.37,3.54,3.54,0,0,0-.49.87,2,2,0,0,1-.26.53c-.31.37-.78.2-1.19.12a2.09,2.09,0,0,0-.93.06,1.58,1.58,0,0,1-.57.09c-.39-.08-.49-.6-.56-.92a6.8,6.8,0,0,0-.56-1.93.92.92,0,0,0-.55-.49l-.31-.05a2.28,2.28,0,0,0-.55.62,1.2,1.2,0,0,0-.2.74.16.16,0,0,0,0-.06s0,.09,0,.14h0a2.77,2.77,0,0,0,.43.89,15.24,15.24,0,0,1,.7,1.47,1.45,1.45,0,0,0,1.12.9,10,10,0,0,0,2.05.14,3.14,3.14,0,0,0,2.89-1.23c.7-.93,1.57-2.16,1.47-3.4A.85.85,0,0,0,901.19,395.47Z"/><path class="cls-36" d="M901.43,403a6.08,6.08,0,0,0-1.79-2.56,4.67,4.67,0,0,0-3.1-.91,4.77,4.77,0,0,0-1.73.49,3.06,3.06,0,0,0-1.12,1.22,3.67,3.67,0,0,0-.08,3.09,1.05,1.05,0,0,0,.41.45c.31.17.68.09,1,.24s.54.47.87.63a3.11,3.11,0,0,0,3-.18,9.37,9.37,0,0,1,.88-.79c.43-.26.88-.09,1.34-.15C902,404.44,901.72,403.63,901.43,403Z"/><path class="cls-37" d="M901.43,403a6.08,6.08,0,0,0-1.79-2.56,4.67,4.67,0,0,0-3.1-.91,4.77,4.77,0,0,0-1.73.49,3.06,3.06,0,0,0-1.12,1.22,3.67,3.67,0,0,0-.08,3.09,1.05,1.05,0,0,0,.41.45c.31.17.68.09,1,.24s.54.47.87.63a3.11,3.11,0,0,0,3-.18,9.37,9.37,0,0,1,.88-.79c.43-.26.88-.09,1.34-.15C902,404.44,901.72,403.63,901.43,403Zm-3,2s0,.06,0,.07a1.63,1.63,0,0,1-2,.24c-.31-.22-.58-.5-.89-.71a1.55,1.55,0,0,0-1.15-.21s0,0,0,0a1.33,1.33,0,0,1-.1-.34s0-.06.06-.07c1.2-.4,1.5-1.66,1.57-2.81a7.71,7.71,0,0,1-.08-1.07.09.09,0,0,1,.08-.07c1.5.09.56,2,1.19,2.8.24.3.54.31.89.38s.54.14.58.42c.1.61-.62.82-1.06,1.06A9.2,9.2,0,0,0,898.39,405.05Z"/><path class="cls-59" d="M901.43,403a6.08,6.08,0,0,0-1.79-2.56,4.67,4.67,0,0,0-3.1-.91,4.77,4.77,0,0,0-1.73.49,3.06,3.06,0,0,0-1.12,1.22,4.06,4.06,0,0,0-.32,2.4,1.44,1.44,0,0,0,1.65-.28,3.78,3.78,0,0,0,.66-2,4.3,4.3,0,0,0,0-.95.55.55,0,0,1,0-.4c.22-.27.72-.17,1-.21a2,2,0,0,1,1.29.05c.15.09.15.3.12.45a4.31,4.31,0,0,0-.11.94,2.88,2.88,0,0,0,.78,2.1,1.76,1.76,0,0,0,2,.31s0,0,.06,0a2.64,2.64,0,0,1,.33.9C902,404.44,901.72,403.63,901.43,403Z"/><path class="cls-53" d="M902.94,396a1.4,1.4,0,0,0-1.4-.75c-.75.16-.94.84-1.18,1.47a11.66,11.66,0,0,1-1.51,2.07,3.71,3.71,0,0,0-.51,2.46,3.29,3.29,0,0,0,.76,1.93,1.6,1.6,0,0,0,2.26-.26,6.46,6.46,0,0,0,1.73-3A4.89,4.89,0,0,0,902.94,396Z"/><g class="cls-19"><path class="cls-53" d="M902.94,396a1.4,1.4,0,0,0-1.4-.75c-.75.16-.94.84-1.18,1.47a11.66,11.66,0,0,1-1.51,2.07,3.71,3.71,0,0,0-.51,2.46,3.29,3.29,0,0,0,.76,1.93,1.6,1.6,0,0,0,2.26-.26,6.46,6.46,0,0,0,1.73-3A4.89,4.89,0,0,0,902.94,396Zm-.37,3a3.84,3.84,0,0,1-.78,1.67c-.55.62-2.33,1.47-2.82.36a2.12,2.12,0,0,1,.38-2.23c.32-.43.8-.82,1.09-1.27s.4-1.5,1-1.83a1.08,1.08,0,0,1,.82.1,1.31,1.31,0,0,1,.41.57,3.94,3.94,0,0,1,0,2.33Z"/></g><path class="cls-53" d="M894.64,403.55a4.27,4.27,0,0,0,.79-3.8,3.69,3.69,0,0,0-.35-1,5.43,5.43,0,0,1-.42-1.33,2.15,2.15,0,0,0-.59-1.16,1.37,1.37,0,0,0-.2-.13h-.2a1.23,1.23,0,0,0-.4.27,4.61,4.61,0,0,0-1.09,3.29,6.17,6.17,0,0,0,.61,3.08c.36.68,1,1.24,1.73.84Z"/><path class="cls-60" d="M895.43,399.75a3.69,3.69,0,0,0-.35-1,5.43,5.43,0,0,1-.42-1.33,2.15,2.15,0,0,0-.59-1.16,1.37,1.37,0,0,0-.2-.13h-.2a1.12,1.12,0,0,0-.24.13,1.48,1.48,0,0,1,.49,1.42A2.82,2.82,0,0,0,894,399a5.79,5.79,0,0,1,.29.92,2.51,2.51,0,0,1-.1,1.33.85.85,0,0,1-.92.56,1.18,1.18,0,0,1-.91-.68,1.24,1.24,0,0,1-.1-.2,5.14,5.14,0,0,0,.56,1.9c.36.68,1,1.24,1.73.84l.12-.08A4.27,4.27,0,0,0,895.43,399.75Z"/><path class="cls-61" d="M908.83,385.89c-.85-.52-3.92.82-3.92.82-4,2.19-5.22,7.54-5.47,8.51a.24.24,0,0,1,0,.08,1.29,1.29,0,0,1-.29.32,4.85,4.85,0,0,1-.61.29.51.51,0,0,0-.16.73c.14.28.63.14.82,0l.05,0,.09,0c1-.72,1.89-5.8,3.77-7.59s3.95-2.34,4.53-2.19,1.09.12,1.33-.21S908.83,385.89,908.83,385.89Z"/><path class="cls-62" d="M898.87,395.76a3.68,3.68,0,0,0-.35.15.51.51,0,0,0-.16.73c.14.28.63.14.82,0l.05,0,.09,0a.71.71,0,0,0,.13-.12A2.24,2.24,0,0,1,898.87,395.76Z"/><path class="cls-62" d="M899.37,395.37a1.43,1.43,0,0,1-.24.25l0,0a3.15,3.15,0,0,0,.19.27,1.85,1.85,0,0,0,.31.35,4.35,4.35,0,0,0,.3-.54A1.25,1.25,0,0,1,899.37,395.37Z"/><path class="cls-62" d="M900,393.44q-.13.42-.24.78a1.06,1.06,0,0,0,.68.25l.31-.84A1.42,1.42,0,0,1,900,393.44Z"/><path class="cls-62" d="M900.26,392.59c-.08.21-.16.42-.22.61a1.29,1.29,0,0,0,.74.22c.06-.17.12-.34.19-.51A1.68,1.68,0,0,1,900.26,392.59Z"/><path class="cls-62" d="M901.18,390.64c-.17.3-.32.6-.46.9a1.8,1.8,0,0,0,.61.44c.1-.25.21-.5.32-.74A1.68,1.68,0,0,1,901.18,390.64Z"/><path class="cls-62" d="M902.44,388.79c-.18.22-.35.44-.51.67a2.06,2.06,0,0,0,.36.56,6.19,6.19,0,0,1,.49-.7A2.19,2.19,0,0,1,902.44,388.79Z"/><path class="cls-62" d="M903,388.2c-.12.12-.24.25-.35.38a1.74,1.74,0,0,0,.33.54,1.59,1.59,0,0,1,.13-.13q.17-.17.33-.3A1.74,1.74,0,0,1,903,388.2Z"/><path class="cls-62" d="M903.74,387.51c-.2.16-.39.33-.57.5a1.57,1.57,0,0,0,.44.51q.3-.24.6-.45A1.29,1.29,0,0,1,903.74,387.51Z"/><path class="cls-62" d="M904.52,386.94c-.2.13-.39.26-.58.41a1.1,1.1,0,0,0,.5.56l.43-.26A2.05,2.05,0,0,1,904.52,386.94Z"/><path class="cls-62" d="M905.56,386.45l-.65.26-.17.1a2,2,0,0,0,.36.71,6.23,6.23,0,0,1,.59-.28A2.38,2.38,0,0,1,905.56,386.45Z"/><path class="cls-62" d="M907.57,385.85a8.56,8.56,0,0,0-.94.23,2.1,2.1,0,0,0,.17.78,2.26,2.26,0,0,1,.72-.07A4.21,4.21,0,0,1,907.57,385.85Z"/><path class="cls-62" d="M908.83,385.89a1.74,1.74,0,0,0-1-.08,3.24,3.24,0,0,0,0,1,1.11,1.11,0,0,0,1.18-.25C909.19,386.25,908.83,385.89,908.83,385.89Z"/><path class="cls-62" d="M906.4,386.16l-.62.21a2.5,2.5,0,0,0,.14.77c.22-.09.44-.16.63-.22A2.23,2.23,0,0,1,906.4,386.16Z"/><path class="cls-62" d="M901.76,389.7c-.15.22-.29.44-.42.67a2.84,2.84,0,0,0,.18.31,2,2,0,0,0,.25.3,7.37,7.37,0,0,1,.39-.74A1.69,1.69,0,0,1,901.76,389.7Z"/><path class="cls-62" d="M900.6,391.79l-.24.56a1.84,1.84,0,0,0,.68.35c.07-.16.13-.33.2-.49A2,2,0,0,1,900.6,391.79Z"/><path class="cls-62" d="M899.64,394.48c-.08.25-.13.47-.17.62a1.19,1.19,0,0,0,.51.41c.11-.25.22-.54.34-.84A1.17,1.17,0,0,1,899.64,394.48Z"/><path class="cls-63" d="M908.86,385.93a.3.3,0,0,1-.09.42.63.63,0,0,1-.58.15,1.74,1.74,0,0,0-.71-.15,3,3,0,0,0-.66.1,8.19,8.19,0,0,0-2.26,1,8.58,8.58,0,0,0-2.93,3.39,20.48,20.48,0,0,0-.91,2.1,17.66,17.66,0,0,1-.87,2.37c-.19.35-.53,1-1,.93a.26.26,0,0,1-.24-.37l-.06,0a.51.51,0,0,0-.16.73c.14.28.63.14.82,0l.05,0,.09,0c1-.72,1.89-5.8,3.77-7.59s3.95-2.34,4.53-2.19,1.09.12,1.33-.21A.53.53,0,0,0,908.86,385.93Z"/><path class="cls-61" d="M895.87,396a5.43,5.43,0,0,0-.61-.64,9.62,9.62,0,0,1-.87-1.22,21.57,21.57,0,0,0-2.88-3.16,8,8,0,0,0-2-1.32c-2.92-1.28-5.26-2-5.87-1.55s-.12,1,.76.82,5.32,1,7.72,3.52a31.07,31.07,0,0,1,2.74,3.44c.15.21.74,1.76,1.17.93A.75.75,0,0,0,895.87,396Z"/><path class="cls-62" d="M884.41,389a1.49,1.49,0,0,0-.21-.95,1,1,0,0,0-.59.14c-.6.46-.12,1,.76.82Z"/><path class="cls-62" d="M885.57,389.07a1.67,1.67,0,0,0-.25-.9,8.09,8.09,0,0,0-.82-.15,1.79,1.79,0,0,1,.14.92A6,6,0,0,1,885.57,389.07Z"/><path class="cls-62" d="M886.2,389.23a1.59,1.59,0,0,0-.18-.86l-.37-.11a2,2,0,0,1,.14.86Z"/><path class="cls-62" d="M887,389.48a1.76,1.76,0,0,0-.11-.82l-.58-.19a1.6,1.6,0,0,1,.06.81Z"/><path class="cls-62" d="M888.11,389.89a2,2,0,0,0-.07-.8l-.83-.32a1.86,1.86,0,0,1,0,.78C887.52,389.65,887.81,389.77,888.11,389.89Z"/><path class="cls-62" d="M888.83,390.22a1.56,1.56,0,0,0,0-.8l-.54-.22a1.66,1.66,0,0,1,0,.77Z"/><path class="cls-62" d="M889.83,390.74c0-.12,0-.23.07-.31a3,3,0,0,0,0-.52l-.45-.22-.37-.16a1.84,1.84,0,0,1-.1.77Z"/><path class="cls-62" d="M892,391.45l-.47-.44-.37-.3a2.71,2.71,0,0,1-.16.8c.29.22.57.45.83.69A2.26,2.26,0,0,0,892,391.45Z"/><path class="cls-62" d="M892.7,393.16a2.27,2.27,0,0,0,.23-.74q-.36-.41-.75-.78a2.27,2.27,0,0,1-.23.71l.14.13C892.3,392.71,892.51,392.93,892.7,393.16Z"/><path class="cls-62" d="M893.7,393.3l-.59-.69a2.82,2.82,0,0,1-.27.7l.58.72A2.57,2.57,0,0,0,893.7,393.3Z"/><path class="cls-62" d="M894.29,394.86a1.14,1.14,0,0,0,.3-.4,3,3,0,0,0-.2-.29c-.17-.23-.35-.45-.53-.68a2.72,2.72,0,0,1-.32.69l.6.79Z"/><path class="cls-62" d="M895.06,395.17a4.72,4.72,0,0,1-.35-.52l-.06.1a1.44,1.44,0,0,1-.41.36l.45.61A3.78,3.78,0,0,0,895.06,395.17Z"/><path class="cls-62" d="M895.26,395.39l-.07-.07a5.12,5.12,0,0,1-.4.55l0,.05c.06.09.2.4.37.68a1.3,1.3,0,0,0,.63-.62A5.41,5.41,0,0,0,895.26,395.39Z"/><path class="cls-62" d="M890.92,390.54a7.52,7.52,0,0,0-.75-.5,2.29,2.29,0,0,1-.15.82c.27.17.54.34.8.53A2.71,2.71,0,0,0,890.92,390.54Z"/><path class="cls-62" d="M895.3,396.76c.22.32.48.51.7.09a.73.73,0,0,0,0-.7A1.79,1.79,0,0,1,895.3,396.76Z"/><path class="cls-63" d="M895.87,396a5.43,5.43,0,0,0-.61-.64,9.62,9.62,0,0,1-.87-1.22,21.57,21.57,0,0,0-2.88-3.16,8,8,0,0,0-2-1.32,34.89,34.89,0,0,0-3.33-1.29l.22.08a21.19,21.19,0,0,1,2,.87,14.9,14.9,0,0,1,3.57,2.4,13.1,13.1,0,0,1,1.62,1.79c.47.65.86,1.4,1.39,2,.22.24.84.76.54,1.14a.24.24,0,0,1-.19.1c.21.31.47.48.68.07A.75.75,0,0,0,895.87,396Z"/><path class="cls-64" d="M893.85,397.44a1.65,1.65,0,0,0-.41-.86l-.05,0a3.08,3.08,0,0,0-.69,1.2l.58.6A4.27,4.27,0,0,1,893.85,397.44Z"/><path class="cls-65" d="M893,401.18a6.77,6.77,0,0,1,0-2l0-.11-.55-.38a7.26,7.26,0,0,0-.07,1.29c.08,2,.58,3,1.2,3.36A5.72,5.72,0,0,1,893,401.18Z"/><path class="cls-66" d="M900.8,397.34c.14-.3.25-.61.4-.9a1.75,1.75,0,0,1,.53-.63l-.17,0a1.19,1.19,0,0,0-.44.21c-.52.38-.63,1.09-1,1.59l.39.27A3.81,3.81,0,0,0,900.8,397.34Z"/><path class="cls-67" d="M900,398.59l0,0-.45-.3a5.86,5.86,0,0,0-.54.67,3.77,3.77,0,0,0-.51,2.46,4.26,4.26,0,0,0,.4,1.42C898.33,401.38,899.13,399.72,900,398.59Z"/><path class="cls-36" d="M908.93,403c-.26-.55-.45-1.13-.68-1.69-.09-.23-.27-.95-.52-1.05-.68-.28-1.05.42-1.36.89a.71.71,0,0,0-.07.73c.13.36.26.41,0,.92-.12.28-.25.56-.38.83a23.25,23.25,0,0,0-1.27,3.44c-.17.58-.3,1.15-.45,1.73a3.26,3.26,0,0,0-.17,1.11c.05.39.46.46.89.41a20.06,20.06,0,0,1-1.07,3.29,8.39,8.39,0,0,1-.62,1,.33.33,0,0,0,.07.45.41.41,0,0,0,.16.11v0a5.83,5.83,0,0,0-.53,1.06.13.13,0,0,0,.14.18l.1,0-.09.1a1.65,1.65,0,0,0-.28.69c0,.21.12.26.27.23a1.4,1.4,0,0,0-.08.64c0,.19.17.24.34.24-.18.76-.27,1.55-.43,2.31-.1.48-.35,1.24.2,1.29q-.11.27-.24.54c-.16.3-.48.42-.72.62-.07.06-.18.24,0,.29a2,2,0,0,0,1.1,0,1.77,1.77,0,0,0,1.14-.49,1.82,1.82,0,0,0,.2-1.38.77.77,0,0,0,.45-.62,7.86,7.86,0,0,0-.25-1.59,10.18,10.18,0,0,1-.19-1.08c.21,0,.4-.08.43-.29a1.41,1.41,0,0,0,0-.54.34.34,0,0,0,.26-.22.76.76,0,0,0,0-.61,2.55,2.55,0,0,0-.4-.46.35.35,0,0,0,.2,0,.69.69,0,0,0,.31-.4,1,1,0,0,0,0-.63c0-.09,0-.17-.07-.25a2.77,2.77,0,0,0,.31-1.5c0-.8.18-1.65.28-2.45,0-.27.09-.54.15-.8a.23.23,0,0,0,.09-.18,1.36,1.36,0,0,0,.68-.49c.46-.56.25-1.22.39-1.9.18-.92.35-1.84.52-2.75a8.08,8.08,0,0,0,.1-1.47c0,.34.1.68.17,1,.14.67.21,1.29,1,1.42C910.14,405.81,909.13,403.36,908.93,403Z"/><path class="cls-46" d="M908.93,403c-.26-.55-.45-1.13-.68-1.69-.09-.23-.27-.95-.52-1.05-.68-.28-1.05.42-1.36.89a.62.62,0,0,0-.13.32.65.65,0,0,0,.16.39c.12.12.21,0,.35,0a.87.87,0,0,1,.77.35,2.83,2.83,0,0,1,.3,1.53c0,.18.06.35.09.52.14.67.21,1.29,1,1.42C910.14,405.81,909.13,403.36,908.93,403Z"/><path class="cls-44" d="M909.07,403.28a.68.68,0,0,1-.17.31c-.53.54-.79-.6-.86-.93a7.34,7.34,0,0,0-.28-1c-.06-.16-.22-.71-.52-.53a.7.7,0,0,1-.27.14c-.39,0-.47-.17-.43-.42-.06.09-.12.18-.17.27a.71.71,0,0,0-.07.73,3.2,3.2,0,0,1,.14.38.59.59,0,0,1,.38-.1c.2,0,.24.28.28.42a4,4,0,0,1,.21.73,2,2,0,0,1-.17.84c-.14.41-.27.81-.39,1.22a23.5,23.5,0,0,0-.55,2.38,2.9,2.9,0,0,1-.43,1.34,1.26,1.26,0,0,1-1.09.51c-.35,0-.46-.34-.48-.7a2.74,2.74,0,0,0-.14,1c.05.39.46.46.89.41h0c.24-.14.5-.2.55.14a2.63,2.63,0,0,1-.24,1.1c-.15.43-.3.86-.41,1.3a2.64,2.64,0,0,1-.82,1.59c-.23.14-.57.24-.71.07l-.06.09a.33.33,0,0,0,.07.45l.11.08a4.51,4.51,0,0,1,.94-.2s0,0,0,0a1.71,1.71,0,0,1-1.46,1.4.11.11,0,0,0,.07.06h.06l.1,0,0,0c.3,0,.61-.18.88-.06s.23.49.07.68a.8.8,0,0,1-.21.15l.09.05a.37.37,0,0,1,.1.58,1.42,1.42,0,0,1-1,.39.38.38,0,0,0,.27.08h0a.69.69,0,0,1,.4-.14c.25,0,.3.22.3.44s0,.66-.08,1,.07.75.07,1.13-.24.9-.78.9a1.14,1.14,0,0,1-.48-.09.35.35,0,0,0,.22.32c.28,0,.6-.12.91-.1,0,0,0,0,0,0-.06.69-1.1,1.7-1.87,1.5a.1.1,0,0,0,.06.05,2,2,0,0,0,1.1,0,1.77,1.77,0,0,0,1.14-.49,1.82,1.82,0,0,0,.2-1.38.77.77,0,0,0,.45-.62,7.86,7.86,0,0,0-.25-1.59,10.18,10.18,0,0,1-.19-1.08c.21,0,.4-.08.43-.29a1.41,1.41,0,0,0,0-.54.34.34,0,0,0,.26-.22.76.76,0,0,0,0-.61,2.55,2.55,0,0,0-.4-.46.35.35,0,0,0,.2,0,.69.69,0,0,0,.31-.4,1,1,0,0,0,0-.63c0-.09,0-.17-.07-.25a2.77,2.77,0,0,0,.31-1.5c0-.8.18-1.65.28-2.45,0-.27.09-.54.15-.8a.23.23,0,0,0,.09-.18,1.36,1.36,0,0,0,.68-.49c.46-.56.25-1.22.39-1.9.18-.92.35-1.84.52-2.75a8.08,8.08,0,0,0,.1-1.47c0,.34.1.68.17,1,.14.67.21,1.29,1,1.42C910,405.78,909.39,404.07,909.07,403.28Z"/><path class="cls-32" d="M909.89,396s4.9-8.63,11.43-12.19,12.09-3.73,12.85.28-2.46,7-5.9,8.14-15,3.92-17.22,4.86l-.24.15Z"/><path class="cls-32" d="M934.17,384.07c-.76-4-6.32-3.83-12.85-.28S909.89,396,909.89,396l.92,1.24.24-.15c2.25-.94,13.79-3.7,17.22-4.86S934.93,388.08,934.17,384.07Zm-8.27,6.22a31,31,0,0,1-6.86,3.38,40.15,40.15,0,0,1-4.81,1.41c-.57.13-2.2.55-2.4-.37s.74-2.11,1.24-2.86a20.11,20.11,0,0,1,3.33-3.69,37.36,37.36,0,0,1,4-3.21,19.2,19.2,0,0,1,3.65-2.1,6,6,0,0,1,4.13-.33c1.94.81,1.7,3.37.76,4.82A10.64,10.64,0,0,1,925.9,390.29Z"/><path class="cls-33" d="M934.17,384.07a3.3,3.3,0,0,0-1.84-2.48c1.86,2.12,1.22,5.05-.62,7a13.06,13.06,0,0,1-3.38,2.62,22.55,22.55,0,0,1-4.6,1.66c-1.8.49-3.58,1-5.38,1.56-.88.25-1.81.44-2.66.77-.63.25-1.24.54-1.89.73-.85.24-2.19.36-2.51-.75a2.73,2.73,0,0,1,0-1.39c-.9,1.33-1.41,2.22-1.41,2.22l.92,1.24.24-.15c2.25-.94,13.79-3.7,17.22-4.86S934.93,388.08,934.17,384.07Z"/><path class="cls-34" d="M931.22,384.79a16.23,16.23,0,0,0-3.05,1.94,15.19,15.19,0,0,0-1.26,1.15c-.25.25-.52.47-.76.73s-.27.36-.41.53l-2,.7a5.27,5.27,0,0,1-.86-.42c-.27-.18-.51-.38-.76-.57a60,60,0,0,1,7.45-3.47h0c-1.2.42-2.37.9-3.53,1.41a27.19,27.19,0,0,1,1.59-2.27c.69-.82,1.44-1.59,2.11-2.42,0,0,0,0,0,0-.78.83-1.58,1.62-2.32,2.49a7.25,7.25,0,0,0-1.43,2.24c-1,.43-1.9.88-2.84,1.36a18.12,18.12,0,0,0,.67-1.87,5,5,0,0,0,.39-1.41c1.51-.82,3.06-1.56,4.65-2.25,0,0,0-.08,0-.06-.64.25-1.27.51-1.89.79a1.4,1.4,0,0,0,.17-.51c.08-.38.22-.76.33-1.13h0c-.23.55-.43,1.1-.62,1.67a0,0,0,0,0,0,0,45.32,45.32,0,0,0-5.38,2.85l.06-.11a8.73,8.73,0,0,1,.65-1.05,22.21,22.21,0,0,1,1.91-2.41s0,0,0,0a18.57,18.57,0,0,0-1.8,2.06,6.91,6.91,0,0,0-.6.92c-.1.18-.21.48-.34.69-.77.48-1.53,1-2.28,1.51s-1.42,1-2.1,1.59c.33-.57.62-1.16,1-1.73s.75-1,1.07-1.54c0,0,0,0,0,0-.41.57-.88,1.11-1.3,1.69a5,5,0,0,0-.9,1.7v0c-.66.54-1.3,1.1-1.93,1.67a29.29,29.29,0,0,0-2.08,2.09c-.3.33-.58.67-.86,1a6.82,6.82,0,0,1-.82,1.08h0a1.69,1.69,0,0,0,.47-.49q.42-.51.87-1c.65-.74,1.34-1.43,2.05-2.1l.77-.7a8.62,8.62,0,0,0-.5,1,6,6,0,0,0-.49,1.21,29.14,29.14,0,0,0-3,2.19s0,.08,0,.05c1.38-.92,2.71-1.91,4.11-2.79l1.9-1.19a0,0,0,0,0,0,0h0c.77-.48,1.55-1,2.34-1.4-.11.22-.25.44-.35.66a7.09,7.09,0,0,0-.37.9,44.73,44.73,0,0,0-7.85,4.25s0,.08,0,.05L913,395c.29.34,1.3.36,1.64.4a8.12,8.12,0,0,0,2.31-.06s0-.06,0-.06a13,13,0,0,1-3.84-.34c.91-.53,1.83-1,2.77-1.52h0A5.76,5.76,0,0,0,918,394a9.5,9.5,0,0,0,3,.1s0-.05,0-.05a12.14,12.14,0,0,1-5-.69c1.38-.71,2.81-1.32,4.23-1.93.63,0,1.29.19,1.89.22h.7a4.91,4.91,0,0,0,.59.77,5.77,5.77,0,0,0,1.05.79s0,0,0,0a10.89,10.89,0,0,0-.88-.78c-.26-.23-.5-.56-.75-.74.55,0,1.1,0,1.65-.05a25.78,25.78,0,0,0,5.33-1.24s0-.06,0-.05l-2,.53.07-.07a10.57,10.57,0,0,0,.85-1c.45-.52.87-1.05,1.27-1.6.38-.07.77-.13,1.15-.21,0,0,0,0,0,0l-1.11.16a0,0,0,0,0-.07,0h0c-.47.06-.93.13-1.39.23a23,23,0,0,0-2.58.73l-.18.06c.33-.32.63-.68,1-1s.83-.77,1.26-1.13a19.28,19.28,0,0,1,3.16-2.14S931.26,384.77,931.22,384.79Zm-15.72,7.79-1.12.71a8,8,0,0,1,.39-1c.19-.41.33-.86.56-1.26q1.73-1.53,3.6-2.89l.46-.32c-.27.42-.49.87-.75,1.29a17.72,17.72,0,0,0-1.26,2.25Zm2-1.28c.42-.69.79-1.41,1.2-2.11a10,10,0,0,0,.55-1.08c0-.1.12-.2.17-.31a47.41,47.41,0,0,1,4.7-2.89,12.21,12.21,0,0,1-.53,1.58c-.2.59-.41,1.16-.61,1.74-1.09.56-2.15,1.13-3.21,1.73v0h0v0h0C919,390.4,918.29,390.84,917.55,391.3Zm1.58.39c.12-.22.19-.49.29-.72a8.56,8.56,0,0,0,.34-.81L920,390l2.06-1.14a4.33,4.33,0,0,0,.83.71,2.81,2.81,0,0,0,.39.19l.27.14c-.85.31-1.7.63-2.54,1C920.4,391.15,919.76,391.41,919.13,391.69Zm9.21-3.21c.52-.13,1-.22,1.56-.31-.35.39-.66.83-1,1.23s-.47.59-.71.89a6.8,6.8,0,0,1-.4.57,19.61,19.61,0,0,1-3.49.61,14.25,14.25,0,0,1-2.53,0,9.66,9.66,0,0,0-1.35-.13l.44-.19c1.55-.67,3.15-1.26,4.75-1.81C926.52,389,927.41,388.72,928.34,388.48Z"/><path class="cls-53" d="M911.2,396.07a.9.9,0,0,1-.14,1.22c-.35.19-.85-.05-1.12-.53a.9.9,0,0,1,.15-1.22C910.44,395.34,910.94,395.58,911.2,396.07Z"/><path class="cls-68" d="M910.71,396a.49.49,0,0,1-.13.67.53.53,0,0,1-.5-.92A.49.49,0,0,1,910.71,396Z"/><path class="cls-7" d="M895.83,395.4a3.24,3.24,0,0,1,2.09-.55,1.65,1.65,0,0,1,.46.52S897.56,394.49,895.83,395.4Z"/><path class="cls-35" d="M912.39,393.41s4.94-7.9,12.88-10.5c0,0,3-1.09,3.6,1.22,0,0-.81-1.91-4.9-.2C920.24,385.48,915.67,389.44,912.39,393.41Z"/><g class="cls-69"><path class="cls-70" d="M895.9,401.52l-.06-.19a7.08,7.08,0,0,1-.11,1.12,2.19,2.19,0,0,1-1.2,1.51.5.5,0,0,0,0,.13C895.71,403.81,895.94,402.62,895.9,401.52Z"/><path class="cls-70" d="M896.75,405a1.86,1.86,0,0,1-1-.66l-.06,0a.88.88,0,0,0-.56-.17,2.4,2.4,0,0,0-.38.12,4.59,4.59,0,0,1,.51.1c.34.1.61.46.89.67a1.31,1.31,0,0,0,1.41,0l0,0A1.66,1.66,0,0,1,896.75,405Z"/><path class="cls-70" d="M895.53,408.58c-.43-.7-.7-1.48-1.08-2.2a6.61,6.61,0,0,0,2.12,3.63s0-.08,0-.11A8.49,8.49,0,0,1,895.53,408.58Z"/><path class="cls-70" d="M898.54,408.18c-.24-.25,0-.44.1-.65s.11-.24.06-.33a1.58,1.58,0,0,0-.29-.39s0,0,0,0c.16.46,0,.64-.25,1a.31.31,0,0,0,0,.31c.19.28.47.44.3.83a2.69,2.69,0,0,0-.24.65l.09-.07a3.38,3.38,0,0,0,.44-.94A1.46,1.46,0,0,0,898.54,408.18Z"/></g><path class="cls-71" d="M906.93,386.19a8,8,0,0,0-4.79,3.14c-1.41,1.89-2,4.15-2.65,6.37,0,0,0,0,0,0a31,31,0,0,1,2.27-5.6,8.62,8.62,0,0,1,5.12-3.91Z"/><path class="cls-71" d="M895.31,396.31a15.74,15.74,0,0,0-1-1.53,14.65,14.65,0,0,0-2.1-2.61c-.4-.36-.83-.67-1.25-1a13,13,0,0,0-3.5-1.94,10.75,10.75,0,0,0-1.92-.54c-.62-.12-1.33.11-1.92-.11,0,0,0,0,0,0a1.41,1.41,0,0,0,1,.2,6.59,6.59,0,0,1,2.36.45,13.41,13.41,0,0,1,3.73,1.9,9.73,9.73,0,0,1,1.18.94,19.66,19.66,0,0,1,2.3,2.77c.35.51.72,1,1.1,1.48C895.29,396.36,895.32,396.33,895.31,396.31Z"/><path class="cls-72" d="M902.91,393.12a8.62,8.62,0,0,1,5.87.77s-.45.61.2,1.74c0,0-1.05-.4-1-1.17C908,394.46,907.32,393,902.91,393.12Z"/><path class="cls-73" d="M894.56,410.24a1.22,1.22,0,0,1-.21-.48,3.55,3.55,0,0,0-.06-.47c-.06-.41-.08-.82-.13-1.22,0,0,0,0,0,0a14.2,14.2,0,0,0-.13,1.45c0,.4,0,.74.37.9C894.49,410.46,894.6,410.33,894.56,410.24Z"/><path class="cls-73" d="M897.05,415.93c-.27-.12-.36-.52-.47-.77s-.34-.72-.48-1.1-.27-.66-.41-1a6.08,6.08,0,0,1-.61-1.19s0,0,0,0V412s0,0,0,0c0,.4.21.67.39,1a11,11,0,0,1,.58,1.37,9.51,9.51,0,0,1,.54,1.37.38.38,0,0,0,.4.35C897.05,416.08,897.13,416,897.05,415.93Z"/><path class="cls-73" d="M897.26,416.45c0-.05-.08,0-.09,0a2,2,0,0,0,0,.24c0,.08,0,.18.05.23s.12,0,.15-.06S897.29,416.58,897.26,416.45Z"/><path class="cls-73" d="M897.64,417.74a.36.36,0,0,1,0-.25s0,0,0,0a.46.46,0,0,0-.06.23c0,.07,0,.2.07.23a.08.08,0,0,0,.08,0A.18.18,0,0,0,897.64,417.74Z"/><path class="cls-73" d="M898.06,418.3s-.07,0-.07,0a.59.59,0,0,0,.09.35c0,.05.09,0,.1,0S898.08,418.42,898.06,418.3Z"/><path class="cls-73" d="M900.17,421.66c-.88-.5-1.08-1.59-1.57-2.4,0,0,0,0,0,0,0,.22,0,.44.06.67a3,3,0,0,0,.31.77,1.83,1.83,0,0,0,1.15,1.06S900.24,421.7,900.17,421.66Z"/><path class="cls-73" d="M905,410.52c-.21.68-.4,1.37-.6,2.05-.09.29-.17.59-.28.88s-.35.48-.52.75c0,.07,0,.12.08.08a2,2,0,0,0,.79-1.34c.21-.81.41-1.6.55-2.42C905.05,410.5,905,410.51,905,410.52Z"/><path class="cls-73" d="M903.66,415.21a2,2,0,0,0-.28.41,2.38,2.38,0,0,0-.24.51c0,.06,0,.11.1.06.29-.24.27-.65.45-1C903.7,415.2,903.68,415.19,903.66,415.21Z"/><path class="cls-73" d="M903.37,416.46c-.13.09-.35.25-.32.44s.09.06.14,0,0,0,0,0v0h0s0,0,0,0,0-.08,0-.12a.55.55,0,0,1,.12-.24S903.38,416.45,903.37,416.46Z"/><path class="cls-73" d="M903.34,417.59a1,1,0,0,1,0-.17s0,0,0,0a.71.71,0,0,0-.18.38c0,.16.22.07.22-.05A.77.77,0,0,0,903.34,417.59Z"/><path class="cls-73" d="M903.52,418.26a5.72,5.72,0,0,0-.24,1.62A4.07,4.07,0,0,1,903,421c-.09.19,0,.24.1.36s.13-.05.11-.1c-.08-.23.1-.54.14-.76s.11-.56.14-.84c0-.49,0-.93.06-1.41C903.55,418.24,903.53,418.25,903.52,418.26Z"/><path class="cls-73" d="M903.37,421.84a3.57,3.57,0,0,1-.47.74,1.06,1.06,0,0,1-.29.27c-.13.09-.24.22-.37.32s0,.08,0,.07a1.54,1.54,0,0,0,.74-.54,2,2,0,0,0,.38-.86Z"/><path class="cls-73" d="M906.71,402.58a19.13,19.13,0,0,0-2.13,6.53s0,0,.06,0a36.38,36.38,0,0,1,2.08-6.52Z"/><path class="cls-73" d="M907.52,400.24c-.27,0-.48.27-.61.45,0,0,0,0,0,0,.16-.14.32-.3.56-.24s.27.28.35.4.12,0,.12-.05A.53.53,0,0,0,907.52,400.24Z"/><path class="cls-73" d="M902.77,407.6s0,0,0,0a21.92,21.92,0,0,1-.37,2.41c-.07.35,0,1.08-.32,1.32a.43.43,0,0,0-.13.28c0,.06.06,0,.08,0,.15-.22.3-.27.39-.51a5.39,5.39,0,0,0,.2-1A15.54,15.54,0,0,0,902.77,407.6Z"/><path class="cls-73" d="M905.52,422.08l-.09-.09a.37.37,0,0,1-.09-.19.11.11,0,0,0-.06-.09s0,0,0,0,0,.21,0,.26a.62.62,0,0,0,0,.19.28.28,0,0,0,.06.18.2.2,0,0,0,.25,0C905.56,422.26,905.6,422.13,905.52,422.08Z"/><path class="cls-73" d="M905.18,421.18s0-.05-.06-.09,0,0-.06,0,0,.11.05.14S905.19,421.22,905.18,421.18Z"/><path class="cls-73" d="M908.2,427.29c-.23-.09-.47-.14-.69-.24a5.54,5.54,0,0,1-.92-.59c-.53-.36-.63-1.42-.74-2,0,0,0,0,0,0,0,.59,0,1.57.44,2a3.41,3.41,0,0,0,1.88.84S908.24,427.31,908.2,427.29Z"/><path class="cls-73" d="M908,409.85a5.83,5.83,0,0,0-.16-2.25s0,0,0,0a17,17,0,0,1,0,2.47c0,.13.07,1,0,1.05s-.16.23-.17.35.08,0,.1,0,.22-.21.26-.34A4.35,4.35,0,0,0,908,409.85Z"/><path class="cls-73" d="M909.59,415.5c-.19-.22-.13-.54-.17-.8s-.17-.52-.24-.77c-.12-.47-.35-.9-.48-1.37,0,0,0,0,0,0a6.89,6.89,0,0,0,.43,1.6l.18.6c.07.22,0,.32,0,.5s.08.25.25.32A.06.06,0,0,0,909.59,415.5Z"/><path class="cls-73" d="M909.88,416.43h0c.07.21.13.43.21.64a3.83,3.83,0,0,0,.22.65c0,.06.11,0,.11-.07A3.34,3.34,0,0,0,909.88,416.43Z"/><path class="cls-73" d="M914.12,424.8a2.41,2.41,0,0,1-1.19-1,5.68,5.68,0,0,1-.53-1.33s0,0,0,0a5.61,5.61,0,0,0,.48,1.57,1.88,1.88,0,0,0,1.24.76S914.14,424.81,914.12,424.8Z"/><path class="cls-73" d="M916.1,398.12c-.47.33-.59.94-1,1.37a20.16,20.16,0,0,1-1.55,1.78c-.51.5-1,1-1.51,1.49A4,4,0,0,0,911,404s0,0,0,0,.05-.08.22-.29a10.07,10.07,0,0,1,.9-.82,15.42,15.42,0,0,0,1.42-1.38c.47-.53,1-1,1.44-1.58s.63-1.25,1.09-1.76C916.16,398.13,916.14,398.09,916.1,398.12Z"/><path class="cls-73" d="M916.83,407.84s0,0,0,0c-.11.27-.39.41-.48.7a.5.5,0,0,0,.2.59c.07.05.16,0,.16-.12a3.42,3.42,0,0,1,0-.64A3.53,3.53,0,0,0,916.83,407.84Z"/><path class="cls-73" d="M916.35,413.33h0c-.13.65-.32,1.29-.44,2-.1.48-.2.92.2,1.29.06.06.19-.05.17-.13A9.38,9.38,0,0,1,916.35,413.33Z"/><path class="cls-73" d="M916.56,417.78a1.77,1.77,0,0,1,0-.23.81.81,0,0,1,0-.31h0a1.25,1.25,0,0,0-.26.48c0,.14-.11.4,0,.51s.11,0,.15,0A.46.46,0,0,0,916.56,417.78Z"/><path class="cls-73" d="M916.71,419.52a1.19,1.19,0,0,1,0-.42s0,0,0,0a.87.87,0,0,0-.09.36.68.68,0,0,0,0,.4c0,.07.14,0,.16-.05A.44.44,0,0,0,916.71,419.52Z"/><path class="cls-73" d="M917,420.86s0,0,0-.07a0,0,0,0,0,0,0,.34.34,0,0,0-.07.11.14.14,0,0,0,0,.14c0,.05.11,0,.1-.08A.09.09,0,0,0,917,420.86Z"/><path class="cls-73" d="M918.16,423.68a3.34,3.34,0,0,0-.44-.48,1.29,1.29,0,0,1-.36-.88s0,0,0,0a1.08,1.08,0,0,0,.26,1,3.13,3.13,0,0,1,.85,1.44c0,.05.08,0,.08,0A2.1,2.1,0,0,0,918.16,423.68Z"/><path class="cls-73" d="M920.22,394.84c-.78,1-1.86,1.81-2.6,2.87,0,0,0,.06,0,0a15.6,15.6,0,0,0,2.56-2.89S920.22,394.83,920.22,394.84Z"/><path class="cls-73" d="M921.9,404.75c0-.37-.28-.71-.35-1.07s-.11-.76-.16-1.13c-.18-1.58-.33-3.15-.43-4.73,0,0,0,0,0,0a38,38,0,0,0,.25,4.4,9.36,9.36,0,0,0,.27,1.9c.08.24.18.47.25.71s-.15.48-.27.67a1.38,1.38,0,0,0-.18.72c0,.08.1,0,.11,0C921.52,405.73,922,405.25,921.9,404.75Z"/><path class="cls-73" d="M924.73,412.74c-.28-.47-.56-.94-.85-1.41a13.75,13.75,0,0,1-1.56-2.74s0,0,0,0a9.48,9.48,0,0,0,1.34,2.68c.27.48.63.92.88,1.42a1.11,1.11,0,0,1,.14.75.94.94,0,0,0,.08.47c0,.07.13,0,.12-.07C924.81,413.43,925,413.11,924.73,412.74Z"/><path class="cls-73" d="M925.54,414.53a.71.71,0,0,0-.11-.25,0,0,0,0,0,0,0c0,.14-.16.67.14.62a.12.12,0,0,0,.09-.09C925.67,414.71,925.58,414.62,925.54,414.53Z"/><path class="cls-73" d="M926.18,415.58s0,0,0-.07,0-.05,0-.08,0,0,0,0,0,.08,0,.11,0,.05,0,.08a.5.5,0,0,0,.06.24c0,.06.1,0,.1-.06A1.09,1.09,0,0,0,926.18,415.58Z"/><path class="cls-73" d="M926.67,416.63c0-.06-.07,0-.09,0a.38.38,0,0,0,.06.34s.1,0,.1-.07S926.66,416.73,926.67,416.63Z"/><path class="cls-73" d="M927.18,417.82s0-.08,0-.13a0,0,0,0,0-.07,0,.72.72,0,0,0,0,.21.06.06,0,0,0,.1.06l0,0S927.22,417.85,927.18,417.82Z"/><path class="cls-73" d="M928,419.71c0-.28,0-.58-.15-.81s-.49.12-.36-.3c0,0,0,0,0,0a.48.48,0,0,0-.08.51s0,0,.06,0c.4-.09.31.83.38,1.07.25.77.84,1.37.77,2.23,0,.05.05,0,.06,0C928.87,421.42,928.2,420.64,928,419.71Z"/><path class="cls-73" d="M914.71,412a7.09,7.09,0,0,1-3.76-1,3.5,3.5,0,0,1-1-1.06,7.71,7.71,0,0,1-.34-1.72h0a16.49,16.49,0,0,0,.15,1.84c.11.48.65.88,1,1.19,1.07.92,2.67.85,4,.76C914.71,412.11,914.75,412.05,914.71,412Z"/><path class="cls-73" d="M914.43,407.39a15.22,15.22,0,0,1-3-.16c-.17,0-1.59-.32-1.56-.64a7.76,7.76,0,0,1,.12-1.08h0a7,7,0,0,0-.3,1.2c-.07.31.84.58,1,.64a7.75,7.75,0,0,0,3.77.11S914.48,407.39,914.43,407.39Z"/><path class="cls-73" d="M915.08,415.58a9.34,9.34,0,0,1-2.81-.64,3.17,3.17,0,0,1-1.64-2.05h0a3.25,3.25,0,0,0,1.31,2.25,5.3,5.3,0,0,0,3.13.54C915.1,415.69,915.15,415.58,915.08,415.58Z"/><path class="cls-73" d="M915.93,419.36c-.39-.16-.79-.26-1.16-.45a3.24,3.24,0,0,1-1.22-1.19l0,0a4.08,4.08,0,0,0,1,1.31,1.94,1.94,0,0,0,1.37.46C915.92,419.51,916,419.39,915.93,419.36Z"/><path class="cls-73" d="M923.19,417.16a21.94,21.94,0,0,1-2.5,1.41,14.93,14.93,0,0,1-1.43.47,3.24,3.24,0,0,1-1.4.24s-.05,0,0,.06a1.59,1.59,0,0,0,1,0,11.28,11.28,0,0,0,1.63-.47,10.22,10.22,0,0,0,2.73-1.67S923.23,417.13,923.19,417.16Z"/><path class="cls-73" d="M922.31,421.47a9.91,9.91,0,0,1-3.15,1.32s0,0,0,0a4.31,4.31,0,0,0,3.21-1.19C922.42,421.57,922.43,421.41,922.31,421.47Z"/><path class="cls-73" d="M919.6,400.4s0,0,0,0c.16.19,0,.7,0,.9-.1.43-.18.86-.29,1.29a7,7,0,0,1-1.2,2.33s0,.06,0,0a6.06,6.06,0,0,0,1.37-2.38,9.19,9.19,0,0,0,.24-1.47C919.75,400.92,919.77,400.55,919.6,400.4Z"/><path class="cls-73" d="M920.75,408.24a6.2,6.2,0,0,1-1.21.87,3.9,3.9,0,0,1-1.52.4s0,0,0,0a3,3,0,0,0,1.53-.26,3.44,3.44,0,0,0,1.26-1S920.8,408.2,920.75,408.24Z"/><path class="cls-73" d="M922.41,411.61c-.63.59-2.18.92-2.85.22h0c.62.93,2.29.52,2.91-.18C922.5,411.61,922.45,411.57,922.41,411.61Z"/><path class="cls-73" d="M924.4,414.85a2.9,2.9,0,0,1-2.53.36s0,0,0,.05a2.24,2.24,0,0,0,1.44.22,1.89,1.89,0,0,0,1.15-.59S924.44,414.82,924.4,414.85Z"/><path class="cls-73" d="M920.11,409.59a18.42,18.42,0,0,1-2,1.43,6.53,6.53,0,0,1-2.43,1h0a2.67,2.67,0,0,0,1-.24,6.29,6.29,0,0,0,1.14-.45,12.24,12.24,0,0,0,2.32-1.72S920.15,409.55,920.11,409.59Z"/><path class="cls-73" d="M921.52,414a16.72,16.72,0,0,1-3.88,2.69s0,0,0,0a9.45,9.45,0,0,0,3.91-2.66S921.55,414,921.52,414Z"/><path class="cls-73" d="M923.49,421.77a15.61,15.61,0,0,1-1.5,1.06,3.9,3.9,0,0,1-1.67.7h0c.5.1,1.12-.3,1.56-.48a4.83,4.83,0,0,0,1.66-1.24S923.53,421.74,923.49,421.77Z"/><image width="1200" height="650" transform="translate(715 434.69) scale(0.12)" xlink:href="../SB01_A_LI_FG_03.png"/></g></g></g></g></svg>