<svg xmlns="http://www.w3.org/2000/svg" xmlns:xlink="http://www.w3.org/1999/xlink" viewBox="0 0 512 512"><defs><style>.cls-1{fill:none;}.cls-2{isolation:isolate;}.cls-3{fill:#ae6227;}.cls-4{fill:#f19626;stroke:#985d25;}.cls-11,.cls-15,.cls-4{stroke-miterlimit:10;}.cls-11,.cls-4{stroke-width:0.45px;}.cls-5,.cls-8{fill:#fbcf58;}.cls-5{opacity:0.44;}.cls-6{fill:#a07f51;}.cls-12,.cls-6{mix-blend-mode:multiply;}.cls-7{opacity:0.4;}.cls-9{fill:#c67129;}.cls-10{clip-path:url(#clip-path);}.cls-11{fill:#f7ece4;stroke:#c5a28a;}.cls-12{fill:#f6d7cc;}.cls-13{fill:#676767;mix-blend-mode:screen;}.cls-14{fill:#faaf64;opacity:0.79;}.cls-15{fill:#c56f29;stroke:#a45b26;stroke-width:0.23px;}</style><clipPath id="clip-path"><path class="cls-1" d="M427.57,242.15c-2.85,6.79,3.58,10.1,3.58,10.1a24,24,0,0,1-5,5.26c-2.74,1.9-9.06,4.64-11.8,6.95s-14.95,8-15.58,8.64-7-3.16-7.79-6.11-.21,5.89-.84,8-3.37-.42-5.9-2.11-1.47-1.68-1.89-.84-2.11,9.27-6.95,11.37-11.16-2.73-11.16-2.73-10.32,8.63-17.06,9.05-4.84-4-4.84-4-5.48,7.16-14.53,8.63-11.59-8.84-11.38-8.21-7.16,12.43-14.95,10.74-1.05-4.42-1.05-4.42-8.21,5.47-10.74,4.63,2.32-7.58,2.32-7.58c-7.79,3.16-11.59,8.85-23.59,8.85s-12-2.95-14.74-6.95.63,1.47-1,6.31-17.48-1.26-22.74-4.21,6.73-3.58,6.73-3.58-13.47-1.26-16,6.11-4.21-.42-11.79-4.42-7.16-9.06-6.74-5.48-13.27,3.37-17.06,0,0-4.84,0-4.84-17.27,1.05-19.79-1.69-5.69-7.16-6.32-7.16a12,12,0,0,0-6.74,2.74c-3.37,2.53-8.42-11.79-8.42-16.42s-1.06.84-5.27,5.26-14.32-4.21-14.32-4.21l4.43-8.42c-6.74.21-14.32-9.48-14.32-9.48-2.11-10.11,5.26-10.32,6.74-20s3.79,8.85,3.79,8.85,17.89-40.19,29.11-44S238.68,163.22,320.81,172,445.86,198.46,427.57,242.15Z"/></clipPath></defs><g class="cls-2"><g id="Layer_1" data-name="Layer 1"><g id="n"><path class="cls-3" d="M471.32,272.39c-8.6-8.84-24.75-18.49-24.75-18.49,9.51,1.33,22.12,6.22,22.12,6.22-11.76-16.4-47.05-22.63-47.05-22.63l14.9-.65-26.27-9.52,18-2.29c-16.08-7.54-44.7-5.58-44.7-5.58l7.06-6.56-38.42,7.88,7.84-7.88-11.37-1c-16.08,9.84-56.33,6.23-56.33,6.23l15.68-11.37-58,11.37c-1.57-4.81,12.55-15.74,12.55-15.74-26.66,1.31-53.32,17.49-53.32,17.49l2.09-14L191,218.14,168,205.9l7.32,12.24s-15.16-.87-37.64,0l2.09,5s-24.57-1.31-48.61,5.68l12,1.1s-34.5,9.84-38.68,20.77h7l-27.7,30.83,22.47-9.19-7.84,14,6.8-2s-5.67,14.15-20,21.88l11.8-.57-.33.36c5.73-3.59,12.06-7,16.86-8.1L60,322.7l11.4,2.58L78.22,317l-4.93,20.62s16-11.08,17.56-11.34l2.77,8.51s-7.7,7.73-7.7,17l7.7,3.2s11.1-20.73,32.67-21.5c0,0-2.78,23.45,0,28.61h4.93l12-15.47,3.39,21.14h10.17l27.4-14.18-10.14,28.61S187,366,196.23,365.49c0,0,16.64,18.56,16.64,26h8.94l14.48-18.3a52.53,52.53,0,0,1,4.63,21.91l8,1.55s15.1-18.3,16-29.13c0,0,9.86,15.73,10.79,23.2l8-.26,1.54-13.14,6.78,8.76,8.93-.26V366.52s14.49,14.69,16,22.17l8.32-1s-2.16-20.62-5.24-28.1c0,0,20.95,12.37,28,22.68l-2.47-18,13.87-1.55,5.24,15.21H370s1.85-13.14,2.46-16.49,13.87.25,15.72,8c0,0,1.85-20.37,8-22.17s16.64,5.67,16.64,5.67L411,332.76l18.49,8.76-4.93-13.92S451.38,316,452.3,316s-6.47-5.93-6.47-5.93l-19.41.26L460,306l-20.64-8.25s17.25-2.32,27.42,3.61l-14.17-15.47,19.72,3.35-13.56-10.82,22.37,5.46Z"/><path class="cls-4" d="M471.07,243.31c-8.82-10.37-25.37-21.68-25.37-21.68,9.76,1.55,22.68,7.29,22.68,7.29-12.06-19.23-48.23-26.53-48.23-26.53l15.27-.77-26.93-11.15L427,187.78c-16.48-8.85-45.81-6.54-45.81-6.54l7.23-7.69L349,182.78l8-9.23L345.4,172.4c-16.48,11.53-57.74,7.3-57.74,7.3l16.07-13.33L244.25,179.7c-1.6-5.64,12.86-18.45,12.86-18.45-27.33,1.53-54.65,20.5-54.65,20.5l2.14-16.4L183.7,179.7l-23.58-14.35,7.51,14.35s-15.54-1-38.59,0l2.15,5.9s-25.19-1.54-49.84,6.66l12.33,1.28S58.31,205.08,54,217.9h7.24L32.86,254l23-10.77-8,16.41,7-2.31S40,281.15,25.31,290.22l21.11-7.86-.34.42c5.87-4.21,12.37-8.23,17.29-9.5l-13.9,29,11.69,3,7-9.67-5,24.18s16.42-13,18-13.3l2.84,10S76,325.56,76,336.44l7.89,3.76S95.27,315.89,117.39,315c0,0-2.85,27.51,0,33.55h5l12.32-18.13,3.47,24.78h10.43l28.08-16.62L166.35,372.1s13.26-19,22.74-19.64c0,0,17.06,21.76,17.06,30.52h9.16l14.84-21.46a68.67,68.67,0,0,1,4.74,25.69L243.1,389s15.48-21.45,16.43-34.14c0,0,10.11,18.43,11.05,27.19l8.22-.3,1.57-15.41,6.95,10.27,9.16-.3V353.67s14.85,17.22,16.43,26l8.53-1.21s-2.21-24.18-5.37-32.94c0,0,21.48,14.5,28.74,26.59L342.29,351l14.21-1.82L361.87,367h5.37s1.89-15.41,2.53-19.34,14.21.3,16.11,9.37c0,0,1.89-23.87,8.21-26s17.06,6.65,17.06,6.65l-1.9-23.57,18.95,10.27L423.15,308s27.48-13.6,28.43-13.6-6.64-6.95-6.64-6.95l-19.9.31,34.43-5.14L438.31,273s17.69-2.72,28.11,4.23l-14.53-18.13L472.11,263l-13.9-12.7,22.93,6.41Z"/><path class="cls-5" d="M101.1,288.3s6.33-6.53,21.91-1.86c0,0-12.11-7.52-13.87-5.33,0,0,3.32-4.28,18.86,3.68,0,0-13.2-8.22-20.59-8.05,0,0,5-2.24,12.81,1.81L107,272.89s8.18.54,18.72,7.75a67.4,67.4,0,0,0-16.47-10.55s5.53,1,13.09,5.79c0,0-6.23-5.38-11-7.05,0,0,2.71.26,10.13,5a113.73,113.73,0,0,0-10.28-7.39s6.17,2.08,14.31,9.52c0,0-11.91-13.31-12.46-16.1,0,0,9.83,4.52,15,8.67s-9.81-13.73-9.81-13.73l18,7.29-18.67-19.67L139.36,251l-12-9.6,17,4.95-12.63-11.61,19.45,8.54-19.69-14.61-6-2.64s5.61-1.32,13.31,3.93c0,0-7.95-6.37-10.9-6.93,0,0,2.31-.52,7.08,2.26,0,0,4,3.06,6,4.8A38.58,38.58,0,0,0,124,219s1.89-1.89,9.37,3.17L126,215.37s9.71,6.84,12,9.63-3.42-6.58-8.26-9.05c0,0,5.3,2.36,7.82,5.36s-.95-4.71-8.09-9c0,0,6.53,2.48,9.5,6.56,0,0-.39-5-6.42-9.84a73.09,73.09,0,0,1,9.17,7.35s-.61-4.61-7.62-9.29c0,0,11.41,5.28,15.1,8.47l-2-3.22L137,203.49l21.28,15.62.66-4.73-6.8-9.09L137,178.11s.55,16,7.34,21.72c0,0-11.31-8-14-13.42,0,0,.86,6.16,8.55,11.72l-6,.61s-10-8.63-10.18-11.12c0,0,2.63,9.16,8.53,13.58l-5.69,5.15s.59-11.33-4.47-16.69c0,0-4.79,13.67,2.5,19.2l-12.41-12.35a39.71,39.71,0,0,0,11.17,13.85s-11.68-6.8-15-7.3c0,0,10.31,8.4,13.09,9.68,0,0-12.85-6.88-13.66-2.66,0,0,7.37,5.38,11.49,7.31l-12.49-1.21s8.54,3.93,13.54,9.4l-14.7-7,9.79,10.18-13.76-10.32s4.7,8.82,11.21,13.51c0,0-15.57-3.71-16.2-2.2s13.46,8,13.46,8l-11.57-3.52s.84,4.1,6.88,7L97.77,241l13.3,10.29s-13.79-9.43-16.9-4.71c0,0,9.58,5.28,14.82,7.31l-11-3.46,8.67,6.43s-15.32-6.33-17.28-10.72c0,0,4.72,9.89,10.67,13.1l-8.31-1,12.79,6.27S85.44,259.9,84,260s3.86-.33-1.4.15,19.47,7.39,19.47,7.39l-15.65-1.05,13.46,7.19-18-1.56,19.6,6.62Z"/><path class="cls-6" d="M114.23,241.93s7.58,9.69,14.32,9.48l-4.43,8.42s10.11,8.63,14.32,4.21,5.27-9.9,5.27-5.26,5,19,8.42,16.42a12,12,0,0,1,6.74-2.74c.63,0,3.79,4.43,6.32,7.16S185,281.31,185,281.31s-3.79,1.47,0,4.84,17.48,3.58,17.06,0-.84,1.48,6.74,5.48,9.26,11.79,11.79,4.42,16-6.11,16-6.11-12,.63-6.73,3.58,21,9.06,22.74,4.21-1.69-10.32,1-6.31,2.74,6.95,14.74,6.95,15.8-5.69,23.59-8.85c0,0-4.85,6.74-2.32,7.58s10.74-4.63,10.74-4.63-6.74,2.74,1.05,4.42,15.16-10.11,14.95-10.74,2.32,9.69,11.38,8.21,14.53-8.63,14.53-8.63-1.9,4.42,4.84,4,17.06-9.05,17.06-9.05,6.31,4.84,11.16,2.73,6.53-10.53,6.95-11.37-.64-.84,1.89.84,5.27,4.22,5.9,2.11,0-10.95.84-8,7.16,6.74,7.79,6.11,12.85-6.32,15.58-8.64,9.06-5,11.8-6.95a24,24,0,0,0,5-5.26s-12.42-5.69-19.79-5.69-12.22,5.69-6.11-4.63,3.37-5.69.42-4.42-6.11,10.1-5.26-.85.84-10.1-1.69-8.42-3.58,2.53-4.21-5.47-1.68-5.27-5.48-1.48,2.53,8.43-11.58,4.21-10.95-2.31-16.63-4.42-9.06-7.37-9.06-8.63-9.26,15.37-11.79,2.31-2.11-18.53-3.37-15.16-.42,5.48-4.63,8-5.9-9.26-8.43-2.73-1.05,12.21-3.58,4-4.21-15.58-6.1-8.64-9.69-1.89-13.9,3.37-7.16-6.13-7.16-6.13,1.47-3.19-3.58,0-3.16,1-7.16,0-2.11-4.87-9.37,0-13.37.87-14-2.5,3.77-9.06-3,0S223.94,219.82,225,208.45s.21-11.8-2.1-5.9-6.32,10.32-9.27,3.58-3-1.47-8.42,2.53-1.48-3.16-10.74,3.16-10.53,13.05-11.16,6.31.21-12-5.27-6.1-6.95-1.48-9.05-4.64-.42.85-5.9,6.11-12.84,14.95-14.74,6.53,4.84-9.9-3.58-2.53-12.21-20-13.48-6.95-6.52,20.22-6.52,20.22-2.32-18.53-3.79-8.85S112.12,231.82,114.23,241.93Z"/><g class="cls-7"><path class="cls-8" d="M217.66,371.5c-.66.05-1.68-3.43-1.6-9.23a59.57,59.57,0,0,1,5-21.93,76.32,76.32,0,0,1,11.74-19c3.7-4.35,6.48-6.58,7-6.14s-1.2,3.49-4,8.25a155.41,155.41,0,0,0-10,18.93,95.35,95.35,0,0,0-6.09,20.27C218.71,368,218.42,371.45,217.66,371.5Z"/><path class="cls-8" d="M207.77,333.06c-.65-.28-.66-1.95-.1-4.45a39.61,39.61,0,0,1,3.53-9.35,36.67,36.67,0,0,1,3-4.74,24.67,24.67,0,0,1,3.07-3.45c2-1.79,3.56-2.48,4.06-2s-.07,2-1.16,4.21c-.55,1.09-1.21,2.37-1.95,3.77l-2.41,4.59c-1.71,3.28-3.34,6.29-4.74,8.39S208.43,333.33,207.77,333.06Z"/><path class="cls-8" d="M146.2,359.88c-.63-.29.86-5.12,4.28-12.5,1.71-3.69,3.91-8,6.58-12.69a151.23,151.23,0,0,1,9.51-14.78c1.86-2.53,3.79-4.93,5.76-7.16s4-4.27,6-6.13a63.49,63.49,0,0,1,11.84-8.53A69.66,69.66,0,0,1,199,294c2.14-.8,3.4-1.08,3.57-.77s-.78,1.2-2.62,2.53-4.57,3.12-7.8,5.42a83.53,83.53,0,0,0-10.51,8.89c-1.82,1.84-3.67,3.84-5.5,6s-3.64,4.47-5.43,6.9c-3.59,4.86-6.75,9.72-9.6,14.18s-5.34,8.53-7.43,12C149.51,355.94,146.86,360.2,146.2,359.88Z"/><path class="cls-8" d="M190.76,316.6c-.69-.14-1.08-1.63-.94-4a28.8,28.8,0,0,1,7-16.41c1.61-1.71,3-2.47,3.54-2.06s.31,1.88-.43,4-1.9,4.79-3.18,7.77-2.44,5.69-3.44,7.66S191.47,316.73,190.76,316.6Z"/><path class="cls-8" d="M240.64,379.28c-.62-.36.94-4.34,3.89-10.51s7.26-14.54,11.68-23.87c2.19-4.68,4.17-9.16,5.89-13.28.83-2.07,1.67-4,2.35-5.88.36-.92.72-1.81,1-2.67l.92-2.49c2.32-6.35,3.66-10.38,4.41-10.24.35.07.45,1.17.34,3.12q0,.74-.12,1.62c-.07.59-.17,1.22-.27,1.91-.22,1.36-.45,2.92-.86,4.6-.2.85-.4,1.73-.62,2.66s-.5,1.86-.78,2.84c-.53,2-1.23,4-2,6.22-1.53,4.32-3.43,9-5.67,13.77a199.21,199.21,0,0,1-13.17,23.47C243.93,376.29,241.26,379.63,240.64,379.28Z"/><path class="cls-8" d="M303.17,346.1c-1.39.42-4.6-6.31-8.61-14.41s-7.34-14.76-6.16-15.61c.58-.39,2.21.79,4.25,3.15a53.6,53.6,0,0,1,10.62,21.6C303.9,343.88,303.84,345.89,303.17,346.1Z"/><path class="cls-8" d="M364.58,358.52c-.74.1-1.71-3.19-4.2-8-1.23-2.43-2.83-5.29-4.66-8.49s-3.83-6.67-6.06-10.21a109.24,109.24,0,0,0-12.92-17c-3.74-4-6.42-6.22-6-6.87s3.81.63,8.45,4.17S349.37,321.6,354,329a106.41,106.41,0,0,1,5.92,10.77,69,69,0,0,1,3.82,9.32,26.64,26.64,0,0,1,1.33,6.77C365.15,357.55,364.92,358.47,364.58,358.52Z"/><path class="cls-8" d="M384.38,339.81c-1.47-.06-2-9.35-5.53-19.93q-.64-2-1.35-3.84c-.45-1.24-.92-2.4-1.4-3.48a36.46,36.46,0,0,0-2.91-5.48c-1.9-2.93-3.73-4.38-3.39-5.05q.12-.24.63-.24a4,4,0,0,1,1.35.26,12.41,12.41,0,0,1,4.17,2.66,23.59,23.59,0,0,1,4.4,5.71,39.19,39.19,0,0,1,1.84,3.73c.57,1.31,1.1,2.69,1.57,4.13A44.36,44.36,0,0,1,386,333.51C385.86,337.47,385.07,339.84,384.38,339.81Z"/><path class="cls-8" d="M386.4,311.3c-.49.52-1.68.25-3.21-.48s-3.39-1.92-5.37-3.12-3.75-2.17-5.12-3-2.31-1.44-2.28-2.16,1.17-1.34,3.11-1.38a13.5,13.5,0,0,1,7,2.11,16.35,16.35,0,0,1,5.11,4.79C386.6,309.6,386.89,310.79,386.4,311.3Z"/><path class="cls-8" d="M450.21,289.06c-.25.74-3.49.12-8.65-.14-2.58-.16-5.64-.23-9.06-.11s-7.17.41-11.13.83-7.76.92-11.24,1.33-6.54.79-9.1,1.2c-5.12.77-8.24,1.7-8.57,1-.15-.31.44-1,1.75-1.84a27.57,27.57,0,0,1,5.93-2.73,70.76,70.76,0,0,1,9.24-2.34c3.47-.68,7.33-1.34,11.44-1.78a81.6,81.6,0,0,1,11.71-.45,51,51,0,0,1,9.57,1.25c1.34.29,2.53.7,3.57,1s1.9.75,2.59,1.1C449.63,288.17,450.32,288.72,450.21,289.06Z"/><path class="cls-8" d="M419.58,276.15c.48,1.37-5.4,4.62-12.53,8.53s-13.09,7-14,5.88c-.43-.56.54-2.11,2.58-4.07a46.17,46.17,0,0,1,19.1-10.38C417.5,275.46,419.34,275.49,419.58,276.15Z"/><path class="cls-8" d="M117.05,307.61c-.44-.54.81-2.42,3.43-4.84a44.61,44.61,0,0,1,4.93-3.84,56.94,56.94,0,0,1,6.64-3.79,54.91,54.91,0,0,1,7.12-2.82,42.76,42.76,0,0,1,6.08-1.46c3.53-.55,5.79-.34,5.94.33s-1.79,1.76-4.9,3.16l-5.44,2.4c-2,.91-4.25,1.91-6.55,3s-4.47,2.22-6.45,3.23l-5.27,2.75C119.55,307.31,117.51,308.17,117.05,307.61Z"/><path class="cls-8" d="M127.86,337.26c-.69-.09-1-2.95-.8-7.55a62.6,62.6,0,0,1,.95-8.09,53.13,53.13,0,0,1,2.74-9.75,39.76,39.76,0,0,1,4.95-9,30.29,30.29,0,0,1,5.89-6.07,18.5,18.5,0,0,1,4.95-2.81c1.28-.44,2.08-.46,2.24-.16.36.68-1.89,2.38-4.71,5.63a45.48,45.48,0,0,0-4.43,6.06,53.74,53.74,0,0,0-4.09,8.25,143.57,143.57,0,0,0-4.89,16.51C129.53,334.63,128.58,337.35,127.86,337.26Z"/><path class="cls-8" d="M79.6,308c-.31-.17-.18-1.06.34-2.54.12-.38.28-.78.45-1.23s.43-.89.67-1.39a33.91,33.91,0,0,1,1.84-3.28l1.19-1.85c.42-.63.92-1.25,1.41-1.91,1-1.34,2.15-2.65,3.38-4a59.19,59.19,0,0,1,19.6-13.9c1.72-.7,3.35-1.39,4.93-1.86.79-.24,1.54-.51,2.28-.7l2.14-.52a35.77,35.77,0,0,1,3.72-.65c.55-.07,1.06-.14,1.54-.17l1.31,0c1.57,0,2.45.17,2.51.52s-.7.84-2.11,1.44l-1.17.46-1.37.57c-1,.41-2.12.79-3.33,1.33l-1.92.8c-.67.27-1.34.61-2,.93-1.42.6-2.88,1.39-4.43,2.15A95.84,95.84,0,0,0,101,288a94.15,94.15,0,0,0-8.69,7.1c-1.24,1.21-2.46,2.32-3.5,3.46-.53.56-1.07,1.08-1.55,1.62l-1.38,1.54c-.92,1-1.65,1.91-2.36,2.7l-1,1.11c-.29.35-.56.67-.82.95C80.64,307.62,79.92,308.18,79.6,308Z"/><path class="cls-8" d="M100.58,275.67c-.4-.56.52-2.07,2.84-3.51a19.77,19.77,0,0,1,10-2.64,26,26,0,0,1,9.94,1.88c2.36,1,3.66,2,3.47,2.72s-1.81.89-4.25.84-5.66-.33-9.11-.3a50.31,50.31,0,0,0-8.73.87C102.53,275.93,101,276.28,100.58,275.67Z"/><path class="cls-8" d="M66.11,294.16c-.6-.32.52-3.87,3.36-9.11l1.15-2c.41-.7.87-1.41,1.33-2.15.91-1.5,2-3,3.13-4.65a105.54,105.54,0,0,1,8.17-9.9,106.62,106.62,0,0,1,9.39-8.77c1.54-1.23,3-2.4,4.45-3.41.71-.5,1.39-1,2.07-1.46l2-1.27c5.06-3.17,8.54-4.51,8.9-3.93.8,1.28-11,9.53-23,22.36S67.44,294.88,66.11,294.16Z"/><path class="cls-8" d="M59.34,266c-.06-.76,2.44-1.41,6-3.16a46.64,46.64,0,0,0,6-3.49A70.46,70.46,0,0,0,78,254c2.3-2,4.46-4.1,6.49-6s3.87-3.45,5.29-4.84,2.47-2.56,3.24-3.41,1.28-1.33,1.62-1.21.45.86.17,2.11a15.09,15.09,0,0,1-2.2,4.8,49.33,49.33,0,0,1-4.73,5.88,83.67,83.67,0,0,1-6.46,6.48,42.84,42.84,0,0,1-7.62,5.5,28.4,28.4,0,0,1-7.23,2.9,16.64,16.64,0,0,1-5.25.5C60,266.62,59.36,266.29,59.34,266Z"/><path class="cls-8" d="M71.41,243.39c-.44-.52,1.65-3.22,5.71-6.88,1-.91,2.15-1.89,3.41-2.89s2.62-2,4.08-3.11A109.49,109.49,0,0,1,105.05,219c1.67-.7,3.25-1.36,4.77-1.9s2.93-1,4.24-1.43c5.23-1.6,8.63-2,8.85-1.36.46,1.42-11.81,6.39-25.85,14.39S72.4,244.51,71.41,243.39Z"/><path class="cls-8" d="M86.6,207.52c-.19-.45,2.81-2.25,8.14-4.05l2.1-.67c.73-.22,1.51-.41,2.3-.62,1.6-.45,3.32-.79,5.14-1.16a106.6,106.6,0,0,1,12-1.51,148.61,148.61,0,0,1,21.71.2c5.53.47,8.92,1.07,8.9,1.59s-3.44.9-9,1.14-13.1.36-21.4.92c-4.14.29-8.07.7-11.63,1.16-1.78.27-3.47.48-5,.78-.79.14-1.55.25-2.28.39l-2.09.42C90.11,207.18,86.81,208.06,86.6,207.52Z"/><path class="cls-8" d="M58.62,234.55c-.3-.65.77-1.83,2.63-3.32s4.5-3.3,7.44-5.24,5.65-3.67,7.74-4.81,3.6-1.65,4.09-1.12-.18,2-1.76,3.92a36.26,36.26,0,0,1-15.83,10.48C60.55,235.16,58.92,235.19,58.62,234.55Z"/><path class="cls-8" d="M177.76,194.08c-.39.4-1.8-.42-4.26-.88a40.85,40.85,0,0,0-4.47-.58l-5.74-.52c-8.13-.75-14.82-1.16-14.89-2.25,0-.52,1.65-1.11,4.41-1.47a50,50,0,0,1,10.83-.12,56.39,56.39,0,0,1,5.91.84,19.84,19.84,0,0,1,4.86,1.53,8.65,8.65,0,0,1,2.86,2.1C177.81,193.39,177.94,193.89,177.76,194.08Z"/><path class="cls-8" d="M209.89,202.37c-.49-.13-.46-2.32.45-5.68a27.07,27.07,0,0,1,.87-2.71c.33-1,.77-2,1.24-3a44.8,44.8,0,0,1,8.46-12.35c.82-.81,1.59-1.59,2.38-2.25s1.52-1.27,2.22-1.79c2.81-2.07,4.85-2.89,5.14-2.48.67.91-5.7,6.24-11.3,14.52S211,202.65,209.89,202.37Z"/><path class="cls-8" d="M240.74,180.85c1,.52-.8,5.44-2.89,11.41S234,203.15,232.94,203c-.51-.1-.76-1.5-.6-3.69A36,36,0,0,1,238,183.34C239.21,181.54,240.28,180.6,240.74,180.85Z"/><path class="cls-8" d="M287.29,172.84c.56.95-5.44,5.41-12.36,11.36s-12.3,11.13-13.16,10.43c-.4-.33.44-2.1,2.29-4.6a59.19,59.19,0,0,1,18.31-15.64C285.13,173,287,172.39,287.29,172.84Z"/><path class="cls-8" d="M278.47,187.05c.38,1-3,3.18-7.44,4.88s-8.44,2.27-8.82,1.27,3-3.18,7.44-4.88S278.09,186.06,278.47,187.05Z"/><path class="cls-8" d="M347.16,176.51c.54.9-8.56,7.29-20.83,13.33s-22.86,9.42-23.25,8.45,9.43-5.91,21.54-11.9S346.6,175.58,347.16,176.51Z"/><path class="cls-8" d="M344.86,197.09c-.21-.45,2.53-2.29,7.41-4.33l1.93-.77c.68-.26,1.39-.49,2.12-.75,1.47-.53,3.06-1,4.74-1.48a107.37,107.37,0,0,1,11.1-2.39,129.28,129.28,0,0,1,20.46-1.59c5.24,0,8.48.42,8.5.94s-3.18,1.12-8.33,1.78-12.26,1.44-20,2.67c-3.88.63-7.54,1.34-10.86,2-1.65.39-3.23.71-4.69,1.1-.73.18-1.45.34-2.12.52l-1.95.52C348.19,196.67,345.09,197.61,344.86,197.09Z"/><path class="cls-8" d="M425.9,202.06c-.14.53-3.62.07-9.25.32-2.81.1-6.2.34-10,.59s-7.89.56-12.22.95c-17.3,1.52-31.25,3.94-31.49,2.86-.12-.5,3.25-1.77,8.86-3.14a156.75,156.75,0,0,1,22.28-3.56c4.4-.4,8.6-.6,12.42-.66s7.25,0,10.18.23a33.32,33.32,0,0,1,6.85,1.19C425.15,201.33,426,201.81,425.9,202.06Z"/><path class="cls-8" d="M401.14,211.35c-.28,1.06-8.61-.33-18.88-1.41s-18.7-1.56-18.75-2.65c0-.52,2.1-1.1,5.58-1.42a75.22,75.22,0,0,1,26.91,2.9C399.33,209.83,401.27,210.84,401.14,211.35Z"/><path class="cls-8" d="M462.2,249.48c-.93,1.14-11.64-6.18-25.16-14.54s-24.81-14.76-24.2-16.09c.3-.63,3.55.15,8.48,2.16a134.28,134.28,0,0,1,35.19,21.84C460.5,246.38,462.63,248.94,462.2,249.48Z"/></g><path class="cls-9" d="M112.57,230.77s19.27.75,32.29,14c0,0-3.65-12.48-9.64-12.48,0,0,11.54-.08,19,15,0,0-3.91-13.62-14.06-18.61,0,0,10.41,2.22,14.06,9.81l-8.17-12.2s10,5.93,12.08,17.15a26.63,26.63,0,0,0-4.43-17.15,24.32,24.32,0,0,1,7.81,12.2s.65-7.25-2.86-11.42c0,0,3.18,2,5.2,9.72a41.73,41.73,0,0,0-1.43-11.15s4.78,5.4,3.26,15.1c0,0,6.26-15.53,10.15-17.46,0,0,5.6,9.26,5.6,15.12s9.76-14.32,9.76-14.32l11.85,16.4,7.81-23.69,14.71,19.66V223L240,237.41l2.47-15.1,11.72,18.09-2-21.61-3.65-5.59s9.67,3.13,11.2,11.32c0,0,0-9-3-11.32a10,10,0,0,1,5.67,6.11s.21,4.43,0,6.77c0,0,4.49-9-4.3-17.83,0,0,5.66.26,7.22,8.2l1.57-8.77s1.56,10.46,0,13.59,6.37-6,4-10.68c0,0,3.13,4.95,1.5,8.33s6.57-3.25,4.23-10.54c0,0,4.58,5.86,1.77,10.15,0,0,7.8-3,7.8-9.84a27,27,0,0,1,0,10.36s6.83-3,5.27-10.36c0,0,6.44,10.75,6.05,15.05l2.74-3.12,1-11.93,2.4,23.25,8.73-2.15,6.06-9.69,25-25.4s-25.77,9.18-26.3,17c0,0-1.82-12.18,3.65-17,0,0-9.09,4-8.07,12.35l-9.08-3.83s1-11.64,4.91-13.13c0,0-11.71,6.86-11.19,13.35l-16.14-1.07s19.61-5.84,21.78-12.28c0,0-29.11,4.25-28.57,12.31l4-15.35s-8.79,7.1-8.13,15.32c0,0-4.27-11.78-7.86-14.34,0,0-.2,11.72,1.36,14.34,0,0-5.69-12.63-13.78-10.86,0,0,.88,8,3.17,11.93l-14.64-9.26s4.84,8,2.42,14.51l-7.91-14-3.89,12.35L228,191.89s-8.39,8.1-7.51,15.16c0,0-14.58-12.76-17.92-12.35s4.66,13.66,4.66,13.66l-9.56-9.91s-5.7,2.84-2.46,8.6l-8.48-4.68.62,14.83s-2.7-14.69-14.67-14.23c0,0,4,9.5,7.58,14.23l-9-9.52.86,9.52s-9.89-14-5.2-17.81c0,0-10.16,8.71-7.55,14.58l-9.38-6.29L156.68,220s-17.8-15.62-19.89-16.51,5.69,2.47-2.1-.88S148.34,220,148.34,220l-19.1-11.34,6,13.23-21.37-13.23L129,225.82Z"/><g class="cls-10"><path class="cls-11" d="M373,203.66s-45.87-20.47-89.32,44.69c-38.71,58.06,33.21,81.51,33.21,81.51s44.42,17.39,67.51-43.64S378.68,206,373,203.66Z"/><path class="cls-12" d="M384.37,286.22C392,266.08,394,250.5,393,238.58c-.51,10.34-3,22.86-8.74,37.93-23.09,61-67.52,43.64-67.52,43.64s-40-13-44.28-43.79c-4,37.72,44.42,53.5,44.42,53.5S361.28,347.25,384.37,286.22Z"/><path class="cls-13" d="M364.45,274.39C347.12,296.6,319.62,304.1,303,291.14s-16-41.46,1.3-63.67,44.83-29.7,61.44-16.74S381.77,252.19,364.45,274.39Z"/><path class="cls-12" d="M354.88,302.47c-1.9,5.32-5.54,8.89-8.14,8s-3.18-6-1.29-11.32,5.54-8.9,8.14-8S356.77,297.14,354.88,302.47Z"/><path class="cls-12" d="M333.72,259.58c-2.58,4.09-6.83,6.05-9.5,4.36s-2.72-6.36-.14-10.45,6.84-6,9.5-4.36S336.31,255.49,333.72,259.58Z"/><path class="cls-12" d="M379.43,255.39c-1.41,4-4.66,6.44-7.27,5.52S368.6,256,370,252s4.66-6.44,7.27-5.52S380.84,251.42,379.43,255.39Z"/><path class="cls-12" d="M310.21,299.86c-1.12,3.16-3.71,5.12-5.78,4.39s-2.84-3.89-1.71-7.05,3.71-5.12,5.78-4.38S311.33,296.71,310.21,299.86Z"/><path class="cls-12" d="M296.49,258.25c-2.12,2.39-5.12,3.21-6.69,1.81s-1.12-4.46,1-6.86,5.12-3.2,6.69-1.81S298.61,255.85,296.49,258.25Z"/><path class="cls-12" d="M341,208.68c-2.87,1.42-5.59,1.77-6.07.78s1.45-2.92,4.33-4.33,5.59-1.76,6.07-.78S343.85,207.27,341,208.68Z"/><path class="cls-11" d="M211.37,196S157,207.17,160.05,293.66c2.72,77.08,82.38,51.72,82.38,51.72s51.08-13.05,32.42-82.71S218,194.39,211.37,196Z"/><path class="cls-12" d="M274.85,262.67c-6.16-23-14.44-38.24-23-48.3,6.22,9.61,12,22.47,16.63,39.67C287.12,323.7,236,336.76,236,336.76s-44.33,14.11-68-10.72c20.77,36.4,74.37,19.34,74.37,19.34S293.51,332.33,274.85,262.67Z"/><path class="cls-13" d="M249.35,264.91c-1.22,31.1-21.07,55.58-44.33,54.66s-41.12-26.86-39.9-58,21.06-55.58,44.32-54.67S250.57,233.81,249.35,264.91Z"/><path class="cls-12" d="M258.87,296.27c1.73,6,.77,11.56-2.17,12.41s-6.71-3.33-8.45-9.33-.77-11.55,2.16-12.4S257.13,290.27,258.87,296.27Z"/><path class="cls-12" d="M212.22,271.44c.32,5.34-2.23,9.84-5.71,10s-6.55-4-6.87-9.28,2.23-9.84,5.71-10S211.9,266.1,212.22,271.44Z"/><path class="cls-12" d="M250.53,238.19c1.3,4.48,0,8.79-3,9.64s-6.36-2.09-7.66-6.56,0-8.79,3-9.64S249.24,233.72,250.53,238.19Z"/><path class="cls-12" d="M217.11,322.76c1,3.55,0,7-2.36,7.66s-5.05-1.66-6.08-5.22,0-7,2.36-7.66S216.08,319.2,217.11,322.76Z"/><path class="cls-12" d="M178,294.27c-.36,3.51-2.52,6.18-4.83,5.94s-3.88-3.28-3.52-6.8,2.52-6.18,4.83-5.94S178.31,290.75,178,294.27Z"/><path class="cls-12" d="M185.9,221.09c-1.67,3.12-3.88,5.19-5,4.62s-.58-3.56,1.09-6.68,3.88-5.19,5-4.62S187.57,218,185.9,221.09Z"/></g><path class="cls-14" d="M173,348.91l-24.15,10.92h-8.39l-3.9-28.93-13.61,22h-3.58s-1-30.76,3.58-35.06c0,0-30.92-.13-39.51,25.32l-4-1.5s2-12.85,10.22-20.87l-7-10.71L67.4,320.6l3.95-23.05-10.2,8.58-7-1.06L67.4,275.28s-11.06,1.87-24.6,10.56l18.74-27.73-7.81,1.95,5.6-17-13.8,6.13L66,219.3l-4.41-1.22S82,200.71,100.49,196.61l-5.55-3.56a148.53,148.53,0,0,1,43-3.58L134.08,183,173,181.65l-4.81-6,16.4,7.33,16.15-11-2.09,13.13s37.88-20.73,49.6-19.17c0,0-8.17,10.61-7.21,19.17l57.35-13.85,5.37-4.66-59.48,13.94s-.11-4.85,12.86-19.29c0,0-21.53-1.67-54.65,21.43l2.14-17.15-20.9,15-23.58-15,7.51,15H129l2.15,6.16s-27.29-2.41-49.84,7L93.68,195S58.31,205.13,54,220.46h7.24l-28.4,37.78L55.9,247l-8,17.15,7-2.41s-15,23.45-29.52,34.33c0,0,27.39-11.13,38.06-17.7l-13.9,30.32,11.69,3.16,6.6-8.35L63.06,327l18-13.9,2.84,10.43A30.48,30.48,0,0,0,76,344.37l7.89,3.92s12.59-26,33.49-26.35c0,0-2.74,26,0,35.06h5l12.32-18.95,3.47,25.9h10.43Z"/><path class="cls-15" d="M49.48,240.53s13.82-13.48,26.19-12.4c0,0-18.08,10.78-18.22,15.08,0,0,19.56-13.29,37.87-11.81,0,0-40.15,15.1-40.15,24.86l31.82-18s-13,14.93-28.7,21.08L90.47,247s-22.12,17.89-30.42,22.18L87,259.08S72.63,275.5,57.07,280.23l31.11-12.6s-5.34,8.58-23.92,17.84l29.68-8.4L75.28,293.82l9.47-4.39-7.3,10.63s16.06-18.61,24.6-17.44c0,0-7.87,15.68-17.12,22.92,0,0,14.44-13.1,22.52-10.92,0,0-6.84,14.16-11.34,20.24,0,0,22.19-21.7,33.14-19,0,0-9.55,24.52-14.11,28.86l14.11-14.87-3.53,18.59,14.37-26.54,2.83,29.32,5.24-14.89s4.18,2.66,2.28,13c0,0,8.9-20,13.66-20.72s0,24.85,0,24.85,5.7-10.55,9.11-10.89S177,335.17,177,335.17l11.75-20.25.39,29,13.28-21.36,4.25,22.62,4.53-12.61s6.4,9.18-1.95,19.53l22.07-23.08,8.44,25.45h7.06l6-24.86s10.39,16.57,5.63,28.71c0,0,5.88-22.42,6.44-24.23s10.16,9.14,7.64,19.79l4-14.5,7.1,13.31s-4.18-17.45,0-21.89,9.11,21.3,9.11,21.3l2.28-15.09a17.09,17.09,0,0,1,5.31,12.82s4.22-12.76,4-21.7,11.6,21.7,11.6,21.7-.76-17.34,6.83-25.14,4.94,22.38,4.94,22.38,10.24-21.81,25.05-24.51c0,0-10,11.4-9,21.36,0,0,10-20.73,26-21.36,0,0-17.42,13.47-12.11,21.36l17.08-7.21L372.27,327s9.62,7,9.08,17c0,0,8.17,0,0-21.36,0,0,11.13,2.69,11.74,11.53,0,0-.91-22.83,8.2-22.23l3.32,19.23a32.31,32.31,0,0,0,3.13-26.93s15.16,3.09,15.93,15.75c0,0-3.47-20,5.1-18.47L435,313.32s3.12-16.91-7.88-22.19c0,0,14.8,3.6,15.94,16.33a19.24,19.24,0,0,0-4.18-16.33s11.39,4.21,10.63,14.41c0,0,6.45-13.23-12.14-24.3,0,0,19,5,21.65,15.3,0,0,3.62-14.09-21.27-19.47,0,0,22.94-8.18,25.32-.58,0,0-3.69-9.56-17.35-7.35,0,0,15.18-9.32,20.11,0,0,0-7.39-3.71-3.6-12.33S469.13,270,469.13,270s5.06-10.81,10.38-11.1l-7.22,18.74s15.94-4.07,19.36-.6c0,0-14.42.92-18.22,8.4,0,0,6.45-2.79,14.8,3.68l-17.07.28a28.19,28.19,0,0,1,15.18,11.8l-18.22-5.55s14.8,5,17.84,14.18c0,0-12.53-7.85-19.36-7.49,0,0,14.8.74,12.91,20.23,0,0-9.84-13.6-20.48-12.74,0,0,12.5,12.17,9.47,24.27L452.56,320s6.86,5.86,6.47,20.06c0,0-8.75-18.64-15.2-18.64,0,0,14.8,17.75,5.31,35.51,0,0-6.64-20.41-14.13-18.64,0,0,8.06,10.25,2,24.8,0,0-6.1-17.11-13.3-17.41L426.37,372,411,349.87s10.08,15,4,28.91c0,0-14.41-11.54-15.36-17.46l-8.44,3.73s-3.89,6.62,8.44,13.73c0,0-15.32,2.36-22.56-9.18a23.4,23.4,0,0,1,0,16.57l-10.28-14.79v11.24l-10.25-10.95s4.18,12.14-1.14,18.65a17.83,17.83,0,0,0-10.46-11.84l-7-5s10.57,6.81,7,16.87c0,0-15-6.51-16.48-13.91,0,0-7.28,8.58-2.69,17.46,0,0-12.88-14.21-12.88-16.57,0,0-3.79,6.21-.75,10.65,0,0-8.78-.59-7.81-14.2,0,0-8.89,10.95-2.82,18.64,0,0-12.8-2.66-12.48-13.61,0,0-5.36,6.21-4.22,16.57l-12.28,4.44s7.34-13.32-4-22.2c0,0-11.39,15.1-1.14,22.2,0,0-15.78-2.67-14.53-18.94,0,0-7.11,11.24-2.55,18.94l-10.48,2.36,4.23-21.3-12.67,19.83L229,382.33l-4,13.61-2.87-17.16-4,18.94s-18.57-10.36-11.44-26.93c0,0-7.67,13-4.25,20.12,0,0-9.87-.59-9.87-21.6,0,0-7.21,11.24-3,16.86l-10.32-18.93s-2.37,18.64,3.4,22.78c0,0-14.26-3.49-14.3-25,0,0-7.62,5.74-5,12.54,0,0-10.24-4.73-2.27-20.42,0,0-9.18,10.95-7.06,21.9l-4.33-24.86-1.9,18.94-4,3.85-6.28-31.66,2.56,28.41L125,375.23,131.08,344l-10.8,28.31L107.45,363l9.31-17.41-16.42,19.42s-4.82-15.27,3.85-19.71c0,0-15.62-1.48-14.1,15.38,0,0-8.4-10.41,1.14-19.82,0,0-14.33.59-12.1,11.24l-7.26-2.27,9.49-20.81L69.6,344l-8.35,1.67,11-24.26L61.63,338.24l5.08-23.13S50,329.65,52.38,339.42c0,0-11.14-15.47,0-24.31,0,0-12.39-1.73-12.77,11.58s0-2,0-2-9.11-14.61,8.35-17c0,0-10.63-6.62-15.56,5.57,0,0-5.31-16.15,9.11-18.7,0,0-14.42-4.38-14.8,3.93,0,0-4.56-12.4,11.76-11.81,0,0-16.32.8-21.25-9.07a99.12,99.12,0,0,0,22,3.57s-26.57-6.63-24.29-24.09l19.45,15.68L17.6,253.91,34.39,264.6,38.47,237,41.13,247Z"/></g></g></g></svg>