<svg id="Layer_1" data-name="Layer 1" xmlns="http://www.w3.org/2000/svg" viewBox="0 0 512 512"><defs><style>.cls-1{fill:#5e5f5e;}.cls-2{fill:#4f4f4f;}.cls-3{fill:#6b6b6b;}.cls-4{fill:#5c7032;}.cls-5{fill:#481715;}.cls-6{fill:#221f1f;}.cls-7{fill:#596e32;}.cls-8{fill:#9ec63b;}.cls-9{fill:#491717;}.cls-10{fill:#f48d8d;}.cls-11,.cls-14{fill:#fff;}.cls-11,.cls-15,.cls-26,.cls-28{stroke:#221f1f;}.cls-11,.cls-15,.cls-26,.cls-27,.cls-28{stroke-miterlimit:10;}.cls-11,.cls-28{stroke-width:0.2px;}.cls-12{fill:#4380c1;}.cls-13{fill:#51371d;}.cls-15{fill:#fffffb;}.cls-15,.cls-26,.cls-27{stroke-width:0.15px;}.cls-16{fill:#8ba83d;}.cls-17{fill:#8caa3d;}.cls-18{fill:#aebc7f;}.cls-19{fill:#8dab3d;}.cls-20{fill:#f4f2b1;}.cls-21{fill:#dc7776;}.cls-22{fill:#c3c579;}.cls-23{fill:#dadb89;}.cls-24{fill:#5a7132;}.cls-25{fill:#e0dd9d;}.cls-26,.cls-27,.cls-28{fill:none;}.cls-27{stroke:#1e2c19;}</style></defs><g id="f"><path class="cls-1" d="M71.43,315.68s32.26-32,179.88-43.67,237,139.53,237,139.53v49s-256.8,36.21-389.53,4.26c0,0-79.4-1.07-75.68-24.5S61.51,318.87,71.43,315.68Z"/><path class="cls-2" d="M97.21,301.59s-4.69,12,25.09,17.28S126,342.31,165.71,338s50.87,2.13,63.27,6.4,65.75,21.3,79.4,9.58-5-30.89,14.88-29.82,38.46-13.85,52.11-2.13,37.21,7.28,37.83,5.68c0,0-128.39-47.22-159.41-48.29S107.82,295.53,97.21,301.59Z"/><ellipse class="cls-3" cx="74.93" cy="349.94" rx="35.14" ry="8.95" transform="translate(-279.2 298.35) rotate(-69.62)"/><path class="cls-2" d="M34.49,400.65S6.1,447.52,35.87,455.33s49.07,12.31,62.86,9.47,43.41,36.21,389.53-4.26c0,0,15.66-52.64-9.38-52.79-44.49-.25-149.72,51.08-216.4,44.27-104.21-10.66-124.06,0-150.11-10.66S45.93,428.11,34.49,400.65Z"/><path class="cls-4" d="M79.36,245.77s1.52,13.85,16.36,3.32C81.72,245.5,82.39,245.69,79.36,245.77Z"/><path class="cls-4" d="M58.24,260.4c-.53-.51-3.74-7.28,3.54-12.38,4.38-2.18,4.59,2.19,2.66,8S60.51,262.58,58.24,260.4Z"/><path class="cls-4" d="M69.76,270.24s-2.66-10.88,9.6-4.17c3.42,5.4,5.59,11.79-1.62,10S69.79,274.23,69.76,270.24Z"/><path class="cls-4" d="M198.63,143.94s8.24-6.55,12.49,0c-1.69,5.09-3,8.73-10.31,6.55S198.63,143.94,198.63,143.94Z"/><path class="cls-4" d="M190.62,155.58s11.65-2,5.82,3C190.62,159.84,189.16,161.41,190.62,155.58Z"/><path class="cls-4" d="M211.12,159.77c1.34-.18,13.71,2.85,6.07,7.7C209.91,167,201.77,161,211.12,159.77Z"/><path class="cls-5" d="M117.28,134.9s6.68-2,10.53,11.18S110.18,140.42,117.28,134.9Z"/><path class="cls-5" d="M100.36,138.67s10.08-12.2,8,2.35C104.06,146.12,92.36,154.5,100.36,138.67Z"/><path class="cls-6" d="M109.33,126.83a4.18,4.18,0,0,1,2.51-2.83,7.56,7.56,0,0,1,3.89-.28,16.94,16.94,0,0,1,3.68,1.23,18.56,18.56,0,0,1,1.72.88l1.65,1c-1.16-.55-2.3-1.14-3.49-1.6a17.93,17.93,0,0,0-3.63-1.12,7.51,7.51,0,0,0-3.71.17,4.45,4.45,0,0,0-2.62,2.55Z"/><path class="cls-7" d="M47.6,152.43a3.45,3.45,0,0,1,4.14-1.35c1.45.76,2.1,3.29.58,5.23a3.45,3.45,0,0,1-4.1,1.38C46.77,157,46.09,154.41,47.6,152.43Z"/><path class="cls-7" d="M43.23,162.62a3.46,3.46,0,0,1,4.15-1.35c1.45.76,2.1,3.29.58,5.23a3.47,3.47,0,0,1-4.11,1.38C42.4,167.14,41.72,164.6,43.23,162.62Z"/><path class="cls-8" d="M39.59,166.79S37.4,156.6,52,143.49C41.77,115.1,57.05,89.61,78.16,86.7a27,27,0,0,1,31.67,23.66l13.82-.72a82.29,82.29,0,0,1,2.92-8c2.32-5.49,4.49-10.61,8.73-15.29,2-2.25,6.9-7.63,14.56-9.47,8.62-2.07,15.95,1.49,20.38,3.64,16.7,8.11,23.89,24.52,26.2,30.58l4,13.47s37.85,21.85,35.66,45.87-16.74,37.14-16.74,37.14,7.28,9.46,18.93,8.74c12.37-.73,40-.73,53.86,19.66C306,222.86,327.1,214.12,338,214.12s26.58,1.46,27.85,13.11c-2.57,8.74-9.47,16-11.75,20.75s-13.92,41.87-56.87,65.17c0,0,21.11,9.46,27.66,7.28s24.75-8.74,22.57,11.65c0,0,8.73,16.74-5.83,15.29-.72,0-2.91,12.38-16,9.46s-14.56-6.55-14.56-6.55L252.13,327c-3.66,4.56-6.73,8.35-9.1,11.3-1.2,1.48-2.61,3.24-4.73,5.45a22.8,22.8,0,0,0-2.55,2.56,10.49,10.49,0,0,0-2.19,5.09,11,11,0,0,0,1.46,6.55,19.91,19.91,0,0,0,1.46,2.19c2.79,4.07,4.24,6.14,4.36,8a8.33,8.33,0,0,1-1.45,5.1c-1.25.58-2.23,1.09-2.91,1.45-.48.26-.86.47-1.46.73a8.6,8.6,0,0,1-2.18.73,6.85,6.85,0,0,1-2.19,0,9.69,9.69,0,0,1-4-.64,10.43,10.43,0,0,1-5.43-5.18,16.39,16.39,0,0,1-.73-4.37c-.05-1.91.28-3.27-.54-4.74a4.85,4.85,0,0,0-1.28-1.45s-4.36-1.46-10.19,3.64-14.19,11.87-14.19,11.87-12,9.24-14.92-11.14a9.22,9.22,0,0,1-11.28-1.82c-3.12-3.65-1.54-8.51-1.46-8.73.09-.75.79-5.67,4.9-8.06,3.92-2.28,8.28-.71,10.39.05a16.68,16.68,0,0,1,5.45,3.26,41.31,41.31,0,0,0,15-10.28c4.46-4.82,7.91-10.47,9-15.2,0,0-28.38,0-40-13.83-1.45,0-7.28,3.64-13.1,2.91-3.64,7.28-16,21.11-17.47,22.57s-2.91,7.28,2.18,11.65c3.87,3.61,5.14,8.49,3.39,11.71-1.47,2.71-4.76,3.62-5.93,3.95a12.5,12.5,0,0,1-7.65-.37,9.14,9.14,0,0,1-3.27-4c-1.14-2.84.13-4.51-1.09-7.65-.4-1-1.37-3.5-3.49-4.22-2.67-.9-5.67,1.5-8.16,3.49-2.24,1.8-2.57,2.69-4.73,4.74a34.48,34.48,0,0,1-7.64,5.46c-3.4,2.88-7.72,3.85-11,2.29-2.85-1.38-4.15-4.35-4.68-5.56a13.55,13.55,0,0,1-1.1-6.2,6,6,0,0,1-3.31,2.26c-3.79.88-8-3-9.42-7a10.64,10.64,0,0,1,.72-8.74,10.12,10.12,0,0,1,4.07-3.63c6.6-3.49,14.68.43,15.95,1.07,10.19-2.91,18.2-11.65,18.2-11.65L59.24,334.26s-13.1,4.37-10.92-9.46c-8.73,2.91-6.55-10.93,2.18-14.57l8.74-3.64s5.09-8,16.74-.72l5.09,3.64s11.65.72,18.2-2.92c-15.28-8.73-40.76-29.12-44.4-40.77s-4.37-24.76,20.38-23.3c13.83,2.18,39.31,9.46,39.31,9.46l-2.92-9.46s-16.74-8.74-21.83-10.2S27.94,212.67,55.6,183.54C56.33,183.54,37.4,177,39.59,166.79Z"/><path class="cls-9" d="M59.6,184s93.9,1.46,139-20.38c-9.47,14.56-32.76,39.3-88.8,46.58-32,2.91-61.15,2.19-58.23-17.47C56.69,184,56.69,184,59.6,184Z"/><path class="cls-10" d="M68.34,210.17s16.74-26.2,42.21-14.55c16.74-13.11,47.3-11.79,55.68-3-3.83,2-8.59,4.32-14.19,6.63a171.76,171.76,0,0,1-19,6.58,178,178,0,0,1-20.24,4.33C88.72,213.81,72.7,213.08,68.34,210.17Z"/><ellipse class="cls-11" cx="156.05" cy="118.46" rx="29.12" ry="32.39"/><ellipse class="cls-12" cx="151.77" cy="122.46" rx="16.35" ry="18.2"/><ellipse class="cls-13" cx="151.24" cy="122.73" rx="10.55" ry="11.6"/><circle class="cls-14" cx="157.05" cy="114.29" r="3.16"/><ellipse class="cls-15" cx="75.98" cy="126.1" rx="26.57" ry="36.03"/><path class="cls-8" d="M100.36,109a37.12,37.12,0,0,1-1.18,18.49C94.63,141,82.83,148,74.89,152.67A75.08,75.08,0,0,1,58.16,160h0c0,.09,32.48,12.82,49.78,0a30.13,30.13,0,0,0,10.63-30.67C115,115.46,102.06,109.72,100.36,109Z"/><path class="cls-16" d="M48.68,202.89s37.85,49.5,147.76,20.39a9.83,9.83,0,0,0,0,9.17c-3.64.58-70.6,14.8-73.88,21.74-2.18-4.32-20.74-20-29.48-21.45S50.87,218.18,48.68,202.89Z"/><path class="cls-17" d="M196.44,223.28s24.75-6.56,31.3-53.87c-2.18-16-15.68-32-27.13-39.3l.4-3.64a81.32,81.32,0,0,1,17.1,11.46c6.36,5.57,13.71,12,16.91,22.75a38,38,0,0,1,1.46,13.1,97.7,97.7,0,0,1-33.85,51.5C200.45,227.82,196.44,223.28,196.44,223.28Z"/><path class="cls-18" d="M115.65,256c-.73-1.46-48.77-18.93-61.14-6.55C64,242.2,81.44,238.42,115.65,252Z"/><path class="cls-17" d="M152,288.78s-4.37,28.39-10.92,36.4c-1.31,1.61-5.82,5.34-5.7,10.5.09,3.9,2.71,7.05,5,9.15a15.4,15.4,0,0,0-.73-2.91,22.8,22.8,0,0,1-.85-2.28s.06.09.12.1c.25,0,.31-1.69.73-2.92a6.72,6.72,0,0,1,2.18-2.91c1.2-1.08,4.2-5,10.19-12.8a126.76,126.76,0,0,0,9.46-14.86c1.77-3.21,2.22-4.36,2.19-5.82C163.54,294.05,154.28,289.77,152,288.78Z"/><path class="cls-19" d="M278.69,313.53s37.85-7.28,66.24-61.14c0,0,4.37-10.92,7.28-13.1s9.42-9.46,9.07-12-.34-9.1-5.43-10.56c0,0,12.24,2.53,10.12,11.82-2.58,3.52-3.58,4.92-3.57,4.93s2.69-3.78,2.91-3.64-2.76,5.42-5.82,10.19c-2,3.09-1.92,2.74-2.91,4.36-3.37,5.53-3.78,9-5.83,13.83-1.34,3.2-3.1,5.82-6.55,10.92-6.36,9.4-11.25,16.76-19.65,24.75-5.08,4.83-13.18,12.41-23.77,16.56a46.21,46.21,0,0,1-12.27,3.09A45.44,45.44,0,0,1,278.69,313.53Z"/><path class="cls-4" d="M263.41,217.45s-8.74,10.92,8,17.47c7.28-1.45,8.3-2.18,12.16-7.64C272.14,219.64,278.69,222.55,263.41,217.45Z"/><path class="cls-4" d="M307.08,230.55s2.93-7.54,12.38-4.5a6.77,6.77,0,0,1-2.92,11c-4.36,1.46-9.54,0-10.59-2.18S307.08,230.55,307.08,230.55Z"/><path class="cls-20" d="M58.15,184a13.61,13.61,0,0,0-6.55,13.1c.79,6.2,6.26,11.25,13.1,11.65a181.12,181.12,0,0,0,40.76,1.45c26.41-2,39.19-6.57,48.82-10.9a121.15,121.15,0,0,0,45.07-35.68,27.94,27.94,0,0,1,9.1,9.92c6.75,12.61,2.69,30.47-9.82,45.4-7.28,10.92-1.46,17.47,7.28,24,8,14.56,14.55,59,5.82,80.79-1.58-.15-3.84-.39-6.55-.73-.74-.09-7.1-.87-10.19-1.45A47.77,47.77,0,0,1,179,315c-4.87-3-7.52-5.56-16.74-16-4.54-5.15-9.38-10.05-13.83-15.28-6.91-8.13-17.94-20.71-35.87-40L93.08,232.74S42.86,218.18,48,197.07c2.25-9.35,6.32-12.18,6.32-12.18Z"/><path class="cls-4" d="M338.38,246.57s8.89-6.55,5.9,0-4.45,4.62-5.9,3.77S337.65,248.75,338.38,246.57Z"/><path class="cls-4" d="M324.34,265.26s6.76-7.05,6.76,2.42C324.55,272.77,324.34,265.26,324.34,265.26Z"/><path class="cls-4" d="M236.48,223.28s-2.92-6.56,6.55-3.64c4.36,3.64,8.73,7.27,0,7.64C237.93,226.19,238.66,225.46,236.48,223.28Z"/><path class="cls-4" d="M243,239.29s-1-9,7.53-1.6C250.06,243.07,247.39,245.84,243,239.29Z"/><path class="cls-4" d="M226.29,272s-2-11.9,8.09-6c3.46,6.81-.09,8.86-2.27,9.59S228.47,276.41,226.29,272Z"/><path class="cls-4" d="M226.12,290.88s-7.11-3.55.89-7.19C229.2,285.87,231.06,292.25,226.12,290.88Z"/><path class="cls-4" d="M228.47,302.61s0-2.18,5.82-4.36,3.64,3.64,2.19,5.82-2.27,5-5.5,4.32C227,310.62,225.56,307.71,228.47,302.61Z"/><path class="cls-4" d="M125.11,285.14a11.29,11.29,0,0,1,0-9.1c2.18-4.72,6.82-.72,6.69,4.55S125.84,291,125.11,285.14Z"/><path class="cls-4" d="M124.14,307.06s.52-9.31,7.66-3.6c2,6.43-2.32,10.07-5.23,9.34S123.17,310.77,124.14,307.06Z"/><path class="cls-21" d="M68.34,210.17s18.56-27.29,42.21-14.55c0,0,30.19-20.17,55.68-3L164,194.07s-19-13.48-53.49,3.31c-3.57.83-3.64,0-3.64,0S97.74,190.88,84,200s-12.37,9.81-12.37,9.81l-3.24-.14"/><path class="cls-6" d="M105.46,200a9.7,9.7,0,0,1,1.21-1.72,11.75,11.75,0,0,1,1.54-1.45,12.61,12.61,0,0,1,3.68-2,18.07,18.07,0,0,0-1.84,1,15.84,15.84,0,0,0-1.72,1.18,12.89,12.89,0,0,0-1.55,1.4A13.72,13.72,0,0,0,105.46,200Z"/><path class="cls-6" d="M121.4,280a61.32,61.32,0,0,0-5.79-7.54,63.75,63.75,0,0,0-6.87-6.58,47.53,47.53,0,0,0-7.89-5.3A40.81,40.81,0,0,0,92,257.12a40.62,40.62,0,0,1,8.88,3.4,48.33,48.33,0,0,1,7.93,5.27,64.06,64.06,0,0,1,6.92,6.56,62,62,0,0,1,5.85,7.54Z"/><path class="cls-8" d="M208.09,107.54l4.37,2.19"/><path class="cls-6" d="M99.29,108.61a29.1,29.1,0,0,1-.08,18,38.19,38.19,0,0,1-9.68,15.3,65.78,65.78,0,0,1-14.71,10.73A115.77,115.77,0,0,1,58.14,160a115.26,115.26,0,0,0,16.66-7.4,65.65,65.65,0,0,0,14.68-10.74,38.26,38.26,0,0,0,9.63-15.28,29,29,0,0,0,0-17.91Z"/><path class="cls-22" d="M72,225.46c72.08,9.16,97.13,7.67,106.27,4.37,1.06-.39,18.18-6.69,18.22-6.57l0,0a9,9,0,0,0,0,8.07l2.16,4.3s-11.79,8-36.1,8S119,241.84,119,241.84l20,30.93-21.11-24-6.55-5.82-10.19-5.1c-1.9-1-4.37-2.25-7.28-3.64-1.61-.77-4.56-2.18-8-3.64S77.74,227.28,72,225.46Z"/><ellipse class="cls-9" cx="120.59" cy="141.65" rx="2.89" ry="8.17" transform="translate(-62.55 108.98) rotate(-39.48)"/><ellipse class="cls-9" cx="102.4" cy="140.92" rx="8.17" ry="2.89" transform="translate(-71.8 139.87) rotate(-53.65)"/><path class="cls-6" d="M108.61,125.29a11.09,11.09,0,0,1,6.06-1.78,8.88,8.88,0,0,1,3.14.59,10,10,0,0,1,2.78,1.55,12,12,0,0,0-2.82-1.46,9.11,9.11,0,0,0-3.1-.54,10.75,10.75,0,0,0-3.14.41A12.3,12.3,0,0,0,108.61,125.29Z"/><path class="cls-23" d="M114.57,256s-18-8.13-35.17-10.54c-9.75-1.37-19.22-.9-24.89,4,0,0,5.46-17.19,60.05,2.5.72,3.73,1.09,4,1.09,4"/><path class="cls-4" d="M78.27,245.74s2.61,12.42,17.45,3.35C78.8,245.5,100.58,246.36,78.27,245.74Z"/><path class="cls-4" d="M57.29,254.19s1.11-9.1,8.26-4.72C64.57,256,57.89,270.54,57.29,254.19Z"/><path class="cls-4" d="M70,266s3.49-5.84,12.58,4.09c.71,8.21-1.08,9.83-8.73,6.24S70.86,268,70,266Z"/><circle class="cls-24" cx="50.14" cy="154.13" r="3.28"/><circle class="cls-24" cx="46.14" cy="163.95" r="3.28"/><path class="cls-25" d="M40.57,171a8.58,8.58,0,0,0,1.8,1.54,14.47,14.47,0,0,0,2,1.22c.35.18.69.4,1.06.55l1.1.46c.74.29,1.46.62,2.21.88,1.52.44,3,1,4.57,1.34L58,178a131,131,0,0,0,19,1.72l4.76.07,2.39,0c.79,0,1.58-.05,2.38-.07l9.52-.35c3.17-.21,6.33-.51,9.5-.75l4.75-.39c1.58-.15,3.16-.37,4.73-.55l9.47-1.12,2.37-.28,2.35-.35,4.72-.72,9.42-1.44,2.35-.37L148,173l4.69-.87c12.52-2.17,24.94-4.92,37.38-7.52l-18.62,4.11-4.66,1-4.68.89-9.38,1.76-4.68.88-2.35.44-2.35.38-9.43,1.47-4.71.74-2.35.36-2.37.29L115,178c-1.58.18-3.16.39-4.74.54l-4.76.37c-3.17.24-6.34.53-9.51.72l-9.54.32c-.79,0-1.59.07-2.38.06l-2.39,0L77,179.93a129.85,129.85,0,0,1-19-1.8l-4.66-1c-1.54-.4-3-.93-4.56-1.39-.75-.27-1.47-.61-2.21-.91l-1.1-.46c-.36-.16-.7-.38-1-.57a15.5,15.5,0,0,1-2-1.24A8.62,8.62,0,0,1,40.57,171Z"/><path class="cls-26" d="M258.92,271.24s18.42-17.42,35.66-23.77"/><path class="cls-27" d="M55.6,183.54c-2.19,1.39-10.19,10.26-6.92,20.15S67.24,224.37,76,227.13s36.12,15.43,35.88,16.53l2.67,8.32c-16-7.32-39.31-9.46-39.31-9.46C50.5,241,53,256,53,256c.31,14.19,9.16,20.74,16.35,28.24s29.93,22.32,29.93,22.32c-2.18,2.16-10.92,2.94-17.56,2.94-17.55-13.09-22.47-2.94-22.47-2.94-1,.34-2,.72-3,1.15a58.09,58.09,0,0,0-7.9,4c-5.14,4.65-6.75,9.7-5.12,11.83,1.25,1.62,4.24,1.35,5.12,1.26C46.14,338.61,60.26,334,60.26,334l53.57-12.12v.69c-8.74,9.45-18.2,11.65-18.2,11.65s0,0-6.79-1.75c-15.52-3.23-14.16,12.68-14.16,12.68,7.43,13.83,12.66,4.38,12.66,4.38-.29,10.2,4.65,13.09,9.58,13.08s18.36-9.45,19.82-13.1,11.65-7.27,12,2,4,10.4,4,10.4c16,4.36,16.74-9.46,11-14.14a11.24,11.24,0,0,1-4.11-11c2.55-3.27,18.56-24.4,18.56-24.4,5.82.7,13.1-2.91,13.1-2.91,13.1,13.8,40.4,14.21,40.4,14.21-9.1,22.2-24.39,25.1-24.39,25.1-5.09-3.64-16-8-19.65.73-.22.53-3.77,7.71.19,12.28a9.36,9.36,0,0,0,7.82,3c.92-.13,3.64-.73,3.64-.73,2.18,22.55,17.1,9.36,17.1,9.36s3.28-2.81,12-10.09,11.77-1.62,11.77-1.62c-.72,6.42,2.17,12,6.72,13.89a10.58,10.58,0,0,0,7,.11c4.67-1.11,6.08-2.87,6.56-4.17s1.92-3.92-4.66-12.94c-6.11-8.37.72-13.09.72-13.09L252.13,327s58.95,23.31,58.95,23.3,1.46,5.11,14.56,6.55,16-9.46,16-9.46c15.29,0,5.72-15.4,5.72-15.4l.22-4.85c-2.08-15.16-16.58-8.44-25.13-6.37-8.29-.42-25.21-7.6-25.21-7.6,6.55-5.85,16-5.8,33.85-25.77,18.56-22.15,20.74-33.9,28.39-47.36s10.92-16.74-3.64-23.3C325.64,204,292.16,236,292.16,236l-1.55-2.13s-11.55-16-40.05-17.61c-25.59,3.52-31.19-8.66-31.19-8.66l9.42-12.78c16.7-27.4,3.68-51.95-28.34-70.23-5.1-22.65-18-35.35-18-35.35-42-38.34-58.83,20.43-58.83,20.43l-13.82.72c-2.55-24.47-32.4-32.3-49.86-14.1s-8,47.23-8,47.23a53.24,53.24,0,0,0-11.39,15.79c-2.66,5.51-3.17,18.5,15,24.26l2.55,0c100,1,140.48-20,140.48-20s-18.41,31.85-66.89,43c-50.67,9.73-74.46,1.31-77.12-2.85s-6.25-10.69,2.46-19.07l1.07-.74"/><path class="cls-17" d="M235.75,359.39c-2.76-1.26-7.16-3.8-8.15-8.09-1.13-4.84,2.51-9.54,4.93-12.18,12.68-13.94,20-27.77,21.42-35.05s6.55-20.38,0-31.3-18.12-17.84-18.12-17.84a29,29,0,0,1,14.48,6.39A41.74,41.74,0,0,1,261,275.43c4.58,10.4,3.17,19.87,2.42,25-.21,1.4-2.4,15.33-10.92,25.48-.78.92-1.83,2.08-4.37,5.09-8.44,10-6.71,9-9.46,11.65-2.08,2-4,3.51-5.1,6.55a12.53,12.53,0,0,0-.72,3.64,13.55,13.55,0,0,0,1.45,4.36A13.19,13.19,0,0,0,235.75,359.39Z"/><path class="cls-28" d="M68.87,209.12s13.31-18.34,30.59-16.83c0,0,7.09.78,11.09,3.33,0,0,10.11-8.16,28.17-9.72,0,0,12.76-.8,21.23,2.82,0,0,4.81,2,6.28,3.91"/><path class="cls-26" d="M111.89,243.66s56.89,62.55,59.44,65.85"/><path class="cls-26" d="M205.91,242.93c20.38,48,5.82,80.79,5.82,80.79"/><path class="cls-26" d="M250.31,260.4c30.93,28,1.82,66.58,1.82,66.58"/><path class="cls-26" d="M163.69,300.43s-4.38,11-6.74,13.68"/><path class="cls-27" d="M48.32,324.8s5.82-15.27,24-5.81c8,1.46,10.19,0,10.19,0"/><path class="cls-27" d="M59.24,306.59a31.33,31.33,0,0,1,16,5.12c7.28,2.19,8.93,1.19,8.93,1.19"/><path class="cls-27" d="M341.65,347.37s3.64-16-24.74-13.09c-22.57-6.55-40.16-13.48-40.16-13.48"/><path class="cls-27" d="M347.37,332s-6.88-10.1-26.32-5c-1.23,0-33.7-10.54-33.7-10.54"/><line class="cls-28" x1="292.16" y1="235.97" x2="285.1" y2="247.47"/><path class="cls-27" d="M113.83,321.92s16.74-18.21,1.82-68.88L114.56,252"/><path class="cls-28" d="M87.62,348.11s2.19-10.92,14.56-7.28c5.83.73,7.28-1.46,9.71-4.26"/><path class="cls-28" d="M179.34,364.12s4.36-9.46,12.37-6.55c5.1.73,8,0,10.19-2.91"/><ellipse class="cls-12" cx="75.98" cy="123.76" rx="16.35" ry="18.2"/><ellipse class="cls-13" cx="75.45" cy="124.02" rx="10.55" ry="11.6"/><circle class="cls-14" cx="81.25" cy="115.58" r="3.16"/></g></svg>