<svg xmlns="http://www.w3.org/2000/svg" xmlns:xlink="http://www.w3.org/1999/xlink" viewBox="0 0 1600 900"><defs><style>.cls-1,.cls-40,.cls-49{fill:none;}.cls-2{isolation:isolate;}.cls-3{clip-path:url(#clip-path);}.cls-18,.cls-19,.cls-22,.cls-4{opacity:0.2;}.cls-10,.cls-11,.cls-12,.cls-13,.cls-14,.cls-15,.cls-16,.cls-17,.cls-18,.cls-19,.cls-20,.cls-21,.cls-23,.cls-24,.cls-5,.cls-6,.cls-7,.cls-9{fill-rule:evenodd;}.cls-5{fill:url(#Áåçûìÿííûé_ãðàäèåíò_240);}.cls-6{fill:#b53f38;}.cls-7{fill:#7a1542;}.cls-8{opacity:0.5;}.cls-9{fill:#f05b56;}.cls-10{fill:#b71f2b;opacity:0.31;}.cls-10,.cls-18,.cls-19,.cls-22{mix-blend-mode:multiply;}.cls-11{fill:url(#Áåçûìÿííûé_ãðàäèåíò_237);}.cls-12{fill:#e05c4f;}.cls-13{fill:#f27257;}.cls-14{fill:#fbf7c4;mix-blend-mode:soft-light;}.cls-15{fill:#6b1143;opacity:0.51;}.cls-16{fill:url(#Áåçûìÿííûé_ãðàäèåíò_237-2);}.cls-17{fill:url(#Áåçûìÿííûé_ãðàäèåíò_66);}.cls-18{fill:url(#Áåçûìÿííûé_ãðàäèåíò_241);}.cls-19{fill:url(#Áåçûìÿííûé_ãðàäèåíò_263);}.cls-20{fill:url(#Áåçûìÿííûé_ãðàäèåíò_185);}.cls-21{fill:#a83c24;}.cls-23{fill:#a8579e;}.cls-24{fill:#6f2112;}.cls-25{fill:#71c17c;}.cls-26{fill:#d24a9a;}.cls-27{fill:#914499;}.cls-28{fill:#e21e26;}.cls-29{fill:#cb7629;}.cls-30{fill:#712d32;}.cls-31{fill:#fccaa0;}.cls-32{fill:#b5dec8;}.cls-33{fill:#a65ba3;}.cls-34{fill:#007a8b;}.cls-35{fill:#ffcb0e;}.cls-36{fill:#c1d02f;}.cls-37{fill:#39469c;}.cls-38{fill:#39417b;}.cls-39{fill:#8155a2;}.cls-40,.cls-49{stroke:#8155a2;stroke-miterlimit:10;}.cls-40{stroke-width:0.5px;}.cls-41{fill:#08ac4b;}.cls-42{fill:#493b96;}.cls-43{fill:#c51e5d;}.cls-44{fill:#0880c0;}.cls-45{fill:#9bcf8e;}.cls-46{fill:#2d82a4;}.cls-47{fill:#a190c4;}.cls-48{fill:#f28ab8;}.cls-49{stroke-width:0.42px;}.cls-50{fill:#363493;}.cls-51{fill:#324899;}</style><clipPath id="clip-path"><rect class="cls-1" x="-1609.34" y="-11.19" width="1589.92" height="900"/></clipPath><linearGradient id="Áåçûìÿííûé_ãðàäèåíò_240" x1="1099.72" y1="515.35" x2="1099.72" y2="22.94" gradientTransform="matrix(-1, 0, 0, 1, 1035.23, 0)" gradientUnits="userSpaceOnUse"><stop offset="0" stop-color="#fccba2"/><stop offset="1" stop-color="#f6a4a0"/></linearGradient><linearGradient id="Áåçûìÿííûé_ãðàäèåíò_237" x1="1233.75" y1="84.73" x2="1233.75" y2="22.94" gradientTransform="matrix(-1, 0, 0, 1, 1035.23, 0)" gradientUnits="userSpaceOnUse"><stop offset="0" stop-color="#fccba2"/><stop offset="1" stop-color="#ffd8a1"/></linearGradient><linearGradient id="Áåçûìÿííûé_ãðàäèåíò_237-2" x1="954.17" y1="291.04" x2="954.17" y2="119.86" gradientTransform="matrix(-1.05, -0.04, -0.04, 1, 1057.38, 11.36)" xlink:href="#Áåçûìÿííûé_ãðàäèåíò_237"/><linearGradient id="Áåçûìÿííûé_ãðàäèåíò_66" x1="1034.53" y1="291.32" x2="1034.53" y2="118.5" gradientTransform="matrix(-1.05, -0.04, -0.04, 1, 1057.38, 11.36)" gradientUnits="userSpaceOnUse"><stop offset="0" stop-color="#ee382f"/><stop offset="1" stop-color="#f1622a"/></linearGradient><linearGradient id="Áåçûìÿííûé_ãðàäèåíò_241" x1="1033.4" y1="113.22" x2="1317.58" y2="113.22" gradientTransform="matrix(-1, 0, 0, 1, 1035.23, 0)" gradientUnits="userSpaceOnUse"><stop offset="0" stop-color="#9e237a"/><stop offset="1" stop-color="#fff"/></linearGradient><linearGradient id="Áåçûìÿííûé_ãðàäèåíò_263" x1="837.58" y1="134.89" x2="1033.4" y2="134.89" gradientTransform="matrix(-1, 0, 0, 1, 1035.23, 0)" gradientUnits="userSpaceOnUse"><stop offset="0" stop-color="#fff"/><stop offset="1" stop-color="#9e237a"/></linearGradient><linearGradient id="Áåçûìÿííûé_ãðàäèåíò_185" x1="1585.49" y1="895.4" x2="1585.49" y2="487.13" gradientTransform="matrix(-1, 0, 0, 1, 1364.7, 0)" gradientUnits="userSpaceOnUse"><stop offset="0" stop-color="#d45d27"/><stop offset="1" stop-color="#bb3926"/></linearGradient></defs><g class="cls-2"><g id="Layer_1" data-name="Layer 1"><g id="j"><g class="cls-3"><g id="j-2" data-name="j"><path class="cls-4" d="M-12.94,911-557.2,789.11c-16.2-1.88-6.73-17.88,16.45-21.68l38.55-11.21c1.95-1.15-8.8.54-6.6,1L10.7,885.35A8.79,8.79,0,0,1,12.23,902l-19.74,8.46A8.8,8.8,0,0,1-12.94,911Z"/><polygon class="cls-5" points="232 145.27 202.05 506.16 -242.22 515.35 -237.59 140.51 -360.98 49.07 160.5 22.94 232 145.27"/><polygon class="cls-6" points="194.56 516.09 215.63 142.86 224.91 142.79 199.56 516.1 194.56 516.09"/><polygon class="cls-7" points="224.91 142.79 232 145.27 204.13 516.05 199.56 516.1 224.91 142.79"/><g class="cls-8"><polygon class="cls-9" points="133.56 626.25 162.53 626.87 200.46 102.45 167.88 101.69 133.56 626.25"/><polygon class="cls-9" points="64.49 624.77 93.48 625.39 122.82 100.64 90.22 99.88 64.49 624.77"/><polygon class="cls-9" points="-4.61 623.3 24.39 623.92 45.13 98.83 12.52 98.08 -4.61 623.3"/></g><polygon class="cls-10" points="213.91 353.16 -239.53 270.69 -243.47 131.91 226.79 177.94 213.91 353.16"/><polygon class="cls-6" points="-19.42 621.1 -1.69 120.02 7.63 119.95 -14.42 621.1 -19.42 621.1"/><polygon class="cls-7" points="7.63 119.95 14.79 122.44 -9.85 621.05 -14.42 621.1 7.63 119.95"/><polygon class="cls-11" points="160.5 22.94 1.83 84.73 -557.54 74.65 -360.98 49.07 160.5 22.94"/><polygon class="cls-12" points="160.5 22.94 232 145.27 226.13 223.36 -1.73 205.44 2.93 82.27 160.5 22.94"/><polygon class="cls-13" points="-64.33 83.54 111.64 25.39 46.61 28.64 -132.27 82.31 -64.33 83.54"/><polygon class="cls-14" points="1.83 84.73 -552.95 72.87 -436.61 59.09 1.83 84.73"/><polygon class="cls-6" points="160.5 22.94 154.02 12.89 -352.49 40.68 -352.56 47.92 160.5 22.94"/><polygon class="cls-7" points="160.83 12.93 154.02 12.89 153.68 23.41 160.5 22.94 160.83 12.93"/><polygon class="cls-15" points="3.5 240.37 -5.88 238.52 -5 203.81 4.4 205.92 3.5 240.37"/><path class="cls-16" d="M44.78,265.93h0c22.88.75,42.73-19.82,44.44-46.07l8-122L12.73,93.48l-7,123.19C4.25,243.17,21.78,265.17,44.78,265.93Z"/><path class="cls-17" d="M-38.47,263.19h0c23.31.77,43.34-20,44.84-46.5l7-123.18L-72.73,89l-6,124.43C-80,240.2-61.91,262.42-38.47,263.19Z"/><path class="cls-18" d="M1.83,84.73S-164,133.07-282.35,140.16C-282.35,140.16-156.6,156.27,1.83,84.73Z"/><path class="cls-19" d="M1.83,84.73s53,55.2,97.63,77.66,98.19,22.66,98.19,22.66S56.11,133.52,1.83,84.73Z"/><path class="cls-20" d="M48.23,895.4,87.48,516.62l-609.93-29.49a6.32,6.32,0,0,0-6.61,6.58l11.72,266A15.76,15.76,0,0,0-505,774.44Z"/><path class="cls-21" d="M-528.39,508.84l-.62-14a7.56,7.56,0,0,1,7.65-7.88L147,507.3c4.59.06-23.49,26-24.18,30.51v17.12l-643.95-38.87A7.55,7.55,0,0,1-528.39,508.84Z"/><g class="cls-22"><polygon class="cls-23" points="21.89 778.32 30.54 707.7 -306.79 666.4 -307.82 674.89 12.34 717.98 -457.01 677.65 -459.04 702.29 21.89 778.32"/></g><polygon class="cls-24" points="-489.53 515.35 -488.18 542.59 122.82 582.93 130.73 554.93 -489.53 515.35"/></g></g></g><g id="k"><path class="cls-25" d="M1257.73,157c1.93-2.37,1.94-4.45,1.9-7.41,0-1.67,0-3.34-.12-5a16.07,16.07,0,0,1,1-4.87,18.24,18.24,0,0,1,2.35-4.74c.22-.35,2.61-3.16,2.62-3.15.16.17.68,0,.47-.2l0-.06h0s0,0,0,0h-.06a.33.33,0,0,0-.43,0l-.11.07c-3.82.43-6.46,4.49-7.77,7.76a18,18,0,0,0-1.19,7.37c0,1.37.25,2.74.3,4.12,0,1-.13,4.42-1.68,4.67-.1,0-.24.14-.14.25C1255.37,156.29,1256.88,158.07,1257.73,157Z"/><path class="cls-26" d="M1271.3,164.07c1-3.6,1.26-6.41-.4-9.81a105.66,105.66,0,0,1-4.93-10.9c-1.29-3.72-2.42-8.49-.14-12.05.11-.18-.25-.21-.34-.08s-.11.17-.16.25a.08.08,0,0,0-.08,0c-1.36,1.71-2.76,3.87-2.67,6.16a32,32,0,0,0,1.79,9c.94,2.82,2.15,5.54,3,8.38s1.48,6.85-.18,9.5a.11.11,0,0,0,0,.16C1268.58,165.17,1270.77,166,1271.3,164.07Z"/><path class="cls-27" d="M1263.28,163.66c1.66-4.82,1.08-9.51.11-14.42a30.28,30.28,0,0,1-.43-8.6c.26-3,.31-6.64,2.62-8.86a.15.15,0,0,0,.07-.12c-6.33,1.64-5.59,11.37-5.18,16.4.07.77.12,1.54.17,2.33,0,.34,0,.68,0,1a24.74,24.74,0,0,1-.23,5.15,13.94,13.94,0,0,1-2.51,6.52,17,17,0,0,0,4.79.8C1262.93,163.9,1263.21,163.88,1263.28,163.66Z"/><path class="cls-25" d="M1392.31,147.19c.11-.1,0-.23-.13-.25-1.52-.36-1.46-3.74-1.35-4.78.14-1.37.44-2.72.58-4.09a18.13,18.13,0,0,0-.68-7.43c-1.09-3.36-3.44-7.59-7.23-8.27l-.1-.09a.35.35,0,0,0-.43,0h-.06s0,0,0,0h0l-.06.06c-.22.22.28.39.46.23,0,0,2.2,3,2.4,3.32a18.28,18.28,0,0,1,2,4.89,15.86,15.86,0,0,1,.67,4.93c-.19,1.66-.33,3.33-.46,5-.24,2.95-.37,5,1.39,7.52C1390.11,149.36,1391.75,147.7,1392.31,147.19Z"/><path class="cls-26" d="M1379.29,155.22a.1.1,0,0,0,.07-.15c-1.47-2.76-.59-6.73.47-9.49s2.46-5.41,3.59-8.15a32,32,0,0,0,2.4-8.83c.25-2.27-1-4.52-2.24-6.32,0,0,0,0-.07,0s-.1-.18-.15-.27-.45-.13-.34.06c2,3.71.58,8.38-1,12a102.55,102.55,0,0,1-5.67,10.53c-1.88,3.29-1.8,6.11-1.06,9.76C1375.72,156.32,1378,155.65,1379.29,155.22Z"/><path class="cls-27" d="M1383.34,154.51c-1.32-4.92-.42-9.56.88-14.4a30.12,30.12,0,0,0,1-8.55c-.06-3,.14-6.65-2-9a.22.22,0,0,1-.06-.13c6.2,2.07,4.8,11.73,4,16.72-.11.75-.22,1.53-.32,2.31-.05.33-.09.67-.12,1a24.21,24.21,0,0,0-.12,5.15,13.82,13.82,0,0,0,2.06,6.68,16.63,16.63,0,0,1-4.84.47C1383.68,154.77,1383.4,154.73,1383.34,154.51Z"/><path class="cls-28" d="M1330.26,232.75s-32.1-71.62-66.12-101.15c0,0,36.3-35.8,57.3-67.65,0,0,38.7,42,62.41,58.48C1383.85,122.43,1331,195.62,1330.26,232.75Z"/><path class="cls-27" d="M1320.51,121.9c-17.66,1.3-37.15,4-56,9.28,4.1-4.08,37.21-37.39,56.88-67.23C1321.44,64,1320.26,89.31,1320.51,121.9Z"/><path class="cls-29" d="M1320.51,121.9c-.25-32.59.93-57.95.93-57.95s38.7,42,62.41,58.48A381.66,381.66,0,0,0,1320.51,121.9Z"/><path class="cls-25" d="M1264.14,131.6l.42-.42c18.8-5.25,38.29-8,56-9.28.27,36.32,2.32,81.62,9.75,110.85C1330.26,232.75,1298.16,161.13,1264.14,131.6Z"/><path class="cls-26" d="M1383.85,122.43s-52.88,73.19-53.59,110.32c-7.43-29.23-9.48-74.53-9.75-110.85A381.66,381.66,0,0,1,1383.85,122.43Z"/><path class="cls-30" d="M1330.35,233.2a.44.44,0,0,1-.51-.26c-.32-.72-32.45-71.87-66-101a.5.5,0,0,1-.16-.33.48.48,0,0,1,.14-.34c.36-.36,36.51-36.14,57.24-67.58a.46.46,0,0,1,.73-.06c.38.42,38.94,42.18,62.33,58.41a.46.46,0,0,1,.19.3.48.48,0,0,1-.08.35c-.53.73-52.8,73.5-53.5,110.06a.46.46,0,0,1-.37.44ZM1321.5,64.7c-19.73,29.72-52.9,63.11-56.69,66.88,30.62,26.86,59.9,88.12,65.07,99.24,2.31-36,49.28-102.61,53.32-108.28C1361,107,1325.65,69.17,1321.5,64.7Z"/><path class="cls-30" d="M1384.16,122.76a.66.66,0,0,0,.12-.17.46.46,0,0,0-.28-.59c-.59-.22-59.61-20.8-120.07,9.19a.46.46,0,0,0,.41.83c60.1-29.81,118.76-9.37,119.35-9.16A.45.45,0,0,0,1384.16,122.76Z"/><path class="cls-30" d="M1330.57,233.09a.47.47,0,0,0,.14-.42c-14.09-80.4-8.87-167.81-8.81-168.69a.47.47,0,0,0-.43-.49.47.47,0,0,0-.49.43c-.06.88-5.28,88.4,8.82,168.91a.48.48,0,0,0,.54.38A.46.46,0,0,0,1330.57,233.09Z"/><path class="cls-31" d="M1323.61,68.24s32.08,40.07,53.8,50.88C1377.41,119.12,1341.64,103.24,1323.61,68.24Z"/><path class="cls-32" d="M1268.24,132.36s31,30.91,56.17,86.45C1324.41,218.81,1305.77,162.79,1268.24,132.36Z"/><path class="cls-33" d="M1318.86,69.27s-23.44,38.51-47.7,57.13C1271.16,126.4,1304.62,104.75,1318.86,69.27Z"/><polygon class="cls-34" points="1342.48 102.52 1341.89 105.16 1339.39 106.17 1341.71 107.54 1341.9 110.23 1343.92 108.45 1346.55 109.11 1345.47 106.63 1346.9 104.34 1344.22 104.59 1342.48 102.52"/><polygon class="cls-34" points="1325.9 107.64 1325.59 109.05 1324.25 109.59 1325.49 110.33 1325.59 111.77 1326.68 110.81 1328.08 111.16 1327.5 109.84 1328.27 108.61 1326.83 108.75 1325.9 107.64"/><polygon class="cls-34" points="1327.57 84.95 1327.27 86.35 1325.94 86.9 1327.18 87.62 1327.29 89.05 1328.36 88.09 1329.75 88.43 1329.17 87.12 1329.92 85.9 1328.5 86.05 1327.57 84.95"/><polygon class="cls-28" points="1312.49 148.86 1311.9 151.5 1309.39 152.5 1311.72 153.88 1311.9 156.57 1313.93 154.79 1316.55 155.44 1315.48 152.96 1316.91 150.68 1314.22 150.93 1312.49 148.86"/><polygon class="cls-28" points="1315.47 179.64 1315.19 180.9 1313.98 181.39 1315.1 182.05 1315.19 183.34 1316.16 182.48 1317.42 182.8 1316.91 181.61 1317.59 180.51 1316.3 180.63 1315.47 179.64"/><polygon class="cls-28" points="1295.91 153.98 1295.59 155.39 1294.26 155.93 1295.5 156.66 1295.6 158.1 1296.68 157.15 1298.08 157.5 1297.51 156.18 1298.27 154.95 1296.84 155.09 1295.91 153.98"/><polygon class="cls-28" points="1297.57 131.29 1297.27 132.69 1295.95 133.23 1297.18 133.96 1297.29 135.38 1298.36 134.43 1299.75 134.77 1299.17 133.46 1299.92 132.24 1298.5 132.38 1297.57 131.29"/><polygon class="cls-35" points="1344.92 128.81 1344.33 131.45 1341.83 132.46 1344.15 133.83 1344.34 136.53 1346.36 134.74 1348.98 135.4 1347.91 132.92 1349.34 130.63 1346.66 130.88 1344.92 128.81"/><polygon class="cls-35" points="1332.7 154.25 1332.34 155.83 1330.84 156.43 1332.23 157.26 1332.35 158.87 1333.56 157.8 1335.13 158.2 1334.49 156.71 1335.35 155.34 1333.74 155.49 1332.7 154.25"/><polygon class="cls-35" points="1363.59 130.9 1363.23 132.49 1361.73 133.09 1363.12 133.92 1363.23 135.53 1364.45 134.46 1366.02 134.85 1365.38 133.37 1366.24 131.99 1364.63 132.15 1363.59 130.9"/><polygon class="cls-35" points="1334.39 190.7 1334.19 191.6 1333.34 191.94 1334.13 192.41 1334.19 193.33 1334.88 192.72 1335.78 192.94 1335.41 192.1 1335.9 191.32 1334.98 191.41 1334.39 190.7"/><polygon class="cls-36" points="1314.14 85.7 1313.94 86.59 1313.09 86.94 1313.88 87.41 1313.94 88.32 1314.63 87.72 1315.52 87.94 1315.16 87.09 1315.64 86.32 1314.73 86.4 1314.14 85.7"/><polygon class="cls-36" points="1293.48 113.72 1293.15 115.18 1291.76 115.74 1293.05 116.51 1293.15 118 1294.28 117.01 1295.74 117.38 1295.14 116 1295.94 114.72 1294.44 114.87 1293.48 113.72"/><polygon class="cls-36" points="1317.57 108.96 1317.4 109.74 1316.66 110.04 1317.34 110.45 1317.4 111.25 1318 110.72 1318.78 110.91 1318.46 110.18 1318.88 109.5 1318.09 109.58 1317.57 108.96"/><path class="cls-37" d="M1331.37,231.56s7.41-7.58,8.47-5,1.37,12-2.43,10.35A15.11,15.11,0,0,1,1331.37,231.56Z"/><path class="cls-37" d="M1331.43,231.67s-8.6-6.18-9.2-3.47.72,12.07,4.17,9.78A15.07,15.07,0,0,0,1331.43,231.67Z"/><path class="cls-38" d="M1280.57,218.19s8.32,1.59,7.07,3.44-7.39,6.22-8,2.94A12,12,0,0,1,1280.57,218.19Z"/><path class="cls-38" d="M1280.52,218.28s.32-8.46-1.76-7.66-7.72,5.81-4.66,7.1A12,12,0,0,0,1280.52,218.28Z"/><path class="cls-39" d="M1279.48,220.66a1302.39,1302.39,0,0,1-94.81,103.52c-16.83,16.25-33.89,32.29-51.63,47.57s-35.69,30.3-54.26,44.55-37.45,28.1-56.78,41.3c-9.67,6.58-19.41,13.08-29.3,19.33l-14.89,9.3c-5,3.07-9.88,6.28-15,9.17a1118.18,1118.18,0,0,1-124.69,64.4c-10.65,4.85-21.55,9.13-32.37,13.58-5.39,2.28-10.9,4.26-16.36,6.35s-10.94,4.16-16.44,6.16l-16.58,5.75-8.3,2.87-8.37,2.66L723,602.47l-16.86,4.88c-2.81.8-5.61,1.66-8.44,2.42L689.21,612l-8.49,2.22c-2.83.74-5.65,1.52-8.51,2.16l-17.09,4c-2.84.7-5.7,1.28-8.57,1.88L638,624.09c-22.92,4.71-46,8.74-69.22,11.68-46.42,5.89-93.35,8.46-140.11,6-11.68-.65-23.36-1.63-34.95-3.27q-17.34-2.79-34.33-7.27t-33.46-10.61a301.67,301.67,0,0,1-32.21-13.92h0a201.56,201.56,0,0,1-38.48-31.49h0c-3.81-7.65-7.63-15.31-12-22.66a136.3,136.3,0,0,0-14.63-21l-2.22-2.31c-.73-.79-1.58-1.44-2.36-2.16l-.61-.53-.64-.47-1.29-1c-.43-.31-.92-.55-1.37-.82l-.69-.41-.73-.32a9,9,0,0,0-1.5-.55,7.51,7.51,0,0,0-1.55-.33,6.33,6.33,0,0,0-3.14.33,11.55,11.55,0,0,0-5.05,3.77,36.24,36.24,0,0,0-5.79,11.34,80.94,80.94,0,0,0-3,12.46,122.13,122.13,0,0,0-1.25,25.56,123.59,123.59,0,0,0,3.9,25.3c.27,1,.55,2.07.87,3.09s.58,2.06,1,3l2.17,6c.84,2,1.75,3.9,2.62,5.86a28.27,28.27,0,0,0,1.47,2.84l1.55,2.81a99.6,99.6,0,0,0,15.77,20.12c6,6.08,12.53,11.64,18.68,17.58A135.69,135.69,0,0,1,262.34,682a115,115,0,0,1,19.28,47.09c.46,2.09.68,4.21,1,6.33s.62,4.23.73,6.37l.5,6.39c.1,2.14.11,4.28.17,6.41l.07,3.21c0,1.07-.05,2.14-.07,3.21l-.19,6.41c-.05,2.13-.31,4.26-.46,6.39s-.31,4.27-.54,6.39a315.91,315.91,0,0,1-10.08,50.24,316.08,316.08,0,0,0,10.06-50.24c.24-2.13.36-4.26.55-6.39s.4-4.26.45-6.4L284,761c0-1.07.09-2.14.07-3.21l-.07-3.21c-.06-2.13-.07-4.27-.17-6.4l-.5-6.4c-.11-2.13-.47-4.25-.74-6.37s-.52-4.24-1-6.33A114.85,114.85,0,0,0,262.3,682a135.46,135.46,0,0,0-16.92-19.21c-6.16-5.94-12.67-11.5-18.69-17.57A99.48,99.48,0,0,1,210.9,625.1l-1.55-2.81c-.5-.94-1.06-1.86-1.47-2.85-.87-2-1.78-3.89-2.62-5.85l-2.18-6c-.38-1-.65-2-1-3s-.6-2-.86-3.09a123.12,123.12,0,0,1-3.91-25.31,121.64,121.64,0,0,1,1.24-25.58,80.78,80.78,0,0,1,3-12.47,36.26,36.26,0,0,1,5.8-11.38,11.58,11.58,0,0,1,5.09-3.79,6.28,6.28,0,0,1,3.18-.34,7.7,7.7,0,0,1,1.57.33,8.71,8.71,0,0,1,1.5.56c.25.11.5.2.74.32l.69.41c.46.27.95.51,1.38.82l1.3.95.64.48.61.53c.78.73,1.64,1.38,2.36,2.17l2.23,2.31a136.91,136.91,0,0,1,14.65,21c4.36,7.36,8.18,15,12,22.67h0a201.79,201.79,0,0,0,38.46,31.46h0a300.57,300.57,0,0,0,32.2,13.91q16.46,6.09,33.44,10.59t34.32,7.27c11.59,1.63,23.26,2.6,34.94,3.25,46.75,2.49,93.67-.1,140.08-6,23.22-2.94,46.28-7,69.2-11.69l8.59-1.81c2.86-.6,5.73-1.19,8.57-1.89l17.08-4c2.85-.64,5.67-1.43,8.5-2.16l8.49-2.23,8.49-2.23c2.82-.75,5.62-1.61,8.44-2.41l16.85-4.88,16.73-5.31,8.36-2.66,8.3-2.87,16.58-5.76c5.49-2,11-4.11,16.43-6.16s11-4.07,16.36-6.35c10.81-4.46,21.71-8.73,32.35-13.59a1117.69,1117.69,0,0,0,124.65-64.41c5.08-2.89,10-6.1,15-9.17l14.88-9.31c9.89-6.24,19.62-12.75,29.29-19.33q29-19.8,56.75-41.3c18.56-14.26,36.58-29.2,54.24-44.55s34.77-31.32,51.6-47.58a1301.52,1301.52,0,0,0,94.75-103.5Z"/><path class="cls-40" d="M1278.93,221.14a398.38,398.38,0,0,0,29-65.7,396.73,396.73,0,0,0,10.93-38.83"/><path class="cls-39" d="M1313.15,388.52a4.92,4.92,0,0,0-.21-2.49c-.21-.82-.48-1.61-.76-2.41l-1.73-4.75c-1.15-3.17-2.25-6.36-3.18-9.61a92.09,92.09,0,0,1-3.53-19.9,84.23,84.23,0,0,1,1.13-20.18c.26-1.67.66-3.31,1-5s.79-3.28,1.3-4.89l.73-2.43.83-2.39,1.68-4.77c4.57-12.69,8.51-25.6,12-38.64s6.48-26.19,8.82-39.46l.1-.54.32.44a111.69,111.69,0,0,1,12.1,21.19,114.7,114.7,0,0,1,7.45,23.22,96.31,96.31,0,0,1,1.84,24.31,88,88,0,0,1-1.52,12.12c-.79,4-1.92,7.91-2.93,11.85-2.17,7.85-4.81,15.55-7.62,23.18s-5.34,15.39-6.28,23.48a142.22,142.22,0,0,0-.6,24.33l.12,3.05.21,3,.43,6.08,1.14,12.14-1.2-12.13-.47-6.08-.23-3-.13-3a138.84,138.84,0,0,1,.48-24.38c.93-8.11,3.47-15.92,6.24-23.54s5.42-15.33,7.58-23.17c1-3.94,2.12-7.85,2.89-11.83a87.46,87.46,0,0,0,1.49-12.07,95.47,95.47,0,0,0-1.87-24.2,118.52,118.52,0,0,0-19.49-44.22l.42-.1c-2.38,13.29-5.44,26.44-8.91,39.48s-7.45,25.95-12,38.64L1309,314.6l-.83,2.38-.73,2.42c-.52,1.61-.88,3.25-1.31,4.88s-.75,3.28-1,5a85.82,85.82,0,0,0-1.18,20.12,91.83,91.83,0,0,0,3.41,19.88c.92,3.25,2,6.44,3.13,9.62l1.71,4.76c.27.8.54,1.6.75,2.42A5,5,0,0,1,1313.15,388.52Z"/><path class="cls-41" d="M1002,220.16c1.69-2.7,1.42-4.86,1-7.92-.24-1.73-.49-3.46-.78-5.17a16.76,16.76,0,0,1,.39-5.18,19.08,19.08,0,0,1,1.81-5.21c.18-.39,2.29-3.61,2.3-3.61.19.16.71,0,.46-.26l-.06-.06h0s0-.05,0,0h-.07a.35.35,0,0,0-.45,0l-.1.09c-3.9.94-6.1,5.49-7,9.05a19.12,19.12,0,0,0-.27,7.79c.23,1.41.63,2.8.86,4.22.18,1.08.44,4.6-1.12,5.06-.11,0-.23.18-.12.28C999.48,219.71,1001.28,221.35,1002,220.16Z"/><path class="cls-42" d="M1017,225.67c.55-3.85.46-6.8-1.7-10.11a109.41,109.41,0,0,1-6.54-10.63c-1.83-3.69-3.62-8.47-1.73-12.47.1-.2-.28-.17-.36,0s-.09.19-.14.28-.06,0-.07,0c-1.18,2-2.36,4.37-2,6.73a33.74,33.74,0,0,0,3,9c1.34,2.79,3,5.45,4.24,8.27s2.43,6.9,1.06,9.86a.11.11,0,0,0,.08.16C1014.33,227.17,1016.7,227.73,1017,225.67Z"/><path class="cls-43" d="M1008.65,226.3c1.08-5.21-.14-10-1.79-15a31.73,31.73,0,0,1-1.58-8.85c-.12-3.16-.54-6.91,1.56-9.51a.2.2,0,0,0,0-.13c-6.34,2.53-4.29,12.51-3.2,17.66.16.78.32,1.57.47,2.38.07.35.14.7.19,1a26.6,26.6,0,0,1,.44,5.37,14.46,14.46,0,0,1-1.75,7.08,17.89,17.89,0,0,0,5.07.2C1008.31,226.59,1008.6,226.53,1008.65,226.3Z"/><path class="cls-41" d="M1140.07,192.3c.1-.12,0-.24-.16-.25-1.62-.17-2-3.68-2-4.77,0-1.44.11-2.88.07-4.31a19,19,0,0,0-1.68-7.61c-1.57-3.33-4.57-7.4-8.58-7.61l-.11-.07a.34.34,0,0,0-.44.06h-.07a0,0,0,0,0,0,0h0l-.06.07c-.2.25.35.37.51.17,0,0,2.67,2.78,2.92,3.13a19,19,0,0,1,2.73,4.79,17,17,0,0,1,1.34,5c0,1.74.09,3.49.17,5.23.15,3.08.28,5.25,2.43,7.61C1138.08,194.83,1139.56,192.89,1140.07,192.3Z"/><path class="cls-42" d="M1127.65,202.32a.12.12,0,0,0,.06-.17c-1.89-2.66-1.5-6.89-.77-9.88s1.84-5.92,2.65-8.92a33.2,33.2,0,0,0,1.33-9.45c-.05-2.39-1.64-4.55-3.15-6.25a.06.06,0,0,0-.08,0c-.07-.09-.12-.18-.19-.26s-.48-.08-.35.1c2.59,3.58,1.7,8.61.58,12.57a109.35,109.35,0,0,1-4.48,11.65c-1.52,3.65-1.07,6.56.18,10.24C1124.09,203.93,1126.33,202.94,1127.65,202.32Z"/><path class="cls-43" d="M1131.75,201.05c-2-4.92-1.69-9.84-1-15a31.85,31.85,0,0,0-.06-9c-.46-3.13-.74-6.9-3.27-9.07a.21.21,0,0,1-.08-.12c6.69,1.33,6.51,11.51,6.38,16.78q0,1.2,0,2.43c0,.35,0,.71,0,1.06a26,26,0,0,0,.56,5.36,14.39,14.39,0,0,0,3,6.64,17.92,17.92,0,0,1-5,1.13C1132.14,201.28,1131.84,201.27,1131.75,201.05Z"/><path class="cls-28" d="M1087.07,289s-42.65-69.94-81.75-96c0,0,32.88-41.85,50.44-77.58,0,0,45.6,38.43,72.3,52.35C1128.06,167.77,1082.92,250.5,1087.07,289Z"/><path class="cls-43" d="M1062.41,175.55c-18.11,3.66-37.94,9-56.71,17,3.71-4.78,33.61-43.61,50.06-77.09C1055.76,115.42,1057.87,141.83,1062.41,175.55Z"/><path class="cls-41" d="M1062.41,175.55c-4.54-33.72-6.65-60.13-6.65-60.13s45.6,38.43,72.3,52.35A397.57,397.57,0,0,0,1062.41,175.55Z"/><path class="cls-44" d="M1005.32,193l.38-.49c18.77-7.91,38.6-13.3,56.71-17,5.06,37.56,13.12,84.19,24.66,113.49C1087.07,289,1044.42,219.1,1005.32,193Z"/><path class="cls-42" d="M1128.06,167.77s-45.14,82.73-41,121.27c-11.54-29.3-19.6-75.93-24.66-113.49A397.57,397.57,0,0,1,1128.06,167.77Z"/><path class="cls-30" d="M1087.22,289.49a.48.48,0,0,1-.57-.2c-.42-.7-43-70.15-81.6-95.89a.52.52,0,0,1-.21-.33.45.45,0,0,1,.1-.37c.33-.42,33-42.22,50.39-77.49a.51.51,0,0,1,.33-.26.49.49,0,0,1,.41.1c.46.39,45.86,38.56,72.21,52.29a.49.49,0,0,1,.24.29.48.48,0,0,1,0,.37c-.45.83-45,83-40.94,121a.43.43,0,0,1-.1.35A.48.48,0,0,1,1087.22,289.49Zm-31.3-173.31c-16.52,33.37-46.49,72.3-49.91,76.7,35.23,23.8,73.6,83.37,80.41,94.21-2.34-37.55,37.55-112.72,41-119.12C1102.36,154.77,1060.81,120.27,1055.92,116.18Z"/><path class="cls-30" d="M1128.43,168.07a.42.42,0,0,0,.1-.2.48.48,0,0,0-.37-.57c-.63-.14-64.45-13.7-123.11,25.29a.48.48,0,1,0,.53.81c58.31-38.76,121.74-25.3,122.38-25.16A.47.47,0,0,0,1128.43,168.07Z"/><path class="cls-30" d="M1087.44,289.34a.46.46,0,0,0,.08-.44c-25.14-81.4-31.22-172.6-31.28-173.51a.49.49,0,0,0-.51-.45.49.49,0,0,0-.45.51c.06.92,6.14,92.22,31.33,173.73a.48.48,0,0,0,.6.32A.53.53,0,0,0,1087.44,289.34Z"/><path class="cls-45" d="M1058.58,119.58s38.47,37.27,62.38,45.61C1121,165.19,1081.84,153.44,1058.58,119.58Z"/><path class="cls-46" d="M1009.67,193.24s36.16,27.94,69.51,82.13C1079.18,275.37,1052.52,219.81,1009.67,193.24Z"/><path class="cls-47" d="M1125.34,171.24s-32.83,45.19-38.88,108.52C1086.46,279.76,1081.83,225.72,1125.34,171.24Z"/><path class="cls-48" d="M1053.79,121.26s-19.22,43-41.88,65.43C1011.91,186.69,1043.7,159.88,1053.79,121.26Z"/><polygon class="cls-34" points="1082.62 152.59 1082.35 155.4 1079.89 156.77 1082.48 157.89 1083.03 160.65 1084.89 158.54 1087.69 158.87 1086.25 156.45 1087.43 153.89 1084.68 154.51 1082.62 152.59"/><polygon class="cls-34" points="1066.13 160.07 1065.98 161.57 1064.67 162.31 1066.05 162.9 1066.34 164.38 1067.34 163.25 1068.84 163.43 1068.07 162.13 1068.7 160.77 1067.23 161.1 1066.13 160.07"/><polygon class="cls-34" points="1064.87 136.36 1064.74 137.85 1063.44 138.59 1064.81 139.17 1065.11 140.63 1066.09 139.5 1067.58 139.67 1066.81 138.39 1067.43 137.03 1065.97 137.37 1064.87 136.36"/><polygon class="cls-28" points="1057.65 204.51 1057.38 207.32 1054.92 208.69 1057.51 209.81 1058.06 212.57 1059.92 210.46 1062.72 210.79 1061.28 208.37 1062.46 205.81 1059.71 206.43 1057.65 204.51"/><polygon class="cls-28" points="1064.78 235.99 1064.65 237.33 1063.47 237.99 1064.71 238.53 1064.97 239.86 1065.87 238.84 1067.21 239 1066.52 237.84 1067.09 236.61 1065.77 236.91 1064.78 235.99"/><polygon class="cls-28" points="1041.15 211.99 1041.01 213.49 1039.7 214.22 1041.08 214.82 1041.37 216.3 1042.37 215.17 1043.86 215.35 1043.1 214.05 1043.73 212.69 1042.26 213.01 1041.15 211.99"/><polygon class="cls-28" points="1039.9 188.28 1039.77 189.77 1038.47 190.5 1039.84 191.09 1040.14 192.55 1041.12 191.42 1042.61 191.59 1041.84 190.31 1042.46 188.95 1041 189.29 1039.9 188.28"/><polygon class="cls-35" points="1088.6 179.49 1088.33 182.3 1085.87 183.67 1088.46 184.79 1089.01 187.56 1090.87 185.44 1093.67 185.78 1092.23 183.35 1093.41 180.79 1090.66 181.41 1088.6 179.49"/><polygon class="cls-35" points="1079.28 207.43 1079.12 209.12 1077.64 209.94 1079.2 210.61 1079.52 212.27 1080.64 211 1082.32 211.2 1081.46 209.75 1082.17 208.21 1080.52 208.58 1079.28 207.43"/><polygon class="cls-35" points="1108.19 179.21 1108.04 180.89 1106.56 181.71 1108.11 182.38 1108.44 184.04 1109.56 182.78 1111.24 182.98 1110.38 181.52 1111.09 179.99 1109.43 180.35 1108.19 179.21"/><polygon class="cls-35" points="1085.82 244.96 1085.73 245.91 1084.9 246.38 1085.78 246.76 1085.96 247.7 1086.6 246.98 1087.55 247.1 1087.06 246.27 1087.46 245.4 1086.53 245.61 1085.82 244.96"/><polygon class="cls-36" points="1051.06 138.9 1050.97 139.85 1050.13 140.32 1051.01 140.7 1051.2 141.64 1051.83 140.92 1052.79 141.03 1052.3 140.21 1052.7 139.34 1051.76 139.55 1051.06 138.9"/><polygon class="cls-36" points="1033.35 170.62 1033.2 172.18 1031.84 172.94 1033.27 173.56 1033.58 175.1 1034.61 173.93 1036.17 174.11 1035.37 172.76 1036.03 171.34 1034.5 171.68 1033.35 170.62"/><polygon class="cls-36" points="1057.67 162.53 1057.59 163.36 1056.86 163.77 1057.63 164.1 1057.79 164.92 1058.34 164.29 1059.17 164.39 1058.75 163.67 1059.1 162.92 1058.28 163.1 1057.67 162.53"/><path class="cls-49" d="M218,530.26c-19.71-6.57-3.27,11.19,3,15.64,15.55,11,31.5,21.77,48.3,30.82A371.61,371.61,0,0,0,372.88,613.5c82.28,16.33,168-3.53,212.31-16.72,0,0,217.49-64.75,392.26-296.2,31.15-41.25,59.45-87.43,59.45-87.43,10.35-16.89,18.6-31.36,24.48-42"/><path class="cls-50" d="M1087.33,291.12s7.18-8.42,8.47-5.82,2.28,12.42-1.79,10.95A15.74,15.74,0,0,1,1087.33,291.12Z"/><path class="cls-50" d="M1087.41,291.23s-9.41-5.82-9.84-3,1.61,12.52,5,9.88A15.73,15.73,0,0,0,1087.41,291.23Z"/><path class="cls-51" d="M1090.31,304.31s7.56-4.75,7.91-2.46-1.3,10-4.06,7.94A12.37,12.37,0,0,1,1090.31,304.31Z"/><path class="cls-51" d="M1090.34,304.42s-5.76-6.65-6.8-4.56-1.84,9.94,1.44,8.73A12.9,12.9,0,0,0,1090.34,304.42Z"/><path class="cls-51" d="M993.81,280.18s7.48-4.7,7.84-2.41-1.22,10-4,7.92A12.56,12.56,0,0,1,993.81,280.18Z"/><path class="cls-51" d="M993.84,280.29s-5.78-6.7-6.8-4.61-1.76,9.93,1.49,8.74A12.61,12.61,0,0,0,993.84,280.29Z"/><path class="cls-49" d="M215,541.9s-39.57,34.84-32,134.58,35.53,50.78,25,187.18"/><polygon class="cls-1" points="1105.91 165.51 1041.46 241.3 988.75 191.87 1105.91 165.51"/><path class="cls-39" d="M1074.07,416.29a50.15,50.15,0,0,1-8.7-14.41,33.79,33.79,0,0,1-1.77-16.67,45.57,45.57,0,0,1,5.71-15.85,69,69,0,0,1,4.61-7.1l2.47-3.42c.42-.56.76-1.18,1.14-1.76s.77-1.18,1.09-1.8a66.9,66.9,0,0,0,6.38-15.55,96.06,96.06,0,0,0,3-16.57,129.65,129.65,0,0,0,.51-16.84,132.67,132.67,0,0,0-1.57-16.78l-.23-1.38.68,1.22a143.92,143.92,0,0,1,6.89,14.33,133.47,133.47,0,0,1,5.29,15,82.27,82.27,0,0,1,3,15.63,42.49,42.49,0,0,1-1.37,15.79,27.28,27.28,0,0,1-3.39,7.2c-1.41,2.24-2.9,4.44-4.45,6.59-3.08,4.32-6.55,8.34-9.55,12.69a26.47,26.47,0,0,0-3.51,7.06,23.78,23.78,0,0,0-.91,7.83,65.09,65.09,0,0,0,3.08,15.53,65.37,65.37,0,0,1-3.19-15.53,23.58,23.58,0,0,1,.86-7.88,26.51,26.51,0,0,1,3.48-7.13c1.47-2.22,3.11-4.3,4.73-6.4s3.24-4.19,4.78-6.34,3-4.34,4.43-6.58a27.28,27.28,0,0,0,3.33-7.13,42,42,0,0,0,1.32-15.67,82.3,82.3,0,0,0-3-15.55,131.79,131.79,0,0,0-5.31-14.93,146.44,146.44,0,0,0-6.9-14.27l.45-.17A125.36,125.36,0,0,1,1089,306.3a130.8,130.8,0,0,1-.56,16.91,95.94,95.94,0,0,1-3.08,16.62,67.2,67.2,0,0,1-6.45,15.61c-.33.63-.73,1.21-1.11,1.81s-.73,1.21-1.15,1.78l-2.48,3.42a66.77,66.77,0,0,0-4.62,7.05,45.57,45.57,0,0,0-5.71,15.74,33.58,33.58,0,0,0,1.64,16.59A50.08,50.08,0,0,0,1074.07,416.29Z"/></g></g></g></svg>