<svg id="Layer_1" data-name="Layer 1" xmlns="http://www.w3.org/2000/svg" viewBox="0 0 512 512"><defs><style>.cls-1{fill:#f8ec16;}.cls-2{fill:#fcf17f;}</style></defs><path class="cls-1" d="M202.3,499.28l12.11,2.27,13.67-74.5c-4.09-.6-8.13-1.36-12.11-2.25Z"/><path class="cls-1" d="M304,13.17,291.9,10.91,278.23,85.4q6.13.91,12.12,2.25Z"/><path class="cls-1" d="M397.57,163.57l61.86-42.92-7-10.24-61.87,42.93Q394.26,158.32,397.57,163.57Z"/><path class="cls-1" d="M108.74,348.88,46.88,391.81l7,10.24,61.87-42.93Q112.06,354.14,108.74,348.88Z"/><path class="cls-1" d="M84.11,283.12,10.43,297.61l2.35,12.2,73.67-14.48Q85.07,289.3,84.11,283.12Z"/><path class="cls-1" d="M422.2,229.33l73.69-14.48-2.36-12.2-73.67,14.48C420.79,221.14,421.56,225.21,422.2,229.33Z"/><path class="cls-1" d="M113.34,460.68l10.3,6.8,41.08-63.4q-5.28-3.22-10.3-6.81Z"/><path class="cls-1" d="M393,51.77,382.67,45l-41.08,63.4q5.28,3.22,10.3,6.81Z"/><path class="cls-1" d="M86.11,218.7,12.3,204.91l-2.24,12.22,73.81,13.79Q84.79,224.74,86.11,218.7Z"/><path class="cls-1" d="M422.44,281.54q-.92,6.18-2.23,12.22L494,307.55l2.25-12.22Z"/><path class="cls-1" d="M345,402l42.53,62.42,10.14-7-42.53-62.43Q350.17,398.62,345,402Z"/><path class="cls-1" d="M161.34,110.5,118.8,48.07l-10.14,7,42.53,62.44Q156.14,113.85,161.34,110.5Z"/><path class="cls-1" d="M279.81,426.81l14.35,74.36,12.09-2.37L291.9,424.46Q285.93,425.86,279.81,426.81Z"/><path class="cls-1" d="M226.5,85.64,212.15,11.28l-12.09,2.38L214.41,88Q220.38,86.6,226.5,85.64Z"/><path class="cls-1" d="M113.39,156.59,50.55,115.13l-6.74,10.41L106.64,167Q109.84,161.67,113.39,156.59Z"/><path class="cls-1" d="M392.92,355.86l62.84,41.46,6.74-10.4-62.83-41.45Q396.48,350.79,392.92,355.86Z"/><circle class="cls-2" cx="253.16" cy="256.23" r="164.22"/></svg>