<svg xmlns="http://www.w3.org/2000/svg" xmlns:xlink="http://www.w3.org/1999/xlink" viewBox="0 0 490 260"><defs><style>.cls-1{fill:none;}.cls-2{isolation:isolate;}.cls-3{fill:#ae6227;}.cls-4{fill:#f19626;stroke:#985d25;}.cls-11,.cls-15,.cls-4{stroke-miterlimit:10;}.cls-11,.cls-4{stroke-width:0.45px;}.cls-5,.cls-8{fill:#fbcf58;}.cls-5{opacity:0.44;}.cls-6{fill:#a07f51;}.cls-12,.cls-6{mix-blend-mode:multiply;}.cls-7{opacity:0.4;}.cls-9{fill:#c67129;}.cls-10{clip-path:url(#clip-path);}.cls-11{fill:#f7ece4;stroke:#c5a28a;}.cls-12{fill:#f6d7cc;}.cls-13{fill:#676767;mix-blend-mode:screen;}.cls-14{fill:#faaf64;opacity:0.79;}.cls-15{fill:#c56f29;stroke:#a45b26;stroke-width:0.23px;}</style><clipPath id="clip-path"><path class="cls-1" d="M419.34,90.46c-2.84,6.8,3.58,10.1,3.58,10.1a23.89,23.89,0,0,1-5.05,5.27c-2.74,1.89-9.05,4.63-11.79,6.94s-14.95,8-15.59,8.64-6.94-3.16-7.79-6.11-.21,5.9-.84,8-3.37-.42-5.9-2.1-1.47-1.69-1.89-.84-2.11,9.26-6.95,11.37S356,129,356,129s-10.32,8.63-17.06,9-4.84-4-4.84-4-5.48,7.16-14.53,8.64-11.58-8.85-11.37-8.22-7.16,12.43-15,10.74-1.06-4.42-1.06-4.42-8.21,5.48-10.74,4.63,2.32-7.58,2.32-7.58c-7.79,3.16-11.58,8.85-23.58,8.85s-12-3-14.75-7,.64,1.47-1.05,6.32-17.48-1.27-22.74-4.22,6.74-3.58,6.74-3.58-13.48-1.26-16,6.11-4.21-.42-11.79-4.42-7.16-9.06-6.74-5.48-13.26,3.37-17.05,0,0-4.84,0-4.84-17.27,1-19.8-1.68-5.69-7.16-6.32-7.16a12.06,12.06,0,0,0-6.74,2.73c-3.36,2.53-8.42-11.79-8.42-16.42s-1,.84-5.26,5.26-14.32-4.21-14.32-4.21l4.42-8.42c-6.74.21-14.32-9.48-14.32-9.48-2.11-10.11,5.26-10.32,6.74-20s3.79,8.84,3.79,8.84,17.89-40.19,29.11-44,84.81-23.54,166.94-14.78S437.63,46.77,419.34,90.46Z"/></clipPath></defs><g class="cls-2"><g id="Layer_1" data-name="Layer 1"><g id="n"><path class="cls-3" d="M463.09,120.7c-8.6-8.84-24.75-18.48-24.75-18.48,9.52,1.32,22.12,6.21,22.12,6.21-11.76-16.39-47-22.63-47-22.63l14.9-.65L402,75.64l18-2.3c-16.07-7.54-44.7-5.57-44.7-5.57l7.06-6.56L344,69.08l7.84-7.87-11.37-1c-16.07,9.84-56.32,6.23-56.32,6.23l15.68-11.36-58,11.36c-1.56-4.81,12.55-15.74,12.55-15.74C227.71,52,201.05,68.2,201.05,68.2l2.09-14L182.75,66.45l-23-12.24,7.32,12.24s-15.16-.87-37.64,0l2.09,5S107,70.17,82.91,77.17l12,1.09S60.43,88.1,56.25,99h7.06L35.6,129.86l22.48-9.18-7.84,14,6.79-2s-5.66,14.15-20,21.89l11.8-.58-.33.36c5.73-3.59,12.06-7,16.87-8.1L51.81,171l11.4,2.57L70,165.34,65.06,186s16-11.09,17.56-11.35l2.78,8.51s-7.71,7.73-7.71,17l7.71,3.2s11.09-20.73,32.66-21.5c0,0-2.77,23.46,0,28.61H123L135,195l3.39,21.13h10.17L176,202l-10.14,28.61S178.76,214.32,188,213.8c0,0,16.64,18.56,16.64,26h8.93l14.49-18.3a52.38,52.38,0,0,1,4.62,21.91l8,1.54s15.1-18.3,16-29.12c0,0,9.86,15.72,10.79,23.19l8-.25,1.54-13.15,6.78,8.76,8.94-.25V214.83s14.48,14.7,16,22.17l8.32-1s-2.16-20.62-5.24-28.1c0,0,20.95,12.38,28,22.69l-2.46-18.05L351.32,211l5.24,15.21h5.24s1.85-13.15,2.47-16.5,13.86.26,15.71,8c0,0,1.85-20.36,8-22.17s16.64,5.67,16.64,5.67l-1.85-20.1,18.49,8.76-4.93-13.92s26.81-11.6,27.73-11.6-6.47-5.92-6.47-5.92l-19.41.25,33.59-4.38L431.13,146s17.26-2.32,27.43,3.61l-14.18-15.46,19.72,3.35-13.55-10.83,22.36,5.47Z"/><path class="cls-4" d="M462.84,91.62C454,81.25,437.48,69.94,437.48,69.94c9.75,1.56,22.67,7.29,22.67,7.29C448.09,58,411.92,50.7,411.92,50.7l15.27-.77L400.27,38.78l18.48-2.69c-16.47-8.84-45.81-6.54-45.81-6.54l7.23-7.69-39.38,9.23,8-9.23-11.65-1.15C320.69,32.24,279.43,28,279.43,28l16.08-13.32L236,28c-1.61-5.63,12.86-18.45,12.86-18.45-27.33,1.54-54.66,20.51-54.66,20.51l2.14-16.41L175.47,28,151.9,13.66,159.4,28s-15.54-1-38.58,0l2.14,5.9s-25.19-1.54-49.83,6.67l12.32,1.28S50.08,53.39,45.8,66.21H53l-28.4,36.14,23-10.76-8,16.4,7-2.31s-14.82,23.78-29.51,32.85l21.1-7.86-.33.42c5.87-4.21,12.36-8.22,17.28-9.5l-13.89,29,11.68,3,7-9.67-5.05,24.17s16.42-13,18-13.29l2.85,10s-7.9,9.06-7.9,19.94l7.9,3.76s11.37-24.31,33.48-25.21c0,0-2.84,27.5,0,33.54h5l12.32-18.13L130,203.49h10.42l28.08-16.62-10.39,33.54s13.27-19,22.74-19.64c0,0,17.06,21.76,17.06,30.52h9.16l14.84-21.45a68.58,68.58,0,0,1,4.74,25.68l8.22,1.82s15.47-21.46,16.42-34.15c0,0,10.11,18.43,11.06,27.2l8.21-.31,1.58-15.41,7,10.28,9.16-.31V202s14.84,17.22,16.42,26l8.53-1.21s-2.21-24.18-5.37-32.94c0,0,21.48,14.51,28.75,26.59l-2.53-21.15,14.21-1.81,5.37,17.83H359s1.9-15.42,2.53-19.34,14.21.3,16.11,9.36c0,0,1.89-23.87,8.21-26S402.92,186,402.92,186L401,162.39l19,10.28-5.06-16.32s27.48-13.6,28.43-13.6-6.63-6.95-6.63-6.95l-19.9.3L451.25,131l-21.17-9.67s17.69-2.72,28.12,4.23l-14.53-18.13,20.21,3.93L450,98.63l22.93,6.4Z"/><path class="cls-5" d="M92.88,136.61s6.32-6.52,21.9-1.86c0,0-12.11-7.52-13.87-5.33,0,0,3.32-4.28,18.86,3.69,0,0-13.19-8.23-20.59-8.05,0,0,5-2.24,12.81,1.81L98.8,121.2s8.17.55,18.72,7.75A67.34,67.34,0,0,0,101,118.4s5.53,1,13.09,5.8c0,0-6.22-5.39-10.94-7,0,0,2.71.25,10.12,5A110.87,110.87,0,0,0,103,114.75s6.18,2.07,14.32,9.52c0,0-11.91-13.32-12.47-16.11,0,0,9.84,4.52,15,8.68s-9.8-13.74-9.8-13.74l18,7.3L109.42,90.73l21.71,8.55-12-9.6,17,5L123.55,83,143,91.56,123.31,77l-6-2.64s5.61-1.32,13.3,3.94c0,0-7.94-6.38-10.9-6.94,0,0,2.31-.52,7.08,2.26,0,0,4,3.07,6,4.8a38.58,38.58,0,0,0-17-11.07s1.89-1.89,9.38,3.17l-7.3-6.79s9.71,6.85,12,9.63-3.43-6.58-8.26-9c0,0,5.29,2.37,7.81,5.36s-1-4.71-8.09-9c0,0,6.53,2.47,9.51,6.55,0,0-.39-5-6.42-9.84a73.9,73.9,0,0,1,9.17,7.35s-.62-4.6-7.63-9.28c0,0,11.41,5.27,15.1,8.46l-2-3.22L128.78,51.8l21.28,15.62.67-4.72-6.81-9.1L128.79,26.43s.55,16,7.34,21.71c0,0-11.3-8-14-13.42,0,0,.86,6.16,8.56,11.72l-6,.61s-10-8.62-10.18-11.11c0,0,2.62,9.15,8.53,13.57l-5.69,5.16s.59-11.33-4.47-16.7c0,0-4.79,13.68,2.5,19.2L102.93,44.83a39.75,39.75,0,0,0,11.16,13.85s-11.68-6.8-15-7.3c0,0,10.32,8.39,13.09,9.68,0,0-12.85-6.88-13.66-2.66,0,0,7.38,5.38,11.49,7.3L97.52,64.5s8.54,3.93,13.54,9.4l-14.7-7,9.79,10.19L92.39,66.73s4.71,8.82,11.21,13.51c0,0-15.57-3.71-16.19-2.2s13.45,8,13.45,8L89.29,82.5s.84,4.1,6.88,7l-6.62-.21,13.29,10.28S89.06,90.15,86,94.86c0,0,9.57,5.29,14.81,7.31L89.71,98.71l8.67,6.43S83.06,98.81,81.1,94.42c0,0,4.72,9.9,10.68,13.11l-8.32-1,12.79,6.28s-19-4.56-20.44-4.42,3.86-.34-1.39.14,19.46,7.39,19.46,7.39l-15.65-1L91.7,122l-18-1.55,19.61,6.61Z"/><path class="cls-6" d="M106,90.24s7.58,9.69,14.32,9.48l-4.42,8.42s10.1,8.64,14.32,4.21,5.26-9.89,5.26-5.26,5.06,19,8.42,16.42a12.06,12.06,0,0,1,6.74-2.73c.63,0,3.79,4.42,6.32,7.16s19.8,1.68,19.8,1.68-3.8,1.47,0,4.84,17.47,3.58,17.05,0-.84,1.48,6.74,5.48,9.27,11.79,11.79,4.42,16-6.11,16-6.11-12,.64-6.74,3.58,21.06,9.06,22.74,4.22-1.68-10.32,1.05-6.32,2.74,7,14.75,7,15.79-5.69,23.58-8.85c0,0-4.84,6.74-2.32,7.58s10.74-4.63,10.74-4.63-6.74,2.74,1.06,4.42,15.16-10.1,15-10.74,2.31,9.69,11.37,8.22S334.06,134,334.06,134s-1.9,4.43,4.84,4S356,129,356,129s6.32,4.84,11.16,2.74,6.53-10.53,6.95-11.37-.63-.85,1.89.84,5.27,4.21,5.9,2.1,0-11,.84-8,7.16,6.74,7.79,6.11,12.85-6.32,15.59-8.64,9.05-5,11.79-6.94a23.89,23.89,0,0,0,5.05-5.27s-12.42-5.69-19.79-5.69-12.21,5.69-6.11-4.63,3.37-5.68.42-4.42-6.1,10.11-5.26-.84.84-10.11-1.69-8.43-3.58,2.53-4.21-5.47-1.68-5.27-5.47-1.47,2.53,8.42-11.58,4.21-11-2.32-16.64-4.43-9-7.37-9-8.63-9.27,15.37-11.8,2.32-2.1-18.53-3.37-15.16-.42,5.47-4.63,8-5.9-9.27-8.42-2.74-1.06,12.21-3.58,4-4.21-15.58-6.11-8.63-9.69-1.9-13.9,3.37-7.16-6.14-7.16-6.14,1.48-3.18-3.58,0-3.16,1-7.16,0-2.1-4.87-9.37,0-13.37.87-14-2.5,3.77-9.05-3,0-31.79,24.85-30.73,13.48.21-11.79-2.11-5.9-6.32,10.32-9.27,3.58S202.45,53,197,57s-1.47-3.16-10.74,3.16-10.53,13.06-11.16,6.32.21-12-5.26-6.11-6.95-1.47-9.06-4.63-.42.84-5.9,6.1-12.84,15-14.74,6.53,4.85-9.9-3.58-2.53-12.21-20-13.47-6.94-6.53,20.21-6.53,20.21-2.32-18.53-3.79-8.84S103.89,80.13,106,90.24Z"/><g class="cls-7"><path class="cls-8" d="M209.44,219.81c-.67.05-1.69-3.43-1.6-9.23a59.65,59.65,0,0,1,5-21.92,76.22,76.22,0,0,1,11.74-19c3.7-4.35,6.48-6.58,7-6.14s-1.2,3.49-4,8.25a156.83,156.83,0,0,0-10,18.93,95.41,95.41,0,0,0-6.08,20.27C210.48,216.3,210.19,219.77,209.44,219.81Z"/><path class="cls-8" d="M199.55,181.37c-.66-.27-.67-2-.11-4.45a39.77,39.77,0,0,1,3.53-9.35,37.37,37.37,0,0,1,3-4.74,25.26,25.26,0,0,1,3.08-3.45c2-1.79,3.55-2.48,4.05-2s-.06,2-1.15,4.21c-.56,1.09-1.21,2.37-2,3.77l-2.41,4.6c-1.71,3.27-3.33,6.28-4.74,8.39S200.21,181.64,199.55,181.37Z"/><path class="cls-8" d="M138,208.2c-.62-.3.87-5.13,4.28-12.51,1.71-3.69,3.91-8,6.58-12.68a150.13,150.13,0,0,1,9.51-14.79c1.87-2.53,3.79-4.93,5.77-7.16a81.55,81.55,0,0,1,6-6.12A62.54,62.54,0,0,1,182,146.41a68.58,68.58,0,0,1,8.8-4.12c2.14-.8,3.41-1.08,3.57-.77s-.78,1.2-2.62,2.54-4.57,3.12-7.8,5.42a81.16,81.16,0,0,0-10.5,8.89c-1.83,1.83-3.68,3.83-5.51,6s-3.64,4.48-5.43,6.9c-3.59,4.86-6.75,9.73-9.6,14.19s-5.33,8.53-7.43,12C141.28,204.25,138.64,208.51,138,208.2Z"/><path class="cls-8" d="M182.54,164.91c-.69-.13-1.08-1.63-.95-4a28.9,28.9,0,0,1,7-16.41c1.6-1.71,3-2.46,3.53-2.06s.31,1.89-.42,4-1.91,4.79-3.19,7.77-2.44,5.7-3.43,7.67S183.24,165.05,182.54,164.91Z"/><path class="cls-8" d="M232.41,227.59c-.62-.35.94-4.34,3.9-10.51s7.25-14.54,11.67-23.87c2.19-4.67,4.17-9.16,5.9-13.27.82-2.07,1.66-4,2.35-5.88.35-.93.72-1.82,1-2.68s.62-1.7.91-2.49c2.32-6.35,3.67-10.38,4.41-10.23.35.07.46,1.17.35,3.12,0,.48-.07,1-.13,1.62s-.16,1.22-.27,1.9c-.21,1.36-.45,2.92-.86,4.6-.19.85-.4,1.74-.61,2.66s-.51,1.86-.79,2.85c-.53,2-1.23,4-2,6.21-1.53,4.32-3.43,9-5.67,13.77a200,200,0,0,1-13.16,23.47C235.71,224.6,233,227.94,232.41,227.59Z"/><path class="cls-8" d="M295,194.41c-1.4.42-4.6-6.3-8.61-14.41s-7.35-14.76-6.16-15.6c.57-.4,2.2.78,4.24,3.15a53.33,53.33,0,0,1,10.63,21.59C295.68,192.2,295.62,194.2,295,194.41Z"/><path class="cls-8" d="M356.35,206.83c-.74.1-1.71-3.19-4.2-8-1.23-2.44-2.82-5.29-4.65-8.49s-3.83-6.67-6.07-10.22a108.61,108.61,0,0,0-12.92-17c-3.73-4-6.42-6.23-6-6.88s3.81.63,8.44,4.18,10.2,9.47,14.85,16.91a105.34,105.34,0,0,1,5.91,10.77,69,69,0,0,1,3.82,9.32,26.7,26.7,0,0,1,1.33,6.78C356.92,205.86,356.69,206.78,356.35,206.83Z"/><path class="cls-8" d="M376.15,188.13c-1.47-.07-2-9.36-5.52-19.94-.44-1.32-.89-2.61-1.35-3.84s-.93-2.4-1.4-3.48A36.27,36.27,0,0,0,365,155.4c-1.9-2.94-3.72-4.38-3.39-5.06q.14-.24.63-.24a3.88,3.88,0,0,1,1.36.27,12.2,12.2,0,0,1,4.17,2.65,23.64,23.64,0,0,1,4.39,5.72,37.87,37.87,0,0,1,1.84,3.72,46.38,46.38,0,0,1,3.84,19.36C377.64,185.78,376.84,188.15,376.15,188.13Z"/><path class="cls-8" d="M378.18,159.62c-.5.51-1.69.25-3.22-.49s-3.39-1.92-5.37-3.12-3.75-2.17-5.11-3-2.31-1.44-2.28-2.16,1.17-1.34,3.11-1.38a13.47,13.47,0,0,1,7,2.11,16.52,16.52,0,0,1,5.12,4.79C378.37,157.91,378.66,159.11,378.18,159.62Z"/><path class="cls-8" d="M442,137.37c-.25.74-3.48.12-8.65-.14-2.58-.15-5.64-.23-9.05-.11s-7.18.41-11.14.83-7.76.92-11.24,1.34-6.54.78-9.1,1.19c-5.12.78-8.24,1.7-8.57,1-.15-.31.45-1,1.75-1.84a27.57,27.57,0,0,1,5.93-2.73,72.15,72.15,0,0,1,9.25-2.34c3.47-.68,7.32-1.34,11.43-1.77a80.29,80.29,0,0,1,11.71-.46,50.92,50.92,0,0,1,9.57,1.26,35.13,35.13,0,0,1,3.57,1,27.51,27.51,0,0,1,2.59,1.09C441.41,136.48,442.09,137,442,137.37Z"/><path class="cls-8" d="M411.35,124.46c.48,1.37-5.39,4.63-12.53,8.53s-13.09,7-14,5.88c-.42-.56.54-2.11,2.58-4.07a43.48,43.48,0,0,1,8.93-6.33,42.75,42.75,0,0,1,10.17-4C409.28,123.78,411.11,123.81,411.35,124.46Z"/><path class="cls-8" d="M108.83,155.92c-.44-.53.8-2.42,3.43-4.83a43,43,0,0,1,4.92-3.84A54,54,0,0,1,131,140.63a42.45,42.45,0,0,1,6.08-1.46c3.52-.54,5.78-.34,5.93.34s-1.79,1.75-4.9,3.15l-5.43,2.4c-2,.91-4.25,1.92-6.56,3s-4.47,2.22-6.45,3.24l-5.27,2.74C111.32,155.62,109.29,156.49,108.83,155.92Z"/><path class="cls-8" d="M119.63,185.57c-.69-.09-1-2.95-.8-7.55a62.47,62.47,0,0,1,1-8.08,53.49,53.49,0,0,1,2.74-9.75,40.63,40.63,0,0,1,5-9,30,30,0,0,1,5.89-6.06,18.25,18.25,0,0,1,4.95-2.81c1.29-.44,2.08-.47,2.24-.17.36.68-1.88,2.38-4.7,5.63a45,45,0,0,0-4.44,6.07,53.61,53.61,0,0,0-4.09,8.24,143.87,143.87,0,0,0-4.88,16.51C121.31,182.94,120.35,185.66,119.63,185.57Z"/><path class="cls-8" d="M71.38,156.32c-.32-.17-.19-1.06.33-2.54.13-.37.28-.78.46-1.22s.42-.9.66-1.39a32.83,32.83,0,0,1,1.84-3.29L75.86,146c.43-.64.92-1.26,1.42-1.92a48.83,48.83,0,0,1,3.38-4,58.81,58.81,0,0,1,19.6-13.9,51.79,51.79,0,0,1,4.93-1.86c.79-.25,1.54-.52,2.28-.71l2.14-.51a33.36,33.36,0,0,1,3.71-.66c.55-.07,1.06-.14,1.54-.17l1.31,0c1.57,0,2.46.17,2.52.52s-.71.85-2.11,1.44c-.35.15-.75.3-1.17.46l-1.38.57c-1,.41-2.12.79-3.33,1.34l-1.92.79c-.66.27-1.33.61-2,.93-1.42.6-2.88,1.39-4.43,2.16a82.94,82.94,0,0,0-18.28,13c-1.24,1.21-2.46,2.32-3.5,3.46-.53.57-1.07,1.09-1.55,1.62l-1.38,1.55c-.91,1-1.65,1.9-2.35,2.7l-1,1.1c-.29.35-.56.67-.82,1C72.41,155.93,71.69,156.49,71.38,156.32Z"/><path class="cls-8" d="M92.35,124c-.39-.55.53-2.07,2.84-3.51a19.83,19.83,0,0,1,10-2.64,26,26,0,0,1,9.94,1.89c2.37,1,3.66,2,3.48,2.71s-1.82.9-4.25.84-5.67-.33-9.11-.3a50.31,50.31,0,0,0-8.73.87C94.3,124.25,92.76,124.59,92.35,124Z"/><path class="cls-8" d="M57.88,142.47c-.6-.32.52-3.86,3.37-9.1.36-.65.75-1.33,1.14-2s.87-1.42,1.33-2.16c.92-1.5,2-3,3.13-4.64a100,100,0,0,1,17.56-18.67c1.55-1.24,3-2.41,4.45-3.41.71-.51,1.4-1,2.08-1.46l2-1.27c5.07-3.17,8.54-4.51,8.9-3.94.81,1.28-11,9.53-23,22.36S59.22,143.19,57.88,142.47Z"/><path class="cls-8" d="M51.11,114.27c0-.75,2.45-1.41,6-3.15a48.09,48.09,0,0,0,6-3.5,70.21,70.21,0,0,0,6.69-5.32c2.31-2,4.47-4.11,6.5-6s3.86-3.45,5.28-4.83,2.47-2.57,3.24-3.42,1.28-1.33,1.63-1.21.44.86.17,2.11a15.29,15.29,0,0,1-2.21,4.81,49.08,49.08,0,0,1-4.73,5.87,81.73,81.73,0,0,1-6.45,6.48,44.17,44.17,0,0,1-7.62,5.51,28.77,28.77,0,0,1-7.24,2.89,16.31,16.31,0,0,1-5.24.5C51.81,114.93,51.13,114.61,51.11,114.27Z"/><path class="cls-8" d="M63.19,91.7c-.45-.52,1.64-3.22,5.7-6.88,1-.91,2.15-1.89,3.41-2.89s2.62-2,4.08-3.1a116.1,116.1,0,0,1,9.91-6.34c3.64-2,7.22-3.79,10.53-5.23,1.67-.7,3.26-1.36,4.77-1.9s2.93-1,4.24-1.43c5.24-1.59,8.63-2,8.85-1.35C115.14,64,102.88,69,88.84,77S64.17,92.82,63.19,91.7Z"/><path class="cls-8" d="M78.37,55.84c-.18-.46,2.82-2.26,8.14-4.05l2.1-.68c.74-.22,1.51-.41,2.31-.62,1.59-.45,3.32-.78,5.14-1.16A106.41,106.41,0,0,1,108,47.82a148.77,148.77,0,0,1,21.72.2c5.52.47,8.91,1.07,8.9,1.6s-3.45.9-9,1.13-13.09.36-21.39.92c-4.15.29-8.08.7-11.64,1.17-1.77.27-3.47.48-5,.77-.78.14-1.55.26-2.28.4l-2.09.41C81.89,55.49,78.58,56.37,78.37,55.84Z"/><path class="cls-8" d="M50.4,82.86c-.31-.65.76-1.83,2.62-3.31s4.5-3.31,7.44-5.25,5.65-3.67,7.75-4.81,3.59-1.65,4.08-1.12-.18,2-1.75,3.92a34.14,34.14,0,0,1-7.22,6.29,33.7,33.7,0,0,1-8.62,4.19C52.32,83.48,50.69,83.5,50.4,82.86Z"/><path class="cls-8" d="M169.54,42.39c-.4.4-1.81-.42-4.27-.88a40.85,40.85,0,0,0-4.47-.58l-5.74-.52c-8.13-.75-14.81-1.16-14.88-2.24,0-.53,1.64-1.12,4.4-1.48a50.67,50.67,0,0,1,10.83-.12,59.17,59.17,0,0,1,5.91.84,20,20,0,0,1,4.86,1.53A8.54,8.54,0,0,1,169,41C169.58,41.71,169.71,42.2,169.54,42.39Z"/><path class="cls-8" d="M201.66,50.68c-.49-.13-.46-2.32.45-5.68.23-.84.51-1.75.87-2.71s.78-2,1.24-3a47.87,47.87,0,0,1,3.71-6.53,48.19,48.19,0,0,1,4.75-5.81c.82-.82,1.6-1.59,2.38-2.26s1.52-1.27,2.22-1.79c2.82-2.07,4.85-2.89,5.15-2.48.66.91-5.7,6.24-11.3,14.52S202.76,51,201.66,50.68Z"/><path class="cls-8" d="M232.52,29.16c.95.53-.81,5.44-2.9,11.41s-3.83,10.89-4.9,10.71c-.52-.1-.76-1.49-.6-3.68A32.88,32.88,0,0,1,226,39.29a33.37,33.37,0,0,1,3.77-7.63C231,29.85,232.05,28.91,232.52,29.16Z"/><path class="cls-8" d="M279.06,21.15c.56,1-5.44,5.41-12.36,11.36S254.4,43.64,253.55,43c-.4-.34.43-2.11,2.29-4.61A58.88,58.88,0,0,1,274.15,22.7C276.91,21.26,278.79,20.71,279.06,21.15Z"/><path class="cls-8" d="M270.24,35.37c.38,1-2.95,3.17-7.44,4.87s-8.44,2.27-8.82,1.28,3-3.18,7.45-4.88S269.86,34.37,270.24,35.37Z"/><path class="cls-8" d="M338.93,24.82c.54.9-8.56,7.29-20.82,13.34s-22.87,9.41-23.26,8.44,9.43-5.9,21.54-11.9S338.38,23.89,338.93,24.82Z"/><path class="cls-8" d="M336.63,45.4c-.21-.45,2.53-2.28,7.42-4.32L346,40.3c.67-.26,1.38-.49,2.11-.75,1.47-.53,3.07-1,4.75-1.47a107.08,107.08,0,0,1,11.09-2.4,130.57,130.57,0,0,1,20.46-1.59c5.24,0,8.48.42,8.5.94s-3.18,1.13-8.33,1.79-12.26,1.43-20,2.67c-3.87.63-7.54,1.33-10.86,2-1.65.38-3.23.71-4.69,1.09-.73.18-1.44.34-2.12.52l-1.95.52C340,45,336.86,45.92,336.63,45.4Z"/><path class="cls-8" d="M417.67,50.37c-.14.54-3.61.07-9.24.32-2.82.1-6.21.34-10,.59s-7.89.56-12.21.95c-17.31,1.52-31.25,3.94-31.5,2.87-.11-.51,3.25-1.78,8.87-3.15a156.51,156.51,0,0,1,22.28-3.56c4.39-.39,8.59-.6,12.41-.66s7.26,0,10.18.23a33.09,33.09,0,0,1,6.85,1.2C416.92,49.65,417.73,50.12,417.67,50.37Z"/><path class="cls-8" d="M392.91,59.66c-.28,1.06-8.61-.33-18.88-1.41s-18.69-1.55-18.74-2.65c0-.52,2.1-1.1,5.57-1.42a72,72,0,0,1,13.59.23,71.05,71.05,0,0,1,13.32,2.68C391.1,58.14,393,59.15,392.91,59.66Z"/><path class="cls-8" d="M454,97.8c-.93,1.13-11.64-6.19-25.16-14.55S404,68.49,404.61,67.16c.3-.63,3.55.15,8.49,2.16a135.43,135.43,0,0,1,35.19,21.84C452.27,94.69,454.41,97.25,454,97.8Z"/></g><path class="cls-9" d="M104.35,79.08s19.26.75,32.28,14c0,0-3.64-12.49-9.63-12.49,0,0,11.53-.07,19,15,0,0-3.9-13.61-14.06-18.61,0,0,10.42,2.22,14.06,9.81l-8.17-12.19s10,5.92,12.08,17.15a26.56,26.56,0,0,0-4.43-17.15,24.26,24.26,0,0,1,7.81,12.19s.65-7.25-2.86-11.41c0,0,3.18,2,5.21,9.71A41.4,41.4,0,0,0,154.2,74s4.78,5.39,3.26,15.1c0,0,6.26-15.54,10.15-17.46,0,0,5.6,9.26,5.6,15.11S183,72.44,183,72.44l11.85,16.41,7.81-23.7,14.71,19.66V71.27l14.45,14.45,2.47-15.1L246,88.72,244,67.11l-3.65-5.6s9.68,3.13,11.2,11.32c0,0,0-9-3-11.32a10.08,10.08,0,0,1,5.68,6.12s.2,4.42,0,6.77c0,0,4.48-9-4.31-17.84,0,0,5.66.26,7.23,8.2L258.74,56s1.56,10.46,0,13.58,6.38-6,4-10.68c0,0,3.13,5,1.5,8.34s6.58-3.26,4.23-10.55c0,0,4.59,5.86,1.77,10.16,0,0,7.8-3,7.8-9.85a27.09,27.09,0,0,1,0,10.37s6.83-3,5.27-10.37c0,0,6.45,10.76,6.06,15l2.73-3.12,1-11.93,2.4,23.25,8.73-2.14,6.05-9.7,25-25.4S309.51,52.19,309,60c0,0-1.83-12.18,3.64-17,0,0-9.08,4-8.07,12.35l-9.07-3.82s1-11.64,4.91-13.14c0,0-11.72,6.86-11.2,13.36l-16.14-1.07s19.61-5.85,21.78-12.29c0,0-29.1,4.25-28.57,12.31l4-15.34s-8.79,7.1-8.13,15.32c0,0-4.26-11.79-7.85-14.35,0,0-.21,11.72,1.35,14.35,0,0-5.69-12.64-13.78-10.87,0,0,.89,8,3.17,11.94L230.36,42.5s4.85,8,2.42,14.5l-7.91-14L221,55.36,219.81,40.2s-8.39,8.11-7.51,15.16c0,0-14.58-12.75-17.92-12.35S199,56.67,199,56.67l-9.56-9.9s-5.7,2.84-2.46,8.59l-8.47-4.67.62,14.82s-2.7-14.69-14.68-14.23c0,0,4,9.51,7.58,14.23l-9-9.51.86,9.51s-9.9-14-5.21-17.8c0,0-10.15,8.7-7.55,14.57L141.84,56l6.61,12.26s-17.8-15.62-19.89-16.5,5.7,2.47-2.1-.89,13.65,17.47,13.65,17.47L121,57l6,13.23L105.62,57l15.13,17.14Z"/><g class="cls-10"><path class="cls-11" d="M364.75,52S318.87,31.5,275.43,96.66c-38.72,58.06,33.2,81.52,33.2,81.52s44.43,17.39,67.52-43.65S370.46,54.35,364.75,52Z"/><path class="cls-12" d="M376.15,134.53c7.62-20.14,9.58-35.72,8.6-47.64-.5,10.34-3,22.86-8.74,37.93-23.09,61-67.51,43.65-67.51,43.65s-40-13.06-44.29-43.79c-4,37.72,44.42,53.5,44.42,53.5S353.06,195.57,376.15,134.53Z"/><path class="cls-13" d="M356.22,122.71c-17.32,22.2-44.83,29.7-61.44,16.74s-16-41.46,1.31-63.66S340.92,46.08,357.53,59,373.55,100.5,356.22,122.71Z"/><path class="cls-12" d="M346.65,150.78c-1.89,5.32-5.54,8.89-8.14,8s-3.18-6-1.29-11.32,5.54-8.89,8.15-8S348.54,145.45,346.65,150.78Z"/><path class="cls-12" d="M325.5,107.89c-2.58,4.09-6.84,6-9.5,4.37s-2.73-6.37-.15-10.46,6.84-6,9.5-4.36S328.08,103.8,325.5,107.89Z"/><path class="cls-12" d="M371.21,103.7c-1.42,4-4.67,6.44-7.27,5.52s-3.57-4.89-2.16-8.87,4.67-6.44,7.27-5.51S372.62,99.73,371.21,103.7Z"/><path class="cls-12" d="M302,148.18c-1.12,3.15-3.71,5.12-5.78,4.38s-2.83-3.89-1.71-7.05,3.71-5.12,5.78-4.38S303.1,145,302,148.18Z"/><path class="cls-12" d="M288.26,106.56c-2.12,2.4-5.12,3.21-6.68,1.82s-1.13-4.47,1-6.86,5.12-3.21,6.69-1.82S290.39,104.16,288.26,106.56Z"/><path class="cls-12" d="M332.75,57c-2.87,1.41-5.59,1.76-6.07.78s1.45-2.92,4.33-4.33,5.59-1.77,6.08-.78S335.63,55.59,332.75,57Z"/><path class="cls-11" d="M203.14,44.26S148.77,55.49,151.82,142c2.72,77.08,82.38,51.73,82.38,51.73s51.08-13.06,32.43-82.72S209.79,42.7,203.14,44.26Z"/><path class="cls-12" d="M266.63,111c-6.16-23-14.44-38.23-23-48.29,6.22,9.6,12,22.46,16.63,39.67,18.66,69.65-32.42,82.71-32.42,82.71s-44.33,14.11-68-10.72c20.76,36.4,74.36,19.35,74.36,19.35S285.28,180.64,266.63,111Z"/><path class="cls-13" d="M241.12,113.22c-1.22,31.11-21.06,55.58-44.32,54.67s-41.12-26.87-39.91-58S178,54.35,201.22,55.26,242.34,82.12,241.12,113.22Z"/><path class="cls-12" d="M250.64,144.59c1.74,6,.77,11.55-2.16,12.4s-6.72-3.33-8.46-9.33-.77-11.55,2.17-12.4S248.9,138.59,250.64,144.59Z"/><path class="cls-12" d="M204,119.75c.33,5.34-2.23,9.84-5.7,10.05s-6.55-4-6.88-9.29,2.24-9.83,5.71-10S203.68,114.42,204,119.75Z"/><path class="cls-12" d="M242.3,86.51c1.3,4.47,0,8.79-3,9.64s-6.36-2.09-7.65-6.57,0-8.79,3-9.64S241,82,242.3,86.51Z"/><path class="cls-12" d="M208.88,171.07c1,3.56,0,7-2.35,7.66s-5.06-1.66-6.09-5.22,0-7,2.36-7.66S207.85,167.51,208.88,171.07Z"/><path class="cls-12" d="M169.72,142.58c-.35,3.52-2.52,6.18-4.82,5.94s-3.89-3.28-3.53-6.8,2.52-6.18,4.83-5.94S170.08,139.06,169.72,142.58Z"/><path class="cls-12" d="M177.67,69.41c-1.66,3.12-3.88,5.18-4.95,4.61s-.57-3.56,1.1-6.67,3.88-5.19,4.94-4.63S179.34,66.29,177.67,69.41Z"/></g><path class="cls-14" d="M164.74,197.22l-24.15,10.93H132.2l-3.9-28.94-13.61,22h-3.57s-1.05-30.76,3.57-35.06c0,0-30.91-.13-39.5,25.32l-4-1.49s2-12.86,10.22-20.88l-7-10.7L59.17,168.91l4-23-10.21,8.59-7-1.06L59.17,123.6s-11.05,1.87-24.6,10.55l18.75-27.73-7.82,2,5.61-17L37.3,97.47,57.72,67.61l-4.4-1.22S73.8,49,92.26,44.92l-5.55-3.56a148.36,148.36,0,0,1,43-3.57l-3.83-6.46L164.74,30,159.93,24l16.4,7.32,16.15-11-2.09,13.13S228.28,12.69,240,14.25c0,0-8.17,10.62-7.21,19.17l57.36-13.85,5.37-4.65L236,28.85S235.91,24,248.89,9.56c0,0-21.54-1.66-54.66,21.43l2.14-17.14-20.9,15-23.57-15,7.5,15H120.82L123,35S95.67,32.6,73.13,42l12.32,1.34S50.08,53.45,45.8,68.77H53l-28.4,37.78,23-11.25-8,17.14,7-2.41s-15,23.46-29.51,34.33c0,0,27.39-11.13,38.05-17.7L41.25,157l11.68,3.16,6.6-8.35-4.7,23.52,18-13.9,2.85,10.42a30.47,30.47,0,0,0-7.9,20.85l7.9,3.92s12.58-26,33.48-26.35c0,0-2.74,26,0,35.06h5l12.32-18.95,3.48,25.9h10.42Z"/><path class="cls-15" d="M41.25,88.85S55.07,75.36,67.44,76.44c0,0-18.08,10.78-18.22,15.08,0,0,19.57-13.28,37.87-11.8,0,0-40.14,15.09-40.14,24.86L78.76,86.52S65.71,101.45,50.07,107.6L82.24,95.28s-22.12,17.89-30.41,22.17l26.93-10.06s-14.35,16.42-29.92,21.16L80,115.94S74.61,124.53,56,133.79l29.67-8.41L67.05,142.13l9.47-4.38-7.3,10.62s16.07-18.6,24.6-17.44c0,0-7.86,15.68-17.12,22.92,0,0,14.45-13.1,22.52-10.92,0,0-6.83,14.16-11.34,20.24,0,0,22.2-21.7,33.14-19,0,0-9.55,24.53-14.11,28.86L121,158.17l-3.52,18.59,14.37-26.54,2.83,29.33,5.24-14.9s4.17,2.66,2.27,13c0,0,8.9-20,13.67-20.72s0,24.85,0,24.85,5.69-10.55,9.11-10.89,3.8,12.57,3.8,12.57l11.76-20.25.38,29,13.28-21.36,4.26,22.62L203,180.92s6.4,9.18-2,19.54l22.07-23.09,8.44,25.45h7.07l6-24.85s10.4,16.57,5.63,28.7c0,0,5.88-22.42,6.44-24.23s10.16,9.14,7.64,19.79l4-14.5,7.1,13.32s-4.17-17.46,0-21.9,9.11,21.31,9.11,21.31l2.28-15.1a17.1,17.1,0,0,1,5.31,12.83s4.22-12.76,4-21.7,11.59,21.7,11.59,21.7-.75-17.35,6.84-25.15,4.93,22.39,4.93,22.39,10.25-21.81,25.05-24.52c0,0-10,11.4-9,21.36,0,0,10-20.72,26-21.36,0,0-17.43,13.47-12.12,21.36l17.08-7.2L364,175.3s9.62,7,9.09,17c0,0,8.16,0,0-21.36,0,0,11.14,2.69,11.74,11.53,0,0-.91-22.82,8.2-22.23l3.32,19.23a32.29,32.29,0,0,0,3.13-26.92s15.16,3.08,15.93,15.74c0,0-3.47-20,5.1-18.47l6.21,11.84s3.13-16.9-7.88-22.18c0,0,14.8,3.6,15.94,16.32a19.19,19.19,0,0,0-4.17-16.32s11.38,4.2,10.62,14.4c0,0,6.46-13.23-12.14-24.3,0,0,19,5,21.65,15.3,0,0,3.62-14.09-21.27-19.47,0,0,22.94-8.17,25.32-.58,0,0-3.69-9.56-17.35-7.35,0,0,15.18-9.31,20.11,0,0,0-7.38-3.71-3.6-12.33s6.89,13.23,6.89,13.23,5.06-10.82,10.38-11.11L464.07,126s15.94-4.07,19.35-.6c0,0-14.42.92-18.21,8.41,0,0,6.45-2.8,14.8,3.67l-17.08.29a28.1,28.1,0,0,1,15.18,11.79L459.89,144s14.8,5,17.84,14.18c0,0-12.52-7.85-19.36-7.49,0,0,14.81.74,12.91,20.23,0,0-9.83-13.6-20.48-12.74,0,0,12.51,12.17,9.47,24.27l-15.94-14.18s6.87,5.86,6.47,20.06c0,0-8.75-18.64-15.2-18.64,0,0,14.8,17.76,5.31,35.51,0,0-6.63-20.41-14.13-18.64,0,0,8.06,10.25,2,24.8,0,0-6.1-17.11-13.3-17.4l2.67,26.33-15.38-22.09s10.07,15,4,28.9c0,0-14.41-11.54-15.37-17.46L383,213.36s-3.89,6.63,8.44,13.73c0,0-15.32,2.37-22.56-9.17a23.4,23.4,0,0,1,0,16.57l-10.28-14.8v11.25L348.31,220s4.17,12.13-1.14,18.64a17.83,17.83,0,0,0-10.47-11.84l-7-5s10.56,6.81,7,16.87c0,0-15-6.51-16.48-13.91,0,0-7.27,8.58-2.69,17.46,0,0-12.87-14.2-12.87-16.57,0,0-3.8,6.21-.76,10.65,0,0-8.77-.59-7.8-14.2,0,0-8.9,10.95-2.83,18.64,0,0-12.8-2.66-12.47-13.61,0,0-5.37,6.21-4.23,16.57l-12.28,4.44s7.35-13.32-4-22.19c0,0-11.39,15.09-1.14,22.19,0,0-15.78-2.66-14.53-18.94,0,0-7.1,11.25-2.55,18.94l-10.48,2.37,4.24-21.31L223.11,249l-2.33-18.35-4,13.61L214,227.09l-4,18.94s-18.57-10.36-11.43-26.93c0,0-7.68,13-4.26,20.12,0,0-9.87-.59-9.87-21.6,0,0-7.21,11.24-3,16.87L171,215.55s-2.38,18.64,3.4,22.78c0,0-14.27-3.49-14.3-25,0,0-7.63,5.74-5,12.55,0,0-10.25-4.74-2.28-20.42,0,0-9.17,10.95-7.05,21.9l-4.34-24.86-1.89,18.94-4,3.84-6.27-31.66,2.56,28.41-15.09,1.48,6.08-31.27-10.81,28.31-12.83-9.23,9.31-17.4L92.11,213.36S87.29,198.09,96,193.65c0,0-15.61-1.48-14.1,15.39,0,0-8.4-10.41,1.14-19.83,0,0-14.32.59-12.09,11.25l-7.26-2.27,9.49-20.82-11.77,14.9L53,194l11-24.27L53.4,186.55l5.08-23.13S41.74,178,44.15,187.73c0,0-11.14-15.47,0-24.31,0,0-12.39-1.73-12.76,11.59s0-2,0-2-9.11-14.61,8.35-17c0,0-10.63-6.63-15.57,5.56,0,0-5.31-16.15,9.11-18.7,0,0-14.42-4.38-14.8,3.93,0,0-4.55-12.4,11.77-11.8,0,0-16.32.79-21.26-9.08a99.14,99.14,0,0,0,22,3.57s-26.57-6.63-24.3-24.09l19.45,15.69L9.37,102.22l16.79,10.7,4.09-27.58,2.65,9.94Z"/></g></g></g></svg>