<svg id="Layer_1" data-name="Layer 1" xmlns="http://www.w3.org/2000/svg" viewBox="0 0 600 512"><defs><style>.cls-1,.cls-7{fill:#c7c2b5;}.cls-2,.cls-6{fill:#f4f0df;}.cls-17,.cls-18,.cls-2,.cls-3,.cls-4,.cls-7{stroke:#333;stroke-miterlimit:10;}.cls-17,.cls-2,.cls-3,.cls-4,.cls-7{stroke-width:0.87px;}.cls-3,.cls-8{fill:#df771f;}.cls-4,.cls-5{fill:#ff912a;}.cls-9{fill:#2c1f21;}.cls-10{fill:#2e1e20;}.cls-11{fill:#ffdd7c;}.cls-12{fill:#ceb062;}.cls-13{fill:#613e40;}.cls-14{fill:#4a9544;}.cls-15{fill:#347230;}.cls-16{fill:#fff;}.cls-17,.cls-18{fill:none;}.cls-18{stroke-width:0.85px;}</style></defs><g id="t"><path class="cls-1" d="M144,474.49c.75-10.73,5.87-23.84,13.9-27l1.21-.47-1.3-.15a22.46,22.46,0,0,0-2.69-.17,21.48,21.48,0,0,0-3.7.33C143,448.55,137,462,136.17,473.53c-.29,4.16.86,7.4,3.42,9.64a15.2,15.2,0,0,0,9.77,3.56l.21-.6a11.51,11.51,0,0,1-2-1.42C144.86,482.32,143.65,478.88,144,474.49Z"/><path class="cls-1" d="M155.74,480.54c-1.59-4.9,3.65-19.38,6.19-23.54a16,16,0,0,1,9.51-6.69l.81-.19-.72-.41a20.27,20.27,0,0,0-9.78-2.58,19,19,0,0,0-3.76.37c-7.68,1.54-13.25,15.2-14,27-.27,4.23.79,7.53,3.15,9.81,3.11,3,7.92,3.65,11.4,3.65q.6,0,1.17,0l.27.14.35-.55A13.64,13.64,0,0,1,155.74,480.54Z"/><path class="cls-2" d="M147.79,186.11s2,17.29-3.12,43.56,26.09,71.17,26.09,71.17L236.18,292l12-118.43-24.38-18.75-44.32,2.11Z"/><path class="cls-3" d="M228.53,346.08l0,.25c-.67,4.13-4.06,25.4-4.67,39.69,0,.31,0,.62-.05,1-.09,2.83-.19,6.11-.29,9.63-.43,16.8-.56,39.12-.35,45.22.15,4.27-1.32,7.76-3,11.8a55.8,55.8,0,0,0-3.67,10.73,47.92,47.92,0,0,0-.81,7.54c-.29,5.83-.56,10.83-6.19,14.14l-.23.13a33.43,33.43,0,0,0-2-8.77c-.2-.52-.4-1-.61-1.55-.28-.69-.57-1.36-.89-2-.23-.45-.42-.9-.65-1.26-.07-.11-.12-.23-.18-.34s-.25-.41-.3-.49c-.41-.77-.83-1.51-1.28-2.25-5.47-9.32-14.66-17.92-25.79-19.42a19.62,19.62,0,0,0-2.31-.14h-.77l-.62,0,.33-.53a4,4,0,0,0,.52-1.26l.05-.18.18,0a24.53,24.53,0,0,1,7-1c.79,0,1.54,0,2.25.08a25.75,25.75,0,0,0-3.72-.26,26.08,26.08,0,0,0-5.15.52l-.44.1.05-.46c.24-2.29.55-5.44.82-8.86.14-1.67.26-3.4.36-5.12.19-3,.29-6,.26-8.66,0-.86-.07-1.74-.17-2.66a61.16,61.16,0,0,0-1.36-8.09c-.93-4.27-2.27-9.28-3.9-15.31-1.9-7.11-4.22-15.77-6.78-26.43l-1.77-7.64c-.89-4-1.66-7.7-2.34-11.23-.17-.85-.33-1.67-.49-2.5v0c-1.38-7.39-2.38-13.77-3.17-19.29-.36-2.51-.67-4.83-1-7,0-.26-.08-.54-.11-.8-.73-5.39-1.3-9.6-2-12.7s-2-7.54-3.41-12.72c-1.25-4.44-2.62-9.35-3.89-14.22a171.24,171.24,0,0,1-3.8-17.57c0-.2,0-.41-.08-.62-1.29-10.13-.15-24.6,3.46-43,.33-1.69.65-3.3,1-4.81l.65.09c-1.24,28.94,10.08,53.67,20.08,72l.08.17c2.59,4.75,9.93,18,16.11,26.92l.19.26a53.58,53.58,0,0,0,5.21,6.62c7,7.12,12.75,11.46,26.52,16.88,4.18,1.66,8.54,3.48,12.95,5.41Z"/><path class="cls-4" d="M142.17,266.09a164.4,164.4,0,0,0,3.57,16.64c.83-1.08-1.06-10.68-1.06-10.68s16.78,10,20.94,14.3c-8.93-17.46-19.55-43.08-18.45-68.6l-.65-.09c-.32,1.51-.64,3.12-1,4.81-3.61,18.4-4.75,32.87-3.46,43C142.12,265.68,142.14,265.89,142.17,266.09Z"/><path class="cls-5" d="M201.54,466.67a76.65,76.65,0,0,0,.64-19.3c-.73-7.54-2.3-16.29-5.62-23.22-2.46-5.11-6.88-9.7-13.15-8.23a15,15,0,0,0-7.39,4.57c0,.37.09.76.12,1.12.1.92.15,1.8.17,2.66,0,2.62-.07,5.63-.26,8.66-.1,1.72-.22,3.45-.36,5.12-.27,3.42-.58,6.57-.82,8.86l-.05.46-.1.59-.05.18a4,4,0,0,1-.52,1.26l-.33.53.62,0h.77a19.62,19.62,0,0,1,2.31.14C187.53,451.38,196,458.48,201.54,466.67Z"/><path class="cls-1" d="M205.41,471a48.92,48.92,0,0,0-6.17-8.92c-7.29-8.47-16-13.13-24.59-13.13-.38,0-.77,0-1.15,0a15.19,15.19,0,0,0-11.82,7.09c-2.58,4.22-7.86,19.27-6.36,23.91,1.82,5.63,5.11,8.5,11,9.6a100.62,100.62,0,0,0,16.08,1.13h0c7,0,17-.56,24.55-3.25a21.15,21.15,0,0,0,2.89-1.26l.12-.06a33.57,33.57,0,0,0-4.24-14.62A3.88,3.88,0,0,1,205.41,471Z"/><path class="cls-6" d="M155.91,446.86a18.81,18.81,0,0,0-2.35-.16,18.23,18.23,0,0,0-3.4.33c-5.9,1.16-10.54,9.36-12.72,18.34a6.27,6.27,0,0,0,5.91,1.3C145.37,457.78,149,448.1,155.91,446.86Z"/><path class="cls-6" d="M171.54,449.48a24.06,24.06,0,0,0-9.79-2.35,19,19,0,0,0-3.76.37c-6,1.21-10.75,9.9-12.86,19.27a15,15,0,0,0,10.71,2.89C157.62,459.66,162.5,448.86,171.54,449.48Z"/><path class="cls-6" d="M201.37,466.38c-.64-.85-2-2.45-2.72-3.28-7-8.17-15.46-12.67-23.72-12.67l-1.11,0a14.64,14.64,0,0,0-11.4,6.84,60.11,60.11,0,0,0-4.8,12.27C162.53,475.93,196.94,478.49,201.37,466.38Z"/><path class="cls-7" d="M295.85,465.63c-1.79-6-6-9.38-11.67-9.38-4.95,0-8.18,1.94-9.88,5.94-1.85,4.31-2.29,30.76,0,35.22,1,1.95,4.25,3.53,8.1,3.95a17.85,17.85,0,0,0,2,.1c4.42,0,8.17-1.49,10.32-4.1C299.73,491.19,297.51,471.15,295.85,465.63Z"/><path class="cls-4" d="M444.94,382.36c-1.25-6.09-1.68-9-3.76-22.79l-.73-4.94q-.49-3.24-.89-7.63l0-.31c-1.52-17.47-1.21-43.63-.26-60.54.35-6.36,1.36-15.75,2.44-25.76,1.66-15.31,3.54-32.66,3.15-41.07a35.9,35.9,0,0,0-1.93-8.91s0,0,0,0c-.25-.8-.54-1.62-.86-2.46a113.9,113.9,0,0,0-5.7-12.88v0c-.64-1.31-1.35-2.59-2.07-3.9-6.08-11.07-13.9-22-21-27.86-.54-.44-1.08-.86-1.62-1.24-.86-.61-1.69-1.2-2.54-1.72a44.17,44.17,0,0,0-16.75-6.74c-1.74-.32-3.54-.57-5.46-.73-2.38-.22-4.9-.32-7.62-.32-1.94,0-3.95,0-6,.14h0c-1.46,0-2.92.13-4.36.19-2.07.13-4.1.26-6,.4a135.9,135.9,0,0,0-15.29,2q-3.36.61-6.63,1.33c-3.38.72-6.69,1.5-9.82,2.32l-1.57.41c-4.9,1.28-9.38,2.58-13.11,3.67l-3.36,1c-1.18.34-2.28.69-3.26,1s-2,.59-2.72.77a17.12,17.12,0,0,1-4.18.47,44,44,0,0,1-12.77-2.36l-.33.54c.79.77,1.58,1.56,2.33,2.31.56.56,1.1,1.1,1.62,1.64-.55-.51-1.14-1-1.73-1.57-2.53-2.26-5.3-4.66-7.92-6.8-1.79-1.46-3.49-2.8-5.05-3.92a25.67,25.67,0,0,0-4.67-2.8,37,37,0,0,0-5.52-1.61c-1.93-.42-4-.8-6.1-1.13-5.19-.82-10.14-1.31-11.68-1.46l-1.43,0,.14,1.82c1,5.13.83,8.92,2.7,14.09-.52-4.42-1.38-10.45-2.7-16.43-.46-2.15-1-4.3-1.59-6.36-.69-2.36-1.43-4.64-2.22-6.82a138.26,138.26,0,0,0-7.94-17.94l-1.1-1.63c0,1,.23,3.94.17,10.58,0,0-.33.22-.58-.82l-.92-2.87,0,8.29c-.74,7.08-1.05,15.58-8.1,22.64,5.39-8.21,2.18-4.61,2.67-6.28l-2.21,3.66a29.92,29.92,0,0,1-7.74,7.56l-.21.15.1.24a139.44,139.44,0,0,1,6.19,18.86c.4,1.56.76,3.2,1.1,4.89a112.91,112.91,0,0,1,2.18,23.65c0,2.7-.14,5.5-.37,8.39,0,.18,0,.37-.05.55-.25,2.84-.59,5.76-1.09,8.75a139,139,0,0,1-6.7,25.85c-7.32,20.33-.19,45,10.21,57.93l.67.82s-.23-2.85-.32-4.07c.34,2.95.72,6.18,1.13,9.52v0c.55,4.56,1.16,9.33,1.8,13.78.87,6,1.77,11.44,2.65,15.21,2.1,9,4.51,21.39,6.4,33.81.59,3.85,1.12,7.7,1.58,11.45.58,4.66,1,9.18,1.33,13.36.07.82.12,1.66.2,2.51.19,2.51.41,5.11.65,7.78.05.71.12,1.43.19,2.15l0,.26c.32,3.77.67,7.65,1,11.55,0,.74.1,1.48.16,2.22.1,1.52.22,3,.3,4.55v0c.11,1.8.21,3.6.29,5.37.35,8.3.27,16.05-.8,22.11l-.06.43.42-.05c.31,0,.64-.05.95-.05a14.57,14.57,0,0,1,6,1.51l.22.09.16-.16c2-2.15,4.57-3.15,8.06-3.16,4.26,0,7.25,1.31,8.85,3.83l.3.45.28-.46c1.81-3.2,5-4.82,9.34-4.82a11.3,11.3,0,0,1,8.37,3.49l.21.23.23-.2a11.67,11.67,0,0,1,6.69-2,7,7,0,0,1,.92.05l.64.05-.33-.54c-3.93-6.71-4.33-11.23-4.33-20.7,0-.69,0-1.46.05-2.33,0-.65,0-1.38.08-2.13.25-5.16.87-12.42,1.77-20.66.09-.92.2-1.86.31-2.81.69-6.19,1.53-12.84,2.48-19.51l.15-1.09c.59-4,1.19-8,1.85-11.89.39-2.36.78-4.8,1.18-7.3.19-1.31.39-2.63.6-4,.61-4.09,1.2-8.31,1.74-12.53v0c.26-1.93.51-3.84.74-5.77.56-4.52,3.24-8.3,3.67-12.66,0-.54-1-2.4-1-2.95,1-10.94,2.25-18.16,2-25.5,0-.69-.31-3.44-.36-4.19-.11-2.54-.54-5.52-.85-8.58-1-9.69-6.35-37.69-6.47-40.12,1.38,8,4.31,26,5.74,39.92.21,2.16.52,5.67.7,8.47.05.79.08,1.56.1,2.28.1,3.16.05,7-.15,11.31l0,.28.28.05a9.14,9.14,0,0,0,1.76.16c3,0,6.09-1.31,8.37-2.26,8.87-3.72,16.39-6.19,24.22-6.19h.35a27.52,27.52,0,0,1,18.4,6.83l.49-.43-.62-.93a92.24,92.24,0,0,1,6.82,9c7.39,11.6,17.05,27.69,21.09,38.46,9.21,24.55,8.27,52.47,6.49,63.8A60.21,60.21,0,0,1,388.68,448l-.23.36.41.12a10.91,10.91,0,0,1,3,1.46l.18.11.2-.11a10.81,10.81,0,0,1,5.46-2.07l1,0c6.54,0,9.55,3.19,10.54,4.57l.13.16.19,0a20,20,0,0,1,3-.23,12.17,12.17,0,0,1,11,5.1c.21.23.39.49.59.74a2.14,2.14,0,0,0,.13.19l.64.9q.45.69.84,1.35h0a2.22,2.22,0,0,1,.15.23l.14.23a23.73,23.73,0,0,1,2.84,7.15s.08.42.23,1.11a.23.23,0,0,0,0,.07,3.52,3.52,0,0,0,.09.42c.13.51.22,1,.31,1.58s.18,1,.26,1.5c.24,1.38.47,2.82.56,3.94l.08,1,.52-.9c1.92-3.3,2.17-7.92,2.53-14.39.16-3.18.36-6.77.78-10.83,1.43-13.65,3.74-23.94,6.43-35.91.49-2.19,1-4.44,1.52-6.8C445.62,393.8,446.3,389.06,444.94,382.36ZM275.49,451.47a73,73,0,0,0-11.49.92,55.71,55.71,0,0,1,11.31-1.15,57.67,57.67,0,0,1,10,.88A74.54,74.54,0,0,0,275.49,451.47ZM398,444.23h-1.26a31.64,31.64,0,0,1,3.73-.21,33.85,33.85,0,0,1,11.9,2.15A55.28,55.28,0,0,0,398,444.23Z"/><path class="cls-7" d="M163.56,199.92c13.08,5.36,28.78,3.27,40.66-4.08,8.32-5.15,15.66-13.22,21.2-21.93A152.63,152.63,0,0,0,220.29,159l-.15-.37-.34.21a31.1,31.1,0,0,1-10.56,4.33c.44-.24,4.86-2.3,5.38-2.59l-.56-.72c-4.94,1.69-14.61,4.83-21.58,5.59-9.41,1-19,6.42-23.83,10.63-2.6,4.4-5.62,10.43-12.13,12.54a29.42,29.42,0,0,1-8.4,1.35h-.32C152.7,193.9,157.76,197.54,163.56,199.92Z"/><path class="cls-7" d="M232.74,312.51c0-1.34-.26-2.91-.31-3.53v-.1l-.07-.08c-4.73-5.52-8.72-13.31-11.21-22-18.14,13.62-45,13.71-55.52-.45.57,1.07,1.13,2.14,1.7,3.17.14.26,13.06,27.56,19.24,35.51,11.74,15.11,52.7,25.23,52.7,25.23S233.59,321.91,232.74,312.51Z"/><path class="cls-8" d="M444.23,382.36c-1.25-6.09-1.67-9-3.75-22.79l-.74-4.94q-.5-3.24-.88-7.63l0-.31c-.35-4-.6-8.43-.77-13.09a47,47,0,0,1-5.55,9.92c-8.53,11.4-19.59,6.58-28.48-2-16.51-16-25.36-47.58-52.73-45.42-7,.55-27.13,4.63-38.56.52a201.45,201.45,0,0,0-8.58-37.8c0-.05-.06,0-.06,0,1.62,12,3.37,24.11,5.24,36.13-.11-.07-.23-.13-.34-.21.21,2.18.48,5.28.64,7.82.05.79.09,1.56.1,2.28.1,3.16.05,7-.15,11.31v.28l.28.05a9,9,0,0,0,1.75.16c3,0,6.1-1.31,8.37-2.26,8.87-3.72,16.39-6.19,24.22-6.19h.35c7.09.06,13.8,2.55,18.4,6.83l.49-.43-.62-.93a90.67,90.67,0,0,1,6.82,9c7.39,11.6,17.06,27.69,21.09,38.46,5.15,13.71,7.12,28.48,7.56,40.82,1.62-5,4.12-9.63,8.79-11.87,6.3-3,11.56.65,14.48,6.3,9.09,17.62,5.28,40.56,1.17,60.85l.19.23c.21.23.39.49.59.74a1.07,1.07,0,0,0,.13.19c.21.31.42.61.64.9.29.46.57.91.83,1.35h0a.9.9,0,0,1,.15.23l.15.23a23.44,23.44,0,0,1,2.83,7.15s.08.42.23,1.11a.12.12,0,0,0,0,.07,3.43,3.43,0,0,0,.08.42,15.77,15.77,0,0,1,.31,1.58c.08.47.18,1,.26,1.5.25,1.38.48,2.82.56,3.94l.08,1,.53-.9c1.91-3.3,2.16-7.92,2.52-14.39.16-3.18.36-6.77.79-10.83,1.42-13.65,3.73-23.94,6.42-35.91.49-2.19,1-4.44,1.52-6.8C444.92,393.8,445.59,389.06,444.23,382.36Z"/><path class="cls-8" d="M310.41,301.15c0-.69-.05-1.42-.1-2.18-.11-2.51-.53-10.91-.53-10.91s-13.66,40.87-36.09,22.79c-8.41-6.78-30.15-43.39-37.86-40.19-6.77,2.81-6.77,8.7-14,12.34a61,61,0,0,0,10.46,21.05l.67.82s.72,4.8.8,5.46v0c.56,4.55,1.16,9.32,1.81,13.78.86,6,1.76,11.44,2.65,15.21,2.1,9,4.51,21.38,6.39,33.8.59,3.86,1.13,7.71,1.59,11.46.57,4.65,1,9.18,1.33,13.36.06.81.11,1.65.19,2.5.2,2.51,2,26.81,2,27.16,1.44-18.64,18.52-22,29.51-16.89,13.26,6.15,8.09,31.35,18,45.1a12.77,12.77,0,0,1,2.27-.21,8.92,8.92,0,0,1,.91.05l.64.05-.33-.54c-3.93-6.7-4.32-11.22-4.32-20.7,0-.68,0-1.46.05-2.32,0-.66.05-1.38.08-2.13.24-5.16.87-12.43,1.77-20.67.08-.92.2-1.85.31-2.8.69-6.2,1.52-12.85,2.48-19.52,0-.36.09-.72.14-1.08.59-4,1.2-8,1.85-11.9.4-2.36.79-4.8,1.18-7.29.2-1.31.4-2.64.61-4,.61-4.1,1.2-8.31,1.74-12.54v0c.26-1.93.5-3.83.73-5.76.56-4.53,1.05-9,1.48-13.38.05-.54.1-1.08.16-1.62A247.64,247.64,0,0,0,310.41,301.15Z"/><path class="cls-4" d="M521.31,377.39a6.7,6.7,0,0,0-5.26-2,12,12,0,0,0-7.36,2.54,63.85,63.85,0,0,1-12.78,8,19.23,19.23,0,0,1-8.5,2.33c-4.64,0-9.08-2.5-14.85-8.34-8.83-8.93-11.32-24.21-15.45-49.53l-.39-2.4c-3.11-19-3.42-37.69-3.7-54.18-.12-6.94-.24-13.5-.55-19.35a120.83,120.83,0,0,0-6.34-31.72l-.64.1c-.1,9.06-1.67,23.52-3.19,37.63-1.08,9.94-2.1,19.34-2.45,25.68-.94,16.95-1.26,43.11.27,60.54,4.67,38.7,22.56,55.91,32.4,60a43.85,43.85,0,0,0,16.18,3.11h0A37.59,37.59,0,0,0,515.42,399C525.13,389.68,524.66,381.54,521.31,377.39Z"/><path class="cls-8" d="M520,376.32c-6.82,9.62-15.88,18.21-27.1,20.68-15.73,3.48-32.76-8.66-38.42-23-3.58-9.07-7.92-33.32-8.29-69-.13-12.65,0-25.32.05-38,.05-7,.32-24.5-.91-39.61-.6,6.55-2.21,25.95-3,33.06-1.08,9.94-2.1,19.34-2.45,25.68-.94,16.95-1.26,43.11.27,60.54,4.67,38.7,22.56,55.91,32.4,60a43.85,43.85,0,0,0,16.18,3.11h0A37.59,37.59,0,0,0,515.42,399c9.71-9.28,9.24-17.42,5.89-21.57A4.71,4.71,0,0,0,520,376.32Z"/><path class="cls-9" d="M451.33,243.93c-.38-2.47-.81-4.85-1.29-7.07a46.74,46.74,0,0,0-5.51,1.82c-.23,2.53-.49,5.19-.76,7.89C446.27,245.63,448.8,244.75,451.33,243.93Z"/><path class="cls-9" d="M453.8,281.71c0-1.49-.39-4.63-.41-6.1a88.71,88.71,0,0,0-13.07,1.79c-.17,2-.3,5.13-.4,6.76C444,282.72,449.23,282.2,453.8,281.71Z"/><path class="cls-9" d="M453.8,299.61c-.16-2.87-.28-5.7-.38-8.49a89.76,89.76,0,0,0-14,4.65c-.08,2.32-.15,4.73-.2,7.18A117.3,117.3,0,0,1,453.8,299.61Z"/><path class="cls-9" d="M455.18,313.55c-.12-1.7-.2-3.71-.29-5.41-5.33.36-10.95.84-15.83,3.82,0,1.37,0,4.52,0,5.9A29.48,29.48,0,0,1,455.18,313.55Z"/><path class="cls-9" d="M440.33,348.31c.46,3.48,1,6.78,1.69,9.92a58.13,58.13,0,0,1,18.24-9.39c-.47-2.46-1.11-6.16-1.58-8.9C458.44,340,445.93,345.26,440.33,348.31Z"/><path class="cls-9" d="M463.82,363.78c-.52-1.69-1-3.45-1.49-5.34a155,155,0,0,0-18.76,6.22,100.23,100.23,0,0,0,3.36,10.21A81.28,81.28,0,0,1,463.82,363.78Z"/><path class="cls-9" d="M457.38,332.05c-.09-.55-.18-1.07-.27-1.63l-.39-2.4c-.3-1.81-.53-3.6-.78-5.4a53.12,53.12,0,0,0-16.75,5.8c.1,4,.25,7.89.46,11.57A67.22,67.22,0,0,1,457.38,332.05Z"/><path class="cls-9" d="M452.83,264.6c-.05-2.23-.12-4.41-.2-6.5-3.64.79-7.53.57-10.91,2.29-.19,1.79,0,5.22-.16,6.95C445.26,266.25,449.06,265.43,452.83,264.6Z"/><path class="cls-7" d="M305.15,459.53a11.28,11.28,0,0,0-6.17-1.67,13.47,13.47,0,0,0-7.22,1.93l-.29.21.23.27a15.43,15.43,0,0,1,2.89,5.19c1.44,4.4,4.19,22.56-.28,30.61l-.11.2.15.17c1,1.16,3.19,2,5.61,2.21.27,0,.6,0,1,0h0a13.77,13.77,0,0,0,10.25-4.52c2.37-2.57,3.17-8.1,2.19-15.17C312.17,470.3,308.56,461.75,305.15,459.53Z"/><path class="cls-7" d="M274.82,461.9l.08-.17-.11-.16c-2.09-2.94-6.4-4.27-9.62-4.27-6.08,0-10.45,2.35-13.46,13.8-2.93,11.14-2.94,20.61,0,25.34,1.35,2.19,4.77,3.83,8.72,4.18.5.05,1,.07,1.51.07A17.5,17.5,0,0,0,274,495.86l.13-.13,0-.18C272.49,487.83,272.92,466.17,274.82,461.9Z"/><path class="cls-7" d="M369.71,317.22l-.2-.3c-4.46-6.68-13-10.87-22.37-10.95h-.32c-8.25,0-16.13,2.63-25.44,6.59-2.55,1.09-5.74,2.44-8.85,2.44a9.8,9.8,0,0,1-1.74-.15l-.39-.07,0,.4c-.38,8.08-1.19,17.63-2.39,28.36l-.06.54.51-.17c19.65-6.57,41.93-14,61-26.5Z"/><path class="cls-7" d="M338.2,460.19l.06-.39c2.24-14,7.41-17.63,11.36-18.19a16,16,0,0,1,1.92-.14l0-.33h0v-.36A48.54,48.54,0,0,0,340.77,438a9,9,0,0,0-1.36-.11,8,8,0,0,0-4.74,1.54c-4.67,3.35-8.12,13.55-8.71,19.32-.44,4.24.79,7.25,4,9.76,1.71,1.33,4.55,2.1,7.79,2.1a24.57,24.57,0,0,0,4.67-.47l.81-.16-.66-.42A8.87,8.87,0,0,1,338.2,460.19Z"/><path class="cls-3" d="M392.4,358.7c-4.53-11.78-15.41-30.4-22.69-41.35l-.45-.78-10.52,6.91c-11,5.88-14.58,8-30.67,13.75l-.32.11.12.32c.69,1.84,7.2,15.11,17.62,28.06,1.09,1.36,2.17,2.68,3.23,4l.14.17c7.15,8.76,13.32,16.32,14.41,23.36,1.27,8.18-1.69,26.85-4.83,34.82-2,5.07-3.55,8.24-5.07,10.28l-.34.48.59.06a11.78,11.78,0,0,1,5,1.73A18.18,18.18,0,0,0,353.1,439l-.19,0-.12.14a6.35,6.35,0,0,1-2.73,2l-.92.3.91.33a17.06,17.06,0,0,1,5.2,3.13s0,0,0,0a31.74,31.74,0,0,1,2.78,2.69c3.18,3.87,6.27,8.48,7.74,13.22,0,0,.37-.8.37-.8a17.16,17.16,0,0,1,12-9.66,11.05,11.05,0,0,1,6.47-2.76c.33,0,.65,0,1,0a17.18,17.18,0,0,1,3.42.33l.23,0,.12-.19a60.32,60.32,0,0,0,9.87-23.84C401.05,412.29,402,383.77,392.4,358.7Z"/><path class="cls-7" d="M355.56,443.27l-.62-.46a10.66,10.66,0,0,0-7.73-3.05,11.4,11.4,0,0,0-2.44.27c-5.67,1.25-8.11,11.24-9.16,19.41-.89,6.93,4.43,10.5,7.37,11.42a28.72,28.72,0,0,0,7.56.67h0c4.56,0,9.63-.35,12.26-.56l.27,0,.05-.57c0-.44.08-.88.15-1.36a41,41,0,0,1,2.34-8.86,31.28,31.28,0,0,0-1.19-3.28A38.9,38.9,0,0,0,355.56,443.27Z"/><path class="cls-7" d="M252,471c1.19-4.46,2.65-7.71,4.45-9.93l.27-.34-.41-.18a16.6,16.6,0,0,0-6.25-1.43,9.91,9.91,0,0,0-1.84.17c-4.19.81-10.09,3.35-12.88,16.06-2.71,12.38-1.52,16.76,1.09,19.52,1.71,1.8,5.82,2.44,8.83,2.44h0a13.7,13.7,0,0,0,6-1.13l.29-.15-.13-.29C249,490.51,249.17,481.49,252,471Z"/><path class="cls-6" d="M296.23,483.51c-.13-6.47-.91-13.3-1.73-16.06-1.79-6-5.43-9.05-11.06-9.05-4.95,0-6.67,1.52-8.37,5.52-1,2.3-1.79,11.34-1.35,19.48C283.29,488.88,288.89,488,296.23,483.51Z"/><path class="cls-6" d="M313.38,479.59c-1.21-8.69-4.82-17.24-8.23-19.47a11.28,11.28,0,0,0-6.17-1.67,14,14,0,0,0-6.87,1.71c5.67,4.82,6.67,15.38,6.43,22.52,4.58,1.95,9.52,2.1,15.09-.87C313.56,481.09,313.48,480.35,313.38,479.59Z"/><path class="cls-6" d="M274.41,461.35c-2.23-2.45-6.08-3.59-9-3.59-6.08,0-10.45,2.35-13.46,13.8A68.72,68.72,0,0,0,250,481.78c7.33,3.75,14.66,4.06,22,.6C271.73,478.61,271.44,467,274.41,461.35Z"/><path class="cls-6" d="M256.23,460.89a16.28,16.28,0,0,0-6.07-1.36,9.91,9.91,0,0,0-1.84.17c-4.2.81-10.1,3.35-12.88,16.05-.5,2.3-.87,4.32-1.12,6.1,4.18,2.36,8.86,2.94,14.35.57C249.46,473.93,251.43,465.43,256.23,460.89Z"/><path class="cls-7" d="M326.06,458.65c.75-6.61,4.72-16,9.43-19.45l.64-.46-.87-.1c-.4,0-.86-.07-1.37-.07a11,11,0,0,0-7.72,3c-5.09,4.9-9.09,13.69-6.87,21a7.68,7.68,0,0,0,4.1,5,10.52,10.52,0,0,0,4.5.93c.48,0,.9,0,1.24-.06l.79-.07-.52-.47C326.65,465.47,325.62,462.61,326.06,458.65Z"/><path class="cls-10" d="M255.31,454.68a74.21,74.21,0,0,1,39.19-.49A56.32,56.32,0,0,0,255.31,454.68Z"/><path class="cls-10" d="M392,444.93a54.77,54.77,0,0,1,25.44,3.12C403.89,440.65,392,444.93,392,444.93Z"/><path class="cls-9" d="M269,151.66v0c-1.87,15.27-5.79,30.17-14.56,42.47-3.7,5.18-18.24,20.08-26.22,29.81l-.16.2a50.29,50.29,0,0,0-4.49,6.16c-7.62,13.69-14.09,22.45-19.06,42.5-.15-14.29,5.21-28.91,12.05-40.76a97.82,97.82,0,0,1,11.51-16.18c-10.11,4.43-29,21.59-29.85,22.46a103.52,103.52,0,0,1,20.71-23.93,112.19,112.19,0,0,1,10.72-8.08.16.16,0,0,1,.08-.06,107.41,107.41,0,0,0,13.7-10.61c11.11-10.7,15.77-28.77,19.45-45.18,2.07.33,4.17.71,6.1,1.13C269,151.64,269,151.64,269,151.66Z"/><path class="cls-9" d="M280,251.54c-1.2,14.49-6.26,27-21.43,42-9.51,9.39-19.16,18.41-23.34,34.3-.64-4.45-1.25-9.22-1.8-13.78v0a59.2,59.2,0,0,1,15.19-21C262.51,281.17,274.13,270.56,280,251.54Z"/><path class="cls-9" d="M184.26,317.29l-.63-.22c-13.55-4.41-24.46-12.16-35.54-30-.71-1.13-1.41-2.28-2.12-3.41a171.24,171.24,0,0,1-3.8-17.57c0-.2,0-.41-.08-.62a55.92,55.92,0,0,1,8.72,12c8.31,15.95,15.94,29.45,32.63,39.33Z"/><path class="cls-9" d="M310.54,302.55a3.38,3.38,0,0,0-.57.12c-37,3.86-66.12,29.28-66.87,29.88.64-.86,21.07-36.06,66.19-38.35a5.41,5.41,0,0,1,.55-.12C310.16,297.15,310.41,300,310.54,302.55Z"/><path class="cls-9" d="M290.6,334.84c-4.62,2.46-8.75,6-13,9.34,6.57-1.83,13.19-2.88,19.4-2.36A25.57,25.57,0,0,1,307.27,345c-.24,2.2-.49,4.35-.76,6.55a24,24,0,0,0-11.79-4c-9.11-.48-35.79,11.78-52.71,1.19,15.88,1.33,26.19-5,40.27-13.59,8.79-5.35,17.46-6.87,26.67-7.14-.07.61-.12,1.23-.17,1.84C302.59,330.55,296.46,331.69,290.6,334.84Z"/><path class="cls-9" d="M248.46,381.74c22.78-5.56,42.84,2.7,52.48,7.91l-.15,1.09c-10.52-3.9-32.86-10.05-55-2.45-.46-3.75-1-7.6-1.59-11.45,18.4-11.67,39.72-15.9,60.33-10.36-.21,1.35-.4,2.67-.6,4C284.66,368.1,265.54,371.45,248.46,381.74Z"/><path class="cls-9" d="M247.35,404.16c19.37-6.66,38.51-.26,51,6.09-.11.95-.22,1.89-.31,2.81-13-4.4-32.71-8.43-50-1.12Z"/><path class="cls-9" d="M293.39,167.6a5,5,0,0,1-1.11-.93h0a.67.67,0,0,0-.11.07c-4.38,2-12.11,7.37-14.59,20.07.08-1.18-2.19-15,6.67-26.87L279.17,156c-9.42,17.45-9.13,39.9-8.29,50.6,1,12.79-1.11,37.69-17.27,58,33.44-27.77,24.22-66.6,30.69-81.93a29.36,29.36,0,0,1,11.23-13.09A15.91,15.91,0,0,0,293.39,167.6Z"/><path class="cls-9" d="M313.59,267.46c-5.46-30.29,6.84-42.44,7-62.91.21-26.68-10-40.16-10-40.16l3.23-1,3.33-1s11,13.74,9.67,39.56C325.35,230.26,312.17,239.35,313.59,267.46Z"/><path class="cls-9" d="M327.67,159.64c3.92,12.22,20.53,37.91,21.26,56.65.53,13.48-7.36,31-15.68,50.11,12-18.38,22.25-36.24,23.09-51.8.85-15.79-10.71-33.69-8.67-59.37q-3.36.61-6.63,1.33c.65,11.45,2.41,26.4,7.57,39.36-5.6-11-13.18-26.52-17.39-37Z"/><path class="cls-9" d="M384.61,172c-4.05,13.68-2.65,27.78-1.52,42,1.21,15.09,8.66,38.08-6.63,55.23-7.69,8.6-14.76,13.34-22.2,28.4,3.34-23.16,17.07-24.77,24.44-47.28,4.89-15-8.43-50.69-10-60.56a112.85,112.85,0,0,1,.25-36.92c1.44-.06,2.9-.15,4.36-.19-1.3,16.2.23,32.43,3.32,49.45.09.49.15,1,.23,1.46-.18-2.7-.31-5.39-.37-8-.31-15.81,4-29.64,10.42-42.7,1.92.16,3.72.41,5.46.73A98.2,98.2,0,0,0,384.61,172Z"/><path class="cls-9" d="M422.16,176.93c-17.37,22.81-5.6,69.88-16.76,95.62-8.58,19.73-13.58,32.43-43.91,32.31,29.84-4.92,41.24-27.09,41.9-56.18C403.86,228.72,399.46,198.45,422.16,176.93Z"/><path class="cls-9" d="M442.21,207.54c0,.13-.08.26-.13.39-1.85,5.42-4.19,10.7-6.55,16a169.45,169.45,0,0,0,.85-28.86v0l-2.07-3.9C434.71,216.35,427,256.72,411,279c27-24.23,30-56.55,32-68.59,0,0,0,0,0,0,.06-.36.11-.7.17-1A4.89,4.89,0,0,1,442.21,207.54Z"/><path class="cls-9" d="M369.71,322.47a6.73,6.73,0,0,1,.43.85c.18.28.36.56.53.85.44.72,1,1.38,1.42,2.12a66.47,66.47,0,0,0,26.7-7.2c-5,5.06-13.17,13.36-19.87,18.17a22,22,0,0,1,1.4,2.68c9.43-5.14,43.16-24.11,55.59-71.5C418.36,309.53,387.55,319.86,369.71,322.47Z"/><path class="cls-9" d="M386.87,351.09c.21,1.08,2.28,5,2.51,6.09,17.51.65,35.84-7.39,48.53-24.65C422.86,345.52,404.55,352.74,386.87,351.09Z"/><path class="cls-9" d="M442.48,364a79.74,79.74,0,0,1-47.13,10c.54,3.07,1.25,6,1.52,9.14,9.57-.44,29.19-2.55,45.63-16.32A21.15,21.15,0,0,1,442.48,364Z"/><path class="cls-9" d="M398.88,399.35c0,.7,0,1.4,0,2.11,0,0,.23,2.76.23,2.78,20.76,9.9,44.84-8.8,44.84-8.8S411.72,403.13,398.88,399.35Z"/><path class="cls-9" d="M398.52,417.59c-.07,1.18-.35,3.87-.57,5,18.43,7.89,41-3.09,41-3.09S414.7,425.28,398.52,417.59Z"/><path class="cls-9" d="M213.15,344.87c-1.35-.87-23.14-15-35.74-15.75-6.81-.43-14.34-.4-21.08,2-.36-2.51-.67-4.83-1-7,8.75-3.91,14.68-3.83,25.32-1.32C192.45,325.56,212,343.72,213.15,344.87Z"/><path class="cls-9" d="M164.1,371.78c14.91-4.48,57.7-6.66,57.7-6.66s-33.76-23.2-62.3-14.73v0c.16.83.32,1.65.49,2.5,15.58-1.47,32.34,5.2,32.34,5.2s-20.35,2.83-30,6Z"/><path class="cls-9" d="M223.78,387c-.09,2.83-.19,6.11-.29,9.63-21.57-8.54-50.61-1.75-51.74-1.49C172.7,394.64,200.81,380.61,223.78,387Z"/><path class="cls-9" d="M222.44,419.84c-1.39-.29-27.91-5.8-46.3,1.77a61.16,61.16,0,0,0-1.36-8.09C196.14,407.25,221.08,419.17,222.44,419.84Z"/><path class="cls-9" d="M311.24,315.58c12.12-11.34,17.08-44.39,11.86-68.76C324,266.24,316,306.36,311.24,315.58Z"/><path class="cls-9" d="M398.75,402.13c-8.52.73-25.35-2.74-35.73-2.39a26.51,26.51,0,0,1-.35,5.59c12,3.74,27.61,2,36.12-2.06A7.24,7.24,0,0,1,398.75,402.13Z"/><path class="cls-9" d="M394.16,368.83c-.1-.63-.28-1.24-.38-1.86-.07-.18-.16-.35-.24-.53-9.33,5.83-24.33,13.45-38.41,13.05.63,1,1.15,2,1.78,3,.82,1.27,1.73,2.47,2.51,3.77,14.77-.58,27.09-9.43,34.79-16.69C394.19,369.3,394.18,369.06,394.16,368.83Z"/><path class="cls-9" d="M386.05,349.82c-15.72,7.65-35.78,7.46-47.64,7a11,11,0,0,1,1.89,3.38.3.3,0,0,1,0,.21,70.28,70.28,0,0,0,49.45-2.93C388.2,355.13,387.56,352.17,386.05,349.82Z"/><path class="cls-9" d="M372.09,326.29a183.56,183.56,0,0,1-33.26,7.5,30.54,30.54,0,0,1-9.18,3.16c.67,2.41,1.51,4.8,2.37,7.17,22,5.7,43.54-5.11,43.54-5.11s-27.51,5.94-38.84,0C353.43,337.64,372.09,326.29,372.09,326.29Z"/><path class="cls-9" d="M296.23,433.72c0,.75-.06,1.48-.08,2.13-13.24-2.64-31.74-4.18-46.2,2.21-.08-1.77-.18-3.57-.29-5.37v0c11.85-5.65,25.06-4.5,38-.85-12.34-7.42-25.56-7.19-38.27-3.7-.06-.74-.11-1.48-.16-2.22C264.88,419.87,281.16,420.51,296.23,433.72Z"/><path class="cls-9" d="M215.79,443.11s-22.87-6.82-40.1-5.06c.14-1.67.26-3.4.36-5.12C198.3,431.08,215.79,443.11,215.79,443.11Z"/><path class="cls-9" d="M366.48,242.38c-26.07,19.94-16.29,42.5-33.29,66.29C352.68,297.61,351,262,366.48,242.38Z"/><path class="cls-9" d="M413.31,163.27c-8.61,9.72-12.79,18.21-16.64,42.33-1.73-16.6,1.84-34.16,12.48-45.29.85.52,1.68,1.11,2.54,1.72C412.23,162.41,412.77,162.83,413.31,163.27Z"/><path class="cls-9" d="M439.31,297.16A145.5,145.5,0,0,0,432,311c-8.67,18.6-26.89,26.68-26.89,26.68s17.07-4,28.14-18.82a51.75,51.75,0,0,0,5.7-10.66A74.71,74.71,0,0,1,439.31,297.16Z"/><path class="cls-9" d="M249.91,148.48c-2.27,9.11-8,22-22.36,34.15,0,0,0,0,0,0a105.28,105.28,0,0,1-20.29,13.26,102.07,102.07,0,0,0,19.19-18.13.05.05,0,0,0,0,0C244.07,156,245.5,132.4,245.5,132.4l.6,2.9c.79,2.18,1.53,4.46,2.22,6.82C248.91,144.18,249.45,146.33,249.91,148.48Z"/><path class="cls-9" d="M146.29,219.43A127.87,127.87,0,0,1,170,236.12c-5.69-8.32-13.07-15.28-21-21.26-.65-.49-1.32-1-2-1.42A41.38,41.38,0,0,1,146.29,219.43Z"/><path class="cls-9" d="M145.41,223.33c-.5,1.89-1.09,3.74-1.74,5.51.31.41.59.8.81,1.15,7.75,12.36,14.32,20.18,19.49,38.63,0-13.35-5.49-26.7-12.44-37.4A67.53,67.53,0,0,0,145.41,223.33Z"/><path class="cls-9" d="M149.26,189.62a2,2,0,0,1-.39.1c-.34,0-1-.09-1.09.43a2,2,0,0,0,.13.51,10.2,10.2,0,0,1,.14,1.58c3.28,4.39,13.7,11.4,13.7,11.4S151.66,194.11,149.26,189.62Z"/><path class="cls-9" d="M228.36,253.37c-7.43,12.32-9.65,31.82-8.67,46.12,2.92-15.23,8.16-31.31,16.12-44.8,6.16-10.45,19.93-30.44,19.93-30.44S236,240.77,228.36,253.37Z"/><path class="cls-9" d="M295.53,232.11c-6,13.06-7.92,32.72-5.37,46.82,1.23-15.46,4.67-32,11.09-46.3,5-11.06,11.93-29.73,2.1-52.53C309,201.71,301.69,218.76,295.53,232.11Z"/><path class="cls-9" d="M141.74,253.82a24.67,24.67,0,0,1-.27,3.74A87.46,87.46,0,0,1,153,266.85a203,203,0,0,1,23.35,29.39c-5-12.09-15.14-29.44-23.14-37.27A19.78,19.78,0,0,0,141.74,253.82Z"/><path class="cls-9" d="M361.4,417.31c.11,1.84-.57,3.64-.87,5.46,10.55,9.29,26.1,6.47,34.63,3.79C382.91,428.58,370.17,425.61,361.4,417.31Z"/><path class="cls-7" d="M401.37,474.9c0-4.77,3.51-20.95,11.68-23.64l.52-.17-.35-.37c-1.46-1.55-4.9-4.14-11.67-4.14l-1.12,0c-10.31.42-19.2,15.15-19.24,26.91,0,3.82,1,6.69,3.11,8.53a14.88,14.88,0,0,0,9.92,3.74h1a12.31,12.31,0,0,0,8.68-3.07l.5-.24-.43-.32C402.14,480.74,401.37,478.58,401.37,474.9Z"/><path class="cls-7" d="M385,482.48c-2.12-2-3.19-5-3.18-9,0-11,5.89-20.28,11.68-24.54l.41-.3-.45-.26a15.31,15.31,0,0,0-7.7-1.83c-.33,0-.66,0-1,0-9.31.42-17.34,15.15-17.37,26.91,0,3.93,1,6.86,3,8.69a13.29,13.29,0,0,0,9,3h1.1a37.65,37.65,0,0,0,6.41-1l-1.11-1.13C385.47,482.89,385.22,482.69,385,482.48Z"/><path class="cls-7" d="M430.51,467.42a27.6,27.6,0,0,0-1.44-4.06c-.37-.88-.86-2.09-1.49-3.51a19.69,19.69,0,0,0-5.67-6.73c-1.7-1.21-4.54-1.9-7.8-1.9a22.68,22.68,0,0,0-3.78.31c-7,1.16-10.85,17.11-10.85,23.37s1.67,7.52,7.4,9.17a21.31,21.31,0,0,0,5.77.72A32.43,32.43,0,0,0,429,480.28a10.19,10.19,0,0,0,2.89-2.52l.08-.1v-.13A47.28,47.28,0,0,0,430.51,467.42Z"/><path class="cls-7" d="M367.07,473.52c0-8,3.47-17.16,8.59-22.65l-.43-.54c-4.66,2.07-10.6,6.9-12.4,18.14-.84,5.21-.1,9.22,2.2,11.91a6.14,6.14,0,0,0,4,1.87l.89.14-.53-.68C367.82,479.76,367.06,477,367.07,473.52Z"/><path class="cls-6" d="M410.5,450.18c-1.48-1.54-4.45-3.6-9.74-3.6l-1,0c-8.51.4-15.88,13.35-16.76,24.68,3.62,2.3,9.89,2.89,15.82.24C401.66,455.29,407.63,450.6,410.5,450.18Z"/><path class="cls-6" d="M392,449.21a13.27,13.27,0,0,0-6.73-1.67l-.92,0c-8,.4-15,13.45-15.81,24.79,4.26,1.7,8.33,2.27,11.91.69C382.37,457,389.19,450.49,392,449.21Z"/><path class="cls-6" d="M425.46,456.59c-.54-.51-2.44-2.29-3-2.71-1.71-1.21-4.55-1.9-7.8-1.9a22.72,22.72,0,0,0-3.79.31c-5.72.95-9.3,11.64-10.45,19C408.29,475.71,424,474,425.46,456.59Z"/><path class="cls-6" d="M374.5,451.08l-.09-.12c-4.36,2.07-9.92,6.89-11.6,18.14-.14.89-.21,1.72-.26,2.54a4.15,4.15,0,0,0,3.4,1.11C365.7,465.64,368.89,455.93,374.5,451.08Z"/><path class="cls-4" d="M245.3,54.49c-.83-5.4-3.29-9.74-6.94-12.2-2.78-1.88-6.89-2.73-11.86-2.44a41.38,41.38,0,0,0-16.43,4.57c-1.94,1.08-4.19,2.24-6.69,3.44A25.93,25.93,0,0,1,198,49.71l.19-.09-.51-.32a27.58,27.58,0,0,0-11.11-3.83,65.62,65.62,0,0,0-9.6,0l-6.06.38a35.89,35.89,0,0,1-6.5,0L163,45.65a65.26,65.26,0,0,0-14.45-1.17,27.91,27.91,0,0,0-12.31,3.36c-11,6.18-19.5,16.93-23.57,22.79-1.73,2.48-3.05,4.7-4.32,6.84A55.55,55.55,0,0,1,96.71,92.21c-.89.82-1.7,1.66-2.41,2.42a18.7,18.7,0,0,0-1.5,2.43l-.73.15a51.29,51.29,0,0,0-9.9,19.94l.68.19.54-1.27c-.71,4.22-1.42,11.52.58,17.67l.69-.14a15.47,15.47,0,0,1-.2-2.14l0-1.86.62,1.77a123.41,123.41,0,0,0,6.8,15.29l.66-.25-1-2.84,1,1c.48.48,11.64,11.87,14.9,18.09l.35.66.3-.68a10,10,0,0,1,1.65-2.6l.16-.18-.13-.19c-1.58-2.44-9.43-14.93-8.55-21s7.46-14.11,8.78-15.67L110,123v-.09a5.55,5.55,0,0,0-1-3.87l-.23-.29s3.64-3.12,7.19-3.75l.37-.54a22.46,22.46,0,0,1,5-5.9c.59-.44,1.2-.87,1.88-1.35a25,25,0,0,0,6.5-5.9l.24-.33s7.35-7.25,4.53-8.47-13.62,2.82-13.62,2.82-4.68-3.92-3.6-8.35c1.13-4.62,6.26-7.23,9.55-7.42.26,0,.76,2.76,1,2.8,1.89.33,3.32-.9,3.91.9h.54c1,3,3.06,5.29,1.47,11.87s-6.68,8.47-9.92,11.69a28.9,28.9,0,0,1-2.45,1.75,26.75,26.75,0,0,0-6.69,7.79l.31,1.78-.31-.2A28.65,28.65,0,0,1,117,120.6c2.73,3.59,7.31,9.61,13.71,10.18a25.31,25.31,0,0,0,3.83,0c6.11-.36,13.52-2.33,19-3.78a45.27,45.27,0,0,1,6.19-1.44,2.11,2.11,0,0,1,.54,0,2.36,2.36,0,0,1,1.34,1.46l.45,1.09.23-1.15a29.24,29.24,0,0,0,.43-3v.31h.33c4.76.13,8.83,2.85,11.41,5.11,0,0,4.46,4.24,6.09,7.27a14.46,14.46,0,0,1,1.22,3.52c.17,1.45.38,2.89.55,4.32a17,17,0,0,1-1.46,7.56c-1.77,3.33-8.8,8.91-17.48,12.49a23,23,0,0,1-7.44,1.74,19.79,19.79,0,0,1-14.13-4.66c-3.86-3.37-10.11-6-11.46-6.49l-.34,0c-1.77-.08-3.49-.08-5.11,0-5.51.32-10,1.65-13.25,3.94-2.32,1.61-3.67,4.15-4,7.54a22.33,22.33,0,0,0,1.4,9.8l.69-.15-.14-.82a47.18,47.18,0,0,0,2.6,5.48c2,3.61,5.12,7.21,7.48,8.74l.48-.48-1.43-1.49a53.57,53.57,0,0,0,13.35,5.09l.3-.58-2.4-1.65,1.84.58a40.41,40.41,0,0,0,12.6,1.28,33.6,33.6,0,0,0,9.37-1.87c7.81-2.82,10.76-8.24,13.12-12.59a35.32,35.32,0,0,1,3.41-5.32c-.44.87-1,1.9-1.44,2.85l.56.38c4.8-4,12.49-9.1,21.91-10.59,11.4-1.8,17.74-3.83,21-5.21A28.51,28.51,0,0,0,217.8,157a23.12,23.12,0,0,1-3.06,2.86l.4.54c10.27-5.09,14.42-12.16,16-16-.11,1.59-.24,3.14-.32,3.53l.68.18c4.53-10.73,3.94-25.22,3.94-25.36l-.08-1.69.68,1.58a11,11,0,0,1,.54,1.65l.7-.09c-.71-16.62-6.38-27-11-32.87-1.61-2-3.72-4.46-5.57-6.57l-.53.31c-.58-1-1.18-2-1.83-3l-.35-.4c-4.7-5.32-9.14-10.33-10.26-12.58-1.68-3.4-1.21-10.06,5.65-17.65,4.12-4.57,10.34-7.72,15.85-8l.38,0A13.46,13.46,0,0,1,239.54,47a20,20,0,0,1,5.33,10.68l.71-.07A25.11,25.11,0,0,0,245.3,54.49Z"/><path class="cls-8" d="M110,123l.06-.08v-.09a5.51,5.51,0,0,0-1-3.87l-.22-.29a13.48,13.48,0,0,1,6.25-3.27l1.31-1c.29-.46,1.29-2.8,1.58-3.23a11.8,11.8,0,0,1-5.73,3.23c-4.37,1.42-6.15,2.91-6.79,3.52-5,4.73-4.55,13.25-4.55,13.25s2.57-6.09,7.8-6.53C109.31,123.89,109.78,123.33,110,123Z"/><path class="cls-8" d="M162.11,114.92s-.17,7.79-3.13,10.78a2,2,0,0,1,2.73,1.38l.45,1.09.92-3.88c.06-1.48-.17-3.42-.26-4.92C162.74,118,162.11,114.92,162.11,114.92Z"/><path class="cls-8" d="M197.2,133c2.28.78,5.43,7.39,5.43,7.39s-1.18-9.22-2.66-11.8c-2-3.52-5.45-4-11.78-3.83a14.34,14.34,0,0,1-10.26-4.55c1.87,5.07,4.33,6.29,6.17,7.34,2.19,1.26,3.63,1,2.69,3.88-.68,2.09-3.67,5.2-5.55,6.63a81.06,81.06,0,0,1,1.12,8.33C184.64,143.28,193.63,131.79,197.2,133Z"/><path class="cls-6" d="M168.56,108.65c4.37,1.68,18.1.62,26.81-3.8,5.43-2.76,2-7.15-.54-11-3.32-5.13-12.64-7.1-21.3-3.62C163,93.51,164.4,107,168.56,108.65Z"/><path class="cls-11" d="M190.59,97.33a8.74,8.74,0,0,0-2.12-7.47A8.19,8.19,0,0,0,184.22,87a11.3,11.3,0,0,0-4.92.08,13.52,13.52,0,0,0-7,5.6c-2.55,3.75-4.69,9.63,1.37,11,5.66,1.23,14.61-.17,16.81-5.78C190.47,97.85,190.58,97.36,190.59,97.33Z"/><path class="cls-12" d="M183.92,88.89c4.11,1.21,5.68,4.08,6.77,6a11.37,11.37,0,0,0-2.19-4.66,8.36,8.36,0,0,0-4.28-3.14,10.28,10.28,0,0,0-4.91,0,11.77,11.77,0,0,0-4.95,3.39A11.29,11.29,0,0,1,183.92,88.89Z"/><path class="cls-12" d="M173.83,101.78c-3-2-3.17-5.53-2.52-8.65-1.87,3.93-2.6,8.76,2.56,10.05a18.28,18.28,0,0,0,5.17.47A11.83,11.83,0,0,1,173.83,101.78Z"/><path class="cls-6" d="M220.8,84.74l-.53.31c4.22,6.41,7.57,18.41,8.93,28.38-.62-2-1.27-3.56-1.73-4.67.51,3.91,0,8.45-.38,12.34a52,52,0,0,1-.25,12.12s-.51-4.08-.67-5.46c-.78,6-3.5,12.63-9.08,16.39-.18.13,1.89-2.8,2.4-3.79-3.83,3.1-11.82,8.93-17.09,6.56a1.49,1.49,0,0,1-.84-1c-1-1.83-.81-4.11-1.21-6.14-.74-3.74-1.79-10.07-6.24-12-5.93,3.35-9.4,9.78-11.81,15.68,0,.34.09.69.13,1a17,17,0,0,1-1.47,7.56c-1.76,3.33-8.79,8.91-17.48,12.49a23,23,0,0,1-7.43,1.74,19.78,19.78,0,0,1-14.13-4.66c-3.86-3.37-10.11-6-11.46-6.5h-.34c-1.77-.08-3.49-.08-5.12,0-5.5.32-10,1.65-13.25,3.93-2.31,1.62-3.29,4.15-3.65,7.55a21.92,21.92,0,0,0,1,9.8l.69-.15-.14-.82a47.35,47.35,0,0,0,2.8,5.34c2,3.62,5,7.1,7.32,8.63l.43-.23-1.42-1.49A52.9,52.9,0,0,0,132,192.49l.22-.46-2.14-1.47,1.85.58a47.84,47.84,0,0,0,12.82,1,31.12,31.12,0,0,0,9.06-1.87c7.81-2.82,10.84-8,13.21-12.33a35.12,35.12,0,0,1,3.4-5.32c-.43.87-.95,1.9-1.44,2.85l.57.38c4.79-4,12.49-9.1,21.9-10.59,11.4-1.8,17.75-3.83,21.06-5.21A28.82,28.82,0,0,0,217.9,157a23.12,23.12,0,0,1-3.06,2.86l.4.54c10.27-5.1,14.42-12.16,16-16-.11,1.59-.24,3.14-.33,3.53l.68.18c4.54-10.73,3.95-25.22,3.94-25.36l-.07-1.69.67,1.58a10.92,10.92,0,0,1,.55,1.65l.7-.09c-.72-16.62-6.39-27.05-11-32.87C224.75,89.28,222.64,86.85,220.8,84.74Z"/><path class="cls-1" d="M232.16,101.27c2.32,5.65,3.17,14.23,3.48,15.23a27,27,0,0,0-2.07-4.74c1.35,7,1.13,16.15-.07,25.9,0,0-.78-4.15-1.08-7.23-.37,6.2.46,15-9,22.34,1.15-1.43,3.6-4.81,4.55-6.34-12.49,12.82-39.08,10.25-49.54,11.75a13.93,13.93,0,0,0,4.63-5.23,10.85,10.85,0,0,0,.76-3.68,22.34,22.34,0,0,1,7.22-14.53c3.59-3,5.66-2.5,8-.48-.9-2.73-2.33-5.34-4.92-6.46-5.93,3.35-9.4,9.78-11.81,15.68,0,.34,0,3-.06,4-.09,2.38-1.62,5.86-6.18,9.78a53,53,0,0,1-8.08,5c-6.8,3.71-12,4.57-18.93,3.08,2.43,1.93,8,2.49,13.4,1.56,2.27,3.89-3.41,10.4-7.59,13.2a21.33,21.33,0,0,0,4.88-2.54c-9.07,9.05-25.9,11.23-37.88,4.22a14.84,14.84,0,0,0,3.68,3.67s-7.92-3.33-10.84-8.13a14.39,14.39,0,0,0,2,4.2,26.74,26.74,0,0,1-8.32-16.61,20,20,0,0,0-.32,2,20.92,20.92,0,0,0,1.09,9.55l.69-.15-.14-.82a47.35,47.35,0,0,0,2.8,5.34c2,3.62,5,7.1,7.32,8.63l.43-.23-1.42-1.49A52.9,52.9,0,0,0,132,192.49l.22-.46-2.14-1.47,1.85.58a47.84,47.84,0,0,0,12.82,1,31.12,31.12,0,0,0,9.06-1.87c7.81-2.82,10.84-8,13.21-12.33a35.12,35.12,0,0,1,3.4-5.32c-.43.87-.95,1.9-1.44,2.85l.57.38c4.79-4,12.49-9.1,21.9-10.59,11.4-1.8,17.75-3.83,21.06-5.21A28.82,28.82,0,0,0,217.9,157a23.12,23.12,0,0,1-3.06,2.86l.4.54c10.27-5.1,14.42-12.16,16-16-.11,1.59-.24,3.14-.33,3.53l.68.18c4.54-10.73,3.95-25.22,3.94-25.36l-.07-1.69.67,1.58a10.92,10.92,0,0,1,.55,1.65l.7-.09C237.11,118,236.53,106.19,232.16,101.27Z"/><path class="cls-6" d="M109.3,118.59l-.3.24c-.69.55-2,1.73-2,1.7-2.15,2.79-2.84,6.07-4.08,9.53-.39,1.09-1,3.36-2.5,2.95-2.18-.89-4.44-4-5.49-5.82a16.18,16.18,0,0,1-2.59-7.72c-.13.81-.31,1.61-.4,2.42,0,.31-.57.22-.53-.1a.61.61,0,0,0,0-.13h0c-.63-1.77-.23-3.58,0-5.43-.31.87-1.07,3.23-1.07,3.23s-.18-1.41-.18-1.48a36,36,0,0,1,1.16-9.15,9.33,9.33,0,0,1,.6-1.47,19.26,19.26,0,0,0-2.07,2.77,53.4,53.4,0,0,1,3.85-13.54l-1.15.53a51.5,51.5,0,0,0-9.9,19.94l.68.18.54-1.27c-.71,4.22-1.42,11.52.58,17.68l.33-.24a10.17,10.17,0,0,1,.16-2l0-1.86.63,1.77a124.47,124.47,0,0,0,6.79,15.28l.66-.25-1-2.84,1,1c.47.48,11.63,11.86,14.9,18.08l.35.67.3-.69a9.72,9.72,0,0,1,1.65-2.59l.15-.18-.12-.2c-1.58-2.44-9.43-14.93-8.56-21s7.47-14.11,8.78-15.68l.07-.07v-.1a5.53,5.53,0,0,0-1-3.86Z"/><path class="cls-1" d="M110.26,159.57c-.64-1-2.29-3.6-4-6.77A144.53,144.53,0,0,0,95.5,142.3c-1.55-1.35-3.76-3.5-6.1-8.56.28,1.5,1.57,5.74,1.57,5.74a88,88,0,0,1-6-12.67c.32,7.13,4.89,15.19,7.38,19.74l.66-.25-1-2.84,1,1c.47.48,11.63,11.86,14.9,18.08l.35.67.3-.69a9.72,9.72,0,0,1,1.65-2.59l.15-.18Z"/><path class="cls-1" d="M108.52,124.91c.68-.88,1.23-1.55,1.52-1.89l.06-.08v-.09a5.51,5.51,0,0,0-1-3.87l-.22-.29-.3.24c-.69.55-2,1.73-2,1.69-2.15,2.79-2.83,6.07-4.08,9.53l-.3.86C103.6,128.52,105.76,125.94,108.52,124.91Z"/><path class="cls-1" d="M229.73,44l-.31,0C224,44.28,218,47.35,214,51.8c-6.26,6.91-7.3,13.55-5.56,17,1.08,2.18,5.7,7.41,10.17,12.46,1.41,1.6,2.84,3.22,4.2,4.78l.16.19.25-.1c1.86-.71,11.42-4.65,17.48-11.87a21,21,0,0,0,3.7-7.07c1.63-7-.6-15.53-5.18-19.87A12.58,12.58,0,0,0,229.73,44Z"/><path class="cls-6" d="M239.18,47.37A12.58,12.58,0,0,0,229.73,44l-.31,0A23,23,0,0,0,218,48.3c6.94-2.1,15.26.2,17.9,7.26,3.87,10.37-2.55,23-11.72,30.24,3.08-1.29,11.17-5.1,16.53-11.49a21,21,0,0,0,3.7-7.07C246,60.25,243.76,51.71,239.18,47.37Z"/><path class="cls-6" d="M101.87,138.77c-.8,5.52,6.14,16.94,8.29,20.3l.22.36.33-.28c.21-.18.43-.37.66-.53,3.39-2.36,8-3.72,13.61-4,1.49-.09,3.07-.1,4.69,0l.45,0-.08-.4a36.38,36.38,0,0,1-.35-6.23v-.26l-.28-.06c-4-.89-7.88-5-10.45-8.2-4.25-5.35-7.64-11.88-8.47-15.1l-.17-.69-.46.57C107.7,126.88,102.61,133.68,101.87,138.77Z"/><path class="cls-1" d="M129.69,147.67l-.28-.06c-4-.89-7.88-5-10.45-8.2a60.87,60.87,0,0,1-6.27-9.79c3.31,15.25,15.62,17.61,15.86,21.49s-10.24,1.08-20,5.36c.81,1.38,1.13,1.86,1.61,2.6l.22.36.33-.28c.21-.18.43-.37.66-.53,3.39-2.36,8-3.72,13.61-4,1.49-.09,3.07-.1,4.69,0l.45,0-.08-.4a36.38,36.38,0,0,1-.35-6.23Z"/><path class="cls-1" d="M116.61,64l.27.14.18-.23a84.74,84.74,0,0,1,8.57-9l.23-.21-.21-.23C121,49.33,121,42.11,120.94,35.74v-.59c0-5.59,0-10.86-4-11.7a4.81,4.81,0,0,0-1.36-.11c-3.85.22-6.38,4.95-7.06,6.39C106.64,33.82,97.93,54.7,116.61,64Z"/><path class="cls-6" d="M112.82,39.91c1.22-3.21,4-8.27,8.1-6.45,0-4.92-.43-9.25-3.93-10a4.81,4.81,0,0,0-1.36-.11c-3.85.22-6.38,4.95-7.06,6.39-1.87,4-10.06,23.61,6.28,33.29C111.74,55.58,110,47.26,112.82,39.91Z"/><path class="cls-5" d="M117.25,22.92c4.25,1.45,4.28,6.72,4.31,12.81,0,6.24.08,13.32,4.5,18.28l.25.27.28-.24a56.52,56.52,0,0,1,9.38-6.7,26.41,26.41,0,0,1,6.49-2.53l.74-.18-.63-.4A72.78,72.78,0,0,1,135,38.87c-1.92-1.63-5.34-5.95-8.35-9.77-2.11-2.67-4.09-5.19-5.21-6.32a3.91,3.91,0,0,0-3.1-1l-.6.06a8,8,0,0,0-1.22.3l.06.63A3.8,3.8,0,0,1,117.25,22.92Z"/><path class="cls-6" d="M130.69,147.81l-.38,0v.34c0,2.36.09,5.44.47,6.38l.05.13.14.06c1.22.49,7.48,3.12,11.38,6.53a19.16,19.16,0,0,0,13.66,4.5h0a22.44,22.44,0,0,0,7.21-1.69c9.43-3.89,15.72-9.48,17.17-12.21,1.53-2.88,2.3-9.84-.31-14.92-.24-.46-6-11.37-16.84-12.46l-.41,0v.38a16.62,16.62,0,0,1-.79,6.25,4.6,4.6,0,0,1-1.17,2.57C159.43,135,142,147.24,132,147.82A9.93,9.93,0,0,1,130.69,147.81Z"/><path class="cls-1" d="M144.19,159.21c-6.43-3.67-11.3-3.78-11.66-7.64s19-4.14,28.83-18.58a3.36,3.36,0,0,1-.47.62C159.43,135,142,147.24,132,147.82a9.93,9.93,0,0,1-1.34,0l-.38,0v.34c0,2.36.09,5.44.47,6.38l.05.13.14.06c1.22.49,7.48,3.12,11.38,6.53,3.61,3.15,10.22,6.89,20.88,2.81,9.54-3.65,15.72-9.48,17.17-12.21a14.17,14.17,0,0,0,1.29-5c-1.84,7.63-13.31,14.85-24,15.87C152.64,163.19,148,161.39,144.19,159.21Z"/><path class="cls-8" d="M115.93,115.18l-.82.24a18.5,18.5,0,0,0-5.88,3l-.27.19.21.26a4.57,4.57,0,0,1,1,2.22l.17,1.1.5-1a8.66,8.66,0,0,1,3.44-3.43l.3-.15,0-.09c.23-.43.52-1,.89-1.62Z"/><path class="cls-13" d="M160.66,126c-.08,0-1-.51-1.12-.51-.89.06-3,1.32-5.55,2l.45-.41c-5.44,1.45-13.18,3.53-19.4,3.89a27,27,0,0,1-4.19-.24c-6.7-.6-11.18-6.85-14-10.55a17.29,17.29,0,0,0-1.81-2.15l-.32-.2-.42-.13c-.85.53-3.53,2.09-3.94,4.44-.35,1.95,3.45,11.5,8.25,17.56,3.85,4.85,8,7.74,11.08,8.19a16.2,16.2,0,0,0,2.58.69l1.27-.53c9.35-.54,26-13.33,27.82-15.1,1.19-1.17,1.37-4,.86-5.76A1.91,1.91,0,0,0,160.66,126Z"/><path class="cls-10" d="M207.71,76.85c6.54,11.5,12.77,33.4,11.75,47-.53,7-1.91,12.33-15.54,21.94,12-4.16,18.85-11.39,19.9-18.74C226.27,110,215.86,87.44,207.71,76.85Z"/><path class="cls-10" d="M204.72,91.41s11.14,16.17,4.87,31.15c-4.71-4.22-10.21-6-17.55-6.41,12.91,3.06,16.16,8.94,19.18,16C221.66,107.63,204.72,91.41,204.72,91.41Z"/><path class="cls-10" d="M174.47,109.57s22,.12,23.87-10.33C202.39,115.71,174.47,109.57,174.47,109.57Z"/><path class="cls-10" d="M95.62,107.81a60.64,60.64,0,0,1,5-19.31l-.79.71c-.65.58-1.28,1.2-2,1.77-3.2,5.39-5.78,11.13-5.65,17.28a38.89,38.89,0,0,0,6.24,19.86C96,121.79,95.23,112.25,95.62,107.81Z"/><path class="cls-10" d="M117,106.08s-10.85,1.41-15,4.36C97.94,95.69,108.45,80,108.45,80S93,97,99.53,118.49C103.23,109.75,117,106.08,117,106.08Z"/><path class="cls-10" d="M130.14,146.25a31.56,31.56,0,0,1-.45-12.54A15.1,15.1,0,0,0,130.14,146.25Z"/><path class="cls-6" d="M153.93,137.87c-.9-.1-7.59-2.14-12.36.28-5.1,2.59-3.11,8.48-3.11,8.48S144.33,144.3,153.93,137.87Z"/><path class="cls-10" d="M154.49,138.43c-.91-.1-7.59-2.14-12.36.28-5.1,2.59-3.67,8.17-3.67,8.17S144.89,144.86,154.49,138.43Z"/><path class="cls-6" d="M120.32,134.71c-1.54-1.9-2.78-2-4.93-2,.82,3.2,7.77,10.82,7.77,10.82S123.32,138.4,120.32,134.71Z"/><path class="cls-10" d="M120.16,134.73c-1.3-2-3.46-2.06-5.6-2,.82,3.19,7.77,10.81,7.77,10.81S122.54,138.48,120.16,134.73Z"/><path class="cls-10" d="M134.61,101.25a36.71,36.71,0,0,1,16.51,1A23.76,23.76,0,0,0,134.61,101.25Z"/><path class="cls-10" d="M163.78,48.66C152.72,56.31,149,74.59,149,74.59S144.24,55.67,163.78,48.66Z"/><path class="cls-10" d="M195.57,61.38s-14.27-12.89-27.14-5.53C181.64,41.53,195.57,61.38,195.57,61.38Z"/><path class="cls-10" d="M125.86,58.45S139.52,46.13,150.59,54C139.67,39.17,125.86,58.45,125.86,58.45Z"/><path class="cls-10" d="M175,104.24c-2-.14-6.75.27-7.64-.61s1.48-2.65,2-4.52A21.11,21.11,0,0,1,176,88.17a6.93,6.93,0,0,1,4.24-1.84S180,87.79,177.59,88c7.72-1.41,11,.23,12.46,3.1s3.87,5.33,2.79,6.7a15.78,15.78,0,0,1-4,3.44C184.94,104.06,180.35,104.61,175,104.24Zm5-16.91c-4.4.54-8.83,6.39-9.41,12-.26,2.55,3.63,3.82,5.1,4.09,5.05,1,11.73-.47,13.94-4.15a7.91,7.91,0,0,0-.76-8.25A8.87,8.87,0,0,0,180,87.33Z"/><path class="cls-10" d="M124.08,103S105.93,95.84,111.7,84.9C98.13,101.73,124.08,103,124.08,103Z"/><path class="cls-10" d="M132.94,58.68c9.69-2.2,17.49,7.77,17.49,7.77s15.75-9.22,27.17-5.57C164.81,55.4,151.71,62,151.71,62A17.27,17.27,0,0,0,132.94,58.68Z"/><path class="cls-9" d="M146.29,192.49a2.3,2.3,0,0,1-.42.13c-.36,0-1.07,0-1.15.49,0,.13.14.38.17.5a9,9,0,0,1,.27,1.55c3.86,4.15,15.64,10.44,15.64,10.44S149.2,196.8,146.29,192.49Z"/><path class="cls-14" d="M182.55,100.16a6.18,6.18,0,0,1-7.89-2.57,5.22,5.22,0,0,1,2.82-7.21A6.17,6.17,0,0,1,185.36,93,5.21,5.21,0,0,1,182.55,100.16Z"/><path class="cls-15" d="M184.93,92.3a6.22,6.22,0,0,0-7.45-1.92,5.58,5.58,0,0,0-3,3.05C178.35,95.58,182,95.05,184.93,92.3Z"/><path class="cls-10" d="M180.4,100.88a6.84,6.84,0,0,1-2.45-.32,6,6,0,0,1-3.49-2.88,5.42,5.42,0,0,1,2.92-7.48,6.62,6.62,0,0,1,4.7-.22,6,6,0,0,1,3.49,2.88,5.42,5.42,0,0,1-2.92,7.48A6.8,6.8,0,0,1,180.4,100.88Zm-.75-10.81a6.32,6.32,0,0,0-2.08.49,5.39,5.39,0,0,0-2.92,3,4.74,4.74,0,0,0,.21,4,5.48,5.48,0,0,0,3.24,2.67,6.13,6.13,0,0,0,4.36-.2,5.35,5.35,0,0,0,2.92-3,4.74,4.74,0,0,0-.22-4,5.51,5.51,0,0,0-3.23-2.68A6.33,6.33,0,0,0,179.65,90.07Z"/><path class="cls-10" d="M181.71,98.54a4.13,4.13,0,0,1-5.27-1.72A3.48,3.48,0,0,1,178.32,92a4.14,4.14,0,0,1,5.27,1.72A3.49,3.49,0,0,1,181.71,98.54Z"/><path class="cls-16" d="M177.13,94.69a1,1,0,0,1-1,1,1.05,1.05,0,0,1-1.14-.92,1,1,0,0,1,1-1A1,1,0,0,1,177.13,94.69Z"/><path class="cls-16" d="M182.57,97.8a.59.59,0,0,1-.58.6.6.6,0,0,1-.65-.53.58.58,0,0,1,.57-.6A.61.61,0,0,1,182.57,97.8Z"/><path class="cls-16" d="M131,94.87a.63.63,0,0,1-.77.38.55.55,0,0,1-.41-.7.62.62,0,0,1,.76-.38A.55.55,0,0,1,131,94.87Z"/><path class="cls-6" d="M118.11,124.38s5.4,7.34,12.5,8,20.86-2.85,20.86-2.85-14.86,4.84-21.65,3.74C122.07,132,118.11,124.38,118.11,124.38Z"/><path class="cls-10" d="M144.09,147.8c11,1.57,22.17,1.46,30.89-5.61C169.74,144.73,163.44,148.29,144.09,147.8Z"/><path class="cls-10" d="M161.34,153.32a61.24,61.24,0,0,1-18.55-2.09s9,4.57,18.32,3.87a22.05,22.05,0,0,0,14.55-7S169.15,152.77,161.34,153.32Z"/><path class="cls-10" d="M147.44,156.8c8.69,5.13,20,.68,20,.68S157.48,165,147.44,156.8Z"/><path class="cls-10" d="M102.7,144v0a1.13,1.13,0,0,0,0,.18c0,.22.12.43.18.64a15,15,0,0,0,11.87-1.63s-6.66,2.15-12.11.61Z"/><path class="cls-10" d="M105.06,150.82A28.82,28.82,0,0,0,118,146.63s-8,3.35-13.93,1.68C104.32,148.93,104.83,150.21,105.06,150.82Z"/><path class="cls-10" d="M114.56,151.62A29.33,29.33,0,0,1,107.1,154c.21.32.41.65.61,1A19.3,19.3,0,0,0,114.56,151.62Z"/><path class="cls-6" d="M117.47,80s-6,3.3-6.43,5.78-2.11,7.62,7,14,16.24-2.55,16.79-4.45-1-.22-1-.22l-8.51-14.61Z"/><path class="cls-6" d="M134.9,84.44a8,8,0,0,0,2.9-6c0-3.82-10.14-7.66-20.79-2.82a10.46,10.46,0,0,0-6.16,11.13L119,80.38l12.2,2.06Z"/><path class="cls-6" d="M135.66,94.19s3.85-7.46,2.14-15.7S133.18,87,133.18,87l.82,2.8Z"/><path class="cls-11" d="M135.51,93.22l0-.2a16.11,16.11,0,0,0-1.26-3.32,23.64,23.64,0,0,0-9.72-9.94,4.52,4.52,0,0,0-4.82.06c-.23.18-.45.36-.66.56a8.25,8.25,0,0,0-2.6,6.14,11.09,11.09,0,0,0,4.15,8.68,9.16,9.16,0,0,0,2.72,1.37,20.92,20.92,0,0,0,4.34.37,11.07,11.07,0,0,0,2.26-.46,16.55,16.55,0,0,0,5.46-3.1Z"/><path class="cls-12" d="M125.28,80.45c-.49-.31-.86-.51-1.06-.62-1.82-.94-3.63-1-4.85,0-.23.17-.44.35-.65.54a8,8,0,0,0-2.48,6.13,11.45,11.45,0,0,0,.58,3.3C116.24,84.52,120.6,78.87,125.28,80.45Z"/><path class="cls-14" d="M129.64,83.2a6.72,6.72,0,0,0-5.71,3.59A5,5,0,0,0,126.4,94a6.53,6.53,0,0,0,7.84-3.24,6.38,6.38,0,0,0,.33-.82A41.8,41.8,0,0,0,129.64,83.2Z"/><path class="cls-15" d="M129.44,83.44a6.34,6.34,0,0,0-5.59,3.42,5.31,5.31,0,0,0-.32,4.16c3.91-.78,6.26-3,7-6.29C130.19,84.31,129.82,83.87,129.44,83.44Z"/><path class="cls-10" d="M134.24,89.85a5,5,0,0,1-.37,1,6.1,6.1,0,0,1-3.18,2.9,5.7,5.7,0,0,1-4.2.07A4.71,4.71,0,0,1,123.74,91a5.07,5.07,0,0,1,.3-4,6.12,6.12,0,0,1,1.26-1.68A6.28,6.28,0,0,1,127.22,84a6,6,0,0,1,2.38-.41l-.36-.42a6.28,6.28,0,0,0-2.15.46,6.51,6.51,0,0,0-3.43,3.12,5.2,5.2,0,0,0,2.64,7.36,6.1,6.1,0,0,0,4.52-.08,6.45,6.45,0,0,0,2.07-1.31,6.15,6.15,0,0,0,1.36-1.8,6.62,6.62,0,0,0,.25-.65C134.42,90.15,134.33,90,134.24,89.85Z"/><path class="cls-10" d="M132.45,87.15c-.26-.36-.53-.72-.8-1.06a3.27,3.27,0,0,0-1-.62,4.18,4.18,0,0,0-5.13,2.06,3.35,3.35,0,0,0,1.7,4.74,4.18,4.18,0,0,0,5.13-2.06A3.47,3.47,0,0,0,132.45,87.15Z"/><path class="cls-16" d="M126.9,85.89a1.1,1.1,0,0,1-.51,1.44,1,1,0,0,1-1.38-.56,1.1,1.1,0,0,1,.51-1.44A1,1,0,0,1,126.9,85.89Z"/><path class="cls-16" d="M130.94,91.33a.58.58,0,0,1-.28.76.54.54,0,0,1-.73-.3.58.58,0,0,1,.27-.76A.56.56,0,0,1,130.94,91.33Z"/><path class="cls-10" d="M135.48,93.08s-2.6-7.46-7.61-10.78c-4.5-3-6.82-4.86-10.24-.38s.45,12.13,3.36,13.56,8.5,2.19,14.44-2.82l.09.62.14.91a17.38,17.38,0,0,1-1.87.87c-.32,0-3.72,2.79-8.07,2.69-3.64-.09-5.12-.73-7.92-3.26s-2.38-8.08-2.07-9a10.75,10.75,0,0,1,2.15-4.59c1.53-1.72,1.06-1,1.06-1a3.72,3.72,0,0,0-1.47.08,4.67,4.67,0,0,1,3.67-1.36,12.45,12.45,0,0,1,6.48,2.46C129.43,82.47,135,88,135.48,93.08Z"/><path class="cls-6" d="M166.5,88.54s-4,6.73-.38,17.07c.41,1.15.27-7.29,3.78-11.46,3.89-4.61,11.44-5.05,11.44-5.05s8.43-.35,11.77,3.4a30.37,30.37,0,0,1,5,7.7,15.36,15.36,0,0,0-3.58-13.92c-3.86-4.3-8.58-5.64-15.85-4.73C178.67,81.55,168.89,83.44,166.5,88.54Z"/><path class="cls-10" d="M183.9,85.78c-4.74-.35-13.23,5.15-14.32,5.76s-2.91-.07-2.94-3.63a9.08,9.08,0,0,0,.63,6.41A3.93,3.93,0,0,1,165.75,92c0,1.79.92,5.67,3.7,5.46,1.63-.13,6.09-5.31,10.62-6.81a14.23,14.23,0,0,1,14.79,3.67S191,86.32,183.9,85.78Z"/><path class="cls-17" d="M114.6,117.59s-3.87,1.54-4.12,5.33,8.75,21.78,19.21,24.75,28.88-12.26,31.87-15.47c2.41-2.58.51-7.81-2.58-6.5s-22.68,6.28-28.13,5.07S121.2,125.26,114.6,117.59Z"/><path class="cls-10" d="M122.66,76.35c4.89-.35,10.64,5.31,11.69,6s3,0,3.45-3.81a10.39,10.39,0,0,1-1.43,6.76,4.85,4.85,0,0,0,1.84-2.46c-.25,1.89-1.64,6-4.46,5.74-1.66-.14-3.32-5.43-7.77-7-8.8-3.19-15.59,3.8-15.59,3.8S115.3,76.87,122.66,76.35Z"/><path class="cls-17" d="M110,123s-7.43,9-8.4,16.51,7.66,17.9,9.07,19.62a32.53,32.53,0,0,1,19.75-4s6.56,1.69,15.55,9,28.24-5.6,28.24-5.6,11.81-6.6,7-20.49a20.34,20.34,0,0,0-18.16-14l-.59,2.45"/><path class="cls-17" d="M182.24,142.19s5.87-9.92,8.45-11.9l3.42-2.49s4.25,1.29,5.44,8.24a53.57,53.57,0,0,0,2.85,10.88s2.92,2.86,13.61-3.94l3.48-2.62-2.4,3.79s6.58-5.21,8.15-12,.93-4.44.93-4.44.82,6.34.1,8.28c0,0,.76-10.1,1.2-14.5.34-3.5,0-12.78,0-12.78l1.73,4.67s-4-21-8.93-28.38-1.83-3-1.83-3,2.52,4.45,5.69,3.73S242,77.92,244.89,65.11c0,0,1.06-5.71.08-7.47"/><path class="cls-17" d="M216.93,80.36s11.15,10.58,16.81,22.22a40.28,40.28,0,0,1,3.49,23"/><path class="cls-4" d="M130.31,148.13a31.05,31.05,0,0,0,.15,7"/><path class="cls-18" d="M144.05,44.48s-9.13-4.88-12-9.09l-7.35-9c-.73-.89-3.3-6.59-8.68-4.07a4.93,4.93,0,0,0-.46.23,12.53,12.53,0,0,0-2,1.34c-7.06,5.79-9.4,16.69-8.52,25.71,0,0,1.55,10.63,11.84,14.47l3.52-3.17,5.8-5.78s-4.12-6-4.69-12.25-.07-12.4-1-15.82-4.6-4.63-4.6-4.63"/><path class="cls-17" d="M118.11,111.6l-3,3.82s-5.64,1.33-8.51,5.2a21.06,21.06,0,0,0-4.09,9.88c-.56,3.1-2,2.51-2,2.51s-7.29-4.6-8.07-13.25c0,0-.52,1-.23,3.86,0,0-1.81-4-.7-7.4a14.14,14.14,0,0,0-1.41,5.32c0,2.51-.68-10.08,1.92-14.19a10.75,10.75,0,0,0-2.59,4.76c-.72,3,1.51-13.29,5.31-17.81"/><path class="cls-10" d="M168.38,95.2s-2.22,6.93-.66,7.94,4.58,2.22,15.68,1.28A12.09,12.09,0,0,0,194.86,94.3s-2.15-4-4.08-4.35L188,88.11S192.51,95,192,95.8s-2.38,4.55-2.38,4.55a17,17,0,0,1-12.53,3.71c-7.65-.78-6.72-3-6.72-3l.3-3.92.87-2.72Z"/><path class="cls-10" d="M115.93,80.9s-3.23,4.94-1.37,9.94,6,7.28,11.8,7.56a11,11,0,0,0,8.82-3.51l-.39-1.46-6.25,3.38-5.27.26-4-2.07L117,92.45l-1-4.12-.24-2.88s1.88-4.47,3.64-5.65Z"/><path class="cls-10" d="M168.43,80.36s9.84-8.87,26.43-1.26c0,0,6.88,5.18,8.06,9.34,0,0-2.36-11.23-14.14-14.32S167.68,78.06,168.43,80.36Z"/><path class="cls-10" d="M114,73.35s8.43-10.14,24.23-3.62c0,0,3.51.69,3,4.86,0,0,3.53-9.91-9.39-9.72s-19.22,7.26-18,8.86"/><path class="cls-10" d="M175,66.45s16.3.67,21.75,6.9C196.73,73.35,192.41,63.5,175,66.45Z"/><path class="cls-17" d="M134,88.18s4.28,5.59-2.79,12.5-15.33,10-16.36,16.91"/></g></svg>