<svg id="Layer_1" data-name="Layer 1" xmlns="http://www.w3.org/2000/svg" xmlns:xlink="http://www.w3.org/1999/xlink" viewBox="0 0 512 512"><defs><style>.cls-1,.cls-17{fill:none;}.cls-2{clip-path:url(#clip-path);}.cls-3{fill:#f6ddcd;}.cls-4{fill:#997968;}.cls-5{fill:#6b4a37;}.cls-18,.cls-6{fill:#c1b3ab;}.cls-7{fill:#cbaf9d;}.cls-8{fill:#d0b6a5;}.cls-9{fill:#b2917c;}.cls-10{fill:#433c37;}.cls-11{fill:#211b18;}.cls-12{fill:#815049;}.cls-13,.cls-15{fill:#f7e6e6;}.cls-13,.cls-17,.cls-18{stroke:#60452c;stroke-miterlimit:10;}.cls-13{stroke-width:0.75px;}.cls-14{fill:#333316;}.cls-16{fill:#d4b8a7;}.cls-19{fill:#60452c;}</style><clipPath id="clip-path"><rect class="cls-1" x="-532" y="-920" width="1600" height="900"/></clipPath></defs><g id="h"><path class="cls-3" d="M22.31,41.28S5,32.47,16.44,14.26c0,0,10.87-2.35,17.33,16.44l11.45-1.76s-.88.49,5.88-1.22A50,50,0,0,1,62.26,26l6.46-.58,11.45,2.3L89,31l17.91,6.75,3.53,11.46s6.46,13.8,7.34,16.15,2.64,6.16,2.64,6.16l2.35,5,2.94,6.75,2.59,22.46-2.59,12.88,7.75-6.26c11.77,5.89,16.55,8.1,16.55,8.1s-.37-2.21,4.41,4.78a115.16,115.16,0,0,1,8.1,14l14.71,24.28s3.31,5.52,9.2,14.35,9.57,12.5,12.14,16.55,21.9,19.45,56.1,15.73c0,0,34.19-6.1,57.88-15.24,0,0,40.29-14.22,66.35,49.09,0,0,10.94,20.64,0,66.86,0,0-13.3,30.41,19.48,52.93,0,0,2.37,14.22-5.92,23.7,0,0-2,91.64,0,94.4s8.29,6.32,0,10.27c0,0-.79-2-4.74,0s-8.69,0-8.69,0l2.76-8.69-4.34-72.68s0-23.7-11.46-34c0,0-64-41.08-66-44.63,0,0-3.83,22.47,8.83,52.31l-36.7,95.11s9.79,8.62,3.91,13.43l-6.31-5.13L260.67,493l-1.35-7.84L287.64,388l-25.29-52a356.94,356.94,0,0,1-76.05,11.63s-3.73,13.38-6,14.89L177.46,481.9s4.21,3.66,3.57,5.25l-16.25,2.23,1.28-4.78L153.41,356l-2.9-13.29-3.22-.86s2,48.73-7.48,66.05l-4.72,59.44s5.31,10.78-2.53,9.33l-8.93-2.54.52-75.23s-11.32-58-10.74-70.22c0,0-25.24-10.15-31.62-61.22,0,0-3.39-10.35,5.9-78.05,0,0,4.14-53.6-7.63-60.66,0,0-7.36,1.47-9.42,10.59,0,0,3.53,43-36.48,32.37,0,0-13.53-6.77-16.48-15.3,0,0-13.53-1.47-12.35-15,0,0-2.95-11.18,8.82-10.29,0,0-.47-13.33,5.14-23.65L16.94,77.05S12.63,66,15.1,60.12A47.11,47.11,0,0,1,22.31,41.28Z"/><path class="cls-4" d="M260.77,332.78l39.76-5.22s-2.86,32,8.94,56.7l-36.69,95.11s9.92,7,3.91,13.43l-6.32-5.13-9.06,5.13L260,485l28.32-97.16Z"/><path class="cls-4" d="M112.66,324s9.81,69.08,11.89,73.41c2.23,4.66-.92,76.67-.92,76.67s10.12,3,11.54,2.41c0,0,4.35,1.15.56-9.41l4.72-59.44s10.34-13.11,7.48-66.05Z"/><path class="cls-5" d="M149.72,504.8s5-16.63,18.41-19.17c0,0,12.83-.89,13.57.45,0,0,2.44,18.73-5.45,19.51l-26.81.12Z"/><path class="cls-5" d="M246.76,503s3.91-16.93,17.12-20.33c0,0,12.74-1.72,13.57-.44,0,0,3.66,18.53-4.17,19.82l-26.74,1.87Z"/><path class="cls-5" d="M364.54,506.17s5.11-16.87,18.79-19.44c0,0,13.09-.91,13.85.45,0,0,2.49,19-5.57,19.78l-27.36.13Z"/><path class="cls-5" d="M105,493.27s5-16.64,18.41-19.18c0,0,12.83-.88,13.57.46,0,0,2.45,18.72-5.45,19.5l-26.81.13Z"/><path class="cls-6" d="M361.52,213.05s11-10.05,19.12,6.29a75.51,75.51,0,0,1,7,34S411.44,418.1,507,319.62c0,0-46.32,28.81-66.38-17.88,0,0-15.69-33.19-19.7-51.43,0,0-22.24-78.9-70-47.29C350.9,203,360.89,212.31,361.52,213.05Z"/><path class="cls-7" d="M112.87,60.66s21.86,37.29,7.72,135c0,0-18.46,71.67,21.41,95.4,0,0,32.53,36.91,135,19.71,0,0,14.71,14.5,23.79,16.9,0,0-71.82,21.31-113.24,19.34,0,0-59.46-4.5-82.59-26.18,0,0-19.76-14.58-22.88-63.46,0,0,5-70.93,7.07-79.6-.41-2,1.33-40.75-8.2-49.15,0,0-9.6,2.22-9.56,18,0,0-.71,32.61-31,26.07-1.9-.35-15.74-1.86-21.79-16.44,0,0,38.59,15.47,51.29-14.28,0,0,6.72-16.08-.66-29.05,0,0,17.55,13.67,35.93,1.07C105.09,114,121.89,98.34,112.87,60.66Z"/><path class="cls-7" d="M44.25,28.57S56.77,82.8,41.36,99.8c0,0-25.44,20.8-16.36,40.43,0,0-12.13-6.68-10.16-12.57,0,0,1.12-15.61,5.09-20.45L17.58,76.84S7.69,62.88,23,41.06c0,0-17.92-9-5.87-27,0,0,10.92-3.6,17.33,16.45Z"/><path class="cls-6" d="M27.81,51.24S38,43.58,42.4,33.37l7.29,31,2.19-31L60.27,53.8V30.45L72.67,53.8V33.37l6.2,17.14,4-13.86,6.09.27,2.3.1s26.51,24.31,30.41,67.73c0,0-1.67,35.07,10.58,37.86,0,0,6.14,6.49,5.69-22.05l4.47,65.25,10.32-47.18L155,202l6.63-40.18,12.9,55.66,1.47-42,16.59,48.65V203.5l26.9,32.43-9.95-31.69,9.95,4S175,59.74,68.52,8.46c0,0-28.62-13.65-20.85,13.76C47.67,22.22,26.68,34.12,27.81,51.24Z"/><path class="cls-8" d="M86.31,52s35.06-3.8,29.8-29.81c0,0-2.1-21.6-18.7,0C97.41,22.18,84,41.76,86.31,52Z"/><path class="cls-9" d="M90.08,48.38S94,22.51,107.49,20.56C107.49,20.56,116.92,38.78,90.08,48.38Z"/><path class="cls-9" d="M24.93,37.73l6.41-5.44S29.15,18.82,19.4,20.56C19.4,20.56,15.18,28.85,24.93,37.73Z"/><path class="cls-3" d="M139.71,289.63s12.1,58,16.07,68.59c4.42.88,19.86-3.09,19.86-3.09l9.71-4.13s11.92-18.38,5.3-45.3l-19.42-26.48Z"/><ellipse class="cls-10" cx="46.16" cy="141.43" rx="7.33" ry="5.28" transform="translate(-73.7 53.31) rotate(-35.6)"/><ellipse class="cls-10" cx="12" cy="140.23" rx="3.72" ry="5.51" transform="translate(-36.6 8.14) rotate(-15.31)"/><path class="cls-11" d="M24,157.87s24.73,8.38,40-6.91c0,0-4.6,13-23.48,13.45C40.45,164.41,28.13,163.07,24,157.87Z"/><path class="cls-12" d="M74.8,58.6s14.3-1.21,20.84,10.18C95.64,68.78,94.37,51.27,74.8,58.6Z"/><path class="cls-12" d="M19,63.25s8.41-10.81,21-7.62C40,55.63,26.34,44.58,19,63.25Z"/><circle class="cls-13" cx="77.85" cy="84.47" r="13.24"/><ellipse class="cls-14" cx="78.85" cy="83.88" rx="9.81" ry="9.07"/><circle class="cls-15" cx="84.87" cy="80.01" r="2.66"/><ellipse class="cls-13" cx="29.48" cy="78.37" rx="10.13" ry="11.77"/><ellipse class="cls-14" cx="30.25" cy="77.85" rx="7.51" ry="8.07"/><ellipse class="cls-15" cx="34.85" cy="74.41" rx="2.04" ry="2.37"/><path class="cls-16" d="M46.16,132.27s8.66-1.4,10.69,5.45C56.85,137.72,60.44,128.46,46.16,132.27Z"/><path class="cls-17" d="M35.06,31.7S29.91,11.3,17.08,14c0,0-13,14.38,5.87,27,0,0-14.85,16.94-5.37,35.78l2.35,30.37s-6.19,13.58-5.14,23.65c0,0-14.81-2.25-7.33,18.46.88,1.35,3.07,4.53,10.86,6.85,0,0,4.58,15.78,26.78,17.19,0,0,21.48,4.28,25.78-24.94,0,0-2.11-19.88,20.21-26.19,0,0,26.16-5.66,25.21-43.82"/><path class="cls-17" d="M80.38,127.92s11.94,9.11,7.43,57.13c0,0-10.34,72.22-2,99.41,0,0,4.72,49.5,65.3,56.69"/><path class="cls-17" d="M139.71,289.63l14.34,66.13,14.08,129.87s-12.5.75-18.69,20.08c4.71,1.33,26.81-.12,26.81-.12s6.64,1.86,5.45-19.51l-3.6-4.4L181,362.34s16.44-20.62,11.7-65.7"/><path class="cls-17" d="M112.76,327.32l11.79,70.11.66,1.23-1.4,75.44s-12.34.45-19.12,20.08H133s7.1-3.16,4-19.63c0,0,.75-6.53-1.22-7.45l4.72-59.44s11.76-18.74,7.48-66.05l-.27-1.3"/><path class="cls-17" d="M188.36,347s43.56,2,112.17-19.47"/><path class="cls-3" d="M266.9,300.13s12.71,23.54,64.65,53.6l-4.78-22.13-24.29-17a12.27,12.27,0,0,0-3.25-1.78C297.15,312.05,266.9,300.13,266.9,300.13Z"/><path class="cls-17" d="M218.82,206.26c30.42,12.8,85.89-8.58,85.89-8.58,24.1-12.05,46.19,5.34,46.19,5.34,51,43.3,27.07,109.21,28.45,105.81-13.1,37.8,19.15,54.92,19.65,54.72,3.51,11.76-7.41,23.69-7.41,23.69v94.41c3,.34,5.59,5.53,5.59,5.53l-.13,12.46c-.49,6.44-4.47,7.11-4.47,7.11s-26.62.33-28.33.34c5.05-17.34,17.14-20.66,17.14-20.66l1-3.2-4.62-77.68c-1.28-21.76-11.18-29-11.18-29C274.42,323,263.53,298,263.53,298"/><path class="cls-17" d="M27.77,50.05c.05.11-2-16.41,19.9-27.83,0,0-7.8-22.83,14.6-16,0,0,24,8.88,33.37,18.22,0,0,14-23.5,19.94-5,0,0,4.23,13.74-1.85,18.35,0,0,71.75,59.21,103.93,167.81l1.79,1.2.6,2.56L209,204.14l10.49,31.79-26.9-32.43v20.64L176,175.49l-1.47,42-12.9-55.66L155,202l-2.22-63.4-10.32,47.18L138,120.56s.54,47.46-15,6c0,0-4.79-47.41-7.62-50.56,0,0-8.92-22.86-14.71-27.95,0,0-12.91,4.32-14.32,3.94A42,42,0,0,1,88.66,36.9l-5.78-.25-4,13.86-6.2-17.14V53.8L60.27,30.45l-.58,21.94s-7.66-21.15-7.81-19l-2.19,31-7.29-31S30.47,51.19,27.77,50.05Z"/><path class="cls-18" d="M95.64,24.39s-5,8.46-7,12.51"/><path class="cls-18" d="M100.63,48.05s10.12-7,13.1-10.32"/><path class="cls-17" d="M361.52,213.05s13.73-13.77,22.93,16.3c0,0,3.39,14.09,3.2,22.93-.12-.73,24,167.43,119.35,67.34,0,0-41.27,29-64.15-13.19,0,0-21.47-43.33-20.39-50.19,0,0-25.11-87.61-71.56-53.22"/><path class="cls-17" d="M263.21,337.65l25.07,50.14L260,485s-7.64.88-13.2,18l-.22,1.07L273,502s8.11-1.75,4.48-19.85l-4.67-2.82,36.69-95.11s-10.42-25-8.94-49.9"/><path class="cls-19" d="M18.52,155.71a61.32,61.32,0,0,0,14.26,3.89,46.09,46.09,0,0,0,14.78-.1,31.86,31.86,0,0,0,7.08-2.17A27,27,0,0,0,61,153.52l.73-.57c.23-.2.46-.42.69-.63.45-.42.92-.83,1.35-1.27a32.67,32.67,0,0,0,2.43-2.83,38.15,38.15,0,0,0,3.92-6.33,38.47,38.47,0,0,1-3.82,6.41,36.49,36.49,0,0,1-2.39,2.88c-.43.45-.9.87-1.35,1.31-.22.21-.44.43-.68.64l-.73.59a27.6,27.6,0,0,1-6.35,4A32.55,32.55,0,0,1,47.66,160a46.77,46.77,0,0,1-15,.36,62.09,62.09,0,0,1-14.56-3.73.49.49,0,0,1-.28-.64.5.5,0,0,1,.65-.29h0Z"/></g></svg>