<svg id="Layer_1" data-name="Layer 1" xmlns="http://www.w3.org/2000/svg" viewBox="0 0 512 512"><defs><style>.cls-1{fill:#ffe400;}.cls-2,.cls-26,.cls-27{fill:#fbcd09;stroke-width:0.85px;}.cls-2,.cls-23,.cls-26,.cls-27,.cls-9{stroke:#6c3314;}.cls-12,.cls-15,.cls-2,.cls-23,.cls-25,.cls-26,.cls-27,.cls-7,.cls-9{stroke-miterlimit:10;}.cls-2{opacity:0.48;}.cls-3,.cls-4{fill:#5eb7e7;}.cls-4{opacity:0.6;}.cls-5{fill:#f0c318;}.cls-6{fill:#ffcc05;}.cls-7{fill:#fceb75;stroke:#a38c31;stroke-width:0.78px;}.cls-8{fill:#fdcb08;}.cls-23,.cls-24,.cls-25,.cls-9{fill:none;}.cls-9{stroke-width:0.74px;}.cls-10{fill:#020202;}.cls-11{fill:#fff;}.cls-12,.cls-15{fill:#4ca5dc;stroke:#0c2735;}.cls-12{stroke-width:0.73px;}.cls-13,.cls-14{fill:#f9f9f9;}.cls-14{opacity:0.58;}.cls-15{stroke-width:0.55px;}.cls-16{fill:#f37a20;}.cls-17{fill:#e56f25;}.cls-18{fill:#a45125;}.cls-19{fill:#3f150b;}.cls-20{fill:#f6aeb7;}.cls-21{fill:#e17b7a;}.cls-22{fill:#bb5427;}.cls-23,.cls-25{stroke-width:0.92px;}.cls-25{stroke:#7d3e21;}.cls-26{opacity:0.46;}.cls-27{opacity:0.26;}.cls-28{fill:#70c6ec;}</style></defs><g id="d"><path class="cls-1" d="M218.39,274s-24.09-8-34.26,29.14c-10.59,38.7,20.33,76.62,20.33,76.62Z"/><path class="cls-2" d="M201.52,423.78S221.8,436.21,267.05,438c51,2,96.06,1.17,114.23-10.2,0,0,12.24-8.16,12.24-2,0,1.89-12.63,21.49-111.45,19.49,0,0-68.62-2-86.09-21.49C196,423.78,194.23,421.21,201.52,423.78Z"/><path class="cls-3" d="M294.58,392.12c-58.8,0-106.47,12.33-106.47,27.54s47.67,27.53,106.47,27.53,106.48-12.32,106.48-27.53S353.39,392.12,294.58,392.12Zm0,52.63c-55.42,0-100.35-11.24-100.35-25.09s44.93-25.09,100.35-25.09,100.36,11.23,100.36,25.09S350,444.75,294.58,444.75Z"/><path class="cls-4" d="M294.58,384C220.23,384,160,402.23,160,424.76s60.27,40.79,134.62,40.79,134.63-18.26,134.63-40.79S368.94,384,294.58,384Zm0,78c-70.07,0-126.89-16.65-126.89-37.17s56.82-37.17,126.89-37.17,126.89,16.64,126.89,37.17S364.66,461.93,294.58,461.93Z"/><path class="cls-4" d="M294.58,379.88c-96.88,0-175.42,25.34-175.42,56.59s78.54,56.59,175.42,56.59S470,467.73,470,436.47,391.47,379.88,294.58,379.88Zm0,108.15c-91.31,0-165.34-23.08-165.34-51.56s74-51.56,165.34-51.56S459.93,408,459.93,436.47,385.9,488,294.58,488Z"/><path class="cls-1" d="M358.71,338S369.14,296.2,389.47,280s-14.23,58-14.23,58,24.4-58,34.57-58c13.63,0-20.34,67.32-20.34,69.64s22.87-52.2,34.57-48.75c5.17,1.53-4.92,37.68-54,105.56L346.78,396l1.94-53.33A14.6,14.6,0,0,0,358.71,338Z"/><path class="cls-1" d="M241.06,208s-16.27,39.46-36.6,99.83c-18.93,56.21-9.83,112.87,77.89,114.91,0,0,93.83,6.12,97-33.66l-40.66-67.33-46.76-44.11S257.32,266,279.69,201Z"/><path class="cls-5" d="M277.59,202.81s-9.51,28.07-5.4,46.86S286.6,273.1,286.6,273.1l-21,12.61s-12.41-38.92.7-76.69C266.29,209,274.57,205.05,277.59,202.81Z"/><path class="cls-6" d="M198.71,373.76s36.72,39.81,77.52,40.8c14.12.34,36.71,2,50.22-11.57l50.07-41.82,10.92,4.68S424,331,424,300.84c0,0,8.3,4.16-5,33.42s-26.59,54.62-42.86,68.06c0,0-24.48,20.4-65.28,22.44C296.64,425.47,211,428.84,198.71,373.76Z"/><path class="cls-7" d="M360.37,342.36s14.81,15.55,28.09,24.65c10.16,7,11.18,24.37-23.38,10.44,0,0,34.56,16.25,0,16.25l-14.23-2.32s43.71,22.06-24.4,11.61c0,0-27.45-3.48-41.68-29L312.05,338Z"/><path class="cls-8" d="M267.49,328.7s-10.17-51.08,16.26-58c0,0,18.3-11.61,54.9,41.79,0,0,18.29,27.86,26.43,34.82s18.3,27.86-18.3,20.9c0,0,24.4,23.21-16.27,13.93,0,0,10.17,37.14-38.39,2.19C292.12,384.29,273.59,368.17,267.49,328.7Z"/><path class="cls-1" d="M237.71,215.9s18.16-1.18,38.59-12.93c28.08-16.16,51.26-27.58,43.22-65.51,0,0,9-16.77-3.5-50.86s-38.59-38.78-52.2-40c0,0,7.43-12.93-15-23.51,0,0-.88,7.06,5.93,16.46,0,0-18.16-24.68-40.86-7.05,0,0,22.7,5.87,26.1,10.58,0,0-17-4.71-22.69,8.22,0,0,13.62,1.18,18.15,3.53,0,0-6.8-1.18-11.34,5.88,0,0-31.78-14.11-36.32,23.5l2.27,23.51-1.13,11.76s-26.11,10.57-12.49,30.56l49.94,62.29Z"/><path class="cls-5" d="M317.63,94.31s4.06,35.78-5,41.66c0,0,6.3,50.22-62.67,70.36l-2.37,7.41s18.52-3.72,32.13-13.12c0,0,23.84-12.93,29.51-20s16.38-16.79,9.32-43.07C318.53,137.57,328.31,125.52,317.63,94.31Z"/><path class="cls-9" d="M192.57,68.53c13.94-17.77,31.53-7.78,31.53-7.78,4.54-7.06,11.34-5.88,11.34-5.88-3.4-2.35-18.15-3.53-18.15-3.53C223,38.41,240,43.12,240,43.12c-4.54-4.71-26.1-10.58-26.1-10.58,20.43-17.63,40.34,6.32,40.34,6.32a23.7,23.7,0,0,1-5.41-15.73c22.44,10.58,15,23.51,15,23.51s34,0,49.23,32.91c16.73,36.24,6.47,57.91,6.47,57.91a68.09,68.09,0,0,1,1.06,20.8c-6.78,29.35-27.94,33.83-39.74,42.36s-34.36,14.16-34.36,14.16l-12.31-7.7-56.33-55.3s-6-5.23-5.16-15.15,14.48-16.3,14.48-16.3l2.35-17.24s-.59-5.91-1.43-15.78C188.08,87.31,187.31,75.24,192.57,68.53Z"/><path class="cls-10" d="M267.22,86.6s10.21,1.18,15.89-7c0,0-2.27,7-11.35,9.41,0,0-4.54,1.17-5.67,0S267.22,86.6,267.22,86.6Z"/><path class="cls-10" d="M269.49,94.83s12.48,1.18,17-3.52c0,0-1.13,7-14.75,5.87Z"/><path class="cls-10" d="M272.89,101.88a11.74,11.74,0,0,0,12.49,3.53s-6.81,4.39-12.49-1.17Z"/><ellipse class="cls-5" cx="250.73" cy="111.65" rx="21.42" ry="35.7"/><ellipse class="cls-10" cx="253.6" cy="111.88" rx="20.43" ry="34.67"/><ellipse class="cls-11" cx="253.6" cy="114.23" rx="18.16" ry="31.15"/><ellipse class="cls-12" cx="257.12" cy="122.75" rx="17.62" ry="13.82" transform="translate(96.27 357.92) rotate(-81.15)"/><ellipse cx="257.12" cy="122.75" rx="12.94" ry="10.15" transform="translate(96.27 357.92) rotate(-81.15)"/><ellipse class="cls-13" cx="265.41" cy="125.94" rx="3.02" ry="3.61" transform="matrix(0.21, -0.98, 0.98, 0.21, 85.49, 358.17)"/><ellipse class="cls-14" cx="261.3" cy="111.59" rx="4.92" ry="5.79" transform="translate(95.43 342.28) rotate(-77.41)"/><ellipse class="cls-5" cx="203.38" cy="104.7" rx="34.22" ry="14.25" transform="translate(45.34 270.08) rotate(-73.54)"/><path class="cls-10" d="M198.89,82.68s-10.78,1.14-15.07-6.83c0,0,1,6.84,9.93,9.11,0,0,4.47,1.13,5.87,0S198.89,82.68,198.89,82.68Z"/><path class="cls-10" d="M195.77,90.72s-13.14,1.14-16.94-3.41c0,0-.18,6.83,14.14,5.69Z"/><path class="cls-10" d="M191.33,97.59s-6,5.68-14,3.39c0,0,6.39,4.27,13.5-1.11Z"/><ellipse class="cls-10" cx="201.34" cy="106.74" rx="34.22" ry="14.25" transform="translate(41.92 269.59) rotate(-73.54)"/><ellipse class="cls-11" cx="200.58" cy="108.92" rx="30.73" ry="12.67" transform="translate(39.09 270.22) rotate(-73.47)"/><ellipse class="cls-15" cx="201.15" cy="115.02" rx="16.16" ry="8.34" transform="translate(40.59 282.09) rotate(-75.9)"/><ellipse cx="201.15" cy="115.02" rx="11.87" ry="6.12" transform="translate(40.59 282.09) rotate(-75.9)"/><ellipse class="cls-14" cx="205.71" cy="105.58" rx="4.62" ry="3.41" transform="translate(91.84 306.82) rotate(-87.66)"/><ellipse class="cls-13" cx="206.55" cy="117.22" rx="2.56" ry="1.86" transform="translate(44.84 291.16) rotate(-76.66)"/><path class="cls-16" d="M273.88,158.4c-1.35-11.28-13.78-11-27.28-10.11s-25.82-18.79-30.8-23.7-15.26-2.89-25.23,11-22,15-22,15S141.28,140.19,126,152s-3.81,24.85-3.81,24.85c7.92,8.67,21.71,6.65,28.16,6.07s15.26-7.22,23.18-6.07,26.4,9,26.4,9c-.29,15.61-38.2,57,.59,63.86,37.55,6.65,45.28-27.18,49.39-46.55S276,176.08,273.88,158.4Z"/><path class="cls-17" d="M128.57,181.38s-2-11.91,20.38-13.09,51.81,15,67.74,10.44,31.86-7.62,38.05-22.78c0,0,2.27-4.7,7.94-2.35a20,20,0,0,0,10.21,1.13s2.56,3.57-.42,13.56-17.58,18.26-21.06,30-5.85,29.78-14.88,39.56-13.65,13.3-32.33,12.72-22-10.59-22.09-14.69.79-12.36,7.77-25,9.76-21,10.07-25c0,0-25.87-10.06-29.24-10A107.85,107.85,0,0,1,149,183.09C137.85,185.34,129.51,182.12,128.57,181.38Z"/><path class="cls-18" d="M259.82,159.2a67.33,67.33,0,0,1-28.91,19.08c-18.16,5.88-23.84,7.06-42,1.18s-28.38-10.58-49.94-7.05c0,0-1.94,2.68,3,1.92s28,.2,40.29,5,15.45,8.15,28.07,7.07,32.88-10.12,39.21-15a126.78,126.78,0,0,0,11.86-10.62Z"/><path class="cls-19" d="M206.83,186.37s-3.3,19.68-11.88,32.68,2.42,24.92,17.38,21.24,20.25-11.92,30.59-46.6c0,0,5.28-20.37,14.08-28.17C257,165.52,229.72,187.62,206.83,186.37Z"/><path class="cls-9" d="M138.9,174.44s28.94-1.42,40.45,3.84l20.6,7.57s11,1.51,17.67-.41,30.79-8.73,43.79-24.64l-4.35-4.38s7.39,5.4,6.8,7.16"/><path class="cls-9" d="M161.72,148.53s18,7.73,25.44,7.73"/><path class="cls-20" d="M202.39,203.24s5.19-8.35,16.32-3.8c0,0,9.21-10.16,22.28-2.27a116.22,116.22,0,0,1-5.57,18.18c-3.71,9.09-9.28,22.72-24.13,25s-20.42-6.82-18.56-15.91S199.06,218.41,202.39,203.24Z"/><path class="cls-21" d="M204.2,201.4s9-1.49,9.61,3.27l3.4-4.09s19-5.19,16.34,18.58l4.33-11.09,3.11-8.52.65-1.86s-3.93-4.13-8.67-4.09a16.52,16.52,0,0,0-13.35,4.69l-.91,1.15S211.53,195.14,204.2,201.4Z"/><path class="cls-9" d="M206.83,186.37s-5.52,23.78-10.87,31.06-6.49,19.34,5.43,22.72,23.9-3.11,28.69-12.8c0,0,5.91-13.17,12.16-31.41s11.93-27.65,11.93-27.65"/><path class="cls-9" d="M202,203.56a14.43,14.43,0,0,1,16.74-4.12"/><path class="cls-9" d="M212.18,207.08s6.37-10.71,14.75-12.93a15.72,15.72,0,0,1,14.06,3"/><path class="cls-22" d="M182.11,230s4.46,15.24,22.09,14.67c0,0,14.14,2.87,23.3-5.27,7.94-7.05,13.51-17,18.67-39.06s22.91-34.4,22.91-34.4L274,162s-.65,11.2-8.27,16.66S250.82,198,249.94,206.33s-6.41,30.81-21.23,39.58-36.11,8.91-45.33-4.09A13.6,13.6,0,0,1,182.11,230Z"/><path class="cls-9" d="M200,185.85a81.3,81.3,0,0,1-9.39,23.48c-7.32,12.44-10.16,23.61-8.29,30.35,1.51,5.47,10,12.18,19.7,12.42s38.36,1.89,47.27-41.25c0,0,1.44-20.47,18.79-34.16,0,0,10.37-11.43,4.21-23.14,0,0-4.94-9.5-23-5.43-13.83,3.13-32.91-23.63-32.91-23.63s-8.26-9.7-21.82,6.18-19.24,22.93-36,17.15c0,0-18.81-5.27-31.11,3.2s-13.83,22.87,1.11,30.36,43-5,43-5"/><path class="cls-10" d="M241.38,68.27s4.28-9.87,19-9.87,20.43,14.1,20.43,14.1-7.09-12.26-19.43-12.59S242.78,67.57,241.38,68.27Z"/><path class="cls-10" d="M193.46,69.8s3.19-9,14.22-9S223,73.68,223,73.68s-5.3-11.24-14.53-11.55S194.5,69.16,193.46,69.8Z"/><path class="cls-9" d="M231.47,66s-9.08,3.52-7.37-5.29"/><path class="cls-19" d="M212.75,188.86S184.38,226.48,206,241c0,0-23-.16-11.37-23.9,8.84-18,12.48-30.56,12.48-30.56Z"/><path class="cls-6" d="M216.33,274S203.72,308.81,201,319.91s-5.27,38.49-.92,53.82c0,0-10.92-18.33-13.45-27C182.1,331,195.68,268.1,216.33,274Z"/><path class="cls-23" d="M197.69,370.7C181.15,346.08,176,317.09,188,292.35S216.33,274,216.33,274"/><path class="cls-24" d="M278.49,201.91s-6.94,17.12-6.94,36.25c0,23.21,10.68,31.47,10.68,31.47l63.53,53.27,11.78,16.26c2.63-5.78,5.5-24.39,20.41-46.16s17.58-14.29,17.58-14.29c2,12.7-18.69,55.55-18.69,55.55s8.33-16,14.42-30.21c6.35-14.82,22.61-35.71,21.74-17.94s-26.3,68.26-26.3,68.26,12.94-23.35,12.79-23.45,22.19-40.83,27.13-27.76c3.52,9.29-11,39.54-11,39.54-18.6,46.5-40.35,63.1-40.35,63.1C366,435,312.94,439,312.94,439c-63.23,4.07-102.38-17.48-111.88-60.21s3.4-73.35,7.47-82.63,15.9-47.43,15.9-47.43"/><path class="cls-1" d="M269.25,338s9.85,23.09,25.39,23.13,0-23.13,0-23.13,15,16.22,26.48,11.56-4.73-24.28-4.73-24.28,22.26,12.82,30.39,1.06c0,0-1.89-7.17-23.31-33.77s-36.83-28.05-49.88-17.31S260.86,326.49,269.25,338Z"/><path class="cls-25" d="M279.69,270.66s20.47-11.82,43.78,21.95c0,0,16.2,20.16,24.84,33.93a118.52,118.52,0,0,0,19.17,23.14s13.35,16.1-3.68,19.61c0,0-12.95,1.2-17-1.12,0,0,9.37,8.72,6.72,13.65s-23,.28-23,.28,3.32,13.46-4.44,17.18-37.12-9.95-50.45-40.4C265.45,335.66,249.19,289.23,279.69,270.66Z"/><path class="cls-26" d="M203.81,448.21s22.13,5.9,61.2,8.16c47.2,2.74,69.35,2,99.95-4.08,0,0,18.36-4.33,18.36-2,0,1.74-7.31,10.75-87.72,12.24,0,0-77.51,0-93.83-12.24C201.77,450.25,197.51,445.86,203.81,448.21Z"/><path class="cls-27" d="M234.41,480.85s14.08.82,40.8,2c32.27,1.47,34.67,0,69.35,0h18.36c0,1.07-15.07,8.91-73.44,8.16,0,0-55.07,0-63.23-8.16C226.25,482.89,222.17,480.85,234.41,480.85Z"/><path class="cls-23" d="M226.25,248.31s-2,2-9.56,24.22c-8,23.64-27.16,77.77-17,104.43,0,0,11,26.83,26.55,32.5"/><path class="cls-23" d="M370.06,406.4s15.57-7.14,30.73-35.7,33.37-62.21,23.25-69.86c0,0-9.47-7.67-37.34,53.53,0,0,25.44-49.57,26.33-69.65s-27.13,23.75-37.6,52.83c0,0,24.2-48.44,20.12-58.64-4-9.94-32.63,34.68-37.31,60.68"/><path class="cls-23" d="M279.38,201.91s-9.19,24-6.68,46.4c0,0,2.27,16.12,9.53,21.32"/><path class="cls-28" d="M215,402.32s18.67,14.56,61.2,20.4c27.27,3.74,63.23,0,83.63-10.2l16.32-10.2s4.08,0,4.08,2-30.51,28.89-89.76,26.52C239.51,428.84,208.91,410.48,215,402.32Z"/></g></svg>