<svg id="Layer_1" data-name="Layer 1" xmlns="http://www.w3.org/2000/svg" xmlns:xlink="http://www.w3.org/1999/xlink" viewBox="0 0 1600 900"><defs><style>.cls-1,.cls-2,.cls-37{fill:none;}.cls-2{stroke:#a9c338;}.cls-10,.cls-2,.cls-24,.cls-36,.cls-37,.cls-38,.cls-47,.cls-49,.cls-5,.cls-50,.cls-51,.cls-54,.cls-56,.cls-57,.cls-58,.cls-59,.cls-61,.cls-62,.cls-65,.cls-67,.cls-7,.cls-8,.cls-9{stroke-miterlimit:10;}.cls-3{clip-path:url(#clip-path);}.cls-4{fill:#e05c56;}.cls-42,.cls-47,.cls-5,.cls-61{fill:#fbd3c7;}.cls-10,.cls-36,.cls-37,.cls-47,.cls-5,.cls-54,.cls-56,.cls-57,.cls-58,.cls-59,.cls-65,.cls-67,.cls-7,.cls-8,.cls-9{stroke:#323232;}.cls-6{fill:#e4a68d;}.cls-7{fill:#dfcdc7;}.cls-8{fill:#9d9d9d;}.cls-36,.cls-8,.cls-9{stroke-width:0.5px;}.cls-9{fill:#9dbae1;}.cls-10,.cls-36,.cls-83{fill:#e0614f;}.cls-11{clip-path:url(#clip-path-2);}.cls-12{fill:url(#radial-gradient);}.cls-13{fill:url(#radial-gradient-2);}.cls-14{fill:url(#radial-gradient-3);}.cls-15{fill:url(#radial-gradient-4);}.cls-16{fill:url(#radial-gradient-5);}.cls-17{fill:url(#radial-gradient-6);}.cls-18{fill:url(#radial-gradient-7);}.cls-19{fill:url(#radial-gradient-8);}.cls-20{fill:url(#radial-gradient-9);}.cls-21{fill:url(#radial-gradient-10);}.cls-22{fill:url(#radial-gradient-11);}.cls-23{fill:#e5262d;}.cls-24{fill:#bee6f6;stroke:#5eb8cd;}.cls-25{fill:#ee443c;isolation:isolate;opacity:0.96;}.cls-26{opacity:0.49;}.cls-27{fill:#fff;}.cls-28{opacity:0.29;}.cls-29{clip-path:url(#clip-path-3);}.cls-30{opacity:0.65;}.cls-31{opacity:0.46;}.cls-32{fill:#f05a4e;}.cls-33{opacity:0.21;}.cls-34{fill:#f18d79;}.cls-35{fill:#431b15;}.cls-38{fill:#3e2c13;stroke:#3e2c13;}.cls-39{fill:#ae6227;}.cls-40{fill:#ef4b3b;}.cls-41{fill:#f49990;}.cls-43{fill:#323232;}.cls-44{fill:#dd9f8f;}.cls-45{fill:#e9d960;}.cls-46{fill:#e0afa2;opacity:0.39;}.cls-47{stroke-width:0.75px;}.cls-48{fill:#dcc2c2;}.cls-49{fill:#767170;stroke:#3f4040;}.cls-50,.cls-55{fill:#456aab;}.cls-50{stroke:#222058;}.cls-51{fill:#c5b6b4;stroke:#663f3f;}.cls-52{fill:#ced9ea;}.cls-53{fill:#e5d6d4;}.cls-54{fill:#f8efed;}.cls-56{fill:#5a7dbe;}.cls-57{fill:#83a8d8;}.cls-58{fill:#efc35b;}.cls-59{fill:#e8baaf;}.cls-60{fill:#c07d74;}.cls-61{stroke:#5f4a43;}.cls-62{fill:#321213;stroke:#221f1f;}.cls-63{fill:#c48a74;}.cls-64{fill:#d09787;}.cls-65{fill:#f7fbff;}.cls-66{fill:#451e15;}.cls-67{fill:#580d0d;}.cls-68{fill:#e7835b;}.cls-69{fill:#eed87a;}.cls-70{clip-path:url(#clip-path-7);}.cls-71{fill:url(#radial-gradient-12);}.cls-72{fill:url(#radial-gradient-13);}.cls-73{fill:url(#radial-gradient-14);}.cls-74{fill:url(#radial-gradient-15);}.cls-75{fill:url(#radial-gradient-16);}.cls-76{fill:url(#radial-gradient-17);}.cls-77{fill:url(#radial-gradient-18);}.cls-78{fill:url(#radial-gradient-19);}.cls-79{fill:url(#radial-gradient-20);}.cls-80{fill:url(#radial-gradient-21);}.cls-81{fill:url(#radial-gradient-22);}.cls-82{clip-path:url(#clip-path-8);}</style><clipPath id="clip-path"><rect class="cls-1" x="10.66" y="-11.19" width="1589.92" height="900"/></clipPath><clipPath id="clip-path-2"><path class="cls-2" d="M789.14,411.12a21.21,21.21,0,1,1,4,30.07A21.45,21.45,0,0,1,789.14,411.12Z"/></clipPath><radialGradient id="radial-gradient" cx="2079.89" cy="618.34" r="21.45" gradientTransform="matrix(-0.6, 0.8, -0.8, -0.6, 2546.49, -871.99)" gradientUnits="userSpaceOnUse"><stop offset="0.88" stop-color="#fdfcf1"/><stop offset="0.93" stop-color="#f9f18d"/></radialGradient><radialGradient id="radial-gradient-2" cx="2081.24" cy="618.8" r="19.73" gradientTransform="matrix(-0.6, 0.8, -0.8, -0.6, 2546.49, -871.99)" gradientUnits="userSpaceOnUse"><stop offset="0.19" stop-color="#f8d00a"/><stop offset="0.24" stop-color="#f7d20c"/><stop offset="0.57" stop-color="#f5df29"/><stop offset="0.76" stop-color="#f4e338"/><stop offset="1" stop-color="#f3ea27"/></radialGradient><radialGradient id="radial-gradient-3" cx="2081.24" cy="618.78" r="19.83" xlink:href="#radial-gradient-2"/><radialGradient id="radial-gradient-4" cx="2081.52" cy="619.04" r="19.35" xlink:href="#radial-gradient-2"/><radialGradient id="radial-gradient-5" cx="2081.24" cy="618.78" r="19.83" xlink:href="#radial-gradient-2"/><radialGradient id="radial-gradient-6" cx="2081.24" cy="618.78" r="19.83" xlink:href="#radial-gradient-2"/><radialGradient id="radial-gradient-7" cx="2081.24" cy="618.78" r="19.83" xlink:href="#radial-gradient-2"/><radialGradient id="radial-gradient-8" cx="2081.24" cy="618.78" r="19.83" xlink:href="#radial-gradient-2"/><radialGradient id="radial-gradient-9" cx="2081.24" cy="618.78" r="19.83" xlink:href="#radial-gradient-2"/><radialGradient id="radial-gradient-10" cx="2081.24" cy="619.06" r="19.76" xlink:href="#radial-gradient-2"/><radialGradient id="radial-gradient-11" cx="2081.24" cy="618.78" r="19.83" xlink:href="#radial-gradient-2"/><clipPath id="clip-path-3"><path class="cls-1" d="M869,470.74c2.07-26.56,6.94-40.38,6.94-40.38l-62.6,6.7s7.69,12.47,15.32,38c8.68,29,12.52,53.58,13.26,60.49h0c0,.15.34,3.21.61,5.82a7,7,0,0,0,5.71,6.22,27.28,27.28,0,0,0,8.11,0,34.52,34.52,0,0,0,9.76-2.39,5.94,5.94,0,0,0,3.42-6.09c-.3-2.72-.68-6.28-.7-6.45h0C868.13,525.76,866.69,500.92,869,470.74Z"/></clipPath><clipPath id="clip-path-7"><path class="cls-2" d="M751.78,406.63a22.13,22.13,0,0,0-31.47-1.54c-8.91,8.35-9.27,22.58-.8,31.79A22.13,22.13,0,0,0,751,438.42C759.89,430.07,760.25,415.84,751.78,406.63Z"/></clipPath><radialGradient id="radial-gradient-12" cx="581.67" cy="-1173.58" r="22.49" gradientTransform="matrix(0.67, 0.73, 0.73, -0.68, 1195.6, -803)" xlink:href="#radial-gradient"/><radialGradient id="radial-gradient-13" cx="583.09" cy="-1173.11" r="20.69" gradientTransform="matrix(0.67, 0.73, 0.73, -0.68, 1195.6, -803)" xlink:href="#radial-gradient-2"/><radialGradient id="radial-gradient-14" cx="583.09" cy="-1173.13" r="20.79" gradientTransform="matrix(0.67, 0.73, 0.73, -0.68, 1195.6, -803)" xlink:href="#radial-gradient-2"/><radialGradient id="radial-gradient-15" cx="583.38" cy="-1172.84" r="20.29" gradientTransform="matrix(0.67, 0.73, 0.73, -0.68, 1195.6, -803)" xlink:href="#radial-gradient-2"/><radialGradient id="radial-gradient-16" cx="583.09" cy="-1173.13" r="20.78" gradientTransform="matrix(0.67, 0.73, 0.73, -0.68, 1195.6, -803)" xlink:href="#radial-gradient-2"/><radialGradient id="radial-gradient-17" cx="583.09" cy="-1173.13" r="20.79" gradientTransform="matrix(0.67, 0.73, 0.73, -0.68, 1195.6, -803)" xlink:href="#radial-gradient-2"/><radialGradient id="radial-gradient-18" cx="583.09" cy="-1173.13" r="20.78" gradientTransform="matrix(0.67, 0.73, 0.73, -0.68, 1195.6, -803)" xlink:href="#radial-gradient-2"/><radialGradient id="radial-gradient-19" cx="583.09" cy="-1173.13" r="20.78" gradientTransform="matrix(0.67, 0.73, 0.73, -0.68, 1195.6, -803)" xlink:href="#radial-gradient-2"/><radialGradient id="radial-gradient-20" cx="583.09" cy="-1173.13" r="20.79" gradientTransform="matrix(0.67, 0.73, 0.73, -0.68, 1195.6, -803)" xlink:href="#radial-gradient-2"/><radialGradient id="radial-gradient-21" cx="583.09" cy="-1172.83" r="20.71" gradientTransform="matrix(0.67, 0.73, 0.73, -0.68, 1195.6, -803)" xlink:href="#radial-gradient-2"/><radialGradient id="radial-gradient-22" cx="583.09" cy="-1173.13" r="20.78" gradientTransform="matrix(0.67, 0.73, 0.73, -0.68, 1195.6, -803)" xlink:href="#radial-gradient-2"/><clipPath id="clip-path-8"><path class="cls-1" d="M675.85,477.68c-5.06-27.45-11.63-41.31-11.63-41.31h65.4s-6.57,13.86-11.64,41.31c-5.75,31.19-7,57.24-7,64.51h0c0,.17,0,3.39,0,6.14a7.34,7.34,0,0,1-5.2,7.13,28.89,28.89,0,0,1-8.38.91A35.46,35.46,0,0,1,687.06,555a6.23,6.23,0,0,1-4.21-6c0-2.87,0-6.63,0-6.8h0C682.86,534.92,681.61,508.87,675.85,477.68Z"/></clipPath></defs><g id="j"><g class="cls-3"><g id="j-2" data-name="j"><path class="cls-4" d="M873.86,336.48c-.64,3-32.62,24.53-32.62,24.53l8,90.33-6.66-2.44-10.42-92.26,38.51-26.15Z"/><path class="cls-5" d="M1015.82,390.43a.37.37,0,0,1-.05.17,5.21,5.21,0,0,1-1.85,2,37.18,37.18,0,0,0-12.9,19.24,36.08,36.08,0,0,0-1.33,12.4,7.35,7.35,0,0,1-.38,4,6.3,6.3,0,0,1-2.87,2.39,44.2,44.2,0,0,1-28.85,4c-3.76-.75-8-2.65-8.64-6.43a9.47,9.47,0,0,1,.84-4.86c1.1-2.83,2.3-5.7,3.25-8.64a35.42,35.42,0,0,0,1.83-8.7c.26-4.44-4.31-8.4-.31-12.4,1.81-1.81,4.37-2.6,6.85-3.25a149.45,149.45,0,0,1,37-4.66h0c.24,0,.51,0,.75,0a9.7,9.7,0,0,1,4.79.8C1015.38,387.29,1016.37,389,1015.82,390.43Z"/><path class="cls-6" d="M1015.3,391.72a.53.53,0,0,1,0,.17c-.36.84-2.57,1.29-3.3,1.85-6.23,4.79-10,12.09-12.17,19.64a48,48,0,0,1-11.42,3.06c-6.36,1-16.58,2.38-24.66-.07a38.57,38.57,0,0,0,1.79-9.17c.26-4.44-5.46-8.26-1.46-12.26,1.82-1.81,4.38-2.6,6.85-3.24a149,149,0,0,1,37-4.67h0A56.12,56.12,0,0,1,1015.3,391.72Z"/><path class="cls-7" d="M930.75,429c-7.45,10.07-22.86,29.5-24.66,31.81a.34.34,0,0,0,.08.48l11.4,8.14L930.34,433C930.79,431.68,931.56,427.92,930.75,429Z"/><path class="cls-5" d="M874.9,472.07a51.89,51.89,0,0,1,5.81,17.19,5.05,5.05,0,0,0,.88,2.59,4.61,4.61,0,0,0,1.94,1.15,81.45,81.45,0,0,0,25.39,5.22q-4,12.15-9.22,23.89a5.91,5.91,0,0,1-1.33,2.12,5.53,5.53,0,0,1-2.81,1.08c-11.35,1.85-22.59-3.11-33-8a6,6,0,0,1-2.69-1.93,6.05,6.05,0,0,1-.7-2.62l-1.39-12.91c-.73-6.78-1.47-13.63-.65-20.4.57-4.73,2.16-12.8,6.19-16C867.68,460,873.13,468.83,874.9,472.07Z"/><path class="cls-8" d="M922.09,809.17c-1.3-3-3-8-7.15-9.53a4.84,4.84,0,0,0-3.25.43c-1.13.41-2.26.95-3.4,1.37-.53.2-7.21,1.45-7.2,1.53-.23-.76.06-1.57-.28-2.34a5.22,5.22,0,0,0-1.48-1.84,9.1,9.1,0,0,0-9.62-1.16c-4.37,1.61-6.55,5.32-9.44,8-3.18,3-7.55,4.85-12.1,6.45-8.66,3-17.38,6.07-26.54,8-5.38,1.05-8.93,3.84-9.88,8-.76,3.41-1,8.59,2.9,11a14.53,14.53,0,0,0,4.14,1.5,25.44,25.44,0,0,0,4.12.89c11.82,1.8,25,.3,36.55-1.5,2.19-.32,4.28-.7,6.39-1.08a161.68,161.68,0,0,0,16.2-4.74c4.61-1.61,9.07-3.39,13.48-5.22,3.41-1.4,7-3,9.09-5.6a32.35,32.35,0,0,0,.08-3.41A52.47,52.47,0,0,0,922.09,809.17Z"/><path class="cls-9" d="M923.78,819.09c-.8.61-28.17,13-42.57,15.68a139.77,139.77,0,0,1-23.3,2.43c-8.65.11-21.47-.21-25.19-7.05-.4-.78.36-2.62.64-3.38a8.9,8.9,0,0,1,2.11-2.95c3.59-3.31,9.24-3.66,14.29-4.83,5.63-1.25,11.17-3.5,16.54-5.36s11.58-3.87,15.22-7.65c1.94-2,3.37-4.19,5.49-6.14,4.4-4.05,12.9-1.35,12.92,3.87a.35.35,0,0,0,.45.3,45.49,45.49,0,0,0,12.91-3.17,3.52,3.52,0,0,1,1.68.38,3.39,3.39,0,0,1,.73.55c3.15,2,4.08,5,5,7.93C921.14,811,923.81,818.55,923.78,819.09Z"/><path class="cls-8" d="M887.44,812.71a18.5,18.5,0,0,0-4.67-3.58c-1.28-.72-4.1-2.09-5.83-1.44-5,1.86-10.47,3.3-15,5.84a18.34,18.34,0,0,1,9.44,2.86,16.23,16.23,0,0,1,4.29,3.77c.88,1.24,1.46,3.1,3.83,3.07a4.74,4.74,0,0,0,1.55-.74C886.8,818.28,891,816.6,887.44,812.71Z"/><path class="cls-8" d="M1008.91,836.57c-.67-2-1.42-3.92-2.1-5.85-1.43-4-3.22-8.32-6.34-11.54-2.73-2.87-9.55-2.21-7.43,2.12-.38.18-.74.45-1.11.6a13.92,13.92,0,0,1-3.56,1.18c-.09,0-.27,0-.46,0-2.91-2.72-7.42-3.65-11.85-3.3-2,.12-4.67,1.23-5.73,2.71a13.57,13.57,0,0,0-1.28,1.94c-2.93,4.32-4.4,9.23-8.76,12.84-5.37,4.41-11.3,7.82-17.41,11.22-5.21,2.91-9.21,5-10.49,10.7-.87,4,.28,7.26,5,8.14,13.27,2.48,28.17,2.39,41.17-1,6.29-1.61,12.15-7.19,16.82-11,1.28-1.06,2.51-2.13,3.79-3.24,1.83-1.81,3.69-3.6,5.53-5.4,2-2,4.4-4.24,4.4-7.11A22.3,22.3,0,0,0,1008.91,836.57Z"/><path class="cls-9" d="M941.51,849.79c4.55-2.62,9.14-5.06,13.62-7.84,3.32-2.1,6.64-4.32,9.09-7.26a20.17,20.17,0,0,0,2.87-4.71c.44-1.13.88-2.26,1.39-3.3a12.39,12.39,0,0,1,2.08-3,9.92,9.92,0,0,1,7.09-3.21c2.32-.17,17.83-1.92,19.29-1.61,1.16.22,5.33,1.82,5.33,1.82.43.72,2.25,4.14,2.67,4.86.08.13,2.13,3.64,2.67,4.85.92,1.92,0,4.86,0,4.86-3.16,3.73-8,7.24-11.78,10.37-5,4.11-9.89,8.33-15.37,11.91-7.19,4.68-15.67,5.29-24.22,5-2.55,0-21.34.27-22.7-3.6C934.13,854.89,937.48,852.11,941.51,849.79Z"/><path class="cls-8" d="M981.91,833.36a48.52,48.52,0,0,0-8.95-2.27c-1.38-.17-6.6-.67-8.84.79-4,2.56-8,6-10.07,10,2.8-1.08,10.93-.68,14,0a18.27,18.27,0,0,1,5.32,1.9c1.32.81,2.73,2.29,4.54,1.4a6.6,6.6,0,0,0,.81-1.25C982.21,838.24,986.69,835.63,981.91,833.36Z"/><path class="cls-5" d="M865.43,659.91c.1,2.49,1.11,6.86,2.67,13.2,1.8,7.27,4.33,17.09,7.08,29.6a697.89,697.89,0,0,1,14.21,98c3.34,2.31,2.49,4.8,10.76,4.33,5.68-.33,6.43-1.44,12-3.49.17,0,10-55.34,10.75-65.17a94.12,94.12,0,0,0-1.48-23.55c-.45-2.45-.92-4.55-1.32-6.21-.47-15.93,5.52-9.93,6.15-12.51.39-1.65,1.57-12.69,3-25.22,1.6-14,3.54-29.79,5-36.45.17-.72,2.48,12.24,2.86,14.78a17.29,17.29,0,0,1,.33,4.12c.31,1.47.62,3,.9,4.42.26,2.25.5,4.52.76,6.8.23,2.06.46,4.12.72,6.19a213,213,0,0,0,4.44,25.65c.07.43,2.9,7,6.85,17.57,7.59,20.38,19.59,71.43,23.42,106.06.5,5.08,5.33,7.1,14.82,7.34,8.32.21,11.77-3,8.54-26.18,0,0,1.88-58.91,2.27-69.45.3-8.49-4.22-25.4-5.63-29.74a5.63,5.63,0,0,0-.38-1c1.8-19.59,4.09-21.39,4.37-23.75.47-3.88,1.75-3.76,2.6-5.85a10.16,10.16,0,0,0,.59-2.53c.68-5.49,6.39-4.85,7.07-10.34.55-4.39-7.12-13.16-7.06-17.55.2-10.83-12.26-28-12.19-38.8,0-4.85-12.06-8.9-12.19-13.76-.07-2.39,2.48-5.58,0-6.26-32.66-8.89.15-.08,0-1.24.49-7.28-13.53-4.13-14.89-11.27,0,0-1.92-.76-4.31-1.66C943.57,567.09,864.86,645.69,865.43,659.91Z"/><path class="cls-6" d="M939.88,678.13a241.59,241.59,0,0,0,5,27.43c.06.46,8.3,10.94,12.26,22.39,18.19,1.83,30.54-3.41,40.81-8.31-.18-.61-.92-9.73-4.48-8.75,1.58-21.15,4.79-23.17,5.07-25.73.47-4.19,1.75-4.06,2.6-6.32C983.52,678.31,961.62,677.9,939.88,678.13Z"/><path class="cls-6" d="M868.1,682.82c1.8,7.87,8.6,20.18,11.35,33.72,16.39,6.65,27.07,8.26,41.37,9.3-.45-2.65,1.41-8.3,1-10.1-.91-18,3.78-7.37,4.41-10.16.39-1.78,1.57-13.73,3-27.29C906.07,678.76,883.86,680.06,868.1,682.82Z"/><path class="cls-7" d="M961,413.58c3.47-1.64-1.79,7.63.81,10.45s6.52,4,10.31,4.58a40.56,40.56,0,0,0,21.47-2.76,13,13,0,0,1,5-1.46,9.83,9.83,0,0,1,4.89,1.75,39.19,39.19,0,0,1,13.74,14.25c-10.31,2.25-21.11,4.74-29,11.73-6.07,5.36-10,13-16.68,17.57-7,4.71-15.82,5.37-24.21,5.2-6-.12-12.2-.64-17.48-3.48a16.53,16.53,0,0,1-8.79-14.5C921.05,454.76,914.94,435.36,961,413.58Z"/><path class="cls-10" d="M922.94,443.72s0,33.62,52.61,17.39l48,7.48s-17.79,126.93,4.25,206.25a21.25,21.25,0,0,1-7.06,22.33c-21.76,17.45-76,46.5-160-2.14A10.66,10.66,0,0,1,855.46,685c1.6-20.27,7.91-83.12,27.42-133.22C882.88,551.75,902.47,478.42,922.94,443.72Z"/><g class="cls-11"><path class="cls-12" d="M789.14,411.12a21.21,21.21,0,1,1,4,30.07A21.45,21.45,0,0,1,789.14,411.12Z"/></g><path class="cls-2" d="M789.14,411.12a21.21,21.21,0,1,1,4,30.07A21.45,21.45,0,0,1,789.14,411.12Z"/><path class="cls-13" d="M803.51,420.82c-1-1-5.91-7.6-7.36-9s-.13-2.5,1.15-3.44a10.91,10.91,0,0,1,5.36-2.2c2.65-.39,1.72,1.16,2.55,6.51a29.62,29.62,0,0,1,.18,9C805.18,422.69,804.53,421.83,803.51,420.82Z"/><path class="cls-14" d="M816.33,437c.72.54,2.1-.56,3.39-1.84s2.9-4.33,2.07-5.77-13.5-4.19-13.5-4.19C806.25,424.77,815.61,436.49,816.33,437Z"/><path class="cls-15" d="M799.38,425.42l-10,1.71c-1.41.24-1.55-.93-1.48-4.18s1-3.15,2.13-3.61,8.62,2,11.32,2.91a7.12,7.12,0,0,1,1.82.88.77.77,0,0,1-.12,1.32A15,15,0,0,1,799.38,425.42Z"/><path class="cls-16" d="M809.6,406.47c-1.56-.46-3.5-.13-3.82.46s.37,11.38.41,12.83.6,2.22,1.25,1.76,2.44-4.44,3.7-7.39,2.48-5.36,2.48-5.36C813.34,408.09,811.17,406.94,809.6,406.47Z"/><path class="cls-17" d="M808.71,423c-.93.19-1.42,1.6-.16,1.58s10.85,2.93,12.63,3.55,1.71-.49,2.33-3.11-1.16-6.06-1.16-6.06C821,418.55,809.64,422.81,808.71,423Z"/><path class="cls-18" d="M807.4,441.17c.6,1,3.48-.3,5.32-.81s2.86-2.48,2.38-3.19-6.32-10-7.42-11-1.25,0-1.25,0C806.59,427.5,806.79,440.17,807.4,441.17Z"/><path class="cls-19" d="M811.18,415c-1.2,2.36-3.57,7.79-2.22,7.15s7.23-2.28,10.48-3.16,3-.71,1.83-3.95-6.58-5.7-6.58-5.7C813.68,409.62,812.38,412.69,811.18,415Z"/><path class="cls-20" d="M800.82,430.4c-1.55,2-5,7.53-5.78,7.73s-3.39-3.12-4-4.31-1.37-.92-2-3.78,2.52-2.48,5.14-3.13,9.49-2,9.49-2C804.74,424.67,802.35,428.36,800.82,430.4Z"/><path class="cls-21" d="M801.79,422c-1.45-.67-9.4-2.23-10.9-3.12s-1.53-.91-.71-2.77a10.51,10.51,0,0,1,3.32-4.44c1.37-.93,2.85,1.6,3.94,2.95.91,1.11,5,5.59,6.41,7.08a.5.5,0,0,1-.41.83A5.72,5.72,0,0,1,801.79,422Z"/><path class="cls-22" d="M795.86,439c-.4,1.13,5.79,2.77,7.53,3.12a2.16,2.16,0,0,0,2.68-1.89,27.6,27.6,0,0,0-.29-5.77c-.29-1.28,0-4.58-.25-7.16s-.83-1.7-.83-1.7C804,427.06,796.26,437.86,795.86,439Z"/><path class="cls-23" d="M825.8,474.94a422.06,422.06,0,0,1,14.82,71.93h0c.47,5.22-.86,5.1-2.72,7.41s-.43,5.83-.43,5.83l15.4-1.64,10.18-1.09,15.41-1.65s.65-3.76-1.66-5.61-3.58-1.47-4.22-6.66h0a420.47,420.47,0,0,1-.73-73.44c2.46-31.54,11-48.25,11-48.25l-78.06,8.34S816.73,444.63,825.8,474.94Z"/><path class="cls-24" d="M825.8,474.94a422.06,422.06,0,0,1,14.82,71.93h0c.47,5.22-.86,5.1-2.72,7.41s-.43,5.83-.43,5.83l15.4-1.64,10.18-1.09,15.41-1.65s.65-3.76-1.66-5.61-3.58-1.47-4.22-6.66h0a420.47,420.47,0,0,1-.73-73.44c2.46-31.54,11-48.25,11-48.25l-78.06,8.34S816.73,444.63,825.8,474.94Z"/><path class="cls-25" d="M869,470.74c2.07-26.56,6.94-40.38,6.94-40.38l-62.6,6.7s7.69,12.47,15.32,38c8.68,29,12.52,53.58,13.26,60.49h0c0,.15.34,3.21.61,5.82a7,7,0,0,0,5.71,6.22,27.28,27.28,0,0,0,8.11,0,34.52,34.52,0,0,0,9.76-2.39,5.94,5.94,0,0,0,3.42-6.09c-.3-2.72-.68-6.28-.7-6.45h0C868.13,525.76,866.69,500.92,869,470.74Z"/><g class="cls-26"><path class="cls-27" d="M879.82,424.18c.18,0,.29-.32.07-.4-1.92-.65-3.78-.07-5.77.07-3.06.21-6.12.48-9.15.89-5.78.79-12.6,1.09-18,3.29a.39.39,0,0,0,.08.74c2.92.77,5.8-.42,8.74-.79,2.69-.33,5.34-.89,8-1.25,5.39-.75,10.74-1.3,16-2.55Z"/></g><g class="cls-26"><path class="cls-27" d="M836.41,429.55c.51-.12.23-.8-.2-.82a89,89,0,0,0-16,1.36c-2.36.36-4.79,1-7.17,1.11-1.46.1-2.18,0-3.35.79a.46.46,0,0,0,0,.72c3.15,2,8.79,0,12.22-.53,4.87-.71,9.69-1.45,14.47-2.63Z"/></g><g class="cls-26"><path class="cls-27" d="M848.24,554.79a.65.65,0,0,0,0,1.28c8.35,1.25,16.79,1.25,24.4-2.68,2.52-1.3.88-5.45-1.62-4.11-2,1.05-3.71,2.58-5.91,3.12a41.46,41.46,0,0,1-6,.85c-3.66.35-7.25.86-10.86,1.54Z"/></g><g class="cls-26"><path class="cls-27" d="M843.66,556.28A1.53,1.53,0,0,0,845,555a1.56,1.56,0,0,0-.88-1.64,4.16,4.16,0,0,0-1.22-.49,2.49,2.49,0,0,0-2,.49,1.92,1.92,0,0,0,.82,3.41,2.29,2.29,0,0,0,1.54-.22,2.45,2.45,0,0,0,.86-.64c-.21.18-.25.22-.09.11l-.8.31a2.44,2.44,0,0,1,.39-.06Z"/></g><g class="cls-28"><path class="cls-27" d="M851.72,552.86a.89.89,0,0,0-.27,1.69c5,2.27,13.65,1.63,18.06-1.71,3-2.26.27-7.74-3.28-5.94-2.45,1.24-4.56,2.79-7.19,3.68-2.39.82-4.77,2.15-7.32,2.28Z"/></g><g class="cls-28"><path class="cls-27" d="M839.66,429.54a.78.78,0,0,0-.16-1.48c-3.46-.28-7,.42-10.42.94-3,.45-6.12.66-8.81,2.06a.48.48,0,0,0,.09.92c6,1.56,13.54-.63,19.3-2.44Z"/></g><path class="cls-27" d="M829.84,430.77a.27.27,0,0,0-.06-.53c-3.15.09-6.22.39-9.35.72-2.65.28-5.4.2-8,.83-.37.09-.57.65-.13.83,5.47,2.14,12.11-.68,17.53-1.85Z"/><path class="cls-27" d="M862.53,553c-.57.16-.31,1,.24,1s1.43.2,2.17.13a8.3,8.3,0,0,0,2.76-.69c1.46-.69,3.51-2.21,2.27-4a1.45,1.45,0,0,0-2.27,0c-.38.39-.37.77-.79,1.08a11.35,11.35,0,0,1-1.53.93c-.57.29-1.12.6-1.69.9-.38.21-.74.64-1.16.75Z"/><g class="cls-29"><g class="cls-30"><path class="cls-4" d="M854.27,547.91a4.54,4.54,0,0,0,4.57,6.31c4.82-.4-3.18.28,1.31-.2a7.36,7.36,0,0,0,3.38-1.29c2.08-1.53,9.84-4.27,10.23-6.73.76-4.88-4.52-9.24-4.28-14.61.55-12.55,3.93-25.54,2.35-37.85-.78-6.09,5.56-13.91,4.45-20-1.18-6.43,1.34-38.2,1.57-40.71.28-3.07,4.11-5.58,3.93-8.67-.29-5.11-35.37-9.73-40.27-9.21-5.27.57-8.63,5.23-8.34,10.33.19,3.15-.48,6.29-.4,9.45a43.29,43.29,0,0,0,1.41,8.74c1.42,6.06,2.73,12.2,4.64,18.14,1.62,5,5.92,26.47,6.56,32.12,1.31,11.48,3.15,22.87,3.83,34.45.34,5.6.21,14.15,1.91,19.64,1.07,3.45,2.67,3.87,6,5.69l-3-5.53a.44.44,0,0,1,.08-.11Z"/></g></g><g class="cls-29"><g class="cls-30"><path class="cls-4" d="M857.58,544.38a4.53,4.53,0,0,0,3.47,7c4.82.41-3.18-.23,1.32,0a7.51,7.51,0,0,0,3.56-.72c2.3-1.17,10.4-2.59,11.19-5,1.56-4.69-2.93-9.86-1.82-15.12,2.61-12.28,8.09-24.54,8.55-36.94.23-6.13,7.77-12.81,7.67-18.95-.11-6.54,7.61-37.46,8.24-39.9.78-3,5-4.84,5.3-7.91.55-5.09-33.28-15.41-38.2-15.7-5.3-.32-9.38,3.73-9.92,8.82-.34,3.12-1.52,6.11-2,9.24a42.32,42.32,0,0,0-.05,8.86c.41,6.21-.47,13.52.45,19.68.77,5.2,1.1,90.29,4.13,92.65-.68-2-1.35-4-2-5.95l.1-.1Z"/></g></g><g class="cls-29"><g class="cls-31"><path class="cls-32" d="M799.68,421.68c-1.43,1.23-2.16,3.55-.78,5.17,1,1.18,2,1.42,2.32,2.36.57,1.64,1,3.32,1.64,4.94,1.32,3.62,2.22,7.36,3.17,11.08,1.08,4.25,2.9,8.16,4.26,12.32,2.09,6.32,3.44,12.78,5.12,19.21s2.52,13.22,3.71,19.91c1.24,7,3.69,13.48,5.64,20.28a149.2,149.2,0,0,1,3.89,18A61.25,61.25,0,0,0,831,545.31a28.42,28.42,0,0,1,1.28,3.66c.54,3-.69,2.12.75-.93l3-3.7c-.29.27,7-3.2.32-.58q-1.26.65-2.46,1.38c-2.59,1.56-3.36,4.6-3.43,7.37-.13,5.78,0,10.49,5.32,9.93,6.19-.66,12.09-5.16,12.13-10.91,0-3.9-1-21.43-1.84-25.58-.89-4.43-2.08-14.28-3.29-18.63-1.26-4.57-3.42-17-4.71-20.69-4-11.43-5.39-18.26-8.7-27.48a112.13,112.13,0,0,0-5.41-13c-.74-1.47-6.7-18.56-10.39-22.43-2.8-2.95-9.75-5.55-13.87-2Z"/></g></g><g class="cls-29"><g class="cls-31"><path class="cls-32" d="M797.21,421.94c-1.44,1.24-2.17,3.56-.78,5.17,1,1.18,2,1.42,2.31,2.36.58,1.64,1.06,3.32,1.65,4.95,1.31,3.61,2.22,7.36,3.17,11.08,1.08,4.24,2.89,8.16,4.26,12.31,2.08,6.33,3.44,12.78,5.12,19.21,1.72,6.59,2.52,13.22,3.7,19.91,1.25,7,3.7,13.49,5.65,20.28a149.58,149.58,0,0,1,3.88,18,61.06,61.06,0,0,0,2.35,10.35,31.26,31.26,0,0,1,1.28,3.66c.54,3-.69,2.12.75-.92l3-3.71c-.29.28,7-3.2.33-.58-.84.44-1.66.89-2.47,1.39C828.81,547,828,550,828,552.77c-.13,5.78,0,10.5,5.31,9.93,6.2-.66,12.1-5.15,12.13-10.9,0-3.9-1-21.44-1.83-25.58-.89-4.43-2.08-14.28-3.29-18.64-1.27-4.57-3.42-17-4.71-20.69-4-11.42-5.39-18.25-8.7-27.47a113.31,113.31,0,0,0-5.41-13c-.75-1.46-6.71-18.55-10.39-22.43-2.81-2.95-9.76-5.55-13.87-2Z"/></g></g><g class="cls-33"><path class="cls-27" d="M847.15,516.19a.74.74,0,0,0,1.41-.15c1.42-6.56.42-12.6-.4-19.19q-1.21-9.57-3-19.06c-2.34-12.33-4.45-24.8-10.68-35.85-4.59-8.12-17.36.74-11.91,8.79,6.49,9.6,8.37,21.93,11.81,32.83,1.76,5.61,3.11,11.39,5,16.93,1,2.78,2.1,5.44,3.31,8.12s3.08,5,4.42,7.58Z"/></g><path class="cls-27" d="M825.25,445.59a.16.16,0,0,0-.28.11c0,3,1.41,6.06,2.36,8.83,1.47,4.28,2.55,8.7,4,13a165.18,165.18,0,0,1,5.26,17.58c3.13,13.54,6.81,27.79,7.17,41.74.05,1.95,3,1.59,3-.32,0-6.29-1.31-12.67-2.43-18.83-1.43-8-3.08-15.87-5-23.73a153.79,153.79,0,0,0-5.48-17.43c-2.45-6.61-4.28-15.22-8.63-20.92Z"/><ellipse class="cls-34" cx="998.42" cy="479.89" rx="6.23" ry="6.07"/><ellipse class="cls-34" cx="973.51" cy="479.89" rx="6.23" ry="6.07"/><ellipse class="cls-34" cx="945.04" cy="479.89" rx="6.23" ry="6.07"/><ellipse class="cls-34" cx="919.94" cy="480.31" rx="6.23" ry="6.07"/><ellipse class="cls-34" cx="908.55" cy="502.14" rx="6.23" ry="6.07"/><ellipse class="cls-34" cx="934.36" cy="499.45" rx="6.23" ry="6.07"/><ellipse class="cls-34" cx="1011.77" cy="503.93" rx="6.23" ry="6.07"/><ellipse class="cls-34" cx="977.07" cy="512.26" rx="6.23" ry="6.07"/><ellipse class="cls-34" cx="948.59" cy="512.26" rx="6.23" ry="6.07"/><ellipse class="cls-34" cx="921.01" cy="517.35" rx="6.23" ry="6.07"/><ellipse class="cls-34" cx="877.41" cy="531.14" rx="6.23" ry="6.07"/><ellipse class="cls-34" cx="902.32" cy="531.14" rx="6.23" ry="6.07"/><ellipse class="cls-34" cx="934.36" cy="531.14" rx="6.23" ry="6.07"/><ellipse class="cls-34" cx="962.83" cy="531.14" rx="6.23" ry="6.07"/><ellipse class="cls-34" cx="991.3" cy="531.14" rx="6.23" ry="6.07"/><ellipse class="cls-34" cx="1006.43" cy="546.55" rx="6.23" ry="6.07"/><ellipse class="cls-34" cx="977.07" cy="547.33" rx="6.23" ry="6.07"/><ellipse class="cls-34" cx="948.59" cy="547.33" rx="6.23" ry="6.07"/><ellipse class="cls-34" cx="916.56" cy="547.33" rx="6.23" ry="6.07"/><ellipse class="cls-34" cx="894.85" cy="542.9" rx="6.23" ry="6.07"/><ellipse class="cls-34" cx="898.77" cy="563.52" rx="6.23" ry="6.07"/><ellipse class="cls-34" cx="930.8" cy="563.52" rx="6.23" ry="6.07"/><ellipse class="cls-34" cx="962.83" cy="563.52" rx="6.23" ry="6.07"/><ellipse class="cls-34" cx="994.86" cy="563.52" rx="6.23" ry="6.07"/><ellipse class="cls-34" cx="980.63" cy="579.7" rx="6.23" ry="6.07"/><ellipse class="cls-34" cx="945.04" cy="579.7" rx="6.23" ry="6.07"/><ellipse class="cls-34" cx="913" cy="579.7" rx="6.23" ry="6.07"/><ellipse class="cls-34" cx="882.26" cy="575.65" rx="6.23" ry="6.07"/><ellipse class="cls-34" cx="895.21" cy="595.89" rx="6.23" ry="6.07"/><ellipse class="cls-34" cx="876.93" cy="596.65" rx="6.23" ry="6.07"/><ellipse class="cls-34" cx="927.24" cy="595.89" rx="6.23" ry="6.07"/><ellipse class="cls-34" cx="962.83" cy="595.89" rx="6.23" ry="6.07"/><ellipse class="cls-34" cx="909.44" cy="614.77" rx="6.23" ry="6.07"/><ellipse class="cls-34" cx="877.41" cy="615.19" rx="6.23" ry="6.07"/><ellipse class="cls-34" cx="887.37" cy="633.66" rx="6.23" ry="6.07"/><ellipse class="cls-34" cx="927.24" cy="633.66" rx="6.23" ry="6.07"/><ellipse class="cls-34" cx="959.27" cy="633.66" rx="6.23" ry="6.07"/><ellipse class="cls-34" cx="998.42" cy="633.66" rx="6.23" ry="6.07"/><ellipse class="cls-34" cx="1012.47" cy="650.49" rx="6.23" ry="6.07"/><ellipse class="cls-34" cx="980.63" cy="649.84" rx="6.23" ry="6.07"/><ellipse class="cls-34" cx="941.48" cy="649.84" rx="6.23" ry="6.07"/><ellipse class="cls-34" cx="905.88" cy="649.84" rx="6.23" ry="6.07"/><ellipse class="cls-34" cx="870.35" cy="641.8" rx="6.23" ry="6.07"/><ellipse class="cls-34" cx="888.09" cy="666.03" rx="6.23" ry="6.07"/><ellipse class="cls-34" cx="912.11" cy="672.1" rx="6.23" ry="6.07"/><ellipse class="cls-34" cx="959.27" cy="666.03" rx="6.23" ry="6.07"/><ellipse class="cls-34" cx="1001.09" cy="666.03" rx="6.23" ry="6.07"/><ellipse class="cls-34" cx="1019.78" cy="682.21" rx="6.23" ry="6.07"/><ellipse class="cls-34" cx="982.89" cy="682.21" rx="6.23" ry="6.07"/><ellipse class="cls-34" cx="977.07" cy="707.6" rx="6.23" ry="6.07"/><ellipse class="cls-34" cx="938.81" cy="676.14" rx="6.23" ry="6.07"/><ellipse class="cls-34" cx="917.45" cy="696.38" rx="6.23" ry="6.07"/><ellipse class="cls-34" cx="867.39" cy="672.1" rx="6.23" ry="6.07"/><ellipse class="cls-34" cx="893.41" cy="688.28" rx="6.23" ry="6.07"/><ellipse class="cls-34" cx="959.27" cy="686.48" rx="6.23" ry="6.07"/><ellipse class="cls-34" cx="945.04" cy="704.47" rx="6.23" ry="6.07"/><ellipse class="cls-34" cx="1004.65" cy="698.4" rx="6.23" ry="6.07"/><ellipse class="cls-34" cx="998.42" cy="595.89" rx="6.23" ry="6.07"/><ellipse class="cls-34" cx="945.04" cy="614.77" rx="6.23" ry="6.07"/><ellipse class="cls-34" cx="980.63" cy="614.77" rx="6.23" ry="6.07"/><ellipse class="cls-34" cx="1008.02" cy="612.81" rx="6.23" ry="6.07"/><ellipse class="cls-34" cx="1007.86" cy="577.15" rx="6.23" ry="6.07"/><ellipse class="cls-34" cx="987.75" cy="496.07" rx="6.23" ry="6.07"/><ellipse class="cls-34" cx="1010.26" cy="525.71" rx="6.23" ry="6.07"/><path class="cls-5" d="M926.94,186.61c-2.18,1.07-4.65,1.06-6.53,2.61q-6.46,5.33-12.46,11.18a42,42,0,0,0-6.34,7.38,44,44,0,0,0-4.35,10.53q-5.06,16.44-8.55,33.29c-1.61,7.82-3,15.79-6.44,23s-9.31,13.68-17,15.79c-2.66.74-5.49.94-8,2.08s-4.72,3.66-4.32,6.39a9,9,0,0,0,2.47,4.3l8.23,9.6c2,2.36-.53,7.54-2.39,10s-4.86,4.57-4.64,7.63c.21,2.91,3.33,4.66,6.15,5.43s6,1.26,7.85,3.54l-4.94,5.36c-2.16,2.34-4.47,5.55-3.07,8.41,1,2.08,3.52,2.83,5.65,3.74s4.39,2.77,4,5c0,0-.23,13.86,11.58,27,17,18.92,64.45,29.57,113,12s77.09-106.06,43.3-172.61S946.35,177.05,926.94,186.61Z"/><path class="cls-35" d="M908.3,276s8.84,24.62,33.37,14.31a.57.57,0,0,1,.77.72c-1.29,3.13-6.82,10.21-19.34,4.21C906.55,287.27,908.3,276,908.3,276Z"/><path class="cls-35" d="M921.3,240.49c-3.72.17,16.17-21.09,32.36,15.54a.7.7,0,0,1-1.11.79C947.11,251.59,946.51,239.32,921.3,240.49Z"/><path class="cls-36" d="M961.81,456.17c-1.58,2.7-3.19,5.46-3.82,8.53a10.32,10.32,0,0,0,2.08,8.76l5.39-3.08a7.85,7.85,0,0,0,2-1.48,8.12,8.12,0,0,0,1.28-2.46c3.41-8.82,8.54-17.09,15.66-23.31s16.33-10.27,25.79-10.3c.58,0-4.2-7.16-6.41-7.67a17.75,17.75,0,0,0-10,.79C973.81,435.07,963.91,452.59,961.81,456.17Z"/><path class="cls-36" d="M920.3,445.69a21.11,21.11,0,0,0-2,9.12,10.31,10.31,0,0,0,3.8,8.16l4.66-4.1a7.61,7.61,0,0,0,1.68-1.86,7.89,7.89,0,0,0,.76-2.67c1.57-9.33,3.79-13.41,9.51-20.94s15.09-16,24.35-17.94c.57-.12,0-1.95-.79-2.08C959.34,412.9,936.64,411.43,920.3,445.69Z"/><path class="cls-5" d="M1007.86,503.09l-7.15,14.67-15.07,31a14,14,0,0,1-12.24,7.58c-16.33.2-42.6-5.08-87.19-17.15l-39.59-3.2A19.4,19.4,0,0,1,831,525.44a48,48,0,0,1-4.55-12.59s-16.64-10.63,5.72-12.26c1.57-.11,19.75,8.24,34.31.71,0,0-1.15-3.16,3.32-10.37,4.08-6.54,13.83,21.92,13.83,21.92s-.69,5.13,34.31,5.13c34.31,0,38-.82,38-.82l9.35-18.91,5.9-12Z"/><path class="cls-6" d="M1007.86,503.09l-8.5,14.26c-13-3.84-23-8.46-33.17-17.43l6.15-13.1Z"/><path class="cls-37" d="M954.88,517.52a26.74,26.74,0,0,1,16.31,14.07"/><path class="cls-7" d="M1013.21,432.5S988.72,421.85,969,471.36L963,485.87s29.75,30.49,48.46,23.48C1011.5,509.35,1040.1,442.18,1013.21,432.5Z"/><path class="cls-5" d="M825,494.87c2.08,3,7.18,5.75,10.79,6.21,4.42,1,7.41-5.28-2.86-11.7-2-1.25-2.27-3.64-4.1-5.14C821.41,478.15,822.48,491.26,825,494.87Z"/><path class="cls-5" d="M822.79,486.28c2.09,3,7.19,5.76,10.79,6.22,4.42,1,7.42-5.29-2.86-11.7-2-1.25-2.27-3.64-4.1-5.14C819.19,469.56,820.27,482.68,822.79,486.28Z"/><path class="cls-5" d="M821.18,480.33A13,13,0,0,0,825,481l5.87.45c1.85.14,4.07.13,5.14-1.39a3.52,3.52,0,0,0,.13-3.5,7.49,7.49,0,0,0-2.46-2.67c-2.62-1.9-7.49-2.84-10.56-3.53C822.38,458.07,809,475.63,821.18,480.33Z"/><path class="cls-37" d="M825.4,511.93l10.13,2.88"/><path class="cls-37" d="M828.6,520.66a17.65,17.65,0,0,0,7.19,3"/><path class="cls-37" d="M834.5,530.05l6.74.92"/><path class="cls-6" d="M954.29,230.61c1.33-11.58,12.26-31.72,22.78-36.75-6.14,11-2.82,34.18,3.56,45,9,15.35,22.06,23.39,29.31,39.66,7.76,17.4-.51,40.66,12.16,54.9a7.08,7.08,0,0,0,3,2.24,6.88,6.88,0,0,0,3.63-.05c9-2.08,15.26-10.55,18.2-19.31s3.38-18.17,5.44-27.18c3.94-17.18,13.65-32.45,19.47-49.09s7-36.9-4.49-50.25c-4.06-4.72-9.39-8.16-14.78-11.28A200.7,200.7,0,0,0,976.29,153c-24.88-3-49.56-2.08-57.06,26.94C910.33,214.38,937.15,240.08,954.29,230.61Z"/><path class="cls-38" d="M987.2,182.13S945.08,196.81,953.72,230c0,0-33.8,2.59-26.78-43.41,0,0-25.82,18.22-29.68,31.7,0,0-25.35-35.39,29.24-68.93,0,0,34.26-21.54,66.28,0,0,0,84.22-23.36,148.94,26.92s-12.48,139.46-10.92,180.26,1.56,68.75-33.53,78.17l3.12-15.24s-19.84,23.37-50.68,19c-39.49-5.63-48.82-29.94-32.53-54.81s2.79-64.52,2.79-64.52,4.14-27.37-5.67-49.82S968.36,232.81,987.2,182.13Z"/><path class="cls-39" d="M991.8,144.61c0-1.46,60,51.16,41.92,183.67l7.83-6.46s20-110.27-39.6-175.93Z"/><path class="cls-40" d="M1036.79,209.43s48.8,24.28,21.88,32-39,3.71-35.11-28.42c.43-3.59-3.32-4.5-3.62-6.82a22.73,22.73,0,0,1,.82-9.82s-54.18-48,13.7-41.83c45.15,4.07-5.27,39.66-5.27,39.66S1048.16,195.19,1036.79,209.43Z"/><ellipse class="cls-41" cx="1041.55" cy="164.6" rx="3.53" ry="4.22" transform="translate(519.29 1080.66) rotate(-69.29)"/><ellipse class="cls-41" cx="1045.83" cy="230.01" rx="3.53" ry="4.22" transform="translate(460.88 1126.94) rotate(-69.29)"/><ellipse class="cls-41" cx="1054.03" cy="238.88" rx="3.53" ry="4.22" transform="translate(457.88 1140.34) rotate(-69.29)"/><ellipse class="cls-41" cx="1059.58" cy="230.02" rx="3.53" ry="4.22" transform="matrix(0.35, -0.94, 0.94, 0.35, 469.75, 1139.81)"/><ellipse class="cls-41" cx="1045.84" cy="219.68" rx="3.53" ry="4.22" transform="translate(470.54 1120.28) rotate(-69.29)"/><ellipse class="cls-41" cx="1040.13" cy="179.92" rx="3.53" ry="4.22" transform="translate(504.04 1089.24) rotate(-69.29)"/><ellipse class="cls-41" cx="1014.3" cy="166.18" rx="3.53" ry="4.22" transform="translate(500.2 1056.19) rotate(-69.29)"/><ellipse class="cls-41" cx="1026.4" cy="159.26" rx="3.53" ry="4.22" transform="translate(514.5 1063.04) rotate(-69.29)"/><ellipse class="cls-41" cx="1028.65" cy="172.67" rx="3.53" ry="4.22" transform="translate(503.41 1073.81) rotate(-69.29)"/><ellipse class="cls-41" cx="1029.3" cy="185.2" rx="3.53" ry="4.22" transform="translate(492.1 1082.51) rotate(-69.29)"/><ellipse class="cls-41" cx="1034.24" cy="238.74" rx="3.53" ry="4.22" transform="translate(445.22 1121.75) rotate(-69.29)"/><ellipse class="cls-41" cx="1033.49" cy="225.44" rx="3.53" ry="4.22" transform="translate(457.17 1112.44) rotate(-69.29)"/><ellipse class="cls-41" cx="1033.52" cy="213.88" rx="3.53" ry="4.22" transform="translate(468 1105) rotate(-69.29)"/><ellipse class="cls-41" cx="1019.97" cy="188.51" rx="3.53" ry="4.22" transform="translate(482.97 1075.93) rotate(-69.29)"/><ellipse class="cls-41" cx="1014.46" cy="176.3" rx="3.53" ry="4.22" transform="translate(490.83 1062.88) rotate(-69.29)"/><path class="cls-42" d="M1030.83,330.92c-.17-.42-.82.39-.3.51s1-.33,1.23-.71a33.52,33.52,0,0,1,13.35-10.79c3.88-1.8,8.63-3,12.85-1.79,6,1.75,8.31,7.56,8.56,12.64.41,8.17-2.41,16.38-7.65,23.41-9.19,12.31-27.51,21-45.17,18.24"/><path class="cls-43" d="M1030.83,330.92c-.07-.2-.31-.1-.38,0s-.16.32,0,.41a.84.84,0,0,0,.88-.2,14.35,14.35,0,0,0,1.18-1.55,29.15,29.15,0,0,1,2.58-3,34,34,0,0,1,6.16-4.91,33.38,33.38,0,0,1,7.13-3.41,18.32,18.32,0,0,1,7.89-.93,11.94,11.94,0,0,1,3.87,1.16,11.15,11.15,0,0,1,3.22,2.48,14.83,14.83,0,0,1,3.35,7.26,28,28,0,0,1,.11,8A34.89,34.89,0,0,1,1065,344a38.6,38.6,0,0,1-3.47,7.14c-.68,1.14-1.44,2.22-2.22,3.29L1058,356l-.63.78-.67.72a46.42,46.42,0,0,1-12.51,9.61,50.75,50.75,0,0,1-14.85,5.23,45.57,45.57,0,0,1-15.67.13,47.11,47.11,0,0,0,15.58-.61,50.21,50.21,0,0,0,14.57-5.42,52.82,52.82,0,0,0,6.5-4.28c1-.84,2.05-1.6,3-2.52l1.42-1.33,1.32-1.42.66-.71.61-.76,1.21-1.52c.76-1.05,1.5-2.11,2.16-3.23a37.9,37.9,0,0,0,3.34-7,34.16,34.16,0,0,0,1.82-7.51,27.13,27.13,0,0,0,0-7.69,14,14,0,0,0-3.11-6.84,10.65,10.65,0,0,0-6.54-3.46,17.57,17.57,0,0,0-7.6.77,33.37,33.37,0,0,0-7.07,3.22,34.7,34.7,0,0,0-6.23,4.69,30,30,0,0,0-2.64,2.88,15.16,15.16,0,0,1-1.26,1.52.86.86,0,0,1-.94.17c-.16-.12-.08-.34,0-.46S1030.77,330.72,1030.83,330.92Z"/><path class="cls-44" d="M1046.64,335.94a49.75,49.75,0,0,0-5.68,4.45c-1.39,1.26-2.77,3.17-1.67,4.64.92,1.25,3.16,1.38,3.91,2.71s-.64,3-2.25,3.52-3.4.46-5,.93a6.43,6.43,0,0,0-4.53,4.53,3.64,3.64,0,0,0,.12,2.19c.75,1.76,3.26,2.52,5.35,2.13a13.27,13.27,0,0,0,5.43-2.85c3.62-2.74,7.13-5.67,9.65-9.24C1055.8,343.49,1059.87,327,1046.64,335.94Z"/><path class="cls-45" d="M1023.73,364.86s-14.45,16.88-2.69,22.32S1033.72,371,1033.72,371s-7.3,17.05-8.64,5.45Z"/><path class="cls-46" d="M878.29,330.24a15.48,15.48,0,0,0,11.71,4,4.52,4.52,0,0,0,3.46-1.58c1-1.48.16-3.62-1.29-4.65a10.49,10.49,0,0,0-5.09-1.42l-7.92-.8a4.06,4.06,0,0,0-2.08.16,2.6,2.6,0,0,0-1.28,2.79,5.67,5.67,0,0,0,1.58,2.84"/><path class="cls-37" d="M867.78,337.17a17.09,17.09,0,0,0,17.89-8.49"/><path class="cls-47" d="M574.49,659.92l-2,17.3-2.77,24.25-2,17.07-8.51,67.13-10.84,22.77c-8.49-7.24-23.36-16.64-22.9-28.35a15.61,15.61,0,0,1,2.5-7.66l-1.63-38c-1.23-9.34-2.93-19.63-4-29.74a141.83,141.83,0,0,1-.87-19.31l.41-8.45,1-20.37Z"/><path class="cls-6" d="M573.29,677.25l-5.36,24.18c-8.45,4.18-12.41,7.86-21.8,8-6.85.14-14.7,3.07-21.09.39-.69-6.61-2.93-18.3-2.72-24.46l.41-8.45c8.68-1.24,17.54-1.38,26.34-1.52C557.14,675.29,565.56,675.26,573.29,677.25Z"/><path class="cls-48" d="M525,720.18l2,13.74,1.71,38.3s-3.25,10.95,3.6,12.3,27.43-.25,27.43-.25l2-23.11,5.46-42S549.57,730.56,525,720.18Z"/><path class="cls-49" d="M554.06,827.27a63.78,63.78,0,0,1-9.34-8.07s-5.46.25-16.2-8.69-5-27.52-5-27.52l2.91-5-2.85,7.58,2.11-5.09s-.23,15,18.45,13.43,22-4.25,22-4.25l13.24,11.74.14.12s24.66.64,29.12,12.71C615.58,833.23,582.78,847.69,554.06,827.27Z"/><path class="cls-50" d="M553.56,821.53a36.11,36.11,0,0,1-7.4-6.11s-8.83-2.69-19.57-11.64.57-31.14.57-31.14l.88-.21-.75,5.34h0s-2.14,8.8,16.54,7.21,18.2-.2,18.2-.2l16.78,10.87.13.12s27,5.86,29.63,18.45C610.93,825.48,580.61,840.3,553.56,821.53Z"/><path class="cls-51" d="M546.69,816c7.65-16.82,26.42-23.43,30.81-21l1.44.82s26,3.54,30.75,18.45C613.16,825.19,579.47,845.77,546.69,816Z"/><path class="cls-50" d="M532.14,787s-4.38-22.15,13.79-24.64c8.44-1.16,12.51-1.92,14.46-2.41a5.34,5.34,0,0,1,6.29,3.19c1.32,3.47,1.22,10-4,22.32"/><path class="cls-52" d="M571.72,793.56a12.94,12.94,0,0,0-5.64-.57,14,14,0,0,0-5.28,1.76l-1.2.72-1.12.86-.57.43-.51.49-1,1-1.93,2.12c-.6.76-1.17,1.53-1.8,2.28.44-.87.93-1.71,1.41-2.57s1.13-1.6,1.75-2.36a17.53,17.53,0,0,1,4.53-3.82,12.93,12.93,0,0,1,5.72-1.66A10.45,10.45,0,0,1,571.72,793.56Z"/><path class="cls-52" d="M568.87,791.09a13.09,13.09,0,0,0-5.64-.57,14.15,14.15,0,0,0-5.28,1.76l-1.21.72-1.12.86-.56.43-.52.49-1,1-1.93,2.13c-.6.75-1.17,1.52-1.81,2.27.44-.86.94-1.7,1.41-2.56s1.14-1.6,1.75-2.37a17.54,17.54,0,0,1,4.54-3.81,12.67,12.67,0,0,1,5.71-1.66A10.39,10.39,0,0,1,568.87,791.09Z"/><path class="cls-52" d="M566.54,788a13.09,13.09,0,0,0-5.64-.57,14.15,14.15,0,0,0-5.28,1.76l-1.2.72-1.12.86-.57.43-.51.49-1.05,1-1.93,2.13c-.6.75-1.17,1.52-1.8,2.27.44-.87.94-1.7,1.41-2.56s1.13-1.6,1.75-2.37a17.5,17.5,0,0,1,4.53-3.81,12.67,12.67,0,0,1,5.72-1.66A10.36,10.36,0,0,1,566.54,788Z"/><ellipse class="cls-53" cx="578.53" cy="803.93" rx="6.3" ry="15.95" transform="translate(-247.52 1350.41) rotate(-87.75)"/><path class="cls-54" d="M522.88,720.13a.68.68,0,0,0,.19.4c1.18,1.23,9.2,8.75,26.1,6.78s20.73-8.23,21.26-9.27a.74.74,0,0,0,.08-.29l.35-8.87a.7.7,0,0,0-1-.65c-5.25,2.77-29,14-46.88,3.07a.7.7,0,0,0-1.07.67Z"/><path class="cls-5" d="M502,674c-.55,4.36-1.32,9.09-2.28,14.09-1.21,6.35-2.72,13.14-4.43,20.14-11.61,47.59-32.45,105.25-32.45,105.25l-28.57-10L441,707.07l1.44-20.54.71-10.29,37.32.08Z"/><path class="cls-6" d="M500.16,688.05c-1.21,6.35-6,18.34-7.73,25.34-11.53,2.38-19.73.83-32.67-.84-3.49-.46-9.68-.81-16.17-4l-.7-22C460.25,684,486.28,686,500.16,688.05Z"/><path class="cls-48" d="M440.13,727.44S457,742,488.69,729.23c0,0-15.94,62.06-29.47,86.33l-22.33-33.17Z"/><path class="cls-49" d="M459.43,836.16c1.22,10.16-3.59,24.21-36.4,28.11-14.16,1.68-25.09-5.33-26.32-15.5s18.71-25.66,32.86-27.36S458.2,826,459.43,836.16Z"/><path class="cls-49" d="M463.41,811c6.38,11.52,11.94,33.58-18.44,31.68-14.22-.89-26.72-1.7-27.94-11.86s13.05-19.18,27.2-20.89S459.58,804.09,463.41,811Z"/><path class="cls-50" d="M454.54,813.17h.24A13.25,13.25,0,0,0,466,805.91h0s7.52,21.5-6.59,30.25c-13.93,8.64-43-1.81-43-1.81L408.49,831c11.35-9.1,14.87-16.3,20.9-20.77h0L449,803.18"/><path class="cls-51" d="M461.58,835.51c.27,11.08-22.94,27.21-49.48,23.44-14.75-2.1-17.6-8.2-14.21-18.8,4.44-13.86,16.92-19.19,28.82-18.52C441.6,822.45,461.31,824.43,461.58,835.51Z"/><path class="cls-50" d="M426.89,812.51S411,778.4,440.61,779.9c39.86,2,17.93,34.74,17.93,34.74"/><ellipse class="cls-53" cx="425.72" cy="830.59" rx="15.62" ry="7.17" transform="translate(-96.3 56.89) rotate(-6.87)"/><path class="cls-55" d="M425.35,817.52c1.86-.29,12.39-10.26,27.67,3.4"/><path class="cls-52" d="M425.35,817.52c1.13-.54,2.14-1.33,3.27-1.93a21.27,21.27,0,0,1,3.53-1.53,16.46,16.46,0,0,1,7.7-.59,20.48,20.48,0,0,1,7.21,2.69,13.15,13.15,0,0,1,1.61,1.06l1.55,1.11c1,.85,1.9,1.71,2.8,2.59-1-.71-2-1.49-3.09-2.19l-1.61-1a11.3,11.3,0,0,0-1.63-.91c-.57-.27-1.13-.53-1.68-.81s-1.16-.43-1.74-.65l-.87-.33-.9-.21a13.85,13.85,0,0,0-1.81-.38,17.62,17.62,0,0,0-7.33.34,21.3,21.3,0,0,0-3.52,1.23c-.59.23-1.15.51-1.73.77A7.94,7.94,0,0,1,425.35,817.52Z"/><path class="cls-55" d="M422.35,820.16c1.86-.29,12.4-10.27,27.68,3.39"/><path class="cls-52" d="M422.35,820.16c1.14-.55,2.15-1.33,3.28-1.93a20.91,20.91,0,0,1,3.53-1.53,16.16,16.16,0,0,1,7.69-.59,20.6,20.6,0,0,1,7.22,2.69,13,13,0,0,1,1.6,1.05l1.55,1.12c1,.85,1.9,1.71,2.81,2.58-1.06-.7-2-1.48-3.09-2.18l-1.61-1a12.53,12.53,0,0,0-1.64-.92q-.84-.39-1.68-.81c-.56-.26-1.16-.43-1.74-.65l-.87-.32-.9-.22a16,16,0,0,0-1.8-.37,17.61,17.61,0,0,0-7.33.34,21.36,21.36,0,0,0-3.53,1.22c-.59.23-1.15.52-1.72.78A8,8,0,0,1,422.35,820.16Z"/><path class="cls-52" d="M427.18,815c1.14-.54,2.15-1.33,3.28-1.93A22.67,22.67,0,0,1,434,811.5a16.29,16.29,0,0,1,7.69-.58,20.1,20.1,0,0,1,7.21,2.69,11.41,11.41,0,0,1,1.61,1l1.55,1.12c1,.84,1.9,1.7,2.81,2.58-1.06-.71-2.05-1.49-3.1-2.19l-1.6-1a11.41,11.41,0,0,0-1.64-.91l-1.68-.81c-.56-.27-1.16-.43-1.74-.65l-.87-.32-.9-.22a14.06,14.06,0,0,0-1.8-.38,17.78,17.78,0,0,0-7.33.34,21.4,21.4,0,0,0-3.53,1.23c-.59.23-1.15.51-1.72.78A8.51,8.51,0,0,1,427.18,815Z"/><path class="cls-54" d="M438,725.19a.67.67,0,0,0,.17.5c1.33,1.48,11.41,9.82,29,8.71S490,728.81,491.23,728a.66.66,0,0,0,.25-.34l2.85-9.11a.68.68,0,0,0-1-.8c-3.07,1.82-10.19,5.35-25.81,5.87-16.6.56-25.13-5-27.7-7.36a.68.68,0,0,0-1.15.44Z"/><path class="cls-56" d="M522,658.88c1.22,4.56,0,33.26,0,33.26h50.42l13.42-15.53s8-70.93-2.5-90.82S512.55,623.42,522,658.88Z"/><path class="cls-57" d="M521,684.18c-1.38-.13-5.5,5.45-1.94,19.52,0,0,70.38,4.59,67.4-20.3v-9.76a1,1,0,0,0-1.83-.67C579.72,678.85,563.52,688,521,684.18Z"/><path class="cls-56" d="M542.11,645.13l-24.44,16.74-10.81,40.74s-62.29,8.19-68.53-7.83c-2.27-5.83,14-80.82,14-80.82l75.25,11.67"/><path class="cls-57" d="M434.39,692.8s25.77,27.64,72.47,9.81c0,0,4.78-3.09,3.41-15.44,0,0-44.87,12.47-72-9C438.22,678.2,434,682.85,434.39,692.8Z"/><path class="cls-5" d="M610.4,550s-13.79,13-30.93-15.11c-3.6-5.9-4.66-11.49-4.11-16.61,2-19.45,27.11-32.59,27.11-32.59l-3.1,3.53,4.62,11,3.93,9.36Z"/><path class="cls-6" d="M603,501.34a44.69,44.69,0,0,1-10.89,9.14,72.79,72.79,0,0,1-16.77,7.82c2-19.45,27.11-32.59,27.11-32.59l-3.31,5.53Z"/><path class="cls-5" d="M465.62,478.48c-2,2.43-6.74,17.66-12.31,37.36-9.06,32-20.26,75.85-25.06,95.63-6.42,26.53-24.87,11.6-24.87,11.6s-3.36-79.34,16.24-132a118.9,118.9,0,0,1,8.48-18.29C450,435,465.62,478.48,465.62,478.48Z"/><path class="cls-6" d="M465.62,478.48c-2,2.43-7.6,17.32-13.16,37C440,510.69,427.92,504.22,419.62,493c2.45-6.59,5.25-14.69,8.48-20.24C450,435,465.62,478.48,465.62,478.48Z"/><path class="cls-58" d="M572.83,437c4.69,3.35,29.65,50.92,29.65,50.92s-1.17,15.32-21.45,20.33S572.83,437,572.83,437Z"/><path class="cls-58" d="M584.14,454.37s-3.84-6.48-6.89-11.5c-4.29-7.07-12.9-20.74-32.51-34.87-31-22.36-83,2.08-89.26,23.91s2.08,58.75,2.08,58.75L448.7,617.38s96,51.85,140.77-15c0,0-8.44-94.17-19.75-136.5"/><path class="cls-58" d="M466.3,417c-3.12,2.6-33.1,23-48.17,55.77,0,0,4.56,26.05,40.43,33.33L479.27,466"/><path class="cls-59" d="M540.89,411.32c0,.09,0,2.25,0,2.32,0,.33,0,.64,0,.95.14,8.13-5.14,11.88-15.6,11.71-20.7-.33-27-6.3-28.52-14.14a35.1,35.1,0,0,1-.18-12.18c.25-2,.6-4,.84-6,1.17-9.76-3-18.91-3-18.91s72.36-9.92,60,11.89C549.93,394.86,540.63,406.74,540.89,411.32Z"/><path class="cls-6" d="M540.1,409.32c0,.09-.2,5.48-.2,5.55,0,.33,1-.59,1-.28-6.85-.09-15.31,1.08-21.82-.8-6.7-1.92-16.1-1.74-21.76-11.51.25-2-.12-6.25.12-8.31,1.17-9.76-3-18.91-3-18.91s72.36-9.92,60,11.89C549.93,394.86,539.83,404.75,540.1,409.32Z"/><path class="cls-60" d="M553.31,386.94c-5.52,7.61-6.44,14.05-6.19,18.64-17.76-1.18-31.67-1.86-47.23-9.5,1.48-9.84-6.54-21-6.54-21S568,366.62,553.31,386.94Z"/><path class="cls-61" d="M677,314.75c-8.31,20.64-24,22-35.6,19.16s-13.29-9.38-7.27-29.4,20.29-34,31.85-31.12C681.74,277.32,684.78,295.35,677,314.75Z"/><path class="cls-6" d="M667,312.81c-5,10.31-14.06,15.78-20.18,12.22s-7-14.81-2-25.13,14.07-15.79,20.18-12.23S672,302.49,667,312.81Z"/><path class="cls-5" d="M655.3,167.93c2.83,3.29,23.16,49.07,4.24,106.12-1.61,4.86,0,10.28.16,15.48,2.51,82.43-36,118.71-105.89,121.74-27.57,1.2-119.54-12.13-118.89-115.95.3-47.79-19.49-112.79-11.31-129.1,27.64-55.07,57.53-46.37,132-39.19C625.26,133.75,620.24,127.07,655.3,167.93Z"/><path class="cls-35" d="M623,220.93h0c2.34-3.7,13.83-1.7,17.76.41,6,3.21,12.57,7.58,15.25,22.49.23,1.29.21,2.31-.59,1.24-4.78-6.37-15.71-16.58-27.91-18.28C624.56,226.38,622.31,223.41,623,220.93Z"/><path class="cls-6" d="M627.6,165.89s-8.53,47.87-102.55,16.41c0,0,114.34-1.56,10.17-15.87,0,0-8.77-3-23.39-1.67-43.4,4.05-73.59,45.28-64.18,87.84.1.45.21.91.32,1.37,1.66,7.06-8.8,11.65-11.11,18.66l-5.42,16.44s-6.63-25.79-27.19-52.75c0,0-1.7-19,25-56.4,0,0-46.62-58.59,16.67-66.38,0,0,19.92-52.58,57.52-48,0,0,57.35-37.22,95.21,11.68,0,0,43.86-11.37,67.53,40.57,0,0,27.15,20,14.54,53.7,0,0,28.87,20.64-2.27,45.48,0,0,29.64,12.33-2.62,31.62l-5.73,26.81,5.29-78.05S667.64,193.52,627.6,165.89Z"/><path class="cls-62" d="M620,156.91s3.92,61.16-87.29,30c0,0,30.45-36.35-27.46-22.09a72.64,72.64,0,0,0-47.57,37.6c-7.45,14.77-10.86,34-.25,56.38,5,10.52-12.65,16-7.7,37.47.44,1.9-15,1.74-14.84-1,1.39-32-34-25.29-28.77-56.08,0,0-28.51-34.2,7.46-73.06,0,0-14.3-68.75,47.2-76.76,0,0,13.76-32.41,50.26-27.94,0,0,55.84-37.4,92.45,11.34,0,0,42.64-11.52,65.44,40.31,0,0,35.94,23,23.57,56.71,0,0,28.88,20.33-1.45,45.27,0,0,22.08,23.23-9.32,42.62l-20.07,18.74,6-74.38S664.67,177.26,620,156.91Z"/><ellipse class="cls-46" cx="505.12" cy="318.17" rx="7.69" ry="12.42" transform="translate(-56.32 521.07) rotate(-52.08)"/><ellipse class="cls-46" cx="601.5" cy="340.64" rx="12.91" ry="8.3" transform="translate(-89.02 308.67) rotate(-26.87)"/><path class="cls-35" d="M534.53,218.08h0c-1.42-4.37-13.63-5.33-18.18-4.21-6.89,1.71-14.76,4.43-21.37,18.9-.57,1.24-.82,2.29.28,1.41,6.51-5.23,20.3-12.76,33.14-11.31C531.56,223.22,534.62,220.79,534.53,218.08Z"/><path class="cls-63" d="M529.11,341.52s24.78,18.46,37.7,16.86C566.81,358.38,554.21,365.21,529.11,341.52Z"/><path class="cls-63" d="M563.39,312.68a10.06,10.06,0,0,0,1.71,3.6,11.94,11.94,0,0,0,2.78,2.76,18.17,18.17,0,0,0,7.2,2.95,28.56,28.56,0,0,0,7.81.52,13.82,13.82,0,0,0,7.07-2.43,6.84,6.84,0,0,0,2.35-2.61,5.72,5.72,0,0,0,.46-3.39,6,6,0,0,0-1.54-3.13,30.13,30.13,0,0,1-2.54-3.3,22.76,22.76,0,0,1-3.35-7.59,15.42,15.42,0,0,1,.33-8.15,17,17,0,0,0,.61,7.9,24.27,24.27,0,0,0,3.69,6.94,38.6,38.6,0,0,0,2.55,3,7.91,7.91,0,0,1,2.12,4,7.64,7.64,0,0,1-.55,4.54,7.41,7.41,0,0,1-1.29,1.93,10.41,10.41,0,0,1-1.67,1.47,15.37,15.37,0,0,1-8.1,2.7,27.17,27.17,0,0,1-8.3-.89,18.07,18.07,0,0,1-7.46-3.7A11,11,0,0,1,563.39,312.68Z"/><path class="cls-64" d="M648.39,295.12c5.47-6.43,7-15.88,4.94-23.33-3.62-12.92-11.82-18.7-26.16-14.36-7,2.11-16.72,5.66-22.9,18.8,3-13.77,12.12-20.62,22.08-24.94s28,.56,29.29,16C656.58,278.75,655.07,290.1,648.39,295.12Z"/><path class="cls-65" d="M654.38,271.49c.1,14.05-4.49,28.58-18.18,29.87-14.77,1.38-32.76-1.38-33.18-15.42-.5-16.75,19-31,31.81-31.47C647.43,254,654.32,263.54,654.38,271.49Z"/><path class="cls-66" d="M652.74,286.58c3.39-9,1.46-19.83-4.32-24.17s-13.19-.54-16.58,8.47-1.46,19.83,4.31,24.17S649.35,295.59,652.74,286.58Z"/><path class="cls-27" d="M635.45,268.31c-.36,2.68,1.16,5.4,3.42,6.07s4.38-1,4.75-3.64-1.16-5.4-3.41-6.07S635.82,265.63,635.45,268.31Z"/><path class="cls-64" d="M538.35,285.94c5.48-6.43,7-15.88,4.95-23.33-3.62-12.92-11.83-18.7-26.17-14.36-7,2.11-16.72,5.66-22.9,18.79,3-13.76,12.12-20.61,22.09-24.94s28,.57,29.28,16C546.54,269.57,545,280.92,538.35,285.94Z"/><path class="cls-65" d="M544.34,262.3c.1,14.05-4.49,28.59-18.17,29.87-14.78,1.39-31.68-5.66-31.68-19.71,0-21.22,17.51-26.66,30.3-27.17C537.39,244.78,544.28,254.36,544.34,262.3Z"/><path class="cls-66" d="M542.62,277.39c3.64-9,1.34-19.85-5.13-24.28s-14.66-.73-18.3,8.25-1.33,19.85,5.14,24.28S539,286.37,542.62,277.39Z"/><path class="cls-27" d="M525.42,259.13c-.37,2.68,1.16,5.4,3.41,6.07s4.39-1,4.76-3.64-1.17-5.4-3.42-6.07S525.79,256.45,525.42,259.13Z"/><path class="cls-67" d="M597.6,340.72s-48.2,13.61-88.11-22.55c0,0-2.32,48.25,42.34,59.16,0,0,23.39,4.87,32.44-14.15Z"/><path class="cls-27" d="M511.74,324.44c3.15,13.22,4.49,12.45,4.49,12.45,18.09,16,39.44,19.32,53,19.19,7.73-.07,16.22-.92,20.09-7.62l2.57-4.44s-38.62,6.78-68-12Z"/><path class="cls-67" d="M593.81,341.89c.31-.38,12-5,12-5"/><path class="cls-61" d="M429.26,275c-28.52-24.73-47.67,3.37-38.47,25.94,9.11,22.34,29.71,31.19,45.52,15.68"/><path class="cls-6" d="M399.91,300.2c4.48,12.94,20.93,19.61,27.15,16.5,7-3.49-4.68-10-6.73-22.59-2.4-14.68.86-24.81-9.23-22.09C400.61,274.86,394.64,285,399.91,300.2Z"/><path class="cls-5" d="M597.21,551.4c1.12,3.08,9.93,1.11,13.2-.16,11.42-4.45,21.45-11.37,31.34-18.23,13.27-9.19,35.77-26.63,48.45-36.61,3.64-2.86-3-19.52-11.59-18.36,0,0-3,3.06-46.68,21.29-6.62,2.77-27.9,5.62-34.72,20.07"/><path class="cls-5" d="M428,614c-1.09,0-.63,3.57-1.72,3.61-.63,1.38,4,7.08,11.27,19,4.88,8,3.9,25.13,3.9,25.13s-5.46,6.89-11.13-13.88c-3.74,5.35-2.5,13,.94,18.51,1.9,3,2.88,3.08,4.73,6.16s1.52,6-.26,7.28c-.64.44-3.79,5.09-11.63-5.07a3.49,3.49,0,0,1-2.59,3.7c-1.69.31-4.43.39-8.92-9.36a2.44,2.44,0,0,1-4.22.58c-1.29-1.5-6.15-5.52-6.69-20.27-.35-9.26.86-18.06,1.66-27.08"/><path class="cls-68" d="M456.92,542.29s92.28,9.51,120.63-22.91l2.21,13.39S558.94,566,455,553Z"/><path class="cls-68" d="M456.92,525.36V515.11s87,4.27,116.07-17.44l2.55,12.16S545.16,537.56,456.92,525.36Z"/><ellipse class="cls-69" cx="517.46" cy="463.08" rx="30.5" ry="11.99" transform="translate(-44.28 54.85) rotate(-5.82)"/><path class="cls-5" d="M675.85,477.68s-3.21-10.08-11.63-7.14c-10.21,3.55,16,25.25,16,25.25l18.48,1.95Z"/><g class="cls-70"><path class="cls-71" d="M751.78,406.63a22.13,22.13,0,0,0-31.47-1.54c-8.91,8.35-9.27,22.58-.8,31.79A22.13,22.13,0,0,0,751,438.42C759.89,430.07,760.25,415.84,751.78,406.63Z"/></g><path class="cls-2" d="M751.78,406.63a22.13,22.13,0,0,0-31.47-1.54c-8.91,8.35-9.27,22.58-.8,31.79A22.13,22.13,0,0,0,751,438.42C759.89,430.07,760.25,415.84,751.78,406.63Z"/><path class="cls-72" d="M738,418.34c.94-1.17,5.27-8.58,6.6-10.23s-.14-2.63-1.56-3.47a11.33,11.33,0,0,0-5.79-1.7c-2.77-.1-1.64,1.41-1.91,7.08a31.52,31.52,0,0,0,.81,9.39C736.5,420.48,737.07,419.51,738,418.34Z"/><path class="cls-73" d="M726.56,436.67c-.68.64-2.23-.35-3.71-1.54s-3.47-4.19-2.77-5.79,13.49-5.87,13.49-5.87C735.62,422.76,727.25,436,726.56,436.67Z"/><path class="cls-74" d="M742.78,422.68l10.57.66c1.49.09,1.5-1.14,1.07-4.52s-1.38-3.17-2.6-3.52-8.68,3-11.37,4.29a7.06,7.06,0,0,0-1.78,1.12.81.81,0,0,0,.27,1.36A15.36,15.36,0,0,0,742.78,422.68Z"/><path class="cls-75" d="M730.14,404.07c1.56-.66,3.59-.53,4,.05s.88,11.9,1,13.42-.36,2.37-1.09,2-3-4.35-4.64-7.29-3.15-5.31-3.15-5.31C726.45,406.17,728.57,404.73,730.14,404.07Z"/><path class="cls-76" d="M732.88,421.2c1,.09,1.64,1.51.34,1.63s-10.88,4.25-12.65,5.1-1.82-.32-2.75-3,.53-6.45.53-6.45C719.68,417.93,731.9,421.1,732.88,421.2Z"/><path class="cls-77" d="M736.25,440c-.52,1.11-3.63.08-5.6-.25s-3.22-2.26-2.8-3.05,5.42-11.17,6.44-12.29,1.3-.11,1.3-.11C735.57,425.65,736.77,438.88,736.25,440Z"/><path class="cls-78" d="M729.45,413.17c1.5,2.32,4.55,7.72,3.08,7.2s-7.72-1.56-11.17-2.12-3.18-.4-2.32-3.91,6.17-6.67,6.17-6.67C726.27,407.8,728,410.86,729.45,413.17Z"/><path class="cls-79" d="M741.85,428c1.82,2,5.94,7.3,6.82,7.41s3.16-3.63,3.69-4.94,1.32-1.11,1.7-4.17-2.88-2.3-5.66-2.68-10-1-10-1C737.17,422.49,740,426.07,741.85,428Z"/><path class="cls-80" d="M739.92,419.34c1.41-.86,9.45-3.37,10.91-4.47s1.48-1.12.42-3a10.94,10.94,0,0,0-3.92-4.26c-1.51-.82-2.76,2-3.74,3.51-.81,1.26-4.58,6.39-5.83,8.1a.51.51,0,0,0,.51.81A5.84,5.84,0,0,0,739.92,419.34Z"/><path class="cls-81" d="M747.92,436.43c.54,1.14-5.68,3.55-7.43,4.11a2.25,2.25,0,0,1-3-1.68,28.4,28.4,0,0,1-.34-6.05c.15-1.36-.56-4.76-.54-7.49s.67-1.86.67-1.86C738.19,424.91,747.38,435.3,747.92,436.43Z"/><path class="cls-23" d="M721,477.24a445.08,445.08,0,0,0-7.36,76.62h0c.09,5.49,1.45,5.22,3.63,7.41s1.09,6,1.09,6H675.51s-1.09-3.84,1.09-6,3.53-1.92,3.63-7.41h0a445.08,445.08,0,0,0-7.36-76.62c-6-32.6-16.72-49.06-16.72-49.06h81.54S727,444.64,721,477.24Z"/><path class="cls-24" d="M721,477.24a445.08,445.08,0,0,0-7.36,76.62h0c.09,5.49,1.45,5.22,3.63,7.41s1.09,6,1.09,6H675.51s-1.09-3.84,1.09-6,3.53-1.92,3.63-7.41h0a445.08,445.08,0,0,0-7.36-76.62c-6-32.6-16.72-49.06-16.72-49.06h81.54S727,444.64,721,477.24Z"/><path class="cls-25" d="M675.85,477.68c-5.06-27.45-11.63-41.31-11.63-41.31h65.4s-6.57,13.86-11.64,41.31c-5.75,31.19-7,57.24-7,64.51h0c0,.17,0,3.39,0,6.14a7.34,7.34,0,0,1-5.2,7.13,28.89,28.89,0,0,1-8.38.91A35.46,35.46,0,0,1,687.06,555a6.23,6.23,0,0,1-4.21-6c0-2.87,0-6.63,0-6.8h0C682.86,534.92,681.61,508.87,675.85,477.68Z"/><g class="cls-26"><path class="cls-27" d="M659.58,430.35c-.19,0-.34-.3-.12-.41,1.92-.89,3.89-.49,6-.57,3.18-.12,6.37-.18,9.55-.09,6,.18,13.12-.27,19,1.42a.41.41,0,0,1,0,.78c-2.93,1.13-6,.21-9.12.15-2.81-.05-5.61-.33-8.42-.41-5.64-.17-11.23-.16-16.82-.87Z"/></g><g class="cls-26"><path class="cls-27" d="M705,431.11c-.54-.07-.32-.81.11-.87a91.36,91.36,0,0,1,16.62-.37c2.48.11,5.06.46,7.54.36,1.51-.06,2.25-.26,3.55.45a.49.49,0,0,1,.09.75c-3,2.47-9.08.95-12.68.81-5.11-.2-10.16-.44-15.23-1.13Z"/></g><g class="cls-26"><path class="cls-27" d="M706.61,563a.68.68,0,0,1,.18,1.32c-8.48,2.23-17.19,3.18-25.49-.07-2.74-1.07-1.51-5.59,1.22-4.47,2.15.88,4.12,2.28,6.45,2.6a43.63,43.63,0,0,0,6.26.22c3.81,0,7.58.09,11.38.4Z"/></g><g class="cls-26"><path class="cls-27" d="M711.51,564a1.58,1.58,0,0,1-1.53-1.17,1.66,1.66,0,0,1,.73-1.81,4.49,4.49,0,0,1,1.2-.64,2.56,2.56,0,0,1,2.09.29,2,2,0,0,1-.48,3.65,2.41,2.41,0,0,1-1.61-.06,2.55,2.55,0,0,1-1-.58c.24.17.28.21.11.11l.86.23a2.82,2.82,0,0,0-.41,0Z"/></g><g class="cls-28"><path class="cls-27" d="M702.81,561.34a.94.94,0,0,1,.46,1.73c-4.93,2.93-13.91,3.22-18.84.24-3.36-2-1.13-8,2.74-6.56,2.66,1,5,2.39,7.82,3,2.57.59,5.16,1.71,7.82,1.56Z"/></g><g class="cls-28"><path class="cls-27" d="M701.64,431.46a.82.82,0,0,1,0-1.56c3.55-.68,7.28-.34,10.87-.18,3.12.13,6.39,0,9.33,1.16a.51.51,0,0,1,0,1c-6,2.3-14.05.86-20.2-.39Z"/></g><path class="cls-27" d="M711.91,431.65a.28.28,0,0,1,0-.56c3.26-.26,6.47-.29,9.74-.29,2.77,0,5.59-.39,8.34,0,.39.05.66.61.22.84-5.4,2.85-12.57.65-18.31,0Z"/><path class="cls-27" d="M691.66,562.72c.6.09.44,1-.14,1s-1.46.37-2.22.38a8.8,8.8,0,0,1-2.93-.41c-1.59-.56-3.87-1.92-2.79-4a1.5,1.5,0,0,1,2.34-.3c.43.37.47.76.93,1a12.34,12.34,0,0,0,1.68.81c.62.24,1.23.5,1.85.75.42.18.84.59,1.28.66Z"/><g class="cls-82"><g class="cls-30"><path class="cls-4" d="M699.63,556.46a4.76,4.76,0,0,1-4,7.09c-5,.12,3.32-.06-1.37-.06a7.73,7.73,0,0,1-3.64-1c-2.31-1.37-10.63-3.35-11.3-5.88-1.33-5,3.64-10.13,2.81-15.7-2-13-6.89-26.18-6.61-39.18.13-6.44-7.28-13.89-6.8-20.31.51-6.84-5.61-39.67-6.12-42.26-.63-3.17-4.86-5.37-5-8.6-.26-5.36,35.45-14.09,40.56-14.09,5.51,0,9.5,4.49,9.75,9.84.16,3.3,1.2,6.5,1.46,9.8a45,45,0,0,1-.48,9.27c-.8,6.48-1.47,13-2.8,19.42-1.12,5.4-3.18,28.25-3.22,34.21-.08,12.11-.73,24.19-.16,36.33.28,5.88,1.35,14.78.2,20.69-.72,3.71-2.33,4.33-5.61,6.61l2.46-6.1-.09-.11Z"/></g></g><g class="cls-82"><g class="cls-30"><path class="cls-4" d="M695.82,553.15a4.78,4.78,0,0,1-2.82,7.66c-4.93,1,3.26-.6-1.36.17a7.58,7.58,0,0,1-3.75-.35c-2.51-1-11-1.54-12.1-3.92-2.13-4.72,1.93-10.6.2-16-4-12.51-11-24.68-12.9-37.55-.92-6.37-9.44-12.49-10-18.9-.61-6.83-12-38.2-12.92-40.67-1.13-3-5.66-4.49-6.34-7.65-1.13-5.25,32.67-19.78,37.72-20.63,5.44-.91,10.09,2.85,11.22,8.09.69,3.22,2.24,6.21,3,9.42a45.22,45.22,0,0,1,1,9.22c.27,6.53,2,14,1.71,20.57-.22,5.5,8.83,94.23,6,97q.71-3.21,1.43-6.43l-.11-.09Z"/></g></g><g class="cls-82"><g class="cls-31"><path class="cls-32" d="M742.06,418.81c1.62,1.13,2.63,3.47,1.37,5.3-.92,1.35-1.89,1.71-2.12,2.72-.42,1.77-.73,3.58-1.16,5.34-1,3.91-1.48,7.91-2,11.9-.65,4.54-2.09,8.82-3,13.31-1.45,6.83-2.14,13.7-3.16,20.59-1,7.06-1.15,14.06-1.63,21.17-.51,7.43-2.32,14.46-3.59,21.77a156.41,156.41,0,0,0-2,19.2,64.19,64.19,0,0,1-1.28,11,29.8,29.8,0,0,0-.92,4c-.23,3.15.95,2.13-.87-.89l-3.5-3.53c.33.26-7.57-2.55-.4-.56.92.36,1.82.74,2.7,1.16,2.84,1.34,4,4.43,4.35,7.3.77,6,1.12,10.94-4.39,10.94-6.47,0-13.06-4-13.73-10-.46-4.06-1.34-22.45-.93-26.87.43-4.71.57-15.11,1.34-19.79.8-4.9,1.65-18.09,2.58-22.09,2.85-12.35,3.55-19.62,5.95-29.6A116.43,116.43,0,0,1,719.71,447c.6-1.61,4.87-20.09,8.25-24.54,2.57-3.39,9.46-6.87,14.1-3.64Z"/></g></g><g class="cls-82"><g class="cls-31"><path class="cls-32" d="M744.64,418.81c1.62,1.13,2.63,3.47,1.38,5.3-.92,1.35-1.89,1.71-2.13,2.72-.42,1.77-.72,3.58-1.15,5.34-1,3.91-1.48,7.91-2,11.9-.65,4.54-2.09,8.82-3.05,13.31-1.45,6.83-2.14,13.7-3.16,20.59-1.05,7.06-1.14,14.06-1.63,21.17-.51,7.43-2.32,14.46-3.58,21.77a156.43,156.43,0,0,0-2,19.2,64.19,64.19,0,0,1-1.28,11,31.45,31.45,0,0,0-.92,4c-.23,3.15,1,2.13-.87-.89l-3.5-3.53c.33.26-7.57-2.55-.39-.56.91.36,1.81.74,2.69,1.16,2.85,1.34,4,4.43,4.35,7.3.77,6,1.12,10.94-4.39,10.94-6.47,0-13.06-4-13.73-10-.45-4.06-1.33-22.45-.93-26.87.43-4.71.57-15.11,1.34-19.79.8-4.9,1.66-18.09,2.58-22.09,2.85-12.35,3.55-19.62,5.95-29.6A120.1,120.1,0,0,1,722.29,447c.61-1.61,4.87-20.09,8.25-24.54,2.57-3.39,9.46-6.87,14.1-3.64Z"/></g></g><g class="cls-33"><path class="cls-27" d="M703.48,522.61a.77.77,0,0,1-1.48,0c-2.18-6.68-1.83-13.08-1.7-20.05.13-6.73.46-13.48,1-20.19,1.06-13.12,1.86-26.36,7.07-38.56,3.84-9,18-1.17,13.27,7.83-5.64,10.73-6.22,23.8-8.56,35.54-1.21,6-2,12.21-3.35,18.21-.7,3-1.58,5.9-2.52,8.83s-2.64,5.51-3.73,8.39Z"/></g><path class="cls-27" d="M718.3,446.58a.16.16,0,0,1,.3.09c.31,3.09-.79,6.47-1.46,9.46-1,4.63-1.68,9.36-2.76,14A175.4,175.4,0,0,0,710.89,489c-1.74,14.45-3.95,29.71-2.79,44.3.16,2-2.91,2-3.12,0-.67-6.56,0-13.36.43-19.91.61-8.45,1.43-16.88,2.54-25.28a165.89,165.89,0,0,1,3.74-18.78c1.81-7.16,2.74-16.34,6.61-22.77Z"/><path class="cls-5" d="M688.5,473.16c0,3.41,10.7,6.18,23.9,6.18s18.49,0,18.9-6.18c.64-9.64-5.7-6.17-18.9-6.17S688.5,469.75,688.5,473.16Z"/><path class="cls-5" d="M686.72,485.9c0,3.44,7.8,6.56,20.16,6.56s19.68-3.65,20-7.08c.77-8.77-7.62-5.41-20-5.41S686.72,482.45,686.72,485.9Z"/><path class="cls-5" d="M687.67,496.58c0,2.44,8.32,5.25,18.22,5.25s17.57-1.09,17.57-7.66-8.86-1.71-18.77-1.71S687.67,494.14,687.67,496.58Z"/><path class="cls-5" d="M690.38,504.76c0,2.44,4.41,6.68,14.31,6.68s16.36-2.36,13.87-9.44c-.81-2.3-8.76.65-18.67.65S690.38,502.32,690.38,504.76Z"/><path class="cls-4" d="M612.31,384.39c6.46.29,50.68,4,61.08,4.89a2.89,2.89,0,0,1,2.58,2.21l14.41,58.18h9.82l-15.58-65.14a7.61,7.61,0,0,0-7-5.85l-67.19-3.54Z"/><path class="cls-83" d="M538.55,364.45s-.25-7.74,11-5.22c2.63.59,15.41.13,20.57,6.68S552.79,375.6,538.55,364.45Z"/><path class="cls-62" d="M468.07,206.25c-6.9,0-15.18-1.09-19.37,4.38a100.49,100.49,0,0,1,50.87-74.25c19.21-10.42,14,31.12,10.88,39.9C504.3,193.61,486.48,206.32,468.07,206.25Z"/></g></g></g></svg>