<svg id="Layer_1" data-name="Layer 1" xmlns="http://www.w3.org/2000/svg" xmlns:xlink="http://www.w3.org/1999/xlink" viewBox="0 0 600 512"><defs><style>.cls-1{fill:#9b77af;}.cls-15,.cls-17,.cls-18,.cls-2,.cls-23,.cls-25,.cls-26,.cls-38{fill:none;}.cls-2{stroke:#604573;stroke-width:8.52px;opacity:0.84;}.cls-12,.cls-14,.cls-15,.cls-16,.cls-17,.cls-18,.cls-19,.cls-2,.cls-21,.cls-23,.cls-25,.cls-26,.cls-35,.cls-38,.cls-4,.cls-42,.cls-43,.cls-5,.cls-6,.cls-9{stroke-miterlimit:10;}.cls-3{fill:#604573;}.cls-14,.cls-16,.cls-4,.cls-5{fill:#d6dcdd;}.cls-4{stroke:#3a3739;}.cls-15,.cls-16,.cls-18,.cls-21,.cls-35,.cls-38,.cls-4,.cls-5,.cls-9{stroke-width:0.51px;}.cls-5{stroke:#3f3d3d;}.cls-6{fill:#adc2c4;stroke-width:0.47px;}.cls-14,.cls-16,.cls-18,.cls-19,.cls-23,.cls-6{stroke:#9e1f63;}.cls-7{fill:#050505;}.cls-8{fill:#0a151e;}.cls-12,.cls-9{fill:#171b1b;}.cls-9{stroke:url(#linear-gradient);}.cls-10{fill:#323333;}.cls-11{fill:url(#linear-gradient-2);}.cls-12{stroke-width:0.48px;stroke:url(#linear-gradient-3);}.cls-13{fill:url(#linear-gradient-4);}.cls-14{stroke-width:0.44px;}.cls-15{stroke:#45205c;}.cls-17{stroke:#344c9f;stroke-width:0.51px;}.cls-19{fill:#bbbdbf;stroke-width:0.64px;}.cls-20,.cls-21{fill:#fff;}.cls-21{stroke:#90278e;}.cls-22{fill:#39284c;}.cls-23{stroke-width:1.02px;opacity:0.39;}.cls-24{opacity:0.88;}.cls-25,.cls-26{stroke:#231f20;}.cls-25{stroke-width:3.68px;}.cls-26{stroke-width:3.59px;}.cls-27{fill:url(#linear-gradient-5);}.cls-28{fill:url(#linear-gradient-6);}.cls-29{fill:url(#linear-gradient-7);}.cls-30{fill:url(#linear-gradient-8);}.cls-31{fill:url(#linear-gradient-9);}.cls-32{fill:url(#linear-gradient-10);}.cls-33{fill:url(#linear-gradient-11);}.cls-34{fill:url(#linear-gradient-12);}.cls-35{fill:#353433;stroke:#373a39;}.cls-36,.cls-39,.cls-44,.cls-45,.cls-46,.cls-47,.cls-48{opacity:0.38;}.cls-37{opacity:0.64;fill:url(#linear-gradient-13);}.cls-38{stroke:#1b75bb;}.cls-39{fill:url(#linear-gradient-14);}.cls-40{fill:#3b284c;}.cls-41{fill:#d6dcde;}.cls-42{stroke:#35449b;stroke-width:0.51px;fill:url(#linear-gradient-15);}.cls-43{stroke:#364fa1;stroke-width:0.5px;fill:url(#linear-gradient-16);}.cls-44{fill:url(#linear-gradient-17);}.cls-45{fill:url(#linear-gradient-18);}.cls-46{fill:url(#linear-gradient-19);}.cls-47{fill:url(#linear-gradient-20);}.cls-48{fill:url(#linear-gradient-21);}.cls-49{fill:#604474;}</style><linearGradient id="linear-gradient" x1="423.38" y1="399.18" x2="525.17" y2="399.18" gradientUnits="userSpaceOnUse"><stop offset="0.23" stop-color="#404041"/><stop offset="0.28" stop-color="#3e3f47"/><stop offset="0.59" stop-color="#343b6e"/><stop offset="0.84" stop-color="#2d3986"/><stop offset="1" stop-color="#2b388f"/></linearGradient><linearGradient id="linear-gradient-2" x1="473.5" y1="382.84" x2="477.35" y2="478.63" gradientUnits="userSpaceOnUse"><stop offset="0.14" stop-color="#fff"/><stop offset="0.43" stop-color="#b4b8d7"/><stop offset="0.82" stop-color="#525da4"/><stop offset="1" stop-color="#2b388f"/></linearGradient><linearGradient id="linear-gradient-3" x1="82.68" y1="392.77" x2="177.38" y2="392.77" xlink:href="#linear-gradient"/><linearGradient id="linear-gradient-4" x1="126.21" y1="375.31" x2="142.67" y2="478.19" gradientUnits="userSpaceOnUse"><stop offset="0.13" stop-color="#fff"/><stop offset="0.18" stop-color="#eeeff6"/><stop offset="0.4" stop-color="#a9afd2"/><stop offset="0.61" stop-color="#737cb5"/><stop offset="0.78" stop-color="#4c57a0"/><stop offset="0.92" stop-color="#344094"/><stop offset="1" stop-color="#2b388f"/></linearGradient><linearGradient id="linear-gradient-5" x1="120.92" y1="402.52" x2="122.61" y2="409.91" gradientUnits="userSpaceOnUse"><stop offset="0" stop-color="#33489d"/><stop offset="0" stop-color="#151717"/><stop offset="0.35" stop-color="#0d0f0f"/><stop offset="1" stop-color="#0b0d0d"/></linearGradient><linearGradient id="linear-gradient-6" x1="123.36" y1="386.66" x2="125.05" y2="394.05" xlink:href="#linear-gradient-5"/><linearGradient id="linear-gradient-7" x1="141.67" y1="389.1" x2="143.35" y2="396.49" xlink:href="#linear-gradient-5"/><linearGradient id="linear-gradient-8" x1="139.23" y1="406.79" x2="140.91" y2="414.18" xlink:href="#linear-gradient-5"/><linearGradient id="linear-gradient-9" x1="466.16" y1="408.45" x2="468.08" y2="416.88" xlink:href="#linear-gradient-5"/><linearGradient id="linear-gradient-10" x1="470.43" y1="390.21" x2="472.35" y2="398.64" xlink:href="#linear-gradient-5"/><linearGradient id="linear-gradient-11" x1="488.12" y1="395.45" x2="490.05" y2="403.89" xlink:href="#linear-gradient-5"/><linearGradient id="linear-gradient-12" x1="487.51" y1="413.36" x2="489.44" y2="421.79" xlink:href="#linear-gradient-5"/><linearGradient id="linear-gradient-13" x1="466.49" y1="245.8" x2="485.78" y2="330.41" gradientTransform="translate(-290.81 -150.39) rotate(12.37)" gradientUnits="userSpaceOnUse"><stop offset="1" stop-color="#32c3eb"/><stop offset="1" stop-color="#2b388f"/></linearGradient><linearGradient id="linear-gradient-14" x1="144.86" y1="190.27" x2="165.62" y2="281.33" gradientTransform="matrix(1, 0, 0, 1, 0, 0)" xlink:href="#linear-gradient-13"/><linearGradient id="linear-gradient-15" x1="287.61" y1="173.79" x2="288.63" y2="297.34" gradientTransform="matrix(1, 0, 0, 1, 0, 0)" xlink:href="#linear-gradient-13"/><linearGradient id="linear-gradient-16" x1="398.51" y1="174.54" x2="399.52" y2="297.01" gradientTransform="matrix(1, 0, 0, 1, 0, 0)" xlink:href="#linear-gradient-13"/><linearGradient id="linear-gradient-17" x1="239.32" y1="227.73" x2="288.03" y2="227.73" gradientTransform="matrix(1, 0, 0, 1, 0, 0)" xlink:href="#linear-gradient-13"/><linearGradient id="linear-gradient-18" x1="362.06" y1="182.16" x2="362.96" y2="290.66" gradientTransform="matrix(1, 0, 0, 1, 0, 0)" xlink:href="#linear-gradient-13"/><linearGradient id="linear-gradient-19" x1="449.1" y1="182.93" x2="449.99" y2="291.72" gradientTransform="matrix(1, 0, 0, 1, 0, 0)" xlink:href="#linear-gradient-13"/><linearGradient id="linear-gradient-20" x1="592.2" y1="45.48" x2="653.04" y2="45.48" gradientTransform="matrix(1.2, 0.17, -0.16, 1.15, -409.44, 72.65)" xlink:href="#linear-gradient-13"/><linearGradient id="linear-gradient-21" x1="664.51" y1="173.89" x2="702.22" y2="173.89" gradientTransform="matrix(1.12, 0.14, -0.14, 1.06, -312.67, -54.33)" xlink:href="#linear-gradient-13"/></defs><g id="v"><path class="cls-1" d="M108.3,177.87C93.37,197,81.46,213.38,72.92,225.46c-28.26,40-34.26,53.58-37.22,61a181.78,181.78,0,0,0-11.92,48.71l-2.53-.84v31.73s7.62,3.39,22.85,3.81S73.72,372,73.72,372l3.81,4.65s-.85-20.31,22.85-33.85c19.88-11,62.2-20.73,81.66,40.2L411,386q6.71-11,13.4-22c2.95-4,15.81-20.75,39-25,32.38-5.94,55.56,17.63,57.35,19.52a61.4,61.4,0,0,1,9.15,14.65,59.9,59.9,0,0,1,3.06,8.54l17.62.5-2.11-7.61,35.12-3s-2.12-115.51-3.81-121a59,59,0,0,1-2.12-8.89c-14.58-40.86-20.9-58.06-21.52-58.93a2.57,2.57,0,0,1-.48-1.15,3,3,0,0,1,.48-1.9,849.25,849.25,0,0,0-447.84-1.83Z"/><path class="cls-2" d="M65.49,293s4.65-18.91,78.32-18.1,435.92-2,435.92-2"/><path class="cls-3" d="M64.57,238.41c-3.65,6-15,26.25-7.21,43.85,5.11,11.54,16,19.21,41.69,25.4,59.48,14.33,91.81,19.12,91.81,19.12V382.6c-.48.08-1.17.2-2,.29-3.3.38-4.94.63-5.92.12s-1.25-1.45-2.44-4.88c-.53-1.53-1.35-3.84-2.44-6.71a117.79,117.79,0,0,0-9.15-15.87c-5-7.16-7.66-9.62-8.55-10.37a36.59,36.59,0,0,0-12.2-6.71c-7.54-2.64-28.59-7.27-47.59,5.49a53.4,53.4,0,0,0-20.44,27.15,68.38,68.38,0,0,0-7.63-1.52c-3-.43-5.21-.56-6.1-.61-6.3-.38-12.6-.92-18.91-1.23-5.42-.26-13.16-.82-23-2.15a126,126,0,0,1-.2-46.66c3.31-17.66,9.71-30.13,16.48-43.32A233.21,233.21,0,0,1,64.57,238.41Z"/><path class="cls-4" d="M583.8,367.14v3.67l-28.28,2.13s-11.08-1.83-8,5.49,10.8,18.92,10.8,18.92l36.18-3.05s3.08-6,3.07-8.81,0-7.06-1.85-8.89-11.9-12.2-11.9-12.2C583.79,365.31,583.79,366.23,583.8,367.14Z"/><path class="cls-5" d="M23.08,350.06S5.33,359.21,8.41,371.11s6.82,18.36,48.27,17.57l14,.86,9.49-10s5.19-6.93,0-8.46S24.5,365.6,24.5,365.6a54.36,54.36,0,0,0-.2-8.22A54.63,54.63,0,0,0,23.08,350.06Z"/><path class="cls-6" d="M102.08,197.06,74.93,251.19l-1.51,3.69h107.1s5.72.61,5.21-7.93,0-43.21,0-43.21,2.53-5-9.75-5.6S102.08,197.06,102.08,197.06Z"/><path class="cls-7" d="M521.26,382.09l29.28-1.83-9.76-22-35.39-11Z"/><circle class="cls-8" cx="133.82" cy="372.94" r="53.69"/><circle class="cls-8" cx="467.57" cy="382.09" r="53.69"/><circle class="cls-9" cx="474.28" cy="399.18" r="50.64"/><circle class="cls-10" cx="474.89" cy="401.01" r="34.78"/><circle class="cls-11" cx="474.28" cy="402.23" r="24.41"/><ellipse class="cls-12" cx="130.03" cy="392.77" rx="47.11" ry="47.9"/><ellipse class="cls-10" cx="130.03" cy="394.5" rx="32.35" ry="32.89"/><ellipse class="cls-13" cx="129.46" cy="395.66" rx="22.7" ry="23.08"/><path class="cls-14" d="M110.29,200.88l-21,49.89h82.31a3.44,3.44,0,0,0,2.2-.16c2.33-1.09,2.5-5.24,2.56-7.23.19-5.9.25-19.36,0-37.11,0,0,1.93-5.39-6.91-5.39H110.29Z"/><path class="cls-15" d="M190.86,326.78l-86,1.93a8.09,8.09,0,0,0-4.6-.09c-2,.54-4.17,2-7.75,8.89a73.6,73.6,0,0,0-5.34,13.16,101.53,101.53,0,0,0-4.27,14c-.75,3.28-.94,5.05-2.44,6.11-3,2.06-8.09-.53-10.38-1.83H68.84A215,215,0,0,1,39,366.8v-8.86l-4.94.66V346.79h4.75Q42,306.9,45.25,267"/><path class="cls-16" d="M285.44,270.74a94.72,94.72,0,0,0-13.72,0c-5.19.61-11,7-11,7s23.21.65,26.1.48S294,270.74,285.44,270.74Z"/><path class="cls-16" d="M394,269.52a94.72,94.72,0,0,0-13.72,0c-5.19.61-11,7-11,7s23.22.65,26.1.48S402.59,269.52,394,269.52Z"/><path class="cls-16" d="M175.16,270.74H163.9s-8.09,6.38-8.56,7.29,21.8,0,21.8,0S180.81,270.47,175.16,270.74Z"/><polyline class="cls-17" points="535.63 183.19 542.92 248.55 546.07 368.37"/><polygon class="cls-18" points="60.26 242.96 54.2 236.58 52.49 239.77 58.4 246.08 60.26 242.96"/><ellipse class="cls-19" cx="51.15" cy="231.39" rx="7.87" ry="12.21" transform="translate(-24.78 6.91) rotate(-6.22)"/><ellipse class="cls-20" cx="51.15" cy="231.39" rx="4.57" ry="8.78" transform="translate(-24.78 6.91) rotate(-6.22)"/><ellipse class="cls-21" cx="24.3" cy="317.11" rx="7.32" ry="18.91"/><path class="cls-22" d="M172,200.88q-.32,24.87-.61,49.73a16.27,16.27,0,0,1,3.66,0c1.47.17,2.78.53,4.05-.15a2.92,2.92,0,0,0,.67-.46,5.26,5.26,0,0,0,1.26-2.44l.42-43.32a8,8,0,0,0-1.68-1.83,6.35,6.35,0,0,0-2.94-1.22A17.8,17.8,0,0,0,172,200.88Z"/><polyline class="cls-23" points="190.86 183.94 190.86 382.6 190.86 255.05"/><g class="cls-24"><path class="cls-25" d="M119.25,364.32s10.26-8.06,21.12,0"/><path class="cls-25" d="M159.76,383.24s5,15.05-3,24.38"/><path class="cls-25" d="M104.16,380.06s-4.64,13.3,0,21.91"/><path class="cls-25" d="M117.45,420.14s16.83,6.37,25,0"/></g><g class="cls-24"><path class="cls-26" d="M463,375.29s10.18-7.72,21,0"/><path class="cls-26" d="M505.62,394s4.92,14.41-3,23.36"/><path class="cls-26" d="M445.58,391s-4.6,12.74,0,21"/><path class="cls-26" d="M463.65,429.38s16.7,6.11,24.8,0"/></g><ellipse class="cls-27" cx="121.62" cy="405.58" rx="2.44" ry="2.14"/><ellipse class="cls-28" cx="124.06" cy="389.72" rx="2.44" ry="2.14"/><ellipse class="cls-29" cx="142.36" cy="392.16" rx="2.44" ry="2.14"/><ellipse class="cls-30" cx="139.92" cy="409.85" rx="2.44" ry="2.14"/><ellipse class="cls-31" cx="466.96" cy="411.94" rx="2.44" ry="2.46"/><ellipse class="cls-32" cx="471.23" cy="393.7" rx="2.44" ry="2.46"/><ellipse class="cls-33" cx="488.92" cy="398.95" rx="2.44" ry="2.46"/><ellipse class="cls-34" cx="488.31" cy="416.86" rx="2.44" ry="2.46"/><path class="cls-35" d="M561.73,372.47a68.88,68.88,0,0,0,32.73,21.79l-36.17,3.09c-1.65-2.59-3.95-6.34-6.53-11-4.41-8-5.41-10.8-4.27-12.2.61-.74,1.68-.91,3.66-1.22s3.16,0,5.49,0A26.51,26.51,0,0,0,561.73,372.47Z"/><g class="cls-36"><path class="cls-37" d="M107,250.3h-5.49q8.85-24.56,17.71-49.11l4.25-.31Z"/></g><rect class="cls-38" x="468.48" y="264.03" width="31.12" height="24.41"/><polygon class="cls-39" points="150.44 201.49 133.71 250.3 172.26 250.91 172.26 201.49 150.44 201.49"/><path class="cls-35" d="M23.35,386.71s19.56-9.5,24.14-19c12.2.61,32.64,3.36,32.64,3.36A3.93,3.93,0,0,1,82,372.94c.6,1.38.11,3.09-1.83,6.08a49.94,49.94,0,0,1-9.49,10.52S27,388.89,23.35,386.71Z"/><rect class="cls-40" x="198.8" y="190.21" width="300.19" height="72"/><rect class="cls-41" x="228.09" y="196.92" width="245.88" height="61.62"/><line class="cls-42" x1="288.03" y1="189.9" x2="288.03" y2="260.07"/><polyline class="cls-43" points="398.93 260.07 398.93 258.59 398.93 199.06 398.93 190.51"/><polygon class="cls-44" points="288.03 196.92 288.03 258.54 239.32 258.54 288.03 196.92"/><polygon class="cls-45" points="325.64 257.63 399.23 257.63 399.23 196 325.64 257.63"/><polygon class="cls-46" points="424.96 259.1 473.97 258.54 473.97 196.92 424.96 259.1"/><path class="cls-47" d="M288.22,258.58l69.52-61.36,13.28-.13-69.41,61.76Z"/><path class="cls-48" d="M444.1,197.24l-43.57,61h7.85l42.71-61.63Z"/><path class="cls-49" d="M555.86,183.09c11.28,27.58,18.7,48.13,20.25,53.23.71,2.34,3,10.65,3.41,12.46,0,.05.46,1.92.46,1.92h0l3.82,120.11-30.48,1.66s-10.22-.81-4,9.81l-16.13-.49c-3-26.85-77.48-85.42-122,4.31l-220.29-3.5V326.78l223,1.62c54.61-46.67,114.1,0,114.1,0s33.86-57.66,27.89-145.31l-451.32,1.18"/></g></svg>