<svg id="Layer_1" data-name="Layer 1" xmlns="http://www.w3.org/2000/svg" viewBox="0 0 512 512"><defs><style>.cls-1,.cls-57{fill:#3d2d16;}.cls-1{stroke:#3d2d16;}.cls-1,.cls-12,.cls-14,.cls-15,.cls-16,.cls-2,.cls-23,.cls-24,.cls-25,.cls-28,.cls-29,.cls-3,.cls-30,.cls-32,.cls-34,.cls-35,.cls-36,.cls-4,.cls-40,.cls-41,.cls-42,.cls-43,.cls-44,.cls-5,.cls-53,.cls-58,.cls-6,.cls-66,.cls-7,.cls-9{stroke-miterlimit:10;}.cls-1,.cls-15,.cls-2,.cls-23,.cls-24,.cls-25,.cls-28,.cls-29,.cls-3,.cls-32,.cls-34,.cls-35,.cls-36,.cls-4,.cls-41,.cls-42,.cls-43,.cls-44,.cls-53{stroke-width:0.56px;}.cls-2,.cls-59{fill:#d9b3a9;}.cls-2,.cls-23,.cls-24,.cls-25,.cls-28,.cls-29,.cls-3,.cls-30,.cls-32,.cls-4,.cls-40,.cls-44,.cls-5,.cls-6,.cls-7{stroke:#323232;}.cls-15,.cls-3,.cls-41,.cls-42{fill:none;}.cls-4{fill:#cebbb5;}.cls-5{fill:#9b9b9b;}.cls-5,.cls-6,.cls-66,.cls-7{stroke-width:0.28px;}.cls-6{fill:#7e9bba;}.cls-7{fill:#838487;}.cls-17,.cls-8{fill:#7a6f42;}.cls-9{fill:#f0e5ad;}.cls-12,.cls-14,.cls-16,.cls-9{stroke:#99802f;stroke-width:1.12px;}.cls-10{fill:#ffdb70;}.cls-11{fill:#d3a94d;}.cls-12{fill:#bc9e2f;}.cls-13{fill:#792a40;}.cls-14{fill:#eac425;}.cls-15{stroke:#a9994e;}.cls-16{fill:#f6d242;}.cls-17,.cls-18{opacity:0.3;}.cls-19{fill:#c7c5c3;}.cls-20{fill:#f26d4a;}.cls-21{fill:#fff;}.cls-22{fill:#b98f89;}.cls-23{fill:#dbad56;}.cls-24{fill:#587ab1;}.cls-25{fill:#7198c5;}.cls-26{fill:#1a4072;opacity:0.76;}.cls-27{fill:#e6825a;}.cls-28{fill:#deccc7;}.cls-29,.cls-30{fill:#e0604f;}.cls-30{stroke-width:0.12px;}.cls-31{fill:#e7b675;}.cls-32{fill:#7499c3;}.cls-33{fill:#cbaeae;}.cls-34{fill:#767170;stroke:#404141;}.cls-35{fill:#375e95;stroke:#242257;}.cls-36{fill:#ad9795;stroke:#66403f;}.cls-37{fill:#b59f9d;}.cls-38{fill:#456aaa;}.cls-39{fill:#b2becf;}.cls-40{fill:#dfd0cd;}.cls-40,.cls-58{stroke-width:0.42px;}.cls-41{stroke:#56241a;}.cls-42{stroke:#5f4a43;}.cls-43{fill:#d95c79;stroke:#8c2238;}.cls-44{fill:#fad2c6;}.cls-45{fill:#e4a58c;}.cls-46,.cls-66{fill:#bdccd5;}.cls-47{fill:#b87e70;}.cls-48{fill:#451f16;}.cls-49{fill:#dde7ec;}.cls-50{fill:#561211;}.cls-51{fill:#9f4c43;}.cls-52{fill:#d8ccca;}.cls-53{fill:#3f1d1d;stroke:#211e1f;}.cls-54{fill:#421b16;}.cls-55{fill:#c28974;}.cls-56{fill:#e8d860;}.cls-58{fill:#ad6428;stroke:#c77929;}.cls-60{fill:#323232;}.cls-61{fill:#bba647;}.cls-62{fill:#dc9e8f;}.cls-63{fill:#411e16;}.cls-64{fill:#ef4b3b;}.cls-65{fill:#f49990;}.cls-66{stroke:#1f353f;}.cls-67{fill:#f18d7a;}</style></defs><g id="u"><path class="cls-1" d="M302.3,338c1.29,0,13.55,9.09,61.89,4L371.94,328l-32.13-6.78-36.41,3Z"/><path class="cls-2" d="M276.88,372.84c-.24.3-7.65-2.4-8.47-.73-1,2,6.81,2.67,10.51,2.51"/><path class="cls-2" d="M300.77,371.24l2.67-5.1s8.93,3.86,7.94,10.56-3,8.57-3,8.57c-3.8,1.81-20.89-13.42-22.68-12.6-5.12,2.34-9.87,4-10.3-3.59-.31-5.52,2.79-3.83,4.62-4.05,2.63-.32-4.31-1.62-4.71-4.38-.34-2.37,2.9-.08,7.14.64.47.08.74.64,1.15,1C288.11,365.79,295.61,369.85,300.77,371.24Z"/><path class="cls-3" d="M280.47,364.49a4.92,4.92,0,0,0-.4,3.42,14.56,14.56,0,0,0,1.27,3.28"/><path class="cls-2" d="M277.11,364.78c-.23.3-7.41.35-9.21.86s3.82,2.14,7.53,2"/><path class="cls-2" d="M274.69,369.39c-.24.31-7.18-1.18-8.15.41-1.33,2.17,5.62,3,9.33,2.84"/><path class="cls-2" d="M275.78,368.09c-.24.3-9.07-2.06-10.26-.62s6.1,2.66,9.81,2.49"/><path class="cls-4" d="M315,343.56s-5.65,3.84-8.32,9.69-5.58,13.79-5.17,14,6.83,3.27,6.83,3.27Z"/><path class="cls-5" d="M323,486.58c-.46-1.4-1-3.68-2.52-4.39-.4-.18-.76,0-1.14.2s-.79.44-1.19.63c-.19.09-2.54.66-2.53.71-.09-.36,0-.73-.1-1.08a2.38,2.38,0,0,0-.52-.85,2.61,2.61,0,0,0-3.39-.53c-1.53.74-2.3,2.44-3.32,3.69a11.14,11.14,0,0,1-4.25,3,62.21,62.21,0,0,1-9.34,3.67,4.44,4.44,0,0,0-3.47,3.69c-.27,1.57-.37,4,1,5.05a4.27,4.27,0,0,0,1.46.68,6.56,6.56,0,0,0,1.45.42c4.15.82,8.77.13,12.85-.7.77-.14,1.5-.31,2.25-.49a47.41,47.41,0,0,0,5.69-2.18c1.62-.74,3.19-1.56,4.74-2.4a8.11,8.11,0,0,0,3.2-2.58c0-.53,0-1.05,0-1.58A30.46,30.46,0,0,0,323,486.58Z"/><path class="cls-6" d="M323.59,491.14c-.29.29-9.91,6-15,7.22a38.46,38.46,0,0,1-8.2,1.12c-3,0-7.55-.1-8.86-3.25a3.47,3.47,0,0,1,.23-1.55,4.11,4.11,0,0,1,.74-1.36c1.26-1.52,3.25-1.69,5-2.22a45.54,45.54,0,0,0,5.82-2.47c1.92-.85,4.07-1.78,5.35-3.52.69-.92,1.19-1.93,1.93-2.83a2.61,2.61,0,0,1,4.55,1.78c0,.09.07.17.16.14a12.87,12.87,0,0,0,4.53-1.46,1,1,0,0,1,.6.18,1.18,1.18,0,0,1,.25.25,6.3,6.3,0,0,1,1.77,3.65C322.66,487.42,323.59,490.89,323.59,491.14Z"/><path class="cls-7" d="M310.81,488.21a7,7,0,0,0-1.65-1.65c-.45-.33-1.44-1-2.05-.67a32.67,32.67,0,0,0-5.27,2.69,5.42,5.42,0,0,1,3.32,1.32,6.6,6.6,0,0,1,1.51,1.74c.31.57.52,1.42,1.35,1.41a1.42,1.42,0,0,0,.54-.34C310.58,490.77,312.05,490,310.81,488.21Z"/><path class="cls-5" d="M326.74,492.2c.24-.8.51-1.57.76-2.34a12.83,12.83,0,0,1,2.25-4.62c1-1.15,3.4-.89,2.65.85.13.07.26.18.4.24a4.7,4.7,0,0,0,1.26.47,1.49,1.49,0,0,1,.17,0,5.13,5.13,0,0,1,4.22-1.32,2.91,2.91,0,0,1,2,1.08,4.73,4.73,0,0,1,.46.78c1,1.73,1.57,3.7,3.12,5.14a40,40,0,0,0,6.21,4.49c1.85,1.17,3.28,2,3.73,4.28.31,1.62-.1,2.91-1.79,3.26a31.1,31.1,0,0,1-14.67-.38c-2.24-.65-4.33-2.88-6-4.43-.46-.42-.89-.85-1.35-1.29-.65-.73-1.31-1.45-2-2.16a4.58,4.58,0,0,1-1.57-2.85C326.67,493,326.7,492.61,326.74,492.2Z"/><path class="cls-6" d="M350.76,497.49c-1.62-1.05-3.26-2-4.85-3.13a13.83,13.83,0,0,1-3.24-2.91,8.41,8.41,0,0,1-1-1.88c-.16-.46-.32-.91-.5-1.33a4.76,4.76,0,0,0-.74-1.18,3.42,3.42,0,0,0-2.53-1.29c-.82-.06-6.35-.76-6.87-.64s-1.9.73-1.9.73c-.15.29-.8,1.65-.95,1.94,0,.05-.76,1.46-1,1.94a3.58,3.58,0,0,0,0,1.95,35.78,35.78,0,0,0,4.2,4.15,66.7,66.7,0,0,0,5.47,4.77c2.57,1.87,5.59,2.11,8.63,2,.91,0,7.61.11,8.09-1.44C353.39,499.54,352.2,498.42,350.76,497.49Z"/><path class="cls-7" d="M336.37,490.92a15.3,15.3,0,0,1,3.19-.91c.49-.07,2.35-.27,3.15.31a11.2,11.2,0,0,1,3.58,4,11.78,11.78,0,0,0-5,0,5.9,5.9,0,0,0-1.9.75c-.47.33-1,.92-1.62.56a2.64,2.64,0,0,1-.29-.49C336.26,492.87,334.66,491.83,336.37,490.92Z"/><ellipse class="cls-8" cx="338.77" cy="190.65" rx="2.04" ry="5.18"/><ellipse class="cls-8" cx="190.13" cy="189.65" rx="2.04" ry="5.18"/><path class="cls-9" d="M368.09,87c-10.38,17.71-34.2,29.66-50.78,19.94s-13.66-46.19-3.14-63.82c10.31-17.27,47-41.19,63.61-31.47S378.47,69.3,368.09,87Z"/><ellipse class="cls-8" cx="355.78" cy="44.65" rx="16.59" ry="12.52" transform="translate(115.89 311.16) rotate(-55.16)"/><path class="cls-9" d="M148.54,89.53c9,18.43,31.89,32.12,49.15,23.66s17.06-45,7.88-63.4c-9-18-43.83-44.58-61.09-36.12S139.51,71.1,148.54,89.53Z"/><ellipse class="cls-8" cx="163.97" cy="48.21" rx="12.52" ry="16.59" transform="translate(-1.73 90.1) rotate(-30.57)"/><path class="cls-10" d="M94,179.2l.38-.11c-.31,1.73-.38,2.65-.38,2.65Z"/><ellipse class="cls-8" cx="94.38" cy="180.41" rx="4.89" ry="2.67" transform="translate(-103.41 228.76) rotate(-76.12)"/><ellipse class="cls-11" cx="324.28" cy="180.41" rx="4.89" ry="2.67" transform="matrix(0.05, -1, 1, 0.05, 128.7, 495.77)"/><ellipse class="cls-11" cx="190.13" cy="179.09" rx="4.89" ry="2.67" transform="translate(2.23 360.52) rotate(-87.28)"/><path class="cls-12" d="M94.38,179.09c23.07-3.06,93.81,7.85,93.81,7.85s97-6.53,147.81,0c4.72.6,42.89-5.2,96.56-8.17a.42.42,0,0,0,.24-.73c-6.82-6-61.44-52.51-115.16-56.79-56.92-4.53-218.51,8.7-223.18,56.54C94.42,178.22,93.94,179.15,94.38,179.09Z"/><circle class="cls-13" cx="257.2" cy="39.47" r="11.22"/><path class="cls-14" d="M433.51,178.67c-53.89-26.42-97.8-10.06-103.72-12.19-.36-.13-.71-.26-1.06-.37-5.9-2.1-11.66-3.9-17.3-5.45q-7.68-2.1-15-3.58a212.15,212.15,0,0,0-74.27-2.25c-6.12.91-11.54,2-16.2,3.09-8.11,1.89-13.9,3.76-17,4.58a8.19,8.19,0,0,1-2.44.43c-13.18-2.43-27.66-1.43-41.18,1-6,1.07-11.74,2.41-17.14,3.86-17.36,4.63-30.77,10.32-33.81,11.31a107.86,107.86,0,0,1,5.79-20A158.76,158.76,0,0,1,109,140.12h0c7.48-13.69,18.65-29.8,35.3-46.81,17.14-17.52,36.94-29.62,55.14-37.9,5-2.28,9.82-4.25,14.46-6,6.73-2.51,13-4.5,18.62-6.05q2.7-.75,5.42-1.36a108.11,108.11,0,0,1,43.81-.57l1.86.36,1.55.32h0c7.27,1.49,18.5,5.82,30.9,11.62h0c5.33,2.48,10.85,5.24,16.37,8.15,16.86,8.89,33.64,19.26,44,28,15.2,12.81,28.59,32.89,38.57,50.71,3.82,6.84,7.15,13.36,9.88,19C430.26,170.58,433.32,178.23,433.51,178.67Z"/><path class="cls-15" d="M186,166.49s1.58-74.44,46.53-123.12"/><path class="cls-15" d="M329.8,166.49s10.35-82.85-44.62-124.38"/><path class="cls-16" d="M329.18,164.58c-73.72-26.2-129.48-7.17-141.78-3.92C187.81,144.73,193.89,86.22,238,42a108.06,108.06,0,0,1,43.8-.57l1.86.36C298,54.39,334,91.62,329.18,164.58Z"/><path class="cls-17" d="M312.69,154.72a14.15,14.15,0,0,1-1.26,5.94q-7.68-2.1-15-3.58a15.14,15.14,0,0,1-.19-2.36c0-6.18,3.69-11.18,8.23-11.18S312.69,148.54,312.69,154.72Z"/><g class="cls-18"><ellipse class="cls-8" cx="258.86" cy="58.84" rx="8.23" ry="11.18"/><ellipse class="cls-8" cx="222.19" cy="100.79" rx="8.23" ry="11.18"/><path class="cls-8" d="M222.16,154.83c-6.12.91-11.54,2-16.2,3.09a14.86,14.86,0,0,1-.22-2.62c0-6.16,3.68-11.17,8.23-11.17S222,148.88,222.16,154.83Z"/><path class="cls-8" d="M213.91,49.42c-.44,5.59-3.93,9.94-8.17,9.94a7.57,7.57,0,0,1-6.29-4C204.42,53.12,209.27,51.15,213.91,49.42Z"/><ellipse class="cls-8" cx="293.41" cy="93.79" rx="8.23" ry="11.18"/><ellipse class="cls-8" cx="259.06" cy="123.14" rx="8.23" ry="11.18"/><ellipse class="cls-8" cx="339.88" cy="82.62" rx="8.23" ry="11.18" transform="translate(15.33 213.04) rotate(-35.56)"/><path class="cls-8" d="M332.46,61.9a5.4,5.4,0,0,1-.95.84c-3.7,2.65-9.6.72-13.19-4.3a14.57,14.57,0,0,1-2.23-4.69C321.42,56.23,326.94,59,332.46,61.9Z"/><ellipse class="cls-8" cx="146.42" cy="111.96" rx="11.84" ry="8.23" transform="translate(-23.75 182.79) rotate(-60)"/><path class="cls-8" d="M145.32,163.92c-6,1.07-11.74,2.41-17.14,3.86a14,14,0,0,1,1.85-9.95c3.27-5.66,9.11-8.41,13.05-6.13C146.53,153.68,147.37,158.87,145.32,163.92Z"/><ellipse class="cls-8" cx="179.58" cy="82.62" rx="11.84" ry="8.23" transform="translate(18.25 196.83) rotate(-60)"/><ellipse class="cls-8" cx="170.32" cy="134.84" rx="11.84" ry="8.23" transform="translate(-31.61 214.92) rotate(-60)"/><path class="cls-8" d="M115.31,155c-3.27,5.66-9.11,8.42-13,6.14a5.87,5.87,0,0,1-2.11-2.09A158.76,158.76,0,0,1,109,140.12h0a6.6,6.6,0,0,1,5.09.53C118.05,142.92,118.58,149.34,115.31,155Z"/><ellipse class="cls-8" cx="385.59" cy="118.28" rx="8.23" ry="11.18" transform="translate(3.11 246.27) rotate(-35.56)"/><path class="cls-8" d="M425,159.63l-.46.36c-3.7,2.64-9.6.72-13.19-4.31s-3.51-11.24.2-13.88a6.42,6.42,0,0,1,3.57-1.17C418.89,147.47,422.22,154,425,159.63Z"/><ellipse class="cls-8" cx="354.33" cy="140.62" rx="8.23" ry="11.18" transform="translate(-15.7 232.26) rotate(-35.56)"/></g><ellipse class="cls-8" cx="186" cy="166.8" rx="4.89" ry="2.67" transform="translate(10.57 344.69) rotate(-87.28)"/><ellipse class="cls-8" cx="329.62" cy="169.24" rx="4.89" ry="2.67" transform="translate(144.95 490.47) rotate(-87.28)"/><ellipse class="cls-8" cx="433.51" cy="181.74" rx="2.67" ry="4.89" transform="translate(-32.78 122.32) rotate(-15.48)"/><polygon class="cls-19" points="256.06 153.7 259.95 153.7 258.36 312.21 254.44 310.64 256.06 153.7"/><rect class="cls-20" x="252.87" y="301.26" width="7.06" height="37.44" rx="3.18"/><ellipse class="cls-21" cx="262.17" cy="319.57" rx="0.7" ry="5.33"/><path class="cls-2" d="M251.82,313.31s-2.32-5.1-6.43-3.7,3.29,4.58,3.22,11.32,5.84,5.37,5.84,5.37Z"/><path class="cls-2" d="M210.38,332.12l-17.95,13.26-14.51-6.68s3.91-.57,5.88-3.13c1.42-1.84,1.83-4.72-1-9.15-5.8-9.3,19.83-4.11,19.83-4.11l6,7.63Z"/><path class="cls-22" d="M208.67,329.94a40.67,40.67,0,0,1-19.4,5.89,20.91,20.91,0,0,1-4.89-.17c1.42-1.84,1.69-5.06-1.53-9.24-6.67-8.7,19.83-4.11,19.83-4.11Z"/><path class="cls-2" d="M259.92,326.42l-4.68,21.84a9.42,9.42,0,0,1-12.8,6.72l-17.27-7.12-6-2.48,8.68-13.26,5.41,1.88,10.6,3.7,3.37-7.39,2.48-5.4Z"/><path class="cls-22" d="M233.1,334.32c-.11.34-.22.66-.31,1a31.55,31.55,0,0,1-4,8.6,18.79,18.79,0,0,1-3.35,3.67l-6-2.52,8.25-12.59Z"/><path class="cls-23" d="M214.4,327.27l15.47,4.58h0a17.75,17.75,0,0,1-4.6,11.92l-3.14,3.45Z"/><path class="cls-2" d="M181.46,398.92s5,4.35,2.75,6.61-4.7-.37-4.7-.37-.59,3-4.76,1.14c0,0-2,2.25-5.17-.79s-5.08-10.73-5.08-10.73l-4-3.7s-15.87-15.2-9.62-31.69l8.23-5.93,3.26-2.35,3.34-2.4,14.82,9.8L173,363.28l-7,4.49-2.84,1.81,11.64,23.26h.05l.16,0,.86.16.38.06c2.54.51,7.69,1.77,9.33,4C187.81,400.1,181.46,398.92,181.46,398.92Z"/><path class="cls-22" d="M173.49,362.79l-.82.34-7.07,4.43c-4.1-3.67-5.61-9.15-6.52-13.77l3.26-2.35Z"/><path class="cls-2" d="M231,426c-.12,1.38-.33,3-.64,4.73-.53,3-1.15,5.93-1.82,8.75a169.29,169.29,0,0,1-12.93,35.9l-11.69,3.25,4.53-41.05,1-9.49,5.06-3.35,3.91-2.58S232.56,407.88,231,426Z"/><path class="cls-22" d="M230.63,426c-.12,1.38-.33,3-.64,4.73-.53,3-1.15,5.93-1.83,8.75a91.08,91.08,0,0,1-10.58,0c-2.41-.14-6.67-.4-9.5-1.9l1-9.49,5.06-3.35a28.42,28.42,0,0,1,7.33-.5A32.47,32.47,0,0,1,230.63,426Z"/><path class="cls-2" d="M207.64,437.33q-.85,2.66-1.63,5.22c-6.91,22.47-10.64,40.17-10.64,40.17l-8.92-1.85c-3.82-13.84-2.28-32.61-1.16-41.76.42-3.41.77-5.48.77-5.48S215.59,412.45,207.64,437.33Z"/><path class="cls-22" d="M207.25,436.51c-.56,1.77-1.18,4.38-1.71,6.09a28.68,28.68,0,0,1-5.16.2,34.18,34.18,0,0,1-10.59-1.71,23.07,23.07,0,0,1-4.15-2c.42-3.41.78-5.48.78-5.48S215.2,411.62,207.25,436.51Z"/><polygon class="cls-24" points="234.8 400.76 234 411.76 232.66 430.09 210.47 429.32 210.57 426.46 210.83 419.08 211.25 406.77 211.8 391.08 234.8 400.76"/><path class="cls-25" d="M210.15,427.63c3.09.58,17.47,3,22.85-.52a.58.58,0,0,1,.91.51l-.49,6.92a.57.57,0,0,1-.39.51c-2.28.73-14.69,4.32-24-1.21a.59.59,0,0,1-.28-.58l.74-5.15A.57.57,0,0,1,210.15,427.63Z"/><path class="cls-24" d="M224.28,410.19l-11.37,7.34-.36,1.39-2,7.54-2,7.59-.82.24c-7.82,2.33-24.25-2.48-24.25-2.48l2-15.38,2.09-15.86,23.63,6.21Z"/><path class="cls-26" d="M234.8,400.76l-.8,11a50.54,50.54,0,0,1-21.45,7.16c-.58.06-1.15.12-1.72.16a74.19,74.19,0,0,1-25.3-2.65l2.09-15.86,23.63,6.21.55-15.7Z"/><path class="cls-23" d="M177.37,337.56a3.68,3.68,0,0,1,3.88-.3c4.43,2.31,15.49,6.46,22.54-5,9-14.59,4-10.26,4-10.26l4.15,2.36s23.3,33.55,27.58,76.89c0,0,0,7.66-17.41,12.15-7.86,2-27.69,2.18-38.68-1.77A2.78,2.78,0,0,1,181.6,409l.93-50.36-11.24,9.1-3.72-2.8c-3.1-2.32-5.92-11.56-6.44-15.39h0Z"/><path class="cls-27" d="M226.22,352.45s-5.37,10.12-43.18,14.66l-.18,6.69s34.64-2.34,45.52-15.91Z"/><path class="cls-27" d="M231.59,366.64s-8.39,11-49.05,14.77l-.25,6.32s38.6.27,51-15.59Z"/><path class="cls-2" d="M338.12,346.68l-9.78,4.85-8.4-2.22.92-6.53.69-5,16.11-6a52.81,52.81,0,0,0-.6,9.54A14.06,14.06,0,0,0,338.12,346.68Z"/><path class="cls-22" d="M336.65,341.45a16,16,0,0,1-1.68.46c-3.41.82-9.29,2-13.76.95l.63-5.16,15.82-5.92A40.82,40.82,0,0,0,336.65,341.45Z"/><path class="cls-4" d="M336.27,347.57s3.54-6.27.84-4.81c-16.84,9.12-15.84-1.88-20.68.09-2.7,1.11-5,3.48-6.26,7.86-5.07,17.42-8.41,21.82-8.41,21.82L329,368.86Z"/><path class="cls-28" d="M334.3,346.27l2.25-3.38a1.81,1.81,0,0,1,2.94-.11l15.87,20.33a25.38,25.38,0,0,0-7.12,12.64.41.41,0,0,1-.77.1l-6.36-12.66-.44,16.24-14.55-1.87,6-26.29Z"/><path class="cls-2" d="M320.85,483.41,318,484.54a5,5,0,0,1-6.52-2.73,206.21,206.21,0,0,1-10.41-32q-.86-3.69-1.55-7.52c-4.24-23.53,8.39-9.66,8.39-9.66l10.7,7.46.6,11.86Z"/><path class="cls-22" d="M318.91,451.92a41.58,41.58,0,0,1-16.5-1.65l-1-.33c-.57-2.46-1.19-4.94-1.65-7.49-4.24-23.53,8.14-9.82,8.14-9.82l10.27,7.16Z"/><path class="cls-2" d="M339,485.36a3.6,3.6,0,0,1-2.77,2.67l-2,.41a3.59,3.59,0,0,1-4.3-3.43,152.51,152.51,0,0,0-4.77-33.45q-.92-3.48-2.08-7.07c-6.63-20.44,12.51-3.88,17.3.49a3.57,3.57,0,0,1,1.16,2.42c0,.66.08,1.53.13,2.58C342,457.12,342.13,472.45,339,485.36Z"/><path class="cls-22" d="M341.43,450.06a26.25,26.25,0,0,1-7.26,1.72,39.06,39.06,0,0,1-6.49,0c-.85-.06-1.3-.09-2.15-.19-.81-3.1-1.7-4.73-2.48-7.12-6.63-20.44,12.51-3.88,17.3.49.69.63,1.51.65,1.1,1.49S341.29,448.92,341.43,450.06Z"/><path class="cls-29" d="M331.13,368.22c-21-5.1-26.29-1.54-26.29-1.54s-4.92,4.11-13,43c0,0-6.61,30.1-4.41,31.57,12.58,8.39,47,9.2,56.91,4.78l-3-83.59C341.32,369.48,339.21,370.18,331.13,368.22Z"/><path class="cls-30" d="M339.81,342.31s-10.75,14.9-8.78,28.59h-4.26s1.35-22.39,11.17-30.11Z"/><path class="cls-30" d="M320.88,342.58s-8.37,14.18-8.94,25.92H308s4.32-22.94,11.34-26.45Z"/><ellipse class="cls-31" cx="205.62" cy="348.7" rx="11.44" ry="4.5" transform="translate(-82.74 64.59) rotate(-14.9)"/><path class="cls-32" d="M184.44,427.61c3.92,1.47,15.53,5.29,25,2.87a1.11,1.11,0,0,1,1.38,1.26l-1,5.8a1.13,1.13,0,0,1-.79.88c-3.09.88-16.28,4-26.13-4.14a1.12,1.12,0,0,1-.4-1l.41-4.76A1.11,1.11,0,0,1,184.44,427.61Z"/><path class="cls-3" d="M182.55,359.29c-.9-4.28-2.85-8.64-1.69-12.86"/><path class="cls-33" d="M184.81,449.41s6.36,6.78,17.94,2.92c0,0-5,18.36-7.25,26.91l-6.26,4-4.43-14.06S183.61,456.31,184.81,449.41Z"/><path class="cls-33" d="M207.7,447.74s10.61,5.62,18.46-.63c0,0-5.85,19.77-8.66,21.65s-12-2.1-12-2.1Z"/><path class="cls-34" d="M192.2,490.38c0,3.88-2.44,8.94-14.95,8.92-5.4,0-9.19-3.14-9.19-7s8.19-8.79,13.59-8.79S192.2,486.51,192.2,490.38Z"/><path class="cls-34" d="M194.84,481.1c1.87,4.62,3,13.16-8.37,11.08-5.3-1-10-1.85-10-5.73s5.77-6.61,11.17-6.61S193.71,478.34,194.84,481.1Z"/><path class="cls-35" d="M191.41,481.52h.09a5,5,0,0,0,4.55-2.21h0s1.85,8.41-3.85,11.06-16.08-2.62-16.08-2.62l-2.83-1.61c4.68-2.9,6.33-5.45,8.8-6.85h0l7.7-1.78"/><path class="cls-36" d="M193,490.24c-.4,4.17-9.85,9.18-19.66,6.56-5.45-1.45-6.24-3.87-4.48-7.7,2.29-5,7.22-6.45,11.66-5.66C186.12,484.43,193.44,486.06,193,490.24Z"/><path class="cls-35" d="M181,480s-4.42-13.54,6.64-11.63c14.88,2.57,5.16,13.87,5.16,13.87"/><ellipse class="cls-37" cx="179.79" cy="486.77" rx="5.91" ry="2.71"/><path class="cls-38" d="M180.24,481.84c.71,0,5.12-3.3,10.24,2.53"/><path class="cls-39" d="M180.24,481.84c.44-.18.85-.43,1.3-.62a7.59,7.59,0,0,1,1.4-.44,6,6,0,0,1,2.95.1,7.77,7.77,0,0,1,2.61,1.37,14.39,14.39,0,0,1,1.08,1c.31.37.62.74.9,1.13a20.6,20.6,0,0,0-2.23-1.77,9.28,9.28,0,0,0-2.51-1.18,7,7,0,0,0-2.73-.22A26.26,26.26,0,0,0,180.24,481.84Z"/><path class="cls-38" d="M179,482.69c.71,0,5.13-3.29,10.25,2.53"/><path class="cls-39" d="M179,482.69c.45-.17.86-.43,1.31-.62a8.14,8.14,0,0,1,1.4-.44,6.15,6.15,0,0,1,3,.11,7.38,7.38,0,0,1,2.6,1.37,12.71,12.71,0,0,1,1.08,1c.32.37.62.75.91,1.13a20.61,20.61,0,0,0-2.24-1.76,9.22,9.22,0,0,0-2.5-1.18,6.83,6.83,0,0,0-2.74-.23C180.83,482.14,180,482.5,179,482.69Z"/><path class="cls-39" d="M181,481c.45-.17.86-.43,1.31-.62a8.14,8.14,0,0,1,1.4-.44,5.91,5.91,0,0,1,2.95.11,7.38,7.38,0,0,1,2.6,1.37,11.22,11.22,0,0,1,1.08,1c.32.37.62.74.91,1.13a20.71,20.71,0,0,0-2.24-1.77,9.19,9.19,0,0,0-2.5-1.17,6.83,6.83,0,0,0-2.74-.23A26.84,26.84,0,0,0,181,481Z"/><path class="cls-34" d="M203.38,477.31a4.58,4.58,0,0,0-1,3.58c.4,2,4.78,4.07,4.78,4.07s2.12,8.37,14,9.35c13.59,1.12,9.87-9.8,9.87-9.8Z"/><path class="cls-36" d="M208.19,482.07s-2.34,8.81,12.9,10.75c14.36,1.82,15.67-13.67-2.35-16S208.19,482.07,208.19,482.07Z"/><path class="cls-35" d="M204.38,475.3s-3.3-12,7.94-11.14c14.57,1.09,3.17,11.14,3.17,11.14Z"/><path class="cls-35" d="M216.55,474.26a48.5,48.5,0,0,1,5.56,3.25s-6.41-1.65-13.92,6.71l-4.72-3.77s-2.15-2.4,1-5.68"/><path class="cls-39" d="M220.46,477.05a6.79,6.79,0,0,0-4-.24,7.64,7.64,0,0,0-1.87.73,16.41,16.41,0,0,0-1.75,1.1,6.48,6.48,0,0,1,1.53-1.47,5.74,5.74,0,0,1,2-.9,5.08,5.08,0,0,1,2.16-.07A4.24,4.24,0,0,1,220.46,477.05Z"/><path class="cls-39" d="M218.84,476.15a6.64,6.64,0,0,0-4-.24,8.39,8.39,0,0,0-1.87.72,16.52,16.52,0,0,0-1.75,1.11,6.73,6.73,0,0,1,1.53-1.48,5.94,5.94,0,0,1,2-.9,5.12,5.12,0,0,1,2.17-.06A4.25,4.25,0,0,1,218.84,476.15Z"/><path class="cls-39" d="M217.37,475.44a6.79,6.79,0,0,0-4-.24,8,8,0,0,0-1.87.73,16.41,16.41,0,0,0-1.75,1.1,6.48,6.48,0,0,1,1.53-1.47,5.74,5.74,0,0,1,2-.9,5.12,5.12,0,0,1,2.17-.07A4.25,4.25,0,0,1,217.37,475.44Z"/><ellipse class="cls-37" cx="220.76" cy="480.5" rx="5.88" ry="2.59"/><path class="cls-40" d="M183.52,447.67a.23.23,0,0,0,0,.16c.37.63,3.09,4.81,10,5.54s9.83-1.21,10.34-1.57a.24.24,0,0,0,.1-.14l.83-2.79a.27.27,0,0,0-.32-.34c-2.32.67-12.84,3.2-20.23-3.61a.26.26,0,0,0-.44.16Z"/><path class="cls-40" d="M206.67,446.45a.25.25,0,0,0,0,.17c.33.53,2.46,3.39,10.8,3.44,9.19.05,10.18-3.93,10.18-3.93l.46-1.94a.26.26,0,0,0-.36-.3c-2.38,1-13.08,5.15-20.39-.29a.26.26,0,0,0-.42.18Z"/><path class="cls-41" d="M244.15,337a11.47,11.47,0,0,0-2.29,8.68"/><path class="cls-42" d="M163.36,370a25.88,25.88,0,0,0-2.91-2.63c-1.27-1-2.78-1.85-4.35-1.62"/><path class="cls-2" d="M266.8,315.26c.58,3.61-3.95,2.95-8.83,2.95s-8.83-1.32-8.83-2.95,4-2.94,8.83-2.94S266.54,313.66,266.8,315.26Z"/><path class="cls-2" d="M266.8,320.62c-.21,5.31-3.91,2.4-8.73,2.4s-8.73-1.07-8.73-2.4,3.91-2.41,8.73-2.41S266.85,319.29,266.8,320.62Z"/><path class="cls-2" d="M265.08,325.79c-1.33,4.81-2.5,1.9-7.08,1.9s-7.19-1.3-7.19-2.78,2.05-1.89,6.63-1.89S265.48,324.36,265.08,325.79Z"/><path class="cls-2" d="M262.88,329.77c.11,2.74-2.15,1.43-5.7,1.43s-5.51-1.17-5.51-2.21.9-1.31,4.45-1.31S262.83,328.59,262.88,329.77Z"/><path class="cls-43" d="M149.31,257s-11.72-46,6-43.64c7.08,1,11.14,7.42,12.57,11.06,3.06,7.81-8.9,12.48-12,4.71a18.35,18.35,0,0,1-1.13-4.42c-1.85-13.4-6.24,1.47-4.13,30Z"/><path class="cls-44" d="M229.89,267.22s.13-9.39,6-5.71,8.12,19.89.87,27.55S229.89,267.22,229.89,267.22Z"/><path class="cls-45" d="M230.81,270.29s.18-6.47,4.19-4,5.35,13.6.31,18.94S230.81,270.29,230.81,270.29Z"/><path class="cls-2" d="M219.74,232.63c13.3,28.18,13.23,28.42,18.84,53.51,4.11,18.41-9.6,37.44-24.18,42.85-21.42,8-55.41,3.12-65.31-19.63-7.37-16.94-14.05-24.47-17.75-30.48-11.71-19-2.74-65.57,24.39-74.42C181.1,196.19,205.09,201.59,219.74,232.63Z"/><path class="cls-46" d="M174.47,272.26c-4.7,2-6.35,8.59-3.69,14.69s8.63,9.41,13.32,7.4,6.35-8.59,3.69-14.69S179.17,270.25,174.47,272.26Z"/><path class="cls-47" d="M169.51,280.93c0-3.42,1.39-7,3.87-8.36,4.29-2.3,10.32.08,13.35,5.73,1.49,2.75,3.18,5.47,1.66,10.89,2.6-4.59.63-9.83-2.08-13.61s-7.44-6.57-11.9-4.71C170.55,272.49,168.85,277.51,169.51,280.93Z"/><path class="cls-48" d="M180.42,287.05c3.48.14,6-3,5.7-6.93s-3.42-7.32-6.9-7.46-6,2.95-5.7,6.93S176.94,286.9,180.42,287.05Z"/><path class="cls-49" d="M177.65,286.26a1.52,1.52,0,0,0,1.66-1.47,1.69,1.69,0,0,0-1.47-1.8,1.52,1.52,0,0,0-1.66,1.47A1.7,1.7,0,0,0,177.65,286.26Z"/><path class="cls-50" d="M189,312.11c1.83,1.34,16.7,8.66,26.58,1.2,6.43-4.86,12-19.39,9.13-18.42-7.22,2.42-9.79,2.22-17.54,4.58C198.22,302.19,173.93,301.1,189,312.11Z"/><path class="cls-51" d="M210.33,314.2a13.24,13.24,0,0,1-7.17.47,8.35,8.35,0,0,1,3.93-4.88c2.92-1.65,7.45-2.87,9.95-1.18C215.89,310.92,212.52,313.39,210.33,314.2Z"/><path class="cls-52" d="M188.19,304.43c3.92-1.47,13.77-2.16,19.6-3.52,9.68-2.26,9.25-2.84,13.47-3.57,0,4.31-4.64,7.58-12.79,9.58C199.64,309.09,193.4,307.86,188.19,304.43Z"/><path class="cls-46" d="M213.25,261.34c-4.7,2-6.35,8.59-3.69,14.69s8.63,9.41,13.32,7.4,6.35-8.59,3.69-14.69S217.94,259.33,213.25,261.34Z"/><path class="cls-47" d="M208.28,270c.05-3.42,1.4-7,3.88-8.36,4.29-2.3,10.31.08,13.35,5.73,1.49,2.75,3.18,5.47,1.66,10.89,2.6-4.59.63-9.83-2.08-13.61s-7.44-6.57-11.9-4.71C209.33,261.57,207.62,266.59,208.28,270Z"/><path class="cls-48" d="M219.76,276.06c3.48.15,6-3,5.7-6.93s-3.42-7.31-6.9-7.46-6,3-5.7,6.93S216.28,275.91,219.76,276.06Z"/><path class="cls-49" d="M215.62,275.52a1.71,1.71,0,0,0,1.84-1.48,1.59,1.59,0,0,0-1.53-1.71,1.71,1.71,0,0,0-1.84,1.49A1.58,1.58,0,0,0,215.62,275.52Z"/><path class="cls-2" d="M142.75,297.43c-17-5.51-12,9.18-6.32,16.7,6,8,13.71,7.82,17,2.48"/><path class="cls-22" d="M138.39,311.31c3.43,4,8,5.61,9.12,4,1.22-1.83,0-5.3-2.69-9.41-3.19-4.78-6.25-7.07-8.42-5.22S134.35,306.6,138.39,311.31Z"/><path class="cls-22" d="M200,233.25c-3.11,4.29-7.06,8.19-11.88,10.37-9.42,4.27-16.52,4.17-26.64,1.6,6.32-2.73,14.66-8.35,16.73-12.34-6-2.13-11.5-.61-17.86.15-.46.06-.46.84-.59,1.35-2.42,9.44-13,8.73-14.82,9.67,8.74,1.48,17.1,29.05-9.23,40.35-2.29,1-4.59-4.18-6.15-6.17a20,20,0,0,1-4.17-10.64,27.78,27.78,0,0,0-.51-5.08c-.47-1.72-1.49-3.26-1.9-5-.72-3.06.56-6.18,1.9-9a84.23,84.23,0,0,1,12.9-20.11A47.06,47.06,0,0,1,157.29,215c5.55-1.88,11.45-2.48,17.3-3,8-.65,16.17-1.09,23.94,1.07a74.05,74.05,0,0,1,9.49,3.61,20.12,20.12,0,0,1,5.51,3.12,18.11,18.11,0,0,1,2.95,3.62c7.48,11.19,14.37,27.3,16.64,40.52-5-8-11.46-22.67-16.4-30.63-1-1.6-12.1-7.8-13.27-6.86C202.84,227,200.85,232.06,200,233.25Z"/><path class="cls-53" d="M198.77,222.79s4.53,21.27-36,22.06c0,0,36-21.68-6.27-13.45,0,0,4.67,6-17.1,12.37,0,0,23.76,8.57,1,36.58,0,0-2.78,2.4.87,12,.33.86,1.3,2.64,2.69,5.28,7.31,13.81-5.1-1.54-5.1-1.54s-14,1.27-18.27-15c0,0-15.26-8.45-9.77-25.27,0,0-12.8-17.61,10.74-28.51,0,0,.88-21.39,16.06-24.56,0,0,17.4-20.69,38.45-8,0,0,15.53-9.7,31.47,5.87,0,0,17.39,3.52,16.89,17.22,0,0,14.22,3.5,5.37,16.39,0,0,11.89,5.42,1.89,16.47l1.68,13.73-14.13-31.84S217.9,227.55,198.77,222.79Z"/><path class="cls-54" d="M205.57,245.69h0c.54-1.61,5.06-1.89,6.73-1.45,2.54.67,5.43,1.72,7.79,7.1.2.46.29.85-.12.52-2.37-2-7.42-4.83-12.17-4.37A2,2,0,0,1,205.57,245.69Z"/><path class="cls-54" d="M177.32,251.9h0c-1-1.33-5.41-.1-6.84.88-2.16,1.47-4.54,3.43-5,9.29,0,.5,0,.9.28.45,1.58-2.65,5.39-7,10-8.18A2,2,0,0,0,177.32,251.9Z"/><path class="cls-55" d="M212,286.14a6.16,6.16,0,0,1,.12,4.57,5.29,5.29,0,0,1-1.41,2,7.05,7.05,0,0,1-2.09,1.2,8.67,8.67,0,0,1-4.68.38,4.92,4.92,0,0,1-3.55-2.82,5.49,5.49,0,0,0,3.7,2,9.53,9.53,0,0,0,4.15-.57,5.36,5.36,0,0,0,3.08-2.51A7.6,7.6,0,0,0,212,286.14Z"/><path class="cls-21" d="M313.6,323.21s-8.75-1.36-13.34,4.26C302.6,329,304.9,330.94,313.6,323.21Z"/><path class="cls-1" d="M289.59,281.15c-.81,1-23,39.69,6.29,54.2,28.55,14.13,34.46-6.15,34.24-3.69Z"/><path class="cls-2" d="M290.61,288.39c.05-.17.24.15.09.19s-.28-.12-.36-.27a11,11,0,0,0-3.86-4.2,4.29,4.29,0,0,0-3.73-.69c-1.74.68-2.4,2.94-2.48,4.91a17.62,17.62,0,0,0,2.22,9.1c2.66,4.78,8,8.17,13.08,7.08"/><path class="cls-22" d="M286,290.34a14.94,14.94,0,0,1,1.65,1.72c.4.5.8,1.24.48,1.81s-.91.53-1.13,1.05a1.15,1.15,0,0,0,.65,1.37c.47.21,1,.18,1.46.36a2.25,2.25,0,0,1,1.31,1.76,1.88,1.88,0,0,1,0,.85,1.29,1.29,0,0,1-1.55.83A3.58,3.58,0,0,1,287.3,299a15.26,15.26,0,0,1-2.8-3.59C283.38,293.27,282.2,286.87,286,290.34Z"/><path class="cls-56" d="M292.67,301.57s4.18,6.56.78,8.68-3.68-6.29-3.68-6.29,2.12,6.63,2.51,2.12Z"/><path class="cls-2" d="M285.88,270.31c.35.71,1.8,24.68,1.91,36,.13,13.22,12.76,30.24,27.93,32.32,18.61,2.54,36.14-2.16,45.92-15.78s10.3-33.91,10.3-33.91S389,270,373,251,336.37,222.79,308.22,227,285.88,270.31,285.88,270.31Z"/><path class="cls-22" d="M357.34,272.72c-.88-.53-19-20-19-20s8.71,11.9,3.56,10.64c-1.44-.35-13.58-7.44-17.28-13.2,0,0,1.12,8.61,5.52,10.46,0,0-19.1.27-23.93-14.86,0,0,1.81,8-13.07,13.66-11.55,4.42-6.43,18.91-6.43,18.91l-1.31-30.09,13.76-11.93h31l24.58,9.45,7.57,21.44,9.67,21.68Z"/><path class="cls-1" d="M286.9,283.73c0-4.26,1.44-16.85,4-20.25,5.18-6.84,10.9-7.48,14.52-9.73,2.31-1.43,2.55-8.76,4.63-10.52s-.61,2.84,0,0c.87,4.47,0,7.3,3.72,9.86s7.4,3.7,11.83,4.73c-1.83-2.16-3.62-4.48-4.34-7.22-.8-3-.23-6.23-.27-9.37a49.3,49.3,0,0,0,22.05,20.82,22.83,22.83,0,0,1-5.41-14.13,7.63,7.63,0,0,1,3.32,2.85,143.7,143.7,0,0,0,17,19.24c.22-1.22,1-2.2,1.22-3.42,2.15,8.61,13,25.3,12.95,24.8,0,0,.13,34.84-28.88,45-1,.39,7.31,8.73,23.6,5.25,15.46-3.31,27.47-15.34,21.66-41.57s1.49-40.43-4.41-56.41c-7-19-34.58-44.37-83.53-19.59,0,0-22.8,6.2-17.18,48.91C283.37,272.94,286.89,285.09,286.9,283.73Z"/><path class="cls-57" d="M305.42,267.32s-7.56-2.46-11.84,2.86a.26.26,0,0,1-.46-.21c.29-1.74,1.49-5.25,6.39-5.7C307.24,263.55,305.42,267.32,305.42,267.32Z"/><path class="cls-57" d="M335.38,268.91s8.85-.72,12.52,5.45c.15.25.55.18.55-.1,0-1.77-.61-5.48-5.93-7C334.11,264.81,335.38,268.91,335.38,268.91Z"/><path class="cls-57" d="M313.62,290.18a7.47,7.47,0,0,1,.33,6,8.26,8.26,0,0,1-1.68,2.63c-.38.39-.7.75-1,1.12a4.41,4.41,0,0,0-.7,1.25,3,3,0,0,0,.3,2.69,4.24,4.24,0,0,0,2.29,1.65,7.05,7.05,0,0,0,2.93.27,10.65,10.65,0,0,0,2.91-.74h0a3.34,3.34,0,0,0,1.81-.54,1.24,1.24,0,0,0,.48-.79,2,2,0,0,0-.1-1,2.14,2.14,0,0,1,.2,1,1.4,1.4,0,0,1-.47.9,3.39,3.39,0,0,1-1.9.71h0a11,11,0,0,1-3,.89A6.79,6.79,0,0,1,313,306a4.79,4.79,0,0,1-2.59-1.83A3.47,3.47,0,0,1,310,301a4.83,4.83,0,0,1,.81-1.39c.36-.4.72-.79,1.06-1.13a8.62,8.62,0,0,0,1.68-2.45A7.8,7.8,0,0,0,313.62,290.18Z"/><path class="cls-58" d="M294.65,227a52.61,52.61,0,0,1,20-3.95c32.67,0,59.14,30.06,59.14,67.15,0,.72,0,1.43,0,2.14,1.15-.25,2.32-.45,3.5-.6.05-1,.07-2.09.07-3.14,0-37.09-26.47-67.15-59.13-67.15A52.8,52.8,0,0,0,294.65,227Z"/><path class="cls-59" d="M371.79,292.93c-.06-.16-.29.15-.11.2s.33-.13.43-.28a11.92,11.92,0,0,1,4.59-4.19,5.87,5.87,0,0,1,4.42-.7c2.07.68,2.86,2.94,2.95,4.92a15.34,15.34,0,0,1-2.64,9.09c-3.16,4.79-9.46,8.17-15.54,7.09"/><path class="cls-60" d="M371.79,292.93c-.08-.13-.23.11-.14.17s.22,0,.3-.08a5.87,5.87,0,0,0,.39-.58,10.75,10.75,0,0,1,.86-1.15,12.52,12.52,0,0,1,2.1-2,11.53,11.53,0,0,1,2.54-1.37,5.49,5.49,0,0,1,2.9-.33,3.86,3.86,0,0,1,2.46,1.62,6.42,6.42,0,0,1,1,2.74,14.11,14.11,0,0,1-.52,5.75,16.35,16.35,0,0,1-6.86,9,17,17,0,0,1-5.28,2.22,14.54,14.54,0,0,1-5.69.07,15.49,15.49,0,0,0,10.74-2.65,17.59,17.59,0,0,0,4.06-3.83,16.13,16.13,0,0,0,2.5-5,13.75,13.75,0,0,0,.55-5.51,6,6,0,0,0-.93-2.55,3.56,3.56,0,0,0-2.16-1.47c-1.8-.36-3.65.5-5.19,1.51a11.66,11.66,0,0,0-2.16,1.81,10.41,10.41,0,0,0-.9,1.09,4.83,4.83,0,0,1-.43.58.27.27,0,0,1-.34.06C371.55,293,371.71,292.79,371.79,292.93Z"/><path class="cls-22" d="M377.22,294.88a18.83,18.83,0,0,0-2,1.73c-.48.49-.95,1.23-.58,1.8s1.09.54,1.35,1.06-.22,1.15-.77,1.37-1.17.17-1.74.35A2.39,2.39,0,0,0,372,303a1.42,1.42,0,0,0,1.89,1.67,4.52,4.52,0,0,0,1.87-1.1,16.44,16.44,0,0,0,3.32-3.6C380.38,297.81,381.78,291.42,377.22,294.88Z"/><path class="cls-61" d="M369.34,306.12s-5,6.56-.92,8.67,4.36-6.28,4.36-6.28-2.51,6.62-3,2.11Z"/><path class="cls-62" d="M332.35,310.85a10.31,10.31,0,0,0,1.76-1,4.16,4.16,0,0,1,1.92-.5c.87,0,1.89.43,2,1.29a1.88,1.88,0,0,1-1,1.67,5.18,5.18,0,0,1-3.39.79,1.59,1.59,0,0,1-1.32-.69c-.24-.46.14-1.19.64-1.05"/><path class="cls-62" d="M304.08,309.69a6.76,6.76,0,0,0-1.28-1.39,2.57,2.57,0,0,0-1.06-.58,1.86,1.86,0,0,0-2,1.13,2.58,2.58,0,0,0,.29,2.36,4.35,4.35,0,0,0,1.91,1.53,3,3,0,0,0,1.6.31,1.42,1.42,0,0,0,1.21-1,1.49,1.49,0,0,0-.58-1.45,4.34,4.34,0,0,0-1.49-.7"/><path class="cls-63" d="M334.54,311.63s1.1-1.21-.73-.73c-2.51.66-9.24,4.09-18.94,2.64-7.45-1.11-11.4-3.28-12.83-4.22a.31.31,0,0,0-.48.33c.5,2.23,3,9.59,9.48,13.33a13,13,0,0,0,11.41.52C326.26,321.68,329.68,319,334.54,311.63Z"/><path class="cls-52" d="M330.58,313c-.2.06-11.22,5.87-25.15-1.12,0,0,1.65,5.32,10.29,6.64A15.58,15.58,0,0,0,330.58,313Z"/><path class="cls-51" d="M316.71,323.49a8.47,8.47,0,0,0,5.59-1.58c-.85-1.15-1.77-1.38-3.55-2-2.55-.83-6,.46-7.63,1.56C312.41,322.81,313.88,323.13,316.71,323.49Z"/><path class="cls-64" d="M369.26,247.91s16,8.21,7,14-19.48,4.79-13.61-11.77c3.68-10.41-2.28-4-2.28-4s-18.48-13.63-.27-17.4c16.83-3.49,6.25,13.77,6.25,13.77S371.81,241.32,369.26,247.91Z"/><ellipse class="cls-65" cx="366.01" cy="230.49" rx="1.38" ry="1.61" transform="translate(83.11 557.68) rotate(-81.35)"/><ellipse class="cls-65" cx="374.83" cy="254.71" rx="1.38" ry="1.61" transform="translate(66.65 586.97) rotate(-81.35)"/><ellipse class="cls-65" cx="375.63" cy="259.58" rx="1.38" ry="1.61" transform="translate(62.52 591.9) rotate(-81.35)"/><ellipse class="cls-65" cx="369.48" cy="256.1" rx="1.38" ry="1.61" transform="translate(60.73 582.87) rotate(-81.35)"/><ellipse class="cls-65" cx="365.26" cy="252.86" rx="1.38" ry="1.61" transform="translate(60.35 575.95) rotate(-81.35)"/><ellipse class="cls-65" cx="364.19" cy="259.17" rx="1.38" ry="1.61" transform="translate(53.2 580.25) rotate(-81.35)"/><ellipse class="cls-65" cx="369.64" cy="261.54" rx="1.38" ry="1.61" transform="translate(55.49 587.64) rotate(-81.35)"/><ellipse class="cls-65" cx="370.28" cy="251.4" rx="1.38" ry="1.61" transform="translate(66.06 579.66) rotate(-81.35)"/><ellipse class="cls-65" cx="367.2" cy="236.42" rx="1.38" ry="1.61" transform="translate(78.24 563.89) rotate(-81.35)"/><ellipse class="cls-65" cx="356.27" cy="234.01" rx="1.38" ry="1.61" transform="translate(71.35 551.04) rotate(-81.35)"/><ellipse class="cls-65" cx="359.91" cy="230.1" rx="1.38" ry="1.61" transform="translate(78.3 551.31) rotate(-81.35)"/><ellipse class="cls-65" cx="362.21" cy="234.92" rx="1.38" ry="1.61" transform="translate(75.5 557.69) rotate(-81.35)"/><ellipse class="cls-65" cx="363.84" cy="239.58" rx="1.38" ry="1.61" transform="matrix(0.15, -0.99, 0.99, 0.15, 72.27, 563.25)"/><ellipse class="cls-65" cx="358.38" cy="239.1" rx="1.38" ry="1.61" transform="translate(68.1 557.45) rotate(-81.35)"/><ellipse class="cls-65" cx="360.91" cy="242.56" rx="1.38" ry="1.61" transform="translate(66.84 562.89) rotate(-81.35)"/><ellipse class="cls-64" cx="365" cy="246.42" rx="4.96" ry="3.71" transform="matrix(0.92, -0.39, 0.39, 0.92, -67.03, 160.98)"/><circle class="cls-62" cx="301.35" cy="284.95" r="10.44"/><ellipse class="cls-62" cx="337.55" cy="286.12" rx="10.9" ry="10.44"/><path class="cls-66" d="M292.15,283.18a9.81,9.81,0,0,0,6.56,12.24c5.19,1.57,10.18.26,11.75-4.93s-.87-12.29-6.06-13.87A9.83,9.83,0,0,0,292.15,283.18Z"/><circle class="cls-48" cx="302.19" cy="282.59" r="6.1"/><circle class="cls-49" cx="300.26" cy="285.38" r="1.69"/><path class="cls-66" d="M347.24,287.17a9.82,9.82,0,0,1-9.82,9.82c-5.42,0-9.82-2.7-9.82-8.13s4.4-11.51,9.82-11.51A9.82,9.82,0,0,1,347.24,287.17Z"/><circle class="cls-48" cx="338.03" cy="283.69" r="6.1"/><circle class="cls-49" cx="335.39" cy="286.49" r="1.69"/><ellipse class="cls-67" cx="333.25" cy="374.59" rx="1.93" ry="1.89"/><ellipse class="cls-67" cx="325.51" cy="374.59" rx="1.93" ry="1.89"/><ellipse class="cls-67" cx="322.02" cy="370.54" rx="1.93" ry="1.89"/><ellipse class="cls-67" cx="321.67" cy="380.03" rx="1.93" ry="1.89"/><ellipse class="cls-67" cx="316.67" cy="374.59" rx="1.93" ry="1.89"/><ellipse class="cls-67" cx="308.87" cy="374.72" rx="1.93" ry="1.89"/><ellipse class="cls-67" cx="306.44" cy="370.54" rx="1.93" ry="1.89"/><ellipse class="cls-67" cx="304.78" cy="381.91" rx="1.93" ry="1.89"/><ellipse class="cls-67" cx="313.35" cy="380.66" rx="1.93" ry="1.89"/><ellipse class="cls-67" cx="335.46" cy="384.64" rx="1.93" ry="1.89"/><ellipse class="cls-67" cx="326.61" cy="384.64" rx="1.93" ry="1.89"/><ellipse class="cls-67" cx="317.77" cy="384.64" rx="1.93" ry="1.89"/><ellipse class="cls-67" cx="309.21" cy="386.22" rx="1.93" ry="1.89"/><ellipse class="cls-67" cx="300.26" cy="386.22" rx="1.93" ry="1.89"/><ellipse class="cls-67" cx="315.28" cy="369.02" rx="1.93" ry="1.89"/><ellipse class="cls-67" cx="303.4" cy="376.6" rx="1.93" ry="1.89"/><ellipse class="cls-67" cx="338.77" cy="378.78" rx="1.93" ry="1.89"/><ellipse class="cls-67" cx="338.77" cy="372.83" rx="1.93" ry="1.89"/><ellipse class="cls-67" cx="303.4" cy="390.5" rx="1.93" ry="1.89"/><ellipse class="cls-67" cx="313.35" cy="390.5" rx="1.93" ry="1.89"/><ellipse class="cls-67" cx="322.19" cy="390.5" rx="1.93" ry="1.89"/><ellipse class="cls-67" cx="331.04" cy="390.5" rx="1.93" ry="1.89"/><ellipse class="cls-67" cx="337.67" cy="395.95" rx="1.93" ry="1.89"/><ellipse class="cls-67" cx="326.61" cy="395.53" rx="1.93" ry="1.89"/><ellipse class="cls-67" cx="317.77" cy="395.53" rx="1.93" ry="1.89"/><ellipse class="cls-67" cx="307.82" cy="395.53" rx="1.93" ry="1.89"/><ellipse class="cls-67" cx="299.26" cy="394.27" rx="1.93" ry="1.89"/><ellipse class="cls-67" cx="302.3" cy="400.56" rx="1.93" ry="1.89"/><ellipse class="cls-67" cx="312.24" cy="400.56" rx="1.93" ry="1.89"/><ellipse class="cls-67" cx="322.19" cy="400.56" rx="1.93" ry="1.89"/><ellipse class="cls-67" cx="332.14" cy="400.56" rx="1.93" ry="1.89"/><ellipse class="cls-67" cx="327.72" cy="405.59" rx="1.93" ry="1.89"/><ellipse class="cls-67" cx="316.67" cy="405.59" rx="1.93" ry="1.89"/><ellipse class="cls-67" cx="306.72" cy="405.59" rx="1.93" ry="1.89"/><ellipse class="cls-67" cx="297.17" cy="404.33" rx="1.93" ry="1.89"/><ellipse class="cls-67" cx="301.19" cy="410.61" rx="1.93" ry="1.89"/><ellipse class="cls-67" cx="294.56" cy="409.36" rx="1.93" ry="1.89"/><ellipse class="cls-67" cx="311.14" cy="410.61" rx="1.93" ry="1.89"/><ellipse class="cls-67" cx="322.19" cy="410.61" rx="1.93" ry="1.89"/><ellipse class="cls-67" cx="305.61" cy="416.48" rx="1.93" ry="1.89"/><ellipse class="cls-67" cx="297" cy="416.48" rx="1.93" ry="1.89"/><ellipse class="cls-67" cx="292.66" cy="420.26" rx="1.93" ry="1.89"/><ellipse class="cls-67" cx="298.76" cy="422.34" rx="1.93" ry="1.89"/><ellipse class="cls-67" cx="311.14" cy="422.34" rx="1.93" ry="1.89"/><ellipse class="cls-67" cx="321.09" cy="422.34" rx="1.93" ry="1.89"/><ellipse class="cls-67" cx="333.25" cy="422.34" rx="1.93" ry="1.89"/><ellipse class="cls-67" cx="339.88" cy="427.37" rx="1.93" ry="1.89"/><ellipse class="cls-67" cx="327.72" cy="427.37" rx="1.93" ry="1.89"/><ellipse class="cls-67" cx="315.56" cy="427.37" rx="1.93" ry="1.89"/><ellipse class="cls-67" cx="304.51" cy="427.37" rx="1.93" ry="1.89"/><ellipse class="cls-67" cx="294.56" cy="427.37" rx="1.93" ry="1.89"/><ellipse class="cls-67" cx="298.98" cy="432.39" rx="1.93" ry="1.89"/><ellipse class="cls-67" cx="306.44" cy="434.28" rx="1.93" ry="1.89"/><ellipse class="cls-67" cx="321.09" cy="432.39" rx="1.93" ry="1.89"/><ellipse class="cls-67" cx="334.08" cy="432.39" rx="1.93" ry="1.89"/><ellipse class="cls-67" cx="339.88" cy="437.42" rx="1.93" ry="1.89"/><ellipse class="cls-67" cx="328.42" cy="437.42" rx="1.93" ry="1.89"/><ellipse class="cls-67" cx="326.61" cy="445.3" rx="1.93" ry="1.89"/><ellipse class="cls-67" cx="314.73" cy="435.54" rx="1.93" ry="1.89"/><ellipse class="cls-67" cx="306.17" cy="441.82" rx="1.93" ry="1.89"/><ellipse class="cls-67" cx="292.55" cy="434.28" rx="1.93" ry="1.89"/><ellipse class="cls-67" cx="290.62" cy="439.93" rx="1.93" ry="1.89"/><ellipse class="cls-67" cx="298.76" cy="439.93" rx="1.93" ry="1.89"/><ellipse class="cls-67" cx="321.09" cy="438.75" rx="1.93" ry="1.89"/><ellipse class="cls-67" cx="316.67" cy="444.33" rx="1.93" ry="1.89"/><ellipse class="cls-67" cx="335.18" cy="442.45" rx="1.93" ry="1.89"/><ellipse class="cls-67" cx="333.25" cy="410.61" rx="1.93" ry="1.89"/><ellipse class="cls-67" cx="316.67" cy="416.48" rx="1.93" ry="1.89"/><ellipse class="cls-67" cx="327.72" cy="416.48" rx="1.93" ry="1.89"/><ellipse class="cls-67" cx="338.77" cy="415.87" rx="1.93" ry="1.89"/><ellipse class="cls-67" cx="338.77" cy="405.59" rx="1.93" ry="1.89"/><ellipse class="cls-67" cx="329.93" cy="379.61" rx="1.93" ry="1.89"/><ellipse class="cls-67" cx="337.94" cy="390.5" rx="1.93" ry="1.89"/><path class="cls-60" d="M341,364.86a42.12,42.12,0,0,1-.31-5.09,39.75,39.75,0,0,1,.18-5.09,15.24,15.24,0,0,1,.13,10.18Z"/><path class="cls-2" d="M381.32,363c.31.23,6.7-4.4,7.95-3,1.5,1.65-5.81,4.45-9.42,5.31"/><path class="cls-2" d="M372.78,365.23c-1.95-.3-14.2,19-18.36,18.33,0,0-2.42-1.24-5.21-7.41a4,4,0,0,1-.2-.5c-2.19-6,4.94-11.84,4.94-11.84l1.86,2,2.1,2.2c4.58-2.74,10.68-8.71,14-13.35.31-.42.43-1,.85-1.22,3.88-1.87,6.37-4.95,6.69-2.59.37,2.77-6,5.92-3.33,5.5,1.82-.28,4.34-2.76,5.56,2.64C383.38,366.4,378.34,366.07,372.78,365.23Z"/><path class="cls-3" d="M375.58,355.92a4.88,4.88,0,0,1,1.32,3.18,14.27,14.27,0,0,1-.32,3.5"/><path class="cls-2" d="M378.89,355.27c.31.23,7.23-1.69,9.09-1.69s-3.08,3.1-6.69,4"/><path class="cls-2" d="M382.49,359c.31.23,6.57-3.1,7.95-1.84,1.87,1.73-4.59,4.43-8.2,5.29"/><path class="cls-2" d="M381.08,358.09c.31.23,8.16-4.47,9.69-3.41s-5.13,4.23-8.74,5.09"/><path class="cls-22" d="M355.81,366.26c-.14.13-.28.26-.41.4a26.55,26.55,0,0,0-4.84,6.27c-.57,1.05-.72,1.87-1.2,2.95-2.2-6,4.59-11.58,4.59-11.58Z"/><path class="cls-60" d="M359.05,367.5a4.67,4.67,0,0,0-1.85,1.27,22.33,22.33,0,0,0-1.69,1.68,6.73,6.73,0,0,0-1.87,4.27,6.8,6.8,0,0,1,1.66-4.44,21.24,21.24,0,0,1,1.61-1.81,5,5,0,0,1,2-1.51Z"/><path class="cls-20" d="M254.46,353.66a11.42,11.42,0,0,1-5.89,1,12.63,12.63,0,0,1-9.7-5.11c-1.37-2.09-2.86-5.43-.46-7.34a3.66,3.66,0,0,1,3.89-.31c2.88,1.43.57,6.12,5.58,6.49s5.47-4.8,5.24-7.41a38.66,38.66,0,0,1-.21-4.56,19.61,19.61,0,0,1,.15-3.24,4.16,4.16,0,0,1,.17-.63,1.79,1.79,0,0,1,1.35-1.35l.17,0a6,6,0,0,1,3.66.31,2.77,2.77,0,0,1,.52.38,2.59,2.59,0,0,1,.65,1,3.48,3.48,0,0,1,.19.65,15.83,15.83,0,0,1,0,3.07c0,1.55,0,3.11,0,4.66,0,.73,0,1.47-.05,2.21C259.6,347.28,258.75,351.56,254.46,353.66Z"/></g></svg>