<svg id="Layer_1" data-name="Layer 1" xmlns="http://www.w3.org/2000/svg" xmlns:xlink="http://www.w3.org/1999/xlink" viewBox="0 0 799.23 453.42"><defs><style>.cls-1,.cls-37,.cls-39,.cls-42,.cls-47{fill:none;}.cls-2{clip-path:url(#clip-path);}.cls-3{fill:url(#linear-gradient);}.cls-4{clip-path:url(#clip-path-2);}.cls-5{fill:url(#linear-gradient-2);}.cls-6{clip-path:url(#clip-path-3);}.cls-7{fill:url(#linear-gradient-3);}.cls-8{clip-path:url(#clip-path-4);}.cls-9{fill:url(#linear-gradient-4);}.cls-10{clip-path:url(#clip-path-5);}.cls-11{fill:url(#linear-gradient-5);}.cls-12{clip-path:url(#clip-path-6);}.cls-13{fill:url(#linear-gradient-6);}.cls-14{clip-path:url(#clip-path-7);}.cls-15{fill:url(#linear-gradient-7);}.cls-16{clip-path:url(#clip-path-8);}.cls-17{fill:url(#linear-gradient-8);}.cls-18{clip-path:url(#clip-path-9);}.cls-19{fill:url(#linear-gradient-9);}.cls-20{fill:#a27cb7;stroke:#182953;}.cls-20,.cls-37,.cls-39,.cls-42,.cls-43,.cls-47,.cls-55,.cls-69{stroke-miterlimit:10;}.cls-21{clip-path:url(#clip-path-10);}.cls-22{fill:url(#linear-gradient-10);}.cls-23{fill:#b69330;}.cls-24{clip-path:url(#clip-path-11);}.cls-25{fill:url(#linear-gradient-11);}.cls-26{clip-path:url(#clip-path-12);}.cls-27{fill:url(#linear-gradient-12);}.cls-28{fill:#34582a;}.cls-29{clip-path:url(#clip-path-13);}.cls-30{fill:url(#linear-gradient-13);}.cls-31{fill:#ee3646;}.cls-32{fill:#ee4b62;}.cls-33{fill:#a0cb3a;}.cls-34{fill:#493119;}.cls-35{fill:#f5f9ec;}.cls-36{fill:#d68f7e;}.cls-37{stroke:#49201a;}.cls-38{fill:#dfb4a1;}.cls-39,.cls-42{stroke:#554531;}.cls-39{stroke-width:2px;}.cls-40{fill:#df966a;}.cls-41,.cls-55{fill:#f0bba3;}.cls-43{fill:#5e1210;stroke:#323232;}.cls-44{fill:#701b15;}.cls-45{fill:#89653a;}.cls-46{fill:#fffafc;}.cls-47{stroke:#5a5257;}.cls-48{fill:#4f302a;}.cls-49{fill:#4f2b22;}.cls-50{fill:#934638;}.cls-51{fill:#f4a992;}.cls-52{fill:#d47369;}.cls-53{fill:#b1b955;}.cls-54{fill:#f5f9eb;}.cls-55{stroke:#934921;}.cls-56{clip-path:url(#clip-path-14);}.cls-57{fill:url(#linear-gradient-14);}.cls-58{clip-path:url(#clip-path-15);}.cls-59{fill:url(#linear-gradient-15);}.cls-60{clip-path:url(#clip-path-16);}.cls-61{fill:url(#linear-gradient-16);}.cls-62{clip-path:url(#clip-path-17);}.cls-63{fill:url(#linear-gradient-17);}.cls-64{clip-path:url(#clip-path-18);}.cls-65{fill:url(#linear-gradient-18);}.cls-66{clip-path:url(#clip-path-19);}.cls-67{fill:url(#linear-gradient-19);}.cls-68{fill:#2e241e;}.cls-69{fill:#513227;stroke:#2a150b;}.cls-70{fill:#bcc0bc;opacity:0.5;}.cls-71{clip-path:url(#clip-path-20);}.cls-72{fill:url(#linear-gradient-20);}.cls-73{clip-path:url(#clip-path-21);}.cls-74{fill:url(#linear-gradient-21);}.cls-75{clip-path:url(#clip-path-22);}.cls-76{fill:url(#linear-gradient-22);}.cls-77{clip-path:url(#clip-path-23);}.cls-78{fill:url(#linear-gradient-23);}.cls-79{clip-path:url(#clip-path-24);}.cls-80{fill:url(#linear-gradient-24);}.cls-81{clip-path:url(#clip-path-25);}.cls-82{fill:url(#linear-gradient-25);}.cls-83{clip-path:url(#clip-path-26);}.cls-84{fill:url(#linear-gradient-26);}.cls-85{clip-path:url(#clip-path-27);}.cls-86{fill:url(#linear-gradient-27);}.cls-87{clip-path:url(#clip-path-28);}.cls-88{fill:url(#linear-gradient-28);}.cls-89{clip-path:url(#clip-path-29);}.cls-90{fill:url(#linear-gradient-29);}</style><clipPath id="clip-path" transform="translate(-1761.46 -3045.89)"><polygon class="cls-1" points="2524 3374.51 2519.39 3369.32 2511.05 3260.06 2519.15 3261.49 2524 3374.51"/></clipPath><linearGradient id="linear-gradient" x1="1374.94" y1="2086.11" x2="1375.57" y2="2086.11" gradientTransform="matrix(20.82, 0, 0, -20.82, -27881.58, 43711.61)" gradientUnits="userSpaceOnUse"><stop offset="0" stop-color="#5a2621"/><stop offset="1" stop-color="#75262a"/></linearGradient><clipPath id="clip-path-2" transform="translate(-1761.46 -3045.89)"><polygon class="cls-1" points="2532.71 3256.97 2532.71 3374.51 2524 3374.51 2517.64 3262.18 2532.71 3256.97"/></clipPath><linearGradient id="linear-gradient-2" x1="1373.24" y1="2095.21" x2="1373.86" y2="2095.21" gradientTransform="matrix(24.24, 0, 0, -24.24, -32524.64, 51047.84)" gradientUnits="userSpaceOnUse"><stop offset="0" stop-color="#88311c"/><stop offset="1" stop-color="#8d392a"/></linearGradient><clipPath id="clip-path-3" transform="translate(-1761.46 -3045.89)"><polygon class="cls-1" points="2478.09 3347.14 2473.49 3341.95 2465.15 3260.06 2473.24 3261.49 2478.09 3347.14"/></clipPath><linearGradient id="linear-gradient-3" x1="1376.29" y1="2085.38" x2="1376.91" y2="2085.38" gradientTransform="matrix(20.82, 0, 0, -20.82, -27955.58, 43682.61)" xlink:href="#linear-gradient"/><clipPath id="clip-path-4" transform="translate(-1761.46 -3045.89)"><polygon class="cls-1" points="2486.69 3229.41 2486.69 3346.94 2477.99 3346.94 2471.62 3234.61 2486.69 3229.41"/></clipPath><linearGradient id="linear-gradient-4" x1="1374.39" y1="2094.24" x2="1375.01" y2="2094.24" gradientTransform="matrix(24.24, 0, 0, -24.24, -32598.64, 50996.84)" xlink:href="#linear-gradient-2"/><clipPath id="clip-path-5" transform="translate(-1761.46 -3045.89)"><polygon class="cls-1" points="2187.83 3385.7 2192.24 3380.51 2200.23 3271.25 2192.48 3272.69 2187.83 3385.7"/></clipPath><linearGradient id="linear-gradient-5" x1="1343.09" y1="2086.44" x2="1343.71" y2="2086.44" gradientTransform="translate(27212.27 43729.61) rotate(180) scale(19.93 20.82)" xlink:href="#linear-gradient"/><clipPath id="clip-path-6" transform="translate(-1761.46 -3045.89)"><polygon class="cls-1" points="2179.5 3268.17 2179.5 3385.7 2187.83 3385.7 2193.92 3273.37 2179.5 3268.17"/></clipPath><linearGradient id="linear-gradient-6" x1="1345.87" y1="2095.49" x2="1346.49" y2="2095.49" gradientTransform="translate(31657.06 51065.84) rotate(180) scale(23.2 24.24)" xlink:href="#linear-gradient-2"/><clipPath id="clip-path-7" transform="translate(-1761.46 -3045.89)"><polygon class="cls-1" points="2231.88 3353.98 2236.3 3348.79 2244.28 3266.9 2236.53 3268.34 2231.88 3353.98"/></clipPath><linearGradient id="linear-gradient-7" x1="1344.43" y1="2085.91" x2="1345.05" y2="2085.91" gradientTransform="translate(27283.11 43700.61) rotate(180) scale(19.93 20.82)" xlink:href="#linear-gradient"/><clipPath id="clip-path-8" transform="translate(-1761.46 -3045.89)"><polygon class="cls-1" points="2223.55 3236.45 2223.55 3353.98 2231.88 3353.98 2237.97 3241.66 2223.55 3236.45"/></clipPath><linearGradient id="linear-gradient-8" x1="1347.02" y1="2094.69" x2="1347.64" y2="2094.69" gradientTransform="translate(31727.9 51014.84) rotate(180) scale(23.2 24.24)" xlink:href="#linear-gradient-2"/><clipPath id="clip-path-9" transform="translate(-1761.46 -3045.89)"><polygon class="cls-1" points="2102.39 3263.19 2105.5 3273.77 2560.69 3268.17 2560.69 3258.84 2102.39 3263.19"/></clipPath><linearGradient id="linear-gradient-9" x1="1306.39" y1="2136.96" x2="1307.01" y2="2136.96" gradientTransform="matrix(0, -24, -24, 0, 51857.04, 31581.22)" gradientUnits="userSpaceOnUse"><stop offset="0" stop-color="#bf5327"/><stop offset="1" stop-color="#b23c29"/></linearGradient><clipPath id="clip-path-10" transform="translate(-1761.46 -3045.89)"><polygon class="cls-1" points="2167.68 3234.84 2102.39 3263.44 2560.69 3259.09 2501.61 3228.61 2167.68 3234.84"/></clipPath><linearGradient id="linear-gradient-10" x1="1339.19" y1="2144.98" x2="1339.81" y2="2144.98" gradientTransform="matrix(0, -56, -56, 0, 120689.04, 75212.22)" gradientUnits="userSpaceOnUse"><stop offset="0" stop-color="#ffcf22"/><stop offset="1" stop-color="#eca224"/></linearGradient><clipPath id="clip-path-11" transform="translate(-1761.46 -3045.89)"><path class="cls-1" d="M2434.87,3212.48c0,21.47,18.07,38.88,40.37,38.88s40.37-17.41,40.37-38.88-18.07-38.88-40.37-38.88-40.37,17.41-40.37,38.88"/></clipPath><linearGradient id="linear-gradient-11" x1="1368.89" y1="2142.9" x2="1369.38" y2="2142.9" gradientTransform="matrix(167.22, 0, 0, -161.03, -228234.19, 345234.06)" gradientUnits="userSpaceOnUse"><stop offset="0" stop-color="#50b748"/><stop offset="0.15" stop-color="#50b748"/><stop offset="0.47" stop-color="#4dae47"/><stop offset="0.97" stop-color="#469744"/><stop offset="1" stop-color="#459544"/></linearGradient><clipPath id="clip-path-12" transform="translate(-1761.46 -3045.89)"><path class="cls-1" d="M2466.52,3249.91a1.7,1.7,0,0,1-.11-.43,4.54,4.54,0,0,1,.61-1.06c.53-.49,1-1.31,1.28-1.58,2.63-2.41,6-2.92,7.14-6.67.56-1.78,1.43-3.62,1.83-5.43.44-2-.28-3.35-1.35-5.07-1.54-2.47,2.22-4.27,3.4-5.8,1.48-1.9,1.65-4.19,2.42-6.4a30,30,0,0,0,1.66-5.7,9.7,9.7,0,0,0-.24-2.89,5.78,5.78,0,0,1,.76-4.5,8.26,8.26,0,0,0,1.51-4.34,6.22,6.22,0,0,1,1.36-4.37,4.91,4.91,0,0,0,1-2.06,11.24,11.24,0,0,0,0-5c-.41-1.34-1-2.56-.78-4a2.94,2.94,0,0,0,0-1.4c.47.37.93.77,1.38,1.16.11.24.24.48.38.72.29.48.64.79.92,1.18a17.77,17.77,0,0,0,.55,2,2.13,2.13,0,0,0,.14.58,2.19,2.19,0,0,0,.25.48,49.12,49.12,0,0,0,2.15,4.49c1.83,3.53-.86,6.22-.84,9.79,0,1.72.29,3.41.47,5.12a55.66,55.66,0,0,1,0,5.63,31.64,31.64,0,0,0,.51,4.75c.35,2.3-.65,3.94-1.82,5.81a9.48,9.48,0,0,0-1.23,3.08c-.35,1.63.44,3.33.28,5s-1.86,3-2.54,4.37a10.69,10.69,0,0,0-.57,2.44c-.47,2.27-1.54,2.41-3.18,3.15a26.54,26.54,0,0,0-3.62,2.15,17.64,17.64,0,0,1-2.33,1.48,22.35,22.35,0,0,1-2.28.53c-1.16.36-2.07,1.22-3.24,1.6-.56.17-1,.19-1.39.36a.68.68,0,0,0-.9.34,1.47,1.47,0,0,0-.06.27,4.77,4.77,0,0,1-.93.17.41.41,0,0,0-.35.47l-.21,0a7,7,0,0,0-1.88-.14l-.1,0a.39.39,0,0,0,0-.24m9.25.88c.61-.08,1.22-.17,1.84-.23a11.71,11.71,0,0,0,6.43-2.18c3.57-2.48,7.66-3.46,10.52-6.89a19.27,19.27,0,0,0,4.76-12c.18-4.53,2.38-9.41,1-13.9a30.61,30.61,0,0,1-1.45-7.58c-.15-2.72.4-5.41.25-8.14-.24-4.21-2.6-7.8-4.88-11.22a24.79,24.79,0,0,1-1.14-2.23c.21-.15.34-.42.12-.63-.63-.63-1.1-1.38-1.76-2s-1.93-.79-2.78-1.35l.19,0a8.64,8.64,0,0,1,3.89,1.84,4.91,4.91,0,0,0,1.18,1.43c2.13,1.5,3.55,2.72,4.58,5.2.84,2,1.12,4.16,2.22,6.07a19.88,19.88,0,0,1,2.71,7c.18,1.14.32,2.28.4,3.43a11.08,11.08,0,0,1-.72,3.31,6.51,6.51,0,0,0,.79,4.58c1,1.87-.51,3.79.85,5.47,0,2.18.3,4.33-.3,6.48-.65,2.35-2.49,4.2-3.53,6.39-.28.6-.13,1.34-.42,2s-.55,1.13-.81,1.71c-.66,1.41-1.35,2.8-1.91,4.26a4.26,4.26,0,0,0-.26,1.07,18.57,18.57,0,0,1-2.43,2.07,21.92,21.92,0,0,1-7.22,3.63c-2.42.57-4.44,2.14-7,2.15-.51,0-4.5.47-6.47.61a7.73,7.73,0,0,0,1.35-.29m-15.48-74.29c.42-.15.85-.3,1.28-.47l-.61.26a.28.28,0,0,0-.15.28l-1.45.36.93-.43m19.4-3c-.53-.11-1,.82-.37,1,.45.12.65.76.91,1.11.41.58.91,1.09,1.37,1.62a4.34,4.34,0,0,1,.54.77,2.34,2.34,0,0,0,.23.51l.12.39a5.37,5.37,0,0,0-.44-.37,23.46,23.46,0,0,0-2.73-1.52c-.84-.44-1.51-1.16-2.3-1.68a3.73,3.73,0,0,0-2.53-.23,18.62,18.62,0,0,1-3.17,0,17.29,17.29,0,0,0-3.22,0,13.51,13.51,0,0,1-1.68,0,10.42,10.42,0,0,0-1.93.07,13.17,13.17,0,0,0-2.71.78l.09,0c.17-.08.18-.39,0-.3s-.64.21-1,.31a7.65,7.65,0,0,0-1.75.58,2.91,2.91,0,0,0-1.43.75l-.47.29c-.07,0-.1.21,0,.19l.19-.05c0,.05.05.09.13.06,1.83-.61,3.83-.59,5.61-1.37a.24.24,0,0,0,.14-.18l.39-.09a5.94,5.94,0,0,1,2,0,7.62,7.62,0,0,0,1.57.1,25.3,25.3,0,0,1,3.59,0c.75,0,1.51.06,2.29.06a8.77,8.77,0,0,1,3.19.13,15.57,15.57,0,0,1,2.3,1.69,21,21,0,0,1,2.83,1.67l-1.27,0-1.93-.07a4,4,0,0,0-1.84-.72.3.3,0,0,0-.18,0l-.95-.14a.5.5,0,0,0-.17,0,11.46,11.46,0,0,0-2.58-.77c-1,0-1.86,1-2.72,1.3-1.38.53-3.21.31-4.67.57a29,29,0,0,0-4.34,1.34,41.92,41.92,0,0,0-7.91,3.25c-2.4,1.42-5.25,2.7-6.89,5.08a35.43,35.43,0,0,0-1.83,3.3,13,13,0,0,1-3.15,3.25c-1.85,1.66-2.57,4.2-3.55,6.41-1.15,2.59-1,5.72-1.53,8.47a16.63,16.63,0,0,0,.32,8.18c0,4.41,1.93,8.67,3.5,12.76.13.34.66,0,.55-.35a30.21,30.21,0,0,1-2.13-10.6c0-1.51-.19-3-.3-4.46,0-.16,0-.33,0-.5.12-1.91,1.51-2.76,2.5-4.14,1.32-1.81.65-3.93.83-6,.25-2.79,2.76-4.81,4.28-7,.87-1.26,1.14-2.86,2.47-3.79,1-.69,2.28-.86,3.3-1.53a5.9,5.9,0,0,0,1.88-2.15c.26-.46.46-1,.69-1.43.9-1.86,2.2-1.57,3.62-1.84,2.66-.51,5.3-.87,7.91-1.58a8.75,8.75,0,0,0,2.78-1.31c1-.74,1.31-1.43,2.71-1.7a11.42,11.42,0,0,0,2.93-1.11,19,19,0,0,1,4.34-1.46l.12,0a6,6,0,0,0,.83,0l.33,0h.28a20.92,20.92,0,0,1,3,.23,7.16,7.16,0,0,0-1.73.86,3.85,3.85,0,0,0-.77.13.7.7,0,0,0-.5.5c-3.12,1.17-5.87,3.11-8.83,4.67a27.84,27.84,0,0,0-4.87,3,52.75,52.75,0,0,0-3.69,3.93c-2.44,2.48-6,1.93-8.53,4-3,2.44-2.87,7-4.73,10.14s-4.47,5.1-5.15,8.8c-.42,2.27,0,4.65-.29,6.95a7.88,7.88,0,0,0,.63,4.49c.83,1.74,2.37,3,3.25,4.73s.7,4.13,1.26,6c.9,3.08,4,5,6.55,6.63a5.24,5.24,0,0,0,3.14,2.36.41.41,0,0,0,.4-.61c-.52-.73-1.3-1.08-1.76-1.9a5.15,5.15,0,0,1-.23-.54c.74-3.17-.51-5.35-1.92-8.25-.73-1.52.69-3,.84-4.5.13-1.31-.6-2.64-1.07-3.81a10.05,10.05,0,0,1-.33-7.1c.56-1.68,2-3,2.74-4.59a18.88,18.88,0,0,0,1.19-4.63,19.38,19.38,0,0,1,2.31-6.46c1-1.75,2.61-2.64,4.14-3.85s2.15-2.91,3.63-3.94a33.89,33.89,0,0,0,3.48-2.19,8.06,8.06,0,0,0,1.88-3.41c.78-2,3-2.56,4.6-3.79a12.09,12.09,0,0,0,2.69-3.65,6.77,6.77,0,0,0,.93-2.22,3.4,3.4,0,0,1,.54-.27,7.07,7.07,0,0,0-.42,2.73,12.31,12.31,0,0,1-.66,5.27c-.88,2.1-2.71,3.24-4.45,4.54-2.5,1.87-2.79,4.13-2.75,7.1,0,2.21-1.24,3.56-1.73,5.6a12.79,12.79,0,0,0-.21,5.26c.19,1.16-3,3.27-3.73,4.11a5.19,5.19,0,0,0-1.35,4,28.84,28.84,0,0,1,.36,3.25c-.06,1.14-.39,2.27-.48,3.42-.14,1.8.82,3,1.75,4.43,1.56,2.37.56,4.06-.69,6.22a4.5,4.5,0,0,0-.33,1.46c-.26,1.67-1.36,1.57-2.43,2.23a3.32,3.32,0,0,0-1,4.6,2.15,2.15,0,0,0,.3,1.37c.19.43,0,.87.14,1.3s.35.44.53.65a.26.26,0,0,0,.15.24.85.85,0,0,1,.06.17c0,.37.53.24.68,0,0,0,0,0,0,0a.12.12,0,0,0,.15,0,.21.21,0,0,0,.1.06c1.39.38,2.39,1.08,3.77.25h0l.31,0a5.52,5.52,0,0,0,2.52.21h0v.15a.1.1,0,0,0,.09.12c2.57.35,5.08-.12,7.65-.18,2.78-.07,5.07-1.72,7.74-2.31,2.35-.53,4.14-1.95,6.24-3a16.21,16.21,0,0,0,3.13-2.14c.31.16.81,0,1.53-.59a24.24,24.24,0,0,0,3.06-3.57c1.56-2,3.42-3.78,5-5.76a12.14,12.14,0,0,0,2.88-5c.51-2.58.24-5.2.8-7.78a27.33,27.33,0,0,0,1.06-7.93,31.5,31.5,0,0,0-1.89-7.65c-1.66-5-2.77-10.37-5.84-14.75-.24-.35-.51-.68-.77-1a.48.48,0,0,0,0-.29,4.1,4.1,0,0,0-1.65-2.29,17.84,17.84,0,0,1-3.31-2.89,8.08,8.08,0,0,0-3.93-2c-.45-.27-.91-.54-1.36-.79,0-.2,0-.37-.31-.33l-.27.07a5,5,0,0,0-2.17-.49,25.24,25.24,0,0,0-2.61,0c1-.38,1.78-1.06,2.78-1.41a5.15,5.15,0,0,1,.88-.22,8.42,8.42,0,0,1,3.64.7.49.49,0,0,0,.59-.15,21,21,0,0,0,2.59,1.32c.3.1.66-.47.32-.62-1.17-.55-2.11-1.45-3.33-1.89a6,6,0,0,0-1.34-.27,11.27,11.27,0,0,0-3.71,0,19.92,19.92,0,0,0-2.9-.12,4.71,4.71,0,0,0-1.83.51,5.44,5.44,0,0,0-.67.37c.32-.56.68-1.12,1-1.7s1-1.4.87-2.1-.9-.21-1,.23c-.17,1.11-1.37,1.29-1.66,2.23a3.82,3.82,0,0,0-.14,1.21c-.12.22-.23.44-.33.65a30.64,30.64,0,0,0-1.43-4.67,3.58,3.58,0,0,0-2.27-1.39,1.13,1.13,0,0,0-.54.13"/></clipPath><linearGradient id="linear-gradient-12" x1="1369.15" y1="2142.79" x2="1369.63" y2="2142.79" gradientTransform="matrix(158.89, 0, 0, -158.89, -216862.89, 340623.29)" gradientUnits="userSpaceOnUse"><stop offset="0" stop-color="#338b42"/><stop offset="0.15" stop-color="#338b42"/><stop offset="0.5" stop-color="#2b8440"/><stop offset="1" stop-color="#17743b"/></linearGradient><clipPath id="clip-path-13" transform="translate(-1761.46 -3045.89)"><path class="cls-1" d="M2134.17,3214.23c-2.48.81-4,18.94,13.42,30.14,11.32,7.29,31.77,11.25,50.68,11.06-52.34-4-63.38-41.38-63.38-41.38a6.3,6.3,0,0,0-.72.18"/></clipPath><linearGradient id="linear-gradient-13" x1="1368.75" y1="2131.32" x2="1369.47" y2="2131.32" gradientTransform="matrix(83.39, 0, 0, -83.39, -112006.55, 180967.97)" xlink:href="#linear-gradient-11"/><clipPath id="clip-path-14" transform="translate(-1761.46 -3045.89)"><path class="cls-1" d="M2315.63,3240.59l0,0h0a48.52,48.52,0,0,0,68.49-12.3,50.94,50.94,0,0,0-12.48-69.89l0,0,0,0Z"/></clipPath><linearGradient id="linear-gradient-14" x1="1387.26" y1="2121.54" x2="1388.06" y2="2121.54" gradientTransform="matrix(0, 41.47, 41.48, -0.03, -85648.53, -54251.49)" xlink:href="#linear-gradient-11"/><clipPath id="clip-path-15" transform="translate(-1761.46 -3045.89)"><path class="cls-1" d="M2322,3231.22l.06,0c1.39,1,2.19,2.83,3.62,3.68s3.27,1,4.75,1.73,2.62,2.45,4.16,3.07,3.5.11,5.09.59,3,2,4.58,2.39,3.4.14,5,.32a49.77,49.77,0,0,0,5,.22,16.6,16.6,0,0,0,3.07-.35c.63-.11,1.25-.22,1.88-.29a38.2,38.2,0,0,0,4.78-1.28,14,14,0,0,1,2.14-.25,10.07,10.07,0,0,0,2.8-.46,34.19,34.19,0,0,0,4.31-2.49,33.52,33.52,0,0,1,3.49-1.24c.91-.84,1.8-1.73,2.66-2.65a9.75,9.75,0,0,1,1.4-2.29c.75-.78,1.56-1.44,2.3-2.19.35-.47.69-1,1-1.43a50.47,50.47,0,0,0,5.22-9.86c.1-1.29-.11-2.65.06-3.95a36.7,36.7,0,0,0,.82-5c0-1.68.4-3.44.17-5.15s-1.07-3.26-1.5-4.93a46.1,46.1,0,0,0-1.3-4.94c-.58-1.58-.9-3.33-1.65-4.88s-1.5-3.1-2.39-4.57-2.43-2.44-3.45-3.82-2-2.7-3.13-4-1.66-3.12-2.88-4.32-3.11-1.57-4.42-2.66-2.85-1.73-4.23-2.72l-.06,0Z"/></clipPath><linearGradient id="linear-gradient-15" x1="1389.63" y1="2120.7" x2="1390.43" y2="2120.7" gradientTransform="matrix(0, 39.16, 39.17, -0.03, -80710.07, -51145.7)" xlink:href="#linear-gradient-12"/><clipPath id="clip-path-16" transform="translate(-1761.46 -3045.89)"><path class="cls-1" d="M2328.05,3222.36l.06,0c1.44,1,2.87,2,4.33,2.89s2.83,2.1,4.34,2.92,3.13,1.57,4.68,2.29,2.86,2.35,4.45,3,3.33,1.31,5,1.81,3.49.77,5.14,1.12,3.62-.42,5.3-.24,3.48,1.37,5.15,1.34,3.35-1.75,5-2a6.7,6.7,0,0,1,2.56.26,5.19,5.19,0,0,0,2.92.15c1.67-.67,2.41-2.95,3.76-4a6.29,6.29,0,0,1,1.43-.77c.71-.9,1.39-1.83,2.05-2.79a50.7,50.7,0,0,0,3.29-5.56c.11-1.29,0-2.66,0-4a26.34,26.34,0,0,0-.55-5.19,34,34,0,0,0-1.47-5c-.55-1.61,0-3.79-.78-5.44s-3-2.29-4-3.84-.8-3.66-1.86-5.12-2.65-2.35-3.81-3.72-2.36-2.54-3.6-3.82-2.84-2-4.16-3.21-2.29-2.64-3.68-3.75-2.22-2.87-3.66-3.9l-.06,0Z"/></clipPath><linearGradient id="linear-gradient-16" x1="1387.16" y1="2121.7" x2="1387.96" y2="2121.7" gradientTransform="matrix(0, 41.66, 41.67, -0.03, -86049.2, -54509.51)" xlink:href="#linear-gradient-11"/><clipPath id="clip-path-17" transform="translate(-1761.46 -3045.89)"><path class="cls-1" d="M2334.41,3213a.1.1,0,0,1,.05,0c1.4,1,2.36,2.65,3.75,3.58s3.19,1.35,4.61,2.22,2.9,1.82,4.35,2.64,3.49.66,4.95,1.42,2.47,2.8,4,3.48,3.64.16,5.15.75,2.67,2.9,4.2,3.39c1.7.54,3.56.29,5.1.62,1.79.39,3.52,0,5,.11a14,14,0,0,0,4.75-.86,12,12,0,0,1,2-.23l.54,0c.44-.6.88-1.21,1.31-1.83.81-1.2,1.57-2.43,2.27-3.67,0-.31,0-.62-.06-.92-.18-1.48-1.35-3-2.13-4.82-.62-1.43-.92-3.26-1.9-4.84-.84-1.36-2.82-2-3.91-3.49s-2-2.64-3.13-4-2.37-2.32-3.59-3.59-1.36-3.41-2.63-4.62-2.75-2-4.05-3.13-2.31-2.51-3.65-3.61-2.42-2.41-3.79-3.46-3.56-.82-4.95-1.81l-.06,0Z"/></clipPath><linearGradient id="linear-gradient-17" x1="1389.51" y1="2120.83" x2="1390.3" y2="2120.83" gradientTransform="matrix(0, 39.35, 39.36, -0.03, -81113.88, -51407.27)" xlink:href="#linear-gradient-12"/><clipPath id="clip-path-18" transform="translate(-1761.46 -3045.89)"><path class="cls-1" d="M2340.32,3204.35l.06,0c1.41,1,3.39,1.13,4.78,2.09s2.18,3,3.58,3.91,3.21,1.39,4.61,2.31,2.46,2.62,3.86,3.52,3.67.64,5.07,1.51,2.94,1.86,4.35,2.69,2.26,3.22,3.67,4c1.63.9,3.88.21,5.28.9a47.83,47.83,0,0,0,4.65,1.91c1.49.58,2.7,1.28,3.55,1.67l.39-.56c.29-.43.58-.87.86-1.31a9.86,9.86,0,0,0-1.89-3.27c-.93-1.1-3-1.52-4.43-2.91-1.12-1.1-1.89-2.82-3.27-4.07-1.2-1.08-2.14-2.66-3.52-3.84s-3.31-1.25-4.7-2.38-2.15-2.73-3.54-3.83-2.55-2.26-3.94-3.33-2.74-2-4.14-3.07-3.08-1.54-4.48-2.56-2.27-2.72-3.69-3.73l0,0Z"/></clipPath><linearGradient id="linear-gradient-18" x1="1387.07" y1="2121.83" x2="1387.86" y2="2121.83" gradientTransform="matrix(0, 41.82, 41.83, -0.03, -86396.94, -54736.53)" xlink:href="#linear-gradient-11"/><clipPath id="clip-path-19" transform="translate(-1761.46 -3045.89)"><path class="cls-1" d="M2327.77,3188.2c-15.47,22.7-20.88,46.17-12.09,52.43s28.47-7.08,43.93-29.77,20.88-46.17,12.08-52.42a9.7,9.7,0,0,0-7.32-1.38c-10,1.52-24.58,13.5-36.6,31.14"/></clipPath><linearGradient id="linear-gradient-19" x1="1347.83" y1="2151.54" x2="1348.63" y2="2151.54" gradientTransform="matrix(0, -95.75, -95.67, 0, 208182.78, 132278.35)" xlink:href="#linear-gradient-11"/><clipPath id="clip-path-20" transform="translate(-1761.46 -3045.89)"><path class="cls-1" d="M2092.86,3341.57c-3.63,34.67,22.76,65.81,58.93,69.55s68.45-21.31,72.07-56-22.76-65.81-58.93-69.55-68.45,21.31-72.07,56"/></clipPath><linearGradient id="linear-gradient-20" x1="1367.66" y1="2142.38" x2="1368.45" y2="2142.38" gradientTransform="matrix(166.32, 17.31, 16.67, -160.16, -262857.1, 319748.69)" xlink:href="#linear-gradient-11"/><clipPath id="clip-path-21" transform="translate(-1761.46 -3045.89)"><path class="cls-1" d="M2137.89,3407.31a2.14,2.14,0,0,1-.1-.71A7.88,7.88,0,0,1,2139,3405c1-.7,1.83-1.95,2.35-2.33,4.67-3.45,10.16-3.71,12.71-9.57,1.21-2.78,2.93-5.6,3.88-8.46,1.07-3.23.12-5.46-1.33-8.4-2.07-4.25,4.32-6.53,6.5-8.8,2.72-2.83,3.39-6.49,5-9.94a48.07,48.07,0,0,0,3.66-8.92,15.36,15.36,0,0,0,.1-4.69,9.37,9.37,0,0,1,2-7.14c1.47-2,3-4.19,3.17-6.77a10.13,10.13,0,0,1,2.94-6.81,8.12,8.12,0,0,0,2-3.17,18.19,18.19,0,0,0,.89-8.11c-.42-2.23-1.2-4.31-.58-6.6a4.75,4.75,0,0,0,.18-2.26c.7.68,1.37,1.4,2,2.11a12.59,12.59,0,0,0,.49,1.23c.38.81.91,1.38,1.3,2.06a27.36,27.36,0,0,0,.54,3.32,5.79,5.79,0,0,0,.13,1,4.05,4.05,0,0,0,.33.81,79.89,79.89,0,0,0,2.73,7.61c2.37,6-2.44,9.9-3,15.66-.27,2.78-.11,5.56-.11,8.35a86.57,86.57,0,0,1-1,9.08,52.89,52.89,0,0,0,0,7.76c.19,3.78-1.71,6.26-3.92,9.08a15.24,15.24,0,0,0-2.52,4.76c-.84,2.57.15,5.45-.39,8.1-.5,2.41-3.52,4.54-4.86,6.62a17.92,17.92,0,0,0-1.34,3.85c-1.14,3.58-2.9,3.62-5.68,4.54a44.39,44.39,0,0,0-6.23,2.86,30.52,30.52,0,0,1-4.05,2c-1,.33-2.7.25-3.79.47-1.93.38-3.55,1.62-5.52,2-.93.19-1.67.14-2.32.36a1.1,1.1,0,0,0-1.51.39,2.67,2.67,0,0,0-.15.42,7.08,7.08,0,0,1-1.53.12.67.67,0,0,0-.65.7c-.11,0-.22,0-.34-.06a11.29,11.29,0,0,0-3-.54l-.16,0a.58.58,0,0,0,0-.39m14.86,3c1,0,2-.07,3-.07,4.35,0,7-.34,10.8-2.44,6.2-3.41,13-4.29,18.23-9.36a31.21,31.21,0,0,0,9.75-18.64c1.06-7.27,5.46-14.79,4-22.27a49.79,49.79,0,0,1-1.08-12.47c.23-4.43,1.58-8.68,1.79-13.11.32-6.83-2.91-13-6-18.93-.47-.9-.92-2.33-1.47-3.79.38-.21.63-.62.31-1-.91-1.11-1.56-2.41-2.52-3.48-1.1-1.23-3-1.6-4.29-2.65l.31.06c2.32.51,4.22,2.07,6,3.64a8.1,8.1,0,0,0,1.68,2.5c3.2,2.77,5.29,5,6.55,9.16,1,3.39,1.12,6.9,2.57,10.17a32.12,32.12,0,0,1,3.21,11.72c.11,1.87.15,3.74.08,5.61s-1.12,3.43-1.73,5.22a10.49,10.49,0,0,0,.51,7.53c1.29,3.2-1.47,6,.46,9-.33,3.51-.25,7-1.58,10.4-1.46,3.68-4.75,6.36-6.8,9.72-.57.93-.44,2.15-1,3.09s-1.07,1.74-1.6,2.62c-1.31,2.17-2.66,4.31-3.81,6.56a7.1,7.1,0,0,0-.61,1.69,30.34,30.34,0,0,1-4.29,2.93c-3.91,2.11-7.9,4.08-12.33,4.65-4,.52-7.56,2.71-11.72,2.3-.83-.08-7.38,0-10.61-.11a14,14,0,0,0,2.25-.23m-12.57-122.55c.72-.17,1.43-.34,2.15-.54l-1,.31a.47.47,0,0,0-.3.44c-.81.1-1.61.21-2.41.34l1.58-.55m32-1.52c-.85-.27-1.76,1.15-.76,1.53.7.27.92,1.34,1.28,2,.57,1,1.29,1.91,2,2.84a6.43,6.43,0,0,1,.74,1.34,3.61,3.61,0,0,0,.28.86c.06.22.1.43.14.65a6.82,6.82,0,0,0-.65-.67,37.57,37.57,0,0,0-4.17-2.92c-1.29-.86-2.26-2.13-3.46-3.1s-2.67-.79-4.06-.79a29.22,29.22,0,0,1-5.13-.6,29.3,29.3,0,0,0-5.22-.61,20.51,20.51,0,0,1-2.73-.22,18.15,18.15,0,0,0-3.14-.21,20.87,20.87,0,0,0-4.54.82l.16-.05c.29-.09.35-.59,0-.49-.53.14-1.07.24-1.61.35a12.88,12.88,0,0,0-2.94.63,4.69,4.69,0,0,0-2.44,1l-.82.39c-.12.06-.19.33,0,.31l.31,0c0,.09.06.16.2.13,3.08-.68,6.31-.32,9.33-1.27a.39.39,0,0,0,.26-.27l.65-.08a9.45,9.45,0,0,1,3.19.4,11.9,11.9,0,0,0,2.54.41,45.51,45.51,0,0,1,5.81.61c1.22.18,2.45.36,3.72.48,1.75.17,3.48,0,5.14.76,1.19.57,2.37,2.25,3.45,3.1,1.46,1.15,3,1.82,4.32,3.17-.73-.09-1.44-.17-2.06-.27-1-.15-2.08-.3-3.12-.43a6.49,6.49,0,0,0-2.86-1.48.59.59,0,0,0-.29-.09l-1.51-.38a.9.9,0,0,0-.28,0c-1.36-.53-2.55-1.45-4.07-1.67s-3.17,1.24-4.62,1.63c-2.33.62-5.26,0-7.67.15a46,46,0,0,0-7.27,1.42c-4.68,1.12-9,1.9-13.39,3.92-4.12,1.88-9,3.48-12,7.05a56.59,56.59,0,0,0-3.53,5c-1.43,2.08-3.66,3.28-5.66,4.72-3.29,2.36-4.88,6.35-6.84,9.75-2.3,4-2.63,9.05-3.92,13.42a26.81,26.81,0,0,0-.86,13.25c-.67,7.12,1.68,14.33,3.53,21.19.15.57,1.08.05.95-.47-1.42-5.77-2.37-11.53-1.67-17.47.3-2.44.2-4.86.27-7.25l.15-.8c.52-3.07,2.91-4.21,4.75-6.27,2.44-2.71,1.71-6.23,2.36-9.53.87-4.46,5.28-7.31,8.12-10.59,1.64-1.88,2.34-4.42,4.65-5.69,1.72-.95,3.86-1,5.62-1.92a9.67,9.67,0,0,0,3.41-3.16c.5-.7.91-1.46,1.36-2.19,1.77-2.86,3.83-2.16,6.18-2.37,4.4-.38,8.75-.51,13.11-1.22a14.11,14.11,0,0,0,4.72-1.64c1.84-1,2.38-2.09,4.69-2.29a18.45,18.45,0,0,0,4.95-1.3,31.29,31.29,0,0,1,7.29-1.63l.2-.06a8.87,8.87,0,0,0,1.34.18l.53,0c.16,0,.31,0,.46.06a33.76,33.76,0,0,1,4.78.87,11.42,11.42,0,0,0-2.95,1.11,5.28,5.28,0,0,0-1.27.07,1.13,1.13,0,0,0-.9.72c-5.26,1.37-10,4-15.11,6.06a45,45,0,0,0-8.43,4.11c-2.42,1.63-4.4,3.87-6.65,5.71-4.37,3.61-10,2.12-14.51,5-5.27,3.42-5.82,10.76-9.38,15.56s-8.12,7.5-9.85,13.35c-1.06,3.59-.84,7.51-1.63,11.17a12.56,12.56,0,0,0,.26,7.36c1,3,3.33,5.28,4.48,8.18,1.2,3.06.42,6.78,1,10,.95,5.12,5.58,8.71,9.52,11.79a8.49,8.49,0,0,0,4.68,4.35.67.67,0,0,0,.76-.92c-.72-1.27-1.93-2-2.53-3.37a4.93,4.93,0,0,1-.28-.9c1.73-5,.06-8.74-1.72-13.65-.94-2.58,1.6-4.66,2.11-7.13.43-2.09-.53-4.36-1.1-6.32a16.26,16.26,0,0,1,.67-11.53c1.19-2.6,3.74-4.47,5.22-7a30.42,30.42,0,0,0,2.72-7.26,31.11,31.11,0,0,1,4.84-10c1.92-2.66,4.67-3.82,7.36-5.53,2.5-1.58,4-4.34,6.56-5.74,2-1.09,4.14-1.64,6-3s2.68-3.34,3.62-5.18c1.61-3.15,5.36-3.63,8.11-5.35,2.05-1.28,3.59-3.53,5-5.45a10.89,10.89,0,0,0,1.87-3.42,8.11,8.11,0,0,1,.93-.36,11.65,11.65,0,0,0-1.14,4.35c-.31,3.08-.42,5.56-2,8.39-1.78,3.24-4.95,4.78-8,6.59-4.37,2.6-5.22,6.19-5.65,11-.33,3.58-2.63,5.55-3.76,8.75a20.74,20.74,0,0,0-1.24,8.46c.11,1.91-5.46,4.77-6.74,6a8.47,8.47,0,0,0-2.87,6.23c-.07,1.83.32,3.45,0,5.31s-1,3.6-1.35,5.44c-.54,2.89.81,5,2.08,7.46,2.13,4.08.23,6.65-2.16,9.91a6.89,6.89,0,0,0-.78,2.3c-.72,2.67-2.47,2.32-4.33,3.2a5.4,5.4,0,0,0-2.45,7.26,3.54,3.54,0,0,0,.26,2.26c.23.72-.15,1.4,0,2.12a3.41,3.41,0,0,0,.74,1.13.46.46,0,0,0,.19.42.82.82,0,0,1,.07.28c0,.61.83.48,1.12.07l0,.05a.2.2,0,0,0,.25,0,.37.37,0,0,0,.16.1c2.19.85,3.68,2.16,6.06,1h.52a8.85,8.85,0,0,0,4,.77h0l-.05.24a.18.18,0,0,0,.13.22c4.11,1,8.26.65,12.44,1,4.53.36,8.51-1.91,12.95-2.42,3.9-.45,7-2.45,10.64-3.84a26.33,26.33,0,0,0,5.43-2.92c.48.31,1.32.17,2.59-.71a38.27,38.27,0,0,0,5.56-5.24c2.87-3,6.19-5.54,9.15-8.46,2.19-2.17,4.56-4.57,5.5-7.6,1.26-4.08,1.27-8.35,2.63-12.44,1.41-4.25,2.87-8.08,3-12.61.17-4.26-.86-8.55-1.77-12.68-1.84-8.37-2.75-17.19-7-24.79-.33-.6-.71-1.18-1.08-1.76a.72.72,0,0,0,.05-.46,6.66,6.66,0,0,0-2.29-4,28.76,28.76,0,0,1-4.88-5.22c-1.64-2.08-3.82-3-6.05-3.86-.69-.51-1.38-1-2.08-1.51.11-.3,0-.59-.44-.57a3,3,0,0,0-.45.07,7.9,7.9,0,0,0-3.44-1.17,41.7,41.7,0,0,0-4.23-.43c1.65-.45,3.06-1.41,4.75-1.82a9.87,9.87,0,0,1,1.46-.2,13.66,13.66,0,0,1,5.79,1.74.79.79,0,0,0,1-.14c1.34.78,2.47,1.94,4,2.57.47.2,1.15-.65.63-1-1.81-1.08-3.18-2.69-5.08-3.6a9.23,9.23,0,0,0-2.13-.66,18.22,18.22,0,0,0-6-.6,30.18,30.18,0,0,0-4.68-.7,7.57,7.57,0,0,0-3.05.53,6.52,6.52,0,0,0-1.15.49c.61-.87,1.28-1.71,1.88-2.58s1.84-2.11,1.78-3.25-1.44-.49-1.62.2c-.46,1.77-2.44,1.86-3.07,3.33a6.2,6.2,0,0,0-.43,1.93c-.23.33-.45.66-.65,1-.4-2.76-1.13-7.15-1.53-7.78-.64-1-2.08-2.49-3.45-2.63a1.71,1.71,0,0,0-.89.12"/></clipPath><linearGradient id="linear-gradient-21" x1="1367.85" y1="2142.26" x2="1368.64" y2="2142.26" gradientTransform="matrix(158.03, 16.45, 16.45, -158.03, -251069.56, 316339.96)" xlink:href="#linear-gradient-12"/><clipPath id="clip-path-22" transform="translate(-1761.46 -3045.89)"><path class="cls-1" d="M2294.85,3300.64c-30.08,3.75-51.9,34.53-48.73,68.76s30.14,58.94,60.23,55.2,51.89-34.53,48.72-68.76-30.13-58.94-60.22-55.2"/></clipPath><linearGradient id="linear-gradient-22" x1="1373.84" y1="2151.43" x2="1374.6" y2="2151.43" gradientTransform="matrix(17.93, 166.26, 160.1, -17.27, -368548.17, -191004.53)" xlink:href="#linear-gradient-11"/><clipPath id="clip-path-23" transform="translate(-1761.46 -3045.89)"><path class="cls-1" d="M2246.92,3355.76a1.79,1.79,0,0,1,.59-.24,6.55,6.55,0,0,1,1.57.74c.76.74,2,1.29,2.39,1.7,3.75,3.61,4.94,8.63,10.36,9.79,2.57.56,5.28,1.57,7.87,1.86,2.93.33,4.66-1,6.9-2.94,3.25-2.8,6.31,2.65,8.62,4.21,2.88,1.93,6.11,1.8,9.32,2.58a39.25,39.25,0,0,0,8.22,1.57,12.64,12.64,0,0,0,4-.87,7.44,7.44,0,0,1,6.42.38c2,.94,4.09,1.93,6.31,1.55a8,8,0,0,1,6.3,1.33,6.59,6.59,0,0,0,3,1.15,14.48,14.48,0,0,0,7-.83c1.83-.85,3.45-2,5.5-1.89a3.8,3.8,0,0,0,2-.3c-.46.79-.95,1.56-1.44,2.32-.32.22-.64.45-.95.71-.63.52-1,1.12-1.53,1.62a25.37,25.37,0,0,0-2.72,1.18,4,4,0,0,0-.79.32,3.56,3.56,0,0,0-.63.47,70.82,70.82,0,0,0-6,4.08c-4.68,3.43-8.83-.22-13.83.43a67.56,67.56,0,0,0-7.11,1.61,74.5,74.5,0,0,1-7.89.95,40.75,40.75,0,0,0-6.58,1.61c-3.18.94-5.63-.31-8.41-1.78a12.3,12.3,0,0,0-4.48-1.35c-2.33-.25-4.61,1.26-6.95,1.29-2.14,0-4.48-2.32-6.48-3.13a13.34,13.34,0,0,0-3.5-.45c-3.25-.32-3.59-1.94-4.87-4.33a40.68,40.68,0,0,0-3.52-5.18,26.65,26.65,0,0,1-2.41-3.33,33.78,33.78,0,0,1-1.06-3.4c-.68-1.72-2-3-2.7-4.7-.33-.82-.42-1.51-.72-2.07a1.06,1.06,0,0,0-.59-1.32,3,3,0,0,0-.39,0,7.3,7.3,0,0,1-.37-1.39.58.58,0,0,0-.71-.46c0-.11,0-.21,0-.32a11.87,11.87,0,0,0-.08-2.92.39.39,0,0,0-.05-.14.52.52,0,0,0,.34-.06m.07,14.35c.21.93.42,1.85.59,2.79.75,4,1.51,6.38,4,9.49,4,5,5.94,11.16,11.16,15,5.46,4,11,5.72,17.54,5.2,6.37-.51,13.53,2,19.62-.89a40.81,40.81,0,0,1,10.41-3.55c3.8-.69,7.64-.31,11.44-1,5.86-1.1,10.56-5.35,15-9.45.68-.62,1.82-1.33,2.95-2.13.26.3.65.44.92.07.78-1.07,1.77-1.93,2.51-3,.86-1.27.84-3.11,1.5-4.51v.3a14.35,14.35,0,0,1-2,6.3,7.17,7.17,0,0,0-1.83,2.06c-1.8,3.53-3.31,5.91-6.64,7.93-2.7,1.64-5.66,2.45-8.18,4.46a27.59,27.59,0,0,1-9.39,5.38,46.74,46.74,0,0,1-4.76,1.21c-1.68.33-3.11-.33-4.73-.52a8.61,8.61,0,0,0-6.31,2c-2.49,1.84-5.39-.13-7.55,2.26-3,.42-6,1.21-9.11.67-3.39-.6-6.25-3.09-9.46-4.3-.89-.34-1.9,0-2.81-.32l-2.5-.95c-2.08-.76-4.13-1.57-6.25-2.17a5.16,5.16,0,0,0-1.54-.22,27.25,27.25,0,0,1-3.24-3.37c-2.48-3.19-4.85-6.47-6.11-10.45-1.15-3.62-3.64-6.45-4-10.38-.07-.77-1.29-6.82-1.77-9.82a14.72,14.72,0,0,0,.59,2m101.89-36.72c.28.63.55,1.26.84,1.88-.14-.3-.29-.59-.44-.88a.41.41,0,0,0-.43-.19c-.22-.72-.46-1.44-.71-2.16.25.45.5.9.74,1.35m6.91,29.27c.08-.84-1.28-1.39-1.43-.39-.11.7-1,1.13-1.44,1.59-.74.73-1.39,1.58-2.07,2.39a5.55,5.55,0,0,1-1,.95,3.29,3.29,0,0,0-.68.44l-.53.26a6.13,6.13,0,0,0,.46-.74,38.21,38.21,0,0,0,1.75-4.46c.5-1.36,1.41-2.52,2-3.83s.19-2.63,0-3.92a31.74,31.74,0,0,1-.39-4.86,29.63,29.63,0,0,0-.4-5,20.42,20.42,0,0,1-.29-2.57,17.65,17.65,0,0,0-.38-2.95,20.89,20.89,0,0,0-1.49-4,.91.91,0,0,1,.07.14c.13.25.56.21.41-.12s-.39-.93-.58-1.41a11.73,11.73,0,0,0-1.05-2.59,4.43,4.43,0,0,0-1.26-2.06c-.15-.24-.31-.46-.47-.68s-.31-.11-.26.07.07.18.1.28-.12.09-.07.21c1.11,2.71,1.37,5.77,2.71,8.37a.37.37,0,0,0,.27.19,5.58,5.58,0,0,1,.18.58,9.55,9.55,0,0,1,.23,3,13.16,13.16,0,0,0,.09,2.44,45.36,45.36,0,0,1,.51,5.5c.06,1.16.12,2.34.25,3.53.16,1.66.64,3.22.26,4.91-.28,1.22-1.5,2.66-2,3.83-.73,1.58-1,3.19-1.94,4.64-.05-.69-.11-1.37-.13-2,0-1-.11-2-.18-3a6.75,6.75,0,0,0,.75-3,.5.5,0,0,0,0-.28c0-.49,0-1,.07-1.49a1,1,0,0,0,0-.25c.21-1.37.79-2.66.71-4.11s-1.62-2.68-2.2-3.94c-.94-2-.89-4.87-1.47-7.07a46.73,46.73,0,0,0-2.49-6.43c-1.77-4.1-3.19-7.91-5.68-11.58-2.33-3.43-4.54-7.59-8.1-9.68a44.86,44.86,0,0,0-4.89-2.24c-2-.9-3.43-2.71-5-4.27-2.59-2.56-6.25-3.22-9.49-4.33-3.79-1.31-8.15-.58-12.08-.87a21.55,21.55,0,0,0-11.42,1.91c-6.16.84-11.87,4.48-17.37,7.6-.46.26.15,1,.56.78,4.66-2.49,9.38-4.55,14.55-5.11,2.12-.23,4.16-.81,6.21-1.24l.7,0c2.7-.14,4.09,1.83,6.16,3.12,2.73,1.7,5.6.3,8.51.23,4-.11,7.14,3.39,10.42,5.34,1.89,1.13,4.17,1.25,5.66,3.13,1.1,1.4,1.53,3.36,2.62,4.81a8.26,8.26,0,0,0,3.28,2.51c.68.32,1.4.53,2.1.81,2.74,1,2.51,3.1,3.09,5.23,1.1,4,2,8,3.34,11.87a13.71,13.71,0,0,0,2.23,4c1.19,1.49,2.19,1.77,2.77,3.86a17.77,17.77,0,0,0,2,4.31,31.16,31.16,0,0,1,2.66,6.41.76.76,0,0,0,.09.18,8.23,8.23,0,0,0,.08,1.27c0,.14.05.32.08.5s0,.29,0,.44a33.76,33.76,0,0,1,.1,4.6,11.12,11.12,0,0,0-1.45-2.51,7,7,0,0,0-.29-1.16,1,1,0,0,0-.77-.68c-2.09-4.58-5.19-8.47-7.8-12.74a40.81,40.81,0,0,0-5-6.95c-1.8-1.91-4-3.29-6-5-3.83-3.31-3.56-8.85-6.81-12.39-3.83-4.19-10.16-3.19-14.87-5.5s-7.79-6-13.06-6.37c-3.24-.25-6.53.76-9.78.77a10.31,10.31,0,0,0-6.2,1.75c-2.33,1.57-3.91,4.16-6.17,5.82s-5.69,1.78-8.31,3c-4.18,1.93-6.42,6.95-8.34,11.22a8.35,8.35,0,0,0-2.87,5.22.56.56,0,0,0,.91.51c1-.92,1.33-2.18,2.42-3a3.86,3.86,0,0,1,.72-.44c4.55.57,7.43-1.73,11.29-4.39,2-1.4,4.24.53,6.42.5,1.86,0,3.62-1.38,5.18-2.31a13.2,13.2,0,0,1,9.91-1.75c2.42.57,4.46,2.54,6.82,3.41a24.6,24.6,0,0,0,6.65,1,24.67,24.67,0,0,1,9.38,2.42c2.6,1.23,4.07,3.54,6,5.67s4.39,2.8,6,4.89c1.27,1.62,2.12,3.5,3.57,5s3.31,1.79,5,2.29c3,.84,4,4.21,6,6.4,1.46,1.64,3.64,2.6,5.51,3.5a9.12,9.12,0,0,0,3.24,1,7.6,7.6,0,0,1,.46.78,9.13,9.13,0,0,0-3.89-.16c-2.67.34-4.79.74-7.47-.11-3.07-1-4.93-3.6-7-6-3-3.51-6.18-3.56-10.34-3-3.09.43-5.17-1.29-8.09-1.68a16.71,16.71,0,0,0-7.4.58c-1.6.5-5-4.07-6.29-5a6.82,6.82,0,0,0-5.8-1.38c-1.56.31-2.87,1-4.5,1.12s-3.24-.19-4.86-.13c-2.55.09-4.12,1.77-6,3.45-3.09,2.81-5.6,1.58-8.8,0a5.44,5.44,0,0,0-2.09-.25c-2.39-.12-2.4-1.81-3.48-3.35a4.41,4.41,0,0,0-6.59-.78,3,3,0,0,0-1.88.71c-.57.36-1.22.14-1.79.44a3.12,3.12,0,0,0-.84.93.39.39,0,0,0-.32.26.78.78,0,0,1-.22.12c-.52.13-.26.87.13,1l0,0a.19.19,0,0,0,.07.23.43.43,0,0,0-.06.17c-.34,2.2-1.19,3.85.17,5.82h0c0,.16.05.31.08.47a9,9,0,0,0,.06,3.9h-.21a.17.17,0,0,0-.17.16c-.11,4,.9,7.77,1.36,11.7.49,4.27,3.12,7.49,4.34,11.49,1.06,3.51,3.31,6,5.12,9.06a24.71,24.71,0,0,0,3.44,4.42c-.18.5.09,1.25,1.06,2.25a32.81,32.81,0,0,0,5.42,4.07c3.08,2,5.8,4.59,8.8,6.73,2.23,1.58,4.69,3.28,7.42,3.53,3.69.33,7.32-.54,11-.12,3.86.45,7.37,1,11.25.24,3.64-.72,7.11-2.55,10.46-4.24,6.78-3.42,14.12-6.06,19.83-11.53.45-.43.87-.9,1.3-1.36a.56.56,0,0,0,.4,0,6.17,6.17,0,0,0,3-2.93,27.46,27.46,0,0,1,3.57-5.58c1.48-1.95,1.86-4.15,2.21-6.38.32-.75.63-1.49.92-2.24.28,0,.51-.1.41-.52a2.19,2.19,0,0,0-.13-.41,8.36,8.36,0,0,0,.38-3.42c0-1.26-.19-2.63-.38-4,.67,1.44,1.74,2.54,2.38,4a9.56,9.56,0,0,1,.43,1.31,14,14,0,0,1-.46,5.71.78.78,0,0,0,.29.88,34.83,34.83,0,0,0-1.48,4.21c-.09.48.75.93.92.39.6-1.9,1.73-3.49,2.17-5.44a9.92,9.92,0,0,0,.19-2.11,19.24,19.24,0,0,0-.55-5.7,30.67,30.67,0,0,0-.24-4.47,7.32,7.32,0,0,0-1-2.71,6.89,6.89,0,0,0-.61-1c.84.39,1.67.84,2.52,1.22s2.11,1.26,3.07,1,.16-1.43-.46-1.46c-1.58-.06-2-1.88-3.36-2.16a5.23,5.23,0,0,0-1.72,0q-.48-.21-1-.39c2.28-.93,5.88-2.51,6.34-3a5.78,5.78,0,0,0,1.64-3.73,1.73,1.73,0,0,0-.27-.8"/></clipPath><linearGradient id="linear-gradient-23" x1="1374.36" y1="2151.44" x2="1375.11" y2="2151.44" gradientTransform="matrix(17.04, 157.97, 157.97, -17.04, -362744.55, -180193.25)" xlink:href="#linear-gradient-12"/><clipPath id="clip-path-24" transform="translate(-1761.46 -3045.89)"><path class="cls-1" d="M2042.58,3437.5c-26.86-10.71-39.63-42-28.51-69.89s41.91-41.83,68.77-31.12,39.62,42,28.5,69.89a55.72,55.72,0,0,1-2.77,5.95c-12.87,23.87-41.11,35.09-66,25.17"/></clipPath><linearGradient id="linear-gradient-24" x1="1353.76" y1="2135.05" x2="1354.76" y2="2135.05" gradientTransform="matrix(109.32, 0, 0, -105.27, -145985.1, 228144.5)" xlink:href="#linear-gradient-11"/><clipPath id="clip-path-25" transform="translate(-1761.46 -3045.89)"><path class="cls-1" d="M2010.24,3387.75c0-.62,0-1.24,0-1.86,0,.31,0,.62,0,.91a.4.4,0,0,0,.29.34c-.11.66-.2,1.33-.28,2,0-.45-.06-.92-.08-1.38m23.44-29.42a4,4,0,0,0-1.77-.65c.71-.4,1.43-.78,2.15-1.14.35,0,.72-.06,1.09-.12.73-.12,1.31-.41,1.94-.56a24,24,0,0,0,2.76.31,3.36,3.36,0,0,0,.8.11,2.93,2.93,0,0,0,.72-.07,65.92,65.92,0,0,0,6.69-.45c5.33-.53,7.36,4.17,11.83,5.92,2.16.85,4.41,1.34,6.64,2a74.68,74.68,0,0,1,7,2.82,41.64,41.64,0,0,0,6.2,1.74c3.06.71,4.61,2.78,6.37,5.17a12.57,12.57,0,0,0,3.23,3.07c1.86,1.25,4.39,1.12,6.38,2.15,1.81.94,2.83,3.81,4.19,5.35a14.77,14.77,0,0,0,2.77,1.93c2.61,1.72,2.24,3.12,2.36,5.54a35.46,35.46,0,0,0,.88,5.6,24,24,0,0,1,.69,3.67c0,.87-.41,2.2-.48,3.11-.12,1.63.5,3.19.38,4.85-.05.78-.26,1.35-.23,1.92a.91.91,0,0,0,0,1.29,1.7,1.7,0,0,0,.31.21,5.8,5.8,0,0,1-.25,1.24.55.55,0,0,0,.41.68l-.06.12a.83.83,0,0,1-.07.13,9.68,9.68,0,0,0-1.11,2.29.57.57,0,0,0,0,.13.55.55,0,0,0-.31-.1,1.91,1.91,0,0,1-.59-.08,6.63,6.63,0,0,1-1-1.29c-.34-.91-1.14-1.89-1.33-2.39-1.7-4.49-.68-8.91-4.79-12.26-1.94-1.59-3.81-3.59-5.87-5-2.34-1.58-4.34-1.33-7-.84-3.86.69-4.24-4.91-5.56-7.15-1.65-2.8-4.43-4.16-6.81-6.22a40.91,40.91,0,0,0-6.3-4.92,12.71,12.71,0,0,0-3.73-1.14,7.79,7.79,0,0,1-5.25-3.2c-1.28-1.62-2.67-3.33-4.69-4a8.41,8.41,0,0,1-4.78-3.88,6.7,6.7,0,0,0-2.09-2.27,15.16,15.16,0,0,0-6.27-2.54c-1.88-.17-3.71,0-5.4-1m-1.75-3.37v0a11.61,11.61,0,0,1,4.24-3.92,6.79,6.79,0,0,0,2.37-.76c2.93-1.92,5.17-3.08,8.79-3.14,2.94,0,5.76.67,8.69.26a26.51,26.51,0,0,1,10.08.09,43.92,43.92,0,0,1,4.5,1.21c1.55.5,2.49,1.66,3.78,2.54a8.68,8.68,0,0,0,6.12,1.3c2.84-.3,4.49,2.54,7.28,1.67,2.73,1.05,5.55,1.78,7.95,3.6,2.61,2,4,5.21,6.23,7.6.61.66,1.62.83,2.24,1.51s1.15,1.25,1.73,1.87c1.44,1.52,2.84,3.08,4.38,4.51a5.79,5.79,0,0,0,1.21.86,24.68,24.68,0,0,1,1.38,4.07c.81,3.58,1.48,7.19.94,10.84-.49,3.32.46,6.63-.8,9.84-.25.63-1.66,5.86-2.47,8.4a10.92,10.92,0,0,0,.32-1.84c.2-.81.4-1.62.63-2.42,1-3.46,1.3-5.62.48-9.13-1.33-5.7-.51-11.31-3.38-16.6a25.86,25.86,0,0,0-12.69-11.95c-5.57-2.49-10.58-7.68-16.89-8.18a41.75,41.75,0,0,1-10.2-2c-3.48-1.18-6.57-3.21-10.06-4.37-5.38-1.8-11-.64-16.47.51-.82.17-2.07.2-3.35.31-.09-.35-.36-.64-.74-.47-1.09.47-2.27.69-3.34,1.21-1.23.6-2,2-3.08,2.81l.12-.23m74.24,62.07a22,22,0,0,0,1.86-2.39,3.27,3.27,0,0,0,.34-2.19h0l.12-.4a7.33,7.33,0,0,0,1.52-3h0l.18.09a.14.14,0,0,0,.2-.05c1.71-3.05,2.37-6.41,3.58-9.66,1.3-3.52.39-7.2,1-10.84.51-3.19-.37-6.14-.67-9.32a21.93,21.93,0,0,0-1.12-5c.36-.31.44-1,0-2.22a32.36,32.36,0,0,0-2.93-5.59c-1.77-3-3-6.17-4.7-9.18-1.24-2.23-2.63-4.66-4.83-6.09-3-1.92-6.38-2.89-9.34-4.89s-5.81-4.11-9.39-5.28c-3.36-1.09-7-1.24-10.52-1.45-7.1-.42-14.34-1.7-21.36-.05-.55.13-1.1.3-1.64.46a.6.6,0,0,0-.36-.14,5.55,5.55,0,0,0-3.7.92,23.73,23.73,0,0,1-5.26,2.69,10.88,10.88,0,0,0-4.43,3.94c-.57.43-1.13.86-1.68,1.31-.22-.15-.47-.16-.56.22a2.47,2.47,0,0,0,0,.38,6.6,6.6,0,0,0-1.7,2.46c-.46,1-.9,2.13-1.29,3.27,0-1.41-.44-2.76-.39-4.19a7.1,7.1,0,0,1,.18-1.2,11.1,11.1,0,0,1,2.68-4.21.65.65,0,0,0,.11-.81,30.77,30.77,0,0,0,3-2.58c.26-.33-.26-1.06-.63-.72-1.26,1.19-2.86,1.92-4,3.22a7.51,7.51,0,0,0-1,1.55,15,15,0,0,0-1.84,4.65,25.94,25.94,0,0,0-1.6,3.56,6.16,6.16,0,0,0-.27,2.54,7.07,7.07,0,0,0,.13,1c-.55-.68-1.07-1.41-1.63-2.08s-1.27-1.93-2.2-2.15-.71,1-.2,1.34c1.31.76.93,2.35,2,3.18a5.2,5.2,0,0,0,1.44.79c.22.25.43.5.65.73a41,41,0,0,0-6.56-.54c-1.14.35-3.16,1.48-3,2.89-.41.61.52,1.65,1,.95.37-.5,1.27-.44,1.85-.58.92-.23,1.81-.6,2.7-.91a5.6,5.6,0,0,1,1.24-.28,3.77,3.77,0,0,0,.75,0,3.39,3.39,0,0,1,.55,0,4.56,4.56,0,0,0-.69.36,31.8,31.8,0,0,0-3.26,2.66c-1,.82-2.21,1.31-3.26,2s-1.23,1.95-1.54,3c-.79,2.79-2.5,5.13-3.29,8-.44,1.58-1.28,2.95-1.66,4.56a17.32,17.32,0,0,0-.37,3.84v-.18c0-.25-.39-.42-.39-.1s-.05.9-.09,1.35a10.77,10.77,0,0,0-.15,2.49,3.74,3.74,0,0,0,.23,2.15c0,.26.08.51.12.74s.22.23.25.06l0-.25c.07,0,.14,0,.14-.13.15-2.6,1.17-5.09,1.09-7.7a.34.34,0,0,0-.15-.27,4.85,4.85,0,0,1,.08-.53,8,8,0,0,1,1-2.45,9.84,9.84,0,0,0,.9-1.92c.8-2.61,2-4.82,3-7.32.52-1.36.75-2.78,1.76-3.92.72-.81,2.33-1.38,3.25-2a30.41,30.41,0,0,1,3.51-2.71c-.25.56-.47,1.11-.68,1.57-.36.8-.71,1.59-1,2.38a5.48,5.48,0,0,0-1.83,1.94.69.69,0,0,0-.13.21c-.21.36-.42.74-.65,1.12a.58.58,0,0,0-.07.21,15.25,15.25,0,0,0-2.25,2.86c-.55,1.21.28,2.8.26,4,0,2-1.21,4.17-1.61,6.13a38.78,38.78,0,0,0-.49,6.09c-.16,4-.5,7.56.12,11.53.58,3.69.76,7.91,2.92,11.14a48.52,48.52,0,0,0,3.22,3.94c1.34,1.6,1.8,3.64,2.49,5.56,1.15,3.15,4,5.31,6.25,7.64,2.67,2.72,6.64,4.13,9.84,6.14a22.4,22.4,0,0,0,10.39,3.68c5.53,2.14,11.81,1.9,17.7,2,.49,0,.28-.85-.16-.86-4.93-.18-9.74-.72-14.32-2.63-1.88-.78-3.83-1.25-5.73-1.85l-.6-.29c-2.34-1.11-2.71-3.27-3.94-5.2-1.62-2.55-4.59-2.76-7.08-4-3.37-1.7-4.65-5.85-6.63-8.84-1.14-1.73-3-2.85-3.5-5-.37-1.58.06-3.29-.27-4.9a8,8,0,0,0-1.75-3.42c-.45-.56-1-1-1.45-1.58-1.88-2.05-.86-3.53-.5-5.44.69-3.58,1.56-7.06,2-10.69a11.43,11.43,0,0,0-.25-4.12c-.4-1.69-1.13-2.36-.77-4.24a15.37,15.37,0,0,0,.07-4.23,25.45,25.45,0,0,1,.34-6.16,1,1,0,0,0,0-.17,6.33,6.33,0,0,0,.45-1c0-.11.08-.27.13-.42s.1-.23.16-.34a26.37,26.37,0,0,1,1.77-3.61,9.65,9.65,0,0,0,.21,2.6,5.26,5.26,0,0,0-.22,1,.91.91,0,0,0,.37.88c-.09,4.49,1,8.89,1.44,13.38a37.18,37.18,0,0,0,1.39,7.62c.75,2.29,2.1,4.37,3.07,6.57,1.89,4.29-.56,8.45.74,12.66,1.55,5,7.28,7.06,10.32,11s4.16,8.14,8.44,10.83c2.63,1.66,5.81,2.36,8.55,3.82a10.5,10.5,0,0,0,5.93,1.46c2.59-.17,5-1.45,7.55-1.71s5.5,1.19,8.2,1.45c4.3.4,8.21-2.47,11.55-4.9a7,7,0,0,0,4.52-2.74.55.55,0,0,0-.56-.81c-1.18.29-2,1.09-3.26,1.25a3.47,3.47,0,0,1-.79,0c-3.6-2.5-6.95-2-11.28-1.71-2.27.16-3.36-2.33-5.21-3.29-1.57-.82-3.6-.57-5.3-.56a13.55,13.55,0,0,1-9-3.13c-1.81-1.54-2.73-4-4.37-5.71a25.5,25.5,0,0,0-5.19-3.81,25.63,25.63,0,0,1-6.93-6.11c-1.69-2.13-2-4.57-2.76-7.09-.7-2.35-2.57-4.15-3.11-6.51-.42-1.83-.37-3.66-1-5.45s-2.06-2.89-3.32-4.05c-2.16-2-1.7-5.08-2.45-7.65a16.62,16.62,0,0,0-3.23-5.19,9.44,9.44,0,0,0-2.31-2.26,5.56,5.56,0,0,1-.08-.81,9.67,9.67,0,0,0,3.22,1.88c2.38,1,4.34,1.59,6.25,3.46,2.19,2.15,2.71,5,3.47,7.83,1.1,4.06,3.77,5.55,7.51,7,2.78,1.06,3.83,3.33,6.14,4.95a17.18,17.18,0,0,0,6.47,2.9c1.55.34,2.58,5.41,3.29,6.71a7,7,0,0,0,4.32,3.69,35.72,35.72,0,0,1,4.25,1.17c1.4.64,2.65,1.61,4,2.3,2.19,1.08,4.19.49,6.42,0,3.74-.77,5.36,1.31,7.43,3.95a5.46,5.46,0,0,0,1.66,1.14c2,1.17,1.29,2.49,1.58,4.16a4.5,4.5,0,0,0,5.25,3.59,3,3,0,0,0,1.86.3c.63,0,1.08.44,1.69.47a2.9,2.9,0,0,0,1.08-.34.36.36,0,0,0,.38-.06.91.91,0,0,1,.23,0c.49.13.57-.55.32-.87l0,0a.18.18,0,0,0,0-.21.35.35,0,0,0,.12-.1"/></clipPath><linearGradient id="linear-gradient-25" x1="1353.23" y1="2134.82" x2="1354.22" y2="2134.82" gradientTransform="matrix(103.87, 0, 0, -103.87, -138549.21, 225131.02)" xlink:href="#linear-gradient-12"/><clipPath id="clip-path-26" transform="translate(-1761.46 -3045.89)"><path class="cls-1" d="M1918.5,3372.33c1-21.14,19.56-37.47,41.51-36.46s39,19,38,40.1-19.55,37.47-41.51,36.47a43.76,43.76,0,0,1-4.77-.5c-19.6-3.18-34.12-20-33.23-39.61"/></clipPath><linearGradient id="linear-gradient-26" x1="1370.89" y1="2130.51" x2="1371.62" y2="2130.51" gradientTransform="matrix(0, 109.32, 105.27, 0, -222322.61, -146530.79)" xlink:href="#linear-gradient-11"/><clipPath id="clip-path-27" transform="translate(-1761.46 -3045.89)"><path class="cls-1" d="M1945.16,3338.05l1.3-.41-.63.23a.3.3,0,0,0-.16.28c-.49.08-1,.18-1.45.28l.94-.38m26,9.16a2.94,2.94,0,0,0,0-1.38c.45.39.88.8,1.31,1.21a7.79,7.79,0,0,0,.34.72c.26.48.59.81.85,1.21a16.41,16.41,0,0,0,.45,2,3.11,3.11,0,0,0,.11.58,2.3,2.3,0,0,0,.22.48,48.46,48.46,0,0,0,1.92,4.52c1.64,3.56-1.12,6.08-1.26,9.6-.07,1.69.13,3.37.22,5.06a51.25,51.25,0,0,1-.27,5.54,30.74,30.74,0,0,0,.29,4.7c.24,2.29-.82,3.86-2,5.65a9.17,9.17,0,0,0-1.35,3c-.42,1.59.28,3.3,0,4.92s-2,2.88-2.69,4.19a9.93,9.93,0,0,0-.67,2.38c-.57,2.21-1.63,2.3-3.27,2.95a27.26,27.26,0,0,0-3.66,1.95,17.48,17.48,0,0,1-2.37,1.36,22.81,22.81,0,0,1-2.27.42c-1.16.3-2.09,1.11-3.26,1.42-.56.15-1,.15-1.39.3a.67.67,0,0,0-.9.29,1.71,1.71,0,0,0-.07.26,4.08,4.08,0,0,1-.92.13.41.41,0,0,0-.37.45l-.09,0h-.11a6.84,6.84,0,0,0-1.85-.22l-.1,0a.33.33,0,0,0,0-.24,1.27,1.27,0,0,1-.09-.43,4.67,4.67,0,0,1,.65-1c.55-.46,1-1.25,1.33-1.5,2.7-2.25,6-2.6,7.33-6.25.64-1.72,1.58-3.49,2-5.26.53-2-.12-3.31-1.1-5-1.4-2.5,2.38-4.1,3.61-5.56,1.55-1.81,1.82-4.05,2.67-6.2a29.38,29.38,0,0,0,1.9-5.53,9.41,9.41,0,0,0-.11-2.85,5.72,5.72,0,0,1,1-4.4,8.13,8.13,0,0,0,1.68-4.21,6.15,6.15,0,0,1,1.54-4.24,4.92,4.92,0,0,0,1.06-2,11,11,0,0,0,.26-4.94c-.34-1.34-.88-2.57-.58-4m1.91-2h0a8.63,8.63,0,0,1,3.73,2,4.84,4.84,0,0,0,1.09,1.46c2,1.57,3.37,2.84,4.27,5.32.74,2,.93,4.15,1.92,6.08a19.74,19.74,0,0,1,2.35,7c.13,1.13.22,2.26.24,3.4a11.35,11.35,0,0,1-.86,3.23,6.4,6.4,0,0,0,.57,4.54c.89,1.89-.68,3.71.59,5.43-.07,2.14.1,4.27-.58,6.36-.76,2.29-2.64,4-3.77,6.13-.31.59-.19,1.32-.51,1.92l-.87,1.64c-.71,1.36-1.45,2.71-2.07,4.11a4.38,4.38,0,0,0-.31,1.05,18.64,18.64,0,0,1-2.48,1.92,21.61,21.61,0,0,1-7.27,3.25c-2.41.46-4.47,1.91-7,1.81-.5,0-4.45.25-6.4.3a8.64,8.64,0,0,0,1.35-.22c.6-.06,1.21-.11,1.82-.14a11.55,11.55,0,0,0,6.43-1.86c3.63-2.29,7.7-3.06,10.67-6.31a19,19,0,0,0,5.23-11.64c.38-4.45,2.77-9.16,1.61-13.64a30.92,30.92,0,0,1-1.09-7.53c0-2.69.65-5.31.62-8,0-4.15-2.21-7.79-4.3-11.27a23.17,23.17,0,0,1-1-2.24c.22-.14.35-.4.15-.62-.59-.64-1-1.41-1.64-2s-1.87-.87-2.68-1.46l.19,0m-25.14,66.22a16.27,16.27,0,0,0,2.1.71,2.38,2.38,0,0,0,1.59-.29h.32a5.21,5.21,0,0,0,2.46.32h0l0,.15a.11.11,0,0,0,.08.13c2.52.45,5,.1,7.54.15,2.75.06,5.07-1.45,7.73-1.92,2.33-.41,4.16-1.73,6.28-2.7a15.56,15.56,0,0,0,3.18-2c.29.17.8.06,1.54-.52a23.48,23.48,0,0,0,3.16-3.37c1.63-1.93,3.54-3.57,5.22-5.45a11.86,11.86,0,0,0,3.06-4.8c.61-2.52.47-5.11,1.14-7.63a27,27,0,0,0,1.4-7.76,30.66,30.66,0,0,0-1.52-7.62c-1.4-5-2.26-10.33-5.08-14.78-.22-.36-.47-.69-.71-1a.45.45,0,0,0,0-.28,4.07,4.07,0,0,0-1.52-2.34,16.72,16.72,0,0,1-3.12-3,8.17,8.17,0,0,0-3.79-2.12c-.43-.29-.87-.57-1.31-.84.06-.19,0-.36-.28-.33l-.28,0a4.72,4.72,0,0,0-2.11-.58c-.8-.08-1.69-.12-2.57-.12,1-.32,1.8-1,2.81-1.27a6.09,6.09,0,0,1,.87-.17,8.29,8.29,0,0,1,3.55.85.48.48,0,0,0,.59-.12,20.1,20.1,0,0,0,2.49,1.42c.29.11.67-.43.35-.6-1.13-.59-2-1.52-3.19-2a5.36,5.36,0,0,0-1.31-.33,11,11,0,0,0-3.66-.16,18,18,0,0,0-2.85-.25,4.62,4.62,0,0,0-1.82.42,3.93,3.93,0,0,0-.68.34c.34-.55.72-1.08,1-1.63s1-1.34,1-2-.89-.25-1,.18c-.22,1.08-1.41,1.21-1.74,2.12a3.71,3.71,0,0,0-.19,1.19c-.13.21-.25.41-.36.62a29,29,0,0,0-1.2-4.66c-.51-.71-1.78-1.84-2.7-1.37-.52-.14-1,.76-.41.95.43.14.61.78.84,1.15.38.58.85,1.11,1.28,1.65a3.54,3.54,0,0,1,.49.79,2.75,2.75,0,0,0,.21.51c0,.13.07.26.1.39a4,4,0,0,0-.42-.39,22.48,22.48,0,0,0-2.62-1.62c-.8-.48-1.43-1.21-2.19-1.76a3.65,3.65,0,0,0-2.48-.34c-2.12.12-4.15-.5-6.29-.37-1.2.08-2.35-.18-3.55,0a12.42,12.42,0,0,0-2.74.66l.12,0c.18-.07.2-.37,0-.3s-.64.18-1,.27a7.48,7.48,0,0,0-1.75.48,2.88,2.88,0,0,0-1.44.68l-.48.26c-.07,0-.11.21,0,.19l.19,0c0,.05,0,.09.13.07,1.83-.52,3.79-.41,5.58-1.1a.25.25,0,0,0,.15-.17l.38-.07a5.8,5.8,0,0,1,1.94.13,7.49,7.49,0,0,0,1.55.16c2-.07,3.82.26,5.79.33a8.49,8.49,0,0,1,3.13.28,15.36,15.36,0,0,1,2.19,1.76,21.39,21.39,0,0,1,2.71,1.77l-1.25-.09-1.89-.16a4,4,0,0,0-1.78-.79.34.34,0,0,0-.18,0l-.93-.19h-.17a11.47,11.47,0,0,0-2.51-.87c-1-.08-1.87.87-2.73,1.15-1.38.46-3.18.16-4.62.36a28.22,28.22,0,0,0-4.34,1.12,41.51,41.51,0,0,0-7.94,2.84c-2.42,1.29-5.29,2.43-7,4.69a35.44,35.44,0,0,0-2,3.17,12.8,12.8,0,0,1-3.25,3.06c-1.9,1.55-2.72,4-3.78,6.15-1.25,2.5-1.27,5.58-1.89,8.27a16.46,16.46,0,0,0-.06,8.07c-.15,4.34,1.52,8.63,2.87,12.72.12.34.66,0,.56-.32a30,30,0,0,1-1.62-10.53c.09-1.49,0-2.95-.09-4.4l.06-.49c.21-1.88,1.61-2.66,2.65-4,1.38-1.73.81-3.84,1.09-5.86.37-2.74,2.93-4.62,4.52-6.7.92-1.2,1.26-2.77,2.61-3.62,1-.63,2.29-.75,3.32-1.36a5.92,5.92,0,0,0,2-2c.27-.45.49-.92.74-1.38,1-1.79,2.24-1.44,3.65-1.65,2.64-.38,5.25-.62,7.86-1.2a8.56,8.56,0,0,0,2.79-1.16c1.07-.68,1.36-1.35,2.75-1.55a10.92,10.92,0,0,0,2.94-1,19.08,19.08,0,0,1,4.34-1.24.28.28,0,0,0,.12,0,4.76,4.76,0,0,0,.81.06h.33l.27,0a20.3,20.3,0,0,1,2.92.36,6.86,6.86,0,0,0-1.74.77,4,4,0,0,0-.77.09.69.69,0,0,0-.52.47c-3.12,1-5.91,2.8-8.9,4.2a27,27,0,0,0-4.94,2.79c-1.4,1.07-2.52,2.5-3.81,3.69-2.51,2.34-6,1.64-8.57,3.55-3.07,2.26-3.14,6.73-5.12,9.77s-4.63,4.83-5.47,8.43c-.51,2.22-.24,4.58-.59,6.83a7.68,7.68,0,0,0,.41,4.45c.74,1.75,2.2,3.09,3,4.81s.5,4.09,1,6c.75,3.07,3.67,5.08,6.15,6.81a5.17,5.17,0,0,0,3,2.48.41.41,0,0,0,.43-.59c-.48-.74-1.24-1.12-1.65-2a2.41,2.41,0,0,1-.2-.53c.87-3.1-.27-5.3-1.52-8.22-.66-1.53.81-2.88,1-4.39.18-1.28-.48-2.62-.89-3.79a10,10,0,0,1,0-7c.64-1.62,2.1-2.84,2.91-4.39a18.63,18.63,0,0,0,1.39-4.5,18.94,18.94,0,0,1,2.56-6.26c1.07-1.67,2.69-2.48,4.25-3.6s2.25-2.78,3.75-3.72a32.32,32.32,0,0,0,3.53-2,8.13,8.13,0,0,0,2-3.27c.85-2,3.1-2.39,4.7-3.52a12.16,12.16,0,0,0,2.81-3.48,6.65,6.65,0,0,0,1-2.14,3.87,3.87,0,0,1,.55-.25,7,7,0,0,0-.54,2.68,12,12,0,0,1-.89,5.15c-1,2-2.82,3.07-4.58,4.27-2.54,1.74-2.93,3.94-3,6.87-.07,2.18-1.39,3.45-2,5.43a12.6,12.6,0,0,0-.46,5.17c.14,1.15-3.12,3.08-3.85,3.88a5.16,5.16,0,0,0-1.51,3.88,28.52,28.52,0,0,1,.21,3.21c-.11,1.13-.49,2.23-.63,3.35-.22,1.77.67,3,1.52,4.45,1.43,2.4.38,4-1,6.09a4.05,4.05,0,0,0-.39,1.42c-.34,1.64-1.41,1.49-2.5,2.09a3.29,3.29,0,0,0-1.22,4.49,2.16,2.16,0,0,0,.23,1.36c.17.43,0,.85.09,1.28a2,2,0,0,0,.48.66.27.27,0,0,0,.14.25c0,.05,0,.1,0,.16,0,.37.51.26.67,0l0,0a.12.12,0,0,0,.15,0l.1.06"/></clipPath><linearGradient id="linear-gradient-27" x1="1371.25" y1="2130.23" x2="1371.97" y2="2130.23" gradientTransform="matrix(0, 103.87, 103.87, 0, -219308.74, -139095)" xlink:href="#linear-gradient-12"/><clipPath id="clip-path-28" transform="translate(-1761.46 -3045.89)"><path class="cls-1" d="M1826,3462.32c-28.31-14.1-39.4-49.35-24.77-78.75s49.45-41.8,77.76-27.71,39.4,49.35,24.76,78.74a62,62,0,0,1-3.55,6.23c-16.18,24.86-48,34.54-74.2,21.49"/></clipPath><linearGradient id="linear-gradient-28" x1="1355.54" y1="2134.21" x2="1356.63" y2="2134.21" gradientTransform="matrix(109.32, 0, 0, -105.27, -146394.82, 228078.61)" xlink:href="#linear-gradient-11"/><clipPath id="clip-path-29" transform="translate(-1761.46 -3045.89)"><path class="cls-1" d="M1795.28,3405.18c.08-.67.17-1.34.23-2q0,.51-.06,1a.44.44,0,0,0,.27.4c-.17.71-.33,1.43-.47,2.14l0-1.51m28.2-29.95a4.32,4.32,0,0,0-1.87-.87c.81-.38,1.62-.72,2.44-1.05.4,0,.79,0,1.2,0,.81-.07,1.46-.33,2.16-.44a27.21,27.21,0,0,0,3,.59,4.44,4.44,0,0,0,.87.2,3.5,3.5,0,0,0,.79,0,70.7,70.7,0,0,0,7.33.11c5.85-.09,7.64,5.21,12.35,7.52,2.28,1.12,4.69,1.86,7.06,2.75,2.59,1,5,2.5,7.41,3.72a46.65,46.65,0,0,0,6.6,2.45c3.27,1.05,4.78,3.44,6.47,6.21a14,14,0,0,0,3.25,3.64c1.92,1.53,4.68,1.61,6.76,2.91,1.89,1.19,2.75,4.42,4.08,6.21a16.11,16.11,0,0,0,2.85,2.36c2.69,2.1,2.17,3.6,2.07,6.25a40.07,40.07,0,0,0,.45,6.18,26.38,26.38,0,0,1,.43,4.06,33.11,33.11,0,0,1-.8,3.35c-.29,1.76.25,3.52,0,5.32-.13.85-.41,1.45-.43,2.07a1,1,0,0,0-.15,1.41c.11.11.21.17.31.26a6.21,6.21,0,0,1-.38,1.32.61.61,0,0,0,.39.78.75.75,0,0,0-.07.12l-.09.14a10.4,10.4,0,0,0-1.42,2.39.8.8,0,0,0,0,.15.5.5,0,0,0-.32-.14,2.21,2.21,0,0,1-.64-.14,7,7,0,0,1-1-1.5c-.29-1-1.08-2.16-1.24-2.72-1.45-5.05.07-9.77-4.11-13.8-2-1.9-3.83-4.26-6-6-2.4-1.93-4.6-1.83-7.56-1.55-4.27.41-4.18-5.72-5.41-8.29-1.55-3.2-4.45-4.93-6.87-7.39a44,44,0,0,0-6.42-5.93,13.68,13.68,0,0,0-4-1.58,8.5,8.5,0,0,1-5.44-4c-1.26-1.88-2.61-3.87-4.75-4.83a9.19,9.19,0,0,1-4.86-4.66,7.4,7.4,0,0,0-2.07-2.66,16.63,16.63,0,0,0-6.61-3.34c-2-.35-4-.35-5.79-1.6m-1.61-3.84,0,0a12.68,12.68,0,0,1,5-3.89,7.43,7.43,0,0,0,2.66-.62c3.37-1.83,5.91-2.89,9.86-2.63,3.2.22,6.22,1.25,9.45,1.06a29.39,29.39,0,0,1,11,1c1.63.51,3.22,1.07,4.79,1.73s2.56,2,3.89,3.11a9.53,9.53,0,0,0,6.56,2c3.12-.07,4.66,3.17,7.78,2.47,2.88,1.39,5.89,2.44,8.33,4.64,2.67,2.41,3.91,6,6.11,8.85.61.78,1.69,1,2.31,1.85l1.72,2.19c1.43,1.79,2.81,3.62,4.37,5.31a6.41,6.41,0,0,0,1.24,1A27.88,27.88,0,0,1,1908,3404c.56,4,1,8,0,11.9-.84,3.57-.09,7.26-1.76,10.65-.33.66-2.34,6.23-3.44,8.93a14.28,14.28,0,0,0,.51-2c.28-.87.57-1.73.9-2.59,1.39-3.68,1.92-6,1.34-9.9-.93-6.34.47-12.37-2.18-18.4a28.35,28.35,0,0,0-12.75-14.17c-5.85-3.21-10.85-9.32-17.67-10.44a45.63,45.63,0,0,1-10.94-3.06c-3.69-1.6-6.87-4.09-10.57-5.68-5.71-2.44-12-1.69-18-.93a35.65,35.65,0,0,1-3.68,0c-.07-.38-.34-.72-.76-.58-1.24.42-2.54.55-3.76,1-1.39.54-2.31,2-3.61,2.79l.15-.25m75.33,74.35a25.4,25.4,0,0,0,2.24-2.43,3.63,3.63,0,0,0,.56-2.36v0c0-.14.11-.28.16-.43a7.85,7.85,0,0,0,1.93-3.17h0l.18.11a.16.16,0,0,0,.22,0c2.14-3.17,3.17-6.78,4.77-10.21,1.74-3.72,1.08-7.81,2-11.73.85-3.44.15-6.73.11-10.22a23.62,23.62,0,0,0-.77-5.52c.42-.3.56-1.06.22-2.41a34.47,34.47,0,0,0-2.69-6.36c-1.66-3.4-2.75-7-4.3-10.43-1.15-2.55-2.44-5.32-4.71-7.07-3.07-2.37-6.7-3.73-9.74-6.18s-6-5-9.76-6.59c-3.56-1.49-7.54-2-11.33-2.53-7.7-1.11-15.48-3.15-23.27-2-.62.09-1.23.23-1.84.36a.66.66,0,0,0-.37-.19,6.09,6.09,0,0,0-4.12.67,25.88,25.88,0,0,1-6,2.46c-2.28.73-3.74,2.29-5.18,3.89-.66.42-1.31.84-1.95,1.28-.22-.19-.5-.21-.62.19a2,2,0,0,0-.09.41,7.1,7.1,0,0,0-2.08,2.53c-.59,1-1.17,2.24-1.7,3.44.14-1.54-.24-3-.05-4.6a8.59,8.59,0,0,1,.3-1.29,12.07,12.07,0,0,1,3.31-4.34.73.73,0,0,0,.18-.88,29.48,29.48,0,0,0,3.45-2.55c.32-.33-.18-1.18-.61-.83-1.49,1.18-3.29,1.83-4.67,3.15a8.08,8.08,0,0,0-1.24,1.59,16.61,16.61,0,0,0-2.42,4.9,27.67,27.67,0,0,0-2.07,3.74,6.79,6.79,0,0,0-.52,2.75,7,7,0,0,0,0,1.12c-.54-.78-1-1.62-1.6-2.41s-1.2-2.22-2.19-2.54-.87,1.07-.34,1.44c1.36,1,.8,2.65,1.85,3.65a5.67,5.67,0,0,0,1.51,1q.32.45.63.87c-2.47-.54-6.43-1.32-7.09-1.18-1.28.27-3.58,1.32-3.5,2.87-.5.63.41,1.85,1.05,1.13.46-.51,1.43-.36,2.07-.46,1-.17,2-.49,3-.75a5.82,5.82,0,0,1,1.37-.2,3.73,3.73,0,0,0,.82,0,5.58,5.58,0,0,1,.59.09,6.59,6.59,0,0,0-.78.34,33.58,33.58,0,0,0-3.8,2.6c-1.13.81-2.52,1.23-3.73,1.93s-1.51,2-2,3.19c-1.12,3-3.19,5.36-4.3,8.36-.63,1.69-1.67,3.11-2.23,4.83a19.28,19.28,0,0,0-.74,4.14c0-.06,0-.13,0-.19,0-.28-.39-.49-.42-.14s-.13,1-.21,1.46a11.35,11.35,0,0,0-.4,2.7,4.24,4.24,0,0,0,.06,2.37c0,.28,0,.55.07.81s.21.27.26.09l.06-.27c.08,0,.15,0,.17-.13.4-2.82,1.73-5.44,1.88-8.3a.4.4,0,0,0-.15-.3c0-.19.09-.38.14-.57a8.59,8.59,0,0,1,1.34-2.58,10.68,10.68,0,0,0,1.16-2c1.1-2.78,2.65-5.07,3.94-7.71.69-1.43,1.07-3,2.27-4.11.86-.82,2.66-1.29,3.73-1.93,1.44-.86,2.51-2,4.06-2.64-.31.59-.6,1.16-.88,1.65-.46.84-.92,1.66-1.36,2.5a6,6,0,0,0-2.16,2,.55.55,0,0,0-.16.22c-.27.37-.53.76-.81,1.16a.67.67,0,0,0-.1.23c-.89,1-2,1.69-2.71,2.9s0,3.08-.07,4.43c-.21,2.16-1.7,4.44-2.31,6.53a42.27,42.27,0,0,0-1.09,6.6c-.53,4.32-1.23,8.2-.91,12.57.3,4.09.12,8.7,2.18,12.41a53.24,53.24,0,0,0,3.15,4.59c1.32,1.86,1.63,4.13,2.22,6.28,1,3.54,3.85,6.15,6.12,8.89,2.66,3.21,6.87,5.1,10.17,7.58a24.36,24.36,0,0,0,11,4.94c5.83,2.83,12.7,3.14,19.11,3.76.54.05.39-.9-.09-.95-5.36-.64-10.55-1.67-15.38-4.15-2-1-4.06-1.72-6.07-2.53l-.63-.38c-2.44-1.42-2.66-3.8-3.82-6-1.53-2.92-4.76-3.43-7.36-5-3.51-2.16-4.54-6.79-6.43-10.24-1.08-2-3-3.38-3.37-5.74-.25-1.75.37-3.58.16-5.36a8.75,8.75,0,0,0-1.61-3.89c-.44-.65-1-1.23-1.43-1.85-1.87-2.4-.63-3.93,0-6,1.07-3.84,2.33-7.55,3.11-11.47a12.66,12.66,0,0,0,.09-4.51c-.28-1.88-1-2.68-.46-4.7a16.17,16.17,0,0,0,.46-4.6,28.52,28.52,0,0,1,.92-6.68.58.58,0,0,0,0-.19,7,7,0,0,0,.57-1.07c0-.13.12-.29.19-.45s.13-.25.2-.36a29.78,29.78,0,0,1,2.25-3.77,10.47,10.47,0,0,0,0,2.85,5.5,5.5,0,0,0-.35,1.1,1,1,0,0,0,.33,1c-.49,4.89.25,9.78.37,14.71a39.71,39.71,0,0,0,.83,8.43c.61,2.57,1.89,5,2.75,7.44,1.68,4.85-1.38,9.16-.33,13.87,1.24,5.55,7.29,8.34,10.25,12.88s3.81,9.25,8.23,12.57c2.71,2.05,6.11,3.1,9,4.94a11.49,11.49,0,0,0,6.34,2.12c2.83.05,5.54-1.13,8.37-1.18s5.9,1.79,8.81,2.31c4.65.83,9.17-1.94,13-4.29a7.69,7.69,0,0,0,5.18-2.58.6.6,0,0,0-.54-.93c-1.31.2-2.28,1-3.67,1.07a4.1,4.1,0,0,1-.86-.06c-3.7-3.05-7.4-2.83-12.14-2.88-2.49,0-3.45-2.84-5.38-4.06-1.65-1-3.88-.93-5.73-1.07a14.91,14.91,0,0,1-9.58-4.23c-1.84-1.85-2.62-4.59-4.25-6.63a27.55,27.55,0,0,0-5.32-4.61,28.38,28.38,0,0,1-7-7.29c-1.64-2.47-1.76-5.17-2.36-8-.56-2.62-2.43-4.75-2.81-7.37-.29-2-.08-4-.6-6s-2-3.33-3.26-4.72c-2.17-2.36-1.39-5.68-2-8.55-.44-2.15-1.86-4.16-3-5.95a10.33,10.33,0,0,0-2.32-2.67,6.76,6.76,0,0,1,0-.9,10.54,10.54,0,0,0,3.34,2.35c2.51,1.24,4.58,2.12,6.5,4.33,2.19,2.54,2.5,5.71,3.07,8.85.84,4.52,3.61,6.38,7.56,8.28,2.94,1.41,3.88,4,6.24,6a19,19,0,0,0,6.8,3.74c1.65.52,2.32,6.14,3,7.61a7.67,7.67,0,0,0,4.38,4.41c1.53.65,3,.83,4.52,1.66s2.74,2,4.2,2.87c2.28,1.38,4.52.91,7,.61,4.14-.5,5.73,1.92,7.74,5a6.22,6.22,0,0,0,1.71,1.39c2,1.46,1.18,2.83,1.35,4.68a4.9,4.9,0,0,0,5.39,4.38,3.25,3.25,0,0,0,2,.5c.68,0,1.13.58,1.8.66a3.09,3.09,0,0,0,1.2-.27.4.4,0,0,0,.42,0,1.07,1.07,0,0,1,.25,0c.52.19.67-.55.42-.92h0a.19.19,0,0,0,.06-.23.41.41,0,0,0,.14-.1"/></clipPath><linearGradient id="linear-gradient-29" x1="1355.1" y1="2133.98" x2="1356.19" y2="2133.98" gradientTransform="matrix(103.87, 0, 0, -103.87, -138958.91, 225065.23)" xlink:href="#linear-gradient-12"/></defs><g id="w"><g class="cls-2"><rect class="cls-3" x="749.59" y="214.17" width="12.95" height="114.45"/></g><g class="cls-4"><rect class="cls-5" x="756.17" y="211.08" width="15.07" height="117.53"/></g><g class="cls-6"><rect class="cls-7" x="703.68" y="214.17" width="12.95" height="87.09"/></g><g class="cls-8"><rect class="cls-9" x="710.16" y="183.52" width="15.07" height="117.53"/></g><g class="cls-10"><rect class="cls-11" x="426.37" y="225.36" width="12.4" height="114.45"/></g><g class="cls-12"><rect class="cls-13" x="418.03" y="222.28" width="14.43" height="117.53"/></g><g class="cls-14"><rect class="cls-15" x="470.42" y="221.01" width="12.4" height="87.09"/></g><g class="cls-16"><rect class="cls-17" x="462.08" y="190.56" width="14.43" height="117.53"/></g><g class="cls-18"><rect class="cls-19" x="340.92" y="212.95" width="458.3" height="14.93"/></g><path class="cls-20" d="M2308.05,3154.72s21.41,4.15,25.79,21c0,0,9.25,24.53,12.08,51.12l.3,3.63-62.35,6.58s-12.12-34.33-14.89-47.93c0,0,.2-12.28,1.49-17.06,0,0,8.21.8,12.93-1.56C2283.4,3170.48,2299.39,3167.82,2308.05,3154.72Z" transform="translate(-1761.46 -3045.89)"/><g class="cls-21"><rect class="cls-22" x="340.92" y="182.72" width="458.3" height="34.82"/></g><ellipse class="cls-23" cx="594.42" cy="202.04" rx="42.66" ry="9.43"/><ellipse class="cls-23" cx="432.46" cy="205.28" rx="49.09" ry="9.43"/><ellipse class="cls-23" cx="704.65" cy="199.98" rx="42.66" ry="9.43"/><g class="cls-24"><rect class="cls-25" x="673.4" y="127.71" width="80.74" height="77.76"/></g><g class="cls-26"><rect class="cls-27" x="673.94" y="127.51" width="77.03" height="78.4"/></g><path class="cls-28" d="M2488.2,3179.7a4.13,4.13,0,0,0-1.91.19.23.23,0,0,0-.2-.14c-.83-.12-1.66-.18-2.48-.34a6.53,6.53,0,0,1-2.48-1.18c-.33-.22-.71.29-.6.59a1.3,1.3,0,0,0,.08.17c-.31,1.44,2.14,2.22,3.25,2.27h0a6,6,0,0,0,1,.09,6.3,6.3,0,0,0,2.75-.35,1.26,1.26,0,0,0,.76-.59c.15-.27.15-.64-.22-.71" transform="translate(-1761.46 -3045.89)"/><g class="cls-29"><rect class="cls-30" x="2127.77" y="3209.78" width="72.92" height="50.11" transform="translate(-2165.66 -2735.3) rotate(-7.51)"/></g><path class="cls-31" d="M2153.12,3233.81c22,18.56,56.77,23,79.52,9.55s20-42.59,20-42.59h0c-1.34.59-3.33,1.43-5.86,2.39-15.5,5.85-32.44,9.28-50.42,10.92-14.75,1.34-29.82,1.92-45,2a45.49,45.49,0,0,1-7.88-.31c-1.76-.3-3.07-.62-4.11-.9.33,4.05,3.37,10.18,13.7,18.9" transform="translate(-1761.46 -3045.89)"/><path class="cls-32" d="M2234.93,3210.9c-3.18-.54-5.8,1.24-8.18,2.18a63,63,0,0,1-8.73,2.52c-3.68.87-7.41,1.65-11.21,2.31q-6.17,1.07-12.57,1.6l-2,.15a148.82,148.82,0,0,1-16.53.26c-1.32-.05-2.68-.22-4-.33a113.06,113.06,0,0,0-13.09-.49c-2.21.07-8.42.37-5.19,3.31,1.79,1.62,6.9,4.12,9.22,5.07a82.23,82.23,0,0,0,17.71,5.08,83.5,83.5,0,0,0,11.42,1.13c11.41.37,22.51-1.85,30.53-7a48.07,48.07,0,0,0,10.72-9c.63-.75,5.57-6.18,1.95-6.82Z" transform="translate(-1761.46 -3045.89)"/><path class="cls-33" d="M2134.39,3215c0,3.48,2.81,25.25,22.42,33.86,0,0,4.94,1.78,8.82,2.77,4.57,1.16,9.86,2,9.86,2-30.28-11-39.53-34.49-41.08-39.09Z" transform="translate(-1761.46 -3045.89)"/><path class="cls-34" d="M2176,3225.3s-2.68,2.21-.66,2.86.66-2.86.66-2.86" transform="translate(-1761.46 -3045.89)"/><path class="cls-34" d="M2222.36,3229.65s3.72,2.41,2.16,3-1.84-2.37-2.16-3" transform="translate(-1761.46 -3045.89)"/><path class="cls-34" d="M2209.83,3225.58s4.27,1.61,3.1,2.57-2.57-2-3.1-2.57" transform="translate(-1761.46 -3045.89)"/><path class="cls-34" d="M2194.14,3226.7s1.68,3.36-.22,3.1,0-2.51.22-3.1" transform="translate(-1761.46 -3045.89)"/><path class="cls-34" d="M2208,3233.67s3.39,2.7,1.7,3.12-1.48-2.47-1.7-3.12" transform="translate(-1761.46 -3045.89)"/><path class="cls-34" d="M2188.9,3235.21s.86,3.66-.85,3.37.56-2.72.85-3.37" transform="translate(-1761.46 -3045.89)"/><path class="cls-35" d="M2139.42,3214.91s13,36.2,62.15,36.26c0,0,52.66,3.63,51.09-50.4l2-1.88s10.11,57-56.35,56.54c0,0-47.9-.67-63.38-41.38Z" transform="translate(-1761.46 -3045.89)"/><path class="cls-36" d="M2278.82,3168.67c0,.45,5.21,10.71,13.75,8.73,0,0,14.27-3,9.91-18.22s-23.66,9.49-23.66,9.49" transform="translate(-1761.46 -3045.89)"/><path class="cls-37" d="M2278.82,3168.67c0,.45,5.21,10.71,13.75,8.73,0,0,14.27-3,9.91-18.22S2278.82,3168.67,2278.82,3168.67Z" transform="translate(-1761.46 -3045.89)"/><path class="cls-38" d="M2315.59,3116.14c.68-.48,5.2-14,9.72-10.93s5.2,21-4.48,28.79-5.24-17.86-5.24-17.86" transform="translate(-1761.46 -3045.89)"/><path class="cls-39" d="M2315.59,3116.14c.68-.48,5.2-14,9.72-10.93s5.2,21-4.48,28.79S2315.59,3116.14,2315.59,3116.14Z" transform="translate(-1761.46 -3045.89)"/><path class="cls-40" d="M2315,3120.08a22.79,22.79,0,0,1,5.89-9.62,2,2,0,0,1,1.33-.7c.79,0,1.22.92,1.48,1.67a9.46,9.46,0,0,1,.63,2.71c.07,2.17-1.33,4.13-1.54,6.28-.16,1.58.32,3.24-.24,4.73a3.6,3.6,0,0,1-2.86,2.25,2.32,2.32,0,0,1-1.08-.1,2.2,2.2,0,0,1-1.18-2.31,6.46,6.46,0,0,1,1.06-2.56,6.35,6.35,0,0,0,1.07-2.55.85.85,0,0,0-.1-.61,1,1,0,0,0-.86-.27h-2.56c0-.55,0-1.1-.07-1.65" transform="translate(-1761.46 -3045.89)"/><path class="cls-38" d="M2241.13,3139.64c-.71-.06-10-8.07-12-3.81s5.51,17.81,16,19.3-4.08-15.49-4.08-15.49" transform="translate(-1761.46 -3045.89)"/><path class="cls-39" d="M2241.13,3139.64c-.71-.06-10-8.07-12-3.81s5.51,17.81,16,19.3S2241.13,3139.64,2241.13,3139.64Z" transform="translate(-1761.46 -3045.89)"/><path class="cls-40" d="M2242.24,3143.7a17.67,17.67,0,0,0-7.69-4.06,1.47,1.47,0,0,0-1.15.06c-.5.34-.43,1.09-.3,1.69a7.27,7.27,0,0,0,.66,2c.81,1.47,2.51,2.21,3.51,3.56.72,1,1.07,2.28,2,3a2.78,2.78,0,0,0,2.76.37,1.5,1.5,0,0,0,.53-2.49,4.93,4.93,0,0,0-1.71-1.28,5.17,5.17,0,0,1-1.72-1.27.73.73,0,0,1-.17-.44c0-.24.25-.4.46-.52l1.68-1-.61-1.12" transform="translate(-1761.46 -3045.89)"/><path class="cls-41" d="M2232.22,3130.27s5.24,20.33,17.54,32.7,29.55,10.55,44.08,4c15.6-7,27.42-23,26.76-33.36s-6.14-35.42-6.14-35.42l-6.42-27.78s-15.79-5.57-16.73-5.53-43.87,13.54-44.76,14-24.35,19.41-24.78,20.32,5.52,21,5.69,21.44,4.76,9.61,4.76,9.61" transform="translate(-1761.46 -3045.89)"/><path class="cls-42" d="M2232.22,3130.27s5.24,20.33,17.54,32.7,29.55,10.55,44.08,4c15.6-7,27.42-23,26.76-33.36s-6.14-35.42-6.14-35.42l-6.42-27.78s-15.79-5.57-16.73-5.53-43.87,13.54-44.76,14-24.35,19.41-24.78,20.32,5.52,21,5.69,21.44S2232.22,3130.27,2232.22,3130.27Z" transform="translate(-1761.46 -3045.89)"/><path class="cls-43" d="M2227.69,3102.7c1.35,0,15.62-6.63,25.78-15.84,0,0-2.58,5.9,10.88,3.82s27.72-9.12,34.69-20.07c0,0,4.94-.55,7.34,6.6s12.08,39.81,12.08,39.81,7.64-22.22,5.54-36.57-14-14.44-19.71-17.15c-.91-.43-7.93-13.34-31-16.91,0,0-22,0-22.86,4.07l6.34,2.12s-33,13.74-46.06,36.06c0,0-3.45,7.28,4.62,5.76l-.8,5s-6.63,5.54-6.18,5.53l8.1-.17s1.58,11.22,16.36,29.36Z" transform="translate(-1761.46 -3045.89)"/><path class="cls-44" d="M2275.86,3094.5s2.47-5.2,11.78-3.34a32.23,32.23,0,0,1,6.78,3,97.23,97.23,0,0,0-18.56.39" transform="translate(-1761.46 -3045.89)"/><path class="cls-44" d="M2245.22,3108.81s-5.09-2.32-9.6,4.55a25.88,25.88,0,0,0-2.19,6.16,72.29,72.29,0,0,1,11.79-10.71" transform="translate(-1761.46 -3045.89)"/><path class="cls-45" d="M2258.6,3116.43a21.54,21.54,0,0,1,4.72,4.12,13.49,13.49,0,0,1,1.71,2.67,8.51,8.51,0,0,1,.76,3.1c0,1,.08,2.09.18,3.11a7.68,7.68,0,0,0,.71,2.87,2.71,2.71,0,0,0,2.39,1.29,14.73,14.73,0,0,0,3.07-.34v.06a10.64,10.64,0,0,1-3.08.71,7.5,7.5,0,0,1-.82,0l-.41-.1-.21-.05-.19-.09-.39-.19-.34-.27a1.46,1.46,0,0,1-.3-.31c-.09-.12-.19-.23-.27-.35a7.07,7.07,0,0,1-.78-3.14c-.07-1.06-.07-2.1-.07-3.15a8,8,0,0,0-.63-2.95,13.38,13.38,0,0,0-1.58-2.64,21.22,21.22,0,0,0-4.51-4.26Z" transform="translate(-1761.46 -3045.89)"/><path class="cls-46" d="M2298.36,3114.17a.43.43,0,0,1,0,0,12.1,12.1,0,0,0-4.66.23,11.94,11.94,0,0,0-7,4.75l-.2-.14a11.64,11.64,0,0,1-4.27-6.67c-1.34-5.54,1.19-10.91,5.64-12s9.15,2.55,10.49,8.1a12.09,12.09,0,0,1,.05,5.67" transform="translate(-1761.46 -3045.89)"/><path class="cls-47" d="M2298.36,3114.17a.43.43,0,0,1,0,0,12.1,12.1,0,0,0-4.66.23,11.94,11.94,0,0,0-7,4.75l-.2-.14a11.64,11.64,0,0,1-4.27-6.67c-1.34-5.54,1.19-10.91,5.64-12s9.15,2.55,10.49,8.1A12.09,12.09,0,0,1,2298.36,3114.17Z" transform="translate(-1761.46 -3045.89)"/><path class="cls-48" d="M2298.39,3114.23h0a12.1,12.1,0,0,0-4.66.23,11.94,11.94,0,0,0-7,4.75l-.15.23c0-.12,0-.25-.05-.37-.56-4.81,1.21-9,4.38-9.74,2.72-.66,5.68,1.39,7.53,4.85l0,.06" transform="translate(-1761.46 -3045.89)"/><path class="cls-46" d="M2292.7,3111.92a1.13,1.13,0,1,1-1.15-1.1,1.12,1.12,0,0,1,1.15,1.1" transform="translate(-1761.46 -3045.89)"/><path class="cls-46" d="M2260.32,3131.35v.05a12.18,12.18,0,0,0-4.4,1.56,11.87,11.87,0,0,0-5.36,6.58l-.24-.07a11.7,11.7,0,0,1-6-5.16c-2.88-4.93-2-10.8,2-13.11s9.5-.2,12.38,4.73a12.38,12.38,0,0,1,1.68,5.42" transform="translate(-1761.46 -3045.89)"/><path class="cls-47" d="M2260.32,3131.35v.05a12.18,12.18,0,0,0-4.4,1.56,11.87,11.87,0,0,0-5.36,6.58l-.24-.07a11.7,11.7,0,0,1-6-5.16c-2.88-4.93-2-10.8,2-13.11s9.5-.2,12.38,4.73A12.38,12.38,0,0,1,2260.32,3131.35Z" transform="translate(-1761.46 -3045.89)"/><path class="cls-49" d="M2260.37,3131.4h0a12.18,12.18,0,0,0-4.4,1.56,11.87,11.87,0,0,0-5.36,6.58l-.09.27-.15-.34c-1.93-4.45-1.43-9,1.39-10.6,2.41-1.41,5.83-.3,8.61,2.48,0,0,0,0,0,.05" transform="translate(-1761.46 -3045.89)"/><path class="cls-46" d="M2254.25,3130.83a1.12,1.12,0,1,1-2.14.69,1.11,1.11,0,0,1,.72-1.41,1.12,1.12,0,0,1,1.42.72" transform="translate(-1761.46 -3045.89)"/><path class="cls-50" d="M2297.25,3134.09c0,5.7-.65,20.1-10.78,25-10.69,5.18-23.21-4.47-28.19-10a5.54,5.54,0,0,1-.34-.65,3.55,3.55,0,0,1,0-3.35,3.51,3.51,0,0,1,1.22-1.16c3.11-1.89,16.18-1.26,32.82-12.86a6.44,6.44,0,0,1,3.34-.74c1,.16,1.91.89,1.93,2.9,0,.26,0,.54,0,.86" transform="translate(-1761.46 -3045.89)"/><path class="cls-51" d="M2295.31,3130.33c-14.77,16.53-34.2,14.8-37.38,14.76a3.51,3.51,0,0,1,1.22-1.16c3.11-1.89,16.18-1.26,32.82-12.86a6.44,6.44,0,0,1,3.34-.74" transform="translate(-1761.46 -3045.89)"/><path class="cls-51" d="M2297.25,3134.09c0,5.7-.65,20.1-10.78,25-10.69,5.18-23.21-4.47-28.19-10a5.54,5.54,0,0,1-.34-.65c3.87,3.62,32.59,28.71,39.31-14.35" transform="translate(-1761.46 -3045.89)"/><path class="cls-46" d="M2261.64,3145.43c-.34-.3,9.47-.2,17.49-4a75.07,75.07,0,0,0,13-7.65,5.64,5.64,0,0,1-.05,2.88c-.5,2.19-2.55,7.26-12.83,10.62-8.4,2.75-13,2.07-17.61-1.88" transform="translate(-1761.46 -3045.89)"/><path class="cls-52" d="M2290.49,3151.52c-2.39,3-6.61,7.76-12.7,7.57a8.46,8.46,0,0,1-1.78-4c-.74-4.51,2.88-5.22,7.29-5.95,3-.49,5.18-2.8,7-.57.76.94-.06,1.65.23,2.9" transform="translate(-1761.46 -3045.89)"/><path class="cls-46" d="M2289.57,3154.54a28.41,28.41,0,0,1-3.1,2.36,13.59,13.59,0,0,1-10.15,1.83,14.87,14.87,0,0,1-1.71-.36s-1.67-1.09-.78-1.56a8,8,0,0,1,1.89-.36c3.24-.41,9.59-1,12.84-4.42l0,0c.44-.46,2-1.33,2.46,0a4,4,0,0,1-1.47,2.52" transform="translate(-1761.46 -3045.89)"/><path class="cls-53" d="M2220.13,3181s20,45.46,65.14,35.83,50.69-53.78,50.69-53.78l-56.7,10-.17,18.56-6.91-11.92-.79,12.23s-7.41,10.74-12.72-10.59Z" transform="translate(-1761.46 -3045.89)"/><path class="cls-54" d="M2220.32,3181s21.22,39.44,61.8,32.76,51.3-50.06,51.3-50.06l-54,9.18-6.12,15.65-1.42-9.14-5.49,9.35s-3.33,7.41-8.14-7.59Z" transform="translate(-1761.46 -3045.89)"/><path class="cls-31" d="M2222.67,3178.18s17.45,39.68,59.63,31.88,48.54-46.38,48.54-46.38l-53,8.06-.14,15.12-6.46-9.71-.72,9.95s-6.92,8.75-11.9-8.64Z" transform="translate(-1761.46 -3045.89)"/><path class="cls-32" d="M2222.84,3178.17s15.75,27.91,53.65,22.51,49.93-36.28,49.93-36.28l-48.37,7.22-5.7,12.75-1.34-7.45-5.11,7.6s-5,8.32-9.54-3.91Z" transform="translate(-1761.46 -3045.89)"/><path class="cls-34" d="M2293.86,3186.92s6.43,9.7,2.36,10.39-2.36-10.39-2.36-10.39" transform="translate(-1761.46 -3045.89)"/><path class="cls-34" d="M2283.9,3185.79s6.43,9.7,2.36,10.38-2.36-10.38-2.36-10.38" transform="translate(-1761.46 -3045.89)"/><path class="cls-34" d="M2281.1,3172.65s6.43,9.7,2.37,10.39-2.37-10.39-2.37-10.39" transform="translate(-1761.46 -3045.89)"/><path class="cls-34" d="M2293.18,3172.76s6.43,9.7,2.36,10.39-2.36-10.39-2.36-10.39" transform="translate(-1761.46 -3045.89)"/><path class="cls-34" d="M2249.83,3186.92s6.43,9.69,2.37,10.38-2.37-10.38-2.37-10.38" transform="translate(-1761.46 -3045.89)"/><path class="cls-34" d="M2238.43,3183s6.43,9.69,2.36,10.38-2.36-10.38-2.36-10.38" transform="translate(-1761.46 -3045.89)"/><path class="cls-34" d="M2275.85,3191.74s6.43,9.7,2.36,10.39-2.36-10.39-2.36-10.39" transform="translate(-1761.46 -3045.89)"/><path class="cls-34" d="M2305.24,3174.4s6.43,9.7,2.36,10.39-2.36-10.39-2.36-10.39" transform="translate(-1761.46 -3045.89)"/><path class="cls-34" d="M2262.5,3191.62s6.43,9.7,2.36,10.39-2.36-10.39-2.36-10.39" transform="translate(-1761.46 -3045.89)"/><path class="cls-34" d="M2268.59,3184s6.43,9.69,2.36,10.38-2.36-10.38-2.36-10.38" transform="translate(-1761.46 -3045.89)"/><path class="cls-55" d="M2296.87,3200.21s.73-3.89,7-4.93c0,0-.22,3.38,4.55,8.11,0,0-3.46-4.69-3.79-8.6a5.32,5.32,0,0,1,4.11-1.28s2,.73,3.89,4.46c0,0,2.67,3.68,5.83.73l2.19-2.53,1.38,1.66a104.11,104.11,0,0,0-6.94,16.05,50.29,50.29,0,0,1-6.36,2.17c-2.19.44-5.39,1-8-3,0,0-1.41-2.68-3.32-3.26,0,0-4.06-1.72-4.2-5.67s0-.14,0-.14-.76-1.78,2.48-2.69c0,0,.37,2.56,5.46,6.63,0,0-3.59-4.39-4.28-7.71" transform="translate(-1761.46 -3045.89)"/><path class="cls-55" d="M2232,3202.5s-.37-2.11.31-2.86,6.83-6.42,11.39-7.42c0,0,4.62-1.33,4.05,3.51,0,0-2.43-.8-6.52,3.3l-3.26,3.62s-4.6,2.53-6-.15" transform="translate(-1761.46 -3045.89)"/><path class="cls-55" d="M2237.56,3205.84a2.69,2.69,0,0,1,.69-2.58c1.14-1.26,5-6.13,7.91-6.92,0,0,2.84-1,3,2.84a6.21,6.21,0,0,1-2.56,4l-2.48,2.31a15.19,15.19,0,0,1-3.7,2.12c-1.49.43-2.73.2-2.85-1.77" transform="translate(-1761.46 -3045.89)"/><path class="cls-55" d="M2242.82,3210.75s-1.22-2.17.41-3.19c.18-.12,3.1-4.45,5.54-4.94,0,0,2.52-.48,1.67,3.12a11.18,11.18,0,0,1-3.4,3.83Z" transform="translate(-1761.46 -3045.89)"/><path class="cls-55" d="M2226.32,3191.45c.17,0,6.11,7.07,6.11,7.07a4.23,4.23,0,0,0-1,1.78s-5.14-2.26-6.86-5.74c0,0-1.1-3.27,1.76-3.11" transform="translate(-1761.46 -3045.89)"/><path class="cls-55" d="M2307.93,3216.74a30,30,0,0,0,3.69-.78,17.71,17.71,0,0,0,3.38-1.44,26.74,26.74,0,0,0-1.13,9.74s-4.49-1.51-5.94-7.52" transform="translate(-1761.46 -3045.89)"/><g class="cls-56"><rect class="cls-57" x="2290.8" y="3146.58" width="123.77" height="122.42" transform="translate(-3365.02 578.08) rotate(-59.75)"/></g><g class="cls-58"><rect class="cls-59" x="2303.28" y="3155.17" width="102.43" height="102.24" transform="translate(-3374.35 449.96) rotate(-57.88)"/></g><g class="cls-60"><rect class="cls-61" x="2313.01" y="3165.08" width="85.9" height="85.47" transform="matrix(0.5, -0.86, 0.86, 0.5, -3363.41, 580.93)"/></g><g class="cls-62"><rect class="cls-63" x="2324.56" y="3175.15" width="69.1" height="69.26" transform="translate(-3375.14 455.5) rotate(-57.88)"/></g><g class="cls-64"><rect class="cls-65" x="2333.75" y="3183.55" width="56.72" height="56.84" transform="translate(-3363.95 588.3) rotate(-59.75)"/></g><g class="cls-66"><rect class="cls-67" x="2301.38" y="3159.53" width="85.38" height="84.99" transform="translate(-2289 -2582.75) rotate(-10.15)"/></g><path class="cls-54" d="M2328.56,3188.77c14.7-21.57,33.39-34.24,41.74-28.29s3.22,28.25-11.48,49.82-33.39,34.23-41.74,28.29" transform="translate(-1761.46 -3045.89)"/><path class="cls-54" d="M2317.08,3238.59c-8.36-6-3.22-28.25,11.48-49.82" transform="translate(-1761.46 -3045.89)"/><path class="cls-31" d="M2330.25,3190c12-19.81,29.65-30.4,37.07-25.12s2.86,25.09-10.19,44.24-29.65,30.4-37.08,25.12C2320.05,3234.21,2309.48,3224.17,2330.25,3190Z" transform="translate(-1761.46 -3045.89)"/><path class="cls-68" d="M2338.51,3194.34a1.46,1.46,0,0,1,.25,1.68,1.38,1.38,0,0,1-1.63.35c-.3-.22-.09-.73.3-1.29s.77-.95,1.08-.74" transform="translate(-1761.46 -3045.89)"/><path class="cls-68" d="M2332.12,3207.84c.6-.48,1.82-1.1,1.75-.63a7.81,7.81,0,0,1-2,2.33c-.61.48-.73.23-.66-.23a2.25,2.25,0,0,1,.91-1.47" transform="translate(-1761.46 -3045.89)"/><path class="cls-68" d="M2334.41,3215.06c.45-.81,1.64-2.49,1.94-2.47s-.42,1.75-.87,2.56-.82,1-1.12,1-.4-.29,0-1.1" transform="translate(-1761.46 -3045.89)"/><path class="cls-68" d="M2343.66,3210.57a4.49,4.49,0,0,1,.67-2.45c.43-.44.87.33.92.87a2,2,0,0,1-.74,1.48c-.44.43-.8.63-.85.1" transform="translate(-1761.46 -3045.89)"/><path class="cls-68" d="M2352.91,3197.74c-.51.15-1.37,0-1.12-.58a4.27,4.27,0,0,1,2-1.48c.5-.15.45.27.2.84a2,2,0,0,1-1.1,1.22" transform="translate(-1761.46 -3045.89)"/><path class="cls-68" d="M2355.18,3186.25c-.59.71-1.92,2-2,1.72s1-2,1.59-2.72.86-.7,1-.42.06.7-.53,1.42" transform="translate(-1761.46 -3045.89)"/><path class="cls-68" d="M2348.77,3184.73a7.91,7.91,0,0,1-1.44,2.73c-.41.23-.26-1.15,0-1.9a2.22,2.22,0,0,1,1-1.38c.41-.23.67-.19.44.55" transform="translate(-1761.46 -3045.89)"/><path class="cls-68" d="M2350.22,3174.35a8.19,8.19,0,0,1-1.44,3.07c-.47.32-.47-1.1-.29-1.9a2.6,2.6,0,0,1,1.11-1.62c.48-.32.81-.35.62.45" transform="translate(-1761.46 -3045.89)"/><path class="cls-68" d="M2339.16,3184.19a3.34,3.34,0,0,1-.32,2.47c-.48.57-1.24.05-1.42-.42s.16-1.06.65-1.63.92-.89,1.09-.42" transform="translate(-1761.46 -3045.89)"/><path class="cls-68" d="M2329.31,3198.14c.49,0,1.23.55.88,1.21a3.18,3.18,0,0,1-2.16,1.17c-.48,0-.34-.54,0-1.2s.79-1.19,1.27-1.18" transform="translate(-1761.46 -3045.89)"/><path class="cls-68" d="M2323.32,3212.46c.67-.45,2-.94,1.84-.37a8,8,0,0,1-2.32,2.44c-.67.46-.76.13-.63-.44a2.63,2.63,0,0,1,1.11-1.63" transform="translate(-1761.46 -3045.89)"/><path class="cls-68" d="M2322.78,3223.32c.67-.79,2.19-2.19,2.31-1.86s-1.18,2.28-1.86,3.07-1,.76-1.1.42,0-.83.65-1.63" transform="translate(-1761.46 -3045.89)"/><path class="cls-68" d="M2327.84,3227.81c.5-.92,1.82-2.85,2.17-2.85s-.41,1.95-.9,2.87-.93,1.18-1.28,1.18-.48-.28,0-1.2" transform="translate(-1761.46 -3045.89)"/><path class="cls-68" d="M2337.15,3224.72a8.27,8.27,0,0,1,1.44-3.07c.48-.33.48,1.09.3,1.89a2.6,2.6,0,0,1-1.11,1.62c-.48.33-.81.36-.63-.44" transform="translate(-1761.46 -3045.89)"/><path class="cls-68" d="M2348.21,3214.88a3.38,3.38,0,0,1,.33-2.47c.48-.57,1.24,0,1.41.41s-.16,1.07-.64,1.63-.92.89-1.1.43" transform="translate(-1761.46 -3045.89)"/><path class="cls-68" d="M2358.06,3200.92c-.49,0-1.23-.55-.87-1.21a3.26,3.26,0,0,1,2.15-1.17c.49,0,.35.55,0,1.2s-.78,1.19-1.27,1.18" transform="translate(-1761.46 -3045.89)"/><path class="cls-68" d="M2364.06,3186.6c-.67.45-2,1-1.84.37a8,8,0,0,1,2.32-2.44c.67-.45.76-.12.63.45a2.63,2.63,0,0,1-1.11,1.62" transform="translate(-1761.46 -3045.89)"/><path class="cls-68" d="M2364.6,3175.74c-.67.79-2.19,2.19-2.32,1.86s1.19-2.27,1.87-3.07,1-.75,1.09-.42,0,.84-.64,1.63" transform="translate(-1761.46 -3045.89)"/><path class="cls-68" d="M2359.54,3171.25c-.5.92-1.82,2.86-2.17,2.85s.41-1.94.9-2.86.92-1.19,1.27-1.18.49.27,0,1.19" transform="translate(-1761.46 -3045.89)"/><polyline class="cls-36" points="551.66 225.4 550.85 235.04 535.76 235.21 532.7 225.62"/><polyline class="cls-37" points="551.73 225.59 550.79 234.97 535.7 234.97 532.76 225.59"/><polyline class="cls-36" points="586.24 225 582.89 235.57 567.86 235.57 566.34 225"/><polyline class="cls-37" points="586.24 225 582.89 235.57 567.86 235.57 566.34 225"/><path class="cls-69" d="M2328.89,3280.86h16.16s-1.66,19.22-2.11,22.13c0,0,8.74,5.18,11.28,9.54,0,0,3.7,4.13-1.54,5.22,0,0-16.34,3.46-20.35-4.81,0,0-1.65-3.46-.26-9.55C2332.07,3303.39,2332.28,3295.84,2328.89,3280.86Z" transform="translate(-1761.46 -3045.89)"/><path class="cls-69" d="M2313.13,3280.56H2297s1.67,19.23,2.12,22.13c0,0-8.74,5.19-11.28,9.55,0,0-3.7,4.13,1.53,5.22,0,0,16.35,3.46,20.36-4.81,0,0,1.65-3.47.26-9.56C2310,3303.09,2309.74,3295.55,2313.13,3280.56Z" transform="translate(-1761.46 -3045.89)"/><ellipse class="cls-70" cx="394.45" cy="358.46" rx="58.44" ry="14.48"/><g class="cls-71"><polygon class="cls-72" points="337.96 232.91 468.96 246.48 455.83 372.02 324.83 358.45 337.96 232.91"/></g><g class="cls-73"><polygon class="cls-74" points="338.87 232.68 463.86 245.63 450.62 372.2 325.63 359.26 338.87 232.68"/></g><path class="cls-28" d="M2184.92,3297.6a6.71,6.71,0,0,0-3.12,0,.38.38,0,0,0-.31-.25c-1.32-.33-2.65-.58-4-1a10.55,10.55,0,0,1-3.82-2.33c-.5-.41-1.21.35-1.08.85a2.31,2.31,0,0,0,.1.28c-.74,2.28,3.1,4,4.88,4.21h0a9.31,9.31,0,0,0,1.67.33,10.19,10.19,0,0,0,4.53-.1,2.08,2.08,0,0,0,1.33-.83c.28-.4.35-1-.24-1.19" transform="translate(-1761.46 -3045.89)"/><ellipse class="cls-70" cx="2298.93" cy="3420.68" rx="11.82" ry="64.13" transform="translate(-3023.98 2448.99) rotate(-86.31)"/><g class="cls-75"><polygon class="cls-76" points="587.86 247.97 599.35 371.93 490.41 385.49 478.91 261.53 587.86 247.97"/></g><g class="cls-77"><polygon class="cls-78" points="588.21 248.77 599.18 367.03 489.33 380.7 478.37 262.44 588.21 248.77"/></g><path class="cls-28" d="M2348.38,3376.8a7,7,0,0,0-.54-2.9.38.38,0,0,0,.16-.33c.05-1.29,0-2.58.12-3.86a10.59,10.59,0,0,1,1.31-4c.25-.55-.52-1-.92-.83-.08,0-.14.1-.22.15-2.07-.21-2.8,3.68-2.72,5.38v0a10.83,10.83,0,0,0,0,1.61,10.43,10.43,0,0,0,.88,4.17,1.85,1.85,0,0,0,.94,1.06c.39.18.92.11,1-.46" transform="translate(-1761.46 -3045.89)"/><ellipse class="cls-70" cx="2057.81" cy="3439.43" rx="54.78" ry="13.64" transform="matrix(1, -0.03, 0.03, 1, -1870.95, -2977.97)"/><g class="cls-79"><rect class="cls-80" x="1998.22" y="3326.11" width="126.29" height="120.31" transform="translate(-3608.98 1001.19) rotate(-68.26)"/></g><g class="cls-81"><rect class="cls-82" x="2004.26" y="3329.2" width="115.09" height="117.92" transform="translate(-3610.47 1002.79) rotate(-68.26)"/></g><path class="cls-28" d="M2030.26,3350.18a8.4,8.4,0,0,0-1.51,3.65.47.47,0,0,0-.45.23c-1,1.38-2,2.83-3,4.16a13.39,13.39,0,0,1-4.57,3.34c-.71.39-.17,1.58.48,1.67.13,0,.25,0,.38,0,2.32,2,6.12-1.71,7.29-3.67h0a13,13,0,0,0,1.19-1.8c.86-1.55,2-3.46,2.06-5.34a2.61,2.61,0,0,0-.34-1.95c-.34-.53-1-.89-1.51-.3" transform="translate(-1761.46 -3045.89)"/><ellipse class="cls-70" cx="194.42" cy="361.29" rx="42.17" ry="11.16"/><g class="cls-83"><rect class="cls-84" x="1914.41" y="3326.83" width="88.06" height="92.44" transform="translate(-3262.21 2129.08) rotate(-87.38)"/></g><g class="cls-85"><rect class="cls-86" x="1914.08" y="3331.69" width="86.31" height="84.24" transform="translate(-3264.12 2128.61) rotate(-87.38)"/></g><path class="cls-28" d="M1975.94,3342.89a6.11,6.11,0,0,0-2.88-.17.39.39,0,0,0-.27-.26c-1.2-.37-2.42-.67-3.61-1.1a9.73,9.73,0,0,1-3.4-2.36c-.44-.4-1.13.27-1,.74a2.58,2.58,0,0,0,.08.26c-.81,2.08,2.65,3.82,4.28,4.16h0a9.8,9.8,0,0,0,1.53.39,9.55,9.55,0,0,0,4.19.15,2,2,0,0,0,1.27-.7c.28-.37.37-.93-.16-1.12" transform="translate(-1761.46 -3045.89)"/><ellipse class="cls-70" cx="91.1" cy="410.81" rx="62.15" ry="18.54"/><g class="cls-87"><rect class="cls-88" x="1782.07" y="3342.39" width="138.11" height="131.57" transform="translate(-3786.31 500.64) rotate(-63.54)"/></g><g class="cls-89"><rect class="cls-90" x="1788.51" y="3345.8" width="125.86" height="128.96" transform="translate(-3788.02 502.09) rotate(-63.54)"/></g><path class="cls-28" d="M1820.49,3366a9.24,9.24,0,0,0-2,3.83.55.55,0,0,0-.51.22c-1.23,1.41-2.38,2.9-3.68,4.26a14.57,14.57,0,0,1-5.28,3.23c-.81.35-.32,1.7.38,1.86a2.76,2.76,0,0,0,.4.06c2.36,2.35,6.83-1.32,8.28-3.34v0a14.93,14.93,0,0,0,1.47-1.85c1.08-1.61,2.46-3.6,2.72-5.63a2.87,2.87,0,0,0-.19-2.16c-.32-.61-1-1.07-1.62-.46" transform="translate(-1761.46 -3045.89)"/></g></svg>