<svg xmlns="http://www.w3.org/2000/svg" xmlns:xlink="http://www.w3.org/1999/xlink" viewBox="0 0 1600 900"><defs><style>.cls-1,.cls-25,.cls-27,.cls-38{fill:none;}.cls-2{isolation:isolate;}.cls-3{clip-path:url(#clip-path);}.cls-4{fill:#e7aa80;}.cls-20,.cls-25,.cls-27,.cls-4{stroke:#933120;}.cls-20,.cls-24,.cls-25,.cls-26,.cls-27,.cls-30,.cls-38,.cls-4{stroke-miterlimit:10;}.cls-20,.cls-27,.cls-4{stroke-width:0.41px;}.cls-5{fill:#d8e3da;}.cls-6{fill:url(#Áåçûìÿííûé_ãðàäèåíò_29);}.cls-7{fill:url(#Áåçûìÿííûé_ãðàäèåíò_88);}.cls-8{fill:#312c5f;}.cls-9{fill:url(#Áåçûìÿííûé_ãðàäèåíò_146);}.cls-10{fill:url(#Áåçûìÿííûé_ãðàäèåíò_146-2);}.cls-11{fill:url(#Áåçûìÿííûé_ãðàäèåíò_18);}.cls-12,.cls-14{fill:#fff;}.cls-13{fill:#a41d2d;}.cls-14{mix-blend-mode:soft-light;}.cls-15,.cls-16,.cls-19,.cls-23{mix-blend-mode:multiply;}.cls-15{fill:url(#Áåçûìÿííûé_ãðàäèåíò_106);}.cls-16{fill:url(#Áåçûìÿííûé_ãðàäèåíò_106-2);}.cls-17{fill:#fff1d1;}.cls-18{fill:url(#Áåçûìÿííûé_ãðàäèåíò_18-2);}.cls-19{fill:#8c1f5f;opacity:0.15;}.cls-20{fill:#fac59b;}.cls-21{fill:#f06a23;}.cls-22{fill:#c95828;}.cls-23{opacity:0.1;}.cls-24{fill:#7296cd;stroke:#205599;}.cls-24,.cls-25,.cls-30{stroke-width:0.54px;}.cls-26{fill:#ed4342;}.cls-26,.cls-38{stroke:#a81f24;stroke-width:0.27px;}.cls-28{fill:#cddbed;}.cls-29{fill:#d69d78;}.cls-30,.cls-37{fill:#592515;}.cls-30{stroke:#3a1810;}.cls-31{fill:#723221;}.cls-32{fill:#e0a57f;}.cls-33{fill:#3a3023;}.cls-34{fill:#fff3e3;}.cls-35{fill:#933120;}.cls-36{fill:#322516;}</style><clipPath id="clip-path"><rect class="cls-1" width="1600" height="900"/></clipPath><linearGradient id="Áåçûìÿííûé_ãðàäèåíò_29" x1="2023.76" y1="972.43" x2="2023.76" y2="306.52" gradientTransform="matrix(-1, 0, 0, 1, 3535.75, 0)" gradientUnits="userSpaceOnUse"><stop offset="0" stop-color="#312c5f"/><stop offset="1" stop-color="#36c2df"/></linearGradient><linearGradient id="Áåçûìÿííûé_ãðàäèåíò_88" x1="2128.91" y1="258.78" x2="2155.12" y2="258.78" gradientTransform="matrix(-1, 0, 0, 1, 3535.75, 0)" gradientUnits="userSpaceOnUse"><stop offset="0" stop-color="#93959b"/><stop offset="0.57" stop-color="#71576f"/><stop offset="1" stop-color="#c29a82"/></linearGradient><linearGradient id="Áåçûìÿííûé_ãðàäèåíò_146" x1="2135.1" y1="276.51" x2="2135.1" y2="259.93" gradientTransform="matrix(-1, 0, 0, 1, 3535.75, 0)" gradientUnits="userSpaceOnUse"><stop offset="0" stop-color="#fcd7ad"/><stop offset="0.57" stop-color="#f29165"/><stop offset="1" stop-color="#e8c8c0"/></linearGradient><linearGradient id="Áåçûìÿííûé_ãðàäèåíò_146-2" x1="2159.54" y1="260.83" x2="2159.54" y2="252.99" xlink:href="#Áåçûìÿííûé_ãðàäèåíò_146"/><linearGradient id="Áåçûìÿííûé_ãðàäèåíò_18" x1="1246.05" y1="270.72" x2="1482.22" y2="270.72" gradientUnits="userSpaceOnUse"><stop offset="0" stop-color="#f06b68"/><stop offset="1" stop-color="#c62628"/></linearGradient><linearGradient id="Áåçûìÿííûé_ãðàäèåíò_106" x1="1993.42" y1="556.56" x2="2043.65" y2="556.56" gradientTransform="matrix(-1, 0, 0, 1, 3535.75, 0)" gradientUnits="userSpaceOnUse"><stop offset="0" stop-color="#f2b691"/><stop offset="1" stop-color="#c2a39f"/></linearGradient><linearGradient id="Áåçûìÿííûé_ãðàäèåíò_106-2" x1="2107.03" y1="406.18" x2="2254.66" y2="406.18" xlink:href="#Áåçûìÿííûé_ãðàäèåíò_106"/><linearGradient id="Áåçûìÿííûé_ãðàäèåíò_18-2" x1="1198.14" y1="379.34" x2="1339.31" y2="379.34" xlink:href="#Áåçûìÿííûé_ãðàäèåíò_18"/></defs><g class="cls-2"><g id="Layer_1" data-name="Layer 1"><g id="b"><g class="cls-3"><g id="b-2" data-name="b"><path class="cls-4" d="M207.56,732.31c14.39,2.22-48.5-38,50.13,6.42,11.15,5,42.74,4.19,47.26-.5,2.66-2.75.1-6.52,1.05-10.23,3.75-14.54,7.52-29.15,8.94-44.1,1.62-17,.17-34.2-1.29-51.25-.27-3.24-6.48-30.86-6.75-34.1l42,21.77s-4.18,114.13-26.14,149.95c0,0-28.55,22.52-111.06-15.38Z"/><polygon class="cls-5" points="1270.72 389.92 1267.02 175.97 1471.73 116.4 1471.73 426.18 1270.72 389.92"/><polygon class="cls-6" points="1471.73 306.52 1471.73 315.84 1476.22 320.22 1482.22 326.03 1492.58 336.09 1542.34 384.34 1506.93 972.43 1532.18 972.43 1552.25 378.69 1492.89 325.48 1482.22 315.94 1476.13 310.46 1471.73 306.52"/><polygon class="cls-7" points="1380.63 252.99 1393.53 259.34 1393.57 259.34 1394.73 259.93 1406.68 265.82 1406.84 257.05 1397.88 251.74 1380.63 252.99"/><polygon class="cls-8" points="1471.73 315.84 1471.73 333.61 1476.38 338.47 1482.22 344.53 1492.09 354.8 1522.49 386.45 1481.76 958.49 1506.93 972.43 1542.34 384.34 1492.58 336.09 1482.22 326.03 1476.22 320.22 1471.73 315.84"/><polygon class="cls-9" points="1394.73 259.93 1394.6 271.03 1406.5 276.51 1406.68 265.82 1394.73 259.93"/><polygon class="cls-10" points="1358.89 254.51 1372.56 260.83 1393.53 259.34 1380.63 252.99 1380.6 252.99 1358.89 254.51"/><path class="cls-11" d="M1331.43,256.42l27.43-1.91h0L1380.6,253h0l12.9,6.35-21,1.49L1328.43,264Zm75.5-5.31-.09,5.94-9-5.31Zm-75.5,5.31,27.43-1.91h0L1380.6,253h0l17.25-1.25,9-.63-.09,5.94-.16,8.77-.18,10.69-1.93,119.35L1296.2,376.15l-1-29.42v0l-3-87.5Zm-29.54,114.11,91.61,12.18L1394.6,271l.13-11.1-1.17-.59h0l-21,1.49L1328.43,264l-30.06,2.12,2.26,67.13Zm29.54-114.11,27.43-1.91h0L1380.6,253h0l17.25-1.25,9-.63-.09,5.94-.16,8.77-.18,10.69-1.93,119.35L1296.2,376.15l-1-29.42v0l-3-87.5Zm-29.54,114.11,91.61,12.18L1394.6,271l.13-11.1-1.17-.59h0l-21,1.49L1328.43,264l-30.06,2.12,2.26,67.13Zm29.54-114.11,27.43-1.91h0L1380.6,253h0l17.25-1.25,9-.63-.09,5.94-.16,8.77-.18,10.69-1.93,119.35L1296.2,376.15l-1-29.42v0l-3-87.5Zm-29.54,114.11,91.61,12.18L1394.6,271l.13-11.1-1.17-.59h0l-21,1.49L1328.43,264l-30.06,2.12,2.26,67.13Zm29.54-114.11,27.43-1.91h0L1380.6,253h0l17.25-1.25,9-.63-.09,5.94-.16,8.77-.18,10.69-1.93,119.35L1296.2,376.15l-1-29.42v0l-3-87.5Zm-29.54,114.11,91.61,12.18L1394.6,271l.13-11.1-1.17-.59h0l-21,1.49L1328.43,264l-30.06,2.12,2.26,67.13Zm29.54-114.11,27.43-1.91h0L1380.6,253h0l17.25-1.25,9-.63-.09,5.94-.16,8.77-.18,10.69-1.93,119.35L1296.2,376.15l-1-29.42v0l-3-87.5Zm-29.54,114.11,91.61,12.18L1394.6,271l.13-11.1-1.17-.59h0l-21,1.49L1328.43,264l-30.06,2.12,2.26,67.13Zm29.54-114.11,27.43-1.91h0L1380.6,253h0l17.25-1.25,9-.63-.09,5.94-.16,8.77-.18,10.69-1.93,119.35L1296.2,376.15l-1-29.42v0l-3-87.5Zm-29.54,114.11,91.61,12.18L1394.6,271l.13-11.1-1.17-.59h0l-21,1.49L1328.43,264l-30.06,2.12,2.26,67.13ZM1482.22,98V443.46l-232.14-41.91-4-234.81Zm-10.49,18.42-38.56,11.21-56.67,16.51-84.58,24.6-4.16,1.21L1267,176l3.15,182.17.55,31.78,149.72,27,51.29,9.23Zm-65,149.42-.18,10.69-1.93,119.35L1296.2,376.15l-1-29.42v0l-3-87.5,39.18-2.78,27.43-1.91h0L1380.6,253h0l17.25-1.25,9-.63-.09,5.94Zm-13.12-6.48h0l-21,1.49L1328.43,264l-30.06,2.12,2.26,67.13,1.26,37.33,91.61,12.18L1394.6,271l.13-11.1Zm-62.13-2.92,27.43-1.91h0L1380.6,253h0l17.25-1.25,9-.63-.09,5.94-.16,8.77-.18,10.69-1.93,119.35L1296.2,376.15l-1-29.42v0l-3-87.5Zm-29.54,114.11,91.61,12.18L1394.6,271l.13-11.1-1.17-.59h0l-21,1.49L1328.43,264l-30.06,2.12,2.26,67.13Zm29.54-114.11,27.43-1.91h0L1380.6,253h0l17.25-1.25,9-.63-.09,5.94-.16,8.77-.18,10.69-1.93,119.35L1296.2,376.15l-1-29.42v0l-3-87.5Zm-29.54,114.11,91.61,12.18L1394.6,271l.13-11.1-1.17-.59h0l-21,1.49L1328.43,264l-30.06,2.12,2.26,67.13Zm29.54-114.11,27.43-1.91h0L1380.6,253h0l17.25-1.25,9-.63-.09,5.94-.16,8.77-.18,10.69-1.93,119.35L1296.2,376.15l-1-29.42v0l-3-87.5Zm-29.54,114.11,91.61,12.18L1394.6,271l.13-11.1-1.17-.59h0l-21,1.49L1328.43,264l-30.06,2.12,2.26,67.13Zm29.54-114.11,27.43-1.91h0L1380.6,253h0l17.25-1.25,9-.63-.09,5.94-.16,8.77-.18,10.69-1.93,119.35L1296.2,376.15l-1-29.42v0l-3-87.5Zm-29.54,114.11,91.61,12.18L1394.6,271l.13-11.1-1.17-.59h0l-21,1.49L1328.43,264l-30.06,2.12,2.26,67.13Zm29.54-114.11,27.43-1.91h0L1380.6,253h0l17.25-1.25,9-.63-.09,5.94-.16,8.77-.18,10.69-1.93,119.35L1296.2,376.15l-1-29.42v0l-3-87.5Zm-29.54,114.11,91.61,12.18L1394.6,271l.13-11.1-1.17-.59h0l-21,1.49L1328.43,264l-30.06,2.12,2.26,67.13Zm29.54-114.11,27.43-1.91h0L1380.6,253h0l17.25-1.25,9-.63-.09,5.94-.16,8.77-.18,10.69-1.93,119.35L1296.2,376.15l-1-29.42v0l-3-87.5Zm-29.54,114.11,91.61,12.18L1394.6,271l.13-11.1-1.17-.59h0l-21,1.49L1328.43,264l-30.06,2.12,2.26,67.13Z"/><path class="cls-12" d="M1330.94,254.62l28.17-2h0l22.29-1.57h0l17.71-1.28,9.3-.64-.1,6.09-.15,9-.19,11-2,122.55-111.29-20.24-1-30.21v0l-3-89.85Zm-25,111.26,83.15,11.05,1-101.34.11-10.08-1.06-.53h0l-19,1.35-40,2.83-27.28,1.92L1304.8,332Z"/><path class="cls-13" d="M1256.53,176l3.7,214L1399.41,415l72.32,13v-1.91L1420.44,417l-149.72-27c-.92-53.13-3.41-197.58-3.7-213.95,39.21-11.42,192.55-56,204.71-59.57v-3.05Z"/><polygon class="cls-13" points="1482.22 97.99 1498.21 97.99 1490.04 443.45 1482.22 443.45 1482.22 97.99"/><polygon class="cls-14" points="1548.17 498.95 1537.53 463.98 1526.54 646.68 1541.43 698.54 1548.17 498.95"/><polygon class="cls-14" points="1540.83 716.34 1524.92 673.63 1521.51 730.21 1538.78 777.02 1540.83 716.34"/><polygon class="cls-15" points="1522.51 386.47 1518.69 777.02 1542.32 384.35 1492.59 336.1 1492.09 354.82 1522.51 386.47"/><polygon class="cls-14" points="1492.66 333.57 1545.61 383.29 1506.93 972.44 1542.34 384.34 1492.59 336.1 1492.66 333.57"/><polygon class="cls-16" points="1306.06 389.66 1420.44 407.86 1428.71 422.7 1281.09 399.2 1306.06 389.66"/><polygon class="cls-13" points="1353.33 375.2 1353.33 386.99 1333.84 384.31 1333.84 375.2 1353.33 375.2"/><path class="cls-17" d="M1267,470.88c-4.55,0-44.43-.21-44.43-7.48s39.88-7.48,44.43-7.48,44.42.21,44.42,7.48S1271.58,470.88,1267,470.88Zm-41.13-7.48c2.65,1.91,17.85,4.42,41.13,4.42s38.48-2.51,41.13-4.42c-2.65-1.91-17.86-4.43-41.13-4.43S1228.55,461.49,1225.91,463.4Z"/><path class="cls-17" d="M1335.94,390.87c-1,3.12-2.19,6.19-3.49,9.22s-3,6-3.86,9.13l-1.17,4.78a43.45,43.45,0,0,1-1.63,4.65c-1.31,3-2.58,6.09-3.76,9.16a185.85,185.85,0,0,0-6,18.76l-5.28,19c-3.42,12.64-7,25.35-9.73,38l-.53,2.35-.34,2.18a33.89,33.89,0,0,0,0,4.73c.16,3.22.48,6.48.85,9.72a195.31,195.31,0,0,0,3.29,19.37.74.74,0,0,1-1.44.33v0l-4-19.33c-.67-3.23-1.28-6.47-1.74-9.79a35.05,35.05,0,0,1-.43-5.09l.26-2.71.44-2.47c2.73-13,6.35-25.58,9.76-38.29l5.26-19c1.81-6.31,3.59-12.63,4.77-19.13.61-3.24,1.16-6.49,1.66-9.77a43.49,43.49,0,0,1,1.09-4.81l1.56-4.68c1-3.13,1.15-6.5,1.63-9.78a98.41,98.41,0,0,1,2-9.68,5.64,5.64,0,0,1,10.89,2.94Z"/><path class="cls-17" d="M1212.32,384.2a74.09,74.09,0,0,1,2.18,9.83c.2,1.67.26,3.37.44,5.05a36.22,36.22,0,0,0,1,4.93c1.68,6.5,4.59,12.76,4.68,19.59a93.5,93.5,0,0,0,.95,10.07c.5,3.32,1.21,6.6,1.8,9.9l3.8,19.77c1.27,6.59,2.56,13.18,3.57,19.83l1.48,10,.62,5.05a25.32,25.32,0,0,1,.12,5.3c-.87,6.95-2.94,13.33-5.18,19.7s-4.29,12.73-6.54,19.07a.62.62,0,1,1-1.16-.42h0c2.29-6.29,4.4-12.66,6.15-19.12.81-3.25,1.57-6.51,2.29-9.75a68,68,0,0,0,1.62-9.69c.16-3.08-.61-6.34-1.11-9.64l-1.85-9.86L1223.51,464c-1.24-6.59-2.43-13.19-3.8-19.75-.69-3.28-1.28-6.58-2.07-9.84a88.21,88.21,0,0,0-3-9.67c-2.52-6.33-2.26-13.22-3.23-19.86a37.53,37.53,0,0,0-1-4.94c-.49-1.61-1.1-3.19-1.56-4.81a73.62,73.62,0,0,1-1.85-9.89,2.7,2.7,0,0,1,5.26-1.08Z"/><path class="cls-17" d="M1303.14,387.92q-1.22,4.88-2.56,9.74c-1,3.23-2.13,6.42-2.4,9.78-.15,1.68-.2,3.38-.46,5s-.73,3.28-1.15,4.9c-.87,3.25-1.9,6.47-2.83,9.71a158.54,158.54,0,0,0-4.23,19.68l-3.3,19.85c-2.14,13.22-4.2,26.5-6.09,39.65a126.2,126.2,0,0,0-1,19.82,118.92,118.92,0,0,0,1.75,19.95v0a.74.74,0,0,1-1.46.25v0c-1-6.68-1.71-13.35-2.61-20.06-.74-6.68-1.47-13.48-.85-20.38,1.06-13.54,3.5-26.74,5.76-40l3.58-19.83a178.16,178.16,0,0,0,2.89-19.95c.27-3.37.46-6.75.8-10.1.19-1.67.38-3.34.69-5s.91-3.25,1.38-4.87c1-3.24,1-6.64,1.32-10s.74-6.7,1.2-10a4.88,4.88,0,1,1,9.67,1.33C1303.21,387.57,1303.18,387.75,1303.14,387.92Z"/><path class="cls-17" d="M1245.38,385.79c.34,3.25.51,6.51.62,9.77a86.32,86.32,0,0,0,.31,9.79,90.75,90.75,0,0,1,1.16,19.55,154.15,154.15,0,0,0,.42,19.59l1.33,19.53c.94,13,1.49,26.06,2.09,39.13a82.43,82.43,0,0,1-1,19.72c-1,6.5-2.22,12.92-3.61,19.35a.7.7,0,1,1-1.37-.3h0v0c3.07-12.66,3.28-25.78,3-38.62-.5-13-1.61-26-2.3-39l-1.19-19.54a150.34,150.34,0,0,0-2.21-19.46,92.62,92.62,0,0,1-1.53-19.52,86.35,86.35,0,0,0-1-9.73c-.35-3.25-.63-6.5-.76-9.75a3,3,0,0,1,6.08-.44Z"/><path class="cls-17" d="M1218.88,422.7a2,2,0,0,0-.6-1.56c-.16-.11,0,0,0,0a6.94,6.94,0,0,0,1.07.49,27.58,27.58,0,0,0,2.93.88c2.07.51,4.25.91,6.44,1.26,4.39.69,8.86,1.26,13.34,1.7s9,.8,13.5.85,9-.16,13.55-.18a261.56,261.56,0,0,0,27-1.2c4.46-.59,8.93-.88,13.37-1.25a52.27,52.27,0,0,0,6.49-1,26.76,26.76,0,0,0,3-.84,7,7,0,0,0,1.11-.51c.06-.05.21-.15.07-.06a1.75,1.75,0,0,0-.53,1.39,2,2,0,0,0,.5,1.43c.13.11,0,0-.1,0-.29-.11-.68-.24-1.13-.36a23,23,0,0,0-3-.56c-2.11-.28-4.33-.29-6.53-.44-4.4-.31-8.85-.54-13.3-1.12-8.91-1.12-17.93-.86-26.93-1.38a158,158,0,0,0-27,.33c-4.48.35-8.92,1.08-13.29,1.71-2.18.34-4.37.63-6.44,1-1,.2-2.06.39-2.94.64a9.49,9.49,0,0,0-1.1.36s-.2.09,0,0A2.29,2.29,0,0,0,1218.88,422.7Zm-6.31,0a4.27,4.27,0,0,1,1.36-3.05,7.2,7.2,0,0,1,1.35-1,15.65,15.65,0,0,1,2-.95,30.92,30.92,0,0,1,3.63-1.11,62.22,62.22,0,0,1,7-1.18c4.62-.55,9.22-.59,13.8-.85,9.16-.3,18.26-.66,27.4-1.33,9.15-.5,18.27.22,27.47.29a74.88,74.88,0,0,1,13.79,1.43c2.3.44,4.57,1.11,6.9,1.78,1.16.36,2.34.7,3.58,1.19a14.2,14.2,0,0,1,2,.95,7.22,7.22,0,0,1,1.3,1,4,4,0,0,1,1.31,2.88,3.93,3.93,0,0,1-1.35,2.84,6.17,6.17,0,0,1-1.31.9,14.6,14.6,0,0,1-2,.8,34.24,34.24,0,0,1-3.62.91c-2.34.5-4.63.82-6.92,1.22a79.58,79.58,0,0,1-13.73,1.31c-9.16.2-18.27.5-27.39.46-4.56,0-9.12-.39-13.67-.57l-13.69-.42c-4.57-.17-9.15-.37-13.75-.86-2.31-.24-4.61-.52-7-1a30.4,30.4,0,0,1-3.64-.88,12.9,12.9,0,0,1-2.07-.81,6.45,6.45,0,0,1-1.36-.94A4.16,4.16,0,0,1,1212.57,422.7Z"/><path class="cls-17" d="M1232.83,506.69c0-.23.16.24.66.51a9.49,9.49,0,0,0,1.72.83,31.25,31.25,0,0,0,4,1.16,79.7,79.7,0,0,0,8.48,1.18c5.73.41,11.49.47,17.23.45a142.47,142.47,0,0,0,17.18-1c2.83-.3,5.67-.63,8.42-1.19a28.08,28.08,0,0,0,3.94-1.08,7.83,7.83,0,0,0,1.64-.77c.48-.23.54-.69.45-.12.08.57,0,.14-.49-.06a9.53,9.53,0,0,0-1.65-.69,26.51,26.51,0,0,0-4-.95c-2.75-.47-5.58-.78-8.4-1.1-5.66-.67-11.39-1-17.14-1.21a162.09,162.09,0,0,0-17.22.37,69.93,69.93,0,0,0-8.47,1.22,29.38,29.38,0,0,0-4,1.13,9.36,9.36,0,0,0-1.71.8C1233,506.46,1232.79,506.92,1232.83,506.69Zm-2.72,0a4.78,4.78,0,0,1,.29-1.11,2.57,2.57,0,0,1,.52-.73,4.43,4.43,0,0,1,1.13-.94,11.63,11.63,0,0,1,2.22-1,34.14,34.14,0,0,1,4.37-1.25c2.9-.67,5.82-1,8.73-1.44a169.16,169.16,0,0,1,17.54-1.39,133.42,133.42,0,0,1,17.64.54,60,60,0,0,1,8.8,1.57,37,37,0,0,1,4.41,1.43,12.58,12.58,0,0,1,2.29,1.15,5.53,5.53,0,0,1,1.22,1,3.82,3.82,0,0,1,.58.85,5.45,5.45,0,0,1,.32,1.31,5.14,5.14,0,0,1-.33,1.31,3.39,3.39,0,0,1-.59.83,5.24,5.24,0,0,1-1.24,1,13,13,0,0,1-2.3,1.07,35,35,0,0,1-4.42,1.3,78.88,78.88,0,0,1-8.78,1.48c-5.87.57-11.74.74-17.6.78a130.27,130.27,0,0,1-17.53-1.3,84,84,0,0,1-8.72-1.49,32.36,32.36,0,0,1-4.37-1.21,11.83,11.83,0,0,1-2.22-1,4.61,4.61,0,0,1-1.14-.92,2.92,2.92,0,0,1-.53-.73A4.78,4.78,0,0,1,1230.11,506.69Z"/><polygon class="cls-18" points="1339.32 372.53 1336.65 389.66 1201.58 384.43 1198.14 369.02 1339.32 372.53"/><polygon class="cls-14" points="1239.3 372.08 1239.3 383.29 1204.89 381.63 1201.84 372.08 1239.3 372.08"/><polygon class="cls-14" points="1246.06 372.08 1267.04 372.08 1264.91 383.29 1246.17 383.29 1246.06 372.08"/><polygon class="cls-14" points="1292.25 259.2 1295.22 346.69 1300.63 333.2 1298.37 266.07 1328.43 263.95 1331.43 256.42 1292.25 259.2"/><polygon class="cls-19" points="1467.38 122.23 1464.19 418.74 1343.58 399.78 1443.55 408.98 1435.26 134.5 1467.38 122.23"/><polygon class="cls-14" points="1319.06 154.32 1311.84 149.12 1248.98 167.98 1256.54 172.32 1319.06 154.32"/><polygon class="cls-14" points="1321.9 153.67 1315.11 148.36 1338.81 141.63 1344.44 147.49 1321.9 153.67"/><path class="cls-20" d="M231.62,700.61s-14,13.16-3.27,33.9-34.22,4.72-34.22,4.72,9.43-24.46-7-38.62,40.67,0,40.67,0"/><ellipse class="cls-21" cx="324.23" cy="567.05" rx="61.88" ry="62.04" transform="translate(-249.25 879.78) rotate(-88.84)"/><path class="cls-22" d="M370.36,549.37c9.05,1.88,14.21,10.59,15.76,13.62a63.59,63.59,0,0,0-.94-7.49c-3-3.82-7.68-8-14.13-9.32-5.94-1.24-12.32.14-19.06,4.08a101,101,0,0,0-11.17-13.64c11.48-6.56,21.94-10.16,30.21-10.18-.94-1.07-1.93-2.11-2.94-3.12-8.45.77-18.65,4.58-29.64,10.95-1.79-1.72-3.57-3.31-5.31-4.76s-3.23-2.62-4.84-3.81c4.47-2.48,8-5.39,9.87-9a14.1,14.1,0,0,0,1.24-9.66c-1.18-.29-2.36-.56-3.56-.78a11.24,11.24,0,0,1-.56,8.92c-1.77,3.32-5.31,6-9.92,8.4a108.5,108.5,0,0,0-25.83-13.32q-2.19,1-4.29,2.05l.2.08a100.4,100.4,0,0,1,26.48,12.8c-6.94,3-15.55,5.38-24,7.72-12.79,3.54-25,7-31.8,12.42a62.67,62.67,0,0,0-2.5,8.44,1.58,1.58,0,0,0,.72-.88c2.59-8,18.79-12.5,34.45-16.84,9.29-2.57,18.76-5.2,26.25-8.71,2,1.45,4.07,3,6.12,4.74,1.44,1.21,2.91,2.51,4.38,3.9a186.4,186.4,0,0,0-25.66,19.23c-16.14,14.27-32.83,33.71-36.48,47.3.84,1.18,1.71,2.34,2.62,3.46,1.33-10.9,16-30.63,36-48.32a183,183,0,0,1,25.89-19.34A97.14,97.14,0,0,1,349.22,552a70.23,70.23,0,0,0-9,7.39c-4.65,4.46-8.36,19.1-12.29,34.6-3.58,14.12-7.61,30-11.83,34.4,1.25.16,2.51.29,3.78.38,4.2-6.36,7.63-19.84,11.21-34,3.65-14.37,7.41-29.23,11.39-33a66.05,66.05,0,0,1,8.55-7c8.85,14,15.64,32.69,15.85,57.26q1.65-1.56,3.18-3.24c-.76-23.7-7.53-42-16.28-55.77C359.73,549.53,365.28,548.31,370.36,549.37Z"/><path class="cls-23" d="M325.49,505.19a62.77,62.77,0,0,0-9.84.57,61.86,61.86,0,0,1-2.5,122.18,61.89,61.89,0,1,0,12.34-122.75Z"/><path class="cls-24" d="M279.65,902.37l-40.52-.14a408.29,408.29,0,0,1-50.64,4.4c-33.46.65-30.32,15.41-29.23-9,3.26-73.72,3.68-120.89,10.44-145.44,4.76-17.37,12.2-29.86,22.34-32.14a15.21,15.21,0,0,1,4.59-.34l1,.74a36.43,36.43,0,0,0,22,7.13c2,0,5.21-3,7-1.9,1.31.8,2.51,1.62,3.65,2.44,11.22,8.2,15.65,18.32,22.12,31.26l2.17,3.93,2.4-6.09S279.65,846.26,279.65,902.37Z"/><path class="cls-25" d="M301.59,751c3.76-1,14.94,1.46,22,8.43"/><path class="cls-26" d="M234.05,779.74c2.42,22.94-12.46,35.8-26.19,35.79-9.91,0-35.74-6.83-35.74-44,0-27,12.76-41,26.35-41.69C226.63,728.35,232.81,768,234.05,779.74Z"/><path class="cls-20" d="M232.36,783.74s-4,10.75-9,18c-10.94,15.55-54.24,12.16-46.56-46.64,1.41-10.83,9.46-21.51,14.86-23.75a21.54,21.54,0,0,1,14.09-.63"/><path class="cls-27" d="M238.08,771.77c10.47,6.5-17.67,8.94-5.72,12"/><path class="cls-28" d="M255.28,804.75a125.27,125.27,0,0,1-15.1,36.69,90.56,90.56,0,0,0,25.46-41.61l2.88,35.9c.41,5,.78,10.24-1,14.93l-5.24-22.83c-1.68,14.39-13,25.63-24.32,34.62q-9.68,7.65-20,14.36a166.75,166.75,0,0,0,24.61-35.59c-3.52,6.86-21.12,17.67-28.34,18.08,13.16-15.16,15.54-19.66,20.72-25.45C243.91,823.76,248,816.11,255.28,804.75Z"/><path class="cls-20" d="M273.19,641.66c1.6,2.73,5.27,5.46,8.17,6.77a2.29,2.29,0,0,1,.58,3.86,50.7,50.7,0,0,1-6.76,4.66c2.73.73,5.71,1.62,7.22,4s.09,6.5-2.73,6.24c2,5.07,1.12,10.92-.94,16-5.8,14.35-19.8,24-34.47,28.89-12.44,4.18-41,3-46.36,1.48-.54-.16-.84-.31-.89-.47a53.7,53.7,0,0,0-7.13,3.83c-6.44,3.9-20.86,5.43-44.23-9.38-59.42-37.67-82.21-83.77-38.06-129.38,21.11-21.8,43.08-27.19,62-25.22,20.7,2.16,37.75,13.12,46,21.13,4.36,4.22,9.19,1.16,12.81,5.95,8.44,11.06,14.64,30.74,23.72,41.5,3,3.57,7.46,7.07,11.86,5.6s5.21-6.13,9.86-5.35C278.31,622.54,276.17,637.68,273.19,641.66Z"/><path class="cls-29" d="M227.41,587.69l-1.65-.24c-5.58-.94-11.19-1.55-16.79-2.36-3.25-.49-6.5-1-9.73-1.61-2-.36-7.85-.48-9.28-1.84a97.67,97.67,0,0,1,16.28,20.54c-2-.25-4-.68-6-1-16.65-2.88-33.83.55-49.88,5.88a34.37,34.37,0,0,1,29.82,40.76c-.6,3.18-1.84,6.48-4.53,8.31A13.13,13.13,0,0,1,169,658c-8.88.59-18.23-1.49-25-7.24-4.43-3.77-7.5-8.84-10.51-13.82q-4.9-8.11-9.81-16.26c-1.84-3-3.76-6.42-3.27-9.94.32-2.35,1.67-4.41,2.79-6.51,3.31-6.15,4.86-13.1,8.08-19.31,5.68-11,16-18.63,26.49-25.17A130.16,130.16,0,0,1,169.61,553c20.7,2.16,37.75,13.12,46,21.13A117.46,117.46,0,0,1,227.41,587.69Z"/><path class="cls-30" d="M238.08,592.31c-6-8.29-16.35-11.93-26.2-14.64a338.81,338.81,0,0,0-59.81-10.83c15.48,6.94,31.66,14.4,41.63,28.09a76.36,76.36,0,0,0-56.65,13.46c5.39-1.22,11,1.05,15.68,3.93,19.2,11.84,30.94,29.24,30,47.73-2.1-2.56-20.4-5.17-23.54-6.29,1.68,1.53,16.15,18.61,17.31,20.56-8.9-.86-20-3.42-28.11.33-3.56,1.64-7.29,4.22-7.72,8.12-.28,2.27.7,4.49,1.79,6.52,4.14,7.65,5,10.24,11.38,16.13,4.81,4.46,10.56,8.81,17.81,10.57s21.26.57,24.9-3.38c.94.71-21.87,17-60.29,5.82l0,0a124.3,124.3,0,0,1-21.93-8.8c-65-33.09-41.44-93.73-41.44-93.73,15.48-94.7,110-80.27,110-80.27,26.93,4.14,40.73,18.38,47.81,31.57,0,0,0,0,0,0A63,63,0,0,1,238.08,592.31Z"/><path class="cls-31" d="M232.81,568.65c-10.53-13.51-26.9-22.1-43.89-24.92-18.47-3.07-37.59.21-55.1,6.8a71,71,0,0,0-17.32,8.9c-7.21,5.34-12.69,12.64-17.61,20.14a225.15,225.15,0,0,0-15.66,27.85,187.94,187.94,0,0,1,21.13-12.58,80.72,80.72,0,0,0-24,39.11,14.45,14.45,0,0,1,14.93-4.89c-9.11,2.51-15.1,12-15.83,21.4s2.86,18.69,7.6,26.86a98.06,98.06,0,0,0,51.34,42.56,124.3,124.3,0,0,1-21.93-8.8C51.5,678,75,617.34,75,617.34c15.48-94.69,110-80.26,110-80.26C211.93,541.22,225.73,555.46,232.81,568.65Z"/><path class="cls-32" d="M170,704.77c4.64,3.16,10.32,5,15.89,4.32,2.32-.3,5.06-1.62,5-4s-3.16-3.69-5.66-3.59-7.14,1.18-8.41-1.73,1.93-3.66,3.25-5.56c3.79-5.47,1.89-10.56-4.61-12.35-4.42-1.22-17.55-1.35-19.36,4C154.19,691.79,166,702,170,704.77Z"/><path class="cls-33" d="M215.49,640.51s-8.68-16.49,3-29.85a8,8,0,0,1,9.28-2.14c3.36,1.52,7.72,5.32,12.67,14C251.9,642.53,233.5,648.75,215.49,640.51Z"/><path class="cls-34" d="M217.25,641.09s-8.6-16.21,2.61-29.17a7.71,7.71,0,0,1,9-2c3.28,1.53,7.55,5.29,12.45,13.79C252.67,643.41,234.83,649.32,217.25,641.09Z"/><path class="cls-35" d="M217.25,641.09a31.83,31.83,0,0,1-3.19-12.67,26.61,26.61,0,0,1,.6-6.54,23.06,23.06,0,0,1,2.42-6.11l.82-1.43,1-1.31c.34-.44.65-.89,1-1.31a8.12,8.12,0,0,1,1.23-1.11,7.88,7.88,0,0,1,6.33-1.3,9.55,9.55,0,0,1,3,1.35,20.38,20.38,0,0,1,2.62,2,34,34,0,0,1,4.39,4.91,59.85,59.85,0,0,1,3.6,5.51,34.49,34.49,0,0,1,2.83,5.95,16.31,16.31,0,0,1,1,6.49,8.89,8.89,0,0,1-2.69,5.89,10.16,10.16,0,0,1-2.73,1.86,13.23,13.23,0,0,1-3.13,1,21.83,21.83,0,0,1-6.55.35A37.63,37.63,0,0,1,217.25,641.09Zm0,0a37.61,37.61,0,0,0,12.6,3.44,22.22,22.22,0,0,0,6.51-.37,13.41,13.41,0,0,0,3.09-1,9.61,9.61,0,0,0,2.67-1.83,8.58,8.58,0,0,0,2.61-5.78,16.1,16.1,0,0,0-1-6.4,34.28,34.28,0,0,0-2.83-5.89,58.72,58.72,0,0,0-3.61-5.47,33.59,33.59,0,0,0-4.33-4.89,19.16,19.16,0,0,0-2.59-2,9.51,9.51,0,0,0-2.94-1.33,7.61,7.61,0,0,0-6.16,1.25,7.73,7.73,0,0,0-1.21,1.08c-.35.4-.67.85-1,1.28l-1,1.3-.82,1.42a23.35,23.35,0,0,0-2.42,6,26.87,26.87,0,0,0-.61,6.51A31.67,31.67,0,0,0,217.25,641.09Z"/><ellipse class="cls-36" cx="232.28" cy="622.64" rx="7.6" ry="10.68" transform="translate(-288.63 209.98) rotate(-31.16)"/><circle class="cls-34" cx="225.99" cy="621.29" r="2.92"/><path class="cls-35" d="M251.72,657.75a24.66,24.66,0,0,0,5.85,1.94,23.72,23.72,0,0,0,6.18.41,23,23,0,0,0,3.08-.39,21.71,21.71,0,0,0,3-.88,23,23,0,0,0,5.49-2.93,22.92,22.92,0,0,1-5.44,3.06,20.39,20.39,0,0,1-3,.95,24.76,24.76,0,0,1-15.41-1.68Z"/><path class="cls-37" d="M201.08,610.72s-3-16.77,14.64-15.47C215.72,595.25,207.52,596.08,201.08,610.72Z"/><path class="cls-26" d="M230.27,727c-16.67,9.22-33.68-1.33-39.31-7.3a8.45,8.45,0,0,1,5.08-1l1.59,1.77a31.6,31.6,0,0,0,22.54,5.75c4.07-.53,5.4-2.24,7.16-1.16C228.64,725.86,229.13,726.15,230.27,727Z"/><path class="cls-20" d="M209.42,776.91c14.11,5,30.88,7.48,30.88,7.48s66.48,10.14,86.75-2.12c0,0,8.26-15.09,8.73-38.43s5.66-89.58,0-113.63c0,0,.94-4.71-13.91-13s-13.54-7.66-12.24-11.83l8.3-26.56a13.2,13.2,0,0,0,.85-4.5,4.45,4.45,0,0,0-2.16-3.83,4,4,0,0,0-4.18.28c-2.9,1.74-4.34,5.09-5.62,8.21q-4,9.75-8.23,19.41c-.13.3-.63.57-.68.25-.81-6-2.22-11.74-1.08-17.69s2.57-12,1.69-18c-.21-1.46-1.08-3.27-2.53-3a8.09,8.09,0,0,0-6.72,3.89,21.17,21.17,0,0,0-2.32,7.58,149.89,149.89,0,0,0-1.86,28.31c-2.32-5.42-4.87-11.25-5.69-17.08-1.07-7.64.37-16-3.61-22.61-1.49-2.47-6.25-1.46-8,.85-1.6,2.1-1.4,5-1.14,7.65l1.93,19a84.52,84.52,0,0,0-8.26-19.06,8.2,8.2,0,0,0-2.28-2.83c-2.05-1.41-4.81-.8-7.21-.14,0,0-6.8,1.49,0,12.69S270.48,609.47,272.6,614s33.95,20,37.48,26.4,1.65,21.47-2.83,47.28-6.83,60.93-6.83,60.93-47.62,3.3-92.42-16c0,0-15.09-7-23.15,4.53"/><path class="cls-27" d="M309.22,639.44a14.21,14.21,0,0,0,8.39,4.22"/><path class="cls-27" d="M267,582.44a93.46,93.46,0,0,0,9.28,24.1"/><path class="cls-27" d="M298.76,749.33a11.35,11.35,0,0,1,9.67,2.4"/><path class="cls-38" d="M219.6,781.21c.09.17.27-.22.07-.26s-.33.18-.41.36c-2.26,4.67-7.38,7.16-12.21,9.05"/></g></g></g></g></g></svg>