<svg xmlns="http://www.w3.org/2000/svg" xmlns:xlink="http://www.w3.org/1999/xlink" viewBox="0 0 512 512"><defs><style>.cls-1,.cls-14,.cls-142,.cls-150,.cls-153,.cls-189,.cls-26,.cls-29,.cls-68{fill:none;}.cls-2{isolation:isolate;}.cls-3{fill:#3a1904;}.cls-4{fill:url(#linear-gradient);}.cls-5{fill:#6e3008;}.cls-6{fill:#431d04;}.cls-7{fill:#67310f;}.cls-8{opacity:0.3;}.cls-9{fill:#924c1f;}.cls-10{fill:url(#linear-gradient-2);}.cls-11{fill:#451e05;}.cls-12{fill:url(#linear-gradient-3);}.cls-13{opacity:0.32;}.cls-14,.cls-142,.cls-150,.cls-153,.cls-26,.cls-29{stroke:#712727;}.cls-14,.cls-142,.cls-150,.cls-153,.cls-189,.cls-26,.cls-29,.cls-68{stroke-miterlimit:10;}.cls-14,.cls-68{stroke-width:0.13px;}.cls-15,.cls-18,.cls-43{opacity:0.5;}.cls-16{clip-path:url(#clip-path);}.cls-17,.cls-18,.cls-82{mix-blend-mode:multiply;}.cls-19{clip-path:url(#clip-path-3);}.cls-20,.cls-43{mix-blend-mode:screen;}.cls-20{opacity:0.7;}.cls-21{clip-path:url(#clip-path-4);}.cls-22{clip-path:url(#clip-path-5);}.cls-23{clip-path:url(#clip-path-6);}.cls-24{clip-path:url(#clip-path-7);}.cls-25{clip-path:url(#clip-path-8);}.cls-26{stroke-width:0.24px;}.cls-27{clip-path:url(#clip-path-9);}.cls-28{clip-path:url(#clip-path-10);}.cls-29{stroke-width:0.16px;}.cls-30{clip-path:url(#clip-path-11);}.cls-31{clip-path:url(#clip-path-12);}.cls-32{clip-path:url(#clip-path-13);}.cls-33{clip-path:url(#clip-path-14);}.cls-34{clip-path:url(#clip-path-15);}.cls-35{clip-path:url(#clip-path-16);}.cls-36{clip-path:url(#clip-path-17);}.cls-37{clip-path:url(#clip-path-18);}.cls-38{opacity:0.1;}.cls-39{clip-path:url(#clip-path-19);}.cls-40{clip-path:url(#clip-path-20);}.cls-41{opacity:0.2;}.cls-42{clip-path:url(#clip-path-21);}.cls-44{clip-path:url(#clip-path-22);}.cls-45{clip-path:url(#clip-path-23);}.cls-46{clip-path:url(#clip-path-24);}.cls-47{clip-path:url(#clip-path-25);}.cls-48{clip-path:url(#clip-path-27);}.cls-49{clip-path:url(#clip-path-29);}.cls-50{clip-path:url(#clip-path-30);}.cls-51{clip-path:url(#clip-path-31);}.cls-52{clip-path:url(#clip-path-32);}.cls-53{clip-path:url(#clip-path-33);}.cls-54{clip-path:url(#clip-path-34);}.cls-55{clip-path:url(#clip-path-35);}.cls-56{clip-path:url(#clip-path-36);}.cls-57{clip-path:url(#clip-path-37);}.cls-58{clip-path:url(#clip-path-38);}.cls-59{clip-path:url(#clip-path-39);}.cls-60{clip-path:url(#clip-path-40);}.cls-61{clip-path:url(#clip-path-41);}.cls-62{clip-path:url(#clip-path-42);}.cls-63{clip-path:url(#clip-path-43);}.cls-64{clip-path:url(#clip-path-44);}.cls-65{clip-path:url(#clip-path-45);}.cls-66{clip-path:url(#clip-path-46);}.cls-67{clip-path:url(#clip-path-47);}.cls-189,.cls-68{stroke:#242422;}.cls-69{clip-path:url(#clip-path-48);}.cls-70{clip-path:url(#clip-path-49);}.cls-71{clip-path:url(#clip-path-50);}.cls-72{clip-path:url(#clip-path-51);}.cls-73{clip-path:url(#clip-path-52);}.cls-74{clip-path:url(#clip-path-53);}.cls-75{clip-path:url(#clip-path-54);}.cls-76{clip-path:url(#clip-path-55);}.cls-77{clip-path:url(#clip-path-56);}.cls-78{clip-path:url(#clip-path-57);}.cls-79{clip-path:url(#clip-path-58);}.cls-80{clip-path:url(#clip-path-59);}.cls-81{clip-path:url(#clip-path-60);}.cls-82{opacity:0.3;}.cls-83{clip-path:url(#clip-path-61);}.cls-84{clip-path:url(#clip-path-62);}.cls-85{clip-path:url(#clip-path-64);}.cls-86{clip-path:url(#clip-path-65);}.cls-87{clip-path:url(#clip-path-66);}.cls-88{clip-path:url(#clip-path-67);}.cls-89{clip-path:url(#clip-path-68);}.cls-90{clip-path:url(#clip-path-69);}.cls-91{clip-path:url(#clip-path-70);}.cls-92{clip-path:url(#clip-path-71);}.cls-93{clip-path:url(#clip-path-72);}.cls-94{clip-path:url(#clip-path-73);}.cls-95{clip-path:url(#clip-path-74);}.cls-96{clip-path:url(#clip-path-75);}.cls-97{clip-path:url(#clip-path-76);}.cls-98{clip-path:url(#clip-path-77);}.cls-99{clip-path:url(#clip-path-78);}.cls-100{clip-path:url(#clip-path-79);}.cls-101{clip-path:url(#clip-path-80);}.cls-102{clip-path:url(#clip-path-81);}.cls-103{clip-path:url(#clip-path-82);}.cls-104{clip-path:url(#clip-path-83);}.cls-105{clip-path:url(#clip-path-84);}.cls-106{clip-path:url(#clip-path-85);}.cls-107{clip-path:url(#clip-path-86);}.cls-108{clip-path:url(#clip-path-88);}.cls-109{clip-path:url(#clip-path-90);}.cls-110{clip-path:url(#clip-path-91);}.cls-111{clip-path:url(#clip-path-92);}.cls-112{clip-path:url(#clip-path-93);}.cls-113{clip-path:url(#clip-path-94);}.cls-114{clip-path:url(#clip-path-95);}.cls-115{clip-path:url(#clip-path-96);}.cls-116{clip-path:url(#clip-path-97);}.cls-117{clip-path:url(#clip-path-98);}.cls-118{clip-path:url(#clip-path-99);}.cls-119{clip-path:url(#clip-path-100);}.cls-120{clip-path:url(#clip-path-101);}.cls-121{clip-path:url(#clip-path-102);}.cls-122{clip-path:url(#clip-path-103);}.cls-123{clip-path:url(#clip-path-104);}.cls-124{clip-path:url(#clip-path-105);}.cls-125{clip-path:url(#clip-path-106);}.cls-126{clip-path:url(#clip-path-107);}.cls-127{clip-path:url(#clip-path-108);}.cls-128{clip-path:url(#clip-path-109);}.cls-129{clip-path:url(#clip-path-110);}.cls-130{clip-path:url(#clip-path-111);}.cls-131{clip-path:url(#clip-path-112);}.cls-132{clip-path:url(#clip-path-113);}.cls-133{clip-path:url(#clip-path-114);}.cls-134{clip-path:url(#clip-path-115);}.cls-135{clip-path:url(#clip-path-116);}.cls-136{clip-path:url(#clip-path-117);}.cls-137{clip-path:url(#clip-path-118);}.cls-138{clip-path:url(#clip-path-119);}.cls-139{clip-path:url(#clip-path-120);}.cls-140{clip-path:url(#clip-path-121);}.cls-141{clip-path:url(#clip-path-122);}.cls-142,.cls-189{stroke-width:0.1px;}.cls-143{clip-path:url(#clip-path-123);}.cls-144{clip-path:url(#clip-path-125);}.cls-145{clip-path:url(#clip-path-126);}.cls-146{clip-path:url(#clip-path-127);}.cls-147{clip-path:url(#clip-path-128);}.cls-148{clip-path:url(#clip-path-129);}.cls-149{clip-path:url(#clip-path-130);}.cls-150{stroke-width:0.2px;}.cls-151{clip-path:url(#clip-path-131);}.cls-152{clip-path:url(#clip-path-132);}.cls-153{stroke-width:0.14px;}.cls-154{clip-path:url(#clip-path-133);}.cls-155{clip-path:url(#clip-path-134);}.cls-156{clip-path:url(#clip-path-135);}.cls-157{clip-path:url(#clip-path-136);}.cls-158{clip-path:url(#clip-path-137);}.cls-159{clip-path:url(#clip-path-138);}.cls-160{clip-path:url(#clip-path-139);}.cls-161{clip-path:url(#clip-path-140);}.cls-162{clip-path:url(#clip-path-141);}.cls-163{clip-path:url(#clip-path-142);}.cls-164{clip-path:url(#clip-path-143);}.cls-165{clip-path:url(#clip-path-144);}.cls-166{clip-path:url(#clip-path-145);}.cls-167{clip-path:url(#clip-path-146);}.cls-168{clip-path:url(#clip-path-147);}.cls-169{clip-path:url(#clip-path-149);}.cls-170{clip-path:url(#clip-path-151);}.cls-171{clip-path:url(#clip-path-152);}.cls-172{clip-path:url(#clip-path-153);}.cls-173{clip-path:url(#clip-path-154);}.cls-174{clip-path:url(#clip-path-155);}.cls-175{clip-path:url(#clip-path-156);}.cls-176{clip-path:url(#clip-path-157);}.cls-177{clip-path:url(#clip-path-158);}.cls-178{clip-path:url(#clip-path-159);}.cls-179{clip-path:url(#clip-path-160);}.cls-180{clip-path:url(#clip-path-161);}.cls-181{clip-path:url(#clip-path-162);}.cls-182{clip-path:url(#clip-path-163);}.cls-183{clip-path:url(#clip-path-164);}.cls-184{clip-path:url(#clip-path-165);}.cls-185{clip-path:url(#clip-path-166);}.cls-186{clip-path:url(#clip-path-167);}.cls-187{clip-path:url(#clip-path-168);}.cls-188{clip-path:url(#clip-path-169);}.cls-190{clip-path:url(#clip-path-170);}.cls-191{clip-path:url(#clip-path-171);}.cls-192{clip-path:url(#clip-path-172);}.cls-193{clip-path:url(#clip-path-173);}.cls-194{clip-path:url(#clip-path-174);}.cls-195{clip-path:url(#clip-path-175);}.cls-196{clip-path:url(#clip-path-176);}.cls-197{clip-path:url(#clip-path-177);}.cls-198{clip-path:url(#clip-path-178);}.cls-199{clip-path:url(#clip-path-179);}.cls-200{clip-path:url(#clip-path-180);}.cls-201{clip-path:url(#clip-path-181);}.cls-202{clip-path:url(#clip-path-182);}.cls-203{clip-path:url(#clip-path-183);}.cls-204{fill:#68370f;}</style><linearGradient id="linear-gradient" x1="435.9" y1="352.99" x2="447.16" y2="533.78" gradientUnits="userSpaceOnUse"><stop offset="0.29" stop-color="#924c1f"/><stop offset="0.48" stop-color="#6e3917"/><stop offset="0.7" stop-color="#482610"/><stop offset="0.88" stop-color="#311a0b"/><stop offset="1" stop-color="#291609"/></linearGradient><linearGradient id="linear-gradient-2" x1="247.81" y1="47" x2="283.32" y2="617.16" gradientUnits="userSpaceOnUse"><stop offset="0.41" stop-color="#924c1f"/><stop offset="0.57" stop-color="#6e3917"/><stop offset="0.75" stop-color="#482610"/><stop offset="0.9" stop-color="#311a0b"/><stop offset="1" stop-color="#291609"/></linearGradient><linearGradient id="linear-gradient-3" x1="88.55" y1="294.43" x2="102.58" y2="519.67" gradientUnits="userSpaceOnUse"><stop offset="0.28" stop-color="#935229"/><stop offset="0.37" stop-color="#854a25"/><stop offset="0.64" stop-color="#5f3419"/><stop offset="0.86" stop-color="#482712"/><stop offset="1" stop-color="#40220f"/></linearGradient><clipPath id="clip-path"><rect class="cls-1" x="73.63" y="262.27" width="2.67" height="5.35" transform="translate(-53.34 21.32) rotate(-11.97)"/></clipPath><clipPath id="clip-path-3"><rect class="cls-1" x="71.25" y="262.77" width="2.82" height="7.09" transform="translate(-53.67 20.87) rotate(-11.97)"/></clipPath><clipPath id="clip-path-4"><rect class="cls-1" x="74.54" y="263.2" width="1.52" height="2.94" transform="translate(-53.27 21.38) rotate(-11.97)"/></clipPath><clipPath id="clip-path-5"><rect class="cls-1" x="71.25" y="264.55" width="1.86" height="4.31" transform="translate(-53.76 20.78) rotate(-11.97)"/></clipPath><clipPath id="clip-path-6"><rect class="cls-1" x="82" y="273.35" width="7.87" height="2.66" transform="matrix(0.98, -0.21, 0.21, 0.98, -55.12, 23.8)"/></clipPath><clipPath id="clip-path-7"><rect class="cls-1" x="76.67" y="265.78" width="4.55" height="9.78" transform="translate(-54.44 22.27) rotate(-11.97)"/></clipPath><clipPath id="clip-path-8"><rect class="cls-1" x="78.45" y="268.02" width="1.85" height="4.7" transform="translate(-54.36 22.35) rotate(-11.97)"/></clipPath><clipPath id="clip-path-9"><rect class="cls-1" x="51.17" y="274.93" width="4.45" height="15" transform="translate(-57.43 17.22) rotate(-11.97)"/></clipPath><clipPath id="clip-path-10"><rect class="cls-1" x="53.08" y="276.97" width="1.76" height="6.86" transform="translate(-57 17.3) rotate(-11.97)"/></clipPath><clipPath id="clip-path-11"><rect class="cls-1" x="50.07" y="288.92" width="3.93" height="10.88" transform="matrix(0.98, -0.21, 0.21, 0.98, -59.94, 17.2)"/></clipPath><clipPath id="clip-path-12"><rect class="cls-1" x="56.62" y="303.56" width="3.44" height="7.62" transform="translate(-62.5 18.79) rotate(-11.97)"/></clipPath><clipPath id="clip-path-13"><rect class="cls-1" x="63.84" y="282.91" width="2.48" height="7.93" transform="translate(-58.1 19.74) rotate(-11.97)"/></clipPath><clipPath id="clip-path-14"><rect class="cls-1" x="64.82" y="283.52" width="1.48" height="5.76" transform="translate(-57.99 19.83) rotate(-11.97)"/></clipPath><clipPath id="clip-path-15"><rect class="cls-1" x="56.07" y="288.57" width="8.81" height="3.53" transform="matrix(0.98, -0.21, 0.21, 0.98, -58.92, 18.86)"/></clipPath><clipPath id="clip-path-16"><rect class="cls-1" x="58.05" y="288.95" width="5.14" height="1.97" transform="translate(-58.83 18.88) rotate(-11.97)"/></clipPath><clipPath id="clip-path-17"><rect class="cls-1" x="57.43" y="289.3" width="0.73" height="14.63" transform="translate(-60.28 18.44) rotate(-11.97)"/></clipPath><clipPath id="clip-path-18"><rect class="cls-1" x="57.85" y="290.84" width="0.33" height="10.86" transform="translate(-60.2 18.48) rotate(-11.97)"/></clipPath><clipPath id="clip-path-19"><rect class="cls-1" x="66.39" y="270.53" width="7.03" height="6.91" transform="translate(-55.32 20.46) rotate(-11.97)"/></clipPath><clipPath id="clip-path-20"><rect class="cls-1" x="65.85" y="269.24" width="12.81" height="12.56" transform="translate(-55.59 20.98) rotate(-11.97)"/></clipPath><clipPath id="clip-path-21"><rect class="cls-1" x="67.56" y="271.73" width="4.51" height="3.99" transform="translate(-55.27 20.44) rotate(-11.97)"/></clipPath><clipPath id="clip-path-22"><rect class="cls-1" x="69.18" y="271.56" width="2.75" height="2.79" transform="matrix(0.98, -0.21, 0.21, 0.98, -55.09, 20.57)"/></clipPath><clipPath id="clip-path-23"><rect class="cls-1" x="67.86" y="274.64" width="1.36" height="1.38" transform="translate(-55.63 20.21) rotate(-11.97)"/></clipPath><clipPath id="clip-path-24"><rect class="cls-1" x="66.2" y="270.71" width="5.92" height="5.07" transform="translate(-55.18 20.29) rotate(-11.97)"/></clipPath><clipPath id="clip-path-25"><rect class="cls-1" x="98.33" y="284.78" width="7.66" height="2.64" transform="translate(-57.13 27.42) rotate(-11.97)"/></clipPath><clipPath id="clip-path-27"><rect class="cls-1" x="89.2" y="273.34" width="7.8" height="13.35" transform="translate(-56.07 25.41) rotate(-11.97)"/></clipPath><clipPath id="clip-path-29"><rect class="cls-1" x="91.21" y="276.2" width="4.21" height="7.27" transform="translate(-56.02 25.45) rotate(-11.97)"/></clipPath><clipPath id="clip-path-30"><rect class="cls-1" x="81.41" y="274.85" width="7.67" height="7.88" transform="translate(-55.98 23.75) rotate(-11.97)"/></clipPath><clipPath id="clip-path-31"><rect class="cls-1" x="83.66" y="276.86" width="2.61" height="2.66" transform="translate(-55.86 23.68) rotate(-11.97)"/></clipPath><clipPath id="clip-path-32"><rect class="cls-1" x="73.93" y="277.93" width="8.04" height="6.36" transform="matrix(0.98, -0.21, 0.21, 0.98, -56.62, 22.29)"/></clipPath><clipPath id="clip-path-33"><rect class="cls-1" x="75.78" y="278.84" width="4.48" height="3.36" transform="translate(-56.5 22.29) rotate(-11.97)"/></clipPath><clipPath id="clip-path-34"><rect class="cls-1" x="90.1" y="287.01" width="6.27" height="8.96" transform="translate(-58.44 25.68) rotate(-11.97)"/></clipPath><clipPath id="clip-path-35"><rect class="cls-1" x="91.99" y="289.56" width="3.44" height="4.88" transform="translate(-58.54 25.8) rotate(-11.97)"/></clipPath><clipPath id="clip-path-36"><rect class="cls-1" x="70.72" y="280.9" width="2.36" height="6.21" transform="translate(-57.35 21.1) rotate(-11.97)"/></clipPath><clipPath id="clip-path-37"><rect class="cls-1" x="71.06" y="281.29" width="1.63" height="3.88" transform="translate(-57.2 21.07) rotate(-11.97)"/></clipPath><clipPath id="clip-path-38"><rect class="cls-1" x="72.34" y="278.05" width="9.77" height="8.08" transform="translate(-56.84 22.16) rotate(-11.97)"/></clipPath><clipPath id="clip-path-39"><rect class="cls-1" x="73.09" y="278.83" width="7.16" height="5.64" transform="translate(-56.76 22.03) rotate(-11.97)"/></clipPath><clipPath id="clip-path-40"><rect class="cls-1" x="81.93" y="276.29" width="6.55" height="12.79" transform="translate(-56.79 23.83) rotate(-11.97)"/></clipPath><clipPath id="clip-path-41"><rect class="cls-1" x="82.86" y="277.22" width="4.57" height="9.87" transform="translate(-56.68 23.8) rotate(-11.97)"/></clipPath><clipPath id="clip-path-42"><rect class="cls-1" x="75.43" y="264.94" width="5.71" height="6.85" transform="translate(-53.97 22.08) rotate(-11.97)"/></clipPath><clipPath id="clip-path-43"><rect class="cls-1" x="75.65" y="265.4" width="3.58" height="3.25" transform="translate(-53.71 21.88) rotate(-11.97)"/></clipPath><clipPath id="clip-path-44"><rect class="cls-1" x="99.37" y="270.4" width="2.04" height="0.56" transform="translate(-53.97 26.72) rotate(-11.97)"/></clipPath><clipPath id="clip-path-45"><rect class="cls-1" x="98.13" y="270.16" width="3.84" height="1.53" transform="translate(-54.03 26.65) rotate(-11.97)"/></clipPath><clipPath id="clip-path-46"><rect class="cls-1" x="101.13" y="267.33" width="0.66" height="1.36" transform="translate(-53.39 26.88) rotate(-11.97)"/></clipPath><clipPath id="clip-path-47"><rect class="cls-1" x="100.34" y="267.38" width="1.17" height="2.36" transform="translate(-53.52 26.78) rotate(-11.97)"/></clipPath><clipPath id="clip-path-48"><rect class="cls-1" x="88.31" y="257.7" width="7.39" height="4.73" transform="translate(-51.95 24.75) rotate(-11.97)"/></clipPath><clipPath id="clip-path-49"><rect class="cls-1" x="80.17" y="259.03" width="20.05" height="14.89" transform="translate(-53.32 24.51) rotate(-11.97)"/></clipPath><clipPath id="clip-path-50"><rect class="cls-1" x="84.63" y="260.88" width="9.91" height="8.33" transform="matrix(0.98, -0.21, 0.21, 0.98, -53.04, 24.35)"/></clipPath><clipPath id="clip-path-51"><rect class="cls-1" x="81.32" y="262.42" width="2.57" height="4.17" transform="translate(-53.08 22.89) rotate(-11.97)"/></clipPath><clipPath id="clip-path-52"><rect class="cls-1" x="81.87" y="262.37" width="1.84" height="2.51" transform="translate(-52.89 22.91) rotate(-11.97)"/></clipPath><clipPath id="clip-path-53"><rect class="cls-1" x="81.65" y="265.6" width="0.84" height="1.15" transform="translate(-53.43 22.82) rotate(-11.97)"/></clipPath><clipPath id="clip-path-54"><rect class="cls-1" x="87.29" y="261.61" width="2.52" height="2.13" transform="translate(-52.57 24.08) rotate(-11.97)"/></clipPath><clipPath id="clip-path-55"><rect class="cls-1" x="90.72" y="263.26" width="1.15" height="0.98" transform="translate(-52.73 24.68) rotate(-11.97)"/></clipPath><clipPath id="clip-path-56"><rect class="cls-1" x="95.32" y="260.59" width="4.11" height="6.43" transform="translate(-52.61 25.94) rotate(-11.97)"/></clipPath><clipPath id="clip-path-57"><rect class="cls-1" x="85.87" y="244.52" width="11.54" height="15.12" transform="translate(-50.3 24.5) rotate(-11.97)"/></clipPath><clipPath id="clip-path-58"><rect class="cls-1" x="88.31" y="244.58" width="7.45" height="8.15" transform="translate(-49.58 24.5) rotate(-11.97)"/></clipPath><clipPath id="clip-path-59"><rect class="cls-1" x="86.7" y="248.65" width="14.83" height="10.73" transform="translate(-50.65 25.05) rotate(-11.97)"/></clipPath><clipPath id="clip-path-60"><rect class="cls-1" x="91.49" y="248.1" width="8.93" height="5.98" transform="translate(-50 25.37) rotate(-11.97)"/></clipPath><clipPath id="clip-path-61"><rect class="cls-1" x="80.26" y="259.86" width="13.48" height="14.74" transform="translate(-53.55 23.86) rotate(-11.97)"/></clipPath><clipPath id="clip-path-62"><rect class="cls-1" x="185.24" y="191.61" width="4.09" height="3.79" transform="translate(-21.07 22.9) rotate(-6.62)"/></clipPath><clipPath id="clip-path-64"><rect class="cls-1" x="185.31" y="191.8" width="0.94" height="7.07" transform="translate(-21.29 22.74) rotate(-6.62)"/></clipPath><clipPath id="clip-path-65"><rect class="cls-1" x="186.35" y="192.13" width="2.39" height="1.95" transform="translate(-21.03 22.93) rotate(-6.62)"/></clipPath><clipPath id="clip-path-66"><rect class="cls-1" x="185.36" y="193.61" width="0.15" height="4.38" transform="translate(-21.35 22.7) rotate(-6.62)"/></clipPath><clipPath id="clip-path-67"><rect class="cls-1" x="196.03" y="198.27" width="7.68" height="1.59" transform="translate(-21.63 24.39) rotate(-6.62)"/></clipPath><clipPath id="clip-path-68"><rect class="cls-1" x="188.83" y="193.64" width="7.4" height="7.09" transform="translate(-21.46 23.53) rotate(-6.62)"/></clipPath><clipPath id="clip-path-69"><rect class="cls-1" x="191.14" y="195.31" width="3.33" height="3.33" transform="translate(-21.44 23.56) rotate(-6.62)"/></clipPath><clipPath id="clip-path-70"><rect class="cls-1" x="172.34" y="207.94" width="2.12" height="14.43" transform="translate(-23.66 21.44) rotate(-6.62)"/></clipPath><clipPath id="clip-path-71"><rect class="cls-1" x="172.67" y="209.97" width="1.05" height="6.52" transform="translate(-23.44 21.41) rotate(-6.62)"/></clipPath><clipPath id="clip-path-72"><rect class="cls-1" x="175.14" y="220.79" width="0.79" height="10.74" transform="translate(-24.92 21.76) rotate(-6.62)"/></clipPath><clipPath id="clip-path-73"><rect class="cls-1" x="184.65" y="231.97" width="0.44" height="7.78" transform="translate(-25.98 22.9) rotate(-6.62)"/></clipPath><clipPath id="clip-path-74"><rect class="cls-1" x="184.24" y="211.89" width="1.56" height="7.63" transform="translate(-23.65 22.79) rotate(-6.62)"/></clipPath><clipPath id="clip-path-75"><rect class="cls-1" x="184.78" y="212.45" width="0.88" height="5.47" transform="translate(-23.59 22.8) rotate(-6.62)"/></clipPath><clipPath id="clip-path-76"><rect class="cls-1" x="177.48" y="219.63" width="8.73" height="1.45" transform="translate(-24.21 22.45) rotate(-6.62)"/></clipPath><clipPath id="clip-path-77"><rect class="cls-1" x="179.29" y="219.61" width="5.12" height="0.27" transform="translate(-24.14 22.45) rotate(-6.62)"/></clipPath><clipPath id="clip-path-78"><rect class="cls-1" x="178.33" y="220.33" width="5.7" height="12.48" transform="translate(-24.93 22.41) rotate(-6.62)"/></clipPath><clipPath id="clip-path-79"><rect class="cls-1" x="179.23" y="221.55" width="4.2" height="9.21" transform="translate(-24.88 22.43) rotate(-6.62)"/></clipPath><clipPath id="clip-path-80"><rect class="cls-1" x="183.03" y="198.93" width="5.04" height="7.75" transform="translate(-22.16 22.76) rotate(-6.62)"/></clipPath><clipPath id="clip-path-81"><rect class="cls-1" x="182.87" y="196.43" width="10.38" height="13.82" transform="translate(-22.2 23.05) rotate(-6.62)"/></clipPath><clipPath id="clip-path-82"><rect class="cls-1" x="183.9" y="200.42" width="3.05" height="4.71" transform="translate(-22.15 22.75) rotate(-6.62)"/></clipPath><clipPath id="clip-path-83"><rect class="cls-1" x="184.64" y="200.37" width="2.2" height="2.91" transform="translate(-22.04 22.78) rotate(-6.62)"/></clipPath><clipPath id="clip-path-84"><rect class="cls-1" x="184.09" y="203.8" width="1.1" height="1.43" transform="matrix(0.99, -0.12, 0.12, 0.99, -22.36, 22.67)"/></clipPath><clipPath id="clip-path-85"><rect class="cls-1" x="182.97" y="199.24" width="3.28" height="6.44" transform="translate(-22.13 22.65) rotate(-6.62)"/></clipPath><clipPath id="clip-path-86"><rect class="cls-1" x="213.82" y="203.84" width="7.5" height="0.93" transform="translate(-22.12 26.46) rotate(-6.62)"/></clipPath><clipPath id="clip-path-88"><rect class="cls-1" x="201.98" y="197.25" width="11.59" height="8.57" transform="translate(-21.86 25.32) rotate(-6.62)"/></clipPath><clipPath id="clip-path-90"><rect class="cls-1" x="204.75" y="199" width="6.3" height="4.66" transform="translate(-21.84 25.33) rotate(-6.62)"/></clipPath><clipPath id="clip-path-91"><rect class="cls-1" x="198.54" y="197.98" width="3.9" height="9.48" transform="translate(-22.05 24.48) rotate(-6.62)"/></clipPath><clipPath id="clip-path-92"><rect class="cls-1" x="199.41" y="200.66" width="1.25" height="3.24" transform="translate(-22 24.43) rotate(-6.62)"/></clipPath><clipPath id="clip-path-93"><rect class="cls-1" x="190.09" y="205.54" width="9.09" height="2.66" transform="translate(-22.57 23.84) rotate(-6.62)"/></clipPath><clipPath id="clip-path-94"><rect class="cls-1" x="192.01" y="205.76" width="5.08" height="1.22" transform="translate(-22.51 23.82) rotate(-6.62)"/></clipPath><clipPath id="clip-path-95"><rect class="cls-1" x="206.9" y="208.96" width="8.62" height="5.46" transform="translate(-23.01 25.78) rotate(-6.62)"/></clipPath><clipPath id="clip-path-96"><rect class="cls-1" x="209.41" y="210.54" width="4.76" height="2.9" transform="translate(-23.04 25.85) rotate(-6.62)"/></clipPath><clipPath id="clip-path-97"><rect class="cls-1" x="188.01" y="209.02" width="3.93" height="4.63" transform="translate(-23.11 23.33) rotate(-6.62)"/></clipPath><clipPath id="clip-path-98"><rect class="cls-1" x="188.47" y="209.19" width="2.84" height="2.71" transform="translate(-23.02 23.31) rotate(-6.62)"/></clipPath><clipPath id="clip-path-99"><rect class="cls-1" x="191.51" y="202.79" width="5.66" height="10.41" transform="translate(-22.7 23.81) rotate(-6.62)"/></clipPath><clipPath id="clip-path-100"><rect class="cls-1" x="191.67" y="204.02" width="4.03" height="7.48" transform="translate(-22.67 23.73) rotate(-6.62)"/></clipPath><clipPath id="clip-path-101"><rect class="cls-1" x="196.5" y="201.8" width="10.19" height="8.72" transform="matrix(0.99, -0.12, 0.12, 0.99, -22.44, 24.63)"/></clipPath><clipPath id="clip-path-102"><rect class="cls-1" x="197.56" y="202.37" width="7.57" height="6.75" transform="translate(-22.39 24.6) rotate(-6.62)"/></clipPath><clipPath id="clip-path-103"><rect class="cls-1" x="188.88" y="191.66" width="5.9" height="7.04" transform="translate(-21.24 23.43) rotate(-6.62)"/></clipPath><clipPath id="clip-path-104"><rect class="cls-1" x="188.93" y="192.62" width="2.32" height="3.81" transform="translate(-21.17 23.23) rotate(-6.62)"/></clipPath><clipPath id="clip-path-105"><rect class="cls-1" x="210.54" y="190.67" width="1.8" height="0.85" transform="translate(-20.63 25.67) rotate(-6.62)"/></clipPath><clipPath id="clip-path-106"><rect class="cls-1" x="209.63" y="190.43" width="3.18" height="2.02" transform="translate(-20.68 25.65) rotate(-6.62)"/></clipPath><clipPath id="clip-path-107"><rect class="cls-1" x="211.15" y="187.97" width="0.98" height="1.02" transform="translate(-20.33 25.67) rotate(-6.62)"/></clipPath><clipPath id="clip-path-108"><rect class="cls-1" x="210.75" y="188" width="1.44" height="1.97" transform="translate(-20.39 25.66) rotate(-6.62)"/></clipPath><clipPath id="clip-path-109"><rect class="cls-1" x="197.38" y="182.34" width="7.59" height="2.48" transform="translate(-19.84 24.43) rotate(-6.62)"/></clipPath><clipPath id="clip-path-110"><rect class="cls-1" x="191.8" y="183.82" width="19.16" height="13.77" transform="translate(-20.66 24.51) rotate(-6.62)"/></clipPath><clipPath id="clip-path-111"><rect class="cls-1" x="195.32" y="185.99" width="10" height="6.69" transform="translate(-20.5 24.37) rotate(-6.62)"/></clipPath><clipPath id="clip-path-112"><rect class="cls-1" x="193.17" y="188.8" width="1.61" height="4.22" transform="translate(-20.73 23.65) rotate(-6.62)"/></clipPath><clipPath id="clip-path-113"><rect class="cls-1" x="193.07" y="188.8" width="1.61" height="2.41" transform="translate(-20.63 23.63) rotate(-6.62)"/></clipPath><clipPath id="clip-path-114"><rect class="cls-1" x="193.61" y="191.92" width="0.74" height="1.1" transform="translate(-20.91 23.66) rotate(-6.62)"/></clipPath><clipPath id="clip-path-115"><rect class="cls-1" x="197.39" y="186.7" width="2.64" height="1.58" transform="translate(-20.3 24.18) rotate(-6.62)"/></clipPath><clipPath id="clip-path-116"><rect class="cls-1" x="200.85" y="187.29" width="1.21" height="0.72" transform="translate(-20.3 24.49) rotate(-6.62)"/></clipPath><clipPath id="clip-path-117"><rect class="cls-1" x="203.94" y="183.87" width="5.69" height="4.21" transform="translate(-20.07 25.1) rotate(-6.62)"/></clipPath><clipPath id="clip-path-118"><rect class="cls-1" x="196.24" y="168.68" width="4.37" height="17.12" transform="translate(-19.12 24.07) rotate(-6.62)"/></clipPath><clipPath id="clip-path-119"><rect class="cls-1" x="196.06" y="169.19" width="3.36" height="9.74" transform="translate(-18.76 23.97) rotate(-6.62)"/></clipPath><clipPath id="clip-path-120"><rect class="cls-1" x="196.78" y="170.94" width="8.77" height="14.61" transform="translate(-19.22 24.4) rotate(-6.62)"/></clipPath><clipPath id="clip-path-121"><rect class="cls-1" x="199.21" y="170.9" width="5.44" height="8.39" transform="translate(-18.85 24.46) rotate(-6.62)"/></clipPath><clipPath id="clip-path-122"><rect class="cls-1" x="191.93" y="186.01" width="15.16" height="11.81" transform="translate(-20.81 24.3) rotate(-6.62)"/></clipPath><clipPath id="clip-path-123"><rect class="cls-1" x="427.03" y="362.39" width="4.4" height="2.19" transform="matrix(0.02, -1, 1, 0.02, 58.83, 786.75)"/></clipPath><clipPath id="clip-path-125"><rect class="cls-1" x="428.39" y="363.06" width="5.82" height="2.31" transform="translate(60.12 789.54) rotate(-89.07)"/></clipPath><clipPath id="clip-path-126"><rect class="cls-1" x="427.71" y="362.68" width="2.41" height="1.25" transform="translate(58.68 786.26) rotate(-89.07)"/></clipPath><clipPath id="clip-path-127"><rect class="cls-1" x="429.98" y="363.69" width="3.54" height="1.53" transform="translate(60.32 790.22) rotate(-89.07)"/></clipPath><clipPath id="clip-path-128"><rect class="cls-1" x="420.83" y="369.81" width="2.18" height="6.46" transform="translate(42.08 788.85) rotate(-89.07)"/></clipPath><clipPath id="clip-path-129"><rect class="cls-1" x="422.91" y="366.85" width="8.03" height="3.73" transform="translate(51.32 789.59) rotate(-89.07)"/></clipPath><clipPath id="clip-path-130"><rect class="cls-1" x="424.6" y="367.78" width="3.86" height="1.52" transform="translate(51.11 789.02) rotate(-89.07)"/></clipPath><clipPath id="clip-path-131"><rect class="cls-1" x="443.2" y="372.34" width="12.31" height="3.65" transform="matrix(0.02, -1, 1, 0.02, 67.93, 817.39)"/></clipPath><clipPath id="clip-path-132"><rect class="cls-1" x="445.76" y="371.91" width="5.63" height="1.44" transform="translate(68.71 815.09) rotate(-89.07)"/></clipPath><clipPath id="clip-path-133"><rect class="cls-1" x="447.86" y="381.96" width="8.93" height="3.23" transform="matrix(0.02, -1, 1, 0.02, 61.46, 829.6)"/></clipPath><clipPath id="clip-path-134"><rect class="cls-1" x="446.16" y="393.63" width="6.25" height="2.82" transform="translate(47 837.85) rotate(-89.07)"/></clipPath><clipPath id="clip-path-135"><rect class="cls-1" x="437.38" y="378.57" width="6.51" height="2.04" transform="translate(53.94 814) rotate(-89.07)"/></clipPath><clipPath id="clip-path-136"><rect class="cls-1" x="437.81" y="378.67" width="4.72" height="1.21" transform="translate(53.79 813.24) rotate(-89.07)"/></clipPath><clipPath id="clip-path-137"><rect class="cls-1" x="443.44" y="378.04" width="2.9" height="7.23" transform="translate(56.06 820.29) rotate(-89.07)"/></clipPath><clipPath id="clip-path-138"><rect class="cls-1" x="443.91" y="379.24" width="1.62" height="4.21" transform="translate(56.19 819.81) rotate(-89.07)"/></clipPath><clipPath id="clip-path-139"><rect class="cls-1" x="442.04" y="385.99" width="12.01" height="0.6" transform="translate(54.53 827.99) rotate(-89.07)"/></clipPath><clipPath id="clip-path-140"><rect class="cls-1" x="443.35" y="385.91" width="8.91" height="0.27" transform="translate(54.54 827.52) rotate(-89.07)"/></clipPath><clipPath id="clip-path-141"><rect class="cls-1" x="431.89" y="367.08" width="5.67" height="5.77" transform="translate(57.75 798.62) rotate(-89.07)"/></clipPath><clipPath id="clip-path-142"><rect class="cls-1" x="427.92" y="366.31" width="10.31" height="10.51" transform="translate(54.52 798.55) rotate(-89.07)"/></clipPath><clipPath id="clip-path-143"><rect class="cls-1" x="433.12" y="367.89" width="3.27" height="3.7" transform="translate(58 798.44) rotate(-89.07)"/></clipPath><clipPath id="clip-path-144"><rect class="cls-1" x="432.9" y="368.11" width="2.29" height="2.26" transform="translate(57.8 797.23) rotate(-89.07)"/></clipPath><clipPath id="clip-path-145"><rect class="cls-1" x="435.47" y="370.28" width="1.13" height="1.12" transform="matrix(0.02, -1, 1, 0.02, 58.17, 800.79)"/></clipPath><clipPath id="clip-path-146"><rect class="cls-1" x="433.13" y="366.83" width="4.16" height="4.86" transform="translate(58.93 798.41) rotate(-89.07)"/></clipPath><clipPath id="clip-path-147"><rect class="cls-1" x="409.57" y="381.65" width="2.17" height="6.29" transform="translate(19.23 789.14) rotate(-89.07)"/></clipPath><clipPath id="clip-path-149"><rect class="cls-1" x="411.51" y="375.27" width="10.96" height="6.4" transform="translate(31.8 789.25) rotate(-89.07)"/></clipPath><clipPath id="clip-path-151"><rect class="cls-1" x="413.8" y="376.63" width="5.97" height="3.46" transform="translate(31.71 788.94) rotate(-89.07)"/></clipPath><clipPath id="clip-path-152"><rect class="cls-1" x="419.89" y="373.09" width="6.47" height="6.3" transform="translate(40.05 793.19) rotate(-89.07)"/></clipPath><clipPath id="clip-path-153"><rect class="cls-1" x="422.16" y="374.64" width="2.18" height="2.14" transform="translate(40.71 792.81) rotate(-89.07)"/></clipPath><clipPath id="clip-path-154"><rect class="cls-1" x="426.76" y="373.67" width="5.22" height="6.6" transform="translate(45.48 800.15) rotate(-89.07)"/></clipPath><clipPath id="clip-path-155"><rect class="cls-1" x="427.84" y="374.67" width="2.76" height="3.67" transform="matrix(0.02, -1, 1, 0.02, 45.79, 799.55)"/></clipPath><clipPath id="clip-path-156"><rect class="cls-1" x="415.01" y="385.16" width="7.35" height="5.14" transform="matrix(0.02, -1, 1, 0.02, 24.21, 800.07)"/></clipPath><clipPath id="clip-path-157"><rect class="cls-1" x="416.38" y="386.81" width="4" height="2.83" transform="translate(23.41 800.24) rotate(-89.07)"/></clipPath><clipPath id="clip-path-158"><rect class="cls-1" x="432.14" y="377.38" width="5.1" height="1.93" transform="translate(49.33 806.84) rotate(-89.07)"/></clipPath><clipPath id="clip-path-159"><rect class="cls-1" x="433" y="377.05" width="3.19" height="1.34" transform="matrix(0.02, -1, 1, 0.02, 49.86, 806.12)"/></clipPath><clipPath id="clip-path-160"><rect class="cls-1" x="426.79" y="373.63" width="6.63" height="8.02" transform="translate(45.52 801.55) rotate(-89.07)"/></clipPath><clipPath id="clip-path-161"><rect class="cls-1" x="428.17" y="374.26" width="4.63" height="5.87" transform="translate(46.33 801.5) rotate(-89.07)"/></clipPath><clipPath id="clip-path-162"><rect class="cls-1" x="418.52" y="376.68" width="10.5" height="5.38" transform="matrix(0.02, -1, 1, 0.02, 37.56, 796.92)"/></clipPath><clipPath id="clip-path-163"><rect class="cls-1" x="419.68" y="377.07" width="8.1" height="3.75" transform="translate(37.96 796.46) rotate(-89.07)"/></clipPath><clipPath id="clip-path-164"><rect class="cls-1" x="424.28" y="364.41" width="5.62" height="4.69" transform="matrix(0.02, -1, 1, 0.02, 53.45, 787.83)"/></clipPath><clipPath id="clip-path-165"><rect class="cls-1" x="426.23" y="364.07" width="2.67" height="2.94" transform="translate(55.12 787.11) rotate(-89.07)"/></clipPath><clipPath id="clip-path-166"><rect class="cls-1" x="409.42" y="371.26" width="0.46" height="1.67" transform="translate(30.95 775.65) rotate(-89.07)"/></clipPath><clipPath id="clip-path-167"><rect class="cls-1" x="409.34" y="370.66" width="1.25" height="3.15" transform="matrix(0.02, -1, 1, 0.02, 31.12, 776.09)"/></clipPath><clipPath id="clip-path-168"><rect class="cls-1" x="407.81" y="369.83" width="1.11" height="0.54" transform="translate(31.68 772.41) rotate(-89.07)"/></clipPath><clipPath id="clip-path-169"><rect class="cls-1" x="407.92" y="369.99" width="1.93" height="0.96" transform="translate(31.83 773.28) rotate(-89.07)"/></clipPath><clipPath id="clip-path-170"><rect class="cls-1" x="412.8" y="359.19" width="3.88" height="6.07" transform="translate(45.82 771.02) rotate(-89.07)"/></clipPath><clipPath id="clip-path-171"><rect class="cls-1" x="411.09" y="358.88" width="12.22" height="16.45" transform="translate(43.37 778.28) rotate(-89.07)"/></clipPath><clipPath id="clip-path-172"><rect class="cls-1" x="414.05" y="361.79" width="6.84" height="8.13" transform="translate(44.88 777.33) rotate(-89.07)"/></clipPath><clipPath id="clip-path-173"><rect class="cls-1" x="421.3" y="363.27" width="3.42" height="2.11" transform="translate(51.86 781.36) rotate(-89.07)"/></clipPath><clipPath id="clip-path-174"><rect class="cls-1" x="421.69" y="362.88" width="2.06" height="1.51" transform="translate(52.27 780.4) rotate(-89.07)"/></clipPath><clipPath id="clip-path-175"><rect class="cls-1" x="423.23" y="365.23" width="0.94" height="0.69" transform="translate(51.28 783.28) rotate(-89.07)"/></clipPath><clipPath id="clip-path-176"><rect class="cls-1" x="417.06" y="362.75" width="1.75" height="2.07" transform="translate(47.41 775.75) rotate(-89.07)"/></clipPath><clipPath id="clip-path-177"><rect class="cls-1" x="415.49" y="364.61" width="0.8" height="0.95" transform="translate(44.1 774.98) rotate(-89.07)"/></clipPath><clipPath id="clip-path-178"><rect class="cls-1" x="408.36" y="364.39" width="5.28" height="3.38" transform="translate(38.29 771.08) rotate(-89.07)"/></clipPath><clipPath id="clip-path-179"><rect class="cls-1" x="407.57" y="351" width="12.41" height="9.47" transform="translate(51.36 763.68) rotate(-89.07)"/></clipPath><clipPath id="clip-path-180"><rect class="cls-1" x="409.57" y="349.98" width="6.69" height="6.12" transform="matrix(0.02, -1, 1, 0.02, 53.21, 760.16)"/></clipPath><clipPath id="clip-path-181"><rect class="cls-1" x="407.69" y="351.6" width="8.8" height="12.17" transform="translate(47.76 763.9) rotate(-89.07)"/></clipPath><clipPath id="clip-path-182"><rect class="cls-1" x="407.69" y="351.95" width="4.91" height="7.33" transform="translate(47.91 759.92) rotate(-89.07)"/></clipPath><clipPath id="clip-path-183"><rect class="cls-1" x="413.85" y="361.68" width="12.1" height="11.06" transform="translate(45.92 781.08) rotate(-89.07)"/></clipPath></defs><g class="cls-2"><g id="Layer_1" data-name="Layer 1"><g id="a"><path class="cls-3" d="M500.46,514.28S518.58,414.74,435.12,388c0,0-21.29-4.51-44.49,20.23,0,0-24,71.12-9.34,106Z"/><path class="cls-4" d="M505.57,516.55S523.69,417,440.23,390.29c0,0-21.29-4.51-44.49,20.23,0,0-24,71.12-9.34,106Z"/><ellipse class="cls-5" cx="425.65" cy="408.26" rx="16.89" ry="11.67" transform="translate(-88.18 118.71) rotate(-14.4)"/><ellipse class="cls-6" cx="424.18" cy="406.06" rx="16.89" ry="11.67" transform="translate(-87.67 118.28) rotate(-14.4)"/><ellipse class="cls-7" cx="420.17" cy="402.13" rx="11.91" ry="6.82" transform="translate(-108.33 159.36) rotate(-19.07)"/><g class="cls-8"><path class="cls-9" d="M465.19,466.57c-1,3.51-1,10.1,4,10.33,2.14.1,3.75-1.54,4.63-3.33a13.22,13.22,0,0,0,1.13-7c-.47-5.64-2.9-11.58-8.62-13.6a8.81,8.81,0,0,0-7.34.55,10.05,10.05,0,0,0-4.11,5.08c-1.91,4.74-1.4,10.23-.3,15.09,1.23,5.47,3.78,11,8.34,14.44,4,3.06,9.79,4.36,14.62,2.57,5-1.85,7.62-6.65,8.07-11.76.48-5.41-1.19-10.87-3.67-15.63a38.11,38.11,0,0,0-10.78-12.69c-4.64-3.51-10.7-6.57-16.69-5.51-5.46,1-9.06,5.62-10.82,10.58-3.49,9.81-1,21.5,5.41,29.54a26.44,26.44,0,0,0,12.21,8.69,27.47,27.47,0,0,0,14.5.66,24.74,24.74,0,0,0,12.66-7,25.1,25.1,0,0,0,6.4-14.93c1.22-12.63-5.14-24.05-12.49-33.78-1.89-2.5-3.85-4.94-5.82-7.38-.4-.5-1.11.21-.71.71,7.37,9.12,15.18,18.81,17.5,30.61a31.06,31.06,0,0,1-.88,16.23,21.86,21.86,0,0,1-8.93,11.3,26,26,0,0,1-26.27.65c-8.55-4.94-13.62-14.66-14.08-24.38a25.64,25.64,0,0,1,3.18-14.34,13.53,13.53,0,0,1,5.14-5.1,12.46,12.46,0,0,1,8.32-1c5.4,1.08,10.37,4.41,14.27,8.2a36.78,36.78,0,0,1,8.7,13.15c1.76,4.6,2.67,9.83,1.24,14.65a11.73,11.73,0,0,1-3.91,6,11.45,11.45,0,0,1-6.64,2.33,16,16,0,0,1-13-6.2c-3.4-4.23-5-9.72-5.6-15-.51-4.28-.32-9.46,2.49-13a7.47,7.47,0,0,1,5.86-2.87,9.83,9.83,0,0,1,6.83,3.08,14.76,14.76,0,0,1,3.6,7.54,15.91,15.91,0,0,1,0,7.39c-.51,1.79-1.59,4-3.58,4.43s-3.57-1.12-4.08-2.94a11.29,11.29,0,0,1,.23-6.07.5.5,0,0,0-1-.26Z"/></g><path class="cls-3" d="M385.18,510.67s17-180.77-60.25-278.28c0,0-50.69-67.22-121.15-18.67,0,0-36.5,25.42-52.89,87V508.43Z"/><path class="cls-10" d="M393.37,516.55S410.65,335,332.08,237.12c0,0-51.57-67.5-123.24-18.75,0,0-37.11,25.53-53.8,87.33V514.3Z"/><ellipse class="cls-5" cx="235.42" cy="242.35" rx="37.03" ry="26.41" transform="translate(-96.06 176.95) rotate(-34.67)"/><ellipse class="cls-6" cx="231.16" cy="238.31" rx="37.03" ry="26.41" transform="translate(-94.52 173.81) rotate(-34.67)"/><ellipse class="cls-7" cx="220.67" cy="231.9" rx="26.23" ry="15.36" transform="translate(-95.85 184.05) rotate(-37.82)"/><path class="cls-11" d="M9.8,514.66s-36.13-190.25,85.28-227c0,0,61.6-18.36,81.73,68.7,0,0,16.59,53.58,8.89,158.27Z"/><path class="cls-12" d="M16.91,514.66S-17.21,330.33,97.46,294.75c0,0,58.17-17.79,77.19,66.57,0,0,15.66,51.9,8.39,153.34Z"/><ellipse class="cls-5" cx="118.64" cy="317.82" rx="16.87" ry="23.65" transform="matrix(0.57, -0.82, 0.82, 0.57, -210.23, 234.6)"/><ellipse class="cls-6" cx="121.37" cy="315.24" rx="16.87" ry="23.65" transform="translate(-206.93 235.73) rotate(-55.33)"/><ellipse class="cls-7" cx="128.07" cy="311.14" rx="9.81" ry="16.75" transform="translate(-196.24 221.5) rotate(-52.18)"/><g class="cls-13"><path class="cls-9" d="M58,462.05c-3.85-2.41-3.73-8.12-1.27-11.48a6.49,6.49,0,0,1,6-2.65,10.83,10.83,0,0,1,7.73,5.23c2,3.12,2.54,6.89,2.74,10.49a36.14,36.14,0,0,1-.42,8.63c-.87,4.63-3.11,10.34-8.32,11.33-3.53.67-6.89-1.25-9.64-3.24a34.36,34.36,0,0,1-6.54-6.21,38,38,0,0,1-7.67-16.33,34.46,34.46,0,0,1,1-18,17.66,17.66,0,0,1,4.9-7.74,10.94,10.94,0,0,1,9.22-2.35c6.07,1.11,11.3,5.58,15,10.29A40,40,0,0,1,78,454.71a43.85,43.85,0,0,1,1.15,16.41,39,39,0,0,1-5.21,15.49c-3.25,5.4-8.2,10.91-14.85,11.49s-13.3-3-18.36-7.2a47.46,47.46,0,0,1-11.06-13.4,59.65,59.65,0,0,1-6.2-16.69A70.12,70.12,0,0,1,22,442.76a81.56,81.56,0,0,1,3.62-19.82,122,122,0,0,1,8.43-20.38c3.39-6.59,7.22-12.93,11.24-19.15q2.91-4.5,5.92-8.92c.36-.54-.5-1-.86-.51-4.36,6.44-8.63,12.94-12.54,19.66a153.88,153.88,0,0,0-10.27,20.8,95,95,0,0,0-5.93,21.77,72.57,72.57,0,0,0-.13,19,65.26,65.26,0,0,0,4.91,18,51.38,51.38,0,0,0,10.14,15.21c4.63,4.72,10.5,8.9,17.07,10.29a16.75,16.75,0,0,0,10.23-.81A22.34,22.34,0,0,0,72,491.18a38.28,38.28,0,0,0,7.37-15.34,44.17,44.17,0,0,0,.52-17.22,42.4,42.4,0,0,0-6-16c-3.28-5.12-7.89-9.83-13.46-12.39a14.87,14.87,0,0,0-10-1.28A13,13,0,0,0,43,434.61c-3.46,5.28-4.46,12.16-4,18.35a39.18,39.18,0,0,0,5.78,17.91,37.27,37.27,0,0,0,5.89,7.29A27.42,27.42,0,0,0,59,483.89a9.54,9.54,0,0,0,8.67-.46,12.45,12.45,0,0,0,4.61-5.81,26.84,26.84,0,0,0,1.94-8.19,39.46,39.46,0,0,0-.46-10.18,16.41,16.41,0,0,0-4.63-9.32,10.23,10.23,0,0,0-8.67-2.9c-4.69.87-7,6.28-6.32,10.61a7.58,7.58,0,0,0,3.38,5.27c.55.34,1.05-.52.51-.86Z"/></g><path class="cls-9" d="M331.54,281.36a.5.5,0,0,0,0-1,.5.5,0,0,0,0,1Z"/><path d="M71.36,270.38s1.21-5.89,1.52-7.15.71-.71.46,1.34-.77,5.26-.77,5.26Z"/><path class="cls-14" d="M71.36,270.38s1.21-5.89,1.52-7.15.71-.71.46,1.34-.77,5.26-.77,5.26Z"/><path d="M76.42,267.38a39.6,39.6,0,0,1-3.08-4c-.31-.76-.44-1.35.91,0A32.68,32.68,0,0,1,77,266.63Z"/><path class="cls-14" d="M76.42,267.38a39.6,39.6,0,0,1-3.08-4c-.31-.76-.44-1.35.91,0A32.68,32.68,0,0,1,77,266.63Z"/><g class="cls-15"><g class="cls-16"><g class="cls-17"><g class="cls-16"><path d="M75,265a8.25,8.25,0,0,1-1.38-2.17c-.62-.49-.5,0-.25.61a39.6,39.6,0,0,0,3.08,4l.33-.44c-.53-.57-1.15-1.26-1.78-2"/></g></g></g></g><g class="cls-18"><g class="cls-19"><path d="M72.88,263.23v0a5,5,0,0,1,.13,1.48,39,39,0,0,1-1,5.34l.55-.25s.53-3.21.78-5.26-.19-2.56-.47-1.34"/></g></g><g class="cls-20"><g class="cls-21"><path d="M74.25,263.39s1.53,1.8,2.08,2.53a8.63,8.63,0,0,1-2.08-2.53"/></g></g><g class="cls-20"><g class="cls-22"><path d="M72.65,264.4s-.7,3.3-.92,4.47a16.73,16.73,0,0,0,.92-4.47"/></g></g><path d="M81.81,274.2s7.65,0,8.2.78-8,0-8,0Z"/><g class="cls-18"><g class="cls-23"><path d="M89.58,274.74a12.78,12.78,0,0,1-5.69-.52c-1.19,0-2.08,0-2.08,0l.25.76s8.5.83,8,0a.88.88,0,0,0-.43-.24"/></g></g><path d="M76.7,266.12s5.14,7.8,5.41,8.6-.92-.45-2.13-2.19-4.24-5.94-4.24-5.94Z"/><g class="cls-18"><g class="cls-24"><path d="M77.51,267.35c-.47-.73-.79-1.21-.79-1.21l-1,.47s3,4.21,4.24,5.94,2.39,3,2.13,2.19a13.45,13.45,0,0,0-.83-1.47,14.85,14.85,0,0,1-3-3.66,4.41,4.41,0,0,1-.79-2.26"/></g></g><g class="cls-20"><g class="cls-25"><path d="M78,268.26s2.28,3.39,2.73,4.11A21.24,21.24,0,0,1,78,268.26"/></g></g><path d="M53.72,275.77s-.56,7.77-1.07,12.37c-.23,2,.47,3.88,1-1.15s1.19-16.55.09-11.22"/><path class="cls-26" d="M53.72,275.77s-.56,7.77-1.07,12.37c-.23,2,.47,3.88,1-1.15S54.82,270.44,53.72,275.77Z"/><g class="cls-18"><g class="cls-27"><path d="M53.72,275.77s-.56,7.77-1.07,12.37c-.23,2,.47,3.88,1-1.15,0-.25,0-.53.08-.81-.13-4.4.16-9.5.3-11.55a9.77,9.77,0,0,0-.29,1.14"/></g></g><g class="cls-20"><g class="cls-28"><path d="M54.11,276.87s-.18,4.12-.29,6.5.5-3.3.29-6.5"/></g></g><path d="M52.72,289s-.62,4.59-1.26,8.26c-.44,2.45-.36,4.16.32,1.62A45,45,0,0,0,53,290.28c0-1.28-.2-2.12-.28-1.33"/><path class="cls-29" d="M52.72,289s-.62,4.59-1.26,8.26c-.44,2.45-.36,4.16.32,1.62A45,45,0,0,0,53,290.28C53,289,52.8,288.16,52.72,289Z"/><g class="cls-18"><g class="cls-30"><path d="M53,289.56c-.07-.83-.17-1.24-.24-.61,0,0-.62,4.59-1.26,8.26-.3,1.7-.36,3-.14,2.86.3-2.7,1.13-7.61,1.64-10.51"/></g></g><path d="M62.69,279.18s-7.58-7.4-16.14-2a14.87,14.87,0,0,0-5.52,19c2.24,4.38,15.53,1.71,22.34-13.44Z"/><path class="cls-14" d="M62.69,279.18s-7.58-7.4-16.14-2a14.87,14.87,0,0,0-5.52,19c2.24,4.38,15.53,1.71,22.34-13.44Z"/><path d="M66.87,276.27s-4.7.32-5,4.25a3.59,3.59,0,0,0,4.67,3.56,3.43,3.43,0,0,0,2.48-2.68Z"/><path class="cls-14" d="M66.87,276.27s-4.7.32-5,4.25a3.59,3.59,0,0,0,4.67,3.56,3.43,3.43,0,0,0,2.48-2.68Z"/><path d="M59.06,303.63s-1,3.78-1.42,5.9-.21,2.28.19,1.47a38.23,38.23,0,0,0,1.61-7.36c0-.5-.25-.49-.38,0"/><path class="cls-14" d="M59.06,303.63s-1,3.78-1.42,5.9-.21,2.28.19,1.47a38.23,38.23,0,0,0,1.61-7.36C59.43,303.14,59.19,303.15,59.06,303.63Z"/><g class="cls-17"><g class="cls-31"><path d="M59.06,303.63s-1,3.78-1.42,5.9-.22,2.27.17,1.52a56.66,56.66,0,0,1,1.43-7.76.62.62,0,0,0-.18.34"/></g></g><path d="M65.78,283.13s.09,6.85-.63,7.66c-.45.51-.64-.1-.59-1.06s.46-5.27.46-6.08.54-1.28.76-.52"/><path class="cls-14" d="M65.78,283.13s.09,6.85-.63,7.66c-.45.51-.64-.1-.59-1.06s.46-5.27.46-6.08S65.56,282.37,65.78,283.13Z"/><g class="cls-18"><g class="cls-32"><path d="M65,283.65c0,.81-.42,5.12-.46,6.08s.14,1.57.59,1.06a1.11,1.11,0,0,0,.16-.31,38.7,38.7,0,0,1,.16-7.74c-.22,0-.44.38-.45.91"/></g></g><g class="cls-20"><g class="cls-33"><path d="M65.69,283.43a51.24,51.24,0,0,1-.24,5.9,36.85,36.85,0,0,1,.24-5.9"/></g></g><path d="M64.81,290.68a28.55,28.55,0,0,0-3.36-.77c-1.83-.3-5.52-.68-5.63-.33s2.49,1.5,5.07,1.82,5.08-.24,3.92-.72"/><path class="cls-14" d="M64.81,290.68a28.55,28.55,0,0,0-3.36-.77c-1.83-.3-5.52-.68-5.63-.33s2.49,1.5,5.07,1.82S66,291.16,64.81,290.68Z"/><g class="cls-18"><g class="cls-34"><path d="M64.5,290.59c-2.06.79-5.84-.44-7.76-1.15-.53,0-.89,0-.92.14-.11.34,2.49,1.5,5.07,1.82s5.08-.24,3.92-.72l-.31-.09"/></g></g><g class="cls-20"><g class="cls-35"><path d="M57.9,289.5s3.65.41,5.34.82c.81.26-4.21-.5-5.34-.82"/></g></g><path d="M56,289.74s1.87,8,2.52,11.12c.53,2.84.49,3.08.8,2.89s0-2.87-.45-4.89-1.32-5.77-1.75-7.28S55.94,289,56,289.74"/><path class="cls-14" d="M56,289.74s1.87,8,2.52,11.12c.53,2.84.49,3.08.8,2.89s0-2.87-.45-4.89-1.32-5.77-1.75-7.28S55.94,289,56,289.74Z"/><g class="cls-18"><g class="cls-36"><path d="M58.55,299.8c-.61-3.11-2-8.39-2.45-10.27-.09-.06-.14,0-.14.21,0,0,1.87,8,2.52,11.12.53,2.84.49,3.08.8,2.89.14-.08.16-.62.1-1.38a10.17,10.17,0,0,1-.83-2.57"/></g></g><g class="cls-20"><g class="cls-37"><path d="M56.72,291s1.74,6.74,2.44,10.53A67.67,67.67,0,0,0,56.72,291"/></g></g><path d="M76,268.54s-3.26-.23-6.84,3.4-3.2,7.72-1.41,9.45S74.6,282,77,277.9s.52-8.37-1-9.36"/><path class="cls-14" d="M76,268.54s-3.26-.23-6.84,3.4-3.2,7.72-1.41,9.45S74.6,282,77,277.9,77.52,269.53,76,268.54Z"/><g class="cls-38"><g class="cls-39"><path d="M71.51,270.25s-3.76,2.27-4.54,5.61c-.4,1.63,1.66,2.93,4.27.38s1.79-6.86.27-6"/><path class="cls-14" d="M71.51,270.25s-3.76,2.27-4.54,5.61c-.4,1.63,1.66,2.93,4.27.38S73,269.38,71.51,270.25Z"/></g></g><g class="cls-18"><g class="cls-40"><path d="M76,268.54a6.63,6.63,0,0,0-2.51.49c.35,0,.54.2.34.68a2.34,2.34,0,0,0,1.41,3.37c1.42.28-1.3,6.16-5.67,6.93-3.37.34-3.43-2.68-2.49-5.05l.06-.16c-1.27,2.73-.72,5.31.61,6.59,1.8,1.73,6.84.58,9.24-3.49s.52-8.37-1-9.36"/><path class="cls-14" d="M76,268.54a6.63,6.63,0,0,0-2.51.49c.35,0,.54.2.34.68a2.34,2.34,0,0,0,1.41,3.37c1.42.28-1.3,6.16-5.67,6.93-3.37.34-3.43-2.68-2.49-5.05l.06-.16c-1.27,2.73-.72,5.31.61,6.59,1.8,1.73,6.84.58,9.24-3.49S77.52,269.53,76,268.54Z"/></g></g><g class="cls-41"><g class="cls-42"><g class="cls-43"><g class="cls-44"><path d="M71.41,273.49c-.44.71-1.19,1.05-1.66.76s-.5-1.11-.06-1.82,1.19-1.06,1.66-.76.5,1.11.06,1.82"/><path class="cls-14" d="M71.41,273.49c-.44.71-1.19,1.05-1.66.76s-.5-1.11-.06-1.82,1.19-1.06,1.66-.76S71.85,272.78,71.41,273.49Z"/></g></g><g class="cls-43"><g class="cls-45"><path d="M68.93,275.58c-.2.32-.54.48-.75.34s-.23-.51,0-.83.54-.48.76-.35.23.51,0,.84"/><path class="cls-14" d="M68.93,275.58c-.2.32-.54.48-.75.34s-.23-.51,0-.83.54-.48.76-.35S69.14,275.25,68.93,275.58Z"/></g></g></g></g><g class="cls-20"><g class="cls-46"><path d="M71.51,270.25a10.1,10.1,0,0,0-4.64,6,13.09,13.09,0,0,1,4.64-6"/><path class="cls-14" d="M71.51,270.25a10.1,10.1,0,0,0-4.64,6A13.09,13.09,0,0,1,71.51,270.25Z"/></g></g><path d="M98.2,285.6s5.47,0,7.79.8c.62.38-.42.23-2.06,0s-6.29-.32-5.73-.8"/><path class="cls-14" d="M98.2,285.6s5.47,0,7.79.8c.62.38-.42.23-2.06,0S97.64,286.08,98.2,285.6Z"/><g class="cls-15"><g class="cls-47"><g class="cls-17"><g class="cls-47"><path d="M105.61,286.29a36.66,36.66,0,0,1-5.43-.64c-1.15,0-2,0-2,0-.56.48,4.09.56,5.73.8s2.68.38,2.06,0l-.38-.11"/></g></g></g></g><path d="M88,274.55s8.35,10.26,10.24,11.18c.49.22-1.24-2-3.64-4.79s-7.19-7.89-6.6-6.39"/><path class="cls-14" d="M88,274.55s8.35,10.26,10.24,11.18c.49.22-1.24-2-3.64-4.79S87.38,273.05,88,274.55Z"/><g class="cls-17"><g class="cls-48"><g class="cls-18"><g class="cls-48"><path d="M90.92,277.74a8.41,8.41,0,0,1-1.76-2.57c-.88-.82-1.41-1.18-1.19-.62,0,0,8.35,10.26,10.24,11.18.24.1,0-.35-.65-1.15-1.71-.77-4.57-4.49-6.64-6.84"/></g></g></g></g><g class="cls-20"><g class="cls-49"><path d="M90.5,276.72s4.32,4.43,5.5,6c1,1.25-4-4-5.5-6"/></g></g><path d="M82.29,283.32s.23.35.95-.45,4.15-5.16,4.91-7.64c.2-.85.24-2-1.38.18-2.35,3.1-4.69,7.25-4.48,7.91"/><path class="cls-14" d="M82.29,283.32s.23.35.95-.45,4.15-5.16,4.91-7.64c.2-.85.24-2-1.38.18C84.42,278.51,82.08,282.66,82.29,283.32Z"/><g class="cls-18"><g class="cls-50"><path d="M87.06,275a14.9,14.9,0,0,1-4.56,7.38,1.73,1.73,0,0,0-.21.91s.24.35.95-.45,4.15-5.16,4.91-7.64c.18-.8.24-1.83-1.09-.2"/></g></g><g class="cls-20"><g class="cls-51"><path d="M86,276.61l-2,3.15a8.6,8.6,0,0,0,2-3.15"/></g></g><path d="M73.48,279.21s5.66,3.53,8.92,4.21c.34-.54-.41-1.1-1.65-1.69s-5-2.5-6.18-2.82-1.31,0-1.09.3"/><path class="cls-14" d="M73.48,279.21s5.66,3.53,8.92,4.21c.34-.54-.41-1.1-1.65-1.69s-5-2.5-6.18-2.82S73.26,278.89,73.48,279.21Z"/><g class="cls-18"><g class="cls-52"><path d="M81.49,282.12c-1.54,0-5.82-2.3-7.67-3.35-.48,0-.5.2-.34.44,0,0,5.66,3.53,8.91,4.21.27-.42-.13-.85-.9-1.3"/></g></g><g class="cls-20"><g class="cls-53"><path d="M75.48,279.35s4.34,2,5,2.31-4.45-1.51-5-2.31"/></g></g><path d="M89.57,287.8a45,45,0,0,0,4.73,4.82c2.53,2.16,3,2.36,2.88,2.57s-1.14.09-4.62-3.24c-3-3.05-3.85-4.54-3-4.15"/><path class="cls-14" d="M89.57,287.8a45,45,0,0,0,4.73,4.82c2.53,2.16,3,2.36,2.88,2.57s-1.14.09-4.62-3.24C89.6,288.9,88.71,287.41,89.57,287.8Z"/><g class="cls-17"><g class="cls-54"><path d="M92.11,291a7.28,7.28,0,0,1-1.62-2.14c-.57-.64-.92-1.06-.92-1.06-.86-.39,0,1.1,3,4.15,3.48,3.33,4.5,3.46,4.62,3.24,0-.06,0-.12-.07-.22-1.19-.43-3.09-2.08-5-4"/></g></g><g class="cls-20"><g class="cls-55"><path d="M91.52,290a47.82,47.82,0,0,0,4.3,4c.72.47-3.23-2.24-4.3-4"/></g></g><path d="M73.56,285.53s-2-2.83-2.63-3.88-1.54-1.52.21,2.55c1.29,2.93,2.12,2.69,2.12,2.69Z"/><path class="cls-14" d="M73.56,285.53s-2-2.83-2.63-3.88-1.54-1.52.21,2.55c1.29,2.93,2.12,2.69,2.12,2.69Z"/><g class="cls-18"><g class="cls-56"><path d="M71.14,284.2c1.29,2.93,2.12,2.69,2.12,2.69l.23-1.07c-1.54-.87-2.77-3.27-3.36-4.61a11.38,11.38,0,0,0,1,3"/></g></g><g class="cls-20"><g class="cls-57"><path d="M70.68,281.51l2.4,3.45a12.24,12.24,0,0,1-2.4-3.45"/></g></g><path d="M73.26,286.89s-.44-1.72,4.51-7.18c3.31-3.36,3.59-2.69,3.44-1.83a39.55,39.55,0,0,1-4.36,6.42c-1.83,2.07-3.61,3.1-3.59,2.59"/><path class="cls-14" d="M73.26,286.89s-.44-1.72,4.51-7.18c3.31-3.36,3.59-2.69,3.44-1.83a39.55,39.55,0,0,1-4.36,6.42C75,286.37,73.24,287.4,73.26,286.89Z"/><g class="cls-18"><g class="cls-58"><path d="M80,277.69c-.3,1-1.18,2.92-3.75,6.07a6.75,6.75,0,0,1-2.84,2.34,1.67,1.67,0,0,0-.11.79c0,.51,1.76-.52,3.59-2.59a39.55,39.55,0,0,0,4.36-6.42c.11-.61,0-1.12-1.25-.19"/></g></g><g class="cls-20"><g class="cls-59"><path d="M73.76,285.15a37.66,37.66,0,0,1,5.83-7c-2.4,2.55-5.83,7-5.83,7"/></g></g><path d="M80.84,277.89s.32,1.5,3.44,5.33,4.91,5.29,5.39,5-3.07-4-5.3-7.52c-2.41-3.75-3.93-4.57-3.53-2.86"/><path class="cls-14" d="M80.84,277.89s.32,1.5,3.44,5.33,4.91,5.29,5.39,5-3.07-4-5.3-7.52C82,277,80.44,276.18,80.84,277.89Z"/><g class="cls-18"><g class="cls-60"><path d="M83.05,280.74c-1.29-1.85-1.55-2.91-1.53-3.49-.61-.43-.88-.21-.68.64,0,0,.32,1.5,3.44,5.33s4.91,5.3,5.39,5c.14-.07,0-.43-.44-1-1.34-.12-4.18-3.66-6.18-6.54"/></g></g><g class="cls-20"><g class="cls-61"><path d="M81.93,277.82a31.32,31.32,0,0,1,2.61,3.48c1.79,2.61,3.87,5.21,3.87,5.21s-2-2.14-3.87-4.77-2.85-4.1-2.61-3.92"/></g></g><path d="M80.15,264.7a3.76,3.76,0,0,0-3.33,1.59c-1.57,1.9-1.38,3.76-.28,4.89s3.61.23,5-.51Z"/><path class="cls-14" d="M80.15,264.7a3.76,3.76,0,0,0-3.33,1.59c-1.57,1.9-1.38,3.76-.28,4.89s3.61.23,5-.51Z"/><g class="cls-18"><g class="cls-62"><path d="M79.54,264.7a22.46,22.46,0,0,0,0,3.67c0,2.05-3.24,3-3.84.76h0a3,3,0,0,0,.86,2.05c1.11,1.13,3.61.23,5-.51l-1.44-6a2,2,0,0,0-.61,0"/><path class="cls-14" d="M79.54,264.7a22.46,22.46,0,0,0,0,3.67c0,2.05-3.24,3-3.84.76h0a3,3,0,0,0,.86,2.05c1.11,1.13,3.61.23,5-.51l-1.44-6A2,2,0,0,0,79.54,264.7Z"/></g></g><g class="cls-41"><g class="cls-63"><path d="M78.35,265.3A4.35,4.35,0,0,0,76,268.11c-.31,1,1.56.93,2.33-.84s.55-2.26,0-2"/><path class="cls-14" d="M78.35,265.3A4.35,4.35,0,0,0,76,268.11c-.31,1,1.56.93,2.33-.84S78.91,265,78.35,265.3Z"/></g></g><path d="M99.16,270.33a1.69,1.69,0,0,0,2.23-.19c.58-.55.77.44-.34,1.1s-2.26.81-2.89,0a11.6,11.6,0,0,0,1-.95"/><path class="cls-14" d="M99.16,270.33a1.69,1.69,0,0,0,2.23-.19c.58-.55.77.44-.34,1.1s-2.26.81-2.89,0A11.6,11.6,0,0,0,99.16,270.33Z"/><g class="cls-41"><g class="cls-64"><path d="M99.33,270.62a1.88,1.88,0,0,0,1.91-.24c.54-.37-.89,1.35-1.91.24"/></g></g><g class="cls-18"><g class="cls-65"><path d="M99,270.91a5.39,5.39,0,0,1,.42-.42,1.6,1.6,0,0,1-.26-.16,11.6,11.6,0,0,1-1,.95c.63.77,1.79.63,2.89,0,.63-.37.84-.85.8-1.1-.8,1.45-3.39,1.37-2.85.77"/></g></g><path d="M100.29,268.37s.74-.17,1.09,1.05c.28.64.69-.33.59-1.34s-1-.83-1.39-.56Z"/><path class="cls-14" d="M100.29,268.37s.74-.17,1.09,1.05c.28.64.69-.33.59-1.34s-1-.83-1.39-.56Z"/><g class="cls-41"><g class="cls-66"><path d="M101,267.41s.89-.26.83,1.06c0,.65-.1-1-.83-1.06"/></g></g><g class="cls-18"><g class="cls-67"><path d="M100.89,267.62a.27.27,0,0,1,.08-.27,1.18,1.18,0,0,0-.39.17l-.29.85s.74-.17,1.1,1.05c.06.16.15.22.22.2.23-.93-.63-1.49-.72-2"/></g></g><path d="M88.16,259.76s.31-2.29,4-1.7,3.91,3.55,3.91,3.55Z"/><path class="cls-68" d="M88.16,259.76s.31-2.29,4-1.7,3.91,3.55,3.91,3.55Z"/><g class="cls-18"><g class="cls-69"><path d="M91.29,258.49a1.11,1.11,0,0,1,.28-.51c-3.13-.25-3.41,1.78-3.41,1.78l7.94,1.85a3.76,3.76,0,0,0-.46-1.38c-2.43-1.11-4.57-.9-4.35-1.74"/></g></g><path d="M86,259.76s7.36-1.88,12.61,3.25c4.81,4.74.35,10.26-8.6,10.91-3.69.26-9.77-1.37-10-7.93,0-3.3,2.6-5.53,6-6.23"/><path class="cls-14" d="M86,259.76s7.36-1.88,12.61,3.25c4.81,4.74.35,10.26-8.6,10.91-3.69.26-9.77-1.37-10-7.93C80,262.69,82.6,260.46,86,259.76Z"/><g class="cls-18"><g class="cls-70"><path d="M95.6,272.18c-7.82,2.58-8.5-3-7-2.71s7,.89,7.6-2.63-4.76-5.52-3.85-6.34c.34-.3,1.34-.22,2.46,0a15.29,15.29,0,0,0-8.79-.73c-3.39.71-5.95,2.93-6,6.23.22,6.56,6.29,8.19,10,7.92,6.46-.46,10.58-3.47,10.55-6.89-.25,1.69-1.32,4-5,5.16"/></g></g><g class="cls-18"><g class="cls-71"><path d="M94.68,266.85c-.63,1.86-3.36,2.57-6.29,1.58s-4.5-3.36-3.88-5.21,3.21-2.49,6.14-1.51,4.65,3.29,4,5.14"/></g></g><g class="cls-41"><g class="cls-72"><g class="cls-43"><g class="cls-73"><path d="M83.64,263.73c-.09.71-.55,1.23-1,1.17s-.78-.68-.69-1.39.55-1.23,1-1.17.78.68.69,1.39"/></g></g><g class="cls-43"><g class="cls-74"><path d="M82.46,266.22c0,.32-.25.56-.47.53s-.35-.31-.31-.63.25-.56.46-.54.36.32.32.64"/></g></g></g></g><g class="cls-43"><g class="cls-75"><path d="M88.71,261.87c.74.26,1.27.84,1.18,1.29s-.76.58-1.51.32-1.27-.85-1.18-1.29.77-.59,1.51-.32"/></g></g><g class="cls-43"><g class="cls-76"><path d="M91.37,263.38c.34.12.58.39.54.59s-.35.27-.69.15-.58-.39-.54-.59.35-.27.69-.15"/></g></g><g class="cls-41"><g class="cls-77"><path d="M95,261.56s3.31,2,4.1,4.2,1.71-.44-1-2.82-4-2.1-3.1-1.38"/></g></g><path d="M89.9,250.74a22,22,0,0,0-.61,2.18s0,.07,0,.1a1.84,1.84,0,0,1,.67.38c.19-.8.41-1.58.66-2.33a2.27,2.27,0,0,0-.71-.33"/><path class="cls-14" d="M89.9,250.74a22,22,0,0,0-.61,2.18s0,.07,0,.1a1.84,1.84,0,0,1,.67.38c.19-.8.41-1.58.66-2.33A2.27,2.27,0,0,0,89.9,250.74Z"/><path d="M87.81,260c-.43.67-.29.75,0,.61,0,0,.79,0,1.62-4.41a2.87,2.87,0,0,0-.59-.13,11.71,11.71,0,0,1-1,3.93"/><path class="cls-14" d="M87.81,260c-.43.67-.29.75,0,.61,0,0,.79,0,1.62-4.41a2.87,2.87,0,0,0-.59-.13A11.71,11.71,0,0,1,87.81,260Z"/><path d="M89.9,250.74a2.27,2.27,0,0,1,.71.33,17.81,17.81,0,0,1,1.09-2.59,1.92,1.92,0,0,0-.58-.51,16.67,16.67,0,0,0-1.22,2.77"/><path class="cls-14" d="M89.9,250.74a2.27,2.27,0,0,1,.71.33,17.81,17.81,0,0,1,1.09-2.59,1.92,1.92,0,0,0-.58-.51A16.67,16.67,0,0,0,89.9,250.74Z"/><path d="M89.28,253c-.19,1.17-.32,2.17-.45,3a2.87,2.87,0,0,1,.59.13c0-.14.06-.29.08-.44.13-.79.27-1.58.45-2.35a1.84,1.84,0,0,0-.67-.38"/><path class="cls-14" d="M89.28,253c-.19,1.17-.32,2.17-.45,3a2.87,2.87,0,0,1,.59.13c0-.14.06-.29.08-.44.13-.79.27-1.58.45-2.35A1.84,1.84,0,0,0,89.28,253Z"/><path d="M94.37,244.07a1.48,1.48,0,0,1,.59.62c1.41-1,.83-1.68-.59-.62"/><path class="cls-14" d="M94.37,244.07a1.48,1.48,0,0,1,.59.62C96.37,243.72,95.79,243,94.37,244.07Z"/><path d="M91.12,248a1.92,1.92,0,0,1,.58.51,11.79,11.79,0,0,1,1.37-2.11,2.36,2.36,0,0,0-.51-.53A13.35,13.35,0,0,0,91.12,248"/><path class="cls-14" d="M91.12,248a1.92,1.92,0,0,1,.58.51,11.79,11.79,0,0,1,1.37-2.11,2.36,2.36,0,0,0-.51-.53A13.35,13.35,0,0,0,91.12,248Z"/><path d="M94.18,244.21a11.87,11.87,0,0,0-1.62,1.63,2.36,2.36,0,0,1,.51.53,8.09,8.09,0,0,1,1.74-1.58l.14-.1a1.41,1.41,0,0,0-.58-.62l-.19.14"/><path class="cls-14" d="M94.18,244.21a11.87,11.87,0,0,0-1.62,1.63,2.36,2.36,0,0,1,.51.53,8.09,8.09,0,0,1,1.74-1.58l.14-.1a1.41,1.41,0,0,0-.58-.62Z"/><g class="cls-17"><g class="cls-78"><path d="M95.46,243.54a1.79,1.79,0,0,1-.72.8c-1.31.93-3.63,3-5.06,8.81-.68,2.2-.54,5.54-2.12,7.49,0,0,.13,0,.24,0s.79,0,1.62-4.41c0-.14.06-.29.08-.44.12-.79.27-1.58.45-2.35s.41-1.58.66-2.33a17.81,17.81,0,0,1,1.09-2.59,11.79,11.79,0,0,1,1.37-2.11,8.29,8.29,0,0,1,1.73-1.58l.15-.1c1-.65,1-1.19.51-1.15"/></g></g><g class="cls-43"><g class="cls-79"><path d="M89.24,253.41s1.13-6.83,5.6-9.51c-2.73,2.64-3.59,3-5.6,9.51"/></g></g><path d="M98.76,247.49a2,2,0,0,1,.28.62,7.24,7.24,0,0,1,1.09-.54c.48-.21-.18-.57-1.37-.08"/><path class="cls-14" d="M98.76,247.49a2,2,0,0,1,.28.62,7.24,7.24,0,0,1,1.09-.54C100.61,247.36,100,247,98.76,247.49Z"/><path d="M90.56,257.68a1.27,1.27,0,0,0,.45.44A21.81,21.81,0,0,0,92.46,256a2.59,2.59,0,0,1-.61-.64c-.42.77-.85,1.58-1.29,2.32"/><path class="cls-14" d="M90.56,257.68a1.27,1.27,0,0,0,.45.44A21.81,21.81,0,0,0,92.46,256a2.59,2.59,0,0,1-.61-.64C91.43,256.13,91,256.94,90.56,257.68Z"/><path d="M88.24,260.51c-.51.26-.39.31-.2.28,0,0,1.13-.27,3-2.66a1.38,1.38,0,0,1-.45-.45,7.75,7.75,0,0,1-2.32,2.83"/><path class="cls-14" d="M88.24,260.51c-.51.26-.39.31-.2.28,0,0,1.13-.27,3-2.66a1.38,1.38,0,0,1-.45-.45A7.75,7.75,0,0,1,88.24,260.51Z"/><path d="M92,255.17l-.11.19a2.41,2.41,0,0,0,.61.64c.27-.45.55-.94.85-1.47.08-.14.17-.28.26-.42a1.92,1.92,0,0,1-.57-.71c-.36.56-.7,1.14-1,1.77"/><path class="cls-14" d="M92,255.17l-.11.19a2.41,2.41,0,0,0,.61.64c.27-.45.55-.94.85-1.47.08-.14.17-.28.26-.42a1.92,1.92,0,0,1-.57-.71C92.64,254,92.3,254.54,92,255.17Z"/><path d="M98.76,247.49A6.65,6.65,0,0,0,96.61,249a3.48,3.48,0,0,1,.47.61,11.28,11.28,0,0,1,2-1.52,2,2,0,0,0-.28-.62"/><path class="cls-14" d="M98.76,247.49A6.65,6.65,0,0,0,96.61,249a3.48,3.48,0,0,1,.47.61,11.28,11.28,0,0,1,2-1.52A2,2,0,0,0,98.76,247.49Z"/><path d="M93,253.4a1.94,1.94,0,0,0,.57.71,26.81,26.81,0,0,1,1.76-2.54,2.14,2.14,0,0,0-.47-.65A20.52,20.52,0,0,0,93,253.4"/><path class="cls-14" d="M93,253.4a1.94,1.94,0,0,0,.57.71,26.81,26.81,0,0,1,1.76-2.54,2.14,2.14,0,0,0-.47-.65A20.52,20.52,0,0,0,93,253.4Z"/><path d="M96.57,249.06c-.67.69-1.22,1.29-1.71,1.86a2.14,2.14,0,0,1,.47.65,17.59,17.59,0,0,1,1.75-1.94,4,4,0,0,0-.47-.61l0,0"/><path class="cls-14" d="M96.57,249.06c-.67.69-1.22,1.29-1.71,1.86a2.14,2.14,0,0,1,.47.65,17.59,17.59,0,0,1,1.75-1.94,4,4,0,0,0-.47-.61Z"/><g class="cls-17"><g class="cls-80"><path d="M92.47,255c-1.49,2.63-2.33,4.54-4.5,5.78H88s1.13-.26,3-2.65A23.41,23.41,0,0,0,92.46,256c.27-.45.55-.93.84-1.47l.27-.42a28.43,28.43,0,0,1,1.76-2.55,18.36,18.36,0,0,1,1.75-1.93,11.67,11.67,0,0,1,2-1.52,7.73,7.73,0,0,1,1.09-.54c.24-.11.19-.25-.06-.3a3.85,3.85,0,0,1-.94.53c-1.86.8-4.43,3.24-6.66,7.21"/></g></g><g class="cls-43"><g class="cls-81"><path d="M99.72,247.28s-2.72-.4-7.51,7.66c2.43-3.54,4.66-6.7,7.51-7.66"/></g></g><g class="cls-82"><g class="cls-83"><path d="M81.28,267.12a6.17,6.17,0,0,1,3-6.86c-2.53,1-4.29,3-4.32,5.73.22,6.56,6.3,8.19,10,7.93a19,19,0,0,0,5.08-1h0c-5.67,1.91-12.77-.83-13.8-5.76"/></g></g><path d="M185.7,199.31s-.63-5.57-.72-6.78.43-.83.8,1.06.84,4.88.84,4.88Z"/><path class="cls-14" d="M185.7,199.31s-.63-5.57-.72-6.78.43-.83.8,1.06.84,4.88.84,4.88Z"/><path d="M189.32,195.18a36.55,36.55,0,0,1-3.88-2.64c-.5-.58-.78-1.07.81-.27a30.52,30.52,0,0,1,3.35,2.08Z"/><path class="cls-14" d="M189.32,195.18a36.55,36.55,0,0,1-3.88-2.64c-.5-.58-.78-1.07.81-.27a30.52,30.52,0,0,1,3.35,2.08Z"/><g class="cls-15"><g class="cls-84"><g class="cls-17"><g class="cls-84"><path d="M187.33,193.45a8.14,8.14,0,0,1-1.85-1.52c-.69-.25-.44.15,0,.61a36.55,36.55,0,0,0,3.88,2.64l.17-.49c-.64-.35-1.39-.77-2.16-1.24"/></g></g></g></g><g class="cls-18"><g class="cls-85"><path d="M185,192.53v0a4.77,4.77,0,0,1,.55,1.27,38.26,38.26,0,0,1,.68,5l.41-.38s-.46-3-.84-4.88-.9-2.23-.8-1.06"/></g></g><g class="cls-20"><g class="cls-86"><path d="M186.25,192.27s1.87,1.16,2.57,1.64a7.78,7.78,0,0,1-2.57-1.64"/></g></g><g class="cls-20"><g class="cls-87"><path d="M185.12,193.64s.34,3.12.48,4.22a15.32,15.32,0,0,0-.48-4.22"/></g></g><path d="M196.07,199.66s6.77-2.24,7.5-1.68-7.06,2.28-7.06,2.28Z"/><g class="cls-18"><g class="cls-88"><path d="M203.12,197.89a12,12,0,0,1-5.19,1.19c-1.07.32-1.86.58-1.86.58l.44.6s7.78-1.72,7.06-2.28a.82.82,0,0,0-.45-.09"/></g></g><path d="M189.21,194s6.81,5.41,7.28,6-.94-.14-2.52-1.32-5.48-4-5.48-4Z"/><g class="cls-18"><g class="cls-89"><path d="M190.28,194.84l-1.05-.84-.72.69s3.9,2.85,5.48,4,3,2,2.52,1.33a10.27,10.27,0,0,0-1.16-1.07,14,14,0,0,1-3.72-2.38,4,4,0,0,1-1.35-1.77"/></g></g><g class="cls-20"><g class="cls-90"><path d="M191,195.51s3,2.35,3.61,2.85a19.29,19.29,0,0,1-3.61-2.85"/></g></g><path d="M171.64,209.2s1.75,7,2.63,11.27c.37,1.81,1.55,3.3.54-1.3s-3.75-15-3.17-10"/><path class="cls-26" d="M171.64,209.2s1.75,7,2.63,11.27c.37,1.81,1.55,3.3.54-1.3S171.06,204.16,171.64,209.2Z"/><g class="cls-18"><g class="cls-91"><path d="M171.64,209.2s1.75,7,2.63,11.27c.37,1.81,1.55,3.3.54-1.3-.05-.24-.11-.49-.17-.75-1.38-3.86-2.6-8.46-3.07-10.31a7.67,7.67,0,0,0,.07,1.09"/></g></g><g class="cls-20"><g class="cls-92"><path d="M172.3,210.05s1,3.71,1.63,5.85-.52-3.07-1.63-5.85"/></g></g><path d="M174.57,221.16s.78,4.26,1.28,7.69c.32,2.3.88,3.79.75,1.35a41.2,41.2,0,0,0-1.4-7.93c-.41-1.12-.78-1.83-.63-1.11"/><path class="cls-29" d="M174.57,221.16s.78,4.26,1.28,7.69c.32,2.3.88,3.79.75,1.35a41.2,41.2,0,0,0-1.4-7.93C174.79,221.15,174.42,220.44,174.57,221.16Z"/><g class="cls-18"><g class="cls-93"><path d="M175,221.64c-.3-.72-.51-1-.39-.48,0,0,.78,4.26,1.28,7.69.22,1.59.56,2.79.7,2.58-.51-2.49-1.2-7.07-1.59-9.79"/></g></g><path d="M180.57,209.62s-8.86-4.37-14.88,2.92a13.88,13.88,0,0,0,.63,18.46c3.25,3.23,14.25-3,15.9-18.39Z"/><path class="cls-14" d="M180.57,209.62s-8.86-4.37-14.88,2.92a13.88,13.88,0,0,0,.63,18.46c3.25,3.23,14.25-3,15.9-18.39Z"/><path d="M183.43,205.83s-4.06,1.64-3.17,5.21a3.35,3.35,0,0,0,5.17,1.8,3.19,3.19,0,0,0,1.42-3.1Z"/><path class="cls-14" d="M183.43,205.83s-4.06,1.64-3.17,5.21a3.35,3.35,0,0,0,5.17,1.8,3.19,3.19,0,0,0,1.42-3.1Z"/><path d="M184.44,232.34s.19,3.64.45,5.64.47,2.08.6,1.25a36.44,36.44,0,0,0-.7-7c-.16-.44-.37-.35-.35.11"/><path class="cls-14" d="M184.44,232.34s.19,3.64.45,5.64.47,2.08.6,1.25a36.44,36.44,0,0,0-.7-7C184.63,231.79,184.42,231.88,184.44,232.34Z"/><g class="cls-17"><g class="cls-94"><path d="M184.44,232.34s.19,3.64.45,5.64.46,2.07.59,1.3a53,53,0,0,1-1-7.29.59.59,0,0,0-.06.35"/></g></g><path d="M184.45,212.22s2.07,6.05,1.67,7c-.25.58-.6.1-.83-.76s-1.12-4.81-1.35-5.53.1-1.29.51-.68"/><path class="cls-14" d="M184.45,212.22s2.07,6.05,1.67,7c-.25.58-.6.1-.83-.76s-1.12-4.81-1.35-5.53S184,211.61,184.45,212.22Z"/><g class="cls-18"><g class="cls-95"><path d="M183.94,212.9c.23.72,1.11,4.66,1.35,5.53s.58,1.34.83.76a.69.69,0,0,0,0-.32,35.61,35.61,0,0,1-2.1-6.9c-.19.06-.29.46-.13.93"/></g></g><g class="cls-20"><g class="cls-96"><path d="M184.46,212.52a47.09,47.09,0,0,1,1.5,5.29,35.53,35.53,0,0,1-1.5-5.29"/></g></g><path d="M185.79,219.2a25.27,25.27,0,0,0-3.21.29c-1.71.26-5.08,1-5.08,1.33s2.64.61,5,.15,4.43-1.68,3.27-1.77"/><path class="cls-14" d="M185.79,219.2a25.27,25.27,0,0,0-3.21.29c-1.71.26-5.08,1-5.08,1.33s2.64.61,5,.15S187,219.29,185.79,219.2Z"/><g class="cls-18"><g class="cls-97"><path d="M185.48,219.21c-1.59,1.29-5.3,1.3-7.2,1.22-.48.15-.78.29-.78.39,0,.34,2.64.61,5,.15s4.43-1.68,3.27-1.77h-.31"/></g></g><g class="cls-20"><g class="cls-98"><path d="M179.32,220.16s3.35-.7,5-.83c.79,0-3.88.77-5,.83"/></g></g><path d="M177.67,220.93s4,6.56,5.46,9.12c1.29,2.36,1.33,2.59,1.54,2.33s-.81-2.55-1.82-4.21-2.83-4.72-3.66-5.94-1.74-1.94-1.52-1.3"/><path class="cls-14" d="M177.67,220.93s4,6.56,5.46,9.12c1.29,2.36,1.33,2.59,1.54,2.33s-.81-2.55-1.82-4.21-2.83-4.72-3.66-5.94S177.45,220.29,177.67,220.93Z"/><g class="cls-18"><g class="cls-99"><path d="M182.88,229.09c-1.44-2.58-4.17-6.87-5.15-8.39-.09,0-.12.05-.06.23,0,0,4,6.56,5.46,9.12,1.29,2.36,1.33,2.59,1.55,2.33.09-.11-.05-.6-.32-1.25a9.37,9.37,0,0,1-1.48-2"/></g></g><g class="cls-20"><g class="cls-100"><path d="M178.71,221.82s3.5,5.47,5.22,8.63a65,65,0,0,0-5.22-8.63"/></g></g><path d="M189.29,196.33s-3,.74-5.07,5-.6,7.78,1.49,8.79,6.22-1.47,7.17-5.77-2-7.57-3.59-8"/><path class="cls-14" d="M189.29,196.33s-3,.74-5.07,5-.6,7.78,1.49,8.79,6.22-1.47,7.17-5.77S190.92,196.77,189.29,196.33Z"/><g class="cls-38"><g class="cls-101"><path d="M185.8,199.15s-2.68,3.1-2.39,6.29c.11,1.56,2.32,2.11,3.89-.91s-.41-6.59-1.5-5.38"/><path class="cls-14" d="M185.8,199.15s-2.68,3.1-2.39,6.29c.11,1.56,2.32,2.11,3.89-.91S186.89,197.94,185.8,199.15Z"/></g></g><g class="cls-18"><g class="cls-102"><path d="M189.29,196.33a6.21,6.21,0,0,0-2.07,1.16c.31-.08.53,0,.49.5a2.18,2.18,0,0,0,2.23,2.58c1.34-.16.63,5.84-3,7.79-2.89,1.28-3.81-1.38-3.67-3.76v-.16c-.32,2.79.91,4.92,2.46,5.67,2.09,1,6.22-1.47,7.17-5.77s-2-7.57-3.59-8"/><path class="cls-14" d="M189.29,196.33a6.21,6.21,0,0,0-2.07,1.16c.31-.08.53,0,.49.5a2.18,2.18,0,0,0,2.23,2.58c1.34-.16.63,5.84-3,7.79-2.89,1.28-3.81-1.38-3.67-3.76v-.16c-.32,2.79.91,4.92,2.46,5.67,2.09,1,6.22-1.47,7.17-5.77S190.92,196.77,189.29,196.33Z"/></g></g><g class="cls-41"><g class="cls-103"><g class="cls-43"><g class="cls-104"><path d="M186.65,202.05c-.18.76-.74,1.28-1.25,1.15s-.76-.84-.58-1.6.75-1.27,1.25-1.15.77.84.58,1.6"/><path class="cls-14" d="M186.65,202.05c-.18.76-.74,1.28-1.25,1.15s-.76-.84-.58-1.6.75-1.27,1.25-1.15S186.84,201.29,186.65,202.05Z"/></g></g><g class="cls-43"><g class="cls-105"><path d="M185.06,204.62c-.08.34-.34.58-.57.52s-.35-.38-.26-.73.34-.58.57-.53.35.39.26.74"/><path class="cls-14" d="M185.06,204.62c-.08.34-.34.58-.57.52s-.35-.38-.26-.73.34-.58.57-.53S185.15,204.27,185.06,204.62Z"/></g></g></g></g><g class="cls-20"><g class="cls-106"><path d="M185.8,199.15a9.4,9.4,0,0,0-2.37,6.68,12.21,12.21,0,0,1,2.37-6.68"/><path class="cls-14" d="M185.8,199.15a9.4,9.4,0,0,0-2.37,6.68A12.21,12.21,0,0,1,185.8,199.15Z"/></g></g><path d="M213.9,205s4.86-1.57,7.14-1.54c.66.16-.31.32-1.83.59s-5.66,1.54-5.31.95"/><path class="cls-14" d="M213.9,205s4.86-1.57,7.14-1.54c.66.16-.31.32-1.83.59S213.55,205.6,213.9,205Z"/><g class="cls-15"><g class="cls-107"><g class="cls-17"><g class="cls-107"><path d="M220.67,203.48a35,35,0,0,1-5,1c-1,.29-1.77.52-1.77.52-.35.59,3.79-.68,5.31-.95s2.49-.43,1.84-.59h-.38"/></g></g></g></g><path d="M201.64,198.19S212,204.86,214,205.12c.5.06-1.67-1.38-4.61-3.18s-8.66-4.91-7.7-3.75"/><path class="cls-14" d="M201.64,198.19S212,204.86,214,205.12c.5.06-1.67-1.38-4.61-3.18S200.68,197,201.64,198.19Z"/><g class="cls-17"><g class="cls-108"><g class="cls-18"><g class="cls-108"><path d="M205.17,200.16a7.93,7.93,0,0,1-2.3-1.77c-1-.47-1.59-.63-1.23-.2,0,0,10.37,6.67,12.31,6.93.24,0-.13-.28-.91-.82-1.74-.19-5.35-2.66-7.87-4.14"/></g></g></g></g><g class="cls-20"><g class="cls-109"><path d="M204.5,199.38s5.12,2.67,6.63,3.77c1.25.81-4.74-2.41-6.63-3.77"/></g></g><path d="M199.15,207.61s.3.24.7-.68,2.19-5.78,2.14-8.19c-.07-.81-.35-1.82-1.17.56-1.19,3.43-2.06,7.78-1.67,8.31"/><path class="cls-14" d="M199.15,207.61s.3.24.7-.68,2.19-5.78,2.14-8.19c-.07-.81-.35-1.82-1.17.56C199.63,202.73,198.76,207.08,199.15,207.61Z"/><g class="cls-18"><g class="cls-110"><path d="M201,198.88a14,14,0,0,1-1.9,7.86,1.77,1.77,0,0,0,.07.87s.31.24.71-.68,2.19-5.78,2.14-8.19c-.07-.76-.32-1.69-1,.14"/></g></g><g class="cls-20"><g class="cls-111"><path d="M200.46,200.6,199.6,204a7.94,7.94,0,0,0,.86-3.36"/></g></g><path d="M190.15,206.52s6,1.49,9.11,1.14c.15-.57-.68-.85-1.94-1s-5.14-.77-6.3-.72-1.16.36-.87.59"/><path class="cls-14" d="M190.15,206.52s6,1.49,9.11,1.14c.15-.57-.68-.85-1.94-1s-5.14-.77-6.3-.72S189.86,206.29,190.15,206.52Z"/><g class="cls-18"><g class="cls-112"><path d="M198.09,206.77c-1.36.47-5.82-.35-7.77-.74-.44.12-.38.33-.17.49,0,0,6,1.49,9.11,1.14.12-.44-.36-.71-1.17-.89"/></g></g><g class="cls-20"><g class="cls-113"><path d="M192,206.06s4.42.48,5.12.6-4.38-.06-5.12-.6"/></g></g><path d="M206.89,209.47a43.12,43.12,0,0,0,5.59,2.9c2.87,1.18,3.35,1.22,3.3,1.44s-1,.41-5-1.53c-3.51-1.85-4.73-2.91-3.86-2.81"/><path class="cls-14" d="M206.89,209.47a43.12,43.12,0,0,0,5.59,2.9c2.87,1.18,3.35,1.22,3.3,1.44s-1,.41-5-1.53C207.24,210.43,206,209.37,206.89,209.47Z"/><g class="cls-17"><g class="cls-114"><path d="M210.07,211.57a6.69,6.69,0,0,1-2-1.43c-.7-.4-1.13-.67-1.13-.67-.87-.1.35,1,3.86,2.81,4,1.94,5,1.76,5,1.53,0-.06,0-.11-.13-.18-1.17,0-3.34-.94-5.58-2.06"/></g></g><g class="cls-20"><g class="cls-115"><path d="M209.26,210.83a44.77,44.77,0,0,0,5,2.3c.78.21-3.51-1-5-2.3"/></g></g><path d="M192.05,212.09s-2.6-1.93-3.46-2.67-1.81-.9.93,2.2c2,2.22,2.65,1.77,2.65,1.77Z"/><path class="cls-14" d="M192.05,212.09s-2.6-1.93-3.46-2.67-1.81-.9.93,2.2c2,2.22,2.65,1.77,2.65,1.77Z"/><g class="cls-18"><g class="cls-116"><path d="M189.52,211.62c2,2.22,2.65,1.77,2.65,1.77l-.1-1c-1.62-.32-3.4-2.09-4.32-3.11a10.52,10.52,0,0,0,1.77,2.36"/></g></g><g class="cls-20"><g class="cls-117"><path d="M188.32,209.37l3.14,2.36a11.64,11.64,0,0,1-3.14-2.36"/></g></g><path d="M192.17,213.39s-.89-1.4,1.92-7.68c2-3.93,2.4-3.42,2.52-2.61a37.16,37.16,0,0,1-2,7c-1,2.37-2.3,3.8-2.44,3.34"/><path class="cls-14" d="M192.17,213.39s-.89-1.4,1.92-7.68c2-3.93,2.4-3.42,2.52-2.61a37.16,37.16,0,0,1-2,7C193.58,212.42,192.31,213.85,192.17,213.39Z"/><g class="cls-18"><g class="cls-118"><path d="M195.45,203.29a18,18,0,0,1-1.57,6.47,6.16,6.16,0,0,1-1.84,2.89,1.59,1.59,0,0,0,.13.74c.14.46,1.41-1,2.44-3.34a37.16,37.16,0,0,0,2-7c-.08-.57-.33-1-1.16.19"/></g></g><g class="cls-20"><g class="cls-119"><path d="M192.11,211.7a34.84,34.84,0,0,1,3.14-7.89c-1.38,2.95-3.14,7.89-3.14,7.89"/></g></g><path d="M196.28,203.21s.72,1.24,4.6,3.73,5.88,3.27,6.24,2.91-3.9-2.7-6.87-5.12c-3.23-2.63-4.82-2.92-4-1.52"/><path class="cls-14" d="M196.28,203.21s.72,1.24,4.6,3.73,5.88,3.27,6.24,2.91-3.9-2.7-6.87-5.12C197,202.1,195.43,201.81,196.28,203.21Z"/><g class="cls-18"><g class="cls-120"><path d="M199.07,205.1c-1.68-1.27-2.22-2.13-2.37-2.65-.66-.21-.83.07-.42.76,0,0,.72,1.24,4.6,3.73s5.88,3.27,6.24,2.91c.1-.1-.17-.36-.68-.74-1.22.28-4.76-2-7.37-4"/></g></g><g class="cls-20"><g class="cls-121"><path d="M197.23,202.84a29.09,29.09,0,0,1,3.32,2.32c2.34,1.8,4.94,3.5,4.94,3.5s-2.35-1.34-4.81-3.1-3.71-2.82-3.45-2.72"/></g></g><path d="M191.85,191.72a3.52,3.52,0,0,0-2.49,2.38c-.84,2.14-.14,3.73,1.17,4.42s3.26-.85,4.33-1.92Z"/><path class="cls-14" d="M191.85,191.72a3.52,3.52,0,0,0-2.49,2.38c-.84,2.14-.14,3.73,1.17,4.42s3.26-.85,4.33-1.92Z"/><g class="cls-18"><g class="cls-122"><path d="M191.31,191.9a22.81,22.81,0,0,0,1.08,3.25c.61,1.81-2,3.6-3.19,1.78l0,0a2.8,2.8,0,0,0,1.35,1.57c1.31.68,3.26-.85,4.33-1.92l-3-4.88a2.08,2.08,0,0,0-.54.18"/><path class="cls-14" d="M191.31,191.9a22.81,22.81,0,0,0,1.08,3.25c.61,1.81-2,3.6-3.19,1.78l0,0a2.8,2.8,0,0,0,1.35,1.57c1.31.68,3.26-.85,4.33-1.92l-3-4.88A2.08,2.08,0,0,0,191.31,191.9Z"/></g></g><g class="cls-41"><g class="cls-123"><path d="M190.43,192.78a4,4,0,0,0-1.24,3.17c0,1,1.65.36,1.82-1.42s-.17-2.17-.58-1.75"/><path class="cls-14" d="M190.43,192.78a4,4,0,0,0-1.24,3.17c0,1,1.65.36,1.82-1.42S190.84,192.36,190.43,192.78Z"/></g></g><path d="M210.33,191.21a1.59,1.59,0,0,0,1.92-.81c.35-.67.81.16,0,1.07s-1.77,1.37-2.55.86c.26-.4.61-1.12.61-1.12"/><path class="cls-14" d="M210.33,191.21a1.59,1.59,0,0,0,1.92-.81c.35-.67.81.16,0,1.07s-1.77,1.37-2.55.86C210,191.93,210.33,191.21,210.33,191.21Z"/><g class="cls-41"><g class="cls-124"><path d="M210.57,191.41a1.75,1.75,0,0,0,1.62-.76c.37-.48-.4,1.45-1.62.76"/></g></g><g class="cls-18"><g class="cls-125"><path d="M210.36,191.77a3.79,3.79,0,0,1,.25-.5,1.37,1.37,0,0,1-.28-.06s-.35.72-.61,1.12c.78.51,1.77,0,2.55-.86a1.26,1.26,0,0,0,.39-1.21c-.29,1.51-2.61,2.2-2.3,1.51"/></g></g><path d="M210.76,189.15s.61-.38,1.28.6c.42.49.51-.48.13-1.35s-1.15-.44-1.4-.09Z"/><path class="cls-14" d="M210.76,189.15s.61-.38,1.28.6c.42.49.51-.48.13-1.35s-1.15-.44-1.4-.09Z"/><g class="cls-41"><g class="cls-126"><path d="M211.11,188.09s.71-.49,1,.7c.21.57-.37-.86-1-.7"/></g></g><g class="cls-18"><g class="cls-127"><path d="M211.08,188.31a.33.33,0,0,1,0-.27,1.08,1.08,0,0,0-.29.27v.84s.61-.38,1.28.6c.11.13.19.16.26.11-.07-.89-1-1.13-1.22-1.55"/></g></g><path d="M197.52,185s-.39-2.13,3.07-2.68,4.5,2,4.5,2Z"/><path class="cls-68" d="M197.52,185s-.39-2.13,3.07-2.68,4.5,2,4.5,2Z"/><g class="cls-18"><g class="cls-128"><path d="M199.92,183a1.18,1.18,0,0,1,.1-.54c-2.84.69-2.5,2.57-2.5,2.57l7.57-.66a3.53,3.53,0,0,0-.81-1.09c-2.47-.29-4.31.52-4.36-.28"/></g></g><path d="M195.59,185.66s6-3.8,12.12-.77c5.63,2.8,3.27,9-4.46,12.15-3.21,1.31-9.07,1.62-11.16-4.13-.92-2.93.71-5.65,3.5-7.25"/><path class="cls-14" d="M195.59,185.66s6-3.8,12.12-.77c5.63,2.8,3.27,9-4.46,12.15-3.21,1.31-9.07,1.62-11.16-4.13C191.17,190,192.8,187.26,195.59,185.66Z"/><g class="cls-18"><g class="cls-129"><path d="M207.71,193.88c-6.18,4.55-8.42-.24-7-.37s6.48-1.24,6-4.53-5.82-3.51-5.25-4.5c.21-.36,1.12-.59,2.18-.72a14.29,14.29,0,0,0-8,1.9c-2.79,1.6-4.42,4.32-3.5,7.25,2.09,5.75,7.95,5.44,11.16,4.13,5.59-2.28,8.37-6.15,7.35-9.17.27,1.57,0,3.9-2.89,6"/></g></g><g class="cls-18"><g class="cls-130"><path d="M205.35,189.42c0,1.83-2.23,3.25-5.12,3.23s-5-1.68-4.94-3.5,2.11-3.14,5-3.11,5.08,1.56,5.06,3.38"/></g></g><g class="cls-41"><g class="cls-131"><g class="cls-43"><g class="cls-132"><path d="M194.66,189.85c.13.66-.13,1.26-.56,1.34s-.89-.38-1-1,.13-1.26.57-1.34.89.38,1,1"/></g></g><g class="cls-43"><g class="cls-133"><path d="M194.34,192.4c.06.3-.06.57-.26.61s-.41-.17-.46-.47.06-.57.25-.61.41.17.47.47"/></g></g></g></g><g class="cls-43"><g class="cls-134"><path d="M198.61,186.73c.74,0,1.38.38,1.43.8s-.51.75-1.25.73-1.37-.38-1.42-.8.51-.75,1.24-.73"/></g></g><g class="cls-43"><g class="cls-135"><path d="M201.41,187.31c.34,0,.63.17.65.36s-.23.34-.57.33-.63-.17-.65-.36.23-.34.57-.33"/></g></g><g class="cls-41"><g class="cls-136"><path d="M204.11,184.64s3.5.77,4.85,2.53,1.39-.88-1.7-2.21-4.18-.69-3.15-.32"/></g></g><path d="M196.45,176.53a19.53,19.53,0,0,0,.09,2.11s0,.06,0,.09a1.74,1.74,0,0,1,.7.14c-.06-.76-.1-1.51-.09-2.25a1.85,1.85,0,0,0-.72-.09"/><path class="cls-14" d="M196.45,176.53a19.53,19.53,0,0,0,.09,2.11s0,.06,0,.09a1.74,1.74,0,0,1,.7.14c-.06-.76-.1-1.51-.09-2.25A1.85,1.85,0,0,0,196.45,176.53Z"/><path d="M197.27,185.33c-.18.72,0,.76.17.55,0,0,.7-.24.16-4.38a2.57,2.57,0,0,0-.57.05,10.63,10.63,0,0,1,.24,3.78"/><path class="cls-14" d="M197.27,185.33c-.18.72,0,.76.17.55,0,0,.7-.24.16-4.38a2.57,2.57,0,0,0-.57.05A10.63,10.63,0,0,1,197.27,185.33Z"/><path d="M196.56,178.73c.17,1.09.34,2,.48,2.82a2.43,2.43,0,0,1,.56-.05c0-.14,0-.27,0-.42-.13-.73-.22-1.47-.29-2.21a1.74,1.74,0,0,0-.7-.14"/><path class="cls-14" d="M196.56,178.73c.17,1.09.34,2,.48,2.82a2.43,2.43,0,0,1,.56-.05c0-.14,0-.27,0-.42-.13-.73-.22-1.47-.29-2.21A1.74,1.74,0,0,0,196.56,178.73Z"/><g class="cls-17"><g class="cls-137"><path d="M199.28,168.54a1.55,1.55,0,0,1-.4.92c-.89,1.2-2.33,3.74-1.93,9.27,0,2.14,1.12,5.06.29,7.25,0,0,.12,0,.2-.1s.7-.24.16-4.38c0-.14,0-.27,0-.42-.13-.73-.22-1.47-.29-2.21s-.1-1.51-.09-2.25a17.06,17.06,0,0,1,.21-2.62,11.36,11.36,0,0,1,.61-2.26,7.06,7.06,0,0,1,1.08-1.9l.1-.14c.65-.85.54-1.34.11-1.16"/></g></g><g class="cls-43"><g class="cls-138"><path d="M196.64,179.09s-1-6.39,2.2-10.06c-1.65,3.13-2.31,3.73-2.2,10.06"/></g></g><path d="M199,182.49a1.25,1.25,0,0,0,.53.26,23.12,23.12,0,0,0,.67-2.3,2.3,2.3,0,0,1-.72-.39c-.16.81-.3,1.64-.48,2.43"/><path class="cls-14" d="M199,182.49a1.25,1.25,0,0,0,.53.26,23.12,23.12,0,0,0,.67-2.3,2.3,2.3,0,0,1-.72-.39C199.36,180.87,199.22,181.7,199,182.49Z"/><path d="M197.8,185.67c-.37.37-.25.39-.09.3,0,0,.92-.56,1.86-3.22a1.25,1.25,0,0,1-.53-.26,7,7,0,0,1-1.24,3.18"/><path class="cls-14" d="M197.8,185.67c-.37.37-.25.39-.09.3,0,0,.92-.56,1.86-3.22a1.25,1.25,0,0,1-.53-.26A7,7,0,0,1,197.8,185.67Z"/><path d="M199.55,179.86l0,.2a2.49,2.49,0,0,0,.73.39c.11-.48.22-1,.32-1.55,0-.15.07-.3.11-.45A1.82,1.82,0,0,1,200,178c-.15.6-.28,1.21-.41,1.87"/><path class="cls-14" d="M199.55,179.86l0,.2a2.49,2.49,0,0,0,.73.39c.11-.48.22-1,.32-1.55,0-.15.07-.3.11-.45A1.82,1.82,0,0,1,200,178C199.81,178.59,199.68,179.2,199.55,179.86Z"/><path d="M200,178a1.75,1.75,0,0,0,.71.46,26.64,26.64,0,0,1,.83-2.76,2.07,2.07,0,0,0-.61-.44A21.14,21.14,0,0,0,200,178"/><path class="cls-14" d="M200,178a1.75,1.75,0,0,0,.71.46,26.64,26.64,0,0,1,.83-2.76,2.07,2.07,0,0,0-.61-.44A21.14,21.14,0,0,0,200,178Z"/><g class="cls-17"><g class="cls-139"><path d="M200,179.57c-.56,2.76-.75,4.7-2.31,6.43l.06,0s.93-.56,1.86-3.22a23.12,23.12,0,0,0,.67-2.3c.11-.48.22-1,.32-1.55,0-.15.07-.3.11-.45a26.64,26.64,0,0,1,.83-2.76,17.32,17.32,0,0,1,1-2.23,11.11,11.11,0,0,1,1.3-1.91,8.5,8.5,0,0,1,.81-.8c.19-.16.1-.27-.14-.25a3.46,3.46,0,0,1-.67.75c-1.42,1.25-3,4.15-3.82,8.32"/></g></g><g class="cls-43"><g class="cls-140"><path d="M204.14,170.62s-2.52.43-4.43,9c1.13-3.83,2.19-7.28,4.43-9"/></g></g><g class="cls-82"><g class="cls-141"><path d="M193.56,193.54a5.76,5.76,0,0,1,.69-7,5.83,5.83,0,0,0-2.16,6.33c2.09,5.75,7.95,5.44,11.16,4.13a17.81,17.81,0,0,0,4.21-2.39h0c-4.47,3.34-11.55,3-13.89-1.11"/></g></g><path d="M433,367.29s-1.9-4.56-2.35-5.52-.69-.46-.16,1.15,1.45,4.11,1.45,4.11Z"/><path class="cls-142" d="M433,367.29s-1.9-4.56-2.35-5.52-.69-.46-.16,1.15,1.45,4.11,1.45,4.11Z"/><path d="M428.44,365.67a33.13,33.13,0,0,0,1.85-3.7c.14-.66.14-1.16-.73.14a26,26,0,0,0-1.69,3Z"/><path class="cls-142" d="M428.44,365.67a33.13,33.13,0,0,0,1.85-3.7c.14-.66.14-1.16-.73.14a26,26,0,0,0-1.69,3Z"/><g class="cls-15"><g class="cls-143"><g class="cls-17"><g class="cls-143"><path d="M429.23,363.48a7.16,7.16,0,0,0,.77-2c.42-.49.4-.07.29.45a33.13,33.13,0,0,1-1.85,3.7l-.34-.31c.34-.54.74-1.19,1.13-1.88"/></g></g></g></g><g class="cls-18"><g class="cls-144"><path d="M430.64,361.77s0,0,0,0a4.34,4.34,0,0,0,.13,1.21,31.46,31.46,0,0,0,1.63,4.15l-.48-.12s-.93-2.49-1.45-4.11-.26-2.09.16-1.15"/></g></g><g class="cls-20"><g class="cls-145"><path d="M429.56,362.11s-.95,1.69-1.28,2.36a6.68,6.68,0,0,0,1.28-2.36"/></g></g><g class="cls-20"><g class="cls-146"><path d="M431,362.68s1.08,2.54,1.44,3.45a13.53,13.53,0,0,1-1.44-3.45"/></g></g><path d="M425.17,372s-6.17,1.19-6.48,1.92,6.4-1.26,6.4-1.26Z"/><g class="cls-18"><g class="cls-147"><path d="M419,373.66a10.48,10.48,0,0,0,4.5-1.31l1.67-.35-.08.66s-6.72,2-6.4,1.26a.65.65,0,0,1,.31-.26"/></g></g><path d="M428,364.7s-2.91,7.08-3,7.78.67-.52,1.37-2.11,2.48-5.45,2.48-5.45Z"/><g class="cls-18"><g class="cls-148"><path d="M427.55,365.81l.45-1.09.85.22s-1.77,3.87-2.48,5.45-1.46,2.8-1.37,2.1a10.9,10.9,0,0,1,.44-1.32,12.24,12.24,0,0,0,1.84-3.41,3.55,3.55,0,0,0,.27-1.95"/></g></g><g class="cls-20"><g class="cls-149"><path d="M427.32,366.62s-1.3,3.09-1.55,3.74a17.43,17.43,0,0,0,1.55-3.74"/></g></g><path d="M448,368.86s1.68,6.17,2.81,9.79c.5,1.55.23,3.2-1-.77s-3.56-13.14-1.84-9"/><path class="cls-150" d="M448,368.86s1.68,6.17,2.81,9.79c.5,1.55.23,3.2-1-.77S446.32,364.74,448,368.86Z"/><g class="cls-18"><g class="cls-151"><path d="M448,368.86s1.68,6.17,2.81,9.79c.5,1.55.23,3.2-1-.77l-.19-.65c-.59-3.56-1.63-7.61-2.06-9.24a6.88,6.88,0,0,1,.41.87"/></g></g><g class="cls-20"><g class="cls-152"><path d="M447.9,369.8s.79,3.29,1.26,5.2-.92-2.59-1.26-5.2"/></g></g><path d="M450.92,379.31s1.22,3.61,2.31,6.47c.74,1.9.95,3.28,0,1.35a35.66,35.66,0,0,1-2.32-6.7c-.16-1-.18-1.74,0-1.12"/><path class="cls-153" d="M450.92,379.31s1.22,3.61,2.31,6.47c.74,1.9.95,3.28,0,1.35a35.66,35.66,0,0,1-2.32-6.7C450.75,379.4,450.73,378.69,450.92,379.31Z"/><g class="cls-18"><g class="cls-154"><path d="M450.83,379.85c-.08-.69-.06-1,.09-.54,0,0,1.22,3.61,2.32,6.46.51,1.32.76,2.39.56,2.28-.67-2.13-2.11-5.95-3-8.2"/></g></g><path d="M441.36,373s4.93-7.16,12.69-4.14a12.2,12.2,0,0,1,7.43,14.45c-1.12,3.89-12.24,3.82-20.1-7.31Z"/><path class="cls-142" d="M441.36,373s4.93-7.16,12.69-4.14a12.2,12.2,0,0,1,7.43,14.45c-1.12,3.89-12.24,3.82-20.1-7.31Z"/><path d="M437.53,371.33s3.83-.49,4.67,2.64a2.94,2.94,0,0,1-3.2,3.6,2.82,2.82,0,0,1-2.42-1.77Z"/><path class="cls-142" d="M437.53,371.33s3.83-.49,4.67,2.64a2.94,2.94,0,0,1-3.2,3.6,2.82,2.82,0,0,1-2.42-1.77Z"/><path d="M448.12,392.14s1.42,2.88,2.07,4.52.53,1.81.08,1.22a31.68,31.68,0,0,1-2.46-5.68c-.07-.4.13-.43.31-.06"/><path class="cls-142" d="M448.12,392.14s1.42,2.88,2.07,4.52.53,1.81.08,1.22a31.68,31.68,0,0,1-2.46-5.68C447.74,391.8,447.94,391.77,448.12,392.14Z"/><g class="cls-17"><g class="cls-155"><path d="M448.12,392.14s1.42,2.88,2.07,4.52.54,1.8.11,1.26a47.46,47.46,0,0,0-2.37-6,.62.62,0,0,1,.19.25"/></g></g><path d="M439.49,376.68s1,5.54,1.7,6.07c.45.34.51-.18.32-.95s-1.2-4.17-1.33-4.82-.64-1-.69-.3"/><path class="cls-142" d="M439.49,376.68s1,5.54,1.7,6.07c.45.34.51-.18.32-.95s-1.2-4.17-1.33-4.82S439.54,376,439.49,376.68Z"/><g class="cls-18"><g class="cls-156"><path d="M440.18,377c.13.65,1.14,4.06,1.33,4.82s.13,1.29-.32.95a.88.88,0,0,1-.17-.22,30.85,30.85,0,0,0-1.35-6.21c.18,0,.42.23.51.66"/></g></g><g class="cls-20"><g class="cls-157"><path d="M439.61,376.91a42.26,42.26,0,0,0,1.11,4.71,30.4,30.4,0,0,0-1.11-4.71"/></g></g><path d="M441.45,382.61a23.41,23.41,0,0,1,2.59-1.15c1.43-.53,4.34-1.41,4.48-1.15s-1.76,1.6-3.8,2.26-4.12.61-3.27,0"/><path class="cls-142" d="M441.45,382.61a23.41,23.41,0,0,1,2.59-1.15c1.43-.53,4.34-1.41,4.48-1.15s-1.76,1.6-3.8,2.26S440.6,383.18,441.45,382.61Z"/><g class="cls-18"><g class="cls-158"><path d="M441.69,382.49c1.78.31,4.64-1.28,6.07-2.15.43-.09.72-.11.76,0,.14.26-1.76,1.6-3.8,2.26s-4.12.61-3.27,0l.24-.12"/></g></g><g class="cls-20"><g class="cls-159"><path d="M446.84,380.57s-2.88.91-4.18,1.5a26.63,26.63,0,0,0,4.18-1.5"/></g></g><path d="M448.44,380.46s-.25,6.75-.29,9.35c0,2.37.09,2.56-.19,2.46s-.47-2.31-.4-4,.15-4.85.27-6.13.5-2.24.61-1.66"/><path class="cls-142" d="M448.44,380.46s-.25,6.75-.29,9.35c0,2.37.09,2.56-.19,2.46s-.47-2.31-.4-4,.15-4.85.27-6.13S448.33,379.88,448.44,380.46Z"/><g class="cls-18"><g class="cls-160"><path d="M447.93,389c0-2.6.26-7.06.36-8.66.06-.06.12,0,.15.15,0,0-.25,6.75-.29,9.35,0,2.38.09,2.56-.19,2.46-.12,0-.22-.48-.3-1.09a7.88,7.88,0,0,0,.27-2.21"/></g></g><g class="cls-20"><g class="cls-161"><path d="M448,381.59s-.34,5.71-.31,8.87a55.91,55.91,0,0,1,.31-8.87"/></g></g><path d="M429,366.54s2.59-.7,6,1.66,3.79,5.72,2.62,7.39-5.42,1.54-8-1.36-1.74-6.66-.67-7.69"/><path class="cls-142" d="M429,366.54s2.59-.7,6,1.66,3.79,5.72,2.62,7.39-5.42,1.54-8-1.36S427.89,367.57,429,366.54Z"/><g class="cls-38"><g class="cls-162"><path d="M432.85,367.21s3.39,1.23,4.53,3.81c.58,1.24-.87,2.61-3.37,1s-2.52-5.24-1.16-4.77"/><path class="cls-142" d="M432.85,367.21s3.39,1.23,4.53,3.81c.58,1.24-.87,2.61-3.37,1S431.49,366.74,432.85,367.21Z"/></g></g><g class="cls-18"><g class="cls-163"><path d="M429,366.54a5.59,5.59,0,0,1,2.09,0c-.28.08-.41.26-.17.61a1.91,1.91,0,0,1-.6,2.93c-1.1.45,2,4.76,5.66,4.69,2.76-.25,2.34-2.69,1.21-4.46a.35.35,0,0,1-.07-.12c1.44,2,1.4,4.17.54,5.41-1.18,1.68-5.42,1.54-8-1.36s-1.74-6.66-.67-7.69"/><path class="cls-142" d="M429,366.54a5.59,5.59,0,0,1,2.09,0c-.28.08-.41.26-.17.61a1.91,1.91,0,0,1-.6,2.93c-1.1.45,2,4.76,5.66,4.69,2.76-.25,2.34-2.69,1.21-4.46a.35.35,0,0,1-.07-.12c1.44,2,1.4,4.17.54,5.41-1.18,1.68-5.42,1.54-8-1.36S427.89,367.57,429,366.54Z"/></g></g><g class="cls-41"><g class="cls-164"><g class="cls-43"><g class="cls-165"><path d="M433.44,369.8c.46.51,1.12.66,1.45.35s.23-1-.24-1.48-1.12-.66-1.45-.35-.23,1,.24,1.48"/><path class="cls-142" d="M433.44,369.8c.46.51,1.12.66,1.45.35s.23-1-.24-1.48-1.12-.66-1.45-.35S433,369.3,433.44,369.8Z"/></g></g><g class="cls-43"><g class="cls-166"><path d="M435.76,371.09c.21.23.51.3.66.16s.11-.44-.11-.68-.51-.3-.66-.15-.11.44.11.67"/><path class="cls-142" d="M435.76,371.09c.21.23.51.3.66.16s.11-.44-.11-.68-.51-.3-.66-.15S435.54,370.86,435.76,371.09Z"/></g></g></g></g><g class="cls-20"><g class="cls-167"><path d="M432.85,367.21a8.23,8.23,0,0,1,4.68,4.12,10.66,10.66,0,0,0-4.68-4.12"/><path class="cls-142" d="M432.85,367.21a8.23,8.23,0,0,1,4.68,4.12A10.66,10.66,0,0,0,432.85,367.21Z"/></g></g><path d="M413.76,383.76a29.29,29.29,0,0,0-6.15,1.88c-.44.4.37.11,1.66-.33s5-1.24,4.49-1.55"/><path class="cls-142" d="M413.76,383.76a29.29,29.29,0,0,0-6.15,1.88c-.44.4.37.11,1.66-.33S414.28,384.07,413.76,383.76Z"/><g class="cls-15"><g class="cls-168"><g class="cls-17"><g class="cls-168"><path d="M407.9,385.49a30.15,30.15,0,0,0,4.27-1.37c.92-.22,1.59-.36,1.59-.36.52.31-3.21,1.1-4.49,1.55s-2.1.73-1.66.33l.29-.15"/></g></g></g></g><path d="M420.26,373.26s-5.11,9.58-6.49,10.61c-.36.26.69-1.78,2.18-4.43s4.55-7.48,4.31-6.18"/><path class="cls-142" d="M420.26,373.26s-5.11,9.58-6.49,10.61c-.36.26.69-1.78,2.18-4.43S420.5,372,420.26,373.26Z"/><g class="cls-17"><g class="cls-169"><g class="cls-18"><g class="cls-169"><path d="M418.39,376.29a6.91,6.91,0,0,0,1-2.35c.58-.8,1-1.17.86-.68,0,0-5.11,9.57-6.49,10.61-.17.12,0-.28.34-1,1.26-.9,3-4.34,4.28-6.56"/></g></g></g></g><g class="cls-20"><g class="cls-170"><path d="M418.57,375.4s-2.79,4.25-3.48,5.74c-.61,1.16,2.62-3.88,3.48-5.74"/></g></g><path d="M426.22,379.43s-.14.32-.84-.22-4.15-3.5-5.16-5.38c-.29-.65-.5-1.55,1.15-.07,2.38,2.13,4.91,5.1,4.85,5.67"/><path class="cls-142" d="M426.22,379.43s-.14.32-.84-.22-4.15-3.5-5.16-5.38c-.29-.65-.5-1.55,1.15-.07C423.75,375.89,426.28,378.86,426.22,379.43Z"/><g class="cls-18"><g class="cls-171"><path d="M421.07,373.5a12.24,12.24,0,0,0,4.84,5.23,1.54,1.54,0,0,1,.31.7s-.14.32-.84-.22-4.15-3.5-5.16-5.38c-.27-.61-.47-1.43.85-.33"/></g></g><g class="cls-20"><g class="cls-172"><path d="M422.2,374.61l2.11,2.21a7,7,0,0,1-2.11-2.21"/></g></g><path d="M432.67,374.73s-4,3.74-6.52,4.79c-.36-.37.15-.94,1.05-1.61s3.63-2.8,4.54-3.25,1.05-.22.93.07"/><path class="cls-142" d="M432.67,374.73s-4,3.74-6.52,4.79c-.36-.37.15-.94,1.05-1.61s3.63-2.8,4.54-3.25S432.79,374.44,432.67,374.73Z"/><g class="cls-18"><g class="cls-173"><path d="M426.67,378.33c1.25-.22,4.33-2.76,5.65-3.9.39-.09.44.09.35.3,0,0-4,3.74-6.52,4.79-.28-.29,0-.7.52-1.19"/></g></g><g class="cls-20"><g class="cls-174"><path d="M431.08,375.16s-3.19,2.26-3.67,2.65,3.34-1.92,3.67-2.65"/></g></g><path d="M421.06,384.18a37.31,37.31,0,0,1-3.06,4.63c-1.69,2.14-2.05,2.37-1.91,2.52s.94-.1,3.21-3.33c1.9-2.93,2.39-4.27,1.76-3.82"/><path class="cls-142" d="M421.06,384.18a37.31,37.31,0,0,1-3.06,4.63c-1.69,2.14-2.05,2.37-1.91,2.52s.94-.1,3.21-3.33C421.2,385.07,421.69,383.73,421.06,384.18Z"/><g class="cls-17"><g class="cls-175"><path d="M419.51,387.16a5.69,5.69,0,0,0,1-2c.37-.6.58-1,.58-1,.63-.45.14.89-1.76,3.82-2.27,3.23-3.08,3.49-3.21,3.33s0-.09,0-.19a15.41,15.41,0,0,0,3.4-4"/></g></g><g class="cls-20"><g class="cls-176"><path d="M419.82,386.24a39.88,39.88,0,0,1-2.83,3.9c-.5.5,2.26-2.31,2.83-3.9"/></g></g><path d="M433.6,379.84s1.16-2.6,1.5-3.54,1-1.47.24,2.09c-.59,2.56-1.28,2.5-1.28,2.5Z"/><path class="cls-142" d="M433.6,379.84s1.16-2.6,1.5-3.54,1-1.47.24,2.09c-.59,2.56-1.28,2.5-1.28,2.5Z"/><g class="cls-18"><g class="cls-177"><path d="M435.34,378.39c-.59,2.56-1.29,2.5-1.29,2.5l-.35-.83c1.1-.94,1.72-3.07,2-4.24a9.56,9.56,0,0,1-.34,2.57"/></g></g><g class="cls-20"><g class="cls-178"><path d="M435.29,376.14l-1.39,3.17a10.26,10.26,0,0,0,1.39-3.17"/></g></g><path d="M434.05,380.89s.09-1.46-4.76-5.08c-3.19-2.19-3.31-1.6-3.06-.93a33.19,33.19,0,0,0,4.52,4.49c1.8,1.37,3.39,1.93,3.3,1.52"/><path class="cls-142" d="M434.05,380.89s.09-1.46-4.76-5.08c-3.19-2.19-3.31-1.6-3.06-.93a33.19,33.19,0,0,0,4.52,4.49C432.55,380.74,434.14,381.3,434.05,380.89Z"/><g class="cls-18"><g class="cls-179"><path d="M427.21,374.53a15.92,15.92,0,0,0,4,4.3,5.54,5.54,0,0,0,2.66,1.43,1.29,1.29,0,0,1,.21.63c.09.41-1.5-.15-3.3-1.53a33.24,33.24,0,0,1-4.52-4.48c-.18-.48-.17-.91,1-.35"/></g></g><g class="cls-20"><g class="cls-180"><path d="M433.38,379.56a30.93,30.93,0,0,0-5.8-4.72c2.33,1.68,5.8,4.72,5.8,4.72"/></g></g><path d="M426.53,374.82s0,1.26-1.93,4.84-3.13,5-3.55,4.91,1.84-3.74,3.09-6.88c1.35-3.41,2.45-4.31,2.39-2.87"/><path class="cls-142" d="M426.53,374.82s0,1.26-1.93,4.84-3.13,5-3.55,4.91,1.84-3.74,3.09-6.88C425.49,374.28,426.59,373.38,426.53,374.82Z"/><g class="cls-18"><g class="cls-181"><path d="M425.2,377.47a5.28,5.28,0,0,0,.68-3.05c.43-.45.68-.3.65.4,0,0,0,1.26-1.93,4.84s-3.12,5-3.55,4.91c-.12,0,0-.35.2-.86,1.06-.3,2.79-3.61,3.95-6.24"/></g></g><g class="cls-20"><g class="cls-182"><path d="M425.64,374.94a26.1,26.1,0,0,0-1.56,3.22c-1,2.38-2.29,4.8-2.29,4.8s1.23-2,2.37-4.45,1.65-3.75,1.48-3.57"/></g></g><path d="M425,364.09a3.12,3.12,0,0,1,2.94.76c1.56,1.29,1.7,2.81,1,3.9s-2.87.75-4.15.38Z"/><path class="cls-142" d="M425,364.09a3.12,3.12,0,0,1,2.94.76c1.56,1.29,1.7,2.81,1,3.9s-2.87.75-4.15.38Z"/><g class="cls-18"><g class="cls-183"><path d="M425.51,364a20.45,20.45,0,0,1,.56,3c.3,1.65,3.08,1.9,3.21,0h0a2.47,2.47,0,0,1-.37,1.79c-.71,1.08-2.87.75-4.15.38l.22-5a2.2,2.2,0,0,1,.5-.1"/><path class="cls-142" d="M425.51,364a20.45,20.45,0,0,1,.56,3c.3,1.65,3.08,1.9,3.21,0h0a2.47,2.47,0,0,1-.37,1.79c-.71,1.08-2.87.75-4.15.38l.22-5A2.2,2.2,0,0,1,425.51,364Z"/></g></g><g class="cls-41"><g class="cls-184"><path d="M426.56,364.29a3.58,3.58,0,0,1,2.31,1.9c.4.75-1.11,1-2-.31s-.79-1.74-.3-1.59"/><path class="cls-142" d="M426.56,364.29a3.58,3.58,0,0,1,2.31,1.9c.4.75-1.11,1-2-.31S426.07,364.14,426.56,364.29Z"/></g></g><path d="M410.59,371.62a1.41,1.41,0,0,1-1.83.2c-.56-.36-.55.47.44.83s1.95.3,2.34-.43a9.17,9.17,0,0,1-1-.6"/><path class="cls-142" d="M410.59,371.62a1.41,1.41,0,0,1-1.83.2c-.56-.36-.55.47.44.83s1.95.3,2.34-.43A9.17,9.17,0,0,1,410.59,371.62Z"/><g class="cls-41"><g class="cls-185"><path d="M410.49,371.88a1.53,1.53,0,0,1-1.57.11c-.49-.22.92.94,1.57-.11"/></g></g><g class="cls-18"><g class="cls-186"><path d="M410.8,372.06a2.79,2.79,0,0,0-.4-.27,1.35,1.35,0,0,0,.19-.17,9.17,9.17,0,0,0,1,.6c-.38.73-1.34.79-2.34.43-.56-.2-.8-.56-.81-.76.87,1,2.95.57,2.41.17"/></g></g><path d="M409.37,370.22s-.63,0-.72,1c-.12.56-.61-.15-.68-1s.69-.83,1-.67Z"/><path class="cls-142" d="M409.37,370.22s-.63,0-.72,1c-.12.56-.61-.15-.68-1s.69-.83,1-.67Z"/><g class="cls-41"><g class="cls-187"><path d="M408.65,369.55s-.76-.06-.5,1c.09.53-.08-.83.5-1"/></g></g><g class="cls-18"><g class="cls-188"><path d="M408.76,369.71a.24.24,0,0,0-.1-.21,1.06,1.06,0,0,1,.34.08l.37.64s-.63,0-.72,1c0,.15-.09.2-.15.2-.33-.72.28-1.3.26-1.72"/></g></g><path d="M417.78,361.37s-.61-1.8-3.51-.74a3.42,3.42,0,0,0-2.59,3.48Z"/><path class="cls-189" d="M417.78,361.37s-.61-1.8-3.51-.74a3.42,3.42,0,0,0-2.59,3.48Z"/><g class="cls-18"><g class="cls-190"><path d="M415.07,360.84a1,1,0,0,0-.31-.36c2.48-.7,3,.89,3,.89l-6.1,2.74a3,3,0,0,1,.16-1.18c1.78-1.28,3.53-1.44,3.23-2.09"/></g></g><path d="M419.54,361s-6.22-.36-9.65,4.6c-3.12,4.58,1.34,8.32,8.64,7.43,3-.36,7.66-2.63,6.81-7.95-.55-2.65-3-4-5.8-4.08"/><path class="cls-142" d="M419.54,361s-6.22-.36-9.65,4.6c-3.12,4.58,1.34,8.32,8.64,7.43,3-.36,7.66-2.63,6.81-7.95C424.79,362.46,422.37,361.07,419.54,361Z"/><g class="cls-18"><g class="cls-191"><path d="M413.75,372.55c6.7.85,6.36-3.79,5.23-3.29s-5.52,1.82-6.53-.93,3-5.19,2.1-5.7c-.32-.19-1.11,0-2,.37a12.59,12.59,0,0,1,7-2c2.83,0,5.25,1.43,5.8,4.08.85,5.32-3.79,7.59-6.81,8-5.27.64-9.07-1.14-9.59-3.9.48,1.32,1.69,3,4.81,3.38"/></g></g><g class="cls-18"><g class="cls-192"><path d="M413.65,368.11c.79,1.39,3.11,1.54,5.31.28s3.1-3.41,2.31-4.8-3-1.51-5.18-.25-3.23,3.37-2.44,4.77"/></g></g><g class="cls-41"><g class="cls-193"><g class="cls-43"><g class="cls-194"><path d="M422.05,363.86c.18.56.63.91,1,.78s.52-.67.33-1.23-.63-.9-1-.78-.52.67-.34,1.23"/></g></g><g class="cls-43"><g class="cls-195"><path d="M423.39,365.68c.09.25.29.42.46.36s.24-.31.16-.56-.29-.42-.46-.36-.24.31-.16.56"/></g></g></g></g><g class="cls-43"><g class="cls-196"><path d="M417.67,363.16c-.55.33-.89.88-.75,1.22s.71.36,1.27,0,.89-.89.75-1.23-.71-.36-1.27,0"/></g></g><g class="cls-43"><g class="cls-197"><path d="M415.77,364.79c-.25.16-.41.41-.34.57s.32.16.58,0,.41-.41.34-.56-.32-.17-.58,0"/></g></g><g class="cls-41"><g class="cls-198"><path d="M412.55,363.9s-2.36,2.1-2.64,4-1.45-.09.36-2.43,2.91-2.32,2.28-1.6"/></g></g><path d="M415,354.38c.29.51.56,1.06.83,1.66l0,.08a1.53,1.53,0,0,0-.49.41,19.5,19.5,0,0,0-.89-1.77,1.69,1.69,0,0,1,.52-.38"/><path class="cls-142" d="M415,354.38c.29.51.56,1.06.83,1.66l0,.08a1.53,1.53,0,0,0-.49.41,19.5,19.5,0,0,0-.89-1.77A1.69,1.69,0,0,1,415,354.38Z"/><path d="M418.1,361.51c.45.47.36.55.11.49,0,0-.64.11-2-3.3a2,2,0,0,1,.46-.2,9.82,9.82,0,0,0,1.43,3"/><path class="cls-142" d="M418.1,361.51c.45.47.36.55.11.49,0,0-.64.11-2-3.3a2,2,0,0,1,.46-.2A9.82,9.82,0,0,0,418.1,361.51Z"/><path d="M415,354.38a1.69,1.69,0,0,0-.52.38,15,15,0,0,0-1.29-1.92,1.58,1.58,0,0,1,.39-.5,14.48,14.48,0,0,1,1.42,2"/><path class="cls-142" d="M415,354.38a1.69,1.69,0,0,0-.52.38,15,15,0,0,0-1.29-1.92,1.58,1.58,0,0,1,.39-.5A14.48,14.48,0,0,1,415,354.38Z"/><path d="M415.82,356.12c.34.91.61,1.7.85,2.38a2,2,0,0,0-.46.2c0-.11-.09-.23-.14-.35-.22-.62-.46-1.22-.73-1.82a1.62,1.62,0,0,1,.48-.41"/><path class="cls-142" d="M415.82,356.12c.34.91.61,1.7.85,2.38a2,2,0,0,0-.46.2c0-.11-.09-.23-.14-.35-.22-.62-.46-1.22-.73-1.82A1.62,1.62,0,0,1,415.82,356.12Z"/><path d="M410.32,349.71a1.25,1.25,0,0,0-.38.59c-1.28-.56-.94-1.22.38-.59"/><path class="cls-142" d="M410.32,349.71a1.25,1.25,0,0,0-.38.59C408.66,349.74,409,349.08,410.32,349.71Z"/><path d="M413.55,352.34a1.7,1.7,0,0,0-.39.5,9.59,9.59,0,0,0-1.43-1.48,2,2,0,0,1,.32-.51,11,11,0,0,1,1.5,1.49"/><path class="cls-142" d="M413.55,352.34a1.7,1.7,0,0,0-.39.5,9.59,9.59,0,0,0-1.43-1.48,2,2,0,0,1,.32-.51A11,11,0,0,1,413.55,352.34Z"/><path d="M410.49,349.8a9.27,9.27,0,0,1,1.56,1.05,2,2,0,0,0-.32.51,6.74,6.74,0,0,0-1.65-1l-.14-.06a1.25,1.25,0,0,1,.38-.59l.17.09"/><path class="cls-142" d="M410.49,349.8a9.27,9.27,0,0,1,1.56,1.05,2,2,0,0,0-.32.51,6.74,6.74,0,0,0-1.65-1l-.14-.06a1.25,1.25,0,0,1,.38-.59Z"/><g class="cls-17"><g class="cls-199"><path d="M409.36,349.46a1.47,1.47,0,0,0,.7.53c1.2.54,3.4,1.88,5.46,6.3.89,1.66,1.31,4.37,2.89,5.7,0,0-.1,0-.2,0s-.64.11-2-3.3c0-.11-.09-.23-.14-.35-.22-.62-.46-1.22-.73-1.82a19.5,19.5,0,0,0-.89-1.77,15,15,0,0,0-1.29-1.92,9.59,9.59,0,0,0-1.43-1.48,6.74,6.74,0,0,0-1.65-1l-.14-.06c-.86-.37-1-.79-.58-.84"/></g></g><g class="cls-43"><g class="cls-200"><path d="M415.92,356.43s-2-5.33-6-6.78c2.61,1.69,3.37,1.87,6,6.78"/></g></g><path d="M407.32,353.16a1.64,1.64,0,0,0-.13.54,6.06,6.06,0,0,0-1-.27c-.42-.08,0-.48,1.09-.27"/><path class="cls-142" d="M407.32,353.16a1.64,1.64,0,0,0-.13.54,6.06,6.06,0,0,0-1-.27C405.81,353.35,406.28,353,407.32,353.16Z"/><path d="M415.52,360.08a1.09,1.09,0,0,1-.29.43,20.76,20.76,0,0,1-1.5-1.49,2,2,0,0,0,.39-.61c.46.56.93,1.14,1.4,1.67"/><path class="cls-142" d="M415.52,360.08a1.09,1.09,0,0,1-.29.43,20.76,20.76,0,0,1-1.5-1.49,2,2,0,0,0,.39-.61C414.58,359,415.05,359.55,415.52,360.08Z"/><path d="M417.84,362c.45.13.36.19.2.19,0,0-1,0-2.81-1.67a1.09,1.09,0,0,0,.29-.43,6.35,6.35,0,0,0,2.32,1.91"/><path class="cls-142" d="M417.84,362c.45.13.36.19.2.19,0,0-1,0-2.81-1.67a1.09,1.09,0,0,0,.29-.43A6.35,6.35,0,0,0,417.84,362Z"/><path d="M414,358.27a1.34,1.34,0,0,0,.11.14,2,2,0,0,1-.39.61c-.29-.32-.59-.66-.91-1l-.28-.3a1.64,1.64,0,0,0,.35-.66c.38.39.74.81,1.12,1.26"/><path class="cls-142" d="M414,358.27a1.34,1.34,0,0,0,.11.14,2,2,0,0,1-.39.61c-.29-.32-.59-.66-.91-1l-.28-.3a1.64,1.64,0,0,0,.35-.66C413.27,357.4,413.63,357.82,414,358.27Z"/><path d="M407.32,353.16a5.27,5.27,0,0,1,2,.89,3.79,3.79,0,0,0-.28.57,8.86,8.86,0,0,0-1.82-.92,1.64,1.64,0,0,1,.13-.54"/><path class="cls-142" d="M407.32,353.16a5.27,5.27,0,0,1,2,.89,3.79,3.79,0,0,0-.28.57,8.86,8.86,0,0,0-1.82-.92A1.64,1.64,0,0,1,407.32,353.16Z"/><path d="M412.89,357a1.64,1.64,0,0,1-.35.66,22.61,22.61,0,0,0-1.82-1.77,1.76,1.76,0,0,1,.28-.6,19.32,19.32,0,0,1,1.89,1.71"/><path class="cls-142" d="M412.89,357a1.64,1.64,0,0,1-.35.66,22.61,22.61,0,0,0-1.82-1.77,1.76,1.76,0,0,1,.28-.6A19.32,19.32,0,0,1,412.89,357Z"/><path d="M409.33,354.08c.64.44,1.19.85,1.67,1.22a2,2,0,0,0-.28.6,16.66,16.66,0,0,0-1.71-1.29,3.65,3.65,0,0,1,.28-.56l0,0"/><path class="cls-142" d="M409.33,354.08c.64.44,1.19.85,1.67,1.22a2,2,0,0,0-.28.6,16.66,16.66,0,0,0-1.71-1.29,3.65,3.65,0,0,1,.28-.56Z"/><g class="cls-17"><g class="cls-201"><path d="M413.57,358.23c1.61,1.88,2.59,3.28,4.53,3.95H418s-1,0-2.81-1.68a18.58,18.58,0,0,1-1.5-1.48c-.29-.32-.59-.67-.91-1l-.28-.3a22.61,22.61,0,0,0-1.82-1.77,14,14,0,0,0-1.71-1.28,8.86,8.86,0,0,0-1.82-.92,6.06,6.06,0,0,0-1-.27c-.21,0-.2-.16,0-.25a2.87,2.87,0,0,0,.84.29c1.62.35,4.07,1.91,6.5,4.76"/></g></g><g class="cls-43"><g class="cls-202"><path d="M406.51,353.14s2.13-.75,7.26,5c-2.51-2.47-4.81-4.67-7.26-5"/></g></g><g class="cls-82"><g class="cls-203"><path d="M424.48,366.22a5.05,5.05,0,0,0-3.52-5.05,5.13,5.13,0,0,1,4.38,3.94c.85,5.32-3.79,7.59-6.81,7.95a15.08,15.08,0,0,1-4.26,0h0c4.87.65,10.16-2.67,10.21-6.81"/></g></g><g class="cls-13"><path class="cls-204" d="M297.12,274.62c3.9,2.26,4,7.9,1.72,11.35a6.49,6.49,0,0,1-5.82,2.94,10.74,10.74,0,0,1-8-5c-2-3-2.76-6.68-3.08-10.23a36.47,36.47,0,0,1,.08-8.61c.67-4.61,2.63-10.43,7.69-11.74,3.47-.91,6.88.77,9.72,2.64a34.28,34.28,0,0,1,6.8,5.92,37.93,37.93,0,0,1,8.36,16,34.6,34.6,0,0,1-.18,18,18.2,18.2,0,0,1-4.48,8,10.93,10.93,0,0,1-8.93,3,20.77,20.77,0,0,1-9.5-4,34.37,34.37,0,0,1-6.1-5.58,39.93,39.93,0,0,1-7.85-14.27,44.09,44.09,0,0,1-1.87-16.26,39.35,39.35,0,0,1,4.44-15.65c2.93-5.47,7.51-11.2,13.93-12.4,6.78-1.26,13.67,2.16,19,6.11a46.83,46.83,0,0,1,11.68,12.93,59.06,59.06,0,0,1,6.89,16.4,70.24,70.24,0,0,1,2.18,18,80.52,80.52,0,0,1-2.83,19.94A122,122,0,0,1,323.13,333a223.15,223.15,0,0,1-10.7,19.71c-1.85,3.09-3.75,6.15-5.67,9.2-.35.55.52,1.05.86.51,4.18-6.64,8.28-13.35,12-20.26a154.4,154.4,0,0,0,9.63-21.35,95.14,95.14,0,0,0,5.11-22,72.62,72.62,0,0,0-.62-19A64.62,64.62,0,0,0,328.1,262a51,51,0,0,0-10.79-14.76c-4.87-4.56-11-8.53-17.72-9.49a16.32,16.32,0,0,0-10.21,1.62,24,24,0,0,0-7.53,7.1,38.22,38.22,0,0,0-6.61,15.62,44.39,44.39,0,0,0,.23,17.15,42.45,42.45,0,0,0,6.7,15.66c3.49,5,8.26,9.44,13.95,11.77a14.42,14.42,0,0,0,10.13.7,13.34,13.34,0,0,0,6.94-6.09c3.17-5.46,3.9-12.33,3.22-18.51a39.18,39.18,0,0,0-6.52-17.66,36.68,36.68,0,0,0-6.19-7,26,26,0,0,0-8.65-5.37,9.35,9.35,0,0,0-8.44,1,12.83,12.83,0,0,0-4.3,6,26.67,26.67,0,0,0-1.61,8.24,39.22,39.22,0,0,0,.82,10.08,16.27,16.27,0,0,0,5,9.11,10.17,10.17,0,0,0,8.83,2.56c4.59-1.11,6.71-6.52,5.86-10.81a7.5,7.5,0,0,0-3.53-5.12.5.5,0,0,0-.51.86Z"/></g></g></g></g></svg>