<svg xmlns="http://www.w3.org/2000/svg" xmlns:xlink="http://www.w3.org/1999/xlink" viewBox="0 0 1600 900"><defs><style>.cls-1{fill:none;}.cls-2{isolation:isolate;}.cls-3{clip-path:url(#clip-path);}.cls-28,.cls-4,.cls-41,.cls-42,.cls-46{opacity:0.2;}.cls-5{fill:url(#linear-gradient);}.cls-11,.cls-13,.cls-15,.cls-17,.cls-22,.cls-6,.cls-62,.cls-63,.cls-7,.cls-9{mix-blend-mode:screen;}.cls-11,.cls-13,.cls-15,.cls-17,.cls-6,.cls-9{opacity:0.35;}.cls-6{fill:url(#linear-gradient-2);}.cls-7{fill:#f06374;}.cls-26,.cls-62,.cls-66,.cls-7{opacity:0.5;}.cls-8{fill:url(#linear-gradient-3);}.cls-9{fill:url(#linear-gradient-4);}.cls-10{fill:url(#linear-gradient-5);}.cls-11{fill:url(#linear-gradient-6);}.cls-12{fill:url(#linear-gradient-7);}.cls-13{fill:url(#linear-gradient-8);}.cls-14{fill:url(#linear-gradient-9);}.cls-15{fill:url(#linear-gradient-10);}.cls-16{fill:url(#linear-gradient-11);}.cls-17{fill:url(#linear-gradient-12);}.cls-18{fill:url(#linear-gradient-13);}.cls-19{fill:url(#linear-gradient-14);}.cls-20{fill:#8d638d;}.cls-20,.cls-28,.cls-29,.cls-41,.cls-42,.cls-46,.cls-61,.cls-66{mix-blend-mode:multiply;}.cls-21{fill:url(#linear-gradient-15);}.cls-22{fill:#f2785e;opacity:0.25;}.cls-23,.cls-24,.cls-25,.cls-27,.cls-28,.cls-29,.cls-30,.cls-31,.cls-32,.cls-33,.cls-34,.cls-35,.cls-36,.cls-37,.cls-38,.cls-39,.cls-40,.cls-41,.cls-42,.cls-43,.cls-44,.cls-45,.cls-47,.cls-48,.cls-49,.cls-50,.cls-51{fill-rule:evenodd;}.cls-23{fill:url(#Áåçûìÿííûé_ãðàäèåíò_240);}.cls-24{fill:#b53f38;}.cls-25{fill:#7a1542;}.cls-27{fill:#f05b56;}.cls-28{fill:url(#Áåçûìÿííûé_ãðàäèåíò_263);}.cls-29{fill:#b71f2b;opacity:0.31;}.cls-30{fill:url(#Áåçûìÿííûé_ãðàäèåíò_237);}.cls-31{fill:#f27257;}.cls-32{fill:#fbf7c4;}.cls-32,.cls-49,.cls-71{mix-blend-mode:soft-light;}.cls-33{fill:#6b1143;opacity:0.51;}.cls-34{fill:url(#Áåçûìÿííûé_ãðàäèåíò_66);}.cls-35{fill:url(#Áåçûìÿííûé_ãðàäèåíò_237-2);}.cls-36{fill:url(#Áåçûìÿííûé_ãðàäèåíò_66-2);}.cls-37{fill:url(#Áåçûìÿííûé_ãðàäèåíò_237-3);}.cls-38{fill:url(#Áåçûìÿííûé_ãðàäèåíò_66-3);}.cls-39{fill:url(#Áåçûìÿííûé_ãðàäèåíò_237-4);}.cls-40{fill:url(#Áåçûìÿííûé_ãðàäèåíò_66-4);}.cls-41{fill:url(#Áåçûìÿííûé_ãðàäèåíò_241);}.cls-42{fill:url(#Áåçûìÿííûé_ãðàäèåíò_263-2);}.cls-43{fill:url(#Áåçûìÿííûé_ãðàäèåíò_185);}.cls-44{fill:#a83c24;}.cls-45{fill:#9d3122;}.cls-47{fill:#a8579e;}.cls-48{fill:#6f2112;}.cls-49{fill:#fabb9b;}.cls-50{fill:#8ea1d2;}.cls-51{fill:#aea4d0;}.cls-52{fill:#6b4075;}.cls-53{font-size:72.28px;font-family:MyriadPro-Regular, Myriad Pro;}.cls-53,.cls-62,.cls-63,.cls-67,.cls-71{fill:#fff;}.cls-54{fill:#7c6453;}.cls-55{fill:#f6c21d;}.cls-56{fill:#ffe52c;}.cls-57{fill:#ae4a25;}.cls-58{fill:#9dd3dc;}.cls-59{fill:#b6e2ed;}.cls-60{fill:#faed36;}.cls-61{fill:#bfafc0;}.cls-63{opacity:0.85;}.cls-64{fill:#ee3f5d;}.cls-65{fill:#f2809a;}.cls-66{fill:#ccaf80;}.cls-68{fill:#ffcd1f;}.cls-69{fill:#fde131;}.cls-70{fill:#c9e7e7;opacity:0.8;}.cls-72{fill:#fbf9d9;}.cls-73{fill:#7f1b17;}</style><clipPath id="clip-path"><rect class="cls-1" x="10.66" y="-11.19" width="1589.92" height="900"/></clipPath><linearGradient id="linear-gradient" x1="1170.2" y1="496.53" x2="1193.82" y2="496.53" gradientTransform="matrix(1, 0.04, -0.04, 1, 13.13, -93.9)" gradientUnits="userSpaceOnUse"><stop offset="0.03" stop-color="#ee3824"/><stop offset="0.99" stop-color="#c72026"/></linearGradient><linearGradient id="linear-gradient-2" x1="1179.16" y1="502.94" x2="1179.16" y2="489.69" gradientTransform="matrix(1, 0.04, -0.04, 1, 13.13, -93.9)" gradientUnits="userSpaceOnUse"><stop offset="0"/><stop offset="1" stop-color="#fff"/></linearGradient><linearGradient id="linear-gradient-3" x1="1160.09" y1="508.53" x2="1183.72" y2="508.53" xlink:href="#linear-gradient"/><linearGradient id="linear-gradient-4" x1="1169.06" y1="514.94" x2="1169.06" y2="501.69" xlink:href="#linear-gradient-2"/><linearGradient id="linear-gradient-5" x1="1209.98" y1="505.06" x2="1233.61" y2="505.06" xlink:href="#linear-gradient"/><linearGradient id="linear-gradient-6" x1="1218.95" y1="511.47" x2="1218.95" y2="498.22" xlink:href="#linear-gradient-2"/><linearGradient id="linear-gradient-7" x1="1182.83" y1="505.69" x2="1206.45" y2="505.69" xlink:href="#linear-gradient"/><linearGradient id="linear-gradient-8" x1="1191.79" y1="512.1" x2="1191.79" y2="498.85" xlink:href="#linear-gradient-2"/><linearGradient id="linear-gradient-9" x1="1254.82" y1="505.06" x2="1278.45" y2="505.06" xlink:href="#linear-gradient"/><linearGradient id="linear-gradient-10" x1="1263.79" y1="511.47" x2="1263.79" y2="498.22" xlink:href="#linear-gradient-2"/><linearGradient id="linear-gradient-11" x1="1230.06" y1="504.77" x2="1253.69" y2="504.77" xlink:href="#linear-gradient"/><linearGradient id="linear-gradient-12" x1="1239.02" y1="511.18" x2="1239.02" y2="497.93" xlink:href="#linear-gradient-2"/><linearGradient id="linear-gradient-13" x1="1155.32" y1="543.3" x2="1155.32" y2="500.56" gradientTransform="matrix(1, 0.04, -0.04, 1, 13.13, -93.9)" gradientUnits="userSpaceOnUse"><stop offset="0.03" stop-color="#c45627"/><stop offset="1" stop-color="#da7e27"/></linearGradient><linearGradient id="linear-gradient-14" x1="1283.58" y1="543.3" x2="1283.58" y2="500.56" xlink:href="#linear-gradient-13"/><linearGradient id="linear-gradient-15" x1="1218.59" y1="536.57" x2="1218.59" y2="507.52" gradientTransform="matrix(1, 0.04, -0.04, 1, 13.13, -93.9)" gradientUnits="userSpaceOnUse"><stop offset="0.03" stop-color="#c45627"/><stop offset="1" stop-color="#fbb315"/></linearGradient><linearGradient id="Áåçûìÿííûé_ãðàäèåíò_240" x1="2719.72" y1="515.35" x2="2719.72" y2="22.94" gradientTransform="matrix(-1, 0, 0, 1, 4275.23, 0)" gradientUnits="userSpaceOnUse"><stop offset="0" stop-color="#fccba2"/><stop offset="1" stop-color="#f6a4a0"/></linearGradient><linearGradient id="Áåçûìÿííûé_ãðàäèåíò_263" x1="2683.32" y1="430.47" x2="2872.62" y2="430.47" gradientTransform="matrix(-1, 0, 0, 1, 4275.23, 0)" gradientUnits="userSpaceOnUse"><stop offset="0" stop-color="#fff"/><stop offset="1" stop-color="#9e237a"/></linearGradient><linearGradient id="Áåçûìÿííûé_ãðàäèåíò_237" x1="2853.75" y1="84.73" x2="2853.75" y2="22.94" gradientTransform="matrix(-1, 0, 0, 1, 4275.23, 0)" gradientUnits="userSpaceOnUse"><stop offset="0" stop-color="#fccba2"/><stop offset="1" stop-color="#ffd8a1"/></linearGradient><linearGradient id="Áåçûìÿííûé_ãðàäèåíò_66" x1="2654.53" y1="291.32" x2="2654.53" y2="118.5" gradientTransform="matrix(-1.05, -0.04, -0.04, 1, 4374.03, 72.79)" gradientUnits="userSpaceOnUse"><stop offset="0" stop-color="#ee382f"/><stop offset="1" stop-color="#f1622a"/></linearGradient><linearGradient id="Áåçûìÿííûé_ãðàäèåíò_237-2" x1="2737.05" y1="291.61" x2="2737.05" y2="117.09" gradientTransform="matrix(-1.05, -0.04, -0.04, 1, 4374.03, 72.79)" xlink:href="#Áåçûìÿííûé_ãðàäèåíò_237"/><linearGradient id="Áåçûìÿííûé_ãðàäèåíò_66-2" x1="2820.95" y1="291.9" x2="2820.95" y2="115.67" xlink:href="#Áåçûìÿííûé_ãðàäèåíò_66"/><linearGradient id="Áåçûìÿííûé_ãðàäèåíò_237-3" x1="2906.3" y1="292.19" x2="2906.3" y2="114.22" gradientTransform="matrix(-1.05, -0.04, -0.04, 1, 4374.03, 72.79)" xlink:href="#Áåçûìÿííûé_ãðàäèåíò_237"/><linearGradient id="Áåçûìÿííûé_ãðàäèåíò_66-3" x1="3033.67" y1="272.64" x2="3033.67" y2="112.9" gradientTransform="matrix(-1, -0.04, -0.04, 1, 4280.43, 69.4)" xlink:href="#Áåçûìÿííûé_ãðàäèåíò_66"/><linearGradient id="Áåçûìÿííûé_ãðàäèåíò_237-4" x1="3106.87" y1="272.92" x2="3106.87" y2="111.56" gradientTransform="matrix(-1, -0.04, -0.04, 1, 4280.43, 69.4)" xlink:href="#Áåçûìÿííûé_ãðàäèåíò_237"/><linearGradient id="Áåçûìÿííûé_ãðàäèåíò_66-4" x1="3181.2" y1="273.2" x2="3181.2" y2="110.52" gradientTransform="matrix(-1, -0.04, -0.04, 1, 4280.43, 69.4)" xlink:href="#Áåçûìÿííûé_ãðàäèåíò_66"/><linearGradient id="Áåçûìÿííûé_ãðàäèåíò_241" x1="2653.4" y1="113.22" x2="2937.58" y2="113.22" gradientTransform="matrix(-1, 0, 0, 1, 4275.23, 0)" gradientUnits="userSpaceOnUse"><stop offset="0" stop-color="#9e237a"/><stop offset="1" stop-color="#fff"/></linearGradient><linearGradient id="Áåçûìÿííûé_ãðàäèåíò_263-2" x1="2966.42" y1="106.93" x2="3208.18" y2="106.93" xlink:href="#Áåçûìÿííûé_ãðàäèåíò_263"/><linearGradient id="Áåçûìÿííûé_ãðàäèåíò_185" x1="3205.49" y1="895.4" x2="3205.49" y2="487.13" gradientTransform="matrix(-1, 0, 0, 1, 4604.7, 0)" gradientUnits="userSpaceOnUse"><stop offset="0" stop-color="#d45d27"/><stop offset="1" stop-color="#bb3926"/></linearGradient></defs><g class="cls-2"><g id="Layer_1" data-name="Layer 1"><g id="j"><g class="cls-3"><g id="j-2" data-name="j"><path class="cls-4" d="M1607.06,911,1062.8,789.11c-16.2-1.88-6.73-17.88,16.45-21.68l38.55-11.21c2-1.15-8.8.54-6.6,1l519.5,128.09a8.79,8.79,0,0,1,1.53,16.66l-19.74,8.46A8.8,8.8,0,0,1,1607.06,911Z"/><path class="cls-5" d="M1186.21,448.31c-.22,5.6-5.69,9.93-12.21,9.67s-11.62-5-11.4-10.61,5.56-6.6,12.08-6.34S1186.43,442.71,1186.21,448.31Z"/><path class="cls-6" d="M1165,445.65a6.46,6.46,0,0,0,.22,5.61,8.65,8.65,0,0,0,4.22,3.85,7.15,7.15,0,0,0,6.7-.18c2.55-1.67,3.15-5.46,1.68-8.12C1175.44,442.54,1167.48,440.27,1165,445.65Z"/><path class="cls-7" d="M1170.87,446c0,.71-1.17,1.25-2.55,1.19s-2.48-.68-2.45-1.39,1.17-1.24,2.55-1.18S1170.9,445.24,1170.87,446Z"/><path class="cls-7" d="M1173.82,448.69c0,.44-.72.76-1.56.73s-1.52-.41-1.5-.85.72-.76,1.56-.72S1173.83,448.26,1173.82,448.69Z"/><path class="cls-8" d="M1175.63,459.9c-.22,5.6-5.69,9.92-12.21,9.66s-11.62-5-11.39-10.61,5.55-6.6,12.07-6.34S1175.86,454.3,1175.63,459.9Z"/><path class="cls-9" d="M1154.39,457.24a6.54,6.54,0,0,0,.22,5.61,8.67,8.67,0,0,0,4.22,3.84,7.14,7.14,0,0,0,6.71-.18c2.54-1.66,3.15-5.45,1.68-8.12C1164.86,454.12,1156.9,451.85,1154.39,457.24Z"/><path class="cls-7" d="M1160.29,457.54c0,.71-1.17,1.24-2.55,1.19s-2.47-.68-2.44-1.39,1.17-1.24,2.54-1.19S1160.32,456.83,1160.29,457.54Z"/><path class="cls-7" d="M1163.24,460.28c0,.43-.72.76-1.56.73s-1.51-.42-1.49-.85.71-.76,1.55-.73S1163.26,459.85,1163.24,460.28Z"/><path class="cls-10" d="M1225.62,458.42c-.22,5.6-5.69,9.93-12.21,9.67s-11.62-5-11.39-10.61,5.55-6.6,12.07-6.34S1225.85,452.82,1225.62,458.42Z"/><path class="cls-11" d="M1204.38,455.76a6.53,6.53,0,0,0,.22,5.61,8.69,8.69,0,0,0,4.22,3.85,7.17,7.17,0,0,0,6.71-.18c2.54-1.67,3.15-5.46,1.68-8.12C1214.85,452.64,1206.89,450.38,1204.38,455.76Z"/><path class="cls-7" d="M1210.28,456.06c0,.71-1.17,1.24-2.55,1.19s-2.47-.68-2.44-1.39,1.17-1.24,2.55-1.18S1210.31,455.35,1210.28,456.06Z"/><path class="cls-7" d="M1213.23,458.8c0,.44-.72.76-1.56.73s-1.51-.41-1.49-.85.71-.76,1.55-.72S1213.25,458.37,1213.23,458.8Z"/><path class="cls-12" d="M1198.46,458c-.22,5.6-5.69,9.92-12.21,9.66s-11.62-5-11.39-10.61,5.55-6.6,12.07-6.34S1198.69,452.37,1198.46,458Z"/><path class="cls-13" d="M1177.23,455.3a6.52,6.52,0,0,0,.21,5.62,8.72,8.72,0,0,0,4.22,3.84,7.14,7.14,0,0,0,6.71-.18c2.54-1.66,3.15-5.45,1.68-8.12C1187.69,452.19,1179.73,449.92,1177.23,455.3Z"/><path class="cls-7" d="M1183.12,455.61c0,.71-1.17,1.24-2.55,1.18s-2.47-.67-2.44-1.38,1.17-1.24,2.55-1.19S1183.15,454.9,1183.12,455.61Z"/><path class="cls-7" d="M1186.07,458.35c0,.43-.72.76-1.56.72s-1.51-.41-1.49-.84.71-.76,1.55-.73S1186.09,457.91,1186.07,458.35Z"/><path class="cls-14" d="M1270.43,460.21c-.23,5.6-5.69,9.93-12.21,9.67s-11.62-5-11.4-10.61,5.56-6.6,12.08-6.34S1270.65,454.61,1270.43,460.21Z"/><path class="cls-15" d="M1249.19,457.55a6.52,6.52,0,0,0,.21,5.62,8.7,8.7,0,0,0,4.23,3.84,7.12,7.12,0,0,0,6.7-.18c2.54-1.66,3.15-5.46,1.68-8.12C1259.65,454.44,1251.7,452.17,1249.19,457.55Z"/><path class="cls-7" d="M1255.08,457.86c0,.71-1.16,1.24-2.54,1.18s-2.48-.67-2.45-1.38,1.17-1.24,2.55-1.19S1255.11,457.15,1255.08,457.86Z"/><path class="cls-7" d="M1258,460.6c0,.43-.71.76-1.56.72s-1.51-.41-1.49-.84.71-.76,1.56-.73S1258.05,460.16,1258,460.6Z"/><path class="cls-16" d="M1245.7,458.94c-.23,5.6-5.69,9.92-12.21,9.66s-11.63-5-11.4-10.61,5.56-6.6,12.07-6.34S1245.92,453.34,1245.7,458.94Z"/><path class="cls-17" d="M1224.46,456.27a6.52,6.52,0,0,0,.21,5.62,8.67,8.67,0,0,0,4.22,3.84,7.14,7.14,0,0,0,6.71-.18c2.54-1.66,3.15-5.45,1.68-8.12C1234.92,453.16,1227,450.89,1224.46,456.27Z"/><path class="cls-7" d="M1230.35,456.58c0,.71-1.17,1.24-2.55,1.19s-2.47-.68-2.44-1.39,1.17-1.24,2.55-1.19S1230.38,455.87,1230.35,456.58Z"/><path class="cls-7" d="M1233.3,459.32c0,.43-.71.76-1.56.72s-1.51-.41-1.49-.84.71-.76,1.56-.73S1233.32,458.89,1233.3,459.32Z"/><polygon class="cls-18" points="1152.53 495.44 1146.85 495.21 1146.36 491.7 1145.53 485.88 1140.79 452.19 1148.36 452.5 1151.62 486.13 1152.19 491.94 1152.53 495.44"/><polygon class="cls-19" points="1282.39 457.86 1274.97 491.06 1273.68 496.8 1272.91 500.26 1267.23 500.03 1267.85 496.57 1268.89 490.82 1274.82 457.56 1282.39 457.86"/><polygon class="cls-20" points="1152.19 491.94 1146.36 491.7 1145.53 485.88 1151.62 486.13 1152.19 491.94"/><polygon class="cls-20" points="1274.97 491.06 1273.68 496.8 1267.85 496.57 1268.89 490.82 1274.97 491.06"/><polygon class="cls-21" points="1136.51 458.98 1141.66 488.26 1278.59 493.74 1284.39 464.9 1136.51 458.98"/><path class="cls-22" d="M1144,485.83,1138.64,461l143.56,5.74s-.89,6.6-1.83,6.25S1152.18,470,1152.18,470l1.63,6.7,120.53,4.83-.58,6.61Z"/><polygon class="cls-23" points="1852 145.27 1822.05 506.16 1377.78 515.35 1382.41 140.51 1259.02 49.07 1780.5 22.94 1852 145.27"/><polygon class="cls-24" points="1377.78 515.35 1382.41 140.51 1391.77 140.44 1382.82 515.36 1377.78 515.35"/><polygon class="cls-25" points="1391.77 140.44 1398.97 142.94 1387.43 515.32 1382.82 515.36 1391.77 140.44"/><g class="cls-26"><polygon class="cls-27" points="1546.25 621.82 1575.27 622.44 1587.4 97.03 1554.77 96.27 1546.25 621.82"/><polygon class="cls-27" points="1477.08 620.35 1506.11 620.97 1509.63 95.22 1476.98 94.46 1477.08 620.35"/><polygon class="cls-27" points="1407.87 618.87 1436.92 619.49 1431.81 93.41 1399.14 92.65 1407.87 618.87"/></g><polygon class="cls-28" points="1402.61 301.95 1591.91 558.99 1533.64 547.61 1402.61 301.95"/><polygon class="cls-29" points="1833.91 353.16 1380.47 270.69 1376.53 131.91 1846.79 177.94 1833.91 353.16"/><polygon class="cls-24" points="1129.32 617.18 1105.98 114.62 1115.39 114.55 1134.36 617.19 1129.32 617.18"/><polygon class="cls-25" points="1115.39 114.55 1122.67 117.04 1138.97 617.13 1134.36 617.19 1115.39 114.55"/><polygon class="cls-30" points="1780.5 22.94 1621.83 84.73 1062.46 74.65 1259.02 49.07 1780.5 22.94"/><polygon class="cls-31" points="1555.67 83.54 1731.64 25.39 1666.61 28.64 1487.73 82.31 1555.67 83.54"/><polygon class="cls-31" points="1418.96 81.08 1577.44 33.11 1522.95 36.29 1348.85 79.81 1418.96 81.08"/><polygon class="cls-31" points="1277.34 78.52 1409.19 41.55 1356.81 45.34 1204.39 77.21 1277.34 78.52"/><polygon class="cls-31" points="1129.96 75.87 1280.4 48 1259.02 49.07 1069.41 74.78 1129.96 75.87"/><polygon class="cls-32" points="1621.83 84.73 1067.05 72.87 1183.39 59.09 1621.83 84.73"/><polygon class="cls-24" points="1780.5 22.94 1774.02 12.89 1267.51 40.68 1267.44 47.92 1780.5 22.94"/><polygon class="cls-33" points="1120.27 244.83 1111.82 241.23 1110.99 219.83 1119.2 222.17 1120.27 244.83"/><path class="cls-34" d="M1581.53,263.19h0c23.31.77,43.34-20,44.84-46.5l7-123.18L1547.27,89l-6,124.43C1540,240.2,1558.09,262.42,1581.53,263.19Z"/><path class="cls-35" d="M1496.05,260.38h0c23.77.78,44-20.18,45.26-46.94l6-124.43-87.78-4.58-4.89,125.69C1453.55,237.15,1472.16,259.6,1496.05,260.38Z"/><path class="cls-36" d="M1409.57,257.54h0c24.22.8,44.62-20.37,45.67-47.4l4.9-125.68-89.5-4.67-3.8,127C1366,234.06,1385.21,256.74,1409.57,257.54Z"/><path class="cls-37" d="M1321.4,254.64h0c24.7.81,45.28-20.55,46.1-47.86l3.8-127L1280,75.05l-2.65,128.28C1276.8,230.92,1296.57,253.83,1321.4,254.64Z"/><path class="cls-38" d="M1241.13,232.18h0c19.85.64,36.31-18.61,36.86-43.12l2.56-114-73.4-4-1.62,115.17C1205.19,211,1221.17,231.53,1241.13,232.18Z"/><path class="cls-39" d="M1168.86,229.83h0c20.25.66,36.86-18.78,37.21-43.54l1.62-115.16-74.88-4.06-.65,116.37C1132,208.46,1148.5,229.17,1168.86,229.83Z"/><path class="cls-40" d="M1095.15,227.44h0c20.65.67,37.42-19,37.56-44l.65-116.36L1075.45,64A17.52,17.52,0,0,0,1057,81.49l.31,99.07C1057.39,205.84,1074.38,226.77,1095.15,227.44Z"/><path class="cls-41" d="M1621.83,84.73S1456,133.07,1337.65,140.16C1337.65,140.16,1463.4,156.27,1621.83,84.73Z"/><path class="cls-42" d="M1067.05,78.52s101.52,49.65,241.56,55.85C1314.58,139.5,1189.3,124.56,1067.05,78.52Z"/><path class="cls-43" d="M1668.23,895.4l39.25-378.78-609.93-29.49a6.32,6.32,0,0,0-6.61,6.58l11.72,266A15.76,15.76,0,0,0,1115,774.44Z"/><path class="cls-44" d="M1091.61,508.84l-.62-14a7.56,7.56,0,0,1,7.65-7.88L1767,507.3c4.59.06-23.49,26-24.18,30.51v17.12l-643.95-38.87A7.55,7.55,0,0,1,1091.61,508.84Z"/><path class="cls-45" d="M1091.92,515.8l10.56,239.85A21.07,21.07,0,0,0,1119,775.31l25.74,5.63-13.15-265.06Z"/><g class="cls-46"><polygon class="cls-47" points="1551.14 621.86 1556.37 689.65 1191.77 661.01 1187.65 582.93 1551.14 621.86"/><polygon class="cls-47" points="1641.89 778.32 1650.54 707.7 1313.21 666.4 1312.18 674.89 1632.34 717.98 1162.99 677.65 1160.96 702.29 1641.89 778.32"/></g><polygon class="cls-48" points="1130.47 515.35 1131.82 542.59 1742.82 582.93 1750.73 554.93 1130.47 515.35"/><polygon class="cls-49" points="1228.21 517.07 1218.6 497.52 1213.69 497.54 1223.83 517.07 1228.21 517.07"/><path class="cls-29" d="M1220.85,658.73c-2.38,30.79,75,61.87,172.69,69.47,97.5,7.59,178.73-11.06,181.59-41.71s-74.1-62-172.08-69.71C1304.88,609,1223.23,627.85,1220.85,658.73Z"/><path class="cls-50" d="M1221.05,656.21c-2.38,30.8,75,61.88,172.71,69.49,97.51,7.59,178.74-11.06,181.61-41.72s-74.11-62-172.11-69.73C1305.09,606.51,1223.43,625.32,1221.05,656.21Z"/><path class="cls-51" d="M1221.05,656.21c-2.38,30.8,75,61.88,172.71,69.49,97.51,7.59,178.74-11.06,181.61-41.72s-74.11-62-172.11-69.73C1305.09,606.51,1223.43,625.32,1221.05,656.21Z"/><path class="cls-52" d="M1392.37,719.36l.11-1.33,4.53.35,4.47.31-.09,1.33-4.48-.31Zm-18-1.77.17-1.32q4.44.51,9,1l-.14,1.33C1380.33,718.26,1377.34,717.94,1374.36,717.59Zm36.13,1.61c3,.15,6,.27,9,.36l0,1.33q-4.48-.14-9-.36Zm-54.06-4,.22-1.31c2.95.44,5.92.86,8.93,1.25l-.2,1.32C1362.37,716.09,1359.38,715.66,1356.43,715.22Zm72.08,4.54c3,0,6,.06,9,0l0,1.34c-3,0-6,0-9,0Zm-89.91-7.55.29-1.31c2.91.55,5.87,1.08,8.86,1.59l-.25,1.31C1344.49,713.29,1341.53,712.76,1338.6,712.21Zm107.93,7.48q4.56-.11,9-.29l.1,1.33q-4.45.19-9,.3Zm-125.61-11.2.36-1.29q4.32,1,8.78,1.94l-.32,1.3C1326.75,709.82,1323.81,709.16,1320.92,708.49Zm143.6,10.43c3-.19,6-.42,9-.67l.17,1.33q-4.43.39-9,.67Zm-161-14.94.44-1.27c2.8.8,5.71,1.59,8.65,2.35l-.39,1.29C1309.21,705.58,1306.28,704.79,1303.47,704Zm179,13.39c3-.34,6-.71,8.9-1.11l.25,1.32c-2.92.4-5.92.78-8.94,1.11Zm-196.09-18.84.53-1.23c2.71,1,5.56,1.91,8.48,2.83l-.49,1.26C1291.92,700.46,1289.05,699.5,1286.33,698.53Zm213.82,16.36c3-.52,6-1.08,8.77-1.66l.37,1.3c-2.83.59-5.8,1.15-8.82,1.67Zm-230.45-23,.66-1.18c2.58,1.17,5.32,2.33,8.17,3.47l-.6,1.21C1275.06,694.24,1272.29,693.06,1269.7,691.88Zm247.89,19.35c3-.75,5.83-1.56,8.52-2.39l.52,1.26c-2.71.84-5.61,1.65-8.6,2.41ZM1254,683.55l.86-1.09c2.33,1.48,4.88,2.95,7.58,4.37l-.75,1.14C1259,686.53,1256.37,685,1254,683.55ZM1534.42,706c2.86-1.12,5.53-2.29,7.95-3.51l.76,1.16c-2.46,1.24-5.18,2.44-8.09,3.57Zm-293.89-33.48,1.18-.8a48.36,48.36,0,0,0,6.11,5.8l-1,1A48.61,48.61,0,0,1,1240.53,672.48Zm309.2,25.64a34.57,34.57,0,0,0,6.22-5.44l1.19.84a36.64,36.64,0,0,1-6.47,5.65Zm-315.3-40.86a16.75,16.75,0,0,1,2.21-7l1.35.62a15.45,15.45,0,0,0-2.06,6.5,15.83,15.83,0,0,0,1.38,7.53l-1.41.46A17.07,17.07,0,0,1,1234.43,657.26Zm325.5,28.68a15.54,15.54,0,0,0,.64-3.13l0-.28a15.12,15.12,0,0,0-.29-4.17l1.47-.22a16,16,0,0,1,.32,4.5l0,.31a15.79,15.79,0,0,1-.7,3.37Zm-8.35-21,1.08-.92a38.81,38.81,0,0,1,5.69,6.46l-1.28.68A37,37,0,0,0,1551.58,665Zm-309.5-21.21a46.75,46.75,0,0,1,7-5.06l.86,1.11a44.67,44.67,0,0,0-6.83,4.91ZM1537.52,655l.79-1.12c2.71,1.53,5.23,3.11,7.49,4.69l-.91,1C1542.66,658.09,1540.18,656.53,1537.52,655ZM1257,634.67c2.55-1.13,5.32-2.22,8.25-3.25l.58,1.24c-2.89,1-5.63,2.09-8.14,3.21Zm264.71,12.63.63-1.2c2.83,1.19,5.57,2.43,8.14,3.67l-.7,1.17C1527.18,649.71,1524.47,648.49,1521.66,647.3Zm-248-18.56c2.75-.78,5.66-1.53,8.66-2.23l.41,1.29c-3,.69-5.87,1.44-8.59,2.21ZM1505,641.07l.51-1.25c2.92,1,5.77,2,8.47,3l-.56,1.22C1510.72,643,1507.89,642,1505,641.07Zm-213.82-16.41c2.85-.54,5.83-1.06,8.85-1.53l.29,1.31c-3,.47-6,1-8.8,1.53Zm196.67,11.27.41-1.27c3,.79,5.87,1.62,8.67,2.46l-.46,1.26C1493.67,637.55,1490.77,636.72,1487.83,635.93Zm-178.9-14.06c2.92-.37,5.93-.71,9-1l.19,1.32c-3,.3-6,.64-8.91,1Zm161.45,9.81.33-1.3q4.49,1,8.79,2l-.37,1.28C1476.27,633,1473.35,632.33,1470.38,631.68Zm-143.5-11.61c2.95-.23,6-.42,9-.59l.12,1.34c-3,.16-6,.36-9,.58Zm125.84,8.11.27-1.31q4.5.79,8.88,1.67l-.3,1.3Q1457.21,629,1452.72,628.18Zm-107.81-9.09q4.47-.15,9-.21l0,1.33c-3,0-6,.11-9,.21Zm90,6.27.21-1.32c3,.42,6,.87,8.95,1.33l-.24,1.32Q1439.43,626,1434.92,625.36ZM1363,618.83q4.48,0,9,.12v1.34c-3-.07-6-.11-9-.12Zm54,4.34.15-1.33c3,.32,6,.66,9,1l-.18,1.32C1423,623.82,1420,623.48,1417,623.17Zm-35.94-3.94q4.49.18,9,.43l-.07,1.33c-3-.17-6-.31-9-.43Zm21.54,2.61-3.13-.24-.43,0,.09-1.33.44,0,3.14.24c1.82.14,3.63.3,5.44.46l-.12,1.32C1406.25,622.13,1404.43,622,1402.62,621.84Z"/><text class="cls-53" transform="translate(1309.23 688.36) rotate(4.49)">JUICE</text><path class="cls-54" d="M1283.26,267.89c-1,0-1.65,0-1.88-.05l-1.78-.13,1.12-1.39c.56-.7,5.63-6.78,9.08-6.29a3.11,3.11,0,0,1,2.46,2.1,3.21,3.21,0,0,1-.22,3.28C1290.5,267.56,1285.92,267.89,1283.26,267.89Zm6.09-6c-1.47,0-4,2.09-5.9,4.16,2.79,0,6.17-.45,7.07-1.71a1.37,1.37,0,0,0,0-1.47c-.33-.79-.72-.93-1-1Z"/><path class="cls-54" d="M1282.35,267.5l-.61-1.68c-.3-.84-2.9-8.28-.65-11a3.1,3.1,0,0,1,3.08-1,3.17,3.17,0,0,1,2.68,1.89c1.41,3.3-3,9.65-3.47,10.36Zm1.12-11.9a1.08,1.08,0,0,0-.93.38c-.92,1.12-.43,4.52.37,7.36,1.44-2.4,2.83-5.51,2.22-6.93-.11-.27-.37-.64-1.24-.77A2.27,2.27,0,0,0,1283.47,255.6Z"/><rect class="cls-54" x="1276.95" y="205.09" width="1.87" height="63.34"/><path class="cls-55" d="M1241.72,329.93l.5.26c11.07,5.41,24.31-.45,30.24-4.07s15.26-16.83,17.58-29-4.46-19.75-7.64-21.22c-2.86-1.33-4.34-5-4.61-5.71a.58.58,0,0,1,0-.13l.26-1.84-1.32-5.84-4.8,0-2.82,2.4a67.35,67.35,0,0,1,3.82,7.44c.19.46.38.91.53,1.35a5.32,5.32,0,0,1,.26,3.32c-.46,1.72-1.81,3.08-2.75,5.54-1.63,4.24,2.61,11.08-2.63,22.24s-27.12,19.94-27.12,19.94l.34,3.27Z"/><path class="cls-56" d="M1241.51,327.91c4.2-.83,23.37-5.47,32.71-22.15,6.26-11.17,4.85-19.3,2.61-24.11a3.06,3.06,0,0,0-5.56,0c-.12.26-.24.54-.35.84-1.63,4.24,2.61,11.08-2.63,22.24s-27.12,19.94-27.12,19.94Z"/><path class="cls-57" d="M1272.88,272.25l2.79-3.17,2.12,1.12a.58.58,0,0,1,0-.13l.26-1.84-1.32-5.84-4.8,0-2.82,2.4A67.35,67.35,0,0,1,1272.88,272.25Z"/><path class="cls-57" d="M1241.72,329.93l.5.26,2.32-3.09-3.37-2.46Z"/><path class="cls-55" d="M1262.14,333.44l.56.11c12.12,2.19,23.26-7.07,28-12.17s10.08-20.36,9-32.69-9.69-17.78-13.15-18.33c-3.11-.5-5.54-3.6-6-4.23l-.09-.11-.25-1.85-2.86-5.25-4.61,1.33-2.06,3.07a69.74,69.74,0,0,1,5.7,6.12c.31.39.61.78.88,1.16a5.38,5.38,0,0,1,1.16,3.12c0,1.77-.91,3.46-1.14,6.08-.41,4.52,5.55,9.95,3.55,22.11s-20.65,26.58-20.65,26.58l1.23,3.06Z"/><path class="cls-56" d="M1261.4,331.55c3.81-1.95,21-11.64,25.41-30.24,3-12.45-.6-19.89-4.07-23.91a3.06,3.06,0,0,0-5.36,1.49c0,.29-.08.59-.11.91-.41,4.52,5.55,9.95,3.55,22.11s-20.65,26.58-20.65,26.58Z"/><path class="cls-57" d="M1276.37,269.44l1.82-3.81,2.35.5-.09-.11-.25-1.85-2.86-5.25-4.61,1.33-2.06,3.07A69.74,69.74,0,0,1,1276.37,269.44Z"/><path class="cls-57" d="M1262.14,333.44l.56.11,1.39-3.6-3.92-1.46Z"/><path class="cls-55" d="M1278.8,335.59h.56c12.32-.41,21.27-11.8,24.8-17.77s5.59-22,1.93-33.85-13.2-15.35-16.7-15.17c-3.15.18-6.17-2.35-6.75-2.87l-.1-.09-.64-1.75-3.9-4.54-4.23,2.27-1.37,3.44a67.06,67.06,0,0,1,6.86,4.78c.39.32.77.63,1.11,1a5.28,5.28,0,0,1,1.78,2.8c.4,1.74-.15,3.58.17,6.19.55,4.5,7.51,8.56,8.11,20.87s-14.6,30.33-14.6,30.33l1.84,2.73Z"/><path class="cls-56" d="M1277.67,333.9c3.32-2.7,18.07-15.79,18.5-34.91.29-12.79-4.78-19.32-9-22.51a3.06,3.06,0,0,0-4.92,2.58c0,.29,0,.59.08.91.55,4.5,7.51,8.56,8.11,20.87s-14.6,30.33-14.6,30.33Z"/><path class="cls-57" d="M1279.26,270l1-4.11h2.4l-.1-.09-.64-1.75-3.9-4.54-4.23,2.27-1.37,3.44A67.06,67.06,0,0,1,1279.26,270Z"/><path class="cls-57" d="M1278.8,335.59h.56l.61-3.81-4.14-.6Z"/><path class="cls-54" d="M1454,280.86c-.94,0-1.64,0-1.87-.06l-1.79-.12,1.12-1.4c.56-.69,5.63-6.77,9.08-6.29a3.11,3.11,0,0,1,2.46,2.11,3.21,3.21,0,0,1-.21,3.27C1461.2,280.53,1456.62,280.86,1454,280.86Zm6.09-6c-1.47,0-4,2.1-5.9,4.16,2.8,0,6.18-.45,7.08-1.71.17-.23.35-.64,0-1.46s-.73-.94-1-1Z"/><path class="cls-54" d="M1453.05,280.46l-.61-1.68c-.3-.84-2.9-8.27-.65-11a3.11,3.11,0,0,1,3.08-1,3.22,3.22,0,0,1,2.69,1.89c1.41,3.31-3,9.65-3.47,10.36Zm1.12-11.89a1.08,1.08,0,0,0-.93.37c-.92,1.12-.42,4.52.37,7.36,1.44-2.39,2.83-5.51,2.23-6.93-.12-.27-.37-.64-1.25-.77Z"/><rect class="cls-54" x="1447.65" y="218.05" width="1.87" height="63.34"/><path class="cls-55" d="M1412.42,342.9l.5.25c11.07,5.42,24.32-.45,30.24-4.06s15.26-16.83,17.59-29-4.47-19.75-7.65-21.23c-2.85-1.32-4.34-5-4.61-5.7a1.11,1.11,0,0,0,0-.13l.26-1.85-1.32-5.84-4.79,0-2.82,2.4a70.47,70.47,0,0,1,3.82,7.44c.19.46.37.92.53,1.36a5.35,5.35,0,0,1,.25,3.31c-.46,1.72-1.81,3.09-2.75,5.54-1.63,4.24,2.62,11.09-2.62,22.24s-27.12,19.94-27.12,19.94l.34,3.28Z"/><path class="cls-56" d="M1412.22,340.88c4.2-.83,23.36-5.48,32.7-22.16,6.26-11.16,4.85-19.3,2.62-24.11a3.07,3.07,0,0,0-5.57,0c-.12.27-.24.55-.35.84-1.63,4.24,2.62,11.09-2.62,22.24s-27.12,19.94-27.12,19.94Z"/><path class="cls-57" d="M1443.59,285.21l2.78-3.17,2.12,1.13a1.11,1.11,0,0,0,0-.13l.26-1.85-1.32-5.84-4.79,0-2.82,2.4A70.47,70.47,0,0,1,1443.59,285.21Z"/><path class="cls-57" d="M1412.42,342.9l.5.25,2.33-3.08-3.37-2.47Z"/><path class="cls-55" d="M1432.85,346.4l.55.11c12.13,2.19,23.27-7.07,28-12.16s10.09-20.36,9-32.69-9.69-17.79-13.15-18.34c-3.11-.49-5.53-3.59-6-4.22l-.08-.11-.26-1.85-2.86-5.26-4.61,1.33-2.06,3.08a68.23,68.23,0,0,1,5.71,6.11c.31.39.61.78.88,1.16a5.31,5.31,0,0,1,1.15,3.12c0,1.78-.9,3.46-1.14,6.08-.4,4.52,5.55,9.95,3.55,22.11s-20.64,26.59-20.64,26.59l1.22,3.06Z"/><path class="cls-56" d="M1432.1,344.52c3.82-1.95,21-11.65,25.42-30.25,3-12.45-.61-19.89-4.08-23.9a3.05,3.05,0,0,0-5.35,1.49q-.08.43-.12.9c-.4,4.52,5.55,9.95,3.55,22.11s-20.64,26.59-20.64,26.59Z"/><path class="cls-57" d="M1447.08,282.4l1.82-3.81,2.34.51-.08-.11-.26-1.85-2.86-5.26-4.61,1.33-2.06,3.08A68.23,68.23,0,0,1,1447.08,282.4Z"/><path class="cls-57" d="M1432.85,346.4l.55.11,1.39-3.6-3.91-1.45Z"/><path class="cls-55" d="M1449.5,348.56l.57,0c12.31-.4,21.26-11.8,24.8-17.77s5.58-22,1.93-33.85-13.21-15.35-16.71-15.16c-3.14.17-6.17-2.35-6.75-2.87l-.1-.09-.64-1.76-3.9-4.54-4.23,2.27-1.36,3.44A70.23,70.23,0,0,1,1450,283c.39.32.76.64,1.1.95a5.34,5.34,0,0,1,1.78,2.81c.41,1.73-.15,3.57.17,6.18.55,4.51,7.52,8.57,8.12,20.88s-14.6,30.32-14.6,30.32l1.84,2.74Z"/><path class="cls-56" d="M1448.38,346.87c3.32-2.71,18.06-15.8,18.49-34.91.29-12.8-4.77-19.32-9-22.52a3.06,3.06,0,0,0-4.93,2.58c0,.3,0,.6.08.91.55,4.51,7.52,8.57,8.12,20.88s-14.6,30.32-14.6,30.32Z"/><path class="cls-57" d="M1450,283l1-4.1h2.39l-.1-.09-.64-1.76-3.9-4.54-4.23,2.27-1.36,3.44A70.23,70.23,0,0,1,1450,283Z"/><path class="cls-57" d="M1449.5,348.56l.57,0,.6-3.81-4.13-.6Z"/><polygon class="cls-58" points="1577.67 460.88 1577.56 462.01 1577.08 466.99 1573.19 508.98 1548.23 508.22 1539.83 507.98 1533 507.77 1529.62 465.09 1529.24 460.08 1529.17 459.31 1535.28 459.18 1577.67 460.88"/><polygon class="cls-59" points="1573.1 460.7 1571.7 477.3 1569.23 506.18 1536.63 505.25 1534.63 473.2 1533.77 459.46 1538.71 459.32 1573.1 460.7"/><path class="cls-60" d="M1571.7,477.3l-2.47,28.88-32.6-.94-2-32c2.47-.33,4,1.85,7,2.06a5.38,5.38,0,0,0,4.16-2,40,40,0,0,1,3.21-3.55,8,8,0,0,1,9.85,0c2.38,1.94,3.65,5.3,6.56,6.31,1.9.66,4.1.13,5.88,1.06A1.21,1.21,0,0,1,1571.7,477.3Z"/><path class="cls-58" d="M1530.81,457.07s3.54-21.33,24.21-20.5,22.66,24.29,22.66,24.29Z"/><path class="cls-59" d="M1534.48,457s3-17.84,20.24-17.14,18.94,20.31,18.94,20.31Z"/><polygon class="cls-61" points="1577.56 462.01 1577.08 466.99 1529.62 465.09 1529.24 460.08 1577.56 462.01"/><path class="cls-58" d="M1559.51,432.92a4.85,4.85,0,1,1-4.65-5.05A4.84,4.84,0,0,1,1559.51,432.92Z"/><circle class="cls-62" cx="1553.67" cy="431.92" r="2.94"/><polygon class="cls-62" points="1551.5 460.97 1548.23 508.22 1539.83 507.98 1536.97 459.25 1536.95 458.97 1539.79 459.36 1551.5 460.97"/><rect class="cls-58" x="1524.95" y="457.98" width="57.08" height="4.98" transform="translate(19.66 -61.76) rotate(2.29)"/><rect class="cls-63" x="1532.11" y="457.57" width="22.35" height="4.98" transform="matrix(1, 0.04, -0.04, 1, 19.63, -61.35)"/><path class="cls-63" d="M1550.49,438.05a20.21,20.21,0,0,0-14.2,16.3l17.85,1.1S1556,438.14,1550.49,438.05Z"/><path class="cls-58" d="M1505.46,423.23c9.55.34,18.08,8.89,18.4,18.44.22,6.53-3,12.8-7.37,17.61s-10,8.35-15.58,11.75c-.88-1.78-1.76-3.57-2.63-5.35,5.83-1.75,9.44-7.58,11.54-13.29,2-5.49,2.9-12.38-1.18-16.59a9.11,9.11,0,0,0-15.65,6.53c.09,4.61.52,12-6.27,7.33-3.43-2.38-3.4-5.85-2.37-9.46C1486.9,431.23,1495.89,422.89,1505.46,423.23Z"/><path class="cls-59" d="M1508,462.54a32.37,32.37,0,0,0,4.89-9c1.8-4.87,3.94-13.94-1.89-20a12.58,12.58,0,0,0-8.46-3.7,12.26,12.26,0,0,0-5.15.9,12.6,12.6,0,0,0-7.59,11.64v.54a29.39,29.39,0,0,1-.15,4.73,10.65,10.65,0,0,1-1.06-.65c-1.18-.82-2.24-2-1.11-5.93,2.08-7.3,9.76-14.92,17.89-14.63,7.91.32,15,7.48,15.3,15.33.23,6.89-4,12.55-6.53,15.32A43.27,43.27,0,0,1,1508,462.54Z"/><path class="cls-58" d="M1489.49,432.28l3.08-18.58L1450.64,412l1.58,18.77a16.88,16.88,0,0,1-6.44,14.6c-12.79,10.17-15.58,20.74-15.58,20.74-2.06,18.8,15.56,31.57,22.46,35.81a11.39,11.39,0,0,0,5.48,1.65l19.63.79a11.32,11.32,0,0,0,5.6-1.21c7.22-3.68,25.8-15,25.25-33.9,0,0-1.94-10.76-13.87-21.92A16.87,16.87,0,0,1,1489.49,432.28Z"/><path class="cls-59" d="M1481.91,500.3a8.19,8.19,0,0,1-4,.85l-19.62-.78a8.21,8.21,0,0,1-3.93-1.18c-6.88-4.23-22.6-15.8-21-32.43.46-1.41,3.66-10.28,14.42-18.84a20.56,20.56,0,0,0,4.94-5.65,19.81,19.81,0,0,0,2.7-11.75l-1.27-15.12,34.63,1.38-2.49,15a19.7,19.7,0,0,0,1.79,11.93,20.15,20.15,0,0,0,4.46,6c10,9.36,12.5,18.46,12.85,20C1505.7,486.35,1489.08,496.63,1481.91,500.3Z"/><path class="cls-64" d="M1481.91,500.3a8.19,8.19,0,0,1-4,.85l-19.62-.78a8.21,8.21,0,0,1-3.93-1.18c-3.91-2.4-10.65-7.16-15.45-13.88-3.68-5.1-6.24-11.36-5.53-18.55.46-1.41,3.66-10.28,14.42-18.84a20.56,20.56,0,0,0,4.94-5.65l35.36,1.41a20.15,20.15,0,0,0,4.46,6c10,9.36,12.5,18.46,12.85,20C1505.7,486.35,1489.08,496.63,1481.91,500.3Z"/><path class="cls-65" d="M1441,464.57c-.26,2.82.33,6.06,2.68,7.62,2,1.32,4.62,1.05,6.88.34a20.74,20.74,0,0,0,13.71-14.91c1.7-7.54-3.71-13.19-10.77-9.54C1447,451.42,1441.66,457,1441,464.57Z"/><path class="cls-66" d="M1481.91,500.3a8.19,8.19,0,0,1-4,.85l-19.62-.78a8.21,8.21,0,0,1-3.93-1.18c-3.91-2.4-10.65-7.16-15.45-13.88a30.16,30.16,0,0,1,8.75-2.68c6.95-1.08,14.29-.81,20.68-3.77,7.83-3.64,12.87-11.76,15-20.15.82-3.3.31-10.06,1.19-15.17l3.62.14a20.15,20.15,0,0,0,4.46,6c10,9.36,12.5,18.46,12.85,20C1505.7,486.35,1489.08,496.63,1481.91,500.3Z"/><path class="cls-67" d="M1460.76,449.28c-.07,1.61-2.11,2.84-4.56,2.75s-4.38-1.49-4.31-3.11,2.1-2.84,4.55-2.74S1460.82,447.67,1460.76,449.28Z"/><circle class="cls-68" cx="1352.28" cy="427.25" r="14.32"/><circle class="cls-69" cx="1352.28" cy="427.25" r="11.68"/><rect class="cls-70" x="1315.17" y="425.06" width="37.27" height="69.36" rx="0.33" transform="translate(19.45 -52.98) rotate(2.29)"/><rect class="cls-68" x="1307.72" y="449.98" width="51.59" height="34.31" rx="0.03" transform="matrix(-0.04, 1, -1, -0.04, 1853.61, -846.63)"/><rect class="cls-71" x="1321.02" y="424.74" width="9.71" height="69.36" transform="translate(19.43 -52.66) rotate(2.29)"/><rect class="cls-70" x="1373.53" y="424.5" width="38.65" height="71.93" rx="0.21" transform="translate(19.53 -55.34) rotate(2.29)"/><rect class="cls-64" x="1365.8" y="450.35" width="53.5" height="35.58" rx="0.03" transform="translate(1916 -904.58) rotate(92.29)"/><rect class="cls-71" x="1379.6" y="424.17" width="10.07" height="71.93" transform="translate(19.51 -55.01) rotate(2.29)"/><polygon class="cls-71" points="1391.79 485.91 1388.67 485.01 1406.07 425 1409.4 425.13 1391.79 485.91"/><polygon class="cls-72" points="1409.4 425.13 1406.07 425 1412.48 402.91 1415.59 403.81 1409.4 425.13"/><rect class="cls-72" x="1418.02" y="400.36" width="3.24" height="12.63" transform="matrix(-0.28, 0.96, -0.96, -0.28, 2205.75, -843.46)"/><polygon class="cls-73" points="1596.49 524.79 1141.1 500.13 1141.41 490.01 1597.14 504.21 1596.49 524.79"/></g></g></g></g></g></svg>