<svg xmlns="http://www.w3.org/2000/svg" xmlns:xlink="http://www.w3.org/1999/xlink" viewBox="0 0 590 900"><defs><style>.cls-1{fill:none;}.cls-2{isolation:isolate;}.cls-3{clip-path:url(#clip-path);}.cls-28,.cls-4,.cls-42,.cls-43,.cls-47{opacity:0.2;}.cls-5{fill:url(#linear-gradient);}.cls-11,.cls-13,.cls-15,.cls-17,.cls-6,.cls-9{opacity:0.35;}.cls-11,.cls-13,.cls-15,.cls-17,.cls-22,.cls-6,.cls-63,.cls-64,.cls-7,.cls-9{mix-blend-mode:screen;}.cls-6{fill:url(#linear-gradient-2);}.cls-7{fill:#f06374;}.cls-26,.cls-63,.cls-67,.cls-7{opacity:0.5;}.cls-8{fill:url(#linear-gradient-3);}.cls-9{fill:url(#linear-gradient-4);}.cls-10{fill:url(#linear-gradient-5);}.cls-11{fill:url(#linear-gradient-6);}.cls-12{fill:url(#linear-gradient-7);}.cls-13{fill:url(#linear-gradient-8);}.cls-14{fill:url(#linear-gradient-9);}.cls-15{fill:url(#linear-gradient-10);}.cls-16{fill:url(#linear-gradient-11);}.cls-17{fill:url(#linear-gradient-12);}.cls-18{fill:url(#linear-gradient-13);}.cls-19{fill:url(#linear-gradient-14);}.cls-20{fill:#8d638d;}.cls-20,.cls-28,.cls-29,.cls-42,.cls-43,.cls-47,.cls-62,.cls-67{mix-blend-mode:multiply;}.cls-21{fill:url(#linear-gradient-15);}.cls-22{fill:#f2785e;opacity:0.25;}.cls-23,.cls-24,.cls-25,.cls-27,.cls-28,.cls-29,.cls-30,.cls-31,.cls-32,.cls-33,.cls-34,.cls-35,.cls-36,.cls-37,.cls-38,.cls-39,.cls-40,.cls-41,.cls-42,.cls-43,.cls-44,.cls-45,.cls-46,.cls-48,.cls-49,.cls-50,.cls-51,.cls-52{fill-rule:evenodd;}.cls-23{fill:url(#Áåçûìÿííûé_ãðàäèåíò_240);}.cls-24{fill:#b53f38;}.cls-25{fill:#7a1542;}.cls-27{fill:#f05b56;}.cls-28{fill:url(#Áåçûìÿííûé_ãðàäèåíò_263);}.cls-29{fill:#b71f2b;opacity:0.31;}.cls-30{fill:url(#Áåçûìÿííûé_ãðàäèåíò_237);}.cls-31{fill:#e05c4f;}.cls-32{fill:#f27257;}.cls-33{fill:#fbf7c4;}.cls-33,.cls-50,.cls-72{mix-blend-mode:soft-light;}.cls-34{fill:#6b1143;opacity:0.51;}.cls-35{fill:url(#Áåçûìÿííûé_ãðàäèåíò_66);}.cls-36{fill:url(#Áåçûìÿííûé_ãðàäèåíò_237-2);}.cls-37{fill:url(#Áåçûìÿííûé_ãðàäèåíò_66-2);}.cls-38{fill:url(#Áåçûìÿííûé_ãðàäèåíò_237-3);}.cls-39{fill:url(#Áåçûìÿííûé_ãðàäèåíò_66-3);}.cls-40{fill:url(#Áåçûìÿííûé_ãðàäèåíò_237-4);}.cls-41{fill:url(#Áåçûìÿííûé_ãðàäèåíò_66-4);}.cls-42{fill:url(#Áåçûìÿííûé_ãðàäèåíò_241);}.cls-43{fill:url(#Áåçûìÿííûé_ãðàäèåíò_263-2);}.cls-44{fill:url(#Áåçûìÿííûé_ãðàäèåíò_185);}.cls-45{fill:#a83c24;}.cls-46{fill:#9d3122;}.cls-48{fill:#a8579e;}.cls-49{fill:#6f2112;}.cls-50{fill:#fabb9b;}.cls-51{fill:#8ea1d2;}.cls-52{fill:#aea4d0;}.cls-53{fill:#6b4075;}.cls-54{font-size:72.28px;font-family:MyriadPro-Regular, Myriad Pro;}.cls-54,.cls-63,.cls-64,.cls-68,.cls-72{fill:#fff;}.cls-55{fill:#7c6453;}.cls-56{fill:#f6c21d;}.cls-57{fill:#ffe52c;}.cls-58{fill:#ae4a25;}.cls-59{fill:#9dd3dc;}.cls-60{fill:#b6e2ed;}.cls-61{fill:#faed36;}.cls-62{fill:#bfafc0;}.cls-64{opacity:0.85;}.cls-65{fill:#ee3f5d;}.cls-66{fill:#f2809a;}.cls-67{fill:#ccaf80;}.cls-69{fill:#ffcd1f;}.cls-70{fill:#fde131;}.cls-71{fill:#c9e7e7;opacity:0.8;}.cls-73{fill:#fbf9d9;}.cls-74{fill:#7f1b17;}</style><clipPath id="clip-path"><rect class="cls-1" x="14.49" y="13.71" width="561.02" height="872.57"/></clipPath><linearGradient id="linear-gradient" x1="131.99" y1="430.55" x2="155.62" y2="430.55" gradientTransform="matrix(1, 0.04, -0.04, 1, 18.08, 11.02)" gradientUnits="userSpaceOnUse"><stop offset="0.03" stop-color="#ee3824"/><stop offset="0.99" stop-color="#c72026"/></linearGradient><linearGradient id="linear-gradient-2" x1="140.96" y1="436.96" x2="140.96" y2="423.71" gradientTransform="matrix(1, 0.04, -0.04, 1, 18.08, 11.02)" gradientUnits="userSpaceOnUse"><stop offset="0"/><stop offset="1" stop-color="#fff"/></linearGradient><linearGradient id="linear-gradient-3" x1="121.89" y1="442.55" x2="145.51" y2="442.55" xlink:href="#linear-gradient"/><linearGradient id="linear-gradient-4" x1="130.85" y1="448.96" x2="130.85" y2="435.71" xlink:href="#linear-gradient-2"/><linearGradient id="linear-gradient-5" x1="171.78" y1="439.07" x2="195.41" y2="439.07" xlink:href="#linear-gradient"/><linearGradient id="linear-gradient-6" x1="180.74" y1="445.49" x2="180.74" y2="432.24" xlink:href="#linear-gradient-2"/><linearGradient id="linear-gradient-7" x1="144.62" y1="439.71" x2="168.25" y2="439.71" xlink:href="#linear-gradient"/><linearGradient id="linear-gradient-8" x1="153.59" y1="446.12" x2="153.59" y2="432.87" xlink:href="#linear-gradient-2"/><linearGradient id="linear-gradient-9" x1="216.62" y1="439.07" x2="240.24" y2="439.07" xlink:href="#linear-gradient"/><linearGradient id="linear-gradient-10" x1="225.58" y1="445.49" x2="225.58" y2="432.24" xlink:href="#linear-gradient-2"/><linearGradient id="linear-gradient-11" x1="191.86" y1="438.79" x2="215.48" y2="438.79" xlink:href="#linear-gradient"/><linearGradient id="linear-gradient-12" x1="200.82" y1="445.2" x2="200.82" y2="431.95" xlink:href="#linear-gradient-2"/><linearGradient id="linear-gradient-13" x1="117.12" y1="477.32" x2="117.12" y2="434.58" gradientTransform="matrix(1, 0.04, -0.04, 1, 18.08, 11.02)" gradientUnits="userSpaceOnUse"><stop offset="0.03" stop-color="#c45627"/><stop offset="1" stop-color="#da7e27"/></linearGradient><linearGradient id="linear-gradient-14" x1="245.37" y1="477.32" x2="245.37" y2="434.58" xlink:href="#linear-gradient-13"/><linearGradient id="linear-gradient-15" x1="180.39" y1="470.59" x2="180.39" y2="441.54" gradientTransform="matrix(1, 0.04, -0.04, 1, 18.08, 11.02)" gradientUnits="userSpaceOnUse"><stop offset="0.03" stop-color="#c45627"/><stop offset="1" stop-color="#fbb315"/></linearGradient><linearGradient id="Áåçûìÿííûé_ãðàäèåíò_240" x1="-1490.49" y1="512.83" x2="-1490.49" y2="20.41" gradientTransform="matrix(-1, 0, 0, 1, -964.77, 0)" gradientUnits="userSpaceOnUse"><stop offset="0" stop-color="#fccba2"/><stop offset="1" stop-color="#f6a4a0"/></linearGradient><linearGradient id="Áåçûìÿííûé_ãðàäèåíò_263" x1="-1526.89" y1="427.95" x2="-1337.59" y2="427.95" gradientTransform="matrix(-1, 0, 0, 1, -964.77, 0)" gradientUnits="userSpaceOnUse"><stop offset="0" stop-color="#fff"/><stop offset="1" stop-color="#9e237a"/></linearGradient><linearGradient id="Áåçûìÿííûé_ãðàäèåíò_237" x1="-1356.46" y1="82.21" x2="-1356.46" y2="20.41" gradientTransform="matrix(-1, 0, 0, 1, -964.77, 0)" gradientUnits="userSpaceOnUse"><stop offset="0" stop-color="#fccba2"/><stop offset="1" stop-color="#ffd8a1"/></linearGradient><linearGradient id="Áåçûìÿííûé_ãðàäèåíò_66" x1="-1475.68" y1="231.37" x2="-1475.68" y2="58.55" gradientTransform="matrix(-1.05, -0.04, -0.04, 1, -983.57, -26.45)" gradientUnits="userSpaceOnUse"><stop offset="0" stop-color="#ee382f"/><stop offset="1" stop-color="#f1622a"/></linearGradient><linearGradient id="Áåçûìÿííûé_ãðàäèåíò_237-2" x1="-1393.16" y1="231.66" x2="-1393.16" y2="57.14" gradientTransform="matrix(-1.05, -0.04, -0.04, 1, -983.57, -26.45)" xlink:href="#Áåçûìÿííûé_ãðàäèåíò_237"/><linearGradient id="Áåçûìÿííûé_ãðàäèåíò_66-2" x1="-1309.26" y1="231.95" x2="-1309.26" y2="55.72" xlink:href="#Áåçûìÿííûé_ãðàäèåíò_66"/><linearGradient id="Áåçûìÿííûé_ãðàäèåíò_237-3" x1="-1223.91" y1="232.24" x2="-1223.91" y2="54.27" gradientTransform="matrix(-1.05, -0.04, -0.04, 1, -983.57, -26.45)" xlink:href="#Áåçûìÿííûé_ãðàäèåíò_237"/><linearGradient id="Áåçûìÿííûé_ãðàäèåíò_66-3" x1="-1169.03" y1="212.69" x2="-1169.03" y2="52.95" gradientTransform="matrix(-1, -0.04, -0.04, 1, -951.49, -25.29)" xlink:href="#Áåçûìÿííûé_ãðàäèåíò_66"/><linearGradient id="Áåçûìÿííûé_ãðàäèåíò_237-4" x1="-1095.83" y1="212.97" x2="-1095.83" y2="51.61" gradientTransform="matrix(-1, -0.04, -0.04, 1, -951.49, -25.29)" xlink:href="#Áåçûìÿííûé_ãðàäèåíò_237"/><linearGradient id="Áåçûìÿííûé_ãðàäèåíò_66-4" x1="-1021.51" y1="213.24" x2="-1021.51" y2="50.57" gradientTransform="matrix(-1, -0.04, -0.04, 1, -951.49, -25.29)" xlink:href="#Áåçûìÿííûé_ãðàäèåíò_66"/><linearGradient id="Áåçûìÿííûé_ãðàäèåíò_241" x1="-1556.81" y1="110.7" x2="-1272.63" y2="110.7" gradientTransform="matrix(-1, 0, 0, 1, -964.77, 0)" gradientUnits="userSpaceOnUse"><stop offset="0" stop-color="#9e237a"/><stop offset="1" stop-color="#fff"/></linearGradient><linearGradient id="Áåçûìÿííûé_ãðàäèåíò_263-2" x1="-1243.79" y1="104.4" x2="-1002.03" y2="104.4" xlink:href="#Áåçûìÿííûé_ãðàäèåíò_263"/><linearGradient id="Áåçûìÿííûé_ãðàäèåíò_185" x1="-1004.71" y1="892.88" x2="-1004.71" y2="484.6" gradientTransform="matrix(-1, 0, 0, 1, -635.3, 0)" gradientUnits="userSpaceOnUse"><stop offset="0" stop-color="#d45d27"/><stop offset="1" stop-color="#bb3926"/></linearGradient></defs><g class="cls-2"><g id="Layer_1" data-name="Layer 1"><g id="j"><g class="cls-3"><path class="cls-4" d="M577.27,908.45,33,786.59c-16.2-1.89-6.74-17.89,16.44-21.69L88,753.7c1.94-1.16-8.81.53-6.6,1l519.5,128.09a8.8,8.8,0,0,1,1.53,16.67L582.7,908A8.87,8.87,0,0,1,577.27,908.45Z"/><path class="cls-5" d="M156.42,445.79c-.23,5.6-5.69,9.92-12.21,9.66s-11.62-5-11.4-10.61,5.56-6.6,12.08-6.34S156.64,440.19,156.42,445.79Z"/><path class="cls-6" d="M135.18,443.12a6.49,6.49,0,0,0,.22,5.62,8.58,8.58,0,0,0,4.22,3.84,7.12,7.12,0,0,0,6.7-.18c2.55-1.66,3.15-5.45,1.68-8.12C145.65,440,137.69,437.74,135.18,443.12Z"/><path class="cls-7" d="M141.08,443.43c0,.71-1.17,1.24-2.55,1.19s-2.48-.68-2.45-1.39,1.17-1.24,2.55-1.19S141.1,442.72,141.08,443.43Z"/><path class="cls-7" d="M144,446.17c0,.43-.71.76-1.55.72s-1.52-.41-1.5-.84.72-.76,1.56-.73S144,445.74,144,446.17Z"/><path class="cls-8" d="M145.84,457.37c-.22,5.6-5.69,9.93-12.21,9.67s-11.62-5-11.4-10.61,5.56-6.6,12.08-6.34S146.07,451.77,145.84,457.37Z"/><path class="cls-9" d="M124.6,454.71a6.49,6.49,0,0,0,.22,5.62,8.67,8.67,0,0,0,4.22,3.84,7.17,7.17,0,0,0,6.71-.18c2.54-1.67,3.15-5.46,1.68-8.12C135.07,451.6,127.11,449.33,124.6,454.71Z"/><path class="cls-7" d="M130.5,455c0,.71-1.17,1.25-2.55,1.19s-2.47-.68-2.45-1.39,1.17-1.24,2.55-1.18S130.53,454.3,130.5,455Z"/><path class="cls-7" d="M133.45,457.75c0,.44-.72.76-1.56.73s-1.51-.41-1.5-.85.72-.76,1.56-.72S133.46,457.32,133.45,457.75Z"/><path class="cls-10" d="M195.83,455.9c-.22,5.6-5.69,9.92-12.21,9.66s-11.62-5-11.4-10.61,5.56-6.6,12.08-6.34S196.06,450.3,195.83,455.9Z"/><path class="cls-11" d="M174.59,453.24a6.47,6.47,0,0,0,.22,5.61,8.63,8.63,0,0,0,4.22,3.84,7.14,7.14,0,0,0,6.71-.18c2.54-1.66,3.15-5.45,1.68-8.12C185.06,450.12,177.1,447.85,174.59,453.24Z"/><path class="cls-7" d="M180.49,453.54c0,.71-1.17,1.24-2.55,1.19s-2.47-.68-2.44-1.39,1.16-1.24,2.54-1.19S180.52,452.83,180.49,453.54Z"/><path class="cls-7" d="M183.44,456.28c0,.43-.72.76-1.56.72s-1.51-.41-1.5-.84.72-.76,1.56-.73S183.46,455.85,183.44,456.28Z"/><path class="cls-12" d="M168.67,455.44c-.22,5.6-5.69,9.93-12.21,9.67s-11.62-5-11.4-10.61,5.56-6.6,12.08-6.34S168.9,449.84,168.67,455.44Z"/><path class="cls-13" d="M147.43,452.78a6.46,6.46,0,0,0,.22,5.61,8.69,8.69,0,0,0,4.22,3.85,7.17,7.17,0,0,0,6.71-.18c2.54-1.67,3.15-5.46,1.68-8.12C157.9,449.67,149.94,447.4,147.43,452.78Z"/><path class="cls-7" d="M153.33,453.08c0,.71-1.17,1.25-2.55,1.19s-2.47-.68-2.44-1.39,1.17-1.24,2.54-1.18S153.36,452.37,153.33,453.08Z"/><path class="cls-7" d="M156.28,455.82c0,.44-.72.76-1.56.73s-1.51-.41-1.5-.85.72-.76,1.56-.72S156.3,455.39,156.28,455.82Z"/><path class="cls-14" d="M240.64,457.69c-.23,5.6-5.69,9.93-12.21,9.67s-11.63-5-11.4-10.62,5.56-6.59,12.07-6.33S240.86,452.09,240.64,457.69Z"/><path class="cls-15" d="M219.4,455a6.5,6.5,0,0,0,.21,5.61,8.62,8.62,0,0,0,4.22,3.84,7.14,7.14,0,0,0,6.71-.17c2.54-1.67,3.15-5.46,1.68-8.12C229.86,451.91,221.9,449.64,219.4,455Z"/><path class="cls-7" d="M225.29,455.33c0,.71-1.17,1.24-2.55,1.19s-2.47-.68-2.44-1.39,1.17-1.24,2.55-1.18S225.32,454.62,225.29,455.33Z"/><path class="cls-7" d="M228.24,458.07c0,.44-.71.76-1.56.73s-1.51-.42-1.49-.85.71-.76,1.56-.72S228.26,457.64,228.24,458.07Z"/><path class="cls-16" d="M215.9,456.41c-.22,5.6-5.69,9.93-12.21,9.67s-11.62-5-11.39-10.61,5.55-6.6,12.07-6.34S216.13,450.81,215.9,456.41Z"/><path class="cls-17" d="M194.67,453.75a6.52,6.52,0,0,0,.21,5.62,8.72,8.72,0,0,0,4.22,3.84,7.17,7.17,0,0,0,6.71-.18c2.54-1.67,3.15-5.46,1.68-8.12C205.13,450.64,197.17,448.37,194.67,453.75Z"/><path class="cls-7" d="M200.56,454.05c0,.71-1.17,1.25-2.55,1.19s-2.47-.68-2.44-1.39,1.17-1.24,2.55-1.18S200.59,453.34,200.56,454.05Z"/><path class="cls-7" d="M203.51,456.79c0,.44-.72.76-1.56.73s-1.51-.41-1.49-.85.71-.76,1.55-.72S203.53,456.36,203.51,456.79Z"/><polygon class="cls-18" points="122.74 492.92 117.06 492.69 116.57 489.18 115.74 483.36 111 449.67 118.57 449.97 121.82 483.6 122.4 489.41 122.74 492.92"/><polygon class="cls-19" points="252.6 455.34 245.18 488.54 243.89 494.28 243.12 497.73 237.44 497.51 238.06 494.04 239.09 488.3 245.03 455.03 252.6 455.34"/><polygon class="cls-20" points="122.4 489.41 116.57 489.18 115.74 483.36 121.82 483.6 122.4 489.41"/><polygon class="cls-20" points="245.18 488.54 243.89 494.28 238.06 494.04 239.09 488.3 245.18 488.54"/><polygon class="cls-21" points="106.72 456.46 111.87 485.74 248.8 491.22 254.6 462.38 106.72 456.46"/><path class="cls-22" d="M114.18,483.3l-5.33-24.86,143.56,5.75s-.9,6.6-1.83,6.24-128.19-2.91-128.19-2.91l1.63,6.7L244.55,479l-.58,6.61Z"/><polygon class="cls-23" points="822.21 142.75 792.26 503.63 347.98 512.83 352.62 137.99 229.23 46.55 750.71 20.41 822.21 142.75"/><polygon class="cls-24" points="347.98 512.83 352.62 137.99 361.97 137.92 353.02 512.84 347.98 512.83"/><polygon class="cls-25" points="361.97 137.92 369.18 140.41 357.63 512.79 353.02 512.84 361.97 137.92"/><g class="cls-26"><polygon class="cls-27" points="585.6 620.77 614.6 621.39 635.34 96.31 602.73 95.55 585.6 620.77"/><polygon class="cls-27" points="516.46 619.3 545.48 619.92 557.61 94.5 524.98 93.74 516.46 619.3"/><polygon class="cls-27" points="447.29 617.82 476.32 618.44 479.83 92.69 447.19 91.93 447.29 617.82"/><polygon class="cls-27" points="378.08 616.34 407.13 616.96 402.02 90.88 369.35 90.12 378.08 616.34"/></g><polygon class="cls-28" points="372.82 299.43 562.12 556.46 503.85 545.08 372.82 299.43"/><polygon class="cls-29" points="804.12 350.64 350.68 268.17 346.74 129.39 817 175.41 804.12 350.64"/><polygon class="cls-24" points="570.79 618.58 588.52 117.49 597.84 117.43 575.79 618.58 570.79 618.58"/><polygon class="cls-25" points="597.84 117.43 604.99 119.92 580.36 618.53 575.79 618.58 597.84 117.43"/><polygon class="cls-24" points="99.53 614.66 76.19 112.09 85.6 112.03 104.57 614.66 99.53 614.66"/><polygon class="cls-25" points="85.6 112.03 92.88 114.51 109.18 614.61 104.57 614.66 85.6 112.03"/><polygon class="cls-30" points="750.71 20.41 592.03 82.21 32.67 72.13 229.23 46.55 750.71 20.41"/><polygon class="cls-31" points="750.71 20.41 822.21 142.75 816.34 220.83 588.48 202.91 593.13 79.74 750.71 20.41"/><polygon class="cls-32" points="525.88 81.01 701.85 22.86 636.82 26.12 457.94 79.79 525.88 81.01"/><polygon class="cls-32" points="389.17 78.55 547.65 30.59 493.16 33.77 319.06 77.29 389.17 78.55"/><polygon class="cls-32" points="247.54 76 379.39 39.02 327.02 42.81 174.6 74.68 247.54 76"/><polygon class="cls-32" points="100.17 73.34 250.61 45.48 229.23 46.55 39.62 72.25 100.17 73.34"/><polygon class="cls-33" points="592.03 82.21 37.26 70.35 153.6 56.57 592.03 82.21"/><polygon class="cls-24" points="750.71 20.41 744.23 10.36 237.72 38.16 237.65 45.4 750.71 20.41"/><polygon class="cls-34" points="90.48 242.3 82.03 238.71 81.2 217.31 89.41 219.65 90.48 242.3"/><polygon class="cls-34" points="593.71 237.84 584.32 236 585.21 201.29 594.61 203.4 593.71 237.84"/><path class="cls-35" d="M551.73,260.67h0c23.32.76,43.35-20,44.85-46.5l7-123.19-86.08-4.49-6,124.42C510.24,237.68,528.29,259.9,551.73,260.67Z"/><path class="cls-36" d="M466.26,257.86h0c23.77.78,44-20.18,45.26-47l6-124.42L429.7,81.9l-4.89,125.69C423.76,234.63,442.37,257.07,466.26,257.86Z"/><path class="cls-37" d="M379.77,255h0c24.22.79,44.61-20.37,45.67-47.4l4.9-125.68-89.5-4.68-3.8,127C336.24,231.54,355.42,254.22,379.77,255Z"/><path class="cls-38" d="M291.61,252.12h0c24.7.81,45.28-20.56,46.1-47.86l3.8-127-91.29-4.77-2.64,128.28C247,228.39,266.78,251.3,291.61,252.12Z"/><path class="cls-39" d="M211.34,229.65h0c19.85.64,36.3-18.6,36.86-43.11l2.56-114-73.4-4-1.62,115.17C175.39,208.51,191.37,229,211.34,229.65Z"/><path class="cls-40" d="M139.07,227.31h0c20.24.65,36.86-18.78,37.21-43.54L177.9,68.61,103,64.54l-.65,116.38C102.23,205.94,118.71,226.65,139.07,227.31Z"/><path class="cls-41" d="M65.35,224.92h0c20.66.67,37.43-19,37.57-44l.65-116.37L45.66,61.43A17.5,17.5,0,0,0,27.21,79L27.52,178C27.6,203.31,44.59,224.24,65.35,224.92Z"/><path class="cls-42" d="M592,82.21s-165.81,48.34-284.18,55.43C307.86,137.64,433.61,153.75,592,82.21Z"/><path class="cls-43" d="M37.26,76s101.52,49.65,241.56,55.85C284.79,137,159.51,122,37.26,76Z"/><path class="cls-44" d="M638.44,892.88,677.68,514.1,67.76,484.61a6.31,6.31,0,0,0-6.61,6.58l11.72,266a15.75,15.75,0,0,0,12.37,14.7Z"/><path class="cls-45" d="M61.82,506.32l-.62-14.05a7.55,7.55,0,0,1,7.65-7.89l668.36,20.39c4.59.06-23.49,26-24.18,30.51v17.13L69.08,513.54A7.55,7.55,0,0,1,61.82,506.32Z"/><path class="cls-46" d="M62.12,513.27,72.69,753.12a21.07,21.07,0,0,0,16.55,19.66L115,778.41,101.83,513.35Z"/><g class="cls-47"><polygon class="cls-48" points="521.35 619.34 526.58 687.13 161.98 658.49 157.86 580.41 521.35 619.34"/><polygon class="cls-48" points="612.1 775.8 620.74 705.17 283.42 663.88 282.38 672.36 602.55 715.45 133.2 675.13 131.17 699.77 612.1 775.8"/></g><polygon class="cls-49" points="100.68 512.83 102.03 540.06 713.03 580.41 720.94 552.41 100.68 512.83"/><polygon class="cls-50" points="198.42 514.55 188.81 495 183.9 495.02 194.04 514.55 198.42 514.55"/><path class="cls-29" d="M191.06,656.2c-2.38,30.8,75,61.87,172.69,69.48,97.5,7.58,178.73-11.06,181.59-41.72s-74.1-62-172.08-69.7C275.09,606.51,193.44,625.32,191.06,656.2Z"/><path class="cls-51" d="M191.25,653.68c-2.37,30.81,75,61.89,172.72,69.49,97.51,7.6,178.74-11,181.6-41.71s-74.1-62-172.1-69.73C275.29,604,193.64,622.8,191.25,653.68Z"/><path class="cls-52" d="M191.25,653.68c-2.37,30.81,75,61.89,172.72,69.49,97.51,7.6,178.74-11,181.6-41.71s-74.1-62-172.1-69.73C275.29,604,193.64,622.8,191.25,653.68Z"/><path class="cls-53" d="M362.58,716.83l.11-1.33,4.52.35c1.5.11,3,.22,4.48.31l-.09,1.33c-1.49-.09-3-.2-4.48-.31Zm-18-1.76.17-1.32c3,.34,5.95.65,9,1l-.14,1.33Q349,715.58,344.57,715.07Zm36.12,1.6c3,.15,6,.27,9,.37l0,1.33c-3-.1-6-.21-9-.36Zm-54.05-4,.22-1.32q4.41.66,8.93,1.26l-.2,1.32C332.58,713.56,329.59,713.14,326.64,712.7Zm72.08,4.54c3,0,6,.06,9,0l0,1.33c-3,0-6,0-9,0Zm-89.91-7.56.29-1.3c2.91.55,5.87,1.08,8.86,1.58l-.25,1.31C314.7,710.77,311.73,710.23,308.81,709.68Zm107.93,7.49q4.56-.1,9-.3l.1,1.34c-3,.12-6,.22-9,.29ZM291.13,706l.36-1.29c2.88.67,5.81,1.31,8.78,1.94l-.32,1.3Q295.46,707,291.13,706ZM434.72,716.4c3-.19,6-.42,9-.67l.17,1.33q-4.42.38-9,.67Zm-161-14.94.44-1.27c2.79.8,5.71,1.59,8.65,2.35l-.39,1.28C279.42,703.06,276.49,702.26,273.68,701.46Zm179,13.38c3-.33,6-.7,8.9-1.11l.25,1.32c-2.92.41-5.92.78-8.94,1.12ZM256.53,696l.54-1.24c2.71,1,5.56,1.91,8.47,2.84l-.48,1.25C262.13,697.93,259.26,697,256.53,696Zm213.83,16.35c3-.51,6-1.07,8.77-1.66l.37,1.3c-2.83.59-5.8,1.15-8.83,1.67Zm-230.46-23,.67-1.19c2.58,1.17,5.32,2.34,8.16,3.47l-.59,1.22C245.27,691.72,242.5,690.54,239.9,689.36Zm247.9,19.35c3-.76,5.83-1.56,8.52-2.4l.52,1.26c-2.71.85-5.61,1.66-8.6,2.42ZM224.21,681l.86-1.08c2.33,1.47,4.88,2.94,7.58,4.36l-.75,1.15C229.16,684,226.58,682.52,224.21,681Zm280.41,22.41c2.86-1.11,5.54-2.29,8-3.5l.76,1.16c-2.46,1.24-5.19,2.44-8.09,3.56ZM210.74,670l1.18-.8A47.62,47.62,0,0,0,218,675l-1,1A48.48,48.48,0,0,1,210.74,670ZM519.93,695.6a35.09,35.09,0,0,0,6.23-5.44l1.19.83a36.27,36.27,0,0,1-6.47,5.66ZM204.64,654.74a16.75,16.75,0,0,1,2.21-7l1.35.62a15.45,15.45,0,0,0-2.06,6.5,16,16,0,0,0,1.37,7.53l-1.4.46A17.09,17.09,0,0,1,204.64,654.74Zm325.5,28.67a15.26,15.26,0,0,0,.64-3.13l0-.27a14.73,14.73,0,0,0-.3-4.17l1.48-.23a16,16,0,0,1,.32,4.51l0,.3a15.88,15.88,0,0,1-.7,3.38Zm-8.35-21,1.08-.91a38.77,38.77,0,0,1,5.69,6.45l-1.28.68A37.75,37.75,0,0,0,521.79,662.43Zm-309.51-21.2a46.38,46.38,0,0,1,7.05-5.07l.85,1.12a45.74,45.74,0,0,0-6.82,4.9Zm295.44,11.26.8-1.12c2.7,1.54,5.23,3.12,7.49,4.7l-.91,1C512.87,655.56,510.39,654,507.72,652.49ZM227.16,632.15c2.54-1.13,5.32-2.23,8.25-3.26l.57,1.25c-2.88,1-5.62,2.09-8.13,3.2Zm264.71,12.63.63-1.2c2.83,1.19,5.57,2.42,8.14,3.67l-.7,1.17C497.39,647.19,494.68,646,491.87,644.78ZM243.92,626.21c2.74-.78,5.66-1.52,8.66-2.22l.41,1.29c-3,.69-5.87,1.43-8.6,2.21Zm231.27,12.34.51-1.25c2.92,1,5.77,2,8.47,3l-.57,1.23C480.92,640.51,478.09,639.51,475.19,638.55ZM261.36,622.14c2.85-.55,5.83-1.06,8.86-1.54l.29,1.32c-3,.47-6,1-8.8,1.52ZM458,633.41l.41-1.28c2.95.8,5.87,1.62,8.67,2.46l-.46,1.27C463.87,635,461,634.2,458,633.41Zm-178.9-14.07c2.92-.36,5.93-.71,9-1l.19,1.33c-3,.3-6,.64-8.91,1Zm161.44,9.81.34-1.29q4.49,1,8.79,2l-.37,1.29Q445.05,630.13,440.58,629.15ZM297.09,617.54c3-.22,6-.42,9-.58l.11,1.33q-4.54.26-9,.58Zm125.84,8.11.27-1.31c3,.54,6,1.09,8.88,1.67l-.3,1.3C428.87,626.74,425.92,626.18,422.93,625.65Zm-107.81-9.08q4.47-.15,9-.22l0,1.34q-4.56.06-9,.21Zm90,6.26.21-1.32c3,.43,6,.87,8.94,1.34l-.23,1.31C411.11,623.7,408.13,623.25,405.13,622.83Zm-71.93-6.52q4.49,0,9.05.12v1.33c-3-.06-6-.1-9-.12Zm54,4.33.15-1.33q4.53.48,9,1l-.18,1.32Q391.75,621.12,387.23,620.64Zm-35.94-3.94q4.48.18,9,.44l-.07,1.33c-3-.17-6-.31-9-.43Zm21.54,2.61-3.13-.23-.44,0,.1-1.34.44,0c1,.07,2.09.15,3.13.24,1.83.14,3.64.29,5.45.45l-.13,1.33Z"/><text class="cls-54" transform="translate(279.44 685.83) rotate(4.49)">JUICE</text><path class="cls-55" d="M253.47,265.37c-.95,0-1.65,0-1.88-.06l-1.78-.12,1.12-1.4c.56-.69,5.63-6.77,9.08-6.29a3.12,3.12,0,0,1,2.46,2.11,3.19,3.19,0,0,1-.22,3.27C260.71,265,256.12,265.37,253.47,265.37Zm6.09-6c-1.48,0-4,2.1-5.91,4.16,2.8,0,6.18-.45,7.08-1.7a1.37,1.37,0,0,0,0-1.47c-.33-.8-.72-.94-1-1Z"/><path class="cls-55" d="M252.56,265l-.61-1.68c-.3-.84-2.9-8.27-.65-11a3.09,3.09,0,0,1,3.07-1,3.19,3.19,0,0,1,2.69,1.89c1.41,3.31-3,9.65-3.47,10.37Zm1.12-11.89a1.07,1.07,0,0,0-.93.37c-.92,1.13-.43,4.52.37,7.36,1.44-2.39,2.83-5.5,2.22-6.93-.11-.27-.37-.64-1.24-.77Z"/><rect class="cls-55" x="247.16" y="202.56" width="1.87" height="63.34"/><path class="cls-56" d="M211.92,327.41l.51.25c11.07,5.42,24.31-.45,30.24-4.06s15.26-16.83,17.58-29-4.46-19.75-7.64-21.23c-2.86-1.32-4.35-5-4.61-5.7a.93.93,0,0,1-.05-.13l.26-1.85-1.32-5.84-4.8,0-2.82,2.39a68.41,68.41,0,0,1,3.82,7.44c.19.46.37.92.53,1.36a5.37,5.37,0,0,1,.26,3.31c-.46,1.72-1.82,3.09-2.76,5.54-1.62,4.24,2.62,11.09-2.62,22.24s-27.12,19.94-27.12,19.94l.34,3.28Z"/><path class="cls-57" d="M211.72,325.39c4.2-.83,23.37-5.48,32.71-22.16,6.26-11.16,4.85-19.3,2.61-24.11a3.06,3.06,0,0,0-5.56,0l-.36.84c-1.62,4.24,2.62,11.09-2.62,22.24s-27.12,19.94-27.12,19.94Z"/><path class="cls-58" d="M243.09,269.72l2.79-3.16,2.12,1.12a.93.93,0,0,1-.05-.13l.26-1.85-1.32-5.84-4.8,0-2.82,2.39A68.41,68.41,0,0,1,243.09,269.72Z"/><path class="cls-58" d="M211.92,327.41l.51.25,2.32-3.08-3.37-2.47Z"/><path class="cls-56" d="M232.35,330.92l.56.1c12.12,2.19,23.26-7.07,28-12.16s10.08-20.36,9-32.69-9.68-17.79-13.14-18.34c-3.11-.49-5.54-3.59-6-4.22a.68.68,0,0,0-.08-.11l-.25-1.85-2.87-5.26-4.6,1.33-2.06,3.08a68.87,68.87,0,0,1,5.7,6.11c.31.39.61.78.88,1.16a5.31,5.31,0,0,1,1.15,3.12c0,1.78-.9,3.46-1.13,6.08-.41,4.52,5.55,10,3.55,22.11S230.38,326,230.38,326l1.23,3.06Z"/><path class="cls-57" d="M231.61,329c3.81-1.95,21-11.65,25.41-30.25,3-12.45-.61-19.89-4.07-23.9a3.06,3.06,0,0,0-5.36,1.49c0,.29-.08.59-.11.9-.41,4.52,5.55,10,3.55,22.11S230.38,326,230.38,326Z"/><path class="cls-58" d="M246.58,266.91l1.82-3.81,2.34.51a.68.68,0,0,0-.08-.11l-.25-1.85-2.87-5.26-4.6,1.33-2.06,3.08A68.87,68.87,0,0,1,246.58,266.91Z"/><path class="cls-58" d="M232.35,330.92l.56.1,1.39-3.6L230.38,326Z"/><path class="cls-56" d="M249,333.07l.56,0c12.32-.4,21.26-11.8,24.8-17.77s5.59-22,1.93-33.85-13.2-15.35-16.7-15.16c-3.15.17-6.17-2.35-6.75-2.87l-.11-.09-.63-1.76L248.2,257,244,259.28l-1.37,3.44a70.23,70.23,0,0,1,6.86,4.78c.39.32.76.64,1.11.95a5.4,5.4,0,0,1,1.78,2.81c.4,1.73-.15,3.57.17,6.18.55,4.51,7.51,8.57,8.11,20.88S246,328.64,246,328.64l1.84,2.74Z"/><path class="cls-57" d="M247.88,331.38c3.32-2.71,18.07-15.8,18.49-34.91.29-12.8-4.77-19.32-9-22.52a3.06,3.06,0,0,0-4.92,2.58c0,.3,0,.6.08.91.55,4.51,7.51,8.57,8.11,20.88S246,328.64,246,328.64Z"/><path class="cls-58" d="M249.47,267.5l1-4.1h2.4l-.11-.09-.63-1.76L248.2,257,244,259.28l-1.37,3.44A70.23,70.23,0,0,1,249.47,267.5Z"/><path class="cls-58" d="M249,333.07l.56,0,.61-3.81-4.14-.6Z"/><path class="cls-55" d="M424.17,278.33c-.94,0-1.64,0-1.87-.05l-1.79-.13,1.12-1.39c.56-.7,5.63-6.78,9.08-6.29a3.09,3.09,0,0,1,2.46,2.1,3.23,3.23,0,0,1-.21,3.28C431.41,278,426.83,278.33,424.17,278.33Zm6.09-6c-1.47,0-4,2.09-5.9,4.16,2.8,0,6.17-.45,7.08-1.71a1.42,1.42,0,0,0,0-1.47c-.34-.79-.73-.93-1-1Z"/><path class="cls-55" d="M423.26,277.94l-.61-1.68c-.3-.84-2.9-8.28-.65-11a3.11,3.11,0,0,1,3.08-1,3.21,3.21,0,0,1,2.69,1.89c1.41,3.3-3,9.65-3.47,10.36Zm1.12-11.9a1.08,1.08,0,0,0-.93.38c-.92,1.12-.42,4.52.37,7.36,1.44-2.4,2.83-5.51,2.23-6.93-.12-.27-.37-.64-1.25-.77A2.27,2.27,0,0,0,424.38,266Z"/><rect class="cls-55" x="417.86" y="215.53" width="1.87" height="63.34"/><path class="cls-56" d="M382.63,340.37l.5.26c11.07,5.41,24.32-.45,30.24-4.07s15.26-16.83,17.58-29-4.46-19.75-7.64-21.22c-2.85-1.33-4.34-5-4.61-5.71a.58.58,0,0,1-.05-.13l.26-1.84-1.32-5.84-4.79,0-2.83,2.4a67.35,67.35,0,0,1,3.82,7.44c.2.46.38.91.53,1.35a5.32,5.32,0,0,1,.26,3.32c-.46,1.72-1.81,3.08-2.75,5.54-1.63,4.24,2.62,11.08-2.63,22.24s-27.12,19.94-27.12,19.94l.35,3.27Z"/><path class="cls-57" d="M382.43,338.35c4.2-.83,23.36-5.47,32.7-22.15,6.26-11.17,4.85-19.3,2.61-24.11a3.06,3.06,0,0,0-5.56,0c-.12.26-.24.54-.35.84-1.63,4.24,2.62,11.08-2.63,22.24s-27.12,19.94-27.12,19.94Z"/><path class="cls-58" d="M413.79,282.69l2.79-3.17,2.12,1.12a.58.58,0,0,1-.05-.13l.26-1.84-1.32-5.84-4.79,0-2.83,2.4A67.35,67.35,0,0,1,413.79,282.69Z"/><path class="cls-58" d="M382.63,340.37l.5.26,2.32-3.09-3.37-2.46Z"/><path class="cls-56" d="M403.06,343.88l.55.11c12.13,2.19,23.27-7.07,28-12.17s10.09-20.36,9-32.69-9.69-17.78-13.15-18.33c-3.11-.5-5.53-3.6-6-4.23a.63.63,0,0,1-.08-.11l-.26-1.85-2.86-5.25-4.61,1.33-2.06,3.07a69.08,69.08,0,0,1,5.71,6.12c.31.39.61.78.88,1.16a5.43,5.43,0,0,1,1.15,3.12c0,1.77-.9,3.46-1.14,6.08-.41,4.52,5.55,9.95,3.55,22.11s-20.64,26.58-20.64,26.58l1.22,3.06Z"/><path class="cls-57" d="M402.31,342c3.81-1.94,21-11.64,25.41-30.24,3-12.45-.6-19.89-4.07-23.91a3.06,3.06,0,0,0-5.36,1.49c0,.29-.08.59-.11.91-.41,4.52,5.55,9.95,3.55,22.11s-20.64,26.58-20.64,26.58Z"/><path class="cls-58" d="M417.29,279.88l1.81-3.81,2.35.5a.63.63,0,0,1-.08-.11l-.26-1.85-2.86-5.25-4.61,1.33-2.06,3.07A69.08,69.08,0,0,1,417.29,279.88Z"/><path class="cls-58" d="M403.06,343.88l.55.11,1.39-3.6-3.91-1.46Z"/><path class="cls-56" d="M419.71,346h.57c12.31-.41,21.26-11.8,24.8-17.77s5.58-22,1.93-33.85-13.21-15.35-16.71-15.17c-3.14.18-6.17-2.35-6.75-2.87l-.1-.09-.64-1.75-3.9-4.54-4.23,2.27-1.37,3.44a67.85,67.85,0,0,1,6.87,4.78c.38.32.76.63,1.1.95a5.28,5.28,0,0,1,1.78,2.8c.4,1.74-.15,3.58.17,6.19.55,4.5,7.52,8.56,8.12,20.87s-14.6,30.33-14.6,30.33l1.84,2.73Z"/><path class="cls-57" d="M418.59,344.34c3.32-2.7,18.06-15.79,18.49-34.91.29-12.79-4.77-19.32-9-22.51a3.06,3.06,0,0,0-4.93,2.58c0,.29,0,.59.08.91.55,4.5,7.52,8.56,8.12,20.87s-14.6,30.33-14.6,30.33Z"/><path class="cls-58" d="M420.18,280.47l1-4.11h2.4l-.1-.09-.64-1.75-3.9-4.54-4.23,2.27-1.37,3.44A67.85,67.85,0,0,1,420.18,280.47Z"/><path class="cls-58" d="M419.71,346h.57l.6-3.81-4.13-.6Z"/><polygon class="cls-59" points="547.88 458.35 547.77 459.49 547.29 464.47 543.4 506.45 518.44 505.7 510.04 505.45 503.21 505.24 499.83 462.57 499.44 457.55 499.38 456.78 505.49 456.66 547.88 458.35"/><polygon class="cls-60" points="543.31 458.17 541.91 474.77 539.44 503.66 506.84 502.72 504.84 470.68 503.98 456.94 508.92 456.8 543.31 458.17"/><path class="cls-61" d="M541.91,474.77l-2.47,28.89-32.6-.94-2-32c2.47-.33,4,1.85,7,2.06a5.42,5.42,0,0,0,4.16-2,40.13,40.13,0,0,1,3.21-3.56,8,8,0,0,1,9.85,0c2.38,1.94,3.65,5.3,6.56,6.3,1.9.66,4.1.14,5.87,1.07A1.32,1.32,0,0,1,541.91,474.77Z"/><path class="cls-59" d="M501,454.55s3.54-21.33,24.21-20.5,22.66,24.29,22.66,24.29Z"/><path class="cls-60" d="M504.69,454.43s3-17.83,20.24-17.14,18.94,20.31,18.94,20.31Z"/><polygon class="cls-62" points="547.77 459.49 547.29 464.47 499.83 462.57 499.44 457.55 547.77 459.49"/><path class="cls-59" d="M529.72,430.39a4.85,4.85,0,1,1-4.65-5A4.86,4.86,0,0,1,529.72,430.39Z"/><circle class="cls-63" cx="523.88" cy="429.39" r="2.94"/><polygon class="cls-63" points="521.71 458.44 518.44 505.7 510.04 505.45 507.18 456.73 507.16 456.45 509.99 456.84 521.71 458.44"/><rect class="cls-59" x="495.16" y="455.46" width="57.08" height="4.98" transform="translate(18.73 -20.58) rotate(2.29)"/><rect class="cls-64" x="502.32" y="455.05" width="22.35" height="4.98" transform="matrix(1, 0.04, -0.04, 1, 18.71, -20.17)"/><path class="cls-64" d="M520.7,435.53a20.19,20.19,0,0,0-14.2,16.3l17.85,1.09S526.19,435.62,520.7,435.53Z"/><path class="cls-59" d="M475.67,420.7c9.55.34,18.08,8.89,18.4,18.45.22,6.52-3,12.8-7.37,17.6s-10,8.36-15.58,11.76l-2.64-5.36c5.84-1.75,9.45-7.57,11.55-13.28,2-5.5,2.9-12.39-1.18-16.59a9.11,9.11,0,0,0-15.65,6.52c.09,4.61.52,12.05-6.27,7.33-3.43-2.38-3.4-5.84-2.37-9.46C457.1,428.71,466.1,420.36,475.67,420.7Z"/><path class="cls-60" d="M478.17,460a32.58,32.58,0,0,0,4.89-9c1.8-4.87,3.94-13.94-1.89-20a12.55,12.55,0,0,0-8.46-3.71,12.26,12.26,0,0,0-5.15.91A12.59,12.59,0,0,0,460,439.87v.53a29.39,29.39,0,0,1-.15,4.73,9,9,0,0,1-1.06-.65c-1.18-.82-2.24-2-1.11-5.93,2.08-7.29,9.76-14.91,17.89-14.62,7.91.31,15,7.48,15.3,15.33.23,6.89-4,12.55-6.53,15.31A43.33,43.33,0,0,1,478.17,460Z"/><path class="cls-59" d="M459.7,429.75l3.08-18.57-41.93-1.68,1.58,18.76a16.86,16.86,0,0,1-6.44,14.6C403.2,453,400.41,463.6,400.41,463.6c-2.06,18.81,15.55,31.57,22.46,35.81a11.29,11.29,0,0,0,5.48,1.66l19.63.78a11.32,11.32,0,0,0,5.6-1.21c7.22-3.67,25.79-15,25.25-33.9,0,0-1.94-10.76-13.87-21.92A16.87,16.87,0,0,1,459.7,429.75Z"/><path class="cls-60" d="M452.12,497.77a8.34,8.34,0,0,1-4,.86l-19.63-.79a8.09,8.09,0,0,1-3.92-1.17c-6.88-4.23-22.6-15.8-21-32.44.46-1.4,3.66-10.27,14.42-18.84a20.56,20.56,0,0,0,4.94-5.65,19.8,19.8,0,0,0,2.7-11.75l-1.27-15.12L459,414.26l-2.49,15a19.78,19.78,0,0,0,1.78,11.93,20.45,20.45,0,0,0,4.46,6c10,9.37,12.51,18.47,12.86,19.95C475.91,483.83,459.29,494.1,452.12,497.77Z"/><path class="cls-65" d="M452.12,497.77a8.34,8.34,0,0,1-4,.86l-19.63-.79a8.09,8.09,0,0,1-3.92-1.17c-3.91-2.4-10.65-7.16-15.46-13.88-3.67-5.11-6.23-11.37-5.52-18.56.46-1.4,3.66-10.27,14.42-18.84a20.56,20.56,0,0,0,4.94-5.65l35.35,1.42a20.45,20.45,0,0,0,4.46,6c10,9.37,12.51,18.47,12.86,19.95C475.91,483.83,459.29,494.1,452.12,497.77Z"/><path class="cls-66" d="M411.16,462.05c-.26,2.82.32,6.05,2.68,7.62,2,1.31,4.61,1.05,6.88.34a20.76,20.76,0,0,0,13.71-14.92c1.7-7.54-3.71-13.18-10.77-9.54C417.18,448.9,411.86,454.5,411.16,462.05Z"/><path class="cls-67" d="M452.12,497.77a8.34,8.34,0,0,1-4,.86l-19.63-.79a8.09,8.09,0,0,1-3.92-1.17c-3.91-2.4-10.65-7.16-15.46-13.88a30.28,30.28,0,0,1,8.75-2.69c7-1.08,14.3-.8,20.69-3.76,7.83-3.64,12.87-11.76,14.95-20.16.81-3.29.31-10.05,1.19-15.17l3.61.15a20.45,20.45,0,0,0,4.46,6c10,9.37,12.51,18.47,12.86,19.95C475.91,483.83,459.29,494.1,452.12,497.77Z"/><path class="cls-68" d="M431,446.75c-.06,1.62-2.1,2.85-4.55,2.75s-4.38-1.49-4.32-3.1,2.11-2.84,4.56-2.75S431,445.14,431,446.75Z"/><circle class="cls-69" cx="322.48" cy="424.73" r="14.32"/><circle class="cls-70" cx="322.48" cy="424.73" r="11.68"/><rect class="cls-71" x="285.38" y="422.53" width="37.27" height="69.36" rx="0.33" transform="translate(18.53 -11.79) rotate(2.29)"/><rect class="cls-69" x="277.93" y="447.46" width="51.59" height="34.31" rx="0.03" transform="translate(780.11 179.72) rotate(92.29)"/><rect class="cls-72" x="291.23" y="422.22" width="9.71" height="69.36" transform="translate(18.51 -11.48) rotate(2.29)"/><rect class="cls-71" x="343.74" y="421.97" width="38.65" height="71.93" rx="0.21" transform="translate(18.61 -14.15) rotate(2.29)"/><rect class="cls-65" x="336.01" y="447.82" width="53.5" height="35.58" rx="0.03" transform="translate(842.5 121.76) rotate(92.29)"/><rect class="cls-72" x="349.8" y="421.64" width="10.07" height="71.93" transform="translate(18.59 -13.83) rotate(2.29)"/><polygon class="cls-72" points="362 483.38 358.88 482.48 376.28 422.47 379.61 422.61 362 483.38"/><polygon class="cls-73" points="379.61 422.61 376.28 422.47 382.69 400.38 385.8 401.28 379.61 422.61"/><rect class="cls-73" x="388.23" y="397.83" width="3.24" height="12.63" transform="matrix(-0.28, 0.96, -0.96, -0.28, 886.62, 142.33)"/><polygon class="cls-74" points="566.7 522.26 111.31 497.61 111.62 487.49 567.35 501.69 566.7 522.26"/></g></g></g></g></svg>