<svg id="Layer_1" data-name="Layer 1" xmlns="http://www.w3.org/2000/svg" xmlns:xlink="http://www.w3.org/1999/xlink" viewBox="0 0 700 512"><defs><style>.cls-1,.cls-19{fill:none;}.cls-2{clip-path:url(#clip-path);}.cls-3{fill:#db833a;stroke:#562701;stroke-width:0.41px;}.cls-10,.cls-11,.cls-16,.cls-17,.cls-18,.cls-19,.cls-3,.cls-9{stroke-miterlimit:10;}.cls-4{fill:#474747;}.cls-5{fill:#292929;}.cls-6{fill:#3f3f3f;}.cls-7{fill:#d15805;}.cls-8{fill:#a09f9f;}.cls-9{fill:#353438;stroke-width:0.78px;}.cls-10,.cls-9{stroke:#000;}.cls-10{fill:#bfbfbf;stroke-width:2.33px;}.cls-11{fill:#020202;stroke:#a09e9d;stroke-width:1.55px;}.cls-12{fill:#322e36;}.cls-13{fill:#a55f13;}.cls-14{fill:#683804;}.cls-15{fill:#af6e19;}.cls-16{fill:#d89355;stroke:#422301;stroke-width:0.42px;}.cls-17{fill:#bf7232;stroke:#381e02;}.cls-17,.cls-19{stroke-width:0.31px;}.cls-18{fill:#e2a86d;stroke:#3d2000;stroke-width:0.21px;}.cls-19{stroke:#422200;}</style><clipPath id="clip-path"><rect class="cls-1" x="393.21" y="23.43" width="306.85" height="470.3"/></clipPath></defs><g class="cls-2"><g id="x"><rect class="cls-3" x="426.76" y="146.49" width="147.94" height="98.97" rx="3.99"/><rect class="cls-3" x="575.93" y="145.17" width="147.94" height="98.97" rx="3.99"/><rect class="cls-3" x="574.75" y="45.7" width="147.94" height="98.97" rx="3.99"/><path class="cls-4" d="M739.09,364.85H466.72c-.83,0-1.5-1.51-1.5-3.38v-33.8c0-1.87.67-3.38,1.5-3.38H739.09Z"/><path class="cls-5" d="M494.58,364.85l.37,52.49s2.57,9.54,17.62,11.38l226.17.09-1.44-64-48.9-22-44.42-11-48.09,21.66-28,11.38Z"/><path class="cls-6" d="M555.7,389.11l28.63-.15s20.47-50.83,77.09-44.85c40.19,4.25,57.26,45,57.26,45h29.73S732.12,321.38,652.06,321C580.48,320.63,561.21,376.85,555.7,389.11Z"/><rect class="cls-7" x="441.18" y="364.85" width="18.17" height="24.26"/><path class="cls-8" d="M492.38,403H454.44c-3.07,0-5.83-6-5.83-9.09l-3-43.82a5.56,5.56,0,0,1,5.55-5.55H500a5.56,5.56,0,0,1,5.56,5.55l-3.31,43.82C502.29,397,495.45,403,492.38,403Z"/><circle class="cls-9" cx="652.06" cy="418.08" r="66.81"/><circle class="cls-10" cx="652.06" cy="418.08" r="35.49"/><circle class="cls-11" cx="652.06" cy="418.08" r="8.87"/><rect class="cls-12" x="641.62" y="391.63" width="20.88" height="8" rx="1.52"/><rect class="cls-12" x="641.62" y="437.73" width="20.88" height="8" rx="1.52"/><rect class="cls-12" x="664.58" y="415.99" width="20.88" height="8" rx="1.52" transform="translate(255.03 1095.01) rotate(-90)"/><rect class="cls-12" x="618.65" y="415.99" width="20.88" height="8" rx="1.52" transform="translate(209.1 1049.08) rotate(-90)"/><path class="cls-13" d="M734.84,325.39H436.37c-5.35,0-9.69-8.75-9.69-19.54V248.49c0-10.79,4.34-1.1,9.69-1.1H734.84c5.35,0,9.69,8.75,9.69,19.55v38.91C744.53,316.64,740.19,325.39,734.84,325.39Z"/><rect class="cls-14" x="426.68" y="245.55" width="319.13" height="7.52"/><rect class="cls-13" x="405.2" y="226.28" width="342.39" height="21.11" rx="3.64"/><rect class="cls-15" x="450.35" y="254.82" width="8.81" height="57.19"/><rect class="cls-15" x="475.96" y="254.82" width="8.81" height="57.19"/><rect class="cls-15" x="502.66" y="254.82" width="8.81" height="57.19"/><rect class="cls-15" x="530.28" y="254.82" width="8.81" height="57.19"/><rect class="cls-15" x="557.65" y="254.82" width="8.81" height="57.19"/><rect class="cls-15" x="583.25" y="254.82" width="8.81" height="57.19"/><rect class="cls-15" x="609.96" y="254.82" width="8.81" height="57.19"/><rect class="cls-15" x="637.58" y="254.82" width="8.81" height="57.19"/><rect class="cls-15" x="661.58" y="254.82" width="8.81" height="57.19"/><rect class="cls-15" x="687.18" y="254.82" width="8.81" height="57.19"/></g></g><polygon class="cls-16" points="141.38 365.66 143.13 366.12 208.59 383.38 206.33 498.95 139.87 477.05 141.38 365.66"/><polygon class="cls-17" points="208.59 383.38 333.89 370.91 331.31 476.07 206.33 498.95 208.59 383.38"/><polygon class="cls-18" points="142.28 365.03 258.22 352.09 332.89 370.3 208.13 382.96 142.28 365.03"/><line class="cls-19" x1="176.59" y1="374.38" x2="291.58" y2="360.23"/></svg>