<svg id="Layer_1" data-name="Layer 1" xmlns="http://www.w3.org/2000/svg" viewBox="0 0 1600 600"><defs><style>.cls-1{opacity:0.15;}.cls-2{fill:#f58b1f;}.cls-3{fill:#f9ba15;}.cls-4{fill:#d87a27;}.cls-5{fill:#7b6b2b;}.cls-16,.cls-6{fill:#fbe7d1;}.cls-6{opacity:0.7;}.cls-7{fill:#917c2e;}.cls-8{fill:#62ac45;stroke:#589241;stroke-miterlimit:10;stroke-width:0.21px;}.cls-9{fill:#6eb444;}.cls-10{fill:#cf7628;}.cls-11{fill:#cc6928;}.cls-12{fill:#13774e;}.cls-13{opacity:0.1;}.cls-14{fill:#ae6528;}.cls-15{fill:#ae5826;}.cls-16{opacity:0.5;}.cls-17{fill:#0f5542;}.cls-18{fill:#115141;}.cls-19{fill:#225646;}.cls-20{fill:#d37328;}.cls-21{fill:#d66227;}.cls-22{fill:#f68c1e;}.cls-23{fill:#f37820;}.cls-24{fill:#12754a;}.cls-25{fill:#4fab47;}.cls-26{fill:#ad6628;}.cls-27{fill:#b65326;}.cls-28{fill:#2d9a47;}.cls-29{fill:#d66027;}.cls-30{fill:#cb7829;}.cls-31{fill:#c86728;}.cls-32{fill:#128855;}.cls-33{fill:#116b44;}.cls-34{fill:#0d4c3a;}.cls-35{fill:#0e8454;}.cls-36{fill:#168b57;}.cls-37{fill:#0f6041;}</style></defs><g id="o"><path class="cls-1" d="M1115.06,105.52c-3.17-25.61-22.72-34.43-42.87-36.25-1.33-7.31,2.38-17.07,2.38-17.07l-5.25-1c-.91,1.84-1.21,5.91-1.25,10-1-4.12-4.21-9.31-13-12.49,0,0-14.27-2.92-27.51,2.47,0,0,6.88,19.31,40.66,16.29,0,.57,0,1.1.07,1.59-1.08-.06-2.15-.09-3.21-.11a41.64,41.64,0,0,0-13.9,2.58l0,0a39,39,0,0,0-4.86,2c-8.78,4.06-17.5,10.95-22.33,21-4.05,8.11-5.93,18.77-2.71,32.62,2.14,9.17,12.8,29.19,35.78,33l-.2-.12a53.54,53.54,0,0,0,7.66,1.12C1089.88,162.74,1119.49,141.24,1115.06,105.52Z"/><path class="cls-2" d="M1074.16,58.5c-14.87-.23-44.75,12.67-44.91,42.68-.16,30.23,20,47.79,44.37,49.45,25.38,1.72,55-19.78,50.57-55.5C1120.64,66.49,1096.61,58.84,1074.16,58.5Z"/><path class="cls-3" d="M1115.09,86.7l0,0v0Z"/><path class="cls-3" d="M1111.1,87.33c-.65-1.41-1-3.55.87-3.77s2.31,2.06,3.09,3.1C1115.4,89,1112.85,91.11,1111.1,87.33Z"/><path class="cls-3" d="M1115.06,86.64l-1.14-2A3.31,3.31,0,0,1,1115.06,86.64Z"/><path class="cls-3" d="M1114.14,94c-.17-.64-.22-1.73.69-1.76.64,0,.88.52.85,1.06a1.78,1.78,0,0,1-.06,1.47C1115,95.77,1114.31,94.64,1114.14,94Z"/><path class="cls-3" d="M1107.48,87.74a1.29,1.29,0,0,1,1,.86c.44.44.88,1.13.66,1.63a.8.8,0,0,1-.19.28l.06.21-.07-.2c-.5.36-1.3-.82-1.6-1.24S1106.28,87.56,1107.48,87.74Z"/><path class="cls-3" d="M1109,90.72l0,.09A.36.36,0,0,1,1109,90.72Z"/><path class="cls-3" d="M1107.19,83.38c.36.51.46,1.48-.18,1.75s-1.6-.8-1.81-1.33C1104.34,81.65,1106.9,82.56,1107.19,83.38Z"/><path class="cls-3" d="M1107.59,78.83c.36.21,1.07.51,1.09,1a.63.63,0,0,1-.41.61c-.29.32-1.07.2-1.38.14-.65-.12-3.67-1.21-3.17-2.19C1104.3,77.24,1107,78.45,1107.59,78.83Z"/><path class="cls-3" d="M1111.5,79.19c-.7-.11-2.39-1.56-2-2.44s1.65-.14,2.06.28a2.28,2.28,0,0,1,.4,1C1112.25,78.68,1112.31,79.32,1111.5,79.19Z"/><path class="cls-3" d="M1116.58,90.21c-.36-1.42.84-1.11,1.44-.41v0c.45.28,1.06,1.61.33,2S1116.72,90.76,1116.58,90.21Z"/><path class="cls-3" d="M1116.86,97.72c0-.67.33-3.27,1.57-2.39a1,1,0,0,1,.36.81,4.57,4.57,0,0,1-.16,2.69C1117.81,100.83,1116.89,98.9,1116.86,97.72Z"/><path class="cls-3" d="M1110.09,93.16a2.86,2.86,0,0,1,1.46,1.37c.69,1,1.14,2.51.76,3.32-.93,2-2.81-1.46-3.24-2.16C1108.43,94.66,1108.37,92.63,1110.09,93.16Z"/><path class="cls-3" d="M1104.31,90.72c.32.52.51,1.3.19,1.68-.67.82-2.08-.71-2.36-1.29C1101.07,88.87,1104,89.86,1104.31,90.72Z"/><path class="cls-3" d="M1100.49,72.48a1,1,0,0,1,.51,1c-1.3.62-3.6-1.06-3.29-2.53A2.27,2.27,0,0,1,1100.49,72.48Z"/><path class="cls-3" d="M1101.67,80.5c-1.26-.42-4.05-2.34-3.13-3.94a2.81,2.81,0,0,1,2.32,1.42C1101.72,78.59,1102.36,79.58,1101.67,80.5Z"/><path class="cls-3" d="M1105.61,71.49a1.73,1.73,0,0,1,2.1,1.34,1.23,1.23,0,0,1,0,1A2.31,2.31,0,0,1,1105.61,71.49Z"/><path class="cls-3" d="M1093.76,71.74c1.93,1.58-2.61,2.18-3,.49C1090.33,70.72,1093.4,70.59,1093.76,71.74Z"/><path class="cls-3" d="M1115,102.24c1,0,1.12.87,1,1.74.62,1.91.57,5.23-1.07,4.75C1112.86,108.12,1114.11,103.39,1115,102.24Z"/><path class="cls-3" d="M1120.64,102.4c1.42,1.68-1.66,4-1.7.7C1118.92,101.07,1120.25,101.48,1120.64,102.4Z"/><path class="cls-3" d="M1106.89,100.19a1.16,1.16,0,0,1,0,1.29c-1,0-2.7-1.31-2.44-2.51C1104.82,97.18,1107.12,98.73,1106.89,100.19Z"/><path class="cls-3" d="M1095.73,83.53l.2-.07a1.37,1.37,0,0,1-.2.42c0,.25-.15.4-.34.34-1.1.68-3.06-.81-1.74-1.73S1095.64,82.71,1095.73,83.53Z"/><path class="cls-3" d="M1080.44,67.25c2.41-.73,3.49,2.75,1.6,2.11C1080.66,69.33,1078.07,68,1080.44,67.25Z"/><path class="cls-3" d="M1108.54,114.82l.11-.61a3.82,3.82,0,0,1-.37,3.05c-.82-.35-1.71-3.3-1-4.17C1108.49,111.77,1108.65,113.48,1108.54,114.82Z"/><path class="cls-3" d="M1094.49,96.19a.59.59,0,0,1-.78-.37c-.9-.54-2.22-1.94-.87-2.35S1094.82,95.3,1094.49,96.19Z"/><path class="cls-3" d="M1119.58,114.64a1.92,1.92,0,0,1-.45.79c-1.28-.43-3.58-2.74-1.4-3.8C1119.66,110.7,1120.25,113.19,1119.58,114.64Z"/><path class="cls-3" d="M1119.58,107.45v0a1.09,1.09,0,0,1,.36,1.68,1.57,1.57,0,0,1-1.18-2.07A1.38,1.38,0,0,1,1119.58,107.45Z"/><path class="cls-4" d="M1066.16,149.63c-23-3.79-33.64-23.81-35.77-33-10.11-43.44,29.89-55.59,29.89-55.59s-28.43,26.48-20.53,53C1047.1,138.71,1066.16,149.63,1066.16,149.63Z"/><path class="cls-5" d="M1085.93,61s2.42,2.12-.62,3.93-12.4,1.21-13.59-.88.39-4.28,4.53-4.3S1083.36,59.48,1085.93,61Z"/><ellipse class="cls-6" cx="1094.76" cy="86.3" rx="7.89" ry="11.38" transform="translate(57.22 446.09) rotate(-23.63)"/><path class="cls-7" d="M1085.22,61.7a3.48,3.48,0,0,1-1.74,2.78c-2.25,1.07-7.2.17-7.2.17l1.51-2.52s1.46.08,2-.42a1.71,1.71,0,0,0,.59-1Z"/><path class="cls-8" d="M1036.64,40.72s6.91,19.38,40.83,16.29c0,0,3.06-12.85-13.32-18.75C1064.15,38.26,1049.89,35.34,1036.64,40.72Z"/><path class="cls-9" d="M1078.45,40.79l5.24,1s-4.18,11-2.08,18.36c0,0-.46,3.09-4.06,1.41C1077.55,61.58,1076.3,45.1,1078.45,40.79Z"/><path class="cls-1" d="M1414.38,186.9c-5.34-19.18-21.26-23.68-36.84-22.78-1.85-5.43-.13-13.29-.13-13.29l-4.12-.19c-.49,1.51-.25,4.65.18,7.75-1.27-3-4.27-6.63-11.37-8,0,0-11.22-.6-20.71,5,0,0,7.45,14,32.88,7.81.08.43.16.83.23,1.2-.82.08-1.65.17-2.46.28a32.29,32.29,0,0,0-10.31,3.55h0a30.85,30.85,0,0,0-3.49,2.06c-6.23,4.1-12.1,10.35-14.64,18.56-2.16,6.65-2.39,15,1.65,25.2,2.67,6.75,13.09,20.82,31,21.09l-.16-.07a41,41,0,0,0,6,0C1401.68,233.43,1421.82,213.65,1414.38,186.9Z"/><path class="cls-2" d="M1377.53,159.08c-11.37,1.52-32.7,14.76-29.4,37.68,3.32,23.08,20.69,34.19,39.49,32.68,19.55-1.58,39.7-21.35,32.26-48.11C1413.91,159.88,1394.7,156.79,1377.53,159.08Z"/><path class="cls-3" d="M1412,175.94l0,0v0Z"/><path class="cls-3" d="M1409,176.87c-.66-1-1.14-2.6.24-3s2,1.31,2.71,2C1412.47,177.67,1410.77,179.56,1409,176.87Z"/><path class="cls-3" d="M1411.94,175.89l-1.09-1.39A2.51,2.51,0,0,1,1411.94,175.89Z"/><path class="cls-3" d="M1412.08,181.6c-.2-.47-.36-1.3.32-1.42.49-.09.73.29.78.71a1.42,1.42,0,0,1,.12,1.13C1412.92,182.87,1412.28,182.09,1412.08,181.6Z"/><path class="cls-3" d="M1406.29,177.6a1,1,0,0,1,.86.54c.38.28.8.76.69,1.17a.49.49,0,0,1-.12.23l.07.16-.08-.15c-.33.34-1.08-.48-1.35-.76S1405.35,177.6,1406.29,177.6Z"/><path class="cls-3" d="M1407.79,179.7l0,.06Z"/><path class="cls-3" d="M1405.57,174.3c.33.35.52,1.08.06,1.36s-1.31-.43-1.53-.81C1403.2,173.31,1405.25,173.71,1405.57,174.3Z"/><path class="cls-3" d="M1405.36,170.79c.29.11.87.26.94.64a.47.47,0,0,1-.24.51c-.18.28-.79.28-1,.27-.52,0-2.94-.5-2.68-1.31S1404.82,170.57,1405.36,170.79Z"/><path class="cls-3" d="M1408.38,170.62c-.55,0-2-.92-1.79-1.64s1.24-.3,1.6,0a1.83,1.83,0,0,1,.42.75C1408.89,170.14,1409,170.63,1408.38,170.62Z"/><path class="cls-3" d="M1413.51,178.45c-.43-1,.51-.95,1-.48v0c.38.16,1,1.11.48,1.47S1413.68,178.85,1413.51,178.45Z"/><path class="cls-3" d="M1414.58,184.14c-.09-.51-.12-2.53.93-2a.81.81,0,0,1,.36.58,3.5,3.5,0,0,1,.19,2.07C1415.66,186.41,1414.74,185,1414.58,184.14Z"/><path class="cls-3" d="M1408.9,181.43a2.25,2.25,0,0,1,1.27.89,3.11,3.11,0,0,1,1,2.44c-.49,1.63-2.32-.79-2.73-1.28C1407.8,182.77,1407.52,181.22,1408.9,181.43Z"/><path class="cls-3" d="M1404.21,180.23c.3.36.53.93.34,1.26-.42.7-1.67-.31-2-.72C1401.52,179.19,1403.86,179.61,1404.21,180.23Z"/><path class="cls-3" d="M1399.21,166.75a.78.78,0,0,1,.51.67c-.92.62-2.88-.4-2.81-1.56A1.73,1.73,0,0,1,1399.21,166.75Z"/><path class="cls-3" d="M1401,172.73c-1-.18-3.36-1.32-2.84-2.65a2.19,2.19,0,0,1,1.94.82C1400.85,171.27,1401.45,172,1401,172.73Z"/><path class="cls-3" d="M1403,165.42a1.33,1.33,0,0,1,1.75.77.94.94,0,0,1,.11.73A1.76,1.76,0,0,1,1403,165.42Z"/><path class="cls-3" d="M1394,167c1.65,1-1.75,2-2.27.72S1393.59,166.11,1394,167Z"/><path class="cls-3" d="M1413.64,187.81c.76-.13,1,.53,1,1.21.69,1.39,1,3.93-.28,3.75C1412.71,192.54,1413.13,188.79,1413.64,187.81Z"/><path class="cls-3" d="M1418,187.29c1.27,1.12-.82,3.21-1.22.72C1416.53,186.46,1417.59,186.63,1418,187.29Z"/><path class="cls-3" d="M1407.25,187.16a.89.89,0,0,1,.13,1c-.76.1-2.2-.69-2.14-1.64C1405.33,185.1,1407.26,186,1407.25,187.16Z"/><path class="cls-3" d="M1396.84,175.72l.15-.07a1.13,1.13,0,0,1-.11.34c0,.19-.07.32-.22.3-.76.64-2.42-.28-1.53-1.12S1396.68,175.11,1396.84,175.72Z"/><path class="cls-3" d="M1383.32,165c1.76-.83,3,1.7,1.46,1.43C1383.73,166.6,1381.6,165.86,1383.32,165Z"/><path class="cls-3" d="M1410.18,198.14v-.48a3,3,0,0,1,.07,2.37c-.66-.17-1.68-2.32-1.2-3.07C1409.8,195.82,1410.11,197.11,1410.18,198.14Z"/><path class="cls-3" d="M1397.34,185.52c-.36.13-.5,0-.64-.19-.75-.31-1.92-1.23-.93-1.7S1397.49,184.8,1397.34,185.52Z"/><path class="cls-3" d="M1418.58,196.74a1.45,1.45,0,0,1-.25.66c-1-.19-3-1.69-1.5-2.74C1418.2,193.73,1418.93,195.56,1418.58,196.74Z"/><path class="cls-3" d="M1417.76,191.26v0a.84.84,0,0,1,.46,1.24,1.21,1.21,0,0,1-1.14-1.45A1.11,1.11,0,0,1,1417.76,191.26Z"/><path class="cls-4" d="M1381.81,229.53c-18-.28-28.38-14.34-31.06-21.1-12.65-32,16.49-45.82,16.49-45.82s-18.69,23.45-9.63,42.79A49.53,49.53,0,0,0,1381.81,229.53Z"/><path class="cls-5" d="M1386.8,159.65s2.09,1.34,0,3.06-9.33,2.34-10.48.88-.19-3.31,3-3.79S1384.67,158.78,1386.8,159.65Z"/><ellipse class="cls-6" cx="1396.42" cy="177.95" rx="6.09" ry="8.78" transform="translate(119.13 769.7) rotate(-32.12)"/><path class="cls-7" d="M1386.34,160.26a2.7,2.7,0,0,1-1,2.32c-1.6,1.08-5.48.95-5.48.95l.87-2.09s1.12-.11,1.47-.55a1.33,1.33,0,0,0,.35-.8Z"/><path class="cls-8" d="M1346.88,149.79s7.48,14,33,7.78c0,0,.87-10.16-12.3-12.8C1367.59,144.77,1356.38,144.17,1346.88,149.79Z"/><path class="cls-9" d="M1378.79,145.08l4.12.18s-1.94,8.85.5,14.25c0,0,0,2.41-2.94,1.54C1380.47,161.05,1377.64,148.62,1378.79,145.08Z"/><path class="cls-1" d="M1276.07,227c-2.57-22.92-20-31-38-32.85-1.12-6.55,2.3-15.24,2.3-15.24l-4.68-1c-.83,1.64-1.14,5.28-1.22,8.9-.9-3.69-3.67-8.37-11.53-11.31,0,0-12.72-2.75-24.62,1.92,0,0,6,17.34,36.18,15,0,.5,0,1,0,1.41-1-.05-1.92-.1-2.87-.13a37.42,37.42,0,0,0-12.45,2.16h0a35.61,35.61,0,0,0-4.37,1.71c-7.89,3.55-15.76,9.61-20.18,18.54-3.7,7.21-5.5,16.72-2.76,29.13,1.81,8.23,11.13,26.24,31.64,29.87l-.18-.11a48,48,0,0,0,6.84,1.07C1253,277.87,1279.65,259,1276.07,227Z"/><path class="cls-2" d="M1239,188.35c-13.29-.36-40.14,10.86-40.59,37.69-.46,27,17.37,42.94,39.15,44.67,22.67,1.8,49.37-17.11,45.78-49.09C1280.51,196,1259.1,188.89,1239,188.35Z"/><path class="cls-3" d="M1275.34,214l0,0v0Z"/><path class="cls-3" d="M1271.76,214.51c-.56-1.27-.82-3.18.82-3.36s2,1.87,2.73,2.8C1275.59,216.07,1273.29,217.91,1271.76,214.51Z"/><path class="cls-3" d="M1275.31,213.93l-1-1.79A2.93,2.93,0,0,1,1275.31,213.93Z"/><path class="cls-3" d="M1274.41,220.49c-.14-.58-.17-1.55.64-1.57.57,0,.78.47.75,1a1.56,1.56,0,0,1-.07,1.31C1275.14,222.1,1274.56,221.08,1274.41,220.49Z"/><path class="cls-3" d="M1268.53,214.85a1.13,1.13,0,0,1,.88.77c.39.39.77,1,.57,1.47a.67.67,0,0,1-.17.24,1.05,1.05,0,0,0,0,.19l-.06-.18c-.45.32-1.15-.75-1.42-1.12S1267.45,214.67,1268.53,214.85Z"/><path class="cls-3" d="M1269.86,217.52l0,.08Z"/><path class="cls-3" d="M1268.31,210.94c.32.46.4,1.33-.18,1.56s-1.42-.73-1.61-1.2C1265.78,209.36,1268.06,210.2,1268.31,210.94Z"/><path class="cls-3" d="M1268.72,206.88c.31.19,1,.46,1,.91a.57.57,0,0,1-.37.54c-.27.29-1,.17-1.23.12-.59-.12-3.27-1.13-2.82-2C1265.79,205.42,1268.14,206.53,1268.72,206.88Z"/><path class="cls-3" d="M1272.21,207.24c-.63-.11-2.12-1.42-1.76-2.2s1.48-.11,1.84.27a2.1,2.1,0,0,1,.35.94C1272.88,206.79,1272.93,207.37,1272.21,207.24Z"/><path class="cls-3" d="M1276.63,217.14c-.3-1.27.77-1,1.29-.35v0c.4.25.93,1.45.27,1.77S1276.75,217.63,1276.63,217.14Z"/><path class="cls-3" d="M1276.8,223.86c0-.6.34-2.92,1.44-2.12a1,1,0,0,1,.31.73,4.09,4.09,0,0,1-.18,2.4C1277.62,226.65,1276.82,224.91,1276.8,223.86Z"/><path class="cls-3" d="M1270.8,219.71a2.59,2.59,0,0,1,1.29,1.25,3.57,3.57,0,0,1,.65,3c-.85,1.78-2.5-1.33-2.88-2C1269.3,221,1269.27,219.22,1270.8,219.71Z"/><path class="cls-3" d="M1265.66,217.47c.28.47.44,1.17.15,1.5-.6.73-1.85-.65-2.09-1.18C1262.78,215.78,1265.37,216.7,1265.66,217.47Z"/><path class="cls-3" d="M1262.43,201.12a.88.88,0,0,1,.45.86c-1.16.54-3.21-1-2.92-2.29A2,2,0,0,1,1262.43,201.12Z"/><path class="cls-3" d="M1263.4,208.3c-1.12-.39-3.59-2.13-2.75-3.55a2.53,2.53,0,0,1,2.06,1.29C1263.47,206.6,1264,207.49,1263.4,208.3Z"/><path class="cls-3" d="M1267,200.3a1.54,1.54,0,0,1,1.86,1.21,1,1,0,0,1,0,.86A2.06,2.06,0,0,1,1267,200.3Z"/><path class="cls-3" d="M1256.43,200.39c1.71,1.43-2.36,1.92-2.73.41C1253.37,199.45,1256.12,199.36,1256.43,200.39Z"/><path class="cls-3" d="M1275.06,227.88c.89,0,1,.79.88,1.57.53,1.71.45,4.68-1,4.23C1273.12,233.12,1274.29,228.9,1275.06,227.88Z"/><path class="cls-3" d="M1280.14,228.09c1.25,1.51-1.53,3.52-1.53.6C1278.61,226.87,1279.8,227.26,1280.14,228.09Z"/><path class="cls-3" d="M1267.86,226a1,1,0,0,1,0,1.16c-.89,0-2.39-1.2-2.15-2.27C1266.05,223.25,1268.09,224.66,1267.86,226Z"/><path class="cls-3" d="M1258.07,211l.18,0a1.6,1.6,0,0,1-.19.37c0,.22-.14.35-.31.3-1,.59-2.72-.76-1.54-1.57S1258,210.22,1258.07,211Z"/><path class="cls-3" d="M1244.56,196.24c2.17-.63,3.1,2.5,1.42,1.91C1244.74,198.1,1242.44,196.86,1244.56,196.24Z"/><path class="cls-3" d="M1269.19,239.06l.1-.54a3.37,3.37,0,0,1-.36,2.72c-.73-.32-1.5-3-.8-3.74C1269.18,236.34,1269.3,237.87,1269.19,239.06Z"/><path class="cls-3" d="M1256.82,222.26a.52.52,0,0,1-.69-.34c-.8-.49-2-1.76-.76-2.11S1257.13,221.46,1256.82,222.26Z"/><path class="cls-3" d="M1279.06,239a1.78,1.78,0,0,1-.41.71c-1.14-.4-3.17-2.49-1.21-3.41C1279.18,235.49,1279.68,237.72,1279.06,239Z"/><path class="cls-3" d="M1279.13,232.59v0a1,1,0,0,1,.3,1.5,1.39,1.39,0,0,1-1-1.86A1.23,1.23,0,0,1,1279.13,232.59Z"/><path class="cls-4" d="M1230.94,269.74c-20.5-3.63-29.83-21.64-31.64-29.86-8.58-38.94,27.31-49.39,27.31-49.39s-25.7,23.39-18.91,47.19A57.4,57.4,0,0,0,1230.94,269.74Z"/><path class="cls-5" d="M1249.53,190.71s2.15,1.92-.58,3.5-11.11,1-12.15-.92.4-3.82,4.1-3.8S1247.26,189.32,1249.53,190.71Z"/><ellipse class="cls-6" cx="1257.17" cy="213.42" rx="7.05" ry="10.18" transform="translate(16.37 507.41) rotate(-22.96)"/><path class="cls-7" d="M1248.9,191.33a3.12,3.12,0,0,1-1.59,2.47c-2,.93-6.44.07-6.44.07l1.38-2.23a3.21,3.21,0,0,0,1.79-.36,1.53,1.53,0,0,0,.54-.85Z"/><path class="cls-8" d="M1205.69,172.07s6,17.4,36.32,15c0,0,2.87-11.45-11.7-16.9C1230.31,170.15,1217.58,167.4,1205.69,172.07Z"/><path class="cls-9" d="M1243.06,172.56l4.68,1s-3.85,9.76-2.06,16.39c0,0-.44,2.76-3.64,1.22C1242,191.14,1241.1,176.4,1243.06,172.56Z"/><path class="cls-1" d="M1385.31,348.6c1.79-20-11.64-29.91-26.67-34.6.18-5.78,4.6-12.59,4.6-12.59l-3.82-1.64c-1,1.26-1.89,4.3-2.58,7.38-.13-3.31-1.68-7.78-7.88-11.64,0,0-10.37-4.55-21.33-2.63,0,0,2.07,15.82,28.26,19.06-.08.43-.15.84-.21,1.21-.8-.21-1.61-.42-2.42-.61a32.38,32.38,0,0,0-11-.31h0a30.17,30.17,0,0,0-4,.71c-7.34,1.65-15.1,5.46-20.42,12.31-4.41,5.51-7.59,13.31-7.4,24.37.12,7.33,5,24.3,21.81,30.95l-.13-.12a42.17,42.17,0,0,0,5.64,2.1C1356.78,388,1382.83,376.5,1385.31,348.6Z"/><path class="cls-10" d="M1360.42,309.25c-11.27-2.61-36.11,2.3-41.15,25.11-5.07,23,7.38,39.63,25.66,44.88,19,5.46,45.06-6,47.55-33.94C1394.47,322.93,1377.44,313.18,1360.42,309.25Z"/><path class="cls-11" d="M1339.41,377.26c-16.86-6.65-21.69-23.62-21.81-30.95-.57-34.7,31.85-37.39,31.85-37.39s-26,15.49-24.3,37A50,50,0,0,0,1339.41,377.26Z"/><path class="cls-5" d="M1369,313.08s1.5,2-1.11,2.88-9.63-1.1-10.19-2.89,1-3.19,4.15-2.53S1367.26,311.5,1369,313.08Z"/><ellipse class="cls-6" cx="1371.54" cy="333.77" rx="6.14" ry="8.86" transform="translate(-38.99 279.69) rotate(-11.48)"/><path class="cls-7" d="M1368.31,313.49a2.69,2.69,0,0,1-1.78,1.83c-1.88.45-5.5-1.05-5.5-1.05l1.56-1.66a2.81,2.81,0,0,0,1.59,0,1.37,1.37,0,0,0,.61-.63Z"/><path class="cls-8" d="M1334.79,289.58s2.08,15.87,28.39,19.08c0,0,4.44-9.28-7-16.45C1356.13,292.21,1345.75,287.66,1334.79,289.58Z"/><path class="cls-9" d="M1366.58,296.47l3.83,1.64s-5,7.66-4.6,13.63c0,0-.85,2.27-3.31.41C1362.5,312.15,1364.25,299.41,1366.58,296.47Z"/><path class="cls-1" d="M1513.59,411.31c6.57-19-4-31.84-17.5-40,1.58-5.57,7.52-11.11,7.52-11.11l-3.31-2.51c-1.28,1-2.88,3.71-4.3,6.53.68-3.24.26-7.95-4.82-13.2,0,0-9-6.93-20.06-7.72,0,0-1.81,15.84,22.81,25.33l-.5,1.13c-.73-.4-1.47-.8-2.21-1.17a32.08,32.08,0,0,0-10.58-3h0a31.9,31.9,0,0,0-4.08-.29c-7.53-.17-16,1.64-22.8,7-5.6,4.27-10.58,11.07-13.08,21.85-1.66,7.14-1.09,24.78,13.66,35.31l-.1-.15a41.53,41.53,0,0,0,5,3.41C1476.36,442.62,1504.42,437.77,1513.59,411.31Z"/><path class="cls-10" d="M1499,367.09c-10.31-5.26-35.6-6.51-46,14.39-10.49,21.06-2.45,40.24,14,49.76,17.13,9.92,45.19,5.07,54.36-21.4C1528.69,388.62,1514.53,375,1499,367.09Z"/><path class="cls-11" d="M1462.11,428c-14.74-10.54-15.32-28.18-13.66-35.31,7.85-33.81,40-28.56,40-28.56s-29,8.73-32.54,30A50,50,0,0,0,1462.11,428Z"/><path class="cls-5" d="M1506.33,372.88s1,2.31-1.77,2.53-9.08-3.41-9.19-5.28,1.74-2.85,4.63-1.44S1505.07,370.94,1506.33,372.88Z"/><ellipse class="cls-6" cx="1503.82" cy="393.58" rx="8.86" ry="6.14" transform="translate(1043.95 1878.47) rotate(-87.46)"/><path class="cls-7" d="M1505.6,373.12a2.69,2.69,0,0,1-2.17,1.35c-1.94,0-5.08-2.35-5.08-2.35l1.91-1.24s1,.55,1.54.39a1.35,1.35,0,0,0,.75-.47Z"/><path class="cls-8" d="M1478.88,341.8s-1.83,15.9,22.92,25.39c0,0,6.55-7.93-2.86-17.67C1498.94,349.52,1490,342.59,1478.88,341.8Z"/><path class="cls-9" d="M1508.05,356.19l3.31,2.52s-6.68,6.23-7.76,12.11c0,0-1.38,2-3.31-.41C1500.29,370.41,1505.07,358.47,1508.05,356.19Z"/><path class="cls-1" d="M1283.09,468.09c.06-6.17,4.63-13.55,4.63-13.55l-4.11-1.66c-1,1.36-1.92,4.63-2.6,7.92-.2-3.52-2-8.25-8.65-12.24,0,0-11.16-4.63-22.81-2.34,0,0,2.56,16.82,30.56,19.71-.07.47-.14.91-.2,1.31-.86-.21-1.73-.42-2.59-.61a34.5,34.5,0,0,0-11.73-.09h0a32,32,0,0,0-4.27.84c-7.8,1.92-16,6.15-21.52,13.57-4.58,6-9.84,24.87-7.27,24.63,22.57-2.09,22,10.32,25.66,29.51,0,0,2.18.46,2.09.38,2,.83,3-.18,5.13.38,20.41,5.42,44.82-1.63,46.87-31.44C1313.75,483,1299.21,472.76,1283.09,468.09Z"/><path class="cls-10" d="M1285.68,465.49c-12.08-2.53-38.47,3.25-43.35,27.68-4.91,24.61,8.73,42.11,28.34,47.31,20.4,5.42,47.93-7.41,50-37.22C1322.29,479.36,1303.91,469.33,1285.68,465.49Z"/><path class="cls-11" d="M1264.74,538.49c-18.12-6.72-23.64-24.72-23.93-32.53-1.36-37,33.16-40.58,33.16-40.58s-27.37,17.09-25.12,40A53.3,53.3,0,0,0,1264.74,538.49Z"/><path class="cls-5" d="M1294.87,469.4s1.64,2.11-1.12,3.1-10.3-1-10.94-2.87,1-3.42,4.37-2.78S1293,467.75,1294.87,469.4Z"/><ellipse class="cls-6" cx="1298.07" cy="491.41" rx="6.55" ry="9.45" transform="matrix(0.98, -0.22, 0.22, 0.98, -76.09, 296.1)"/><path class="cls-7" d="M1294.19,469.85a2.89,2.89,0,0,1-1.86,2c-2,.52-5.89-1-5.89-1l1.62-1.81a3,3,0,0,0,1.7,0,1.4,1.4,0,0,0,.63-.68Z"/><path class="cls-12" d="M1257.92,445.08s2.56,16.88,30.69,19.72c0,0,4.53-10-7.88-17.38C1280.73,447.42,1269.56,442.79,1257.92,445.08Z"/><path class="cls-12" d="M1292,451.74l4.12,1.66s-5.14,8.28-4.61,14.64c0,0-.86,2.44-3.53.5C1288,468.54,1289.54,454.92,1292,451.74Z"/><path class="cls-13" d="M728.87,495.07c0-5.57,4.18-12.23,4.18-12.23l-3.71-1.5c-.94,1.22-1.74,4.17-2.34,7.15-.19-3.18-1.77-7.46-7.82-11.06,0,0-10.08-4.18-20.6-2.11,0,0,2.31,15.19,27.6,17.8-.07.42-.13.82-.18,1.18-.78-.19-1.56-.38-2.34-.54a31.37,31.37,0,0,0-10.62-.08l0,0a31.55,31.55,0,0,0-5,1.08,35,35,0,0,0-15.69,9c-.24.24-.48.5-.72.76s-.58.61-.86.94c-4.66,5.44-8.21,7.81-7.06,7.91,32.12,2.66,4.65,40.27,21,46.34l-.13-.12a39.87,39.87,0,0,0,5.48,1.92c18.43,4.89,43.29-6.7,45.14-33.62C756.56,508.56,743.43,499.29,728.87,495.07Z"/><path class="cls-14" d="M517.67,470.38c-12.45-1.05-38.25,8-40.11,33.2-1.87,25.34,14,41.23,34.36,44,21.18,2.9,47.25-13.42,45.59-43.63C556.19,479.75,536.47,472,517.67,470.38Z"/><path class="cls-15" d="M505.72,546.33c-19.05-4.5-26.84-21.9-28.1-29.71-6-37,28.27-44.9,28.27-44.9S480.52,492.3,485.62,515A53.94,53.94,0,0,0,505.72,546.33Z"/><path class="cls-5" d="M527.39,473.15s1.91,1.92-.74,3.26-10.47.3-11.35-1.52.58-3.57,4.05-3.34S525.33,471.73,527.39,473.15Z"/><ellipse class="cls-16" cx="533.35" cy="494.87" rx="6.63" ry="9.57" transform="translate(-135.64 208.84) rotate(-19.71)"/><path class="cls-7" d="M526.76,473.69a2.91,2.91,0,0,1-1.62,2.24c-1.94.77-6-.27-6-.27l1.41-2a3,3,0,0,0,1.7-.24,1.42,1.42,0,0,0,.55-.76Z"/><path class="cls-17" d="M487.23,453.31s4.68,16.65,33.3,16c0,0,3.31-10.6-10.08-16.49C510.45,452.83,498.65,449.56,487.23,453.31Z"/><path class="cls-17" d="M522.28,455.77l4.34,1.16s-4.13,9-2.8,15.28c0,0-.56,2.56-3.48,1C520.34,473.16,520.24,459.27,522.28,455.77Z"/><path class="cls-14" d="M377.56,456.31c-9-.76-27.75,5.84-29.1,24.09s10.16,29.91,24.93,31.93a29.56,29.56,0,0,0,33.07-31.65C405.5,463.11,391.2,457.46,377.56,456.31Z"/><path class="cls-15" d="M368.89,511.41c-13.82-3.26-19.47-15.88-20.38-21.55C344.17,463,369,457.29,369,457.29s-18.4,14.92-14.7,31.39A39.12,39.12,0,0,0,368.89,511.41Z"/><path class="cls-5" d="M384.61,458.33a1.37,1.37,0,0,1-.53,2.36c-1.92,1-7.6.22-8.24-1.1s.42-2.59,2.94-2.43S383.12,457.29,384.61,458.33Z"/><ellipse class="cls-16" cx="388.93" cy="474.08" rx="4.81" ry="6.94" transform="translate(-137.09 158.92) rotate(-19.71)"/><path class="cls-7" d="M384.15,458.72a2.09,2.09,0,0,1-1.17,1.62c-1.41.56-4.38-.2-4.38-.2l1-1.46a2.2,2.2,0,0,0,1.23-.18,1,1,0,0,0,.4-.55Z"/><path class="cls-18" d="M355.48,443.94s3.39,12.07,24.15,11.61c0,0,2.4-7.7-7.31-12C372.32,443.58,363.76,441.22,355.48,443.94Z"/><path class="cls-18" d="M380.91,445.72l3.14.84s-3,6.5-2,11.08c0,0-.41,1.86-2.53.69C379.49,458.33,379.42,448.26,380.91,445.72Z"/><path class="cls-13" d="M169.13,439.51c-.93-17.08-13.47-23.79-26.71-25.92-.56-4.9,2.34-11.19,2.34-11.19l-3.42-.92c-.69,1.18-1.07,3.86-1.28,6.54-.51-2.77-2.37-6.35-8.06-8.86,0,0-9.31-2.57-18.32.39,0,0,3.68,13.08,26.16,12.62,0,.38,0,.74,0,1.06-.71-.08-1.42-.16-2.12-.22a27.81,27.81,0,0,0-9.33,1.08l0,0a29.24,29.24,0,0,0-4.29,1.49,31,31,0,0,0-12.79,9.6l-.56.75c-.22.31-.44.6-.65.91-3.5,5.29-5.64,12.62-4,22.67,1,6.17,7.14,19.9,22.17,23.45l-.13-.09a36.12,36.12,0,0,0,5,1.09A32.15,32.15,0,0,0,169.13,439.51Z"/><path class="cls-14" d="M142.64,418c-9.83-.83-30.18,6.35-31.65,26.2S122,476.68,138.1,478.88a32.16,32.16,0,0,0,36-34.43C173,425.34,157.47,419.2,142.64,418Z"/><path class="cls-15" d="M133.21,477.88c-15-3.55-21.18-17.28-22.17-23.44-4.71-29.2,22.3-35.43,22.3-35.43s-20,16.24-16,34.15A42.57,42.57,0,0,0,133.21,477.88Z"/><path class="cls-5" d="M150.31,420.14a1.5,1.5,0,0,1-.58,2.57c-2.09,1.05-8.27.24-9-1.2s.46-2.81,3.19-2.64S148.68,419,150.31,420.14Z"/><ellipse class="cls-16" cx="155.01" cy="437.28" rx="5.23" ry="7.55" transform="translate(-138.38 77.88) rotate(-19.71)"/><path class="cls-7" d="M149.81,420.57a2.29,2.29,0,0,1-1.28,1.76c-1.53.61-4.77-.21-4.77-.21l1.12-1.6a2.42,2.42,0,0,0,1.34-.19,1.09,1.09,0,0,0,.43-.6Z"/><path class="cls-19" d="M118.62,404.49s3.69,13.13,26.28,12.63c0,0,2.6-8.37-8-13C136.94,404.1,127.63,401.53,118.62,404.49Z"/><path class="cls-19" d="M146.28,406.43l3.42.91s-3.26,7.07-2.21,12.05c0,0-.44,2-2.75.75C144.74,420.14,144.67,409.19,146.28,406.43Z"/><path class="cls-13" d="M267.82,317.57c1.34-5.34,6.84-10.79,6.84-10.79l-3.22-2.3c-1.19,1-2.63,3.62-3.9,6.34.55-3.11,0-7.58-5-12.43,0,0-8.73-6.34-19.32-6.77,0,0-1.27,15.14,22.44,23.46-.16.39-.31.76-.44,1.1-.71-.37-1.42-.73-2.14-1.07A31,31,0,0,0,253,312.59h0a28.88,28.88,0,0,0-3.89-.16c-7.17.05-15.16,2-21.5,7.32-5.22,4.23-9.75,10.84-11.83,21.17-1.37,6.85-.32,23.62,14,33.23l-.09-.15a38.49,38.49,0,0,0,4.82,3.1c16.6,8.95,43.16,3.52,51.13-21.94C291.35,336.92,280.85,325,267.82,317.57Z"/><path class="cls-20" d="M271.1,315.11c-10-4.71-34.08-5.17-43.39,15s-1.17,38.37,14.78,47c16.59,8.95,43.16,3.52,51.13-21.94C300,334.75,286.13,322.23,271.1,315.11Z"/><path class="cls-21" d="M237.76,374.15c-14.34-9.61-15.4-26.39-14-33.23,6.5-32.4,37.21-28.33,37.21-28.33s-27.3,9.14-30.11,29.47A47.59,47.59,0,0,0,237.76,374.15Z"/><path class="cls-5" d="M278.27,320.41s1,2.17-1.62,2.46-8.74-3-8.9-4.76,1.57-2.77,4.37-1.51S277,318.6,278.27,320.41Z"/><ellipse class="cls-16" cx="276.47" cy="340.19" rx="8.44" ry="5.85" transform="translate(-67.58 611.83) rotate(-89.19)"/><path class="cls-7" d="M277.58,320.66a2.6,2.6,0,0,1-2,1.35c-1.84,0-4.91-2.09-4.91-2.09l1.79-1.24a2.75,2.75,0,0,0,1.48.33,1.23,1.23,0,0,0,.69-.47Z"/><path class="cls-19" d="M251.24,291.62s-1.29,15.19,22.55,23.5c0,0,6-7.73-3.24-16.73C270.55,298.39,261.82,292.05,251.24,291.62Z"/><path class="cls-19" d="M279.42,304.48l3.22,2.3s-6.18,6.12-7,11.75c0,0-1.26,1.94-3.17-.3C272.44,318.23,276.65,306.73,279.42,304.48Z"/><path class="cls-13" d="M492.36,338c1.29-7.58,8.33-15.76,8.33-15.76L496,319.43c-1.53,1.46-3.24,5.29-4.71,9.19.41-4.37-.87-10.52-8.3-16.69,0,0-12.84-7.87-27.62-7.3,0,0-.11,21.2,33.79,30.18-.17.56-.34,1.09-.49,1.57-1-.43-2.05-.85-3.08-1.24a43.29,43.29,0,0,0-14.42-2.39h0a40.62,40.62,0,0,0-5.43.21c-10,.86-20.88,4.48-29.11,12.54-6.8,6.46-12.38,16.16-14.14,30.77-1.15,9.67,2.16,32.9,23.17,44.69l-.1-.11a56.19,56.19,0,0,0,7,3.71c24.08,10.62,60.45.16,68.75-36.15C527.22,362.38,511.31,346.91,492.36,338Z"/><path class="cls-22" d="M499.22,335.14c-14.37-5.46-48-3.46-58.72,25.67-10.81,29.35,2.58,53.53,25.72,63.74,24.07,10.62,60.45.16,68.74-36.15C541.61,359.3,520.93,343.39,499.22,335.14Z"/><path class="cls-23" d="M459.31,421c-21-11.79-24.32-35-23.16-44.69,5.49-45.81,48.68-43.52,48.68-43.52s-37,15.73-38.66,44.32C444.62,403.61,459.31,421,459.31,421Z"/><path class="cls-5" d="M509.78,341.73s1.61,2.91-2,3.6-12.49-3.2-12.91-5.65,1.89-4,5.92-2.58S507.83,339.34,509.78,341.73Z"/><ellipse class="cls-16" cx="509.46" cy="369.44" rx="8.16" ry="11.78" transform="translate(-22.81 33.69) rotate(-3.7)"/><path class="cls-7" d="M508.85,342.15a3.61,3.61,0,0,1-2.67,2.1c-2.56.25-7.06-2.38-7.06-2.38l2.35-1.91a3.78,3.78,0,0,0,2.1.29,1.75,1.75,0,0,0,.91-.72Z"/><path class="cls-24" d="M469,304.63s-.11,21.28,34,30.23c0,0,7.5-11.42-6.34-22.93C496.63,311.93,483.78,304.06,469,304.63Z"/><path class="cls-24" d="M509.64,319.43l4.74,2.84s-7.93,9.2-8.5,17.12c0,0-1.54,2.85-4.45-.06C501.43,339.33,506,322.87,509.64,319.43Z"/><path class="cls-13" d="M796.21,173.55c-3.82-20.75-20.2-27-36.74-27.51-1.44-5.9,1.12-14,1.12-14l-4.33-.59c-.66,1.55-.71,4.89-.54,8.2-1.06-3.31-3.89-7.4-11.25-9.57,0,0-11.78-1.69-22.33,3.34,0,0,6.55,15.43,34,11.34,0,.47.09.9.13,1.3-.88,0-1.75,0-2.63.06a34.17,34.17,0,0,0-11.21,2.77h0a31.59,31.59,0,0,0-3.88,1.84c-7,3.75-13.75,9.79-17.2,18.21-2.91,6.82-3.93,15.61-.64,26.76,2.19,7.38,11.85,23.21,30.79,25.19l-.17-.09a42.52,42.52,0,0,0,6.31.54C778.41,221.47,801.54,202.49,796.21,173.55Z"/><path class="cls-22" d="M762.61,140c-12.14.54-35.91,12.5-34.59,37,1.33,24.68,18.61,38.05,38.6,38.22,20.79.18,43.92-18.79,38.59-47.73C800.93,144.26,781,139.18,762.61,140Z"/><path class="cls-23" d="M760.48,214.75c-18.94-2-28.61-17.81-30.79-25.2-10.34-35,21.72-46.81,21.72-46.81s-21.93,23-14.2,44.26A52.47,52.47,0,0,0,760.48,214.75Z"/><path class="cls-5" d="M772.33,141.46s2.08,1.61-.31,3.23-10.06,1.59-11.13-.06.11-3.51,3.49-3.72S770.17,140.34,772.33,141.46Z"/><ellipse class="cls-6" cx="780.77" cy="161.68" rx="6.45" ry="9.31" transform="translate(11.75 372.26) rotate(-27.01)"/><path class="cls-7" d="M771.79,142.06a2.86,2.86,0,0,1-1.28,2.36c-1.79,1-5.87.48-5.87.48l1.11-2.12a3,3,0,0,0,1.61-.45,1.38,1.38,0,0,0,.44-.8Z"/><path class="cls-25" d="M731.13,127.29s6.57,15.48,34.11,11.32c0,0,1.88-10.64-11.77-14.66C753.47,124,741.69,122.26,731.13,127.29Z"/><path class="cls-25" d="M765.25,125.32l4.34.58s-2.88,9.16-.82,15.09c0,0-.23,2.54-3.24,1.35C765.53,142.34,763.71,129,765.25,125.32Z"/><path class="cls-1" d="M981.07,367.26c-1.27-23.17-18.28-32.26-36.24-35.14-.75-6.64,3.18-15.18,3.18-15.18l-4.65-1.24c-.93,1.6-1.45,5.23-1.73,8.86-.69-3.76-3.21-8.61-10.93-12,0,0-12.62-3.48-24.84.53,0,0,5,17.75,35.48,17.12,0,.51,0,1,0,1.43-1-.11-1.92-.22-2.88-.3a37.43,37.43,0,0,0-12.62,1.46h0a35.12,35.12,0,0,0-4.49,1.47C913.21,337.36,905,343,900,351.72c-4.13,7-6.47,16.47-4.43,29.1,1.35,8.36,9.69,27,30.08,31.79l-.18-.12A47.91,47.91,0,0,0,932.3,414C955,417.06,982.85,399.59,981.07,367.26Z"/><path class="cls-22" d="M944,325.18c-12.92-1.09-39.7,8.36-41.62,34.47-1.93,26.3,14.55,42.78,35.68,45.67,22,3,49-13.94,47.3-45.29C984,334.89,963.51,326.81,944,325.18Z"/><path class="cls-23" d="M931.61,404c-19.77-4.66-27.86-22.72-29.17-30.83-6.21-38.4,29.33-46.6,29.33-46.6s-26.33,21.36-21,44.92A56,56,0,0,0,931.61,404Z"/><path class="cls-5" d="M954.08,328.06s2,2-.76,3.37-10.87.32-11.78-1.57.6-3.7,4.2-3.47S952,326.58,954.08,328.06Z"/><ellipse class="cls-6" cx="960.27" cy="350.6" rx="6.88" ry="9.93" transform="translate(-61.98 344.62) rotate(-19.72)"/><path class="cls-7" d="M953.43,328.62a3,3,0,0,1-1.68,2.32c-2,.8-6.27-.28-6.27-.28l1.46-2.1a3.13,3.13,0,0,0,1.76-.25,1.54,1.54,0,0,0,.58-.8Z"/><path class="cls-25" d="M912.4,307.48s4.86,17.27,34.56,16.6c0,0,3.43-11-10.47-17.11C936.49,307,924.25,303.58,912.4,307.48Z"/><path class="cls-25" d="M948.78,310l4.5,1.2s-4.29,9.3-2.9,15.86c0,0-.59,2.66-3.62,1C946.76,328.06,946.66,313.65,948.78,310Z"/><path class="cls-1" d="M1188.8,403.14c-7.49-21.23-25.8-25.08-43.3-22.88-2.51-6-1.17-15-1.17-15l-4.66.11c-.44,1.74.07,5.26.8,8.72-1.67-3.31-5.33-7.15-13.45-8.21,0,0-12.7.19-23,7.25,0,0,9.48,15.16,37.69,6.29.13.47.24.92.36,1.33q-1.39.24-2.76.51a36.51,36.51,0,0,0-11.36,4.79h0a33.11,33.11,0,0,0-3.78,2.59c-6.72,5.11-12.86,12.6-15.1,22.06-1.93,7.67-1.54,17.1,3.79,28.3,3.53,7.41,16.36,22.48,36.65,21.42l-.2-.07a46.6,46.6,0,0,0,6.74-.48C1178,456.6,1199.25,432.75,1188.8,403.14Z"/><path class="cls-22" d="M1142.37,374.18c-12.71,2.59-35.76,19.16-30.29,44.76,5.52,25.79,26,37,47.05,33.84,21.95-3.27,43.16-27.13,32.71-56.74C1183.47,372.3,1161.56,370.28,1142.37,374.18Z"/><path class="cls-23" d="M1152.59,453.33c-20.29,1.06-33.11-14-36.65-21.42-16.72-35.12,15.09-53,15.09-53s-19.28,27.88-7.59,49A56,56,0,0,0,1152.59,453.33Z"/><path class="cls-5" d="M1152.86,374.12s2.46,1.35.21,3.46-10.34,3.35-11.74,1.79-.47-3.72,3.05-4.51S1150.4,373.3,1152.86,374.12Z"/><ellipse class="cls-6" cx="1165.12" cy="394.02" rx="6.88" ry="9.93" transform="translate(-9.05 760.19) rotate(-36)"/><path class="cls-7" d="M1152.39,374.84a3,3,0,0,1-1,2.7c-1.71,1.33-6.1,1.49-6.1,1.49l.81-2.43s1.26-.21,1.63-.73a1.54,1.54,0,0,0,.32-.93Z"/><path class="cls-25" d="M1107.08,366.05s9.51,15.22,37.83,6.25c0,0,.21-11.53-14.85-13.49C1130.06,358.81,1117.36,359,1107.08,366.05Z"/><path class="cls-25" d="M1142.71,358.29l4.66-.11s-1.51,10.13,1.66,16c0,0,.19,2.71-3.2,2C1145.83,376.18,1141.69,362.37,1142.71,358.29Z"/><path class="cls-13" d="M1022.34,272.71c-6.74-19.09-23.2-22.55-38.94-20.56-2.26-5.38-1-13.49-1-13.49l-4.2.1c-.39,1.57.07,4.73.72,7.84-1.5-3-4.79-6.43-12.09-7.38,0,0-11.42.17-20.67,6.52,0,0,8.52,13.63,33.9,5.65.11.43.22.84.32,1.21-.83.14-1.66.28-2.48.45-3,.6-3.63-5-7.25-2.72l-5.58.25s-2.71,3-5.07,3.93c-8.61,3.42-15.39,12.65-16.72,21.29-1.78,11.53-.63,25.16,5.32,34.6,5.83,9.25,20.24,14.78,38.49,13.82l-.18-.05a41.38,41.38,0,0,0,6.06-.44C1012.65,320.79,1031.73,299.34,1022.34,272.71Z"/><path class="cls-13" d="M1058.16,265.88c-5.56-15.76-19.15-18.61-32.14-17-1.86-4.44-.87-11.13-.87-11.13l-3.46.08c-.32,1.29.06,3.9.59,6.47-1.24-2.46-3.95-5.3-10-6.09,0,0-9.42.14-17.06,5.38,0,0,7,11.25,28,4.66.09.36.18.7.27,1l-2,.37c-2.46.5-3-4.09-6-2.24l-4.61.21a14.9,14.9,0,0,1-4.18,3.24c-7.11,2.82-12.71,10.44-13.81,17.57-1.46,9.52-.51,20.76,4.4,28.56,4.81,7.63,16.7,12.2,31.76,11.41l-.14,0a33.93,33.93,0,0,0,5-.36A31.39,31.39,0,0,0,1058.16,265.88Z"/><path class="cls-26" d="M982.22,247.29c-11.15,2.27-31.36,16.81-26.56,39.25,4.84,22.61,22.76,32.44,41.26,29.68,19.24-2.88,37.84-23.79,28.68-49.76C1018.25,245.65,999.05,243.87,982.22,247.29Z"/><path class="cls-27" d="M991.18,316.7c-17.79.93-29-12.28-32.14-18.78-14.66-30.8,13.23-46.44,13.23-46.44s-16.91,24.45-6.65,43A49.16,49.16,0,0,0,991.18,316.7Z"/><path class="cls-5" d="M991.42,247.24s2.16,1.18.19,3-9.07,2.94-10.3,1.57-.41-3.26,2.67-4S989.26,246.52,991.42,247.24Z"/><ellipse class="cls-6" cx="1002.17" cy="264.69" rx="6.03" ry="8.71" transform="translate(35.85 639.69) rotate(-36)"/><path class="cls-7" d="M991,247.87a2.66,2.66,0,0,1-.85,2.37c-1.5,1.17-5.35,1.3-5.35,1.3l.72-2.12s1.1-.19,1.42-.65a1.35,1.35,0,0,0,.29-.81Z"/><path class="cls-28" d="M951.27,240.16s8.34,13.35,33.18,5.48c0,0,.18-10.1-13-11.83C971.43,233.81,960.29,234,951.27,240.16Z"/><path class="cls-28" d="M982.52,233.36l4.09-.1s-1.33,8.88,1.45,14.06c0,0,.16,2.39-2.8,1.72C985.26,249,981.62,236.94,982.52,233.36Z"/><path class="cls-10" d="M1020.74,233.86c-11.14,2.27-31.36,16.8-26.56,39.25,4.84,22.61,22.77,32.43,41.26,29.67,19.24-2.87,37.84-23.78,28.68-49.75C1056.78,232.21,1037.57,230.44,1020.74,233.86Z"/><path class="cls-29" d="M1029.7,303.26c-17.79.94-29-12.27-32.13-18.78-14.67-30.8,13.23-46.43,13.23-46.43s-16.91,24.45-6.65,43A49.07,49.07,0,0,0,1029.7,303.26Z"/><path class="cls-5" d="M1029.94,233.81s2.16,1.18.19,3-9.07,2.94-10.3,1.57-.41-3.26,2.68-3.95S1027.78,233.09,1029.94,233.81Z"/><ellipse class="cls-6" cx="1040.69" cy="251.26" rx="6.03" ry="8.71" transform="translate(51.1 659.77) rotate(-36)"/><path class="cls-7" d="M1029.53,234.44a2.67,2.67,0,0,1-.84,2.37c-1.51,1.16-5.35,1.3-5.35,1.3l.71-2.13s1.1-.18,1.42-.64a1.27,1.27,0,0,0,.29-.81Z"/><path class="cls-28" d="M989.8,226.73s8.33,13.35,33.17,5.48c0,0,.18-10.11-13-11.83C1010,220.38,998.81,220.54,989.8,226.73Z"/><path class="cls-28" d="M1021,219.93l4.09-.1s-1.32,8.88,1.45,14.06c0,0,.17,2.38-2.8,1.72C1023.78,235.61,1020.15,223.5,1021,219.93Z"/><path class="cls-13" d="M901,153c-3.82-20.75-20.2-27-36.73-27.51-1.45-5.9,1.11-14.05,1.11-14.05l-4.33-.59c-.66,1.56-.7,4.89-.54,8.2-1.06-3.31-3.89-7.4-11.25-9.57,0,0-11.78-1.69-22.33,3.34,0,0,6.55,15.43,34,11.34,0,.47.09.9.13,1.3-.88,0-1.75,0-2.63.06a34.23,34.23,0,0,0-11.21,2.77h0a30.51,30.51,0,0,0-3.87,1.85c-7,3.74-13.75,9.78-17.21,18.21-2.91,6.81-3.93,15.6-.64,26.75,2.19,7.38,11.86,23.21,30.79,25.19l-.17-.08a43.91,43.91,0,0,0,6.31.53C883.21,200.94,906.34,182,901,153Z"/><path class="cls-22" d="M866,118.69c-12.14.54-35.92,12.5-34.6,37,1.33,24.68,18.62,38.05,38.6,38.22,20.8.18,43.93-18.79,38.59-47.73C904.34,123,884.35,117.89,866,118.69Z"/><path class="cls-23" d="M863.89,193.46c-18.94-2-28.61-17.81-30.79-25.2-10.34-35,21.72-46.81,21.72-46.81s-21.93,23-14.2,44.26A52.47,52.47,0,0,0,863.89,193.46Z"/><path class="cls-5" d="M875.74,120.17s2.08,1.62-.31,3.23-10.06,1.59-11.14-.06.12-3.51,3.49-3.72S873.58,119.05,875.74,120.17Z"/><ellipse class="cls-6" cx="884.17" cy="140.39" rx="6.45" ry="9.31" transform="translate(32.7 416.91) rotate(-27.01)"/><path class="cls-7" d="M875.2,120.77a2.85,2.85,0,0,1-1.29,2.36c-1.78,1-5.86.48-5.86.48l1.11-2.12s1.19,0,1.61-.45a1.47,1.47,0,0,0,.44-.8Z"/><path class="cls-25" d="M834.54,106s6.57,15.48,34.11,11.32c0,0,1.87-10.64-11.77-14.66C856.88,102.66,845.09,101,834.54,106Z"/><path class="cls-25" d="M868.66,104l4.33.58s-2.88,9.16-.81,15.09c0,0-.23,2.54-3.25,1.35C868.93,121.05,867.12,107.66,868.66,104Z"/><path class="cls-13" d="M689.05,297.76c1-5.76,6.32-12,6.32-12l-3.6-2.17c-1.17,1.12-2.48,4.05-3.59,7,.33-3.33-.62-8-6.28-12.72,0,0-9.75-6-21-5.54,0,0-.08,16.1,25.66,22.92l-.37,1.18c-.78-.32-1.56-.64-2.34-.94a32.71,32.71,0,0,0-11-1.81h0a31.51,31.51,0,0,0-4.12.16c-7.57.65-15.85,3.4-22.1,9.52-5.16,4.91-9.41,12.27-10.73,23.36-.88,7.34,1.63,25,17.58,33.93l-.12-.15a41.66,41.66,0,0,0,5.36,2.88c18.28,8.06,45.89.11,52.19-27.44C715.51,316.24,703.43,304.5,689.05,297.76Z"/><path class="cls-30" d="M696,295.56c-10.91-4.14-36.43-2.62-44.58,19.49-8.2,22.28,2,40.64,19.53,48.39,18.27,8.06,45.89.11,52.18-27.44C728.21,313.9,712.51,301.83,696,295.56Z"/><path class="cls-31" d="M665.73,360.71c-16-8.95-18.46-26.59-17.58-33.93,4.17-34.77,37-33,37-33S657,305.68,655.76,327.38A50.43,50.43,0,0,0,665.73,360.71Z"/><path class="cls-5" d="M704.05,300.56s1.22,2.22-1.5,2.74-9.49-2.43-9.81-4.29,1.44-3.05,4.5-2S702.56,298.75,704.05,300.56Z"/><ellipse class="cls-16" cx="703.8" cy="321.6" rx="6.19" ry="8.94" transform="translate(-19.31 46.15) rotate(-3.7)"/><path class="cls-7" d="M703.34,300.89a2.72,2.72,0,0,1-2,1.59c-1.94.19-5.36-1.8-5.36-1.8l1.79-1.46a2.86,2.86,0,0,0,1.59.22,1.34,1.34,0,0,0,.69-.54Z"/><path class="cls-32" d="M673.09,272.4s-.09,16.15,25.78,23c0,0,5.7-8.67-4.81-17.41C694.06,277.94,684.31,272,673.09,272.4Z"/><path class="cls-32" d="M703.94,283.63l3.6,2.17s-6,7-6.46,13c0,0-1.16,2.16-3.37,0C697.71,298.75,701.2,286.25,703.94,283.63Z"/><path class="cls-13" d="M316.1,155.62c1.34-5.35,6.84-10.8,6.84-10.8l-3.22-2.3c-1.19,1-2.63,3.62-3.9,6.34.55-3.1,0-7.57-5-12.43,0,0-8.73-6.33-19.32-6.77,0,0-1.27,15.14,22.44,23.47l-.44,1.09c-.71-.36-1.42-.72-2.13-1.06a30.93,30.93,0,0,0-10.17-2.52h0a31,31,0,0,0-3.89-.16c-7.17.06-15.16,2-21.5,7.32C270.65,162,266.11,168.64,264,179c-1.37,6.84-.31,23.62,14,33.22l-.1-.14a39.35,39.35,0,0,0,4.83,3.1c16.59,8.94,43.16,3.52,51.13-21.94C339.63,175,329.14,163,316.1,155.62Z"/><path class="cls-20" d="M319,153.16c-10-4.71-34.08-5.18-43.39,15s-1.17,38.38,14.78,47c16.59,8.94,43.16,3.52,51.13-21.94C347.91,172.8,334,160.27,319,153.16Z"/><path class="cls-21" d="M285.66,212.19c-14.34-9.6-15.4-26.38-14-33.22,6.5-32.41,37.21-28.34,37.21-28.34s-27.3,9.15-30.1,29.47A47.59,47.59,0,0,0,285.66,212.19Z"/><path class="cls-5" d="M326.17,158.46s1,2.17-1.62,2.46-8.74-3-8.9-4.76,1.58-2.77,4.37-1.51S324.91,156.64,326.17,158.46Z"/><ellipse class="cls-16" cx="324.37" cy="178.23" rx="8.44" ry="5.85" transform="translate(141.58 500.06) rotate(-89.19)"/><path class="cls-7" d="M325.48,158.71a2.57,2.57,0,0,1-2,1.34c-1.84,0-4.91-2.09-4.91-2.09l1.79-1.24s1,.5,1.48.33a1.31,1.31,0,0,0,.7-.46Z"/><path class="cls-19" d="M299.14,129.66s-1.29,15.19,22.55,23.51c0,0,6-7.73-3.23-16.73C318.46,136.44,309.72,130.1,299.14,129.66Z"/><path class="cls-19" d="M327.32,142.52l3.23,2.3s-6.18,6.12-7,11.75c0,0-1.26,1.94-3.17-.29C320.34,156.28,324.55,144.78,327.32,142.52Z"/><path class="cls-1" d="M987.24,482.17c.06-5.58,4.2-12.25,4.2-12.25l-3.72-1.5c-.94,1.23-1.74,4.18-2.35,7.16-.19-3.18-1.77-7.46-7.83-11.07,0,0-10.1-4.19-20.63-2.12,0,0,2.31,15.22,27.64,17.83-.07.43-.13.82-.18,1.19-.78-.2-1.56-.39-2.35-.55a31.43,31.43,0,0,0-10.63-.08l0,0a31.77,31.77,0,0,0-5,1.08,35.1,35.1,0,0,0-15.71,9c-.25.24-.49.5-.73.76s-.58.61-.86.94C944.43,498,941,514,943,514.17c20.46,1.86,5.27,25.28,21.67,31.36a15,15,0,0,1-1.76,1.25,41.89,41.89,0,0,0,5.49,1.92c18.46,4.9,43.37-6.71,45.22-33.68C1015,495.69,1001.83,486.4,987.24,482.17Z"/><path class="cls-14" d="M987.15,483.33c-10.92-2.29-34.8,2.94-39.21,25-4.44,22.27,7.89,38.1,25.63,42.81,18.46,4.9,43.37-6.71,45.22-33.68C1020.27,495.87,1003.65,486.8,987.15,483.33Z"/><path class="cls-15" d="M968.22,549.37c-16.4-6.09-21.4-22.37-21.66-29.44-1.23-33.46,30-36.7,30-36.7s-24.75,15.46-22.72,36.14A48.24,48.24,0,0,0,968.22,549.37Z"/><path class="cls-5" d="M995.47,486.86s1.48,1.91-1,2.81-9.32-.88-9.9-2.6.9-3.09,4-2.51S993.8,485.37,995.47,486.86Z"/><ellipse class="cls-16" cx="998.36" cy="506.77" rx="5.92" ry="8.55" transform="translate(-86.73 230.86) rotate(-12.65)"/><path class="cls-7" d="M994.85,487.27a2.64,2.64,0,0,1-1.68,1.81c-1.81.46-5.33-.91-5.33-.91l1.47-1.64a2.69,2.69,0,0,0,1.53,0,1.29,1.29,0,0,0,.58-.61Z"/><path class="cls-33" d="M962,464.86s2.32,15.27,27.76,17.85c0,0,4.1-9-7.13-15.73C982.67,467,972.58,462.79,962,464.86Z"/><path class="cls-33" d="M992.85,470.89l3.72,1.5s-4.65,7.49-4.17,13.24c0,0-.78,2.21-3.19.46C989.21,486.09,990.65,473.76,992.85,470.89Z"/><path class="cls-14" d="M730.91,497.25c-10.91-2.29-34.74,2.93-39.15,25-4.43,22.22,7.88,38,25.59,42.73,18.43,4.89,43.29-6.7,45.14-33.62C764,509.77,747.38,500.71,730.91,497.25Z"/><path class="cls-15" d="M712,563.17c-16.37-6.07-21.35-22.33-21.61-29.38-1.23-33.41,29.94-36.64,29.94-36.64s-24.71,15.43-22.68,36.08A48.11,48.11,0,0,0,712,563.17Z"/><path class="cls-5" d="M739.21,500.77s1.48,1.91-1,2.8-9.3-.87-9.88-2.58.9-3.1,3.95-2.52S737.54,499.29,739.21,500.77Z"/><ellipse class="cls-16" cx="742.1" cy="520.65" rx="5.91" ry="8.53" transform="translate(-95.98 175.09) rotate(-12.65)"/><path class="cls-7" d="M738.59,501.18a2.62,2.62,0,0,1-1.68,1.81c-1.8.46-5.32-.91-5.32-.91l1.47-1.64a2.66,2.66,0,0,0,1.53,0,1.33,1.33,0,0,0,.58-.62Z"/><path class="cls-34" d="M705.84,478.81s2.31,15.25,27.72,17.82c0,0,4.08-9-7.12-15.71C726.44,480.92,716.36,476.74,705.84,478.81Z"/><path class="cls-34" d="M736.59,484.83l3.72,1.5s-4.64,7.48-4.16,13.22c0,0-.78,2.2-3.19.45C733,500,734.4,487.7,736.59,484.83Z"/><path class="cls-35" d="M554.84,297.92s-15.35,1.51-19.25,26.74c0,0,8.8,4.56,16.06-6.28C551.65,318.38,556.35,308.53,554.84,297.92Z"/><path class="cls-36" d="M1315,418.7s-15.33,1.69-18.93,27c0,0,8.85,4.45,16-6.47C1312.07,439.2,1316.66,429.29,1315,418.7Z"/><path class="cls-36" d="M1172.74,343s-15.41.36-21.19,25.23c0,0,8.43,5.2,16.48-5.07C1168,363.18,1173.46,353.71,1172.74,343Z"/><path class="cls-37" d="M584.38,437.49s8.45,15.54-13,35.5c0,0-10-5.41-4.37-19.29C567,453.7,573.33,442.89,584.38,437.49Z"/></g></svg>