<svg id="Layer_1" data-name="Layer 1" xmlns="http://www.w3.org/2000/svg" xmlns:xlink="http://www.w3.org/1999/xlink" viewBox="0 0 512 512"><defs><style>.cls-1,.cls-22,.cls-31,.cls-32,.cls-37,.cls-39,.cls-40,.cls-41,.cls-42,.cls-43{fill:none;}.cls-2{clip-path:url(#clip-path);}.cls-27,.cls-3,.cls-7{fill:#8f6f73;}.cls-27,.cls-3,.cls-4,.cls-40,.cls-43{stroke:#262626;}.cls-10,.cls-11,.cls-14,.cls-21,.cls-22,.cls-26,.cls-27,.cls-3,.cls-31,.cls-32,.cls-37,.cls-39,.cls-4,.cls-40,.cls-41,.cls-42,.cls-43,.cls-44,.cls-7,.cls-9{stroke-miterlimit:10;}.cls-10,.cls-11,.cls-21,.cls-22,.cls-26,.cls-3,.cls-31,.cls-32,.cls-39,.cls-4,.cls-43,.cls-44,.cls-7{stroke-width:0.58px;}.cls-4,.cls-8{fill:#f5f2ef;}.cls-5{fill:#bfb19d;}.cls-44,.cls-6{fill:#907175;}.cls-32,.cls-37,.cls-7{stroke:#232323;}.cls-10,.cls-26,.cls-9{fill:#f38590;}.cls-26,.cls-9{stroke:#712313;}.cls-9{stroke-width:0.55px;}.cls-10{stroke:#bc554a;}.cls-11,.cls-22{stroke:#302f2f;}.cls-11{fill:url(#linear-gradient);}.cls-12{fill:url(#linear-gradient-2);}.cls-13{fill:#252624;}.cls-14{stroke:#353535;fill:url(#linear-gradient-3);}.cls-14,.cls-40,.cls-41,.cls-42{stroke-width:0.78px;}.cls-15{fill:url(#linear-gradient-4);}.cls-16{fill:url(#linear-gradient-5);}.cls-17{fill:#030303;}.cls-18{fill:#fff;}.cls-19{fill:#fcfdff;}.cls-20{fill:#ee3e3d;}.cls-21{fill:#f28087;stroke:#922f1e;}.cls-23{fill:#302f2f;}.cls-24{fill:#795961;}.cls-25{fill:#422f2a;}.cls-27,.cls-37{stroke-width:0.39px;}.cls-28{fill:#262626;}.cls-29{fill:#75555c;}.cls-30{fill:#3d2d2b;}.cls-31{stroke:#1b1c1c;}.cls-33{fill:#74545b;}.cls-34{fill:#232323;}.cls-35{fill:#3a2528;}.cls-36{fill:#593f44;}.cls-38{fill:#282827;}.cls-39,.cls-41,.cls-44{stroke:#282827;}.cls-42{stroke:#30302f;}</style><clipPath id="clip-path"><rect class="cls-1" x="-1620" width="1600" height="900"/></clipPath><linearGradient id="linear-gradient" x1="225.14" y1="225.99" x2="280.87" y2="225.99" gradientTransform="translate(-95.03 -14.2) rotate(-3.54)" gradientUnits="userSpaceOnUse"><stop offset="0" stop-color="#4e1211"/><stop offset="0.31" stop-color="#471312"/><stop offset="0.69" stop-color="#200d0c"/><stop offset="0.98" stop-color="#680c0c"/></linearGradient><linearGradient id="linear-gradient-2" x1="230.11" y1="130.03" x2="207.05" y2="210.13" gradientTransform="translate(-95.03 -14.2) rotate(-3.54)" gradientUnits="userSpaceOnUse"><stop offset="0" stop-color="#4a240d"/><stop offset="0.05" stop-color="#684834"/><stop offset="0.12" stop-color="#8d7465"/><stop offset="0.18" stop-color="#ad9b90"/><stop offset="0.25" stop-color="#c7bab2"/><stop offset="0.32" stop-color="#dbd3cd"/><stop offset="0.39" stop-color="#eae4e0"/><stop offset="0.46" stop-color="#f2efeb"/><stop offset="0.54" stop-color="#f5f2ef"/></linearGradient><linearGradient id="linear-gradient-3" x1="311.08" y1="131.91" x2="294.24" y2="198.52" gradientTransform="translate(-95.03 -14.2) rotate(-3.54)" gradientUnits="userSpaceOnUse"><stop offset="0" stop-color="#4a240d"/><stop offset="0.54" stop-color="#f5f2ef"/></linearGradient><linearGradient id="linear-gradient-4" x1="223.91" y1="143.21" x2="218.38" y2="194.49" gradientTransform="translate(-85.42 -28.22)" gradientUnits="userSpaceOnUse"><stop offset="0" stop-color="#4a240d"/><stop offset="0.64" stop-color="#9b6a33"/></linearGradient><linearGradient id="linear-gradient-5" x1="302.59" y1="152.07" x2="297.07" y2="203.36" gradientTransform="translate(-85.03 -33.1)" xlink:href="#linear-gradient-4"/></defs><g id="c"><path class="cls-3" d="M110.78,193.44q.5,5,.91,10.1c.3,3.79.56,7.53.78,11.2l10.79,4.12a46.73,46.73,0,0,1-4.12,4.08c-2.84,2.5-4.43,3.28-6,4.64a18.72,18.72,0,0,0-5.61,9.33l2.93.25a189.36,189.36,0,0,0-4.54,42.25c.31,49.64,20.79,71.73,24.12,121.12,1.29,19,2.31,53.37-4.1,58.76-4.62,2.06-17.17,4.88-11.54,22.59,1.79,2.82,3.07,2.82,5.89,4.1,7.19,9,17.45,1.28,17.45,1.28s5.39,5.91,19.5,0c3.85-4.61,8.73-10.52,10-28.74,0,0,2.81-36.24,2.6-37.75l-.22-1.51a66.41,66.41,0,0,0,4.15,6.71,68,68,0,0,0,15.77,15.94c-.83,3.63-1.89,7.55-3.28,11.69-1.12,3.36-2.32,6.46-3.53,9.31-2.24.28-8.55,1.4-13,6.65-5.8,6.83-6.09,17.86-2.78,19.61,1.14.61,3.85.62,11.09-6.69,4.1,6.91,13.17,5.4,15.33,4.32,6.9,2.37,15.32,3,19.85-2.16a38.71,38.71,0,0,0,6.26-9.28s.21,4.32,7.33,5.83c2.59,7.55,11.66,5.39,15.54,3.88,14.24,4.1,23.3,0,28.27-5.83,0,0,23.73,2.59,39.92-7.12,9.49-6,12.3-10.35,12.3-10.35s9.28,9.49,45.1,8.2l-10.15-4.1s40.79,4.31,45.32,4.31l-11-5.83s39.06,6.91,44.24,9.93L432,465.87a33.84,33.84,0,0,0,20.71,11l13.6,1.94L457,472.34s18.34,6.9,35.82-.86c0,0-3.67-14.25-14.68-19.43,0,0,7.34.22,8.63,1.73s-16.4-28-47-26.54l12.3-.65s-11.43-11.87-35.82-8.2-49.63,9.93-51.35,10.14-22.23-1.07-28.06-4.1c0,0,.65-20.06-.64-30.21s-4.75-30.64-16-47-34.74-50.71-34.74-50.71L260,258.93l-9.49-15.32a75.1,75.1,0,0,0-5.66-12.34,76,76,0,0,0-12.05-15.75Z"/><path class="cls-4" d="M279.16,370.39c.07.19-8.12,1.72-16,7.75-4.32,3.32-8.4,7.89-9.1,7.31-.42-.35.83-2.21.19-2.82-.81-.76-3.39,1.62-4.26,1-1.18-.89,2.68-5.85,3.37-13.5.27-2.95.41-4.43,0-5.55-2.72-7.6-21.43-2.75-34.39-9.68-6.68-3.58-14.49-11.7-18.34-32.07,9.86-16,17.26-48.41,17.26-48.41l2.16,6.16,1.24-1.23c20.66-36.08,5.86-51.8,5.86-51.8s-10-1.14-13.11.8c-42.75,17.49-48-3.79-51.07-4s-24.38-8.7-24.38-8.7l-3,24.08,5.18-2.81-3,22.82,7.78-5.24s-13,20.06,2.22,44.89,25.94,37.05,29.27,49.65,1.86,17,1.86,17l-5.19-7,2.22,8.52c2.23,8.53.74,26.31.74,26.31s-5.18-10-5.55-11.11,4.81,28.53,4.81,28.53l-4.81-7.78,2.2,19a26.34,26.34,0,0,0,2.79,6.51,28.69,28.69,0,0,0,9.46,9.33c21.85,14.07,28.89,26,41.87,24.08,6.25-.91,6-3.89,16.56-8.46a74.1,74.1,0,0,1,28.09-6h1.85c-3.13-2.85-12.09-11.76-12.9-25.11a32.75,32.75,0,0,1,.71-9l-5.19,12.69a26.9,26.9,0,0,1-1.26-12,88,88,0,0,1,2.74-11.13c.41-1.44.76-2.63,1-3.43l-1.76,1.47q-3.19,2.65-6.38,5.25a23.58,23.58,0,0,1,2.4-11.44,27.65,27.65,0,0,1,5.05-6.8c4.33-4.58,8.39-6.72,8.22-7-.27-.45-9.25,5.4-10,4.41s5.88-8.74,15.36-13.11A26.91,26.91,0,0,1,279.16,370.39Z"/><path class="cls-5" d="M136,228.6l4.43.43a39.88,39.88,0,0,0,51.38,5.72c2.19-.51,4-1,5.21-1.34,1.39-.4,2.78-.83,5.5-1.68l4-1.26-1.35-2.94-13.11.8s-30.84,19.37-50.29-2.93l-5-1.94Z"/><path class="cls-6" d="M182.72,462.91c-2.49.74-11.92,3.87-15.72,12.66-.23.53-4,9.57-.07,13.6.81.83,3,2.49,5,2,1.66-.43,2.31-2.07,3.79-2a3.32,3.32,0,0,1,2.25,1.55l1.82.56q2.29.68,4.5,1.26a17.52,17.52,0,0,0,13.19,3.09,13.64,13.64,0,0,0,3.37-.14,15.72,15.72,0,0,0,5.06-2c10.55-6.53,20.46-43.42,20.46-43.42,1.86-6.91,4.76-17.49,8.63-30.64q1.65-11.77,3.29-23.55l3.95,9.17,2.79-28.35s3.57,10.84,3.57,9.59S252.23,353,252.23,353l3.18,7.92s4.77-20.84,2-37.52-2.39-12.5-2.39-12.5l-48.69-4.19c-10.84,17.4-13.49,31.71-13.89,41.57-.1,2.44.61,13,2,33.89,1.32,19.3,1.52,20.9,1.23,25.58,0,0-.07,1.18-.18,2.4a205.36,205.36,0,0,1-5.88,32.62A180.82,180.82,0,0,1,182.72,462.91Z"/><path class="cls-3" d="M83.47,115.71S81.87,89.8,80,82.27s-2.44-21.1,1.51-39.76,4.79-27.78,23.88-21.59q12.72,8,26,17.08Q144.23,46.79,156,55.51C112.34,91.08,98,104.85,96.11,109c-1,2.07-3.11,4.38-7.4,9-.49.53-1.46,1.55-2.56,1.4C84.4,119.16,83.58,116.14,83.47,115.71Z"/><path id="f" class="cls-7" d="M139.7,58.3c-.84.4-22.66,9.65-38.3,28-15.33,18.61-31.92,35.82-36.84,51.43S62,162.3,62,162.3l9.11-9.82s-7.09,9.11-1.5,28.19l5.18-11.51s-5.27,10,7.83,26.6L84.43,183s4.08,13.58,8.51,18.61c0,0,6.35,14.4,48.41,24.65a35,35,0,0,0,17.35,10.52c18.08,4.43,32.53-8.47,33.87-9.71,2.22.09,26.33-.52,44.51-14.5,11.39-12.88,15.2-22.87,15.2-22.87s2,10.73.79,12.8c0,0,12.27-12.94,11.25-25.72v-.23s4,3.3,3.36,11.32c0,0,5.62-20.07,1.34-28.44a38.13,38.13,0,0,1,7.29,10.4s5.46-11.91-2.74-29.87-7.4-15.8-7.4-15.8,6.45-27,7.15-43.19,3.08-20.57-.88-38-5-19.63-28.43-12c-12.61,7.43-38.17,25.62-38.17,25.62l-2.2,2.13s-13.66-6-25.18-6S145.72,53.63,139.7,58.3Z"/><path class="cls-8" d="M88.76,187.37c1.31-6.77,9-12.32,9.43-12.74,18.25-18.31,44.1-17.65,51-17.26,32,1.82,66.71-5.14,87.38,16.67,3.5,3.7,10.42,11.21,9.56,20.26-1.54,16.32-27.25,25.68-32.27,27.5A73.64,73.64,0,0,1,193,226.08l7.08-7.6a47.43,47.43,0,0,1-37.42,15L143.78,224a113.09,113.09,0,0,1-24.06-5.6,97.18,97.18,0,0,1-17.45-8.76A23.76,23.76,0,0,1,96.7,205c-1.21-1.42-2.89-3.78-2.88-3.79h0a19.54,19.54,0,0,1-2.14-2.5,15.5,15.5,0,0,1-3.06-6.91A15.17,15.17,0,0,1,88.76,187.37Z"/><path class="cls-9" d="M131.79,62.25a154,154,0,0,0-16.5-21.61,154.39,154.39,0,0,0-19.7-18.12A78.52,78.52,0,0,0,90,46.5a80.49,80.49,0,0,0,8.84,42.17,77.36,77.36,0,0,1,33-26.42Z"/><path class="cls-10" d="M173.19,179s-12.66-7.43-18.37-15.94c-2.23-8.08,4.14-10,7.09-11.25s19.82-4.62,27.69.37c6.1,4.24,11.31,8,3.75,15.19S177.06,181.46,173.19,179Z"/><path class="cls-11" d="M143,186.08a26.12,26.12,0,0,0,7.15,2.12,24,24,0,0,0,10.44-.58,42.07,42.07,0,0,0,7-3.07c1.59-.81,1.41-.89,2.59-1.41a3.66,3.66,0,0,0,1.56-.94,2.87,2.87,0,0,0,.55-1.9,25.39,25.39,0,0,0,14.53,8.92,24.82,24.82,0,0,0,12.14-.67c-.68,2.74-3.43,12.37-12.53,18.13a26.88,26.88,0,0,1-10.36,3.93c-6.8,1.06-11.5.4-15.14-1.43S155.13,204.56,151,199A90.74,90.74,0,0,1,143,186.08Z"/><path class="cls-12" d="M114.47,140.4s-.47-7.53,7.84-19.75c4.14-6.09,10.51-9.22,16.51-8.08,7.82,1.48,11.75,11.4,14.32,17.88a17.17,17.17,0,0,1,1.15,4.58,15.69,15.69,0,0,1-.5,5.95c-2,6.14-14.66,7.26-15.61,7.34C126.88,149.21,118,143.17,114.47,140.4Z"/><path class="cls-13" d="M114.47,140.4a23.83,23.83,0,0,1,1.33-7.32,46,46,0,0,1,2.92-6.87,58.79,58.79,0,0,1,3.88-6.39,20.79,20.79,0,0,1,2.46-2.85,18.74,18.74,0,0,1,2.95-2.36,15.55,15.55,0,0,1,7.08-2.54,14.32,14.32,0,0,1,3.81.16,11.74,11.74,0,0,1,3.57,1.37,17.41,17.41,0,0,1,5.4,5.27,40.1,40.1,0,0,1,3.61,6.58c.52,1.14,1,2.3,1.45,3.45a29.83,29.83,0,0,1,1.26,3.55,16.89,16.89,0,0,1,.22,7.55,7,7,0,0,1-1.75,3.45,12,12,0,0,1-3.09,2.25,26.79,26.79,0,0,1-7.15,2.3,30.52,30.52,0,0,1-14.86-.6A39.16,39.16,0,0,1,114.47,140.4Zm0,0a38.89,38.89,0,0,0,13.2,6.63,30,30,0,0,0,14.63.38,27.51,27.51,0,0,0,7-2.31,11.34,11.34,0,0,0,2.9-2.12,6.2,6.2,0,0,0,1.55-3.12,16,16,0,0,0-.24-7.22,27.1,27.1,0,0,0-1.25-3.46c-.47-1.14-.94-2.29-1.45-3.41a39.68,39.68,0,0,0-3.51-6.48,16.64,16.64,0,0,0-5.15-5.08,10.9,10.9,0,0,0-3.34-1.3,13.3,13.3,0,0,0-3.62-.17,13.84,13.84,0,0,0-3.54.78,14.87,14.87,0,0,0-3.28,1.6,17.39,17.39,0,0,0-2.89,2.25,19.83,19.83,0,0,0-2.44,2.74,60.16,60.16,0,0,0-4,6.28,45.55,45.55,0,0,0-3.07,6.75A23.51,23.51,0,0,0,114.47,140.4Z"/><path class="cls-14" d="M195.7,142.38s-.46-7.53,7.84-19.75c4.14-6.08,10.51-9.22,16.51-8.08,7.82,1.49,11.75,11.4,14.32,17.88a17.25,17.25,0,0,1,1.15,4.58,15.78,15.78,0,0,1-.5,6c-2.05,6.13-14.66,7.26-15.61,7.33C208.11,151.2,199.26,145.15,195.7,142.38Z"/><ellipse class="cls-15" cx="136.44" cy="134.04" rx="11.52" ry="12.53" transform="translate(-8.02 8.69) rotate(-3.54)"/><ellipse class="cls-16" cx="215.51" cy="138.03" rx="11.52" ry="12.53" transform="translate(-8.12 13.58) rotate(-3.54)"/><ellipse class="cls-17" cx="136.52" cy="135.36" rx="6.87" ry="6.24" transform="translate(-8.11 8.7) rotate(-3.54)"/><ellipse class="cls-17" cx="216.23" cy="139.17" rx="6.87" ry="6.24" transform="translate(-8.19 13.63) rotate(-3.54)"/><ellipse class="cls-18" cx="212.06" cy="133.81" rx="3.18" ry="3.12" transform="translate(-7.87 13.36) rotate(-3.54)"/><ellipse class="cls-19" cx="131.79" cy="131.56" rx="3.03" ry="2.62" transform="translate(-7.88 8.4) rotate(-3.54)"/><path class="cls-20" d="M162.75,171.48s12.54,4.58,26-12.13l2.36-6.54a11.48,11.48,0,0,1,1.78,1.3c.14.12,3.17,2.85,3.58,5.95.35,2.71-1.42,4.85-3.91,7.84a39.49,39.49,0,0,1-13.1,9.87c-1.44.74-2.67,1.29-3.53,1.65a32.71,32.71,0,0,1-13.18-7.94Z"/><path class="cls-21" d="M154.62,202.1s8.82-10.63,17.31-3.66c6.46-2.56,9.63-2.62,16,5.2C185.89,205.36,166.93,220.66,154.62,202.1Z"/><path class="cls-20" d="M183.45,198.83s-6.81,15.7-24.68,6.43c11.12,9.69,22.28,3.73,27.87-1.44C186.64,203.82,186,200,183.45,198.83Z"/><path class="cls-22" d="M129.15,171.84s13,28.85,42.57,10.36l.2-2.27s22.21,25.74,42.65-5.61"/><path class="cls-23" d="M123.77,172.17a8.83,8.83,0,0,0,3-.46,11.52,11.52,0,0,0,2.68-1.32,15.73,15.73,0,0,0,2.31-1.94c.36-.35.69-.74,1-1.12s.64-.8,1-1.19c-.24.46-.5.91-.76,1.36s-.59.85-.93,1.26a11.11,11.11,0,0,1-2.32,2.11,9,9,0,0,1-2.88,1.27A6.3,6.3,0,0,1,123.77,172.17Z"/><path class="cls-23" d="M211.75,168.23A6.62,6.62,0,0,0,213.2,171a13.7,13.7,0,0,0,2.23,2.14,29.45,29.45,0,0,0,2.58,1.78l2.75,1.62c-.52-.13-1-.31-1.55-.47s-1-.4-1.49-.62-.95-.51-1.43-.77-.92-.58-1.34-.93a10,10,0,0,1-2.24-2.39A5,5,0,0,1,211.75,168.23Z"/><path class="cls-5" d="M118.51,218.05c-2.19-1.09-4.21-2.21-6-3.31A18.12,18.12,0,0,0,118.51,218.05Z"/><path class="cls-5" d="M241.7,206.39c2-2.66,3.41-5.73,5.17-8.57a2.6,2.6,0,0,1,1-.94c.46-1,.9-2,1.27-2.88-.1-.4-.21-.81-.33-1.21a36.84,36.84,0,0,0-2.7-6.87,72.74,72.74,0,0,1-25.26,23.74,71,71,0,0,1-16.8,6.72l-.49-4c-38.72,30-60.42,11.18-68.66,3-1.27.86-7.54,4.87-15.2,3-.42-.1-.82-.21-1.21-.34a90.45,90.45,0,0,0,13.33,5.43,92.6,92.6,0,0,0,10,2.55,34.74,34.74,0,0,0,15,9.39,34.33,34.33,0,0,0,13.79,1.29,42.56,42.56,0,0,0,19.17-8.15,41.23,41.23,0,0,0,7-6.9l-3.8,5.18.78,0a2.84,2.84,0,0,1,.67-.12c1.2,0,2.4-.11,3.6-.19a2.68,2.68,0,0,1,1-.35c6-1,12-1.73,17.88-3.38a61.77,61.77,0,0,0,10.81-4.64,88.65,88.65,0,0,0,7.63-4.87A61.42,61.42,0,0,0,241.7,206.39Z"/><path class="cls-24" d="M245.07,186.33l7.53-16.5s3.69,5.72,3.27,7.82c0,0,4-11.86,2.86-16.4s2.61,3.41,2.61,3.41S264,150,262,145.1l3.53,1.47s-5-20.29-16.69-36.78-42.4-51.93-42.4-51.93,20.37,8.5,47,50.09a78.59,78.59,0,0,1,10.36,13.24c2.3,3.69,4.57,9,9.1,19.73,3.86,9.09,4.49,11.17,4.8,14a32.75,32.75,0,0,1-1.69,14.3,20,20,0,0,0-2.25-5.11,19.72,19.72,0,0,0-5-5.39,34,34,0,0,1,1.68,7.84,41.3,41.3,0,0,1-.63,10.69,70.29,70.29,0,0,1-2.17,9.67,10.5,10.5,0,0,0-.86-6.82,9.85,9.85,0,0,0-2.59-3.21,37.24,37.24,0,0,1-1.57,8.83,38.48,38.48,0,0,1-9.32,15.61c-.58-1.51-.63-2.08-.54-2.29l.18-.41h0l-.31-11.48-4.8,9.37Z"/><path d="M121.47,104.07A17.44,17.44,0,0,1,127,98.51,15.51,15.51,0,0,1,134.57,96a15.69,15.69,0,0,1,7.82,1.67,20.82,20.82,0,0,1,6.25,4.73,35.1,35.1,0,0,0-6.73-3.62,17.59,17.59,0,0,0-3.59-1,14.07,14.07,0,0,0-3.66-.23,17.14,17.14,0,0,0-7.07,2A26.61,26.61,0,0,0,121.47,104.07Z"/><path d="M203.42,104.26A16.4,16.4,0,0,1,210,99.75a17.4,17.4,0,0,1,8-1.12,19.43,19.43,0,0,1,7.68,2.54,10.42,10.42,0,0,1,1.69,1.1l1.59,1.19c1,.9,1.91,1.85,2.79,2.82-1.16-.65-2.23-1.38-3.33-2l-1.71-.89a10.79,10.79,0,0,0-1.71-.83q-.88-.35-1.74-.72c-.58-.24-1.2-.36-1.8-.55-.3-.08-.59-.18-.89-.27s-.61-.1-.91-.16c-.62-.08-1.22-.25-1.84-.27l-1.85-.12-1.85.1c-.62,0-1.23.17-1.85.24s-1.22.29-1.83.41A26,26,0,0,0,203.42,104.26Z"/><path class="cls-25" d="M195.08,139.13a58.57,58.57,0,0,1,6-16.06,32.4,32.4,0,0,1,5.35-7c.28-.26.53-.53.83-.77l.91-.7a15,15,0,0,1,1.93-1.28,19.63,19.63,0,0,1,2.12-1,14.17,14.17,0,0,1,2.32-.62,12.88,12.88,0,0,1,9.14,2.07,21.86,21.86,0,0,1,6.15,6.54,36.08,36.08,0,0,1,5.13,16.38,50.44,50.44,0,0,0-7.13-15,21.33,21.33,0,0,0-5.73-5.42,9.94,9.94,0,0,0-7-1.49,13.12,13.12,0,0,0-6.64,3.48,34.42,34.42,0,0,0-5.29,6.13A114.42,114.42,0,0,0,195.08,139.13Z"/><path class="cls-25" d="M118.24,129.89A29.12,29.12,0,0,1,123,115.58a17,17,0,0,1,5.89-5.35,14,14,0,0,1,8-1.51,16.53,16.53,0,0,1,7.5,3,21.5,21.5,0,0,1,5.4,5.7,27.91,27.91,0,0,1,4.41,14.4,38.66,38.66,0,0,0-6.37-13,21.71,21.71,0,0,0-5.1-4.68,13.9,13.9,0,0,0-6.2-2.34c-4.39-.63-8.68,1.67-11.66,5.25a29.92,29.92,0,0,0-3.85,6A66.73,66.73,0,0,0,118.24,129.89Z"/><path class="cls-20" d="M95.59,22.52a142.11,142.11,0,0,1,3.91,13.9c.83,3.63,1.47,7.11,2,10.38h0q-.31,9.63-.66,19.26l-.69,19A150,150,0,0,1,118.2,69.67a148,148,0,0,1,13-8.37c-1.16-1.8-2.79-4.26-4.85-7.1a124.37,124.37,0,0,0-11-13.56c-2.06-2.17-5.05-4.9-11-10.34C100.68,27.05,97.69,24.38,95.59,22.52Z"/><path class="cls-26" d="M225.93,70.9s13.31-26.17,34.18-36.28c1.34,8.18,10.49,49.22-7.28,69.34C249.33,100.87,227.79,70.79,225.93,70.9Z"/><path id="f-2" data-name="f" class="cls-20" d="M260.1,35c1.52,1.3-6.87,10.16-11,22-3.95,11.47-4.18,26.64,4.58,46.88-4.62-5.18-9.33-10.68-14.07-16.51-4.56-5.62-8.84-11.15-12.84-16.54a104.74,104.74,0,0,1,15.74-22C249.37,41.51,258.6,33.72,260.1,35Z"/><path class="cls-27" d="M189.53,441.91c-2.5-1.12-17.25-8.06-20.93-23-1.86-7.56,0-13.71,3.43-25.41,1.09-3.69,3.89-13.13,7.05-13,1.15,0,1.93,1.34,2.34,2,2.08,3.24,6,7.64,14.07,12.83a157.18,157.18,0,0,1-1.31,24.15A158.29,158.29,0,0,1,189.53,441.91Z"/><path class="cls-28" d="M137.35,488.23a39.1,39.1,0,0,1-.25-6.75,26.35,26.35,0,0,1,1.1-6.65,11.07,11.07,0,0,1,3.6-5.61,8.15,8.15,0,0,1,3-1.44,11,11,0,0,1,3.34-.23,11.28,11.28,0,0,0-3.33.3,8.12,8.12,0,0,0-3,1.48,10.92,10.92,0,0,0-3.41,5.59,25.63,25.63,0,0,0-.94,6.58,39.92,39.92,0,0,0,.38,6.65Z"/><path class="cls-29" d="M258.07,331.4c-.13-5.65-3-23.18-3-23.18L253.29,303l-3.74,35.6-2.41-1.13-3.08,30.87-4.79-2.25-1.68,23.43-3-1.8S226.2,448.47,216.47,465c-3,15-9.74,25-14.28,26.31a23,23,0,0,1-5.33.78,19.89,19.89,0,0,1-6.5-1,31.91,31.91,0,0,1,.28,4.17c0,.72.87,1.82.4,2.72-.12.23-.32.45-.25.7s.77.53,1.33.59a19.21,19.21,0,0,0,3.42,1.07,22.12,22.12,0,0,0,8.13.11c4.8-1,7.81-6.9,10.37-12.61a196.39,196.39,0,0,0,10-28.79c1.46-5.16,3.73-12.73,7-21.9,0,0,6.78-27.16,6.57-30.49s0-11.12,0-11.12l4.14,9.41,2.92-29.09,3.75,9.84,3.76-34.23,3.33,8.13S258.2,337.05,258.07,331.4Z"/><path class="cls-30" d="M266.8,449c.52,0,17.21-.91,29.23,1.69"/><path class="cls-30" d="M153.21,223.77c-.66-.22-10.93-11.05-11.39-12.66"/><path class="cls-31" d="M255.3,306.73a131.78,131.78,0,0,1,2.38,15.33,129.37,129.37,0,0,1,0,25.16c-.76,7.79-1.82,13.67-1.82,13.67L252.49,353l-3.75,33.35L245,376.73l-2.91,28.35s-4.23-10.27-4.15-9.17c.46,6.2-1.6,12.38-1.52,18.6.06,5.14-4.05,21.33-19,63.77,0,0-6.08,22.74-14.41,22.47"/><path class="cls-32" d="M203.21,310v0c-3.5,7.43-6.2,13.22-6.34,13.53-7.14,15.75-3.59,38.65-2.7,49.19a282.88,282.88,0,0,1,.69,39.31,159.74,159.74,0,0,1-12.13,50.82c-2.12.26-8.47,1.35-13,6.65a20.15,20.15,0,0,0-3.73,6.75,22.71,22.71,0,0,0-.89,10.73"/><path d="M252.66,248.2l-3.42-5.13.64-.25a126.51,126.51,0,0,1,1.22,13.6,65,65,0,0,1-.09,6.84,23.64,23.64,0,0,1-1.28,6.74l-.13.34-.24-.29c-.44-.5-1-1-1.46-1.53L246.38,267l-3-3,.29-.11a69.58,69.58,0,0,1-1.26,8.39A58.78,58.78,0,0,1,240,280.4a33.66,33.66,0,0,1-3.85,7.53,16.8,16.8,0,0,1-6.25,5.59,16.66,16.66,0,0,0,6.18-5.64,33.17,33.17,0,0,0,3.75-7.54,57.35,57.35,0,0,0,2.24-8.14,69.49,69.49,0,0,0,1.18-8.36l0-.37.27.26,3.08,3,1.53,1.51c.51.51,1,1,1.52,1.56l-.38,0a23.35,23.35,0,0,0,1.17-6.61,64.07,64.07,0,0,0,0-6.79,127.42,127.42,0,0,0-1.35-13.51l-.24-1.55.89,1.29,3.47,5.09Z"/><path class="cls-33" d="M394.85,466.65l30.24,4-1.58-9.08s-8.21-7.2-41.7-4.36l5.05,3.8s-38.23-1.62-41.7-2.23.63,2.79.63,2.79l-18-10.35s7.58-15.49,8.85-27.81.31-25.59.31-27.81-3.47-29.06-12-41.07-32-46.44-32-46.44l-27.42-41.39L249.8,241.88a31.94,31.94,0,0,0-2.79-6.74,64.44,64.44,0,0,0-4.65-6.86c-.88-1.19-1.62-2.17-2.13-2.84-1.15-1.5-1.92-2.66-3.56-5-3-4.2-3.19-4.46-3.75-4.6-1.67-.41-2.89,1.08-6.17,3a33.93,33.93,0,0,1-6.62,3,19.37,19.37,0,0,1,11.33,10.79,66.76,66.76,0,0,1,1.71,8.07,26.39,26.39,0,0,0,1.19,5.93,17.11,17.11,0,0,0,2.91,5c-.06-1.33-.11-2.65-.17-4l.53,13s29.8,33.8,37.7,46.76c14.22,15.79,37.6,49.28,41.71,61.6s16.74,33.18,0,72.36c-8.22,17.37-17.06,29-40.76,25.26-1.89,2.22-11,16.69-32.83,9.93-1.29,1.46-11.4,5-13.93-5.14a13.38,13.38,0,0,1-5.38-1.21,13.11,13.11,0,0,1-2.72-1.68c-1.45,1.46-1.75,2.58-1.73,3.35,0,.07,0,.07.1,1.06.21,2.26.2,2.31.23,2.52a5.41,5.41,0,0,0,1.71,3.51,12.8,12.8,0,0,0,4.15,1.62,3,3,0,0,1,1.38.71c.61.61.6,1.4.79,1.72,1.42,2.33,4.55,2.87,5.74,3.07a12.31,12.31,0,0,0,7.82-1.38,44.19,44.19,0,0,0,11.2,1.43,25.4,25.4,0,0,0,8.67-1,21.46,21.46,0,0,0,9.67-6.84c2.48.33,6,.72,10.3.89a88.57,88.57,0,0,0,22.89-1.71c3-.67,5.56-1.72,10.78-3.81,3.71-1.49,6.08-2.64,6.2-4.3s-1.82-2.24-1.84-4,1.92-3.3,3.69-4.34a40.26,40.26,0,0,0,8.17,5c2.49,1.13,7.91,3.27,26.46,4.17,2.91.14,6.67.28,11.05.31l-10.46-3.8,42.34,3.11Z"/><polygon class="cls-5" points="226.17 226.9 214.08 228.31 212.02 229.46 226.74 227.57 226.17 226.9"/><path class="cls-29" d="M166.08,480.12a22.28,22.28,0,0,0-.93,5.35c-.11,2.37-.17,3.9.61,5.62.09.2,2,4.19,6.09,4.65a7.49,7.49,0,0,0,4.17-.8,25.68,25.68,0,0,0,2.8,2.17,15,15,0,0,0,5.64,2.57,10.37,10.37,0,0,0,8.43-2.09c-.18-1.75-.36-3.5-.53-5.25a75.71,75.71,0,0,1-7.5-1.65,64.05,64.05,0,0,1-8.64-2.93A31,31,0,0,1,166.08,480.12Z"/><path class="cls-34" d="M120.76,485.44a36.85,36.85,0,0,1,.8-7.4,25.54,25.54,0,0,1,2.55-7,13.46,13.46,0,0,1,5.09-5.33,12.34,12.34,0,0,1,7.18-1.37,12.25,12.25,0,0,0-7.11,1.5,13.14,13.14,0,0,0-4.9,5.34,25,25,0,0,0-2.38,6.93,36.61,36.61,0,0,0-.65,7.31Z"/><path class="cls-33" d="M172.13,339.38A38.29,38.29,0,0,1,179,365.75l-6.18-8.59c.59,1.95,1.38,4.69,2.22,8a69.65,69.65,0,0,1,1.75,7.88,65,65,0,0,1,.32,9.82c0,2.59-.1,6.13-.31,10.36l-5.67-11.88q1.52,10.5,3.39,21.31.7,4.13,1.46,8.19l-5.6-10c.46,3.37.92,6.77,1.36,10.18.62,4.75,1.23,9.48,1.8,14.18q-1.68-3.34-3.38-6.69c-1.8,25.22-3.6,43.76-4.35,48.54a53.37,53.37,0,0,1-2.07,8.4,43.71,43.71,0,0,1-1.67,4.11,22.28,22.28,0,0,1-1.67,3.19,23.87,23.87,0,0,1-2.09,2.64c-.87,1-1.65,1.75-2.25,2.3-.38.13-1,.32-1.67.53-3.47,1-6.32,1.9-9.75,1.62a14.4,14.4,0,0,1-3.71-.78,13.41,13.41,0,0,1-2.75-1.37c.67-2.14,1.33-4.28,2-6.42,0,0,18.55,1.27,19.63-9.69S163,412.2,163,412.2v-6.74l4.78,5.47-1.2-19.58,3.79,1.68-2.59-20.43,3.64-1.9-3.58-25.9,5.48,5.05Z"/><path class="cls-35" d="M271.08,277.4,280,292.59s-4.54-1.47-13.16,7-5.62,7.77-5.62,7.77S256.46,290.88,271.08,277.4Z"/><path class="cls-35" d="M296,313.28s-10.5,1.06-14.61,13.44-4.18,19.45-10.34,25.64-9.9,18.13-9.9,18.13,14.16-15.91,22.44-18.13,29.66-13.15,29.66-13.15Z"/><path class="cls-35" d="M336.56,394.73c-1.32-.43-41-11.68-55.14-10.17,14,11.07,23.75,17.7,32.59,23.89s22.55,6.19,22.55,6.19Z"/><path class="cls-35" d="M338.76,431a18.92,18.92,0,0,1,11.06,14.93L352.47,429l-14.92-3.9Z"/><path class="cls-35" d="M363.58,429.11l8.83-1.63s.71,16,4.19,22.69C376.6,450.17,365.55,442.93,363.58,429.11Z"/><path class="cls-35" d="M397.05,421.12s17.27-3.12,19-3.58-7.28,13.86-7.62,18.79,2.27,16.65-.05,19.58c0,0-2.8-9.41-6.14-11.75s-3.77-10.26-4.47-16.65Z"/><path class="cls-35" d="M327.72,448.76c-1.93-6.49-14-8-21.17-8.86-5.46-.64-11.58,1-11.82.32-.05-.13.09-.28.15-.32.84-.64,6.6,4.65,24.6,25.44a22,22,0,0,0,4.9-5.34C325.73,457.91,329,453,327.72,448.76Z"/><path class="cls-35" d="M237.84,401.46S219.74,406,212.45,407a111.38,111.38,0,0,0-12.82,2.53s13.83,1.27,24.38,2.54c4.15.5,16.16,4.23,12.12,3.16h0Z"/><path class="cls-35" d="M194.75,378.24s12.3,5.93,19.18,6.55a8.49,8.49,0,0,0,2.57-.09c5.68-1.29-16.28,8.79-19.64,8.53Z"/><path class="cls-35" d="M195.71,327.67s.77.78,12.66,4.39l24.55,7.49s-11.37,3.28-18.61,2.68-8.53-1-11.63,0-10.33,3.22-10.33,3.22S192.09,330.26,195.71,327.67Z"/><path class="cls-36" d="M113.17,226.9s5.63.42,10.27,7.13c4.66,6.13,7.87,10.29,12.22,11.66.28.09.56.16.86.23-6.46-.36-.3-.07-.3-.07s-3.68,2.87-13.11-4.52c-5.47-4-10.93-6.82-12.25-6.83S111.68,227.9,113.17,226.9Z"/><path class="cls-36" d="M105.65,275s4.5,1.5,17.4,6,15.9,2.1,15.9,2.1l-29.56,11.75c-.8-3-1.56-6.29-2.22-9.78S106,278.18,105.65,275Z"/><path class="cls-35" d="M118.83,336.22s9.58,2.2,23.94,13.46c16,10.05,18.2,12.21,18.2,12.21s-1.67-3.59-15.32-3.59-20.35,2-22.27-2S118.83,336.22,118.83,336.22Z"/><path class="cls-35" d="M132.3,408.34s5.74-1.72,16.28,8.24,12.21,10.68,12.21,10.68-23.94-8.28-28.49-3.42Z"/><path class="cls-35" d="M275,142.06a76.16,76.16,0,0,0-32.58,20.2,111,111,0,0,1,38.06-3.12Q277.7,150.59,275,142.06Z"/><path class="cls-28" d="M226,481.26a17.57,17.57,0,0,1,2.75-12.59,17.11,17.11,0,0,1,10.52-7.25A17,17,0,0,0,229,468.83a17.18,17.18,0,0,0-2.41,12.33Z"/><path class="cls-36" d="M211.55,62.12s-3.73,10-9.19,22.91l-5.47,12.88s14.64-14.67,22.18-20l7.53-5.37S216.19,62.83,211.55,62.12Z"/><path class="cls-36" d="M171.42,53.87a82.26,82.26,0,0,1,32,3.23,165.8,165.8,0,0,1-6.78,27.24,165.17,165.17,0,0,1-13.12,29A91.1,91.1,0,0,0,185,90.39a66.4,66.4,0,0,0-8.78-29.53A61.83,61.83,0,0,0,171.42,53.87Z"/><path class="cls-36" d="M139.52,58.35a39.24,39.24,0,0,1,6.69-2.85A38.76,38.76,0,0,1,155,53.78c3.58,7.16,4.65,21.12,6.08,26.13a60.83,60.83,0,0,1,1.71,11.77c-3.67-4.4-7.44-9.25-11.21-14.56C146.92,70.59,142.94,64.29,139.52,58.35Z"/><path class="cls-36" d="M67.12,130.38a55.51,55.51,0,0,1,31.56,15.29c-14.5-3.48-29-1.53-36.75,0Z"/><path class="cls-18" d="M428.58,418.53a32.28,32.28,0,0,1,10.57,1.09c6,1.67,12.31,5.37,11.83,7-.24.85-2.4,1.54-11.21.59l-.48,2.47a2.51,2.51,0,0,1,.38-1.92c.58-.76,1.8-1,7-.37a47,47,0,0,1,4.88.77,50.69,50.69,0,0,1,9.11,2.94A58,58,0,0,1,474,439.46c6.48,5.3,12.13,12,11.56,12.65-.11.13-.48,0-.76-.14-1.38-.25-2.89-.45-4.51-.59a51.12,51.12,0,0,0-6-.14,22.5,22.5,0,0,1,11.08,6.4,22.94,22.94,0,0,1,6.08,14.24,31.32,31.32,0,0,1-11.27,2.4,42.9,42.9,0,0,1-7.53-.74c-3.85-.52-9.39-1.2-16.29-1.83l9.76,6.85c-5.48-.93-10-2-13.34-2.81-8-2.05-11-3.44-12-3.94a39.36,39.36,0,0,1-8.16-5.4q1.23,3.22,2.48,6.43l-9.82-3.14A48.83,48.83,0,0,1,420.26,454C417.8,436.64,425.66,423.07,428.58,418.53Z"/><path class="cls-5" d="M420.89,457.92c.18,1.27.42,2.62.75,4a47.4,47.4,0,0,0,3,8.9l11.19,2.36-3.1-7.35a42.82,42.82,0,0,0,9,6.33c4.71,2.48,8.75,3.46,13.28,4.56a86.84,86.84,0,0,0,11.21,2l-9.75-7.25s21.42,6.68,37.13,0c-.25-.82-5.93-6.32-17.85-8.52s-24.94-3.85-24.94-3.85l-.55,7.15-16.5-5.87-2.38-6.6H420.13Z"/><path d="M159.74,176.25a17.74,17.74,0,0,0-5.39.52,23.39,23.39,0,0,0-5.09,1.82,30.09,30.09,0,0,0-8.61,6.46c-.61.67-1.29,1.27-1.84,2l-1.67,2.14a22.66,22.66,0,0,0-1.54,2.23l-1.49,2.28c-.86,1.6-1.75,3.18-2.58,4.8l-2.28,5,2-5.1c.77-1.65,1.62-3.27,2.43-4.91a46.57,46.57,0,0,1,6.5-8.85,29.76,29.76,0,0,1,8.87-6.46A20.25,20.25,0,0,1,159.74,176.25Z"/><path d="M154.74,169.3a27.07,27.07,0,0,0-3.77.76c-1.23.34-2.46.69-3.68,1.11-2.44.77-4.83,1.69-7.19,2.69a81.43,81.43,0,0,0-13.46,7.31c-1,.74-2.13,1.42-3.14,2.19l-3,2.38c-1,.78-1.9,1.71-2.85,2.56l-1.41,1.31c-.46.43-.88.92-1.32,1.39l-2.6,2.81-2.35,3c-.39.51-.8,1-1.18,1.52l-1,1.62-2.09,3.23,1.91-3.34,1-1.68c.35-.53.74-1,1.11-1.58l2.28-3.12,2.55-2.91a63.22,63.22,0,0,1,11.72-10.06,77.23,77.23,0,0,1,13.66-7.22,75.86,75.86,0,0,1,7.31-2.5c1.24-.37,2.49-.66,3.75-.95A22.31,22.31,0,0,1,154.74,169.3Z"/><path d="M148.19,165.21a46.83,46.83,0,0,0-6.23-.83,54.86,54.86,0,0,0-6.28-.13,52.17,52.17,0,0,0-12.36,1.9,48.58,48.58,0,0,0-5.9,2.07,52.2,52.2,0,0,0-5.56,2.87,51.1,51.1,0,0,0-9.8,7.82,42,42,0,0,1,15.08-11.34,45.22,45.22,0,0,1,18.53-3.91A45.48,45.48,0,0,1,148.19,165.21Z"/><path d="M206.92,181.7a31.06,31.06,0,0,1,9.47,5.73,47.9,47.9,0,0,1,7.47,8.24L225.4,198c.52.77.94,1.61,1.41,2.41a51.3,51.3,0,0,1,2.5,5c.42.83.71,1.71,1.05,2.57l1,2.6c.55,1.77,1.06,3.55,1.57,5.32l-1.87-5.21L230,208.1c-.37-.85-.69-1.71-1.13-2.52-.85-1.64-1.58-3.32-2.56-4.88-.48-.79-.89-1.61-1.42-2.37l-1.55-2.28a50,50,0,0,0-7.27-8.24c-.68-.6-1.36-1.23-2.1-1.78l-1.09-.84-1.13-.79A27.69,27.69,0,0,0,206.92,181.7Z"/><path d="M216.83,181.7a38.81,38.81,0,0,1,12.33,4,41.63,41.63,0,0,1,10.56,7.59,26.4,26.4,0,0,1,2.21,2.4,22.55,22.55,0,0,1,2,2.54l1.88,2.67c.58.92,1.07,1.89,1.6,2.84l.78,1.43c.26.47.43,1,.65,1.49l1.26,3c.09.25.2.5.29.75l.23.78.45,1.56.9,3.12L251,212.79l-.53-1.53-.26-.76c-.1-.25-.22-.49-.33-.74l-1.33-2.94c-.24-.49-.41-1-.69-1.46L247,204c-.56-.92-1.06-1.87-1.64-2.78l-1.87-2.61a23.38,23.38,0,0,0-2-2.49,27.05,27.05,0,0,0-2.2-2.34,43,43,0,0,0-10.33-7.62c-.93-.54-1.93-1-2.89-1.43s-2-.83-3-1.22A37.11,37.11,0,0,0,216.83,181.7Z"/><path class="cls-1" d="M217.28,172.34c.59.32,26.78-6.17,45.88,21.47"/><path class="cls-33" d="M143.32,227.51l.18,3.54c-4.42-.92-8-1.84-10.57-2.56a52.74,52.74,0,0,1-5.6-2,13.73,13.73,0,0,1-4.46-2.64,13.59,13.59,0,0,1-1.81-2l-1-2.4a87.28,87.28,0,0,0,23.23,8.12Z"/><path class="cls-32" d="M336.84,424.43s14.68,7.91,41.1,1.22,57.5-14.43,74.13.94l-5.44.83s23.58,1.7,40.18,26.36l-12.45-2.54s13.58,1.53,19.22,20.23c0,0-18.58,9.61-37.13,0l11.15,7.25s-24.06.27-34.25-11.39l3,6.95s-33.06-9.69-41.47-7.63l8.24,3.53s-40.85-2.51-43.08-3.41,8.84,3.68,8.84,3.68-33.17,1.83-46-8.68"/><path class="cls-37" d="M112.82,473.61s-1.89,9.91,7.45,12.37c3.3,2.94,7.66,6.73,17.48,1.5,0,0,8.56,6.77,20.32-1.24,2.37-2.9,7.91-12.56,8.38-20.45.72-6.4,2.3-25.66,2.3-25.66l1.45-21.61,3.17,6.26-2.9-23.58,6,11-4.61-29.36,5,10.36s.79-18.25,0-22-3.44-13.36-3.44-13.36l5.62,8.16s.52-6.68,0-9.08a119.69,119.69,0,0,0-3.34-12.45c-.8-1.75-4-8-4-8"/><path class="cls-32" d="M170.57,422.61a39.37,39.37,0,0,0,19,19.3"/><path class="cls-38" d="M291,479.07c-3.32.17-6.64.48-10,.52a33.93,33.93,0,0,1-10-1.15l.22-.07a25.72,25.72,0,0,1-14.48,8,24.7,24.7,0,0,1-16.3-2.52l0,0,0,0a10.2,10.2,0,0,1-.35-8.29,9.72,9.72,0,0,1,6-5.67h0a19.65,19.65,0,0,1,2.6-.94,4.93,4.93,0,0,0,2.32-1.41,4.87,4.87,0,0,1-2.32,1.43,21,21,0,0,0-2.58,1h0a9.66,9.66,0,0,0-5.9,5.67,10,10,0,0,0,.41,8.17l0,0a24.42,24.42,0,0,0,16.16,2.37,25.29,25.29,0,0,0,14.22-8l.09-.1.13,0a33.59,33.59,0,0,0,9.84,1.06c3.32-.07,6.64-.41,10-.6Z"/><path class="cls-39" d="M232.92,215.86c2,3.83,5.72,5.68,7.57,8.46,5.56,8.34,8.34,15.76,13,24.1,24.09,37.06,48.18,69.5,71.35,106.56,13.9,21.32,13.9,45.41,11.12,69.5-.93,13.9-5.56,27.8-15.05,39.36"/><path class="cls-33" d="M223.09,224.14l2.79,1.08s7.81-.93,10.79-2.54c-.37-1.37-.45-1.72-.45-1.72l-5.3-.5S224.08,223.87,223.09,224.14Z"/><path class="cls-35" d="M252,246.4s-13,4.57-19.43,8-7.44,6-7.44,6,3.54-.34,8.17-.53c6.8-.27,7.87.5,14.75.43,6.22-.06,12.85-.67,12.85-.67h0Z"/><path class="cls-28" d="M214.6,486.2a25.88,25.88,0,0,1-2.93,7.69,15.82,15.82,0,0,1-5.71,5.89,13.21,13.21,0,0,1-8,1.53,20.29,20.29,0,0,1-4-.87c-.65-.21-1.3-.44-1.93-.7l-.95-.4-.46-.21a.32.32,0,0,1-.18-.13.64.64,0,0,1-.06-.16,2.61,2.61,0,0,1-.06-.27,20.91,20.91,0,0,1,0-4.11,32.64,32.64,0,0,1,.58-4,26.17,26.17,0,0,1,2.77-7.68,14,14,0,0,1,13.54-7.51,15,15,0,0,0-7.85,1.78,14.77,14.77,0,0,0-5.55,5.81,25.94,25.94,0,0,0-2.68,7.64,28.14,28.14,0,0,0-.5,8.07c0,.15.07.37.12.32l.47.2c.3.14.62.27.93.39.63.25,1.27.47,1.91.68a20.64,20.64,0,0,0,4,.82,12.87,12.87,0,0,0,7.75-1.54,15.24,15.24,0,0,0,5.48-5.76,25.17,25.17,0,0,0,2.8-7.53Z"/><path class="cls-40" d="M203.67,500.4A20.34,20.34,0,0,1,191.6,499"/><path class="cls-38" d="M165.84,482a21.54,21.54,0,0,0-.36,6.65c.25,2.18,1,4.46,2.86,5.71s4.23,1.22,6.39.8l.81-.18.21,0c.06,0,.19-.08.06,0a1.18,1.18,0,0,0,.07-.35c.07-.54.1-1.11.15-1.68.08-1.12.18-2.26.32-3.38.57-4.47,1.67-9.05,4.34-12.77a12.91,12.91,0,0,1,5.21-4.28,15,15,0,0,1,6.64-1.13,14.68,14.68,0,0,0-6.61,1.21,12.68,12.68,0,0,0-5.11,4.3c-2.6,3.71-3.64,8.26-4.15,12.71-.13,1.12-.21,2.24-.28,3.37,0,.56-.07,1.13-.13,1.7a1.93,1.93,0,0,1-.11.49.26.26,0,0,1-.11.11l-.09,0-.1,0-.21.05c-.28.08-.56.14-.84.2a12.62,12.62,0,0,1-3.42.27,6.84,6.84,0,0,1-3.3-1.08,6.51,6.51,0,0,1-2.21-2.69,11.45,11.45,0,0,1-.91-3.33,22.5,22.5,0,0,1,.31-6.85Z"/><path class="cls-41" d="M175.67,495.3s7.1,5.6,15.93,3.78"/><path class="cls-42" d="M281.42,414.64s16.25,30.46,31.86,43.59c11.05,12.12,14.29,14.37-13.9,20.33-25.16,1.91-28.69-.4-28.69-.4"/><path class="cls-43" d="M274.06,448a38.91,38.91,0,0,1-13.34-30.32l-2.45,3.56-1.59,5.34-.89-4.75c-1.78-8.9,2.28-20.54,2.28-20.54l-7,5.46a27,27,0,0,1,1.21-8.19c2.94-9.44,10.31-14.51,13.06-16.21l-8.61,3.56,3-3.56c3.08-3.69,6.37-7.09,11.16-9.47a25.53,25.53,0,0,1,8.35-2.47s6.78-3.08,16.87.1"/><path class="cls-44" d="M188.09,447.59s-22.31,5.69-20.35,13.83c1.86,5.68,2.51,4.67,8.74,3.08l6.24-1.59Z"/><path class="cls-44" d="M228.93,444.2s14.19-6.93,18.3-1.64,1.25,9.66,1.25,9.66l-13.69,6.93-7.23,3.25-4.72-.62Z"/><path class="cls-3" d="M233.26,430.31l.07.12a28.27,28.27,0,0,0,12,10.73c10.12,4.45,20.12,0,21.43-.59l6.32,7s-14.61.66-24.19,5-22.71,10.25-22.71,10.25a15.11,15.11,0,0,0-5.5,6.45,14.79,14.79,0,0,0-1.26,6.12"/><line class="cls-43" x1="230.1" y1="439.75" x2="239.4" y2="437.41"/></g></svg>