<svg id="Layer_1" data-name="Layer 1" xmlns="http://www.w3.org/2000/svg" xmlns:xlink="http://www.w3.org/1999/xlink" viewBox="0 0 600 320"><defs><style>.cls-1{fill:#9b77af;}.cls-15,.cls-17,.cls-18,.cls-2,.cls-23,.cls-25,.cls-26{fill:none;}.cls-2{stroke:#604573;stroke-width:8.52px;opacity:0.84;}.cls-12,.cls-14,.cls-15,.cls-16,.cls-17,.cls-18,.cls-19,.cls-2,.cls-21,.cls-23,.cls-25,.cls-26,.cls-35,.cls-4,.cls-41,.cls-42,.cls-5,.cls-6,.cls-9{stroke-miterlimit:10;}.cls-3{fill:#604573;}.cls-14,.cls-16,.cls-4,.cls-5{fill:#d6dcdd;}.cls-4{stroke:#3a3739;}.cls-15,.cls-16,.cls-18,.cls-21,.cls-35,.cls-4,.cls-5,.cls-9{stroke-width:0.51px;}.cls-5{stroke:#3f3d3d;}.cls-6{fill:#adc2c4;stroke-width:0.47px;}.cls-14,.cls-16,.cls-18,.cls-19,.cls-23,.cls-6{stroke:#9e1f63;}.cls-7{fill:#050505;}.cls-8{fill:#0a151e;}.cls-12,.cls-9{fill:#171b1b;}.cls-9{stroke:url(#linear-gradient);}.cls-10{fill:#323333;}.cls-11{fill:url(#linear-gradient-2);}.cls-12{stroke-width:0.48px;stroke:url(#linear-gradient-3);}.cls-13{fill:url(#linear-gradient-4);}.cls-14{stroke-width:0.44px;}.cls-15{stroke:#45205c;}.cls-17{stroke:#344c9f;stroke-width:0.51px;}.cls-19{fill:#bbbdbf;stroke-width:0.64px;}.cls-20,.cls-21{fill:#fff;}.cls-21{stroke:#90278e;}.cls-22{fill:#39284c;}.cls-23{stroke-width:1.02px;opacity:0.39;}.cls-24{opacity:0.88;}.cls-25,.cls-26{stroke:#231f20;}.cls-25{stroke-width:3.68px;}.cls-26{stroke-width:3.59px;}.cls-27{fill:url(#linear-gradient-5);}.cls-28{fill:url(#linear-gradient-6);}.cls-29{fill:url(#linear-gradient-7);}.cls-30{fill:url(#linear-gradient-8);}.cls-31{fill:url(#linear-gradient-9);}.cls-32{fill:url(#linear-gradient-10);}.cls-33{fill:url(#linear-gradient-11);}.cls-34{fill:url(#linear-gradient-12);}.cls-35{fill:#353433;stroke:#373a39;}.cls-36,.cls-38,.cls-43,.cls-44,.cls-45,.cls-46,.cls-47{opacity:0.38;}.cls-37{opacity:0.64;fill:url(#linear-gradient-13);}.cls-38{fill:url(#linear-gradient-14);}.cls-39{fill:#3b284c;}.cls-40{fill:#d6dcde;}.cls-41{stroke:#35449b;stroke-width:0.51px;fill:url(#linear-gradient-15);}.cls-42{stroke:#364fa1;stroke-width:0.5px;fill:url(#linear-gradient-16);}.cls-43{fill:url(#linear-gradient-17);}.cls-44{fill:url(#linear-gradient-18);}.cls-45{fill:url(#linear-gradient-19);}.cls-46{fill:url(#linear-gradient-20);}.cls-47{fill:url(#linear-gradient-21);}.cls-48{fill:#604474;}</style><linearGradient id="linear-gradient" x1="420.58" y1="259.9" x2="522.38" y2="259.9" gradientUnits="userSpaceOnUse"><stop offset="0.23" stop-color="#404041"/><stop offset="0.28" stop-color="#3e3f47"/><stop offset="0.59" stop-color="#343b6e"/><stop offset="0.84" stop-color="#2d3986"/><stop offset="1" stop-color="#2b388f"/></linearGradient><linearGradient id="linear-gradient-2" x1="470.7" y1="243.57" x2="474.55" y2="339.35" gradientUnits="userSpaceOnUse"><stop offset="0.14" stop-color="#fff"/><stop offset="0.43" stop-color="#b4b8d7"/><stop offset="0.82" stop-color="#525da4"/><stop offset="1" stop-color="#2b388f"/></linearGradient><linearGradient id="linear-gradient-3" x1="79.88" y1="253.5" x2="174.59" y2="253.5" xlink:href="#linear-gradient"/><linearGradient id="linear-gradient-4" x1="123.41" y1="236.04" x2="139.88" y2="338.92" gradientUnits="userSpaceOnUse"><stop offset="0.13" stop-color="#fff"/><stop offset="0.18" stop-color="#eeeff6"/><stop offset="0.4" stop-color="#a9afd2"/><stop offset="0.61" stop-color="#737cb5"/><stop offset="0.78" stop-color="#4c57a0"/><stop offset="0.92" stop-color="#344094"/><stop offset="1" stop-color="#2b388f"/></linearGradient><linearGradient id="linear-gradient-5" x1="118.13" y1="263.25" x2="119.81" y2="270.64" gradientUnits="userSpaceOnUse"><stop offset="0" stop-color="#33489d"/><stop offset="0" stop-color="#151717"/><stop offset="0.35" stop-color="#0d0f0f"/><stop offset="1" stop-color="#0b0d0d"/></linearGradient><linearGradient id="linear-gradient-6" x1="120.57" y1="247.39" x2="122.25" y2="254.77" xlink:href="#linear-gradient-5"/><linearGradient id="linear-gradient-7" x1="138.87" y1="249.83" x2="140.56" y2="257.22" xlink:href="#linear-gradient-5"/><linearGradient id="linear-gradient-8" x1="136.43" y1="267.52" x2="138.11" y2="274.91" xlink:href="#linear-gradient-5"/><linearGradient id="linear-gradient-9" x1="463.36" y1="269.18" x2="465.29" y2="277.61" xlink:href="#linear-gradient-5"/><linearGradient id="linear-gradient-10" x1="467.63" y1="250.93" x2="469.56" y2="259.37" xlink:href="#linear-gradient-5"/><linearGradient id="linear-gradient-11" x1="485.33" y1="256.18" x2="487.25" y2="264.61" xlink:href="#linear-gradient-5"/><linearGradient id="linear-gradient-12" x1="484.72" y1="274.09" x2="486.64" y2="282.52" xlink:href="#linear-gradient-5"/><linearGradient id="linear-gradient-13" x1="231.8" y1="-162.14" x2="251.1" y2="-77.53" gradientTransform="translate(-151.79 159.09) rotate(12.37)" gradientUnits="userSpaceOnUse"><stop offset="1" stop-color="#32c3eb"/><stop offset="1" stop-color="#2b388f"/></linearGradient><linearGradient id="linear-gradient-14" x1="142.06" y1="51" x2="162.83" y2="142.05" gradientTransform="matrix(1, 0, 0, 1, 0, 0)" xlink:href="#linear-gradient-13"/><linearGradient id="linear-gradient-15" x1="284.81" y1="34.52" x2="285.83" y2="158.06" gradientTransform="matrix(1, 0, 0, 1, 0, 0)" xlink:href="#linear-gradient-13"/><linearGradient id="linear-gradient-16" x1="395.71" y1="35.27" x2="396.72" y2="157.74" gradientTransform="matrix(1, 0, 0, 1, 0, 0)" xlink:href="#linear-gradient-13"/><linearGradient id="linear-gradient-17" x1="236.52" y1="88.46" x2="285.24" y2="88.46" gradientTransform="matrix(1, 0, 0, 1, 0, 0)" xlink:href="#linear-gradient-13"/><linearGradient id="linear-gradient-18" x1="359.27" y1="42.88" x2="360.16" y2="151.39" gradientTransform="matrix(1, 0, 0, 1, 0, 0)" xlink:href="#linear-gradient-13"/><linearGradient id="linear-gradient-19" x1="446.3" y1="43.66" x2="447.2" y2="152.45" gradientTransform="matrix(1, 0, 0, 1, 0, 0)" xlink:href="#linear-gradient-13"/><linearGradient id="linear-gradient-20" x1="238.22" y1="-115.65" x2="299.06" y2="-115.65" gradientTransform="matrix(1.2, 0.17, -0.16, 1.15, -13.51, 177.24)" xlink:href="#linear-gradient-13"/><linearGradient id="linear-gradient-21" x1="397.5" y1="-55.77" x2="435.21" y2="-55.77" gradientTransform="matrix(1.12, 0.14, -0.14, 1.06, -48.79, 88.36)" xlink:href="#linear-gradient-13"/></defs><g id="v"><path class="cls-1" d="M105.51,38.6C90.57,57.72,78.66,74.1,70.12,86.19c-28.26,40-34.26,53.58-37.22,61A182.22,182.22,0,0,0,21,195.92l-2.53-.84v31.73s7.61,3.39,22.85,3.81,29.61,2.11,29.61,2.11l3.81,4.66s-.84-20.31,22.85-33.85c19.89-11,62.2-20.73,81.66,40.2l228.92,3q6.69-11,13.4-22c2.94-4.05,15.8-20.75,39-25,32.39-6,55.56,17.63,57.36,19.52a61.15,61.15,0,0,1,12.2,23.19l17.63.5-2.12-7.62,35.12-3s-2.11-115.51-3.81-121a58,58,0,0,1-2.11-8.89C560.29,61.54,554,44.35,553.34,43.48a2.49,2.49,0,0,1-.47-1.15,2.93,2.93,0,0,1,.47-1.9A848.94,848.94,0,0,0,105.51,38.6Z"/><path class="cls-2" d="M62.69,153.74s4.66-18.91,78.33-18.1,435.92-2,435.92-2"/><path class="cls-3" d="M61.78,99.13c-3.66,6-15,26.26-7.22,43.85,5.11,11.55,16,19.21,41.69,25.4,59.49,14.34,91.81,19.13,91.81,19.13v55.82c-.48.08-1.17.19-2,.29-3.3.38-4.94.62-5.92.12s-1.25-1.45-2.44-4.89c-.53-1.52-1.35-3.84-2.44-6.71a118.21,118.21,0,0,0-9.15-15.86c-5-7.16-7.65-9.62-8.54-10.37a36.7,36.7,0,0,0-12.21-6.71c-7.53-2.65-28.59-7.27-47.59,5.49a53.46,53.46,0,0,0-20.44,27.15,70.06,70.06,0,0,0-7.62-1.53c-3-.42-5.22-.55-6.1-.61-6.31-.37-12.61-.91-18.92-1.22-5.41-.26-13.16-.82-23-2.15a125.73,125.73,0,0,1-.2-46.66C24.82,162,31.21,149.54,38,136.35A233.78,233.78,0,0,1,61.78,99.13Z"/><path class="cls-4" d="M581,227.87v3.66l-28.28,2.14s-11.07-1.83-8,5.49,10.79,18.91,10.79,18.91l36.19-3s3.08-6,3.06-8.8,0-7.06-1.84-8.89S581,225.13,581,225.13C581,226,581,227,581,227.87Z"/><path class="cls-5" d="M20.29,210.79S2.54,219.94,5.62,231.84s6.81,18.36,48.26,17.57l14,.86,9.49-10s5.19-6.94,0-8.46-55.62-5.51-55.62-5.51a55.7,55.7,0,0,0-.2-8.22A56.28,56.28,0,0,0,20.29,210.79Z"/><path class="cls-6" d="M99.28,57.79,72.13,111.92l-1.51,3.69h107.1s5.73.61,5.22-7.93,0-43.21,0-43.21,2.52-5-9.76-5.6S99.28,57.79,99.28,57.79Z"/><path class="cls-7" d="M518.46,242.82,547.75,241,538,219,502.6,208Q510.54,225.44,518.46,242.82Z"/><circle class="cls-8" cx="131.03" cy="233.67" r="53.69"/><circle class="cls-8" cx="464.77" cy="242.82" r="53.69"/><circle class="cls-9" cx="471.48" cy="259.9" r="50.64"/><circle class="cls-10" cx="472.09" cy="261.73" r="34.78"/><circle class="cls-11" cx="471.48" cy="262.96" r="24.41"/><ellipse class="cls-12" cx="127.24" cy="253.5" rx="47.11" ry="47.9"/><ellipse class="cls-10" cx="127.24" cy="255.23" rx="32.35" ry="32.89"/><ellipse class="cls-13" cx="126.67" cy="256.38" rx="22.7" ry="23.08"/><path class="cls-14" d="M107.49,61.61l-21,49.89h82.3a3.5,3.5,0,0,0,2.2-.16c2.33-1.09,2.51-5.25,2.57-7.23.18-5.91.24-19.36,0-37.11,0,0,1.92-5.39-6.91-5.39H107.49Z"/><path class="cls-15" d="M188.06,187.51l-86,1.92a8.16,8.16,0,0,0-4.6-.08c-2,.54-4.17,2-7.76,8.89a74.35,74.35,0,0,0-5.34,13.16,104,104,0,0,0-4.27,14c-.74,3.28-.93,5-2.44,6.1-3,2.07-8.08-.52-10.37-1.83H66.05a213.32,213.32,0,0,1-29.83-2.18v-8.85l-4.95.66V207.52H36l6.42-79.77"/><path class="cls-16" d="M282.64,131.47a94.72,94.72,0,0,0-13.72,0c-5.19.61-11,7-11,7s23.22.65,26.1.48S291.19,131.47,282.64,131.47Z"/><path class="cls-16" d="M391.25,130.25a94.72,94.72,0,0,0-13.72,0c-5.2.61-11,7-11,7s23.21.65,26.09.47S399.79,130.25,391.25,130.25Z"/><path class="cls-16" d="M172.37,131.47H161.1s-8.09,6.38-8.56,7.29,21.81,0,21.81,0S178,131.2,172.37,131.47Z"/><polyline class="cls-17" points="532.83 43.92 540.12 109.28 543.27 229.09"/><polygon class="cls-18" points="57.47 103.69 51.4 97.3 49.69 100.5 55.6 106.81 57.47 103.69"/><ellipse class="cls-19" cx="48.35" cy="92.12" rx="7.87" ry="12.21" transform="translate(-9.7 5.78) rotate(-6.22)"/><ellipse class="cls-20" cx="48.35" cy="92.12" rx="4.57" ry="8.78" transform="translate(-9.7 5.78) rotate(-6.22)"/><ellipse class="cls-21" cx="21.51" cy="177.84" rx="7.32" ry="18.91"/><path class="cls-22" d="M169.16,61.61q-.3,24.87-.61,49.73a16.27,16.27,0,0,1,3.66,0c1.47.16,2.79.53,4.06-.15a4.18,4.18,0,0,0,.67-.46,5.31,5.31,0,0,0,1.26-2.44L178.62,65a8.26,8.26,0,0,0-1.68-1.83A6.4,6.4,0,0,0,174,61.92,17.76,17.76,0,0,0,169.16,61.61Z"/><polyline class="cls-23" points="188.06 44.67 188.06 243.33 188.06 115.78"/><g class="cls-24"><path class="cls-25" d="M116.45,225.05s10.26-8.06,21.12,0"/><path class="cls-25" d="M157,244s5,15-3,24.38"/><path class="cls-25" d="M101.36,240.79s-4.64,13.3,0,21.91"/><path class="cls-25" d="M114.65,280.87s16.83,6.37,25,0"/></g><g class="cls-24"><path class="cls-26" d="M460.2,236s10.18-7.72,20.95,0"/><path class="cls-26" d="M502.83,254.76s4.92,14.41-3,23.35"/><path class="cls-26" d="M442.78,251.71s-4.6,12.74,0,21"/><path class="cls-26" d="M460.85,290.11s16.7,6.11,24.8,0"/></g><ellipse class="cls-27" cx="118.82" cy="266.31" rx="2.44" ry="2.14"/><ellipse class="cls-28" cx="121.26" cy="250.45" rx="2.44" ry="2.14"/><ellipse class="cls-29" cx="139.57" cy="252.89" rx="2.44" ry="2.14"/><ellipse class="cls-30" cx="137.13" cy="270.58" rx="2.44" ry="2.14"/><ellipse class="cls-31" cx="464.16" cy="272.67" rx="2.44" ry="2.46"/><ellipse class="cls-32" cx="468.43" cy="254.43" rx="2.44" ry="2.46"/><ellipse class="cls-33" cx="486.12" cy="259.68" rx="2.44" ry="2.46"/><ellipse class="cls-34" cx="485.51" cy="277.58" rx="2.44" ry="2.46"/><path class="cls-35" d="M558.93,233.2a68.72,68.72,0,0,0,10.59,10.25A69.7,69.7,0,0,0,591.66,255l-36.17,3.08c-1.65-2.58-4-6.33-6.52-11-4.42-8-5.42-10.8-4.27-12.2.6-.75,1.67-.91,3.66-1.22s3.15,0,5.49,0A27.26,27.26,0,0,0,558.93,233.2Z"/><g class="cls-36"><path class="cls-37" d="M104.18,111H98.69L116.4,61.92l4.25-.31Z"/></g><polygon class="cls-38" points="147.65 62.22 130.91 111.03 169.47 111.64 169.47 62.22 147.65 62.22"/><path class="cls-35" d="M20.55,247.44s19.57-9.5,24.14-19c12.21.61,32.64,3.36,32.64,3.36a3.9,3.9,0,0,1,1.84,1.83c.59,1.38.11,3.09-1.84,6.08a49.94,49.94,0,0,1-9.49,10.52S24.17,249.61,20.55,247.44Z"/><rect class="cls-39" x="196.01" y="50.93" width="300.19" height="72"/><rect class="cls-40" x="225.29" y="57.65" width="245.88" height="61.62"/><line class="cls-41" x1="285.24" y1="50.63" x2="285.24" y2="120.79"/><polyline class="cls-42" points="396.13 120.79 396.13 119.32 396.13 59.79 396.13 51.24"/><polygon class="cls-43" points="285.24 57.65 285.24 119.27 236.52 119.27 285.24 57.65"/><polygon class="cls-44" points="322.84 118.35 396.43 118.35 396.43 56.73 322.84 118.35"/><polygon class="cls-45" points="422.17 119.83 471.18 119.27 471.18 57.65 422.17 119.83"/><path class="cls-46" d="M285.43,119.31,355,58l13.27-.13-69.41,61.75Z"/><path class="cls-47" d="M441.31,58l-43.58,61,7.86,0L448.3,57.34Z"/><path class="cls-48" d="M553.06,43.82C564.34,71.4,571.76,92,573.31,97.05c.71,2.34,3,10.65,3.42,12.46l.45,1.92h0L581,231.53l-30.48,1.67s-10.22-.81-4,9.8l-16.13-.48c-3.05-26.85-77.49-85.42-122,4.31l-220.3-3.5V187.51l223,1.62c54.6-46.68,114.09,0,114.09,0S559,131.47,553.06,43.82L101.74,45"/></g></svg>