<svg id="Layer_1" data-name="Layer 1" xmlns="http://www.w3.org/2000/svg" viewBox="0 0 512 512"><defs><style>.cls-1,.cls-24{fill:#391511;}.cls-1,.cls-12,.cls-24{stroke:#1a8240;}.cls-1,.cls-10,.cls-12,.cls-19,.cls-24,.cls-4,.cls-8{stroke-miterlimit:10;}.cls-1,.cls-10,.cls-11,.cls-12,.cls-14,.cls-15,.cls-16,.cls-17,.cls-18,.cls-19,.cls-2,.cls-22,.cls-24,.cls-3,.cls-4,.cls-5,.cls-6,.cls-7,.cls-8,.cls-9{fill-rule:evenodd;}.cls-2{fill:#39130f;}.cls-3{fill:#24803f;}.cls-4,.cls-9{fill:#267f3f;}.cls-4{stroke:#20441f;}.cls-5{fill:#cb862a;}.cls-6{fill:#8a5f25;}.cls-7{fill:#e9a322;}.cls-12,.cls-18,.cls-8{fill:#36ae4a;}.cls-8{stroke:#1d6131;}.cls-10,.cls-12,.cls-8{stroke-width:2px;}.cls-10{fill:#ec2024;stroke:#5d3111;}.cls-11{fill:#321d0f;opacity:0.22;}.cls-13{fill:#279a47;}.cls-14{fill:#fff;}.cls-15{fill:#09a0ce;}.cls-16{fill:#151616;}.cls-17{fill:#299546;}.cls-19,.cls-22{fill:#65bb4a;}.cls-19{stroke:#278c43;}.cls-20{fill:#831618;}.cls-21{fill:#7c4723;}.cls-23{fill:#f2787a;}.cls-24{stroke-width:0.75px;}</style></defs><g id="p"><path class="cls-1" d="M229.45,313.88l-53.83-52.4L52.92,196l112.22,51.77S222,273,243.58,294.2,229.45,313.88,229.45,313.88Z"/><path class="cls-2" d="M154.66,133.47s5.06-16.59,12.35-24.29,8.61,20,8.61,20Z"/><path class="cls-3" d="M201.3,152.91c-12-11.34-67.05,21.4-34.18,90,7.41,15.44,13.73,22.89,16.13,16a53.45,53.45,0,0,0,2.36-15s-.12,27.75,10.62,29.63,7.86-18.69,7.86-18.69,2.8,29.46,16.8,31.15,7.86-18.69,7.86-18.69,4.36,33.28,19,39.45,5.34-21.37,5.34-21.37,9.4,21.29,18.56,22-11.5-31-28.95-61.15c-32.19-55.66-28.5-82.39-41.44-93.23Z"/><path class="cls-4" d="M335.53,311.06c3.05,1.61,72.09,52.16,105.53,60.07,0,0,25.49,15.1,1.4,15.18,0,0,43.76,22.8,13.5,30s-40.62-14.61-40.62-14.61,7.57,24.26-4.21,13.3-78.33-78.48-94.64-110.9S335.53,311.06,335.53,311.06Z"/><path class="cls-5" d="M223.72,278.61c-4.07-1.08-8.22-2.17-12.43-2s-8.58,1.66-11.18,5a6.89,6.89,0,0,0-1.61,3.93,4,4,0,0,0,1.91,3.61c1.62.86,3.65.18,5.1-.94s2.56-2.61,4-3.71c3.55-2.66,8.57-2.45,12.73-.89s7.78,4.26,11.67,6.39c1.34.73,3.11,1.37,4.28.38a2.84,2.84,0,0,0,.88-1.76c.48-2.94-1.74-5.67-4.24-7.29-5-3.27-11.37-3.69-17.38-4"/><path class="cls-6" d="M192.43,289a2,2,0,0,0-.39.88,1.44,1.44,0,0,0,1.34,1.41,3.8,3.8,0,0,0,2.06-.51c2.05-1,13.06-7.05,9-9.86C200.57,278.26,194,286.63,192.43,289Z"/><path class="cls-7" d="M229.09,282.5c-4.07-1.08-8.22-2.17-12.43-2s-8.58,1.66-11.18,5a6.89,6.89,0,0,0-1.61,3.93,4,4,0,0,0,1.91,3.61c1.62.86,3.65.18,5.1-.94s2.56-2.61,4-3.71c3.55-2.66,8.57-2.45,12.73-.89s7.78,4.26,11.67,6.39c1.34.73,3.11,1.37,4.28.38a2.84,2.84,0,0,0,.88-1.76c.48-2.94-1.74-5.67-4.24-7.29-5.05-3.27-11.37-3.69-17.38-4"/><path class="cls-6" d="M197.8,292.9a2,2,0,0,0-.39.88,1.43,1.43,0,0,0,1.34,1.41,3.8,3.8,0,0,0,2.06-.51c2.05-1,13.06-7.05,9-9.86C205.94,282.15,199.37,290.53,197.8,292.9Z"/><path class="cls-7" d="M233.75,288.36c-4.07-1.08-8.22-2.18-12.43-2.05s-8.58,1.67-11.18,5a6.89,6.89,0,0,0-1.61,3.92,4,4,0,0,0,1.91,3.62c1.62.86,3.65.17,5.1-.94s2.56-2.62,4-3.71c3.55-2.67,8.58-2.45,12.73-.89s7.78,4.25,11.67,6.39c1.34.73,3.11,1.36,4.28.38a2.84,2.84,0,0,0,.88-1.76c.48-2.94-1.74-5.68-4.24-7.3-5-3.26-11.37-3.68-17.38-4"/><path class="cls-6" d="M202.46,298.76a1.94,1.94,0,0,0-.39.88,1.44,1.44,0,0,0,1.34,1.41,3.81,3.81,0,0,0,2.06-.52c2.05-1,13.06-7,9-9.86C210.6,288,204,296.38,202.46,298.76Z"/><path class="cls-8" d="M479.37,473.3c-46.77,6.7-59.6-27.49-59.78-28,.12.58,8,37.85-8.3,19.65-14.07-15.76-85.12-95.9-125.12-150.68-6.57-9-12.31-17.31-16.81-24.55C240,242.63,310.84,296,310.84,296c1.53,1,14.28,12,32.37,26.77,34.14,27.79,87.3,68.65,119.85,79.6,0,0,36.7,26.59,0,23.31C463.06,425.66,526.48,466.56,479.37,473.3Z"/><path class="cls-9" d="M343.21,322.75l-17.69-2.87c-12.6-2.05-26.33-6.12-39.35-5.58-6.57-9-12.31-17.31-16.81-24.55C240,242.63,310.84,296,310.84,296,312.37,297,325.12,308,343.21,322.75Z"/><path class="cls-10" d="M214,138.42l-4,20.77s-3-.4-7.7-1.4a156.87,156.87,0,0,1-28.57-8.9c-8.76-3.73-17.2-11.36-19.06-15.42l.91-.39c13.49-5.87,19.82-11.61,21.72-18.84.08-.4-.08-.4-.32-.32,3.57-4.3,8.6-10.47,11.85-14.69Z"/><path class="cls-11" d="M214,139l-4,20.77s-20.45,10.83-25.19,9.83c-2.07-10.37,10-31.28,2.27-38.48a3.1,3.1,0,0,0-1.56-.94,3.32,3.32,0,0,0-2,.64A35.72,35.72,0,0,1,161.64,135a23.89,23.89,0,0,1-6-1.3c13.49-5.86,19.82-11.61,21.72-18.83.08-.41-.08-.41-.32-.33,3.57-4.3,8.6-10.46,11.85-14.68Z"/><path class="cls-12" d="M290.8,299.19c0,5.69-29.75,11.5-40.91,5.62s3.05-13.49-5.43-12.37c-1.82.24-3.63.4-5.41.48-41.75,1.88-71-39.47-73.34-67.16-.16-1.84-.7-6.91-.73-12.41v-.69a95.06,95.06,0,0,1,11.37-46.43,173.89,173.89,0,0,1,12.88-20.33Q192,142,195.09,138c-9.69-19.49-3.92-18.21-10.67-30.47S157.31,76.07,169.61,68c37.41-24.78,85.65,7.5,91,25.63,5.78,19.7,12.13,62.33,15.73,71.13,1.77,4.33,41.77,103,56.09,119.4,8,9.13,13,15.83,15.65,20.61C364.78,334.67,290.8,290,290.8,299.19Z"/><ellipse class="cls-13" cx="205.08" cy="91.38" rx="23.78" ry="27.36"/><path class="cls-14" d="M214.1,70.9c-10.58-5.79-22.88-.87-27.52,11s.15,26.27,10.73,32.07,22.81.84,27.48-11.15-.18-26.18-10.69-31.94Z"/><path class="cls-15" d="M202.28,78.4c-7.37,1.5-11.94,9.56-10.21,18s9.1,14,16.46,12.54,11.93-9.57,10.21-18-9.1-14-16.46-12.54Z"/><path class="cls-16" d="M203.53,84.67c-4.31.88-7,5.63-6,10.64s5.35,8.25,9.66,7.37,7.07-5.65,6.06-10.58-5.36-8.33-9.74-7.43Z"/><path class="cls-14" d="M197.58,95.27a3.2,3.2,0,0,0-2.3,4,3,3,0,1,0,5.9-1.2,3.2,3.2,0,0,0-3.6-2.75Z"/><path class="cls-17" d="M266,144.12c-13-11.13-71.58,26.58-34.14,91.8,8.43,14.69,9.63,21.09,11.75,14.85S245.22,237,245.22,237s1.32,25.69,12.48,28,7.11-16.91,7.11-16.91,4.43,27.44,18.92,29.74,7.1-16.9,7.1-16.9,6.24,31.05,21.68,37.54,4.37-19.51,4.37-19.51,10.79,20.21,20.25,21.33-13.46-29.3-33-58.16c-36.05-53.24-33.66-77.8-47.55-88.52Z"/><path class="cls-18" d="M241.79,109.08c-5.52,4.11-11.08,8.25-17.27,11.26s-13.11,4.85-20,4.1c-4.18-.46-16.34-1.46-16.16-7.44.17-5.41,10.14-8.12,14.19-9.45a57.3,57.3,0,0,1,19.92-2.78,55.09,55.09,0,0,1,9.83,1.25C233.49,106.28,241.31,109.44,241.79,109.08Z"/><path class="cls-10" d="M182.14,120.65c-6.88,2.87-6.37,2.24-22,6.86-12.9,3.85-11.72,22.07-17.54,20.67A3,3,0,0,1,142,148c-.44-.18-1.54-1.64-2.86-3.87-2.77-4.67-6.51-12.71-7.28-19.41a54.1,54.1,0,0,1-.33-6.17c0-17.53,9.23-31.75,27.72-40.49,2-.93,4-1.79,6.2-2.59l.76,1.11c.72,1.06,1.43,2.12,2.12,3.19a158.79,158.79,0,0,1,8,13.93c2.75,5.37,7.43,12.25,13.58,12.76C210.82,108.19,187.35,118.47,182.14,120.65Z"/><path class="cls-19" d="M268.76,145.09c-12-11.34-67,21.4-34.17,90,7.4,15.44,13.72,22.89,16.13,16A53.76,53.76,0,0,0,253.07,236s-.12,27.75,10.62,29.63S271.55,247,271.55,247s2.8,29.46,16.8,31.15,7.86-18.69,7.86-18.69,4.36,33.28,19,39.45,5.34-21.37,5.34-21.37,9.4,21.29,18.56,22-11.5-31-28.95-61.15c-32.19-55.66-28.5-82.39-41.44-93.23Z"/><path class="cls-5" d="M239.19,295.81c-4.14-.79-8.36-1.58-12.55-1.15s-8.44,2.28-10.79,5.78a6.79,6.79,0,0,0-1.32,4,4,4,0,0,0,2.17,3.47c1.67.74,3.65-.09,5-1.3s2.37-2.8,3.74-4c3.35-2.91,8.38-3.06,12.64-1.8s8.06,3.68,12.1,5.53c1.39.64,3.2,1.14,4.29.07a2.88,2.88,0,0,0,.76-1.82c.26-3-2.15-5.53-4.76-7-5.28-2.89-11.61-2.85-17.63-2.74"/><path class="cls-6" d="M208.73,308.43a2.09,2.09,0,0,0-.33.91,1.44,1.44,0,0,0,1.44,1.31,3.85,3.85,0,0,0,2-.66c2-1.12,12.52-8,8.25-10.48C216.08,297.13,210.13,306,208.73,308.43Z"/><path class="cls-7" d="M244.82,299.3c-4.14-.79-8.35-1.58-12.54-1.14s-8.44,2.28-10.8,5.77a6.85,6.85,0,0,0-1.31,4,4,4,0,0,0,2.16,3.47c1.67.73,3.65-.09,5-1.31s2.36-2.79,3.74-4c3.35-2.92,8.38-3.06,12.64-1.81s8.06,3.69,12.09,5.53c1.39.64,3.21,1.14,4.3.08a2.84,2.84,0,0,0,.75-1.83c.27-3-2.14-5.53-4.75-7-5.28-2.9-11.61-2.86-17.63-2.75"/><path class="cls-6" d="M214.36,311.93a2,2,0,0,0-.32.9,1.44,1.44,0,0,0,1.43,1.32,3.9,3.9,0,0,0,2-.67c2-1.11,12.52-8,8.25-10.48C221.71,300.62,215.76,309.45,214.36,311.93Z"/><path class="cls-7" d="M249.89,304.81c-4.14-.79-8.35-1.58-12.54-1.15s-8.44,2.28-10.8,5.77a6.88,6.88,0,0,0-1.31,4,4,4,0,0,0,2.16,3.47c1.68.74,3.65-.09,5-1.3s2.36-2.8,3.74-4c3.35-2.91,8.38-3.06,12.64-1.81s8.06,3.69,12.09,5.54c1.39.63,3.21,1.14,4.3.07a2.88,2.88,0,0,0,.76-1.82c.26-3-2.15-5.53-4.76-7-5.28-2.89-11.61-2.85-17.63-2.74"/><path class="cls-6" d="M219.43,317.43a2,2,0,0,0-.32.91,1.43,1.43,0,0,0,1.43,1.31,3.88,3.88,0,0,0,2-.66c2-1.12,12.52-8,8.25-10.48C226.78,306.13,220.83,315,219.43,317.43Z"/><ellipse class="cls-20" cx="161.37" cy="92.43" rx="3.74" ry="1.92" transform="translate(-23.31 70.62) rotate(-23.07)"/><path class="cls-21" d="M266.81,122.27a28,28,0,0,1-2.12,5.47,42.76,42.76,0,0,1-3,5.1,47.82,47.82,0,0,1-7.86,8.9,53.37,53.37,0,0,1-9.75,6.9,66.56,66.56,0,0,1-11,4.7,80.16,80.16,0,0,1-11.63,2.54c-2,.18-3.93.46-5.9.52l-3,.14-3,0a89.25,89.25,0,0,1-23.15-3.41,187.52,187.52,0,0,0,23.08.29,91.81,91.81,0,0,0,22.31-3.86,66.84,66.84,0,0,0,10.42-4.22,61.1,61.1,0,0,0,9.54-6,57.61,57.61,0,0,0,8.3-7.71A47.68,47.68,0,0,0,266.81,122.27Z"/><path class="cls-22" d="M240.53,291.32c-41.75,1.88-70.4-37.87-72.79-65.56-.15-1.84-.7-6.91-.72-12.41,0-.22,0-.46,0-.69a95,95,0,0,1,11.38-46.43c9.47-2.85,24.29,4.49,22.32,24.19-2.74,27.52,3.34,79.89,35.26,99.51C237.92,291.13,239.15,290.35,240.53,291.32Z"/><polygon class="cls-17" points="295.31 303.54 463.06 425.66 294 310.37 295.31 303.54"/><polygon class="cls-17" points="295.31 308.37 419.59 445.33 286.17 314.3 295.31 308.37"/><path class="cls-23" d="M136.74,116.39c-1.51,16.06,2.59,24.76,6.12,30.43a22.63,22.63,0,0,1-3.38-4.5,47.46,47.46,0,0,1-5.93-18,41.7,41.7,0,0,1-.11-5.57c0-17.53,8.27-30.36,26.77-39.1a38.38,38.38,0,0,1,4.43-2s1.24,1.73,1.93,2.81C156.69,84.45,138.73,95.07,136.74,116.39Z"/><path class="cls-24" d="M232.42,315.63S339.71,421.8,491.73,350.16l5-23.59S383.9,390.65,260.89,315.36C260.89,315.36,242.2,295.07,232.42,315.63Z"/><polyline class="cls-24" points="147.67 239.66 109.93 150.71 16.22 64.02 105.34 152.7 138.1 237.23"/><path class="cls-1" d="M72.84,116.39S100.49,68.83,82,38.69c0,0,12.14,31.67-14,73.17l5.2,8.79"/></g></svg>