<svg id="Layer_1" data-name="Layer 1" xmlns="http://www.w3.org/2000/svg" viewBox="0 0 512 512"><defs><style>.cls-1{fill:#4c2915;stroke:#1e0f02;}.cls-1,.cls-18,.cls-21,.cls-22,.cls-8,.cls-9{stroke-width:0.94px;}.cls-2,.cls-21,.cls-23,.cls-24,.cls-25,.cls-26,.cls-30,.cls-31{fill:#f7b777;}.cls-14,.cls-2,.cls-21,.cls-22,.cls-23,.cls-24,.cls-25,.cls-26,.cls-30,.cls-31,.cls-4{stroke:#935c2b;}.cls-14,.cls-2,.cls-4{stroke-width:1.41px;}.cls-13,.cls-3,.cls-9{fill:#4c0808;}.cls-4{fill:#3d0505;}.cls-12,.cls-5,.cls-8{fill:#f9f4f4;}.cls-32,.cls-6{fill:#cc7a36;}.cls-7{fill:#e08c4c;}.cls-12,.cls-8{stroke:#471e1e;}.cls-13,.cls-9{stroke:#300d0d;}.cls-10{fill:#fff;}.cls-11,.cls-14,.cls-22{fill:none;}.cls-11{stroke:#4c0808;stroke-width:0.73px;}.cls-11,.cls-27,.cls-28,.cls-29{stroke-miterlimit:10;}.cls-12,.cls-13{stroke-width:0.83px;}.cls-15{fill:#1c3a04;}.cls-16{fill:#599327;}.cls-17{fill:#6b2f18;}.cls-18{fill:#b52626;stroke:#300202;}.cls-19{fill:#771313;}.cls-20{fill:#e55a5a;}.cls-23{stroke-width:1.07px;}.cls-24{stroke-width:1.09px;}.cls-25{stroke-width:1.5px;}.cls-26{stroke-width:1.26px;}.cls-27{fill:#fba919;stroke:#562f0b;}.cls-27,.cls-28,.cls-29{stroke-width:0.83px;}.cls-28{fill:#fed982;stroke:#684a00;}.cls-29{fill:#50534e;stroke:#2b2a2a;}.cls-30{stroke-width:0.66px;}.cls-31{stroke-width:0.67px;}.cls-32{opacity:0.39;}</style></defs><g id="m"><path class="cls-1" d="M287.79,338.36s28.18,44.1-24.45,65-55.24-42.51-101.49-17.69c-47.16,25.3,12.8,66.19,12.8,66.19s9.13,6.62,14.38-3c3.31-6-48.14-13.06-39.59-42.1,0,0,4-11.09,14.8-15.84s21.9-7.92,30.62-1.85,26.4,25.61,45.67,27.19,51.37-13.73,58.88-32.47,1.59-33,0-38Z"/><path class="cls-1" d="M126.44,316.36A51.86,51.86,0,0,0,150,318.43c33.15,15.15,63.17,1.38,63.17,1.38s12.19-11.21,13.66-22.91a58.1,58.1,0,0,1,5.85-19.51l6.14-5c14.9-7,21.35-73.71,21.35-73.71,8.15-23.76-1.34-102.78-1.34-102.78-1.38-13,13.22,4.46,13.22,4.46-.29,27.39,21.17,83.64,23.19,87.41s.87,11.31.87,11.31a4.84,4.84,0,0,0-2.89-4.35c1.15,4.64-3.77,13.62-2.32,9s-1.45-4.92-1.45-4.92c-12.76,14.2-15.37,36.24-15.37,36.24,0,46.1,32.77,72,32.77,72l2-18.86c-.2-36.28,8.66-33.13,8.66-33.13,14,7,28.36,88.67,28.36,88.67l-4.21,8.94s1.33-4.31,3.7-10.72c6-16.16,18.47-45.71,32.8-53.76,20-11.26,16.72,17,13.19,24-2.24,4.42-36.11,46.75-41.53,52.4s-12.22-24.14-12.22-24.14L324,301.81c.64,7.85-8.25,32-8.25,32,11.54,10.59,29.91,45.92,29.91,45.92,4.24,4.71,2.12,12,2.12,12a5.7,5.7,0,0,0-1.88-5.42c1.41,4.48-2.59,13.19-1.58,8.95s0-6.25,0-6.25c-1.47,4.39-23.88,46.36-23.88,46.36-9.27,42.42-25.36,69.64-22.44,44.78s13-39.78,14.43-48.07,19.7-48.43,16.77-51.36c-6.14-6.13-34.62-35.59-34.62-35.59-15.11-6.83-41-30.23-41-30.23-10.24,1-24.86,27-24.86,27-32.19-3.22-85-11.64-85-11.64-23.09,1.62-22.15.54-25.56-5.31"/><path class="cls-2" d="M249.5,299.85s-10.4-18,4.53-26,46.18,28.78,55.9,42.67-2.78,27.72-15.62,21.84S257.46,313,249.5,299.85Z"/><path class="cls-2" d="M160.56,273.85s-18.71,0-18.71-20.6c0,0,1.09-7.29,8.1-4.6s13.57,9.39,14.29,14.14S160.56,273.85,160.56,273.85Z"/><path class="cls-3" d="M156.1,254.11s-7.37-4.33-9.08,1.09,6,14.67,15.67,15.81,4.85-7.27,4.85-7.27Z"/><path class="cls-1" d="M247,190.79s-18.83-32.5-70.17-25.44c0,0-35,5.6-43.8,25.44-5.65,12.71,11.45-13,43.33-14.13,0,0-30.41-1.68-44.4,29.67-6.94,15.54,5.78-11.78,27-17.9s-23.55,2.83-25.43,35.8a50.62,50.62,0,0,1,7.2-12.18c2.91-3.55,6.66-6.81,11.17-8.08,0,0-13.48,7.56-13,22.16a38,38,0,0,1,5-8.5s-3.3,17.9,4.71,27.32c0,0,7.54,13.66,12.72,17.9,0,0-.95,13.18,1.41,19.78,0,0,10.36,1.88,17.9-3.77,0,0,18.69,14.31,53.69-3.77,28.26-14.6,23.08-42.86,23.08-42.86S276.19,203.5,247,190.79Z"/><path class="cls-2" d="M178.49,233.68s-11-28.58,5.1-37.92c19.11-11.06,41.88,16.31,49.23,28.53,0,0-9.33-26,8.78-32.2s31.8,20.58,15.76,40.14c0,0,5.44,29-21.75,46.63-27.51,17.89-50.1,5.56-55,0,0,0-8,6.69-17.94,5.37,0,0-3.59-4.11-1.37-21.38,0,0-26.36-23.23-9.67-40.49C161.63,212,178.49,233.68,178.49,233.68Z"/><path class="cls-4" d="M181,278.11c-1.24,1.41,19.85,2.6,28.6-3.11,6.28-4.1,11.64-14.37,11.4-22a21.56,21.56,0,0,1-6.34,2.45s-16.16.41-20.33,3.67C184.54,266.76,184.33,274.29,181,278.11Z"/><path class="cls-5" d="M184.64,271.7a6.29,6.29,0,0,0,2.55,2.13c1.28.34,12.32-6,15-9.51l-1.3-1.57,2.33-2.09,1.19,1.78s4.17-4.1,4.3-6.34c0,0-9.61.21-12.05,1.83s-6.36,2.47-8.65,7S184.64,271.7,184.64,271.7Z"/><path class="cls-6" d="M183,279.28s20.39,8.8,38,1.49,32.34-26.85,30.88-49.58l-.53-3.19s2.39,3.45,7.57,1.19l-1.52,3s2,15.43-3.19,24.77-10.54,20.26-28.1,27-29.09,4-34.38,1.59S180.19,280.57,183,279.28Z"/><path class="cls-7" d="M189.94,204a18.56,18.56,0,0,1,15.32-1.18c8.85,3,17.48,21.4,11.54,31.81-4.71,8.26-17.66,10.76-24.48,4.12S180.48,209.93,189.94,204Z"/><path class="cls-7" d="M164.24,259.45s9.48,4.51,15.26-5.53c3.92-6.81-2-20.21-6.57-24.49-7.81-7.33-13.62-6.69-19.09.46Z"/><path class="cls-6" d="M247.39,285.89s26.34,38.28,64,47.81c0,0-8.26,19.36-44-13.39C246,300.72,243.91,289.53,247.39,285.89Z"/><ellipse class="cls-8" cx="198.29" cy="222.47" rx="15.91" ry="19.36" transform="translate(-77.77 110.2) rotate(-26.16)"/><ellipse class="cls-9" cx="205.07" cy="224.9" rx="7.07" ry="8.11" transform="translate(-36.3 39.5) rotate(-10.11)"/><circle class="cls-10" cx="208.1" cy="222.31" r="1.98"/><circle class="cls-10" cx="208.1" cy="227.25" r="0.86"/><path class="cls-11" d="M181.53,253.8s-8.17,2.15-1.35,8.13"/><ellipse class="cls-3" cx="181.92" cy="258.55" rx="1.5" ry="2.04" transform="translate(-129.52 204.25) rotate(-44.98)"/><path class="cls-11" d="M185.33,252s3.58-7.66,8.24.13"/><ellipse class="cls-3" cx="189.94" cy="253.25" rx="1.5" ry="2.04" transform="translate(-110.44 153.31) rotate(-34.73)"/><ellipse class="cls-12" cx="164.24" cy="242.1" rx="13.59" ry="17.77" transform="translate(-81.51 83.37) rotate(-22.99)"/><ellipse class="cls-13" cx="170.15" cy="243.57" rx="5.94" ry="7.55" transform="translate(-44.07 37.69) rotate(-11.2)"/><ellipse class="cls-10" cx="172.37" cy="240.83" rx="1.66" ry="1.85" transform="translate(-13.87 10.56) rotate(-3.37)"/><ellipse class="cls-10" cx="172.93" cy="245.41" rx="0.72" ry="0.8" transform="translate(-14.14 10.6) rotate(-3.37)"/><path class="cls-3" d="M241,222.31s-6.26-17.18,2.6-23.44c6-4.26,19.66,1.52,16,18.79-3.46,16.2-8.53,11.27-7.53,4.81,0,0,.83-4.81-3.27-4.59C246.08,218,242.7,230,241,222.31Z"/><path class="cls-14" d="M235.61,243.63c-5.35.51-10.2-3.19-10.2-3.19L230,243c-.12,1.28-4.84,7.15-9.05,10s-17.2,3.35-22.42,4.35-9.84,5.51-11.73,9.91a127,127,0,0,1-6.21,11.57s1.21,4.65,14.32,7.93a51,51,0,0,0,44.17-10.38C252.64,265,259.41,251,257.36,232.23c0,0,3.63-5,4.55-7.33"/><path class="cls-15" d="M189.45,12.78s81.3,120.75,252.48,204.53V197.53s-140.79-66-233.18-184.75Z"/><path class="cls-16" d="M200.93,12.78c6.38,13.31,40.43,41.09,40.43,41.09,82.83,86,200.57,155.06,200.57,155.06v-11.4C292.63,125.07,208.75,12.78,208.75,12.78Z"/><path class="cls-17" d="M140.52,184s20.79-17,50.51-16.77,48.05,17.8,48.05,17.8-14.34,6.12-15.63,15.56c-1.44,10.52-14.86-21.51-42.86-7.68,0,0-13.4,9.1-10.44,24.38,0,0-15-5.81-23.37,3.11,0,0-.75-6.48,1.38-8.39a14.75,14.75,0,0,0-6.31,5.28s4.93-10.94,15.91-15.62c0,0-9.18-2-19.15,10.34,0,0,6.18-16,33.76-27.16,0,0-16.79-1.21-31.43,12.66s7.78-19.88,41.35-20.09C182.29,177.44,170.23,168.74,140.52,184Z"/><path class="cls-17" d="M271,109.64s6.37,46.06,18.87,70.6c0,0,5.25,11.7.86,14.71s-16.31,25.47-17.93,33.61,5.1-34,4.17-52.73S265.69,114.73,271,109.64Z"/><path class="cls-17" d="M159.09,322.23s26.24,9.65,54.71-1.66c0,0,10.38-5.58,14.34-21.88,0,0,4,19.31-12.74,29.38S161.5,325.44,159.09,322.23Z"/><path class="cls-17" d="M269.47,243.57s-3.53,19.36,13.38,38S270.7,264.93,269.47,243.57Z"/><path class="cls-17" d="M317.17,256.53s10.78,6.13,24.26,69.54c0,0,4.11,16-3.5-2.83s-14.83-60.53-22.24-60.12C311.63,263.34,313.39,257.6,317.17,256.53Z"/><path class="cls-17" d="M311.39,338.36a9.23,9.23,0,0,0,3.46-2.88s25.35,36.21,29.09,45-20.44,45.8-20.44,45.8,15.82-35.91,15.57-41.35S314.85,341.25,311.39,338.36Z"/><path class="cls-18" d="M207.48,270.64a1.56,1.56,0,0,0-1.28.45c-2.31,2.05-7.66,8.83-1.63,24.35,7.5,19.29,19.91,5.89,14.06-5.26s-3.13-23.33-3.13-23.33-1.82-1.28-4.89,1.78C208.77,270.47,207.89,270.73,207.48,270.64Z"/><path class="cls-19" d="M208.43,270.9s-4.09,5.59-.28,16-2.06-11.75,2.51-17.44Z"/><path class="cls-20" d="M211,270.35s-3.88,4.26-.31,20.76,6.59,10.24,7.44,7.58.07-6.52-.92-8.56-5.07-14.77-3.38-20.66C213.8,269.47,213.47,267.44,211,270.35Z"/><path class="cls-17" d="M173.72,382s14.64-6.39,33,10.43,33.15,18,43.92,16.32,29.95-9.42,38.53-22c0,0-7.74,19-38.19,24.9-24.4,4.72-48-20-52.5-23.38s-16.15-8.58-32.48-2S169.54,383,173.72,382Z"/><path class="cls-21" d="M337.62,339.81a4.92,4.92,0,0,1,2.22,3.39s1.84-4.26,1.42-6.67a10.87,10.87,0,0,1,1.27,4s2.7-4.4,2.28-8.8c0,0,.94,1.83,0,5.81a43.92,43.92,0,0,0,1.79-8l1.51,7.25s12.29-39.36,29.83-52,18.53,4.08,18.53,4.08a46.72,46.72,0,0,1,.2,5.39c-.07,4.61-.77,11.23-3.8,16-5.13,8-37.76,51.25-42.19,54.25-4.86,3.3-6.68,4.43-8.16-1.48S337.62,339.81,337.62,339.81Z"/><path class="cls-6" d="M342.84,362.1s16.7-55.11,33.79-73.34c9.36-10,21.65-6,19.09,10,0,0,.9,8.36-10.94,22.85-11.68,14.29-30.45,42.77-38,44.58C346.82,366.21,343.91,368.76,342.84,362.1Z"/><line class="cls-22" x1="348.94" y1="334.65" x2="343.91" y2="350.73"/><path class="cls-21" d="M365.66,314.5s8.35-18.9,21.94-34.31"/><path class="cls-21" d="M393.39,281.69s-13.43,20.8-20.3,37.11"/><path class="cls-21" d="M378.49,321.63s17.06-24.47,18.22-27.38"/><path class="cls-23" d="M157.18,436.19a6.94,6.94,0,0,0-1.38-3.7,4.51,4.51,0,0,1,3.47,2.54s1.5-2.69-.58-4.17c0,0,10.59,7.38,18,9.39s13.53,6.45,13.65,7.76-3.66,6.11-7.24,6-7.28.15-18.56-10.22Z"/><path class="cls-24" d="M312.48,432.85s-.66,4.36.47,5.42c0,0-.11-3.8.8-4.19,0,0,.93,3.9,3.61,5,0,0-.43-3.4,1.13-4.91,0,0,.44,3.28,1.57,4.46,0,0,.67-6.39,2-5.54l-1.68,9.27s-.51,18.76-3.59,30.26-8.29,30.48-16.89,32.76-5-26.94-4.16-29.57C296.38,473.67,295.77,467.69,312.48,432.85Z"/><path class="cls-21" d="M298,505s7.16-20.24,7.45-26.46"/><path class="cls-21" d="M303.89,502.93s5.46-16,5.25-18.33"/><path class="cls-6" d="M309.18,445.35s-10.42,32.11-13.95,56.46c0,0-2.52-21.65,4.12-38.23,4.73-11.79,12.15-27.05,12.15-27.05Z"/><line class="cls-21" x1="294.76" y1="500.9" x2="301.75" y2="472.69"/><path class="cls-2" d="M253.89,83.42s-10.95-9.17-12.43,0,14.74,14.51,21.88,14.51C263.34,97.93,270.72,97.72,253.89,83.42Z"/><path class="cls-25" d="M256.59,70.74s1.39-12.08,11.2-12.51c7.38-.32,8.92,5.2,3.11,10.9C270.9,69.13,251.93,92.23,256.59,70.74Z"/><path class="cls-25" d="M265.75,76s8.63-14.06,14.83-11.6c6.9,2.73,6.43,9.84-.59,13.81C280,78.19,255.91,95.52,265.75,76Z"/><path class="cls-26" d="M274.22,83.39s9.6-9.71,14.29-6.48c5.21,3.6,3.57,9.28-2.93,11.11C285.58,88,262.66,97.31,274.22,83.39Z"/><path class="cls-6" d="M242.88,81.55s10,12.12,21.12,15.15c0,0-.61,2.77-13.63-2.86C239,88.9,242.37,82.31,242.88,81.55Z"/><path class="cls-6" d="M257.64,79.34s4.53-16.5,11.83-20.35c0,0-6.81-1.39-10.52,6.32S256.12,79.05,257.64,79.34Z"/><path class="cls-6" d="M265,84.22S277.64,68.73,282.22,66c0,0-2.83-3.44-8.29,1.31S261.58,83.72,265,84.22Z"/><path class="cls-6" d="M272,89.9S279.89,79,287.53,77.1c0,0-6.25-2.11-15,9.74C272.55,86.84,270.88,89.24,272,89.9Z"/><path class="cls-27" d="M118.66,343s.55-19.74,19.54-52.79a9.25,9.25,0,0,0-.63-4.47s-28.29,1-31.43,32.57c0,0,.64,19.09,8.22,25.64Z"/><path class="cls-28" d="M115.86,343.62A43.38,43.38,0,0,1,122,305.29c12.54-17.77,16.13-17.24,16.13-17.24l0,2.16s-9.19,16.85-13.47,27.88S118.66,343,118.66,343Z"/><polygon class="cls-29" points="114.36 343.95 117.15 350.71 122.72 348.26 118.66 343 114.36 343.95"/><polygon class="cls-29" points="137.57 285.74 140.83 285.26 141.89 289.17 138.2 290.21 137.57 285.74"/><path class="cls-30" d="M130.25,332.83s-6.17,0-9.39-1.75c0,0,2.24-7.65,3.94-13.07s3.41-10,3.41-10,3.42-6.91,5.19-9.81c0,0,5.33.91,8,4.76,5.46,7.81,6.15,7.06,6.91,10.81.88,4.29,6.26,6.68,6.26,6.68l-9.34-2.79,4.46,6.92-5.62-.1,3.58,6.14s-12.17,1.55-13.49,2.13S130.25,332.83,130.25,332.83Z"/><path class="cls-6" d="M121.3,330.88l1.7-5.71a5.74,5.74,0,0,0,3,.48,3.11,3.11,0,0,0,1.73-4.64s-2.08-3.47-2.58-3.55l1.08-2.86s2.28.75,4.89-1.46,1.44-4.27-1.28-7.61l.4-.77s1.54.82,3.3-1.86c1.19-1.79-.14-4.08-.14-4.08l.17-.22a17.4,17.4,0,0,1,2.27.72,8.94,8.94,0,0,1,4.43,2.78s.35,4.74-5.8,5.16c0,0,4,5.09-1.6,7.51,0,0,5-11.47,5.53-8.78.28,1.47,4.53,4.53,4.18,5.83-2.4,8.95-12,14.22-13.58,15.23a7.88,7.88,0,0,0-2,5.22S122,331.84,121.3,330.88Z"/><path class="cls-31" d="M106.24,320s2.84-3.14,16.33,4.47c0,0,2.68,2,4.59,0s-.66-6.49-7.72-11.57c-7.68-5.54-22.41-4.28-18.16,8.18a13.63,13.63,0,0,0,5.84,6Z"/><path class="cls-31" d="M127,303.68s8.86,6.76,5.56,9.52c-5.18,4.34-14.93-1.95-14.93-1.95s-7-3.46-13.48-.34a8.53,8.53,0,0,1,3.65-10C113.66,297.19,124.44,301.58,127,303.68Z"/><path class="cls-31" d="M131.16,297.58s4.86,4.92,2.34,7.31-9.18-2.78-9.18-2.78-11.21-5.49-17.06-.82c0,0-2.94-6,4.41-11.17S131.16,297.58,131.16,297.58Z"/><path class="cls-6" d="M123.89,324.86s-12.67-7.63-17.64-5.32c0,0-.42.9.55,6.87,0,0-1.73-.2-3.57-3.74s1-7.1,4.71-7.14,11.21,2.28,17,7.83C125,323.36,127.58,325.77,123.89,324.86Z"/><path class="cls-6" d="M104.68,310.28a6.2,6.2,0,0,1,.37-4.56c1.2-2,12.56-1.64,20.08,3.69,8.89,6.29,1.11,5.23.29,4.64a23.64,23.64,0,0,1-8-3.1C112.77,308.26,104.68,310.28,104.68,310.28Z"/><path class="cls-6" d="M107.48,300.65a7.07,7.07,0,0,1,.76-4.46c1.24-2.24,13.67-3.14,24,7.72,0,0,.81,3.46-7.23-1.75C120.29,299.14,110.82,298.24,107.48,300.65Z"/><path class="cls-6" d="M143.64,324.18s-6.88,4-14.46,2.75l-3.52,3.36,1.31,2s5.62,1.11,7.44,0c.93-.56,12.64-1.87,12.64-1.87Z"/><path class="cls-32" d="M122.55,324.83c-12.62-7.22-15.81-4.55-15.81-4.55-.15.64.93,7.47.93,7.47s7.67-4.94,14,.43Z"/><path class="cls-30" d="M148.5,315.29s-.67-8.24-3.57-12.67-7-9.46-10.35-7.26A13.2,13.2,0,0,0,130.09,306s-1.06,7-3.93,10.09c0,0,.57,5.58,6.69,2.84,4.69-2.1,5.38-7.87,5.38-7.87s1.93.27,2-2.91C140.2,308.19,140.93,318.46,148.5,315.29Z"/><path class="cls-6" d="M129.52,319.38c2.71-2.37,6.62-5.46,6.42-9.45,0,0,2.05-3.21,2.08-4.7s4.33.44,10.44,9.62c0,0-5.85,4.95-8.51-7.56,0,0,.41,3.06-1.91,3.52a9.85,9.85,0,0,1-3,6.09A10.89,10.89,0,0,1,129.52,319.38Z"/></g></svg>