<svg id="Layer_1" data-name="Layer 1" xmlns="http://www.w3.org/2000/svg" xmlns:xlink="http://www.w3.org/1999/xlink" viewBox="0 0 512 512"><defs><style>.cls-1,.cls-22,.cls-28,.cls-29{fill:none;}.cls-2{clip-path:url(#clip-path);}.cls-3{fill:#705038;}.cls-4{fill:#d3d1d1;stroke:#333232;}.cls-10,.cls-11,.cls-15,.cls-16,.cls-17,.cls-20,.cls-21,.cls-22,.cls-28,.cls-29,.cls-30,.cls-4,.cls-5{stroke-miterlimit:10;}.cls-29,.cls-30,.cls-4{stroke-width:1.21px;}.cls-5,.cls-6{fill:#825737;}.cls-5{stroke:#301801;stroke-width:1.23px;}.cls-7{fill:#865c3e;}.cls-8{fill:#825c41;}.cls-9{fill:#5d422c;}.cls-10{fill:#654223;stroke:#280901;}.cls-10,.cls-11,.cls-15,.cls-16,.cls-17,.cls-22,.cls-28{stroke-width:0.87px;}.cls-11{fill:#f49499;stroke:#2b1401;}.cls-12{fill:#c9a27b;}.cls-13,.cls-27{fill:#969595;}.cls-14,.cls-16,.cls-20{fill:#fff;}.cls-15,.cls-26{fill:#3b1e15;}.cls-15{stroke:#190101;}.cls-16,.cls-20,.cls-22{stroke:#0a0a0a;}.cls-17,.cls-21{fill:#441b0d;stroke:#0c0401;}.cls-18{fill:#a37d5a;}.cls-19{fill:#000213;}.cls-20,.cls-21{stroke-width:0.81px;}.cls-23{fill:#993340;}.cls-24{fill:#58392d;}.cls-25{fill:#815648;opacity:0.51;}.cls-27{opacity:0.72;}.cls-28{stroke:#280303;}.cls-29{stroke:#351802;}.cls-30{fill:#4c4a4a;stroke:#33302d;}.cls-31{fill:#302f2f;}</style><clipPath id="clip-path"><rect class="cls-1" y="-920" width="1600" height="900"/></clipPath></defs><g id="g"><path class="cls-3" d="M270.11,378.69s3.2,64.86-13.28,83.7a19.27,19.27,0,0,0,11.34,1.46s.17,2.25,7.25-40.26l2.24-48.69S267.12,361.74,270.11,378.69Z"/><path class="cls-4" d="M343.85,233.06s30.45,2.83,28.06-24.09c0,0,9.17,9.83.51,23.75,0,0,1.29,2.09,9.62-4,2.78-2-3.9,13.49-10.09,15.15-9.1,2.43,10.44,2.78,15.17-5,0,0-3.77,20.5-27.48,11C359.64,249.87,343.09,240.64,343.85,233.06Z"/><path class="cls-5" d="M200.06,279.6s-11,35.81,10.09,92.55,10.57,90.24,10.57,90.24-11.05.46-19.21,24.65c0,0,11.76,3.25,38.31,0,0,0,3.63-15.44-6.61-27,0,0,6.73-40.46,1.92-60.93s.48-60,.48-60Z"/><path class="cls-6" d="M186.67,123.76s30.49-4.49,38.17,51.17,19.32,52.56,27.09,64c0,0,27.52-1.8,42.22-12.09s45.56-10.11,59.28,12.09,28.23,56,9.75,117.39c0,0-15.32,23.51-18.38,60.8S340.71,459,340.71,459s5.62,9.7,4.09,20.94c0,0-16.68,4.28-28.49.6,0,0-4-10.8,14.82-22.22,0,0,7.05-32.91,1.68-62.12s-9.07-24.18-4.7-36.61c0,0-12.09,8.4-38.95,5S236.77,374.69,211.25,327s-3.83-42.64-24.58-87.31l4-64.56Z"/><path class="cls-7" d="M250,22.8C253,97,198.37,109.05,198.37,109.05l18.46,12.37C274.69,83.16,250,22.8,250,22.8Z"/><path class="cls-8" d="M177.31,108.27s-16-36.42,21.4-81.4c0,0-44.09,23-46.3,82.13C152.41,109,166.47,116.81,177.31,108.27Z"/><path class="cls-9" d="M250,22.8a110.51,110.51,0,0,1-9.24,50.27c-11.52,25.35-38.63,34.86-38.63,34.86,8.42,5.65,7.06,9.32,31.55-13.13C258.87,71.67,250,22.8,250,22.8Z"/><path class="cls-9" d="M198.71,26.87S164.3,54.25,160.54,92.5l.47,19.37-8,3.62s-2.85-27.29,10.68-50.91S189.26,31.56,198.71,26.87Z"/><path class="cls-9" d="M226,101.68s4,2.37,3.92,9.5l4-4s-1.82-6.39-5.09-8l-3.23-.42Z"/><path class="cls-9" d="M243.31,82s4.46.58,4.67,4.72l2.41-5.77s-4.49-5.72-6.38-4.32Z"/><path class="cls-9" d="M248.91,60.78s5-1.51,5.78,1.84l.43-5.49s-3.23-2.58-5.76.22S248.91,60.78,248.91,60.78Z"/><path class="cls-9" d="M159.49,85.22A16.61,16.61,0,0,1,174,83.32L174.6,78s-9.74-1.32-15.15,4.18S159.49,85.22,159.49,85.22Z"/><path class="cls-9" d="M168,63.55a12.08,12.08,0,0,1,9.91-.34l1.5-4.24s-7.38-2.18-12.18,2.84S168,63.55,168,63.55Z"/><path class="cls-10" d="M223,128.64s12.6.56,21,20.52S255.35,169,260.69,173s7,11.63,6.89,14.8-22.29,5.43-22.29,5.43l-17.93-40.49Z"/><path class="cls-11" d="M225.9,141.92s11.49,7.86,12.17,18.94,8.14,15,12.36,15.32,14.83,2.33,16.33,7.18,2.14,14.82-7.68,15.68-19.19-2.5-26.46-15.79-2.14-14.77-6.85-24C225.77,159.25,226.15,145.07,225.9,141.92Z"/><path class="cls-10" d="M142.75,128.77s-10.26,5.34-16.51,24.6c-5.69,17.56-19.38,27.22-21.75,28.79l-.36.22s-6.31,16,4.61,13.08,27.74-23.75,27.74-23.75l4-17.63Z"/><path class="cls-11" d="M138.46,151.57s-4.8,1.93-10,18c0,0-5,7.8-16.72,9.17-15.37,1.79-14.58,25.38-.29,24.42,6.86-.47,5.64-3.71,19.82-8.57,10.42-3.58,8.35-37.46,8.35-37.46Z"/><path class="cls-6" d="M233.22,212.85s-9.31-33-7.84-48.7.3-26.47-.1-27.86-2.85-20.74-26.49-29.4c0,0-2.23-15.27,3.31-25.3,0,0-11.94,1.7-12.82,18.68s5.55-18.87-29-13.21c0,0,8.74,3.64,10.57,5.8,0,0-15.33-3.16-25.63,8,0,0,10.15,1.71,16.4-.55,0,0-15.54,4.31-16.53,16.28,0,0,12.9-1.77,23.38-8.46,0,0-24.31,6-29.38,27.84-4,17.15,6,37.66,7.51,45.35s.88,10.39.93,14.78,4.61,15.81,13.16,18.62c0,0,3.91,10.71,18.71,8,0,0,9.6-8.56,23.65,39.91l27.86-24Z"/><path class="cls-12" d="M205.13,201.7s13,39.47,14.69,73.7C221.29,305,244.17,329,244.17,329s81.77,23.54,100.72-23.12c0,0,9.64,35.63-16.78,53.68-19.41,13.27-74.91,7.31-89-1.1-13.12-7.79-20.75-14.35-32.56-41.73s-7.87-22.69-8.75-32.21-2.36-22.6-3.73-26.86l-5.48-36.82S189.69,203.82,205.13,201.7Z"/><path class="cls-4" d="M173,223s3.14,15.88-9.83,23.52c0,0,8.39.53,10.68-3.56s4.55,22.79-9.34,32.31c0,0,18.76,2.9,23.71-23.59,0,0,5.58,6.93,2.26,12.69-4.1,7.13,15.38-12.7,3.14-42l-1.8-6Z"/><path class="cls-13" d="M189.78,222.6s5.33,8.94,3,24.27c0,0,0,6.9-7.28-5.32,0,0,2.6,26.56-19.24,32.91,0,0,16.91,2.2,21.33-23.72a10.66,10.66,0,0,1,4.2,11.32s5.45-6.28,5.42-22.62c0-15.46-6.48-21.66-6.48-21.66Z"/><path class="cls-13" d="M172.64,225.08s11.35,3.78,17.14-2.48l2.36-4.78-.67-1.34s-4.4,4.33-12.78,5.3-6.36.28-6.36.28Z"/><path class="cls-14" d="M150,180.65s-1.39.78-2.59,5.87-.59,15.67,5.8,22.71c0,0,4.58,4.37,7.5,5.47,0,0,2.17,8.73,15.72,8.36s28.72-19.08,30.35-24.74c0,0-1.16-11.44-16.91-16.27C189.85,182.05,164,174.68,150,180.65Z"/><path class="cls-15" d="M149.69,177.84s21.33-7.06,42.17,2.47c0,0,.87,14.89-22,19.38C169.89,199.69,150.6,197,149.69,177.84Z"/><circle class="cls-16" cx="201.25" cy="152.44" r="12.7"/><circle class="cls-17" cx="202.16" cy="152.56" r="7.29"/><path class="cls-18" d="M200.34,208.49s14.64,34,13.61,69.22,28.13,57.22,28.13,57.22-12.19,16.37-25.91.52c0,0,11.81,22.68,35.31,27.53l9.08,1.88a316.85,316.85,0,0,1-20.12-46.51S227.75,306,223,284.53s-1.43-51.24-11.73-72.13l-6.09-10.7Z"/><circle class="cls-14" cx="205.66" cy="148.71" r="2.54"/><path class="cls-19" d="M196.88,130.22s5.08-4.56,17.09,4.53C214,134.75,206.53,119,196.88,130.22Z"/><path class="cls-19" d="M141,137.2s4-9.43,16.73-9.82C157.73,127.38,144.61,120.32,141,137.2Z"/><ellipse class="cls-20" cx="152.55" cy="149.66" rx="12.36" ry="11.37" transform="matrix(0.13, -0.99, 0.99, 0.13, -15.65, 281.49)"/><ellipse class="cls-21" cx="153.37" cy="149.77" rx="7.09" ry="6.52" transform="translate(-15.04 282.39) rotate(-82.54)"/><ellipse class="cls-14" cx="156.54" cy="145.99" rx="2.47" ry="2.27" transform="translate(-8.54 282.25) rotate(-82.54)"/><path class="cls-3" d="M206.56,199.85S219.23,188,223,177.4c0,0,3.13,10.1-28.07,37.51Z"/><path class="cls-4" d="M184.93,118.6s-9.92,2-16.14,15.41c0,0-3.67-6,3.2-17.11,0,0-10.94,1.65-14.63,8.71,0,0,1.07-11.33,11.11-17.5a98.69,98.69,0,0,1-23.17,9.33s-2.27-12.32,16.32-17.15c0,0-13.73,2.73-16.63,1.4,0,0,7.71-12.38,25.86-8.83,0,0-10.2-5.37-12-6.14s24.18-7.06,29.31,13c0,0,.08-17.12,15.19-18.86,0,0-6.24,7.78-3.35,25.58C200,106.45,214.16,113.51,184.93,118.6Z"/><path class="cls-22" d="M169.35,199.59s-1.09,11.46,7.4,13.11,19.66-10,21.62-17.8l-1.3-.17a8.32,8.32,0,0,1,3.27.43"/><path class="cls-16" d="M171.78,209.65s-1.48,4.21-8,3-12.09-6.94-12.35-17.16l-1.47.88,2.5-1.55"/><path class="cls-23" d="M104.77,182.47s2.5-2.91,8.37-3.48,13.91-5.06,16.13-10.89c1.86-4.88,4.26-11.63,8.9-15.91l.89,4.91a79.44,79.44,0,0,1-.24,17.26s.21-10.36-1.68-12.69S129.87,172,129,174.19s-6.6,5.28-14.58,5.91S104.77,182.47,104.77,182.47Z"/><path class="cls-24" d="M154.51,177.26s16.58-5.49,32.78,1.92c0,0,.68,11.58-17.08,15.06C170.21,194.24,155.21,192.16,154.51,177.26Z"/><path class="cls-25" d="M160.52,176.32s9.84-3.25,19.45,1.14c0,0,.4,6.87-10.13,8.94C169.84,186.4,160.94,185.16,160.52,176.32Z"/><path class="cls-26" d="M149.69,177.84s4.09-10.8,12.95-17.65"/><path class="cls-26" d="M191.86,180.31s1.76-12.31-2.41-18.12C189.45,162.19,192.66,175.74,191.86,180.31Z"/><path class="cls-26" d="M192.2,166s6.06-2.74,15.76-.31"/><path class="cls-26" d="M143,162.35a39.18,39.18,0,0,1,16.74.71"/><path class="cls-27" d="M147.12,197.51s4,12.8,14.26,15.77c0,0,3,7.39,15.49,6.12s22.62-10.28,29.23-24.52a7.52,7.52,0,0,1-1,6.82c-7,10.18-14.35,21.34-28.72,21.36s-12.8-4.23-15.72-8.36A23,23,0,0,1,147.12,197.51Z"/><path class="cls-28" d="M150,180.65s-3.64,2.49-3.64,13.33,7.27,19.28,14.35,20.72c0,0,1.23,9.17,15.72,8.36s19.84-8.59,30.15-23.21c0,0,2.74-10.14-14.9-17.18"/><path class="cls-13" d="M154.34,206.1s6.87,8.83,14.46,6.27c0,0,4.29-2.38,2-3.63C170.81,208.74,165.35,214.48,154.34,206.1Z"/><path class="cls-13" d="M171.65,208.37s1.6,4.43,8,4,14.83-9.5,16.56-13.37C196.23,199,185.78,214.23,171.65,208.37Z"/><path class="cls-18" d="M303.14,333.93s-3.26,19.15-9,24.08c0,0,54.38,10.72,50.71-52.12,0,0,11.06,47.06-25.27,57.21s-30.73,1.28-32-4.3l11.48-24.39Z"/><path class="cls-23" d="M227.62,157.17s1.5-8.82,6.3-3.11c3.32,3.94-2.07,16.79,12.93,24.26,0,0,12.72,1.25,18.11,5a4.17,4.17,0,0,1,1.77,2.42s.79-5.05-6.86-7.4a46.93,46.93,0,0,0-11-1.82c-3.43-.23-9.87-5.95-10.37-11.36s-2.18-11.87-5.24-15.3-5.11-6.1-6.87-6.93v16.3l1.53,4a26.15,26.15,0,0,1,.66,4.24,20.57,20.57,0,0,0-.43-7.08C227.19,157.42,227.62,157.17,227.62,157.17Z"/><path class="cls-3" d="M198.33,321.43S207,353,223,363.49c0,0,3.09,30.17,6.32,46.63s4.09,40.68,0,49.82l2.8.12s7.56-36.7,1.67-63c0,0-3.76-27.65-.31-41.67,0,0-10.83-8.6-17.26-19.92s-16.8-32.22-17.84-41.32-.57-1.2-.57-1.2S197.43,314.88,198.33,321.43Z"/><path class="cls-6" d="M229.27,277.71s.68,11.19,8.35,32.77,19.1,52.61,28.4,61.67,8.25,37,7.79,43.51-5,45.4-7.79,51.84c0,0,9.1,1.46,13-.46,0,0,.63-23.18,2-33.08s2.85-22.77,8.85-31.72,9-26.52,2.18-34.88c-5-6.16-6.47-5.86-1.76-15s16.72-29.3,14.1-49.53"/><path class="cls-3" d="M303.4,324.58l1.25-18.44c-3.13,2.3-4.59,14.48-7.17,22.21-2.89,10.41-8,18.06-18.19,32.1,0,0-5,7.21,10.86,19,0,0,4.49,7.26-8.22,28.15S279,467,279,467s.53-44.32,7.43-58.07,12.28-26.52,8.95-34.07S297.45,338.48,303.4,324.58Z"/><path class="cls-3" d="M301.3,223.11s43.61-.72,55.26,35.91,8.75,79.09,0,96.16S336.51,403.75,340.71,459c0,0,4.17-47.15,5.76-55.23s10.1-33.52,16.71-47.45c9.23-19.49,10.91-53,7.82-69s-7.7-40.07-26.47-58.34S308.46,219.4,301.3,223.11Z"/><path class="cls-3" d="M225.28,136.29s-2.05,21.24-2.33,43.12c-.25,19.67,7.5,60.38,40.67,64.07,2.28.25-14.1-5.11-11.69-4.57L244.51,231c-3.33-3.56-12.61-11.76-16.75-41.56A282.75,282.75,0,0,1,225.28,136.29Z"/><polygon class="cls-24" points="251.93 238.91 264.69 243.9 256.58 238.91 251.93 238.91"/><path class="cls-13" d="M371.91,209s8.34,9.22,0,24.11c0,0,4.16,1,9.87-3.49,0,0-2.39,10.47-11.83,15.32,0,0,8.29,3.59,16.65-4.74,0,0-4.06,11.47-13.67,11.47-13.34,0-13.3-3.41-13.3-3.41s14.77,3.71,20.64-.88c0,0-14.69,2.67-15.27-3.87,0,0,13.07-5,13.7-9.28,0,0-17.22,6.06-16,2.3.59-1.86,11.88-9,10.7-19.37C372.42,208.77,371.91,209,371.91,209Z"/><path class="cls-13" d="M161.29,101.14s-14.24,2.25-15.45,14.35c0,0,7-8.66,11.89-11.22S161.29,101.14,161.29,101.14Z"/><path class="cls-13" d="M158.28,123.26s5.12-10.75,10.94-13.88l-.75-1.27A26.76,26.76,0,0,0,158.28,123.26Z"/><path class="cls-13" d="M172.84,116.23l.72,1.17s-5.24,8.25-4.78,15.24C168.78,132.64,166.16,126.63,172.84,116.23Z"/><path class="cls-13" d="M188.75,103.24s3.11-18.55,14.33-22c0,0-5.82-.51-12.71,9C190.37,90.3,187.56,98.9,188.75,103.24Z"/><path class="cls-13" d="M160.38,86.59s8.07.8,14.22,5.66L177,94s-.5.82-3.65-.41-13.58-6.93-13.58-6.93Z"/><path class="cls-29" d="M203.12,108.7s14.63,5.61,18.67,17.5c0,0,6.67,11.87,4,32s6.92,53.73,9.24,59.16,14.59,20,16.86,21.54,27.74-4.64,31.2-6.51c5-2.69,14.65-6.35,19.89-10.16s23.51-10.15,41.51,6.76,25.37,45.26,27.29,64-.32,46.89-13.38,74.38-15.93,62.82-15.63,69-2.16,21.87-2.16,21.87-6.26,3.18-9.52.11c0,0,1.91-15.72,3.09-22.87s1.48-28.79-2.41-44.41-8.89-24-3.7-31.45c0,0-16.11,9.35-33.71,7.79"/><path class="cls-29" d="M260.56,364.86s-27.91,1.73-47.92-35.85c0,0-14.45-23-14.88-44.48l-3.48-24.9"/><path class="cls-29" d="M236,289.75s1.91,42.85,26.43,78c0,0,10.52,8.61,11.46,31S267,465.43,266,467.5c0,0,7,2.55,13-.46,0,0,0-42.8,6-54.43s13.31-24,10.69-36.93-.78-19.46,2.39-34.15,7-17.89,6.56-35.39"/><path class="cls-29" d="M270.11,378.69s3.29,69.26-13.28,83.7a18.41,18.41,0,0,0,10,1.75"/><path class="cls-29" d="M153.64,114.61A36.25,36.25,0,0,0,139.09,136s-2.81,9.6,3.66,32.88c0,0,5,13.62,4.59,16.35"/><path class="cls-29" d="M344.89,305.89s9.72,39.08-16.05,53"/><path class="cls-30" d="M256.83,462.39S247,467.13,247,480.94c0,0,5.56.88,12.52,1.57s6.92-17.61,6.92-17.61S258.79,464.27,256.83,462.39Z"/><path class="cls-30" d="M220.72,462.39S210,462.13,201.51,487c0,0,12.86,3,38.31,0,0,0,3.73-16.56-6.61-27C233.21,460.06,225.74,466,220.72,462.39Z"/><path class="cls-30" d="M266,467.5a33.77,33.77,0,0,0-19,28.14s17.16,5.29,43,0c0,0,3.42-14.21-11-28.6C279,467,269.53,471.56,266,467.5Z"/><path class="cls-30" d="M331.13,458.3s-15.44,5.89-14.82,22.22c0,0,17.32,4.07,32.07,0,0,0,2.66-13-7.67-21.54C340.71,459,332.54,461.62,331.13,458.3Z"/><path class="cls-31" d="M260.11,497.11s-.1-12.61,7.77-20.29c0,0-1.85,14.34-1.75,20.59Z"/><path class="cls-31" d="M215.41,488.35s.37-11,5.58-17.07c0,0-.61,12.44,0,17.07Z"/><path class="cls-31" d="M326.15,482s.62-11.36,5.59-15.6c0,0-2.34,12.74-.88,15.94Z"/><path class="cls-31" d="M259.55,468s-6.38,7.4-7.38,11.78l7.38-8.2Z"/><path class="cls-29" d="M202.08,107.93s15.66-5.86,26.6-17.51,22.84-32,21.27-67.62c0,0,8,15.7,4.68,40.36s-13.45,42.39-36,57.06"/><path class="cls-29" d="M173.92,85.77A79,79,0,0,1,182.86,51s8.43-18.94,15.85-24.15h0S182.68,34,169.2,55.6s-16,39.2-16,39.2"/><line class="cls-29" x1="152.41" y1="101.74" x2="152.41" y2="103.96"/></g></svg>