<svg id="Layer_1" data-name="Layer 1" xmlns="http://www.w3.org/2000/svg" xmlns:xlink="http://www.w3.org/1999/xlink" viewBox="0 0 512 512"><defs><style>.cls-1{fill:none;}.cls-2{clip-path:url(#clip-path);}.cls-3{fill:#a09e9d;}.cls-4{fill:#843d2b;}.cls-5{fill:#793025;}.cls-6{fill:#4c0f09;}.cls-7{fill:#9c5b3f;}.cls-8{fill:#914e38;}.cls-9{fill:#380e1b;}.cls-10{fill:#ac6553;}.cls-11{fill:#8d4936;}.cls-12{fill:url(#linear-gradient);}</style><clipPath id="clip-path"><rect class="cls-1" x="-1620" width="1600" height="900"/></clipPath><linearGradient id="linear-gradient" x1="184.96" y1="279.43" x2="186.7" y2="526.76" gradientUnits="userSpaceOnUse"><stop offset="0.01" stop-color="#4c0f09"/><stop offset="0.32" stop-color="#d9998c"/><stop offset="0.96" stop-color="#e0a093"/></linearGradient></defs><g id="c"><g id="c-2" data-name="c"><polygon class="cls-3" points="108.28 287.01 512.04 284.06 512.04 272.46 508.87 269.27 173.51 273.54 108.28 287.01"/><polygon class="cls-4" points="108.28 287.01 113.41 312.98 512.04 312.98 512.04 284.06 108.28 287.01"/><polygon class="cls-5" points="184.91 312.98 190.47 513.87 512.04 513.87 512.04 312.98 184.91 312.98"/><polygon class="cls-6" points="184.91 312.98 512.04 312.98 512.04 334.43 185.39 330.29 184.91 312.98"/><polygon class="cls-7" points="209.17 286.24 353.3 285.22 358.1 312.98 221.15 312.98 209.17 286.24"/><polygon class="cls-8" points="231.18 330.87 296.61 513.87 379.49 513.87 361.68 332.52 231.18 330.87"/><polygon class="cls-9" points="221.33 350.53 512.04 353.05 507.26 513.87 494.67 513.87 499.99 363.51 234.39 361.42 242.71 513.87 227.35 513.87 221.33 350.53"/><path class="cls-10" d="M242.71,513.87l-8.32-152.45L500,363.51v23.08s-4.31,1.09-5-1.46l.05-17.64-254.28-1.63,7.63,148Z"/><polygon class="cls-11" points="231.18 330.87 238.26 350.67 363.57 351.76 361.68 332.52 231.18 330.87"/><polygon class="cls-12" points="190.47 513.87 184.91 312.98 181.34 312.98 187.57 513.87 190.47 513.87"/></g></g></svg>