<svg id="Layer_1" data-name="Layer 1" xmlns="http://www.w3.org/2000/svg" viewBox="0 0 512 512"><defs><style>.cls-1{fill:#e8e8e8;}.cls-1,.cls-18,.cls-19,.cls-2,.cls-22,.cls-23,.cls-9{stroke:#161616;}.cls-1,.cls-12,.cls-13,.cls-18,.cls-19,.cls-2,.cls-22,.cls-23,.cls-24,.cls-25,.cls-5,.cls-9{stroke-miterlimit:10;}.cls-1,.cls-18,.cls-19,.cls-2,.cls-24,.cls-25{stroke-width:0.78px;}.cls-2,.cls-23,.cls-9{fill:#6b1230;}.cls-12,.cls-19,.cls-3,.cls-5{fill:#fff;}.cls-4{fill:#020206;}.cls-12,.cls-25,.cls-5{stroke:#111;}.cls-5{stroke-width:0.96px;}.cls-6{fill:#8e8e8d;}.cls-7{fill:#282828;}.cls-8{fill:#5b031e;}.cls-9{stroke-width:0.92px;}.cls-10{fill:#726f70;opacity:0.53;}.cls-11{fill:#bfbfbf;}.cls-12,.cls-13{stroke-width:0.86px;}.cls-13,.cls-16{fill:#519fe2;}.cls-13{stroke:#030d54;}.cls-14{fill:#00001e;}.cls-15{fill:#fafaff;}.cls-17{fill:#ededed;}.cls-18{fill:#181818;}.cls-20{fill:#918e8f;opacity:0.68;}.cls-21{fill:#383838;}.cls-22{fill:#efefef;}.cls-22,.cls-23{stroke-width:1.16px;}.cls-24,.cls-25{fill:none;}.cls-24{stroke:#232323;}</style></defs><g id="z"><path class="cls-1" d="M86,65.18S68.76,52.77,55,60.69c0,0,3.71,18,22.61,21L91.84,75.8Z"/><path class="cls-2" d="M61.6,64.28s9.15,9.44,21.63,11.52l-6.54,2.78S64.9,76.06,61.6,64.28Z"/><path class="cls-3" d="M100.05,161.56s5.31-7.62,14.82-9.09l22.27,6.69,15.23-11.84L160,126.2,131,71.78l-1.93-3.37S99.14,54,77.61,86.15c0,0-2.35,11.62-2.24,16.5l-.61,8s-5.41,7.29-5.55,10.72Z"/><path class="cls-4" d="M86,90.27s1.18,14.58-2.77,20.36a38.74,38.74,0,0,0,9.84-25.85S87.59,81.26,86,90.27Z"/><path class="cls-5" d="M85.78,95s-3.75-2-2.55-9.66c0,0-4.83,3-6.8,7.29,0,0-2.74-8.47,0-14.83,0,0,6.7-3.35,11.32-3.68L76.69,71.7s.37-11.31,9.32-17l5.83,5.65-4.09-7.47a23.1,23.1,0,0,1,13-4.78L123,47.31s13.2,2.82,21.68,8.89c0,0-.71,7.18-2.83,9,0,0,5.19-3.37,6.13-5.73,0,0,19.32,15.79,26.63,33.23l-7.78,7.1,9.66-4.28,4.48,10a86.7,86.7,0,0,1-9,7.86s6.6-.19,11.32-3.73c0,0-.38,23.29,11.12,33.68l-4.29,5.16,5.42-1.84s19,32,19,48.38c0,0-16.65-21.55-20.34-29.68-3.48-7.69-26-21.33-26-21.33l-15.08-42.62L134.94,72.94,120.13,61l-14.74,6.84s-7.12.08-11.6,15.4C93.79,83.25,89.08,92.68,85.78,95Z"/><path class="cls-6" d="M275.52,342.71S291.05,376.1,297,384.13c0,0-22.52,78.7-23.82,86.46,0,0,2.59.78,10.62,2.33,0,0,3.36,5.18,3.88,7.38,0,0,3.88-6.6-1.3-12,0,0,23.05-74,31.07-83.61,0,0-10.61-27.7-8.8-49.71l-7-7Z"/><path class="cls-6" d="M153.73,461.61l4-2.88-2-61.11S144.8,335,144.22,328l32.57,9.43,5.48,30s-9.8,40.64-10.38,50.15L169,455s2.59,7.5,1.15,11C170.16,465.94,156.61,461.9,153.73,461.61Z"/><path d="M153.73,461.61s-13.33,6.93-12.29,18.69c0,0,11.91,3.2,23.81-1.81,0,0,5.65-2.94,4.91-12.55Z"/><path d="M190,472.44S177.78,474.73,175.9,490c0,0,18,4.59,26.94-3.76,0,0,2.55-5.84,2.74-10.12Z"/><path d="M273.19,470.59s-11.46,2.26-14.81,17.51a34.84,34.84,0,0,0,24.65,0s4.73-3.06,4.66-7.8l-3.88-7.38Z"/><path d="M374.94,477.43s-11.31,5.86-12.77,16.31c0,0,17.33,4.81,28.4-2.5,0,0,4-6.2.62-10.94Z"/><path class="cls-3" d="M109.83,125.32l-.63-45.53,18.26-13.58s24.37,9.59,37.4,50c0,0,36.95,63.66,54.29,81.19s65.47,23.79,88.42,17.95,43.59-9.92,63.22,7.26,31.09,59.66,17.2,95.15c-8.6,22-2.49,43.63-2.49,43.63s8.08,13,7.6,25.73l-1.43,77s9.56,13.86-.48,16.25l-16.25-2.87,4.92-4.66L367.5,381.11s-53.28-28.94-66.19-48.54c0,0-30.53,22.87-89,18.3,0,0-.61,8.23-6.1,13.1L202.83,469.7s2.44,4,2.75,6.4L190,472.44l-13.71-127s-8.92-1.3-13.28-4.21c0,0-21.5.73-30.75-24s-6.59-60.54-4.84-101.5c1.51-35.31-13.16-55.42-17.23-60.3a2.89,2.89,0,0,1-.54-2.74l1.81-5.76-1.67-21.56"/><path class="cls-7" d="M73,177.1a16.42,16.42,0,0,0,15.18,0c8.32-4.16,9-14.44,15.66-20.07s6.12-15.67,2.21-18.36-11.75-2-11.75-2S87,133,83.05,122,63,126.18,63,126.18s-5-5.15-11.75,5.39a10.93,10.93,0,0,0,0,11.75s-.49,8.32-3.67,10.77,7.34,9.79,17.87,8.08a8.23,8.23,0,0,1,5.63,7.1C71.54,174.9,73,177.1,73,177.1Z"/><path class="cls-8" d="M71,162s16.28-3.5,21.2-18.65h1.44s8.64,20.3-9.46,29.48c0,0-10.43,3.93-10-7.28A5.85,5.85,0,0,0,71,162Z"/><path class="cls-9" d="M74.77,141.86s3.33-2.93,5.65-1.63,3-4.35-1.45-4.21S74.77,141.86,74.77,141.86Z"/><path class="cls-10" d="M59.47,130.63S68.7,122.57,78,123c0,0,1.88.78,3.43,5.17s5.82,10,15.14,9.32a14.82,14.82,0,0,1-9.19-7.23C83.87,124.11,84.48,118.9,78,118s-13.21,6.85-15,8.16c0,0-3.46-3.6-9.15,2s-5.07,11.47-2.6,15.18c0,0-1.8-9.1,4.29-13.76S59.47,130.63,59.47,130.63Z"/><path class="cls-11" d="M106.26,139.62s20,5.55,29.6-.68,10.36-17.5,10.36-17.5,6.65,17.11-7.58,27-26.52,9.33-26.52,9.33l-1.72-2.32a2.27,2.27,0,0,0-2.77-.74c-1.33.61-3.35,2-6,5.28l5-12Z"/><path class="cls-4" d="M102.44,138.16s7.28,7.54-2.21,18.35S93.09,175,82.26,176s-8.71-4.75-9.29-6.49-1.69-7-4.07-7.59c0,0-4.8-.91-.87,1.7,0,0,3.29,1.84,3.67,9.88s13.49,5.64,16.49,3.63,6.77-5.44,11.86-15.54c0,0,6.33-5.84,8.16-11.14S109.05,139.05,102.44,138.16Z"/><path class="cls-4" d="M49.41,152.39s.2,7.38,18.23,6.22S91.84,144,91.84,144s-2.7,15.91-26.42,18.16c0,0-14.6,1.93-18.45-7.24C47,154.93,45.11,152.08,49.41,152.39Z"/><path class="cls-4" d="M69.2,144.85s-.49-12.58,9.11-13.37c0,0,3.54,0,5.37,4.54,0,0-3.92-4.54-8.92-1.61A12.09,12.09,0,0,0,69.2,144.85Z"/><ellipse class="cls-12" cx="111.85" cy="106.75" rx="11.73" ry="9.53" transform="translate(-23.75 181.04) rotate(-72.38)"/><ellipse class="cls-13" cx="111.85" cy="106.75" rx="6.73" ry="5.47" transform="translate(-23.75 181.04) rotate(-72.38)"/><ellipse class="cls-14" cx="111.58" cy="107.78" rx="4.61" ry="3.76" transform="translate(-6.4 208.51) rotate(-84.5)"/><ellipse class="cls-15" cx="110.66" cy="104.13" rx="1.46" ry="1.38"/><ellipse class="cls-15" cx="111.5" cy="111.51" rx="0.93" ry="0.88"/><path class="cls-12" d="M80.32,100s-4.21-2-6.11,5.9c0,0-1.43,6.25,1.56,10.67a16.18,16.18,0,0,0,5.43-9.82S81.88,101.35,80.32,100Z"/><path class="cls-16" d="M76.79,107.06a7.71,7.71,0,0,0,1.59,5.82c.37.49,2.55-6,2.55-6l-.05-4.25S77.75,102.25,76.79,107.06Z"/><path class="cls-14" d="M80.86,104.13A3.36,3.36,0,0,0,78,107.78c0,3.36,1.45,4.3,1.45,4.3a15.8,15.8,0,0,0,1.8-5.33c.15-2.32.15-2.65.15-2.65"/><ellipse class="cls-15" cx="79.37" cy="105.01" rx="1.06" ry="1.33"/><path class="cls-4" d="M96.52,126.51s19.73,3,28.8-13.6,4.08-30.86,4.08-30.86,12.77,20-1.94,39.47C114.87,138.16,96.52,126.51,96.52,126.51Z"/><path class="cls-4" d="M106.26,88.63s12-6.58,15.88,5c0,0,.1-8.75-7.27-11.57C108.93,79.78,106.26,88.63,106.26,88.63Z"/><path class="cls-4" d="M75.62,98.49s2.29-4.65,5.73.56c0,0-.42-6.11-3.44-5.21C75.33,94.62,75.62,98.49,75.62,98.49Z"/><path class="cls-4" d="M109.83,137s19.29-3.63,24.71-14.51,6.36-24.79,5-32.26c0,0,5.84,7.06,1.41,30.24S109.83,137,109.83,137Z"/><path class="cls-4" d="M99.43,70.29s3.63,18.29-3.93,28.76c0,0,10.75-15.75,9.73-31.45C105.23,67.6,98.88,66.28,99.43,70.29Z"/><path class="cls-4" d="M112.12,157.81s8.76-1.68,19-4.77c4.26-1.28,8.78-2.81,13-4.56,0,0,.6,13.1-24.32,23.1C119.88,171.58,114.31,159.92,112.12,157.81Z"/><path class="cls-4" d="M166.09,118s-10.57,36.2-33.79,55.46c0,0,12.08-.57,26.62-15.86S176.29,136,176.29,136Z"/><path class="cls-17" d="M59.45,162.21s2.69,6.2,17.48,1.14S93.07,149,93.07,149l-2.17-2.07S87.84,155.11,80.25,158,66,162.61,59.45,162.21Z"/><path class="cls-17" d="M74.16,167.39s2.5,4.39,9.52,1.28a17.87,17.87,0,0,0,10.13-14c.16-3.51.32-5.27.32-5.27l1.26.39s1.12,9.17-3.27,15.54-6.06,7.33-9.86,8.13S74.16,172.44,74.16,167.39Z"/><path class="cls-4" d="M86,54.74l15.57,16.69a72.11,72.11,0,0,0-6.06,8.91L80.93,59.57S83.43,55,86,54.74Z"/><path class="cls-4" d="M100.77,48.14l-4.25.63S97.93,65,101.58,68.41l3.65-.81Z"/><path class="cls-4" d="M127.45,67.39s5.43-11,6-16.91l9,4.26s-3.25,13.6-7.49,18.2Z"/><path class="cls-4" d="M144.2,79.63A66.94,66.94,0,0,0,160,71.08s9.74,11.55,12.18,16.57l2.45,5-14,13S150.27,83.5,144.2,79.63Z"/><path class="cls-4" d="M183.34,109.64s-4.09,8-15.31,11.8l12,20.42s7.87-3.53,9.52-4.82C189.55,137,182.7,122.65,183.34,109.64Z"/><path class="cls-4" d="M192,140.73l-7.61,7.75s5.12,11.55,11.84,18.39l6.42-7.71-7.1-12.52-5.42,1.84,4.29-5.16Z"/><polygon class="cls-4" points="201.96 175.28 208.16 171.58 212.29 182.75 208.81 184.85 201.96 175.28"/><path class="cls-18" d="M418.79,302.06s-11.29,12.86,5.65,28.81,20.88,12.86,20.88,12.86-6.39-4.89-4.42-11.23,3.93-7.79,2.21-17.76-11.87-15-17.23-17.39C425.88,297.35,419.53,297.17,418.79,302.06Z"/><path class="cls-19" d="M378.46,231s32.23,11.75,40.92,32.32,6.15,45.14,6.15,45.14-7.6-5.61-7.24-14.43c.34-8.16-.26-25.7-22.47-39.49q-2.67-1.66-5.77-3.24Z"/><path class="cls-20" d="M119.88,171.58c5.78,13.24,8.48,27.22,6.93,41.19,0,35.72-6.89,71.11,6,106.67.87,2.4,3.91,6.67,5.72,9.29,2,2.86,5.68,6.87,8.84,8.31,25,11.43,43.14,10.84,68,13.95,26.4,1.55,57.86-.28,86-18.42L288.4,315.23s-38.19,30.16-114.4,9c0,0-25.95-16.31-29.12-85,0,0-2.48-58.19-11.22-75.1Z"/><path class="cls-3" d="M214.55,292.78s7.26,56.69-8.37,71.19L202.83,469.7s3,4.18,2.75,6.4L190,472.44l-13.71-127-6.1-55.52Z"/><path class="cls-3" d="M273.19,294.87s26.77,35.8,28.12,37.7,14.35,21.68,66.19,48.54l12.36,91.66-4.92,4.66,16.25,2.87s5.75-1.27,4.57-6a55,55,0,0,0-4.09-10.24l1.43-77s2.82-17.29-3.74-32.21c0,0-7.68-8.53-8.22-26.92,0,0,7.11-23.95,7.95-30.41S306,274.87,306,274.87Z"/><path class="cls-4" d="M229.24,204.7s12.42,52.14-13,94.56c0,0,34.39-41.32,29.8-87.74Z"/><path class="cls-4" d="M268.48,216.2s8.23,42.11-11.91,78.65c0,0,23-35.41,22.68-77.65Z"/><path class="cls-4" d="M291.63,217.35s10.8,43.53-2.6,72.52c0,0,12.78-23.15,14-48.49s-4.92-24.47-4.92-24.47Z"/><path class="cls-4" d="M218.82,351.42s16.75-17.26,22-59.54c0,0,4.39,35.69-11,59.58Z"/><path class="cls-4" d="M246.79,350.62s30.79-27.8,34.36-83.36c0,0,1.15,57.8-21.67,81.58Z"/><path class="cls-4" d="M127.41,204.7s28.55-6.56,37.15-21c0,0-18.46,30.3-37.84,36.64Z"/><path class="cls-4" d="M184.43,148.48a49,49,0,0,1-24.44,25s25.87-7.16,29.56-16.59Z"/><path class="cls-4" d="M125.7,190.49s19.19-2.28,24.45-11.54c0,0-8.8,14.75-23.14,20.23Z"/><path class="cls-4" d="M199.26,169.75s-.3,48.37-56.63,65c0,0,33.81,0,54.31-24.41s10.19-27.74,10.19-27.74Z"/><path class="cls-4" d="M125.7,253.39s16.45,17.94,56.57-10.06c0,0-19.76,28.31-57.18,26.14Z"/><path class="cls-4" d="M213.82,191.32s.43,46-26.25,66.46c0,0,29.16-19.8,35.9-56.73Z"/><path class="cls-4" d="M127.17,294.85s36,2.18,58.58-23.39c0,0-11.78,26.18-56,37.48C129.75,308.94,126.28,298.91,127.17,294.85Z"/><path class="cls-4" d="M214.62,343.85s-9.58,18.36-28.87,19.68c0,0,15.13,1.8,24.85-6C210.6,357.5,214,348.63,214.62,343.85Z"/><path class="cls-4" d="M221.39,239s4.91,43.59-25.89,62.26c0,0,28.18-6,30.8-45.78C226.3,255.52,225.65,238.72,221.39,239Z"/><path class="cls-4" d="M139,329.47s22.66-7.08,28.84-16.89c0,0,7.75,13.8-16.17,26.36C151.71,338.94,141.64,335.28,139,329.47Z"/><path class="cls-4" d="M181.13,389.87s-2.55-7.07,9.61-13.59,14.84,11.14,14.84,11.14-5.41-11.37-14.84-6.52S181.13,389.87,181.13,389.87Z"/><path class="cls-4" d="M183.3,410s1.3-9.17,13.69-9.17c8,0,7.65,11.72,7.65,11.72s-4-9.89-10.67-7.28A116,116,0,0,0,183.3,410Z"/><path class="cls-4" d="M295.33,324.51s16.93-85.47,86.75-87.78l6.57,13.59s-29.12-6.39-57.35,21.82S295.33,324.51,295.33,324.51Z"/><path class="cls-4" d="M312.43,344.77s-2.4-36.4,36.06-66.17c0,0-33.42,47.28-29.26,72Z"/><path class="cls-4" d="M314.36,213.64s12.08,19.79,8.74,38.34c-.09.47-.18.94-.29,1.41-4.25,18.94,11.39-22.23.87-41.7Z"/><path class="cls-4" d="M334.56,361.84s6.55-63.26,56.33-52.9c0,0-44.18,2.22-48.9,57.71Z"/><path class="cls-4" d="M392.87,268.28S357,268,342,311.28c0,0,22.39-35.76,51.54-38Z"/><path class="cls-4" d="M336.53,210.29s15.36,9.14,10.3,25.44c0,0,10.95-15.23,0-24.79l-5.88-.65Z"/><path class="cls-4" d="M174.41,328s10.05,12.81,41.09,9.27c0,0-10.1,11.37-39.6,4.28"/><path class="cls-4" d="M356.5,374.84s3.09-24.78,26.9-31l.6-10.2S347.23,346.87,356.5,374.84Z"/><path class="cls-4" d="M369.9,398.87s.12-25.25,23.51-27.42l.29,6.14S374.87,385.07,369.9,398.87Z"/><path class="cls-4" d="M373.16,423s7.23-11.58,17.73-5.65c0,0-17.62,6.48-16.74,13Z"/><path class="cls-4" d="M392.1,441.12s-3.76-8-12-1.62c0,0,12.31,3.87,12,11.18Z"/><path class="cls-4" d="M186.69,441.38s4.92-9.37,17.28-7.54c0,0-9.2-7.84-18.12-.23Z"/><path class="cls-4" d="M283.36,359.05s15.16,4.11,25.74-8.43c0,0-5.22,15.76-21.94,16l-3.8-6.27"/><path class="cls-4" d="M294.39,380.07s17-1,18.88-8.62l2.59,8.62S297,384.73,294.39,380.07Z"/><path class="cls-4" d="M291.32,404.13s8.91,3.06,19.06-5.26c0,0-4.89,10.69-21.46,13.72Z"/><path class="cls-4" d="M393.53,393.29s-18.95,2.47-20.37,10.84c0,0,15.43-9.08,19.72-5.26Z"/><path class="cls-4" d="M288.4,315.23s-4.87-14.56,7.83-30.54c0,0-6.31,28.3-4.37,35.18"/><path class="cls-4" d="M151.46,372.81s2.56-12.2,18.77-14.18c0,0-9.5-8.26-20.92,1.5Z"/><path class="cls-4" d="M159.77,386.88s13.55.14,16.58,6.29l2-8.86S171.86,376.37,159.77,386.88Z"/><path class="cls-4" d="M156.2,411.15s4.68-11.5,17.54-5.42c0,0-8.75-10.22-17.78-1.6Z"/><path class="cls-4" d="M281.7,438.37s5.27,10.31,12.3,6.29l-2.27,6.92S281.11,444.47,281.7,438.37Z"/><path class="cls-4" d="M156.9,432.4s5.62-7.24,14.35-6.57c0,0-14.33,7.24-14.16,12.54Z"/><path class="cls-4" d="M172.38,307.79l1.36,10.37a58.17,58.17,0,0,0,37.16,6.35S176.83,323.22,172.38,307.79Z"/><path class="cls-4" d="M395.82,254.57s-1.74-9.77,5.16-11.65l-4.2-2.76s-6.27,2.48-5.74,11.55Z"/><path class="cls-4" d="M403.8,260.44s-1.36-9.13,6.83-9.54l3.33,3.67s-7.82,1.56-7.24,8.62Z"/><path class="cls-4" d="M414,273.07s.2-7.28,6.57-6.79l1.45,4.38s-5.69-1.67-6.87,4.5Z"/><path class="cls-4" d="M418.16,287.5s3-3.7,6.84-2l-.53-3.73S417.19,282.22,418.16,287.5Z"/><path class="cls-4" d="M419.11,299.56a6.1,6.1,0,0,1,6.77-2.9v-2.28s-7.26-.06-7.17,3.81Z"/><path class="cls-21" d="M418.88,302S414,320.59,430.3,332.29c0,0,9.21,10.22,15.1,11.34,0,0-3.06,3-16.52-8.92S411.09,313.89,418.88,302Z"/><path class="cls-4" d="M385.19,233.91s-3.32,1.9-2.72,4.14l4.11,4.56s.54-5.86,2.67-6.71Z"/><path class="cls-22" d="M126.91,75.8c4.72-36.52-22.36-45.75-22.36-45.75-11.08,33.64,5.74,42.67,5.74,42.67"/><path class="cls-23" d="M123.22,74.15s-10.06-2.46-12.11-19.48-1-16.42-1-16.42,11.69,11.08,13.13,18S124.65,71.9,123.22,74.15Z"/><path class="cls-24" d="M127.45,67.39s13,5.79,20.32,15.82,19.94,38.4,23.89,45.18,28.2,44.92,42.69,63.46,39.35,22,55.74,24.79c0,0,24.11,3.26,47.07-3.59,0,0,32.79-10.49,52.79,8.81,0,0,18.48,15.92,23.58,45.4,4.83,27.92-5,48.92-5,48.92s-6.5,17.58-5.17,27.65c0,0,2.8,7.12,6,11s5.54,21.18,3.74,32.21l-1.43,77s9.74,14.5-.48,16.25l-16.25-2.87,4.92-4.66L367.5,381.11s-66.87-28.18-86.34-81"/><path class="cls-24" d="M301.31,332.57s-29.37,24.19-89,18.3"/><path class="cls-24" d="M276.52,344.84s11,26.77,20.49,39.29l-23.82,86.46,10.62,2.33,3.88,7.38s5.06-4.47-1.3-12c0,0,23.63-76.18,31.07-83.61,0,0-10.49-33.33-9-43.68"/><path class="cls-24" d="M214.55,299.26s7.08,47.79-8.37,64.71L202.83,469.7s3.15,3.49,2.75,6.4L190,472.44,170.45,291.88"/><path class="cls-24" d="M176.33,345.39s-9-1.28-13.28-4.21c-3.28-2.24-17.11,2.69-28.35-18.1,0,0-11.95-12.64-8.69-72.91s-.49-74.3-15.61-94.68c0,0-2-2.81-8.15,3.12"/><path class="cls-24" d="M145.4,335.89l10.35,61.73,2,61.11-4,2.88,16.43,4.33s1.65-4.28-1.15-11c0,0,2.44-51.91,11-75.8"/><path class="cls-24" d="M110.4,155.49s34.52-4.29,35.24-26.92"/><path class="cls-24" d="M76.26,92.05a43.91,43.91,0,0,0-.89,10.6"/><path class="cls-24" d="M74,111.51s-4.66,5.42-4.78,9.84"/><path class="cls-25" d="M69.61,165.34c1.46,1.19,2.09,8.13,2.09,8.13S71,180.15,82.26,179s17.79-17.39,17.79-17.39c3.88-2.83,9.89-11.31,9.15-16.71s-4.09-8-11.15-8.21-9.22-4.22-11.83-8.62c-3.07-5.17-1.38-9.32-7.74-9.91C71,117.43,63,126.18,63,126.18c-1-1.23-4.48-3.71-10.51,3.45s-1.24,13.69-1.24,13.69-.07,6.75-1.94,8.44-3.59.54-2.31,3.17,3.7,6.31,13.32,7.41c0,0,15.8.42,25-7.92,7.72-7,6.58-11.82,6.58-11.82L89.21,142l5.26,1.29"/><path class="cls-25" d="M92.17,143.32s3.45.25,3.35,9.16-4,16.46-10.14,20-10.56.22-11.22-3.39l-.81-4.68"/></g></svg>