<svg id="Layer_1" data-name="Layer 1" xmlns="http://www.w3.org/2000/svg" viewBox="0 0 600 512"><defs><style>.cls-1{fill:#747474;}.cls-2{fill:#525250;}.cls-3{fill:#5e5e5e;}.cls-4{fill:#3a3a3a;}.cls-5{fill:#2d2d2d;}.cls-6{fill:#474546;}.cls-7{fill:#8c8c8c;}.cls-8{fill:#5c5c5c;}.cls-9{fill:#3c1615;}.cls-10{fill:#fe9498;}.cls-11{fill:#dc7272;}.cls-12{fill:#323031;}.cls-13{fill:#595a5c;}.cls-14,.cls-17,.cls-21{fill:#fff;}.cls-14,.cls-18,.cls-20,.cls-21{stroke:#323232;stroke-miterlimit:10;}.cls-14,.cls-18{stroke-width:2px;}.cls-15{fill:#421c1b;}.cls-16{fill:#050102;}.cls-18,.cls-20{fill:none;}.cls-19{fill:#323232;}</style></defs><g id="e"><path class="cls-1" d="M18.34,329.71S-5.15,313,22.13,318.49c0,0,40.23-28.58,48.52-28,0,0,22.85.33,56,7.91,0,0,13.76,1.57,20.22-7.92,0,0,5.61-43.46,30.6-56.37,0,0,11.51-24.15,19.08-28.64,0,0,2.81-19.37,15.45-22.17,0,0,10.66-3.93,25,16.28,0,0,16,6.74,19.65,10.1,0,0,24.43-28.07,48.57,3.65,0,0,55.86-45.9,115.35-45.9,0,0,57-6.72,88.88,52.41,0,0,11,21.83,12.75,28.62,0,0,20.54,22.37,36.83,21,0,0,20.54,0,15.58-15.58,0,0-34-5.67-32.93-46,0,0-.36-14.52,15.22-19.12,2.13-.71,24.79-11.09,28.69-21.48,0,0,8.14,24-10.63,36,0,0-7.08,2.83,14.17,30.45,0,0,5,6.25-3.19,14.81,0,0,15.23,33-15.22,36.89,0,0-9.92,4.61-45.33-6,0,0-2.92,59.37-11.33,75.72,0,0,33.59,62.88,12.23,85,0,0-13.85,19.38-57.37,0,0,0,12.26-15.43,7.91-32.05,0,0-13.45-19-21-22.55,0,0-13.05,6.33-10.68,31.65,0,0,10.29,26.51-17,25.32,0,0-25.72,4-34.42-1.58,0,0-.8-15.43,3.95-24.53-.39-4.35-4.35-21-1.18-27.3,0,0-19.39-4.75-27.3-8.31,0,0-4.21,13.6,7.29,33.65,0,0,11.77,21.93-1.34,30.76,0,0-19.79,17.11-54.29.53,0,0,9.1-27.27,4.55-38.51,0,0-12-23.26-17.65-26.74a214.56,214.56,0,0,1-31,5.62s-7.76,2.13-7.49,25.4c0,0-37.44,15.78-62.85-15.78l11.77-16.85s9.36-42.25,61.24-43.59l-12-8s-16.3,9.34-46.17,4.55c-.56,1.41-8.73,20.85-8.73,20.85s-21.13,17.47-28.17-9.58c0,0-18.59,7.61-56.34-10.42,0,0-27-13-38.88-13.24,0,0-45.91-3.1-57.74,10.14,0,0-5.64,14.93-13.81,5.92C17.51,335.42,20.41,331.29,18.34,329.71Z"/><path class="cls-2" d="M18.6,334.61s8.17,1.44,9.13-8.49c0,0,39.55-21.77,82-7.2,0,0,35.19,18.65,58.44,19.79,0,0,33.75,6.38,38.08-22.35l3.7,1.82s2,20.7-23.84,24.15c0,0-17,7.5-46.33-5.09,0,0-39.46-17.84-49.19-18.23,0,0-47-2.84-59.25,10.05,0,0-5,15.22-13.81,5.91Z"/><path class="cls-2" d="M355.44,322.42s3.31,5.61,4,10.24c0,0,4,3.37,4-3.44,0,0,17.84,26.9,55.84-30.59,0,0,0,21.21,7.27,30.59,0,0-1.32,17.32,25.77,50.69,0,0-30.5,24.24-81.09,0,0,0-26.64-12.27-40.57-10.07,0,0-16.12,12.12-52.16,15.58,0,0-8.91.14-9.21,25.58,0,0-3.39-5.63-8-7.18,0,0,6.32-14.43,7.16-22.07C268.34,381.75,348.12,378.4,355.44,322.42Z"/><path class="cls-3" d="M356.71,374.25s-.54,24.14,7.62,43.87c0,0,1.85,19.78-1.6,32.66,0,0,19.65-3.44,18.52-20.71A48.4,48.4,0,0,0,374.86,411s-8.8-22.48-4.71-31.55C370.15,379.45,360.71,375.13,356.71,374.25Z"/><path class="cls-3" d="M436,387.61s.07,10.9-2.25,13.5c0,0-8.17,15.79,1.13,39.68l.12.84s11.22-1.68,11.93-12.54c0,0,.26-7.22-1.81-12.4,0,0-2.21-23.06,10.68-31.65l.14-.14s-3.16-3.55-3.7-5C452.25,379.91,437,387.08,436,387.61Z"/><path class="cls-3" d="M499.2,204.22s19.55,23.52,12.7,94.41c0,0-1.87,19.49-7.16,34.75,0,0-6.55,21,4.67,40.87,0,0,14,32.64,7.47,71.58,0,0,19.74-3,15.85-36.82,0,0-4.58-32-18.72-54.41,0,0,14-39.11,11.33-75.72C525.34,278.88,524.12,232.27,499.2,204.22Z"/><path class="cls-3" d="M524,264.79S550.5,284,570.39,276.16c1.11-.37,19-6,10.4-24.16l-6.23,1.38s6.21,20.71-24.73,14.28c0,0-27.45-10.48-34.06-35.1Z"/><path class="cls-4" d="M574.56,253.38s9.42,0,11.33-5.37c0,0,10.31-7.34,1.38-17.2,0,0-12.76-18.88-13.26-23.3,0,0-.74-4.9,5.55-8.49,0,0,12.43-9.55,6-32.27,0,0,.4,7.28-31.14,22.34,0,0-20.8,6.18-11,34.68C543.42,223.77,547.77,248.26,574.56,253.38Z"/><path class="cls-5" d="M582.24,251.73c12.79-5.57,7.92-16.5,7.92-16.5-2.11-4.29-13.2-21-13.2-21-7.45-9.69,3.58-16.13,3.58-16.13,12.81-14.29,5-31.37,5-31.37.81,23.43-14.06,35.37-14.06,35.37-8.71,9.19,13.22,32.41,13.22,32.41,3.06,22.08-21.61,14-21.61,14l-3.22-.94S573.67,257.36,582.24,251.73Z"/><path class="cls-6" d="M549.44,237.39s-10-35.08,11.37-51.48c0,0-24.71,7-19.55,29.51C541.26,215.42,543.33,230.46,549.44,237.39Z"/><path class="cls-7" d="M305.17,212.88s100.11-62.76,180-23.19C485.19,189.69,423.83,122.29,305.17,212.88Z"/><path class="cls-7" d="M428.94,311.28s-8.27,34.79,42.7,82c0,0,22.29,23.21,3.12,48.38l-5.89-2s10.75-13.95,7.91-32C476.78,407.59,406.82,343.65,428.94,311.28Z"/><path class="cls-7" d="M402.08,389.72s-.26,21.43,1.05,25.36l-1.07,28.29s-7.36-1.49-8.36-2.95c0,0-.45-19.34,3.95-24.53,0,0-5.28-23.21-1.18-27.29C396.47,388.6,400.77,389.53,402.08,389.72Z"/><path class="cls-7" d="M314.34,377.74s22.43,26.6,15.05,53.78l-3.84,15.83-4.72-2.12s7.41-29.1,5-37.17c0,0-12.57-23.57-18.11-28.08Z"/><path class="cls-7" d="M291,320.4l-10.7,18.67s-45.75,1.73-59.3,43.08l-8.07,20s-5.92-4.39-6.59-6.94l11.77-16.85s7.22-42.32,61.24-43.59Z"/><path class="cls-7" d="M252.48,214.36s-44-28.87-68.41,21.33c0,0-19.34,4.18-24.06,42,0,0,1.35,48.23-73.88,18.55,0,0-25-3.9-64.58,25,0,0-5.84-4.75-12.61-1.86,0,0-.69-5.6,13.19-1.28,0,0,32.76-25.59,46.65-27.79,0,0,19.07-3,57.84,7.69,0,0,18,.11,20.89-12,0,0,4.53-41.65,29.93-52.31,0,0,18.71-62.05,79.16-24.42,0,0,25.59-29.39,48.57,3.65,0,0,22.91,26.53,65,23.48,0,0-23.12,16.26-67.36-20.05,0,0-21-43-61.32,13.73Z"/><path class="cls-7" d="M253.45,214.36s-44-28.87-68.41,21.33c0,0-19.34,4.18-24.06,42,0,0,1.35,48.23-73.88,18.55,0,0-25-3.9-64.57,25,0,0-5.85-4.75-12.62-1.86,0,0-.69-5.6,13.19-1.28,0,0,32.77-25.59,46.65-27.79,0,0,19.08-3,57.85,7.69,0,0,18,.11,20.89-12,0,0,4.53-41.65,29.92-52.31,0,0,18.71-62.05,79.17-24.42,0,0,25.59-29.39,48.56,3.65,0,0,22.91,26.53,65,23.48,0,0-23.11,16.26-67.35-20.05,0,0-21.05-43-61.32,13.73Z"/><path class="cls-8" d="M222.72,326.88s45.92,6.93,40.28-19.75c0,0,3.87,22.52,28,13.27l-11.65,14.38-12-8s-11.11,10.17-46.17,4.55Z"/><path class="cls-9" d="M187.35,342.15s22-1.36,22.58-24l5.87,2.22s-3.92,34.44-17,33.38C198.85,353.78,189,354.76,187.35,342.15Z"/><path class="cls-10" d="M214.56,328s-26.19,16.28-25.41,20.11c0,0,6.76,12.36,17.22,1.71C206.37,349.84,214.63,337.31,214.56,328Z"/><path class="cls-10" d="M243.61,260.8s3.47-42.79,43.32-44.13c0,0,41.72,40.92,78.09,29.69,0,0-1.12,30-31.65,31.69,0,0-5.44,32.41-26.77,26.76,0,0-12.1,28.41-36.79,14.2,0,0-10.05-6.25-7.54-23,0,0-3.13-13.59-11.5-17.15C250.77,278.88,242,269.21,243.61,260.8Z"/><path class="cls-11" d="M250.23,278.3c-3.94-8.47,3.32-54.7,35.84-53.4a47,47,0,0,1,21,15.53s27.11,21.66,54.59,16.45c0,0,1.45,0,1.56-.33,0,0-5.54,21.29-29.55,21.7,0,0-4.13,33.12-26.76,26.77,0,0-11.55,30.4-37.73,13.37,0,0-10.07-8.48-6.77-20.86,0,0-3.72-14.47-10.67-17.43h0Z"/><path class="cls-11" d="M201.76,202s.62-16.57,13.21-11.95c0,0,5.46,2.72,7.66,7C222.63,197.12,211.32,195.84,201.76,202Z"/><path class="cls-12" d="M194.48,246.46s2.86-7.89,26.7-.66c0,0-12.16-11.23-20.75-9.25C200.43,236.55,192.17,238.53,194.48,246.46Z"/><path class="cls-13" d="M192.9,264.34s2.95-25.78,20.53-10c0,0,2.43,2.31,2.31,10.78l-15.14-2.18-2.82,1Z"/><path class="cls-14" d="M192,274.73s10.14,13.33,24.13.65c0,0,.1-11.92-2.16-14.46,0,0-4.88-12.77-14.27-5.82,0,0-5.45,4-6.95,10.24C192.77,265.34,192,271.25,192,274.73Z"/><ellipse class="cls-15" cx="204.55" cy="267.63" rx="8.58" ry="9.63"/><ellipse class="cls-16" cx="204.57" cy="267.46" rx="5.04" ry="5.59"/><circle class="cls-17" cx="201.47" cy="263.79" r="1.93"/><circle class="cls-17" cx="208.06" cy="270.15" r="0.77"/><path class="cls-17" d="M206.37,394.54s-.56,2.94,9.56,10.08C215.93,404.62,223.54,380.07,206.37,394.54Z"/><path class="cls-17" d="M219.51,407c.19,1.09,4.28,5.93,23.65,7.78C243.16,414.79,241.05,377.89,219.51,407Z"/><path class="cls-17" d="M249.18,413.64s10.34-20.88,20-2.82l.17.47s-10.5,3.87-20.67,3.48C248.91,414.64,249.18,413.64,249.18,413.64Z"/><path class="cls-17" d="M320.83,445.23s2.43-19.22,9.44-12.44a41.32,41.32,0,0,1,4,16.88v.64S324.33,447.27,320.83,445.23Z"/><path class="cls-17" d="M336.84,450.78s1.92-16.5,9.36-17.63c0,0,7.22-1.8,14,13.2,0,0,1.95,3.76,1.81,4.43A46,46,0,0,1,336.84,450.78Z"/><path class="cls-17" d="M367.37,449.41s-2.08-12.17,3.3-14.69c0,0,5.55-3.7,10.36,0C381,434.72,380.2,445.16,367.37,449.41Z"/><path class="cls-17" d="M393.7,440.42s0-12.64.66-13.66c0,0,8-2.58,10.86,8.81,0,0,1,6.45.5,7.32l0,.37S398.34,443.43,393.7,440.42Z"/><path class="cls-17" d="M407.89,443.26s4.58-15.73,13.86-11.15c0,0,4.15,2.71,5.6,9.94C427.35,442.05,411,444.2,407.89,443.26Z"/><path class="cls-17" d="M430,441.63c.4-.61-.31-13.68,16.51-9.75.07-.3-.25,7.5-11.48,9.75a27.28,27.28,0,0,1-5.13.42A3.3,3.3,0,0,1,430,441.63Z"/><path class="cls-17" d="M468.87,439.63c-.67-.42,5.93-9,6.59-13.73,0,0,8.75,1.56,10.75,17.61v2.32S473.08,442.32,468.87,439.63Z"/><path class="cls-17" d="M489.51,445.83s5-18.24,14.43-15.55c0,0,7.89,3.77,9.62,15.55l.17,1.11a52.1,52.1,0,0,1-24.5-.34Z"/><path class="cls-17" d="M516.88,445.83s-4.64-16.54,14.55-15.18C531.43,430.65,527.94,443.55,516.88,445.83Z"/><path class="cls-17" d="M208.06,254.72a16.61,16.61,0,0,1,6.48,10.15s-1.5-.28-1.69-.61-.84-1.41-.84-1.41l-.92-1.64-1-1.74s-.3-.1-1-1.77A17,17,0,0,1,208.06,254.72Z"/><path class="cls-18" d="M241.52,230s27.77-60.65,63.65-17.16c0,0,30.18,26.45,65,23.48a21.45,21.45,0,0,1-5.18,10"/><path class="cls-18" d="M256.6,209.23s-54.6-41.59-79.16,24.42c0,0-23.79,8.54-29.79,51.5,0,0-.55,12.88-21,12.79,0,0-38.61-11.42-57.84-7.69,0,0-22.71,6.92-46.65,27.79,0,0-12.58-4.75-13.19,1.28,0,0,0,3.71,9.4,9.95,0,0,1.66,1.14-.83,5.7,0,0,7.79,10,13.81-5.91,0,0,10-13,57.74-10.15A117.66,117.66,0,0,1,120.69,329s38.89,21.32,63.59,13.54c0,0,3.91,26.45,28.17,9.58l8.73-20.85s33.69,6.48,46.17-4.55l12,8s-49.2-2.65-61.24,43.59l-11.77,16.17s20,32.49,62.85,16.46c0,0-.93-25,11-25.76,0,0,37.07-4.32,50.38-15.4,0,0,8.4-4.66,53,15.22,0,0,40.34,16.19,67.44-5.15,0,0,21.71,25.91,25.77,27.68,0,0,4.13,12.16-7.91,32,0,0,40.86,21.12,59.25-2.25,0,0,7.88-9.22,3.84-32.86,0,0-8.58-38-18-49.92,0,0,14.93-43.31,11.33-75.72,0,0,63.27,23.35,64.36-14.09a44.24,44.24,0,0,0-3.27-15.51s8-5.52,2.65-16.08c0,0-12.16-19.06-14.5-23.76,0,0-1-5.86,3.73-9.62,0,0,15.23-9.63,7.23-33.07,0,0-.64,7.92-31.14,22.34,0,0-21.76,6.18-10.57,37.28,0,0,5.18,22.22,30.73,27,0,0,5.26,20.41-25.74,13.85a57.08,57.08,0,0,1-28-23.2s-20.22-81-111.17-78.45c0,0-54.49,3.87-104.45,47.3"/><path class="cls-18" d="M201.76,201.18s10.39-6.52,20.87-4.92c0,0-6.72-11.66-15.75-6.7C206.88,189.56,202.05,191.56,201.76,201.18Z"/><path class="cls-18" d="M197.1,204.13s3.73-29.56,25.53-19.11A53.81,53.81,0,0,1,237,199.12"/><path class="cls-19" d="M201.32,313.26a130.5,130.5,0,0,0,12.93,5.64c2.17.83,4.4,1.51,6.65,2.14s4.55,1.07,6.91,1.61a25.31,25.31,0,0,1-7.22-.09,13.11,13.11,0,0,1-1.79-.3c-.59-.13-1.19-.25-1.78-.4-1.16-.33-2.33-.66-3.46-1.08a39.17,39.17,0,0,1-6.53-3.13A28.36,28.36,0,0,1,201.32,313.26Z"/><path class="cls-19" d="M146.86,289.93A26.81,26.81,0,0,1,153,292.1a28.73,28.73,0,0,1,5.51,3.61A30.91,30.91,0,0,1,161,298,16.84,16.84,0,0,1,162,299.3a7.76,7.76,0,0,1,.49.68l.41.74a14.47,14.47,0,0,1,1.85,6.38l-.19,0c-1.19-1.88-2.1-3.72-3.36-5.38a35.28,35.28,0,0,0-3.79-4.88,27.17,27.17,0,0,0-4.92-3.92,29,29,0,0,0-5.71-2.85Z"/><path class="cls-19" d="M120.37,296.14a12.65,12.65,0,0,1,5.8,2.26,18.83,18.83,0,0,1,6.89,10.44,25.75,25.75,0,0,1,.34,3.14,22.05,22.05,0,0,1-.25,3.15H133a23.24,23.24,0,0,1-.94-2.94c-.33-1-.59-1.92-.89-2.86-.16-.46-.32-.92-.46-1.39s-.27-.95-.44-1.4l-.47-1.4-.63-1.32a15.62,15.62,0,0,0-3.57-4.64,12.77,12.77,0,0,0-5.2-2.86Z"/><path class="cls-19" d="M93.42,290.64a14.31,14.31,0,0,1,3.68,2.56,16.31,16.31,0,0,1,2.83,3.6,10.82,10.82,0,0,1,1.67,4.32,9.26,9.26,0,0,1-.56,4.57h-.2a18.15,18.15,0,0,1-.63-2.14c-.23-.69-.34-1.38-.57-2a38.19,38.19,0,0,0-1.14-4,14.93,14.93,0,0,0-2.14-3.65,15.15,15.15,0,0,0-3-3.05Z"/><path class="cls-19" d="M70.67,289.94a6.47,6.47,0,0,1,3.26,2,9.34,9.34,0,0,1,1.9,3.43c.23.62.38,1.26.55,1.9a8,8,0,0,1,.12,2,12.27,12.27,0,0,1-.37,1.9,8.71,8.71,0,0,1-.81,1.79l-.2,0a8.79,8.79,0,0,1-.39-1.87,16.38,16.38,0,0,1-.23-1.78c-.18-1.15,0-2.32-.22-3.46a9.33,9.33,0,0,0-1.15-3.23,6.42,6.42,0,0,0-2.51-2.42Z"/><path class="cls-19" d="M50,298.53a8.24,8.24,0,0,1,2.83.21,6.47,6.47,0,0,1,2.65,1.37,8,8,0,0,1,1.11,1.14,3.32,3.32,0,0,1,.62,1.46,4,4,0,0,1-.57,3h-.2a8.3,8.3,0,0,1-.62-1.29c-.22-.38-.33-.77-.52-1.11a10.31,10.31,0,0,0-1-2,7.8,7.8,0,0,0-4.34-2.5Z"/><path class="cls-19" d="M33.65,308.62a6.81,6.81,0,0,1,2.07-.18,5.51,5.51,0,0,1,2.11.6,3,3,0,0,1,1.71,1.64,2.55,2.55,0,0,1-.26,2.32l-.2,0c-.64-.58-.94-1-1.31-1.41s-.43-.87-.85-1.25a6.94,6.94,0,0,0-3.25-1.54Z"/><path class="cls-20" d="M512.25,223.27s13.52,28.44,13.09,55.61"/><path class="cls-19" d="M198.36,251.27a6.92,6.92,0,0,1,3.95-2.71,8.27,8.27,0,0,1,5,.21,11.33,11.33,0,0,1,4.11,2.63c.54.59,1.06,1.2,1.53,1.83a19.71,19.71,0,0,1,1.15,2.06c-.67-.44-1.27-.92-1.86-1.38s-1.24-.86-1.81-1.31a18.78,18.78,0,0,0-3.77-1.95,10.06,10.06,0,0,0-4-.56A11.77,11.77,0,0,0,198.36,251.27Z"/><path class="cls-18" d="M184.28,342.58s25.3-1,25.65-24.4l5.87,2.22s-1.43,11.69-2.32,14.38c0,0-4,16.4-12.67,18.89,0,0-10.82,3.45-13.46-11.17"/><line class="cls-18" x1="223.57" y1="324.56" x2="221.18" y2="331.31"/><line class="cls-18" x1="288.37" y1="322.99" x2="279.38" y2="334.78"/><path class="cls-18" d="M357.06,322.42s.66,36.22-24.85,47.42"/><path class="cls-18" d="M366.64,331.1s-5.69,14.4-15.25,18.57"/><path class="cls-18" d="M419.21,298.63s-7.62,23.23,8.25,42.46"/><path class="cls-18" d="M428.94,311.28S410.33,334.06,451,379.91"/><path class="cls-18" d="M206.37,394.54s10.72-9.92,11.15-1.07a28.84,28.84,0,0,1-1.47,10.74l-.12.41"/><path class="cls-18" d="M219.51,407s8.36-13.52,15.72-10.91c0,0,6.21,2,7.93,19.14"/><path class="cls-14" d="M248.44,415.38s4.61-11.76,12.51-11.91c0,0,4.32-.15,8.06,7"/><path class="cls-21" d="M248.09,415.24a34.43,34.43,0,0,0,6.42-.39"/><path class="cls-18" d="M307.73,380.42s12.15,13.71,17.65,26.74c0,0,2.67,11.94-4.55,38.07,0,0,36.43,21,58.39-4.4,0,0,5.56-6.42-.58-21.59,0,0-11.92-25.14-8.49-39.79"/><path class="cls-18" d="M396.47,388.6s-4.88,2.35,1.18,27.29c0,0-5.21,6.85-3.95,24.53,0,0,6.51,6.91,37.94,1.66,0,0,13.94.05,15.3-13a46.55,46.55,0,0,0-1.81-12.4s-1.95-23.34,10.68-31.21"/><path class="cls-18" d="M323.51,434.17s3.06-5.59,6.76-1.38c0,0,3.8,5,4,17.52"/><path class="cls-18" d="M336.84,451.39s1.44-17.5,9.9-18.3c0,0,8.85-.77,15.49,17.49l.41,1.17S346.81,454,336.84,451.39Z"/><path class="cls-18" d="M362.64,451.18l4.73-1.77S380.22,444,381,434.72c0,0-11.77-6.51-13.92,6.91,0,0-.72,5.09.2,7.4"/><path class="cls-18" d="M394.36,426.76s11.58-3.45,11.33,16.5v.44"/><path class="cls-18" d="M407.89,443.79s3.78-16.44,13.86-11.68c0,0,5.2,4.25,5.6,10.45"/><path class="cls-18" d="M429.88,442.05s-1.19-14.74,16.61-10.17"/><path class="cls-18" d="M475.46,425.9s9.26-1,10.93,19.87"/><path class="cls-18" d="M489.23,446.6s4.3-18.86,14.71-16.32c0,0,8,2.19,9.79,16.66"/><path class="cls-18" d="M516.83,445.64s-4.88-16.61,14.24-15"/><path class="cls-19" d="M250.43,277.78a.61.61,0,0,1,0,.12c.11.51-.82.75-.67.53l-.11-.07,0,0-.08-.07-.14-.13-.26-.25-.48-.51c-.31-.34-.62-.69-.92-1.05-.59-.71-1.15-1.45-1.67-2.22a26.1,26.1,0,0,1-2.7-4.93,14.91,14.91,0,0,1-.83-2.78,9.3,9.3,0,0,1-.18-1.51,8.18,8.18,0,0,1,.09-1.52c.27-1.81.44-3.63.8-5.44l.5-2.71c.16-.91.41-1.8.62-2.69.39-1.8,1-3.56,1.48-5.33A62.28,62.28,0,0,1,250.28,237a41.43,41.43,0,0,1,15.32-15.88A38.55,38.55,0,0,1,275.92,217,37.37,37.37,0,0,1,287,216h0a.74.74,0,0,1,.39.15l0,0L295.8,223c2.86,2.19,5.83,4.24,8.74,6.37,1.49,1,3,1.93,4.55,2.91s3,2,4.6,2.83l4.75,2.56c.79.42,1.56.89,2.39,1.26l2.45,1.11,2.46,1.11a25.5,25.5,0,0,0,2.48,1l5.06,1.86c1.7.54,3.44,1,5.16,1.48a21.62,21.62,0,0,0,2.62.61l2.63.52a24,24,0,0,0,2.66.39l2.66.31c.89.08,1.78.08,2.67.12a24,24,0,0,0,2.68,0,30.84,30.84,0,0,0,10.36-1.76h0a.71.71,0,0,1,.93.42.69.69,0,0,1,.05.24A39.11,39.11,0,0,1,364,259.12a26.7,26.7,0,0,1-6.81,11,30.35,30.35,0,0,1-11.13,6.56,39.21,39.21,0,0,1-12.74,2.1l.75-.62a72.9,72.9,0,0,1-2.39,11,34.78,34.78,0,0,1-4.88,10.21,20.31,20.31,0,0,1-4,4.16,15.8,15.8,0,0,1-10.9,3.29,17.35,17.35,0,0,1-5.66-1.32l1-.39h0a35.93,35.93,0,0,1-1.89,4.2,35,35,0,0,1-2.44,3.91,34.55,34.55,0,0,1-2.92,3.58,26.34,26.34,0,0,1-3.47,3.16l.16-.14a14.28,14.28,0,0,1-6,3.83,19.88,19.88,0,0,1-6.91.94,28.47,28.47,0,0,1-6.82-1c-1.13-.3-2.19-.7-3.26-1.05a31.81,31.81,0,0,1-3.17-1.4,18.71,18.71,0,0,1-8.83-23.87.35.35,0,0,1,.67.17v0a50.55,50.55,0,0,0-.18,6.49,21,21,0,0,0,1.1,6.22,16.44,16.44,0,0,0,8.19,9.14,27.48,27.48,0,0,0,2.94,1.28c1,.34,2.06.72,3.09,1a29.59,29.59,0,0,0,6.33,1,18.27,18.27,0,0,0,6.23-.78,12.29,12.29,0,0,0,5.17-3.24l.15-.14h0a26.88,26.88,0,0,0,3.24-2.85,32.4,32.4,0,0,0,2.86-3.33A33.26,33.26,0,0,0,304,308.5a36.12,36.12,0,0,0,1.94-3.95h0a.75.75,0,0,1,1-.4h0a15.58,15.58,0,0,0,10.37.61,16.09,16.09,0,0,0,8.36-6.28,33.45,33.45,0,0,0,4.66-9.79A70.85,70.85,0,0,0,332.65,278a.72.72,0,0,1,.72-.63h0a38.06,38.06,0,0,0,12.22-2,28.66,28.66,0,0,0,10.59-6.24,25.21,25.21,0,0,0,6.44-10.39,38,38,0,0,0,1.66-12.29l1,.65a32.42,32.42,0,0,1-10.94,1.89,25.23,25.23,0,0,1-2.75,0c-.91,0-1.84,0-2.75-.13l-2.73-.32a24.56,24.56,0,0,1-2.71-.39l-2.69-.54a24,24,0,0,1-2.67-.61c-1.76-.51-3.53-1-5.27-1.52l-5.14-1.88c-.86-.29-1.69-.69-2.52-1.06l-2.49-1.13-2.49-1.13c-.83-.37-1.61-.85-2.41-1.26l-4.81-2.6c-1.6-.87-3.09-1.91-4.64-2.86s-3.1-1.92-4.6-2.94c-2.94-2.14-5.93-4.21-8.81-6.41l-8.45-6.89.4.18h0a35.59,35.59,0,0,0-10.53,1.23,39.48,39.48,0,0,0-5.05,1.71,38.3,38.3,0,0,0-4.74,2.4A39.49,39.49,0,0,0,252.06,238a59.75,59.75,0,0,0-4.24,9.82c-.51,1.72-1.07,3.42-1.45,5.17-.2.88-.45,1.74-.6,2.63l-.5,2.65c-.35,1.76-.52,3.56-.78,5.35a9.07,9.07,0,0,0,.78,4.82,39.81,39.81,0,0,0,2.31,4.74c.44.78.89,1.55,1.36,2.32.23.38.46.76.71,1.14l.36.56.18.27.09.13,0,0h0l-.07,0c.17-.2-.75,0-.65.53l0,.07a.47.47,0,0,1,.2-.62A.47.47,0,0,1,250.43,277.78Z"/><path class="cls-7" d="M147.89,291.72a32.44,32.44,0,0,1,4.75,2.64,37.73,37.73,0,0,1,4.28,3.42,19.48,19.48,0,0,1,3.62,4.16,14.2,14.2,0,0,1,2,5.16l-.14,0c-1.07-1.5-2-3-3-4.37s-2-2.87-3.24-4.16a37.64,37.64,0,0,0-8.24-6.76Z"/><path class="cls-7" d="M123.07,298.86a18.69,18.69,0,0,1,3.4,3.25,27,27,0,0,1,2.66,3.92,17.74,17.74,0,0,1,1.88,4.36,14.21,14.21,0,0,1,.41,4.73l-.15,0a23.12,23.12,0,0,1-.88-2.18c-.31-.71-.51-1.44-.81-2.14s-.49-1.42-.75-2.14a20.93,20.93,0,0,0-.78-2.13,27.32,27.32,0,0,0-2.18-4A20.17,20.17,0,0,0,123,299Z"/><path class="cls-7" d="M93.4,292.36a9.28,9.28,0,0,1,2.95,2.45,15.52,15.52,0,0,1,2,3.31,12.33,12.33,0,0,1,1.19,3.7,17.78,17.78,0,0,1,.06,1.93,12.52,12.52,0,0,1-.31,1.93h-.15a12.4,12.4,0,0,1-.59-1.82c-.2-.6-.33-1.19-.49-1.78s-.25-1.19-.4-1.77l-.18-.89-.25-.88a14.91,14.91,0,0,0-1.51-3.3,9.64,9.64,0,0,0-2.41-2.76Z"/><path class="cls-7" d="M70.68,291.72a5.2,5.2,0,0,1,2,2.06,10.34,10.34,0,0,1,1,2.73c.14.48.19,1,.3,1.44a5.87,5.87,0,0,1,0,1.45,6.85,6.85,0,0,1-.9,2.77l-.15,0a7.67,7.67,0,0,1-.3-1.42c-.07-.46-.12-.91-.15-1.36-.1-.89.07-1.78,0-2.67a9.16,9.16,0,0,0-.51-2.6,5.22,5.22,0,0,0-1.41-2.25Z"/><path class="cls-7" d="M50.87,299.79a3,3,0,0,1,2.08.66A8.75,8.75,0,0,1,54.5,302a5.72,5.72,0,0,1,1.15,1.82,4.49,4.49,0,0,1,.17,2.2l-.14.05a6.46,6.46,0,0,1-1.39-1.62,14,14,0,0,1-.8-1.81A7.56,7.56,0,0,0,52.44,301a2.8,2.8,0,0,0-1.55-1.07Z"/><path class="cls-7" d="M34.45,310a6.14,6.14,0,0,1,2.48.65,2.1,2.1,0,0,1,1.12.84A1.48,1.48,0,0,1,38,313l-.15,0c-.48-.3-.75-.43-1-.62s-.38-.53-.64-.8a7,7,0,0,0-.85-.76c-.3-.26-.64-.48-1-.72Z"/><path class="cls-11" d="M286.07,224.9a227.25,227.25,0,0,0,19.1,13.37c17.54,11,43.09,23.65,58.51,15.86,0,0-1.13,12.13-10.78,17.58a22.67,22.67,0,0,0-5.39-6c-3.13-2.21-4-3.29-7.18-4.91s-33.77-11.14-34.1-11.54-7.37-7.09-7.37-7.09l-3.26-3.77Z"/><path class="cls-10" d="M257.84,241.39s19.15-23.8,48.39-2.46c0,0-1.92-3.53-2.59-4.52a13.1,13.1,0,0,0-2.87-3.21c-1.11-.77,2.54,1.22-2.76-2.1s-5.53-3.48-7-4.23-6.19-2.62-6.19-2.62-1.32-1.07-4-.48-3.76.37-7.3,1.7-1.1-2.32-6.63,2.76-5.41,4.64-6.3,6.19a37.07,37.07,0,0,1-2.81,3.9l-2.16,4.06Z"/></g></svg>