<svg xmlns="http://www.w3.org/2000/svg" xmlns:xlink="http://www.w3.org/1999/xlink" viewBox="0 0 1600 900"><defs><style>.cls-1,.cls-40{fill:none;}.cls-2{isolation:isolate;}.cls-3{clip-path:url(#clip-path);}.cls-4{fill:#d8e3da;}.cls-5{fill:url(#Áåçûìÿííûé_ãðàäèåíò_29);}.cls-6{fill:url(#Áåçûìÿííûé_ãðàäèåíò_88);}.cls-7{fill:#312c5f;}.cls-8{fill:url(#Áåçûìÿííûé_ãðàäèåíò_146);}.cls-9{fill:url(#Áåçûìÿííûé_ãðàäèåíò_146-2);}.cls-10{fill:url(#Áåçûìÿííûé_ãðàäèåíò_18);}.cls-11,.cls-13{fill:#fff;}.cls-12{fill:#a41d2d;}.cls-13{mix-blend-mode:soft-light;}.cls-14,.cls-15,.cls-18,.cls-21{mix-blend-mode:multiply;}.cls-14{fill:url(#Áåçûìÿííûé_ãðàäèåíò_106);}.cls-15{fill:url(#Áåçûìÿííûé_ãðàäèåíò_106-2);}.cls-16{fill:#fff1d1;}.cls-17{fill:url(#Áåçûìÿííûé_ãðàäèåíò_18-2);}.cls-18{fill:#8c1f5f;opacity:0.15;}.cls-19{fill:#f06a23;}.cls-20{fill:#c95828;}.cls-21{opacity:0.1;}.cls-22{fill:#80807f;}.cls-23,.cls-27,.cls-39{fill:#fac59b;}.cls-23,.cls-24,.cls-27,.cls-40{stroke:#933120;}.cls-23,.cls-24,.cls-25,.cls-26,.cls-27,.cls-30,.cls-40{stroke-miterlimit:10;}.cls-23,.cls-24,.cls-40{stroke-width:0.38px;}.cls-24{fill:#e7aa80;}.cls-25{fill:#7296cd;stroke:#205599;}.cls-25,.cls-27,.cls-30{stroke-width:0.5px;}.cls-26{fill:#ed4342;stroke:#a81f24;stroke-width:0.25px;}.cls-28{fill:#dda07a;}.cls-29{fill:#d69d78;}.cls-30,.cls-37{fill:#592515;}.cls-30{stroke:#3a1810;}.cls-31{fill:#723221;}.cls-32{fill:#e0a57f;}.cls-33{fill:#3a3023;}.cls-34{fill:#fff3e3;}.cls-35{fill:#933120;}.cls-36{fill:#322516;}.cls-38{fill:#cddbed;}</style><clipPath id="clip-path"><rect class="cls-1" width="1600" height="900"/></clipPath><linearGradient id="Áåçûìÿííûé_ãðàäèåíò_29" x1="2023.72" y1="972.36" x2="2023.72" y2="306.51" gradientTransform="matrix(-1, 0, 0, 1, 3535.75, 0)" gradientUnits="userSpaceOnUse"><stop offset="0" stop-color="#312c5f"/><stop offset="1" stop-color="#36c2df"/></linearGradient><linearGradient id="Áåçûìÿííûé_ãðàäèåíò_88" x1="2128.83" y1="258.77" x2="2155.03" y2="258.77" gradientTransform="matrix(-1, 0, 0, 1, 3535.75, 0)" gradientUnits="userSpaceOnUse"><stop offset="0" stop-color="#93959b"/><stop offset="0.57" stop-color="#71576f"/><stop offset="1" stop-color="#c29a82"/></linearGradient><linearGradient id="Áåçûìÿííûé_ãðàäèåíò_146" x1="2135.02" y1="276.5" x2="2135.02" y2="259.92" gradientTransform="matrix(-1, 0, 0, 1, 3535.75, 0)" gradientUnits="userSpaceOnUse"><stop offset="0" stop-color="#fcd7ad"/><stop offset="0.57" stop-color="#f29165"/><stop offset="1" stop-color="#e8c8c0"/></linearGradient><linearGradient id="Áåçûìÿííûé_ãðàäèåíò_146-2" x1="2159.45" y1="260.82" x2="2159.45" y2="252.98" xlink:href="#Áåçûìÿííûé_ãðàäèåíò_146"/><linearGradient id="Áåçûìÿííûé_ãðàäèåíò_18" x1="1246.18" y1="270.71" x2="1482.27" y2="270.71" gradientUnits="userSpaceOnUse"><stop offset="0" stop-color="#f06b68"/><stop offset="1" stop-color="#c62628"/></linearGradient><linearGradient id="Áåçûìÿííûé_ãðàäèåíò_106" x1="1993.39" y1="556.53" x2="2043.6" y2="556.53" gradientTransform="matrix(-1, 0, 0, 1, 3535.75, 0)" gradientUnits="userSpaceOnUse"><stop offset="0" stop-color="#f2b691"/><stop offset="1" stop-color="#c2a39f"/></linearGradient><linearGradient id="Áåçûìÿííûé_ãðàäèåíò_106-2" x1="2106.96" y1="406.16" x2="2254.53" y2="406.16" xlink:href="#Áåçûìÿííûé_ãðàäèåíò_106"/><linearGradient id="Áåçûìÿííûé_ãðàäèåíò_18-2" x1="1198.29" y1="379.32" x2="1339.42" y2="379.32" xlink:href="#Áåçûìÿííûé_ãðàäèåíò_18"/></defs><g class="cls-2"><g id="Layer_1" data-name="Layer 1"><g id="b"><g class="cls-3"><g id="b-2" data-name="b"><polygon class="cls-4" points="1270.85 389.9 1267.15 175.97 1471.79 116.41 1471.79 426.15 1270.85 389.9"/><polygon class="cls-5" points="1471.79 306.5 1471.79 315.83 1476.28 320.2 1482.27 326.01 1492.63 336.07 1542.37 384.32 1506.97 972.36 1532.22 972.36 1552.28 378.67 1492.94 325.46 1482.27 315.92 1476.19 310.45 1471.79 306.5"/><polygon class="cls-6" points="1380.72 252.98 1393.62 259.33 1393.65 259.33 1394.81 259.92 1406.76 265.82 1406.92 257.04 1397.96 251.73 1380.72 252.98"/><polygon class="cls-7" points="1471.79 315.83 1471.79 333.6 1476.43 338.46 1482.27 344.51 1492.14 354.79 1522.53 386.44 1481.81 958.42 1506.97 972.36 1542.37 384.32 1492.63 336.07 1482.27 326.01 1476.28 320.2 1471.79 315.83"/><polygon class="cls-8" points="1394.81 259.92 1394.69 271.02 1406.58 276.5 1406.76 265.82 1394.81 259.92"/><polygon class="cls-9" points="1358.98 254.51 1372.65 260.82 1393.62 259.33 1380.72 252.98 1380.69 252.98 1358.98 254.51"/><path class="cls-10" d="M1331.53,256.42l27.42-1.91h0l21.71-1.53h0l12.9,6.35-21,1.49-44.11,3.12Zm75.48-5.31-.09,5.93-9-5.31Zm-75.48,5.31,27.42-1.91h0l21.71-1.53h0l17.24-1.25,9-.62-.09,5.93-.16,8.78-.18,10.68-1.93,119.34-108.33-19.71-1-29.42v0l-3-87.49ZM1302,370.51l91.59,12.18,1.1-111.67.12-11.1-1.16-.59h0l-21,1.49-44.11,3.12-30,2.12,2.26,67.13Zm29.53-114.09,27.42-1.91h0l21.71-1.53h0l17.24-1.25,9-.62-.09,5.93-.16,8.78-.18,10.68-1.93,119.34-108.33-19.71-1-29.42v0l-3-87.49ZM1302,370.51l91.59,12.18,1.1-111.67.12-11.1-1.16-.59h0l-21,1.49-44.11,3.12-30,2.12,2.26,67.13Zm29.53-114.09,27.42-1.91h0l21.71-1.53h0l17.24-1.25,9-.62-.09,5.93-.16,8.78-.18,10.68-1.93,119.34-108.33-19.71-1-29.42v0l-3-87.49ZM1302,370.51l91.59,12.18,1.1-111.67.12-11.1-1.16-.59h0l-21,1.49-44.11,3.12-30,2.12,2.26,67.13Zm29.53-114.09,27.42-1.91h0l21.71-1.53h0l17.24-1.25,9-.62-.09,5.93-.16,8.78-.18,10.68-1.93,119.34-108.33-19.71-1-29.42v0l-3-87.49ZM1302,370.51l91.59,12.18,1.1-111.67.12-11.1-1.16-.59h0l-21,1.49-44.11,3.12-30,2.12,2.26,67.13Zm29.53-114.09,27.42-1.91h0l21.71-1.53h0l17.24-1.25,9-.62-.09,5.93-.16,8.78-.18,10.68-1.93,119.34-108.33-19.71-1-29.42v0l-3-87.49ZM1302,370.51l91.59,12.18,1.1-111.67.12-11.1-1.16-.59h0l-21,1.49-44.11,3.12-30,2.12,2.26,67.13Zm29.53-114.09,27.42-1.91h0l21.71-1.53h0l17.24-1.25,9-.62-.09,5.93-.16,8.78-.18,10.68-1.93,119.34-108.33-19.71-1-29.42v0l-3-87.49ZM1302,370.51l91.59,12.18,1.1-111.67.12-11.1-1.16-.59h0l-21,1.49-44.11,3.12-30,2.12,2.26,67.13ZM1482.27,98V443.43l-232-41.9-4-234.79Zm-10.48,18.42-38.55,11.21-56.65,16.51L1292,168.72l-4.16,1.21-20.73,6,3.15,182.16.55,31.77,149.67,27,51.27,9.23Zm-65,149.42-.18,10.68-1.93,119.34-108.33-19.71-1-29.42v0l-3-87.49,39.16-2.77,27.42-1.91h0l21.71-1.53h0l17.24-1.25,9-.62-.09,5.93Zm-13.11-6.49h0l-21,1.49-44.11,3.12-30,2.12,2.26,67.13,1.25,37.32,91.59,12.18,1.1-111.67.12-11.1Zm-62.12-2.91,27.42-1.91h0l21.71-1.53h0l17.24-1.25,9-.62-.09,5.93-.16,8.78-.18,10.68-1.93,119.34-108.33-19.71-1-29.42v0l-3-87.49ZM1302,370.51l91.59,12.18,1.1-111.67.12-11.1-1.16-.59h0l-21,1.49-44.11,3.12-30,2.12,2.26,67.13Zm29.53-114.09,27.42-1.91h0l21.71-1.53h0l17.24-1.25,9-.62-.09,5.93-.16,8.78-.18,10.68-1.93,119.34-108.33-19.71-1-29.42v0l-3-87.49ZM1302,370.51l91.59,12.18,1.1-111.67.12-11.1-1.16-.59h0l-21,1.49-44.11,3.12-30,2.12,2.26,67.13Zm29.53-114.09,27.42-1.91h0l21.71-1.53h0l17.24-1.25,9-.62-.09,5.93-.16,8.78-.18,10.68-1.93,119.34-108.33-19.71-1-29.42v0l-3-87.49ZM1302,370.51l91.59,12.18,1.1-111.67.12-11.1-1.16-.59h0l-21,1.49-44.11,3.12-30,2.12,2.26,67.13Zm29.53-114.09,27.42-1.91h0l21.71-1.53h0l17.24-1.25,9-.62-.09,5.93-.16,8.78-.18,10.68-1.93,119.34-108.33-19.71-1-29.42v0l-3-87.49ZM1302,370.51l91.59,12.18,1.1-111.67.12-11.1-1.16-.59h0l-21,1.49-44.11,3.12-30,2.12,2.26,67.13Zm29.53-114.09,27.42-1.91h0l21.71-1.53h0l17.24-1.25,9-.62-.09,5.93-.16,8.78-.18,10.68-1.93,119.34-108.33-19.71-1-29.42v0l-3-87.49ZM1302,370.51l91.59,12.18,1.1-111.67.12-11.1-1.16-.59h0l-21,1.49-44.11,3.12-30,2.12,2.26,67.13Zm29.53-114.09,27.42-1.91h0l21.71-1.53h0l17.24-1.25,9-.62-.09,5.93-.16,8.78-.18,10.68-1.93,119.34-108.33-19.71-1-29.42v0l-3-87.49ZM1302,370.51l91.59,12.18,1.1-111.67.12-11.1-1.16-.59h0l-21,1.49-44.11,3.12-30,2.12,2.26,67.13Z"/><path class="cls-11" d="M1331,254.61l28.16-2h0l22.29-1.56h0l17.71-1.29,9.29-.64-.1,6.09-.15,9-.19,11-2,122.54-111.25-20.23-1-30.21v0l-3.05-89.84Zm-25,111.26,83.11,11.05,1-101.34.11-10.08-1-.53h0l-19,1.35-40,2.84-27.27,1.92,2.05,60.91Z"/><path class="cls-12" d="M1256.67,176l3.7,213.93L1399.49,415l72.3,13v-1.9l-51.27-9.23-149.67-27c-.92-53.13-3.41-197.56-3.7-213.93l204.64-59.57v-3.05Z"/><polygon class="cls-12" points="1482.27 98 1498.26 98 1490.1 443.42 1482.27 443.42 1482.27 98"/><polygon class="cls-13" points="1548.2 498.92 1537.57 463.95 1526.58 646.64 1541.46 698.49 1548.2 498.92"/><polygon class="cls-13" points="1540.86 716.29 1524.96 673.58 1521.55 730.16 1538.82 776.97 1540.86 716.29"/><polygon class="cls-14" points="1522.55 386.45 1518.74 776.97 1542.36 384.33 1492.64 336.08 1492.14 354.8 1522.55 386.45"/><polygon class="cls-13" points="1492.71 333.55 1545.64 383.27 1506.98 972.36 1542.37 384.32 1492.64 336.08 1492.71 333.55"/><polygon class="cls-15" points="1306.17 389.64 1420.52 407.84 1428.79 422.68 1281.21 399.18 1306.17 389.64"/><polygon class="cls-12" points="1353.43 375.18 1353.43 386.98 1333.95 384.29 1333.95 375.18 1353.43 375.18"/><path class="cls-16" d="M1267.16,470.86c-4.54,0-44.41-.21-44.41-7.49s39.87-7.48,44.41-7.48,44.42.21,44.42,7.48S1271.71,470.86,1267.16,470.86Zm-41.11-7.49c2.65,1.91,17.85,4.43,41.11,4.43s38.47-2.52,41.12-4.43c-2.64-1.9-17.84-4.42-41.12-4.42S1228.7,461.47,1226.05,463.37Z"/><path class="cls-16" d="M1336,390.85c-1,3.12-2.19,6.19-3.48,9.22s-3,5.95-3.86,9.13l-1.17,4.78a43.45,43.45,0,0,1-1.63,4.65c-1.31,3-2.58,6.09-3.76,9.16a185.85,185.85,0,0,0-6,18.76l-5.28,18.95c-3.42,12.64-6.95,25.35-9.72,38l-.53,2.35-.35,2.18a35.5,35.5,0,0,0,0,4.73c.16,3.22.48,6.48.85,9.72.77,6.5,1.89,13,3.29,19.37a.73.73,0,0,1-.55.88.74.74,0,0,1-.89-.56h0l-4-19.33c-.67-3.23-1.29-6.48-1.74-9.79a35.05,35.05,0,0,1-.43-5.09l.26-2.71.44-2.47c2.73-13,6.35-25.58,9.75-38.29l5.27-19c1.8-6.32,3.58-12.64,4.76-19.13q.91-4.86,1.66-9.77a43,43,0,0,1,1.09-4.81l1.56-4.68c1-3.13,1.15-6.5,1.63-9.78a98.41,98.41,0,0,1,2-9.68,5.64,5.64,0,1,1,10.88,2.94A2.17,2.17,0,0,1,1336,390.85Z"/><path class="cls-16" d="M1212.47,384.18a72.51,72.51,0,0,1,2.17,9.83c.21,1.67.27,3.37.45,5.05a36.22,36.22,0,0,0,1,4.93c1.68,6.5,4.58,12.76,4.67,19.59a96.12,96.12,0,0,0,1,10.07c.51,3.32,1.22,6.6,1.81,9.9l3.79,19.77c1.27,6.59,2.57,13.17,3.58,19.82l1.47,10,.62,5a25.32,25.32,0,0,1,.12,5.3c-.87,6.95-2.94,13.33-5.18,19.7s-4.28,12.73-6.54,19.06a.61.61,0,0,1-.78.38.63.63,0,0,1-.38-.79h0c2.29-6.28,4.39-12.65,6.14-19.11.81-3.25,1.58-6.51,2.29-9.75a68,68,0,0,0,1.62-9.69c.16-3.08-.61-6.33-1.1-9.64l-1.86-9.86L1223.66,464c-1.24-6.59-2.44-13.18-3.8-19.75-.69-3.28-1.28-6.58-2.08-9.84a88.66,88.66,0,0,0-3-9.66c-2.53-6.33-2.26-13.22-3.24-19.86a34.53,34.53,0,0,0-1-4.94c-.48-1.61-1.09-3.19-1.55-4.81a73.78,73.78,0,0,1-1.85-9.88,2.7,2.7,0,0,1,5.26-1.09Z"/><path class="cls-16" d="M1303.26,387.9q-1.21,4.88-2.56,9.74c-1,3.23-2.13,6.42-2.4,9.78-.15,1.68-.2,3.38-.46,5s-.73,3.28-1.15,4.9c-.87,3.25-1.9,6.47-2.83,9.71a158.54,158.54,0,0,0-4.23,19.68l-3.3,19.84c-2.14,13.22-4.19,26.5-6.08,39.65a126.13,126.13,0,0,0-1,19.81,118,118,0,0,0,1.74,20v0a.73.73,0,1,1-1.45.24h0c-1-6.69-1.71-13.35-2.61-20.06-.73-6.68-1.47-13.48-.85-20.38,1.07-13.54,3.51-26.74,5.76-40l3.58-19.83a175.38,175.38,0,0,0,2.89-19.94c.27-3.37.46-6.75.81-10.1.18-1.67.37-3.34.68-5s.91-3.25,1.38-4.87c.95-3.24,1-6.64,1.32-10s.74-6.7,1.2-10a4.88,4.88,0,0,1,9.67,1.33C1303.33,387.55,1303.3,387.73,1303.26,387.9Z"/><path class="cls-16" d="M1245.51,385.77c.34,3.25.52,6.51.63,9.77a86.32,86.32,0,0,0,.31,9.79,92,92,0,0,1,1.16,19.55,156.06,156.06,0,0,0,.41,19.59l1.34,19.53c.93,13,1.49,26.05,2.09,39.13a82.89,82.89,0,0,1-1,19.71c-1.06,6.5-2.22,12.92-3.62,19.35a.69.69,0,0,1-.83.53.68.68,0,0,1-.53-.83h0v0c3.07-12.66,3.28-25.78,3-38.62-.51-13-1.61-26-2.3-39l-1.2-19.53a152.25,152.25,0,0,0-2.2-19.47,92.53,92.53,0,0,1-1.53-19.51,86.35,86.35,0,0,0-1-9.73c-.35-3.24-.63-6.49-.76-9.75a3,3,0,0,1,6.07-.44Z"/><path class="cls-16" d="M1219,422.68a2,2,0,0,0-.61-1.56c-.16-.11,0,0,0,0a6.68,6.68,0,0,0,1.08.49,24.71,24.71,0,0,0,2.92.87c2.07.52,4.26.91,6.44,1.27,4.39.69,8.86,1.26,13.34,1.7s9,.79,13.5.84,9-.15,13.54-.17a264.19,264.19,0,0,0,27-1.2c4.46-.59,8.93-.89,13.36-1.25a50.46,50.46,0,0,0,6.49-1,24.26,24.26,0,0,0,3-.83,7,7,0,0,0,1.11-.51c.06-.05.21-.15.07-.07a1.76,1.76,0,0,0-.53,1.4,2,2,0,0,0,.5,1.43c.13.1,0,0-.1,0-.29-.11-.68-.24-1.13-.36a21.2,21.2,0,0,0-3-.56c-2.11-.28-4.33-.29-6.52-.45-4.41-.3-8.86-.53-13.3-1.12-8.91-1.11-17.93-.85-26.92-1.37a157.91,157.91,0,0,0-27,.33c-4.48.34-8.92,1.07-13.29,1.71-2.18.33-4.36.63-6.43,1-1,.2-2.07.39-3,.64-.45.12-.82.25-1.09.35,0,0-.2.1,0,0A2.29,2.29,0,0,0,1219,422.68Zm-6.31,0a4.25,4.25,0,0,1,1.36-3.05,7.2,7.2,0,0,1,1.35-1,15.06,15.06,0,0,1,2-.95,30.22,30.22,0,0,1,3.62-1.11,62.66,62.66,0,0,1,7-1.19c4.62-.54,9.22-.58,13.79-.84,9.16-.3,18.26-.66,27.4-1.33,9.14-.5,18.27.22,27.46.29a75,75,0,0,1,13.79,1.43c2.3.44,4.56,1.11,6.89,1.78,1.16.36,2.34.7,3.58,1.19a15.26,15.26,0,0,1,2,.94,7.34,7.34,0,0,1,1.3,1,4,4,0,0,1,1.31,2.88,3.88,3.88,0,0,1-1.35,2.83,5.9,5.9,0,0,1-1.31.91,15.1,15.1,0,0,1-2,.8,32.23,32.23,0,0,1-3.61.9c-2.35.51-4.64.83-6.93,1.23a79.36,79.36,0,0,1-13.72,1.3c-9.16.21-18.26.51-27.38.47-4.56,0-9.11-.4-13.67-.57l-13.68-.43c-4.57-.16-9.15-.36-13.75-.85-2.3-.24-4.61-.52-7-1a29,29,0,0,1-3.65-.87,14.26,14.26,0,0,1-2.06-.81,6.85,6.85,0,0,1-1.36-.94A4.18,4.18,0,0,1,1212.72,422.68Z"/><path class="cls-16" d="M1233,506.66c0-.23.16.24.66.51a9.49,9.49,0,0,0,1.72.83,30.78,30.78,0,0,0,4,1.16,79.7,79.7,0,0,0,8.48,1.18c5.72.41,11.48.47,17.22.45a142.3,142.3,0,0,0,17.17-1c2.84-.3,5.67-.63,8.42-1.19a28.08,28.08,0,0,0,3.94-1.08,7.5,7.5,0,0,0,1.63-.77c.49-.23.55-.69.46-.12.08.57,0,.14-.49-.06a9.53,9.53,0,0,0-1.65-.69,26.51,26.51,0,0,0-4-1c-2.75-.47-5.57-.78-8.4-1.1-5.65-.66-11.39-1-17.13-1.21a162.15,162.15,0,0,0-17.22.37,70.06,70.06,0,0,0-8.46,1.22,29.38,29.38,0,0,0-4,1.13,9.36,9.36,0,0,0-1.71.8C1233.14,506.43,1232.93,506.89,1233,506.66Zm-2.71,0a4.31,4.31,0,0,1,.28-1.11,2.79,2.79,0,0,1,.52-.73,4.43,4.43,0,0,1,1.13-.94,11.63,11.63,0,0,1,2.22-1,35.85,35.85,0,0,1,4.37-1.25c2.9-.66,5.82-1,8.73-1.44a168.75,168.75,0,0,1,17.53-1.39,134.94,134.94,0,0,1,17.63.54,60,60,0,0,1,8.8,1.57,37,37,0,0,1,4.41,1.43,12.2,12.2,0,0,1,2.28,1.15,5.17,5.17,0,0,1,1.23,1.06,3.43,3.43,0,0,1,.57.84,5,5,0,0,1,.33,1.31A5.6,5.6,0,0,1,1300,508a3.39,3.39,0,0,1-.59.83,5.24,5.24,0,0,1-1.24,1,13,13,0,0,1-2.3,1.07,35,35,0,0,1-4.42,1.3,78.88,78.88,0,0,1-8.78,1.48c-5.87.57-11.73.74-17.59.78a130.39,130.39,0,0,1-17.53-1.3,87.08,87.08,0,0,1-8.71-1.49,32.36,32.36,0,0,1-4.37-1.21,11.83,11.83,0,0,1-2.22-1,4.61,4.61,0,0,1-1.14-.92,2.92,2.92,0,0,1-.53-.73A5.31,5.31,0,0,1,1230.26,506.66Z"/><polygon class="cls-17" points="1339.42 372.51 1336.75 389.64 1201.73 384.41 1198.29 369.01 1339.42 372.51"/><polygon class="cls-13" points="1239.44 372.06 1239.44 383.27 1205.05 381.61 1201.99 372.06 1239.44 372.06"/><polygon class="cls-13" points="1246.19 372.06 1267.16 372.06 1265.04 383.27 1246.31 383.27 1246.19 372.06"/><polygon class="cls-13" points="1292.37 259.19 1295.34 346.68 1300.75 333.19 1298.49 266.06 1328.54 263.94 1331.53 256.42 1292.37 259.19"/><polygon class="cls-18" points="1467.43 122.23 1464.25 418.72 1343.69 399.76 1443.62 408.95 1435.33 134.5 1467.43 122.23"/><polygon class="cls-13" points="1319.17 154.32 1311.95 149.12 1249.12 167.98 1256.67 172.32 1319.17 154.32"/><polygon class="cls-13" points="1322.01 153.67 1315.22 148.36 1338.91 141.64 1344.55 147.49 1322.01 153.67"/><ellipse class="cls-19" cx="1248.98" cy="267.66" rx="62.02" ry="61.88"/><path class="cls-20" d="M1294.73,249c9.08,1.7,14.42,10.3,16,13.3a61.09,61.09,0,0,0-1.1-7.47c-3.1-3.75-7.83-7.81-14.31-9-6-1.12-12.31.39-19,4.46A100.82,100.82,0,0,0,1265,236.9c11.33-6.8,21.71-10.61,30-10.8-1-1.06-2-2.07-3-3.06-8.43.94-18.55,5-29.41,11.55-1.82-1.68-3.63-3.23-5.4-4.65s-3.29-2.55-4.91-3.71c4.42-2.57,7.85-5.55,9.67-9.17a14.06,14.06,0,0,0,1-9.69c-1.17-.27-2.36-.51-3.56-.71a11.24,11.24,0,0,1-.39,8.93c-1.69,3.36-5.18,6.16-9.73,8.6a108.57,108.57,0,0,0-26.1-12.78c-1.44.66-2.86,1.37-4.24,2.14a.8.8,0,0,0,.2.07,100.58,100.58,0,0,1,26.73,12.25c-6.87,3.14-15.43,5.7-23.84,8.22-12.71,3.8-24.88,7.46-31.52,13.06a60.57,60.57,0,0,0-2.33,8.5,1.63,1.63,0,0,0,.7-.9c2.43-8.07,18.52-12.88,34.08-17.54,9.24-2.77,18.65-5.59,26.06-9.25,2,1.41,4.13,2.94,6.21,4.61q2.2,1.77,4.46,3.81a187.11,187.11,0,0,0-25.25,19.75c-15.84,14.6-32.12,34.38-35.48,48,.85,1.16,1.75,2.3,2.68,3.4,1.1-10.92,15.37-30.95,35-49a182.6,182.6,0,0,1,25.48-19.86,96.93,96.93,0,0,1,11.57,13.44,69.54,69.54,0,0,0-8.86,7.57c-4.55,4.56-8,19.27-11.57,34.84-3.29,14.19-7,30.15-11.12,34.63,1.25.14,2.51.25,3.78.31,4.07-6.44,7.22-20,10.51-34.2,3.35-14.44,6.81-29.38,10.71-33.27a66.26,66.26,0,0,1,8.39-7.2c9.14,13.79,16.31,32.36,17,56.92,1.08-1.06,2.11-2.17,3.1-3.3-1.24-23.68-8.38-41.81-17.41-55.43C1284.1,249.41,1289.63,248.08,1294.73,249Z"/><path class="cls-21" d="M1249,205.78a63.58,63.58,0,0,0-9.82.78,61.86,61.86,0,0,1,0,122.2,63.58,63.58,0,0,0,9.82.78,61.88,61.88,0,1,0,0-123.76Z"/><path class="cls-22" d="M562.76,500.15c21.79-21.71,46-40.92,71-58.71q18.84-13.32,38.5-25.41t40.11-22.81l10.26-5.28L733,382.89c3.44-1.71,7-3.29,10.44-4.89l5.25-2.4c1.74-.81,3.5-1.6,5.27-2.35l10.6-4.54c3.53-1.54,7.13-2.88,10.69-4.33,7.11-2.94,14.37-5.5,21.57-8.19,14.52-5.07,29.13-9.9,44-13.89,14.81-4.16,29.84-7.44,44.9-10.53-15,3.25-30,6.69-44.76,11-14.83,4.05-29.41,8.92-43.89,14-7.19,2.72-14.43,5.3-21.52,8.26-3.55,1.46-7.14,2.82-10.66,4.36L754.33,374c-1.77.75-3.52,1.55-5.26,2.36l-5.23,2.42c-3.48,1.61-7,3.2-10.41,4.93l-10.34,5.08-10.23,5.3q-20.4,10.71-40.13,22.63T634.17,442q-18.85,13.25-36.81,27.72C585.42,479.37,573.7,489.35,562.76,500.15Z"/><path class="cls-22" d="M633.48,364.54a379,379,0,0,1,55-30.69,466.72,466.72,0,0,1,58.91-22.49q15.14-4.46,30.54-7.91l7.73-1.59,3.86-.78,3.89-.68c2.59-.45,5.18-.93,7.77-1.34l7.81-1.14c2.6-.41,5.21-.68,7.82-1s5.22-.64,7.84-.86c5.24-.42,10.48-1,15.73-1.14,10.5-.6,21-.44,31.53-.14-10.51-.14-21-.13-31.5.63-5.25.22-10.47.79-15.7,1.23-2.61.23-5.21.6-7.82.9s-5.22.6-7.81,1l-7.78,1.18c-2.59.42-5.17.92-7.76,1.38l-3.87.7-3.85.8-7.71,1.63q-15.35,3.51-30.43,8.05a465.24,465.24,0,0,0-58.92,22.14q-14.34,6.53-28.21,14C651.34,353.46,642.22,358.69,633.48,364.54Z"/><path class="cls-22" d="M1225,175.67a70.72,70.72,0,0,0-11.57,2.9,82.52,82.52,0,0,0-11,4.52,88.36,88.36,0,0,0-10.27,6,80.72,80.72,0,0,0-9.24,7.45,77.75,77.75,0,0,0-14.65,18.61,97.55,97.55,0,0,0-9,22c.49-1.93.93-3.88,1.49-5.8l.9-2.86.45-1.43.53-1.4,1.07-2.8c.37-.93.81-1.83,1.21-2.75.77-1.84,1.74-3.6,2.65-5.38a74.8,74.8,0,0,1,6.57-10.05,72.61,72.61,0,0,1,8.08-8.91,77.37,77.37,0,0,1,19.86-13.4A74.09,74.09,0,0,1,1225,175.67Z"/><path class="cls-22" d="M1215.29,129.09a107.81,107.81,0,0,0-17.83,4.33,126.93,126.93,0,0,0-17,6.89,131.47,131.47,0,0,0-15.84,9.18A121.84,121.84,0,0,0,1150.38,161,111.21,111.21,0,0,0,1138,174.44a122.5,122.5,0,0,0-10.16,15.22,147.27,147.27,0,0,0-13.63,34c.78-3,1.48-6,2.37-8.89l1.4-4.38.71-2.2.82-2.15,1.67-4.29c.57-1.42,1.25-2.8,1.87-4.21,1.21-2.83,2.69-5.52,4.11-8.25a115.24,115.24,0,0,1,10.12-15.41,112.09,112.09,0,0,1,12.4-13.65,123.68,123.68,0,0,1,14.43-11.49,121.78,121.78,0,0,1,16-9.12,126.45,126.45,0,0,1,17.17-6.66c2.94-.91,5.92-1.66,8.91-2.33A79.49,79.49,0,0,1,1215.29,129.09Z"/><path class="cls-23" d="M526.21,510.46c2.42,3.82,3.84,8.7,2.13,12.89s-7.51,6.68-11.06,3.87a2.65,2.65,0,0,1-1.2-2.34,5.36,5.36,0,0,1,.84-1.67,6.44,6.44,0,0,0-.48-6.43,19.27,19.27,0,0,0-4.79-4.74l-5.07-3.93a7.53,7.53,0,0,0-2.46-1.46,8.13,8.13,0,0,0-3.11,0,51.44,51.44,0,0,1-10.38.05c-2-.21-4.69-1.4-4.18-3.38a3.63,3.63,0,0,1,1.12-1.6c5.51-5.45,11.87-11.22,19.62-11.29,6.55-.06,5.3,4.38,7.8,8.36C517.75,503.16,523.28,505.82,526.21,510.46Z"/><path class="cls-23" d="M509.54,512.24c2.42,3.82,3.85,8.7,2.13,12.89s-7.5,6.68-11.06,3.87a2.68,2.68,0,0,1-1.2-2.35,5.31,5.31,0,0,1,.84-1.66,6.44,6.44,0,0,0-.48-6.43,19.1,19.1,0,0,0-4.79-4.74l-5.07-3.93a7.43,7.43,0,0,0-2.46-1.46,8.13,8.13,0,0,0-3.11,0,50.72,50.72,0,0,1-10.38,0c-2-.2-4.69-1.39-4.18-3.37a3.63,3.63,0,0,1,1.12-1.6c5.51-5.45,11.88-11.22,19.62-11.29,6.55-.06,5.3,4.38,7.8,8.36C501.08,504.94,506.62,507.6,509.54,512.24Z"/><path class="cls-23" d="M437.52,561.43a59.61,59.61,0,0,0,12.83-24.25c3.59-14.54,19.44-31.87,22.29-38.29s18.65-5.35,27.63-12.18,39.5,14.37,38.42,18.32-30.52-8.62-30.52-8.62a53.32,53.32,0,0,1-14.73,6.43c-8.22,2.08-11.49,30.21-13.28,34.34S437.52,561.43,437.52,561.43Z"/><path class="cls-23" d="M459.86,528.55c8.73-6.65,10-20.5,19.37-26.14a4.73,4.73,0,0,1,3.28-.86c2.16.45,2.94,3.14,2.91,5.35-.1,7.05-4.08,13.4-7.92,19.31l-7.12,11"/><path class="cls-24" d="M453.94,582.74s-38.07,72.46-54.59,93.83-103.43,105-103.43,105S265,789.9,263.6,773.38,453.94,582.74,453.94,582.74Z"/><path class="cls-25" d="M292.73,899.65l-8.38,2.75a412.56,412.56,0,0,1-51.43,4.47c-34,.66-72.16,9.9-71.36-14.89,1.44-44.56,29.46-113.17,50-139,11.7-14.78,19.19-22.94,23.91-27.34a28.7,28.7,0,0,1,5.46-4.25c1.69-.92,2.17-.47,2.17,0l37.49-2.24,5.19,8.51,2.46,4.05,10.4,17.08,9.28,5.25C307.91,782.56,277.85,860.12,292.73,899.65Z"/><path class="cls-26" d="M291.08,728.41a7.48,7.48,0,0,1-2.85,3.3c-3.52,2.56-11.17,5.58-27.59,4.72s-23.31-4.43-25.91-11.85a30.57,30.57,0,0,1,6-4.43l45.09,7.51Z"/><path class="cls-27" d="M300.84,708.85a68.41,68.41,0,0,1-7.1.34c-7.23,4-12.22,7.78-15.61,11.22-11,11.13.09,10.15.09,10.15-18,.43-31.14-.58-35.11-6.7-3.21-4.94,1-3.39,4-7.85a9,9,0,0,0,.67-1.14,25.47,25.47,0,0,0,2.44-17.3,26.07,26.07,0,0,0-4.94-10.73C290.46,665.55,338.71,704.71,300.84,708.85Z"/><path class="cls-28" d="M300.84,708.85a68.41,68.41,0,0,1-7.1.34c-7.23,4-18.13,14.53-21.53,18-20.23,1.32-26-8.44-26.21-8.5.24-.35,10.47-10.3,4.18-21.09l24.77.69c5.19.16,10.48.33,15.39,2C294.73,701.78,298.84,704.73,300.84,708.85Z"/><path class="cls-23" d="M337.58,650.76c1.2,3,4.48,6.27,7.2,8a2.33,2.33,0,0,1,0,4,51.89,51.89,0,0,1-7.49,3.66c2.64,1.15,5.49,2.49,6.66,5.11s-.88,6.55-3.68,5.87c1.28,5.4-.51,11.13-3.33,15.93-8,13.55-23.46,21.12-38.94,23.89-13.12,2.34-41.68-3.07-46.79-5.43-.52-.25-.8-.44-.83-.61a56.57,56.57,0,0,0-7.73,2.79c-7.06,2.95-21.76,2.34-43-16-54.07-46.72-70.08-96.44-18.92-135.68,24.45-18.76,47.33-20.9,66.07-16.1,20.47,5.27,36,18.83,43,28.1,3.75,4.89,9.06,2.54,12,7.89,6.83,12.37,10.12,33.08,17.64,45.25,2.48,4,6.44,8.2,11.08,7.39s6.15-5.38,10.7-3.91C345.58,632.3,341.17,647.2,337.58,650.76Z"/><path class="cls-29" d="M299.64,589.69,298,589.2c-5.46-1.77-11-3.22-16.51-4.87-3.19-1-6.38-2-9.53-3.07-2-.66-7.82-1.65-9.05-3.23a99.1,99.1,0,0,1,13.28,23.06c-2-.55-3.88-1.27-5.83-1.91-16.3-5.38-34.06-4.5-51-1.54a34.92,34.92,0,0,1,23.87,45.41c-1.08,3.11-2.82,6.24-5.79,7.68a13.41,13.41,0,0,1-7,.85c-9-.74-18.09-4.21-24-11-3.88-4.44-6.21-10-8.49-15.45-2.48-5.93-4.94-11.87-7.43-17.81-1.39-3.34-2.82-7-1.8-10.47.67-2.31,2.34-4.18,3.77-6.13,4.24-5.68,6.84-12.44,11-18.2,7.33-10.15,18.89-16.31,30.36-21.33a131.3,131.3,0,0,1,13-5c20.47,5.27,36,18.83,43,28.1A118.3,118.3,0,0,1,299.64,589.69Z"/><path class="cls-30" d="M309.68,595.93c-4.75-9.22-14.66-14.43-24.14-18.62a343.17,343.17,0,0,0-58.47-19.81c14.51,9.28,29.65,19.19,37.63,34.44A77.53,77.53,0,0,0,205.78,597c5.6-.43,10.87,2.69,15.17,6.29,17.52,14.76,26.72,34,23,52.44-1.73-2.89-19.72-8.25-22.71-9.83,1.47,1.79,13.45,21.11,14.33,23.24-8.81-2.2-19.6-6.43-28.29-3.87-3.83,1.12-8,3.16-9,7-.62,2.24,0,4.62.83,6.82,3,8.3,3.48,11,9,17.91,4.17,5.19,9.3,10.42,16.32,13.27s21.26,3.75,25.52.33c.83.85-24.51,13.78-61.44-3.16l0,0a125.88,125.88,0,0,1-20.72-12.11C107.51,652.38,140.21,595,140.21,595c29.67-92.84,122.43-64.24,122.43-64.24,26.44,8.18,38.18,24.55,43.33,38.86,0,0,0,0,0,0A64.19,64.19,0,0,1,309.68,595.93Z"/><path class="cls-31" d="M307.91,571.37c-8.56-15.15-23.73-26.22-40.37-31.6-18.1-5.84-37.8-5.39-56.38-1.38a71.84,71.84,0,0,0-18.72,6.35c-8,4.3-14.63,10.81-20.7,17.61A228.22,228.22,0,0,0,151.86,588a190.63,190.63,0,0,1,23.1-9.49A82,82,0,0,0,145,614.24a14.66,14.66,0,0,1,15.73-2.69c-9.52,1.16-16.95,9.77-19.08,19.13s.08,19.22,3.62,28.14a99.57,99.57,0,0,0,45.22,50.42,126.3,126.3,0,0,1-20.72-12.11c-60.34-43-27.64-100.38-27.64-100.38,29.68-92.84,122.44-64.24,122.44-64.24C291,540.69,302.76,557.06,307.91,571.37Z"/><path class="cls-32" d="M224.54,698.78c4.19,3.87,9.62,6.59,15.32,6.71,2.38,0,5.32-.88,5.64-3.23.35-2.52-2.62-4.19-5.15-4.46s-7.34.12-8.18-3,2.48-3.39,4.09-5.11c4.62-4.93,3.48-10.33-2.79-13.1-4.26-1.88-17.43-4-20.05,1.17C210.56,683.37,220.89,695.41,224.54,698.78Z"/><path class="cls-33" d="M279.79,641s-6.26-17.87,7.44-29.55a8.19,8.19,0,0,1,9.65-.77c3.15,2,7,6.51,10.64,15.93C316.07,648.46,296.65,652,279.79,641Z"/><path class="cls-34" d="M281.46,641.83s-6.21-17.57,7-28.92a7.82,7.82,0,0,1,9.35-.68c3.06,2,6.8,6.44,10.44,15.71C316.7,649.45,297.9,652.73,281.46,641.83Z"/><path class="cls-35" d="M281.46,641.83a32.22,32.22,0,0,1-1.29-13.2,26.9,26.9,0,0,1,1.57-6.48,23.78,23.78,0,0,1,3.34-5.78l1-1.31,1.19-1.17c.41-.39.79-.79,1.21-1.16a8.39,8.39,0,0,1,1.41-.93,8,8,0,0,1,6.54-.37,9.76,9.76,0,0,1,2.83,1.81,21.21,21.21,0,0,1,2.34,2.4,35,35,0,0,1,3.67,5.59,61.68,61.68,0,0,1,2.8,6.07,34.77,34.77,0,0,1,1.95,6.4,16.6,16.6,0,0,1,.05,6.66,8.93,8.93,0,0,1-3.58,5.52,10.36,10.36,0,0,1-3,1.46,13.68,13.68,0,0,1-3.3.58,22.49,22.49,0,0,1-6.64-.62A38.45,38.45,0,0,1,281.46,641.83Zm0,0a38.18,38.18,0,0,0,12.15,5.35,22.58,22.58,0,0,0,6.6.6,13.78,13.78,0,0,0,3.26-.59,10.16,10.16,0,0,0,3-1.44,8.81,8.81,0,0,0,3.49-5.43,16.26,16.26,0,0,0-.06-6.59,35.48,35.48,0,0,0-2-6.34,63.64,63.64,0,0,0-2.81-6,35.17,35.17,0,0,0-3.63-5.56,20.71,20.71,0,0,0-2.3-2.38,9.52,9.52,0,0,0-2.76-1.78A7.8,7.8,0,0,0,290,612a8.3,8.3,0,0,0-1.37.9c-.42.36-.8.77-1.2,1.15l-1.19,1.16-1,1.29a23.63,23.63,0,0,0-3.33,5.73,26.59,26.59,0,0,0-1.59,6.45A32.3,32.3,0,0,0,281.46,641.83Z"/><ellipse class="cls-36" cx="299.32" cy="625.54" rx="7.72" ry="10.85" transform="translate(-218.15 163.89) rotate(-22.69)"/><circle class="cls-34" cx="293.21" cy="623.25" r="2.97"/><path class="cls-35" d="M313.59,663.74a25.35,25.35,0,0,0,5.6,2.82,24.48,24.48,0,0,0,6.15,1.33,25.65,25.65,0,0,0,3.16.07,23.81,23.81,0,0,0,3.13-.44,23.53,23.53,0,0,0,5.95-2.14,23.73,23.73,0,0,1-5.92,2.26,24,24,0,0,1-3.15.51,26.12,26.12,0,0,1-3.19,0,24.3,24.3,0,0,1-6.25-1.23,25.11,25.11,0,0,1-5.77-2.77Z"/><path class="cls-37" d="M269.76,608.9s-.49-17.29,17-13.35C286.78,595.55,278.42,595.15,269.76,608.9Z"/><path class="cls-38" d="M282.11,818.8a126.94,126.94,0,0,1-23,33.06,91.86,91.86,0,0,0,34.38-35.67l-5,36.24c-.7,5.07-1.48,10.33-4.3,14.59L284,843.21c-4.82,13.91-18.48,22.58-31.72,29q-11.27,5.47-23,9.84a168.9,168.9,0,0,0,32.22-29.89c-5,6-24.83,12.89-32.08,11.7,16.39-12.14,19.73-16.07,26.14-20.68C266.67,835.15,272.38,828.45,282.11,818.8Z"/><path class="cls-26" d="M281.42,784.32c0,26.32-17,51-32.73,51s-29.84-12-29.84-38.29,18.43-55,34.13-55S281.42,758,281.42,784.32Z"/><path class="cls-23" d="M278.58,778.49c0,24.48-14.78,47.45-28.41,47.45s-25.89-11.13-25.89-35.61,16-51.16,29.62-51.16S278.58,754,278.58,778.49Z"/><path class="cls-39" d="M258,796.42c0,1.08,3.31,14.37,3.31,14.37s-41.65,13.26-36-25.16S258,796.42,258,796.42Z"/><path class="cls-23" d="M236.3,753.62s7.69-20,28.73-25.5c0,0,82.6-76.88,88.71-90.17S376,608.49,403.66,588s79.37-63.95,82.6-69.33c0,0,12.93,15.08,11.85,22.27s-42.38,45.26-65.72,73.64-58.54,62.51-77.21,80.83c-13.95,13.68-42.32,53.8-74.34,79.53-7.2,5.79-9.16,21.1-26.75,27.93"/><path class="cls-23" d="M549.91,579.78c-.85,3.71-4.16,6.26-6.29,9.42-1.13,1.67-1.93,3.93-.87,5.65s3.51,2,5.58,2.08l-1.38.43"/><path class="cls-23" d="M560.22,565.56c0,2.18.14,4.42-.63,6.46s-2.71,3.83-4.88,3.61c-2.47-.24-4-2.77-5-5-2.88-6.23-10.35-21.46-3.28-27.12,4.72-3.78,12.74-.73,14.69,4.69C562.9,553.17,560.18,560.26,560.22,565.56Z"/><path class="cls-23" d="M554.8,546.33c1.68,7.15,10.65,14.21,7.16,20.67-3.21,6-4.42,7.69-4.77,9.52"/><path class="cls-23" d="M496.39,543a86.45,86.45,0,0,0,22.2,12.4,9.16,9.16,0,0,1,3.16,1.68,7.2,7.2,0,0,1,1.83,4.34c.66,4.84-.47,9.72-1.11,14.57a71.37,71.37,0,0,0-.5,13c.14,2.73.91,6,3.54,6.81a2.47,2.47,0,0,0,2.5-.58,3.69,3.69,0,0,0,.69-1.92c1.33-8,3.35-15.94,5.37-23.83l1.59-6.21c.34-1.33.77-2.79,2-3.5a32.25,32.25,0,0,0,7.19,3.64c5,2,2.78,12.39,5.11,17.42,0,0-2.48,17-.08,22,3.57,7.5,5.51,5.32,7.18-6.7a185.94,185.94,0,0,0,1.77-22.69c0-6.47-6.8-21.38-6.8-21.38s10.32-3.44,5-9.07-43.28-24.87-49.2-26.49-14.18-4.48-22.94,3.85"/><path class="cls-39" d="M552.59,541c.94-.69,7.29,5,7.47,8.26s-8,5-11.56,1.26"/><path class="cls-40" d="M498.3,544.45,495.79,542a19.8,19.8,0,0,1-3.72-4.4,6.63,6.63,0,0,1-.64-5.56"/></g></g></g></g></g></svg>