<svg id="Layer_1" data-name="Layer 1" xmlns="http://www.w3.org/2000/svg" viewBox="0 0 700 512"><defs><style>.cls-1{fill:#5d3315;}.cls-1,.cls-33,.cls-6,.cls-7{stroke:#411e12;}.cls-1,.cls-10,.cls-17,.cls-18,.cls-20,.cls-23,.cls-33,.cls-34,.cls-35,.cls-37,.cls-6,.cls-7,.cls-8,.cls-9{stroke-miterlimit:10;}.cls-10,.cls-2{fill:#3b2113;}.cls-3{fill:#2c1a10;}.cls-20,.cls-23,.cls-34,.cls-4{fill:#9b4e24;}.cls-5{fill:#7d3a1b;}.cls-35,.cls-6,.cls-7{fill:#723c18;}.cls-10,.cls-34,.cls-6{stroke-width:3px;}.cls-8{fill:#6b3015;stroke:#3b190f;}.cls-18,.cls-20,.cls-37,.cls-8,.cls-9{stroke-width:2px;}.cls-9{fill:#9a4d24;stroke:#492012;}.cls-10{stroke:#28160f;}.cls-11{fill:#172228;opacity:0.33;}.cls-12{fill:#f39fa2;}.cls-13{fill:#d12a28;}.cls-14{fill:#1d75b8;}.cls-15{fill:#243f54;}.cls-16{fill:#faad41;}.cls-17{fill:#b5b0c1;stroke:#5a5468;}.cls-18{fill:#d0ae8e;stroke:#412514;}.cls-19{fill:#ad886e;}.cls-20,.cls-34{stroke:#472313;}.cls-21,.cls-37{fill:#d48045;}.cls-22{fill:#a25c29;}.cls-23{stroke:#572914;}.cls-23,.cls-35{stroke-width:4px;}.cls-24{fill:#242c62;}.cls-25{fill:#fff;}.cls-26{fill:#600c10;}.cls-27{fill:#f48d8e;}.cls-28{fill:#cc3432;}.cls-29{fill:#e05050;}.cls-30{fill:#831b1a;}.cls-31{fill:#121928;}.cls-32{fill:#cc783e;}.cls-33{fill:#3a2113;}.cls-35{stroke:#462413;}.cls-36{fill:#562e13;}.cls-37{stroke:#4f2513;}.cls-38{fill:#401211;}.cls-39{fill:#e59662;}</style></defs><g id="y"><path class="cls-1" d="M230,116.46c7.17-.57,67.69-118.13,162.82-72.54,17.36,8.32,64.55,37.71,89.17,36.44s94.2-4.12,111,10.57c22.26,19.41,42.07,58.09,26.51,113-2.83-4.53-15.25-17.28-18.93-19.55,2,9.91,10.85,32.65,8.4,50-3-6.42-6.23-12.83-8.3-14-.38,12.08,3.87,44.33-6,70.65-1.13-7.64-4.81-20.37-7.64-25.18-2,13.58-5.37,41.59-17.26,63.38-.56-12.17-7.64-41-15.84-50.37-2,7.64-6.51,28.86-4.81,37.35-9.06-8.49-19.81-42.44-25.19-61.12-1.13,6.23-1.69,26.88-.85,31.41-8.48-7.07-14.05-28.95-15-39.71-2.08,6-1.51,29.62-.19,36.79-4.53-5.29-13.77-27.35-15.85-35.47-1.69,10.76,1,35.84,1.89,51.41-4.24-.29-9.34-11.32-12.73-15.85,0,13.58-1.23,38-13.87,50.46,1.13-10,2.64-33.76-4.9-47.16-2.08,9.06-4.53,23.77-8.87,31.32-.94-12.83-3-43.2-18.3-57.35-.94,18.11-9,56.31-35,73.19,4-11.69,6.51-57-5.37-75.08-4,10.76-11.61,34-20.94,43.3-.57-18.11-3.4-42.16-17.73-56.31-3,3.77-8.49,18.49-8.3,23.77-4.91-2.27-7.36-24.15-7.36-28.87-3.77,6.42-17.26,50.37.85,86.59-7.93-3.11-16.7-22.92-18.11-27.73-.57,10.47-1.13,28,1.13,38.2-13-3.4-31-21.32-39.05-47.25-2.54,4-4.53,13-3.39,18.39-7.64-3.11-16.13-18.39-16.13-44.43S230,116.46,230,116.46Z"/><path class="cls-2" d="M502.63,428.1c-1.22,4.25-7.83,4.72-11.69,0-1.23-3.3,1.6-15.94,1.6-15.94"/><path class="cls-3" d="M491.41,418.1c-.62,3.75-1.13,8.23-.47,10,3.86,4.72,10.47,4.25,11.69,0,0,0,0,0,0,0C498.45,428.59,495.35,421.78,491.41,418.1Z"/><path class="cls-4" d="M496.41,371.79a188.16,188.16,0,0,0-2.45,34.9c.18,9.62.66,14.24,0,21.7-.62,6.55,5.7,16.41-2.79,21.78s-48.67-4.24-48.11-9.9-.7-12.36,6.23-25.84c8-15.62,8.68-36.6,8.3-38.48s-.38-23.4,14.33-24.72S497.83,361.45,496.41,371.79Z"/><path class="cls-4" d="M461.77,357.47c-4.55,6.91-4.48,17.2-4.22,18.48.38,1.88-.27,22.86-8.3,38.48-6.93,13.48-5.66,20.18-6.23,25.84-.08.8,2.85.05,4.18.94.7-11.74,3.19-16.81,7.14-26C461.57,397.62,466.91,377.24,461.77,357.47Z"/><path class="cls-5" d="M489.29,356.37c.14,3.1.13,6.19-1,9-10.19,26-1.14,52.07-9.06,78.1a54,54,0,0,1-3.39,7.89c6.74.7,12.59.5,15.28-1.2,8.49-5.37,2.17-15.23,2.79-21.78.7-7.46.22-12.08,0-21.7a188.16,188.16,0,0,1,2.45-34.9C497.17,366.28,494.33,360.43,489.29,356.37Z"/><path class="cls-6" d="M482.47,452.88c-13.56,0-35.43-5.73-39.65-10.4a3,3,0,0,1-.92-2.32c.1-1.05.14-2.15.19-3.33.19-5.25.43-11.78,6.15-22.92,7.86-15.28,8.58-35.85,8.2-37.74s-.27-13.16,5-20.22a14,14,0,0,1,10.34-5.84,25,25,0,0,1,21.13,8.17c3.57,4.09,5.25,9.08,4.62,13.67a185.45,185.45,0,0,0-2.44,34.72c.05,2.49.11,4.65.18,6.61a110.33,110.33,0,0,1-.23,15.21,24.35,24.35,0,0,0,.76,6.5c1.09,5.36,2.44,12-4.07,16.14C489.89,452.29,486.78,452.88,482.47,452.88Z"/><path class="cls-2" d="M296.17,433c7.36,7.35,8.49,18.81,7.36,22.78s-6.94,4-11.6-1.42C289.38,447.3,296.17,433,296.17,433Z"/><path class="cls-3" d="M292.54,443c-1.08,4-1.71,8.37-.61,11.41,4.66,5.38,10.47,5.38,11.6,1.42a10.12,10.12,0,0,0,.31-1.93C299.14,451.89,295.57,447.37,292.54,443Z"/><path class="cls-5" d="M236,272.66c-4.29,21.42-2.12,33.58,3.16,47.31s6.79,32.21,4.15,45c4.15-2.64,6.22-7.54,8.3-10.18,1.13,7.54,2.83,27.54-.95,33.58,2.65.56,6.89-4.63,7.45-5.19-1,5.19-5.89,20.65,3.16,29.71,3.4,5.8,3,19.62,1.28,26.6s-9.81,13.77-7.55,20.18,34.52,16.6,40.37,16c.94-3.39,1.51-7.35,0-17.54s3.4-16.27,2.64-34.33c-.77-18.4,14.9-34.9,13.58-53s-17.9-53-17.9-53Z"/><path class="cls-4" d="M266.18,411.64c-6.36-9.16-9-21.41,1.41-45.13-3.39,2.27-6.79,5.66-10.19,7.93,0-12.45,0-23.77-2.26-36.22a21.42,21.42,0,0,1-6.08,11c1.13-17-.62-19.52-6.09-35.65-2.83-8.49-5.4-30.07-3.64-38.3L236,272.66c-4.29,21.42-2.12,33.58,3.16,47.31s6.79,32.21,4.15,45c4.15-2.64,6.22-7.54,8.3-10.18,1.13,7.54,2.83,27.54-.95,33.58,2.65.56,6.89-4.63,7.45-5.19-1,5.19-5.89,20.65,3.16,29.71,3.4,5.8,3,19.62,1.28,26.6s-9.81,13.77-7.55,20.18c.78,2.19,5.07,4.83,10.61,7.33-3.83-5.8-1.46-17.28,1.47-26C270.76,430,269.45,416.36,266.18,411.64Z"/><path class="cls-5" d="M298,423.86c-.77-18.4,14.9-34.9,13.58-53-.75-10.27-6.4-26-11.16-37.59a294.09,294.09,0,0,1-2.23,36.65c-2.26,14.71-10.61,28-11.74,42.72-1.13,19.25,2.69,36.51-9.76,53.48-.92,1.38-1.89,2.81-2.94,4.19,9.11,3.3,18.68,5.72,21.61,5.43.94-3.39,1.51-7.35,0-17.54S298.72,441.92,298,423.86Z"/><path class="cls-7" d="M260.33,380.35,259.6,384c-.11.55-.26,1.22-.44,2-1.42,6.18-4.37,19,3.29,26.7l.18.23c3.53,6,3.19,20.05,1.39,27.44-.7,2.9-2.41,5.71-4.07,8.42-2.42,4-4.7,7.72-3.5,11.12,1.92,5.44,30.89,15,38.42,15.29.71-2.87,1.15-6.84-.24-16.26-.75-5,0-9.13.91-13.87a81.57,81.57,0,0,0,1.72-20.58c-.39-9.34,3.34-18.2,6.95-26.78,3.74-8.89,7.28-17.3,6.63-26.19-1.23-16.91-16.23-49.27-17.69-52.39l-56-43.86c-3.77,20.12-1.58,31.78,3.46,44.88,4.83,12.56,6.67,29.6,4.74,42.63a30.37,30.37,0,0,0,3.84-5.23c.66-1.05,1.29-2,1.92-2.85l1.62-2.06.39,2.6c.93,6.16,2.64,23.87-.08,32.08a20.94,20.94,0,0,0,4.28-3.91l.39-.42Z"/><path class="cls-1" d="M531.31,321.81c2.54,17.54,1.41,38.76-17,53.47.28-8.2-5-16.69-9.48-19.52-.43,6.08-7.5,23.35-4.67,33.39C494,387,487.87,377,486.6,368.07c-2.69,5.38-7.78,16.84-12.88,19.52,1-8.34-.56-17.82-1.84-19.38-2.26,7.36-11.31,25.28-23,38.48-1.89-3.77-6.22-20.56-6.79-35.46-3.21,4.72-11.69,19.81-12.64,27.16-3.77-4.34-6-12.45-7-30.74-7,9.62-16.81,25.46-38.31,27.72s-47.26-1.19-65.27-38.67c-1.89,12.08-4.15,20.94-8.87,26-1.32-11.13-15.27-28.82-21.78-38.58-.57,3.54-.85,11.6,0,13.86-6.51-2.12-27.73-21.5-31.69-50.08a30.73,30.73,0,0,0-5.66,12c-4.81-8.07-3.68-26.18-17.26-34.38s32.25-62.82,32.25-62.82l130.16-19.24,121.11,33.58Z"/><path class="cls-8" d="M522.71,270.35a102.29,102.29,0,0,0,2.59,15.48Z"/><path class="cls-5" d="M443,244.56c9.06,18.39,8.77,57.16.71,73,.14-4.24-3.39-10.75-4.53-11.74.15,11-1,29.19-11.55,37.21.94-5.38-.19-14.34-.94-15.47-2.17,9-8.4,25.75-20.09,43.29s-8,48.65-4.62,63.33,9.13,32.91-3.36,42.75-48.71.22-48.71-8.84,7.08-13,11.6-22.35,4.81-28.58,2.55-32-11.6-13.3-.57-33.11c-.28-6.51-7.64-22.26-9.9-25.37-.28,3.21-.85,12.26-.47,14.71-5.94-3.49-5.94-20.09-6.51-22.92-2.64,2.27-4,7.55-4,10.38-4.72-4.53-3.77-13.21-2.45-19.62-7.74-11.7-18.71-33.95-23.6-58.1s-.74-51.31,33.59-52.82S443,244.56,443,244.56Z"/><path class="cls-4" d="M364.08,413.77c2.26,3.39,2,22.63-2.55,32s-11.6,13.3-11.6,22.35c0,1.72,1.3,3.45,3.49,5.07a1.07,1.07,0,0,1,.19-.26,1.07,1.07,0,0,0-.19.26,21,21,0,0,0,2.12,1.37c2.4-15.92,7.71-19.27,10.9-28.73,4-11.92,5.56-29.58,0-37.1-4.74-6.4-3.73-23.67-4.7-24.21C353.94,401.68,362,410.6,364.08,413.77Z"/><path class="cls-5" d="M443,244.56s-7-2.28-17.49-5.2c8,18,17.93,35.71,14.1,55.85-4.53-2.27-6.79-6.79-9.06-10.19,0,11.32,2.27,23.77,1.13,35.09-2.26-6.79-7.92-11.32-11.31-17,3,26.22-18.75,50.64-24.41,66.36-7.56,21-10.52,42.77-2.76,66.06,4.91,16.35-2.58,31.51-11.81,45.5,6.86.17,13.25-1,17.23-4.12,12.49-9.84,6.75-28.08,3.36-42.75s-7.08-45.78,4.62-63.33,17.92-34.33,20.09-43.29c.75,1.13,1.88,10.09.94,15.47,10.56-8,11.7-26.18,11.55-37.21,1.14,1,4.67,7.5,4.53,11.74C451.79,301.72,452.08,263,443,244.56Z"/><path class="cls-6" d="M382.69,482.2A65.33,65.33,0,0,1,360.3,478c-4.3-1.67-11.5-5.17-11.5-9.93,0-6,3-10,6.14-14.21a50.56,50.56,0,0,0,5.57-8.63c4.45-9.17,4.64-27.83,2.63-30.86l-.64-.89c-3.12-4.33-10.41-14.42-.14-33.1-.39-5.14-5-15.84-7.89-21.38a82,82,0,0,0-.21,10.81l.36,2.35-2.05-1.2c-5.29-3.11-6.24-14.6-6.75-20.77a1.94,1.94,0,0,1,0-.24,17.37,17.37,0,0,0-2,7.49v2.65l-1.92-1.83c-3.89-3.74-4.83-10.35-2.87-20.21-7.9-12.07-18.69-34.36-23.5-58.11-2.5-12.35-3.53-29.58,5.79-41.5,6.13-7.83,15.84-12.1,28.86-12.67,1.3-.06,2.66-.08,4.06-.08,34.46,0,88.61,17.6,89.15,17.77l.45.15.21.43c8.82,17.9,9.2,57.33.71,74l-2.31,4.54.17-5.09c.08-2.32-1.12-5.49-2.28-7.82-.32,16.93-4.35,28.43-12,34.23L426,345.67l.49-2.84a40.9,40.9,0,0,0,0-10.43,156.19,156.19,0,0,1-19,39.08c-13.64,20.46-5.44,58.2-4.46,62.44.28,1.23.59,2.49.89,3.77,3.45,14.38,7.36,30.67-4.65,40.13C395.7,480.69,389.94,482.2,382.69,482.2Z"/><path class="cls-2" d="M597.23,420.27c5,5.73,6.8,13.66,5.95,18.47s-9.77,5.09-12,1.13S597.23,420.27,597.23,420.27Z"/><path class="cls-3" d="M592.67,430.29c-1.47,3.9-2.51,7.85-1.52,9.58,2.25,3.93,11,3.68,12-1A26.32,26.32,0,0,1,592.67,430.29Z"/><path class="cls-5" d="M618.27,160c15.28,6.6,46.21,53.38,49.23,95.26a82.94,82.94,0,0,0-9.24-9.25c2.83,14.34,8.11,37.73.56,61.69a147.83,147.83,0,0,1-5.47-17.54c-3,14.33-7.54,27.72-8.3,41.87s.19,23.2,1.13,26.79c-6.79-2.26-13.15-10.75-15.34-29.43-3.14,8.11-4.84,26-12.57,36.79A74.06,74.06,0,0,1,611.48,348c-1.51,7.54-1.89,23-14.91,32.63-7.73-15.09,5.29-67.72,9.06-94.88s13.9-81.87,13.9-81.87Z"/><path class="cls-9" d="M596.17,382.36l-.6-1.18c-6-11.68-.22-43.48,4.87-71.54,1.61-8.88,3.13-17.28,4.07-24,3.65-26.27,13.35-78.92,13.89-81.8l-1.32-45.61,1.64.71c16.71,7.22,46.95,55.18,49.91,96.22l.25,3.5-2.25-2.7a69.87,69.87,0,0,0-6.6-6.86c2.93,14.75,7,36.45-.13,58.92l-.94,3-1.18-2.91c-1.43-3.49-3.18-9-4.34-13.12-.66,2.83-1.35,5.63-2,8.36-2.42,9.78-4.71,19-5.23,28.73-.73,13.67.14,22.79,1.1,26.44l.53,2-2-.66c-4.5-1.5-12.15-6.81-15.39-25.37-.45,1.71-.9,3.6-1.38,5.63-2,8.58-4.54,19.26-9.87,26.69l-1,1.37-.89-1.43a75.69,75.69,0,0,1-5.58-13.28c-1.31,8.35-3.65,20.11-14.48,28.11Z"/><path class="cls-5" d="M617,145.88c7.54,11.62,21.5,68.59,8.67,119.9-3-7.17-5.28-10.56-8.67-12.83,2.64,16.6,6.22,37.73,0,52.63-1.7-3.77-5.47-8.11-7.74-9.24,1.51,10.75.19,36.78-7.17,67.34s-2.26,55.18-3.82,61.4-5.65,10.19-4.66,16,3.3,17.12-2.27,20.89-47.35-9.24-47.91-15.65,1.51-14.91,6.22-24.15,10.76-30.56,5.66-47.91c-14.15-14.72-35.27-38.59-39.8-70-1.7,3.68-3.11,12.88-2.55,16.56-6.93-5.1-15.94-30.89-13.11-68.43S617,145.88,617,145.88Z"/><path class="cls-4" d="M577.71,382.36c-18-13.33-33.52-25.39-44.26-45.59-4.53-4.42-8.15-11.15-14.58-18.26,7.74,24.4,24.48,43.35,36.39,55.74,5.1,17.35-.94,38.67-5.66,47.91s-6.79,17.73-6.22,24.15c.09,1,1.21,2.19,3,3.44,2.08-10.31,4.66-15.11,9.59-25.51,7.35-15.54,7-27.16,7-41.88C567.56,384.63,573.61,384.15,577.71,382.36Z"/><path class="cls-5" d="M625.62,265.78c12.83-51.31-1.13-108.28-8.67-119.9,0,0-5.79,3.49-14.78,9.33,15.1,27.88,24.73,60,20.81,91.33-6.79-2.26-10.18-9-14.71-13.58-1.13,19.24,6.79,37.35,5.66,56.59-5.66-5.66-11.32-11.32-15.85-18.11,4.53,31.69-1.13,61.12-7.92,92.81-4.53,18.11,3.4,35.09-2.26,53.2-2.27,6.79-6.65,9.05-5.8,17,2.26,13.58-1,13.58-7.79,24.9a11.56,11.56,0,0,1-.7,1c8.28,2.11,15.58,3.09,17.68,1.66,5.57-3.77,3.26-15.09,2.27-20.89s3.11-9.76,4.66-16-3.53-30.84,3.82-61.4,8.68-56.59,7.17-67.34c2.27,1.13,6,5.47,7.74,9.24,6.22-14.9,2.64-36,0-52.63C620.34,255.22,622.61,258.61,625.62,265.78Z"/><path class="cls-6" d="M516,300.31l.55,3.79c4.25,29.49,23.34,52.56,39.5,69.36l.19.2.08.27c5.12,17.46-.62,38.72-5.74,48.75-4.5,8.81-6.67,17.17-6.1,23.53.39,4.43,31.1,15.3,43.23,15.3a5.64,5.64,0,0,0,2.92-.48c4.67-3.17,2.9-13.35,2-18.81l-.17-1c-.68-4,.78-7.07,2.32-10.36a32.83,32.83,0,0,0,2.37-6.09c.45-1.8.27-5.69,0-10.61-.49-11.1-1.32-29.67,3.76-50.78,7.67-31.85,8.48-57.47,7.15-66.92l-.3-2.14,1.93,1c2.1,1.05,5.08,4.3,7,7.52,4.74-14.06,1.72-33.05-.74-48.47l-.61-3.8,2.16,1.43c3,2,5.21,4.85,7.72,10.24,10.81-47.68-.87-101-8.73-114.81-11.07,6.79-113,70.31-115.64,105-2.63,34.93,4.93,58,10.74,65.48.15-4.52,1.35-11.11,2.76-14.17Z"/><path class="cls-4" d="M237.88,110.26c7.17-.57,62.48-109.27,157.61-63.68,17.36,8.32,62.23,38,86.85,36.76S577,77.62,594.16,95.5c16.42,17.11,36.56,50.5,21,105.39-2.83-4.53-8.2-11.6-11.88-13.86,2,9.9,10.84,32.64,8.39,50-3-6.42-6.22-12.83-8.3-14-.38,12.07,3.87,44.32-6,70.64-1.14-7.64-4.81-20.37-7.64-25.18-2,13.58-5.38,41.59-17.26,63.38-.57-12.17-7.64-41-15.85-50.37-2,7.64-6.51,28.86-4.81,37.35-9-8.49-19.81-42.44-25.18-61.12-1.13,6.23-1.7,26.88-.85,31.41-8.49-7.07-14.06-28.95-15-39.71-2.07,6-1.51,29.62-.19,36.79C506,281,496.79,258.9,494.72,250.78c-1.7,10.76,1,35.85,1.88,51.41-4.24-.29-9.33-11.32-12.73-15.85,0,13.58-1.23,38-13.86,50.46,1.13-10,2.64-33.76-4.91-47.16-2.07,9.06-4.53,23.77-8.86,31.32-.95-12.83-3-43.2-18.3-57.35-.95,18.11-9,56.31-35,73.19,4-11.69,6.5-57-5.38-75.07-4,10.75-11.6,33.95-20.94,43.29-.57-18.11-3.39-42.16-17.73-56.31-3,3.77-8.49,18.49-8.3,23.77-4.9-2.27-7.36-24.15-7.36-28.86C339.47,250,326,294,344.09,330.2c-7.92-3.11-16.69-22.92-18.11-27.73-.56,10.47-1.13,28,1.13,38.2-13-3.4-31-21.32-39-47.25-2.55,4-4.53,13-3.4,18.39-7.64-3.11-16.13-18.39-16.13-44.43S237.88,110.26,237.88,110.26Z"/><path class="cls-10" d="M543.3,443.49c-7.61,3.81-21.19,18.1-21.9,30.55-.28,5.23,20.37,2.83,26.46,1,.14,2.54-.14,4.66,7.64,4.38s32.58-2.78,37.94-19.87C596,449.89,558.12,437.65,543.3,443.49Z"/><path class="cls-3" d="M538.9,476.67a63.45,63.45,0,0,0,8.4-1.48c.46-8.28,2.3-15.34,6.9-24.52C544.85,454.83,540.45,466.07,538.9,476.67Z"/><path class="cls-3" d="M579.45,447.34c.8,16.18-10.86,28.15-25.92,32.08.6,0,1.24,0,2,0,7.78-.28,32.58-2.78,37.94-19.87C594.54,455.41,588.21,450.8,579.45,447.34Z"/><path class="cls-10" d="M443,436.5c-5.47,3.2-15.46,21.69-15.46,25.09s8.48,1.51,12.82,0c-.56,2.83-.56,5.75,5.94,7.07s19.91,3.11,32.17-3.49,16.15-13.81,15.12-17.15C490.63,438.38,463.81,429.94,443,436.5Z"/><path class="cls-3" d="M433.89,463.23a40.27,40.27,0,0,0,6.46-1.63c2.15-7.17,6.16-12,11.44-17.94C443.22,448,437.08,452.39,433.89,463.23Z"/><path class="cls-3" d="M493.61,448c-1.31-4.21-7.17-8.2-15.11-10.81,4,18.61-12.53,30.37-30.21,31.81,7,1.22,19,2.15,30.2-3.85C490.75,458.57,494.64,451.36,493.61,448Z"/><path class="cls-10" d="M355.12,503.09c5.09.08,9.24-10.19,14.34-18.87.56,5.19,4.58,18,8.91,18.87,6.84,1.41,27.74-11.53,25.82-33.73-2.19-13.72-41.9-16.52-53.76-5.23C336.07,477.81,344.93,502.24,355.12,503.09Z"/><path class="cls-3" d="M355.09,503.08h0c5.06.08,9.19-10,14.23-18.69.12-6-.24-9.88,2.13-16.92C362.37,477.6,361.86,492,355.09,503.08Z"/><path class="cls-3" d="M404.19,469.36c-.86-5.38-7.48-9.06-15.93-10.9,6.85,15.55,2.68,32.29-8.4,44.72C387.8,502.79,406,490.13,404.19,469.36Z"/><path class="cls-10" d="M256,452.23c-9.86,5.25-27.22,29.53-25.33,34.82s15.61-.14,17.31-1.13c-1.7,4.1-3.4,8.91,3.53,10.47s35.37,2.17,47.26-14.24c2.26-5.28-2.6-17-17.17-25S256,452.23,256,452.23Z"/><path class="cls-3" d="M237.52,489.16a40.17,40.17,0,0,0,9.5-2.8c3.61-8.8,9.35-16.43,14.3-23.73C252.2,470.74,242.58,477.81,237.52,489.16Z"/><path class="cls-3" d="M281.55,457.13c-.37-.21-.73-.4-1.1-.59,9.3,21.32-6.6,37.83-28.54,39.94,7.6,1.48,35.15,1.76,46.81-14.33C301,476.87,296.12,465.16,281.55,457.13Z"/><path class="cls-11" d="M401.34,50.34c12.72,8.53,13.61,24.79,15,40.44,2.61,29.1-11.28,123.36,0,162.11,16.94,13.84,40.48,6.24,56.59,14.88a79.14,79.14,0,0,0,42.39,8.85c33.25-2.07,72.27-9.39,83.92-38.1,2-30.38-11.46-61.92-24.51-93.22-11.66-27.94-18.58-51.53-44.7-65.44l-79.6-3.31Z"/><path class="cls-12" d="M406.42,51.22c12.72,8.22,13.61,23.91,15,39,2.61,28.07-11.28,119,0,156.34,16.94,13.35,40.48,6,56.59,14.35a81.49,81.49,0,0,0,42.39,8.54c33.24-2,72.27-9.06,83.92-36.75,2-29.29-11.46-59.7-24.52-89.89-11.65-27-18.57-49.7-44.69-63.12l-79.6-3.19Z"/><path class="cls-13" d="M449.8,138.17s13.26,60.68,20,81.35,121-4.44,121-4.44l-29-81.81Z"/><path class="cls-14" d="M459.89,141.53s11.36,52,17.11,69.71,103.67-3.81,103.67-3.81l-24.85-70.1Z"/><path class="cls-13" d="M515.39,74.9c11-1.23,30.63,7,38.72,13.54,2.7,2.2,9.82,16,10.92,19.35,4.69,14.08,6.52,36.34,11.21,50.42-38.18,8.52-77,8.89-116,11.39-6.19.4-13.57.16-17-5-1.66-2.51-1.93-5.66-2.13-8.67-1.65-24.86-1.16-50-5.93-74.45-1.83-9.39-7.53-19.58-15.83-24.34C448.65,72,483.29,78.48,515.39,74.9Z"/><path class="cls-15" d="M565,144.18c-32.39,7.1-65.37,7.41-98.49,9.51-5.25.33-11.52.13-14.41-4.2-1.38-2.06-1.63-4.63-1.8-7.1,0,0,0-.09,0-.13-.5-7.54-.78-15.1-1.11-22.66-.58-13.25-1.34-26.47-3.92-39.47-1.56-7.84-4.35-13.41-11.4-17.38,24.89,12.44,52.25,14.88,79.49,11.9,9.36-1,26,5.83,32.87,11.3,2.29,1.83,8.33,13.39,9.27,16.15a103.74,103.74,0,0,1,3.11,12.27c1.08,5.41,2,11.17,3.11,16.61A111,111,0,0,0,565,144.18Z"/><path class="cls-16" d="M561.74,131a30.44,30.44,0,0,1-15,.28c-3.57-.84-7-2.34-10.65-2.68-8.08-.77-15.44,4.13-23.06,6.88a45.06,45.06,0,0,1-23.1,2c-5.92-1-11.71-3.29-17.71-3.1-7.85.25-14.73,4.5-21.84,8,0,0,0-.09,0-.13-.5-7.54-.78-15.1-1.11-22.66,11.52-2.88,22-1.73,34.3-.56a93.06,93.06,0,0,0,35.69-3.57c5.36-1.63,10.75-3.77,16.35-3.52,4.18.19,8.17,1.68,12.29,2.35a37.88,37.88,0,0,0,10.79.07C559.71,119.78,560.67,125.54,561.74,131Z"/><path class="cls-17" d="M532.93,280.77c-4-8.34-11.6-19.2-26.06-31.41,0,0-35.47,18.42-30.62,39.23,3.21,13.78,28.88,13.36,45.87,11.5A13.59,13.59,0,0,0,532.93,280.77Zm-16.08,11.75c-11.83,1.29-29.7,1.58-31.94-8-3.38-14.49,21.32-27.32,21.32-27.32,10.08,8.5,15.37,16.06,18.15,21.86A9.47,9.47,0,0,1,516.85,292.52Z"/><path class="cls-18" d="M498.51,252.7l4.08,8.56s2.06-6.26,7.69-.46l7.42-6.68S507.3,239.76,498.51,252.7Z"/><path class="cls-17" d="M497.78,167.51s8.56,50.42,7.24,82.87l5.73-.92s-1.15-52.57-7.38-82"/><path class="cls-15" d="M340.12,224.61c0,48.75-32.83,88.28-73.33,88.28-25.84,0-48.56-16.09-61.62-40.41,19.44,15.95,43,22.41,64.65,15.26C308.27,275,326,224.09,309.44,174a120.78,120.78,0,0,0-15.75-31.52C320.87,155.37,340.12,187.28,340.12,224.61Z"/><path class="cls-18" d="M161.63,140.21a137.18,137.18,0,0,1-33.85,4.6c-20.31.26-45.64-4.12-63.85-23.28-26.31-27.69-13.46-74.9-3.84-95.22,3.31-7,6.22-10.8,7-9.53,3.79,5.82,0,38.9,0,38.9C68,110.4,156.5,96.63,156.5,96.63,168.64,110.53,161.63,140.21,161.63,140.21Z"/><path class="cls-19" d="M131.23,124.66l-1.39,18.13c-20.31.26-45.64-4.12-63.84-23.28C39.68,91.82,52.53,44.6,62.15,24.29c-4,15.93-7.6,43,4.34,67C84.81,128.2,131.23,124.66,131.23,124.66Z"/><path class="cls-20" d="M119.62,140.33c-14.16,4.06-23.21,11-35,24.86-7.92,9.34-15.42,26.55-20.23,31,9.9,4.48,43.73,2,53.08-13.82C122.53,170.71,119.62,140.33,119.62,140.33Z"/><path class="cls-21" d="M83.67,186.74c3.4-7.83,20.84-27.82,35.09-30-.1,6.88-1.13,16.88-2.36,18.67C108.48,180.71,92,187.78,83.67,186.74Z"/><path class="cls-22" d="M85,184.29c9.06-6,14.76-17.19,26.44-20.37,2.62-.92,2,5.36.42,7.88-4.63,7.3-19.17,12.06-28,14.63,0,.11-.1.21-.14.31,8.3,1,24.81-6,32.73-11.32,1.23-1.79,2.26-11.79,2.36-18.67C105.83,158.72,90.26,175.38,85,184.29Z"/><path class="cls-5" d="M85.44,188a14.28,14.28,0,0,1-1.91-.12l-1.5-.18.6-1.39c3.47-8,21.11-28.4,36-30.66l1.32-.2,0,1.33c-.07,5.37-.93,16.92-2.56,19.3l-.12.18-.18.13C109.73,181.23,94.69,188,85.44,188Z"/><path class="cls-23" d="M292.53,145.06c-2,18.11,2.79,31.41,8.73,49.52s6.23,52.91-15.84,70.17-47.63,19.9-58.2,29.52c-2.45,14.91-6.6,31.69-27.35,35.09s-41.12,2.45-46.78-4.9-.94-22.08,3.58-29.81c.38-4-39-38.1-46.12-53.67s-9-38.54,2.83-54.64c.57-11.57,1.13-46.81,15-60.46s78.66-22.7,109.5-15.62S292.53,145.06,292.53,145.06Z"/><path class="cls-5" d="M301.26,194.58c-5.94-18.11-10.75-31.41-8.73-49.52,0,0-7.23,26.23-9.38,24-3.3,22.11,6.32,34.43,1.42,61.59-4.44,24.61-26.06,40.19-49.83,45.85,0-6.79,0-10.57-3.37-16.42-10.18,19.24-7.92,46.41-28.29,57.72-14.12,8-34,9.72-51.08,3.4,2.83,11.14,27.89,10.25,47,7.12,20.75-3.39,25.76-19.18,28.21-34.09,10.57-9.62,36.13-12.26,58.2-29.52S307.2,212.69,301.26,194.58Z"/><path class="cls-5" d="M248.63,176.62c0,21.24-12.15,38.46-27.13,38.46s-27.14-17.22-27.14-38.46,12.15-38.45,27.14-38.45S248.63,155.38,248.63,176.62Z"/><path class="cls-24" d="M224,207.14c-7.6,0-13.78-8.51-13.78-19s6.18-19,13.78-19,13.78,8.52,13.78,19S231.64,207.14,224,207.14Zm0-36.27c-6.66,0-12.09,7.76-12.09,17.29s5.43,17.28,12.09,17.28,12.08-7.75,12.08-17.28S230.7,170.87,224,170.87Z"/><path class="cls-25" d="M221.37,215.08c-13.27,0-24.07-15.27-24.07-34s10.8-34,24.07-34,24.06,15.27,24.06,34S234.64,215.08,221.37,215.08Z"/><path class="cls-1" d="M227.4,298.7l-2.24-.33c2.33-15.41,6-23.4,6.18-23.73C231.34,274.64,229.68,283.66,227.4,298.7Z"/><path class="cls-26" d="M167.85,282.76c-5.66,9.48-13.44,33.53,6.79,34.94s29.29-10.32,36.36-25.6,13.87-42.92,10.47-53.86C199.68,261.54,167.85,282.76,167.85,282.76Z"/><path class="cls-27" d="M194,279.36C170.75,287,166.31,302.43,166.35,315a15.44,15.44,0,0,0,8.29,2.7c20.23,1.42,29.29-10.32,36.36-25.6,6.22-13.43,12.21-36.4,11.27-49.2A91.22,91.22,0,0,1,194,279.36Z"/><path class="cls-28" d="M191.25,282.74l1.41,1.77c-10,8-7.18,22.06-7.15,22.21C185.51,306.72,180.13,291.58,191.25,282.74Z"/><path class="cls-29" d="M177.87,318.51h0c-1.07,0-2.19,0-3.31-.12a16.76,16.76,0,0,1-8.88-2.9l-.46-.34v-.57c-.06-18,9.45-30.29,28.26-36.45a89.84,89.84,0,0,0,27.74-35.68l1.83-4.41.35,4.76c1,12.92-5.11,36-11.37,49.47C205.68,305.9,197.16,318.51,177.87,318.51Z"/><path class="cls-26" d="M168,276.79c-5.66,9.48-13.44,33.53,6.79,34.94s29.29-10.32,36.36-25.6,13.87-42.92,10.47-53.86C199.82,255.57,168,276.79,168,276.79Z"/><path class="cls-27" d="M194.16,273.39c-23.27,7.6-27.71,23.07-27.67,35.64a15.44,15.44,0,0,0,8.29,2.7c20.23,1.42,29.29-10.32,36.36-25.6,6.22-13.43,12.21-36.4,11.27-49.2A91.22,91.22,0,0,1,194.16,273.39Z"/><path class="cls-28" d="M191.39,276.77l1.41,1.77c-10,8-7.18,22.06-7.15,22.21S180.27,285.61,191.39,276.77Z"/><path class="cls-30" d="M178,312.54h0c-1.07,0-2.19,0-3.31-.12a16.76,16.76,0,0,1-8.88-2.9l-.46-.34v-.57c-.06-18,9.45-30.29,28.26-36.45a89.84,89.84,0,0,0,27.74-35.68l1.83-4.41.35,4.76c1,12.92-5.11,36-11.37,49.47C205.82,299.93,197.3,312.54,178,312.54Z"/><path class="cls-5" d="M139.65,179.06c-1.43,16.43-9.15,29.18-17.25,28.47s-13.5-14.59-12.07-31,9.15-29.18,17.25-28.47S141.08,162.62,139.65,179.06Z"/><path class="cls-25" d="M139.37,182.29c-1.28,14.64-8.87,26-17,25.24s-13.62-13.15-12.35-27.8,8.87-25.95,17-25.24S140.64,167.64,139.37,182.29Z"/><path class="cls-25" d="M131.23,184.53a3.14,3.14,0,1,1-3.14-3A3.06,3.06,0,0,1,131.23,184.53Z"/><path class="cls-25" d="M126.34,198.06a1.34,1.34,0,1,1-1.34-1.28A1.31,1.31,0,0,1,126.34,198.06Z"/><path class="cls-31" d="M128.5,204.35a5.82,5.82,0,0,1-.59,0c-3.1-.24-5.84-2.35-7.72-5.93A23.35,23.35,0,0,1,118,185.93c.74-9.64,6.37-17.14,12.65-16.64s10.7,8.74,10,18.4C139.85,197,134.55,204.35,128.5,204.35Z"/><path class="cls-4" d="M132.5,149.32s6.06,6.53,5.07,23.94-5.42,30-11.46,38c-8.6,11.36-25.84,17-23.58,29.23s38,53.58,80.74,46.5c19-5.66,35.09-20.65,43.58-53.48Z"/><path class="cls-32" d="M108,239.75c1.87-11.88,12.77-11,24.06-28.3,7.49-11.46,14.43-40.93,2.93-58.89a62.87,62.87,0,0,1,2.58,20.7c-1,17.4-5.42,30-11.46,38-8.6,11.36-25.84,17-23.58,29.23a17.29,17.29,0,0,0,1.49,4.12A11.07,11.07,0,0,1,108,239.75Z"/><path class="cls-5" d="M218.21,233.58c-24.19,53.09-61,30.36-98.22,31,14.89,13.74,37.85,26.67,63.28,22.46,19-5.66,35.09-20.65,43.58-53.48C226.85,233.52,219.1,231.62,218.21,233.58Z"/><path class="cls-1" d="M173.29,289c-19.22,0-35.42-8.9-46.24-17-14.45-10.89-24.38-24.42-25.63-31.2-1.56-8.48,5.29-13.9,12.55-19.63,4-3.19,8.21-6.49,11.24-10.5,6.44-8.51,10.33-21.44,11.23-37.39.95-16.64-3.94-23.87-3.94-23.87.29.25,7.21,6.23,6.2,24-.93,16.4-5,29.76-11.68,38.63-3.21,4.24-7.5,7.63-11.65,10.9-7,5.53-13,10.31-11.72,17.45,2.1,11.4,37.17,52.54,79.37,45.6,21.23-6.37,35.21-23.6,42.73-52.66l2.19.57c-7.74,29.93-22.24,47.68-44.35,54.28l-.13,0A62.74,62.74,0,0,1,173.29,289Z"/><path class="cls-33" d="M234.27,239.1a22.79,22.79,0,0,0-7.81-4.1,52.36,52.36,0,0,0-9-1.48s4.92-2,9.6-.71S234.27,239.1,234.27,239.1Z"/><path class="cls-34" d="M281.25,173.09s8.41,19.12,28.5,30.16S346,219,353.47,219.52c-2.12-3.82-7.92-13-9.34-16.13,5.09,1.56,17.54,10.47,20.8,13.16-.14-9.48-10.61-31.84-26.46-48s-37.11-17.5-56.16-17.31Z"/><path class="cls-32" d="M364.89,215.81c-.63-9.85-11-31.49-26.42-47.22-14.22-14.48-32.8-17.06-50.24-17.3a8.21,8.21,0,0,1,.87,3.57C331.35,154.87,346.67,183.21,364.89,215.81Z"/><path class="cls-5" d="M364.87,215.49c-6.3-9.06-19.49-15.65-28.46-21.62,1.07,7.4,4,10.86,7.44,16.52-25.19-5.81-45.42-19-62.4-36.87,1.37,2.87,10,19.66,28.3,29.73,20.09,11,36.22,15.7,43.72,16.27-2.12-3.82-7.92-13-9.34-16.13,5.09,1.56,17.54,10.47,20.8,13.16C364.92,216.21,364.9,215.86,364.87,215.49Z"/><path class="cls-5" d="M299.85,163.67c10.33,2.05,35.6,15,39.75,31.65-10.47-.28-34.82-10.25-44.43-21.25C292.35,171.13,293.34,162.5,299.85,163.67Z"/><path class="cls-35" d="M283.52,107.33c2.44.65,7.74,1.69,9,1.81-1-4.64-17.16-24.87-52.24-31.67-10-8.77-53.43-26.92-85.13,5.71-12.45,3-31.31,12.64-35.27,34.14s-2.26,32.07,0,35.47c4.9-6.6,8.11-16,18.49-25.28-.76,7-4.34,21.88,4.71,31.88.57-6,4.25-14,5.28-15.66-.37,7.55,1.23,31.87,14.67,41.66-.28-7.75,2.83-26.71,11.6-37-.57,4.11-1.48,11.46-.28,14.15,3.11-5.09,23.62-19.66,28.72-31.83.56,6.08-2.69,17.68-5.94,23.06,6.79-.42,28.57-19.1,34.66-30.56.7,10.9,8.82,31.5,23.15,41.12-2.64-9.8-2.83-22.82-1.51-30.18,4.34,7.93,9.62,17.55,19.81,26.41C272.31,143.92,275.86,115.27,283.52,107.33Z"/><path class="cls-36" d="M292.53,109.14c-.48-2.16-4.22-7.67-11.59-13.64-11.84,12.67-13.85,36.88-12.79,53.82-6.3-6.15-12.44-18.51-14.71-29.83-4.52,9.06-5.09,19.53-7.35,28.58-7.93-11.32-9.72-24.52-10.85-39.23-7.64,13.2-18.58,24.09-28.77,34.28,1.84-9.2,4.21-18.53-1.45-26.46-4.58,12-15.52,22.36-25.71,31.41-1.13-6.79-.57-11.32.28-18.3-6.79,12.45-17.82,21.6-21.78,39.81-3.4-13.58-4.53-28.3-4.53-43-4.53,5.66-9.06,11.32-10.19,19.24-3.39-9.06-1.13-18.11,0-27.17-10.19,3.4-15.68,14.88-21.34,22.8-2.36-9.5-2.1-15.47-1.39-26.33-.17.73-.33,1.46-.47,2.21-4,21.51-2.26,32.07,0,35.47,4.9-6.6,8.11-16,18.49-25.28-.76,7-4.34,21.88,4.71,31.88.57-6,4.25-14,5.28-15.66-.37,7.55,1.23,31.87,14.67,41.66-.28-7.75,2.83-26.71,11.6-37-.57,4.11-1.48,11.46-.28,14.15,3.11-5.09,23.62-19.66,28.72-31.83.56,6.08-2.69,17.68-5.94,23.06,6.79-.42,28.57-19.1,34.66-30.56.7,10.9,8.82,31.5,23.15,41.12-2.64-9.8-2.83-22.82-1.51-30.18,4.34,7.93,9.62,17.55,19.81,26.41-.94-16.6,2.61-45.25,10.27-53.19C286,108,291.26,109,292.53,109.14Z"/><path class="cls-37" d="M89.6,232.39c11.51-2.45,18.4,2.74,34,2.93s31.68-7,42.15-2.93,12.51,10.68,14.3,20.09c3.06,16.13,14.71,21.17,8.06,33.29S166.43,300,152.7,297.9s-23.91-8.35-29.28-6.37-10.69,12.29-20.89,9.9c-11.51-2.68-9-17.12-13-26.28-4.28-9.85-9.61-15.9-10.44-25.31S82.72,234.47,89.6,232.39Z"/><path class="cls-26" d="M95.13,250.5c-1.7,7.92-4.81,22.35,4.53,21.79S102.77,254.75,95.13,250.5Z"/><path class="cls-38" d="M99.16,254c1.7,7.39,1.63,15.17-5.88,10.92.24,4.35,1.83,7.63,6.38,7.36C107.26,271.83,104.55,260.49,99.16,254Z"/><path class="cls-26" d="M153.21,255.54c1.7,7.93,4.81,22.36-4.53,21.79S145.57,259.79,153.21,255.54Z"/><path class="cls-38" d="M153.44,256.66c.09,6.1-2.32,19.8-9.18,12.49-.84,4.29.19,7.92,4.42,8.18C157.6,277.87,155.16,264.74,153.44,256.66Z"/><path class="cls-18" d="M392.08,131.79C350.29,169,274.27,147.44,274.27,147.44A64.83,64.83,0,0,1,273.08,135c-.05-8.84,1.7-20.43,9.63-28.13,0,0,104.59,13.78,105.59-40.94,0,0-4.49-33.09,0-38.91,1.68-2.19,10.86,10.89,16.88,29.36C412.72,79.51,415.32,111.1,392.08,131.79Z"/><path class="cls-19" d="M391.12,131.13c-41.79,37.22-115.59,15.2-115.59,15.2a75.19,75.19,0,0,1-1.14-12.77c34.51,7.67,70.3,4.82,102-10.73,9.23-4.53,16.62-9.75,22.13-18.43,8.17-12.89,6.63-32.93,5-48.12h0C411.11,79.41,414.36,110.45,391.12,131.13Z"/><path class="cls-39" d="M135.62,246.54c6.42,0,13.44-.43,18.18-4.76-2.52-2.13-6.23-1.83-9.5-1.41-4.05.52-19,0-21.65,2.79C118.94,246.93,133.53,246.54,135.62,246.54Z"/><ellipse class="cls-31" cx="231.89" cy="189.22" rx="13.54" ry="18.35"/><circle class="cls-25" cx="226.18" cy="176.8" r="3.81"/><circle class="cls-25" cx="128.09" cy="173.52" r="3.81"/></g></svg>