<svg id="a696743d-a3ca-4c78-9a8f-d623e6ca0d03" data-name="Layer 1" xmlns="http://www.w3.org/2000/svg" width="231.22" height="252.01" viewBox="0 0 231.22 252.01">
  <defs>
    <style>
      .a5b82973-b4ac-4740-8041-cf31ab31319d {
        fill: #999;
      }
    </style>
  </defs>
  <path class="a5b82973-b4ac-4740-8041-cf31ab31319d" d="M170.74,154.78a31.47,31.47,0,0,1,5.76-4.65c6.93-4.24,15.9-4.62,23.46-1.66a30.35,30.35,0,0,1,18.7,24.69,30,30,0,0,1-4.48,18.69,39.67,39.67,0,0,1-6.56,7.49c-1.91,1.86-3.12,4.2-4.94,6.16a110.61,110.61,0,0,1-82.36,34.84,110.45,110.45,0,0,1-83.54-42.26C22,178.93,13.89,155,12.61,130.82c-1.18-22,3.29-44.54,14.45-63.53,11-18.72,28.16-33.46,47.6-43.12,20.3-10.1,43.56-14.87,66-11.4,23.7,3.67,45.51,16.45,62.07,33.8,7.86,8.22,14.94,18.32,15.11,29.7A27.65,27.65,0,0,1,179.14,102c-10.51-4.58-17.08-15-26.1-22.11-17.43-13.65-44.26-12.64-61.55,1.19s-24.29,38.67-18.21,60c6.91,24.18,31.62,43.07,56.59,40,12.3-1.49,23.77-7.88,32.31-16.87C165.1,161.16,167.75,157.75,170.74,154.78Z"/>
</svg>
