<svg id="b96e3c23-7558-4f49-9ed5-9556fccf26e2" data-name="Layer 1" xmlns="http://www.w3.org/2000/svg" width="231.22" height="252.01" viewBox="0 0 231.22 252.01">
  <defs>
    <style>
      .ec27ee00-e0d6-46ca-b597-724d39b995f0 {
        fill: #3b3be0;
      }
    </style>
  </defs>
  <path class="ec27ee00-e0d6-46ca-b597-724d39b995f0" d="M170.74,154.78a31.74,31.74,0,0,1,5.75-4.65c6.93-4.24,15.9-4.62,23.47-1.65a29.52,29.52,0,0,1,14.22,43.37,39.72,39.72,0,0,1-6.57,7.49c-1.9,1.86-3.12,4.2-4.93,6.17a110.7,110.7,0,0,1-82.37,34.83,110.45,110.45,0,0,1-83.54-42.26C22,178.93,13.89,155,12.6,130.82c-1.17-22,3.3-44.54,14.46-63.53,11-18.72,28.16-33.46,47.6-43.12,20.3-10.1,43.56-14.87,66-11.4,23.71,3.67,45.51,16.45,62.08,33.8,7.86,8.22,14.94,18.32,15.11,29.7A27.65,27.65,0,0,1,179.13,102C168.62,97.44,162.06,87,153,79.91c-17.43-13.65-44.27-12.64-61.55,1.19s-24.29,38.67-18.21,60c6.91,24.18,31.62,43.07,56.58,40,12.31-1.49,23.78-7.88,32.32-16.87C165.1,161.16,167.74,157.75,170.74,154.78Z"/>
</svg>
