<svg id="a5c0d194-a74f-4dda-bff3-50ec9cc86aa9" data-name="Layer 1" xmlns="http://www.w3.org/2000/svg" width="231.22" height="252.01" viewBox="0 0 231.22 252.01">
  <defs>
    <style>
      .f149d85d-dc34-4fcb-809a-bfb812e019d5 {
        fill: #ff0;
      }
    </style>
  </defs>
  <path class="f149d85d-dc34-4fcb-809a-bfb812e019d5" d="M226.62,172.36A38.52,38.52,0,0,0,202.88,141a36.27,36.27,0,0,0-13.16-2.49,33.24,33.24,0,0,0-17.4,4.77,39.58,39.58,0,0,0-7.22,5.79c-1.88,1.88-3.58,3.82-5.21,5.71-1.21,1.38-2.35,2.69-3.51,3.91-7.69,8.1-17.45,13.22-27.48,14.44a36.9,36.9,0,0,1-4.34.26h0c-18.91,0-38-15.18-43.59-34.56-5.35-18.74,1-39.92,15.52-51.51a43.31,43.31,0,0,1,27.05-9.17,39.82,39.82,0,0,1,24.56,8,87.17,87.17,0,0,1,8.61,8.13c5.51,5.66,11.2,11.52,19.23,15a35.61,35.61,0,0,0,14.13,2.9,35.51,35.51,0,0,0,35.74-36.1C225.64,64.55,220,53.06,208.49,41,189.8,21.47,166.13,8.63,141.85,4.87a104.94,104.94,0,0,0-16-1.22A123.87,123.87,0,0,0,71.1,17c-22,10.93-39.59,26.92-50.94,46.23-11.49,19.58-16.87,43.1-15.54,68C6,157.76,15.2,183.24,30.44,203a117.87,117.87,0,0,0,89.69,45.36c.87,0,1.73,0,2.6,0a118.66,118.66,0,0,0,85.83-37.44,35.36,35.36,0,0,0,2.84-3.59,18.31,18.31,0,0,1,1.8-2.27l.38-.37a44.59,44.59,0,0,0,7.4-8.64A38,38,0,0,0,226.62,172.36Zm-12.44,19.49a39.67,39.67,0,0,1-6.56,7.49c-1.91,1.86-3.12,4.2-4.94,6.16a110.61,110.61,0,0,1-82.36,34.84,110.45,110.45,0,0,1-83.54-42.26C22,178.93,13.89,155,12.61,130.82c-1.18-22,3.29-44.54,14.45-63.53,11-18.72,28.16-33.46,47.6-43.12,20.3-10.1,43.56-14.87,66-11.4,23.7,3.67,45.51,16.45,62.07,33.8,7.86,8.22,14.94,18.32,15.11,29.7A27.65,27.65,0,0,1,179.14,102c-10.51-4.58-17.08-15-26.1-22.11-17.43-13.65-44.26-12.64-61.55,1.19s-24.29,38.67-18.21,60c6.91,24.18,31.62,43.07,56.59,40,12.3-1.49,23.77-7.88,32.31-16.87,2.92-3.07,5.57-6.48,8.56-9.45a31.47,31.47,0,0,1,5.76-4.65c6.93-4.24,15.9-4.62,23.46-1.66a30.35,30.35,0,0,1,18.7,24.69A30,30,0,0,1,214.18,191.85Z"/>
</svg>
