<svg id="Layer_1" data-name="Layer 1" xmlns="http://www.w3.org/2000/svg" viewBox="0 0 100 100"><defs><style>.cls-1{opacity:0.5;}.cls-2{fill:#fff200;stroke:#494949;stroke-miterlimit:10;}.cls-3{fill:#a6c914;}.cls-4{fill:#323232;}</style></defs><ellipse class="cls-1" cx="50.45" cy="51.81" rx="42.3" ry="40.94"/><ellipse class="cls-2" cx="49.55" cy="48.19" rx="42.3" ry="40.94"/><ellipse class="cls-3" cx="49.55" cy="48.19" rx="36.57" ry="35.39"/><path class="cls-4" d="M45.13,68.45c-3.34-1.06-6.78,1.07-10.23,1.77-3.22.66-6.9-.12-9-2.55s-2.12-6.58.47-8.55c1.73-1.31,4.09-1.45,6.14-2.21,3.67-1.34,6.2-4.53,9.15-7s7.31-4.36,10.72-2.49c4.15,2.28,3.91,8.19,6.64,12,1.49,2.08,3.88,3.49,5.15,5.7a7.42,7.42,0,0,1-1.82,9.22,8.5,8.5,0,0,1-9.78.34C49.83,72.82,48.26,69.45,45.13,68.45Z"/><path class="cls-4" d="M25.71,50.24a8.7,8.7,0,0,0,.88,3.93,2.12,2.12,0,0,0,2.7,1.13c1.64-.73,2.56-3.45,3.06-5.8.65-3.07.43-8.39-1.38-9.57-1.32-.86-2.82,1.8-3.9,3.73A13,13,0,0,0,25.71,50.24Z"/><path class="cls-4" d="M39.49,39.92a9.15,9.15,0,0,0,1.1,4.35,2.61,2.61,0,0,0,3.17,1.29c1.91-.79,3-3.77,3.49-6.34.71-3.37.27-8.65-1.87-10-1.57-1-3.19,1.35-4.41,3.46A13.3,13.3,0,0,0,39.49,39.92Z"/><path class="cls-4" d="M62.56,44.73a9.65,9.65,0,0,1-2.81,3.46,2.39,2.39,0,0,1-3.24-.13c-1.28-1.47-.86-4.57-.21-7.1.86-3.31,3.44-7.68,5.82-8,1.75-.23,2.19,2.31,2.31,4.7A13.93,13.93,0,0,1,62.56,44.73Z"/><path class="cls-4" d="M70.48,59.48A8.46,8.46,0,0,1,67.41,62a2.25,2.25,0,0,1-2.9-.65c-.92-1.5-.07-4.13.92-6.22,1.29-2.75,4.63-6.62,6.83-6.51,1.61.09,1.27,2.87,1,5A12.05,12.05,0,0,1,70.48,59.48Z"/><path class="cls-4" d="M34.42,31.14a18.68,18.68,0,0,0-4.8,6,11.31,11.31,0,0,0-1.17,4.93c0,1.85.53,2.85,1.66,2.22S31.89,42,32,40.39C32.34,35.86,33.06,33.59,34.42,31.14Z"/><path class="cls-4" d="M48.83,20.34a18.48,18.48,0,0,0-4.79,6,11.55,11.55,0,0,0-1.18,4.94c0,1.84.53,2.84,1.67,2.22s1.78-2.25,1.89-3.88C46.76,25.06,47.48,22.79,48.83,20.34Z"/><path class="cls-4" d="M63.91,24.18a18,18,0,0,1,1,7.51,11.44,11.44,0,0,1-1.61,4.81c-1,1.61-2,2.18-2.61,1.08s-.33-2.81.43-4.27C63.19,29.26,63.77,27,63.91,24.18Z"/><path class="cls-4" d="M73.74,39.85a18.15,18.15,0,0,1,1,7.51,11.72,11.72,0,0,1-1.61,4.82c-1,1.6-2,2.18-2.61,1.08s-.34-2.81.43-4.27C73,44.94,73.6,42.63,73.74,39.85Z"/></svg>