<svg id="Layer_1" data-name="Layer 1" xmlns="http://www.w3.org/2000/svg" viewBox="0 0 100 100"><defs><style>.cls-1{opacity:0.5;}.cls-2{fill:#fff200;stroke:#494949;stroke-miterlimit:10;}.cls-3{fill:#a6c914;}.cls-4{fill:#c7c7c7;}.cls-5{fill:#fff30b;}.cls-6{fill:#ffec39;}.cls-7{fill:#fff;}.cls-8{fill:#ff0;}</style></defs><ellipse class="cls-1" cx="50.45" cy="52.24" rx="42.3" ry="41.01"/><ellipse class="cls-2" cx="49.55" cy="48.76" rx="42.3" ry="41.01"/><ellipse class="cls-3" cx="49.55" cy="48.76" rx="36.57" ry="35.45"/><path class="cls-4" d="M50.17,21.36c-.05-.24-.52-.24-.58,0l-.76,3.84v2h2.08v-2Z"/><rect class="cls-4" x="48.85" y="44.34" width="2.08" height="30.69"/><rect class="cls-5" x="48.42" y="71.7" width="2.93" height="6.81"/><rect class="cls-6" x="48.85" y="71.7" width="2.08" height="6.81"/><ellipse class="cls-7" cx="51.16" cy="75.03" rx="0.13" ry="0.97"/><path class="cls-8" d="M35.32,53.42h0a12.82,12.82,0,0,1,14.55,0h0V25.18C41.85,25.18,35.32,37.83,35.32,53.42Z"/><path class="cls-8" d="M49.89,25.18V53.42h0a12.82,12.82,0,0,1,14.55,0h0C64.44,37.83,57.93,25.18,49.89,25.18Z"/><path class="cls-8" d="M49.89,25.18c8,0,14.55,12.65,14.55,28.24h0a12.83,12.83,0,0,1,14.56,0h0C79,37.83,66,25.18,49.89,25.18Z"/><path class="cls-8" d="M20.76,53.42h0a12.83,12.83,0,0,1,14.56,0h0c0-15.59,6.51-28.24,14.55-28.24C33.81,25.18,20.76,37.83,20.76,53.42Z"/></svg>