<svg id="Layer_1" data-name="Layer 1" xmlns="http://www.w3.org/2000/svg" viewBox="0 0 100 100"><defs><style>.cls-1{opacity:0.5;}.cls-2{fill:#fff200;stroke:#494949;stroke-miterlimit:10;}.cls-3{fill:#a6c914;}.cls-4{fill:#455556;}.cls-5{fill:#263536;}.cls-6{fill:#657576;}.cls-7{fill:#ededed;}.cls-8{fill:#e2e2e2;}.cls-9{fill:#b5c5c6;}.cls-10{fill:#7f5721;}</style></defs><ellipse class="cls-1" cx="50.45" cy="52.31" rx="42.3" ry="40.94"/><ellipse class="cls-2" cx="49.55" cy="48.69" rx="42.3" ry="40.94"/><ellipse class="cls-3" cx="49.55" cy="48.69" rx="36.57" ry="35.39"/><path class="cls-4" d="M48.42,36.83h0L46,36.56a.29.29,0,0,1-.24-.23l-.52-2.77a.25.25,0,0,1,0-.15L46,31.63a.29.29,0,0,1,.26-.17h.75a.28.28,0,1,1,0,.55h-.56l-.65,1.53.47,2.5,2.14.25a.29.29,0,0,1,.25.3A.28.28,0,0,1,48.42,36.83Z"/><path class="cls-5" d="M50.12,65.48a.47.47,0,0,0-.28,0c-.31.14-.65.57-.58,2.62a.27.27,0,0,0,.28.26h0a.27.27,0,0,0,.27-.28c-.06-1.84.24-2.09.25-2.1l0,0Z"/><path class="cls-5" d="M50.12,32.77h-.2a1.38,1.38,0,1,0,0,2.76h.2Z"/><path class="cls-4" d="M51.82,36.83h0l2.35-.27a.29.29,0,0,0,.25-.23L55,33.56a.36.36,0,0,0,0-.15l-.75-1.78a.3.3,0,0,0-.26-.17h-.76a.28.28,0,1,0,0,.55h.57l.65,1.53L53.93,36l-2.14.25a.27.27,0,0,0-.25.3A.28.28,0,0,0,51.82,36.83Z"/><path class="cls-5" d="M50.12,65.48a.47.47,0,0,1,.28,0c.31.14.65.57.58,2.62a.28.28,0,0,1-.29.26h0a.28.28,0,0,1-.27-.28c.07-1.84-.23-2.09-.24-2.1l-.05,0Z"/><path class="cls-4" d="M50.12,41.31a1.23,1.23,0,0,0-1.23,1.22v1.84a1.23,1.23,0,0,0,2.46,0V42.53A1.24,1.24,0,0,0,50.12,41.31Z"/><path class="cls-4" d="M50.12,44.7a.69.69,0,0,0-.67.68V65.74a.67.67,0,1,0,1.34,0V45.38A.69.69,0,0,0,50.12,44.7Z"/><path class="cls-6" d="M50.12,35.37a2.25,2.25,0,0,0-2.26,2.21V41.2a2.26,2.26,0,0,0,4.51,0V37.58A2.25,2.25,0,0,0,50.12,35.37Z"/><path class="cls-7" d="M80.94,38.86C80.43,37,74,36,66.27,36.54c-8,.59-15.66.27-15.5,2.23s8.1,5.44,16.06,4.86c7.73-.57,13.92-2.53,14.14-4.44Z"/><path class="cls-8" d="M78,51.12c.18-1.78-5.26-4.77-12.42-6.8-7.38-2.08-14.21-4.87-14.74-3.11s-1.39,7.54,6.15,9C65,51.72,77,53,77.88,51.43Z"/><path class="cls-5" d="M50.12,32.77h.2a1.38,1.38,0,1,1,0,2.76h-.2Z"/><path class="cls-9" d="M50.12,31.7c-.76,0-1.38.49-1.38,1.07s.62,1,1.38,1.07a1.27,1.27,0,0,0,1.37-1.07A1.27,1.27,0,0,0,50.12,31.7Z"/><path class="cls-10" d="M50.49,35.44a1.27,1.27,0,0,0,1.76,0l.9-.87a1.18,1.18,0,0,0,0-1.71h0a1.27,1.27,0,0,0-1.76,0l-.9.87a1.18,1.18,0,0,0,0,1.71Z"/><path class="cls-7" d="M19.3,38.86C19.8,37,26.23,36,34,36.54c8,.59,15.66.27,15.51,2.23s-8.1,5.44-16.07,4.86c-7.73-.57-13.92-2.53-14.13-4.44Z"/><path class="cls-8" d="M22.27,51.12c-.18-1.78,5.26-4.77,12.42-6.8,7.38-2.08,14.2-4.87,14.73-3.11s1.4,7.54-6.14,9C35.23,51.72,23.2,53,22.36,51.43Z"/><path class="cls-10" d="M49.75,35.44a1.29,1.29,0,0,1-1.77,0l-.9-.87a1.2,1.2,0,0,1,0-1.71h0a1.29,1.29,0,0,1,1.77,0l.9.87a1.18,1.18,0,0,1,0,1.71Z"/></svg>