<svg id="Layer_1" data-name="Layer 1" xmlns="http://www.w3.org/2000/svg" viewBox="0 0 100 100"><defs><style>.cls-1{opacity:0.5;}.cls-2{fill:#fff200;stroke:#494949;}.cls-2,.cls-7{stroke-miterlimit:10;}.cls-3{fill:#a6c914;}.cls-4{fill:#ed3237;}.cls-5{fill:#f1a2a9;}.cls-6{fill:#a1262f;}.cls-7{fill:#811c28;stroke:#1e1e1e;stroke-width:0.75px;}.cls-8{fill:#232323;opacity:0.21;}</style></defs><ellipse class="cls-1" cx="50.45" cy="52.31" rx="42.3" ry="40.94"/><ellipse class="cls-2" cx="49.55" cy="48.69" rx="42.3" ry="40.94"/><ellipse class="cls-3" cx="49.55" cy="48.69" rx="36.57" ry="35.39"/><path class="cls-4" d="M34.7,49.5c4.93-3.56,17.4-10.21,31.13.73A8,8,0,0,1,68.48,54C69.8,57.92,70,65.76,56.79,74.41l-.77.17a27.29,27.29,0,0,1-12,0l-.68-.15s-15.4-7.49-13-18.28A11.18,11.18,0,0,1,34.7,49.5Z"/><path class="cls-5" d="M64.22,49.15c.9.75-7,2.8-14,2.8S34,50.15,35,49.44A24.78,24.78,0,0,1,50,44.5,23.29,23.29,0,0,1,64.22,49.15Z"/><path class="cls-4" d="M63,48.35c.92.52-5.93,2.08-13.08,2.08s-14.19-1.6-13.28-2.13a23.92,23.92,0,0,1,13.58-3.8A22,22,0,0,1,63,48.35Z"/><path class="cls-4" d="M39.72,24.21a32.45,32.45,0,0,0,18.37,0s-7,7.3-1.88,21.1c0,0-6.23,4.93-12.91.12C43.3,45.43,45.66,33,39.72,24.21Z"/><path class="cls-6" d="M39.53,23.44c1.4-.66,4.52-1.32,9.22-1.3,2.76,0,6.32-.15,9.68,1.15a.37.37,0,0,1,0,.7,30.38,30.38,0,0,1-18.85.14A.37.37,0,0,1,39.53,23.44Z"/><path class="cls-7" d="M44.31,23.62a17.53,17.53,0,0,1,9.4,0c.37.09.36.48,0,.57a21.71,21.71,0,0,1-9.34,0C44,24.09,44,23.72,44.31,23.62Z"/><path class="cls-5" d="M42.35,29.73s3.8,2.79,12.76-.05l-.54,2.71s-6.11,2.75-11.46.28Z"/><path class="cls-8" d="M39.87,23.87A16.57,16.57,0,0,0,45,25s-5.31-1.94,2.44-2.41C47.42,22.58,41.72,22,39.87,23.87Z"/><path class="cls-8" d="M40.5,24.7,45,26a53.18,53.18,0,0,1,.76,22.24s-10.56.2-11.19,9.94A13.94,13.94,0,0,0,38.85,69.1l6,5.77-1.58-.33s-16-7.65-12.37-20.19a20.34,20.34,0,0,1,13.17-8.87S45.88,33.16,40.5,24.7Z"/></svg>