<svg id="Layer_1" data-name="Layer 1" xmlns="http://www.w3.org/2000/svg" xmlns:xlink="http://www.w3.org/1999/xlink" viewBox="0 0 100 100"><defs><style>.cls-1,.cls-2{fill:none;}.cls-2{clip-path:url(#clip-path);}.cls-3{opacity:0.5;}.cls-4{fill:#fff200;stroke:#494949;stroke-miterlimit:10;}.cls-5{fill:#a6c914;}.cls-6{fill:#39aa35;}.cls-7{fill:#008f3c;}.cls-8{clip-path:url(#clip-path-4);}.cls-9{fill:url(#radial-gradient);}.cls-10{fill:url(#radial-gradient-2);}.cls-11{fill:url(#radial-gradient-3);}.cls-12{fill:#ff8b00;}.cls-13{fill:#b95133;}.cls-14{fill:#8c4600;opacity:0.3;}</style><clipPath id="clip-path"><polygon class="cls-1" points="71.56 21.27 71.5 21.27 71.56 21.32 71.56 21.27"/></clipPath><clipPath id="clip-path-4"><polygon class="cls-2" points="71.67 21.16 71.72 21.16 71.67 21.11 71.67 21.16"/></clipPath><radialGradient id="radial-gradient" cx="-1077.87" cy="32.45" r="6.91" gradientTransform="matrix(-0.76, 0.46, -0.48, -0.74, -765.05, 549.53)" gradientUnits="userSpaceOnUse"><stop offset="0" stop-color="#fff"/><stop offset="0.16" stop-color="#fcfcfc"/><stop offset="0.29" stop-color="#f2f2f2"/><stop offset="0.41" stop-color="#e1e1e1"/><stop offset="0.52" stop-color="#c9c9c9"/><stop offset="0.63" stop-color="#aaa"/><stop offset="0.73" stop-color="#858585"/><stop offset="0.83" stop-color="#585858"/><stop offset="0.93" stop-color="#252525"/><stop offset="0.99"/></radialGradient><radialGradient id="radial-gradient-2" cx="-1074.25" cy="34.69" r="5.06" xlink:href="#radial-gradient"/><radialGradient id="radial-gradient-3" cx="-1073.27" cy="35.87" r="6.32" xlink:href="#radial-gradient"/></defs><g id="Carrot_Icon" data-name="Carrot Icon"><ellipse class="cls-3" cx="50.45" cy="52.3" rx="42.3" ry="40.95"/><ellipse class="cls-4" cx="49.55" cy="48.7" rx="42.3" ry="40.95"/><ellipse class="cls-5" cx="49.55" cy="48.7" rx="36.57" ry="35.4"/><path class="cls-6" d="M38.16,37.59l-.47-.7c-1.06-1.49-2.13-3-3.28-4.4s-2.23-2.71-3.38-4a24.76,24.76,0,0,0-2.47-2.55A6.92,6.92,0,0,1,29.69,25c1.1.53,2.64,2.3,4.13,4.3l-.33-.55c-.83-1.41-1.6-2.86-2.29-4.32a11.31,11.31,0,0,1-.94-2.34,10.26,10.26,0,0,1,1.22-.28c.2.36.3.77.48,1.14.37.73.7,1.47,1.06,2.21.65,1.32,1.34,2.63,2,3.94l-.55-1.29c-.32-.78-1.44-3.54-1.27-4.8a7.35,7.35,0,0,1,.82-.11,4.68,4.68,0,0,1,.75,0,4.64,4.64,0,0,1,.48,1.46,30,30,0,0,0,1.44,4.49c.54,1.34,1.12,2.74,1.76,4,.31.63.65,1.25,1,1.88a7.55,7.55,0,0,0,.84,1.74c.09.1-.06.11-.12.06a9.81,9.81,0,0,1-.79-.79c0,.16-.18.2-.36.18a.08.08,0,0,0,0,0c.13.33,0,.46-.26.46a.44.44,0,0,1-.05.33c.11.14.22.29.33.41.55.59-.3.77-.68.5A1,1,0,0,1,38.16,37.59Z"/><path class="cls-7" d="M37,35.84c-.83-1.14-1.67-2.28-2.55-3.39-1.08-1.37-2.23-2.7-3.38-4a23,23,0,0,0-2.43-2.51l.12-.11c.69.62,1.43,1.09,2.1,1.73a29.47,29.47,0,0,1,2.44,2.69,38,38,0,0,1,3.82,5.55C37.16,35.85,37.06,35.86,37,35.84Z"/><path class="cls-7" d="M30.33,22.17l.19-.06c1.22,2.12,2.21,4.29,3.38,6.43.81,1.48,1.67,2.92,2.55,4.36.76,1.25,1.7,2.45,2.35,3.75.08.16-.21.15-.27.07-2-2.32-3.77-5.78-5.29-8.44A34.67,34.67,0,0,1,30.33,22.17Z"/><path class="cls-7" d="M35.14,29.36c-.73-1.9-2-4.94-1.86-6.26l.13,0c1.58,4.49,3.86,8.65,5.84,13,.06.14-.18.14-.24.06A54.91,54.91,0,0,1,35.14,29.36Z"/><g class="cls-8"><path class="cls-9" d="M34.89,25.88a6.56,6.56,0,0,1-.64-2.67,1.72,1.72,0,0,1,.39,0c.75,2.08,1.34,4.22,2.15,6.29,0,.07-.09.06-.11,0A40.25,40.25,0,0,1,34.89,25.88Z"/></g><g class="cls-8"><path class="cls-10" d="M35.29,30.52c-.09-.13-.17-.27-.26-.39-.2-.39-.39-.78-.61-1.16-.45-.79-.93-1.55-1.38-2.34s-.83-1.53-1.24-2.3S31.25,23,31,22.38a4.34,4.34,0,0,1,.52-.09A8.18,8.18,0,0,0,32,23.35a1.16,1.16,0,0,0,.06.15c.43.92.86,1.84,1.32,2.75.77,1.52,1.55,3,2.29,4.57,0,0-.06.05-.1,0A2.44,2.44,0,0,0,35.29,30.52Z"/></g><g class="cls-8"><path class="cls-11" d="M29.77,25.43a22.51,22.51,0,0,1,2.14,2c.29.55.59,1.09.84,1.66-.3-.34-.62-.68-.95-1s-.51-.51-.78-.75a15.33,15.33,0,0,0-1.6-1.42s-.05-.05-.06-.09A1.69,1.69,0,0,1,29.77,25.43Z"/></g><path class="cls-12" d="M35.17,43.12c-1-1.84-2.44-4.2-2.1-6.39s2.19-3.57,4-4.66a6.16,6.16,0,0,1,5.62-.55c3.23,1.37,5.28,4.82,7.07,7.59C52,42.57,54,46.21,55.93,49.84c1.39,2.55,12.8,25.41,9.21,26.07-.85.16-2-.75-2.6-1.16-3.67-2.29-22.83-23.14-27.36-31.6A0,0,0,0,0,35.17,43.12Z"/><path class="cls-13" d="M39.17,40a14.44,14.44,0,0,1,4.45-2.62c1-.42,2.55-1.08,3.69-.73,0,0,0,0,0,.06-2.9.24-5.52,2-7.88,3.5C39.3,40.31,39,40.17,39.17,40Z"/><path class="cls-13" d="M37.68,45.34a14.32,14.32,0,0,1,4.59-3.16s.12,0,.07.07a24.7,24.7,0,0,0-2.28,1.48c-.75.56-1.34,1.27-2.14,1.76C37.84,45.55,37.57,45.45,37.68,45.34Z"/><path class="cls-13" d="M39.35,46.24a5.32,5.32,0,0,1,.89-.67,4.44,4.44,0,0,0,1-.63s.1,0,.07,0a2.53,2.53,0,0,1-.68.54c-.4.25-.74.58-1.13.85C39.48,46.41,39.26,46.33,39.35,46.24Z"/><path class="cls-13" d="M45.26,47A17.22,17.22,0,0,1,51,44.4c.06,0,.16.06.08.09-1.92.84-3.77,1.79-5.65,2.72C45.35,47.25,45.14,47.12,45.26,47Z"/><path class="cls-13" d="M49.84,46.55a14.52,14.52,0,0,1,2-.69s.07,0,0,0a5.39,5.39,0,0,1-1.89.85C49.94,46.77,49.68,46.64,49.84,46.55Z"/><path class="cls-13" d="M47.61,58.12A9.93,9.93,0,0,1,48.76,57c.42-.36.93-.61,1.33-1,0,0,.11,0,.09.05a8.47,8.47,0,0,1-1.11,1.13,9.19,9.19,0,0,1-1.18,1.07C47.78,58.36,47.5,58.25,47.61,58.12Z"/><path class="cls-13" d="M56.7,58.55A2.41,2.41,0,0,1,57.88,58H58c.05,0,.12,0,.06.1s-.36.18-.53.29-.37.21-.56.31S56.54,58.66,56.7,58.55Z"/><path class="cls-13" d="M57.34,62.22c.33-.25,2.76-1.53,2.9-1.16v0h0c.08-.08.25,0,.16.1a17.82,17.82,0,0,1-2.89,1.27C57.43,62.43,57.2,62.32,57.34,62.22Z"/><path class="cls-13" d="M56.45,67.9c.32-.5,1-.58,1.43-.94,0,0,.08,0,.06,0a1.91,1.91,0,0,1-.51.55,2.26,2.26,0,0,1-.77.53C56.58,68.09,56.37,68,56.45,67.9Z"/><path class="cls-13" d="M57.79,69.23a2.92,2.92,0,0,1,.93-.85c.26-.21.84-.66,1.07-.62,0,0,0,0,0,0l.06,0s.14,0,.1.07a5.56,5.56,0,0,1-.84.84,2.71,2.71,0,0,1-1.06.78C58,69.4,57.72,69.36,57.79,69.23Z"/><path class="cls-14" d="M65.14,75.91c-.85.16-2-.76-2.6-1.16C58.87,72.46,39.71,51.6,35.18,43.14v0c-1-1.84-2.44-4.2-2.1-6.39a5,5,0,0,1,2.38-3.53S35.87,46.6,65.14,75.91Z"/></g></svg>