<svg id="Layer_1" data-name="Layer 1" xmlns="http://www.w3.org/2000/svg" viewBox="0 0 100 100"><defs><style>.cls-1{opacity:0.5;}.cls-2{fill:#fff200;stroke:#494949;stroke-miterlimit:10;}.cls-3{fill:#a6c914;}.cls-4{fill:#89532f;}.cls-5{fill:#472604;}.cls-6{fill:#ffa4c9;}.cls-7{fill:#fd73a7;}.cls-8{fill:#f4629d;}.cls-9{fill:#ea5498;}.cls-10{fill:#e54a98;}.cls-11{fill:#72401e;}.cls-12{fill:#592e08;}.cls-13{fill:#fcdfc3;}.cls-14{fill:#f4ceae;}.cls-15{fill:#eac198;}.cls-16{fill:#fff;}.cls-17{fill:#b7399f;opacity:0.3;}</style></defs><g id="Cake_Icon" data-name="Cake Icon"><ellipse class="cls-1" cx="50.46" cy="52.32" rx="42.29" ry="40.93"/><ellipse class="cls-2" cx="49.54" cy="48.68" rx="42.29" ry="40.93"/><ellipse class="cls-3" cx="49.54" cy="48.68" rx="36.57" ry="35.39"/><path class="cls-4" d="M32.78,56.06s-5.18-2.29-3.25-7.44c1.82-4.88,12.92-4,12.92-4s.11-3.54,4.93-3.73,11.51,4.35,11.51,4.35,8.32.32,10.88,3.45,1.11,7-2.36,8.23c-.65.24-1.15,4.08-2.34,4.32-7.09,1.4-22.48,2.88-29.71-.53C34.42,60.27,33.39,56.55,32.78,56.06Z"/><path class="cls-5" d="M30,53.69a6.81,6.81,0,0,0,7.36,1.82,19.24,19.24,0,0,0,19.47.83s7.54,3.28,13-1.1a7.52,7.52,0,0,1-3.08,2.11c-1.12.27-.2,6.43-7.08,9.16S33.28,56.12,33.67,58c1,4.83-1.07-2-.85-1.86A7.13,7.13,0,0,1,30,53.69Z"/><path class="cls-6" d="M32.79,55.93s2.12,15.83,2.83,17c3.44,5.74,23.35,6.13,27.75.78,1.73-2.11,4.11-16.82,4.11-16.82L65,59,61.9,57.73l-3,1.79L55.5,58.18l-2.91,1.44L49.2,58.27l-2.91,1.26L43.1,58.1l-3.18,1.08-2.91-2-2,.85Z"/><path class="cls-7" d="M35.13,58.42s1.35,13.74,1.49,15a5.31,5.31,0,0,0,1.54,1.21L36.91,57.57Z"/><path class="cls-7" d="M39.91,59.53s.74,15.61.62,16.24a12,12,0,0,0,2.58.61l-.3-17.93Z"/><path class="cls-8" d="M46.56,59.81l-.14,17.11a13.25,13.25,0,0,0,2.41.15l.36-18.44Z"/><path class="cls-9" d="M52.67,60s-.59,16.65-.6,16.91,1.66.23,2.32-.11l1-18.25-2.63,1.36"/><path class="cls-10" d="M59,59.89l-1.6,16.44a6.44,6.44,0,0,0,2.44-.83l2.09-17.41Z"/><path class="cls-7" d="M65.18,59.34,62.33,74.22a4.21,4.21,0,0,0,1.25-1.48c.49-1,3.4-14.87,3.4-14.87Z"/><path class="cls-4" d="M36.54,55s2.67,4.46,10,4.81a13.35,13.35,0,0,0,11.14-5S37.22,52.28,36.54,55Z"/><path class="cls-11" d="M63.07,57.4S58.7,56.72,56,54.53a1.66,1.66,0,0,0-2.47.38c-1.18,2-3.75,4.5-9.08,4.35,0,0,7.84,1.57,12-2.21C56.42,57.05,61.46,58.55,63.07,57.4Z"/><path class="cls-11" d="M42,58.34S39.4,56.66,39,55c-.24-.86-2.32-1.52-3.13-1.11-1.28.67-2.54,1.78-4.76.89a8.65,8.65,0,0,0,6,1.26S39.92,58.12,42,58.34Z"/><path class="cls-12" d="M37.38,55.51s4,4.16,9.7,3.92a20.15,20.15,0,0,0,9.77-3.09s5.65,2.14,10.63.56a15.69,15.69,0,0,1-10.5,0,16.7,16.7,0,0,1-10.83,3.5c-5.29-.15-9.09-4.35-9.09-4.35s-3,.5-4.82-.72C32.24,55.36,35.38,56.47,37.38,55.51Z"/><path class="cls-11" d="M64.22,57.26s5,.14,5.91-4.16-5.65-7.44-5.65-7.44l-6.7,7.1s6.39-2.62,8.13.48S64.22,57.26,64.22,57.26Z"/><path class="cls-13" d="M56.87,19.55a11.07,11.07,0,0,0-7.31,0c-3.92,1.4-9,4.49-10.46,11.57a9.11,9.11,0,0,0-8.31,4.94c-2.75,5.31-1.39,10.52,2.83,13s12.2,2.06,14.58,1.48a18.53,18.53,0,0,0,6.39,2.34c3,.3,5.8.16,6.25-.69s.73-2.78,2.68-3.16c0,0,2.74,1.8,3.62,1.18s.75-3.43,1.2-4.28,3.06-1.64,2.26-3.6-4-3.56-4-3.56,2.18-3.24,1.24-5.36c-3.23-7.2-14.23-6.21-14.79-9.24A3.8,3.8,0,0,1,56.87,19.55Z"/><path class="cls-14" d="M53.42,19.67S50.36,21.52,50.31,23s2.62,5.89,7.91,8.84a30.49,30.49,0,0,1,8.4,6.92S60.27,35.38,54,35.42c0,0-1.24-2-6.32-4.49C45,29.57,44.75,22.23,53.42,19.67Z"/><path class="cls-14" d="M53.4,20.53S51.2,22,51.58,23.71A11.44,11.44,0,0,0,57,29.9c2.55,1.15,8.45,5.19,9.86,8.25,0,0,1.27-3,.14-4.52C64.09,29.67,48.67,27.51,53.4,20.53Z"/><path class="cls-14" d="M50.39,35.1s-1.68-1.55-6.15-3.19c-4-1.46-2.17-6.74,2.26-10.71,0,0-12.51,8.28-3.27,15.86a44,44,0,0,0,16.18,5.62,47.52,47.52,0,0,1,8.53,2.18,46,46,0,0,0-9.42-3.13C53.65,40.8,48,39.18,45,36.46A15,15,0,0,1,50.39,35.1Z"/><path class="cls-14" d="M39.48,32.86a5.21,5.21,0,0,0,2.63,5.68C48.66,42.6,65.35,45.44,67,48.71c0,0-6.42-1-15-2.14S30.06,38.63,39.48,32.86Z"/><path class="cls-14" d="M32,37.4A8.1,8.1,0,0,0,37,45.08c5.31,2.3,9.55,4.36,10.38,5.24C47.35,50.32,26,51.67,32,37.4Z"/><path class="cls-15" d="M51.25,20.47S47.08,23.16,46.84,24s-1.38,4-.39,5.81c.62,1.1,5.28,3.38,7.58,5.6a57.15,57.15,0,0,0-6.29-5.56C45.8,28.36,46.88,22.93,51.25,20.47Z"/><path class="cls-15" d="M68.52,39.92S60,36.24,57.25,35.73s-8.13-1.52-12.73,1.37c0,0-5.09-2.52-4.53-7,0,0,.11,3.89,7.18,4.73C47.17,34.8,61.38,34.12,68.52,39.92Z"/><path class="cls-15" d="M53.4,20.53s-1.75,1-1.79,2.32a7.31,7.31,0,0,0,2.84,5.68c2.31,1.8,8.25,4.76,10.33,7A67,67,0,0,0,56,28.79C53.19,27,50.49,24.11,53.4,20.53Z"/><path class="cls-15" d="M40.55,33.11s1.5,7.37,19.51,9.38C60.06,42.49,47.19,41.48,40.55,33.11Z"/><path class="cls-15" d="M39.48,32.86a5.16,5.16,0,0,0,1.16,4.35c4.81,4.87,18.75,6.12,24.65,10.16a71.19,71.19,0,0,0-10-3.08C49.71,42.91,33.62,42.18,39.48,32.86Z"/><path class="cls-15" d="M32.12,34.38s-1.24,5.79,2.11,8.9,11,4.83,14,7.28c0,0-4.67-1.85-9.14-3.49S28.82,44.2,32.12,34.38Z"/><path class="cls-16" d="M49.56,19.56s-5.25,2.88-6.43,6.51-1,5.36,3.88,6.78c0,0-4.67-2.06-3.49-5.7A13.46,13.46,0,0,1,49.56,19.56Z"/><path class="cls-16" d="M53.61,28.08a33,33,0,0,0,4.61,3.79c1.91,1.13,4.45,2.5,4.45,2.5S56.35,29.67,53.61,28.08Z"/><path class="cls-16" d="M46.48,36.29s3.72-2.48,11.61.11C58.09,36.4,54.9,35,46.48,36.29Z"/><path class="cls-16" d="M39.88,34s-.77,4.29,8.41,6.48C48.29,40.43,42.1,38.75,39.88,34Z"/><path class="cls-16" d="M35.61,32.75S33.43,34,33.17,35.27s-2.09,5.33,3,8.28a67.51,67.51,0,0,0,9.55,4.57s-11.26-4.62-12-7.88A8.68,8.68,0,0,1,35.61,32.75Z"/><path class="cls-17" d="M33.05,56.48S34.9,68.6,35.69,72.61a5.52,5.52,0,0,0,2.82,2.63c2,.94,8.88,2.68,11.78,2,0,0-8-3.31-11.63-8.61A50.09,50.09,0,0,1,33.05,56.48Z"/></g></svg>