<svg id="Layer_1" data-name="Layer 1" xmlns="http://www.w3.org/2000/svg" viewBox="0 0 100 100"><defs><style>.cls-1{opacity:0.5;}.cls-2{fill:#fff200;stroke:#494949;stroke-miterlimit:10;}.cls-3{fill:#a6c914;}.cls-4{fill:#323232;}</style></defs><ellipse class="cls-1" cx="50.45" cy="51.81" rx="42.3" ry="40.94"/><ellipse class="cls-2" cx="49.55" cy="48.19" rx="42.3" ry="40.94"/><ellipse class="cls-3" cx="49.55" cy="48.19" rx="36.57" ry="35.39"/><path class="cls-4" d="M54.43,56a2.83,2.83,0,0,1-2.17-2.9,28.68,28.68,0,0,1,5.16-15.24,14.8,14.8,0,0,0,2.15-3.71A1,1,0,0,0,58,33a24.7,24.7,0,0,0-2,1.52.56.56,0,0,1-.93-.53l1-4.45a.88.88,0,0,0-1.19-1A4.88,4.88,0,0,0,52.6,31.3a5.51,5.51,0,0,1-2.24,3.05.67.67,0,0,1-.91-.84l1.89-4.92a.88.88,0,0,0-1.29-1c-1.58,1-2.59,3.05-3.27,4.88a9.89,9.89,0,0,1-2.94,4.49.85.85,0,0,1-1.27-1.06,13,13,0,0,0,1.37-6.61.5.5,0,0,0-.88-.29c-7.76,9.07-9,21.84-9.74,33.68A23.32,23.32,0,0,0,33.59,70a10.43,10.43,0,0,0,5.93,7.17,8.35,8.35,0,0,0,9.06-1.69c1.56-1.66,2.16-3.92,3-6a26.61,26.61,0,0,1,6.28-9.26c1.91-1.82,2.18-3,3.86-5,1.21-1.48,4.06-3.74,4.2-5.58a1.25,1.25,0,0,0-2-1,28.66,28.66,0,0,0-6.29,5.53C56.85,55.1,55.88,56.25,54.43,56Z"/><path class="cls-4" d="M46.92,22.49a1.3,1.3,0,0,0-.09-.95.6.6,0,0,0-.86-.19c-.92.92-2.23,2.37-1.52,3.45a.83.83,0,0,0,1.09.44C46.58,25,46.74,23.51,46.92,22.49Z"/><path class="cls-4" d="M51.65,21.4c-.44,1.07.37,2.24,1.35,1.91a2.87,2.87,0,0,0,1.23-.82,5.16,5.16,0,0,0,1-2.11,1.33,1.33,0,0,0-1-1.78h0a1.13,1.13,0,0,0-.62.21A6.15,6.15,0,0,0,51.65,21.4Z"/><path class="cls-4" d="M60.58,27.84c-.44,1.07.37,2.23,1.35,1.91a2.78,2.78,0,0,0,1.22-.83,5.18,5.18,0,0,0,1-2.1,1.33,1.33,0,0,0-1-1.79h0a1,1,0,0,0-.62.22A6,6,0,0,0,60.58,27.84Z"/><path class="cls-4" d="M57.49,21.4c-.43,1.07.38,2.24,1.36,1.91a2.9,2.9,0,0,0,1.22-.82,5.16,5.16,0,0,0,1-2.11,1.33,1.33,0,0,0-1-1.78h0a1.13,1.13,0,0,0-.63.21A6.23,6.23,0,0,0,57.49,21.4Z"/></svg>