<svg id="Layer_1" data-name="Layer 1" xmlns="http://www.w3.org/2000/svg" viewBox="0 0 100 100"><defs><style>.cls-1{opacity:0.5;}.cls-2{fill:#fff200;stroke:#494949;stroke-miterlimit:10;}.cls-3{fill:#a6c914;}.cls-4{fill:#5311bc;}.cls-5{fill:#661dce;}.cls-6{fill:#7e25e5;}.cls-7{fill:#fef7d9;}.cls-8{fill:#805607;}.cls-9{fill:#996709;}.cls-10{fill:#f1e9c4;}</style></defs><ellipse class="cls-1" cx="50.45" cy="51.34" rx="42.3" ry="41.41"/><ellipse class="cls-2" cx="49.55" cy="48.66" rx="42.3" ry="41.41"/><ellipse class="cls-3" cx="49.55" cy="48.66" rx="36.57" ry="35.81"/><g id="Cup"><g id="Mug"><path class="cls-4" d="M62,56.71a7.91,7.91,0,0,0,1,.9,8.41,8.41,0,0,0,1.16.74,7.78,7.78,0,0,0,1.24.52,6,6,0,0,0,1.22.24,5.28,5.28,0,0,0,1.25,0,6.09,6.09,0,0,0,2.42-.92,7.66,7.66,0,0,0,1.08-.84,12.13,12.13,0,0,0,1-1.06A12.9,12.9,0,0,0,73.13,55a12,12,0,0,0,.64-1.35,14.75,14.75,0,0,0,.83-3,17.25,17.25,0,0,0,0-6.3,14.75,14.75,0,0,0-.83-3,12,12,0,0,0-.64-1.35,12.9,12.9,0,0,0-.79-1.23,12.13,12.13,0,0,0-1-1.06A7.66,7.66,0,0,0,70.31,37,6.09,6.09,0,0,0,67.89,36a5.28,5.28,0,0,0-1.25,0,6,6,0,0,0-1.22.24,7.78,7.78,0,0,0-1.24.52,8.41,8.41,0,0,0-1.16.74,7.91,7.91,0,0,0-1,.9,4.34,4.34,0,0,0-.71,1L57,36.21a11.23,11.23,0,0,1,1.66-1.54,14.41,14.41,0,0,1,1.75-1.17,14.11,14.11,0,0,1,1.88-.9,11.87,11.87,0,0,1,2-.63,10,10,0,0,1,2.21-.25,10.86,10.86,0,0,1,2.22.25,10.34,10.34,0,0,1,2.07.72,11.53,11.53,0,0,1,1.83,1.1,12.9,12.9,0,0,1,1.55,1.39,13.34,13.34,0,0,1,1.24,1.59,13.82,13.82,0,0,1,1,1.7,15.87,15.87,0,0,1,.73,1.78,22.25,22.25,0,0,1,1.07,7.3,22.25,22.25,0,0,1-1.07,7.3,15.87,15.87,0,0,1-.73,1.78,13.82,13.82,0,0,1-1,1.7,13.34,13.34,0,0,1-1.24,1.59,12.9,12.9,0,0,1-1.55,1.39,11.53,11.53,0,0,1-1.83,1.1,10.34,10.34,0,0,1-2.07.72,10.86,10.86,0,0,1-2.22.25,10,10,0,0,1-2.21-.25,11.87,11.87,0,0,1-2-.63,14.11,14.11,0,0,1-1.88-.9,14.41,14.41,0,0,1-1.75-1.17A11.23,11.23,0,0,1,57,58.89l4.34-3.13A4.34,4.34,0,0,0,62,56.71Z"/><path class="cls-5" d="M61.58,29V65.51c0,3.3-7.83,6-17.48,6s-17.31-2.61-17.49-5.86A43,43,0,0,0,37.3,66.86c9.65,0,17.48-2.67,17.48-6V29Z"/><path class="cls-6" d="M55,29l0,35.29c0,3.3-7.69,4.31-16,4.31s-12.36-3-12.36-3V29Z"/><ellipse class="cls-7" cx="44.1" cy="29" rx="17.49" ry="3.52"/><path class="cls-8" d="M28.89,30c.48.26,2.25,1.12,7.06,1.61,0-1.7,4.66-3.11,10.71-3.35-.84,0-1.69,0-2.56,0C37.58,28.2,31.9,28.92,28.89,30Z"/><path class="cls-9" d="M33.45,31.36c2.09.21,7.26.59,10.65.59,11.17,0,14.52-1.59,15.2-2-2.61-.92-7.22-1.58-12.64-1.74C40.61,28.48,33.47,29.66,33.45,31.36Z"/><path class="cls-10" d="M26.61,29c0,.48.48.94,1.35,1.36,2.64,1.27,8.87,2.16,16.14,2.16s13.49-.89,16.13-2.16c.87-.42,1.35-.88,1.35-1.36,0-1.95-7.83-3.52-17.48-3.52S26.61,27.05,26.61,29Zm1.23,0c0-2.14,11.63-2.95,16.26-2.95s16.25.81,16.25,2.95c0,1.95-11.63,2.81-16.25,2.81S27.84,31,27.84,29Z"/></g></g></svg>