<svg xmlns="http://www.w3.org/2000/svg" viewBox="0 0 100 100"><defs><style>.cls-1{isolation:isolate;}.cls-11,.cls-2{opacity:0.5;}.cls-3{fill:#fff200;stroke:#494949;stroke-miterlimit:10;}.cls-4{fill:#a6c914;}.cls-12,.cls-15,.cls-5{fill:#a2def9;}.cls-11,.cls-15,.cls-19,.cls-20,.cls-5,.cls-7,.cls-8{mix-blend-mode:multiply;}.cls-6{fill:#d8f0f6;}.cls-7{opacity:0.4;}.cls-11,.cls-8{fill:#b5dff2;}.cls-9{fill:#bfe7fb;}.cls-10{fill:#caebf5;}.cls-12,.cls-16,.cls-17{mix-blend-mode:screen;}.cls-13,.cls-19{fill:#93c4d6;}.cls-14{mix-blend-mode:color-dodge;}.cls-15{opacity:0.6;}.cls-16,.cls-18{fill:#5bcbf5;}</style></defs><g class="cls-1"><g id="Layer_1" data-name="Layer 1"><ellipse class="cls-2" cx="50.45" cy="52.31" rx="42.3" ry="40.94"/><ellipse class="cls-3" cx="49.55" cy="48.69" rx="42.3" ry="40.94"/><ellipse class="cls-4" cx="49.55" cy="48.69" rx="36.57" ry="35.39"/><path class="cls-5" d="M79.34,57.53l-.23-5.86c-2-22.85-26.38-22.79-26.38-22.79-27.1.09-29,19.6-28.43,28.68.07,1.11.18,2.06.28,2.8,6.4.52,16.3.86,27.4.86s21.07-.34,27.47-.87Z"/><path class="cls-6" d="M79.34,57.53l-.23-5.86c-2-22.85-26.38-22.79-26.38-22.79-27.1.09-29,19.6-28.43,28.68.07,1.11.18,2.06.28,2.8,6.4.52,16.3.86,27.4.86s21.07-.34,27.47-.87Z"/><g class="cls-7"><path class="cls-8" d="M79.34,57.53l-.23-5.86C77.48,33,61,29.64,54.93,29a13.53,13.53,0,0,1,3.25,1.87l-5.53,1.37,5.92-.11c1.52.54,3.38,3.38,3.38,3.38L60,31.88l1,.11c2.14.92,5.47,5.4,5.47,5.4L62,38c.84,1,1.69,4.53,1.69,4.53l-7.89,1.09,8.12-.11.84,4.91-6,1.31,12.34.16.29,5.73-5.6.44L65.22,60c-1.46.22-12.9.45-12.9.45l-.68-3.16-.23,3.13H44.88l-.23-3.32,7-.73-7.56-.56s.17-5.51-4.28-8.19-12.06-1.14-13.36-1.14c-.67,0-.78-.67-.74-1.33a34.1,34.1,0,0,0-1.4,12.44c.07,1.11.18,2.06.28,2.8,6.4.52,16.3.86,27.4.86s21.07-.34,27.47-.87Z"/></g><path class="cls-9" d="M43.3,61.22c0-2-.14-7.27-2.4-10.88a6.4,6.4,0,0,0-5.45-3.28l-8.92,0-.11,14.14Z"/><path class="cls-10" d="M43.3,61.22c0-2-.14-7.27-2.4-10.88a6.4,6.4,0,0,0-5.45-3.28l-8.92,0-.11,14.14Z"/><path class="cls-11" d="M40.9,50.34a6.46,6.46,0,0,0-4.13-3.11l.28.11a4.27,4.27,0,0,1,1,.54,4.67,4.67,0,0,1,.77.77,6.36,6.36,0,0,1,.5.66c.1.15.28.4.24.59s-.26.22-.41.25l-.25.06a1.82,1.82,0,0,1,.62,0,.94.94,0,0,1,.58.62,16.85,16.85,0,0,1,1,3.74s0,.05,0,.07a10.92,10.92,0,0,1-1.59.62,2.58,2.58,0,0,1,1.26.24c.37.17.25.34.32.71a8.19,8.19,0,0,1,.25,3c-.07.39-4.55,1-4.64.71-.17-.63-.35-1.24-.56-1.86a8,8,0,0,1-.5-2.08.05.05,0,0,1,0-.05,7.19,7.19,0,0,0,1.67-.43,6.19,6.19,0,0,0-1.29,0A1.86,1.86,0,0,1,35,55.41a1.31,1.31,0,0,1-.43-.71c-.11-.35-.19-.72-.28-1.08a13.53,13.53,0,0,0-.5-1.39c-.09-.26-.15-.51-.24-.77a.53.53,0,0,1-.06-.24c.06-.23.45-.4.64-.48a9.86,9.86,0,0,1,1.1-.29c-.75-.24-1.62.14-2.34-.22a2.6,2.6,0,0,1-.76-.68,5.84,5.84,0,0,0-.89-.83,8.4,8.4,0,0,0-3.72-1.64h-1l-.11,14.14H43.3C43.33,59.17,43.16,54,40.9,50.34Z"/><path class="cls-6" d="M34.73,61.22c0-2-.14-7.27-2.39-10.88a6.51,6.51,0,0,0-7.49-3c-5.05,2-5.48,9.54-5.09,13.9Z"/><path class="cls-12" d="M23.81,47.94a5.46,5.46,0,0,1,3.79-.42,6.78,6.78,0,0,1,3.6,2.36,11.48,11.48,0,0,1,1.91,3.77,42.8,42.8,0,0,1,1.26,4.86c.16.8.28,1.61.36,2.42,0-2.22-.24-7.14-2.39-10.59a6.51,6.51,0,0,0-7.49-3,6.37,6.37,0,0,0-1.53.88C23.47,48.11,23.64,48,23.81,47.94Z"/><path class="cls-12" d="M31.76,61.22c0-1.53-.1-5.42-1.61-8.12a4.17,4.17,0,0,0-5-2.25c-3.39,1.52-3.69,7.12-3.42,10.37Z"/><path class="cls-13" d="M31.65,61.22c0-1.5-.09-5.31-1.58-7.95a4.06,4.06,0,0,0-4.93-2.2c-3.32,1.48-3.61,7-3.35,10.15Z"/><g class="cls-14"><path class="cls-15" d="M39.11,50.06a4.9,4.9,0,0,0-3.49-3L35,47.1C37.45,47.39,39.11,50.06,39.11,50.06Z"/><path class="cls-15" d="M41.46,55.32c.71-.15,1.12-.28,1.12-.28l-4.06.27a12.91,12.91,0,0,0-1.22-4.75A14.94,14.94,0,0,0,40.71,50L34,50.42A5.54,5.54,0,0,0,30.07,47l-.71.07c2.59.31,4.4,3,4.63,3.31l-1.78.11a35.37,35.37,0,0,0,4.65.06,16,16,0,0,1,1.61,4.73l-4.49.3c.41.07.82.12,1.22.15L36.53,61a28.42,28.42,0,0,0-.81-5.19,22,22,0,0,0,5.36-.41l1,4A23,23,0,0,0,41.46,55.32Z"/></g><polygon class="cls-12" points="19.84 59.33 21.6 59.4 21.6 58.98 19.84 59.33"/><polygon class="cls-12" points="20.12 55.78 21.77 56.39 21.9 55.99 20.12 55.78"/><polygon class="cls-12" points="21.32 50.83 23.15 52.68 22.95 52.96 21.32 50.83"/><polygon class="cls-12" points="25.49 47.53 25.57 50.75 26.02 50.67 25.49 47.53"/><polygon class="cls-12" points="28.73 51.51 29.07 51.81 30.7 49.9 28.73 51.51"/><polygon class="cls-12" points="30.87 54.92 30.97 55.22 33.23 54.37 30.87 54.92"/><polygon class="cls-12" points="31.66 58.67 31.69 58.99 34.09 58.69 31.66 58.67"/><path class="cls-16" d="M22.22,49.73a5.78,5.78,0,0,0-.62.83c.25.33.52.65.78,1a7.69,7.69,0,0,1,3.6-3.4A4.24,4.24,0,0,0,22.22,49.73Z"/><path class="cls-16" d="M21,55.68a14.12,14.12,0,0,1,.94-3.3q-.45-.41-.87-.84a14.66,14.66,0,0,0-1,3.87C20.39,55.52,20.71,55.6,21,55.68Z"/><path class="cls-16" d="M20.79,59a18.89,18.89,0,0,1,.13-2.49L20,56.22a22.14,22.14,0,0,0-.1,2.9A5.7,5.7,0,0,0,20.79,59Z"/><path class="cls-16" d="M19.92,59.78c0,.47.07.9.12,1.29l.86-.1s-.06-.5-.1-1.29Z"/><path class="cls-16" d="M26.31,45.62s2.33-15.82,26-16.53A56.65,56.65,0,0,0,42.7,31a12,12,0,0,0-2.86,1.09l2.11,0-3.61.47s-4,2-5.38,3.75l4.1.84L32.51,37a20.51,20.51,0,0,0-3.23,5.34l1.88.18-2.22.19-1.09,2.8Z"/><g class="cls-17"><path class="cls-18" d="M78.86,54.7l.11,0Z"/><path class="cls-18" d="M71.39,36.91l.19,0Z"/><path class="cls-18" d="M66.39,56.28A91.9,91.9,0,0,0,78.86,54.7c-.44.09-2.17.41-5.66.74A64.59,64.59,0,0,0,73.14,49c1.56-.21,3.08-.47,4.54-.78,0,0-9.13,1.48-35.79,1.15l2.23.17.28,5.42.49-5.37c3,.18,8,.42,13.56.36l.35,5.17.27-5.18a120.73,120.73,0,0,0,13.36-.85,45.05,45.05,0,0,1,.76,6.39,281.61,281.61,0,0,1-29.72.87s3.16.22,7.88.3l.18,4.57.28-4.56c3.94.06,8.89,0,14-.3L66,60.86Z"/><path class="cls-18" d="M32.07,42.26a33.51,33.51,0,0,1,2.68-4.84c2.41.22,6.21.52,10.7.7a21.87,21.87,0,0,0-.49,5,30.58,30.58,0,0,1,1.09-5c3.48.13,7.35.18,11.27.07L58.21,43,58,38.2a103.91,103.91,0,0,0,10.76-.86,33.46,33.46,0,0,1,2.49,5.12,18,18,0,0,0-1.91-5.21c.71-.1,1.41-.22,2.09-.34-.31.05-1,.16-2.12.29h0l-.17,0c-4.58.5-15.87,1.24-37.08-.08,0,0,.64.08,1.8.19A22.17,22.17,0,0,0,32.07,42.26Z"/><path class="cls-18" d="M25.23,47.07l2.06-4.37-.45-.19S25.71,45.4,25.23,47.07Z"/><path class="cls-18" d="M40.25,36.92a26.87,26.87,0,0,1,3-4.93c2.2.19,5,.37,8.06.41l.28,4.93.14-4.92a73.79,73.79,0,0,0,8.1-.35,18.29,18.29,0,0,1,3.07,4.64A14.09,14.09,0,0,0,60.56,32c1.24-.14,2.46-.33,3.63-.58,0,0-6.72,1.23-25.58.08,0,0,1.6.23,4.12.46A14.79,14.79,0,0,0,40.25,36.92Z"/><path class="cls-18" d="M49.42,29H49a9.21,9.21,0,0,0-1.54,2.73A15.16,15.16,0,0,1,49.42,29Z"/><path class="cls-18" d="M55.85,31.73A9.21,9.21,0,0,0,54.31,29h-.44A14.86,14.86,0,0,1,55.85,31.73Z"/><path class="cls-18" d="M51.34,43.87l.19,4.66.29-4.66c4.15,0,8.5,0,12.76-.33a25.4,25.4,0,0,1,1.11,5.14,37.58,37.58,0,0,0-.52-5.18c1.88-.12,3.74-.29,5.56-.5,1.52-.14,3.58-.42,4.62-.47a4.45,4.45,0,0,1,.65,0,17.75,17.75,0,0,1,1.68,5,21.91,21.91,0,0,0-1.33-4.93.62.62,0,0,1,.3.17L76.29,42c-1,.2-4.14.65-5.43.83C64,43.4,50.38,44,27.8,42.56c0,0,4.14.46,10.36.83a19,19,0,0,0-.47,4.14l1.13-4.1C42.47,43.64,46.77,43.82,51.34,43.87Z"/><path class="cls-18" d="M76.65,42.77l.07.14A.22.22,0,0,0,76.65,42.77Z"/></g><path class="cls-19" d="M22.33,59.11l8.23-.25A36.35,36.35,0,0,1,22.33,59.11Z"/><path class="cls-19" d="M22.67,56.31l8-.23A39.37,39.37,0,0,1,22.67,56.31Z"/><path class="cls-19" d="M23.38,53l5.79-.15A23.66,23.66,0,0,1,23.38,53Z"/><path class="cls-19" d="M25,53a6.34,6.34,0,0,0-.9,3.29A5.47,5.47,0,0,1,24.6,53Z"/><path class="cls-19" d="M28.93,52.88A6.25,6.25,0,0,0,28,56.17a5.45,5.45,0,0,1,.53-3.28Z"/><path class="cls-19" d="M26.48,52.91a4.81,4.81,0,0,1,1.24-1.78,4,4,0,0,0-.92,1.78Z"/><path class="cls-19" d="M25.84,56.37a17.37,17.37,0,0,0,0,2.78l.25-2.8Z"/><path class="cls-19" d="M24,59.22,23.89,61a18.57,18.57,0,0,1-.3-1.84A2.6,2.6,0,0,1,24,59.22Z"/><path class="cls-19" d="M28.23,59.06l-.06,2s-.35-2-.3-2A1.63,1.63,0,0,1,28.23,59.06Z"/><path class="cls-19" d="M30.09,56.09a18.38,18.38,0,0,0-.31,2.77,16,16,0,0,1-.09-2.73Z"/><g class="cls-20"><path class="cls-13" d="M30.07,53.31A4.1,4.1,0,0,0,25.45,51a3.85,3.85,0,0,1,2.62.89l.12.65-2.7.36,2.4.25a13,13,0,0,0-.52,2.69l-3.29.44,3,.18A21.51,21.51,0,0,0,27,58.67l-3.61.44,3.5.22-.11,1.27-2.51-.11-.67-.72v.9l-1.23-.14a15.52,15.52,0,0,1,.07-6.08,18.07,18.07,0,0,0-.64,6.85h9.86C31.67,59.79,31.56,56,30.07,53.31Z"/></g><g class="cls-7"><path class="cls-8" d="M79.34,57.53l-.23-5.86C77.87,37.5,68,32.14,60.72,30.11a3.13,3.13,0,0,1,1.23,1l-1.63.77,3.15-.28c2.37.66,6.09,4.86,6.09,4.86s-1.83.88-1.91.93a9.22,9.22,0,0,1,1.29,0l2,5.12-3,.82,5.35.33,1,3.71-6.82,1.74L72.66,49l.68,2,1-2.08.84,6-2.76.87,2.7-.27.29,4.47a80,80,0,0,1-8.57.55l-.68-2.57L65.62,61c5.46-.15,10.21-.39,13.83-.69Z"/></g></g></g></svg>