<svg id="Layer_1" data-name="Layer 1" xmlns="http://www.w3.org/2000/svg" viewBox="0 0 100 100"><defs><style>.cls-1{opacity:0.5;}.cls-2{fill:#fff200;stroke:#494949;stroke-miterlimit:10;}.cls-3{fill:#a6c914;}.cls-4{fill:#052d05;}.cls-5{fill:#d8dc3a;}.cls-6{fill:#feffff;}.cls-7{fill:#d82a2b;}.cls-8{fill:#e8363f;}.cls-9{fill:#c6d62b;}.cls-10{fill:#c4121b;}.cls-11{fill:#ce1527;}.cls-12{fill:#330e0b;}.cls-13{fill:#511918;}.cls-14{fill:#a06665;}</style></defs><ellipse class="cls-1" cx="50.45" cy="52.31" rx="42.3" ry="40.94"/><ellipse class="cls-2" cx="49.55" cy="48.69" rx="42.3" ry="40.94"/><ellipse class="cls-3" cx="49.55" cy="48.69" rx="36.57" ry="35.39"/><path class="cls-4" d="M15.23,48.48a30.52,30.52,0,0,0,2.6,5.85l.41.7a25.63,25.63,0,0,0,4.4,5.68l.56.58A23.57,23.57,0,0,0,27,64.35l.7.47c1.17.76,2.39,1.46,3.58,2.15l.76.34a31.28,31.28,0,0,0,13.26,3l.73,0c.72,0,1.45,0,2.16,0,.21,0,5.71,0,15.31-4.89A24.24,24.24,0,0,0,70,60.18c.19-.21.39-.42.58-.64.59-.75,1.15-1.52,1.7-2.31l.4-.59.38-.59.39-.58c.13-.2.25-.41.37-.61s.25-.42.37-.63c.45-.7.89-1.41,1.29-2.14.14-.24.27-.49.4-.73.34-.57,2.61-7.61,2.48-10.29,0-.28,0-.56,0-.85a33.92,33.92,0,0,0,0-4.62c0-.25,0-.51-.08-.76a23.83,23.83,0,0,0-.9-3.91c-.08-.26-.16-.52-.25-.79l-.06-.2Z"/><path class="cls-5" d="M16.73,49.07l.2.54c.21.53.43,1.06.66,1.57L18,52c.11.25.23.5.36.74.42.6.82,1.23,1.23,1.85.13.21.26.42.4.62A26.17,26.17,0,0,0,25,61.24l.49.46.5.45.6.52c.61.51,1.23,1,1.87,1.49l.62.41a83,83,0,0,0,9.74,4c.24,0,.48,0,.73,0,1.22,0,5.66.62,6.36.61h.92a32.45,32.45,0,0,0,5.59-.63l.47-.1c2.19-.88,4.5-1.54,6.72-2.42l.74-.31a20.37,20.37,0,0,0,7.22-4.57l.54-.56.55-.55.55-.63c.73-.86,1.39-1.78,2.06-2.7.17-.22.33-.45.49-.67.32-.46.62-.92.92-1.39.16-.25.31-.51.46-.76a12.3,12.3,0,0,0,1-2.39l.15-.53a20.53,20.53,0,0,0,1.13-2.18c.11-.25.21-.5.31-.76.26-.82.49-1.64.69-2.47.07-.28.13-.56.19-.84.19-1.35.45-2.7.62-4,0-.27.06-.54.08-.81a33.88,33.88,0,0,0-1-7.61c-.06-.23-.11-.47-.18-.7-.11-.41-.23-.83-.36-1.24L16.4,48.13A6.16,6.16,0,0,0,16.73,49.07Z"/><path class="cls-6" d="M20.09,53.17l.47.63a16.14,16.14,0,0,0,1.67,1.75l.5.63c.55.7,1.1,1.39,1.64,2.1.14.17.27.35.41.53a14.35,14.35,0,0,0,1,1.27c.18.21.37.4.56.6A18.23,18.23,0,0,0,29.43,63l.66.4a4,4,0,0,0,1.14.56c1.05.34,2,.68,3,1,.24.09,2.79,2,8.57,2.56l.63.05c.2,0,.41,0,.62,0l.75,0a25.71,25.71,0,0,0,3.62,0l.78-.07a35,35,0,0,0,5.32-1l.79-.23A18.58,18.58,0,0,0,61.77,63l.59-.43c1.38-1,2.85-1.77,4.25-2.64l.58-.48a22.26,22.26,0,0,0,3.86-5.36c.13-.21.26-.42.4-.63.4-.63.8-1.26,1.2-1.87.09-.25.19-.49.28-.73s.19-.49.28-.73l.27-.73c.3-1,.65-2,1-3,.08-.26.16-.51.23-.77a3.69,3.69,0,0,0,.18-1.26,18.09,18.09,0,0,1,.1-2.35c0-.26.06-.51.1-.77a12,12,0,0,0,.59-2.84c0-.23,0-.47,0-.71a3,3,0,0,0-.14-1.26c-.33-2-1.08-3.69-1.26-5.7L17.91,47.68C18.58,49.54,18.84,51.57,20.09,53.17Z"/><path class="cls-7" d="M23.4,51.37a3.54,3.54,0,0,1,.22.57,6.37,6.37,0,0,0,1.5,2.57l.56.57c.57.55,1.19,1.07,1.8,1.59l.48.5a11.33,11.33,0,0,1,1.29,1.62,3,3,0,0,0,1.46,1.15l.74.38A28.84,28.84,0,0,1,34.25,62c.22.13.43.25.66.36a29.51,29.51,0,0,0,5,1.5l.79.25c.52.15,1,.28,1.57.38.27,0,.54,0,.81,0a12.89,12.89,0,0,0,1.63-.08l.89,0c.87,0,1.74-.09,2.6-.13l.74,0c.75,0,1.49-.07,2.22-.14a7.35,7.35,0,0,0,.84-.2,9,9,0,0,0,3.1-1.48l.67-.36a28.3,28.3,0,0,1,3.66-1.55l.64-.23a9.27,9.27,0,0,0,3.3-1.67c.19-.14.38-.3.55-.45s.26-.19.39-.3.21-.26.33-.36a21,21,0,0,0,5.21-6.28c.27-1,1.52-4,1.62-4.3.91-1.45.74-3.1.87-4.74,0-.24,0-.47,0-.72.08-.77.16-1.55.2-2.32,0-.26,0-.51,0-.77a5,5,0,0,0-.08-1.33,24.9,24.9,0,0,0-1.07-3.46,5.49,5.49,0,0,1-.17-.7,7.87,7.87,0,0,0-.12-1.2l-50,15A22.72,22.72,0,0,0,23.4,51.37Z"/><path class="cls-8" d="M24.44,46.47a3.29,3.29,0,0,0,.26.49,19.42,19.42,0,0,0,1.88,2.15,3.8,3.8,0,0,1,.33.37,2.27,2.27,0,0,1,.29.4,6.33,6.33,0,0,1,.46,2.67c0,.31.23.48.39.74a4.91,4.91,0,0,0,.44.25c1.05.53,2.25.67,2.89,1.62l.32.43c.32.43.63.87.95,1.32a4.8,4.8,0,0,0,.43.32,13.64,13.64,0,0,0,3.06,1.25l.52.3a14.71,14.71,0,0,1,1.55,1.06,1.46,1.46,0,0,0,.76.32,3.75,3.75,0,0,0,.58.13c1,.17,2,.14,3.06.26l.56,0,.56.06.47,0,.47,0c2.57.86,4.93-.31,7.36-.69l.59-.1A17.87,17.87,0,0,0,58,57.71l.46-.28c1.15-1,1.91-2.36,3.21-3l.44-.17a7.64,7.64,0,0,0,1.28-.56,4.06,4.06,0,0,0,1.46-1.29,5.18,5.18,0,0,0,.47-.87,5.42,5.42,0,0,0,.36-2.27,2.83,2.83,0,0,1,1.49-2.32,3.36,3.36,0,0,0,.43-.31,2.07,2.07,0,0,0,.34-.39,13.22,13.22,0,0,1,.8-3.66,4.37,4.37,0,0,0,.12-.52.81.81,0,0,0,0-.85,7.77,7.77,0,0,1-.93-3.8,5.29,5.29,0,0,1,0-.56,6.5,6.5,0,0,0,0-4.11l0-.08L24.24,45.78A3.29,3.29,0,0,0,24.44,46.47Z"/><path class="cls-7" d="M29.57,44.55c.08.14.17.27.26.41a6.85,6.85,0,0,1,.8,1.21l.3.53a3.89,3.89,0,0,0,3.51,2.1,1.29,1.29,0,0,1,.79.7,3.32,3.32,0,0,1,.15.54c.17.9,0,1.85.53,2.59a2,2,0,0,0,.44.43,3,3,0,0,0,1.41.47l.52,0c2-1.13,3.56-.28,4.84,1.37a2.51,2.51,0,0,0,.84.45.84.84,0,0,0,.33.1,1.51,1.51,0,0,0,.54-.1A8.31,8.31,0,0,0,47,54.28l.42-.25a1.09,1.09,0,0,1,.93-.27c1.54.41,2.77,1,3.87.54a1.46,1.46,0,0,0,.46-.27c.28-.44.52-1,.79-1.46a5.5,5.5,0,0,1,.28-.48c.7-1.18,2.33-1.12,3.62-1.12.61,0,1-.66,1.3-1.39l.15-.45a5.44,5.44,0,0,1,3.26-4.87,1.31,1.31,0,0,0,.49-.37,1.17,1.17,0,0,0,.17-.85c-.24-1.25-1-2.42-.9-3.55,0-.17,0-.33.07-.48s0-.34,0-.51c.24-1.15-.34-2.22-.49-3.43a1,1,0,0,1,0-.34l.06-.15L29.43,44.23A.83.83,0,0,0,29.57,44.55Z"/><path class="cls-8" d="M39,45.24c.27.16.92.09,1.32.31l.44.1a2.19,2.19,0,0,1,1.65,2c0,.14.29.15.44.1a1.92,1.92,0,0,1,.55-.22c1.35.12,2-1.33,3.26-1.47a1,1,0,0,1,.39.08,1.15,1.15,0,0,1,.33.21c.53.35,1,1.38,1.42.86A4.53,4.53,0,0,1,52.08,45c.54-.08-.56-1-.59-1.76a.64.64,0,0,1,.15-.38c.71-1.06,2.14-.63,3-1.34s.18-1.7.55-2.49c0-.13.1-.25.15-.38a4.32,4.32,0,0,0,.3-.79,1.73,1.73,0,0,0-.44-1.34L38.1,41.62A4.61,4.61,0,0,1,38.86,45,.24.24,0,0,0,39,45.24Z"/><path class="cls-4" d="M15.33,48.53a30.52,30.52,0,0,0,2.6,5.85c.13.24.27.47.41.7a25.18,25.18,0,0,0,4.4,5.68l.57.58a22.56,22.56,0,0,0,3.83,3.06c.23.16.46.32.7.47,1.17.76,2.39,1.46,3.58,2.15l.76.34a31.28,31.28,0,0,0,13.26,3l.73,0c.72,0,1.45,0,2.16,0,.21,0,5.71,0,15.31-4.9a24.24,24.24,0,0,0,6.43-5.25c.2-.21.39-.42.58-.64.59-.75,1.15-1.52,1.7-2.31.13-.2.27-.39.41-.59s.25-.39.37-.58l.39-.58c.13-.21.25-.42.38-.62l.36-.63c.45-.7.89-1.41,1.3-2.14l.39-.73c.34-.56,2.61-7.6,2.48-10.29,0-.28,0-.56,0-.84a33.91,33.91,0,0,0,0-4.62c0-.26,0-.52-.08-.77a23.83,23.83,0,0,0-.9-3.91c-.08-.26-.16-.52-.25-.79l-.06-.2Z"/><path class="cls-9" d="M16.83,49.12l.2.54c.21.53.43,1.06.66,1.58l.36.76c.11.25.23.5.36.74.42.61.82,1.23,1.23,1.85.13.21.26.42.4.63a26.85,26.85,0,0,0,5.08,6.08l.49.45.5.45.6.52c.61.51,1.23,1,1.87,1.5l.63.4a82.25,82.25,0,0,0,9.73,4c.24,0,.48,0,.73,0,1.22,0,5.66.62,6.36.61H47a31.38,31.38,0,0,0,5.58-.63l.47-.1c2.19-.88,4.5-1.54,6.72-2.42l.74-.31a20.37,20.37,0,0,0,7.22-4.57l.55-.55.54-.56.55-.63c.73-.86,1.4-1.78,2.06-2.7.17-.22.33-.45.49-.67.32-.45.63-.92.92-1.38l.46-.77a12.3,12.3,0,0,0,1-2.39,4.61,4.61,0,0,0,.15-.53,18.05,18.05,0,0,0,1.13-2.18c.11-.25.22-.5.32-.76.25-.82.48-1.64.68-2.47.07-.28.13-.55.19-.83.19-1.36.45-2.71.62-4.06,0-.27.06-.54.08-.81a33.88,33.88,0,0,0-1-7.61c0-.23-.11-.46-.18-.7-.11-.41-.23-.83-.36-1.24L16.5,48.19A6,6,0,0,0,16.83,49.12Z"/><path class="cls-6" d="M20.19,53.22a7.47,7.47,0,0,0,.48.63,15.21,15.21,0,0,0,1.66,1.76c.17.2.33.41.5.62l1.64,2.1.41.53a16.12,16.12,0,0,0,1,1.28c.18.2.37.39.56.59a19.28,19.28,0,0,0,3.05,2.34l.66.39a4,4,0,0,0,1.14.56c1.05.34,2,.68,3,1,.24.09,2.79,2,8.57,2.56l.63,0c.2,0,.41,0,.62,0l.75,0a27.32,27.32,0,0,0,3.62,0l.78-.08a35,35,0,0,0,5.32-1l.79-.23a18.62,18.62,0,0,0,6.46-3.24c.19-.15.39-.29.59-.43,1.37-1,2.84-1.77,4.24-2.64.21-.16.4-.32.58-.48a22.4,22.4,0,0,0,3.86-5.35c.13-.22.27-.43.4-.64.4-.63.8-1.26,1.2-1.87.1-.25.19-.49.28-.73s.19-.49.28-.73l.27-.73c.3-1,.65-2,1-3,.08-.25.16-.51.23-.77A3.69,3.69,0,0,0,75,44.45a18.09,18.09,0,0,1,.1-2.35c0-.25.06-.51.1-.76a12.06,12.06,0,0,0,.59-2.85c0-.23,0-.47,0-.7a2.83,2.83,0,0,0-.14-1.27c-.33-2-1.08-3.69-1.26-5.7L18,47.73C18.68,49.59,19,51.63,20.19,53.22Z"/><path class="cls-10" d="M23.5,51.42a2.32,2.32,0,0,1,.22.57,6.3,6.3,0,0,0,1.5,2.57c.18.2.37.38.56.57.58.55,1.2,1.07,1.8,1.59l.48.5a11.33,11.33,0,0,1,1.29,1.62A3,3,0,0,0,30.81,60l.74.38A28.84,28.84,0,0,1,34.35,62c.22.13.43.25.66.36a30.47,30.47,0,0,0,5,1.51l.79.24c.52.15,1,.28,1.57.39l.81,0a14.92,14.92,0,0,0,1.63-.07l.89,0c.87,0,1.74-.09,2.6-.12l.75,0c.74,0,1.48-.08,2.21-.15.29-.05.57-.12.85-.19a9.19,9.19,0,0,0,3.09-1.48l.67-.37a29.76,29.76,0,0,1,3.66-1.55l.65-.23a9.28,9.28,0,0,0,3.29-1.66l.56-.46c.11-.1.25-.19.38-.3s.21-.26.34-.35A21.45,21.45,0,0,0,70,51.3c.26-1,1.51-4,1.61-4.29.91-1.46.74-3.11.87-4.75q0-.34,0-.72c.08-.77.16-1.55.2-2.32,0-.26,0-.51,0-.77a5.45,5.45,0,0,0-.07-1.33,26.34,26.34,0,0,0-1.08-3.46c-.07-.23-.12-.46-.17-.7a7.87,7.87,0,0,0-.12-1.2l-50,15A22.17,22.17,0,0,0,23.5,51.42Z"/><path class="cls-8" d="M24.54,46.52a3.29,3.29,0,0,0,.26.49,19.42,19.42,0,0,0,1.88,2.15c.12.12.23.24.34.37a4.1,4.1,0,0,1,.29.4,6.51,6.51,0,0,1,.45,2.67c0,.31.23.48.4.74a3.78,3.78,0,0,0,.43.26c1.05.52,2.25.66,2.89,1.61l.32.43c.32.43.63.87.95,1.32a4.35,4.35,0,0,0,.43.32,13.64,13.64,0,0,0,3.06,1.25l.52.3a15.94,15.94,0,0,1,1.56,1.06,1.5,1.5,0,0,0,.75.33,5.41,5.41,0,0,0,.58.12c1,.17,2,.14,3.06.26a5.27,5.27,0,0,0,.56,0l.56.06.47,0,.47,0c2.57.87,4.93-.31,7.36-.68l.59-.11a17.42,17.42,0,0,0,5.4-2.22l.47-.28c1.14-1,1.9-2.36,3.21-3l.43-.17a7.74,7.74,0,0,0,1.29-.56A4.11,4.11,0,0,0,65,52.45a4.55,4.55,0,0,0,.47-.87,5.56,5.56,0,0,0,.37-2.27A2.83,2.83,0,0,1,67.29,47a3.36,3.36,0,0,0,.43-.31,1.8,1.8,0,0,0,.34-.39,13.3,13.3,0,0,1,.8-3.66c0-.17.09-.34.13-.51a.83.83,0,0,0,0-.86,7.77,7.77,0,0,1-.93-3.8,5.54,5.54,0,0,1,0-.56,6.43,6.43,0,0,0,0-4.11l0-.08L24.35,45.83A2.78,2.78,0,0,0,24.54,46.52Z"/><path class="cls-11" d="M29.68,44.6a3.45,3.45,0,0,0,.25.41,7.24,7.24,0,0,1,.8,1.21l.3.53a3.91,3.91,0,0,0,3.51,2.1,1.29,1.29,0,0,1,.79.7,2.72,2.72,0,0,1,.15.54c.18.9,0,1.85.54,2.59a1.75,1.75,0,0,0,.43.43,3,3,0,0,0,1.41.47l.52,0c2-1.13,3.56-.28,4.84,1.37a2.34,2.34,0,0,0,.84.45.6.6,0,0,0,.33.1,1.47,1.47,0,0,0,.54-.1,8.13,8.13,0,0,0,2.18-1.1l.42-.26a1.09,1.09,0,0,1,.93-.27c1.54.41,2.77.95,3.87.54a1.46,1.46,0,0,0,.46-.27c.28-.44.52-1,.79-1.46.09-.16.18-.33.28-.48C54.56,51,56.19,51,57.49,51c.61,0,1-.65,1.29-1.39l.15-.45a5.44,5.44,0,0,1,3.26-4.87,1.47,1.47,0,0,0,.5-.36,1.19,1.19,0,0,0,.16-.85c-.24-1.26-1-2.43-.9-3.56,0-.16,0-.32.07-.48s0-.34,0-.51c.25-1.15-.34-2.22-.48-3.43a.74.74,0,0,1,0-.33l.06-.16L29.53,44.28A.72.72,0,0,0,29.68,44.6Z"/><path class="cls-8" d="M39.07,45.29c.27.16.92.09,1.32.31l.44.1a2.2,2.2,0,0,1,1.65,2c.05.14.29.15.44.1a2,2,0,0,1,.56-.22c1.34.12,2-1.33,3.25-1.47a1,1,0,0,1,.4.08,2,2,0,0,1,.33.21c.52.35,1,1.38,1.41.87A4.54,4.54,0,0,1,52.19,45c.53-.08-.57-1-.6-1.76a.64.64,0,0,1,.15-.38c.71-1.06,2.14-.63,3-1.34s.18-1.69.55-2.49c0-.13.1-.25.15-.37a3.31,3.31,0,0,0,.3-.8,1.73,1.73,0,0,0-.44-1.34l-17,5.11A4.65,4.65,0,0,1,39,45,.24.24,0,0,0,39.07,45.29Z"/><path class="cls-10" d="M63.36,50.44a7.13,7.13,0,0,1-1.8-2.38c-.07-.15-.09-.27-.05-.32h0c.16-.24,2.23-.11,3.33.37a1.87,1.87,0,0,1,.79.58,1.28,1.28,0,0,1,0,1.48h0A1.41,1.41,0,0,1,63.36,50.44Z"/><path class="cls-12" d="M65.55,49.86h0a1.16,1.16,0,0,0,0-1.36,1.88,1.88,0,0,0-.76-.56c-1-.46-3-.62-3.15-.39h0c0,.05,0,.16,0,.3a7,7,0,0,0,1.75,2.23A1.33,1.33,0,0,0,65.55,49.86Z"/><path class="cls-13" d="M65.25,49.5h0a1.47,1.47,0,0,0,.19-.4.72.72,0,0,0,0-.52,1.31,1.31,0,0,0-.7-.54,5.34,5.34,0,0,0-3-.44h0s0,.14,0,.28a6.43,6.43,0,0,0,1.49,1.84A1.24,1.24,0,0,0,65.25,49.5Z"/><path class="cls-14" d="M64.1,48.31a1.26,1.26,0,0,1,.8.72.23.23,0,0,0,.42,0,.66.66,0,0,0,0-.48,1.35,1.35,0,0,0-.65-.5,5.09,5.09,0,0,0-2.74-.42h0c0,.08.19.15.37.19A6.15,6.15,0,0,1,64.1,48.31Z"/><path class="cls-10" d="M55.28,49.6a7.14,7.14,0,0,1-1.11-2.75.51.51,0,0,1,0-.32h0c.22-.2,2.18.46,3.11,1.19a1.78,1.78,0,0,1,.61.76,1.27,1.27,0,0,1-.41,1.42h0A1.41,1.41,0,0,1,55.28,49.6Z"/><path class="cls-12" d="M57.55,49.59h0a1.16,1.16,0,0,0,.35-1.32,1.86,1.86,0,0,0-.58-.73c-.89-.7-2.74-1.35-2.94-1.17h0s0,.14,0,.3a6.84,6.84,0,0,0,1.09,2.59A1.33,1.33,0,0,0,57.55,49.59Z"/><path class="cls-13" d="M57.36,49.17h0a1.58,1.58,0,0,0,.29-.34.68.68,0,0,0,.12-.51,1.35,1.35,0,0,0-.52-.7,5.34,5.34,0,0,0-2.75-1.16h0s-.05.14,0,.29a6.64,6.64,0,0,0,.95,2.14A1.24,1.24,0,0,0,57.36,49.17Z"/><path class="cls-14" d="M56.56,47.73a1.2,1.2,0,0,1,.58.89c0,.21.3.28.4.14a.65.65,0,0,0,.11-.47,1.24,1.24,0,0,0-.5-.64,4.85,4.85,0,0,0-2.53-1.1h0c-.07.06.14.19.31.27A6.17,6.17,0,0,1,56.56,47.73Z"/><path class="cls-10" d="M56,57.2a6.94,6.94,0,0,1-.34-2.93c0-.16.07-.27.13-.3h0c.26-.14,2,1,2.69,1.92a1.84,1.84,0,0,1,.39.89A1.31,1.31,0,0,1,58.07,58h0A1.4,1.4,0,0,1,56,57.2Z"/><path class="cls-12" d="M58.15,57.76h0a1.2,1.2,0,0,0,.7-1.19,1.81,1.81,0,0,0-.37-.85c-.67-.9-2.28-2-2.52-1.86h0c-.05,0-.09.13-.11.28a6.78,6.78,0,0,0,.36,2.78A1.32,1.32,0,0,0,58.15,57.76Z"/><path class="cls-13" d="M58.08,57.3h0a1.51,1.51,0,0,0,.37-.25.74.74,0,0,0,.26-.47,1.31,1.31,0,0,0-.33-.8c-.61-.87-2.11-1.93-2.34-1.82h0s-.09.12-.11.27a6.27,6.27,0,0,0,.34,2.31A1.22,1.22,0,0,0,58.08,57.3Z"/><path class="cls-14" d="M57.7,55.72a1.19,1.19,0,0,1,.32,1,.23.23,0,0,0,.35.24.73.73,0,0,0,.23-.43,1.25,1.25,0,0,0-.31-.74c-.56-.81-1.94-1.8-2.15-1.7h0c-.09,0,.08.22.23.35A5.88,5.88,0,0,1,57.7,55.72Z"/><path class="cls-10" d="M48.74,53.89A7,7,0,0,1,49.2,51c.07-.15.14-.24.2-.26h0c.29-.07,1.65,1.44,2.08,2.53a1.8,1.8,0,0,1,.14.95,1.36,1.36,0,0,1-1.1,1h0A1.38,1.38,0,0,1,48.74,53.89Z"/><path class="cls-12" d="M50.71,55h0a1.2,1.2,0,0,0,1-1,1.72,1.72,0,0,0-.13-.91c-.4-1-1.67-2.5-1.93-2.44h0c-.06,0-.12.1-.19.24a6.93,6.93,0,0,0-.39,2.78A1.3,1.3,0,0,0,50.71,55Z"/><path class="cls-13" d="M50.76,54.52h0a1.57,1.57,0,0,0,.43-.15.71.71,0,0,0,.37-.39,1.3,1.3,0,0,0-.1-.86c-.35-1-1.52-2.39-1.77-2.34h0s-.11.09-.18.23a6.49,6.49,0,0,0-.28,2.31A1.2,1.2,0,0,0,50.76,54.52Z"/><path class="cls-14" d="M50.82,52.89a1.17,1.17,0,0,1,0,1c-.07.2.11.39.27.32a.74.74,0,0,0,.34-.36,1.19,1.19,0,0,0-.1-.8c-.32-.91-1.39-2.22-1.62-2.17h0c-.09,0,0,.23.14.39A6,6,0,0,1,50.82,52.89Z"/><path class="cls-10" d="M45.35,59.92a7.11,7.11,0,0,1,1.23-2.7c.11-.13.2-.2.26-.2h0c.3,0,1.21,1.82,1.33,3a1.78,1.78,0,0,1-.12,1,1.35,1.35,0,0,1-1.33.72h0A1.36,1.36,0,0,1,45.35,59.92Z"/><path class="cls-12" d="M47,61.47h0a1.25,1.25,0,0,0,1.22-.69,1.85,1.85,0,0,0,.11-.92c-.11-1.1-.94-2.83-1.22-2.83h0s-.14.07-.24.19a6.82,6.82,0,0,0-1.12,2.58A1.28,1.28,0,0,0,47,61.47Z"/><path class="cls-13" d="M47.14,61h0a2.22,2.22,0,0,0,.45,0,.81.81,0,0,0,.47-.28,1.33,1.33,0,0,0,.13-.86c-.08-1-.83-2.69-1.09-2.7h0c-.06,0-.14.06-.24.17A6.25,6.25,0,0,0,46,59.5,1.18,1.18,0,0,0,47.14,61Z"/><path class="cls-14" d="M47.63,59.48a1.2,1.2,0,0,1-.25,1,.23.23,0,0,0,.19.37.7.7,0,0,0,.41-.26,1.19,1.19,0,0,0,.13-.79,4.61,4.61,0,0,0-1-2.51h0c-.09,0,0,.23,0,.4A5.91,5.91,0,0,1,47.63,59.48Z"/><path class="cls-10" d="M40.71,52.8a7.21,7.21,0,0,1,1.91-2.3c.14-.1.25-.15.31-.13h0c.29.08.69,2,.5,3.2a1.79,1.79,0,0,1-.38.89,1.38,1.38,0,0,1-1.48.37h0A1.33,1.33,0,0,1,40.71,52.8Z"/><path class="cls-12" d="M41.86,54.7h0a1.27,1.27,0,0,0,1.36-.37,1.81,1.81,0,0,0,.36-.85c.18-1.1-.16-3-.42-3.05h0c-.06,0-.16,0-.29.12a7.13,7.13,0,0,0-1.77,2.21A1.26,1.26,0,0,0,41.86,54.7Z"/><path class="cls-13" d="M42.14,54.33h0a1.69,1.69,0,0,0,.45.07.74.74,0,0,0,.52-.15,1.33,1.33,0,0,0,.36-.79c.2-1-.08-2.81-.33-2.89h0s-.15,0-.28.11a6.71,6.71,0,0,0-1.44,1.86A1.17,1.17,0,0,0,42.14,54.33Z"/><path class="cls-14" d="M43,52.94a1.19,1.19,0,0,1-.51.93.23.23,0,0,0,.08.41.73.73,0,0,0,.47-.15,1.31,1.31,0,0,0,.33-.73,4.64,4.64,0,0,0-.28-2.67h0c-.09,0-.1.21-.09.39A5.68,5.68,0,0,1,43,52.94Z"/><path class="cls-10" d="M36.11,56.91a7.41,7.41,0,0,1,2.45-1.75c.16-.06.28-.08.33,0h0c.26.16.12,2.16-.37,3.22a1.9,1.9,0,0,1-.6.77,1.39,1.39,0,0,1-1.53,0h0A1.31,1.31,0,0,1,36.11,56.91Z"/><path class="cls-12" d="M36.7,59h0a1.29,1.29,0,0,0,1.42,0,1.77,1.77,0,0,0,.57-.73c.47-1,.64-2.91.41-3h0a.59.59,0,0,0-.31.05A7.43,7.43,0,0,0,36.48,57,1.26,1.26,0,0,0,36.7,59Z"/><path class="cls-13" d="M37.08,58.73h0a1.59,1.59,0,0,0,.42.19.77.77,0,0,0,.54,0,1.33,1.33,0,0,0,.56-.67c.47-1,.67-2.74.45-2.87h0a.49.49,0,0,0-.29,0,6.78,6.78,0,0,0-1.89,1.44A1.14,1.14,0,0,0,37.08,58.73Z"/><path class="cls-14" d="M38.31,57.62a1.25,1.25,0,0,1-.75.77c-.19.1-.2.35,0,.41a.69.69,0,0,0,.49,0,1.25,1.25,0,0,0,.52-.63A4.57,4.57,0,0,0,39,55.5h0c-.08,0-.16.18-.19.36A6.26,6.26,0,0,1,38.31,57.62Z"/><path class="cls-10" d="M30.37,52.21a7.42,7.42,0,0,1,2.84-1.07.53.53,0,0,1,.34,0h0c.21.21-.47,2.11-1.22,3a2,2,0,0,1-.79.59,1.4,1.4,0,0,1-1.47-.4h0A1.32,1.32,0,0,1,30.37,52.21Z"/><path class="cls-12" d="M30.38,54.41h0a1.27,1.27,0,0,0,1.37.34,1.9,1.9,0,0,0,.75-.56c.72-.86,1.39-2.65,1.21-2.84h0s-.15,0-.31,0a7.54,7.54,0,0,0-2.68,1.06A1.25,1.25,0,0,0,30.38,54.41Z"/><path class="cls-13" d="M30.82,54.22h0a1.35,1.35,0,0,0,.35.28.76.76,0,0,0,.53.12,1.4,1.4,0,0,0,.72-.51c.7-.79,1.38-2.47,1.2-2.66h0a.46.46,0,0,0-.3,0,6.71,6.71,0,0,0-2.21.92A1.15,1.15,0,0,0,30.82,54.22Z"/><path class="cls-14" d="M32.31,53.45a1.28,1.28,0,0,1-.93.56c-.21,0-.28.29-.14.39a.74.74,0,0,0,.48.1,1.3,1.3,0,0,0,.67-.48,4.6,4.6,0,0,0,1.13-2.45h0c-.06-.07-.2.14-.28.3A5.92,5.92,0,0,1,32.31,53.45Z"/><path class="cls-10" d="M29.52,46a7.55,7.55,0,0,1,3-.32c.17,0,.28.06.31.12h0c.15.25-1,1.92-2,2.6a1.79,1.79,0,0,1-.91.37A1.37,1.37,0,0,1,28.65,48h0A1.33,1.33,0,0,1,29.52,46Z"/><path class="cls-12" d="M29,48.08h0a1.23,1.23,0,0,0,1.23.68,2,2,0,0,0,.87-.36C32,47.77,33.12,46.21,33,46h0c0-.05-.14-.08-.3-.11a7.6,7.6,0,0,0-2.87.35C28.67,46.64,28.6,47.48,29,48.08Z"/><path class="cls-13" d="M29.42,48h0a1.58,1.58,0,0,0,.26.36.8.8,0,0,0,.48.25,1.43,1.43,0,0,0,.83-.32c.9-.58,2-2,1.88-2.26h0s-.13-.09-.28-.11a6.85,6.85,0,0,0-2.38.33C29.15,46.66,29.1,47.44,29.42,48Z"/><path class="cls-14" d="M31.06,47.64A1.3,1.3,0,0,1,30,48c-.22,0-.36.21-.25.34a.69.69,0,0,0,.44.22,1.4,1.4,0,0,0,.78-.29c.83-.55,1.85-1.88,1.75-2.08h0c0-.08-.22.08-.35.23A6.22,6.22,0,0,1,31.06,47.64Z"/><path class="cls-10" d="M67.56,39.66a7.39,7.39,0,0,1-2.79-1.19c-.13-.1-.21-.19-.21-.25h0c0-.29,1.88-1.18,3.07-1.3a2,2,0,0,1,1,.12,1.32,1.32,0,0,1,.75,1.29h0v0C69.35,39.09,68.84,39.85,67.56,39.66Z"/><path class="cls-12" d="M69.16,38.1h0a1.18,1.18,0,0,0-.72-1.18,1.92,1.92,0,0,0-.94-.11c-1.14.11-2.92.91-2.93,1.18h0s.07.13.2.23a7.38,7.38,0,0,0,2.67,1.09C68.66,39.48,69.14,38.79,69.16,38.1Z"/><path class="cls-13" d="M68.71,37.93h0a1.32,1.32,0,0,0,0-.44.67.67,0,0,0-.29-.44,1.45,1.45,0,0,0-.88-.14c-1.08.08-2.78.81-2.79,1.06h0c0,.05.07.13.19.23a7,7,0,0,0,2.23.87C68.25,39.23,68.7,38.58,68.71,37.93Z"/><path class="cls-14" d="M67.1,37.46a1.25,1.25,0,0,1,1.06.24c.18.11.42,0,.39-.18a.71.71,0,0,0-.27-.41,1.44,1.44,0,0,0-.82-.12,5,5,0,0,0-2.59,1h0c0,.09.24,0,.42,0A6.54,6.54,0,0,1,67.1,37.46Z"/><path class="cls-10" d="M61.82,43.73a7.5,7.5,0,0,1-2.38-1.84c-.1-.14-.15-.25-.13-.3h0v0c.09-.27,2.13-.66,3.32-.48a2.06,2.06,0,0,1,.92.37,1.27,1.27,0,0,1,.37,1.43h0A1.4,1.4,0,0,1,61.82,43.73Z"/><path class="cls-12" d="M63.78,42.62h0a1.2,1.2,0,0,0-.38-1.32,1.93,1.93,0,0,0-.88-.34c-1.13-.18-3.07.15-3.15.4h0c0,.06,0,.15.13.28a7.17,7.17,0,0,0,2.28,1.72C62.92,43.83,63.58,43.28,63.78,42.62Z"/><path class="cls-13" d="M63.39,42.35h0a1.62,1.62,0,0,0,.07-.44.69.69,0,0,0-.15-.5A1.42,1.42,0,0,0,62.5,41c-1.07-.19-2.9.08-3,.32h0s0,.15.11.27a6.94,6.94,0,0,0,1.93,1.4A1.22,1.22,0,0,0,63.39,42.35Z"/><path class="cls-14" d="M62,41.49a1.29,1.29,0,0,1,1,.49c.14.16.4.1.41-.07a.6.6,0,0,0-.15-.46,1.28,1.28,0,0,0-.76-.32,5.14,5.14,0,0,0-2.75.27h0c0,.09.22.1.42.08A6.38,6.38,0,0,1,62,41.49Z"/></svg>