<svg id="Layer_1" data-name="Layer 1" xmlns="http://www.w3.org/2000/svg" viewBox="0 0 100 100"><defs><style>.cls-1{opacity:0.5;}.cls-2{fill:#fff200;stroke:#494949;stroke-miterlimit:10;}.cls-3{fill:#a6c914;}.cls-4{fill:#323232;}</style></defs><ellipse class="cls-1" cx="50.45" cy="52.31" rx="42.3" ry="40.94"/><ellipse class="cls-2" cx="49.55" cy="48.69" rx="42.3" ry="40.94"/><ellipse class="cls-3" cx="49.55" cy="48.69" rx="36.57" ry="35.39"/><path class="cls-4" d="M38.89,63.45a10.88,10.88,0,0,0,4.2-1c2.57-1.29,4-4.14,4.26-6.93s-.3-5.57-.78-8.33a94.64,94.64,0,0,1-1.24-21.78,6.46,6.46,0,0,0-.73-4,1.68,1.68,0,0,0-1.91-.51C36.45,23.24,32.52,30,30.21,35.34A42.8,42.8,0,0,0,26.84,49a19.55,19.55,0,0,0,.66,7.58,10,10,0,0,0,5,6A12.88,12.88,0,0,0,38.89,63.45Z"/><path class="cls-4" d="M36.47,75.57a3,3,0,0,0,1.24-3.37,7.67,7.67,0,0,0-2-3.24c-2.94-3.2-6.75-6-11.16-6.32-.48,2.76.95,5.49,2.52,7.85C28.89,73.26,31.58,76.12,35,76A3.33,3.33,0,0,0,36.47,75.57Z"/><path class="cls-4" d="M60.09,63.45a10.88,10.88,0,0,1-4.2-1c-2.57-1.29-4-4.14-4.26-6.93s.3-5.57.78-8.33a94.64,94.64,0,0,0,1.24-21.78,6.46,6.46,0,0,1,.73-4,1.68,1.68,0,0,1,1.91-.51C62.53,23.24,66.46,30,68.77,35.34A42.8,42.8,0,0,1,72.14,49a19.55,19.55,0,0,1-.66,7.58,10,10,0,0,1-5,6A12.87,12.87,0,0,1,60.09,63.45Z"/><path class="cls-4" d="M62.51,75.57a3,3,0,0,1-1.24-3.37,7.67,7.67,0,0,1,2-3.24c2.94-3.2,6.75-6,11.16-6.32.48,2.76-.95,5.49-2.52,7.85C70.09,73.26,67.4,76.12,64,76A3.33,3.33,0,0,1,62.51,75.57Z"/></svg>