<svg id="Layer_1" data-name="Layer 1" xmlns="http://www.w3.org/2000/svg" xmlns:xlink="http://www.w3.org/1999/xlink" viewBox="0 0 100 100"><defs><style>.cls-1{fill:none;}.cls-2{clip-path:url(#clip-path);}.cls-3{fill:#f90d1e;}.cls-4{fill:#fc732d;}.cls-5{fill:#ffda00;}.cls-6{fill:#90d812;}.cls-7{fill:#28b3dd;}.cls-8{fill:#2f5bc9;}.cls-9{fill:#ac29b7;}.cls-10{opacity:0.5;}.cls-11{fill:#fff200;stroke:#494949;stroke-miterlimit:10;}.cls-12{fill:#a6c914;}.cls-13{fill:#323232;}</style><clipPath id="clip-path"><ellipse class="cls-1" cx="49.55" cy="-72.77" rx="36.57" ry="35.39"/></clipPath></defs><g class="cls-2"><path class="cls-3" d="M-14.51,58.7a112.72,112.72,0,0,1-6.25-89A115.17,115.17,0,0,1,2.07-69.2a119.21,119.21,0,0,1,37.8-28.37,122.75,122.75,0,0,1,46.21-12,123.74,123.74,0,0,1,45.79,5.92A121.05,121.05,0,0,1,172-81.52a116.53,116.53,0,0,1,29.32,36.58h0l9.76-4.69C178.85-112.53,100-138.23,35-107S-56.52.48-24.28,63.39l9.77-4.69Z"/><path class="cls-4" d="M172-81.52a121.05,121.05,0,0,0-40.15-22.1,123.74,123.74,0,0,0-45.79-5.92,122.75,122.75,0,0,0-46.21,12A119.21,119.21,0,0,0,2.07-69.2,115.17,115.17,0,0,0-20.76-30.34a112.72,112.72,0,0,0,6.25,89h0L-4.75,54h0a102.55,102.55,0,0,1-5.69-81A105,105,0,0,1,10.33-62.32,108.43,108.43,0,0,1,44.71-88.13,111.92,111.92,0,0,1,86.74-99a112.57,112.57,0,0,1,41.65,5.38,110.54,110.54,0,0,1,36.53,20.1,105.89,105.89,0,0,1,26.65,33.28h0l9.77-4.69h0A116.53,116.53,0,0,0,172-81.52Z"/><path class="cls-5" d="M5,49.33A92.35,92.35,0,0,1-.11-23.6a94.65,94.65,0,0,1,18.7-31.85,97.75,97.75,0,0,1,31-23.23,100.63,100.63,0,0,1,37.84-9.8,101.19,101.19,0,0,1,37.51,4.85,99.15,99.15,0,0,1,32.9,18.1,95.18,95.18,0,0,1,24,30h0l9.76-4.69h0a105.89,105.89,0,0,0-26.65-33.28,110.54,110.54,0,0,0-36.53-20.1A112.57,112.57,0,0,0,86.74-99a111.92,111.92,0,0,0-42,10.88A108.43,108.43,0,0,0,10.33-62.32,105,105,0,0,0-10.44-27,102.55,102.55,0,0,0-4.75,54h0L5,49.33Z"/><path class="cls-6" d="M157.81-65.53a99.15,99.15,0,0,0-32.9-18.1A101.19,101.19,0,0,0,87.4-88.48a100.63,100.63,0,0,0-37.84,9.8,97.75,97.75,0,0,0-31,23.23A94.65,94.65,0,0,0-.11-23.6,92.35,92.35,0,0,0,5,49.33H5l9.76-4.69h0a82.14,82.14,0,0,1-4.55-64.88A83.89,83.89,0,0,1,26.86-48.57,86.9,86.9,0,0,1,54.4-69.23,89.45,89.45,0,0,1,88.05-78a90.47,90.47,0,0,1,33.38,4.32,88.38,88.38,0,0,1,29.28,16.11,84.78,84.78,0,0,1,21.34,26.65h0l9.76-4.68h0A95.18,95.18,0,0,0,157.81-65.53Z"/><path class="cls-7" d="M24.53,40a72.1,72.1,0,0,1-7.9-28.52,72.09,72.09,0,0,1,3.91-28.3A73.72,73.72,0,0,1,35.12-41.7,76.13,76.13,0,0,1,59.24-59.78a78.3,78.3,0,0,1,29.47-7.65A79.09,79.09,0,0,1,118-63.64,77.27,77.27,0,0,1,143.6-49.53a74.3,74.3,0,0,1,18.69,23.34h0l9.76-4.69h0a84.78,84.78,0,0,0-21.34-26.65,88.38,88.38,0,0,0-29.28-16.11A90.47,90.47,0,0,0,88.05-78,89.45,89.45,0,0,0,54.4-69.23,86.9,86.9,0,0,0,26.86-48.57,83.89,83.89,0,0,0,10.22-20.24a82.14,82.14,0,0,0,4.55,64.88h0L24.53,40Z"/><path class="cls-8" d="M143.6-49.53A77.27,77.27,0,0,0,118-63.64a79.09,79.09,0,0,0-29.24-3.79,78.3,78.3,0,0,0-29.47,7.65A76.13,76.13,0,0,0,35.12-41.7,73.72,73.72,0,0,0,20.54-16.87a72.09,72.09,0,0,0-3.91,28.3A72.1,72.1,0,0,0,24.53,40h0l9.76-4.68h0a61.89,61.89,0,0,1-6.78-24.48,62,62,0,0,1,3.36-24.3A63.43,63.43,0,0,1,43.38-34.82a65.29,65.29,0,0,1,20.7-15.51A67.11,67.11,0,0,1,89.37-56.9a68,68,0,0,1,25.1,3.25,66.56,66.56,0,0,1,22,12.11,64,64,0,0,1,16,20h0l9.76-4.69h0A74.3,74.3,0,0,0,143.6-49.53Z"/><path class="cls-9" d="M44.06,30.58a51.59,51.59,0,0,1-5.67-20.42,51.58,51.58,0,0,1,2.81-20.3,52.72,52.72,0,0,1,10.45-17.8A54.4,54.4,0,0,1,68.93-40.89,56.18,56.18,0,0,1,90-46.37a56.65,56.65,0,0,1,21,2.72,55.41,55.41,0,0,1,18.39,10.11,53.14,53.14,0,0,1,13.37,16.72h0l9.77-4.68h0a64,64,0,0,0-16-20,66.56,66.56,0,0,0-22-12.11,68,68,0,0,0-25.1-3.25,67.11,67.11,0,0,0-25.29,6.57,65.29,65.29,0,0,0-20.7,15.51A63.43,63.43,0,0,0,30.87-13.51a62,62,0,0,0-3.36,24.3,61.89,61.89,0,0,0,6.78,24.48h0l9.77-4.69Z"/></g><ellipse class="cls-10" cx="50.45" cy="52.31" rx="42.3" ry="40.94"/><ellipse class="cls-11" cx="49.55" cy="48.69" rx="42.3" ry="40.94"/><ellipse class="cls-12" cx="49.55" cy="48.69" rx="36.57" ry="35.39"/><path class="cls-13" d="M52.74,57.52C50,54,50.75,48.45,50.5,44.35c-.28-4.83-.59-9.65-.85-14.48-.11-2.19-.22-4.38-.26-6.56A11.39,11.39,0,0,1,49.5,20c.11-.4.29-.86.7-1a1.22,1.22,0,0,1,.79.12c3.44,1.45,5.65,4.71,7.49,7.89a106.94,106.94,0,0,1,5.91,11.83,30.6,30.6,0,0,1,2.71,9.54,12.86,12.86,0,0,1-2.69,9.34A6.89,6.89,0,0,1,62,59.62a7.85,7.85,0,0,1-8.29-1.09A7,7,0,0,1,52.74,57.52Z"/><path class="cls-13" d="M47.16,58.33c2.39-3.77,1.07-9.22.89-13.32-.2-4.83-.38-9.66-.61-14.49-.11-2.19-.22-4.38-.4-6.56a11.27,11.27,0,0,0-.44-3.27c-.16-.39-.38-.82-.8-.9A1.18,1.18,0,0,0,45,20c-3.29,1.77-5.16,5.22-6.66,8.56a104.83,104.83,0,0,0-4.68,12.33A30.26,30.26,0,0,0,32,50.63a12.86,12.86,0,0,0,3.63,9,6.68,6.68,0,0,0,2.59,1.62,7.45,7.45,0,0,0,9-3Z"/><path class="cls-13" d="M57.12,75.94a4.19,4.19,0,0,1-.37-3.66c.57-1.5,2-2.55,3.2-3.6a38.91,38.91,0,0,0,4.37-4.24.33.33,0,0,1,.58.2,19.84,19.84,0,0,1-1.75,8,8.68,8.68,0,0,1-1.8,2.75,4.29,4.29,0,0,1-3,1.29,1.39,1.39,0,0,1-.64-.13A1.46,1.46,0,0,1,57.12,75.94Z"/><path class="cls-13" d="M45,77.64A4.19,4.19,0,0,0,45.32,74c-.57-1.5-2-2.55-3.2-3.6a39.78,39.78,0,0,1-4.37-4.24.33.33,0,0,0-.58.2,19.84,19.84,0,0,0,1.75,8,8.85,8.85,0,0,0,1.8,2.75,4.33,4.33,0,0,0,3,1.29,1.46,1.46,0,0,0,.65-.13A1.5,1.5,0,0,0,45,77.64Z"/></svg>