<svg id="Layer_1" data-name="Layer 1" xmlns="http://www.w3.org/2000/svg" viewBox="0 0 100 100"><defs><style>.cls-1{opacity:0.5;}.cls-2{fill:#fff200;stroke:#494949;stroke-miterlimit:10;}.cls-3{fill:#a6c914;}.cls-4{fill:#323232;}</style></defs><ellipse class="cls-1" cx="50.45" cy="51.81" rx="42.3" ry="40.94"/><ellipse class="cls-2" cx="49.55" cy="48.19" rx="42.3" ry="40.94"/><ellipse class="cls-3" cx="49.55" cy="48.19" rx="36.57" ry="35.39"/><path class="cls-4" d="M38.5,21.68s4.56.63,6.19,7.25S45,40.28,47.3,44.39c0,0,1.3,2.2,2.28.31s2.28-7.57,1.63-12.62,1.63-11.66,5.21-10.72S60,29.25,58.7,33.66s-5.54,10.73-4.56,13.25,2,4.73,7.82-.95c2.45-2.37,5.31-6.71,7.5-4.41,3.91,4.1-3.26,10.72-6.85,12.61s-5.86,9.78-6.52,14.2S52.18,77.19,47.62,74,44,65.83,39.48,60.47c0,0-2.61-5-6.2-7.57S26.77,45,29.7,42.81s5.54.94,8.15,5.36,2.6,7.25,4.56,6.31,1.3-7.57-.33-10.73-5.86-12.3-5.86-15.45S35.89,22.31,38.5,21.68Z"/></svg>