<svg id="Layer_1" data-name="Layer 1" xmlns="http://www.w3.org/2000/svg" viewBox="0 0 100 100"><defs><style>.cls-1{opacity:0.5;}.cls-2{fill:#fff200;stroke:#494949;stroke-miterlimit:10;}.cls-3{fill:#a6c914;}.cls-4{fill:#ff0;}</style></defs><ellipse class="cls-1" cx="50.45" cy="52.26" rx="42.3" ry="40.99"/><ellipse class="cls-2" cx="49.55" cy="48.74" rx="42.3" ry="40.99"/><ellipse class="cls-3" cx="49.55" cy="48.74" rx="36.57" ry="35.44"/><path class="cls-4" d="M38,45.6s2.88-1.23.1-2.82c-3.44-2-4.68-3.18-10.13-4.24-3.58-.69-6.2-2.94-4.33-5.2s6.12,1,9.16,4,7,6.35,8.41,5.6,2.43-2.4-1.36-4.82-5.73-3.9-4.26-6.88,5.91,2.47,6.43,5.84,3.18,3.47,3.36,2.09-1.6-2.59,0-4.27,3.26-.43,2.84,1.12.76,2.82,2,2.11,1.71-3.07,1.1-5.74c-1.46-6.45-2.8-7.21-1.32-9.88,1.31-2.35,6.23-3.12,5,4.61-.77,4.94-4.51,8.56-1.09,11.75s7.77-2.55,10.31-7c1.75-3,5.14-8.88,7.66-7,1.48,1.08-2,5.21-6.73,9.34-5.26,4.53-7.66,6.15-6,8s3.05,1.11,5.75-1.69,5.45.57,3.12,2.5-3.34,2.85-2.62,3.7,2.61-.28,5-1.06,6.94.59,5.22,2.93-5.64.09-8.19-.29-3.87-.06-4.44,1,.49,1.91,1.78,1.38,3.34,1.87.7,3.12-4.45-2.12-5.94-1.64,0,3.73,4.16,4.36S68.42,60.84,66.1,62s-4.35-.9-5.87-3.29-2.74-3.34-2.73-2.54S57,58,56.27,57.7s-1.37.46-.78,2.21,5.43,7.94,4.68,10.41-5.17.62-5.28-4.93c-.11-6.33-2.88-7.11-3.4-6.57s-1.42,2.26-2.68,2.41c-2.27.26-2.53-3-3.36-3.15-1.51-.28-3.6,1.4-4.26,4.61s.82,10.08-3.32,13-5.26-1.59-2.77-5.36,5.45-6.71,6.34-10.5-2.16-4.56-3.91-3.48c-3.55,2.21-5,4.55-7.75,6.72-2.09,1.63-6,.94-.9-2.79,2.28-1.65,9.75-3.51,10.46-6.71.27-1.22-2.12-1.07-3.72-1.09-1.91,0-2.07-2.63-.77-3.4C37.2,47.68,36.44,46.75,38,45.6Z"/></svg>