<svg id="Layer_1" data-name="Layer 1" xmlns="http://www.w3.org/2000/svg" viewBox="0 0 100 100"><defs><style>.cls-1{opacity:0.5;}.cls-2{fill:#fff200;stroke:#494949;stroke-miterlimit:10;}.cls-3{fill:#a6c914;}.cls-4{fill:#f7eeed;}.cls-5{fill:#e5d3c1;}.cls-6{fill:#fff;}</style></defs><ellipse class="cls-1" cx="50.45" cy="52.31" rx="42.3" ry="40.94"/><ellipse class="cls-2" cx="49.55" cy="48.69" rx="42.3" ry="40.94"/><ellipse class="cls-3" cx="49.55" cy="48.69" rx="36.57" ry="35.39"/><path class="cls-4" d="M49.48,24.37C42,24.56,31.52,35.8,30.89,51s10,22,18.22,22c8.66,0,19.72-5.11,19.09-21.76S56.77,24.2,49.48,24.37Z"/><path class="cls-5" d="M68.2,51.24C67.66,37.1,59.79,27.47,53,25c1.54,1.14,8.9,7.16,11.15,20,2.36,13.5-2.77,25.65-19.72,27.11l-.5,0a16.78,16.78,0,0,0,5.21.87C57.77,73,68.83,67.89,68.2,51.24Z"/><path class="cls-6" d="M46.28,27.72c-3-.33-9.92,10.82-8.67,17.14s6.91,3.52,8.54-2.19S49.67,28.08,46.28,27.72Z"/></svg>