<svg id="Layer_1" data-name="Layer 1" xmlns="http://www.w3.org/2000/svg" viewBox="0 0 100 100"><defs><style>.cls-1{opacity:0.5;}.cls-2{fill:#fff200;stroke:#494949;stroke-miterlimit:10;}.cls-3{fill:#a6c914;}.cls-4{fill:#e4051f;}.cls-5{fill:#00798b;}.cls-6{fill:#ffcb0f;}.cls-7{fill:#c3d200;}.cls-8{fill:#702d32;}</style></defs><ellipse class="cls-1" cx="50.45" cy="52.31" rx="42.3" ry="40.94"/><ellipse class="cls-2" cx="49.55" cy="48.69" rx="42.3" ry="40.94"/><ellipse class="cls-3" cx="49.55" cy="48.69" rx="36.57" ry="35.39"/><path class="cls-4" d="M70.37,33.37c0-.06-.06,0-.1,0-.46.31-1.36-.51-1.61-.79s-.62-.76-1-1.12a6.69,6.69,0,0,0-2.16-1.59c-1.16-.51-2.87-.91-4-.09h0c-.06,0-.11,0-.1.11h0s0,0,0,0h0v0c0,.11.17,0,.17-.06s1.33.13,1.48.16a6.66,6.66,0,0,1,1.8.64,6.08,6.08,0,0,1,1.49,1c.39.44.81.88,1.22,1.3a3.59,3.59,0,0,0,2.35,1.43C70.42,34.45,70.37,33.63,70.37,33.37Z"/><path class="cls-5" d="M69.33,38.65a0,0,0,0,0,0-.06,4.39,4.39,0,0,1-2.42-2.37c-.48-.94-.84-1.93-1.3-2.87a11.1,11.1,0,0,0-1.78-2.72,3.61,3.61,0,0,0-2.24-.92,0,0,0,0,0,0,0l-.11,0s-.14.08-.07.1c1.5.36,2.39,1.84,3,3.11a34.77,34.77,0,0,1,1.43,4,4.46,4.46,0,0,0,2.35,2.59C68.75,39.83,69.12,39.09,69.33,38.65Z"/><path class="cls-6" d="M70.13,37.43a9.74,9.74,0,0,1-3.64-3.65,10.37,10.37,0,0,0-2-2.3c-.82-.7-1.74-1.61-2.9-1.62h0c2.07-1.12,4.32,1.54,5.47,2.92q.25.31.54.63a2.09,2.09,0,0,0,.24.28,8.67,8.67,0,0,0,1.35,1.25,5,5,0,0,0,2.29,1,6.06,6.06,0,0,1-1.06,1.37A.19.19,0,0,1,70.13,37.43Z"/><path class="cls-4" d="M33.11,64.05a3.55,3.55,0,0,0-1.52-2.26c-.45-.39-.91-.78-1.37-1.15a5.66,5.66,0,0,1-1.06-1.42,6.26,6.26,0,0,1-.69-1.74c0-.13-.21-1.42-.2-1.42s.17-.17.06-.17h0s0,0,0,0v0a.13.13,0,0,0-.12.1v0c-.83,1.09-.39,2.74.17,3.85A6.3,6.3,0,0,0,30,62c.37.32.79.59,1.17.9s1.15,1.09.84,1.55c0,0,0,.09,0,.09C32.33,64.48,33.18,64.51,33.11,64.05Z"/><path class="cls-5" d="M38.32,62.2A4.58,4.58,0,0,0,35.6,60a36.7,36.7,0,0,1-4.13-1.31c-1.32-.54-2.87-1.38-3.26-2.82,0-.07-.12,0-.11.07l0,.1,0,0a3.46,3.46,0,0,0,1,2.16A11.68,11.68,0,0,0,32,59.85c1,.43,2,.76,3,1.21a4.4,4.4,0,0,1,2.5,2.3s0,0,.06,0C38,63.17,38.71,62.8,38.32,62.2Z"/><path class="cls-6" d="M36.24,64.18a9.68,9.68,0,0,0-3.83-3.45A11,11,0,0,1,30,58.8c-.74-.79-1.7-1.66-1.73-2.78,0,0,0,0,0-.05-1.12,2,1.67,4.15,3.12,5.24q.33.24.66.51l.29.22a8.87,8.87,0,0,1,1.32,1.29,4.88,4.88,0,0,1,1.13,2.2,6.13,6.13,0,0,0,1.39-1.05S36.28,64.25,36.24,64.18Z"/><path class="cls-4" d="M69.8,71.25s-9.48-26-7.92-41.78c0,0-18.52-.33-32-3.35,0,0,.33,20.08-1.79,30C28.08,56.13,60.32,62,69.8,71.25Z"/><path class="cls-5" d="M44.62,40.65A105.59,105.59,0,0,1,61.67,29.46c-2.11,0-19.16-.51-31.8-3.34C29.87,26.12,36.53,32.29,44.62,40.65Z"/><path class="cls-7" d="M44.62,40.65c-8.09-8.36-14.75-14.53-14.75-14.53s.33,20.08-1.79,30A137,137,0,0,1,44.62,40.65Z"/><path class="cls-6" d="M61.88,29.47h-.21A105.59,105.59,0,0,0,44.62,40.65C53.64,50,64.44,62,69.8,71.25,69.8,71.25,60.32,45.23,61.88,29.47Z"/><path class="cls-4" d="M28.08,56.13S60.32,62,69.8,71.25C64.44,62,53.64,50,44.62,40.65A137,137,0,0,0,28.08,56.13Z"/><path class="cls-8" d="M69.8,71.41a.16.16,0,0,1-.12,0c-9.33-9.14-41.31-15-41.63-15.07a.17.17,0,0,1-.11-.06.2.2,0,0,1,0-.13c2.09-9.8,1.78-29.78,1.78-30a.18.18,0,0,1,.06-.13.17.17,0,0,1,.14,0c13.33,3,31.8,3.34,32,3.35a.18.18,0,0,1,.12.05.17.17,0,0,1,0,.12C60.51,45,69.87,70.94,70,71.2a.15.15,0,0,1-.07.19ZM28.28,56c2.48.46,31.53,6.05,41.14,14.66-1.43-4.09-9.05-26.78-7.72-41-1.94-.05-19-.51-31.66-3.31C30.06,28.47,30.23,46.66,28.28,56Z"/><path class="cls-8" d="M28.08,56.3l-.07,0a.16.16,0,0,1-.08-.22,60.24,60.24,0,0,1,33.9-26.75.17.17,0,0,1,.21.11.15.15,0,0,1-.11.2,59.81,59.81,0,0,0-33.7,26.59A.19.19,0,0,1,28.08,56.3Z"/><path class="cls-8" d="M69.8,71.41a.17.17,0,0,1-.14-.07C53.24,47.45,30,26.45,29.75,26.24a.17.17,0,0,1,0-.23A.17.17,0,0,1,30,26c.23.21,23.52,21.24,40,45.16a.17.17,0,0,1,0,.23Z"/><polygon class="cls-5" points="33.98 41.04 34.8 41.57 35.71 41.22 35.44 42.13 36.07 42.87 35.09 42.9 34.56 43.7 34.23 42.81 33.27 42.58 34.05 41.99 33.98 41.04"/><polygon class="cls-5" points="39.63 38.33 40.06 38.61 40.55 38.43 40.41 38.91 40.74 39.3 40.22 39.32 39.94 39.75 39.76 39.28 39.25 39.15 39.66 38.84 39.63 38.33"/><polygon class="cls-5" points="33.51 32.95 33.94 33.24 34.42 33.05 34.28 33.54 34.61 33.93 34.09 33.94 33.81 34.37 33.63 33.89 33.13 33.77 33.54 33.46 33.51 32.95"/><polygon class="cls-4" points="53.48 45.58 54.29 46.11 55.2 45.76 54.94 46.67 55.56 47.4 54.58 47.44 54.06 48.24 53.72 47.35 52.77 47.11 53.54 46.52 53.48 45.58"/><polygon class="cls-4" points="60.4 54.14 60.79 54.39 61.23 54.23 61.1 54.66 61.4 55.02 60.93 55.03 60.68 55.42 60.51 54.99 60.06 54.88 60.43 54.59 60.4 54.14"/><polygon class="cls-4" points="59.12 42.87 59.56 43.15 60.05 42.96 59.9 43.45 60.24 43.84 59.71 43.86 59.43 44.29 59.25 43.81 58.74 43.69 59.16 43.37 59.12 42.87"/><polygon class="cls-4" points="53 37.49 53.43 37.77 53.92 37.59 53.77 38.07 54.1 38.46 53.58 38.48 53.3 38.9 53.13 38.43 52.62 38.3 53.03 37.99 53 37.49"/><polygon class="cls-6" points="39.92 48.33 40.74 48.86 41.65 48.51 41.38 49.42 42.01 50.15 41.03 50.19 40.5 50.99 40.16 50.1 39.22 49.86 39.99 49.28 39.92 48.33"/><polygon class="cls-6" points="49.51 51.85 50 52.16 50.54 51.95 50.38 52.5 50.76 52.94 50.17 52.96 49.85 53.44 49.65 52.91 49.08 52.77 49.55 52.41 49.51 51.85"/><polygon class="cls-6" points="35.53 53.38 36.02 53.7 36.57 53.49 36.41 54.04 36.79 54.48 36.2 54.5 35.88 54.98 35.68 54.45 35.11 54.3 35.57 53.95 35.53 53.38"/><polygon class="cls-6" points="58.19 61.54 58.47 61.72 58.78 61.6 58.69 61.91 58.9 62.16 58.56 62.18 58.38 62.45 58.27 62.15 57.95 62.06 58.21 61.87 58.19 61.54"/><polygon class="cls-7" points="37.23 29.89 37.51 30.07 37.82 29.95 37.73 30.26 37.94 30.51 37.61 30.52 37.43 30.8 37.31 30.49 36.99 30.41 37.25 30.21 37.23 29.89"/><polygon class="cls-7" points="49.68 32.02 50.13 32.31 50.64 32.12 50.49 32.63 50.84 33.03 50.3 33.05 50 33.5 49.82 33.01 49.29 32.87 49.72 32.55 49.68 32.02"/><polygon class="cls-7" points="42.15 36.65 42.39 36.8 42.66 36.7 42.58 36.97 42.77 37.19 42.48 37.2 42.32 37.44 42.22 37.17 41.94 37.1 42.17 36.93 42.15 36.65"/></svg>