<svg id="Layer_1" data-name="Layer 1" xmlns="http://www.w3.org/2000/svg" viewBox="0 0 100 100"><defs><style>.cls-1{opacity:0.5;}.cls-2{fill:#fff200;stroke:#494949;stroke-miterlimit:10;}.cls-3{fill:#a6c914;}.cls-4{fill:#e2e2e2;}.cls-5{fill:#878787;}.cls-6{fill:#a5a5a5;}.cls-7{fill:#c9c9c9;}.cls-8{fill:#fff;}</style></defs><ellipse class="cls-1" cx="50.46" cy="52.32" rx="42.29" ry="40.93"/><ellipse class="cls-2" cx="49.54" cy="48.68" rx="42.29" ry="40.93"/><ellipse class="cls-3" cx="49.54" cy="48.68" rx="36.57" ry="35.39"/><path class="cls-4" d="M63.93,63.65a1.73,1.73,0,0,1-1.53-.88,1.65,1.65,0,0,1,.71-2.26c8.36-4.36,13-11.93,13.69-17.11.45-3.15-.29-5.87-2-7.45-1.52-1.39-3.74-1.86-6.42-1.36a12.61,12.61,0,0,0-8.64,7.22,1.74,1.74,0,0,1-2.19,1,1.68,1.68,0,0,1-1.08-2.13,16,16,0,0,1,11.1-9.39l.1,0c3.79-.72,7.16.06,9.5,2.2,2.55,2.33,3.67,6.1,3.08,10.33a23.69,23.69,0,0,1-4.78,10.58,32,32,0,0,1-10.71,9A1.7,1.7,0,0,1,63.93,63.65Z"/><path class="cls-5" d="M57.85,74.66c0,2.06-4.65,3.93-10.39,3.93s-10.38-1.87-10.38-3.93,4.65-3.74,10.38-3.74S57.85,72.59,57.85,74.66Z"/><path class="cls-4" d="M62.3,47.39C60.65,44,55.49,34,61.47,32a3.48,3.48,0,0,0,1.15-.61c1.84-1.48-.55-2.88-2.22-3.49a46.17,46.17,0,0,0-12.93-1.73c-2.06-.09-10.22.14-15.08,2.59l-1.25.67c-1,.58-1.73.72-2.1,1.48-.43,1.19.44,2,1.63,1.77s3.48-.43,4.86.87c2.39,3.5-1.52,10.95-2.89,13.8-1.7,3.53-6.25,12.8-.6,20.86,5,7.11,13,7.54,15.43,7.54s10.45-.43,15.43-7.54C68.55,60.19,64,50.92,62.3,47.39Z"/><path class="cls-6" d="M60.92,30.09c0-1.34-5.65-2.42-12.62-2.42a51.47,51.47,0,0,0-8.6.65,23,23,0,0,0-7.35,2.42c-1,.84.28.88,1.27.77s3.4.07,8,.65l1.25.11c1.64.15,3.46.23,5.39.23h.21c.91,0,1.79,0,2.58-.06C56.72,32.2,60.92,31.24,60.92,30.09Z"/><path class="cls-7" d="M47.37,75.72a19.28,19.28,0,0,0,11-3.12,16.22,16.22,0,0,0,6.63-9,19.25,19.25,0,0,0-.69-11.3C63,48.43,60.8,44.84,59.46,41c-.79-2.28-1.36-5-.36-7.13-2.22,2.5-2.86,7-2.44,10.75.46,4.07,2.31,7.92,2.56,12a15.72,15.72,0,0,1-1.74,8.12C55.18,69.13,51,72.19,47.37,75.72Z"/><path class="cls-8" d="M31.09,58.67c-.36,4.52,1.8,8.78,3.5,8.9s-1.6-4.23-1.23-8.75,2.27-7.84.56-8S31.46,54.15,31.09,58.67Z"/></svg>