<svg id="Layer_1" data-name="Layer 1" xmlns="http://www.w3.org/2000/svg" viewBox="0 0 100 100"><defs><style>.cls-1,.cls-10{opacity:0.5;}.cls-2{fill:#fff200;stroke:#494949;stroke-miterlimit:10;}.cls-3{fill:#a6c914;}.cls-4{fill:#4e8e33;}.cls-5{fill:#fff800;}.cls-6{fill:#eca300;}.cls-7{fill:#cbad06;}.cls-8{fill:#f7b500;}.cls-9{fill:#ffefab;opacity:0.4;}.cls-10{fill:#897200;}</style></defs><ellipse class="cls-1" cx="50.45" cy="51.81" rx="42.3" ry="40.94"/><ellipse class="cls-2" cx="49.55" cy="48.19" rx="42.3" ry="40.94"/><ellipse class="cls-3" cx="49.55" cy="48.19" rx="36.57" ry="35.39"/><path class="cls-4" d="M55.56,32.09c0-1.74,2.16-6.49,5-8.53-2.33.38-6.89,2.72-8.83,5.91-1.3-4.09-2.61-9.34-6-12.31,1.43,3.47,1.15,8.39,1,12.1-3.06-2.64-7-6.15-11.6-5,3.15,1.49,6.09,5.93,7.63,8.88-2.43-1.57-9.71-2.58-11.6-.2,2.84,0,6.38,1.45,8.86,2.76a16.27,16.27,0,0,1,3.73,2.54c.91.88,1.33,2.11,2.29,2.86l.36.52a30.32,30.32,0,0,0,7.49-.72c.71-5.28,6.3-9.14,11.08-11.41C61.61,29.44,58.53,29.83,55.56,32.09Z"/><path class="cls-5" d="M50.27,37.68c-4.29-.13-15.18,1.88-16.82,15.8C31.72,68.06,34.56,78,49.67,78.41s16.7-12,16.44-20S62.82,38.06,50.27,37.68Z"/><path class="cls-6" d="M65.53,53.06c-.06-.31-.12-.62-.19-.94-.89.46-1.84,1-2.84,1.58a68.09,68.09,0,0,0-4.59-5.6l-.1-.11a28.34,28.34,0,0,1,3-1.82c.65-.33,1.32-.65,2-1-.07-.13-.15-.26-.23-.39-1.41.77-3.1,1.74-5,2.91-1.77-2-3.55-4.08-5.2-6.13a20.38,20.38,0,0,1,2.22-1.35c.69-.35,1.42-.7,2.13-1q-.45-.22-.93-.42c-1.16.58-2.48,1.3-3.93,2.18-.91-1.14-1.78-2.25-2.57-3.29-.36,0-.73,0-1.13.09l2.94,3.67a67.38,67.38,0,0,0-6,4.21c-1.71-2.06-3.21-3.92-4.31-5.31-.3.2-.59.4-.88.62,1.16,1.36,2.73,3.19,4.47,5.27-1.21,1-2.45,2.07-3.7,3.24l-1.8,1.65c-1.36-1.64-2.59-3.15-3.6-4.41-.17.37-.34.76-.5,1.16,1,1.16,2.09,2.5,3.31,3.95-1.63,1.44-3.31,2.86-4.92,4.18l-.09,1.22,5.63-4.67c1.41,1.68,2.94,3.47,4.49,5.26l.08.1c-2,1.61-3.94,3.24-5.7,4.74C36,60.82,34.44,59,33.09,57.44c0,.54-.06,1.08-.07,1.61,1.15,1.37,2.39,2.85,3.66,4.4L33.5,66.19c.09.46.19.9.3,1.33l3.62-3.16,1.24,1.53c1.23,1.51,2.38,3,3.46,4.33-1.88,1.59-3.53,3-4.71,3.92a9.2,9.2,0,0,0,.87.77c1.15-1,2.71-2.3,4.49-3.84,1.71,2.2,3.19,4.19,4.4,5.93l-1.23,1.07c.46.08.94.14,1.44.19l.42-.36.28.42c.45,0,.91.07,1.39.08-.24-.43-.48-.87-.74-1.31,1.66-1.44,3.49-3,5.37-4.58.23.45.44.87.64,1.28.59,1.25,1.18,2.6,1.67,3.77l.86-.31a51.89,51.89,0,0,0-2.43-5.35l.44-.37Q58,69.25,60.46,67.3c.25.44.46.84.63,1.19.68,1.41,1.34,3,1.87,4.22.21-.31.4-.62.59-.94a53.46,53.46,0,0,0-2.31-5.08C63,65.31,64.57,64.09,66,63c0-.53.08-1.07.1-1.59a63.29,63.29,0,0,0-5.62,3.83,61.54,61.54,0,0,0-3.93-6.13c2.29-1.84,4.05-3.12,5.52-4.08a65,65,0,0,1,4.06,5.66c0-.52,0-1,0-1.52-.86-1.47-1.88-3.07-3.08-4.76C64,53.89,64.77,53.45,65.53,53.06Zm-13.89-11,3.24,4,1.76,2.17c-1.82,1.14-3.81,2.45-5.9,3.93-1.67-1.88-3.32-3.81-4.84-5.63C48.1,44.8,50,43.27,51.64,42.11Zm3.11,17Q53.09,60.43,51.41,62c-.59.55-1.19,1.11-1.8,1.66-1.1-1.45-2.32-2.94-3.69-4.43L44.85,58h0c2-1.63,3.81-3.14,5.54-4.51C52,55.51,53.44,57.37,54.75,59.08ZM39.54,51.89c2-1.69,3.91-3.27,5.65-4.7,1.4,1.68,2.9,3.49,4.38,5.33.1.11.19.23.28.35-1.24.89-2.52,1.85-3.81,2.86l-1.9,1.51C42.55,55.45,41,53.61,39.54,51.89Zm1.35,14.45c-.85-.93-1.69-1.87-2.52-2.8C40.12,62,42,60.39,44,58.74c1.91,2.23,3.46,4.11,4.72,5.72-1.83,1.65-3.68,3.26-5.4,4.73C42.57,68.24,41.76,67.29,40.89,66.34Zm7.27,9.79A61.16,61.16,0,0,0,44,70c1.69-1.47,3.53-3.07,5.39-4.72a51.4,51.4,0,0,1,4.1,6.06C51.65,73,49.83,74.66,48.16,76.13Zm11.47-10.2c-1.33,1-2.66,2.18-4,3.42-.48.46-1,.91-1.45,1.35a60.7,60.7,0,0,0-3.94-6.17c2-1.77,3.71-3.25,5.22-4.49C57.18,62.31,58.59,64.3,59.63,65.93Zm-3.78-7.72c-1.07-1.4-2.26-2.84-3.57-4.28-.34-.36-.67-.73-1-1.1,2.1-1.66,4-3.08,5.61-4.21,1.67,2.06,3.22,4,4.58,5.69A62.16,62.16,0,0,0,55.85,58.21Z"/><path class="cls-7" d="M48.28,57.38s.95,1.1,1.76,1.08,1.65-1.31,1.65-1.31-.16,2.47-1.45,2.67S48.28,57.38,48.28,57.38Z"/><path class="cls-7" d="M42.66,50.85s1,1.39,1.83,1.37,1.58-1.6,1.58-1.6-.16,2.47-1.44,2.68S42.66,50.85,42.66,50.85Z"/><path class="cls-7" d="M36.88,44.39s1,1.39,1.83,1.37,1.58-1.6,1.58-1.6-.16,2.47-1.44,2.68S36.88,44.39,36.88,44.39Z"/><path class="cls-7" d="M49.32,46.45s1,1.38,1.83,1.37,1.58-1.6,1.58-1.6-.17,2.46-1.45,2.67S49.32,46.45,49.32,46.45Z"/><path class="cls-7" d="M54.4,52.44s.91,1.11,1.72,1.09,1.69-1.32,1.69-1.32-.16,2.47-1.45,2.68S54.4,52.44,54.4,52.44Z"/><path class="cls-7" d="M35.89,56.38a2.66,2.66,0,0,0,1.62.89c.72,0,1.79-1.11,1.79-1.11s-.17,2.46-1.45,2.67S35.89,56.38,35.89,56.38Z"/><path class="cls-7" d="M41.55,63.12s.93,1,1.73,1S45,62.9,45,62.9s-.17,2.46-1.45,2.67S41.55,63.12,41.55,63.12Z"/><path class="cls-7" d="M35,68.71s1,1,1.82,1,1.59-1.22,1.59-1.22-.16,2.46-1.45,2.67S35,68.71,35,68.71Z"/><path class="cls-7" d="M46.94,69.55s.94,1.06,1.75,1,1.66-1.26,1.66-1.26S50.19,71.79,48.9,72,46.94,69.55,46.94,69.55Z"/><path class="cls-7" d="M54.2,76.18s-.77,1.42-1.42,1.44-1.64-1.23-1.64-1.23a4.57,4.57,0,0,0,1,2c.46,0,.9-.08,1.33-.14A4.17,4.17,0,0,0,54.2,76.18Z"/><path class="cls-7" d="M53.56,65.39s.95,1,1.76,1S57,65.16,57,65.16s-.16,2.47-1.44,2.67S53.56,65.39,53.56,65.39Z"/><path class="cls-7" d="M57.48,72.11s.82,1.11,1.59,1.09,1.68-1.31,1.68-1.31-.16,2.36-1.39,2.56S57.48,72.11,57.48,72.11Z"/><path class="cls-7" d="M59.74,59.16s1,1,1.79,1,1.62-1.26,1.62-1.26S63,61.4,61.7,61.61,59.74,59.16,59.74,59.16Z"/><path class="cls-7" d="M56.35,42.69s.93,1.05,1.74,1,1.67-1.26,1.67-1.26-.17,2.46-1.45,2.67S56.35,42.69,56.35,42.69Z"/><path class="cls-7" d="M63.76,50.74a1.41,1.41,0,0,0,1-1c-.06-.21-.13-.42-.2-.64-.27.33-.59.64-.89.65-.73,0-1.65-1.23-1.65-1.23S62.61,50.93,63.76,50.74Z"/><path class="cls-7" d="M44,40.29s1,1,1.76,1,1.65-1.22,1.65-1.22-.16,2.47-1.45,2.68S44,40.29,44,40.29Z"/><path class="cls-8" d="M39.89,76a.32.32,0,0,1,0,.06l.05,0Z"/><path class="cls-7" d="M43,75.77A4.65,4.65,0,0,1,42,77l.63.24A5,5,0,0,0,43,75.77Z"/><path class="cls-7" d="M64.35,66.84A6,6,0,0,0,65,68.36c.07-.21.13-.42.19-.64A5,5,0,0,1,64.35,66.84Z"/><path class="cls-9" d="M57,43.34s.1-2.85,1.81-1.1,4,7.28,4.58,10.32-1.72,1.39-1.91.37S59.14,45.1,57,43.34Z"/><path class="cls-10" d="M43.68,39c-4.19.5-7.61,5.49-9,9-1.6,4.09-1.78,8.57-1.68,13,.09,3.53.39,7.19,2.12,10.29,2.47,4.42,7.72,7.06,12.91,7.06-3-2.4-6-4.91-7.83-8.25A23.35,23.35,0,0,1,38,60.4,39.77,39.77,0,0,1,38.68,49a23.28,23.28,0,0,1,1.9-5.36A19.54,19.54,0,0,1,42,41.22C42.51,40.55,43.54,39.69,43.68,39Z"/></svg>