<svg id="Layer_1" data-name="Layer 1" xmlns="http://www.w3.org/2000/svg" viewBox="0 0 100 100"><defs><style>.cls-1{opacity:0.5;}.cls-2{fill:#fff200;stroke:#494949;stroke-miterlimit:10;}.cls-3{fill:#a6c914;}.cls-4{fill:#de888d;}.cls-5{fill:#f77784;}.cls-6{fill:#ffabb5;}.cls-13,.cls-7,.cls-9{fill:#fff;}.cls-12,.cls-7{opacity:0.4;}.cls-8{fill:#d85d69;}.cls-9{opacity:0.2;}.cls-10{opacity:0.05;}.cls-11{fill:#ff9ca2;}</style></defs><ellipse class="cls-1" cx="50.45" cy="52.31" rx="42.3" ry="40.94"/><ellipse class="cls-2" cx="49.55" cy="48.69" rx="42.3" ry="40.94"/><ellipse class="cls-3" cx="49.55" cy="48.69" rx="36.57" ry="35.39"/><path class="cls-4" d="M73.23,38.81a1.16,1.16,0,0,0-.15-.5,1.55,1.55,0,0,0-.39-.47,2.67,2.67,0,0,0-.62-.41,6.3,6.3,0,0,0-.85-.33L54.64,32.29a7,7,0,0,0-1.5-.24,8.81,8.81,0,0,0-1.62.05,8.62,8.62,0,0,0-1.56.32,5.82,5.82,0,0,0-1.31.57L26.19,46.86a3.65,3.65,0,0,0-.67.5,3.07,3.07,0,0,0-.46.52,2.13,2.13,0,0,0-.24.54,1.14,1.14,0,0,0,0,.52c.56,3.1,1.12,6.19,1.69,9.29a1.45,1.45,0,0,1,0-.55,1.86,1.86,0,0,1,.22-.56,2.72,2.72,0,0,1,.44-.55,4.37,4.37,0,0,1,.64-.52L49.54,41.68a5.2,5.2,0,0,1,1.28-.59,7.22,7.22,0,0,1,1.51-.33,8.35,8.35,0,0,1,1.58,0,6.74,6.74,0,0,1,1.46.27l16.18,5.18a4.81,4.81,0,0,1,.82.35A2.87,2.87,0,0,1,73,47a1.91,1.91,0,0,1,.38.49,1.35,1.35,0,0,1,.14.54Z"/><path class="cls-5" d="M54.47,35.71a6.24,6.24,0,0,0-1.27-.21,8,8,0,0,0-1.38,0,6.86,6.86,0,0,0-1.32.27,4.79,4.79,0,0,0-1.12.49L26.16,50.77l17,6.69a6.75,6.75,0,0,0,1.86.42,10.06,10.06,0,0,0,2.05,0,10,10,0,0,0,2-.46,6.57,6.57,0,0,0,1.65-.85L72,40.88Z"/><path class="cls-6" d="M77.2,38a3.58,3.58,0,0,0-1.3-1.42,8.39,8.39,0,0,0-2.4-1.05L57,30.81a13.85,13.85,0,0,0-2.82-.45,18.13,18.13,0,0,0-3,.1,16.66,16.66,0,0,0-2.91.6,11.22,11.22,0,0,0-2.48,1.06L23.23,45.73a7.39,7.39,0,0,0-2,1.7,3.21,3.21,0,0,0-.74,1.79,2.36,2.36,0,0,0,.59,1.68,4.72,4.72,0,0,0,2,1.35l17.17,7a13,13,0,0,0,3.44.81A17.56,17.56,0,0,0,47.49,60a16.93,16.93,0,0,0,3.7-.86,11.74,11.74,0,0,0,3.05-1.6l21.7-16.38a3.69,3.69,0,0,0,1.31-1.6A2.06,2.06,0,0,0,77.2,38Zm-4.06,1.32a2,2,0,0,1-.71.83l-21.83,16A6.16,6.16,0,0,1,49,57a8.58,8.58,0,0,1-1.91.45,9.39,9.39,0,0,1-2,0A6.52,6.52,0,0,1,43.32,57L26.18,50.28a2.8,2.8,0,0,1-1.06-.7,1.24,1.24,0,0,1-.33-.87,1.59,1.59,0,0,1,.36-1,3.65,3.65,0,0,1,1-.9L48.65,33A5.82,5.82,0,0,1,50,32.42a8.62,8.62,0,0,1,1.56-.32,8.81,8.81,0,0,1,1.62-.05,7,7,0,0,1,1.5.24L71.22,37.1a4.36,4.36,0,0,1,1.26.57,1.78,1.78,0,0,1,.66.76A1.07,1.07,0,0,1,73.14,39.27Z"/><path class="cls-7" d="M49,57a8.58,8.58,0,0,1-1.91.45,9.39,9.39,0,0,1-2,0A6.52,6.52,0,0,1,43.32,57L29.75,51.68l13.57,6a5.88,5.88,0,0,0,1.79.46,8.23,8.23,0,0,0,2,0A8.12,8.12,0,0,0,49,57.6a6.09,6.09,0,0,0,1.6-.92l6.07-5L50.6,56.15A6.16,6.16,0,0,1,49,57Z"/><path class="cls-7" d="M24.1,46.22,44.63,32.8,23.23,45.73a7.39,7.39,0,0,0-2,1.7,3.21,3.21,0,0,0-.74,1.79,2.36,2.36,0,0,0,.59,1.68,4.72,4.72,0,0,0,2,1.35l.23.09a3.91,3.91,0,0,1-1.14-.88,2.43,2.43,0,0,1-.65-1.66A3.22,3.22,0,0,1,22.16,48,7.35,7.35,0,0,1,24.1,46.22Z"/><path class="cls-8" d="M77.39,38.78a2.06,2.06,0,0,1-.08.6,2.6,2.6,0,0,1-.26.6,3,3,0,0,1-.46.59,4.68,4.68,0,0,1-.65.58L54.24,57.53a11.74,11.74,0,0,1-3.05,1.6,16.93,16.93,0,0,1-3.7.86,17.56,17.56,0,0,1-3.83.06,13,13,0,0,1-3.44-.81l-17.17-7a5.84,5.84,0,0,1-1-.51,4.16,4.16,0,0,1-.75-.59,3.08,3.08,0,0,1-.51-.66,2.44,2.44,0,0,1-.26-.71l1.82,9.29a2.65,2.65,0,0,0,.27.74,3.18,3.18,0,0,0,.5.69,4.7,4.7,0,0,0,.74.63,6.42,6.42,0,0,0,1,.53l16.74,7.4a11.7,11.7,0,0,0,3.34.86,16,16,0,0,0,7.29-.9,10.56,10.56,0,0,0,2.94-1.64l21-16.93a4.08,4.08,0,0,0,.63-.61,3.6,3.6,0,0,0,.45-.62,2.52,2.52,0,0,0,.25-.62,2.72,2.72,0,0,0,.08-.63Z"/><path class="cls-9" d="M22.05,51.74a4.16,4.16,0,0,1-.75-.59,3.08,3.08,0,0,1-.51-.66,2.44,2.44,0,0,1-.26-.71l1.82,9.29a2.65,2.65,0,0,0,.27.74,3.18,3.18,0,0,0,.5.69,4.7,4.7,0,0,0,.74.63l.09,0L22.1,51.77Z"/><path class="cls-10" d="M77.39,38.78a2.06,2.06,0,0,1-.08.6,2.6,2.6,0,0,1-.26.6,3,3,0,0,1-.46.59,4.68,4.68,0,0,1-.65.58L74.3,42.39l.16,9.42,1.68-1.36a4.08,4.08,0,0,0,.63-.61,3.6,3.6,0,0,0,.45-.62,2.52,2.52,0,0,0,.25-.62,2.72,2.72,0,0,0,.08-.63Z"/><path class="cls-4" d="M54.4,38.17a1.58,1.58,0,0,1,.54-.22,2.63,2.63,0,0,1,.64-.06,4.6,4.6,0,0,1,.71.07c.25,0,.51.1.77.16l.67.2a3.67,3.67,0,0,1,.48.17,1.05,1.05,0,0,1,.27.17.24.24,0,0,1,.1.17l-.09-1.14a.28.28,0,0,0-.1-.17,1,1,0,0,0-.28-.17l-.47-.17L57,37c-.27-.07-.52-.13-.77-.17a4.56,4.56,0,0,0-.72-.06,2.25,2.25,0,0,0-.64.06,1.69,1.69,0,0,0-.54.21l-.85.55.11,1.13Z"/><path class="cls-4" d="M59.76,40.21,60,40l.27-.18.16-.11a1.64,1.64,0,0,0,.28-.23,1.41,1.41,0,0,0,.2-.24,1.34,1.34,0,0,0,.12-.24.72.72,0,0,0,0-.25L61,37.63a.71.71,0,0,1,0,.25,1.34,1.34,0,0,1-.12.24,1.41,1.41,0,0,1-.2.24,2.45,2.45,0,0,1-.29.23l-.16.11-.27.17-.27.18-.17.12.09,1.16Z"/><polygon class="cls-4" points="65.33 41.85 65.27 40.66 63.68 41.82 49.96 38.14 50.09 39.27 62.51 42.68 61.45 43.45 57.69 42.74 56.01 43.92 56.12 45.13 57.8 43.94 61.54 44.67 63.19 43.44 63.15 42.86 63.75 43.02 65.33 41.85"/><polygon class="cls-4" points="50.07 42.47 55.48 43.54 55.37 42.35 49.93 41.3 49.88 41.33 50.03 42.49 50.07 42.47"/><polygon class="cls-4" points="57.42 46.4 45.61 40.86 45.77 42.01 57.53 47.65 59.21 46.4 59.11 45.17 57.42 46.4"/><path class="cls-4" d="M42,46.27a.49.49,0,0,1,0-.12.69.69,0,0,1,0-.13.53.53,0,0,1,.12-.14.86.86,0,0,1,.18-.14,1.53,1.53,0,0,1,.49-.2,2.61,2.61,0,0,1,.55-.08,3.07,3.07,0,0,1,.53,0,1.82,1.82,0,0,1,.4.07l8,2.57a1.07,1.07,0,0,1,.22.1l.2.14a.8.8,0,0,1,.15.17.5.5,0,0,1,.08.2l-.14-1.25a.52.52,0,0,0-.08-.19.8.8,0,0,0-.15-.17l-.2-.14a1,1,0,0,0-.22-.09l-8-2.53a1.82,1.82,0,0,0-.4-.07,3.07,3.07,0,0,0-.53,0,2.61,2.61,0,0,0-.56.08,1.53,1.53,0,0,0-.49.2.86.86,0,0,0-.18.14.71.71,0,0,0-.12.13.43.43,0,0,0,0,.13.62.62,0,0,0,0,.13Z"/><path class="cls-4" d="M55.74,47a.84.84,0,0,1,0,.35,1.59,1.59,0,0,1-.17.38,2.24,2.24,0,0,1-.32.4,3.55,3.55,0,0,1-.49.42,6.34,6.34,0,0,1-1.66.88,6.86,6.86,0,0,1-1.72.39,7.77,7.77,0,0,1-1.6,0,6.6,6.6,0,0,1-1.33-.28l-8.11-2.75a3.48,3.48,0,0,1-.48-.21,2.26,2.26,0,0,1-.4-.25,1.32,1.32,0,0,1-.28-.3.85.85,0,0,1-.14-.34l.2,1.2a1,1,0,0,0,.15.35,1.56,1.56,0,0,0,.28.3,2.17,2.17,0,0,0,.39.25l.09,0L38.33,49l-.56-.2a3.1,3.1,0,0,0-.7-.17,2.47,2.47,0,0,0-.66,0,2.52,2.52,0,0,0-.58.09,1.63,1.63,0,0,0-.46.2,1,1,0,0,0-.2.14l-.13.15a.47.47,0,0,0-.06.15.2.2,0,0,0,0,.07v.08l.24,1.23a.76.76,0,0,1,0-.15.47.47,0,0,1,.06-.15l.13-.15.19-.15a1.94,1.94,0,0,1,.46-.2,2.61,2.61,0,0,1,.58-.09,3.73,3.73,0,0,1,.66,0,3.51,3.51,0,0,1,.69.18l.56.2,2.07-1.36-.15-.9.05,0,8.08,2.79a5.86,5.86,0,0,0,1.32.29,7,7,0,0,0,1.59,0,7.14,7.14,0,0,0,1.71-.39,6.46,6.46,0,0,0,1.65-.89,4.26,4.26,0,0,0,.49-.42,2.55,2.55,0,0,0,.31-.4,1.45,1.45,0,0,0,.17-.39,1.1,1.1,0,0,0,0-.36Z"/><path class="cls-4" d="M43.68,52.56c.23,0,.46,0,.68,0a6,6,0,0,1,.63.09,4.11,4.11,0,0,1,.6.17,1.8,1.8,0,0,1,.31.14l.23.15a.67.67,0,0,1,.14.16s0,0,0,0a.28.28,0,0,1,0,.12h0l-.18-1.28a.47.47,0,0,0-.07-.17.94.94,0,0,0-.14-.16,1.53,1.53,0,0,0-.23-.15,1.81,1.81,0,0,0-.31-.13,4.11,4.11,0,0,0-.6-.17,4.3,4.3,0,0,0-.64-.08,5,5,0,0,0-.68,0l-.76,0-4,.42L37,51.86a12.46,12.46,0,0,1-1.34,0,6.55,6.55,0,0,1-1.17-.13,8.49,8.49,0,0,1-1.26-.39,3.22,3.22,0,0,1-.49-.23,2.19,2.19,0,0,1-.37-.26,1.28,1.28,0,0,1-.24-.29.67.67,0,0,1-.1-.23.19.19,0,0,1,0-.08h0l.26,1.24a.91.91,0,0,0,.12.31,1.28,1.28,0,0,0,.24.29,1.77,1.77,0,0,0,.37.27,3.59,3.59,0,0,0,.48.23,7.74,7.74,0,0,0,1.26.39,5.76,5.76,0,0,0,1.17.14,12.33,12.33,0,0,0,1.33,0L39,53l4-.41Z"/><path class="cls-4" d="M49.29,51.53a1.18,1.18,0,0,1,0,.49,1.71,1.71,0,0,1-.23.5,2.31,2.31,0,0,1-.41.5,4.18,4.18,0,0,1-.58.5,6.78,6.78,0,0,1-1.45.81,7.74,7.74,0,0,1-1.68.48,6.91,6.91,0,0,1-1.76.08,5.75,5.75,0,0,1-1.69-.37l-1.54-.59.23,1.29,1.53.6a6,6,0,0,0,1.68.38,7.9,7.9,0,0,0,1.75-.08,7.67,7.67,0,0,0,1.67-.49,6.7,6.7,0,0,0,1.44-.81,4.86,4.86,0,0,0,.58-.5,3,3,0,0,0,.4-.51,1.64,1.64,0,0,0,.23-.51,1.17,1.17,0,0,0,0-.49Z"/><path class="cls-11" d="M59.51,39.17l.17-.12.27-.18.27-.17.16-.11a1.59,1.59,0,0,0,.59-.65.75.75,0,0,0-.09-.69,2,2,0,0,0-.83-.65A7,7,0,0,0,58.43,36a10.56,10.56,0,0,0-1.59-.27,10.21,10.21,0,0,0-1.56,0,7.65,7.65,0,0,0-1.47.25,4.83,4.83,0,0,0-1.27.55L50,38.14l13.72,3.68,1.59-1.16ZM58.35,38a4.72,4.72,0,0,1-.59.44l-.32.22-4-1,.85-.55a1.69,1.69,0,0,1,.54-.21,2.25,2.25,0,0,1,.64-.06,4.56,4.56,0,0,1,.72.06c.25,0,.5.1.77.17a9,9,0,0,1,1.08.32c.25.11.39.2.43.31S58.47,37.84,58.35,38Z"/><path class="cls-11" d="M61.45,43.45l1.67-1.21L47.39,39.75l-1.78,1.11L57.42,46.4l1.69-1.23L56,43.92l1.68-1.18Zm-7.2-.34-4.37-1.78,0,0,5.44,1.05Z"/><path class="cls-11" d="M55.67,46.72a1.67,1.67,0,0,0-.6-.68,3.54,3.54,0,0,0-1-.46l-8-2.45a5.07,5.07,0,0,0-1.19-.21,7.66,7.66,0,0,0-1.43,0,7.76,7.76,0,0,0-1.53.33,6.67,6.67,0,0,0-1.52.69,4,4,0,0,0-1.11.94,1,1,0,0,0-.24.81,1.05,1.05,0,0,0,.42.64,2.92,2.92,0,0,0,.88.46l8.11,2.75a6.6,6.6,0,0,0,1.33.28,7.77,7.77,0,0,0,1.6,0,6.86,6.86,0,0,0,1.72-.39,6.34,6.34,0,0,0,1.66-.88,2.66,2.66,0,0,0,.9-1A1,1,0,0,0,55.67,46.72Zm-2.86.86a.51.51,0,0,1-.23.3,1.82,1.82,0,0,1-.56.27,3.22,3.22,0,0,1-.62.11,3.66,3.66,0,0,1-.58,0,2.34,2.34,0,0,1-.46-.09L42.3,45.51a.64.64,0,0,1-.27-.14.63.63,0,0,1-.18-.22.37.37,0,0,1,0-.29.79.79,0,0,1,.32-.31,1.53,1.53,0,0,1,.49-.2,2.61,2.61,0,0,1,.56-.08,3.07,3.07,0,0,1,.53,0,1.82,1.82,0,0,1,.4.07l8,2.53a1.25,1.25,0,0,1,.33.16,1,1,0,0,1,.25.24A.41.41,0,0,1,52.81,47.58Z"/><path class="cls-11" d="M33.5,48.24a7.46,7.46,0,0,1,1.45-.7,7.82,7.82,0,0,1,1.55-.39A6.68,6.68,0,0,1,38,47.08a5.41,5.41,0,0,1,1.43.27l.94.33L38.33,49l-.56-.2a3.1,3.1,0,0,0-.7-.17,2.47,2.47,0,0,0-.66,0,2.52,2.52,0,0,0-.58.09,1.63,1.63,0,0,0-.46.2,1.22,1.22,0,0,0-.31.27.38.38,0,0,0,0,.53,1,1,0,0,0,.34.2l.44.14a3.34,3.34,0,0,0,.49.08,3.57,3.57,0,0,0,.59,0l.76,0,5-.39,1.38-.09c.43,0,.83,0,1.22,0a9.67,9.67,0,0,1,1.18.13,10.15,10.15,0,0,1,1.24.34,3.21,3.21,0,0,1,1.19.66,1.24,1.24,0,0,1,.41.84,1.58,1.58,0,0,1-.31,1,3.93,3.93,0,0,1-1,1,6.78,6.78,0,0,1-1.45.81,7.74,7.74,0,0,1-1.68.48,6.91,6.91,0,0,1-1.76.08,5.75,5.75,0,0,1-1.69-.37l-1.54-.59,2.21-1.54,1.37.51a3.56,3.56,0,0,0,.68.17,2.66,2.66,0,0,0,.63,0,2.53,2.53,0,0,0,.56-.12,1.67,1.67,0,0,0,.46-.24.79.79,0,0,0,.28-.3.37.37,0,0,0,0-.31.58.58,0,0,0-.22-.29,1.62,1.62,0,0,0-.51-.26,4.11,4.11,0,0,0-.6-.17,4.3,4.3,0,0,0-.64-.08,5,5,0,0,0-.68,0l-.76,0-4,.42L37,51.86a12.46,12.46,0,0,1-1.34,0,6.55,6.55,0,0,1-1.17-.13,8.49,8.49,0,0,1-1.26-.39,2.41,2.41,0,0,1-1-.62A1,1,0,0,1,32,50a1.73,1.73,0,0,1,.44-.86A5.1,5.1,0,0,1,33.5,48.24Z"/><g class="cls-12"><path class="cls-13" d="M36.3,51.83a7.91,7.91,0,0,1-1.18-.14,8.05,8.05,0,0,1-1.26-.39,2.33,2.33,0,0,1-1-.62,1,1,0,0,1-.25-.78,1.73,1.73,0,0,1,.44-.86,4.63,4.63,0,0,1,1.08-.87,7.46,7.46,0,0,1,1.45-.7,8.38,8.38,0,0,1,1.55-.39h0a5.26,5.26,0,0,0-.67.07,7.82,7.82,0,0,0-1.55.39,7.46,7.46,0,0,0-1.45.7,5.1,5.1,0,0,0-1.08.87A1.73,1.73,0,0,0,32,50a1,1,0,0,0,.25.78,2.41,2.41,0,0,0,1,.62,8.49,8.49,0,0,0,1.26.39,6.55,6.55,0,0,0,1.17.13,12.46,12.46,0,0,0,1.34,0l1.75-.12.63-.07-1.73.13C37.14,51.83,36.71,51.84,36.3,51.83Z"/><path class="cls-13" d="M50.61,38.08l2.57-1.61a5.05,5.05,0,0,1,1.28-.55,6,6,0,0,1,.86-.18h0a7.65,7.65,0,0,0-1.47.25,4.83,4.83,0,0,0-1.27.55L50,38.14l13.72,3.68Z"/><polygon class="cls-13" points="46.26 40.79 47.39 39.75 45.61 40.86 57.42 46.4 46.26 40.79"/><path class="cls-13" d="M43.79,54.83a6.29,6.29,0,0,1-1.69-.37l-1.54-.6,1.56-1.47-2.21,1.54,1.54.59a5.75,5.75,0,0,0,1.69.37,6.7,6.7,0,0,0,1.61-.06A7.69,7.69,0,0,1,43.79,54.83Z"/><path class="cls-13" d="M50.4,49.77a6,6,0,0,1-1.32-.28L41,46.74a2.92,2.92,0,0,1-.88-.46,1.09,1.09,0,0,1-.43-.64,1,1,0,0,1,.25-.8,4,4,0,0,1,1.11-1,6.8,6.8,0,0,1,1.51-.69,7.37,7.37,0,0,1,1.26-.29l-.37,0a7.76,7.76,0,0,0-1.53.33,6.67,6.67,0,0,0-1.52.69,4,4,0,0,0-1.11.94,1,1,0,0,0-.24.81,1.05,1.05,0,0,0,.42.64,2.92,2.92,0,0,0,.88.46l8.11,2.75a6.6,6.6,0,0,0,1.33.28,7.77,7.77,0,0,0,1.6,0l.32,0A6.79,6.79,0,0,1,50.4,49.77Z"/></g></svg>