<svg id="Layer_1" data-name="Layer 1" xmlns="http://www.w3.org/2000/svg" xmlns:xlink="http://www.w3.org/1999/xlink" viewBox="0 0 100 100"><defs><style>.cls-1{fill:none;}.cls-2{opacity:0.5;}.cls-3{fill:#fff200;stroke:#494949;stroke-miterlimit:10;}.cls-4{fill:#a6c914;}.cls-5{clip-path:url(#clip-path);}.cls-6{fill:#f4ed31;}.cls-7{fill:#171b1b;}.cls-8{fill:#ed5126;}.cls-9{fill:#0c151d;}.cls-10{fill:#ed5026;}.cls-11{fill:#385056;}.cls-12{fill:#d6dcde;}.cls-13{fill:#fefefd;}.cls-14{fill:#0b0b0b;}.cls-15{fill:#bbbbbd;}.cls-16{fill:#0f0d24;}.cls-17{fill:#30376c;}.cls-18{fill:#573a33;}.cls-19{fill:#553d36;}.cls-20{fill:#754e3b;}.cls-21{fill:#333335;}.cls-22{fill:#343436;}.cls-23{fill:#90794f;}.cls-24{fill:#573b33;}.cls-25{fill:#585654;}.cls-26{fill:#5a5856;}.cls-27{fill:#2d366a;}.cls-28{fill:#604d41;}.cls-29{fill:#5e4a3e;}.cls-30{fill:#322d2d;}.cls-31{fill:#010101;}.cls-32{fill:#312c2c;}.cls-33{fill:#91825d;}.cls-34{fill:#645146;}.cls-35{fill:#8d8c73;}.cls-36{fill:#8f8e76;}.cls-37{fill:#77726f;}.cls-38{fill:#3f2f29;}.cls-39{fill:#8b8a71;}.cls-40{fill:#5c483b;}.cls-41{fill:#412a1b;}.cls-42{fill:#858573;}.cls-43{fill:#807f6e;}.cls-44{fill:#6d5c50;}.cls-45{fill:#63635f;}.cls-46{fill:#929075;}.cls-47{fill:#898871;}.cls-48{fill:#868571;}.cls-49{fill:#5a5a4f;}.cls-50{fill:#848375;}.cls-51{fill:#727164;}.cls-52{fill:#5a5956;}.cls-53{fill:#565549;}.cls-54{fill:#3b2313;}.cls-55{fill:#81806c;}.cls-56{fill:#83826c;}.cls-57{fill:#7c7b63;}.cls-58{fill:#64635c;}.cls-59{fill:#8a886d;}.cls-60{fill:#676657;}.cls-61{fill:#6e6d60;}.cls-62{fill:#828175;}.cls-63{fill:#94926e;}.cls-64{fill:#7c7b68;}.cls-65{fill:#442d1e;}.cls-66{fill:#81806e;}.cls-67{fill:#797865;}.cls-68{fill:#616154;}.cls-69{fill:#402818;}.cls-70{fill:#88876a;}.cls-71{fill:#675549;}.cls-72{fill:#696753;}.cls-73{fill:#a3a060;}.cls-74{fill:#918f62;}.cls-75{fill:#616152;}.cls-76{fill:#606052;}.cls-77{fill:#565753;}.cls-78{fill:#242425;}.cls-79{fill:#44443f;}.cls-80{fill:#232324;}.cls-81{fill:#373838;}.cls-82{fill:#323333;}.cls-83{fill:#353436;}.cls-84{fill:#3a3d67;}.cls-85{fill:#4c4b60;}.cls-86{fill:#3d3d44;}.cls-87{fill:#434364;}.cls-88{fill:#454452;}.cls-89{fill:#1c1c1d;}.cls-90{fill:#3a3d68;}.cls-91{fill:#2d356a;}.cls-92{fill:#111;}.cls-93{fill:#39383d;}.cls-94{fill:#353536;}.cls-95{fill:#262e52;}.cls-96{fill:#41404e;}.cls-97{fill:#29336b;}.cls-98{fill:#3c3c53;}.cls-99{fill:#232323;}.cls-100{fill:#565474;}.cls-101{fill:#2c377c;}.cls-102{fill:#ed4e26;}.cls-103{fill:#f5e634;}.cls-104{fill:#f6e135;}.cls-105{fill:#12151c;}.cls-106{fill:#6e362d;}.cls-107{fill:#6d382f;}.cls-108{fill:#6d372f;}.cls-109{fill:#594431;}.cls-110{fill:#5e4932;}.cls-111{fill:#5d4732;}.cls-112{fill:#654e33;}.cls-113{fill:#42322c;}.cls-114{fill:#5b4933;}.cls-115{fill:#4c3d30;}.cls-116{fill:#635234;}.cls-117{fill:#795735;}.cls-118{fill:#42392e;}.cls-119{fill:#3e272a;}.cls-120{fill:#3a332c;}.cls-121{fill:#6e5033;}.cls-122{fill:#71382f;}.cls-123{fill:#40362d;}.cls-124{fill:#3d272a;}.cls-125{fill:#0f131d;}.cls-126{fill:#40372d;}.cls-127{fill:#462e2b;}.cls-128{fill:#665b35;}.cls-129{fill:#3c382e;}.cls-130{fill:#3d362d;}.cls-131{fill:#463b2f;}.cls-132{fill:#13151f;}.cls-133{fill:#39352d;}.cls-134{fill:#44382e;}.cls-135{fill:#443a2f;}.cls-136{fill:#4c4030;}.cls-137{fill:#794f34;}.cls-138{fill:#3d352c;}.cls-139{fill:#554933;}.cls-140{fill:#43372d;}.cls-141{fill:#ef6438;}.cls-142{fill:#adc1c3;}.cls-143{fill:#817c45;}.cls-144{fill:#7a7a5b;}.cls-145{fill:#ee4d27;}.cls-146{fill:#ee4927;}.cls-147{fill:#b52f2b;}.cls-148{fill:#ed484c;}.cls-149{fill:#58342f;}.cls-150{fill:#5e5e5f;}.cls-151{fill:#8b6a5e;}.cls-152{fill:#62534c;}.cls-153{fill:#555758;}.cls-154{fill:#302c29;}.cls-155{fill:#272627;}.cls-156{fill:#27292a;}.cls-157{fill:#313435;}.cls-158{fill:#333536;}.cls-159{fill:#242728;}.cls-160{fill:#2b2e2f;}.cls-161{fill:#ed4926;}.cls-162{fill:#e64b28;}.cls-163{fill:#b52e2a;}.cls-164{fill:#432428;}.cls-165{fill:#eb4246;}.cls-166{fill:#bd5f3d;}.cls-167{fill:#f5ed2a;}.cls-168{fill:#fefefe;}.cls-169{fill:#ee4b27;}.cls-170{fill:#f8cb3a;}.cls-171{fill:#f8d239;}.cls-172{fill:#f5e534;}.cls-173{fill:#f6dc37;}.cls-174{fill:#ef6338;}.cls-175{fill:#f6d738;}.cls-176{fill:#f6e235;}.cls-177{fill:#825238;}.cls-178{fill:#ee4f27;}.cls-179{fill:#70323e;}.cls-180{fill:#322c2d;}.cls-181{fill:#563a33;}.cls-182{fill:#322d2e;}.cls-183{fill:#312d2e;}.cls-184{fill:#917b4f;}.cls-185{fill:#d5d1ce;}.cls-186{fill:#6b594e;}.cls-187{fill:#6f3b45;}.cls-188{fill:#f1ea34;}.cls-189{fill:#020202;}.cls-190{fill:#838776;}.cls-191{fill:#e7e6f2;}.cls-192{fill:#d8d7ea;}.cls-193{fill:#c1c0de;}.cls-194{fill:#acaad2;}.cls-195{fill:#cac9e2;}.cls-196{fill:#e0dfee;}.cls-197{fill:#d1d0e6;}.cls-198{fill:#a3a1cc;}.cls-199{fill:#b3b2d6;}.cls-200{fill:#f0eff6;}.cls-201{fill:#f6f6fa;}.cls-202{fill:#bab9da;}.cls-203{fill:#f3f3f8;}.cls-204{fill:#b7b6d8;}.cls-205{fill:#c9c8e1;}.cls-206{fill:#b0aed4;}.cls-207{fill:#c3c1de;}.cls-208{fill:#cfcfe6;}.cls-209{fill:#c8c7e2;}.cls-210{fill:#b9b8da;}.cls-211{fill:#9d9ac8;}.cls-212{fill:#e6e5f1;}.cls-213{fill:#a8a6d0;}.cls-214{fill:#dedded;}.cls-215{fill:#d5d4e8;}.cls-216{fill:#eeeef5;}.cls-217{fill:#f7f7fa;}.cls-218{fill:#f7f7fb;}.cls-219{fill:#b8b7d8;}.cls-220{fill:#dbdaeb;}.cls-221{fill:#a7a5ce;}.cls-222{fill:#d5dbdd;}.cls-223{fill:#b5a945;}.cls-224{fill:#030303;}.cls-225{fill:#5d5e5c;}.cls-226{fill:#666761;}.cls-227{fill:#5c5d55;}.cls-228{fill:#909077;}.cls-229{fill:#6e7172;}.cls-230{fill:#3a3a37;}.cls-231{fill:#212122;}.cls-232{fill:#432828;}.cls-233{fill:#4f2b2a;}.cls-234{fill:#482a29;}.cls-235{fill:#3c2528;}.cls-236{fill:#372427;}.cls-237{fill:#4b2a29;}.cls-238{fill:#2e2d2d;}.cls-239{fill:#854739;}.cls-240{fill:#e4503a;}.cls-241{fill:#869ba5;}.cls-242{fill:#7b8284;}.cls-243{fill:#2f374a;}.cls-244{fill:#878b8d;}.cls-245{fill:#8f9799;}.cls-246{fill:#4a4c4e;}.cls-247{fill:#555345;}.cls-248{fill:#65656a;}.cls-249{fill:#5f484a;}.cls-250{fill:#545346;}.cls-251{fill:#48444a;}.cls-252{fill:#503f43;}.cls-253{fill:#59484a;}.cls-254{fill:#2a2e37;}.cls-255{fill:#2b2e38;}.cls-256{fill:#353637;}.cls-257{fill:#f9c73c;}.cls-258{fill:#814433;}.cls-259{fill:#594335;}.cls-260{fill:#584134;}.cls-261{fill:#523d33;}.cls-262{fill:#5d4234;}.cls-263{fill:#523c33;}.cls-264{fill:#4d3b33;}.cls-265{fill:#4c3b33;}.cls-266{fill:#624334;}.cls-267{fill:#684e38;}.cls-268{fill:#6e4c36;}.cls-269{fill:#664735;}.cls-270{fill:#6c4735;}.cls-271{fill:#5f3e33;}.cls-272{fill:#433631;}.cls-273{fill:#463932;}.cls-274{fill:#4a3832;}.cls-275{fill:#4a3932;}.cls-276{fill:#563d33;}.cls-277{fill:#5c4535;}.cls-278{fill:#433732;}.cls-279{fill:#ce442d;}.cls-280{fill:#814533;}.cls-281{fill:#804433;}.cls-282{fill:#824433;}.cls-283{fill:#322e2e;}.cls-284{fill:#312f2e;}.cls-285{fill:#312e2e;}.cls-286{fill:#563c33;}.cls-287{fill:#573c33;}.cls-288{fill:#ee5726;}.cls-289{fill:#82cddd;}.cls-290{fill:#2f312f;}.cls-291{fill:#484943;}.cls-292{fill:#666453;}.cls-293{fill:#587376;}.cls-294{fill:#674b35;}.cls-295{fill:#5f4b37;}.cls-296{fill:#30322f;}.cls-297{fill:#777762;}.cls-298{fill:#4f5653;}.cls-299{fill:#69695a;}.cls-300{fill:#604a36;}.cls-301{fill:#4b473f;}.cls-302{fill:#5b919f;}.cls-303{fill:#5b4334;}.cls-304{fill:#0b133a;}.cls-305{fill:#6a6251;}.cls-306{fill:#f6dd36;}.cls-307{fill:#574437;}.cls-308{fill:#554537;}.cls-309{fill:#564537;}.cls-310{fill:#574537;}.cls-311{fill:#814633;}.cls-312{fill:#824633;}.cls-313{fill:#7e6c41;}.cls-314{fill:#834533;}.cls-315{fill:#32302e;}.cls-316{fill:#31302e;}.cls-317{fill:#573d33;}.cls-318{fill:#4e4138;}.cls-319{fill:#544738;}.cls-320{fill:#573e33;}.cls-321{fill:#302e2e;}.cls-322{fill:#4c413c;}.cls-323{fill:#58473d;}.cls-324{fill:#46483d;}.cls-325{fill:#554335;}.cls-326{fill:#624a36;}.cls-327{fill:#804934;}.cls-328{fill:#684935;}.cls-329{fill:#745737;}.cls-330{fill:#686659;}.cls-331{fill:#473b33;}.cls-332{fill:#5f5d4e;}.cls-333{fill:#665338;}.cls-334{fill:#453b32;}.cls-335{fill:#171819;}.cls-336{fill:#111212;}.cls-337{fill:#0e1011;}.cls-338{fill:#0e0f10;}.cls-339{fill:#171818;}.cls-340{fill:#151618;}.cls-341{fill:#161718;}.cls-342{fill:#827b44;}.cls-343{fill:#7ecce7;}.cls-344{fill:#ea533c;}.cls-345{fill:#d14b35;}.cls-346{fill:#4e3c40;}.cls-347{fill:#7b7667;}.cls-348{fill:#7a7a6c;}.cls-349{fill:#d4ddc7;}.cls-350{fill:#787161;}.cls-351{fill:#656153;}.cls-352{fill:#dedfc4;}.cls-353{fill:#b4d6d2;}.cls-354{fill:#f7d738;}.cls-355{fill:#f7d439;}.cls-356{fill:#564738;}.cls-357{fill:#574738;}.cls-358{fill:#5f5c5b;}.cls-359{fill:#5f5f5f;}.cls-360{fill:#615956;}.cls-361{fill:#6f5c53;}.cls-362{fill:#d6dbdd;}.cls-363{fill:#606162;}.cls-364{fill:#5d5e5f;}.cls-365{fill:#616258;}.cls-366{fill:#060606;}.cls-367{fill:#444;}</style><clipPath id="clip-path"><ellipse class="cls-1" cx="49.55" cy="48.2" rx="36.57" ry="35.4"/></clipPath></defs><ellipse class="cls-2" cx="50.45" cy="51.8" rx="42.3" ry="40.95"/><ellipse class="cls-3" cx="49.55" cy="48.2" rx="42.3" ry="40.95"/><ellipse class="cls-4" cx="49.55" cy="48.2" rx="36.57" ry="35.4"/><g class="cls-5"><path class="cls-6" d="M103.23,32c.1.09.23.06.35.08a.59.59,0,0,0,.44.11l2.15.58c.45.21.48.27.22.64a2.55,2.55,0,0,1-.78.05h-14a2.64,2.64,0,0,0-.79.06,6.63,6.63,0,0,1-1.18,0H53.78a2.21,2.21,0,0,0-.68.06c-.85.06-1.7,0-2.55,0H33.75a.4.4,0,0,1-.32-.14A1.75,1.75,0,0,1,35,32.4c.16-.15.37-.09.57-.13l.38-.11c.16-.06.33-.08.48-.13a2.86,2.86,0,0,0,.42-.1c.14,0,.26-.08.4-.09a2.21,2.21,0,0,1,.62-.13l.54-.2c.19.06.35-.09.53-.06a2.06,2.06,0,0,1,.6-.12l.15-.1a1.92,1.92,0,0,0,.53-.06,3.27,3.27,0,0,1,.45-.1.75.75,0,0,0,.36-.13s0,0,.05,0a1.84,1.84,0,0,0,.53-.06,2,2,0,0,1,.47-.1,3.89,3.89,0,0,1,.47-.09.82.82,0,0,0,.37-.13h0c.21.09.39-.08.59-.06a1.24,1.24,0,0,0,.45-.14H44c.18.06.34-.09.52-.05s.34-.14.53-.1a1.37,1.37,0,0,0,.45-.13h.07a1.35,1.35,0,0,0,.53-.06c.15-.07.32,0,.47-.05l.08-.08a.76.76,0,0,0,.55-.09h0a3,3,0,0,0,.52,0l.08-.08a1.46,1.46,0,0,0,.51,0c.08-.16.18-.08.28,0a3.29,3.29,0,0,1,.44-.16.06.06,0,0,1,.06,0,1.46,1.46,0,0,0,.51,0c0-.09.11-.1.19-.09a1.25,1.25,0,0,0,.51,0c0-.09.1-.1.18-.09a1.1,1.1,0,0,0,.51,0c0-.09.1-.09.18-.09a1.72,1.72,0,0,0,.71-.09.14.14,0,0,1,.09,0c.25.07.46-.08.69-.09l.18.06a2,2,0,0,1,.6-.12,2,2,0,0,0,.73-.13c.09.1.19,0,.29,0,.19-.13.46.11.64-.11h.13c.28.09.54-.06.81-.09h.18c.23.09.46-.06.68,0l.41-.11c.22.09.46-.05.68,0l.52-.08c.31-.13.65.09,1-.06l.21-.06a2.42,2.42,0,0,0,.89-.05c.11,0,.21,0,.3,0l.41-.05a2.26,2.26,0,0,1,.82,0,.57.57,0,0,0,.46-.05,4.18,4.18,0,0,1,.5,0,11.5,11.5,0,0,0,1.17-.08,4.12,4.12,0,0,1,.61,0h.7c.76,0,1.52,0,2.28-.1h3.87c.72.06,1.45.09,2.18.1h1.4a6.59,6.59,0,0,0,1.09.09h.5c.17,0,.33,0,.5,0s.54.05.81.12.34-.11.5,0c.31,0,.62,0,.94,0,.11.2.31,0,.44.11.29,0,.57,0,.85,0,.07.19.28-.05.36.11l.81,0c.12.2.27,0,.4,0s.37.15.57.07c.12.16.25.05.38,0,.2.15.42,0,.63.07.13.2.29,0,.43,0s.36.07.53.15.27-.12.43,0a2,2,0,0,0,.43.15l.27-.06c.17.07.37.08.54.16A.29.29,0,0,1,87,29c.17.08.37.08.54.16l.17-.06c.2,0,.38.18.6.08h.09a1.3,1.3,0,0,0,.62.08h.08a1.22,1.22,0,0,0,.6.09h.08a1.1,1.1,0,0,0,.54.08l.27,0a.46.46,0,0,0,.41.08.06.06,0,0,1,.06,0,1.08,1.08,0,0,0,.53.09.08.08,0,0,1,.07,0,1.87,1.87,0,0,0,.62.14c.19,0,.36.11.55.09a1.71,1.71,0,0,0,.55,0h0c.17.08.36.09.52.18H94c.2-.09.38.09.57.06a1.64,1.64,0,0,1,.43.13h.06a.55.55,0,0,1,.45.09h0c.19-.09.34,0,.52.06s.38.1.58.09a2.84,2.84,0,0,0,.49.1c.17,0,.32.1.49.1l.42.09.49.09a2.5,2.5,0,0,0,.49.1.84.84,0,0,1,.33.13h.05c.18-.06.33.09.5.06a.83.83,0,0,1,.34.13l.14-.07a2.24,2.24,0,0,0,.36.14c.15,0,.31.05.46.09a.75.75,0,0,1,.32.13c.16-.14.31,0,.46,0a1.2,1.2,0,0,0,.49.14,1,1,0,0,0,.37.09C103,32,103.1,32,103.23,32Z"/><path class="cls-7" d="M101,71.69A7.57,7.57,0,0,1,95.94,75a8.16,8.16,0,0,1-8.47-3.18.91.91,0,0,1-.09-.17A7.38,7.38,0,0,1,86,68.35a11.23,11.23,0,0,1,0-1.42,7.78,7.78,0,0,1,3.81-6.41,4.8,4.8,0,0,1,.54-.32,8.66,8.66,0,0,1,1.84-.68l1-.22c.54,0,1.08,0,1.62,0a3.38,3.38,0,0,1,.45,0c.34.11.7.16,1.05.25a8.24,8.24,0,0,1,3.26,1.64,7.23,7.23,0,0,1,2.7,4.51,7.82,7.82,0,0,1-.77,5.26A8.15,8.15,0,0,0,101,71.69Z"/><path class="cls-7" d="M44,70.05a7.47,7.47,0,0,1-13-.09,9.32,9.32,0,0,1-1.15-4.72A7.41,7.41,0,0,1,31.4,61a11.09,11.09,0,0,1,1.66-1.76l.12-.09A9,9,0,0,1,35.48,58,14.34,14.34,0,0,1,37,57.67c.33,0,.66,0,1,0s.67.09,1,.18a7.9,7.9,0,0,1,4.2,2.43l.09.11a8.92,8.92,0,0,1,1.88,4.33,5.24,5.24,0,0,1,0,.56v.9a4.2,4.2,0,0,1-.17,1.36A10,10,0,0,1,44,70.05Z"/><path class="cls-8" d="M25.14,44.59c0-.23.22-.36.32-.54a3.43,3.43,0,0,0,.46-.62c.06-.06.12-.13.23-.08.14.33-.17.58-.15.88a1.21,1.21,0,0,1-.11.32,1.94,1.94,0,0,0-.24.7,4.87,4.87,0,0,0-.17,1,2.42,2.42,0,0,1-.05.66c-.16.26-.44.41-.64.64s-.29.39.13.54a1.57,1.57,0,0,1,.66.29,1.08,1.08,0,0,1,.16.3,4.88,4.88,0,0,0,1.59,2.09l.11.07a1.35,1.35,0,0,0,.33.19,1,1,0,0,1,.25.19,8.65,8.65,0,0,0,1.43.71l.39.15c.44.16.89.31,1.34.43a2.84,2.84,0,0,0,.42.08l.35.06a1.57,1.57,0,0,0,.51.19,6,6,0,0,0,.61.14l.27.05.58.14a1.31,1.31,0,0,0,.44.07.31.31,0,0,1,.13,0,1.32,1.32,0,0,0,.62.12l.13,0a2.35,2.35,0,0,0,.74.22.57.57,0,0,1,.26,0,1.55,1.55,0,0,0,.7.15l.14,0a7.14,7.14,0,0,0,1.31.31,2.66,2.66,0,0,0,.49.1l.49.11a6.06,6.06,0,0,0,1.19.21.32.32,0,0,1,.14,0,7.79,7.79,0,0,0,1.27.29c.17,0,.33.08.5.09s.44.09.66.11.39.09.58.11l.49.12a2.66,2.66,0,0,0,.89.12.29.29,0,0,1,.13,0,4.33,4.33,0,0,0,1,.19c.09,0,.2,0,.26.09a.18.18,0,0,1-.07.2.4.4,0,0,1-.24.07c-.37,0-.75,0-1.12,0a19.46,19.46,0,0,0-2,.05l-.17,0c-.36,0-.72,0-1.07,0H40.65a15.59,15.59,0,0,0-2.16.06,9.93,9.93,0,0,1-1.09,0H36.22a19.11,19.11,0,0,0-2.14,0,1.52,1.52,0,0,1-.6,0,2.05,2.05,0,0,0-.74-.07,15.44,15.44,0,0,0-3,.57c-2,.41-3.93.86-5.9,1.29a1.21,1.21,0,0,1-.86,0c-.17-.22-.1-.48-.11-.72a2.53,2.53,0,0,1,0-.47.4.4,0,0,1,0-.15,6.42,6.42,0,0,0,0-1.07,1.67,1.67,0,0,1,0-.39,3.57,3.57,0,0,0,.06-1,1.75,1.75,0,0,1,0-.4,3.57,3.57,0,0,0,.06-1,1.72,1.72,0,0,1,0-.39,2.71,2.71,0,0,0,.06-.85,1.61,1.61,0,0,1,0-.39,1.62,1.62,0,0,0,.06-.62V50c.11-.56.12-1.12.2-1.68a6,6,0,0,1,.1-.85,1.54,1.54,0,0,1,0-.3,3.64,3.64,0,0,1,.14-.47c.1-.28.3-.51.4-.78a1.5,1.5,0,0,0,.31-.49,1.18,1.18,0,0,0,.21-.32C24.9,45,25,44.76,25.14,44.59Z"/><path class="cls-6" d="M25.82,44.51l.11-.28a11.18,11.18,0,0,1,.48-1.3A5.65,5.65,0,0,1,27,42a29,29,0,0,1,1.68-2.42c.36-.51.74-1,1.12-1.5.07-.19.27-.29.36-.46a9.9,9.9,0,0,1,1.1-1.41c0-.18.19-.22.28-.34l0,0c0-.18.19-.22.28-.34v0c0-.19.2-.22.28-.34l0,0c0-.19.2-.23.29-.36a2.81,2.81,0,0,1,.69-.88c.14-.27.3-.44.57-.12a.8.8,0,0,1-.1.5c-1.26,2.45-2.55,4.87-3.84,7.3,0,.06-.07.11-.1.16a1.3,1.3,0,0,0-.2.49c-.07.2-.06.35.21.36h.4c5.26,0,10.52,0,15.79,0a13.33,13.33,0,0,0,1.43-.24.85.85,0,0,1,.11.64,7,7,0,0,1-.09,1.82.72.72,0,0,1-.55.16c-1.61.13-3.22.1-4.83.1-2.21,0-4.43.07-6.65.12a30.8,30.8,0,0,0-7.46.93,11,11,0,0,0-1.85.66.7.7,0,0,1-.51.1c-.16-.17-.05-.38-.09-.56a9.6,9.6,0,0,1,.2-1.07A5.21,5.21,0,0,1,25.82,44.51Z"/><path class="cls-9" d="M95.21,59.32a.27.27,0,0,1-.3,0c-.57,0-1.15,0-1.72,0a9.81,9.81,0,0,0-1.08.21,9.65,9.65,0,0,0-1.72.65A7.82,7.82,0,0,0,86,66.81a7.57,7.57,0,0,0,.78,3.88c.08.19.31.35.18.6a8.19,8.19,0,0,1-3.46-6.13.31.31,0,0,1-.06-.13.5.5,0,0,1,0-.13c.55-.81,1-1.65,1.52-2.51a6.54,6.54,0,0,1,2-2.21c.66-.46,1.32-.93,2-1.36a9.56,9.56,0,0,1,5.28-1.06,2.29,2.29,0,0,1,.58.11c.15.05.29.16.47.12a1.09,1.09,0,0,1,.36,0,10,10,0,0,1,3.74,1.57c.22.16.49.28.51.59a.3.3,0,0,1-.15.09,4.28,4.28,0,0,1,.62,1.19c0,.14.13.29,0,.45s-.28-.1-.39-.19a3.86,3.86,0,0,0-.66-.55,7.9,7.9,0,0,0-3.11-1.57A10.52,10.52,0,0,1,95.21,59.32Z"/><path class="cls-10" d="M23.38,51.17l0,.43c-.22.25,0,.55-.09.82v.43c-.23.31,0,.66-.08,1l0,.43c-.23.32,0,.68-.08,1l0,.44c-.23.36,0,.75-.09,1.12h0c-.11.15,0,.32-.06.48a2.15,2.15,0,0,0,.05,1,.39.39,0,0,1,0,.15,1.39,1.39,0,0,1-.14.48c-.15.2-.4.14-.59.24a2.29,2.29,0,0,0,0,1.57c.17.06.36,0,.53.06a1.55,1.55,0,0,1,.09,1.1c0,.2-.22.25-.4.3a.86.86,0,0,1-.23,0,1.16,1.16,0,0,0-.73-.11H21a1.19,1.19,0,0,1-.26-.11c-.32-.18-.2-.51-.3-.77s-.05-.27-.08-.41-.09-.53-.1-.81-.23-.59-.17-.92a7.35,7.35,0,0,1,.08-1.69,2.41,2.41,0,0,0,1.16-1.37.88.88,0,0,0,.17-.49,1.14,1.14,0,0,0,0-.58.46.46,0,0,1,0-.2,1.84,1.84,0,0,0,0-.81.44.44,0,0,1,0-.2,1.15,1.15,0,0,0,0-.58.88.88,0,0,0-.17-.49,1,1,0,0,1-.14-.48.75.75,0,0,1,.07-.42,1.16,1.16,0,0,0,.21-.5,1.26,1.26,0,0,0,.2-.48A2.15,2.15,0,0,0,22,50l.3-.64A7.12,7.12,0,0,0,23,48.07l.2-.33c0-.12.14-.21.14-.34l.1-.11c.07-.12.15-.22.3-.1v.29a1.57,1.57,0,0,0-.15.88c-.11.54-.1,1.1-.2,1.64,0,.1,0,.2,0,.3A3.62,3.62,0,0,0,23.38,51.17Z"/><path class="cls-11" d="M20.8,65.44c-.3.07-.53-.1-.79-.19.2-.35.61-.27.91-.43a.87.87,0,0,0,.55-.2,1.26,1.26,0,0,0,.47-.35.76.76,0,0,1,.23-.13,1.25,1.25,0,0,0,.47-.28.9.9,0,0,0,.39-.38,8.16,8.16,0,0,1,.73-.71c.31-.2.5-.63,1-.47a1.57,1.57,0,0,0,.37.05,4.47,4.47,0,0,1,.82,0c.69.11,1.39.11,2.07.24.4,0,.8.11,1.2.13a.71.71,0,0,1,.65.49.68.68,0,0,1,0,.15c-.05.45-.4.74-.65,1.09s-.44.35-.52.63a1.32,1.32,0,0,1-.45.43c-.15,0-.25.16-.41.18-.76,0-1.51-.06-2.27,0h-.8a8.16,8.16,0,0,0-1.21,0c-.32,0-.63-.07-.95,0C22,65.53,21.41,65.45,20.8,65.44Z"/><path class="cls-9" d="M29.79,63.43v-.09c.1-.31-.19-.4-.34-.56a.34.34,0,0,1,0-.2,1.32,1.32,0,0,1,.17-.41.57.57,0,0,0,.14-.38.49.49,0,0,1,.1-.22,1.07,1.07,0,0,0,.25-.35,9.64,9.64,0,0,1,2.07-2.39A9,9,0,0,1,41.65,58a5.2,5.2,0,0,1,1.74,1.45c.26.29.48.6.71.91s.59.92.88,1.39a5,5,0,0,1,.66,1.68c.17,1,.28,1,1.26,1.08a.94.94,0,0,1,.29.06c.05,0,.1.06.09.13s-.07,0-.11,0a.42.42,0,0,0-.53.38,7.65,7.65,0,0,1-1.39,2.92c-.1.13-.16.28-.34.33s-.07-.16-.06-.23a2.68,2.68,0,0,0,.13-.56,4.31,4.31,0,0,0,.19-1.13,8.24,8.24,0,0,0,0-1.49,1,1,0,0,1,0-.3,8.56,8.56,0,0,0-1.57-3.88,5.07,5.07,0,0,1-.36-.45h0a7.47,7.47,0,0,0-4.1-2.46c-.36-.06-.72-.14-1.08-.17h-1a11.75,11.75,0,0,0-1.55.29,7.31,7.31,0,0,0-2.36,1.2h0a9.06,9.06,0,0,0-1.67,1.72,8.58,8.58,0,0,0-1.54,4.29c0,.09,0,.21-.13.2a3.91,3.91,0,0,1-.22-1.13C29.43,64,29.89,63.76,29.79,63.43Z"/><path class="cls-12" d="M23.79,62.85l-.72.7c-.12.12-.2.27-.37.31a1.57,1.57,0,0,1-.51.34l-.21.11c-.12.22-.39.25-.57.4a.69.69,0,0,1-.41.17,5.59,5.59,0,0,1-1,.37l-.31-.11c-.07-.17-.24-.11-.36-.15s-.43-.15-.46-.41c-.17,0-.26-.13-.36-.24l-.29-.52a.85.85,0,0,1-.2-.5l-.22-.49a2.79,2.79,0,0,0,0-.5.41.41,0,0,1,.1-.34.59.59,0,0,1,.13-.59,7.92,7.92,0,0,1,1.71-1.61c.16,0,.24-.21.42-.12a.34.34,0,0,1,.14.43c0,.25.21.48.09.75a7.93,7.93,0,0,1,.09,1,.24.24,0,0,0,.06.11c.12.11.29.09.43.14h.47a2,2,0,0,1,.73.09h.19a9.77,9.77,0,0,1,1.21,0,.81.81,0,0,1,.31.05.32.32,0,0,1,.18.14C24.17,62.61,23.94,62.71,23.79,62.85Z"/><path class="cls-13" d="M21.58,53.8l0,.16a2.12,2.12,0,0,1,0,.87l0,.17c.08.2-.06.39,0,.59a1.7,1.7,0,0,1-.15.5c-.19.58-.36,1.16-1.09,1.3-.06,0-.15,0-.21,0a.23.23,0,0,1-.08-.09v-.06l-.4-.63c0-.17-.11-.31-.1-.48V56c-.1-.09-.09-.2-.1-.32l-.09-.14v-.7a1.75,1.75,0,0,1,0-.85v-.16a.57.57,0,0,1,.1-.52v-.07c-.07-.17,0-.32,0-.47a1.69,1.69,0,0,1,.24-.57,1.46,1.46,0,0,1,.54-.71c.16-.09.31,0,.46,0l.39.34c.05.16.14.31.2.46s.08.28.1.42a1.77,1.77,0,0,1,.15.51C21.52,53.41,21.66,53.59,21.58,53.8Z"/><path class="cls-14" d="M105.29,64.49c-.39.16-.81,0-1.2.1-.66.07-1.31-.11-2-.09-.13.07-.21,0-.26-.12a7.41,7.41,0,0,0-1.35-2.19.3.3,0,0,1-.08-.27,5.39,5.39,0,0,0-.74-1.73c.08-.11.2,0,.29,0a2.27,2.27,0,0,1,1.1,1,12.62,12.62,0,0,1,1.59,2.63.92.92,0,0,0,1,.6,9.73,9.73,0,0,1,1.08,0A.62.62,0,0,1,105.29,64.49Z"/><path class="cls-15" d="M25.27,39.23l.29.22c0,.27.28.45.33.71s.09.45.19.67v.65a2,2,0,0,0-.1.41,5.46,5.46,0,0,1-.27.6c-.54.44-.74.47-1.25.2a.25.25,0,0,1-.3-.18,3.36,3.36,0,0,1-.35-.49c0-.1-.08-.2-.14-.3a3.12,3.12,0,0,1-.15-.62c0-.21,0-.43,0-.64a3.06,3.06,0,0,0,.1-.41.86.86,0,0,1,.24-.41v-.12a1,1,0,0,1,1-.42C25,39.1,25.12,39.24,25.27,39.23Z"/><path class="cls-16" d="M83.55,65.07v.09h-.37a1.5,1.5,0,0,1-.73,0,.51.51,0,0,1-.09-.16.74.74,0,0,1,0-.29c0-2.7,0-5.41,0-8.12a1.22,1.22,0,0,0,0-.27c0-1.14,0-2.27,0-3.41,0-.76,0-1.52,0-2.29,0-.54,0-1.09,0-1.63s0-1.33,0-2c0-.48,0-1,0-1.45s0-1,0-1.45c0-3.4,0-6.79,0-10.19a1,1,0,0,1,0-.33.58.58,0,0,1,.11-.15.08.08,0,0,1,.09,0,.53.53,0,0,1,.11.15,1,1,0,0,1,0,.33c0,3.39,0,6.79,0,10.18,0,.48,0,1,0,1.46s0,1.08,0,1.63,0,1.14,0,1.72,0,1.08,0,1.63c0,.72,0,1.45,0,2.18,0,1,0,2.06,0,3.09,0,.15-.06.32.17.38a5.93,5.93,0,0,0-.16,1.92v6.19c0,.35,0,.64.5.63A.62.62,0,0,1,83.55,65.07Z"/><path class="cls-17" d="M100.43,61.92a10.79,10.79,0,0,1,1.51,2.44c0,.06.12.1.18.14-.22.2,0,.39,0,.57a7.76,7.76,0,0,1-.91,6.36c-.06.09-.14.17-.21.26.26-.55.56-1.08.77-1.64a7.52,7.52,0,0,0-1.3-7.75,6.64,6.64,0,0,0-1.06-1.06s0-.08,0-.12C99.87,61.28,100.08,61.68,100.43,61.92Z"/><path class="cls-18" d="M74,65.13c-1.88,0-3.76,0-5.64-.08.08-.28.33-.2.52-.22a6.21,6.21,0,0,0,1.29-.07,24.43,24.43,0,0,1,3.63,0,7.33,7.33,0,0,1,1.62.12.16.16,0,0,1,.08.14A12.71,12.71,0,0,1,74,65.13Z"/><path class="cls-19" d="M82.44,65v.11c-.25.13-.53,0-.78.09-1.91,0-3.82,0-5.73-.09.06-.27.29-.21.46-.22a3.62,3.62,0,0,0,.87-.08,25,25,0,0,1,3.77,0C81.51,64.94,82,64.79,82.44,65Z"/><path class="cls-20" d="M66.35,65c-1.87,0-3.75,0-5.63-.08,0-.17.13-.18.25-.21.6,0,1.2,0,1.81,0a11.37,11.37,0,0,0,1.75,0,3,3,0,0,1,.84,0,1.13,1.13,0,0,0,.41,0,14,14,0,0,1,2.33.17.11.11,0,0,1,0,.15C67.54,65.06,66.94,65,66.35,65Z"/><path class="cls-21" d="M29.81,65.43a13.65,13.65,0,0,1,.65-2.74,7.17,7.17,0,0,1,1-1.84.15.15,0,0,1,.09.1,8.05,8.05,0,0,0-1.56,5,8.61,8.61,0,0,0,.91,3.61c.06.15.18.27.15.45a7.71,7.71,0,0,1-1.16-3.77A2.78,2.78,0,0,0,29.81,65.43Z"/><path class="cls-22" d="M87,71.29a15.52,15.52,0,0,1-.83-2.18,17.15,17.15,0,0,1-.25-1.89c0-.15,0-.32.09-.45s.06.07.1.1a7.48,7.48,0,0,0,1.19,4.5.38.38,0,0,1,.08.31Z"/><path class="cls-23" d="M56.77,64.94c-1.25,0-2.5,0-3.75-.08a.1.1,0,0,1,0-.15,17.5,17.5,0,0,1,2.51-.07,10,10,0,0,1,1.73.06c.13.11.08.18-.06.21A2.42,2.42,0,0,0,56.77,64.94Z"/><path class="cls-24" d="M57.36,64.78l-1.78,0q0-.09.06-.15a1,1,0,0,1,.47-.08c1.48,0,3,0,4.42.1a.8.8,0,0,1,.33.08.11.11,0,0,1,.06.15c-.08,0-.16,0-.2.1h-.1c-.5-.09-1,0-1.49,0a8.8,8.8,0,0,0-1.26,0C57.7,64.86,57.51,64.9,57.36,64.78Z"/><path class="cls-25" d="M51.14,64.86h-2a.11.11,0,0,1,.06-.13c.27-.15.6,0,.87-.17a.35.35,0,0,1,.14-.06,4.31,4.31,0,0,1,1.64,0,.17.17,0,0,1,.08.13c-.2.21-.47.06-.69.13A.24.24,0,0,0,51.14,64.86Z"/><path class="cls-26" d="M57.36,64.78a7,7,0,0,1,1.77.08c-.1.11-.27,0-.38.09h-2C56.94,64.78,57.2,65,57.36,64.78Z"/><path class="cls-27" d="M45,67.65c.07.27-.2.49-.1.76A12.34,12.34,0,0,1,44,70.05c.24-.6.49-1.2.72-1.81a5.41,5.41,0,0,0,.19-.69C45,67.54,45.07,67.55,45,67.65Z"/><path class="cls-28" d="M24.46,42.69a1,1,0,0,0,1.21-.29c.08,0,.11.05.12.13a.39.39,0,0,1-.25.29l-.14,0C25.07,42.94,24.73,43.13,24.46,42.69Z"/><path class="cls-29" d="M25.73,42.47a.13.13,0,0,0-.06-.07c.08-.16.16-.33.25-.5.06,0,.07.06.09.11-.17.4.07.56.41.66l-.09.2a.14.14,0,0,1-.12,0A1.32,1.32,0,0,1,25.73,42.47Z"/><path class="cls-30" d="M68.12,65a.28.28,0,0,0,0-.09,2.68,2.68,0,0,1,2,0,4.46,4.46,0,0,1-1.21.07c-.18,0-.39-.07-.56.09h-.11S68.12,65,68.12,65Z"/><path class="cls-31" d="M74,65.13a7.21,7.21,0,0,1,1.47-.08c.16-.08.31-.15.39.09Z"/><path d="M58.75,65c.1-.14.26,0,.38-.09a6.22,6.22,0,0,1,1.49.09Z"/><path d="M68.12,65l.1.09H66.35A8.06,8.06,0,0,1,68.12,65Z"/><path class="cls-32" d="M75.83,65.14c-.1-.13-.26-.06-.39-.09V65a2.25,2.25,0,0,1,1.78,0c-.24.17-.51,0-.77.09s-.36-.07-.51.09Z"/><path d="M51.14,64.86v-.1a7.34,7.34,0,0,1,.81-.05,1.29,1.29,0,0,1,1.07.06.28.28,0,0,1,0,.09Z"/><path class="cls-33" d="M49.16,64.77v.08h-.9c-.26-.09-.56.09-.8-.11a.12.12,0,0,1,.08-.12,1.66,1.66,0,0,1,.8,0c.24.1.52,0,.76.14Z"/><path class="cls-34" d="M24.92,39.16c-.43-.11-.72.18-1.05.36.2-.63.71-.48,1.17-.46C25.05,39.15,25,39.21,24.92,39.16Z"/><path class="cls-35" d="M82.12,28.53a.89.89,0,0,1-.81,0A.81.81,0,0,1,82.12,28.53Z"/><path class="cls-36" d="M81,28.44a1,1,0,0,1-.85,0A.88.88,0,0,1,81,28.44Z"/><path d="M81.67,65.24c.25-.17.52,0,.78-.09h.72A4.72,4.72,0,0,1,81.67,65.24Z"/><path class="cls-37" d="M47.48,64.7c.24.18.54,0,.78.14a2.52,2.52,0,0,1-1.09-.06s.1-.06,0-.12.08-.12.17-.12A.16.16,0,0,1,47.48,64.7Z"/><path class="cls-38" d="M26.19,42.86h.14c.06.21,0,.38-.19.47l-.2.1s-.05,0-.08,0l.06-.17a.17.17,0,0,1,0-.12C25.94,43,26,42.88,26.19,42.86Z"/><path class="cls-39" d="M84.1,28.72c-.22.12-.45.23-.63-.07A.91.91,0,0,1,84.1,28.72Z"/><path class="cls-40" d="M25.87,40.1c-.17-.19-.39-.35-.31-.65a1,1,0,0,1,.35.66Z"/><path class="cls-41" d="M23.57,41.15l.17.58a.14.14,0,0,1-.08.1.87.87,0,0,1-.17-.68S23.54,41.11,23.57,41.15Z"/><path class="cls-41" d="M25.87,40.1h0a1.54,1.54,0,0,1,.2.66s-.05,0-.08,0A1.41,1.41,0,0,1,25.87,40.1Z"/><path class="cls-42" d="M85.06,28.9c-.19,0-.43.12-.53-.15C84.72,28.75,84.94,28.66,85.06,28.9Z"/><path class="cls-43" d="M89,29.3c-.24.19-.44.08-.62-.08A1,1,0,0,1,89,29.3Z"/><path class="cls-44" d="M25.94,43.15l0,.13-.52-.48.15,0A.33.33,0,0,1,25.94,43.15Z"/><path class="cls-40" d="M23.86,42a1,1,0,0,1,.3.5.55.55,0,0,1-.38-.4A.14.14,0,0,1,23.86,42Z"/><path class="cls-45" d="M89.68,29.4c-.23.17-.42.06-.6-.09A1,1,0,0,1,89.68,29.4Z"/><path class="cls-46" d="M93.36,30c-.17.2-.34.07-.51,0s-.07-.05,0-.09A.73.73,0,0,1,93.36,30Z"/><path class="cls-47" d="M83.09,28.62a.35.35,0,0,1-.57-.07A.93.93,0,0,1,83.09,28.62Z"/><path class="cls-48" d="M86.73,29.1c-.2,0-.41,0-.54-.16C86.39,28.93,86.61,28.85,86.73,29.1Z"/><path class="cls-48" d="M87.52,29.19c-.2,0-.41.06-.54-.16C87.18,29,87.4,29,87.52,29.19Z"/><path class="cls-49" d="M88.29,29.21a.45.45,0,0,1-.6-.08A1.22,1.22,0,0,1,88.29,29.21Z"/><path class="cls-50" d="M98.55,31a.88.88,0,0,1-.48-.09s0-.05,0-.07,0,0,0,0a1,1,0,0,1,.49.1C98.62,31,98.61,31,98.55,31Z"/><path class="cls-51" d="M96.69,30.65a1.5,1.5,0,0,1-.6-.12s0,0,0-.05,0,0,0,0a1.25,1.25,0,0,1,.6.1s0,0,0,.06S96.7,30.65,96.69,30.65Z"/><path class="cls-52" d="M92.24,29.86a.72.72,0,0,1-.6-.17,1.12,1.12,0,0,1,.6.1s0,0,0,0S92.25,29.86,92.24,29.86Z"/><path class="cls-53" d="M94.62,30.26a1.49,1.49,0,0,1-.6-.11c.2-.19.39,0,.59,0,0,0,0,0,0,.06Z"/><path class="cls-52" d="M92.24,29.86v-.07a1.37,1.37,0,0,1,.6.08.28.28,0,0,1,0,.09A1.81,1.81,0,0,1,92.24,29.86Z"/><path class="cls-54" d="M26,40.77h.08a2.21,2.21,0,0,1,0,.77s-.05,0-.08,0Z"/><path class="cls-54" d="M23.57,41.15h-.08a1.94,1.94,0,0,1,0-.76s.05,0,.08,0Z"/><path class="cls-55" d="M91.57,29.68c-.21.19-.37.07-.53-.09A.75.75,0,0,1,91.57,29.68Z"/><path class="cls-56" d="M90.3,29.48c-.21.18-.38.09-.54-.08A.78.78,0,0,1,90.3,29.48Z"/><path class="cls-57" d="M100,31.32a1,1,0,0,1-.52-.12c.18-.21.35,0,.52,0a.06.06,0,0,1,0,.07S100,31.32,100,31.32Z"/><path class="cls-58" d="M98.55,31v-.1l.5.1s0,.05,0,.07,0,0,0,0A1.26,1.26,0,0,1,98.55,31Z"/><path class="cls-59" d="M98.07,30.82v.11a.52.52,0,0,1-.4-.09s0-.07,0-.1A.59.59,0,0,1,98.07,30.82Z"/><path class="cls-60" d="M97.68,30.74v.1a.84.84,0,0,1-.49-.1s0,0,0-.06,0,0,0,0Z"/><path class="cls-61" d="M97.18,30.64v.1a.92.92,0,0,1-.49-.09v-.1Z"/><path class="cls-62" d="M96.09,30.45v.08a1.14,1.14,0,0,1-.52-.09C95.75,30.26,95.92,30.37,96.09,30.45Z"/><path class="cls-63" d="M95.53,30.44a.71.71,0,0,1-.45-.09C95.28,30.16,95.42,30.21,95.53,30.44Z"/><path class="cls-64" d="M93.93,30.15a.54.54,0,0,1-.52-.18C93.6,30,93.83,29.9,93.93,30.15Z"/><path class="cls-65" d="M26,41.54h.08L26,42l-.09-.11C26,41.78,25.91,41.63,26,41.54Z"/><path class="cls-65" d="M23.57,40.39h-.08l.1-.47c.09,0,.13,0,.09.11S23.69,40.29,23.57,40.39Z"/><path class="cls-29" d="M23.68,40l-.09-.11c.05-.13,0-.31.27-.28Z"/><path class="cls-66" d="M91,29.59c-.17.14-.32.17-.41-.08A.51.51,0,0,1,91,29.59Z"/><path class="cls-67" d="M94.62,30.26a.28.28,0,0,0,0-.09c.17,0,.34,0,.41.17A.51.51,0,0,1,94.62,30.26Z"/><path class="cls-68" d="M85.92,29c-.16,0-.35.06-.43-.15C85.65,28.85,85.83,28.81,85.92,29Z"/><path class="cls-69" d="M23.86,42l-.08.1a.33.33,0,0,1-.12-.28l.08-.1Z"/><path class="cls-70" d="M99.06,31.13V31c.15,0,.29,0,.32.18A.41.41,0,0,1,99.06,31.13Z"/><path class="cls-71" d="M24.92,39.16l.12-.1a.3.3,0,0,1,.23.17C25.11,39.4,25,39.19,24.92,39.16Z"/><path class="cls-70" d="M100,31.32v-.11c.14,0,.29,0,.32.18A.41.41,0,0,1,100,31.32Z"/><path class="cls-72" d="M65.47,33.43h.18a.4.4,0,0,1,.14.24,2.73,2.73,0,0,1,0,.57v9.48a2.56,2.56,0,0,1,0,.62.56.56,0,0,1-.09.17.22.22,0,0,1-.27,0,.44.44,0,0,1-.08-.17,2.37,2.37,0,0,1,0-.53V34.15a2.58,2.58,0,0,1,0-.48A.4.4,0,0,1,65.47,33.43Z"/><path class="cls-73" d="M106.45,33.31v.2c-.2.18-.46.13-.7.14a16,16,0,0,0-2.3.08.46.46,0,0,1-.26,0,21.12,21.12,0,0,0-2.25-.05,3.39,3.39,0,0,1-.64,0,2.24,2.24,0,0,0-.73-.06H91.65a1.6,1.6,0,0,1-.72-.07l-.07-.06c.17-.15.37-.08.56-.08Z"/><path class="cls-74" d="M53.11,33.51c.1-.11.24-.08.37-.08h8.59a1.86,1.86,0,0,1,.34,0c.12.06.14.12,0,.2a1.64,1.64,0,0,1-.73.09H53.9a1.64,1.64,0,0,1-.73-.09A.11.11,0,0,1,53.11,33.51Z"/><path class="cls-74" d="M65.66,33.61v-.18H72a.17.17,0,0,1,0,.18.87.87,0,0,1-.65.15h-5A1,1,0,0,1,65.66,33.61Z"/><path class="cls-75" d="M72,33.5a.25.25,0,0,1,0-.08H82.46a.11.11,0,0,1,0,.08.91.91,0,0,1-.66.15c-3.05,0-6.1,0-9.16,0A.82.82,0,0,1,72,33.5Z"/><path class="cls-76" d="M53.11,33.51a.22.22,0,0,0,0,.08.7.7,0,0,1-.59.16c-1.61,0-3.23,0-4.84,0h-.35a6.26,6.26,0,0,0-1.06,0h-.15a1.17,1.17,0,0,0-.67,0,1.94,1.94,0,0,1-.72,0c-.34-.13-.72,0-1-.13a.1.1,0,0,1-.05-.14Z"/><path class="cls-75" d="M82.57,33.51a.11.11,0,0,1,0-.08l8.31,0v0a.12.12,0,0,1-.08.15,1.51,1.51,0,0,1-.67.08H83.32A1,1,0,0,1,82.57,33.51Z"/><path class="cls-74" d="M62.5,33.58l-.09-.11a24,24,0,0,1,3.06,0v.18a.68.68,0,0,1-.46.14H63A.55.55,0,0,1,62.5,33.58Z"/><path class="cls-77" d="M43.62,33.52v.06a.22.22,0,0,1-.17.2,25.67,25.67,0,0,1-3,0,.44.44,0,0,1-.22-.1.1.1,0,0,1,0-.15c.62,0,1.23,0,1.85,0Z"/><path d="M35.52,33.52h2.56c0,.06,0,.11-.06.14a8,8,0,0,1-2.44,0A.11.11,0,0,1,35.52,33.52Z"/><path class="cls-78" d="M38.09,33.59a.13.13,0,0,1,0-.06h2.08v.09A3,3,0,0,1,38.09,33.59Z"/><path class="cls-79" d="M40.16,33.58v-.06H42A7.91,7.91,0,0,1,40.16,33.58Z"/><path class="cls-80" d="M35.52,33.52v.07a1.67,1.67,0,0,1-1.33.07.1.1,0,0,1,0-.15Z"/><path class="cls-81" d="M34.14,33.51v.08c-.07.12-.19.12-.31.1s-.07-.09-.08-.16A.74.74,0,0,1,34.14,33.51Z"/><path class="cls-82" d="M94.21,73a5.58,5.58,0,0,1-5.65-5.58,5.65,5.65,0,0,1,11.3.34A5.59,5.59,0,0,1,94.21,73Z"/><path class="cls-83" d="M86.11,66.87l-.1-.1a7.51,7.51,0,0,1,3.24-5.9c.34-.26.74-.46,1.11-.69,0,0,0,0,0,.07s0,0,0,0c-.43.33-.91.59-1.34.94a7.73,7.73,0,0,0-2.81,4.65A4.75,4.75,0,0,0,86.11,66.87Z"/><path class="cls-84" d="M99.46,61.12v.12a9.1,9.1,0,0,0-3.17-1.63.2.2,0,0,1,.1-.08A7.5,7.5,0,0,1,99.46,61.12Z"/><path class="cls-85" d="M93.13,59.33a5.07,5.07,0,0,1,1.78,0,8.15,8.15,0,0,1-1.78.1s0,0,0-.06Z"/><path class="cls-86" d="M90.36,60.29v-.11a8.43,8.43,0,0,1,1.69-.65.15.15,0,0,1,.1.09Z"/><path class="cls-87" d="M96.38,59.53l-.1.08c-.36-.08-.76,0-1.07-.29Z"/><path class="cls-88" d="M92.15,59.62l-.1-.09a5.56,5.56,0,0,1,1.08-.2v.09A4.16,4.16,0,0,1,92.15,59.62Z"/><path class="cls-82" d="M42.14,68.69a4.88,4.88,0,0,1-2.92,2.58,5.13,5.13,0,0,1-6.37-2.82,5.67,5.67,0,0,1,1.28-6.59,5.06,5.06,0,0,1,6.62-.21,5.57,5.57,0,0,1,1.89,2.93c-.46.47-.25,1-.19,1.54a2.89,2.89,0,0,1-.35,1.75A.63.63,0,0,0,42.14,68.69Z"/><path class="cls-89" d="M42.14,68.69c-.36-.13-.5-.28-.26-.68a2.87,2.87,0,0,0,.37-2.27c-.1-.44-.22-.93.39-1.16a.29.29,0,0,1,.15.39.82.82,0,0,0,0,.76.76.76,0,0,1,.09.64,4.29,4.29,0,0,1-.58,2Z"/><path class="cls-90" d="M39.19,57.88a6.56,6.56,0,0,1,4,2.49A18.57,18.57,0,0,0,41.55,59a7.36,7.36,0,0,0-2.47-1C39.06,57.89,39.08,57.84,39.19,57.88Z"/><path class="cls-91" d="M43.23,60.37a5.83,5.83,0,0,1,1.46,2.28,7.12,7.12,0,0,1,.51,2s-.07,0-.1,0A9.15,9.15,0,0,0,44,61.61C43.76,61.19,43.49,60.78,43.23,60.37Z"/><path class="cls-92" d="M42.34,68.4a6.77,6.77,0,0,0,.49-2.67l.05-.21,0,.11a4.29,4.29,0,0,1,0,1.43C42.78,67.53,42.77,68.06,42.34,68.4Z"/><path class="cls-93" d="M33.15,59.23A5.32,5.32,0,0,1,35.42,58s0,0,0,.07l0,0A20.2,20.2,0,0,0,33.15,59.23Z"/><path class="cls-94" d="M31.56,61l-.09-.1a5.68,5.68,0,0,1,1.68-1.63A20,20,0,0,0,31.56,61Z"/><path class="cls-95" d="M45.21,65a2.69,2.69,0,0,1,0,1.54c-.1-.07,0-.21-.1-.29v-1C45.2,65.17,45.11,65,45.21,65Z"/><path class="cls-96" d="M35.43,58.09V58A7.16,7.16,0,0,1,37,57.71s0,0,0,0a.05.05,0,0,1,0,0Z"/><path class="cls-97" d="M45.11,66.21c.12.07.08.19.1.29a2.55,2.55,0,0,1-.2,1.15l-.08-.1A4.66,4.66,0,0,0,45.11,66.21Z"/><path class="cls-98" d="M39.19,57.88l-.11.09-1-.18s0,0,0-.06,0,0,0,0A3,3,0,0,1,39.19,57.88Z"/><path class="cls-99" d="M42.93,67.06V65.63A2.19,2.19,0,0,1,42.93,67.06Z"/><path class="cls-100" d="M38.09,57.7v.09H37a.19.19,0,0,1,0-.08Z"/><path class="cls-101" d="M45.21,65c0,.1,0,.21-.1.28,0-.19,0-.38,0-.56h.1Z"/><path class="cls-6" d="M37,53.88l-.07,0a1.67,1.67,0,0,1-.7-.16l-.2.06c-.24-.18-.56-.12-.81-.27h-.08c-.23-.07-.49,0-.7-.17h-.11c-.15,0-.28-.09-.43-.07s-.38-.06-.57-.12l-.24,0a3.15,3.15,0,0,0-.65-.23,1.27,1.27,0,0,1-.47-.13l-.4,0a1,1,0,0,0-.43-.17c-.42-.14-.84-.26-1.26-.41A3,3,0,0,1,29.5,52c-.55-.17-1-.5-1.56-.69l-.18-.21c-.16,0-.22-.19-.38-.19h0a5.6,5.6,0,0,1-1.67-2.27.3.3,0,0,1,0-.23,1.77,1.77,0,0,1,.81-.61,13.74,13.74,0,0,1,4.37-1.12,43,43,0,0,1,6-.4c3.15,0,6.29-.17,9.43-.09.34,0,.69-.18,1,.06a.66.66,0,0,1,.1.41c0,1.72,0,3.45,0,5.17a1,1,0,0,1,0,.24c-.13.27-.41.29-.66.35l-7.44,1.65a2.87,2.87,0,0,0-.57.17.87.87,0,0,1-.32,0A10.81,10.81,0,0,1,37,53.88Z"/><path class="cls-102" d="M29.89,61.62l-.1.19a1,1,0,0,1-.52.31,2.21,2.21,0,0,1-.81.11H27c-1.06,0-2.12,0-3.17,0s-1,0-1-1c0-.17.13-.47-.27-.38-.15,0-.29.06-.44,0A7.26,7.26,0,0,1,22,59.19c.08-.17.25-.09.38-.1s.32,0,.4-.18,0-.31.06-.45h0c.12-.1,0-.28.11-.38l5.86-1.27c1.07-.23,2.13-.49,3.2-.71a3.55,3.55,0,0,1,.73,0,.11.11,0,0,1,0,.12c-.23.19-.55.25-.73.51a2.62,2.62,0,0,0-.44.78c-.1.27-.18.55-.3.81s-.15.38-.23.56-.13.33-.2.49-.26.54-.36.82A10.85,10.85,0,0,0,29.89,61.62Z"/><path class="cls-103" d="M38.68,54.18c.2-.26.52-.24.8-.3,2.59-.59,5.19-1.16,7.79-1.73a3,3,0,0,1,.1,1.65c-.17.27-.47.28-.73.33-1,.22-2.07.47-3.11.69a3.81,3.81,0,0,0-.75.22.7.7,0,0,1-.32,0,1.93,1.93,0,0,0-.53-.11c-.42-.12-.86-.15-1.27-.3a.13.13,0,0,0-.08,0,6,6,0,0,1-1.19-.22,1.45,1.45,0,0,1-.5-.11C38.8,54.29,38.68,54.33,38.68,54.18Z"/><path class="cls-104" d="M42.73,55c.2-.33.58-.28.88-.35,1.21-.28,2.44-.53,3.66-.79a3.4,3.4,0,0,1,.08,1.87c-.16.2-.37.17-.59.15a1,1,0,0,1-.38-.19l-.17.07c-.3-.21-.69-.08-1-.26h-.12a7.45,7.45,0,0,1-.8-.14,2.75,2.75,0,0,1-.57-.12c-.21,0-.38-.11-.58-.1A.56.56,0,0,1,42.73,55Z"/><path class="cls-105" d="M47.48,64.7l-.15-.11a1.35,1.35,0,0,1-.11-.74c0-2.35,0-4.69,0-7a1.18,1.18,0,0,0-.06-.56c-.23-.27-.56-.09-.83-.17a.42.42,0,0,1-.14-.06.09.09,0,0,1,0-.13l.19,0a.29.29,0,0,1,.3,0c.24,0,.49.06.71-.08l.09,0a.6.6,0,0,1,.09.15,1.84,1.84,0,0,1,.05.57c0,2.49,0,5,0,7.46a1.58,1.58,0,0,1-.05.57.72.72,0,0,1-.11.15Z"/><path class="cls-8" d="M25.3,47c.33.23.08.62.25.9,0,.18.14.36,0,.53-.29-.09-.57-.21-.87-.28s-.32-.24-.16-.43"/><path class="cls-106" d="M38.48,56.06A11.46,11.46,0,0,1,40.67,56c.35.09.71,0,1.06.06a.1.1,0,0,1,0,.15.75.75,0,0,1-.46.11H39a.76.76,0,0,1-.42-.09A.12.12,0,0,1,38.48,56.06Z"/><path class="cls-107" d="M34,56.16a10.68,10.68,0,0,1,2.19-.07c.35.12.74-.09,1.09.12-.1.19-.29.19-.46.19a10.29,10.29,0,0,1-1.57,0c-.38-.15-.81,0-1.19-.15Z"/><path class="cls-108" d="M42.91,56A10.64,10.64,0,0,1,45,55.9c.39.08.79,0,1.18.05v0c0,.25-.25.22-.42.23a12.35,12.35,0,0,1-1.72,0C43.69,56,43.25,56.25,42.91,56Z"/><path class="cls-109" d="M25.75,48.7a5.7,5.7,0,0,0,1.51,2s.06.13.09.2a4.33,4.33,0,0,1-1.7-2.19C25.68,48.66,25.71,48.66,25.75,48.7Z"/><path class="cls-110" d="M27.94,51.3A6,6,0,0,1,29.5,52a.13.13,0,0,1-.1.07A6.43,6.43,0,0,1,27.94,51.3Z"/><path class="cls-111" d="M26.14,43.35c.14-.12.13-.31.19-.47l.19.09-.59,1.26C25.78,43.89,26.15,43.66,26.14,43.35Z"/><path class="cls-112" d="M29.88,52.08l1.3.44a.06.06,0,0,1,0,.07s0,0,0,0a6.87,6.87,0,0,1-1.39-.46A.16.16,0,0,1,29.88,52.08Z"/><path class="cls-113" d="M25.45,47.94c-.19-.29-.05-.64-.15-.95l.06-.77s.05,0,.08,0v.59a1.86,1.86,0,0,1,.14,1.09A.09.09,0,0,1,25.45,47.94Z"/><path class="cls-114" d="M40.66,54.65a5.18,5.18,0,0,1,1.29.26s0,0,0,.06,0,0,0,0C41.52,54.88,41,55,40.66,54.65Z"/><path class="cls-115" d="M37,53.88a7.31,7.31,0,0,1,1.39.29s0,0,0,0,0,0,0,0A3.06,3.06,0,0,1,37,53.88Z"/><path class="cls-116" d="M39.37,54.36a6.23,6.23,0,0,1,1.21.27c-.44.15-.81-.08-1.21-.17,0,0,0,0,0-.07S39.36,54.36,39.37,54.36Z"/><path class="cls-117" d="M44.31,55.32c.26.07.56,0,.78.2a1.23,1.23,0,0,1-.88-.11A.18.18,0,0,1,44.31,55.32Z"/><path class="cls-118" d="M25.44,46.22h-.08a2.93,2.93,0,0,1,.21-1h.05Z"/><path class="cls-119" d="M42.91,56c.36.08.75-.07,1.1.09a1.25,1.25,0,0,1-1.13.08c-.06,0-.07-.08-.05-.15A.12.12,0,0,1,42.91,56Z"/><path class="cls-120" d="M45.21,55.51c.33.1.72,0,1,.26C45.88,55.66,45.5,55.77,45.21,55.51Z"/><path class="cls-119" d="M46.2,56A3.35,3.35,0,0,1,45,55.9H46.2S46.2,55.93,46.2,56Z"/><path class="cls-121" d="M36.23,53.7a1.71,1.71,0,0,1,.7.16C36.66,53.94,36.4,54,36.23,53.7Z"/><path class="cls-119" d="M37.32,56.18c-.36-.08-.74.07-1.1-.09H37.4a.09.09,0,0,1,0,.06,0,0,0,0,1,0,0A.08.08,0,0,1,37.32,56.18Z"/><path class="cls-122" d="M32.74,56.15l0-.07c.23,0,.47-.09.68.08a.23.23,0,0,1-.13.17.63.63,0,0,1-.45,0A.23.23,0,0,1,32.74,56.15Z"/><path class="cls-123" d="M35.22,53.49c.26.1.62,0,.81.27C35.75,53.68,35.44,53.72,35.22,53.49Z"/><path class="cls-124" d="M41.76,56.05A2.66,2.66,0,0,1,40.67,56h1.08Z"/><path class="cls-125" d="M41.76,56.05a.13.13,0,0,1,0-.06h1.08v.08a1,1,0,0,1-1.08,0Z"/><path class="cls-125" d="M37.4,56.16v-.08l1.08,0v.1A1,1,0,0,1,37.4,56.16Z"/><path class="cls-126" d="M25.62,45.17h-.05c0-.24,0-.5.25-.66A1.41,1.41,0,0,1,25.62,45.17Z"/><path class="cls-127" d="M25.45,47.94h.07c.25.13.2.35.2.55l0,.21h-.1l-.13-.29Z"/><path class="cls-128" d="M32.46,52.83c.21.08.51,0,.63.27a1.79,1.79,0,0,1-.64-.17s0,0,0-.06S32.44,52.83,32.46,52.83Z"/><path class="cls-129" d="M34.44,53.31a1.51,1.51,0,0,1,.7.17C34.89,53.49,34.62,53.57,34.44,53.31Z"/><path class="cls-120" d="M42.73,55l.4.12v.06l-.69-.1s0,0,0-.05,0,0,0,0Z"/><path class="cls-130" d="M33.33,53.12a.77.77,0,0,1,.61.1v.06A1.62,1.62,0,0,1,33.33,53.12Z"/><path class="cls-123" d="M44.31,55.32l-.1.09a.84.84,0,0,1-.49-.11s0,0,0,0l0,0Z"/><path class="cls-131" d="M32.46,52.83v.1c-.17,0-.38,0-.48-.19C32.14,52.7,32.29,52.8,32.46,52.83Z"/><path class="cls-120" d="M42.44,55v.08L42,55v-.09C42.11,54.94,42.3,54.88,42.44,55Z"/><path class="cls-132" d="M33.36,56.24l.09-.08H34v0c0,.06,0,.1-.05.13A.51.51,0,0,1,33.36,56.24Z"/><path class="cls-133" d="M43.72,55.23v.07a1.09,1.09,0,0,1-.59-.11v-.06C43.34,55.09,43.52,55.21,43.72,55.23Z"/><path class="cls-134" d="M38.39,54.24v-.07h.29l.2.09s0,0,0,0,0,0,0,0A.76.76,0,0,1,38.39,54.24Z"/><path class="cls-135" d="M38.88,54.35v-.08l.49.09v.1A.93.93,0,0,1,38.88,54.35Z"/><path class="cls-136" d="M29.88,52.08l-.1.08L29.4,52l.1-.07Z"/><path class="cls-137" d="M46.68,55.87h-.29V55.7c.11,0,.23,0,.31.06S46.74,55.84,46.68,55.87Z"/><path class="cls-138" d="M33.94,53.28v-.06a.43.43,0,0,1,.39.09C34.19,53.45,34.07,53.27,33.94,53.28Z"/><path class="cls-139" d="M27.38,50.9c.21-.09.27.1.38.19C27.57,51.14,27.47,51,27.38,50.9Z"/><path class="cls-140" d="M31.17,52.62v-.1a.38.38,0,0,1,.39.2Z"/><path class="cls-141" d="M25.72,48.49l-.2-.55a6.07,6.07,0,0,1-.07-1.13,20.81,20.81,0,0,1,7.39-1.65c2-.18,4-.14,6.06-.2s4.25,0,6.37-.1l2-.06a.3.3,0,0,1,.09.13,4,4,0,0,1,0,1.2.29.29,0,0,1-.1.12c-1.93.1-3.85,0-5.77.09s-3.85,0-5.77.09a35,35,0,0,0-7.7.94A5.25,5.25,0,0,0,25.72,48.49Z"/><path class="cls-142" d="M33.83,33.69c.08-.1.21-.07.31-.1h4l2.08,0a16.72,16.72,0,0,0,2.24.08c.37,0,.75,0,1.12,0a4.17,4.17,0,0,1,1.17,0l.8,0c.2,0,.4,0,.6,0l.09,0a1.56,1.56,0,0,1,1.09.31.27.27,0,0,1,.09.12.62.62,0,0,1,.07.46c0,.65,0,1.3,0,2V40.8c0,.36,0,.72,0,1.08a.84.84,0,0,1-.14.43,1.26,1.26,0,0,1-1,.37H29.87c-.75,0-.75,0-.46-.65.05-.14.2-.23.18-.4l3.94-7.49a1.51,1.51,0,0,0,.1-.3A.23.23,0,0,0,33.83,33.69Z"/><path class="cls-143" d="M47.26,42.31a.23.23,0,0,1,0-.29,3.08,3.08,0,0,0,.07-1.21c-.07-1.39,0-2.79,0-4.19a16.51,16.51,0,0,0,.05-1.86c0-.23.13-.47-.1-.66l0,0c-.05-.16-.11-.33,0-.48h.3a.67.67,0,0,1,.15.49c0,3.5,0,7,0,10.51a1,1,0,0,1,0,.17c-.08.16-.21.17-.36.09l0-.07C47.29,44,47.34,43.13,47.26,42.31Z"/><path class="cls-144" d="M29.59,41.62c.16.23-.05.3-.18.4A.57.57,0,0,1,29.59,41.62Z"/><path class="cls-145" d="M83.25,65c-.69.06-.69.06-.69-.62q0-3.75,0-7.49a.89.89,0,0,1,.3-.76c-.06-.15.05-.19.15-.24s.36-.31.57-.42l.53-.38c.35-.27.73-.49,1.1-.74a4,4,0,0,0,.52-.31c.51-.24,1-.51,1.52-.71l.66-.26a14.79,14.79,0,0,1,1.47-.47c.17,0,.33-.11.5-.14.46-.12.93-.16,1.39-.27a5.63,5.63,0,0,0,.81-.11H95a8.67,8.67,0,0,0,.89.13c.33.08.67.1,1,.19s.44.07.64.14a4.77,4.77,0,0,1,.54.15,1,1,0,0,0,.55.11.41.41,0,0,1,.19,0,1.19,1.19,0,0,0,.44.21l.37.14c.16.06.33.11.49.18l.64.25a13.61,13.61,0,0,1,1.63.79c.19.13.4.21.6.32l.52.34c.59.38.59.38.87-.25.12-.14,0-.49.42-.37a1.14,1.14,0,0,1,.08.55,6.92,6.92,0,0,1,0,.91.64.64,0,0,1-.08.14,13.26,13.26,0,0,1-2.48.63c-1.85.42-3.72.81-5.57,1.24a6.61,6.61,0,0,1-1,.14l-.38,0A.67.67,0,0,1,95,58a10.45,10.45,0,0,0-10.07,4.49c-.44.75-1,1.43-1.35,2.21A.51.51,0,0,1,83.25,65Z"/><path class="cls-146" d="M95.69,58.1a6.61,6.61,0,0,1,1.64-.43c2.36-.54,4.73-1.06,7.1-1.59a1,1,0,0,1,.25,0c.21.29.07.61.11.92a5.54,5.54,0,0,0,0,.71c.05.32,0,.64,0,.95a7.6,7.6,0,0,1,0,1c0,.58,0,1.15,0,1.73.07.29,0,.59,0,.85,0,0,0,0,0,0,0-.28,0-.57,0-.85a4.91,4.91,0,0,1,0-.86c0-.6,0-1.21,0-1.81,0-.32,0-.63,0-.95a4.91,4.91,0,0,1,0-.86,4.8,4.8,0,0,1,0-.93.8.8,0,0,1,.52-.25c1.53-.34,3.07-.67,4.6-1,.27-.06.57-.21.85,0a13.47,13.47,0,0,0,.11,2c0,.35,0,.7,0,1.05v1.14c.07.58,0,1.16,0,1.75a.81.81,0,0,0,0,.46h0c0,.22,0,.45,0,.68l0,.93a3.65,3.65,0,0,1-1.35.23c-.23,0-.46,0-.69.06a.58.58,0,0,0-.34.09h-.35c-.24-.11-.47.06-.71,0H106c-.91,0-1.14.34-.81,1.16,0,.09,0,.18.07.27-.64,0-1.28,0-1.92,0a.62.62,0,0,1-.67-.4,14.09,14.09,0,0,0-2.28-3.54,5.56,5.56,0,0,0-.44-.39,8.19,8.19,0,0,0-3.69-1.89Z"/><path class="cls-147" d="M83.45,64.68a17.54,17.54,0,0,1,2.36-3.53A7.84,7.84,0,0,1,89,59c-.57.39-1.13.81-1.72,1.18a8.42,8.42,0,0,0-2.72,3.32,9.52,9.52,0,0,1-1,1.53C83.42,64.92,83.55,64.76,83.45,64.68Z"/><path class="cls-148" d="M83.45,64.68c.12.07.08.2.12.31a.19.19,0,0,0,0,.08l-.3,0C83.32,64.92,83.46,64.84,83.45,64.68Z"/><path class="cls-149" d="M95,58a.3.3,0,0,1,.31.07C95.15,58.24,95.09,58.09,95,58Z"/><path class="cls-150" d="M20.49,62a3.85,3.85,0,0,1-.07-1.17c.15.1.08.25.09.38A1.33,1.33,0,0,1,20.49,62Z"/><path class="cls-151" d="M22.2,62.18a1.3,1.3,0,0,1-.73-.09A.57.57,0,0,1,22.2,62.18Z"/><path class="cls-152" d="M20.49,62c0-.27,0-.53,0-.79.2.22-.09.61.3.76a.29.29,0,0,1-.32,0Z"/><path class="cls-153" d="M20.49,62l.32,0c.08,0,.15,0,.19.09A.74.74,0,0,1,20.49,62Z"/><path class="cls-154" d="M25.05,62.47c-.11,0-.23,0-.31-.08a.25.25,0,0,1,.18-.18,14.91,14.91,0,0,1,3.13.17c.2,0,.43,0,.57.22-.15.25-.43,0-.61.16l-1.62-.19c-.15,0-.32,0-.45-.09A1.79,1.79,0,0,0,25.05,62.47Z"/><path class="cls-155" d="M28,62.76c.19-.17.42,0,.62-.11a.69.69,0,0,1,.67,0,.59.59,0,0,1,.18.13c.25.12.57.2.31.58a.71.71,0,0,0-.75-.48C28.69,62.85,28.35,62.79,28,62.76Z"/><path class="cls-156" d="M24.85,62.3l-.11.09c-.29,0-.54,0-.67.3a.3.3,0,0,1-.28.16c.07-.17.27-.29.27-.5s.27-.16.43-.16S24.76,62.17,24.85,62.3Z"/><path class="cls-157" d="M21.39,64.67l.59-.36c0,.28-.27.32-.49.37C21.45,64.72,21.42,64.72,21.39,64.67Z"/><path class="cls-156" d="M25.05,62.47a1,1,0,0,1,.89,0Z"/><path class="cls-158" d="M22.19,64.2a1.48,1.48,0,0,1,.49-.37s0,0,0,.06,0,0,0,0A.49.49,0,0,1,22.19,64.2Z"/><path class="cls-159" d="M21.39,64.67h.1c-.13.16-.24.34-.49.2Z"/><path class="cls-160" d="M22.68,63.92v-.09l.39-.28A.43.43,0,0,1,22.68,63.92Z"/><path class="cls-102" d="M33.36,56.24H34a4.58,4.58,0,0,1,1.17,0,10.64,10.64,0,0,0,2.11-.06.12.12,0,0,0,.08,0h1.08a23.81,23.81,0,0,0,3.27-.08l1.08,0H44A9.93,9.93,0,0,0,46.19,56l1.09,0c.11,1,0,2,0,3.08,0,.83,0,.83-.82,1l-1.82.4a.87.87,0,0,1-.67,0,4.62,4.62,0,0,1-.34-.41,6.74,6.74,0,0,0-5.58-2.83,8.79,8.79,0,0,0-5.92,1.71,6.16,6.16,0,0,0-1,.81,1,1,0,0,1-.45.27.15.15,0,0,1-.15-.12c0-.19.14-.33.18-.51s.15-.32.2-.5a6.62,6.62,0,0,0,.24-.62c.13-.24.17-.51.29-.76a3.23,3.23,0,0,1,.41-.78,1.2,1.2,0,0,1,.91-.48Z"/><path class="cls-161" d="M44,60.47l2.92-.6c.28-.06.36-.21.36-.48,0-1.13,0-2.26,0-3.39.12.06.08.16.08.25v8.2a.7.7,0,0,1,0,.14l-.13.07c-1.33.08-1.48,0-1.72-1.28a7.65,7.65,0,0,0-1.22-2.5Z"/><path class="cls-162" d="M24.85,62.3l-.39,0c0-.07,0-.11.07-.12h3a4.82,4.82,0,0,0,1.2,0,1.93,1.93,0,0,0,.53-.11c.13,0,.4-.32.4.13l-.2.39c-.08-.09-.09-.18.05-.33-.18.18-.1.38-.26.49l-.66-.09A15,15,0,0,0,24.85,62.3Z"/><path class="cls-163" d="M30.77,60c.48-.34.79-.88,1.4-1.05a9.8,9.8,0,0,0-2,2.37c-.27,0-.18-.21-.12-.34a5.07,5.07,0,0,1,.32-.61A4.51,4.51,0,0,1,30.77,60Z"/><path class="cls-164" d="M30.45,60.37c-.11.31-.49.54-.27.94a.52.52,0,0,1-.29.31c-.08-.59.31-1,.51-1.53.09,0,.12,0,.14.11A.17.17,0,0,1,30.45,60.37Z"/><path class="cls-165" d="M29.29,62.74a.93.93,0,0,1,.18-.51l0,.35,0,.18Z"/><path class="cls-166" d="M24,62.29c.14-.17.32-.08.48-.08v.06l-.4.08S24,62.35,24,62.29Z"/><path class="cls-167" d="M19.61,54.33a3.57,3.57,0,0,1,.24-1.45c.06-.16.15-.34.37-.33s.28.16.33.31a4.25,4.25,0,0,1,0,3c-.05.15-.14.31-.33.31s-.31-.17-.37-.33A3.46,3.46,0,0,1,19.61,54.33Z"/><path class="cls-168" d="M25.55,41.2a2,2,0,0,1-.08.6c-.1.25-.22.47-.52.51a.58.58,0,0,1-.59-.35A2.18,2.18,0,0,1,24.17,40c.19-.52.66-.58,1-.14A2,2,0,0,1,25.55,41.2Z"/><path class="cls-6" d="M82.57,33.51h8.28a.67.67,0,0,1,.34,0H100a.7.7,0,0,1,.29,0h2.46c.18,0,.37-.06.52.09-.06.19.06.35.09.53a3,3,0,0,1,0,.42,1,1,0,0,0,.06.42,3.13,3.13,0,0,1,0,.43,1.24,1.24,0,0,0,0,.43,1.53,1.53,0,0,1,0,.43,1.22,1.22,0,0,0,.06.42,1.35,1.35,0,0,1,0,.29,1.87,1.87,0,0,0,.08.57,3.17,3.17,0,0,1,0,.44,1.28,1.28,0,0,0,.06.43.92.92,0,0,1,0,.29,4.08,4.08,0,0,1,.08.85.37.37,0,0,1-.1.22,21.6,21.6,0,0,1-3,.71L89.12,43.08l-3.36.74a3.39,3.39,0,0,0-.88.3c-.66.11-1.34,0-2,.1a.36.36,0,0,1-.31-.11Z"/><path class="cls-169" d="M77.22,65H75.44c-1.78,0-3.56-.15-5.34-.08l-2,0-2.46-.1c-.21-.19-.15-.44-.15-.67V56.85c0-.77,0-.81.82-.82h1.28a8,8,0,0,1,1.09,0,14.56,14.56,0,0,0,2,.06h1a6.63,6.63,0,0,1,1.09,0,12.93,12.93,0,0,0,2,0h1a9.93,9.93,0,0,1,1.09,0,13.08,13.08,0,0,0,1.88.06h1.08a6.56,6.56,0,0,1,1,0,4.77,4.77,0,0,0,1.07.06c.21,0,.43,0,.6.13V65C80.7,65,79,64.91,77.22,65Z"/><path class="cls-6" d="M72,33.5H82.45c0,3.53,0,7.07,0,10.6a.8.8,0,0,1-.65.16c-2-.05-3.91.08-5.86.12-3.06.06-6.11.17-9.17.17-.36,0-.74.22-1.08-.09,0-1.76,0-3.52,0-5.29V33.61l5.76,0C71.61,33.58,71.81,33.65,72,33.5Z"/><path class="cls-170" d="M83,56l-.15.2c-.18.07-.31.11-.3-.18,0-1.09,0-2.18,0-3.27A20.39,20.39,0,0,1,85,52.15c3.13-.69,6.25-1.4,9.39-2.06a5.61,5.61,0,0,0,.65-.23,15.45,15.45,0,0,1,1.8,0c.24,0,.46,0,.58-.26a1.24,1.24,0,0,1,.67-.27l5.6-1.24c.27-.06.56-.2.85,0a1.28,1.28,0,0,1,.09.67,5.79,5.79,0,0,1-.07,1.38c-.14.19-.37.18-.57.23L96.41,52c-.31.06-.6.16-.9.24s-.33-.05-.5,0a5.72,5.72,0,0,1-.59,0,10.46,10.46,0,0,0-1.77,0,5.72,5.72,0,0,1-.58,0c-.27,0-.53.11-.8.09a11.1,11.1,0,0,0-1.37.28,1.79,1.79,0,0,0-.51.11c-.51.16-1,.31-1.53.49-.23.07-.43.19-.66.26-.52.23-1,.48-1.54.74a1.39,1.39,0,0,1-.41.23c-.37.27-.78.49-1.15.77-.19.08-.3.25-.46.36S83.29,55.92,83,56Z"/><path class="cls-171" d="M82.44,50.62v2.3a2.09,2.09,0,0,1-1,.31C77.35,54.15,73.22,55,69.11,56l-.53.14h-.94c-.29,0-.59,0-.88,0s-.78.08-1.13-.14a3.46,3.46,0,0,1,0-1.66.69.69,0,0,1,.54-.29l13-2.87,2.64-.58C82,50.53,82.23,50.45,82.44,50.62Z"/><path class="cls-172" d="M82.44,45.55V47a6.15,6.15,0,0,1-1.79.47L66.33,50.62c-.24.05-.5.2-.74,0a9.16,9.16,0,0,1,0-2.28c.13-.25.39-.27.63-.32l9.51-2.1c-.37,0-.71,0-1,0-.16,0-.38,0-.4-.22a.74.74,0,0,1,.55-.15c2.31.06,4.62-.14,6.93-.1A1,1,0,0,1,82.44,45.55Z"/><path class="cls-173" d="M65.68,50.62l5.39-1.19,11-2.42a1.67,1.67,0,0,1,.39,0v2a1,1,0,0,1-.54.21L66.61,52.58c-.33.07-.68.29-1,0A3.63,3.63,0,0,1,65.68,50.62Z"/><path class="cls-174" d="M82.57,44.11,84.93,44a1.6,1.6,0,0,1,.72-.14c1.26,0,2.52-.09,3.79-.09,1.82,0,3.64-.19,5.46-.11,2.11,0,4.23-.08,6.34-.17.92,0,1.84,0,2.76,0a.68.68,0,0,1,.37.09c.17.14.15.34.16.52s.1.69-.14,1a.79.79,0,0,1-.52.12c-1.62,0-3.25,0-4.87.1a7.69,7.69,0,0,0-.83,0,11.46,11.46,0,0,0-2.11.07,6.75,6.75,0,0,1-1.27,0c-1.53-.06-3.05.09-4.58.09a4.68,4.68,0,0,0-.65,0,12.14,12.14,0,0,0-2.09.07c-1.07.08-2.14,0-3.21,0a11.63,11.63,0,0,0-1.18,0,.55.55,0,0,1-.51-.1Z"/><path class="cls-175" d="M65.68,52.63l5.87-1.28L82.2,49a1,1,0,0,1,.24,0v1.62a25.19,25.19,0,0,0-3,.6L66,54.17l-.28.08A1.84,1.84,0,0,1,65.68,52.63Z"/><path class="cls-170" d="M68.62,56.05A3.33,3.33,0,0,1,70,55.62c2.27-.52,4.56-1,6.84-1.51l5.35-1.18a1,1,0,0,1,.25,0v3.43c-.18.16-.4.08-.6.1a7.65,7.65,0,0,1-1.07,0c-.32,0-.65,0-1,0h-1a5.2,5.2,0,0,0-1,0,8,8,0,0,1-1,0c-.35,0-.71,0-1.06,0h-1a6.07,6.07,0,0,0-1,0,6.42,6.42,0,0,1-1,0c-.35,0-.71,0-1.06,0h-.88a5.16,5.16,0,0,0-1.11,0c-.32,0-.64,0-1,0A.24.24,0,0,1,68.62,56.05Z"/><path class="cls-174" d="M82.44,45.55l-7.87.12c-.11,0-.23,0-.32.07a.65.65,0,0,1-.55.15c-2.47-.06-4.93.16-7.4.1a1.57,1.57,0,0,1-.53-.05.46.46,0,0,1-.16-.11,1.9,1.9,0,0,1,0-1.33l0,0,8.48-.17,8.28-.19Z"/><path class="cls-171" d="M95,50a6.17,6.17,0,0,1-1.92.53c-2.24.53-4.49,1-6.73,1.49l-3.2.71a2.89,2.89,0,0,1-.59,0V50.53a.88.88,0,0,1,.49-.22c2.89-.65,5.8-1.27,8.69-1.92.22,0,.45-.14.65.06a1.83,1.83,0,0,1,.08.8c0,.53,0,.56.6.57h1.43C94.69,49.82,94.88,49.8,95,50Z"/><path class="cls-173" d="M98.16,45.19H99c0,.29-.25.29-.44.34a16.61,16.61,0,0,0-2.3.62c-1,.06-2,0-3,0-.62,0-.62,0-.77.6-.12.2-.34.23-.54.28C89,47.69,86.1,48.3,83.23,49c-.22,0-.45.13-.66-.05V47.18a.94.94,0,0,1,.58-.24c2.29-.5,4.58-1,6.87-1.51l.14,0c2-.09,4-.13,5.92-.12C96.77,45.15,97.47,45.29,98.16,45.19Z"/><path class="cls-175" d="M82.57,48.9a29.51,29.51,0,0,0,3.21-.67l6.54-1.43a1.84,1.84,0,0,1,0,1.62L86.44,49.7l-3.87.83Z"/><path class="cls-176" d="M90.16,45.38a2.08,2.08,0,0,1-1.13.39c-2.15.48-4.3.94-6.46,1.41V45.55c1.64-.14,3.28-.07,4.91-.1.69-.11,1.39,0,2.08-.07Z"/><path class="cls-177" d="M81.85,56.38l.6,0v.2a7.68,7.68,0,0,1-1.66-.09l.06-.05A8.46,8.46,0,0,0,81.85,56.38Z"/><path class="cls-178" d="M47.49,64.55q0-4.38,0-8.76c0-.22.2-.21.36-.23s.47,0,.71,0,.66,0,1,0a3.3,3.3,0,0,0,1,.07h1a6.5,6.5,0,0,1,1.08,0,12.93,12.93,0,0,0,2,.05h1a9.84,9.84,0,0,1,1.09,0,14.41,14.41,0,0,0,2,.06h1a7.89,7.89,0,0,1,1.09,0,13.08,13.08,0,0,0,1.88.06h2.09c.28,0,.58-.08.83.14a1.16,1.16,0,0,1,0,.52v7.57c0,.2.06.42-.11.59l-.88,0a17.63,17.63,0,0,1-1.78,0,16.68,16.68,0,0,1-1.87,0c-1.78,0-3.56-.14-5.34-.08a34.37,34.37,0,0,1-3.66,0,6.17,6.17,0,0,0-1.77-.07A8.79,8.79,0,0,1,47.49,64.55Z"/><path class="cls-179" d="M65.45,64.76q0-4.34,0-8.67c0-.08.1-.1.18-.12h.06c.36.07.74-.06,1.09.09,0,.06-.07.06-.11.09-1,0-1,0-1,1,0,2.52,0,5.05,0,7.57C65.6,64.87,65.52,64.87,65.45,64.76Z"/><path class="cls-180" d="M60.92,64.77h1.87s.05,0,0,0,0,0,0,0H60.92Z"/><path class="cls-181" d="M62.79,64.85v-.07h1.78A6.65,6.65,0,0,1,62.79,64.85Z"/><path class="cls-182" d="M51.92,64.68h3.66v.07H51.91s0,0,0-.06l0,0Z"/><path class="cls-183" d="M47.49,64.55l2.66.06v0a3.24,3.24,0,0,1-1,.06,3.55,3.55,0,0,1-.8,0h-.9Z"/><path class="cls-184" d="M49.15,64.67h1c-.31.23-.66.06-1,.11h0s0,0,0-.06S49.14,64.67,49.15,64.67Z"/><path class="cls-184" d="M51.92,64.68a.11.11,0,0,1,0,.08h-.78C51.38,64.59,51.66,64.71,51.92,64.68Z"/><path class="cls-185" d="M25.94,43.15l-.39-.37.18-.31c.27,0,.37.18.46.39C26.08,42.94,26.08,43.1,25.94,43.15Z"/><path class="cls-186" d="M49.15,64.67v.1c-.26,0-.55.08-.79-.09Z"/><path class="cls-6" d="M47.57,44.8c0-3.73,0-7.46,0-11.19l5.52,0h9.4l3,0c0,3.6,0,7.21,0,10.81a.79.79,0,0,1-.53.22,1.51,1.51,0,0,1-.3,0c-2.54-.06-5.09.09-7.63.12-1.89,0-3.78,0-5.66.1-1,0-2,.07-3,.07A1.09,1.09,0,0,1,47.57,44.8Z"/><path class="cls-141" d="M47.57,44.8c2.63,0,5.26,0,7.89-.13,1.52-.06,3,0,4.58-.09s3.22,0,4.83-.09a5.73,5.73,0,0,0,.58-.07l0,.08a3.84,3.84,0,0,1,.06,1.35.26.26,0,0,1-.11.14,1.8,1.8,0,0,1-.83.1c-2.36,0-4.73.08-7.09.13-1.61,0-3.22,0-4.83.08-1.45.08-2.89.06-4.34.08a1.25,1.25,0,0,1-.76-.13,1.7,1.7,0,0,1,0-1.38A.25.25,0,0,0,47.57,44.8Z"/><path class="cls-187" d="M65.48,45.84V44.5h.16v1.34S65.53,45.9,65.48,45.84Z"/><path class="cls-74" d="M100.33,33.49H90.85a.08.08,0,0,0,0-.07l9.21,0A.33.33,0,0,1,100.33,33.49Z"/><path class="cls-188" d="M47.28,33.6a.72.72,0,0,1,0,.48c-.29-.28-.71-.23-1.05-.4C46.54,33.5,46.92,33.65,47.28,33.6Z"/><path class="cls-189" d="M44.7,33.68H43.53l.09-.11C44,33.66,44.35,33.5,44.7,33.68Z"/><path class="cls-190" d="M46.1,33.71a.55.55,0,0,1-.6,0C45.7,33.5,45.9,33.61,46.1,33.71Z"/><path class="cls-168" d="M90.45,67.05c.29-2.6,3.66-4,6-2.53a3.66,3.66,0,0,1,1.7,2.35.94.94,0,0,1-.76.24c-.4,0-.81,0-1.21,0a1.36,1.36,0,0,0-1,0c-1.34.11-2.69.07-4,.19C90.91,67.31,90.57,67.43,90.45,67.05Z"/><path class="cls-191" d="M98.18,67.05a1.39,1.39,0,0,1,.07.78.55.55,0,0,1-.46.13c-1.06,0-2.12.08-3.19.12s-2.42,0-3.62.16a1.29,1.29,0,0,1-.44,0l-.16-.1v-.39a.56.56,0,0,1,.45-.13c1.07,0,2.12-.16,3.18-.1.4,0,.78-.1,1.17-.1a1.57,1.57,0,0,0,1-.06c.47-.06,1,0,1.42-.09A2.49,2.49,0,0,0,98.18,67.05Z"/><path class="cls-192" d="M90.38,68.12h.08a.68.68,0,0,0,.52.09l6.9-.28a.54.54,0,0,1,.37.09.53.53,0,0,1-.07.39,3.1,3.1,0,0,1-1.44.2c-1.85,0-3.7.15-5.54.22a1,1,0,0,1-.71-.14Z"/><path class="cls-193" d="M91,69.84a.85.85,0,0,1-.25-.39,1.28,1.28,0,0,1,.88-.11,1,1,0,0,0,1-.09c1.18,0,2.36-.13,3.54-.13a10.2,10.2,0,0,0,1.24-.06.51.51,0,0,1,.5.11,1,1,0,0,1-.24.49,2.88,2.88,0,0,1-1.76.2,4.07,4.07,0,0,0-.61-.07c-1.11.18-2.24,0-3.36.18A1.38,1.38,0,0,1,91,69.84Z"/><path class="cls-194" d="M97.18,70.32a1.41,1.41,0,0,1-.67.58,4.86,4.86,0,0,1-1.69.22,11.84,11.84,0,0,1-2.38,0,1.64,1.64,0,0,1-.71-.47,3,3,0,0,1,1.38-.18,16.18,16.18,0,0,0,2.09-.14,4.66,4.66,0,0,0,.82-.13,3.23,3.23,0,0,0,.62,0C96.85,70.1,97.06,70.08,97.18,70.32Z"/><path class="cls-89" d="M94.49,72.72a8.14,8.14,0,0,1-2.21-.34c-.15,0-.41,0-.29-.32s.19-.37.48-.25a7.73,7.73,0,0,0,1.52.31,2.86,2.86,0,0,0,1.5-.19c.25-.1.47-.09.56.17s-.17.34-.36.4A3,3,0,0,1,94.49,72.72Z"/><path class="cls-89" d="M99.36,68a3.52,3.52,0,0,1-.58,2c-.12.19-.24.29-.46.12s-.2-.23,0-.45A3.22,3.22,0,0,0,98.62,67c-.05-.19-.16-.39.15-.5s.35-.1.41.19A6.17,6.17,0,0,1,99.36,68Z"/><path class="cls-195" d="M98,69.17c-1.8.11-3.6.2-5.41.19-.14-.14-.24-.28,0-.45a8.59,8.59,0,0,1,1.76-.12c1.11-.06,2.23-.13,3.34-.13a.55.55,0,0,1,.46.13A.42.42,0,0,1,98,69.17Z"/><path class="cls-89" d="M94,62.75a3.78,3.78,0,0,1,1.63.44c.14.07.28.16.15.33s-.2.33-.43.2a2.59,2.59,0,0,0-2.62,0c-.23.12-.32,0-.43-.18s0-.27.15-.36A4.07,4.07,0,0,1,94,62.75Z"/><path class="cls-89" d="M90.09,66.29a4.82,4.82,0,0,0-.23,1.64,2.24,2.24,0,0,0,.13.89c.15.27,0,.39-.23.47s-.31-.13-.35-.27a5.26,5.26,0,0,1,.08-2.89c.05-.18.16-.21.34-.14S90.17,66.05,90.09,66.29Z"/><path class="cls-196" d="M98.25,68c-1.68.12-3.37.14-5,.22l-2.31.07c-.16,0-.38.07-.43-.19,1.8-.1,3.59-.14,5.39-.22.8,0,1.6,0,2.4-.07Z"/><path class="cls-197" d="M90.49,68.69c2.08,0,4.15-.2,6.23-.2.48,0,1-.09,1.46-.08l0,.19a3.55,3.55,0,0,1-1.21.13c-1.44,0-2.87.15-4.31.16a.47.47,0,0,0-.24,0c-.24.09-.49.13-.72.23a1.58,1.58,0,0,1-1.05-.08Z"/><path class="cls-198" d="M92.44,71.08c1.35-.14,2.71-.09,4.07-.18A3.88,3.88,0,0,1,92.44,71.08Z"/><path class="cls-199" d="M95.3,70.33a.27.27,0,0,1-.27.17c-.7-.1-1.38.14-2.09.06a7.13,7.13,0,0,0-1.21,0,1,1,0,0,1-.4-.38A.82.82,0,0,1,92,70c1.07,0,2.13-.1,3.19-.12A.31.31,0,0,1,95.3,70.33Z"/><path class="cls-200" d="M95.31,67.44a1.9,1.9,0,0,1-.93.19c-1.33.05-2.67.07-4,.1v-.28a.53.53,0,0,1,.4-.14c.83,0,1.66-.16,2.49-.1a9,9,0,0,0,1.37-.09,1,1,0,0,1,.62.08C95.36,67.26,95.36,67.34,95.31,67.44Z"/><path class="cls-201" d="M95.29,67.26l-4.91.19a.61.61,0,0,1,.07-.4.88.88,0,0,0,.8.09,6.18,6.18,0,0,1,1.42-.07c.89,0,1.77-.18,2.66-.09A.2.2,0,0,1,95.29,67.26Z"/><path class="cls-202" d="M95.19,69.93a3.76,3.76,0,0,1-1.2.18c-.88.1-1.77,0-2.66.12a.76.76,0,0,1-.29-.39l4.36-.19C95.45,69.83,95.34,69.9,95.19,69.93Z"/><path class="cls-197" d="M92.34,68.88a2.52,2.52,0,0,1,1.4-.13c1,.11,2-.23,3.05-.07.45.08.9-.15,1.37-.08l-.09.19L92.46,69C92.36,69,92.33,69,92.34,68.88Z"/><path class="cls-203" d="M98.18,67.05c0,.18-.06.28-.28.31a12.33,12.33,0,0,1-1.82.09.35.35,0,0,1,0-.47,11.27,11.27,0,0,0,2.09-.11Z"/><path class="cls-204" d="M97.18,70.32a.86.86,0,0,0-.7,0c-.17,0-.34.1-.49,0a.37.37,0,0,1-.07-.48,9,9,0,0,0,1.8-.08A1.58,1.58,0,0,1,97.18,70.32Z"/><path class="cls-205" d="M90.63,69.09l1.1,0a.26.26,0,0,1,0,.39h-1Z"/><path class="cls-168" d="M33.85,65.82A3.72,3.72,0,0,1,37,62.4a3.58,3.58,0,0,1,3.91,2.37.66.66,0,0,1-.45.14c-1.29.22-2.58.39-3.86.62l-.25,0c-.65.09-1.31.19-2,.25A.79.79,0,0,1,33.85,65.82Z"/><path class="cls-206" d="M40.83,67.83a1.72,1.72,0,0,1-.33.59c-.32.17-.7.13-1,.27a2.83,2.83,0,0,1-.58,0c-1.08.11-2.15.26-3.21.47a.71.71,0,0,1-.57,0,.93.93,0,0,1-.37-.39c.33-.29.77-.21,1.16-.31a2.14,2.14,0,0,0,.71-.1c1.27-.27,2.57-.4,3.85-.62A.36.36,0,0,1,40.83,67.83Z"/><path class="cls-89" d="M37.89,71.26A6.62,6.62,0,0,1,35.76,71c-.2,0-.33-.11-.23-.35s.11-.36.42-.27a5.14,5.14,0,0,0,2.69.27,1.31,1.31,0,0,0,.41-.13c.34-.22.53,0,.62.22s-.18.29-.35.36A2.71,2.71,0,0,1,37.89,71.26Z"/><path class="cls-207" d="M41.06,67a.44.44,0,0,1-.1.38,4.08,4.08,0,0,1-1.47.32c-.93.16-1.86.32-2.8.43a1.12,1.12,0,0,0-.89.14,1.81,1.81,0,0,1-1.39.08.84.84,0,0,1-.21-.38c.14-.17.35-.16.54-.19,1.9-.27,3.78-.59,5.67-.87C40.64,66.85,40.87,66.79,41.06,67Z"/><path class="cls-208" d="M34.06,67.64l-.1-.29a1.71,1.71,0,0,1,1-.28c1.41-.2,2.82-.43,4.23-.66a2.18,2.18,0,0,0,.75-.19,1.69,1.69,0,0,1,1.17-.11v.48a.89.89,0,0,1-.54.21c-2,.3-4,.63-6,.92A.67.67,0,0,1,34.06,67.64Z"/><path class="cls-209" d="M34.06,67.64,37,67.21l4.14-.62a.47.47,0,0,1-.08.38,23.66,23.66,0,0,0-2.37.32c-1.5.2-3,.53-4.49.65Z"/><path class="cls-89" d="M37.62,61a2.44,2.44,0,0,1,1.52.4c.18.08.26.18.13.36s-.19.34-.46.17a2.37,2.37,0,0,0-2.51,0c-.3.17-.4,0-.51-.18s.06-.29.21-.37A2.67,2.67,0,0,1,37.62,61Z"/><path class="cls-89" d="M32.77,66.2a5.2,5.2,0,0,1,.2-1.69c0-.17.09-.34.36-.24s.34.14.27.4a3.92,3.92,0,0,0,0,2.7c.11.24-.17.26-.31.35s-.26,0-.31-.16A2.84,2.84,0,0,1,32.77,66.2Z"/><path class="cls-210" d="M36.57,68a10.59,10.59,0,0,1,1.92-.34A20.68,20.68,0,0,1,41,67.35a.74.74,0,0,1-.13.48l-4.26.66A.37.37,0,0,1,36.57,68Z"/><path class="cls-211" d="M40.05,69a3.45,3.45,0,0,1-4.24.67.64.64,0,0,1,.47-.21c.81-.13,1.6-.29,2.41-.36a1.34,1.34,0,0,0,.86-.07C39.72,69,39.88,68.86,40.05,69Z"/><path class="cls-212" d="M33.85,66.68V66.4a10.08,10.08,0,0,1,2.31-.47,1.36,1.36,0,0,0,.91-.11c1.16-.27,2.35-.38,3.52-.58a.51.51,0,0,1,.46.1l0,.17c.09.25-.09.3-.27.35a3.71,3.71,0,0,1-.88.1,3.84,3.84,0,0,0-.76.07c-1.56.22-3.1.48-4.65.72C34.28,66.78,34.05,66.86,33.85,66.68Z"/><path class="cls-213" d="M38.82,69.16l-3,.49a1.76,1.76,0,0,1-.7-.48,15.63,15.63,0,0,1,2.34-.38c.5,0,1-.3,1.47-.17A.79.79,0,0,1,38.82,69.16Z"/><path class="cls-214" d="M33.85,66.68c1.19-.17,2.38-.37,3.57-.52a8.36,8.36,0,0,1,1.79-.23.27.27,0,0,1,0,.32.74.74,0,0,1-.49.2l-4.26.66c-.18,0-.36.08-.53,0A.45.45,0,0,1,33.85,66.68Z"/><path class="cls-215" d="M33.92,67.07c1.42-.22,2.83-.44,4.24-.68a3.47,3.47,0,0,0,1-.19.22.22,0,0,1,.13.25,3.21,3.21,0,0,1-1.24.32,18.51,18.51,0,0,0-2.11.32c-.65.13-1.32.18-2,.26Z"/><path class="cls-216" d="M41,65.34c-1,.08-2,.3-3.07.44l-1,.14a.24.24,0,0,1,0-.31c.19-.26.5-.22.76-.25.88-.13,1.76-.29,2.64-.42a1,1,0,0,1,.57,0C41,65.09,41.07,65.2,41,65.34Z"/><path class="cls-217" d="M40.94,65l-2.88.48a5.38,5.38,0,0,0-1.05.19.7.7,0,0,1-.5-.2c1.08-.28,2.2-.34,3.29-.55a3.14,3.14,0,0,1,1.06-.11A.17.17,0,0,1,40.94,65Z"/><path class="cls-216" d="M36.25,66a16.6,16.6,0,0,1-2.41.4v-.29c.06,0,.11-.13.19-.15a7.29,7.29,0,0,1,2.18-.27A.25.25,0,0,1,36.25,66Z"/><path class="cls-218" d="M36.2,65.73l-2.36.38v-.29a16.19,16.19,0,0,1,2.5-.36A.25.25,0,0,1,36.2,65.73Z"/><path class="cls-219" d="M34.41,68.32a5.15,5.15,0,0,0,1.4-.2.47.47,0,0,1,.15.46l-1.22.2A1.09,1.09,0,0,1,34.41,68.32Z"/><path class="cls-220" d="M39.83,65.84l1-.11a.25.25,0,0,0,.27-.22.89.89,0,0,1,.07.6L40,66.3A.47.47,0,0,1,39.83,65.84Z"/><path class="cls-221" d="M40.05,69l-.47.09a.41.41,0,0,1-.12-.43c.29-.31.67-.23,1-.22A1.62,1.62,0,0,1,40.05,69Z"/><path class="cls-222" d="M42.94,48.71h0c.21-.15.33-.4.59-.49A1.68,1.68,0,0,1,45,47.64a10.63,10.63,0,0,0,1.13,0c.13.06.31.06.39.22a.94.94,0,0,1,0,.44.84.84,0,0,1-.14.43c-.14.09-.32,0-.47.11H43.35C43.21,48.8,43,49,42.94,48.71Z"/><path class="cls-223" d="M47.28,55.79c0-.64,0-1.28,0-1.92V46.25a.08.08,0,0,1,0,0,.15.15,0,0,1,.15.1,1,1,0,0,1,.06.42v8.61a1.23,1.23,0,0,1,0,.19,1.51,1.51,0,0,1-.12.26h0A.07.07,0,0,1,47.28,55.79Z"/><path class="cls-224" d="M44.23,48.82H45.3s.05,0,0,0l0,0H44.25s-.06,0,0,0S44.22,48.82,44.23,48.82Z"/><path class="cls-225" d="M44.23,48.82a.64.64,0,0,0,0,.07,3.22,3.22,0,0,1-.93,0s0,0,0,0,0,0,0,0Z"/><path class="cls-226" d="M43.57,48.22a1.65,1.65,0,0,1-.59.49A.7.7,0,0,1,43.57,48.22Z"/><path class="cls-227" d="M45.31,48.89a.22.22,0,0,0,0-.08l.69,0c.09,0,.12,0,.1.09Z"/><path class="cls-228" d="M46.09,48.88l-.1-.09c.11-.1.25-.07.38-.09a.11.11,0,0,1,.09.09C46.38,49,46.22,48.89,46.09,48.88Z"/><path class="cls-229" d="M46.5,48.33v-.49l0,0a.44.44,0,0,1,0,.54S46.53,48.37,46.5,48.33Z"/><path class="cls-230" d="M46.5,48.33h.08c0,.16-.08.3-.12.45l-.09-.09Z"/><path d="M43.32,48.82a.09.09,0,0,1,0,.07c-.12-.08-.42.2-.38-.18C43,48.87,43.19,48.77,43.32,48.82Z"/><path class="cls-231" d="M46.53,47.8l0,0-.36-.19A.39.39,0,0,1,46.53,47.8Z"/><path class="cls-232" d="M32.85,56.25a1.75,1.75,0,0,0-.87.53.09.09,0,0,1,0-.14,1.27,1.27,0,0,1,.78-.49Z"/><path class="cls-233" d="M30.49,60.19l-.09-.1.37-.79c.06,0,.06.07.08.11l-.18.48C30.6,60,30.74,60.2,30.49,60.19Z"/><path class="cls-234" d="M32,56.64l0,.14-.41.73a.18.18,0,0,1-.08-.09A2,2,0,0,1,32,56.64Z"/><path class="cls-235" d="M31.49,57.42l.08.09a1.92,1.92,0,0,1-.3.76s-.05,0-.08,0Z"/><path class="cls-236" d="M31.19,58.27h.08a1.91,1.91,0,0,1-.22.66c-.08,0-.14,0-.08-.1Z"/><path class="cls-237" d="M31,58.83l.08.1-.2.48-.08-.11A1,1,0,0,1,31,58.83Z"/><path class="cls-238" d="M47.28,55.79h.1c-.21.19-.47.05-.7.08v-.11Z"/><path class="cls-238" d="M47.38,55.79V55.6a.53.53,0,0,1,.22-.12,2,2,0,0,1,.93.06.1.1,0,0,1,0,.14c-.36.07-.74-.11-1.09.11Z"/><path class="cls-119" d="M35.21,56.24H34a.13.13,0,0,0,0-.06A3.35,3.35,0,0,1,35.21,56.24Z"/><path class="cls-239" d="M47.38,46.23l-.07,0c0-.45,0-.89,0-1.34a.17.17,0,0,1,.21,0c0,.45,0,.9,0,1.35l0,0A.12.12,0,0,1,47.38,46.23Z"/><path class="cls-12" d="M31.17,41.81c.36-.78.68-1.57,1-2.35s.79-1.75,1.14-2.65.73-1.72,1.1-2.58c.09-.26.31-.19.49-.19h2.83c.42.07.26.34.19.55-.3.91-.66,1.8-1,2.69-.51,1.38-1,2.76-1.54,4.13-.08.2-.12.44-.39.51-1.15,0-2.29,0-3.43,0A.52.52,0,0,1,31.17,41.81Z"/><path class="cls-240" d="M46.8,41.55c0,.25-.25.27-.4.37a2.78,2.78,0,0,1-.76,0,1.35,1.35,0,0,1-.74-.11c-.14-.23,0-.41.12-.6a.32.32,0,0,0,0-.09c0-2.07.05-4.14,0-6.21a.65.65,0,0,1,0-.24c.07-.16,0-.37.13-.51a2.69,2.69,0,0,1,1,.1.94.94,0,0,1,.76.51c0,.27,0,.54,0,.81v1.51a.47.47,0,0,1,0,.17c0,1.09,0,2.18,0,3.27C46.79,40.9,46.89,41.23,46.8,41.55Z"/><path class="cls-241" d="M44.52,42h-13c-.12,0-.3.12-.36-.09,1.14-.1,2.3,0,3.44-.06s2.59,0,3.88-.13a36.23,36.23,0,0,1,4.66,0,4.21,4.21,0,0,1,1.32.13A.11.11,0,0,1,44.52,42Z"/><path class="cls-242" d="M37.91,34.12l-3.07,0a.59.59,0,0,0-.41.13c0-.36.3-.24.48-.24,2.43,0,4.85,0,7.28,0H44c-.11.31-.39.22-.61.22H38.74A1.81,1.81,0,0,1,37.91,34.12Z"/><path class="cls-243" d="M44.52,42a.14.14,0,0,1,0-.09,1.1,1.1,0,0,1,0-.18c.07-1.3,0-2.6,0-3.9,0-1,0-2,0-3a.89.89,0,0,1,.11-.6c.12-.09.16,0,.22.08a1.85,1.85,0,0,1,.06.66c0,1.89,0,3.78,0,5.66a5.43,5.43,0,0,1-.1,1.14c0,.09,0,.19,0,.26Z"/><path class="cls-244" d="M38.48,41.83c-.13.14-.31.09-.46.09H31.16v-.11h4a1.51,1.51,0,0,1,.89-.13,12.82,12.82,0,0,1,2.4.09Z"/><path class="cls-245" d="M38.67,34.08H43.5c.17,0,.36.07.51-.08.14,0,.3-.05.41.1a.11.11,0,0,1-.07.15,4.14,4.14,0,0,1-1.36.08c-.61,0-1.22,0-1.83,0a13,13,0,0,1-2.42-.08A.13.13,0,0,1,38.67,34.08Z"/><path class="cls-246" d="M47.38,36.57c0,1.23,0,2.46,0,3.69,0,.2,0,.4.06.61-.05.05-.1.05-.14,0-.05-1.47-.05-2.93,0-4.39C47.38,36.47,47.44,36.48,47.38,36.57Z"/><path class="cls-247" d="M47.38,36.57l-.07-.09a9.94,9.94,0,0,1,0-2c.1,0,0,.13.09.19A7.41,7.41,0,0,1,47.38,36.57Z"/><path class="cls-248" d="M47,37.23a26.72,26.72,0,0,1-.08,3.35l0-.08c0-1.09-.06-2.18,0-3.27h0S46.94,37.19,47,37.23Z"/><path class="cls-249" d="M44.42,34.16v-.07a6.29,6.29,0,0,1,1.78.16.06.06,0,0,1,0,.07.05.05,0,0,1,0,0,3.91,3.91,0,0,0-1.08-.07.2.2,0,0,1-.18.06.24.24,0,0,1-.11-.06l-.13-.1a.17.17,0,0,1-.1.06A.19.19,0,0,1,44.42,34.16Z"/><path class="cls-250" d="M47.31,40.87h.14c0,.38.19.8-.16,1.15C47.3,41.63,47.3,41.25,47.31,40.87Z"/><path class="cls-251" d="M47,37.23h-.09c0-.54,0-1.08,0-1.62,0,0,0,0,.07,0Z"/><path class="cls-252" d="M46.19,34.35v-.1a1,1,0,0,1,.69.36.11.11,0,0,1,0,.14A1.7,1.7,0,0,0,46.19,34.35Z"/><path class="cls-253" d="M44.81,42v-.18s0,0,.09,0l.69.11s0,0,0,0l0,0Z"/><path class="cls-254" d="M46.8,41.55v-1h.09C46.84,40.9,47,41.24,46.8,41.55Z"/><path class="cls-254" d="M46.88,34.75v-.14c.19.32.06.66.07,1h-.07Z"/><path class="cls-255" d="M45.6,42v-.08h.8C46.15,42.11,45.87,42,45.6,42Z"/><path class="cls-256" d="M47.45,34.63l-.09-.19c0-.11-.06-.23-.08-.34C47.56,34.21,47.45,34.43,47.45,34.63Z"/><path class="cls-257" d="M95.47,52.16a18.17,18.17,0,0,1,3-.75c1.86-.44,3.73-.83,5.6-1.24a3.15,3.15,0,0,1,.44,0,.63.63,0,0,1,.19.36,5.43,5.43,0,0,1,0,.9,2.48,2.48,0,0,1-.08.9.9.9,0,0,1-.6.27c-1,.22-2,.46-3.06.67a4.51,4.51,0,0,0-.65.22l-.15,0a4.13,4.13,0,0,1-.62-.22,2,2,0,0,0-.4-.12c-.13-.1-.32-.07-.42-.21l-.17,0a1.67,1.67,0,0,1-.53-.14c-.17,0-.31-.11-.48-.11a4.94,4.94,0,0,0-.64-.15c-.34-.11-.71-.09-1.05-.21C95.74,52.25,95.54,52.39,95.47,52.16Z"/><path class="cls-258" d="M92.62,52.13a4.6,4.6,0,0,1,1.81,0c0,.07-.07.07-.1.1H92.72S92.62,52.2,92.62,52.13Z"/><path class="cls-259" d="M85.62,54.16a7.62,7.62,0,0,1,1.57-.77c.11,0,.12,0,.1.08l-1.54.7A.09.09,0,0,1,85.62,54.16Z"/><path class="cls-260" d="M87.8,53.13a10.71,10.71,0,0,1,1.58-.49s0,0,0,.06,0,0,0,0l-1.48.48C87.8,53.26,87.79,53.21,87.8,53.13Z"/><path class="cls-261" d="M89.87,52.54a5,5,0,0,1,1.38-.28s0,0,0,.05,0,0,0,0l-1.38.28s0,0,0-.06Z"/><path class="cls-262" d="M84,55.13a9.23,9.23,0,0,1,1.19-.76s0,.07,0,.11l-1.1.73C84,55.26,84,55.21,84,55.13Z"/><path class="cls-263" d="M95.9,52.27l1.07.19c0,.08,0,.13-.09.08a4.13,4.13,0,0,1-1-.19s0,0,0-.06S95.88,52.27,95.9,52.27Z"/><path class="cls-264" d="M95.9,52.27s0,0,0,.08a2.9,2.9,0,0,1-.88-.1s-.05,0,0-.06a.05.05,0,0,1,0,0h.46Z"/><path class="cls-265" d="M91.25,52.34v-.08a2.64,2.64,0,0,1,.79-.1s0,0,0,.06l0,0A2.12,2.12,0,0,1,91.25,52.34Z"/><path class="cls-266" d="M83,56a2.11,2.11,0,0,1,.63-.52.06.06,0,0,1,0,.07s0,0,0,0C83.42,55.69,83.34,56,83,56Z"/><path class="cls-267" d="M96.88,52.54l.09-.08a1.58,1.58,0,0,1,.61.16.14.14,0,0,1-.09.08C97.29,52.62,97.06,52.68,96.88,52.54Z"/><path class="cls-268" d="M87.8,53.13l.1.08-.61.26-.1-.08Z"/><path class="cls-269" d="M98.07,52.74a1,1,0,0,1,.51.17c-.2.17-.35,0-.51-.08s0,0,0-.06Z"/><path class="cls-270" d="M83.64,55.56v-.11l.41-.32.1.08A1.74,1.74,0,0,1,83.64,55.56Z"/><path class="cls-271" d="M100.14,53.41l-.1.09a1.24,1.24,0,0,1-.49-.2s0,0,0-.06l0,0Z"/><path class="cls-272" d="M98.07,52.74v.09l-.58-.13.09-.08Z"/><path class="cls-273" d="M89.87,52.54v.08l-.49.11a.14.14,0,0,1,0-.09A.69.69,0,0,1,89.87,52.54Z"/><path class="cls-274" d="M95,52.16v.09l-.68,0,.1-.1Z"/><path class="cls-275" d="M92,52.24v-.08l.58,0,.1.1Z"/><path class="cls-276" d="M85.24,54.48v-.11l.39-.21h.13A1.4,1.4,0,0,1,85.24,54.48Z"/><path class="cls-277" d="M98.75,52.93l.41.16s0,0,0,.06,0,0,0,0S98.78,53.18,98.75,52.93Z"/><path class="cls-278" d="M99.16,53.19v-.1l.39.12v.09Z"/><path class="cls-279" d="M30.49,60.19l.18-.3.1.1c0,.2-.13.31-.32.38A1.16,1.16,0,0,1,30.49,60.19Z"/><path class="cls-172" d="M94.92,43.81c-3.33,0-6.66.23-10,.21.35-.37.86-.35,1.31-.45,2.11-.49,4.24-.93,6.36-1.4l11.05-2.44a1,1,0,0,1,.24,0,.57.57,0,0,1,.24.54,1.59,1.59,0,0,0,.09.61,1,1,0,0,1,0,.38,3.44,3.44,0,0,0,0,.45c0,.37-.34.44-.63.51-1.34.31-2.69.59-4,.9-.92.21-1.86.37-2.77.64a2.89,2.89,0,0,1-.83,0A8.8,8.8,0,0,0,94.92,43.81Z"/><path class="cls-280" d="M69.7,56.09a3.18,3.18,0,0,1,1.11.06c0,.06-.07.07-.1.1a8.83,8.83,0,0,1-2-.08l.07,0C69.09,56.09,69.4,56.16,69.7,56.09Z"/><path class="cls-281" d="M73.76,56.18a3.36,3.36,0,0,1,1,0s0,.05,0,.08,0,0,0,0a9.38,9.38,0,0,1-2-.08l.07-.05A5.72,5.72,0,0,0,73.76,56.18Z"/><path class="cls-282" d="M77.81,56.28a2.64,2.64,0,0,1,1,.06c0,.06-.07.07-.11.1a8,8,0,0,1-1.89-.08l.07,0A7.16,7.16,0,0,0,77.81,56.28Z"/><path class="cls-283" d="M75.74,56.27h1.08v.08l-1.08,0s0,0,0-.05Z"/><path class="cls-284" d="M71.69,56.17h1.08v.09l-1.08,0s0,0,0,0Z"/><path class="cls-285" d="M68.62,56.05l.1,0v.08l-1.08,0s0,0,0,0a.05.05,0,0,1,0,0Z"/><path class="cls-286" d="M78.71,56.44l.11-.1,1,0s0,0,0,0,0,0,0,0Z"/><path class="cls-287" d="M67.64,56.07v.08h-1l.11-.09Z"/><path class="cls-286" d="M71.69,56.17v.08h-1l.1-.1Z"/><path class="cls-285" d="M79.79,56.44v-.07h1v.09Z"/><path class="cls-286" d="M75.74,56.27v.07h-1v-.12Z"/><path class="cls-288" d="M79,34.07l.31.2A3,3,0,0,1,79.84,36v5.83A1.43,1.43,0,0,1,78.5,43c-.55,0-1.11,0-1.66,0-.09-.16,0-.24.14-.32a1.12,1.12,0,0,0,.36-1c-.13-1.41,0-2.82-.06-4.23,0-.16.08-.34,0-.49s-.14-.27-.22-.4c-.31-.55-.44-.6-1.15-.46-2.25,0-4.49.08-6.73,0a1.17,1.17,0,0,0-.51.22c-.1.07-.22.21-.35,0,0-.45,0-.91,0-1.36a.77.77,0,0,1,.34-.59h0c.27-.44.71-.32,1.11-.34h8.74A1.41,1.41,0,0,1,79,34.07Z"/><path class="cls-289" d="M76,36c.6-.17.91,0,1.15.62A9.62,9.62,0,0,1,77.32,39c0,.88,0,1.75,0,2.63a1.37,1.37,0,0,1-.18.83.87.87,0,0,1-.65.48c-.09,0-.19,0-.28.07H76a6.12,6.12,0,0,0-1,0H69.82a.15.15,0,0,1-.13-.06.2.2,0,0,1,.1-.2c.78-.73,1.52-1.49,2.27-2.25a33.32,33.32,0,0,0,3.8-4.42S76,36,76,36Z"/><path class="cls-290" d="M79,34.07H69.61s0,0,0,0,0,0,0,0l9.08,0C78.8,34,78.93,33.94,79,34.07Z"/><path class="cls-290" d="M79.81,41.34l0-5.44s.06,0,.08,0l0,5.45S79.83,41.39,79.81,41.34Z"/><path class="cls-291" d="M68.33,34.86v1.52a.35.35,0,0,1,.15.26.5.5,0,0,1,0,.17c0,.65,0,1.3,0,1.95a.87.87,0,0,1-.09.55.11.11,0,0,1-.15,0,.06.06,0,0,1,0-.07,8.45,8.45,0,0,1,0-1.59c0-1,0-2,0-2.93C68.33,34.75,68.39,34.76,68.33,34.86Z"/><path class="cls-292" d="M68.22,39.34l.09,0c.2.16.14.37.15.57a17,17,0,0,0,.05,1.75,2.1,2.1,0,0,1,.09.66.2.2,0,0,1-.09.13,2.35,2.35,0,0,1-.3-1.4A13.63,13.63,0,0,1,68.22,39.34Z"/><path class="cls-293" d="M72.18,43h3s0,0,0,.05l0,0h-3s0,0,0,0Z"/><path class="cls-294" d="M78.6,43a1.48,1.48,0,0,0,1.17-1.06s.07,0,.1,0a1.27,1.27,0,0,1-1.27,1.13s0,0,0,0Z"/><path class="cls-295" d="M79.87,35.9h-.08a5.19,5.19,0,0,0-.48-1.63A2,2,0,0,1,79.87,35.9Z"/><path class="cls-296" d="M78.6,43v.08H76.23c0-.09.12-.08.2-.09a.51.51,0,0,1,.4,0Z"/><path class="cls-297" d="M68.51,42.43l0-.13a6.23,6.23,0,0,0,1.18.6.14.14,0,0,1,0,.06c-.08.11-.21,0-.31.09A1.1,1.1,0,0,1,68.51,42.43Z"/><path class="cls-298" d="M72.18,43v.07H70.5s0,0,0,0l0,0Z"/><path class="cls-299" d="M68.21,37.68v1.59A3.56,3.56,0,0,1,68.21,37.68Z"/><path class="cls-300" d="M69.61,34v.08a1.36,1.36,0,0,0-1,.3c0-.36.27-.33.48-.39A.84.84,0,0,1,69.61,34Z"/><path class="cls-301" d="M70.5,43v.07a4.87,4.87,0,0,1-1.08,0l.31-.09Z"/><path class="cls-302" d="M75.14,43.05V43c.3,0,.62-.1.9.07Z"/><path class="cls-303" d="M68.33,34.86l-.08-.11c.09-.16.06-.42.37-.39Z"/><path class="cls-303" d="M79.87,41.92h-.1c0-.19,0-.38,0-.57h.08A1.37,1.37,0,0,1,79.87,41.92Z"/><path class="cls-171" d="M104.48,48l-7,1.53a.31.31,0,0,1-.13-.24,11.21,11.21,0,0,1,0-2.09c.11-.19.32-.19.51-.23l5.61-1.24c.29-.06.59-.21.9,0,.21.34,0,.73.17,1.07a4.21,4.21,0,0,1,0,.94A.36.36,0,0,1,104.48,48Z"/><path class="cls-304" d="M97.49,47.18v2.39c0,.3-.09.4-.41.39-.69,0-1.38,0-2.07,0s-1.55,0-2.32,0c-.28,0-.37-.07-.36-.35s0-.79,0-1.19V46.8c0-.77,0-.77.86-.77h3.11a1.05,1.05,0,0,1,.24-.06c.33,0,.73-.22,1,.1A1,1,0,0,1,97.49,47.18Z"/><path class="cls-305" d="M65.48,45.84h.16l0,0a4.3,4.3,0,0,1,0,2.36v6c0,.57,0,1.15,0,1.72l0,0a.19.19,0,0,1-.25-.06,4.18,4.18,0,0,1-.09-1.45c0-.46,0-.92,0-1.37,0-.8,0-1.6,0-2.39s0-1.66,0-2.49c0-.59,0-1.18,0-1.77a.8.8,0,0,1,.14-.54Z"/><path class="cls-6" d="M65.68,48.23V45.87l8.57-.13h1.89l0,.18Z"/><path class="cls-175" d="M97.49,47.18c-.07-.37.17-.87-.1-1.09s-.72-.06-1.1-.07a10.23,10.23,0,0,1,2.3-.65c.14,0,.29,0,.36-.19,1.81-.1,3.62-.11,5.44-.11l.06.06a.5.5,0,0,1-.07.61L98.5,47A3.81,3.81,0,0,1,97.49,47.18Z"/><path class="cls-306" d="M94.92,43.81s.08-.06.12-.06c3-.14,5.82-1.22,8.75-1.73.26,0,.31-.19.31-.4.23,0,.21.21.22.36a2,2,0,0,0,.09.59,1.13,1.13,0,0,1,.06.36,2.41,2.41,0,0,0,0,.6.22.22,0,0,1-.09.1c-2.33,0-4.66,0-7,.13C96.55,43.78,95.74,43.84,94.92,43.81Z"/><path class="cls-175" d="M98.16,45.19a10.32,10.32,0,0,1-2.08.07A9.66,9.66,0,0,1,98.16,45.19Z"/><path class="cls-173" d="M89.56,45.38a10.3,10.3,0,0,1-2.08.07A10.34,10.34,0,0,1,89.56,45.38Z"/><path class="cls-307" d="M80.77,56.43a.06.06,0,0,0,0-.06h1.08A2.8,2.8,0,0,1,80.77,56.43Z"/><path class="cls-308" d="M68.71,56.15a.13.13,0,0,0,0-.06h1A2.53,2.53,0,0,1,68.71,56.15Z"/><path class="cls-309" d="M72.77,56.24v-.06h1A2.22,2.22,0,0,1,72.77,56.24Z"/><path class="cls-310" d="M76.82,56.34v-.06h1A2.55,2.55,0,0,1,76.82,56.34Z"/><path class="cls-311" d="M54.6,55.87a8.74,8.74,0,0,1-2-.08l.05-.06c.3-.14.64,0,.94-.13a2.59,2.59,0,0,1,.56,0c.18,0,.38,0,.52.13S54.68,55.83,54.6,55.87Z"/><path class="cls-312" d="M58.65,56a8.74,8.74,0,0,1-2-.07l0-.06c.31-.15.66,0,1-.14s.68-.14,1,.12A.16.16,0,0,1,58.65,56Z"/><path class="cls-313" d="M50.55,55.77a3,3,0,0,1-1-.05.11.11,0,0,1,0-.16,3.72,3.72,0,0,1,1.93,0,.13.13,0,0,1,0,.15C51.21,55.79,50.87,55.68,50.55,55.77Z"/><path class="cls-314" d="M62.61,56.05A7.47,7.47,0,0,1,60.72,56l.05-.06c.3-.14.65,0,.95-.13a1.38,1.38,0,0,1,1,.08C62.75,56,62.69,56,62.61,56.05Z"/><path class="cls-315" d="M56.67,55.89l-1.09,0a.09.09,0,0,1,.05-.13,1.6,1.6,0,0,1,1,0,.1.1,0,0,1,0,.14Z"/><path class="cls-316" d="M60.72,56l-1.08,0a.09.09,0,0,1,0-.14,1.53,1.53,0,0,1,1,0,.08.08,0,0,1,0,.13Z"/><path class="cls-315" d="M52.62,55.79l-1.09,0v-.09a1.25,1.25,0,0,1,1-.06.1.1,0,0,1,.06.14Z"/><path class="cls-317" d="M62.61,56.05l.1-.09a1.06,1.06,0,0,1,.92,0,.11.11,0,0,1,.06.14Z"/><path class="cls-318" d="M65.45,56l.2,0-.22.1-.76,0a.1.1,0,0,1,0-.14A.73.73,0,0,1,65.45,56Z"/><path class="cls-319" d="M49.55,55.61v.11l-1,0v-.07A.8.8,0,0,1,49.55,55.61Z"/><path class="cls-320" d="M51.54,55.72a.07.07,0,0,0,0,.05h-1A2.21,2.21,0,0,1,51.54,55.72Z"/><path class="cls-276" d="M55.58,55.79v.07h-1l.11-.1A.74.74,0,0,1,55.58,55.79Z"/><path class="cls-276" d="M59.63,55.89a.17.17,0,0,0,0,.07h-1v-.11A.93.93,0,0,1,59.63,55.89Z"/><path class="cls-321" d="M64.67,56v.07h-1a.22.22,0,0,1,0-.08A.83.83,0,0,1,64.67,56Z"/><path class="cls-12" d="M62.12,42.59l-.12.1a1.45,1.45,0,0,1-.54.27q-4.1,0-8.21,0a.66.66,0,0,1-.63-.33,2.49,2.49,0,0,1-.33-.87,5.61,5.61,0,0,1,0-.58c0-1.53,0-3,0-4.58a.87.87,0,0,1,.14-.41,1,1,0,0,1,.44-.38.84.84,0,0,1,.27,0c2.77,0,5.55,0,8.32,0a.92.92,0,0,1,.88.9,5.08,5.08,0,0,1,.06,1.23c0,1.37,0,2.73,0,4.09A1.48,1.48,0,0,1,62.12,42.59Z"/><path class="cls-288" d="M53,35.89h-.09c-.16.06-.32.13-.35.31l-.11.26a30.77,30.77,0,0,0,0,4.8v.55c-.09.33.18.54.28.8a.48.48,0,0,0,.42.19c.08.2-.07.2-.2.21A7.22,7.22,0,0,0,52,43a1.6,1.6,0,0,1-.49,0c-.18-.06-.4,0-.57-.12s-.36-.22-.58-.26h0a1.83,1.83,0,0,0-.26-.42,3.56,3.56,0,0,1-.16-.53c0-1.74-.15-3.48,0-5.22,0-.51,0-1,0-1.52a.9.9,0,0,1,.34-.66,1.24,1.24,0,0,1,1.21-.3h9.7a1.34,1.34,0,0,1,.71.15l0,.09a2,2,0,0,1,.49,1.35l.1.26c-.11.21,0,.43-.06.65s.05.22-.1.22-.08-.15-.12-.22a.86.86,0,0,0-.61-.64,1.15,1.15,0,0,0-.58,0h-7.1A2,2,0,0,0,53,35.89Z"/><path class="cls-322" d="M51.94,43l.88,0c.12,0,.27,0,.29-.16a3.09,3.09,0,0,0,.53.09c2.65,0,5.3.07,8,0,.11,0,.12,0,.11.09a1.35,1.35,0,0,1-.71.13H52C51.94,43.12,51.91,43.08,51.94,43Z"/><path class="cls-323" d="M62.22,36.53c.06,0,.09.29.17,0s-.09-.47.11-.67c0,1.65,0,3.3,0,4.95a2.53,2.53,0,0,1-.13,1.39c-.06,0-.07-.07-.09-.11C62.27,40.25,62.41,38.38,62.22,36.53Z"/><path class="cls-324" d="M50,34.85v6.27c0,.24,0,.48.06.71a.1.1,0,0,1-.07.1,7.28,7.28,0,0,1-.15-2.08c-.07-1.7,0-3.4.08-5.1C50,34.74,50,34.75,50,34.85Z"/><path class="cls-325" d="M61.86,34.18a5.21,5.21,0,0,0-1.42-.1l-9.11,0s0,0,0-.06,0,0,0,0h9.9A.69.69,0,0,1,61.86,34.18Z"/><path class="cls-326" d="M62.4,35.62a5.46,5.46,0,0,0-.49-1.35A1.32,1.32,0,0,1,62.4,35.62Z"/><path class="cls-303" d="M51.34,34v.09a1.82,1.82,0,0,0-1.09.26,0,0,0,0,1,0-.08A1,1,0,0,1,51.34,34Z"/><path class="cls-327" d="M51.94,43l.1.09a.83.83,0,0,1-.72,0c0-.06.06-.06.1-.09Z"/><path class="cls-328" d="M50.23,34.24a.25.25,0,0,1,0,.08c-.1.18-.19.36-.29.53l-.08-.1A.81.81,0,0,1,50.23,34.24Z"/><path class="cls-329" d="M50.34,42.68c.25-.1.37.08.5.23v0A.67.67,0,0,1,50.34,42.68Z"/><path class="cls-330" d="M62.31,42.11l.09.11c0,.18-.07.33-.28.37A1.24,1.24,0,0,1,62.31,42.11Z"/><path class="cls-331" d="M50.85,43s0,0,0,0l.58.08-.1.09A.65.65,0,0,1,50.85,43Z"/><path class="cls-332" d="M61.7,43l-.11-.09a.73.73,0,0,1,.41-.18C62,42.86,61.85,42.92,61.7,43Z"/><path class="cls-333" d="M50.17,42.3a.35.35,0,0,1,.18.38.74.74,0,0,1-.29-.38S50.14,42.26,50.17,42.3Z"/><path class="cls-334" d="M50.17,42.3h-.11a.63.63,0,0,1-.12-.37l.07-.1Z"/><path class="cls-6" d="M65.45,45.92v2.31a1.13,1.13,0,0,1-.59.23c-5.47,1.19-10.93,2.41-16.4,3.61-.32.07-.67.26-1-.08,0-1.85,0-3.69,0-5.53a.48.48,0,0,1,.07-.23h0c3,0,6.08,0,9.12-.13,1.28,0,2.56,0,3.84-.07C62.17,45.94,63.81,45.93,65.45,45.92Z"/><path class="cls-335" d="M96.07,67v.47a.5.5,0,0,1-.77,0l0-.18,0-.28A.51.51,0,0,1,96.07,67Z"/><path class="cls-336" d="M92.87,66a.35.35,0,0,1,.36.39c0,.28-.16.39-.44.38s-.36-.17-.35-.41S92.6,66,92.87,66Z"/><path class="cls-337" d="M91.75,69.46l0-.39c.14-.26.38-.2.61-.19l.12.09.09.39C92.33,69.77,92.05,69.72,91.75,69.46Z"/><path class="cls-338" d="M95.92,69.74a.79.79,0,0,1,.07.48.52.52,0,0,1-.69.11.71.71,0,0,1-.11-.4l.21-.28A.64.64,0,0,1,95.92,69.74Z"/><path class="cls-339" d="M36.2,65.73l.15-.27.16,0c.19,0,.39,0,.5.2v.29a.53.53,0,0,1-.76.08Z"/><path class="cls-340" d="M39.46,68.64a.56.56,0,0,1,.12.43.54.54,0,0,1-.76.09.47.47,0,0,1,.1-.54A1,1,0,0,1,39.46,68.64Z"/><path class="cls-340" d="M36,68.58a.56.56,0,0,1-.15-.46.53.53,0,0,1,.76-.08.69.69,0,0,1,0,.45A.82.82,0,0,1,36,68.58Z"/><path class="cls-341" d="M39.83,65.84a.6.6,0,0,1,.15.46.58.58,0,0,1-.69.15l-.13-.25.05-.27A.8.8,0,0,1,39.83,65.84Z"/><path class="cls-342" d="M47.55,46.23l0,5.83a.67.67,0,0,1,.16.52c0,.65,0,1.29,0,1.93,0,.36.1.74-.14,1.07l-.2,0V46.23Z"/><path class="cls-173" d="M47.58,55.58v-1A9.81,9.81,0,0,1,49.7,54c5-1.1,10-2.22,15-3.31.24,0,.48-.15.71,0v2.39a10.22,10.22,0,0,1-2.27.58c-2.78.63-5.57,1.22-8.35,1.86a2.74,2.74,0,0,0-.62.13l-.6,0a3.65,3.65,0,0,1-1,0l-1.08,0a10.1,10.1,0,0,0-2-.07h-1Z"/><path class="cls-343" d="M38.67,34.08s0,.05,0,.08c.1.2,0,.37-.07.55-.76,2.19-1.51,4.39-2.27,6.59-.07.19-.1.41-.32.51h-.9l2.73-7.37c0-.11.12-.2,0-.32Z"/><path class="cls-344" d="M44.91,41.81h-.09V34.28h.09c.12.09.31.16.2.37v.2a.34.34,0,0,1,0,.18v6.14a.31.31,0,0,1,0,.18A1,1,0,0,0,44.91,41.81Z"/><path class="cls-345" d="M45.1,41.35c0-2.17,0-4.34,0-6.5.09.06.09.15.09.25,0,2,0,4.1,0,6.15a.13.13,0,0,1,0,.09Z"/><path class="cls-346" d="M46.85,40.59H46.8V37.44a.6.6,0,0,1,.08-.21Z"/><path class="cls-345" d="M45.11,34.65c0-.16-.14-.24-.2-.37h.2C45.16,34.4,45.29,34.53,45.11,34.65Z"/><path class="cls-343" d="M44.42,34.16l.2,0a.39.39,0,0,1,0,.18v7.36a.31.31,0,0,1,0,.18h-.09q-3-.14-6-.09v0c-.13-.15-.06-.3,0-.45.79-2.22,1.55-4.45,2.37-6.66a1,1,0,0,1,.31-.53Z"/><path class="cls-245" d="M44.61,41.91c0-2.57,0-5.15,0-7.72a.09.09,0,0,1,.07,0c0,2.49,0,5,0,7.48C44.71,41.75,44.73,41.86,44.61,41.91Z"/><path class="cls-12" d="M41.16,34.17l-2.64,7.41c0,.07,0,.15,0,.23H36c.84-2.45,1.69-4.89,2.54-7.34,0-.1.08-.21.12-.31Z"/><path class="cls-347" d="M76,36l-.09.13a1.29,1.29,0,0,1-.67.14H69.64a1.05,1.05,0,0,1-.58-.1A.12.12,0,0,1,69,36c.26-.18.51,0,.76,0C71.85,36,73.94,36,76,36Z"/><path class="cls-348" d="M76.83,43h-.4c.18-.15.46-.13.59-.35a1.41,1.41,0,0,0,.26-.89c0-.89,0-1.77,0-2.66,0-.56,0-1.12,0-1.67a.08.08,0,0,1,.13-.06c0,1.16,0,2.32,0,3.48a7.34,7.34,0,0,0,0,.81A1.33,1.33,0,0,1,76.83,43Z"/><path class="cls-349" d="M77.33,37.33l0,1.72c0,.05,0,0-.07,0l-.06-2.46c.11.09,0,.24.11.34S77.36,37.19,77.33,37.33Z"/><path class="cls-350" d="M69,36a.28.28,0,0,1,0,.09,1.25,1.25,0,0,1-.61.5.17.17,0,0,1-.07-.19C68.56,36.25,68.68,36,69,36Z"/><path class="cls-351" d="M77.33,37.33c0-.13,0-.26,0-.4.28.06.09.27.13.4Z"/><path class="cls-352" d="M68.41,36.57a1.16,1.16,0,0,1,.61-.5l6.91,0a12.8,12.8,0,0,1-2,2.66c-1.2,1.33-2.45,2.6-3.75,3.83a1,1,0,0,1-.43.31,1.21,1.21,0,0,1-1.18-.6l-.12-.57c-.08-1,0-2.09,0-3.13a18,18,0,0,1,0-1.94A.14.14,0,0,0,68.41,36.57Z"/><path class="cls-353" d="M77.23,39.05h.07l0,2.84a.81.81,0,0,1-.31.72,9.42,9.42,0,0,0,.2-3C77.23,39.43,77.23,39.24,77.23,39.05Z"/><path class="cls-299" d="M68.41,36.66v5.07a5,5,0,0,1-.08-1.5c0-.3,0-.61,0-.91,0-.73,0-1.47,0-2.21C68.33,37,68.28,36.79,68.41,36.66Z"/><path class="cls-171" d="M97.36,47.37c0,.73,0,1.46,0,2.19,0,.23-.07.3-.3.3H92.74c-.24,0-.32-.07-.31-.3,0-.38,0-.76,0-1.14.08-.18.24-.2.41-.23l3.89-.85C97,47.29,97.17,47.21,97.36,47.37Z"/><path class="cls-354" d="M97.36,47.37,94.5,48l-2,.46c0-.67,0-1.34,0-2,0-.23.07-.3.31-.3,1.44,0,2.89,0,4.34,0,.23,0,.32.07.3.3S97.37,47.05,97.36,47.37Z"/><path class="cls-172" d="M65.45,50.72a24.44,24.44,0,0,0-2.83.57L49.53,54.16a11.91,11.91,0,0,1-2,.38V52.06a27.79,27.79,0,0,0,3.5-.7c3.34-.74,6.67-1.53,10-2.23,1.45-.3,2.88-.7,4.36-.9Z"/><path class="cls-355" d="M54.2,55.68A4.8,4.8,0,0,1,56,55.14c3-.68,6-1.32,9-2a3.91,3.91,0,0,1,.48,0V56l-.78,0h-1l-1,0a2.46,2.46,0,0,0-1-.06,3.65,3.65,0,0,1-1,0H59.63l-1,0a3,3,0,0,0-1-.05,3.65,3.65,0,0,1-1,0H55.58l-.87,0C54.55,55.65,54.37,55.72,54.2,55.68Z"/><path class="cls-319" d="M52.61,55.7h1a2.36,2.36,0,0,1-1,0Z"/><path class="cls-356" d="M56.66,55.8h1a2.36,2.36,0,0,1-1,.06Z"/><path class="cls-357" d="M60.71,55.9h1a2.36,2.36,0,0,1-1,.05Z"/><path class="cls-358" d="M53,35.89a.44.44,0,0,1,.43-.16c2.61.13,5.23,0,7.84.05.14,0,.3-.09.38.11H53Z"/><path class="cls-359" d="M52.4,41.27a1.55,1.55,0,0,1-.16-.82c0-1.24,0-2.49.07-3.73,0-.1,0-.19.1-.25Z"/><path class="cls-360" d="M52.69,42.62c-.22-.22-.45-.44-.28-.8Z"/><path class="cls-361" d="M52.52,36.21c-.07-.29.15-.29.35-.31Z"/><path class="cls-362" d="M61.42,47.88c.4.31.1.57-.06.84a3.65,3.65,0,0,1-1.47.13h-2.5c-.17,0-.35,0-.44-.19A2.82,2.82,0,0,1,58,47.89c.1-.12.28-.11.39-.22h.21c.61,0,1.22,0,1.83.05H61A1,1,0,0,1,61.42,47.88Z"/><path class="cls-363" d="M60.53,47.73a8.55,8.55,0,0,1-1.89-.07,5.33,5.33,0,0,1,1.91,0l0,0Z"/><path class="cls-364" d="M59.23,48.81a12.61,12.61,0,0,0,2.13-.09.48.48,0,0,1-.42.2l-1.71,0s0,0,0,0S59.22,48.81,59.23,48.81Z"/><path class="cls-365" d="M57,48.66c.38.24.81.06,1.21.16v.06H56.74C56.72,48.69,56.86,48.7,57,48.66Z"/><path class="cls-224" d="M58.17,48.88s0,0,0-.06h1.07a.11.11,0,0,1,0,.08Z"/><path class="cls-366" d="M60.53,47.73l0-.06H61s.05,0,0,0l0,0Z"/><path class="cls-230" d="M58.43,47.67c-.07.18-.25.17-.39.22C58.09,47.68,58.29,47.73,58.43,47.67Z"/><path class="cls-367" d="M61,47.74v-.07c.16,0,.34,0,.41.21Z"/></g></svg>