<svg id="Layer_1" data-name="Layer 1" xmlns="http://www.w3.org/2000/svg" viewBox="0 0 100 100"><defs><style>.cls-1{opacity:0.5;}.cls-2{fill:#fff200;stroke:#494949;stroke-miterlimit:10;}.cls-3{fill:#a6c914;}.cls-4{fill:#d6d6d6;}.cls-5{fill:#ff00cf;}</style></defs><ellipse class="cls-1" cx="50.45" cy="52.26" rx="42.3" ry="40.99"/><ellipse class="cls-2" cx="49.55" cy="48.74" rx="42.3" ry="40.99"/><ellipse class="cls-3" cx="49.55" cy="48.74" rx="36.57" ry="35.44"/><path class="cls-4" d="M49.46,22.38c0-.25-.55-.25-.59,0l-.75,3.94v2.05h2.11V26.32Z"/><rect class="cls-4" x="48.1" y="45.84" width="2.12" height="24.66"/><path class="cls-5" d="M41.35,74.11v1a4.77,4.77,0,0,0,9.54,0,1.46,1.46,0,0,0-.1-.52h.1V70.5H47.7v4.1h.1a1.55,1.55,0,0,0-.1.52,1.61,1.61,0,0,1-3.21,0v-1a1.58,1.58,0,0,0-1.6-1.56A1.53,1.53,0,0,0,41.35,74.11Z"/><path class="cls-5" d="M34.32,55.08h0a13.11,13.11,0,0,1,14.84,0h0V26.32C41,26.32,34.32,39.2,34.32,55.08Z"/><path class="cls-5" d="M49.16,26.32V55.1h0A13.12,13.12,0,0,1,64,55.1h0C64,39.2,57.38,26.32,49.16,26.32Z"/><path class="cls-5" d="M49.16,26.32C57.36,26.32,64,39.2,64,55.1h0a13.11,13.11,0,0,1,14.84,0h0C78.87,39.2,65.57,26.32,49.16,26.32Z"/><path class="cls-5" d="M19.48,55.08h0a13.11,13.11,0,0,1,14.84,0h0c0-15.9,6.65-28.78,14.84-28.78C32.76,26.32,19.48,39.2,19.48,55.08Z"/></svg>