<svg id="Layer_1" data-name="Layer 1" xmlns="http://www.w3.org/2000/svg" viewBox="0 0 100 100"><defs><style>.cls-1{opacity:0.5;}.cls-2{fill:#fff200;stroke:#494949;stroke-miterlimit:10;}.cls-3{fill:#a6c914;}.cls-4{fill:#323232;fill-rule:evenodd;}</style></defs><ellipse class="cls-1" cx="50.45" cy="52.31" rx="42.3" ry="40.94"/><ellipse class="cls-2" cx="49.55" cy="48.69" rx="42.3" ry="40.94"/><ellipse class="cls-3" cx="49.55" cy="48.69" rx="36.57" ry="35.39"/><path class="cls-4" d="M77.85,34.63c.24-.35.18-1-.29-1l-2,2.07a1.2,1.2,0,0,1-.94,1.71l-.12-.71h.4v-.64h-.44a1.09,1.09,0,0,0,.59-.95,1.13,1.13,0,0,0-2.26,0,1.1,1.1,0,0,0,.58.95h-.43v.64h.39l-.12.71a1.21,1.21,0,0,1-.94-1.71l-2-2.07c-.46,0-.52.63-.29,1-.34.17-.37.45-.11.83a.5.5,0,0,0,.18.81c-.06.37,0,.64.42.73,0,.39.26.53.6.62a3.14,3.14,0,0,0,1.48.69.49.49,0,0,0,.5.11L72.76,40h-.57v.64h.44v1c-4-.26-7.19-1.56-10.43-2.86s-6.57-2.63-10.63-2.9a.49.49,0,0,0,.27-.43.5.5,0,0,0-.51-.49A.62.62,0,0,0,51,35a.78.78,0,0,0,0-.16,1,1,0,0,0-.54-.89l-.31-.79.83.31V32.44l-.83.32.32-.82H49.43l.33.82-.84-.32v1.05l.84-.31-.32.79a1,1,0,0,0-.53.89,1.09,1.09,0,0,0,0,.18.47.47,0,0,0-.31-.11.5.5,0,0,0-.51.49.49.49,0,0,0,.28.44,34.1,34.1,0,0,0-10.52,2.89c-3.28,1.3-6.55,2.6-10.53,2.86v-1h.43V40h-.57l-.27-1.6a.51.51,0,0,0,.51-.11.68.68,0,0,0,.76-.24.73.73,0,0,0,.72-.45c.33-.09.61-.23.59-.62.38-.09.49-.36.42-.73a.5.5,0,0,0,.19-.81c.26-.38.22-.66-.12-.83.24-.35.18-1-.29-1l-2,2.07a1.2,1.2,0,0,1-.94,1.71l-.12-.71H27v-.64h-.44a1.09,1.09,0,0,0,.59-.95,1.13,1.13,0,0,0-2.26,0,1.1,1.1,0,0,0,.58.95h-.43v.64h.39l-.12.71a1.21,1.21,0,0,1-.94-1.71l-2-2.07c-.46,0-.52.63-.29,1-.34.17-.37.45-.11.83a.5.5,0,0,0,.18.81c-.06.37,0,.64.42.73,0,.39.26.53.6.62a.7.7,0,0,0,.71.45.69.69,0,0,0,.77.24.49.49,0,0,0,.5.11L24.9,40h-.57v.64h.44V58.2h-.33v1.12H23.9V60h.36v4.77H23.9v1.12h-.72v.64h5.73v-.64h-.72V64.73h-.35v-.89H72.12v.89h-.36v1.12H71v.64h5.73v-.64h-.71V64.73H75.7V60h.36v-.64h-.54V58.2h-.33V40.66h.44V40h-.58l-.27-1.6a.51.51,0,0,0,.51-.11.68.68,0,0,0,.76-.24.73.73,0,0,0,.72-.45c.33-.09.61-.23.59-.62.38-.09.49-.36.43-.73a.5.5,0,0,0,.18-.81C78.23,35.08,78.19,34.8,77.85,34.63ZM72.63,55H71.12V41.89c.49.06,1,.11,1.51.14Zm-11,0H59.18V38c.84.3,1.66.63,2.48,1Zm6,.5v1a2.91,2.91,0,0,0-2.48,1.88v-2.9ZM65.15,55V40.36c.81.29,1.63.56,2.48.8V55Zm2.77,6.74h0a2.56,2.56,0,0,1-1-.21L68,60.78l1,.76A2.54,2.54,0,0,1,67.92,61.78Zm-1.1-4.53.3.74.37.92-.95-.36-.79-.29A2.38,2.38,0,0,1,66.82,57.25ZM65.7,58.34l.84,1-.84,1a2.28,2.28,0,0,1-.25-1A2.32,2.32,0,0,1,65.7,58.34Zm.84,1.88.95-.36-.37.92-.3.74a2.41,2.41,0,0,1-1.07-1Zm2.58,1.25-.28-.69-.37-.92,1,.36.69.26A2.36,2.36,0,0,1,69.12,61.47Zm1.06-1.13-.76-1,.76-1a2.4,2.4,0,0,1,.21,1A2.32,2.32,0,0,1,70.18,60.34Zm-.76-1.79-1,.36.37-.92.28-.69a2.48,2.48,0,0,1,1,1ZM68,58l-1.06-.8a2.55,2.55,0,0,1,1-.2h0a2.54,2.54,0,0,1,1.07.24Zm-3.33.28a2.94,2.94,0,0,0-2.49-1.73v-1h2.49Zm-2.71,3.5a2.61,2.61,0,0,1-1-.21L62,60.78l1,.76A2.5,2.5,0,0,1,61.94,61.78Zm0-4.78a2.65,2.65,0,0,1,1.06.23L62,58l-1.06-.79A2.61,2.61,0,0,1,61.94,57Zm2.19,1.29-.7.26-1,.36.37-.92.28-.7A2.53,2.53,0,0,1,64.13,58.29Zm-3.3-1,.29.73.37.92-1-.36-.78-.29A2.46,2.46,0,0,1,60.83,57.26Zm-1.11,1.09.83,1-.83,1a2.24,2.24,0,0,1-.25-1A2.31,2.31,0,0,1,59.72,58.35Zm.82,1.87,1-.36-.37.92-.29.74a2.43,2.43,0,0,1-1.07-1Zm2.59,1.26-.28-.7-.37-.92,1,.36.7.27A2.51,2.51,0,0,1,63.13,61.48Zm1.07-1.13-.78-1,.78-1a2.41,2.41,0,0,1,.21,1A2.36,2.36,0,0,1,64.2,60.35Zm-2.54-3.79a2.92,2.92,0,0,0-2.48,1.85V55.54h2.48Zm-3,1.75a2.94,2.94,0,0,0-2.48-1.76v-1h2.48ZM56,61.78h0a2.55,2.55,0,0,1-1-.23l1-.77,1,.78A2.54,2.54,0,0,1,56,61.78Zm-3.25-3.44a3,3,0,0,0-2.48-1.79v-1h2.48ZM50,61.78a2.43,2.43,0,0,1-1-.23l1-.77,1,.77A2.36,2.36,0,0,1,50,61.78Zm-3.24-3.4a2.93,2.93,0,0,0-2.48-1.83v-1h2.48ZM44,61.78h0a2.52,2.52,0,0,1-1-.21l1-.79,1,.76A2.5,2.5,0,0,1,44,61.78Zm-3.22-3.37a2.93,2.93,0,0,0-2.49-1.85v-1h2.49ZM38,61.78h0a2.61,2.61,0,0,1-1-.21l1.05-.79,1,.76A2.53,2.53,0,0,1,38,61.78Zm-3.21-3.34a2.92,2.92,0,0,0-2.49-1.88v-1h2.49ZM32,61.78a2.59,2.59,0,0,1-1-.23l1-.77,1,.78A2.5,2.5,0,0,1,32,61.78ZM32,57a2.5,2.5,0,0,1,1,.22L32,58l-1-.77A2.43,2.43,0,0,1,32,57Zm2.19,1.27-.76.28-1,.36.37-.92.29-.72A2.42,2.42,0,0,1,34.22,58.27Zm-3.35-1,.29.71.37.92-1-.36-.73-.27A2.52,2.52,0,0,1,30.87,57.28ZM29.79,58.4l.79,1-.79,1a2.35,2.35,0,0,1-.22-1A2.32,2.32,0,0,1,29.79,58.4Zm.79,1.82,1-.36-.37.92-.29.71a2.43,2.43,0,0,1-1-1Zm2.59,1.29-.29-.73-.37-.92,1,.36.76.28A2.5,2.5,0,0,1,33.17,61.51Zm1.1-1.11-.81-1,.81-1a2.27,2.27,0,0,1,.23,1A2.3,2.3,0,0,1,34.27,60.4Zm1-4.86h2.48v1a2.93,2.93,0,0,0-2.48,1.73Zm4.9,2.75-.71.26-1,.36.37-.92.28-.7A2.49,2.49,0,0,1,40.21,58.29ZM38.06,58,37,57.21A2.61,2.61,0,0,1,38,57h0a2.69,2.69,0,0,1,1.06.23Zm-1.16-.74.3.73.37.92-1-.36-.78-.29A2.44,2.44,0,0,1,36.9,57.26Zm-1.11,1.09.83,1-.83,1a2.36,2.36,0,0,1-.24-1A2.44,2.44,0,0,1,35.79,58.35Zm.83,1.87,1-.36-.37.92-.3.74a2.41,2.41,0,0,1-1.06-1Zm2.58,1.26-.28-.7-.37-.92,1,.36.71.27A2.47,2.47,0,0,1,39.2,61.48Zm1.07-1.12-.77-1,.77-1a2.25,2.25,0,0,1,.21,1A2.29,2.29,0,0,1,40.27,60.36Zm1-4.82h2.49v1a2.94,2.94,0,0,0-2.49,1.76Zm4.92,2.75-.7.26-1,.36.37-.92.28-.69A2.45,2.45,0,0,1,46.19,58.29ZM44.05,58l-1-.79A2.36,2.36,0,0,1,44,57h0a2.5,2.5,0,0,1,1.06.24Zm-1.16-.75.3.74.37.92-1-.36-.79-.29A2.49,2.49,0,0,1,42.89,57.25Zm-1.11,1.1.83,1-.83,1a2.28,2.28,0,0,1-.25-1A2.25,2.25,0,0,1,41.78,58.35Zm.83,1.87,1-.36-.37.92-.3.74a2.46,2.46,0,0,1-1.07-1Zm2.58,1.26-.28-.7-.37-.92,1,.36.7.26A2.47,2.47,0,0,1,45.19,61.48Zm1.07-1.13-.77-1,.77-1a2.36,2.36,0,0,1,.2,1A2.39,2.39,0,0,1,46.26,60.35Zm1-4.81h2.49v1a2.94,2.94,0,0,0-2.49,1.8Zm4.92,2.74-.74.27-1,.36.37-.92.29-.71A2.37,2.37,0,0,1,52.16,58.28ZM50,58l-1-.78A2.58,2.58,0,0,1,50,57a2.5,2.5,0,0,1,1,.22Zm-1.15-.72.29.71.37.92-1-.36-.75-.27A2.45,2.45,0,0,1,48.83,57.28Zm-1.09,1.11.8,1-.8,1a2.26,2.26,0,0,1-.23-1A2.23,2.23,0,0,1,47.74,58.39Zm.8,1.83,1-.36-.37.92-.29.72a2.45,2.45,0,0,1-1-1Zm2.59,1.28-.29-.72-.37-.92,1,.36.74.28A2.37,2.37,0,0,1,51.13,61.5Zm1.09-1.11-.8-1,.8-1a2.37,2.37,0,0,1,.23,1A2.4,2.4,0,0,1,52.22,60.39Zm1-4.85H55.7v1a2.93,2.93,0,0,0-2.49,1.83Zm4.93,2.73-.75.28-1,.36.37-.92.29-.72A2.51,2.51,0,0,1,58.14,58.27ZM56,58l-1-.78A2.55,2.55,0,0,1,56,57h0a2.54,2.54,0,0,1,1,.22Zm-1.15-.72.29.71.37.92-1-.36-.74-.27A2.37,2.37,0,0,1,54.8,57.28ZM53.72,58.4l.79,1-.79,1a2.22,2.22,0,0,1-.23-1A2.19,2.19,0,0,1,53.72,58.4Zm.79,1.82,1-.36-.37.92-.29.72a2.48,2.48,0,0,1-1-1ZM57.1,61.5l-.29-.72-.37-.92,1,.36.75.28A2.39,2.39,0,0,1,57.1,61.5Zm1.09-1.1-.8-1,.8-1a2.25,2.25,0,0,1,0,2ZM58.68,55H56.2v-18c.85.23,1.67.5,2.48.78Zm-3,0H53.21V36.45a23.84,23.84,0,0,1,2.49.49Zm-3,0H50.23V36.23a22,22,0,0,1,2.48.15Zm-3,0H47.24V36.4a22.13,22.13,0,0,1,2.49-.17Zm-3,0H44.26V37a24.18,24.18,0,0,1,2.48-.51Zm-3,0H41.27V37.9c.82-.29,1.64-.56,2.49-.79Zm-3,0H38.29V39c.82-.33,1.65-.66,2.49-1Zm-3,0H35.31V40.2c.83-.31,1.66-.64,2.48-1Zm-3,0H32.32V41.17c.85-.23,1.68-.5,2.49-.79Zm-3,0H29.34V41.82c.85-.13,1.68-.31,2.48-.51Zm0,.5v1a3,3,0,0,0-2.48,1.7V55.54Zm-2.48,5a2.91,2.91,0,0,0,2.48,1.7v1H29.34Zm3,1.7a3,3,0,0,0,2.49-1.89v2.85H32.32Zm3-1.72a2.93,2.93,0,0,0,2.48,1.72v1H35.31Zm3,1.72a2.94,2.94,0,0,0,2.49-1.86v2.82H38.29Zm3-1.76a2.93,2.93,0,0,0,2.49,1.76v1H41.27Zm3,1.76a2.93,2.93,0,0,0,2.48-1.82v2.78H44.26Zm3-1.79a2.93,2.93,0,0,0,2.49,1.79v1H47.24Zm3,1.79a2.93,2.93,0,0,0,2.48-1.79v2.75H50.23Zm3-1.82a2.93,2.93,0,0,0,2.49,1.82v1H53.21Zm3,1.82a2.92,2.92,0,0,0,2.48-1.76v2.72H56.2Zm3-1.86a2.93,2.93,0,0,0,2.48,1.86v1H59.18Zm3,1.86a3,3,0,0,0,2.49-1.72v2.68H62.16Zm3-1.89a2.93,2.93,0,0,0,2.48,1.89v1H65.15Zm3,1.89a2.92,2.92,0,0,0,2.49-1.7v2.66H68.13Zm2.49-4a3,3,0,0,0-2.49-1.7v-1h2.49ZM68.13,55V41.3a23.83,23.83,0,0,0,2.49.51V55ZM64.65,40.17V55H62.16V39.2C63,39.53,63.81,39.86,64.65,40.17ZM50.83,35.49a.5.5,0,0,0,.2.33l-.61,0A1.14,1.14,0,0,0,50.83,35.49Zm-1.72,0a1.2,1.2,0,0,0,.43.34l-.65,0A.45.45,0,0,0,49.11,35.47ZM28.84,41.89V55H27.33V42C27.84,42,28.35,42,28.84,41.89ZM27.84,60h.36v-.64h-.54V58.2h-.33V55.54h1.51v7.64h-1ZM72.3,58.2v1.12h-.54V60h.36v3.22h-1V55.54h1.51V58.2Z"/></svg>