<svg id="Layer_1" data-name="Layer 1" xmlns="http://www.w3.org/2000/svg" viewBox="0 0 100 100"><defs><style>.cls-1{opacity:0.5;}.cls-2{fill:#fff200;stroke:#494949;stroke-miterlimit:10;}.cls-3{fill:#a6c914;}.cls-4{fill:#ff0;}</style></defs><ellipse class="cls-1" cx="50.45" cy="52.31" rx="42.3" ry="40.94"/><ellipse class="cls-2" cx="49.55" cy="48.69" rx="42.3" ry="40.94"/><ellipse class="cls-3" cx="49.55" cy="48.69" rx="36.57" ry="35.39"/><path class="cls-4" d="M61.27,48.69A11.73,11.73,0,1,1,49.55,37.34,11.54,11.54,0,0,1,61.27,48.69Z"/><path class="cls-4" d="M50.9,34.07a1.34,1.34,0,0,1-1.35,1.31h0a1.34,1.34,0,0,1-1.36-1.31V22.88a1.33,1.33,0,0,1,1.36-1.3h0a1.33,1.33,0,0,1,1.35,1.3Z"/><path class="cls-4" d="M50.9,74.49a1.34,1.34,0,0,1-1.35,1.31h0a1.34,1.34,0,0,1-1.36-1.31V63.3A1.33,1.33,0,0,1,49.55,62h0a1.33,1.33,0,0,1,1.35,1.3Z"/><path class="cls-4" d="M39.82,37.42a1.28,1.28,0,0,1,0,1.85h0a1.38,1.38,0,0,1-1.91,0l-8.17-7.9a1.27,1.27,0,0,1,0-1.85h0a1.38,1.38,0,0,1,1.91,0Z"/><path class="cls-4" d="M69.35,66a1.26,1.26,0,0,1,0,1.84h0a1.36,1.36,0,0,1-1.91,0L59.27,60a1.28,1.28,0,0,1,0-1.85h0a1.38,1.38,0,0,1,1.91,0Z"/><path class="cls-4" d="M34.44,47.38a1.32,1.32,0,0,1,1.35,1.31h0A1.32,1.32,0,0,1,34.44,50H22.89a1.33,1.33,0,0,1-1.36-1.3h0a1.33,1.33,0,0,1,1.36-1.31Z"/><path class="cls-4" d="M76.2,47.38a1.33,1.33,0,0,1,1.36,1.31h0A1.33,1.33,0,0,1,76.2,50H64.65a1.32,1.32,0,0,1-1.35-1.3h0a1.32,1.32,0,0,1,1.35-1.31Z"/><path class="cls-4" d="M35.07,53.07a1.37,1.37,0,0,1,1.77.71h0a1.29,1.29,0,0,1-.73,1.71L30,58a1.36,1.36,0,0,1-1.76-.71h0a1.29,1.29,0,0,1,.73-1.71Z"/><path class="cls-4" d="M69.12,39.42a1.36,1.36,0,0,1,1.76.71h0a1.29,1.29,0,0,1-.73,1.71L64,44.3a1.37,1.37,0,0,1-1.77-.71h0A1.3,1.3,0,0,1,63,41.88Z"/><path class="cls-4" d="M42.52,61.69A1.36,1.36,0,0,1,44.28,61h0A1.29,1.29,0,0,1,45,62.69l-2.54,5.94a1.36,1.36,0,0,1-1.76.71h0A1.29,1.29,0,0,1,40,67.63Z"/><path class="cls-4" d="M56.62,28.74A1.36,1.36,0,0,1,58.38,28h0a1.3,1.3,0,0,1,.74,1.71l-2.55,5.94a1.36,1.36,0,0,1-1.76.71h0a1.29,1.29,0,0,1-.73-1.71Z"/><path class="cls-4" d="M54.08,62.69A1.29,1.29,0,0,1,54.81,61h0a1.36,1.36,0,0,1,1.76.71l2.55,5.94a1.3,1.3,0,0,1-.74,1.71h0a1.36,1.36,0,0,1-1.76-.71Z"/><path class="cls-4" d="M40,29.74A1.29,1.29,0,0,1,40.71,28h0a1.36,1.36,0,0,1,1.76.71L45,34.68a1.29,1.29,0,0,1-.73,1.71h0a1.36,1.36,0,0,1-1.76-.71Z"/><path class="cls-4" d="M63,55.49a1.3,1.3,0,0,1-.73-1.71h0A1.37,1.37,0,0,1,64,53.07l6.13,2.46a1.29,1.29,0,0,1,.73,1.71h0a1.36,1.36,0,0,1-1.76.71Z"/><path class="cls-4" d="M28.94,41.84a1.29,1.29,0,0,1-.73-1.71h0A1.36,1.36,0,0,1,30,39.42l6.14,2.46a1.29,1.29,0,0,1,.73,1.71h0a1.37,1.37,0,0,1-1.77.71Z"/><path class="cls-4" d="M37.91,58.1a1.38,1.38,0,0,1,1.91,0h0a1.28,1.28,0,0,1,0,1.85l-8.17,7.9a1.36,1.36,0,0,1-1.91,0h0a1.26,1.26,0,0,1,0-1.84Z"/><path class="cls-4" d="M67.44,29.52a1.38,1.38,0,0,1,1.91,0h0a1.27,1.27,0,0,1,0,1.85l-8.17,7.9a1.38,1.38,0,0,1-1.91,0h0a1.28,1.28,0,0,1,0-1.85Z"/></svg>