<svg id="Layer_1" data-name="Layer 1" xmlns="http://www.w3.org/2000/svg" viewBox="0 0 100 100"><defs><style>.cls-1{opacity:0.5;}.cls-2{fill:#fff200;stroke:#494949;stroke-miterlimit:10;}.cls-3{fill:#a6c914;}.cls-4{fill:#ff0043;}</style></defs><ellipse class="cls-1" cx="50.46" cy="51.78" rx="42.29" ry="40.97"/><ellipse class="cls-2" cx="49.54" cy="48.22" rx="42.29" ry="40.97"/><ellipse class="cls-3" cx="49.54" cy="48.22" rx="36.57" ry="35.42"/><path class="cls-4" d="M49.64,68.87a5.25,5.25,0,0,0-3.76,1.52,5,5,0,0,0,0,7.29,5.41,5.41,0,0,0,7.52,0,5,5,0,0,0,0-7.29A5.23,5.23,0,0,0,49.64,68.87Z"/><path class="cls-4" d="M67.38,28.1A14.7,14.7,0,0,0,63.49,23a17.38,17.38,0,0,0-5.79-3.18,22.42,22.42,0,0,0-7.1-1.1A20.75,20.75,0,0,0,37.25,23,18,18,0,0,0,31,33.18a2.48,2.48,0,0,0,.34,2,2.35,2.35,0,0,0,1.71.72l5.17.49a4.38,4.38,0,0,0,.6,0,2.35,2.35,0,0,0,1.44-.38,2.76,2.76,0,0,0,1-1.69A10.1,10.1,0,0,1,44,29.56a8.75,8.75,0,0,1,6.46-2.43,9.22,9.22,0,0,1,3.37.63,8.26,8.26,0,0,1,2.7,1.72,8.55,8.55,0,0,1,1.83,2.63A8.21,8.21,0,0,1,59,35.45a7.5,7.5,0,0,1-.68,3.23,14.17,14.17,0,0,1-1.79,2.83,27.85,27.85,0,0,1-2.48,2.65q-1.39,1.31-2.79,2.58c-1.19,1.09-2.15,2-3,2.77a11.47,11.47,0,0,0-2,2.52A10.66,10.66,0,0,0,45.21,55a17.7,17.7,0,0,0-.37,4V61.6a2.51,2.51,0,0,0,2.55,2.47h4.69a2.53,2.53,0,0,0,2.55-2.47V60.37a19.45,19.45,0,0,1,.17-2.88,6.49,6.49,0,0,1,.59-2,7,7,0,0,1,1.2-1.7c.54-.58,1.28-1.3,2.18-2.12l.91-.79L65,45.62a17.69,17.69,0,0,0,2.82-4.72,15.88,15.88,0,0,0,1-5.88A16.3,16.3,0,0,0,67.38,28.1Z"/></svg>