<svg id="Layer_1" data-name="Layer 1" xmlns="http://www.w3.org/2000/svg" viewBox="0 0 100 100"><defs><style>.cls-1{opacity:0.5;}.cls-2{fill:#fff200;stroke:#494949;stroke-miterlimit:10;}.cls-3{fill:#a6c914;}.cls-4{fill:#eac307;}.cls-5{fill:#ffffd7;}.cls-6{fill:#ffe700;}.cls-7{fill:#ffff9b;}.cls-8{fill:#fbd100;opacity:0.13;isolation:isolate;}</style></defs><ellipse class="cls-1" cx="50.46" cy="51.82" rx="42.29" ry="40.93"/><ellipse class="cls-2" cx="49.54" cy="48.18" rx="42.29" ry="40.93"/><ellipse class="cls-3" cx="49.54" cy="48.18" rx="36.57" ry="35.39"/><path class="cls-4" d="M65.18,69C53,77.42,35.85,74.93,27.69,63a26,26,0,0,1-4-9.09A26.31,26.31,0,0,1,33.92,26.77c11.31-7.95,27.32-4.7,36.44,6.75A25.42,25.42,0,0,1,76,47.91,23.87,23.87,0,0,1,65.18,69Z"/><path class="cls-5" d="M64.07,67.62C52.68,75.42,36.75,73.1,29.15,62S24.43,35.64,35,28.25s25.45-4.39,33.94,6.28S75.49,59.81,64.07,67.62Z"/><path class="cls-6" d="M68.75,42.14a5.31,5.31,0,0,1-2,1.14A111.72,111.72,0,0,1,55.4,47.09a5.49,5.49,0,0,1-2.72.26c-1.21-.4-1.47-1.49-.66-3.07.62-1.21,4.56-7.5,5.94-9.4.94-1.29,2.12-3.31,3.64-3.4,2.26-.14,6,3.72,7.36,6.7C69.51,39.4,69.82,41,68.75,42.14Z"/><path class="cls-6" d="M28.74,44.22a5.06,5.06,0,0,1,2.29,0,105.37,105.37,0,0,1,11.72,2.7,5.22,5.22,0,0,1,2.48,1.18c.84,1,.56,1.94-1,2.93-1.16.76-7.83,4.35-10,5.33-1.49.68-3.55,1.87-4.91,1.16-2-1.06-3.25-6.48-2.86-9.87C26.66,46.28,27.23,44.68,28.74,44.22Z"/><path class="cls-6" d="M39.63,30a4.56,4.56,0,0,1,1.43,1.71,94.48,94.48,0,0,1,5.32,10.41A4.81,4.81,0,0,1,47,44.77C46.68,46,45.56,46.51,43.8,46c-1.35-.37-8.44-3-10.6-4-1.48-.66-3.74-1.42-4-2.9-.4-2.18,3.24-6.64,6.25-8.55C36.66,29.83,38.32,29.21,39.63,30Z"/><path class="cls-6" d="M66.05,60.82a5.14,5.14,0,0,1-2.15-.88,105.81,105.81,0,0,1-10-6.9A5.21,5.21,0,0,1,52,51c-.38-1.27.4-2.19,2.24-2.55,1.4-.27,9.12-1.11,11.56-1.21,1.67-.07,4.1-.4,5.08.79,1.46,1.77.39,7.37-1.37,10.42C68.84,59.67,67.65,61,66.05,60.82Z"/><path class="cls-6" d="M33.27,61.52a4.75,4.75,0,0,1,1.33-1.7,100.8,100.8,0,0,1,8.78-7.25,5.09,5.09,0,0,1,2.35-1.16c1.25,0,1.91.84,1.79,2.54-.09,1.29-1.21,8.27-1.71,10.43-.35,1.49-.63,3.7-2,4.29-2,.89-6.86-1.31-9.23-3.53C33.64,64.23,32.75,62.89,33.27,61.52Z"/><path class="cls-6" d="M49.62,68.79a4.77,4.77,0,0,1-.57-2.14,101.77,101.77,0,0,1-.48-11.56,5,5,0,0,1,.53-2.59c.76-1,1.79-.84,3.13.34,1,.9,6.32,6.14,7.82,7.92,1,1.22,2.7,2.86,2.34,4.29-.52,2.13-5.49,4.56-8.88,5C52.14,70.23,50.44,70.08,49.62,68.79Z"/><path class="cls-6" d="M56.57,29.38a4.63,4.63,0,0,1-.34,2.1A96.07,96.07,0,0,1,52,41.9,4.76,4.76,0,0,1,50.53,44c-1.09.62-2.11.13-2.84-1.41-.56-1.18-3-7.83-3.64-10-.43-1.46-1.27-3.53-.38-4.67,1.32-1.69,6.72-2,9.93-1.13C54.9,27.16,56.35,27.93,56.57,29.38Z"/><path class="cls-7" d="M50.1,36.09c2.51.23.12,5-.49,5S47.49,35.84,50.1,36.09Z"/><path class="cls-7" d="M42.15,58.87c-2.14-1.28,2.19-4.57,2.71-4.26S44.39,60.2,42.15,58.87Z"/><path class="cls-7" d="M61.16,52.55c-.74,2.66-5.17-.66-5-1.31S61.93,49.77,61.16,52.55Z"/><path class="cls-8" d="M65.18,69C53,77.42,35.85,74.93,27.69,63a26,26,0,0,1-4-9.09,30.19,30.19,0,0,0,2.63,2.68,34.3,34.3,0,0,0,19.29,8.51,32.46,32.46,0,0,0,3.28.14,28.53,28.53,0,0,0,12.43-2.94,29.57,29.57,0,0,0,3.33-1.93A32.63,32.63,0,0,0,71,54.88a41.35,41.35,0,0,0,3.1-4q1-1.42,1.89-3A23.87,23.87,0,0,1,65.18,69Z"/></svg>