<svg id="Layer_1" data-name="Layer 1" xmlns="http://www.w3.org/2000/svg" viewBox="0 0 100 100"><defs><style>.cls-1{opacity:0.5;}.cls-2{fill:#fff200;stroke:#494949;stroke-miterlimit:10;}.cls-3{fill:#a6c914;}.cls-4{fill:#ffbde1;}.cls-5{fill:#ffdcef;}.cls-6{fill:#ffabd9;}.cls-7{fill:#ff57b2;}.cls-8{fill:#a11461;}.cls-9{fill:#c61a77;}.cls-10{fill:#ff80c5;}.cls-11{fill:#da1d84;}.cls-12{fill:#ff8fcb;}</style></defs><ellipse class="cls-1" cx="50.45" cy="52.31" rx="42.3" ry="40.94"/><ellipse class="cls-2" cx="49.55" cy="48.69" rx="42.3" ry="40.94"/><ellipse class="cls-3" cx="49.55" cy="48.69" rx="36.57" ry="35.39"/><polygon class="cls-4" points="40.07 28.83 37.27 28.83 31.19 39.31 40.07 28.83"/><polygon class="cls-5" points="44.12 28.83 40.07 28.83 41.38 39.31 44.12 28.83"/><polygon class="cls-4" points="57.71 39.31 54.97 28.83 49.55 28.83 57.71 39.31 57.71 39.31"/><polygon class="cls-5" points="59.02 28.83 54.97 28.83 57.71 39.31 59.02 28.83"/><polygon class="cls-4" points="49.55 28.83 44.12 28.83 41.38 39.31 49.55 28.83"/><polygon class="cls-6" points="61.83 28.83 59.02 28.83 67.91 39.31 61.83 28.83"/><polygon class="cls-7" points="67.91 39.31 63.95 28.84 63.95 28.83 61.83 28.83 67.91 39.31 67.91 39.31"/><polygon class="cls-5" points="31.19 39.31 37.27 28.83 35.14 28.83 31.19 39.31 31.19 39.31"/><polygon class="cls-8" points="67.9 39.31 59.89 50.27 49.55 73.63 65.43 50.26 67.91 39.31 67.91 39.31 67.9 39.31"/><polygon class="cls-9" points="57.71 39.31 57.71 39.31 49.55 51.08 49.55 73.64 49.55 73.63 59.89 50.27 57.71 39.31"/><polygon class="cls-8" points="41.38 39.31 41.38 39.31 39.2 50.27 49.55 73.64 49.55 73.64 49.55 51.08 41.38 39.31"/><polygon class="cls-7" points="31.19 39.31 31.19 39.31 33.67 50.26 33.67 50.27 49.54 73.64 49.55 73.64 39.2 50.27 31.19 39.31"/><polygon class="cls-10" points="26.23 39.31 33.67 50.26 31.19 39.31 26.23 39.31"/><polygon class="cls-11" points="59.89 50.27 67.9 39.31 57.71 39.31 59.89 50.27"/><polygon class="cls-7" points="67.91 39.31 59.02 28.83 57.71 39.31 67.91 39.31"/><polygon class="cls-10" points="57.71 39.31 49.55 28.83 41.38 39.31 57.71 39.31"/><polygon class="cls-12" points="39.2 50.27 41.38 39.31 31.19 39.31 39.2 50.27"/><polygon class="cls-6" points="41.38 39.31 40.07 28.83 31.19 39.31 41.38 39.31"/><polygon class="cls-6" points="35.14 28.83 26.23 39.31 31.19 39.31 35.14 28.83"/><polygon class="cls-7" points="72.86 39.31 68.8 34.53 63.95 28.84 67.91 39.31 72.86 39.31"/><polygon class="cls-11" points="65.43 50.26 72.86 39.31 67.91 39.31 65.43 50.26"/><polygon class="cls-7" points="49.55 51.08 57.71 39.31 41.38 39.31 49.55 51.08"/></svg>