<svg id="Layer_1" data-name="Layer 1" xmlns="http://www.w3.org/2000/svg" viewBox="0 0 100 100"><defs><style>.cls-1{opacity:0.5;}.cls-2{fill:#fff200;stroke:#494949;stroke-miterlimit:10;}.cls-3{fill:#a6c914;}.cls-4{fill:#f99d1c;}.cls-5{fill:#ef8200;}.cls-6{fill:#fff8a3;}.cls-7{fill:#ffcb05;}.cls-8{fill:#ed1c24;}.cls-9{fill:#00b3eb;}.cls-10{fill:#fceb70;}.cls-11{fill:#faa61a;}.cls-12{fill:#d10514;}.cls-13{fill:#009bdf;}.cls-14{fill:#b24bb2;}.cls-15{fill:#933296;}.cls-16{fill:#fff9cc;}.cls-17{fill:#1fd5ff;}</style></defs><ellipse class="cls-1" cx="50.45" cy="52.31" rx="42.3" ry="40.94"/><ellipse class="cls-2" cx="49.55" cy="48.69" rx="42.3" ry="40.94"/><ellipse class="cls-3" cx="49.55" cy="48.69" rx="36.57" ry="35.39"/><path class="cls-4" d="M57,69.66c.92-1.34,3.46-2.61,4.85-2.38-.47,2.16,1.32,7,.69,7.45C62.07,75,59.14,70.26,57,69.66Z"/><path class="cls-5" d="M61.84,69.33a6.66,6.66,0,0,1,0-2c-1.39-.23-3.93,1-4.85,2.38,1.38.38,3.07,2.48,4.24,3.85C60.59,72,60.43,70.39,61.84,69.33Z"/><path class="cls-6" d="M40.19,37c.61-1.49,3.39-2.69,5-2.24.62,1.64,1.46,5,4.31,4.84,3.23-.22,23.7,1.9,26.48,6.33,3.46,5.53-4.45,18.7-15.94,23.64-7.79,3.35-24.69,4.56-28.39-1.43-4-6.49,9.51-23.85,10.39-25.26C43.19,41,40.88,37.65,40.19,37Z"/><path class="cls-7" d="M57.29,40.15c7.22.9,16.84,2.82,18.69,5.76,3.46,5.53-4.45,18.7-15.94,23.64-7.79,3.35-24.69,4.56-28.39-1.43C29.12,64,33.56,55.62,37.41,49.6,42.19,48.15,54.31,43.12,57.29,40.15Z"/><path class="cls-8" d="M58.57,40.32c7,1,15.67,2.82,17.41,5.59,3.46,5.53-4.45,18.7-15.94,23.64-7.79,3.35-24.69,4.56-28.39-1.43C29.31,64.34,32.93,56.87,36.53,51,41,49.83,53.85,45.13,58.57,40.32Z"/><path class="cls-7" d="M70.16,42.7c2.83.89,5,2,5.82,3.21,3.46,5.53-4.45,18.7-15.94,23.64-7.79,3.35-24.69,4.56-28.39-1.43-1-1.58-.91-3.81-.25-6.29C42.31,59.66,65.28,48.37,70.16,42.7Z"/><path class="cls-9" d="M72,43.36c1.91.74,3.34,1.59,4,2.55,3.46,5.53-4.45,18.7-15.94,23.64-7.79,3.35-24.69,4.56-28.39-1.43a6.34,6.34,0,0,1-.69-4C38.8,62.75,66,51.8,72,43.36Z"/><path class="cls-10" d="M54.54,70.3a39.33,39.33,0,0,1-6.59.83A36.56,36.56,0,0,1,41.76,71c-3.65-.44-7.83-1.85-8.44-5.88-.4-2.65.5-5.45,1.55-7.87a44.56,44.56,0,0,1,4.45-7.6c.8-1.13,1.66-2.19,2.51-3.27a9.26,9.26,0,0,0,2-3.72,6.73,6.73,0,0,0-.71-4.1,8.53,8.53,0,0,0-1.89-2.82A3,3,0,0,0,40.19,37c.69.67,3,4,1.85,5.88-.88,1.41-14.4,18.77-10.39,25.26,3.7,6,20.6,4.78,28.39,1.43a31.53,31.53,0,0,0,11.75-9.09A36.63,36.63,0,0,1,54.54,70.3Z"/><path class="cls-11" d="M54.54,70.3a39.33,39.33,0,0,1-6.59.83A36.56,36.56,0,0,1,41.76,71c-3.65-.44-7.83-1.85-8.44-5.88-.4-2.65.5-5.45,1.55-7.87a44.56,44.56,0,0,1,4.45-7.6q.33-.48.69-.93c-1,.36-1.88.65-2.6.87-3.85,6-8.29,14.43-5.76,18.52,3.7,6,20.6,4.78,28.39,1.43a31.53,31.53,0,0,0,11.75-9.09A36.63,36.63,0,0,1,54.54,70.3Z"/><path class="cls-12" d="M54.54,70.3a39.33,39.33,0,0,1-6.59.83A36.56,36.56,0,0,1,41.76,71c-3.65-.44-7.83-1.85-8.44-5.88-.4-2.65.5-5.45,1.55-7.87a42,42,0,0,1,4-6.94c-.91.29-1.7.52-2.33.69-3.6,5.86-7.22,13.33-4.88,17.11,3.7,6,20.6,4.78,28.39,1.43a31.53,31.53,0,0,0,11.75-9.09A36.63,36.63,0,0,1,54.54,70.3Z"/><path class="cls-11" d="M54.54,70.3a39.33,39.33,0,0,1-6.59.83A36.56,36.56,0,0,1,41.76,71c-3.65-.44-7.83-1.85-8.44-5.88a10.54,10.54,0,0,1,.18-3.79c-.74.19-1.44.36-2.1.49-.66,2.48-.73,4.71.25,6.29,3.7,6,20.6,4.78,28.39,1.43a31.53,31.53,0,0,0,11.75-9.09A36.63,36.63,0,0,1,54.54,70.3Z"/><path class="cls-13" d="M54.54,70.3a39.33,39.33,0,0,1-6.59.83A36.56,36.56,0,0,1,41.76,71c-3.65-.44-7.83-1.85-8.44-5.88a8.9,8.9,0,0,1-.09-1.55c-.87.23-1.63.4-2.27.51a6.34,6.34,0,0,0,.69,4c3.7,6,20.6,4.78,28.39,1.43a31.53,31.53,0,0,0,11.75-9.09A36.63,36.63,0,0,1,54.54,70.3Z"/><path class="cls-14" d="M76,45.91c3.46,5.53-4.45,18.7-15.94,23.64-7.79,3.35-24.69,4.56-28.39-1.43C42.42,66.92,70.13,55.41,76,45.91Z"/><path class="cls-15" d="M40.11,69.68c-.08-.93,4.35-1.68,8.55-3.2a106.75,106.75,0,0,0,16.85-7.9c3.84-2.31,9.93-7.08,11.24-10.36A5.64,5.64,0,0,0,76,45.91c-5.85,9.5-33.56,21-44.33,22.21,2.29,3.71,9.66,4.66,16.78,4C47.54,72.12,40.27,71.47,40.11,69.68Z"/><path class="cls-8" d="M76,45.91c.56-.11.79.17.51,1.1C70.71,56,48,66.42,32.41,69.08c-1,0-1.19-.7-.76-1C42.42,66.92,70.13,55.41,76,45.91Z"/><path class="cls-16" d="M43.27,36.68c.78-.38,2.15-1.34,1.92-1.94-1.59-.44-4.29.71-5,2.16C40.65,37.35,42.34,37.13,43.27,36.68Z"/><path class="cls-17" d="M40.11,31.91l1.12-.45s2,3.8,2.15,3.95a1.15,1.15,0,0,1-1.27.67C41.88,35.75,40.23,32.1,40.11,31.91Z"/><path class="cls-9" d="M41.57,33.81c0-.39.29-.64.42-.94-.42-.76-.76-1.41-.76-1.41l-1.12.45c.12.19,1.77,3.84,2,4.17a1,1,0,0,0,.59,0A8.31,8.31,0,0,1,41.57,33.81Z"/><path class="cls-8" d="M39,33.14c1.46.45,3.92-1,3.85-2-1.16-1.34-2.54-3.5-2.31-4.32.6-2.16.23-7.9-5.08-5.37s-1.85,6.11,1.15,6.93C37.6,28.65,38.34,31.72,39,33.14Z"/><path class="cls-12" d="M40.15,33.12c-.24-.51-.42-1-.65-1.56a10.19,10.19,0,0,0-2.1-3.41,5.92,5.92,0,0,0-1.73-1.1,6,6,0,0,1-1.62-.93A3.76,3.76,0,0,1,33,23.45c-1.18,2.12,1.36,4.3,3.62,4.92,1,.28,1.77,3.35,2.39,4.77a2.46,2.46,0,0,0,1.21,0Z"/></svg>