<svg id="Layer_1" data-name="Layer 1" xmlns="http://www.w3.org/2000/svg" viewBox="0 0 100 100"><defs><style>.cls-1{opacity:0.5;}.cls-2{fill:#fff200;stroke:#494949;stroke-miterlimit:10;}.cls-3{fill:#a6c914;}.cls-4{fill:#c42e00;}.cls-5{fill:#fff6cc;}.cls-6{fill:#e03822;}.cls-7{fill:#47332f;opacity:0.42;}.cls-8{fill:#dda824;}.cls-9{fill:#cc900a;}.cls-10{fill:#ffc23b;}.cls-11{fill:#fff;opacity:0.55;}.cls-12{font-size:11.21px;fill:#f21100;font-family:MyriadPro-Regular, Myriad Pro;}.cls-13{letter-spacing:0em;}</style></defs><ellipse class="cls-1" cx="50.45" cy="52.31" rx="42.3" ry="40.94"/><ellipse class="cls-2" cx="49.55" cy="48.69" rx="42.3" ry="40.94"/><ellipse class="cls-3" cx="49.55" cy="48.69" rx="36.57" ry="35.39"/><path class="cls-4" d="M33.78,38.69c.65-2.57,3.75-2.3,4.39-3.22a5.26,5.26,0,0,0,.31-2.57l10.93-1.55h0L61.46,32.9A6.31,6.31,0,0,0,62,35.39c.64.92,3.49.73,4.14,3.3.49,2,1.38,30,.19,31.71-2.89,4.3-30.86,4.23-32.77,0C32.66,68.37,33.28,40.64,33.78,38.69Z"/><path class="cls-5" d="M35.44,48.83a2.09,2.09,0,0,1,.75-2,6,6,0,0,1,3.69-1.2c.63,0,1.42,0,1.66-.46a1.24,1.24,0,0,0,.08-.57,2.3,2.3,0,0,1,1.45-1.71,9.18,9.18,0,0,1,2.65-.72c1.3-.21,2.61-.35,3.93-.43h.19c1.32.08,2.63.22,3.93.43a9.09,9.09,0,0,1,2.65.72,2.3,2.3,0,0,1,1.45,1.71,1.24,1.24,0,0,0,.08.57c.24.43,1,.45,1.66.46a6,6,0,0,1,3.69,1.2,2.09,2.09,0,0,1,.75,2h0l-2.8,14.4H38.21L35.4,48.83Z"/><path class="cls-6" d="M39,62.35,36.48,49.24a.25.25,0,0,1,0-.12,2.13,2.13,0,0,1,.77-1.88,5.64,5.64,0,0,1,3.49-1.14c.49,0,1.18,0,1.35-.33a.68.68,0,0,0,0-.3v-.13a2.28,2.28,0,0,1,1.43-1.72A8.75,8.75,0,0,1,46.05,43a34.52,34.52,0,0,1,3.54-.39.11.11,0,0,1,.08,0h.15a.11.11,0,0,1,.08,0,33.91,33.91,0,0,1,3.54.39,8.75,8.75,0,0,1,2.47.67,2.28,2.28,0,0,1,1.43,1.72v.13a.56.56,0,0,0,0,.3c.17.3.85.32,1.34.33a5.64,5.64,0,0,1,3.49,1.14A2.13,2.13,0,0,1,63,49.12a.25.25,0,0,1,0,.12L60.45,62.35a.19.19,0,0,1-.19.15h-21A.19.19,0,0,1,39,62.35ZM62.61,49.28a.16.16,0,0,1,0-.12A1.71,1.71,0,0,0,62,47.52a5.2,5.2,0,0,0-3.24-1.05c-.62,0-1.39,0-1.67-.52a.93.93,0,0,1-.09-.48.45.45,0,0,0,0-.11A1.92,1.92,0,0,0,55.74,44a8.65,8.65,0,0,0-2.36-.64c-1.16-.18-2.36-.31-3.56-.38h-.15c-1.2.07-2.39.2-3.56.38a8.65,8.65,0,0,0-2.36.64,1.92,1.92,0,0,0-1.21,1.41.45.45,0,0,0,0,.11.93.93,0,0,1-.09.48c-.27.49-1,.51-1.67.52a5.2,5.2,0,0,0-3.24,1.05,1.71,1.71,0,0,0-.63,1.64.16.16,0,0,1,0,.12l2.51,12.85H60.1Z"/><path class="cls-7" d="M33.66,38.64c.68-2.51,3.94-2.25,4.61-3.15A4.84,4.84,0,0,0,38.6,33l11.5-1.52,2.86.38L44.32,33s0,.16,0,.4l17.22,0,.19,1.86-17.9.43c-.89.75-3.84.64-4.48,3-.53,1.92-1.18,29.83-.21,31.82.88,1.83,6.84,2.87,13.49,3.1-8.6.29-18.08-.75-19.21-3.1C32.48,68.47,33.14,40.56,33.66,38.64Z"/><path class="cls-8" d="M63.1,24.63V33H63c-.63.45-6.18.81-12.95.81S37.77,33.44,37.15,33h-.06V24.63Z"/><path class="cls-9" d="M40.94,24.63V33H41c.56.41,5.15.74,11,.8H50.09c-6.76,0-12.32-.36-12.94-.81h-.06V24.63Z"/><ellipse class="cls-10" cx="50.09" cy="24.55" rx="13" ry="0.99"/><path class="cls-11" d="M61.23,27.26l-.15,4a1,1,0,0,1,0,.34.73.73,0,0,1-.21.27,3.27,3.27,0,0,1-1,.6.78.78,0,0,1-1-.3,1.46,1.46,0,0,1-.09-.63A18.3,18.3,0,0,1,59,27.24c.17-.68.52-1.46,1.16-1.44A1.25,1.25,0,0,1,61.23,27.26Z"/><path class="cls-6" d="M40.23,59.55H59.41A.61.61,0,0,0,60,59h0a.61.61,0,0,0-.62-.59H40.23a.6.6,0,0,0-.61.59h0A.6.6,0,0,0,40.23,59.55Z"/><path class="cls-6" d="M39.83,58.05h20a.21.21,0,0,0,.21-.2h0a.21.21,0,0,0-.21-.2h-20a.2.2,0,0,0-.21.2h0A.2.2,0,0,0,39.83,58.05Z"/><path class="cls-11" d="M63.53,37.64a2.73,2.73,0,0,1,.86,1.86,17.06,17.06,0,0,1-.08,3.71,3,3,0,0,1-.22,1.07,1.11,1.11,0,0,1-.84.66,1.06,1.06,0,0,1-.94-.46,2.13,2.13,0,0,1-.34-1c-.09-.9.09-1.8.08-2.7a3,3,0,0,0-1-2.43c-.29-.23-.65-.37-.91-.62a.73.73,0,0,1-.18-1,.77.77,0,0,1,.33-.22c.69-.25.9.16,1.44.41A8.12,8.12,0,0,1,63.53,37.64Z"/><path class="cls-11" d="M64.45,62.06a45.4,45.4,0,0,0,0,4.81c.08,1.37.16,2.93-.85,3.89a4.24,4.24,0,0,1-2.53.91A2.45,2.45,0,0,1,60,71.61a.89.89,0,0,1-.64-.77,1.06,1.06,0,0,1,.74-.87,9.24,9.24,0,0,0,1.15-.41,2.18,2.18,0,0,0,1-1.41,7.24,7.24,0,0,0,.1-1.74,30.23,30.23,0,0,1,.42-5.2,1.46,1.46,0,0,1,.46-1C64.37,59.37,64.47,61.59,64.45,62.06Z"/><text class="cls-12" transform="translate(39.47 55.59) scale(1.03 1)">J<tspan class="cls-13" x="4.15" y="0">A</tspan><tspan x="10.96" y="0">M</tspan></text></svg>