<svg xmlns="http://www.w3.org/2000/svg" xmlns:xlink="http://www.w3.org/1999/xlink" viewBox="0 0 100 100"><defs><style>.cls-1{isolation:isolate;}.cls-18,.cls-2{opacity:0.5;}.cls-3{fill:#fff200;stroke:#494949;stroke-miterlimit:10;}.cls-4{fill:#a6c914;}.cls-5{fill:red;}.cls-6{fill:#ea0000;}.cls-20,.cls-7{mix-blend-mode:multiply;}.cls-8{fill:#d1d3d4;}.cls-9{fill:url(#linear-gradient);}.cls-10{fill:url(#linear-gradient-2);}.cls-11{fill:url(#linear-gradient-3);}.cls-12{fill:url(#linear-gradient-4);}.cls-13{fill:url(#linear-gradient-5);}.cls-14{fill:url(#linear-gradient-6);}.cls-15{fill:url(#linear-gradient-7);}.cls-16{fill:url(#linear-gradient-8);}.cls-17{fill:url(#linear-gradient-9);}.cls-18{fill:#4bc2e2;}.cls-19{fill:url(#linear-gradient-10);}.cls-20{fill:#e6e7e8;}</style><linearGradient id="linear-gradient" x1="59.96" y1="28.52" x2="78.2" y2="28.52" gradientTransform="translate(-19.54 8.05)" gradientUnits="userSpaceOnUse"><stop offset="0.5" stop-color="#e6e7e8"/><stop offset="0.5" stop-color="#d1d3d4"/></linearGradient><linearGradient id="linear-gradient-2" x1="64.1" y1="13.4" x2="74.06" y2="13.4" gradientTransform="translate(-19.54 8.05)" gradientUnits="userSpaceOnUse"><stop offset="0.5" stop-color="red"/><stop offset="0.5" stop-color="#ea0000"/></linearGradient><linearGradient id="linear-gradient-3" x1="42.57" y1="67.44" x2="56.52" y2="67.44" gradientUnits="userSpaceOnUse"><stop offset="0.5" stop-color="#fa0"/><stop offset="0.5" stop-color="#f7941e"/></linearGradient><linearGradient id="linear-gradient-4" x1="44.18" y1="65.38" x2="54.91" y2="65.38" gradientUnits="userSpaceOnUse"><stop offset="0.5" stop-color="#ffc100"/><stop offset="0.5" stop-color="#f7b100"/></linearGradient><linearGradient id="linear-gradient-5" x1="46.07" y1="63.47" x2="53.02" y2="63.47" gradientUnits="userSpaceOnUse"><stop offset="0.5" stop-color="#ffec00"/><stop offset="0.5" stop-color="#f7d500"/></linearGradient><linearGradient id="linear-gradient-6" x1="64.1" y1="47.77" x2="74.06" y2="47.77" gradientTransform="translate(-19.54 8.05)" gradientUnits="userSpaceOnUse"><stop offset="0.5" stop-color="#a7a9ac"/><stop offset="0.5" stop-color="#808285"/></linearGradient><linearGradient id="linear-gradient-7" x1="63.36" y1="46.58" x2="74.8" y2="46.58" gradientTransform="translate(-19.54 8.05)" gradientUnits="userSpaceOnUse"><stop offset="0.5" stop-color="#bcbec0"/><stop offset="0.5" stop-color="#a7a9ac"/></linearGradient><linearGradient id="linear-gradient-8" x1="-497.29" y1="898.53" x2="-491.21" y2="904.6" gradientTransform="translate(-238.47 -953.28) rotate(-45)" xlink:href="#linear-gradient-2"/><linearGradient id="linear-gradient-9" x1="65.48" y1="25.65" x2="72.68" y2="25.65" gradientTransform="translate(-19.54 8.05)" gradientUnits="userSpaceOnUse"><stop offset="0.5" stop-color="#00aeef"/><stop offset="0.5" stop-color="#27a0e1"/></linearGradient><linearGradient id="linear-gradient-10" x1="68.52" y1="44.46" x2="69.64" y2="44.46" xlink:href="#linear-gradient-2"/></defs><g class="cls-1"><g id="Layer_1" data-name="Layer 1"><ellipse class="cls-2" cx="50.45" cy="51.81" rx="42.3" ry="40.94"/><ellipse class="cls-3" cx="49.55" cy="48.19" rx="42.3" ry="40.94"/><ellipse class="cls-4" cx="49.55" cy="48.19" rx="36.57" ry="35.39"/><path class="cls-5" d="M44,54.22l-.82,1.22s-4,1.77-4,6H36.24s-3.82-11.17,2.62-16.72a11.8,11.8,0,0,1,1.57-1l.21-.12a33.64,33.64,0,0,0,3.18,10.33C43.87,54,43.92,54.12,44,54.22Z"/><path class="cls-6" d="M62.85,61.43H60c0-4.23-4-6-4-6h0l-.81-1.21.15-.31a33.64,33.64,0,0,0,3.18-10.33l.21.12h0a11.8,11.8,0,0,1,1.57,1C66.67,50.26,62.85,61.43,62.85,61.43Z"/><g class="cls-7"><path class="cls-8" d="M44,54.22l-.82,1.22A31,31,0,0,1,40.43,43.7l.21-.12a33.64,33.64,0,0,0,3.18,10.33C43.87,54,43.92,54.12,44,54.22Z"/><path class="cls-8" d="M58.66,43.7a31.2,31.2,0,0,1-2.73,11.73l-.81-1.21a3,3,0,0,1,.15-.31,33.64,33.64,0,0,0,3.18-10.33h0Z"/></g><path class="cls-9" d="M58.67,40.25a26,26,0,0,1-.22,3.33,33.64,33.64,0,0,1-3.18,10.33,2.59,2.59,0,0,0-.14.29c-.2.4-.41.79-.61,1.17h-10c-.2-.37-.4-.76-.6-1.15l-.15-.31a33.64,33.64,0,0,1-3.18-10.33,26,26,0,0,1-.22-3.33,32.5,32.5,0,0,1,4.15-15.12,40.18,40.18,0,0,1,5-7.34,39.89,39.89,0,0,1,5,7.34A32.62,32.62,0,0,1,58.67,40.25Z"/><path class="cls-10" d="M54.52,25.13h-10a40.18,40.18,0,0,1,5-7.34A39.89,39.89,0,0,1,54.52,25.13Z"/><path class="cls-11" d="M54.52,56.29h-10C40.43,64.16,44,72.68,44,72.68a13.45,13.45,0,0,1,2.23-3.35c1.46,4.65,3.29,9.26,3.29,9.26s1.84-4.62,3.3-9.27a13.61,13.61,0,0,1,2.23,3.36S58.67,64.16,54.52,56.29Z"/><path class="cls-12" d="M53.19,57.21h-7.3c-3,5.76-1.12,12-1.12,12s1.41-1.51,2.36-2.46c1.07,3.41,2.41,6.79,2.41,6.79s1.35-3.38,2.42-6.8c.94.95,2.36,2.47,2.36,2.47A17.41,17.41,0,0,0,53.19,57.21Z"/><path class="cls-13" d="M51.9,58.18H47.19A11.29,11.29,0,0,0,46.44,66a9.29,9.29,0,0,1,1.18-1.59,26.34,26.34,0,0,0,1.92,4.39,26.39,26.39,0,0,0,1.93-4.39A9.29,9.29,0,0,1,52.65,66,11.29,11.29,0,0,0,51.9,58.18Z"/><rect class="cls-14" x="44.57" y="55.37" width="9.96" height="0.92"/><path class="cls-15" d="M55.27,53.91c-.25.5-.5,1-.75,1.46h-10c-.26-.47-.51-1-.75-1.46Z"/><ellipse class="cls-16" cx="49.54" cy="33.7" rx="4.29" ry="4.16"/><path class="cls-17" d="M53.14,33.7a3.45,3.45,0,0,1-1.58,2.89,3.69,3.69,0,0,1-1.39.55,4.23,4.23,0,0,1-.63,0,3.55,3.55,0,0,1-3.6-3.49,3.46,3.46,0,0,1,1.71-3,3.76,3.76,0,0,1,1.41-.49,3.87,3.87,0,0,1,.48,0A3.54,3.54,0,0,1,53.14,33.7Z"/><path class="cls-18" d="M51.56,36.59a3.69,3.69,0,0,1-1.39.55l-2.52-6.4a3.76,3.76,0,0,1,1.41-.49Z"/><rect class="cls-19" x="48.99" y="43.58" width="1.11" height="17.86"/><polygon class="cls-20" points="50.1 43.58 55.27 53.91 54.52 55.37 54.52 56.29 50.1 56.29 50.1 43.58"/></g></g></svg>