<svg id="Layer_1" data-name="Layer 1" xmlns="http://www.w3.org/2000/svg" viewBox="0 0 100 100"><defs><style>.cls-1{opacity:0.5;}.cls-2{fill:#fff200;stroke:#494949;stroke-miterlimit:10;}.cls-3{fill:#a6c914;}.cls-4{fill:#323232;}</style></defs><ellipse class="cls-1" cx="50.45" cy="52.31" rx="42.3" ry="40.94"/><ellipse class="cls-2" cx="49.55" cy="48.69" rx="42.3" ry="40.94"/><ellipse class="cls-3" cx="49.55" cy="48.69" rx="36.57" ry="35.39"/><path class="cls-4" d="M54.11,59.25c-3.94-3.42-2.85-8.81-3.19-12.8-.41-4.69-.86-9.38-1.22-14.07-.16-2.12-.32-4.25-.38-6.38a7.73,7.73,0,0,1,.15-3.21,1.4,1.4,0,0,1,1-.94,2.43,2.43,0,0,1,1.13.13c4.92,1.4,8.08,4.57,10.7,7.66a94.69,94.69,0,0,1,8.44,11.49c1.86,3,3.53,6.07,3.89,9.28a10.33,10.33,0,0,1-7.3,10.88c-4,1.15-8.58.89-11.85-1A10,10,0,0,1,54.11,59.25Z"/><path class="cls-4" d="M46.14,60c3.41-3.66,1.52-9,1.28-12.94-.3-4.7-.55-9.39-.89-14.09-.15-2.12-.31-4.25-.57-6.37a7.85,7.85,0,0,0-.63-3.18,1.52,1.52,0,0,0-1.14-.87,2.42,2.42,0,0,0-1.1.19c-4.7,1.72-7.37,5.08-9.52,8.31a87.36,87.36,0,0,0-6.69,12c-1.41,3.09-2.61,6.26-2.48,9.48a10.87,10.87,0,0,0,5.18,8.79,11.15,11.15,0,0,0,3.7,1.57c4.11.89,8.67.33,11.64-1.81A8.64,8.64,0,0,0,46.14,60Z"/><path class="cls-4" d="M56.74,72.32a6,6,0,0,1,2-4.87c1.75-1.53,4.22-2,6.52-2.49a58.67,58.67,0,0,0,8.44-2.56.46.46,0,0,1,.6.63,29.26,29.26,0,0,1-7.7,9,12.87,12.87,0,0,1-4.15,2.32A6.28,6.28,0,0,1,57.8,74a1.74,1.74,0,0,1-1.06-1.7Z"/><path class="cls-4" d="M45.9,72.84a6.08,6.08,0,0,0-2.57-4.64c-1.92-1.34-4.41-1.52-6.76-1.79a60.73,60.73,0,0,1-8.68-1.67.46.46,0,0,0-.53.69A29.94,29.94,0,0,0,36,73.54a13.25,13.25,0,0,0,4.39,1.87A6.27,6.27,0,0,0,45,74.63a2.12,2.12,0,0,0,.65-.65A2,2,0,0,0,45.9,72.84Z"/></svg>