<svg id="Layer_1" data-name="Layer 1" xmlns="http://www.w3.org/2000/svg" viewBox="0 0 100 100"><defs><style>.cls-1{opacity:0.5;}.cls-2{fill:#fff200;stroke:#494949;stroke-miterlimit:10;}.cls-3{fill:#a6c914;}.cls-4{fill:#d85819;}.cls-5{fill:#fff;}</style></defs><g id="Ball_Icon" data-name="Ball Icon"><ellipse class="cls-1" cx="50.45" cy="51.83" rx="42.3" ry="40.92"/><ellipse class="cls-2" cx="49.55" cy="48.17" rx="42.3" ry="40.92"/><ellipse class="cls-3" cx="49.55" cy="48.17" rx="36.57" ry="35.38"/><ellipse class="cls-4" cx="49.55" cy="48.12" rx="26.18" ry="25.33"/><path class="cls-5" d="M67.61,29.9c-.55,1.25-2.4,5.08-7.38,11.26l-.56.73c-.07.08-.13.17-.19.25l-.34.45-.2.28-.29.42c-.07.08-.13.19-.2.29s-.17.25-.25.38a1.41,1.41,0,0,0-.18.29,3.75,3.75,0,0,0-.24.36c-.05.1-.11.19-.17.29l-.21.35-.16.29c-.07.11-.12.25-.18.34a2.37,2.37,0,0,0-.15.28,3.18,3.18,0,0,0-.16.32c0,.1-.08.19-.13.28l-.15.31c0,.09-.07.17-.12.27l-.12.3-.11.26c0,.09-.08.21-.11.29s-.06.14-.1.24-.08.22-.1.29-.06.16-.08.24l-.09.28a1.87,1.87,0,0,0-.07.22,1.72,1.72,0,0,0-.08.28c0,.08,0,.15-.06.21l-.07.27a1.33,1.33,0,0,1,0,.19c0,.09,0,.18-.05.27l0,.17c0,.1,0,.19,0,.27a.57.57,0,0,1,0,.15c0,.13,0,.27,0,.39h0a2.84,2.84,0,0,0-.05.38.38.38,0,0,0,0,.1,2.13,2.13,0,0,0,0,.25.45.45,0,0,0,0,.12c0,.07,0,.13,0,.2v.84a.33.33,0,0,0,0,.1.57.57,0,0,1,0,.13v.07c-1.45.07-3,.1-4.69.11V22.91H49.13V54c-1.68,0-3.23,0-4.7-.11v-.07a.45.45,0,0,1,0-.12.34.34,0,0,0,0-.1v-.85c0-.07,0-.13,0-.2a.45.45,0,0,0,0-.12c0-.08,0-.17,0-.25a.2.2,0,0,0,0-.1c0-.12,0-.24,0-.38h0c0-.12,0-.26-.06-.39s0-.09,0-.15,0-.17,0-.27l0-.17a2.61,2.61,0,0,1-.06-.27c0-.07,0-.12,0-.19L44,50c0-.06,0-.13,0-.21s-.05-.18-.09-.28l-.06-.22c0-.09-.06-.19-.1-.28l-.08-.24c0-.07-.07-.19-.1-.29l-.09-.24c0-.08-.07-.2-.12-.3l-.1-.26c-.05-.1-.08-.2-.13-.3s-.08-.18-.12-.27-.09-.21-.13-.31a1.75,1.75,0,0,1-.13-.28c0-.1-.1-.21-.16-.33a2.18,2.18,0,0,0-.15-.27c-.06-.09-.12-.23-.19-.34L42,45.24c-.07-.11-.13-.23-.2-.35s-.11-.19-.17-.29l-.23-.37a2.82,2.82,0,0,0-.18-.29L41,43.56c-.07-.1-.12-.2-.19-.29s-.19-.26-.29-.41l-.2-.28L40,42.12l-.19-.24-.57-.73c-5.29-6.65-7.06-10.57-7.44-11.52l-.93.87c.66,1.51,2.6,5.32,7.45,11.33s5,10.41,4.92,12c-16.76-.92-19.65-5.34-19.68-5.4l-.17.09c0,.5,0,1,.06,1.49,1.83,1.53,6.84,4.27,19.68,5-.06,2-.94,10.79-11.16,11.77L32,67c.3.28.62.54.94.79C43.13,66.32,44.2,57.21,44.3,55c1.5.07,3.11.1,4.82.11V73.54h.42l.79,0V55.13c1.71,0,3.31,0,4.81-.11.11,2.17,1.15,11.12,11.09,12.72.41-.33.8-.67,1.19-1C57.28,65.7,56.4,57,56.33,55c12-.66,17.21-3.12,19.31-4.69,0-.54.07-1.08.08-1.63-.84.91-4.92,4.36-19.49,5.17-.12-1.56.1-6,4.91-12a55.3,55.3,0,0,0,7.34-11.08"/></g></svg>