<svg id="Layer_1" data-name="Layer 1" xmlns="http://www.w3.org/2000/svg" xmlns:xlink="http://www.w3.org/1999/xlink" viewBox="0 0 100 100"><defs><style>.cls-1{fill:none;}.cls-2{clip-path:url(#clip-path);}.cls-3{fill:#f90d1e;}.cls-4{fill:#fc732d;}.cls-5{fill:#ffda00;}.cls-6{fill:#90d812;}.cls-7{fill:#28b3dd;}.cls-8{fill:#2f5bc9;}.cls-9{fill:#ac29b7;}.cls-10{opacity:0.5;}.cls-11{fill:#fff200;stroke:#494949;stroke-miterlimit:10;}.cls-12{fill:#a6c914;}.cls-13{fill:#c6681a;}.cls-14{fill:#8e470c;}</style><clipPath id="clip-path"><ellipse class="cls-1" cx="-70.45" cy="48.19" rx="36.57" ry="35.39"/></clipPath></defs><g class="cls-2"><path class="cls-3" d="M-134.51,179.66a112.89,112.89,0,0,1-12.37-44.72,112.73,112.73,0,0,1,6.12-44.32,115.17,115.17,0,0,1,22.83-38.86,119.21,119.21,0,0,1,37.8-28.37,122.75,122.75,0,0,1,46.21-12,123.74,123.74,0,0,1,45.79,5.92A121.05,121.05,0,0,1,52,39.44,116.53,116.53,0,0,1,81.34,76h0l9.76-4.69C58.85,8.43-20-17.27-85,13.94s-91.55,107.5-59.31,170.41l9.77-4.69Z"/><path class="cls-4" d="M52,39.44a121.05,121.05,0,0,0-40.15-22.1,123.74,123.74,0,0,0-45.79-5.92,122.75,122.75,0,0,0-46.21,12,119.21,119.21,0,0,0-37.8,28.37,115.17,115.17,0,0,0-22.83,38.86,112.73,112.73,0,0,0-6.12,44.32,112.89,112.89,0,0,0,12.37,44.72h0l9.76-4.69h0A102.63,102.63,0,0,1-136,134.3,102.75,102.75,0,0,1-130.44,94a105,105,0,0,1,20.77-35.35A108.43,108.43,0,0,1-75.29,32.83,111.92,111.92,0,0,1-33.26,22,112.57,112.57,0,0,1,8.39,27.33a110.54,110.54,0,0,1,36.53,20.1A105.89,105.89,0,0,1,71.57,80.71h0L81.34,76h0A116.53,116.53,0,0,0,52,39.44Z"/><path class="cls-5" d="M-115,170.29a92.41,92.41,0,0,1-10.13-36.63,92.25,92.25,0,0,1,5-36.3,94.65,94.65,0,0,1,18.7-31.85,97.75,97.75,0,0,1,31-23.23,100.63,100.63,0,0,1,37.84-9.8A101.19,101.19,0,0,1,4.91,37.33a99.15,99.15,0,0,1,32.9,18.1,95.18,95.18,0,0,1,24,30h0l9.76-4.69h0A105.89,105.89,0,0,0,44.92,47.43,110.54,110.54,0,0,0,8.39,27.33,112.57,112.57,0,0,0-33.26,22a111.92,111.92,0,0,0-42,10.88,108.43,108.43,0,0,0-34.38,25.81A105,105,0,0,0-130.44,94,102.75,102.75,0,0,0-136,134.3,102.63,102.63,0,0,0-124.75,175h0l9.76-4.68Z"/><path class="cls-6" d="M37.81,55.43a99.15,99.15,0,0,0-32.9-18.1A101.19,101.19,0,0,0-32.6,32.48a100.63,100.63,0,0,0-37.84,9.8,97.75,97.75,0,0,0-31,23.23,94.65,94.65,0,0,0-18.7,31.85,92.25,92.25,0,0,0-5,36.3A92.41,92.41,0,0,0-115,170.29h0l9.76-4.69h0a82.23,82.23,0,0,1-9-32.57,82.06,82.06,0,0,1,4.46-32.31A83.89,83.89,0,0,1-93.14,72.39,86.9,86.9,0,0,1-65.6,51.73,89.45,89.45,0,0,1-31.95,43,90.47,90.47,0,0,1,1.43,47.32,88.38,88.38,0,0,1,30.71,63.43,84.78,84.78,0,0,1,52.05,90.08h0l9.76-4.68h0A95.18,95.18,0,0,0,37.81,55.43Z"/><path class="cls-7" d="M-95.47,160.91a72.1,72.1,0,0,1-7.9-28.52,72.09,72.09,0,0,1,3.91-28.3A73.72,73.72,0,0,1-84.88,79.26,76.13,76.13,0,0,1-60.76,61.18a78.3,78.3,0,0,1,29.47-7.65A79.09,79.09,0,0,1-2,57.32,77.27,77.27,0,0,1,23.6,71.43,74.3,74.3,0,0,1,42.29,94.77h0l9.76-4.69h0A84.78,84.78,0,0,0,30.71,63.43,88.38,88.38,0,0,0,1.43,47.32,90.47,90.47,0,0,0-31.95,43,89.45,89.45,0,0,0-65.6,51.73,86.9,86.9,0,0,0-93.14,72.39a83.89,83.89,0,0,0-16.64,28.33A82.06,82.06,0,0,0-114.24,133a82.23,82.23,0,0,0,9,32.57h0l9.76-4.69Z"/><path class="cls-8" d="M23.6,71.43A77.27,77.27,0,0,0-2,57.32a79.09,79.09,0,0,0-29.24-3.79,78.3,78.3,0,0,0-29.47,7.65A76.13,76.13,0,0,0-84.88,79.26a73.72,73.72,0,0,0-14.58,24.83,72.09,72.09,0,0,0-3.91,28.3,72.1,72.1,0,0,0,7.9,28.52h0l9.76-4.68h0a61.89,61.89,0,0,1-6.78-24.48,62,62,0,0,1,3.36-24.3A63.43,63.43,0,0,1-76.62,86.14a65.29,65.29,0,0,1,20.7-15.51,67.11,67.11,0,0,1,25.29-6.57,68,68,0,0,1,25.1,3.25,66.56,66.56,0,0,1,22,12.11,64,64,0,0,1,16,20h0l9.76-4.69h0A74.3,74.3,0,0,0,23.6,71.43Z"/><path class="cls-9" d="M-75.94,151.54a51.59,51.59,0,0,1-5.67-20.42,51.58,51.58,0,0,1,2.81-20.3A52.72,52.72,0,0,1-68.35,93a54.4,54.4,0,0,1,17.28-13A56.18,56.18,0,0,1-30,74.59,56.65,56.65,0,0,1-9,77.31,55.41,55.41,0,0,1,9.39,87.42a53.14,53.14,0,0,1,13.37,16.72h0l9.77-4.68h0a64,64,0,0,0-16-20,66.56,66.56,0,0,0-22-12.11,68,68,0,0,0-25.1-3.25,67.11,67.11,0,0,0-25.29,6.57,65.29,65.29,0,0,0-20.7,15.51,63.43,63.43,0,0,0-12.51,21.31,62,62,0,0,0-3.36,24.3,61.89,61.89,0,0,0,6.78,24.48h0l9.77-4.69Z"/></g><ellipse class="cls-10" cx="50.45" cy="51.81" rx="42.3" ry="40.94"/><ellipse class="cls-11" cx="49.55" cy="48.19" rx="42.3" ry="40.94"/><ellipse class="cls-12" cx="49.55" cy="48.19" rx="36.57" ry="35.39"/><path class="cls-13" d="M60.39,56.22a1.93,1.93,0,0,0,.24-.83,2.59,2.59,0,0,0-.08-.66c-.33.23-.68.45-1.13.72s-1,.62-1.41.94a4.23,4.23,0,0,0-.95.94,2.23,2.23,0,0,0-.34.8.86.86,0,0,0,0,.44,5,5,0,0,1,.68-.46c.3-.18.71-.4,1.14-.61s.88-.42,1.21-.62A1.63,1.63,0,0,0,60.39,56.22Z"/><path class="cls-13" d="M52,66.57l.44-.25c0-.15,0-.3,0-.45s0-.3.07-.44.08-.25.12-.37l-.28-.28-.48-.12a2.1,2.1,0,0,1-.58-.24,2.44,2.44,0,0,1-.62-.5,3.09,3.09,0,0,1-.45-.66c-.11-.24-.18-.44-.26-.65a1,1,0,0,1-.27-.1,1.69,1.69,0,0,1-.29-.17,1,1,0,0,1-.21-.17c.1.14.2.26.29.4s.18.26.27.39a2.94,2.94,0,0,1,.2.44,2.83,2.83,0,0,1,.13.5,3.3,3.3,0,0,1,.21.3,4.68,4.68,0,0,1,.28.69,5.32,5.32,0,0,1,.14.78,1.37,1.37,0,0,1,.28.27,5.85,5.85,0,0,1,.34.48c.09.17.14.31.2.44Z"/><path class="cls-13" d="M52.1,67.5a1.84,1.84,0,0,0,.68.39,3.57,3.57,0,0,0,1.16.08,3.89,3.89,0,0,0,1.24-.27A3.3,3.3,0,0,0,56.3,67a2.58,2.58,0,0,0,.58-.9,4,4,0,0,0,.17-.71c-.16.06-.31.14-.6.24L55.33,66c-.44.13-.91.25-1.38.43a6,6,0,0,0-1.19.59A4.63,4.63,0,0,0,52.1,67.5Z"/><path class="cls-13" d="M62.35,55.78c.28-.28.66-.58,1-.9a9,9,0,0,0,1.09-1,4.27,4.27,0,0,0,.65-1.06,2.13,2.13,0,0,0,.18-.81,3.18,3.18,0,0,0-.07-.88,1.79,1.79,0,0,0-.34-.59,12.48,12.48,0,0,1-1,1.3c-.39.47-.86.95-1.25,1.37a6.47,6.47,0,0,0-.88,1.21,3.69,3.69,0,0,0-.46,1.19A2.48,2.48,0,0,0,61.51,57a3.89,3.89,0,0,1,.23-.44A4.67,4.67,0,0,1,62.35,55.78Z"/><path class="cls-13" d="M60.43,57.67a19.3,19.3,0,0,0-1.86.61,10.71,10.71,0,0,0-1.59.78,5.41,5.41,0,0,0-1.08.85,2.1,2.1,0,0,0-.45.76,2,2,0,0,0-.1.54c.38-.16.78-.32,1.18-.46l1.28-.39a7,7,0,0,0,1.25-.51,2.65,2.65,0,0,0,.84-.72,2.31,2.31,0,0,0,.37-.78A5.07,5.07,0,0,0,60.43,57.67Z"/><path class="cls-13" d="M61.26,59.9c0-.1,0-.19-.07-.28a1.92,1.92,0,0,1,0-.32c0-.08,0-.16,0-.23-.07.09-.12.18-.22.29a2.93,2.93,0,0,1-.35.36c-.13.12-.25.21-.37.33l0,.17,0,.23a2.27,2.27,0,0,0-.06.25l.45-.3c.14-.09.3-.18.41-.26S61.16,60,61.26,59.9Z"/><path class="cls-13" d="M60.67,61.77c.08-.17.12-.39.2-.63a5.06,5.06,0,0,1,.29-.71c-.36.22-.7.44-.94.62a2.1,2.1,0,0,0-.48.42c-.12.14-.23.31-.33.43a2.63,2.63,0,0,1-.25.29c0,.12,0,.26,0,.39l0,.34c.2-.14.41-.3.62-.42s.46-.23.62-.34A.76.76,0,0,0,60.67,61.77Z"/><path class="cls-13" d="M60.54,63.88a2.15,2.15,0,0,0,.25-.8,3.4,3.4,0,0,0,0-.48c-.36.17-.71.34-1,.52a5,5,0,0,0-.81.65,4.14,4.14,0,0,0-.71.94,10.82,10.82,0,0,0-.59,1.23c.28-.18.56-.36.92-.57s.79-.46,1.15-.7A2.71,2.71,0,0,0,60.54,63.88Z"/><path class="cls-13" d="M40.68,56.35a3.46,3.46,0,0,0-.75,1.18,2.72,2.72,0,0,0-.14,1.17,3.91,3.91,0,0,0,.24.87,6.44,6.44,0,0,1,.5-.63c.23-.25.57-.56.9-.86a8.37,8.37,0,0,0,.84-.85,3.24,3.24,0,0,0,.47-.9,3.82,3.82,0,0,0,.21-.92,4.49,4.49,0,0,0,0-.82c-.35.23-.7.47-1.09.75A7,7,0,0,0,40.68,56.35Z"/><path class="cls-13" d="M50.14,66.53a3,3,0,0,0,0-.94,5.49,5.49,0,0,0-.22-.91,3,3,0,0,0-.22.36,3.83,3.83,0,0,0-.31.64,2.24,2.24,0,0,0-.19.76,2.66,2.66,0,0,0,.06.79,5.69,5.69,0,0,0,.18.77c.11-.2.22-.39.35-.64A3.5,3.5,0,0,0,50.14,66.53Z"/><path class="cls-13" d="M40,61a3,3,0,0,0,0,.9c.05.28.11.54.17.79l.15-.27a3.38,3.38,0,0,1,.46-.57c.28-.27.68-.62,1.06-1a7,7,0,0,0,.93-1,2,2,0,0,0,.33-.92,3.91,3.91,0,0,0-.06-.83c0-.3,0-.63,0-1l-.28.36a4.28,4.28,0,0,1-.58.63c-.28.25-.64.52-1,.83a4.38,4.38,0,0,0-.78,1A3.15,3.15,0,0,0,40,61Z"/><path class="cls-13" d="M44.47,63.33a2.91,2.91,0,0,0,.16.54,7.15,7.15,0,0,1,.61-.85,9.25,9.25,0,0,1,.9-.86,9.69,9.69,0,0,0,.86-.81,3,3,0,0,0,.66-.86,2.68,2.68,0,0,0,.29-.9,3.56,3.56,0,0,0,0-.74c-.23.21-.45.4-.76.64s-.69.49-1,.73a7.56,7.56,0,0,0-.86.74,2.81,2.81,0,0,0-.53.7,2.93,2.93,0,0,0-.28.85A2.81,2.81,0,0,0,44.47,63.33Z"/><path class="cls-13" d="M45.29,68.87a2.13,2.13,0,0,0,.33.76,2.93,2.93,0,0,0,.37.44,5.4,5.4,0,0,1,.4-.72,7.45,7.45,0,0,1,.7-.9,11.31,11.31,0,0,0,.87-1,2.82,2.82,0,0,0,.48-1,3.23,3.23,0,0,0,.12-1,2.55,2.55,0,0,0-.18-.79c-.13.12-.27.24-.51.43s-.62.44-1,.75a9.59,9.59,0,0,0-1,1,3.53,3.53,0,0,0-.54,1A2.56,2.56,0,0,0,45.29,68.87Z"/><path class="cls-13" d="M44.89,65.29a2.86,2.86,0,0,0,0,.92,3.5,3.5,0,0,0,.2.74,3.44,3.44,0,0,1,.3-.51,5.08,5.08,0,0,1,.75-.85c.39-.34.92-.77,1.28-1.16a2.47,2.47,0,0,0,.65-1,2.25,2.25,0,0,0,.12-1,3.08,3.08,0,0,0-.23-.88,4.32,4.32,0,0,1-.42.51c-.2.19-.44.39-.73.62a8.16,8.16,0,0,0-.89.73,3.58,3.58,0,0,0-.68.93A3.26,3.26,0,0,0,44.89,65.29Z"/><path class="cls-13" d="M48.86,64c0,.13.09.25.12.38a1.87,1.87,0,0,1,.09.39c0,.16,0,.35,0,.54a3,3,0,0,0,.21-.41,2.71,2.71,0,0,0,.23-.76,1.61,1.61,0,0,0,0-.71,1.54,1.54,0,0,0-.24-.46,2.46,2.46,0,0,1-.09.34c0,.12-.09.25-.14.37Z"/><path class="cls-13" d="M44,61.67a5.14,5.14,0,0,1,.56-.77,7.77,7.77,0,0,1,.91-.83c.37-.3.82-.63,1.21-1a6.78,6.78,0,0,0,1-1.08,3.55,3.55,0,0,0,.49-1,2.56,2.56,0,0,0,.11-.87,2.9,2.9,0,0,0-.08-.58,6.24,6.24,0,0,1-.8.9c-.36.31-.85.64-1.31,1a9.14,9.14,0,0,0-1.2,1,2.78,2.78,0,0,0-.65,1A5,5,0,0,0,44,60.65,6.94,6.94,0,0,0,44,61.67Z"/><path class="cls-13" d="M41.82,42.56a3.63,3.63,0,0,0-.21.88c0,.27,0,.51-.07.76.31-.22.61-.45,1-.68s.84-.49,1.24-.72a4.19,4.19,0,0,0,1-.7,1.57,1.57,0,0,0,.33-.72c.06-.24.13-.47.2-.68a4.4,4.4,0,0,1,.25-.58c-.51.28-1,.58-1.54.85a12.77,12.77,0,0,0-1.42.78A2.05,2.05,0,0,0,41.82,42.56Z"/><path class="cls-13" d="M44.65,35.93a5.53,5.53,0,0,0-.8,1.15,10.27,10.27,0,0,0-.51,1.2,10.19,10.19,0,0,1,1-.68c.43-.24,1-.51,1.5-.77s1-.52,1.32-.74a2.51,2.51,0,0,0,.75-.65,1.87,1.87,0,0,0,.21-.67l.19-.65-1.16.41a11.22,11.22,0,0,0-1.39.56A4.32,4.32,0,0,0,44.65,35.93Z"/><path class="cls-13" d="M43,39.35a2.5,2.5,0,0,0-.48.83,3.28,3.28,0,0,0-.12.94l1.19-.53c.41-.19.84-.37,1.21-.58a4.1,4.1,0,0,0,1-.74,4.38,4.38,0,0,0,.68-.92c.17-.34.3-.69.41-.94a4,4,0,0,1,.32-.57c-.58.28-1.16.57-1.73.88a17.36,17.36,0,0,0-1.55.91A4.09,4.09,0,0,0,43,39.35Z"/><path class="cls-13" d="M47.2,32.33a3.85,3.85,0,0,0-1.2,1,10.68,10.68,0,0,0-.86,1.32c.28-.14.56-.3.93-.46s.89-.34,1.36-.5a8.3,8.3,0,0,0,1.25-.55,2.54,2.54,0,0,0,.77-.71,7.36,7.36,0,0,0,.45-.74,3.21,3.21,0,0,1,.38-.46l-1.42.43A10.25,10.25,0,0,0,47.2,32.33Z"/><path class="cls-13" d="M40.09,54.85a4.29,4.29,0,0,0-.26.93,2.38,2.38,0,0,0,0,.57,3.51,3.51,0,0,1,.43-.5,7.45,7.45,0,0,1,.83-.62,11.15,11.15,0,0,0,1.07-.67,2.88,2.88,0,0,0,.8-.89,2.73,2.73,0,0,0,.27-1c0-.3.06-.6.1-.9-.45.3-.89.6-1.32.94a10.18,10.18,0,0,0-1.17,1A3.87,3.87,0,0,0,40.09,54.85Z"/><path class="cls-13" d="M41.28,45.43a3.69,3.69,0,0,0-.26.91c0,.28-.07.52-.09.74a5.86,5.86,0,0,1,.69-.4c.31-.19.75-.42,1.16-.68a4.71,4.71,0,0,0,1-.78,1.87,1.87,0,0,0,.48-.74,4.35,4.35,0,0,0,.22-.76c.06-.26.14-.52.2-.79l-1.27.73a13.56,13.56,0,0,0-1.43.9A2.27,2.27,0,0,0,41.28,45.43Z"/><path class="cls-13" d="M40.34,52.18a5,5,0,0,0,0,1.1,5.09,5.09,0,0,1,.81-.72c.36-.29.88-.64,1.29-1a3.11,3.11,0,0,0,1-.88,2.89,2.89,0,0,0,.35-1.1,6.4,6.4,0,0,0,0-1c-.34.19-.67.37-1.07.63a12.18,12.18,0,0,0-1.24.83,3,3,0,0,0-.86.9A2.57,2.57,0,0,0,40.34,52.18Z"/><path class="cls-13" d="M41,47.78a2,2,0,0,0-.45,1,8.68,8.68,0,0,0,0,1.36,5.62,5.62,0,0,1,.6-.58c.27-.19.6-.41.93-.6a10,10,0,0,0,.9-.59,3.63,3.63,0,0,0,.74-.72,2.52,2.52,0,0,0,.37-.76,6.1,6.1,0,0,0,.12-.68c0-.2,0-.42.05-.63-.36.26-.71.54-1.09.78s-.77.46-1.14.68A4.51,4.51,0,0,0,41,47.78Z"/><path class="cls-13" d="M50.33,29.53a7.4,7.4,0,0,0-2,1.28l-.66.57a8.18,8.18,0,0,1,.85-.29l1.36-.33A7.16,7.16,0,0,0,51,30.43a4.08,4.08,0,0,0,.75-.42c.23-.15.43-.32.65-.45a5.45,5.45,0,0,1,.64-.32,14.6,14.6,0,0,0-1.48,0A4.52,4.52,0,0,0,50.33,29.53Z"/><path class="cls-13" d="M63.86,43.17a2.49,2.49,0,0,0-.63-1.57,2.14,2.14,0,0,1-.16.5,6.43,6.43,0,0,1-.45.78c-.21.29-.46.59-.73,1a8.11,8.11,0,0,0-.79,1.35,4.75,4.75,0,0,0-.38,1.39,3.8,3.8,0,0,0,0,1.09,1.68,1.68,0,0,0,.21.56,4.57,4.57,0,0,1,.44-.84,7.91,7.91,0,0,1,.8-1c.3-.34.58-.62.84-1a5,5,0,0,0,.64-1.14A2.82,2.82,0,0,0,63.86,43.17Z"/><path class="cls-13" d="M64.39,45.22a2.22,2.22,0,0,0-.19-.65,5.37,5.37,0,0,1-.21.56,3,3,0,0,1-.46.64c-.2.24-.51.55-.82.9a9.51,9.51,0,0,0-.89,1.12A3.83,3.83,0,0,0,61.26,49a3.43,3.43,0,0,0-.09,1.08c0,.3,0,.56,0,.81a4.76,4.76,0,0,1,.34-.62,4.4,4.4,0,0,1,.53-.69c.2-.22.45-.43.74-.72a7,7,0,0,0,1-1.1,3.74,3.74,0,0,0,.55-1.31A4.53,4.53,0,0,0,64.39,45.22Z"/><path class="cls-13" d="M57.79,32.92c-.17-.15-.35-.3-.52-.48a4.45,4.45,0,0,1-.53-.69c-.16-.27-.3-.56-.46-.83a3.52,3.52,0,0,0-.54-.69,2.33,2.33,0,0,0-.71-.45,2.5,2.5,0,0,0-1-.2,2,2,0,0,0-1,.28,5.38,5.38,0,0,0-.82.56,4,4,0,0,1,.76.22,5.57,5.57,0,0,1,1.07.65c.37.27.68.6,1,.87a3.38,3.38,0,0,0,1.08.61,2.72,2.72,0,0,0,.94.16C57.39,32.94,57.59,32.92,57.79,32.92Z"/><path class="cls-13" d="M62.8,40.08a3.1,3.1,0,0,0-.29-1.16,3.6,3.6,0,0,0-.67-.87,5.44,5.44,0,0,1-.31.86c-.18.35-.45.82-.71,1.34a10.15,10.15,0,0,0-.62,1.6A4.84,4.84,0,0,0,60,43.29a3.49,3.49,0,0,0,.19,1.13,1.77,1.77,0,0,0,.42.55,5,5,0,0,1,.27-.58,7.39,7.39,0,0,1,.49-.69,12,12,0,0,0,.77-1.07,4.86,4.86,0,0,0,.54-1.24A4.19,4.19,0,0,0,62.8,40.08Z"/><path class="cls-13" d="M61.31,36.1a3,3,0,0,0-.55-1.19,3.46,3.46,0,0,0-.81-.69,3.06,3.06,0,0,1,.11.91,4.52,4.52,0,0,1-.25,1.27c-.15.45-.36.87-.54,1.28a4.23,4.23,0,0,0-.36,1.21A5.66,5.66,0,0,0,59,40.26a4.9,4.9,0,0,0,.27,1,5.15,5.15,0,0,0,.27.64,6.76,6.76,0,0,1,.22-.79,11,11,0,0,1,.46-1c.21-.42.5-.93.7-1.38a5.39,5.39,0,0,0,.39-1.24A4,4,0,0,0,61.31,36.1Z"/><path class="cls-13" d="M55.4,33c-.14-.12-.29-.23-.49-.41s-.45-.41-.72-.63a4.58,4.58,0,0,0-.84-.6,3,3,0,0,0-1-.28,1.67,1.67,0,0,0-.87.07,2.21,2.21,0,0,0-.76.47,2,2,0,0,0-.46.67c-.11.21-.18.4-.27.6a4.31,4.31,0,0,1,.85-.1,8.09,8.09,0,0,1,1.12.12l1.28.26c.47.08,1,.15,1.4.18a10,10,0,0,0,1.23,0C55.73,33.19,55.55,33.07,55.4,33Z"/><path class="cls-13" d="M58.36,33.68a2.9,2.9,0,0,0-.68-.13,2.41,2.41,0,0,1,.18.48,2.81,2.81,0,0,1,0,.73c0,.27-.13.55-.21.9a3.93,3.93,0,0,0-.13,1.16,2.8,2.8,0,0,0,.36,1.11,3.17,3.17,0,0,0,.51.71,4.14,4.14,0,0,1,.16-.63c.08-.27.21-.63.35-1a12.22,12.22,0,0,0,.41-1.2,2.16,2.16,0,0,0,.06-1,1.32,1.32,0,0,0-.35-.72A1.81,1.81,0,0,0,58.36,33.68Z"/><path class="cls-13" d="M65,49.07a2,2,0,0,0,0-.67,1.81,1.81,0,0,0-.12-.46c-.06-.14-.13-.26-.19-.4a7.34,7.34,0,0,1-.49.79,10,10,0,0,1-.68.78l-.7.71a6.59,6.59,0,0,0-.66.74,3.55,3.55,0,0,0-.51.89,3.24,3.24,0,0,0-.27,1.07,13.24,13.24,0,0,0,0,1.43,3.05,3.05,0,0,1,.28-.51,5.67,5.67,0,0,1,.64-.82c.28-.3.63-.61,1-1.08a14.74,14.74,0,0,0,1.18-1.49A2.7,2.7,0,0,0,65,49.07Z"/><path class="cls-13" d="M59.24,45.67a1,1,0,0,0,.07.47,1.18,1.18,0,0,0,.2.31c.12-.12.23-.23.36-.34s.26-.23.39-.35a1.66,1.66,0,0,1-.28-.3,2.7,2.7,0,0,1-.24-.44.69.69,0,0,1-.07-.34,3.5,3.5,0,0,0-.29.49A1.4,1.4,0,0,0,59.24,45.67Z"/><path class="cls-13" d="M59,44a2,2,0,0,0,.13.51l.41-.52a2.82,2.82,0,0,1-.09-.3,4,4,0,0,1-.06-.41c0-.14,0-.27,0-.41a2.28,2.28,0,0,0-.3.53A1.51,1.51,0,0,0,59,44Z"/><path class="cls-13" d="M58.71,42.19a1.59,1.59,0,0,0,.16.32l.3-.35a3.52,3.52,0,0,0-.17-.35l-.24-.54a2,2,0,0,0-.09.49A1.21,1.21,0,0,0,58.71,42.19Z"/><path class="cls-13" d="M60.24,48.09a1.33,1.33,0,0,1-.12-.29,1.51,1.51,0,0,1-.08-.45,4.64,4.64,0,0,1,0-.53,3.09,3.09,0,0,0-.37.43,1.44,1.44,0,0,0-.25.55,1.21,1.21,0,0,0,0,.5,1.27,1.27,0,0,0,.17.35,3.11,3.11,0,0,1,.32-.31Z"/><path class="cls-13" d="M60.59,51.13a4.36,4.36,0,0,0,.13-.83c-.23.18-.49.35-.74.54a8.75,8.75,0,0,0-.69.67,2.34,2.34,0,0,0-.42.62,1,1,0,0,0-.11.53,1,1,0,0,0,.12.35l.76-.63a5.59,5.59,0,0,0,.6-.58A1.72,1.72,0,0,0,60.59,51.13Z"/><path class="cls-13" d="M60.59,49.66a1.41,1.41,0,0,0,0-.29,2,2,0,0,1,.06-.3,1,1,0,0,1,0-.19l-.13-.18a.66.66,0,0,0-.12-.17A4.06,4.06,0,0,0,60,49a3.72,3.72,0,0,0-.43.61,2.33,2.33,0,0,0-.21.61,1.59,1.59,0,0,0,0,.39c.23-.19.45-.39.66-.54S60.41,49.78,60.59,49.66Z"/><path class="cls-13" d="M59.17,53.53a7.72,7.72,0,0,0-.89.82,2,2,0,0,0-.52.79,2.05,2.05,0,0,0,0,.74c.18-.11.35-.25.61-.41s.61-.38,1-.63a4.48,4.48,0,0,0,1-.85,2.41,2.41,0,0,0,.41-1c.07-.32.11-.62.15-.94l-.85.73Z"/><path class="cls-13" d="M53.47,28.68a3.59,3.59,0,0,0,.89-.25,4,4,0,0,1,.85-.25,6.84,6.84,0,0,1,.91,0A8.55,8.55,0,0,0,55,27.94a6.1,6.1,0,0,0-1.42,0,4.63,4.63,0,0,0-1.34.35,5.74,5.74,0,0,0-1,.57c.35,0,.68-.07,1.06-.09S53.13,28.73,53.47,28.68Z"/><path class="cls-13" d="M59.44,67a1.44,1.44,0,0,0,.42-.59,3,3,0,0,0,.12-.6,3.85,3.85,0,0,1,.08-.49,1.31,1.31,0,0,1,.07-.27,4.56,4.56,0,0,1-.75.56c-.31.2-.75.41-1.11.63a3.6,3.6,0,0,0-.85.71,4.46,4.46,0,0,0-.57.84,4.6,4.6,0,0,0-.32.74c.29-.16.58-.32.93-.49l1.12-.56A4.47,4.47,0,0,0,59.44,67Z"/><path class="cls-13" d="M52.09,74.92a1.51,1.51,0,0,1-.41-.25,2.65,2.65,0,0,1-.39-.42c0,.1.08.19.12.31a1.8,1.8,0,0,1,.08.35,1.31,1.31,0,0,1,0,.4,1.18,1.18,0,0,1-.12.33,2,2,0,0,0,.42.11,1.08,1.08,0,0,0,.44,0,.9.9,0,0,0,.37-.25,1.5,1.5,0,0,0,.22-.39,1,1,0,0,1-.32-.07A1.53,1.53,0,0,1,52.09,74.92Z"/><path class="cls-13" d="M56.67,30.68a9.46,9.46,0,0,0,.55.89,4.77,4.77,0,0,0,.86.88,6.23,6.23,0,0,0,1,.62c-.07-.23-.14-.44-.21-.71a9.29,9.29,0,0,0-.25-.92,5.66,5.66,0,0,0-.48-1.1,3.69,3.69,0,0,0-.77-1,2.29,2.29,0,0,0-1-.48,2.87,2.87,0,0,0-.86-.05c-.25,0-.45.07-.66.11a3.32,3.32,0,0,1,.55.29,3.66,3.66,0,0,1,.7.63A5.14,5.14,0,0,1,56.67,30.68Z"/><path class="cls-13" d="M54.78,69.63a2.68,2.68,0,0,0,.49-.52,2,2,0,0,0,.24-.58,6.08,6.08,0,0,1-.6.25,3.43,3.43,0,0,1-.75.16,4.73,4.73,0,0,1-.75,0l.41.51.48.47A2.6,2.6,0,0,0,54.78,69.63Z"/><path class="cls-13" d="M55.54,70.44a3,3,0,0,0-.41.07,4.65,4.65,0,0,0,.54.14,4.34,4.34,0,0,0,.63.08,1.54,1.54,0,0,0,.48-.08c.14-.06.25-.13.37-.19l.36-.24-1.12.13Z"/><path class="cls-13" d="M57.26,69.92l.39,0a6.2,6.2,0,0,1,.37-.62,7.06,7.06,0,0,1,.65-.83,8.09,8.09,0,0,1,.71-.72,8.27,8.27,0,0,0-1,.45,8.72,8.72,0,0,0-1.28.73,11.38,11.38,0,0,0-.93.71c-.21.2-.31.33-.43.45l.77-.07Z"/><path class="cls-13" d="M45,47.1a2.8,2.8,0,0,0-.2,1,2.22,2.22,0,0,0,.14.7c.3-.24.59-.48,1-.75s.92-.55,1.4-.84a11.43,11.43,0,0,0,1.31-.86,4.42,4.42,0,0,0,.89-.91,1.29,1.29,0,0,0,.26-.77,1.31,1.31,0,0,0-.15-.58,1.85,1.85,0,0,0-.32-.39c-.53.28-1.06.56-1.5.82a12.52,12.52,0,0,0-1.11.68,7.5,7.5,0,0,0-1,.84A3.28,3.28,0,0,0,45,47.1Z"/><path class="cls-13" d="M48.05,36.8a2.63,2.63,0,0,0-.58.71,3.83,3.83,0,0,0-.22.68,3.38,3.38,0,0,0,.38.06,2.77,2.77,0,0,0,.72,0,8.66,8.66,0,0,0,1.25-.27,10.65,10.65,0,0,0,1.37-.5,7,7,0,0,0,1.13-.68,5.31,5.31,0,0,0,.79-.69,3.31,3.31,0,0,0,.39-.59,10.2,10.2,0,0,0-1.23,0,9,9,0,0,0-1.53.25,8.87,8.87,0,0,0-1.48.48A4.31,4.31,0,0,0,48.05,36.8Z"/><path class="cls-13" d="M50.22,33.35a1.88,1.88,0,0,0-.78.46,1.68,1.68,0,0,0-.46.67,2.85,2.85,0,0,0-.14.72c0,.21,0,.36,0,.51.14-.06.28-.13.46-.19a6.06,6.06,0,0,1,.67-.21c.25-.06.53-.11.89-.17L52.09,35a8.7,8.7,0,0,0,1.16-.2,2.47,2.47,0,0,0,.83-.37,2.21,2.21,0,0,0,.49-.47l-.83-.22c-.32-.08-.72-.19-1.13-.28a5.77,5.77,0,0,0-1.28-.2A3.21,3.21,0,0,0,50.22,33.35Z"/><path class="cls-13" d="M48.85,56.72a7.21,7.21,0,0,1-.21.86,7.47,7.47,0,0,1-.28.73,3.89,3.89,0,0,1,.16.41,2.7,2.7,0,0,1,.07.41c.07-.3.14-.58.21-1s.17-.85.24-1.26a7.05,7.05,0,0,0,.14-1.06,2,2,0,0,0-.08-.7,1.16,1.16,0,0,0-.26-.42c0,.13,0,.25.09.44a5.13,5.13,0,0,1,0,.71A6.81,6.81,0,0,1,48.85,56.72Z"/><path class="cls-13" d="M46.11,42.82a2.46,2.46,0,0,0-.64,1,3.12,3.12,0,0,0-.15,1,5.06,5.06,0,0,0,.1.75c.29-.23.56-.46,1-.73s.92-.58,1.46-.89,1.08-.63,1.48-.92a2.39,2.39,0,0,0,.74-.87,1.68,1.68,0,0,0,.21-.83,1.94,1.94,0,0,0-.17-.66,9,9,0,0,1-1.1.61c-.49.25-1.18.55-1.72.8A4.72,4.72,0,0,0,46.11,42.82Z"/><path class="cls-13" d="M54.89,35.88c0-.07,0-.14-.08-.27a2.46,2.46,0,0,1-.06-.44c0-.15,0-.29,0-.42a3.81,3.81,0,0,0-.42.39,5.5,5.5,0,0,0-.42.45c-.12.12-.17.2-.24.27a1.71,1.71,0,0,0,.45.09,1.54,1.54,0,0,0,.43,0A1.22,1.22,0,0,0,54.89,35.88Z"/><path class="cls-13" d="M44.54,50.41a4,4,0,0,0-.35,1,4.83,4.83,0,0,0-.13.74,4.7,4.7,0,0,1,.74-.63,9,9,0,0,1,1.05-.59,12.28,12.28,0,0,0,1.21-.68,6.79,6.79,0,0,0,1-.83,1.94,1.94,0,0,0,.55-.83,1.53,1.53,0,0,0,0-.82,1.31,1.31,0,0,0-.22-.49c-.36.23-.72.48-1.12.72s-.82.48-1.2.74a5.94,5.94,0,0,0-1,.79A3.86,3.86,0,0,0,44.54,50.41Z"/><path class="cls-13" d="M43.89,53.65a3.72,3.72,0,0,0-.21,1.17,4.74,4.74,0,0,0,.1.89c.11-.18.2-.36.33-.55a5.28,5.28,0,0,1,.54-.67,12.4,12.4,0,0,1,1-.82c.43-.3.93-.66,1.38-1a5.16,5.16,0,0,0,1-1,1.32,1.32,0,0,0,.26-.86,1.77,1.77,0,0,0-.16-.59c-.12.1-.21.2-.36.31a4.76,4.76,0,0,1-.65.39c-.34.19-.87.46-1.32.72a5.62,5.62,0,0,0-1.2.87A3.34,3.34,0,0,0,43.89,53.65Z"/><path class="cls-13" d="M47.32,39.25a3,3,0,0,0-.87.82,4.18,4.18,0,0,0-.46,1,5.44,5.44,0,0,0-.15.93l.34-.2c.17-.07.38-.17.66-.26l1-.35A11.71,11.71,0,0,0,49,40.67,7.69,7.69,0,0,0,50.11,40a3.87,3.87,0,0,0,.76-.75,3,3,0,0,0,.42-.81,5.23,5.23,0,0,0,.17-.74l-.53.27c-.24.09-.57.22-1,.35s-.94.27-1.4.42A4.5,4.5,0,0,0,47.32,39.25Z"/><path class="cls-13" d="M51.46,63.91a2.75,2.75,0,0,0,.55.34c0-.12-.12-.24-.17-.39a3.22,3.22,0,0,1-.13-.64,5.81,5.81,0,0,1,0-1c0-.35.06-.69.07-1a3.35,3.35,0,0,0-.11-1.06,1.68,1.68,0,0,0-.4-.74,1.57,1.57,0,0,0-.45-.35,7.74,7.74,0,0,1-.11.79c-.05.31-.13.72-.19,1.11a4.45,4.45,0,0,0,0,1.15,2.9,2.9,0,0,0,.36,1A3.33,3.33,0,0,0,51.46,63.91Z"/><path class="cls-13" d="M49.12,59.8a4.6,4.6,0,0,0,.26,1.4,3.73,3.73,0,0,0,.45.85,9.82,9.82,0,0,1,.06-1c0-.39.11-.88.2-1.41a11.56,11.56,0,0,0,.17-1.52,1.65,1.65,0,0,0-.21-.87,1.41,1.41,0,0,0-.49-.39c-.09.46-.16.92-.25,1.41A8,8,0,0,0,49.12,59.8Z"/><path class="cls-13" d="M48,53.35a1.12,1.12,0,0,0-.14-.35c-.21.2-.42.39-.69.61l-1,.7a8.23,8.23,0,0,0-1.06.91,3.92,3.92,0,0,0-.72,1,4.24,4.24,0,0,0-.34,1,3.33,3.33,0,0,0,0,.76,3.89,3.89,0,0,1,.36-.37,6.87,6.87,0,0,1,.8-.64c.34-.25.81-.52,1.22-.83a4.93,4.93,0,0,0,1-1,2.75,2.75,0,0,0,.5-1.08A2.19,2.19,0,0,0,48,53.35Z"/><path class="cls-13" d="M52.94,64.61a3.08,3.08,0,0,1,.27-.24l.3-.21a3,3,0,0,1-.14-.45,3.36,3.36,0,0,1,0-.64c0-.26.06-.61.06-.92a1.89,1.89,0,0,0-.14-.79,1.06,1.06,0,0,0-.41-.45,1.91,1.91,0,0,0-.51-.13c0,.39-.12.79-.15,1.23a6.18,6.18,0,0,0,0,1.3,2.45,2.45,0,0,0,.31.88A1.59,1.59,0,0,0,52.94,64.61Z"/><path class="cls-13" d="M58.78,61.78a2.23,2.23,0,0,0,.57-.7,2.34,2.34,0,0,0,.19-.71c-.4.17-.8.34-1.22.5s-.91.26-1.33.4a8.09,8.09,0,0,0-1.18.43,3.07,3.07,0,0,0-.94.59,2.76,2.76,0,0,0-.58.81,6.12,6.12,0,0,0-.29.81,7.88,7.88,0,0,1,1-.49c.39-.17.91-.34,1.41-.5s1-.3,1.39-.48A3.68,3.68,0,0,0,58.78,61.78Z"/><path class="cls-13" d="M57.06,35.15A2.31,2.31,0,0,0,57,33.84l-.42.12-.51.09c-.16,0-.29,0-.4,0a4.56,4.56,0,0,0-.16.69,2.29,2.29,0,0,0,0,.69,2.16,2.16,0,0,0,.21.78,1.77,1.77,0,0,0,.54.58,2.14,2.14,0,0,0,.61.22,4.12,4.12,0,0,1,0-.93C56.9,35.77,57,35.44,57.06,35.15Z"/><path class="cls-13" d="M53.38,65.57a.9.9,0,0,0-.09.41c.15-.06.31-.12.6-.21s.67-.24,1.15-.39,1-.31,1.46-.47a4.39,4.39,0,0,0,1-.41,2.43,2.43,0,0,0,.61-.51,1.87,1.87,0,0,0,.34-.56c.08-.19.11-.36.17-.54a5.79,5.79,0,0,1-1,.42c-.44.14-1,.29-1.54.48a9.25,9.25,0,0,0-1.35.58,3.7,3.7,0,0,0-.84.57A2.32,2.32,0,0,0,53.38,65.57Z"/><path class="cls-13" d="M52.37,23.63c.3.34.56.72.86,1.06a4.91,4.91,0,0,0,.89.84,2.34,2.34,0,0,0,.8.36,1.49,1.49,0,0,0,.48.05L55,25c-.16-.37-.33-.78-.53-1.15a5.61,5.61,0,0,0-.72-1,3.29,3.29,0,0,0-1-.78,2.18,2.18,0,0,0-1.06-.29,1.58,1.58,0,0,0-.72.17l-.31.18a10.12,10.12,0,0,1,.79.64A11.78,11.78,0,0,1,52.37,23.63Z"/><path class="cls-13" d="M45.5,29.2c.51,0,1,0,1.55,0a6.42,6.42,0,0,0,1.45-.3,6.17,6.17,0,0,0,1.13-.52c.34-.2.65-.42,1-.64-.39,0-.78,0-1.22,0s-1,0-1.42-.09-.76-.08-1.19-.09a4.4,4.4,0,0,0-1.51.19,3.93,3.93,0,0,0-1.39.74,4.2,4.2,0,0,0-.82,1,8,8,0,0,1,1-.18A12.75,12.75,0,0,1,45.5,29.2Z"/><path class="cls-13" d="M42.8,27.57l-.89-.22c-.37-.1-.87-.25-1.41-.38a6.37,6.37,0,0,0-1.68-.24,3.83,3.83,0,0,0-1.59.34,3,3,0,0,0-1.6,1.59l.82-.24a11,11,0,0,1,1.33-.19c.56-.06,1.28-.08,2-.12s1.33-.1,1.82-.2A8.32,8.32,0,0,0,42.8,27.57Z"/><path class="cls-13" d="M44.71,27A12.63,12.63,0,0,0,46,26.44a8.51,8.51,0,0,1-1-.26,13.56,13.56,0,0,1-1.26-.52,11.2,11.2,0,0,0-1.35-.48A4.86,4.86,0,0,0,40.8,25a2.79,2.79,0,0,0-1.34.4,1.9,1.9,0,0,0-.62.69l.33,0a5.63,5.63,0,0,1,.73.11c.33.08.76.19,1.21.34s.9.33,1.3.45a3.51,3.51,0,0,0,1.12.19A4.26,4.26,0,0,0,44.71,27Z"/><path class="cls-13" d="M36.52,28.92a6.55,6.55,0,0,0-1.57.47,1.91,1.91,0,0,0-.7.47.67.67,0,0,0-.2.33c0,.09,0,.16-.08.24.37,0,.73,0,1.19,0s1-.09,1.52-.16A10.69,10.69,0,0,0,38,29.91a4.34,4.34,0,0,0,1.1-.55,3.47,3.47,0,0,0,.71-.66c-.47,0-.93,0-1.49,0A11.09,11.09,0,0,0,36.52,28.92Z"/><path class="cls-13" d="M38.72,38.2a8.34,8.34,0,0,1,.92-.51c.42-.2,1-.46,1.47-.68a11.94,11.94,0,0,0,1.49-.8,7.56,7.56,0,0,0,1.31-1.13,7.94,7.94,0,0,0,.86-1.17,11.37,11.37,0,0,1-1.06.56c-.43.19-1,.37-1.57.62a14.29,14.29,0,0,0-1.9.9,5.68,5.68,0,0,0-1.4,1.06,3,3,0,0,0-.63,1,1.62,1.62,0,0,0-.08.61C38.31,38.51,38.5,38.35,38.72,38.2Z"/><path class="cls-13" d="M39.48,35.56a7.88,7.88,0,0,1,.82-.48c.39-.19.91-.41,1.45-.62s1.16-.4,1.67-.64a7.48,7.48,0,0,0,1.36-.76,4,4,0,0,0,.84-.87,3.42,3.42,0,0,0,.43-.74,11.68,11.68,0,0,1-1.14.38c-.44.12-1,.23-1.61.41a10.06,10.06,0,0,0-2,.73,5.86,5.86,0,0,0-1.54,1.09,2.46,2.46,0,0,0-.59,1,3.1,3.1,0,0,0-.07.78A3.79,3.79,0,0,1,39.48,35.56Z"/><path class="cls-13" d="M38.63,40.83a11.61,11.61,0,0,1,1.45-.78,13.81,13.81,0,0,0,1.28-.64,2.17,2.17,0,0,0,.75-.72,3.66,3.66,0,0,0,.38-.81c.09-.24.14-.38.19-.53s.12-.27.18-.39c-.3.16-.59.33-1,.54l-1.6.7a8.26,8.26,0,0,0-1.31.74,5.09,5.09,0,0,0-1,.85,1.84,1.84,0,0,0-.39.89,3.75,3.75,0,0,0,.11.93A6.44,6.44,0,0,1,38.63,40.83Z"/><path class="cls-13" d="M44.24,31.4a9.88,9.88,0,0,0,1.65-.48,4.69,4.69,0,0,0,1.1-.64,5.7,5.7,0,0,0,.71-.66,9.51,9.51,0,0,1-1,.11c-.39,0-.84,0-1.32,0a7.43,7.43,0,0,0-1.4.12,5,5,0,0,0-1.36.46,3.37,3.37,0,0,0-.95.74,2.15,2.15,0,0,0-.47.72,3.3,3.3,0,0,0-.17.63,12.05,12.05,0,0,1,1.42-.55C43,31.68,43.62,31.54,44.24,31.4Z"/><path class="cls-13" d="M57.55,24.72a8.58,8.58,0,0,1,.28,1A6.12,6.12,0,0,1,58,26.74a5.73,5.73,0,0,1,0,.83l.41.08.59.18c.19.07.32.13.47.2a8,8,0,0,0,0-1,4.55,4.55,0,0,0-.32-1.27,5.34,5.34,0,0,0-1.56-1.9,2,2,0,0,0-.55-.26c.07.14.15.27.23.45S57.44,24.46,57.55,24.72Z"/><path class="cls-13" d="M60,27.05a5.91,5.91,0,0,1,0,.7,3.9,3.9,0,0,1,0,.4c.21,0,.43,0,.64,0s.42.05.65.08c0-.17-.07-.34-.13-.54a4.39,4.39,0,0,0-.26-.74,4.18,4.18,0,0,0-.43-.66,1.69,1.69,0,0,0-.4-.37,2.05,2.05,0,0,0-.36-.24c0,.17.11.33.16.58A7.65,7.65,0,0,1,60,27.05Z"/><path class="cls-13" d="M38.33,57.41a3,3,0,0,0-.24.81,2.58,2.58,0,0,0,0,.79,2.66,2.66,0,0,0,.25.65c.07-.15.14-.31.23-.48s.23-.35.32-.46a2.49,2.49,0,0,1,.19-.24c0-.21,0-.43,0-.72a7.66,7.66,0,0,1,.06-.94c0-.31.08-.58.13-.85-.19.24-.38.48-.54.71A3.61,3.61,0,0,0,38.33,57.41Z"/><path class="cls-13" d="M53.88,22.38a3.74,3.74,0,0,1,.49.57,5.38,5.38,0,0,1,.63,1c.24.38.46.85.7,1.26a10.7,10.7,0,0,0,.65,1,3,3,0,0,0,.52.57,5.49,5.49,0,0,0,.44.41,9.44,9.44,0,0,0-.07-1.27,7.75,7.75,0,0,0-.35-1.38,5.1,5.1,0,0,0-.52-1,5.29,5.29,0,0,0-.59-.71,2.48,2.48,0,0,0-.72-.45,1.6,1.6,0,0,0-.71-.11A1.05,1.05,0,0,0,53.88,22.38Z"/><path class="cls-13" d="M51.62,26.56a6.22,6.22,0,0,0-1-.35c-.38-.1-.77-.17-1.18-.27a6.29,6.29,0,0,1-.73.4,5.29,5.29,0,0,1-.92.34c-.33.1-.67.17-1,.24.76.07,1.51.13,2.19.17a15.64,15.64,0,0,0,1.78,0,13.9,13.9,0,0,0,1.43-.22A2.69,2.69,0,0,0,51.62,26.56Z"/><path class="cls-13" d="M45.65,25.74a6.26,6.26,0,0,0,1.33.12,4.48,4.48,0,0,0,1-.14c.27-.06.46-.14.66-.2a8.85,8.85,0,0,1-.81-.41c-.3-.17-.67-.4-1.1-.62a7,7,0,0,0-1.45-.62,5.44,5.44,0,0,0-1.56-.22,2.89,2.89,0,0,0-1.13.23,1.88,1.88,0,0,0-.59.51,4.27,4.27,0,0,1,.6.17c.22.07.46.19.76.32s.69.33,1.07.49A6.06,6.06,0,0,0,45.65,25.74Z"/><path class="cls-13" d="M49,23.4c.32.23.65.49,1,.71a8.23,8.23,0,0,0,1.12.63,6,6,0,0,0,1.14.37,5,5,0,0,0,.9.07c-.34-.39-.69-.78-1-1.14a13.59,13.59,0,0,0-1.07-1,5.65,5.65,0,0,0-1.15-.73,2.79,2.79,0,0,0-1.06-.28,1.58,1.58,0,0,0-.75.13,1,1,0,0,0-.35.29l.39.27C48.34,22.9,48.66,23.15,49,23.4Z"/><path class="cls-13" d="M47.91,24.62A3.72,3.72,0,0,0,49,25a1.84,1.84,0,0,0,.73-.07.59.59,0,0,0,.3-.15c-.24-.14-.47-.28-.76-.47s-.61-.45-.93-.71a9.91,9.91,0,0,0-1-.7,3.57,3.57,0,0,0-1.08-.44,2.39,2.39,0,0,0-.94,0,1,1,0,0,0-.53.34,1,1,0,0,0-.19.36,8.43,8.43,0,0,1,.85.24A11.86,11.86,0,0,1,46.7,24C47.11,24.19,47.51,24.43,47.91,24.62Z"/><path class="cls-13" d="M44.46,73.42a1.86,1.86,0,0,1-.1-.25,4.31,4.31,0,0,1-.62-.15,1.64,1.64,0,0,1-.63-.32,2.4,2.4,0,0,1-.5-.67,2.68,2.68,0,0,1-.21-.73,1.06,1.06,0,0,1,0-.35,1.46,1.46,0,0,1-.22-.18,2.27,2.27,0,0,1-.23-.31,8.61,8.61,0,0,0,0,.88,3,3,0,0,0,.13.84,2.35,2.35,0,0,0,.35.71,1.24,1.24,0,0,0,.46.37,1.88,1.88,0,0,0,.56.2,2.06,2.06,0,0,0,.55,0A2.32,2.32,0,0,0,44.46,73.42Z"/><path class="cls-13" d="M41.37,71a8.48,8.48,0,0,1,0-1c0-.32.05-.62.09-.92l-.38-.52c-.11-.21-.24-.45-.33-.65a4.88,4.88,0,0,1-.18-.54c-.07.3-.15.6-.21.93s-.14.76-.18,1.17a4.5,4.5,0,0,0,0,1.22,2.2,2.2,0,0,0,.38,1,1.47,1.47,0,0,0,.57.46.76.76,0,0,0,.35.11,3.6,3.6,0,0,1-.09-.42A6.69,6.69,0,0,1,41.37,71Z"/><path class="cls-13" d="M46.35,73.68a4.58,4.58,0,0,1-.34-.46,2.23,2.23,0,0,1-.29-.7,3.12,3.12,0,0,1-.11-.86c0-.27.06-.52.09-.76-.14.23-.27.45-.39.67a3.7,3.7,0,0,0-.26.7A1.57,1.57,0,0,0,45,73a1.15,1.15,0,0,0,.24.55,1.08,1.08,0,0,0,.43.36,2.51,2.51,0,0,0,.57.18,3.63,3.63,0,0,0,.44,0C46.59,73.94,46.46,73.81,46.35,73.68Z"/><path class="cls-13" d="M39.59,69c.06-.36.15-.76.24-1.12A8.56,8.56,0,0,1,40.1,67c.08-.22.13-.36.19-.49a3.48,3.48,0,0,1-.38-.49c-.12-.19-.26-.44-.38-.68A8.34,8.34,0,0,0,39,66.42a6.77,6.77,0,0,0-.42,1.44,2.49,2.49,0,0,0,0,1.2,1.33,1.33,0,0,0,.46.65.82.82,0,0,0,.45.16A8.84,8.84,0,0,1,39.59,69Z"/><path class="cls-13" d="M49.72,73.31a2.25,2.25,0,0,0,.32-.93,2.09,2.09,0,0,0-.12-.88,10.22,10.22,0,0,0-.42-1,2.62,2.62,0,0,1-.24.47,4.6,4.6,0,0,1-.56.72,9.36,9.36,0,0,0-.75.88,2.12,2.12,0,0,0-.35,1,1.2,1.2,0,0,0,.17.77.93.93,0,0,0,.48.4,2.51,2.51,0,0,0,.52.14,1.61,1.61,0,0,1,.28-.59C49.23,74,49.51,73.65,49.72,73.31Z"/><path class="cls-13" d="M50.52,75.65a1,1,0,0,0,.35-.41,1.39,1.39,0,0,0,0-.68,5.62,5.62,0,0,0-.25-.72,6,6,0,0,1-.22-.72c-.1.16-.19.33-.31.49s-.32.35-.45.5a2.25,2.25,0,0,0-.33.43,1.17,1.17,0,0,0-.13.44.64.64,0,0,0,.11.4.8.8,0,0,0,.39.3,1,1,0,0,0,.43.09A.66.66,0,0,0,50.52,75.65Z"/><path class="cls-13" d="M39.14,49.33a2.91,2.91,0,0,0,.74-.83,2.4,2.4,0,0,0,.23-.92c0-.3,0-.54,0-.72a1,1,0,0,1,.06-.31c-.37.21-.73.43-1.11.69a13.08,13.08,0,0,0-1.1.92,4.09,4.09,0,0,0-.88,1,1.85,1.85,0,0,0-.22,1,2.2,2.2,0,0,0,.24.8,10.87,10.87,0,0,1,.81-.74C38.31,50,38.78,49.64,39.14,49.33Z"/><path class="cls-13" d="M38.63,65.37c.14-.26.28-.51.43-.74a5.32,5.32,0,0,1-.23-.64,2.52,2.52,0,0,1-.09-.73,5.36,5.36,0,0,1,.1-.7l-.43-.73c-.13.22-.27.42-.41.69a7.29,7.29,0,0,0-.39,1,6.1,6.1,0,0,0-.2,1.21,2.21,2.21,0,0,0,.1.87,2.11,2.11,0,0,0,.3.58l.31.34c.05-.12.09-.25.17-.45S38.5,65.62,38.63,65.37Z"/><path class="cls-13" d="M39.12,52.46a2.61,2.61,0,0,0,.53-.72,2.21,2.21,0,0,0,.21-.8,6.33,6.33,0,0,0-.06-.78c0-.23,0-.44,0-.65-.4.34-.79.69-1.14,1a12,12,0,0,0-.87.83,3.16,3.16,0,0,0-.52.83,1.67,1.67,0,0,0-.06.79,2.6,2.6,0,0,0,.19.61,1.43,1.43,0,0,0,.22.34l.71-.67C38.58,53,38.88,52.71,39.12,52.46Z"/><path class="cls-13" d="M38.81,46.62c.41-.29.91-.66,1.23-.94a1.48,1.48,0,0,0,.54-.7,2.25,2.25,0,0,0,.12-.71c0-.21,0-.36,0-.5s0-.27.07-.4c-.27.19-.55.37-1,.64s-1,.62-1.44.93a3.85,3.85,0,0,0-.94.88,3,3,0,0,0-.49,1,2.34,2.34,0,0,0-.06.85,1.36,1.36,0,0,0,.12.5,8.85,8.85,0,0,1,.76-.73C38.08,47.17,38.39,46.93,38.81,46.62Z"/><path class="cls-13" d="M38.06,44.32c.25-.17.58-.38,1-.6s.85-.51,1.23-.78a3.22,3.22,0,0,0,.86-.88,2.45,2.45,0,0,0,.29-.89c0-.33.1-.67.15-1-.49.23-1,.46-1.38.69a10.93,10.93,0,0,0-1.15.69,7.92,7.92,0,0,0-1.1.89,2.36,2.36,0,0,0-.6,1,1.79,1.79,0,0,0,0,.82,4.73,4.73,0,0,0,.15.51A4.69,4.69,0,0,1,38.06,44.32Z"/><path class="cls-13" d="M39.16,55.21a3.07,3.07,0,0,0,.42-.94,3,3,0,0,0,.05-.83c0-.25,0-.47,0-.7l-.43.46-.45.45a5.93,5.93,0,0,0-.63.67,2.36,2.36,0,0,0-.4.79,2,2,0,0,0-.07.74,1.79,1.79,0,0,0,.11.56c.07.16.13.3.21.45.15-.23.28-.46.49-.74S38.94,55.52,39.16,55.21Z"/><path class="cls-13" d="M38.21,61.39a1.86,1.86,0,0,1-.05-.3,3.19,3.19,0,0,1,0-.45,3.8,3.8,0,0,1,.06-.4l-.27-.45-.14-.3a3.56,3.56,0,0,0-.69,1.37,3,3,0,0,0-.13.75,1.94,1.94,0,0,0,.1.58,3.24,3.24,0,0,0,.21.38,3.86,3.86,0,0,1,.39-.57A4.46,4.46,0,0,1,38.21,61.39Z"/><path class="cls-13" d="M37.47,59.12a1.35,1.35,0,0,1,.15-.13,2.15,2.15,0,0,1-.11-.54,2.64,2.64,0,0,1,.05-.64,1.72,1.72,0,0,1,.14-.39c-.06-.09-.13-.2-.21-.3l-.21.36a2.5,2.5,0,0,0-.37,1.19,1.52,1.52,0,0,0,0,.62,1.46,1.46,0,0,0,.15.35,2.4,2.4,0,0,1,.18-.26A1.11,1.11,0,0,1,37.47,59.12Z"/><path class="cls-13" d="M51.06,25.21a4.32,4.32,0,0,1-.38.21,5.14,5.14,0,0,1-.51.16c.35.08.7.16,1.07.26a9.18,9.18,0,0,1,1,.41,6.24,6.24,0,0,1,.71.47c.18.16.3.29.43.42.45,0,.92,0,1.36.05a11,11,0,0,1,1.14.18c.3.07.51.14.71.2-.19-.23-.45-.54-.68-.79a6.69,6.69,0,0,1-.75-.16,3.5,3.5,0,0,1-1-.41,3.94,3.94,0,0,1-.71-.55,8.39,8.39,0,0,1-.84,0,5.66,5.66,0,0,1-.93-.18C51.5,25.37,51.28,25.28,51.06,25.21Z"/><path class="cls-13" d="M55.84,74.35c-.11-.26-.22-.62-.33-.95s-.23-.68-.37-1a5.19,5.19,0,0,0-.55-.93,3.66,3.66,0,0,0-.63-.62c0,.13,0,.25,0,.45A4.54,4.54,0,0,1,54,72c0,.29,0,.59,0,.93a3.73,3.73,0,0,0,.13,1,2.14,2.14,0,0,0,.41.81,1.65,1.65,0,0,0,.72.51,1.45,1.45,0,0,0,.76.05,1.41,1.41,0,0,0,.46-.21,1.17,1.17,0,0,1-.25-.25A2.47,2.47,0,0,1,55.84,74.35Z"/><path class="cls-13" d="M52.74,74.22a1.89,1.89,0,0,0,.66.3,1.24,1.24,0,0,0,.41.07,3.2,3.2,0,0,1-.27-.71,6.65,6.65,0,0,1-.1-1.09c0-.43.05-.88,0-1.25a3.47,3.47,0,0,0-.1-.87,1.91,1.91,0,0,0-.33-.67,3.21,3.21,0,0,0-.45-.51c0,.31,0,.63,0,1a10.09,10.09,0,0,1-.19,1.12c-.08.41-.16.8-.19,1.14a1.6,1.6,0,0,0,.08.83A1.44,1.44,0,0,0,52.74,74.22Z"/><path class="cls-13" d="M50.61,71.73a2.66,2.66,0,0,0,.15.88,2.69,2.69,0,0,0,.4.73,2.64,2.64,0,0,0,.57.44,3.87,3.87,0,0,1-.11-.68,4.24,4.24,0,0,1,.08-.94c.07-.38.19-.82.27-1.2a5.47,5.47,0,0,0,.1-1A4.14,4.14,0,0,0,51.9,69a5.7,5.7,0,0,0-.36-.85,6.26,6.26,0,0,1-.12.69,4.29,4.29,0,0,1-.27.78,10.85,10.85,0,0,0-.4,1A3.1,3.1,0,0,0,50.61,71.73Z"/><path class="cls-13" d="M56.6,71.23c.12.13.21.27.35.42s.26.34.41.55.28.49.47.73a2.24,2.24,0,0,0,.6.66,2.34,2.34,0,0,0,.79.39A1.38,1.38,0,0,0,60,74a1.14,1.14,0,0,0,.57-.37,1,1,0,0,0,.22-.49,1.71,1.71,0,0,0,0-.45l-.54-.08c-.26-.05-.63-.12-1-.22a7.52,7.52,0,0,1-1-.36c-.32-.15-.65-.34-.92-.49Z"/><path class="cls-13" d="M62.6,67.59c-.31.06-.69.11-1.13.23a6.77,6.77,0,0,0-1.36.45A4.37,4.37,0,0,0,59,69a4.24,4.24,0,0,0-.65.82c.26,0,.53-.06.86-.07s.72,0,1.12,0a6.36,6.36,0,0,0,1.24-.11,3.43,3.43,0,0,0,1.08-.35,2.52,2.52,0,0,0,.75-.59,1.24,1.24,0,0,0,.28-.61,1.91,1.91,0,0,0,0-.53c0-.14-.06-.21-.08-.3a1.28,1.28,0,0,1-.33.15A3.85,3.85,0,0,1,62.6,67.59Z"/><path class="cls-13" d="M60.88,70.26c-.41,0-.86,0-1.3,0a6.12,6.12,0,0,0-1.22.16,4.65,4.65,0,0,0-.8.27c.26.14.53.29.95.48a10.11,10.11,0,0,0,1.46.59,2.93,2.93,0,0,0,1.19.12,1.73,1.73,0,0,0,.81-.28,1.21,1.21,0,0,0,.42-.54,1.92,1.92,0,0,0,.15-.65,3.48,3.48,0,0,0,0-.57,4.38,4.38,0,0,1-.62.22A5.61,5.61,0,0,1,60.88,70.26Z"/><path class="cls-13" d="M50.27,70.57a3.86,3.86,0,0,1,.2-.65c.11-.25.26-.54.37-.86a3.27,3.27,0,0,0,.23-1,2.63,2.63,0,0,0-.13-.86,4.42,4.42,0,0,0-.3-.66,4.43,4.43,0,0,1-.19.69c-.1.22-.23.43-.36.66a3.19,3.19,0,0,0-.34.72,2.55,2.55,0,0,0-.06.83,3.19,3.19,0,0,0,.21.82c.09.25.2.5.31.74C50.23,70.88,50.24,70.75,50.27,70.57Z"/><path class="cls-13" d="M57.1,28.47c.14.09.28.16.46.29a3.06,3.06,0,0,1,.58.57,5.53,5.53,0,0,1,.58,1c.16.38.31.79.45,1.22a8.19,8.19,0,0,0,.51,1.18,3.88,3.88,0,0,0,.63.77c0-.26,0-.53.08-.89a11.45,11.45,0,0,0,.06-1.22,3.92,3.92,0,0,0-.13-1.19,2.78,2.78,0,0,0-.52-1.08,2,2,0,0,0-.9-.63,2.55,2.55,0,0,0-1-.17A3.32,3.32,0,0,0,57.1,28.47Z"/><path class="cls-13" d="M40.62,65.5a5.38,5.38,0,0,1,.37-.71,4.93,4.93,0,0,1,.63-.74c.22-.23.44-.41.67-.63a4.51,4.51,0,0,0,.61-.74,1.24,1.24,0,0,0,.22-.72c0-.26,0-.54,0-.8a4.65,4.65,0,0,1,.09-.76c-.32.27-.65.55-1,.88a10.05,10.05,0,0,0-1,1,3.73,3.73,0,0,0-.63,1,2.32,2.32,0,0,0-.2.88,2.8,2.8,0,0,0,.07.79A3.15,3.15,0,0,0,40.62,65.5Z"/><path class="cls-13" d="M39.29,62.72a2.19,2.19,0,0,0,.06.8,2.57,2.57,0,0,0,.29.71c.1.19.2.33.28.47,0-.16,0-.3-.05-.47a5,5,0,0,1,0-.54c0-.17.06-.36.1-.55s-.09-.19-.14-.34-.1-.33-.15-.51,0-.34-.07-.51a2.86,2.86,0,0,0-.16.31A3.1,3.1,0,0,0,39.29,62.72Z"/><path class="cls-13" d="M38.72,60.55a2.05,2.05,0,0,0,.07.74,6.81,6.81,0,0,0,.31.74,3.28,3.28,0,0,1,.19-.37,4.64,4.64,0,0,1,.25-.42c0-.19,0-.38,0-.56a4.39,4.39,0,0,1,.13-.52,5,5,0,0,1-.28-.49,3.45,3.45,0,0,1-.18-.51,4.82,4.82,0,0,0-.35.63A2,2,0,0,0,38.72,60.55Z"/><path class="cls-13" d="M46.34,71.65a2.89,2.89,0,0,0,.14.93,8.24,8.24,0,0,0,.35.81,8.15,8.15,0,0,1,.34-.76,8.8,8.8,0,0,1,.64-.95,9.91,9.91,0,0,0,.95-1.31A2.16,2.16,0,0,0,49,69.22a2,2,0,0,0-.16-.75c-.09-.19-.17-.31-.25-.45-.22.25-.43.51-.64.73s-.41.41-.65.69a4.11,4.11,0,0,0-.68,1.06A3.19,3.19,0,0,0,46.34,71.65Z"/><path class="cls-13" d="M43.07,71.34a1.34,1.34,0,0,0,.31.73,1.38,1.38,0,0,0,.49.45,1.55,1.55,0,0,0,.53.14.43.43,0,0,1,0-.15,3.07,3.07,0,0,1,.16-.43c.08-.19.2-.37.29-.58a2.19,2.19,0,0,0,.19-.72A2.21,2.21,0,0,0,45,70c-.08-.3-.22-.63-.29-1A4.8,4.8,0,0,1,44.63,68c0,.14-.07.29-.12.48a3.12,3.12,0,0,1-.3.61,6.64,6.64,0,0,1-.49.62,3,3,0,0,0-.5.76A1.81,1.81,0,0,0,43.07,71.34Z"/><path class="cls-13" d="M42.16,69.32a3.64,3.64,0,0,0,.38.93l.15-.29a4.37,4.37,0,0,1,.38-.51,5.88,5.88,0,0,0,.63-.67,2.38,2.38,0,0,0,.44-.85,4.08,4.08,0,0,0,.12-1,4.8,4.8,0,0,0-.07-.84,4.29,4.29,0,0,0-.1-.48,7.16,7.16,0,0,0-.75.63,4.07,4.07,0,0,0-.71.82,3.16,3.16,0,0,0-.47,1.11A2.93,2.93,0,0,0,42.16,69.32Z"/><path class="cls-13" d="M41.09,66.26a2.31,2.31,0,0,0,.13.95,3.57,3.57,0,0,0,.44.79,2.7,2.7,0,0,1,.12-.56,3.63,3.63,0,0,1,.38-.77,8.5,8.5,0,0,1,.71-.8,4.94,4.94,0,0,0,.67-.73,1.38,1.38,0,0,0,.21-.74c0-.26-.09-.56-.12-.83a3.58,3.58,0,0,1-.08-.7c-.48.48-1,1-1.34,1.37a6.15,6.15,0,0,0-.81,1.08A2.09,2.09,0,0,0,41.09,66.26Z"/><path class="cls-13" d="M57.05,72.85a5.8,5.8,0,0,0-.82-1,2.79,2.79,0,0,0-.85-.52,1.69,1.69,0,0,1,.14.36,4.55,4.55,0,0,1,.15.56c.07.27.15.62.25,1a4.92,4.92,0,0,0,.37,1,2,2,0,0,0,.58.65,1.6,1.6,0,0,0,1.49.17,1.23,1.23,0,0,0,.49-.36,2.39,2.39,0,0,1-.52-.28,3.29,3.29,0,0,1-.56-.53C57.56,73.57,57.32,73.22,57.05,72.85Z"/><path class="cls-13" d="M64.71,38.36a2.91,2.91,0,0,0-.48,1,2.61,2.61,0,0,0-.07,1,6.64,6.64,0,0,0,.3,1.12,10.17,10.17,0,0,1,.46-.94c.19-.31.43-.64.69-1a8.41,8.41,0,0,0,.69-1.08,1.52,1.52,0,0,0,.16-.84,1.27,1.27,0,0,0-.22-.59,2.6,2.6,0,0,0-.33-.4,6.83,6.83,0,0,1-.43.68C65.25,37.62,64.94,38,64.71,38.36Z"/><path class="cls-13" d="M64.94,41.78a2.47,2.47,0,0,0-.19.78,2.27,2.27,0,0,0,.11.77,1.78,1.78,0,0,0,.27.48c.09-.17.2-.34.31-.52s.28-.38.46-.65.38-.64.56-.94.32-.57.42-.81a1.85,1.85,0,0,0,.13-.67,1.39,1.39,0,0,0-.16-.59,1.26,1.26,0,0,0-.34-.35c-.4.54-.79,1.08-1.05,1.49A5.75,5.75,0,0,0,64.94,41.78Z"/><path class="cls-13" d="M65.53,44.12l-.42.68a2.47,2.47,0,0,1,0,.39,2.54,2.54,0,0,1,0,.47c0,.15,0,.29-.05.44s.09.22.13.32l.91-1.22A8.87,8.87,0,0,0,66.88,44a3.31,3.31,0,0,0,.33-1,1.14,1.14,0,0,0-.1-.61,1.7,1.7,0,0,0-.26-.31c-.17.29-.34.58-.57.94S65.75,43.8,65.53,44.12Z"/><path class="cls-13" d="M65.31,47.05a1.82,1.82,0,0,1,.18.37,5.16,5.16,0,0,1,.16.52c0,.17.06.3.07.41.41-.57.83-1.15,1.13-1.61a4.55,4.55,0,0,0,.55-1.08,1,1,0,0,0,0-.69,1,1,0,0,0-.24-.36c-.21.31-.42.61-.73,1S65.72,46.55,65.31,47.05Z"/><path class="cls-13" d="M60.87,29.27a2.86,2.86,0,0,1,.33,1.1,6.19,6.19,0,0,1,0,1.48c0,.5-.13,1-.13,1.39a2.68,2.68,0,0,0,.17.94,2.13,2.13,0,0,0,.21.45,7.15,7.15,0,0,1,.28-.81c.12-.29.29-.61.47-1a7.57,7.57,0,0,0,.46-1.23,3.79,3.79,0,0,0,.1-1.18,1.62,1.62,0,0,0-.3-.91,1.67,1.67,0,0,0-.82-.6,6.49,6.49,0,0,0-1.26-.28A4,4,0,0,1,60.87,29.27Z"/><path class="cls-13" d="M64.25,35.56a10.61,10.61,0,0,0-.59,1,4,4,0,0,0-.32.94,2.41,2.41,0,0,0,0,.89,3,3,0,0,0,.28.74,9,9,0,0,1,.56-1c.22-.33.51-.67.74-1a4.23,4.23,0,0,0,.54-.85,2.43,2.43,0,0,0,.22-.83,2.12,2.12,0,0,0,0-.84,1.51,1.51,0,0,0-.31-.53,1.26,1.26,0,0,0-.22-.21,4.7,4.7,0,0,1-.28.74C64.68,34.89,64.46,35.23,64.25,35.56Z"/><path class="cls-13" d="M63.25,31.8a4.87,4.87,0,0,1-.33,1.05c-.19.41-.45.9-.61,1.35a2.87,2.87,0,0,0-.18,1.2,1.79,1.79,0,0,0,.22.83,6.06,6.06,0,0,0,.46.75,6.51,6.51,0,0,1,.45-.93c.18-.34.45-.72.66-1.07a5.14,5.14,0,0,0,.49-1,2.88,2.88,0,0,0,.18-.84,2.75,2.75,0,0,0-.11-.93,2,2,0,0,0-.51-.81,1.87,1.87,0,0,0-.64-.36A5.26,5.26,0,0,1,63.25,31.8Z"/><path class="cls-13" d="M63.08,62.06a9.9,9.9,0,0,0-1,.86,5.73,5.73,0,0,0-.9,1.13,6.31,6.31,0,0,0-.48,1.11c-.08.33-.13.61-.18.89a3.41,3.41,0,0,1,.7-.58c.33-.21.8-.45,1.25-.7a12.23,12.23,0,0,0,1.23-.86,6.81,6.81,0,0,0,1-1,1.75,1.75,0,0,0,.31-.83,1.88,1.88,0,0,0-.11-.72,3.55,3.55,0,0,0-.32-.61c-.15.16-.3.31-.54.53A11.43,11.43,0,0,1,63.08,62.06Z"/><path class="cls-13" d="M63.87,58.3A9.48,9.48,0,0,0,63,59a6.09,6.09,0,0,0-.84,1,3.58,3.58,0,0,0-.48.93,5.27,5.27,0,0,0-.19,1,7.45,7.45,0,0,0,0,.82c.25-.26.51-.52.83-.8s.72-.59,1.06-.88a9.87,9.87,0,0,0,.94-.88,6.44,6.44,0,0,0,.82-1,2.37,2.37,0,0,0,.31-.89,2.82,2.82,0,0,0,0-.72,4.44,4.44,0,0,0-.19-.62,6.78,6.78,0,0,1-.56.69C64.4,57.83,64.14,58.07,63.87,58.3Z"/><path class="cls-13" d="M63.61,64.63a11,11,0,0,1-1.15.75c-.42.25-.86.46-1.23.73a3.72,3.72,0,0,0-.9.92,5.58,5.58,0,0,0-.54.84,4.6,4.6,0,0,1,.77-.32l1.3-.3a6,6,0,0,0,1.24-.36,3,3,0,0,0,1-.63,2.07,2.07,0,0,0,.48-.74,1.54,1.54,0,0,0,.06-.66,2,2,0,0,0-.12-.5,1.31,1.31,0,0,0-.14-.29C64.14,64.24,63.91,64.4,63.61,64.63Z"/><path class="cls-13" d="M65.25,54.53a3.32,3.32,0,0,0-.15-.62,4.22,4.22,0,0,1-.47.55c-.25.24-.62.57-1,.9a7.5,7.5,0,0,0-1,1.06,3.64,3.64,0,0,0-.65,1.18,3.7,3.7,0,0,0-.18,1.11,4.15,4.15,0,0,0,.06.77,4.23,4.23,0,0,1,.31-.39,6.69,6.69,0,0,1,.65-.63l.88-.69a6.36,6.36,0,0,0,.94-1,4.16,4.16,0,0,0,.57-1.21A3.34,3.34,0,0,0,65.25,54.53Z"/><path class="cls-13" d="M65.37,49.86l.2.35c.05.13.11.27.15.39a10.3,10.3,0,0,0,.82-1.2,3.58,3.58,0,0,0,.43-.86,1.55,1.55,0,0,0,.08-.61,4.8,4.8,0,0,0-.09-.5c-.36.54-.7,1.07-1,1.47S65.55,49.59,65.37,49.86Z"/><path class="cls-13" d="M65.85,51.73a5.4,5.4,0,0,1-.12.72c-.06.24-.13.45-.2.68s.09.31.14.46c.1-.13.2-.24.34-.43a7.55,7.55,0,0,0,.45-.69,3.54,3.54,0,0,0,.31-.82,2.55,2.55,0,0,0,0-.83,2.83,2.83,0,0,0-.18-.58l-.73.95A3.23,3.23,0,0,1,65.85,51.73Z"/><path class="cls-13" d="M65.84,54.55a4.38,4.38,0,0,1-.07.71c0,.23-.12.43-.18.65a3.09,3.09,0,0,0,.29-.32c.09-.12.19-.28.28-.43a2.11,2.11,0,0,0,.17-.48,2,2,0,0,0,0-.55,2.54,2.54,0,0,0-.12-.61c-.13.16-.29.34-.44.5A2.15,2.15,0,0,1,65.84,54.55Z"/><path class="cls-14" d="M52.36,76.36a1.59,1.59,0,0,0,.64-.5,3.19,3.19,0,0,0,.31-.61l.33.08a.92.92,0,0,0,.3,0,1.71,1.71,0,0,0,.21-.07,2.3,2.3,0,0,0,.29.39A2,2,0,0,0,55,76a2,2,0,0,0,.78.16,2.1,2.1,0,0,0,.8-.13,3.46,3.46,0,0,0,.65-.38,2,2,0,0,0,.53.13,1.94,1.94,0,0,0,.78-.06,1.89,1.89,0,0,0,.68-.4,1.93,1.93,0,0,0,.35-.49,4.64,4.64,0,0,0,.92-.26,1.62,1.62,0,0,0,1-1.35,1.84,1.84,0,0,0,0-.52,4,4,0,0,0,.75-.27,2.52,2.52,0,0,0,.71-.64,2.24,2.24,0,0,0,.43-.84,3.89,3.89,0,0,0,.11-.85,6.21,6.21,0,0,0-.07-.68,5.27,5.27,0,0,0,.64-.6,2.11,2.11,0,0,0,.35-.78,2.5,2.5,0,0,0,.09-.73c0-.23,0-.41-.07-.58a3.47,3.47,0,0,0,.31-.29,2.85,2.85,0,0,0,.45-.64,2,2,0,0,0,.21-.83,2.75,2.75,0,0,0-.07-.87,5.72,5.72,0,0,0-.3-.76,4,4,0,0,0,.43-.58,1.91,1.91,0,0,0,.26-.7,2.39,2.39,0,0,0,0-.8,2.51,2.51,0,0,0-.21-.75A5.21,5.21,0,0,0,65.2,60a4.49,4.49,0,0,0,.48-.74,3.85,3.85,0,0,0,.28-1,4.26,4.26,0,0,0,0-1,8.4,8.4,0,0,0-.16-1.07,3.65,3.65,0,0,0,.58-.6,2.3,2.3,0,0,0,.34-.8,3.49,3.49,0,0,0,.06-.91c0-.29-.1-.58-.16-.85a3.65,3.65,0,0,0,.45-.74,2.75,2.75,0,0,0,.21-1,3.81,3.81,0,0,0-.09-.93,5,5,0,0,0-.21-.62,3,3,0,0,0,.47-.76,3.47,3.47,0,0,0,.26-1.18,5.78,5.78,0,0,0-.16-1.3,3.55,3.55,0,0,0,.36-.64,2.48,2.48,0,0,0,.13-.8,1.41,1.41,0,0,0-.17-.69,1.56,1.56,0,0,0-.34-.44,4.47,4.47,0,0,0,.31-.82,3.44,3.44,0,0,0,0-1,2,2,0,0,0-.26-.66,1.26,1.26,0,0,0-.27-.34,2.57,2.57,0,0,0,.27-.85,2.36,2.36,0,0,0-.15-1,2.18,2.18,0,0,0-.56-.67,2.4,2.4,0,0,0,.25-.82A2.36,2.36,0,0,0,67,36.66a4.19,4.19,0,0,0-.66-1.07,5.93,5.93,0,0,0,0-1,2.22,2.22,0,0,0-.27-.8,2,2,0,0,0-.39-.49,3.19,3.19,0,0,0-.43-.34A5.74,5.74,0,0,0,65,31.88a2.33,2.33,0,0,0-.52-.84,3.49,3.49,0,0,0-.66-.55,2.46,2.46,0,0,0-.51-.26,3.11,3.11,0,0,0-.21-.85,1.7,1.7,0,0,0-.54-.68,3.19,3.19,0,0,0-.75-.41,6.6,6.6,0,0,0-.22-.94,5.42,5.42,0,0,0-.49-1,3.39,3.39,0,0,0-.77-.82,3.64,3.64,0,0,0-.83-.43c-.2-.23-.38-.45-.62-.71a5.29,5.29,0,0,0-.78-.79,3.54,3.54,0,0,0-.9-.5,2.51,2.51,0,0,0-.65-.15A3.44,3.44,0,0,0,54,21.67a3.24,3.24,0,0,0-.64.11,4.1,4.1,0,0,0-.69-.44,3.34,3.34,0,0,0-1-.29,2.81,2.81,0,0,0-1,.11,3,3,0,0,0-.76.4,6.85,6.85,0,0,0-1.13-.27,2.68,2.68,0,0,0-1,.08,1.64,1.64,0,0,0-.57.33,2.38,2.38,0,0,0-.27.31,3.63,3.63,0,0,0-.65-.16,3.28,3.28,0,0,0-.94,0,2.32,2.32,0,0,0-1.41.79,1.75,1.75,0,0,0-.19.4,7.86,7.86,0,0,0-1.25.17,2.85,2.85,0,0,0-1,.46,1.84,1.84,0,0,0-.45.57,8.49,8.49,0,0,0-1.17.21,4.58,4.58,0,0,0-1.16.44,2.24,2.24,0,0,0-.72.61,4.56,4.56,0,0,0-.4.65,7.49,7.49,0,0,0-1.43.69,4.54,4.54,0,0,0-1.19,1.1,2.34,2.34,0,0,0-.42,1,3.17,3.17,0,0,0-.74.49,1.79,1.79,0,0,0-.43.68,4.71,4.71,0,0,0-.13.85c.52,0,1,0,1.63,0a18.49,18.49,0,0,0,1.9-.16,11.37,11.37,0,0,0,1.79-.39A5.32,5.32,0,0,0,40,29.77a6,6,0,0,0,1-1c.23,0,.46,0,.7-.07a2.57,2.57,0,0,0,.65-.2,3.36,3.36,0,0,0,.6-.3l-.33.31a4.43,4.43,0,0,0-.36.45,2.92,2.92,0,0,0-.2.46c-.06.15-.09.28-.14.42a9.07,9.07,0,0,0-1,.8,3.3,3.3,0,0,0-.68.85,3.24,3.24,0,0,0-.34.83,3,3,0,0,0-.09.58,4.6,4.6,0,0,0-.54.49,4.42,4.42,0,0,0-.58.74,3.24,3.24,0,0,0-.37.89,4.6,4.6,0,0,0-.14.84c0,.26,0,.46,0,.67-.17.27-.33.54-.46.77s-.21.44-.3.63a2.94,2.94,0,0,0-.13.67c0,.23,0,.47,0,.72a6.42,6.42,0,0,0-.53.86,3.2,3.2,0,0,0-.25.89,2.4,2.4,0,0,0,.05.82,1.88,1.88,0,0,0,.25.57,3.46,3.46,0,0,0-.46.82,2.4,2.4,0,0,0-.18,1,3.36,3.36,0,0,0,.19.85,2.82,2.82,0,0,0,.23.44c-.1.23-.21.45-.32.71a3.5,3.5,0,0,0-.26.9,3,3,0,0,0,0,1,3.68,3.68,0,0,0,.28.79,3.38,3.38,0,0,0-.25.67,2.61,2.61,0,0,0-.09,1,2,2,0,0,0,.23.74,2.32,2.32,0,0,0,.22.39c0,.22-.1.45-.14.7a4,4,0,0,0,0,.91,3.06,3.06,0,0,0,.27.89,3.53,3.53,0,0,0,.48.65,3.26,3.26,0,0,0-.08.57,2.08,2.08,0,0,0,.06.65,4.14,4.14,0,0,0,.18.6,3.49,3.49,0,0,0-.46.68,4,4,0,0,0-.32,1,3.22,3.22,0,0,0,0,.86,1.84,1.84,0,0,0,.43.93,8.62,8.62,0,0,0-.33.93,2.63,2.63,0,0,0,.12,1.76,1.76,1.76,0,0,0,.35.49c-.08.37-.14.75-.19,1.13a4.58,4.58,0,0,0,0,1.17,2.87,2.87,0,0,0,.39,1.06,4.46,4.46,0,0,0,.7.8,8.76,8.76,0,0,0-.12,1.33A2.73,2.73,0,0,0,38,70a1.76,1.76,0,0,0,.71.7,2.54,2.54,0,0,0,.76.23,5.31,5.31,0,0,0,.33,1,2.48,2.48,0,0,0,.56.73,2.09,2.09,0,0,0,.69.39,3.55,3.55,0,0,0,.72.09,2.91,2.91,0,0,0,.71.57,2.71,2.71,0,0,0,1,.27,4.52,4.52,0,0,0,1.1-.12,2.85,2.85,0,0,0,.67.56,2.72,2.72,0,0,0,.91.27,2.54,2.54,0,0,0,.79,0,1.62,1.62,0,0,0,.41.42,2.1,2.1,0,0,0,.65.33,3.05,3.05,0,0,0,.66.08,1.23,1.23,0,0,0,.31.53,1.67,1.67,0,0,0,.78.37,2,2,0,0,0,.77,0,3.29,3.29,0,0,0,.87.23A1.8,1.8,0,0,0,52.36,76.36Zm.44-1.26a1.5,1.5,0,0,1-.22.39.9.9,0,0,1-.37.25,1.08,1.08,0,0,1-.44,0,2,2,0,0,1-.42-.11,1.18,1.18,0,0,0,.12-.33,1.31,1.31,0,0,0,0-.4,1.8,1.8,0,0,0-.08-.35c0-.12-.09-.21-.12-.31a2.65,2.65,0,0,0,.39.42,1.51,1.51,0,0,0,.41.25,1.53,1.53,0,0,0,.39.11A1,1,0,0,0,52.8,75.1Zm2.63-45.88a3.32,3.32,0,0,0-.55-.29c.21,0,.41-.08.66-.11a2.87,2.87,0,0,1,.86.05,2.29,2.29,0,0,1,1,.48,3.69,3.69,0,0,1,.77,1,5.66,5.66,0,0,1,.48,1.1,9.29,9.29,0,0,1,.25.92c.07.27.14.48.21.71a6.23,6.23,0,0,1-1-.62,4.77,4.77,0,0,1-.86-.88,9.46,9.46,0,0,1-.55-.89,5.14,5.14,0,0,0-.54-.83A3.66,3.66,0,0,0,55.43,29.22Zm-4.17-.37a5.74,5.74,0,0,1,1-.57,4.63,4.63,0,0,1,1.34-.35,6.1,6.1,0,0,1,1.42,0,8.55,8.55,0,0,1,1.12.22,6.84,6.84,0,0,0-.91,0,4,4,0,0,0-.85.25,3.59,3.59,0,0,1-.89.25c-.34.05-.76.06-1.15.08S51.61,28.81,51.26,28.85Zm4.48,41.2c.12-.12.22-.25.43-.45a11.38,11.38,0,0,1,.93-.71,8.72,8.72,0,0,1,1.28-.73,8.27,8.27,0,0,1,1-.45,8.09,8.09,0,0,0-.71.72,7.06,7.06,0,0,0-.65.83,6.2,6.2,0,0,0-.37.62l-.39,0-.75.06Zm1.77.17-.36.24c-.12.06-.23.13-.37.19a1.54,1.54,0,0,1-.48.08,4.34,4.34,0,0,1-.63-.08,4.65,4.65,0,0,1-.54-.14,3,3,0,0,1,.41-.07l.85-.09Zm-3.21-.28-.48-.47L53.41,69a4.73,4.73,0,0,0,.75,0,3.43,3.43,0,0,0,.75-.16,6.08,6.08,0,0,0,.6-.25,2,2,0,0,1-.24.58,2.68,2.68,0,0,1-.49.52A2.6,2.6,0,0,1,54.3,69.94Zm3.16-1.89c-.35.17-.64.33-.93.49a4.6,4.6,0,0,1,.32-.74,4.46,4.46,0,0,1,.57-.84,3.6,3.6,0,0,1,.85-.71c.36-.22.8-.43,1.11-.63a4.56,4.56,0,0,0,.75-.56,1.31,1.31,0,0,0-.07.27,3.85,3.85,0,0,0-.08.49,3,3,0,0,1-.12.6,1.44,1.44,0,0,1-.42.59,4.47,4.47,0,0,1-.86.48Zm.78-26.32a1.83,1.83,0,0,0,.09.71,2,2,0,0,0,.27.48,3.22,3.22,0,0,0-.14.44,1.66,1.66,0,0,0-.06.56,2.26,2.26,0,0,0,.11.64,2.45,2.45,0,0,0,.24.46,3.58,3.58,0,0,0-.17.49,1.35,1.35,0,0,0,0,.53,1.41,1.41,0,0,0,.22.52,1.37,1.37,0,0,0,.31.36,5.53,5.53,0,0,0-.26.56,1.34,1.34,0,0,0-.08.59,1.83,1.83,0,0,0,.14.58,1.65,1.65,0,0,0,.29.38,2.71,2.71,0,0,0-.59,1.67,1.43,1.43,0,0,0,.1.46,3.19,3.19,0,0,0-.44.57,2,2,0,0,0-.27.71,1.27,1.27,0,0,0,0,.62,1.9,1.9,0,0,0,.23.45l-.45.4a3.5,3.5,0,0,0-.47.54,2.32,2.32,0,0,0-.32.68,1.54,1.54,0,0,0,0,.64,1.42,1.42,0,0,0,.13.44c-.26.3-.52.59-.73.86a2.74,2.74,0,0,0-.43.77,1.9,1.9,0,0,0-.11.75,1.46,1.46,0,0,0,.06.49,2.91,2.91,0,0,0-1.1,1.68,3.31,3.31,0,0,0,0,.62,2.16,2.16,0,0,0-.34-.17,4,4,0,0,0-.39-.11,1.88,1.88,0,0,0-.31,0,1,1,0,0,0-.2-.43,1,1,0,0,0-.46-.37,2.64,2.64,0,0,0-.67-.15,1.42,1.42,0,0,0-.06-.4A2.81,2.81,0,0,0,52,59a2.76,2.76,0,0,0-.61-.58,2,2,0,0,0-.52-.3,2.66,2.66,0,0,0,0-.49,1.62,1.62,0,0,0-.16-.62,2.34,2.34,0,0,0-.48-.66,2,2,0,0,0-.5-.31,3.3,3.3,0,0,0,0-.83,1.85,1.85,0,0,0-.31-.84,2,2,0,0,0-.58-.5,3.76,3.76,0,0,0,0-.47,3,3,0,0,0-.12-.52c-.07-.16-.15-.29-.23-.44a1.65,1.65,0,0,0,.37-.41,1.84,1.84,0,0,0,.27-.74,2.17,2.17,0,0,0,0-.88,3.45,3.45,0,0,0-.31-.77,3.56,3.56,0,0,0,.39-.57,2.61,2.61,0,0,0,.22-.75,2.15,2.15,0,0,0,0-.8,7.92,7.92,0,0,0-.26-.78,3.59,3.59,0,0,0,.74-.72,2.73,2.73,0,0,0,.44-1,2.61,2.61,0,0,0,0-1,3.19,3.19,0,0,0-.27-.77,4.56,4.56,0,0,0,.64-.69,1.94,1.94,0,0,0,.35-.81,2.43,2.43,0,0,0,0-.89,4.14,4.14,0,0,0-.19-.79,4.35,4.35,0,0,0,.49-.39,3,3,0,0,0,.56-.7,3.07,3.07,0,0,0,.35-.94,6.73,6.73,0,0,0,.12-.87,3.55,3.55,0,0,0,.43-.28,2,2,0,0,0,.34-.3,5.45,5.45,0,0,0,.79.14,2.85,2.85,0,0,0,.74,0,2.26,2.26,0,0,0,.45-.11,3.78,3.78,0,0,0,.52.69,2.22,2.22,0,0,0,.72.42,2.7,2.7,0,0,0,.64.13,3.5,3.5,0,0,0,.17.55,2.22,2.22,0,0,0,.27.5,3.44,3.44,0,0,0,.41.44,3.37,3.37,0,0,0,.43.34,1.85,1.85,0,0,0,0,.41,1.35,1.35,0,0,0,.06.35c0,.13.08.26.12.39a2,2,0,0,0-.1.26A2.36,2.36,0,0,0,58.24,41.73Zm.52-.46.24.54a3.52,3.52,0,0,1,.17.35l-.3.35a1.59,1.59,0,0,1-.16-.32,1.21,1.21,0,0,1,0-.43A2,2,0,0,1,58.76,41.27Zm.62,1.6c0,.14,0,.27,0,.41a4,4,0,0,0,.06.41,2.82,2.82,0,0,0,.09.3l-.41.52A2,2,0,0,1,59,44a1.51,1.51,0,0,1,.09-.6A2.28,2.28,0,0,1,59.38,42.87Zm.29,1.81a.69.69,0,0,0,.07.34,2.7,2.7,0,0,0,.24.44,1.66,1.66,0,0,0,.28.3c-.13.12-.27.23-.39.35s-.24.22-.36.34a1.18,1.18,0,0,1-.2-.31,1,1,0,0,1-.07-.47,1.4,1.4,0,0,1,.14-.5A3.5,3.5,0,0,1,59.67,44.68Zm0,7.7-.76.63a1,1,0,0,1-.12-.35,1,1,0,0,1,.11-.53,2.34,2.34,0,0,1,.42-.62,8.75,8.75,0,0,1,.69-.67c.25-.19.51-.36.74-.54a4.36,4.36,0,0,1-.13.83,1.72,1.72,0,0,1-.35.67A5.59,5.59,0,0,1,59.64,52.38Zm1.19-.3c0,.32-.08.62-.15.94a2.41,2.41,0,0,1-.41,1,4.48,4.48,0,0,1-1,.85c-.36.25-.7.46-1,.63s-.43.3-.61.41a2.05,2.05,0,0,1,0-.74,2,2,0,0,1,.52-.79,7.72,7.72,0,0,1,.89-.82l.81-.72ZM59.34,50.6a1.59,1.59,0,0,1,0-.39,2.33,2.33,0,0,1,.21-.61A3.72,3.72,0,0,1,60,49a4.06,4.06,0,0,1,.47-.46.66.66,0,0,1,.12.17l.13.18a1,1,0,0,0,0,.19,2,2,0,0,0-.06.3,1.41,1.41,0,0,1,0,.29c-.18.12-.37.24-.59.4S59.57,50.41,59.34,50.6Zm.23-2a1.27,1.27,0,0,1-.17-.35,1.21,1.21,0,0,1,0-.5,1.44,1.44,0,0,1,.25-.55,3.09,3.09,0,0,1,.37-.43,4.64,4.64,0,0,0,0,.53,1.51,1.51,0,0,0,.08.45,1.33,1.33,0,0,0,.12.29l-.35.25A3.11,3.11,0,0,0,59.57,48.65ZM48.93,55.17c0-.19-.06-.31-.09-.44a1.16,1.16,0,0,1,.26.42,2,2,0,0,1,.08.7A7.05,7.05,0,0,1,49,56.91c-.07.41-.16.88-.24,1.26s-.14.66-.21,1a2.7,2.7,0,0,0-.07-.41,3.89,3.89,0,0,0-.16-.41,7.47,7.47,0,0,0,.28-.73,7.21,7.21,0,0,0,.21-.86,6.81,6.81,0,0,0,.1-.84A5.13,5.13,0,0,0,48.93,55.17Zm-1.46.06a4.93,4.93,0,0,1-1,1c-.41.31-.88.58-1.22.83a6.87,6.87,0,0,0-.8.64,3.89,3.89,0,0,0-.36.37,3.33,3.33,0,0,1,0-.76,4.24,4.24,0,0,1,.34-1,3.92,3.92,0,0,1,.72-1,8.23,8.23,0,0,1,1.06-.91l1-.7c.27-.22.48-.41.69-.61a1.12,1.12,0,0,1,.14.35,2.19,2.19,0,0,1,0,.8A2.75,2.75,0,0,1,47.47,55.23Zm1.84,3c.09-.49.16-.95.25-1.41a1.41,1.41,0,0,1,.49.39,1.65,1.65,0,0,1,.21.87,11.56,11.56,0,0,1-.17,1.52c-.09.53-.16,1-.2,1.41a9.82,9.82,0,0,0-.06,1,3.73,3.73,0,0,1-.45-.85,4.6,4.6,0,0,1-.26-1.4A8,8,0,0,1,49.31,58.26Zm1.15,3.85a4.45,4.45,0,0,1,0-1.15c.06-.39.14-.8.19-1.11a7.74,7.74,0,0,0,.11-.79,1.57,1.57,0,0,1,.45.35,1.68,1.68,0,0,1,.4.74,3.35,3.35,0,0,1,.11,1.06c0,.36-.05.7-.07,1a5.81,5.81,0,0,0,0,1,3.22,3.22,0,0,0,.13.64c0,.15.12.27.17.39a2.75,2.75,0,0,1-.55-.34,3.33,3.33,0,0,1-.64-.79A2.9,2.9,0,0,1,50.46,62.11Zm2.1,2.08a2.45,2.45,0,0,1-.31-.88,6.18,6.18,0,0,1,0-1.3c0-.44.1-.84.15-1.23a1.91,1.91,0,0,1,.51.13,1.06,1.06,0,0,1,.41.45,1.89,1.89,0,0,1,.14.79c0,.31,0,.66-.06.92a3.36,3.36,0,0,0,0,.64,3,3,0,0,0,.14.45l-.3.21a3.08,3.08,0,0,0-.27.24A1.59,1.59,0,0,1,52.56,64.19Zm2.12.18A9.25,9.25,0,0,1,56,63.79c.53-.19,1.1-.34,1.54-.48a5.79,5.79,0,0,0,1-.42c-.06.18-.09.35-.17.54a1.87,1.87,0,0,1-.34.56,2.43,2.43,0,0,1-.61.51,4.39,4.39,0,0,1-1,.41c-.42.16-1,.32-1.46.47s-.88.28-1.15.39-.45.15-.6.21a.9.9,0,0,1,.09-.41,2.32,2.32,0,0,1,.46-.63A3.7,3.7,0,0,1,54.68,64.37Zm1.7-1.45c-.5.16-1,.33-1.41.5a7.88,7.88,0,0,0-1,.49,6.12,6.12,0,0,1,.29-.81,2.76,2.76,0,0,1,.58-.81,3.07,3.07,0,0,1,.94-.59A8.09,8.09,0,0,1,57,61.27c.42-.14.89-.26,1.33-.4s.82-.33,1.22-.5a2.34,2.34,0,0,1-.19.71,2.23,2.23,0,0,1-.57.7,3.68,3.68,0,0,1-1,.66C57.36,62.62,56.87,62.75,56.38,62.92Zm-.11-26.13a1.77,1.77,0,0,1-.54-.58,2.16,2.16,0,0,1-.21-.78,2.29,2.29,0,0,1,0-.69,4.56,4.56,0,0,1,.16-.69c.11,0,.24,0,.4,0l.51-.09.42-.12a2.31,2.31,0,0,1,.06,1.31c-.06.29-.16.62-.2.93a4.12,4.12,0,0,0,0,.93A2.14,2.14,0,0,1,56.27,36.79Zm-2.57-.93c.07-.07.12-.15.24-.27a5.5,5.5,0,0,1,.42-.45,3.81,3.81,0,0,1,.42-.39c0,.13,0,.27,0,.42a2.46,2.46,0,0,0,.06.44c0,.13.06.2.08.27a1.22,1.22,0,0,1-.31.06,1.54,1.54,0,0,1-.43,0A1.71,1.71,0,0,1,53.7,35.86Zm-1.09-2.43c.41.09.81.2,1.13.28l.83.22a2.21,2.21,0,0,1-.49.47,2.47,2.47,0,0,1-.83.37,8.7,8.7,0,0,1-1.16.2l-1.21.17c-.36.06-.64.11-.89.17a6.06,6.06,0,0,0-.67.21c-.18.06-.32.13-.46.19,0-.15,0-.3,0-.51a2.85,2.85,0,0,1,.14-.72,1.68,1.68,0,0,1,.46-.67,1.88,1.88,0,0,1,.78-.46,3.21,3.21,0,0,1,1.11-.12A5.77,5.77,0,0,1,52.61,33.43Zm-2.09,2.31a9,9,0,0,1,1.53-.25,10.2,10.2,0,0,1,1.23,0,3.31,3.31,0,0,1-.39.59,5.31,5.31,0,0,1-.79.69,7,7,0,0,1-1.13.68,10.65,10.65,0,0,1-1.37.5,8.66,8.66,0,0,1-1.25.27,2.77,2.77,0,0,1-.72,0,3.38,3.38,0,0,1-.38-.06,3.83,3.83,0,0,1,.22-.68,2.63,2.63,0,0,1,.58-.71,4.31,4.31,0,0,1,1-.58A8.87,8.87,0,0,1,50.52,35.74ZM50,38.27c.41-.13.74-.26,1-.35l.53-.27a5.23,5.23,0,0,1-.17.74,3,3,0,0,1-.42.81,3.87,3.87,0,0,1-.76.75,7.69,7.69,0,0,1-1.12.72,11.71,11.71,0,0,1-1.16.54l-1,.35c-.28.09-.49.19-.66.26l-.34.2a5.44,5.44,0,0,1,.15-.93,4.18,4.18,0,0,1,.46-1,3,3,0,0,1,.87-.82,4.5,4.5,0,0,1,1.23-.56C49,38.54,49.51,38.4,50,38.27Zm-2.66,3.78c.54-.25,1.23-.55,1.72-.8a9,9,0,0,0,1.1-.61,1.94,1.94,0,0,1,.17.66,1.68,1.68,0,0,1-.21.83,2.39,2.39,0,0,1-.74.87c-.4.29-.95.61-1.48.92s-1.07.62-1.46.89-.68.5-1,.73a5.06,5.06,0,0,1-.1-.75,3.12,3.12,0,0,1,.15-1,2.46,2.46,0,0,1,.64-1A4.72,4.72,0,0,1,47.29,42.05Zm-.58,3.19a12.52,12.52,0,0,1,1.11-.68c.44-.26,1-.54,1.5-.82a1.85,1.85,0,0,1,.32.39,1.31,1.31,0,0,1,.15.58,1.29,1.29,0,0,1-.26.77,4.42,4.42,0,0,1-.89.91,11.43,11.43,0,0,1-1.31.86c-.48.29-1,.57-1.4.84s-.69.51-1,.75a2.22,2.22,0,0,1-.14-.7,2.8,2.8,0,0,1,.2-1,3.28,3.28,0,0,1,.67-1A7.5,7.5,0,0,1,46.71,45.24Zm-.6,3.47c.38-.26.81-.5,1.2-.74s.76-.49,1.12-.72a1.31,1.31,0,0,1,.22.49,1.53,1.53,0,0,1,0,.82,1.94,1.94,0,0,1-.55.83,6.79,6.79,0,0,1-1,.83,12.28,12.28,0,0,1-1.21.68,9,9,0,0,0-1.05.59,4.7,4.7,0,0,0-.74.63,4.83,4.83,0,0,1,.13-.74,4,4,0,0,1,.35-1,3.86,3.86,0,0,1,.62-.91A5.94,5.94,0,0,1,46.11,48.71Zm-.27,2.95c.45-.26,1-.53,1.32-.72a4.76,4.76,0,0,0,.65-.39c.15-.11.24-.21.36-.31a1.77,1.77,0,0,1,.16.59,1.32,1.32,0,0,1-.26.86,5.16,5.16,0,0,1-1,1c-.45.34-.95.7-1.38,1a12.4,12.4,0,0,0-1,.82,5.28,5.28,0,0,0-.54.67c-.13.19-.22.37-.33.55a4.74,4.74,0,0,1-.1-.89,3.72,3.72,0,0,1,.21-1.17,3.34,3.34,0,0,1,.75-1.12A5.62,5.62,0,0,1,45.84,51.66ZM43,55.41a3.82,3.82,0,0,1-.21.92,3.24,3.24,0,0,1-.47.9,8.37,8.37,0,0,1-.84.85c-.33.3-.67.61-.9.86a6.44,6.44,0,0,0-.5.63,3.91,3.91,0,0,1-.24-.87,2.72,2.72,0,0,1,.14-1.17,3.46,3.46,0,0,1,.75-1.18,7,7,0,0,1,1.18-1c.39-.28.74-.52,1.09-.75A4.49,4.49,0,0,1,43,55.41ZM41.18,59c.33-.31.69-.58,1-.83a4.28,4.28,0,0,0,.58-.63l.28-.36c0,.33,0,.66,0,1a3.91,3.91,0,0,1,.06.83,2,2,0,0,1-.33.92,7,7,0,0,1-.93,1c-.38.34-.78.69-1.06,1a3.38,3.38,0,0,0-.46.57l-.15.27c-.06-.25-.12-.51-.17-.79a3,3,0,0,1,0-.9,3.15,3.15,0,0,1,.38-1.06A4.38,4.38,0,0,1,41.18,59Zm3,.5a2.78,2.78,0,0,1,.65-1,9.14,9.14,0,0,1,1.2-1c.46-.35,1-.68,1.31-1a6.24,6.24,0,0,0,.8-.9,2.9,2.9,0,0,1,.08.58,2.56,2.56,0,0,1-.11.87,3.55,3.55,0,0,1-.49,1,6.78,6.78,0,0,1-1,1.08c-.39.36-.84.69-1.21,1a7.77,7.77,0,0,0-.91.83,5.14,5.14,0,0,0-.56.77,6.94,6.94,0,0,1,0-1A5,5,0,0,1,44.22,59.48Zm.53,2.18a2.81,2.81,0,0,1,.53-.7,7.56,7.56,0,0,1,.86-.74c.34-.24.73-.5,1-.73s.53-.43.76-.64a3.56,3.56,0,0,1,0,.74,2.68,2.68,0,0,1-.29.9,3,3,0,0,1-.66.86,9.69,9.69,0,0,1-.86.81,9.25,9.25,0,0,0-.9.86,7.15,7.15,0,0,0-.61.85,2.91,2.91,0,0,1-.16-.54,2.81,2.81,0,0,1,0-.82A2.93,2.93,0,0,1,44.75,61.66Zm1.15,1.7a8.16,8.16,0,0,1,.89-.73c.29-.23.53-.43.73-.62a4.32,4.32,0,0,0,.42-.51,3.08,3.08,0,0,1,.23.88,2.25,2.25,0,0,1-.12,1,2.47,2.47,0,0,1-.65,1c-.36.39-.89.82-1.28,1.16a5.08,5.08,0,0,0-.75.85,3.44,3.44,0,0,0-.3.51,3.5,3.5,0,0,1-.2-.74,2.86,2.86,0,0,1,0-.92,3.26,3.26,0,0,1,.33-1A3.58,3.58,0,0,1,45.9,63.36ZM49.26,63a1.54,1.54,0,0,1,.24.46,1.61,1.61,0,0,1,0,.71,2.71,2.71,0,0,1-.23.76,3,3,0,0,1-.21.41c0-.19,0-.38,0-.54a1.87,1.87,0,0,0-.09-.39c0-.13-.09-.25-.12-.38l.17-.32c0-.12.1-.25.14-.37A2.46,2.46,0,0,0,49.26,63Zm-3.37,3.82a9.59,9.59,0,0,1,1-1c.37-.31.73-.56,1-.75s.38-.31.51-.43a2.55,2.55,0,0,1,.18.79,3.23,3.23,0,0,1-.12,1,2.82,2.82,0,0,1-.48,1,11.31,11.31,0,0,1-.87,1,7.45,7.45,0,0,0-.7.9,5.4,5.4,0,0,0-.4.72,2.93,2.93,0,0,1-.37-.44,2.13,2.13,0,0,1-.33-.76,2.56,2.56,0,0,1,.06-1A3.53,3.53,0,0,1,45.89,66.82Zm3.41.41a2.66,2.66,0,0,1-.06-.79,2.24,2.24,0,0,1,.19-.76,3.83,3.83,0,0,1,.31-.64,3,3,0,0,1,.22-.36,5.49,5.49,0,0,1,.22.91,3,3,0,0,1,0,.94,3.5,3.5,0,0,1-.31.83c-.13.25-.24.44-.35.64A5.69,5.69,0,0,1,49.3,67.23Zm2-.81a5.85,5.85,0,0,0-.34-.48,1.37,1.37,0,0,0-.28-.27,5.32,5.32,0,0,0-.14-.78,4.68,4.68,0,0,0-.28-.69,3.3,3.3,0,0,0-.21-.3,2.83,2.83,0,0,0-.13-.5,2.94,2.94,0,0,0-.2-.44c-.09-.13-.17-.27-.27-.39s-.19-.26-.29-.4a1,1,0,0,0,.21.17,1.69,1.69,0,0,0,.29.17,1,1,0,0,0,.27.1c.08.21.15.41.26.65a3.09,3.09,0,0,0,.45.66,2.44,2.44,0,0,0,.62.5,2.1,2.1,0,0,0,.58.24l.48.12.28.28c0,.12-.09.24-.12.37s0,.29-.07.44,0,.3,0,.45l-.44.25-.48.29C51.46,66.73,51.41,66.59,51.32,66.42Zm1.44.57A6,6,0,0,1,54,66.4c.47-.18.94-.3,1.38-.43l1.12-.35c.29-.1.44-.18.6-.24a4,4,0,0,1-.17.71,2.58,2.58,0,0,1-.58.9,3.3,3.3,0,0,1-1.12.71,3.89,3.89,0,0,1-1.24.27,3.57,3.57,0,0,1-1.16-.08,1.84,1.84,0,0,1-.68-.39A4.63,4.63,0,0,1,52.76,67Zm5.81-1.62c-.36.21-.64.39-.92.57a10.82,10.82,0,0,1,.59-1.23,4.14,4.14,0,0,1,.71-.94,5,5,0,0,1,.81-.65c.31-.18.66-.35,1-.52a3.4,3.4,0,0,1,0,.48,2.15,2.15,0,0,1-.25.8,2.71,2.71,0,0,1-.82.79C59.36,64.91,58.93,65.17,58.57,65.37Zm1.16-2.87c-.21.12-.42.28-.62.42l0-.34c0-.13,0-.27,0-.39a2.63,2.63,0,0,0,.25-.29c.1-.12.21-.29.33-.43a2.1,2.1,0,0,1,.48-.42c.24-.18.58-.4.94-.62a5.06,5.06,0,0,0-.29.71c-.08.24-.12.46-.2.63a.76.76,0,0,1-.32.39C60.19,62.27,60,62.37,59.73,62.5Zm.79-2.1-.45.3a2.27,2.27,0,0,1,.06-.25l0-.23,0-.17c.12-.12.24-.21.37-.33a2.93,2.93,0,0,0,.35-.36c.1-.11.15-.2.22-.29,0,.07,0,.15,0,.23a1.92,1.92,0,0,0,0,.32c0,.09,0,.18.07.28s-.21.14-.33.24S60.66,60.31,60.52,60.4Zm-.62-1.27a2.65,2.65,0,0,1-.84.72,7,7,0,0,1-1.25.51l-1.28.39c-.4.14-.8.3-1.18.46a2,2,0,0,1,.1-.54,2.1,2.1,0,0,1,.45-.76A5.41,5.41,0,0,1,57,59.06a10.71,10.71,0,0,1,1.59-.78,19.3,19.3,0,0,1,1.86-.61,5.07,5.07,0,0,1-.16.68A2.31,2.31,0,0,1,59.9,59.13ZM58.51,57.5c-.43.21-.84.43-1.14.61a5,5,0,0,0-.68.46.86.86,0,0,1,0-.44,2.23,2.23,0,0,1,.34-.8,4.23,4.23,0,0,1,.95-.94c.43-.32,1-.66,1.41-.94s.8-.49,1.13-.72a2.59,2.59,0,0,1,.08.66,1.93,1.93,0,0,1-.24.83,1.63,1.63,0,0,1-.67.66C59.39,57.08,58.94,57.28,58.51,57.5Zm2.85-1a2.64,2.64,0,0,1,0-.9,3.69,3.69,0,0,1,.46-1.19,6.47,6.47,0,0,1,.88-1.21c.39-.42.86-.9,1.25-1.37a12.48,12.48,0,0,0,1-1.3,1.79,1.79,0,0,1,.34.59,3.18,3.18,0,0,1,.07.88,2.13,2.13,0,0,1-.18.81,4.27,4.27,0,0,1-.65,1.06,9,9,0,0,1-1.09,1c-.39.32-.77.62-1,.9a4.67,4.67,0,0,0-.61.75,3.89,3.89,0,0,0-.23.44A2.63,2.63,0,0,1,61.36,56.48Zm2-4.94c-.41.47-.76.78-1,1.08a5.67,5.67,0,0,0-.64.82,3.05,3.05,0,0,0-.28.51,13.24,13.24,0,0,1,0-1.43,3.24,3.24,0,0,1,.27-1.07,3.55,3.55,0,0,1,.51-.89,6.59,6.59,0,0,1,.66-.74l.7-.71a10,10,0,0,0,.68-.78,7.34,7.34,0,0,0,.49-.79c.06.14.13.26.19.4a1.81,1.81,0,0,1,.12.46,2,2,0,0,1,0,.67,2.7,2.7,0,0,1-.47,1A14.74,14.74,0,0,1,63.31,51.54Zm.49-3.81a7,7,0,0,1-1,1.1c-.29.29-.54.5-.74.72a4.4,4.4,0,0,0-.53.69,4.76,4.76,0,0,0-.34.62c0-.25,0-.51,0-.81A3.43,3.43,0,0,1,61.26,49a3.83,3.83,0,0,1,.56-1.18,9.51,9.51,0,0,1,.89-1.12c.31-.35.62-.66.82-.9a3,3,0,0,0,.46-.64,5.37,5.37,0,0,0,.21-.56,2.22,2.22,0,0,1,.19.65,4.53,4.53,0,0,1,0,1.2A3.74,3.74,0,0,1,63.8,47.73ZM63,45.42c-.26.34-.54.62-.84,1a7.91,7.91,0,0,0-.8,1,4.57,4.57,0,0,0-.44.84,1.68,1.68,0,0,1-.21-.56,3.8,3.8,0,0,1,0-1.09,4.75,4.75,0,0,1,.38-1.39,8.11,8.11,0,0,1,.79-1.35c.27-.38.52-.68.73-1a6.43,6.43,0,0,0,.45-.78,2.14,2.14,0,0,0,.16-.5,2.49,2.49,0,0,1,.63,1.57,2.82,2.82,0,0,1-.19,1.11A5,5,0,0,1,63,45.42Zm-.92-2.79a12,12,0,0,1-.77,1.07,7.39,7.39,0,0,0-.49.69,5,5,0,0,0-.27.58,1.77,1.77,0,0,1-.42-.55A3.49,3.49,0,0,1,60,43.29a4.84,4.84,0,0,1,.23-1.44,10.15,10.15,0,0,1,.62-1.6c.26-.52.53-1,.71-1.34a5.44,5.44,0,0,0,.31-.86,3.6,3.6,0,0,1,.67.87,3.1,3.1,0,0,1,.29,1.16,4.19,4.19,0,0,1-.15,1.31A4.86,4.86,0,0,1,62.11,42.63Zm-1.23-3.91c-.2.45-.49,1-.7,1.38a11,11,0,0,0-.46,1,6.76,6.76,0,0,0-.22.79,5.15,5.15,0,0,1-.27-.64,4.9,4.9,0,0,1-.27-1,5.66,5.66,0,0,1-.05-1.37,4.23,4.23,0,0,1,.36-1.21c.18-.41.39-.83.54-1.28a4.52,4.52,0,0,0,.25-1.27,3.06,3.06,0,0,0-.11-.91,3.46,3.46,0,0,1,.81.69,3,3,0,0,1,.55,1.19,4,4,0,0,1,0,1.38A5.39,5.39,0,0,1,60.88,38.72ZM59.4,34.83a2.16,2.16,0,0,1-.06,1,12.22,12.22,0,0,1-.41,1.2c-.14.39-.27.75-.35,1a4.14,4.14,0,0,0-.16.63,3.17,3.17,0,0,1-.51-.71,2.8,2.8,0,0,1-.36-1.11,3.93,3.93,0,0,1,.13-1.16c.08-.35.18-.63.21-.9a2.81,2.81,0,0,0,0-.73,2.41,2.41,0,0,0-.18-.48,2.9,2.9,0,0,1,.68.13,1.81,1.81,0,0,1,.69.43A1.32,1.32,0,0,1,59.4,34.83Zm-4.73-1.52c-.44,0-.93-.1-1.4-.18L52,32.87a8.09,8.09,0,0,0-1.12-.12,4.31,4.31,0,0,0-.85.1c.09-.2.16-.39.27-.6a2,2,0,0,1,.46-.67,2.21,2.21,0,0,1,.76-.47,1.67,1.67,0,0,1,.87-.07,3,3,0,0,1,1,.28,4.58,4.58,0,0,1,.84.6c.27.22.53.45.72.63s.35.29.49.41.33.23.5.33A10,10,0,0,1,54.67,33.31Zm1.51-.54a3.38,3.38,0,0,1-1.08-.61c-.35-.27-.66-.6-1-.87A5.57,5.57,0,0,0,53,30.64a4,4,0,0,0-.76-.22,5.38,5.38,0,0,1,.82-.56,2,2,0,0,1,1-.28,2.5,2.5,0,0,1,1,.2,2.33,2.33,0,0,1,.71.45,3.52,3.52,0,0,1,.54.69c.16.27.3.56.46.83a4.45,4.45,0,0,0,.53.69c.17.18.35.33.52.48-.2,0-.4,0-.67,0A2.72,2.72,0,0,1,56.18,32.77Zm-3.74-3.21c-.22.13-.42.3-.65.45a4.08,4.08,0,0,1-.75.42,7.16,7.16,0,0,1-1.13.33l-1.36.33a8.18,8.18,0,0,0-.85.29l.66-.57a7.4,7.4,0,0,1,2-1.28,4.52,4.52,0,0,1,1.27-.29,14.6,14.6,0,0,1,1.48,0A5.45,5.45,0,0,0,52.44,29.56Zm-2.16,1.68a3.21,3.21,0,0,0-.38.46,7.36,7.36,0,0,1-.45.74,2.54,2.54,0,0,1-.77.71,8.3,8.3,0,0,1-1.25.55c-.47.16-1,.34-1.36.5s-.65.32-.93.46A10.68,10.68,0,0,1,46,33.34a3.85,3.85,0,0,1,1.2-1,10.25,10.25,0,0,1,1.66-.66ZM47.2,34.53l1.16-.41-.19.65a1.87,1.87,0,0,1-.21.67,2.51,2.51,0,0,1-.75.65c-.34.22-.82.47-1.32.74s-1.07.53-1.5.77a10.19,10.19,0,0,0-1,.68,10.27,10.27,0,0,1,.51-1.2,5.53,5.53,0,0,1,.8-1.15,4.32,4.32,0,0,1,1.16-.84A11.22,11.22,0,0,1,47.2,34.53Zm-1.81,3.19c.57-.31,1.15-.6,1.73-.88a4,4,0,0,0-.32.57c-.11.25-.24.6-.41.94a4.38,4.38,0,0,1-.68.92,4.1,4.1,0,0,1-1,.74c-.37.21-.8.39-1.21.58l-1.19.53a3.28,3.28,0,0,1,.12-.94,2.5,2.5,0,0,1,.48-.83,4.09,4.09,0,0,1,.88-.72A17.36,17.36,0,0,1,45.39,37.72ZM44,41c.52-.27,1-.57,1.54-.85a4.4,4.4,0,0,0-.25.58c-.07.21-.14.44-.2.68a1.57,1.57,0,0,1-.33.72,4.19,4.19,0,0,1-1,.7c-.4.23-.86.48-1.24.72s-.69.46-1,.68c0-.25.05-.49.07-.76a3.63,3.63,0,0,1,.21-.88,2.05,2.05,0,0,1,.74-.81A12.77,12.77,0,0,1,44,41Zm-.56,2.69,1.27-.73c-.06.27-.14.53-.2.79a4.35,4.35,0,0,1-.22.76,1.87,1.87,0,0,1-.48.74,4.71,4.71,0,0,1-1,.78c-.41.26-.85.49-1.16.68a5.86,5.86,0,0,0-.69.4c0-.22,0-.46.09-.74a3.69,3.69,0,0,1,.26-.91,2.27,2.27,0,0,1,.71-.87A13.56,13.56,0,0,1,43.42,43.66ZM42,47.06c.37-.22.77-.43,1.14-.68s.73-.52,1.09-.78c0,.21,0,.43-.05.63a6.1,6.1,0,0,1-.12.68,2.52,2.52,0,0,1-.37.76,3.63,3.63,0,0,1-.74.72,10,10,0,0,1-.9.59c-.33.19-.66.41-.93.6a5.62,5.62,0,0,0-.6.58,8.68,8.68,0,0,1,0-1.36,2,2,0,0,1,.45-1A4.51,4.51,0,0,1,42,47.06Zm-.52,3.08a12.18,12.18,0,0,1,1.24-.83c.4-.26.73-.44,1.07-.63a6.4,6.4,0,0,1,0,1,2.89,2.89,0,0,1-.35,1.1,3.11,3.11,0,0,1-1,.88c-.41.31-.93.66-1.29,1a5.09,5.09,0,0,0-.81.72,5,5,0,0,1,0-1.1A2.57,2.57,0,0,1,40.66,51,3,3,0,0,1,41.52,50.14ZM42,52.75c.43-.34.87-.64,1.32-.94,0,.3-.06.6-.1.9a2.73,2.73,0,0,1-.27,1,2.88,2.88,0,0,1-.8.89,11.15,11.15,0,0,1-1.07.67,7.45,7.45,0,0,0-.83.62,3.51,3.51,0,0,0-.43.5,2.38,2.38,0,0,1,0-.57,4.29,4.29,0,0,1,.26-.93,3.87,3.87,0,0,1,.72-1.05A10.18,10.18,0,0,1,42,52.75Zm-2.82,4.07a7.66,7.66,0,0,0-.06.94c0,.29,0,.51,0,.72a2.49,2.49,0,0,0-.19.24c-.09.11-.21.29-.32.46s-.16.33-.23.48a2.66,2.66,0,0,1-.25-.65,2.58,2.58,0,0,1,0-.79,3,3,0,0,1,.24-.81,3.61,3.61,0,0,1,.42-.73c.16-.23.35-.47.54-.71C39.24,56.24,39.19,56.51,39.16,56.82Zm.08,2.34a3.45,3.45,0,0,0,.18.51,5,5,0,0,0,.28.49,4.39,4.39,0,0,0-.13.52c0,.18,0,.37,0,.56a4.64,4.64,0,0,0-.25.42,3.28,3.28,0,0,0-.19.37,6.81,6.81,0,0,1-.31-.74,2.05,2.05,0,0,1-.07-.74,2,2,0,0,1,.17-.76A4.82,4.82,0,0,1,39.24,59.16Zm.38,2.62c0,.17,0,.34.07.51s.1.37.15.51.1.24.14.34-.08.38-.1.55a5,5,0,0,0,0,.54c0,.17,0,.31.05.47-.08-.14-.18-.28-.28-.47a2.57,2.57,0,0,1-.29-.71,2.19,2.19,0,0,1-.06-.8,3.1,3.1,0,0,1,.17-.63A2.86,2.86,0,0,1,39.62,61.78Zm.71,2.38a2.32,2.32,0,0,1,.2-.88,3.73,3.73,0,0,1,.63-1,10.05,10.05,0,0,1,1-1c.35-.33.68-.61,1-.88a4.65,4.65,0,0,0-.09.76c0,.26,0,.54,0,.8a1.24,1.24,0,0,1-.22.72,4.51,4.51,0,0,1-.61.74c-.23.22-.45.4-.67.63a4.93,4.93,0,0,0-.63.74,5.38,5.38,0,0,0-.37.71A3.15,3.15,0,0,1,40.4,65,2.8,2.8,0,0,1,40.33,64.16Zm1.07,1.16a6.15,6.15,0,0,1,.81-1.08c.38-.41.86-.89,1.34-1.37a3.58,3.58,0,0,0,.08.7c0,.27.11.57.12.83a1.38,1.38,0,0,1-.21.74,4.94,4.94,0,0,1-.67.73,8.5,8.5,0,0,0-.71.8,3.63,3.63,0,0,0-.38.77,2.7,2.7,0,0,0-.12.56,3.57,3.57,0,0,1-.44-.79,2.31,2.31,0,0,1-.13-.95A2.09,2.09,0,0,1,41.4,65.32ZM42.63,67a4.07,4.07,0,0,1,.71-.82,7.16,7.16,0,0,1,.75-.63,4.29,4.29,0,0,1,.1.48,4.8,4.8,0,0,1,.07.84,4.08,4.08,0,0,1-.12,1,2.38,2.38,0,0,1-.44.85,5.88,5.88,0,0,1-.63.67,4.37,4.37,0,0,0-.38.51l-.15.29a3.64,3.64,0,0,1-.38-.93,2.93,2.93,0,0,1,0-1.18A3.16,3.16,0,0,1,42.63,67Zm1.09,2.64a6.64,6.64,0,0,0,.49-.62,3.12,3.12,0,0,0,.3-.61c.05-.19.08-.34.12-.48A4.8,4.8,0,0,0,44.7,69c.07.34.21.67.29,1a2.21,2.21,0,0,1,.08.79,2.19,2.19,0,0,1-.19.72c-.09.21-.21.39-.29.58a3.07,3.07,0,0,0-.16.43.43.43,0,0,0,0,.15,1.55,1.55,0,0,1-.53-.14,1.38,1.38,0,0,1-.49-.45,1.34,1.34,0,0,1-.31-.73,1.81,1.81,0,0,1,.15-.91A3,3,0,0,1,43.72,69.67Zm2.89.83a4.11,4.11,0,0,1,.68-1.06c.24-.28.44-.48.65-.69s.42-.48.64-.73c.08.14.16.26.25.45a2,2,0,0,1,.16.75,2.16,2.16,0,0,1-.23,1.15,9.91,9.91,0,0,1-.95,1.31,8.8,8.8,0,0,0-.64.95,8.15,8.15,0,0,0-.34.76,8.24,8.24,0,0,1-.35-.81,2.89,2.89,0,0,1-.14-.93A3.19,3.19,0,0,1,46.61,70.5Zm3.29-.21a3.19,3.19,0,0,1-.21-.82,2.55,2.55,0,0,1,.06-.83,3.19,3.19,0,0,1,.34-.72c.13-.23.26-.44.36-.66a4.43,4.43,0,0,0,.19-.69,4.42,4.42,0,0,1,.3.66,2.63,2.63,0,0,1,.13.86,3.27,3.27,0,0,1-.23,1c-.11.32-.26.61-.37.86a3.86,3.86,0,0,0-.2.65c0,.18,0,.31-.06.46C50.1,70.79,50,70.54,49.9,70.29Zm.85.38a10.85,10.85,0,0,1,.4-1,4.29,4.29,0,0,0,.27-.78,6.26,6.26,0,0,0,.12-.69,5.7,5.7,0,0,1,.36.85,4.14,4.14,0,0,1,.17.92,5.47,5.47,0,0,1-.1,1c-.08.38-.2.82-.27,1.2a4.24,4.24,0,0,0-.08.94,3.87,3.87,0,0,0,.11.68,2.64,2.64,0,0,1-.57-.44,2.69,2.69,0,0,1-.4-.73,2.66,2.66,0,0,1-.15-.88A3.1,3.1,0,0,1,50.75,70.67Zm1.52,2.9a1.6,1.6,0,0,1-.08-.83c0-.34.11-.73.19-1.14a10.09,10.09,0,0,0,.19-1.12c0-.36,0-.68,0-1a3.21,3.21,0,0,1,.45.51,1.91,1.91,0,0,1,.33.67,3.47,3.47,0,0,1,.1.87c0,.37,0,.82,0,1.25a6.65,6.65,0,0,0,.1,1.09,3.2,3.2,0,0,0,.27.71,1.24,1.24,0,0,1-.41-.07,1.89,1.89,0,0,1-.66-.3A1.44,1.44,0,0,1,52.27,73.57Zm4.18,1.59a1.41,1.41,0,0,1-.46.21,1.45,1.45,0,0,1-.76-.05,1.65,1.65,0,0,1-.72-.51A2.14,2.14,0,0,1,54.1,74,3.73,3.73,0,0,1,54,73c0-.34,0-.64,0-.93a4.54,4.54,0,0,0,0-.74c0-.2,0-.32,0-.45a3.66,3.66,0,0,1,.63.62,5.19,5.19,0,0,1,.55.93c.14.34.26.67.37,1s.22.69.33.95a2.47,2.47,0,0,0,.36.56A1.17,1.17,0,0,0,56.45,75.16Zm1.88-.82a2.39,2.39,0,0,0,.52.28,1.23,1.23,0,0,1-.49.36,1.6,1.6,0,0,1-1.49-.17,2,2,0,0,1-.58-.65,4.92,4.92,0,0,1-.37-1c-.1-.35-.18-.7-.25-1a4.55,4.55,0,0,0-.15-.56,1.69,1.69,0,0,0-.14-.36,2.79,2.79,0,0,1,.85.52,5.8,5.8,0,0,1,.82,1c.27.37.51.72.72,1A3.29,3.29,0,0,0,58.33,74.34ZM58.21,72a7.52,7.52,0,0,0,1,.36c.35.1.72.17,1,.22l.54.08a1.71,1.71,0,0,1,0,.45,1,1,0,0,1-.22.49A1.14,1.14,0,0,1,60,74a1.38,1.38,0,0,1-.75,0,2.34,2.34,0,0,1-.79-.39,2.24,2.24,0,0,1-.6-.66c-.19-.24-.32-.51-.47-.73s-.29-.4-.41-.55-.23-.29-.35-.42l.69.32C57.56,71.7,57.89,71.89,58.21,72Zm4.33-1.58a1.92,1.92,0,0,1-.15.65,1.21,1.21,0,0,1-.42.54,1.73,1.73,0,0,1-.81.28A2.93,2.93,0,0,1,60,71.81a10.11,10.11,0,0,1-1.46-.59c-.42-.19-.69-.34-.95-.48a4.65,4.65,0,0,1,.8-.27,6.12,6.12,0,0,1,1.22-.16c.44,0,.89,0,1.3,0a5.61,5.61,0,0,0,1-.15,4.38,4.38,0,0,0,.62-.22A3.48,3.48,0,0,1,62.54,70.46Zm1.14-2.93a1.91,1.91,0,0,1,0,.53,1.24,1.24,0,0,1-.28.61,2.52,2.52,0,0,1-.75.59,3.43,3.43,0,0,1-1.08.35,6.36,6.36,0,0,1-1.24.11c-.4,0-.8,0-1.12,0s-.6,0-.86.07A4.24,4.24,0,0,1,59,69a4.37,4.37,0,0,1,1.12-.75,6.77,6.77,0,0,1,1.36-.45c.44-.12.82-.17,1.13-.23a3.85,3.85,0,0,0,.67-.21,1.28,1.28,0,0,0,.33-.15C63.62,67.32,63.65,67.39,63.68,67.53Zm.8-3.17a2,2,0,0,1,.12.5,1.54,1.54,0,0,1-.06.66,2.07,2.07,0,0,1-.48.74,3,3,0,0,1-1,.63,6,6,0,0,1-1.24.36l-1.3.3a4.6,4.6,0,0,0-.77.32,5.58,5.58,0,0,1,.54-.84,3.72,3.72,0,0,1,.9-.92c.37-.27.81-.48,1.23-.73a11,11,0,0,0,1.15-.75c.3-.23.53-.39.73-.56A1.31,1.31,0,0,1,64.48,64.36Zm.36-3a1.88,1.88,0,0,1,.11.72,1.75,1.75,0,0,1-.31.83,6.81,6.81,0,0,1-1,1,12.23,12.23,0,0,1-1.23.86c-.45.25-.92.49-1.25.7a3.41,3.41,0,0,0-.7.58c0-.28.1-.56.18-.89a6.31,6.31,0,0,1,.48-1.11,5.73,5.73,0,0,1,.9-1.13,9.9,9.9,0,0,1,1-.86,11.43,11.43,0,0,0,.9-.79c.24-.22.39-.37.54-.53A3.55,3.55,0,0,1,64.84,61.35Zm.54-3.81a2.82,2.82,0,0,1,0,.72,2.37,2.37,0,0,1-.31.89,6.44,6.44,0,0,1-.82,1,9.87,9.87,0,0,1-.94.88c-.34.29-.74.6-1.06.88s-.58.54-.83.8a7.45,7.45,0,0,1,0-.82,5.27,5.27,0,0,1,.19-1,3.58,3.58,0,0,1,.48-.93A6.09,6.09,0,0,1,63,59a9.48,9.48,0,0,1,.9-.74c.27-.23.53-.47.76-.69a6.78,6.78,0,0,0,.56-.69A4.44,4.44,0,0,1,65.38,57.54Zm-.8-.76a6.36,6.36,0,0,1-.94,1l-.88.69a6.69,6.69,0,0,0-.65.63,4.23,4.23,0,0,0-.31.39,4.15,4.15,0,0,1-.06-.77,3.7,3.7,0,0,1,.18-1.11,3.64,3.64,0,0,1,.65-1.18,7.5,7.5,0,0,1,1-1.06c.39-.33.76-.66,1-.9a4.22,4.22,0,0,0,.47-.55,2.54,2.54,0,0,1,.05,1.66A4.16,4.16,0,0,1,64.58,56.78Zm1.76-2.65a2,2,0,0,1,0,.55,2.11,2.11,0,0,1-.17.48c-.09.15-.19.31-.28.43a3.09,3.09,0,0,1-.29.32c.06-.22.13-.42.18-.65a4.38,4.38,0,0,0,.07-.71,2.15,2.15,0,0,0-.06-.53c.15-.16.31-.34.44-.5A2.54,2.54,0,0,1,66.34,54.13Zm.42-3.31a2.55,2.55,0,0,1,0,.83,3.54,3.54,0,0,1-.31.82,7.55,7.55,0,0,1-.45.69c-.14.19-.24.3-.34.43,0-.15-.1-.3-.14-.46s.14-.44.2-.68a5.4,5.4,0,0,0,.12-.72,3.23,3.23,0,0,0,0-.54l.73-.95A2.83,2.83,0,0,1,66.76,50.82Zm.29-2.89a1.55,1.55,0,0,1-.08.61,3.58,3.58,0,0,1-.43.86,10.3,10.3,0,0,1-.82,1.2c0-.12-.1-.26-.15-.39l-.2-.35c.18-.27.36-.56.63-1s.6-.93,1-1.47A4.8,4.8,0,0,1,67.05,47.93Zm.37-3a1,1,0,0,1,0,.69,4.55,4.55,0,0,1-.55,1.08c-.3.46-.72,1-1.13,1.61,0-.11,0-.24-.07-.41a5.16,5.16,0,0,0-.16-.52,1.82,1.82,0,0,0-.18-.37c.41-.5.83-1,1.14-1.42s.52-.71.73-1A1,1,0,0,1,67.42,45Zm-.31-2.61a1.14,1.14,0,0,1,.1.61,3.31,3.31,0,0,1-.33,1,8.87,8.87,0,0,1-.77,1.19l-.91,1.22c0-.1-.08-.22-.13-.32s0-.29.05-.44a2.54,2.54,0,0,0,0-.47,2.47,2.47,0,0,0,0-.39l.42-.68c.22-.32.52-.75.75-1.13s.4-.65.57-.94A1.7,1.7,0,0,1,67.11,42.36Zm-.26-2.73a1.39,1.39,0,0,1,.16.59,1.85,1.85,0,0,1-.13.67c-.1.24-.25.5-.42.81s-.38.66-.56.94-.34.47-.46.65-.22.35-.31.52a1.78,1.78,0,0,1-.27-.48,2.27,2.27,0,0,1-.11-.77,2.47,2.47,0,0,1,.19-.78,5.75,5.75,0,0,1,.52-1c.26-.41.65-1,1.05-1.49A1.26,1.26,0,0,1,66.85,39.63Zm-.61-2.58a1.27,1.27,0,0,1,.22.59,1.52,1.52,0,0,1-.16.84,8.41,8.41,0,0,1-.69,1.08c-.26.37-.5.7-.69,1a10.17,10.17,0,0,0-.46.94,6.64,6.64,0,0,1-.3-1.12,2.61,2.61,0,0,1,.07-1,2.91,2.91,0,0,1,.48-1c.23-.35.54-.74.77-1a6.83,6.83,0,0,0,.43-.68A2.6,2.6,0,0,1,66.24,37.05Zm-.91-3a1.51,1.51,0,0,1,.31.53,2.12,2.12,0,0,1,0,.84,2.43,2.43,0,0,1-.22.83,4.23,4.23,0,0,1-.54.85c-.23.32-.52.66-.74,1a9,9,0,0,0-.56,1,3,3,0,0,1-.28-.74,2.41,2.41,0,0,1,0-.89,4,4,0,0,1,.32-.94,10.61,10.61,0,0,1,.59-1c.21-.33.43-.67.58-.94a4.7,4.7,0,0,0,.28-.74A1.26,1.26,0,0,1,65.33,34.09ZM64,31.44a2,2,0,0,1,.51.81,2.75,2.75,0,0,1,.11.93,2.88,2.88,0,0,1-.18.84,5.14,5.14,0,0,1-.49,1c-.21.35-.48.73-.66,1.07a6.51,6.51,0,0,0-.45.93,6.06,6.06,0,0,1-.46-.75,1.79,1.79,0,0,1-.22-.83,2.87,2.87,0,0,1,.18-1.2c.16-.45.42-.94.61-1.35a4.87,4.87,0,0,0,.33-1.05,5.26,5.26,0,0,0,.08-.72A1.87,1.87,0,0,1,64,31.44ZM61.6,28.91a1.67,1.67,0,0,1,.82.6,1.62,1.62,0,0,1,.3.91,3.79,3.79,0,0,1-.1,1.18,7.57,7.57,0,0,1-.46,1.23c-.18.38-.35.7-.47,1a7.15,7.15,0,0,0-.28.81,2.13,2.13,0,0,1-.21-.45,2.68,2.68,0,0,1-.17-.94c0-.4.08-.89.13-1.39a6.19,6.19,0,0,0,0-1.48,2.86,2.86,0,0,0-.33-1.1,4,4,0,0,0-.53-.64A6.49,6.49,0,0,1,61.6,28.91Zm-2.7-.45a2,2,0,0,1,.9.63,2.78,2.78,0,0,1,.52,1.08,3.92,3.92,0,0,1,.13,1.19,11.45,11.45,0,0,1-.06,1.22c0,.36,0,.63-.08.89a3.88,3.88,0,0,1-.63-.77,8.19,8.19,0,0,1-.51-1.18c-.14-.43-.29-.84-.45-1.22a5.53,5.53,0,0,0-.58-1,3.06,3.06,0,0,0-.58-.57c-.18-.13-.32-.2-.46-.29a3.32,3.32,0,0,1,.81-.18A2.55,2.55,0,0,1,58.9,28.46ZM49,27.09c-.68,0-1.43-.1-2.19-.17.33-.07.67-.14,1-.24a5.29,5.29,0,0,0,.92-.34,6.29,6.29,0,0,0,.73-.4c.41.1.8.17,1.18.27a6.22,6.22,0,0,1,1,.35,2.69,2.69,0,0,1,.58.34,13.9,13.9,0,0,1-1.43.22A15.64,15.64,0,0,1,49,27.09Zm4.56-1.43a3.94,3.94,0,0,0,.71.55,3.5,3.5,0,0,0,1,.41,6.69,6.69,0,0,0,.75.16c.23.25.49.56.68.79-.2-.06-.41-.13-.71-.2a11,11,0,0,0-1.14-.18c-.44,0-.91,0-1.36-.05-.13-.13-.25-.26-.43-.42a6.24,6.24,0,0,0-.71-.47,9.18,9.18,0,0,0-1-.41c-.37-.1-.72-.18-1.07-.26a5.14,5.14,0,0,0,.51-.16,4.32,4.32,0,0,0,.38-.21c.22.07.44.16.72.23a5.66,5.66,0,0,0,.93.18A8.39,8.39,0,0,0,53.55,25.66Zm6.51.24a1.69,1.69,0,0,1,.4.37,4.18,4.18,0,0,1,.43.66,4.39,4.39,0,0,1,.26.74c.06.2.09.37.13.54-.23,0-.44-.07-.65-.08s-.43,0-.64,0a3.9,3.9,0,0,0,0-.4,5.91,5.91,0,0,0,0-.7,7.65,7.65,0,0,0-.13-.81c0-.25-.12-.41-.16-.58A2.05,2.05,0,0,1,60.06,25.9Zm-2.48-2a5.34,5.34,0,0,1,1.56,1.9,4.55,4.55,0,0,1,.32,1.27,8,8,0,0,1,0,1c-.15-.07-.28-.13-.47-.2l-.59-.18L58,27.57a5.73,5.73,0,0,0,0-.83,6.12,6.12,0,0,0-.17-1.06,8.58,8.58,0,0,0-.28-1c-.11-.26-.2-.48-.29-.64s-.16-.31-.23-.45A2,2,0,0,1,57.58,23.89Zm-2.52-1.51a2.48,2.48,0,0,1,.72.45,5.29,5.29,0,0,1,.59.71,5.1,5.1,0,0,1,.52,1,7.75,7.75,0,0,1,.35,1.38,9.44,9.44,0,0,1,.07,1.27,5.49,5.49,0,0,1-.44-.41,3,3,0,0,1-.52-.57,10.7,10.7,0,0,1-.65-1c-.24-.41-.46-.88-.7-1.26a5.38,5.38,0,0,0-.63-1,3.74,3.74,0,0,0-.49-.57,1.05,1.05,0,0,1,.47-.11A1.6,1.6,0,0,1,55.06,22.38Zm-4.37-.33.31-.18a1.58,1.58,0,0,1,.72-.17,2.18,2.18,0,0,1,1.06.29,3.29,3.29,0,0,1,1,.78,5.61,5.61,0,0,1,.72,1c.2.37.37.78.53,1.15l.41,1a1.49,1.49,0,0,1-.48-.05,2.34,2.34,0,0,1-.8-.36,4.91,4.91,0,0,1-.89-.84c-.3-.34-.56-.72-.86-1.06a11.78,11.78,0,0,0-.89-.94A10.12,10.12,0,0,0,50.69,22.05Zm-3,.43a1,1,0,0,1,.35-.29,1.58,1.58,0,0,1,.75-.13,2.79,2.79,0,0,1,1.06.28,5.65,5.65,0,0,1,1.15.73,13.59,13.59,0,0,1,1.07,1c.36.36.71.75,1,1.14a5,5,0,0,1-.9-.07,6,6,0,0,1-1.14-.37A8.23,8.23,0,0,1,50,24.11c-.35-.22-.68-.48-1-.71s-.65-.5-.88-.65Zm-2.21.93a8.43,8.43,0,0,0-.85-.24,1,1,0,0,1,.19-.36,1,1,0,0,1,.53-.34,2.39,2.39,0,0,1,.94,0,3.57,3.57,0,0,1,1.08.44,9.91,9.91,0,0,1,1,.7c.32.26.66.51.93.71s.52.33.76.47a.59.59,0,0,1-.3.15A1.84,1.84,0,0,1,49,25a3.72,3.72,0,0,1-1.13-.35c-.4-.19-.8-.43-1.21-.66A11.86,11.86,0,0,0,45.51,23.41Zm-2.94,1.15a4.27,4.27,0,0,0-.6-.17,1.88,1.88,0,0,1,.59-.51,2.89,2.89,0,0,1,1.13-.23,5.44,5.44,0,0,1,1.56.22,7,7,0,0,1,1.45.62c.43.22.8.45,1.1.62a8.85,8.85,0,0,0,.81.41c-.2.06-.39.14-.66.2a4.48,4.48,0,0,1-1,.14,6.26,6.26,0,0,1-1.33-.12,6.06,6.06,0,0,1-1.25-.37c-.38-.16-.76-.34-1.07-.49S42.79,24.63,42.57,24.56ZM42.41,27c-.4-.12-.86-.3-1.3-.45s-.88-.26-1.21-.34a5.63,5.63,0,0,0-.73-.11l-.33,0a1.9,1.9,0,0,1,.62-.69A2.79,2.79,0,0,1,40.8,25a4.86,4.86,0,0,1,1.61.18,11.2,11.2,0,0,1,1.35.48,13.56,13.56,0,0,0,1.26.52,8.51,8.51,0,0,0,1,.26,12.63,12.63,0,0,1-1.33.59,4.26,4.26,0,0,1-1.18.17A3.51,3.51,0,0,1,42.41,27Zm-3.27,2.35a4.34,4.34,0,0,1-1.1.55,10.69,10.69,0,0,1-1.36.36c-.49.07-1.06.13-1.52.16s-.82,0-1.19,0c0-.08,0-.15.08-.24a.67.67,0,0,1,.2-.33,1.91,1.91,0,0,1,.7-.47,6.55,6.55,0,0,1,1.57-.47,11.09,11.09,0,0,1,1.84-.22c.56,0,1,0,1.49,0A3.47,3.47,0,0,1,39.14,29.36Zm.6-1.25c-.68,0-1.4.06-2,.12a11,11,0,0,0-1.33.19l-.82.24a3,3,0,0,1,1.6-1.59,3.83,3.83,0,0,1,1.59-.34A6.37,6.37,0,0,1,40.5,27c.54.13,1,.28,1.41.38l.89.22a8.32,8.32,0,0,1-1.24.34C41.07,28,40.42,28.05,39.74,28.11Zm4.14.38a3.93,3.93,0,0,1,1.39-.74,4.4,4.4,0,0,1,1.51-.19c.43,0,.77.05,1.19.09s1,.07,1.42.09.83,0,1.22,0c-.33.22-.64.44-1,.64a6.17,6.17,0,0,1-1.13.52,6.42,6.42,0,0,1-1.45.3c-.51,0-1,0-1.55,0a12.75,12.75,0,0,0-1.46.07,8,8,0,0,0-1,.18A4.2,4.2,0,0,1,43.88,28.49Zm-2.72,3.28a2.15,2.15,0,0,1,.47-.72,3.37,3.37,0,0,1,.95-.74,5,5,0,0,1,1.36-.46,7.43,7.43,0,0,1,1.4-.12c.48,0,.93,0,1.32,0a9.51,9.51,0,0,0,1-.11,5.7,5.7,0,0,1-.71.66,4.69,4.69,0,0,1-1.1.64,9.88,9.88,0,0,1-1.65.48c-.62.14-1.28.28-1.83.45A12.05,12.05,0,0,0,41,32.4,3.3,3.3,0,0,1,41.16,31.77Zm-2,3.29a2.46,2.46,0,0,1,.59-1A5.86,5.86,0,0,1,41.33,33a10.06,10.06,0,0,1,2-.73c.62-.18,1.17-.29,1.61-.41a11.68,11.68,0,0,0,1.14-.38,3.42,3.42,0,0,1-.43.74,4,4,0,0,1-.84.87,7.48,7.48,0,0,1-1.36.76c-.51.24-1.11.43-1.67.64s-1.06.43-1.45.62a7.88,7.88,0,0,0-.82.48,3.79,3.79,0,0,0-.35.28A3.1,3.1,0,0,1,39.2,35.06Zm-1,3a3,3,0,0,1,.63-1A5.68,5.68,0,0,1,40.24,36a14.29,14.29,0,0,1,1.9-.9c.61-.25,1.14-.43,1.57-.62a11.37,11.37,0,0,0,1.06-.56,7.94,7.94,0,0,1-.86,1.17,7.56,7.56,0,0,1-1.31,1.13,11.94,11.94,0,0,1-1.49.8c-.52.22-1,.48-1.47.68a8.34,8.34,0,0,0-.92.51c-.22.15-.41.31-.59.45A1.62,1.62,0,0,1,38.21,38Zm-.66,2.64a1.84,1.84,0,0,1,.39-.89,5.09,5.09,0,0,1,1-.85,8.26,8.26,0,0,1,1.31-.74l1.6-.7c.46-.21.75-.38,1-.54q-.09.18-.18.39c0,.15-.1.29-.19.53a3.66,3.66,0,0,1-.38.81,2.17,2.17,0,0,1-.75.72,13.81,13.81,0,0,1-1.28.64,11.61,11.61,0,0,0-1.45.78,6.44,6.44,0,0,0-1,.78A3.75,3.75,0,0,1,37.55,40.68Zm-.24,3.57a1.79,1.79,0,0,1,0-.82,2.36,2.36,0,0,1,.6-1,7.92,7.92,0,0,1,1.1-.89,10.93,10.93,0,0,1,1.15-.69c.42-.23.89-.46,1.38-.69,0,.35-.11.69-.15,1a2.45,2.45,0,0,1-.29.89,3.22,3.22,0,0,1-.86.88c-.38.27-.84.55-1.23.78s-.73.43-1,.6a4.69,4.69,0,0,0-.6.44A4.73,4.73,0,0,1,37.31,44.25Zm-.39,3.39a2.34,2.34,0,0,1,.06-.85,3,3,0,0,1,.49-1,3.85,3.85,0,0,1,.94-.88c.43-.31,1-.66,1.44-.93s.7-.45,1-.64c0,.13,0,.27-.07.4s0,.29,0,.5a2.25,2.25,0,0,1-.12.71,1.48,1.48,0,0,1-.54.7c-.32.28-.82.65-1.23.94s-.73.55-1,.79a8.85,8.85,0,0,0-.76.73A1.36,1.36,0,0,1,36.92,47.64Zm0,2.57a1.85,1.85,0,0,1,.22-1,4.09,4.09,0,0,1,.88-1,13.08,13.08,0,0,1,1.1-.92c.38-.26.74-.48,1.11-.69a1,1,0,0,0-.06.31c0,.18,0,.42,0,.72a2.4,2.4,0,0,1-.23.92,2.91,2.91,0,0,1-.74.83c-.36.31-.83.65-1.18.94a10.87,10.87,0,0,0-.81.74A2.2,2.2,0,0,1,36.91,50.21Zm.46,3.34a2.6,2.6,0,0,1-.19-.61,1.67,1.67,0,0,1,.06-.79,3.16,3.16,0,0,1,.52-.83,12,12,0,0,1,.87-.83c.35-.29.74-.64,1.14-1,0,.21,0,.42,0,.65a6.33,6.33,0,0,1,.06.78,2.21,2.21,0,0,1-.21.8,2.61,2.61,0,0,1-.53.72c-.24.25-.54.51-.82.76l-.71.67A1.43,1.43,0,0,1,37.37,53.55Zm.4,2.86a1.79,1.79,0,0,1-.11-.56,2,2,0,0,1,.07-.74,2.36,2.36,0,0,1,.4-.79,5.93,5.93,0,0,1,.63-.67l.45-.45.43-.46c0,.23,0,.45,0,.7a3,3,0,0,1-.05.83,3.07,3.07,0,0,1-.42.94c-.22.31-.48.63-.69.91s-.34.51-.49.74C37.9,56.71,37.84,56.57,37.77,56.41Zm-.83,2.88a1.52,1.52,0,0,1,0-.62,2.5,2.5,0,0,1,.37-1.19l.21-.36c.08.1.15.21.21.3a1.72,1.72,0,0,0-.14.39,2.64,2.64,0,0,0-.05.64,2.15,2.15,0,0,0,.11.54,1.35,1.35,0,0,0-.15.13,1.11,1.11,0,0,0-.2.26,2.4,2.4,0,0,0-.18.26A1.46,1.46,0,0,1,36.94,59.29Zm.12,2.9a1.94,1.94,0,0,1-.1-.58,3,3,0,0,1,.13-.75,3.56,3.56,0,0,1,.69-1.37l.14.3.27.45a3.8,3.8,0,0,0-.06.4,3.19,3.19,0,0,0,0,.45,1.86,1.86,0,0,0,.05.3,4.46,4.46,0,0,0-.55.61,3.86,3.86,0,0,0-.39.57A3.24,3.24,0,0,1,37.06,62.19Zm.75,4a2.11,2.11,0,0,1-.3-.58,2.21,2.21,0,0,1-.1-.87,6.1,6.1,0,0,1,.2-1.21,7.29,7.29,0,0,1,.39-1c.14-.27.28-.47.41-.69l.43.73a5.36,5.36,0,0,0-.1.7,2.52,2.52,0,0,0,.09.73,5.32,5.32,0,0,0,.23.64c-.15.23-.29.48-.43.74s-.25.52-.34.72-.12.33-.17.45ZM39,69.71a1.33,1.33,0,0,1-.46-.65,2.49,2.49,0,0,1,0-1.2A6.77,6.77,0,0,1,39,66.42a8.34,8.34,0,0,1,.56-1.12c.12.24.26.49.38.68a3.48,3.48,0,0,0,.38.49c-.06.13-.11.27-.19.49a8.56,8.56,0,0,0-.27.87c-.09.36-.18.76-.24,1.12a8.84,8.84,0,0,0-.1.92A.82.82,0,0,1,39,69.71Zm2.15,2.42a1.47,1.47,0,0,1-.57-.46,2.2,2.2,0,0,1-.38-1,4.5,4.5,0,0,1,0-1.22c0-.41.11-.82.18-1.17s.14-.63.21-.93a4.88,4.88,0,0,0,.18.54c.09.2.22.44.33.65l.38.52c0,.3-.06.6-.09.92a8.48,8.48,0,0,0,0,1,6.69,6.69,0,0,0,.08.8,3.6,3.6,0,0,0,.09.42A.76.76,0,0,1,41.19,72.13Zm2.25,1.33a1.88,1.88,0,0,1-.56-.2,1.24,1.24,0,0,1-.46-.37,2.35,2.35,0,0,1-.35-.71,3,3,0,0,1-.13-.84,8.61,8.61,0,0,1,0-.88,2.27,2.27,0,0,0,.23.31,1.46,1.46,0,0,0,.22.18,1.06,1.06,0,0,0,0,.35,2.68,2.68,0,0,0,.21.73,2.4,2.4,0,0,0,.5.67,1.64,1.64,0,0,0,.63.32,4.31,4.31,0,0,0,.62.15,1.86,1.86,0,0,0,.1.25,2.32,2.32,0,0,1-.47.06A2.06,2.06,0,0,1,43.44,73.46Zm2.25.4a1.08,1.08,0,0,1-.43-.36A1.15,1.15,0,0,1,45,73a1.57,1.57,0,0,1,0-.68,3.7,3.7,0,0,1,.26-.7c.12-.22.25-.44.39-.67,0,.24-.08.49-.09.76a3.12,3.12,0,0,0,.11.86,2.23,2.23,0,0,0,.29.7,4.58,4.58,0,0,0,.34.46c.11.13.24.26.35.38a3.63,3.63,0,0,1-.44,0A2.51,2.51,0,0,1,45.69,73.86Zm2.56.86a.93.93,0,0,1-.48-.4,1.2,1.2,0,0,1-.17-.77,2.12,2.12,0,0,1,.35-1,9.36,9.36,0,0,1,.75-.88,4.6,4.6,0,0,0,.56-.72,2.62,2.62,0,0,0,.24-.47,10.22,10.22,0,0,1,.42,1,2.09,2.09,0,0,1,.12.88,2.25,2.25,0,0,1-.32.93c-.21.34-.49.69-.67,1a1.61,1.61,0,0,0-.28.59A2.51,2.51,0,0,1,48.25,74.72Zm1.46,1a.8.8,0,0,1-.39-.3.64.64,0,0,1-.11-.4,1.17,1.17,0,0,1,.13-.44,2.25,2.25,0,0,1,.33-.43c.13-.15.31-.32.45-.5s.21-.33.31-.49a6,6,0,0,0,.22.72,5.62,5.62,0,0,1,.25.72,1.39,1.39,0,0,1,0,.68,1,1,0,0,1-.35.41.66.66,0,0,1-.38.12A1,1,0,0,1,49.71,75.68Z"/></svg>