<svg id="Layer_1" data-name="Layer 1" xmlns="http://www.w3.org/2000/svg" viewBox="0 0 100 100"><defs><style>.cls-1{opacity:0.5;}.cls-2{fill:#fff200;stroke:#494949;stroke-miterlimit:10;}.cls-3{fill:#a6c914;}.cls-4{fill:#fffa48;}.cls-5{fill:#e5da1a;}.cls-6{fill:#ff394c;}.cls-7{fill:#f4b70b;}.cls-8{fill:#843907;}</style></defs><ellipse class="cls-1" cx="50.45" cy="52.31" rx="42.3" ry="40.94"/><ellipse class="cls-2" cx="49.55" cy="48.69" rx="42.3" ry="40.94"/><ellipse class="cls-3" cx="49.55" cy="48.69" rx="36.57" ry="35.4"/><polygon class="cls-4" points="25.6 49.48 25.6 68.44 74.58 68.44 74.15 49.48 49.98 32.62 25.6 49.48"/><polygon class="cls-5" points="25.71 49.37 25.71 51.06 50.09 33.99 74.18 51.06 74.25 49.37 50.09 32.73 25.71 49.37"/><polygon class="cls-6" points="20.92 48.95 23.64 50.95 25.6 49.48 50.09 32.73 74.15 49.48 75.67 50.53 78.17 48.11 50.09 28.93 20.92 48.95"/><rect class="cls-7" x="44.46" y="50.78" width="11.69" height="17.66"/><rect class="cls-8" x="43.02" y="50.95" width="1.52" height="17.49"/><rect class="cls-8" x="56.08" y="50.95" width="1.52" height="17.49"/><rect class="cls-8" x="43.02" y="49.69" width="14.59" height="1.26"/></svg>