<svg id="Layer_1" data-name="Layer 1" xmlns="http://www.w3.org/2000/svg" viewBox="0 0 100 100"><defs><style>.cls-1{opacity:0.5;}.cls-2{fill:#fff200;stroke:#494949;stroke-miterlimit:10;}.cls-3{fill:#a6c914;}.cls-4{fill:#323232;fill-rule:evenodd;}</style></defs><ellipse class="cls-1" cx="50.45" cy="51.81" rx="42.3" ry="40.94"/><ellipse class="cls-2" cx="49.55" cy="48.19" rx="42.3" ry="40.94"/><ellipse class="cls-3" cx="49.55" cy="48.19" rx="36.57" ry="35.39"/><path class="cls-4" d="M55,73.18c-4.43,1.15-3.65-5.13-6.31-7S32.27,60.14,26.7,58.57c-4.35-1.23-2.27-12,5.1-8.53S45.15,58.9,47,57.61,44.8,42.33,43.16,35.9,44,25,48.15,24.84s7,5.21,6.84,10.84-1.54,19.76,1.3,20.49,7.31-10.66,9.36-12.64S73.22,39,76.19,41.06s1.75,6.61-.8,8.53C73.3,51.16,60.59,61.06,58.68,62.5s-.58,6-.73,7.71-.25,2.58-3,3Zm24-33.32c1.45.64,3.37-1.73,1.88-5.28a9,9,0,0,0-2.89,2.14c-.68.9-.7,2,1,3.14ZM46.44,22.63c-1.59-.27-1.74-3.29,1.55-5.35a8.46,8.46,0,0,1,1.11,3.33c0,1.12-.6,2-2.66,2ZM22.75,52.71c-.61,1.17-3.65.51-5-2.63,1.81-.21,5.94-.68,5,2.63ZM55.41,74.84c-1.73.44-.65,2.65,1,4.26.7-1.71,1.36-4.7-1-4.26Z"/></svg>