<svg id="Layer_1" data-name="Layer 1" xmlns="http://www.w3.org/2000/svg" viewBox="0 0 100 100"><defs><style>.cls-1{opacity:0.5;}.cls-2{fill:#fff200;stroke:#494949;stroke-miterlimit:10;}.cls-3{fill:#a6c914;}.cls-4{fill:#323232;}</style></defs><g id="Alligator_Icon" data-name="Alligator Icon"><ellipse class="cls-1" cx="50.46" cy="51.78" rx="42.29" ry="40.97"/><ellipse class="cls-2" cx="49.54" cy="48.22" rx="42.29" ry="40.97"/><ellipse class="cls-3" cx="49.54" cy="48.22" rx="36.19" ry="35.06"/><path class="cls-4" d="M32.52,37a2.68,2.68,0,0,1,.3-.28,2.39,2.39,0,0,1,2.58-.32,3.1,3.1,0,0,1,1.26,2.27c.45,2.73-.18,5.76,1.33,8.1a3.16,3.16,0,0,0,1.58,1.33,1.79,1.79,0,0,0,1.93-.48,2.63,2.63,0,0,0,.36-1.77l-.32-8.56c-.12-3.25-.2-6.69,1.46-9.51.87-1.49,2.72-2.81,4.29-2,1.35.68,1.56,2.47,1.45,3.94-.43,6-3,12-1.66,17.8.15.64.49,1.39,1.16,1.44s1-.51,1.36-1A57.48,57.48,0,0,0,56,34a10.2,10.2,0,0,1,1.49-3.43,3.31,3.31,0,0,1,3.37-1.3,3,3,0,0,1,1.88,2.05,6,6,0,0,1,0,2.82c-1.21,5.88-6.2,10.33-8.43,15.92a1.9,1.9,0,0,0-.09,1.64,1.75,1.75,0,0,0,1.89.54A6.75,6.75,0,0,0,60,49.48c1-1.28,1.68-2.72,2.67-4A3.17,3.17,0,0,1,65.3,44a2.26,2.26,0,0,1,1.8,1.64,4.29,4.29,0,0,1-.19,2.5c-.9,2.7-3,4.81-5,7A56.44,56.44,0,0,0,53.3,67.88a56.28,56.28,0,0,1-3.18,6.18c-1.65,2.52-4.12,4.72-7.27,5.17a8.58,8.58,0,0,1-7.39-2.54A10.64,10.64,0,0,1,33,70.6a38,38,0,0,1,.11-6.66,70.48,70.48,0,0,0-1-19c-.41-2-.94-4-.54-5.91A4.32,4.32,0,0,1,32.52,37Z"/><path class="cls-4" d="M69.47,38.81c.13-1.14.18-2.51-.54-3.11a1.35,1.35,0,0,0-1.77.27A5.34,5.34,0,0,0,66,38a6.64,6.64,0,0,0-.45,3.13c.16,1,.83,1.95,1.66,1.9a2.31,2.31,0,0,0,1.67-1.56A9.55,9.55,0,0,0,69.47,38.81Z"/><path class="cls-4" d="M64.33,24.17c.14-1.13.21-2.5-.5-3.1a1.34,1.34,0,0,0-1.77.24,5.1,5.1,0,0,0-1.15,2,6.45,6.45,0,0,0-.49,3.11c.14,1,.8,2,1.63,1.91a2.27,2.27,0,0,0,1.69-1.53A9.82,9.82,0,0,0,64.33,24.17Z"/><path class="cls-4" d="M49.58,20.69c.44-1.06.87-2.37.34-3.12a1.35,1.35,0,0,0-1.78-.21A5.39,5.39,0,0,0,46.51,19a6.72,6.72,0,0,0-1.29,2.89c-.13,1,.27,2.09,1.08,2.26a2.31,2.31,0,0,0,2-1.07A9.64,9.64,0,0,0,49.58,20.69Z"/><path class="cls-4" d="M36.39,31.34c.39-1.08.75-2.41.18-3.14a1.35,1.35,0,0,0-1.78-.12,5.21,5.21,0,0,0-1.55,1.7,6.68,6.68,0,0,0-1.15,2.95c-.09,1,.37,2.07,1.19,2.2a2.33,2.33,0,0,0,2-1.15A9.88,9.88,0,0,0,36.39,31.34Z"/></g></svg>