<svg id="Layer_1" data-name="Layer 1" xmlns="http://www.w3.org/2000/svg" viewBox="0 0 100 100"><defs><style>.cls-1{opacity:0.5;}.cls-2{fill:#fff200;stroke:#494949;stroke-miterlimit:10;}.cls-3{fill:#a6c914;}.cls-4{fill:#fff;}.cls-5{fill:#def7c4;}.cls-6{fill:#bdd3a3;}.cls-7{fill:#10989b;}.cls-8{fill:#f2f2f2;}</style></defs><ellipse class="cls-1" cx="50.45" cy="52.34" rx="42.3" ry="41.41"/><ellipse class="cls-2" cx="49.55" cy="48.66" rx="42.3" ry="41.41"/><ellipse class="cls-3" cx="49.55" cy="48.66" rx="36.57" ry="35.81"/><path class="cls-4" d="M75.71,43.92l-30.8-.45,0-1.74,30.81.45a.25.25,0,0,1,.26.27v1.21A.28.28,0,0,1,75.71,43.92Z"/><path class="cls-4" d="M47.2,58.73c-.16-1.71-.33-3.48-.46-5.24-.16-2.18-.25-4.41-.29-6.65,0-1,0-1.94,0-2.88h-1c0,.94,0,1.91,0,2.9,0,2.26.13,4.52.29,6.71.13,1.78.3,3.55.46,5.26.05.51.1,1,.14,1.49a30.17,30.17,0,0,1,.13,7A4.64,4.64,0,0,1,45.16,70a4,4,0,0,1-2.93.92c-2.17-.06-4.94-1.2-7.62-3.11A30,30,0,0,1,27.88,61,36.14,36.14,0,0,1,23,51.42a35.42,35.42,0,0,1-1.64-7.76l-1.05,0a36.19,36.19,0,0,0,1.7,8.1,36.83,36.83,0,0,0,5,9.85,30.67,30.67,0,0,0,7,7.08A15.69,15.69,0,0,0,42.2,72a6,6,0,0,0,2.27-.34,4.08,4.08,0,0,0,1.4-.85,5.63,5.63,0,0,0,1.59-3.35,30.56,30.56,0,0,0-.12-7.22C47.3,59.73,47.25,59.23,47.2,58.73Z"/><path class="cls-4" d="M42.68,72H42.2A15.69,15.69,0,0,1,34,68.67l-.29-.2.09-.33c.32-1.27.6-2.7.9-4.5l.13-.8.68.47a20.48,20.48,0,0,0,7.14,3.18l.43.1,0,.42c-.07,1.8-.18,3.24-.33,4.52ZM34.9,68.05a15.34,15.34,0,0,0,6.85,2.88c.11-1,.19-2.18.25-3.54a21.07,21.07,0,0,1-6.4-2.8C35.37,65.91,35.14,67,34.9,68.05Z"/><path class="cls-4" d="M34.63,69.12,34,68.67a30.67,30.67,0,0,1-7-7.08l-.15-.21.08-.24c.38-1.13.75-2.39,1.19-4l.28-1,.64.87a27.24,27.24,0,0,0,6.44,6.3l.27.18-.05.31c-.3,1.83-.59,3.29-.92,4.58ZM28,61.21A29.88,29.88,0,0,0,34,67.38c.23-1,.45-2.11.67-3.42a28.08,28.08,0,0,1-5.78-5.51C28.58,59.49,28.31,60.39,28,61.21Z"/><path class="cls-4" d="M27.63,62.42l-.6-.83a36.83,36.83,0,0,1-5-9.85L22,51.56l.07-.17c.49-1.21,1-2.44,1.38-3.49L24,46.53l.46,1.39a32.12,32.12,0,0,0,3.74,7.78h0c.29.44.6.89.91,1.31l.15.2-.07.23c-.43,1.6-.81,2.87-1.2,4ZM23.09,51.6a36.24,36.24,0,0,0,4.19,8.54c.26-.81.52-1.7.8-2.73-.27-.38-.54-.76-.8-1.15a33.28,33.28,0,0,1-3.39-6.68C23.64,50.23,23.37,50.92,23.09,51.6Z"/><path class="cls-4" d="M47.39,67.84l-.41,0a16.62,16.62,0,0,1-4.56-.38L42,67.4,42,67c.06-1.62.1-3.28.13-5,0-.75,0-1.53.05-2.31l0-.67.66.2a14.38,14.38,0,0,0,3.95.62h.47l0,.46a30.56,30.56,0,0,1,.12,7.22Zm-4.31-1.26a15.33,15.33,0,0,0,3.4.29,31.17,31.17,0,0,0-.13-6.1,16,16,0,0,1-3.12-.47c0,.55,0,1.1,0,1.64C43.16,63.56,43.13,65.09,43.08,66.58Z"/><path class="cls-4" d="M43,67.63l-.61-.14a21.52,21.52,0,0,1-7.51-3.35L34.65,64l.05-.32c.3-1.82.56-3.74.83-5.77.08-.61.17-1.22.25-1.84l.13-.92.72.6a18.34,18.34,0,0,0,6.24,3.43l.38.11v.39c0,.77,0,1.55-.05,2.31,0,1.76-.06,3.43-.13,5.06Zm-7.25-4.14A20.66,20.66,0,0,0,42,66.35c.05-1.42.08-2.89.11-4.42,0-.64,0-1.28,0-1.94a18.75,18.75,0,0,1-5.5-2.92l-.12.93C36.3,59.92,36.06,61.75,35.78,63.49Z"/><path class="cls-4" d="M35.6,64.61l-.69-.47a27.91,27.91,0,0,1-6.68-6.53l-.15-.2.07-.23c.41-1.5.81-3.07,1.24-4.72.27-1.05.54-2.12.83-3.22L30.55,48l.63,1.11a23.71,23.71,0,0,0,5.45,6.59l.22.18,0,.28c-.09.62-.17,1.23-.26,1.84-.27,2-.53,4-.83,5.79Zm-6.38-7.4a27.36,27.36,0,0,0,5.61,5.61c.24-1.58.47-3.22.7-5l.21-1.56a24.53,24.53,0,0,1-4.82-5.61c-.18.68-.35,1.35-.52,2C30,54.28,29.61,55.77,29.22,57.21Z"/><path class="cls-4" d="M30.33,47.51a29.11,29.11,0,0,1-1.49-3.76l-1.09,0a28.92,28.92,0,0,0,1.64,4.21c.24.51.51,1,.78,1.5-.27,1-.53,2-.78,3-.33,1.26-.64,2.48-1,3.65l-.27-.41a32.11,32.11,0,0,1-3.69-7.61l.6-1.55,1.09-2.83H25.05c-.33.84-.64,1.66-1,2.48l-.66,1.72-.06.16.05.17a33.26,33.26,0,0,0,3.86,8c.3.45.62.91.95,1.35l.64.87.28-1c.42-1.5.82-3.07,1.25-4.73.27-1.05.54-2.12.83-3.21l.05-.2-.1-.18C30.88,48.6,30.6,48.05,30.33,47.51Z"/><path class="cls-4" d="M25.05,43.7c-.33.84-.64,1.66-1,2.48l-.11.3c-.26-.92-.48-1.86-.66-2.8H22.26a35,35,0,0,0,1.16,4.56l.46,1.4.53-1.37c.21-.57.44-1.14.66-1.72l1.09-2.83Z"/><path class="cls-4" d="M47.4,60.78h-.58a15.06,15.06,0,0,1-4.25-.67L42.19,60v-.39c.06-2.83.16-5.14.28-7.26l.05-.77.71.34A13.86,13.86,0,0,0,46.34,53l.37.08,0,.38c.13,1.76.3,3.53.46,5.24,0,.5.1,1,.14,1.49Zm-4.15-1.54a14.36,14.36,0,0,0,3,.5l-.09-.92c-.15-1.59-.31-3.24-.43-4.89a14.58,14.58,0,0,1-2.25-.77C43.38,55,43.31,56.93,43.25,59.24Z"/><path class="cls-4" d="M43.23,60.31l-.66-.2A19,19,0,0,1,36,56.49l-.22-.18,0-.28C36.1,53.69,36.5,50.9,37,48l.19-1.07.73.83a16.65,16.65,0,0,0,5.3,4.18l.31.15,0,.34c-.13,2.13-.22,4.36-.29,7.23Zm-6.38-4.42a18.18,18.18,0,0,0,5.37,3c.06-2.41.13-4.37.24-6.24a17.43,17.43,0,0,1-4.59-3.47C37.46,51.61,37.13,53.9,36.85,55.89Z"/><path class="cls-4" d="M46.79,54.18,46.1,54a14.88,14.88,0,0,1-3.33-1.18l-.31-.15,0-.34c0-.38.05-.78.08-1.18.14-2,.33-4,.55-6l.11-1,.75.63a14.31,14.31,0,0,0,2.22,1.52l.26.15v.29c0,2.24.13,4.47.29,6.65Zm-3.24-2.11a14,14,0,0,0,2.1.78c-.12-1.87-.2-3.79-.24-5.71a15.12,15.12,0,0,1-1.36-.89c-.18,1.66-.33,3.33-.45,5C43.58,51.52,43.57,51.8,43.55,52.07Z"/><path class="cls-4" d="M42.93,43.92l-1.42,0a15.51,15.51,0,0,0,1.57,1.57c-.21,1.89-.39,3.81-.52,5.7,0,.13,0,.26,0,.38a16.72,16.72,0,0,1-4.45-3.63c.08-.43.16-.88.25-1.32.17-.91.36-1.83.55-2.73H37.83c-.18.84-.36,1.7-.52,2.55-.1.53-.2,1.06-.29,1.57l0,.24.16.18a17.82,17.82,0,0,0,5.63,4.44l.71.34.05-.77c0-.37,0-.77.07-1.17.14-2,.32-4,.55-5.92l0-.27L44,44.88C43.61,44.57,43.26,44.26,42.93,43.92Z"/><path class="cls-4" d="M43.27,43.92c0,.1,0,.2,0,.29l-.3-.29-1.43,0a17.37,17.37,0,0,0,1.79,1.75l.75.63.11-1c.05-.46.11-.92.17-1.38Z"/><path class="cls-5" d="M79.61,45l-16.28-.24a.43.43,0,0,1-.43-.43l.05-3a.43.43,0,0,1,.44-.42l16.28.24a1.51,1.51,0,0,1,1.51,1.53v.84A1.52,1.52,0,0,1,79.61,45Z"/><path class="cls-6" d="M79.61,45l-16.28-.24a.47.47,0,0,1-.17,0,.45.45,0,0,1-.14-.1.43.43,0,0,1-.09-.13.47.47,0,0,1,0-.17v-.45l18.26-.36a1.41,1.41,0,0,1-.13.58,1.58,1.58,0,0,1-.33.48,1.61,1.61,0,0,1-.5.31A1.49,1.49,0,0,1,79.61,45Z"/><ellipse class="cls-7" cx="33.33" cy="42.29" rx="2.12" ry="13.22" transform="translate(-9.45 75) rotate(-89.16)"/><path class="cls-8" d="M46.47,44.8l-.1,0a15.14,15.14,0,0,1-3.11.76,60.55,60.55,0,0,1-9.84.57,62.27,62.27,0,0,1-9.9-.82,16.8,16.8,0,0,1-3.18-.83c-.43-.18-1.76-.72-1.81-1.92s1.23-1.7,1.66-1.87A15.65,15.65,0,0,1,23.3,40a61.62,61.62,0,0,1,9.84-.57,63.43,63.43,0,0,1,9.89.82,16,16,0,0,1,3.18.84c.44.17,1.76.71,1.81,1.91S47,44.6,46.47,44.8ZM21.23,42.63a17.92,17.92,0,0,0,3.31.77,65.23,65.23,0,0,0,8.79.65,63.93,63.93,0,0,0,8.75-.43,17.68,17.68,0,0,0,3.25-.68A17.54,17.54,0,0,0,42,42.18a63.54,63.54,0,0,0-8.8-.66,62.1,62.1,0,0,0-8.74.44A16.9,16.9,0,0,0,21.23,42.63Z"/><path class="cls-4" d="M46.06,44,46,44a17.87,17.87,0,0,1-3.12.68,66.31,66.31,0,0,1-9.68.57,67,67,0,0,1-9.62-.64,16.05,16.05,0,0,1-3-.71c-.41-.15-1.66-.61-1.6-1.66s1.36-1.5,1.78-1.65a18.93,18.93,0,0,1,3.12-.69,69.43,69.43,0,0,1,9.68-.57,65.32,65.32,0,0,1,9.62.65,17.36,17.36,0,0,1,3,.7c.41.16,1.66.62,1.6,1.67S46.57,43.78,46.06,44ZM21.54,42.25a18.79,18.79,0,0,0,3.17.64,68.47,68.47,0,0,0,8.55.51A71,71,0,0,0,41.87,43a19.71,19.71,0,0,0,3.24-.62,17.8,17.8,0,0,0-3.17-.64,70.15,70.15,0,0,0-8.55-.52,70.83,70.83,0,0,0-8.61.45A19.71,19.71,0,0,0,21.54,42.25Z"/><path class="cls-4" d="M31.73,43.78c-.38,1.3-.76,2.67-1.17,4.18l-.23-.45a29.11,29.11,0,0,1-1.49-3.76l-1.09,0a28.92,28.92,0,0,0,1.64,4.21c.27.57.57,1.14.88,1.68l.64,1.12.32-1.24c.56-2.14,1.08-4,1.58-5.7Z"/><path class="cls-4" d="M37.83,43.86c-.18.84-.36,1.7-.52,2.55,0,.16-.06.31-.08.46a20.66,20.66,0,0,1-1.94-3l-1.17,0a21.83,21.83,0,0,0,3,4.59l.72.84.19-1.08c.09-.51.19-1,.29-1.56.17-.91.36-1.83.55-2.73Z"/><path class="cls-8" d="M48,42.89l-2.92,0,.23.08a17.68,17.68,0,0,1-3.25.68,63.93,63.93,0,0,1-8.75.43,65.23,65.23,0,0,1-8.79-.65,17.92,17.92,0,0,1-3.31-.77l.19-.06-2.89,0v.07c0,1.2,1.38,1.74,1.81,1.92a16.8,16.8,0,0,0,3.18.83,62.27,62.27,0,0,0,9.9.82,60.55,60.55,0,0,0,9.84-.57,15.14,15.14,0,0,0,3.11-.76l.1,0c.5-.2,1.6-.72,1.55-1.83Z"/><path class="cls-4" d="M42.78,42.83l-.91.13a71,71,0,0,1-8.61.44,68.47,68.47,0,0,1-8.55-.51c-.74-.1-1.35-.2-1.84-.3l-3.94-.05c.16.84,1.21,1.22,1.58,1.36a16.05,16.05,0,0,0,3,.71,67,67,0,0,0,9.62.64,66.31,66.31,0,0,0,9.68-.57A17.87,17.87,0,0,0,46,44l.1,0a2.83,2.83,0,0,0,1.53-1.07Z"/></svg>