<svg xmlns="http://www.w3.org/2000/svg" viewBox="0 0 100 100"><defs><style>.cls-1{isolation:isolate;}.cls-2{opacity:0.5;}.cls-3{fill:#fff200;stroke:#494949;}.cls-16,.cls-3{stroke-miterlimit:10;}.cls-4{fill:#a6c914;}.cls-5{fill:#9a3714;}.cls-6{fill:#c9ffff;}.cls-7{fill:#a5bbc1;opacity:0.3;mix-blend-mode:multiply;}.cls-8{fill:#fff;}.cls-9{fill:#ea2424;}.cls-10{fill:#ff4833;}.cls-11{fill:#b52121;}.cls-12{fill:#c4000c;}.cls-13{fill:#8b00d2;}.cls-14{fill:#a12ce5;}.cls-15{fill:#ffa700;}.cls-16{fill:none;stroke:#9a3714;stroke-width:2px;}.cls-17{fill:#b222a1;}.cls-18{fill:#86251c;}</style></defs><g class="cls-1"><g id="Layer_1" data-name="Layer 1"><ellipse class="cls-2" cx="50.45" cy="52.31" rx="42.3" ry="40.94"/><ellipse class="cls-3" cx="49.55" cy="48.69" rx="42.3" ry="40.94"/><ellipse class="cls-4" cx="49.55" cy="48.69" rx="36.57" ry="35.39"/><polygon class="cls-5" points="48.89 78.34 33.08 78.34 40.98 65.09 48.73 63.07 56.79 65.09 64.7 78.34 48.89 78.34"/><path class="cls-6" d="M61.08,17.56a.59.59,0,0,0-.78,0,.73.73,0,0,0-.28.34.52.52,0,0,0-.49.13,1,1,0,0,0-.28.68,1.63,1.63,0,0,0,0,.31h0a.64.64,0,0,0-.47.06,1,1,0,0,0-.46.83,1.37,1.37,0,0,0,.1.54.59.59,0,0,0,.36.32c.29.1.56-.09.77-.36a.29.29,0,0,0,.24,0,.68.68,0,0,0,.28-.32l.11.11a.41.41,0,0,0,.56,0,1.07,1.07,0,0,0,.34-.77A.94.94,0,0,0,61,19a.72.72,0,0,0,.31-.41,1.56,1.56,0,0,0,0-.57A.78.78,0,0,0,61.08,17.56Z"/><path class="cls-7" d="M61.28,18a.78.78,0,0,0-.2-.46.59.59,0,0,0-.78,0,.73.73,0,0,0-.28.34.52.52,0,0,0-.49.13,1,1,0,0,0-.28.68,1.63,1.63,0,0,0,0,.31h0a.64.64,0,0,0-.47.06,1,1,0,0,0-.46.83,1.37,1.37,0,0,0,.1.54.59.59,0,0,0,.36.32c.29.1.56-.09.77-.36a.29.29,0,0,0,.24,0,.68.68,0,0,0,.28-.32l.11.11a.41.41,0,0,0,.56,0,1.07,1.07,0,0,0,.34-.77A.94.94,0,0,0,61,19a.72.72,0,0,0,.31-.41A1.56,1.56,0,0,0,61.28,18Zm-.56,1.11c0,.27-.16.6-.4.62a.28.28,0,0,1-.28-.16.69.69,0,0,1-.28.5.25.25,0,0,1-.28,0l-.12.17c-.23.26-.64.49-.84.05a.79.79,0,0,1,.28-1,.5.5,0,0,1,.57.09.94.94,0,0,1,.11-.36.68.68,0,0,1-.06-.39.74.74,0,0,1,0-.14.7.7,0,0,1,.3-.45c.21-.1.39,0,.45.25a.28.28,0,0,1,.15,0A.87.87,0,0,1,60.72,19.13ZM60.9,18c-.06.18-.3.4-.45.28a.45.45,0,0,1-.09-.45c.06-.17.17-.26.31-.23a.24.24,0,0,1,.15.06A.32.32,0,0,1,60.9,18Z"/><path class="cls-8" d="M59,19.29c-.17,0-.32.18-.4.36a.69.69,0,0,0-.06.37.42.42,0,0,0,0,.31.17.17,0,0,0,.1.09.14.14,0,0,0,.14-.13,2.43,2.43,0,0,0,0-.27.24.24,0,0,0-.07-.17s-.1,0-.15,0a1.18,1.18,0,0,1,0-.2c0-.18.2-.39.36-.4Z"/><path class="cls-8" d="M59.93,18.06a.44.44,0,0,0-.37.24v0a.71.71,0,0,0-.1.32c0,.12,0,.33.17.33a.08.08,0,0,0,.05-.07,1.62,1.62,0,0,1,0-.31c0-.12,0-.23.05-.34s0-.05-.05-.05a.49.49,0,0,1,.24-.14S59.94,18.06,59.93,18.06Z"/><path class="cls-8" d="M59.52,19.11a.35.35,0,0,0-.06.09s0,.09,0,.1l0,0v-.07a.42.42,0,0,1,0-.1Z"/><path class="cls-8" d="M60.57,17.71s0,0,0,0l0-.05h0l-.09.06,0,0a.25.25,0,0,0-.08.25s0,.09.06.1.07,0,.09-.07l0-.09C60.58,17.85,60.61,17.76,60.57,17.71Z"/><path class="cls-6" d="M51.89,20.76a.75.75,0,0,0-.4-.35.44.44,0,0,0-.3,0,.45.45,0,0,0-.1-.29.29.29,0,0,0-.43,0,.6.6,0,0,0-.88-.26.86.86,0,0,0-.36.68.83.83,0,0,0,.11.48.76.76,0,0,0-.18.25.6.6,0,0,0,.11.64.35.35,0,0,0,.24.15l-.06.12a.9.9,0,0,0-.07.27.55.55,0,0,0-.26,0,.72.72,0,0,0-.1,1.18c.19.11.43,0,.55-.22a.51.51,0,0,0,.1-.21.52.52,0,0,0,.48.16.86.86,0,0,0,.55-.51.88.88,0,0,0,0-.15,1,1,0,0,0,.88-.47A1.48,1.48,0,0,0,51.89,20.76Z"/><path class="cls-7" d="M51.89,20.76a.75.75,0,0,0-.4-.35.44.44,0,0,0-.3,0,.45.45,0,0,0-.1-.29.29.29,0,0,0-.43,0,.6.6,0,0,0-.88-.26.86.86,0,0,0-.36.68.83.83,0,0,0,.11.48.76.76,0,0,0-.18.25.6.6,0,0,0,.11.64.35.35,0,0,0,.24.15l-.06.12a.9.9,0,0,0-.07.27.55.55,0,0,0-.26,0,.72.72,0,0,0-.1,1.18c.19.11.43,0,.55-.22a.51.51,0,0,0,.1-.21.52.52,0,0,0,.48.16.86.86,0,0,0,.55-.51.88.88,0,0,0,0-.15,1,1,0,0,0,.88-.47A1.48,1.48,0,0,0,51.89,20.76ZM49.63,23c0,.2-.17.46-.36.42a.38.38,0,0,1-.23-.27.45.45,0,0,1,.06-.36c.09-.13.33-.31.45-.17S49.67,22.83,49.63,23Zm2.06-.93a.54.54,0,0,1-.15.15.92.92,0,0,1-.44.22c-.11,0-.28,0-.38-.05a1.08,1.08,0,0,1,0,.21c-.07.19-.21.47-.4.45s-.28-.21-.26-.42a.23.23,0,0,1-.22-.05c-.18-.18,0-.5.1-.69v0a.45.45,0,0,1-.27-.06c-.24-.17-.14-.55.07-.74A.75.75,0,0,1,50.06,20a.31.31,0,0,1,.25,0,.54.54,0,0,1,.23.4.38.38,0,0,1,.51.16.68.68,0,0,1,.07.2.66.66,0,0,1,.23,0,.61.61,0,0,1,.56.69A1,1,0,0,1,51.69,22.05Z"/><path class="cls-8" d="M49.42,22.61a.4.4,0,0,0-.29.22.4.4,0,0,0-.05.24.11.11,0,0,0,0,.08.25.25,0,0,0,.09.13.1.1,0,0,0,.1-.06.58.58,0,0,0,0-.19.43.43,0,0,0,0-.11.08.08,0,0,0-.11,0l0,0a.64.64,0,0,1,0-.07.43.43,0,0,1,.24-.22S49.43,22.61,49.42,22.61Z"/><path class="cls-8" d="M49.9,22.43h0Z"/><path class="cls-8" d="M49.88,22.2s-.06,0-.08,0a.63.63,0,0,1,.12-.32h0a.5.5,0,0,0-.19.41.22.22,0,0,0,0,.16s.05.07.09.06a.11.11,0,0,0,.07-.08s0,0,0,0v-.07s0,0,0,0S49.93,22.23,49.88,22.2Z"/><path class="cls-8" d="M49.75,20.47a.63.63,0,0,1,.29-.42s0,0,0,0a.65.65,0,0,0-.36.63.43.43,0,0,1,0,.05.25.25,0,0,0,0,.19c0,.07.06.1.12.11s.13-.07.15-.14a.29.29,0,0,0,0-.16.42.42,0,0,0,0-.16.11.11,0,0,0-.16-.05l-.06.05Z"/><path class="cls-8" d="M51.17,21.33c0-.09-.13,0-.18,0a.37.37,0,0,0-.07.34.18.18,0,0,0,.14.16.08.08,0,0,0,.07-.09,1.38,1.38,0,0,1,0-.2A.36.36,0,0,0,51.17,21.33Z"/><path class="cls-6" d="M66.66,22.44a.86.86,0,0,0-1-.38.92.92,0,0,0-.46.31.67.67,0,0,0-.67-.08A1.08,1.08,0,0,0,64,23a1.77,1.77,0,0,0-.08.4l0,0a.94.94,0,0,0-.62-.16,1.05,1.05,0,0,0-.84.84,1.79,1.79,0,0,0,0,.73.91.91,0,0,0,.35.59.88.88,0,0,0,1.1-.07.38.38,0,0,0,.31.13.7.7,0,0,0,.45-.27,1.28,1.28,0,0,0,.11.2.59.59,0,0,0,.71.29,1.25,1.25,0,0,0,.67-1.45.76.76,0,0,0,.53-.37,1.87,1.87,0,0,0,.19-.72A1.16,1.16,0,0,0,66.66,22.44Z"/><path class="cls-7" d="M66.78,23.13a1.16,1.16,0,0,0-.12-.69.86.86,0,0,0-1-.38.92.92,0,0,0-.46.31.67.67,0,0,0-.67-.08A1.08,1.08,0,0,0,64,23a1.77,1.77,0,0,0-.08.4l0,0a.94.94,0,0,0-.62-.16,1.05,1.05,0,0,0-.84.84,1.79,1.79,0,0,0,0,.73.91.91,0,0,0,.35.59.88.88,0,0,0,1.1-.07.38.38,0,0,0,.31.13.7.7,0,0,0,.45-.27,1.28,1.28,0,0,0,.11.2.59.59,0,0,0,.71.29,1.25,1.25,0,0,0,.67-1.45.76.76,0,0,0,.53-.37A1.87,1.87,0,0,0,66.78,23.13Zm-1.07,1.14c-.12.33-.38.7-.7.6a.43.43,0,0,1-.3-.35.78.78,0,0,1-.52.5.36.36,0,0,1-.35-.16,1,1,0,0,1-.21.17c-.37.21-1,.3-1.09-.37s.22-1.14.68-1.16a.76.76,0,0,1,.7.41,1.08,1.08,0,0,1,.25-.41.85.85,0,0,1,0-.53.89.89,0,0,1,.09-.16.79.79,0,0,1,.52-.43c.3,0,.49.24.5.55a.4.4,0,0,1,.18.14A1.25,1.25,0,0,1,65.71,24.27Zm.6-1.41c-.12.2-.5.36-.66.13a.62.62,0,0,1,0-.62.32.32,0,0,1,.47-.14.39.39,0,0,1,.17.15A.46.46,0,0,1,66.31,22.86Z"/><path class="cls-8" d="M63.43,23.6c-.22-.1-.47.07-.62.26a.83.83,0,0,0-.19.45.55.55,0,0,0,0,.42.18.18,0,0,0,.1.15.16.16,0,0,0,.22-.08c0-.11,0-.24.07-.35a.3.3,0,0,0,0-.25.14.14,0,0,0-.2,0,.67.67,0,0,1,.1-.23c.13-.21.38-.4.59-.34C63.43,23.61,63.44,23.6,63.43,23.6Z"/><path class="cls-8" d="M65.05,22.51a.52.52,0,0,0-.56.13l0,0a.7.7,0,0,0-.22.37c0,.15,0,.44.11.5s.07,0,.08-.06.08-.26.12-.39.13-.27.18-.41a.07.07,0,0,0,0-.09.61.61,0,0,1,.35-.06Z"/><path class="cls-8" d="M64.19,23.64a.24.24,0,0,0-.1.1s-.06.1,0,.13,0,0,0,0,0-.06,0-.09a.27.27,0,0,1,.08-.1S64.2,23.64,64.19,23.64Z"/><path class="cls-8" d="M66,22.38s0,0,0,0L66,22.3s0,0,0,0l-.13,0h-.06a.32.32,0,0,0-.18.29.2.2,0,0,0,0,.15s.1,0,.13,0l.07-.1C65.94,22.57,66,22.47,66,22.38Z"/><path class="cls-6" d="M59.82,22.61c-.19.06-.27.3-.31.51a.81.81,0,0,0-.29-.12.63.63,0,0,0-.59.16,1,1,0,0,0-.28.45.64.64,0,0,0-.1-.13,1.61,1.61,0,0,0-1-.6.81.81,0,0,0-.78.28,1.13,1.13,0,0,0-.21.71,1.29,1.29,0,0,0-.17-.16c-.29-.24-.67-.34-.88-.13a.43.43,0,0,0-.13.19,1,1,0,0,0-1.19.12.73.73,0,0,0-.18.53,1.49,1.49,0,0,0-.62-.38,1.09,1.09,0,0,0-1.32,1.29.79.79,0,0,0-.65.55,1.49,1.49,0,0,0,.21,1.2l0,.06a1.11,1.11,0,0,0-.3-.17.47.47,0,0,0-.62.22.14.14,0,0,0,0,.06A1.91,1.91,0,0,0,50,26.7a1.36,1.36,0,0,0-1-.32.71.71,0,0,0-.62.62,1.51,1.51,0,0,0,0,.37,1.92,1.92,0,0,0-.59-.47,1,1,0,0,0-1,0,1.11,1.11,0,0,0-.37,1.41l-.19,0a1,1,0,0,0-.8.36,1.36,1.36,0,0,0-.27.9,1.91,1.91,0,0,0,.33.93,2.64,2.64,0,0,0,.74.75l-.07.07a.79.79,0,0,0-.11.74,1.5,1.5,0,0,0,.11.22,1.14,1.14,0,0,0-.57-.17.87.87,0,0,0-.77.44A1.25,1.25,0,0,0,45,33.71a.47.47,0,0,0-.25.25.86.86,0,0,0,0,.65,1.7,1.7,0,0,0,.48.66,1.2,1.2,0,0,0,.37.23h0a.3.3,0,0,0,0,.1.8.8,0,0,0,.07.56,1.48,1.48,0,0,0,.67.59,1.1,1.1,0,0,0,.46.07.37.37,0,0,0,0,.23.45.45,0,0,0,.22.23h0a.21.21,0,0,0,.13.15.21.21,0,0,0,.26,0l0,.06a.41.41,0,0,0,.22.19.31.31,0,0,0,.14,0,.49.49,0,0,0,.53.38c.14,0,.2-.16.22-.29a.61.61,0,0,0-.06-.29.28.28,0,0,0,0-.11.44.44,0,0,0-.05-.29.65.65,0,0,0-.27-.3.36.36,0,0,0,.06-.39.87.87,0,0,0-.56-.5.24.24,0,0,0,.1-.18.68.68,0,0,0-.06-.39.54.54,0,0,0-.05-.11.79.79,0,0,0,.48-.21,1.16,1.16,0,0,0,.25-.94,1.8,1.8,0,0,0-.16-.58.88.88,0,0,0,.64.27.49.49,0,0,0,.46-.38,1.3,1.3,0,0,0,0-.52.52.52,0,0,0,.44.14.47.47,0,0,0,.41-.47.73.73,0,0,0-.07-.29.6.6,0,0,0,.42-.3,1,1,0,0,0,0-.84,1.35,1.35,0,0,0-.21-.39.49.49,0,0,0,.27-.13v0a1.14,1.14,0,0,0,.38.41.67.67,0,0,0,.57.11.39.39,0,0,0,.23-.21,1.19,1.19,0,0,0,.54.24,1,1,0,0,0,.83-.27,1.28,1.28,0,0,0,.37-.82,1.54,1.54,0,0,0,.78.24.93.93,0,0,0,.78-.33.6.6,0,0,0,.09-.13.9.9,0,0,0,.61.11c.46-.1.51-.74.31-1.23a.62.62,0,0,0,.58-.18.88.88,0,0,0,.18-.39,1.22,1.22,0,0,0,.83.27.65.65,0,0,0,.61-.52,1.22,1.22,0,0,0-.08-.72,1,1,0,0,0,.46,0,.79.79,0,0,0,.65-.61,1.52,1.52,0,0,0,0-.57,1.43,1.43,0,0,0,.65-.54,1.35,1.35,0,0,0,.22-.92,2,2,0,0,0-.08-.33.69.69,0,0,0,.4-.24.75.75,0,0,0,0-.89A.86.86,0,0,0,59.82,22.61Z"/><path class="cls-7" d="M59.82,22.61c-.19.06-.27.3-.31.51a.81.81,0,0,0-.29-.12.63.63,0,0,0-.59.16,1,1,0,0,0-.28.45.64.64,0,0,0-.1-.13,1.61,1.61,0,0,0-1-.6.81.81,0,0,0-.78.28,1.13,1.13,0,0,0-.21.71,1.29,1.29,0,0,0-.17-.16c-.29-.24-.67-.34-.88-.13a.43.43,0,0,0-.13.19,1,1,0,0,0-1.19.12.73.73,0,0,0-.18.53,1.49,1.49,0,0,0-.62-.38,1.09,1.09,0,0,0-1.32,1.29.79.79,0,0,0-.65.55,1.49,1.49,0,0,0,.21,1.2l0,.06a1.11,1.11,0,0,0-.3-.17.47.47,0,0,0-.62.22.14.14,0,0,0,0,.06A1.91,1.91,0,0,0,50,26.7a1.36,1.36,0,0,0-1-.32.71.71,0,0,0-.62.62,1.51,1.51,0,0,0,0,.37,1.92,1.92,0,0,0-.59-.47,1,1,0,0,0-1,0,1.11,1.11,0,0,0-.37,1.41l-.19,0a1,1,0,0,0-.8.36,1.36,1.36,0,0,0-.27.9,1.91,1.91,0,0,0,.33.93,2.64,2.64,0,0,0,.74.75l-.07.07a.79.79,0,0,0-.11.74,1.5,1.5,0,0,0,.11.22,1.14,1.14,0,0,0-.57-.17.87.87,0,0,0-.77.44,1,1,0,0,0-.08.59.71.71,0,0,1,.82-.7,1.1,1.1,0,0,1,.66.35.46.46,0,0,1,.23-.28h0a1.58,1.58,0,0,1-.19-.59.54.54,0,0,1,.38-.53h.06a2.86,2.86,0,0,1-.69-.7,1.35,1.35,0,0,1-.22-1.24.79.79,0,0,1,.8-.44l.24.05c-.23-.52-.3-1.16.14-1.42a1,1,0,0,1,.48-.12,1.09,1.09,0,0,1,.31,0,1.6,1.6,0,0,1,.82.36,1.18,1.18,0,0,1,0-.52.68.68,0,0,1,.38-.55.71.71,0,0,1,.5,0,.79.79,0,0,1,.24,0,1.73,1.73,0,0,1,.73.76.36.36,0,0,1,.08-.12.48.48,0,0,1,.64-.06,1.49,1.49,0,0,1,.43.37.44.44,0,0,1,.33-.09,2.07,2.07,0,0,1-.47-1.31,1,1,0,0,1,.29-.81.56.56,0,0,1,.32-.13,1,1,0,0,1,0-.34.79.79,0,0,1,.69-.71,1.53,1.53,0,0,1,1.2.68v-.14a.85.85,0,0,1,.19-.52.7.7,0,0,1,.76-.26,1.58,1.58,0,0,1,.65.4l.06,0a.79.79,0,0,1,.76.16,1.81,1.81,0,0,1,.35.33,1,1,0,0,1,0-.3.78.78,0,0,1,.9-.76,1.28,1.28,0,0,1,.79.48.75.75,0,0,1,.62-.65c.4-.05.74.43.85.78a.68.68,0,0,1-.48.88,1.16,1.16,0,0,1-.64,0,.8.8,0,0,1-.06,1.09.87.87,0,0,1-.73.17,1.15,1.15,0,0,1,0,1,.68.68,0,0,1-.92.07,1.51,1.51,0,0,1-.23-.21.85.85,0,0,1-.31.63.65.65,0,0,1-.62.11l-.06,0a2.25,2.25,0,0,1,.12.21c.15.32.3.79.1,1a.64.64,0,0,1-.94-.13A2.25,2.25,0,0,1,55,29.2a1,1,0,0,1-.15.34c-.33.48-1,.44-1.59.05a1.13,1.13,0,0,1,.11.79.73.73,0,0,1-.87.46,1.18,1.18,0,0,1-.6-.41.52.52,0,0,1-.53.22.94.94,0,0,1-.63-.74c0,.42-.27.81-.67.8a1,1,0,0,1,.3.65c0,.22-.12.48-.36.49h0a.72.72,0,0,1,0,.62c-.19.22-.58.13-.88,0a2.2,2.2,0,0,1-.28-.18,1.33,1.33,0,0,1,0,.44.56.56,0,0,1-.52.49,1.31,1.31,0,0,1-.7-.18l-.08,0a1.21,1.21,0,0,1,.14.81,1.68,1.68,0,0,1,.24.46.64.64,0,0,1-.19.74.78.78,0,0,1-.48.07,1.09,1.09,0,0,1,.24.29.52.52,0,0,1,0,.51,1.39,1.39,0,0,1,.46.36.61.61,0,0,1,.11.61.52.52,0,0,1-.18.18,1.09,1.09,0,0,1,.55.57c.06.17,0,.41-.15.45h0a.42.42,0,0,0,.24,0c.14,0,.2-.16.22-.29a.61.61,0,0,0-.06-.29.28.28,0,0,0,0-.11.44.44,0,0,0-.05-.29.65.65,0,0,0-.27-.3.36.36,0,0,0,.06-.39.87.87,0,0,0-.56-.5.24.24,0,0,0,.1-.18.68.68,0,0,0-.06-.39.54.54,0,0,0-.05-.11.79.79,0,0,0,.48-.21,1.16,1.16,0,0,0,.25-.94,1.8,1.8,0,0,0-.16-.58.88.88,0,0,0,.64.27.49.49,0,0,0,.46-.38,1.3,1.3,0,0,0,0-.52.52.52,0,0,0,.44.14.47.47,0,0,0,.41-.47.73.73,0,0,0-.07-.29.6.6,0,0,0,.42-.3,1,1,0,0,0,0-.84,1.35,1.35,0,0,0-.21-.39.49.49,0,0,0,.27-.13v0a1.14,1.14,0,0,0,.38.41.67.67,0,0,0,.57.11.39.39,0,0,0,.23-.21,1.19,1.19,0,0,0,.54.24,1,1,0,0,0,.83-.27,1.28,1.28,0,0,0,.37-.82,1.54,1.54,0,0,0,.78.24.93.93,0,0,0,.78-.33.6.6,0,0,0,.09-.13.9.9,0,0,0,.61.11c.46-.1.51-.74.31-1.23a.62.62,0,0,0,.58-.18.88.88,0,0,0,.18-.39,1.22,1.22,0,0,0,.83.27.65.65,0,0,0,.61-.52,1.22,1.22,0,0,0-.08-.72,1,1,0,0,0,.46,0,.79.79,0,0,0,.65-.61,1.52,1.52,0,0,0,0-.57,1.43,1.43,0,0,0,.65-.54,1.35,1.35,0,0,0,.22-.92,2,2,0,0,0-.08-.33.69.69,0,0,0,.4-.24.75.75,0,0,0,0-.89A.86.86,0,0,0,59.82,22.61Zm.32,1.14c-.4.08-.56-.68-.34-.87a.27.27,0,0,1,.43-.08A.54.54,0,0,1,60.14,23.75Z"/><path class="cls-8" d="M45.89,35.51a.61.61,0,0,0,0,.59.79.79,0,0,0,.54.5c.09.06.17.08.18,0a.31.31,0,0,0-.15-.28.71.71,0,0,0-.29-.14h0a.76.76,0,0,1-.17-.63S45.9,35.5,45.89,35.51Z"/><path class="cls-8" d="M46.93,36.84a.38.38,0,0,0,0,.21c0,.07.09.16.17.16s0-.05,0-.08S47,37.05,47,37a.58.58,0,0,1,0-.14S46.93,36.82,46.93,36.84Z"/><path class="cls-8" d="M47.29,37.26s0,0,0,0,.06.07.09,0a.06.06,0,0,0,0,0S47.32,37.28,47.29,37.26Z"/><path class="cls-8" d="M45.07,34a.31.31,0,0,0-.12.33.54.54,0,0,0,.21.38s.05,0,0,0a1.11,1.11,0,0,0-.1-.29.7.7,0,0,1,0-.35S45.08,34,45.07,34Z"/><path class="cls-8" d="M45.05,33.2c-.08,0,0,.16,0,.22a.28.28,0,0,0,.11.13s0,0,0,0a.88.88,0,0,1,0-.16.49.49,0,0,0,0-.11S45.08,33.19,45.05,33.2Z"/><path class="cls-8" d="M47.47,34.78a.14.14,0,0,0-.11,0,.39.39,0,0,1-.15,0,.83.83,0,0,1-.34-.07s0,0,0,0a.68.68,0,0,0,.35.21c.13,0,.27,0,.29-.13S47.5,34.78,47.47,34.78Z"/><path class="cls-8" d="M46.54,31.8c-.16.16,0,.55.25.67,0,0,0,0,0,0a1.3,1.3,0,0,1-.13-.3,2.8,2.8,0,0,0-.06-.28S46.57,31.77,46.54,31.8Z"/><path class="cls-8" d="M46.1,29.69c-.15.12-.12.35-.07.55a1.22,1.22,0,0,0,.44.6s0,0,0,0a1.48,1.48,0,0,1-.33-1.05S46.13,29.66,46.1,29.69Z"/><path class="cls-8" d="M46.91,28.23c-.07,0,0,.18,0,.26a.38.38,0,0,0,.11.25s0,0,0,0a.67.67,0,0,1,0-.2.53.53,0,0,0,0-.25S46.94,28.21,46.91,28.23Z"/><path class="cls-8" d="M52,25.77a1.06,1.06,0,0,0-.22.42,1.17,1.17,0,0,0,0,.56,1.79,1.79,0,0,0,.63,1.06c.08.07.09-.07,0-.12l-.28-.39A1.63,1.63,0,0,1,52,25.79S52,25.76,52,25.77Z"/><path class="cls-8" d="M54.42,24.66a.44.44,0,0,0-.25.41.92.92,0,0,0,.2.6s0,0,0,0a1.31,1.31,0,0,1,0-.48,1.87,1.87,0,0,1,.13-.4S54.47,24.64,54.42,24.66Z"/><path class="cls-8" d="M57.14,24.39c-.19,0-.23.24-.25.42a.8.8,0,0,0,.19.57s0,0,0,0a1.17,1.17,0,0,1,.09-.88S57.18,24.38,57.14,24.39Z"/><path class="cls-8" d="M58.55,24.32c-.2.13-.08.62.18.77,0,0,0,0,0,0a1.29,1.29,0,0,1-.13-.68S58.58,24.3,58.55,24.32Z"/><path class="cls-8" d="M59.8,23.08a.52.52,0,0,0,0,.28.63.63,0,0,0,.08.17h0a.26.26,0,0,0,.08.13.16.16,0,0,0,.09.05h.06a.13.13,0,0,0,0-.09.3.3,0,0,0-.06-.18.23.23,0,0,0-.07-.07.09.09,0,0,0-.07,0h0l0-.05a.44.44,0,0,1,0-.22S59.81,23.07,59.8,23.08Z"/><path class="cls-8" d="M57.21,27.67c-.11-.08-.31-.14-.35-.29s0,0,0,0a.53.53,0,0,0,.37.43C57.26,27.82,57.26,27.7,57.21,27.67Z"/><path class="cls-8" d="M50.83,29.8s0,0,0,0a.6.6,0,0,0,.09.46c.08.14.29.35.41.22s0-.08,0-.11-.2-.12-.29-.22A.8.8,0,0,1,50.83,29.8Z"/><path class="cls-8" d="M49.1,32.21a.55.55,0,0,1-.31-.25,0,0,0,0,0,0,0,.52.52,0,0,0,.12.3c.07.09.19.2.3.19s.06-.08,0-.13A.17.17,0,0,0,49.1,32.21Z"/><path class="cls-8" d="M55.05,28.78s0-.05,0,0a.62.62,0,0,0,0,.46c.07.16.29.37.43.25a.09.09,0,0,0,0-.13c-.09-.09-.2-.12-.27-.23A.68.68,0,0,1,55.05,28.78Z"/><path class="cls-8" d="M54.41,28.09c0,.08,0,.18.12.22s0-.06,0-.1a.32.32,0,0,1-.1-.13S54.4,28.06,54.41,28.09Z"/><path class="cls-8" d="M51.81,29.56c-.4.15.15,1.09.48.9,0,0,0-.12,0-.16s-.23-.18-.34-.28a.39.39,0,0,1-.1-.42S51.83,29.55,51.81,29.56Z"/><path class="cls-8" d="M54.84,26.73a.49.49,0,0,0,0,.47c.09.17.29.37.48.33s0-.11,0-.15-.22-.14-.31-.23a.46.46,0,0,1-.15-.38S54.85,26.71,54.84,26.73Z"/><path class="cls-8" d="M47.94,29.14a.65.65,0,0,0-.39.62.74.74,0,0,0,.49.68c.06,0,.05-.1,0-.14s-.3-.35-.3-.55.2-.35.22-.57C48,29.17,48,29.13,47.94,29.14Z"/><polygon class="cls-9" points="53.59 33.04 52.23 44.11 45.25 44.13 44.96 41.79 43.87 33.04 53.59 33.04"/><polygon class="cls-10" points="50.59 33.56 49.71 44.12 45.27 44.12 45.1 42.33 44.02 33.56 50.59 33.56"/><polygon class="cls-11" points="53.33 34.31 52.22 44.08 51.48 44.07 51.61 42.29 52.28 33.72 53.33 34.31"/><rect class="cls-12" x="42.65" y="32.1" width="12.15" height="2.35" rx="1.06"/><rect class="cls-10" x="42.78" y="32.13" width="11.86" height="1.6" rx="0.72"/><ellipse class="cls-13" cx="48.89" cy="58.97" rx="16.26" ry="15.74"/><ellipse class="cls-14" cx="48.89" cy="58.97" rx="12.65" ry="12.24"/><polygon class="cls-15" points="48.89 77.98 33.84 77.98 41.36 65.36 48.73 63.44 56.41 65.36 63.94 77.98 48.89 77.98"/><line class="cls-16" x1="39.5" y1="70.82" x2="35.63" y2="78.28"/><line class="cls-16" x1="41.37" y1="70.73" x2="38.03" y2="78"/><line class="cls-16" x1="43.29" y1="70.68" x2="40.23" y2="78.06"/><line class="cls-16" x1="45.6" y1="70.77" x2="42.84" y2="78.26"/><line class="cls-16" x1="47.2" y1="70.72" x2="46.05" y2="78.28"/><line class="cls-16" x1="49.05" y1="70.69" x2="48.61" y2="78.32"/><line class="cls-16" x1="58.24" y1="70.82" x2="62.07" y2="78.14"/><line class="cls-16" x1="56.38" y1="70.73" x2="59.75" y2="78.15"/><line class="cls-16" x1="54.46" y1="70.68" x2="57.52" y2="78.06"/><line class="cls-16" x1="52.15" y1="70.77" x2="54.91" y2="78.26"/><line class="cls-16" x1="50.54" y1="70.72" x2="51.69" y2="78.23"/><ellipse class="cls-10" cx="48.89" cy="58.97" rx="7.83" ry="7.58"/><rect class="cls-17" x="29.87" y="64.63" width="38.03" height="6.24" rx="2.82"/><ellipse class="cls-18" cx="48.89" cy="58.97" rx="3.61" ry="3.5"/></g></g></svg>