<svg id="Layer_1" data-name="Layer 1" xmlns="http://www.w3.org/2000/svg" xmlns:xlink="http://www.w3.org/1999/xlink" viewBox="0 0 100 100"><defs><style>.cls-1{fill:none;}.cls-2{clip-path:url(#clip-path);}.cls-3{fill:#f90d1e;}.cls-4{fill:#fc732d;}.cls-5{opacity:0.5;}.cls-6{fill:#fff200;stroke:#494949;stroke-miterlimit:10;}.cls-7{fill:#a6c914;}.cls-8{fill:#323232;}</style><clipPath id="clip-path"><ellipse class="cls-1" cx="169.55" cy="-72.77" rx="36.57" ry="35.39"/></clipPath></defs><g class="cls-2"><path class="cls-3" d="M105.49,58.7a112.72,112.72,0,0,1-6.25-89A115.17,115.17,0,0,1,122.07-69.2a119.21,119.21,0,0,1,37.8-28.37,122.75,122.75,0,0,1,46.21-12,123.74,123.74,0,0,1,45.79,5.92A121.05,121.05,0,0,1,292-81.52a116.53,116.53,0,0,1,29.32,36.58h0l9.76-4.69C298.85-112.53,220-138.23,155-107S63.48.48,95.72,63.39l9.77-4.69Z"/><path class="cls-4" d="M292-81.52a121.05,121.05,0,0,0-40.15-22.1,123.74,123.74,0,0,0-45.79-5.92,122.75,122.75,0,0,0-46.21,12,119.21,119.21,0,0,0-37.8,28.37A115.17,115.17,0,0,0,99.24-30.34a112.72,112.72,0,0,0,6.25,89h0L115.25,54h0a102.55,102.55,0,0,1-5.69-81,105,105,0,0,1,20.77-35.35,108.43,108.43,0,0,1,34.38-25.81,111.92,111.92,0,0,1,42-10.88,112.57,112.57,0,0,1,41.65,5.38,110.54,110.54,0,0,1,36.53,20.1,105.89,105.89,0,0,1,26.65,33.28h0l9.77-4.69h0A116.53,116.53,0,0,0,292-81.52Z"/></g><ellipse class="cls-5" cx="50.45" cy="52.31" rx="42.3" ry="40.94"/><ellipse class="cls-6" cx="49.55" cy="48.69" rx="42.3" ry="40.94"/><ellipse class="cls-7" cx="49.55" cy="48.69" rx="36.57" ry="35.39"/><path class="cls-8" d="M22.59,56.71a10.62,10.62,0,0,0,4.28,4,5.86,5.86,0,0,0,5.74-.3c2.55-1.82,2.43-5.51,1.78-8.51-.86-3.94-3.07-8.48-7.21-8.76-3-.21-5.78,2.28-6.48,5.15S21,54.21,22.59,56.71Z"/><path class="cls-8" d="M32.2,38.69A11.75,11.75,0,0,0,37,43.16a6.54,6.54,0,0,0,6.39-.33c2.83-2,2.7-6.13,2-9.47-1-4.37-3.42-9.43-8-9.74-3.37-.23-6.43,2.54-7.2,5.73S30.42,35.91,32.2,38.69Z"/><path class="cls-8" d="M62.73,34.54a11.24,11.24,0,0,1-2.89,5.77,6.49,6.49,0,0,1-6.12,1.8c-3.37-1-4.7-4.87-5.19-8.25-.65-4.42-.12-10,4.09-11.8,3.09-1.34,6.94.26,8.79,3S63.43,31.33,62.73,34.54Z"/><path class="cls-8" d="M77.51,47.25A10.36,10.36,0,0,1,74,51.91a5.88,5.88,0,0,1-5.72.64c-2.83-1.39-3.35-5-3.23-8.11.16-4,1.56-8.87,5.59-9.82,3-.7,6.1,1.32,7.29,4S78.66,44.52,77.51,47.25Z"/><path class="cls-8" d="M70.07,57.51c-2.15-1.63-5-2-7.34-3.47-4.21-2.59-6.45-8.36-11.4-8.93-4.07-.47-7.46,3-9.27,6.58S39.16,59.31,36.2,62c-2.2,2-5.35,3.21-5.67,6.71a6.15,6.15,0,0,0,2.21,5.18c3.21,2.76,8,2.2,11.35,0A14.44,14.44,0,0,0,45.3,73a1.61,1.61,0,0,1,2.14.11,9.78,9.78,0,0,0,1,.84,8,8,0,0,0,6,1.29A6.76,6.76,0,0,0,59.16,72c.08-.14.15-.29.22-.44a1.53,1.53,0,0,1,1.94-.81,11,11,0,0,0,1.58.47,8.76,8.76,0,0,0,9.27-4.15A7.77,7.77,0,0,0,70.07,57.51Z"/></svg>