<svg id="Layer_1" data-name="Layer 1" xmlns="http://www.w3.org/2000/svg" viewBox="0 0 100 100"><defs><style>.cls-1,.cls-13{opacity:0.5;}.cls-2{fill:#fff200;stroke:#494949;stroke-miterlimit:10;}.cls-3{fill:#a6c914;}.cls-4{fill:#7e34b7;}.cls-5{fill:#4a6800;}.cls-6{fill:#59297f;}.cls-7{fill:#647c00;}.cls-8{fill:#7a8e04;}.cls-9{fill:#e61616;}.cls-10{fill:#ec2020;}.cls-11{opacity:0.2;}.cls-12{fill:#fff;}.cls-14{fill:#c41313;}.cls-15{opacity:0.4;}</style></defs><ellipse class="cls-1" cx="50.45" cy="52.31" rx="42.3" ry="40.94"/><ellipse class="cls-2" cx="49.55" cy="48.69" rx="42.3" ry="40.94"/><ellipse class="cls-3" cx="49.55" cy="48.69" rx="36.57" ry="35.39"/><path class="cls-4" d="M77.31,38.3C78.72,46,77,52,71.83,59.82,68.14,65.45,61.22,71.4,51.94,71.4c-7.15,0-10.84-3.16-11.84-6.15C37.93,58.78,42,53.36,51.36,50,60,47,64.92,41.32,65.93,38.94a6.82,6.82,0,0,1,2.95-3.15C71.25,34.75,77.31,38.3,77.31,38.3Z"/><path class="cls-5" d="M72.2,39.58l0,0,0-.05v0l0-.05v0a.14.14,0,0,1,0-.06h0s0-.05,0-.08v-.21s3.37-3.89,1.8-8.36c-.37-1,1.28-1.6,2.06-1.1h0a.82.82,0,0,1,.4.66c.14,1.74.22,6.08-2.7,9.38a.76.76,0,0,1-.66.24,1.59,1.59,0,0,1-.35-.08h0a.76.76,0,0,1-.16-.06h0l0,0,0,0-.06,0,0,0,0,0Z"/><path class="cls-6" d="M61.33,66.2c8.31-4.64,12.74-12.43,14.42-25C76,39,77.43,42,78.63,40a35,35,0,0,1-5.79,21.57A23.73,23.73,0,0,1,52.17,72.26c-6.66-.14-10.57-3.5-11.83-6.39C45.55,71.61,56.3,69,61.33,66.2Z"/><path class="cls-6" d="M67.29,36.84a7,7,0,0,1,4-1.87,8,8,0,0,1,4.9,1,6.57,6.57,0,0,1,2.92,3.51.51.51,0,0,0-.25.46,29.1,29.1,0,0,1-.37,4.85c-.07.36-.14.72-.24,1.07a5.5,5.5,0,0,1-2.63-2.61,2.93,2.93,0,0,1-.12-.34,5.3,5.3,0,0,1-4.06,1.68.41.41,0,0,1-.18-.05,4,4,0,0,1-1.54-3.41,1,1,0,0,1,0-.25v0a4.79,4.79,0,0,1-4.78-.13C64.53,40.45,65.5,38.56,67.29,36.84Z"/><path class="cls-7" d="M67.29,36.4a7,7,0,0,1,4-1.86,8,8,0,0,1,3.21.28c.6.18.92.68,1.44,1,2.86,1.69,3.45,4.43,3.13,8.22-.07.84.29,1.58-.12,1.58a1.43,1.43,0,0,1-.65-.15,6.51,6.51,0,0,1-2.77-3,.34.34,0,0,1-.08-.17v0a5.53,5.53,0,0,1-4.18,1.94l-.18-.06c-.57-.28-1.32-1.48-1.36-3.43a1,1,0,0,1,0-.25v0c0,.15-1.46.46-1.58.48a5,5,0,0,1-3.41-.39C64.29,40.28,65.5,38.12,67.29,36.4Z"/><path class="cls-5" d="M74.1,34.73c.56-.11,1.52.49,2.08.82,2.87,1.69,3.73,4.7,3.42,8.49-.07.84-.25,1.57-.66,1.57a5.6,5.6,0,0,1-2.78-3.67C76.9,38.44,76.19,35.81,74.1,34.73Z"/><path class="cls-8" d="M69,37c.24.49,1,.28,1.78-.09s1.4-.76,1.16-1.26-1.09-.59-1.91-.22S68.8,36.51,69,37Z"/><path class="cls-9" d="M22.68,52.07a4.45,4.45,0,0,1,4.93-3.28,2.78,2.78,0,0,1,.63-.5l.32-.23a2.76,2.76,0,0,1,.93-.4A15.51,15.51,0,0,1,31.36,47a6.56,6.56,0,0,1,3.59.12c.66-.81,1.74-2,6.12-1.68a14,14,0,0,1,6.57.3c4.46,1.32,3.81,8.89,3.81,8.89s.45,8.79-1,12.91c-1.22,3.59-5.07,3.31-6.05,3.18-2.13,1.6-5.21,1.59-8.33,1.35a3.49,3.49,0,0,1-.94-.23l-1,.3c-5.45,1.06-7.27-6.57-8.33-9.32S21.31,56,22.68,52.07Z"/><path class="cls-5" d="M27.49,41.6a.75.75,0,0,1,.72-.76,7,7,0,0,1,6.21,3.27,10.92,10.92,0,0,1,1.48,4.81.8.8,0,0,1-1.59.13C34,46.06,33,44,31.09,43a5.45,5.45,0,0,0-2.75-.68.76.76,0,0,1-.85-.67Z"/><path class="cls-10" d="M47,57.3s.89-11.12-4.83-11.74c-6.31-.69-6.78,1.31-7.57,2s-4.16-.81-6,.46-3.76,3.57-2,8.11,5,15.57,9.54,15.93,9,.21,10.57-4.71A21.26,21.26,0,0,0,47,57.3Z"/><g class="cls-11"><path class="cls-12" d="M44,49.77l.09,0a.38.38,0,0,0,.23-.5,4.71,4.71,0,0,0-4.13-3.09,7,7,0,0,0-2.69.3.39.39,0,0,0-.24.49.4.4,0,0,0,.51.23,6.14,6.14,0,0,1,2.37-.26,3.92,3.92,0,0,1,3.44,2.61A.4.4,0,0,0,44,49.77Z"/></g><g class="cls-11"><path class="cls-12" d="M44.81,52.33h0a.4.4,0,0,0,.31-.46l-.2-.94a.4.4,0,0,0-.47-.29.38.38,0,0,0-.31.45l.2.94A.39.39,0,0,0,44.81,52.33Z"/></g><g class="cls-13"><path class="cls-14" d="M46.38,70.25a3.17,3.17,0,0,0,2.14-1.34,4.73,4.73,0,0,0,.6-1.11.39.39,0,0,0-.26-.49.41.41,0,0,0-.5.25,3,3,0,0,1-2.09,1.93.38.38,0,1,0,.11.76Z"/></g><g class="cls-15"><path class="cls-14" d="M40,71.52c3.69-.5,4.35-2.67,4.38-2.78a.39.39,0,0,0-.28-.47.4.4,0,0,0-.48.27,2.82,2.82,0,0,1-1,1.22,7.87,7.87,0,0,1-4.84,1.08.38.38,0,1,0,0,.76A12.3,12.3,0,0,0,40,71.52Z"/></g><g class="cls-13"><path class="cls-14" d="M32.7,71.57a.38.38,0,0,0,0-.75A3.71,3.71,0,0,1,30.52,69a.41.41,0,0,0-.53-.19.39.39,0,0,0-.19.51,4.42,4.42,0,0,0,2.75,2.2A.38.38,0,0,0,32.7,71.57Z"/></g><g class="cls-11"><path class="cls-12" d="M48.9,48.75a.2.2,0,0,0,.11,0,.38.38,0,0,0,.2-.51,4.08,4.08,0,0,0-3.56-2.11.38.38,0,0,0-.4.37.38.38,0,0,0,.38.39,3.31,3.31,0,0,1,2.86,1.67A.39.39,0,0,0,48.9,48.75Z"/></g><g class="cls-11"><path class="cls-12" d="M23.41,54.14a.37.37,0,0,0,.31-.3,3.81,3.81,0,0,1,2.08-3.13.34.34,0,0,0,.21-.45.36.36,0,0,0-.47-.21A4.52,4.52,0,0,0,23,53.74a.36.36,0,0,0,.3.4Z"/></g></svg>