<svg id="Layer_1" data-name="Layer 1" xmlns="http://www.w3.org/2000/svg" viewBox="0 0 100 100"><defs><style>.cls-1{opacity:0.5;}.cls-2{fill:#fff200;stroke:#494949;stroke-miterlimit:10;}.cls-3{fill:#a6c914;}.cls-4{fill:#323232;}</style></defs><ellipse class="cls-1" cx="50.45" cy="52.31" rx="42.3" ry="40.94"/><ellipse class="cls-2" cx="49.55" cy="48.69" rx="42.3" ry="40.94"/><ellipse class="cls-3" cx="49.55" cy="48.69" rx="36.57" ry="35.39"/><path class="cls-4" d="M35.71,63.68c-1.67-.9-2.39-2.82-3-4.58A70.22,70.22,0,0,1,30,49c-.92-5.5-1.11-11.6,1.76-16.61,4.45-7.8,14.36-11,23.05-8.82a17.71,17.71,0,0,1,6.43,3.07A20.4,20.4,0,0,1,68.71,40a37,37,0,0,1-1.38,15.85c-.52,1.67-1.21,6.95-4.13,6.15-1.79-.49-1.05-2.54-.92-3.79s.34-2.62.55-3.93a48.62,48.62,0,0,0,.77-7.8c0-3.06,0-6-1.25-8.85-3-6.91-11.64-11.41-19.13-8.38a12.53,12.53,0,0,0-7,7.15,21.25,21.25,0,0,0-.76,8.52,44,44,0,0,0,1.5,9.88c.71,2.44,1.78,4.84,1.77,7.37a2.25,2.25,0,0,1-.26,1.2C37.92,64.17,36.6,64.15,35.71,63.68Z"/><path class="cls-4" d="M54.08,69.38a1,1,0,0,1,.54.67,3.29,3.29,0,0,1-1,3.42,4.67,4.67,0,0,1-3.59,1.09,5.51,5.51,0,0,1-4-2.42,2.75,2.75,0,0,1-.48-1.27,1.39,1.39,0,0,1,.52-1.22,2.59,2.59,0,0,1,1.87-.18,18.17,18.17,0,0,0,5.41-.09A1.39,1.39,0,0,1,54.08,69.38Z"/></svg>