<svg id="Layer_1" data-name="Layer 1" xmlns="http://www.w3.org/2000/svg" viewBox="0 0 100 100"><defs><style>.cls-1{opacity:0.5;}.cls-2{fill:#fff200;stroke:#494949;}.cls-2,.cls-21{stroke-miterlimit:10;}.cls-3{fill:#a6c914;}.cls-4{fill:#2732c1;}.cls-5{fill:#3c59e5;}.cls-6{fill:#3245ce;}.cls-7{fill:#122744;}.cls-8{fill:#c6dd40;}.cls-9{fill:#d4e656;}.cls-10{font-size:10.98px;fill:#1547b7;font-family:FranklinGothic-Heavy, Franklin Gothic Heavy;font-weight:800;}.cls-11{fill:#e4eef4;}.cls-12{fill:#71a0ea;}.cls-13{fill:#97d5c9;}.cls-14{fill:#5a6e7f;}.cls-15,.cls-17{fill:#fff;}.cls-15{opacity:0.4;}.cls-16{fill:#041e18;opacity:0.28;}.cls-17{opacity:0.2;}.cls-18{fill:#041168;opacity:0.3;}.cls-19{fill:#202856;}.cls-20{fill:#6974ac;}.cls-21{fill:none;stroke:#00203f;}</style></defs><ellipse class="cls-1" cx="50.45" cy="52.31" rx="42.3" ry="40.94"/><ellipse class="cls-2" cx="49.55" cy="48.69" rx="42.3" ry="40.94"/><ellipse class="cls-3" cx="49.55" cy="48.69" rx="36.57" ry="35.4"/><path class="cls-4" d="M26.88,44.5,36.32,35l1.11-.05,22-.25s9.08,7.11,9.65,7.78a9.8,9.8,0,0,1,1.77,3.89L75.4,59a4.69,4.69,0,0,1,.23,1.42c0,1.4-.45,3.06-1.81,3.68,0,0-20,7.75-20,7.69a10.55,10.55,0,0,1-6-.12l-20.22-5a5.77,5.77,0,0,1-4.13-6L26.88,44.5"/><path class="cls-5" d="M50.69,72s.22.24,3.13-.36c0,.06,19.64-7.48,19.64-7.48a4.12,4.12,0,0,0,2-3.72A4.61,4.61,0,0,0,75.27,59L70.71,46.39c-.48-1.49-1-3.44-2-4l-19.18,7.2Z"/><polygon class="cls-6" points="68.73 42.34 49.55 49.54 27.02 44.54 36.37 35.19 48.24 35.1 59.51 34.94 68.73 42.34"/><ellipse class="cls-7" cx="47.93" cy="35.71" rx="11.5" ry="2.61"/><polygon class="cls-8" points="26.06 49.04 50.38 55.76 70.97 47.13 74.28 56.42 50.98 66.19 24.14 58.32 26.06 49.04"/><polygon class="cls-9" points="50.38 55.76 50.98 66.19 74.28 56.42 70.97 47.13 50.38 55.76"/><text class="cls-10" transform="matrix(1.01, 0.29, -0.29, 0.96, 26.61, 58.01)">INK</text><path class="cls-11" d="M55,59.28l0,0-2.43,1.21,0,.05,0,0,4-.39h0l1.13-1.41v0L57,57.27l0,0-1.76.17,0,0-2.65,2.9v.05h.05l2.42-1.21,0,0a.45.45,0,0,1,.24-.53.45.45,0,1,1-.16.67Z"/><path class="cls-12" d="M61,54.31l1.58,3.06c3.87-2,8.7-5.23,8.28-6S64.9,52.43,61,54.31Z"/><path class="cls-12" d="M57.56,57.93c.37.7.49,1.38,2.74.5l-1.53-3C56.72,56.73,57.2,57.23,57.56,57.93Z"/><path class="cls-13" d="M60.3,58.43c.26-.1.54-.22.85-.36l-1.58-3-.8.45Z"/><path class="cls-14" d="M59.57,55l1.58,3,.88-.43c.18-.08.35-.17.53-.27L61,54.31l-.54.26Z"/><path class="cls-15" d="M35.83,39.69s12.48,5,21.26,0,4.22,6.43-7.32,5.7S35.83,39.69,35.83,39.69Z"/><path class="cls-16" d="M75.44,61.18s-8,4-10.66,5.21C61.29,68,50.69,72,50.69,72a9.18,9.18,0,0,0,3.19-.38l19.44-7.4A3.41,3.41,0,0,0,75.44,61.18Z"/><path class="cls-16" d="M27.51,66.53s14.1,3.48,20.4,5a6.4,6.4,0,0,0,2.78.49,27.39,27.39,0,0,0-2.83-1.26c-3.8-1.45-18.21-5.86-23.5-6.72A6,6,0,0,0,27.51,66.53Z"/><path class="cls-17" d="M49.55,49.72,50.68,72.4S51.71,58.34,49.55,49.72Z"/><path class="cls-18" d="M59.42,35.71c0,3-15,7.48-15,7.48l5.11,6.53,1.13,22.42a14.25,14.25,0,0,1-2.83-.49c-1.16-.33-3.14-.76-5.1-1.24L27.62,66.68a5.93,5.93,0,0,1-4.13-6L26.88,44.5,36.32,35S59.43,32.35,59.42,35.71Z"/><path class="cls-19" d="M36.37,35.19l-.25-8.26H58.84l.58,7.76A37.39,37.39,0,0,1,36.37,35.19Z"/><ellipse class="cls-19" cx="47.48" cy="26.93" rx="11.36" ry="1.93"/><ellipse class="cls-20" cx="47.48" cy="26.93" rx="10.84" ry="1.7"/><line class="cls-21" x1="37.06" y1="27.8" x2="37.25" y2="35.17"/><line class="cls-21" x1="38.24" y1="28.16" x2="38.43" y2="35.54"/><line class="cls-21" x1="39.47" y1="28.53" x2="39.66" y2="35.91"/><line class="cls-21" x1="40.85" y1="28.71" x2="41.04" y2="36.09"/><line class="cls-21" x1="42.17" y1="28.99" x2="42.36" y2="36.36"/><line class="cls-21" x1="43.54" y1="29.13" x2="43.73" y2="36.5"/><line class="cls-21" x1="45.15" y1="29.26" x2="45.34" y2="36.64"/><line class="cls-21" x1="46.71" y1="29.31" x2="46.9" y2="36.68"/><line class="cls-21" x1="48.18" y1="29.36" x2="48.37" y2="36.73"/><line class="cls-21" x1="49.74" y1="29.22" x2="49.93" y2="36.59"/><line class="cls-21" x1="51.21" y1="29.13" x2="51.4" y2="36.5"/><line class="cls-21" x1="52.53" y1="28.94" x2="52.72" y2="36.32"/><line class="cls-21" x1="53.81" y1="28.76" x2="54" y2="36.13"/><line class="cls-21" x1="54.99" y1="28.53" x2="55.18" y2="35.91"/><line class="cls-21" x1="56.22" y1="28.3" x2="56.41" y2="35.68"/><line class="cls-21" x1="57.45" y1="28.03" x2="57.64" y2="35.4"/><line class="cls-21" x1="58.35" y1="27.52" x2="58.54" y2="34.9"/></svg>