<svg id="Layer_1" data-name="Layer 1" xmlns="http://www.w3.org/2000/svg" viewBox="0 0 100 100"><defs><style>.cls-1{opacity:0.5;}.cls-2{fill:#fff200;stroke:#494949;stroke-miterlimit:10;}.cls-3{fill:#a6c914;}.cls-4{fill:#ff002c;}.cls-5{fill:#b50041;}.cls-6{fill:#db0331;}.cls-7{fill:#d10037;}.cls-8{fill:#f86e20;}.cls-9{fill:#ff4160;}</style></defs><g id="Apple_Icon" data-name="Apple Icon"><ellipse class="cls-1" cx="50.46" cy="51.77" rx="42.29" ry="40.98"/><ellipse class="cls-2" cx="49.54" cy="48.23" rx="42.29" ry="40.98"/><ellipse class="cls-3" cx="49.54" cy="48.23" rx="36.19" ry="35.07"/><path class="cls-4" d="M43.78,32.67c-.74.35-1.48.69-2.24,1-2.94,1.15-6.27,1.38-9.29,2.28-7.73,2.32-9.88,13.8-6.67,20.13,4.11,8.12,10.68,15.59,19.51,19,0,0,6.85,2.64,10.44-1a5.19,5.19,0,0,1,4.57-1.37s5,1.06,8.49-4.32c5.57-8.61,8.7-22.83,4.21-32.49C69.32,28.43,59.15,26.66,51.72,29A57.19,57.19,0,0,0,43.78,32.67Z"/><path class="cls-5" d="M54.66,34.78S50.85,39.32,47,40.06a21.47,21.47,0,0,1-9.68.21C41.6,41,45,39.54,48.9,38.2,50.83,37.52,53.36,36.33,54.66,34.78Z"/><path class="cls-6" d="M33.63,38.16c1.92-.84,8.17-1.47,8.29-1.5A10,10,0,0,0,44.38,36c.21-.71-2.11-1.15-2.87-1.19a37,37,0,0,0-5.57.34,18.22,18.22,0,0,0-5.42,2c-4.45,2.6-6.49,8.45-5.88,13.45s3,8.85,6.11,12.87C34.05,67.7,38,71.62,42.85,74c3.75,1.82,8.54,2.53,12.06.33a12.1,12.1,0,0,1,3.16-1.83,11,11,0,0,1,3.32.18c.91.06,3.35-.46,3.06-1.47-.54-1.85-5.35-1-7.58-.29-1.13.34-2.16,1-3.3,1.29-2.72.74-5.59-.45-8-2A37.67,37.67,0,0,1,32.79,55.66c-2.11-4-3.72-8.6-2.59-13a6.75,6.75,0,0,1,3-4.34Z"/><path class="cls-7" d="M42.85,74c3.75,1.82,8.53,2.53,12.06.33a11.94,11.94,0,0,1,3.16-1.83,10.9,10.9,0,0,1,3.31.18c.91.06,3.36-.46,3.07-1.47-.54-1.85-5.36-1-7.58-.29-1.14.34-2.16,1-3.3,1.29"/><path class="cls-8" d="M47.37,38.69s-5.66-6.75.87-17.19a5.9,5.9,0,0,0-4-.95s-3.48,6.54,1.09,18.87Z"/><path class="cls-9" d="M68.36,32.85c.84,1.16,2.42,3.3,2.7,5,0,.32.72,3.31-.74,2.45-2.62-1.54-2.17-3.6-4.2-5.2-1.12-.89-2.78-1.51-4-2.54-1.41-1.17-.88-2.51.94-2.21C63,30.32,66.71,30.6,68.36,32.85Z"/><ellipse class="cls-9" cx="72.17" cy="45.8" rx="1.54" ry="2.11" transform="translate(-4.63 8.29) rotate(-6.37)"/><path class="cls-9" d="M55.65,40.44S52.37,44,42.85,45c0,0-6.5-.67-.84-2s4.85-.72,7.38-1.71S54.1,39,55,39,56.67,39.66,55.65,40.44Z"/></g></svg>