<svg id="Layer_1" data-name="Layer 1" xmlns="http://www.w3.org/2000/svg" viewBox="0 0 100 100"><defs><style>.cls-1{opacity:0.5;}.cls-2{fill:#fff200;stroke:#494949;stroke-miterlimit:10;}.cls-3{fill:#a6c914;}.cls-4{fill:#323232;}</style></defs><g id="Cat_Icon" data-name="Cat Icon"><ellipse class="cls-1" cx="50.45" cy="52.31" rx="42.3" ry="40.94"/><ellipse class="cls-2" cx="49.55" cy="48.69" rx="42.3" ry="40.94"/><ellipse class="cls-3" cx="49.55" cy="48.69" rx="36.57" ry="35.39"/><path class="cls-4" d="M55.91,65.6c-1.66-7.15-1.72-8.66-1.32-12s-.73-7.14-2.94-8.81c-4.07-3.08-8.81-.14-12.81.39-4.56.61-12.56-1.9-14.54,4.18s9.42,7.21,14.05,12.8S42.44,67,46,71.3,57.78,73.64,55.91,65.6Z"/><path class="cls-4" d="M42.58,28.43c.7,3.5,1.09,8.25-2.69,11.46-3.07,2.6-7.74,1.67-8.87-2.43-.61-2.22.24-8.81,4.19-12.2S42,25.27,42.58,28.43Z"/><path class="cls-4" d="M60.42,30.21c-.67,3.51-2.1,8.07-6.82,9.72-3.84,1.35-7.84-1.17-7.35-5.39.27-2.28,3.54-8.11,8.5-9.88S61,27.05,60.42,30.21Z"/><path class="cls-4" d="M70,53.57c-3.67-.41-8.59-.43-11.61,3.46-2.45,3.16-1.14,7.59,3.17,8.38,2.33.42,9.06-.9,12.25-5S73.28,54,70,53.57Z"/><path class="cls-4" d="M67,36.05c-3.54,1-8.08,2.86-9.29,7.58A5.19,5.19,0,0,0,64,50.14c2.31-.49,8-4.25,9.27-9.2S70.18,35.15,67,36.05Z"/></g></svg>