<svg id="Layer_1" data-name="Layer 1" xmlns="http://www.w3.org/2000/svg" viewBox="0 0 100 100"><defs><style>.cls-1{opacity:0.5;}.cls-2{fill:#fff200;stroke:#494949;stroke-miterlimit:10;}.cls-3{fill:#a6c914;}.cls-4{fill:#ff8500;}.cls-5{fill:#ea7500;}.cls-6{fill:#dd6b05;}.cls-7{fill:#584a27;}.cls-8{fill:#7f7a41;}</style></defs><ellipse class="cls-1" cx="50.45" cy="51.81" rx="42.3" ry="40.94"/><ellipse class="cls-2" cx="49.55" cy="48.19" rx="42.3" ry="40.94"/><ellipse class="cls-3" cx="49.55" cy="48.19" rx="36.57" ry="35.39"/><path class="cls-4" d="M46.89,23.8A24.77,24.77,0,0,1,72.75,36a23.19,23.19,0,0,1-4.56,29.22,28.53,28.53,0,0,1-5.95,4.2c-13.44,7.22-28.76,3-35.48-8.75-7.89-13.78-2.3-26.55,11.13-33.76A29.38,29.38,0,0,1,46.89,23.8Z"/><path class="cls-5" d="M38,27.05C24.61,34.23,19,46.93,26.86,60.61c6.67,11.66,21.9,15.83,35.3,8.64a28.7,28.7,0,0,0,5.93-4.18,24.43,24.43,0,0,0,5.81-7.94,6.55,6.55,0,0,1-1.39.49,5.34,5.34,0,0,0-2.52.92,5.6,5.6,0,0,0-.92,1.25,7.61,7.61,0,0,1-.84,1.2,2.9,2.9,0,0,1-1.24.79,4,4,0,0,1-1.43.06c-1.13,0-1.26,1.38-2.11,1.85a2,2,0,0,1-1.21.21,2.76,2.76,0,0,0-1.18,0c-.56.19-.85.74-1.3,1.08a1.34,1.34,0,0,1-1.19.07,2.83,2.83,0,0,0-1.46.23c-.52.16-1,.36-1.53.51a3.71,3.71,0,0,1-1.52.14,2.66,2.66,0,0,1-1.22-.58,4,4,0,0,0-1.22-.83,1.88,1.88,0,0,0-1.49.27c-.77.45-1.55,1.19-2.51.86A7.31,7.31,0,0,1,46.54,65a2.24,2.24,0,0,0-1.53-.2,6.71,6.71,0,0,1-1.07.2,1.27,1.27,0,0,1-1-.4c-.12-.17-.15-.39-.26-.58s-.45-.25-.74-.2a2.78,2.78,0,0,1-.58.06,1.4,1.4,0,0,1-.64-.27,3.25,3.25,0,0,1-.93-1.21,4.19,4.19,0,0,0-1.18-1.3c-.36-.27-.74-.52-1.08-.82A5.91,5.91,0,0,1,36.58,59a14.32,14.32,0,0,0-1-1.41,3.78,3.78,0,0,1-.79-1.39c-.12-.44-.08-.88-.18-1.31a2.9,2.9,0,0,0-.83-1.38c-.64-.65-1.57-1.15-1.65-2.14a2.79,2.79,0,0,1,.22-1.3,2.08,2.08,0,0,0,.23-.63,2,2,0,0,0-.45-1,5.45,5.45,0,0,1-.61-1.07,1,1,0,0,1,0-.54,8.31,8.31,0,0,0,.25-.89,1.4,1.4,0,0,0-.2-.74.69.69,0,0,1,.06-.56c.22-.42.74-.63.92-1.08a27.07,27.07,0,0,1,1-3,3.21,3.21,0,0,1,1-1.15c.28-.21.64-.33.92-.55a2.13,2.13,0,0,0,.66-1.25,2.76,2.76,0,0,1,.44-1.27,3.28,3.28,0,0,1,1.3-.77c.2-.09.35-.27.55-.34a2.27,2.27,0,0,1,.35,0c.2,0,.24-.21.24-.37a4.1,4.1,0,0,0-.35-1.2,1.46,1.46,0,0,1,.92-1.82c.47-.18,1-.29,1.42-.5a1.67,1.67,0,0,0,.84-.77,5.15,5.15,0,0,1,.69-1.09,6.93,6.93,0,0,1,1-.87,5.93,5.93,0,0,1,1.1-.75A7.05,7.05,0,0,0,46.1,27c.39-.33.34-.77.31-1.22a1.41,1.41,0,0,1,.18-1,1.07,1.07,0,0,1,.76-.51c.38,0,.74.07,1.12,0A6.29,6.29,0,0,0,50,23.82l.47-.22a25.63,25.63,0,0,0-3.47.34A29.46,29.46,0,0,0,38,27.05Z"/><path class="cls-6" d="M47,24l-.38.16A28.17,28.17,0,0,0,41.91,27c-1.78,1.27-3.56,2.52-5.35,3.78a13.56,13.56,0,0,0-3.65,3.29c-.89,1.31-1.28,2.87-2,4.23a47.75,47.75,0,0,1-3.28,4.29c-1,1.46-1.83,3.28-1.35,5,.19.64.53,1.23.75,1.86A12.69,12.69,0,0,1,27.45,52a19.88,19.88,0,0,0,2.84,8.31,13,13,0,0,0,6.94,5.45,9.1,9.1,0,0,1,2.12.77,15.26,15.26,0,0,1,2,1.88c1.69,1.5,4.16,1.74,6.43,1.91a17.59,17.59,0,0,0,6.83-.4c1.72-.59,3.21-1.7,4.92-2.32,2-.75,4.25-.79,6.29-1.45a10.87,10.87,0,0,0,2.3-1,28.71,28.71,0,0,1-5.91,4.16c-13.33,7.16-28.55,3-35.22-8.68C19.13,46.87,24.68,34.2,38,27A28.4,28.4,0,0,1,47,24Z"/><path class="cls-7" d="M46.39,35.54a3.12,3.12,0,0,0,.85.24.76.76,0,0,0,.7-.15,1,1,0,0,0,.19-.65,3.08,3.08,0,0,1,0-.68,1.41,1.41,0,0,1,.63-.75c.18-.12.37-.23.44-.43a.82.82,0,0,0-.14-.62,1.48,1.48,0,0,0-.32-.39,1,1,0,0,0-.67-.14l-.67.15a.57.57,0,0,1-.26,0A.44.44,0,0,1,47,32l-.57-.72a.73.73,0,0,0-.28-.24.76.76,0,0,0-.69.17,1,1,0,0,0-.22.2.82.82,0,0,0-.1.26,4.85,4.85,0,0,1-.27.62,2,2,0,0,1-.29.41c-.12.11-.25.19-.38.29a1.46,1.46,0,0,0-.38,1.68,1,1,0,0,0,.9.68c.32,0,.63-.19.95-.16a1.44,1.44,0,0,1,.74.39"/><path class="cls-8" d="M45.23,32c0,.14.08.27.07.41,0,.31-.45.41-.72.56a1.21,1.21,0,0,0-.6,1.28.78.78,0,0,0,.46.57c.49.16,1-.34,1.5-.1.21.1.31.33.45.5a1,1,0,0,0,.94.37c.35-.07.74-.51.65-.84,0-.15-.12-.27-.14-.41-.06-.34.25-.62.52-.82s.58-.5.51-.83a.6.6,0,0,0-.54-.43,1.23,1.23,0,0,0-.72.18.61.61,0,0,1-.28.11c-.23,0-.38-.24-.49-.43a1.32,1.32,0,0,0-.82-.68A.64.64,0,0,0,45.23,32Z"/><path class="cls-7" d="M45.59,32.92a.85.85,0,0,0-.12.28,1.77,1.77,0,0,0,0,.23.78.78,0,0,0,0,.26,1.22,1.22,0,0,0,.53.57.71.71,0,0,0,.3.15,1,1,0,0,0,.44-.08.72.72,0,0,0,.25-.12,1.17,1.17,0,0,0,.16-.15,1.12,1.12,0,0,0,.16-.28.86.86,0,0,0,0-.45h0l-.08-.14a1.7,1.7,0,0,0-.5-.42,2.26,2.26,0,0,0-.26-.16.9.9,0,0,0-.27-.11.62.62,0,0,0-.39.1A1.31,1.31,0,0,0,45.59,32.92Z"/><path class="cls-8" d="M45.85,33.12a.78.78,0,0,0-.09.21.49.49,0,0,0,0,.17.44.44,0,0,0,0,.2.84.84,0,0,0,.37.4.36.36,0,0,0,.21.11.54.54,0,0,0,.33-.06.91.91,0,0,0,.17-.09,1.36,1.36,0,0,0,.12-.12.75.75,0,0,0,.12-.21.67.67,0,0,0,0-.34h0l-.06-.1A1.09,1.09,0,0,0,46.7,33l-.18-.11a.56.56,0,0,0-.2-.08.39.39,0,0,0-.29.08A.6.6,0,0,0,45.85,33.12Z"/></svg>