<svg xmlns="http://www.w3.org/2000/svg" xmlns:xlink="http://www.w3.org/1999/xlink" viewBox="0 0 100 100"><defs><style>.cls-1{isolation:isolate;}.cls-2{opacity:0.5;}.cls-3{fill:#fff200;stroke:#494949;stroke-miterlimit:10;}.cls-4{fill:#a6c914;}.cls-5{fill:url(#Áåçûìÿííûé_ãðàäèåíò_265);}.cls-6{fill:url(#Áåçûìÿííûé_ãðàäèåíò_265-2);}.cls-7{fill:url(#Áåçûìÿííûé_ãðàäèåíò_265-3);}.cls-8{fill:url(#Áåçûìÿííûé_ãðàäèåíò_265-4);}.cls-9{fill:url(#Áåçûìÿííûé_ãðàäèåíò_265-5);}.cls-10{fill:url(#Áåçûìÿííûé_ãðàäèåíò_265-6);}.cls-11{fill:url(#Áåçûìÿííûé_ãðàäèåíò_265-7);}.cls-12{fill:url(#Áåçûìÿííûé_ãðàäèåíò_265-8);}.cls-13{fill:url(#Áåçûìÿííûé_ãðàäèåíò_265-9);}.cls-14{fill:url(#Áåçûìÿííûé_ãðàäèåíò_265-10);}.cls-15{fill:url(#Áåçûìÿííûé_ãðàäèåíò_265-11);}.cls-16{fill:url(#Áåçûìÿííûé_ãðàäèåíò_272);}.cls-17{fill:url(#Áåçûìÿííûé_ãðàäèåíò_272-2);}.cls-18{fill:url(#Áåçûìÿííûé_ãðàäèåíò_272-3);}.cls-19{fill:url(#Áåçûìÿííûé_ãðàäèåíò_272-4);}.cls-20{fill:url(#Áåçûìÿííûé_ãðàäèåíò_272-5);}.cls-21{fill:url(#Áåçûìÿííûé_ãðàäèåíò_272-6);}.cls-22{fill:url(#Áåçûìÿííûé_ãðàäèåíò_272-7);}.cls-23{fill:url(#Áåçûìÿííûé_ãðàäèåíò_272-8);}.cls-24{fill:url(#Áåçûìÿííûé_ãðàäèåíò_272-9);}.cls-25{fill:url(#Áåçûìÿííûé_ãðàäèåíò_272-10);}.cls-26{fill:url(#Áåçûìÿííûé_ãðàäèåíò_272-11);}.cls-27{fill:url(#Áåçûìÿííûé_ãðàäèåíò_272-12);}.cls-28{fill:#ece8ff;opacity:0.43;mix-blend-mode:multiply;}.cls-29{fill:#b70d2e;}.cls-30{fill:#ed2f4b;}</style><linearGradient id="Áåçûìÿííûé_ãðàäèåíò_265" x1="-603.08" y1="-1652.27" x2="-581.41" y2="-1612.57" gradientTransform="translate(-388.75 1714.97) rotate(34.74)" gradientUnits="userSpaceOnUse"><stop offset="0" stop-color="#a9a1ca"/><stop offset="1" stop-color="#9082b5"/></linearGradient><linearGradient id="Áåçûìÿííûé_ãðàäèåíò_265-2" x1="-604.22" y1="-1651.97" x2="-582.53" y2="-1612.25" xlink:href="#Áåçûìÿííûé_ãðàäèåíò_265"/><linearGradient id="Áåçûìÿííûé_ãðàäèåíò_265-3" x1="-605.69" y1="-1651.48" x2="-583.99" y2="-1611.75" xlink:href="#Áåçûìÿííûé_ãðàäèåíò_265"/><linearGradient id="Áåçûìÿííûé_ãðàäèåíò_265-4" x1="-607.11" y1="-1651.01" x2="-585.41" y2="-1611.26" xlink:href="#Áåçûìÿííûé_ãðàäèåíò_265"/><linearGradient id="Áåçûìÿííûé_ãðàäèåíò_265-5" x1="-608.36" y1="-1650.5" x2="-586.72" y2="-1610.86" xlink:href="#Áåçûìÿííûé_ãðàäèåíò_265"/><linearGradient id="Áåçûìÿííûé_ãðàäèåíò_265-6" x1="-609.67" y1="-1650.03" x2="-588.03" y2="-1610.41" xlink:href="#Áåçûìÿííûé_ãðàäèåíò_265"/><linearGradient id="Áåçûìÿííûé_ãðàäèåíò_265-7" x1="-610.91" y1="-1649.57" x2="-589.29" y2="-1609.98" xlink:href="#Áåçûìÿííûé_ãðàäèåíò_265"/><linearGradient id="Áåçûìÿííûé_ãðàäèåíò_265-8" x1="-612.23" y1="-1649.17" x2="-590.58" y2="-1609.53" xlink:href="#Áåçûìÿííûé_ãðàäèåíò_265"/><linearGradient id="Áåçûìÿííûé_ãðàäèåíò_265-9" x1="-613.41" y1="-1648.95" x2="-591.68" y2="-1609.16" xlink:href="#Áåçûìÿííûé_ãðàäèåíò_265"/><linearGradient id="Áåçûìÿííûé_ãðàäèåíò_265-10" x1="-614.46" y1="-1648.63" x2="-592.73" y2="-1608.84" xlink:href="#Áåçûìÿííûé_ãðàäèåíò_265"/><linearGradient id="Áåçûìÿííûé_ãðàäèåíò_265-11" x1="-615.77" y1="-1648.18" x2="-594.03" y2="-1608.37" xlink:href="#Áåçûìÿííûé_ãðàäèåíò_265"/><linearGradient id="Áåçûìÿííûé_ãðàäèåíò_272" x1="-604.17" y1="-1646.41" x2="-578.79" y2="-1625.24" gradientTransform="translate(-388.75 1714.97) rotate(34.74)" gradientUnits="userSpaceOnUse"><stop offset="0" stop-color="#f4f3f6"/><stop offset="1" stop-color="#d1c8e6"/></linearGradient><linearGradient id="Áåçûìÿííûé_ãðàäèåíò_272-2" x1="-606.13" y1="-1644.52" x2="-580.75" y2="-1623.35" xlink:href="#Áåçûìÿííûé_ãðàäèåíò_272"/><linearGradient id="Áåçûìÿííûé_ãðàäèåíò_272-3" x1="-608.03" y1="-1642.69" x2="-582.65" y2="-1621.52" xlink:href="#Áåçûìÿííûé_ãðàäèåíò_272"/><linearGradient id="Áåçûìÿííûé_ãðàäèåíò_272-4" x1="-609.87" y1="-1640.92" x2="-584.49" y2="-1619.74" xlink:href="#Áåçûìÿííûé_ãðàäèåíò_272"/><linearGradient id="Áåçûìÿííûé_ãðàäèåíò_272-5" x1="-611.66" y1="-1639.19" x2="-586.27" y2="-1618.01" xlink:href="#Áåçûìÿííûé_ãðàäèåíò_272"/><linearGradient id="Áåçûìÿííûé_ãðàäèåíò_272-6" x1="-613.4" y1="-1637.52" x2="-588.01" y2="-1616.34" xlink:href="#Áåçûìÿííûé_ãðàäèåíò_272"/><linearGradient id="Áåçûìÿííûé_ãðàäèåíò_272-7" x1="-614.89" y1="-1636.11" x2="-589.49" y2="-1614.93" xlink:href="#Áåçûìÿííûé_ãðàäèåíò_272"/><linearGradient id="Áåçûìÿííûé_ãðàäèåíò_272-8" x1="-616.45" y1="-1634.61" x2="-591.05" y2="-1613.43" xlink:href="#Áåçûìÿííûé_ãðàäèåíò_272"/><linearGradient id="Áåçûìÿííûé_ãðàäèåíò_272-9" x1="-617.94" y1="-1633.21" x2="-592.54" y2="-1612.02" xlink:href="#Áåçûìÿííûé_ãðàäèåíò_272"/><linearGradient id="Áåçûìÿííûé_ãðàäèåíò_272-10" x1="-619.42" y1="-1631.8" x2="-594.03" y2="-1610.61" xlink:href="#Áåçûìÿííûé_ãðàäèåíò_272"/><linearGradient id="Áåçûìÿííûé_ãðàäèåíò_272-11" x1="-620.86" y1="-1630.51" x2="-595.43" y2="-1609.3" xlink:href="#Áåçûìÿííûé_ãðàäèåíò_272"/><linearGradient id="Áåçûìÿííûé_ãðàäèåíò_272-12" x1="-622.25" y1="-1629.34" x2="-596.76" y2="-1608.08" xlink:href="#Áåçûìÿííûé_ãðàäèåíò_272"/></defs><g class="cls-1"><g id="Layer_1" data-name="Layer 1"><ellipse class="cls-2" cx="50.45" cy="52.31" rx="42.3" ry="40.94"/><ellipse class="cls-3" cx="49.55" cy="48.69" rx="42.3" ry="40.94"/><ellipse class="cls-4" cx="49.55" cy="48.69" rx="36.57" ry="35.39"/><path class="cls-5" d="M67.82,36.72a.82.82,0,0,1-.89.37l-.12,0-8-4-4.29-2.14L42.66,25a.75.75,0,0,1-.3-1l.29-.64.27-.58.15-.31a.69.69,0,0,1,1-.37l11.41,6.11,4.45,2.39,7.35,3.94.86.46a.67.67,0,0,1,.21,1Z"/><path class="cls-6" d="M66.51,40.24a.79.79,0,0,1-1,.3l-.68-.34-7.56-3.79-4.14-2.07L41,28.26a.76.76,0,0,1-.33-1L41,26.6l.25-.56.12-.25a.69.69,0,0,1,.95-.35l11.92,6.39,4.18,2.23,7.08,3.79,1.28.69a.66.66,0,0,1,.23,1Z"/><path class="cls-7" d="M64.45,43.24a.76.76,0,0,1-1,.29l-.69-.34-7.2-3.61L51.42,37.5,39.33,31.44a.74.74,0,0,1-.33-1l.33-.71.25-.54.08-.18a.66.66,0,0,1,.93-.33L52.7,35.19l4.07,2.18,4.68,2.49,3.22,1.73a.64.64,0,0,1,.23.93Z"/><path class="cls-8" d="M62.45,46.16a.75.75,0,0,1-1,.27l-.69-.34-7-3.51-4.33-2.17L37.73,34.52h0a.71.71,0,0,1-.31-.93l.34-.75.24-.52.06-.13a.66.66,0,0,1,.91-.31l12,6.41,4.12,2.21,3.54,1.89,4.06,2.17a.63.63,0,0,1,.23.9Z"/><path class="cls-9" d="M60.61,48.81a.8.8,0,0,1-1,.38l-.69-.35L52,45.39l-4.65-2.32-7.47-3.72L36.17,37.5a.56.56,0,0,1-.25-.23.86.86,0,0,1,0-.8l.31-.66.24-.5.21-.44a.71.71,0,0,1,1-.41l.1,0h0l11.52,6.2L53.53,43l6.84,3.67.56.3a.7.7,0,0,1,.17,1Z"/><path class="cls-10" d="M57.75,51.9l-.27-.14-7.41-3.69L45,45.53h0L34.66,40.4a.63.63,0,0,1-.33-.43.92.92,0,0,1,.08-.6l.38-.82.16-.34.22-.45a.78.78,0,0,1,.75-.49.76.76,0,0,1,.2.06l3.74,2,7.29,3.92,4.59,2.47,6.8,3.66.54.29a.7.7,0,0,1,.17,1l-.5.83A.82.82,0,0,1,57.75,51.9Z"/><path class="cls-11" d="M56,54.53l0,0-7.84-3.89-5.77-2.87-5-2.47-4.16-2.06A.55.55,0,0,1,33,43a.87.87,0,0,1,0-.8l.42-.89.15-.32.23-.47a.92.92,0,0,1,.56-.51.61.61,0,0,1,.4,0l10.21,5.51h0l5,2.7,7.27,3.91.12.07a.73.73,0,0,1,.14,1L57,54.1A.82.82,0,0,1,56,54.53Z"/><path class="cls-12" d="M55.15,56.76a.86.86,0,0,1-.48.39.63.63,0,0,1-.47,0L46,53.05l-6.56-3.27L31.77,46a.74.74,0,0,1-.25-1L32,44l.16-.34.11-.23A.77.77,0,0,1,33,43a.58.58,0,0,1,.21.07l4.19,2.25,4.82,2.59,5.67,3.05,7.46,4,.15.08a.65.65,0,0,1,.17.95Z"/><path class="cls-13" d="M53.61,59.08a.64.64,0,0,1-.24.22.67.67,0,0,1-.63,0L44.24,55l-7.36-3.7-6.21-3.12a.64.64,0,0,1-.32-.83l.27-.61.16-.34.12-.25a.58.58,0,0,1,.82-.26l7.52,4,6.49,3.47,7,3.73,1,.54a.57.57,0,0,1,.24.8Z"/><path class="cls-14" d="M52.06,61.66a.68.68,0,0,1-.83.17l-9.15-4.6L33.59,53l-4.11-2.07a.63.63,0,0,1-.33-.81l.22-.48.16-.35.15-.34a.58.58,0,0,1,.82-.24l5.69,3,7.44,4,8.57,4.57a.6.6,0,0,1,.19.16.54.54,0,0,1,.06.63l-.37.59A.08.08,0,0,1,52.06,61.66Z"/><path class="cls-15" d="M50.31,63.89a.65.65,0,0,1-.84.2L49,63.87l-9.1-4.58-9.85-5L28,53.3a.62.62,0,0,1-.32-.79l.06-.14.2-.45.25-.55a.56.56,0,0,1,.8-.23L33,53.24,41.5,57.8l8.15,4.34.77.41a.54.54,0,0,1,.24.77l-.14.23-.16.25Z"/><path class="cls-16" d="M68.67,34.66a.55.55,0,0,1-.69.21l-.75-.36L59.75,30.9l-4.48-2.17L43,22.8l-.09-.05a1,1,0,0,1-.57-1.11L43,20.09c.17-.4.74-.48,1.27-.19l11.61,6.42,4.64,2.57,8.31,4.6a.45.45,0,0,1,.15.65Z"/><path class="cls-17" d="M66.52,37.78a.58.58,0,0,1-.73.23l-.32-.16-7.21-3.51L54,32.28,41.22,26h0a.94.94,0,0,1-.58-1.11l.65-1.49a.81.81,0,0,1,1.17-.22l.2.11L54.86,30l4.27,2.35,7.57,4.16a.48.48,0,0,1,.23.54,1,1,0,0,1-.07.15Z"/><path class="cls-18" d="M64.47,40.79a.56.56,0,0,1-.7.2l-2.32-1.13-4.77-2.32-4.15-2-13-6.3a.92.92,0,0,1-.6-1.08l.62-1.46c.16-.37.69-.45,1.17-.19l.2.11,12.54,6.9,4.08,2.24,7,3.87a.45.45,0,0,1,.2.59l0,.07Z"/><path class="cls-19" d="M62.46,43.71a.56.56,0,0,1-.71.21L58.6,42.38,55,40.61l-4.23-2.06L38,32.31l0,0a.88.88,0,0,1-.56-1L38,29.83c.15-.36.66-.45,1.11-.19l.24.12,12.58,6.9L56,38.88l6.65,3.65a.46.46,0,0,1,.17.66h0Z"/><path class="cls-20" d="M60.53,46.53a.49.49,0,0,1-.16.16.56.56,0,0,1-.53,0L53.23,43.5l-4.45-2.17-12.33-6-.07,0a.9.9,0,0,1-.57-1l.59-1.37c.15-.35.65-.43,1.11-.18l.23.13,12.33,6.76,4.17,2.29,6.42,3.51a.46.46,0,0,1,.17.65l0,.05Z"/><path class="cls-21" d="M58.65,49.27a.69.69,0,0,1-.11.13.55.55,0,0,1-.54.05l-6.6-3.22-4.82-2.35L35,38.21l-.05,0c-.46-.23-.73-.69-.59-1l.57-1.33c.14-.34.64-.4,1.1-.15l.23.12L48,42.29l4.43,2.43,6.34,3.48a.43.43,0,0,1,.17.61l0,0Z"/><path class="cls-22" d="M57.3,52a.27.27,0,0,1-.08.1.52.52,0,0,1-.56.08l-7.11-3.46-5.32-2.6L33.56,41h0c-.46-.23-.72-.68-.58-1l.57-1.33c.15-.34.64-.4,1.11-.15l.15.09,11.07,6.07,4.81,2.64L57.42,51a.43.43,0,0,1,.17.61l-.11.18Z"/><path class="cls-23" d="M55.81,54.71a.51.51,0,0,1-.51.23l-.14,0-7.55-3.68-6-2.92-9.49-4.63-.07,0c-.46-.23-.73-.68-.59-1L32,41.28c.14-.33.64-.4,1.1-.15l.25.14,10.09,5.54,5.32,2.92,7.13,3.91a.44.44,0,0,1,.17.61l-.17.26Z"/><path class="cls-24" d="M54.46,57.48a.52.52,0,0,1-.65.18l-1.08-.53-7.2-3.51-6.85-3.34-7.9-3.85-.07,0c-.46-.23-.73-.68-.59-1l.57-1.33c.14-.33.64-.4,1.11-.15L32,44l8.86,4.86,6,3.29,7.76,4.26a.43.43,0,0,1,.17.61l-.08.13Z"/><path class="cls-25" d="M53.12,60.25a.52.52,0,0,1-.65.18l-.08,0L43.33,56l-7.94-3.87-5.86-2.86-.16-.08c-.47-.23-.73-.68-.59-1l.56-1.32c.15-.34.65-.41,1.11-.16l.17.1,7.27,4,6.83,3.75,8.52,4.67a.37.37,0,0,1,.13.12.39.39,0,0,1,0,.49Z"/><path class="cls-26" d="M52,62.73a.51.51,0,0,1-.65.19l-1.66-.78-8.5-4-9.39-4.42L28.06,52l-.1,0a.86.86,0,0,1-.51-1L28,49.62c.14-.34.64-.41,1.11-.16l.27.14,5.34,2.84,7.94,4.22,9.41,5a.44.44,0,0,1,.17.61Z"/><path class="cls-27" d="M50.34,65.43l-2.93-1.31h0l-8.6-3.85L27.36,55.17,26.88,55c-.48-.21-.76-.66-.64-1l.51-1.35c.13-.32.57-.42,1-.23l.09,0L31,54l9.46,4.79,9.61,4.86.29.15.7.36a.43.43,0,0,1,.19.6l-.27.47A.5.5,0,0,1,50.34,65.43Z"/><path class="cls-28" d="M52,62.73a.51.51,0,0,1-.65.19l-1.66-.78.77.41a.54.54,0,0,1,.24.77l-.14.23-.45.1-1,.22c-.53.1-1.07.18-1.61.25h0l-20-9c.92-.25,1.82-.53,2.71-.84.32-.1.62-.21.93-.33l.76-.28L33,53.24l.64-.28,1.12-.52.68-.33.8-.41.69-.37c.34-.18.68-.38,1-.57l.79-.48.56-.35.23-.15c.46-.3.91-.6,1.36-.92.27-.18.53-.38.79-.57l.55-.42.15-.12c.4-.3.78-.62,1.16-.94s.51-.43.75-.65l.71-.64h0l.92-.89h0c.25-.24.49-.49.72-.74l.57-.61.18-.2.67-.78q.41-.48.78-1l.47-.61.23-.31c.2-.27.4-.54.59-.82s.47-.69.69-1l.18-.27.48-.78c.17-.28.33-.56.49-.84s.42-.75.62-1.14c.06-.11.12-.22.17-.33.15-.28.28-.56.42-.85l.39-.84c.18-.4.36-.81.52-1.22l.18-.45c.12-.3.23-.61.34-.91s.21-.59.31-.88.28-.87.41-1.31c.06-.18.11-.36.16-.55.17-.61.32-1.23.46-1.86l13,7.17a.45.45,0,0,1,.15.65l-.32.52a.55.55,0,0,1-.69.21l-.75-.36.86.46a.67.67,0,0,1,.21,1l-.48.78a.82.82,0,0,1-.89.37,1,1,0,0,1-.07.15l-.34.54a.58.58,0,0,1-.73.23l-.32-.16,1.28.69a.66.66,0,0,1,.23,1l-.47.75a.79.79,0,0,1-1,.3l-.68-.34,0,.07-.32.52a.56.56,0,0,1-.7.2l-2.32-1.13,3.22,1.73a.64.64,0,0,1,.23.93l-.45.72a.76.76,0,0,1-1,.29l-.69-.34h0l-.32.51a.56.56,0,0,1-.71.21L58.6,42.38l4.06,2.17a.63.63,0,0,1,.23.9l-.44.71a.75.75,0,0,1-1,.27l-.69-.34-.27.44a.49.49,0,0,1-.16.16l.56.3a.7.7,0,0,1,.17,1l-.49.82a.8.8,0,0,1-1,.38l-.69-.35-.27.43a.69.69,0,0,1-.11.13l.54.29a.7.7,0,0,1,.17,1l-.5.83a.82.82,0,0,1-1,.38l-.27-.14L57.3,52a.27.27,0,0,1-.08.1l.12.07a.73.73,0,0,1,.14,1L57,54.1a.82.82,0,0,1-1,.43l0,0-.12.2a.51.51,0,0,1-.51.23l.15.08a.65.65,0,0,1,.17.95l-.47.79a.86.86,0,0,1-.48.39l-.21.33a.52.52,0,0,1-.65.18l-1.08-.53,1,.54a.57.57,0,0,1,.24.8l-.37.61a.64.64,0,0,1-.24.22.39.39,0,0,1,0,.49l-.28.46a.52.52,0,0,1-.65.18l-.08,0a.54.54,0,0,1,.06.63l-.37.59a.08.08,0,0,1,0,0,.44.44,0,0,1,.17.61Z"/><path class="cls-28" d="M50.34,65.43l-2.93-1.31h0l-8.6-3.85,1.11-1,.54-.5.69-.65.35-.34.58-.57q.3-.28.57-.57c.23-.22.46-.45.68-.68l.3-.31c.2-.21.4-.43.61-.64l.48-.52.81-.89.2-.22.3-.35.79-.9.79-.94.23-.29.25-.3.71-.89.75-1,.4-.53.12-.16.6-.81c.24-.34.49-.68.73-1l.34-.49.24-.35.45-.67c.27-.4.54-.81.8-1.22l.3-.48.28-.44.43-.7c.26-.42.5-.84.75-1.27l.07-.12c.18-.3.35-.61.52-.91s.26-.46.38-.7c.25-.44.49-.89.72-1.34l.09-.17c.17-.32.33-.64.49-1l.33-.67c.23-.46.45-.93.67-1.4,0-.09.08-.19.13-.28l.45-1c.1-.22.19-.45.29-.67.21-.5.42-1,.62-1.49,0-.11.09-.22.13-.33.23-.56.44-1.12.65-1.68l8.31,4.6a.45.45,0,0,1,.15.65l-.32.52a.55.55,0,0,1-.69.21l-.75-.36.86.46a.67.67,0,0,1,.21,1l-.48.78a.82.82,0,0,1-.89.37,1,1,0,0,1-.07.15l-.34.54a.58.58,0,0,1-.73.23l-.32-.16,1.28.69a.66.66,0,0,1,.23,1l-.47.75a.79.79,0,0,1-1,.3l-.68-.34,0,.07-.32.52a.56.56,0,0,1-.7.2l-2.32-1.13,3.22,1.73a.64.64,0,0,1,.23.93l-.45.72a.76.76,0,0,1-1,.29l-.69-.34h0l-.32.51a.56.56,0,0,1-.71.21L58.6,42.38l4.06,2.17a.63.63,0,0,1,.23.9l-.44.71a.75.75,0,0,1-1,.27l-.69-.34-.27.44a.49.49,0,0,1-.16.16l.56.3a.7.7,0,0,1,.17,1l-.49.82a.8.8,0,0,1-1,.38l-.69-.35-.27.43a.69.69,0,0,1-.11.13l.54.29a.7.7,0,0,1,.17,1l-.5.83a.82.82,0,0,1-1,.38l-.27-.14L57.3,52a.27.27,0,0,1-.08.1l.12.07a.73.73,0,0,1,.14,1L57,54.1a.82.82,0,0,1-1,.43l0,0-.12.2a.51.51,0,0,1-.51.23l.15.08a.65.65,0,0,1,.17.95l-.47.79a.86.86,0,0,1-.48.39l-.21.33a.52.52,0,0,1-.65.18l-1.08-.53,1,.54a.57.57,0,0,1,.24.8l-.37.61a.64.64,0,0,1-.24.22.39.39,0,0,1,0,.49l-.28.46a.52.52,0,0,1-.65.18l-.08,0a.54.54,0,0,1,.06.63l-.37.59a.08.08,0,0,1,0,0,.44.44,0,0,1,.17.61l-.27.46a.51.51,0,0,1-.65.19l-1.66-.78.77.41a.54.54,0,0,1,.24.77l-.14.23-.16.25.7.36a.43.43,0,0,1,.19.6l-.27.47A.5.5,0,0,1,50.34,65.43Z"/><path class="cls-29" d="M47.88,63.66A121.5,121.5,0,0,0,66.1,30.15a3.32,3.32,0,0,1,4.29-1.54s3.19,1.17,2.35,4.12c0,0-12.29,25.31-20.84,35.39,0,0-11.72,11.85-13.69,14.13a8.49,8.49,0,0,1-2.92-1.07S47.21,65.81,47.88,63.66Z"/><path class="cls-30" d="M70.39,28.61a3.32,3.32,0,0,0-4.29,1.54A121.5,121.5,0,0,1,47.88,63.66c-.67,2.15-15.44,16.25-15.44,16.25a23.71,23.71,0,0,0,3.88,1.7S69.64,41.89,70.39,28.61Z"/></g></g></svg>