<svg id="Layer_1" data-name="Layer 1" xmlns="http://www.w3.org/2000/svg" xmlns:xlink="http://www.w3.org/1999/xlink" viewBox="0 0 100 100"><defs><style>.cls-1{fill:none;}.cls-2{opacity:0.5;}.cls-3{fill:#fff200;stroke:#494949;stroke-miterlimit:10;}.cls-4{fill:#a6c914;}.cls-5{fill:#efe800;}.cls-6{fill:#fffef3;}.cls-7{fill:#ff0;}.cls-8{fill:#e7242b;}.cls-9{fill:#ed152e;}.cls-10{clip-path:url(#clip-path);}.cls-11{opacity:0.43;}.cls-12{opacity:0.12;}.cls-13{fill:#fff;}.cls-14{opacity:0.21;}.cls-15{opacity:0.6;}.cls-16{opacity:0.38;}.cls-17{fill:#bbefff;}.cls-18{fill:#f74239;opacity:0.96;isolation:isolate;}.cls-19{opacity:0.49;}.cls-20{opacity:0.29;}.cls-21{clip-path:url(#clip-path-17);}.cls-22{opacity:0.65;}.cls-23{fill:#e25c56;}.cls-24{opacity:0.46;}.cls-25{fill:#ff574a;}</style><clipPath id="clip-path"><path class="cls-1" d="M44.67,51.79l1.17-.06L44.37,22.47a1.13,1.13,0,0,0-1.08-1h0l-10.85.15,0,1.13,10.31-.14a.49.49,0,0,1,.51.47Z"/></clipPath><clipPath id="clip-path-17"><path class="cls-1" d="M43.37,68.58h0v2a1.84,1.84,0,0,0,1.29,1.75,11.12,11.12,0,0,0,3.16.41,9.05,9.05,0,0,0,2.57-.27A2.18,2.18,0,0,0,52,70.4V68.59h0a116.61,116.61,0,0,1,2.15-18.93,52.1,52.1,0,0,1,3.56-12.11h-20a52.1,52.1,0,0,1,3.56,12.11A116,116,0,0,1,43.37,68.58Z"/></clipPath></defs><ellipse class="cls-2" cx="50.45" cy="52.32" rx="42.3" ry="40.93"/><ellipse class="cls-3" cx="49.55" cy="48.68" rx="42.3" ry="40.93"/><ellipse class="cls-4" cx="49.55" cy="48.68" rx="36.57" ry="35.39"/><ellipse class="cls-5" cx="60.19" cy="35.12" rx="6.5" ry="6.29"/><ellipse class="cls-6" cx="60.19" cy="35.12" rx="6" ry="5.81"/><path class="cls-7" d="M60.22,34.44A8.59,8.59,0,0,1,60,31.78c.08-1.6-.25-2,.57-2a3.52,3.52,0,0,1,1.71.48c.43.23.85.51.46,1s-1.67,2.56-1.94,2.9S60.31,34.74,60.22,34.44Z"/><path class="cls-7" d="M59.45,35.59s-3.78,1.2-4,1.66.38,1.3.82,1.63.89.62,1.09.44S60.06,35.39,59.45,35.59Z"/><path class="cls-7" d="M61,35.19a.22.22,0,0,1-.08-.38,2.24,2.24,0,0,1,.52-.33,14.77,14.77,0,0,1,3.35-1.21c.36.1.64,0,.77,1s.12,1.31-.31,1.28-2.56-.16-3.12-.18A4.34,4.34,0,0,1,61,35.19Z"/><path class="cls-7" d="M57.29,30.9s.44.67.93,1.5a11.3,11.3,0,0,0,1.36,2.07c.22.11.36-.13.33-.57s-.18-3.63-.3-3.79-.72-.2-1.17,0S57.35,30.69,57.29,30.9Z"/><path class="cls-7" d="M55,34.18A3.05,3.05,0,0,0,54.81,36c.28.75.28,1.08.81.84a39.11,39.11,0,0,1,3.73-1.44c.38,0,.19-.43-.11-.46S55.36,34,55,34.18Z"/><path class="cls-7" d="M60.05,35.82s-.08-.29-.38,0-1.78,3.26-1.9,3.48.25.77.83.86,1.49.38,1.65.07S60,36.2,60.05,35.82Z"/><path class="cls-7" d="M57,31.12S55.42,32,55.16,33s-.33,1,.68,1.12,2.87.45,3.3.59-.47-1.37-.91-2S57.3,31.16,57,31.12Z"/><path class="cls-7" d="M60.87,35.35s2.14.18,3,.29,1.78-.11,1.67.76-.35.81-.51,1.18S64.17,39,63.9,39a16.58,16.58,0,0,1-2-2.09C61.36,36.32,60.51,35.31,60.87,35.35Z"/><path class="cls-7" d="M60.84,34.63a.15.15,0,0,1-.16-.23c.37-.49,1.48-1.94,1.72-2.29s.66-1.23,1.1-1a3.08,3.08,0,0,1,1.16,1.21c.31.52.3.53-.12.83s-2.8,1-3.22,1.27A1.72,1.72,0,0,1,60.84,34.63Z"/><path class="cls-7" d="M60.55,35.59s-.19-.24-.2.53.2,1.73.16,2.12a7.76,7.76,0,0,0,.1,1.71.67.67,0,0,0,.87.48c.51-.16,2.35-.84,2.19-1.16S60.82,36,60.55,35.59Z"/><path class="cls-8" d="M60.15,35.13H35.2S38.48,40,40.32,49.52A125.64,125.64,0,0,1,42.57,72h0c0,1.61-.44,1.53-1.11,2.17A1.94,1.94,0,0,0,41.12,76h13.1a1.94,1.94,0,0,0-.34-1.77c-.67-.65-1.08-.56-1.11-2.17h0A125,125,0,0,1,55,49.52C56.88,40,60.15,35.13,60.15,35.13Z"/><path id="SVGID" class="cls-9" d="M44.67,51.79l1.17-.06L44.37,22.47a1.13,1.13,0,0,0-1.08-1h0l-10.85.15,0,1.13,10.31-.14a.49.49,0,0,1,.51.47Z"/><g class="cls-10"><g class="cls-11"><path class="cls-9" d="M45.5,52.09l1.18.22L45.23,21.66a1.13,1.13,0,0,0-1.08-1.05h0l-12.54,0-.13,1.22,11.85-.08a.8.8,0,0,1,.69.6Z"/></g></g><g class="cls-10"><g class="cls-12"><path class="cls-13" d="M43.86,52.57,45,52.51,43.57,23.25c0-.57,0-1-.62-1.08l-13.05.06,0,1.14,11.81.12a.5.5,0,0,1,.51.47Z"/></g></g><g class="cls-14"><path class="cls-13" d="M41.39,22.27a19.93,19.93,0,0,1-3.7.14c-1.47.05-3.3.38-4.7,0-.2-.06-.24-.39,0-.43a52.8,52.8,0,0,1,8.46-.1C42,21.9,41.48,22.24,41.39,22.27Z"/></g><g class="cls-14"><path class="cls-13" d="M44,24.85a11.52,11.52,0,0,1,.37,3.32A18.92,18.92,0,0,1,44.6,32c0,.22-.46.11-.56-.08-.44-.77-.24-2-.31-2.84A23.47,23.47,0,0,1,43.48,25C43.55,24.2,44,24.85,44,24.85Z"/></g><g class="cls-10"><g class="cls-15"><path class="cls-9" d="M43.23,23.46a6.73,6.73,0,0,1,1-.22,1.58,1.58,0,0,1,.89,0,.07.07,0,0,1,0,.12,1.76,1.76,0,0,1-.77.11c-.36,0-.72,0-1.09.09-.06,0-.08-.09,0-.1Z"/></g></g><g class="cls-10"><g class="cls-16"><path class="cls-9" d="M43,23.33c.27-.1,1-.34,1.27-.41a1.4,1.4,0,0,1,.75-.07.06.06,0,0,1,0,.11c-.16.13-.42.11-.63.15s-1.08.23-1.38.3c-.05,0-.05-.07,0-.08Z"/></g></g><g class="cls-10"><g class="cls-16"><path class="cls-9" d="M43,23.07c.2-.19.79-.66,1-.83a1.35,1.35,0,0,1,.67-.32s.07.06,0,.1-.35.25-.53.37-.92.6-1.18.76c0,0-.08,0,0-.08Z"/></g></g><g class="cls-10"><g class="cls-16"><path class="cls-9" d="M43,22.89a13.11,13.11,0,0,1,.78-1.06,1.37,1.37,0,0,1,.57-.47s.09,0,.07.07c-.06.2-.27.34-.41.49s-.73.8-.94,1c0,0-.1,0-.07-.05Z"/></g></g><g class="cls-10"><g class="cls-16"><path class="cls-9" d="M42.81,22.91c.08-.27.34-1,.46-1.22a1.43,1.43,0,0,1,.41-.61s.09,0,.09.06a1.28,1.28,0,0,1-.26.57c-.15.27-.49,1-.62,1.23,0,0-.09,0-.08,0Z"/></g></g><g class="cls-10"><g class="cls-16"><path class="cls-9" d="M42.66,22.77a11.34,11.34,0,0,1,.08-1.3,1.25,1.25,0,0,1,.21-.69s.08,0,.1,0a1.33,1.33,0,0,1-.08.62c-.06.3-.17,1.06-.23,1.36,0,0-.08,0-.08,0Z"/></g></g><g class="cls-10"><g class="cls-16"><path class="cls-9" d="M42.25,22.92a11.16,11.16,0,0,1,0-1.29,1.26,1.26,0,0,1,.16-.72s.08,0,.1,0a1.35,1.35,0,0,1,0,.63c0,.29-.08,1.07-.1,1.36a.05.05,0,0,1-.1,0Z"/></g></g><g class="cls-10"><g class="cls-16"><path class="cls-9" d="M42.08,23c-.07-.27-.2-1-.23-1.28a1.26,1.26,0,0,1,0-.72A.07.07,0,0,1,42,21a1.32,1.32,0,0,1,.07.63c0,.29.08,1.06.1,1.36a0,0,0,0,1-.09,0Z"/></g></g><g class="cls-10"><g class="cls-15"><path class="cls-9" d="M42.16,23a2.26,2.26,0,0,1,0-1,5.06,5.06,0,0,1,0-1.23,0,0,0,0,1,.08,0,5.64,5.64,0,0,1-.08,2.2Z"/></g></g><g class="cls-10"><g class="cls-15"><path class="cls-9" d="M42.91,22.85a4.45,4.45,0,0,1,.65-1c.14-.19.34-.64.62-.64,0,0,.06,0,0,.08a4,4,0,0,1-.53.71c-.23.3-.48.61-.73.89,0,0-.07,0-.06,0Z"/></g></g><g class="cls-10"><g class="cls-15"><path class="cls-9" d="M43.09,23a5.84,5.84,0,0,1,.75-.82c.11-.09.23-.16.35-.24s.27-.25.43-.34.11,0,.11.07c0,.26-.4.43-.59.57-.37.23-.62.58-1,.82a0,0,0,0,1-.06-.06Z"/></g></g><g class="cls-10"><g class="cls-15"><path class="cls-9" d="M43.13,23.21a3,3,0,0,1,.81-.44l.41-.13a2.92,2.92,0,0,1,.49-.19.07.07,0,0,1,.07.12c-.16.2-.53.26-.75.33s-.65.27-1,.39c0,0-.07-.05,0-.08Z"/></g></g><g class="cls-10"><g class="cls-15"><path class="cls-9" d="M42.76,22.81a1.78,1.78,0,0,1,.17-.82c.09-.35.2-.69.32-1,0-.07.13-.06.13,0a2.9,2.9,0,0,1-.23.91,2.21,2.21,0,0,1-.37.92Z"/></g></g><g class="cls-10"><g class="cls-15"><path class="cls-9" d="M42.42,22.84c0-.34,0-.71.07-1.05a2.37,2.37,0,0,1,.1-.84s.06,0,.08,0a2.17,2.17,0,0,1,0,.95,1.63,1.63,0,0,1-.2,1s-.09,0-.08,0Z"/></g></g><path class="cls-17" d="M60.15,35.13H35.2S38.48,40,40.32,49.52A125.64,125.64,0,0,1,42.57,72h0c0,1.61-.44,1.53-1.11,2.17A1.94,1.94,0,0,0,41.12,76h13.1a1.94,1.94,0,0,0-.34-1.77c-.67-.65-1.08-.56-1.11-2.17h0A125,125,0,0,1,55,49.52C56.88,40,60.15,35.13,60.15,35.13Z"/><path class="cls-18" d="M43.37,68.58h0v2a1.84,1.84,0,0,0,1.29,1.75,11.12,11.12,0,0,0,3.16.41,9.05,9.05,0,0,0,2.57-.27A2.18,2.18,0,0,0,52,70.4V68.59h0a116.61,116.61,0,0,1,2.15-18.93,52.1,52.1,0,0,1,3.56-12.11h-20a52.1,52.1,0,0,1,3.56,12.11A116,116,0,0,1,43.37,68.58Z"/><g class="cls-19"><path class="cls-13" d="M36.24,35.76c1.71.21,3.43.2,5.15.26.86,0,1.71.11,2.58.12a7.47,7.47,0,0,0,2.79,0,.12.12,0,0,0,0-.23A25.56,25.56,0,0,0,41,35.45c-1,0-2,0-2.93,0a4.42,4.42,0,0,0-1.82.17c-.06,0,0,.1,0,.11Z"/></g><g class="cls-19"><path class="cls-13" d="M50.15,36c1.56.2,3.1.28,4.67.34,1.1,0,3,.48,3.88-.24a.14.14,0,0,0,0-.22,1.74,1.74,0,0,0-1.09-.13c-.75,0-1.54-.08-2.3-.11a29.83,29.83,0,0,0-5.09.11c-.15,0-.21.23,0,.25Z"/></g><g class="cls-19"><path class="cls-13" d="M50.64,74.67c-1.16-.08-2.31-.12-3.48-.11a12.2,12.2,0,0,1-1.91-.07,8.28,8.28,0,0,1-2-.76c-.84-.33-1.21,1-.37,1.31a12.79,12.79,0,0,0,7.79,0c.23,0,.16-.37-.06-.39Z"/></g><g class="cls-19"><path class="cls-13" d="M52.14,75h.13L52,74.92s0,0,0,0a.6.6,0,0,0,.3.17.75.75,0,0,0,.49,0A.58.58,0,0,0,52.9,74a.8.8,0,0,0-.64-.09,1.5,1.5,0,0,0-.38.19.48.48,0,0,0-.22.53.51.51,0,0,0,.48.33Z"/></g><g class="cls-20"><path class="cls-13" d="M49.47,74.2a10,10,0,0,1-2.39-.46,18,18,0,0,1-2.39-.89c-1.18-.44-1.87,1.34-.84,1.93a6.74,6.74,0,0,0,5.77-.07.28.28,0,0,0-.15-.51Z"/></g><g class="cls-20"><path class="cls-13" d="M49.12,36.09c1.88.36,4.34.79,6.18.11a.14.14,0,0,0,0-.28,8.82,8.82,0,0,0-2.85-.35,15.42,15.42,0,0,0-3.33.06.24.24,0,0,0,0,.46Z"/></g><path class="cls-13" d="M52.26,36.14c1.75.19,4,.83,5.6,0,.14-.07,0-.23-.07-.25a19.73,19.73,0,0,0-2.55,0c-1,0-2,0-3,.08-.11,0-.1.15,0,.16Z"/><path class="cls-13" d="M46.07,74.61c-.14,0-.27-.15-.4-.19a5.42,5.42,0,0,0-.56-.22A4,4,0,0,1,44.6,74c-.15-.08-.16-.19-.29-.31a.47.47,0,0,0-.71.09c-.34.6.36,1,.85,1.16a2.76,2.76,0,0,0,.9.13c.23,0,.46-.11.68-.12s.22-.28,0-.3Z"/><g class="cls-21"><g class="cls-22"><path class="cls-23" d="M48.51,72.77l0,0-.75,1.79c1-.67,1.5-.85,1.71-1.94.36-1.73,0-4.34-.06-6.07-.17-3.56,0-7.1.05-10.66a95.88,95.88,0,0,1,1-10c.4-1.88.61-3.8.85-5.7a12.3,12.3,0,0,0,.15-2.71c-.08-1-.39-1.91-.44-2.88a3,3,0,0,0-3-2.89c-1.57,0-12.5,2.57-12.42,4.14,0,.95,1.34,1.59,1.54,2.52.15.77,2,10.4,1.87,12.41s2.11,4.07,2.07,5.95c-.08,3.81,1.43,7.68,2,11.5.26,1.64-1.27,3.15-.85,4.61.2.75,2.74,1.33,3.45,1.73a2.53,2.53,0,0,0,1.11.28c1.44,0-1.12.06.43,0a1.41,1.41,0,0,0,1.23-2.09Z"/></g></g><g class="cls-21"><g class="cls-22"><path class="cls-23" d="M47.34,71.8l0,0-.45,1.89c.88-.82-1.89-26.86-1.82-28.47.08-1.91-.44-4.12-.52-6a13.54,13.54,0,0,0-.31-2.7c-.25-1-.72-1.82-.94-2.77a3,3,0,0,0-3.44-2.37c-1.54.25-11.89,4.52-11.54,6,.2.93,1.59,1.35,1.94,2.25.28.72,3.77,9.93,4,11.94s2.79,3.68,3.07,5.54c.57,3.79,2.7,7.35,3.94,11,.53,1.57-.71,3.29-.06,4.68.33.7,2.94.87,3.71,1.16a2.46,2.46,0,0,0,1.15.1c1.41-.23-1.1.23.41,0a1.4,1.4,0,0,0,.88-2.26Z"/></g></g><g class="cls-21"><g class="cls-24"><path class="cls-25" d="M61.49,32.37c-1.41-.94-3.53.08-4.31,1.07-1,1.3-2.34,6.73-2.52,7.2a35.62,35.62,0,0,0-1.27,4.16c-.74,2.93-.94,5.06-1.82,8.69-.29,1.18-.54,5-.79,6.48s-.27,4.42-.41,5.81.15,6.69.28,7.89c.21,1.77,2.23,2.94,4.21,2.94,1.68,0,1.57-1.45,1.34-3.21a2.59,2.59,0,0,0-1.33-2.15c-.28-.12-.54-.24-.83-.34-2.19-.58.23.24.12.16l1.07,1c.56.89.2,1.18.27.26a8.62,8.62,0,0,1,.28-1.17,18.52,18.52,0,0,0,.4-3.23,44.06,44.06,0,0,1,.62-5.63,60.66,60.66,0,0,0,1.09-6.4c.15-2.08.18-4.14.5-6.21s.52-4,1-6c.29-1.31.73-2.57.93-3.91.18-1.17.34-2.34.63-3.48.13-.52.23-1,.36-1.57.07-.29.37-.4.65-.8a1.16,1.16,0,0,0-.44-1.56Z"/></g></g><g class="cls-21"><g class="cls-24"><path class="cls-25" d="M62.28,32.37c-1.42-.94-3.53.08-4.31,1.07-1,1.3-2.34,6.73-2.52,7.2a33.8,33.8,0,0,0-1.27,4.16c-.74,2.93-1,5.06-1.82,8.69-.29,1.18-.54,5-.79,6.48s-.28,4.42-.41,5.81a78.93,78.93,0,0,0,.28,7.89c.21,1.77,2.23,2.94,4.21,2.94,1.68,0,1.57-1.45,1.33-3.21a2.55,2.55,0,0,0-1.32-2.15c-.28-.12-.55-.24-.83-.34-2.2-.58.22.24.12.16l1.07,1c.56.89.2,1.18.27.26a7.35,7.35,0,0,1,.28-1.17A17.6,17.6,0,0,0,57,68a45.94,45.94,0,0,1,.62-5.63,58.22,58.22,0,0,0,1.1-6.4c.15-2.08.17-4.14.5-6.21s.52-4,1-6c.3-1.31.73-2.57.94-3.91a33.8,33.8,0,0,1,.63-3.48c.13-.52.23-1,.35-1.57.07-.29.38-.4.65-.8a1.15,1.15,0,0,0-.43-1.56Z"/></g></g><path class="cls-13" d="M54.22,40.53c-1.18,1.88-1.47,4.58-2,6.68a44.73,44.73,0,0,0-1.14,5.5c-.35,2.47-.59,4.94-.78,7.42A32.59,32.59,0,0,0,50.15,66c.06.59,1,.6,1,0-.36-4.27.32-8.75.85-13A47.3,47.3,0,0,1,53,47.42c.32-1.35.52-2.74.83-4.09a9.14,9.14,0,0,0,.46-2.77c0-.06-.08-.08-.11,0Z"/></svg>