<svg id="Layer_1" data-name="Layer 1" xmlns="http://www.w3.org/2000/svg" viewBox="0 0 100 100"><defs><style>.cls-1{opacity:0.5;}.cls-2{fill:#fff200;stroke:#494949;stroke-miterlimit:10;}.cls-3{fill:#a6c914;}.cls-4{fill:#323232;}</style></defs><ellipse class="cls-1" cx="50.45" cy="51.34" rx="42.3" ry="41.41"/><ellipse class="cls-2" cx="49.55" cy="48.66" rx="42.3" ry="41.41"/><ellipse class="cls-3" cx="49.55" cy="48.66" rx="36.57" ry="35.81"/><path class="cls-4" d="M67.77,52c-2-.88-4.07-2.12-5.09-4.12-1.16-2.27.28-6.62-2.59-7.83-1.93-.83-4.4,0-6.22-1.19-1.63-1.09-2.45-3.07-4.7-2.65-1.77.32-2.81,2.12-4.45,2.75s-4.94-.55-6.16,1S37.62,45,36.83,47a10.37,10.37,0,0,1-5.2,5.89c-1.39.62-4.05.79-5.12,2.1a2.05,2.05,0,0,0-.45,1.49c.13,2.2,1.61,4.76,2.71,6.62a22.16,22.16,0,0,0,10.38,9.38c6.16,2.56,13.91,1.92,20.24.23,4-1.08,6.55-3.14,9.55-5.9,2.37-2.17,6.31-10.42,3.45-13.22C71.29,52.56,69.15,52.55,67.77,52Zm-39.13-.83c3.19-.8,6.57-4.66,7.06-7.87.86-5.74-4.63-11.58-9.49-6-2,2.28-3.18,6.93-3.15,9.8a4,4,0,0,0,3.86,4.2A5.74,5.74,0,0,0,28.64,51.14Zm17-15.75c4.25-3.22,4.78-10.18-1.2-12C39,21.8,33.07,26.48,34.17,32S41.65,38.37,45.61,35.39ZM60.1,37.55a6.84,6.84,0,0,0,6.05-5.84c1.11-7.1-9.4-9.58-13-5.31-1.18,1.4-1.64,3.51-.71,6.42C53.39,36,56.88,37.83,60.1,37.55Zm14-.48c-2-2.72-4.75-1.8-6.84.18a9.25,9.25,0,0,0-2.86,5.14c-.39,4,4.41,9.31,8.66,8C77.58,49.12,76.11,39.85,74.12,37.07Z"/></svg>