<svg id="Layer_1" data-name="Layer 1" xmlns="http://www.w3.org/2000/svg" viewBox="0 0 100 100"><defs><style>.cls-1{opacity:0.5;}.cls-2{fill:#fff200;stroke:#494949;stroke-miterlimit:10;}.cls-3{fill:#a6c914;}.cls-4{fill:#586664;}.cls-5{fill:#c5d1d0;}.cls-6{fill:#d6edec;}</style></defs><ellipse class="cls-1" cx="50.67" cy="52.34" rx="42.08" ry="41.41"/><ellipse class="cls-2" cx="49.33" cy="48.66" rx="42.08" ry="41.41"/><ellipse class="cls-3" cx="49.33" cy="48.66" rx="36.38" ry="35.81"/><path class="cls-4" d="M57.16,26.34a9.62,9.62,0,0,0-7.63-3.76h-.4a9.61,9.61,0,0,0-7.63,3.76A7.84,7.84,0,0,0,41.5,42a9.55,9.55,0,0,0,3.84,3v27.7l1.59,1.26h0l.4.31,2,1.57,1.89-1.86V72.36l1.91-1.88v-2l-1.41-1.39V65.19L52.9,64V62.51l-2.12-2.09V57.26l2-2v-2L51.4,51.92l2-2v-5A9.72,9.72,0,0,0,57.16,42a7.84,7.84,0,0,0,0-15.64Zm-7.83.55a3,3,0,1,1-3.1,3A3.07,3.07,0,0,1,49.33,26.89Z"/><polygon class="cls-5" points="49.33 75.05 51.22 73.19 51.22 71.61 53.13 69.74 53.13 67.71 51.72 66.32 51.72 64.45 52.9 63.28 52.9 61.77 50.78 59.68 50.78 56.52 52.77 54.55 52.77 52.53 51.4 51.18 53.41 49.21 53.41 42.78 49.33 42.78 49.33 75.05"/><polygon class="cls-6" points="49.33 44.42 49.33 75.05 45.34 71.91 45.34 43.34 49.33 44.42"/><polygon class="cls-5" points="46.93 73.17 47.73 73.8 47.73 43.98 46.93 43.77 46.93 73.17"/><path class="cls-6" d="M57.16,25.6a9.63,9.63,0,0,0-7.63-3.77h-.4A9.62,9.62,0,0,0,41.5,25.6a7.84,7.84,0,0,0,0,15.64A9.62,9.62,0,0,0,49.13,45h.4a9.63,9.63,0,0,0,7.63-3.77,7.84,7.84,0,0,0,0-15.64Zm-7.83,6.63a3,3,0,1,1,3.09-3A3.07,3.07,0,0,1,49.33,32.23Z"/></svg>