<svg id="Layer_1" data-name="Layer 1" xmlns="http://www.w3.org/2000/svg" xmlns:xlink="http://www.w3.org/1999/xlink" viewBox="0 0 100 100"><defs><style>.cls-1{fill:none;}.cls-2{opacity:0.5;}.cls-3{fill:#fff200;stroke:#494949;stroke-miterlimit:10;}.cls-4{fill:#a6c914;}.cls-5{clip-path:url(#clip-path);}.cls-6{fill:#f90d1e;}.cls-7{fill:#fc732d;}.cls-8{fill:#ffda00;}.cls-9{fill:#90d812;}.cls-10{fill:#28b3dd;}.cls-11{fill:#2f5bc9;}.cls-12{fill:#ac29b7;}</style><clipPath id="clip-path"><ellipse class="cls-1" cx="49.55" cy="48.19" rx="36.57" ry="35.39"/></clipPath></defs><ellipse class="cls-2" cx="50.45" cy="51.81" rx="42.3" ry="40.94"/><ellipse class="cls-3" cx="49.55" cy="48.19" rx="42.3" ry="40.94"/><ellipse class="cls-4" cx="49.55" cy="48.19" rx="36.57" ry="35.39"/><g class="cls-5"><path class="cls-6" d="M-14.51,179.66a112.72,112.72,0,0,1-6.25-89A115.17,115.17,0,0,1,2.07,51.76a119.21,119.21,0,0,1,37.8-28.37,123.65,123.65,0,0,1,92-6.05A121.05,121.05,0,0,1,172,39.44,116.53,116.53,0,0,1,201.34,76h0l9.76-4.69C178.85,8.43,100-17.27,35,13.94s-91.55,107.5-59.31,170.41l9.77-4.69Z"/><path class="cls-7" d="M172,39.44a121.05,121.05,0,0,0-40.15-22.1,123.65,123.65,0,0,0-92,6.05A119.21,119.21,0,0,0,2.07,51.76,115.17,115.17,0,0,0-20.76,90.62a112.72,112.72,0,0,0,6.25,89h0L-4.75,175h0a102.55,102.55,0,0,1-5.69-81A105,105,0,0,1,10.33,58.64,108.43,108.43,0,0,1,44.71,32.83a112.55,112.55,0,0,1,83.68-5.5,110.54,110.54,0,0,1,36.53,20.1,105.89,105.89,0,0,1,26.65,33.28h0L201.34,76h0A116.53,116.53,0,0,0,172,39.44Z"/><path class="cls-8" d="M5,170.29A92.35,92.35,0,0,1-.11,97.36a94.65,94.65,0,0,1,18.7-31.85,97.75,97.75,0,0,1,31-23.23,101.28,101.28,0,0,1,75.35-5,99.15,99.15,0,0,1,32.9,18.1,95.18,95.18,0,0,1,24,30h0l9.76-4.69h0a105.89,105.89,0,0,0-26.65-33.28,110.54,110.54,0,0,0-36.53-20.1,112.55,112.55,0,0,0-83.68,5.5A108.43,108.43,0,0,0,10.33,58.64,105,105,0,0,0-10.44,94a102.55,102.55,0,0,0,5.69,81h0L5,170.29Z"/><path class="cls-9" d="M157.81,55.43a99.15,99.15,0,0,0-32.9-18.1,101.28,101.28,0,0,0-75.35,5,97.75,97.75,0,0,0-31,23.23A94.65,94.65,0,0,0-.11,97.36,92.35,92.35,0,0,0,5,170.29H5l9.76-4.69h0a82.14,82.14,0,0,1-4.55-64.88A83.89,83.89,0,0,1,26.86,72.39,86.9,86.9,0,0,1,54.4,51.73,89.45,89.45,0,0,1,88.05,43a90.47,90.47,0,0,1,33.38,4.32,88.38,88.38,0,0,1,29.28,16.11,84.78,84.78,0,0,1,21.34,26.65h0l9.76-4.68h0A95.18,95.18,0,0,0,157.81,55.43Z"/><path class="cls-10" d="M24.53,160.91a71.86,71.86,0,0,1-4-56.82A73.72,73.72,0,0,1,35.12,79.26,76.13,76.13,0,0,1,59.24,61.18a78.3,78.3,0,0,1,29.47-7.65A79.09,79.09,0,0,1,118,57.32,77.27,77.27,0,0,1,143.6,71.43a74.3,74.3,0,0,1,18.69,23.34h0l9.76-4.69h0a84.78,84.78,0,0,0-21.34-26.65,88.38,88.38,0,0,0-29.28-16.11A90.47,90.47,0,0,0,88.05,43,89.45,89.45,0,0,0,54.4,51.73,86.9,86.9,0,0,0,26.86,72.39a83.89,83.89,0,0,0-16.64,28.33,82.14,82.14,0,0,0,4.55,64.88h0l9.76-4.69Z"/><path class="cls-11" d="M143.6,71.43A77.27,77.27,0,0,0,118,57.32a79.09,79.09,0,0,0-29.24-3.79,78.3,78.3,0,0,0-29.47,7.65A76.13,76.13,0,0,0,35.12,79.26a73.72,73.72,0,0,0-14.58,24.83,71.86,71.86,0,0,0,4,56.82h0l9.76-4.68h0a61.68,61.68,0,0,1-3.42-48.78A63.43,63.43,0,0,1,43.38,86.14a65.29,65.29,0,0,1,20.7-15.51,67.11,67.11,0,0,1,25.29-6.57,68,68,0,0,1,25.1,3.25,66.56,66.56,0,0,1,22,12.11,64,64,0,0,1,16,20h0l9.76-4.69h0A74.3,74.3,0,0,0,143.6,71.43Z"/><path class="cls-12" d="M44.06,151.54a51.39,51.39,0,0,1-2.86-40.72A52.72,52.72,0,0,1,51.65,93a54.4,54.4,0,0,1,17.28-13A56.4,56.4,0,0,1,111,77.31a55.41,55.41,0,0,1,18.39,10.11,53.14,53.14,0,0,1,13.37,16.72h0l9.77-4.68h0a64,64,0,0,0-16-20,66.56,66.56,0,0,0-22-12.11,68,68,0,0,0-25.1-3.25,67.11,67.11,0,0,0-25.29,6.57,65.29,65.29,0,0,0-20.7,15.51,63.43,63.43,0,0,0-12.51,21.31,61.68,61.68,0,0,0,3.42,48.78h0l9.77-4.69Z"/></g></svg>