<svg id="Layer_1" data-name="Layer 1" xmlns="http://www.w3.org/2000/svg" viewBox="0 0 100 100"><defs><style>.cls-1{opacity:0.5;}.cls-2{fill:#fff200;stroke:#494949;stroke-miterlimit:10;}.cls-3{fill:#a6c914;}.cls-4{fill:#fff800;}.cls-5{fill:#f2e10f;}.cls-6{fill:#3db200;}</style></defs><g id="Banana_Icon" data-name="Banana Icon"><ellipse class="cls-1" cx="50.45" cy="52.31" rx="42.3" ry="40.94"/><ellipse class="cls-2" cx="49.55" cy="48.69" rx="42.3" ry="40.94"/><ellipse class="cls-3" cx="49.55" cy="48.69" rx="36.57" ry="35.39"/><path class="cls-4" d="M40.77,24.31s-4.26,3.58-2.9,13.1S56.35,62.82,68.23,67.73a2.81,2.81,0,0,1-.41,4.06c-2.21,2-16,2.78-26.78-4.18S20.71,46.14,27.48,34.38s6.7-5.63,10.54-12.6Z"/><path class="cls-5" d="M38.9,22.6a1,1,0,0,1,.22.66,2.7,2.7,0,0,1-1,1.56,52.49,52.49,0,0,0-5.57,6.45,16.54,16.54,0,0,0-3.16,6.24A16.39,16.39,0,0,0,30,45a33.32,33.32,0,0,0,6.4,13c3.37,4,7.93,6.83,12.55,9.37a24.26,24.26,0,0,0,7.65,3.06c3.52.58,7.11-.28,10.67-.6a1.34,1.34,0,0,1,.66,0,.9.9,0,0,1,.61,1c-.41,1.1-2,1.77-3.23,2a36,36,0,0,1-22.19-3.92A37.84,37.84,0,0,1,27.62,52.66c-2.25-4.58-3.25-9.83-1.66-14.78,1.45-4.5,3.38-8,7.08-11.07,1.24-1,3.63-2.46,4.37-3.85a1.44,1.44,0,0,1,.5-.66A.77.77,0,0,1,38.9,22.6Z"/><path class="cls-6" d="M41.26,24.85a11.37,11.37,0,0,1-2.38,2.28l-3-2.28.33-2.73a1.51,1.51,0,0,1,2.46-.93L41.08,23A1.25,1.25,0,0,1,41.26,24.85Z"/></g></svg>