<svg id="Layer_1" data-name="Layer 1" xmlns="http://www.w3.org/2000/svg" viewBox="0 0 100 100"><defs><style>.cls-1{opacity:0.5;}.cls-2{fill:#fff200;stroke:#494949;stroke-miterlimit:10;}.cls-3{fill:#a6c914;}.cls-4{fill:#620baf;}.cls-5{fill:#a52bed;}.cls-6{fill:#7615cc;}.cls-7{fill:#cb83ff;}.cls-8{fill:#b855ff;}.cls-9{fill:#fff;}.cls-10{fill:#191919;}</style></defs><ellipse class="cls-1" cx="50.68" cy="52.31" rx="42.07" ry="40.44"/><ellipse class="cls-2" cx="49.85" cy="48.26" rx="42.6" ry="41.01"/><ellipse class="cls-3" cx="49.85" cy="48.26" rx="36.83" ry="35.46"/><path class="cls-4" d="M47.63,50.65A7.64,7.64,0,0,0,50.2,55a3,3,0,0,0-.42,2c.16,1.84,2.47,2.69,3.08,5.43A9,9,0,0,1,52.24,68c-2.06,4.46-8.86,3.51-10.51,3.7a7.86,7.86,0,0,0-1.62.32c-.72.26-1,.65-.36,1.21s2.68.36,2.68.36a4.77,4.77,0,0,1-1.46.5c-.84.13-4.47.43-4-2,.74-3.75,11.36-1.92,11.27-7v-.14c-.19-3.51-4.21-4.43-4.69-7.25-.32-1.89.24-2.57.24-2.57"/><path class="cls-5" d="M73.08,43.48c-2.3,0-4,1.75-6,2.93-2.48,1.48-4.41,2.68-6.9,1.31l0,0a4.64,4.64,0,0,0,2-1.43c.86-.88,2.52-4.62,2.56-4.62v0c.26,1.78,0,2,0,2s-.62-.23-1.36,1.3-.24,2.39.66,2.16a2.79,2.79,0,0,0,1.15-.9,10.94,10.94,0,0,0,1.65-2.56h0a5.56,5.56,0,0,0,.4-1.19c.43-2.15.91-4.76-1.6-5.16s-3.73,3.06-4.78,4.82c-1.28,2.13-2.3,1.85-2.3,1.85A2.09,2.09,0,0,1,57,43.48c-2.46-2.53,3-8.91,2.53-14.41-.29-3.14-4.14-6.59-9.45-6.71,0,0-6.79-.09-9.23,3.7s-1,7.2.24,10.76,1.69,6.93.7,7.93c-2.05,2.09-9.66,2.75-9.86-3.34-.09-2.88,4.87-4.91,3.66-9.14-.45-1.58-1.42-3-4.46-2.84-2.75.1-3.67,2.3-3.91,4.32-.17,1.42.56,2.52,1.06.81.68-2.39,1.63-2.8,2.29-2.89h.05c.92-.05,3.92,1.5-.19,4.87-3,2.46-3.05,6.71-1.69,9.77s6.67,4.24,6.67,4.24c2.29.54,6.54-.08,6.54-.08h0a8,8,0,0,1-3.17,2.24c-4,1.53-8.66,3.95-9.66,8.74a6.14,6.14,0,0,0,2.44,6.13,5.44,5.44,0,0,0,6.38.13l.28-.19a4.12,4.12,0,0,0,1.69-4,5.13,5.13,0,0,0-3.29-3.83c.47.17,2.58,4.14-.47,5.63a2.84,2.84,0,0,1-3.48-.68,2.57,2.57,0,0,1-.53-.78h0c-1.11-2.45,1.17-6.4,8.28-7.68,5.52-1,6.81-4,6.86-4.19a9.53,9.53,0,0,1,1.46,1.5c3.23,4.15,8.82,6.23,16,7.56,2.21.4,4.18,1.35,5.59,4.68,0,.14.11.26.15.38h0s0,0,0,0c1.11,3.37-2.17,5.06-5.27,3.44-2.68-1.4-.62-6.35-1.22-5.68h0c0,.07-2.42,3.05-1.84,5.36.48,1.85,3.34,3.7,5.59,3.6s4.61-1.21,5.31-3.1c1.73-4.65-1.65-9-3.71-10.5-1.78-1.25-3.62-1.66-7.89-2.93a12.34,12.34,0,0,1-8.05-6.75,2.71,2.71,0,0,1-.12-.32c.11.07,10,5.25,14.73.81,2.66-2.52,7-5.59,7.42-2.07a3.25,3.25,0,0,1-2.77,3.73,2.1,2.1,0,0,1-.84-.08,1.24,1.24,0,0,1-.28-.12h0l-.13-.1h0c-.57-.51-.08-1.42.08-1.56,1.13-1,2.51-1.09.66-1-3.89.2-3.78,5.65,1.55,4.59,3.2-.63,4.11-2.62,4.09-5.54S74.89,43.48,73.08,43.48Z"/><path class="cls-6" d="M66.82,43.7h0a10.06,10.06,0,0,1-1.65,2.56,2.93,2.93,0,0,1-1.15.91c-.9.22-1.42-.64-.66-2.16s1.36-1.31,1.36-1.31.24-.26,0-2l0,0a6.29,6.29,0,0,1,1.5-1.79s.9-.47,1,.91A9.58,9.58,0,0,1,66.82,43.7Z"/><path class="cls-4" d="M65.17,46.26a2.93,2.93,0,0,1-1.15.91c-.9.22-1.42-.64-.66-2.16s1.36-1.31,1.36-1.31C65.93,43.94,65.65,45.15,65.17,46.26Z"/><path class="cls-6" d="M70.42,70.23c-1.12,1.53-2.37,2.36-5.31,1.35-2.25-.78-3.38-3.72-1.08-7.65h0c.61-.67-1.46,4.28,1.22,5.68,3.1,1.62,6.38-.07,5.27-3.44h0C70.65,66.5,71.46,68.8,70.42,70.23Z"/><path class="cls-6" d="M46,70.11c-3.16,1.83-4.72,1.21-5.83,1.9-.72.26-1,.65-.36,1.21s2.68.36,2.68.36a4.77,4.77,0,0,1-1.46.5c-.84.13-4.47.43-4-2,.75-3.74,11.36-1.92,11.27-7A4.59,4.59,0,0,1,46,70.11Z"/><path class="cls-6" d="M38.21,67.52c-3.73,1.16-5.78-2.22-6.08-3.65a2.76,2.76,0,0,0,.53.78,2.84,2.84,0,0,0,3.48.68c3-1.49.94-5.46.47-5.63a5.13,5.13,0,0,1,3.29,3.83A4.14,4.14,0,0,1,38.21,67.52Z"/><path class="cls-6" d="M43.56,47.21c-.11.28-.19.57-.31.85a18.5,18.5,0,0,1-.81,1.75,2.17,2.17,0,0,1-.51.7s-4.25.62-6.55.08c0,0-5.3-1.17-6.66-4.23s-1.32-7.31,1.69-9.78c4.11-3.36,1.11-4.92.19-4.87a2.92,2.92,0,0,1,1.7.21,1.73,1.73,0,0,1,.82,1.23,3.81,3.81,0,0,1-1.09,3c-.39.48-3.57,2.51-3.12,6.59.34,3,.92,4.22,3.66,5.46,2.33,1.06,6.47.84,7.74.46A7.72,7.72,0,0,0,43.37,47c.05,0,.16-.21.23-.12S43.59,47.13,43.56,47.21Z"/><path class="cls-6" d="M72.82,52.09a2.21,2.21,0,0,1-1.24-.53.91.91,0,0,0,.28.12,1.93,1.93,0,0,0,.84.08A3.24,3.24,0,0,0,75.47,48c-.44-3.52-4.74-.45-7.42,2.07-4.69,4.44-14.61-.74-14.73-.81a6.56,6.56,0,0,1-.16-2.09c.09-1.16,5.61,3.53,9.43,3.12,4.3-.44,8.94-4.55,10.3-4.68,1.71-.17,3.67-.11,3.36,2.89A3.6,3.6,0,0,1,72.82,52.09Z"/><path class="cls-6" d="M60.22,47.72s-3.32-2.64-3.69-5c.13.2.09.4.5.74a10.88,10.88,0,0,0,3.29,4.14S60.24,47.68,60.22,47.72Z"/><path class="cls-7" d="M69.65,45.17a10,10,0,0,1,3.23-.86,8.93,8.93,0,0,1,2.86.57,5.22,5.22,0,0,0-3-1A8.77,8.77,0,0,0,69.65,45.17Z"/><path class="cls-7" d="M66.69,58.76a33.88,33.88,0,0,1,3.56,2.73c1,1,1.52,1.61,1.44,1.45a6.91,6.91,0,0,0-2.46-3C67.44,58.62,66.69,58.76,66.69,58.76Z"/><path class="cls-7" d="M39.7,70.26a3.72,3.72,0,0,0-1.94.93,1.77,1.77,0,0,0-.32,1.45s-.09-.48.81-1.38A3.49,3.49,0,0,1,39.7,70.26Z"/><path class="cls-7" d="M42,51.4s-.81,1-6.48,3.54-5.16,5.83-5.16,5.83A7.43,7.43,0,0,1,33.06,57c2.4-2,5.75-2.84,7.29-3.88S42,51.4,42,51.4Z"/><path class="cls-7" d="M31.32,30s2.82.12,3.63,2a2.28,2.28,0,0,1-.09,2.24S35.43,31.53,31.32,30Z"/><path class="cls-8" d="M44.21,24.3s1.17.59-.54,1.29S42.63,24.17,44.21,24.3Z"/><path class="cls-8" d="M61.59,44.65s.8.21-.27,1S60.56,44.82,61.59,44.65Z"/><path class="cls-8" d="M72.73,67.86s.8-.23.29,1S71.94,68.52,72.73,67.86Z"/><path class="cls-8" d="M45,68.81s.5.36-.8.64S44.07,68.68,45,68.81Z"/><path class="cls-8" d="M41.9,69.78s.46.4-.62.56S41.11,69.55,41.9,69.78Z"/><path class="cls-8" d="M43.73,69.85s.23.14-.4.3S43.31,69.82,43.73,69.85Z"/><path class="cls-8" d="M42,26.11s.61.05-.18.83S41.19,26.4,42,26.11Z"/><path class="cls-8" d="M28.22,32.91s-.57.21-.27-.67S28.76,32.4,28.22,32.91Z"/><path class="cls-8" d="M27.68,33.61s-.29.14-.14-.43S28,33.28,27.68,33.61Z"/><path class="cls-8" d="M55,45.76s-.27.39-.5-.3S55.06,45.19,55,45.76Z"/><path class="cls-8" d="M71.75,69.9s-.45.17-.22-.51S72.17,69.5,71.75,69.9Z"/><path class="cls-8" d="M73,66.86s-.32.34-.45-.54S73.18,66.25,73,66.86Z"/><path class="cls-8" d="M44.73,48.12s-.44.17-.21-.52S45.16,47.72,44.73,48.12Z"/><path class="cls-8" d="M55.68,36.85s-.41.14-.19-.44S56.07,36.51,55.68,36.85Z"/><path class="cls-8" d="M58,33.31s-.46.17-.22-.53S58.4,32.91,58,33.31Z"/><path class="cls-8" d="M57.48,46.14s-.15.67-.7,0S57.36,45.36,57.48,46.14Z"/><path class="cls-8" d="M60.44,57.72s.06.72-.94.08S60,56.94,60.44,57.72Z"/><path class="cls-8" d="M63.35,57.84s.21.75-1,.25S62.69,57.09,63.35,57.84Z"/><path class="cls-8" d="M51.11,52.18s-.41.56-.64-.28S51.32,51.42,51.11,52.18Z"/><path class="cls-8" d="M58.32,47.72s-.13.44-.57-.15S58.24,47.14,58.32,47.72Z"/><path class="cls-8" d="M52.61,53s-.24.41-.52-.27S52.67,52.47,52.61,53Z"/><path class="cls-8" d="M30.61,44.36s-.32.35-.46-.35S30.77,43.81,30.61,44.36Z"/><path class="cls-8" d="M77.47,49s-.39.27-.36-.44S77.77,48.48,77.47,49Z"/><path class="cls-8" d="M30.42,40.92s-1,.32-.45-1S31.36,40.15,30.42,40.92Z"/><path class="cls-8" d="M43.18,53.27s-1,.11-.24-1.07S44.26,52.7,43.18,53.27Z"/><path class="cls-8" d="M30.55,64.65s-.62.8-1-.56S30.86,63.5,30.55,64.65Z"/><path class="cls-8" d="M31.7,66.11s-.28.42-.56-.38S31.77,65.47,31.7,66.11Z"/><path class="cls-8" d="M29.84,42.63s-.62.4-.53-.54S30.34,41.94,29.84,42.63Z"/><path class="cls-8" d="M77.19,47.65s-.63.41-.52-.54S77.68,47,77.19,47.65Z"/><path class="cls-8" d="M41.19,28.26s.35-.07,0,.49S40.8,28.53,41.19,28.26Z"/><path class="cls-8" d="M62.51,42.88s.25,0-.14.39S62.16,43,62.51,42.88Z"/><path class="cls-8" d="M62.7,43.75s.45,0-.05.52S62.16,43.89,62.7,43.75Z"/><path class="cls-8" d="M64.16,58.73s.14.42-.51.18S63.78,58.33,64.16,58.73Z"/><path class="cls-8" d="M45.76,24.18s.36.19-.49.47S45.16,24.16,45.76,24.18Z"/><ellipse class="cls-9" cx="46.43" cy="35.72" rx="1.5" ry="1.95"/><ellipse class="cls-9" cx="52.94" cy="35.72" rx="1.5" ry="1.95"/><ellipse class="cls-10" cx="46.43" cy="35.72" rx="1.24" ry="1.2"/><path class="cls-9" d="M47.21,35.3a.28.28,0,0,1-.29.28.28.28,0,1,1,0-.55A.29.29,0,0,1,47.21,35.3Z"/><ellipse class="cls-10" cx="52.91" cy="35.73" rx="1.24" ry="1.2"/><path class="cls-9" d="M53.69,35.3a.27.27,0,0,1-.28.28.28.28,0,1,1,.28-.28Z"/><path class="cls-10" d="M44.66,33.57h-.08a.15.15,0,0,1,0-.17,2.13,2.13,0,0,1,2.13-.73.11.11,0,0,1,.11.14.12.12,0,0,1-.14.11,1.86,1.86,0,0,0-1.88.61A.12.12,0,0,1,44.66,33.57Z"/><path class="cls-10" d="M54.69,33.57h.07a.13.13,0,0,0,.05-.17,2.1,2.1,0,0,0-2.13-.73.12.12,0,0,0-.11.14.13.13,0,0,0,.15.11,1.85,1.85,0,0,1,1.87.61A.1.1,0,0,0,54.69,33.57Z"/></svg>