<svg xmlns="http://www.w3.org/2000/svg" viewBox="0 0 100 100"><defs><style>.cls-1{isolation:isolate;}.cls-2{opacity:0.5;}.cls-3{fill:#fff200;stroke:#494949;stroke-miterlimit:10;}.cls-4{fill:#a6c914;}.cls-5{fill:#f22f08;}.cls-6{fill:#f29555;}.cls-7{fill:#f2f2f2;}.cls-13,.cls-7,.cls-9{mix-blend-mode:multiply;}.cls-8,.cls-9{fill:#ccc;}.cls-10{fill:#ffa300;}.cls-11{fill:#35b8f9;}.cls-12{fill:#febf32;}.cls-13{fill:#e6e6e6;}.cls-14{fill:#333;mix-blend-mode:screen;}</style></defs><g class="cls-1"><g id="Layer_1" data-name="Layer 1"><ellipse class="cls-2" cx="50.45" cy="52.26" rx="42.3" ry="40.99"/><ellipse class="cls-3" cx="49.55" cy="48.74" rx="42.3" ry="40.99"/><ellipse class="cls-4" cx="49.55" cy="48.74" rx="36.57" ry="35.44"/><path class="cls-5" d="M64.4,57.63c0,11.9-4.83,21.54-10.79,21.54S42.82,69.53,42.82,57.63s4.83-21.54,10.79-21.54S64.4,45.74,64.4,57.63Z"/><path class="cls-6" d="M53.61,36.09a5.69,5.69,0,0,0-1.69.27c5.93.06,10.73,9.68,10.73,21.54,0,10.74-3.94,19.65-9.1,21.27h.06c6,0,10.79-9.64,10.79-21.54S59.57,36.09,53.61,36.09Z"/><path class="cls-7" d="M47.08,38.47C43.59,42,41.21,49.28,41.21,57.63s2.32,15.42,5.74,19c5.56-.77,9.95-9,9.95-19.11S52.58,39.34,47.08,38.47Z"/><path class="cls-5" d="M53.61,57.53c0,12.59-4.83,22.8-10.79,22.8S32,70.12,32,57.53s4.84-22.8,10.8-22.8S53.61,44.93,53.61,57.53Z"/><path class="cls-6" d="M42.82,34.73a5.41,5.41,0,0,0-1.21.14C47,36.14,51.19,45.8,51.19,57.53S47,78.91,41.61,80.18a4.89,4.89,0,0,0,1.21.15c6,0,10.79-10.21,10.79-22.8S48.78,34.73,42.82,34.73Z"/><polygon class="cls-8" points="55.04 21.48 57 15.42 55.69 15.46 53.83 21.52 55.04 21.48"/><path class="cls-9" d="M55,57.67c0-7.15-2-13.43-4.95-17,2.16,4.17,3.52,10.17,3.52,16.84,0,7.07-1.52,13.39-3.91,17.57C52.89,71.65,55,65.14,55,57.67Z"/><path class="cls-10" d="M49.05,57.84c0,9.31-3.57,16.87-8,16.87s-8-7.56-8-16.87S36.66,41,41.07,41,49.05,48.52,49.05,57.84Z"/><path class="cls-11" d="M43.87,58.26c0,5-1.92,9.05-4.29,9.05s-4.28-4.05-4.28-9.05,1.92-9.06,4.28-9.06S43.87,53.25,43.87,58.26Z"/><path class="cls-12" d="M40,58.26c0,1.89-.72,3.43-1.62,3.43s-1.63-1.54-1.63-3.43.73-3.44,1.63-3.44S40,56.36,40,58.26Z"/><polygon class="cls-13" points="53.83 21.52 54.01 21.51 56.13 15.45 55.69 15.46 53.83 21.52 53.83 21.52"/><path class="cls-8" d="M55,21.61H53.61V64.88A14.59,14.59,0,0,1,49.7,75.1,11.91,11.91,0,0,0,55,65v-.08h0Z"/><path class="cls-8" d="M55,21.46a20.74,20.74,0,0,1-2.3-5.34c-.1-.64,4.21-.7,4.21-.7a16,16,0,0,0-4.58-.21c-2.44.25,1.24,6.25,1.24,6.25Z"/><path class="cls-8" d="M55.07,22.05l-1.94-.59c-.2-.06-.28-.21-.17-.32h0a.64.64,0,0,1,.57-.1l1.94.6c.2.06.28.2.17.32h0A.64.64,0,0,1,55.07,22.05Z"/><path class="cls-14" d="M55.47,21.64,53.53,21a.68.68,0,0,0-.47,0,.65.65,0,0,1,.31,0l1.94.59c.21.07.28.21.17.33l-.09.06a.58.58,0,0,0,.25-.11C55.75,21.84,55.67,21.7,55.47,21.64Z"/><path class="cls-8" d="M54.84,22.52l-1.94-.59c-.2-.06-.28-.21-.17-.32h0a.61.61,0,0,1,.57-.1l1.94.59c.21.06.28.21.17.32h0A.61.61,0,0,1,54.84,22.52Z"/><path class="cls-14" d="M55.24,22.1l-1.94-.59a.69.69,0,0,0-.47,0,.87.87,0,0,1,.32,0l1.94.59c.2.06.28.21.17.32l-.1.07a.45.45,0,0,0,.25-.12C55.52,22.31,55.45,22.16,55.24,22.1Z"/><path class="cls-14" d="M53.61,15.24s-1.64-.18-1.85.38a3.33,3.33,0,0,0,.3,2.25s-.4-1.78-.11-2.26C52.11,15.34,53,15.21,53.61,15.24Z"/></g></g></svg>