<svg id="Layer_1" data-name="Layer 1" xmlns="http://www.w3.org/2000/svg" viewBox="0 0 100 100"><defs><style>.cls-1{opacity:0.5;}.cls-2{fill:#fff200;stroke:#494949;stroke-miterlimit:10;}.cls-3{fill:#a6c914;}.cls-4{fill:#29151e;}.cls-5{fill:#e55c00;}.cls-6{fill:#ff6a00;}.cls-7{fill:none;}.cls-8{fill:#fff;}.cls-9{fill:#ff5215;}.cls-10{fill:#fcfcff;}.cls-11{fill:#021e4b;}.cls-12{fill:#aa2c00;}</style></defs><ellipse class="cls-1" cx="50.45" cy="52.31" rx="42.3" ry="40.94"/><ellipse class="cls-2" cx="49.55" cy="48.69" rx="42.3" ry="40.94"/><ellipse class="cls-3" cx="49.55" cy="48.69" rx="36.57" ry="35.39"/><path class="cls-4" d="M62.36,59.8a7.28,7.28,0,0,1-6.67,2.35,20,20,0,0,1-2.44-.54,5.72,5.72,0,0,1-2.17-2.07,14.45,14.45,0,0,1-1.3-3.92c.16-.15.33-.31.51-.46a11.22,11.22,0,0,0,2.17,4.64c3,3.66,9.78-.41,9.95-4.74a5.81,5.81,0,0,0-.64-2.58,2.37,2.37,0,0,1,1.14,1.09A5.53,5.53,0,0,1,62.36,59.8Z"/><path class="cls-5" d="M62.41,55.06c-.17,4.33-7,8.4-9.95,4.74a11.22,11.22,0,0,1-2.17-4.64,10.67,10.67,0,0,1,2.39-1.56c2.25-1.05,6.8-2.22,9.09-1.12A5.81,5.81,0,0,1,62.41,55.06Z"/><path class="cls-4" d="M45,42l-.82-.22c1.18-1.47,2-3,1.82-4.58-.28-2.3-4.11-5.22-9.28-4.1a5.07,5.07,0,0,1,5.39-1.17,14.76,14.76,0,0,1,3.26,1.88,7.29,7.29,0,0,1,1.53,3.78C47.08,39.14,46.22,40.57,45,42Z"/><path class="cls-6" d="M44.19,41.74c-5.38-1.44-10-3-9.85-3.74.5-2.55.93-3.59,2.25-4.81a.86.86,0,0,0,.14-.13c5.17-1.12,9,1.8,9.28,4.1C46.2,38.78,45.37,40.27,44.19,41.74Z"/><path class="cls-4" d="M62.91,41.29a5.82,5.82,0,0,1-2.17,3.11,11.8,11.8,0,0,0,.7-1.18c1.43-2.76.43-5.16-2.28-5.41-2-.19-4.81.18-6.19,2.2a16.5,16.5,0,0,0-1.7,3.47l-1-.23a11.67,11.67,0,0,1,.64-1.8,12.41,12.41,0,0,1,6.38-5.33l.24-.07h0a6,6,0,0,1,3.29,0C63.18,37,63.29,39.64,62.91,41.29Z"/><path class="cls-6" d="M61.44,43.22a11.8,11.8,0,0,1-.7,1.18h0l-.52.42c-.42.35-4.31-.3-8.95-1.34A16.5,16.5,0,0,1,53,40c1.38-2,4.23-2.39,6.19-2.2C61.87,38.06,62.87,40.46,61.44,43.22Z"/><path class="cls-4" d="M44.55,66.25a5.39,5.39,0,0,1-3.78,1.22,4.94,4.94,0,0,1-3.93-2.17,12.37,12.37,0,0,1-1.46-2.39c.14.2.28.4.43.59a4.94,4.94,0,0,0,3.93,2.17,5.35,5.35,0,0,0,3.77-1.22,5,5,0,0,0,.9-4.18,2.8,2.8,0,0,1,.88,1.21A5.13,5.13,0,0,1,44.55,66.25Z"/><path class="cls-5" d="M43.51,64.45a5.35,5.35,0,0,1-3.77,1.22,4.94,4.94,0,0,1-3.93-2.17c-.15-.19-.29-.39-.43-.59a11.59,11.59,0,0,1-1-3.89c-.15-1.65,5.24-1.11,6.88-.45a11.4,11.4,0,0,1,3.18,1.7A5,5,0,0,1,43.51,64.45Z"/><path class="cls-7" d="M26.71,44.51a1.82,1.82,0,1,1-1.82-1.75A1.8,1.8,0,0,1,26.71,44.51Z"/><path class="cls-8" d="M33.91,51a12.91,12.91,0,0,0-2.81,3.36c-.65,1.26-1.16,3.4-1.6,4.37A29.75,29.75,0,0,1,25,57.18c.72-1.94,2.39-3.31,3.48-5.31a8.89,8.89,0,0,0-3-11l.27-.17a28.44,28.44,0,0,1,3.47-1.84C32,41.52,37.07,47.94,33.91,51Z"/><path d="M46.46,59.76l-1,.14a24.48,24.48,0,0,0-4-3.21,7.88,7.88,0,0,1-2.72-4c-2-5.8,5.68-9.42,7-13.81l.92.21c-1.32,4.41-9.68,7.77-7.29,13.43A9,9,0,0,0,42,56.27,40.3,40.3,0,0,1,46.46,59.76Z"/><path class="cls-8" d="M50.9,41.45c-1.68,3.7-2.41,12.23-.16,17.37a40,40,0,0,1-4.28.94A40.3,40.3,0,0,0,42,56.27a9,9,0,0,1-2.48-3.73c-2.39-5.66,6-9,7.29-13.43,1.85.43,3.56.86,4.83,1.21A5.63,5.63,0,0,0,50.9,41.45Z"/><path class="cls-4" d="M81.46,45.75a6.19,6.19,0,0,0-7.76-4.16c-1.52.62-2.5,1.75-4.14,2.43h0c-2.54,3-1.39,8.19,1.11,11.15h0c1.88,1.16,5.26,2.38,8.3.55S82.78,49.83,81.46,45.75ZM79.2,51.41a5.36,5.36,0,0,1-3.44,3.9,5,5,0,0,1-6.21-3c-.54-1.7-1-5.59.09-7,1.71-2.25,5.5-2.85,7.32-1.65C79.44,45.29,79.73,49.19,79.2,51.41Z"/><path class="cls-8" d="M70.67,55.17,70.41,55c-1.74-1.15-3.3-2-5.09-1.86a9.08,9.08,0,0,0-3,1l-.17.08c-1.54-2.8-1.62-7.48-.28-10.65a18.48,18.48,0,0,0,5.3,1A7.38,7.38,0,0,0,69.56,44C67,47,68.17,52.21,70.67,55.17Z"/><path d="M51.61,58.57l-.87.25c-2.25-5.14-1.52-13.67.16-17.37a5.63,5.63,0,0,1,.69-1.13l.07,0,.94.27C50.16,44.73,48.43,53.15,51.61,58.57Z"/><path class="cls-6" d="M79.2,51.41a5.36,5.36,0,0,1-3.44,3.9,5,5,0,0,1-6.21-3c-.54-1.7-1-5.59.09-7,1.71-2.25,5.5-2.85,7.32-1.65C79.44,45.29,79.73,49.19,79.2,51.41Z"/><path d="M28.49,51.87c-1.09,2-2.76,3.37-3.48,5.31L24.65,57c.65-1.9,2.12-3.24,3.09-5.2,1.42-2.85.85-8.1-2.6-10.71l.33-.21A8.89,8.89,0,0,1,28.49,51.87Z"/><path d="M34.67,51.34A14.54,14.54,0,0,0,31.49,55a31.18,31.18,0,0,0-1.44,3.87l-.55-.15c.44-1,.95-3.11,1.6-4.37A12.91,12.91,0,0,1,33.91,51c3.16-3.06-1.94-9.48-4.7-12.11l.67-.29C33.05,41.72,38,48.18,34.67,51.34Z"/><path d="M62.17,54.21l-.66.33c-1.75-2.84-1.83-7.91-.34-11.19l.18,0,.54.16C60.55,46.73,60.63,51.41,62.17,54.21Z"/><path class="cls-9" d="M25.14,41.11a22.25,22.25,0,0,0-6.87,6.28C16.57,50,17.84,51.94,21,54.7A15,15,0,0,0,24.65,57c.65-1.9,2.12-3.24,3.09-5.2C29.16,49,28.59,43.72,25.14,41.11Zm-.25,5.16a1.76,1.76,0,1,1,1.82-1.76A1.79,1.79,0,0,1,24.89,46.27ZM45.5,59.9a36.08,36.08,0,0,1-6.79.24,46.67,46.67,0,0,1-8.66-1.26A31.18,31.18,0,0,1,31.49,55a14.54,14.54,0,0,1,3.18-3.67c3.37-3.16-1.62-9.62-4.79-12.74a16.77,16.77,0,0,1,4.9-1.36c2.15-.16,6.86.71,11.06,1.66-1.34,4.39-9,8-7,13.81a7.88,7.88,0,0,0,2.72,4A24.48,24.48,0,0,1,45.5,59.9Zm16-5.36a47.86,47.86,0,0,1-6.45,2.93c-1.1.37-2.24.75-3.45,1.1-3.18-5.42-1.45-13.84,1-18,2.39.71,5.65,1.86,8.57,2.74C59.68,46.63,59.76,51.7,61.51,54.54Z"/><path d="M48.49,50.61a6,6,0,0,1-2.71,4.75,5.28,5.28,0,0,1-3.37,1,4.83,4.83,0,0,0,1.34-.68,5.8,5.8,0,0,0,2.71-4.57,3.88,3.88,0,0,0-3.16-3.79,7.11,7.11,0,0,0-3.36-.21,7,7,0,0,1,5.38-.46A4,4,0,0,1,48.49,50.61Z"/><path class="cls-6" d="M46.46,51.12a5.8,5.8,0,0,1-2.71,4.57,4.83,4.83,0,0,1-1.34.68,7.36,7.36,0,0,1-2.79-.67c-2.19-1-3.33-6.11-1.65-7.37a11.66,11.66,0,0,1,2-1.21,7.11,7.11,0,0,1,3.36.21A3.88,3.88,0,0,1,46.46,51.12Z"/><path class="cls-10" d="M24.84,46.48a1.93,1.93,0,1,0-2-1.93,2,2,0,0,0,2,1.93Z"/><path class="cls-11" d="M24.17,45.78a1.21,1.21,0,0,0,0-2.43,1.21,1.21,0,1,0,0,2.43Z"/><path class="cls-9" d="M17.54,49.17s1.38,1,4.34.53"/><path class="cls-12" d="M17.54,49.17c.82,0,1.47,0,2.17.11.34,0,.69.06,1.05.13a5.3,5.3,0,0,1,1.12.29,3.3,3.3,0,0,1-2.26.57A3.5,3.5,0,0,1,18.47,50,2.09,2.09,0,0,1,17.54,49.17Z"/></svg>