<svg id="Layer_1" data-name="Layer 1" xmlns="http://www.w3.org/2000/svg" viewBox="0 0 100 100"><defs><style>.cls-1{opacity:0.5;}.cls-2{fill:#fff200;stroke:#494949;stroke-miterlimit:10;}.cls-3{fill:#a6c914;}.cls-4{fill:#ff153c;}.cls-5{fill:#bf042d;}.cls-6{fill:#ff3964;}.cls-7{fill:#910026;}.cls-8{fill:#e50031;}.cls-9{fill:#ffd5ca;}.cls-10{fill:#f9bbb4;}.cls-11{fill:#ffe5dc;}.cls-12{fill:#ffbfab;}.cls-13{fill:#ffad9f;}.cls-14{fill:#fff;opacity:0.31;}</style></defs><ellipse class="cls-1" cx="50.45" cy="52.31" rx="42.3" ry="40.94"/><ellipse class="cls-2" cx="49.55" cy="48.69" rx="42.3" ry="40.94"/><ellipse class="cls-3" cx="49.55" cy="48.69" rx="36.57" ry="35.39"/><polygon class="cls-4" points="27.23 40.47 26.33 65.81 48.02 74.05 48.97 47.45 27.23 40.47"/><polygon class="cls-5" points="48.97 47.45 71.65 42.26 70.76 67.29 48.02 74.05 48.97 47.45"/><polygon class="cls-4" points="26.35 40.26 48.97 47.45 49.26 39.29 26.62 32.52 26.35 40.26"/><path class="cls-5" d="M49.26,39.29l23.5-4.83-.28,7.83L49,47.46Z"/><polygon class="cls-6" points="26.62 32.52 49.64 28.72 72.76 34.46 49.26 39.29 26.62 32.52"/><path class="cls-7" d="M71.64,42.47,49,47.46l-.06,1.8s14-3.15,17.84-3.29,4.75.42,4.75.42Z"/><polygon class="cls-8" points="27.23 40.47 48.97 47.45 48.91 49.26 27.21 40.99 27.23 40.47"/><polygon class="cls-9" points="34.17 34.78 32.49 68.15 37.84 70.18 37.94 35.91 34.17 34.78"/><polygon class="cls-10" points="59.54 37.16 58.86 70.9 64.08 69.3 63.64 36.17 59.54 37.16"/><polygon class="cls-11" points="37.94 35.91 62.84 32 58.15 30.83 34.17 34.78 37.94 35.91"/><polygon class="cls-9" points="59.7 37.15 38.58 30.55 42.51 29.9 63.81 36.19 59.7 37.15"/><path class="cls-12" d="M48.81,33.4a4.43,4.43,0,0,1-1.36,0,53.27,53.27,0,0,1-8.33-1.6,10.44,10.44,0,0,1-3.58-1.55,3.13,3.13,0,0,1-1-1.09,1.59,1.59,0,0,1,0-1.38,2.52,2.52,0,0,1,2-1,11.62,11.62,0,0,1,3.58,0,17.33,17.33,0,0,1,3.16.92,11.36,11.36,0,0,1,1.79.77,8.82,8.82,0,0,1,1.41,1,22.64,22.64,0,0,1,2.22,2.16,4.15,4.15,0,0,1,.9,1.11C49.76,33.13,49.21,33.32,48.81,33.4Z"/><path class="cls-13" d="M48.73,32.71a.74.74,0,0,1-.51,0c-2.73-.48-5-2.34-7.62-3.19-1.46-.46-3-.61-4.47-1-.43-.12-.92-.36-1-.79s.28-.66.6-.86a5.89,5.89,0,0,1,3.85-.48A14.85,14.85,0,0,1,47.29,30a6.32,6.32,0,0,1,1.14,1.29C48.6,31.54,49.15,32.47,48.73,32.71Z"/><path class="cls-9" d="M43.16,25.2a10.19,10.19,0,0,0-2.75-1.58,4.47,4.47,0,0,0-3.14,0,4.19,4.19,0,0,0-2,1.84,4.78,4.78,0,0,0-.89,2.89c1.18-2.35,7.2-.07,10.35,1.42a13.61,13.61,0,0,1,4.66,3.63c.1.11.61-.56.64-.64.13-.34,0-.46-.22-.72-.49-.59-.93-1.22-1.42-1.81a31.72,31.72,0,0,0-3.22-3.34C44.54,26.29,43.86,25.73,43.16,25.2Z"/><path class="cls-14" d="M37,24.52a2.72,2.72,0,0,1,1.09-.29,6.91,6.91,0,0,1,4.31,1.4.62.62,0,0,1,.28.3.23.23,0,0,1-.15.32.33.33,0,0,1-.22-.06,13.15,13.15,0,0,0-1.7-.69,2.55,2.55,0,0,0-1.74-.08A4.41,4.41,0,0,0,38,26a1.28,1.28,0,0,1-1,.28,2.94,2.94,0,0,0-.55-.18c-.15,0-.72.26-.81.16s.16-.44.22-.53A3,3,0,0,1,37,24.52Z"/><path class="cls-9" d="M42.47,37.47a5.61,5.61,0,0,0-.34,1.86,32.61,32.61,0,0,0,.06,4.42l1.19-1.47a6.66,6.66,0,0,0,3.18,2.79,10.14,10.14,0,0,1-.81-3.18,4.25,4.25,0,0,1,1-3.07,7,7,0,0,1,1.37-1.11,21.83,21.83,0,0,0,2.69-2.07,1.85,1.85,0,0,0,.76-1.41c-.06-.7-.87-1.13-1.6-1.17a3.23,3.23,0,0,0-1.82.45,11.37,11.37,0,0,0-1,.93,6,6,0,0,1-1.81.7,5.73,5.73,0,0,0-1.57.82A3.66,3.66,0,0,0,42.47,37.47Z"/><path class="cls-9" d="M53.58,34.49c1.93-.09,3.83-.4,5.75-.52a13.66,13.66,0,0,1,5.69.65,4.72,4.72,0,0,1,3,5.79c.55-.85,1.1-1.7,1.64-2.55a11.42,11.42,0,0,1,.93,2.5A4.58,4.58,0,0,0,71,36.52a4.79,4.79,0,0,0-2.75-2.79,8.84,8.84,0,0,0-1.7-.44l-3.32-.61c-1.83-.33-3.66-.67-5.51-.86s-3.68-.23-5.16.72a1.43,1.43,0,0,0-.44,1.5C52.28,34.6,53.08,34.51,53.58,34.49Z"/><path class="cls-12" d="M52.33,33.59a4.43,4.43,0,0,0,1.36,0A52,52,0,0,0,62,31.83a10.44,10.44,0,0,0,3.56-1.6,3.08,3.08,0,0,0,.93-1.1,1.56,1.56,0,0,0,0-1.38,2.57,2.57,0,0,0-2-1,11.61,11.61,0,0,0-3.58,0,17.28,17.28,0,0,0-3.14,1,11.45,11.45,0,0,0-1.79.79,9.35,9.35,0,0,0-1.38,1,21.66,21.66,0,0,0-2.19,2.2,4.07,4.07,0,0,0-.88,1.12C51.38,33.34,51.93,33.52,52.33,33.59Z"/><path class="cls-13" d="M52.41,32.9a.8.8,0,0,0,.51,0c2.72-.52,4.95-2.41,7.57-3.3,1.45-.49,3-.66,4.45-1.11.43-.14.91-.38,1-.81s-.29-.66-.61-.85a5.82,5.82,0,0,0-3.87-.42,14.83,14.83,0,0,0-7.61,3.71,5.81,5.81,0,0,0-1.12,1.31C52.52,31.73,52,32.67,52.41,32.9Z"/><path class="cls-9" d="M57.86,25.31a10.46,10.46,0,0,1,2.72-1.63,4.53,4.53,0,0,1,3.14-.06,4.19,4.19,0,0,1,2,1.81,4.71,4.71,0,0,1,.93,2.88c-1.21-2.34-7.19,0-10.32,1.57a13.62,13.62,0,0,0-4.61,3.7c-.09.11-.61-.55-.64-.63-.14-.34,0-.47.2-.73.49-.59.91-1.23,1.39-1.83A31.63,31.63,0,0,1,55.84,27C56.49,26.42,57.16,25.85,57.86,25.31Z"/><path class="cls-14" d="M61.53,24.16c0,.23.28.37.5.47a2.91,2.91,0,0,1,1.69,1.53,1.44,1.44,0,0,0,.21.53,1.06,1.06,0,0,0,.63.27l.76.13a.28.28,0,0,0,.44-.25,2.07,2.07,0,0,0-.54-1.27c-.23-.3-.47-.6-.71-.88a2.32,2.32,0,0,0-.89-.73,5.14,5.14,0,0,0-1.41-.12C62,23.8,61.46,23.71,61.53,24.16Z"/><path class="cls-9" d="M48.68,30.67a1.85,1.85,0,0,0-.76,1,2.36,2.36,0,0,0-.07.65A4.65,4.65,0,0,0,48,33.35a1.08,1.08,0,0,0,.23.51,1.31,1.31,0,0,0,.62.37,5.82,5.82,0,0,0,3.23.14,1.37,1.37,0,0,0,1-.65,1.56,1.56,0,0,0,.08-.48A4.42,4.42,0,0,0,53,31.88a2.15,2.15,0,0,0-.7-1.16,2.43,2.43,0,0,0-1.2-.5A3.47,3.47,0,0,0,48.68,30.67Z"/><path class="cls-12" d="M53,31.88a2.14,2.14,0,0,0-.69-1.16,1.19,1.19,0,0,0-.23-.16,2.28,2.28,0,0,1,.24.61,4.38,4.38,0,0,1,.11,1.35,1.57,1.57,0,0,1-.08.49,1.36,1.36,0,0,1-1,.64,5.73,5.73,0,0,1-3.23-.13L48,33.47a1,1,0,0,0,.19.39,1.31,1.31,0,0,0,.62.37,5.82,5.82,0,0,0,3.23.14,1.35,1.35,0,0,0,1-.65,1.31,1.31,0,0,0,.08-.48A4.42,4.42,0,0,0,53,31.88Z"/><path class="cls-14" d="M48.77,31.16a2.29,2.29,0,0,0-.37,1.25.7.7,0,0,0,0,.29.57.57,0,0,0,.5.33.56.56,0,0,0,.34-.06c.2-.15.15-.45.18-.7a1,1,0,0,1,.87-.86c.14,0,.28,0,.42,0a.36.36,0,0,0,.3-.25c.09-.43-.75-.51-1-.5A1.58,1.58,0,0,0,48.77,31.16Z"/></svg>