<svg id="Layer_1" data-name="Layer 1" xmlns="http://www.w3.org/2000/svg" viewBox="0 0 100 100"><defs><style>.cls-1{opacity:0.5;}.cls-2{fill:#fff200;stroke:#494949;stroke-miterlimit:10;}.cls-3{fill:#a6c914;}.cls-4{fill:#efd154;}.cls-5{fill:#ffe266;}.cls-6{fill:#383838;}.cls-7{fill:#cecece;}.cls-8{fill:#dfdfef;}.cls-9{fill:#32327c;}.cls-10{fill:#1c1c77;}.cls-11{fill:#412dd6;}.cls-12{fill:#5d54d6;}</style></defs><ellipse class="cls-1" cx="50.45" cy="52.31" rx="42.3" ry="40.94"/><ellipse class="cls-2" cx="49.55" cy="48.69" rx="42.3" ry="40.94"/><ellipse class="cls-3" cx="49.55" cy="48.69" rx="36.57" ry="35.39"/><polygon class="cls-4" points="30.02 59.72 27.07 69.42 27.92 70.25 32.9 63.12 34.23 61.85 30.02 59.72"/><polygon class="cls-5" points="27.92 70.25 32.9 63.12 34.23 61.85 36.7 65.66 28.7 71 27.92 70.25"/><polygon class="cls-4" points="28.7 71 36.7 65.66 40.84 67.72 39.55 69 29.59 71.86 28.7 71"/><polygon class="cls-6" points="29.59 71.86 26.26 72.64 27.07 69.42 29.59 71.86"/><polygon class="cls-7" points="61.66 29.11 63.41 27.41 66.61 30.5 64.85 32.2 61.66 29.11"/><polygon class="cls-8" points="64.86 32.19 66.61 30.5 69.8 33.59 68.05 35.28 64.86 32.19"/><polygon class="cls-9" points="66.55 30.44 70.99 26.18 74.22 29.31 69.81 33.59 66.55 30.44"/><polygon class="cls-7" points="67.92 35.4 69.92 33.46 73.1 36.57 71.14 38.47 67.92 35.4"/><path class="cls-10" d="M75.1,34.64l-2.1,2-3.22-3.11,4.41-4.29.91.88a3.12,3.12,0,0,1,0,4.49Z"/><path class="cls-11" d="M68,35.23l3.23,3.15L39.55,69A3.38,3.38,0,0,1,38,68.14a7.11,7.11,0,0,1-1.33-2.52Z"/><path class="cls-11" d="M30,59.72s0,.07.26.14a3.51,3.51,0,0,1,2,1.93c.43,1.26.71,1.46.71,1.46l31.93-31L61.66,29.1Z"/><path class="cls-12" d="M32.9,63.12a3.53,3.53,0,0,0,1.94,1.29,3.2,3.2,0,0,1,1.86,1.25l31.35-30.4-3.19-3.07Z"/><path class="cls-10" d="M63.42,27.4l2.1-2A3.24,3.24,0,0,1,69.67,25s.11,0,1.36,1.23L66.61,30.5Z"/></svg>