<svg id="Layer_1" data-name="Layer 1" xmlns="http://www.w3.org/2000/svg" xmlns:xlink="http://www.w3.org/1999/xlink" viewBox="0 0 100 100"><defs><style>.cls-1{opacity:0.5;}.cls-2{fill:#fff200;stroke:#494949;stroke-miterlimit:10;}.cls-3{fill:#a6c914;}.cls-4{fill:#e8a962;}.cls-5{fill:url(#Mahogany);}.cls-6{opacity:0.4;}.cls-7{fill:#42210b;}.cls-8{fill:#603813;}.cls-9{fill:url(#Mahogany-2);}.cls-10{fill:url(#Mahogany-3);}.cls-11{fill:url(#Mahogany-4);}.cls-12{fill:url(#Mahogany-5);}.cls-13{fill:#ffa962;}.cls-14{fill:#754c24;}.cls-15{fill:url(#Mahogany-6);}.cls-16{fill:#844b1c;}.cls-17{fill:#eda954;}.cls-18{fill:#ed9d54;}.cls-19{opacity:0.47;}.cls-20{fill:url(#Steel);}.cls-21{opacity:0.67;}.cls-22{fill:url(#Pewter);}.cls-23{fill:url(#Steel-2);}.cls-24{fill:url(#Pewter-2);}.cls-25{fill:url(#Steel-3);}.cls-26{fill:url(#Pewter-3);}.cls-27{fill:url(#Steel-4);}.cls-28{fill:url(#Pewter-4);}.cls-29{fill:url(#Steel-5);}.cls-30{fill:url(#Pewter-5);}.cls-31{fill:url(#Steel-6);}.cls-32{fill:url(#Pewter-6);}.cls-33{fill:url(#Steel-7);}.cls-34{fill:url(#Pewter-7);}.cls-35{fill:url(#Steel-8);}.cls-36{fill:url(#Pewter-8);}.cls-37{fill:url(#Steel-9);}.cls-38{fill:url(#Pewter-9);}.cls-39{fill:url(#Steel-10);}.cls-40{fill:url(#Pewter-10);}.cls-41{fill:url(#Steel-11);}.cls-42{fill:url(#Pewter-11);}.cls-43{fill:url(#Steel-12);}.cls-44{fill:url(#Pewter-12);}.cls-45{fill:url(#Steel-13);}.cls-46{fill:url(#Pewter-13);}.cls-47{fill:url(#Steel-14);}.cls-48{fill:url(#Pewter-14);}.cls-49{fill:url(#Steel-15);}.cls-50{fill:url(#Pewter-15);}.cls-51{fill:url(#Steel-16);}.cls-52{fill:url(#Pewter-16);}.cls-53{fill:url(#Steel-17);}.cls-54{fill:url(#Pewter-17);}.cls-55{fill:url(#Steel-18);}.cls-56{fill:url(#Pewter-18);}.cls-57{fill:url(#Steel-19);}.cls-58{fill:url(#Pewter-19);}.cls-59{fill:url(#Steel-20);}.cls-60{fill:url(#Pewter-20);}.cls-61{fill:url(#Steel-21);}.cls-62{fill:url(#Pewter-21);}.cls-63{fill:url(#Steel-22);}.cls-64{fill:url(#Pewter-22);}.cls-65{fill:url(#Steel-23);}.cls-66{fill:url(#Pewter-23);}.cls-67{fill:url(#Steel-24);}.cls-68{fill:url(#Pewter-24);}.cls-69{fill:url(#Steel-25);}.cls-70{fill:url(#Pewter-25);}.cls-71{fill:url(#Steel-26);}.cls-72{fill:url(#Pewter-26);}.cls-73{fill:url(#Steel-27);}.cls-74{fill:url(#Pewter-27);}.cls-75{fill:url(#Steel-28);}.cls-76{fill:url(#Pewter-28);}.cls-77{fill:url(#Steel-29);}.cls-78{fill:url(#Pewter-29);}.cls-79{fill:url(#Steel-30);}.cls-80{fill:url(#Pewter-30);}.cls-81{fill:url(#Steel-31);}.cls-82{fill:url(#Pewter-31);}.cls-83{fill:url(#Steel-32);}.cls-84{fill:url(#Pewter-32);}</style><linearGradient id="Mahogany" x1="-725.42" y1="-1201.97" x2="-712.63" y2="-1201.97" gradientTransform="translate(-1212.93 693.49) rotate(94.01)" gradientUnits="userSpaceOnUse"><stop offset="0" stop-color="#7d3c11"/><stop offset="0.25" stop-color="#bd7550"/><stop offset="0.45" stop-color="#8b4419"/><stop offset="0.63" stop-color="#66200a"/><stop offset="0.79" stop-color="#9e4e2d"/><stop offset="0.98" stop-color="#692f03"/></linearGradient><linearGradient id="Mahogany-2" x1="-755.74" y1="-1200.13" x2="-740.87" y2="-1200.13" xlink:href="#Mahogany"/><linearGradient id="Mahogany-3" x1="-606.07" y1="511.07" x2="-592.7" y2="511.07" gradientTransform="matrix(0.07, 1, 1, -0.07, -405.15, 693.49)" xlink:href="#Mahogany"/><linearGradient id="Mahogany-4" x1="-618.59" y1="512.19" x2="-609.57" y2="512.19" gradientTransform="matrix(0.07, 1, 1, -0.07, -405.15, 693.49)" xlink:href="#Mahogany"/><linearGradient id="Mahogany-5" x1="-635.5" y1="513.31" x2="-621.32" y2="513.31" gradientTransform="matrix(0.07, 1, 1, -0.07, -405.15, 693.49)" xlink:href="#Mahogany"/><linearGradient id="Mahogany-6" x1="71.87" y1="47.29" x2="75.95" y2="47.29" gradientTransform="matrix(1, 0, 0, 1, 0, 0)" xlink:href="#Mahogany"/><linearGradient id="Steel" x1="-1902.62" y1="31.66" x2="-1902.16" y2="31.89" gradientTransform="matrix(-1, 0, 0, 1, -1876.28, 0)" gradientUnits="userSpaceOnUse"><stop offset="0" stop-color="#e5e2df"/><stop offset="0" stop-color="#ded9d6"/><stop offset="0.04" stop-color="#cfccc9"/><stop offset="0.11" stop-color="#a8a8a8"/><stop offset="0.21" stop-color="#6a7072"/><stop offset="0.26" stop-color="#465053"/><stop offset="0.37" stop-color="#878d8f"/><stop offset="0.46" stop-color="#b7babb"/><stop offset="0.53" stop-color="#d5d6d6"/><stop offset="0.57" stop-color="#e0e0e0"/><stop offset="0.63" stop-color="#d6d7d8"/><stop offset="0.73" stop-color="#bcbfc2"/><stop offset="0.86" stop-color="#92989e"/><stop offset="0.88" stop-color="#8b9298"/><stop offset="1" stop-color="#d1d3d4"/><stop offset="1" stop-color="#a7a9ac"/></linearGradient><linearGradient id="Pewter" x1="-824.43" y1="390.85" x2="-824.21" y2="390.85" gradientTransform="matrix(0, 1, 1, 0, -364.85, 856.14)" gradientUnits="userSpaceOnUse"><stop offset="0.03" stop-color="#9b9b98"/><stop offset="0.13" stop-color="#a4a5a7"/><stop offset="0.22" stop-color="#aeb0b7"/><stop offset="0.35" stop-color="#9fa3aa"/><stop offset="0.61" stop-color="#788187"/><stop offset="0.72" stop-color="#657076"/><stop offset="1" stop-color="#8b949a"/></linearGradient><linearGradient id="Steel-2" x1="-1902.63" y1="34.72" x2="-1902.16" y2="34.96" xlink:href="#Steel"/><linearGradient id="Pewter-2" x1="-821.37" y1="390.85" x2="-821.14" y2="390.85" xlink:href="#Pewter"/><linearGradient id="Steel-3" x1="-1900.22" y1="35.07" x2="-1899.75" y2="35.3" xlink:href="#Steel"/><linearGradient id="Pewter-3" x1="-821.02" y1="388.44" x2="-820.8" y2="388.44" xlink:href="#Pewter"/><linearGradient id="Steel-4" x1="-1900.21" y1="32.29" x2="-1899.75" y2="32.53" xlink:href="#Steel"/><linearGradient id="Pewter-4" x1="-823.79" y1="388.44" x2="-823.57" y2="388.44" xlink:href="#Pewter"/><linearGradient id="Steel-5" x1="-1925.5" y1="25.58" x2="-1924.67" y2="26" xlink:href="#Steel"/><linearGradient id="Pewter-5" x1="-830.47" y1="413.45" x2="-830.07" y2="413.45" xlink:href="#Pewter"/><linearGradient id="Steel-6" x1="-1925.51" y1="31.12" x2="-1924.67" y2="31.54" xlink:href="#Steel"/><linearGradient id="Pewter-6" x1="-824.93" y1="413.45" x2="-824.53" y2="413.45" xlink:href="#Pewter"/><linearGradient id="Steel-7" x1="-1921.15" y1="31.74" x2="-1920.32" y2="32.16" xlink:href="#Steel"/><linearGradient id="Pewter-7" x1="-824.31" y1="409.1" x2="-823.9" y2="409.1" xlink:href="#Pewter"/><linearGradient id="Steel-8" x1="-1921.15" y1="26.72" x2="-1920.31" y2="27.15" xlink:href="#Steel"/><linearGradient id="Pewter-8" x1="-829.32" y1="409.1" x2="-828.92" y2="409.1" xlink:href="#Pewter"/><linearGradient id="Steel-9" x1="94.09" y1="25.29" x2="94.93" y2="25.71" gradientTransform="translate(-44.08)" xlink:href="#Steel"/><linearGradient id="Pewter-9" x1="-830.76" y1="-1606.15" x2="-830.36" y2="-1606.15" gradientTransform="translate(-1555.51 856.14) rotate(90)" xlink:href="#Pewter"/><linearGradient id="Steel-10" x1="94.09" y1="30.83" x2="94.92" y2="31.25" gradientTransform="translate(-44.08)" xlink:href="#Steel"/><linearGradient id="Pewter-10" x1="-825.22" y1="-1606.14" x2="-824.82" y2="-1606.14" gradientTransform="translate(-1555.51 856.14) rotate(90)" xlink:href="#Pewter"/><linearGradient id="Steel-11" x1="98.44" y1="31.45" x2="99.28" y2="31.87" gradientTransform="translate(-44.08)" xlink:href="#Steel"/><linearGradient id="Pewter-11" x1="-824.6" y1="-1610.49" x2="-824.2" y2="-1610.49" gradientTransform="translate(-1555.51 856.14) rotate(90)" xlink:href="#Pewter"/><linearGradient id="Steel-12" x1="98.45" y1="26.43" x2="99.28" y2="26.86" gradientTransform="translate(-44.08)" xlink:href="#Steel"/><linearGradient id="Pewter-12" x1="-829.61" y1="-1610.5" x2="-829.21" y2="-1610.5" gradientTransform="translate(-1555.51 856.14) rotate(90)" xlink:href="#Pewter"/><linearGradient id="Steel-13" x1="-1925.44" y1="-153.17" x2="-1924.6" y2="-152.74" gradientTransform="translate(-1876.28 -80.78) rotate(180) scale(1 1.02)" xlink:href="#Steel"/><linearGradient id="Pewter-13" x1="-1009.2" y1="413.39" x2="-1008.8" y2="413.39" gradientTransform="translate(-364.85 -951.56) rotate(-90) scale(1.02 1)" xlink:href="#Pewter"/><linearGradient id="Steel-14" x1="-1925.41" y1="-147.62" x2="-1924.57" y2="-147.2" gradientTransform="translate(-1876.28 -80.78) rotate(180) scale(1 1.02)" xlink:href="#Steel"/><linearGradient id="Pewter-14" x1="-1003.66" y1="413.35" x2="-1003.25" y2="413.35" gradientTransform="translate(-364.85 -951.56) rotate(-90) scale(1.02 1)" xlink:href="#Pewter"/><linearGradient id="Steel-15" x1="-1921.3" y1="-146.28" x2="-1920.47" y2="-145.86" gradientTransform="translate(-1876.28 -80.78) rotate(180) scale(1 1.02)" xlink:href="#Steel"/><linearGradient id="Pewter-15" x1="-1002.32" y1="409.25" x2="-1001.92" y2="409.25" gradientTransform="translate(-364.85 -951.56) rotate(-90) scale(1.02 1)" xlink:href="#Pewter"/><linearGradient id="Steel-16" x1="-1921.36" y1="-150.94" x2="-1920.53" y2="-150.52" gradientTransform="translate(-1876.28 -80.78) rotate(180) scale(1 1.02)" xlink:href="#Steel"/><linearGradient id="Pewter-16" x1="-1006.98" y1="409.31" x2="-1006.57" y2="409.31" gradientTransform="translate(-364.85 -951.56) rotate(-90) scale(1.02 1)" xlink:href="#Pewter"/><linearGradient id="Steel-17" x1="93.63" y1="-153.14" x2="94.47" y2="-152.72" gradientTransform="matrix(1, 0, 0, -1.02, -44.08, -80.78)" xlink:href="#Steel"/><linearGradient id="Pewter-17" x1="-1009.18" y1="-1605.68" x2="-1008.78" y2="-1605.68" gradientTransform="matrix(0, -1.02, -1, 0, -1555.51, -951.56)" xlink:href="#Pewter"/><linearGradient id="Steel-18" x1="93.52" y1="-147.37" x2="94.35" y2="-146.95" gradientTransform="matrix(1, 0, 0, -1.02, -44.08, -80.78)" xlink:href="#Steel"/><linearGradient id="Pewter-18" x1="-1003.41" y1="-1605.57" x2="-1003.01" y2="-1605.57" gradientTransform="matrix(0, -1.02, -1, 0, -1555.51, -951.56)" xlink:href="#Pewter"/><linearGradient id="Steel-19" x1="98.23" y1="-145.57" x2="99.06" y2="-145.14" gradientTransform="matrix(1, 0, 0, -1.02, -44.08, -80.78)" xlink:href="#Steel"/><linearGradient id="Pewter-19" x1="-1001.6" y1="-1610.28" x2="-1001.2" y2="-1610.28" gradientTransform="matrix(0, -1.02, -1, 0, -1555.51, -951.56)" xlink:href="#Pewter"/><linearGradient id="Steel-20" x1="98.31" y1="-150.74" x2="99.14" y2="-150.32" gradientTransform="matrix(1, 0, 0, -1.02, -44.08, -80.78)" xlink:href="#Steel"/><linearGradient id="Pewter-20" x1="-1006.78" y1="-1610.36" x2="-1006.38" y2="-1610.36" gradientTransform="matrix(0, -1.02, -1, 0, -1555.51, -951.56)" xlink:href="#Pewter"/><linearGradient id="Steel-21" x1="116.33" y1="30.71" x2="116.9" y2="31" gradientTransform="translate(-44.08)" xlink:href="#Steel"/><linearGradient id="Pewter-21" x1="-825.36" y1="-1628.18" x2="-825.09" y2="-1628.18" gradientTransform="translate(-1555.51 856.14) rotate(90)" xlink:href="#Pewter"/><linearGradient id="Steel-22" x1="116.32" y1="34.5" x2="116.89" y2="34.79" gradientTransform="translate(-44.08)" xlink:href="#Steel"/><linearGradient id="Pewter-22" x1="-821.57" y1="-1628.18" x2="-821.3" y2="-1628.18" gradientTransform="translate(-1555.51 856.14) rotate(90)" xlink:href="#Pewter"/><linearGradient id="Steel-23" x1="119.3" y1="34.92" x2="119.87" y2="35.21" gradientTransform="translate(-44.08)" xlink:href="#Steel"/><linearGradient id="Pewter-23" x1="-821.15" y1="-1631.15" x2="-820.88" y2="-1631.15" gradientTransform="translate(-1555.51 856.14) rotate(90)" xlink:href="#Pewter"/><linearGradient id="Steel-24" x1="119.3" y1="31.5" x2="119.87" y2="31.79" gradientTransform="translate(-44.08)" xlink:href="#Steel"/><linearGradient id="Pewter-24" x1="-824.57" y1="-1631.16" x2="-824.3" y2="-1631.16" gradientTransform="translate(-1555.51 856.14) rotate(90)" xlink:href="#Pewter"/><linearGradient id="Steel-25" x1="47.39" y1="-538.79" x2="47.95" y2="-538.5" gradientTransform="matrix(0.97, -0.25, -0.2, -0.75, -79.35, -327.54)" xlink:href="#Steel"/><linearGradient id="Pewter-25" x1="-1394.98" y1="-1559.67" x2="-1394.71" y2="-1559.67" gradientTransform="matrix(-0.2, -0.75, -0.97, 0.25, -1709.71, -587.07)" xlink:href="#Pewter"/><linearGradient id="Steel-26" x1="47.97" y1="-534.46" x2="48.53" y2="-534.17" gradientTransform="matrix(0.97, -0.25, -0.2, -0.75, -79.35, -327.54)" xlink:href="#Steel"/><linearGradient id="Pewter-26" x1="-1390.65" y1="-1560.26" x2="-1390.38" y2="-1560.26" gradientTransform="matrix(-0.2, -0.75, -0.97, 0.25, -1709.71, -587.07)" xlink:href="#Pewter"/><linearGradient id="Steel-27" x1="51.7" y1="-533.68" x2="52.27" y2="-533.39" gradientTransform="matrix(0.97, -0.25, -0.2, -0.75, -79.35, -327.54)" xlink:href="#Steel"/><linearGradient id="Pewter-27" x1="-1389.87" y1="-1563.99" x2="-1389.59" y2="-1563.99" gradientTransform="matrix(-0.2, -0.75, -0.97, 0.25, -1709.71, -587.07)" xlink:href="#Pewter"/><linearGradient id="Steel-28" x1="50.83" y1="-538.16" x2="51.39" y2="-537.88" gradientTransform="matrix(0.97, -0.25, -0.2, -0.75, -79.35, -327.54)" xlink:href="#Steel"/><linearGradient id="Pewter-28" x1="-1394.35" y1="-1563.12" x2="-1394.08" y2="-1563.12" gradientTransform="matrix(-0.2, -0.75, -0.97, 0.25, -1709.71, -587.07)" xlink:href="#Pewter"/><linearGradient id="Steel-29" x1="-1708.25" y1="52.48" x2="-1707.68" y2="52.77" gradientTransform="matrix(-0.97, -0.25, 0.2, -0.75, -1635.95, -327.54)" xlink:href="#Steel"/><linearGradient id="Pewter-29" x1="-803.71" y1="195.96" x2="-803.43" y2="195.96" gradientTransform="matrix(0.2, -0.75, 0.97, 0.25, -5.59, -587.07)" xlink:href="#Pewter"/><linearGradient id="Steel-30" x1="-1707.66" y1="56.81" x2="-1707.1" y2="57.1" gradientTransform="matrix(-0.97, -0.25, 0.2, -0.75, -1635.95, -327.54)" xlink:href="#Steel"/><linearGradient id="Pewter-30" x1="-799.38" y1="195.38" x2="-799.1" y2="195.38" gradientTransform="matrix(0.2, -0.75, 0.97, 0.25, -5.59, -587.07)" xlink:href="#Pewter"/><linearGradient id="Steel-31" x1="-1703.93" y1="57.59" x2="-1703.37" y2="57.88" gradientTransform="matrix(-0.97, -0.25, 0.2, -0.75, -1635.95, -327.54)" xlink:href="#Steel"/><linearGradient id="Pewter-31" x1="-798.59" y1="191.64" x2="-798.32" y2="191.64" gradientTransform="matrix(0.2, -0.75, 0.97, 0.25, -5.59, -587.07)" xlink:href="#Pewter"/><linearGradient id="Steel-32" x1="-1704.81" y1="53.11" x2="-1704.24" y2="53.4" gradientTransform="matrix(-0.97, -0.25, 0.2, -0.75, -1635.95, -327.54)" xlink:href="#Steel"/><linearGradient id="Pewter-32" x1="-803.08" y1="192.52" x2="-802.8" y2="192.52" gradientTransform="matrix(0.2, -0.75, 0.97, 0.25, -5.59, -587.07)" xlink:href="#Pewter"/></defs><ellipse class="cls-1" cx="50.45" cy="52.31" rx="42.3" ry="40.94"/><ellipse class="cls-2" cx="49.55" cy="48.69" rx="42.3" ry="40.94"/><ellipse class="cls-3" cx="49.55" cy="48.69" rx="36.57" ry="35.39"/><polygon class="cls-4" points="49.33 67.45 23.5 58.23 23.46 53.25 49.41 59.1 49.33 67.45"/><path class="cls-5" d="M49.33,67.18,23.55,58.09l0-4.66,25.89,6v-.55L23.46,53.09h-.05l0,5.29,25.87,9.35Z"/><g class="cls-6"><path class="cls-7" d="M46.06,64.91l-.75-.27-.69-.24c-1.31-1-2.77-.8-4-1.22,1.24.57,2.54.53,4,1.22Z"/><path class="cls-7" d="M47.78,62.62l1.59.4h0C48.86,62.91,48.33,62.78,47.78,62.62Z"/><path class="cls-7" d="M49.39,60.45v0L47.57,60Z"/><path class="cls-7" d="M36,61.81l2.33.77-3.31-1.14-2.17-.72Z"/><path class="cls-7" d="M23.75,54.77l1.82.51.57.15a4.54,4.54,0,0,0,1,.4,3.53,3.53,0,0,1-.88-.37,4.06,4.06,0,0,0-.61-.19Z"/><path class="cls-7" d="M38.74,61a4,4,0,0,0,3,.83,4.82,4.82,0,0,1-3.07-.93,1.81,1.81,0,0,0-.49-.2l-1.4-.41,1.46.46A1.73,1.73,0,0,1,38.74,61Z"/><path class="cls-7" d="M38.63,62.5l-2.05-.69-1.34-.43Z"/><path class="cls-7" d="M37.73,59.26l-3.12-.89c-.15,0-.31-.09-.48-.16L33.62,58a8.71,8.71,0,0,0,1,.42l1.08.32Z"/><path class="cls-7" d="M36,57l1.63.37-1.15-.29-1.66-.39Z"/><path class="cls-7" d="M31.46,59.72a.56.56,0,0,0,0,.22c0,.08.1.13.15.2a1,1,0,0,0,.27.12l.21.07s0,0,0,0l-.33-.11L31.49,60s-.06-.07,0-.13A1,1,0,0,0,31.46,59.72Z"/><path class="cls-7" d="M43.87,64.38a.54.54,0,0,0,.29.16A1.89,1.89,0,0,0,42.65,64a1.1,1.1,0,0,1,.8.16Z"/><path class="cls-7" d="M29.81,56.59c.67-.39,1.49.33,2.08,1,.11.12.16.14.21.15a.32.32,0,0,1-.17-.11c-.52-.65-1.25-1.22-1.88-1.05Z"/><path class="cls-7" d="M30.91,59.41a.29.29,0,0,0,.19-.26,1.46,1.46,0,0,1-1.69.45,1.89,1.89,0,0,0,1.34-.08A.91.91,0,0,0,30.91,59.41Z"/><path class="cls-7" d="M26.93,54.75l.54.15.39.09-.12-.05Z"/><path class="cls-7" d="M24.37,57.8l.37.14.36.12s0,0,0,0Z"/></g><polygon class="cls-4" points="23.46 53.23 23.42 48.23 49.49 50.62 49.41 59.06 23.46 53.23"/><path class="cls-8" d="M49.41,58.78l-25.9-5.7,0-4.69,26,2.51v-.56L23.37,48.06l0,5.33h.05l25.95,5.94Z"/><g class="cls-6"><path class="cls-7" d="M29.73,49.35l.3,0,.29,0c.58.52,1.28,0,1.92.09-.64-.21-1.26.15-1.89-.11Z"/><path class="cls-7" d="M27.09,51.55a11.1,11.1,0,0,1,2,0c-.79-.09-1.53,0-2.24-.06h-.14c-.1-.26-.22-.28-.35-.43-.66-.1-1.25.68-1.9-.11h-.1l-.92-.16.94.18a.33.33,0,0,1,.12.06c.61.72,1.2-.06,1.87.17a.36.36,0,0,1,.31.31.31.31,0,0,0,.13,0l.27,0Z"/><path class="cls-7" d="M26.44,53.05l2.75.52-2-.43L24,52.52Z"/><path class="cls-7" d="M35.08,49.63l-1.55-.12,2.29.24,1.81.16Z"/><path class="cls-7" d="M46.65,56c-.41-.08-.76-.15-1-.23a4.35,4.35,0,0,0-1.37-.48,6.36,6.36,0,0,1,1.58.51l1,.18c.46.08.91.17,2.64.52h0Z"/><path class="cls-7" d="M33.31,51.22a1.25,1.25,0,0,0-1.63-.15,1.47,1.47,0,0,1,1.7.23.58.58,0,0,0,.3.09l.91.11-1-.14A.67.67,0,0,1,33.31,51.22Z"/><path class="cls-7" d="M33.37,49.65l1.33.15c.33,0,.64.05,1,.08Z"/><path class="cls-7" d="M33.94,52.79l2.22.4a2.16,2.16,0,0,1,.39.09l.42.17a4.21,4.21,0,0,0-.85-.31L35.3,53Z"/><path class="cls-7" d="M24.64,52.54l-.87-.16.58.13.86.17Z"/><path class="cls-7" d="M24.13,51.55l.44.09.09,0,.1,0c.29,0,.53.45.82.13-.23.21-.53,0-.74-.11l-.13-.06Z"/><path class="cls-7" d="M35.11,54.92l-1.1-.2.76.17,1.22.24Z"/><path class="cls-7" d="M27.51,53.35l-.4-.1-.28-.06s.05,0,.08.05Z"/><path class="cls-7" d="M27.23,52.11c-.14,0-.23,0-.41,0a5.52,5.52,0,0,0,.91.11l-.21,0Z"/><path class="cls-7" d="M39,50.72c0-.08,0-.18,0-.28s-.1-.14-.15-.22a.77.77,0,0,0-.27-.06l-.2,0s0,0,0,0l.33,0a1.26,1.26,0,0,1,.26.13s0,.08,0,.16A1.7,1.7,0,0,0,39,50.72Z"/><path class="cls-7" d="M30.65,49.27c0-.05,0-.05-.13-.06.23.31.46.19.69.07a.27.27,0,0,1-.37,0A.6.6,0,0,1,30.65,49.27Z"/><path class="cls-7" d="M40.76,54.56c-.76.65-1.63-.19-2.22-.92-.1-.13-.15-.14-.2-.15a.25.25,0,0,1,.16.11c.52.75,1.28,1.4,2,1.06A.94.94,0,0,0,40.76,54.56Z"/><path class="cls-7" d="M25,52.81h-.12l.24.06.42.07Z"/><path class="cls-7" d="M39.56,51a.57.57,0,0,0-.21.41,2,2,0,0,1,1.91-1.18,2.18,2.18,0,0,0-1.53.57C39.67,50.83,39.61,50.89,39.56,51Z"/><path class="cls-7" d="M44.56,57l-.8-.19-.55-.11.17.07Z"/><path class="cls-7" d="M49.13,51.11c-.23,0-.44-.07-.74-.1l-.68-.07c-.06,0,0,0,0,0Z"/><path class="cls-7" d="M23.78,51.57l-.21,0,.51.1.2,0Z"/><path class="cls-7" d="M24.81,51.64l-.13-.06-.94-.17v0l.94.15.14.07Z"/><path class="cls-7" d="M23.73,51h-.12l.24,0,.39,0Z"/></g><polygon class="cls-4" points="49.49 50.81 23.42 47.88 23.38 42.84 49.57 42.26 49.49 50.81"/><path class="cls-8" d="M49.49,50.52l-26-2.8,0-4.72,26.13-.45V42l-26.19.68h-.05l0,5.37,26.12,3Z"/><g class="cls-6"><path class="cls-7" d="M46.18,49l-.76-.1-.7-.06c-1.32-.65-2.8-.13-4.06-.24,1.25.27,2.57-.1,4,.25Z"/><path class="cls-7" d="M47.92,46.27h1.61C49,46.29,48.48,46.29,47.92,46.27Z"/><path class="cls-7" d="M49.56,43.65v0h0Z"/><path class="cls-7" d="M29.56,47.19a1.6,1.6,0,0,1-1.72-1.11l-.19,0-.19,0c-.6-.06-1.2-.18-1.76-.29l-.73,0h-.34l.78,0a6.08,6.08,0,0,1,.87.11,6.82,6.82,0,0,0,1.4.23.26.26,0,0,1,.21.1c.53.78,1.67,1.49,2.29.42Z"/><path class="cls-7" d="M36,48.39l2.35.19L35,48.25l-2.18-.18Z"/><path class="cls-7" d="M23.67,44.3l1.83.06h.57a3.45,3.45,0,0,0,1,.16,2.56,2.56,0,0,1-.88-.16,3.83,3.83,0,0,0-.62,0Z"/><path class="cls-7" d="M38.77,46.88a3.66,3.66,0,0,0,3,.1,4.28,4.28,0,0,1-3.1-.19,1.42,1.42,0,0,0-.49-.07l-1.42-.07,1.48.1A1.19,1.19,0,0,1,38.77,46.88Z"/><path class="cls-7" d="M38.66,48.44l-2.06-.2-1.36-.1Z"/><path class="cls-7" d="M37.76,45.36l-3.16-.12a4.23,4.23,0,0,1-.48,0l-.52-.1a6,6,0,0,0,1.06.17l1.09.06Z"/><path class="cls-7" d="M36,43.51l1.64,0c-.39,0-.8,0-1.16,0l-1.67,0Z"/><path class="cls-7" d="M31.43,47.41a.5.5,0,0,0,0,.21c0,.08.1.11.15.18a1.08,1.08,0,0,0,.27.05h.22s0,0,0,0l-.34,0-.27-.1s-.05-.07,0-.13A1.11,1.11,0,0,0,31.43,47.41Z"/><path class="cls-7" d="M44,49a.5.5,0,0,0,.29.09A1.66,1.66,0,0,0,42.73,49a1,1,0,0,1,.8,0Z"/><path class="cls-7" d="M29.76,44.64c.68-.57,1.51,0,2.11.46a.26.26,0,0,0,.21.1.22.22,0,0,1-.17-.07,1.71,1.71,0,0,0-1.9-.6Z"/><path class="cls-7" d="M30.88,47.23a.41.41,0,0,0,.19-.31,1.8,1.8,0,0,1-1.7.87,2.09,2.09,0,0,0,1.34-.41Z"/><path class="cls-7" d="M26.86,43.49h.94l-.12,0Z"/><path class="cls-7" d="M24.29,47.23l.38.05.36,0s0,0,0,0Z"/></g><polygon class="cls-4" points="49.65 33.55 23.34 37.25 23.3 32.13 49.74 24.81 49.65 33.55"/><path class="cls-9" d="M49.66,33.27,23.39,37.08l0-4.79L49.74,25.1v-.57L23.3,32l-.06,0v5.6l26.41-3.75Z"/><g class="cls-6"><path class="cls-7" d="M27.88,32.63l.37-.15s.07,0,.08,0c-.07.22.21.16.21.28a3.16,3.16,0,0,1,2.68-1.25l.21-.06A25,25,0,0,1,33.92,31l1.32-.33,1.4-.35-2.31.55c-.36.08-.72.17-1.15.23a11.45,11.45,0,0,0-1.67.31l-.23.06c-1.08-.35-2,1.15-2.94.94l-.14,0-.42.13a4.61,4.61,0,0,1-1.4.25,6.62,6.62,0,0,0-.78.15L24,33.36,25.54,33a4.87,4.87,0,0,1,.78-.13c.24,0,.48,0,.74-.07A7.7,7.7,0,0,0,27.88,32.63Z"/><path class="cls-7" d="M46.3,32.6l-.77.1-.71.11c-1.33-.32-2.83.59-4.1.8,1.26,0,2.59-.76,4-.77Z"/><path class="cls-7" d="M48.07,29.32c.54-.12,1.08-.27,1.63-.41v0C49.17,29.07,48.63,29.2,48.07,29.32Z"/><path class="cls-7" d="M28.32,33.78a1.73,1.73,0,0,0,.32,0,3.26,3.26,0,0,1,.76-1.56,2,2,0,0,1,2.11-.43.39.39,0,0,0,.14,0A17.58,17.58,0,0,1,34,31.42c.51-.08.95-.18,1.36-.27l3.86-.89a1.47,1.47,0,0,1,.45,0,2.3,2.3,0,0,0-.55.06l-4.47,1a9.06,9.06,0,0,1-1.23.19,12.58,12.58,0,0,0-1.61.27l-.21,0c-1.16-.6-2.54.51-3,2,0-.24.37-.32.28-.68-.1.27-.1.65-.38.71A.21.21,0,0,1,28.32,33.78Z"/><path class="cls-7" d="M49.72,26.23v0l-1.87.47C48.46,26.55,49.09,26.39,49.72,26.23Z"/><path class="cls-7" d="M27.24,33.61l.43-.1c.07,0,.14,0,.19,0,.13.6.88,1.33,1.07.67.18-1.05.47-2.25,1.37-2.34-1,.24-1.09,1.53-1.47,2.36-.28.55-.75-.35-1-.77l-.21.06a4.88,4.88,0,0,1-1.94.18l-.84.19a5.77,5.77,0,0,1,1-.16l.85,0C26.9,33.66,27.11,33.63,27.24,33.61Z"/><path class="cls-7" d="M29.51,35a1.24,1.24,0,0,1-1.73-.68l-.19,0-.19,0c-.61.09-1.2.12-1.77.15l-.73.14-.35.09.79-.15a5.43,5.43,0,0,1,.87-.11,6.71,6.71,0,0,0,1.41-.13.21.21,0,0,1,.21,0,1.29,1.29,0,0,0,2.31-.16Z"/><path class="cls-7" d="M36.05,34.54l2.37-.41L35,34.66l-2.2.37Z"/><path class="cls-7" d="M23.59,33.55l1.84-.41L26,33a3.82,3.82,0,0,0,1-.1,2.56,2.56,0,0,1-.89.06c-.17,0-.38.07-.62.12Z"/><path class="cls-7" d="M28.1,35a1.61,1.61,0,0,0,1.81.13c.71-.51.6-1.53.7-2.07.21-.83,1.17-.11,1.34.69,0,.18.11.19.18.19l.24,0,.48,0h-.48l-.24,0a.23.23,0,0,1-.11,0,1.24,1.24,0,0,0-.89-1.17c-.21-.09-.62.13-.52.37a2.38,2.38,0,0,1-.5,1.91,1.59,1.59,0,0,1-1.9.11Z"/><path class="cls-7" d="M38.81,32.3c.85.38,2.07-.16,3-.66a4.5,4.5,0,0,1-3.14.6,1.63,1.63,0,0,0-.49,0l-1.43.3,1.49-.28A1.27,1.27,0,0,1,38.81,32.3Z"/><path class="cls-7" d="M38.69,33.92l-2.08.33-1.37.25Z"/><path class="cls-7" d="M37.78,31l-3.18.69a3.58,3.58,0,0,1-.49.08l-.52,0a7.19,7.19,0,0,0,1.06-.1l1.1-.22Z"/><path class="cls-7" d="M36,29.58l1.65-.45-1.16.29-1.7.45Z"/><path class="cls-7" d="M31.4,34.72a.55.55,0,0,0,0,.22c0,.07.1.09.15.14a1,1,0,0,0,.27,0l.22,0s0,0,0,0l-.34.06-.27,0s-.05-.05,0-.12A1.1,1.1,0,0,0,31.4,34.72Z"/><path class="cls-7" d="M44.05,33.17c.12,0,.12,0,.3,0a1.72,1.72,0,0,0-1.54.24,1.13,1.13,0,0,1,.81-.23Z"/><path class="cls-7" d="M29.72,32.33a1.56,1.56,0,0,1,2.12-.07.21.21,0,0,0,.21.05.19.19,0,0,1-.17,0A1.53,1.53,0,0,0,30,32.16Z"/><path class="cls-7" d="M30.84,34.68a.56.56,0,0,0,.19-.36,2.5,2.5,0,0,1-1.71,1.32,2.81,2.81,0,0,0,1.35-.76C30.73,34.81,30.79,34.75,30.84,34.68Z"/><path class="cls-7" d="M26.8,31.9l.55-.12.39-.11h-.12Z"/><path class="cls-7" d="M24.21,36.37l.38,0a3.29,3.29,0,0,0,.36-.06s0,0,0,0Z"/></g><polygon class="cls-4" points="49.25 75.53 23.54 63.28 23.5 58.34 49.33 67.27 49.25 75.53"/><path class="cls-8" d="M49.25,75.25,23.59,63.14l0-4.62,25.77,9V67L23.5,58.18l-.05,0-.16,5.12,26,12.51Z"/><g class="cls-6"><path class="cls-7" d="M28,61.6l.37.08a.09.09,0,0,1,.07.06c-.07.17.21.28.21.4a2.52,2.52,0,0,1,2.63.41l.2.08c.78.29,1.59.63,2.45,1l1.29.48,1.36.51-2.25-.87c-.36-.14-.71-.27-1.12-.47a12.82,12.82,0,0,0-1.65-.71l-.22-.08c-1.06-1-1.94-.1-2.88-.88l-.14,0-.42-.13a6,6,0,0,1-1.38-.61,6.14,6.14,0,0,0-.77-.33L24.21,60l1.51.59a6,6,0,0,1,.77.34c.23.13.47.26.72.38S27.73,61.49,28,61.6Z"/><path class="cls-7" d="M46,72.62l-.74-.36-.69-.32c-1.3-1.1-2.75-1.13-4-1.69,1.24.72,2.53.83,3.93,1.69Z"/><path class="cls-7" d="M47.72,70.56l1.57.58v0C48.78,71,48.26,70.78,47.72,70.56Z"/><path class="cls-7" d="M28.46,63a1.47,1.47,0,0,0,.31.16c.18-.52.37-.93.75-1a2.35,2.35,0,0,1,2.06.87c.06.05.11.07.15.1a22.81,22.81,0,0,1,2.26,1c.5.24.93.41,1.33.57l3.76,1.47a2,2,0,0,1,.44.22A3,3,0,0,0,39,66.1l-4.36-1.74a10.39,10.39,0,0,1-1.2-.56,14.53,14.53,0,0,0-1.58-.71L31.63,63c-1.13-1.27-2.49-1-3,.09,0-.23.38-.08.28-.48-.09.2-.09.56-.37.45A.31.31,0,0,1,28.46,63Z"/><path class="cls-7" d="M49.32,68.6v0L47.5,68Z"/><path class="cls-7" d="M27.39,62.15l.42.16a.32.32,0,0,1,.19.14c.13.65.87,1.8,1.05,1.28.18-.89.47-1.87,1.35-1.41-1-.37-1.07.8-1.44,1.37-.28.36-.74-.79-1-1.35l-.2-.07a6.94,6.94,0,0,1-1.92-1L25,60.94a6.43,6.43,0,0,1,1,.44l.84.48Z"/><path class="cls-7" d="M29.62,64.83a2.52,2.52,0,0,1-1.7-1.7L27.73,63,27.55,63c-.6-.29-1.19-.61-1.75-.93l-.72-.31-.34-.12.78.32c.26.12.53.24.86.43a9,9,0,0,0,1.39.73.49.49,0,0,1,.2.17c.53,1,1.66,2.07,2.27,1.25Z"/><path class="cls-7" d="M36,68.35l2.32,1-3.3-1.53-2.16-1Z"/><path class="cls-7" d="M23.79,59.88l1.81.72.57.22a5.22,5.22,0,0,0,1,.52,3.44,3.44,0,0,1-.87-.48l-.62-.26Z"/><path class="cls-7" d="M28.23,64A2.79,2.79,0,0,0,30,65.25c.7-.06.6-1.1.7-1.56.2-.67,1.14.59,1.31,1.47,0,.19.1.24.18.28a1.67,1.67,0,0,0,.23.12l.47.24-.47-.28-.23-.12a.52.52,0,0,1-.11-.1,2.65,2.65,0,0,0-.87-1.66c-.21-.21-.62-.24-.51,0,.1.79-.1,1.33-.5,1.52a2.23,2.23,0,0,1-1.86-1Z"/><path class="cls-7" d="M38.72,67.86a4.5,4.5,0,0,0,3,1.18,5.4,5.4,0,0,1-3.06-1.3,2.27,2.27,0,0,0-.48-.26l-1.4-.57,1.46.63A2,2,0,0,1,38.72,67.86Z"/><path class="cls-7" d="M38.61,69.34l-2-.93c-.47-.22-.9-.4-1.34-.59Z"/><path class="cls-7" d="M37.72,66l-3.11-1.26a3.31,3.31,0,0,1-.48-.22l-.51-.28a9.64,9.64,0,0,0,1,.55l1.08.45Z"/><path class="cls-7" d="M36,63.59l1.61.56-1.13-.42-1.66-.59Z"/><path class="cls-7" d="M31.47,65.72a.9.9,0,0,0,0,.22c0,.08.09.14.15.22a1.12,1.12,0,0,0,.26.15l.21.09s0,0,0,0l-.33-.15a2.69,2.69,0,0,1-.27-.2.12.12,0,0,1,0-.13A1,1,0,0,0,31.47,65.72Z"/><path class="cls-7" d="M43.82,71.83a.77.77,0,0,0,.29.19,2.19,2.19,0,0,0-1.5-.69,1.19,1.19,0,0,1,.8.27Z"/><path class="cls-7" d="M29.83,62.42c.67-.31,1.49.5,2.08,1.21.1.14.15.16.21.18a.46.46,0,0,1-.17-.13c-.53-.72-1.25-1.37-1.88-1.27A.92.92,0,0,0,29.83,62.42Z"/><path class="cls-7" d="M30.93,65.35a.26.26,0,0,0,.19-.23,1.38,1.38,0,0,1-1.69.23,1.9,1.9,0,0,0,1.33.09Z"/><path class="cls-7" d="M27,60.24l.54.22.39.13-.13-.06Z"/><path class="cls-7" d="M24.4,63l.38.19.36.16s0,0,0,0Z"/></g><polygon class="cls-4" points="23.38 42.82 23.34 37.74 49.65 33.59 49.57 42.23 23.38 42.82"/><path class="cls-8" d="M49.57,41.94l-26.14.71,0-4.76,26.25-4V33.3L23.29,37.58l0,5.4h.05l26.19-.47Z"/><g class="cls-6"><path class="cls-7" d="M27,40.19a13,13,0,0,1,2-.5c-.8.1-1.54.36-2.25.5l-.14,0c-.1-.23-.23-.22-.35-.34-.67.06-1.26,1-1.91.37h-.11l-.92.07.94-.06.12,0c.62.58,1.21-.36,1.88-.29a.27.27,0,0,1,.32.23h.13l.27-.05Z"/><path class="cls-7" d="M26.37,41.88l2.77-.16-2,.07L23.87,42Z"/><path class="cls-7" d="M35.08,36.22l-1.56.27,2.31-.33,1.82-.3Z"/><path class="cls-7" d="M46.78,39.76a7.93,7.93,0,0,1-1.05,0,3.56,3.56,0,0,0-1.38-.14,5.1,5.1,0,0,1,1.59.12l1-.06,2.68-.14h0Z"/><path class="cls-7" d="M33.29,38.29c-.49-.48-1.15-.1-1.63.26a1.45,1.45,0,0,1,1.7-.19.61.61,0,0,0,.3,0l.93-.12-1,.09A.51.51,0,0,1,33.29,38.29Z"/><path class="cls-7" d="M33.36,36.68l1.33-.18,1-.17Z"/><path class="cls-7" d="M33.92,39.74l2.25-.17a2.54,2.54,0,0,1,.39,0l.43.06a3.76,3.76,0,0,0-.86-.09l-.83.05Z"/><path class="cls-7" d="M24.56,41.81l-.87.06h.58l.87,0Z"/><path class="cls-7" d="M24.05,40.93h.64c.29,0,.53.33.82-.07-.24.27-.53.16-.75.07a.32.32,0,0,0-.13,0Z"/><path class="cls-7" d="M35.11,41.61,34,41.68l.77,0L36,41.59Z"/><path class="cls-7" d="M27.45,41.91h-.4l-.29,0,.09,0Z"/><path class="cls-7" d="M27.17,40.73a4.07,4.07,0,0,0-.42.07,5,5,0,0,0,.93-.12l-.22,0Z"/><path class="cls-7" d="M39,36.35a.89.89,0,0,0,0-.28c0-.1-.09-.12-.15-.19a.63.63,0,0,0-.27,0l-.2,0s0,0,0,0l.33-.05A2.14,2.14,0,0,1,39,36s0,.08,0,.16S39,36.28,39,36.35Z"/><path class="cls-7" d="M30.61,37c-.05,0-.05,0-.13,0,.23.25.46.08.7-.11-.16.17-.24.19-.38.15A.61.61,0,0,1,30.61,37Z"/><path class="cls-7" d="M40.82,39.82c-.78.85-1.65.21-2.24-.38-.1-.11-.16-.11-.21-.11a.21.21,0,0,1,.17.08c.52.63,1.28,1.1,2,.58Z"/><path class="cls-7" d="M24.89,42l-.13,0H25l.42,0Z"/><path class="cls-7" d="M39.6,36.45a.73.73,0,0,0-.21.47,2.72,2.72,0,0,1,1.93-1.68,2.84,2.84,0,0,0-1.54,1A3,3,0,0,0,39.6,36.45Z"/><path class="cls-7" d="M44.66,41.29h-.81l-.55,0,.17,0Z"/><path class="cls-7" d="M49.29,34.18l-.75.08-.69.11c-.06,0,0,0,0,0Z"/><path class="cls-7" d="M23.7,41.05l-.21,0,.51,0,.2,0Z"/><path class="cls-7" d="M24.74,40.86l-.14,0-.94.06v0l.95-.08.13,0Z"/><path class="cls-7" d="M23.65,40.47l-.12,0,.24,0,.39,0Z"/></g><polygon class="cls-4" points="49.37 67.18 75.91 57.41 75.96 52.36 49.48 58.64 49.37 67.18"/><path class="cls-10" d="M49.37,67.46,76,57.55,76,52.18l-.05,0L49.49,58.36v.56L75.9,52.54l0,4.72L49.38,66.9Z"/><g class="cls-6"><path class="cls-7" d="M52.77,64.53l.78-.29.71-.25c1.35-1,2.84-.86,4.12-1.3-1.28.6-2.6.57-4.07,1.3Z"/><path class="cls-7" d="M51.06,62.21c-.54.15-1.08.28-1.63.42h0C50,62.52,50.5,62.37,51.06,62.21Z"/><path class="cls-7" d="M49.47,60v0l1.86-.5Z"/><path class="cls-7" d="M63.08,61.23l-2.4.81,3.41-1.21,2.22-.76Z"/><path class="cls-7" d="M75.66,53.9l-1.85.54-.58.15a4.83,4.83,0,0,1-1,.43,3.54,3.54,0,0,0,.9-.39,6,6,0,0,1,.63-.2Z"/><path class="cls-7" d="M60.32,60.43a4.23,4.23,0,0,1-3,.88,5,5,0,0,0,3.15-1,2.66,2.66,0,0,1,.5-.21l1.44-.43-1.51.49A1.48,1.48,0,0,0,60.32,60.43Z"/><path class="cls-7" d="M60.42,62l2.09-.74,1.38-.46Z"/><path class="cls-7" d="M61.37,58.64l3.2-1a4.6,4.6,0,0,0,.49-.16l.52-.24a6.72,6.72,0,0,1-1.06.45l-1.11.34Z"/><path class="cls-7" d="M63.16,56.34l-1.65.4,1.16-.31,1.7-.42Z"/><path class="cls-7" d="M67.77,59a.56.56,0,0,1,0,.22c0,.08-.1.14-.16.21a1,1,0,0,1-.27.13l-.22.07s0,0,0,0l.34-.12a2.46,2.46,0,0,0,.27-.17.12.12,0,0,0,.05-.14A1,1,0,0,1,67.77,59Z"/><path class="cls-7" d="M55,64a.72.72,0,0,1-.3.16,2,2,0,0,1,1.55-.54,1.1,1.1,0,0,0-.82.18A3.36,3.36,0,0,0,55,64Z"/><path class="cls-7" d="M69.48,55.83c-.68-.39-1.53.35-2.13,1a.43.43,0,0,1-.22.16.32.32,0,0,0,.17-.12c.54-.67,1.29-1.26,1.93-1.09A1,1,0,0,1,69.48,55.83Z"/><path class="cls-7" d="M68.34,58.71a.29.29,0,0,1-.2-.26,1.49,1.49,0,0,0,1.73.43,2,2,0,0,1-1.37-.06A.91.91,0,0,1,68.34,58.71Z"/><path class="cls-7" d="M72.43,53.92l-.56.16-.39.1.12-.06Z"/><path class="cls-7" d="M75,57l-.38.15-.37.13s0,0,0,0Z"/></g><polygon class="cls-4" points="75.96 52.34 76 47.3 49.59 50.07 49.48 58.6 75.96 52.34"/><path class="cls-8" d="M49.48,58.88,76,52.51l.05,0,0-5.36L49.6,49.8v.56L76,47.48l0,4.71L49.49,58.31Z"/><g class="cls-6"><path class="cls-7" d="M72.28,50.69a14.15,14.15,0,0,0-2,0c.81-.1,1.55,0,2.27-.09h.14c.11-.26.23-.29.36-.44.68-.11,1.27.67,1.93-.13l.11,0,.93-.17-1,.19-.12.06c-.63.74-1.22,0-1.9.2a.39.39,0,0,0-.32.32l-.13,0-.28,0Z"/><path class="cls-7" d="M72.93,52.19l-2.8.57c.71-.16,1.41-.33,2.06-.46l3.28-.68Z"/><path class="cls-7" d="M64.18,48.88l1.57-.15L63.43,49c-.59.07-1.21.12-1.83.18Z"/><path class="cls-7" d="M52.35,55.42a7.61,7.61,0,0,0,1.06-.25,4.39,4.39,0,0,1,1.39-.49,6.21,6.21,0,0,0-1.61.53l-1,.19L49.52,56h0Z"/><path class="cls-7" d="M66,50.45a1.27,1.27,0,0,1,1.65-.17,1.51,1.51,0,0,0-1.72.25.6.6,0,0,1-.3.1l-.93.12,1-.16A.59.59,0,0,0,66,50.45Z"/><path class="cls-7" d="M65.91,48.88l-1.34.17-1,.09Z"/><path class="cls-7" d="M65.31,52l-2.26.43a1.79,1.79,0,0,0-.4.1l-.43.17a5.52,5.52,0,0,1,.87-.32l.83-.17Z"/><path class="cls-7" d="M74.77,51.66l.88-.18-.59.15-.88.17Z"/><path class="cls-7" d="M75.28,50.65l-.44.1-.1,0-.1,0c-.3,0-.54.47-.84.15.24.2.54,0,.76-.13l.13-.06Z"/><path class="cls-7" d="M64.1,54.21,65.22,54l-.78.18-1.24.26Z"/><path class="cls-7" d="M71.83,52.51l.42-.1.28-.06-.09,0Z"/><path class="cls-7" d="M72.13,51.26c.14,0,.24,0,.42,0a4.94,4.94,0,0,1-.94.12l.22,0Z"/><path class="cls-7" d="M60.21,50a1.42,1.42,0,0,1,0-.28c0-.1.1-.14.15-.22a.93.93,0,0,1,.27-.07l.21,0s0,0,0,0l-.33,0-.27.13s-.05.09,0,.17A1.7,1.7,0,0,1,60.21,50Z"/><path class="cls-7" d="M68.67,48.46c.06-.06.06-.06.13-.07-.23.32-.46.2-.7.08a.29.29,0,0,0,.38.05A.6.6,0,0,0,68.67,48.46Z"/><path class="cls-7" d="M74.43,51.93h.13l-.25,0-.43.08Z"/><path class="cls-7" d="M59.63,50.28a.54.54,0,0,1,.2.4,1.91,1.91,0,0,0-1.91-1.15,2.15,2.15,0,0,1,1.54.55C59.52,50.15,59.58,50.21,59.63,50.28Z"/><path class="cls-7" d="M54.45,56.39l.82-.2.56-.12-.17.07Z"/><path class="cls-7" d="M50,50.56l.74-.11.7-.08s0,0,0,0Z"/><path class="cls-7" d="M75.64,50.67l.21,0-.52.1-.2,0Z"/><path class="cls-7" d="M74.59,50.76a.56.56,0,0,1,.13-.07l1-.18v0l-1,.17-.14.06Z"/><path class="cls-7" d="M75.69,50.08h.12l-.24.05-.4.06Z"/></g><polygon class="cls-4" points="49.59 50.26 76 46.96 76.05 41.93 49.7 41.76 49.59 50.26"/><path class="cls-11" d="M49.59,50.54l26.47-3.42,0-5.35h0L49.7,41.49V42L76,42.1l0,4.7L49.59,50Z"/><g class="cls-6"><path class="cls-7" d="M51.27,45.71c-.54,0-1.08,0-1.62,0v0C50.17,45.75,50.71,45.74,51.27,45.71Z"/><path class="cls-7" d="M49.68,43.13v0l1.86,0Z"/><path class="cls-7" d="M63.22,47.65l-2.38.23,3.39-.38,2.21-.22Z"/><path class="cls-7" d="M75.76,43.4l-1.85.08-.58,0a3.51,3.51,0,0,1-1,.17,2.61,2.61,0,0,0,.89-.17,3.77,3.77,0,0,1,.63,0Z"/><path class="cls-7" d="M60.48,46.18a3.77,3.77,0,0,1-3,.15,4.45,4.45,0,0,0,3.14-.23,1.46,1.46,0,0,1,.49-.09l1.44-.09-1.5.13A1.42,1.42,0,0,0,60.48,46.18Z"/><path class="cls-7" d="M60.58,47.74l2.08-.22L64,47.4Z"/><path class="cls-7" d="M61.52,44.65l3.19-.16a4.79,4.79,0,0,0,.49-.05l.52-.1a7.12,7.12,0,0,1-1.06.18l-1.1.07C63.32,44.61,62.79,44.62,61.52,44.65Z"/><path class="cls-7" d="M63.31,42.8H61.66l1.16,0h1.69Z"/><path class="cls-7" d="M67.9,46.6a.86.86,0,0,1,0,.22c0,.08-.1.11-.15.17a.72.72,0,0,1-.27.06l-.22,0s0,0,0,0l.34,0,.27-.11s0-.06,0-.12A1.15,1.15,0,0,1,67.9,46.6Z"/><path class="cls-7" d="M55.21,48.42a.5.5,0,0,1-.29.09,1.71,1.71,0,0,1,1.54-.17,1.06,1.06,0,0,0-.82,0Z"/><path class="cls-7" d="M69.6,43.82c-.68-.56-1.52,0-2.13.49a.26.26,0,0,1-.21.1.22.22,0,0,0,.17-.07,1.74,1.74,0,0,1,1.92-.62Z"/><path class="cls-7" d="M68.46,46.42a.42.42,0,0,1-.2-.31A1.84,1.84,0,0,0,70,47a2.18,2.18,0,0,1-1.36-.39Z"/><path class="cls-7" d="M72.53,42.63l-.55,0h-.4l.13,0Z"/><path class="cls-7" d="M75.13,46.32l-.39.06-.36,0s0,0,0,0Z"/></g><polygon class="cls-4" points="49.81 33.21 76.1 36.41 76.14 31.4 49.92 24.75 49.81 33.21"/><path class="cls-12" d="M49.81,33.48l26.28,3.41.11-5.64h-.06l-26.4-6.71V25l26.35,6.57,0,4.68L49.81,32.93Z"/><g class="cls-6"><path class="cls-7" d="M71.56,32l-.38-.14s-.07,0-.07,0c.06.21-.22.16-.22.28a3.13,3.13,0,0,0-2.66-1.18L68,30.89c-.79-.17-1.62-.32-2.49-.43l-1.31-.3-1.39-.31,2.29.49c.37.08.72.15,1.15.21a11.63,11.63,0,0,1,1.67.27l.23.06c1.08-.37,2,1.08,2.92.86l.14,0c.14,0,.28.09.42.12a4.81,4.81,0,0,0,1.41.22,7.25,7.25,0,0,1,.78.14l1.59.36-1.54-.32a3.9,3.9,0,0,0-.78-.12l-.73-.06A6.94,6.94,0,0,1,71.56,32Z"/><path class="cls-7" d="M53.17,32.23l.77.08.7.1c1.34-.34,2.82.53,4.08.71-1.27,0-2.58-.7-4-.68Z"/><path class="cls-7" d="M51.48,29.08l-1.61-.38v0C50.39,28.85,50.92,29,51.48,29.08Z"/><path class="cls-7" d="M71.11,33.09a1.12,1.12,0,0,1-.32,0,2.92,2.92,0,0,0-.76-1.5,2,2,0,0,0-2.09-.38h-.15a17.16,17.16,0,0,0-2.3-.32c-.51-.06-.95-.16-1.36-.24l-3.83-.8a1.87,1.87,0,0,0-.45,0,2.25,2.25,0,0,1,.55.06l4.44.9c.39.07.79.12,1.23.16a11.18,11.18,0,0,1,1.61.24.66.66,0,0,0,.21,0c1.15-.6,2.53.46,3,1.9,0-.24-.37-.32-.27-.66.09.26.08.62.37.69Z"/><path class="cls-7" d="M49.9,26.11v0l1.85.41Z"/><path class="cls-7" d="M72.19,32.91l-.42-.09c-.08,0-.14,0-.2,0-.13.59-.89,1.31-1.07.67-.18-1-.46-2.19-1.36-2.26,1,.22,1.08,1.47,1.45,2.28.28.53.76-.36,1-.77l.21.05a4.88,4.88,0,0,0,2,.15l.84.17a7.09,7.09,0,0,0-1-.14l-.86,0Z"/><path class="cls-7" d="M69.91,34.28a1.28,1.28,0,0,0,1.74-.7l.19,0,.19,0a15.63,15.63,0,0,0,1.77.12l.74.13.34.08-.78-.14a5.68,5.68,0,0,0-.88-.09,6.72,6.72,0,0,1-1.42-.11.26.26,0,0,0-.21.06c-.53.65-1.69,1.1-2.31-.12Z"/><path class="cls-7" d="M63.37,34,61,33.6c1.18.16,2.3.3,3.37.46.76.1,1.49.22,2.2.32Z"/><path class="cls-7" d="M75.85,32.79,74,32.42l-.57-.12a3.81,3.81,0,0,1-1-.08,2.59,2.59,0,0,0,.9.05,3.71,3.71,0,0,1,.62.11Z"/><path class="cls-7" d="M71.33,34.31a1.66,1.66,0,0,1-1.82.16c-.71-.49-.59-1.49-.69-2-.2-.8-1.17-.09-1.34.7,0,.18-.11.18-.19.18l-.23,0-.48,0h.71a.15.15,0,0,0,.11,0,1.26,1.26,0,0,1,.9-1.15c.21-.09.62.12.52.35a2.25,2.25,0,0,0,.49,1.86,1.6,1.6,0,0,0,1.9.08Z"/><path class="cls-7" d="M60.64,31.81c-.85.39-2.06-.12-3-.59a4.48,4.48,0,0,0,3.12.54,1.63,1.63,0,0,1,.49,0l1.43.26-1.49-.24A1.45,1.45,0,0,0,60.64,31.81Z"/><path class="cls-7" d="M60.74,33.4l2.07.28,1.37.22Z"/><path class="cls-7" d="M61.68,30.55l3.17.61a2.41,2.41,0,0,0,.48.07l.53,0a7.26,7.26,0,0,1-1.06-.07L63.7,31C63.46,30.94,62.94,30.82,61.68,30.55Z"/><path class="cls-7" d="M63.45,29.13l-1.64-.41c.4.09.81.17,1.16.26l1.68.41Z"/><path class="cls-7" d="M68,34.06a.5.5,0,0,1,0,.21c0,.07-.1.09-.15.14a1.43,1.43,0,0,1-.28,0l-.21,0s0,0,0,0l.33,0a1.26,1.26,0,0,0,.28,0s0-.05,0-.11A1.41,1.41,0,0,1,68,34.06Z"/><path class="cls-7" d="M55.4,32.75a.45.45,0,0,1-.29,0,1.72,1.72,0,0,1,1.53.21,1.11,1.11,0,0,0-.81-.21A3.17,3.17,0,0,0,55.4,32.75Z"/><path class="cls-7" d="M69.72,31.7a1.57,1.57,0,0,0-2.12,0,.24.24,0,0,1-.21,0,.19.19,0,0,0,.17,0,1.52,1.52,0,0,1,1.91-.15Z"/><path class="cls-7" d="M68.58,34a.58.58,0,0,1-.19-.36,2.45,2.45,0,0,0,1.71,1.27,2.68,2.68,0,0,1-1.35-.73Z"/><path class="cls-7" d="M72.64,31.24l-.55-.12a2.94,2.94,0,0,1-.39-.1h.12Z"/><path class="cls-7" d="M75.22,35.56l-.38,0-.36-.05s0,0,0,0Z"/></g><polygon class="cls-4" points="49.27 75.56 75.87 62.57 75.91 57.52 49.38 66.99 49.27 75.56"/><path class="cls-8" d="M49.25,75.79,75.92,62.71l0-5.38-.06,0L49.38,66.72v.56l26.49-9.57,0,4.72L49.27,75.28Z"/><g class="cls-6"><path class="cls-7" d="M71.28,60.9,70.9,61s-.07,0-.07.07-.22.28-.22.4a2.63,2.63,0,0,0-2.7.46L67.7,62c-.79.31-1.63.67-2.51,1.1l-1.33.51-1.4.54,2.32-.92c.37-.14.73-.29,1.15-.49A14.51,14.51,0,0,1,67.62,62l.24-.08c1.09-1,2-.12,3-.94l.15,0,.42-.14a5.91,5.91,0,0,0,1.41-.64,5.34,5.34,0,0,1,.8-.34c.54-.22,1.08-.42,1.6-.62l-1.55.62a6.33,6.33,0,0,0-.79.36c-.24.14-.48.27-.74.39A9,9,0,0,1,71.28,60.9Z"/><path class="cls-7" d="M52.67,72.5l.78-.39.72-.34c1.35-1.16,2.85-1.2,4.12-1.8-1.27.76-2.6.89-4.07,1.8Z"/><path class="cls-7" d="M51,70.38,49.33,71v0C49.85,70.82,50.39,70.61,51,70.38Z"/><path class="cls-7" d="M70.82,62.31a2.2,2.2,0,0,1-.31.18c-.19-.54-.38-1-.77-1.05a2.44,2.44,0,0,0-2.12.91.92.92,0,0,1-.15.11,21.23,21.23,0,0,0-2.32,1.09c-.52.25-1,.43-1.38.59L59.9,65.7a2.2,2.2,0,0,0-.46.24,2.66,2.66,0,0,1,.56-.28l4.5-1.84a11.22,11.22,0,0,0,1.23-.59,15.68,15.68,0,0,1,1.63-.75,1,1,0,0,0,.21-.09c1.17-1.32,2.56-1.1,3,0,0-.24-.38-.08-.28-.49.09.21.09.58.38.46A.35.35,0,0,0,70.82,62.31Z"/><path class="cls-7" d="M49.36,68.37v0l1.87-.73Z"/><path class="cls-7" d="M71.92,61.46l-.43.17a.32.32,0,0,0-.19.14c-.14.68-.9,1.86-1.09,1.33-.18-.91-.46-1.91-1.37-1.43,1-.39,1.09.81,1.47,1.39.28.37.76-.82,1-1.4l.21-.08a7,7,0,0,0,2-1l.85-.34a8.75,8.75,0,0,0-1,.46l-.86.5C72.27,61.29,72.06,61.4,71.92,61.46Z"/><path class="cls-7" d="M69.62,64.24a2.67,2.67,0,0,0,1.76-1.77l.19-.09.18-.09c.62-.3,1.22-.64,1.8-1l.74-.33.35-.13-.79.35a5.6,5.6,0,0,0-.89.44,10.55,10.55,0,0,1-1.43.77.47.47,0,0,0-.21.18c-.54,1-1.71,2.14-2.34,1.3Z"/><path class="cls-7" d="M63,67.94,60.61,69,64,67.42c.76-.36,1.51-.69,2.23-1Z"/><path class="cls-7" d="M75.62,59.09l-1.86.76-.58.23a5.57,5.57,0,0,1-1,.55,4.05,4.05,0,0,0,.9-.5,4.94,4.94,0,0,1,.63-.27Z"/><path class="cls-7" d="M71.05,63.4a2.86,2.86,0,0,1-1.84,1.27c-.71,0-.6-1.12-.7-1.59-.2-.69-1.17.63-1.35,1.53a.35.35,0,0,1-.19.29l-.24.13-.48.25.48-.29.24-.14a.26.26,0,0,0,.11-.1A2.75,2.75,0,0,1,68,63c.21-.22.63-.26.52,0-.11.82.09,1.37.5,1.56a2.35,2.35,0,0,0,1.92-1.09Z"/><path class="cls-7" d="M60.24,67.47a4.75,4.75,0,0,1-3,1.26,5.77,5.77,0,0,0,3.16-1.38,2.24,2.24,0,0,1,.5-.27l1.44-.61-1.51.67A2.35,2.35,0,0,0,60.24,67.47Z"/><path class="cls-7" d="M60.34,69l2.1-1,1.38-.62Z"/><path class="cls-7" d="M61.29,65.56l3.21-1.33A5.23,5.23,0,0,0,65,64l.53-.3a10.45,10.45,0,0,1-1.07.58l-1.11.48Z"/><path class="cls-7" d="M63.09,63l-1.66.61c.4-.16.81-.33,1.17-.46l1.7-.62Z"/><path class="cls-7" d="M67.71,65.18a.56.56,0,0,1,0,.22.8.8,0,0,1-.16.23,1.19,1.19,0,0,1-.27.16l-.22.1s0,0,0,0l.34-.16.27-.21s0-.08,0-.14A1,1,0,0,1,67.71,65.18Z"/><path class="cls-7" d="M54.93,71.65a.93.93,0,0,1-.29.2,2.22,2.22,0,0,1,1.55-.73,1.19,1.19,0,0,0-.82.28A4.91,4.91,0,0,0,54.93,71.65Z"/><path class="cls-7" d="M69.42,61.77c-.68-.31-1.53.53-2.14,1.27a.41.41,0,0,1-.21.18.42.42,0,0,0,.17-.14c.54-.73,1.29-1.41,1.94-1.32A1,1,0,0,1,69.42,61.77Z"/><path class="cls-7" d="M68.27,64.79a.26.26,0,0,1-.19-.24,1.39,1.39,0,0,0,1.73.22,1.91,1.91,0,0,1-1.37.11Z"/><path class="cls-7" d="M72.37,59.51l-.55.22-.4.15a.37.37,0,0,1,.13-.07Z"/><path class="cls-7" d="M75,62.25l-.38.2-.37.17s0,0,0,0Z"/></g><polygon class="cls-4" points="76.05 41.91 76.09 36.89 49.81 33.24 49.7 41.72 76.05 41.91"/><path class="cls-8" d="M49.7,42l26.35.08h0V36.73L49.81,33v.55L76,37.05l0,4.7-26.3-.31Z"/><g class="cls-6"><path class="cls-7" d="M72.38,39.37a12.94,12.94,0,0,0-2-.47c.81.1,1.55.34,2.27.46l.14,0c.1-.24.23-.23.35-.35.68.05,1.27,1,1.93.34h.1l.93.06-.94,0a.27.27,0,0,0-.12,0c-.63.58-1.22-.34-1.9-.26a.28.28,0,0,0-.32.24.56.56,0,0,1-.13,0l-.27,0Z"/><path class="cls-7" d="M73,41l-2.78-.12,2,0,3.26.13Z"/><path class="cls-7" d="M64.32,35.59l1.56.24-2.3-.29-1.83-.26Z"/><path class="cls-7" d="M52.55,39.25a9.42,9.42,0,0,0,1.05,0A3.8,3.8,0,0,1,55,39.1a5.43,5.43,0,0,0-1.6.14l-1,0c-.46,0-.92,0-2.68-.1h0Z"/><path class="cls-7" d="M66.09,37.59c.5-.47,1.16-.11,1.65.23A1.47,1.47,0,0,0,66,37.66a.61.61,0,0,1-.3,0l-.93-.1,1,.07A.49.49,0,0,0,66.09,37.59Z"/><path class="cls-7" d="M66,36l-1.33-.16c-.34,0-.65-.1-1-.15Z"/><path class="cls-7" d="M65.45,39l-2.26-.13a1.29,1.29,0,0,0-.39,0l-.43.06a3.91,3.91,0,0,1,.87-.11l.83,0Z"/><path class="cls-7" d="M74.86,40.94l.88,0c-.19,0-.38,0-.59,0l-.87,0Z"/><path class="cls-7" d="M75.37,40.06h-.64c-.29,0-.53.34-.83-.06a.6.6,0,0,0,.76.06l.13,0Z"/><path class="cls-7" d="M64.24,40.89l1.11,0c-.25,0-.53,0-.77,0l-1.24,0Z"/><path class="cls-7" d="M71.94,41.08h.41c.07,0,.29,0,.29,0l-.09,0Z"/><path class="cls-7" d="M72.23,39.9c.15,0,.24.06.42.07a5.12,5.12,0,0,1-.93-.11l.22,0Z"/><path class="cls-7" d="M60.37,35.78a1.37,1.37,0,0,1,0-.28c0-.09.1-.12.15-.18a.59.59,0,0,1,.27,0l.21,0s0,0,0,0l-.33,0a1.19,1.19,0,0,0-.27.07s0,.07,0,.15A1.85,1.85,0,0,1,60.37,35.78Z"/><path class="cls-7" d="M58.53,39.21c.76.83,1.65.19,2.25-.4.1-.12.15-.11.2-.11a.18.18,0,0,0-.16.07c-.53.64-1.31,1.11-2,.61A2.61,2.61,0,0,1,58.53,39.21Z"/><path class="cls-7" d="M74.53,41.13l.13,0h-.25l-.43,0Z"/><path class="cls-7" d="M59.8,35.88a.71.71,0,0,1,.19.46,2.58,2.58,0,0,0-1.9-1.62,2.8,2.8,0,0,1,1.53.92Z"/><path class="cls-7" d="M54.64,40.72h.82l.55,0-.17,0Z"/><path class="cls-7" d="M50.16,33.81l.74.07.69.1c.06,0,0,0,0,0Z"/><path class="cls-7" d="M75.73,40.17l.22,0-.52,0-.21,0Z"/><path class="cls-7" d="M74.69,40l.13,0,1,0v0l-1-.06-.14,0Z"/><path class="cls-7" d="M75.78,39.59l.12,0h-.24l-.39,0Z"/></g><polygon class="cls-13" points="55.41 26.39 55.23 72.65 49.47 75.5 49.74 24.99 55.41 26.39"/><path class="cls-8" d="M55.24,26.34l-.05,46.24-5.5,2.64L50,25,49.74,25v.12l-.18,0-.34,50.41,0,.23,6-3,.16-46.41Z"/><g class="cls-6"><path class="cls-7" d="M54.49,29.73c0,.31,0,.6,0,.88s0,.56,0,.84c-.38,1.57.08,3.57.08,5.28.11-1.7-.23-3.46-.07-5.21Z"/><path class="cls-7" d="M52.56,27.34c0-.59,0-1.17,0-1.75h0Q52.56,26.42,52.56,27.34Z"/><path class="cls-7" d="M50.74,25.1h0c0,.68,0,1.37,0,2.05C50.75,30.07,50.72,29.38,50.74,25.1Z"/><path class="cls-7" d="M54.67,43.85V40.07c0,1.82,0,3.66,0,5.5,0,1.34,0,2.69,0,4Z"/><path class="cls-7" d="M51.29,73.72c0-4,.05-4.83.06-5.71V66.35a23.09,23.09,0,0,0,.17-2.87,17,17,0,0,1-.17,2.5c0,.49,0,1.1,0,1.81C51.31,69.21,51.3,71.05,51.29,73.72Z"/><path class="cls-7" d="M53.32,39.41a10,10,0,0,0,0-4.34,11.64,11.64,0,0,1,0,4.52,3.89,3.89,0,0,0,0,.76c0,.77,0,1.54,0,2.31,0-.79,0-1.58,0-2.41A3.51,3.51,0,0,1,53.32,39.41Z"/><path class="cls-7" d="M54.53,39.65c0,1.09,0,2.2,0,3.27,0,.8,0,1.54,0,2.31Z"/><path class="cls-7" d="M52.12,41c0,2.86,0,4.17,0,5.51,0,.29,0,.59,0,.92s0,.67-.07,1c.06-.71.12-1.38.13-2s0-1.28,0-2C52.14,44,52.13,43.07,52.12,41Z"/><path class="cls-7" d="M50.52,44V41.11c0,.66,0,1.37,0,2,0,1,0,2,0,3.07Z"/><path class="cls-7" d="M54.17,52.56a.33.33,0,0,0,.2-.06c.06,0,.09-.21.14-.33s0-.33,0-.56v-.43c0-.09,0,0,0,0v.68c0,.2,0,.38-.07.56s0,.12-.11.11A.3.3,0,0,0,54.17,52.56Z"/><path class="cls-7" d="M54.63,32.4a.86.86,0,0,0,0-.35,3.54,3.54,0,0,0,0,1.91,2.21,2.21,0,0,1-.07-1A4.53,4.53,0,0,1,54.63,32.4Z"/><path class="cls-7" d="M51.6,56.7c-.58-1.47-.06-3.42.42-4.77a1,1,0,0,0,.09-.45.87.87,0,0,1-.07.36,7.49,7.49,0,0,0-.55,4.31C51.52,56.34,51.56,56.52,51.6,56.7Z"/><path class="cls-7" d="M54.05,53.75c-.06-.18-.18-.39-.3-.37a6.06,6.06,0,0,1,.93,3.6,9.43,9.43,0,0,0-.48-2.9Q54.13,53.9,54.05,53.75Z"/><path class="cls-7" d="M50.36,64.43c0-.48,0-.94,0-1.5v-1s0,.2,0,.33Z"/><path class="cls-7" d="M54.58,70.35c0-.35,0-.67,0-1.13V68.16c0-.08,0,0,0,0Z"/></g><polygon class="cls-14" points="26.57 35.42 27.08 35.63 27.23 62.42 25.96 61.38 26.57 35.42"/><polygon class="cls-13" points="76.2 31.25 75.87 62.57 72.02 64.18 72.19 30.24 76.2 31.25"/><path class="cls-15" d="M76,31.19l-.39,31.36L72.15,64l.19-33.74-.15,0v.09l-.13,0L71.87,64.2l0,.14,3.67-1.79L76,31.19Z"/><g class="cls-6"><path class="cls-7" d="M73.27,55.36c0-.19,0-.39,0-.6,0-.06,0-.11,0-.12s.13-.38.21-.39a8,8,0,0,1-.37-4c0-.1,0-.2,0-.3,0-1.11,0-2.26.09-3.43V43.12c0,1,0,1.91,0,2.86,0,.47,0,1,0,1.51-.05.79-.07,1.56-.08,2.34v.33c-.4,1.66.41,2.88.12,4.47v.22c0,.23,0,.46,0,.69A20.52,20.52,0,0,1,73.14,58c0,.4,0,.91,0,1.4,0,1,0,2,0,3l0-2.88c0-.49,0-1,0-1.41s.07-.85.08-1.29S73.27,55.85,73.27,55.36Z"/><path class="cls-7" d="M75.41,33.72c0,.23,0,.44,0,.65V35a18.87,18.87,0,0,0,0,3.83c.09-1.22-.13-2.5,0-3.78Z"/><path class="cls-7" d="M74.11,32c0-.43-.08-.73-.08-1.16l.06,0C74.1,31.26,74.11,31.51,74.11,32Z"/><path class="cls-7" d="M72.87,30.49v.17c0,.51,0,.68,0,1.19C72.87,34,72.85,33.67,72.87,30.49Z"/><path class="cls-7" d="M75,52.45a4.22,4.22,0,0,1-.64,2.82c0,.11,0,.21,0,.31s0,.21,0,.31c0,1-.09,2.06-.16,3.07,0,.44,0,.88,0,1.32,0,.1,0,.42,0,.64l0-1.44c0-.48,0-1,.06-1.56s.1-1.53.11-2.4a1.21,1.21,0,0,1,.07-.35c.48-1,.87-2.78.21-3.59Z"/><path class="cls-7" d="M75.43,43.82l0-2.64c0,1.28,0,2.55,0,3.83l0,2.75Z"/><path class="cls-7" d="M73.14,63.14c0-2.42,0-3,0-3.51v-1a14.31,14.31,0,0,0,.11-1.81,10.58,10.58,0,0,1-.11,1.58c0,.3,0,.68,0,1.13C73.16,60.38,73.15,61.51,73.14,63.14Z"/><path class="cls-7" d="M74.56,40.71a7.53,7.53,0,0,0,0-3.1,8.74,8.74,0,0,1,0,3.23,3.08,3.08,0,0,0,0,.53c0,.54,0,1.08,0,1.62,0-.55,0-1.11,0-1.69A3,3,0,0,1,74.56,40.71Z"/><path class="cls-7" d="M75.37,40.88c0,.77,0,1.55,0,2.29,0,.56,0,1.07,0,1.6Z"/><path class="cls-7" d="M73.76,41.81c0,2,0,2.88-.05,3.8,0,.2,0,.4,0,.63s0,.45,0,.68c0-.48.09-.94.09-1.37s0-.89,0-1.36Z"/><path class="cls-7" d="M72.7,43.87v-2c0,.47,0,1,0,1.38v2.11Z"/><path class="cls-7" d="M75.05,49.73a.15.15,0,0,0,.12,0s.06-.14.1-.22a3.56,3.56,0,0,0,0-.37c0-.15,0-.29,0-.29s0,0,0,0v.46c0,.13,0,.25,0,.38s0,.07-.07.06Z"/><path class="cls-7" d="M75.49,35.68a1.32,1.32,0,0,0,0-.26,2.88,2.88,0,0,0,0,1.4,2,2,0,0,1,0-.76A2.43,2.43,0,0,1,75.49,35.68Z"/><path class="cls-7" d="M73.37,52.43a5,5,0,0,1,.28-3.14.7.7,0,0,0,.06-.3.67.67,0,0,1,0,.24,5.05,5.05,0,0,0-.37,2.84C73.32,52.2,73.35,52.32,73.37,52.43Z"/><path class="cls-7" d="M75,50.52c0-.12-.12-.25-.19-.24a4.18,4.18,0,0,1,.58,2.38,6.43,6.43,0,0,0-.3-1.91Z"/><path class="cls-7" d="M72.58,57.37c0-.3,0-.59,0-.95,0-.16,0-.67,0-.67s0,.13,0,.21Z"/><path class="cls-7" d="M75.19,61.16c0-.21,0-.41,0-.69s0-.65,0-.66,0,0,0,0C75.2,60.27,75.2,60.71,75.19,61.16Z"/></g><polygon class="cls-13" points="23.08 31.81 23.37 63.25 27.05 64.8 26.88 30.86 23.08 31.81"/><g class="cls-6"><path class="cls-7" d="M25.8,56c0-.2,0-.4,0-.61s0-.11,0-.12-.14-.37-.22-.39a8,8,0,0,0,.37-4c0-.1,0-.2,0-.3,0-1.11,0-2.26-.09-3.43V43.74c0,1,0,1.91,0,2.86,0,.47,0,.95,0,1.51,0,.79.08,1.56.08,2.34v.33c.4,1.66-.41,2.88-.12,4.47v.23c0,.22,0,.45,0,.68a18.45,18.45,0,0,0,.08,2.41c0,.41,0,.91,0,1.41,0,1,0,2,0,3l0-2.88c0-.49,0-1,0-1.41s-.06-.85-.08-1.29S25.8,56.47,25.8,56Z"/><path class="cls-7" d="M23.66,34.34c0,.23,0,.44,0,.65s0,.41,0,.61a19.63,19.63,0,0,1,0,3.83c-.09-1.22.13-2.5,0-3.78Z"/><path class="cls-7" d="M25,32.58c0-.43,0-.87,0-1.3h0C25,31.7,25,32.13,25,32.58Z"/><path class="cls-7" d="M26.2,30.93h0c0,.52,0,1,0,1.54C26.2,34.62,26.22,34.11,26.2,30.93Z"/><path class="cls-7" d="M23.64,44.44l0-2.64.06,3.83c0,.92,0,1.84,0,2.75Z"/><path class="cls-7" d="M25.93,63.76c0-2.42,0-3-.05-3.51v-1a14.31,14.31,0,0,1-.11-1.81A10.58,10.58,0,0,0,25.88,59c0,.3,0,.68,0,1.13C25.91,61,25.92,62.14,25.93,63.76Z"/><path class="cls-7" d="M24.51,41.33a7.48,7.48,0,0,1,0-3.09,8.69,8.69,0,0,0,0,3.22,4.91,4.91,0,0,1,0,.53v1.62c0-.55,0-1.11,0-1.69A2.41,2.41,0,0,0,24.51,41.33Z"/><path class="cls-7" d="M23.7,41.51c0,.76,0,1.54,0,2.28,0,.56,0,1.07,0,1.6Z"/><path class="cls-7" d="M25.31,42.43c0,2,0,2.88.05,3.8,0,.2,0,.4,0,.63s0,.45.05.68c0-.48-.09-.94-.09-1.37s0-.89,0-1.36C25.31,44.52,25.31,43.89,25.31,42.43Z"/><path class="cls-7" d="M26.37,44.49v-2c0,.47,0,1,0,1.38V46Z"/><path class="cls-7" d="M24,50.35a.16.16,0,0,1-.13,0s-.06-.14-.09-.22a1.79,1.79,0,0,1,0-.37c0-.15,0-.29,0-.29s0,0,0,0v.46c0,.13,0,.25.05.38s0,.07.07.06Z"/><path class="cls-7" d="M23.59,36.3a.61.61,0,0,1,0-.26,2.88,2.88,0,0,1,0,1.4,1.81,1.81,0,0,0,0-.76C23.61,36.55,23.6,36.43,23.59,36.3Z"/><path class="cls-7" d="M25.7,53.05a5,5,0,0,0-.28-3.14.7.7,0,0,1-.06-.3.67.67,0,0,0,0,.24,5.05,5.05,0,0,1,.37,2.84A3.29,3.29,0,0,1,25.7,53.05Z"/><path class="cls-7" d="M24.11,51.15c0-.13.12-.26.19-.25a4.12,4.12,0,0,0-.57,2.39A6.16,6.16,0,0,1,24,51.37C24.05,51.29,24.08,51.21,24.11,51.15Z"/><path class="cls-7" d="M26.49,58c0-.3,0-.59,0-1,0-.16,0-.67,0-.67a.91.91,0,0,1,0,.21Z"/><path class="cls-7" d="M23.88,61.78c0-.21,0-.41,0-.69s0-.65,0-.66,0,0,0,0C23.87,60.89,23.87,61.33,23.88,61.78Z"/></g><path class="cls-16" d="M48.89,75.08l.52-50L44,26.51,44.29,73l-.17-.06v.24l-.07-.34L43.59,26.4v-.18l6.15-1.69-.49,50.72Z"/><polygon class="cls-13" points="49.06 75.56 49.31 24.65 43.59 26.22 44.13 73.15 49.06 75.56"/><g class="cls-6"><path class="cls-7" d="M45.49,40l-.06,1c0,.1,0,.17,0,.19.19-.18.19.53.3.53a14.19,14.19,0,0,0-.53,6.19v.44c0,1.62,0,3.26.11,4.91v4.63c0-1.28,0-2.59,0-3.9,0-.66,0-1.32,0-2.12-.07-1.11-.09-2.23-.09-3.36V48c-.54-2.37.58-4.43.18-6.8,0-.12,0-.24,0-.36,0-.36,0-.73,0-1.1a36.08,36.08,0,0,0-.09-3.84c0-.66,0-1.49,0-2.32,0-1.68,0-3.38,0-5.09l0,4.92c0,.82,0,1.65.06,2.32s.08,1.35.11,2.06S45.5,39.22,45.49,40Z"/><path class="cls-7" d="M48.19,71.24c0-.3,0-.58,0-.85V69.6c-.35-1.67.11-3.4.12-5.07.1,1.7-.25,3.26-.11,5Z"/><path class="cls-7" d="M46.4,72.38c0,.52,0,1,0,1.53h0C46.39,73.43,46.4,72.93,46.4,72.38Z"/><path class="cls-7" d="M44.89,73.33h0c0-.58,0-1.17,0-1.75C44.9,69.11,44.88,69.69,44.89,73.33Z"/><path class="cls-7" d="M48,44c.13-1.69-.1-3.64-1-4.42v-.51c0-.17,0-.34,0-.51,0-1.72-.11-3.45-.19-5.16,0-.77,0-1.55,0-2.33,0-.18,0-.76,0-1.15v2.56c0,.84,0,1.69.06,2.67.09,1.18.14,2.56.14,4a1.43,1.43,0,0,0,.09.56c.74,1.37,1.33,4.28.25,5.78Z"/><path class="cls-7" d="M48.49,57.44l-.05,3.82c0-1.84,0-3.7,0-5.58,0-1.39,0-2.79,0-4.21Z"/><path class="cls-7" d="M45.36,27c0,4.21,0,5.12,0,6.05,0,.58,0,1.16,0,1.73a28.24,28.24,0,0,1,.14,2.91,20.67,20.67,0,0,0-.14-2.53c0-.49,0-1.12,0-1.86C45.37,31.79,45.37,29.84,45.36,27Z"/><path class="cls-7" d="M47.13,61.54a9.16,9.16,0,0,1-.07,4.11,11.1,11.1,0,0,0,0-4.3,6.19,6.19,0,0,1,0-.74c0-.74,0-1.49,0-2.23v2.33A4,4,0,0,0,47.13,61.54Z"/><path class="cls-7" d="M48.31,61.64c0-1.09,0-2.2,0-3.28,0-.81,0-1.56,0-2.35Z"/><path class="cls-7" d="M46.05,59.77c0-2.7,0-4,0-5.24,0-.28,0-.57,0-.89s0-.65-.07-1c.06.69.11,1.34.12,1.95s0,1.24,0,1.91C46.08,56.93,46.07,57.8,46.05,59.77Z"/><path class="cls-7" d="M44.71,56.74v2.58c0-.6,0-1.24,0-1.8V54.71Z"/><path class="cls-7" d="M48.05,48.4a.27.27,0,0,1,.19,0c.07,0,.1.22.15.34s0,.36,0,.59,0,.45,0,.46,0,0,0,0v-.73c0-.21,0-.4-.07-.59s-.06-.12-.11-.1Z"/><path class="cls-7" d="M48.34,68.76a1,1,0,0,1,0,.36,3.51,3.51,0,0,1,0-1.85,2.32,2.32,0,0,0-.08,1Z"/><path class="cls-7" d="M45.62,44.53A7.91,7.91,0,0,0,46,49.21a1.14,1.14,0,0,1,.08.45A1.18,1.18,0,0,0,46,49.3a7.78,7.78,0,0,1-.49-4.2C45.55,44.9,45.58,44.71,45.62,44.53Z"/><path class="cls-7" d="M47.93,47.15c-.06.2-.18.43-.3.43a7.65,7.65,0,0,0,1-4,11.25,11.25,0,0,1-.52,3.23Z"/><path class="cls-7" d="M44.55,37.16c0,.48,0,.93,0,1.49v1s0-.19,0-.32Z"/><path class="cls-7" d="M48.63,28.44c0,.4,0,.77,0,1.3,0,.29,0,1.21,0,1.24s0,0,0,0C48.61,30.12,48.62,29.3,48.63,28.44Z"/></g><path class="cls-8" d="M49.62,31.94,23.06,36.39l-.17-4.51,26.43-7.23h0L22.94,31.87h-.05L23,36.49l.17.16L49.61,32.3Z"/><polygon class="cls-17" points="49.62 32.09 22.95 36.48 22.89 31.88 49.67 24.55 49.62 32.09"/><g class="cls-6"><path class="cls-7" d="M27.78,32.26l.39-.15s.07,0,.08,0c-.07.19.22.13.22.23a3.75,3.75,0,0,1,2.76-1.2l.21,0c.81-.2,1.66-.38,2.54-.52l1.33-.33,1.4-.35-2.32.55c-.36.09-.73.18-1.15.25a13.26,13.26,0,0,0-1.71.33l-.24.06c-1.11-.26-2,1.08-3,.94l-.14,0-.44.13a6.38,6.38,0,0,1-1.47.28,5,5,0,0,0-.82.17l-1.68.41,1.62-.38a5.63,5.63,0,0,1,.83-.15l.76-.09Z"/><path class="cls-7" d="M47.8,28.66q.77-.18,1.53-.39h0C48.84,28.42,48.33,28.54,47.8,28.66Z"/><path class="cls-7" d="M49.32,26.05v0l-1.76.44Z"/><path class="cls-7" d="M36.15,33.54l2.36-.45-3.37.6-2.23.42Z"/><path class="cls-7" d="M23.26,33.26l1.95-.45.6-.14a4.45,4.45,0,0,0,1.08-.14,3,3,0,0,1-.94.1,4.66,4.66,0,0,0-.66.14Z"/><path class="cls-7" d="M38.88,31.51c.84.29,2-.22,3-.68a5.17,5.17,0,0,1-3.08.64,1.63,1.63,0,0,0-.49.05l-1.42.32,1.49-.3A1.39,1.39,0,0,1,38.88,31.51Z"/><path class="cls-7" d="M38.78,32.9l-2.07.37-1.37.27Z"/><path class="cls-7" d="M37.85,30.45l-3.18.71a2.5,2.5,0,0,1-.49.09l-.53.06a7.28,7.28,0,0,0,1.07-.13L35.83,31Z"/><path class="cls-7" d="M36.08,29.29l1.65-.44-1.16.29-1.7.45Z"/><path class="cls-7" d="M31.43,33.92a.58.58,0,0,0,0,.18c0,.07.1.08.15.12l.28,0,.22,0s0,0,0,0l-.34.06-.28,0c-.05,0-.05,0,0-.1A.81.81,0,0,0,31.43,33.92Z"/><path class="cls-7" d="M44,32a.47.47,0,0,0,.29,0,1.91,1.91,0,0,0-1.49.27,1.24,1.24,0,0,1,.79-.23Z"/><path class="cls-7" d="M29.69,31.91a1.83,1.83,0,0,1,2.18-.15.28.28,0,0,0,.22,0,.24.24,0,0,1-.18,0,1.78,1.78,0,0,0-2,0Z"/><path class="cls-7" d="M30.86,33.91a.53.53,0,0,0,.2-.33,2.74,2.74,0,0,1-1.77,1.24,3.25,3.25,0,0,0,1.4-.73Z"/><path class="cls-7" d="M26.65,31.66l.57-.13.42-.11h-.13Z"/><path class="cls-7" d="M23.93,35.72l.4-.06.39-.07s0,0,0,0Z"/></g><polygon class="cls-18" points="49.67 31.93 75.87 35.78 76.2 31.25 49.74 24.53 49.67 31.93"/><path class="cls-8" d="M49.67,32.23,76,36l.19-4.56h0l-26-6.66h0L76.2,31.43,76,35.84l-26.34-4Z"/><g class="cls-6"><path class="cls-7" d="M51.63,28.7l-1.58-.37h0C50.56,28.47,51.08,28.59,51.63,28.7Z"/><path class="cls-7" d="M50.11,26.14v0l1.81.41Z"/><path class="cls-7" d="M63.35,33.27,61,32.88l3.35.51,2.19.36Z"/><path class="cls-7" d="M75.84,32.74,74,32.36l-.57-.13a4.33,4.33,0,0,1-1-.11,3.26,3.26,0,0,0,.89.08,4.83,4.83,0,0,1,.62.11Z"/><path class="cls-7" d="M60.66,31.35a4.47,4.47,0,0,1-3-.62,5.2,5.2,0,0,0,3.09.58,1.6,1.6,0,0,1,.49,0l1.41.28-1.47-.26A1.4,1.4,0,0,0,60.66,31.35Z"/><path class="cls-7" d="M60.73,32.7l2.06.32,1.36.23Z"/><path class="cls-7" d="M61.7,30.31l3.14.64a3.85,3.85,0,0,0,.49.07l.52.05A7.17,7.17,0,0,1,64.79,31l-1.08-.21C63.47,30.71,62.94,30.59,61.7,30.31Z"/><path class="cls-7" d="M63.48,29.17l-1.63-.41L63,29l1.67.41Z"/><path class="cls-7" d="M68,33.53a.36.36,0,0,1,0,.18c0,.06-.1.08-.16.12l-.27,0-.21,0s0,0,0,0l.34.06a2.23,2.23,0,0,0,.27,0s0,0,0-.1A.77.77,0,0,1,68,33.53Z"/><path class="cls-7" d="M55.46,32a.58.58,0,0,1-.3,0,2,2,0,0,1,1.52.24,1.34,1.34,0,0,0-.8-.22Z"/><path class="cls-7" d="M69.7,31.58a1.79,1.79,0,0,0-2.12-.1.29.29,0,0,1-.21,0,.22.22,0,0,0,.17,0,1.77,1.77,0,0,1,1.92-.06Z"/><path class="cls-7" d="M68.54,33.52a.52.52,0,0,1-.19-.31,2.55,2.55,0,0,0,1.7,1.14,2.93,2.93,0,0,1-1.34-.67Z"/><path class="cls-7" d="M72.63,31.29l-.55-.12-.39-.09h.12Z"/><path class="cls-7" d="M75.18,35.09,74.8,35,74.43,35s0,0,0,0Z"/></g><polygon class="cls-8" points="23.24 59.13 23.24 58.93 23.33 58.84 49.32 68.02 49.32 68.2 49.32 68.63 23.24 59.13"/><polygon class="cls-17" points="23.3 63.25 23.24 58.93 49.32 68.2 49.25 75.74 23.3 63.25"/><g class="cls-6"><path class="cls-7" d="M42.67,70.27l-.51-.14a.14.14,0,0,1-.1-.1c.09-.21-.27-.37-.27-.52a2.93,2.93,0,0,1-3.07-.62l-.21-.09c-.76-.34-1.51-.71-2.25-1.12l-1-.44-1-.43,1.68.76c.29.13.59.26,1,.46a13.29,13.29,0,0,0,1.55.79l.23.1c1.14,1.2,2.17.18,3.38,1.23l.19.07.57.21a11.1,11.1,0,0,1,2.1,1c.37.21.84.42,1.32.63l3.05,1.33-3-1.32A13.74,13.74,0,0,1,45,71.45c-.38-.23-.75-.44-1.14-.64A12.57,12.57,0,0,0,42.67,70.27Z"/><path class="cls-7" d="M26.81,62.73a15.48,15.48,0,0,1,2,.54c-.78-.29-1.49-.43-2.17-.66l-.14,0c-.09-.24-.21-.29-.33-.45-.65-.27-1.21.23-1.83-.6l-.1,0-.87-.38.89.4a.59.59,0,0,1,.11.08c.59.77,1.15.27,1.8.65a.47.47,0,0,1,.3.34l.13.07.26.09Z"/><path class="cls-7" d="M26.19,63.81,28.85,65l-2-.91L23.8,62.7Z"/><path class="cls-7" d="M34.64,63.28l-1.54-.53,2.27.84,1.81.63Z"/><path class="cls-7" d="M46.38,72c-.43-.19-.79-.35-1.07-.51a6.76,6.76,0,0,0-1.4-.81,10.09,10.09,0,0,1,1.62.9l1,.44,2.75,1.24h0Z"/><path class="cls-7" d="M32.89,64.15a1.59,1.59,0,0,0-1.6-.58,2,2,0,0,1,1.66.67,1.1,1.1,0,0,0,.3.16l.91.34-.95-.39A.81.81,0,0,1,32.89,64.15Z"/><path class="cls-7" d="M33,62.84l1.3.49,1,.33Z"/><path class="cls-7" d="M33.51,65.66l2.21,1a3.36,3.36,0,0,1,.38.19l.43.26a7.18,7.18,0,0,0-.85-.5l-.82-.36Z"/><path class="cls-7" d="M24.46,62.9l-.83-.37.56.27.82.37Z"/><path class="cls-7" d="M24,61.94c.19.09.3.15.41.19l.09,0,.1,0c.28.11.5.53.78.33-.22.12-.5-.11-.71-.29l-.12-.08Z"/><path class="cls-7" d="M34.68,67.8l-1.09-.49.75.37,1.22.54Z"/><path class="cls-7" d="M27.23,64.36l-.39-.2L26.57,64l.08.06Z"/><path class="cls-7" d="M27,63.24c-.14-.07-.22-.06-.4-.14a8.1,8.1,0,0,0,.89.34l-.2-.08Z"/><path class="cls-7" d="M38.55,65.3a1.06,1.06,0,0,0,0-.24c0-.09-.09-.15-.15-.23a1,1,0,0,0-.26-.13l-.21-.07s0,0,0,0l.32.12a2.53,2.53,0,0,1,.27.18.15.15,0,0,1,0,.15A1.28,1.28,0,0,0,38.55,65.3Z"/><path class="cls-7" d="M30.27,61.78c-.05-.07-.05-.07-.13-.09a.57.57,0,0,0,.68.24.32.32,0,0,1-.37,0Z"/><path class="cls-7" d="M40.34,69.1c-.77.34-1.64-.63-2.23-1.42-.1-.15-.16-.17-.21-.19a.34.34,0,0,1,.17.14c.52.79,1.28,1.56,2,1.47A1.31,1.31,0,0,0,40.34,69.1Z"/><path class="cls-7" d="M24.77,63.21l-.12,0,.24.12.4.17Z"/><path class="cls-7" d="M39.12,65.66a.34.34,0,0,0-.21.29,1.61,1.61,0,0,1,1.93-.47,2.16,2.16,0,0,0-1.54.06Z"/><path class="cls-7" d="M44.23,72.26l-.82-.4-.57-.25.18.11Z"/><path class="cls-7" d="M48.94,68.53l-.77-.31L47.46,68c-.05,0,0,0,0,0Z"/><path class="cls-7" d="M23.64,61.86l-.2-.07.49.22.19.07Z"/><path class="cls-7" d="M24.62,62.2a.74.74,0,0,0-.12-.09l-.9-.39v0l.9.37.13.09Z"/><path class="cls-7" d="M23.59,61.36l-.11,0,.22.1.38.15Z"/></g><polygon class="cls-8" points="76.02 58.38 76.02 58.04 49.33 68 49.33 68.19 49.33 68.61 76.02 58.38"/><polygon class="cls-18" points="75.91 62.7 76.02 58.16 49.41 68.15 49.4 75.65 75.91 62.7"/><g class="cls-6"><path class="cls-7" d="M72.16,62.24a16.14,16.14,0,0,0-2,.61c.81-.32,1.56-.48,2.29-.73l.14,0c.11-.26.24-.31.37-.48.68-.29,1.27.21,2-.67l.11-.05.94-.42-1,.44-.12.09c-.65.82-1.24.32-1.93.72a.58.58,0,0,0-.33.37l-.13.07-.28.1Z"/><path class="cls-7" d="M72.81,63.36,70,64.64l2.07-1,3.31-1.52Z"/><path class="cls-7" d="M64,63l1.59-.58-2.34.9L61.39,64Z"/><path class="cls-7" d="M52.19,72c.42-.19.77-.35,1.05-.51a7.09,7.09,0,0,1,1.38-.82,10.15,10.15,0,0,0-1.59.91l-1,.44-2.67,1.24h0Z"/><path class="cls-7" d="M65.79,63.84a1.68,1.68,0,0,1,1.66-.62,2.06,2.06,0,0,0-1.73.71.86.86,0,0,1-.31.17c-.3.13-.62.25-.93.37l1-.41A.91.91,0,0,0,65.79,63.84Z"/><path class="cls-7" d="M65.74,62.49,64.39,63l-1,.36Z"/><path class="cls-7" d="M65.14,65.4l-2.27,1a3,3,0,0,0-.4.2l-.44.27a7.73,7.73,0,0,1,.88-.52l.84-.38Z"/><path class="cls-7" d="M74.66,62.37l.9-.41-.6.3-.89.4Z"/><path class="cls-7" d="M75.19,61.34l-.44.22-.11,0-.1,0c-.3.12-.54.56-.84.37.24.11.54-.14.77-.33l.13-.09Z"/><path class="cls-7" d="M63.92,67.61l1.13-.51-.78.38L63,68.05Z"/><path class="cls-7" d="M71.7,64c.14-.07.26-.14.42-.21l.29-.14-.09.07Z"/><path class="cls-7" d="M72,62.78c.14-.08.24-.07.42-.16a6.85,6.85,0,0,1-.94.38l.21-.1Z"/><path class="cls-7" d="M58.17,69c.78.34,1.66-.65,2.26-1.46.1-.15.16-.17.21-.19s-.09,0-.17.14c-.53.81-1.3,1.6-2,1.52Z"/><path class="cls-7" d="M74.33,62.7l.12,0-.25.12-.43.19Z"/><path class="cls-7" d="M59.42,65.5a.33.33,0,0,1,.2.29,1.58,1.58,0,0,0-1.93-.45,2.09,2.09,0,0,1,1.55,0Z"/><path class="cls-7" d="M75.55,61.26l.22-.08-.53.24-.2.08Z"/></g><path class="cls-19" d="M25.87,31.84A.15.15,0,0,0,26,32a.16.16,0,0,0,.17-.17.14.14,0,0,0-.18-.15A.17.17,0,0,0,25.87,31.84Z"/><path class="cls-20" d="M25.87,31.83a.15.15,0,1,0,.3,0,.15.15,0,0,0-.18-.16A.18.18,0,0,0,25.87,31.83Z"/><polygon class="cls-21" points="26.08 31.76 26.08 31.89 25.99 31.94 25.91 31.88 25.91 31.78 25.98 31.72 26.08 31.76"/><polygon class="cls-22" points="26.08 31.76 26.08 31.88 25.99 31.93 25.92 31.88 25.91 31.78 25.99 31.71 26.08 31.76"/><path class="cls-19" d="M25.87,34.9a.16.16,0,0,0,.12.15.15.15,0,0,0,.17-.16c0-.12-.09-.19-.18-.16A.19.19,0,0,0,25.87,34.9Z"/><path class="cls-23" d="M25.88,34.9a.15.15,0,0,0,.12.15c.08,0,.17-.06.17-.17a.14.14,0,0,0-.18-.15A.16.16,0,0,0,25.88,34.9Z"/><polygon class="cls-21" points="26.08 34.83 26.08 34.95 25.99 35 25.92 34.95 25.91 34.85 25.99 34.78 26.08 34.83"/><polygon class="cls-24" points="26.09 34.82 26.09 34.95 25.99 35 25.92 34.94 25.92 34.85 25.99 34.78 26.09 34.82"/><path class="cls-19" d="M23.46,35.24a.19.19,0,0,0,.12.16.16.16,0,0,0,.17-.17.15.15,0,0,0-.17-.16A.19.19,0,0,0,23.46,35.24Z"/><path class="cls-25" d="M23.47,35.24a.15.15,0,0,0,.12.15c.08,0,.17,0,.17-.17a.14.14,0,0,0-.18-.15A.16.16,0,0,0,23.47,35.24Z"/><polygon class="cls-21" points="23.67 35.17 23.67 35.3 23.58 35.35 23.51 35.29 23.5 35.19 23.58 35.13 23.67 35.17"/><polygon class="cls-26" points="23.68 35.17 23.68 35.29 23.59 35.34 23.51 35.29 23.51 35.19 23.58 35.12 23.68 35.17"/><path class="cls-19" d="M23.46,32.47a.15.15,0,0,0,.12.15.15.15,0,0,0,.17-.16c0-.12-.09-.19-.18-.16A.18.18,0,0,0,23.46,32.47Z"/><path class="cls-27" d="M23.46,32.47a.16.16,0,0,0,.12.15.16.16,0,0,0,.18-.17.14.14,0,0,0-.18-.15A.17.17,0,0,0,23.46,32.47Z"/><polygon class="cls-21" points="23.67 32.4 23.67 32.52 23.58 32.57 23.5 32.52 23.5 32.42 23.57 32.35 23.67 32.4"/><polygon class="cls-28" points="23.67 32.39 23.68 32.52 23.58 32.57 23.51 32.51 23.5 32.42 23.58 32.35 23.67 32.39"/><path class="cls-19" d="M48.37,25.9a.27.27,0,0,0,.21.27.27.27,0,0,0,.31-.3.26.26,0,0,0-.32-.28A.3.3,0,0,0,48.37,25.9Z"/><path class="cls-29" d="M48.37,25.89a.27.27,0,1,0,.53,0,.26.26,0,0,0-.33-.28A.33.33,0,0,0,48.37,25.89Z"/><polygon class="cls-21" points="48.74 25.77 48.74 25.99 48.58 26.09 48.45 25.98 48.44 25.81 48.57 25.69 48.74 25.77"/><polygon class="cls-30" points="48.75 25.76 48.75 25.99 48.59 26.08 48.45 25.98 48.45 25.8 48.58 25.68 48.75 25.76"/><path class="cls-19" d="M48.37,31.44a.3.3,0,0,0,.22.28.29.29,0,0,0,.31-.31.27.27,0,0,0-.33-.28A.32.32,0,0,0,48.37,31.44Z"/><path class="cls-31" d="M48.38,31.43a.27.27,0,0,0,.21.28.29.29,0,0,0,.32-.31.26.26,0,0,0-.33-.28A.3.3,0,0,0,48.38,31.43Z"/><polygon class="cls-21" points="48.75 31.31 48.75 31.53 48.58 31.63 48.45 31.52 48.45 31.35 48.58 31.23 48.75 31.31"/><polygon class="cls-32" points="48.76 31.3 48.76 31.53 48.59 31.62 48.46 31.52 48.45 31.34 48.58 31.22 48.76 31.3"/><path class="cls-19" d="M44,32.06a.29.29,0,0,0,.21.28.28.28,0,0,0,.31-.31.26.26,0,0,0-.32-.28A.3.3,0,0,0,44,32.06Z"/><path class="cls-33" d="M44,32.05a.27.27,0,1,0,.53,0,.26.26,0,0,0-.33-.28A.33.33,0,0,0,44,32.05Z"/><polygon class="cls-21" points="44.39 31.93 44.4 32.15 44.23 32.25 44.1 32.14 44.09 31.97 44.22 31.85 44.39 31.93"/><polygon class="cls-34" points="44.4 31.92 44.4 32.15 44.24 32.24 44.1 32.14 44.1 31.96 44.23 31.84 44.4 31.92"/><path class="cls-19" d="M44,27.05a.27.27,0,1,0,.53,0,.27.27,0,0,0-.33-.28A.32.32,0,0,0,44,27.05Z"/><path class="cls-35" d="M44,27a.29.29,0,0,0,.21.28.29.29,0,0,0,.32-.31.26.26,0,0,0-.33-.28A.3.3,0,0,0,44,27Z"/><polygon class="cls-21" points="44.39 26.92 44.39 27.14 44.22 27.23 44.09 27.13 44.09 26.96 44.22 26.84 44.39 26.92"/><polygon class="cls-36" points="44.4 26.91 44.4 27.14 44.23 27.23 44.1 27.13 44.09 26.95 44.22 26.83 44.4 26.91"/><path class="cls-19" d="M50.87,25.61a.28.28,0,0,1-.21.27.27.27,0,0,1-.31-.3.26.26,0,0,1,.32-.28A.32.32,0,0,1,50.87,25.61Z"/><path class="cls-37" d="M50.86,25.6a.28.28,0,0,1-.21.28c-.16,0-.31-.1-.31-.31a.26.26,0,0,1,.32-.28A.3.3,0,0,1,50.86,25.6Z"/><polygon class="cls-21" points="50.49 25.48 50.49 25.7 50.66 25.8 50.79 25.69 50.8 25.52 50.67 25.4 50.49 25.48"/><polygon class="cls-38" points="50.49 25.47 50.48 25.7 50.65 25.79 50.79 25.69 50.79 25.51 50.66 25.39 50.49 25.47"/><path class="cls-19" d="M50.86,31.15a.27.27,0,0,1-.21.27.27.27,0,0,1-.31-.3.26.26,0,0,1,.32-.28A.3.3,0,0,1,50.86,31.15Z"/><path class="cls-39" d="M50.86,31.14a.29.29,0,0,1-.22.28.28.28,0,0,1-.31-.31.26.26,0,0,1,.33-.28A.33.33,0,0,1,50.86,31.14Z"/><polygon class="cls-21" points="50.49 31.02 50.49 31.24 50.65 31.34 50.78 31.23 50.79 31.06 50.66 30.94 50.49 31.02"/><polygon class="cls-40" points="50.48 31.01 50.48 31.23 50.65 31.33 50.78 31.23 50.79 31.05 50.66 30.93 50.48 31.01"/><path class="cls-19" d="M55.22,31.77a.3.3,0,0,1-.22.28.29.29,0,0,1-.31-.31.27.27,0,0,1,.33-.28A.33.33,0,0,1,55.22,31.77Z"/><path class="cls-41" d="M55.21,31.76A.27.27,0,0,1,55,32a.29.29,0,0,1-.32-.31.26.26,0,0,1,.33-.28A.3.3,0,0,1,55.21,31.76Z"/><polygon class="cls-21" points="54.84 31.64 54.84 31.86 55.01 31.95 55.14 31.85 55.15 31.68 55.02 31.56 54.84 31.64"/><polygon class="cls-42" points="54.84 31.63 54.83 31.86 55 31.95 55.13 31.85 55.14 31.67 55.01 31.55 54.84 31.63"/><path class="cls-19" d="M55.22,26.76A.27.27,0,0,1,55,27a.28.28,0,0,1-.31-.3.26.26,0,0,1,.32-.28A.3.3,0,0,1,55.22,26.76Z"/><path class="cls-43" d="M55.22,26.75A.3.3,0,0,1,55,27a.28.28,0,0,1-.31-.31.26.26,0,0,1,.33-.28A.33.33,0,0,1,55.22,26.75Z"/><polygon class="cls-21" points="54.85 26.63 54.85 26.85 55.01 26.94 55.15 26.84 55.15 26.66 55.02 26.55 54.85 26.63"/><polygon class="cls-44" points="54.84 26.61 54.84 26.84 55.01 26.94 55.14 26.84 55.15 26.66 55.02 26.54 54.84 26.61"/><path class="cls-19" d="M48.31,74.68a.26.26,0,1,1,.52,0,.26.26,0,0,1-.33.28A.29.29,0,0,1,48.31,74.68Z"/><path class="cls-45" d="M48.31,74.69a.27.27,0,0,1,.21-.28.29.29,0,0,1,.32.31.26.26,0,0,1-.33.28A.3.3,0,0,1,48.31,74.69Z"/><polygon class="cls-21" points="48.68 74.82 48.68 74.58 48.52 74.49 48.38 74.59 48.38 74.78 48.51 74.9 48.68 74.82"/><polygon class="cls-46" points="48.69 74.83 48.69 74.59 48.52 74.5 48.39 74.6 48.38 74.78 48.51 74.91 48.69 74.83"/><path class="cls-19" d="M48.27,69a.27.27,0,1,1,.53,0,.27.27,0,0,1-.33.29A.33.33,0,0,1,48.27,69Z"/><path class="cls-47" d="M48.28,69a.27.27,0,1,1,.53,0,.27.27,0,0,1-.33.29A.31.31,0,0,1,48.28,69Z"/><polygon class="cls-21" points="48.65 69.17 48.65 68.94 48.48 68.85 48.35 68.95 48.34 69.13 48.47 69.25 48.65 69.17"/><polygon class="cls-48" points="48.66 69.18 48.66 68.95 48.49 68.85 48.36 68.96 48.35 69.14 48.48 69.26 48.66 69.18"/><path class="cls-19" d="M44.17,67.68a.29.29,0,0,1,.21-.29.28.28,0,0,1,.31.31c0,.21-.16.34-.32.29A.3.3,0,0,1,44.17,67.68Z"/><path class="cls-49" d="M44.17,67.68a.3.3,0,0,1,.22-.28.28.28,0,0,1,.31.31c0,.21-.16.34-.32.29A.33.33,0,0,1,44.17,67.68Z"/><polygon class="cls-21" points="44.54 67.81 44.55 67.58 44.38 67.49 44.25 67.59 44.24 67.77 44.37 67.89 44.54 67.81"/><polygon class="cls-50" points="44.55 67.82 44.55 67.59 44.39 67.49 44.25 67.6 44.25 67.78 44.38 67.9 44.55 67.82"/><path class="cls-19" d="M44.23,72.41a.3.3,0,0,1,.21-.28c.16,0,.31.1.31.31s-.16.34-.32.29A.34.34,0,0,1,44.23,72.41Z"/><path class="cls-51" d="M44.24,72.42a.28.28,0,0,1,.21-.28c.16,0,.31.1.31.31s-.16.34-.32.29A.31.31,0,0,1,44.24,72.42Z"/><polygon class="cls-21" points="44.6 72.55 44.61 72.32 44.44 72.22 44.31 72.33 44.3 72.51 44.43 72.63 44.6 72.55"/><polygon class="cls-52" points="44.61 72.56 44.62 72.33 44.45 72.23 44.31 72.33 44.31 72.52 44.44 72.64 44.61 72.56"/><path class="cls-19" d="M50.41,74.66a.27.27,0,1,0-.53,0c0,.21.17.34.33.29A.33.33,0,0,0,50.41,74.66Z"/><path class="cls-53" d="M50.4,74.66a.27.27,0,1,0-.53,0,.27.27,0,0,0,.33.29A.31.31,0,0,0,50.4,74.66Z"/><polygon class="cls-21" points="50.03 74.79 50.03 74.56 50.2 74.47 50.33 74.57 50.34 74.75 50.21 74.87 50.03 74.79"/><polygon class="cls-54" points="50.03 74.8 50.02 74.57 50.19 74.47 50.33 74.58 50.33 74.76 50.2 74.88 50.03 74.8"/><path class="cls-19" d="M50.29,68.79a.28.28,0,0,0-.21-.28.28.28,0,0,0-.31.3c0,.21.16.34.32.29A.32.32,0,0,0,50.29,68.79Z"/><path class="cls-55" d="M50.29,68.79a.31.31,0,0,0-.22-.28.29.29,0,0,0-.31.31c0,.22.16.34.32.29A.33.33,0,0,0,50.29,68.79Z"/><polygon class="cls-21" points="49.92 68.92 49.91 68.69 50.08 68.6 50.21 68.7 50.22 68.88 50.09 69 49.92 68.92"/><polygon class="cls-56" points="49.91 68.93 49.91 68.7 50.07 68.61 50.21 68.71 50.21 68.89 50.08 69.01 49.91 68.93"/><path class="cls-19" d="M55,67a.29.29,0,0,0-.21-.28c-.16,0-.31.1-.31.31a.26.26,0,0,0,.32.28A.3.3,0,0,0,55,67Z"/><path class="cls-57" d="M55,67a.29.29,0,0,0-.22-.28.28.28,0,0,0-.31.31.26.26,0,0,0,.32.28A.33.33,0,0,0,55,67Z"/><polygon class="cls-21" points="54.63 67.08 54.62 66.85 54.79 66.76 54.92 66.86 54.93 67.05 54.8 67.17 54.63 67.08"/><polygon class="cls-58" points="54.62 67.09 54.62 66.86 54.78 66.77 54.92 66.87 54.92 67.05 54.79 67.17 54.62 67.09"/><path class="cls-19" d="M55.08,72.21a.29.29,0,0,0-.21-.28.28.28,0,0,0-.31.31.27.27,0,0,0,.32.29A.31.31,0,0,0,55.08,72.21Z"/><path class="cls-59" d="M55.08,72.22a.28.28,0,0,0-.21-.28.29.29,0,0,0-.32.31.27.27,0,0,0,.33.29A.34.34,0,0,0,55.08,72.22Z"/><polygon class="cls-21" points="54.71 72.35 54.71 72.12 54.87 72.02 55.01 72.13 55.01 72.31 54.88 72.43 54.71 72.35"/><polygon class="cls-60" points="54.7 72.36 54.7 72.13 54.87 72.03 55 72.13 55.01 72.31 54.88 72.44 54.7 72.36"/><path class="cls-19" d="M72.83,30.94a.17.17,0,0,1-.15.18.2.2,0,1,1,0-.4A.22.22,0,0,1,72.83,30.94Z"/><path class="cls-61" d="M72.83,30.93a.22.22,0,0,1-.15.19.2.2,0,0,1-.22-.21.18.18,0,0,1,.23-.19A.22.22,0,0,1,72.83,30.93Z"/><polygon class="cls-21" points="72.57 30.84 72.57 31 72.69 31.06 72.78 30.99 72.78 30.87 72.69 30.79 72.57 30.84"/><polygon class="cls-62" points="72.57 30.84 72.57 30.99 72.68 31.06 72.77 30.99 72.78 30.87 72.69 30.78 72.57 30.84"/><path class="cls-19" d="M72.83,34.72a.22.22,0,0,1-.15.19.19.19,0,0,1-.21-.21.18.18,0,0,1,.22-.19A.23.23,0,0,1,72.83,34.72Z"/><path class="cls-63" d="M72.82,34.72a.18.18,0,1,1-.36,0c0-.15.11-.23.22-.2A.22.22,0,0,1,72.82,34.72Z"/><polygon class="cls-21" points="72.57 34.63 72.57 34.79 72.68 34.85 72.77 34.78 72.78 34.66 72.69 34.58 72.57 34.63"/><polygon class="cls-64" points="72.56 34.63 72.56 34.78 72.68 34.84 72.77 34.77 72.77 34.65 72.68 34.57 72.56 34.63"/><path class="cls-19" d="M75.8,35.15a.18.18,0,0,1-.14.18.19.19,0,0,1-.22-.2.18.18,0,0,1,.23-.19A.2.2,0,0,1,75.8,35.15Z"/><path class="cls-65" d="M75.8,35.14a.18.18,0,1,1-.36,0,.18.18,0,0,1,.22-.19A.22.22,0,0,1,75.8,35.14Z"/><polygon class="cls-21" points="75.55 35.05 75.55 35.21 75.66 35.27 75.75 35.2 75.75 35.08 75.66 35 75.55 35.05"/><polygon class="cls-66" points="75.54 35.05 75.54 35.2 75.65 35.27 75.75 35.2 75.75 35.08 75.66 34.99 75.54 35.05"/><path class="cls-19" d="M75.8,31.72a.2.2,0,0,1-.14.19.19.19,0,0,1-.21-.21.18.18,0,0,1,.22-.19A.21.21,0,0,1,75.8,31.72Z"/><path class="cls-67" d="M75.8,31.72a.2.2,0,0,1-.14.19.2.2,0,0,1-.22-.21c0-.15.11-.23.22-.2A.21.21,0,0,1,75.8,31.72Z"/><polygon class="cls-21" points="75.55 31.63 75.55 31.79 75.66 31.85 75.75 31.78 75.76 31.66 75.67 31.58 75.55 31.63"/><polygon class="cls-68" points="75.54 31.62 75.54 31.78 75.66 31.84 75.75 31.77 75.75 31.65 75.66 31.57 75.54 31.62"/><path class="cls-19" d="M72.41,63.79a.17.17,0,0,0-.18-.11.18.18,0,0,0-.17.21.18.18,0,0,0,.26.09A.17.17,0,0,0,72.41,63.79Z"/><path class="cls-69" d="M72.4,63.79a.15.15,0,0,0-.18-.1.17.17,0,0,0-.16.2.16.16,0,0,0,.25.09A.15.15,0,0,0,72.4,63.79Z"/><polygon class="cls-21" points="72.18 63.92 72.14 63.8 72.24 63.73 72.34 63.76 72.37 63.85 72.3 63.93 72.18 63.92"/><polygon class="cls-70" points="72.17 63.92 72.14 63.81 72.24 63.73 72.34 63.76 72.37 63.85 72.3 63.94 72.17 63.92"/><path class="cls-19" d="M72.12,60.4a.16.16,0,0,0-.17-.11.17.17,0,0,0-.17.21.18.18,0,0,0,.25.09A.16.16,0,0,0,72.12,60.4Z"/><path class="cls-71" d="M72.12,60.4a.15.15,0,0,0-.18-.1.17.17,0,0,0-.16.2.18.18,0,0,0,.34-.1Z"/><polygon class="cls-21" points="71.89 60.53 71.86 60.41 71.96 60.34 72.06 60.37 72.09 60.46 72.02 60.54 71.89 60.53"/><polygon class="cls-72" points="71.89 60.53 71.86 60.42 71.96 60.34 72.06 60.37 72.09 60.46 72.02 60.55 71.89 60.53"/><path class="cls-19" d="M75.58,58.87a.16.16,0,0,0-.18-.11.18.18,0,0,0-.16.21.17.17,0,0,0,.25.09A.15.15,0,0,0,75.58,58.87Z"/><path class="cls-73" d="M75.58,58.87a.17.17,0,0,0-.18-.1.17.17,0,0,0-.16.21.17.17,0,0,0,.25.09A.18.18,0,0,0,75.58,58.87Z"/><polygon class="cls-21" points="75.36 59 75.32 58.88 75.42 58.81 75.52 58.84 75.55 58.93 75.48 59.01 75.36 59"/><polygon class="cls-74" points="75.35 59.01 75.32 58.89 75.42 58.81 75.52 58.84 75.55 58.93 75.48 59.02 75.35 59.01"/><path class="cls-19" d="M75.61,62.45a.16.16,0,0,0-.17-.11.17.17,0,0,0-.17.21.18.18,0,0,0,.25.09A.16.16,0,0,0,75.61,62.45Z"/><path class="cls-75" d="M75.61,62.45a.15.15,0,0,0-.18-.1.17.17,0,0,0-.16.2.18.18,0,0,0,.34-.1Z"/><polygon class="cls-21" points="75.39 62.58 75.35 62.46 75.45 62.39 75.55 62.42 75.58 62.51 75.51 62.59 75.39 62.58"/><polygon class="cls-76" points="75.38 62.58 75.35 62.47 75.45 62.39 75.55 62.42 75.58 62.51 75.51 62.59 75.38 62.58"/><path class="cls-19" d="M26.69,64.34a.17.17,0,0,1,.18-.11.18.18,0,0,1,.17.21.18.18,0,0,1-.26.09A.18.18,0,0,1,26.69,64.34Z"/><path class="cls-77" d="M26.7,64.34a.15.15,0,0,1,.18-.1.17.17,0,0,1,.16.2.16.16,0,0,1-.25.09A.15.15,0,0,1,26.7,64.34Z"/><polygon class="cls-21" points="26.92 64.47 26.95 64.35 26.86 64.28 26.76 64.31 26.73 64.4 26.8 64.48 26.92 64.47"/><polygon class="cls-78" points="26.93 64.47 26.96 64.36 26.86 64.28 26.76 64.31 26.73 64.4 26.8 64.48 26.93 64.47"/><path class="cls-19" d="M27,61a.16.16,0,0,1,.18-.11.17.17,0,0,1,.16.21.18.18,0,0,1-.25.09A.16.16,0,0,1,27,61Z"/><path class="cls-79" d="M27,61a.17.17,0,0,1,.18-.11.17.17,0,0,1,.16.21A.18.18,0,0,1,27,61Z"/><polygon class="cls-21" points="27.2 61.08 27.24 60.96 27.14 60.89 27.04 60.92 27.01 61.01 27.08 61.09 27.2 61.08"/><polygon class="cls-80" points="27.21 61.08 27.24 60.97 27.14 60.89 27.04 60.92 27.01 61.01 27.08 61.09 27.21 61.08"/><path class="cls-19" d="M23.52,59.42a.16.16,0,0,1,.18-.11.16.16,0,1,1-.09.3A.16.16,0,0,1,23.52,59.42Z"/><path class="cls-81" d="M23.52,59.42a.17.17,0,0,1,.18-.1.17.17,0,0,1,.16.21.17.17,0,0,1-.25.09A.18.18,0,0,1,23.52,59.42Z"/><polygon class="cls-21" points="23.75 59.55 23.78 59.43 23.68 59.36 23.58 59.39 23.55 59.48 23.62 59.56 23.75 59.55"/><polygon class="cls-82" points="23.75 59.55 23.78 59.44 23.68 59.36 23.58 59.39 23.55 59.48 23.62 59.57 23.75 59.55"/><path class="cls-19" d="M23.49,63a.16.16,0,0,1,.18-.11.17.17,0,0,1,.16.21.18.18,0,0,1-.25.09A.16.16,0,0,1,23.49,63Z"/><path class="cls-83" d="M23.49,63a.17.17,0,0,1,.18-.11.17.17,0,0,1,.16.21.18.18,0,0,1-.34-.1Z"/><polygon class="cls-21" points="23.71 63.13 23.75 63.01 23.65 62.94 23.55 62.97 23.52 63.06 23.59 63.14 23.71 63.13"/><polygon class="cls-84" points="23.72 63.13 23.75 63.02 23.66 62.94 23.55 62.97 23.52 63.06 23.59 63.14 23.72 63.13"/></svg>