<svg id="Layer_1" data-name="Layer 1" xmlns="http://www.w3.org/2000/svg" viewBox="0 0 100 100"><defs><style>.cls-1{opacity:0.5;}.cls-2{fill:#fff200;stroke:#494949;stroke-miterlimit:10;}.cls-3{fill:#a6c914;}.cls-4{fill:#f4882f;}.cls-5{fill:#c7672b;}.cls-6{fill:#e5872f;}.cls-7{fill:#f1e5bb;}.cls-8{fill:#ed944a;}.cls-9{fill:#ecd6ad;}.cls-10{fill:#cc5831;}.cls-11{fill:#951607;}.cls-12{fill:#e6e7e8;}.cls-13{fill:#1d4a23;}.cls-14{fill:#64a02a;}.cls-15{fill:#8bb93c;}.cls-16{fill:#bace5f;}.cls-17{fill:#e2ef95;}.cls-18{fill:#f1b416;}.cls-19{fill:#fae452;}.cls-20{fill:#e5a518;}.cls-21{fill:#f9d136;}.cls-22{fill:#ed7272;}.cls-23{fill:#f4a4a4;}.cls-24{fill:#d61f16;}.cls-25{fill:#a51f13;}.cls-26{fill:#f42121;}.cls-27{fill:#b81f21;}.cls-28{fill:#c5f37c;}.cls-29{fill:#4a9e00;}.cls-30{fill:#98d54f;}.cls-31{fill:#bae34c;}.cls-32{fill:#4db034;}.cls-33{fill:#6dbf31;}.cls-34{fill:#adda2b;}.cls-35{fill:#d6f781;}.cls-36{fill:#f1b4b8;}.cls-37{fill:#9d639f;}.cls-38{fill:#fff;}.cls-39{fill:#f5b1f8;}.cls-40{fill:#b76eb7;}.cls-41{fill:#f79afc;}.cls-42{fill:#d27cd0;}.cls-43{fill:#b26eb2;}.cls-44{fill:#e990e9;}.cls-45{fill:#ed797d;}.cls-46{fill:#7a2b2b;}.cls-47{fill:#edadd4;}.cls-48{fill:#993444;}.cls-49{fill:#a23546;}.cls-50{fill:#d45382;}</style></defs><ellipse class="cls-1" cx="50.45" cy="52.31" rx="42.3" ry="40.94"/><ellipse class="cls-2" cx="49.55" cy="48.69" rx="42.3" ry="40.94"/><ellipse class="cls-3" cx="49.55" cy="48.69" rx="36.57" ry="35.39"/><path class="cls-4" d="M20.62,54a3.33,3.33,0,0,1,1.76-.66c1.27-.18,27-4.68,27-4.68a21.32,21.32,0,0,1,5.82.14c2.34.54,17.18,4.31,17.18,4.31s5.54,1.37,5.92,1.54,1.12.63-.18,1.09l-30.6,5.14a27,27,0,0,1-4.13.17C42,61,21.12,54.5,20.62,54Z"/><path class="cls-5" d="M44.42,61.09A23.88,23.88,0,0,0,48,60.81c1.5-.27,30-4.93,30-4.93s.92-.28.92-.73v4.41s-.09.43-1.23.67-31.16,4.91-31.16,4.91-1.6.08-2.05,0Z"/><path class="cls-6" d="M20.65,54s.66.22,1.67.63c2.12.84,19.24,6,19.71,6.08a8.41,8.41,0,0,0,2.39.33l0,4.11a22,22,0,0,1-3-.21c-.86-.2-20.32-6.31-20.32-6.31s-.57-.28-.57-.64S20.65,54,20.65,54Z"/><path class="cls-7" d="M22,54.1a3.18,3.18,0,0,1,1.68-.6c1.21-.17,25.78-4.28,25.78-4.28a20.75,20.75,0,0,1,5.55.12c2.24.51,16.38,3.95,16.38,3.95s5.28,1.25,5.64,1.42,1.07.58-.18,1L47.65,60.4a26.27,26.27,0,0,1-3.94.16C42.37,60.44,22.45,54.54,22,54.1Z"/><path class="cls-8" d="M41.63,60.66a10.81,10.81,0,0,0,2.79.43c1.14-.05,2.29-.11,2.75-.16V65a11.2,11.2,0,0,1-2.73.18A16.7,16.7,0,0,1,41.65,65Z"/><path class="cls-9" d="M55,49.34c-.07,0,16.39,3.95,16.39,3.95s5.28,1.25,5.64,1.42,1.07.58-.18,1L47.65,60.4S64.57,54.19,55,49.34Z"/><path class="cls-10" d="M74.29,52.42c-.08,2.15-4.66,3.73-10.21,3.54s-10-2.11-9.92-4.26,4.65-3.72,10.2-3.52S74.38,50.28,74.29,52.42Z"/><path class="cls-11" d="M64.08,55.94c-5.56-.2-10-2.1-9.92-4.25l0,.92c-.08,2.15,4.35,4,9.91,4.25s10.13-1.37,10.2-3.53l0-.92C74.21,54.57,69.63,56.15,64.08,55.94Z"/><path class="cls-12" d="M59.8,51.36c-.12.32-.59.15-1.37-.07a1.23,1.23,0,0,1-1-1.29c.11-.32.58-.08,1.37.15S59.92,51.05,59.8,51.36Z"/><path class="cls-12" d="M66.22,49.72c0,.34-.11.76-.89.58s-2-.35-2-.69.42-.78,1.22-.75S66.23,49.38,66.22,49.72Z"/><path class="cls-12" d="M67,52.75c0,.24-1.16.59-1.65.53-.76-.09-1.33-.43-1.28-.74s.7-.51,1.46-.42S67.06,52.44,67,52.75Z"/><path class="cls-12" d="M72.29,51c0,.22-.7.54-1.64.5s-1.79-.4-1.77-.63.78-.38,1.72-.34S72.31,50.77,72.29,51Z"/><path class="cls-12" d="M68.2,51.12a.6.6,0,0,1-.64.58c-.46,0-1.15-.32-1.15-.54s.45-.11.85-.35S68.2,50.91,68.2,51.12Z"/><path class="cls-12" d="M57.57,53.5c0,.25.51.65,1.18.68s1.47-.51,1.48-.76-.78-.32-1.43-.34S57.57,53.24,57.57,53.5Z"/><path class="cls-12" d="M61.57,51.26c0,.25.53.23,1.19.25s1.33.05,1.34-.21a.89.89,0,0,0-.91-.82C62.53,50.45,61.59,51,61.57,51.26Z"/><path class="cls-12" d="M68.73,49.75c0,.24-.41.41-.91.4s-.89-.23-.89-.47.42-.41.92-.4S68.73,49.51,68.73,49.75Z"/><path class="cls-12" d="M73.37,52.18c0,.24-.41.42-.91.41s-.89-.23-.89-.47.63-.56,1.13-.53A.6.6,0,0,1,73.37,52.18Z"/><path class="cls-12" d="M57.7,52.4c0,.3-.57.33-1.26.3S55,52.12,55,51.82s.77-.23,1.46-.22S57.72,52.09,57.7,52.4Z"/><path class="cls-12" d="M62.24,49.18c.14.34-.14.76-.65.92s-1.05,0-1.19-.31.14-.76.65-.93S62.1,48.83,62.24,49.18Z"/><path class="cls-10" d="M40.05,51.05c-.07,1.73-3.76,3-8.23,2.84s-8.06-1.69-8-3.44,3.75-3,8.23-2.84S40.11,49.32,40.05,51.05Z"/><path class="cls-11" d="M31.82,53.9c-4.48-.17-8.06-1.69-8-3.43l0,.74c-.06,1.73,3.51,3.27,8,3.42S40,53.52,40,51.79l0-.74C40,52.79,36.29,54.05,31.82,53.9Z"/><path class="cls-12" d="M28.37,50.2c-.1.25-.47.13-1.11-.06a1,1,0,0,1-.77-1c.09-.25.47-.06,1.11.13S28.46,50,28.37,50.2Z"/><path class="cls-12" d="M33.54,48.88c0,.27-.08.6-.71.46s-1.63-.27-1.63-.55.33-.63,1-.61S33.56,48.6,33.54,48.88Z"/><path class="cls-12" d="M34.18,51.31c0,.2-.94.48-1.33.43-.61-.07-1.07-.34-1-.6s.56-.41,1.17-.33S34.22,51.06,34.18,51.31Z"/><path class="cls-12" d="M38.44,49.9c0,.18-.56.44-1.33.4s-1.43-.33-1.43-.5.63-.31,1.4-.28S38.44,49.72,38.44,49.9Z"/><path class="cls-12" d="M35.13,50a.48.48,0,0,1-.51.47c-.36,0-.92-.27-.92-.43s.35-.09.68-.29S35.15,49.82,35.13,50Z"/><path class="cls-12" d="M29.8,50.11c0,.21.42.19.95.21s1.08,0,1.08-.17a.73.73,0,0,0-.73-.67C30.57,49.47,29.81,49.91,29.8,50.11Z"/><path class="cls-12" d="M38.21,51.94c0,.27-.56.46-1.24.43s-1.21-.25-1.2-.52.34-.59,1-.56S38.22,51.68,38.21,51.94Z"/><path class="cls-12" d="M35.56,48.89c0,.19-.34.34-.74.33s-.72-.19-.72-.38.34-.34.75-.33S35.58,48.7,35.56,48.89Z"/><path class="cls-12" d="M39.31,50.86c0,.19-.34.34-.75.33s-.72-.19-.72-.38.51-.44.9-.43S39.32,50.66,39.31,50.86Z"/><path class="cls-12" d="M35.42,52.83c0,.19-.33.14-.73.12s-.72-.19-.72-.38.34-.34.75-.32A.78.78,0,0,1,35.42,52.83Z"/><path class="cls-12" d="M30.33,48.43c.12.28-.11.61-.52.75a.79.79,0,0,1-1-.25c-.12-.28.12-.61.52-.75A.77.77,0,0,1,30.33,48.43Z"/><path class="cls-10" d="M55.63,55.31c-.08,1.91-4.15,3.32-9.09,3.14s-8.89-1.86-8.83-3.78,4.15-3.32,9.09-3.14S55.71,53.41,55.63,55.31Z"/><path class="cls-11" d="M46.54,58.45c-4.94-.17-8.89-1.86-8.83-3.78l0,.82c-.08,1.9,3.87,3.61,8.83,3.78s9-1.22,9.08-3.14l0-.82C55.56,57.23,51.5,58.63,46.54,58.45Z"/><path class="cls-12" d="M42.73,54.38c-.1.28-.52.14-1.22-.06a1.08,1.08,0,0,1-.85-1.15c.11-.28.52-.07,1.23.12S42.84,54.1,42.73,54.38Z"/><path class="cls-12" d="M48.45,52.91c0,.31-.1.67-.79.52s-1.8-.31-1.8-.62.38-.69,1.09-.67S48.46,52.61,48.45,52.91Z"/><path class="cls-12" d="M50.21,54.15a.56.56,0,0,1-.58.52c-.4,0-1-.29-1-.48s.4-.1.76-.32S50.22,54,50.21,54.15Z"/><path class="cls-12" d="M44.31,54.29c0,.23.47.2,1.06.23s1.18,0,1.2-.19a.79.79,0,0,0-.81-.73C45.17,53.57,44.32,54.06,44.31,54.29Z"/><path class="cls-12" d="M50.67,52.94c0,.21-.37.38-.8.35s-.8-.2-.79-.41.38-.38.81-.36S50.69,52.73,50.67,52.94Z"/><path class="cls-12" d="M44.91,52.42c.13.31-.13.67-.59.82a.85.85,0,0,1-1-.27c-.13-.31.13-.67.59-.83A.85.85,0,0,1,44.91,52.42Z"/><path class="cls-13" d="M28.33,52.4h.06c0-.08.09-.14.13-.23a.69.69,0,0,1,1.06-.12.71.71,0,0,1,.68.06h.11a.81.81,0,0,1,.36-.1c.91,0,1.73.3,1.89,1a4.06,4.06,0,0,0,.6.27.6.6,0,0,1,.32.55V54a5.29,5.29,0,0,0,.9.16,5.58,5.58,0,0,0,1.74-.24v0a.55.55,0,0,1,.26-.47.55.55,0,0,1,.06-.81,3.79,3.79,0,0,1,.69-.43.72.72,0,0,1,.93.23.62.62,0,0,1,0,.63.61.61,0,0,1,.17.42.58.58,0,0,1,.24.45,3.46,3.46,0,0,1,.82.34c.85.51,1,1.09,2.12,1.11a11.54,11.54,0,0,1,3.14-.64,1.85,1.85,0,0,1-.72-.38,1.15,1.15,0,0,1-.78.11c-.6-.07-.61-.89-.13-1.14a3.46,3.46,0,0,1,.56-.23.41.41,0,0,1,.18,0l.42-.13a.64.64,0,0,1,.83.61,7.09,7.09,0,0,0,1.58.29.59.59,0,0,1,.46.69h0a.74.74,0,0,1,.72.51c.54,1.33,3,.7,4,.26a.88.88,0,0,1,.57-.06.73.73,0,0,0,.09-.08L52,54.74a.6.6,0,0,1,.16-1l.13-.08a.57.57,0,0,1,.2-.49h0a.65.65,0,0,1,.3-.15s0,0,0,0c.53-.63,1.69,0,1.16.63a1.42,1.42,0,0,0-.11.18.63.63,0,0,1-.34.54h0l.21.22a10.27,10.27,0,0,1,2.93,0c.61.07.85.57.64,1a2.44,2.44,0,0,0,.47-.17,1,1,0,0,1,.61-.06.7.7,0,0,1,.53,0,.6.6,0,0,1,.44-.09.79.79,0,0,1,.74-.33l.13-.09a3.47,3.47,0,0,1,3.26-2.43.71.71,0,0,1,.73.69,2.6,2.6,0,0,1,0,.56.51.51,0,0,1,.22.26.7.7,0,0,0,.08.1.78.78,0,0,1,.13.47v0a4.09,4.09,0,0,1,1.12.07c.1-.12.23-.25.35-.38A1.37,1.37,0,0,1,66.86,53a.68.68,0,0,1,.46-.06,3,3,0,0,0,.46-.58c.43-.76,1.5-.18,1.37.53h0a3.88,3.88,0,0,1,1.58-.24.94.94,0,0,1,.79.48l.13-.08a.6.6,0,0,1,.5-.08,1.76,1.76,0,0,1,.73,0,5.41,5.41,0,0,1,.55-.62,3.13,3.13,0,0,1-1-.43.64.64,0,0,1,.7-1.08,1.77,1.77,0,0,0,.77.31h0a.74.74,0,0,1,.59-.32,3.1,3.1,0,0,1,1.08.22,3.37,3.37,0,0,1,1.8-1.34,1.18,1.18,0,0,0,.77-.85l0,.07a.72.72,0,0,1-.93.22A2.08,2.08,0,0,0,75.9,49c-.86.16-1.2-1-.34-1.2a3.43,3.43,0,0,1,1.75.09,1.22,1.22,0,0,1,.73-.29c-.14-.55-.44-1.16-1-.92A.77.77,0,0,1,76,46.25c-.56-1.61-1.11-.14-1.89-.69l-.4-.29-.37.07a.75.75,0,0,1-.92-.48l0,0-.41.11a.73.73,0,0,1-.91-.85c.34-1.5-.77-.68-1.17-.51a5.16,5.16,0,0,1-.6.19,2.9,2.9,0,0,1-.39.53,1.4,1.4,0,0,1-1,1s0,0,0,0a.68.68,0,0,1-1.15-.44.87.87,0,0,1,.07-.31.7.7,0,0,1,.49-.44.56.56,0,0,1,.25-.05c.13-.06.07-.28.16-.42l0-.06a.56.56,0,0,1-.25-.39c-.34-.55-.72-.59-1.15-.1A.76.76,0,0,1,65,42.63c-.08-.45-.26-.68-.53-.69a2.29,2.29,0,0,1-2.35,1.54.7.7,0,0,1-.66-1,.78.78,0,0,1-.86-.39.73.73,0,0,1-.25,0h0a.71.71,0,0,1-.75.2l-.9-.28a.67.67,0,0,1-.53-.67v-.06a.76.76,0,0,1-.94-.28c-.18-.29-.61,0-.86.2a.57.57,0,0,1-.12.37l-.17.19c-.1.35-.15.73-.25,1.07a2.21,2.21,0,0,1-1.89,1.69c-.43.07-1-.17-.93-.67a4.66,4.66,0,0,1,1.59-2.56,1.32,1.32,0,0,0-2,.28.77.77,0,0,1-1.38-.25l-.14,0a2.33,2.33,0,0,1-.28.51.77.77,0,0,1-1.36-.17,1.43,1.43,0,0,1,0-1.22.61.61,0,0,1-.16-.16l0,0a.77.77,0,0,1-.42.12,3.75,3.75,0,0,1,0,.47.8.8,0,0,1-1.11.42s0,0-.07,0a1.81,1.81,0,0,1-1.14,1,2.31,2.31,0,0,1-2.18-.32A1.31,1.31,0,0,1,44,41a2.58,2.58,0,0,1-3.16-.05,1,1,0,0,1-.21-.19h-.15c-.19,1.38-1,2.61-2.79,2.06-.41-.13-.73-.62-.45-1a.51.51,0,0,1-.15-.07,2.32,2.32,0,0,1-2.35,1,1,1,0,0,1-.35-.11,1.23,1.23,0,0,1-1.48.8,1.52,1.52,0,0,1-1.25-.68c-.15.55-.66.94-1.56,1A1.77,1.77,0,0,1,30,44a.74.74,0,0,1,.6,0,4.69,4.69,0,0,0,1.55.43c.86.15.47,1.35-.39,1.21a7.33,7.33,0,0,1-1.5-.38,1.45,1.45,0,0,1-1.24,0,1.49,1.49,0,0,1-.69.19A2.17,2.17,0,0,1,26.79,45a.79.79,0,0,1-1.29.11,3.09,3.09,0,0,1,0,.43.8.8,0,0,1-1.14.61.86.86,0,0,1-1-.24.47.47,0,0,0-.06-.09l-.4.34a2,2,0,0,1-.14.83.86.86,0,0,1-.56.48c0,.07,0,.14-.07.22a.77.77,0,0,1-.19.29,7.21,7.21,0,0,0,1.14,0,2.64,2.64,0,0,1,1.61.54c.67.5-.32,1.38-1,.89a2,2,0,0,0-1.31-.18,5.47,5.47,0,0,0,1.2,1.5.68.68,0,0,1,.73,0,1.53,1.53,0,0,0,1,.23,7.37,7.37,0,0,0,1.2-.49c.8-.34,1.46.73.67,1.07-.42.18-.84.39-1.27.54a5.3,5.3,0,0,0,.61.19.77.77,0,0,1,1-.3"/><path class="cls-14" d="M75.83,49.12a2.15,2.15,0,0,0,1.3-.1.68.68,0,0,1,.9.29s0,0,0,.06a1.06,1.06,0,0,0-.67-.88A3.07,3.07,0,0,1,75.79,47a2.88,2.88,0,0,1-1.11.14.63.63,0,0,1-.55-.35h0a2,2,0,0,0-.81.26c-.75.43-1.31-.7-.56-1.12a3.59,3.59,0,0,1,1-.37,7.63,7.63,0,0,1-.66-1,.8.8,0,0,1-1,.14,2.94,2.94,0,0,0-.47-.31s0,.08-.07.13a.81.81,0,0,1-1.15.34,5.82,5.82,0,0,0-.83-.41,2.25,2.25,0,0,0,0,.26c0,.72-1.11,1.24-1.42.44a20.94,20.94,0,0,0-1.76-2.27,3.81,3.81,0,0,1-1.12,0v0a.91.91,0,0,1-.2.46l-.09.08a.55.55,0,0,1-.26.26,1.79,1.79,0,0,1,0,.55.76.76,0,0,1-.82.64,3.19,3.19,0,0,1-3-3,.93.93,0,0,1,0-.23c-.1-.07-.17-.15-.27-.22-.29-.28-.69-.91-.93-.33a.83.83,0,0,1-1.15.34,1.34,1.34,0,0,0-.44-.2c.15.4-.15.89-.76.92a10.25,10.25,0,0,1-2.92-.16l-.24.2h0a.61.61,0,0,1,.27.57.84.84,0,0,0,.08.19c.46.68-.78,1.21-1.24.55,0,0,0,0,0,0a.55.55,0,0,1-.28-.17h0a.54.54,0,0,1-.14-.51l-.12-.09a.59.59,0,0,1,0-1c.16-.13.33-.24.49-.36l-.08-.07a.93.93,0,0,1-.56-.1c-1-.51-3.3-1.29-4,0a.78.78,0,0,1-.78.45h0a.67.67,0,0,1-.55.66,7.2,7.2,0,0,0-1.6.18.72.72,0,0,1-.92.56L44.3,43,44.13,43a3.89,3.89,0,0,1-.54-.27.63.63,0,0,1,.29-1.14,1.14,1.14,0,0,1,.76.17,1.82,1.82,0,0,1,.77-.33,10.94,10.94,0,0,1-3-.83c-1.09,0-1.35.53-2.26,1a3.63,3.63,0,0,1-.86.29.62.62,0,0,1-.3.44.6.6,0,0,1-.22.41.6.6,0,0,1-.07.63.73.73,0,0,1-.94.16,2.64,2.64,0,0,1-.62-.48.55.55,0,0,1,0-.81.58.58,0,0,1-.2-.48s0,0,0,0a5.68,5.68,0,0,0-1.7-.36c-.3,0-.61.05-.91.1v0l0,.09a.6.6,0,0,1-.39.51c-.22.07-.41.17-.62.24-.25.74-1.11,1-2,.93a.63.63,0,0,1-.6-.51.62.62,0,0,0,0-.23.67.67,0,0,1-.62-.38,2.26,2.26,0,0,0-1.65.4c-.26.2-.48.12-.78.13a5.77,5.77,0,0,0-1.19.22c.42.18.8.42,1.19.62.74.39-.05,1.42-.8,1a6.2,6.2,0,0,0-1.12-.57,1.59,1.59,0,0,0-1,.17.7.7,0,0,1-.72-.1,5.94,5.94,0,0,0-1.38,1.41,2.22,2.22,0,0,0,1.33-.09c.73-.44,1.59.49.86,1a2.77,2.77,0,0,1-1.67.43,8.77,8.77,0,0,0-1.14-.05.71.71,0,0,1,.15.3,1.66,1.66,0,0,1,0,.22.74.74,0,0,1,.49.51,1.84,1.84,0,0,1,0,.84l.37.36a.2.2,0,0,1,.06-.07.88.88,0,0,1,1.06-.18.74.74,0,0,1,1.05.67,2.18,2.18,0,0,1-.05.43.78.78,0,0,1,1.27.19,2.19,2.19,0,0,1,1.6-.43,1.33,1.33,0,0,1,.67.22,1.51,1.51,0,0,1,1.22.11,8,8,0,0,1,1.55-.3c.86-.08,1.1,1.14.24,1.23a5,5,0,0,0-1.59.33.7.7,0,0,1-.6,0,2.79,2.79,0,0,0,0,.32c.9.11,1.35.53,1.43,1.09a1.61,1.61,0,0,1,1.33-.61c.86,0,1.25.34,1.37.9a.71.71,0,0,1,.36-.08,2.15,2.15,0,0,1,2.22,1.11.58.58,0,0,1,.17-.06c-.25-.39.16-.87.57-1,1.9-.43,2.51.84,2.52,2.23l.16,0a.84.84,0,0,1,.23-.18c1.32-.68,2.51-.54,3.16.15a1.39,1.39,0,0,1,.48-.92,2.36,2.36,0,0,1,2.2-.19,1.7,1.7,0,0,1,1,1s0,0,.07,0a.75.75,0,0,1,1,.5,3.53,3.53,0,0,1,0,.46,1,1,0,0,1,.41.15l0,0a.67.67,0,0,1,.18-.16,1.52,1.52,0,0,1,.15-1.22A.79.79,0,0,1,50,54.5a1.89,1.89,0,0,1,.21.52l.14,0a.78.78,0,0,1,1.41-.16,1.28,1.28,0,0,0,1.9.4,4.31,4.31,0,0,1-1.25-2.65c0-.49.6-.69,1-.61a2.06,2.06,0,0,1,1.67,1.81c0,.35,0,.73.11,1.08a1.37,1.37,0,0,1,.15.21.42.42,0,0,1,.06.36c.21.25.62.53.82.25a.82.82,0,0,1,1-.21v-.06c0-.32.32-.56.63-.63l.92-.22a.71.71,0,0,1,.72.25h0a.06.06,0,0,1,0,0,.74.74,0,0,1,.25.05.83.83,0,0,1,.91-.33.75.75,0,0,1,.79-.94c1.22.16,2,.69,2.12,1.68.29,0,.5-.21.63-.65a.79.79,0,0,1,1.33-.41c.36.51.74.49,1.16,0a.63.63,0,0,1,.3-.38l0-.06c-.08-.16,0-.36-.11-.43a.55.55,0,0,1-.24-.07.59.59,0,0,1-.43-.46.78.78,0,0,1,0-.31.71.71,0,0,1,1.2-.36l0,0a1.27,1.27,0,0,1,.8.83.66.66,0,0,1,.15,0,11.56,11.56,0,0,1,2.34-.39,1.67,1.67,0,0,1,.46.14.63.63,0,0,1,.26.05l.39.14s0,0,0,0a.8.8,0,0,1,1-.41l.36.1.43-.27c.41-.24.69,0,1,.1l.1-.07a.86.86,0,0,1,.64-.15,3.39,3.39,0,0,0,.26-.45.82.82,0,0,1,1.15-.34c.51.28.88-.32,1.11-.85a1.12,1.12,0,0,1-.69-.35,3.58,3.58,0,0,1-1.75,0C74.51,50.08,75,48.9,75.83,49.12Z"/><path class="cls-15" d="M73.4,47.43A2.81,2.81,0,0,1,72,46.15a2.78,2.78,0,0,1-1,.13.64.64,0,0,1-.5-.31h0a1.8,1.8,0,0,0-.72.24c-.66.38-1.17-.62-.51-1a2.78,2.78,0,0,1,.93-.32,6.7,6.7,0,0,1-.6-.87.7.7,0,0,1-.89.12,2.57,2.57,0,0,0-.41-.26l-.06.11a.7.7,0,0,1-1,.3,7.36,7.36,0,0,0-.75-.36,1.92,1.92,0,0,0,0,.24c0,.64-1,1.09-1.26.39a18.24,18.24,0,0,0-1.58-2,3,3,0,0,1-1,0v0a.82.82,0,0,1-.17.41l-.08.07a.49.49,0,0,1-.22.23,1.7,1.7,0,0,1,0,.49.68.68,0,0,1-.73.57,2.85,2.85,0,0,1-2.66-2.6.68.68,0,0,1,0-.2l-.24-.2c-.27-.24-.63-.8-.83-.28a.72.72,0,0,1-1,.3,1.75,1.75,0,0,0-.39-.19.64.64,0,0,1-.67.82A9.37,9.37,0,0,1,53,41.89l-.21.17h0a.55.55,0,0,1,.25.51c0,.06,0,.13.07.16.4.6-.7,1.09-1.1.5,0,0,0,0,0,0a.69.69,0,0,1-.24-.15l0,0a.49.49,0,0,1-.13-.44l-.1-.07a.55.55,0,0,1,0-.89l.42-.31-.08-.08a.88.88,0,0,1-.5-.07c-.87-.45-2.93-1.13-3.56,0a.71.71,0,0,1-.69.42H47a.58.58,0,0,1-.48.58,6.13,6.13,0,0,0-1.42.17.63.63,0,0,1-.81.51l-.37-.13a.32.32,0,0,1-.15-.06,2.93,2.93,0,0,1-.47-.23.56.56,0,0,1,.25-1,1,1,0,0,1,.67.14,1.84,1.84,0,0,1,.68-.29,9.71,9.71,0,0,1-2.71-.73c-1,0-1.19.48-2,.88a2.46,2.46,0,0,1-.75.25.56.56,0,0,1-.26.39.57.57,0,0,1-.2.37.56.56,0,0,1-.05.57.65.65,0,0,1-.83.15,2.11,2.11,0,0,1-.56-.42.48.48,0,0,1,0-.72.51.51,0,0,1-.18-.42v0a5.42,5.42,0,0,0-1.5-.31,7.17,7.17,0,0,0-.81.11h0v.07a.56.56,0,0,1-.34.46c-.2.06-.38.14-.56.21-.22.65-1,.87-1.77.82a.57.57,0,0,1-.54-.44.48.48,0,0,0,0-.2.62.62,0,0,1-.56-.34,2,2,0,0,0-1.45.35c-.23.18-.43.12-.69.13a3.82,3.82,0,0,0-1,.2c.36.15.72.37,1.06.54.66.36,0,1.26-.71.92a5.45,5.45,0,0,0-1-.49,1.43,1.43,0,0,0-.93.15.6.6,0,0,1-.64-.09,5.36,5.36,0,0,0-1.21,1.27,2,2,0,0,0,1.17-.09c.64-.41,1.42.43.77.83a2.43,2.43,0,0,1-1.47.39,8.78,8.78,0,0,0-1,0,.81.81,0,0,1,.15.27,1.23,1.23,0,0,1,0,.19.72.72,0,0,1,.45.45,1.72,1.72,0,0,1,0,.75l.33.33s0,0,.05-.08a.78.78,0,0,1,.93-.16.66.66,0,0,1,.94.59,1.65,1.65,0,0,1-.05.38.68.68,0,0,1,1.12.16,2.07,2.07,0,0,1,1.42-.39,1.3,1.3,0,0,1,.6.2,1.39,1.39,0,0,1,1.09.08,6.39,6.39,0,0,1,1.37-.27c.77-.09,1,1,.21,1.09a4.29,4.29,0,0,0-1.41.3.55.55,0,0,1-.53,0,2.36,2.36,0,0,0,0,.28c.79.08,1.2.46,1.27,1a1.47,1.47,0,0,1,1.18-.55c.77-.05,1.12.31,1.21.79a1.07,1.07,0,0,1,.33-.08,2,2,0,0,1,2,1l.14-.05c-.22-.35.13-.77.5-.86,1.68-.39,2.23.75,2.24,2l.14,0a.87.87,0,0,1,.21-.17,2.27,2.27,0,0,1,2.8.12,1.31,1.31,0,0,1,.42-.82,2.08,2.08,0,0,1,2-.18,1.48,1.48,0,0,1,.91.92l.07,0c.36-.17.91,0,.93.43a1.47,1.47,0,0,1,0,.42.65.65,0,0,1,.36.14s0,0,0,0a.91.91,0,0,1,.16-.13,1.32,1.32,0,0,1,.12-1.09A.7.7,0,0,1,49,52.86a2.37,2.37,0,0,1,.2.47.22.22,0,0,1,.13,0,.69.69,0,0,1,1.25-.15,1.13,1.13,0,0,0,1.69.34,4,4,0,0,1-1.13-2.35c0-.44.52-.62.9-.54a1.82,1.82,0,0,1,1.49,1.59c0,.31,0,.64.1,1l.13.17a.5.5,0,0,1,.07.33c.19.22.54.47.73.22a.71.71,0,0,1,.86-.21v0a.67.67,0,0,1,.54-.56l.83-.21a.59.59,0,0,1,.63.23h0a.62.62,0,0,1,.23,0,.74.74,0,0,1,.8-.3.66.66,0,0,1,.69-.84c1.1.13,1.75.6,1.91,1.48.25,0,.43-.19.55-.59a.69.69,0,0,1,1.17-.37c.33.44.66.44,1,0a.61.61,0,0,1,.26-.34s0,0,0,0,0-.31-.09-.38a.42.42,0,0,1-.22,0,.58.58,0,0,1-.4-.4.82.82,0,0,1,0-.27.62.62,0,0,1,1.05-.32l0,0a1.16,1.16,0,0,1,.77.94,1.9,1.9,0,0,1,.3.49,3.13,3.13,0,0,1,.51.19c.34.16,1.24.94,1.09-.39a.68.68,0,0,1,.89-.71l.35.11,0,0a.71.71,0,0,1,.86-.37,1.61,1.61,0,0,0,.32.08l.38-.22c.76-.44,1.08.89,1.75-.51a.72.72,0,0,1,1-.3c.45.24.78-.29,1-.77a1.1,1.1,0,0,1-.61-.3,3.26,3.26,0,0,1-1.55,0c-.74-.18-.31-1.23.43-1a2,2,0,0,0,1.15-.1c.28-.1.68-.05.79.25a.21.21,0,0,1,0,.06C74,47.89,73.8,47.64,73.4,47.43Z"/><path class="cls-16" d="M38.74,49.71a.86.86,0,0,1,.28.11,1.5,1.5,0,0,0,.64-.63c.4-.93,2.06-.58,1.64.38a3.21,3.21,0,0,1-.9,1.22,1.31,1.31,0,0,1,.67.62,1.17,1.17,0,0,1,1.27,0,.85.85,0,0,1,.79,0l.2.11a2.12,2.12,0,0,0,.42-.32,1.29,1.29,0,0,1,1.53,0c.31.19.44.72.65.81a2.7,2.7,0,0,1,1.3-1.44,1.86,1.86,0,0,1,.88-.23,1.86,1.86,0,0,1,1.35-.73,8.7,8.7,0,0,1,1.38-1.33c.84-.68,2,.41,1.22,1.08a5.9,5.9,0,0,0-1.37,1.36,3.13,3.13,0,0,0,1.56.43,1,1,0,0,1,.45-.32l.19-.06a2.51,2.51,0,0,1,.69-.69,1.58,1.58,0,0,1,1.88-.22.73.73,0,0,1,.39,0l.18-.15a3,3,0,0,1,3.2-.38,1.09,1.09,0,0,1,.13-.17.83.83,0,0,1-.17-1.35A2.34,2.34,0,0,1,62,47.12a3.1,3.1,0,0,1,0-1.68c.14-.56.38-1.11.51-1.66s-.17-.41-.86-.33h0l-.19.18a.94.94,0,0,1-1,.11,5.52,5.52,0,0,1-2.51,1.63.79.79,0,0,1-.82-1.3,5.33,5.33,0,0,1,1-.67c.17-.1.53-.28.74-.38l0,0c-.09,0-.23.1-.42.19a.86.86,0,0,1-1.28-.65h0A.83.83,0,0,1,56,41.81,2,2,0,0,1,57,40c0-.08-.09-.15-.15-.23a.57.57,0,0,1-.11-.33.84.84,0,0,1-.78-.11s0,.1-.07.14a.87.87,0,0,1-1.4.1.92.92,0,0,1-1.18-.3h-.12a1.75,1.75,0,0,1-1.09.21,3.61,3.61,0,0,1-.43,1,.94.94,0,0,1-.59.38s0,.05,0,.08a.9.9,0,0,1-1.57.21c-.1-.19-.19-.39-.27-.58l0,0a.65.65,0,0,1-.49-.35,2.71,2.71,0,0,0-.22-.38,1,1,0,0,1-.38,0,.81.81,0,0,1-.67.4.66.66,0,0,1-.37.49,2.77,2.77,0,0,1-1.39,1.45.89.89,0,0,1-1-.1.85.85,0,0,0-.22-.2,1,1,0,0,1-.95,0,4,4,0,0,0-.9.64.94.94,0,0,1,.12.22,1,1,0,0,0,.08.24s0,0,0,0a.73.73,0,0,1,.29.58v.37a.85.85,0,0,1-.77.79,1,1,0,0,1-.07.15c.93.07.86,1.48-.18,1.58a8.05,8.05,0,0,0-1.62.19,1.83,1.83,0,0,0-1,.87.81.81,0,0,1-.82.38,4.41,4.41,0,0,0-.25,1C38.56,49.13,38.63,49.42,38.74,49.71Z"/><path class="cls-17" d="M55.88,50.23c-.38.09-.52-.23-.92,0-.2.1-.66-.19-.92-.14a4.36,4.36,0,0,0-1.27.77,2.85,2.85,0,0,1-2.11.16c.17-.6,1.08-1.07,1.5-1.56a.61.61,0,0,0,0-.91,1.64,1.64,0,0,0-2.28.43c-.07.15.19.22.26.07.34-.84,2.55-.67,1.68.39-.5.58-1.37.89-1.48,1.67a.13.13,0,0,0,.12.14,5.83,5.83,0,0,0,1.62.15,3.23,3.23,0,0,0,1.37-.69,1.15,1.15,0,0,1,1-.33c.17,0,.34.1.51.11s.37-.09.57,0a.61.61,0,0,0,.42,0A.12.12,0,1,0,55.88,50.23Z"/><path class="cls-17" d="M37.9,42.67a5.71,5.71,0,0,0-.72,0c.13-.23.33-.47.25-.71-.16-.43-.77-.45-1.18-.48a.13.13,0,0,0,0,.26c.25,0,1,0,.94.4-.06.22-.25.4-.33.61a.13.13,0,0,0,.12.16c.31,0,.61,0,.91,0A.13.13,0,1,0,37.9,42.67Z"/><path class="cls-17" d="M43.32,42.38a.51.51,0,0,1-.17-.07.93.93,0,0,0,.16-.44.12.12,0,0,0-.16-.12h-.1a.83.83,0,0,0,0-.6c-.13-.26-.43-.26-.7-.2a.13.13,0,1,0,.05.25c.18-.05.38-.08.42.13a1.06,1.06,0,0,1-.11.49c0,.08,0,.18.12.17H43a.72.72,0,0,1-.18.33.12.12,0,0,0,.06.19c.12,0,.21.08.33.11S43.49,42.42,43.32,42.38Z"/><path class="cls-17" d="M53.41,42.33a1.4,1.4,0,0,0-.51-.1.12.12,0,0,0-.14.12c-.22.07-.38,0-.57.27s-.8.51-1,.89a3.08,3.08,0,0,0-.16.38c0,.2-.19.28-.47.25,0-.08-.05-.18-.08-.27a.54.54,0,0,0-.48-.46,5,5,0,0,1-1.08-.81.5.5,0,0,0-.48-.26c-.4,0-1.28,1.09-1.36,1.31H47a.13.13,0,0,0-.06.23h0a.12.12,0,0,0,.15,0h0a.12.12,0,0,0,.1-.08,5.24,5.24,0,0,0,.59-.65,4.78,4.78,0,0,1,.43-.48c.43-.36.44.13.53.24s.56.26.8.51a.73.73,0,0,0,.35.21c.34.14.33.36.42.61s.67.3.86,0A2.22,2.22,0,0,1,52,43.15a2.3,2.3,0,0,0,.38-.32c.14-.17.43-.21.65-.31,0,0,0,0,0,0a2.44,2.44,0,0,1,.26.06C53.48,42.62,53.57,42.38,53.41,42.33Z"/><path class="cls-17" d="M68.6,45.24a.11.11,0,0,0-.09-.19h-.13c-.09,0-.18.1-.13.18.2.33.63.45.85.77.34.49-.69.44-.88.43a1.13,1.13,0,0,1-1-.7,1.94,1.94,0,0,0-1-.93c-.26-.12-.83-.37-1.13-.14s-.27.59-.2,1c.1.6-.41.77-1,.67a.44.44,0,0,0-.37.09,2.4,2.4,0,0,0-.47.51,1.66,1.66,0,0,1,.19-.51c.06-.19.06-.41-.13-.51s-.3.13-.16.2-.22.7-.14.92.47.09.6,0,.3-.47.73-.37a1.09,1.09,0,0,0,.67-.08c.51-.2.34-.87.3-1.23-.09-.71.67-.39.89-.31a3.6,3.6,0,0,1,.55.29c.4.27.4.69.7,1a1.92,1.92,0,0,0,1.38.44.73.73,0,0,0,.79-.54C69.49,45.72,68.9,45.51,68.6,45.24Z"/><path class="cls-17" d="M49.77,48.43l-.22-.2c0-.07,0-.12-.11-.14a3.68,3.68,0,0,0-1.65,0,.6.6,0,0,0-.41.31c-.07.13-.26.62-.42.46a.35.35,0,0,0-.2-.14c-.41-.14-.71,0-.81-.53a.59.59,0,0,0-.22-.43c-.43-.28-.9.19-1.14.48-.12.12.1.26.22.14a1.37,1.37,0,0,1,.47-.39c.37-.23.44.4.47.54a.47.47,0,0,0,.19.29,1.23,1.23,0,0,0,.5.12c.22,0,.28.18.45.24s.53-.21.6-.37c.33-.67,1.14-.55,1.8-.46,0,.19.17.28.39.34S49.94,48.49,49.77,48.43Z"/><path class="cls-17" d="M37.86,45.73c-.16-.12-.24-.3-.38-.42a.15.15,0,0,0-.13,0l-.05,0c-.17,0,0,.27.11.22,0,0,0,.13.12.22l-.58.09a.13.13,0,0,0-.11.15,3.92,3.92,0,0,1,0,.84c0,.2-.52.18-.8.15.05-.44-.92-.07-1.35.13,0-.25,0-.49-.28-.58a1.45,1.45,0,0,0-.55,0c-.46.08-.6-.15-.64-.53-.07-.74-1-.62-1,.1,0,.17.27.18.27,0l.47-.18a1.6,1.6,0,0,1,0,.23,1,1,0,0,0,.05.3.75.75,0,0,0,.27.34.66.66,0,0,0,.5,0c.52-.14.63.13.64.53,0,.08.12.13.19.09a5.4,5.4,0,0,1,.49-.23c.11,0,.69-.25.64-.15s0,.15.11.17A1.66,1.66,0,0,0,37,47.11c.24-.16.15-.71.11-1a5.73,5.73,0,0,0,.7-.13A.13.13,0,0,0,37.86,45.73Z"/><path class="cls-17" d="M31.14,45a1.1,1.1,0,0,0-.58-.35c.73-1-1-1.85-1.31-.76-.64-.05-1.8,0-1.59.82,0,.15.32.1.26-.05-.15-.62,1-.56,1.41-.51a.12.12,0,0,0,.14-.11c.17-.87,1.5-.23.75.61a.12.12,0,0,0,.06.19,1,1,0,0,1,.65.31C31,45.28,31.25,45.12,31.14,45Z"/><path class="cls-17" d="M57.18,47.34c-.4-.36-1.06-.19-1.28-.82-.13-.41.32-1.13-.17-1.43-.19-.13-.41,0-.61,0-.42.18-.36.48-1,.51-.3,0-.58,0-.89,0-.08,0-.14.12-.11.18a.57.57,0,0,1,.08.13c-.34,0-.83,0-.94.25-.18.47,1,.81,1.26,1s.3-.12.15-.2a1.11,1.11,0,0,0-.32-.18c-.13-.05-1-.47-.67-.53s.54,0,.8-.05a.12.12,0,0,0,.08-.2.46.46,0,0,1-.07-.1,4,4,0,0,0,1,0c.35-.09.51-.44.87-.56s.17,1.09.19,1.28c.06.48.64.7,1.07.8.74.18-.29.55-.5.6a2,2,0,0,1-.81.15c-.17,0-.19.21,0,.25a2.76,2.76,0,0,0,1.79-.57A.32.32,0,0,0,57.18,47.34Z"/><path class="cls-17" d="M65.64,49.94c-.36-.21-.62,0-1-.08a.15.15,0,0,0-.16,0,2,2,0,0,1-.74.53c0-.18,0-.36,0-.54a.14.14,0,0,0-.12-.14,1.24,1.24,0,0,0-.65.08.38.38,0,0,0,.1-.12.2.2,0,0,0-.1-.24c-.16-.11-.6-.24-.52-.49s.74-.29,1.18-.2a.15.15,0,0,0,.1,0H64a.13.13,0,1,0,0-.25c-.42,0-1.83-.38-1.83.43a.54.54,0,0,0,.28.45,2.69,2.69,0,0,0,.32.19s-.09.13-.09.14a.12.12,0,0,0,.09.12,5.67,5.67,0,0,0,.72.09,4.93,4.93,0,0,0,0,.66c0,.09.12.12.2.09a3.23,3.23,0,0,0,.92-.57,2,2,0,0,1,.94,0C65.63,50.23,65.8,50,65.64,49.94Z"/><path class="cls-17" d="M73.66,47.51c.07-.75-1.67-1.21-1.67-.58a.14.14,0,0,0,.28,0c0-.11,1.3.06,1.13.6,0,.06,0,.13.08.17.09.34,0,.49-.22.44h-.17a1.74,1.74,0,0,0-.46.13c-.36.12-.69.19-1-.12a1.32,1.32,0,0,1-.19-.29,1,1,0,0,0,.22-.12c.14-.1,0-.29-.17-.19a.27.27,0,0,1-.25.07.13.13,0,0,0-.13.18c.16.28.34.68.69.79s.88-.11,1.35-.2c.31-.06.65.09.8-.29A.53.53,0,0,0,73.66,47.51Z"/><path class="cls-17" d="M53.49,55.24c-.76.46-1.69-.28-2.25-.67a.61.61,0,0,0-.45-.1c-.13,0-.4.38-.55.26a1.07,1.07,0,0,0-1.17-.29,1.39,1.39,0,0,0-.83,1.31c0,.17.26.18.27,0a1.24,1.24,0,0,1,.68-1.1c.47-.25.72.18,1,.35s.6-.44,1-.16c.65.45,1.63,1.08,2.46.57C53.8,55.32,53.63,55.15,53.49,55.24Z"/><path class="cls-18" d="M21.23,48.57c-4,1.1,2.59-6.8,14.31-7.44,21.07-1.15,23.87-6.06,23.94-2,0,2.93,7.87,2.82,17.28,9.63C84,54,60.3,44.32,49.4,54.53,43.15,60.39,42.23,42.86,21.23,48.57Z"/><path class="cls-19" d="M22.24,47.73c-1.66.36-1.53-.57,0-2-2.36,1.83-2.89,3.37-1,2.84,21-5.73,21.92,11.82,28.15,6,.13-.11.26-.22.38-.34C43.33,59.39,42.72,43.24,22.24,47.73Z"/><path class="cls-19" d="M50.39,53.7l0,0c10.55-8.28,30.64-.89,27.38-4.1C74.66,50.29,57.15,46.5,50.39,53.7Z"/><path class="cls-20" d="M38.63,45.51c-2.32.74,4.59.75,5.89,4.84.46,1.43,8.57-4.7,12-4.73C62.89,45.57,51.33,41.46,38.63,45.51Z"/><path class="cls-21" d="M23.72,45.12c1.87-1.18,6.9-3.26,7.49-2.72.31.29-4.33,1.58-4.4,1.83s.24.42.8.37,2.33-.54,1.93-.2-4.19,1.65,1.92,1.68c.64.4-4.23.12-6.35.64s.32-.33,1-.78-2.28.68-2.94.73.52-.52,1.33-.89,0-.47-.86-.2S22.84,45.68,23.72,45.12Z"/><path class="cls-21" d="M44.31,41c5.23-.57,12.45-2.75,13.81-3,1-.18-.25.45-1.37.74-5.76,1.49-.1.58.8.7C58.09,39.53,52.64,40.84,44.31,41Z"/><path class="cls-20" d="M76.41,49.26a51.9,51.9,0,0,0-8.85-5.07s5.28,3,6.17,4.6C74,49.26,76.41,49.26,76.41,49.26Z"/><path class="cls-22" d="M57.75,46.37c0,.88.94,1.46,1.53,1.79A7.87,7.87,0,0,0,61.6,49a23,23,0,0,0,4.82.48c4.79,0,8.66-1.37,8.66-3.08S71.54,43,66.75,43a7.09,7.09,0,0,0-2.22.28c-.17.06-.2.15-.19.24h0c0,.2.38.43.17.46a1.41,1.41,0,0,1-.29,0,7.64,7.64,0,0,0-1.76-.21C59.72,43.85,57.75,45.2,57.75,46.37Z"/><path class="cls-23" d="M64.5,43.78h-.06c-.09-.12-.18-.24-.09-.35C64.44,43.6,64.66,43.77,64.5,43.78Z"/><path class="cls-23" d="M59.28,47.93a8.77,8.77,0,0,0,2.32.81,23,23,0,0,0,4.82.48c4.69,0,8.49-1.33,8.65-3,0,0,0,.08,0,.12,0,1.7-3.87,3.07-8.66,3.07A22.39,22.39,0,0,1,61.6,49a8.19,8.19,0,0,1-2.32-.8c-.59-.33-1.53-.91-1.53-1.79a.25.25,0,0,1,0-.12C57.83,47.07,58.72,47.61,59.28,47.93Z"/><path class="cls-24" d="M59.28,48.16a8.09,8.09,0,0,0,2.32.8,22.39,22.39,0,0,0,4.82.48c4.79,0,8.66-1.37,8.66-3.07v1.31c0,1.7-3.87,3.08-8.66,3.08a23,23,0,0,1-4.82-.48,8.51,8.51,0,0,1-2.32-.8c-.59-.33-1.53-.91-1.53-1.79V46.38C57.75,47.25,58.69,47.82,59.28,48.16Z"/><path class="cls-25" d="M73.22,46.87c.19-.49.39-.77-.11-1.22a5.93,5.93,0,0,0-1.74-1c-.59-.24-1.57-.53-2-.66a11.37,11.37,0,0,0-2.52-.3c-.34,0-.85,0-1.29,0a8.51,8.51,0,0,1,1.83-.1,10.88,10.88,0,0,1,2.51.31,18.4,18.4,0,0,1,2,.65,5.64,5.64,0,0,1,1.75,1c.49.47.28.73.1,1.22s-.71.62-1.5.84a2.73,2.73,0,0,1-.35,0C72.58,47.46,73,47.32,73.22,46.87Z"/><path class="cls-25" d="M59.66,45.24a6.13,6.13,0,0,1,1.68-.62c.18,0,.39-.08.6-.12l-.1,0a5.51,5.51,0,0,0-1.69.62,1.09,1.09,0,0,0,0,1.88,6.3,6.3,0,0,0,3.23,1.25,22.38,22.38,0,0,0,3.51.32,17,17,0,0,0,2.63-.16l.54-.06a6.4,6.4,0,0,1-1,.17,19.26,19.26,0,0,1-2.63.15,22.38,22.38,0,0,1-3.51-.32,6.3,6.3,0,0,1-3.25-1.26A1.08,1.08,0,0,1,59.66,45.24Z"/><path class="cls-25" d="M63.8,45.62c-.31-.24-1-.71-1.42-.39s.54.49.72.5a2.76,2.76,0,0,0,.7-.11Z"/><path class="cls-25" d="M63.8,46.26c-.4-.06-1.6-.42-1.8.14s.85.44,1.11.29.46-.29.69-.43Z"/><path class="cls-25" d="M64.27,46.9c-.31.13-.91.34-.87.75s.53.12.66-.12a2.34,2.34,0,0,0,.21-.63Z"/><path class="cls-25" d="M70,45.56c.26,0,1,.1,1-.29s-.53-.31-.73-.15a.64.64,0,0,0-.27.44Z"/><path class="cls-25" d="M69.45,45.2c.18-.17.56-1,0-.87-.4.09-.13.63,0,.87Z"/><path class="cls-25" d="M68.41,44.94a.81.81,0,0,0,.27-.64.35.35,0,0,0-.4-.26c-.46.13-.08.7.1.9Z"/><path class="cls-25" d="M67.44,44.78c.11-.33-.15-.9-.57-.64s.35.56.57.64Z"/><path class="cls-23" d="M63.9,45.47c-.32-.24-1-.71-1.43-.39s.54.49.72.5a3,3,0,0,0,.71-.11Z"/><path class="cls-23" d="M63.9,46.13c-.41-.07-1.61-.43-1.8.13s.84.45,1.1.29.45-.3.7-.42Z"/><path class="cls-23" d="M64.35,46.74c-.31.13-.91.34-.87.76s.53.11.66-.13a2.13,2.13,0,0,0,.21-.63Z"/><path class="cls-23" d="M70.08,45.41c.26,0,1,.1,1-.29s-.54-.31-.73-.16a.73.73,0,0,0-.27.45Z"/><path class="cls-23" d="M69.54,45.05c.18-.17.56-1,0-.87-.4.09-.14.63,0,.87Z"/><path class="cls-23" d="M68.5,44.79a.83.83,0,0,0,.27-.65.34.34,0,0,0-.4-.25c-.46.13-.08.7.1.9Z"/><path class="cls-23" d="M67.52,44.62c.1-.32-.16-.9-.57-.63s.36.56.57.63Z"/><path class="cls-23" d="M68.94,46.64c0-.33-.06-.34-.26-.48s-.34-.11-.6-.22a2.16,2.16,0,0,0-.76-.22c-.28,0-.33,0-.58,0s-.35,0-.55-.07-.26.06-.17.29-.06.27.09.4.07.06.34.19a2,2,0,0,0,.54.19,4.9,4.9,0,0,0,.67.1,1.25,1.25,0,0,0,.68,0,1.49,1.49,0,0,1,.47-.09C68.93,46.71,68.94,46.64,68.94,46.64Z"/><path class="cls-25" d="M64.2,44a1.31,1.31,0,0,0,.28,0c.21,0-.13-.24-.17-.46Z"/><path class="cls-25" d="M59.27,48.14s0,0,0,0c.16.09.33.17.5.25v1.31a3.33,3.33,0,0,1-.5-.25l-.05,0C59.24,49,59.25,48.57,59.27,48.14Z"/><path class="cls-25" d="M58.46,47.61c0,.42,0,.85-.05,1.28a1.63,1.63,0,0,1-.67-1.21V46.37A1.71,1.71,0,0,0,58.46,47.61Z"/><path class="cls-26" d="M68.05,49.38l.47,0c0,.45,0,.87,0,1.32l-.46,0"/><path class="cls-22" d="M23.19,43.54c0,.73.77,1.2,1.25,1.48a6.54,6.54,0,0,0,1.91.65,18.8,18.8,0,0,0,4,.39c3.92,0,7.1-1.13,7.1-2.52s-2.92-2.73-6.84-2.73a5.9,5.9,0,0,0-1.83.23c-.14.05-.17.13-.15.19h0c0,.16.31.35.14.37H28.5a6.72,6.72,0,0,0-1.45-.17C24.81,41.48,23.19,42.58,23.19,43.54Z"/><path class="cls-23" d="M28.72,41.42h0c-.07-.09-.14-.2-.08-.29C28.68,41.27,28.86,41.39,28.72,41.42Z"/><path class="cls-23" d="M24.43,44.83a6.58,6.58,0,0,0,1.9.65,19,19,0,0,0,4,.39c3.84,0,7-1.08,7.1-2.43v.1c0,1.39-3.18,2.52-7.1,2.52a19,19,0,0,1-4-.39,6.58,6.58,0,0,1-1.9-.65c-.48-.28-1.25-.75-1.25-1.48a.34.34,0,0,1,0-.1C23.26,44.11,24,44.56,24.43,44.83Z"/><path class="cls-27" d="M35.08,44.57c.64-.17,1.07-.27,1.24-.68s.33-.63-.08-1a4.6,4.6,0,0,0-1.43-.78c-.49-.2-1.29-.44-1.65-.54a8.17,8.17,0,0,0-2.06-.24,4.33,4.33,0,0,0-1.69.16c-.37.25-.07.59.31.82a2.79,2.79,0,0,0,1.46.2,3,3,0,0,1,1.31.16,1.59,1.59,0,0,1,.74.54.63.63,0,0,1,.12.52c-.07.17,0,.26.13.37a6.42,6.42,0,0,0,.74.4A1.67,1.67,0,0,0,35.08,44.57Z"/><path class="cls-25" d="M35.88,43.94c.15-.4.32-.63-.08-1a4.65,4.65,0,0,0-1.44-.78c-.48-.2-1.29-.44-1.64-.54a8.19,8.19,0,0,0-2.07-.24c-.28,0-.69,0-1.06,0a6.73,6.73,0,0,1,1.5-.09,10.41,10.41,0,0,1,2.06.24,16.36,16.36,0,0,1,1.64.54,4.91,4.91,0,0,1,1.44.79c.4.38.23.6.08,1s-.6.5-1.23.68a2,2,0,0,1-.29,0C35.35,44.43,35.73,44.32,35.88,43.94Z"/><path class="cls-27" d="M28.89,42.35A2.79,2.79,0,0,0,28,42a4.32,4.32,0,0,0-1.84.09,4.84,4.84,0,0,0-1.39.51.89.89,0,0,0,0,1.54,5.2,5.2,0,0,0,2.66,1,17.31,17.31,0,0,0,2.88.27,16.27,16.27,0,0,0,2.17-.13c.48-.09.73,0,1-.2s.07-.25-.24-.44a2.81,2.81,0,0,0-.59-.31c-.3-.11-.65.08-1.42,0a5.1,5.1,0,0,1-1.39-.25,3.09,3.09,0,0,1-1-.46.49.49,0,0,1-.27-.55C28.59,42.86,29.36,42.66,28.89,42.35Z"/><path class="cls-25" d="M24.74,42.62a4.77,4.77,0,0,1,1.38-.51l.5-.1s-.07,0-.09,0a4.4,4.4,0,0,0-1.38.5.9.9,0,0,0,0,1.55,5.22,5.22,0,0,0,2.66,1,17.38,17.38,0,0,0,2.88.26,16.71,16.71,0,0,0,2.17-.12,4.24,4.24,0,0,1,.44-.05c-.21.07-.45.06-.85.14a15.11,15.11,0,0,1-2.16.12,18.42,18.42,0,0,1-2.88-.26,5.25,5.25,0,0,1-2.66-1A.91.91,0,0,1,24.74,42.62Z"/><path class="cls-25" d="M28.16,42.92c-.26-.2-.84-.58-1.18-.33s.45.41.6.42a2.41,2.41,0,0,0,.58-.09Z"/><path class="cls-25" d="M28.16,43.46c-.33-.05-1.32-.35-1.48.12s.7.36.9.24.38-.26.58-.36Z"/><path class="cls-25" d="M28.54,44c-.25.11-.75.28-.72.62s.44.1.55-.1a3.16,3.16,0,0,0,.17-.52Z"/><path class="cls-25" d="M29,44.36c0,.19-.11.74.17.79s.28-.3.18-.45-.26-.2-.35-.34Z"/><path class="cls-25" d="M33.61,43.48c.31-.18,1-.4,1.21,0s-.53.39-.74.32a1.3,1.3,0,0,1-.47-.3Z"/><path class="cls-25" d="M33.23,42.87c.21,0,.81.09.82-.24s-.44-.25-.6-.13a.67.67,0,0,0-.22.37Z"/><path class="cls-25" d="M32.79,42.58c.14-.14.45-.81,0-.71s-.11.52,0,.71Z"/><path class="cls-25" d="M31.94,42.37a.66.66,0,0,0,.22-.53.3.3,0,0,0-.33-.21c-.37.1-.06.58.1.74Z"/><path class="cls-25" d="M31.14,42.23c.09-.27-.13-.75-.47-.52s.29.45.47.52Z"/><path class="cls-25" d="M30.09,44.55c.14.05.86.31.57.55s-.61-.31-.57-.55Z"/><path class="cls-23" d="M28.22,42.79c-.26-.2-.83-.58-1.17-.32s.44.4.59.41a1.64,1.64,0,0,0,.58-.09Z"/><path class="cls-23" d="M28.22,43.34c-.34-.05-1.31-.36-1.47.11s.69.37.9.24.38-.25.57-.35Z"/><path class="cls-23" d="M28.6,43.85c-.25.12-.74.28-.72.62s.45.1.55-.1a1.87,1.87,0,0,0,.17-.52Z"/><path class="cls-23" d="M29.08,44.25c0,.18-.1.74.17.79s.29-.3.19-.45-.27-.22-.36-.34Z"/><path class="cls-23" d="M33.67,43.35c.32-.18.95-.39,1.22,0s-.54.39-.75.31a1.18,1.18,0,0,1-.47-.3Z"/><path class="cls-23" d="M33.29,42.74c.21,0,.81.09.83-.24s-.45-.25-.6-.12a.8.8,0,0,0-.23.36Z"/><path class="cls-23" d="M32.85,42.47c.14-.14.47-.81,0-.71s-.1.5,0,.71Z"/><path class="cls-23" d="M32,42.24a.67.67,0,0,0,.23-.53.29.29,0,0,0-.34-.2c-.38.1-.07.58.09.73Z"/><path class="cls-23" d="M31.21,42.11c.09-.26-.13-.74-.47-.51s.29.44.47.51Z"/><path class="cls-23" d="M30.15,44.42c.15,0,.86.32.58.56s-.62-.31-.58-.56Z"/><path class="cls-23" d="M32.37,43.77c0-.27,0-.28-.21-.4s-.27-.08-.5-.18a1.4,1.4,0,0,0-.61-.18c-.23,0-.27,0-.48,0L30.13,43q-.24,0-.15.24c.08.18-.05.22.08.32s.05.05.27.15a1.64,1.64,0,0,0,.45.16c.19,0,.26,0,.56.08a1,1,0,0,0,.55,0,1.41,1.41,0,0,1,.39-.08C32.36,43.82,32.37,43.77,32.37,43.77Z"/><path class="cls-25" d="M28.47,41.6h.24c.16,0-.12-.21-.15-.37Z"/><path class="cls-26" d="M32.69,45.91a12.92,12.92,0,0,0,1.39-.24v1.07a13.12,13.12,0,0,1-1.4.24C32.68,46.63,32.69,46.26,32.69,45.91Z"/><path class="cls-26" d="M32,46c0,.36,0,.72,0,1.07l-.38,0V46Z"/><path class="cls-22" d="M57.32,48.7c0,.91-1,1.48-1.59,1.8a8.37,8.37,0,0,1-2.37.79,23.4,23.4,0,0,1-4.93.41c-4.89-.07-8.82-1.54-8.8-3.27s3.68-3.33,8.57-3.25a7.46,7.46,0,0,1,2.27.31c.17.07.2.16.19.26h0c0,.2-.39.43-.18.45h.3a8.36,8.36,0,0,1,1.8-.18C55.36,46.11,57.35,47.51,57.32,48.7Z"/><path class="cls-23" d="M50.49,46h0c.1-.11.19-.25.1-.36C50.54,45.77,50.31,45.94,50.49,46Z"/><path class="cls-23" d="M55.75,50.26a8.54,8.54,0,0,1-2.38.79,22.66,22.66,0,0,1-4.92.41c-4.79-.07-8.66-1.47-8.79-3.15,0,0,0,.07,0,.12,0,1.75,3.92,3.21,8.79,3.27a24,24,0,0,0,4.93-.41,8.37,8.37,0,0,0,2.37-.79c.62-.32,1.57-.9,1.59-1.8v-.13C57.23,49.42,56.33,50,55.75,50.26Z"/><path class="cls-24" d="M55.75,50.5a8.54,8.54,0,0,1-2.38.79,23.3,23.3,0,0,1-4.92.41c-4.89-.07-8.82-1.54-8.79-3.27l0,1.34c0,1.74,3.91,3.21,8.79,3.27a23.35,23.35,0,0,0,4.93-.42,8,8,0,0,0,2.37-.78c.6-.33,1.57-.89,1.58-1.8l0-1.34C57.31,49.6,56.35,50.18,55.75,50.5Z"/><path class="cls-27" d="M42.5,49.76c-.8-.24-1.33-.38-1.51-.88s-.39-.79.11-1.25a6,6,0,0,1,1.8-1c.6-.24,1.61-.52,2.06-.64a10.61,10.61,0,0,1,2.59-.27,5.58,5.58,0,0,1,2.09.23c.45.31.07.74-.4,1a3.63,3.63,0,0,1-1.82.23,3.75,3.75,0,0,0-1.63.16,2.07,2.07,0,0,0-.94.66.7.7,0,0,0-.16.64c.08.23.05.33-.17.47a7.12,7.12,0,0,1-.93.47A1.9,1.9,0,0,1,42.5,49.76Z"/><path class="cls-25" d="M41.53,49c-.18-.51-.39-.78.12-1.25a6,6,0,0,1,1.8-.95c.6-.24,1.62-.52,2.06-.64a11.57,11.57,0,0,1,2.58-.27,12.49,12.49,0,0,1,1.32,0,8.15,8.15,0,0,0-1.85-.13,11.62,11.62,0,0,0-2.58.27,16.79,16.79,0,0,0-2.06.64,6.16,6.16,0,0,0-1.8,1c-.51.47-.32.74-.12,1.25s.73.64,1.51.88a2.66,2.66,0,0,0,.35,0C42.17,49.6,41.7,49.44,41.53,49Z"/><path class="cls-25" d="M55.41,47.53a5.4,5.4,0,0,0-1.71-.66c-.18,0-.39-.1-.61-.14a.29.29,0,0,1,.1,0,5.65,5.65,0,0,1,1.71.65,1.11,1.11,0,0,1,0,1.92,6.5,6.5,0,0,1-3.33,1.24,23.56,23.56,0,0,1-3.58.28,16.6,16.6,0,0,1-2.7-.21c-.21,0-.39-.06-.55-.07a9.21,9.21,0,0,0,1,.19,19.53,19.53,0,0,0,2.7.2,21.54,21.54,0,0,0,3.59-.28,6.33,6.33,0,0,0,3.32-1.24A1.1,1.1,0,0,0,55.41,47.53Z"/><path class="cls-25" d="M51.16,47.84c.32-.25,1-.7,1.46-.38s-.55.5-.75.51a2.87,2.87,0,0,1-.71-.13Z"/><path class="cls-25" d="M51.14,48.51c.42-.06,1.66-.4,1.84.16s-.86.45-1.13.28-.46-.3-.71-.44Z"/><path class="cls-25" d="M44.36,48.43c-.37-.22-1.17-.5-1.51,0s.67.5.91.41a1.38,1.38,0,0,0,.6-.38Z"/><path class="cls-25" d="M44.85,47.68c-.26,0-1,.09-1-.32s.55-.3.76-.15a1,1,0,0,1,.26.47Z"/><path class="cls-25" d="M45.41,47.34c-.19-.18-.56-1,0-.89.4.09.13.65,0,.89Z"/><path class="cls-25" d="M46.46,47.08a.79.79,0,0,1-.26-.65.35.35,0,0,1,.42-.25c.47.12.06.72-.13.9Z"/><path class="cls-25" d="M47.47,46.93c-.11-.34.17-.92.58-.63s-.36.54-.58.63Z"/><path class="cls-23" d="M51.08,47.69c.32-.25,1-.71,1.46-.38s-.55.49-.74.51a3.39,3.39,0,0,1-.72-.13Z"/><path class="cls-23" d="M51.07,48.36c.41-.06,1.64-.4,1.83.18s-.86.44-1.13.27-.46-.32-.7-.45Z"/><path class="cls-23" d="M50.79,49.63A2.47,2.47,0,0,1,50.6,49h0c.31.14.92.37.88.78"/><path class="cls-23" d="M44.29,48.27c-.38-.23-1.18-.5-1.52,0s.67.51.93.41a1.54,1.54,0,0,0,.59-.37Z"/><path class="cls-23" d="M44.77,47.53c-.28,0-1,.08-1-.32s.55-.3.76-.15a1,1,0,0,1,.26.47Z"/><path class="cls-23" d="M45.32,47.19c-.19-.18-.56-1,0-.89s.13.63,0,.89Z"/><path class="cls-23" d="M46.39,46.92a.8.8,0,0,1-.27-.66.36.36,0,0,1,.42-.25c.47.13.07.72-.13.91Z"/><path class="cls-23" d="M47.38,46.77c-.11-.33.17-.92.58-.63s-.36.55-.58.63Z"/><path class="cls-23" d="M45.9,48.81c0-.32.07-.34.28-.48a3.7,3.7,0,0,1,.62-.22,2.34,2.34,0,0,1,.77-.22c.3,0,.35,0,.6,0s.37,0,.55-.06.26.06.17.3.06.29-.09.42-.08.06-.35.19a1.84,1.84,0,0,1-.55.18c-.24.06-.33,0-.71.1A1.4,1.4,0,0,1,46.5,49a1.57,1.57,0,0,0-.48-.1A.11.11,0,0,1,45.9,48.81Z"/><path class="cls-25" d="M50.79,46.19a1.5,1.5,0,0,1-.3,0c-.21,0,.15-.25.18-.46Z"/><path class="cls-25" d="M55.76,50.49h0l-.52.26,0,1.33a4.11,4.11,0,0,0,.52-.25l0,0Z"/><path class="cls-25" d="M56.58,50c0,.43,0,.86,0,1.3A1.62,1.62,0,0,0,57.3,50l0-1.34A1.62,1.62,0,0,1,56.58,50Z"/><path class="cls-28" d="M59.81,47.17c0,.56-.67.91-1.09,1.11a6.44,6.44,0,0,1-1.67.5,19.29,19.29,0,0,1-3.47.3c-3.44,0-6.22-.86-6.22-1.91s2.79-1.9,6.22-1.9S59.81,46.13,59.81,47.17Z"/><path class="cls-29" d="M53.6,45.36c3.39,0,6.14.83,6.21,1.86v0c0-1.06-2.79-1.9-6.21-1.9s-6.22.86-6.22,1.9v0C47.45,46.19,50.21,45.36,53.6,45.36Z"/><path class="cls-30" d="M59.74,46.87c-.06.52-.68.86-1.1,1.05a6.31,6.31,0,0,1-1.67.49,19.29,19.29,0,0,1-3.47.3c-3.09,0-5.65-.69-6.14-1.6v.06c0,1.06,2.79,1.91,6.22,1.91a19.29,19.29,0,0,0,3.47-.3,6.44,6.44,0,0,0,1.67-.5c.42-.2,1.09-.56,1.09-1.11A.66.66,0,0,0,59.74,46.87Z"/><path class="cls-31" d="M57.31,47.17c0,.33-.4.55-.65.67a3.78,3.78,0,0,1-1,.3,11,11,0,0,1-2.07.18c-2.05,0-3.72-.5-3.72-1.13s1.67-1.14,3.72-1.14S57.31,46.55,57.31,47.17Z"/><path class="cls-29" d="M58.72,48.3a6.42,6.42,0,0,1-1.67.49,19.13,19.13,0,0,1-3.47.3c-3.44,0-6.22-.86-6.22-1.9V48c0,1.06,2.79,1.91,6.22,1.91a19.29,19.29,0,0,0,3.47-.3,6.44,6.44,0,0,0,1.67-.5c.42-.2,1.09-.56,1.09-1.11v-.8C59.81,47.73,59.14,48.08,58.72,48.3Z"/><path class="cls-32" d="M49.44,49.41a15.31,15.31,0,0,0,3.37.48v-.81a15.31,15.31,0,0,1-3.37-.48Z"/><path class="cls-33" d="M57.19,49.57a6.56,6.56,0,0,0,1.31-.38v-.81a6.56,6.56,0,0,1-1.31.38Z"/><path class="cls-34" d="M55.17,46.45s-.77.51-1,0S55.17,46.45,55.17,46.45Z"/><path class="cls-34" d="M54.43,47.93s-.77.5-1,0S54.43,47.93,54.43,47.93Z"/><path class="cls-34" d="M55.52,46.48s-.69.58-.18.84S55.52,46.48,55.52,46.48Z"/><path class="cls-34" d="M55,47.24s-.69.58-.19.84S55,47.24,55,47.24Z"/><path class="cls-34" d="M51.82,46.35s0,.84-.53.72S51.82,46.35,51.82,46.35Z"/><path class="cls-34" d="M51.65,47.16s.05.83-.53.72S51.65,47.16,51.65,47.16Z"/><path class="cls-34" d="M52.79,46.26s.17.82.7.61S52.79,46.26,52.79,46.26Z"/><path class="cls-34" d="M56.4,46.81s.17.82.7.6S56.4,46.81,56.4,46.81Z"/><path class="cls-34" d="M55.58,47.84s.13-.82.67-.63S55.58,47.84,55.58,47.84Z"/><path class="cls-34" d="M53.45,47.51s.13-.82.68-.63S53.45,47.51,53.45,47.51Z"/><path class="cls-34" d="M52.92,48s-.68-.6-1-.15S52.92,48,52.92,48Z"/><path class="cls-34" d="M53,47.53s-.38-.77-.85-.46S53,47.53,53,47.53Z"/><path class="cls-35" d="M55.07,46.37s-.77.5-1,0S55.07,46.37,55.07,46.37Z"/><path class="cls-35" d="M54.33,47.84s-.77.51-1,0S54.33,47.84,54.33,47.84Z"/><path class="cls-35" d="M55.42,46.39s-.69.58-.18.85S55.42,46.39,55.42,46.39Z"/><path class="cls-35" d="M54.89,47.14s-.7.58-.19.84S54.89,47.14,54.89,47.14Z"/><path class="cls-35" d="M51.72,46.26s.05.84-.54.72S51.72,46.26,51.72,46.26Z"/><path class="cls-35" d="M51.55,47.07s.05.83-.54.72S51.55,47.07,51.55,47.07Z"/><path class="cls-35" d="M52.68,46.18s.17.82.71.6S52.68,46.18,52.68,46.18Z"/><path class="cls-35" d="M56.28,46.72s.17.82.71.6S56.28,46.72,56.28,46.72Z"/><path class="cls-35" d="M55.47,47.75s.13-.82.68-.63S55.47,47.75,55.47,47.75Z"/><path class="cls-35" d="M53.35,47.43s.13-.82.68-.64S53.35,47.43,53.35,47.43Z"/><path class="cls-35" d="M52.81,47.88s-.68-.59-1-.15S52.81,47.88,52.81,47.88Z"/><path class="cls-35" d="M52.89,47.44s-.38-.77-.85-.46S52.89,47.44,52.89,47.44Z"/><path class="cls-28" d="M77.72,43.9c0,.59-.71,1-1.15,1.18a7.06,7.06,0,0,1-1.75.52,20.21,20.21,0,0,1-3.65.31c-3.62,0-6.54-.89-6.54-2s2.93-2,6.54-2S77.72,42.79,77.72,43.9Z"/><path class="cls-29" d="M71.16,42c3.57,0,6.46.87,6.54,2V43.9c0-1.11-2.93-2-6.54-2s-6.55.89-6.55,2V44C64.7,42.87,67.6,42,71.16,42Z"/><path class="cls-30" d="M77.62,43.58c-.05.54-.71.89-1.14,1.11a6.64,6.64,0,0,1-1.75.51,19.35,19.35,0,0,1-3.65.32c-3.26,0-6-.73-6.47-1.69v.06c0,1.11,2.94,2,6.55,2a19.43,19.43,0,0,0,3.65-.32,7,7,0,0,0,1.75-.51c.44-.22,1.14-.6,1.14-1.18A.42.42,0,0,0,77.62,43.58Z"/><path class="cls-31" d="M75.07,43.9c0,.35-.42.57-.69.7a3.88,3.88,0,0,1-1,.31,11.4,11.4,0,0,1-2.18.19c-2.17,0-3.91-.54-3.91-1.2s1.74-1.19,3.91-1.19S75.07,43.24,75.07,43.9Z"/><path class="cls-32" d="M66.78,46.25a16.88,16.88,0,0,0,3.56.51V45.9a15.13,15.13,0,0,1-3.56-.51v.86Z"/><path class="cls-33" d="M75,46.43A6.59,6.59,0,0,0,76.33,46v-.86a6.59,6.59,0,0,1-1.38.39Z"/><path class="cls-34" d="M72.84,43.13s-.81.53-1,0S72.84,43.13,72.84,43.13Z"/><path class="cls-34" d="M72,44.7s-.8.53-1,0S72,44.7,72,44.7Z"/><path class="cls-34" d="M73.2,43.17s-.71.62-.18.89S73.2,43.17,73.2,43.17Z"/><path class="cls-34" d="M72.63,44s-.72.61-.18.88S72.63,44,72.63,44Z"/><path class="cls-34" d="M69.29,43.05s.06.87-.56.75S69.29,43.05,69.29,43.05Z"/><path class="cls-34" d="M69.11,43.89s0,.87-.56.76S69.11,43.89,69.11,43.89Z"/><path class="cls-34" d="M70.31,43s.17.85.74.64S70.31,43,70.31,43Z"/><path class="cls-34" d="M74.1,43.51s.17.86.75.65S74.1,43.51,74.1,43.51Z"/><path class="cls-34" d="M73.26,44.61s.14-.87.71-.65S73.26,44.61,73.26,44.61Z"/><path class="cls-34" d="M71,44.26s.15-.87.72-.66S71,44.26,71,44.26Z"/><path class="cls-34" d="M70.44,44.74s-.72-.63-1-.17S70.44,44.74,70.44,44.74Z"/><path class="cls-34" d="M70.53,44.28s-.39-.8-.88-.48S70.53,44.28,70.53,44.28Z"/><path class="cls-35" d="M72.72,43.05s-.81.53-1,0S72.72,43.05,72.72,43.05Z"/><path class="cls-35" d="M71.94,44.6s-.81.53-1,0S71.94,44.6,71.94,44.6Z"/><path class="cls-35" d="M73.1,43.07s-.72.62-.18.89S73.1,43.07,73.1,43.07Z"/><path class="cls-35" d="M72.51,43.87s-.71.62-.18.88S72.51,43.87,72.51,43.87Z"/><path class="cls-35" d="M69.19,43s0,.87-.56.75S69.19,43,69.19,43Z"/><path class="cls-35" d="M69,43.8s0,.87-.56.76S69,43.8,69,43.8Z"/><path class="cls-35" d="M70.21,42.86s.17.86.74.64S70.21,42.86,70.21,42.86Z"/><path class="cls-35" d="M74,43.43s.17.85.74.64S74,43.43,74,43.43Z"/><path class="cls-35" d="M73.14,44.51s.14-.87.72-.66S73.14,44.51,73.14,44.51Z"/><path class="cls-35" d="M70.91,44.17s.14-.87.72-.66S70.91,44.17,70.91,44.17Z"/><path class="cls-35" d="M70.34,44.64s-.72-.63-1-.17S70.34,44.64,70.34,44.64Z"/><path class="cls-35" d="M70.43,44.18s-.39-.81-.89-.48S70.43,44.18,70.43,44.18Z"/><path class="cls-28" d="M41.82,43.06c0,.58-.7,1-1.15,1.17a6.14,6.14,0,0,1-1.74.52,19.43,19.43,0,0,1-3.65.32c-3.63,0-6.55-.9-6.55-2s2.93-2,6.55-2S41.82,42,41.82,43.06Z"/><path class="cls-29" d="M35.28,41.14c3.57,0,6.46.87,6.54,2v0c0-1.11-2.93-2-6.54-2s-6.55.9-6.55,2v0C28.81,42,31.7,41.14,35.28,41.14Z"/><path class="cls-30" d="M41.74,42.73c-.05.54-.71.9-1.14,1.11a6.3,6.3,0,0,1-1.75.52,19.42,19.42,0,0,1-3.65.31c-3.26,0-6-.73-6.47-1.69v.07c0,1.11,2.93,2,6.55,2a20.29,20.29,0,0,0,3.65-.31,6.86,6.86,0,0,0,1.74-.52c.45-.21,1.15-.59,1.15-1.17A.66.66,0,0,0,41.74,42.73Z"/><path class="cls-31" d="M39.19,43.06c0,.34-.42.57-.69.69a3.55,3.55,0,0,1-1,.32,11.23,11.23,0,0,1-2.17.19c-2.17,0-3.92-.54-3.92-1.2s1.75-1.2,3.92-1.2S39.19,42.39,39.19,43.06Z"/><path class="cls-29" d="M40.67,44.23a6.14,6.14,0,0,1-1.74.52,19.43,19.43,0,0,1-3.65.32c-3.63,0-6.55-.9-6.55-2v.86c0,1.11,2.93,2,6.55,2a19.42,19.42,0,0,0,3.65-.31,6.86,6.86,0,0,0,1.74-.52c.45-.21,1.15-.59,1.15-1.17v-.86C41.82,43.64,41.12,44,40.67,44.23Z"/><path class="cls-32" d="M30.9,45.41a16.93,16.93,0,0,0,3.56.5v-.86a16.3,16.3,0,0,1-3.56-.5Z"/><path class="cls-33" d="M39.06,45.58a6.59,6.59,0,0,0,1.38-.39v-.86a6,6,0,0,1-1.38.39Z"/><path class="cls-34" d="M37,42.29s-.81.53-1.05,0S37,42.29,37,42.29Z"/><path class="cls-34" d="M36.15,43.84s-.81.53-1,0S36.15,43.84,36.15,43.84Z"/><path class="cls-34" d="M37.31,42.31s-.72.62-.18.89S37.31,42.31,37.31,42.31Z"/><path class="cls-34" d="M36.74,43.11s-.72.62-.19.88S36.74,43.11,36.74,43.11Z"/><path class="cls-34" d="M33.41,42.19s.05.87-.56.76S33.41,42.19,33.41,42.19Z"/><path class="cls-34" d="M33.23,43.05s.05.87-.56.75S33.23,43.05,33.23,43.05Z"/><path class="cls-34" d="M34.43,42.1s.17.86.74.64S34.43,42.1,34.43,42.1Z"/><path class="cls-34" d="M38.22,42.67s.17.86.75.64S38.22,42.67,38.22,42.67Z"/><path class="cls-34" d="M37.36,43.77s.15-.87.72-.66S37.36,43.77,37.36,43.77Z"/><path class="cls-34" d="M35.12,43.41s.14-.87.72-.65S35.12,43.41,35.12,43.41Z"/><path class="cls-34" d="M34.56,43.88s-.72-.63-1-.16S34.56,43.88,34.56,43.88Z"/><path class="cls-34" d="M34.65,43.43s-.39-.81-.89-.48S34.65,43.43,34.65,43.43Z"/><path class="cls-35" d="M36.84,42.19s-.81.53-1,0S36.84,42.19,36.84,42.19Z"/><path class="cls-35" d="M36.05,43.75s-.81.53-1,0S36.05,43.75,36.05,43.75Z"/><path class="cls-35" d="M37.21,42.23s-.72.61-.19.88S37.21,42.23,37.21,42.23Z"/><path class="cls-35" d="M36.63,43s-.71.62-.18.88S36.63,43,36.63,43Z"/><path class="cls-35" d="M33.29,42.1s.06.87-.56.76S33.29,42.1,33.29,42.1Z"/><path class="cls-35" d="M33.13,43s0,.87-.57.75S33.13,43,33.13,43Z"/><path class="cls-35" d="M34.31,42s.17.86.74.64S34.31,42,34.31,42Z"/><path class="cls-35" d="M38.12,42.58s.17.86.74.64S38.12,42.58,38.12,42.58Z"/><path class="cls-35" d="M37.26,43.66s.14-.87.72-.65S37.26,43.66,37.26,43.66Z"/><path class="cls-35" d="M35,43.32s.14-.87.71-.65S35,43.32,35,43.32Z"/><path class="cls-35" d="M34.46,43.79s-.72-.63-1-.16S34.46,43.79,34.46,43.79Z"/><path class="cls-35" d="M34.55,43.34s-.39-.81-.89-.48S34.55,43.34,34.55,43.34Z"/><path class="cls-28" d="M46,47.21c0,.58-.71,1-1.15,1.17a6.3,6.3,0,0,1-1.75.52,19.35,19.35,0,0,1-3.65.32c-3.62,0-6.54-.9-6.54-2s2.93-2,6.54-2S46,46.1,46,47.21Z"/><path class="cls-29" d="M39.46,45.29c3.57,0,6.47.87,6.55,2v0c0-1.11-2.94-2-6.55-2s-6.54.9-6.54,2v0C33,46.18,35.89,45.29,39.46,45.29Z"/><path class="cls-30" d="M45.92,46.88c-.06.55-.72.9-1.15,1.11a6.3,6.3,0,0,1-1.75.52,19.35,19.35,0,0,1-3.65.32c-3.26,0-6-.74-6.47-1.69v.06c0,1.11,2.94,2,6.55,2a19.42,19.42,0,0,0,3.65-.31,6.66,6.66,0,0,0,1.75-.52c.44-.21,1.14-.59,1.14-1.17A.49.49,0,0,0,45.92,46.88Z"/><path class="cls-31" d="M43.37,47.21c0,.34-.41.57-.69.69a3.48,3.48,0,0,1-1,.32,11.4,11.4,0,0,1-2.18.19c-2.16,0-3.91-.54-3.91-1.2S37.3,46,39.46,46,43.37,46.54,43.37,47.21Z"/><path class="cls-29" d="M44.86,48.38a6.3,6.3,0,0,1-1.75.52,19.35,19.35,0,0,1-3.65.32c-3.62,0-6.54-.9-6.54-2v.86c0,1.11,2.93,2,6.54,2a19.35,19.35,0,0,0,3.65-.32,6.32,6.32,0,0,0,1.75-.53C45.3,49,46,48.64,46,48.06V47.2C46,47.79,45.3,48.17,44.86,48.38Z"/><path class="cls-32" d="M35.07,49.56a16.93,16.93,0,0,0,3.56.5V49.2a15.17,15.17,0,0,1-3.56-.5Z"/><path class="cls-33" d="M43.24,49.73a6,6,0,0,0,1.38-.39v-.85a7.25,7.25,0,0,1-1.38.39Z"/><path class="cls-34" d="M41.13,46.44s-.81.53-1,0S41.13,46.44,41.13,46.44Z"/><path class="cls-34" d="M40.34,48s-.81.53-1.05,0S40.34,48,40.34,48Z"/><path class="cls-34" d="M41.5,46.48s-.72.62-.19.88S41.5,46.48,41.5,46.48Z"/><path class="cls-34" d="M40.92,47.26s-.72.62-.18.88S40.92,47.26,40.92,47.26Z"/><path class="cls-34" d="M37.58,46.35s.06.87-.56.76S37.58,46.35,37.58,46.35Z"/><path class="cls-34" d="M37.41,47.2s.06.87-.56.76S37.41,47.2,37.41,47.2Z"/><path class="cls-34" d="M38.6,46.25s.17.86.74.65S38.6,46.25,38.6,46.25Z"/><path class="cls-34" d="M42.41,46.82s.17.86.74.64S42.41,46.82,42.41,46.82Z"/><path class="cls-34" d="M41.55,47.92s.14-.87.71-.66S41.55,47.92,41.55,47.92Z"/><path class="cls-34" d="M39.31,47.56s.14-.87.71-.65S39.31,47.56,39.31,47.56Z"/><path class="cls-34" d="M38.74,48s-.71-.63-1-.16S38.74,48,38.74,48Z"/><path class="cls-34" d="M38.84,47.59s-.4-.81-.89-.48S38.84,47.59,38.84,47.59Z"/><path class="cls-35" d="M41,46.35s-.81.53-1,0S41,46.35,41,46.35Z"/><path class="cls-35" d="M40.23,47.9s-.81.53-1,0S40.23,47.9,40.23,47.9Z"/><path class="cls-35" d="M41.39,46.38s-.72.62-.18.88S41.39,46.38,41.39,46.38Z"/><path class="cls-35" d="M40.82,47.17s-.72.62-.18.89S40.82,47.17,40.82,47.17Z"/><path class="cls-35" d="M37.48,46.25s.05.87-.56.76S37.48,46.25,37.48,46.25Z"/><path class="cls-35" d="M37.3,47.11s.05.87-.56.76S37.3,47.11,37.3,47.11Z"/><path class="cls-35" d="M38.5,46.16s.17.86.74.65S38.5,46.16,38.5,46.16Z"/><path class="cls-35" d="M42.29,46.73s.17.86.74.64S42.29,46.73,42.29,46.73Z"/><path class="cls-35" d="M41.43,47.82s.14-.87.72-.66S41.43,47.82,41.43,47.82Z"/><path class="cls-35" d="M39.2,47.48s.14-.87.72-.66S39.2,47.48,39.2,47.48Z"/><path class="cls-35" d="M38.63,47.94s-.72-.63-1-.16S38.63,47.94,38.63,47.94Z"/><path class="cls-35" d="M38.72,47.49s-.39-.81-.89-.48S38.72,47.49,38.72,47.49Z"/><path class="cls-36" d="M51.31,44.36c3.94,1,6.86,2.59,6.55,3.51s-3.77.84-7.71-.17a26.58,26.58,0,0,1-3.87-1.28,8.56,8.56,0,0,1-1.75-.93c-.41-.3-1.08-.82-.91-1.3C43.93,43.27,47.38,43.34,51.31,44.36ZM45.6,45.58a6.26,6.26,0,0,0,1.45.76,22.77,22.77,0,0,0,3.21,1.06c3.26.83,6.1.9,6.37.14s-2.15-2.06-5.41-2.89-6.1-.9-6.37-.14C44.7,44.9,45.25,45.33,45.6,45.58Z"/><path class="cls-37" d="M51.05,45.13c-2.9-.75-5.5-.87-6.2-.35a.42.42,0,0,1,0-.27c.26-.76,3.11-.69,6.37.14s5.67,2.13,5.41,2.89a.47.47,0,0,1-.17.21C56.19,47,54,45.87,51.05,45.13Z"/><path class="cls-38" d="M50.19,47.58c3.65.93,6.74,1,7,.11s-2.3-2.3-6-3.23-6.74-1-7-.11c-.17.49.53,1,.85,1.22a7.74,7.74,0,0,0,1.6.85A24.9,24.9,0,0,0,50.19,47.58Zm1.05-3c3.44.89,6.12,2.3,5.85,3.08s-3.42.7-6.86-.19a23.27,23.27,0,0,1-3.48-1.15,7.53,7.53,0,0,1-1.56-.82c-.47-.34-.93-.74-.8-1.11C44.65,43.6,47.79,43.69,51.24,44.57Z"/><path class="cls-39" d="M48.28,47.82l-.75-.24.21-.61.74.24Z"/><path class="cls-39" d="M47.05,47.4l-1-.39-.12,0,.21-.61.12,0q.48.21,1,.39Z"/><path class="cls-40" d="M55,46.54a19.42,19.42,0,0,0-3.93-1.42,19.32,19.32,0,0,0-4.4-.67l.17-.48a19.48,19.48,0,0,1,4.4.67,19.42,19.42,0,0,1,3.93,1.42Z"/><path class="cls-41" d="M50.18,47.63c3.74,1,7,1,7.34.14S55,45.38,51.3,44.42s-7-1-7.34-.14c-.17.5.53,1,.87,1.25a9,9,0,0,0,1.67.89A29.42,29.42,0,0,0,50.18,47.63Zm1.09-3.16c3.71,1,6.47,2.43,6.17,3.28s-3.54.77-7.25-.17a30.2,30.2,0,0,1-3.66-1.21,8.57,8.57,0,0,1-1.66-.88c-.51-.36-1-.79-.84-1.19C44.32,43.44,47.57,43.53,51.27,44.47Z"/><path class="cls-42" d="M54.23,46.19a20.31,20.31,0,0,0-3.18-1.07l-.92-.23.17-.48.92.21A21.75,21.75,0,0,1,54.4,45.7Z"/><path class="cls-43" d="M58.9,44.46c0,.24.39.39.63.48a3.92,3.92,0,0,0,1,.21,15,15,0,0,0,2,.13c2,0,3.59-.38,3.6-.83h.76v.36c0,.57-2,1-4.36,1a17.67,17.67,0,0,1-2.42-.17,5.68,5.68,0,0,1-1.17-.26c-.3-.12-.76-.31-.76-.6v-.35Z"/><path class="cls-36" d="M62.5,43.44c2.4,0,4.36.45,4.36,1s-2,1-4.36,1a17.67,17.67,0,0,1-2.42-.16,6.43,6.43,0,0,1-1.17-.27c-.3-.11-.76-.3-.76-.59C58.15,43.89,60.09,43.44,62.5,43.44Zm-3,1.51a3.94,3.94,0,0,0,1,.22,16.81,16.81,0,0,0,2,.12c2,0,3.6-.38,3.6-.84s-1.62-.85-3.6-.85-3.6.38-3.6.85C58.9,44.7,59.29,44.85,59.53,45Z"/><path class="cls-42" d="M58.91,45.05a6.43,6.43,0,0,0,1.17.27,17.67,17.67,0,0,0,2.42.16,13.12,13.12,0,0,0,3.4-.38v.38a12.7,12.7,0,0,1-3.4.38,17.67,17.67,0,0,1-2.42-.16,6.43,6.43,0,0,1-1.17-.27l-.14,0V45Z"/><path class="cls-37" d="M62.5,43.9c-1.77,0-3.26.31-3.55.7a.44.44,0,0,1-.05-.15c0-.47,1.61-.85,3.6-.85s3.6.38,3.6.85a.44.44,0,0,1,0,.15C65.75,44.21,64.27,43.9,62.5,43.9Z"/><path class="cls-38" d="M62.5,45.41c2.23,0,4-.42,4-.95s-1.75-1-4-1-4,.42-4,1c0,.3.49.48.72.57a6.17,6.17,0,0,0,1.06.24A15.17,15.17,0,0,0,62.5,45.41Zm0-1.83c2.1,0,3.89.4,3.89.88s-1.78.88-3.89.88a16.53,16.53,0,0,1-2.18-.14,5.18,5.18,0,0,1-1-.24c-.33-.12-.67-.27-.67-.5C58.61,44,60.39,43.58,62.5,43.58Z"/><path class="cls-44" d="M59.32,45.18c.25.06.49.1.76.14a17.67,17.67,0,0,0,2.42.16c.64,0,1.25,0,1.8-.09v.38a14.55,14.55,0,0,1-1.8.09,17.67,17.67,0,0,1-2.42-.16c-.27,0-.51-.08-.76-.14Z"/><path class="cls-39" d="M61.47,45.82l-.47,0v-.38l.47,0Z"/><path class="cls-39" d="M60.7,45.76l-.62-.08H60v-.38l.08,0,.62.07Z"/><path class="cls-40" d="M65,44.14a13,13,0,0,0-2.48-.22,11.43,11.43,0,0,0-2.59.26v-.29a11.43,11.43,0,0,1,2.59-.26,12.94,12.94,0,0,1,2.48.22Z"/><path class="cls-41" d="M62.5,45.44c2.28,0,4.15-.44,4.15-1s-1.85-1-4.15-1-4.15.44-4.15,1c0,.3.5.49.75.58a4.93,4.93,0,0,0,1.11.25A16.41,16.41,0,0,0,62.5,45.44Zm0-1.93c2.26,0,4.09.43,4.09,1s-1.83.95-4.09.95a14.93,14.93,0,0,1-2.28-.16,5.1,5.1,0,0,1-1.1-.25c-.35-.12-.71-.3-.71-.54C58.41,43.93,60.24,43.51,62.5,43.51Z"/><path class="cls-42" d="M64.5,44.06a13.25,13.25,0,0,0-2-.14h-.56v-.29h.56a13.25,13.25,0,0,1,2,.14Z"/><path class="cls-43" d="M51.93,42.72c-.07.63.77,1.12,1.29,1.41a8.54,8.54,0,0,0,2.14.78,25.71,25.71,0,0,0,4.56.77c4.55.42,8.36-.24,8.54-1.45l1.73.17-.11,1c-.19,1.49-4.82,2.27-10.33,1.77a35.17,35.17,0,0,1-5.52-.94,10.21,10.21,0,0,1-2.58-1c-.64-.35-1.65-.94-1.56-1.72l.12-1Z"/><path class="cls-36" d="M60.53,40.78c5.52.5,9.85,2.12,9.66,3.59s-4.81,2.27-10.32,1.77a35.17,35.17,0,0,1-5.52-.94,10.19,10.19,0,0,1-2.58-.94c-.64-.36-1.66-.95-1.56-1.73C50.39,41.07,55,40.27,60.53,40.78Zm-7.3,3.35a8.69,8.69,0,0,0,2.14.78,25.71,25.71,0,0,0,4.56.77c4.57.42,8.39-.24,8.54-1.46s-3.43-2.56-8-3-8.38.24-8.54,1.47C51.85,43.35,52.7,43.84,53.23,44.13Z"/><path class="cls-37" d="M60.38,42c-4.09-.38-7.58.12-8.38,1.1a.71.71,0,0,1-.07-.4c.15-1.23,4-1.88,8.54-1.47s8.13,1.76,8,3a.8.8,0,0,1-.17.38C67.74,43.49,64.46,42.39,60.38,42Z"/><path class="cls-38" d="M59.89,46c5.11.47,9.26-.26,9.43-1.67S65.63,41.42,60.51,41s-9.26.27-9.44,1.68c-.11.78,1,1.36,1.46,1.64a9.77,9.77,0,0,0,2.36.86A30.65,30.65,0,0,0,59.89,46Zm.6-4.84c4.84.44,8.79,1.88,8.63,3.15s-4.36,2-9.2,1.52A31.24,31.24,0,0,1,55,45a9.87,9.87,0,0,1-2.3-.84c-.72-.39-1.44-.88-1.37-1.48C51.44,41.38,55.66,40.69,60.49,41.13Z"/><path class="cls-39" d="M57.39,46.84l-1.06-.17.12-1c.35.07.7.13,1.06.18Z"/><path class="cls-39" d="M55.64,46.53c-.47-.1-1-.2-1.42-.33l-.17-.05.12-1,.17,0c.47.12.94.22,1.42.33Z"/><path class="cls-40" d="M66,43.15A23.29,23.29,0,0,0,60.38,42a23.88,23.88,0,0,0-6.05.14l.09-.77a23.42,23.42,0,0,1,6-.14,23.49,23.49,0,0,1,5.62,1.14Z"/><path class="cls-41" d="M59.88,46.05c5.24.48,9.65-.29,9.83-1.72s-3.95-3-9.19-3.45-9.66.29-9.83,1.71c-.11.8,1,1.39,1.5,1.68a11.1,11.1,0,0,0,2.46.9A34.32,34.32,0,0,0,59.88,46.05ZM60.51,41c5.18.48,9.27,2,9.1,3.36S65.08,46.43,59.89,46a31.46,31.46,0,0,1-5.2-.88,10.61,10.61,0,0,1-2.44-.89c-.77-.41-1.54-.93-1.46-1.59C51,41.23,55.32,40.5,60.51,41Z"/><path class="cls-42" d="M64.91,42.81a27.25,27.25,0,0,0-4.53-.8l-1.3-.09.1-.77,1.29.09A25.49,25.49,0,0,1,65,42Z"/><path class="cls-43" d="M29.94,45.25c.08.38.75.56,1.16.65a8.69,8.69,0,0,0,1.61.15,23.68,23.68,0,0,0,3.26-.2c3.18-.42,5.66-1.35,5.55-2.1l1.21-.15.11.59c.16.91-2.84,2.05-6.72,2.55a27.22,27.22,0,0,1-3.93.26,9.7,9.7,0,0,1-1.95-.19c-.5-.12-1.31-.33-1.39-.8l-.11-.59Z"/><path class="cls-36" d="M35.45,42.86c3.87-.51,7.13-.18,7.28.73s-2.84,2-6.71,2.55a28.75,28.75,0,0,1-3.94.25,9,9,0,0,1-1.94-.19c-.51-.11-1.32-.33-1.4-.79C28.56,44.5,31.57,43.36,35.45,42.86Zm-4.35,3a8.53,8.53,0,0,0,1.61.15,22.21,22.21,0,0,0,3.26-.2c3.19-.42,5.68-1.36,5.55-2.11s-2.83-1-6-.6-5.69,1.36-5.56,2.1C30,45.65,30.67,45.81,31.1,45.91Z"/><path class="cls-42" d="M30.13,46.2a9.6,9.6,0,0,0,1.94.19A28.85,28.85,0,0,0,36,46.14a20.7,20.7,0,0,0,5.37-1.33l.1.6a20.83,20.83,0,0,1-5.37,1.32,25.9,25.9,0,0,1-3.94.25,8.4,8.4,0,0,1-1.94-.19L30,46.73l-.1-.59Z"/><path class="cls-37" d="M35.58,43.61c-2.86.38-5.15,1.17-5.51,1.87a.48.48,0,0,1-.13-.23c-.13-.74,2.35-1.69,5.56-2.1s5.89-.15,6,.6a.42.42,0,0,1-.05.26C40.88,43.41,38.42,43.25,35.58,43.61Z"/><path class="cls-38" d="M36,46c3.59-.46,6.27-1.5,6.12-2.36S39,42.5,35.45,43s-6.28,1.5-6.12,2.36c.08.48.91.67,1.32.76a8.56,8.56,0,0,0,1.77.16A23.41,23.41,0,0,0,36,46Zm-.5-3c3.39-.44,6.36-.16,6.49.62s-2.61,1.79-6,2.23a24.56,24.56,0,0,1-3.55.23A7.44,7.44,0,0,1,30.7,46c-.56-.13-1.15-.32-1.21-.67C29.36,44.54,32.1,43.51,35.49,43.07Z"/><path class="cls-40" d="M39.63,43.48a18.48,18.48,0,0,0-4.05.13,18.8,18.8,0,0,0-4.11,1l-.08-.46a18.37,18.37,0,0,1,4.11-1,19.2,19.2,0,0,1,4-.14Z"/><path class="cls-41" d="M36,46.08c3.67-.48,6.53-1.58,6.39-2.45s-3.26-1.19-6.94-.71-6.53,1.58-6.38,2.45c.09.48.94.68,1.36.77a9.36,9.36,0,0,0,1.85.17A25.85,25.85,0,0,0,36,46.08ZM35.46,43c3.64-.47,6.71-.18,6.86.67S39.63,45.55,36,46a24.29,24.29,0,0,1-3.73.24,7.67,7.67,0,0,1-1.82-.17c-.6-.14-1.23-.33-1.3-.73C29,44.51,31.83,43.45,35.46,43Z"/><path class="cls-42" d="M38.82,43.43a21.05,21.05,0,0,0-3.24.18l-.9.14-.08-.46.9-.14A21.23,21.23,0,0,1,38.74,43Z"/><path class="cls-45" d="M40.14,41.44c5.46.87,9.63,2.77,9.31,4.23s-5,2-10.46,1.09a33.83,33.83,0,0,1-5.41-1.29,11,11,0,0,1-2.49-1.11c-.61-.39-1.56-1.06-1.41-1.83C30,41.05,34.68,40.57,40.14,41.44Zm-7.58,2.87a9.53,9.53,0,0,0,2.06.92A29.23,29.23,0,0,0,39.1,46.3c4.51.72,8.38.32,8.64-.89s-3.18-2.78-7.7-3.5-8.39-.31-8.65.9C31.26,43.43,32.06,44,32.56,44.31Z"/><path class="cls-46" d="M39.88,42.67c-4-.65-7.56-.39-8.45.54a.68.68,0,0,1,0-.4c.26-1.21,4.13-1.62,8.65-.9s8,2.28,7.7,3.5a.79.79,0,0,1-.21.36C47.09,44.62,43.91,43.3,39.88,42.67Z"/><path class="cls-47" d="M39,46.58c5.06.81,9.26.34,9.56-1s-3.43-3.11-8.49-3.92-9.26-.34-9.56,1c-.17.78.84,1.42,1.31,1.72a9.64,9.64,0,0,0,2.27,1A28.92,28.92,0,0,0,39,46.58Zm1-4.8c4.77.76,8.59,2.47,8.32,3.71s-4.54,1.67-9.31.91a27.69,27.69,0,0,1-4.86-1.16,10.16,10.16,0,0,1-2.23-1c-.68-.45-1.36-1-1.23-1.57C31,41.44,35.29,41,40.06,41.78Z"/><path class="cls-48" d="M45.38,44.17a23.23,23.23,0,0,0-5.5-1.5,24,24,0,0,0-6.05-.27l.17-.77a23.56,23.56,0,0,1,6,.27,23.23,23.23,0,0,1,5.5,1.5Z"/><path class="cls-49" d="M39,46.66c5.19.82,9.65.35,10-1.06s-3.66-3.23-8.85-4.06-9.65-.35-10,1.06c-.17.79.86,1.46,1.35,1.77a10.53,10.53,0,0,0,2.37,1.06A32.69,32.69,0,0,0,39,46.66Zm1.08-5c5.12.82,9.06,2.59,8.78,4s-4.71,1.8-9.84,1a32.7,32.7,0,0,1-5.11-1.23,10.43,10.43,0,0,1-2.34-1c-.73-.47-1.45-1-1.31-1.68C30.56,41.25,35,40.81,40.1,41.62Z"/><path class="cls-50" d="M44.32,43.75a24.91,24.91,0,0,0-4.44-1.08q-.65-.11-1.29-.18l.17-.77,1.29.18A24.7,24.7,0,0,1,44.49,43Z"/><path class="cls-4" d="M20.76,37.63A3.29,3.29,0,0,1,22.53,37c1.26-.18,27-4.68,27-4.68a21.07,21.07,0,0,1,5.81.13c2.35.55,17.19,4.32,17.19,4.32s5.54,1.36,5.92,1.54,1.12.63-.19,1.08L47.7,44.51a26.51,26.51,0,0,1-4.13.18C42.13,44.56,21.25,38.11,20.76,37.63Z"/><path class="cls-5" d="M44.56,44.7a24,24,0,0,0,3.59-.28C49.64,44.14,78,39.37,78,39.37s1-.16,1-.61v4.41s-.09.43-1.23.67-31.16,4.91-31.16,4.91-1.6.08-2,0Z"/><path class="cls-6" d="M20.78,37.65s.66.22,1.67.63c2.12.84,19.24,6,19.71,6.08a8.41,8.41,0,0,0,2.39.33l0,4.11a22,22,0,0,1-3-.21c-.86-.21-20.32-6.31-20.32-6.31s-.57-.28-.57-.65S20.78,37.65,20.78,37.65Z"/><path class="cls-7" d="M22.11,37.7a3.12,3.12,0,0,1,1.68-.61c1.21-.16,25.78-4.28,25.78-4.28a20.49,20.49,0,0,1,5.55.13c2.24.5,16.38,4,16.38,4s5.28,1.25,5.64,1.41,1.07.58-.18,1L47.78,44a27.25,27.25,0,0,1-3.94.17C42.5,44,22.59,38.14,22.11,37.7Z"/><path class="cls-8" d="M41.77,44.27a10.81,10.81,0,0,0,2.79.43c1.15-.05,2.29-.11,2.75-.16v4.08a10.57,10.57,0,0,1-2.72.18,15.85,15.85,0,0,1-2.79-.16Z"/><path class="cls-9" d="M55.12,32.94c-.06,0,16.38,4,16.38,4s5.28,1.25,5.64,1.41,1.07.58-.18,1L47.78,44S64.72,37.8,55.12,32.94Z"/></svg>