<svg id="Layer_1" data-name="Layer 1" xmlns="http://www.w3.org/2000/svg" viewBox="0 0 100 100"><defs><style>.cls-1{opacity:0.5;}.cls-2{fill:#fff200;stroke:#494949;stroke-miterlimit:10;}.cls-3{fill:#a6c914;}.cls-4{fill:#323232;}.cls-5{fill:#282828;}.cls-6{fill:none;}.cls-7{fill:#ce2929;}.cls-8{fill:#e84242;}.cls-9{fill:#911414;}.cls-10{fill:#ad1e1e;}.cls-11{fill:#a01818;}.cls-12{fill:#111;}.cls-13{fill:#2b2b2b;}.cls-14{fill:#191a1c;}.cls-15{fill:#1c1c1c;}.cls-16{fill:#dd3636;}</style></defs><ellipse class="cls-1" cx="50.45" cy="51.76" rx="42.3" ry="40.99"/><ellipse class="cls-2" cx="49.55" cy="48.24" rx="42.3" ry="40.99"/><ellipse class="cls-3" cx="49.55" cy="48.24" rx="36.57" ry="35.44"/><path class="cls-4" d="M49.77,59.88a1,1,0,0,0,.4,0v.22a1.56,1.56,0,0,0-.4,0Z"/><polygon class="cls-4" points="49.72 59.26 49.95 59.26 50.15 59.45 49.72 59.45 49.72 59.26"/><path class="cls-4" d="M50.3,60c0,.1,0,.17-.1.17s-.11-.08-.11-.17,0-.17.11-.17S50.3,59.89,50.3,60Z"/><path class="cls-5" d="M49,61.71a3.65,3.65,0,0,1,1.16,0A2.71,2.71,0,0,1,49,61.71Z"/><path class="cls-6" d="M59.5,30.86a.45.45,0,0,1,.13.1A.32.32,0,0,0,59.5,30.86Z"/><path class="cls-6" d="M60.14,31.34l.27.26A91.92,91.92,0,0,1,67.09,40h0a91.92,91.92,0,0,0-6.68-8.39Z"/><path class="cls-6" d="M60,31.2l-.12-.1Z"/><path class="cls-7" d="M39.88,30.81s-4.43.55-10.58,4.47a65.24,65.24,0,0,0-11,9.08h0a29.2,29.2,0,0,1,11.92-1.58s.86-1.21,2.06-2.86a87.77,87.77,0,0,1,6.65-8.33,7.93,7.93,0,0,1,1-.78Z"/><path class="cls-8" d="M80.78,44.36a65.56,65.56,0,0,0-11-9.08c-6.15-3.92-10.58-4.47-10.58-4.47h0l.06.05a.45.45,0,0,1,.13.1l.2.14.12.1.18.15.27.26A91.92,91.92,0,0,1,66.83,40c1.18,1.61,2,2.8,2,2.8a29.13,29.13,0,0,1,11.93,1.56Z"/><path class="cls-9" d="M80.78,44.36a29.43,29.43,0,0,0-11.42-1.62l2.08,2.2S73.2,43.18,80.78,44.36Z"/><path class="cls-9" d="M18.3,44.36c7.58-1.18,9.38.67,9.38.67h0s.88-1,2-2.29A29.28,29.28,0,0,0,18.3,44.36Z"/><path class="cls-10" d="M49.55,41.29c-2.11,0-4.06.07-5.83.15-.84,2.1-1.55,4.06-1.66,4.35l0,0c2.38-.84,7-.88,7.32-.89a30.17,30.17,0,0,1,7.25.86c-.08-.24-.82-2.23-1.67-4.38C53.33,41.36,51.51,41.31,49.55,41.29Z"/><path class="cls-11" d="M30.21,42.78l-.55,0c-1.11,1.26-2,2.29-2,2.29,11.22-1.2,14,.48,14.38.76.11-.3.82-2.26,1.66-4.36A93.92,93.92,0,0,0,30.21,42.78Z"/><path class="cls-11" d="M68.87,42.78A92.19,92.19,0,0,0,55,41.42c.85,2.15,1.58,4.14,1.67,4.38l.08,0s2.5-2.19,14.7-.88h0l-2.08-2.2Z"/><path class="cls-12" d="M49.75,26.45s0-.17-.17-.18h0c-.12,0-.16.18-.16.18l-.23,3.38H50Z"/><rect class="cls-13" x="49.22" y="40.48" width="0.65" height="22.27"/><path class="cls-14" d="M50.14,62.56V61.7a3.69,3.69,0,0,1-1.16,0v.86A2,2,0,0,0,50.14,62.56Z"/><path class="cls-15" d="M49,62.56V67a2.18,2.18,0,0,1-4.36,0A2,2,0,0,1,45,65.83a.55.55,0,0,0-.18-.77.59.59,0,0,0-.8.17,3.15,3.15,0,0,0,.45,4,3.41,3.41,0,0,0,4.72,0,3.15,3.15,0,0,0,1-2.28V62.56A2,2,0,0,1,49,62.56Z"/><path class="cls-16" d="M66.84,40a88.6,88.6,0,0,0-6.68-8.39l-.26-.26a1.3,1.3,0,0,1-.18-.15.58.58,0,0,1-.12-.1L59.4,31l-.13-.1-.06-.05a8.18,8.18,0,0,0-4-1.43,43,43,0,0,0-4.81.18H48.73a42.87,42.87,0,0,0-4.81-.18,8,8,0,0,0-5,2.22,89.08,89.08,0,0,0-6.65,8.33c-1.2,1.64-2.06,2.86-2.06,2.86s6.62-1.4,19.33-1.49c12.7.09,19.32,1.49,19.32,1.49S68,41.6,66.84,40Z"/><path d="M30.16,42.78S30,43,29.94,43s-.2.16-.09.24.17,0,.23-.16l.25-.39Z"/><path d="M42,45.77s-.13.25-.16.29-.16.2,0,.27.14-.08.18-.21.16-.44.16-.44Z"/><path d="M27.67,45s-.18.22-.22.25-.2.16-.09.24.17,0,.23-.16.25-.4.25-.4Z"/><path d="M18.34,44.24l-.23.23s-.22.15-.13.24.17,0,.25-.15.28-.37.28-.37Z"/><path d="M68.92,42.76a2,2,0,0,0,.21.25s.2.16.09.25-.16,0-.23-.17-.25-.39-.25-.39Z"/><path d="M56.71,45.77s.13.25.16.29.16.2,0,.27-.15-.08-.18-.21-.16-.44-.16-.44Z"/><path d="M71.47,44.9l.21.26s.21.16.1.24-.17,0-.23-.16-.26-.4-.26-.4Z"/><path d="M80.75,44.26l.23.24s.22.14.13.23-.17,0-.25-.14a4.6,4.6,0,0,0-.28-.37Z"/></svg>