<svg id="Layer_1" data-name="Layer 1" xmlns="http://www.w3.org/2000/svg" viewBox="0 0 100 100"><defs><style>.cls-1{opacity:0.5;}.cls-2{fill:#fff200;stroke:#494949;stroke-miterlimit:10;}.cls-3{fill:#a6c914;}.cls-4{fill:#231f0f;}.cls-5{fill:#80345b;}.cls-6{fill:#de4645;}</style></defs><g id="Butterflu_Icon" data-name="Butterflu Icon"><ellipse class="cls-1" cx="50.46" cy="52.34" rx="42.29" ry="41.41"/><ellipse class="cls-2" cx="49.54" cy="48.66" rx="42.29" ry="41.41"/><ellipse class="cls-3" cx="49.54" cy="48.66" rx="36.56" ry="35.81"/><path class="cls-4" d="M49.54,51.34l-1.62-.41,0,.07a36.52,36.52,0,0,1,.87,4.66,30.82,30.82,0,0,1,.13,6.17c0,.44-.3,2.75.81,2.28.68-.28.42-1.74.38-2.28a30.82,30.82,0,0,1,.13-6.17A36.52,36.52,0,0,1,51.13,51l0-.07Z"/><path class="cls-5" d="M45.56,48.84A51.76,51.76,0,0,0,41,51.43c-2.15,1.37-4.56,3-5.3,5.51a6,6,0,0,0,2.55,6.58c3.1,2.14,6.76.5,8-4.83a43,43,0,0,0,1-10.2Z"/><path class="cls-6" d="M45.38,51.75a12.33,12.33,0,0,0-6.49,3.82c-2.11,2.62-1.82,4.6-.57,5.24,1,.53,1.92-.81,1.92-.81s-.34,2.23,1.45,2.13c2.07-.11,2.49-3.46,2.76-5.54A28.81,28.81,0,0,1,45.38,51.75Z"/><path class="cls-5" d="M48.5,45.76a30.84,30.84,0,0,0-12.8-6.67C27.47,37,23.4,38,21.57,39.93c-1.42,1.52-1.57,3.83,1.27,6.42s5,6.39,9.56,7.17C37.32,54.36,48.2,49,48.2,49Z"/><path class="cls-6" d="M47.64,47s-6.25-4.73-11.89-6.47-9-1.39-10.47.6-.46,4.33,1.73,5.37,3.25.8,3.25.8a2.78,2.78,0,0,0-.2,4c1.78,1.94,4.47,1.69,8-.75s5.64-3.28,7.11-3.43A18.31,18.31,0,0,1,47.64,47Z"/><path class="cls-4" d="M49.07,42.37c-.59-.54-1.26-.85-1.87-1.37a8.48,8.48,0,0,1-2-2.3,7.7,7.7,0,0,1-.83-3.53,4.76,4.76,0,0,0-.25-1.87c-.21-.39-.55-.6-.78-.15-.38.74.43,1.39.85,2.19a18.41,18.41,0,0,0,.33,2.21,7.57,7.57,0,0,0,1.58,2.6A20.52,20.52,0,0,0,49,42.47C49,42.53,49.14,42.43,49.07,42.37Z"/><path class="cls-5" d="M38.68,50c-1.93,1-3.94,1.23-4.68.64-.92-.72.41-1.91.41-1.91s-2.57.34-3-.75,1.36-1.63,1.36-1.63-3.06.19-3.9-.81,1-1.64,1-1.64-2.12-.12-2.65-1,.2-2.4,3.92-2.34,9,2,10.31,2.46a32.12,32.12,0,0,0-5.74-2.53c-5.64-1.74-9-1.39-10.47.6s-.46,4.33,1.73,5.37,3.25.8,3.25.8a2.78,2.78,0,0,0-.2,4c1.78,1.94,4.47,1.69,8-.75.35-.25.69-.47,1-.69Z"/><path class="cls-5" d="M45.93,46.17a29.54,29.54,0,0,0-6-2.32c-2.88-.67-3.69.36-3.08,1s5.28.64,6.91.89C44.82,45.9,45.93,46.17,45.93,46.17Z"/><path class="cls-5" d="M45.22,46.3a15,15,0,0,0-5.66.13c-1.93.56-2.68,1.6-1.83,1.83s2.14-.55,4-1.21A15.63,15.63,0,0,1,45.22,46.3Z"/><path class="cls-5" d="M53.51,48.84A51.76,51.76,0,0,1,58,51.43c2.15,1.37,4.56,3,5.3,5.51a6,6,0,0,1-2.55,6.58c-3.1,2.14-6.76.5-8-4.83a43,43,0,0,1-1-10.2Z"/><path class="cls-6" d="M53.69,51.75a12.33,12.33,0,0,1,6.49,3.82c2.11,2.62,1.82,4.6.57,5.24-1,.53-1.92-.81-1.92-.81s.34,2.23-1.45,2.13c-2.07-.11-2.49-3.46-2.76-5.54A28.81,28.81,0,0,0,53.69,51.75Z"/><path class="cls-5" d="M50.57,45.76a30.84,30.84,0,0,1,12.8-6.67C71.6,37,75.67,38,77.5,39.93c1.42,1.52,1.57,3.83-1.27,6.42s-5,6.39-9.56,7.17c-4.92.84-15.8-4.48-15.8-4.48Z"/><path class="cls-6" d="M51.43,47s6.25-4.73,11.89-6.47,9-1.39,10.47.6.46,4.33-1.73,5.37-3.25.8-3.25.8a2.78,2.78,0,0,1,.2,4c-1.78,1.94-4.47,1.69-8-.75s-5.64-3.28-7.11-3.43A18.31,18.31,0,0,0,51.43,47Z"/><path class="cls-4" d="M50.11,42.47A20.52,20.52,0,0,0,53,40.15a7.57,7.57,0,0,0,1.58-2.6,18.41,18.41,0,0,0,.33-2.21c.42-.8,1.23-1.45.85-2.19-.23-.45-.57-.24-.78.15a4.76,4.76,0,0,0-.25,1.87,7.7,7.7,0,0,1-.83,3.53,8.48,8.48,0,0,1-2,2.3c-.61.52-1.28.83-1.86,1.37C49.93,42.43,50,42.53,50.11,42.47Z"/><path class="cls-4" d="M51.84,46.78A3.91,3.91,0,0,0,49.7,44h-.33a3.91,3.91,0,0,0-2.14,2.77c-.43,1.77-.45,4.75,2,5.12a2.53,2.53,0,0,0,2.59-1.65A5.56,5.56,0,0,0,51.84,46.78Z"/><path class="cls-5" d="M60.39,50c1.93,1,3.94,1.23,4.68.64.92-.72-.41-1.91-.41-1.91s2.57.34,3-.75-1.36-1.63-1.36-1.63,3.06.19,3.9-.81-1-1.64-1-1.64,2.12-.12,2.65-1-.2-2.4-3.92-2.34-9,2-10.31,2.46a32.12,32.12,0,0,1,5.74-2.53c5.64-1.74,9-1.39,10.47.6s.46,4.33-1.73,5.37-3.25.8-3.25.8a2.78,2.78,0,0,1,.2,4c-1.78,1.94-4.47,1.69-8-.75-.35-.25-.69-.47-1-.69Z"/><path class="cls-5" d="M53.14,46.17a29.54,29.54,0,0,1,6-2.32c2.88-.67,3.69.36,3.08,1s-5.28.64-6.91.89C54.25,45.9,53.14,46.17,53.14,46.17Z"/><path class="cls-5" d="M53.85,46.3a15,15,0,0,1,5.66.13c1.93.56,2.68,1.6,1.83,1.83s-2.14-.55-4-1.21A15.63,15.63,0,0,0,53.85,46.3Z"/><path class="cls-4" d="M51,42.92a1.59,1.59,0,0,0-2.93,0,1.53,1.53,0,1,0,2.93,0Z"/></g></svg>