<svg id="Layer_1" data-name="Layer 1" xmlns="http://www.w3.org/2000/svg" xmlns:xlink="http://www.w3.org/1999/xlink" viewBox="0 0 100 100"><defs><style>.cls-1{fill:#1b97e2;}.cls-2{opacity:0.5;}.cls-3{fill:#fff200;stroke:#494949;stroke-miterlimit:10;}.cls-4{fill:#a6c914;}.cls-5{clip-path:url(#clip-path);}.cls-6{fill:#067cc4;}</style><clipPath id="clip-path"><path class="cls-1" d="M75.29,67.08c-3.32-.74-6.81.78-10.07,0l0,0a1.53,1.53,0,0,0,.73-.89c.33-1.15-.8-1.81-1.8-1.89a57.07,57.07,0,0,0-9.05.32C48.94,65,42.8,65.75,36.59,66c-3.24.12-6.47.21-9.71.32A13.51,13.51,0,0,1,22.35,66c-.55-.19-1.85-.73-1.51-1.53.25-.59,1.7-.91,2.24-1.13,1.35-.55,2.68-1.13,4.05-1.62a16.93,16.93,0,0,1,4.22-.86c3.21-.31,6.44-.53,9.65-.73,3.64-.21,7.29-.35,10.93-.49a11.07,11.07,0,0,0,5.39-1.16,1.29,1.29,0,0,0,.26-.08,12.16,12.16,0,0,0,2.1-1.06,13,13,0,0,0,2.11-1.14,1.42,1.42,0,0,0,1.69-.13,14.2,14.2,0,0,0,4.9-7.82,10.32,10.32,0,0,0,.18-2.08A11,11,0,0,0,68.88,43a9.2,9.2,0,0,0-2.2-5.57c-1-1.14-2.34-2-3.39-3.08a2.71,2.71,0,0,0-1.64-1.73,1.71,1.71,0,0,0-1.32,0,8.77,8.77,0,0,0-3.09-1,1.37,1.37,0,0,0-1.1.34A1.76,1.76,0,0,0,55,32a1.43,1.43,0,0,0-1.38-1.07,1.63,1.63,0,0,0-.85.26,1.38,1.38,0,0,0-.64-.06l-.68.09a1.45,1.45,0,0,0-.93.49,1.26,1.26,0,0,0-1.66-.17q-.45.33-.9.69a1,1,0,0,0-1.2-.14,14.3,14.3,0,0,0-2.42,1.52,1,1,0,0,0-1.49-.55A14.55,14.55,0,0,0,36,41.37c-1.06,3.5-1.1,8,1.34,11a1.3,1.3,0,0,0,.85.48,1.15,1.15,0,0,0,0,.19,1.32,1.32,0,0,0,1.35,1.19,6.28,6.28,0,0,0,5,3.19,7,7,0,0,0,.9.36q-2.35.21-4.71.45c-3.21.33-6.41.68-9.6,1.13a32.8,32.8,0,0,0-8.26,2.6c-1,.41-2.43.74-3.1,1.63A1.8,1.8,0,0,0,20.25,66c1.94,1.74,5.13,1.31,7.54,1.24C34.21,67,40.64,67,47,66.32c3.49-.35,7-.91,10.45-1.17A46.11,46.11,0,0,1,63,65c.17,0,2,.06,1.48.7-.14.16-.58.23-.77.32a1.55,1.55,0,0,0-.91.93.79.79,0,0,0,.42,1,10.79,10.79,0,0,0,5.77.55,49.35,49.35,0,0,1,6.3-.59c.53,0,.46-.75,0-.85Z"/></clipPath></defs><ellipse class="cls-2" cx="50.45" cy="52.31" rx="42.3" ry="40.94"/><ellipse class="cls-3" cx="49.55" cy="48.69" rx="42.3" ry="40.94"/><ellipse class="cls-4" cx="49.55" cy="48.69" rx="36.57" ry="35.39"/><path class="cls-1" d="M75.29,67.08c-3.32-.74-6.81.78-10.07,0l0,0a1.53,1.53,0,0,0,.73-.89c.33-1.15-.8-1.81-1.8-1.89a57.07,57.07,0,0,0-9.05.32C48.94,65,42.8,65.75,36.59,66c-3.24.12-6.47.21-9.71.32A13.51,13.51,0,0,1,22.35,66c-.55-.19-1.85-.73-1.51-1.53.25-.59,1.7-.91,2.24-1.13,1.35-.55,2.68-1.13,4.05-1.62a16.93,16.93,0,0,1,4.22-.86c3.21-.31,6.44-.53,9.65-.73,3.64-.21,7.29-.35,10.93-.49a11.07,11.07,0,0,0,5.39-1.16,1.29,1.29,0,0,0,.26-.08,12.16,12.16,0,0,0,2.1-1.06,13,13,0,0,0,2.11-1.14,1.42,1.42,0,0,0,1.69-.13,14.2,14.2,0,0,0,4.9-7.82,10.32,10.32,0,0,0,.18-2.08A11,11,0,0,0,68.88,43a9.2,9.2,0,0,0-2.2-5.57c-1-1.14-2.34-2-3.39-3.08a2.71,2.71,0,0,0-1.64-1.73,1.71,1.71,0,0,0-1.32,0,8.77,8.77,0,0,0-3.09-1,1.37,1.37,0,0,0-1.1.34A1.76,1.76,0,0,0,55,32a1.43,1.43,0,0,0-1.38-1.07,1.63,1.63,0,0,0-.85.26,1.38,1.38,0,0,0-.64-.06l-.68.09a1.45,1.45,0,0,0-.93.49,1.26,1.26,0,0,0-1.66-.17q-.45.33-.9.69a1,1,0,0,0-1.2-.14,14.3,14.3,0,0,0-2.42,1.52,1,1,0,0,0-1.49-.55A14.55,14.55,0,0,0,36,41.37c-1.06,3.5-1.1,8,1.34,11a1.3,1.3,0,0,0,.85.48,1.15,1.15,0,0,0,0,.19,1.32,1.32,0,0,0,1.35,1.19,6.28,6.28,0,0,0,5,3.19,7,7,0,0,0,.9.36q-2.35.21-4.71.45c-3.21.33-6.41.68-9.6,1.13a32.8,32.8,0,0,0-8.26,2.6c-1,.41-2.43.74-3.1,1.63A1.8,1.8,0,0,0,20.25,66c1.94,1.74,5.13,1.31,7.54,1.24C34.21,67,40.64,67,47,66.32c3.49-.35,7-.91,10.45-1.17A46.11,46.11,0,0,1,63,65c.17,0,2,.06,1.48.7-.14.16-.58.23-.77.32a1.55,1.55,0,0,0-.91.93.79.79,0,0,0,.42,1,10.79,10.79,0,0,0,5.77.55,49.35,49.35,0,0,1,6.3-.59c.53,0,.46-.75,0-.85Z"/><g class="cls-5"><path class="cls-6" d="M48.7,29.55c-6.59.35-11.51,12-10.65,26.25,0,.21.32.16.32,0,0-3.67.49-14.19,2.21-17.49s5.21-6.27,8.26-8.48c.12-.1,0-.32-.14-.24Z"/><path class="cls-6" d="M49.74,30.42c.06,0,0-.13-.07-.09-3.77,2.58-5.9,6.58-7.37,10.72-1.34,3.79-4,11.5-2.21,15.42,0,.06.14,0,.12,0-.83-4.33,1.14-11.27,2.58-15.37a23.14,23.14,0,0,1,7-10.64Z"/><path class="cls-6" d="M62.21,46c.12-.88.2-1.77.24-2.65a29.7,29.7,0,0,0-.27-6,21.45,21.45,0,0,0-1.08-4.65.32.32,0,0,0-.12-.31c-.14-.32-.29-.64-.45-.94,0-.07-.17-.05-.15,0,0,.27.11.54.17.81-1.92-.27-3.86-.48-5.79-.56a14,14,0,0,0-4,.19l1-1.11s0-.06-.05,0a12.28,12.28,0,0,0-1.8,1.49l-.08,0a.06.06,0,0,0,0,.07,20.69,20.69,0,0,0-4.48,7.75l-.09.06a.11.11,0,0,0,0,.18c-.34,1-.63,2-.87,2.94A37.39,37.39,0,0,0,43,51.45c0,.14,0,.28,0,.42s0,.09-.07.14a.09.09,0,0,0,.07.12C43,57,45,57.6,45,57.59s0-.11,0-.23a24.56,24.56,0,0,0,4.9-1.13,28.37,28.37,0,0,0,5.34-2A16.45,16.45,0,0,0,61,49.44c-.09.38-.19.77-.29,1.15C59.79,58,49.22,57.19,45,57.8l.62-.06c6.84,0,13.61-.42,15.19-5.31.3-.94.57-1.89.8-2.86s.48-2.27.64-3.42a.2.2,0,0,0,0-.11ZM50.31,32.51h0c.66,0,1.32-.2,2-.25a19.35,19.35,0,0,1,3,0,32.3,32.3,0,0,1,3.26.43,26.62,26.62,0,0,0-4.54.42,19,19,0,0,0-5.31,1.58c.52-.74,1.08-1.45,1.66-2.14Zm-2.86,4.05h0c.23-.43.49-.84.75-1.25,2-.53,3.92-1.31,6-1.67a24.77,24.77,0,0,1,6.38-.29.32.32,0,0,0,.17,0c.11.46.23.92.34,1.38a51.21,51.21,0,0,0-7.31.78,30.8,30.8,0,0,0-6.73,1.8l.38-.73Zm-.58,1.16h0a.19.19,0,0,0,.15,0c2.36-.54,4.63-1.3,7-1.73a48.14,48.14,0,0,1,7.2-.74c0,.1,0,.2.07.31A55.94,55.94,0,0,0,53,37.05a39.5,39.5,0,0,0-4.14,1.4A24.27,24.27,0,0,0,46,39.72c.26-.68.54-1.35.86-2Zm-1.06,2.55h0c1.08-.4,2.12-1,3.19-1.38,1.3-.51,2.63-1,4-1.34a33,33,0,0,1,8.44-1.38h0c0,.22.09.44.13.66h0a63.17,63.17,0,0,0-8.93,2.62,42.94,42.94,0,0,0-4.26,1.92,22.85,22.85,0,0,0-3.49,2c.27-1.06.58-2.11,1-3.14ZM44.73,43.9h0c1.37-.63,2.63-1.45,4-2.13s2.62-1.23,4-1.78a41.89,41.89,0,0,1,9-2.54l.05,0,.06.36,0,0c-1.63.74-3.35,1.32-5,2s-3.27,1.46-4.85,2.3A42.9,42.9,0,0,0,44.06,47c.19-1.05.42-2.09.67-3.12Zm-1.16,6.93h0A30.7,30.7,0,0,1,44,47.41c1.25-.79,2.44-1.69,3.7-2.47,1.49-.93,3-1.82,4.59-2.64s3-1.5,4.55-2.15a29.83,29.83,0,0,1,5-1.73c0,.25.05.51.07.77a.55.55,0,0,0-.22,0c-3.87,1.09-7.3,3.31-10.61,5.41-2.69,1.71-5.69,3.65-7.48,6.29a.15.15,0,0,1,0-.07Zm0,.69h0A26.07,26.07,0,0,1,47,48.06a44.47,44.47,0,0,1,4.52-3.15,39.07,39.07,0,0,1,10.42-5c0,.7.05,1.41.05,2.11a62.94,62.94,0,0,0-10.1,4.66,35,35,0,0,0-4.58,3.09,23.78,23.78,0,0,0-3.65,3.36,10.91,10.91,0,0,1-.09-1.63Zm.15,2h0c1.29-1.05,2.45-2.25,3.76-3.3S50.38,48,51.92,47a34.56,34.56,0,0,1,10-4.32q0,.81-.09,1.62a.35.35,0,0,0-.25,0,41.31,41.31,0,0,0-9.34,4.51c-1.46.93-2.87,1.93-4.25,3A42.73,42.73,0,0,0,44,55a11.29,11.29,0,0,1-.31-1.4Zm.37,1.61h0l0,0c1.46-.91,2.76-2.07,4.14-3.09s2.7-2,4.12-2.85a33,33,0,0,1,9.44-4.32c0,.29-.07.58-.1.87l0,0c-2.81,1.88-5.66,3.71-8.56,5.46-1.43.86-2.86,1.7-4.3,2.54a35.08,35.08,0,0,0-4.31,2.58c-.16-.4-.31-.79-.43-1.19Zm17.31-7.32h0a.33.33,0,0,0-.21.16,15.86,15.86,0,0,1-6.87,6,31.49,31.49,0,0,1-4.62,1.78c-1.56.46-3.35.66-4.86,1.26-.08-.17-.16-.34-.23-.51a26.8,26.8,0,0,0,4.21-2.21q2.25-1.27,4.47-2.61,4.2-2.51,8.32-5.13c-.06.41-.14.83-.21,1.24Z"/><path class="cls-6" d="M64.69,43.21a32.06,32.06,0,0,0-.11-5.71A10.09,10.09,0,0,0,64,35a8.63,8.63,0,0,1-1.1-2.83c0-.1-.15-.09-.16,0A3,3,0,0,0,63.09,34a10.66,10.66,0,0,1,1,2.89A28.68,28.68,0,0,1,64.27,43c-.18,4.18-1.88,10.77-3,14.78-.07.27.35.45.43.18,1.1-4,2.77-10.57,3-14.71Z"/><path class="cls-6" d="M67.45,43.51c0-2-.22-4.09-.42-6.12a14.69,14.69,0,0,0-1.27-5.54.14.14,0,0,0-.25.1,22.47,22.47,0,0,1,1,5.5c.15,1.86.31,3.73.35,5.59a29.05,29.05,0,0,1-.36,5.75,20,20,0,0,1-.73,3c-.3.88-.75,1.7-1.06,2.57-.08.24.25.48.43.24A13.21,13.21,0,0,0,67,49.39a29,29,0,0,0,.44-5.88Z"/></g></svg>