<svg xmlns="http://www.w3.org/2000/svg" viewBox="0 0 100 100"><defs><style>.cls-1{isolation:isolate;}.cls-14,.cls-2,.cls-24{opacity:0.5;}.cls-3{fill:#fff200;stroke:#494949;stroke-miterlimit:10;}.cls-4{fill:#a6c914;}.cls-5{fill:#2352af;}.cls-6{fill:#f2f2f2;}.cls-7{fill:#d8d8d8;}.cls-8{fill:#fcfcfc;}.cls-9{fill:#c7c8c3;}.cls-10{fill:#d8d9d4;}.cls-11{fill:#fff;}.cls-12{fill:#2b6c9c;}.cls-13,.cls-25{fill:#ffad05;}.cls-14,.cls-17,.cls-21{fill:#f28f1c;}.cls-14,.cls-20,.cls-21,.cls-22,.cls-24,.cls-25{mix-blend-mode:multiply;}.cls-15,.cls-16,.cls-18,.cls-22{fill:#fcd051;}.cls-16{mix-blend-mode:screen;}.cls-17,.cls-18,.cls-22,.cls-23{opacity:0.6;}.cls-19,.cls-20{fill:#6ab42d;}.cls-21{opacity:0.4;}</style></defs><g class="cls-1"><g id="Layer_1" data-name="Layer 1"><ellipse class="cls-2" cx="50.45" cy="52.31" rx="42.3" ry="40.94"/><ellipse class="cls-3" cx="49.55" cy="48.69" rx="42.3" ry="40.94"/><ellipse class="cls-4" cx="49.55" cy="48.69" rx="36.57" ry="35.39"/><ellipse class="cls-5" cx="49.55" cy="48.69" rx="34.09" ry="16.32"/><path class="cls-6" d="M82,48.69c0,8.58-14.54,15.53-32.46,15.53S17.09,57.27,17.09,48.69,31.62,33.15,49.55,33.15,82,40.1,82,48.69Z"/><path class="cls-7" d="M71.48,48.69c0,5.79-9.82,10.49-21.93,10.49s-21.94-4.7-21.94-10.49,9.82-10.5,21.94-10.5S71.48,42.89,71.48,48.69Z"/><ellipse class="cls-8" cx="49.55" cy="48.69" rx="20.34" ry="9.73"/><path class="cls-7" d="M29.05,48.26c0-3.62,3.81-6.8,9.62-8.69-6.61,1.81-11.06,5.21-11.06,9.12,0,5.79,9.82,10.49,21.94,10.49a40.43,40.43,0,0,0,12.31-1.81A41.55,41.55,0,0,1,51,58.75C38.87,58.75,29.05,54.05,29.05,48.26Z"/><path class="cls-9" d="M71.48,48.69A5.38,5.38,0,0,0,71,46.57c-2-4.78-10.89-8.38-21.48-8.38a38.53,38.53,0,0,0-14.12,2.46,40,40,0,0,1,12.76-2c12.11,0,21.93,4.7,21.93,10.5,0,3.23-3,6.11-7.82,8C67.86,55.32,71.48,52.21,71.48,48.69Z"/><path class="cls-10" d="M52.5,33.16h.66c.42,0,1,0,1.82.1a60.83,60.83,0,0,1,6.35.82,51.73,51.73,0,0,1,8.13,2.16,39.67,39.67,0,0,1,3.93,1.68,28.39,28.39,0,0,1,3.45,2,16.28,16.28,0,0,1,2.63,2.28,10.89,10.89,0,0,1,1.68,2.39,8.36,8.36,0,0,1,.52,6.2,10.39,10.39,0,0,1-.52,1.35,7.33,7.33,0,0,1-.46.85l-.18.3.16-.3c.1-.2.24-.49.39-.86A9.78,9.78,0,0,0,81.75,49a8.07,8.07,0,0,0-.17-2.09,8.92,8.92,0,0,0-.82-2.29,10.57,10.57,0,0,0-1.68-2.35,16,16,0,0,0-2.62-2.24,28,28,0,0,0-3.39-2,39.7,39.7,0,0,0-3.86-1.67c-1.34-.49-2.7-.92-4-1.28s-2.67-.67-3.93-.91A59.42,59.42,0,0,0,55,33.32C53.41,33.18,52.5,33.16,52.5,33.16Z"/><path class="cls-11" d="M17.19,50.06a5.41,5.41,0,0,0,.34,1.18,11.16,11.16,0,0,0,1.86,3,16.94,16.94,0,0,0,1.9,1.88A24.08,24.08,0,0,0,24,58.05a30.39,30.39,0,0,0,3.48,1.85,38,38,0,0,0,4.16,1.62,44.78,44.78,0,0,0,4.67,1.26c1.61.34,3.27.61,4.91.8s3.25.32,4.79.4,3,.09,4.36.07c2.71,0,4.95-.18,6.51-.32l1.79-.19.63-.08-.62.09c-.41.06-1,.14-1.78.22s-1.73.17-2.82.25-2.34.14-3.7.16a69.31,69.31,0,0,1-9.26-.41c-1.66-.19-3.34-.46-5-.8a45.36,45.36,0,0,1-4.76-1.27,38.5,38.5,0,0,1-4.19-1.65,29.9,29.9,0,0,1-3.5-1.88,18.06,18.06,0,0,1-4.51-3.89,9.59,9.59,0,0,1-1.71-3,4.55,4.55,0,0,1-.21-.87A1.77,1.77,0,0,1,17.19,50.06Z"/><path class="cls-12" d="M49.55,33.63c-17,0-30.71,6.58-30.71,14.69S32.59,63,49.55,63s30.7-6.58,30.7-14.7S66.5,33.63,49.55,33.63Zm0,28.81c-16.42,0-29.73-6.37-29.73-14.23S33.13,34,49.55,34s29.72,6.37,29.72,14.22S66,62.44,49.55,62.44Z"/><path class="cls-13" d="M71.53,48.56A5.81,5.81,0,0,0,70.7,46c-.56-1-2.25-5.24-2.75-6.23a9.47,9.47,0,0,0-1.35-2.24,14.77,14.77,0,0,0-2.58-2,8.5,8.5,0,0,0-2-1.22c-1-.35-2-.66-3-1a19,19,0,0,0-5.22-.44c-1.69,0-3.69-.54-5.32.05l-.51.2-.54.16c-.8.27-1.43,1.23-1.88,1.86-.74,1.06-1.28,2.24-1.95,3.34C42.07,41,39.85,42.94,38,45.07,36.28,47,34.77,49,33.23,51c-.77,1-1.51,2-2.2,3.1s-1.54,2.21-2.23,3.35c-1.06,1.76-2.11,3.8-.44,5.52,1.44,1.49,3.88,1.67,5.84,1.42a25.87,25.87,0,0,1,4.4-.16c1.44.06,2.85.44,4.29.5a33.14,33.14,0,0,0,8-1,22.5,22.5,0,0,0,3.54-.94,19,19,0,0,1,4.41-1.39c2.46-.34,5-.81,6.93-2.51l.42-.4a11,11,0,0,0,.91-.66,19,19,0,0,0,2-2.07,8.28,8.28,0,0,0,1.09-2.16c.41-.9.92-1.75,1.3-2.67A5.72,5.72,0,0,0,71.53,48.56Z"/><path class="cls-14" d="M28.78,63l0,0a4.77,4.77,0,0,1,3.59-1.25c.81,0,1.62.06,2.43,0a13.77,13.77,0,0,0,2.56-.48A17.87,17.87,0,0,1,42.49,61a46.17,46.17,0,0,0,5.5.36,17.77,17.77,0,0,0,9.12-3.45,44.44,44.44,0,0,0,4.52-3.79,36.16,36.16,0,0,1,3.35-3,11.61,11.61,0,0,0,3.24-3.77,5.67,5.67,0,0,0,.57-2.75,20.83,20.83,0,0,1,0-2.5A13.31,13.31,0,0,0,68,39.76a9.47,9.47,0,0,0-1.35-2.24,14.77,14.77,0,0,0-2.58-2,8.5,8.5,0,0,0-2-1.22c-1-.35-2-.66-3-1a19,19,0,0,0-5.22-.44c-1.69,0-3.69-.54-5.32.05l-.51.2-.54.16c-.8.27-1.43,1.23-1.88,1.86-.74,1.06-1.28,2.24-1.95,3.34C42.07,41,39.85,42.94,38,45.07,36.28,47,34.77,49,33.23,51c-.77,1-1.51,2-2.2,3.1s-1.54,2.21-2.23,3.35c-1.06,1.76-2.11,3.8-.44,5.52a3.31,3.31,0,0,0,.27.26A.57.57,0,0,1,28.78,63Z"/><path class="cls-15" d="M71.53,48.56A5.81,5.81,0,0,0,70.7,46c-.35-.64-.81-1.2-1.15-1.82a2.65,2.65,0,0,0,.26,1.49,5.76,5.76,0,0,1,.8,1.92c.08.48-.18,2.16-1,2.16-.26,0-.47-.11-.74,0s-1.25.67-.76,1.2c0,0,.55.58.67.51a.81.81,0,0,1,.35-.14c.17,0,.47.25.39.44s-.38.4-.57.63.15.63.12,1a1,1,0,0,1-.13.51,8.68,8.68,0,0,0-.77,1.52c-.25.72-.65,1.57-1.58,1.29-1.15-.35-1.23,1.5-2,2a1.65,1.65,0,0,1-1.22.12,5.27,5.27,0,0,0-1.81.34,3.78,3.78,0,0,0-.43.26l-.33.24a3,3,0,0,1-.31.4,2.52,2.52,0,0,1-.66.46,2.58,2.58,0,0,1-1.23.17h0a2,2,0,0,1-.72-.06,4.72,4.72,0,0,1-.53-.18,5.12,5.12,0,0,0-2.22-.21l-.05,0a2.89,2.89,0,0,0-.94.75h0a1.22,1.22,0,0,1-.06.42,1.36,1.36,0,0,1-.8.74,2.5,2.5,0,0,1-1.36,0l-.63.12c-1.38.28-2.78.46-4.16.73a.71.71,0,0,0-.39.35.53.53,0,0,1-.12.14,4.37,4.37,0,0,1-1.86.69A3.76,3.76,0,0,1,42.92,64c-.32-.12-.49-.44-.79-.55l-.06,0a2.39,2.39,0,0,0-1.45,0,4.07,4.07,0,0,1-2.27.12c-.79-.13-1.6-.2-2.39-.29a10.54,10.54,0,0,0-2.63-.1,12.81,12.81,0,0,0-1.89.57,7.31,7.31,0,0,1-1.29.3,9.16,9.16,0,0,0,4.05.31,25.87,25.87,0,0,1,4.4-.16c1.44.06,2.85.44,4.29.5a33.14,33.14,0,0,0,8-1,22.5,22.5,0,0,0,3.54-.94,19,19,0,0,1,4.41-1.39c2.46-.34,5-.81,6.93-2.51l.42-.4a11,11,0,0,0,.91-.66,19,19,0,0,0,2-2.07,8.28,8.28,0,0,0,1.09-2.16c.41-.9.92-1.75,1.3-2.67A5.72,5.72,0,0,0,71.53,48.56Z"/><path class="cls-15" d="M29.76,62.61a1.12,1.12,0,0,1,.64-.75,7.34,7.34,0,0,1,3.1-.2c1.71,0,3.33-.78,5-1a24.44,24.44,0,0,1,5.34,0,26.32,26.32,0,0,0,5.47,0,16.78,16.78,0,0,0,4.81-1.48,20.2,20.2,0,0,0,4.14-2.67c1.38-1.15,2.53-2.51,3.81-3.76s2.82-2.22,4.15-3.43a7.89,7.89,0,0,0,2.5-4.37,8.25,8.25,0,0,0-.14-3.5A10.36,10.36,0,0,0,68,39.76a9.47,9.47,0,0,0-1.35-2.24,14.77,14.77,0,0,0-2.58-2,8.5,8.5,0,0,0-2-1.22c-1-.35-2-.66-3-1a19,19,0,0,0-5.22-.44c-1.69,0-3.69-.54-5.32.05l-.51.2-.54.16c-.8.27-1.43,1.23-1.88,1.86-.74,1.06-1.28,2.24-1.95,3.34C42.07,41,39.85,42.94,38,45.07,36.28,47,34.77,49,33.23,51c-.77,1-1.51,2-2.2,3.1s-1.54,2.21-2.23,3.35c-1.06,1.76-2.11,3.8-.44,5.52a4.41,4.41,0,0,0,1.51,1C30.17,63.59,29.7,63.07,29.76,62.61Z"/><path class="cls-16" d="M69.42,54.1c-.26-.09-.54.35-.63.51a1.15,1.15,0,0,0-.12.25,1.17,1.17,0,0,0-.12.31c0,.17-.06.62.25.52s.42-.39.53-.62a3.22,3.22,0,0,0,.19-.6C69.56,54.34,69.59,54.16,69.42,54.1Z"/><path class="cls-16" d="M67.35,57.16c-.37-.63-1.35-.31-1.61.28a4.37,4.37,0,0,1-.82,1.35c-.8.66-1.84.19-2.75.47-.48.14-1.25.44-1.45,1-.45,1.2,2.59-.17,2.8-.25a5.93,5.93,0,0,0,2.08-1.21,3.08,3.08,0,0,1,1.15-.91,1.19,1.19,0,0,0,.58-.5A.19.19,0,0,0,67.35,57.16Z"/><path class="cls-16" d="M57,60.64a1.76,1.76,0,0,0-2.23.14c-.38.38-1.21,1.72-.15,1.72A4.49,4.49,0,0,0,56.17,62a7.41,7.41,0,0,0,1.58-.57C58.25,61,57.67,60.78,57,60.64Z"/><path class="cls-16" d="M52.75,62.68c-.06-.41-.84-.31-1.32-.22a4.89,4.89,0,0,0-2,.43c-.69.18-1.86,0-2.23.74a.08.08,0,0,0,0,.07c.28.39,1.08.16,1.46.07q.84-.21,1.68-.39c.52-.11,1.07-.06,1.6-.13C52.3,63.2,52.82,63.15,52.75,62.68Z"/><path class="cls-16" d="M42.27,63.76a2.19,2.19,0,0,0-.61-.21.57.57,0,0,0-.52-.06c-.24.1-.71.26-.66.59s.4.28.58.31a1.9,1.9,0,0,0,1.18,0A.35.35,0,0,0,42.27,63.76Z"/><path class="cls-16" d="M35.32,63.41a3.14,3.14,0,0,0-1.06-.11,7.61,7.61,0,0,0-2.72.61s-.12.09-.08.14c.25.31,1.23.28,1.6.27A5.79,5.79,0,0,0,35.45,64C35.84,63.76,35.73,63.53,35.32,63.41Z"/><path class="cls-17" d="M65.76,54.08c-.06-.39-.86-.87-.35-1.19a.61.61,0,0,0-.2-1.12c-.15-.16-.51-.1-.75.07a2.07,2.07,0,0,0-.7.88,3.07,3.07,0,0,1-1.66,1.44,2.29,2.29,0,0,0-1.45,1.61.81.81,0,0,0,1.14.77,1,1,0,0,0,.47-.71.73.73,0,0,0,0-.32C62.13,55,63,55,63.35,55c.83.07,1.5.55,2.18-.23A.92.92,0,0,0,65.76,54.08Z"/><path class="cls-17" d="M69.78,46.89c-.09-.21-.23-.83-.58-.76s-.53.46-.58.74a2.39,2.39,0,0,0,0,.6.46.46,0,0,1,0,.2,2.45,2.45,0,0,0-.3.4c-.17.32-.24.6.08.85s.59,0,.8-.12a1.75,1.75,0,0,0,.8-.79A1.47,1.47,0,0,0,69.78,46.89Z"/><path class="cls-17" d="M67.64,49.22c-.35,0-.58.43-.74.69a6.69,6.69,0,0,1-.63.76l0,0c-.33.3-.57.67-.32,1.06A.79.79,0,0,0,67,52a1.44,1.44,0,0,0,.49-1.06,2.69,2.69,0,0,1,.14-.76c.09-.15.19-.3.27-.46S67.94,49.21,67.64,49.22Z"/><path class="cls-17" d="M60.09,58c-.05-.45-.35-1.11-.9-1.15s-.86.45-1.12.84a4.23,4.23,0,0,1-1.31.8,3.44,3.44,0,0,0-.68.37c-.19.12-.54.38-.41.64s.42.13.57.12a6,6,0,0,1,1.39.24,2.18,2.18,0,0,0,1.9-.19A2.1,2.1,0,0,0,60.09,58Z"/><path class="cls-18" d="M54.18,60.06a1.34,1.34,0,0,0-1.11.14l-.44.1a1.11,1.11,0,0,0-.77.48c-.16.27,0,.46.28.58a1.59,1.59,0,0,0,1.19-.07C53.58,61.19,54.76,60.34,54.18,60.06Z"/><path class="cls-17" d="M48.11,61.71v0a4.51,4.51,0,0,0-1.91-.55,4.6,4.6,0,0,0-1.84.39c-.92.5-.58,1.27.42,1.24a5.45,5.45,0,0,0,.79-.14,6.36,6.36,0,0,1,1.38,0,2,2,0,0,0,1.11-.25C48.46,62.09,48.37,61.87,48.11,61.71Z"/><path class="cls-17" d="M41.65,61.67c-.11-.33-.5-.42-.86-.42a.82.82,0,0,0-.81-.12,9.77,9.77,0,0,0-1.16.48c-.24.11-1.41.82-.74,1.15a3.51,3.51,0,0,0,3.28-.28A.62.62,0,0,0,41.65,61.67Z"/><path class="cls-18" d="M37,61.54a1.52,1.52,0,0,0-.67.09,2.55,2.55,0,0,0-.39.13.71.71,0,0,0-.33.23.35.35,0,0,0,.15.54,1.71,1.71,0,0,0,1.55-.27C37.59,62,37.34,61.57,37,61.54Z"/><path class="cls-19" d="M61.21,57.79s0,0,0,0a1.5,1.5,0,0,1-.36-.11.7.7,0,0,1-.17-.09,1.42,1.42,0,0,0-.1.29,1.09,1.09,0,0,0,.55.33l0,0A1.57,1.57,0,0,0,61.21,57.79Z"/><path class="cls-20" d="M61.16,58.16a1.55,1.55,0,0,0,0-.21,4.24,4.24,0,0,1-.59-.23.65.65,0,0,0,0,.13,1.09,1.09,0,0,0,.55.33Z"/><path class="cls-19" d="M56.12,59.83l0,0a3.6,3.6,0,0,1,0,.65c0,.09,0,.2-.07.3a1.44,1.44,0,0,0,.36.07,2.2,2.2,0,0,0,.28-1,.33.33,0,0,0,0-.06A1.18,1.18,0,0,0,56.12,59.83Z"/><path class="cls-20" d="M56.58,59.8a1.22,1.22,0,0,0-.27,0,9.48,9.48,0,0,1-.14,1.07l.16,0a2.2,2.2,0,0,0,.28-1A.33.33,0,0,0,56.58,59.8Z"/><path class="cls-19" d="M49.4,62.15s0,0,0,0a1.6,1.6,0,0,1,.22.31.71.71,0,0,1,.08.15.82.82,0,0,0,.19-.09,1.44,1.44,0,0,0-.25-.55h0A.61.61,0,0,0,49.4,62.15Z"/><path class="cls-20" d="M49.59,62a.47.47,0,0,0-.12.09,5.69,5.69,0,0,1,.33.52l.08-.05a1.44,1.44,0,0,0-.25-.55Z"/><path class="cls-19" d="M47.23,63.58v0a1.58,1.58,0,0,1-.37-.11.65.65,0,0,1-.16-.09,1.42,1.42,0,0,0-.1.29,1.06,1.06,0,0,0,.54.33l0,0A1,1,0,0,0,47.23,63.58Z"/><path class="cls-20" d="M47.18,64a1.6,1.6,0,0,0,0-.21,3.8,3.8,0,0,1-.59-.23.65.65,0,0,0,0,.13,1.06,1.06,0,0,0,.54.33Z"/><path class="cls-19" d="M42.63,62.22l0,0a4.53,4.53,0,0,1-.28.59,2,2,0,0,1-.18.25,1.55,1.55,0,0,0,.32.2,2.39,2.39,0,0,0,.63-.86.15.15,0,0,0,0-.07A1.12,1.12,0,0,0,42.63,62.22Z"/><path class="cls-20" d="M43.07,62.35a1,1,0,0,0-.24-.09c-.17.32-.33.64-.53.94l.15.08a2.39,2.39,0,0,0,.63-.86A.15.15,0,0,0,43.07,62.35Z"/><path class="cls-19" d="M35.5,62.08s0,0,0,0a2.37,2.37,0,0,1,.09.36s0,.11,0,.17a.71.71,0,0,0,.21,0,1.22,1.22,0,0,0,0-.6l0,0A.54.54,0,0,0,35.5,62.08Z"/><path class="cls-20" d="M35.74,62a.43.43,0,0,0-.14,0c0,.2.09.4.11.6l.09,0a1.22,1.22,0,0,0,0-.6Z"/><path class="cls-19" d="M33,62.67s0,0,0,0a1.66,1.66,0,0,1-.3-.22l-.12-.14a2.2,2.2,0,0,0-.2.23,1.08,1.08,0,0,0,.39.5h.05A1.52,1.52,0,0,0,33,62.67Z"/><path class="cls-20" d="M32.77,63a1.74,1.74,0,0,0,.11-.18,4.58,4.58,0,0,1-.46-.42l-.09.11a1.08,1.08,0,0,0,.39.5Z"/><path class="cls-21" d="M67.18,50.87c-.07-.17-.27-.15-.42-.1h0c-.28.12-.66.44-.64.77a.41.41,0,0,0,.27.33.57.57,0,0,0,.47-.09A.77.77,0,0,0,67.18,50.87Z"/><path class="cls-21" d="M64.55,55.54h0l-.36.08a.55.55,0,0,0-.37.67.8.8,0,0,0,.7.49c.65.1,1.55-.16,1.64-.91S64.94,55.41,64.55,55.54Z"/><path class="cls-21" d="M47.26,61.66a1.69,1.69,0,0,0-.71-.18,2.15,2.15,0,0,0-.47-.06,1.42,1.42,0,0,0-1,.24c-.21.21-.06.44.15.56a2,2,0,0,0,1,.08,4.15,4.15,0,0,1,.61,0,.55.55,0,0,0,.45-.07A.33.33,0,0,0,47.26,61.66Z"/><path class="cls-21" d="M40.5,61.48a1.47,1.47,0,0,0-.77.16l-.07,0a1.86,1.86,0,0,0-1,.42c-.22.25.1.45.32.53a2.07,2.07,0,0,0,1.28,0c.29-.1.66-.31.72-.64S40.8,61.52,40.5,61.48Z"/><path class="cls-21" d="M33.61,62a4.73,4.73,0,0,0-2.33.26l-.17,0a.58.58,0,0,0-.31.93c.31.28.95,0,1.34-.21a1.76,1.76,0,0,0,.56-.18,5.45,5.45,0,0,1,1.28-.1.41.41,0,0,0,.38-.2C34.65,62.12,33.79,62,33.61,62Z"/><path class="cls-21" d="M58.48,57.52a2.08,2.08,0,0,0-.56.9,1.1,1.1,0,0,0-.31.26c-.46.59.62.92,1.07.85.67-.1,1-1,1-1.53S59,57.09,58.48,57.52Z"/><path class="cls-15" d="M45.43,63a1.42,1.42,0,0,0-.68-.05,1.14,1.14,0,0,1-.58,0,.74.74,0,0,0-.48-.11l-.09,0a.54.54,0,0,0-.45.56c0,.32.35.51.62.59A2.3,2.3,0,0,0,45,63.81c.29-.08.52-.13.63-.43A.32.32,0,0,0,45.43,63Z"/><path class="cls-15" d="M43.4,61.28c-.09-.15-.33-.18-.49-.18a2,2,0,0,0-.62.15l-.09,0c-.16,0-.31.15-.38.28-.18.39.83.35,1,.3S43.63,61.66,43.4,61.28Z"/><path class="cls-22" d="M62,36.91a2.83,2.83,0,0,0-.91-1.68,8.16,8.16,0,0,0-1.92-.88,9.61,9.61,0,0,0-2.17-1,7.69,7.69,0,0,0-2.39.16,8.19,8.19,0,0,1-3-.24,7.9,7.9,0,0,0-2.36.31,3.21,3.21,0,0,0-1.48.6,4.83,4.83,0,0,0-.9.63c-.86.7-.84,1.65-1.46,2.48-.35.49-.8.88-1.14,1.38s-.56.91-.87,1.35a26.31,26.31,0,0,1-2.72,3.25,20.2,20.2,0,0,0-2.27,2.54c-.84,1.15-1.14,2.51-2.06,3.61s-1.54,2-2.33,2.95A13.64,13.64,0,0,0,32,55c-.2.45-.41,1.28.22,1.56a1.57,1.57,0,0,0,1.07,0c1.07-.24.79.68,1.28,1.15a2.19,2.19,0,0,0,2.22.49,3.93,3.93,0,0,0,1-.73A5.64,5.64,0,0,1,38.4,57c.35-.19.77.43.94.62.54.57,1.29.13,1.76-.27s.79-.78,1.54-.55a3.78,3.78,0,0,1,1.6,1c1.56,1.56,4,.2,5.49-.79.38-.25.76-.52,1.24-.24a1.09,1.09,0,0,0,.77.11,3.93,3.93,0,0,0,1.61-1,3.47,3.47,0,0,0,.7-.83c.33-.53.64-1.62,1.57-1.41a2.69,2.69,0,0,0,1.82-.29A2.45,2.45,0,0,0,58.65,52c.07-.36,0-.75.08-1.1a6.75,6.75,0,0,0,.93-.24,3.62,3.62,0,0,0,1.59-1.33,5.22,5.22,0,0,0,.52-.88,2.25,2.25,0,0,0,.14-.48v0c.28-.4.4-.77.9-1a1.94,1.94,0,0,0,.69-.38A2.78,2.78,0,0,0,64.27,45a10.89,10.89,0,0,0,.27-2.12c0-.77.27-1.52.26-2.3C64.76,38.68,62.49,38.58,62,36.91Z"/><g class="cls-23"><path class="cls-22" d="M51.06,35.53a7.24,7.24,0,0,0,1,.22c.3,0,1.12.17,1.21.56s-.19.62-.41.85a1.8,1.8,0,0,0-.69,1.4c.17.59.44,1.24.27,1.61-.46.91-1.86,1-1.92,2.07,0,.77-.22,2.35.38,3,.82.82,1.44-1.06,1.78-1.58.2-.3.48-.66.91-.57s1.15.53,1,1c-.19.67.68.57,1.19.63a1.59,1.59,0,0,1,1,.4c.57.54,1.48,1.11,1.71-.15.1-.55-.17-.77-.38-1.21a1.22,1.22,0,0,1,.15-1.53c.21-.16.46-.27.68-.42a1.11,1.11,0,0,0,.18-1.63c-.62-.84-2.2-1.61-1.71-2.83.25-.61,1.8-1.15,1.56-1.86-.33-.93-1.39-1.09-2.29-1.11s-1.66.08-2.48,0a12.26,12.26,0,0,0-2.7-.17C50.8,34.33,50.06,35.2,51.06,35.53Z"/><path class="cls-22" d="M60.83,38.77c-1.25-.1-.72,1-.39,1.33s1,.72,1.45,1.18.18,1.21.18,1.9a.28.28,0,0,1-.29.23,2,2,0,0,0-1.18.45c-.23.31-.21.69.33,1a4.54,4.54,0,0,1,.83.47c.49.36.38.95.55,1.45s.84-.17.95-.32a2.54,2.54,0,0,0,.5-1A10.62,10.62,0,0,0,64,43.91a3.32,3.32,0,0,0-.36-2.62c-.48-.58-1.06-1.12-1.59-1.66C61.73,39.31,61.3,38.8,60.83,38.77Z"/><path class="cls-22" d="M59.91,47a3.67,3.67,0,0,0-1.4.17,7.8,7.8,0,0,0-2.06,1c-.31.22-.85.68-1.28.52s-.55-.42-.37-.8.54-.72.51-1a.78.78,0,0,0-1.12-.57c-1,.35-.78,1.36-.72,2.2.13.59-.4,1.6.51,1.7,1.12.13,1.93-1.24,2.94-1.55.75-.23,1.39.14,1.29.94-.07.52-.26,1-.31,1.56,0,.19-.08.63.28.58.83-.12,1-.78,1-1.42a1.53,1.53,0,0,1,.33-1.34c.34-.33.84-.46,1.19-.77C61.22,47.66,60.43,47,59.91,47Z"/><path class="cls-22" d="M54.49,51a9.42,9.42,0,0,0-1.82,1c-.2.12-.86.58-1.1.24-.42-.58-.49-1.16-1.34-1.34-1.18-.25-1.24.47-1.77,1.16a.78.78,0,0,1-.79.35A1.52,1.52,0,0,1,47,52c-.12-.12-.22-.27-.34-.38a.65.65,0,0,0-.33.71,1.45,1.45,0,0,1-.52,1,2.49,2.49,0,0,1-.86,1.14,2.09,2.09,0,0,1-1,.29,5.79,5.79,0,0,0-.72,0c-1,.48-1.19.88-.6,1.22s1.45-.08,2.12.26c.88.44,1.67,1.29,2.77,1.12s1.61-.93,2.36-1.53a4.49,4.49,0,0,1,1.69-.88c1.28-.38,3-.83,3.81-1.94C55.78,52.29,55.78,50.54,54.49,51Z"/><path class="cls-22" d="M48,37.1c-.14-.6.42-.92.52-1.47s0-1.3-.67-1.07a3,3,0,0,0-.92.56,3.41,3.41,0,0,0-1.17,1.5.27.27,0,0,1-.25.18,3.82,3.82,0,0,0-.18.51,6.83,6.83,0,0,1-.58,1.56,4.23,4.23,0,0,1-1,1.35,7.6,7.6,0,0,0-1.54,1.28c-.44.6-.82,1.22-1.3,1.79A11.89,11.89,0,0,0,39.67,45a9.22,9.22,0,0,1-2.06,2.35A11.21,11.21,0,0,0,36.18,49c-.38.47-.82.9-1.16,1.38s-.58,1.25-1,1.83a8,8,0,0,1-.89,1A3.94,3.94,0,0,0,32,54.79c-.13.53.24,1.21.92.8.12-.07.25-.15.38-.21.77-.29,1.18.14,1.67.66a1.24,1.24,0,0,0,2-.16,6.59,6.59,0,0,0,.42-1.12,2,2,0,0,1,1-1.34,3,3,0,0,1,2.12.27,2,2,0,0,0,2.79-1.32c.27-.85.73-2.31-.13-3a18.93,18.93,0,0,1-2.06-1.31c-1.31-1.36,1.23-2.13,1.52-3.23a4.19,4.19,0,0,1,1.19-2.05,10.06,10.06,0,0,0,1.3-2.18,1.64,1.64,0,0,1,1.4-.87,3.08,3.08,0,0,1,1.08.2,1.88,1.88,0,0,0,.74.11c.35-.06,1.75-.64,1.51-1.23C49.6,38.05,48.24,37.93,48,37.1Z"/></g><path class="cls-16" d="M68,40.85a2.46,2.46,0,0,0-.52-1A3.9,3.9,0,0,1,67,38.77a1.43,1.43,0,0,0-.62-.82c-.15-.21-.29-.37-.44-.4-.12-.28-.53-.54-.7-.7a3.83,3.83,0,0,0-1.86-1.15c-.05,0-.1,0-.13.06-.25.08-.43.32-.4.76a1,1,0,0,0,.41.6c.4.34.82.64.89,1.2.1.78.21,1.28,1.13,1.32.21,0,.52.08.68-.06.08.12.17.23.25.33a1.57,1.57,0,0,1,.33,1.24.56.56,0,0,0,.06.34c.21.35.54.8,1,.58S68,41.27,68,40.85Z"/><path class="cls-16" d="M68.32,43.5a4.46,4.46,0,0,0,.12-.54.9.9,0,0,0-.47-.8c-.22-.11-.38.12-.46.33a.88.88,0,0,0-.32.26c-.26.42.09,1.09-.55,1.32s-1.1.68-1,1.28c.22,1.18-1.24,1.56-1.15,2.69.05.58.55.81,1,.39a3.25,3.25,0,0,0,.82-1c.21-.42.89-.56,1.26-.84a2.73,2.73,0,0,0,.8-2C68.37,44.18,68.32,43.84,68.32,43.5Z"/><path class="cls-16" d="M64.49,48.79a.89.89,0,0,0-1.07.38,1,1,0,0,0-.14.25,1,1,0,0,0-.05,1c.33.49.89-.08,1.16-.27s1-.44,1.08-.94S64.74,48.89,64.49,48.79Z"/><path class="cls-16" d="M62.22,50.25a.83.83,0,0,0-.75.38A2.5,2.5,0,0,0,60.28,52c-.19.85-.72,1.11-1.37,1.55l0,0a1.11,1.11,0,0,0-.82.79c-.33.88-1.56.34-2.28.64s-.44,1.37-1.14,1.73-1.38.49-2,.87c-.23.15-.29.37-.46.57a1.31,1.31,0,0,1-1.31.26c-.16-.2-.06-.14-.26-.31a.88.88,0,0,0-1.06.15c-.3.3-.47.58-1,.69a13.52,13.52,0,0,1-1.42.08c-.51.06-1,.17-1.51.18a1.39,1.39,0,0,0-.72.17c-.83.56,1.23.94,1.65.88a6.1,6.1,0,0,1,1.81-.14,5.29,5.29,0,0,0,1.19.07,14.47,14.47,0,0,0,2.59-.66c.83-.26,1.37-1,2.25-1.07s1.43-.84,2-1.3c.36-.28.86-.31,1.23-.58a4.25,4.25,0,0,0,.84-.74c.23-.29.35-.86.65-1.06a.41.41,0,0,0,.11-.12,6.09,6.09,0,0,0,.85-.64c.49-.42.62-1.25,1.21-1.55s1.51-.39,1.63-1.08S62.93,50.28,62.22,50.25Z"/><path class="cls-16" d="M41,59.41a.71.71,0,0,0-.42-.56,6.3,6.3,0,0,0-1.07-.66,3.18,3.18,0,0,0-2.22.24,2.4,2.4,0,0,0-.78.4c-.26.23-.46.68-.86.68-1,0-2,.14-3,.14a8.94,8.94,0,0,1-1,0c-.81-.07-.36-.77-.43-1.23s-.47-.79-.88-.61a2.08,2.08,0,0,0-.53.49c-.34.32-.72.56-1,.89-.59.62-.06,1.33-.66,1.93s.8,2,1.42,1.33a.91.91,0,0,0,.31-.5c.17-.72,1-.88,1.68-.9a6.89,6.89,0,0,1,1.87,0c.38.08.76.17,1.15.23a2.18,2.18,0,0,0,.93-.24,15.34,15.34,0,0,1,1.76-.5A9.55,9.55,0,0,0,38.32,60l.25-.09c.27,0,.56,0,.85,0s.46.29.75.27S41.07,59.85,41,59.41Z"/><path class="cls-16" d="M43.43,58a1,1,0,0,0-.81-.44,2.93,2.93,0,0,0-1.34.15l-.12.06h0l0,0a.57.57,0,0,0-.3.43c0,.61.75,1.79,1.5,1.32C42.69,59.34,43.76,58.6,43.43,58Z"/><path class="cls-15" d="M36.62,54c-.26-.25-.66,0-.86.19a.62.62,0,0,0-.14.19.94.94,0,0,0-.26.57.42.42,0,0,0,.54.37,1,1,0,0,0,.7-.51C36.73,54.54,36.83,54.16,36.62,54Z"/><path class="cls-15" d="M40.68,54.21a1.59,1.59,0,0,0-2.46.44,1.24,1.24,0,0,0-.12.63.67.67,0,0,0,.25.75,2.35,2.35,0,0,0,1.57.12A1.11,1.11,0,0,0,40.68,54.21Z"/><path class="cls-15" d="M45.44,52c-.15-.26-.57-.38-.83-.47a.55.55,0,0,0-.68.4,1.8,1.8,0,0,0,0,.46c0,.06.15.47.24.41h0a.63.63,0,0,0-.38.12,1.26,1.26,0,0,0-.51.76c0,.28.35.37.55.4a1.64,1.64,0,0,0,1-.22,1.13,1.13,0,0,0,.57-.78C45.45,52.68,45.64,52.35,45.44,52Z"/><path class="cls-15" d="M49.59,54.14a1.59,1.59,0,0,0-1.83-.62,4.17,4.17,0,0,0-.86.3,4.41,4.41,0,0,0-1,.85l0,0a1.56,1.56,0,0,0-.43.13.66.66,0,0,0-.27.64c.09.72.79.82,1.38.81a3.08,3.08,0,0,0,2.37-.61C49.3,55.35,49.94,54.68,49.59,54.14Z"/><path class="cls-15" d="M42.32,54.08h0a.71.71,0,0,0-.14.1h0a.27.27,0,0,0-.08.27.2.2,0,0,0,.25.16.44.44,0,0,0,.34-.35v-.05C42.68,54,42.48,54,42.32,54.08Z"/><path class="cls-15" d="M61.27,45.36c0-.21-.27-.34-.46-.41a3.61,3.61,0,0,0-.57-.12.67.67,0,0,0-.58.12.72.72,0,0,0-.29.79.48.48,0,0,0,0,.6,1.13,1.13,0,0,0,.81.28,1.2,1.2,0,0,0,1-.71A1.15,1.15,0,0,0,61.27,45.36Z"/><path class="cls-15" d="M56.63,46.52a.5.5,0,0,0-.35.1.44.44,0,0,0-.15.05c-.22.12-.42.43-.24.66s.37.07.5,0a.76.76,0,0,0,.44-.55A.23.23,0,0,0,56.63,46.52Z"/><path class="cls-15" d="M57.47,35.75h0a.34.34,0,0,0-.37-.15h0a.7.7,0,0,0-.5.43.35.35,0,0,0,.16.47h.06c.12.1.32,0,.42-.09l.12-.14h0A.5.5,0,0,0,57.47,35.75Z"/><path class="cls-15" d="M41.75,43.46c-.24.22-.6.33-.86.54a1,1,0,0,0-.35,1.21c.22.43,1.16,0,1.36-.2a2.76,2.76,0,0,0,.44-1c.14-.44.64-.78,1-1.09s.93-1,.67-1.5-.86-.19-1.27.36a2.6,2.6,0,0,0-.49.76"/><path class="cls-15" d="M48,37.69c0-.16-.2-.31-.31-.41-.48-.46-.25-.81.06-1.3.2-.31.41-1.44-.35-1.11a1.17,1.17,0,0,0-.56.56,1.23,1.23,0,0,0-.33.55c0,.4.14.7-.3,1.06a2.16,2.16,0,0,0-.37.43,1,1,0,0,0-.19,1c.12.33.64.36.92.42a1.11,1.11,0,0,0,1.13-.25A1.18,1.18,0,0,0,48,37.69Z"/><path class="cls-15" d="M45.09,39.23a.34.34,0,0,0-.23.1.37.37,0,0,0-.18.17.2.2,0,0,0,0,.27c.09.08.22,0,.31,0a.39.39,0,0,0,.24-.23A.19.19,0,0,0,45.09,39.23Z"/><path class="cls-15" d="M50.16,35.68a.67.67,0,0,0-.2.12.73.73,0,0,0-.24.07,1.06,1.06,0,0,0-.6,1c.09.52.53.61,1,.72s.1,1.06.8,1.08a1.12,1.12,0,0,0,1-.76,2.14,2.14,0,0,0,.14-.71c0-.12,0-.23,0-.35s.24-.19.26-.23C53,35.6,50.7,35.44,50.16,35.68Z"/><path class="cls-15" d="M53.36,34.55a.7.7,0,0,0-.63,0l-.1,0h0a.62.62,0,0,0-.46.37.51.51,0,0,0,.12.55.84.84,0,0,0,.62.1C53.3,35.51,53.84,34.87,53.36,34.55Z"/><path class="cls-15" d="M53.87,39.34c0-.1-.09-.15-.19-.17a.35.35,0,0,0-.35.4c0,.13,0,.27.17.28a.41.41,0,0,0,.39-.34A.32.32,0,0,0,53.87,39.34Z"/><path class="cls-15" d="M54.4,44.47a.69.69,0,0,0-.94-.3.63.63,0,0,0-.29.42.74.74,0,0,0-.14.23.76.76,0,0,0,.37.94.73.73,0,0,0,1.06-.18A1.13,1.13,0,0,0,54.4,44.47Z"/><path class="cls-15" d="M57.77,50.23c0-.47-.48-1.29-1.1-1a1.35,1.35,0,0,0-.38.33h0a.78.78,0,0,0-.45.55c-.06.35.16.54.24.86,0,.14-.11.31-.18.41a.94.94,0,0,0-.14.51.81.81,0,0,0,.3.68c.47.39,1.09-.19,1.33-.54A3,3,0,0,0,57.77,50.23Z"/><path class="cls-15" d="M59.21,48a.24.24,0,0,0-.17-.21.57.57,0,0,0-.67.4.43.43,0,0,0,0,.25.28.28,0,0,0,.27.24.69.69,0,0,0,.49-.21A.45.45,0,0,0,59.21,48Z"/><path class="cls-15" d="M61.79,37a1,1,0,0,0-1.65-.62,1.28,1.28,0,0,0-.24.31,1.37,1.37,0,0,0-.48.59c-.17.75.78,1,1.36,1A1,1,0,0,0,61.79,37Z"/><g class="cls-24"><path class="cls-25" d="M56.27,42.74a1.48,1.48,0,0,0-.28-.61l0,0-.1.07,0,0h0l-.08.09a0,0,0,0,0,0,0,2.08,2.08,0,0,1,.24.34l.09.17.12-.05h0Z"/><path class="cls-25" d="M53.31,43.86a1.91,1.91,0,0,1-.41-.11l-.18-.1c0,.05,0,.11-.07.17h0a.74.74,0,0,0,0,.14,1.17,1.17,0,0,0,.6.37l0,0a1.55,1.55,0,0,0,.05-.23h0c0-.06,0-.12,0-.17A.06.06,0,0,1,53.31,43.86Z"/><path class="cls-25" d="M41.88,49.63h0a.91.91,0,0,0-.33,0l0,0a3.6,3.6,0,0,1,0,.66c0,.1,0,.21-.07.31l.21.06h.16a2.47,2.47,0,0,0,.29-1,.09.09,0,0,0,0-.06Z"/><path class="cls-25" d="M43.57,50.7a.33.33,0,0,0-.1.06l0,0h0l-.07.08s0,0,0,0a1.34,1.34,0,0,1,.22.31.8.8,0,0,1,.08.16l.11,0h0l.09,0a1.35,1.35,0,0,0-.26-.57Z"/><path class="cls-25" d="M41.13,52.31a1.58,1.58,0,0,1-.37-.11.56.56,0,0,1-.17-.09l-.06.16h0a.93.93,0,0,0,0,.13,1.07,1.07,0,0,0,.56.34l0,0a1.3,1.3,0,0,0,0-.21h0a1,1,0,0,0,0-.17A0,0,0,0,0,41.13,52.31Z"/><path class="cls-25" d="M48.78,38.29l-.09.07h0l-.07.08s0,0,0,0a2.32,2.32,0,0,1,.22.3c0,.05.05.1.07.16L49,38.9h0l.08,0a1.19,1.19,0,0,0-.24-.55Z"/><path class="cls-25" d="M46.41,39.86a1.48,1.48,0,0,1-.36-.1.51.51,0,0,1-.16-.09,1,1,0,0,0-.07.15h0s0,.09,0,.13a1.06,1.06,0,0,0,.55.33l0,0a1.18,1.18,0,0,0,0-.2h0a.86.86,0,0,0,0-.16A0,0,0,0,0,46.41,39.86Z"/><path class="cls-25" d="M50.57,52.07h0a1,1,0,0,0-.29-.07h0a3.59,3.59,0,0,1-.24.53c0,.07-.1.15-.16.22l.15.11h0l.13.07a2,2,0,0,0,.56-.77.13.13,0,0,0,0-.06Z"/><path class="cls-25" d="M53.64,45.54l-.12,0h0l-.08.05h0a1.87,1.87,0,0,1,.08.32.77.77,0,0,1,0,.15h.18a1.18,1.18,0,0,0,0-.53Z"/><path class="cls-25" d="M50.8,45.8l-.1.11h0l-.07.09a.89.89,0,0,0,.34.44h0a.86.86,0,0,0,.1-.16h0a.38.38,0,0,0,.06-.13s0,0,0,0a1.05,1.05,0,0,1-.27-.2A.43.43,0,0,1,50.8,45.8Z"/></g><path class="cls-19" d="M55.74,42.12a0,0,0,0,0,0,0,2.08,2.08,0,0,1,.24.34.89.89,0,0,1,.08.17.62.62,0,0,0,.22-.1A1.48,1.48,0,0,0,56,42l0,0A.77.77,0,0,0,55.74,42.12Z"/><path class="cls-19" d="M53.32,43.72a.06.06,0,0,1,0,0,1.91,1.91,0,0,1-.41-.11l-.18-.1a1.92,1.92,0,0,0-.11.31,1.1,1.1,0,0,0,.6.37l0,0A1.45,1.45,0,0,0,53.32,43.72Z"/><path class="cls-20" d="M52.65,43.64a1,1,0,0,0,0,.14,1.1,1.1,0,0,0,.6.37l0,0a1.55,1.55,0,0,0,.05-.23"/><path class="cls-19" d="M41.54,49.49l0,0a3.77,3.77,0,0,1,0,.67,2.37,2.37,0,0,1-.08.31,1.8,1.8,0,0,0,.38.07,2.43,2.43,0,0,0,.29-1,.13.13,0,0,0,0-.06A1.25,1.25,0,0,0,41.54,49.49Z"/><path class="cls-20" d="M42,49.46a1.22,1.22,0,0,0-.27,0c0,.37-.07.74-.14,1.1l.16,0a2.43,2.43,0,0,0,.29-1A.13.13,0,0,0,42,49.46Z"/><path class="cls-19" d="M43.37,50.69s0,0,0,0a2.18,2.18,0,0,1,.22.31.8.8,0,0,1,.08.16.72.72,0,0,0,.2-.09,1.48,1.48,0,0,0-.26-.57h0A.61.61,0,0,0,43.37,50.69Z"/><path class="cls-20" d="M43.56,50.52a.47.47,0,0,0-.12.09,4.34,4.34,0,0,1,.33.54l.09,0a1.48,1.48,0,0,0-.26-.57Z"/><path class="cls-19" d="M41.14,52.17s0,0,0,0a1.58,1.58,0,0,1-.37-.11.56.56,0,0,1-.17-.09c0,.09-.08.2-.11.29a1.07,1.07,0,0,0,.57.34l0,0A1.19,1.19,0,0,0,41.14,52.17Z"/><path class="cls-20" d="M41.08,52.54a.72.72,0,0,0,.05-.21,3.85,3.85,0,0,1-.61-.24.5.5,0,0,1,0,.13,1.07,1.07,0,0,0,.57.34Z"/><path class="cls-19" d="M48.59,38.28a0,0,0,0,0,0,0,2,2,0,0,1,.21.3.8.8,0,0,1,.08.16.56.56,0,0,0,.19-.09,1.25,1.25,0,0,0-.25-.55l0,0A.53.53,0,0,0,48.59,38.28Z"/><path class="cls-19" d="M46.42,39.72a.06.06,0,0,0,0,0,1.14,1.14,0,0,1-.36-.1.7.7,0,0,1-.17-.09c0,.09-.08.19-.1.28a1.06,1.06,0,0,0,.55.33l0,0A1.49,1.49,0,0,0,46.42,39.72Z"/><path class="cls-20" d="M46.37,40.08a1.12,1.12,0,0,0,0-.21,4.19,4.19,0,0,1-.59-.22s0,.08,0,.12a1.06,1.06,0,0,0,.55.33Z"/><path class="cls-19" d="M50.28,51.82l0,0a3.48,3.48,0,0,1-.24.52c0,.07-.1.15-.16.22a1.21,1.21,0,0,0,.28.18,2.06,2.06,0,0,0,.56-.76.11.11,0,0,0,0-.06A.89.89,0,0,0,50.28,51.82Z"/><path class="cls-20" d="M50.67,51.94a.73.73,0,0,0-.22-.09,6.19,6.19,0,0,1-.46.84l.13.07a2.06,2.06,0,0,0,.56-.76A.11.11,0,0,0,50.67,51.94Z"/><path class="cls-19" d="M53.43,45.45l0,0a1.77,1.77,0,0,1,.08.31.81.81,0,0,1,0,.16l.19,0a1.06,1.06,0,0,0,0-.53l0,0A.49.49,0,0,0,53.43,45.45Z"/><path class="cls-20" d="M53.64,45.37a.31.31,0,0,0-.13,0,4.94,4.94,0,0,1,.1.53h.08a1.06,1.06,0,0,0,0-.53Z"/><path class="cls-19" d="M51.17,46s0,0,0,0a1.21,1.21,0,0,1-.26-.2.43.43,0,0,1-.11-.12,1.63,1.63,0,0,0-.17.2.85.85,0,0,0,.34.44s0,0,0,0A1.18,1.18,0,0,0,51.17,46Z"/><path class="cls-20" d="M51,46.26a.86.86,0,0,0,.1-.16,3.6,3.6,0,0,1-.41-.37l-.07.09a.85.85,0,0,0,.34.44S51,46.26,51,46.26Z"/><path class="cls-16" d="M47.75,54.1a.9.9,0,0,0-1,.2.76.76,0,0,0-.27.59.35.35,0,0,0,.32.34.57.57,0,0,0,.13,0l.16,0a.82.82,0,0,0,.67-.3C48,54.71,48.1,54.28,47.75,54.1Z"/><path class="cls-16" d="M41.45,44.34a.22.22,0,0,0-.27-.09.52.52,0,0,0-.4.33.27.27,0,0,0,0,.31.31.31,0,0,0,.32,0,.6.6,0,0,0,.31-.32A.3.3,0,0,0,41.45,44.34Z"/><path class="cls-16" d="M46.91,37.65a.45.45,0,0,0,0-.11c0-.12-.18-.14-.29-.12a.56.56,0,0,0-.45.54c0,.13.14.2.25.21a.61.61,0,0,0,.51-.28A.23.23,0,0,0,46.91,37.65Z"/><path class="cls-16" d="M46.89,38.25a.4.4,0,0,0-.45.26c0,.15,0,.36.24.3a.44.44,0,0,0,.31-.2C47.07,38.48,47.08,38.32,46.89,38.25Z"/><path class="cls-16" d="M52.28,41.52a.39.39,0,0,0-.28,0c-.31.07-.66.42-.51.75a.19.19,0,0,0,.16.13.22.22,0,0,0,.15.11c.33.09.65-.39.66-.66A.3.3,0,0,0,52.28,41.52Z"/><path class="cls-16" d="M56.56,38.3a.41.41,0,0,0-.2-.17.5.5,0,0,0-.38,0,.84.84,0,0,0-.44.41.58.58,0,0,0-.07.32.33.33,0,0,0,.24.27h0a.42.42,0,0,0,.35,0,.81.81,0,0,0,.38-.33A.55.55,0,0,0,56.56,38.3Z"/><path class="cls-16" d="M61,37.06a.39.39,0,0,0-.19-.17.58.58,0,0,0-.39,0,.79.79,0,0,0-.43.41.69.69,0,0,0-.08.32.35.35,0,0,0,.24.27h.05a.39.39,0,0,0,.35,0,.81.81,0,0,0,.39-.34A.53.53,0,0,0,61,37.06Z"/><path class="cls-16" d="M60,39.45a.26.26,0,0,0-.37-.09.57.57,0,0,0-.28.27.46.46,0,0,0-.05.2.24.24,0,0,0,.16.18h0a.24.24,0,0,0,.22,0A.54.54,0,0,0,60,39.8.34.34,0,0,0,60,39.45Z"/><path class="cls-15" d="M63.71,43.39a.51.51,0,0,0-.27-.23.7.7,0,0,0-.51,0,1.08,1.08,0,0,0-.59.56.75.75,0,0,0-.1.42.46.46,0,0,0,.33.37h.06a.52.52,0,0,0,.47,0,1.1,1.1,0,0,0,.52-.45A.69.69,0,0,0,63.71,43.39Z"/><path class="cls-16" d="M56.56,39.85a.57.57,0,0,0-.51.36c-.06.17,0,.41.22.41a.57.57,0,0,0,.51-.36C56.84,40.09,56.78,39.85,56.56,39.85Z"/></g></g></svg>