<svg id="Layer_1" data-name="Layer 1" xmlns="http://www.w3.org/2000/svg" viewBox="0 0 100 100"><defs><style>.cls-1{opacity:0.5;}.cls-2{fill:#fff200;stroke:#494949;stroke-miterlimit:10;}.cls-3{fill:#a6c914;}.cls-4{fill:#282828;}.cls-5{fill:#f4bcae;}.cls-6{fill:#e8bbaa;opacity:0.52;}.cls-10,.cls-6{isolation:isolate;}.cls-10,.cls-7{fill:#fff;}.cls-8{fill:#190800;}.cls-9{fill:#26170f;}.cls-10{opacity:0.6;}.cls-11{fill:#db7d71;}.cls-12{fill:#e59383;}.cls-13{fill:#f8979d;}.cls-14{fill:#191c24;}.cls-15{fill:#323232;}.cls-16{fill:#930290;}.cls-17{fill:#ed07e7;}.cls-18{fill:#c61ec6;}.cls-19{fill:#ff24ff;}.cls-20{opacity:0.1;}</style></defs><ellipse class="cls-1" cx="50.45" cy="52.31" rx="42.3" ry="40.94"/><ellipse class="cls-2" cx="49.55" cy="48.69" rx="42.3" ry="40.94"/><ellipse class="cls-3" cx="49.55" cy="48.69" rx="36.57" ry="35.39"/><path class="cls-4" d="M44,31.23c-2.77-1-10.22,6.35-13.42,16.89-2,6.72-1.32,17.22,1.64,21.53,1.65,2.39,13.66,6.19,15.27-.8-3.87.55-8-4-8.46-6-1-4.5-.68-20.72,1.76-22.27S46.61,32.18,44,31.23Z"/><path class="cls-4" d="M72,49.17c2.77,6.48,1.74,17.72-1.69,21.72-1.88,2.21-15,7.65-15.87.53,3.77.93,6-6.4,6.69-8.38,1.54-4.37-1.16-15.36-3.4-17.15S65.89,35,72,49.17Z"/><path class="cls-5" d="M43.87,38.33c-2.16.46-8.88,3.61-10.17,8.73-1,3.87,0,6.48,0,8.61,0,1.91-.42,7.67,2.15,11.56,1.91,2.87,7.58,6.23,12,6.63,2.65.24,12.73-3.21,14.91-9.41,1.27-3.62,2.87-14.73-.46-20.28C59.41,39.33,48.17,37.37,43.87,38.33Z"/><path class="cls-6" d="M48.59,72.27C44,71.87,39.36,68,37.43,65c-2.61-3.95-2.22-9.84-2.19-11.79,0-2.17-1-4.83,0-8.76.07-.23.14-.49.22-.72A8.79,8.79,0,0,0,33.72,47c-1,3.87,0,6.48,0,8.61,0,1.91-.42,7.67,2.15,11.56,1.91,2.87,7.58,6.23,12,6.63,2.35.21,10.43-2.42,13.81-7.29C57.81,70.1,50.59,72.44,48.59,72.27Z"/><path class="cls-7" d="M43.54,59.09a2,2,0,1,1-2.07-2.23h0A2.16,2.16,0,0,1,43.54,59.09Z"/><path class="cls-7" d="M57.22,58.62a2,2,0,1,1-2.07-2.23h0A2.17,2.17,0,0,1,57.22,58.62Z"/><path class="cls-8" d="M56.82,58.62a1.63,1.63,0,1,1-1.67-1.53h0A1.59,1.59,0,0,1,56.82,58.62Z"/><path class="cls-9" d="M56.19,58.54a1,1,0,0,1-1.21.74,1,1,0,0,1-.77-1.17,1,1,0,0,1,1.21-.74h0A1,1,0,0,1,56.19,58.54Z"/><path class="cls-10" d="M56,58.62a.4.4,0,0,1-.46.3.38.38,0,0,1-.31-.44.39.39,0,0,1,.46-.3h0a.34.34,0,0,1,.31.44S56,58.62,56,58.62Z"/><path class="cls-11" d="M53.33,54.76a3.64,3.64,0,0,1,1.45-.43,4.66,4.66,0,0,1,1.62.21,5.33,5.33,0,0,0,1.74.36,5.08,5.08,0,0,0-1.58-.76,4.86,4.86,0,0,0-1.8-.36,3.93,3.93,0,0,0-1.69.44c-.93.45-1.23.77-1.12.85S52.54,55.16,53.33,54.76Z"/><path class="cls-12" d="M53.2,54.52a3.8,3.8,0,0,1,1.45-.42,4.66,4.66,0,0,1,1.62.21,11.46,11.46,0,0,0,1.87.55,4.45,4.45,0,0,0-1.71-1,4.68,4.68,0,0,0-1.8-.37,3.94,3.94,0,0,0-1.69.45c-.93.45-1.15,1-1,1.06S52.41,54.93,53.2,54.52Z"/><path class="cls-11" d="M44.41,56.26c.11-.08-.19-.4-1.12-.85A3.93,3.93,0,0,0,41.6,55a4.32,4.32,0,0,0-1.8.36c-1,.4-1.62.68-1.58.76A4.72,4.72,0,0,0,40,55.73a4.66,4.66,0,0,1,1.62-.21A3.74,3.74,0,0,1,43,56C43.82,56.33,44.3,56.33,44.41,56.26Z"/><path class="cls-12" d="M44.48,56.24c.11-.08-.13-.61-1-1.06a4,4,0,0,0-1.69-.45,4.3,4.3,0,0,0-1.8.37,4.44,4.44,0,0,0-1.72.95,13.56,13.56,0,0,0,1.87-.55,4.75,4.75,0,0,1,1.63-.21,3.91,3.91,0,0,1,1.44.42C44,56.09,44.37,56.33,44.48,56.24Z"/><path class="cls-8" d="M43.12,59.11a1.63,1.63,0,1,1-1.67-1.53h0A1.58,1.58,0,0,1,43.12,59.11Z"/><path class="cls-9" d="M40.42,59.09a1,1,0,0,0,1.25.7,1,1,0,0,0,.72-1.21,1,1,0,0,0-1.25-.7h0A1,1,0,0,0,40.42,59.09Z"/><path class="cls-10" d="M40.64,59.18a.38.38,0,0,0,.48.27.38.38,0,0,0,.29-.46.4.4,0,0,0-.49-.28h0A.37.37,0,0,0,40.64,59.18Z"/><path class="cls-13" d="M59.35,62.6c1.36,1.66-.57,3.59-2.33,2.34A1.65,1.65,0,0,1,59.35,62.6Z"/><path class="cls-13" d="M40.57,63.28c1.36,1.66-.57,3.59-2.33,2.34A1.65,1.65,0,0,1,40.57,63.28Z"/><path class="cls-14" d="M44.35,67.78a6.73,6.73,0,0,0,5.75,0,4.21,4.21,0,0,0,1.3-1c.09-.11-.07-.26-.16-.15A5.66,5.66,0,0,1,46,68.08a6.35,6.35,0,0,1-1.49-.49c-.13,0-.24.13-.11.19Z"/><path class="cls-15" d="M74.76,56.09c-2.13-10.28-3.69-17.21-8.52-21.84-8-7.66-21.5-4.94-24.72-3.81C36,32.33,28.82,39.11,25.73,49.27c-2,6.48-3.82,14.69-.05,20.68,1.91,3,12.39,6.89,14,.15-3.74.53-6.17-5.25-6.63-7.18-.58-2.4,1.23-10.52,1.27-10.5,1.73.83,15.24.78,19.61-.68.42-.15,0-3.06.11-4.34a10.07,10.07,0,0,1,1.27,4.32c.53,0,2.31.25,3-.3a14.29,14.29,0,0,0-.42-5.48A9.78,9.78,0,0,1,59,51.44c1,.4,3,0,3.58-.06a43.05,43.05,0,0,1,1.87,8.67C66,71.16,60.49,70.76,56.76,70.68c.08,4.12,7.68,4.37,10.45,3.31C78.72,69.57,75.18,58.07,74.76,56.09Z"/><path class="cls-16" d="M58.07,22.47c-2-.53-9.37,2.32-11.46,6.16C46,29.82,59.19,28.7,58.07,22.47Z"/><path class="cls-17" d="M46.54,31.61s10.24,2.93,13.55-.17c1.56-1.47.11-8.8-2-9C53.73,28.59,46.3,29,46.3,29Z"/><path class="cls-18" d="M58.27,22.49c1.65,1.6,2.57,7.29,1.21,8.59-2.83,2.68-10.76.89-13,.34l0,.21s10.24,2.93,13.55-.17C61.61,30,60.29,23.07,58.27,22.49Z"/><path class="cls-16" d="M47.8,29.42c.35.09,2.72.72,7.35-.57-4.17,2.25-7,2.34-7.09,2.21A13.37,13.37,0,0,1,47.8,29.42Z"/><path class="cls-16" d="M32.86,25.83c1.76-1,9.67-.23,12.76,2.93C46.54,29.74,33.52,32.14,32.86,25.83Z"/><path class="cls-17" d="M46.52,31.61s-9,5.51-13.09,3.38c-1.91-1-2.56-8.44-.59-9.18C38.77,30.57,46,29.08,46,29.08Z"/><path class="cls-18" d="M32.67,25.89c-1.15,2-.44,7.7,1.23,8.57,3.47,1.83,10.6-2,12.58-3.08l0,.21s-9,5.5-13.09,3.38C31.57,34,30.89,27,32.67,25.89Z"/><path class="cls-16" d="M44.68,29.82c-.31.18-2.42,1.41-7.25,1.37,4.66,1.08,7.4.4,7.45.27A16.37,16.37,0,0,0,44.68,29.82Z"/><path class="cls-19" d="M48.17,31.76a2.59,2.59,0,0,1-3,.57c-.68-.57-1.09-3-.79-3.84s2.33-1.15,3-.58S48.63,31,48.17,31.76Z"/><path class="cls-18" d="M44.72,28.76c.31-.81,2.37-1.17,2.94-.61a1.12,1.12,0,0,0-.19-.24c-.66-.57-2.66-.27-3,.58a5.18,5.18,0,0,0,.79,3.84s0,0,0,.05A5.67,5.67,0,0,1,44.72,28.76Z"/><path class="cls-20" d="M34.23,52.42h0c-.14.87-.44,1.74-.53,2.63a26.44,26.44,0,0,0,0,4.45,15.43,15.43,0,0,0,1.78,6.84,12.56,12.56,0,0,0,4.94,4.89,21.28,21.28,0,0,0,7.48,2.63C46,72.63,44,71.67,42.11,70.55a14.69,14.69,0,0,1-5-4.32,13.48,13.48,0,0,1-1.76-4.38c-.44-1.84.92-9.07.92-9.07S34.6,52.55,34.23,52.42Z"/></svg>