<svg id="Layer_1" data-name="Layer 1" xmlns="http://www.w3.org/2000/svg" xmlns:xlink="http://www.w3.org/1999/xlink" viewBox="0 0 100 100"><defs><style>.cls-1{fill:none;}.cls-2{opacity:0.5;}.cls-3{fill:#fff200;stroke:#494949;stroke-miterlimit:10;}.cls-4{fill:#a6c914;}.cls-5{clip-path:url(#clip-path);}.cls-6{fill:#fff;}.cls-7{fill:#1abbbc;}.cls-8{fill:#f6921e;}.cls-9{fill:#ee4036;}.cls-10{fill:#8bc53f;}.cls-11{fill:#023550;}.cls-12{fill:#ed7600;}.cls-13{fill:#119596;}</style><clipPath id="clip-path"><ellipse class="cls-1" cx="49.55" cy="48.69" rx="36.57" ry="35.39"/></clipPath></defs><ellipse class="cls-2" cx="50.45" cy="52.31" rx="42.3" ry="40.94"/><ellipse class="cls-3" cx="49.55" cy="48.69" rx="42.3" ry="40.94"/><ellipse class="cls-4" cx="49.55" cy="48.69" rx="36.57" ry="35.39"/><g class="cls-5"><ellipse class="cls-6" cx="49.83" cy="48.12" rx="18.65" ry="18.05"/><rect class="cls-6" x="43.08" y="70.27" width="12.96" height="2.69"/><rect class="cls-6" x="43.08" y="26.23" width="12.96" height="2.69"/><rect class="cls-7" x="49.35" y="61.46" width="1.1" height="3.49"/><rect class="cls-7" x="49.35" y="32.66" width="1.1" height="3.49"/><rect class="cls-7" x="33.22" y="48.27" width="3.6" height="1.06"/><rect class="cls-7" x="62.98" y="48.27" width="3.6" height="1.06"/><polygon class="cls-7" points="36.81 42.02 36.43 42.78 34.77 42 35.16 41.24 36.81 42.02"/><polygon class="cls-7" points="65.13 55.42 64.77 56.13 63.16 55.37 63.51 54.65 65.13 55.42"/><polygon class="cls-7" points="42.88 36.08 42.12 36.5 41.2 34.96 41.95 34.53 42.88 36.08"/><polygon class="cls-7" points="58.71 62.46 58 62.86 57.09 61.35 57.8 60.95 58.71 62.46"/><polygon class="cls-7" points="57 36.06 56.22 35.68 57.05 34.09 57.83 34.47 57 36.06"/><polygon class="cls-7" points="42.85 63.33 42.12 62.97 42.93 61.41 43.66 61.77 42.85 63.33"/><polygon class="cls-7" points="63.29 42.39 62.88 41.64 64.51 40.81 64.92 41.56 63.29 42.39"/><polygon class="cls-7" points="35.4 56.61 35.01 55.9 36.61 55.09 36.99 55.79 35.4 56.61"/><path class="cls-8" d="M49.82,47.85a.68.68,0,0,1,.7.66h0a.68.68,0,0,1-.7.66H38.48a.68.68,0,0,1-.69-.66h0a.67.67,0,0,1,.69-.66Z"/><path class="cls-9" d="M49.37,48.56c.3-.27.6-.43.68-.35h0c.08.08-.1.37-.39.64l-8.59,8c-.29.27-.59.43-.67.35h0c-.08-.08.09-.37.38-.64Z"/><path class="cls-10" d="M49.34,48.87A.6.6,0,0,1,49.4,48h0a.67.67,0,0,1,.89-.07l6.65,6.44a.59.59,0,0,1-.07.86h0a.64.64,0,0,1-.88.06Z"/><rect class="cls-11" x="40.37" y="1.64" width="17.53" height="24.5"/><path class="cls-11" d="M40.17,99.18s-.91,8.24,8.15,8.12,9.38-8.12,9.38-8.12V73.4H40.17Zm9.82-4a1.3,1.3,0,1,1-1.3-1.26A1.28,1.28,0,0,1,50,95.17ZM50,102a1.3,1.3,0,1,1-1.3-1.26A1.28,1.28,0,0,1,50,102Zm-.12-13.69a1.31,1.31,0,1,1-1.31-1.26A1.29,1.29,0,0,1,49.87,88.33Z"/><path class="cls-12" d="M38.51-7.82V.37c0,1.16,1.56,2.11,3.47,2.11H55.64c1.92,0,3.47-.95,3.47-2.11V-7.82c0-1.17-1.55-2.11-3.47-2.11H42C40.07-9.93,38.51-9,38.51-7.82Zm15.85-.95c1.56,0,2.82.77,2.82,1.71V-.4c0,1-1.26,1.72-2.82,1.72H43.26c-1.56,0-2.82-.77-2.82-1.72V-7.06c0-.94,1.26-1.71,2.82-1.71Z"/><path class="cls-12" d="M48.81-6.53a1.1,1.1,0,0,1,1.12,1.08V1.76a1.1,1.1,0,0,1-1.12,1.08h0a1.11,1.11,0,0,1-1.12-1.08V-5.45a1.11,1.11,0,0,1,1.12-1.08Z"/><path class="cls-13" d="M39.63,25.5c-1.64,7-7,10.74-8.75,15.5a19.36,19.36,0,0,0-1.5,4.94A.64.64,0,0,0,29,45.8h-1.8c-.48,0-.87.6-.87,1.34v3.33c0,.74.39,1.34.87,1.34H29a.59.59,0,0,0,.31-.09,19.46,19.46,0,0,0,1.31,4.87v0c1.36,5.17,7.29,8.92,9,16.34,2.14,2.23,17.4,2.72,19.08,0,2.39-8,6.35-6.78,9.93-15.14h0a19.45,19.45,0,0,0,1.92-6.56H71.9c.48,0,.87-.6.87-1.34V46.57c0-.74-.39-1.34-.87-1.34H70.29A19.55,19.55,0,0,0,68,39.14c-3.39-6.75-7-6.16-9.24-13.64C57,22.77,41.77,23.27,39.63,25.5ZM54.31,70.62a.61.61,0,1,1,0,1.21H44.44a.61.61,0,1,1,0-1.21ZM67.78,48.83c0,9.56-8,17.31-17.88,17.31S32,58.39,32,48.83s8-17.3,17.88-17.3S67.78,39.28,67.78,48.83ZM54.31,26.61a.62.62,0,0,1,.62.61.61.61,0,0,1-.62.61H44.44a.62.62,0,0,1-.63-.61.62.62,0,0,1,.63-.61Z"/><path class="cls-11" d="M48.55,48.27a1.35,1.35,0,1,1,1.35,1.31A1.33,1.33,0,0,1,48.55,48.27Z"/><path class="cls-11" d="M27.26,51.09a.36.36,0,0,1-.3.39h0a.35.35,0,0,1-.3-.39V46.52c0-.22.13-.39.3-.39h0a.36.36,0,0,1,.3.39Z"/><path class="cls-11" d="M28.2,51.09a.35.35,0,0,1-.3.39h0a.35.35,0,0,1-.3-.39V46.52c0-.22.13-.39.3-.39h0c.17,0,.3.17.3.39Z"/><path class="cls-11" d="M29.24,51.09a.36.36,0,0,1-.31.39h0c-.16,0-.29-.18-.29-.39V46.52c0-.22.13-.39.29-.39h0a.35.35,0,0,1,.31.39Z"/><path class="cls-11" d="M70.83,50.57c0,.22-.12.39-.25.39h0c-.14,0-.25-.17-.25-.39V46c0-.22.11-.39.25-.39h0c.13,0,.25.17.25.39Z"/><path class="cls-11" d="M71.61,50.57c0,.22-.11.39-.25.39h0c-.14,0-.25-.17-.25-.39V46c0-.22.11-.39.25-.39h0c.14,0,.25.17.25.39Z"/><path class="cls-11" d="M72.47,50.57c0,.22-.12.39-.25.39h0c-.14,0-.25-.17-.25-.39V46c0-.22.11-.39.25-.39h0c.13,0,.25.17.25.39Z"/></g></svg>