<svg id="Layer_1" data-name="Layer 1" xmlns="http://www.w3.org/2000/svg" viewBox="0 0 100 100"><defs><style>.cls-1{opacity:0.5;}.cls-2{fill:#fff200;stroke:#494949;stroke-miterlimit:10;}.cls-3{fill:#a6c914;}.cls-4{fill:#f93069;}.cls-5{fill:#721c45;}.cls-6{fill:#e88b9d;}</style></defs><ellipse class="cls-1" cx="50.45" cy="52.31" rx="42.3" ry="40.94"/><ellipse class="cls-2" cx="49.55" cy="48.69" rx="42.3" ry="40.94"/><ellipse class="cls-3" cx="49.55" cy="48.69" rx="36.57" ry="35.39"/><path class="cls-4" d="M65.93,55.58c-5.07,0-15.16-3.09-15.16-6.89s10.09-6.9,15.16-6.9c8.91,0,12.79,3.6,12.79,6.9S74.67,55.58,65.93,55.58Z"/><path class="cls-5" d="M59.1,49.38c-.65,0-1.93-.31-1.93-.69s1.28-.7,1.93-.7c1.13,0,1.63.36,1.63.7S60.21,49.38,59.1,49.38Z"/><path class="cls-4" d="M33.16,41.79c5.07,0,15.16,3.09,15.16,6.9s-10.09,6.89-15.16,6.89c-8.91,0-12.79-3.6-12.79-6.89S24.42,41.79,33.16,41.79Z"/><path class="cls-4" d="M51.83,65.84c-2.6-4.22-5-14.18-1.65-16.13s11.28,4.84,13.88,9.06c4.56,7.4,3.36,12.47.44,14.16S56.31,73.1,51.83,65.84Z"/><path class="cls-4" d="M47.26,31.53c2.6,4.22,5,14.18,1.66,16.14S37.63,42.82,35,38.6c-4.56-7.4-3.36-12.47-.44-14.16S42.79,24.27,47.26,31.53Z"/><path class="cls-4" d="M35.16,58.94c2.54-4.25,10.37-11.14,13.77-9.23S50,61.62,47.48,65.86C43,73.32,37.84,74.76,34.9,73.1S30.77,66.25,35.16,58.94Z"/><path class="cls-4" d="M63.94,38.43c-2.55,4.25-10.38,11.14-13.78,9.23s-1.09-11.91,1.45-16.15c4.48-7.46,9.64-8.9,12.58-7.24S68.32,31.12,63.94,38.43Z"/><path class="cls-6" d="M49.33,55a6.34,6.34,0,1,1,6.54-6.33A6.44,6.44,0,0,1,49.33,55Z"/><path class="cls-5" d="M39.41,48c.64,0,1.92.31,1.92.7s-1.28.69-1.92.69c-1.14,0-1.63-.36-1.63-.69S38.29,48,39.41,48Z"/><path class="cls-5" d="M53.31,57.4c-.31-.55-.63-1.79-.28-2s1.24.76,1.55,1.31c.54,1,.45,1.56.14,1.72S53.84,58.34,53.31,57.4Z"/><path class="cls-5" d="M45.19,40c.31.55.64,1.8.29,2s-1.25-.76-1.56-1.31c-.54-1-.44-1.56-.14-1.72S44.66,39,45.19,40Z"/><path class="cls-5" d="M55,40.9c-.33.54-1.27,1.44-1.62,1.24s0-1.43.39-2c.59-.94,1.17-1.16,1.46-1S55.56,40,55,40.9Z"/><path class="cls-5" d="M43.52,56.47c.34-.54,1.28-1.44,1.62-1.24s0,1.43-.38,2c-.59.94-1.17,1.16-1.47,1S42.94,57.39,43.52,56.47Z"/><path class="cls-5" d="M57.33,54.19c-.56-.33-1.49-1.23-1.29-1.56s1.48,0,2,.36c1,.56,1.2,1.12,1,1.41S58.28,54.74,57.33,54.19Z"/><path class="cls-5" d="M41.18,43.18c.55.33,1.49,1.23,1.28,1.57s-1.47,0-2-.36c-1-.57-1.2-1.13-1-1.42S40.22,42.63,41.18,43.18Z"/><path class="cls-5" d="M48.1,58.18c0-.63.41-1.86.81-1.84s.67,1.27.64,1.9c0,1.09-.45,1.56-.79,1.54S48.06,59.25,48.1,58.18Z"/><path class="cls-5" d="M50.4,39.19c0,.63-.41,1.86-.8,1.84s-.67-1.27-.64-1.9c0-1.09.44-1.55.79-1.54S50.45,38.12,50.4,39.19Z"/><path class="cls-5" d="M58.3,44.86c-.57.3-1.86.6-2,.26s.8-1.2,1.37-1.49c1-.51,1.62-.41,1.78-.12S59.29,44.36,58.3,44.86Z"/><path class="cls-5" d="M40.2,52.51c.57-.3,1.86-.6,2-.25s-.8,1.19-1.37,1.48c-1,.52-1.62.42-1.78.12S39.22,53,40.2,52.51Z"/></svg>