<svg id="Layer_1" data-name="Layer 1" xmlns="http://www.w3.org/2000/svg" xmlns:xlink="http://www.w3.org/1999/xlink" viewBox="0 0 100 100"><defs><style>.cls-1{fill:none;}.cls-2{opacity:0.5;}.cls-3{fill:#fff200;stroke:#494949;stroke-miterlimit:10;}.cls-4{fill:#a6c914;}.cls-5{fill:#eab78a;}.cls-6{fill:#231f20;}.cls-7{fill:#fff;}.cls-8{fill:#fb7598;}.cls-9{fill:#ff9e16;}.cls-10{fill:#a0e8e0;}.cls-11{fill:#f6dc6b;}.cls-12{fill:#c5a7e1;}.cls-13{fill:#77bc1f;}.cls-14{fill:#ffc56c;}.cls-15{clip-path:url(#clip-path);}.cls-16{fill:#f90d1e;}.cls-17{fill:#fc732d;}</style><clipPath id="clip-path"><ellipse class="cls-1" cx="169.55" cy="48.19" rx="36.57" ry="35.39"/></clipPath></defs><ellipse class="cls-2" cx="50.46" cy="52.32" rx="42.29" ry="40.93"/><ellipse class="cls-3" cx="49.54" cy="48.68" rx="42.29" ry="40.93"/><ellipse class="cls-4" cx="49.54" cy="48.68" rx="36.57" ry="35.39"/><path class="cls-5" d="M38.15,24.39S31.06,31,30.79,44.06c-.28,8.59-1.37,17.17-6.83,20.87,0,0,12.74,4.72,37,8,5.46-3.7,6.55-12.28,6.82-20.86C68,39,75.13,32.44,75.13,32.44S61.49,26,38.15,24.39Z"/><path class="cls-6" d="M60.94,73.56h-.08a247,247,0,0,1-27.65-5.28c-6.18-1.59-9.43-2.79-9.46-2.8a.59.59,0,0,1-.38-.47.58.58,0,0,1,.25-.55C29,60.84,29.93,52.11,30.19,44a32.37,32.37,0,0,1,3.85-15A21.56,21.56,0,0,1,37.74,24a.59.59,0,0,1,.46-.16,133.13,133.13,0,0,1,27.36,4.64,69.24,69.24,0,0,1,9.83,3.47.56.56,0,0,1,.33.43.57.57,0,0,1-.17.51c-.07.06-6.93,6.61-7.19,19.27a54.18,54.18,0,0,1-1.49,12.4c-1.13,4.23-3,7.15-5.59,8.93A.67.67,0,0,1,60.94,73.56ZM25.19,64.74c1.39.46,4.2,1.35,8.35,2.41a244.34,244.34,0,0,0,27.25,5.23C66,68.69,66.91,60.07,67.17,52.1A32.45,32.45,0,0,1,71,37.1a24.53,24.53,0,0,1,3.11-4.47,80.22,80.22,0,0,0-8.94-3.08A131.94,131.94,0,0,0,38.39,25c-1.09,1.13-6.77,7.59-7,19.09a54.76,54.76,0,0,1-1.48,12.4C28.89,60.21,27.35,62.93,25.19,64.74Z"/><path class="cls-5" d="M38.15,24.39S31.06,31,30.79,44.06c-.28,8.59-1.37,17.17-6.83,20.87,0,0,12.74,4.72,37,8,5.46-3.7,6.55-12.28,6.82-20.86C68,39,75.13,32.44,75.13,32.44S61.49,26,38.15,24.39Z"/><path class="cls-6" d="M60.94,73.56h-.08a247,247,0,0,1-27.65-5.28c-6.18-1.59-9.43-2.79-9.46-2.8a.59.59,0,0,1-.38-.47.58.58,0,0,1,.25-.55C29,60.84,29.93,52.11,30.19,44a32.37,32.37,0,0,1,3.85-15A21.56,21.56,0,0,1,37.74,24a.59.59,0,0,1,.46-.16,133.13,133.13,0,0,1,27.36,4.64,69.24,69.24,0,0,1,9.83,3.47.56.56,0,0,1,.33.43.57.57,0,0,1-.17.51c-.07.06-6.93,6.61-7.19,19.27a54.18,54.18,0,0,1-1.49,12.4c-1.13,4.23-3,7.15-5.59,8.93A.67.67,0,0,1,60.94,73.56ZM25.19,64.74c1.39.46,4.2,1.35,8.35,2.41a244.34,244.34,0,0,0,27.25,5.23C66,68.69,66.91,60.07,67.17,52.1A32.45,32.45,0,0,1,71,37.1a24.53,24.53,0,0,1,3.11-4.47,80.22,80.22,0,0,0-8.94-3.08A131.94,131.94,0,0,0,38.39,25c-1.09,1.13-6.77,7.59-7,19.09a54.76,54.76,0,0,1-1.48,12.4C28.89,60.21,27.35,62.93,25.19,64.74Z"/><path class="cls-7" d="M38.15,24.39c23.34,1.58,37,8,37,8S68,39,67.76,52.12C67.49,60.7,66.4,69.28,60.94,73c-24.24-3.33-37-8-37-8,5.46-3.7,6.55-12.28,6.83-20.87.27-13.07,7.36-19.67,7.36-19.67Zm0-2.16a2.31,2.31,0,0,0-1.54.6c-.32.3-7.76,7.38-8,21.19-.24,7.65-1.13,15.93-5.87,19.14a2.13,2.13,0,0,0-.94,2,2.2,2.2,0,0,0,1.42,1.75c.53.19,13.24,4.85,37.46,8.17a1.62,1.62,0,0,0,.31,0,2.34,2.34,0,0,0,1.28-.38c6.35-4.31,7.49-13.82,7.77-22.57.25-12,6.63-18.13,6.69-18.19a2.13,2.13,0,0,0-.57-3.48c-.57-.27-14.3-6.68-37.8-8.27Z"/><path class="cls-8" d="M50,25.68c-3.6-.55-7.54-1-11.82-1.29,0,0-4.67,4.34-6.57,13,2.27.36,6.52,1,12.17,2.08C44.58,32,47.68,27.8,50,25.68Z"/><path class="cls-6" d="M43.75,39.72h-.06c-5.46-1-9.63-1.68-12.16-2.08a.34.34,0,0,1-.2-.13.28.28,0,0,1,0-.22,30.1,30.1,0,0,1,4-9.81A18.33,18.33,0,0,1,38,24.18a.27.27,0,0,1,.22-.08c4,.27,8,.7,11.85,1.29a.3.3,0,0,1,.23.2.28.28,0,0,1-.07.3c-2.35,2.17-5.32,6.29-6.14,13.58a.27.27,0,0,1-.11.2A.41.41,0,0,1,43.75,39.72ZM31.94,37.11c2.51.4,6.45,1,11.55,2,.83-6.84,3.54-10.92,5.85-13.21-3.62-.54-7.34-.94-11.07-1.2A26.76,26.76,0,0,0,31.94,37.11Z"/><path class="cls-9" d="M30.05,52.8C29.22,58,27.52,62.51,24,64.93a120.53,120.53,0,0,0,11.89,3.4,23.46,23.46,0,0,0,6.68-13.11C37.08,54.19,32.65,53.32,30.05,52.8Z"/><path class="cls-6" d="M35.85,68.62h-.07A122.6,122.6,0,0,1,23.86,65.2a.28.28,0,0,1-.19-.24.27.27,0,0,1,.12-.27c3.07-2.08,5-6,6-11.93a.29.29,0,0,1,.13-.19.31.31,0,0,1,.23,0c2.73.54,7.11,1.4,12.48,2.42a.28.28,0,0,1,.24.33,23.61,23.61,0,0,1-6.76,13.25A.32.32,0,0,1,35.85,68.62ZM24.59,64.84c1.31.45,5.09,1.69,11.16,3.17a23,23,0,0,0,6.44-12.56c-5-1-9.2-1.77-11.89-2.3C29.35,58.81,27.48,62.64,24.59,64.84Z"/><path class="cls-10" d="M43.56,41.92c0-.72.08-1.41.15-2.08-5.68-1-9.94-1.73-12.22-2.09a34.19,34.19,0,0,0-.7,6.31,74.84,74.84,0,0,1-.68,8.35c2.59.51,7,1.38,12.5,2.41A109,109,0,0,0,43.56,41.92Z"/><path class="cls-6" d="M42.61,55.11h-.06c-5.42-1-9.79-1.88-12.5-2.42a.28.28,0,0,1-.23-.33,72.57,72.57,0,0,0,.67-8.31,34.31,34.31,0,0,1,.71-6.36.3.3,0,0,1,.34-.23c2.08.33,6.42,1,12.22,2.09a.3.3,0,0,1,.25.32c-.08.73-.12,1.41-.15,2.06a109.3,109.3,0,0,1-1,12.94.28.28,0,0,1-.12.19A.34.34,0,0,1,42.61,55.11ZM30.45,52.18c2.67.53,6.81,1.34,11.91,2.3a113.9,113.9,0,0,0,.9-12.57c0-.58.07-1.19.13-1.84-5.41-1-9.52-1.65-11.66-2a34.76,34.76,0,0,0-.65,6A73.34,73.34,0,0,1,30.45,52.18Z"/><path class="cls-11" d="M48.58,27.75a22.49,22.49,0,0,0-4.42,11.76C47.91,40.2,52.25,41,57,42c.89-7.41,4-11.51,6.3-13.57a124.06,124.06,0,0,0-12.85-2.68A14.73,14.73,0,0,0,48.58,27.75Z"/><path class="cls-6" d="M57,42.3H57c-4.26-.87-8.58-1.71-12.85-2.5a.29.29,0,0,1-.24-.31,22.92,22.92,0,0,1,4.48-11.91,15.51,15.51,0,0,1,1.93-2,.29.29,0,0,1,.24-.07A125.86,125.86,0,0,1,63.4,28.16a.28.28,0,0,1,.21.21.27.27,0,0,1-.08.28c-2.36,2.13-5.34,6.18-6.22,13.39a.27.27,0,0,1-.12.2A.27.27,0,0,1,57,42.3Zm-12.53-3c4.07.75,8.19,1.55,12.27,2.38.89-6.81,3.66-10.83,6-13.08-3.88-1-8-1.86-12.18-2.52a15.65,15.65,0,0,0-1.75,1.87A22.07,22.07,0,0,0,44.49,39.28Z"/><path class="cls-8" d="M42.9,55.29a23.65,23.65,0,0,1-6.59,13.15c3.54.85,7.83,1.77,12.85,2.68a23.54,23.54,0,0,0,6.68-13.46C51.21,56.84,46.81,56,42.9,55.29Z"/><path class="cls-6" d="M49.16,71.41H49.1c-4.5-.81-8.83-1.72-12.86-2.68a.32.32,0,0,1-.22-.2.29.29,0,0,1,.07-.28,23.43,23.43,0,0,0,6.52-13,.3.3,0,0,1,.12-.19A.31.31,0,0,1,43,55c4.41.83,8.76,1.62,12.93,2.37a.29.29,0,0,1,.25.33,23.82,23.82,0,0,1-6.76,13.6A.32.32,0,0,1,49.16,71.41ZM36.87,68.27c3.83.91,7.92,1.76,12.18,2.53A23.14,23.14,0,0,0,55.5,57.89c-4-.71-8.15-1.47-12.35-2.26A23.77,23.77,0,0,1,36.87,68.27Z"/><path class="cls-12" d="M57.21,44.81a114.19,114.19,0,0,1-.94,12.52c3.58.63,7.29,1.27,11,1.88.28-2.29.43-4.69.5-7.09a34.57,34.57,0,0,1,.9-7.18c-3.94-.9-7.73-1.71-11.28-2.44C57.3,43.24,57.24,44,57.21,44.81Z"/><path class="cls-6" d="M67.26,59.5h-.05c-3.51-.58-7.2-1.22-11-1.89a.28.28,0,0,1-.24-.33,114.79,114.79,0,0,0,.93-12.48c0-.76.09-1.52.17-2.33a.35.35,0,0,1,.12-.21.34.34,0,0,1,.24,0C61.17,43,65,43.8,68.73,44.65A.31.31,0,0,1,69,45a33.52,33.52,0,0,0-.9,7.12c-.09,2.73-.25,5.06-.5,7.12a.32.32,0,0,1-.12.2A.3.3,0,0,1,67.26,59.5ZM56.61,57.09c3.57.63,7.07,1.23,10.39,1.78.23-2,.38-4.19.46-6.76a34.69,34.69,0,0,1,.85-7c-3.56-.8-7.15-1.57-10.67-2.3-.06.68-.11,1.33-.13,2A118.1,118.1,0,0,1,56.61,57.09Z"/><path class="cls-13" d="M44,41.94a109.31,109.31,0,0,1-1,13c3.9.74,8.31,1.55,12.93,2.37a113.09,113.09,0,0,0,.89-12.47c0-.83.1-1.62.18-2.38-4.77-1-9.1-1.81-12.85-2.5C44.06,40.57,44,41.23,44,41.94Z"/><path class="cls-6" d="M55.9,57.55h0c-4.15-.74-8.5-1.54-12.94-2.37a.28.28,0,0,1-.23-.33,108.27,108.27,0,0,0,1-12.92c0-.64.07-1.31.14-2a.3.3,0,0,1,.12-.21.33.33,0,0,1,.24,0c4.24.78,8.57,1.62,12.85,2.5a.3.3,0,0,1,.24.31c-.09.8-.15,1.57-.18,2.37A117.77,117.77,0,0,1,56.2,57.3a.32.32,0,0,1-.12.2A.37.37,0,0,1,55.9,57.55ZM43.31,54.66c4.23.8,8.38,1.56,12.34,2.26a121.11,121.11,0,0,0,.84-12.14c0-.71.08-1.42.15-2.14-4.08-.83-8.2-1.64-12.25-2.38-.06.6-.09,1.16-.11,1.69A110.58,110.58,0,0,1,43.31,54.66Z"/><path class="cls-10" d="M75.13,32.44a75.24,75.24,0,0,0-11.35-3.88,14.63,14.63,0,0,0-2,2.06,22.44,22.44,0,0,0-4.39,11.47c3.57.74,7.38,1.56,11.34,2.45C70.77,36.5,75.13,32.44,75.13,32.44Z"/><path class="cls-6" d="M68.76,44.83h-.07c-3.8-.85-7.61-1.68-11.33-2.44a.29.29,0,0,1-.23-.32,22.62,22.62,0,0,1,4.44-11.61,15.52,15.52,0,0,1,2-2.11.31.31,0,0,1,.28-.06,75.09,75.09,0,0,1,11.4,3.9.3.3,0,0,1,.17.22.3.3,0,0,1-.09.25,18.08,18.08,0,0,0-2.4,3,29,29,0,0,0-3.89,9A.3.3,0,0,1,68.76,44.83Zm-11-3c3.54.73,7.17,1.51,10.79,2.33a27.08,27.08,0,0,1,6.08-11.67,79.87,79.87,0,0,0-10.76-3.65A15.1,15.1,0,0,0,62,30.8,22.08,22.08,0,0,0,57.75,41.87Z"/><path class="cls-11" d="M49.64,71.2q5.16.93,11.3,1.78c3.84-2.6,5.52-7.63,6.27-13.37-3.71-.61-7.42-1.25-11-1.89A23.82,23.82,0,0,1,49.64,71.2Z"/><path class="cls-6" d="M60.94,73.27h0c-3.83-.53-7.63-1.13-11.31-1.78a.3.3,0,0,1-.23-.19.28.28,0,0,1,.06-.29,23.65,23.65,0,0,0,6.49-13.33.3.3,0,0,1,.35-.24c3.74.66,7.44,1.3,11,1.89a.28.28,0,0,1,.25.32c-.91,6.92-2.94,11.23-6.4,13.57A.34.34,0,0,1,60.94,73.27ZM50.22,71c3.47.61,7.05,1.17,10.64,1.67,3.21-2.23,5.12-6.31,6-12.83-3.38-.56-6.88-1.16-10.43-1.79A23.9,23.9,0,0,1,50.22,71Z"/><path class="cls-9" d="M49.09,37.74a13.11,13.11,0,0,1-1.61-5.14c0-3.24,3.71-3.83,4.57-1,1.74-1.8,5.32.24,3.1,3.23A7.84,7.84,0,0,1,49.09,37.74Z"/><path class="cls-6" d="M49.15,38h-.07a.3.3,0,0,1-.26-.15,13.36,13.36,0,0,1-1.64-5.28,2.8,2.8,0,0,1,2.66-3.1,2.57,2.57,0,0,1,2.35,1.64,2.49,2.49,0,0,1,1.45-.47A2.54,2.54,0,0,1,55.89,32a2.76,2.76,0,0,1-.5,3.07A8,8,0,0,1,49.15,38Zm.69-8a2.23,2.23,0,0,0-2.06,2.52,12.32,12.32,0,0,0,1.49,4.85A7.48,7.48,0,0,0,54.9,34.7a2.28,2.28,0,0,0,.46-2.46,2,2,0,0,0-1.72-1,1.88,1.88,0,0,0-1.37.59.33.33,0,0,1-.29.08.28.28,0,0,1-.21-.2A2.08,2.08,0,0,0,49.84,30.08Z"/><path class="cls-14" d="M60.63,55.5a13.26,13.26,0,0,1-2.27-4.91c-.42-3.2,3.18-4.25,4.42-1.51,1.48-2,5.3-.41,3.49,2.83A7.77,7.77,0,0,1,60.63,55.5Z"/><path class="cls-6" d="M60.63,55.79a.33.33,0,0,1-.24-.12,13.36,13.36,0,0,1-2.32-5,3.15,3.15,0,0,1,.7-2.6,2.48,2.48,0,0,1,1.83-.82,2.62,2.62,0,0,1,2.24,1.36,2.58,2.58,0,0,1,3.87.49,2.89,2.89,0,0,1-.18,3,8,8,0,0,1-5.87,3.75Zm0-8a1.88,1.88,0,0,0-1.39.63,2.6,2.6,0,0,0-.55,2.13,12.62,12.62,0,0,0,2.11,4.64A7.43,7.43,0,0,0,66,51.77a2.32,2.32,0,0,0,.19-2.41A2,2,0,0,0,63,49.25a.31.31,0,0,1-.27.12.32.32,0,0,1-.25-.17A2.13,2.13,0,0,0,60.6,47.79Z"/><path class="cls-11" d="M32.33,64.48a13.17,13.17,0,0,1-2-5c-.24-3.22,3.41-4.08,4.49-1.28,1.59-1.91,5.32-.13,3.32,3A7.77,7.77,0,0,1,32.33,64.48Z"/><path class="cls-6" d="M32.33,64.77a.32.32,0,0,1-.26-.13,13.4,13.4,0,0,1-2-5.16,3.2,3.2,0,0,1,.79-2.5,2.54,2.54,0,0,1,1.8-.78,2.57,2.57,0,0,1,2.29,1.48,2.49,2.49,0,0,1,1.61-.57,2.53,2.53,0,0,1,2.2,1.21,2.8,2.8,0,0,1-.32,3,8,8,0,0,1-6.07,3.43Zm.3-8a1.89,1.89,0,0,0-1.36.59,2.63,2.63,0,0,0-.63,2.07,12.68,12.68,0,0,0,1.84,4.74A7.47,7.47,0,0,0,37.9,61a2.31,2.31,0,0,0,.3-2.44,1.94,1.94,0,0,0-1.67-.92,1.89,1.89,0,0,0-1.47.69.29.29,0,0,1-.28.1.33.33,0,0,1-.23-.18A2.1,2.1,0,0,0,32.63,56.78Z"/><polygon class="cls-6" points="45.88 61.17 44.61 59.76 43.35 58.35 45.24 57.99 47.13 57.64 46.51 59.4 45.88 61.17"/><polygon class="cls-6" points="51.44 66.01 49.51 65.94 47.59 65.86 48.62 64.28 49.65 62.71 50.54 64.36 51.44 66.01"/><polygon class="cls-6" points="43.96 66.67 42.17 67.38 40.38 68.08 40.65 66.23 40.92 64.38 42.44 65.53 43.96 66.67"/><path class="cls-6" d="M66.48,31.87l-.75-.38-.1-.82a.19.19,0,0,0-.12-.16.22.22,0,0,0-.21,0l-.61.58L63.85,31a.2.2,0,0,0-.19.07.2.2,0,0,0,0,.2L64,32l-.43.72a.2.2,0,0,0,0,.2.2.2,0,0,0,.19.08l.85-.12.57.61a.2.2,0,0,0,.15.06h0a.2.2,0,0,0,.14-.14l.15-.82.77-.34a.18.18,0,0,0,0-.34Z"/><path class="cls-6" d="M62.19,39.56l-.76-.39-.09-.82a.2.2,0,0,0-.33-.11l-.61.57-.84-.16a.18.18,0,0,0-.19.07.15.15,0,0,0,0,.19l.37.75-.42.72a.17.17,0,0,0,0,.19.19.19,0,0,0,.19.08l.84-.11.58.61a.2.2,0,0,0,.14.06h.06a.18.18,0,0,0,.13-.15l.15-.81.78-.34a.2.2,0,0,0,.11-.17A.19.19,0,0,0,62.19,39.56Z"/><path class="cls-6" d="M70,38.12l-.76-.38-.09-.82a.18.18,0,0,0-.13-.16.2.2,0,0,0-.2,0l-.61.58-.84-.17a.19.19,0,0,0-.19.07.17.17,0,0,0,0,.2l.37.74-.42.72a.18.18,0,0,0,0,.2.19.19,0,0,0,.19.08l.84-.12.58.61a.2.2,0,0,0,.14.06h.06a.16.16,0,0,0,.13-.14l.15-.82.78-.34a.19.19,0,0,0,.11-.16A.21.21,0,0,0,70,38.12Z"/><path class="cls-6" d="M35.35,40a.91.91,0,0,1-.49,1.21,1,1,0,0,1-1.24-.48.91.91,0,0,1,.49-1.21A1,1,0,0,1,35.35,40Z"/><path class="cls-6" d="M38.08,46.11a.91.91,0,0,1-.49,1.21,1,1,0,0,1-1.24-.48.9.9,0,0,1,.49-1.2A.94.94,0,0,1,38.08,46.11Z"/><path class="cls-6" d="M40.81,52.18a.91.91,0,0,1-.49,1.21,1,1,0,0,1-1.24-.47.91.91,0,0,1,.49-1.21A1,1,0,0,1,40.81,52.18Z"/><path class="cls-6" d="M33.26,48.39a.9.9,0,0,1-.49,1.2,1,1,0,0,1-1.25-.47.92.92,0,0,1,.5-1.21A1,1,0,0,1,33.26,48.39Z"/><path class="cls-6" d="M43,44.09a.9.9,0,0,1-.49,1.2,1,1,0,0,1-1.25-.47.91.91,0,0,1,.49-1.21A1,1,0,0,1,43,44.09Z"/><path class="cls-6" d="M34.07,29.79a33.91,33.91,0,0,1,9.47-5.11,32.46,32.46,0,0,1,4,.58S38.15,29,32.48,33.84Z"/><path class="cls-6" d="M31.68,36.64s11.51-6.71,15.94-8.11A24.4,24.4,0,0,0,46,32.15a122.78,122.78,0,0,0-10.76,5.93l-3.89-.43Z"/><path class="cls-6" d="M56.19,55.71A.23.23,0,0,1,56,55.6C53.79,52,45.77,40.54,45.69,40.42a.21.21,0,0,1,.06-.3.22.22,0,0,1,.31.06c.08.12,8.1,11.62,10.32,15.2a.22.22,0,0,1-.07.3A.27.27,0,0,1,56.19,55.71Z"/><path class="cls-6" d="M56.79,51.08a.21.21,0,0,1-.2-.13c-1.47-3.13-6.36-9.88-6.41-10a.21.21,0,0,1,0-.3.25.25,0,0,1,.32,0c0,.07,5,6.86,6.44,10a.22.22,0,0,1-.11.29Z"/><path class="cls-6" d="M53.35,57.44a.25.25,0,0,1-.18-.08C50.36,53.78,43.67,44.14,43.6,44a.21.21,0,0,1,.06-.3.22.22,0,0,1,.31.06c.07.09,6.76,9.72,9.56,13.3a.21.21,0,0,1,0,.3A.23.23,0,0,1,53.35,57.44Z"/><path class="cls-6" d="M47.52,55.85a.23.23,0,0,1-.18-.09l-4.18-5.49a.21.21,0,0,1,0-.31.24.24,0,0,1,.32,0l4.18,5.5a.2.2,0,0,1-.05.3A.18.18,0,0,1,47.52,55.85Z"/><path class="cls-6" d="M66.25,65.15l-.17,0C62.14,64.4,54.82,63,54.74,63l-.24,0,.92-3,11.7,2.19,0,.21A12,12,0,0,1,66.32,65ZM55.07,62.58c1.28.25,7.36,1.43,10.92,2.08a12.23,12.23,0,0,0,.62-2.21l-10.88-2Z"/><path class="cls-6" d="M63.78,70.6l-.46-.07c-2.67-.44-7.63-1.25-11.42-2l-.31-.06.16-.26s1.14-1.86,1.52-2.65l.08-.15.17,0c.08,0,8.22,1.53,11.72,2.12l.26,0-.08.24a14.82,14.82,0,0,1-1.56,2.67ZM52.29,68.14c3.74.75,8.51,1.54,11.11,2l.17,0a16.69,16.69,0,0,0,1.32-2.22c-3.33-.57-10.13-1.83-11.29-2C53.26,66.53,52.6,67.64,52.29,68.14Z"/><g class="cls-15"><path class="cls-16" d="M105.49,179.66a112.72,112.72,0,0,1-6.25-89,115.17,115.17,0,0,1,22.83-38.86,119.21,119.21,0,0,1,37.8-28.37,123.65,123.65,0,0,1,92-6.05A121.05,121.05,0,0,1,292,39.44,116.53,116.53,0,0,1,321.34,76h0l9.76-4.69C298.85,8.43,220-17.27,155,13.94S63.48,121.44,95.72,184.35l9.77-4.69Z"/><path class="cls-17" d="M292,39.44a121.05,121.05,0,0,0-40.15-22.1,123.65,123.65,0,0,0-92,6.05,119.21,119.21,0,0,0-37.8,28.37A115.17,115.17,0,0,0,99.24,90.62a112.72,112.72,0,0,0,6.25,89h0l9.76-4.69h0a102.55,102.55,0,0,1-5.69-81,105,105,0,0,1,20.77-35.35,108.43,108.43,0,0,1,34.38-25.81,112.55,112.55,0,0,1,83.68-5.5,110.54,110.54,0,0,1,36.53,20.1,105.89,105.89,0,0,1,26.65,33.28h0L321.34,76h0A116.53,116.53,0,0,0,292,39.44Z"/></g></svg>