<svg id="Layer_1" data-name="Layer 1" xmlns="http://www.w3.org/2000/svg" xmlns:xlink="http://www.w3.org/1999/xlink" viewBox="0 0 100 100"><defs><style>.cls-1{fill:none;}.cls-2{clip-path:url(#clip-path);}.cls-3{fill:#f90d1e;}.cls-4{fill:#fc732d;}.cls-5{fill:#ffda00;}.cls-6{fill:#90d812;}.cls-7{fill:#28b3dd;}.cls-8{fill:#2f5bc9;}.cls-9{fill:#ac29b7;}.cls-10{opacity:0.5;}.cls-11{fill:#fff200;stroke:#494949;stroke-miterlimit:10;}.cls-12{fill:#a6c914;}.cls-13{fill:#323232;}</style><clipPath id="clip-path"><ellipse class="cls-1" cx="-70.45" cy="-72.77" rx="36.57" ry="35.39"/></clipPath></defs><g class="cls-2"><path class="cls-3" d="M-134.51,58.7A112.89,112.89,0,0,1-146.88,14a112.73,112.73,0,0,1,6.12-44.32A115.17,115.17,0,0,1-117.93-69.2a119.21,119.21,0,0,1,37.8-28.37,122.75,122.75,0,0,1,46.21-12,123.74,123.74,0,0,1,45.79,5.92A121.05,121.05,0,0,1,52-81.52,116.53,116.53,0,0,1,81.34-44.94h0l9.76-4.69C58.85-112.53-20-138.23-85-107S-176.52.48-144.28,63.39l9.77-4.69Z"/><path class="cls-4" d="M52-81.52a121.05,121.05,0,0,0-40.15-22.1,123.74,123.74,0,0,0-45.79-5.92,122.75,122.75,0,0,0-46.21,12,119.21,119.21,0,0,0-37.8,28.37,115.17,115.17,0,0,0-22.83,38.86A112.73,112.73,0,0,0-146.88,14,112.89,112.89,0,0,0-134.51,58.7h0l9.76-4.69h0A102.63,102.63,0,0,1-136,13.34,102.75,102.75,0,0,1-130.44-27a105,105,0,0,1,20.77-35.35A108.43,108.43,0,0,1-75.29-88.13,111.92,111.92,0,0,1-33.26-99,112.57,112.57,0,0,1,8.39-93.63a110.54,110.54,0,0,1,36.53,20.1A105.89,105.89,0,0,1,71.57-40.25h0l9.77-4.69h0A116.53,116.53,0,0,0,52-81.52Z"/><path class="cls-5" d="M-115,49.33A92.41,92.41,0,0,1-125.12,12.7a92.25,92.25,0,0,1,5-36.3,94.65,94.65,0,0,1,18.7-31.85,97.75,97.75,0,0,1,31-23.23,100.63,100.63,0,0,1,37.84-9.8A101.19,101.19,0,0,1,4.91-83.63a99.15,99.15,0,0,1,32.9,18.1,95.18,95.18,0,0,1,24,30h0l9.76-4.69h0A105.89,105.89,0,0,0,44.92-73.53,110.54,110.54,0,0,0,8.39-93.63,112.57,112.57,0,0,0-33.26-99a111.92,111.92,0,0,0-42,10.88,108.43,108.43,0,0,0-34.38,25.81A105,105,0,0,0-130.44-27,102.75,102.75,0,0,0-136,13.34,102.63,102.63,0,0,0-124.75,54h0l9.76-4.68Z"/><path class="cls-6" d="M37.81-65.53a99.15,99.15,0,0,0-32.9-18.1A101.19,101.19,0,0,0-32.6-88.48a100.63,100.63,0,0,0-37.84,9.8,97.75,97.75,0,0,0-31,23.23,94.65,94.65,0,0,0-18.7,31.85,92.25,92.25,0,0,0-5,36.3A92.41,92.41,0,0,0-115,49.33h0l9.76-4.69h0a82.23,82.23,0,0,1-9-32.57,82.06,82.06,0,0,1,4.46-32.31A83.89,83.89,0,0,1-93.14-48.57,86.9,86.9,0,0,1-65.6-69.23,89.45,89.45,0,0,1-31.95-78,90.47,90.47,0,0,1,1.43-73.64,88.38,88.38,0,0,1,30.71-57.53,84.78,84.78,0,0,1,52.05-30.88h0l9.76-4.68h0A95.18,95.18,0,0,0,37.81-65.53Z"/><path class="cls-7" d="M-95.47,40a72.1,72.1,0,0,1-7.9-28.52,72.09,72.09,0,0,1,3.91-28.3A73.72,73.72,0,0,1-84.88-41.7,76.13,76.13,0,0,1-60.76-59.78a78.3,78.3,0,0,1,29.47-7.65A79.09,79.09,0,0,1-2-63.64,77.27,77.27,0,0,1,23.6-49.53,74.3,74.3,0,0,1,42.29-26.19h0l9.76-4.69h0A84.78,84.78,0,0,0,30.71-57.53,88.38,88.38,0,0,0,1.43-73.64,90.47,90.47,0,0,0-31.95-78,89.45,89.45,0,0,0-65.6-69.23,86.9,86.9,0,0,0-93.14-48.57a83.89,83.89,0,0,0-16.64,28.33,82.06,82.06,0,0,0-4.46,32.31,82.23,82.23,0,0,0,9,32.57h0L-95.47,40Z"/><path class="cls-8" d="M23.6-49.53A77.27,77.27,0,0,0-2-63.64a79.09,79.09,0,0,0-29.24-3.79,78.3,78.3,0,0,0-29.47,7.65A76.13,76.13,0,0,0-84.88-41.7,73.72,73.72,0,0,0-99.46-16.87a72.09,72.09,0,0,0-3.91,28.3A72.1,72.1,0,0,0-95.47,40h0l9.76-4.68h0a61.89,61.89,0,0,1-6.78-24.48,62,62,0,0,1,3.36-24.3A63.43,63.43,0,0,1-76.62-34.82a65.29,65.29,0,0,1,20.7-15.51A67.11,67.11,0,0,1-30.63-56.9a68,68,0,0,1,25.1,3.25,66.56,66.56,0,0,1,22,12.11,64,64,0,0,1,16,20h0l9.76-4.69h0A74.3,74.3,0,0,0,23.6-49.53Z"/><path class="cls-9" d="M-75.94,30.58a51.59,51.59,0,0,1-5.67-20.42,51.58,51.58,0,0,1,2.81-20.3,52.72,52.72,0,0,1,10.45-17.8A54.4,54.4,0,0,1-51.07-40.89,56.18,56.18,0,0,1-30-46.37,56.65,56.65,0,0,1-9-43.65,55.41,55.41,0,0,1,9.39-33.54,53.14,53.14,0,0,1,22.76-16.82h0l9.77-4.68h0a64,64,0,0,0-16-20,66.56,66.56,0,0,0-22-12.11,68,68,0,0,0-25.1-3.25,67.11,67.11,0,0,0-25.29,6.57,65.29,65.29,0,0,0-20.7,15.51A63.43,63.43,0,0,0-89.13-13.51a62,62,0,0,0-3.36,24.3,61.89,61.89,0,0,0,6.78,24.48h0l9.77-4.69Z"/></g><ellipse class="cls-10" cx="50.45" cy="52.26" rx="42.3" ry="40.99"/><ellipse class="cls-11" cx="49.55" cy="48.74" rx="42.3" ry="40.99"/><ellipse class="cls-12" cx="49.55" cy="48.74" rx="36.57" ry="35.44"/><path class="cls-13" d="M70.49,38.22a38.87,38.87,0,0,1,0,12.32c-.95,7.06-1.66,14.81-7.28,20-17.92,16.55-36.44.67-35-19.29a34.51,34.51,0,0,1,1.72-8.77c1.48-4.26,4.26-7.66,6.89-11.34s5.43-7.2,9.4-9.57c1.38-.83,5.43-2.83,6.26-.3.74,2.25-1.87,5.65-2.73,7.59A25.21,25.21,0,0,0,47.52,41c.19,2.69.64,7.72,3.2,9.48C55,53.37,57,37.56,57.28,35.58c.42-2.5,1.56-4.91,1.83-7.44.13-1.17-.27-4.68.8-5.37,1.74.72,3.52,1.23,4.8,2.67A11.93,11.93,0,0,1,66.21,28a21,21,0,0,0,1,2.62,14.32,14.32,0,0,1,1.4,1.92A22.21,22.21,0,0,1,70.49,38.22Z"/></svg>