<svg id="Layer_1" data-name="Layer 1" xmlns="http://www.w3.org/2000/svg" xmlns:xlink="http://www.w3.org/1999/xlink" viewBox="0 0 100 100"><defs><style>.cls-1{fill:none;}.cls-2{opacity:0.5;}.cls-3{fill:#fff200;stroke:#494949;stroke-miterlimit:10;}.cls-4{fill:#a6c914;}.cls-5{clip-path:url(#clip-path);}.cls-6{fill:#323232;}.cls-7{fill:#c5c6c8;}.cls-8{fill:#b8aa00;stroke:#d4c759;}.cls-13,.cls-8,.cls-9{stroke-width:0.11px;}.cls-9{fill:#d1d1d1;}.cls-13,.cls-9{stroke:#f6e768;}.cls-10{fill:#fff;}.cls-11{fill:#c6b922;}.cls-12{fill:#fdf9ce;}.cls-13{fill:#daca00;}.cls-14{fill:#989017;}.cls-15{fill:#d1d1cf;}.cls-16{fill:#efefef;}.cls-17{fill:#afafaf;}.cls-18{fill:#bcbcbc;}</style><clipPath id="clip-path"><ellipse class="cls-1" cx="49.55" cy="48.69" rx="36.57" ry="35.39"/></clipPath></defs><ellipse class="cls-2" cx="50.45" cy="52.31" rx="42.3" ry="40.94"/><ellipse class="cls-3" cx="49.55" cy="48.69" rx="42.3" ry="40.94"/><ellipse class="cls-4" cx="49.55" cy="48.69" rx="36.57" ry="35.39"/><g class="cls-5"><path class="cls-6" d="M41.71,12l-7.66,2.52c.32.93.64,1.86.94,2.79l7.72-2.37C42.39,14,42.05,13,41.71,12Z"/><path class="cls-6" d="M34.74,17.39c-.3-.93-.62-1.86-.94-2.78l-.16.05c.32.92.64,1.85.94,2.78Z"/><path class="cls-6" d="M42.71,14.94,35,17.31c.31.93.6,1.87.9,2.81l7.76-2.23C43.34,16.9,43,15.92,42.71,14.94Z"/><path class="cls-6" d="M35.63,20.19c-.29-.94-.58-1.87-.89-2.8l-.16.05c.31.92.6,1.86.89,2.79Z"/><path class="cls-6" d="M43.65,17.89l-7.76,2.23.83,2.82,7.8-2.09C44.24,19.86,44,18.87,43.65,17.89Z"/><polygon class="cls-6" points="36.47 23.01 35.63 20.19 35.47 20.23 36.31 23.05 36.47 23.01"/><path class="cls-6" d="M44.52,20.85l-7.8,2.09c.27.94.53,1.89.78,2.84l7.84-2C45.08,22.84,44.81,21.84,44.52,20.85Z"/><path class="cls-6" d="M37.25,25.84C37,24.9,36.74,24,36.47,23l-.16,0c.27.94.52,1.89.78,2.83Z"/><polygon class="cls-6" points="45.34 23.83 37.5 25.78 38.23 28.64 46.11 26.83 45.34 23.83"/><polygon class="cls-6" points="37.98 28.7 37.25 25.84 37.09 25.89 37.81 28.73 37.98 28.7"/><polygon class="cls-6" points="46.11 26.83 38.23 28.64 38.91 31.5 46.82 29.83 46.11 26.83"/><polygon class="cls-6" points="38.65 31.56 37.98 28.7 37.81 28.73 38.49 31.59 38.65 31.56"/><polygon class="cls-6" points="46.82 29.83 38.91 31.5 39.53 34.38 47.47 32.85 46.82 29.83"/><polygon class="cls-6" points="39.27 34.43 38.65 31.56 38.49 31.59 39.11 34.47 39.27 34.43"/><polygon class="cls-6" points="47.47 32.85 39.53 34.38 40.1 37.27 48.07 35.88 47.47 32.85"/><polygon class="cls-6" points="39.84 37.32 39.27 34.43 39.11 34.47 39.68 37.35 39.84 37.32"/><polygon class="cls-6" points="48.07 35.88 40.1 37.27 40.62 40.17 48.6 38.91 48.07 35.88"/><rect class="cls-6" x="39.93" y="37.31" width="0.17" height="2.94" transform="translate(-6.17 7.6) rotate(-10.08)"/><polygon class="cls-6" points="48.6 38.91 40.62 40.17 41.07 43.07 49.09 41.97 48.6 38.91"/><polygon class="cls-6" points="40.81 43.11 40.36 40.21 40.19 40.24 40.65 43.13 40.81 43.11"/><path class="cls-6" d="M49.09,42l-8,1.1c.14,1,.28,1.94.4,2.91l8-.95Q49.32,43.5,49.09,42Z"/><path class="cls-6" d="M41.21,46c-.12-1-.26-1.93-.4-2.9l-.16,0c.14,1,.28,1.93.39,2.9Z"/><path class="cls-6" d="M49.51,45l-8,.95c.12,1,.23,1.93.33,2.89l8.06-.75C49.75,47.08,49.64,46.06,49.51,45Z"/><path class="cls-6" d="M41.54,48.89c-.1-1-.21-1.92-.33-2.88L41,46q.2,1.44.33,2.88Z"/><path class="cls-6" d="M49.86,48.12l-8.06.75.13,1.42c0,.12,0,.71,0,.41v.75h8.09V50.7c0-.67,0-.67,0-1Z"/><path class="cls-6" d="M41.7,51.45V50.7c0,.33,0-.27,0-.39l-.13-1.42-.17,0,.13,1.41c0,.11,0,.73,0,.38v.75Z"/><rect class="cls-6" x="41.96" y="51.45" width="8.1" height="3.02"/><rect class="cls-6" x="41.53" y="51.45" width="0.17" height="3.02"/><rect class="cls-6" x="41.96" y="54.48" width="8.1" height="3.02"/><rect class="cls-6" x="41.53" y="54.48" width="0.17" height="3.02"/><rect class="cls-6" x="41.96" y="57.5" width="8.1" height="3.02"/><rect class="cls-6" x="41.53" y="57.5" width="0.17" height="3.02"/><rect class="cls-6" x="41.96" y="60.52" width="8.1" height="3.02"/><rect class="cls-6" x="41.53" y="60.52" width="0.17" height="3.02"/><rect class="cls-6" x="41.96" y="63.54" width="8.1" height="3.02"/><rect class="cls-6" x="41.53" y="63.54" width="0.17" height="3.02"/><rect class="cls-6" x="41.96" y="66.57" width="8.1" height="3.02"/><rect class="cls-6" x="41.53" y="66.57" width="0.17" height="3.02"/><rect class="cls-6" x="41.96" y="69.59" width="8.1" height="3.02"/><rect class="cls-6" x="41.53" y="69.59" width="0.17" height="3.02"/><rect class="cls-6" x="41.96" y="72.61" width="8.1" height="3.02"/><rect class="cls-6" x="41.53" y="72.61" width="0.17" height="3.02"/><rect class="cls-6" x="41.96" y="75.63" width="8.1" height="3.02"/><rect class="cls-6" x="41.53" y="75.63" width="0.17" height="3.02"/><rect class="cls-6" x="41.96" y="78.66" width="8.1" height="8.06"/><rect class="cls-6" x="41.53" y="78.66" width="0.17" height="8.06"/><path class="cls-6" d="M57.09,13.68c.31-1,.63-2,.95-2.93l7.41,2.32c-.3.93-.62,1.86-.91,2.8Z"/><path class="cls-6" d="M56.94,13.63l-.14,0c.3-1,.63-2,1-2.93l.14,0C57.57,11.68,57.24,12.65,56.94,13.63Z"/><path class="cls-6" d="M56.94,13.63c.3-1,.63-2,1-2.93l.15.05c-.32,1-.64,1.95-.95,2.93Z"/><path class="cls-6" d="M56.2,16.62c.29-1,.58-2,.89-2.94l7.45,2.19c-.3.93-.57,1.88-.86,2.82Z"/><path class="cls-6" d="M56,16.58l-.14,0c.3-1,.59-2,.9-2.95l.14,0C56.62,14.61,56.33,15.59,56,16.58Z"/><path class="cls-6" d="M56,16.58c.29-1,.58-2,.9-2.95l.15,0c-.31,1-.6,2-.89,2.94Z"/><polygon class="cls-6" points="55.35 19.58 56.2 16.62 63.68 18.69 62.88 21.52 55.35 19.58"/><polygon class="cls-6" points="55.2 19.54 55.06 19.5 55.9 16.54 56.04 16.58 55.2 19.54"/><polygon class="cls-6" points="55.2 19.54 56.04 16.58 56.2 16.62 55.35 19.58 55.2 19.54"/><path class="cls-6" d="M54.56,22.55c.26-1,.52-2,.79-3l7.53,1.94c-.27.94-.51,1.89-.76,2.84Z"/><path class="cls-6" d="M54.4,22.51l-.14,0c.26-1,.52-2,.8-3l.14,0C54.92,20.52,54.66,21.52,54.4,22.51Z"/><path class="cls-6" d="M54.4,22.51c.26-1,.52-2,.8-3l.15,0c-.27,1-.53,2-.79,3Z"/><polygon class="cls-6" points="53.83 25.53 54.56 22.55 62.12 24.36 61.41 27.22 53.83 25.53"/><polygon class="cls-6" points="53.67 25.5 53.52 25.46 54.26 22.48 54.41 22.51 53.67 25.5"/><polygon class="cls-6" points="53.67 25.5 54.41 22.51 54.56 22.55 53.83 25.53 53.67 25.5"/><polygon class="cls-6" points="53.14 28.53 53.83 25.53 61.41 27.22 60.76 30.09 53.14 28.53"/><polygon class="cls-6" points="52.98 28.49 52.84 28.46 53.52 25.46 53.67 25.5 52.98 28.49"/><polygon class="cls-6" points="52.98 28.49 53.67 25.5 53.83 25.53 53.14 28.53 52.98 28.49"/><polygon class="cls-6" points="52.51 31.53 53.14 28.53 60.76 30.09 60.16 32.97 52.51 31.53"/><polygon class="cls-6" points="52.35 31.5 52.21 31.48 52.84 28.46 52.98 28.49 52.35 31.5"/><polygon class="cls-6" points="52.35 31.5 52.98 28.49 53.14 28.53 52.51 31.53 52.35 31.5"/><polygon class="cls-6" points="51.94 34.55 52.51 31.53 60.16 32.97 59.6 35.85 51.94 34.55"/><rect class="cls-6" x="50.45" y="32.93" width="3.08" height="0.14" transform="translate(10.85 78.82) rotate(-80.49)"/><polygon class="cls-6" points="51.77 34.52 52.35 31.5 52.51 31.53 51.94 34.55 51.77 34.52"/><polygon class="cls-6" points="51.41 37.58 51.94 34.55 59.6 35.85 59.1 38.75 51.41 37.58"/><polygon class="cls-6" points="51.25 37.55 51.11 37.53 51.63 34.5 51.77 34.52 51.25 37.55"/><polygon class="cls-6" points="51.25 37.55 51.77 34.52 51.94 34.55 51.41 37.58 51.25 37.55"/><polygon class="cls-6" points="50.95 40.62 51.41 37.58 59.1 38.75 58.66 41.65 50.95 40.62"/><polygon class="cls-6" points="50.79 40.6 50.65 40.58 51.11 37.53 51.25 37.55 50.79 40.6"/><rect class="cls-6" x="49.56" y="39.01" width="3.08" height="0.16" transform="translate(4.78 83.74) rotate(-81.37)"/><path class="cls-6" d="M50.55,43.68c.12-1,.26-2,.4-3.06l7.72,1c-.14,1-.27,1.94-.38,2.9Z"/><path class="cls-6" d="M50.39,43.66l-.14,0c.12-1,.25-2,.4-3.06l.14,0C50.64,41.62,50.51,42.64,50.39,43.66Z"/><path class="cls-6" d="M50.39,43.66c.12-1,.25-2,.4-3.06l.16,0c-.14,1-.28,2-.4,3.06Z"/><path class="cls-6" d="M50.23,46.76c.09-1,.2-2.06.32-3.08l7.74.86c-.12,1-.22,1.93-.31,2.88Z"/><path class="cls-6" d="M50.06,46.75l-.14,0q.13-1.54.33-3.09l.14,0Q50.21,45.19,50.06,46.75Z"/><path class="cls-6" d="M50.06,46.75q.15-1.56.33-3.09l.16,0c-.12,1-.23,2-.32,3.08Z"/><path class="cls-6" d="M50.07,50v-.76c0-.2,0-.09,0-.54,0-.15,0-.28,0-.41l.13-1.57,7.75.66c0,.47-.08.95-.11,1.41,0,.11,0,.23,0,.32,0-.36,0,.11,0,.13V50Z"/><path class="cls-6" d="M49.9,50h-.14v-.76c0-.2,0-.07,0-.55,0-.16,0-.29,0-.42l.13-1.58.14,0-.12,1.57c0,.13,0,.26,0,.41,0,.47,0,.35,0,.55Z"/><path class="cls-6" d="M49.9,50v-.76c0-.2,0-.08,0-.55,0-.15,0-.28,0-.41l.12-1.57h.17l-.13,1.57c0,.13,0,.26,0,.41,0,.45,0,.34,0,.54V50Z"/><rect class="cls-6" x="50.07" y="50.04" width="7.79" height="3.02"/><rect class="cls-6" x="49.76" y="50.04" width="0.14" height="3.02"/><rect class="cls-6" x="49.9" y="50.04" width="0.16" height="3.02"/><rect class="cls-6" x="50.07" y="53.05" width="7.79" height="3.02"/><rect class="cls-6" x="49.76" y="53.05" width="0.14" height="3.02"/><rect class="cls-6" x="49.9" y="53.05" width="0.16" height="3.02"/><rect class="cls-6" x="50.07" y="56.07" width="7.79" height="3.01"/><rect class="cls-6" x="49.76" y="56.07" width="0.14" height="3.01"/><rect class="cls-6" x="49.9" y="56.07" width="0.16" height="3.01"/><rect class="cls-6" x="50.07" y="59.08" width="7.79" height="3.02"/><rect class="cls-6" x="49.76" y="59.08" width="0.14" height="3.02"/><rect class="cls-6" x="49.9" y="59.08" width="0.16" height="3.02"/><rect class="cls-6" x="50.07" y="62.1" width="7.79" height="3.01"/><rect class="cls-6" x="49.76" y="62.1" width="0.14" height="3.01"/><rect class="cls-6" x="49.9" y="62.1" width="0.16" height="3.01"/><rect class="cls-6" x="50.07" y="65.11" width="7.79" height="3.02"/><rect class="cls-6" x="49.76" y="65.11" width="0.14" height="3.02"/><rect class="cls-6" x="49.9" y="65.11" width="0.16" height="3.02"/><rect class="cls-6" x="50.07" y="68.13" width="7.79" height="3.01"/><rect class="cls-6" x="49.76" y="68.13" width="0.14" height="3.01"/><rect class="cls-6" x="49.9" y="68.13" width="0.16" height="3.01"/><rect class="cls-6" x="50.07" y="71.14" width="7.79" height="3.02"/><rect class="cls-6" x="49.76" y="71.14" width="0.14" height="3.02"/><rect class="cls-6" x="49.9" y="71.14" width="0.16" height="3.02"/><rect class="cls-6" x="50.07" y="74.16" width="7.79" height="3.02"/><rect class="cls-6" x="49.76" y="74.16" width="0.14" height="3.02"/><rect class="cls-6" x="49.9" y="74.16" width="0.16" height="3.02"/><rect class="cls-6" x="50.07" y="77.17" width="7.79" height="3.02"/><rect class="cls-6" x="49.76" y="77.17" width="0.14" height="3.02"/><rect class="cls-6" x="49.9" y="77.17" width="0.16" height="3.02"/><rect class="cls-6" x="50.07" y="80.19" width="7.79" height="6.53"/><rect class="cls-6" x="49.76" y="80.19" width="0.14" height="6.53"/><rect class="cls-6" x="49.9" y="80.19" width="0.16" height="6.53"/><path class="cls-6" d="M34.23,14.46l-.43.15c.32.92.64,1.85.94,2.78l.43-.13C34.87,16.32,34.55,15.39,34.23,14.46Z"/><path class="cls-6" d="M35.17,17.26l-.43.13c.31.93.6,1.86.89,2.8l.44-.13C35.77,19.13,35.49,18.19,35.17,17.26Z"/><polygon class="cls-6" points="36.07 20.06 35.63 20.19 36.47 23.01 36.9 22.89 36.07 20.06"/><path class="cls-6" d="M36.9,22.89l-.43.12c.27.94.53,1.89.78,2.83l.44-.1C37.43,24.79,37.18,23.84,36.9,22.89Z"/><polygon class="cls-6" points="37.69 25.73 37.25 25.84 37.98 28.7 38.42 28.59 37.69 25.73"/><polygon class="cls-6" points="38.42 28.59 37.98 28.7 38.65 31.56 39.09 31.46 38.42 28.59"/><polygon class="cls-6" points="39.09 31.46 38.65 31.56 39.27 34.43 39.72 34.35 39.09 31.46"/><polygon class="cls-6" points="39.72 34.35 39.27 34.43 39.84 37.32 40.29 37.24 39.72 34.35"/><polygon class="cls-6" points="40.29 37.24 39.84 37.32 40.36 40.21 40.8 40.14 40.29 37.24"/><polygon class="cls-6" points="40.8 40.14 40.36 40.21 40.81 43.11 41.26 43.05 40.8 40.14"/><path class="cls-6" d="M41.26,43.05l-.45.06c.14,1,.28,1.93.4,2.9l.45-.06C41.54,45,41.4,44,41.26,43.05Z"/><path class="cls-6" d="M41.66,46l-.45.06c.12,1,.23,1.93.33,2.88l.45,0C41.89,47.89,41.78,46.92,41.66,46Z"/><path class="cls-6" d="M42,48.85l-.45,0,.13,1.42c0,.12,0,.72,0,.39v.75h.45V50.7c0,.28,0-.3,0-.42Z"/><rect class="cls-6" x="41.7" y="51.45" width="0.45" height="3.02"/><rect class="cls-6" x="41.7" y="54.48" width="0.45" height="3.02"/><rect class="cls-6" x="41.7" y="57.5" width="0.45" height="3.02"/><rect class="cls-6" x="41.7" y="60.52" width="0.45" height="3.02"/><rect class="cls-6" x="41.7" y="63.54" width="0.45" height="3.02"/><rect class="cls-6" x="41.7" y="66.57" width="0.45" height="3.02"/><rect class="cls-6" x="41.7" y="69.59" width="0.45" height="3.02"/><rect class="cls-6" x="41.7" y="72.61" width="0.45" height="3.02"/><rect class="cls-6" x="41.7" y="75.63" width="0.45" height="3.02"/><rect class="cls-6" x="41.7" y="78.66" width="0.45" height="8.06"/><path class="cls-6" d="M56.38,11.44c.1-.3.32-.5.48-.45l2.53.83c.16,0,.2.33.1.64l-.22.63c-.11.31-.32.51-.48.46l-2.54-.83c-.16-.05-.2-.34-.1-.64Z"/><path class="cls-6" d="M56.34,12.66l2.27.74a.19.19,0,0,0,.17,0c-.65-.21-2.39-.79-2.4-1A1.59,1.59,0,0,1,57,11.16l-.16-.05c-.15,0-.34.13-.43.4l-.2.58C56.15,12.36,56.19,12.61,56.34,12.66Z"/><path class="cls-6" d="M59.31,12.24a1.28,1.28,0,0,1,0,.57,2.12,2.12,0,0,1-.2.6.86.86,0,0,0,.11-.19l.24-.69c.11-.33.06-.64-.11-.69l-2-.64c.38.14.76.3,1.14.46.2.09.39.2.58.3A.45.45,0,0,1,59.31,12.24Z"/><path class="cls-6" d="M43.28,12.48c-.11-.3-.33-.5-.49-.45l-2.53.84c-.16.05-.2.34-.09.64l.22.64c.11.3.33.5.49.45l2.53-.84c.15,0,.2-.34.09-.64Z"/><path class="cls-6" d="M43.32,13.7l-2.26.75a.2.2,0,0,1-.17,0c.64-.22,2.37-.81,2.39-1.05a1.6,1.6,0,0,0-.67-1.16l.16-.06c.15-.05.34.14.44.4l.2.58C43.5,13.4,43.46,13.65,43.32,13.7Z"/><path class="cls-6" d="M40.35,13.3a1.25,1.25,0,0,0,0,.57,2.1,2.1,0,0,0,.22.59.69.69,0,0,1-.12-.19l-.24-.69c-.12-.32-.07-.63.1-.69l2-.65q-.57.22-1.14.48c-.2.08-.38.2-.58.3A.37.37,0,0,0,40.35,13.3Z"/><polygon class="cls-7" points="42.08 11.93 41.93 11.98 41.97 12.1 42.12 12.05 42.08 11.93"/><polygon class="cls-7" points="42.17 12.18 42.12 12.05 41.97 12.1 42.01 12.23 42.17 12.18"/><polygon class="cls-7" points="43.08 14.86 42.92 14.91 42.96 15.03 43.12 14.98 43.08 14.86"/><polygon class="cls-7" points="43.16 15.11 43.12 14.98 42.96 15.03 43.01 15.16 43.16 15.11"/><polygon class="cls-7" points="44.02 17.81 43.86 17.86 43.9 17.97 44.06 17.93 44.02 17.81"/><path class="cls-8" d="M39.8,17.42a.76.76,0,0,1,.62-.85,22.44,22.44,0,0,0,3.77-1.14.78.78,0,0,1,1,.38h0a.75.75,0,0,1-.42,1A23.65,23.65,0,0,1,40.72,18a.77.77,0,0,1-.92-.59Z"/><polygon class="cls-7" points="44.1 18.06 44.06 17.93 43.9 17.97 43.94 18.11 44.1 18.06"/><polygon class="cls-7" points="44.9 20.77 44.74 20.82 44.77 20.93 44.93 20.89 44.9 20.77"/><path class="cls-8" d="M40.69,20.31a.76.76,0,0,1,.64-.84,22.34,22.34,0,0,0,3.78-1.07.79.79,0,0,1,1,.4h0a.73.73,0,0,1-.44,1,23.92,23.92,0,0,1-4.08,1.12.76.76,0,0,1-.91-.6Z"/><polygon class="cls-7" points="44.97 21.03 44.93 20.89 44.77 20.93 44.81 21.07 44.97 21.03"/><polygon class="cls-7" points="45.72 23.75 45.56 23.79 45.59 23.91 45.75 23.87 45.72 23.75"/><path class="cls-8" d="M41.52,23.21a.77.77,0,0,1,.66-.83,21.7,21.7,0,0,0,3.8-1,.78.78,0,0,1,1,.42h0a.74.74,0,0,1-.45,1,24.26,24.26,0,0,1-4.11,1,.77.77,0,0,1-.9-.62Z"/><polygon class="cls-7" points="45.79 24 45.75 23.87 45.59 23.91 45.63 24.04 45.79 24"/><polygon class="cls-7" points="46.49 26.74 46.33 26.78 46.36 26.89 46.52 26.86 46.49 26.74"/><path class="cls-8" d="M42.3,26.13a.76.76,0,0,1,.67-.82,22.65,22.65,0,0,0,3.82-.93.78.78,0,0,1,1,.43h0a.75.75,0,0,1-.47,1,24.3,24.3,0,0,1-4.13,1,.76.76,0,0,1-.88-.63Z"/><polygon class="cls-7" points="46.55 26.99 46.52 26.86 46.36 26.89 46.39 27.03 46.55 26.99"/><polygon class="cls-7" points="47.2 29.74 47.04 29.78 47.06 29.89 47.22 29.86 47.2 29.74"/><path class="cls-8" d="M43,29.06a.76.76,0,0,1,.68-.81,22.7,22.7,0,0,0,3.84-.86.79.79,0,0,1,1,.44h0a.76.76,0,0,1-.49,1,24.33,24.33,0,0,1-4.15.89.75.75,0,0,1-.87-.64Z"/><polygon class="cls-7" points="47.26 30 47.22 29.86 47.06 29.89 47.09 30.03 47.26 30"/><polygon class="cls-7" points="47.85 32.76 47.69 32.79 47.72 32.91 47.88 32.88 47.85 32.76"/><path class="cls-8" d="M43.69,32a.77.77,0,0,1,.7-.8,22.11,22.11,0,0,0,3.85-.79.79.79,0,0,1,1,.46h0a.76.76,0,0,1-.51,1,24.49,24.49,0,0,1-4.16.82.75.75,0,0,1-.86-.66Z"/><polygon class="cls-7" points="47.9 33.01 47.88 32.88 47.72 32.91 47.74 33.04 47.9 33.01"/><polygon class="cls-7" points="48.45 35.78 48.29 35.81 48.31 35.93 48.47 35.9 48.45 35.78"/><path class="cls-8" d="M44.3,35a.77.77,0,0,1,.72-.78,21.91,21.91,0,0,0,3.86-.73.79.79,0,0,1,1,.48h0a.75.75,0,0,1-.53,1,24.46,24.46,0,0,1-4.17.75A.77.77,0,0,1,44.3,35Z"/><polygon class="cls-7" points="48.5 36.04 48.47 35.9 48.31 35.93 48.34 36.07 48.5 36.04"/><polygon class="cls-7" points="48.99 38.82 48.83 38.84 48.85 38.96 49.01 38.94 48.99 38.82"/><path class="cls-8" d="M44.86,37.91a.77.77,0,0,1,.73-.77,22.16,22.16,0,0,0,3.88-.66.78.78,0,0,1,1,.5h0a.76.76,0,0,1-.55,1,24.57,24.57,0,0,1-4.19.68.76.76,0,0,1-.83-.7Z"/><polygon class="cls-7" points="49.04 39.08 49.01 38.94 48.85 38.96 48.87 39.1 49.04 39.08"/><polygon class="cls-7" points="49.48 41.87 49.31 41.89 49.33 42.01 49.49 41.99 49.48 41.87"/><path class="cls-8" d="M45.36,40.88a.76.76,0,0,1,.74-.75,23.24,23.24,0,0,0,3.9-.59.78.78,0,0,1,1,.51h0a.76.76,0,0,1-.57.94,23.75,23.75,0,0,1-4.2.6.75.75,0,0,1-.82-.71Z"/><polygon class="cls-7" points="49.51 42.13 49.49 41.99 49.33 42.01 49.35 42.15 49.51 42.13"/><polygon class="cls-7" points="49.9 44.93 49.73 44.95 49.75 45.07 49.91 45.05 49.9 44.93"/><path class="cls-8" d="M45.8,43.86a.78.78,0,0,1,.76-.74,22.4,22.4,0,0,0,3.91-.52.78.78,0,0,1,.93.54h0a.75.75,0,0,1-.58.93,23.75,23.75,0,0,1-4.21.52.76.76,0,0,1-.81-.73Z"/><polygon class="cls-7" points="49.93 45.19 49.91 45.05 49.75 45.07 49.77 45.21 49.93 45.19"/><polygon class="cls-7" points="50.25 48.01 50.09 48.03 50.1 48.15 50.26 48.13 50.25 48.01"/><path class="cls-8" d="M46.18,46.85a.76.76,0,0,1,.78-.72,23.41,23.41,0,0,0,3.91-.44.78.78,0,0,1,.93.56h0a.77.77,0,0,1-.61.92,23.86,23.86,0,0,1-4.22.42.76.76,0,0,1-.79-.74Z"/><polygon class="cls-7" points="50.27 48.27 50.26 48.13 50.1 48.15 50.11 48.29 50.27 48.27"/><rect class="cls-7" x="50.3" y="51.34" width="0.16" height="0.12"/><path class="cls-8" d="M46.48,49.84a.77.77,0,0,1,.8-.7,22.39,22.39,0,0,0,3.92-.33.77.77,0,0,1,.91.6h0c.1.53-.19.62-.62,1.2a23.21,23.21,0,0,1-4.25,0,.77.77,0,0,1-.76-.77Z"/><rect class="cls-7" x="50.3" y="51.45" width="0.16" height="0.14"/><rect class="cls-7" x="50.3" y="54.36" width="0.16" height="0.12"/><path class="cls-8" d="M46.54,52.82a.77.77,0,0,1,.85-.64,23.56,23.56,0,0,0,3.94,0,.77.77,0,0,1,.86.64h0a.75.75,0,0,1-.7.82,25.13,25.13,0,0,1-4.25,0,.74.74,0,0,1-.7-.82Z"/><rect class="cls-7" x="50.3" y="54.48" width="0.16" height="0.14"/><rect class="cls-7" x="50.3" y="57.38" width="0.16" height="0.12"/><path class="cls-8" d="M46.54,55.84a.78.78,0,0,1,.85-.64,22.54,22.54,0,0,0,3.94,0,.78.78,0,0,1,.86.64h0a.75.75,0,0,1-.7.82,25.13,25.13,0,0,1-4.25,0,.74.74,0,0,1-.7-.82Z"/><rect class="cls-7" x="50.3" y="57.5" width="0.16" height="0.14"/><rect class="cls-7" x="50.3" y="60.4" width="0.16" height="0.12"/><path class="cls-8" d="M46.54,58.86a.78.78,0,0,1,.85-.64,21.61,21.61,0,0,0,3.94,0,.78.78,0,0,1,.86.64h0a.75.75,0,0,1-.7.82,25.13,25.13,0,0,1-4.25,0,.74.74,0,0,1-.7-.82Z"/><rect class="cls-7" x="50.3" y="60.52" width="0.16" height="0.14"/><rect class="cls-7" x="50.3" y="63.42" width="0.16" height="0.12"/><path class="cls-8" d="M46.54,61.88a.76.76,0,0,1,.85-.63,23.56,23.56,0,0,0,3.94,0,.77.77,0,0,1,.86.63h0a.75.75,0,0,1-.7.82,23.21,23.21,0,0,1-4.25,0,.74.74,0,0,1-.7-.82Z"/><rect class="cls-7" x="50.3" y="63.54" width="0.16" height="0.14"/><rect class="cls-7" x="50.3" y="66.45" width="0.16" height="0.12"/><path class="cls-8" d="M46.54,64.9a.77.77,0,0,1,.85-.63,23.56,23.56,0,0,0,3.94,0,.77.77,0,0,1,.86.63h0a.75.75,0,0,1-.7.83,25.13,25.13,0,0,1-4.25,0,.75.75,0,0,1-.7-.83Z"/><rect class="cls-7" x="50.3" y="66.57" width="0.16" height="0.14"/><rect class="cls-7" x="50.3" y="69.47" width="0.16" height="0.12"/><path class="cls-8" d="M46.54,67.93a.78.78,0,0,1,.85-.64,23.56,23.56,0,0,0,3.94,0,.78.78,0,0,1,.86.64h0a.75.75,0,0,1-.7.82,25.13,25.13,0,0,1-4.25,0,.74.74,0,0,1-.7-.82Z"/><rect class="cls-7" x="50.3" y="69.59" width="0.16" height="0.14"/><rect class="cls-7" x="50.3" y="72.49" width="0.16" height="0.12"/><path class="cls-8" d="M46.54,71a.78.78,0,0,1,.85-.64,21.61,21.61,0,0,0,3.94,0,.78.78,0,0,1,.86.64h0a.75.75,0,0,1-.7.82,25.13,25.13,0,0,1-4.25,0,.74.74,0,0,1-.7-.82Z"/><rect class="cls-7" x="50.3" y="72.61" width="0.16" height="0.14"/><rect class="cls-7" x="50.3" y="75.51" width="0.16" height="0.12"/><path class="cls-8" d="M46.54,74a.76.76,0,0,1,.85-.63,23.56,23.56,0,0,0,3.94,0,.77.77,0,0,1,.86.63h0a.75.75,0,0,1-.7.82,25.13,25.13,0,0,1-4.25,0,.74.74,0,0,1-.7-.82Z"/><rect class="cls-7" x="50.3" y="75.63" width="0.16" height="0.14"/><rect class="cls-7" x="50.3" y="78.54" width="0.16" height="0.12"/><path class="cls-8" d="M46.54,77a.77.77,0,0,1,.85-.63,23.56,23.56,0,0,0,3.94,0,.77.77,0,0,1,.86.63h0a.76.76,0,0,1-.7.83,25.13,25.13,0,0,1-4.25,0,.75.75,0,0,1-.7-.83Z"/><rect class="cls-7" x="50.3" y="78.66" width="0.16" height="0.14"/><rect class="cls-7" x="50.3" y="81.56" width="0.16" height="0.12"/><path class="cls-8" d="M46.54,80a.78.78,0,0,1,.85-.64,23.56,23.56,0,0,0,3.94,0,.78.78,0,0,1,.86.64h0a.75.75,0,0,1-.7.82,25.13,25.13,0,0,1-4.25,0,.74.74,0,0,1-.7-.82Z"/><rect class="cls-7" x="50.3" y="81.68" width="0.16" height="0.14"/><path class="cls-9" d="M60.81,16.12a.76.76,0,0,0-.63-.84,22.16,22.16,0,0,1-3.78-1.1.79.79,0,0,0-1,.39h0a.74.74,0,0,0,.43,1,24,24,0,0,0,4.08,1.14.76.76,0,0,0,.91-.59Z"/><path class="cls-10" d="M55.46,14.67a.88.88,0,0,1,.19-.27.6.6,0,0,1,.54-.15c.54.11.2.36.1.3a.44.44,0,0,0-.59.27c-.05.12-.12.2-.21.09A.23.23,0,0,1,55.46,14.67Z"/><path class="cls-11" d="M60,16.52l-.27-.06c.29,0,.72-.1.7-.39a.85.85,0,0,0-.25-.53h0a.5.5,0,0,1,.43.57A.52.52,0,0,1,60,16.52Z"/><path class="cls-12" d="M55.72,15.46s-.06-.11,0-.18.6.19.7.22l.86.28c.65.2,1.29.39,2,.54.23.05.46.05.68.1,0,0,.41.08.15.21A24.17,24.17,0,0,1,55.72,15.46Z"/><path class="cls-9" d="M60,19a.76.76,0,0,0-.65-.83,23.7,23.7,0,0,1-3.8-1,.79.79,0,0,0-1,.4h0a.74.74,0,0,0,.45,1,24,24,0,0,0,4.1,1.08A.77.77,0,0,0,60,19Z"/><path class="cls-10" d="M54.58,17.65a.77.77,0,0,1,.19-.27.57.57,0,0,1,.54-.16c.54.1.21.35.1.3a.43.43,0,0,0-.59.27c0,.12-.12.21-.21.1A.23.23,0,0,1,54.58,17.65Z"/><path class="cls-11" d="M59.16,19.42l-.27-.05c.29,0,.72-.12.7-.41a.76.76,0,0,0-.27-.52h0a.5.5,0,1,1-.17,1Z"/><path class="cls-12" d="M54.85,18.43a.16.16,0,0,1,0-.18c.06-.06.61.18.71.22l.86.26c.65.19,1.3.37,2,.51.23,0,.46,0,.68.08,0,0,.42.07.16.21A23,23,0,0,1,54.85,18.43Z"/><path class="cls-9" d="M59.16,21.91a.77.77,0,0,0-.67-.82,21.72,21.72,0,0,1-3.81-1,.8.8,0,0,0-1,.43h0a.75.75,0,0,0,.47,1,24.06,24.06,0,0,0,4.12,1,.77.77,0,0,0,.89-.63Z"/><path class="cls-10" d="M53.76,20.65a.62.62,0,0,1,.18-.28.6.6,0,0,1,.54-.17c.54.09.21.35.1.3a.42.42,0,0,0-.58.28c0,.13-.11.21-.21.1A.22.22,0,0,1,53.76,20.65Z"/><path class="cls-11" d="M58.37,22.34l-.27-.05c.29,0,.71-.13.68-.42a.71.71,0,0,0-.27-.51h0a.51.51,0,0,1,.45.55A.52.52,0,0,1,58.37,22.34Z"/><path class="cls-12" d="M54,21.42a.16.16,0,0,1,0-.18c.06-.06.61.17.71.2l.87.25c.65.18,1.3.35,2,.48.22,0,.46,0,.68.07,0,0,.41.07.16.2A23.13,23.13,0,0,1,54,21.42Z"/><path class="cls-9" d="M58.4,24.83a.75.75,0,0,0-.67-.81,22.68,22.68,0,0,1-3.83-.9.79.79,0,0,0-1,.43h0a.75.75,0,0,0,.48,1,25.33,25.33,0,0,0,4.14.94.75.75,0,0,0,.87-.64Z"/><path class="cls-10" d="M53,23.65a.78.78,0,0,1,.17-.28.63.63,0,0,1,.54-.18c.54.08.22.35.11.3a.43.43,0,0,0-.58.29c0,.13-.11.22-.21.1A.23.23,0,0,1,53,23.65Z"/><path class="cls-11" d="M57.63,25.27l-.28-.05c.3,0,.72-.14.68-.43a.74.74,0,0,0-.28-.51h0a.5.5,0,1,1-.13,1Z"/><path class="cls-12" d="M53.29,24.42a.15.15,0,0,1,0-.18c.06-.06.61.16.71.19l.88.23c.65.17,1.31.33,2,.45.23,0,.46,0,.69.06,0,0,.41.06.16.2A23,23,0,0,1,53.29,24.42Z"/><path class="cls-9" d="M57.71,27.76A.77.77,0,0,0,57,27a23,23,0,0,1-3.85-.84.78.78,0,0,0-1,.45h0a.75.75,0,0,0,.5,1,24.49,24.49,0,0,0,4.15.87.76.76,0,0,0,.87-.65Z"/><path class="cls-10" d="M52.27,26.67a.7.7,0,0,1,.17-.28A.62.62,0,0,1,53,26.2c.55.07.23.34.12.29a.44.44,0,0,0-.57.31c0,.12-.11.21-.21.1A.24.24,0,0,1,52.27,26.67Z"/><path class="cls-11" d="M56.94,28.21l-.28,0c.29,0,.71-.15.68-.44a.81.81,0,0,0-.29-.51h0a.5.5,0,1,1-.12,1Z"/><path class="cls-12" d="M52.58,27.43a.17.17,0,0,1,0-.18c.06-.06.62.16.72.18l.88.22c.65.16,1.31.31,2,.41.23,0,.46,0,.68.05,0,0,.42.06.17.2A22.72,22.72,0,0,1,52.58,27.43Z"/><path class="cls-9" d="M57.06,30.7a.75.75,0,0,0-.7-.79,22,22,0,0,1-3.86-.78.78.78,0,0,0-1,.47h0a.74.74,0,0,0,.51,1,24.56,24.56,0,0,0,4.17.8.75.75,0,0,0,.85-.66Z"/><path class="cls-10" d="M51.61,29.7a.69.69,0,0,1,.16-.28.6.6,0,0,1,.53-.2c.55.06.23.34.12.29a.42.42,0,0,0-.56.31c0,.13-.11.22-.21.11A.24.24,0,0,1,51.61,29.7Z"/><path class="cls-11" d="M56.3,31.16l-.28,0c.29-.05.71-.17.67-.46a.78.78,0,0,0-.3-.5h0a.5.5,0,1,1-.1,1Z"/><path class="cls-12" d="M51.93,30.46a.15.15,0,0,1,0-.18c0-.07.61.14.71.17l.89.2c.66.15,1.32.28,2,.38.23,0,.46,0,.68,0,0,0,.42,0,.17.19A22.91,22.91,0,0,1,51.93,30.46Z"/><path class="cls-9" d="M56.47,33.65a.76.76,0,0,0-.72-.78,22.94,22.94,0,0,1-3.87-.71.79.79,0,0,0-1,.49h0a.75.75,0,0,0,.54,1,24.54,24.54,0,0,0,4.18.73.76.76,0,0,0,.84-.68Z"/><path class="cls-10" d="M51,32.74a.68.68,0,0,1,.16-.29.6.6,0,0,1,.52-.2c.55,0,.24.33.13.29a.42.42,0,0,0-.56.32c0,.13-.1.22-.2.11A.21.21,0,0,1,51,32.74Z"/><path class="cls-11" d="M55.72,34.12l-.28,0c.29-.05.7-.17.66-.46a.8.8,0,0,0-.31-.5h0a.53.53,0,0,1,.49.53A.51.51,0,0,1,55.72,34.12Z"/><path class="cls-12" d="M51.33,33.5a.17.17,0,0,1,0-.18c.05-.07.62.13.72.15l.89.19c.66.13,1.32.26,2,.34.23,0,.46,0,.69,0,0,0,.42,0,.17.19A23.2,23.2,0,0,1,51.33,33.5Z"/><path class="cls-9" d="M55.93,36.6a.77.77,0,0,0-.73-.76,22.39,22.39,0,0,1-3.89-.64.78.78,0,0,0-1,.5h0a.76.76,0,0,0,.55.95,24.68,24.68,0,0,0,4.19.65.75.75,0,0,0,.83-.7Z"/><path class="cls-10" d="M50.44,35.8a.81.81,0,0,1,.16-.29.61.61,0,0,1,.52-.22c.55,0,.24.33.13.29a.43.43,0,0,0-.55.33c0,.13-.1.22-.21.12A.24.24,0,0,1,50.44,35.8Z"/><path class="cls-11" d="M55.19,37.09l-.28,0c.29-.06.7-.19.65-.47a.77.77,0,0,0-.32-.5h0a.53.53,0,0,1,.5.52A.51.51,0,0,1,55.19,37.09Z"/><path class="cls-12" d="M50.79,36.54a.15.15,0,0,1,0-.18c.05-.06.62.13.72.15l.89.17c.66.12,1.33.24,2,.31.23,0,.46,0,.69,0,0,0,.42,0,.18.19A22.51,22.51,0,0,1,50.79,36.54Z"/><path class="cls-9" d="M55.45,39.57a.77.77,0,0,0-.75-.75,22.37,22.37,0,0,1-3.9-.57.78.78,0,0,0-.94.52h0a.76.76,0,0,0,.57.94,24.81,24.81,0,0,0,4.2.57.75.75,0,0,0,.82-.71Z"/><path class="cls-10" d="M50,38.87a.83.83,0,0,1,.14-.3.59.59,0,0,1,.52-.22c.55,0,.25.32.14.28a.43.43,0,0,0-.55.34c0,.13-.09.23-.2.12A.22.22,0,0,1,50,38.87Z"/><path class="cls-11" d="M54.71,40.07h-.27c.28-.07.69-.21.64-.49a.8.8,0,0,0-.33-.49h0a.53.53,0,0,1,.51.51A.51.51,0,0,1,54.71,40.07Z"/><path class="cls-12" d="M50.31,39.61a.17.17,0,0,1,0-.18c.05-.07.62.11.72.13l.9.15c.66.11,1.33.22,2,.27.23,0,.46,0,.69,0,0,0,.41,0,.17.18A22.6,22.6,0,0,1,50.31,39.61Z"/><path class="cls-13" d="M55,42.55a.78.78,0,0,0-.77-.74,22.25,22.25,0,0,1-3.9-.49.78.78,0,0,0-.94.54h0a.75.75,0,0,0,.59.92,24.93,24.93,0,0,0,4.22.5.76.76,0,0,0,.8-.73Z"/><path class="cls-10" d="M49.51,42a.83.83,0,0,1,.14-.3.59.59,0,0,1,.51-.23c.55,0,.26.32.15.28a.42.42,0,0,0-.54.35c0,.13-.09.23-.2.13A.24.24,0,0,1,49.51,42Z"/><path class="cls-11" d="M54.3,43.06H54c.29-.07.7-.21.63-.5a.78.78,0,0,0-.33-.48h0a.52.52,0,0,1,.51.5A.5.5,0,0,1,54.3,43.06Z"/><path class="cls-12" d="M49.89,42.68a.16.16,0,0,1,0-.18c0-.07.62.1.72.12l.9.14c.67.1,1.34.19,2,.23.23,0,.47,0,.69,0,0,0,.42,0,.19.18A22.08,22.08,0,0,1,49.89,42.68Z"/><path class="cls-13" d="M54.67,45.53a.76.76,0,0,0-.78-.72A22.38,22.38,0,0,1,50,44.4a.78.78,0,0,0-.92.57h0a.75.75,0,0,0,.61.91,23.12,23.12,0,0,0,4.23.39.74.74,0,0,0,.78-.74Z"/><path class="cls-10" d="M49.14,45.06a.74.74,0,0,1,.14-.31.58.58,0,0,1,.5-.25c.55,0,.27.32.15.29a.42.42,0,0,0-.53.37c0,.13-.08.22-.19.13A.25.25,0,0,1,49.14,45.06Z"/><path class="cls-11" d="M54,46.06h-.28c.29-.08.69-.24.62-.52a.82.82,0,0,0-.35-.47h0a.52.52,0,0,1,.53.49A.51.51,0,0,1,54,46.06Z"/><path class="cls-12" d="M49.54,45.79a.15.15,0,0,1,0-.18c0-.08.63.08.73.1l.9.11c.67.09,1.34.16,2,.19.23,0,.46,0,.69,0,0,0,.42,0,.18.18A22.92,22.92,0,0,1,49.54,45.79Z"/><path class="cls-13" d="M54.4,48.51a.77.77,0,0,0-.8-.69,22.4,22.4,0,0,1-3.93-.3.79.79,0,0,0-.91.62h0c0,.32,0,.21.12.87a.82.82,0,0,0,.54.28,25.13,25.13,0,0,0,4.25,0,.77.77,0,0,0,.73-.78Z"/><path class="cls-10" d="M48.86,48.23a.76.76,0,0,1,.12-.32.58.58,0,0,1,.5-.27c.55,0,.28.31.16.28a.43.43,0,0,0-.52.41c0,.13-.07.25-.19.14A.25.25,0,0,1,48.86,48.23Z"/><path class="cls-11" d="M53.72,49.07l-.28,0c.27-.11.67-.28.59-.55a.82.82,0,0,0-.36-.46h0a.52.52,0,0,1,.55.46A.51.51,0,0,1,53.72,49.07Z"/><path class="cls-12" d="M49.29,49.21a.15.15,0,0,1,0-.17c0-.07.63,0,.73,0l.91,0c.67,0,1.35,0,2,0,.23,0,.45-.07.68-.09,0,0,.42,0,.2.16A23.59,23.59,0,0,1,49.29,49.21Z"/><path class="cls-13" d="M54.37,51.49a.78.78,0,0,0-.85-.64,23.56,23.56,0,0,1-3.94,0,.78.78,0,0,0-.86.64h0a.75.75,0,0,0,.7.82,25.13,25.13,0,0,0,4.25,0,.74.74,0,0,0,.7-.82Z"/><path class="cls-10" d="M48.82,51.56a.88.88,0,0,1,.1-.3A.62.62,0,0,1,49.4,51c.55,0,.3.28.18.26a.41.41,0,0,0-.49.4c0,.13-.06.23-.18.14A.23.23,0,0,1,48.82,51.56Z"/><path class="cls-11" d="M53.72,52.09l-.28,0c.28-.1.66-.3.56-.57a.78.78,0,0,0-.39-.44h0a.5.5,0,1,1,.1,1Z"/><path class="cls-12" d="M49.29,52.23a.17.17,0,0,1,0-.18c0-.07.63,0,.73,0l.91,0c.67,0,1.35,0,2,0,.23,0,.45-.08.68-.1,0,0,.42,0,.2.16A22.82,22.82,0,0,1,49.29,52.23Z"/><path class="cls-9" d="M54.37,54.5a.77.77,0,0,0-.85-.63,23.56,23.56,0,0,1-3.94,0,.77.77,0,0,0-.86.63h0a.75.75,0,0,0,.7.82,25.13,25.13,0,0,0,4.25,0,.74.74,0,0,0,.7-.82Z"/><path class="cls-11" d="M53.72,55.1l-.28,0c.28-.1.66-.29.56-.57a.76.76,0,0,0-.39-.43h0a.51.51,0,0,1,.57.43A.5.5,0,0,1,53.72,55.1Z"/><path class="cls-9" d="M54.37,57.52a.78.78,0,0,0-.85-.64,21.61,21.61,0,0,1-3.94,0,.78.78,0,0,0-.86.64h0a.75.75,0,0,0,.7.82,25.13,25.13,0,0,0,4.25,0,.74.74,0,0,0,.7-.82Z"/><path class="cls-10" d="M48.82,57.59a.88.88,0,0,1,.1-.3A.62.62,0,0,1,49.4,57c.55,0,.3.28.18.26a.41.41,0,0,0-.49.4c0,.13-.06.23-.18.14A.23.23,0,0,1,48.82,57.59Z"/><path class="cls-11" d="M53.72,58.12l-.28,0c.28-.1.66-.3.56-.57a.78.78,0,0,0-.39-.44h0a.5.5,0,1,1,.1,1Z"/><path class="cls-12" d="M49.29,58.26a.16.16,0,0,1,0-.18c0-.07.63,0,.73,0l.91,0c.67,0,1.35,0,2,0,.23,0,.45-.08.68-.1,0,0,.42,0,.2.16A22.82,22.82,0,0,1,49.29,58.26Z"/><path class="cls-9" d="M54.37,60.53a.77.77,0,0,0-.85-.63,23.56,23.56,0,0,1-3.94,0,.77.77,0,0,0-.86.63h0a.75.75,0,0,0,.7.82,25.13,25.13,0,0,0,4.25,0,.74.74,0,0,0,.7-.82Z"/><path class="cls-10" d="M48.82,60.61a.94.94,0,0,1,.1-.31A.58.58,0,0,1,49.4,60c.55-.05.3.27.18.25a.42.42,0,0,0-.49.41c0,.12-.06.22-.18.14A.24.24,0,0,1,48.82,60.61Z"/><path class="cls-11" d="M53.72,61.13l-.28,0c.28-.1.66-.29.56-.57a.76.76,0,0,0-.39-.43h0a.51.51,0,0,1,.57.43A.5.5,0,0,1,53.72,61.13Z"/><path class="cls-12" d="M49.29,61.27a.15.15,0,0,1,0-.17c0-.07.63,0,.73,0l.91,0c.67,0,1.35,0,2,0,.23,0,.45-.07.68-.09,0,0,.42,0,.2.16A23.59,23.59,0,0,1,49.29,61.27Z"/><path class="cls-9" d="M54.37,63.55a.78.78,0,0,0-.85-.64,21.61,21.61,0,0,1-3.94,0,.78.78,0,0,0-.86.64h0a.75.75,0,0,0,.7.82,25.13,25.13,0,0,0,4.25,0,.74.74,0,0,0,.7-.82Z"/><path class="cls-10" d="M48.82,63.62a.88.88,0,0,1,.1-.3A.62.62,0,0,1,49.4,63c.55,0,.3.28.18.26a.41.41,0,0,0-.49.4c0,.13-.06.23-.18.14A.23.23,0,0,1,48.82,63.62Z"/><path class="cls-11" d="M53.72,64.15l-.28,0c.28-.1.66-.3.56-.57a.78.78,0,0,0-.39-.44h0a.5.5,0,1,1,.1,1Z"/><path class="cls-12" d="M49.29,64.29a.16.16,0,0,1,0-.18c0-.07.63,0,.73,0l.91,0c.67,0,1.35,0,2,0,.23,0,.45-.08.68-.1,0,0,.42,0,.2.16A22.82,22.82,0,0,1,49.29,64.29Z"/><path class="cls-9" d="M54.37,66.56a.77.77,0,0,0-.85-.63,23.56,23.56,0,0,1-3.94,0,.77.77,0,0,0-.86.63h0a.75.75,0,0,0,.7.82,25.13,25.13,0,0,0,4.25,0,.74.74,0,0,0,.7-.82Z"/><path class="cls-10" d="M48.82,66.64a.94.94,0,0,1,.1-.31.58.58,0,0,1,.48-.28c.55,0,.3.28.18.25a.43.43,0,0,0-.49.41c0,.12-.06.22-.18.14A.24.24,0,0,1,48.82,66.64Z"/><path class="cls-11" d="M53.72,67.16l-.28,0c.28-.1.66-.29.56-.57a.76.76,0,0,0-.39-.43h0a.51.51,0,0,1,.57.43A.5.5,0,0,1,53.72,67.16Z"/><path class="cls-12" d="M49.29,67.3a.15.15,0,0,1,0-.17c0-.07.63,0,.73,0l.91,0c.67,0,1.35,0,2,0,.23,0,.45-.07.68-.09,0,0,.42,0,.2.16A23.59,23.59,0,0,1,49.29,67.3Z"/><path class="cls-9" d="M54.37,69.58a.78.78,0,0,0-.85-.64,21.61,21.61,0,0,1-3.94,0,.78.78,0,0,0-.86.64h0a.75.75,0,0,0,.7.82,25.13,25.13,0,0,0,4.25,0,.74.74,0,0,0,.7-.82Z"/><path class="cls-10" d="M48.82,69.65a.88.88,0,0,1,.1-.3.62.62,0,0,1,.48-.29c.55,0,.3.28.18.26a.41.41,0,0,0-.49.4c0,.13-.06.23-.18.15A.26.26,0,0,1,48.82,69.65Z"/><path class="cls-11" d="M53.72,70.18l-.28,0c.28-.1.66-.3.56-.57a.78.78,0,0,0-.39-.44h0a.5.5,0,1,1,.1,1Z"/><path class="cls-12" d="M49.29,70.32a.16.16,0,0,1,0-.18c0-.07.63,0,.73,0l.91,0c.67,0,1.35,0,2,0,.23,0,.45-.08.68-.1,0,0,.42,0,.2.16A22.82,22.82,0,0,1,49.29,70.32Z"/><path class="cls-9" d="M54.37,72.59a.77.77,0,0,0-.85-.63,23.56,23.56,0,0,1-3.94,0,.77.77,0,0,0-.86.63h0a.75.75,0,0,0,.7.82,25.13,25.13,0,0,0,4.25,0,.74.74,0,0,0,.7-.82Z"/><path class="cls-10" d="M48.82,72.67a.94.94,0,0,1,.1-.31.58.58,0,0,1,.48-.28c.55,0,.3.28.18.25a.43.43,0,0,0-.49.41c0,.12-.06.22-.18.14A.24.24,0,0,1,48.82,72.67Z"/><path class="cls-11" d="M53.72,73.19l-.28,0c.28-.1.66-.29.56-.57a.76.76,0,0,0-.39-.43h0a.51.51,0,0,1,.57.43A.5.5,0,0,1,53.72,73.19Z"/><path class="cls-12" d="M49.29,73.33a.15.15,0,0,1,0-.17c0-.07.63,0,.73,0l.91,0c.67,0,1.35,0,2,0,.23,0,.45-.07.68-.09,0,0,.42,0,.2.16A23.59,23.59,0,0,1,49.29,73.33Z"/><path class="cls-9" d="M54.37,75.61a.78.78,0,0,0-.85-.64,21.61,21.61,0,0,1-3.94,0,.78.78,0,0,0-.86.64h0a.75.75,0,0,0,.7.82,25.13,25.13,0,0,0,4.25,0,.74.74,0,0,0,.7-.82Z"/><path class="cls-10" d="M48.82,75.68a.88.88,0,0,1,.1-.3.62.62,0,0,1,.48-.29c.55,0,.3.28.18.26a.41.41,0,0,0-.49.4c0,.13-.06.23-.18.15A.26.26,0,0,1,48.82,75.68Z"/><path class="cls-11" d="M53.72,76.21l-.28,0c.28-.1.66-.3.56-.57a.78.78,0,0,0-.39-.44h0a.52.52,0,0,1,.57.43A.51.51,0,0,1,53.72,76.21Z"/><path class="cls-12" d="M49.29,76.35a.16.16,0,0,1,0-.18c0-.07.63,0,.73,0l.91,0c.67,0,1.35,0,2,0,.23,0,.45-.08.68-.1,0,0,.42,0,.2.16A22.82,22.82,0,0,1,49.29,76.35Z"/><path class="cls-9" d="M54.37,78.62a.77.77,0,0,0-.85-.63,23.56,23.56,0,0,1-3.94,0,.77.77,0,0,0-.86.63h0a.75.75,0,0,0,.7.82,25.13,25.13,0,0,0,4.25,0,.74.74,0,0,0,.7-.82Z"/><path class="cls-10" d="M48.82,78.7a.94.94,0,0,1,.1-.31.58.58,0,0,1,.48-.28c.55,0,.3.28.18.25a.43.43,0,0,0-.49.41c0,.13-.06.22-.18.14A.24.24,0,0,1,48.82,78.7Z"/><path class="cls-11" d="M53.72,79.22l-.28,0c.28-.1.66-.29.56-.57a.76.76,0,0,0-.39-.43h0a.51.51,0,0,1,.57.43A.5.5,0,0,1,53.72,79.22Z"/><path class="cls-12" d="M49.29,79.36a.15.15,0,0,1,0-.17c0-.07.63,0,.73,0l.91,0c.67,0,1.35,0,2,0,.23,0,.45-.07.68-.09,0,0,.42,0,.2.16A23.59,23.59,0,0,1,49.29,79.36Z"/><path class="cls-9" d="M54.37,81.64a.78.78,0,0,0-.85-.64,21.61,21.61,0,0,1-3.94,0,.78.78,0,0,0-.86.64h0a.75.75,0,0,0,.7.82,25.13,25.13,0,0,0,4.25,0,.74.74,0,0,0,.7-.82Z"/><path class="cls-10" d="M48.82,81.71a.88.88,0,0,1,.1-.3.62.62,0,0,1,.48-.29c.55,0,.3.28.18.26a.41.41,0,0,0-.49.4c0,.13-.06.23-.18.15A.25.25,0,0,1,48.82,81.71Z"/><path class="cls-11" d="M53.72,82.24l-.28,0c.28-.1.66-.3.56-.57a.78.78,0,0,0-.39-.44h0a.52.52,0,0,1,.57.43A.51.51,0,0,1,53.72,82.24Z"/><path class="cls-12" d="M49.29,82.38a.16.16,0,0,1,0-.18c0-.07.63,0,.73,0l.91,0c.67,0,1.35,0,2,0,.23,0,.45-.08.68-.1,0,0,.42,0,.2.16A22.82,22.82,0,0,1,49.29,82.38Z"/><path class="cls-9" d="M39.83,17.51a.75.75,0,0,1,.62-.85,22.44,22.44,0,0,0,3.77-1.14.78.78,0,0,1,1,.38h0a.75.75,0,0,1-.42,1,23.65,23.65,0,0,1-4.06,1.19.77.77,0,0,1-.92-.59Z"/><path class="cls-10" d="M45.16,16a1,1,0,0,0-.19-.28.61.61,0,0,0-.55-.14c-.54.11-.2.36-.09.3a.42.42,0,0,1,.59.26c0,.12.13.21.22.09A.24.24,0,0,0,45.16,16Z"/><path class="cls-11" d="M40.63,17.9l.28-.06c-.3,0-.73-.1-.71-.39a.77.77,0,0,1,.24-.52h0a.51.51,0,0,0-.43.57A.52.52,0,0,0,40.63,17.9Z"/><path class="cls-12" d="M44.91,16.79a.16.16,0,0,0,0-.18c-.06-.06-.6.2-.7.24l-.86.28c-.64.21-1.29.41-1.94.57-.23.05-.46.05-.68.1,0,0-.41.09-.15.21A22.39,22.39,0,0,0,44.91,16.79Z"/><path class="cls-9" d="M40.72,20.4a.75.75,0,0,1,.63-.84,22.71,22.71,0,0,0,3.79-1.07.8.8,0,0,1,1,.4h0a.74.74,0,0,1-.44,1A25,25,0,0,1,41.62,21a.77.77,0,0,1-.9-.6Z"/><path class="cls-10" d="M46.08,19a.81.81,0,0,0-.19-.27.59.59,0,0,0-.55-.16c-.54.1-.2.36-.09.3a.44.44,0,0,1,.59.27c0,.12.12.21.21.09A.23.23,0,0,0,46.08,19Z"/><path class="cls-11" d="M41.51,20.8l.28-.05c-.3,0-.72-.11-.7-.4a.76.76,0,0,1,.25-.53h0a.5.5,0,0,0-.43.56A.52.52,0,0,0,41.51,20.8Z"/><path class="cls-12" d="M45.81,19.77a.16.16,0,0,0,0-.18c-.06-.06-.6.19-.7.22l-.87.27c-.64.2-1.29.39-1.95.53-.22.05-.46.05-.68.09,0,0-.41.08-.15.21A22.68,22.68,0,0,0,45.81,19.77Z"/><path class="cls-9" d="M41.55,23.3a.76.76,0,0,1,.65-.83,21.8,21.8,0,0,0,3.81-1,.79.79,0,0,1,1,.42h0a.76.76,0,0,1-.46,1,24,24,0,0,1-4.11,1,.76.76,0,0,1-.89-.62Z"/><path class="cls-10" d="M46.93,22a1,1,0,0,0-.18-.28.6.6,0,0,0-.54-.16c-.54.09-.21.35-.1.3a.42.42,0,0,1,.58.28c0,.12.12.21.21.09A.21.21,0,0,0,46.93,22Z"/><path class="cls-11" d="M42.34,23.72l.27,0c-.29,0-.72-.12-.69-.41a.77.77,0,0,1,.26-.52h0a.52.52,0,0,0-.44.56A.52.52,0,0,0,42.34,23.72Z"/><path class="cls-12" d="M46.65,22.77a.16.16,0,0,0,0-.18c0-.07-.6.17-.7.21l-.87.25c-.65.18-1.3.36-2,.49-.23.05-.46,0-.69.08,0,0-.41.07-.15.21A23.55,23.55,0,0,0,46.65,22.77Z"/><path class="cls-9" d="M42.32,26.22A.77.77,0,0,1,43,25.4a22.65,22.65,0,0,0,3.82-.93.8.8,0,0,1,1,.43h0a.74.74,0,0,1-.48,1,23.18,23.18,0,0,1-4.13,1,.76.76,0,0,1-.88-.63Z"/><path class="cls-10" d="M47.73,25a.68.68,0,0,0-.18-.28.58.58,0,0,0-.53-.17c-.55.08-.22.34-.11.29a.43.43,0,0,1,.58.29c0,.13.11.22.21.11A.26.26,0,0,0,47.73,25Z"/><path class="cls-11" d="M43.1,26.65l.28,0c-.3,0-.72-.14-.69-.43a.81.81,0,0,1,.28-.52h0a.5.5,0,1,0,.14,1Z"/><path class="cls-12" d="M47.44,25.77a.16.16,0,0,0,0-.18c0-.06-.61.17-.71.2l-.87.24c-.65.17-1.31.34-2,.46-.23,0-.46,0-.69.06,0,0-.41.07-.16.21A22.46,22.46,0,0,0,47.44,25.77Z"/><path class="cls-9" d="M43,29.15a.76.76,0,0,1,.69-.81,22.92,22.92,0,0,0,3.84-.86.78.78,0,0,1,1,.45h0a.75.75,0,0,1-.49,1,24.36,24.36,0,0,1-4.15.9.77.77,0,0,1-.87-.65Z"/><path class="cls-10" d="M48.47,28a.82.82,0,0,0-.17-.29.59.59,0,0,0-.53-.18c-.55.07-.23.34-.12.29a.44.44,0,0,1,.58.3c0,.13.11.22.2.11A.22.22,0,0,0,48.47,28Z"/><path class="cls-11" d="M43.82,29.59l.27,0c-.29,0-.71-.15-.68-.43a.77.77,0,0,1,.29-.51h0a.52.52,0,0,0-.47.54A.53.53,0,0,0,43.82,29.59Z"/><path class="cls-12" d="M48.17,28.79a.16.16,0,0,0,0-.18c0-.06-.61.16-.71.19l-.88.22c-.65.16-1.31.32-2,.42-.22,0-.46,0-.68.06,0,0-.42.05-.17.2A23.35,23.35,0,0,0,48.17,28.79Z"/><path class="cls-9" d="M43.71,32.09a.77.77,0,0,1,.7-.8,22.11,22.11,0,0,0,3.85-.79.78.78,0,0,1,1,.47h0a.75.75,0,0,1-.51,1,23.55,23.55,0,0,1-4.16.82.75.75,0,0,1-.86-.66Z"/><path class="cls-10" d="M49.16,31.06a.7.7,0,0,0-.17-.28.6.6,0,0,0-.53-.2c-.55.07-.23.34-.12.3a.43.43,0,0,1,.57.31c0,.12.1.21.2.1A.23.23,0,0,0,49.16,31.06Z"/><path class="cls-11" d="M44.47,32.55l.28,0c-.29,0-.71-.16-.67-.45a.78.78,0,0,1,.29-.5h0a.5.5,0,1,0,.1,1Z"/><path class="cls-12" d="M48.84,31.82a.17.17,0,0,0,0-.18c-.05-.06-.62.15-.72.17l-.88.21c-.66.15-1.32.3-2,.39-.22,0-.46,0-.68,0,0,0-.42,0-.17.2A22.79,22.79,0,0,0,48.84,31.82Z"/><path class="cls-9" d="M44.32,35a.77.77,0,0,1,.71-.78,22,22,0,0,0,3.87-.73.79.79,0,0,1,1,.48h0a.75.75,0,0,1-.53,1,24.46,24.46,0,0,1-4.17.75.76.76,0,0,1-.85-.68Z"/><path class="cls-10" d="M49.79,34.11a.81.81,0,0,0-.16-.29.63.63,0,0,0-.53-.2c-.55.05-.24.33-.12.29a.42.42,0,0,1,.56.32c0,.13.1.22.2.11A.24.24,0,0,0,49.79,34.11Z"/><path class="cls-11" d="M45.08,35.51l.27,0c-.29-.06-.7-.18-.66-.47a.8.8,0,0,1,.31-.5h0a.52.52,0,0,0-.49.52A.51.51,0,0,0,45.08,35.51Z"/><path class="cls-12" d="M49.45,34.87a.18.18,0,0,0,0-.19c-.05-.06-.62.14-.72.16l-.89.2c-.66.14-1.32.27-2,.35-.23,0-.46,0-.69,0,0,0-.42,0-.17.2A23.63,23.63,0,0,0,49.45,34.87Z"/><path class="cls-9" d="M44.87,38a.76.76,0,0,1,.74-.76,22.18,22.18,0,0,0,3.88-.67.78.78,0,0,1,.95.51h0a.75.75,0,0,1-.54.94,24.73,24.73,0,0,1-4.19.68.76.76,0,0,1-.84-.7Z"/><path class="cls-10" d="M50.36,37.17a.81.81,0,0,0-.16-.29.58.58,0,0,0-.52-.21c-.55,0-.24.33-.13.28a.44.44,0,0,1,.56.33c0,.13.09.22.2.12A.24.24,0,0,0,50.36,37.17Z"/><path class="cls-11" d="M45.62,38.49l.28,0c-.29-.06-.7-.19-.65-.48a.81.81,0,0,1,.31-.49h0a.5.5,0,1,0,.07,1Z"/><path class="cls-12" d="M50,37.92a.17.17,0,0,0,0-.18c-.05-.07-.62.12-.72.15l-.89.17c-.66.13-1.33.25-2,.32-.23,0-.46,0-.69,0,0,0-.42,0-.17.19A23.06,23.06,0,0,0,50,37.92Z"/><path class="cls-13" d="M45.37,41a.77.77,0,0,1,.75-.76A22.15,22.15,0,0,0,50,39.63a.78.78,0,0,1,1,.52h0a.76.76,0,0,1-.56.94,24.83,24.83,0,0,1-4.21.6.77.77,0,0,1-.82-.71Z"/><path class="cls-10" d="M50.87,40.24a.67.67,0,0,0-.15-.29.59.59,0,0,0-.51-.23c-.55,0-.25.33-.14.29a.43.43,0,0,1,.55.34c0,.13.09.22.2.12A.23.23,0,0,0,50.87,40.24Z"/><path class="cls-11" d="M46.11,41.48l.28,0c-.29-.06-.7-.2-.64-.49a.79.79,0,0,1,.32-.49h0a.52.52,0,0,0-.5.52A.51.51,0,0,0,46.11,41.48Z"/><path class="cls-12" d="M50.51,41a.16.16,0,0,0,0-.18c-.05-.06-.62.12-.72.14l-.89.16c-.67.11-1.34.22-2,.28-.23,0-.46,0-.69,0,0,0-.42,0-.18.19A22.6,22.6,0,0,0,50.51,41Z"/><path class="cls-13" d="M45.82,44a.76.76,0,0,1,.76-.74,22.29,22.29,0,0,0,3.9-.52.78.78,0,0,1,.94.54h0a.75.75,0,0,1-.58.92,24,24,0,0,1-4.22.52.74.74,0,0,1-.8-.72Z"/><path class="cls-10" d="M51.33,43.33a.83.83,0,0,0-.14-.3.62.62,0,0,0-.52-.23c-.55,0-.25.32-.14.28a.42.42,0,0,1,.54.35c0,.13.09.23.2.13A.24.24,0,0,0,51.33,43.33Z"/><path class="cls-11" d="M46.54,44.47h.28c-.29-.07-.69-.22-.63-.5a.79.79,0,0,1,.33-.48h0A.52.52,0,0,0,46,44,.51.51,0,0,0,46.54,44.47Z"/><path class="cls-12" d="M51,44.07s.08-.1,0-.18-.63.1-.73.11l-.9.15c-.66.1-1.33.2-2,.24-.23,0-.46,0-.69,0,0,0-.42,0-.18.19A22.7,22.7,0,0,0,51,44.07Z"/><path class="cls-13" d="M46.19,46.94a.78.78,0,0,1,.78-.72,21.48,21.48,0,0,0,3.91-.44.79.79,0,0,1,.93.56h0a.77.77,0,0,1-.6.93,25.06,25.06,0,0,1-4.23.42.76.76,0,0,1-.79-.75Z"/><path class="cls-10" d="M51.72,46.43a.7.7,0,0,0-.14-.3.56.56,0,0,0-.51-.24c-.55,0-.26.31-.14.28a.42.42,0,0,1,.53.37c0,.13.08.22.19.12A.24.24,0,0,0,51.72,46.43Z"/><path class="cls-11" d="M46.91,47.47h.28c-.29-.08-.69-.23-.62-.52a.77.77,0,0,1,.34-.47h0a.53.53,0,0,0-.53.49A.51.51,0,0,0,46.91,47.47Z"/><path class="cls-12" d="M51.33,47.17a.16.16,0,0,0,0-.18c0-.07-.62.09-.72.1l-.91.12c-.66.09-1.34.17-2,.2-.23,0-.46,0-.69,0,0,0-.42,0-.19.18A23,23,0,0,0,51.33,47.17Z"/><path class="cls-13" d="M46.49,49.93a.77.77,0,0,1,.8-.7,21.46,21.46,0,0,0,3.92-.33.78.78,0,0,1,.91.61h0a.82.82,0,0,1-.11.61c-.06.19-.14-.07-.22.5a1,1,0,0,1-.3.09,25.13,25.13,0,0,1-4.25,0,.77.77,0,0,1-.75-.78Z"/><path class="cls-10" d="M52,49.6a.93.93,0,0,0-.13-.32.6.6,0,0,0-.5-.27c-.55,0-.27.32-.16.29a.42.42,0,0,1,.53.39c0,.14.07.25.19.14A.24.24,0,0,0,52,49.6Z"/><path class="cls-11" d="M47.18,50.49h.28c-.28-.09-.68-.25-.6-.53a.81.81,0,0,1,.36-.47h0a.53.53,0,0,0-.54.48A.51.51,0,0,0,47.18,50.49Z"/><path class="cls-12" d="M51.62,50.63c0-.12,0,.23,0-.31a.26.26,0,0,0,0-.15c0-.08-.63.07-.73.08l-.91.09c-.67.06-1.35.11-2,.12-.23,0-.46-.05-.69-.06,0,0-.42,0-.19.18A23.59,23.59,0,0,0,51.62,50.63Z"/><path class="cls-13" d="M46.54,52.91a.78.78,0,0,1,.85-.64,21.61,21.61,0,0,0,3.94,0,.78.78,0,0,1,.86.64h0a.75.75,0,0,1-.7.82,25.13,25.13,0,0,1-4.25,0,.74.74,0,0,1-.7-.82Z"/><path class="cls-10" d="M52.09,53a.94.94,0,0,0-.1-.31.62.62,0,0,0-.48-.29c-.55,0-.3.28-.18.26a.41.41,0,0,1,.49.41c0,.12.06.22.18.14A.24.24,0,0,0,52.09,53Z"/><path class="cls-11" d="M47.19,53.51l.28,0c-.28-.1-.66-.3-.56-.57a.78.78,0,0,1,.39-.44h0a.52.52,0,0,0-.57.43A.5.5,0,0,0,47.19,53.51Z"/><path class="cls-12" d="M51.62,53.65a.15.15,0,0,0,0-.17c0-.08-.63,0-.73,0l-.91,0c-.67,0-1.35,0-2,0-.23,0-.45-.07-.68-.09,0,0-.42,0-.2.16A23.59,23.59,0,0,0,51.62,53.65Z"/><path class="cls-9" d="M46.54,55.93a.78.78,0,0,1,.85-.64,21.61,21.61,0,0,0,3.94,0,.78.78,0,0,1,.86.64h0a.75.75,0,0,1-.7.82,25.13,25.13,0,0,1-4.25,0,.74.74,0,0,1-.7-.82Z"/><path class="cls-11" d="M47.19,56.53l.28,0c-.28-.1-.66-.29-.56-.57a.76.76,0,0,1,.39-.43h0a.51.51,0,0,0-.57.43A.5.5,0,0,0,47.19,56.53Z"/><path class="cls-12" d="M51.62,56.67a.15.15,0,0,0,0-.17c0-.07-.63,0-.73,0l-.91,0c-.67,0-1.35,0-2,0-.23,0-.45-.07-.68-.09,0,0-.42,0-.2.16A23.59,23.59,0,0,0,51.62,56.67Z"/><path class="cls-9" d="M46.54,59a.77.77,0,0,1,.85-.63,23.56,23.56,0,0,0,3.94,0,.77.77,0,0,1,.86.63h0a.75.75,0,0,1-.7.82,23.21,23.21,0,0,1-4.25,0,.74.74,0,0,1-.7-.82Z"/><path class="cls-10" d="M52.09,59a.94.94,0,0,0-.1-.31.58.58,0,0,0-.48-.28c-.55,0-.3.28-.18.25a.43.43,0,0,1,.49.41c0,.13.06.23.18.14A.24.24,0,0,0,52.09,59Z"/><path class="cls-11" d="M47.19,59.56l.28,0c-.28-.11-.66-.3-.56-.58a.79.79,0,0,1,.39-.43h0a.5.5,0,1,0-.1,1Z"/><path class="cls-12" d="M51.62,59.69a.15.15,0,0,0,0-.17c0-.07-.63,0-.73,0l-.91,0c-.67,0-1.35,0-2,0-.23,0-.45-.07-.68-.09,0,0-.42,0-.2.16A22.81,22.81,0,0,0,51.62,59.69Z"/><path class="cls-9" d="M46.54,62a.77.77,0,0,1,.85-.63,23.56,23.56,0,0,0,3.94,0,.77.77,0,0,1,.86.63h0a.75.75,0,0,1-.7.83,25.13,25.13,0,0,1-4.25,0,.75.75,0,0,1-.7-.83Z"/><path class="cls-10" d="M52.09,62.05a.81.81,0,0,0-.1-.3.59.59,0,0,0-.48-.29c-.55-.05-.3.28-.18.26a.41.41,0,0,1,.49.4c0,.13.06.23.18.14A.23.23,0,0,0,52.09,62.05Z"/><path class="cls-11" d="M47.19,62.58l.28,0c-.28-.1-.66-.3-.56-.57a.78.78,0,0,1,.39-.44h0a.5.5,0,1,0-.1,1Z"/><path class="cls-12" d="M51.62,62.72a.16.16,0,0,0,0-.18c0-.07-.63,0-.73,0l-.91,0c-.67,0-1.35,0-2,0-.23,0-.45-.08-.68-.1,0,0-.42,0-.2.16A22.82,22.82,0,0,0,51.62,62.72Z"/><path class="cls-9" d="M46.54,65a.78.78,0,0,1,.85-.64,23.56,23.56,0,0,0,3.94,0,.78.78,0,0,1,.86.64h0a.75.75,0,0,1-.7.82,25.13,25.13,0,0,1-4.25,0,.74.74,0,0,1-.7-.82Z"/><path class="cls-10" d="M52.09,65.07a.88.88,0,0,0-.1-.3.62.62,0,0,0-.48-.29c-.55,0-.3.28-.18.26a.41.41,0,0,1,.49.4c0,.13.06.23.18.15A.25.25,0,0,0,52.09,65.07Z"/><path class="cls-11" d="M47.19,65.6l.28,0c-.28-.1-.66-.3-.56-.57a.78.78,0,0,1,.39-.44h0a.5.5,0,1,0-.1,1Z"/><path class="cls-12" d="M51.62,65.74a.15.15,0,0,0,0-.17c0-.08-.63,0-.73,0l-.91,0c-.67,0-1.35,0-2,0-.23,0-.45-.08-.68-.09,0,0-.42,0-.2.16A23.59,23.59,0,0,0,51.62,65.74Z"/><path class="cls-9" d="M46.54,68a.78.78,0,0,1,.85-.64,21.61,21.61,0,0,0,3.94,0,.78.78,0,0,1,.86.64h0a.75.75,0,0,1-.7.82,25.13,25.13,0,0,1-4.25,0,.74.74,0,0,1-.7-.82Z"/><path class="cls-10" d="M52.09,68.1a.94.94,0,0,0-.1-.31.62.62,0,0,0-.48-.29c-.55,0-.3.28-.18.26a.42.42,0,0,1,.49.41c0,.12.06.22.18.14A.24.24,0,0,0,52.09,68.1Z"/><path class="cls-11" d="M47.19,68.62l.28,0c-.28-.1-.66-.29-.56-.57a.76.76,0,0,1,.39-.43h0a.52.52,0,0,0-.57.44A.5.5,0,0,0,47.19,68.62Z"/><path class="cls-12" d="M51.62,68.76a.15.15,0,0,0,0-.17c0-.07-.63,0-.73,0l-.91,0c-.67,0-1.35,0-2,0-.23,0-.45-.07-.68-.09,0,0-.42,0-.2.16A23.59,23.59,0,0,0,51.62,68.76Z"/><path class="cls-9" d="M46.54,71a.77.77,0,0,1,.85-.63,23.56,23.56,0,0,0,3.94,0,.77.77,0,0,1,.86.63h0a.75.75,0,0,1-.7.82,23.21,23.21,0,0,1-4.25,0,.74.74,0,0,1-.7-.82Z"/><path class="cls-10" d="M52.09,71.12a.94.94,0,0,0-.1-.31.58.58,0,0,0-.48-.28c-.55,0-.3.28-.18.25a.43.43,0,0,1,.49.41c0,.13.06.23.18.14A.24.24,0,0,0,52.09,71.12Z"/><path class="cls-11" d="M47.19,71.64l.28,0c-.28-.11-.66-.3-.56-.58a.76.76,0,0,1,.39-.43h0a.51.51,0,0,0-.57.43A.5.5,0,0,0,47.19,71.64Z"/><path class="cls-12" d="M51.62,71.78a.15.15,0,0,0,0-.17c0-.07-.63,0-.73,0l-.91,0c-.67,0-1.35,0-2,0-.23,0-.45-.07-.68-.09,0,0-.42,0-.2.16A22.81,22.81,0,0,0,51.62,71.78Z"/><path class="cls-9" d="M46.54,74.06a.77.77,0,0,1,.85-.63,23.56,23.56,0,0,0,3.94,0,.77.77,0,0,1,.86.63h0a.76.76,0,0,1-.7.83,25.13,25.13,0,0,1-4.25,0,.75.75,0,0,1-.7-.83Z"/><path class="cls-10" d="M52.09,74.14a.81.81,0,0,0-.1-.3.59.59,0,0,0-.48-.29c-.55,0-.3.28-.18.25a.43.43,0,0,1,.49.41c0,.13.06.23.18.14A.24.24,0,0,0,52.09,74.14Z"/><path class="cls-11" d="M47.19,74.67l.28,0c-.28-.1-.66-.3-.56-.57a.78.78,0,0,1,.39-.44h0a.5.5,0,1,0-.1,1Z"/><path class="cls-12" d="M51.62,74.81a.16.16,0,0,0,0-.18c0-.07-.63,0-.73,0l-.91,0c-.67,0-1.35,0-2,0-.23,0-.45-.08-.68-.1,0,0-.42,0-.2.16A22.82,22.82,0,0,0,51.62,74.81Z"/><path class="cls-9" d="M46.54,77.09a.78.78,0,0,1,.85-.64,23.56,23.56,0,0,0,3.94,0,.78.78,0,0,1,.86.64h0a.75.75,0,0,1-.7.82,25.13,25.13,0,0,1-4.25,0,.74.74,0,0,1-.7-.82Z"/><path class="cls-10" d="M52.09,77.16a.88.88,0,0,0-.1-.3.62.62,0,0,0-.48-.29c-.55,0-.3.28-.18.26a.41.41,0,0,1,.49.4c0,.13.06.23.18.15A.25.25,0,0,0,52.09,77.16Z"/><path class="cls-11" d="M47.19,77.69l.28,0c-.28-.1-.66-.3-.56-.57a.78.78,0,0,1,.39-.44h0a.5.5,0,1,0-.1,1Z"/><path class="cls-12" d="M51.62,77.83a.15.15,0,0,0,0-.17c0-.08-.63,0-.73,0l-.91,0c-.67,0-1.35,0-2,0-.23,0-.45-.08-.68-.09,0,0-.42,0-.2.16A23.59,23.59,0,0,0,51.62,77.83Z"/><path class="cls-9" d="M46.54,80.11a.78.78,0,0,1,.85-.64,21.61,21.61,0,0,0,3.94,0,.78.78,0,0,1,.86.64h0a.75.75,0,0,1-.7.82,25.13,25.13,0,0,1-4.25,0,.74.74,0,0,1-.7-.82Z"/><path class="cls-10" d="M52.09,80.19a.94.94,0,0,0-.1-.31.62.62,0,0,0-.48-.29c-.55,0-.3.28-.18.26a.42.42,0,0,1,.49.41c0,.12.06.22.18.14A.24.24,0,0,0,52.09,80.19Z"/><path class="cls-11" d="M47.19,80.71l.28,0c-.28-.1-.66-.3-.56-.57a.76.76,0,0,1,.39-.43h0a.52.52,0,0,0-.57.44A.5.5,0,0,0,47.19,80.71Z"/><path class="cls-12" d="M51.62,80.85a.15.15,0,0,0,0-.17c0-.08-.63,0-.73,0l-.91,0c-.67,0-1.35,0-2,0-.23,0-.45-.07-.68-.09,0,0-.42,0-.2.16A23.59,23.59,0,0,0,51.62,80.85Z"/><path class="cls-9" d="M53.83,84.66a.63.63,0,0,1-.64.61H47.61a.63.63,0,0,1-.64-.61v-.72a.63.63,0,0,1,.64-.62h5.58a.63.63,0,0,1,.64.62Z"/><path class="cls-14" d="M53.07,83.41h-5a.56.56,0,0,0-.31.09c1.43,0,5.26,0,5.46.26a1.07,1.07,0,0,1-.52,1.4h.37a.57.57,0,0,0,.57-.55V84A.57.57,0,0,0,53.07,83.41Z"/><path class="cls-10" d="M47.48,84.81a1,1,0,0,1-.35-.58,1.17,1.17,0,0,1,0-.67c0,.09-.1.12-.1.22v.78a.68.68,0,0,0,.69.67H52c-.86,0-1.72,0-2.58-.1-.45,0-.9-.07-1.35-.11A1,1,0,0,1,47.48,84.81Z"/><path class="cls-15" d="M46.6,39.87a10.1,10.1,0,0,0-3.24,8.19c.11,1.31,2.3,6.37,2.3,6.37l4.81.2h0l4.8-.2s2.2-5.06,2.3-6.37a10,10,0,0,0-3.24-8.19C51,36.73,50,36.73,46.6,39.87Z"/><path class="cls-16" d="M46.89,40.32a9.38,9.38,0,0,0-3,7.59c.1,1.22,2.13,5.9,2.13,5.9l4.46.19h0l4.45-.19s2-4.68,2.13-5.9a9.33,9.33,0,0,0-3-7.59C50.92,37.42,50,37.42,46.89,40.32Z"/><path class="cls-16" d="M50.91,50.2a3.33,3.33,0,0,1,3,1.83,3,3,0,0,1,.26.73L62.71,68.1A3.45,3.45,0,0,1,63,70.91a4,4,0,0,1-2.11,2.33,4.2,4.2,0,0,1-1.81.41,3.8,3.8,0,0,1-3.5-2.18L48.32,55.52a3.41,3.41,0,0,1-.43-.64,3.21,3.21,0,0,1,1.55-4.35,3.4,3.4,0,0,1,1.47-.33Zm0,6a2.9,2.9,0,0,0,1.26-.28,2.78,2.78,0,0,0,1.45-1.58,2.7,2.7,0,0,0-.14-2.12A2.91,2.91,0,0,0,49.66,51a2.76,2.76,0,0,0-1.45,1.59,2.67,2.67,0,0,0,.13,2.11,2.85,2.85,0,0,0,2.57,1.55ZM59,72.86a3.52,3.52,0,0,0,1.53-.34,3.44,3.44,0,0,0,1.78-2A3.25,3.25,0,0,0,62.13,68a3.58,3.58,0,0,0-4.68-1.56A3.35,3.35,0,0,0,55.84,71,3.5,3.5,0,0,0,59,72.86Z"/><path class="cls-17" d="M59.07,73.63a3.75,3.75,0,0,1-3.48-2.17L48.34,55.52a3.66,3.66,0,0,1-.43-.65,3.18,3.18,0,0,1,1.54-4.32,3.45,3.45,0,0,1,1.46-.33,3.36,3.36,0,0,1,3,1.82,3.24,3.24,0,0,1,.25.72l8.52,15.35a3.67,3.67,0,0,1-1.82,5.11,4.18,4.18,0,0,1-1.8.41M59,66.06a3.66,3.66,0,0,0-1.54.34A3.36,3.36,0,0,0,55.82,71,3.53,3.53,0,0,0,59,72.88a3.66,3.66,0,0,0,1.54-.34A3.36,3.36,0,0,0,62.15,68,3.53,3.53,0,0,0,59,66.06M50.91,50.67a3,3,0,0,0-1.26.28,2.76,2.76,0,0,0-1.33,3.73,2.89,2.89,0,0,0,2.59,1.56A3,3,0,0,0,52.18,56a2.74,2.74,0,0,0,1.32-3.73,2.88,2.88,0,0,0-2.59-1.56m8.16,23a4.15,4.15,0,0,0,1.82-.42A4,4,0,0,0,63,70.92a3.5,3.5,0,0,0-.28-2.83L54.21,52.75A3,3,0,0,0,54,52a3.38,3.38,0,0,0-3-1.84,3.44,3.44,0,0,0-1.48.33,3.34,3.34,0,0,0-1.72,1.88,3.2,3.2,0,0,0,.16,2.5,3,3,0,0,0,.44.65l7.25,15.93a3.77,3.77,0,0,0,3.51,2.2ZM59,66.1A3.47,3.47,0,0,1,62.12,68a3.31,3.31,0,0,1,.16,2.58,3.36,3.36,0,0,1-1.77,1.93A3.56,3.56,0,0,1,55.85,71a3.33,3.33,0,0,1,1.61-4.51A3.48,3.48,0,0,1,59,66.1ZM50.91,50.71a2.82,2.82,0,0,1,2.55,1.54,2.72,2.72,0,0,1-1.3,3.68,3,3,0,0,1-1.25.27,2.83,2.83,0,0,1-2.55-1.54,2.65,2.65,0,0,1-.13-2.1A2.77,2.77,0,0,1,49.67,51a2.81,2.81,0,0,1,1.24-.28Z"/><path class="cls-10" d="M55.81,71.35,48.56,55.41a3.25,3.25,0,0,1-.43-.64,3.14,3.14,0,0,1,.43-3.47c0,.27,0,.55,0,.82a2.71,2.71,0,0,0,0,2.45,2.83,2.83,0,0,0,.79,1,119.54,119.54,0,0,0,6.38,14.24,3.11,3.11,0,0,0,.33,1.1,3.4,3.4,0,0,0,1.17,1.32c.28.4.57.79.86,1.15A3.61,3.61,0,0,1,55.81,71.35Z"/><path class="cls-10" d="M62.7,68.1,54.18,52.76a3.27,3.27,0,0,0-3.35-2.54c.23.16.46.33.68.51a2.88,2.88,0,0,1,2,1.5,2.77,2.77,0,0,1,.29,1.18A122.4,122.4,0,0,1,61.47,67a3.41,3.41,0,0,1,.69.93,3.22,3.22,0,0,1,.35,1.7c.16.47.3.92.41,1.37A3.43,3.43,0,0,0,62.7,68.1Z"/><path class="cls-18" d="M62.23,67.94a3.66,3.66,0,0,0-4.83-1.61h0A3.45,3.45,0,0,0,55.74,71h0a3.66,3.66,0,0,0,4.83,1.61h0l-.08-.15-.07-.14A3.34,3.34,0,0,1,56,70.86h0a3.13,3.13,0,0,1,1.51-4.24h0a3.34,3.34,0,0,1,4.38,1.46h0a3.14,3.14,0,0,1-1.51,4.24h0l.07.14.08.15a3.45,3.45,0,0,0,1.66-4.67Z"/><path class="cls-18" d="M53.5,52.22a2.93,2.93,0,0,0-3.85-1.28h0a2.75,2.75,0,0,0-1.33,3.73h0A2.92,2.92,0,0,0,52.17,56h0l-.06-.12-.06-.11a2.65,2.65,0,0,1-3.49-1.17h0a2.49,2.49,0,0,1,1.2-3.37h0a2.65,2.65,0,0,1,3.49,1.16h0a2.49,2.49,0,0,1-1.2,3.38h0l.06.11.06.12a2.75,2.75,0,0,0,1.33-3.73Z"/><polygon class="cls-18" points="50.84 39.08 51.58 40.4 51.58 51.93 50.84 53.25 50.06 53.25 49.33 51.93 49.33 40.4 50.06 39.08 50.84 39.08"/><path class="cls-15" d="M50.64,52.94h-.35A8.1,8.1,0,0,0,51,50.67c0-.68-.19-7.53-.41-10.79h0l.68,1.22V51.72Z"/><path class="cls-15" d="M50.19,52.16h.35a8,8,0,0,1-.74-2.28c0-.67.19-7.53.41-10.78h0l-.68,1.22V50.94Z"/></g></svg>