<svg id="Layer_1" data-name="Layer 1" xmlns="http://www.w3.org/2000/svg" viewBox="0 0 100 100"><defs><style>.cls-1{opacity:0.5;}.cls-2{fill:#fff200;stroke:#494949;stroke-miterlimit:10;}.cls-3{fill:#a6c914;}.cls-4{fill:#fff;}</style></defs><ellipse class="cls-1" cx="50.45" cy="52.34" rx="42.3" ry="41.41"/><ellipse class="cls-2" cx="49.55" cy="48.66" rx="42.3" ry="41.41"/><ellipse class="cls-3" cx="49.55" cy="48.66" rx="36.57" ry="35.81"/><path class="cls-4" d="M66,26.06l0,0a28.05,28.05,0,0,0-6.38-4.13,30.76,30.76,0,0,0-5.16-1.85l-.61-.16c1.67,2.73,3.6,6.22,4.06,8.39.08.33.14.65.19,1C61.16,41.81,52,61,33.9,63.42a26.74,26.74,0,0,1-2.86.23A32.71,32.71,0,0,1,23,62.53a28.7,28.7,0,0,0,9.3,8.85,29.23,29.23,0,0,0,27.38,1.23l.3-.14,1-.5.31-.17h0c.41-.23.81-.46,1.2-.7l.26-.16.21-.14.28-.18c.29-.19.57-.38.84-.58l.08-.05.26-.19.25-.19q.62-.45,1.17-.93a2.12,2.12,0,0,0,.24-.2c5.51-4.61,9.06-11.81,9.62-17.58v-.09A27.81,27.81,0,0,0,66,26.06Z"/></svg>