<svg id="Layer_1" data-name="Layer 1" xmlns="http://www.w3.org/2000/svg" viewBox="0 0 100 100"><defs><style>.cls-1{opacity:0.5;}.cls-2{fill:#fff200;stroke:#494949;stroke-miterlimit:10;}.cls-3{fill:#a6c914;}.cls-4{fill:#cc501f;}.cls-5{fill:#d88030;}.cls-6{fill:#a53c0d;}.cls-7{fill:#f79e54;}</style></defs><ellipse class="cls-1" cx="50.45" cy="52.34" rx="42.3" ry="41.41"/><ellipse class="cls-2" cx="49.55" cy="48.66" rx="42.3" ry="41.41"/><ellipse class="cls-3" cx="49.55" cy="48.66" rx="36.57" ry="35.81"/><path class="cls-4" d="M28.49,61.39l3.77-1.59c-1.15.19-2.19,2.45-2.19,2.45l1.76.47,2.92-1c0,1.18-1.54,2.25-1.54,2.25a7.53,7.53,0,0,0,4.34-2l-.95,3.37,3.54-1.42-1,1.66,1.39.25L42.89,63l.5,2.4a7.31,7.31,0,0,1,3.09-1.81l-.1,2.3,2.35-2.84a5.18,5.18,0,0,0,.74,3.42h1.45l1.3-2.73a1.83,1.83,0,0,1,.2,2.44c1.49,0,2.84-2.25,2.84-2.25l1,2c0-1.46,2.25-3,2.25-3l.84,2.11.9-3.42,1,2.54H62l1.39-2.45c1,.2.85,2.45.85,2.45,1.3-.59,1.2-3.08,1.2-3.08L68,61.9c-.6-.68.19-2.39.19-2.39,1,.29,1.5,2.83,1.5,2.83L71,58.87l1.3,1.66,0-5.47,2.47,2-.14-3.17,1,1.31-1-4.25,1,.38-1.1-3c.72-.05,2.76,2.61,2.76,2.61l-2.1-6.58c-.43-1.44-3-2.94-3-2.94,1.15-.18,3,1,3,1-1.43-2.33-5.71-3.21-5.71-3.21l1.81-.1L68.1,37.76l2.19-.32c-2-1.08-5.43-.8-5.43-.8l.85-.93-4.66,1.12,1-1.12-1.38-.14c-1.95,1.4-6.84.89-6.84.89l1.9-1.62-7,1.62c-.19-.69,1.52-2.24,1.52-2.24a14.65,14.65,0,0,0-6.47,2.49l.25-2-2.48,1.74-2.79-1.74.89,1.74a42.84,42.84,0,0,0-4.57,0l.25.71a17.17,17.17,0,0,0-5.9.81l1.46.15s-4.19,1.4-4.7,3H27l-3.37,4.38,2.73-1.31-.95,2,.83-.28a15,15,0,0,1-3.5,4l2.5-1s-1.86,2.4-2.5,3.42l1.15.08.85-.74L23,55.52l2-1.66a8,8,0,0,1-.77,3.25,3,3,0,0,0,1.62-1,16.88,16.88,0,0,0-.8,4.84s.75-2.74,1.78-2.74L26,61.39,27.1,61l1.22-1.56Z"/><path class="cls-5" d="M75.51,44.17a18.8,18.8,0,0,0-3-2.63,13.46,13.46,0,0,1,2.69.88c-1.43-2.33-5.71-3.21-5.71-3.21l1.81-.1L68.1,37.76l2.19-.32c-2-1.08-5.43-.8-5.43-.8l.85-.93-4.66,1.12,1-1.12-1.38-.14c-1.95,1.4-6.84.89-6.84.89l1.9-1.62-7,1.62c-.19-.69,1.52-2.24,1.52-2.24a14.65,14.65,0,0,0-6.47,2.49l.25-2-2.48,1.74-2.79-1.74.89,1.74a42.84,42.84,0,0,0-4.57,0l.25.71a17.17,17.17,0,0,0-5.9.81l1.46.15s-4.19,1.4-4.7,3H27l-3.37,4.38,2.73-1.31-.95,2,.83-.28a15,15,0,0,1-3.5,4l2.5-1,0,.05a7.18,7.18,0,0,1,2.05-1.15l-1.65,3.52,1.39.37.82-1.18-.6,2.94s1.95-1.58,2.13-1.62L29.64,53a4.22,4.22,0,0,0-.94,2.42l.94.46s1.35-3,4-3.06c0,0-.34,3.33,0,4.07h.6l1.45-2.2.42,3h1.23l3.33-2-1.23,4.07S41,57.48,42.1,57.4c0,0,2,2.64,2,3.7h1.09L47,58.5a8.48,8.48,0,0,1,.56,3.12l1,.22s1.83-2.6,2-4.14A14.25,14.25,0,0,1,51.76,61l1,0,.19-1.87.82,1.24,1.09,0V57.55a11.18,11.18,0,0,1,1.94,3.15l1-.15a26.07,26.07,0,0,0-.63-4,14.53,14.53,0,0,1,3.4,3.23l-.3-2.57L61.94,57l.63,2.16h.64s.22-1.87.3-2.34,1.68,0,1.91,1.13c0,0,.22-2.89,1-3.15s2,.81,2,.81l-.23-2.86L70.43,54l-.6-2s3.26-1.65,3.37-1.65-.79-.84-.79-.84l-2.35,0,4.08-.62-2.51-1.17a5.5,5.5,0,0,1,3.33.51l-1.72-2.2,2.39.48L74,45l2.71.78Z"/><path class="cls-6" d="M33.23,43.58s.9,1.12,1.7,1.1l-.52,1s1.19,1,1.69.49.63-1.14.63-.61.59,2.2,1,1.91a1.41,1.41,0,0,1,.8-.32,7.6,7.6,0,0,1,.75.83c.3.32,2.35.2,2.35.2s-.45.17,0,.56,2.07.41,2,0-.1.17.79.63,1.1,1.37,1.4.52,1.9-.71,1.9-.71-1.42.07-.8.41,2.49,1,2.69.49-.2-1.2.13-.73.32.81,1.74.81,1.88-.66,2.8-1c0,0-.58.78-.28.88s1.28-.54,1.28-.54-.8.32.12.51,1.8-1.17,1.77-1.24.28,1.12,1.35.95a3,3,0,0,0,1.72-1s-.22.51.58.46a5.16,5.16,0,0,0,2-1s.74.56,1.32.32.77-1.22.82-1.32-.07-.1.23.1.62.49.69.24,0-1.27.1-.92.85.78.93.7,1.52-.73,1.84-1,1.08-.58,1.4-.8a2.68,2.68,0,0,0,.6-.61,7.83,7.83,0,0,0-2.35-.66c-.87,0-1.44.66-.72-.54s.4-.66.05-.51-.72,1.17-.62-.1.1-1.17-.2-1-.43.29-.5-.63-.2-.62-.65-.18.3,1-1.37.49-1.3-.27-2-.51a1.79,1.79,0,0,1-1.08-1c0-.15-1.09,1.78-1.39.27s-.25-2.15-.4-1.76,0,.63-.55.93-.7-1.08-1-.32-.12,1.42-.42.46-.5-1.8-.73-1-1.14-.22-1.64.39-.85-.71-.85-.71.17-.37-.43,0-.37.12-.84,0-.25-.56-1.11,0-1.59.1-1.66-.29.44-1.05-.35,0S46.23,41,46.36,39.69s0-1.36-.25-.68-.75,1.2-1.1.42-.35-.18-1,.29-.17-.37-1.27.37-1.25,1.51-1.32.73,0-1.39-.63-.71-.82-.17-1.07-.54,0,.1-.7.71S37.5,42,37.27,41s.58-1.15-.42-.3-1.45-2.32-1.6-.8a5,5,0,0,1-.77,2.34s-.27-2.15-.45-1S33,42.41,33.23,43.58Z"/><path class="cls-7" d="M45.49,58.61c-.08,0-.2-.4-.19-1.08A6.55,6.55,0,0,1,45.89,55a8.79,8.79,0,0,1,1.39-2.22c.44-.5.76-.76.83-.71s-.14.41-.48,1a16.43,16.43,0,0,0-1.18,2.2,10.66,10.66,0,0,0-.72,2.36C45.61,58.2,45.58,58.6,45.49,58.61Z"/><path class="cls-7" d="M44.32,54.13c-.08,0-.08-.23,0-.52a4.45,4.45,0,0,1,.42-1.08,4.15,4.15,0,0,1,.35-.56,3.71,3.71,0,0,1,.37-.4c.23-.21.42-.29.48-.23s0,.23-.14.49l-.23.44-.29.53a11,11,0,0,1-.56,1C44.53,54,44.39,54.16,44.32,54.13Z"/><path class="cls-7" d="M37,57.25c-.07,0,.1-.59.51-1.45.2-.43.46-.93.78-1.48a17.18,17.18,0,0,1,1.12-1.72c.22-.29.45-.57.69-.83a9.69,9.69,0,0,1,.71-.72,7.64,7.64,0,0,1,1.41-1,8.44,8.44,0,0,1,1-.48c.25-.09.4-.12.42-.09s-.09.14-.31.3l-.92.63a10.39,10.39,0,0,0-1.25,1c-.21.22-.43.45-.65.7s-.43.52-.64.8c-.43.57-.8,1.14-1.14,1.66s-.63,1-.88,1.39C37.41,56.79,37.1,57.29,37,57.25Z"/><path class="cls-7" d="M42.3,52.21c-.08,0-.13-.18-.11-.46a3.12,3.12,0,0,1,.26-1,3.26,3.26,0,0,1,.57-.89c.19-.2.35-.28.42-.24s0,.22,0,.46-.23.56-.38.91-.29.66-.4.89S42.38,52.23,42.3,52.21Z"/><path class="cls-7" d="M48.21,59.51c-.07,0,.11-.5.46-1.22s.86-1.69,1.38-2.78c.26-.54.5-1.07.7-1.55.1-.24.2-.46.28-.68s.09-.21.12-.31l.11-.29c.28-.74.44-1.21.52-1.19s.06.13,0,.36c0,.06,0,.12,0,.19l0,.22c0,.16-.06.34-.1.54l-.08.31c0,.1-.06.21-.09.33s-.15.47-.23.72c-.18.5-.41,1.05-.67,1.6a23.91,23.91,0,0,1-1.56,2.73C48.6,59.16,48.28,59.55,48.21,59.51Z"/><path class="cls-7" d="M55.62,55.65c-.17.05-.55-.73-1-1.68s-.87-1.72-.73-1.81.26.09.5.36a6,6,0,0,1,.78,1.19A5.73,5.73,0,0,1,55.63,55C55.7,55.39,55.7,55.62,55.62,55.65Z"/><path class="cls-7" d="M62.89,57.1c-.09,0-.2-.38-.5-.94-.14-.28-.33-.62-.55-1s-.45-.78-.72-1.19a12,12,0,0,0-1.53-2c-.44-.47-.76-.73-.71-.8s.45.07,1,.48a7.56,7.56,0,0,1,1.76,2,10.8,10.8,0,0,1,.7,1.26A8.27,8.27,0,0,1,62.8,56a2.87,2.87,0,0,1,.15.79C63,57,62.93,57.09,62.89,57.1Z"/><path class="cls-7" d="M65.24,54.92c-.18,0-.24-1.09-.66-2.32a4.72,4.72,0,0,0-.16-.45c0-.14-.11-.28-.16-.41a3.63,3.63,0,0,0-.35-.63c-.22-.34-.44-.51-.4-.59s0,0,.08,0l.16,0a1.49,1.49,0,0,1,.49.31,3.11,3.11,0,0,1,.52.67,4.32,4.32,0,0,1,.22.43,3.41,3.41,0,0,1,.18.48,5,5,0,0,1,.27,1.77C65.41,54.64,65.32,54.92,65.24,54.92Z"/><path class="cls-7" d="M65.48,51.6c-.06.06-.2,0-.38-.06s-.4-.22-.64-.36l-.6-.35c-.16-.09-.28-.16-.27-.25s.13-.15.36-.16a1.86,1.86,0,0,1,1.43.81C65.5,51.4,65.54,51.54,65.48,51.6Z"/><path class="cls-7" d="M73,49c0,.09-.42,0-1,0-.3,0-.67,0-1.07,0s-.85.05-1.32.1l-1.33.15c-.41.05-.78.09-1.08.14-.61.09-1,.2-1,.12s0-.11.2-.21a3.24,3.24,0,0,1,.71-.32,9.13,9.13,0,0,1,1.09-.27c.41-.08.87-.16,1.36-.21a9.33,9.33,0,0,1,1.38,0,7,7,0,0,1,1.14.14l.42.12.31.13C73,48.91,73.05,49,73,49Z"/><path class="cls-7" d="M69.41,47.51c.06.16-.64.53-1.49,1s-1.55.82-1.65.68.06-.24.3-.47A5.21,5.21,0,0,1,67.63,48a5.79,5.79,0,0,1,1.21-.47C69.16,47.43,69.38,47.43,69.41,47.51Z"/><path class="cls-7" d="M33.57,51.17c0-.06.09-.28.4-.56a5.31,5.31,0,0,1,.59-.45,5.7,5.7,0,0,1,.78-.44,6.15,6.15,0,0,1,.85-.33,4.9,4.9,0,0,1,.72-.17c.42-.06.68,0,.7,0s-.21.2-.58.36l-.64.28-.78.36-.76.37-.63.32C33.86,51.13,33.62,51.23,33.57,51.17Z"/><path class="cls-7" d="M34.85,54.62c-.08,0-.12-.34-.1-.88a7.56,7.56,0,0,1,.12-.94,5.4,5.4,0,0,1,.32-1.13,4.48,4.48,0,0,1,.59-1.06,3.82,3.82,0,0,1,.69-.7,2.29,2.29,0,0,1,.59-.33c.15,0,.25,0,.27,0s-.23.28-.56.66a5.53,5.53,0,0,0-.53.7,6.61,6.61,0,0,0-.48,1,16.15,16.15,0,0,0-.58,1.93C35.05,54.31,34.93,54.63,34.85,54.62Z"/><path class="cls-7" d="M29.13,51.21s0-.12,0-.29,0-.09,0-.14l.08-.16a4.09,4.09,0,0,1,.22-.39l.14-.21c.05-.08.11-.15.17-.23a5.24,5.24,0,0,1,.4-.46,7,7,0,0,1,2.32-1.62c.21-.08.4-.16.59-.22l.27-.08.25-.06c.16,0,.31-.06.44-.08l.18,0h.16c.18,0,.29,0,.3.06s-.09.1-.25.17l-.14.05-.17.07-.39.15-.23.09-.24.11c-.17.07-.34.16-.52.25a10.19,10.19,0,0,0-1.14.69,11.59,11.59,0,0,0-1,.82,5.28,5.28,0,0,0-.41.41l-.19.19-.16.17-.28.32-.12.13-.1.11C29.25,51.17,29.17,51.23,29.13,51.21Z"/><path class="cls-7" d="M31.62,47.45c-.05-.06.06-.24.33-.41a2.44,2.44,0,0,1,1.19-.31,3.3,3.3,0,0,1,1.18.22c.28.12.43.24.41.32s-.21.1-.5.1-.67,0-1.08,0a8.34,8.34,0,0,0-1,.1C31.85,47.48,31.66,47.52,31.62,47.45Z"/><path class="cls-7" d="M27.53,49.6c-.07,0,.06-.45.4-1.06l.14-.23c0-.09.1-.17.15-.26l.37-.54a13.49,13.49,0,0,1,1-1.15,12.73,12.73,0,0,1,1.11-1l.53-.4.25-.17.23-.14c.6-.37,1-.53,1.06-.46s-1.31,1.11-2.73,2.6S27.69,49.69,27.53,49.6Z"/><path class="cls-7" d="M26.73,46.32c0-.09.29-.16.71-.37a5.28,5.28,0,0,0,.7-.4c.26-.18.52-.39.8-.62l.77-.7.62-.56c.17-.16.3-.3.39-.4s.15-.15.19-.14.05.1,0,.25a1.9,1.9,0,0,1-.26.56,6,6,0,0,1-.56.68,9.23,9.23,0,0,1-.77.75,4.67,4.67,0,0,1-.9.64,3.26,3.26,0,0,1-.86.34,2.13,2.13,0,0,1-.62.06C26.81,46.4,26.73,46.36,26.73,46.32Z"/><path class="cls-7" d="M28.16,43.69c-.05-.06.2-.37.68-.8.12-.1.25-.22.4-.33l.48-.37c.35-.24.75-.49,1.18-.73a13,13,0,0,1,1.25-.61c.19-.08.38-.16.56-.22l.5-.17c.62-.19,1-.23,1-.16s-1.4.75-3.06,1.68A22,22,0,0,1,28.16,43.69Z"/><path class="cls-7" d="M30,39.52c0-.05.33-.26,1-.47l.25-.08.28-.07a4.81,4.81,0,0,1,.6-.14,12,12,0,0,1,1.42-.17,17.76,17.76,0,0,1,2.57,0c.66,0,1.06.12,1.06.18s-.41.11-1.06.14-1.56,0-2.54.1c-.49,0-1,.08-1.38.14-.21,0-.41,0-.59.09l-.27.05-.25,0A3.38,3.38,0,0,1,30,39.52Z"/><path class="cls-7" d="M26.65,42.66c0-.07.09-.21.31-.38s.53-.39.88-.61.67-.43.91-.56.43-.19.49-.13,0,.23-.21.45a4.09,4.09,0,0,1-.85.74,4,4,0,0,1-1,.48C26.87,42.74,26.68,42.74,26.65,42.66Z"/><path class="cls-7" d="M40.76,38s-.21-.05-.51-.1a5.09,5.09,0,0,0-.52-.07l-.68-.06c-1-.08-1.76-.13-1.77-.26s.2-.13.52-.17a6,6,0,0,1,1.29,0,7,7,0,0,1,.7.09,2.73,2.73,0,0,1,.57.18,1,1,0,0,1,.34.25C40.76,37.87,40.78,37.93,40.76,38Z"/><path class="cls-7" d="M44.57,38.92c-.06,0-.06-.27,0-.66,0-.1.06-.21.1-.32a3.35,3.35,0,0,1,.15-.35,5.08,5.08,0,0,1,.44-.76,5.64,5.64,0,0,1,.56-.68l.28-.26.27-.21c.33-.24.57-.34.61-.29s-.68.73-1.34,1.69S44.7,39,44.57,38.92Z"/><path class="cls-7" d="M48.22,36.41c.11.06-.09.64-.34,1.33S47.42,39,47.3,39s-.09-.18-.07-.43a3.2,3.2,0,0,1,.22-1,3.87,3.87,0,0,1,.44-.89C48,36.49,48.17,36.38,48.22,36.41Z"/><path class="cls-7" d="M53.74,35.48c.06.11-.65.63-1.47,1.32S50.81,38.1,50.71,38s0-.25.27-.54a7,7,0,0,1,2.17-1.82C53.48,35.49,53.7,35.43,53.74,35.48Z"/><path class="cls-7" d="M52.69,37.14c.05.11-.35.37-.88.56s-1,.27-1.05.15.35-.37.89-.57S52.65,37,52.69,37.14Z"/><path class="cls-7" d="M60.83,35.91a8.08,8.08,0,0,1-2.47,1.55,7.72,7.72,0,0,1-2.75,1,12.28,12.28,0,0,1,2.55-1.38A11.49,11.49,0,0,1,60.83,35.91Z"/><path class="cls-7" d="M60.56,38.3s.3-.26.87-.5l.23-.09.25-.09.57-.17c.4-.11.84-.2,1.31-.28A14.33,14.33,0,0,1,66.21,37c.63,0,1,0,1,.11s-.37.13-1,.2-1.45.17-2.37.31l-1.28.24L62,38l-.25.06-.23.06C61,38.26,60.58,38.36,60.56,38.3Z"/><path class="cls-7" d="M70.16,38.88a6.08,6.08,0,0,1-1.1,0L67.88,39c-.44,0-.93.06-1.45.11a29.81,29.81,0,0,1-3.73.33c0-.06.39-.2,1-.36a18.56,18.56,0,0,1,2.64-.42c.52,0,1-.07,1.47-.08s.86,0,1.21,0a3.9,3.9,0,0,1,.81.14C70.07,38.8,70.16,38.85,70.16,38.88Z"/><path class="cls-7" d="M67.22,40A8,8,0,0,1,65,39.8a8.35,8.35,0,0,1-2.22-.31c0-.06.24-.13.66-.16a8.81,8.81,0,0,1,1.61,0,9.38,9.38,0,0,1,1.58.31C67,39.79,67.24,39.9,67.22,40Z"/><path class="cls-7" d="M74.46,44.4a14.84,14.84,0,0,1-3-1.69,15.17,15.17,0,0,1-2.87-1.87c0-.08.42,0,1,.25a15.83,15.83,0,0,1,4.16,2.54C74.26,44,74.51,44.34,74.46,44.4Z"/></svg>