<svg id="Layer_1" data-name="Layer 1" xmlns="http://www.w3.org/2000/svg" viewBox="0 0 100 100"><defs><style>.cls-1{opacity:0.5;}.cls-2{fill:#fff200;stroke:#494949;stroke-miterlimit:10;}.cls-3{fill:#a6c914;}.cls-4{fill:#323232;}</style></defs><ellipse class="cls-1" cx="50.45" cy="52.31" rx="42.3" ry="40.94"/><ellipse class="cls-2" cx="49.55" cy="48.69" rx="42.3" ry="40.94"/><ellipse class="cls-3" cx="49.55" cy="48.69" rx="36.57" ry="35.39"/><path class="cls-4" d="M56.9,41.05c-.14-4.46-1.47-8.93-1.61-13.39H53.6q.32,4.44.31,8.89c0,3.1-.3,6.59-2.74,8.59a2,2,0,0,1-1,.5c-1,.08-1.58-.94-2-1.81l-5.46-12.9L40.63,32a36.61,36.61,0,0,1,4.95,9.78c.63,1.9,1,4.28-.53,5.64a5.35,5.35,0,0,1-4,.93,24,24,0,0,1-10.25-3.44c-.54-.36-2.33-1.74-3.21-1.65-.67.07-.06,1.27,0,1.92,4.22.5,7.58,3.56,10.51,6.55,4.18,4.27-.19,10.06,1.73,15,2,5.23,8.55,8.78,14.13,8.4C64,74.46,66.62,65.33,68.3,57.35c.31-1.47,4.25-20.84,5-20.49-1.29-.65-.18-1.3-1.48-2-1.35,3.47-3.7,8.85-6.17,11.7-1.26,1.46-3.86.8-5.76.33C57.5,46.35,57,43.4,56.9,41.05Z"/><path class="cls-4" d="M25,41a3.33,3.33,0,0,0-1.77,2,1.64,1.64,0,0,0,.39,1.82,3,3,0,0,0,3.29.73,2.58,2.58,0,0,0,1.5-2.88A2.65,2.65,0,0,0,25,41Z"/><path class="cls-4" d="M41.32,26.49a3.41,3.41,0,0,0-3.47,1.07,3.15,3.15,0,0,0-.3,3.51c1.37,1.3,3.79,1.68,5.17.39C44.26,30,43.38,27.07,41.32,26.49Z"/><path class="cls-4" d="M52.46,22.61a3.09,3.09,0,0,0-.93.83,2.91,2.91,0,0,0-.23,3,3.08,3.08,0,0,0,.8,1A3.26,3.26,0,0,0,57,25.91a3.16,3.16,0,0,0-3.48-3.69A3.41,3.41,0,0,0,52.46,22.61Z"/><path class="cls-4" d="M76,34.34A3,3,0,0,0,73.9,31.5,2.71,2.71,0,0,0,71,33.17a4.38,4.38,0,0,0,.23,3.45c1.54.43,3.56.63,4.42-.69A2.58,2.58,0,0,0,76,34.34Z"/></svg>