<svg id="Layer_1" data-name="Layer 1" xmlns="http://www.w3.org/2000/svg" viewBox="0 0 100 100"><defs><style>.cls-1{opacity:0.5;}.cls-2{fill:#fff200;stroke:#494949;stroke-miterlimit:10;}.cls-3{fill:#a6c914;}.cls-4{fill:#323232;}</style></defs><ellipse class="cls-1" cx="50.45" cy="52.31" rx="42.3" ry="40.94"/><ellipse class="cls-2" cx="49.55" cy="48.69" rx="42.3" ry="40.94"/><ellipse class="cls-3" cx="49.55" cy="48.69" rx="36.57" ry="35.39"/><path class="cls-4" d="M66.86,51.7a12.78,12.78,0,0,0,4.28-6.9c.06-.22.31-1,.37-1.29C62,40,61.54,40.38,54.34,29l-.3-.47c-1.35,12.89-3.4,21.65-8.33,36.06C57.06,58.69,63.39,54.82,66.86,51.7Z"/><path class="cls-4" d="M27.9,34c-.41,4.7.81,10.33,3.51,16.14,2.9,6.2,6.74,11,9.26,13.07a.44.44,0,0,0,.36.07.18.18,0,0,0,.13-.1c2.11-5.66,8.09-29.27,9.7-36.56a36.12,36.12,0,0,0-7.63,3.21C40,31.45,36.75,33,33,33c-2,0-3.24-1.21-4.67-2.05C28.29,31.44,27.94,33.51,27.9,34Z"/><path class="cls-4" d="M73.82,42.79c0-.28-1.43-.16-1.49.06s-.13.49-.19.73c-1.64,6.18-2.24,9-26.29,21.6l0,0a.62.62,0,0,1-.48,0,.56.56,0,0,1-.32-.77c5.5-16,7.27-24.76,8.55-38,0-.27.06-.55.08-.83a.28.28,0,0,0-.06-.2c-.42-.47-.86-.3-1.5-.51a.16.16,0,0,0-.2.12c0,.2-.08.44-.14.72C50.46,32,44,57.45,41.8,63.38a1,1,0,0,1-1.56.31C34.58,59.13,24.93,43.51,27.59,31.5c.11-.47.23-.93.37-1.38.1-.72-.55-.57-.95-1a.3.3,0,0,0-.51.12C22.25,45.6,28.47,54.4,40.23,69c1.48,1.85,1.79,6,2.31,6.31s.36-5,2.21-6C46.92,68.14,76,54.82,73.82,42.79Z"/><path class="cls-4" d="M52.15,24.49l1.44.31a.23.23,0,0,0,.28-.22,6.8,6.8,0,0,0-.29-2.47C53,21.43,51.85,24.43,52.15,24.49Z"/><path class="cls-4" d="M28.2,29.37a.23.23,0,0,0,.33-.12A6.79,6.79,0,0,0,29,26.81c-.38-.84-2.38,1.69-2.12,1.84Z"/><path class="cls-4" d="M72.44,42.41l1.19-.17c.24,0-.47-2.53-1-2a5.45,5.45,0,0,0-.39,2A.19.19,0,0,0,72.44,42.41Z"/></svg>