<svg id="Layer_1" data-name="Layer 1" xmlns="http://www.w3.org/2000/svg" viewBox="0 0 100 100"><defs><style>.cls-1{opacity:0.5;}.cls-2{fill:#fff200;stroke:#494949;stroke-miterlimit:10;}.cls-3{fill:#a6c914;}.cls-4{fill:#323232;fill-rule:evenodd;}</style></defs><ellipse class="cls-1" cx="50.45" cy="52.31" rx="42.3" ry="40.94"/><ellipse class="cls-2" cx="49.55" cy="48.69" rx="42.3" ry="40.94"/><ellipse class="cls-3" cx="49.55" cy="48.69" rx="36.57" ry="35.4"/><path class="cls-4" d="M54.56,71.82c-4.1,1.06-3.38-4.75-5.84-6.46S33.12,58.44,29,57.77s-3.91-8.83,2.91-5.63,13.59,6.46,15.29,5.27,1.14-14.35-.37-20.3-2.4-9.89,1.44-10,4.47,4.75,4.31,10,.6,18.36,3.23,19,10.05-7.37,11.43-9.6,4.23-6.33,7-4.39.39,6.46-2.44,7.37S59.77,60.61,58,61.93s-.53,5.59-.67,7.14-.24,2.39-2.77,2.75ZM76.74,41c1.35.58,3.11-1.6,1.74-4.89a8.35,8.35,0,0,0-2.67,2c-.63.83-.66,1.85.93,2.91ZM46.67,25c-1.47-.25-1.61-3,1.44-5a8.06,8.06,0,0,1,1,3.09c0,1-.56,1.87-2.47,1.87ZM24.75,52.88c-.56,1.08-3.38.47-4.63-2.43,1.67-.21,5.49-.63,4.63,2.43ZM55,73.35c-1.61.41-.61,2.46.88,4,.65-1.58,1.26-4.35-.88-4Z"/></svg>