<svg id="Layer_1" data-name="Layer 1" xmlns="http://www.w3.org/2000/svg" viewBox="0 0 100 100"><defs><style>.cls-1{opacity:0.5;}.cls-2{fill:#fff200;stroke:#494949;stroke-miterlimit:10;}.cls-3{fill:#a6c914;}.cls-4{fill:#5c9e16;}.cls-5{fill:#c4f45b;}</style></defs><ellipse class="cls-1" cx="50.46" cy="51.82" rx="42.29" ry="40.93"/><ellipse class="cls-2" cx="49.54" cy="48.18" rx="42.29" ry="40.93"/><ellipse class="cls-3" cx="49.54" cy="48.18" rx="36.57" ry="35.39"/><path class="cls-4" d="M59.94,61.4C54.45,40.26,39.86,27.06,31.75,21.06,55.37,25.41,80,47.6,59.94,61.4"/><path class="cls-4" d="M59.94,61.4C47.76,69.08,38.07,56.9,37.51,44s-2.06-18.48-5.76-23c8.11,6,22.7,19.2,28.19,40.34"/><path class="cls-5" d="M48.71,53.64a16.54,16.54,0,0,1,3.76.52,16.14,16.14,0,0,1,3.59,1.38,11.62,11.62,0,0,1,1.65,1.07,6.23,6.23,0,0,1,1.4,1.49l-.26.18-.25.19a5.83,5.83,0,0,0-1.22-1.4A10.35,10.35,0,0,0,55.85,56a16.32,16.32,0,0,0-3.46-1.5,16,16,0,0,0-3.69-.67,8.67,8.67,0,0,0-3.7.52,8.65,8.65,0,0,1,3.62-.69h.09"/><path class="cls-5" d="M58.39,48.84a15.79,15.79,0,0,0,0,6.74l-.31.07-.31.06a16.45,16.45,0,0,1,.35-7,19.11,19.11,0,0,1,3.08-6.09,18.67,18.67,0,0,0-2.77,6.17"/><path class="cls-5" d="M45.79,46.09a15.94,15.94,0,0,1,3.75.54A16.24,16.24,0,0,1,53.11,48a10,10,0,0,1,1.64,1.07,6.21,6.21,0,0,1,1.37,1.47l-.19.14-.19.14a6,6,0,0,0-1.24-1.41A11.09,11.09,0,0,0,53,48.35a16.63,16.63,0,0,0-3.47-1.48,15.44,15.44,0,0,0-3.7-.65,8.53,8.53,0,0,0-3.7.54,8.42,8.42,0,0,1,3.54-.67h.17"/><path class="cls-5" d="M44.38,39.06a11.37,11.37,0,0,1,2.59.35,11.65,11.65,0,0,1,2.48,1,6,6,0,0,1,1.69,1.24l.25.88a6.3,6.3,0,0,0-2.1-1.79,11,11,0,0,0-2.37-1,10.54,10.54,0,0,0-2.55-.48,5.86,5.86,0,0,0-2.55.36,5.91,5.91,0,0,1,2.49-.48h.07"/><path class="cls-5" d="M54.39,40.92a14.4,14.4,0,0,0-.06,6.13l-.5-.13a13.93,13.93,0,0,1,.33-6.06,17.45,17.45,0,0,1,2.76-5.52,17.3,17.3,0,0,0-2.53,5.58"/><path class="cls-5" d="M49.32,35.17a8.83,8.83,0,0,0,0,3.69L49,38.72a8.2,8.2,0,0,1,.2-3.59,10,10,0,0,1,1.63-3.27,10.33,10.33,0,0,0-1.5,3.31"/><path class="cls-5" d="M42.19,32.35a8.47,8.47,0,0,1,1.79.42,4.6,4.6,0,0,1,1.28.71l.29.59a4.36,4.36,0,0,0-1.65-1,7,7,0,0,0-1.73-.49,7.26,7.26,0,0,0-1.8-.09,4.08,4.08,0,0,0-1.74.48,4.26,4.26,0,0,1,1.73-.57,6.35,6.35,0,0,1,.87-.05c.32,0,.64,0,1,.05"/><path class="cls-5" d="M44,29.4a6.23,6.23,0,0,0,0,2.58l-.22-.1a5.56,5.56,0,0,1,.14-2.5A7.13,7.13,0,0,1,45,27.09a7,7,0,0,0-1,2.31"/><path class="cls-5" d="M62,75.83c-.25-.25-1,3.49-1.37,3.91,1.53-6.47-1.42-36.82-25.37-55.93,7.06,4.94,25.88,21.4,26.74,52"/></svg>