<svg xmlns="http://www.w3.org/2000/svg" viewBox="0 0 100 100"><defs><style>.cls-1{isolation:isolate;}.cls-2{opacity:0.5;}.cls-3{fill:#fff200;stroke:#494949;stroke-miterlimit:10;}.cls-4{fill:#a6c914;}.cls-5{fill:#f6f3f0;}.cls-6{fill:#db7764;mix-blend-mode:multiply;}</style></defs><g class="cls-1"><g id="Layer_1" data-name="Layer 1"><ellipse class="cls-2" cx="50.45" cy="52.34" rx="42.3" ry="41.41"/><ellipse class="cls-3" cx="49.55" cy="48.66" rx="42.3" ry="41.41"/><ellipse class="cls-4" cx="49.55" cy="48.66" rx="36.57" ry="35.81"/><polygon class="cls-5" points="23.76 66.9 23.75 66.97 70.6 71.6 75.33 25.73 75.27 25.73 23.76 66.9"/><polygon class="cls-6" points="72.27 28.13 67.81 71.33 69.28 71.47 73.88 26.83 72.27 28.13"/><polygon class="cls-6" points="68.35 31.26 64.25 70.97 65.72 71.12 69.96 29.96 68.35 31.26"/><polygon class="cls-6" points="64.42 34.39 60.69 70.62 62.15 70.77 66.04 33.1 64.42 34.39"/><polygon class="cls-6" points="60.51 37.53 57.12 70.27 58.59 70.41 62.12 36.23 60.51 37.53"/><polygon class="cls-6" points="56.58 40.66 53.56 69.92 55.03 70.06 58.2 39.37 56.58 40.66"/><polygon class="cls-6" points="52.66 43.79 50 69.56 51.47 69.71 54.28 42.5 52.66 43.79"/><polygon class="cls-6" points="48.74 46.93 46.44 69.21 47.91 69.36 50.36 45.63 48.74 46.93"/><polygon class="cls-6" points="44.82 50.06 42.88 68.86 44.35 69 46.44 48.77 44.82 50.06"/><polygon class="cls-6" points="40.9 53.2 39.32 68.51 40.79 68.65 42.52 51.9 40.9 53.2"/><polygon class="cls-6" points="36.98 56.33 35.76 68.15 37.23 68.3 38.6 55.04 36.98 56.33"/><polygon class="cls-6" points="33.06 59.46 32.2 67.8 33.67 67.95 34.68 58.17 33.06 59.46"/><polygon class="cls-6" points="29.14 62.6 28.64 67.45 30.11 67.59 30.76 61.3 29.14 62.6"/><polygon class="cls-6" points="25.22 65.73 25.08 67.1 26.55 67.24 26.84 64.44 25.22 65.73"/><polygon class="cls-6" points="25.14 65.79 70.73 70.31 70.88 68.87 26.76 64.5 25.14 65.79"/><polygon class="cls-6" points="29.07 62.66 71.09 66.82 71.24 65.38 30.68 61.37 29.07 62.66"/><polygon class="cls-6" points="32.98 59.52 71.45 63.33 71.6 61.89 34.6 58.23 32.98 59.52"/><polygon class="cls-6" points="36.91 56.39 71.81 59.85 71.96 58.41 38.52 55.1 36.91 56.39"/><polygon class="cls-6" points="40.83 53.26 72.17 56.36 72.32 54.92 42.44 51.96 40.83 53.26"/><polygon class="cls-6" points="44.75 50.12 72.53 52.87 72.68 51.43 46.37 48.83 44.75 50.12"/><polygon class="cls-6" points="48.67 46.99 72.89 49.39 73.04 47.95 50.29 45.7 48.67 46.99"/><polygon class="cls-6" points="52.59 43.85 73.25 45.9 73.4 44.46 54.21 42.56 52.59 43.85"/><polygon class="cls-6" points="56.51 40.72 73.61 42.41 73.76 40.98 58.13 39.43 56.51 40.72"/><polygon class="cls-6" points="60.43 37.59 73.97 38.93 74.12 37.49 62.05 36.29 60.43 37.59"/><polygon class="cls-6" points="64.35 34.45 74.33 35.44 74.48 34 65.97 33.16 64.35 34.45"/><polygon class="cls-6" points="68.27 31.32 74.69 31.95 74.84 30.52 69.89 30.03 68.27 31.32"/><polygon class="cls-6" points="72.19 28.18 75.05 28.47 75.2 27.03 73.81 26.89 72.19 28.18"/></g></g></svg>