<svg id="Layer_1" data-name="Layer 1" xmlns="http://www.w3.org/2000/svg" viewBox="0 0 100 100"><defs><style>.cls-1{opacity:0.5;}.cls-2{fill:#fff200;stroke:#494949;stroke-miterlimit:10;}.cls-3{fill:#a6c914;}.cls-4{fill:#323232;}</style></defs><ellipse class="cls-1" cx="50.45" cy="52.31" rx="42.3" ry="40.94"/><ellipse class="cls-2" cx="49.55" cy="48.69" rx="42.3" ry="40.94"/><ellipse class="cls-3" cx="49.55" cy="48.69" rx="36.57" ry="35.39"/><path class="cls-4" d="M32.35,53.57c.41-.8.84-1.58,1.28-2.35,2-3.42,4.48-7.11,8.11-8.93A11.23,11.23,0,0,1,48,41.2a15.57,15.57,0,0,1,3.18.68A28.11,28.11,0,0,1,62,52.48c.53.9,1,1.83,1.47,2.77,1.8,4,3,8.53,1.49,12.57C63.72,71.34,59.8,73.2,56.3,74a27.08,27.08,0,0,1-2.83.38c-5.68.45-11.47-.69-17.19-2-3.61-.83-7-3.62-7-7.71a14.67,14.67,0,0,1,.15-2.89A26.36,26.36,0,0,1,32.35,53.57Z"/><path class="cls-4" d="M34.85,39.68a6.84,6.84,0,0,1-4,6.73,6.36,6.36,0,0,1-6.57-.94C20.61,42,22.78,31.83,28,31.79c3.08,0,5.72,2.73,6.58,5.84A8.27,8.27,0,0,1,34.85,39.68Z"/><path class="cls-4" d="M49.43,30.94a8.82,8.82,0,0,1-4.1,7.83A5.78,5.78,0,0,1,39.21,38c-3.61-2.69-4.26-8.58-1.6-12.15a7.68,7.68,0,0,1,1.64-1.72,5.79,5.79,0,0,1,4.32-1.23,6.26,6.26,0,0,1,2,.66,6.75,6.75,0,0,1,1.73,1.28,7.59,7.59,0,0,1,1.93,3.9A8.1,8.1,0,0,1,49.43,30.94Z"/><path class="cls-4" d="M65,32.64c-.31,3.48-2.24,6.65-4.79,8a5.49,5.49,0,0,1-1.59.56c-3.55.73-7.17-3-7.34-7.55-.08-4.14,2-8,5.11-9.31a5.85,5.85,0,0,1,4.62.13,6.22,6.22,0,0,1,1.45.92,7.21,7.21,0,0,1,2.51,5A10.81,10.81,0,0,1,65,32.64Z"/><path class="cls-4" d="M76.35,46.13a10.47,10.47,0,0,1-4.27,5.42,6.71,6.71,0,0,1-2.36.94,4.27,4.27,0,0,1-2.28-.18,3.84,3.84,0,0,1-1.33-.81c-2.48-2-2.72-6.43-1.28-10a11.13,11.13,0,0,1,1-2c1.52-2.28,3.82-4.15,6-3.7,3,.68,4.47,4.58,4.81,8.22A8.11,8.11,0,0,1,76.35,46.13Z"/></svg>