<svg id="Layer_1" data-name="Layer 1" xmlns="http://www.w3.org/2000/svg" viewBox="0 0 100 100"><defs><style>.cls-1{opacity:0.5;}.cls-2{fill:#fff200;stroke:#494949;stroke-miterlimit:10;}.cls-3{fill:#a6c914;}.cls-4{fill:#323232;}</style></defs><ellipse class="cls-1" cx="50.46" cy="51.82" rx="42.29" ry="40.93"/><ellipse class="cls-2" cx="49.54" cy="48.18" rx="42.29" ry="40.93"/><ellipse class="cls-3" cx="49.54" cy="48.18" rx="36.57" ry="35.39"/><path class="cls-4" d="M68.32,67.53c-1.09-3.61-5.82-5.56-7.17-9.1-1.28-3.36,1-3.39.41-6.9-.63-3.75-6.65-6.54-10.85-6.42-4.2-.12-9.81,2.67-10.44,6.42-.6,3.51,1.4,3.54.12,6.9C39,62,34.31,63.92,33.22,67.53a6.23,6.23,0,0,0,2.47,6.55,11.16,11.16,0,0,0,7.65,2,13.9,13.9,0,0,0,3.58-.81,10.86,10.86,0,0,1,7.7,0,14,14,0,0,0,3.58.81,11.16,11.16,0,0,0,7.65-2A6.23,6.23,0,0,0,68.32,67.53Z"/><path class="cls-4" d="M44.59,28.22c-.16-2.92-.7-6.42-3.42-7.61A5.4,5.4,0,0,0,35.42,22a11.62,11.62,0,0,0-2.71,5.52c-.65,2.68-.93,5.57.13,8.11s3.8,4.56,6.54,4.08a6.59,6.59,0,0,0,4.75-4.65A18.9,18.9,0,0,0,44.59,28.22Z"/><path class="cls-4" d="M53.44,28.46c.05-2.93.45-6.45,3.13-7.74a5.41,5.41,0,0,1,5.8,1.21,11.71,11.71,0,0,1,2.92,5.42c.76,2.64,1.15,5.53.19,8.11s-3.61,4.7-6.38,4.32a6.61,6.61,0,0,1-4.93-4.46A19.29,19.29,0,0,1,53.44,28.46Z"/><path class="cls-4" d="M77.24,43.34c1.26,3.69,1.92,7.53.16,11.29a7.28,7.28,0,0,1-6.17,4.26c-5.76.25-7.85-6.67-5.57-11.11a15.93,15.93,0,0,1,6.58-6.27A3.45,3.45,0,0,1,77.24,43.34Z"/><path class="cls-4" d="M24.75,41.11c3.87.79,7.56,2.17,10,5.57a7.06,7.06,0,0,1,.64,7.39c-2.68,5-9.8,3.3-12.56-.88a15.75,15.75,0,0,1-2.19-8.75A3.4,3.4,0,0,1,24.75,41.11Z"/></svg>