<svg id="aad3b5c9-20ad-43ef-9611-9e2433e0f85c" data-name="Layer 1" xmlns="http://www.w3.org/2000/svg" width="231" height="459" viewBox="0 0 231 459">
  <defs>
    <style>
      .bafe578e-b720-4558-8b11-fb487f16e891 {
        fill: #ff0;
      }
    </style>
  </defs>
  <path class="bafe578e-b720-4558-8b11-fb487f16e891" d="M222.85,267.88c-10.44-32.68-41.34-55.21-82.66-60.26a139.31,139.31,0,0,0-16.83-1,183.71,183.71,0,0,0-47.85,6.75V39.55a36.3,36.3,0,0,0-72.59,0V419.1a36.3,36.3,0,0,0,72.59,0V300.79c.17-7.57,16.33-22.22,45.53-22.22,2.44,0,4.95.11,7.45.32,11.91,1,20,5.17,24.1,12.4a22.91,22.91,0,0,1,2.86,11.09h0c0,.2,0,.4,0,.59V419.45a36.29,36.29,0,1,0,72.58,0V303.14C228.73,285.85,223.07,268.53,222.85,267.88ZM220,303V419.45a28.29,28.29,0,1,1-56.58,0V303s2.15-29-34.27-32.05-61.44,14.88-61.65,29.8V419.1a28.3,28.3,0,0,1-56.59,0V39.55a28.3,28.3,0,0,1,56.59,0V224.29s34.83-13.23,71.71-8.72,66.3,24.35,76,54.75C215.23,270.32,220.72,286.89,220,303Z"/>
</svg>
